<?xml version="1.0" encoding="UTF-8" standalone="no"?>
<!DOCTYPE svg PUBLIC "-//W3C//DTD SVG 1.1//EN"
 "http://www.w3.org/Graphics/SVG/1.1/DTD/svg11.dtd">
<!-- Generated by graphviz version 7.0.1 (0)
 -->
<!-- Pages: 1 -->
<svg width="2414pt" height="870pt"
 viewBox="0.00 0.00 2414.00 870.00" xmlns="http://www.w3.org/2000/svg" xmlns:xlink="http://www.w3.org/1999/xlink">
<g id="graph0" class="graph" transform="scale(1 1) rotate(0) translate(4 866)">
<polygon fill="white" stroke="none" points="-4,4 -4,-866 2410,-866 2410,4 -4,4"/>
<!-- UI_LockOn_Scanning_C -->
<g id="node1" class="node">
<title>UI_LockOn_Scanning_C</title>
<polygon fill="#88ff88" stroke="black" points="0,-478.5 0,-861.5 850,-861.5 850,-478.5 0,-478.5"/>
<text text-anchor="start" x="8" y="-846.3" font-family="monospace" font-size="14.00">ClassExport: UI_LockOn_Scanning_C</text>
<text text-anchor="start" x="8" y="-831.3" font-family="monospace" font-size="14.00">  SuperStruct: import /Script/UMG&#45;&gt;UserWidget</text>
<text text-anchor="start" x="8" y="-816.3" font-family="monospace" font-size="14.00">  Properties:</text>
<text text-anchor="start" x="8" y="-801.3" font-family="monospace" font-size="14.00">    StructProperty UberGraphFrame</text>
<text text-anchor="start" x="8" y="-786.3" font-family="monospace" font-size="14.00">      CPF_Transient|CPF_DuplicateTransient</text>
<text text-anchor="start" x="8" y="-771.3" font-family="monospace" font-size="14.00">    ObjectProperty AnimScanning</text>
<text text-anchor="start" x="8" y="-756.3" font-family="monospace" font-size="14.00">      CPF_BlueprintVisible|CPF_BlueprintReadOnly|CPF_Transient|CPF_RepSkip</text>
<text text-anchor="start" x="8" y="-741.3" font-family="monospace" font-size="14.00">    ObjectProperty Image_1</text>
<text text-anchor="start" x="8" y="-726.3" font-family="monospace" font-size="14.00">      CPF_BlueprintVisible|CPF_ExportObject|CPF_InstancedReference|CPF_RepSkip|CPF_PersistentInstance</text>
<text text-anchor="start" x="8" y="-711.3" font-family="monospace" font-size="14.00">    ObjectProperty Image_2</text>
<text text-anchor="start" x="8" y="-696.3" font-family="monospace" font-size="14.00">      CPF_BlueprintVisible|CPF_ExportObject|CPF_InstancedReference|CPF_RepSkip|CPF_PersistentInstance</text>
<text text-anchor="start" x="8" y="-681.3" font-family="monospace" font-size="14.00">    ObjectProperty Image_3</text>
<text text-anchor="start" x="8" y="-666.3" font-family="monospace" font-size="14.00">      CPF_BlueprintVisible|CPF_ExportObject|CPF_InstancedReference|CPF_RepSkip|CPF_PersistentInstance</text>
<text text-anchor="start" x="8" y="-651.3" font-family="monospace" font-size="14.00">    ObjectProperty Image_4</text>
<text text-anchor="start" x="8" y="-636.3" font-family="monospace" font-size="14.00">      CPF_BlueprintVisible|CPF_ExportObject|CPF_InstancedReference|CPF_RepSkip|CPF_PersistentInstance</text>
<text text-anchor="start" x="8" y="-621.3" font-family="monospace" font-size="14.00">    ObjectProperty Image_5</text>
<text text-anchor="start" x="8" y="-606.3" font-family="monospace" font-size="14.00">      CPF_BlueprintVisible|CPF_ExportObject|CPF_InstancedReference|CPF_RepSkip|CPF_PersistentInstance</text>
<text text-anchor="start" x="8" y="-591.3" font-family="monospace" font-size="14.00">    ObjectProperty Image_6</text>
<text text-anchor="start" x="8" y="-576.3" font-family="monospace" font-size="14.00">      CPF_BlueprintVisible|CPF_ExportObject|CPF_InstancedReference|CPF_RepSkip|CPF_PersistentInstance</text>
<text text-anchor="start" x="8" y="-561.3" font-family="monospace" font-size="14.00">    ObjectProperty Image_7</text>
<text text-anchor="start" x="8" y="-546.3" font-family="monospace" font-size="14.00">      CPF_BlueprintVisible|CPF_ExportObject|CPF_InstancedReference|CPF_RepSkip|CPF_PersistentInstance</text>
<text text-anchor="start" x="8" y="-531.3" font-family="monospace" font-size="14.00">    ObjectProperty Image_8</text>
<text text-anchor="start" x="8" y="-516.3" font-family="monospace" font-size="14.00">      CPF_BlueprintVisible|CPF_ExportObject|CPF_InstancedReference|CPF_RepSkip|CPF_PersistentInstance</text>
<text text-anchor="start" x="8" y="-501.3" font-family="monospace" font-size="14.00">    ObjectProperty Image_9</text>
<text text-anchor="start" x="8" y="-486.3" font-family="monospace" font-size="14.00">      CPF_BlueprintVisible|CPF_ExportObject|CPF_InstancedReference|CPF_RepSkip|CPF_PersistentInstance</text>
</g>
<!-- ExecuteUbergraph_UI_LockOn_Scanning -->
<g id="node2" class="node">
<title>ExecuteUbergraph_UI_LockOn_Scanning</title>
<polygon fill="#ff8888" stroke="black" points="868,-636 868,-704 1338,-704 1338,-636 868,-636"/>
<text text-anchor="start" x="876" y="-688.8" font-family="monospace" font-size="14.00">Function ExecuteUbergraph_UI_LockOn_Scanning</text>
<text text-anchor="start" x="876" y="-673.8" font-family="monospace" font-size="14.00">  IntProperty EntryPoint</text>
<text text-anchor="start" x="876" y="-658.8" font-family="monospace" font-size="14.00">    CPF_BlueprintVisible|CPF_BlueprintReadOnly|CPF_Parm</text>
<text text-anchor="start" x="876" y="-643.8" font-family="monospace" font-size="14.00">  ObjectProperty CallFunc_PlayAnimation_ReturnValue</text>
</g>
<!-- ExecuteUbergraph_UI_LockOn_Scanning__0 -->
<g id="node3" class="node">
<title>ExecuteUbergraph_UI_LockOn_Scanning__0</title>
<polygon fill="#eeeeee" stroke="black" points="967,-403.5 967,-441.5 1239,-441.5 1239,-403.5 967,-403.5"/>
<text text-anchor="start" x="975" y="-426.3" font-family="monospace" font-size="14.00">EX_ComputedJump</text>
<text text-anchor="start" x="975" y="-411.3" font-family="monospace" font-size="14.00">  EX_LocalVariable [EntryPoint]</text>
</g>
<!-- ExecuteUbergraph_UI_LockOn_Scanning&#45;&gt;ExecuteUbergraph_UI_LockOn_Scanning__0 -->
<g id="edge1" class="edge">
<title>ExecuteUbergraph_UI_LockOn_Scanning&#45;&gt;ExecuteUbergraph_UI_LockOn_Scanning__0</title>
<path fill="none" stroke="black" d="M1103,-636.15C1103,-587.93 1103,-498.75 1103,-452.71"/>
<polygon fill="black" stroke="black" points="1106.5,-452.97 1103,-442.97 1099.5,-452.97 1106.5,-452.97"/>
</g>
<!-- ExecuteUbergraph_UI_LockOn_Scanning__10 -->
<g id="node4" class="node">
<title>ExecuteUbergraph_UI_LockOn_Scanning__10</title>
<polygon fill="#eeeeee" stroke="black" points="1710.5,-148.5 1710.5,-291.5 2255.5,-291.5 2255.5,-148.5 1710.5,-148.5"/>
<text text-anchor="start" x="1718.5" y="-276.3" font-family="monospace" font-size="14.00">EX_LetObj</text>
<text text-anchor="start" x="1718.5" y="-261.3" font-family="monospace" font-size="14.00">  EX_LocalVariable [CallFunc_PlayAnimation_ReturnValue]</text>
<text text-anchor="start" x="1718.5" y="-246.3" font-family="monospace" font-size="14.00">  EX_FinalFunction import /Script/UMG&#45;&gt;UserWidget&#45;&gt;PlayAnimation</text>
<text text-anchor="start" x="1718.5" y="-231.3" font-family="monospace" font-size="14.00">    EX_InstanceVariable [AnimScanning]</text>
<text text-anchor="start" x="1718.5" y="-216.3" font-family="monospace" font-size="14.00">    EX_FloatConst 0</text>
<text text-anchor="start" x="1718.5" y="-201.3" font-family="monospace" font-size="14.00">    EX_IntConst 0</text>
<text text-anchor="start" x="1718.5" y="-186.3" font-family="monospace" font-size="14.00">    EX_ByteConst 2</text>
<text text-anchor="start" x="1718.5" y="-171.3" font-family="monospace" font-size="14.00">    EX_FloatConst 1</text>
<text text-anchor="start" x="1718.5" y="-156.3" font-family="monospace" font-size="14.00">    EX_False</text>
</g>
<!-- ExecuteUbergraph_UI_LockOn_Scanning__57 -->
<g id="node5" class="node">
<title>ExecuteUbergraph_UI_LockOn_Scanning__57</title>
<polygon fill="#eeeeee" stroke="black" points="1933.5,-75.5 1933.5,-111.5 2032.5,-111.5 2032.5,-75.5 1933.5,-75.5"/>
<text text-anchor="start" x="1941.5" y="-89.8" font-family="monospace" font-size="14.00">EX_Jump 67</text>
</g>
<!-- ExecuteUbergraph_UI_LockOn_Scanning__10&#45;&gt;ExecuteUbergraph_UI_LockOn_Scanning__57 -->
<g id="edge2" class="edge">
<title>ExecuteUbergraph_UI_LockOn_Scanning__10&#45;&gt;ExecuteUbergraph_UI_LockOn_Scanning__57</title>
<path fill="none" stroke="black" d="M1983,-148.75C1983,-139.48 1983,-130.45 1983,-122.51"/>
<polygon fill="black" stroke="black" points="1986.5,-122.55 1983,-112.55 1979.5,-122.55 1986.5,-122.55"/>
</g>
<!-- ExecuteUbergraph_UI_LockOn_Scanning__67 -->
<g id="node7" class="node">
<title>ExecuteUbergraph_UI_LockOn_Scanning__67</title>
<polygon fill="#eeeeee" stroke="black" points="1925,-0.5 1925,-38.5 2041,-38.5 2041,-0.5 1925,-0.5"/>
<text text-anchor="start" x="1933" y="-23.3" font-family="monospace" font-size="14.00">EX_Return</text>
<text text-anchor="start" x="1933" y="-8.3" font-family="monospace" font-size="14.00">  EX_Nothing</text>
</g>
<!-- ExecuteUbergraph_UI_LockOn_Scanning__57&#45;&gt;ExecuteUbergraph_UI_LockOn_Scanning__67 -->
<g id="edge3" class="edge">
<title>ExecuteUbergraph_UI_LockOn_Scanning__57&#45;&gt;ExecuteUbergraph_UI_LockOn_Scanning__67</title>
<path fill="none" stroke="black" d="M1983,-75.8C1983,-68.09 1983,-58.7 1983,-49.86"/>
<polygon fill="black" stroke="black" points="1986.5,-49.88 1983,-39.88 1979.5,-49.88 1986.5,-49.88"/>
</g>
<!-- ExecuteUbergraph_UI_LockOn_Scanning__62 -->
<g id="node6" class="node">
<title>ExecuteUbergraph_UI_LockOn_Scanning__62</title>
<polygon fill="#eeeeee" stroke="black" points="1933.5,-329.5 1933.5,-365.5 2032.5,-365.5 2032.5,-329.5 1933.5,-329.5"/>
<text text-anchor="start" x="1941.5" y="-343.8" font-family="monospace" font-size="14.00">EX_Jump 10</text>
</g>
<!-- ExecuteUbergraph_UI_LockOn_Scanning__62&#45;&gt;ExecuteUbergraph_UI_LockOn_Scanning__10 -->
<g id="edge4" class="edge">
<title>ExecuteUbergraph_UI_LockOn_Scanning__62&#45;&gt;ExecuteUbergraph_UI_LockOn_Scanning__10</title>
<path fill="none" stroke="black" d="M1983,-329.57C1983,-322.19 1983,-312.93 1983,-302.96"/>
<polygon fill="black" stroke="black" points="1986.5,-302.98 1983,-292.98 1979.5,-302.98 1986.5,-302.98"/>
</g>
<!-- ExecuteUbergraph_UI_LockOn_Scanning__69 -->
<g id="node8" class="node">
<title>ExecuteUbergraph_UI_LockOn_Scanning__69</title>
<polygon fill="#eeeeee" stroke="black" points="2274,-202 2274,-238 2406,-238 2406,-202 2274,-202"/>
<text text-anchor="start" x="2282" y="-216.3" font-family="monospace" font-size="14.00">EX_EndOfScript</text>
</g>
<!-- Construct -->
<g id="node9" class="node">
<title>Construct</title>
<polygon fill="#ff8888" stroke="black" points="1537.5,-652 1537.5,-688 1702.5,-688 1702.5,-652 1537.5,-652"/>
<text text-anchor="start" x="1545.5" y="-666.3" font-family="monospace" font-size="14.00">Function Construct</text>
</g>
<!-- Construct__0 -->
<g id="node10" class="node">
<title>Construct__0</title>
<polygon fill="#eeeeee" stroke="black" points="1257,-403.5 1257,-441.5 1983,-441.5 1983,-403.5 1257,-403.5"/>
<text text-anchor="start" x="1265" y="-426.3" font-family="monospace" font-size="14.00">EX_LocalFinalFunction export UI_LockOn_Scanning_C&#45;&gt;ExecuteUbergraph_UI_LockOn_Scanning</text>
<text text-anchor="start" x="1265" y="-411.3" font-family="monospace" font-size="14.00">  EX_IntConst 62</text>
</g>
<!-- Construct&#45;&gt;Construct__0 -->
<g id="edge5" class="edge">
<title>Construct&#45;&gt;Construct__0</title>
<path fill="none" stroke="black" d="M1620,-652.13C1620,-610.91 1620,-504.69 1620,-452.84"/>
<polygon fill="black" stroke="black" points="1623.5,-453 1620,-443 1616.5,-453 1623.5,-453"/>
</g>
<!-- Construct__0&#45;&gt;ExecuteUbergraph_UI_LockOn_Scanning__62 -->
<g id="edge6" class="edge">
<title>Construct__0:e&#45;&gt;ExecuteUbergraph_UI_LockOn_Scanning__62</title>
<path fill="none" stroke="red" d="M1984,-422.5C2003.28,-422.5 1999.62,-397.08 1993.28,-376.04"/>
<polygon fill="none" stroke="red" points="1996.66,-375.12 1990.2,-366.73 1990.02,-377.32 1996.66,-375.12"/>
</g>
<!-- Construct__15 -->
<g id="node11" class="node">
<title>Construct__15</title>
<polygon fill="#eeeeee" stroke="black" points="1562,-328.5 1562,-366.5 1678,-366.5 1678,-328.5 1562,-328.5"/>
<text text-anchor="start" x="1570" y="-351.3" font-family="monospace" font-size="14.00">EX_Return</text>
<text text-anchor="start" x="1570" y="-336.3" font-family="monospace" font-size="14.00">  EX_Nothing</text>
</g>
<!-- Construct__0&#45;&gt;Construct__15 -->
<g id="edge7" class="edge">
<title>Construct__0&#45;&gt;Construct__15</title>
<path fill="none" stroke="black" d="M1620,-403.83C1620,-396 1620,-386.57 1620,-377.74"/>
<polygon fill="black" stroke="black" points="1623.5,-377.78 1620,-367.78 1616.5,-377.78 1623.5,-377.78"/>
</g>
<!-- Construct__17 -->
<g id="node12" class="node">
<title>Construct__17</title>
<polygon fill="#eeeeee" stroke="black" points="2051,-75.5 2051,-111.5 2183,-111.5 2183,-75.5 2051,-75.5"/>
<text text-anchor="start" x="2059" y="-89.8" font-family="monospace" font-size="14.00">EX_EndOfScript</text>
</g>
</g>
</svg>
