<?xml version="1.0" encoding="UTF-8" standalone="no"?>
<!DOCTYPE svg PUBLIC "-//W3C//DTD SVG 1.1//EN"
 "http://www.w3.org/Graphics/SVG/1.1/DTD/svg11.dtd">
<!-- Generated by graphviz version 7.0.1 (0)
 -->
<!-- Pages: 1 -->
<svg width="3954pt" height="1156pt"
 viewBox="0.00 0.00 3954.00 1156.00" xmlns="http://www.w3.org/2000/svg" xmlns:xlink="http://www.w3.org/1999/xlink">
<g id="graph0" class="graph" transform="scale(1 1) rotate(0) translate(4 1152)">
<polygon fill="white" stroke="none" points="-4,4 -4,-1152 3950,-1152 3950,4 -4,4"/>
<!-- WND_DailyDealOnTerminal_C -->
<g id="node1" class="node">
<title>WND_DailyDealOnTerminal_C</title>
<polygon fill="#88ff88" stroke="black" points="0,-974.5 0,-1147.5 850,-1147.5 850,-974.5 0,-974.5"/>
<text text-anchor="start" x="8" y="-1132.3" font-family="monospace" font-size="14.00">ClassExport: WND_DailyDealOnTerminal_C</text>
<text text-anchor="start" x="8" y="-1117.3" font-family="monospace" font-size="14.00">  SuperStruct: import /Script/FSD&#45;&gt;DealWidget</text>
<text text-anchor="start" x="8" y="-1102.3" font-family="monospace" font-size="14.00">  Properties:</text>
<text text-anchor="start" x="8" y="-1087.3" font-family="monospace" font-size="14.00">    StructProperty UberGraphFrame</text>
<text text-anchor="start" x="8" y="-1072.3" font-family="monospace" font-size="14.00">      CPF_Transient|CPF_DuplicateTransient</text>
<text text-anchor="start" x="8" y="-1057.3" font-family="monospace" font-size="14.00">    ObjectProperty BlurBackground</text>
<text text-anchor="start" x="8" y="-1042.3" font-family="monospace" font-size="14.00">      CPF_BlueprintVisible|CPF_ExportObject|CPF_InstancedReference|CPF_RepSkip|CPF_PersistentInstance</text>
<text text-anchor="start" x="8" y="-1027.3" font-family="monospace" font-size="14.00">    ObjectProperty ITM_Trading_DailyDeal</text>
<text text-anchor="start" x="8" y="-1012.3" font-family="monospace" font-size="14.00">      CPF_BlueprintVisible|CPF_ExportObject|CPF_InstancedReference|CPF_RepSkip|CPF_PersistentInstance</text>
<text text-anchor="start" x="8" y="-997.3" font-family="monospace" font-size="14.00">    ObjectProperty Overlay_SoldOut</text>
<text text-anchor="start" x="8" y="-982.3" font-family="monospace" font-size="14.00">      CPF_BlueprintVisible|CPF_ExportObject|CPF_InstancedReference|CPF_RepSkip|CPF_PersistentInstance</text>
</g>
<!-- ExecuteUbergraph_WND_DailyDealOnTerminal -->
<g id="node2" class="node">
<title>ExecuteUbergraph_WND_DailyDealOnTerminal</title>
<polygon fill="#ff8888" stroke="black" points="868.5,-982 868.5,-1140 1363.5,-1140 1363.5,-982 868.5,-982"/>
<text text-anchor="start" x="876.5" y="-1124.8" font-family="monospace" font-size="14.00">Function ExecuteUbergraph_WND_DailyDealOnTerminal</text>
<text text-anchor="start" x="876.5" y="-1109.8" font-family="monospace" font-size="14.00">  IntProperty EntryPoint</text>
<text text-anchor="start" x="876.5" y="-1094.8" font-family="monospace" font-size="14.00">    CPF_BlueprintVisible|CPF_BlueprintReadOnly|CPF_Parm</text>
<text text-anchor="start" x="876.5" y="-1079.8" font-family="monospace" font-size="14.00">  DelegateProperty K2Node_CreateDelegate_OutputDelegate</text>
<text text-anchor="start" x="876.5" y="-1064.8" font-family="monospace" font-size="14.00">  ObjectProperty CallFunc_GetFSDSaveGame_ReturnValue</text>
<text text-anchor="start" x="876.5" y="-1049.8" font-family="monospace" font-size="14.00">  IntProperty K2Node_CustomEvent_Credits</text>
<text text-anchor="start" x="876.5" y="-1034.8" font-family="monospace" font-size="14.00">  BoolProperty CallFunc_IsDailyDealBought_ReturnValue</text>
<text text-anchor="start" x="876.5" y="-1019.8" font-family="monospace" font-size="14.00">  BoolProperty CallFunc_SelectVisibility_IsVisible</text>
<text text-anchor="start" x="876.5" y="-1004.8" font-family="monospace" font-size="14.00">  BoolProperty CallFunc_SelectVisibility_VisibilityChanged</text>
<text text-anchor="start" x="876.5" y="-989.8" font-family="monospace" font-size="14.00">  EnumProperty CallFunc_SelectVisibility_New_Visibility</text>
</g>
<!-- ExecuteUbergraph_WND_DailyDealOnTerminal__0 -->
<g id="node3" class="node">
<title>ExecuteUbergraph_WND_DailyDealOnTerminal__0</title>
<polygon fill="#eeeeee" stroke="black" points="1008.5,-863.5 1008.5,-899.5 1223.5,-899.5 1223.5,-863.5 1008.5,-863.5"/>
<text text-anchor="start" x="1016.5" y="-877.8" font-family="monospace" font-size="14.00">EX_PushExecutionFlow 324</text>
</g>
<!-- ExecuteUbergraph_WND_DailyDealOnTerminal&#45;&gt;ExecuteUbergraph_WND_DailyDealOnTerminal__0 -->
<g id="edge1" class="edge">
<title>ExecuteUbergraph_WND_DailyDealOnTerminal&#45;&gt;ExecuteUbergraph_WND_DailyDealOnTerminal__0</title>
<path fill="none" stroke="black" d="M1116,-982.15C1116,-956.66 1116,-929.95 1116,-910.61"/>
<polygon fill="black" stroke="black" points="1119.5,-910.83 1116,-900.83 1112.5,-910.83 1119.5,-910.83"/>
</g>
<!-- ExecuteUbergraph_WND_DailyDealOnTerminal__5 -->
<g id="node4" class="node">
<title>ExecuteUbergraph_WND_DailyDealOnTerminal__5</title>
<polygon fill="#eeeeee" stroke="black" points="928,-743 928,-781 1200,-781 1200,-743 928,-743"/>
<text text-anchor="start" x="936" y="-765.8" font-family="monospace" font-size="14.00">EX_ComputedJump</text>
<text text-anchor="start" x="936" y="-750.8" font-family="monospace" font-size="14.00">  EX_LocalVariable [EntryPoint]</text>
</g>
<!-- ExecuteUbergraph_WND_DailyDealOnTerminal__0&#45;&gt;ExecuteUbergraph_WND_DailyDealOnTerminal__5 -->
<g id="edge3" class="edge">
<title>ExecuteUbergraph_WND_DailyDealOnTerminal__0&#45;&gt;ExecuteUbergraph_WND_DailyDealOnTerminal__5</title>
<path fill="none" stroke="black" d="M1108.55,-863.67C1100.2,-844.8 1086.52,-813.89 1076.52,-791.3"/>
<polygon fill="black" stroke="black" points="1079.81,-790.07 1072.56,-782.34 1073.41,-792.9 1079.81,-790.07"/>
</g>
<!-- ExecuteUbergraph_WND_DailyDealOnTerminal__324 -->
<g id="node18" class="node">
<title>ExecuteUbergraph_WND_DailyDealOnTerminal__324</title>
<polygon fill="#eeeeee" stroke="black" points="1218,-743 1218,-781 1334,-781 1334,-743 1218,-743"/>
<text text-anchor="start" x="1226" y="-765.8" font-family="monospace" font-size="14.00">EX_Return</text>
<text text-anchor="start" x="1226" y="-750.8" font-family="monospace" font-size="14.00">  EX_Nothing</text>
</g>
<!-- ExecuteUbergraph_WND_DailyDealOnTerminal__0&#45;&gt;ExecuteUbergraph_WND_DailyDealOnTerminal__324 -->
<g id="edge2" class="edge">
<title>ExecuteUbergraph_WND_DailyDealOnTerminal__0:e&#45;&gt;ExecuteUbergraph_WND_DailyDealOnTerminal__324</title>
<path fill="none" stroke="red" d="M1225,-881.5C1234.21,-881.5 1228.57,-870.55 1232,-862 1241.7,-837.81 1253.79,-810.8 1262.84,-791.11"/>
<polygon fill="none" stroke="red" points="1266,-792.64 1267.02,-782.09 1259.64,-789.7 1266,-792.64"/>
<text text-anchor="middle" x="1297.5" y="-821.8" font-family="monospace" font-size="14.00">PUSH STACK</text>
</g>
<!-- ExecuteUbergraph_WND_DailyDealOnTerminal__15 -->
<g id="node5" class="node">
<title>ExecuteUbergraph_WND_DailyDealOnTerminal__15</title>
<polygon fill="#eeeeee" stroke="black" points="2630,-300.5 2630,-368.5 3224,-368.5 3224,-300.5 2630,-300.5"/>
<text text-anchor="start" x="2638" y="-353.3" font-family="monospace" font-size="14.00">EX_LetBool</text>
<text text-anchor="start" x="2638" y="-338.3" font-family="monospace" font-size="14.00">  EX_LocalVariable [CallFunc_IsDailyDealBought_ReturnValue]</text>
<text text-anchor="start" x="2638" y="-323.3" font-family="monospace" font-size="14.00">  EX_CallMath import /Script/FSD&#45;&gt;DailyDealSettings&#45;&gt;IsDailyDealBought</text>
<text text-anchor="start" x="2638" y="-308.3" font-family="monospace" font-size="14.00">    EX_Self</text>
</g>
<!-- ExecuteUbergraph_WND_DailyDealOnTerminal__36 -->
<g id="node6" class="node">
<title>ExecuteUbergraph_WND_DailyDealOnTerminal__36</title>
<polygon fill="#eeeeee" stroke="black" points="2646.5,-74.5 2646.5,-262.5 3207.5,-262.5 3207.5,-74.5 2646.5,-74.5"/>
<text text-anchor="start" x="2654.5" y="-247.3" font-family="monospace" font-size="14.00">EX_Context</text>
<text text-anchor="start" x="2654.5" y="-232.3" font-family="monospace" font-size="14.00">  EX_ObjectConst import /Game/Game/LIB_Game&#45;&gt;Default__LIB_Game_C</text>
<text text-anchor="start" x="2654.5" y="-217.3" font-family="monospace" font-size="14.00">  EX_LocalVirtualFunction SelectVisibility</text>
<text text-anchor="start" x="2654.5" y="-202.3" font-family="monospace" font-size="14.00">    EX_InstanceVariable [Overlay_SoldOut]</text>
<text text-anchor="start" x="2654.5" y="-187.3" font-family="monospace" font-size="14.00">    EX_ByteConst 1</text>
<text text-anchor="start" x="2654.5" y="-172.3" font-family="monospace" font-size="14.00">    EX_ByteConst 0</text>
<text text-anchor="start" x="2654.5" y="-157.3" font-family="monospace" font-size="14.00">    EX_LocalVariable [CallFunc_IsDailyDealBought_ReturnValue]</text>
<text text-anchor="start" x="2654.5" y="-142.3" font-family="monospace" font-size="14.00">    EX_Self</text>
<text text-anchor="start" x="2654.5" y="-127.3" font-family="monospace" font-size="14.00">    EX_LocalVariable [CallFunc_SelectVisibility_IsVisible]</text>
<text text-anchor="start" x="2654.5" y="-112.3" font-family="monospace" font-size="14.00">    EX_LocalVariable [CallFunc_SelectVisibility_VisibilityChanged]</text>
<text text-anchor="start" x="2654.5" y="-97.3" font-family="monospace" font-size="14.00">    EX_LocalVariable [CallFunc_SelectVisibility_New_Visibility]</text>
<text text-anchor="start" x="2654.5" y="-82.3" font-family="monospace" font-size="14.00">  RValue = []</text>
</g>
<!-- ExecuteUbergraph_WND_DailyDealOnTerminal__15&#45;&gt;ExecuteUbergraph_WND_DailyDealOnTerminal__36 -->
<g id="edge4" class="edge">
<title>ExecuteUbergraph_WND_DailyDealOnTerminal__15&#45;&gt;ExecuteUbergraph_WND_DailyDealOnTerminal__36</title>
<path fill="none" stroke="black" d="M2927,-300.71C2927,-292.58 2927,-283.42 2927,-273.83"/>
<polygon fill="black" stroke="black" points="2930.5,-273.91 2927,-263.91 2923.5,-273.91 2930.5,-273.91"/>
</g>
<!-- ExecuteUbergraph_WND_DailyDealOnTerminal__122 -->
<g id="node7" class="node">
<title>ExecuteUbergraph_WND_DailyDealOnTerminal__122</title>
<polygon fill="#eeeeee" stroke="black" points="2840.5,-0.5 2840.5,-36.5 3013.5,-36.5 3013.5,-0.5 2840.5,-0.5"/>
<text text-anchor="start" x="2848.5" y="-14.8" font-family="monospace" font-size="14.00">EX_PopExecutionFlow</text>
</g>
<!-- ExecuteUbergraph_WND_DailyDealOnTerminal__36&#45;&gt;ExecuteUbergraph_WND_DailyDealOnTerminal__122 -->
<g id="edge5" class="edge">
<title>ExecuteUbergraph_WND_DailyDealOnTerminal__36&#45;&gt;ExecuteUbergraph_WND_DailyDealOnTerminal__122</title>
<path fill="none" stroke="black" d="M2927,-74.61C2927,-65.01 2927,-55.86 2927,-47.87"/>
<polygon fill="black" stroke="black" points="2930.5,-47.89 2927,-37.89 2923.5,-47.89 2930.5,-47.89"/>
</g>
<!-- ExecuteUbergraph_WND_DailyDealOnTerminal__123 -->
<g id="node8" class="node">
<title>ExecuteUbergraph_WND_DailyDealOnTerminal__123</title>
<polygon fill="#eeeeee" stroke="black" points="2012,-593.5 2012,-661.5 2400,-661.5 2400,-593.5 2012,-593.5"/>
<text text-anchor="start" x="2020" y="-646.3" font-family="monospace" font-size="14.00">EX_Context</text>
<text text-anchor="start" x="2020" y="-631.3" font-family="monospace" font-size="14.00">  EX_InstanceVariable [ITM_Trading_DailyDeal]</text>
<text text-anchor="start" x="2020" y="-616.3" font-family="monospace" font-size="14.00">  EX_LocalVirtualFunction UpdateDealText</text>
<text text-anchor="start" x="2020" y="-601.3" font-family="monospace" font-size="14.00">  RValue = []</text>
</g>
<!-- ExecuteUbergraph_WND_DailyDealOnTerminal__159 -->
<g id="node9" class="node">
<title>ExecuteUbergraph_WND_DailyDealOnTerminal__159</title>
<polygon fill="#eeeeee" stroke="black" points="2243.5,-406.5 2243.5,-519.5 2854.5,-519.5 2854.5,-406.5 2243.5,-406.5"/>
<text text-anchor="start" x="2251.5" y="-504.3" font-family="monospace" font-size="14.00">EX_CallMath import /Script/FSD&#45;&gt;PendingLatentActionLibrary&#45;&gt;WaitOneFrame</text>
<text text-anchor="start" x="2251.5" y="-489.3" font-family="monospace" font-size="14.00">  EX_Self</text>
<text text-anchor="start" x="2251.5" y="-474.3" font-family="monospace" font-size="14.00">  EX_StructConst import /Script/Engine&#45;&gt;LatentActionInfo</text>
<text text-anchor="start" x="2251.5" y="-459.3" font-family="monospace" font-size="14.00">    EX_SkipOffsetConst 15</text>
<text text-anchor="start" x="2251.5" y="-444.3" font-family="monospace" font-size="14.00">    EX_IntConst &#45;598931849</text>
<text text-anchor="start" x="2251.5" y="-429.3" font-family="monospace" font-size="14.00">    EX_NameConst ExecuteUbergraph_WND_DailyDealOnTerminal</text>
<text text-anchor="start" x="2251.5" y="-414.3" font-family="monospace" font-size="14.00">    EX_Self</text>
</g>
<!-- ExecuteUbergraph_WND_DailyDealOnTerminal__123&#45;&gt;ExecuteUbergraph_WND_DailyDealOnTerminal__159 -->
<g id="edge6" class="edge">
<title>ExecuteUbergraph_WND_DailyDealOnTerminal__123&#45;&gt;ExecuteUbergraph_WND_DailyDealOnTerminal__159</title>
<path fill="none" stroke="black" d="M2275.41,-593.62C2317.44,-573.7 2372.33,-547.7 2421.91,-524.21"/>
<polygon fill="black" stroke="black" points="2423.17,-527.49 2430.7,-520.04 2420.17,-521.16 2423.17,-527.49"/>
</g>
<!-- ExecuteUbergraph_WND_DailyDealOnTerminal__159&#45;&gt;ExecuteUbergraph_WND_DailyDealOnTerminal__15 -->
<g id="edge7" class="edge">
<title>ExecuteUbergraph_WND_DailyDealOnTerminal__159:e&#45;&gt;ExecuteUbergraph_WND_DailyDealOnTerminal__15</title>
<path fill="none" stroke="red" d="M2856,-463C2895.26,-463 2913.01,-416.28 2920.9,-379.4"/>
<polygon fill="none" stroke="red" points="2924.29,-380.3 2922.76,-369.82 2917.42,-378.97 2924.29,-380.3"/>
</g>
<!-- ExecuteUbergraph_WND_DailyDealOnTerminal__208 -->
<g id="node10" class="node">
<title>ExecuteUbergraph_WND_DailyDealOnTerminal__208</title>
<polygon fill="#eeeeee" stroke="black" points="2438.5,-316.5 2438.5,-352.5 2611.5,-352.5 2611.5,-316.5 2438.5,-316.5"/>
<text text-anchor="start" x="2446.5" y="-330.8" font-family="monospace" font-size="14.00">EX_PopExecutionFlow</text>
</g>
<!-- ExecuteUbergraph_WND_DailyDealOnTerminal__159&#45;&gt;ExecuteUbergraph_WND_DailyDealOnTerminal__208 -->
<g id="edge8" class="edge">
<title>ExecuteUbergraph_WND_DailyDealOnTerminal__159&#45;&gt;ExecuteUbergraph_WND_DailyDealOnTerminal__208</title>
<path fill="none" stroke="black" d="M2538.47,-406.52C2535.65,-391.62 2532.71,-376.15 2530.31,-363.46"/>
<polygon fill="black" stroke="black" points="2533.76,-362.92 2528.46,-353.75 2526.89,-364.23 2533.76,-362.92"/>
</g>
<!-- ExecuteUbergraph_WND_DailyDealOnTerminal__209 -->
<g id="node11" class="node">
<title>ExecuteUbergraph_WND_DailyDealOnTerminal__209</title>
<polygon fill="#eeeeee" stroke="black" points="3409.5,-735.5 3409.5,-788.5 3896.5,-788.5 3896.5,-735.5 3409.5,-735.5"/>
<text text-anchor="start" x="3417.5" y="-773.3" font-family="monospace" font-size="14.00">EX_BindDelegate OnCreditsChanged</text>
<text text-anchor="start" x="3417.5" y="-758.3" font-family="monospace" font-size="14.00">  EX_LocalVariable [K2Node_CreateDelegate_OutputDelegate]</text>
<text text-anchor="start" x="3417.5" y="-743.3" font-family="monospace" font-size="14.00">  EX_Self</text>
</g>
<!-- ExecuteUbergraph_WND_DailyDealOnTerminal__232 -->
<g id="node12" class="node">
<title>ExecuteUbergraph_WND_DailyDealOnTerminal__232</title>
<polygon fill="#eeeeee" stroke="black" points="3360,-593.5 3360,-661.5 3946,-661.5 3946,-593.5 3360,-593.5"/>
<text text-anchor="start" x="3368" y="-646.3" font-family="monospace" font-size="14.00">EX_LetObj</text>
<text text-anchor="start" x="3368" y="-631.3" font-family="monospace" font-size="14.00">  EX_LocalVariable [CallFunc_GetFSDSaveGame_ReturnValue]</text>
<text text-anchor="start" x="3368" y="-616.3" font-family="monospace" font-size="14.00">  EX_CallMath import /Script/FSD&#45;&gt;GameFunctionLibrary&#45;&gt;GetFSDSaveGame</text>
<text text-anchor="start" x="3368" y="-601.3" font-family="monospace" font-size="14.00">    EX_Self</text>
</g>
<!-- ExecuteUbergraph_WND_DailyDealOnTerminal__209&#45;&gt;ExecuteUbergraph_WND_DailyDealOnTerminal__232 -->
<g id="edge9" class="edge">
<title>ExecuteUbergraph_WND_DailyDealOnTerminal__209&#45;&gt;ExecuteUbergraph_WND_DailyDealOnTerminal__232</title>
<path fill="none" stroke="black" d="M3653,-735.77C3653,-717.9 3653,-693.47 3653,-672.44"/>
<polygon fill="black" stroke="black" points="3656.5,-672.69 3653,-662.69 3649.5,-672.69 3656.5,-672.69"/>
</g>
<!-- ExecuteUbergraph_WND_DailyDealOnTerminal__253 -->
<g id="node13" class="node">
<title>ExecuteUbergraph_WND_DailyDealOnTerminal__253</title>
<polygon fill="#eeeeee" stroke="black" points="3405.5,-414 3405.5,-512 3900.5,-512 3900.5,-414 3405.5,-414"/>
<text text-anchor="start" x="3413.5" y="-496.8" font-family="monospace" font-size="14.00">EX_AddMulticastDelegate</text>
<text text-anchor="start" x="3413.5" y="-481.8" font-family="monospace" font-size="14.00">  EX_Context</text>
<text text-anchor="start" x="3413.5" y="-466.8" font-family="monospace" font-size="14.00">    EX_LocalVariable [CallFunc_GetFSDSaveGame_ReturnValue]</text>
<text text-anchor="start" x="3413.5" y="-451.8" font-family="monospace" font-size="14.00">    EX_InstanceVariable [OnCreditsChanged]</text>
<text text-anchor="start" x="3413.5" y="-436.8" font-family="monospace" font-size="14.00">    RValue = [OnCreditsChanged]</text>
<text text-anchor="start" x="3413.5" y="-421.8" font-family="monospace" font-size="14.00">  EX_LocalVariable [K2Node_CreateDelegate_OutputDelegate]</text>
</g>
<!-- ExecuteUbergraph_WND_DailyDealOnTerminal__232&#45;&gt;ExecuteUbergraph_WND_DailyDealOnTerminal__253 -->
<g id="edge10" class="edge">
<title>ExecuteUbergraph_WND_DailyDealOnTerminal__232&#45;&gt;ExecuteUbergraph_WND_DailyDealOnTerminal__253</title>
<path fill="none" stroke="black" d="M3653,-593.62C3653,-573.45 3653,-547.04 3653,-523.32"/>
<polygon fill="black" stroke="black" points="3656.5,-523.45 3653,-513.45 3649.5,-523.45 3656.5,-523.45"/>
</g>
<!-- ExecuteUbergraph_WND_DailyDealOnTerminal__294 -->
<g id="node14" class="node">
<title>ExecuteUbergraph_WND_DailyDealOnTerminal__294</title>
<polygon fill="#eeeeee" stroke="black" points="3479.5,-315.5 3479.5,-353.5 3826.5,-353.5 3826.5,-315.5 3479.5,-315.5"/>
<text text-anchor="start" x="3487.5" y="-338.3" font-family="monospace" font-size="14.00">EX_LocalVirtualFunction OnCreditsChanged</text>
<text text-anchor="start" x="3487.5" y="-323.3" font-family="monospace" font-size="14.00">  EX_IntConst 0</text>
</g>
<!-- ExecuteUbergraph_WND_DailyDealOnTerminal__253&#45;&gt;ExecuteUbergraph_WND_DailyDealOnTerminal__294 -->
<g id="edge11" class="edge">
<title>ExecuteUbergraph_WND_DailyDealOnTerminal__253&#45;&gt;ExecuteUbergraph_WND_DailyDealOnTerminal__294</title>
<path fill="none" stroke="black" d="M3653,-414.18C3653,-397.56 3653,-379.43 3653,-364.77"/>
<polygon fill="black" stroke="black" points="3656.5,-364.89 3653,-354.89 3649.5,-364.89 3656.5,-364.89"/>
</g>
<!-- ExecuteUbergraph_WND_DailyDealOnTerminal__313 -->
<g id="node15" class="node">
<title>ExecuteUbergraph_WND_DailyDealOnTerminal__313</title>
<polygon fill="#eeeeee" stroke="black" points="3566.5,-150.5 3566.5,-186.5 3739.5,-186.5 3739.5,-150.5 3566.5,-150.5"/>
<text text-anchor="start" x="3574.5" y="-164.8" font-family="monospace" font-size="14.00">EX_PopExecutionFlow</text>
</g>
<!-- ExecuteUbergraph_WND_DailyDealOnTerminal__294&#45;&gt;ExecuteUbergraph_WND_DailyDealOnTerminal__313 -->
<g id="edge12" class="edge">
<title>ExecuteUbergraph_WND_DailyDealOnTerminal__294&#45;&gt;ExecuteUbergraph_WND_DailyDealOnTerminal__313</title>
<path fill="none" stroke="black" d="M3653,-315.64C3653,-287.24 3653,-231.58 3653,-197.74"/>
<polygon fill="black" stroke="black" points="3656.5,-197.87 3653,-187.87 3649.5,-197.87 3656.5,-197.87"/>
</g>
<!-- ExecuteUbergraph_WND_DailyDealOnTerminal__314 -->
<g id="node16" class="node">
<title>ExecuteUbergraph_WND_DailyDealOnTerminal__314</title>
<polygon fill="#eeeeee" stroke="black" points="2742.5,-609.5 2742.5,-645.5 2849.5,-645.5 2849.5,-609.5 2742.5,-609.5"/>
<text text-anchor="start" x="2750.5" y="-623.8" font-family="monospace" font-size="14.00">EX_Jump 159</text>
</g>
<!-- ExecuteUbergraph_WND_DailyDealOnTerminal__314&#45;&gt;ExecuteUbergraph_WND_DailyDealOnTerminal__159 -->
<g id="edge13" class="edge">
<title>ExecuteUbergraph_WND_DailyDealOnTerminal__314&#45;&gt;ExecuteUbergraph_WND_DailyDealOnTerminal__159</title>
<path fill="none" stroke="black" d="M2770.5,-609.72C2740.4,-589.92 2688.63,-555.86 2642.71,-525.65"/>
<polygon fill="black" stroke="black" points="2644.85,-522.87 2634.57,-520.3 2641,-528.72 2644.85,-522.87"/>
</g>
<!-- ExecuteUbergraph_WND_DailyDealOnTerminal__319 -->
<g id="node17" class="node">
<title>ExecuteUbergraph_WND_DailyDealOnTerminal__319</title>
<polygon fill="#eeeeee" stroke="black" points="1997.5,-744 1997.5,-780 2104.5,-780 2104.5,-744 1997.5,-744"/>
<text text-anchor="start" x="2005.5" y="-758.3" font-family="monospace" font-size="14.00">EX_Jump 123</text>
</g>
<!-- ExecuteUbergraph_WND_DailyDealOnTerminal__319&#45;&gt;ExecuteUbergraph_WND_DailyDealOnTerminal__123 -->
<g id="edge14" class="edge">
<title>ExecuteUbergraph_WND_DailyDealOnTerminal__319&#45;&gt;ExecuteUbergraph_WND_DailyDealOnTerminal__123</title>
<path fill="none" stroke="black" d="M2070.63,-744.22C2092.73,-725.33 2129.4,-693.98 2159.01,-668.67"/>
<polygon fill="black" stroke="black" points="2161.07,-671.51 2166.39,-662.36 2156.52,-666.19 2161.07,-671.51"/>
</g>
<!-- ExecuteUbergraph_WND_DailyDealOnTerminal__326 -->
<g id="node19" class="node">
<title>ExecuteUbergraph_WND_DailyDealOnTerminal__326</title>
<polygon fill="#eeeeee" stroke="black" points="3263,-919.5 3263,-955.5 3395,-955.5 3395,-919.5 3263,-919.5"/>
<text text-anchor="start" x="3271" y="-933.8" font-family="monospace" font-size="14.00">EX_EndOfScript</text>
</g>
<!-- UpdateDealText -->
<g id="node20" class="node">
<title>UpdateDealText</title>
<polygon fill="#ff8888" stroke="black" points="1543,-1043 1543,-1079 1749,-1079 1749,-1043 1543,-1043"/>
<text text-anchor="start" x="1551" y="-1057.3" font-family="monospace" font-size="14.00">Function UpdateDealText</text>
</g>
<!-- UpdateDealText__0 -->
<g id="node21" class="node">
<title>UpdateDealText__0</title>
<polygon fill="#eeeeee" stroke="black" points="1241.5,-862.5 1241.5,-900.5 2050.5,-900.5 2050.5,-862.5 1241.5,-862.5"/>
<text text-anchor="start" x="1249.5" y="-885.3" font-family="monospace" font-size="14.00">EX_LocalFinalFunction export WND_DailyDealOnTerminal_C&#45;&gt;ExecuteUbergraph_WND_DailyDealOnTerminal</text>
<text text-anchor="start" x="1249.5" y="-870.3" font-family="monospace" font-size="14.00">  EX_IntConst 319</text>
</g>
<!-- UpdateDealText&#45;&gt;UpdateDealText__0 -->
<g id="edge15" class="edge">
<title>UpdateDealText&#45;&gt;UpdateDealText__0</title>
<path fill="none" stroke="black" d="M1646,-1043.3C1646,-1013.09 1646,-949 1646,-911.5"/>
<polygon fill="black" stroke="black" points="1649.5,-911.85 1646,-901.85 1642.5,-911.85 1649.5,-911.85"/>
</g>
<!-- UpdateDealText__0&#45;&gt;ExecuteUbergraph_WND_DailyDealOnTerminal__319 -->
<g id="edge16" class="edge">
<title>UpdateDealText__0:e&#45;&gt;ExecuteUbergraph_WND_DailyDealOnTerminal__319</title>
<path fill="none" stroke="red" d="M2052,-881.5C2088.2,-881.5 2074.17,-825.52 2061.85,-790.51"/>
<polygon fill="none" stroke="red" points="2065.24,-789.58 2058.5,-781.4 2058.67,-791.99 2065.24,-789.58"/>
</g>
<!-- UpdateDealText__15 -->
<g id="node22" class="node">
<title>UpdateDealText__15</title>
<polygon fill="#eeeeee" stroke="black" points="1588,-743 1588,-781 1704,-781 1704,-743 1588,-743"/>
<text text-anchor="start" x="1596" y="-765.8" font-family="monospace" font-size="14.00">EX_Return</text>
<text text-anchor="start" x="1596" y="-750.8" font-family="monospace" font-size="14.00">  EX_Nothing</text>
</g>
<!-- UpdateDealText__0&#45;&gt;UpdateDealText__15 -->
<g id="edge17" class="edge">
<title>UpdateDealText__0&#45;&gt;UpdateDealText__15</title>
<path fill="none" stroke="black" d="M1646,-862.65C1646,-843.91 1646,-814.14 1646,-792.02"/>
<polygon fill="black" stroke="black" points="1649.5,-792.14 1646,-782.14 1642.5,-792.14 1649.5,-792.14"/>
</g>
<!-- UpdateDealText__17 -->
<g id="node23" class="node">
<title>UpdateDealText__17</title>
<polygon fill="#eeeeee" stroke="black" points="3668,-807.5 3668,-843.5 3800,-843.5 3800,-807.5 3668,-807.5"/>
<text text-anchor="start" x="3676" y="-821.8" font-family="monospace" font-size="14.00">EX_EndOfScript</text>
</g>
<!-- OnCreditsChanged -->
<g id="node24" class="node">
<title>OnCreditsChanged</title>
<polygon fill="#ff8888" stroke="black" points="2292,-1034.5 2292,-1087.5 2762,-1087.5 2762,-1034.5 2292,-1034.5"/>
<text text-anchor="start" x="2300" y="-1072.3" font-family="monospace" font-size="14.00">Function OnCreditsChanged</text>
<text text-anchor="start" x="2300" y="-1057.3" font-family="monospace" font-size="14.00">  IntProperty Credits</text>
<text text-anchor="start" x="2300" y="-1042.3" font-family="monospace" font-size="14.00">    CPF_BlueprintVisible|CPF_BlueprintReadOnly|CPF_Parm</text>
</g>
<!-- OnCreditsChanged__0 -->
<g id="node25" class="node">
<title>OnCreditsChanged__0</title>
<polygon fill="#eeeeee" stroke="black" points="2283.5,-862.5 2283.5,-900.5 2770.5,-900.5 2770.5,-862.5 2283.5,-862.5"/>
<text text-anchor="start" x="2291.5" y="-885.3" font-family="monospace" font-size="14.00">EX_LetValueOnPersistentFrame [K2Node_CustomEvent_Credits]</text>
<text text-anchor="start" x="2291.5" y="-870.3" font-family="monospace" font-size="14.00">  EX_LocalVariable [Credits]</text>
</g>
<!-- OnCreditsChanged&#45;&gt;OnCreditsChanged__0 -->
<g id="edge18" class="edge">
<title>OnCreditsChanged&#45;&gt;OnCreditsChanged__0</title>
<path fill="none" stroke="black" d="M2527,-1034.57C2527,-1001.98 2527,-945.64 2527,-911.44"/>
<polygon fill="black" stroke="black" points="2530.5,-911.86 2527,-901.86 2523.5,-911.86 2530.5,-911.86"/>
</g>
<!-- OnCreditsChanged__18 -->
<g id="node26" class="node">
<title>OnCreditsChanged__18</title>
<polygon fill="#eeeeee" stroke="black" points="2122.5,-743 2122.5,-781 2931.5,-781 2931.5,-743 2122.5,-743"/>
<text text-anchor="start" x="2130.5" y="-765.8" font-family="monospace" font-size="14.00">EX_LocalFinalFunction export WND_DailyDealOnTerminal_C&#45;&gt;ExecuteUbergraph_WND_DailyDealOnTerminal</text>
<text text-anchor="start" x="2130.5" y="-750.8" font-family="monospace" font-size="14.00">  EX_IntConst 314</text>
</g>
<!-- OnCreditsChanged__0&#45;&gt;OnCreditsChanged__18 -->
<g id="edge19" class="edge">
<title>OnCreditsChanged__0&#45;&gt;OnCreditsChanged__18</title>
<path fill="none" stroke="black" d="M2527,-862.65C2527,-843.91 2527,-814.14 2527,-792.02"/>
<polygon fill="black" stroke="black" points="2530.5,-792.14 2527,-782.14 2523.5,-792.14 2530.5,-792.14"/>
</g>
<!-- OnCreditsChanged__18&#45;&gt;ExecuteUbergraph_WND_DailyDealOnTerminal__314 -->
<g id="edge20" class="edge">
<title>OnCreditsChanged__18:e&#45;&gt;ExecuteUbergraph_WND_DailyDealOnTerminal__314</title>
<path fill="none" stroke="red" d="M2933,-762C2995.6,-762 2891.73,-689.61 2832.6,-651.45"/>
<polygon fill="none" stroke="red" points="2834.76,-648.67 2824.45,-646.22 2830.99,-654.57 2834.76,-648.67"/>
</g>
<!-- OnCreditsChanged__33 -->
<g id="node27" class="node">
<title>OnCreditsChanged__33</title>
<polygon fill="#eeeeee" stroke="black" points="2469,-608.5 2469,-646.5 2585,-646.5 2585,-608.5 2469,-608.5"/>
<text text-anchor="start" x="2477" y="-631.3" font-family="monospace" font-size="14.00">EX_Return</text>
<text text-anchor="start" x="2477" y="-616.3" font-family="monospace" font-size="14.00">  EX_Nothing</text>
</g>
<!-- OnCreditsChanged__18&#45;&gt;OnCreditsChanged__33 -->
<g id="edge21" class="edge">
<title>OnCreditsChanged__18&#45;&gt;OnCreditsChanged__33</title>
<path fill="none" stroke="black" d="M2527,-743.13C2527,-721.18 2527,-683.64 2527,-657.53"/>
<polygon fill="black" stroke="black" points="2530.5,-657.6 2527,-647.6 2523.5,-657.6 2530.5,-657.6"/>
</g>
<!-- OnCreditsChanged__35 -->
<g id="node28" class="node">
<title>OnCreditsChanged__35</title>
<polygon fill="#eeeeee" stroke="black" points="3668,-680.5 3668,-716.5 3800,-716.5 3800,-680.5 3668,-680.5"/>
<text text-anchor="start" x="3676" y="-694.8" font-family="monospace" font-size="14.00">EX_EndOfScript</text>
</g>
<!-- Construct -->
<g id="node29" class="node">
<title>Construct</title>
<polygon fill="#ff8888" stroke="black" points="3165.5,-1043 3165.5,-1079 3330.5,-1079 3330.5,-1043 3165.5,-1043"/>
<text text-anchor="start" x="3173.5" y="-1057.3" font-family="monospace" font-size="14.00">Function Construct</text>
</g>
<!-- Construct__0 -->
<g id="node30" class="node">
<title>Construct__0</title>
<polygon fill="#eeeeee" stroke="black" points="2843.5,-862.5 2843.5,-900.5 3652.5,-900.5 3652.5,-862.5 2843.5,-862.5"/>
<text text-anchor="start" x="2851.5" y="-885.3" font-family="monospace" font-size="14.00">EX_LocalFinalFunction export WND_DailyDealOnTerminal_C&#45;&gt;ExecuteUbergraph_WND_DailyDealOnTerminal</text>
<text text-anchor="start" x="2851.5" y="-870.3" font-family="monospace" font-size="14.00">  EX_IntConst 209</text>
</g>
<!-- Construct&#45;&gt;Construct__0 -->
<g id="edge22" class="edge">
<title>Construct&#45;&gt;Construct__0</title>
<path fill="none" stroke="black" d="M3248,-1043.3C3248,-1013.09 3248,-949 3248,-911.5"/>
<polygon fill="black" stroke="black" points="3251.5,-911.85 3248,-901.85 3244.5,-911.85 3251.5,-911.85"/>
</g>
<!-- Construct__0&#45;&gt;ExecuteUbergraph_WND_DailyDealOnTerminal__209 -->
<g id="edge23" class="edge">
<title>Construct__0:e&#45;&gt;ExecuteUbergraph_WND_DailyDealOnTerminal__209</title>
<path fill="none" stroke="red" d="M3654,-881.5C3670.59,-881.5 3665.88,-834.47 3660.12,-799.67"/>
<polygon fill="none" stroke="red" points="3663.59,-799.16 3658.42,-789.91 3656.69,-800.37 3663.59,-799.16"/>
</g>
<!-- Construct__15 -->
<g id="node31" class="node">
<title>Construct__15</title>
<polygon fill="#eeeeee" stroke="black" points="3190,-743 3190,-781 3306,-781 3306,-743 3190,-743"/>
<text text-anchor="start" x="3198" y="-765.8" font-family="monospace" font-size="14.00">EX_Return</text>
<text text-anchor="start" x="3198" y="-750.8" font-family="monospace" font-size="14.00">  EX_Nothing</text>
</g>
<!-- Construct__0&#45;&gt;Construct__15 -->
<g id="edge24" class="edge">
<title>Construct__0&#45;&gt;Construct__15</title>
<path fill="none" stroke="black" d="M3248,-862.65C3248,-843.91 3248,-814.14 3248,-792.02"/>
<polygon fill="black" stroke="black" points="3251.5,-792.14 3248,-782.14 3244.5,-792.14 3251.5,-792.14"/>
</g>
<!-- Construct__17 -->
<g id="node32" class="node">
<title>Construct__17</title>
<polygon fill="#eeeeee" stroke="black" points="3668,-538.5 3668,-574.5 3800,-574.5 3800,-538.5 3668,-538.5"/>
<text text-anchor="start" x="3676" y="-552.8" font-family="monospace" font-size="14.00">EX_EndOfScript</text>
</g>
</g>
</svg>
