<?xml version="1.0" encoding="UTF-8" standalone="no"?>
<!DOCTYPE svg PUBLIC "-//W3C//DTD SVG 1.1//EN"
 "http://www.w3.org/Graphics/SVG/1.1/DTD/svg11.dtd">
<!-- Generated by graphviz version 7.0.1 (0)
 -->
<!-- Pages: 1 -->
<svg width="4205pt" height="1347pt"
 viewBox="0.00 0.00 4204.50 1347.00" xmlns="http://www.w3.org/2000/svg" xmlns:xlink="http://www.w3.org/1999/xlink">
<g id="graph0" class="graph" transform="scale(1 1) rotate(0) translate(4 1343)">
<polygon fill="white" stroke="none" points="-4,4 -4,-1343 4200.5,-1343 4200.5,4 -4,4"/>
<!-- Popup_ReconnectController_C -->
<g id="node1" class="node">
<title>Popup_ReconnectController_C</title>
<polygon fill="#88ff88" stroke="black" points="0,-1165.5 0,-1338.5 850,-1338.5 850,-1165.5 0,-1165.5"/>
<text text-anchor="start" x="8" y="-1323.3" font-family="monospace" font-size="14.00">ClassExport: Popup_ReconnectController_C</text>
<text text-anchor="start" x="8" y="-1308.3" font-family="monospace" font-size="14.00">  SuperStruct: import /Script/FSD&#45;&gt;WindowWidget</text>
<text text-anchor="start" x="8" y="-1293.3" font-family="monospace" font-size="14.00">  Properties:</text>
<text text-anchor="start" x="8" y="-1278.3" font-family="monospace" font-size="14.00">    StructProperty UberGraphFrame</text>
<text text-anchor="start" x="8" y="-1263.3" font-family="monospace" font-size="14.00">      CPF_Transient|CPF_DuplicateTransient</text>
<text text-anchor="start" x="8" y="-1248.3" font-family="monospace" font-size="14.00">    ObjectProperty Basic_ButtonScalable2</text>
<text text-anchor="start" x="8" y="-1233.3" font-family="monospace" font-size="14.00">      CPF_BlueprintVisible|CPF_ExportObject|CPF_InstancedReference|CPF_RepSkip|CPF_PersistentInstance</text>
<text text-anchor="start" x="8" y="-1218.3" font-family="monospace" font-size="14.00">    ObjectProperty Basic_Menu_MinimalWindow</text>
<text text-anchor="start" x="8" y="-1203.3" font-family="monospace" font-size="14.00">      CPF_BlueprintVisible|CPF_ExportObject|CPF_InstancedReference|CPF_RepSkip|CPF_PersistentInstance</text>
<text text-anchor="start" x="8" y="-1188.3" font-family="monospace" font-size="14.00">    ObjectProperty BlurBackground</text>
<text text-anchor="start" x="8" y="-1173.3" font-family="monospace" font-size="14.00">      CPF_BlueprintVisible|CPF_ExportObject|CPF_InstancedReference|CPF_RepSkip|CPF_PersistentInstance</text>
</g>
<!-- ExecuteUbergraph_Popup_ReconnectController -->
<g id="node2" class="node">
<title>ExecuteUbergraph_Popup_ReconnectController</title>
<polygon fill="#ff8888" stroke="black" points="868,-1210.5 868,-1293.5 1338,-1293.5 1338,-1210.5 868,-1210.5"/>
<text text-anchor="start" x="876" y="-1278.3" font-family="monospace" font-size="14.00">Function ExecuteUbergraph_Popup_ReconnectController</text>
<text text-anchor="start" x="876" y="-1263.3" font-family="monospace" font-size="14.00">  IntProperty EntryPoint</text>
<text text-anchor="start" x="876" y="-1248.3" font-family="monospace" font-size="14.00">    CPF_BlueprintVisible|CPF_BlueprintReadOnly|CPF_Parm</text>
<text text-anchor="start" x="876" y="-1233.3" font-family="monospace" font-size="14.00">  ObjectProperty CallFunc_GetWindowManager_ReturnValue</text>
<text text-anchor="start" x="876" y="-1218.3" font-family="monospace" font-size="14.00">    CPF_InstancedReference</text>
</g>
<!-- ExecuteUbergraph_Popup_ReconnectController__0 -->
<g id="node3" class="node">
<title>ExecuteUbergraph_Popup_ReconnectController__0</title>
<polygon fill="#eeeeee" stroke="black" points="967,-1038.5 967,-1076.5 1239,-1076.5 1239,-1038.5 967,-1038.5"/>
<text text-anchor="start" x="975" y="-1061.3" font-family="monospace" font-size="14.00">EX_ComputedJump</text>
<text text-anchor="start" x="975" y="-1046.3" font-family="monospace" font-size="14.00">  EX_LocalVariable [EntryPoint]</text>
</g>
<!-- ExecuteUbergraph_Popup_ReconnectController&#45;&gt;ExecuteUbergraph_Popup_ReconnectController__0 -->
<g id="edge1" class="edge">
<title>ExecuteUbergraph_Popup_ReconnectController&#45;&gt;ExecuteUbergraph_Popup_ReconnectController__0</title>
<path fill="none" stroke="black" d="M1103,-1210.65C1103,-1173.89 1103,-1120.49 1103,-1087.7"/>
<polygon fill="black" stroke="black" points="1106.5,-1087.74 1103,-1077.74 1099.5,-1087.74 1106.5,-1087.74"/>
</g>
<!-- ExecuteUbergraph_Popup_ReconnectController__10 -->
<g id="node4" class="node">
<title>ExecuteUbergraph_Popup_ReconnectController__10</title>
<polygon fill="#eeeeee" stroke="black" points="2348,-589.5 2348,-777.5 3256,-777.5 3256,-589.5 2348,-589.5"/>
<text text-anchor="start" x="2356" y="-762.3" font-family="monospace" font-size="14.00">EX_Context</text>
<text text-anchor="start" x="2356" y="-747.3" font-family="monospace" font-size="14.00">  EX_ObjectConst import /Script/Engine&#45;&gt;Default__GameplayStatics</text>
<text text-anchor="start" x="2356" y="-732.3" font-family="monospace" font-size="14.00">  EX_FinalFunction import /Script/Engine&#45;&gt;GameplayStatics&#45;&gt;PlaySound2D</text>
<text text-anchor="start" x="2356" y="-717.3" font-family="monospace" font-size="14.00">    EX_Self</text>
<text text-anchor="start" x="2356" y="-702.3" font-family="monospace" font-size="14.00">    EX_ObjectConst import /Game/Audio/SFX/UI/Menu/Button_Click_keyboard_01_Cue&#45;&gt;Button_Click_keyboard_01_Cue</text>
<text text-anchor="start" x="2356" y="-687.3" font-family="monospace" font-size="14.00">    EX_FloatConst 1</text>
<text text-anchor="start" x="2356" y="-672.3" font-family="monospace" font-size="14.00">    EX_FloatConst 1</text>
<text text-anchor="start" x="2356" y="-657.3" font-family="monospace" font-size="14.00">    EX_FloatConst 0</text>
<text text-anchor="start" x="2356" y="-642.3" font-family="monospace" font-size="14.00">    EX_NoObject</text>
<text text-anchor="start" x="2356" y="-627.3" font-family="monospace" font-size="14.00">    EX_NoObject</text>
<text text-anchor="start" x="2356" y="-612.3" font-family="monospace" font-size="14.00">    EX_True</text>
<text text-anchor="start" x="2356" y="-597.3" font-family="monospace" font-size="14.00">  RValue = []</text>
</g>
<!-- ExecuteUbergraph_Popup_ReconnectController__70 -->
<g id="node5" class="node">
<title>ExecuteUbergraph_Popup_ReconnectController__70</title>
<polygon fill="#eeeeee" stroke="black" points="2146,-447.5 2146,-515.5 2748,-515.5 2748,-447.5 2146,-447.5"/>
<text text-anchor="start" x="2154" y="-500.3" font-family="monospace" font-size="14.00">EX_LetObj</text>
<text text-anchor="start" x="2154" y="-485.3" font-family="monospace" font-size="14.00">  EX_LocalVariable [CallFunc_GetWindowManager_ReturnValue]</text>
<text text-anchor="start" x="2154" y="-470.3" font-family="monospace" font-size="14.00">  EX_CallMath import /Script/FSD&#45;&gt;GameFunctionLibrary&#45;&gt;GetWindowManager</text>
<text text-anchor="start" x="2154" y="-455.3" font-family="monospace" font-size="14.00">    EX_Self</text>
</g>
<!-- ExecuteUbergraph_Popup_ReconnectController__10&#45;&gt;ExecuteUbergraph_Popup_ReconnectController__70 -->
<g id="edge2" class="edge">
<title>ExecuteUbergraph_Popup_ReconnectController__10&#45;&gt;ExecuteUbergraph_Popup_ReconnectController__70</title>
<path fill="none" stroke="black" d="M2636.97,-589.53C2594.12,-565.39 2550.3,-540.7 2515.56,-521.13"/>
<polygon fill="black" stroke="black" points="2517.3,-518.09 2506.87,-516.23 2513.86,-524.18 2517.3,-518.09"/>
</g>
<!-- ExecuteUbergraph_Popup_ReconnectController__91 -->
<g id="node6" class="node">
<title>ExecuteUbergraph_Popup_ReconnectController__91</title>
<polygon fill="#eeeeee" stroke="black" points="2158,-341.5 2158,-409.5 2736,-409.5 2736,-341.5 2158,-341.5"/>
<text text-anchor="start" x="2166" y="-394.3" font-family="monospace" font-size="14.00">EX_Context</text>
<text text-anchor="start" x="2166" y="-379.3" font-family="monospace" font-size="14.00">  EX_LocalVariable [CallFunc_GetWindowManager_ReturnValue]</text>
<text text-anchor="start" x="2166" y="-364.3" font-family="monospace" font-size="14.00">  EX_FinalFunction import /Script/FSD&#45;&gt;WindowManager&#45;&gt;CloseTopWindow</text>
<text text-anchor="start" x="2166" y="-349.3" font-family="monospace" font-size="14.00">  RValue = []</text>
</g>
<!-- ExecuteUbergraph_Popup_ReconnectController__70&#45;&gt;ExecuteUbergraph_Popup_ReconnectController__91 -->
<g id="edge3" class="edge">
<title>ExecuteUbergraph_Popup_ReconnectController__70&#45;&gt;ExecuteUbergraph_Popup_ReconnectController__91</title>
<path fill="none" stroke="black" d="M2447,-447.59C2447,-438.97 2447,-429.54 2447,-420.45"/>
<polygon fill="black" stroke="black" points="2450.5,-420.71 2447,-410.71 2443.5,-420.71 2450.5,-420.71"/>
</g>
<!-- ExecuteUbergraph_Popup_ReconnectController__123 -->
<g id="node7" class="node">
<title>ExecuteUbergraph_Popup_ReconnectController__123</title>
<polygon fill="#eeeeee" stroke="black" points="2393.5,-183.5 2393.5,-219.5 2500.5,-219.5 2500.5,-183.5 2393.5,-183.5"/>
<text text-anchor="start" x="2401.5" y="-197.8" font-family="monospace" font-size="14.00">EX_Jump 138</text>
</g>
<!-- ExecuteUbergraph_Popup_ReconnectController__91&#45;&gt;ExecuteUbergraph_Popup_ReconnectController__123 -->
<g id="edge4" class="edge">
<title>ExecuteUbergraph_Popup_ReconnectController__91&#45;&gt;ExecuteUbergraph_Popup_ReconnectController__123</title>
<path fill="none" stroke="black" d="M2447,-341.74C2447,-309.7 2447,-261.41 2447,-230.94"/>
<polygon fill="black" stroke="black" points="2450.5,-230.96 2447,-220.96 2443.5,-230.96 2450.5,-230.96"/>
</g>
<!-- ExecuteUbergraph_Popup_ReconnectController__138 -->
<g id="node10" class="node">
<title>ExecuteUbergraph_Popup_ReconnectController__138</title>
<polygon fill="#eeeeee" stroke="black" points="2389,-91.5 2389,-129.5 2505,-129.5 2505,-91.5 2389,-91.5"/>
<text text-anchor="start" x="2397" y="-114.3" font-family="monospace" font-size="14.00">EX_Return</text>
<text text-anchor="start" x="2397" y="-99.3" font-family="monospace" font-size="14.00">  EX_Nothing</text>
</g>
<!-- ExecuteUbergraph_Popup_ReconnectController__123&#45;&gt;ExecuteUbergraph_Popup_ReconnectController__138 -->
<g id="edge5" class="edge">
<title>ExecuteUbergraph_Popup_ReconnectController__123&#45;&gt;ExecuteUbergraph_Popup_ReconnectController__138</title>
<path fill="none" stroke="black" d="M2447,-183.76C2447,-171.64 2447,-154.96 2447,-140.67"/>
<polygon fill="black" stroke="black" points="2450.5,-140.9 2447,-130.9 2443.5,-140.9 2450.5,-140.9"/>
</g>
<!-- ExecuteUbergraph_Popup_ReconnectController__128 -->
<g id="node8" class="node">
<title>ExecuteUbergraph_Popup_ReconnectController__128</title>
<polygon fill="#eeeeee" stroke="black" points="2243.5,-796.5 2243.5,-832.5 2342.5,-832.5 2342.5,-796.5 2243.5,-796.5"/>
<text text-anchor="start" x="2251.5" y="-810.8" font-family="monospace" font-size="14.00">EX_Jump 70</text>
</g>
<!-- ExecuteUbergraph_Popup_ReconnectController__128&#45;&gt;ExecuteUbergraph_Popup_ReconnectController__70 -->
<g id="edge6" class="edge">
<title>ExecuteUbergraph_Popup_ReconnectController__128&#45;&gt;ExecuteUbergraph_Popup_ReconnectController__70</title>
<path fill="none" stroke="black" d="M2293.18,-796.6C2294.25,-757.6 2300.85,-659.28 2339,-589 2352.63,-563.89 2374.11,-540.93 2394.33,-522.82"/>
<polygon fill="black" stroke="black" points="2396.51,-525.56 2401.75,-516.35 2391.91,-520.28 2396.51,-525.56"/>
</g>
<!-- ExecuteUbergraph_Popup_ReconnectController__133 -->
<g id="node9" class="node">
<title>ExecuteUbergraph_Popup_ReconnectController__133</title>
<polygon fill="#eeeeee" stroke="black" points="2972.5,-882.5 2972.5,-918.5 3071.5,-918.5 3071.5,-882.5 2972.5,-882.5"/>
<text text-anchor="start" x="2980.5" y="-896.8" font-family="monospace" font-size="14.00">EX_Jump 10</text>
</g>
<!-- ExecuteUbergraph_Popup_ReconnectController__133&#45;&gt;ExecuteUbergraph_Popup_ReconnectController__10 -->
<g id="edge7" class="edge">
<title>ExecuteUbergraph_Popup_ReconnectController__133&#45;&gt;ExecuteUbergraph_Popup_ReconnectController__10</title>
<path fill="none" stroke="black" d="M3004.74,-882.63C2982.89,-861.28 2943.48,-822.76 2905.18,-785.33"/>
<polygon fill="black" stroke="black" points="2907.71,-782.91 2898.11,-778.42 2902.81,-787.92 2907.71,-782.91"/>
</g>
<!-- ExecuteUbergraph_Popup_ReconnectController__140 -->
<g id="node11" class="node">
<title>ExecuteUbergraph_Popup_ReconnectController__140</title>
<polygon fill="#eeeeee" stroke="black" points="3008,-1110.5 3008,-1146.5 3140,-1146.5 3140,-1110.5 3008,-1110.5"/>
<text text-anchor="start" x="3016" y="-1124.8" font-family="monospace" font-size="14.00">EX_EndOfScript</text>
</g>
<!-- Close -->
<g id="node12" class="node">
<title>Close</title>
<polygon fill="#ff8888" stroke="black" points="2555,-1234 2555,-1270 2687,-1270 2687,-1234 2555,-1234"/>
<text text-anchor="start" x="2563" y="-1248.3" font-family="monospace" font-size="14.00">Function Close</text>
</g>
<!-- Close__0 -->
<g id="node13" class="node">
<title>Close__0</title>
<polygon fill="#eeeeee" stroke="black" points="2200,-1038.5 2200,-1076.5 3042,-1076.5 3042,-1038.5 2200,-1038.5"/>
<text text-anchor="start" x="2208" y="-1061.3" font-family="monospace" font-size="14.00">EX_LocalFinalFunction export Popup_ReconnectController_C&#45;&gt;ExecuteUbergraph_Popup_ReconnectController</text>
<text text-anchor="start" x="2208" y="-1046.3" font-family="monospace" font-size="14.00">  EX_IntConst 133</text>
</g>
<!-- Close&#45;&gt;Close__0 -->
<g id="edge8" class="edge">
<title>Close&#45;&gt;Close__0</title>
<path fill="none" stroke="black" d="M2621,-1234.25C2621,-1201.52 2621,-1128.7 2621,-1087.81"/>
<polygon fill="black" stroke="black" points="2624.5,-1087.97 2621,-1077.97 2617.5,-1087.97 2624.5,-1087.97"/>
</g>
<!-- Close__0&#45;&gt;ExecuteUbergraph_Popup_ReconnectController__133 -->
<g id="edge9" class="edge">
<title>Close__0:e&#45;&gt;ExecuteUbergraph_Popup_ReconnectController__133</title>
<path fill="none" stroke="red" d="M3043,-1057.5C3094.38,-1057.5 3058.97,-973.37 3036.53,-928.67"/>
<polygon fill="none" stroke="red" points="3039.68,-927.13 3032,-919.84 3033.45,-930.33 3039.68,-927.13"/>
</g>
<!-- Close__15 -->
<g id="node14" class="node">
<title>Close__15</title>
<polygon fill="#eeeeee" stroke="black" points="2563,-881.5 2563,-919.5 2679,-919.5 2679,-881.5 2563,-881.5"/>
<text text-anchor="start" x="2571" y="-904.3" font-family="monospace" font-size="14.00">EX_Return</text>
<text text-anchor="start" x="2571" y="-889.3" font-family="monospace" font-size="14.00">  EX_Nothing</text>
</g>
<!-- Close__0&#45;&gt;Close__15 -->
<g id="edge10" class="edge">
<title>Close__0&#45;&gt;Close__15</title>
<path fill="none" stroke="black" d="M2621,-1038.72C2621,-1012.21 2621,-962.04 2621,-930.26"/>
<polygon fill="black" stroke="black" points="2624.5,-930.59 2621,-920.59 2617.5,-930.59 2624.5,-930.59"/>
</g>
<!-- Close__17 -->
<g id="node15" class="node">
<title>Close__17</title>
<polygon fill="#eeeeee" stroke="black" points="3246,-968.5 3246,-1004.5 3378,-1004.5 3378,-968.5 3246,-968.5"/>
<text text-anchor="start" x="3254" y="-982.8" font-family="monospace" font-size="14.00">EX_EndOfScript</text>
</g>
<!-- BndEvt__Basic_ButtonScalable2_K2Node_ComponentBoundEvent_7_OnClicked__DelegateSignature -->
<g id="node16" class="node">
<title>BndEvt__Basic_ButtonScalable2_K2Node_ComponentBoundEvent_7_OnClicked__DelegateSignature</title>
<polygon fill="#ff8888" stroke="black" points="1356.5,-1234 1356.5,-1270 2165.5,-1270 2165.5,-1234 1356.5,-1234"/>
<text text-anchor="start" x="1364.5" y="-1248.3" font-family="monospace" font-size="14.00">Function BndEvt__Basic_ButtonScalable2_K2Node_ComponentBoundEvent_7_OnClicked__DelegateSignature</text>
</g>
<!-- BndEvt__Basic_ButtonScalable2_K2Node_ComponentBoundEvent_7_OnClicked__DelegateSignature__0 -->
<g id="node17" class="node">
<title>BndEvt__Basic_ButtonScalable2_K2Node_ComponentBoundEvent_7_OnClicked__DelegateSignature__0</title>
<polygon fill="#eeeeee" stroke="black" points="1340,-1038.5 1340,-1076.5 2182,-1076.5 2182,-1038.5 1340,-1038.5"/>
<text text-anchor="start" x="1348" y="-1061.3" font-family="monospace" font-size="14.00">EX_LocalFinalFunction export Popup_ReconnectController_C&#45;&gt;ExecuteUbergraph_Popup_ReconnectController</text>
<text text-anchor="start" x="1348" y="-1046.3" font-family="monospace" font-size="14.00">  EX_IntConst 128</text>
</g>
<!-- BndEvt__Basic_ButtonScalable2_K2Node_ComponentBoundEvent_7_OnClicked__DelegateSignature&#45;&gt;BndEvt__Basic_ButtonScalable2_K2Node_ComponentBoundEvent_7_OnClicked__DelegateSignature__0 -->
<g id="edge11" class="edge">
<title>BndEvt__Basic_ButtonScalable2_K2Node_ComponentBoundEvent_7_OnClicked__DelegateSignature&#45;&gt;BndEvt__Basic_ButtonScalable2_K2Node_ComponentBoundEvent_7_OnClicked__DelegateSignature__0</title>
<path fill="none" stroke="black" d="M1761,-1234.25C1761,-1201.52 1761,-1128.7 1761,-1087.81"/>
<polygon fill="black" stroke="black" points="1764.5,-1087.97 1761,-1077.97 1757.5,-1087.97 1764.5,-1087.97"/>
</g>
<!-- BndEvt__Basic_ButtonScalable2_K2Node_ComponentBoundEvent_7_OnClicked__DelegateSignature__0&#45;&gt;ExecuteUbergraph_Popup_ReconnectController__128 -->
<g id="edge12" class="edge">
<title>BndEvt__Basic_ButtonScalable2_K2Node_ComponentBoundEvent_7_OnClicked__DelegateSignature__0:e&#45;&gt;ExecuteUbergraph_Popup_ReconnectController__128</title>
<path fill="none" stroke="red" d="M2183,-1057.5C2190.87,-1057.5 2188.36,-1030.41 2191,-1023 2215.08,-955.43 2255.24,-881.09 2277.3,-842.35"/>
<polygon fill="none" stroke="red" points="2280.32,-844.13 2282.26,-833.72 2274.25,-840.64 2280.32,-844.13"/>
</g>
<!-- BndEvt__Basic_ButtonScalable2_K2Node_ComponentBoundEvent_7_OnClicked__DelegateSignature__15 -->
<g id="node18" class="node">
<title>BndEvt__Basic_ButtonScalable2_K2Node_ComponentBoundEvent_7_OnClicked__DelegateSignature__15</title>
<polygon fill="#eeeeee" stroke="black" points="1703,-881.5 1703,-919.5 1819,-919.5 1819,-881.5 1703,-881.5"/>
<text text-anchor="start" x="1711" y="-904.3" font-family="monospace" font-size="14.00">EX_Return</text>
<text text-anchor="start" x="1711" y="-889.3" font-family="monospace" font-size="14.00">  EX_Nothing</text>
</g>
<!-- BndEvt__Basic_ButtonScalable2_K2Node_ComponentBoundEvent_7_OnClicked__DelegateSignature__0&#45;&gt;BndEvt__Basic_ButtonScalable2_K2Node_ComponentBoundEvent_7_OnClicked__DelegateSignature__15 -->
<g id="edge13" class="edge">
<title>BndEvt__Basic_ButtonScalable2_K2Node_ComponentBoundEvent_7_OnClicked__DelegateSignature__0&#45;&gt;BndEvt__Basic_ButtonScalable2_K2Node_ComponentBoundEvent_7_OnClicked__DelegateSignature__15</title>
<path fill="none" stroke="black" d="M1761,-1038.72C1761,-1012.21 1761,-962.04 1761,-930.26"/>
<polygon fill="black" stroke="black" points="1764.5,-930.59 1761,-920.59 1757.5,-930.59 1764.5,-930.59"/>
</g>
<!-- BndEvt__Basic_ButtonScalable2_K2Node_ComponentBoundEvent_7_OnClicked__DelegateSignature__17 -->
<g id="node19" class="node">
<title>BndEvt__Basic_ButtonScalable2_K2Node_ComponentBoundEvent_7_OnClicked__DelegateSignature__17</title>
<polygon fill="#eeeeee" stroke="black" points="3153,-796.5 3153,-832.5 3285,-832.5 3285,-796.5 3153,-796.5"/>
<text text-anchor="start" x="3161" y="-810.8" font-family="monospace" font-size="14.00">EX_EndOfScript</text>
</g>
<!-- OnKeyUp -->
<g id="node20" class="node">
<title>OnKeyUp</title>
<polygon fill="#ff8888" stroke="black" points="3292,-1165.5 3292,-1338.5 3762,-1338.5 3762,-1165.5 3292,-1165.5"/>
<text text-anchor="start" x="3300" y="-1323.3" font-family="monospace" font-size="14.00">Function OnKeyUp</text>
<text text-anchor="start" x="3300" y="-1308.3" font-family="monospace" font-size="14.00">  StructProperty MyGeometry</text>
<text text-anchor="start" x="3300" y="-1293.3" font-family="monospace" font-size="14.00">    CPF_BlueprintVisible|CPF_BlueprintReadOnly|CPF_Parm</text>
<text text-anchor="start" x="3300" y="-1278.3" font-family="monospace" font-size="14.00">  StructProperty InKeyEvent</text>
<text text-anchor="start" x="3300" y="-1263.3" font-family="monospace" font-size="14.00">    CPF_BlueprintVisible|CPF_BlueprintReadOnly|CPF_Parm</text>
<text text-anchor="start" x="3300" y="-1248.3" font-family="monospace" font-size="14.00">  StructProperty ReturnValue</text>
<text text-anchor="start" x="3300" y="-1233.3" font-family="monospace" font-size="14.00">    CPF_Parm|CPF_OutParm|CPF_ReturnParm</text>
<text text-anchor="start" x="3300" y="-1218.3" font-family="monospace" font-size="14.00">  StructProperty CallFunc_Unhandled_ReturnValue</text>
<text text-anchor="start" x="3300" y="-1203.3" font-family="monospace" font-size="14.00">  StructProperty CallFunc_Handled_ReturnValue</text>
<text text-anchor="start" x="3300" y="-1188.3" font-family="monospace" font-size="14.00">  NameProperty CallFunc_MakeLiteralName_ReturnValue</text>
<text text-anchor="start" x="3300" y="-1173.3" font-family="monospace" font-size="14.00">  BoolProperty CallFunc_IsKeyEventAction_ReturnValue</text>
</g>
<!-- OnKeyUp__0 -->
<g id="node21" class="node">
<title>OnKeyUp__0</title>
<polygon fill="#eeeeee" stroke="black" points="3217.5,-1023.5 3217.5,-1091.5 3836.5,-1091.5 3836.5,-1023.5 3217.5,-1023.5"/>
<text text-anchor="start" x="3225.5" y="-1076.3" font-family="monospace" font-size="14.00">EX_Let</text>
<text text-anchor="start" x="3225.5" y="-1061.3" font-family="monospace" font-size="14.00">  EX_LocalVariable [CallFunc_MakeLiteralName_ReturnValue]</text>
<text text-anchor="start" x="3225.5" y="-1046.3" font-family="monospace" font-size="14.00">  EX_CallMath import /Script/Engine&#45;&gt;KismetSystemLibrary&#45;&gt;MakeLiteralName</text>
<text text-anchor="start" x="3225.5" y="-1031.3" font-family="monospace" font-size="14.00">    EX_NameConst CloseMenu</text>
</g>
<!-- OnKeyUp&#45;&gt;OnKeyUp__0 -->
<g id="edge14" class="edge">
<title>OnKeyUp&#45;&gt;OnKeyUp__0</title>
<path fill="none" stroke="black" d="M3527,-1165.73C3527,-1144.01 3527,-1121.54 3527,-1102.81"/>
<polygon fill="black" stroke="black" points="3530.5,-1102.9 3527,-1092.9 3523.5,-1102.9 3530.5,-1102.9"/>
</g>
<!-- OnKeyUp__41 -->
<g id="node22" class="node">
<title>OnKeyUp__41</title>
<polygon fill="#eeeeee" stroke="black" points="3221.5,-851.5 3221.5,-949.5 3832.5,-949.5 3832.5,-851.5 3221.5,-851.5"/>
<text text-anchor="start" x="3229.5" y="-934.3" font-family="monospace" font-size="14.00">EX_LetBool</text>
<text text-anchor="start" x="3229.5" y="-919.3" font-family="monospace" font-size="14.00">  EX_LocalVariable [CallFunc_IsKeyEventAction_ReturnValue]</text>
<text text-anchor="start" x="3229.5" y="-904.3" font-family="monospace" font-size="14.00">  EX_CallMath import /Script/FSD&#45;&gt;InputFunctionLibrary&#45;&gt;IsKeyEventAction</text>
<text text-anchor="start" x="3229.5" y="-889.3" font-family="monospace" font-size="14.00">    EX_LocalVariable [InKeyEvent]</text>
<text text-anchor="start" x="3229.5" y="-874.3" font-family="monospace" font-size="14.00">    EX_LocalVariable [CallFunc_MakeLiteralName_ReturnValue]</text>
<text text-anchor="start" x="3229.5" y="-859.3" font-family="monospace" font-size="14.00">    EX_False</text>
</g>
<!-- OnKeyUp__0&#45;&gt;OnKeyUp__41 -->
<g id="edge15" class="edge">
<title>OnKeyUp__0&#45;&gt;OnKeyUp__41</title>
<path fill="none" stroke="black" d="M3527,-1023.63C3527,-1005.32 3527,-981.98 3527,-960.62"/>
<polygon fill="black" stroke="black" points="3530.5,-960.84 3527,-950.84 3523.5,-960.84 3530.5,-960.84"/>
</g>
<!-- OnKeyUp__80 -->
<g id="node23" class="node">
<title>OnKeyUp__80</title>
<polygon fill="#eeeeee" stroke="black" points="3279.5,-664.5 3279.5,-702.5 3774.5,-702.5 3774.5,-664.5 3279.5,-664.5"/>
<text text-anchor="start" x="3287.5" y="-687.3" font-family="monospace" font-size="14.00">EX_JumpIfNot 168</text>
<text text-anchor="start" x="3287.5" y="-672.3" font-family="monospace" font-size="14.00">  EX_LocalVariable [CallFunc_IsKeyEventAction_ReturnValue]</text>
</g>
<!-- OnKeyUp__41&#45;&gt;OnKeyUp__80 -->
<g id="edge16" class="edge">
<title>OnKeyUp__41&#45;&gt;OnKeyUp__80</title>
<path fill="none" stroke="black" d="M3527,-851.52C3527,-809.34 3527,-749.31 3527,-713.88"/>
<polygon fill="black" stroke="black" points="3530.5,-713.96 3527,-703.96 3523.5,-713.96 3530.5,-713.96"/>
</g>
<!-- OnKeyUp__94 -->
<g id="node24" class="node">
<title>OnKeyUp__94</title>
<polygon fill="#eeeeee" stroke="black" points="3353,-463.5 3353,-499.5 3609,-499.5 3609,-463.5 3353,-463.5"/>
<text text-anchor="start" x="3361" y="-477.8" font-family="monospace" font-size="14.00">EX_LocalVirtualFunction Close</text>
</g>
<!-- OnKeyUp__80&#45;&gt;OnKeyUp__94 -->
<g id="edge18" class="edge">
<title>OnKeyUp__80&#45;&gt;OnKeyUp__94</title>
<path fill="none" stroke="black" d="M3522.92,-664.75C3514.9,-629.87 3497.02,-552.16 3487.41,-510.37"/>
<polygon fill="black" stroke="black" points="3490.87,-509.79 3485.22,-500.83 3484.05,-511.36 3490.87,-509.79"/>
<text text-anchor="middle" x="3510.5" y="-548.8" font-family="monospace" font-size="14.00">IF</text>
</g>
<!-- OnKeyUp__168 -->
<g id="node28" class="node">
<title>OnKeyUp__168</title>
<polygon fill="#eeeeee" stroke="black" points="3627.5,-455 3627.5,-508 4196.5,-508 4196.5,-455 3627.5,-455"/>
<text text-anchor="start" x="3635.5" y="-492.8" font-family="monospace" font-size="14.00">EX_Let</text>
<text text-anchor="start" x="3635.5" y="-477.8" font-family="monospace" font-size="14.00">  EX_LocalVariable [CallFunc_Unhandled_ReturnValue]</text>
<text text-anchor="start" x="3635.5" y="-462.8" font-family="monospace" font-size="14.00">  EX_CallMath import /Script/UMG&#45;&gt;WidgetBlueprintLibrary&#45;&gt;Unhandled</text>
</g>
<!-- OnKeyUp__80&#45;&gt;OnKeyUp__168 -->
<g id="edge17" class="edge">
<title>OnKeyUp__80:e&#45;&gt;OnKeyUp__168</title>
<path fill="none" stroke="red" d="M3776,-683.5C3852.65,-683.5 3815.83,-595.19 3862,-534 3866.59,-527.92 3871.84,-521.8 3877.17,-516.02"/>
<polygon fill="none" stroke="red" points="3879.57,-518.57 3883.93,-508.92 3874.5,-513.75 3879.57,-518.57"/>
<text text-anchor="middle" x="3887" y="-548.8" font-family="monospace" font-size="14.00">IF NOT</text>
</g>
<!-- OnKeyUp__108 -->
<g id="node25" class="node">
<title>OnKeyUp__108</title>
<polygon fill="#eeeeee" stroke="black" points="3236.5,-349 3236.5,-402 3789.5,-402 3789.5,-349 3236.5,-349"/>
<text text-anchor="start" x="3244.5" y="-386.8" font-family="monospace" font-size="14.00">EX_Let</text>
<text text-anchor="start" x="3244.5" y="-371.8" font-family="monospace" font-size="14.00">  EX_LocalVariable [CallFunc_Handled_ReturnValue]</text>
<text text-anchor="start" x="3244.5" y="-356.8" font-family="monospace" font-size="14.00">  EX_CallMath import /Script/UMG&#45;&gt;WidgetBlueprintLibrary&#45;&gt;Handled</text>
</g>
<!-- OnKeyUp__94&#45;&gt;OnKeyUp__108 -->
<g id="edge19" class="edge">
<title>OnKeyUp__94&#45;&gt;OnKeyUp__108</title>
<path fill="none" stroke="black" d="M3486.14,-463.79C3490.37,-450.04 3496.52,-430.05 3501.87,-412.67"/>
<polygon fill="black" stroke="black" points="3505.2,-413.75 3504.8,-403.16 3498.51,-411.69 3505.2,-413.75"/>
</g>
<!-- OnKeyUp__136 -->
<g id="node26" class="node">
<title>OnKeyUp__136</title>
<polygon fill="#eeeeee" stroke="black" points="3358.5,-167.5 3358.5,-235.5 3779.5,-235.5 3779.5,-167.5 3358.5,-167.5"/>
<text text-anchor="start" x="3366.5" y="-220.3" font-family="monospace" font-size="14.00">EX_Let</text>
<text text-anchor="start" x="3366.5" y="-205.3" font-family="monospace" font-size="14.00">  EX_LocalOutVariable</text>
<text text-anchor="start" x="3366.5" y="-190.3" font-family="monospace" font-size="14.00">    [ReturnValue]</text>
<text text-anchor="start" x="3366.5" y="-175.3" font-family="monospace" font-size="14.00">  EX_LocalVariable [CallFunc_Handled_ReturnValue]</text>
</g>
<!-- OnKeyUp__108&#45;&gt;OnKeyUp__136 -->
<g id="edge20" class="edge">
<title>OnKeyUp__108&#45;&gt;OnKeyUp__136</title>
<path fill="none" stroke="black" d="M3521.26,-349.12C3530.09,-322 3544.25,-278.52 3554.86,-245.94"/>
<polygon fill="black" stroke="black" points="3558.07,-247.38 3557.84,-236.79 3551.41,-245.21 3558.07,-247.38"/>
</g>
<!-- OnKeyUp__163 -->
<g id="node27" class="node">
<title>OnKeyUp__163</title>
<polygon fill="#eeeeee" stroke="black" points="3627.5,-92.5 3627.5,-128.5 3734.5,-128.5 3734.5,-92.5 3627.5,-92.5"/>
<text text-anchor="start" x="3635.5" y="-106.8" font-family="monospace" font-size="14.00">EX_Jump 223</text>
</g>
<!-- OnKeyUp__136&#45;&gt;OnKeyUp__163 -->
<g id="edge21" class="edge">
<title>OnKeyUp__136&#45;&gt;OnKeyUp__163</title>
<path fill="none" stroke="black" d="M3610.39,-167.61C3623.93,-156.85 3638.69,-145.12 3651.2,-135.18"/>
<polygon fill="black" stroke="black" points="3653.03,-138.2 3658.68,-129.24 3648.67,-132.72 3653.03,-138.2"/>
</g>
<!-- OnKeyUp__223 -->
<g id="node30" class="node">
<title>OnKeyUp__223</title>
<polygon fill="#eeeeee" stroke="black" points="3705,-0.5 3705,-53.5 3895,-53.5 3895,-0.5 3705,-0.5"/>
<text text-anchor="start" x="3713" y="-38.3" font-family="monospace" font-size="14.00">EX_Return</text>
<text text-anchor="start" x="3713" y="-23.3" font-family="monospace" font-size="14.00">  EX_LocalOutVariable</text>
<text text-anchor="start" x="3713" y="-8.3" font-family="monospace" font-size="14.00">    [ReturnValue]</text>
</g>
<!-- OnKeyUp__163&#45;&gt;OnKeyUp__223 -->
<g id="edge22" class="edge">
<title>OnKeyUp__163&#45;&gt;OnKeyUp__223</title>
<path fill="none" stroke="black" d="M3705.66,-92.61C3719.54,-83.1 3737.34,-70.92 3753.72,-59.69"/>
<polygon fill="black" stroke="black" points="3755.65,-62.62 3761.92,-54.08 3751.69,-56.84 3755.65,-62.62"/>
</g>
<!-- OnKeyUp__196 -->
<g id="node29" class="node">
<title>OnKeyUp__196</title>
<polygon fill="#eeeeee" stroke="black" points="3642.5,-254.5 3642.5,-322.5 4079.5,-322.5 4079.5,-254.5 3642.5,-254.5"/>
<text text-anchor="start" x="3650.5" y="-307.3" font-family="monospace" font-size="14.00">EX_Let</text>
<text text-anchor="start" x="3650.5" y="-292.3" font-family="monospace" font-size="14.00">  EX_LocalOutVariable</text>
<text text-anchor="start" x="3650.5" y="-277.3" font-family="monospace" font-size="14.00">    [ReturnValue]</text>
<text text-anchor="start" x="3650.5" y="-262.3" font-family="monospace" font-size="14.00">  EX_LocalVariable [CallFunc_Unhandled_ReturnValue]</text>
</g>
<!-- OnKeyUp__168&#45;&gt;OnKeyUp__196 -->
<g id="edge23" class="edge">
<title>OnKeyUp__168&#45;&gt;OnKeyUp__196</title>
<path fill="none" stroke="black" d="M3905.23,-455.14C3896.92,-424.01 3882.69,-370.73 3872.62,-333.02"/>
<polygon fill="black" stroke="black" points="3876.12,-332.56 3870.16,-323.8 3869.36,-334.37 3876.12,-332.56"/>
</g>
<!-- OnKeyUp__196&#45;&gt;OnKeyUp__223 -->
<g id="edge24" class="edge">
<title>OnKeyUp__196&#45;&gt;OnKeyUp__223</title>
<path fill="none" stroke="black" d="M3853.27,-254.63C3841.82,-205.92 3820.42,-114.88 3808.53,-64.27"/>
<polygon fill="black" stroke="black" points="3811.97,-63.63 3806.28,-54.7 3805.16,-65.23 3811.97,-63.63"/>
</g>
<!-- OnKeyUp__233 -->
<g id="node31" class="node">
<title>OnKeyUp__233</title>
<polygon fill="#eeeeee" stroke="black" points="3921,-534.5 3921,-570.5 4053,-570.5 4053,-534.5 3921,-534.5"/>
<text text-anchor="start" x="3929" y="-548.8" font-family="monospace" font-size="14.00">EX_EndOfScript</text>
</g>
</g>
</svg>
