<?xml version="1.0" encoding="UTF-8" standalone="no"?>
<!DOCTYPE svg PUBLIC "-//W3C//DTD SVG 1.1//EN"
 "http://www.w3.org/Graphics/SVG/1.1/DTD/svg11.dtd">
<!-- Generated by graphviz version 7.0.1 (0)
 -->
<!-- Pages: 1 -->
<svg width="3031pt" height="1485pt"
 viewBox="0.00 0.00 3030.50 1485.00" xmlns="http://www.w3.org/2000/svg" xmlns:xlink="http://www.w3.org/1999/xlink">
<g id="graph0" class="graph" transform="scale(1 1) rotate(0) translate(4 1481)">
<polygon fill="white" stroke="none" points="-4,4 -4,-1481 3026.5,-1481 3026.5,4 -4,4"/>
<!-- UI_OnlineRestricted_Entry_C -->
<g id="node1" class="node">
<title>UI_OnlineRestricted_Entry_C</title>
<polygon fill="#88ff88" stroke="black" points="0,-1273.5 0,-1476.5 850,-1476.5 850,-1273.5 0,-1273.5"/>
<text text-anchor="start" x="8" y="-1461.3" font-family="monospace" font-size="14.00">ClassExport: UI_OnlineRestricted_Entry_C</text>
<text text-anchor="start" x="8" y="-1446.3" font-family="monospace" font-size="14.00">  SuperStruct: import /Script/UMG&#45;&gt;UserWidget</text>
<text text-anchor="start" x="8" y="-1431.3" font-family="monospace" font-size="14.00">  Properties:</text>
<text text-anchor="start" x="8" y="-1416.3" font-family="monospace" font-size="14.00">    StructProperty UberGraphFrame</text>
<text text-anchor="start" x="8" y="-1401.3" font-family="monospace" font-size="14.00">      CPF_Transient|CPF_DuplicateTransient</text>
<text text-anchor="start" x="8" y="-1386.3" font-family="monospace" font-size="14.00">    ObjectProperty Basic_Image</text>
<text text-anchor="start" x="8" y="-1371.3" font-family="monospace" font-size="14.00">      CPF_BlueprintVisible|CPF_ExportObject|CPF_InstancedReference|CPF_RepSkip|CPF_PersistentInstance</text>
<text text-anchor="start" x="8" y="-1356.3" font-family="monospace" font-size="14.00">    ObjectProperty Basic_Label</text>
<text text-anchor="start" x="8" y="-1341.3" font-family="monospace" font-size="14.00">      CPF_BlueprintVisible|CPF_ExportObject|CPF_InstancedReference|CPF_RepSkip|CPF_PersistentInstance</text>
<text text-anchor="start" x="8" y="-1326.3" font-family="monospace" font-size="14.00">    EnumProperty PrivilegeResult</text>
<text text-anchor="start" x="8" y="-1311.3" font-family="monospace" font-size="14.00">      CPF_Edit|CPF_BlueprintVisible|CPF_BlueprintReadOnly|CPF_ExposeOnSpawn</text>
<text text-anchor="start" x="8" y="-1296.3" font-family="monospace" font-size="14.00">    IntProperty FontSize</text>
<text text-anchor="start" x="8" y="-1281.3" font-family="monospace" font-size="14.00">      CPF_Edit|CPF_BlueprintVisible|CPF_ExposeOnSpawn</text>
</g>
<!-- ExecuteUbergraph_UI_OnlineRestricted_Entry -->
<g id="node2" class="node">
<title>ExecuteUbergraph_UI_OnlineRestricted_Entry</title>
<polygon fill="#ff8888" stroke="black" points="868.5,-1303.5 868.5,-1446.5 1421.5,-1446.5 1421.5,-1303.5 868.5,-1303.5"/>
<text text-anchor="start" x="876.5" y="-1431.3" font-family="monospace" font-size="14.00">Function ExecuteUbergraph_UI_OnlineRestricted_Entry</text>
<text text-anchor="start" x="876.5" y="-1416.3" font-family="monospace" font-size="14.00">  IntProperty EntryPoint</text>
<text text-anchor="start" x="876.5" y="-1401.3" font-family="monospace" font-size="14.00">    CPF_BlueprintVisible|CPF_BlueprintReadOnly|CPF_Parm</text>
<text text-anchor="start" x="876.5" y="-1386.3" font-family="monospace" font-size="14.00">  BoolProperty K2Node_Event_IsDesignTime</text>
<text text-anchor="start" x="876.5" y="-1371.3" font-family="monospace" font-size="14.00">  TextProperty CallFunc_OnlinePlayBlockReasonToString_ReturnValue</text>
<text text-anchor="start" x="876.5" y="-1356.3" font-family="monospace" font-size="14.00">  BoolProperty CallFunc_TextIsEmpty_ReturnValue</text>
<text text-anchor="start" x="876.5" y="-1341.3" font-family="monospace" font-size="14.00">  BoolProperty CallFunc_SelectVisibility_IsVisible</text>
<text text-anchor="start" x="876.5" y="-1326.3" font-family="monospace" font-size="14.00">  BoolProperty CallFunc_SelectVisibility_VisibilityChanged</text>
<text text-anchor="start" x="876.5" y="-1311.3" font-family="monospace" font-size="14.00">  EnumProperty CallFunc_SelectVisibility_New_Visibility</text>
</g>
<!-- ExecuteUbergraph_UI_OnlineRestricted_Entry__0 -->
<g id="node3" class="node">
<title>ExecuteUbergraph_UI_OnlineRestricted_Entry__0</title>
<polygon fill="#eeeeee" stroke="black" points="1009,-1191 1009,-1229 1281,-1229 1281,-1191 1009,-1191"/>
<text text-anchor="start" x="1017" y="-1213.8" font-family="monospace" font-size="14.00">EX_ComputedJump</text>
<text text-anchor="start" x="1017" y="-1198.8" font-family="monospace" font-size="14.00">  EX_LocalVariable [EntryPoint]</text>
</g>
<!-- ExecuteUbergraph_UI_OnlineRestricted_Entry&#45;&gt;ExecuteUbergraph_UI_OnlineRestricted_Entry__0 -->
<g id="edge1" class="edge">
<title>ExecuteUbergraph_UI_OnlineRestricted_Entry&#45;&gt;ExecuteUbergraph_UI_OnlineRestricted_Entry__0</title>
<path fill="none" stroke="black" d="M1145,-1303.93C1145,-1281.49 1145,-1257.88 1145,-1240.07"/>
<polygon fill="black" stroke="black" points="1148.5,-1240.27 1145,-1230.27 1141.5,-1240.27 1148.5,-1240.27"/>
</g>
<!-- ExecuteUbergraph_UI_OnlineRestricted_Entry__10 -->
<g id="node4" class="node">
<title>ExecuteUbergraph_UI_OnlineRestricted_Entry__10</title>
<polygon fill="#eeeeee" stroke="black" points="1943.5,-846 1943.5,-884 2248.5,-884 2248.5,-846 1943.5,-846"/>
<text text-anchor="start" x="1951.5" y="-868.8" font-family="monospace" font-size="14.00">EX_LocalVirtualFunction SetFontSize</text>
<text text-anchor="start" x="1951.5" y="-853.8" font-family="monospace" font-size="14.00">  EX_InstanceVariable [FontSize]</text>
</g>
<!-- ExecuteUbergraph_UI_OnlineRestricted_Entry__33 -->
<g id="node5" class="node">
<title>ExecuteUbergraph_UI_OnlineRestricted_Entry__33</title>
<polygon fill="#eeeeee" stroke="black" points="1737,-711 1737,-779 2455,-779 2455,-711 1737,-711"/>
<text text-anchor="start" x="1745" y="-763.8" font-family="monospace" font-size="14.00">EX_Let</text>
<text text-anchor="start" x="1745" y="-748.8" font-family="monospace" font-size="14.00">  EX_LocalVariable [CallFunc_OnlinePlayBlockReasonToString_ReturnValue]</text>
<text text-anchor="start" x="1745" y="-733.8" font-family="monospace" font-size="14.00">  EX_CallMath import /Script/FSD&#45;&gt;FSDOnlineSystemUtils&#45;&gt;OnlinePlayBlockReasonToString</text>
<text text-anchor="start" x="1745" y="-718.8" font-family="monospace" font-size="14.00">    EX_InstanceVariable [PrivilegeResult]</text>
</g>
<!-- ExecuteUbergraph_UI_OnlineRestricted_Entry__10&#45;&gt;ExecuteUbergraph_UI_OnlineRestricted_Entry__33 -->
<g id="edge2" class="edge">
<title>ExecuteUbergraph_UI_OnlineRestricted_Entry__10&#45;&gt;ExecuteUbergraph_UI_OnlineRestricted_Entry__33</title>
<path fill="none" stroke="black" d="M2096,-846.08C2096,-831.27 2096,-809.62 2096,-790.23"/>
<polygon fill="black" stroke="black" points="2099.5,-790.36 2096,-780.36 2092.5,-790.36 2099.5,-790.36"/>
</g>
<!-- ExecuteUbergraph_UI_OnlineRestricted_Entry__70 -->
<g id="node6" class="node">
<title>ExecuteUbergraph_UI_OnlineRestricted_Entry__70</title>
<polygon fill="#eeeeee" stroke="black" points="1786.5,-583.5 1786.5,-666.5 2405.5,-666.5 2405.5,-583.5 1786.5,-583.5"/>
<text text-anchor="start" x="1794.5" y="-651.3" font-family="monospace" font-size="14.00">EX_Context</text>
<text text-anchor="start" x="1794.5" y="-636.3" font-family="monospace" font-size="14.00">  EX_InstanceVariable [Basic_Label]</text>
<text text-anchor="start" x="1794.5" y="-621.3" font-family="monospace" font-size="14.00">  EX_LocalVirtualFunction SetText</text>
<text text-anchor="start" x="1794.5" y="-606.3" font-family="monospace" font-size="14.00">    EX_LocalVariable [CallFunc_OnlinePlayBlockReasonToString_ReturnValue]</text>
<text text-anchor="start" x="1794.5" y="-591.3" font-family="monospace" font-size="14.00">  RValue = []</text>
</g>
<!-- ExecuteUbergraph_UI_OnlineRestricted_Entry__33&#45;&gt;ExecuteUbergraph_UI_OnlineRestricted_Entry__70 -->
<g id="edge3" class="edge">
<title>ExecuteUbergraph_UI_OnlineRestricted_Entry__33&#45;&gt;ExecuteUbergraph_UI_OnlineRestricted_Entry__70</title>
<path fill="none" stroke="black" d="M2096,-711.13C2096,-700.7 2096,-688.9 2096,-677.48"/>
<polygon fill="black" stroke="black" points="2099.5,-677.77 2096,-667.77 2092.5,-677.77 2099.5,-677.77"/>
</g>
<!-- ExecuteUbergraph_UI_OnlineRestricted_Entry__115 -->
<g id="node7" class="node">
<title>ExecuteUbergraph_UI_OnlineRestricted_Entry__115</title>
<polygon fill="#eeeeee" stroke="black" points="1737,-478.5 1737,-546.5 2455,-546.5 2455,-478.5 1737,-478.5"/>
<text text-anchor="start" x="1745" y="-531.3" font-family="monospace" font-size="14.00">EX_Let</text>
<text text-anchor="start" x="1745" y="-516.3" font-family="monospace" font-size="14.00">  EX_LocalVariable [CallFunc_OnlinePlayBlockReasonToString_ReturnValue]</text>
<text text-anchor="start" x="1745" y="-501.3" font-family="monospace" font-size="14.00">  EX_CallMath import /Script/FSD&#45;&gt;FSDOnlineSystemUtils&#45;&gt;OnlinePlayBlockReasonToString</text>
<text text-anchor="start" x="1745" y="-486.3" font-family="monospace" font-size="14.00">    EX_InstanceVariable [PrivilegeResult]</text>
</g>
<!-- ExecuteUbergraph_UI_OnlineRestricted_Entry__70&#45;&gt;ExecuteUbergraph_UI_OnlineRestricted_Entry__115 -->
<g id="edge4" class="edge">
<title>ExecuteUbergraph_UI_OnlineRestricted_Entry__70&#45;&gt;ExecuteUbergraph_UI_OnlineRestricted_Entry__115</title>
<path fill="none" stroke="black" d="M2096,-583.79C2096,-575.31 2096,-566.31 2096,-557.69"/>
<polygon fill="black" stroke="black" points="2099.5,-557.76 2096,-547.76 2092.5,-557.76 2099.5,-557.76"/>
</g>
<!-- ExecuteUbergraph_UI_OnlineRestricted_Entry__152 -->
<g id="node8" class="node">
<title>ExecuteUbergraph_UI_OnlineRestricted_Entry__152</title>
<polygon fill="#eeeeee" stroke="black" points="1786.5,-373.5 1786.5,-441.5 2405.5,-441.5 2405.5,-373.5 1786.5,-373.5"/>
<text text-anchor="start" x="1794.5" y="-426.3" font-family="monospace" font-size="14.00">EX_LetBool</text>
<text text-anchor="start" x="1794.5" y="-411.3" font-family="monospace" font-size="14.00">  EX_LocalVariable [CallFunc_TextIsEmpty_ReturnValue]</text>
<text text-anchor="start" x="1794.5" y="-396.3" font-family="monospace" font-size="14.00">  EX_CallMath import /Script/Engine&#45;&gt;KismetTextLibrary&#45;&gt;TextIsEmpty</text>
<text text-anchor="start" x="1794.5" y="-381.3" font-family="monospace" font-size="14.00">    EX_LocalVariable [CallFunc_OnlinePlayBlockReasonToString_ReturnValue]</text>
</g>
<!-- ExecuteUbergraph_UI_OnlineRestricted_Entry__115&#45;&gt;ExecuteUbergraph_UI_OnlineRestricted_Entry__152 -->
<g id="edge5" class="edge">
<title>ExecuteUbergraph_UI_OnlineRestricted_Entry__115&#45;&gt;ExecuteUbergraph_UI_OnlineRestricted_Entry__152</title>
<path fill="none" stroke="black" d="M2096,-478.63C2096,-470.45 2096,-461.55 2096,-452.92"/>
<polygon fill="black" stroke="black" points="2099.5,-452.93 2096,-442.93 2092.5,-452.93 2099.5,-452.93"/>
</g>
<!-- ExecuteUbergraph_UI_OnlineRestricted_Entry__181 -->
<g id="node9" class="node">
<title>ExecuteUbergraph_UI_OnlineRestricted_Entry__181</title>
<polygon fill="#eeeeee" stroke="black" points="1815.5,-148.5 1815.5,-336.5 2376.5,-336.5 2376.5,-148.5 1815.5,-148.5"/>
<text text-anchor="start" x="1823.5" y="-321.3" font-family="monospace" font-size="14.00">EX_Context</text>
<text text-anchor="start" x="1823.5" y="-306.3" font-family="monospace" font-size="14.00">  EX_ObjectConst import /Game/Game/LIB_Game&#45;&gt;Default__LIB_Game_C</text>
<text text-anchor="start" x="1823.5" y="-291.3" font-family="monospace" font-size="14.00">  EX_LocalVirtualFunction SelectVisibility</text>
<text text-anchor="start" x="1823.5" y="-276.3" font-family="monospace" font-size="14.00">    EX_Self</text>
<text text-anchor="start" x="1823.5" y="-261.3" font-family="monospace" font-size="14.00">    EX_ByteConst 4</text>
<text text-anchor="start" x="1823.5" y="-246.3" font-family="monospace" font-size="14.00">    EX_ByteConst 1</text>
<text text-anchor="start" x="1823.5" y="-231.3" font-family="monospace" font-size="14.00">    EX_LocalVariable [CallFunc_TextIsEmpty_ReturnValue]</text>
<text text-anchor="start" x="1823.5" y="-216.3" font-family="monospace" font-size="14.00">    EX_Self</text>
<text text-anchor="start" x="1823.5" y="-201.3" font-family="monospace" font-size="14.00">    EX_LocalVariable [CallFunc_SelectVisibility_IsVisible]</text>
<text text-anchor="start" x="1823.5" y="-186.3" font-family="monospace" font-size="14.00">    EX_LocalVariable [CallFunc_SelectVisibility_VisibilityChanged]</text>
<text text-anchor="start" x="1823.5" y="-171.3" font-family="monospace" font-size="14.00">    EX_LocalVariable [CallFunc_SelectVisibility_New_Visibility]</text>
<text text-anchor="start" x="1823.5" y="-156.3" font-family="monospace" font-size="14.00">  RValue = []</text>
</g>
<!-- ExecuteUbergraph_UI_OnlineRestricted_Entry__152&#45;&gt;ExecuteUbergraph_UI_OnlineRestricted_Entry__181 -->
<g id="edge6" class="edge">
<title>ExecuteUbergraph_UI_OnlineRestricted_Entry__152&#45;&gt;ExecuteUbergraph_UI_OnlineRestricted_Entry__181</title>
<path fill="none" stroke="black" d="M2096,-373.51C2096,-365.71 2096,-356.97 2096,-347.82"/>
<polygon fill="black" stroke="black" points="2099.5,-347.99 2096,-337.99 2092.5,-347.99 2099.5,-347.99"/>
</g>
<!-- ExecuteUbergraph_UI_OnlineRestricted_Entry__259 -->
<g id="node10" class="node">
<title>ExecuteUbergraph_UI_OnlineRestricted_Entry__259</title>
<polygon fill="#eeeeee" stroke="black" points="2042.5,-75.5 2042.5,-111.5 2149.5,-111.5 2149.5,-75.5 2042.5,-75.5"/>
<text text-anchor="start" x="2050.5" y="-89.8" font-family="monospace" font-size="14.00">EX_Jump 269</text>
</g>
<!-- ExecuteUbergraph_UI_OnlineRestricted_Entry__181&#45;&gt;ExecuteUbergraph_UI_OnlineRestricted_Entry__259 -->
<g id="edge7" class="edge">
<title>ExecuteUbergraph_UI_OnlineRestricted_Entry__181&#45;&gt;ExecuteUbergraph_UI_OnlineRestricted_Entry__259</title>
<path fill="none" stroke="black" d="M2096,-148.82C2096,-139.34 2096,-130.31 2096,-122.44"/>
<polygon fill="black" stroke="black" points="2099.5,-122.63 2096,-112.63 2092.5,-122.63 2099.5,-122.63"/>
</g>
<!-- ExecuteUbergraph_UI_OnlineRestricted_Entry__269 -->
<g id="node12" class="node">
<title>ExecuteUbergraph_UI_OnlineRestricted_Entry__269</title>
<polygon fill="#eeeeee" stroke="black" points="2038,-0.5 2038,-38.5 2154,-38.5 2154,-0.5 2038,-0.5"/>
<text text-anchor="start" x="2046" y="-23.3" font-family="monospace" font-size="14.00">EX_Return</text>
<text text-anchor="start" x="2046" y="-8.3" font-family="monospace" font-size="14.00">  EX_Nothing</text>
</g>
<!-- ExecuteUbergraph_UI_OnlineRestricted_Entry__259&#45;&gt;ExecuteUbergraph_UI_OnlineRestricted_Entry__269 -->
<g id="edge8" class="edge">
<title>ExecuteUbergraph_UI_OnlineRestricted_Entry__259&#45;&gt;ExecuteUbergraph_UI_OnlineRestricted_Entry__269</title>
<path fill="none" stroke="black" d="M2096,-75.8C2096,-68.09 2096,-58.7 2096,-49.86"/>
<polygon fill="black" stroke="black" points="2099.5,-49.88 2096,-39.88 2092.5,-49.88 2099.5,-49.88"/>
</g>
<!-- ExecuteUbergraph_UI_OnlineRestricted_Entry__264 -->
<g id="node11" class="node">
<title>ExecuteUbergraph_UI_OnlineRestricted_Entry__264</title>
<polygon fill="#eeeeee" stroke="black" points="2046.5,-967 2046.5,-1003 2145.5,-1003 2145.5,-967 2046.5,-967"/>
<text text-anchor="start" x="2054.5" y="-981.3" font-family="monospace" font-size="14.00">EX_Jump 10</text>
</g>
<!-- ExecuteUbergraph_UI_OnlineRestricted_Entry__264&#45;&gt;ExecuteUbergraph_UI_OnlineRestricted_Entry__10 -->
<g id="edge9" class="edge">
<title>ExecuteUbergraph_UI_OnlineRestricted_Entry__264&#45;&gt;ExecuteUbergraph_UI_OnlineRestricted_Entry__10</title>
<path fill="none" stroke="black" d="M2096,-967.09C2096,-948.3 2096,-917.6 2096,-894.96"/>
<polygon fill="black" stroke="black" points="2099.5,-895.16 2096,-885.16 2092.5,-895.16 2099.5,-895.16"/>
</g>
<!-- ExecuteUbergraph_UI_OnlineRestricted_Entry__271 -->
<g id="node13" class="node">
<title>ExecuteUbergraph_UI_OnlineRestricted_Entry__271</title>
<polygon fill="#eeeeee" stroke="black" points="2473,-494.5 2473,-530.5 2605,-530.5 2605,-494.5 2473,-494.5"/>
<text text-anchor="start" x="2481" y="-508.8" font-family="monospace" font-size="14.00">EX_EndOfScript</text>
</g>
<!-- PreConstruct -->
<g id="node14" class="node">
<title>PreConstruct</title>
<polygon fill="#ff8888" stroke="black" points="1440,-1348.5 1440,-1401.5 1910,-1401.5 1910,-1348.5 1440,-1348.5"/>
<text text-anchor="start" x="1448" y="-1386.3" font-family="monospace" font-size="14.00">Function PreConstruct</text>
<text text-anchor="start" x="1448" y="-1371.3" font-family="monospace" font-size="14.00">  BoolProperty IsDesignTime</text>
<text text-anchor="start" x="1448" y="-1356.3" font-family="monospace" font-size="14.00">    CPF_BlueprintVisible|CPF_BlueprintReadOnly|CPF_Parm</text>
</g>
<!-- PreConstruct__0 -->
<g id="node15" class="node">
<title>PreConstruct__0</title>
<polygon fill="#eeeeee" stroke="black" points="1435.5,-1191 1435.5,-1229 1914.5,-1229 1914.5,-1191 1435.5,-1191"/>
<text text-anchor="start" x="1443.5" y="-1213.8" font-family="monospace" font-size="14.00">EX_LetValueOnPersistentFrame [K2Node_Event_IsDesignTime]</text>
<text text-anchor="start" x="1443.5" y="-1198.8" font-family="monospace" font-size="14.00">  EX_LocalVariable [IsDesignTime]</text>
</g>
<!-- PreConstruct&#45;&gt;PreConstruct__0 -->
<g id="edge10" class="edge">
<title>PreConstruct&#45;&gt;PreConstruct__0</title>
<path fill="none" stroke="black" d="M1675,-1348.53C1675,-1319.13 1675,-1270.86 1675,-1240.03"/>
<polygon fill="black" stroke="black" points="1678.5,-1240.27 1675,-1230.27 1671.5,-1240.27 1678.5,-1240.27"/>
</g>
<!-- PreConstruct__18 -->
<g id="node16" class="node">
<title>PreConstruct__18</title>
<polygon fill="#eeeeee" stroke="black" points="1254,-1086 1254,-1124 2096,-1124 2096,-1086 1254,-1086"/>
<text text-anchor="start" x="1262" y="-1108.8" font-family="monospace" font-size="14.00">EX_LocalFinalFunction export UI_OnlineRestricted_Entry_C&#45;&gt;ExecuteUbergraph_UI_OnlineRestricted_Entry</text>
<text text-anchor="start" x="1262" y="-1093.8" font-family="monospace" font-size="14.00">  EX_IntConst 264</text>
</g>
<!-- PreConstruct__0&#45;&gt;PreConstruct__18 -->
<g id="edge11" class="edge">
<title>PreConstruct__0&#45;&gt;PreConstruct__18</title>
<path fill="none" stroke="black" d="M1675,-1191.06C1675,-1175.62 1675,-1153.07 1675,-1135.06"/>
<polygon fill="black" stroke="black" points="1678.5,-1135.25 1675,-1125.25 1671.5,-1135.25 1678.5,-1135.25"/>
</g>
<!-- PreConstruct__18&#45;&gt;ExecuteUbergraph_UI_OnlineRestricted_Entry__264 -->
<g id="edge12" class="edge">
<title>PreConstruct__18:e&#45;&gt;ExecuteUbergraph_UI_OnlineRestricted_Entry__264</title>
<path fill="none" stroke="red" d="M2097,-1105C2133.45,-1105 2119.19,-1048.49 2106.8,-1013.36"/>
<polygon fill="none" stroke="red" points="2110.17,-1012.39 2103.43,-1004.22 2103.61,-1014.81 2110.17,-1012.39"/>
</g>
<!-- PreConstruct__33 -->
<g id="node17" class="node">
<title>PreConstruct__33</title>
<polygon fill="#eeeeee" stroke="black" points="1617,-966 1617,-1004 1733,-1004 1733,-966 1617,-966"/>
<text text-anchor="start" x="1625" y="-988.8" font-family="monospace" font-size="14.00">EX_Return</text>
<text text-anchor="start" x="1625" y="-973.8" font-family="monospace" font-size="14.00">  EX_Nothing</text>
</g>
<!-- PreConstruct__18&#45;&gt;PreConstruct__33 -->
<g id="edge13" class="edge">
<title>PreConstruct__18&#45;&gt;PreConstruct__33</title>
<path fill="none" stroke="black" d="M1675,-1086.08C1675,-1067.26 1675,-1037.36 1675,-1015.14"/>
<polygon fill="black" stroke="black" points="1678.5,-1015.22 1675,-1005.22 1671.5,-1015.22 1678.5,-1015.22"/>
</g>
<!-- PreConstruct__35 -->
<g id="node18" class="node">
<title>PreConstruct__35</title>
<polygon fill="#eeeeee" stroke="black" points="2424,-389.5 2424,-425.5 2556,-425.5 2556,-389.5 2424,-389.5"/>
<text text-anchor="start" x="2432" y="-403.8" font-family="monospace" font-size="14.00">EX_EndOfScript</text>
</g>
<!-- SetFontSize -->
<g id="node19" class="node">
<title>SetFontSize</title>
<polygon fill="#ff8888" stroke="black" points="2478,-1333.5 2478,-1416.5 2948,-1416.5 2948,-1333.5 2478,-1333.5"/>
<text text-anchor="start" x="2486" y="-1401.3" font-family="monospace" font-size="14.00">Function SetFontSize</text>
<text text-anchor="start" x="2486" y="-1386.3" font-family="monospace" font-size="14.00">  IntProperty InFontSize</text>
<text text-anchor="start" x="2486" y="-1371.3" font-family="monospace" font-size="14.00">    CPF_BlueprintVisible|CPF_BlueprintReadOnly|CPF_Parm</text>
<text text-anchor="start" x="2486" y="-1356.3" font-family="monospace" font-size="14.00">  FloatProperty CallFunc_Multiply_IntFloat_ReturnValue</text>
<text text-anchor="start" x="2486" y="-1341.3" font-family="monospace" font-size="14.00">  StructProperty CallFunc_MakeVector2D_ReturnValue</text>
</g>
<!-- SetFontSize__0 -->
<g id="node20" class="node">
<title>SetFontSize__0</title>
<polygon fill="#eeeeee" stroke="black" points="2572.5,-1183.5 2572.5,-1236.5 2853.5,-1236.5 2853.5,-1183.5 2572.5,-1183.5"/>
<text text-anchor="start" x="2580.5" y="-1221.3" font-family="monospace" font-size="14.00">EX_Let</text>
<text text-anchor="start" x="2580.5" y="-1206.3" font-family="monospace" font-size="14.00">  EX_InstanceVariable [FontSize]</text>
<text text-anchor="start" x="2580.5" y="-1191.3" font-family="monospace" font-size="14.00">  EX_LocalVariable [InFontSize]</text>
</g>
<!-- SetFontSize&#45;&gt;SetFontSize__0 -->
<g id="edge14" class="edge">
<title>SetFontSize&#45;&gt;SetFontSize__0</title>
<path fill="none" stroke="black" d="M2713,-1333.71C2713,-1307.34 2713,-1273.16 2713,-1247.57"/>
<polygon fill="black" stroke="black" points="2716.5,-1247.64 2713,-1237.64 2709.5,-1247.64 2716.5,-1247.64"/>
</g>
<!-- SetFontSize__27 -->
<g id="node21" class="node">
<title>SetFontSize__27</title>
<polygon fill="#eeeeee" stroke="black" points="2552,-1063.5 2552,-1146.5 2874,-1146.5 2874,-1063.5 2552,-1063.5"/>
<text text-anchor="start" x="2560" y="-1131.3" font-family="monospace" font-size="14.00">EX_Context</text>
<text text-anchor="start" x="2560" y="-1116.3" font-family="monospace" font-size="14.00">  EX_InstanceVariable [Basic_Label]</text>
<text text-anchor="start" x="2560" y="-1101.3" font-family="monospace" font-size="14.00">  EX_LocalVirtualFunction SetFontSize</text>
<text text-anchor="start" x="2560" y="-1086.3" font-family="monospace" font-size="14.00">    EX_InstanceVariable [FontSize]</text>
<text text-anchor="start" x="2560" y="-1071.3" font-family="monospace" font-size="14.00">  RValue = []</text>
</g>
<!-- SetFontSize__0&#45;&gt;SetFontSize__27 -->
<g id="edge15" class="edge">
<title>SetFontSize__0&#45;&gt;SetFontSize__27</title>
<path fill="none" stroke="black" d="M2713,-1183.54C2713,-1175.66 2713,-1166.69 2713,-1157.7"/>
<polygon fill="black" stroke="black" points="2716.5,-1157.91 2713,-1147.91 2709.5,-1157.91 2716.5,-1157.91"/>
</g>
<!-- SetFontSize__72 -->
<g id="node22" class="node">
<title>SetFontSize__72</title>
<polygon fill="#eeeeee" stroke="black" points="2403.5,-943.5 2403.5,-1026.5 3022.5,-1026.5 3022.5,-943.5 2403.5,-943.5"/>
<text text-anchor="start" x="2411.5" y="-1011.3" font-family="monospace" font-size="14.00">EX_Let</text>
<text text-anchor="start" x="2411.5" y="-996.3" font-family="monospace" font-size="14.00">  EX_LocalVariable [CallFunc_Multiply_IntFloat_ReturnValue]</text>
<text text-anchor="start" x="2411.5" y="-981.3" font-family="monospace" font-size="14.00">  EX_CallMath import /Script/Engine&#45;&gt;KismetMathLibrary&#45;&gt;Multiply_IntFloat</text>
<text text-anchor="start" x="2411.5" y="-966.3" font-family="monospace" font-size="14.00">    EX_InstanceVariable [FontSize]</text>
<text text-anchor="start" x="2411.5" y="-951.3" font-family="monospace" font-size="14.00">    EX_FloatConst 0.5</text>
</g>
<!-- SetFontSize__27&#45;&gt;SetFontSize__72 -->
<g id="edge16" class="edge">
<title>SetFontSize__27&#45;&gt;SetFontSize__72</title>
<path fill="none" stroke="black" d="M2713,-1063.72C2713,-1055.37 2713,-1046.45 2713,-1037.75"/>
<polygon fill="black" stroke="black" points="2716.5,-1038.01 2713,-1028.01 2709.5,-1038.01 2716.5,-1038.01"/>
</g>
<!-- SetFontSize__114 -->
<g id="node23" class="node">
<title>SetFontSize__114</title>
<polygon fill="#eeeeee" stroke="black" points="2424,-823.5 2424,-906.5 3002,-906.5 3002,-823.5 2424,-823.5"/>
<text text-anchor="start" x="2432" y="-891.3" font-family="monospace" font-size="14.00">EX_Let</text>
<text text-anchor="start" x="2432" y="-876.3" font-family="monospace" font-size="14.00">  EX_LocalVariable [CallFunc_MakeVector2D_ReturnValue]</text>
<text text-anchor="start" x="2432" y="-861.3" font-family="monospace" font-size="14.00">  EX_CallMath import /Script/Engine&#45;&gt;KismetMathLibrary&#45;&gt;MakeVector2D</text>
<text text-anchor="start" x="2432" y="-846.3" font-family="monospace" font-size="14.00">    EX_LocalVariable [CallFunc_Multiply_IntFloat_ReturnValue]</text>
<text text-anchor="start" x="2432" y="-831.3" font-family="monospace" font-size="14.00">    EX_LocalVariable [CallFunc_Multiply_IntFloat_ReturnValue]</text>
</g>
<!-- SetFontSize__72&#45;&gt;SetFontSize__114 -->
<g id="edge17" class="edge">
<title>SetFontSize__72&#45;&gt;SetFontSize__114</title>
<path fill="none" stroke="black" d="M2713,-943.72C2713,-935.37 2713,-926.45 2713,-917.75"/>
<polygon fill="black" stroke="black" points="2716.5,-918.01 2713,-908.01 2709.5,-918.01 2716.5,-918.01"/>
</g>
<!-- SetFontSize__160 -->
<g id="node24" class="node">
<title>SetFontSize__160</title>
<polygon fill="#eeeeee" stroke="black" points="2473.5,-703.5 2473.5,-786.5 2952.5,-786.5 2952.5,-703.5 2473.5,-703.5"/>
<text text-anchor="start" x="2481.5" y="-771.3" font-family="monospace" font-size="14.00">EX_Context</text>
<text text-anchor="start" x="2481.5" y="-756.3" font-family="monospace" font-size="14.00">  EX_InstanceVariable [Basic_Image]</text>
<text text-anchor="start" x="2481.5" y="-741.3" font-family="monospace" font-size="14.00">  EX_LocalVirtualFunction SetBrushSize</text>
<text text-anchor="start" x="2481.5" y="-726.3" font-family="monospace" font-size="14.00">    EX_LocalVariable [CallFunc_MakeVector2D_ReturnValue]</text>
<text text-anchor="start" x="2481.5" y="-711.3" font-family="monospace" font-size="14.00">  RValue = []</text>
</g>
<!-- SetFontSize__114&#45;&gt;SetFontSize__160 -->
<g id="edge18" class="edge">
<title>SetFontSize__114&#45;&gt;SetFontSize__160</title>
<path fill="none" stroke="black" d="M2713,-823.72C2713,-815.37 2713,-806.45 2713,-797.75"/>
<polygon fill="black" stroke="black" points="2716.5,-798.01 2713,-788.01 2709.5,-798.01 2716.5,-798.01"/>
</g>
<!-- SetFontSize__205 -->
<g id="node25" class="node">
<title>SetFontSize__205</title>
<polygon fill="#eeeeee" stroke="black" points="2655,-606 2655,-644 2771,-644 2771,-606 2655,-606"/>
<text text-anchor="start" x="2663" y="-628.8" font-family="monospace" font-size="14.00">EX_Return</text>
<text text-anchor="start" x="2663" y="-613.8" font-family="monospace" font-size="14.00">  EX_Nothing</text>
</g>
<!-- SetFontSize__160&#45;&gt;SetFontSize__205 -->
<g id="edge19" class="edge">
<title>SetFontSize__160&#45;&gt;SetFontSize__205</title>
<path fill="none" stroke="black" d="M2713,-703.72C2713,-687.76 2713,-669.76 2713,-655.1"/>
<polygon fill="black" stroke="black" points="2716.5,-655.21 2713,-645.21 2709.5,-655.21 2716.5,-655.21"/>
</g>
<!-- SetFontSize__207 -->
<g id="node26" class="node">
<title>SetFontSize__207</title>
<polygon fill="#eeeeee" stroke="black" points="2395,-224.5 2395,-260.5 2527,-260.5 2527,-224.5 2395,-224.5"/>
<text text-anchor="start" x="2403" y="-238.8" font-family="monospace" font-size="14.00">EX_EndOfScript</text>
</g>
</g>
</svg>
