<?xml version="1.0" encoding="UTF-8" standalone="no"?>
<!DOCTYPE svg PUBLIC "-//W3C//DTD SVG 1.1//EN"
 "http://www.w3.org/Graphics/SVG/1.1/DTD/svg11.dtd">
<!-- Generated by graphviz version 7.0.1 (0)
 -->
<!-- Pages: 1 -->
<svg width="3184pt" height="1504pt"
 viewBox="0.00 0.00 3184.00 1504.00" xmlns="http://www.w3.org/2000/svg" xmlns:xlink="http://www.w3.org/1999/xlink">
<g id="graph0" class="graph" transform="scale(1 1) rotate(0) translate(4 1500)">
<polygon fill="white" stroke="none" points="-4,4 -4,-1500 3180,-1500 3180,4 -4,4"/>
<!-- Cheat_SpawnSnowStorm_C -->
<g id="node1" class="node">
<title>Cheat_SpawnSnowStorm_C</title>
<polygon fill="#88ff88" stroke="black" points="0,-1292.5 0,-1495.5 850,-1495.5 850,-1292.5 0,-1292.5"/>
<text text-anchor="start" x="8" y="-1480.3" font-family="monospace" font-size="14.00">ClassExport: Cheat_SpawnSnowStorm_C</text>
<text text-anchor="start" x="8" y="-1465.3" font-family="monospace" font-size="14.00">  SuperStruct: import /Script/UMG&#45;&gt;UserWidget</text>
<text text-anchor="start" x="8" y="-1450.3" font-family="monospace" font-size="14.00">  Properties:</text>
<text text-anchor="start" x="8" y="-1435.3" font-family="monospace" font-size="14.00">    StructProperty UberGraphFrame</text>
<text text-anchor="start" x="8" y="-1420.3" font-family="monospace" font-size="14.00">      CPF_Transient|CPF_DuplicateTransient</text>
<text text-anchor="start" x="8" y="-1405.3" font-family="monospace" font-size="14.00">    ObjectProperty Button_0</text>
<text text-anchor="start" x="8" y="-1390.3" font-family="monospace" font-size="14.00">      CPF_BlueprintVisible|CPF_ExportObject|CPF_InstancedReference|CPF_RepSkip|CPF_PersistentInstance</text>
<text text-anchor="start" x="8" y="-1375.3" font-family="monospace" font-size="14.00">    ObjectProperty TextBlock</text>
<text text-anchor="start" x="8" y="-1360.3" font-family="monospace" font-size="14.00">      CPF_BlueprintVisible|CPF_ExportObject|CPF_InstancedReference|CPF_RepSkip|CPF_PersistentInstance</text>
<text text-anchor="start" x="8" y="-1345.3" font-family="monospace" font-size="14.00">    StructProperty NewVar_0</text>
<text text-anchor="start" x="8" y="-1330.3" font-family="monospace" font-size="14.00">      CPF_Edit|CPF_BlueprintVisible|CPF_DisableEditOnInstance</text>
<text text-anchor="start" x="8" y="-1315.3" font-family="monospace" font-size="14.00">    SoftClassProperty NewVar_1</text>
<text text-anchor="start" x="8" y="-1300.3" font-family="monospace" font-size="14.00">      CPF_Edit|CPF_BlueprintVisible|CPF_DisableEditOnInstance</text>
</g>
<!-- ExecuteUbergraph_Cheat_SpawnSnowStorm -->
<g id="node2" class="node">
<title>ExecuteUbergraph_Cheat_SpawnSnowStorm</title>
<polygon fill="#ff8888" stroke="black" points="868,-1322.5 868,-1465.5 1462,-1465.5 1462,-1322.5 868,-1322.5"/>
<text text-anchor="start" x="876" y="-1450.3" font-family="monospace" font-size="14.00">Function ExecuteUbergraph_Cheat_SpawnSnowStorm</text>
<text text-anchor="start" x="876" y="-1435.3" font-family="monospace" font-size="14.00">  IntProperty EntryPoint</text>
<text text-anchor="start" x="876" y="-1420.3" font-family="monospace" font-size="14.00">    CPF_BlueprintVisible|CPF_BlueprintReadOnly|CPF_Parm</text>
<text text-anchor="start" x="876" y="-1405.3" font-family="monospace" font-size="14.00">  StructProperty CallFunc_MakeTransform_ReturnValue</text>
<text text-anchor="start" x="876" y="-1390.3" font-family="monospace" font-size="14.00">  ClassProperty CallFunc_LoadClass_ReturnValue</text>
<text text-anchor="start" x="876" y="-1375.3" font-family="monospace" font-size="14.00">  ClassProperty K2Node_ClassDynamicCast_AsActor</text>
<text text-anchor="start" x="876" y="-1360.3" font-family="monospace" font-size="14.00">  BoolProperty K2Node_ClassDynamicCast_bSuccess</text>
<text text-anchor="start" x="876" y="-1345.3" font-family="monospace" font-size="14.00">  ObjectProperty CallFunc_BeginDeferredActorSpawnFromClass_ReturnValue</text>
<text text-anchor="start" x="876" y="-1330.3" font-family="monospace" font-size="14.00">  ObjectProperty CallFunc_FinishSpawningActor_ReturnValue</text>
</g>
<!-- ExecuteUbergraph_Cheat_SpawnSnowStorm__0 -->
<g id="node3" class="node">
<title>ExecuteUbergraph_Cheat_SpawnSnowStorm__0</title>
<polygon fill="#eeeeee" stroke="black" points="1029,-1180.5 1029,-1218.5 1301,-1218.5 1301,-1180.5 1029,-1180.5"/>
<text text-anchor="start" x="1037" y="-1203.3" font-family="monospace" font-size="14.00">EX_ComputedJump</text>
<text text-anchor="start" x="1037" y="-1188.3" font-family="monospace" font-size="14.00">  EX_LocalVariable [EntryPoint]</text>
</g>
<!-- ExecuteUbergraph_Cheat_SpawnSnowStorm&#45;&gt;ExecuteUbergraph_Cheat_SpawnSnowStorm__0 -->
<g id="edge1" class="edge">
<title>ExecuteUbergraph_Cheat_SpawnSnowStorm&#45;&gt;ExecuteUbergraph_Cheat_SpawnSnowStorm__0</title>
<path fill="none" stroke="black" d="M1165,-1322.69C1165,-1290.53 1165,-1254.2 1165,-1229.57"/>
<polygon fill="black" stroke="black" points="1168.5,-1229.68 1165,-1219.68 1161.5,-1229.68 1168.5,-1229.68"/>
</g>
<!-- ExecuteUbergraph_Cheat_SpawnSnowStorm__10 -->
<g id="node4" class="node">
<title>ExecuteUbergraph_Cheat_SpawnSnowStorm__10</title>
<polygon fill="#eeeeee" stroke="black" points="2974.5,-826.5 2974.5,-862.5 3081.5,-862.5 3081.5,-826.5 2974.5,-826.5"/>
<text text-anchor="start" x="2982.5" y="-840.8" font-family="monospace" font-size="14.00">EX_Jump 412</text>
</g>
<!-- ExecuteUbergraph_Cheat_SpawnSnowStorm__412 -->
<g id="node13" class="node">
<title>ExecuteUbergraph_Cheat_SpawnSnowStorm__412</title>
<polygon fill="#eeeeee" stroke="black" points="2902,-0.5 2902,-38.5 3018,-38.5 3018,-0.5 2902,-0.5"/>
<text text-anchor="start" x="2910" y="-23.3" font-family="monospace" font-size="14.00">EX_Return</text>
<text text-anchor="start" x="2910" y="-8.3" font-family="monospace" font-size="14.00">  EX_Nothing</text>
</g>
<!-- ExecuteUbergraph_Cheat_SpawnSnowStorm__10&#45;&gt;ExecuteUbergraph_Cheat_SpawnSnowStorm__412 -->
<g id="edge2" class="edge">
<title>ExecuteUbergraph_Cheat_SpawnSnowStorm__10&#45;&gt;ExecuteUbergraph_Cheat_SpawnSnowStorm__412</title>
<path fill="none" stroke="black" d="M3027.78,-826.86C3027.48,-803.29 3027,-758.86 3027,-721 3027,-721 3027,-721 3027,-117 3027,-89.23 3008.05,-63.71 2990.31,-45.89"/>
<polygon fill="black" stroke="black" points="2993.06,-43.68 2983.41,-39.31 2988.23,-48.74 2993.06,-43.68"/>
</g>
<!-- ExecuteUbergraph_Cheat_SpawnSnowStorm__15 -->
<g id="node5" class="node">
<title>ExecuteUbergraph_Cheat_SpawnSnowStorm__15</title>
<polygon fill="#eeeeee" stroke="black" points="1916,-1023.5 1916,-1106.5 2774,-1106.5 2774,-1023.5 1916,-1023.5"/>
<text text-anchor="start" x="1924" y="-1091.3" font-family="monospace" font-size="14.00">EX_LetObj</text>
<text text-anchor="start" x="1924" y="-1076.3" font-family="monospace" font-size="14.00">  EX_LocalVariable [CallFunc_LoadClass_ReturnValue]</text>
<text text-anchor="start" x="1924" y="-1061.3" font-family="monospace" font-size="14.00">  EX_CallMath import /Script/FSD&#45;&gt;ActorFunctionLibrary&#45;&gt;LoadClass</text>
<text text-anchor="start" x="1924" y="-1046.3" font-family="monospace" font-size="14.00">    EX_SoftObjectConst UAssetAPI.Kismet.Bytecode.Expressions.EX_StringConst</text>
<text text-anchor="start" x="1924" y="-1031.3" font-family="monospace" font-size="14.00">      EX_StringConst /Game/Landscape/Biomes/Biomes_Ingame/IceCaves/BP_New_SnowStorm.BP_New_SnowStorm_C</text>
</g>
<!-- ExecuteUbergraph_Cheat_SpawnSnowStorm__119 -->
<g id="node6" class="node">
<title>ExecuteUbergraph_Cheat_SpawnSnowStorm__119</title>
<polygon fill="#eeeeee" stroke="black" points="2289,-881.5 2289,-949.5 2743,-949.5 2743,-881.5 2289,-881.5"/>
<text text-anchor="start" x="2297" y="-934.3" font-family="monospace" font-size="14.00">EX_Let</text>
<text text-anchor="start" x="2297" y="-919.3" font-family="monospace" font-size="14.00">  EX_LocalVariable [K2Node_ClassDynamicCast_AsActor]</text>
<text text-anchor="start" x="2297" y="-904.3" font-family="monospace" font-size="14.00">  EX_MetaCast import /Script/Engine&#45;&gt;Actor</text>
<text text-anchor="start" x="2297" y="-889.3" font-family="monospace" font-size="14.00">    EX_LocalVariable [CallFunc_LoadClass_ReturnValue]</text>
</g>
<!-- ExecuteUbergraph_Cheat_SpawnSnowStorm__15&#45;&gt;ExecuteUbergraph_Cheat_SpawnSnowStorm__119 -->
<g id="edge3" class="edge">
<title>ExecuteUbergraph_Cheat_SpawnSnowStorm__15&#45;&gt;ExecuteUbergraph_Cheat_SpawnSnowStorm__119</title>
<path fill="none" stroke="black" d="M2391.73,-1023.69C2415.86,-1002.88 2445.22,-977.56 2469.34,-956.75"/>
<polygon fill="black" stroke="black" points="2471.54,-959.47 2476.82,-950.29 2466.97,-954.17 2471.54,-959.47"/>
</g>
<!-- ExecuteUbergraph_Cheat_SpawnSnowStorm__155 -->
<g id="node7" class="node">
<title>ExecuteUbergraph_Cheat_SpawnSnowStorm__155</title>
<polygon fill="#eeeeee" stroke="black" points="2327,-739.5 2327,-807.5 2789,-807.5 2789,-739.5 2327,-739.5"/>
<text text-anchor="start" x="2335" y="-792.3" font-family="monospace" font-size="14.00">EX_Let</text>
<text text-anchor="start" x="2335" y="-777.3" font-family="monospace" font-size="14.00">  EX_LocalVariable [K2Node_ClassDynamicCast_bSuccess]</text>
<text text-anchor="start" x="2335" y="-762.3" font-family="monospace" font-size="14.00">  EX_PrimitiveCast ObjectToBool</text>
<text text-anchor="start" x="2335" y="-747.3" font-family="monospace" font-size="14.00">    EX_LocalVariable [K2Node_ClassDynamicCast_AsActor]</text>
</g>
<!-- ExecuteUbergraph_Cheat_SpawnSnowStorm__119&#45;&gt;ExecuteUbergraph_Cheat_SpawnSnowStorm__155 -->
<g id="edge4" class="edge">
<title>ExecuteUbergraph_Cheat_SpawnSnowStorm__119&#45;&gt;ExecuteUbergraph_Cheat_SpawnSnowStorm__155</title>
<path fill="none" stroke="black" d="M2525.85,-881.68C2531.53,-862.72 2538.76,-838.64 2544.92,-818.1"/>
<polygon fill="black" stroke="black" points="2548.26,-819.15 2547.78,-808.57 2541.55,-817.14 2548.26,-819.15"/>
</g>
<!-- ExecuteUbergraph_Cheat_SpawnSnowStorm__184 -->
<g id="node8" class="node">
<title>ExecuteUbergraph_Cheat_SpawnSnowStorm__184</title>
<polygon fill="#eeeeee" stroke="black" points="2342,-663.5 2342,-701.5 2796,-701.5 2796,-663.5 2342,-663.5"/>
<text text-anchor="start" x="2350" y="-686.3" font-family="monospace" font-size="14.00">EX_JumpIfNot 412</text>
<text text-anchor="start" x="2350" y="-671.3" font-family="monospace" font-size="14.00">  EX_LocalVariable [K2Node_ClassDynamicCast_bSuccess]</text>
</g>
<!-- ExecuteUbergraph_Cheat_SpawnSnowStorm__155&#45;&gt;ExecuteUbergraph_Cheat_SpawnSnowStorm__184 -->
<g id="edge5" class="edge">
<title>ExecuteUbergraph_Cheat_SpawnSnowStorm__155&#45;&gt;ExecuteUbergraph_Cheat_SpawnSnowStorm__184</title>
<path fill="none" stroke="black" d="M2562.06,-739.61C2563.17,-730.69 2564.35,-721.1 2565.43,-712.42"/>
<polygon fill="black" stroke="black" points="2568.86,-713.15 2566.62,-702.79 2561.92,-712.29 2568.86,-713.15"/>
</g>
<!-- ExecuteUbergraph_Cheat_SpawnSnowStorm__198 -->
<g id="node9" class="node">
<title>ExecuteUbergraph_Cheat_SpawnSnowStorm__198</title>
<polygon fill="#eeeeee" stroke="black" points="2276,-513.5 2276,-611.5 2862,-611.5 2862,-513.5 2276,-513.5"/>
<text text-anchor="start" x="2284" y="-596.3" font-family="monospace" font-size="14.00">EX_Let</text>
<text text-anchor="start" x="2284" y="-581.3" font-family="monospace" font-size="14.00">  EX_LocalVariable [CallFunc_MakeTransform_ReturnValue]</text>
<text text-anchor="start" x="2284" y="-566.3" font-family="monospace" font-size="14.00">  EX_CallMath import /Script/Engine&#45;&gt;KismetMathLibrary&#45;&gt;MakeTransform</text>
<text text-anchor="start" x="2284" y="-551.3" font-family="monospace" font-size="14.00">    EX_VectorConst 0,0,0</text>
<text text-anchor="start" x="2284" y="-536.3" font-family="monospace" font-size="14.00">    EX_RotationConst 0,0,0</text>
<text text-anchor="start" x="2284" y="-521.3" font-family="monospace" font-size="14.00">    EX_VectorConst 1,1,1</text>
</g>
<!-- ExecuteUbergraph_Cheat_SpawnSnowStorm__184&#45;&gt;ExecuteUbergraph_Cheat_SpawnSnowStorm__198 -->
<g id="edge7" class="edge">
<title>ExecuteUbergraph_Cheat_SpawnSnowStorm__184&#45;&gt;ExecuteUbergraph_Cheat_SpawnSnowStorm__198</title>
<path fill="none" stroke="black" d="M2569,-663.58C2569,-652.53 2569,-637.67 2569,-622.79"/>
<polygon fill="black" stroke="black" points="2572.5,-622.98 2569,-612.98 2565.5,-622.98 2572.5,-622.98"/>
<text text-anchor="middle" x="2577.5" y="-633.8" font-family="monospace" font-size="14.00">IF</text>
</g>
<!-- ExecuteUbergraph_Cheat_SpawnSnowStorm__184&#45;&gt;ExecuteUbergraph_Cheat_SpawnSnowStorm__412 -->
<g id="edge6" class="edge">
<title>ExecuteUbergraph_Cheat_SpawnSnowStorm__184:e&#45;&gt;ExecuteUbergraph_Cheat_SpawnSnowStorm__412</title>
<path fill="none" stroke="red" d="M2797,-682.5C2886.7,-682.5 2960,-653.2 2960,-563.5 2960,-563.5 2960,-563.5 2960,-117 2960,-94.35 2960,-68.72 2960,-49.56"/>
<polygon fill="none" stroke="red" points="2963.5,-49.8 2960,-39.8 2956.5,-49.8 2963.5,-49.8"/>
<text text-anchor="middle" x="2985" y="-317.8" font-family="monospace" font-size="14.00">IF NOT</text>
</g>
<!-- ExecuteUbergraph_Cheat_SpawnSnowStorm__265 -->
<g id="node10" class="node">
<title>ExecuteUbergraph_Cheat_SpawnSnowStorm__265</title>
<polygon fill="#eeeeee" stroke="black" points="2206,-347.5 2206,-475.5 2932,-475.5 2932,-347.5 2206,-347.5"/>
<text text-anchor="start" x="2214" y="-460.3" font-family="monospace" font-size="14.00">EX_LetObj</text>
<text text-anchor="start" x="2214" y="-445.3" font-family="monospace" font-size="14.00">  EX_LocalVariable [CallFunc_BeginDeferredActorSpawnFromClass_ReturnValue]</text>
<text text-anchor="start" x="2214" y="-430.3" font-family="monospace" font-size="14.00">  EX_CallMath import /Script/Engine&#45;&gt;GameplayStatics&#45;&gt;BeginDeferredActorSpawnFromClass</text>
<text text-anchor="start" x="2214" y="-415.3" font-family="monospace" font-size="14.00">    EX_Self</text>
<text text-anchor="start" x="2214" y="-400.3" font-family="monospace" font-size="14.00">    EX_LocalVariable [K2Node_ClassDynamicCast_AsActor]</text>
<text text-anchor="start" x="2214" y="-385.3" font-family="monospace" font-size="14.00">    EX_LocalVariable [CallFunc_MakeTransform_ReturnValue]</text>
<text text-anchor="start" x="2214" y="-370.3" font-family="monospace" font-size="14.00">    EX_ByteConst 1</text>
<text text-anchor="start" x="2214" y="-355.3" font-family="monospace" font-size="14.00">    EX_NoObject</text>
</g>
<!-- ExecuteUbergraph_Cheat_SpawnSnowStorm__198&#45;&gt;ExecuteUbergraph_Cheat_SpawnSnowStorm__265 -->
<g id="edge8" class="edge">
<title>ExecuteUbergraph_Cheat_SpawnSnowStorm__198&#45;&gt;ExecuteUbergraph_Cheat_SpawnSnowStorm__265</title>
<path fill="none" stroke="black" d="M2569,-513.54C2569,-504.98 2569,-495.89 2569,-486.8"/>
<polygon fill="black" stroke="black" points="2572.5,-486.85 2569,-476.85 2565.5,-486.85 2572.5,-486.85"/>
</g>
<!-- ExecuteUbergraph_Cheat_SpawnSnowStorm__307 -->
<g id="node11" class="node">
<title>ExecuteUbergraph_Cheat_SpawnSnowStorm__307</title>
<polygon fill="#eeeeee" stroke="black" points="2299,-197.5 2299,-295.5 2885,-295.5 2885,-197.5 2299,-197.5"/>
<text text-anchor="start" x="2307" y="-280.3" font-family="monospace" font-size="14.00">EX_Let</text>
<text text-anchor="start" x="2307" y="-265.3" font-family="monospace" font-size="14.00">  EX_LocalVariable [CallFunc_MakeTransform_ReturnValue]</text>
<text text-anchor="start" x="2307" y="-250.3" font-family="monospace" font-size="14.00">  EX_CallMath import /Script/Engine&#45;&gt;KismetMathLibrary&#45;&gt;MakeTransform</text>
<text text-anchor="start" x="2307" y="-235.3" font-family="monospace" font-size="14.00">    EX_VectorConst 0,0,0</text>
<text text-anchor="start" x="2307" y="-220.3" font-family="monospace" font-size="14.00">    EX_RotationConst 0,0,0</text>
<text text-anchor="start" x="2307" y="-205.3" font-family="monospace" font-size="14.00">    EX_VectorConst 1,1,1</text>
</g>
<!-- ExecuteUbergraph_Cheat_SpawnSnowStorm__265&#45;&gt;ExecuteUbergraph_Cheat_SpawnSnowStorm__307 -->
<g id="edge9" class="edge">
<title>ExecuteUbergraph_Cheat_SpawnSnowStorm__265&#45;&gt;ExecuteUbergraph_Cheat_SpawnSnowStorm__307</title>
<path fill="none" stroke="black" d="M2577.83,-347.95C2579.75,-334.34 2581.77,-319.99 2583.67,-306.52"/>
<polygon fill="black" stroke="black" points="2587.09,-307.34 2585.02,-296.95 2580.16,-306.37 2587.09,-307.34"/>
</g>
<!-- ExecuteUbergraph_Cheat_SpawnSnowStorm__374 -->
<g id="node12" class="node">
<title>ExecuteUbergraph_Cheat_SpawnSnowStorm__374</title>
<polygon fill="#eeeeee" stroke="black" points="2285,-76.5 2285,-159.5 2929,-159.5 2929,-76.5 2285,-76.5"/>
<text text-anchor="start" x="2293" y="-144.3" font-family="monospace" font-size="14.00">EX_LetObj</text>
<text text-anchor="start" x="2293" y="-129.3" font-family="monospace" font-size="14.00">  EX_LocalVariable [CallFunc_FinishSpawningActor_ReturnValue]</text>
<text text-anchor="start" x="2293" y="-114.3" font-family="monospace" font-size="14.00">  EX_CallMath import /Script/Engine&#45;&gt;GameplayStatics&#45;&gt;FinishSpawningActor</text>
<text text-anchor="start" x="2293" y="-99.3" font-family="monospace" font-size="14.00">    EX_LocalVariable [CallFunc_BeginDeferredActorSpawnFromClass_ReturnValue]</text>
<text text-anchor="start" x="2293" y="-84.3" font-family="monospace" font-size="14.00">    EX_LocalVariable [CallFunc_MakeTransform_ReturnValue]</text>
</g>
<!-- ExecuteUbergraph_Cheat_SpawnSnowStorm__307&#45;&gt;ExecuteUbergraph_Cheat_SpawnSnowStorm__374 -->
<g id="edge10" class="edge">
<title>ExecuteUbergraph_Cheat_SpawnSnowStorm__307&#45;&gt;ExecuteUbergraph_Cheat_SpawnSnowStorm__374</title>
<path fill="none" stroke="black" d="M2597.67,-197.68C2598.71,-188.92 2599.8,-179.74 2600.85,-170.87"/>
<polygon fill="black" stroke="black" points="2604.32,-171.3 2602.02,-160.96 2597.37,-170.48 2604.32,-171.3"/>
</g>
<!-- ExecuteUbergraph_Cheat_SpawnSnowStorm__374&#45;&gt;ExecuteUbergraph_Cheat_SpawnSnowStorm__412 -->
<g id="edge11" class="edge">
<title>ExecuteUbergraph_Cheat_SpawnSnowStorm__374&#45;&gt;ExecuteUbergraph_Cheat_SpawnSnowStorm__412</title>
<path fill="none" stroke="black" d="M2754.91,-76.56C2802.37,-63.59 2852.66,-49.84 2891.57,-39.21"/>
<polygon fill="black" stroke="black" points="2892.04,-42.71 2900.77,-36.69 2890.2,-35.95 2892.04,-42.71"/>
</g>
<!-- ExecuteUbergraph_Cheat_SpawnSnowStorm__414 -->
<g id="node14" class="node">
<title>ExecuteUbergraph_Cheat_SpawnSnowStorm__414</title>
<polygon fill="#eeeeee" stroke="black" points="2749,-1237.5 2749,-1273.5 2881,-1273.5 2881,-1237.5 2749,-1237.5"/>
<text text-anchor="start" x="2757" y="-1251.8" font-family="monospace" font-size="14.00">EX_EndOfScript</text>
</g>
<!-- BndEvt__Button_0_K2Node_ComponentBoundEvent_13_OnButtonClickedEvent__DelegateSignature -->
<g id="node15" class="node">
<title>BndEvt__Button_0_K2Node_ComponentBoundEvent_13_OnButtonClickedEvent__DelegateSignature</title>
<polygon fill="#ff8888" stroke="black" points="1480,-1376 1480,-1412 2280,-1412 2280,-1376 1480,-1376"/>
<text text-anchor="start" x="1488" y="-1390.3" font-family="monospace" font-size="14.00">Function BndEvt__Button_0_K2Node_ComponentBoundEvent_13_OnButtonClickedEvent__DelegateSignature</text>
</g>
<!-- BndEvt__Button_0_K2Node_ComponentBoundEvent_13_OnButtonClickedEvent__DelegateSignature__0 -->
<g id="node16" class="node">
<title>BndEvt__Button_0_K2Node_ComponentBoundEvent_13_OnButtonClickedEvent__DelegateSignature__0</title>
<polygon fill="#eeeeee" stroke="black" points="1500.5,-1180.5 1500.5,-1218.5 2259.5,-1218.5 2259.5,-1180.5 1500.5,-1180.5"/>
<text text-anchor="start" x="1508.5" y="-1203.3" font-family="monospace" font-size="14.00">EX_LocalFinalFunction export Cheat_SpawnSnowStorm_C&#45;&gt;ExecuteUbergraph_Cheat_SpawnSnowStorm</text>
<text text-anchor="start" x="1508.5" y="-1188.3" font-family="monospace" font-size="14.00">  EX_IntConst 15</text>
</g>
<!-- BndEvt__Button_0_K2Node_ComponentBoundEvent_13_OnButtonClickedEvent__DelegateSignature&#45;&gt;BndEvt__Button_0_K2Node_ComponentBoundEvent_13_OnButtonClickedEvent__DelegateSignature__0 -->
<g id="edge12" class="edge">
<title>BndEvt__Button_0_K2Node_ComponentBoundEvent_13_OnButtonClickedEvent__DelegateSignature&#45;&gt;BndEvt__Button_0_K2Node_ComponentBoundEvent_13_OnButtonClickedEvent__DelegateSignature__0</title>
<path fill="none" stroke="black" d="M1880,-1376.25C1880,-1343.52 1880,-1270.7 1880,-1229.81"/>
<polygon fill="black" stroke="black" points="1883.5,-1229.97 1880,-1219.97 1876.5,-1229.97 1883.5,-1229.97"/>
</g>
<!-- BndEvt__Button_0_K2Node_ComponentBoundEvent_13_OnButtonClickedEvent__DelegateSignature__0&#45;&gt;ExecuteUbergraph_Cheat_SpawnSnowStorm__15 -->
<g id="edge13" class="edge">
<title>BndEvt__Button_0_K2Node_ComponentBoundEvent_13_OnButtonClickedEvent__DelegateSignature__0:e&#45;&gt;ExecuteUbergraph_Cheat_SpawnSnowStorm__15</title>
<path fill="none" stroke="red" d="M2261,-1199.5C2301.5,-1199.5 2323.24,-1154.94 2334.38,-1117.31"/>
<polygon fill="none" stroke="red" points="2337.7,-1118.45 2336.98,-1107.88 2330.95,-1116.59 2337.7,-1118.45"/>
</g>
<!-- BndEvt__Button_0_K2Node_ComponentBoundEvent_13_OnButtonClickedEvent__DelegateSignature__15 -->
<g id="node17" class="node">
<title>BndEvt__Button_0_K2Node_ComponentBoundEvent_13_OnButtonClickedEvent__DelegateSignature__15</title>
<polygon fill="#eeeeee" stroke="black" points="1782,-1046 1782,-1084 1898,-1084 1898,-1046 1782,-1046"/>
<text text-anchor="start" x="1790" y="-1068.8" font-family="monospace" font-size="14.00">EX_Return</text>
<text text-anchor="start" x="1790" y="-1053.8" font-family="monospace" font-size="14.00">  EX_Nothing</text>
</g>
<!-- BndEvt__Button_0_K2Node_ComponentBoundEvent_13_OnButtonClickedEvent__DelegateSignature__0&#45;&gt;BndEvt__Button_0_K2Node_ComponentBoundEvent_13_OnButtonClickedEvent__DelegateSignature__15 -->
<g id="edge14" class="edge">
<title>BndEvt__Button_0_K2Node_ComponentBoundEvent_13_OnButtonClickedEvent__DelegateSignature__0&#45;&gt;BndEvt__Button_0_K2Node_ComponentBoundEvent_13_OnButtonClickedEvent__DelegateSignature__15</title>
<path fill="none" stroke="black" d="M1874.61,-1180.63C1867.92,-1158.48 1856.44,-1120.46 1848.55,-1094.32"/>
<polygon fill="black" stroke="black" points="1851.99,-1093.6 1845.75,-1085.04 1845.29,-1095.62 1851.99,-1093.6"/>
</g>
<!-- BndEvt__Button_0_K2Node_ComponentBoundEvent_13_OnButtonClickedEvent__DelegateSignature__17 -->
<g id="node18" class="node">
<title>BndEvt__Button_0_K2Node_ComponentBoundEvent_13_OnButtonClickedEvent__DelegateSignature__17</title>
<polygon fill="#eeeeee" stroke="black" points="3044,-1125.5 3044,-1161.5 3176,-1161.5 3176,-1125.5 3044,-1125.5"/>
<text text-anchor="start" x="3052" y="-1139.8" font-family="monospace" font-size="14.00">EX_EndOfScript</text>
</g>
<!-- Construct -->
<g id="node19" class="node">
<title>Construct</title>
<polygon fill="#ff8888" stroke="black" points="2651.5,-1376 2651.5,-1412 2816.5,-1412 2816.5,-1376 2651.5,-1376"/>
<text text-anchor="start" x="2659.5" y="-1390.3" font-family="monospace" font-size="14.00">Function Construct</text>
</g>
<!-- Construct__0 -->
<g id="node20" class="node">
<title>Construct__0</title>
<polygon fill="#eeeeee" stroke="black" points="2354.5,-1180.5 2354.5,-1218.5 3113.5,-1218.5 3113.5,-1180.5 2354.5,-1180.5"/>
<text text-anchor="start" x="2362.5" y="-1203.3" font-family="monospace" font-size="14.00">EX_LocalFinalFunction export Cheat_SpawnSnowStorm_C&#45;&gt;ExecuteUbergraph_Cheat_SpawnSnowStorm</text>
<text text-anchor="start" x="2362.5" y="-1188.3" font-family="monospace" font-size="14.00">  EX_IntConst 10</text>
</g>
<!-- Construct&#45;&gt;Construct__0 -->
<g id="edge15" class="edge">
<title>Construct&#45;&gt;Construct__0</title>
<path fill="none" stroke="black" d="M2734,-1376.25C2734,-1343.52 2734,-1270.7 2734,-1229.81"/>
<polygon fill="black" stroke="black" points="2737.5,-1229.97 2734,-1219.97 2730.5,-1229.97 2737.5,-1229.97"/>
</g>
<!-- Construct__0&#45;&gt;ExecuteUbergraph_Cheat_SpawnSnowStorm__10 -->
<g id="edge16" class="edge">
<title>Construct__0:e&#45;&gt;ExecuteUbergraph_Cheat_SpawnSnowStorm__10</title>
<path fill="none" stroke="red" d="M3115,-1199.5C3123.68,-1199.5 3119.5,-1186.71 3114,-1180 3093.36,-1154.83 3063.59,-1187.21 3043,-1162 2973.83,-1077.33 3003.02,-933.36 3019.54,-873.2"/>
<polygon fill="none" stroke="red" points="3022.85,-874.36 3022.22,-863.79 3016.11,-872.44 3022.85,-874.36"/>
</g>
<!-- Construct__15 -->
<g id="node21" class="node">
<title>Construct__15</title>
<polygon fill="#eeeeee" stroke="black" points="2792,-1046 2792,-1084 2908,-1084 2908,-1046 2792,-1046"/>
<text text-anchor="start" x="2800" y="-1068.8" font-family="monospace" font-size="14.00">EX_Return</text>
<text text-anchor="start" x="2800" y="-1053.8" font-family="monospace" font-size="14.00">  EX_Nothing</text>
</g>
<!-- Construct__0&#45;&gt;Construct__15 -->
<g id="edge17" class="edge">
<title>Construct__0&#45;&gt;Construct__15</title>
<path fill="none" stroke="black" d="M2749.64,-1180.63C2769.56,-1157.88 2804.12,-1118.4 2827.03,-1092.24"/>
<polygon fill="black" stroke="black" points="2829.65,-1094.55 2833.61,-1084.73 2824.39,-1089.94 2829.65,-1094.55"/>
</g>
<!-- Construct__17 -->
<g id="node22" class="node">
<title>Construct__17</title>
<polygon fill="#eeeeee" stroke="black" points="3044,-968.5 3044,-1004.5 3176,-1004.5 3176,-968.5 3044,-968.5"/>
<text text-anchor="start" x="3052" y="-982.8" font-family="monospace" font-size="14.00">EX_EndOfScript</text>
</g>
</g>
</svg>
