<?xml version="1.0" encoding="UTF-8" standalone="no"?>
<!DOCTYPE svg PUBLIC "-//W3C//DTD SVG 1.1//EN"
 "http://www.w3.org/Graphics/SVG/1.1/DTD/svg11.dtd">
<!-- Generated by graphviz version 7.0.1 (0)
 -->
<!-- Pages: 1 -->
<svg width="3138pt" height="617pt"
 viewBox="0.00 0.00 3137.50 617.00" xmlns="http://www.w3.org/2000/svg" xmlns:xlink="http://www.w3.org/1999/xlink">
<g id="graph0" class="graph" transform="scale(1 1) rotate(0) translate(4 613)">
<polygon fill="white" stroke="none" points="-4,4 -4,-613 3133.5,-613 3133.5,4 -4,4"/>
<!-- Cheat_StopAIMovement_C -->
<g id="node1" class="node">
<title>Cheat_StopAIMovement_C</title>
<polygon fill="#88ff88" stroke="black" points="0,-495.5 0,-608.5 850,-608.5 850,-495.5 0,-495.5"/>
<text text-anchor="start" x="8" y="-593.3" font-family="monospace" font-size="14.00">ClassExport: Cheat_StopAIMovement_C</text>
<text text-anchor="start" x="8" y="-578.3" font-family="monospace" font-size="14.00">  SuperStruct: import /Script/UMG&#45;&gt;UserWidget</text>
<text text-anchor="start" x="8" y="-563.3" font-family="monospace" font-size="14.00">  Properties:</text>
<text text-anchor="start" x="8" y="-548.3" font-family="monospace" font-size="14.00">    StructProperty UberGraphFrame</text>
<text text-anchor="start" x="8" y="-533.3" font-family="monospace" font-size="14.00">      CPF_Transient|CPF_DuplicateTransient</text>
<text text-anchor="start" x="8" y="-518.3" font-family="monospace" font-size="14.00">    ObjectProperty CheckBox_0</text>
<text text-anchor="start" x="8" y="-503.3" font-family="monospace" font-size="14.00">      CPF_BlueprintVisible|CPF_ExportObject|CPF_InstancedReference|CPF_RepSkip|CPF_PersistentInstance</text>
</g>
<!-- ExecuteUbergraph_Cheat_StopAIMovement -->
<g id="node2" class="node">
<title>ExecuteUbergraph_Cheat_StopAIMovement</title>
<polygon fill="#ff8888" stroke="black" points="868,-510.5 868,-593.5 1338,-593.5 1338,-510.5 868,-510.5"/>
<text text-anchor="start" x="876" y="-578.3" font-family="monospace" font-size="14.00">Function ExecuteUbergraph_Cheat_StopAIMovement</text>
<text text-anchor="start" x="876" y="-563.3" font-family="monospace" font-size="14.00">  IntProperty EntryPoint</text>
<text text-anchor="start" x="876" y="-548.3" font-family="monospace" font-size="14.00">    CPF_BlueprintVisible|CPF_BlueprintReadOnly|CPF_Parm</text>
<text text-anchor="start" x="876" y="-533.3" font-family="monospace" font-size="14.00">  ObjectProperty CallFunc_GetCheatManager_ReturnValue</text>
<text text-anchor="start" x="876" y="-518.3" font-family="monospace" font-size="14.00">  BoolProperty K2Node_ComponentBoundEvent_bIsChecked</text>
</g>
<!-- ExecuteUbergraph_Cheat_StopAIMovement__0 -->
<g id="node3" class="node">
<title>ExecuteUbergraph_Cheat_StopAIMovement__0</title>
<polygon fill="#eeeeee" stroke="black" points="967,-420.5 967,-458.5 1239,-458.5 1239,-420.5 967,-420.5"/>
<text text-anchor="start" x="975" y="-443.3" font-family="monospace" font-size="14.00">EX_ComputedJump</text>
<text text-anchor="start" x="975" y="-428.3" font-family="monospace" font-size="14.00">  EX_LocalVariable [EntryPoint]</text>
</g>
<!-- ExecuteUbergraph_Cheat_StopAIMovement&#45;&gt;ExecuteUbergraph_Cheat_StopAIMovement__0 -->
<g id="edge1" class="edge">
<title>ExecuteUbergraph_Cheat_StopAIMovement&#45;&gt;ExecuteUbergraph_Cheat_StopAIMovement__0</title>
<path fill="none" stroke="black" d="M1103,-510.79C1103,-497.14 1103,-482.16 1103,-469.55"/>
<polygon fill="black" stroke="black" points="1106.5,-469.82 1103,-459.82 1099.5,-469.82 1106.5,-469.82"/>
</g>
<!-- ExecuteUbergraph_Cheat_StopAIMovement__10 -->
<g id="node4" class="node">
<title>ExecuteUbergraph_Cheat_StopAIMovement__10</title>
<polygon fill="#eeeeee" stroke="black" points="2584.5,-300.5 2584.5,-383.5 3129.5,-383.5 3129.5,-300.5 2584.5,-300.5"/>
<text text-anchor="start" x="2592.5" y="-368.3" font-family="monospace" font-size="14.00">EX_Context</text>
<text text-anchor="start" x="2592.5" y="-353.3" font-family="monospace" font-size="14.00">  EX_InstanceVariable [CheckBox_0]</text>
<text text-anchor="start" x="2592.5" y="-338.3" font-family="monospace" font-size="14.00">  EX_FinalFunction import /Script/UMG&#45;&gt;CheckBox&#45;&gt;SetCheckedState</text>
<text text-anchor="start" x="2592.5" y="-323.3" font-family="monospace" font-size="14.00">    EX_ByteConst 2</text>
<text text-anchor="start" x="2592.5" y="-308.3" font-family="monospace" font-size="14.00">  RValue = []</text>
</g>
<!-- ExecuteUbergraph_Cheat_StopAIMovement__44 -->
<g id="node5" class="node">
<title>ExecuteUbergraph_Cheat_StopAIMovement__44</title>
<polygon fill="#eeeeee" stroke="black" points="2765.5,-99 2765.5,-135 2872.5,-135 2872.5,-99 2765.5,-99"/>
<text text-anchor="start" x="2773.5" y="-113.3" font-family="monospace" font-size="14.00">EX_Jump 111</text>
</g>
<!-- ExecuteUbergraph_Cheat_StopAIMovement__10&#45;&gt;ExecuteUbergraph_Cheat_StopAIMovement__44 -->
<g id="edge2" class="edge">
<title>ExecuteUbergraph_Cheat_StopAIMovement__10&#45;&gt;ExecuteUbergraph_Cheat_StopAIMovement__44</title>
<path fill="none" stroke="black" d="M2850.12,-300.62C2842.5,-255.9 2830.41,-184.98 2823.77,-145.99"/>
<polygon fill="black" stroke="black" points="2827.24,-145.51 2822.11,-136.24 2820.34,-146.69 2827.24,-145.51"/>
</g>
<!-- ExecuteUbergraph_Cheat_StopAIMovement__111 -->
<g id="node8" class="node">
<title>ExecuteUbergraph_Cheat_StopAIMovement__111</title>
<polygon fill="#eeeeee" stroke="black" points="2539,-0.5 2539,-38.5 2655,-38.5 2655,-0.5 2539,-0.5"/>
<text text-anchor="start" x="2547" y="-23.3" font-family="monospace" font-size="14.00">EX_Return</text>
<text text-anchor="start" x="2547" y="-8.3" font-family="monospace" font-size="14.00">  EX_Nothing</text>
</g>
<!-- ExecuteUbergraph_Cheat_StopAIMovement__44&#45;&gt;ExecuteUbergraph_Cheat_StopAIMovement__111 -->
<g id="edge3" class="edge">
<title>ExecuteUbergraph_Cheat_StopAIMovement__44&#45;&gt;ExecuteUbergraph_Cheat_StopAIMovement__111</title>
<path fill="none" stroke="black" d="M2779.57,-99.04C2743.19,-83.39 2688.95,-60.06 2649.04,-42.89"/>
<polygon fill="black" stroke="black" points="2650.66,-39.78 2640.09,-39.04 2647.9,-46.21 2650.66,-39.78"/>
</g>
<!-- ExecuteUbergraph_Cheat_StopAIMovement__49 -->
<g id="node6" class="node">
<title>ExecuteUbergraph_Cheat_StopAIMovement__49</title>
<polygon fill="#eeeeee" stroke="black" points="2017,-195.5 2017,-263.5 2661,-263.5 2661,-195.5 2017,-195.5"/>
<text text-anchor="start" x="2025" y="-248.3" font-family="monospace" font-size="14.00">EX_LetObj</text>
<text text-anchor="start" x="2025" y="-233.3" font-family="monospace" font-size="14.00">  EX_LocalVariable [CallFunc_GetCheatManager_ReturnValue]</text>
<text text-anchor="start" x="2025" y="-218.3" font-family="monospace" font-size="14.00">  EX_CallMath import /Script/FSD&#45;&gt;FSDWidgetBlueprintLibrary&#45;&gt;GetCheatManager</text>
<text text-anchor="start" x="2025" y="-203.3" font-family="monospace" font-size="14.00">    EX_Self</text>
</g>
<!-- ExecuteUbergraph_Cheat_StopAIMovement__70 -->
<g id="node7" class="node">
<title>ExecuteUbergraph_Cheat_StopAIMovement__70</title>
<polygon fill="#eeeeee" stroke="black" points="2116,-75.5 2116,-158.5 2710,-158.5 2710,-75.5 2116,-75.5"/>
<text text-anchor="start" x="2124" y="-143.3" font-family="monospace" font-size="14.00">EX_Context</text>
<text text-anchor="start" x="2124" y="-128.3" font-family="monospace" font-size="14.00">  EX_LocalVariable [CallFunc_GetCheatManager_ReturnValue]</text>
<text text-anchor="start" x="2124" y="-113.3" font-family="monospace" font-size="14.00">  EX_FinalFunction import /Script/FSD&#45;&gt;FSDCheatManager&#45;&gt;C_StopMovement</text>
<text text-anchor="start" x="2124" y="-98.3" font-family="monospace" font-size="14.00">    EX_LocalVariable [K2Node_ComponentBoundEvent_bIsChecked]</text>
<text text-anchor="start" x="2124" y="-83.3" font-family="monospace" font-size="14.00">  RValue = []</text>
</g>
<!-- ExecuteUbergraph_Cheat_StopAIMovement__49&#45;&gt;ExecuteUbergraph_Cheat_StopAIMovement__70 -->
<g id="edge4" class="edge">
<title>ExecuteUbergraph_Cheat_StopAIMovement__49&#45;&gt;ExecuteUbergraph_Cheat_StopAIMovement__70</title>
<path fill="none" stroke="black" d="M2361,-195.65C2366.88,-186.87 2373.37,-177.18 2379.71,-167.71"/>
<polygon fill="black" stroke="black" points="2382.48,-169.87 2385.13,-159.61 2376.66,-165.98 2382.48,-169.87"/>
</g>
<!-- ExecuteUbergraph_Cheat_StopAIMovement__70&#45;&gt;ExecuteUbergraph_Cheat_StopAIMovement__111 -->
<g id="edge5" class="edge">
<title>ExecuteUbergraph_Cheat_StopAIMovement__70&#45;&gt;ExecuteUbergraph_Cheat_StopAIMovement__111</title>
<path fill="none" stroke="black" d="M2490.77,-75.64C2511.85,-64.69 2533.96,-53.22 2552.52,-43.59"/>
<polygon fill="black" stroke="black" points="2554.11,-46.71 2561.37,-38.99 2550.88,-40.49 2554.11,-46.71"/>
</g>
<!-- ExecuteUbergraph_Cheat_StopAIMovement__113 -->
<g id="node9" class="node">
<title>ExecuteUbergraph_Cheat_StopAIMovement__113</title>
<polygon fill="#eeeeee" stroke="black" points="2891,-99 2891,-135 3023,-135 3023,-99 2891,-99"/>
<text text-anchor="start" x="2899" y="-113.3" font-family="monospace" font-size="14.00">EX_EndOfScript</text>
</g>
<!-- BndEvt__CheckBox_0_K2Node_ComponentBoundEvent_6_OnCheckBoxComponentStateChanged__DelegateSignature -->
<g id="node10" class="node">
<title>BndEvt__CheckBox_0_K2Node_ComponentBoundEvent_6_OnCheckBoxComponentStateChanged__DelegateSignature</title>
<polygon fill="#ff8888" stroke="black" points="1356.5,-525.5 1356.5,-578.5 2255.5,-578.5 2255.5,-525.5 1356.5,-525.5"/>
<text text-anchor="start" x="1364.5" y="-563.3" font-family="monospace" font-size="14.00">Function BndEvt__CheckBox_0_K2Node_ComponentBoundEvent_6_OnCheckBoxComponentStateChanged__DelegateSignature</text>
<text text-anchor="start" x="1364.5" y="-548.3" font-family="monospace" font-size="14.00">  BoolProperty bIsChecked</text>
<text text-anchor="start" x="1364.5" y="-533.3" font-family="monospace" font-size="14.00">    CPF_BlueprintVisible|CPF_BlueprintReadOnly|CPF_Parm</text>
</g>
<!-- BndEvt__CheckBox_0_K2Node_ComponentBoundEvent_6_OnCheckBoxComponentStateChanged__DelegateSignature__0 -->
<g id="node11" class="node">
<title>BndEvt__CheckBox_0_K2Node_ComponentBoundEvent_6_OnCheckBoxComponentStateChanged__DelegateSignature__0</title>
<polygon fill="#eeeeee" stroke="black" points="1517,-420.5 1517,-458.5 2095,-458.5 2095,-420.5 1517,-420.5"/>
<text text-anchor="start" x="1525" y="-443.3" font-family="monospace" font-size="14.00">EX_LetValueOnPersistentFrame [K2Node_ComponentBoundEvent_bIsChecked]</text>
<text text-anchor="start" x="1525" y="-428.3" font-family="monospace" font-size="14.00">  EX_LocalVariable [bIsChecked]</text>
</g>
<!-- BndEvt__CheckBox_0_K2Node_ComponentBoundEvent_6_OnCheckBoxComponentStateChanged__DelegateSignature&#45;&gt;BndEvt__CheckBox_0_K2Node_ComponentBoundEvent_6_OnCheckBoxComponentStateChanged__DelegateSignature__0 -->
<g id="edge6" class="edge">
<title>BndEvt__CheckBox_0_K2Node_ComponentBoundEvent_6_OnCheckBoxComponentStateChanged__DelegateSignature&#45;&gt;BndEvt__CheckBox_0_K2Node_ComponentBoundEvent_6_OnCheckBoxComponentStateChanged__DelegateSignature__0</title>
<path fill="none" stroke="black" d="M1806,-525.65C1806,-509.06 1806,-487.32 1806,-469.96"/>
<polygon fill="black" stroke="black" points="1809.5,-470.01 1806,-460.01 1802.5,-470.01 1809.5,-470.01"/>
</g>
<!-- BndEvt__CheckBox_0_K2Node_ComponentBoundEvent_6_OnCheckBoxComponentStateChanged__DelegateSignature__18 -->
<g id="node12" class="node">
<title>BndEvt__CheckBox_0_K2Node_ComponentBoundEvent_6_OnCheckBoxComponentStateChanged__DelegateSignature__18</title>
<polygon fill="#eeeeee" stroke="black" points="1542.5,-323 1542.5,-361 2301.5,-361 2301.5,-323 1542.5,-323"/>
<text text-anchor="start" x="1550.5" y="-345.8" font-family="monospace" font-size="14.00">EX_LocalFinalFunction export Cheat_StopAIMovement_C&#45;&gt;ExecuteUbergraph_Cheat_StopAIMovement</text>
<text text-anchor="start" x="1550.5" y="-330.8" font-family="monospace" font-size="14.00">  EX_IntConst 49</text>
</g>
<!-- BndEvt__CheckBox_0_K2Node_ComponentBoundEvent_6_OnCheckBoxComponentStateChanged__DelegateSignature__0&#45;&gt;BndEvt__CheckBox_0_K2Node_ComponentBoundEvent_6_OnCheckBoxComponentStateChanged__DelegateSignature__18 -->
<g id="edge7" class="edge">
<title>BndEvt__CheckBox_0_K2Node_ComponentBoundEvent_6_OnCheckBoxComponentStateChanged__DelegateSignature__0&#45;&gt;BndEvt__CheckBox_0_K2Node_ComponentBoundEvent_6_OnCheckBoxComponentStateChanged__DelegateSignature__18</title>
<path fill="none" stroke="black" d="M1827.82,-420.54C1845.8,-405.73 1871.52,-384.56 1891.53,-368.08"/>
<polygon fill="black" stroke="black" points="1893.61,-370.9 1899.11,-361.84 1889.17,-365.5 1893.61,-370.9"/>
</g>
<!-- BndEvt__CheckBox_0_K2Node_ComponentBoundEvent_6_OnCheckBoxComponentStateChanged__DelegateSignature__18&#45;&gt;ExecuteUbergraph_Cheat_StopAIMovement__49 -->
<g id="edge8" class="edge">
<title>BndEvt__CheckBox_0_K2Node_ComponentBoundEvent_6_OnCheckBoxComponentStateChanged__DelegateSignature__18:e&#45;&gt;ExecuteUbergraph_Cheat_StopAIMovement__49</title>
<path fill="none" stroke="red" d="M2303,-342C2332.71,-342 2340.24,-305.7 2341.22,-274.53"/>
<polygon fill="none" stroke="red" points="2344.72,-274.89 2341.31,-264.86 2337.72,-274.83 2344.72,-274.89"/>
</g>
<!-- BndEvt__CheckBox_0_K2Node_ComponentBoundEvent_6_OnCheckBoxComponentStateChanged__DelegateSignature__33 -->
<g id="node13" class="node">
<title>BndEvt__CheckBox_0_K2Node_ComponentBoundEvent_6_OnCheckBoxComponentStateChanged__DelegateSignature__33</title>
<polygon fill="#eeeeee" stroke="black" points="1864,-210.5 1864,-248.5 1980,-248.5 1980,-210.5 1864,-210.5"/>
<text text-anchor="start" x="1872" y="-233.3" font-family="monospace" font-size="14.00">EX_Return</text>
<text text-anchor="start" x="1872" y="-218.3" font-family="monospace" font-size="14.00">  EX_Nothing</text>
</g>
<!-- BndEvt__CheckBox_0_K2Node_ComponentBoundEvent_6_OnCheckBoxComponentStateChanged__DelegateSignature__18&#45;&gt;BndEvt__CheckBox_0_K2Node_ComponentBoundEvent_6_OnCheckBoxComponentStateChanged__DelegateSignature__33 -->
<g id="edge9" class="edge">
<title>BndEvt__CheckBox_0_K2Node_ComponentBoundEvent_6_OnCheckBoxComponentStateChanged__DelegateSignature__18&#45;&gt;BndEvt__CheckBox_0_K2Node_ComponentBoundEvent_6_OnCheckBoxComponentStateChanged__DelegateSignature__33</title>
<path fill="none" stroke="black" d="M1922,-323.25C1922,-306.09 1922,-279.8 1922,-259.58"/>
<polygon fill="black" stroke="black" points="1925.5,-259.72 1922,-249.72 1918.5,-259.72 1925.5,-259.72"/>
</g>
<!-- BndEvt__CheckBox_0_K2Node_ComponentBoundEvent_6_OnCheckBoxComponentStateChanged__DelegateSignature__35 -->
<g id="node14" class="node">
<title>BndEvt__CheckBox_0_K2Node_ComponentBoundEvent_6_OnCheckBoxComponentStateChanged__DelegateSignature__35</title>
<polygon fill="#eeeeee" stroke="black" points="2673,-1.5 2673,-37.5 2805,-37.5 2805,-1.5 2673,-1.5"/>
<text text-anchor="start" x="2681" y="-15.8" font-family="monospace" font-size="14.00">EX_EndOfScript</text>
</g>
<!-- Construct -->
<g id="node15" class="node">
<title>Construct</title>
<polygon fill="#ff8888" stroke="black" points="2410.5,-534 2410.5,-570 2575.5,-570 2575.5,-534 2410.5,-534"/>
<text text-anchor="start" x="2418.5" y="-548.3" font-family="monospace" font-size="14.00">Function Construct</text>
</g>
<!-- Construct__0 -->
<g id="node16" class="node">
<title>Construct__0</title>
<polygon fill="#eeeeee" stroke="black" points="2113.5,-420.5 2113.5,-458.5 2872.5,-458.5 2872.5,-420.5 2113.5,-420.5"/>
<text text-anchor="start" x="2121.5" y="-443.3" font-family="monospace" font-size="14.00">EX_LocalFinalFunction export Cheat_StopAIMovement_C&#45;&gt;ExecuteUbergraph_Cheat_StopAIMovement</text>
<text text-anchor="start" x="2121.5" y="-428.3" font-family="monospace" font-size="14.00">  EX_IntConst 10</text>
</g>
<!-- Construct&#45;&gt;Construct__0 -->
<g id="edge10" class="edge">
<title>Construct&#45;&gt;Construct__0</title>
<path fill="none" stroke="black" d="M2493,-534.22C2493,-517.06 2493,-490.07 2493,-469.45"/>
<polygon fill="black" stroke="black" points="2496.5,-469.69 2493,-459.69 2489.5,-469.69 2496.5,-469.69"/>
</g>
<!-- Construct__0&#45;&gt;ExecuteUbergraph_Cheat_StopAIMovement__10 -->
<g id="edge11" class="edge">
<title>Construct__0:e&#45;&gt;ExecuteUbergraph_Cheat_StopAIMovement__10</title>
<path fill="none" stroke="red" d="M2874,-439.5C2895.04,-439.5 2891.78,-416.97 2882.79,-393.68"/>
<polygon fill="none" stroke="red" points="2886.15,-392.64 2879.06,-384.76 2879.69,-395.34 2886.15,-392.64"/>
</g>
<!-- Construct__15 -->
<g id="node17" class="node">
<title>Construct__15</title>
<polygon fill="#eeeeee" stroke="black" points="2435,-323 2435,-361 2551,-361 2551,-323 2435,-323"/>
<text text-anchor="start" x="2443" y="-345.8" font-family="monospace" font-size="14.00">EX_Return</text>
<text text-anchor="start" x="2443" y="-330.8" font-family="monospace" font-size="14.00">  EX_Nothing</text>
</g>
<!-- Construct__0&#45;&gt;Construct__15 -->
<g id="edge12" class="edge">
<title>Construct__0&#45;&gt;Construct__15</title>
<path fill="none" stroke="black" d="M2493,-420.54C2493,-406.93 2493,-387.95 2493,-372.18"/>
<polygon fill="black" stroke="black" points="2496.5,-372.4 2493,-362.4 2489.5,-372.4 2496.5,-372.4"/>
</g>
<!-- Construct__17 -->
<g id="node18" class="node">
<title>Construct__17</title>
<polygon fill="#eeeeee" stroke="black" points="2594,-534 2594,-570 2726,-570 2726,-534 2594,-534"/>
<text text-anchor="start" x="2602" y="-548.3" font-family="monospace" font-size="14.00">EX_EndOfScript</text>
</g>
</g>
</svg>
