<?xml version="1.0" encoding="UTF-8" standalone="no"?>
<!DOCTYPE svg PUBLIC "-//W3C//DTD SVG 1.1//EN"
 "http://www.w3.org/Graphics/SVG/1.1/DTD/svg11.dtd">
<!-- Generated by graphviz version 7.0.1 (0)
 -->
<!-- Pages: 1 -->
<svg width="4614pt" height="2638pt"
 viewBox="0.00 0.00 4614.27 2638.00" xmlns="http://www.w3.org/2000/svg" xmlns:xlink="http://www.w3.org/1999/xlink">
<g id="graph0" class="graph" transform="scale(1 1) rotate(0) translate(4 2634)">
<polygon fill="white" stroke="none" points="-4,4 -4,-2634 4610.27,-2634 4610.27,4 -4,4"/>
<!-- Cheat_SetPromotionRank_C -->
<g id="node1" class="node">
<title>Cheat_SetPromotionRank_C</title>
<polygon fill="#88ff88" stroke="black" points="0,-2456.5 0,-2599.5 850,-2599.5 850,-2456.5 0,-2456.5"/>
<text text-anchor="start" x="8" y="-2584.3" font-family="monospace" font-size="14.00">ClassExport: Cheat_SetPromotionRank_C</text>
<text text-anchor="start" x="8" y="-2569.3" font-family="monospace" font-size="14.00">  SuperStruct: import /Script/UMG&#45;&gt;UserWidget</text>
<text text-anchor="start" x="8" y="-2554.3" font-family="monospace" font-size="14.00">  Properties:</text>
<text text-anchor="start" x="8" y="-2539.3" font-family="monospace" font-size="14.00">    StructProperty UberGraphFrame</text>
<text text-anchor="start" x="8" y="-2524.3" font-family="monospace" font-size="14.00">      CPF_Transient|CPF_DuplicateTransient</text>
<text text-anchor="start" x="8" y="-2509.3" font-family="monospace" font-size="14.00">    ObjectProperty Button_0</text>
<text text-anchor="start" x="8" y="-2494.3" font-family="monospace" font-size="14.00">      CPF_BlueprintVisible|CPF_ExportObject|CPF_InstancedReference|CPF_RepSkip|CPF_PersistentInstance</text>
<text text-anchor="start" x="8" y="-2479.3" font-family="monospace" font-size="14.00">    ObjectProperty CountTextBox</text>
<text text-anchor="start" x="8" y="-2464.3" font-family="monospace" font-size="14.00">      CPF_BlueprintVisible|CPF_ExportObject|CPF_InstancedReference|CPF_RepSkip|CPF_PersistentInstance</text>
</g>
<!-- ExecuteUbergraph_Cheat_SetPromotionRank -->
<g id="node2" class="node">
<title>ExecuteUbergraph_Cheat_SetPromotionRank</title>
<polygon fill="#ff8888" stroke="black" points="868.5,-2426.5 868.5,-2629.5 1355.5,-2629.5 1355.5,-2426.5 868.5,-2426.5"/>
<text text-anchor="start" x="876.5" y="-2614.3" font-family="monospace" font-size="14.00">Function ExecuteUbergraph_Cheat_SetPromotionRank</text>
<text text-anchor="start" x="876.5" y="-2599.3" font-family="monospace" font-size="14.00">  IntProperty EntryPoint</text>
<text text-anchor="start" x="876.5" y="-2584.3" font-family="monospace" font-size="14.00">    CPF_BlueprintVisible|CPF_BlueprintReadOnly|CPF_Parm</text>
<text text-anchor="start" x="876.5" y="-2569.3" font-family="monospace" font-size="14.00">  ObjectProperty CallFunc_GetOwningPlayer_ReturnValue</text>
<text text-anchor="start" x="876.5" y="-2554.3" font-family="monospace" font-size="14.00">  ObjectProperty CallFunc_DestroySession_ReturnValue</text>
<text text-anchor="start" x="876.5" y="-2539.3" font-family="monospace" font-size="14.00">  DelegateProperty K2Node_CreateDelegate_OutputDelegate</text>
<text text-anchor="start" x="876.5" y="-2524.3" font-family="monospace" font-size="14.00">  BoolProperty CallFunc_IsValid_ReturnValue</text>
<text text-anchor="start" x="876.5" y="-2509.3" font-family="monospace" font-size="14.00">  ObjectProperty CallFunc_GetCheatManager_ReturnValue</text>
<text text-anchor="start" x="876.5" y="-2494.3" font-family="monospace" font-size="14.00">  BoolProperty CallFunc_IsValid_ReturnValue_1</text>
<text text-anchor="start" x="876.5" y="-2479.3" font-family="monospace" font-size="14.00">  TextProperty CallFunc_GetText_ReturnValue</text>
<text text-anchor="start" x="876.5" y="-2464.3" font-family="monospace" font-size="14.00">  StrProperty CallFunc_Conv_TextToString_ReturnValue</text>
<text text-anchor="start" x="876.5" y="-2449.3" font-family="monospace" font-size="14.00">  IntProperty CallFunc_Conv_StringToInt_ReturnValue</text>
<text text-anchor="start" x="876.5" y="-2434.3" font-family="monospace" font-size="14.00">  DelegateProperty K2Node_CreateDelegate_OutputDelegate_1</text>
</g>
<!-- ExecuteUbergraph_Cheat_SetPromotionRank__0 -->
<g id="node3" class="node">
<title>ExecuteUbergraph_Cheat_SetPromotionRank__0</title>
<polygon fill="#eeeeee" stroke="black" points="976,-2314.5 976,-2352.5 1248,-2352.5 1248,-2314.5 976,-2314.5"/>
<text text-anchor="start" x="984" y="-2337.3" font-family="monospace" font-size="14.00">EX_ComputedJump</text>
<text text-anchor="start" x="984" y="-2322.3" font-family="monospace" font-size="14.00">  EX_LocalVariable [EntryPoint]</text>
</g>
<!-- ExecuteUbergraph_Cheat_SetPromotionRank&#45;&gt;ExecuteUbergraph_Cheat_SetPromotionRank__0 -->
<g id="edge1" class="edge">
<title>ExecuteUbergraph_Cheat_SetPromotionRank&#45;&gt;ExecuteUbergraph_Cheat_SetPromotionRank__0</title>
<path fill="none" stroke="black" d="M1112,-2426.52C1112,-2403.49 1112,-2380.78 1112,-2363.68"/>
<polygon fill="black" stroke="black" points="1115.5,-2363.81 1112,-2353.81 1108.5,-2363.81 1115.5,-2363.81"/>
</g>
<!-- ExecuteUbergraph_Cheat_SetPromotionRank__10 -->
<g id="node4" class="node">
<title>ExecuteUbergraph_Cheat_SetPromotionRank__10</title>
<polygon fill="#eeeeee" stroke="black" points="3530,-2015.5 3530,-2098.5 4050,-2098.5 4050,-2015.5 3530,-2015.5"/>
<text text-anchor="start" x="3538" y="-2083.3" font-family="monospace" font-size="14.00">EX_CallMath import /Script/Engine&#45;&gt;GameplayStatics&#45;&gt;OpenLevel</text>
<text text-anchor="start" x="3538" y="-2068.3" font-family="monospace" font-size="14.00">  EX_Self</text>
<text text-anchor="start" x="3538" y="-2053.3" font-family="monospace" font-size="14.00">  EX_NameConst /Game/Maps/SpaceRig/LVL_SpaceRig</text>
<text text-anchor="start" x="3538" y="-2038.3" font-family="monospace" font-size="14.00">  EX_True</text>
<text text-anchor="start" x="3538" y="-2023.3" font-family="monospace" font-size="14.00">  EX_StringConst </text>
</g>
<!-- ExecuteUbergraph_Cheat_SetPromotionRank__37 -->
<g id="node5" class="node">
<title>ExecuteUbergraph_Cheat_SetPromotionRank__37</title>
<polygon fill="#eeeeee" stroke="black" points="3179.5,-1534.5 3179.5,-1570.5 3286.5,-1570.5 3286.5,-1534.5 3179.5,-1534.5"/>
<text text-anchor="start" x="3187.5" y="-1548.8" font-family="monospace" font-size="14.00">EX_Jump 573</text>
</g>
<!-- ExecuteUbergraph_Cheat_SetPromotionRank__10&#45;&gt;ExecuteUbergraph_Cheat_SetPromotionRank__37 -->
<g id="edge2" class="edge">
<title>ExecuteUbergraph_Cheat_SetPromotionRank__10&#45;&gt;ExecuteUbergraph_Cheat_SetPromotionRank__37</title>
<path fill="none" stroke="black" d="M3530.02,-2033.47C3486.23,-2024.93 3449.58,-2013.18 3433,-1997 3409.2,-1973.77 3419,-1956.75 3419,-1923.5 3419,-1923.5 3419,-1923.5 3419,-1723.5 3419,-1651.17 3341.41,-1601.35 3286.46,-1575.14"/>
<polygon fill="black" stroke="black" points="3288.06,-1572.03 3277.51,-1571.01 3285.12,-1578.38 3288.06,-1572.03"/>
</g>
<!-- ExecuteUbergraph_Cheat_SetPromotionRank__573 -->
<g id="node27" class="node">
<title>ExecuteUbergraph_Cheat_SetPromotionRank__573</title>
<polygon fill="#eeeeee" stroke="black" points="2853,-0.5 2853,-38.5 2969,-38.5 2969,-0.5 2853,-0.5"/>
<text text-anchor="start" x="2861" y="-23.3" font-family="monospace" font-size="14.00">EX_Return</text>
<text text-anchor="start" x="2861" y="-8.3" font-family="monospace" font-size="14.00">  EX_Nothing</text>
</g>
<!-- ExecuteUbergraph_Cheat_SetPromotionRank__37&#45;&gt;ExecuteUbergraph_Cheat_SetPromotionRank__573 -->
<g id="edge3" class="edge">
<title>ExecuteUbergraph_Cheat_SetPromotionRank__37&#45;&gt;ExecuteUbergraph_Cheat_SetPromotionRank__573</title>
<path fill="none" stroke="black" d="M3202.64,-1534.61C3170.39,-1514.19 3124,-1476.54 3124,-1429 3124,-1429 3124,-1429 3124,-93.5 3124,-62.48 3042.12,-41.86 2979.9,-30.67"/>
<polygon fill="black" stroke="black" points="2980.87,-27.29 2970.41,-29.02 2979.66,-34.19 2980.87,-27.29"/>
</g>
<!-- ExecuteUbergraph_Cheat_SetPromotionRank__42 -->
<g id="node6" class="node">
<title>ExecuteUbergraph_Cheat_SetPromotionRank__42</title>
<polygon fill="#eeeeee" stroke="black" points="2243.5,-1055.5 2243.5,-1108.5 2730.5,-1108.5 2730.5,-1055.5 2243.5,-1055.5"/>
<text text-anchor="start" x="2251.5" y="-1093.3" font-family="monospace" font-size="14.00">EX_LetObj</text>
<text text-anchor="start" x="2251.5" y="-1078.3" font-family="monospace" font-size="14.00">  EX_LocalVariable [CallFunc_GetOwningPlayer_ReturnValue]</text>
<text text-anchor="start" x="2251.5" y="-1063.3" font-family="monospace" font-size="14.00">  EX_VirtualFunction GetOwningPlayer</text>
</g>
<!-- ExecuteUbergraph_Cheat_SetPromotionRank__66 -->
<g id="node7" class="node">
<title>ExecuteUbergraph_Cheat_SetPromotionRank__66</title>
<polygon fill="#eeeeee" stroke="black" points="2091,-934.5 2091,-1017.5 2883,-1017.5 2883,-934.5 2091,-934.5"/>
<text text-anchor="start" x="2099" y="-1002.3" font-family="monospace" font-size="14.00">EX_LetObj</text>
<text text-anchor="start" x="2099" y="-987.3" font-family="monospace" font-size="14.00">  EX_LocalVariable [CallFunc_DestroySession_ReturnValue]</text>
<text text-anchor="start" x="2099" y="-972.3" font-family="monospace" font-size="14.00">  EX_CallMath import /Script/OnlineSubsystemUtils&#45;&gt;DestroySessionCallbackProxy&#45;&gt;DestroySession</text>
<text text-anchor="start" x="2099" y="-957.3" font-family="monospace" font-size="14.00">    EX_Self</text>
<text text-anchor="start" x="2099" y="-942.3" font-family="monospace" font-size="14.00">    EX_LocalVariable [CallFunc_GetOwningPlayer_ReturnValue]</text>
</g>
<!-- ExecuteUbergraph_Cheat_SetPromotionRank__42&#45;&gt;ExecuteUbergraph_Cheat_SetPromotionRank__66 -->
<g id="edge4" class="edge">
<title>ExecuteUbergraph_Cheat_SetPromotionRank__42&#45;&gt;ExecuteUbergraph_Cheat_SetPromotionRank__66</title>
<path fill="none" stroke="black" d="M2487,-1055.56C2487,-1047.35 2487,-1037.93 2487,-1028.54"/>
<polygon fill="black" stroke="black" points="2490.5,-1028.69 2487,-1018.69 2483.5,-1028.69 2490.5,-1028.69"/>
</g>
<!-- ExecuteUbergraph_Cheat_SetPromotionRank__96 -->
<g id="node8" class="node">
<title>ExecuteUbergraph_Cheat_SetPromotionRank__96</title>
<polygon fill="#eeeeee" stroke="black" points="2230.5,-814.5 2230.5,-882.5 2783.5,-882.5 2783.5,-814.5 2230.5,-814.5"/>
<text text-anchor="start" x="2238.5" y="-867.3" font-family="monospace" font-size="14.00">EX_LetBool</text>
<text text-anchor="start" x="2238.5" y="-852.3" font-family="monospace" font-size="14.00">  EX_LocalVariable [CallFunc_IsValid_ReturnValue]</text>
<text text-anchor="start" x="2238.5" y="-837.3" font-family="monospace" font-size="14.00">  EX_CallMath import /Script/Engine&#45;&gt;KismetSystemLibrary&#45;&gt;IsValid</text>
<text text-anchor="start" x="2238.5" y="-822.3" font-family="monospace" font-size="14.00">    EX_LocalVariable [CallFunc_DestroySession_ReturnValue]</text>
</g>
<!-- ExecuteUbergraph_Cheat_SetPromotionRank__66&#45;&gt;ExecuteUbergraph_Cheat_SetPromotionRank__96 -->
<g id="edge5" class="edge">
<title>ExecuteUbergraph_Cheat_SetPromotionRank__66&#45;&gt;ExecuteUbergraph_Cheat_SetPromotionRank__96</title>
<path fill="none" stroke="black" d="M2493.44,-934.6C2495.52,-921.52 2497.84,-906.95 2499.97,-893.62"/>
<polygon fill="black" stroke="black" points="2503.42,-894.21 2501.54,-883.78 2496.51,-893.1 2503.42,-894.21"/>
</g>
<!-- ExecuteUbergraph_Cheat_SetPromotionRank__125 -->
<g id="node9" class="node">
<title>ExecuteUbergraph_Cheat_SetPromotionRank__125</title>
<polygon fill="#eeeeee" stroke="black" points="2355.5,-738.5 2355.5,-776.5 2776.5,-776.5 2776.5,-738.5 2355.5,-738.5"/>
<text text-anchor="start" x="2363.5" y="-761.3" font-family="monospace" font-size="14.00">EX_JumpIfNot 573</text>
<text text-anchor="start" x="2363.5" y="-746.3" font-family="monospace" font-size="14.00">  EX_LocalVariable [CallFunc_IsValid_ReturnValue]</text>
</g>
<!-- ExecuteUbergraph_Cheat_SetPromotionRank__96&#45;&gt;ExecuteUbergraph_Cheat_SetPromotionRank__125 -->
<g id="edge6" class="edge">
<title>ExecuteUbergraph_Cheat_SetPromotionRank__96&#45;&gt;ExecuteUbergraph_Cheat_SetPromotionRank__125</title>
<path fill="none" stroke="black" d="M2528.8,-814.61C2535.12,-805.09 2541.94,-794.79 2548,-785.66"/>
<polygon fill="black" stroke="black" points="2550.76,-787.82 2553.37,-777.55 2544.93,-783.95 2550.76,-787.82"/>
</g>
<!-- ExecuteUbergraph_Cheat_SetPromotionRank__139 -->
<g id="node10" class="node">
<title>ExecuteUbergraph_Cheat_SetPromotionRank__139</title>
<polygon fill="#eeeeee" stroke="black" points="2318.5,-633.5 2318.5,-686.5 2813.5,-686.5 2813.5,-633.5 2318.5,-633.5"/>
<text text-anchor="start" x="2326.5" y="-671.3" font-family="monospace" font-size="14.00">EX_BindDelegate OnSuccess_B68487534BCFBEC9FC0EF1A6F9C790B6</text>
<text text-anchor="start" x="2326.5" y="-656.3" font-family="monospace" font-size="14.00">  EX_LocalVariable [K2Node_CreateDelegate_OutputDelegate]</text>
<text text-anchor="start" x="2326.5" y="-641.3" font-family="monospace" font-size="14.00">  EX_Self</text>
</g>
<!-- ExecuteUbergraph_Cheat_SetPromotionRank__125&#45;&gt;ExecuteUbergraph_Cheat_SetPromotionRank__139 -->
<g id="edge8" class="edge">
<title>ExecuteUbergraph_Cheat_SetPromotionRank__125&#45;&gt;ExecuteUbergraph_Cheat_SetPromotionRank__139</title>
<path fill="none" stroke="black" d="M2566,-738.54C2566,-727.06 2566,-711.75 2566,-697.77"/>
<polygon fill="black" stroke="black" points="2569.5,-697.96 2566,-687.96 2562.5,-697.96 2569.5,-697.96"/>
<text text-anchor="middle" x="2574.5" y="-708.8" font-family="monospace" font-size="14.00">IF</text>
</g>
<!-- ExecuteUbergraph_Cheat_SetPromotionRank__125&#45;&gt;ExecuteUbergraph_Cheat_SetPromotionRank__573 -->
<g id="edge7" class="edge">
<title>ExecuteUbergraph_Cheat_SetPromotionRank__125:e&#45;&gt;ExecuteUbergraph_Cheat_SetPromotionRank__573</title>
<path fill="none" stroke="red" d="M2778,-757.5C2830.47,-757.5 2846,-713.47 2846,-661 2846,-661 2846,-661 2846,-93.5 2846,-74.39 2858.58,-57.96 2872.67,-45.56"/>
<polygon fill="none" stroke="red" points="2874.8,-48.34 2880.37,-39.32 2870.39,-42.9 2874.8,-48.34"/>
<text text-anchor="middle" x="2871" y="-376.8" font-family="monospace" font-size="14.00">IF NOT</text>
</g>
<!-- ExecuteUbergraph_Cheat_SetPromotionRank__162 -->
<g id="node11" class="node">
<title>ExecuteUbergraph_Cheat_SetPromotionRank__162</title>
<polygon fill="#eeeeee" stroke="black" points="2318.5,-497.5 2318.5,-595.5 2813.5,-595.5 2813.5,-497.5 2318.5,-497.5"/>
<text text-anchor="start" x="2326.5" y="-580.3" font-family="monospace" font-size="14.00">EX_AddMulticastDelegate</text>
<text text-anchor="start" x="2326.5" y="-565.3" font-family="monospace" font-size="14.00">  EX_Context</text>
<text text-anchor="start" x="2326.5" y="-550.3" font-family="monospace" font-size="14.00">    EX_LocalVariable [CallFunc_DestroySession_ReturnValue]</text>
<text text-anchor="start" x="2326.5" y="-535.3" font-family="monospace" font-size="14.00">    EX_InstanceVariable [OnSuccess]</text>
<text text-anchor="start" x="2326.5" y="-520.3" font-family="monospace" font-size="14.00">    RValue = [OnSuccess]</text>
<text text-anchor="start" x="2326.5" y="-505.3" font-family="monospace" font-size="14.00">  EX_LocalVariable [K2Node_CreateDelegate_OutputDelegate]</text>
</g>
<!-- ExecuteUbergraph_Cheat_SetPromotionRank__139&#45;&gt;ExecuteUbergraph_Cheat_SetPromotionRank__162 -->
<g id="edge9" class="edge">
<title>ExecuteUbergraph_Cheat_SetPromotionRank__139&#45;&gt;ExecuteUbergraph_Cheat_SetPromotionRank__162</title>
<path fill="none" stroke="black" d="M2566,-633.7C2566,-625.48 2566,-615.98 2566,-606.37"/>
<polygon fill="black" stroke="black" points="2569.5,-606.6 2566,-596.6 2562.5,-606.6 2569.5,-606.6"/>
</g>
<!-- ExecuteUbergraph_Cheat_SetPromotionRank__203 -->
<g id="node12" class="node">
<title>ExecuteUbergraph_Cheat_SetPromotionRank__203</title>
<polygon fill="#eeeeee" stroke="black" points="2314.5,-406.5 2314.5,-459.5 2817.5,-459.5 2817.5,-406.5 2314.5,-406.5"/>
<text text-anchor="start" x="2322.5" y="-444.3" font-family="monospace" font-size="14.00">EX_BindDelegate OnFailure_B68487534BCFBEC9FC0EF1A6F9C790B6</text>
<text text-anchor="start" x="2322.5" y="-429.3" font-family="monospace" font-size="14.00">  EX_LocalVariable [K2Node_CreateDelegate_OutputDelegate_1]</text>
<text text-anchor="start" x="2322.5" y="-414.3" font-family="monospace" font-size="14.00">  EX_Self</text>
</g>
<!-- ExecuteUbergraph_Cheat_SetPromotionRank__162&#45;&gt;ExecuteUbergraph_Cheat_SetPromotionRank__203 -->
<g id="edge10" class="edge">
<title>ExecuteUbergraph_Cheat_SetPromotionRank__162&#45;&gt;ExecuteUbergraph_Cheat_SetPromotionRank__203</title>
<path fill="none" stroke="black" d="M2566,-497.57C2566,-488.66 2566,-479.48 2566,-470.97"/>
<polygon fill="black" stroke="black" points="2569.5,-470.98 2566,-460.98 2562.5,-470.98 2569.5,-470.98"/>
</g>
<!-- ExecuteUbergraph_Cheat_SetPromotionRank__226 -->
<g id="node13" class="node">
<title>ExecuteUbergraph_Cheat_SetPromotionRank__226</title>
<polygon fill="#eeeeee" stroke="black" points="2314.5,-256.5 2314.5,-354.5 2817.5,-354.5 2817.5,-256.5 2314.5,-256.5"/>
<text text-anchor="start" x="2322.5" y="-339.3" font-family="monospace" font-size="14.00">EX_AddMulticastDelegate</text>
<text text-anchor="start" x="2322.5" y="-324.3" font-family="monospace" font-size="14.00">  EX_Context</text>
<text text-anchor="start" x="2322.5" y="-309.3" font-family="monospace" font-size="14.00">    EX_LocalVariable [CallFunc_DestroySession_ReturnValue]</text>
<text text-anchor="start" x="2322.5" y="-294.3" font-family="monospace" font-size="14.00">    EX_InstanceVariable [OnFailure]</text>
<text text-anchor="start" x="2322.5" y="-279.3" font-family="monospace" font-size="14.00">    RValue = [OnFailure]</text>
<text text-anchor="start" x="2322.5" y="-264.3" font-family="monospace" font-size="14.00">  EX_LocalVariable [K2Node_CreateDelegate_OutputDelegate_1]</text>
</g>
<!-- ExecuteUbergraph_Cheat_SetPromotionRank__203&#45;&gt;ExecuteUbergraph_Cheat_SetPromotionRank__226 -->
<g id="edge11" class="edge">
<title>ExecuteUbergraph_Cheat_SetPromotionRank__203&#45;&gt;ExecuteUbergraph_Cheat_SetPromotionRank__226</title>
<path fill="none" stroke="black" d="M2566,-406.6C2566,-394.79 2566,-380.2 2566,-365.85"/>
<polygon fill="black" stroke="black" points="2569.5,-365.97 2566,-355.97 2562.5,-365.97 2569.5,-365.97"/>
</g>
<!-- ExecuteUbergraph_Cheat_SetPromotionRank__267 -->
<g id="node14" class="node">
<title>ExecuteUbergraph_Cheat_SetPromotionRank__267</title>
<polygon fill="#eeeeee" stroke="black" points="2335.5,-150.5 2335.5,-218.5 2814.5,-218.5 2814.5,-150.5 2335.5,-150.5"/>
<text text-anchor="start" x="2343.5" y="-203.3" font-family="monospace" font-size="14.00">EX_Context</text>
<text text-anchor="start" x="2343.5" y="-188.3" font-family="monospace" font-size="14.00">  EX_LocalVariable [CallFunc_DestroySession_ReturnValue]</text>
<text text-anchor="start" x="2343.5" y="-173.3" font-family="monospace" font-size="14.00">  EX_VirtualFunction Activate</text>
<text text-anchor="start" x="2343.5" y="-158.3" font-family="monospace" font-size="14.00">  RValue = []</text>
</g>
<!-- ExecuteUbergraph_Cheat_SetPromotionRank__226&#45;&gt;ExecuteUbergraph_Cheat_SetPromotionRank__267 -->
<g id="edge12" class="edge">
<title>ExecuteUbergraph_Cheat_SetPromotionRank__226&#45;&gt;ExecuteUbergraph_Cheat_SetPromotionRank__267</title>
<path fill="none" stroke="black" d="M2569.61,-256.78C2570.29,-247.79 2571,-238.43 2571.67,-229.55"/>
<polygon fill="black" stroke="black" points="2575.15,-229.99 2572.41,-219.75 2568.17,-229.46 2575.15,-229.99"/>
</g>
<!-- ExecuteUbergraph_Cheat_SetPromotionRank__303 -->
<g id="node15" class="node">
<title>ExecuteUbergraph_Cheat_SetPromotionRank__303</title>
<polygon fill="#eeeeee" stroke="black" points="2662.5,-76.5 2662.5,-112.5 2769.5,-112.5 2769.5,-76.5 2662.5,-76.5"/>
<text text-anchor="start" x="2670.5" y="-90.8" font-family="monospace" font-size="14.00">EX_Jump 573</text>
</g>
<!-- ExecuteUbergraph_Cheat_SetPromotionRank__267&#45;&gt;ExecuteUbergraph_Cheat_SetPromotionRank__303 -->
<g id="edge13" class="edge">
<title>ExecuteUbergraph_Cheat_SetPromotionRank__267&#45;&gt;ExecuteUbergraph_Cheat_SetPromotionRank__303</title>
<path fill="none" stroke="black" d="M2627.5,-150.73C2644.75,-139.97 2663.54,-128.24 2679.35,-118.37"/>
<polygon fill="black" stroke="black" points="2680.85,-121.56 2687.48,-113.3 2677.15,-115.62 2680.85,-121.56"/>
</g>
<!-- ExecuteUbergraph_Cheat_SetPromotionRank__303&#45;&gt;ExecuteUbergraph_Cheat_SetPromotionRank__573 -->
<g id="edge14" class="edge">
<title>ExecuteUbergraph_Cheat_SetPromotionRank__303&#45;&gt;ExecuteUbergraph_Cheat_SetPromotionRank__573</title>
<path fill="none" stroke="black" d="M2761.23,-76.57C2788.38,-66.4 2823.22,-53.36 2852.46,-42.42"/>
<polygon fill="black" stroke="black" points="2853.4,-45.8 2861.54,-39.02 2850.94,-39.25 2853.4,-45.8"/>
</g>
<!-- ExecuteUbergraph_Cheat_SetPromotionRank__308 -->
<g id="node16" class="node">
<title>ExecuteUbergraph_Cheat_SetPromotionRank__308</title>
<polygon fill="#eeeeee" stroke="black" points="3740.5,-2188.5 3740.5,-2224.5 3839.5,-2224.5 3839.5,-2188.5 3740.5,-2188.5"/>
<text text-anchor="start" x="3748.5" y="-2202.8" font-family="monospace" font-size="14.00">EX_Jump 10</text>
</g>
<!-- ExecuteUbergraph_Cheat_SetPromotionRank__308&#45;&gt;ExecuteUbergraph_Cheat_SetPromotionRank__10 -->
<g id="edge15" class="edge">
<title>ExecuteUbergraph_Cheat_SetPromotionRank__308&#45;&gt;ExecuteUbergraph_Cheat_SetPromotionRank__10</title>
<path fill="none" stroke="black" d="M3790,-2188.58C3790,-2169.44 3790,-2137.36 3790,-2109.78"/>
<polygon fill="black" stroke="black" points="3793.5,-2109.8 3790,-2099.8 3786.5,-2109.8 3793.5,-2109.8"/>
</g>
<!-- ExecuteUbergraph_Cheat_SetPromotionRank__313 -->
<g id="node17" class="node">
<title>ExecuteUbergraph_Cheat_SetPromotionRank__313</title>
<polygon fill="#eeeeee" stroke="black" points="2926.5,-1706.5 2926.5,-1742.5 3033.5,-1742.5 3033.5,-1706.5 2926.5,-1706.5"/>
<text text-anchor="start" x="2934.5" y="-1720.8" font-family="monospace" font-size="14.00">EX_Jump 573</text>
</g>
<!-- ExecuteUbergraph_Cheat_SetPromotionRank__313&#45;&gt;ExecuteUbergraph_Cheat_SetPromotionRank__573 -->
<g id="edge16" class="edge">
<title>ExecuteUbergraph_Cheat_SetPromotionRank__313&#45;&gt;ExecuteUbergraph_Cheat_SetPromotionRank__573</title>
<path fill="none" stroke="black" d="M2979.67,-1706.61C2979.1,-1676.06 2978,-1609.58 2978,-1553.5 2978,-1553.5 2978,-1553.5 2978,-93.5 2978,-74.09 2964.98,-57.6 2950.42,-45.24"/>
<polygon fill="black" stroke="black" points="2952.97,-42.8 2942.95,-39.38 2948.65,-48.3 2952.97,-42.8"/>
</g>
<!-- ExecuteUbergraph_Cheat_SetPromotionRank__318 -->
<g id="node18" class="node">
<title>ExecuteUbergraph_Cheat_SetPromotionRank__318</title>
<polygon fill="#eeeeee" stroke="black" points="1857,-2172.5 1857,-2240.5 2501,-2240.5 2501,-2172.5 1857,-2172.5"/>
<text text-anchor="start" x="1865" y="-2225.3" font-family="monospace" font-size="14.00">EX_LetObj</text>
<text text-anchor="start" x="1865" y="-2210.3" font-family="monospace" font-size="14.00">  EX_LocalVariable [CallFunc_GetCheatManager_ReturnValue]</text>
<text text-anchor="start" x="1865" y="-2195.3" font-family="monospace" font-size="14.00">  EX_CallMath import /Script/FSD&#45;&gt;FSDWidgetBlueprintLibrary&#45;&gt;GetCheatManager</text>
<text text-anchor="start" x="1865" y="-2180.3" font-family="monospace" font-size="14.00">    EX_Self</text>
</g>
<!-- ExecuteUbergraph_Cheat_SetPromotionRank__339 -->
<g id="node19" class="node">
<title>ExecuteUbergraph_Cheat_SetPromotionRank__339</title>
<polygon fill="#eeeeee" stroke="black" points="2015.5,-2023 2015.5,-2091 2568.5,-2091 2568.5,-2023 2015.5,-2023"/>
<text text-anchor="start" x="2023.5" y="-2075.8" font-family="monospace" font-size="14.00">EX_LetBool</text>
<text text-anchor="start" x="2023.5" y="-2060.8" font-family="monospace" font-size="14.00">  EX_LocalVariable [CallFunc_IsValid_ReturnValue_1]</text>
<text text-anchor="start" x="2023.5" y="-2045.8" font-family="monospace" font-size="14.00">  EX_CallMath import /Script/Engine&#45;&gt;KismetSystemLibrary&#45;&gt;IsValid</text>
<text text-anchor="start" x="2023.5" y="-2030.8" font-family="monospace" font-size="14.00">    EX_LocalVariable [CallFunc_GetCheatManager_ReturnValue]</text>
</g>
<!-- ExecuteUbergraph_Cheat_SetPromotionRank__318&#45;&gt;ExecuteUbergraph_Cheat_SetPromotionRank__339 -->
<g id="edge17" class="edge">
<title>ExecuteUbergraph_Cheat_SetPromotionRank__318&#45;&gt;ExecuteUbergraph_Cheat_SetPromotionRank__339</title>
<path fill="none" stroke="black" d="M2204.08,-2172.76C2220.55,-2151.26 2242.25,-2122.94 2259.97,-2099.81"/>
<polygon fill="black" stroke="black" points="2262.57,-2102.17 2265.88,-2092.1 2257.02,-2097.91 2262.57,-2102.17"/>
</g>
<!-- ExecuteUbergraph_Cheat_SetPromotionRank__368 -->
<g id="node20" class="node">
<title>ExecuteUbergraph_Cheat_SetPromotionRank__368</title>
<polygon fill="#eeeeee" stroke="black" points="2268.5,-1903.5 2268.5,-1941.5 2705.5,-1941.5 2705.5,-1903.5 2268.5,-1903.5"/>
<text text-anchor="start" x="2276.5" y="-1926.3" font-family="monospace" font-size="14.00">EX_JumpIfNot 573</text>
<text text-anchor="start" x="2276.5" y="-1911.3" font-family="monospace" font-size="14.00">  EX_LocalVariable [CallFunc_IsValid_ReturnValue_1]</text>
</g>
<!-- ExecuteUbergraph_Cheat_SetPromotionRank__339&#45;&gt;ExecuteUbergraph_Cheat_SetPromotionRank__368 -->
<g id="edge18" class="edge">
<title>ExecuteUbergraph_Cheat_SetPromotionRank__339&#45;&gt;ExecuteUbergraph_Cheat_SetPromotionRank__368</title>
<path fill="none" stroke="black" d="M2340.45,-2023.08C2374.9,-1999.67 2420.4,-1968.76 2451.5,-1947.62"/>
<polygon fill="black" stroke="black" points="2453.11,-1950.76 2459.41,-1942.25 2449.17,-1944.97 2453.11,-1950.76"/>
</g>
<!-- ExecuteUbergraph_Cheat_SetPromotionRank__382 -->
<g id="node21" class="node">
<title>ExecuteUbergraph_Cheat_SetPromotionRank__382</title>
<polygon fill="#eeeeee" stroke="black" points="2165,-1761.5 2165,-1829.5 2809,-1829.5 2809,-1761.5 2165,-1761.5"/>
<text text-anchor="start" x="2173" y="-1814.3" font-family="monospace" font-size="14.00">EX_LetObj</text>
<text text-anchor="start" x="2173" y="-1799.3" font-family="monospace" font-size="14.00">  EX_LocalVariable [CallFunc_GetCheatManager_ReturnValue]</text>
<text text-anchor="start" x="2173" y="-1784.3" font-family="monospace" font-size="14.00">  EX_CallMath import /Script/FSD&#45;&gt;FSDWidgetBlueprintLibrary&#45;&gt;GetCheatManager</text>
<text text-anchor="start" x="2173" y="-1769.3" font-family="monospace" font-size="14.00">    EX_Self</text>
</g>
<!-- ExecuteUbergraph_Cheat_SetPromotionRank__368&#45;&gt;ExecuteUbergraph_Cheat_SetPromotionRank__382 -->
<g id="edge20" class="edge">
<title>ExecuteUbergraph_Cheat_SetPromotionRank__368&#45;&gt;ExecuteUbergraph_Cheat_SetPromotionRank__382</title>
<path fill="none" stroke="black" d="M2487,-1903.59C2487,-1887.22 2487,-1862.35 2487,-1840.69"/>
<polygon fill="black" stroke="black" points="2490.5,-1840.9 2487,-1830.9 2483.5,-1840.9 2490.5,-1840.9"/>
<text text-anchor="middle" x="2495.5" y="-1862.8" font-family="monospace" font-size="14.00">IF</text>
</g>
<!-- ExecuteUbergraph_Cheat_SetPromotionRank__368&#45;&gt;ExecuteUbergraph_Cheat_SetPromotionRank__573 -->
<g id="edge19" class="edge">
<title>ExecuteUbergraph_Cheat_SetPromotionRank__368:e&#45;&gt;ExecuteUbergraph_Cheat_SetPromotionRank__573</title>
<path fill="none" stroke="red" d="M2707,-1922.5C2813.57,-1922.5 2911,-1903.07 2911,-1796.5 2911,-1796.5 2911,-1796.5 2911,-93.5 2911,-79.14 2911,-63.19 2911,-49.87"/>
<polygon fill="none" stroke="red" points="2914.5,-50.01 2911,-40.01 2907.5,-50.01 2914.5,-50.01"/>
<text text-anchor="middle" x="2936" y="-904.8" font-family="monospace" font-size="14.00">IF NOT</text>
</g>
<!-- ExecuteUbergraph_Cheat_SetPromotionRank__403 -->
<g id="node22" class="node">
<title>ExecuteUbergraph_Cheat_SetPromotionRank__403</title>
<polygon fill="#eeeeee" stroke="black" points="2210.5,-1589.5 2210.5,-1687.5 2763.5,-1687.5 2763.5,-1589.5 2210.5,-1589.5"/>
<text text-anchor="start" x="2218.5" y="-1672.3" font-family="monospace" font-size="14.00">EX_Let</text>
<text text-anchor="start" x="2218.5" y="-1657.3" font-family="monospace" font-size="14.00">  EX_LocalVariable [CallFunc_GetText_ReturnValue]</text>
<text text-anchor="start" x="2218.5" y="-1642.3" font-family="monospace" font-size="14.00">  EX_Context</text>
<text text-anchor="start" x="2218.5" y="-1627.3" font-family="monospace" font-size="14.00">    EX_InstanceVariable [CountTextBox]</text>
<text text-anchor="start" x="2218.5" y="-1612.3" font-family="monospace" font-size="14.00">    EX_FinalFunction import /Script/UMG&#45;&gt;EditableTextBox&#45;&gt;GetText</text>
<text text-anchor="start" x="2218.5" y="-1597.3" font-family="monospace" font-size="14.00">    RValue = [CallFunc_GetText_ReturnValue]</text>
</g>
<!-- ExecuteUbergraph_Cheat_SetPromotionRank__382&#45;&gt;ExecuteUbergraph_Cheat_SetPromotionRank__403 -->
<g id="edge21" class="edge">
<title>ExecuteUbergraph_Cheat_SetPromotionRank__382&#45;&gt;ExecuteUbergraph_Cheat_SetPromotionRank__403</title>
<path fill="none" stroke="black" d="M2487,-1761.63C2487,-1743.32 2487,-1719.98 2487,-1698.62"/>
<polygon fill="black" stroke="black" points="2490.5,-1698.84 2487,-1688.84 2483.5,-1698.84 2490.5,-1698.84"/>
</g>
<!-- ExecuteUbergraph_Cheat_SetPromotionRank__453 -->
<g id="node23" class="node">
<title>ExecuteUbergraph_Cheat_SetPromotionRank__453</title>
<polygon fill="#eeeeee" stroke="black" points="2177.5,-1447.5 2177.5,-1515.5 2796.5,-1515.5 2796.5,-1447.5 2177.5,-1447.5"/>
<text text-anchor="start" x="2185.5" y="-1500.3" font-family="monospace" font-size="14.00">EX_Let</text>
<text text-anchor="start" x="2185.5" y="-1485.3" font-family="monospace" font-size="14.00">  EX_LocalVariable [CallFunc_Conv_TextToString_ReturnValue]</text>
<text text-anchor="start" x="2185.5" y="-1470.3" font-family="monospace" font-size="14.00">  EX_CallMath import /Script/Engine&#45;&gt;KismetTextLibrary&#45;&gt;Conv_TextToString</text>
<text text-anchor="start" x="2185.5" y="-1455.3" font-family="monospace" font-size="14.00">    EX_LocalVariable [CallFunc_GetText_ReturnValue]</text>
</g>
<!-- ExecuteUbergraph_Cheat_SetPromotionRank__403&#45;&gt;ExecuteUbergraph_Cheat_SetPromotionRank__453 -->
<g id="edge22" class="edge">
<title>ExecuteUbergraph_Cheat_SetPromotionRank__403&#45;&gt;ExecuteUbergraph_Cheat_SetPromotionRank__453</title>
<path fill="none" stroke="black" d="M2487,-1589.73C2487,-1569.6 2487,-1546.31 2487,-1526.6"/>
<polygon fill="black" stroke="black" points="2490.5,-1526.66 2487,-1516.66 2483.5,-1526.66 2490.5,-1526.66"/>
</g>
<!-- ExecuteUbergraph_Cheat_SetPromotionRank__490 -->
<g id="node24" class="node">
<title>ExecuteUbergraph_Cheat_SetPromotionRank__490</title>
<polygon fill="#eeeeee" stroke="black" points="2173.5,-1341.5 2173.5,-1409.5 2800.5,-1409.5 2800.5,-1341.5 2173.5,-1341.5"/>
<text text-anchor="start" x="2181.5" y="-1394.3" font-family="monospace" font-size="14.00">EX_Let</text>
<text text-anchor="start" x="2181.5" y="-1379.3" font-family="monospace" font-size="14.00">  EX_LocalVariable [CallFunc_Conv_StringToInt_ReturnValue]</text>
<text text-anchor="start" x="2181.5" y="-1364.3" font-family="monospace" font-size="14.00">  EX_CallMath import /Script/Engine&#45;&gt;KismetStringLibrary&#45;&gt;Conv_StringToInt</text>
<text text-anchor="start" x="2181.5" y="-1349.3" font-family="monospace" font-size="14.00">    EX_LocalVariable [CallFunc_Conv_TextToString_ReturnValue]</text>
</g>
<!-- ExecuteUbergraph_Cheat_SetPromotionRank__453&#45;&gt;ExecuteUbergraph_Cheat_SetPromotionRank__490 -->
<g id="edge23" class="edge">
<title>ExecuteUbergraph_Cheat_SetPromotionRank__453&#45;&gt;ExecuteUbergraph_Cheat_SetPromotionRank__490</title>
<path fill="none" stroke="black" d="M2487,-1447.59C2487,-1438.97 2487,-1429.54 2487,-1420.45"/>
<polygon fill="black" stroke="black" points="2490.5,-1420.71 2487,-1410.71 2483.5,-1420.71 2490.5,-1420.71"/>
</g>
<!-- ExecuteUbergraph_Cheat_SetPromotionRank__527 -->
<g id="node25" class="node">
<title>ExecuteUbergraph_Cheat_SetPromotionRank__527</title>
<polygon fill="#eeeeee" stroke="black" points="2165,-1220.5 2165,-1303.5 2809,-1303.5 2809,-1220.5 2165,-1220.5"/>
<text text-anchor="start" x="2173" y="-1288.3" font-family="monospace" font-size="14.00">EX_Context</text>
<text text-anchor="start" x="2173" y="-1273.3" font-family="monospace" font-size="14.00">  EX_LocalVariable [CallFunc_GetCheatManager_ReturnValue]</text>
<text text-anchor="start" x="2173" y="-1258.3" font-family="monospace" font-size="14.00">  EX_FinalFunction import /Script/FSD&#45;&gt;FSDCheatManager&#45;&gt;C_Promotion_SetLevel</text>
<text text-anchor="start" x="2173" y="-1243.3" font-family="monospace" font-size="14.00">    EX_LocalVariable [CallFunc_Conv_StringToInt_ReturnValue]</text>
<text text-anchor="start" x="2173" y="-1228.3" font-family="monospace" font-size="14.00">  RValue = []</text>
</g>
<!-- ExecuteUbergraph_Cheat_SetPromotionRank__490&#45;&gt;ExecuteUbergraph_Cheat_SetPromotionRank__527 -->
<g id="edge24" class="edge">
<title>ExecuteUbergraph_Cheat_SetPromotionRank__490&#45;&gt;ExecuteUbergraph_Cheat_SetPromotionRank__527</title>
<path fill="none" stroke="black" d="M2487,-1341.65C2487,-1333.16 2487,-1323.81 2487,-1314.61"/>
<polygon fill="black" stroke="black" points="2490.5,-1314.63 2487,-1304.63 2483.5,-1314.63 2490.5,-1314.63"/>
</g>
<!-- ExecuteUbergraph_Cheat_SetPromotionRank__568 -->
<g id="node26" class="node">
<title>ExecuteUbergraph_Cheat_SetPromotionRank__568</title>
<polygon fill="#eeeeee" stroke="black" points="2437.5,-1146.5 2437.5,-1182.5 2536.5,-1182.5 2536.5,-1146.5 2437.5,-1146.5"/>
<text text-anchor="start" x="2445.5" y="-1160.8" font-family="monospace" font-size="14.00">EX_Jump 42</text>
</g>
<!-- ExecuteUbergraph_Cheat_SetPromotionRank__527&#45;&gt;ExecuteUbergraph_Cheat_SetPromotionRank__568 -->
<g id="edge25" class="edge">
<title>ExecuteUbergraph_Cheat_SetPromotionRank__527&#45;&gt;ExecuteUbergraph_Cheat_SetPromotionRank__568</title>
<path fill="none" stroke="black" d="M2487,-1220.78C2487,-1211.73 2487,-1202.32 2487,-1193.88"/>
<polygon fill="black" stroke="black" points="2490.5,-1193.88 2487,-1183.88 2483.5,-1193.88 2490.5,-1193.88"/>
</g>
<!-- ExecuteUbergraph_Cheat_SetPromotionRank__568&#45;&gt;ExecuteUbergraph_Cheat_SetPromotionRank__42 -->
<g id="edge26" class="edge">
<title>ExecuteUbergraph_Cheat_SetPromotionRank__568&#45;&gt;ExecuteUbergraph_Cheat_SetPromotionRank__42</title>
<path fill="none" stroke="black" d="M2487,-1146.82C2487,-1138.9 2487,-1129.09 2487,-1119.57"/>
<polygon fill="black" stroke="black" points="2490.5,-1119.74 2487,-1109.74 2483.5,-1119.74 2490.5,-1119.74"/>
</g>
<!-- ExecuteUbergraph_Cheat_SetPromotionRank__575 -->
<g id="node28" class="node">
<title>ExecuteUbergraph_Cheat_SetPromotionRank__575</title>
<polygon fill="#eeeeee" stroke="black" points="4219,-2371.5 4219,-2407.5 4351,-2407.5 4351,-2371.5 4219,-2371.5"/>
<text text-anchor="start" x="4227" y="-2385.8" font-family="monospace" font-size="14.00">EX_EndOfScript</text>
</g>
<!-- BndEvt__Button_0_K2Node_ComponentBoundEvent_23_OnButtonClickedEvent__DelegateSignature -->
<g id="node29" class="node">
<title>BndEvt__Button_0_K2Node_ComponentBoundEvent_23_OnButtonClickedEvent__DelegateSignature</title>
<polygon fill="#ff8888" stroke="black" points="1374,-2510 1374,-2546 2174,-2546 2174,-2510 1374,-2510"/>
<text text-anchor="start" x="1382" y="-2524.3" font-family="monospace" font-size="14.00">Function BndEvt__Button_0_K2Node_ComponentBoundEvent_23_OnButtonClickedEvent__DelegateSignature</text>
</g>
<!-- BndEvt__Button_0_K2Node_ComponentBoundEvent_23_OnButtonClickedEvent__DelegateSignature__0 -->
<g id="node30" class="node">
<title>BndEvt__Button_0_K2Node_ComponentBoundEvent_23_OnButtonClickedEvent__DelegateSignature__0</title>
<polygon fill="#eeeeee" stroke="black" points="1378,-2314.5 1378,-2352.5 2170,-2352.5 2170,-2314.5 1378,-2314.5"/>
<text text-anchor="start" x="1386" y="-2337.3" font-family="monospace" font-size="14.00">EX_LocalFinalFunction export Cheat_SetPromotionRank_C&#45;&gt;ExecuteUbergraph_Cheat_SetPromotionRank</text>
<text text-anchor="start" x="1386" y="-2322.3" font-family="monospace" font-size="14.00">  EX_IntConst 318</text>
</g>
<!-- BndEvt__Button_0_K2Node_ComponentBoundEvent_23_OnButtonClickedEvent__DelegateSignature&#45;&gt;BndEvt__Button_0_K2Node_ComponentBoundEvent_23_OnButtonClickedEvent__DelegateSignature__0 -->
<g id="edge27" class="edge">
<title>BndEvt__Button_0_K2Node_ComponentBoundEvent_23_OnButtonClickedEvent__DelegateSignature&#45;&gt;BndEvt__Button_0_K2Node_ComponentBoundEvent_23_OnButtonClickedEvent__DelegateSignature__0</title>
<path fill="none" stroke="black" d="M1774,-2510.25C1774,-2477.52 1774,-2404.7 1774,-2363.81"/>
<polygon fill="black" stroke="black" points="1777.5,-2363.97 1774,-2353.97 1770.5,-2363.97 1777.5,-2363.97"/>
</g>
<!-- BndEvt__Button_0_K2Node_ComponentBoundEvent_23_OnButtonClickedEvent__DelegateSignature__0&#45;&gt;ExecuteUbergraph_Cheat_SetPromotionRank__318 -->
<g id="edge28" class="edge">
<title>BndEvt__Button_0_K2Node_ComponentBoundEvent_23_OnButtonClickedEvent__DelegateSignature__0:e&#45;&gt;ExecuteUbergraph_Cheat_SetPromotionRank__318</title>
<path fill="none" stroke="red" d="M2171,-2333.5C2179.43,-2333.5 2180.62,-2287.99 2180.22,-2251.68"/>
<polygon fill="none" stroke="red" points="2183.72,-2251.73 2180.07,-2241.79 2176.72,-2251.84 2183.72,-2251.73"/>
</g>
<!-- BndEvt__Button_0_K2Node_ComponentBoundEvent_23_OnButtonClickedEvent__DelegateSignature__15 -->
<g id="node31" class="node">
<title>BndEvt__Button_0_K2Node_ComponentBoundEvent_23_OnButtonClickedEvent__DelegateSignature__15</title>
<polygon fill="#eeeeee" stroke="black" points="1716,-2187.5 1716,-2225.5 1832,-2225.5 1832,-2187.5 1716,-2187.5"/>
<text text-anchor="start" x="1724" y="-2210.3" font-family="monospace" font-size="14.00">EX_Return</text>
<text text-anchor="start" x="1724" y="-2195.3" font-family="monospace" font-size="14.00">  EX_Nothing</text>
</g>
<!-- BndEvt__Button_0_K2Node_ComponentBoundEvent_23_OnButtonClickedEvent__DelegateSignature__0&#45;&gt;BndEvt__Button_0_K2Node_ComponentBoundEvent_23_OnButtonClickedEvent__DelegateSignature__15 -->
<g id="edge29" class="edge">
<title>BndEvt__Button_0_K2Node_ComponentBoundEvent_23_OnButtonClickedEvent__DelegateSignature__0&#45;&gt;BndEvt__Button_0_K2Node_ComponentBoundEvent_23_OnButtonClickedEvent__DelegateSignature__15</title>
<path fill="none" stroke="black" d="M1774,-2314.59C1774,-2294.26 1774,-2260.8 1774,-2236.69"/>
<polygon fill="black" stroke="black" points="1777.5,-2236.89 1774,-2226.89 1770.5,-2236.89 1777.5,-2236.89"/>
</g>
<!-- BndEvt__Button_0_K2Node_ComponentBoundEvent_23_OnButtonClickedEvent__DelegateSignature__17 -->
<g id="node32" class="node">
<title>BndEvt__Button_0_K2Node_ComponentBoundEvent_23_OnButtonClickedEvent__DelegateSignature__17</title>
<polygon fill="#eeeeee" stroke="black" points="4460,-2259.5 4460,-2295.5 4592,-2295.5 4592,-2259.5 4460,-2259.5"/>
<text text-anchor="start" x="4468" y="-2273.8" font-family="monospace" font-size="14.00">EX_EndOfScript</text>
</g>
<!-- Construct -->
<g id="node33" class="node">
<title>Construct</title>
<polygon fill="#ff8888" stroke="black" points="2501.5,-2510 2501.5,-2546 2666.5,-2546 2666.5,-2510 2501.5,-2510"/>
<text text-anchor="start" x="2509.5" y="-2524.3" font-family="monospace" font-size="14.00">Function Construct</text>
</g>
<!-- Construct__0 -->
<g id="node34" class="node">
<title>Construct__0</title>
<polygon fill="#eeeeee" stroke="black" points="2188,-2314.5 2188,-2352.5 2980,-2352.5 2980,-2314.5 2188,-2314.5"/>
<text text-anchor="start" x="2196" y="-2337.3" font-family="monospace" font-size="14.00">EX_LocalFinalFunction export Cheat_SetPromotionRank_C&#45;&gt;ExecuteUbergraph_Cheat_SetPromotionRank</text>
<text text-anchor="start" x="2196" y="-2322.3" font-family="monospace" font-size="14.00">  EX_IntConst 313</text>
</g>
<!-- Construct&#45;&gt;Construct__0 -->
<g id="edge30" class="edge">
<title>Construct&#45;&gt;Construct__0</title>
<path fill="none" stroke="black" d="M2584,-2510.25C2584,-2477.52 2584,-2404.7 2584,-2363.81"/>
<polygon fill="black" stroke="black" points="2587.5,-2363.97 2584,-2353.97 2580.5,-2363.97 2587.5,-2363.97"/>
</g>
<!-- Construct__0&#45;&gt;ExecuteUbergraph_Cheat_SetPromotionRank__313 -->
<g id="edge31" class="edge">
<title>Construct__0:e&#45;&gt;ExecuteUbergraph_Cheat_SetPromotionRank__313</title>
<path fill="none" stroke="red" d="M2981,-2333.5C2995,-2333.5 2980,-2221.5 2980,-2207.5 2980,-2207.5 2980,-2207.5 2980,-1865.5 2980,-1826.75 2980,-1781.98 2980,-1753.7"/>
<polygon fill="none" stroke="red" points="2983.5,-1753.82 2980,-1743.82 2976.5,-1753.82 2983.5,-1753.82"/>
</g>
<!-- Construct__15 -->
<g id="node35" class="node">
<title>Construct__15</title>
<polygon fill="#eeeeee" stroke="black" points="2526,-2187.5 2526,-2225.5 2642,-2225.5 2642,-2187.5 2526,-2187.5"/>
<text text-anchor="start" x="2534" y="-2210.3" font-family="monospace" font-size="14.00">EX_Return</text>
<text text-anchor="start" x="2534" y="-2195.3" font-family="monospace" font-size="14.00">  EX_Nothing</text>
</g>
<!-- Construct__0&#45;&gt;Construct__15 -->
<g id="edge32" class="edge">
<title>Construct__0&#45;&gt;Construct__15</title>
<path fill="none" stroke="black" d="M2584,-2314.59C2584,-2294.26 2584,-2260.8 2584,-2236.69"/>
<polygon fill="black" stroke="black" points="2587.5,-2236.89 2584,-2226.89 2580.5,-2236.89 2587.5,-2236.89"/>
</g>
<!-- Construct__17 -->
<g id="node36" class="node">
<title>Construct__17</title>
<polygon fill="#eeeeee" stroke="black" points="4460,-2117.5 4460,-2153.5 4592,-2153.5 4592,-2117.5 4460,-2117.5"/>
<text text-anchor="start" x="4468" y="-2131.8" font-family="monospace" font-size="14.00">EX_EndOfScript</text>
</g>
<!-- OnSuccess_B68487534BCFBEC9FC0EF1A6F9C790B6 -->
<g id="node37" class="node">
<title>OnSuccess_B68487534BCFBEC9FC0EF1A6F9C790B6</title>
<polygon fill="#ff8888" stroke="black" points="3175.5,-2510 3175.5,-2546 3612.5,-2546 3612.5,-2510 3175.5,-2510"/>
<text text-anchor="start" x="3183.5" y="-2524.3" font-family="monospace" font-size="14.00">Function OnSuccess_B68487534BCFBEC9FC0EF1A6F9C790B6</text>
</g>
<!-- OnSuccess_B68487534BCFBEC9FC0EF1A6F9C790B6__0 -->
<g id="node38" class="node">
<title>OnSuccess_B68487534BCFBEC9FC0EF1A6F9C790B6__0</title>
<polygon fill="#eeeeee" stroke="black" points="2998,-2314.5 2998,-2352.5 3790,-2352.5 3790,-2314.5 2998,-2314.5"/>
<text text-anchor="start" x="3006" y="-2337.3" font-family="monospace" font-size="14.00">EX_LocalFinalFunction export Cheat_SetPromotionRank_C&#45;&gt;ExecuteUbergraph_Cheat_SetPromotionRank</text>
<text text-anchor="start" x="3006" y="-2322.3" font-family="monospace" font-size="14.00">  EX_IntConst 308</text>
</g>
<!-- OnSuccess_B68487534BCFBEC9FC0EF1A6F9C790B6&#45;&gt;OnSuccess_B68487534BCFBEC9FC0EF1A6F9C790B6__0 -->
<g id="edge33" class="edge">
<title>OnSuccess_B68487534BCFBEC9FC0EF1A6F9C790B6&#45;&gt;OnSuccess_B68487534BCFBEC9FC0EF1A6F9C790B6__0</title>
<path fill="none" stroke="black" d="M3394,-2510.25C3394,-2477.52 3394,-2404.7 3394,-2363.81"/>
<polygon fill="black" stroke="black" points="3397.5,-2363.97 3394,-2353.97 3390.5,-2363.97 3397.5,-2363.97"/>
</g>
<!-- OnSuccess_B68487534BCFBEC9FC0EF1A6F9C790B6__0&#45;&gt;ExecuteUbergraph_Cheat_SetPromotionRank__308 -->
<g id="edge34" class="edge">
<title>OnSuccess_B68487534BCFBEC9FC0EF1A6F9C790B6__0:e&#45;&gt;ExecuteUbergraph_Cheat_SetPromotionRank__308</title>
<path fill="none" stroke="red" d="M3791,-2333.5C3800.72,-2333.5 3796.46,-2272.75 3792.95,-2235.61"/>
<polygon fill="none" stroke="red" points="3796.46,-2235.61 3792,-2226 3789.5,-2236.29 3796.46,-2235.61"/>
</g>
<!-- OnSuccess_B68487534BCFBEC9FC0EF1A6F9C790B6__15 -->
<g id="node39" class="node">
<title>OnSuccess_B68487534BCFBEC9FC0EF1A6F9C790B6__15</title>
<polygon fill="#eeeeee" stroke="black" points="3336,-2187.5 3336,-2225.5 3452,-2225.5 3452,-2187.5 3336,-2187.5"/>
<text text-anchor="start" x="3344" y="-2210.3" font-family="monospace" font-size="14.00">EX_Return</text>
<text text-anchor="start" x="3344" y="-2195.3" font-family="monospace" font-size="14.00">  EX_Nothing</text>
</g>
<!-- OnSuccess_B68487534BCFBEC9FC0EF1A6F9C790B6__0&#45;&gt;OnSuccess_B68487534BCFBEC9FC0EF1A6F9C790B6__15 -->
<g id="edge35" class="edge">
<title>OnSuccess_B68487534BCFBEC9FC0EF1A6F9C790B6__0&#45;&gt;OnSuccess_B68487534BCFBEC9FC0EF1A6F9C790B6__15</title>
<path fill="none" stroke="black" d="M3394,-2314.59C3394,-2294.26 3394,-2260.8 3394,-2236.69"/>
<polygon fill="black" stroke="black" points="3397.5,-2236.89 3394,-2226.89 3390.5,-2236.89 3397.5,-2236.89"/>
</g>
<!-- OnSuccess_B68487534BCFBEC9FC0EF1A6F9C790B6__17 -->
<g id="node40" class="node">
<title>OnSuccess_B68487534BCFBEC9FC0EF1A6F9C790B6__17</title>
<polygon fill="#eeeeee" stroke="black" points="3434,-1960.5 3434,-1996.5 3566,-1996.5 3566,-1960.5 3434,-1960.5"/>
<text text-anchor="start" x="3442" y="-1974.8" font-family="monospace" font-size="14.00">EX_EndOfScript</text>
</g>
<!-- OnFailure_B68487534BCFBEC9FC0EF1A6F9C790B6 -->
<g id="node41" class="node">
<title>OnFailure_B68487534BCFBEC9FC0EF1A6F9C790B6</title>
<polygon fill="#ff8888" stroke="black" points="3985.5,-2510 3985.5,-2546 4422.5,-2546 4422.5,-2510 3985.5,-2510"/>
<text text-anchor="start" x="3993.5" y="-2524.3" font-family="monospace" font-size="14.00">Function OnFailure_B68487534BCFBEC9FC0EF1A6F9C790B6</text>
</g>
<!-- OnFailure_B68487534BCFBEC9FC0EF1A6F9C790B6__0 -->
<g id="node42" class="node">
<title>OnFailure_B68487534BCFBEC9FC0EF1A6F9C790B6__0</title>
<polygon fill="#eeeeee" stroke="black" points="3808,-2314.5 3808,-2352.5 4600,-2352.5 4600,-2314.5 3808,-2314.5"/>
<text text-anchor="start" x="3816" y="-2337.3" font-family="monospace" font-size="14.00">EX_LocalFinalFunction export Cheat_SetPromotionRank_C&#45;&gt;ExecuteUbergraph_Cheat_SetPromotionRank</text>
<text text-anchor="start" x="3816" y="-2322.3" font-family="monospace" font-size="14.00">  EX_IntConst 10</text>
</g>
<!-- OnFailure_B68487534BCFBEC9FC0EF1A6F9C790B6&#45;&gt;OnFailure_B68487534BCFBEC9FC0EF1A6F9C790B6__0 -->
<g id="edge36" class="edge">
<title>OnFailure_B68487534BCFBEC9FC0EF1A6F9C790B6&#45;&gt;OnFailure_B68487534BCFBEC9FC0EF1A6F9C790B6__0</title>
<path fill="none" stroke="black" d="M4204,-2510.25C4204,-2477.52 4204,-2404.7 4204,-2363.81"/>
<polygon fill="black" stroke="black" points="4207.5,-2363.97 4204,-2353.97 4200.5,-2363.97 4207.5,-2363.97"/>
</g>
<!-- OnFailure_B68487534BCFBEC9FC0EF1A6F9C790B6__0&#45;&gt;ExecuteUbergraph_Cheat_SetPromotionRank__10 -->
<g id="edge37" class="edge">
<title>OnFailure_B68487534BCFBEC9FC0EF1A6F9C790B6__0:e&#45;&gt;ExecuteUbergraph_Cheat_SetPromotionRank__10</title>
<path fill="none" stroke="red" d="M4601,-2333.5C4609.68,-2333.5 4605.9,-2320.36 4600,-2314 4578.53,-2290.83 4488.62,-2306.98 4459,-2296 4365.15,-2261.21 4362.88,-2211.7 4271,-2172 4200.04,-2141.34 4119.47,-2118.14 4044.84,-2100.95"/>
<polygon fill="none" stroke="red" points="4045.88,-2097.6 4035.35,-2098.79 4044.33,-2104.42 4045.88,-2097.6"/>
</g>
<!-- OnFailure_B68487534BCFBEC9FC0EF1A6F9C790B6__15 -->
<g id="node43" class="node">
<title>OnFailure_B68487534BCFBEC9FC0EF1A6F9C790B6__15</title>
<polygon fill="#eeeeee" stroke="black" points="4146,-2187.5 4146,-2225.5 4262,-2225.5 4262,-2187.5 4146,-2187.5"/>
<text text-anchor="start" x="4154" y="-2210.3" font-family="monospace" font-size="14.00">EX_Return</text>
<text text-anchor="start" x="4154" y="-2195.3" font-family="monospace" font-size="14.00">  EX_Nothing</text>
</g>
<!-- OnFailure_B68487534BCFBEC9FC0EF1A6F9C790B6__0&#45;&gt;OnFailure_B68487534BCFBEC9FC0EF1A6F9C790B6__15 -->
<g id="edge38" class="edge">
<title>OnFailure_B68487534BCFBEC9FC0EF1A6F9C790B6__0&#45;&gt;OnFailure_B68487534BCFBEC9FC0EF1A6F9C790B6__15</title>
<path fill="none" stroke="black" d="M4204,-2314.59C4204,-2294.26 4204,-2260.8 4204,-2236.69"/>
<polygon fill="black" stroke="black" points="4207.5,-2236.89 4204,-2226.89 4200.5,-2236.89 4207.5,-2236.89"/>
</g>
<!-- OnFailure_B68487534BCFBEC9FC0EF1A6F9C790B6__17 -->
<g id="node44" class="node">
<title>OnFailure_B68487534BCFBEC9FC0EF1A6F9C790B6__17</title>
<polygon fill="#eeeeee" stroke="black" points="3434,-1848.5 3434,-1884.5 3566,-1884.5 3566,-1848.5 3434,-1848.5"/>
<text text-anchor="start" x="3442" y="-1862.8" font-family="monospace" font-size="14.00">EX_EndOfScript</text>
</g>
</g>
</svg>
