<?xml version="1.0" encoding="UTF-8" standalone="no"?>
<!DOCTYPE svg PUBLIC "-//W3C//DTD SVG 1.1//EN"
 "http://www.w3.org/Graphics/SVG/1.1/DTD/svg11.dtd">
<!-- Generated by graphviz version 7.0.1 (0)
 -->
<!-- Pages: 1 -->
<svg width="2903pt" height="630pt"
 viewBox="0.00 0.00 2903.00 630.00" xmlns="http://www.w3.org/2000/svg" xmlns:xlink="http://www.w3.org/1999/xlink">
<g id="graph0" class="graph" transform="scale(1 1) rotate(0) translate(4 626)">
<polygon fill="white" stroke="none" points="-4,4 -4,-626 2899,-626 2899,4 -4,4"/>
<!-- Cheat_KillAll_C -->
<g id="node1" class="node">
<title>Cheat_KillAll_C</title>
<polygon fill="#88ff88" stroke="black" points="0,-508.5 0,-621.5 850,-621.5 850,-508.5 0,-508.5"/>
<text text-anchor="start" x="8" y="-606.3" font-family="monospace" font-size="14.00">ClassExport: Cheat_KillAll_C</text>
<text text-anchor="start" x="8" y="-591.3" font-family="monospace" font-size="14.00">  SuperStruct: import /Script/UMG&#45;&gt;UserWidget</text>
<text text-anchor="start" x="8" y="-576.3" font-family="monospace" font-size="14.00">  Properties:</text>
<text text-anchor="start" x="8" y="-561.3" font-family="monospace" font-size="14.00">    StructProperty UberGraphFrame</text>
<text text-anchor="start" x="8" y="-546.3" font-family="monospace" font-size="14.00">      CPF_Transient|CPF_DuplicateTransient</text>
<text text-anchor="start" x="8" y="-531.3" font-family="monospace" font-size="14.00">    ObjectProperty CheatMenu_BasicButtonWText</text>
<text text-anchor="start" x="8" y="-516.3" font-family="monospace" font-size="14.00">      CPF_BlueprintVisible|CPF_ExportObject|CPF_InstancedReference|CPF_RepSkip|CPF_PersistentInstance</text>
</g>
<!-- ExecuteUbergraph_Cheat_KillAll -->
<g id="node2" class="node">
<title>ExecuteUbergraph_Cheat_KillAll</title>
<polygon fill="#ff8888" stroke="black" points="868,-516 868,-614 1338,-614 1338,-516 868,-516"/>
<text text-anchor="start" x="876" y="-598.8" font-family="monospace" font-size="14.00">Function ExecuteUbergraph_Cheat_KillAll</text>
<text text-anchor="start" x="876" y="-583.8" font-family="monospace" font-size="14.00">  IntProperty EntryPoint</text>
<text text-anchor="start" x="876" y="-568.8" font-family="monospace" font-size="14.00">    CPF_BlueprintVisible|CPF_BlueprintReadOnly|CPF_Parm</text>
<text text-anchor="start" x="876" y="-553.8" font-family="monospace" font-size="14.00">  ObjectProperty K2Node_ComponentBoundEvent_Button</text>
<text text-anchor="start" x="876" y="-538.8" font-family="monospace" font-size="14.00">    CPF_InstancedReference</text>
<text text-anchor="start" x="876" y="-523.8" font-family="monospace" font-size="14.00">  ObjectProperty CallFunc_GetCheatManager_ReturnValue</text>
</g>
<!-- ExecuteUbergraph_Cheat_KillAll__0 -->
<g id="node3" class="node">
<title>ExecuteUbergraph_Cheat_KillAll__0</title>
<polygon fill="#eeeeee" stroke="black" points="967,-433.5 967,-471.5 1239,-471.5 1239,-433.5 967,-433.5"/>
<text text-anchor="start" x="975" y="-456.3" font-family="monospace" font-size="14.00">EX_ComputedJump</text>
<text text-anchor="start" x="975" y="-441.3" font-family="monospace" font-size="14.00">  EX_LocalVariable [EntryPoint]</text>
</g>
<!-- ExecuteUbergraph_Cheat_KillAll&#45;&gt;ExecuteUbergraph_Cheat_KillAll__0 -->
<g id="edge1" class="edge">
<title>ExecuteUbergraph_Cheat_KillAll&#45;&gt;ExecuteUbergraph_Cheat_KillAll__0</title>
<path fill="none" stroke="black" d="M1103,-516.18C1103,-504.77 1103,-492.94 1103,-482.67"/>
<polygon fill="black" stroke="black" points="1106.5,-482.96 1103,-472.96 1099.5,-482.96 1106.5,-482.96"/>
</g>
<!-- ExecuteUbergraph_Cheat_KillAll__10 -->
<g id="node4" class="node">
<title>ExecuteUbergraph_Cheat_KillAll__10</title>
<polygon fill="#eeeeee" stroke="black" points="2251,-253.5 2251,-321.5 2895,-321.5 2895,-253.5 2251,-253.5"/>
<text text-anchor="start" x="2259" y="-306.3" font-family="monospace" font-size="14.00">EX_LetObj</text>
<text text-anchor="start" x="2259" y="-291.3" font-family="monospace" font-size="14.00">  EX_LocalVariable [CallFunc_GetCheatManager_ReturnValue]</text>
<text text-anchor="start" x="2259" y="-276.3" font-family="monospace" font-size="14.00">  EX_CallMath import /Script/FSD&#45;&gt;FSDWidgetBlueprintLibrary&#45;&gt;GetCheatManager</text>
<text text-anchor="start" x="2259" y="-261.3" font-family="monospace" font-size="14.00">    EX_Self</text>
</g>
<!-- ExecuteUbergraph_Cheat_KillAll__31 -->
<g id="node5" class="node">
<title>ExecuteUbergraph_Cheat_KillAll__31</title>
<polygon fill="#eeeeee" stroke="black" points="2112.5,-148.5 2112.5,-216.5 2665.5,-216.5 2665.5,-148.5 2112.5,-148.5"/>
<text text-anchor="start" x="2120.5" y="-201.3" font-family="monospace" font-size="14.00">EX_Context</text>
<text text-anchor="start" x="2120.5" y="-186.3" font-family="monospace" font-size="14.00">  EX_LocalVariable [CallFunc_GetCheatManager_ReturnValue]</text>
<text text-anchor="start" x="2120.5" y="-171.3" font-family="monospace" font-size="14.00">  EX_FinalFunction import /Script/FSD&#45;&gt;FSDCheatManager&#45;&gt;C_KillAll</text>
<text text-anchor="start" x="2120.5" y="-156.3" font-family="monospace" font-size="14.00">  RValue = []</text>
</g>
<!-- ExecuteUbergraph_Cheat_KillAll__10&#45;&gt;ExecuteUbergraph_Cheat_KillAll__31 -->
<g id="edge2" class="edge">
<title>ExecuteUbergraph_Cheat_KillAll__10&#45;&gt;ExecuteUbergraph_Cheat_KillAll__31</title>
<path fill="none" stroke="black" d="M2514.28,-253.63C2496.27,-243.55 2476.29,-232.36 2457.68,-221.95"/>
<polygon fill="black" stroke="black" points="2459.55,-218.98 2449.12,-217.15 2456.13,-225.09 2459.55,-218.98"/>
</g>
<!-- ExecuteUbergraph_Cheat_KillAll__63 -->
<g id="node6" class="node">
<title>ExecuteUbergraph_Cheat_KillAll__63</title>
<polygon fill="#eeeeee" stroke="black" points="2042.5,-75.5 2042.5,-111.5 2141.5,-111.5 2141.5,-75.5 2042.5,-75.5"/>
<text text-anchor="start" x="2050.5" y="-89.8" font-family="monospace" font-size="14.00">EX_Jump 68</text>
</g>
<!-- ExecuteUbergraph_Cheat_KillAll__31&#45;&gt;ExecuteUbergraph_Cheat_KillAll__63 -->
<g id="edge3" class="edge">
<title>ExecuteUbergraph_Cheat_KillAll__31&#45;&gt;ExecuteUbergraph_Cheat_KillAll__63</title>
<path fill="none" stroke="black" d="M2275.78,-148.54C2239.14,-137.85 2198.1,-125.85 2152.09,-112.32"/>
<polygon fill="black" stroke="black" points="2153.28,-109.02 2142.7,-109.55 2151.31,-115.73 2153.28,-109.02"/>
</g>
<!-- ExecuteUbergraph_Cheat_KillAll__68 -->
<g id="node7" class="node">
<title>ExecuteUbergraph_Cheat_KillAll__68</title>
<polygon fill="#eeeeee" stroke="black" points="1882,-0.5 1882,-38.5 1998,-38.5 1998,-0.5 1882,-0.5"/>
<text text-anchor="start" x="1890" y="-23.3" font-family="monospace" font-size="14.00">EX_Return</text>
<text text-anchor="start" x="1890" y="-8.3" font-family="monospace" font-size="14.00">  EX_Nothing</text>
</g>
<!-- ExecuteUbergraph_Cheat_KillAll__63&#45;&gt;ExecuteUbergraph_Cheat_KillAll__68 -->
<g id="edge4" class="edge">
<title>ExecuteUbergraph_Cheat_KillAll__63&#45;&gt;ExecuteUbergraph_Cheat_KillAll__68</title>
<path fill="none" stroke="black" d="M2056.36,-75.62C2035.99,-65.97 2010.16,-53.73 1988.01,-43.24"/>
<polygon fill="black" stroke="black" points="1989.71,-40.17 1979.17,-39.05 1986.71,-46.5 1989.71,-40.17"/>
</g>
<!-- ExecuteUbergraph_Cheat_KillAll__70 -->
<g id="node8" class="node">
<title>ExecuteUbergraph_Cheat_KillAll__70</title>
<polygon fill="#eeeeee" stroke="black" points="2684,-164.5 2684,-200.5 2816,-200.5 2816,-164.5 2684,-164.5"/>
<text text-anchor="start" x="2692" y="-178.8" font-family="monospace" font-size="14.00">EX_EndOfScript</text>
</g>
<!-- BndEvt__CheatMenu_BasicButtonWText_K2Node_ComponentBoundEvent_0_OnClicked__DelegateSignature -->
<g id="node9" class="node">
<title>BndEvt__CheatMenu_BasicButtonWText_K2Node_ComponentBoundEvent_0_OnClicked__DelegateSignature</title>
<polygon fill="#ff8888" stroke="black" points="1826,-538.5 1826,-591.5 2676,-591.5 2676,-538.5 1826,-538.5"/>
<text text-anchor="start" x="1834" y="-576.3" font-family="monospace" font-size="14.00">Function BndEvt__CheatMenu_BasicButtonWText_K2Node_ComponentBoundEvent_0_OnClicked__DelegateSignature</text>
<text text-anchor="start" x="1834" y="-561.3" font-family="monospace" font-size="14.00">  ObjectProperty Button</text>
<text text-anchor="start" x="1834" y="-546.3" font-family="monospace" font-size="14.00">    CPF_BlueprintVisible|CPF_BlueprintReadOnly|CPF_Parm|CPF_InstancedReference</text>
</g>
<!-- BndEvt__CheatMenu_BasicButtonWText_K2Node_ComponentBoundEvent_0_OnClicked__DelegateSignature__0 -->
<g id="node10" class="node">
<title>BndEvt__CheatMenu_BasicButtonWText_K2Node_ComponentBoundEvent_0_OnClicked__DelegateSignature__0</title>
<polygon fill="#eeeeee" stroke="black" points="1978.5,-433.5 1978.5,-471.5 2523.5,-471.5 2523.5,-433.5 1978.5,-433.5"/>
<text text-anchor="start" x="1986.5" y="-456.3" font-family="monospace" font-size="14.00">EX_LetValueOnPersistentFrame [K2Node_ComponentBoundEvent_Button]</text>
<text text-anchor="start" x="1986.5" y="-441.3" font-family="monospace" font-size="14.00">  EX_LocalVariable [Button]</text>
</g>
<!-- BndEvt__CheatMenu_BasicButtonWText_K2Node_ComponentBoundEvent_0_OnClicked__DelegateSignature&#45;&gt;BndEvt__CheatMenu_BasicButtonWText_K2Node_ComponentBoundEvent_0_OnClicked__DelegateSignature__0 -->
<g id="edge5" class="edge">
<title>BndEvt__CheatMenu_BasicButtonWText_K2Node_ComponentBoundEvent_0_OnClicked__DelegateSignature&#45;&gt;BndEvt__CheatMenu_BasicButtonWText_K2Node_ComponentBoundEvent_0_OnClicked__DelegateSignature__0</title>
<path fill="none" stroke="black" d="M2251,-538.65C2251,-522.06 2251,-500.32 2251,-482.96"/>
<polygon fill="black" stroke="black" points="2254.5,-483.01 2251,-473.01 2247.5,-483.01 2254.5,-483.01"/>
</g>
<!-- BndEvt__CheatMenu_BasicButtonWText_K2Node_ComponentBoundEvent_0_OnClicked__DelegateSignature__18 -->
<g id="node11" class="node">
<title>BndEvt__CheatMenu_BasicButtonWText_K2Node_ComponentBoundEvent_0_OnClicked__DelegateSignature__18</title>
<polygon fill="#eeeeee" stroke="black" points="1929,-358.5 1929,-396.5 2573,-396.5 2573,-358.5 1929,-358.5"/>
<text text-anchor="start" x="1937" y="-381.3" font-family="monospace" font-size="14.00">EX_LocalFinalFunction export Cheat_KillAll_C&#45;&gt;ExecuteUbergraph_Cheat_KillAll</text>
<text text-anchor="start" x="1937" y="-366.3" font-family="monospace" font-size="14.00">  EX_IntConst 10</text>
</g>
<!-- BndEvt__CheatMenu_BasicButtonWText_K2Node_ComponentBoundEvent_0_OnClicked__DelegateSignature__0&#45;&gt;BndEvt__CheatMenu_BasicButtonWText_K2Node_ComponentBoundEvent_0_OnClicked__DelegateSignature__18 -->
<g id="edge6" class="edge">
<title>BndEvt__CheatMenu_BasicButtonWText_K2Node_ComponentBoundEvent_0_OnClicked__DelegateSignature__0&#45;&gt;BndEvt__CheatMenu_BasicButtonWText_K2Node_ComponentBoundEvent_0_OnClicked__DelegateSignature__18</title>
<path fill="none" stroke="black" d="M2251,-433.83C2251,-426 2251,-416.57 2251,-407.74"/>
<polygon fill="black" stroke="black" points="2254.5,-407.78 2251,-397.78 2247.5,-407.78 2254.5,-407.78"/>
</g>
<!-- BndEvt__CheatMenu_BasicButtonWText_K2Node_ComponentBoundEvent_0_OnClicked__DelegateSignature__18&#45;&gt;ExecuteUbergraph_Cheat_KillAll__10 -->
<g id="edge7" class="edge">
<title>BndEvt__CheatMenu_BasicButtonWText_K2Node_ComponentBoundEvent_0_OnClicked__DelegateSignature__18:e&#45;&gt;ExecuteUbergraph_Cheat_KillAll__10</title>
<path fill="none" stroke="red" d="M2574,-377.5C2593.99,-377.5 2593.52,-354.78 2588.17,-332.3"/>
<polygon fill="none" stroke="red" points="2591.6,-331.59 2585.61,-322.85 2584.85,-333.42 2591.6,-331.59"/>
</g>
<!-- BndEvt__CheatMenu_BasicButtonWText_K2Node_ComponentBoundEvent_0_OnClicked__DelegateSignature__33 -->
<g id="node12" class="node">
<title>BndEvt__CheatMenu_BasicButtonWText_K2Node_ComponentBoundEvent_0_OnClicked__DelegateSignature__33</title>
<polygon fill="#eeeeee" stroke="black" points="2117,-268.5 2117,-306.5 2233,-306.5 2233,-268.5 2117,-268.5"/>
<text text-anchor="start" x="2125" y="-291.3" font-family="monospace" font-size="14.00">EX_Return</text>
<text text-anchor="start" x="2125" y="-276.3" font-family="monospace" font-size="14.00">  EX_Nothing</text>
</g>
<!-- BndEvt__CheatMenu_BasicButtonWText_K2Node_ComponentBoundEvent_0_OnClicked__DelegateSignature__18&#45;&gt;BndEvt__CheatMenu_BasicButtonWText_K2Node_ComponentBoundEvent_0_OnClicked__DelegateSignature__33 -->
<g id="edge8" class="edge">
<title>BndEvt__CheatMenu_BasicButtonWText_K2Node_ComponentBoundEvent_0_OnClicked__DelegateSignature__18&#45;&gt;BndEvt__CheatMenu_BasicButtonWText_K2Node_ComponentBoundEvent_0_OnClicked__DelegateSignature__33</title>
<path fill="none" stroke="black" d="M2235.62,-358.69C2224.7,-346.05 2209.86,-328.87 2197.6,-314.67"/>
<polygon fill="black" stroke="black" points="2200.53,-312.71 2191.35,-307.43 2195.23,-317.28 2200.53,-312.71"/>
</g>
<!-- BndEvt__CheatMenu_BasicButtonWText_K2Node_ComponentBoundEvent_0_OnClicked__DelegateSignature__35 -->
<g id="node13" class="node">
<title>BndEvt__CheatMenu_BasicButtonWText_K2Node_ComponentBoundEvent_0_OnClicked__DelegateSignature__35</title>
<polygon fill="#eeeeee" stroke="black" points="2160,-75.5 2160,-111.5 2292,-111.5 2292,-75.5 2160,-75.5"/>
<text text-anchor="start" x="2168" y="-89.8" font-family="monospace" font-size="14.00">EX_EndOfScript</text>
</g>
<!-- Construct -->
<g id="node14" class="node">
<title>Construct</title>
<polygon fill="#ff8888" stroke="black" points="1496.5,-547 1496.5,-583 1661.5,-583 1661.5,-547 1496.5,-547"/>
<text text-anchor="start" x="1504.5" y="-561.3" font-family="monospace" font-size="14.00">Function Construct</text>
</g>
<!-- Construct__0 -->
<g id="node15" class="node">
<title>Construct__0</title>
<polygon fill="#eeeeee" stroke="black" points="1257,-433.5 1257,-471.5 1901,-471.5 1901,-433.5 1257,-433.5"/>
<text text-anchor="start" x="1265" y="-456.3" font-family="monospace" font-size="14.00">EX_LocalFinalFunction export Cheat_KillAll_C&#45;&gt;ExecuteUbergraph_Cheat_KillAll</text>
<text text-anchor="start" x="1265" y="-441.3" font-family="monospace" font-size="14.00">  EX_IntConst 68</text>
</g>
<!-- Construct&#45;&gt;Construct__0 -->
<g id="edge9" class="edge">
<title>Construct&#45;&gt;Construct__0</title>
<path fill="none" stroke="black" d="M1579,-547.22C1579,-530.06 1579,-503.07 1579,-482.45"/>
<polygon fill="black" stroke="black" points="1582.5,-482.69 1579,-472.69 1575.5,-482.69 1582.5,-482.69"/>
</g>
<!-- Construct__0&#45;&gt;ExecuteUbergraph_Cheat_KillAll__68 -->
<g id="edge10" class="edge">
<title>Construct__0:e&#45;&gt;ExecuteUbergraph_Cheat_KillAll__68</title>
<path fill="none" stroke="red" d="M1902,-452.5C1938.45,-452.5 1901,-324.95 1901,-288.5 1901,-288.5 1901,-288.5 1901,-181.5 1901,-133.86 1917.33,-80.46 1928.86,-48.7"/>
<polygon fill="none" stroke="red" points="1932.09,-50.04 1932.32,-39.45 1925.54,-47.59 1932.09,-50.04"/>
</g>
<!-- Construct__15 -->
<g id="node16" class="node">
<title>Construct__15</title>
<polygon fill="#eeeeee" stroke="black" points="1521,-358.5 1521,-396.5 1637,-396.5 1637,-358.5 1521,-358.5"/>
<text text-anchor="start" x="1529" y="-381.3" font-family="monospace" font-size="14.00">EX_Return</text>
<text text-anchor="start" x="1529" y="-366.3" font-family="monospace" font-size="14.00">  EX_Nothing</text>
</g>
<!-- Construct__0&#45;&gt;Construct__15 -->
<g id="edge11" class="edge">
<title>Construct__0&#45;&gt;Construct__15</title>
<path fill="none" stroke="black" d="M1579,-433.83C1579,-426 1579,-416.57 1579,-407.74"/>
<polygon fill="black" stroke="black" points="1582.5,-407.78 1579,-397.78 1575.5,-407.78 1582.5,-407.78"/>
</g>
<!-- Construct__17 -->
<g id="node17" class="node">
<title>Construct__17</title>
<polygon fill="#eeeeee" stroke="black" points="2016,-1.5 2016,-37.5 2148,-37.5 2148,-1.5 2016,-1.5"/>
<text text-anchor="start" x="2024" y="-15.8" font-family="monospace" font-size="14.00">EX_EndOfScript</text>
</g>
</g>
</svg>
