<?xml version="1.0" encoding="UTF-8" standalone="no"?>
<!DOCTYPE svg PUBLIC "-//W3C//DTD SVG 1.1//EN"
 "http://www.w3.org/Graphics/SVG/1.1/DTD/svg11.dtd">
<!-- Generated by graphviz version 7.0.1 (0)
 -->
<!-- Pages: 1 -->
<svg width="3507pt" height="2078pt"
 viewBox="0.00 0.00 3506.50 2078.00" xmlns="http://www.w3.org/2000/svg" xmlns:xlink="http://www.w3.org/1999/xlink">
<g id="graph0" class="graph" transform="scale(1 1) rotate(0) translate(4 2074)">
<polygon fill="white" stroke="none" points="-4,4 -4,-2074 3502.5,-2074 3502.5,4 -4,4"/>
<!-- Cheat_DestroyMolly_C -->
<g id="node1" class="node">
<title>Cheat_DestroyMolly_C</title>
<polygon fill="#88ff88" stroke="black" points="0,-1889 0,-2062 899,-2062 899,-1889 0,-1889"/>
<text text-anchor="start" x="8" y="-2046.8" font-family="monospace" font-size="14.00">ClassExport: Cheat_DestroyMolly_C</text>
<text text-anchor="start" x="8" y="-2031.8" font-family="monospace" font-size="14.00">  SuperStruct: import /Script/UMG&#45;&gt;UserWidget</text>
<text text-anchor="start" x="8" y="-2016.8" font-family="monospace" font-size="14.00">  Properties:</text>
<text text-anchor="start" x="8" y="-2001.8" font-family="monospace" font-size="14.00">    StructProperty UberGraphFrame</text>
<text text-anchor="start" x="8" y="-1986.8" font-family="monospace" font-size="14.00">      CPF_Transient|CPF_DuplicateTransient</text>
<text text-anchor="start" x="8" y="-1971.8" font-family="monospace" font-size="14.00">    ObjectProperty Button_0</text>
<text text-anchor="start" x="8" y="-1956.8" font-family="monospace" font-size="14.00">      CPF_BlueprintVisible|CPF_ExportObject|CPF_InstancedReference|CPF_RepSkip|CPF_PersistentInstance</text>
<text text-anchor="start" x="8" y="-1941.8" font-family="monospace" font-size="14.00">    ObjectProperty Label</text>
<text text-anchor="start" x="8" y="-1926.8" font-family="monospace" font-size="14.00">      CPF_BlueprintVisible|CPF_ExportObject|CPF_InstancedReference|CPF_RepSkip|CPF_PersistentInstance</text>
<text text-anchor="start" x="8" y="-1911.8" font-family="monospace" font-size="14.00">    MulticastInlineDelegateProperty Bosco spawn requested</text>
<text text-anchor="start" x="8" y="-1896.8" font-family="monospace" font-size="14.00">      CPF_Edit|CPF_BlueprintVisible|CPF_DisableEditOnInstance|CPF_BlueprintAssignable|CPF_BlueprintCallable</text>
</g>
<!-- Bosco spawn requested__DelegateSignature -->
<g id="node2" class="node">
<title>Bosco spawn requested__DelegateSignature</title>
<polygon fill="#ff8888" stroke="black" points="917,-1957.5 917,-1993.5 1338,-1993.5 1338,-1957.5 917,-1957.5"/>
<text text-anchor="start" x="925" y="-1971.8" font-family="monospace" font-size="14.00">Function Bosco spawn requested__DelegateSignature</text>
</g>
<!-- Bosco spawn requested__DelegateSignature__0 -->
<g id="node3" class="node">
<title>Bosco spawn requested__DelegateSignature__0</title>
<polygon fill="#eeeeee" stroke="black" points="1069.5,-1769.5 1069.5,-1807.5 1185.5,-1807.5 1185.5,-1769.5 1069.5,-1769.5"/>
<text text-anchor="start" x="1077.5" y="-1792.3" font-family="monospace" font-size="14.00">EX_Return</text>
<text text-anchor="start" x="1077.5" y="-1777.3" font-family="monospace" font-size="14.00">  EX_Nothing</text>
</g>
<!-- Bosco spawn requested__DelegateSignature&#45;&gt;Bosco spawn requested__DelegateSignature__0 -->
<g id="edge1" class="edge">
<title>Bosco spawn requested__DelegateSignature&#45;&gt;Bosco spawn requested__DelegateSignature__0</title>
<path fill="none" stroke="black" d="M1127.5,-1957.76C1127.5,-1926.31 1127.5,-1858.05 1127.5,-1818.82"/>
<polygon fill="black" stroke="black" points="1131,-1818.94 1127.5,-1808.94 1124,-1818.94 1131,-1818.94"/>
</g>
<!-- Bosco spawn requested__DelegateSignature__2 -->
<g id="node4" class="node">
<title>Bosco spawn requested__DelegateSignature__2</title>
<polygon fill="#eeeeee" stroke="black" points="1293.5,-1826.5 1293.5,-1862.5 1425.5,-1862.5 1425.5,-1826.5 1293.5,-1826.5"/>
<text text-anchor="start" x="1301.5" y="-1840.8" font-family="monospace" font-size="14.00">EX_EndOfScript</text>
</g>
<!-- ExecuteUbergraph_Cheat_DestroyMolly -->
<g id="node5" class="node">
<title>ExecuteUbergraph_Cheat_DestroyMolly</title>
<polygon fill="#ff8888" stroke="black" points="1356.5,-1881.5 1356.5,-2069.5 1826.5,-2069.5 1826.5,-1881.5 1356.5,-1881.5"/>
<text text-anchor="start" x="1364.5" y="-2054.3" font-family="monospace" font-size="14.00">Function ExecuteUbergraph_Cheat_DestroyMolly</text>
<text text-anchor="start" x="1364.5" y="-2039.3" font-family="monospace" font-size="14.00">  IntProperty EntryPoint</text>
<text text-anchor="start" x="1364.5" y="-2024.3" font-family="monospace" font-size="14.00">    CPF_BlueprintVisible|CPF_BlueprintReadOnly|CPF_Parm</text>
<text text-anchor="start" x="1364.5" y="-2009.3" font-family="monospace" font-size="14.00">  ArrayProperty CallFunc_GetAllActorsOfClass_OutActors</text>
<text text-anchor="start" x="1364.5" y="-1994.3" font-family="monospace" font-size="14.00">    CPF_ReferenceParm</text>
<text text-anchor="start" x="1364.5" y="-1979.3" font-family="monospace" font-size="14.00">  IntProperty CallFunc_Array_Length_ReturnValue</text>
<text text-anchor="start" x="1364.5" y="-1964.3" font-family="monospace" font-size="14.00">  IntProperty Temp_int_Array_Index_Variable</text>
<text text-anchor="start" x="1364.5" y="-1949.3" font-family="monospace" font-size="14.00">  IntProperty Temp_int_Loop_Counter_Variable</text>
<text text-anchor="start" x="1364.5" y="-1934.3" font-family="monospace" font-size="14.00">  ObjectProperty CallFunc_Array_Get_Item</text>
<text text-anchor="start" x="1364.5" y="-1919.3" font-family="monospace" font-size="14.00">  BoolProperty CallFunc_HasAuthority_ReturnValue</text>
<text text-anchor="start" x="1364.5" y="-1904.3" font-family="monospace" font-size="14.00">  BoolProperty CallFunc_Less_IntInt_ReturnValue</text>
<text text-anchor="start" x="1364.5" y="-1889.3" font-family="monospace" font-size="14.00">  IntProperty CallFunc_Add_IntInt_ReturnValue</text>
</g>
<!-- ExecuteUbergraph_Cheat_DestroyMolly__0 -->
<g id="node6" class="node">
<title>ExecuteUbergraph_Cheat_DestroyMolly__0</title>
<polygon fill="#eeeeee" stroke="black" points="1484,-1770.5 1484,-1806.5 1699,-1806.5 1699,-1770.5 1484,-1770.5"/>
<text text-anchor="start" x="1492" y="-1784.8" font-family="monospace" font-size="14.00">EX_PushExecutionFlow 527</text>
</g>
<!-- ExecuteUbergraph_Cheat_DestroyMolly&#45;&gt;ExecuteUbergraph_Cheat_DestroyMolly__0 -->
<g id="edge2" class="edge">
<title>ExecuteUbergraph_Cheat_DestroyMolly&#45;&gt;ExecuteUbergraph_Cheat_DestroyMolly__0</title>
<path fill="none" stroke="black" d="M1591.5,-1881.73C1591.5,-1858.37 1591.5,-1835.03 1591.5,-1817.68"/>
<polygon fill="black" stroke="black" points="1595,-1817.7 1591.5,-1807.7 1588,-1817.7 1595,-1817.7"/>
</g>
<!-- ExecuteUbergraph_Cheat_DestroyMolly__5 -->
<g id="node7" class="node">
<title>ExecuteUbergraph_Cheat_DestroyMolly__5</title>
<polygon fill="#eeeeee" stroke="black" points="1403.5,-1657.5 1403.5,-1695.5 1675.5,-1695.5 1675.5,-1657.5 1403.5,-1657.5"/>
<text text-anchor="start" x="1411.5" y="-1680.3" font-family="monospace" font-size="14.00">EX_ComputedJump</text>
<text text-anchor="start" x="1411.5" y="-1665.3" font-family="monospace" font-size="14.00">  EX_LocalVariable [EntryPoint]</text>
</g>
<!-- ExecuteUbergraph_Cheat_DestroyMolly__0&#45;&gt;ExecuteUbergraph_Cheat_DestroyMolly__5 -->
<g id="edge4" class="edge">
<title>ExecuteUbergraph_Cheat_DestroyMolly__0&#45;&gt;ExecuteUbergraph_Cheat_DestroyMolly__5</title>
<path fill="none" stroke="black" d="M1583.6,-1770.79C1575.46,-1753.57 1562.62,-1726.41 1552.89,-1705.83"/>
<polygon fill="black" stroke="black" points="1556.08,-1704.38 1548.64,-1696.83 1549.75,-1707.37 1556.08,-1704.38"/>
</g>
<!-- ExecuteUbergraph_Cheat_DestroyMolly__527 -->
<g id="node28" class="node">
<title>ExecuteUbergraph_Cheat_DestroyMolly__527</title>
<polygon fill="#eeeeee" stroke="black" points="1693.5,-1657.5 1693.5,-1695.5 1809.5,-1695.5 1809.5,-1657.5 1693.5,-1657.5"/>
<text text-anchor="start" x="1701.5" y="-1680.3" font-family="monospace" font-size="14.00">EX_Return</text>
<text text-anchor="start" x="1701.5" y="-1665.3" font-family="monospace" font-size="14.00">  EX_Nothing</text>
</g>
<!-- ExecuteUbergraph_Cheat_DestroyMolly__0&#45;&gt;ExecuteUbergraph_Cheat_DestroyMolly__527 -->
<g id="edge3" class="edge">
<title>ExecuteUbergraph_Cheat_DestroyMolly__0:e&#45;&gt;ExecuteUbergraph_Cheat_DestroyMolly__527</title>
<path fill="none" stroke="red" d="M1700.5,-1788.5C1736.58,-1788.5 1747.23,-1739.49 1750.31,-1706.6"/>
<polygon fill="none" stroke="red" points="1753.79,-1707.07 1751.03,-1696.84 1746.81,-1706.56 1753.79,-1707.07"/>
<text text-anchor="middle" x="1791" y="-1728.8" font-family="monospace" font-size="14.00">PUSH STACK</text>
</g>
<!-- ExecuteUbergraph_Cheat_DestroyMolly__15 -->
<g id="node8" class="node">
<title>ExecuteUbergraph_Cheat_DestroyMolly__15</title>
<polygon fill="#eeeeee" stroke="black" points="2356,-1545.5 2356,-1583.5 2859,-1583.5 2859,-1545.5 2356,-1545.5"/>
<text text-anchor="start" x="2364" y="-1568.3" font-family="monospace" font-size="14.00">EX_SetArray</text>
<text text-anchor="start" x="2364" y="-1553.3" font-family="monospace" font-size="14.00">  EX_LocalVariable [CallFunc_GetAllActorsOfClass_OutActors]</text>
</g>
<!-- ExecuteUbergraph_Cheat_DestroyMolly__26 -->
<g id="node9" class="node">
<title>ExecuteUbergraph_Cheat_DestroyMolly__26</title>
<polygon fill="#eeeeee" stroke="black" points="2306.5,-1403.5 2306.5,-1471.5 2908.5,-1471.5 2908.5,-1403.5 2306.5,-1403.5"/>
<text text-anchor="start" x="2314.5" y="-1456.3" font-family="monospace" font-size="14.00">EX_CallMath import /Script/Engine&#45;&gt;GameplayStatics&#45;&gt;GetAllActorsOfClass</text>
<text text-anchor="start" x="2314.5" y="-1441.3" font-family="monospace" font-size="14.00">  EX_Self</text>
<text text-anchor="start" x="2314.5" y="-1426.3" font-family="monospace" font-size="14.00">  EX_ObjectConst import /Script/FSD&#45;&gt;Molly</text>
<text text-anchor="start" x="2314.5" y="-1411.3" font-family="monospace" font-size="14.00">  EX_LocalVariable [CallFunc_GetAllActorsOfClass_OutActors]</text>
</g>
<!-- ExecuteUbergraph_Cheat_DestroyMolly__15&#45;&gt;ExecuteUbergraph_Cheat_DestroyMolly__26 -->
<g id="edge5" class="edge">
<title>ExecuteUbergraph_Cheat_DestroyMolly__15&#45;&gt;ExecuteUbergraph_Cheat_DestroyMolly__26</title>
<path fill="none" stroke="black" d="M2607.5,-1545.59C2607.5,-1529.22 2607.5,-1504.35 2607.5,-1482.69"/>
<polygon fill="black" stroke="black" points="2611,-1482.9 2607.5,-1472.9 2604,-1482.9 2611,-1482.9"/>
</g>
<!-- ExecuteUbergraph_Cheat_DestroyMolly__55 -->
<g id="node10" class="node">
<title>ExecuteUbergraph_Cheat_DestroyMolly__55</title>
<polygon fill="#eeeeee" stroke="black" points="2389,-1312.5 2389,-1365.5 2826,-1365.5 2826,-1312.5 2389,-1312.5"/>
<text text-anchor="start" x="2397" y="-1350.3" font-family="monospace" font-size="14.00">EX_Let</text>
<text text-anchor="start" x="2397" y="-1335.3" font-family="monospace" font-size="14.00">  EX_LocalVariable [Temp_int_Loop_Counter_Variable]</text>
<text text-anchor="start" x="2397" y="-1320.3" font-family="monospace" font-size="14.00">  EX_IntConst 0</text>
</g>
<!-- ExecuteUbergraph_Cheat_DestroyMolly__26&#45;&gt;ExecuteUbergraph_Cheat_DestroyMolly__55 -->
<g id="edge6" class="edge">
<title>ExecuteUbergraph_Cheat_DestroyMolly__26&#45;&gt;ExecuteUbergraph_Cheat_DestroyMolly__55</title>
<path fill="none" stroke="black" d="M2607.5,-1403.56C2607.5,-1395 2607.5,-1385.73 2607.5,-1376.97"/>
<polygon fill="black" stroke="black" points="2611,-1377 2607.5,-1367 2604,-1377 2611,-1377"/>
</g>
<!-- ExecuteUbergraph_Cheat_DestroyMolly__78 -->
<g id="node11" class="node">
<title>ExecuteUbergraph_Cheat_DestroyMolly__78</title>
<polygon fill="#eeeeee" stroke="black" points="2393,-1221.5 2393,-1274.5 2822,-1274.5 2822,-1221.5 2393,-1221.5"/>
<text text-anchor="start" x="2401" y="-1259.3" font-family="monospace" font-size="14.00">EX_Let</text>
<text text-anchor="start" x="2401" y="-1244.3" font-family="monospace" font-size="14.00">  EX_LocalVariable [Temp_int_Array_Index_Variable]</text>
<text text-anchor="start" x="2401" y="-1229.3" font-family="monospace" font-size="14.00">  EX_IntConst 0</text>
</g>
<!-- ExecuteUbergraph_Cheat_DestroyMolly__55&#45;&gt;ExecuteUbergraph_Cheat_DestroyMolly__78 -->
<g id="edge7" class="edge">
<title>ExecuteUbergraph_Cheat_DestroyMolly__55&#45;&gt;ExecuteUbergraph_Cheat_DestroyMolly__78</title>
<path fill="none" stroke="black" d="M2607.5,-1312.73C2607.5,-1304.37 2607.5,-1294.89 2607.5,-1285.84"/>
<polygon fill="black" stroke="black" points="2611,-1285.84 2607.5,-1275.84 2604,-1285.84 2611,-1285.84"/>
</g>
<!-- ExecuteUbergraph_Cheat_DestroyMolly__101 -->
<g id="node12" class="node">
<title>ExecuteUbergraph_Cheat_DestroyMolly__101</title>
<polygon fill="#eeeeee" stroke="black" points="2285.5,-1070.5 2285.5,-1183.5 2929.5,-1183.5 2929.5,-1070.5 2285.5,-1070.5"/>
<text text-anchor="start" x="2293.5" y="-1168.3" font-family="monospace" font-size="14.00">EX_Let</text>
<text text-anchor="start" x="2293.5" y="-1153.3" font-family="monospace" font-size="14.00">  EX_LocalVariable [CallFunc_Array_Length_ReturnValue]</text>
<text text-anchor="start" x="2293.5" y="-1138.3" font-family="monospace" font-size="14.00">  EX_Context</text>
<text text-anchor="start" x="2293.5" y="-1123.3" font-family="monospace" font-size="14.00">    EX_ObjectConst import /Script/Engine&#45;&gt;Default__KismetArrayLibrary</text>
<text text-anchor="start" x="2293.5" y="-1108.3" font-family="monospace" font-size="14.00">    EX_FinalFunction import /Script/Engine&#45;&gt;KismetArrayLibrary&#45;&gt;Array_Length</text>
<text text-anchor="start" x="2293.5" y="-1093.3" font-family="monospace" font-size="14.00">      EX_LocalVariable [CallFunc_GetAllActorsOfClass_OutActors]</text>
<text text-anchor="start" x="2293.5" y="-1078.3" font-family="monospace" font-size="14.00">    RValue = [CallFunc_Array_Length_ReturnValue]</text>
</g>
<!-- ExecuteUbergraph_Cheat_DestroyMolly__78&#45;&gt;ExecuteUbergraph_Cheat_DestroyMolly__101 -->
<g id="edge8" class="edge">
<title>ExecuteUbergraph_Cheat_DestroyMolly__78&#45;&gt;ExecuteUbergraph_Cheat_DestroyMolly__101</title>
<path fill="none" stroke="black" d="M2607.5,-1221.76C2607.5,-1213.62 2607.5,-1204.19 2607.5,-1194.5"/>
<polygon fill="black" stroke="black" points="2611,-1194.58 2607.5,-1184.58 2604,-1194.58 2611,-1194.58"/>
</g>
<!-- ExecuteUbergraph_Cheat_DestroyMolly__160 -->
<g id="node13" class="node">
<title>ExecuteUbergraph_Cheat_DestroyMolly__160</title>
<polygon fill="#eeeeee" stroke="black" points="2011,-949.5 2011,-1032.5 2580,-1032.5 2580,-949.5 2011,-949.5"/>
<text text-anchor="start" x="2019" y="-1017.3" font-family="monospace" font-size="14.00">EX_LetBool</text>
<text text-anchor="start" x="2019" y="-1002.3" font-family="monospace" font-size="14.00">  EX_LocalVariable [CallFunc_Less_IntInt_ReturnValue]</text>
<text text-anchor="start" x="2019" y="-987.3" font-family="monospace" font-size="14.00">  EX_CallMath import /Script/Engine&#45;&gt;KismetMathLibrary&#45;&gt;Less_IntInt</text>
<text text-anchor="start" x="2019" y="-972.3" font-family="monospace" font-size="14.00">    EX_LocalVariable [Temp_int_Loop_Counter_Variable]</text>
<text text-anchor="start" x="2019" y="-957.3" font-family="monospace" font-size="14.00">    EX_LocalVariable [CallFunc_Array_Length_ReturnValue]</text>
</g>
<!-- ExecuteUbergraph_Cheat_DestroyMolly__101&#45;&gt;ExecuteUbergraph_Cheat_DestroyMolly__160 -->
<g id="edge9" class="edge">
<title>ExecuteUbergraph_Cheat_DestroyMolly__101&#45;&gt;ExecuteUbergraph_Cheat_DestroyMolly__160</title>
<path fill="none" stroke="black" d="M2478.35,-1070.53C2452.27,-1059.33 2425.15,-1047.68 2400.05,-1036.9"/>
<polygon fill="black" stroke="black" points="2401.75,-1033.82 2391.18,-1033.09 2398.99,-1040.26 2401.75,-1033.82"/>
</g>
<!-- ExecuteUbergraph_Cheat_DestroyMolly__198 -->
<g id="node14" class="node">
<title>ExecuteUbergraph_Cheat_DestroyMolly__198</title>
<polygon fill="#eeeeee" stroke="black" points="1990.5,-873.5 1990.5,-911.5 2444.5,-911.5 2444.5,-873.5 1990.5,-873.5"/>
<text text-anchor="start" x="1998.5" y="-896.3" font-family="monospace" font-size="14.00">EX_PopExecutionFlowIfNot</text>
<text text-anchor="start" x="1998.5" y="-881.3" font-family="monospace" font-size="14.00">  EX_LocalVariable [CallFunc_Less_IntInt_ReturnValue]</text>
</g>
<!-- ExecuteUbergraph_Cheat_DestroyMolly__160&#45;&gt;ExecuteUbergraph_Cheat_DestroyMolly__198 -->
<g id="edge10" class="edge">
<title>ExecuteUbergraph_Cheat_DestroyMolly__160&#45;&gt;ExecuteUbergraph_Cheat_DestroyMolly__198</title>
<path fill="none" stroke="black" d="M2262.87,-949.63C2254.73,-939.56 2246.21,-929.02 2238.78,-919.83"/>
<polygon fill="black" stroke="black" points="2241.73,-917.9 2232.72,-912.33 2236.28,-922.3 2241.73,-917.9"/>
</g>
<!-- ExecuteUbergraph_Cheat_DestroyMolly__208 -->
<g id="node15" class="node">
<title>ExecuteUbergraph_Cheat_DestroyMolly__208</title>
<polygon fill="#eeeeee" stroke="black" points="1980,-782.5 1980,-835.5 2417,-835.5 2417,-782.5 1980,-782.5"/>
<text text-anchor="start" x="1988" y="-820.3" font-family="monospace" font-size="14.00">EX_Let</text>
<text text-anchor="start" x="1988" y="-805.3" font-family="monospace" font-size="14.00">  EX_LocalVariable [Temp_int_Array_Index_Variable]</text>
<text text-anchor="start" x="1988" y="-790.3" font-family="monospace" font-size="14.00">  EX_LocalVariable [Temp_int_Loop_Counter_Variable]</text>
</g>
<!-- ExecuteUbergraph_Cheat_DestroyMolly__198&#45;&gt;ExecuteUbergraph_Cheat_DestroyMolly__208 -->
<g id="edge11" class="edge">
<title>ExecuteUbergraph_Cheat_DestroyMolly__198&#45;&gt;ExecuteUbergraph_Cheat_DestroyMolly__208</title>
<path fill="none" stroke="black" d="M2213.38,-873.82C2211.49,-865.74 2209.19,-855.86 2206.97,-846.31"/>
<polygon fill="black" stroke="black" points="2210.44,-845.8 2204.76,-836.86 2203.62,-847.39 2210.44,-845.8"/>
</g>
<!-- ExecuteUbergraph_Cheat_DestroyMolly__235 -->
<g id="node16" class="node">
<title>ExecuteUbergraph_Cheat_DestroyMolly__235</title>
<polygon fill="#eeeeee" stroke="black" points="2086,-708.5 2086,-744.5 2301,-744.5 2301,-708.5 2086,-708.5"/>
<text text-anchor="start" x="2094" y="-722.8" font-family="monospace" font-size="14.00">EX_PushExecutionFlow 447</text>
</g>
<!-- ExecuteUbergraph_Cheat_DestroyMolly__208&#45;&gt;ExecuteUbergraph_Cheat_DestroyMolly__235 -->
<g id="edge12" class="edge">
<title>ExecuteUbergraph_Cheat_DestroyMolly__208&#45;&gt;ExecuteUbergraph_Cheat_DestroyMolly__235</title>
<path fill="none" stroke="black" d="M2196.92,-782.53C2196.38,-773.92 2195.78,-764.25 2195.24,-755.46"/>
<polygon fill="black" stroke="black" points="2198.74,-755.45 2194.63,-745.69 2191.76,-755.89 2198.74,-755.45"/>
</g>
<!-- ExecuteUbergraph_Cheat_DestroyMolly__240 -->
<g id="node17" class="node">
<title>ExecuteUbergraph_Cheat_DestroyMolly__240</title>
<polygon fill="#eeeeee" stroke="black" points="1400.5,-543.5 1400.5,-656.5 2002.5,-656.5 2002.5,-543.5 1400.5,-543.5"/>
<text text-anchor="start" x="1408.5" y="-641.3" font-family="monospace" font-size="14.00">EX_Context</text>
<text text-anchor="start" x="1408.5" y="-626.3" font-family="monospace" font-size="14.00">  EX_ObjectConst import /Script/Engine&#45;&gt;Default__KismetArrayLibrary</text>
<text text-anchor="start" x="1408.5" y="-611.3" font-family="monospace" font-size="14.00">  EX_FinalFunction import /Script/Engine&#45;&gt;KismetArrayLibrary&#45;&gt;Array_Get</text>
<text text-anchor="start" x="1408.5" y="-596.3" font-family="monospace" font-size="14.00">    EX_LocalVariable [CallFunc_GetAllActorsOfClass_OutActors]</text>
<text text-anchor="start" x="1408.5" y="-581.3" font-family="monospace" font-size="14.00">    EX_LocalVariable [Temp_int_Array_Index_Variable]</text>
<text text-anchor="start" x="1408.5" y="-566.3" font-family="monospace" font-size="14.00">    EX_LocalVariable [CallFunc_Array_Get_Item]</text>
<text text-anchor="start" x="1408.5" y="-551.3" font-family="monospace" font-size="14.00">  RValue = []</text>
</g>
<!-- ExecuteUbergraph_Cheat_DestroyMolly__235&#45;&gt;ExecuteUbergraph_Cheat_DestroyMolly__240 -->
<g id="edge14" class="edge">
<title>ExecuteUbergraph_Cheat_DestroyMolly__235&#45;&gt;ExecuteUbergraph_Cheat_DestroyMolly__240</title>
<path fill="none" stroke="black" d="M2126.38,-708.51C2075.6,-695.67 2002.7,-677.22 1931.58,-659.22"/>
<polygon fill="black" stroke="black" points="1932.66,-655.88 1922.11,-656.82 1930.94,-662.67 1932.66,-655.88"/>
</g>
<!-- ExecuteUbergraph_Cheat_DestroyMolly__447 -->
<g id="node23" class="node">
<title>ExecuteUbergraph_Cheat_DestroyMolly__447</title>
<polygon fill="#eeeeee" stroke="black" points="2021,-558.5 2021,-641.5 2582,-641.5 2582,-558.5 2021,-558.5"/>
<text text-anchor="start" x="2029" y="-626.3" font-family="monospace" font-size="14.00">EX_Let</text>
<text text-anchor="start" x="2029" y="-611.3" font-family="monospace" font-size="14.00">  EX_LocalVariable [CallFunc_Add_IntInt_ReturnValue]</text>
<text text-anchor="start" x="2029" y="-596.3" font-family="monospace" font-size="14.00">  EX_CallMath import /Script/Engine&#45;&gt;KismetMathLibrary&#45;&gt;Add_IntInt</text>
<text text-anchor="start" x="2029" y="-581.3" font-family="monospace" font-size="14.00">    EX_LocalVariable [Temp_int_Loop_Counter_Variable]</text>
<text text-anchor="start" x="2029" y="-566.3" font-family="monospace" font-size="14.00">    EX_IntConst 1</text>
</g>
<!-- ExecuteUbergraph_Cheat_DestroyMolly__235&#45;&gt;ExecuteUbergraph_Cheat_DestroyMolly__447 -->
<g id="edge13" class="edge">
<title>ExecuteUbergraph_Cheat_DestroyMolly__235:e&#45;&gt;ExecuteUbergraph_Cheat_DestroyMolly__447</title>
<path fill="none" stroke="red" d="M2302.5,-726.5C2333.76,-726.5 2329.67,-687.08 2320.03,-652.43"/>
<polygon fill="none" stroke="red" points="2323.39,-651.43 2317.18,-642.85 2316.68,-653.43 2323.39,-651.43"/>
<text text-anchor="middle" x="2369" y="-678.8" font-family="monospace" font-size="14.00">PUSH STACK</text>
</g>
<!-- ExecuteUbergraph_Cheat_DestroyMolly__299 -->
<g id="node18" class="node">
<title>ExecuteUbergraph_Cheat_DestroyMolly__299</title>
<polygon fill="#eeeeee" stroke="black" points="1433.5,-407.5 1433.5,-505.5 1969.5,-505.5 1969.5,-407.5 1433.5,-407.5"/>
<text text-anchor="start" x="1441.5" y="-490.3" font-family="monospace" font-size="14.00">EX_LetBool</text>
<text text-anchor="start" x="1441.5" y="-475.3" font-family="monospace" font-size="14.00">  EX_LocalVariable [CallFunc_HasAuthority_ReturnValue]</text>
<text text-anchor="start" x="1441.5" y="-460.3" font-family="monospace" font-size="14.00">  EX_Context</text>
<text text-anchor="start" x="1441.5" y="-445.3" font-family="monospace" font-size="14.00">    EX_LocalVariable [CallFunc_Array_Get_Item]</text>
<text text-anchor="start" x="1441.5" y="-430.3" font-family="monospace" font-size="14.00">    EX_FinalFunction import /Script/Engine&#45;&gt;Actor&#45;&gt;HasAuthority</text>
<text text-anchor="start" x="1441.5" y="-415.3" font-family="monospace" font-size="14.00">    RValue = [CallFunc_HasAuthority_ReturnValue]</text>
</g>
<!-- ExecuteUbergraph_Cheat_DestroyMolly__240&#45;&gt;ExecuteUbergraph_Cheat_DestroyMolly__299 -->
<g id="edge15" class="edge">
<title>ExecuteUbergraph_Cheat_DestroyMolly__240&#45;&gt;ExecuteUbergraph_Cheat_DestroyMolly__299</title>
<path fill="none" stroke="black" d="M1701.5,-543.89C1701.5,-534.94 1701.5,-525.64 1701.5,-516.6"/>
<polygon fill="black" stroke="black" points="1705,-516.85 1701.5,-506.85 1698,-516.85 1705,-516.85"/>
</g>
<!-- ExecuteUbergraph_Cheat_DestroyMolly__341 -->
<g id="node19" class="node">
<title>ExecuteUbergraph_Cheat_DestroyMolly__341</title>
<polygon fill="#eeeeee" stroke="black" points="1470.5,-331.5 1470.5,-369.5 1932.5,-369.5 1932.5,-331.5 1470.5,-331.5"/>
<text text-anchor="start" x="1478.5" y="-354.3" font-family="monospace" font-size="14.00">EX_PopExecutionFlowIfNot</text>
<text text-anchor="start" x="1478.5" y="-339.3" font-family="monospace" font-size="14.00">  EX_LocalVariable [CallFunc_HasAuthority_ReturnValue]</text>
</g>
<!-- ExecuteUbergraph_Cheat_DestroyMolly__299&#45;&gt;ExecuteUbergraph_Cheat_DestroyMolly__341 -->
<g id="edge16" class="edge">
<title>ExecuteUbergraph_Cheat_DestroyMolly__299&#45;&gt;ExecuteUbergraph_Cheat_DestroyMolly__341</title>
<path fill="none" stroke="black" d="M1701.5,-407.76C1701.5,-398.58 1701.5,-389.21 1701.5,-380.83"/>
<polygon fill="black" stroke="black" points="1705,-380.89 1701.5,-370.89 1698,-380.89 1705,-380.89"/>
</g>
<!-- ExecuteUbergraph_Cheat_DestroyMolly__351 -->
<g id="node20" class="node">
<title>ExecuteUbergraph_Cheat_DestroyMolly__351</title>
<polygon fill="#eeeeee" stroke="black" points="1400.5,-180.5 1400.5,-293.5 2002.5,-293.5 2002.5,-180.5 1400.5,-180.5"/>
<text text-anchor="start" x="1408.5" y="-278.3" font-family="monospace" font-size="14.00">EX_Context</text>
<text text-anchor="start" x="1408.5" y="-263.3" font-family="monospace" font-size="14.00">  EX_ObjectConst import /Script/Engine&#45;&gt;Default__KismetArrayLibrary</text>
<text text-anchor="start" x="1408.5" y="-248.3" font-family="monospace" font-size="14.00">  EX_FinalFunction import /Script/Engine&#45;&gt;KismetArrayLibrary&#45;&gt;Array_Get</text>
<text text-anchor="start" x="1408.5" y="-233.3" font-family="monospace" font-size="14.00">    EX_LocalVariable [CallFunc_GetAllActorsOfClass_OutActors]</text>
<text text-anchor="start" x="1408.5" y="-218.3" font-family="monospace" font-size="14.00">    EX_LocalVariable [Temp_int_Array_Index_Variable]</text>
<text text-anchor="start" x="1408.5" y="-203.3" font-family="monospace" font-size="14.00">    EX_LocalVariable [CallFunc_Array_Get_Item]</text>
<text text-anchor="start" x="1408.5" y="-188.3" font-family="monospace" font-size="14.00">  RValue = []</text>
</g>
<!-- ExecuteUbergraph_Cheat_DestroyMolly__341&#45;&gt;ExecuteUbergraph_Cheat_DestroyMolly__351 -->
<g id="edge17" class="edge">
<title>ExecuteUbergraph_Cheat_DestroyMolly__341&#45;&gt;ExecuteUbergraph_Cheat_DestroyMolly__351</title>
<path fill="none" stroke="black" d="M1701.5,-331.59C1701.5,-323.98 1701.5,-314.6 1701.5,-304.74"/>
<polygon fill="black" stroke="black" points="1705,-304.99 1701.5,-294.99 1698,-304.99 1705,-304.99"/>
</g>
<!-- ExecuteUbergraph_Cheat_DestroyMolly__410 -->
<g id="node21" class="node">
<title>ExecuteUbergraph_Cheat_DestroyMolly__410</title>
<polygon fill="#eeeeee" stroke="black" points="1511.5,-74.5 1511.5,-142.5 1891.5,-142.5 1891.5,-74.5 1511.5,-74.5"/>
<text text-anchor="start" x="1519.5" y="-127.3" font-family="monospace" font-size="14.00">EX_Context</text>
<text text-anchor="start" x="1519.5" y="-112.3" font-family="monospace" font-size="14.00">  EX_LocalVariable [CallFunc_Array_Get_Item]</text>
<text text-anchor="start" x="1519.5" y="-97.3" font-family="monospace" font-size="14.00">  EX_VirtualFunction K2_DestroyActor</text>
<text text-anchor="start" x="1519.5" y="-82.3" font-family="monospace" font-size="14.00">  RValue = []</text>
</g>
<!-- ExecuteUbergraph_Cheat_DestroyMolly__351&#45;&gt;ExecuteUbergraph_Cheat_DestroyMolly__410 -->
<g id="edge18" class="edge">
<title>ExecuteUbergraph_Cheat_DestroyMolly__351&#45;&gt;ExecuteUbergraph_Cheat_DestroyMolly__410</title>
<path fill="none" stroke="black" d="M1701.5,-180.52C1701.5,-171.57 1701.5,-162.41 1701.5,-153.78"/>
<polygon fill="black" stroke="black" points="1705,-153.91 1701.5,-143.91 1698,-153.91 1705,-153.91"/>
</g>
<!-- ExecuteUbergraph_Cheat_DestroyMolly__446 -->
<g id="node22" class="node">
<title>ExecuteUbergraph_Cheat_DestroyMolly__446</title>
<polygon fill="#eeeeee" stroke="black" points="1615,-0.5 1615,-36.5 1788,-36.5 1788,-0.5 1615,-0.5"/>
<text text-anchor="start" x="1623" y="-14.8" font-family="monospace" font-size="14.00">EX_PopExecutionFlow</text>
</g>
<!-- ExecuteUbergraph_Cheat_DestroyMolly__410&#45;&gt;ExecuteUbergraph_Cheat_DestroyMolly__446 -->
<g id="edge19" class="edge">
<title>ExecuteUbergraph_Cheat_DestroyMolly__410&#45;&gt;ExecuteUbergraph_Cheat_DestroyMolly__446</title>
<path fill="none" stroke="black" d="M1701.5,-74.73C1701.5,-65.83 1701.5,-56.27 1701.5,-47.65"/>
<polygon fill="black" stroke="black" points="1705,-47.77 1701.5,-37.77 1698,-47.77 1705,-47.77"/>
</g>
<!-- ExecuteUbergraph_Cheat_DestroyMolly__489 -->
<g id="node24" class="node">
<title>ExecuteUbergraph_Cheat_DestroyMolly__489</title>
<polygon fill="#eeeeee" stroke="black" points="2121.5,-430 2121.5,-483 2567.5,-483 2567.5,-430 2121.5,-430"/>
<text text-anchor="start" x="2129.5" y="-467.8" font-family="monospace" font-size="14.00">EX_Let</text>
<text text-anchor="start" x="2129.5" y="-452.8" font-family="monospace" font-size="14.00">  EX_LocalVariable [Temp_int_Loop_Counter_Variable]</text>
<text text-anchor="start" x="2129.5" y="-437.8" font-family="monospace" font-size="14.00">  EX_LocalVariable [CallFunc_Add_IntInt_ReturnValue]</text>
</g>
<!-- ExecuteUbergraph_Cheat_DestroyMolly__447&#45;&gt;ExecuteUbergraph_Cheat_DestroyMolly__489 -->
<g id="edge20" class="edge">
<title>ExecuteUbergraph_Cheat_DestroyMolly__447&#45;&gt;ExecuteUbergraph_Cheat_DestroyMolly__489</title>
<path fill="none" stroke="black" d="M2313.71,-558.83C2319.96,-538.24 2327.52,-513.38 2333.58,-493.43"/>
<polygon fill="black" stroke="black" points="2336.87,-494.66 2336.43,-484.07 2330.17,-492.62 2336.87,-494.66"/>
</g>
<!-- ExecuteUbergraph_Cheat_DestroyMolly__516 -->
<g id="node25" class="node">
<title>ExecuteUbergraph_Cheat_DestroyMolly__516</title>
<polygon fill="#eeeeee" stroke="black" points="2484,-332.5 2484,-368.5 2591,-368.5 2591,-332.5 2484,-332.5"/>
<text text-anchor="start" x="2492" y="-346.8" font-family="monospace" font-size="14.00">EX_Jump 101</text>
</g>
<!-- ExecuteUbergraph_Cheat_DestroyMolly__489&#45;&gt;ExecuteUbergraph_Cheat_DestroyMolly__516 -->
<g id="edge21" class="edge">
<title>ExecuteUbergraph_Cheat_DestroyMolly__489&#45;&gt;ExecuteUbergraph_Cheat_DestroyMolly__516</title>
<path fill="none" stroke="black" d="M2391.71,-430.06C2423.7,-412.82 2465.55,-390.27 2496.21,-373.75"/>
<polygon fill="black" stroke="black" points="2497.67,-376.94 2504.81,-369.11 2494.35,-370.78 2497.67,-376.94"/>
</g>
<!-- ExecuteUbergraph_Cheat_DestroyMolly__516&#45;&gt;ExecuteUbergraph_Cheat_DestroyMolly__101 -->
<g id="edge22" class="edge">
<title>ExecuteUbergraph_Cheat_DestroyMolly__516&#45;&gt;ExecuteUbergraph_Cheat_DestroyMolly__101</title>
<path fill="none" stroke="black" d="M2559.4,-368.47C2580.91,-387.21 2610.5,-419.54 2610.5,-455.5 2610.5,-992 2610.5,-992 2610.5,-992 2610.5,-1013.89 2610.09,-1037.8 2609.58,-1059.27"/>
<polygon fill="black" stroke="black" points="2606.09,-1058.99 2609.34,-1069.08 2613.09,-1059.17 2606.09,-1058.99"/>
</g>
<!-- ExecuteUbergraph_Cheat_DestroyMolly__521 -->
<g id="node26" class="node">
<title>ExecuteUbergraph_Cheat_DestroyMolly__521</title>
<polygon fill="#eeeeee" stroke="black" points="3265,-1658.5 3265,-1694.5 3438,-1694.5 3438,-1658.5 3265,-1658.5"/>
<text text-anchor="start" x="3273" y="-1672.8" font-family="monospace" font-size="14.00">EX_PopExecutionFlow</text>
</g>
<!-- ExecuteUbergraph_Cheat_DestroyMolly__522 -->
<g id="node27" class="node">
<title>ExecuteUbergraph_Cheat_DestroyMolly__522</title>
<polygon fill="#eeeeee" stroke="black" points="2558,-1658.5 2558,-1694.5 2657,-1694.5 2657,-1658.5 2558,-1658.5"/>
<text text-anchor="start" x="2566" y="-1672.8" font-family="monospace" font-size="14.00">EX_Jump 15</text>
</g>
<!-- ExecuteUbergraph_Cheat_DestroyMolly__522&#45;&gt;ExecuteUbergraph_Cheat_DestroyMolly__15 -->
<g id="edge23" class="edge">
<title>ExecuteUbergraph_Cheat_DestroyMolly__522&#45;&gt;ExecuteUbergraph_Cheat_DestroyMolly__15</title>
<path fill="none" stroke="black" d="M2607.5,-1658.79C2607.5,-1641.89 2607.5,-1615.41 2607.5,-1594.97"/>
<polygon fill="black" stroke="black" points="2611,-1594.98 2607.5,-1584.98 2604,-1594.98 2611,-1594.98"/>
</g>
<!-- ExecuteUbergraph_Cheat_DestroyMolly__529 -->
<g id="node29" class="node">
<title>ExecuteUbergraph_Cheat_DestroyMolly__529</title>
<polygon fill="#eeeeee" stroke="black" points="3366.5,-1714.5 3366.5,-1750.5 3498.5,-1750.5 3498.5,-1714.5 3366.5,-1714.5"/>
<text text-anchor="start" x="3374.5" y="-1728.8" font-family="monospace" font-size="14.00">EX_EndOfScript</text>
</g>
<!-- BndEvt__Button_0_K2Node_ComponentBoundEvent_13_OnButtonClickedEvent__DelegateSignature -->
<g id="node30" class="node">
<title>BndEvt__Button_0_K2Node_ComponentBoundEvent_13_OnButtonClickedEvent__DelegateSignature</title>
<polygon fill="#ff8888" stroke="black" points="1844.5,-1957.5 1844.5,-1993.5 2644.5,-1993.5 2644.5,-1957.5 1844.5,-1957.5"/>
<text text-anchor="start" x="1852.5" y="-1971.8" font-family="monospace" font-size="14.00">Function BndEvt__Button_0_K2Node_ComponentBoundEvent_13_OnButtonClickedEvent__DelegateSignature</text>
</g>
<!-- BndEvt__Button_0_K2Node_ComponentBoundEvent_13_OnButtonClickedEvent__DelegateSignature__0 -->
<g id="node31" class="node">
<title>BndEvt__Button_0_K2Node_ComponentBoundEvent_13_OnButtonClickedEvent__DelegateSignature__0</title>
<polygon fill="#eeeeee" stroke="black" points="1881.5,-1769.5 1881.5,-1807.5 2607.5,-1807.5 2607.5,-1769.5 1881.5,-1769.5"/>
<text text-anchor="start" x="1889.5" y="-1792.3" font-family="monospace" font-size="14.00">EX_LocalFinalFunction export Cheat_DestroyMolly_C&#45;&gt;ExecuteUbergraph_Cheat_DestroyMolly</text>
<text text-anchor="start" x="1889.5" y="-1777.3" font-family="monospace" font-size="14.00">  EX_IntConst 522</text>
</g>
<!-- BndEvt__Button_0_K2Node_ComponentBoundEvent_13_OnButtonClickedEvent__DelegateSignature&#45;&gt;BndEvt__Button_0_K2Node_ComponentBoundEvent_13_OnButtonClickedEvent__DelegateSignature__0 -->
<g id="edge24" class="edge">
<title>BndEvt__Button_0_K2Node_ComponentBoundEvent_13_OnButtonClickedEvent__DelegateSignature&#45;&gt;BndEvt__Button_0_K2Node_ComponentBoundEvent_13_OnButtonClickedEvent__DelegateSignature__0</title>
<path fill="none" stroke="black" d="M2244.5,-1957.76C2244.5,-1926.31 2244.5,-1858.05 2244.5,-1818.82"/>
<polygon fill="black" stroke="black" points="2248,-1818.94 2244.5,-1808.94 2241,-1818.94 2248,-1818.94"/>
</g>
<!-- BndEvt__Button_0_K2Node_ComponentBoundEvent_13_OnButtonClickedEvent__DelegateSignature__0&#45;&gt;ExecuteUbergraph_Cheat_DestroyMolly__522 -->
<g id="edge25" class="edge">
<title>BndEvt__Button_0_K2Node_ComponentBoundEvent_13_OnButtonClickedEvent__DelegateSignature__0:e&#45;&gt;ExecuteUbergraph_Cheat_DestroyMolly__522</title>
<path fill="none" stroke="red" d="M2608.5,-1788.5C2616.78,-1788.5 2613.49,-1738.46 2610.43,-1705.57"/>
<polygon fill="none" stroke="red" points="2613.94,-1705.48 2609.49,-1695.86 2606.98,-1706.16 2613.94,-1705.48"/>
</g>
<!-- BndEvt__Button_0_K2Node_ComponentBoundEvent_13_OnButtonClickedEvent__DelegateSignature__15 -->
<g id="node32" class="node">
<title>BndEvt__Button_0_K2Node_ComponentBoundEvent_13_OnButtonClickedEvent__DelegateSignature__15</title>
<polygon fill="#eeeeee" stroke="black" points="2186.5,-1657.5 2186.5,-1695.5 2302.5,-1695.5 2302.5,-1657.5 2186.5,-1657.5"/>
<text text-anchor="start" x="2194.5" y="-1680.3" font-family="monospace" font-size="14.00">EX_Return</text>
<text text-anchor="start" x="2194.5" y="-1665.3" font-family="monospace" font-size="14.00">  EX_Nothing</text>
</g>
<!-- BndEvt__Button_0_K2Node_ComponentBoundEvent_13_OnButtonClickedEvent__DelegateSignature__0&#45;&gt;BndEvt__Button_0_K2Node_ComponentBoundEvent_13_OnButtonClickedEvent__DelegateSignature__15 -->
<g id="edge26" class="edge">
<title>BndEvt__Button_0_K2Node_ComponentBoundEvent_13_OnButtonClickedEvent__DelegateSignature__0&#45;&gt;BndEvt__Button_0_K2Node_ComponentBoundEvent_13_OnButtonClickedEvent__DelegateSignature__15</title>
<path fill="none" stroke="black" d="M2244.5,-1769.83C2244.5,-1752.85 2244.5,-1726.88 2244.5,-1706.81"/>
<polygon fill="black" stroke="black" points="2248,-1707.01 2244.5,-1697.01 2241,-1707.01 2248,-1707.01"/>
</g>
<!-- BndEvt__Button_0_K2Node_ComponentBoundEvent_13_OnButtonClickedEvent__DelegateSignature__17 -->
<g id="node33" class="node">
<title>BndEvt__Button_0_K2Node_ComponentBoundEvent_13_OnButtonClickedEvent__DelegateSignature__17</title>
<polygon fill="#eeeeee" stroke="black" points="2622.5,-1602.5 2622.5,-1638.5 2754.5,-1638.5 2754.5,-1602.5 2622.5,-1602.5"/>
<text text-anchor="start" x="2630.5" y="-1616.8" font-family="monospace" font-size="14.00">EX_EndOfScript</text>
</g>
<!-- Construct -->
<g id="node34" class="node">
<title>Construct</title>
<polygon fill="#ff8888" stroke="black" points="2906,-1957.5 2906,-1993.5 3071,-1993.5 3071,-1957.5 2906,-1957.5"/>
<text text-anchor="start" x="2914" y="-1971.8" font-family="monospace" font-size="14.00">Function Construct</text>
</g>
<!-- Construct__0 -->
<g id="node35" class="node">
<title>Construct__0</title>
<polygon fill="#eeeeee" stroke="black" points="2625.5,-1769.5 2625.5,-1807.5 3351.5,-1807.5 3351.5,-1769.5 2625.5,-1769.5"/>
<text text-anchor="start" x="2633.5" y="-1792.3" font-family="monospace" font-size="14.00">EX_LocalFinalFunction export Cheat_DestroyMolly_C&#45;&gt;ExecuteUbergraph_Cheat_DestroyMolly</text>
<text text-anchor="start" x="2633.5" y="-1777.3" font-family="monospace" font-size="14.00">  EX_IntConst 521</text>
</g>
<!-- Construct&#45;&gt;Construct__0 -->
<g id="edge27" class="edge">
<title>Construct&#45;&gt;Construct__0</title>
<path fill="none" stroke="black" d="M2988.5,-1957.76C2988.5,-1926.31 2988.5,-1858.05 2988.5,-1818.82"/>
<polygon fill="black" stroke="black" points="2992,-1818.94 2988.5,-1808.94 2985,-1818.94 2992,-1818.94"/>
</g>
<!-- Construct__0&#45;&gt;ExecuteUbergraph_Cheat_DestroyMolly__521 -->
<g id="edge28" class="edge">
<title>Construct__0:e&#45;&gt;ExecuteUbergraph_Cheat_DestroyMolly__521</title>
<path fill="none" stroke="red" d="M3352.5,-1788.5C3369.06,-1788.5 3362.93,-1738.46 3357.12,-1705.57"/>
<polygon fill="none" stroke="red" points="3360.58,-1705.04 3355.31,-1695.85 3353.7,-1706.32 3360.58,-1705.04"/>
</g>
<!-- Construct__15 -->
<g id="node36" class="node">
<title>Construct__15</title>
<polygon fill="#eeeeee" stroke="black" points="2930.5,-1657.5 2930.5,-1695.5 3046.5,-1695.5 3046.5,-1657.5 2930.5,-1657.5"/>
<text text-anchor="start" x="2938.5" y="-1680.3" font-family="monospace" font-size="14.00">EX_Return</text>
<text text-anchor="start" x="2938.5" y="-1665.3" font-family="monospace" font-size="14.00">  EX_Nothing</text>
</g>
<!-- Construct__0&#45;&gt;Construct__15 -->
<g id="edge29" class="edge">
<title>Construct__0&#45;&gt;Construct__15</title>
<path fill="none" stroke="black" d="M2988.5,-1769.83C2988.5,-1752.85 2988.5,-1726.88 2988.5,-1706.81"/>
<polygon fill="black" stroke="black" points="2992,-1707.01 2988.5,-1697.01 2985,-1707.01 2992,-1707.01"/>
</g>
<!-- Construct__17 -->
<g id="node37" class="node">
<title>Construct__17</title>
<polygon fill="#eeeeee" stroke="black" points="2622.5,-1490.5 2622.5,-1526.5 2754.5,-1526.5 2754.5,-1490.5 2622.5,-1490.5"/>
<text text-anchor="start" x="2630.5" y="-1504.8" font-family="monospace" font-size="14.00">EX_EndOfScript</text>
</g>
</g>
</svg>
