<?xml version="1.0" encoding="UTF-8" standalone="no"?>
<!DOCTYPE svg PUBLIC "-//W3C//DTD SVG 1.1//EN"
 "http://www.w3.org/Graphics/SVG/1.1/DTD/svg11.dtd">
<!-- Generated by graphviz version 7.0.1 (0)
 -->
<!-- Pages: 1 -->
<svg width="2996pt" height="1140pt"
 viewBox="0.00 0.00 2996.00 1140.00" xmlns="http://www.w3.org/2000/svg" xmlns:xlink="http://www.w3.org/1999/xlink">
<g id="graph0" class="graph" transform="scale(1 1) rotate(0) translate(4 1136)">
<polygon fill="white" stroke="none" points="-4,4 -4,-1136 2992,-1136 2992,4 -4,4"/>
<!-- Cheat_AddNitra_C -->
<g id="node1" class="node">
<title>Cheat_AddNitra_C</title>
<polygon fill="#88ff88" stroke="black" points="0,-981 0,-1124 850,-1124 850,-981 0,-981"/>
<text text-anchor="start" x="8" y="-1108.8" font-family="monospace" font-size="14.00">ClassExport: Cheat_AddNitra_C</text>
<text text-anchor="start" x="8" y="-1093.8" font-family="monospace" font-size="14.00">  SuperStruct: import /Script/UMG&#45;&gt;UserWidget</text>
<text text-anchor="start" x="8" y="-1078.8" font-family="monospace" font-size="14.00">  Properties:</text>
<text text-anchor="start" x="8" y="-1063.8" font-family="monospace" font-size="14.00">    StructProperty UberGraphFrame</text>
<text text-anchor="start" x="8" y="-1048.8" font-family="monospace" font-size="14.00">      CPF_Transient|CPF_DuplicateTransient</text>
<text text-anchor="start" x="8" y="-1033.8" font-family="monospace" font-size="14.00">    ObjectProperty CheatMenu_BasicButtonWText</text>
<text text-anchor="start" x="8" y="-1018.8" font-family="monospace" font-size="14.00">      CPF_BlueprintVisible|CPF_ExportObject|CPF_InstancedReference|CPF_RepSkip|CPF_PersistentInstance</text>
<text text-anchor="start" x="8" y="-1003.8" font-family="monospace" font-size="14.00">    ObjectProperty TextBox</text>
<text text-anchor="start" x="8" y="-988.8" font-family="monospace" font-size="14.00">      CPF_BlueprintVisible|CPF_ExportObject|CPF_InstancedReference|CPF_RepSkip|CPF_PersistentInstance</text>
</g>
<!-- ExecuteUbergraph_Cheat_AddNitra -->
<g id="node2" class="node">
<title>ExecuteUbergraph_Cheat_AddNitra</title>
<polygon fill="#ff8888" stroke="black" points="868,-973.5 868,-1131.5 1338,-1131.5 1338,-973.5 868,-973.5"/>
<text text-anchor="start" x="876" y="-1116.3" font-family="monospace" font-size="14.00">Function ExecuteUbergraph_Cheat_AddNitra</text>
<text text-anchor="start" x="876" y="-1101.3" font-family="monospace" font-size="14.00">  IntProperty EntryPoint</text>
<text text-anchor="start" x="876" y="-1086.3" font-family="monospace" font-size="14.00">    CPF_BlueprintVisible|CPF_BlueprintReadOnly|CPF_Parm</text>
<text text-anchor="start" x="876" y="-1071.3" font-family="monospace" font-size="14.00">  ObjectProperty K2Node_ComponentBoundEvent_Button</text>
<text text-anchor="start" x="876" y="-1056.3" font-family="monospace" font-size="14.00">    CPF_InstancedReference</text>
<text text-anchor="start" x="876" y="-1041.3" font-family="monospace" font-size="14.00">  ObjectProperty CallFunc_GetCheatManager_ReturnValue</text>
<text text-anchor="start" x="876" y="-1026.3" font-family="monospace" font-size="14.00">  TextProperty CallFunc_GetText_ReturnValue</text>
<text text-anchor="start" x="876" y="-1011.3" font-family="monospace" font-size="14.00">  StrProperty CallFunc_Conv_TextToString_ReturnValue</text>
<text text-anchor="start" x="876" y="-996.3" font-family="monospace" font-size="14.00">  IntProperty CallFunc_Conv_StringToInt_ReturnValue</text>
<text text-anchor="start" x="876" y="-981.3" font-family="monospace" font-size="14.00">  FloatProperty CallFunc_Conv_IntToFloat_ReturnValue</text>
</g>
<!-- ExecuteUbergraph_Cheat_AddNitra__0 -->
<g id="node3" class="node">
<title>ExecuteUbergraph_Cheat_AddNitra__0</title>
<polygon fill="#eeeeee" stroke="black" points="967,-898.5 967,-936.5 1239,-936.5 1239,-898.5 967,-898.5"/>
<text text-anchor="start" x="975" y="-921.3" font-family="monospace" font-size="14.00">EX_ComputedJump</text>
<text text-anchor="start" x="975" y="-906.3" font-family="monospace" font-size="14.00">  EX_LocalVariable [EntryPoint]</text>
</g>
<!-- ExecuteUbergraph_Cheat_AddNitra&#45;&gt;ExecuteUbergraph_Cheat_AddNitra__0 -->
<g id="edge1" class="edge">
<title>ExecuteUbergraph_Cheat_AddNitra&#45;&gt;ExecuteUbergraph_Cheat_AddNitra__0</title>
<path fill="none" stroke="black" d="M1103,-973.75C1103,-964.5 1103,-955.54 1103,-947.64"/>
<polygon fill="black" stroke="black" points="1106.5,-947.69 1103,-937.69 1099.5,-947.69 1106.5,-947.69"/>
</g>
<!-- ExecuteUbergraph_Cheat_AddNitra__10 -->
<g id="node4" class="node">
<title>ExecuteUbergraph_Cheat_AddNitra__10</title>
<polygon fill="#eeeeee" stroke="black" points="2283,-718.5 2283,-786.5 2927,-786.5 2927,-718.5 2283,-718.5"/>
<text text-anchor="start" x="2291" y="-771.3" font-family="monospace" font-size="14.00">EX_LetObj</text>
<text text-anchor="start" x="2291" y="-756.3" font-family="monospace" font-size="14.00">  EX_LocalVariable [CallFunc_GetCheatManager_ReturnValue]</text>
<text text-anchor="start" x="2291" y="-741.3" font-family="monospace" font-size="14.00">  EX_CallMath import /Script/FSD&#45;&gt;FSDWidgetBlueprintLibrary&#45;&gt;GetCheatManager</text>
<text text-anchor="start" x="2291" y="-726.3" font-family="monospace" font-size="14.00">    EX_Self</text>
</g>
<!-- ExecuteUbergraph_Cheat_AddNitra__31 -->
<g id="node5" class="node">
<title>ExecuteUbergraph_Cheat_AddNitra__31</title>
<polygon fill="#eeeeee" stroke="black" points="2284.5,-583.5 2284.5,-681.5 2837.5,-681.5 2837.5,-583.5 2284.5,-583.5"/>
<text text-anchor="start" x="2292.5" y="-666.3" font-family="monospace" font-size="14.00">EX_Let</text>
<text text-anchor="start" x="2292.5" y="-651.3" font-family="monospace" font-size="14.00">  EX_LocalVariable [CallFunc_GetText_ReturnValue]</text>
<text text-anchor="start" x="2292.5" y="-636.3" font-family="monospace" font-size="14.00">  EX_Context</text>
<text text-anchor="start" x="2292.5" y="-621.3" font-family="monospace" font-size="14.00">    EX_InstanceVariable [TextBox]</text>
<text text-anchor="start" x="2292.5" y="-606.3" font-family="monospace" font-size="14.00">    EX_FinalFunction import /Script/UMG&#45;&gt;EditableTextBox&#45;&gt;GetText</text>
<text text-anchor="start" x="2292.5" y="-591.3" font-family="monospace" font-size="14.00">    RValue = [CallFunc_GetText_ReturnValue]</text>
</g>
<!-- ExecuteUbergraph_Cheat_AddNitra__10&#45;&gt;ExecuteUbergraph_Cheat_AddNitra__31 -->
<g id="edge2" class="edge">
<title>ExecuteUbergraph_Cheat_AddNitra__10&#45;&gt;ExecuteUbergraph_Cheat_AddNitra__31</title>
<path fill="none" stroke="black" d="M2592.74,-718.63C2589.64,-710.3 2586.2,-701.09 2582.78,-691.91"/>
<polygon fill="black" stroke="black" points="2586.08,-690.75 2579.31,-682.61 2579.53,-693.2 2586.08,-690.75"/>
</g>
<!-- ExecuteUbergraph_Cheat_AddNitra__81 -->
<g id="node6" class="node">
<title>ExecuteUbergraph_Cheat_AddNitra__81</title>
<polygon fill="#eeeeee" stroke="black" points="2165.5,-478.5 2165.5,-546.5 2784.5,-546.5 2784.5,-478.5 2165.5,-478.5"/>
<text text-anchor="start" x="2173.5" y="-531.3" font-family="monospace" font-size="14.00">EX_Let</text>
<text text-anchor="start" x="2173.5" y="-516.3" font-family="monospace" font-size="14.00">  EX_LocalVariable [CallFunc_Conv_TextToString_ReturnValue]</text>
<text text-anchor="start" x="2173.5" y="-501.3" font-family="monospace" font-size="14.00">  EX_CallMath import /Script/Engine&#45;&gt;KismetTextLibrary&#45;&gt;Conv_TextToString</text>
<text text-anchor="start" x="2173.5" y="-486.3" font-family="monospace" font-size="14.00">    EX_LocalVariable [CallFunc_GetText_ReturnValue]</text>
</g>
<!-- ExecuteUbergraph_Cheat_AddNitra__31&#45;&gt;ExecuteUbergraph_Cheat_AddNitra__81 -->
<g id="edge3" class="edge">
<title>ExecuteUbergraph_Cheat_AddNitra__31&#45;&gt;ExecuteUbergraph_Cheat_AddNitra__81</title>
<path fill="none" stroke="black" d="M2526.02,-583.5C2519.26,-574.22 2512.22,-564.56 2505.6,-555.49"/>
<polygon fill="black" stroke="black" points="2508.51,-553.53 2499.79,-547.51 2502.85,-557.66 2508.51,-553.53"/>
</g>
<!-- ExecuteUbergraph_Cheat_AddNitra__118 -->
<g id="node7" class="node">
<title>ExecuteUbergraph_Cheat_AddNitra__118</title>
<polygon fill="#eeeeee" stroke="black" points="2118.5,-373.5 2118.5,-441.5 2745.5,-441.5 2745.5,-373.5 2118.5,-373.5"/>
<text text-anchor="start" x="2126.5" y="-426.3" font-family="monospace" font-size="14.00">EX_Let</text>
<text text-anchor="start" x="2126.5" y="-411.3" font-family="monospace" font-size="14.00">  EX_LocalVariable [CallFunc_Conv_StringToInt_ReturnValue]</text>
<text text-anchor="start" x="2126.5" y="-396.3" font-family="monospace" font-size="14.00">  EX_CallMath import /Script/Engine&#45;&gt;KismetStringLibrary&#45;&gt;Conv_StringToInt</text>
<text text-anchor="start" x="2126.5" y="-381.3" font-family="monospace" font-size="14.00">    EX_LocalVariable [CallFunc_Conv_TextToString_ReturnValue]</text>
</g>
<!-- ExecuteUbergraph_Cheat_AddNitra__81&#45;&gt;ExecuteUbergraph_Cheat_AddNitra__118 -->
<g id="edge4" class="edge">
<title>ExecuteUbergraph_Cheat_AddNitra__81&#45;&gt;ExecuteUbergraph_Cheat_AddNitra__118</title>
<path fill="none" stroke="black" d="M2461.28,-478.63C2457.71,-470.08 2453.81,-460.74 2450.05,-451.75"/>
<polygon fill="black" stroke="black" points="2453.41,-450.69 2446.32,-442.81 2446.95,-453.39 2453.41,-450.69"/>
</g>
<!-- ExecuteUbergraph_Cheat_AddNitra__155 -->
<g id="node8" class="node">
<title>ExecuteUbergraph_Cheat_AddNitra__155</title>
<polygon fill="#eeeeee" stroke="black" points="1951,-268.5 1951,-336.5 2553,-336.5 2553,-268.5 1951,-268.5"/>
<text text-anchor="start" x="1959" y="-321.3" font-family="monospace" font-size="14.00">EX_Let</text>
<text text-anchor="start" x="1959" y="-306.3" font-family="monospace" font-size="14.00">  EX_LocalVariable [CallFunc_Conv_IntToFloat_ReturnValue]</text>
<text text-anchor="start" x="1959" y="-291.3" font-family="monospace" font-size="14.00">  EX_CallMath import /Script/Engine&#45;&gt;KismetMathLibrary&#45;&gt;Conv_IntToFloat</text>
<text text-anchor="start" x="1959" y="-276.3" font-family="monospace" font-size="14.00">    EX_LocalVariable [CallFunc_Conv_StringToInt_ReturnValue]</text>
</g>
<!-- ExecuteUbergraph_Cheat_AddNitra__118&#45;&gt;ExecuteUbergraph_Cheat_AddNitra__155 -->
<g id="edge5" class="edge">
<title>ExecuteUbergraph_Cheat_AddNitra__118&#45;&gt;ExecuteUbergraph_Cheat_AddNitra__155</title>
<path fill="none" stroke="black" d="M2374.55,-373.63C2357.02,-363.59 2337.57,-352.47 2319.44,-342.09"/>
<polygon fill="black" stroke="black" points="2321.25,-339.09 2310.83,-337.17 2317.77,-345.17 2321.25,-339.09"/>
</g>
<!-- ExecuteUbergraph_Cheat_AddNitra__192 -->
<g id="node9" class="node">
<title>ExecuteUbergraph_Cheat_AddNitra__192</title>
<polygon fill="#eeeeee" stroke="black" points="1955.5,-148.5 1955.5,-231.5 2516.5,-231.5 2516.5,-148.5 1955.5,-148.5"/>
<text text-anchor="start" x="1963.5" y="-216.3" font-family="monospace" font-size="14.00">EX_Context</text>
<text text-anchor="start" x="1963.5" y="-201.3" font-family="monospace" font-size="14.00">  EX_LocalVariable [CallFunc_GetCheatManager_ReturnValue]</text>
<text text-anchor="start" x="1963.5" y="-186.3" font-family="monospace" font-size="14.00">  EX_FinalFunction import /Script/FSD&#45;&gt;FSDCheatManager&#45;&gt;R_AddNitra</text>
<text text-anchor="start" x="1963.5" y="-171.3" font-family="monospace" font-size="14.00">    EX_LocalVariable [CallFunc_Conv_IntToFloat_ReturnValue]</text>
<text text-anchor="start" x="1963.5" y="-156.3" font-family="monospace" font-size="14.00">  RValue = []</text>
</g>
<!-- ExecuteUbergraph_Cheat_AddNitra__155&#45;&gt;ExecuteUbergraph_Cheat_AddNitra__192 -->
<g id="edge6" class="edge">
<title>ExecuteUbergraph_Cheat_AddNitra__155&#45;&gt;ExecuteUbergraph_Cheat_AddNitra__192</title>
<path fill="none" stroke="black" d="M2247.24,-268.65C2246.05,-260.41 2244.74,-251.39 2243.46,-242.49"/>
<polygon fill="black" stroke="black" points="2246.96,-242.25 2242.06,-232.86 2240.03,-243.25 2246.96,-242.25"/>
</g>
<!-- ExecuteUbergraph_Cheat_AddNitra__233 -->
<g id="node10" class="node">
<title>ExecuteUbergraph_Cheat_AddNitra__233</title>
<polygon fill="#eeeeee" stroke="black" points="2058.5,-75.5 2058.5,-111.5 2165.5,-111.5 2165.5,-75.5 2058.5,-75.5"/>
<text text-anchor="start" x="2066.5" y="-89.8" font-family="monospace" font-size="14.00">EX_Jump 238</text>
</g>
<!-- ExecuteUbergraph_Cheat_AddNitra__192&#45;&gt;ExecuteUbergraph_Cheat_AddNitra__233 -->
<g id="edge7" class="edge">
<title>ExecuteUbergraph_Cheat_AddNitra__192&#45;&gt;ExecuteUbergraph_Cheat_AddNitra__233</title>
<path fill="none" stroke="black" d="M2183.05,-148.65C2169.41,-138.26 2155.18,-127.41 2143.06,-118.17"/>
<polygon fill="black" stroke="black" points="2145.53,-115.66 2135.46,-112.38 2141.29,-121.22 2145.53,-115.66"/>
</g>
<!-- ExecuteUbergraph_Cheat_AddNitra__238 -->
<g id="node11" class="node">
<title>ExecuteUbergraph_Cheat_AddNitra__238</title>
<polygon fill="#eeeeee" stroke="black" points="1900,-0.5 1900,-38.5 2016,-38.5 2016,-0.5 1900,-0.5"/>
<text text-anchor="start" x="1908" y="-23.3" font-family="monospace" font-size="14.00">EX_Return</text>
<text text-anchor="start" x="1908" y="-8.3" font-family="monospace" font-size="14.00">  EX_Nothing</text>
</g>
<!-- ExecuteUbergraph_Cheat_AddNitra__233&#45;&gt;ExecuteUbergraph_Cheat_AddNitra__238 -->
<g id="edge8" class="edge">
<title>ExecuteUbergraph_Cheat_AddNitra__233&#45;&gt;ExecuteUbergraph_Cheat_AddNitra__238</title>
<path fill="none" stroke="black" d="M2075.89,-75.62C2055.25,-65.97 2029.08,-53.73 2006.64,-43.24"/>
<polygon fill="black" stroke="black" points="2008.21,-40.11 1997.67,-39.05 2005.25,-46.45 2008.21,-40.11"/>
</g>
<!-- ExecuteUbergraph_Cheat_AddNitra__240 -->
<g id="node12" class="node">
<title>ExecuteUbergraph_Cheat_AddNitra__240</title>
<polygon fill="#eeeeee" stroke="black" points="2856,-614.5 2856,-650.5 2988,-650.5 2988,-614.5 2856,-614.5"/>
<text text-anchor="start" x="2864" y="-628.8" font-family="monospace" font-size="14.00">EX_EndOfScript</text>
</g>
<!-- BndEvt__CheatMenu_BasicButtonWText_K2Node_ComponentBoundEvent_0_OnClicked__DelegateSignature -->
<g id="node13" class="node">
<title>BndEvt__CheatMenu_BasicButtonWText_K2Node_ComponentBoundEvent_0_OnClicked__DelegateSignature</title>
<polygon fill="#ff8888" stroke="black" points="1850,-1026 1850,-1079 2700,-1079 2700,-1026 1850,-1026"/>
<text text-anchor="start" x="1858" y="-1063.8" font-family="monospace" font-size="14.00">Function BndEvt__CheatMenu_BasicButtonWText_K2Node_ComponentBoundEvent_0_OnClicked__DelegateSignature</text>
<text text-anchor="start" x="1858" y="-1048.8" font-family="monospace" font-size="14.00">  ObjectProperty Button</text>
<text text-anchor="start" x="1858" y="-1033.8" font-family="monospace" font-size="14.00">    CPF_BlueprintVisible|CPF_BlueprintReadOnly|CPF_Parm|CPF_InstancedReference</text>
</g>
<!-- BndEvt__CheatMenu_BasicButtonWText_K2Node_ComponentBoundEvent_0_OnClicked__DelegateSignature__0 -->
<g id="node14" class="node">
<title>BndEvt__CheatMenu_BasicButtonWText_K2Node_ComponentBoundEvent_0_OnClicked__DelegateSignature__0</title>
<polygon fill="#eeeeee" stroke="black" points="2002.5,-898.5 2002.5,-936.5 2547.5,-936.5 2547.5,-898.5 2002.5,-898.5"/>
<text text-anchor="start" x="2010.5" y="-921.3" font-family="monospace" font-size="14.00">EX_LetValueOnPersistentFrame [K2Node_ComponentBoundEvent_Button]</text>
<text text-anchor="start" x="2010.5" y="-906.3" font-family="monospace" font-size="14.00">  EX_LocalVariable [Button]</text>
</g>
<!-- BndEvt__CheatMenu_BasicButtonWText_K2Node_ComponentBoundEvent_0_OnClicked__DelegateSignature&#45;&gt;BndEvt__CheatMenu_BasicButtonWText_K2Node_ComponentBoundEvent_0_OnClicked__DelegateSignature__0 -->
<g id="edge9" class="edge">
<title>BndEvt__CheatMenu_BasicButtonWText_K2Node_ComponentBoundEvent_0_OnClicked__DelegateSignature&#45;&gt;BndEvt__CheatMenu_BasicButtonWText_K2Node_ComponentBoundEvent_0_OnClicked__DelegateSignature__0</title>
<path fill="none" stroke="black" d="M2275,-1026.17C2275,-1003.84 2275,-971.29 2275,-947.83"/>
<polygon fill="black" stroke="black" points="2278.5,-948 2275,-938 2271.5,-948 2278.5,-948"/>
</g>
<!-- BndEvt__CheatMenu_BasicButtonWText_K2Node_ComponentBoundEvent_0_OnClicked__DelegateSignature__18 -->
<g id="node15" class="node">
<title>BndEvt__CheatMenu_BasicButtonWText_K2Node_ComponentBoundEvent_0_OnClicked__DelegateSignature__18</title>
<polygon fill="#eeeeee" stroke="black" points="1945,-823.5 1945,-861.5 2605,-861.5 2605,-823.5 1945,-823.5"/>
<text text-anchor="start" x="1953" y="-846.3" font-family="monospace" font-size="14.00">EX_LocalFinalFunction export Cheat_AddNitra_C&#45;&gt;ExecuteUbergraph_Cheat_AddNitra</text>
<text text-anchor="start" x="1953" y="-831.3" font-family="monospace" font-size="14.00">  EX_IntConst 10</text>
</g>
<!-- BndEvt__CheatMenu_BasicButtonWText_K2Node_ComponentBoundEvent_0_OnClicked__DelegateSignature__0&#45;&gt;BndEvt__CheatMenu_BasicButtonWText_K2Node_ComponentBoundEvent_0_OnClicked__DelegateSignature__18 -->
<g id="edge10" class="edge">
<title>BndEvt__CheatMenu_BasicButtonWText_K2Node_ComponentBoundEvent_0_OnClicked__DelegateSignature__0&#45;&gt;BndEvt__CheatMenu_BasicButtonWText_K2Node_ComponentBoundEvent_0_OnClicked__DelegateSignature__18</title>
<path fill="none" stroke="black" d="M2275,-898.83C2275,-891 2275,-881.57 2275,-872.74"/>
<polygon fill="black" stroke="black" points="2278.5,-872.78 2275,-862.78 2271.5,-872.78 2278.5,-872.78"/>
</g>
<!-- BndEvt__CheatMenu_BasicButtonWText_K2Node_ComponentBoundEvent_0_OnClicked__DelegateSignature__18&#45;&gt;ExecuteUbergraph_Cheat_AddNitra__10 -->
<g id="edge11" class="edge">
<title>BndEvt__CheatMenu_BasicButtonWText_K2Node_ComponentBoundEvent_0_OnClicked__DelegateSignature__18:e&#45;&gt;ExecuteUbergraph_Cheat_AddNitra__10</title>
<path fill="none" stroke="red" d="M2606,-842.5C2625.99,-842.5 2625.52,-819.78 2620.17,-797.3"/>
<polygon fill="none" stroke="red" points="2623.6,-796.59 2617.61,-787.85 2616.85,-798.42 2623.6,-796.59"/>
</g>
<!-- BndEvt__CheatMenu_BasicButtonWText_K2Node_ComponentBoundEvent_0_OnClicked__DelegateSignature__33 -->
<g id="node16" class="node">
<title>BndEvt__CheatMenu_BasicButtonWText_K2Node_ComponentBoundEvent_0_OnClicked__DelegateSignature__33</title>
<polygon fill="#eeeeee" stroke="black" points="2149,-733.5 2149,-771.5 2265,-771.5 2265,-733.5 2149,-733.5"/>
<text text-anchor="start" x="2157" y="-756.3" font-family="monospace" font-size="14.00">EX_Return</text>
<text text-anchor="start" x="2157" y="-741.3" font-family="monospace" font-size="14.00">  EX_Nothing</text>
</g>
<!-- BndEvt__CheatMenu_BasicButtonWText_K2Node_ComponentBoundEvent_0_OnClicked__DelegateSignature__18&#45;&gt;BndEvt__CheatMenu_BasicButtonWText_K2Node_ComponentBoundEvent_0_OnClicked__DelegateSignature__33 -->
<g id="edge12" class="edge">
<title>BndEvt__CheatMenu_BasicButtonWText_K2Node_ComponentBoundEvent_0_OnClicked__DelegateSignature__18&#45;&gt;BndEvt__CheatMenu_BasicButtonWText_K2Node_ComponentBoundEvent_0_OnClicked__DelegateSignature__33</title>
<path fill="none" stroke="black" d="M2261.24,-823.69C2251.56,-811.17 2238.44,-794.19 2227.53,-780.07"/>
<polygon fill="black" stroke="black" points="2230.55,-778.25 2221.67,-772.48 2225.01,-782.53 2230.55,-778.25"/>
</g>
<!-- BndEvt__CheatMenu_BasicButtonWText_K2Node_ComponentBoundEvent_0_OnClicked__DelegateSignature__35 -->
<g id="node17" class="node">
<title>BndEvt__CheatMenu_BasicButtonWText_K2Node_ComponentBoundEvent_0_OnClicked__DelegateSignature__35</title>
<polygon fill="#eeeeee" stroke="black" points="2803,-494.5 2803,-530.5 2935,-530.5 2935,-494.5 2803,-494.5"/>
<text text-anchor="start" x="2811" y="-508.8" font-family="monospace" font-size="14.00">EX_EndOfScript</text>
</g>
<!-- Construct -->
<g id="node18" class="node">
<title>Construct</title>
<polygon fill="#ff8888" stroke="black" points="1504.5,-1034.5 1504.5,-1070.5 1669.5,-1070.5 1669.5,-1034.5 1504.5,-1034.5"/>
<text text-anchor="start" x="1512.5" y="-1048.8" font-family="monospace" font-size="14.00">Function Construct</text>
</g>
<!-- Construct__0 -->
<g id="node19" class="node">
<title>Construct__0</title>
<polygon fill="#eeeeee" stroke="black" points="1257,-898.5 1257,-936.5 1917,-936.5 1917,-898.5 1257,-898.5"/>
<text text-anchor="start" x="1265" y="-921.3" font-family="monospace" font-size="14.00">EX_LocalFinalFunction export Cheat_AddNitra_C&#45;&gt;ExecuteUbergraph_Cheat_AddNitra</text>
<text text-anchor="start" x="1265" y="-906.3" font-family="monospace" font-size="14.00">  EX_IntConst 238</text>
</g>
<!-- Construct&#45;&gt;Construct__0 -->
<g id="edge13" class="edge">
<title>Construct&#45;&gt;Construct__0</title>
<path fill="none" stroke="black" d="M1587,-1034.66C1587,-1012.83 1587,-974.44 1587,-947.79"/>
<polygon fill="black" stroke="black" points="1590.5,-947.99 1587,-937.99 1583.5,-947.99 1590.5,-947.99"/>
</g>
<!-- Construct__0&#45;&gt;ExecuteUbergraph_Cheat_AddNitra__238 -->
<g id="edge14" class="edge">
<title>Construct__0:e&#45;&gt;ExecuteUbergraph_Cheat_AddNitra__238</title>
<path fill="none" stroke="red" d="M1918,-917.5C1954.45,-917.5 1917,-789.95 1917,-753.5 1917,-753.5 1917,-753.5 1917,-189 1917,-138.64 1934.51,-82.15 1946.64,-49.04"/>
<polygon fill="none" stroke="red" points="1949.88,-50.36 1950.14,-39.77 1943.33,-47.89 1949.88,-50.36"/>
</g>
<!-- Construct__15 -->
<g id="node20" class="node">
<title>Construct__15</title>
<polygon fill="#eeeeee" stroke="black" points="1529,-823.5 1529,-861.5 1645,-861.5 1645,-823.5 1529,-823.5"/>
<text text-anchor="start" x="1537" y="-846.3" font-family="monospace" font-size="14.00">EX_Return</text>
<text text-anchor="start" x="1537" y="-831.3" font-family="monospace" font-size="14.00">  EX_Nothing</text>
</g>
<!-- Construct__0&#45;&gt;Construct__15 -->
<g id="edge15" class="edge">
<title>Construct__0&#45;&gt;Construct__15</title>
<path fill="none" stroke="black" d="M1587,-898.83C1587,-891 1587,-881.57 1587,-872.74"/>
<polygon fill="black" stroke="black" points="1590.5,-872.78 1587,-862.78 1583.5,-872.78 1590.5,-872.78"/>
</g>
<!-- Construct__17 -->
<g id="node21" class="node">
<title>Construct__17</title>
<polygon fill="#eeeeee" stroke="black" points="2764,-389.5 2764,-425.5 2896,-425.5 2896,-389.5 2764,-389.5"/>
<text text-anchor="start" x="2772" y="-403.8" font-family="monospace" font-size="14.00">EX_EndOfScript</text>
</g>
</g>
</svg>
