<?xml version="1.0" encoding="UTF-8" standalone="no"?>
<!DOCTYPE svg PUBLIC "-//W3C//DTD SVG 1.1//EN"
 "http://www.w3.org/Graphics/SVG/1.1/DTD/svg11.dtd">
<!-- Generated by graphviz version 7.0.1 (0)
 -->
<!-- Pages: 1 -->
<svg width="3067pt" height="630pt"
 viewBox="0.00 0.00 3067.00 630.00" xmlns="http://www.w3.org/2000/svg" xmlns:xlink="http://www.w3.org/1999/xlink">
<g id="graph0" class="graph" transform="scale(1 1) rotate(0) translate(4 626)">
<polygon fill="white" stroke="none" points="-4,4 -4,-626 3063,-626 3063,4 -4,4"/>
<!-- Cheat_ScriptedWave_C -->
<g id="node1" class="node">
<title>Cheat_ScriptedWave_C</title>
<polygon fill="#88ff88" stroke="black" points="0,-508.5 0,-621.5 850,-621.5 850,-508.5 0,-508.5"/>
<text text-anchor="start" x="8" y="-606.3" font-family="monospace" font-size="14.00">ClassExport: Cheat_ScriptedWave_C</text>
<text text-anchor="start" x="8" y="-591.3" font-family="monospace" font-size="14.00">  SuperStruct: import /Script/UMG&#45;&gt;UserWidget</text>
<text text-anchor="start" x="8" y="-576.3" font-family="monospace" font-size="14.00">  Properties:</text>
<text text-anchor="start" x="8" y="-561.3" font-family="monospace" font-size="14.00">    StructProperty UberGraphFrame</text>
<text text-anchor="start" x="8" y="-546.3" font-family="monospace" font-size="14.00">      CPF_Transient|CPF_DuplicateTransient</text>
<text text-anchor="start" x="8" y="-531.3" font-family="monospace" font-size="14.00">    ObjectProperty CheatMenu_BasicButtonWText</text>
<text text-anchor="start" x="8" y="-516.3" font-family="monospace" font-size="14.00">      CPF_BlueprintVisible|CPF_ExportObject|CPF_InstancedReference|CPF_RepSkip|CPF_PersistentInstance</text>
</g>
<!-- ExecuteUbergraph_Cheat_ScriptedWave -->
<g id="node2" class="node">
<title>ExecuteUbergraph_Cheat_ScriptedWave</title>
<polygon fill="#ff8888" stroke="black" points="868,-516 868,-614 1338,-614 1338,-516 868,-516"/>
<text text-anchor="start" x="876" y="-598.8" font-family="monospace" font-size="14.00">Function ExecuteUbergraph_Cheat_ScriptedWave</text>
<text text-anchor="start" x="876" y="-583.8" font-family="monospace" font-size="14.00">  IntProperty EntryPoint</text>
<text text-anchor="start" x="876" y="-568.8" font-family="monospace" font-size="14.00">    CPF_BlueprintVisible|CPF_BlueprintReadOnly|CPF_Parm</text>
<text text-anchor="start" x="876" y="-553.8" font-family="monospace" font-size="14.00">  ObjectProperty K2Node_ComponentBoundEvent_Button</text>
<text text-anchor="start" x="876" y="-538.8" font-family="monospace" font-size="14.00">    CPF_InstancedReference</text>
<text text-anchor="start" x="876" y="-523.8" font-family="monospace" font-size="14.00">  ObjectProperty CallFunc_GetCheatManager_ReturnValue</text>
</g>
<!-- ExecuteUbergraph_Cheat_ScriptedWave__0 -->
<g id="node3" class="node">
<title>ExecuteUbergraph_Cheat_ScriptedWave__0</title>
<polygon fill="#eeeeee" stroke="black" points="967,-433.5 967,-471.5 1239,-471.5 1239,-433.5 967,-433.5"/>
<text text-anchor="start" x="975" y="-456.3" font-family="monospace" font-size="14.00">EX_ComputedJump</text>
<text text-anchor="start" x="975" y="-441.3" font-family="monospace" font-size="14.00">  EX_LocalVariable [EntryPoint]</text>
</g>
<!-- ExecuteUbergraph_Cheat_ScriptedWave&#45;&gt;ExecuteUbergraph_Cheat_ScriptedWave__0 -->
<g id="edge1" class="edge">
<title>ExecuteUbergraph_Cheat_ScriptedWave&#45;&gt;ExecuteUbergraph_Cheat_ScriptedWave__0</title>
<path fill="none" stroke="black" d="M1103,-516.18C1103,-504.77 1103,-492.94 1103,-482.67"/>
<polygon fill="black" stroke="black" points="1106.5,-482.96 1103,-472.96 1099.5,-482.96 1106.5,-482.96"/>
</g>
<!-- ExecuteUbergraph_Cheat_ScriptedWave__10 -->
<g id="node4" class="node">
<title>ExecuteUbergraph_Cheat_ScriptedWave__10</title>
<polygon fill="#eeeeee" stroke="black" points="2415,-253.5 2415,-321.5 3059,-321.5 3059,-253.5 2415,-253.5"/>
<text text-anchor="start" x="2423" y="-306.3" font-family="monospace" font-size="14.00">EX_LetObj</text>
<text text-anchor="start" x="2423" y="-291.3" font-family="monospace" font-size="14.00">  EX_LocalVariable [CallFunc_GetCheatManager_ReturnValue]</text>
<text text-anchor="start" x="2423" y="-276.3" font-family="monospace" font-size="14.00">  EX_CallMath import /Script/FSD&#45;&gt;FSDWidgetBlueprintLibrary&#45;&gt;GetCheatManager</text>
<text text-anchor="start" x="2423" y="-261.3" font-family="monospace" font-size="14.00">    EX_Self</text>
</g>
<!-- ExecuteUbergraph_Cheat_ScriptedWave__31 -->
<g id="node5" class="node">
<title>ExecuteUbergraph_Cheat_ScriptedWave__31</title>
<polygon fill="#eeeeee" stroke="black" points="2215.5,-148.5 2215.5,-216.5 2850.5,-216.5 2850.5,-148.5 2215.5,-148.5"/>
<text text-anchor="start" x="2223.5" y="-201.3" font-family="monospace" font-size="14.00">EX_Context</text>
<text text-anchor="start" x="2223.5" y="-186.3" font-family="monospace" font-size="14.00">  EX_LocalVariable [CallFunc_GetCheatManager_ReturnValue]</text>
<text text-anchor="start" x="2223.5" y="-171.3" font-family="monospace" font-size="14.00">  EX_FinalFunction import /Script/FSD&#45;&gt;FSDCheatManager&#45;&gt;C_SpawnScriptedWave</text>
<text text-anchor="start" x="2223.5" y="-156.3" font-family="monospace" font-size="14.00">  RValue = []</text>
</g>
<!-- ExecuteUbergraph_Cheat_ScriptedWave__10&#45;&gt;ExecuteUbergraph_Cheat_ScriptedWave__31 -->
<g id="edge2" class="edge">
<title>ExecuteUbergraph_Cheat_ScriptedWave__10&#45;&gt;ExecuteUbergraph_Cheat_ScriptedWave__31</title>
<path fill="none" stroke="black" d="M2671.89,-253.63C2651.65,-243.41 2629.17,-232.06 2608.29,-221.51"/>
<polygon fill="black" stroke="black" points="2610.04,-218.48 2599.54,-217.1 2606.89,-224.73 2610.04,-218.48"/>
</g>
<!-- ExecuteUbergraph_Cheat_ScriptedWave__63 -->
<g id="node6" class="node">
<title>ExecuteUbergraph_Cheat_ScriptedWave__63</title>
<polygon fill="#eeeeee" stroke="black" points="2145.5,-75.5 2145.5,-111.5 2244.5,-111.5 2244.5,-75.5 2145.5,-75.5"/>
<text text-anchor="start" x="2153.5" y="-89.8" font-family="monospace" font-size="14.00">EX_Jump 68</text>
</g>
<!-- ExecuteUbergraph_Cheat_ScriptedWave__31&#45;&gt;ExecuteUbergraph_Cheat_ScriptedWave__63 -->
<g id="edge3" class="edge">
<title>ExecuteUbergraph_Cheat_ScriptedWave__31&#45;&gt;ExecuteUbergraph_Cheat_ScriptedWave__63</title>
<path fill="none" stroke="black" d="M2395.39,-148.5C2353.23,-138.07 2306.54,-126.21 2255.23,-112.28"/>
<polygon fill="black" stroke="black" points="2256.24,-108.92 2245.67,-109.67 2254.4,-115.68 2256.24,-108.92"/>
</g>
<!-- ExecuteUbergraph_Cheat_ScriptedWave__68 -->
<g id="node7" class="node">
<title>ExecuteUbergraph_Cheat_ScriptedWave__68</title>
<polygon fill="#eeeeee" stroke="black" points="1964,-0.5 1964,-38.5 2080,-38.5 2080,-0.5 1964,-0.5"/>
<text text-anchor="start" x="1972" y="-23.3" font-family="monospace" font-size="14.00">EX_Return</text>
<text text-anchor="start" x="1972" y="-8.3" font-family="monospace" font-size="14.00">  EX_Nothing</text>
</g>
<!-- ExecuteUbergraph_Cheat_ScriptedWave__63&#45;&gt;ExecuteUbergraph_Cheat_ScriptedWave__68 -->
<g id="edge4" class="edge">
<title>ExecuteUbergraph_Cheat_ScriptedWave__63&#45;&gt;ExecuteUbergraph_Cheat_ScriptedWave__68</title>
<path fill="none" stroke="black" d="M2154.44,-75.62C2130.93,-65.84 2101.05,-53.4 2075.62,-42.82"/>
<polygon fill="black" stroke="black" points="2077,-39.6 2066.42,-38.99 2074.31,-46.06 2077,-39.6"/>
</g>
<!-- ExecuteUbergraph_Cheat_ScriptedWave__70 -->
<g id="node8" class="node">
<title>ExecuteUbergraph_Cheat_ScriptedWave__70</title>
<polygon fill="#eeeeee" stroke="black" points="2869,-164.5 2869,-200.5 3001,-200.5 3001,-164.5 2869,-164.5"/>
<text text-anchor="start" x="2877" y="-178.8" font-family="monospace" font-size="14.00">EX_EndOfScript</text>
</g>
<!-- BndEvt__CheatMenu_BasicButtonWText_K2Node_ComponentBoundEvent_1_OnClicked__DelegateSignature -->
<g id="node9" class="node">
<title>BndEvt__CheatMenu_BasicButtonWText_K2Node_ComponentBoundEvent_1_OnClicked__DelegateSignature</title>
<polygon fill="#ff8888" stroke="black" points="1949,-538.5 1949,-591.5 2799,-591.5 2799,-538.5 1949,-538.5"/>
<text text-anchor="start" x="1957" y="-576.3" font-family="monospace" font-size="14.00">Function BndEvt__CheatMenu_BasicButtonWText_K2Node_ComponentBoundEvent_1_OnClicked__DelegateSignature</text>
<text text-anchor="start" x="1957" y="-561.3" font-family="monospace" font-size="14.00">  ObjectProperty Button</text>
<text text-anchor="start" x="1957" y="-546.3" font-family="monospace" font-size="14.00">    CPF_BlueprintVisible|CPF_BlueprintReadOnly|CPF_Parm|CPF_InstancedReference</text>
</g>
<!-- BndEvt__CheatMenu_BasicButtonWText_K2Node_ComponentBoundEvent_1_OnClicked__DelegateSignature__0 -->
<g id="node10" class="node">
<title>BndEvt__CheatMenu_BasicButtonWText_K2Node_ComponentBoundEvent_1_OnClicked__DelegateSignature__0</title>
<polygon fill="#eeeeee" stroke="black" points="2101.5,-433.5 2101.5,-471.5 2646.5,-471.5 2646.5,-433.5 2101.5,-433.5"/>
<text text-anchor="start" x="2109.5" y="-456.3" font-family="monospace" font-size="14.00">EX_LetValueOnPersistentFrame [K2Node_ComponentBoundEvent_Button]</text>
<text text-anchor="start" x="2109.5" y="-441.3" font-family="monospace" font-size="14.00">  EX_LocalVariable [Button]</text>
</g>
<!-- BndEvt__CheatMenu_BasicButtonWText_K2Node_ComponentBoundEvent_1_OnClicked__DelegateSignature&#45;&gt;BndEvt__CheatMenu_BasicButtonWText_K2Node_ComponentBoundEvent_1_OnClicked__DelegateSignature__0 -->
<g id="edge5" class="edge">
<title>BndEvt__CheatMenu_BasicButtonWText_K2Node_ComponentBoundEvent_1_OnClicked__DelegateSignature&#45;&gt;BndEvt__CheatMenu_BasicButtonWText_K2Node_ComponentBoundEvent_1_OnClicked__DelegateSignature__0</title>
<path fill="none" stroke="black" d="M2374,-538.65C2374,-522.06 2374,-500.32 2374,-482.96"/>
<polygon fill="black" stroke="black" points="2377.5,-483.01 2374,-473.01 2370.5,-483.01 2377.5,-483.01"/>
</g>
<!-- BndEvt__CheatMenu_BasicButtonWText_K2Node_ComponentBoundEvent_1_OnClicked__DelegateSignature__18 -->
<g id="node11" class="node">
<title>BndEvt__CheatMenu_BasicButtonWText_K2Node_ComponentBoundEvent_1_OnClicked__DelegateSignature__18</title>
<polygon fill="#eeeeee" stroke="black" points="2011,-358.5 2011,-396.5 2737,-396.5 2737,-358.5 2011,-358.5"/>
<text text-anchor="start" x="2019" y="-381.3" font-family="monospace" font-size="14.00">EX_LocalFinalFunction export Cheat_ScriptedWave_C&#45;&gt;ExecuteUbergraph_Cheat_ScriptedWave</text>
<text text-anchor="start" x="2019" y="-366.3" font-family="monospace" font-size="14.00">  EX_IntConst 10</text>
</g>
<!-- BndEvt__CheatMenu_BasicButtonWText_K2Node_ComponentBoundEvent_1_OnClicked__DelegateSignature__0&#45;&gt;BndEvt__CheatMenu_BasicButtonWText_K2Node_ComponentBoundEvent_1_OnClicked__DelegateSignature__18 -->
<g id="edge6" class="edge">
<title>BndEvt__CheatMenu_BasicButtonWText_K2Node_ComponentBoundEvent_1_OnClicked__DelegateSignature__0&#45;&gt;BndEvt__CheatMenu_BasicButtonWText_K2Node_ComponentBoundEvent_1_OnClicked__DelegateSignature__18</title>
<path fill="none" stroke="black" d="M2374,-433.83C2374,-426 2374,-416.57 2374,-407.74"/>
<polygon fill="black" stroke="black" points="2377.5,-407.78 2374,-397.78 2370.5,-407.78 2377.5,-407.78"/>
</g>
<!-- BndEvt__CheatMenu_BasicButtonWText_K2Node_ComponentBoundEvent_1_OnClicked__DelegateSignature__18&#45;&gt;ExecuteUbergraph_Cheat_ScriptedWave__10 -->
<g id="edge7" class="edge">
<title>BndEvt__CheatMenu_BasicButtonWText_K2Node_ComponentBoundEvent_1_OnClicked__DelegateSignature__18:e&#45;&gt;ExecuteUbergraph_Cheat_ScriptedWave__10</title>
<path fill="none" stroke="red" d="M2738,-377.5C2757.99,-377.5 2757.52,-354.78 2752.17,-332.3"/>
<polygon fill="none" stroke="red" points="2755.6,-331.59 2749.61,-322.85 2748.85,-333.42 2755.6,-331.59"/>
</g>
<!-- BndEvt__CheatMenu_BasicButtonWText_K2Node_ComponentBoundEvent_1_OnClicked__DelegateSignature__33 -->
<g id="node12" class="node">
<title>BndEvt__CheatMenu_BasicButtonWText_K2Node_ComponentBoundEvent_1_OnClicked__DelegateSignature__33</title>
<polygon fill="#eeeeee" stroke="black" points="2281,-268.5 2281,-306.5 2397,-306.5 2397,-268.5 2281,-268.5"/>
<text text-anchor="start" x="2289" y="-291.3" font-family="monospace" font-size="14.00">EX_Return</text>
<text text-anchor="start" x="2289" y="-276.3" font-family="monospace" font-size="14.00">  EX_Nothing</text>
</g>
<!-- BndEvt__CheatMenu_BasicButtonWText_K2Node_ComponentBoundEvent_1_OnClicked__DelegateSignature__18&#45;&gt;BndEvt__CheatMenu_BasicButtonWText_K2Node_ComponentBoundEvent_1_OnClicked__DelegateSignature__33 -->
<g id="edge8" class="edge">
<title>BndEvt__CheatMenu_BasicButtonWText_K2Node_ComponentBoundEvent_1_OnClicked__DelegateSignature__18&#45;&gt;BndEvt__CheatMenu_BasicButtonWText_K2Node_ComponentBoundEvent_1_OnClicked__DelegateSignature__33</title>
<path fill="none" stroke="black" d="M2366.92,-358.69C2362.13,-346.64 2355.7,-330.48 2350.22,-316.7"/>
<polygon fill="black" stroke="black" points="2353.58,-315.69 2346.63,-307.69 2347.08,-318.27 2353.58,-315.69"/>
</g>
<!-- BndEvt__CheatMenu_BasicButtonWText_K2Node_ComponentBoundEvent_1_OnClicked__DelegateSignature__35 -->
<g id="node13" class="node">
<title>BndEvt__CheatMenu_BasicButtonWText_K2Node_ComponentBoundEvent_1_OnClicked__DelegateSignature__35</title>
<polygon fill="#eeeeee" stroke="black" points="2263,-75.5 2263,-111.5 2395,-111.5 2395,-75.5 2263,-75.5"/>
<text text-anchor="start" x="2271" y="-89.8" font-family="monospace" font-size="14.00">EX_EndOfScript</text>
</g>
<!-- Construct -->
<g id="node14" class="node">
<title>Construct</title>
<polygon fill="#ff8888" stroke="black" points="1537.5,-547 1537.5,-583 1702.5,-583 1702.5,-547 1537.5,-547"/>
<text text-anchor="start" x="1545.5" y="-561.3" font-family="monospace" font-size="14.00">Function Construct</text>
</g>
<!-- Construct__0 -->
<g id="node15" class="node">
<title>Construct__0</title>
<polygon fill="#eeeeee" stroke="black" points="1257,-433.5 1257,-471.5 1983,-471.5 1983,-433.5 1257,-433.5"/>
<text text-anchor="start" x="1265" y="-456.3" font-family="monospace" font-size="14.00">EX_LocalFinalFunction export Cheat_ScriptedWave_C&#45;&gt;ExecuteUbergraph_Cheat_ScriptedWave</text>
<text text-anchor="start" x="1265" y="-441.3" font-family="monospace" font-size="14.00">  EX_IntConst 68</text>
</g>
<!-- Construct&#45;&gt;Construct__0 -->
<g id="edge9" class="edge">
<title>Construct&#45;&gt;Construct__0</title>
<path fill="none" stroke="black" d="M1620,-547.22C1620,-530.06 1620,-503.07 1620,-482.45"/>
<polygon fill="black" stroke="black" points="1623.5,-482.69 1620,-472.69 1616.5,-482.69 1623.5,-482.69"/>
</g>
<!-- Construct__0&#45;&gt;ExecuteUbergraph_Cheat_ScriptedWave__68 -->
<g id="edge10" class="edge">
<title>Construct__0:e&#45;&gt;ExecuteUbergraph_Cheat_ScriptedWave__68</title>
<path fill="none" stroke="red" d="M1984,-452.5C2020.45,-452.5 1983,-324.95 1983,-288.5 1983,-288.5 1983,-288.5 1983,-181.5 1983,-133.86 1999.33,-80.46 2010.86,-48.7"/>
<polygon fill="none" stroke="red" points="2014.09,-50.04 2014.32,-39.45 2007.54,-47.59 2014.09,-50.04"/>
</g>
<!-- Construct__15 -->
<g id="node16" class="node">
<title>Construct__15</title>
<polygon fill="#eeeeee" stroke="black" points="1562,-358.5 1562,-396.5 1678,-396.5 1678,-358.5 1562,-358.5"/>
<text text-anchor="start" x="1570" y="-381.3" font-family="monospace" font-size="14.00">EX_Return</text>
<text text-anchor="start" x="1570" y="-366.3" font-family="monospace" font-size="14.00">  EX_Nothing</text>
</g>
<!-- Construct__0&#45;&gt;Construct__15 -->
<g id="edge11" class="edge">
<title>Construct__0&#45;&gt;Construct__15</title>
<path fill="none" stroke="black" d="M1620,-433.83C1620,-426 1620,-416.57 1620,-407.74"/>
<polygon fill="black" stroke="black" points="1623.5,-407.78 1620,-397.78 1616.5,-407.78 1623.5,-407.78"/>
</g>
<!-- Construct__17 -->
<g id="node17" class="node">
<title>Construct__17</title>
<polygon fill="#eeeeee" stroke="black" points="2098,-1.5 2098,-37.5 2230,-37.5 2230,-1.5 2098,-1.5"/>
<text text-anchor="start" x="2106" y="-15.8" font-family="monospace" font-size="14.00">EX_EndOfScript</text>
</g>
</g>
</svg>
