<?xml version="1.0" encoding="UTF-8" standalone="no"?>
<!DOCTYPE svg PUBLIC "-//W3C//DTD SVG 1.1//EN"
 "http://www.w3.org/Graphics/SVG/1.1/DTD/svg11.dtd">
<!-- Generated by graphviz version 7.0.1 (0)
 -->
<!-- Pages: 1 -->
<svg width="3135pt" height="630pt"
 viewBox="0.00 0.00 3135.00 630.00" xmlns="http://www.w3.org/2000/svg" xmlns:xlink="http://www.w3.org/1999/xlink">
<g id="graph0" class="graph" transform="scale(1 1) rotate(0) translate(4 626)">
<polygon fill="white" stroke="none" points="-4,4 -4,-626 3131,-626 3131,4 -4,4"/>
<!-- Cheat_JumpToNextRoom_C -->
<g id="node1" class="node">
<title>Cheat_JumpToNextRoom_C</title>
<polygon fill="#88ff88" stroke="black" points="0,-508.5 0,-621.5 850,-621.5 850,-508.5 0,-508.5"/>
<text text-anchor="start" x="8" y="-606.3" font-family="monospace" font-size="14.00">ClassExport: Cheat_JumpToNextRoom_C</text>
<text text-anchor="start" x="8" y="-591.3" font-family="monospace" font-size="14.00">  SuperStruct: import /Script/UMG&#45;&gt;UserWidget</text>
<text text-anchor="start" x="8" y="-576.3" font-family="monospace" font-size="14.00">  Properties:</text>
<text text-anchor="start" x="8" y="-561.3" font-family="monospace" font-size="14.00">    StructProperty UberGraphFrame</text>
<text text-anchor="start" x="8" y="-546.3" font-family="monospace" font-size="14.00">      CPF_Transient|CPF_DuplicateTransient</text>
<text text-anchor="start" x="8" y="-531.3" font-family="monospace" font-size="14.00">    ObjectProperty CheatMenu_BasicButtonWText</text>
<text text-anchor="start" x="8" y="-516.3" font-family="monospace" font-size="14.00">      CPF_BlueprintVisible|CPF_ExportObject|CPF_InstancedReference|CPF_RepSkip|CPF_PersistentInstance</text>
</g>
<!-- ExecuteUbergraph_Cheat_JumpToNextRoom -->
<g id="node2" class="node">
<title>ExecuteUbergraph_Cheat_JumpToNextRoom</title>
<polygon fill="#ff8888" stroke="black" points="868,-516 868,-614 1338,-614 1338,-516 868,-516"/>
<text text-anchor="start" x="876" y="-598.8" font-family="monospace" font-size="14.00">Function ExecuteUbergraph_Cheat_JumpToNextRoom</text>
<text text-anchor="start" x="876" y="-583.8" font-family="monospace" font-size="14.00">  IntProperty EntryPoint</text>
<text text-anchor="start" x="876" y="-568.8" font-family="monospace" font-size="14.00">    CPF_BlueprintVisible|CPF_BlueprintReadOnly|CPF_Parm</text>
<text text-anchor="start" x="876" y="-553.8" font-family="monospace" font-size="14.00">  ObjectProperty K2Node_ComponentBoundEvent_Button</text>
<text text-anchor="start" x="876" y="-538.8" font-family="monospace" font-size="14.00">    CPF_InstancedReference</text>
<text text-anchor="start" x="876" y="-523.8" font-family="monospace" font-size="14.00">  ObjectProperty CallFunc_GetCheatManager_ReturnValue</text>
</g>
<!-- ExecuteUbergraph_Cheat_JumpToNextRoom__0 -->
<g id="node3" class="node">
<title>ExecuteUbergraph_Cheat_JumpToNextRoom__0</title>
<polygon fill="#eeeeee" stroke="black" points="967,-433.5 967,-471.5 1239,-471.5 1239,-433.5 967,-433.5"/>
<text text-anchor="start" x="975" y="-456.3" font-family="monospace" font-size="14.00">EX_ComputedJump</text>
<text text-anchor="start" x="975" y="-441.3" font-family="monospace" font-size="14.00">  EX_LocalVariable [EntryPoint]</text>
</g>
<!-- ExecuteUbergraph_Cheat_JumpToNextRoom&#45;&gt;ExecuteUbergraph_Cheat_JumpToNextRoom__0 -->
<g id="edge1" class="edge">
<title>ExecuteUbergraph_Cheat_JumpToNextRoom&#45;&gt;ExecuteUbergraph_Cheat_JumpToNextRoom__0</title>
<path fill="none" stroke="black" d="M1103,-516.18C1103,-504.77 1103,-492.94 1103,-482.67"/>
<polygon fill="black" stroke="black" points="1106.5,-482.96 1103,-472.96 1099.5,-482.96 1106.5,-482.96"/>
</g>
<!-- ExecuteUbergraph_Cheat_JumpToNextRoom__10 -->
<g id="node4" class="node">
<title>ExecuteUbergraph_Cheat_JumpToNextRoom__10</title>
<polygon fill="#eeeeee" stroke="black" points="2483,-253.5 2483,-321.5 3127,-321.5 3127,-253.5 2483,-253.5"/>
<text text-anchor="start" x="2491" y="-306.3" font-family="monospace" font-size="14.00">EX_LetObj</text>
<text text-anchor="start" x="2491" y="-291.3" font-family="monospace" font-size="14.00">  EX_LocalVariable [CallFunc_GetCheatManager_ReturnValue]</text>
<text text-anchor="start" x="2491" y="-276.3" font-family="monospace" font-size="14.00">  EX_CallMath import /Script/FSD&#45;&gt;FSDWidgetBlueprintLibrary&#45;&gt;GetCheatManager</text>
<text text-anchor="start" x="2491" y="-261.3" font-family="monospace" font-size="14.00">    EX_Self</text>
</g>
<!-- ExecuteUbergraph_Cheat_JumpToNextRoom__31 -->
<g id="node5" class="node">
<title>ExecuteUbergraph_Cheat_JumpToNextRoom__31</title>
<polygon fill="#eeeeee" stroke="black" points="2272.5,-148.5 2272.5,-216.5 2883.5,-216.5 2883.5,-148.5 2272.5,-148.5"/>
<text text-anchor="start" x="2280.5" y="-201.3" font-family="monospace" font-size="14.00">EX_Context</text>
<text text-anchor="start" x="2280.5" y="-186.3" font-family="monospace" font-size="14.00">  EX_LocalVariable [CallFunc_GetCheatManager_ReturnValue]</text>
<text text-anchor="start" x="2280.5" y="-171.3" font-family="monospace" font-size="14.00">  EX_FinalFunction import /Script/FSD&#45;&gt;FSDCheatManager&#45;&gt;C_JumpToNextRoom</text>
<text text-anchor="start" x="2280.5" y="-156.3" font-family="monospace" font-size="14.00">  RValue = []</text>
</g>
<!-- ExecuteUbergraph_Cheat_JumpToNextRoom__10&#45;&gt;ExecuteUbergraph_Cheat_JumpToNextRoom__31 -->
<g id="edge2" class="edge">
<title>ExecuteUbergraph_Cheat_JumpToNextRoom__10&#45;&gt;ExecuteUbergraph_Cheat_JumpToNextRoom__31</title>
<path fill="none" stroke="black" d="M2732.55,-253.63C2709.72,-243.27 2684.33,-231.75 2660.83,-221.08"/>
<polygon fill="black" stroke="black" points="2662.47,-217.98 2651.92,-217.04 2659.58,-224.36 2662.47,-217.98"/>
</g>
<!-- ExecuteUbergraph_Cheat_JumpToNextRoom__63 -->
<g id="node6" class="node">
<title>ExecuteUbergraph_Cheat_JumpToNextRoom__63</title>
<polygon fill="#eeeeee" stroke="black" points="2173.5,-75.5 2173.5,-111.5 2272.5,-111.5 2272.5,-75.5 2173.5,-75.5"/>
<text text-anchor="start" x="2181.5" y="-89.8" font-family="monospace" font-size="14.00">EX_Jump 68</text>
</g>
<!-- ExecuteUbergraph_Cheat_JumpToNextRoom__31&#45;&gt;ExecuteUbergraph_Cheat_JumpToNextRoom__63 -->
<g id="edge3" class="edge">
<title>ExecuteUbergraph_Cheat_JumpToNextRoom__31&#45;&gt;ExecuteUbergraph_Cheat_JumpToNextRoom__63</title>
<path fill="none" stroke="black" d="M2430.03,-148.52C2385.66,-138.2 2336.72,-126.37 2283.3,-112.27"/>
<polygon fill="black" stroke="black" points="2284.22,-108.89 2273.66,-109.71 2282.43,-115.66 2284.22,-108.89"/>
</g>
<!-- ExecuteUbergraph_Cheat_JumpToNextRoom__68 -->
<g id="node7" class="node">
<title>ExecuteUbergraph_Cheat_JumpToNextRoom__68</title>
<polygon fill="#eeeeee" stroke="black" points="1998,-0.5 1998,-38.5 2114,-38.5 2114,-0.5 1998,-0.5"/>
<text text-anchor="start" x="2006" y="-23.3" font-family="monospace" font-size="14.00">EX_Return</text>
<text text-anchor="start" x="2006" y="-8.3" font-family="monospace" font-size="14.00">  EX_Nothing</text>
</g>
<!-- ExecuteUbergraph_Cheat_JumpToNextRoom__63&#45;&gt;ExecuteUbergraph_Cheat_JumpToNextRoom__68 -->
<g id="edge4" class="edge">
<title>ExecuteUbergraph_Cheat_JumpToNextRoom__63&#45;&gt;ExecuteUbergraph_Cheat_JumpToNextRoom__68</title>
<path fill="none" stroke="black" d="M2183.85,-75.62C2161.26,-65.88 2132.56,-53.51 2108.09,-42.96"/>
<polygon fill="black" stroke="black" points="2109.49,-39.75 2098.92,-39.01 2106.72,-46.18 2109.49,-39.75"/>
</g>
<!-- ExecuteUbergraph_Cheat_JumpToNextRoom__70 -->
<g id="node8" class="node">
<title>ExecuteUbergraph_Cheat_JumpToNextRoom__70</title>
<polygon fill="#eeeeee" stroke="black" points="2902,-164.5 2902,-200.5 3034,-200.5 3034,-164.5 2902,-164.5"/>
<text text-anchor="start" x="2910" y="-178.8" font-family="monospace" font-size="14.00">EX_EndOfScript</text>
</g>
<!-- BndEvt__CheatMenu_BasicButtonWText_K2Node_ComponentBoundEvent_0_OnClicked__DelegateSignature -->
<g id="node9" class="node">
<title>BndEvt__CheatMenu_BasicButtonWText_K2Node_ComponentBoundEvent_0_OnClicked__DelegateSignature</title>
<polygon fill="#ff8888" stroke="black" points="2000,-538.5 2000,-591.5 2850,-591.5 2850,-538.5 2000,-538.5"/>
<text text-anchor="start" x="2008" y="-576.3" font-family="monospace" font-size="14.00">Function BndEvt__CheatMenu_BasicButtonWText_K2Node_ComponentBoundEvent_0_OnClicked__DelegateSignature</text>
<text text-anchor="start" x="2008" y="-561.3" font-family="monospace" font-size="14.00">  ObjectProperty Button</text>
<text text-anchor="start" x="2008" y="-546.3" font-family="monospace" font-size="14.00">    CPF_BlueprintVisible|CPF_BlueprintReadOnly|CPF_Parm|CPF_InstancedReference</text>
</g>
<!-- BndEvt__CheatMenu_BasicButtonWText_K2Node_ComponentBoundEvent_0_OnClicked__DelegateSignature__0 -->
<g id="node10" class="node">
<title>BndEvt__CheatMenu_BasicButtonWText_K2Node_ComponentBoundEvent_0_OnClicked__DelegateSignature__0</title>
<polygon fill="#eeeeee" stroke="black" points="2152.5,-433.5 2152.5,-471.5 2697.5,-471.5 2697.5,-433.5 2152.5,-433.5"/>
<text text-anchor="start" x="2160.5" y="-456.3" font-family="monospace" font-size="14.00">EX_LetValueOnPersistentFrame [K2Node_ComponentBoundEvent_Button]</text>
<text text-anchor="start" x="2160.5" y="-441.3" font-family="monospace" font-size="14.00">  EX_LocalVariable [Button]</text>
</g>
<!-- BndEvt__CheatMenu_BasicButtonWText_K2Node_ComponentBoundEvent_0_OnClicked__DelegateSignature&#45;&gt;BndEvt__CheatMenu_BasicButtonWText_K2Node_ComponentBoundEvent_0_OnClicked__DelegateSignature__0 -->
<g id="edge5" class="edge">
<title>BndEvt__CheatMenu_BasicButtonWText_K2Node_ComponentBoundEvent_0_OnClicked__DelegateSignature&#45;&gt;BndEvt__CheatMenu_BasicButtonWText_K2Node_ComponentBoundEvent_0_OnClicked__DelegateSignature__0</title>
<path fill="none" stroke="black" d="M2425,-538.65C2425,-522.06 2425,-500.32 2425,-482.96"/>
<polygon fill="black" stroke="black" points="2428.5,-483.01 2425,-473.01 2421.5,-483.01 2428.5,-483.01"/>
</g>
<!-- BndEvt__CheatMenu_BasicButtonWText_K2Node_ComponentBoundEvent_0_OnClicked__DelegateSignature__18 -->
<g id="node11" class="node">
<title>BndEvt__CheatMenu_BasicButtonWText_K2Node_ComponentBoundEvent_0_OnClicked__DelegateSignature__18</title>
<polygon fill="#eeeeee" stroke="black" points="2045.5,-358.5 2045.5,-396.5 2804.5,-396.5 2804.5,-358.5 2045.5,-358.5"/>
<text text-anchor="start" x="2053.5" y="-381.3" font-family="monospace" font-size="14.00">EX_LocalFinalFunction export Cheat_JumpToNextRoom_C&#45;&gt;ExecuteUbergraph_Cheat_JumpToNextRoom</text>
<text text-anchor="start" x="2053.5" y="-366.3" font-family="monospace" font-size="14.00">  EX_IntConst 10</text>
</g>
<!-- BndEvt__CheatMenu_BasicButtonWText_K2Node_ComponentBoundEvent_0_OnClicked__DelegateSignature__0&#45;&gt;BndEvt__CheatMenu_BasicButtonWText_K2Node_ComponentBoundEvent_0_OnClicked__DelegateSignature__18 -->
<g id="edge6" class="edge">
<title>BndEvt__CheatMenu_BasicButtonWText_K2Node_ComponentBoundEvent_0_OnClicked__DelegateSignature__0&#45;&gt;BndEvt__CheatMenu_BasicButtonWText_K2Node_ComponentBoundEvent_0_OnClicked__DelegateSignature__18</title>
<path fill="none" stroke="black" d="M2425,-433.83C2425,-426 2425,-416.57 2425,-407.74"/>
<polygon fill="black" stroke="black" points="2428.5,-407.78 2425,-397.78 2421.5,-407.78 2428.5,-407.78"/>
</g>
<!-- BndEvt__CheatMenu_BasicButtonWText_K2Node_ComponentBoundEvent_0_OnClicked__DelegateSignature__18&#45;&gt;ExecuteUbergraph_Cheat_JumpToNextRoom__10 -->
<g id="edge7" class="edge">
<title>BndEvt__CheatMenu_BasicButtonWText_K2Node_ComponentBoundEvent_0_OnClicked__DelegateSignature__18:e&#45;&gt;ExecuteUbergraph_Cheat_JumpToNextRoom__10</title>
<path fill="none" stroke="red" d="M2806,-377.5C2825.99,-377.5 2825.52,-354.78 2820.17,-332.3"/>
<polygon fill="none" stroke="red" points="2823.6,-331.59 2817.61,-322.85 2816.85,-333.42 2823.6,-331.59"/>
</g>
<!-- BndEvt__CheatMenu_BasicButtonWText_K2Node_ComponentBoundEvent_0_OnClicked__DelegateSignature__33 -->
<g id="node12" class="node">
<title>BndEvt__CheatMenu_BasicButtonWText_K2Node_ComponentBoundEvent_0_OnClicked__DelegateSignature__33</title>
<polygon fill="#eeeeee" stroke="black" points="2349,-268.5 2349,-306.5 2465,-306.5 2465,-268.5 2349,-268.5"/>
<text text-anchor="start" x="2357" y="-291.3" font-family="monospace" font-size="14.00">EX_Return</text>
<text text-anchor="start" x="2357" y="-276.3" font-family="monospace" font-size="14.00">  EX_Nothing</text>
</g>
<!-- BndEvt__CheatMenu_BasicButtonWText_K2Node_ComponentBoundEvent_0_OnClicked__DelegateSignature__18&#45;&gt;BndEvt__CheatMenu_BasicButtonWText_K2Node_ComponentBoundEvent_0_OnClicked__DelegateSignature__33 -->
<g id="edge8" class="edge">
<title>BndEvt__CheatMenu_BasicButtonWText_K2Node_ComponentBoundEvent_0_OnClicked__DelegateSignature__18&#45;&gt;BndEvt__CheatMenu_BasicButtonWText_K2Node_ComponentBoundEvent_0_OnClicked__DelegateSignature__33</title>
<path fill="none" stroke="black" d="M2421.36,-358.69C2418.94,-346.88 2415.72,-331.12 2412.94,-317.52"/>
<polygon fill="black" stroke="black" points="2416.37,-316.86 2410.94,-307.76 2409.52,-318.26 2416.37,-316.86"/>
</g>
<!-- BndEvt__CheatMenu_BasicButtonWText_K2Node_ComponentBoundEvent_0_OnClicked__DelegateSignature__35 -->
<g id="node13" class="node">
<title>BndEvt__CheatMenu_BasicButtonWText_K2Node_ComponentBoundEvent_0_OnClicked__DelegateSignature__35</title>
<polygon fill="#eeeeee" stroke="black" points="2291,-75.5 2291,-111.5 2423,-111.5 2423,-75.5 2291,-75.5"/>
<text text-anchor="start" x="2299" y="-89.8" font-family="monospace" font-size="14.00">EX_EndOfScript</text>
</g>
<!-- Construct -->
<g id="node14" class="node">
<title>Construct</title>
<polygon fill="#ff8888" stroke="black" points="1554.5,-547 1554.5,-583 1719.5,-583 1719.5,-547 1554.5,-547"/>
<text text-anchor="start" x="1562.5" y="-561.3" font-family="monospace" font-size="14.00">Function Construct</text>
</g>
<!-- Construct__0 -->
<g id="node15" class="node">
<title>Construct__0</title>
<polygon fill="#eeeeee" stroke="black" points="1257.5,-433.5 1257.5,-471.5 2016.5,-471.5 2016.5,-433.5 1257.5,-433.5"/>
<text text-anchor="start" x="1265.5" y="-456.3" font-family="monospace" font-size="14.00">EX_LocalFinalFunction export Cheat_JumpToNextRoom_C&#45;&gt;ExecuteUbergraph_Cheat_JumpToNextRoom</text>
<text text-anchor="start" x="1265.5" y="-441.3" font-family="monospace" font-size="14.00">  EX_IntConst 68</text>
</g>
<!-- Construct&#45;&gt;Construct__0 -->
<g id="edge9" class="edge">
<title>Construct&#45;&gt;Construct__0</title>
<path fill="none" stroke="black" d="M1637,-547.22C1637,-530.06 1637,-503.07 1637,-482.45"/>
<polygon fill="black" stroke="black" points="1640.5,-482.69 1637,-472.69 1633.5,-482.69 1640.5,-482.69"/>
</g>
<!-- Construct__0&#45;&gt;ExecuteUbergraph_Cheat_JumpToNextRoom__68 -->
<g id="edge10" class="edge">
<title>Construct__0:e&#45;&gt;ExecuteUbergraph_Cheat_JumpToNextRoom__68</title>
<path fill="none" stroke="red" d="M2018,-452.5C2054.45,-452.5 2017,-324.95 2017,-288.5 2017,-288.5 2017,-288.5 2017,-181.5 2017,-133.86 2033.33,-80.46 2044.86,-48.7"/>
<polygon fill="none" stroke="red" points="2048.09,-50.04 2048.32,-39.45 2041.54,-47.59 2048.09,-50.04"/>
</g>
<!-- Construct__15 -->
<g id="node16" class="node">
<title>Construct__15</title>
<polygon fill="#eeeeee" stroke="black" points="1579,-358.5 1579,-396.5 1695,-396.5 1695,-358.5 1579,-358.5"/>
<text text-anchor="start" x="1587" y="-381.3" font-family="monospace" font-size="14.00">EX_Return</text>
<text text-anchor="start" x="1587" y="-366.3" font-family="monospace" font-size="14.00">  EX_Nothing</text>
</g>
<!-- Construct__0&#45;&gt;Construct__15 -->
<g id="edge11" class="edge">
<title>Construct__0&#45;&gt;Construct__15</title>
<path fill="none" stroke="black" d="M1637,-433.83C1637,-426 1637,-416.57 1637,-407.74"/>
<polygon fill="black" stroke="black" points="1640.5,-407.78 1637,-397.78 1633.5,-407.78 1640.5,-407.78"/>
</g>
<!-- Construct__17 -->
<g id="node17" class="node">
<title>Construct__17</title>
<polygon fill="#eeeeee" stroke="black" points="2132,-1.5 2132,-37.5 2264,-37.5 2264,-1.5 2132,-1.5"/>
<text text-anchor="start" x="2140" y="-15.8" font-family="monospace" font-size="14.00">EX_EndOfScript</text>
</g>
</g>
</svg>
