<?xml version="1.0" encoding="UTF-8" standalone="no"?>
<!DOCTYPE svg PUBLIC "-//W3C//DTD SVG 1.1//EN"
 "http://www.w3.org/Graphics/SVG/1.1/DTD/svg11.dtd">
<!-- Generated by graphviz version 7.0.1 (0)
 -->
<!-- Pages: 1 -->
<svg width="2761pt" height="1597pt"
 viewBox="0.00 0.00 2761.00 1597.00" xmlns="http://www.w3.org/2000/svg" xmlns:xlink="http://www.w3.org/1999/xlink">
<g id="graph0" class="graph" transform="scale(1 1) rotate(0) translate(4 1593)">
<polygon fill="white" stroke="none" points="-4,4 -4,-1593 2757,-1593 2757,4 -4,4"/>
<!-- Cheat_LevelScale_C -->
<g id="node1" class="node">
<title>Cheat_LevelScale_C</title>
<polygon fill="#88ff88" stroke="black" points="0,-1438 0,-1581 850,-1581 850,-1438 0,-1438"/>
<text text-anchor="start" x="8" y="-1565.8" font-family="monospace" font-size="14.00">ClassExport: Cheat_LevelScale_C</text>
<text text-anchor="start" x="8" y="-1550.8" font-family="monospace" font-size="14.00">  SuperStruct: import /Script/FSD&#45;&gt;FSDUserWidget</text>
<text text-anchor="start" x="8" y="-1535.8" font-family="monospace" font-size="14.00">  Properties:</text>
<text text-anchor="start" x="8" y="-1520.8" font-family="monospace" font-size="14.00">    StructProperty UberGraphFrame</text>
<text text-anchor="start" x="8" y="-1505.8" font-family="monospace" font-size="14.00">      CPF_Transient|CPF_DuplicateTransient</text>
<text text-anchor="start" x="8" y="-1490.8" font-family="monospace" font-size="14.00">    ObjectProperty TextBlock_0</text>
<text text-anchor="start" x="8" y="-1475.8" font-family="monospace" font-size="14.00">      CPF_BlueprintVisible|CPF_ExportObject|CPF_InstancedReference|CPF_RepSkip|CPF_PersistentInstance</text>
<text text-anchor="start" x="8" y="-1460.8" font-family="monospace" font-size="14.00">    ObjectProperty Resource</text>
<text text-anchor="start" x="8" y="-1445.8" font-family="monospace" font-size="14.00">      CPF_Edit|CPF_BlueprintVisible|CPF_ExposeOnSpawn</text>
</g>
<!-- ExecuteUbergraph_Cheat_LevelScale -->
<g id="node2" class="node">
<title>ExecuteUbergraph_Cheat_LevelScale</title>
<polygon fill="#ff8888" stroke="black" points="868.5,-1430.5 868.5,-1588.5 1347.5,-1588.5 1347.5,-1430.5 868.5,-1430.5"/>
<text text-anchor="start" x="876.5" y="-1573.3" font-family="monospace" font-size="14.00">Function ExecuteUbergraph_Cheat_LevelScale</text>
<text text-anchor="start" x="876.5" y="-1558.3" font-family="monospace" font-size="14.00">  IntProperty EntryPoint</text>
<text text-anchor="start" x="876.5" y="-1543.3" font-family="monospace" font-size="14.00">    CPF_BlueprintVisible|CPF_BlueprintReadOnly|CPF_Parm</text>
<text text-anchor="start" x="876.5" y="-1528.3" font-family="monospace" font-size="14.00">  ObjectProperty CallFunc_GetProceduralSetup_ReturnValue</text>
<text text-anchor="start" x="876.5" y="-1513.3" font-family="monospace" font-size="14.00">  BoolProperty CallFunc_IsValid_ReturnValue</text>
<text text-anchor="start" x="876.5" y="-1498.3" font-family="monospace" font-size="14.00">  FloatProperty CallFunc_Multiply_FloatFloat_ReturnValue</text>
<text text-anchor="start" x="876.5" y="-1483.3" font-family="monospace" font-size="14.00">  IntProperty CallFunc_Round_ReturnValue</text>
<text text-anchor="start" x="876.5" y="-1468.3" font-family="monospace" font-size="14.00">  StrProperty CallFunc_Conv_IntToString_ReturnValue</text>
<text text-anchor="start" x="876.5" y="-1453.3" font-family="monospace" font-size="14.00">  StrProperty CallFunc_Concat_StrStr_ReturnValue</text>
<text text-anchor="start" x="876.5" y="-1438.3" font-family="monospace" font-size="14.00">  TextProperty CallFunc_Conv_StringToText_ReturnValue</text>
</g>
<!-- ExecuteUbergraph_Cheat_LevelScale__0 -->
<g id="node3" class="node">
<title>ExecuteUbergraph_Cheat_LevelScale__0</title>
<polygon fill="#eeeeee" stroke="black" points="972,-1318.5 972,-1356.5 1244,-1356.5 1244,-1318.5 972,-1318.5"/>
<text text-anchor="start" x="980" y="-1341.3" font-family="monospace" font-size="14.00">EX_ComputedJump</text>
<text text-anchor="start" x="980" y="-1326.3" font-family="monospace" font-size="14.00">  EX_LocalVariable [EntryPoint]</text>
</g>
<!-- ExecuteUbergraph_Cheat_LevelScale&#45;&gt;ExecuteUbergraph_Cheat_LevelScale__0 -->
<g id="edge1" class="edge">
<title>ExecuteUbergraph_Cheat_LevelScale&#45;&gt;ExecuteUbergraph_Cheat_LevelScale__0</title>
<path fill="none" stroke="black" d="M1108,-1430.96C1108,-1408.45 1108,-1385.22 1108,-1367.69"/>
<polygon fill="black" stroke="black" points="1111.5,-1367.78 1108,-1357.78 1104.5,-1367.78 1111.5,-1367.78"/>
</g>
<!-- ExecuteUbergraph_Cheat_LevelScale__10 -->
<g id="node4" class="node">
<title>ExecuteUbergraph_Cheat_LevelScale__10</title>
<polygon fill="#eeeeee" stroke="black" points="2547.5,-979.5 2547.5,-1015.5 2654.5,-1015.5 2654.5,-979.5 2547.5,-979.5"/>
<text text-anchor="start" x="2555.5" y="-993.8" font-family="monospace" font-size="14.00">EX_Jump 360</text>
</g>
<!-- ExecuteUbergraph_Cheat_LevelScale__360 -->
<g id="node15" class="node">
<title>ExecuteUbergraph_Cheat_LevelScale__360</title>
<polygon fill="#eeeeee" stroke="black" points="2452,-0.5 2452,-38.5 2568,-38.5 2568,-0.5 2452,-0.5"/>
<text text-anchor="start" x="2460" y="-23.3" font-family="monospace" font-size="14.00">EX_Return</text>
<text text-anchor="start" x="2460" y="-8.3" font-family="monospace" font-size="14.00">  EX_Nothing</text>
</g>
<!-- ExecuteUbergraph_Cheat_LevelScale__10&#45;&gt;ExecuteUbergraph_Cheat_LevelScale__360 -->
<g id="edge2" class="edge">
<title>ExecuteUbergraph_Cheat_LevelScale__10&#45;&gt;ExecuteUbergraph_Cheat_LevelScale__360</title>
<path fill="none" stroke="black" d="M2600.18,-979.69C2599.29,-960 2598,-926.39 2598,-897.5 2598,-897.5 2598,-897.5 2598,-117 2598,-86.71 2574.04,-61.75 2551.12,-44.81"/>
<polygon fill="black" stroke="black" points="2553.21,-42.01 2543.01,-39.14 2549.2,-47.74 2553.21,-42.01"/>
</g>
<!-- ExecuteUbergraph_Cheat_LevelScale__15 -->
<g id="node5" class="node">
<title>ExecuteUbergraph_Cheat_LevelScale__15</title>
<polygon fill="#eeeeee" stroke="black" points="1669,-1176.5 1669,-1244.5 2337,-1244.5 2337,-1176.5 1669,-1176.5"/>
<text text-anchor="start" x="1677" y="-1229.3" font-family="monospace" font-size="14.00">EX_LetObj</text>
<text text-anchor="start" x="1677" y="-1214.3" font-family="monospace" font-size="14.00">  EX_LocalVariable [CallFunc_GetProceduralSetup_ReturnValue]</text>
<text text-anchor="start" x="1677" y="-1199.3" font-family="monospace" font-size="14.00">  EX_CallMath import /Script/FSD&#45;&gt;ProceduralFunctionLibrary&#45;&gt;GetProceduralSetup</text>
<text text-anchor="start" x="1677" y="-1184.3" font-family="monospace" font-size="14.00">    EX_Self</text>
</g>
<!-- ExecuteUbergraph_Cheat_LevelScale__36 -->
<g id="node6" class="node">
<title>ExecuteUbergraph_Cheat_LevelScale__36</title>
<polygon fill="#eeeeee" stroke="black" points="1810.5,-1034.5 1810.5,-1102.5 2363.5,-1102.5 2363.5,-1034.5 1810.5,-1034.5"/>
<text text-anchor="start" x="1818.5" y="-1087.3" font-family="monospace" font-size="14.00">EX_LetBool</text>
<text text-anchor="start" x="1818.5" y="-1072.3" font-family="monospace" font-size="14.00">  EX_LocalVariable [CallFunc_IsValid_ReturnValue]</text>
<text text-anchor="start" x="1818.5" y="-1057.3" font-family="monospace" font-size="14.00">  EX_CallMath import /Script/Engine&#45;&gt;KismetSystemLibrary&#45;&gt;IsValid</text>
<text text-anchor="start" x="1818.5" y="-1042.3" font-family="monospace" font-size="14.00">    EX_LocalVariable [CallFunc_GetProceduralSetup_ReturnValue]</text>
</g>
<!-- ExecuteUbergraph_Cheat_LevelScale__15&#45;&gt;ExecuteUbergraph_Cheat_LevelScale__36 -->
<g id="edge3" class="edge">
<title>ExecuteUbergraph_Cheat_LevelScale__15&#45;&gt;ExecuteUbergraph_Cheat_LevelScale__36</title>
<path fill="none" stroke="black" d="M2022.69,-1176.68C2034.28,-1157.37 2049.05,-1132.74 2061.52,-1111.97"/>
<polygon fill="black" stroke="black" points="2064.51,-1113.79 2066.65,-1103.42 2058.5,-1110.19 2064.51,-1113.79"/>
</g>
<!-- ExecuteUbergraph_Cheat_LevelScale__65 -->
<g id="node7" class="node">
<title>ExecuteUbergraph_Cheat_LevelScale__65</title>
<polygon fill="#eeeeee" stroke="black" points="1937.5,-922.5 1937.5,-960.5 2358.5,-960.5 2358.5,-922.5 1937.5,-922.5"/>
<text text-anchor="start" x="1945.5" y="-945.3" font-family="monospace" font-size="14.00">EX_JumpIfNot 360</text>
<text text-anchor="start" x="1945.5" y="-930.3" font-family="monospace" font-size="14.00">  EX_LocalVariable [CallFunc_IsValid_ReturnValue]</text>
</g>
<!-- ExecuteUbergraph_Cheat_LevelScale__36&#45;&gt;ExecuteUbergraph_Cheat_LevelScale__65 -->
<g id="edge4" class="edge">
<title>ExecuteUbergraph_Cheat_LevelScale__36&#45;&gt;ExecuteUbergraph_Cheat_LevelScale__65</title>
<path fill="none" stroke="black" d="M2103.03,-1034.66C2112.75,-1014.73 2125.03,-989.57 2134.3,-970.57"/>
<polygon fill="black" stroke="black" points="2137.33,-972.34 2138.57,-961.82 2131.04,-969.27 2137.33,-972.34"/>
</g>
<!-- ExecuteUbergraph_Cheat_LevelScale__79 -->
<g id="node8" class="node">
<title>ExecuteUbergraph_Cheat_LevelScale__79</title>
<polygon fill="#eeeeee" stroke="black" points="1814,-802.5 1814,-870.5 2482,-870.5 2482,-802.5 1814,-802.5"/>
<text text-anchor="start" x="1822" y="-855.3" font-family="monospace" font-size="14.00">EX_LetObj</text>
<text text-anchor="start" x="1822" y="-840.3" font-family="monospace" font-size="14.00">  EX_LocalVariable [CallFunc_GetProceduralSetup_ReturnValue]</text>
<text text-anchor="start" x="1822" y="-825.3" font-family="monospace" font-size="14.00">  EX_CallMath import /Script/FSD&#45;&gt;ProceduralFunctionLibrary&#45;&gt;GetProceduralSetup</text>
<text text-anchor="start" x="1822" y="-810.3" font-family="monospace" font-size="14.00">    EX_Self</text>
</g>
<!-- ExecuteUbergraph_Cheat_LevelScale__65&#45;&gt;ExecuteUbergraph_Cheat_LevelScale__79 -->
<g id="edge6" class="edge">
<title>ExecuteUbergraph_Cheat_LevelScale__65&#45;&gt;ExecuteUbergraph_Cheat_LevelScale__79</title>
<path fill="none" stroke="black" d="M2148,-922.56C2148,-911.19 2148,-895.95 2148,-881.52"/>
<polygon fill="black" stroke="black" points="2151.5,-881.72 2148,-871.72 2144.5,-881.72 2151.5,-881.72"/>
<text text-anchor="middle" x="2156.5" y="-892.8" font-family="monospace" font-size="14.00">IF</text>
</g>
<!-- ExecuteUbergraph_Cheat_LevelScale__65&#45;&gt;ExecuteUbergraph_Cheat_LevelScale__360 -->
<g id="edge5" class="edge">
<title>ExecuteUbergraph_Cheat_LevelScale__65:e&#45;&gt;ExecuteUbergraph_Cheat_LevelScale__360</title>
<path fill="none" stroke="red" d="M2360,-941.5C2441.12,-941.5 2510,-918.62 2510,-837.5 2510,-837.5 2510,-837.5 2510,-117 2510,-94.35 2510,-68.72 2510,-49.56"/>
<polygon fill="none" stroke="red" points="2513.5,-49.8 2510,-39.8 2506.5,-49.8 2513.5,-49.8"/>
<text text-anchor="middle" x="2535" y="-454.8" font-family="monospace" font-size="14.00">IF NOT</text>
</g>
<!-- ExecuteUbergraph_Cheat_LevelScale__100 -->
<g id="node9" class="node">
<title>ExecuteUbergraph_Cheat_LevelScale__100</title>
<polygon fill="#eeeeee" stroke="black" points="1837.5,-636.5 1837.5,-764.5 2472.5,-764.5 2472.5,-636.5 1837.5,-636.5"/>
<text text-anchor="start" x="1845.5" y="-749.3" font-family="monospace" font-size="14.00">EX_Let</text>
<text text-anchor="start" x="1845.5" y="-734.3" font-family="monospace" font-size="14.00">  EX_LocalVariable [CallFunc_Multiply_FloatFloat_ReturnValue]</text>
<text text-anchor="start" x="1845.5" y="-719.3" font-family="monospace" font-size="14.00">  EX_CallMath import /Script/Engine&#45;&gt;KismetMathLibrary&#45;&gt;Multiply_FloatFloat</text>
<text text-anchor="start" x="1845.5" y="-704.3" font-family="monospace" font-size="14.00">    EX_Context</text>
<text text-anchor="start" x="1845.5" y="-689.3" font-family="monospace" font-size="14.00">      EX_LocalVariable [CallFunc_GetProceduralSetup_ReturnValue]</text>
<text text-anchor="start" x="1845.5" y="-674.3" font-family="monospace" font-size="14.00">      EX_InstanceVariable [MissionLength]</text>
<text text-anchor="start" x="1845.5" y="-659.3" font-family="monospace" font-size="14.00">      RValue = [MissionLength]</text>
<text text-anchor="start" x="1845.5" y="-644.3" font-family="monospace" font-size="14.00">    EX_FloatConst 100</text>
</g>
<!-- ExecuteUbergraph_Cheat_LevelScale__79&#45;&gt;ExecuteUbergraph_Cheat_LevelScale__100 -->
<g id="edge7" class="edge">
<title>ExecuteUbergraph_Cheat_LevelScale__79&#45;&gt;ExecuteUbergraph_Cheat_LevelScale__100</title>
<path fill="none" stroke="black" d="M2149.71,-802.72C2150.15,-794.37 2150.64,-785.04 2151.13,-775.53"/>
<polygon fill="black" stroke="black" points="2154.61,-776 2151.64,-765.83 2147.62,-775.63 2154.61,-776"/>
</g>
<!-- ExecuteUbergraph_Cheat_LevelScale__164 -->
<g id="node10" class="node">
<title>ExecuteUbergraph_Cheat_LevelScale__164</title>
<polygon fill="#eeeeee" stroke="black" points="1891,-530.5 1891,-598.5 2427,-598.5 2427,-530.5 1891,-530.5"/>
<text text-anchor="start" x="1899" y="-583.3" font-family="monospace" font-size="14.00">EX_Let</text>
<text text-anchor="start" x="1899" y="-568.3" font-family="monospace" font-size="14.00">  EX_LocalVariable [CallFunc_Round_ReturnValue]</text>
<text text-anchor="start" x="1899" y="-553.3" font-family="monospace" font-size="14.00">  EX_CallMath import /Script/Engine&#45;&gt;KismetMathLibrary&#45;&gt;Round</text>
<text text-anchor="start" x="1899" y="-538.3" font-family="monospace" font-size="14.00">    EX_LocalVariable [CallFunc_Multiply_FloatFloat_ReturnValue]</text>
</g>
<!-- ExecuteUbergraph_Cheat_LevelScale__100&#45;&gt;ExecuteUbergraph_Cheat_LevelScale__164 -->
<g id="edge8" class="edge">
<title>ExecuteUbergraph_Cheat_LevelScale__100&#45;&gt;ExecuteUbergraph_Cheat_LevelScale__164</title>
<path fill="none" stroke="black" d="M2156.87,-636.82C2157.15,-627.64 2157.42,-618.35 2157.68,-609.65"/>
<polygon fill="black" stroke="black" points="2161.18,-609.82 2157.98,-599.72 2154.18,-609.61 2161.18,-609.82"/>
</g>
<!-- ExecuteUbergraph_Cheat_LevelScale__201 -->
<g id="node11" class="node">
<title>ExecuteUbergraph_Cheat_LevelScale__201</title>
<polygon fill="#eeeeee" stroke="black" points="1846.5,-424.5 1846.5,-492.5 2473.5,-492.5 2473.5,-424.5 1846.5,-424.5"/>
<text text-anchor="start" x="1854.5" y="-477.3" font-family="monospace" font-size="14.00">EX_Let</text>
<text text-anchor="start" x="1854.5" y="-462.3" font-family="monospace" font-size="14.00">  EX_LocalVariable [CallFunc_Conv_IntToString_ReturnValue]</text>
<text text-anchor="start" x="1854.5" y="-447.3" font-family="monospace" font-size="14.00">  EX_CallMath import /Script/Engine&#45;&gt;KismetStringLibrary&#45;&gt;Conv_IntToString</text>
<text text-anchor="start" x="1854.5" y="-432.3" font-family="monospace" font-size="14.00">    EX_LocalVariable [CallFunc_Round_ReturnValue]</text>
</g>
<!-- ExecuteUbergraph_Cheat_LevelScale__164&#45;&gt;ExecuteUbergraph_Cheat_LevelScale__201 -->
<g id="edge9" class="edge">
<title>ExecuteUbergraph_Cheat_LevelScale__164&#45;&gt;ExecuteUbergraph_Cheat_LevelScale__201</title>
<path fill="none" stroke="black" d="M2159.32,-530.59C2159.4,-521.97 2159.49,-512.54 2159.58,-503.45"/>
<polygon fill="black" stroke="black" points="2163.07,-503.74 2159.67,-493.71 2156.08,-503.67 2163.07,-503.74"/>
</g>
<!-- ExecuteUbergraph_Cheat_LevelScale__238 -->
<g id="node12" class="node">
<title>ExecuteUbergraph_Cheat_LevelScale__238</title>
<polygon fill="#eeeeee" stroke="black" points="1866,-303.5 1866,-386.5 2468,-386.5 2468,-303.5 1866,-303.5"/>
<text text-anchor="start" x="1874" y="-371.3" font-family="monospace" font-size="14.00">EX_Let</text>
<text text-anchor="start" x="1874" y="-356.3" font-family="monospace" font-size="14.00">  EX_LocalVariable [CallFunc_Concat_StrStr_ReturnValue]</text>
<text text-anchor="start" x="1874" y="-341.3" font-family="monospace" font-size="14.00">  EX_CallMath import /Script/Engine&#45;&gt;KismetStringLibrary&#45;&gt;Concat_StrStr</text>
<text text-anchor="start" x="1874" y="-326.3" font-family="monospace" font-size="14.00">    EX_LocalVariable [CallFunc_Conv_IntToString_ReturnValue]</text>
<text text-anchor="start" x="1874" y="-311.3" font-family="monospace" font-size="14.00">    EX_StringConst %</text>
</g>
<!-- ExecuteUbergraph_Cheat_LevelScale__201&#45;&gt;ExecuteUbergraph_Cheat_LevelScale__238 -->
<g id="edge10" class="edge">
<title>ExecuteUbergraph_Cheat_LevelScale__201&#45;&gt;ExecuteUbergraph_Cheat_LevelScale__238</title>
<path fill="none" stroke="black" d="M2162.06,-424.65C2162.6,-416.06 2163.2,-406.6 2163.78,-397.3"/>
<polygon fill="black" stroke="black" points="2167.25,-397.83 2164.39,-387.63 2160.27,-397.39 2167.25,-397.83"/>
</g>
<!-- ExecuteUbergraph_Cheat_LevelScale__278 -->
<g id="node13" class="node">
<title>ExecuteUbergraph_Cheat_LevelScale__278</title>
<polygon fill="#eeeeee" stroke="black" points="1861.5,-197.5 1861.5,-265.5 2480.5,-265.5 2480.5,-197.5 1861.5,-197.5"/>
<text text-anchor="start" x="1869.5" y="-250.3" font-family="monospace" font-size="14.00">EX_Let</text>
<text text-anchor="start" x="1869.5" y="-235.3" font-family="monospace" font-size="14.00">  EX_LocalVariable [CallFunc_Conv_StringToText_ReturnValue]</text>
<text text-anchor="start" x="1869.5" y="-220.3" font-family="monospace" font-size="14.00">  EX_CallMath import /Script/Engine&#45;&gt;KismetTextLibrary&#45;&gt;Conv_StringToText</text>
<text text-anchor="start" x="1869.5" y="-205.3" font-family="monospace" font-size="14.00">    EX_LocalVariable [CallFunc_Concat_StrStr_ReturnValue]</text>
</g>
<!-- ExecuteUbergraph_Cheat_LevelScale__238&#45;&gt;ExecuteUbergraph_Cheat_LevelScale__278 -->
<g id="edge11" class="edge">
<title>ExecuteUbergraph_Cheat_LevelScale__238&#45;&gt;ExecuteUbergraph_Cheat_LevelScale__278</title>
<path fill="none" stroke="black" d="M2168.44,-303.75C2168.76,-294.98 2169.09,-285.67 2169.41,-276.76"/>
<polygon fill="black" stroke="black" points="2172.91,-277 2169.77,-266.88 2165.91,-276.75 2172.91,-277"/>
</g>
<!-- ExecuteUbergraph_Cheat_LevelScale__315 -->
<g id="node14" class="node">
<title>ExecuteUbergraph_Cheat_LevelScale__315</title>
<polygon fill="#eeeeee" stroke="black" points="1950,-76.5 1950,-159.5 2470,-159.5 2470,-76.5 1950,-76.5"/>
<text text-anchor="start" x="1958" y="-144.3" font-family="monospace" font-size="14.00">EX_Context</text>
<text text-anchor="start" x="1958" y="-129.3" font-family="monospace" font-size="14.00">  EX_InstanceVariable [TextBlock_0]</text>
<text text-anchor="start" x="1958" y="-114.3" font-family="monospace" font-size="14.00">  EX_VirtualFunction SetText</text>
<text text-anchor="start" x="1958" y="-99.3" font-family="monospace" font-size="14.00">    EX_LocalVariable [CallFunc_Conv_StringToText_ReturnValue]</text>
<text text-anchor="start" x="1958" y="-84.3" font-family="monospace" font-size="14.00">  RValue = []</text>
</g>
<!-- ExecuteUbergraph_Cheat_LevelScale__278&#45;&gt;ExecuteUbergraph_Cheat_LevelScale__315 -->
<g id="edge12" class="edge">
<title>ExecuteUbergraph_Cheat_LevelScale__278&#45;&gt;ExecuteUbergraph_Cheat_LevelScale__315</title>
<path fill="none" stroke="black" d="M2182.49,-197.65C2185.56,-188.87 2188.95,-179.18 2192.27,-169.69"/>
<polygon fill="black" stroke="black" points="2195.47,-171.14 2195.47,-160.54 2188.86,-168.83 2195.47,-171.14"/>
</g>
<!-- ExecuteUbergraph_Cheat_LevelScale__315&#45;&gt;ExecuteUbergraph_Cheat_LevelScale__360 -->
<g id="edge13" class="edge">
<title>ExecuteUbergraph_Cheat_LevelScale__315&#45;&gt;ExecuteUbergraph_Cheat_LevelScale__360</title>
<path fill="none" stroke="black" d="M2335.49,-76.63C2372.54,-64.71 2411.65,-52.14 2443.43,-41.91"/>
<polygon fill="black" stroke="black" points="2444.46,-45.26 2452.91,-38.86 2442.32,-38.59 2444.46,-45.26"/>
</g>
<!-- ExecuteUbergraph_Cheat_LevelScale__362 -->
<g id="node16" class="node">
<title>ExecuteUbergraph_Cheat_LevelScale__362</title>
<polygon fill="#eeeeee" stroke="black" points="2373,-1375.5 2373,-1411.5 2505,-1411.5 2505,-1375.5 2373,-1375.5"/>
<text text-anchor="start" x="2381" y="-1389.8" font-family="monospace" font-size="14.00">EX_EndOfScript</text>
</g>
<!-- BP_OnRefresh -->
<g id="node17" class="node">
<title>BP_OnRefresh</title>
<polygon fill="#ff8888" stroke="black" points="1514,-1491.5 1514,-1527.5 1704,-1527.5 1704,-1491.5 1514,-1491.5"/>
<text text-anchor="start" x="1522" y="-1505.8" font-family="monospace" font-size="14.00">Function BP_OnRefresh</text>
</g>
<!-- BP_OnRefresh__0 -->
<g id="node18" class="node">
<title>BP_OnRefresh__0</title>
<polygon fill="#eeeeee" stroke="black" points="1262.5,-1318.5 1262.5,-1356.5 1955.5,-1356.5 1955.5,-1318.5 1262.5,-1318.5"/>
<text text-anchor="start" x="1270.5" y="-1341.3" font-family="monospace" font-size="14.00">EX_LocalFinalFunction export Cheat_LevelScale_C&#45;&gt;ExecuteUbergraph_Cheat_LevelScale</text>
<text text-anchor="start" x="1270.5" y="-1326.3" font-family="monospace" font-size="14.00">  EX_IntConst 15</text>
</g>
<!-- BP_OnRefresh&#45;&gt;BP_OnRefresh__0 -->
<g id="edge14" class="edge">
<title>BP_OnRefresh&#45;&gt;BP_OnRefresh__0</title>
<path fill="none" stroke="black" d="M1609,-1491.58C1609,-1462.6 1609,-1403.17 1609,-1367.49"/>
<polygon fill="black" stroke="black" points="1612.5,-1367.89 1609,-1357.89 1605.5,-1367.89 1612.5,-1367.89"/>
</g>
<!-- BP_OnRefresh__0&#45;&gt;ExecuteUbergraph_Cheat_LevelScale__15 -->
<g id="edge15" class="edge">
<title>BP_OnRefresh__0:e&#45;&gt;ExecuteUbergraph_Cheat_LevelScale__15</title>
<path fill="none" stroke="red" d="M1957,-1337.5C1992.83,-1337.5 2002.21,-1291.99 2003.99,-1255.68"/>
<polygon fill="none" stroke="red" points="2007.48,-1255.89 2004.28,-1245.79 2000.48,-1255.68 2007.48,-1255.89"/>
</g>
<!-- BP_OnRefresh__15 -->
<g id="node19" class="node">
<title>BP_OnRefresh__15</title>
<polygon fill="#eeeeee" stroke="black" points="1535,-1191.5 1535,-1229.5 1651,-1229.5 1651,-1191.5 1535,-1191.5"/>
<text text-anchor="start" x="1543" y="-1214.3" font-family="monospace" font-size="14.00">EX_Return</text>
<text text-anchor="start" x="1543" y="-1199.3" font-family="monospace" font-size="14.00">  EX_Nothing</text>
</g>
<!-- BP_OnRefresh__0&#45;&gt;BP_OnRefresh__15 -->
<g id="edge16" class="edge">
<title>BP_OnRefresh__0&#45;&gt;BP_OnRefresh__15</title>
<path fill="none" stroke="black" d="M1606.71,-1318.59C1604.11,-1298.26 1599.82,-1264.8 1596.74,-1240.69"/>
<polygon fill="black" stroke="black" points="1600.22,-1240.35 1595.48,-1230.88 1593.28,-1241.24 1600.22,-1240.35"/>
</g>
<!-- BP_OnRefresh__17 -->
<g id="node20" class="node">
<title>BP_OnRefresh__17</title>
<polygon fill="#eeeeee" stroke="black" points="2621,-1263.5 2621,-1299.5 2753,-1299.5 2753,-1263.5 2621,-1263.5"/>
<text text-anchor="start" x="2629" y="-1277.8" font-family="monospace" font-size="14.00">EX_EndOfScript</text>
</g>
<!-- Construct -->
<g id="node21" class="node">
<title>Construct</title>
<polygon fill="#ff8888" stroke="black" points="2275.5,-1491.5 2275.5,-1527.5 2440.5,-1527.5 2440.5,-1491.5 2275.5,-1491.5"/>
<text text-anchor="start" x="2283.5" y="-1505.8" font-family="monospace" font-size="14.00">Function Construct</text>
</g>
<!-- Construct__0 -->
<g id="node22" class="node">
<title>Construct__0</title>
<polygon fill="#eeeeee" stroke="black" points="2011.5,-1318.5 2011.5,-1356.5 2704.5,-1356.5 2704.5,-1318.5 2011.5,-1318.5"/>
<text text-anchor="start" x="2019.5" y="-1341.3" font-family="monospace" font-size="14.00">EX_LocalFinalFunction export Cheat_LevelScale_C&#45;&gt;ExecuteUbergraph_Cheat_LevelScale</text>
<text text-anchor="start" x="2019.5" y="-1326.3" font-family="monospace" font-size="14.00">  EX_IntConst 10</text>
</g>
<!-- Construct&#45;&gt;Construct__0 -->
<g id="edge17" class="edge">
<title>Construct&#45;&gt;Construct__0</title>
<path fill="none" stroke="black" d="M2358,-1491.58C2358,-1462.6 2358,-1403.17 2358,-1367.49"/>
<polygon fill="black" stroke="black" points="2361.5,-1367.89 2358,-1357.89 2354.5,-1367.89 2361.5,-1367.89"/>
</g>
<!-- Construct__0&#45;&gt;ExecuteUbergraph_Cheat_LevelScale__10 -->
<g id="edge18" class="edge">
<title>Construct__0:e&#45;&gt;ExecuteUbergraph_Cheat_LevelScale__10</title>
<path fill="none" stroke="red" d="M2706,-1337.5C2714.68,-1337.5 2710.63,-1324.6 2705,-1318 2679.93,-1288.63 2645.24,-1329.22 2620,-1300 2552.32,-1221.66 2577.72,-1084.87 2592.89,-1026.35"/>
<polygon fill="none" stroke="red" points="2596.22,-1027.44 2595.45,-1016.87 2589.46,-1025.61 2596.22,-1027.44"/>
</g>
<!-- Construct__15 -->
<g id="node23" class="node">
<title>Construct__15</title>
<polygon fill="#eeeeee" stroke="black" points="2355,-1191.5 2355,-1229.5 2471,-1229.5 2471,-1191.5 2355,-1191.5"/>
<text text-anchor="start" x="2363" y="-1214.3" font-family="monospace" font-size="14.00">EX_Return</text>
<text text-anchor="start" x="2363" y="-1199.3" font-family="monospace" font-size="14.00">  EX_Nothing</text>
</g>
<!-- Construct__0&#45;&gt;Construct__15 -->
<g id="edge19" class="edge">
<title>Construct__0&#45;&gt;Construct__15</title>
<path fill="none" stroke="black" d="M2365.88,-1318.59C2374.95,-1297.98 2389.95,-1263.88 2400.59,-1239.7"/>
<polygon fill="black" stroke="black" points="2403.7,-1241.32 2404.52,-1230.76 2397.29,-1238.51 2403.7,-1241.32"/>
</g>
<!-- Construct__17 -->
<g id="node24" class="node">
<title>Construct__17</title>
<polygon fill="#eeeeee" stroke="black" points="2621,-1121.5 2621,-1157.5 2753,-1157.5 2753,-1121.5 2621,-1121.5"/>
<text text-anchor="start" x="2629" y="-1135.8" font-family="monospace" font-size="14.00">EX_EndOfScript</text>
</g>
</g>
</svg>
