<?xml version="1.0" encoding="UTF-8" standalone="no"?>
<!DOCTYPE svg PUBLIC "-//W3C//DTD SVG 1.1//EN"
 "http://www.w3.org/Graphics/SVG/1.1/DTD/svg11.dtd">
<!-- Generated by graphviz version 7.0.1 (0)
 -->
<!-- Pages: 1 -->
<svg width="1924pt" height="495pt"
 viewBox="0.00 0.00 1923.50 495.00" xmlns="http://www.w3.org/2000/svg" xmlns:xlink="http://www.w3.org/1999/xlink">
<g id="graph0" class="graph" transform="scale(1 1) rotate(0) translate(4 491)">
<polygon fill="white" stroke="none" points="-4,4 -4,-491 1919.5,-491 1919.5,4 -4,4"/>
<!-- AIC_Nisse_C -->
<g id="node1" class="node">
<title>AIC_Nisse_C</title>
<polygon fill="#88ff88" stroke="black" points="0,-403.5 0,-486.5 429,-486.5 429,-403.5 0,-403.5"/>
<text text-anchor="start" x="8" y="-471.3" font-family="monospace" font-size="14.00">ClassExport: AIC_Nisse_C</text>
<text text-anchor="start" x="8" y="-456.3" font-family="monospace" font-size="14.00">  SuperStruct: import /Script/FSD&#45;&gt;FSDAIController</text>
<text text-anchor="start" x="8" y="-441.3" font-family="monospace" font-size="14.00">  Properties:</text>
<text text-anchor="start" x="8" y="-426.3" font-family="monospace" font-size="14.00">    StructProperty UberGraphFrame</text>
<text text-anchor="start" x="8" y="-411.3" font-family="monospace" font-size="14.00">      CPF_Transient|CPF_DuplicateTransient</text>
</g>
<!-- ExecuteUbergraph_AIC_Nisse -->
<g id="node2" class="node">
<title>ExecuteUbergraph_AIC_Nisse</title>
<polygon fill="#ff8888" stroke="black" points="447.5,-411 447.5,-479 917.5,-479 917.5,-411 447.5,-411"/>
<text text-anchor="start" x="455.5" y="-463.8" font-family="monospace" font-size="14.00">Function ExecuteUbergraph_AIC_Nisse</text>
<text text-anchor="start" x="455.5" y="-448.8" font-family="monospace" font-size="14.00">  IntProperty EntryPoint</text>
<text text-anchor="start" x="455.5" y="-433.8" font-family="monospace" font-size="14.00">    CPF_BlueprintVisible|CPF_BlueprintReadOnly|CPF_Parm</text>
<text text-anchor="start" x="455.5" y="-418.8" font-family="monospace" font-size="14.00">  BoolProperty CallFunc_RunBehaviorTree_ReturnValue</text>
</g>
<!-- ExecuteUbergraph_AIC_Nisse__0 -->
<g id="node3" class="node">
<title>ExecuteUbergraph_AIC_Nisse__0</title>
<polygon fill="#eeeeee" stroke="black" points="546.5,-328.5 546.5,-366.5 818.5,-366.5 818.5,-328.5 546.5,-328.5"/>
<text text-anchor="start" x="554.5" y="-351.3" font-family="monospace" font-size="14.00">EX_ComputedJump</text>
<text text-anchor="start" x="554.5" y="-336.3" font-family="monospace" font-size="14.00">  EX_LocalVariable [EntryPoint]</text>
</g>
<!-- ExecuteUbergraph_AIC_Nisse&#45;&gt;ExecuteUbergraph_AIC_Nisse__0 -->
<g id="edge1" class="edge">
<title>ExecuteUbergraph_AIC_Nisse&#45;&gt;ExecuteUbergraph_AIC_Nisse__0</title>
<path fill="none" stroke="black" d="M682.5,-411.13C682.5,-400.24 682.5,-388.19 682.5,-377.6"/>
<polygon fill="black" stroke="black" points="686,-377.9 682.5,-367.9 679,-377.9 686,-377.9"/>
</g>
<!-- ExecuteUbergraph_AIC_Nisse__10 -->
<g id="node4" class="node">
<title>ExecuteUbergraph_AIC_Nisse__10</title>
<polygon fill="#eeeeee" stroke="black" points="1064,-148.5 1064,-216.5 1765,-216.5 1765,-148.5 1064,-148.5"/>
<text text-anchor="start" x="1072" y="-201.3" font-family="monospace" font-size="14.00">EX_LetBool</text>
<text text-anchor="start" x="1072" y="-186.3" font-family="monospace" font-size="14.00">  EX_LocalVariable [CallFunc_RunBehaviorTree_ReturnValue]</text>
<text text-anchor="start" x="1072" y="-171.3" font-family="monospace" font-size="14.00">  EX_VirtualFunction RunBehaviorTree</text>
<text text-anchor="start" x="1072" y="-156.3" font-family="monospace" font-size="14.00">    EX_ObjectConst import /Game/GameElements/Holidays/Xmas/Nisse/BT_Nisse&#45;&gt;BT_Nisse</text>
</g>
<!-- ExecuteUbergraph_AIC_Nisse__43 -->
<g id="node5" class="node">
<title>ExecuteUbergraph_AIC_Nisse__43</title>
<polygon fill="#eeeeee" stroke="black" points="1365,-75.5 1365,-111.5 1464,-111.5 1464,-75.5 1365,-75.5"/>
<text text-anchor="start" x="1373" y="-89.8" font-family="monospace" font-size="14.00">EX_Jump 53</text>
</g>
<!-- ExecuteUbergraph_AIC_Nisse__10&#45;&gt;ExecuteUbergraph_AIC_Nisse__43 -->
<g id="edge2" class="edge">
<title>ExecuteUbergraph_AIC_Nisse__10&#45;&gt;ExecuteUbergraph_AIC_Nisse__43</title>
<path fill="none" stroke="black" d="M1414.5,-148.61C1414.5,-140.07 1414.5,-130.96 1414.5,-122.69"/>
<polygon fill="black" stroke="black" points="1418,-122.86 1414.5,-112.86 1411,-122.86 1418,-122.86"/>
</g>
<!-- ExecuteUbergraph_AIC_Nisse__53 -->
<g id="node7" class="node">
<title>ExecuteUbergraph_AIC_Nisse__53</title>
<polygon fill="#eeeeee" stroke="black" points="1356.5,-0.5 1356.5,-38.5 1472.5,-38.5 1472.5,-0.5 1356.5,-0.5"/>
<text text-anchor="start" x="1364.5" y="-23.3" font-family="monospace" font-size="14.00">EX_Return</text>
<text text-anchor="start" x="1364.5" y="-8.3" font-family="monospace" font-size="14.00">  EX_Nothing</text>
</g>
<!-- ExecuteUbergraph_AIC_Nisse__43&#45;&gt;ExecuteUbergraph_AIC_Nisse__53 -->
<g id="edge3" class="edge">
<title>ExecuteUbergraph_AIC_Nisse__43&#45;&gt;ExecuteUbergraph_AIC_Nisse__53</title>
<path fill="none" stroke="black" d="M1414.5,-75.8C1414.5,-68.09 1414.5,-58.7 1414.5,-49.86"/>
<polygon fill="black" stroke="black" points="1418,-49.88 1414.5,-39.88 1411,-49.88 1418,-49.88"/>
</g>
<!-- ExecuteUbergraph_AIC_Nisse__48 -->
<g id="node6" class="node">
<title>ExecuteUbergraph_AIC_Nisse__48</title>
<polygon fill="#eeeeee" stroke="black" points="1365,-254.5 1365,-290.5 1464,-290.5 1464,-254.5 1365,-254.5"/>
<text text-anchor="start" x="1373" y="-268.8" font-family="monospace" font-size="14.00">EX_Jump 10</text>
</g>
<!-- ExecuteUbergraph_AIC_Nisse__48&#45;&gt;ExecuteUbergraph_AIC_Nisse__10 -->
<g id="edge4" class="edge">
<title>ExecuteUbergraph_AIC_Nisse__48&#45;&gt;ExecuteUbergraph_AIC_Nisse__10</title>
<path fill="none" stroke="black" d="M1414.5,-254.53C1414.5,-246.86 1414.5,-237.4 1414.5,-227.92"/>
<polygon fill="black" stroke="black" points="1418,-227.97 1414.5,-217.97 1411,-227.97 1418,-227.97"/>
</g>
<!-- ExecuteUbergraph_AIC_Nisse__55 -->
<g id="node8" class="node">
<title>ExecuteUbergraph_AIC_Nisse__55</title>
<polygon fill="#eeeeee" stroke="black" points="1783.5,-164.5 1783.5,-200.5 1915.5,-200.5 1915.5,-164.5 1783.5,-164.5"/>
<text text-anchor="start" x="1791.5" y="-178.8" font-family="monospace" font-size="14.00">EX_EndOfScript</text>
</g>
<!-- ReceiveBeginPlay -->
<g id="node9" class="node">
<title>ReceiveBeginPlay</title>
<polygon fill="#ff8888" stroke="black" points="1014,-427 1014,-463 1237,-463 1237,-427 1014,-427"/>
<text text-anchor="start" x="1022" y="-441.3" font-family="monospace" font-size="14.00">Function ReceiveBeginPlay</text>
</g>
<!-- ReceiveBeginPlay__0 -->
<g id="node10" class="node">
<title>ReceiveBeginPlay__0</title>
<polygon fill="#eeeeee" stroke="black" points="836.5,-328.5 836.5,-366.5 1414.5,-366.5 1414.5,-328.5 836.5,-328.5"/>
<text text-anchor="start" x="844.5" y="-351.3" font-family="monospace" font-size="14.00">EX_LocalFinalFunction export AIC_Nisse_C&#45;&gt;ExecuteUbergraph_AIC_Nisse</text>
<text text-anchor="start" x="844.5" y="-336.3" font-family="monospace" font-size="14.00">  EX_IntConst 48</text>
</g>
<!-- ReceiveBeginPlay&#45;&gt;ReceiveBeginPlay__0 -->
<g id="edge5" class="edge">
<title>ReceiveBeginPlay&#45;&gt;ReceiveBeginPlay__0</title>
<path fill="none" stroke="black" d="M1125.5,-427.37C1125.5,-413.6 1125.5,-393.74 1125.5,-377.39"/>
<polygon fill="black" stroke="black" points="1129,-377.75 1125.5,-367.75 1122,-377.75 1129,-377.75"/>
</g>
<!-- ReceiveBeginPlay__0&#45;&gt;ExecuteUbergraph_AIC_Nisse__48 -->
<g id="edge6" class="edge">
<title>ReceiveBeginPlay__0:e&#45;&gt;ExecuteUbergraph_AIC_Nisse__48</title>
<path fill="none" stroke="red" d="M1415.5,-347.5C1434.78,-347.5 1431.12,-322.08 1424.78,-301.04"/>
<polygon fill="none" stroke="red" points="1428.16,-300.12 1421.7,-291.73 1421.52,-302.32 1428.16,-300.12"/>
</g>
<!-- ReceiveBeginPlay__15 -->
<g id="node11" class="node">
<title>ReceiveBeginPlay__15</title>
<polygon fill="#eeeeee" stroke="black" points="1067.5,-253.5 1067.5,-291.5 1183.5,-291.5 1183.5,-253.5 1067.5,-253.5"/>
<text text-anchor="start" x="1075.5" y="-276.3" font-family="monospace" font-size="14.00">EX_Return</text>
<text text-anchor="start" x="1075.5" y="-261.3" font-family="monospace" font-size="14.00">  EX_Nothing</text>
</g>
<!-- ReceiveBeginPlay__0&#45;&gt;ReceiveBeginPlay__15 -->
<g id="edge7" class="edge">
<title>ReceiveBeginPlay__0&#45;&gt;ReceiveBeginPlay__15</title>
<path fill="none" stroke="black" d="M1125.5,-328.83C1125.5,-321 1125.5,-311.57 1125.5,-302.74"/>
<polygon fill="black" stroke="black" points="1129,-302.78 1125.5,-292.78 1122,-302.78 1129,-302.78"/>
</g>
<!-- ReceiveBeginPlay__17 -->
<g id="node12" class="node">
<title>ReceiveBeginPlay__17</title>
<polygon fill="#eeeeee" stroke="black" points="1482.5,-75.5 1482.5,-111.5 1614.5,-111.5 1614.5,-75.5 1482.5,-75.5"/>
<text text-anchor="start" x="1490.5" y="-89.8" font-family="monospace" font-size="14.00">EX_EndOfScript</text>
</g>
</g>
</svg>
