<?xml version="1.0" encoding="UTF-8" standalone="no"?>
<!DOCTYPE svg PUBLIC "-//W3C//DTD SVG 1.1//EN"
 "http://www.w3.org/Graphics/SVG/1.1/DTD/svg11.dtd">
<!-- Generated by graphviz version 7.0.1 (0)
 -->
<!-- Pages: 1 -->
<svg width="2473pt" height="1067pt"
 viewBox="0.00 0.00 2473.00 1067.00" xmlns="http://www.w3.org/2000/svg" xmlns:xlink="http://www.w3.org/1999/xlink">
<g id="graph0" class="graph" transform="scale(1 1) rotate(0) translate(4 1063)">
<polygon fill="white" stroke="none" points="-4,4 -4,-1063 2469,-1063 2469,4 -4,4"/>
<!-- ITM_MissionMapIcon_LevelLock_C -->
<g id="node1" class="node">
<title>ITM_MissionMapIcon_LevelLock_C</title>
<polygon fill="#88ff88" stroke="black" points="0,-885.5 0,-1058.5 850,-1058.5 850,-885.5 0,-885.5"/>
<text text-anchor="start" x="8" y="-1043.3" font-family="monospace" font-size="14.00">ClassExport: ITM_MissionMapIcon_LevelLock_C</text>
<text text-anchor="start" x="8" y="-1028.3" font-family="monospace" font-size="14.00">  SuperStruct: import /Script/UMG&#45;&gt;UserWidget</text>
<text text-anchor="start" x="8" y="-1013.3" font-family="monospace" font-size="14.00">  Properties:</text>
<text text-anchor="start" x="8" y="-998.3" font-family="monospace" font-size="14.00">    StructProperty UberGraphFrame</text>
<text text-anchor="start" x="8" y="-983.3" font-family="monospace" font-size="14.00">      CPF_Transient|CPF_DuplicateTransient</text>
<text text-anchor="start" x="8" y="-968.3" font-family="monospace" font-size="14.00">    ObjectProperty ICON_Border1</text>
<text text-anchor="start" x="8" y="-953.3" font-family="monospace" font-size="14.00">      CPF_BlueprintVisible|CPF_ExportObject|CPF_InstancedReference|CPF_RepSkip|CPF_PersistentInstance</text>
<text text-anchor="start" x="8" y="-938.3" font-family="monospace" font-size="14.00">    ObjectProperty ICON_Border2</text>
<text text-anchor="start" x="8" y="-923.3" font-family="monospace" font-size="14.00">      CPF_BlueprintVisible|CPF_ExportObject|CPF_InstancedReference|CPF_RepSkip|CPF_PersistentInstance</text>
<text text-anchor="start" x="8" y="-908.3" font-family="monospace" font-size="14.00">    ObjectProperty ICON_Padlock</text>
<text text-anchor="start" x="8" y="-893.3" font-family="monospace" font-size="14.00">      CPF_BlueprintVisible|CPF_ExportObject|CPF_InstancedReference|CPF_RepSkip|CPF_PersistentInstance</text>
</g>
<!-- ExecuteUbergraph_ITM_MissionMapIcon_LevelLock -->
<g id="node2" class="node">
<title>ExecuteUbergraph_ITM_MissionMapIcon_LevelLock</title>
<polygon fill="#ff8888" stroke="black" points="868,-923 868,-1021 1338,-1021 1338,-923 868,-923"/>
<text text-anchor="start" x="876" y="-1005.8" font-family="monospace" font-size="14.00">Function ExecuteUbergraph_ITM_MissionMapIcon_LevelLock</text>
<text text-anchor="start" x="876" y="-990.8" font-family="monospace" font-size="14.00">  IntProperty EntryPoint</text>
<text text-anchor="start" x="876" y="-975.8" font-family="monospace" font-size="14.00">    CPF_BlueprintVisible|CPF_BlueprintReadOnly|CPF_Parm</text>
<text text-anchor="start" x="876" y="-960.8" font-family="monospace" font-size="14.00">  BoolProperty K2Node_Event_IsDesignTime</text>
<text text-anchor="start" x="876" y="-945.8" font-family="monospace" font-size="14.00">  StructProperty CallFunc_MenuColors_OutputColor</text>
<text text-anchor="start" x="876" y="-930.8" font-family="monospace" font-size="14.00">  StructProperty CallFunc_MenuColors_OutputColor_1</text>
</g>
<!-- ExecuteUbergraph_ITM_MissionMapIcon_LevelLock__0 -->
<g id="node3" class="node">
<title>ExecuteUbergraph_ITM_MissionMapIcon_LevelLock__0</title>
<polygon fill="#eeeeee" stroke="black" points="967,-810.5 967,-848.5 1239,-848.5 1239,-810.5 967,-810.5"/>
<text text-anchor="start" x="975" y="-833.3" font-family="monospace" font-size="14.00">EX_ComputedJump</text>
<text text-anchor="start" x="975" y="-818.3" font-family="monospace" font-size="14.00">  EX_LocalVariable [EntryPoint]</text>
</g>
<!-- ExecuteUbergraph_ITM_MissionMapIcon_LevelLock&#45;&gt;ExecuteUbergraph_ITM_MissionMapIcon_LevelLock__0 -->
<g id="edge1" class="edge">
<title>ExecuteUbergraph_ITM_MissionMapIcon_LevelLock&#45;&gt;ExecuteUbergraph_ITM_MissionMapIcon_LevelLock__0</title>
<path fill="none" stroke="black" d="M1103,-923.04C1103,-902.01 1103,-878.01 1103,-859.72"/>
<polygon fill="black" stroke="black" points="1106.5,-859.86 1103,-849.86 1099.5,-859.86 1106.5,-859.86"/>
</g>
<!-- ExecuteUbergraph_ITM_MissionMapIcon_LevelLock__10 -->
<g id="node4" class="node">
<title>ExecuteUbergraph_ITM_MissionMapIcon_LevelLock__10</title>
<polygon fill="#eeeeee" stroke="black" points="1662.5,-585.5 1662.5,-698.5 2421.5,-698.5 2421.5,-585.5 1662.5,-585.5"/>
<text text-anchor="start" x="1670.5" y="-683.3" font-family="monospace" font-size="14.00">EX_Context</text>
<text text-anchor="start" x="1670.5" y="-668.3" font-family="monospace" font-size="14.00">  EX_ObjectConst import /Game/UI/Art/WidgetParts/LIB_MenuColors&#45;&gt;Default__LIB_MenuColors_C</text>
<text text-anchor="start" x="1670.5" y="-653.3" font-family="monospace" font-size="14.00">  EX_LocalVirtualFunction MenuColors</text>
<text text-anchor="start" x="1670.5" y="-638.3" font-family="monospace" font-size="14.00">    EX_ByteConst 7</text>
<text text-anchor="start" x="1670.5" y="-623.3" font-family="monospace" font-size="14.00">    EX_Self</text>
<text text-anchor="start" x="1670.5" y="-608.3" font-family="monospace" font-size="14.00">    EX_LocalVariable [CallFunc_MenuColors_OutputColor]</text>
<text text-anchor="start" x="1670.5" y="-593.3" font-family="monospace" font-size="14.00">  RValue = []</text>
</g>
<!-- ExecuteUbergraph_ITM_MissionMapIcon_LevelLock__58 -->
<g id="node5" class="node">
<title>ExecuteUbergraph_ITM_MissionMapIcon_LevelLock__58</title>
<polygon fill="#eeeeee" stroke="black" points="1769.5,-465.5 1769.5,-548.5 2314.5,-548.5 2314.5,-465.5 1769.5,-465.5"/>
<text text-anchor="start" x="1777.5" y="-533.3" font-family="monospace" font-size="14.00">EX_Context</text>
<text text-anchor="start" x="1777.5" y="-518.3" font-family="monospace" font-size="14.00">  EX_InstanceVariable [ICON_Border2]</text>
<text text-anchor="start" x="1777.5" y="-503.3" font-family="monospace" font-size="14.00">  EX_FinalFunction import /Script/UMG&#45;&gt;Image&#45;&gt;SetColorAndOpacity</text>
<text text-anchor="start" x="1777.5" y="-488.3" font-family="monospace" font-size="14.00">    EX_LocalVariable [CallFunc_MenuColors_OutputColor]</text>
<text text-anchor="start" x="1777.5" y="-473.3" font-family="monospace" font-size="14.00">  RValue = []</text>
</g>
<!-- ExecuteUbergraph_ITM_MissionMapIcon_LevelLock__10&#45;&gt;ExecuteUbergraph_ITM_MissionMapIcon_LevelLock__58 -->
<g id="edge2" class="edge">
<title>ExecuteUbergraph_ITM_MissionMapIcon_LevelLock__10&#45;&gt;ExecuteUbergraph_ITM_MissionMapIcon_LevelLock__58</title>
<path fill="none" stroke="black" d="M2042,-585.75C2042,-577.12 2042,-568.22 2042,-559.67"/>
<polygon fill="black" stroke="black" points="2045.5,-559.79 2042,-549.79 2038.5,-559.79 2045.5,-559.79"/>
</g>
<!-- ExecuteUbergraph_ITM_MissionMapIcon_LevelLock__99 -->
<g id="node6" class="node">
<title>ExecuteUbergraph_ITM_MissionMapIcon_LevelLock__99</title>
<polygon fill="#eeeeee" stroke="black" points="1662.5,-315.5 1662.5,-428.5 2421.5,-428.5 2421.5,-315.5 1662.5,-315.5"/>
<text text-anchor="start" x="1670.5" y="-413.3" font-family="monospace" font-size="14.00">EX_Context</text>
<text text-anchor="start" x="1670.5" y="-398.3" font-family="monospace" font-size="14.00">  EX_ObjectConst import /Game/UI/Art/WidgetParts/LIB_MenuColors&#45;&gt;Default__LIB_MenuColors_C</text>
<text text-anchor="start" x="1670.5" y="-383.3" font-family="monospace" font-size="14.00">  EX_LocalVirtualFunction MenuColors</text>
<text text-anchor="start" x="1670.5" y="-368.3" font-family="monospace" font-size="14.00">    EX_ByteConst 8</text>
<text text-anchor="start" x="1670.5" y="-353.3" font-family="monospace" font-size="14.00">    EX_Self</text>
<text text-anchor="start" x="1670.5" y="-338.3" font-family="monospace" font-size="14.00">    EX_LocalVariable [CallFunc_MenuColors_OutputColor_1]</text>
<text text-anchor="start" x="1670.5" y="-323.3" font-family="monospace" font-size="14.00">  RValue = []</text>
</g>
<!-- ExecuteUbergraph_ITM_MissionMapIcon_LevelLock__58&#45;&gt;ExecuteUbergraph_ITM_MissionMapIcon_LevelLock__99 -->
<g id="edge3" class="edge">
<title>ExecuteUbergraph_ITM_MissionMapIcon_LevelLock__58&#45;&gt;ExecuteUbergraph_ITM_MissionMapIcon_LevelLock__99</title>
<path fill="none" stroke="black" d="M2042,-465.73C2042,-457.46 2042,-448.53 2042,-439.6"/>
<polygon fill="black" stroke="black" points="2045.5,-439.86 2042,-429.86 2038.5,-439.86 2045.5,-439.86"/>
</g>
<!-- ExecuteUbergraph_ITM_MissionMapIcon_LevelLock__147 -->
<g id="node7" class="node">
<title>ExecuteUbergraph_ITM_MissionMapIcon_LevelLock__147</title>
<polygon fill="#eeeeee" stroke="black" points="1769.5,-195.5 1769.5,-278.5 2314.5,-278.5 2314.5,-195.5 1769.5,-195.5"/>
<text text-anchor="start" x="1777.5" y="-263.3" font-family="monospace" font-size="14.00">EX_Context</text>
<text text-anchor="start" x="1777.5" y="-248.3" font-family="monospace" font-size="14.00">  EX_InstanceVariable [ICON_Border1]</text>
<text text-anchor="start" x="1777.5" y="-233.3" font-family="monospace" font-size="14.00">  EX_FinalFunction import /Script/UMG&#45;&gt;Image&#45;&gt;SetColorAndOpacity</text>
<text text-anchor="start" x="1777.5" y="-218.3" font-family="monospace" font-size="14.00">    EX_LocalVariable [CallFunc_MenuColors_OutputColor_1]</text>
<text text-anchor="start" x="1777.5" y="-203.3" font-family="monospace" font-size="14.00">  RValue = []</text>
</g>
<!-- ExecuteUbergraph_ITM_MissionMapIcon_LevelLock__99&#45;&gt;ExecuteUbergraph_ITM_MissionMapIcon_LevelLock__147 -->
<g id="edge4" class="edge">
<title>ExecuteUbergraph_ITM_MissionMapIcon_LevelLock__99&#45;&gt;ExecuteUbergraph_ITM_MissionMapIcon_LevelLock__147</title>
<path fill="none" stroke="black" d="M2042,-315.75C2042,-307.12 2042,-298.22 2042,-289.67"/>
<polygon fill="black" stroke="black" points="2045.5,-289.79 2042,-279.79 2038.5,-289.79 2045.5,-289.79"/>
</g>
<!-- ExecuteUbergraph_ITM_MissionMapIcon_LevelLock__188 -->
<g id="node8" class="node">
<title>ExecuteUbergraph_ITM_MissionMapIcon_LevelLock__188</title>
<polygon fill="#eeeeee" stroke="black" points="1769.5,-75.5 1769.5,-158.5 2314.5,-158.5 2314.5,-75.5 1769.5,-75.5"/>
<text text-anchor="start" x="1777.5" y="-143.3" font-family="monospace" font-size="14.00">EX_Context</text>
<text text-anchor="start" x="1777.5" y="-128.3" font-family="monospace" font-size="14.00">  EX_InstanceVariable [ICON_Padlock]</text>
<text text-anchor="start" x="1777.5" y="-113.3" font-family="monospace" font-size="14.00">  EX_FinalFunction import /Script/UMG&#45;&gt;Image&#45;&gt;SetColorAndOpacity</text>
<text text-anchor="start" x="1777.5" y="-98.3" font-family="monospace" font-size="14.00">    EX_LocalVariable [CallFunc_MenuColors_OutputColor_1]</text>
<text text-anchor="start" x="1777.5" y="-83.3" font-family="monospace" font-size="14.00">  RValue = []</text>
</g>
<!-- ExecuteUbergraph_ITM_MissionMapIcon_LevelLock__147&#45;&gt;ExecuteUbergraph_ITM_MissionMapIcon_LevelLock__188 -->
<g id="edge5" class="edge">
<title>ExecuteUbergraph_ITM_MissionMapIcon_LevelLock__147&#45;&gt;ExecuteUbergraph_ITM_MissionMapIcon_LevelLock__188</title>
<path fill="none" stroke="black" d="M2042,-195.72C2042,-187.37 2042,-178.45 2042,-169.75"/>
<polygon fill="black" stroke="black" points="2045.5,-170.01 2042,-160.01 2038.5,-170.01 2045.5,-170.01"/>
</g>
<!-- ExecuteUbergraph_ITM_MissionMapIcon_LevelLock__229 -->
<g id="node9" class="node">
<title>ExecuteUbergraph_ITM_MissionMapIcon_LevelLock__229</title>
<polygon fill="#eeeeee" stroke="black" points="1984,-0.5 1984,-38.5 2100,-38.5 2100,-0.5 1984,-0.5"/>
<text text-anchor="start" x="1992" y="-23.3" font-family="monospace" font-size="14.00">EX_Return</text>
<text text-anchor="start" x="1992" y="-8.3" font-family="monospace" font-size="14.00">  EX_Nothing</text>
</g>
<!-- ExecuteUbergraph_ITM_MissionMapIcon_LevelLock__188&#45;&gt;ExecuteUbergraph_ITM_MissionMapIcon_LevelLock__229 -->
<g id="edge6" class="edge">
<title>ExecuteUbergraph_ITM_MissionMapIcon_LevelLock__188&#45;&gt;ExecuteUbergraph_ITM_MissionMapIcon_LevelLock__229</title>
<path fill="none" stroke="black" d="M2042,-75.78C2042,-67.01 2042,-57.89 2042,-49.65"/>
<polygon fill="black" stroke="black" points="2045.5,-49.86 2042,-39.86 2038.5,-49.86 2045.5,-49.86"/>
</g>
<!-- ExecuteUbergraph_ITM_MissionMapIcon_LevelLock__231 -->
<g id="node10" class="node">
<title>ExecuteUbergraph_ITM_MissionMapIcon_LevelLock__231</title>
<polygon fill="#eeeeee" stroke="black" points="2055,-736.5 2055,-772.5 2187,-772.5 2187,-736.5 2055,-736.5"/>
<text text-anchor="start" x="2063" y="-750.8" font-family="monospace" font-size="14.00">EX_EndOfScript</text>
</g>
<!-- PreConstruct -->
<g id="node11" class="node">
<title>PreConstruct</title>
<polygon fill="#ff8888" stroke="black" points="1356,-945.5 1356,-998.5 1826,-998.5 1826,-945.5 1356,-945.5"/>
<text text-anchor="start" x="1364" y="-983.3" font-family="monospace" font-size="14.00">Function PreConstruct</text>
<text text-anchor="start" x="1364" y="-968.3" font-family="monospace" font-size="14.00">  BoolProperty IsDesignTime</text>
<text text-anchor="start" x="1364" y="-953.3" font-family="monospace" font-size="14.00">    CPF_BlueprintVisible|CPF_BlueprintReadOnly|CPF_Parm</text>
</g>
<!-- PreConstruct__0 -->
<g id="node12" class="node">
<title>PreConstruct__0</title>
<polygon fill="#eeeeee" stroke="black" points="1351.5,-810.5 1351.5,-848.5 1830.5,-848.5 1830.5,-810.5 1351.5,-810.5"/>
<text text-anchor="start" x="1359.5" y="-833.3" font-family="monospace" font-size="14.00">EX_LetValueOnPersistentFrame [K2Node_Event_IsDesignTime]</text>
<text text-anchor="start" x="1359.5" y="-818.3" font-family="monospace" font-size="14.00">  EX_LocalVariable [IsDesignTime]</text>
</g>
<!-- PreConstruct&#45;&gt;PreConstruct__0 -->
<g id="edge7" class="edge">
<title>PreConstruct&#45;&gt;PreConstruct__0</title>
<path fill="none" stroke="black" d="M1591,-945.56C1591,-921.36 1591,-885 1591,-859.65"/>
<polygon fill="black" stroke="black" points="1594.5,-859.71 1591,-849.71 1587.5,-859.71 1594.5,-859.71"/>
</g>
<!-- PreConstruct__18 -->
<g id="node13" class="node">
<title>PreConstruct__18</title>
<polygon fill="#eeeeee" stroke="black" points="1145.5,-735.5 1145.5,-773.5 2036.5,-773.5 2036.5,-735.5 1145.5,-735.5"/>
<text text-anchor="start" x="1153.5" y="-758.3" font-family="monospace" font-size="14.00">EX_LocalFinalFunction export ITM_MissionMapIcon_LevelLock_C&#45;&gt;ExecuteUbergraph_ITM_MissionMapIcon_LevelLock</text>
<text text-anchor="start" x="1153.5" y="-743.3" font-family="monospace" font-size="14.00">  EX_IntConst 10</text>
</g>
<!-- PreConstruct__0&#45;&gt;PreConstruct__18 -->
<g id="edge8" class="edge">
<title>PreConstruct__0&#45;&gt;PreConstruct__18</title>
<path fill="none" stroke="black" d="M1591,-810.83C1591,-803 1591,-793.57 1591,-784.74"/>
<polygon fill="black" stroke="black" points="1594.5,-784.78 1591,-774.78 1587.5,-784.78 1594.5,-784.78"/>
</g>
<!-- PreConstruct__18&#45;&gt;ExecuteUbergraph_ITM_MissionMapIcon_LevelLock__10 -->
<g id="edge9" class="edge">
<title>PreConstruct__18:e&#45;&gt;ExecuteUbergraph_ITM_MissionMapIcon_LevelLock__10</title>
<path fill="none" stroke="red" d="M2038,-754.5C2043.37,-754.5 2044.84,-733.56 2044.78,-709.84"/>
<polygon fill="none" stroke="red" points="2048.28,-709.89 2044.66,-699.94 2041.28,-709.98 2048.28,-709.89"/>
</g>
<!-- PreConstruct__33 -->
<g id="node14" class="node">
<title>PreConstruct__33</title>
<polygon fill="#eeeeee" stroke="black" points="1528,-623 1528,-661 1644,-661 1644,-623 1528,-623"/>
<text text-anchor="start" x="1536" y="-645.8" font-family="monospace" font-size="14.00">EX_Return</text>
<text text-anchor="start" x="1536" y="-630.8" font-family="monospace" font-size="14.00">  EX_Nothing</text>
</g>
<!-- PreConstruct__18&#45;&gt;PreConstruct__33 -->
<g id="edge10" class="edge">
<title>PreConstruct__18&#45;&gt;PreConstruct__33</title>
<path fill="none" stroke="black" d="M1590.2,-735.75C1589.42,-718.59 1588.23,-692.3 1587.32,-672.08"/>
<polygon fill="black" stroke="black" points="1590.82,-672.05 1586.87,-662.22 1583.83,-672.37 1590.82,-672.05"/>
</g>
<!-- PreConstruct__35 -->
<g id="node15" class="node">
<title>PreConstruct__35</title>
<polygon fill="#eeeeee" stroke="black" points="2333,-489 2333,-525 2465,-525 2465,-489 2333,-489"/>
<text text-anchor="start" x="2341" y="-503.3" font-family="monospace" font-size="14.00">EX_EndOfScript</text>
</g>
</g>
</svg>
