<?xml version="1.0" encoding="UTF-8" standalone="no"?>
<!DOCTYPE svg PUBLIC "-//W3C//DTD SVG 1.1//EN"
 "http://www.w3.org/Graphics/SVG/1.1/DTD/svg11.dtd">
<!-- Generated by graphviz version 7.0.1 (0)
 -->
<!-- Pages: 1 -->
<svg width="2281pt" height="1856pt"
 viewBox="0.00 0.00 2280.50 1856.00" xmlns="http://www.w3.org/2000/svg" xmlns:xlink="http://www.w3.org/1999/xlink">
<g id="graph0" class="graph" transform="scale(1 1) rotate(0) translate(4 1852)">
<polygon fill="white" stroke="none" points="-4,4 -4,-1852 2276.5,-1852 2276.5,4 -4,4"/>
<!-- ITM_MisSel_ResourceIcon_C -->
<g id="node1" class="node">
<title>ITM_MisSel_ResourceIcon_C</title>
<polygon fill="#88ff88" stroke="black" points="0,-1689.5 0,-1832.5 850,-1832.5 850,-1689.5 0,-1689.5"/>
<text text-anchor="start" x="8" y="-1817.3" font-family="monospace" font-size="14.00">ClassExport: ITM_MisSel_ResourceIcon_C</text>
<text text-anchor="start" x="8" y="-1802.3" font-family="monospace" font-size="14.00">  SuperStruct: import /Script/UMG&#45;&gt;UserWidget</text>
<text text-anchor="start" x="8" y="-1787.3" font-family="monospace" font-size="14.00">  Properties:</text>
<text text-anchor="start" x="8" y="-1772.3" font-family="monospace" font-size="14.00">    StructProperty UberGraphFrame</text>
<text text-anchor="start" x="8" y="-1757.3" font-family="monospace" font-size="14.00">      CPF_Transient|CPF_DuplicateTransient</text>
<text text-anchor="start" x="8" y="-1742.3" font-family="monospace" font-size="14.00">    ObjectProperty Basic_ResourceIcon</text>
<text text-anchor="start" x="8" y="-1727.3" font-family="monospace" font-size="14.00">      CPF_BlueprintVisible|CPF_ExportObject|CPF_InstancedReference|CPF_RepSkip|CPF_PersistentInstance</text>
<text text-anchor="start" x="8" y="-1712.3" font-family="monospace" font-size="14.00">    ObjectProperty DATA_ResourceName</text>
<text text-anchor="start" x="8" y="-1697.3" font-family="monospace" font-size="14.00">      CPF_BlueprintVisible|CPF_ExportObject|CPF_InstancedReference|CPF_RepSkip|CPF_PersistentInstance</text>
</g>
<!-- ExecuteUbergraph_ITM_MisSel_ResourceIcon -->
<g id="node2" class="node">
<title>ExecuteUbergraph_ITM_MisSel_ResourceIcon</title>
<polygon fill="#ff8888" stroke="black" points="868,-1674.5 868,-1847.5 1338,-1847.5 1338,-1674.5 868,-1674.5"/>
<text text-anchor="start" x="876" y="-1832.3" font-family="monospace" font-size="14.00">Function ExecuteUbergraph_ITM_MisSel_ResourceIcon</text>
<text text-anchor="start" x="876" y="-1817.3" font-family="monospace" font-size="14.00">  IntProperty EntryPoint</text>
<text text-anchor="start" x="876" y="-1802.3" font-family="monospace" font-size="14.00">    CPF_BlueprintVisible|CPF_BlueprintReadOnly|CPF_Parm</text>
<text text-anchor="start" x="876" y="-1787.3" font-family="monospace" font-size="14.00">  EnumProperty Temp_byte_Variable</text>
<text text-anchor="start" x="876" y="-1772.3" font-family="monospace" font-size="14.00">  EnumProperty Temp_byte_Variable_1</text>
<text text-anchor="start" x="876" y="-1757.3" font-family="monospace" font-size="14.00">  ObjectProperty K2Node_CustomEvent_Resource</text>
<text text-anchor="start" x="876" y="-1742.3" font-family="monospace" font-size="14.00">  BoolProperty CallFunc_IsValid_ReturnValue</text>
<text text-anchor="start" x="876" y="-1727.3" font-family="monospace" font-size="14.00">  TextProperty CallFunc_TextToUpper_ReturnValue</text>
<text text-anchor="start" x="876" y="-1712.3" font-family="monospace" font-size="14.00">  BoolProperty CallFunc_IsValid_ReturnValue_1</text>
<text text-anchor="start" x="876" y="-1697.3" font-family="monospace" font-size="14.00">  BoolProperty Temp_bool_Variable</text>
<text text-anchor="start" x="876" y="-1682.3" font-family="monospace" font-size="14.00">  EnumProperty K2Node_Select_Default</text>
</g>
<!-- ExecuteUbergraph_ITM_MisSel_ResourceIcon__0 -->
<g id="node3" class="node">
<title>ExecuteUbergraph_ITM_MisSel_ResourceIcon__0</title>
<polygon fill="#eeeeee" stroke="black" points="967,-1562.5 967,-1600.5 1239,-1600.5 1239,-1562.5 967,-1562.5"/>
<text text-anchor="start" x="975" y="-1585.3" font-family="monospace" font-size="14.00">EX_ComputedJump</text>
<text text-anchor="start" x="975" y="-1570.3" font-family="monospace" font-size="14.00">  EX_LocalVariable [EntryPoint]</text>
</g>
<!-- ExecuteUbergraph_ITM_MisSel_ResourceIcon&#45;&gt;ExecuteUbergraph_ITM_MisSel_ResourceIcon__0 -->
<g id="edge1" class="edge">
<title>ExecuteUbergraph_ITM_MisSel_ResourceIcon&#45;&gt;ExecuteUbergraph_ITM_MisSel_ResourceIcon__0</title>
<path fill="none" stroke="black" d="M1103,-1674.63C1103,-1651.94 1103,-1628.95 1103,-1611.61"/>
<polygon fill="black" stroke="black" points="1106.5,-1611.84 1103,-1601.84 1099.5,-1611.84 1106.5,-1611.84"/>
</g>
<!-- ExecuteUbergraph_ITM_MisSel_ResourceIcon__10 -->
<g id="node4" class="node">
<title>ExecuteUbergraph_ITM_MisSel_ResourceIcon__10</title>
<polygon fill="#eeeeee" stroke="black" points="1827,-1359.5 1827,-1412.5 2165,-1412.5 2165,-1359.5 1827,-1359.5"/>
<text text-anchor="start" x="1835" y="-1397.3" font-family="monospace" font-size="14.00">EX_Let</text>
<text text-anchor="start" x="1835" y="-1382.3" font-family="monospace" font-size="14.00">  EX_LocalVariable [Temp_byte_Variable]</text>
<text text-anchor="start" x="1835" y="-1367.3" font-family="monospace" font-size="14.00">  EX_ByteConst 0</text>
</g>
<!-- ExecuteUbergraph_ITM_MisSel_ResourceIcon__30 -->
<g id="node5" class="node">
<title>ExecuteUbergraph_ITM_MisSel_ResourceIcon__30</title>
<polygon fill="#eeeeee" stroke="black" points="1818.5,-1268.5 1818.5,-1321.5 2173.5,-1321.5 2173.5,-1268.5 1818.5,-1268.5"/>
<text text-anchor="start" x="1826.5" y="-1306.3" font-family="monospace" font-size="14.00">EX_Let</text>
<text text-anchor="start" x="1826.5" y="-1291.3" font-family="monospace" font-size="14.00">  EX_LocalVariable [Temp_byte_Variable_1]</text>
<text text-anchor="start" x="1826.5" y="-1276.3" font-family="monospace" font-size="14.00">  EX_ByteConst 1</text>
</g>
<!-- ExecuteUbergraph_ITM_MisSel_ResourceIcon__10&#45;&gt;ExecuteUbergraph_ITM_MisSel_ResourceIcon__30 -->
<g id="edge2" class="edge">
<title>ExecuteUbergraph_ITM_MisSel_ResourceIcon__10&#45;&gt;ExecuteUbergraph_ITM_MisSel_ResourceIcon__30</title>
<path fill="none" stroke="black" d="M1996,-1359.73C1996,-1351.37 1996,-1341.89 1996,-1332.84"/>
<polygon fill="black" stroke="black" points="1999.5,-1332.84 1996,-1322.84 1992.5,-1332.84 1999.5,-1332.84"/>
</g>
<!-- ExecuteUbergraph_ITM_MisSel_ResourceIcon__50 -->
<g id="node6" class="node">
<title>ExecuteUbergraph_ITM_MisSel_ResourceIcon__50</title>
<polygon fill="#eeeeee" stroke="black" points="1719.5,-1162.5 1719.5,-1230.5 2272.5,-1230.5 2272.5,-1162.5 1719.5,-1162.5"/>
<text text-anchor="start" x="1727.5" y="-1215.3" font-family="monospace" font-size="14.00">EX_LetBool</text>
<text text-anchor="start" x="1727.5" y="-1200.3" font-family="monospace" font-size="14.00">  EX_LocalVariable [CallFunc_IsValid_ReturnValue_1]</text>
<text text-anchor="start" x="1727.5" y="-1185.3" font-family="monospace" font-size="14.00">  EX_CallMath import /Script/Engine&#45;&gt;KismetSystemLibrary&#45;&gt;IsValid</text>
<text text-anchor="start" x="1727.5" y="-1170.3" font-family="monospace" font-size="14.00">    EX_LocalVariable [K2Node_CustomEvent_Resource]</text>
</g>
<!-- ExecuteUbergraph_ITM_MisSel_ResourceIcon__30&#45;&gt;ExecuteUbergraph_ITM_MisSel_ResourceIcon__50 -->
<g id="edge3" class="edge">
<title>ExecuteUbergraph_ITM_MisSel_ResourceIcon__30&#45;&gt;ExecuteUbergraph_ITM_MisSel_ResourceIcon__50</title>
<path fill="none" stroke="black" d="M1996,-1268.65C1996,-1260.4 1996,-1250.99 1996,-1241.78"/>
<polygon fill="black" stroke="black" points="1999.5,-1241.83 1996,-1231.83 1992.5,-1241.83 1999.5,-1241.83"/>
</g>
<!-- ExecuteUbergraph_ITM_MisSel_ResourceIcon__79 -->
<g id="node7" class="node">
<title>ExecuteUbergraph_ITM_MisSel_ResourceIcon__79</title>
<polygon fill="#eeeeee" stroke="black" points="1777.5,-1071.5 1777.5,-1124.5 2214.5,-1124.5 2214.5,-1071.5 1777.5,-1071.5"/>
<text text-anchor="start" x="1785.5" y="-1109.3" font-family="monospace" font-size="14.00">EX_LetBool</text>
<text text-anchor="start" x="1785.5" y="-1094.3" font-family="monospace" font-size="14.00">  EX_LocalVariable [Temp_bool_Variable]</text>
<text text-anchor="start" x="1785.5" y="-1079.3" font-family="monospace" font-size="14.00">  EX_LocalVariable [CallFunc_IsValid_ReturnValue_1]</text>
</g>
<!-- ExecuteUbergraph_ITM_MisSel_ResourceIcon__50&#45;&gt;ExecuteUbergraph_ITM_MisSel_ResourceIcon__79 -->
<g id="edge4" class="edge">
<title>ExecuteUbergraph_ITM_MisSel_ResourceIcon__50&#45;&gt;ExecuteUbergraph_ITM_MisSel_ResourceIcon__79</title>
<path fill="none" stroke="black" d="M1996,-1162.56C1996,-1154 1996,-1144.73 1996,-1135.97"/>
<polygon fill="black" stroke="black" points="1999.5,-1136 1996,-1126 1992.5,-1136 1999.5,-1136"/>
</g>
<!-- ExecuteUbergraph_ITM_MisSel_ResourceIcon__98 -->
<g id="node8" class="node">
<title>ExecuteUbergraph_ITM_MisSel_ResourceIcon__98</title>
<polygon fill="#eeeeee" stroke="black" points="1789.5,-770.5 1789.5,-1033.5 2202.5,-1033.5 2202.5,-770.5 1789.5,-770.5"/>
<text text-anchor="start" x="1797.5" y="-1018.3" font-family="monospace" font-size="14.00">EX_Context</text>
<text text-anchor="start" x="1797.5" y="-1003.3" font-family="monospace" font-size="14.00">  EX_InstanceVariable [Basic_ResourceIcon]</text>
<text text-anchor="start" x="1797.5" y="-988.3" font-family="monospace" font-size="14.00">  EX_VirtualFunction SetVisibility</text>
<text text-anchor="start" x="1797.5" y="-973.3" font-family="monospace" font-size="14.00">    EX_SwitchValue</text>
<text text-anchor="start" x="1797.5" y="-958.3" font-family="monospace" font-size="14.00">      EX_LocalVariable [Temp_bool_Variable]</text>
<text text-anchor="start" x="1797.5" y="-943.3" font-family="monospace" font-size="14.00">      OffsetToSwitchEnd = 186</text>
<text text-anchor="start" x="1797.5" y="-928.3" font-family="monospace" font-size="14.00">      case 0:</text>
<text text-anchor="start" x="1797.5" y="-913.3" font-family="monospace" font-size="14.00">        EX_False</text>
<text text-anchor="start" x="1797.5" y="-898.3" font-family="monospace" font-size="14.00">        NextCaseOffset = 163</text>
<text text-anchor="start" x="1797.5" y="-883.3" font-family="monospace" font-size="14.00">        EX_LocalVariable [Temp_byte_Variable_1]</text>
<text text-anchor="start" x="1797.5" y="-868.3" font-family="monospace" font-size="14.00">      case 1:</text>
<text text-anchor="start" x="1797.5" y="-853.3" font-family="monospace" font-size="14.00">        EX_True</text>
<text text-anchor="start" x="1797.5" y="-838.3" font-family="monospace" font-size="14.00">        NextCaseOffset = 177</text>
<text text-anchor="start" x="1797.5" y="-823.3" font-family="monospace" font-size="14.00">        EX_LocalVariable [Temp_byte_Variable]</text>
<text text-anchor="start" x="1797.5" y="-808.3" font-family="monospace" font-size="14.00">      default:</text>
<text text-anchor="start" x="1797.5" y="-793.3" font-family="monospace" font-size="14.00">        EX_LocalVariable [K2Node_Select_Default]</text>
<text text-anchor="start" x="1797.5" y="-778.3" font-family="monospace" font-size="14.00">  RValue = []</text>
</g>
<!-- ExecuteUbergraph_ITM_MisSel_ResourceIcon__79&#45;&gt;ExecuteUbergraph_ITM_MisSel_ResourceIcon__98 -->
<g id="edge5" class="edge">
<title>ExecuteUbergraph_ITM_MisSel_ResourceIcon__79&#45;&gt;ExecuteUbergraph_ITM_MisSel_ResourceIcon__98</title>
<path fill="none" stroke="black" d="M1996,-1071.64C1996,-1063.79 1996,-1054.54 1996,-1044.46"/>
<polygon fill="black" stroke="black" points="1999.5,-1044.76 1996,-1034.76 1992.5,-1044.76 1999.5,-1044.76"/>
</g>
<!-- ExecuteUbergraph_ITM_MisSel_ResourceIcon__187 -->
<g id="node9" class="node">
<title>ExecuteUbergraph_ITM_MisSel_ResourceIcon__187</title>
<polygon fill="#eeeeee" stroke="black" points="1719.5,-664.5 1719.5,-732.5 2272.5,-732.5 2272.5,-664.5 1719.5,-664.5"/>
<text text-anchor="start" x="1727.5" y="-717.3" font-family="monospace" font-size="14.00">EX_LetBool</text>
<text text-anchor="start" x="1727.5" y="-702.3" font-family="monospace" font-size="14.00">  EX_LocalVariable [CallFunc_IsValid_ReturnValue]</text>
<text text-anchor="start" x="1727.5" y="-687.3" font-family="monospace" font-size="14.00">  EX_CallMath import /Script/Engine&#45;&gt;KismetSystemLibrary&#45;&gt;IsValid</text>
<text text-anchor="start" x="1727.5" y="-672.3" font-family="monospace" font-size="14.00">    EX_LocalVariable [K2Node_CustomEvent_Resource]</text>
</g>
<!-- ExecuteUbergraph_ITM_MisSel_ResourceIcon__98&#45;&gt;ExecuteUbergraph_ITM_MisSel_ResourceIcon__187 -->
<g id="edge6" class="edge">
<title>ExecuteUbergraph_ITM_MisSel_ResourceIcon__98&#45;&gt;ExecuteUbergraph_ITM_MisSel_ResourceIcon__187</title>
<path fill="none" stroke="black" d="M1996,-770.54C1996,-761.19 1996,-752.21 1996,-743.97"/>
<polygon fill="black" stroke="black" points="1999.5,-743.98 1996,-733.98 1992.5,-743.98 1999.5,-743.98"/>
</g>
<!-- ExecuteUbergraph_ITM_MisSel_ResourceIcon__216 -->
<g id="node10" class="node">
<title>ExecuteUbergraph_ITM_MisSel_ResourceIcon__216</title>
<polygon fill="#eeeeee" stroke="black" points="1785.5,-588.5 1785.5,-626.5 2206.5,-626.5 2206.5,-588.5 1785.5,-588.5"/>
<text text-anchor="start" x="1793.5" y="-611.3" font-family="monospace" font-size="14.00">EX_JumpIfNot 424</text>
<text text-anchor="start" x="1793.5" y="-596.3" font-family="monospace" font-size="14.00">  EX_LocalVariable [CallFunc_IsValid_ReturnValue]</text>
</g>
<!-- ExecuteUbergraph_ITM_MisSel_ResourceIcon__187&#45;&gt;ExecuteUbergraph_ITM_MisSel_ResourceIcon__216 -->
<g id="edge7" class="edge">
<title>ExecuteUbergraph_ITM_MisSel_ResourceIcon__187&#45;&gt;ExecuteUbergraph_ITM_MisSel_ResourceIcon__216</title>
<path fill="none" stroke="black" d="M1996,-664.61C1996,-655.79 1996,-646.32 1996,-637.72"/>
<polygon fill="black" stroke="black" points="1999.5,-637.8 1996,-627.8 1992.5,-637.8 1999.5,-637.8"/>
</g>
<!-- ExecuteUbergraph_ITM_MisSel_ResourceIcon__230 -->
<g id="node11" class="node">
<title>ExecuteUbergraph_ITM_MisSel_ResourceIcon__230</title>
<polygon fill="#eeeeee" stroke="black" points="1726,-348.5 1726,-536.5 2172,-536.5 2172,-348.5 1726,-348.5"/>
<text text-anchor="start" x="1734" y="-521.3" font-family="monospace" font-size="14.00">EX_Context</text>
<text text-anchor="start" x="1734" y="-506.3" font-family="monospace" font-size="14.00">  EX_Context</text>
<text text-anchor="start" x="1734" y="-491.3" font-family="monospace" font-size="14.00">    EX_InstanceVariable [Basic_ResourceIcon]</text>
<text text-anchor="start" x="1734" y="-476.3" font-family="monospace" font-size="14.00">    EX_InstanceVariable [ResourceIcon]</text>
<text text-anchor="start" x="1734" y="-461.3" font-family="monospace" font-size="14.00">    RValue = [ResourceIcon]</text>
<text text-anchor="start" x="1734" y="-446.3" font-family="monospace" font-size="14.00">  EX_VirtualFunction SetBrushFromTexture</text>
<text text-anchor="start" x="1734" y="-431.3" font-family="monospace" font-size="14.00">    EX_Context</text>
<text text-anchor="start" x="1734" y="-416.3" font-family="monospace" font-size="14.00">      EX_LocalVariable [K2Node_CustomEvent_Resource]</text>
<text text-anchor="start" x="1734" y="-401.3" font-family="monospace" font-size="14.00">      EX_InstanceVariable [Icon]</text>
<text text-anchor="start" x="1734" y="-386.3" font-family="monospace" font-size="14.00">      RValue = [Icon]</text>
<text text-anchor="start" x="1734" y="-371.3" font-family="monospace" font-size="14.00">    EX_False</text>
<text text-anchor="start" x="1734" y="-356.3" font-family="monospace" font-size="14.00">  RValue = []</text>
</g>
<!-- ExecuteUbergraph_ITM_MisSel_ResourceIcon__216&#45;&gt;ExecuteUbergraph_ITM_MisSel_ResourceIcon__230 -->
<g id="edge9" class="edge">
<title>ExecuteUbergraph_ITM_MisSel_ResourceIcon__216&#45;&gt;ExecuteUbergraph_ITM_MisSel_ResourceIcon__230</title>
<path fill="none" stroke="black" d="M1990.88,-588.75C1987.76,-577.92 1983.48,-563.09 1978.85,-547.04"/>
<polygon fill="black" stroke="black" points="1982.32,-546.43 1976.19,-537.79 1975.6,-548.37 1982.32,-546.43"/>
<text text-anchor="middle" x="1992.5" y="-558.8" font-family="monospace" font-size="14.00">IF</text>
</g>
<!-- ExecuteUbergraph_ITM_MisSel_ResourceIcon__424 -->
<g id="node14" class="node">
<title>ExecuteUbergraph_ITM_MisSel_ResourceIcon__424</title>
<polygon fill="#eeeeee" stroke="black" points="2020,-0.5 2020,-38.5 2136,-38.5 2136,-0.5 2020,-0.5"/>
<text text-anchor="start" x="2028" y="-23.3" font-family="monospace" font-size="14.00">EX_Return</text>
<text text-anchor="start" x="2028" y="-8.3" font-family="monospace" font-size="14.00">  EX_Nothing</text>
</g>
<!-- ExecuteUbergraph_ITM_MisSel_ResourceIcon__216&#45;&gt;ExecuteUbergraph_ITM_MisSel_ResourceIcon__424 -->
<g id="edge8" class="edge">
<title>ExecuteUbergraph_ITM_MisSel_ResourceIcon__216:e&#45;&gt;ExecuteUbergraph_ITM_MisSel_ResourceIcon__424</title>
<path fill="none" stroke="red" d="M2208,-607.5C2281,-607.5 2217,-516.5 2217,-443.5 2217,-443.5 2217,-443.5 2217,-117 2217,-78.9 2181.32,-54.63 2146.12,-39.97"/>
<polygon fill="none" stroke="red" points="2147.74,-36.84 2137.15,-36.45 2145.18,-43.36 2147.74,-36.84"/>
<text text-anchor="middle" x="2242" y="-250.3" font-family="monospace" font-size="14.00">IF NOT</text>
</g>
<!-- ExecuteUbergraph_ITM_MisSel_ResourceIcon__320 -->
<g id="node12" class="node">
<title>ExecuteUbergraph_ITM_MisSel_ResourceIcon__320</title>
<polygon fill="#eeeeee" stroke="black" points="1611.5,-197.5 1611.5,-310.5 2180.5,-310.5 2180.5,-197.5 1611.5,-197.5"/>
<text text-anchor="start" x="1619.5" y="-295.3" font-family="monospace" font-size="14.00">EX_Let</text>
<text text-anchor="start" x="1619.5" y="-280.3" font-family="monospace" font-size="14.00">  EX_LocalVariable [CallFunc_TextToUpper_ReturnValue]</text>
<text text-anchor="start" x="1619.5" y="-265.3" font-family="monospace" font-size="14.00">  EX_CallMath import /Script/Engine&#45;&gt;KismetTextLibrary&#45;&gt;TextToUpper</text>
<text text-anchor="start" x="1619.5" y="-250.3" font-family="monospace" font-size="14.00">    EX_Context</text>
<text text-anchor="start" x="1619.5" y="-235.3" font-family="monospace" font-size="14.00">      EX_LocalVariable [K2Node_CustomEvent_Resource]</text>
<text text-anchor="start" x="1619.5" y="-220.3" font-family="monospace" font-size="14.00">      EX_InstanceVariable [Title]</text>
<text text-anchor="start" x="1619.5" y="-205.3" font-family="monospace" font-size="14.00">      RValue = [Title]</text>
</g>
<!-- ExecuteUbergraph_ITM_MisSel_ResourceIcon__230&#45;&gt;ExecuteUbergraph_ITM_MisSel_ResourceIcon__320 -->
<g id="edge10" class="edge">
<title>ExecuteUbergraph_ITM_MisSel_ResourceIcon__230&#45;&gt;ExecuteUbergraph_ITM_MisSel_ResourceIcon__320</title>
<path fill="none" stroke="black" d="M1922.58,-348.52C1919.97,-339.35 1917.36,-330.17 1914.85,-321.35"/>
<polygon fill="black" stroke="black" points="1918.25,-320.5 1912.15,-311.84 1911.52,-322.41 1918.25,-320.5"/>
</g>
<!-- ExecuteUbergraph_ITM_MisSel_ResourceIcon__379 -->
<g id="node13" class="node">
<title>ExecuteUbergraph_ITM_MisSel_ResourceIcon__379</title>
<polygon fill="#eeeeee" stroke="black" points="1705,-76.5 1705,-159.5 2175,-159.5 2175,-76.5 1705,-76.5"/>
<text text-anchor="start" x="1713" y="-144.3" font-family="monospace" font-size="14.00">EX_Context</text>
<text text-anchor="start" x="1713" y="-129.3" font-family="monospace" font-size="14.00">  EX_InstanceVariable [DATA_ResourceName]</text>
<text text-anchor="start" x="1713" y="-114.3" font-family="monospace" font-size="14.00">  EX_VirtualFunction SetText</text>
<text text-anchor="start" x="1713" y="-99.3" font-family="monospace" font-size="14.00">    EX_LocalVariable [CallFunc_TextToUpper_ReturnValue]</text>
<text text-anchor="start" x="1713" y="-84.3" font-family="monospace" font-size="14.00">  RValue = []</text>
</g>
<!-- ExecuteUbergraph_ITM_MisSel_ResourceIcon__320&#45;&gt;ExecuteUbergraph_ITM_MisSel_ResourceIcon__379 -->
<g id="edge11" class="edge">
<title>ExecuteUbergraph_ITM_MisSel_ResourceIcon__320&#45;&gt;ExecuteUbergraph_ITM_MisSel_ResourceIcon__379</title>
<path fill="none" stroke="black" d="M1914.15,-197.72C1917.15,-188.6 1920.24,-179.18 1923.2,-170.16"/>
<polygon fill="black" stroke="black" points="1926.46,-171.44 1926.26,-160.85 1919.81,-169.26 1926.46,-171.44"/>
</g>
<!-- ExecuteUbergraph_ITM_MisSel_ResourceIcon__379&#45;&gt;ExecuteUbergraph_ITM_MisSel_ResourceIcon__424 -->
<g id="edge12" class="edge">
<title>ExecuteUbergraph_ITM_MisSel_ResourceIcon__379&#45;&gt;ExecuteUbergraph_ITM_MisSel_ResourceIcon__424</title>
<path fill="none" stroke="black" d="M1997.72,-76.63C2013.21,-65.81 2029.47,-54.44 2043.28,-44.78"/>
<polygon fill="black" stroke="black" points="2044.97,-47.87 2051.16,-39.27 2040.96,-42.13 2044.97,-47.87"/>
</g>
<!-- ExecuteUbergraph_ITM_MisSel_ResourceIcon__426 -->
<g id="node15" class="node">
<title>ExecuteUbergraph_ITM_MisSel_ResourceIcon__426</title>
<polygon fill="#eeeeee" stroke="black" points="1606,-1619.5 1606,-1655.5 1738,-1655.5 1738,-1619.5 1606,-1619.5"/>
<text text-anchor="start" x="1614" y="-1633.8" font-family="monospace" font-size="14.00">EX_EndOfScript</text>
</g>
<!-- SetData -->
<g id="node16" class="node">
<title>SetData</title>
<polygon fill="#ff8888" stroke="black" points="1356,-1734.5 1356,-1787.5 1826,-1787.5 1826,-1734.5 1356,-1734.5"/>
<text text-anchor="start" x="1364" y="-1772.3" font-family="monospace" font-size="14.00">Function SetData</text>
<text text-anchor="start" x="1364" y="-1757.3" font-family="monospace" font-size="14.00">  ObjectProperty Resource</text>
<text text-anchor="start" x="1364" y="-1742.3" font-family="monospace" font-size="14.00">    CPF_BlueprintVisible|CPF_BlueprintReadOnly|CPF_Parm</text>
</g>
<!-- SetData__0 -->
<g id="node17" class="node">
<title>SetData__0</title>
<polygon fill="#eeeeee" stroke="black" points="1343.5,-1562.5 1343.5,-1600.5 1838.5,-1600.5 1838.5,-1562.5 1343.5,-1562.5"/>
<text text-anchor="start" x="1351.5" y="-1585.3" font-family="monospace" font-size="14.00">EX_LetValueOnPersistentFrame [K2Node_CustomEvent_Resource]</text>
<text text-anchor="start" x="1351.5" y="-1570.3" font-family="monospace" font-size="14.00">  EX_LocalVariable [Resource]</text>
</g>
<!-- SetData&#45;&gt;SetData__0 -->
<g id="edge13" class="edge">
<title>SetData&#45;&gt;SetData__0</title>
<path fill="none" stroke="black" d="M1591,-1734.57C1591,-1701.98 1591,-1645.64 1591,-1611.44"/>
<polygon fill="black" stroke="black" points="1594.5,-1611.86 1591,-1601.86 1587.5,-1611.86 1594.5,-1611.86"/>
</g>
<!-- SetData__18 -->
<g id="node18" class="node">
<title>SetData__18</title>
<polygon fill="#eeeeee" stroke="black" points="1186.5,-1450.5 1186.5,-1488.5 1995.5,-1488.5 1995.5,-1450.5 1186.5,-1450.5"/>
<text text-anchor="start" x="1194.5" y="-1473.3" font-family="monospace" font-size="14.00">EX_LocalFinalFunction export ITM_MisSel_ResourceIcon_C&#45;&gt;ExecuteUbergraph_ITM_MisSel_ResourceIcon</text>
<text text-anchor="start" x="1194.5" y="-1458.3" font-family="monospace" font-size="14.00">  EX_IntConst 10</text>
</g>
<!-- SetData__0&#45;&gt;SetData__18 -->
<g id="edge14" class="edge">
<title>SetData__0&#45;&gt;SetData__18</title>
<path fill="none" stroke="black" d="M1591,-1562.83C1591,-1545.85 1591,-1519.88 1591,-1499.81"/>
<polygon fill="black" stroke="black" points="1594.5,-1500.01 1591,-1490.01 1587.5,-1500.01 1594.5,-1500.01"/>
</g>
<!-- SetData__18&#45;&gt;ExecuteUbergraph_ITM_MisSel_ResourceIcon__10 -->
<g id="edge15" class="edge">
<title>SetData__18:e&#45;&gt;ExecuteUbergraph_ITM_MisSel_ResourceIcon__10</title>
<path fill="none" stroke="red" d="M1997,-1469.5C2016.85,-1469.5 2014.92,-1445.32 2008.97,-1423.14"/>
<polygon fill="none" stroke="red" points="2012.34,-1422.23 2006.13,-1413.65 2005.64,-1424.23 2012.34,-1422.23"/>
</g>
<!-- SetData__33 -->
<g id="node19" class="node">
<title>SetData__33</title>
<polygon fill="#eeeeee" stroke="black" points="1533,-1367 1533,-1405 1649,-1405 1649,-1367 1533,-1367"/>
<text text-anchor="start" x="1541" y="-1389.8" font-family="monospace" font-size="14.00">EX_Return</text>
<text text-anchor="start" x="1541" y="-1374.8" font-family="monospace" font-size="14.00">  EX_Nothing</text>
</g>
<!-- SetData__18&#45;&gt;SetData__33 -->
<g id="edge16" class="edge">
<title>SetData__18&#45;&gt;SetData__33</title>
<path fill="none" stroke="black" d="M1591,-1450.82C1591,-1440.74 1591,-1427.86 1591,-1416.31"/>
<polygon fill="black" stroke="black" points="1594.5,-1416.44 1591,-1406.44 1587.5,-1416.44 1594.5,-1416.44"/>
</g>
<!-- SetData__35 -->
<g id="node20" class="node">
<title>SetData__35</title>
<polygon fill="#eeeeee" stroke="black" points="1606,-1507.5 1606,-1543.5 1738,-1543.5 1738,-1507.5 1606,-1507.5"/>
<text text-anchor="start" x="1614" y="-1521.8" font-family="monospace" font-size="14.00">EX_EndOfScript</text>
</g>
</g>
</svg>
