<?xml version="1.0" encoding="UTF-8" standalone="no"?>
<!DOCTYPE svg PUBLIC "-//W3C//DTD SVG 1.1//EN"
 "http://www.w3.org/Graphics/SVG/1.1/DTD/svg11.dtd">
<!-- Generated by graphviz version 7.0.1 (0)
 -->
<!-- Pages: 1 -->
<svg width="2382pt" height="2702pt"
 viewBox="0.00 0.00 2382.00 2702.00" xmlns="http://www.w3.org/2000/svg" xmlns:xlink="http://www.w3.org/1999/xlink">
<g id="graph0" class="graph" transform="scale(1 1) rotate(0) translate(4 2698)">
<polygon fill="white" stroke="none" points="-4,4 -4,-2698 2378,-2698 2378,4 -4,4"/>
<!-- ITM_MisSel_MissionIconSmall_C -->
<g id="node1" class="node">
<title>ITM_MisSel_MissionIconSmall_C</title>
<polygon fill="#88ff88" stroke="black" points="0,-2498 0,-2641 850,-2641 850,-2498 0,-2498"/>
<text text-anchor="start" x="8" y="-2625.8" font-family="monospace" font-size="14.00">ClassExport: ITM_MisSel_MissionIconSmall_C</text>
<text text-anchor="start" x="8" y="-2610.8" font-family="monospace" font-size="14.00">  SuperStruct: import /Script/UMG&#45;&gt;UserWidget</text>
<text text-anchor="start" x="8" y="-2595.8" font-family="monospace" font-size="14.00">  Properties:</text>
<text text-anchor="start" x="8" y="-2580.8" font-family="monospace" font-size="14.00">    StructProperty UberGraphFrame</text>
<text text-anchor="start" x="8" y="-2565.8" font-family="monospace" font-size="14.00">      CPF_Transient|CPF_DuplicateTransient</text>
<text text-anchor="start" x="8" y="-2550.8" font-family="monospace" font-size="14.00">    ObjectProperty ITEM_MissionSelection_MissionIconBasic</text>
<text text-anchor="start" x="8" y="-2535.8" font-family="monospace" font-size="14.00">      CPF_BlueprintVisible|CPF_ExportObject|CPF_InstancedReference|CPF_RepSkip|CPF_PersistentInstance</text>
<text text-anchor="start" x="8" y="-2520.8" font-family="monospace" font-size="14.00">    ObjectProperty ITM_MisSel_MissionIconBasic_Locked</text>
<text text-anchor="start" x="8" y="-2505.8" font-family="monospace" font-size="14.00">      CPF_BlueprintVisible|CPF_ExportObject|CPF_InstancedReference|CPF_RepSkip|CPF_PersistentInstance</text>
</g>
<!-- ExecuteUbergraph_ITM_MisSel_MissionIconSmall -->
<g id="node2" class="node">
<title>ExecuteUbergraph_ITM_MisSel_MissionIconSmall</title>
<polygon fill="#ff8888" stroke="black" points="868.5,-2445.5 868.5,-2693.5 1363.5,-2693.5 1363.5,-2445.5 868.5,-2445.5"/>
<text text-anchor="start" x="876.5" y="-2678.3" font-family="monospace" font-size="14.00">Function ExecuteUbergraph_ITM_MisSel_MissionIconSmall</text>
<text text-anchor="start" x="876.5" y="-2663.3" font-family="monospace" font-size="14.00">  IntProperty EntryPoint</text>
<text text-anchor="start" x="876.5" y="-2648.3" font-family="monospace" font-size="14.00">    CPF_BlueprintVisible|CPF_BlueprintReadOnly|CPF_Parm</text>
<text text-anchor="start" x="876.5" y="-2633.3" font-family="monospace" font-size="14.00">  BoolProperty Temp_bool_Variable</text>
<text text-anchor="start" x="876.5" y="-2618.3" font-family="monospace" font-size="14.00">  EnumProperty Temp_byte_Variable</text>
<text text-anchor="start" x="876.5" y="-2603.3" font-family="monospace" font-size="14.00">  EnumProperty Temp_byte_Variable_1</text>
<text text-anchor="start" x="876.5" y="-2588.3" font-family="monospace" font-size="14.00">  BoolProperty Temp_bool_Variable_1</text>
<text text-anchor="start" x="876.5" y="-2573.3" font-family="monospace" font-size="14.00">  EnumProperty Temp_byte_Variable_2</text>
<text text-anchor="start" x="876.5" y="-2558.3" font-family="monospace" font-size="14.00">  EnumProperty Temp_byte_Variable_3</text>
<text text-anchor="start" x="876.5" y="-2543.3" font-family="monospace" font-size="14.00">  ObjectProperty K2Node_CustomEvent_Mission</text>
<text text-anchor="start" x="876.5" y="-2528.3" font-family="monospace" font-size="14.00">  ObjectProperty CallFunc_GetOwningPlayer_ReturnValue</text>
<text text-anchor="start" x="876.5" y="-2513.3" font-family="monospace" font-size="14.00">  ObjectProperty K2Node_DynamicCast_AsFSDPlayer_Controller</text>
<text text-anchor="start" x="876.5" y="-2498.3" font-family="monospace" font-size="14.00">  BoolProperty K2Node_DynamicCast_bSuccess</text>
<text text-anchor="start" x="876.5" y="-2483.3" font-family="monospace" font-size="14.00">  BoolProperty CallFunc_IsLocked_ReturnValue</text>
<text text-anchor="start" x="876.5" y="-2468.3" font-family="monospace" font-size="14.00">  EnumProperty K2Node_Select_Default</text>
<text text-anchor="start" x="876.5" y="-2453.3" font-family="monospace" font-size="14.00">  EnumProperty K2Node_Select_Default_1</text>
</g>
<!-- ExecuteUbergraph_ITM_MisSel_MissionIconSmall__0 -->
<g id="node3" class="node">
<title>ExecuteUbergraph_ITM_MisSel_MissionIconSmall__0</title>
<polygon fill="#eeeeee" stroke="black" points="980,-2370.5 980,-2408.5 1252,-2408.5 1252,-2370.5 980,-2370.5"/>
<text text-anchor="start" x="988" y="-2393.3" font-family="monospace" font-size="14.00">EX_ComputedJump</text>
<text text-anchor="start" x="988" y="-2378.3" font-family="monospace" font-size="14.00">  EX_LocalVariable [EntryPoint]</text>
</g>
<!-- ExecuteUbergraph_ITM_MisSel_MissionIconSmall&#45;&gt;ExecuteUbergraph_ITM_MisSel_MissionIconSmall__0 -->
<g id="edge1" class="edge">
<title>ExecuteUbergraph_ITM_MisSel_MissionIconSmall&#45;&gt;ExecuteUbergraph_ITM_MisSel_MissionIconSmall__0</title>
<path fill="none" stroke="black" d="M1116,-2445.84C1116,-2436.2 1116,-2427.18 1116,-2419.33"/>
<polygon fill="black" stroke="black" points="1119.5,-2419.55 1116,-2409.55 1112.5,-2419.55 1119.5,-2419.55"/>
</g>
<!-- ExecuteUbergraph_ITM_MisSel_MissionIconSmall__10 -->
<g id="node4" class="node">
<title>ExecuteUbergraph_ITM_MisSel_MissionIconSmall__10</title>
<polygon fill="#eeeeee" stroke="black" points="1791,-2115.5 1791,-2258.5 2319,-2258.5 2319,-2115.5 1791,-2115.5"/>
<text text-anchor="start" x="1799" y="-2243.3" font-family="monospace" font-size="14.00">EX_Context</text>
<text text-anchor="start" x="1799" y="-2228.3" font-family="monospace" font-size="14.00">  EX_InstanceVariable [ITEM_MissionSelection_MissionIconBasic]</text>
<text text-anchor="start" x="1799" y="-2213.3" font-family="monospace" font-size="14.00">  EX_LocalVirtualFunction SetTemplate</text>
<text text-anchor="start" x="1799" y="-2198.3" font-family="monospace" font-size="14.00">    EX_Context</text>
<text text-anchor="start" x="1799" y="-2183.3" font-family="monospace" font-size="14.00">      EX_LocalVariable [K2Node_CustomEvent_Mission]</text>
<text text-anchor="start" x="1799" y="-2168.3" font-family="monospace" font-size="14.00">      EX_InstanceVariable [Template]</text>
<text text-anchor="start" x="1799" y="-2153.3" font-family="monospace" font-size="14.00">      RValue = [Template]</text>
<text text-anchor="start" x="1799" y="-2138.3" font-family="monospace" font-size="14.00">    EX_True</text>
<text text-anchor="start" x="1799" y="-2123.3" font-family="monospace" font-size="14.00">  RValue = []</text>
</g>
<!-- ExecuteUbergraph_ITM_MisSel_MissionIconSmall__78 -->
<g id="node5" class="node">
<title>ExecuteUbergraph_ITM_MisSel_MissionIconSmall__78</title>
<polygon fill="#eeeeee" stroke="black" points="1886,-2025.5 1886,-2078.5 2224,-2078.5 2224,-2025.5 1886,-2025.5"/>
<text text-anchor="start" x="1894" y="-2063.3" font-family="monospace" font-size="14.00">EX_Let</text>
<text text-anchor="start" x="1894" y="-2048.3" font-family="monospace" font-size="14.00">  EX_LocalVariable [Temp_byte_Variable]</text>
<text text-anchor="start" x="1894" y="-2033.3" font-family="monospace" font-size="14.00">  EX_ByteConst 3</text>
</g>
<!-- ExecuteUbergraph_ITM_MisSel_MissionIconSmall__10&#45;&gt;ExecuteUbergraph_ITM_MisSel_MissionIconSmall__78 -->
<g id="edge2" class="edge">
<title>ExecuteUbergraph_ITM_MisSel_MissionIconSmall__10&#45;&gt;ExecuteUbergraph_ITM_MisSel_MissionIconSmall__78</title>
<path fill="none" stroke="black" d="M2055,-2115.61C2055,-2106.65 2055,-2097.78 2055,-2089.67"/>
<polygon fill="black" stroke="black" points="2058.5,-2089.9 2055,-2079.9 2051.5,-2089.9 2058.5,-2089.9"/>
</g>
<!-- ExecuteUbergraph_ITM_MisSel_MissionIconSmall__98 -->
<g id="node6" class="node">
<title>ExecuteUbergraph_ITM_MisSel_MissionIconSmall__98</title>
<polygon fill="#eeeeee" stroke="black" points="1877.5,-1935.5 1877.5,-1988.5 2232.5,-1988.5 2232.5,-1935.5 1877.5,-1935.5"/>
<text text-anchor="start" x="1885.5" y="-1973.3" font-family="monospace" font-size="14.00">EX_Let</text>
<text text-anchor="start" x="1885.5" y="-1958.3" font-family="monospace" font-size="14.00">  EX_LocalVariable [Temp_byte_Variable_1]</text>
<text text-anchor="start" x="1885.5" y="-1943.3" font-family="monospace" font-size="14.00">  EX_ByteConst 1</text>
</g>
<!-- ExecuteUbergraph_ITM_MisSel_MissionIconSmall__78&#45;&gt;ExecuteUbergraph_ITM_MisSel_MissionIconSmall__98 -->
<g id="edge3" class="edge">
<title>ExecuteUbergraph_ITM_MisSel_MissionIconSmall__78&#45;&gt;ExecuteUbergraph_ITM_MisSel_MissionIconSmall__98</title>
<path fill="none" stroke="black" d="M2055,-2025.55C2055,-2017.52 2055,-2008.49 2055,-1999.83"/>
<polygon fill="black" stroke="black" points="2058.5,-1999.91 2055,-1989.91 2051.5,-1999.91 2058.5,-1999.91"/>
</g>
<!-- ExecuteUbergraph_ITM_MisSel_MissionIconSmall__118 -->
<g id="node7" class="node">
<title>ExecuteUbergraph_ITM_MisSel_MissionIconSmall__118</title>
<polygon fill="#eeeeee" stroke="black" points="1811.5,-1845.5 1811.5,-1898.5 2298.5,-1898.5 2298.5,-1845.5 1811.5,-1845.5"/>
<text text-anchor="start" x="1819.5" y="-1883.3" font-family="monospace" font-size="14.00">EX_LetObj</text>
<text text-anchor="start" x="1819.5" y="-1868.3" font-family="monospace" font-size="14.00">  EX_LocalVariable [CallFunc_GetOwningPlayer_ReturnValue]</text>
<text text-anchor="start" x="1819.5" y="-1853.3" font-family="monospace" font-size="14.00">  EX_VirtualFunction GetOwningPlayer</text>
</g>
<!-- ExecuteUbergraph_ITM_MisSel_MissionIconSmall__98&#45;&gt;ExecuteUbergraph_ITM_MisSel_MissionIconSmall__118 -->
<g id="edge4" class="edge">
<title>ExecuteUbergraph_ITM_MisSel_MissionIconSmall__98&#45;&gt;ExecuteUbergraph_ITM_MisSel_MissionIconSmall__118</title>
<path fill="none" stroke="black" d="M2055,-1935.55C2055,-1927.52 2055,-1918.49 2055,-1909.83"/>
<polygon fill="black" stroke="black" points="2058.5,-1909.91 2055,-1899.91 2051.5,-1909.91 2058.5,-1909.91"/>
</g>
<!-- ExecuteUbergraph_ITM_MisSel_MissionIconSmall__142 -->
<g id="node8" class="node">
<title>ExecuteUbergraph_ITM_MisSel_MissionIconSmall__142</title>
<polygon fill="#eeeeee" stroke="black" points="1791,-1740.5 1791,-1808.5 2319,-1808.5 2319,-1740.5 1791,-1740.5"/>
<text text-anchor="start" x="1799" y="-1793.3" font-family="monospace" font-size="14.00">EX_Let</text>
<text text-anchor="start" x="1799" y="-1778.3" font-family="monospace" font-size="14.00">  EX_LocalVariable [K2Node_DynamicCast_AsFSDPlayer_Controller]</text>
<text text-anchor="start" x="1799" y="-1763.3" font-family="monospace" font-size="14.00">  EX_DynamicCast import /Script/FSD&#45;&gt;FSDPlayerController</text>
<text text-anchor="start" x="1799" y="-1748.3" font-family="monospace" font-size="14.00">    EX_LocalVariable [CallFunc_GetOwningPlayer_ReturnValue]</text>
</g>
<!-- ExecuteUbergraph_ITM_MisSel_MissionIconSmall__118&#45;&gt;ExecuteUbergraph_ITM_MisSel_MissionIconSmall__142 -->
<g id="edge5" class="edge">
<title>ExecuteUbergraph_ITM_MisSel_MissionIconSmall__118&#45;&gt;ExecuteUbergraph_ITM_MisSel_MissionIconSmall__142</title>
<path fill="none" stroke="black" d="M2055,-1845.66C2055,-1837.67 2055,-1828.59 2055,-1819.68"/>
<polygon fill="black" stroke="black" points="2058.5,-1819.69 2055,-1809.69 2051.5,-1819.69 2058.5,-1819.69"/>
</g>
<!-- ExecuteUbergraph_ITM_MisSel_MissionIconSmall__178 -->
<g id="node9" class="node">
<title>ExecuteUbergraph_ITM_MisSel_MissionIconSmall__178</title>
<polygon fill="#eeeeee" stroke="black" points="1782.5,-1635.5 1782.5,-1703.5 2327.5,-1703.5 2327.5,-1635.5 1782.5,-1635.5"/>
<text text-anchor="start" x="1790.5" y="-1688.3" font-family="monospace" font-size="14.00">EX_Let</text>
<text text-anchor="start" x="1790.5" y="-1673.3" font-family="monospace" font-size="14.00">  EX_LocalVariable [K2Node_DynamicCast_bSuccess]</text>
<text text-anchor="start" x="1790.5" y="-1658.3" font-family="monospace" font-size="14.00">  EX_PrimitiveCast ObjectToBool</text>
<text text-anchor="start" x="1790.5" y="-1643.3" font-family="monospace" font-size="14.00">    EX_LocalVariable [K2Node_DynamicCast_AsFSDPlayer_Controller]</text>
</g>
<!-- ExecuteUbergraph_ITM_MisSel_MissionIconSmall__142&#45;&gt;ExecuteUbergraph_ITM_MisSel_MissionIconSmall__178 -->
<g id="edge6" class="edge">
<title>ExecuteUbergraph_ITM_MisSel_MissionIconSmall__142&#45;&gt;ExecuteUbergraph_ITM_MisSel_MissionIconSmall__178</title>
<path fill="none" stroke="black" d="M2055,-1740.63C2055,-1732.45 2055,-1723.55 2055,-1714.92"/>
<polygon fill="black" stroke="black" points="2058.5,-1714.93 2055,-1704.93 2051.5,-1714.93 2058.5,-1714.93"/>
</g>
<!-- ExecuteUbergraph_ITM_MisSel_MissionIconSmall__207 -->
<g id="node10" class="node">
<title>ExecuteUbergraph_ITM_MisSel_MissionIconSmall__207</title>
<polygon fill="#eeeeee" stroke="black" points="1770.5,-1485.5 1770.5,-1598.5 2339.5,-1598.5 2339.5,-1485.5 1770.5,-1485.5"/>
<text text-anchor="start" x="1778.5" y="-1583.3" font-family="monospace" font-size="14.00">EX_LetBool</text>
<text text-anchor="start" x="1778.5" y="-1568.3" font-family="monospace" font-size="14.00">  EX_LocalVariable [CallFunc_IsLocked_ReturnValue]</text>
<text text-anchor="start" x="1778.5" y="-1553.3" font-family="monospace" font-size="14.00">  EX_Context</text>
<text text-anchor="start" x="1778.5" y="-1538.3" font-family="monospace" font-size="14.00">    EX_LocalVariable [K2Node_CustomEvent_Mission]</text>
<text text-anchor="start" x="1778.5" y="-1523.3" font-family="monospace" font-size="14.00">    EX_FinalFunction import /Script/FSD&#45;&gt;GeneratedMission&#45;&gt;IsLocked</text>
<text text-anchor="start" x="1778.5" y="-1508.3" font-family="monospace" font-size="14.00">      EX_LocalVariable [K2Node_DynamicCast_AsFSDPlayer_Controller]</text>
<text text-anchor="start" x="1778.5" y="-1493.3" font-family="monospace" font-size="14.00">    RValue = [CallFunc_IsLocked_ReturnValue]</text>
</g>
<!-- ExecuteUbergraph_ITM_MisSel_MissionIconSmall__178&#45;&gt;ExecuteUbergraph_ITM_MisSel_MissionIconSmall__207 -->
<g id="edge7" class="edge">
<title>ExecuteUbergraph_ITM_MisSel_MissionIconSmall__178&#45;&gt;ExecuteUbergraph_ITM_MisSel_MissionIconSmall__207</title>
<path fill="none" stroke="black" d="M2055,-1635.53C2055,-1627.46 2055,-1618.54 2055,-1609.51"/>
<polygon fill="black" stroke="black" points="2058.5,-1609.59 2055,-1599.59 2051.5,-1609.59 2058.5,-1609.59"/>
</g>
<!-- ExecuteUbergraph_ITM_MisSel_MissionIconSmall__258 -->
<g id="node11" class="node">
<title>ExecuteUbergraph_ITM_MisSel_MissionIconSmall__258</title>
<polygon fill="#eeeeee" stroke="black" points="1840.5,-1395.5 1840.5,-1448.5 2269.5,-1448.5 2269.5,-1395.5 1840.5,-1395.5"/>
<text text-anchor="start" x="1848.5" y="-1433.3" font-family="monospace" font-size="14.00">EX_LetBool</text>
<text text-anchor="start" x="1848.5" y="-1418.3" font-family="monospace" font-size="14.00">  EX_LocalVariable [Temp_bool_Variable]</text>
<text text-anchor="start" x="1848.5" y="-1403.3" font-family="monospace" font-size="14.00">  EX_LocalVariable [CallFunc_IsLocked_ReturnValue]</text>
</g>
<!-- ExecuteUbergraph_ITM_MisSel_MissionIconSmall__207&#45;&gt;ExecuteUbergraph_ITM_MisSel_MissionIconSmall__258 -->
<g id="edge8" class="edge">
<title>ExecuteUbergraph_ITM_MisSel_MissionIconSmall__207&#45;&gt;ExecuteUbergraph_ITM_MisSel_MissionIconSmall__258</title>
<path fill="none" stroke="black" d="M2055,-1485.8C2055,-1477.01 2055,-1468.12 2055,-1459.89"/>
<polygon fill="black" stroke="black" points="2058.5,-1459.92 2055,-1449.92 2051.5,-1459.92 2058.5,-1459.92"/>
</g>
<!-- ExecuteUbergraph_ITM_MisSel_MissionIconSmall__277 -->
<g id="node12" class="node">
<title>ExecuteUbergraph_ITM_MisSel_MissionIconSmall__277</title>
<polygon fill="#eeeeee" stroke="black" points="1807.5,-1095.5 1807.5,-1358.5 2302.5,-1358.5 2302.5,-1095.5 1807.5,-1095.5"/>
<text text-anchor="start" x="1815.5" y="-1343.3" font-family="monospace" font-size="14.00">EX_Context</text>
<text text-anchor="start" x="1815.5" y="-1328.3" font-family="monospace" font-size="14.00">  EX_InstanceVariable [ITM_MisSel_MissionIconBasic_Locked]</text>
<text text-anchor="start" x="1815.5" y="-1313.3" font-family="monospace" font-size="14.00">  EX_VirtualFunction SetVisibility</text>
<text text-anchor="start" x="1815.5" y="-1298.3" font-family="monospace" font-size="14.00">    EX_SwitchValue</text>
<text text-anchor="start" x="1815.5" y="-1283.3" font-family="monospace" font-size="14.00">      EX_LocalVariable [Temp_bool_Variable]</text>
<text text-anchor="start" x="1815.5" y="-1268.3" font-family="monospace" font-size="14.00">      OffsetToSwitchEnd = 365</text>
<text text-anchor="start" x="1815.5" y="-1253.3" font-family="monospace" font-size="14.00">      case 0:</text>
<text text-anchor="start" x="1815.5" y="-1238.3" font-family="monospace" font-size="14.00">        EX_False</text>
<text text-anchor="start" x="1815.5" y="-1223.3" font-family="monospace" font-size="14.00">        NextCaseOffset = 342</text>
<text text-anchor="start" x="1815.5" y="-1208.3" font-family="monospace" font-size="14.00">        EX_LocalVariable [Temp_byte_Variable_1]</text>
<text text-anchor="start" x="1815.5" y="-1193.3" font-family="monospace" font-size="14.00">      case 1:</text>
<text text-anchor="start" x="1815.5" y="-1178.3" font-family="monospace" font-size="14.00">        EX_True</text>
<text text-anchor="start" x="1815.5" y="-1163.3" font-family="monospace" font-size="14.00">        NextCaseOffset = 356</text>
<text text-anchor="start" x="1815.5" y="-1148.3" font-family="monospace" font-size="14.00">        EX_LocalVariable [Temp_byte_Variable]</text>
<text text-anchor="start" x="1815.5" y="-1133.3" font-family="monospace" font-size="14.00">      default:</text>
<text text-anchor="start" x="1815.5" y="-1118.3" font-family="monospace" font-size="14.00">        EX_LocalVariable [K2Node_Select_Default_1]</text>
<text text-anchor="start" x="1815.5" y="-1103.3" font-family="monospace" font-size="14.00">  RValue = []</text>
</g>
<!-- ExecuteUbergraph_ITM_MisSel_MissionIconSmall__258&#45;&gt;ExecuteUbergraph_ITM_MisSel_MissionIconSmall__277 -->
<g id="edge9" class="edge">
<title>ExecuteUbergraph_ITM_MisSel_MissionIconSmall__258&#45;&gt;ExecuteUbergraph_ITM_MisSel_MissionIconSmall__277</title>
<path fill="none" stroke="black" d="M2055,-1395.77C2055,-1388.2 2055,-1379.3 2055,-1369.62"/>
<polygon fill="black" stroke="black" points="2058.5,-1369.91 2055,-1359.91 2051.5,-1369.91 2058.5,-1369.91"/>
</g>
<!-- ExecuteUbergraph_ITM_MisSel_MissionIconSmall__366 -->
<g id="node13" class="node">
<title>ExecuteUbergraph_ITM_MisSel_MissionIconSmall__366</title>
<polygon fill="#eeeeee" stroke="black" points="1877.5,-1005.5 1877.5,-1058.5 2232.5,-1058.5 2232.5,-1005.5 1877.5,-1005.5"/>
<text text-anchor="start" x="1885.5" y="-1043.3" font-family="monospace" font-size="14.00">EX_Let</text>
<text text-anchor="start" x="1885.5" y="-1028.3" font-family="monospace" font-size="14.00">  EX_LocalVariable [Temp_byte_Variable_2]</text>
<text text-anchor="start" x="1885.5" y="-1013.3" font-family="monospace" font-size="14.00">  EX_ByteConst 1</text>
</g>
<!-- ExecuteUbergraph_ITM_MisSel_MissionIconSmall__277&#45;&gt;ExecuteUbergraph_ITM_MisSel_MissionIconSmall__366 -->
<g id="edge10" class="edge">
<title>ExecuteUbergraph_ITM_MisSel_MissionIconSmall__277&#45;&gt;ExecuteUbergraph_ITM_MisSel_MissionIconSmall__366</title>
<path fill="none" stroke="black" d="M2055,-1095.66C2055,-1086.4 2055,-1077.61 2055,-1069.71"/>
<polygon fill="black" stroke="black" points="2058.5,-1069.96 2055,-1059.96 2051.5,-1069.96 2058.5,-1069.96"/>
</g>
<!-- ExecuteUbergraph_ITM_MisSel_MissionIconSmall__386 -->
<g id="node14" class="node">
<title>ExecuteUbergraph_ITM_MisSel_MissionIconSmall__386</title>
<polygon fill="#eeeeee" stroke="black" points="1877.5,-915.5 1877.5,-968.5 2232.5,-968.5 2232.5,-915.5 1877.5,-915.5"/>
<text text-anchor="start" x="1885.5" y="-953.3" font-family="monospace" font-size="14.00">EX_Let</text>
<text text-anchor="start" x="1885.5" y="-938.3" font-family="monospace" font-size="14.00">  EX_LocalVariable [Temp_byte_Variable_3]</text>
<text text-anchor="start" x="1885.5" y="-923.3" font-family="monospace" font-size="14.00">  EX_ByteConst 3</text>
</g>
<!-- ExecuteUbergraph_ITM_MisSel_MissionIconSmall__366&#45;&gt;ExecuteUbergraph_ITM_MisSel_MissionIconSmall__386 -->
<g id="edge11" class="edge">
<title>ExecuteUbergraph_ITM_MisSel_MissionIconSmall__366&#45;&gt;ExecuteUbergraph_ITM_MisSel_MissionIconSmall__386</title>
<path fill="none" stroke="black" d="M2055,-1005.55C2055,-997.52 2055,-988.49 2055,-979.83"/>
<polygon fill="black" stroke="black" points="2058.5,-979.91 2055,-969.91 2051.5,-979.91 2058.5,-979.91"/>
</g>
<!-- ExecuteUbergraph_ITM_MisSel_MissionIconSmall__406 -->
<g id="node15" class="node">
<title>ExecuteUbergraph_ITM_MisSel_MissionIconSmall__406</title>
<polygon fill="#eeeeee" stroke="black" points="1811.5,-825.5 1811.5,-878.5 2298.5,-878.5 2298.5,-825.5 1811.5,-825.5"/>
<text text-anchor="start" x="1819.5" y="-863.3" font-family="monospace" font-size="14.00">EX_LetObj</text>
<text text-anchor="start" x="1819.5" y="-848.3" font-family="monospace" font-size="14.00">  EX_LocalVariable [CallFunc_GetOwningPlayer_ReturnValue]</text>
<text text-anchor="start" x="1819.5" y="-833.3" font-family="monospace" font-size="14.00">  EX_VirtualFunction GetOwningPlayer</text>
</g>
<!-- ExecuteUbergraph_ITM_MisSel_MissionIconSmall__386&#45;&gt;ExecuteUbergraph_ITM_MisSel_MissionIconSmall__406 -->
<g id="edge12" class="edge">
<title>ExecuteUbergraph_ITM_MisSel_MissionIconSmall__386&#45;&gt;ExecuteUbergraph_ITM_MisSel_MissionIconSmall__406</title>
<path fill="none" stroke="black" d="M2055,-915.55C2055,-907.52 2055,-898.49 2055,-889.83"/>
<polygon fill="black" stroke="black" points="2058.5,-889.91 2055,-879.91 2051.5,-889.91 2058.5,-889.91"/>
</g>
<!-- ExecuteUbergraph_ITM_MisSel_MissionIconSmall__430 -->
<g id="node16" class="node">
<title>ExecuteUbergraph_ITM_MisSel_MissionIconSmall__430</title>
<polygon fill="#eeeeee" stroke="black" points="1791,-720.5 1791,-788.5 2319,-788.5 2319,-720.5 1791,-720.5"/>
<text text-anchor="start" x="1799" y="-773.3" font-family="monospace" font-size="14.00">EX_Let</text>
<text text-anchor="start" x="1799" y="-758.3" font-family="monospace" font-size="14.00">  EX_LocalVariable [K2Node_DynamicCast_AsFSDPlayer_Controller]</text>
<text text-anchor="start" x="1799" y="-743.3" font-family="monospace" font-size="14.00">  EX_DynamicCast import /Script/FSD&#45;&gt;FSDPlayerController</text>
<text text-anchor="start" x="1799" y="-728.3" font-family="monospace" font-size="14.00">    EX_LocalVariable [CallFunc_GetOwningPlayer_ReturnValue]</text>
</g>
<!-- ExecuteUbergraph_ITM_MisSel_MissionIconSmall__406&#45;&gt;ExecuteUbergraph_ITM_MisSel_MissionIconSmall__430 -->
<g id="edge13" class="edge">
<title>ExecuteUbergraph_ITM_MisSel_MissionIconSmall__406&#45;&gt;ExecuteUbergraph_ITM_MisSel_MissionIconSmall__430</title>
<path fill="none" stroke="black" d="M2055,-825.66C2055,-817.67 2055,-808.59 2055,-799.68"/>
<polygon fill="black" stroke="black" points="2058.5,-799.69 2055,-789.69 2051.5,-799.69 2058.5,-799.69"/>
</g>
<!-- ExecuteUbergraph_ITM_MisSel_MissionIconSmall__466 -->
<g id="node17" class="node">
<title>ExecuteUbergraph_ITM_MisSel_MissionIconSmall__466</title>
<polygon fill="#eeeeee" stroke="black" points="1782.5,-615.5 1782.5,-683.5 2327.5,-683.5 2327.5,-615.5 1782.5,-615.5"/>
<text text-anchor="start" x="1790.5" y="-668.3" font-family="monospace" font-size="14.00">EX_Let</text>
<text text-anchor="start" x="1790.5" y="-653.3" font-family="monospace" font-size="14.00">  EX_LocalVariable [K2Node_DynamicCast_bSuccess]</text>
<text text-anchor="start" x="1790.5" y="-638.3" font-family="monospace" font-size="14.00">  EX_PrimitiveCast ObjectToBool</text>
<text text-anchor="start" x="1790.5" y="-623.3" font-family="monospace" font-size="14.00">    EX_LocalVariable [K2Node_DynamicCast_AsFSDPlayer_Controller]</text>
</g>
<!-- ExecuteUbergraph_ITM_MisSel_MissionIconSmall__430&#45;&gt;ExecuteUbergraph_ITM_MisSel_MissionIconSmall__466 -->
<g id="edge14" class="edge">
<title>ExecuteUbergraph_ITM_MisSel_MissionIconSmall__430&#45;&gt;ExecuteUbergraph_ITM_MisSel_MissionIconSmall__466</title>
<path fill="none" stroke="black" d="M2055,-720.63C2055,-712.45 2055,-703.55 2055,-694.92"/>
<polygon fill="black" stroke="black" points="2058.5,-694.93 2055,-684.93 2051.5,-694.93 2058.5,-694.93"/>
</g>
<!-- ExecuteUbergraph_ITM_MisSel_MissionIconSmall__495 -->
<g id="node18" class="node">
<title>ExecuteUbergraph_ITM_MisSel_MissionIconSmall__495</title>
<polygon fill="#eeeeee" stroke="black" points="1770.5,-465.5 1770.5,-578.5 2339.5,-578.5 2339.5,-465.5 1770.5,-465.5"/>
<text text-anchor="start" x="1778.5" y="-563.3" font-family="monospace" font-size="14.00">EX_LetBool</text>
<text text-anchor="start" x="1778.5" y="-548.3" font-family="monospace" font-size="14.00">  EX_LocalVariable [CallFunc_IsLocked_ReturnValue]</text>
<text text-anchor="start" x="1778.5" y="-533.3" font-family="monospace" font-size="14.00">  EX_Context</text>
<text text-anchor="start" x="1778.5" y="-518.3" font-family="monospace" font-size="14.00">    EX_LocalVariable [K2Node_CustomEvent_Mission]</text>
<text text-anchor="start" x="1778.5" y="-503.3" font-family="monospace" font-size="14.00">    EX_FinalFunction import /Script/FSD&#45;&gt;GeneratedMission&#45;&gt;IsLocked</text>
<text text-anchor="start" x="1778.5" y="-488.3" font-family="monospace" font-size="14.00">      EX_LocalVariable [K2Node_DynamicCast_AsFSDPlayer_Controller]</text>
<text text-anchor="start" x="1778.5" y="-473.3" font-family="monospace" font-size="14.00">    RValue = [CallFunc_IsLocked_ReturnValue]</text>
</g>
<!-- ExecuteUbergraph_ITM_MisSel_MissionIconSmall__466&#45;&gt;ExecuteUbergraph_ITM_MisSel_MissionIconSmall__495 -->
<g id="edge15" class="edge">
<title>ExecuteUbergraph_ITM_MisSel_MissionIconSmall__466&#45;&gt;ExecuteUbergraph_ITM_MisSel_MissionIconSmall__495</title>
<path fill="none" stroke="black" d="M2055,-615.53C2055,-607.46 2055,-598.54 2055,-589.51"/>
<polygon fill="black" stroke="black" points="2058.5,-589.59 2055,-579.59 2051.5,-589.59 2058.5,-589.59"/>
</g>
<!-- ExecuteUbergraph_ITM_MisSel_MissionIconSmall__546 -->
<g id="node19" class="node">
<title>ExecuteUbergraph_ITM_MisSel_MissionIconSmall__546</title>
<polygon fill="#eeeeee" stroke="black" points="1840.5,-375.5 1840.5,-428.5 2269.5,-428.5 2269.5,-375.5 1840.5,-375.5"/>
<text text-anchor="start" x="1848.5" y="-413.3" font-family="monospace" font-size="14.00">EX_LetBool</text>
<text text-anchor="start" x="1848.5" y="-398.3" font-family="monospace" font-size="14.00">  EX_LocalVariable [Temp_bool_Variable_1]</text>
<text text-anchor="start" x="1848.5" y="-383.3" font-family="monospace" font-size="14.00">  EX_LocalVariable [CallFunc_IsLocked_ReturnValue]</text>
</g>
<!-- ExecuteUbergraph_ITM_MisSel_MissionIconSmall__495&#45;&gt;ExecuteUbergraph_ITM_MisSel_MissionIconSmall__546 -->
<g id="edge16" class="edge">
<title>ExecuteUbergraph_ITM_MisSel_MissionIconSmall__495&#45;&gt;ExecuteUbergraph_ITM_MisSel_MissionIconSmall__546</title>
<path fill="none" stroke="black" d="M2055,-465.8C2055,-457.01 2055,-448.12 2055,-439.89"/>
<polygon fill="black" stroke="black" points="2058.5,-439.92 2055,-429.92 2051.5,-439.92 2058.5,-439.92"/>
</g>
<!-- ExecuteUbergraph_ITM_MisSel_MissionIconSmall__565 -->
<g id="node20" class="node">
<title>ExecuteUbergraph_ITM_MisSel_MissionIconSmall__565</title>
<polygon fill="#eeeeee" stroke="black" points="1791,-75.5 1791,-338.5 2319,-338.5 2319,-75.5 1791,-75.5"/>
<text text-anchor="start" x="1799" y="-323.3" font-family="monospace" font-size="14.00">EX_Context</text>
<text text-anchor="start" x="1799" y="-308.3" font-family="monospace" font-size="14.00">  EX_InstanceVariable [ITEM_MissionSelection_MissionIconBasic]</text>
<text text-anchor="start" x="1799" y="-293.3" font-family="monospace" font-size="14.00">  EX_VirtualFunction SetVisibility</text>
<text text-anchor="start" x="1799" y="-278.3" font-family="monospace" font-size="14.00">    EX_SwitchValue</text>
<text text-anchor="start" x="1799" y="-263.3" font-family="monospace" font-size="14.00">      EX_LocalVariable [Temp_bool_Variable_1]</text>
<text text-anchor="start" x="1799" y="-248.3" font-family="monospace" font-size="14.00">      OffsetToSwitchEnd = 653</text>
<text text-anchor="start" x="1799" y="-233.3" font-family="monospace" font-size="14.00">      case 0:</text>
<text text-anchor="start" x="1799" y="-218.3" font-family="monospace" font-size="14.00">        EX_False</text>
<text text-anchor="start" x="1799" y="-203.3" font-family="monospace" font-size="14.00">        NextCaseOffset = 630</text>
<text text-anchor="start" x="1799" y="-188.3" font-family="monospace" font-size="14.00">        EX_LocalVariable [Temp_byte_Variable_3]</text>
<text text-anchor="start" x="1799" y="-173.3" font-family="monospace" font-size="14.00">      case 1:</text>
<text text-anchor="start" x="1799" y="-158.3" font-family="monospace" font-size="14.00">        EX_True</text>
<text text-anchor="start" x="1799" y="-143.3" font-family="monospace" font-size="14.00">        NextCaseOffset = 644</text>
<text text-anchor="start" x="1799" y="-128.3" font-family="monospace" font-size="14.00">        EX_LocalVariable [Temp_byte_Variable_2]</text>
<text text-anchor="start" x="1799" y="-113.3" font-family="monospace" font-size="14.00">      default:</text>
<text text-anchor="start" x="1799" y="-98.3" font-family="monospace" font-size="14.00">        EX_LocalVariable [K2Node_Select_Default]</text>
<text text-anchor="start" x="1799" y="-83.3" font-family="monospace" font-size="14.00">  RValue = []</text>
</g>
<!-- ExecuteUbergraph_ITM_MisSel_MissionIconSmall__546&#45;&gt;ExecuteUbergraph_ITM_MisSel_MissionIconSmall__565 -->
<g id="edge17" class="edge">
<title>ExecuteUbergraph_ITM_MisSel_MissionIconSmall__546&#45;&gt;ExecuteUbergraph_ITM_MisSel_MissionIconSmall__565</title>
<path fill="none" stroke="black" d="M2055,-375.77C2055,-368.2 2055,-359.3 2055,-349.62"/>
<polygon fill="black" stroke="black" points="2058.5,-349.91 2055,-339.91 2051.5,-349.91 2058.5,-349.91"/>
</g>
<!-- ExecuteUbergraph_ITM_MisSel_MissionIconSmall__654 -->
<g id="node21" class="node">
<title>ExecuteUbergraph_ITM_MisSel_MissionIconSmall__654</title>
<polygon fill="#eeeeee" stroke="black" points="1997,-0.5 1997,-38.5 2113,-38.5 2113,-0.5 1997,-0.5"/>
<text text-anchor="start" x="2005" y="-23.3" font-family="monospace" font-size="14.00">EX_Return</text>
<text text-anchor="start" x="2005" y="-8.3" font-family="monospace" font-size="14.00">  EX_Nothing</text>
</g>
<!-- ExecuteUbergraph_ITM_MisSel_MissionIconSmall__565&#45;&gt;ExecuteUbergraph_ITM_MisSel_MissionIconSmall__654 -->
<g id="edge18" class="edge">
<title>ExecuteUbergraph_ITM_MisSel_MissionIconSmall__565&#45;&gt;ExecuteUbergraph_ITM_MisSel_MissionIconSmall__654</title>
<path fill="none" stroke="black" d="M2055,-75.65C2055,-66.25 2055,-57.47 2055,-49.8"/>
<polygon fill="black" stroke="black" points="2058.5,-49.89 2055,-39.89 2051.5,-49.89 2058.5,-49.89"/>
</g>
<!-- ExecuteUbergraph_ITM_MisSel_MissionIconSmall__656 -->
<g id="node22" class="node">
<title>ExecuteUbergraph_ITM_MisSel_MissionIconSmall__656</title>
<polygon fill="#eeeeee" stroke="black" points="2073,-2296.5 2073,-2332.5 2205,-2332.5 2205,-2296.5 2073,-2296.5"/>
<text text-anchor="start" x="2081" y="-2310.8" font-family="monospace" font-size="14.00">EX_EndOfScript</text>
</g>
<!-- SetData -->
<g id="node23" class="node">
<title>SetData</title>
<polygon fill="#ff8888" stroke="black" points="1382,-2543 1382,-2596 1852,-2596 1852,-2543 1382,-2543"/>
<text text-anchor="start" x="1390" y="-2580.8" font-family="monospace" font-size="14.00">Function SetData</text>
<text text-anchor="start" x="1390" y="-2565.8" font-family="monospace" font-size="14.00">  ObjectProperty Mission</text>
<text text-anchor="start" x="1390" y="-2550.8" font-family="monospace" font-size="14.00">    CPF_BlueprintVisible|CPF_BlueprintReadOnly|CPF_Parm</text>
</g>
<!-- SetData__0 -->
<g id="node24" class="node">
<title>SetData__0</title>
<polygon fill="#eeeeee" stroke="black" points="1373.5,-2370.5 1373.5,-2408.5 1860.5,-2408.5 1860.5,-2370.5 1373.5,-2370.5"/>
<text text-anchor="start" x="1381.5" y="-2393.3" font-family="monospace" font-size="14.00">EX_LetValueOnPersistentFrame [K2Node_CustomEvent_Mission]</text>
<text text-anchor="start" x="1381.5" y="-2378.3" font-family="monospace" font-size="14.00">  EX_LocalVariable [Mission]</text>
</g>
<!-- SetData&#45;&gt;SetData__0 -->
<g id="edge19" class="edge">
<title>SetData&#45;&gt;SetData__0</title>
<path fill="none" stroke="black" d="M1617,-2543.37C1617,-2510.8 1617,-2454.09 1617,-2419.66"/>
<polygon fill="black" stroke="black" points="1620.5,-2420 1617,-2410 1613.5,-2420 1620.5,-2420"/>
</g>
<!-- SetData__18 -->
<g id="node25" class="node">
<title>SetData__18</title>
<polygon fill="#eeeeee" stroke="black" points="1179.5,-2295.5 1179.5,-2333.5 2054.5,-2333.5 2054.5,-2295.5 1179.5,-2295.5"/>
<text text-anchor="start" x="1187.5" y="-2318.3" font-family="monospace" font-size="14.00">EX_LocalFinalFunction export ITM_MisSel_MissionIconSmall_C&#45;&gt;ExecuteUbergraph_ITM_MisSel_MissionIconSmall</text>
<text text-anchor="start" x="1187.5" y="-2303.3" font-family="monospace" font-size="14.00">  EX_IntConst 10</text>
</g>
<!-- SetData__0&#45;&gt;SetData__18 -->
<g id="edge20" class="edge">
<title>SetData__0&#45;&gt;SetData__18</title>
<path fill="none" stroke="black" d="M1617,-2370.83C1617,-2363 1617,-2353.57 1617,-2344.74"/>
<polygon fill="black" stroke="black" points="1620.5,-2344.78 1617,-2334.78 1613.5,-2344.78 1620.5,-2344.78"/>
</g>
<!-- SetData__18&#45;&gt;ExecuteUbergraph_ITM_MisSel_MissionIconSmall__10 -->
<g id="edge21" class="edge">
<title>SetData__18:e&#45;&gt;ExecuteUbergraph_ITM_MisSel_MissionIconSmall__10</title>
<path fill="none" stroke="red" d="M2056,-2314.5C2061.64,-2314.5 2062.59,-2294.12 2061.71,-2269.71"/>
<polygon fill="none" stroke="red" points="2065.21,-2269.62 2061.26,-2259.79 2058.22,-2269.94 2065.21,-2269.62"/>
</g>
<!-- SetData__33 -->
<g id="node26" class="node">
<title>SetData__33</title>
<polygon fill="#eeeeee" stroke="black" points="1559,-2168 1559,-2206 1675,-2206 1675,-2168 1559,-2168"/>
<text text-anchor="start" x="1567" y="-2190.8" font-family="monospace" font-size="14.00">EX_Return</text>
<text text-anchor="start" x="1567" y="-2175.8" font-family="monospace" font-size="14.00">  EX_Nothing</text>
</g>
<!-- SetData__18&#45;&gt;SetData__33 -->
<g id="edge22" class="edge">
<title>SetData__18&#45;&gt;SetData__33</title>
<path fill="none" stroke="black" d="M1617,-2295.52C1617,-2275.11 1617,-2241.52 1617,-2217.31"/>
<polygon fill="black" stroke="black" points="1620.5,-2217.46 1617,-2207.46 1613.5,-2217.46 1620.5,-2217.46"/>
</g>
<!-- SetData__35 -->
<g id="node27" class="node">
<title>SetData__35</title>
<polygon fill="#eeeeee" stroke="black" points="2242,-2034 2242,-2070 2374,-2070 2374,-2034 2242,-2034"/>
<text text-anchor="start" x="2250" y="-2048.3" font-family="monospace" font-size="14.00">EX_EndOfScript</text>
</g>
</g>
</svg>
