<?xml version="1.0" encoding="UTF-8" standalone="no"?>
<!DOCTYPE svg PUBLIC "-//W3C//DTD SVG 1.1//EN"
 "http://www.w3.org/Graphics/SVG/1.1/DTD/svg11.dtd">
<!-- Generated by graphviz version 7.0.1 (0)
 -->
<!-- Pages: 1 -->
<svg width="3187pt" height="901pt"
 viewBox="0.00 0.00 3187.00 901.00" xmlns="http://www.w3.org/2000/svg" xmlns:xlink="http://www.w3.org/1999/xlink">
<g id="graph0" class="graph" transform="scale(1 1) rotate(0) translate(4 897)">
<polygon fill="white" stroke="none" points="-4,4 -4,-897 3183,-897 3183,4 -4,4"/>
<!-- ITM_MisSel_MissionIcon_C -->
<g id="node1" class="node">
<title>ITM_MisSel_MissionIcon_C</title>
<polygon fill="#88ff88" stroke="black" points="0,-749.5 0,-892.5 850,-892.5 850,-749.5 0,-749.5"/>
<text text-anchor="start" x="8" y="-877.3" font-family="monospace" font-size="14.00">ClassExport: ITM_MisSel_MissionIcon_C</text>
<text text-anchor="start" x="8" y="-862.3" font-family="monospace" font-size="14.00">  SuperStruct: import /Script/UMG&#45;&gt;UserWidget</text>
<text text-anchor="start" x="8" y="-847.3" font-family="monospace" font-size="14.00">  Properties:</text>
<text text-anchor="start" x="8" y="-832.3" font-family="monospace" font-size="14.00">    StructProperty UberGraphFrame</text>
<text text-anchor="start" x="8" y="-817.3" font-family="monospace" font-size="14.00">      CPF_Transient|CPF_DuplicateTransient</text>
<text text-anchor="start" x="8" y="-802.3" font-family="monospace" font-size="14.00">    ObjectProperty ITEM_MissionSelection_MissionIconBasic</text>
<text text-anchor="start" x="8" y="-787.3" font-family="monospace" font-size="14.00">      CPF_BlueprintVisible|CPF_ExportObject|CPF_InstancedReference|CPF_RepSkip|CPF_PersistentInstance</text>
<text text-anchor="start" x="8" y="-772.3" font-family="monospace" font-size="14.00">    ObjectProperty MissionTemplate</text>
<text text-anchor="start" x="8" y="-757.3" font-family="monospace" font-size="14.00">      CPF_Edit|CPF_BlueprintVisible|CPF_ExposeOnSpawn</text>
</g>
<!-- ExecuteUbergraph_ITM_MisSel_MissionIcon -->
<g id="node2" class="node">
<title>ExecuteUbergraph_ITM_MisSel_MissionIcon</title>
<polygon fill="#ff8888" stroke="black" points="868,-779.5 868,-862.5 1338,-862.5 1338,-779.5 868,-779.5"/>
<text text-anchor="start" x="876" y="-847.3" font-family="monospace" font-size="14.00">Function ExecuteUbergraph_ITM_MisSel_MissionIcon</text>
<text text-anchor="start" x="876" y="-832.3" font-family="monospace" font-size="14.00">  IntProperty EntryPoint</text>
<text text-anchor="start" x="876" y="-817.3" font-family="monospace" font-size="14.00">    CPF_BlueprintVisible|CPF_BlueprintReadOnly|CPF_Parm</text>
<text text-anchor="start" x="876" y="-802.3" font-family="monospace" font-size="14.00">  BoolProperty K2Node_Event_IsDesignTime</text>
<text text-anchor="start" x="876" y="-787.3" font-family="monospace" font-size="14.00">  BoolProperty CallFunc_IsValid_ReturnValue</text>
</g>
<!-- ExecuteUbergraph_ITM_MisSel_MissionIcon__0 -->
<g id="node3" class="node">
<title>ExecuteUbergraph_ITM_MisSel_MissionIcon__0</title>
<polygon fill="#eeeeee" stroke="black" points="967,-615 967,-653 1239,-653 1239,-615 967,-615"/>
<text text-anchor="start" x="975" y="-637.8" font-family="monospace" font-size="14.00">EX_ComputedJump</text>
<text text-anchor="start" x="975" y="-622.8" font-family="monospace" font-size="14.00">  EX_LocalVariable [EntryPoint]</text>
</g>
<!-- ExecuteUbergraph_ITM_MisSel_MissionIcon&#45;&gt;ExecuteUbergraph_ITM_MisSel_MissionIcon__0 -->
<g id="edge1" class="edge">
<title>ExecuteUbergraph_ITM_MisSel_MissionIcon&#45;&gt;ExecuteUbergraph_ITM_MisSel_MissionIcon__0</title>
<path fill="none" stroke="black" d="M1103,-779.86C1103,-744.96 1103,-695.23 1103,-664.06"/>
<polygon fill="black" stroke="black" points="1106.5,-664.22 1103,-654.22 1099.5,-664.22 1106.5,-664.22"/>
</g>
<!-- ExecuteUbergraph_ITM_MisSel_MissionIcon__10 -->
<g id="node4" class="node">
<title>ExecuteUbergraph_ITM_MisSel_MissionIcon__10</title>
<polygon fill="#eeeeee" stroke="black" points="1710.5,-278.5 1710.5,-346.5 2263.5,-346.5 2263.5,-278.5 1710.5,-278.5"/>
<text text-anchor="start" x="1718.5" y="-331.3" font-family="monospace" font-size="14.00">EX_LetBool</text>
<text text-anchor="start" x="1718.5" y="-316.3" font-family="monospace" font-size="14.00">  EX_LocalVariable [CallFunc_IsValid_ReturnValue]</text>
<text text-anchor="start" x="1718.5" y="-301.3" font-family="monospace" font-size="14.00">  EX_CallMath import /Script/Engine&#45;&gt;KismetSystemLibrary&#45;&gt;IsValid</text>
<text text-anchor="start" x="1718.5" y="-286.3" font-family="monospace" font-size="14.00">    EX_InstanceVariable [MissionTemplate]</text>
</g>
<!-- ExecuteUbergraph_ITM_MisSel_MissionIcon__39 -->
<g id="node5" class="node">
<title>ExecuteUbergraph_ITM_MisSel_MissionIcon__39</title>
<polygon fill="#eeeeee" stroke="black" points="1776.5,-166.5 1776.5,-204.5 2197.5,-204.5 2197.5,-166.5 1776.5,-166.5"/>
<text text-anchor="start" x="1784.5" y="-189.3" font-family="monospace" font-size="14.00">EX_JumpIfNot 76</text>
<text text-anchor="start" x="1784.5" y="-174.3" font-family="monospace" font-size="14.00">  EX_LocalVariable [CallFunc_IsValid_ReturnValue]</text>
</g>
<!-- ExecuteUbergraph_ITM_MisSel_MissionIcon__10&#45;&gt;ExecuteUbergraph_ITM_MisSel_MissionIcon__39 -->
<g id="edge2" class="edge">
<title>ExecuteUbergraph_ITM_MisSel_MissionIcon__10&#45;&gt;ExecuteUbergraph_ITM_MisSel_MissionIcon__39</title>
<path fill="none" stroke="black" d="M1987,-278.66C1987,-259.2 1987,-234.74 1987,-215.91"/>
<polygon fill="black" stroke="black" points="1990.5,-215.97 1987,-205.97 1983.5,-215.97 1990.5,-215.97"/>
</g>
<!-- ExecuteUbergraph_ITM_MisSel_MissionIcon__53 -->
<g id="node6" class="node">
<title>ExecuteUbergraph_ITM_MisSel_MissionIcon__53</title>
<polygon fill="#eeeeee" stroke="black" points="1822,-76.5 1822,-114.5 2160,-114.5 2160,-76.5 1822,-76.5"/>
<text text-anchor="start" x="1830" y="-99.3" font-family="monospace" font-size="14.00">EX_LocalVirtualFunction SetData</text>
<text text-anchor="start" x="1830" y="-84.3" font-family="monospace" font-size="14.00">  EX_InstanceVariable [MissionTemplate]</text>
</g>
<!-- ExecuteUbergraph_ITM_MisSel_MissionIcon__39&#45;&gt;ExecuteUbergraph_ITM_MisSel_MissionIcon__53 -->
<g id="edge4" class="edge">
<title>ExecuteUbergraph_ITM_MisSel_MissionIcon__39&#45;&gt;ExecuteUbergraph_ITM_MisSel_MissionIcon__53</title>
<path fill="none" stroke="black" d="M1987.81,-166.69C1988.35,-154.88 1989.06,-139.12 1989.68,-125.52"/>
<polygon fill="black" stroke="black" points="1993.17,-125.94 1990.12,-115.79 1986.17,-125.62 1993.17,-125.94"/>
<text text-anchor="middle" x="1998.5" y="-136.8" font-family="monospace" font-size="14.00">IF</text>
</g>
<!-- ExecuteUbergraph_ITM_MisSel_MissionIcon__76 -->
<g id="node7" class="node">
<title>ExecuteUbergraph_ITM_MisSel_MissionIcon__76</title>
<polygon fill="#eeeeee" stroke="black" points="2036,-0.5 2036,-38.5 2152,-38.5 2152,-0.5 2036,-0.5"/>
<text text-anchor="start" x="2044" y="-23.3" font-family="monospace" font-size="14.00">EX_Return</text>
<text text-anchor="start" x="2044" y="-8.3" font-family="monospace" font-size="14.00">  EX_Nothing</text>
</g>
<!-- ExecuteUbergraph_ITM_MisSel_MissionIcon__39&#45;&gt;ExecuteUbergraph_ITM_MisSel_MissionIcon__76 -->
<g id="edge3" class="edge">
<title>ExecuteUbergraph_ITM_MisSel_MissionIcon__39:e&#45;&gt;ExecuteUbergraph_ITM_MisSel_MissionIcon__76</title>
<path fill="none" stroke="red" d="M2199,-185.5C2216.42,-185.5 2241.13,-176.45 2169,-76 2160.35,-63.96 2148.3,-53.43 2136.38,-44.88"/>
<polygon fill="none" stroke="red" points="2138.42,-42.02 2128.18,-39.3 2134.48,-47.81 2138.42,-42.02"/>
<text text-anchor="middle" x="2220" y="-91.8" font-family="monospace" font-size="14.00">IF NOT</text>
</g>
<!-- ExecuteUbergraph_ITM_MisSel_MissionIcon__53&#45;&gt;ExecuteUbergraph_ITM_MisSel_MissionIcon__76 -->
<g id="edge5" class="edge">
<title>ExecuteUbergraph_ITM_MisSel_MissionIcon__53&#45;&gt;ExecuteUbergraph_ITM_MisSel_MissionIcon__76</title>
<path fill="none" stroke="black" d="M2015.93,-76.59C2029.22,-67.04 2045.75,-55.17 2060.18,-44.8"/>
<polygon fill="black" stroke="black" points="2061.99,-47.81 2068.07,-39.13 2057.9,-42.12 2061.99,-47.81"/>
</g>
<!-- ExecuteUbergraph_ITM_MisSel_MissionIcon__78 -->
<g id="node8" class="node">
<title>ExecuteUbergraph_ITM_MisSel_MissionIcon__78</title>
<polygon fill="#eeeeee" stroke="black" points="1900,-694.5 1900,-730.5 2032,-730.5 2032,-694.5 1900,-694.5"/>
<text text-anchor="start" x="1908" y="-708.8" font-family="monospace" font-size="14.00">EX_EndOfScript</text>
</g>
<!-- PreConstruct -->
<g id="node9" class="node">
<title>PreConstruct</title>
<polygon fill="#ff8888" stroke="black" points="1356,-794.5 1356,-847.5 1826,-847.5 1826,-794.5 1356,-794.5"/>
<text text-anchor="start" x="1364" y="-832.3" font-family="monospace" font-size="14.00">Function PreConstruct</text>
<text text-anchor="start" x="1364" y="-817.3" font-family="monospace" font-size="14.00">  BoolProperty IsDesignTime</text>
<text text-anchor="start" x="1364" y="-802.3" font-family="monospace" font-size="14.00">    CPF_BlueprintVisible|CPF_BlueprintReadOnly|CPF_Parm</text>
</g>
<!-- PreConstruct__0 -->
<g id="node10" class="node">
<title>PreConstruct__0</title>
<polygon fill="#eeeeee" stroke="black" points="1351.5,-615 1351.5,-653 1830.5,-653 1830.5,-615 1351.5,-615"/>
<text text-anchor="start" x="1359.5" y="-637.8" font-family="monospace" font-size="14.00">EX_LetValueOnPersistentFrame [K2Node_Event_IsDesignTime]</text>
<text text-anchor="start" x="1359.5" y="-622.8" font-family="monospace" font-size="14.00">  EX_LocalVariable [IsDesignTime]</text>
</g>
<!-- PreConstruct&#45;&gt;PreConstruct__0 -->
<g id="edge6" class="edge">
<title>PreConstruct&#45;&gt;PreConstruct__0</title>
<path fill="none" stroke="black" d="M1591,-794.66C1591,-760.52 1591,-699.9 1591,-663.98"/>
<polygon fill="black" stroke="black" points="1594.5,-664.34 1591,-654.34 1587.5,-664.34 1594.5,-664.34"/>
</g>
<!-- PreConstruct__18 -->
<g id="node11" class="node">
<title>PreConstruct__18</title>
<polygon fill="#eeeeee" stroke="black" points="1195,-450.5 1195,-488.5 1987,-488.5 1987,-450.5 1195,-450.5"/>
<text text-anchor="start" x="1203" y="-473.3" font-family="monospace" font-size="14.00">EX_LocalFinalFunction export ITM_MisSel_MissionIcon_C&#45;&gt;ExecuteUbergraph_ITM_MisSel_MissionIcon</text>
<text text-anchor="start" x="1203" y="-458.3" font-family="monospace" font-size="14.00">  EX_IntConst 10</text>
</g>
<!-- PreConstruct__0&#45;&gt;PreConstruct__18 -->
<g id="edge7" class="edge">
<title>PreConstruct__0&#45;&gt;PreConstruct__18</title>
<path fill="none" stroke="black" d="M1591,-615.3C1591,-587.46 1591,-533.16 1591,-499.54"/>
<polygon fill="black" stroke="black" points="1594.5,-499.69 1591,-489.69 1587.5,-499.69 1594.5,-499.69"/>
</g>
<!-- PreConstruct__18&#45;&gt;ExecuteUbergraph_ITM_MisSel_MissionIcon__10 -->
<g id="edge8" class="edge">
<title>PreConstruct__18:e&#45;&gt;ExecuteUbergraph_ITM_MisSel_MissionIcon__10</title>
<path fill="none" stroke="red" d="M1988,-469.5C2033.26,-469.5 2019.01,-403.03 2003.65,-356.87"/>
<polygon fill="none" stroke="red" points="2007.03,-355.94 2000.46,-347.63 2000.42,-358.23 2007.03,-355.94"/>
</g>
<!-- PreConstruct__33 -->
<g id="node12" class="node">
<title>PreConstruct__33</title>
<polygon fill="#eeeeee" stroke="black" points="1533,-293.5 1533,-331.5 1649,-331.5 1649,-293.5 1533,-293.5"/>
<text text-anchor="start" x="1541" y="-316.3" font-family="monospace" font-size="14.00">EX_Return</text>
<text text-anchor="start" x="1541" y="-301.3" font-family="monospace" font-size="14.00">  EX_Nothing</text>
</g>
<!-- PreConstruct__18&#45;&gt;PreConstruct__33 -->
<g id="edge9" class="edge">
<title>PreConstruct__18&#45;&gt;PreConstruct__33</title>
<path fill="none" stroke="black" d="M1591,-450.72C1591,-424.21 1591,-374.04 1591,-342.26"/>
<polygon fill="black" stroke="black" points="1594.5,-342.59 1591,-332.59 1587.5,-342.59 1594.5,-342.59"/>
</g>
<!-- PreConstruct__35 -->
<g id="node13" class="node">
<title>PreConstruct__35</title>
<polygon fill="#eeeeee" stroke="black" points="1900,-537.5 1900,-573.5 2032,-573.5 2032,-537.5 1900,-537.5"/>
<text text-anchor="start" x="1908" y="-551.8" font-family="monospace" font-size="14.00">EX_EndOfScript</text>
</g>
<!-- SetData -->
<g id="node14" class="node">
<title>SetData</title>
<polygon fill="#ff8888" stroke="black" points="2105,-794.5 2105,-847.5 2575,-847.5 2575,-794.5 2105,-794.5"/>
<text text-anchor="start" x="2113" y="-832.3" font-family="monospace" font-size="14.00">Function SetData</text>
<text text-anchor="start" x="2113" y="-817.3" font-family="monospace" font-size="14.00">  ObjectProperty InMissionTemplate</text>
<text text-anchor="start" x="2113" y="-802.3" font-family="monospace" font-size="14.00">    CPF_BlueprintVisible|CPF_BlueprintReadOnly|CPF_Parm</text>
</g>
<!-- SetData__0 -->
<g id="node15" class="node">
<title>SetData__0</title>
<polygon fill="#eeeeee" stroke="black" points="2171,-607.5 2171,-660.5 2509,-660.5 2509,-607.5 2171,-607.5"/>
<text text-anchor="start" x="2179" y="-645.3" font-family="monospace" font-size="14.00">EX_LetObj</text>
<text text-anchor="start" x="2179" y="-630.3" font-family="monospace" font-size="14.00">  EX_InstanceVariable [MissionTemplate]</text>
<text text-anchor="start" x="2179" y="-615.3" font-family="monospace" font-size="14.00">  EX_LocalVariable [InMissionTemplate]</text>
</g>
<!-- SetData&#45;&gt;SetData__0 -->
<g id="edge10" class="edge">
<title>SetData&#45;&gt;SetData__0</title>
<path fill="none" stroke="black" d="M2340,-794.66C2340,-762.79 2340,-707.82 2340,-671.43"/>
<polygon fill="black" stroke="black" points="2343.5,-671.84 2340,-661.84 2336.5,-671.84 2343.5,-671.84"/>
</g>
<!-- SetData__19 -->
<g id="node16" class="node">
<title>SetData__19</title>
<polygon fill="#eeeeee" stroke="black" points="2076,-420.5 2076,-518.5 2604,-518.5 2604,-420.5 2076,-420.5"/>
<text text-anchor="start" x="2084" y="-503.3" font-family="monospace" font-size="14.00">EX_Context</text>
<text text-anchor="start" x="2084" y="-488.3" font-family="monospace" font-size="14.00">  EX_InstanceVariable [ITEM_MissionSelection_MissionIconBasic]</text>
<text text-anchor="start" x="2084" y="-473.3" font-family="monospace" font-size="14.00">  EX_LocalVirtualFunction SetTemplate</text>
<text text-anchor="start" x="2084" y="-458.3" font-family="monospace" font-size="14.00">    EX_InstanceVariable [MissionTemplate]</text>
<text text-anchor="start" x="2084" y="-443.3" font-family="monospace" font-size="14.00">    EX_False</text>
<text text-anchor="start" x="2084" y="-428.3" font-family="monospace" font-size="14.00">  RValue = []</text>
</g>
<!-- SetData__0&#45;&gt;SetData__19 -->
<g id="edge11" class="edge">
<title>SetData__0&#45;&gt;SetData__19</title>
<path fill="none" stroke="black" d="M2340,-607.61C2340,-586.76 2340,-556.39 2340,-529.53"/>
<polygon fill="black" stroke="black" points="2343.5,-529.78 2340,-519.78 2336.5,-529.78 2343.5,-529.78"/>
</g>
<!-- SetData__65 -->
<g id="node17" class="node">
<title>SetData__65</title>
<polygon fill="#eeeeee" stroke="black" points="2282,-293.5 2282,-331.5 2398,-331.5 2398,-293.5 2282,-293.5"/>
<text text-anchor="start" x="2290" y="-316.3" font-family="monospace" font-size="14.00">EX_Return</text>
<text text-anchor="start" x="2290" y="-301.3" font-family="monospace" font-size="14.00">  EX_Nothing</text>
</g>
<!-- SetData__19&#45;&gt;SetData__65 -->
<g id="edge12" class="edge">
<title>SetData__19&#45;&gt;SetData__65</title>
<path fill="none" stroke="black" d="M2340,-420.73C2340,-395.21 2340,-364.63 2340,-342.66"/>
<polygon fill="black" stroke="black" points="2343.5,-342.95 2340,-332.95 2336.5,-342.95 2343.5,-342.95"/>
</g>
<!-- SetData__67 -->
<g id="node18" class="node">
<title>SetData__67</title>
<polygon fill="#eeeeee" stroke="black" points="2355,-365.5 2355,-401.5 2487,-401.5 2487,-365.5 2355,-365.5"/>
<text text-anchor="start" x="2363" y="-379.8" font-family="monospace" font-size="14.00">EX_EndOfScript</text>
</g>
<!-- SetIcon -->
<g id="node19" class="node">
<title>SetIcon</title>
<polygon fill="#ff8888" stroke="black" points="2593,-794.5 2593,-847.5 3179,-847.5 3179,-794.5 2593,-794.5"/>
<text text-anchor="start" x="2601" y="-832.3" font-family="monospace" font-size="14.00">Function SetIcon</text>
<text text-anchor="start" x="2601" y="-817.3" font-family="monospace" font-size="14.00">  StructProperty MissionIcon</text>
<text text-anchor="start" x="2601" y="-802.3" font-family="monospace" font-size="14.00">    CPF_ConstParm|CPF_BlueprintVisible|CPF_BlueprintReadOnly|CPF_Parm</text>
</g>
<!-- SetIcon__0 -->
<g id="node20" class="node">
<title>SetIcon__0</title>
<polygon fill="#eeeeee" stroke="black" points="2622,-592.5 2622,-675.5 3150,-675.5 3150,-592.5 2622,-592.5"/>
<text text-anchor="start" x="2630" y="-660.3" font-family="monospace" font-size="14.00">EX_Context</text>
<text text-anchor="start" x="2630" y="-645.3" font-family="monospace" font-size="14.00">  EX_InstanceVariable [ITEM_MissionSelection_MissionIconBasic]</text>
<text text-anchor="start" x="2630" y="-630.3" font-family="monospace" font-size="14.00">  EX_LocalVirtualFunction SetData</text>
<text text-anchor="start" x="2630" y="-615.3" font-family="monospace" font-size="14.00">    EX_LocalVariable [MissionIcon]</text>
<text text-anchor="start" x="2630" y="-600.3" font-family="monospace" font-size="14.00">  RValue = []</text>
</g>
<!-- SetIcon&#45;&gt;SetIcon__0 -->
<g id="edge13" class="edge">
<title>SetIcon&#45;&gt;SetIcon__0</title>
<path fill="none" stroke="black" d="M2886,-794.66C2886,-766.89 2886,-721.6 2886,-686.33"/>
<polygon fill="black" stroke="black" points="2889.5,-686.78 2886,-676.78 2882.5,-686.79 2889.5,-686.78"/>
</g>
<!-- SetIcon__45 -->
<g id="node21" class="node">
<title>SetIcon__45</title>
<polygon fill="#eeeeee" stroke="black" points="2828,-450.5 2828,-488.5 2944,-488.5 2944,-450.5 2828,-450.5"/>
<text text-anchor="start" x="2836" y="-473.3" font-family="monospace" font-size="14.00">EX_Return</text>
<text text-anchor="start" x="2836" y="-458.3" font-family="monospace" font-size="14.00">  EX_Nothing</text>
</g>
<!-- SetIcon__0&#45;&gt;SetIcon__45 -->
<g id="edge14" class="edge">
<title>SetIcon__0&#45;&gt;SetIcon__45</title>
<path fill="none" stroke="black" d="M2886,-592.83C2886,-563.95 2886,-525.66 2886,-499.67"/>
<polygon fill="black" stroke="black" points="2889.5,-499.84 2886,-489.84 2882.5,-499.84 2889.5,-499.84"/>
</g>
<!-- SetIcon__47 -->
<g id="node22" class="node">
<title>SetIcon__47</title>
<polygon fill="#eeeeee" stroke="black" points="2002,-223.5 2002,-259.5 2134,-259.5 2134,-223.5 2002,-223.5"/>
<text text-anchor="start" x="2010" y="-237.8" font-family="monospace" font-size="14.00">EX_EndOfScript</text>
</g>
</g>
</svg>
