<?xml version="1.0" encoding="UTF-8" standalone="no"?>
<!DOCTYPE svg PUBLIC "-//W3C//DTD SVG 1.1//EN"
 "http://www.w3.org/Graphics/SVG/1.1/DTD/svg11.dtd">
<!-- Generated by graphviz version 7.0.1 (0)
 -->
<!-- Pages: 1 -->
<svg width="2203pt" height="527pt"
 viewBox="0.00 0.00 2203.00 527.00" xmlns="http://www.w3.org/2000/svg" xmlns:xlink="http://www.w3.org/1999/xlink">
<g id="graph0" class="graph" transform="scale(1 1) rotate(0) translate(4 523)">
<polygon fill="white" stroke="none" points="-4,4 -4,-523 2199,-523 2199,4 -4,4"/>
<!-- ITM_MisSel_RegionImage_C -->
<g id="node1" class="node">
<title>ITM_MisSel_RegionImage_C</title>
<polygon fill="#88ff88" stroke="black" points="0,-345.5 0,-518.5 850,-518.5 850,-345.5 0,-345.5"/>
<text text-anchor="start" x="8" y="-503.3" font-family="monospace" font-size="14.00">ClassExport: ITM_MisSel_RegionImage_C</text>
<text text-anchor="start" x="8" y="-488.3" font-family="monospace" font-size="14.00">  SuperStruct: import /Script/UMG&#45;&gt;UserWidget</text>
<text text-anchor="start" x="8" y="-473.3" font-family="monospace" font-size="14.00">  Properties:</text>
<text text-anchor="start" x="8" y="-458.3" font-family="monospace" font-size="14.00">    StructProperty UberGraphFrame</text>
<text text-anchor="start" x="8" y="-443.3" font-family="monospace" font-size="14.00">      CPF_Transient|CPF_DuplicateTransient</text>
<text text-anchor="start" x="8" y="-428.3" font-family="monospace" font-size="14.00">    ObjectProperty RegionImage</text>
<text text-anchor="start" x="8" y="-413.3" font-family="monospace" font-size="14.00">      CPF_BlueprintVisible|CPF_ExportObject|CPF_InstancedReference|CPF_RepSkip|CPF_PersistentInstance</text>
<text text-anchor="start" x="8" y="-398.3" font-family="monospace" font-size="14.00">    StructProperty Image</text>
<text text-anchor="start" x="8" y="-383.3" font-family="monospace" font-size="14.00">      CPF_Edit|CPF_BlueprintVisible</text>
<text text-anchor="start" x="8" y="-368.3" font-family="monospace" font-size="14.00">    StructProperty RegionCenter</text>
<text text-anchor="start" x="8" y="-353.3" font-family="monospace" font-size="14.00">      CPF_Edit|CPF_BlueprintVisible</text>
</g>
<!-- ExecuteUbergraph_ITM_MisSel_RegionImage -->
<g id="node2" class="node">
<title>ExecuteUbergraph_ITM_MisSel_RegionImage</title>
<polygon fill="#ff8888" stroke="black" points="868,-398 868,-466 1338,-466 1338,-398 868,-398"/>
<text text-anchor="start" x="876" y="-450.8" font-family="monospace" font-size="14.00">Function ExecuteUbergraph_ITM_MisSel_RegionImage</text>
<text text-anchor="start" x="876" y="-435.8" font-family="monospace" font-size="14.00">  IntProperty EntryPoint</text>
<text text-anchor="start" x="876" y="-420.8" font-family="monospace" font-size="14.00">    CPF_BlueprintVisible|CPF_BlueprintReadOnly|CPF_Parm</text>
<text text-anchor="start" x="876" y="-405.8" font-family="monospace" font-size="14.00">  BoolProperty K2Node_Event_IsDesignTime</text>
</g>
<!-- ExecuteUbergraph_ITM_MisSel_RegionImage__0 -->
<g id="node3" class="node">
<title>ExecuteUbergraph_ITM_MisSel_RegionImage__0</title>
<polygon fill="#eeeeee" stroke="black" points="967,-270.5 967,-308.5 1239,-308.5 1239,-270.5 967,-270.5"/>
<text text-anchor="start" x="975" y="-293.3" font-family="monospace" font-size="14.00">EX_ComputedJump</text>
<text text-anchor="start" x="975" y="-278.3" font-family="monospace" font-size="14.00">  EX_LocalVariable [EntryPoint]</text>
</g>
<!-- ExecuteUbergraph_ITM_MisSel_RegionImage&#45;&gt;ExecuteUbergraph_ITM_MisSel_RegionImage__0 -->
<g id="edge1" class="edge">
<title>ExecuteUbergraph_ITM_MisSel_RegionImage&#45;&gt;ExecuteUbergraph_ITM_MisSel_RegionImage__0</title>
<path fill="none" stroke="black" d="M1103,-398.06C1103,-374.27 1103,-342.44 1103,-319.59"/>
<polygon fill="black" stroke="black" points="1106.5,-319.75 1103,-309.75 1099.5,-319.75 1106.5,-319.75"/>
</g>
<!-- ExecuteUbergraph_ITM_MisSel_RegionImage__10 -->
<g id="node4" class="node">
<title>ExecuteUbergraph_ITM_MisSel_RegionImage__10</title>
<polygon fill="#eeeeee" stroke="black" points="1834.5,-75.5 1834.5,-158.5 2139.5,-158.5 2139.5,-75.5 1834.5,-75.5"/>
<text text-anchor="start" x="1842.5" y="-143.3" font-family="monospace" font-size="14.00">EX_Context</text>
<text text-anchor="start" x="1842.5" y="-128.3" font-family="monospace" font-size="14.00">  EX_InstanceVariable [RegionImage]</text>
<text text-anchor="start" x="1842.5" y="-113.3" font-family="monospace" font-size="14.00">  EX_VirtualFunction SetBrush</text>
<text text-anchor="start" x="1842.5" y="-98.3" font-family="monospace" font-size="14.00">    EX_InstanceVariable [Image]</text>
<text text-anchor="start" x="1842.5" y="-83.3" font-family="monospace" font-size="14.00">  RValue = []</text>
</g>
<!-- ExecuteUbergraph_ITM_MisSel_RegionImage__55 -->
<g id="node5" class="node">
<title>ExecuteUbergraph_ITM_MisSel_RegionImage__55</title>
<polygon fill="#eeeeee" stroke="black" points="1929,-0.5 1929,-38.5 2045,-38.5 2045,-0.5 1929,-0.5"/>
<text text-anchor="start" x="1937" y="-23.3" font-family="monospace" font-size="14.00">EX_Return</text>
<text text-anchor="start" x="1937" y="-8.3" font-family="monospace" font-size="14.00">  EX_Nothing</text>
</g>
<!-- ExecuteUbergraph_ITM_MisSel_RegionImage__10&#45;&gt;ExecuteUbergraph_ITM_MisSel_RegionImage__55 -->
<g id="edge2" class="edge">
<title>ExecuteUbergraph_ITM_MisSel_RegionImage__10&#45;&gt;ExecuteUbergraph_ITM_MisSel_RegionImage__55</title>
<path fill="none" stroke="black" d="M1987,-75.78C1987,-67.01 1987,-57.89 1987,-49.65"/>
<polygon fill="black" stroke="black" points="1990.5,-49.86 1987,-39.86 1983.5,-49.86 1990.5,-49.86"/>
</g>
<!-- ExecuteUbergraph_ITM_MisSel_RegionImage__57 -->
<g id="node6" class="node">
<title>ExecuteUbergraph_ITM_MisSel_RegionImage__57</title>
<polygon fill="#eeeeee" stroke="black" points="2005,-196.5 2005,-232.5 2137,-232.5 2137,-196.5 2005,-196.5"/>
<text text-anchor="start" x="2013" y="-210.8" font-family="monospace" font-size="14.00">EX_EndOfScript</text>
</g>
<!-- PreConstruct -->
<g id="node7" class="node">
<title>PreConstruct</title>
<polygon fill="#ff8888" stroke="black" points="1356,-405.5 1356,-458.5 1826,-458.5 1826,-405.5 1356,-405.5"/>
<text text-anchor="start" x="1364" y="-443.3" font-family="monospace" font-size="14.00">Function PreConstruct</text>
<text text-anchor="start" x="1364" y="-428.3" font-family="monospace" font-size="14.00">  BoolProperty IsDesignTime</text>
<text text-anchor="start" x="1364" y="-413.3" font-family="monospace" font-size="14.00">    CPF_BlueprintVisible|CPF_BlueprintReadOnly|CPF_Parm</text>
</g>
<!-- PreConstruct__0 -->
<g id="node8" class="node">
<title>PreConstruct__0</title>
<polygon fill="#eeeeee" stroke="black" points="1351.5,-270.5 1351.5,-308.5 1830.5,-308.5 1830.5,-270.5 1351.5,-270.5"/>
<text text-anchor="start" x="1359.5" y="-293.3" font-family="monospace" font-size="14.00">EX_LetValueOnPersistentFrame [K2Node_Event_IsDesignTime]</text>
<text text-anchor="start" x="1359.5" y="-278.3" font-family="monospace" font-size="14.00">  EX_LocalVariable [IsDesignTime]</text>
</g>
<!-- PreConstruct&#45;&gt;PreConstruct__0 -->
<g id="edge3" class="edge">
<title>PreConstruct&#45;&gt;PreConstruct__0</title>
<path fill="none" stroke="black" d="M1591,-405.56C1591,-381.36 1591,-345 1591,-319.65"/>
<polygon fill="black" stroke="black" points="1594.5,-319.71 1591,-309.71 1587.5,-319.71 1594.5,-319.71"/>
</g>
<!-- PreConstruct__18 -->
<g id="node9" class="node">
<title>PreConstruct__18</title>
<polygon fill="#eeeeee" stroke="black" points="1195,-195.5 1195,-233.5 1987,-233.5 1987,-195.5 1195,-195.5"/>
<text text-anchor="start" x="1203" y="-218.3" font-family="monospace" font-size="14.00">EX_LocalFinalFunction export ITM_MisSel_RegionImage_C&#45;&gt;ExecuteUbergraph_ITM_MisSel_RegionImage</text>
<text text-anchor="start" x="1203" y="-203.3" font-family="monospace" font-size="14.00">  EX_IntConst 10</text>
</g>
<!-- PreConstruct__0&#45;&gt;PreConstruct__18 -->
<g id="edge4" class="edge">
<title>PreConstruct__0&#45;&gt;PreConstruct__18</title>
<path fill="none" stroke="black" d="M1591,-270.83C1591,-263 1591,-253.57 1591,-244.74"/>
<polygon fill="black" stroke="black" points="1594.5,-244.78 1591,-234.78 1587.5,-244.78 1594.5,-244.78"/>
</g>
<!-- PreConstruct__18&#45;&gt;ExecuteUbergraph_ITM_MisSel_RegionImage__10 -->
<g id="edge5" class="edge">
<title>PreConstruct__18:e&#45;&gt;ExecuteUbergraph_ITM_MisSel_RegionImage__10</title>
<path fill="none" stroke="red" d="M1988,-214.5C1993.11,-214.5 1993.12,-192.57 1991.73,-169.62"/>
<polygon fill="none" stroke="red" points="1995.24,-169.61 1991.06,-159.88 1988.26,-170.09 1995.24,-169.61"/>
</g>
<!-- PreConstruct__33 -->
<g id="node10" class="node">
<title>PreConstruct__33</title>
<polygon fill="#eeeeee" stroke="black" points="1533,-98 1533,-136 1649,-136 1649,-98 1533,-98"/>
<text text-anchor="start" x="1541" y="-120.8" font-family="monospace" font-size="14.00">EX_Return</text>
<text text-anchor="start" x="1541" y="-105.8" font-family="monospace" font-size="14.00">  EX_Nothing</text>
</g>
<!-- PreConstruct__18&#45;&gt;PreConstruct__33 -->
<g id="edge6" class="edge">
<title>PreConstruct__18&#45;&gt;PreConstruct__33</title>
<path fill="none" stroke="black" d="M1591,-195.54C1591,-181.93 1591,-162.95 1591,-147.18"/>
<polygon fill="black" stroke="black" points="1594.5,-147.4 1591,-137.4 1587.5,-147.4 1594.5,-147.4"/>
</g>
<!-- PreConstruct__35 -->
<g id="node11" class="node">
<title>PreConstruct__35</title>
<polygon fill="#eeeeee" stroke="black" points="2063,-1.5 2063,-37.5 2195,-37.5 2195,-1.5 2063,-1.5"/>
<text text-anchor="start" x="2071" y="-15.8" font-family="monospace" font-size="14.00">EX_EndOfScript</text>
</g>
</g>
</svg>
