<?xml version="1.0" encoding="UTF-8" standalone="no"?>
<!DOCTYPE svg PUBLIC "-//W3C//DTD SVG 1.1//EN"
 "http://www.w3.org/Graphics/SVG/1.1/DTD/svg11.dtd">
<!-- Generated by graphviz version 7.0.1 (0)
 -->
<!-- Pages: 1 -->
<svg width="2044pt" height="1159pt"
 viewBox="0.00 0.00 2044.00 1159.00" xmlns="http://www.w3.org/2000/svg" xmlns:xlink="http://www.w3.org/1999/xlink">
<g id="graph0" class="graph" transform="scale(1 1) rotate(0) translate(4 1155)">
<polygon fill="white" stroke="none" points="-4,4 -4,-1155 2040,-1155 2040,4 -4,4"/>
<!-- BP_PhazyoniteChunk_C -->
<g id="node1" class="node">
<title>BP_PhazyoniteChunk_C</title>
<polygon fill="#88ff88" stroke="black" points="0,-977.5 0,-1150.5 594,-1150.5 594,-977.5 0,-977.5"/>
<text text-anchor="start" x="8" y="-1135.3" font-family="monospace" font-size="14.00">ClassExport: BP_PhazyoniteChunk_C</text>
<text text-anchor="start" x="8" y="-1120.3" font-family="monospace" font-size="14.00">  SuperStruct: import /Script/FSD&#45;&gt;ResourceChunk</text>
<text text-anchor="start" x="8" y="-1105.3" font-family="monospace" font-size="14.00">  Properties:</text>
<text text-anchor="start" x="8" y="-1090.3" font-family="monospace" font-size="14.00">    StructProperty UberGraphFrame</text>
<text text-anchor="start" x="8" y="-1075.3" font-family="monospace" font-size="14.00">      CPF_Transient|CPF_DuplicateTransient</text>
<text text-anchor="start" x="8" y="-1060.3" font-family="monospace" font-size="14.00">    ObjectProperty Sphere</text>
<text text-anchor="start" x="8" y="-1045.3" font-family="monospace" font-size="14.00">      CPF_BlueprintVisible|CPF_InstancedReference|CPF_NonTransactional</text>
<text text-anchor="start" x="8" y="-1030.3" font-family="monospace" font-size="14.00">    ObjectProperty PointLight</text>
<text text-anchor="start" x="8" y="-1015.3" font-family="monospace" font-size="14.00">      CPF_BlueprintVisible|CPF_InstancedReference|CPF_NonTransactional</text>
<text text-anchor="start" x="8" y="-1000.3" font-family="monospace" font-size="14.00">    ObjectProperty Cube</text>
<text text-anchor="start" x="8" y="-985.3" font-family="monospace" font-size="14.00">      CPF_BlueprintVisible|CPF_InstancedReference|CPF_NonTransactional</text>
</g>
<!-- ExecuteUbergraph_BP_PhazyoniteChunk -->
<g id="node2" class="node">
<title>ExecuteUbergraph_BP_PhazyoniteChunk</title>
<polygon fill="#ff8888" stroke="black" points="612,-1015 612,-1113 1082,-1113 1082,-1015 612,-1015"/>
<text text-anchor="start" x="620" y="-1097.8" font-family="monospace" font-size="14.00">Function ExecuteUbergraph_BP_PhazyoniteChunk</text>
<text text-anchor="start" x="620" y="-1082.8" font-family="monospace" font-size="14.00">  IntProperty EntryPoint</text>
<text text-anchor="start" x="620" y="-1067.8" font-family="monospace" font-size="14.00">    CPF_BlueprintVisible|CPF_BlueprintReadOnly|CPF_Parm</text>
<text text-anchor="start" x="620" y="-1052.8" font-family="monospace" font-size="14.00">  FloatProperty CallFunc_RandomFloatInRange_ReturnValue</text>
<text text-anchor="start" x="620" y="-1037.8" font-family="monospace" font-size="14.00">  BoolProperty CallFunc_HasAuthority_ReturnValue</text>
<text text-anchor="start" x="620" y="-1022.8" font-family="monospace" font-size="14.00">  StructProperty CallFunc_MakeVector_ReturnValue</text>
</g>
<!-- ExecuteUbergraph_BP_PhazyoniteChunk__0 -->
<g id="node3" class="node">
<title>ExecuteUbergraph_BP_PhazyoniteChunk__0</title>
<polygon fill="#eeeeee" stroke="black" points="711,-865.5 711,-903.5 983,-903.5 983,-865.5 711,-865.5"/>
<text text-anchor="start" x="719" y="-888.3" font-family="monospace" font-size="14.00">EX_ComputedJump</text>
<text text-anchor="start" x="719" y="-873.3" font-family="monospace" font-size="14.00">  EX_LocalVariable [EntryPoint]</text>
</g>
<!-- ExecuteUbergraph_BP_PhazyoniteChunk&#45;&gt;ExecuteUbergraph_BP_PhazyoniteChunk__0 -->
<g id="edge1" class="edge">
<title>ExecuteUbergraph_BP_PhazyoniteChunk&#45;&gt;ExecuteUbergraph_BP_PhazyoniteChunk__0</title>
<path fill="none" stroke="black" d="M847,-1015.43C847,-983.37 847,-942.1 847,-914.77"/>
<polygon fill="black" stroke="black" points="850.5,-914.79 847,-904.79 843.5,-914.79 850.5,-914.79"/>
</g>
<!-- ExecuteUbergraph_BP_PhazyoniteChunk__10 -->
<g id="node4" class="node">
<title>ExecuteUbergraph_BP_PhazyoniteChunk__10</title>
<polygon fill="#eeeeee" stroke="black" points="1467,-662.5 1467,-715.5 1987,-715.5 1987,-662.5 1467,-662.5"/>
<text text-anchor="start" x="1475" y="-700.3" font-family="monospace" font-size="14.00">EX_LetBool</text>
<text text-anchor="start" x="1475" y="-685.3" font-family="monospace" font-size="14.00">  EX_LocalVariable [CallFunc_HasAuthority_ReturnValue]</text>
<text text-anchor="start" x="1475" y="-670.3" font-family="monospace" font-size="14.00">  EX_FinalFunction import /Script/Engine&#45;&gt;Actor&#45;&gt;HasAuthority</text>
</g>
<!-- ExecuteUbergraph_BP_PhazyoniteChunk__30 -->
<g id="node5" class="node">
<title>ExecuteUbergraph_BP_PhazyoniteChunk__30</title>
<polygon fill="#eeeeee" stroke="black" points="1496,-586.5 1496,-624.5 1958,-624.5 1958,-586.5 1496,-586.5"/>
<text text-anchor="start" x="1504" y="-609.3" font-family="monospace" font-size="14.00">EX_JumpIfNot 202</text>
<text text-anchor="start" x="1504" y="-594.3" font-family="monospace" font-size="14.00">  EX_LocalVariable [CallFunc_HasAuthority_ReturnValue]</text>
</g>
<!-- ExecuteUbergraph_BP_PhazyoniteChunk__10&#45;&gt;ExecuteUbergraph_BP_PhazyoniteChunk__30 -->
<g id="edge2" class="edge">
<title>ExecuteUbergraph_BP_PhazyoniteChunk__10&#45;&gt;ExecuteUbergraph_BP_PhazyoniteChunk__30</title>
<path fill="none" stroke="black" d="M1727,-662.66C1727,-654.11 1727,-644.51 1727,-635.69"/>
<polygon fill="black" stroke="black" points="1730.5,-635.84 1727,-625.84 1723.5,-635.84 1730.5,-635.84"/>
</g>
<!-- ExecuteUbergraph_BP_PhazyoniteChunk__44 -->
<g id="node6" class="node">
<title>ExecuteUbergraph_BP_PhazyoniteChunk__44</title>
<polygon fill="#eeeeee" stroke="black" points="1330.5,-451.5 1330.5,-534.5 1957.5,-534.5 1957.5,-451.5 1330.5,-451.5"/>
<text text-anchor="start" x="1338.5" y="-519.3" font-family="monospace" font-size="14.00">EX_Let</text>
<text text-anchor="start" x="1338.5" y="-504.3" font-family="monospace" font-size="14.00">  EX_LocalVariable [CallFunc_RandomFloatInRange_ReturnValue]</text>
<text text-anchor="start" x="1338.5" y="-489.3" font-family="monospace" font-size="14.00">  EX_CallMath import /Script/Engine&#45;&gt;KismetMathLibrary&#45;&gt;RandomFloatInRange</text>
<text text-anchor="start" x="1338.5" y="-474.3" font-family="monospace" font-size="14.00">    EX_FloatConst &#45;50</text>
<text text-anchor="start" x="1338.5" y="-459.3" font-family="monospace" font-size="14.00">    EX_FloatConst 50</text>
</g>
<!-- ExecuteUbergraph_BP_PhazyoniteChunk__30&#45;&gt;ExecuteUbergraph_BP_PhazyoniteChunk__44 -->
<g id="edge4" class="edge">
<title>ExecuteUbergraph_BP_PhazyoniteChunk__30&#45;&gt;ExecuteUbergraph_BP_PhazyoniteChunk__44</title>
<path fill="none" stroke="black" d="M1713.66,-586.75C1704.78,-574.91 1692.63,-558.74 1680.96,-543.21"/>
<polygon fill="black" stroke="black" points="1683.89,-541.28 1675.09,-535.39 1678.29,-545.48 1683.89,-541.28"/>
<text text-anchor="middle" x="1706.5" y="-556.8" font-family="monospace" font-size="14.00">IF</text>
</g>
<!-- ExecuteUbergraph_BP_PhazyoniteChunk__202 -->
<g id="node11" class="node">
<title>ExecuteUbergraph_BP_PhazyoniteChunk__202</title>
<polygon fill="#eeeeee" stroke="black" points="1887,-0.5 1887,-38.5 2003,-38.5 2003,-0.5 1887,-0.5"/>
<text text-anchor="start" x="1895" y="-23.3" font-family="monospace" font-size="14.00">EX_Return</text>
<text text-anchor="start" x="1895" y="-8.3" font-family="monospace" font-size="14.00">  EX_Nothing</text>
</g>
<!-- ExecuteUbergraph_BP_PhazyoniteChunk__30&#45;&gt;ExecuteUbergraph_BP_PhazyoniteChunk__202 -->
<g id="edge3" class="edge">
<title>ExecuteUbergraph_BP_PhazyoniteChunk__30:e&#45;&gt;ExecuteUbergraph_BP_PhazyoniteChunk__202</title>
<path fill="none" stroke="red" d="M1959,-605.5C2009.99,-605.5 1986,-544.99 1986,-494 1986,-494 1986,-494 1986,-93.5 1986,-76.77 1977.72,-60.33 1968.6,-47.3"/>
<polygon fill="none" stroke="red" points="1971.65,-45.54 1962.83,-39.67 1966.06,-49.76 1971.65,-45.54"/>
<text text-anchor="middle" x="2011" y="-285.8" font-family="monospace" font-size="14.00">IF NOT</text>
</g>
<!-- ExecuteUbergraph_BP_PhazyoniteChunk__82 -->
<g id="node7" class="node">
<title>ExecuteUbergraph_BP_PhazyoniteChunk__82</title>
<polygon fill="#eeeeee" stroke="black" points="1388.5,-315.5 1388.5,-413.5 1949.5,-413.5 1949.5,-315.5 1388.5,-315.5"/>
<text text-anchor="start" x="1396.5" y="-398.3" font-family="monospace" font-size="14.00">EX_Let</text>
<text text-anchor="start" x="1396.5" y="-383.3" font-family="monospace" font-size="14.00">  EX_LocalVariable [CallFunc_MakeVector_ReturnValue]</text>
<text text-anchor="start" x="1396.5" y="-368.3" font-family="monospace" font-size="14.00">  EX_CallMath import /Script/Engine&#45;&gt;KismetMathLibrary&#45;&gt;MakeVector</text>
<text text-anchor="start" x="1396.5" y="-353.3" font-family="monospace" font-size="14.00">    EX_LocalVariable [CallFunc_RandomFloatInRange_ReturnValue]</text>
<text text-anchor="start" x="1396.5" y="-338.3" font-family="monospace" font-size="14.00">    EX_LocalVariable [CallFunc_RandomFloatInRange_ReturnValue]</text>
<text text-anchor="start" x="1396.5" y="-323.3" font-family="monospace" font-size="14.00">    EX_FloatConst 100</text>
</g>
<!-- ExecuteUbergraph_BP_PhazyoniteChunk__44&#45;&gt;ExecuteUbergraph_BP_PhazyoniteChunk__82 -->
<g id="edge5" class="edge">
<title>ExecuteUbergraph_BP_PhazyoniteChunk__44&#45;&gt;ExecuteUbergraph_BP_PhazyoniteChunk__82</title>
<path fill="none" stroke="black" d="M1651.98,-451.63C1653.69,-442.99 1655.52,-433.7 1657.34,-424.52"/>
<polygon fill="black" stroke="black" points="1660.73,-425.42 1659.23,-414.93 1653.86,-424.06 1660.73,-425.42"/>
</g>
<!-- ExecuteUbergraph_BP_PhazyoniteChunk__133 -->
<g id="node8" class="node">
<title>ExecuteUbergraph_BP_PhazyoniteChunk__133</title>
<polygon fill="#eeeeee" stroke="black" points="1484,-150.5 1484,-263.5 1946,-263.5 1946,-150.5 1484,-150.5"/>
<text text-anchor="start" x="1492" y="-248.3" font-family="monospace" font-size="14.00">EX_Context</text>
<text text-anchor="start" x="1492" y="-233.3" font-family="monospace" font-size="14.00">  EX_InstanceVariable [Cube]</text>
<text text-anchor="start" x="1492" y="-218.3" font-family="monospace" font-size="14.00">  EX_VirtualFunction AddImpulse</text>
<text text-anchor="start" x="1492" y="-203.3" font-family="monospace" font-size="14.00">    EX_LocalVariable [CallFunc_MakeVector_ReturnValue]</text>
<text text-anchor="start" x="1492" y="-188.3" font-family="monospace" font-size="14.00">    EX_NameConst None</text>
<text text-anchor="start" x="1492" y="-173.3" font-family="monospace" font-size="14.00">    EX_False</text>
<text text-anchor="start" x="1492" y="-158.3" font-family="monospace" font-size="14.00">  RValue = []</text>
</g>
<!-- ExecuteUbergraph_BP_PhazyoniteChunk__82&#45;&gt;ExecuteUbergraph_BP_PhazyoniteChunk__133 -->
<g id="edge6" class="edge">
<title>ExecuteUbergraph_BP_PhazyoniteChunk__82&#45;&gt;ExecuteUbergraph_BP_PhazyoniteChunk__133</title>
<path fill="none" stroke="black" d="M1683.18,-315.58C1687.03,-302.55 1691.27,-288.21 1695.37,-274.36"/>
<polygon fill="black" stroke="black" points="1698.7,-275.42 1698.19,-264.84 1691.99,-273.44 1698.7,-275.42"/>
</g>
<!-- ExecuteUbergraph_BP_PhazyoniteChunk__192 -->
<g id="node9" class="node">
<title>ExecuteUbergraph_BP_PhazyoniteChunk__192</title>
<polygon fill="#eeeeee" stroke="black" points="1806.5,-76.5 1806.5,-112.5 1913.5,-112.5 1913.5,-76.5 1806.5,-76.5"/>
<text text-anchor="start" x="1814.5" y="-90.8" font-family="monospace" font-size="14.00">EX_Jump 202</text>
</g>
<!-- ExecuteUbergraph_BP_PhazyoniteChunk__133&#45;&gt;ExecuteUbergraph_BP_PhazyoniteChunk__192 -->
<g id="edge7" class="edge">
<title>ExecuteUbergraph_BP_PhazyoniteChunk__133&#45;&gt;ExecuteUbergraph_BP_PhazyoniteChunk__192</title>
<path fill="none" stroke="black" d="M1787.5,-150.75C1802.17,-139.57 1816.84,-128.39 1829.11,-119.04"/>
<polygon fill="black" stroke="black" points="1830.94,-122.05 1836.77,-113.2 1826.7,-116.48 1830.94,-122.05"/>
</g>
<!-- ExecuteUbergraph_BP_PhazyoniteChunk__192&#45;&gt;ExecuteUbergraph_BP_PhazyoniteChunk__202 -->
<g id="edge8" class="edge">
<title>ExecuteUbergraph_BP_PhazyoniteChunk__192&#45;&gt;ExecuteUbergraph_BP_PhazyoniteChunk__202</title>
<path fill="none" stroke="black" d="M1879.71,-76.57C1890.34,-67.44 1903.67,-55.99 1915.51,-45.82"/>
<polygon fill="black" stroke="black" points="1917.75,-48.51 1923.06,-39.34 1913.19,-43.2 1917.75,-48.51"/>
</g>
<!-- ExecuteUbergraph_BP_PhazyoniteChunk__197 -->
<g id="node10" class="node">
<title>ExecuteUbergraph_BP_PhazyoniteChunk__197</title>
<polygon fill="#eeeeee" stroke="black" points="1677.5,-754.5 1677.5,-790.5 1776.5,-790.5 1776.5,-754.5 1677.5,-754.5"/>
<text text-anchor="start" x="1685.5" y="-768.8" font-family="monospace" font-size="14.00">EX_Jump 10</text>
</g>
<!-- ExecuteUbergraph_BP_PhazyoniteChunk__197&#45;&gt;ExecuteUbergraph_BP_PhazyoniteChunk__10 -->
<g id="edge9" class="edge">
<title>ExecuteUbergraph_BP_PhazyoniteChunk__197&#45;&gt;ExecuteUbergraph_BP_PhazyoniteChunk__10</title>
<path fill="none" stroke="black" d="M1727,-754.61C1727,-746.44 1727,-736.28 1727,-726.46"/>
<polygon fill="black" stroke="black" points="1730.5,-726.74 1727,-716.74 1723.5,-726.74 1730.5,-726.74"/>
</g>
<!-- ExecuteUbergraph_BP_PhazyoniteChunk__204 -->
<g id="node12" class="node">
<title>ExecuteUbergraph_BP_PhazyoniteChunk__204</title>
<polygon fill="#eeeeee" stroke="black" points="1379,-922.5 1379,-958.5 1511,-958.5 1511,-922.5 1379,-922.5"/>
<text text-anchor="start" x="1387" y="-936.8" font-family="monospace" font-size="14.00">EX_EndOfScript</text>
</g>
<!-- ReceiveBeginPlay -->
<g id="node13" class="node">
<title>ReceiveBeginPlay</title>
<polygon fill="#ff8888" stroke="black" points="1252.5,-1046 1252.5,-1082 1475.5,-1082 1475.5,-1046 1252.5,-1046"/>
<text text-anchor="start" x="1260.5" y="-1060.3" font-family="monospace" font-size="14.00">Function ReceiveBeginPlay</text>
</g>
<!-- ReceiveBeginPlay__0 -->
<g id="node14" class="node">
<title>ReceiveBeginPlay__0</title>
<polygon fill="#eeeeee" stroke="black" points="1001,-865.5 1001,-903.5 1727,-903.5 1727,-865.5 1001,-865.5"/>
<text text-anchor="start" x="1009" y="-888.3" font-family="monospace" font-size="14.00">EX_LocalFinalFunction export BP_PhazyoniteChunk_C&#45;&gt;ExecuteUbergraph_BP_PhazyoniteChunk</text>
<text text-anchor="start" x="1009" y="-873.3" font-family="monospace" font-size="14.00">  EX_IntConst 197</text>
</g>
<!-- ReceiveBeginPlay&#45;&gt;ReceiveBeginPlay__0 -->
<g id="edge10" class="edge">
<title>ReceiveBeginPlay&#45;&gt;ReceiveBeginPlay__0</title>
<path fill="none" stroke="black" d="M1364,-1046.3C1364,-1016.09 1364,-952 1364,-914.5"/>
<polygon fill="black" stroke="black" points="1367.5,-914.85 1364,-904.85 1360.5,-914.85 1367.5,-914.85"/>
</g>
<!-- ReceiveBeginPlay__0&#45;&gt;ExecuteUbergraph_BP_PhazyoniteChunk__197 -->
<g id="edge11" class="edge">
<title>ReceiveBeginPlay__0:e&#45;&gt;ExecuteUbergraph_BP_PhazyoniteChunk__197</title>
<path fill="none" stroke="red" d="M1728,-884.5C1744.56,-884.5 1738.43,-834.46 1732.62,-801.57"/>
<polygon fill="none" stroke="red" points="1736.08,-801.04 1730.81,-791.85 1729.2,-802.32 1736.08,-801.04"/>
</g>
<!-- ReceiveBeginPlay__15 -->
<g id="node15" class="node">
<title>ReceiveBeginPlay__15</title>
<polygon fill="#eeeeee" stroke="black" points="1306,-753.5 1306,-791.5 1422,-791.5 1422,-753.5 1306,-753.5"/>
<text text-anchor="start" x="1314" y="-776.3" font-family="monospace" font-size="14.00">EX_Return</text>
<text text-anchor="start" x="1314" y="-761.3" font-family="monospace" font-size="14.00">  EX_Nothing</text>
</g>
<!-- ReceiveBeginPlay__0&#45;&gt;ReceiveBeginPlay__15 -->
<g id="edge12" class="edge">
<title>ReceiveBeginPlay__0&#45;&gt;ReceiveBeginPlay__15</title>
<path fill="none" stroke="black" d="M1364,-865.83C1364,-848.85 1364,-822.88 1364,-802.81"/>
<polygon fill="black" stroke="black" points="1367.5,-803.01 1364,-793.01 1360.5,-803.01 1367.5,-803.01"/>
</g>
<!-- ReceiveBeginPlay__17 -->
<g id="node16" class="node">
<title>ReceiveBeginPlay__17</title>
<polygon fill="#eeeeee" stroke="black" points="1742,-810.5 1742,-846.5 1874,-846.5 1874,-810.5 1742,-810.5"/>
<text text-anchor="start" x="1750" y="-824.8" font-family="monospace" font-size="14.00">EX_EndOfScript</text>
</g>
</g>
</svg>
