<?xml version="1.0" encoding="UTF-8" standalone="no"?>
<!DOCTYPE svg PUBLIC "-//W3C//DTD SVG 1.1//EN"
 "http://www.w3.org/Graphics/SVG/1.1/DTD/svg11.dtd">
<!-- Generated by graphviz version 7.0.1 (0)
 -->
<!-- Pages: 1 -->
<svg width="5467pt" height="885pt"
 viewBox="0.00 0.00 5466.50 885.00" xmlns="http://www.w3.org/2000/svg" xmlns:xlink="http://www.w3.org/1999/xlink">
<g id="graph0" class="graph" transform="scale(1 1) rotate(0) translate(4 881)">
<polygon fill="white" stroke="none" points="-4,4 -4,-881 5462.5,-881 5462.5,4 -4,4"/>
<!-- WeaponDisplay_Autocannon_AmmoCount_C -->
<g id="node1" class="node">
<title>WeaponDisplay_Autocannon_AmmoCount_C</title>
<polygon fill="#88ff88" stroke="black" points="0,-583.5 0,-876.5 891,-876.5 891,-583.5 0,-583.5"/>
<text text-anchor="start" x="8" y="-861.3" font-family="monospace" font-size="14.00">ClassExport: WeaponDisplay_Autocannon_AmmoCount_C</text>
<text text-anchor="start" x="8" y="-846.3" font-family="monospace" font-size="14.00">  SuperStruct: import /Game/UI/WeaponDisplays/WeaponDisplay_Base_AmmoCount&#45;&gt;WeaponDisplay_Base_AmmoCount_C</text>
<text text-anchor="start" x="8" y="-831.3" font-family="monospace" font-size="14.00">  Properties:</text>
<text text-anchor="start" x="8" y="-816.3" font-family="monospace" font-size="14.00">    StructProperty UberGraphFrame</text>
<text text-anchor="start" x="8" y="-801.3" font-family="monospace" font-size="14.00">      CPF_Transient|CPF_DuplicateTransient</text>
<text text-anchor="start" x="8" y="-786.3" font-family="monospace" font-size="14.00">    ObjectProperty ReloadStart</text>
<text text-anchor="start" x="8" y="-771.3" font-family="monospace" font-size="14.00">      CPF_BlueprintVisible|CPF_BlueprintReadOnly|CPF_Transient|CPF_RepSkip</text>
<text text-anchor="start" x="8" y="-756.3" font-family="monospace" font-size="14.00">    ObjectProperty ReloadLoop</text>
<text text-anchor="start" x="8" y="-741.3" font-family="monospace" font-size="14.00">      CPF_BlueprintVisible|CPF_BlueprintReadOnly|CPF_Transient|CPF_RepSkip</text>
<text text-anchor="start" x="8" y="-726.3" font-family="monospace" font-size="14.00">    ObjectProperty ReloadEnd</text>
<text text-anchor="start" x="8" y="-711.3" font-family="monospace" font-size="14.00">      CPF_BlueprintVisible|CPF_BlueprintReadOnly|CPF_Transient|CPF_RepSkip</text>
<text text-anchor="start" x="8" y="-696.3" font-family="monospace" font-size="14.00">    ObjectProperty Border_3</text>
<text text-anchor="start" x="8" y="-681.3" font-family="monospace" font-size="14.00">      CPF_BlueprintVisible|CPF_ExportObject|CPF_InstancedReference|CPF_RepSkip|CPF_PersistentInstance</text>
<text text-anchor="start" x="8" y="-666.3" font-family="monospace" font-size="14.00">    ObjectProperty DATA_AmmoCurrent</text>
<text text-anchor="start" x="8" y="-651.3" font-family="monospace" font-size="14.00">      CPF_BlueprintVisible|CPF_ExportObject|CPF_InstancedReference|CPF_RepSkip|CPF_PersistentInstance</text>
<text text-anchor="start" x="8" y="-636.3" font-family="monospace" font-size="14.00">    ObjectProperty DATA_AmmoTotal</text>
<text text-anchor="start" x="8" y="-621.3" font-family="monospace" font-size="14.00">      CPF_BlueprintVisible|CPF_ExportObject|CPF_InstancedReference|CPF_RepSkip|CPF_PersistentInstance</text>
<text text-anchor="start" x="8" y="-606.3" font-family="monospace" font-size="14.00">    ObjectProperty TEXT_Reloading</text>
<text text-anchor="start" x="8" y="-591.3" font-family="monospace" font-size="14.00">      CPF_BlueprintVisible|CPF_ExportObject|CPF_InstancedReference|CPF_RepSkip|CPF_PersistentInstance</text>
</g>
<!-- ExecuteUbergraph_WeaponDisplay_Autocannon_AmmoCount -->
<g id="node2" class="node">
<title>ExecuteUbergraph_WeaponDisplay_Autocannon_AmmoCount</title>
<polygon fill="#ff8888" stroke="black" points="909.5,-673.5 909.5,-786.5 1421.5,-786.5 1421.5,-673.5 909.5,-673.5"/>
<text text-anchor="start" x="917.5" y="-771.3" font-family="monospace" font-size="14.00">Function ExecuteUbergraph_WeaponDisplay_Autocannon_AmmoCount</text>
<text text-anchor="start" x="917.5" y="-756.3" font-family="monospace" font-size="14.00">  IntProperty EntryPoint</text>
<text text-anchor="start" x="917.5" y="-741.3" font-family="monospace" font-size="14.00">    CPF_BlueprintVisible|CPF_BlueprintReadOnly|CPF_Parm</text>
<text text-anchor="start" x="917.5" y="-726.3" font-family="monospace" font-size="14.00">  IntProperty K2Node_Event_Value_1</text>
<text text-anchor="start" x="917.5" y="-711.3" font-family="monospace" font-size="14.00">  TextProperty CallFunc_Conv_IntToText_ReturnValue</text>
<text text-anchor="start" x="917.5" y="-696.3" font-family="monospace" font-size="14.00">  IntProperty K2Node_Event_Value</text>
<text text-anchor="start" x="917.5" y="-681.3" font-family="monospace" font-size="14.00">  TextProperty CallFunc_Conv_IntToText_ReturnValue_1</text>
</g>
<!-- ExecuteUbergraph_WeaponDisplay_Autocannon_AmmoCount__0 -->
<g id="node3" class="node">
<title>ExecuteUbergraph_WeaponDisplay_Autocannon_AmmoCount__0</title>
<polygon fill="#eeeeee" stroke="black" points="1029.5,-508.5 1029.5,-546.5 1301.5,-546.5 1301.5,-508.5 1029.5,-508.5"/>
<text text-anchor="start" x="1037.5" y="-531.3" font-family="monospace" font-size="14.00">EX_ComputedJump</text>
<text text-anchor="start" x="1037.5" y="-516.3" font-family="monospace" font-size="14.00">  EX_LocalVariable [EntryPoint]</text>
</g>
<!-- ExecuteUbergraph_WeaponDisplay_Autocannon_AmmoCount&#45;&gt;ExecuteUbergraph_WeaponDisplay_Autocannon_AmmoCount__0 -->
<g id="edge1" class="edge">
<title>ExecuteUbergraph_WeaponDisplay_Autocannon_AmmoCount&#45;&gt;ExecuteUbergraph_WeaponDisplay_Autocannon_AmmoCount__0</title>
<path fill="none" stroke="black" d="M1165.5,-673.68C1165.5,-636.19 1165.5,-588.13 1165.5,-557.82"/>
<polygon fill="black" stroke="black" points="1169,-557.88 1165.5,-547.88 1162,-557.88 1169,-557.88"/>
</g>
<!-- ExecuteUbergraph_WeaponDisplay_Autocannon_AmmoCount__10 -->
<g id="node4" class="node">
<title>ExecuteUbergraph_WeaponDisplay_Autocannon_AmmoCount__10</title>
<polygon fill="#eeeeee" stroke="black" points="4922.5,-291 4922.5,-374 5458.5,-374 5458.5,-291 4922.5,-291"/>
<text text-anchor="start" x="4930.5" y="-358.8" font-family="monospace" font-size="14.00">EX_Context</text>
<text text-anchor="start" x="4930.5" y="-343.8" font-family="monospace" font-size="14.00">  EX_InstanceVariable [Border_3]</text>
<text text-anchor="start" x="4930.5" y="-328.8" font-family="monospace" font-size="14.00">  EX_FinalFunction import /Script/UMG&#45;&gt;Widget&#45;&gt;SetRenderOpacity</text>
<text text-anchor="start" x="4930.5" y="-313.8" font-family="monospace" font-size="14.00">    EX_FloatConst 0</text>
<text text-anchor="start" x="4930.5" y="-298.8" font-family="monospace" font-size="14.00">  RValue = []</text>
</g>
<!-- ExecuteUbergraph_WeaponDisplay_Autocannon_AmmoCount__47 -->
<g id="node5" class="node">
<title>ExecuteUbergraph_WeaponDisplay_Autocannon_AmmoCount__47</title>
<polygon fill="#eeeeee" stroke="black" points="4391,-75.5 4391,-111.5 4498,-111.5 4498,-75.5 4391,-75.5"/>
<text text-anchor="start" x="4399" y="-89.8" font-family="monospace" font-size="14.00">EX_Jump 265</text>
</g>
<!-- ExecuteUbergraph_WeaponDisplay_Autocannon_AmmoCount__10&#45;&gt;ExecuteUbergraph_WeaponDisplay_Autocannon_AmmoCount__47 -->
<g id="edge2" class="edge">
<title>ExecuteUbergraph_WeaponDisplay_Autocannon_AmmoCount__10&#45;&gt;ExecuteUbergraph_WeaponDisplay_Autocannon_AmmoCount__47</title>
<path fill="none" stroke="black" d="M5028.42,-291.03C4963.69,-274.03 4888.71,-253.27 4821.5,-232 4704.78,-195.05 4570.66,-144.04 4498.03,-115.68"/>
<polygon fill="black" stroke="black" points="4499.33,-112.43 4488.75,-112.05 4496.78,-118.95 4499.33,-112.43"/>
</g>
<!-- ExecuteUbergraph_WeaponDisplay_Autocannon_AmmoCount__265 -->
<g id="node15" class="node">
<title>ExecuteUbergraph_WeaponDisplay_Autocannon_AmmoCount__265</title>
<polygon fill="#eeeeee" stroke="black" points="3557.5,-0.5 3557.5,-38.5 3673.5,-38.5 3673.5,-0.5 3557.5,-0.5"/>
<text text-anchor="start" x="3565.5" y="-23.3" font-family="monospace" font-size="14.00">EX_Return</text>
<text text-anchor="start" x="3565.5" y="-8.3" font-family="monospace" font-size="14.00">  EX_Nothing</text>
</g>
<!-- ExecuteUbergraph_WeaponDisplay_Autocannon_AmmoCount__47&#45;&gt;ExecuteUbergraph_WeaponDisplay_Autocannon_AmmoCount__265 -->
<g id="edge3" class="edge">
<title>ExecuteUbergraph_WeaponDisplay_Autocannon_AmmoCount__47&#45;&gt;ExecuteUbergraph_WeaponDisplay_Autocannon_AmmoCount__265</title>
<path fill="none" stroke="black" d="M4391.23,-90.14C4245.21,-83.47 3839.71,-63.45 3684.61,-39.1"/>
<polygon fill="black" stroke="black" points="3685.37,-35.68 3674.94,-37.51 3684.24,-42.58 3685.37,-35.68"/>
</g>
<!-- ExecuteUbergraph_WeaponDisplay_Autocannon_AmmoCount__52 -->
<g id="node6" class="node">
<title>ExecuteUbergraph_WeaponDisplay_Autocannon_AmmoCount__52</title>
<polygon fill="#eeeeee" stroke="black" points="2142.5,-268.5 2142.5,-396.5 2736.5,-396.5 2736.5,-268.5 2142.5,-268.5"/>
<text text-anchor="start" x="2150.5" y="-381.3" font-family="monospace" font-size="14.00">EX_Let</text>
<text text-anchor="start" x="2150.5" y="-366.3" font-family="monospace" font-size="14.00">  EX_LocalVariable [CallFunc_Conv_IntToText_ReturnValue]</text>
<text text-anchor="start" x="2150.5" y="-351.3" font-family="monospace" font-size="14.00">  EX_CallMath import /Script/Engine&#45;&gt;KismetTextLibrary&#45;&gt;Conv_IntToText</text>
<text text-anchor="start" x="2150.5" y="-336.3" font-family="monospace" font-size="14.00">    EX_LocalVariable [K2Node_Event_Value_1]</text>
<text text-anchor="start" x="2150.5" y="-321.3" font-family="monospace" font-size="14.00">    EX_False</text>
<text text-anchor="start" x="2150.5" y="-306.3" font-family="monospace" font-size="14.00">    EX_True</text>
<text text-anchor="start" x="2150.5" y="-291.3" font-family="monospace" font-size="14.00">    EX_IntConst 1</text>
<text text-anchor="start" x="2150.5" y="-276.3" font-family="monospace" font-size="14.00">    EX_IntConst 324</text>
</g>
<!-- ExecuteUbergraph_WeaponDisplay_Autocannon_AmmoCount__101 -->
<g id="node7" class="node">
<title>ExecuteUbergraph_WeaponDisplay_Autocannon_AmmoCount__101</title>
<polygon fill="#eeeeee" stroke="black" points="2593,-148.5 2593,-231.5 3088,-231.5 3088,-148.5 2593,-148.5"/>
<text text-anchor="start" x="2601" y="-216.3" font-family="monospace" font-size="14.00">EX_Context</text>
<text text-anchor="start" x="2601" y="-201.3" font-family="monospace" font-size="14.00">  EX_InstanceVariable [DATA_AmmoCurrent]</text>
<text text-anchor="start" x="2601" y="-186.3" font-family="monospace" font-size="14.00">  EX_VirtualFunction SetText</text>
<text text-anchor="start" x="2601" y="-171.3" font-family="monospace" font-size="14.00">    EX_LocalVariable [CallFunc_Conv_IntToText_ReturnValue]</text>
<text text-anchor="start" x="2601" y="-156.3" font-family="monospace" font-size="14.00">  RValue = []</text>
</g>
<!-- ExecuteUbergraph_WeaponDisplay_Autocannon_AmmoCount__52&#45;&gt;ExecuteUbergraph_WeaponDisplay_Autocannon_AmmoCount__101 -->
<g id="edge4" class="edge">
<title>ExecuteUbergraph_WeaponDisplay_Autocannon_AmmoCount__52&#45;&gt;ExecuteUbergraph_WeaponDisplay_Autocannon_AmmoCount__101</title>
<path fill="none" stroke="black" d="M2619.18,-268.54C2651.33,-257.28 2684.21,-245.76 2714.45,-235.16"/>
<polygon fill="black" stroke="black" points="2715.32,-238.57 2723.6,-231.96 2713.01,-231.96 2715.32,-238.57"/>
</g>
<!-- ExecuteUbergraph_WeaponDisplay_Autocannon_AmmoCount__146 -->
<g id="node8" class="node">
<title>ExecuteUbergraph_WeaponDisplay_Autocannon_AmmoCount__146</title>
<polygon fill="#eeeeee" stroke="black" points="3071,-75.5 3071,-111.5 3178,-111.5 3178,-75.5 3071,-75.5"/>
<text text-anchor="start" x="3079" y="-89.8" font-family="monospace" font-size="14.00">EX_Jump 265</text>
</g>
<!-- ExecuteUbergraph_WeaponDisplay_Autocannon_AmmoCount__101&#45;&gt;ExecuteUbergraph_WeaponDisplay_Autocannon_AmmoCount__146 -->
<g id="edge5" class="edge">
<title>ExecuteUbergraph_WeaponDisplay_Autocannon_AmmoCount__101&#45;&gt;ExecuteUbergraph_WeaponDisplay_Autocannon_AmmoCount__146</title>
<path fill="none" stroke="black" d="M2962.18,-148.51C2997.04,-136.91 3033.57,-124.76 3063.13,-114.92"/>
<polygon fill="black" stroke="black" points="3063.87,-118.36 3072.25,-111.89 3061.66,-111.72 3063.87,-118.36"/>
</g>
<!-- ExecuteUbergraph_WeaponDisplay_Autocannon_AmmoCount__146&#45;&gt;ExecuteUbergraph_WeaponDisplay_Autocannon_AmmoCount__265 -->
<g id="edge6" class="edge">
<title>ExecuteUbergraph_WeaponDisplay_Autocannon_AmmoCount__146&#45;&gt;ExecuteUbergraph_WeaponDisplay_Autocannon_AmmoCount__265</title>
<path fill="none" stroke="black" d="M3177.98,-84.66C3267.4,-71.55 3447.17,-45.18 3546.17,-30.67"/>
<polygon fill="black" stroke="black" points="3546.66,-34.13 3556.04,-29.22 3545.64,-27.21 3546.66,-34.13"/>
</g>
<!-- ExecuteUbergraph_WeaponDisplay_Autocannon_AmmoCount__151 -->
<g id="node9" class="node">
<title>ExecuteUbergraph_WeaponDisplay_Autocannon_AmmoCount__151</title>
<polygon fill="#eeeeee" stroke="black" points="3283,-75.5 3283,-111.5 3390,-111.5 3390,-75.5 3283,-75.5"/>
<text text-anchor="start" x="3291" y="-89.8" font-family="monospace" font-size="14.00">EX_Jump 265</text>
</g>
<!-- ExecuteUbergraph_WeaponDisplay_Autocannon_AmmoCount__151&#45;&gt;ExecuteUbergraph_WeaponDisplay_Autocannon_AmmoCount__265 -->
<g id="edge7" class="edge">
<title>ExecuteUbergraph_WeaponDisplay_Autocannon_AmmoCount__151&#45;&gt;ExecuteUbergraph_WeaponDisplay_Autocannon_AmmoCount__265</title>
<path fill="none" stroke="black" d="M3389.96,-78.7C3434.59,-67.19 3498.49,-50.7 3546.88,-38.21"/>
<polygon fill="black" stroke="black" points="3547.62,-41.63 3556.43,-35.74 3545.87,-34.85 3547.62,-41.63"/>
</g>
<!-- ExecuteUbergraph_WeaponDisplay_Autocannon_AmmoCount__156 -->
<g id="node10" class="node">
<title>ExecuteUbergraph_WeaponDisplay_Autocannon_AmmoCount__156</title>
<polygon fill="#eeeeee" stroke="black" points="3562,-172 3562,-208 3669,-208 3669,-172 3562,-172"/>
<text text-anchor="start" x="3570" y="-186.3" font-family="monospace" font-size="14.00">EX_Jump 265</text>
</g>
<!-- ExecuteUbergraph_WeaponDisplay_Autocannon_AmmoCount__156&#45;&gt;ExecuteUbergraph_WeaponDisplay_Autocannon_AmmoCount__265 -->
<g id="edge8" class="edge">
<title>ExecuteUbergraph_WeaponDisplay_Autocannon_AmmoCount__156&#45;&gt;ExecuteUbergraph_WeaponDisplay_Autocannon_AmmoCount__265</title>
<path fill="none" stroke="black" d="M3615.5,-172.23C3615.5,-143.71 3615.5,-85.42 3615.5,-49.97"/>
<polygon fill="black" stroke="black" points="3619,-49.98 3615.5,-39.98 3612,-49.98 3619,-49.98"/>
</g>
<!-- ExecuteUbergraph_WeaponDisplay_Autocannon_AmmoCount__161 -->
<g id="node11" class="node">
<title>ExecuteUbergraph_WeaponDisplay_Autocannon_AmmoCount__161</title>
<polygon fill="#eeeeee" stroke="black" points="4275.5,-268.5 4275.5,-396.5 4869.5,-396.5 4869.5,-268.5 4275.5,-268.5"/>
<text text-anchor="start" x="4283.5" y="-381.3" font-family="monospace" font-size="14.00">EX_Let</text>
<text text-anchor="start" x="4283.5" y="-366.3" font-family="monospace" font-size="14.00">  EX_LocalVariable [CallFunc_Conv_IntToText_ReturnValue_1]</text>
<text text-anchor="start" x="4283.5" y="-351.3" font-family="monospace" font-size="14.00">  EX_CallMath import /Script/Engine&#45;&gt;KismetTextLibrary&#45;&gt;Conv_IntToText</text>
<text text-anchor="start" x="4283.5" y="-336.3" font-family="monospace" font-size="14.00">    EX_LocalVariable [K2Node_Event_Value]</text>
<text text-anchor="start" x="4283.5" y="-321.3" font-family="monospace" font-size="14.00">    EX_False</text>
<text text-anchor="start" x="4283.5" y="-306.3" font-family="monospace" font-size="14.00">    EX_True</text>
<text text-anchor="start" x="4283.5" y="-291.3" font-family="monospace" font-size="14.00">    EX_IntConst 1</text>
<text text-anchor="start" x="4283.5" y="-276.3" font-family="monospace" font-size="14.00">    EX_IntConst 324</text>
</g>
<!-- ExecuteUbergraph_WeaponDisplay_Autocannon_AmmoCount__210 -->
<g id="node12" class="node">
<title>ExecuteUbergraph_WeaponDisplay_Autocannon_AmmoCount__210</title>
<polygon fill="#eeeeee" stroke="black" points="3971.5,-148.5 3971.5,-231.5 4483.5,-231.5 4483.5,-148.5 3971.5,-148.5"/>
<text text-anchor="start" x="3979.5" y="-216.3" font-family="monospace" font-size="14.00">EX_Context</text>
<text text-anchor="start" x="3979.5" y="-201.3" font-family="monospace" font-size="14.00">  EX_InstanceVariable [DATA_AmmoTotal]</text>
<text text-anchor="start" x="3979.5" y="-186.3" font-family="monospace" font-size="14.00">  EX_VirtualFunction SetText</text>
<text text-anchor="start" x="3979.5" y="-171.3" font-family="monospace" font-size="14.00">    EX_LocalVariable [CallFunc_Conv_IntToText_ReturnValue_1]</text>
<text text-anchor="start" x="3979.5" y="-156.3" font-family="monospace" font-size="14.00">  RValue = []</text>
</g>
<!-- ExecuteUbergraph_WeaponDisplay_Autocannon_AmmoCount__161&#45;&gt;ExecuteUbergraph_WeaponDisplay_Autocannon_AmmoCount__210 -->
<g id="edge9" class="edge">
<title>ExecuteUbergraph_WeaponDisplay_Autocannon_AmmoCount__161&#45;&gt;ExecuteUbergraph_WeaponDisplay_Autocannon_AmmoCount__210</title>
<path fill="none" stroke="black" d="M4417.91,-268.54C4390.65,-257.44 4362.79,-246.1 4337.09,-235.63"/>
<polygon fill="black" stroke="black" points="4338.58,-232.46 4328,-231.93 4335.94,-238.94 4338.58,-232.46"/>
</g>
<!-- ExecuteUbergraph_WeaponDisplay_Autocannon_AmmoCount__255 -->
<g id="node13" class="node">
<title>ExecuteUbergraph_WeaponDisplay_Autocannon_AmmoCount__255</title>
<polygon fill="#eeeeee" stroke="black" points="3909,-75.5 3909,-111.5 4016,-111.5 4016,-75.5 3909,-75.5"/>
<text text-anchor="start" x="3917" y="-89.8" font-family="monospace" font-size="14.00">EX_Jump 265</text>
</g>
<!-- ExecuteUbergraph_WeaponDisplay_Autocannon_AmmoCount__210&#45;&gt;ExecuteUbergraph_WeaponDisplay_Autocannon_AmmoCount__255 -->
<g id="edge10" class="edge">
<title>ExecuteUbergraph_WeaponDisplay_Autocannon_AmmoCount__210&#45;&gt;ExecuteUbergraph_WeaponDisplay_Autocannon_AmmoCount__255</title>
<path fill="none" stroke="black" d="M4113.96,-148.51C4081.72,-137.01 4047.94,-124.97 4020.49,-115.18"/>
<polygon fill="black" stroke="black" points="4021.93,-111.98 4011.34,-111.92 4019.58,-118.57 4021.93,-111.98"/>
</g>
<!-- ExecuteUbergraph_WeaponDisplay_Autocannon_AmmoCount__255&#45;&gt;ExecuteUbergraph_WeaponDisplay_Autocannon_AmmoCount__265 -->
<g id="edge11" class="edge">
<title>ExecuteUbergraph_WeaponDisplay_Autocannon_AmmoCount__255&#45;&gt;ExecuteUbergraph_WeaponDisplay_Autocannon_AmmoCount__265</title>
<path fill="none" stroke="black" d="M3909.07,-83.61C3854.9,-74.31 3768.46,-58.65 3684.23,-39.31"/>
<polygon fill="black" stroke="black" points="3685.17,-35.93 3674.64,-37.08 3683.59,-42.75 3685.17,-35.93"/>
</g>
<!-- ExecuteUbergraph_WeaponDisplay_Autocannon_AmmoCount__260 -->
<g id="node14" class="node">
<title>ExecuteUbergraph_WeaponDisplay_Autocannon_AmmoCount__260</title>
<polygon fill="#eeeeee" stroke="black" points="5272,-434.5 5272,-470.5 5371,-470.5 5371,-434.5 5272,-434.5"/>
<text text-anchor="start" x="5280" y="-448.8" font-family="monospace" font-size="14.00">EX_Jump 10</text>
</g>
<!-- ExecuteUbergraph_WeaponDisplay_Autocannon_AmmoCount__260&#45;&gt;ExecuteUbergraph_WeaponDisplay_Autocannon_AmmoCount__10 -->
<g id="edge12" class="edge">
<title>ExecuteUbergraph_WeaponDisplay_Autocannon_AmmoCount__260&#45;&gt;ExecuteUbergraph_WeaponDisplay_Autocannon_AmmoCount__10</title>
<path fill="none" stroke="black" d="M5302.73,-434.59C5287.31,-420.7 5264.68,-400.32 5243.77,-381.48"/>
<polygon fill="black" stroke="black" points="5246.15,-378.92 5236.38,-374.82 5241.46,-384.12 5246.15,-378.92"/>
</g>
<!-- ExecuteUbergraph_WeaponDisplay_Autocannon_AmmoCount__267 -->
<g id="node16" class="node">
<title>ExecuteUbergraph_WeaponDisplay_Autocannon_AmmoCount__267</title>
<polygon fill="#eeeeee" stroke="black" points="3691.5,-1.5 3691.5,-37.5 3823.5,-37.5 3823.5,-1.5 3691.5,-1.5"/>
<text text-anchor="start" x="3699.5" y="-15.8" font-family="monospace" font-size="14.00">EX_EndOfScript</text>
</g>
<!-- Construct -->
<g id="node17" class="node">
<title>Construct</title>
<polygon fill="#ff8888" stroke="black" points="4780,-712 4780,-748 4945,-748 4945,-712 4780,-712"/>
<text text-anchor="start" x="4788" y="-726.3" font-family="monospace" font-size="14.00">Function Construct</text>
</g>
<!-- Construct__0 -->
<g id="node18" class="node">
<title>Construct__0</title>
<polygon fill="#eeeeee" stroke="black" points="4367.5,-508.5 4367.5,-546.5 5357.5,-546.5 5357.5,-508.5 4367.5,-508.5"/>
<text text-anchor="start" x="4375.5" y="-531.3" font-family="monospace" font-size="14.00">EX_LocalFinalFunction export WeaponDisplay_Autocannon_AmmoCount_C&#45;&gt;ExecuteUbergraph_WeaponDisplay_Autocannon_AmmoCount</text>
<text text-anchor="start" x="4375.5" y="-516.3" font-family="monospace" font-size="14.00">  EX_IntConst 260</text>
</g>
<!-- Construct&#45;&gt;Construct__0 -->
<g id="edge13" class="edge">
<title>Construct&#45;&gt;Construct__0</title>
<path fill="none" stroke="black" d="M4862.5,-712.25C4862.5,-678.17 4862.5,-600.39 4862.5,-557.76"/>
<polygon fill="black" stroke="black" points="4866,-558 4862.5,-548 4859,-558 4866,-558"/>
</g>
<!-- Construct__0&#45;&gt;ExecuteUbergraph_WeaponDisplay_Autocannon_AmmoCount__260 -->
<g id="edge14" class="edge">
<title>Construct__0:e&#45;&gt;ExecuteUbergraph_WeaponDisplay_Autocannon_AmmoCount__260</title>
<path fill="none" stroke="red" d="M5358.5,-527.5C5380.84,-527.5 5362.37,-500.17 5344.43,-478.73"/>
<polygon fill="none" stroke="red" points="5347.33,-476.73 5338.15,-471.44 5342.02,-481.3 5347.33,-476.73"/>
</g>
<!-- Construct__15 -->
<g id="node19" class="node">
<title>Construct__15</title>
<polygon fill="#eeeeee" stroke="black" points="4804.5,-433.5 4804.5,-471.5 4920.5,-471.5 4920.5,-433.5 4804.5,-433.5"/>
<text text-anchor="start" x="4812.5" y="-456.3" font-family="monospace" font-size="14.00">EX_Return</text>
<text text-anchor="start" x="4812.5" y="-441.3" font-family="monospace" font-size="14.00">  EX_Nothing</text>
</g>
<!-- Construct__0&#45;&gt;Construct__15 -->
<g id="edge15" class="edge">
<title>Construct__0&#45;&gt;Construct__15</title>
<path fill="none" stroke="black" d="M4862.5,-508.83C4862.5,-501 4862.5,-491.57 4862.5,-482.74"/>
<polygon fill="black" stroke="black" points="4866,-482.78 4862.5,-472.78 4859,-482.78 4866,-482.78"/>
</g>
<!-- Construct__17 -->
<g id="node20" class="node">
<title>Construct__17</title>
<polygon fill="#eeeeee" stroke="black" points="4516.5,-75.5 4516.5,-111.5 4648.5,-111.5 4648.5,-75.5 4516.5,-75.5"/>
<text text-anchor="start" x="4524.5" y="-89.8" font-family="monospace" font-size="14.00">EX_EndOfScript</text>
</g>
<!-- SetTotalCount -->
<g id="node21" class="node">
<title>SetTotalCount</title>
<polygon fill="#ff8888" stroke="black" points="3903.5,-703.5 3903.5,-756.5 4373.5,-756.5 4373.5,-703.5 3903.5,-703.5"/>
<text text-anchor="start" x="3911.5" y="-741.3" font-family="monospace" font-size="14.00">Function SetTotalCount</text>
<text text-anchor="start" x="3911.5" y="-726.3" font-family="monospace" font-size="14.00">  IntProperty Value</text>
<text text-anchor="start" x="3911.5" y="-711.3" font-family="monospace" font-size="14.00">    CPF_BlueprintVisible|CPF_BlueprintReadOnly|CPF_Parm</text>
</g>
<!-- SetTotalCount__0 -->
<g id="node22" class="node">
<title>SetTotalCount__0</title>
<polygon fill="#eeeeee" stroke="black" points="3928,-508.5 3928,-546.5 4349,-546.5 4349,-508.5 3928,-508.5"/>
<text text-anchor="start" x="3936" y="-531.3" font-family="monospace" font-size="14.00">EX_LetValueOnPersistentFrame [K2Node_Event_Value]</text>
<text text-anchor="start" x="3936" y="-516.3" font-family="monospace" font-size="14.00">  EX_LocalVariable [Value]</text>
</g>
<!-- SetTotalCount&#45;&gt;SetTotalCount__0 -->
<g id="edge16" class="edge">
<title>SetTotalCount&#45;&gt;SetTotalCount__0</title>
<path fill="none" stroke="black" d="M4138.5,-703.61C4138.5,-666.35 4138.5,-597.04 4138.5,-557.72"/>
<polygon fill="black" stroke="black" points="4142,-557.83 4138.5,-547.83 4135,-557.83 4142,-557.83"/>
</g>
<!-- SetTotalCount__18 -->
<g id="node23" class="node">
<title>SetTotalCount__18</title>
<polygon fill="#eeeeee" stroke="black" points="3643.5,-433.5 3643.5,-471.5 4633.5,-471.5 4633.5,-433.5 3643.5,-433.5"/>
<text text-anchor="start" x="3651.5" y="-456.3" font-family="monospace" font-size="14.00">EX_LocalFinalFunction export WeaponDisplay_Autocannon_AmmoCount_C&#45;&gt;ExecuteUbergraph_WeaponDisplay_Autocannon_AmmoCount</text>
<text text-anchor="start" x="3651.5" y="-441.3" font-family="monospace" font-size="14.00">  EX_IntConst 161</text>
</g>
<!-- SetTotalCount__0&#45;&gt;SetTotalCount__18 -->
<g id="edge17" class="edge">
<title>SetTotalCount__0&#45;&gt;SetTotalCount__18</title>
<path fill="none" stroke="black" d="M4138.5,-508.83C4138.5,-501 4138.5,-491.57 4138.5,-482.74"/>
<polygon fill="black" stroke="black" points="4142,-482.78 4138.5,-472.78 4135,-482.78 4142,-482.78"/>
</g>
<!-- SetTotalCount__18&#45;&gt;ExecuteUbergraph_WeaponDisplay_Autocannon_AmmoCount__161 -->
<g id="edge18" class="edge">
<title>SetTotalCount__18:e&#45;&gt;ExecuteUbergraph_WeaponDisplay_Autocannon_AmmoCount__161</title>
<path fill="none" stroke="red" d="M4634.5,-452.5C4660.02,-452.5 4652.35,-430.71 4635.21,-405.78"/>
<polygon fill="none" stroke="red" points="4638.09,-403.78 4629.4,-397.71 4632.41,-407.87 4638.09,-403.78"/>
</g>
<!-- SetTotalCount__33 -->
<g id="node24" class="node">
<title>SetTotalCount__33</title>
<polygon fill="#eeeeee" stroke="black" points="4080.5,-313.5 4080.5,-351.5 4196.5,-351.5 4196.5,-313.5 4080.5,-313.5"/>
<text text-anchor="start" x="4088.5" y="-336.3" font-family="monospace" font-size="14.00">EX_Return</text>
<text text-anchor="start" x="4088.5" y="-321.3" font-family="monospace" font-size="14.00">  EX_Nothing</text>
</g>
<!-- SetTotalCount__18&#45;&gt;SetTotalCount__33 -->
<g id="edge19" class="edge">
<title>SetTotalCount__18&#45;&gt;SetTotalCount__33</title>
<path fill="none" stroke="black" d="M4138.5,-433.58C4138.5,-414.76 4138.5,-384.86 4138.5,-362.64"/>
<polygon fill="black" stroke="black" points="4142,-362.72 4138.5,-352.72 4135,-362.72 4142,-362.72"/>
</g>
<!-- SetTotalCount__35 -->
<g id="node25" class="node">
<title>SetTotalCount__35</title>
<polygon fill="#eeeeee" stroke="black" points="3841.5,-1.5 3841.5,-37.5 3973.5,-37.5 3973.5,-1.5 3841.5,-1.5"/>
<text text-anchor="start" x="3849.5" y="-15.8" font-family="monospace" font-size="14.00">EX_EndOfScript</text>
</g>
<!-- OnReloadComplete -->
<g id="node26" class="node">
<title>OnReloadComplete</title>
<polygon fill="#ff8888" stroke="black" points="3303,-712 3303,-748 3526,-748 3526,-712 3303,-712"/>
<text text-anchor="start" x="3311" y="-726.3" font-family="monospace" font-size="14.00">Function OnReloadComplete</text>
</g>
<!-- OnReloadComplete__0 -->
<g id="node27" class="node">
<title>OnReloadComplete__0</title>
<polygon fill="#eeeeee" stroke="black" points="2919.5,-508.5 2919.5,-546.5 3909.5,-546.5 3909.5,-508.5 2919.5,-508.5"/>
<text text-anchor="start" x="2927.5" y="-531.3" font-family="monospace" font-size="14.00">EX_LocalFinalFunction export WeaponDisplay_Autocannon_AmmoCount_C&#45;&gt;ExecuteUbergraph_WeaponDisplay_Autocannon_AmmoCount</text>
<text text-anchor="start" x="2927.5" y="-516.3" font-family="monospace" font-size="14.00">  EX_IntConst 156</text>
</g>
<!-- OnReloadComplete&#45;&gt;OnReloadComplete__0 -->
<g id="edge20" class="edge">
<title>OnReloadComplete&#45;&gt;OnReloadComplete__0</title>
<path fill="none" stroke="black" d="M3414.5,-712.25C3414.5,-678.17 3414.5,-600.39 3414.5,-557.76"/>
<polygon fill="black" stroke="black" points="3418,-558 3414.5,-548 3411,-558 3418,-558"/>
</g>
<!-- OnReloadComplete__0&#45;&gt;ExecuteUbergraph_WeaponDisplay_Autocannon_AmmoCount__156 -->
<g id="edge21" class="edge">
<title>OnReloadComplete__0:e&#45;&gt;ExecuteUbergraph_WeaponDisplay_Autocannon_AmmoCount__156</title>
<path fill="none" stroke="red" d="M3910.5,-527.5C3919.18,-527.5 3915.39,-514.37 3909.5,-508 3825.85,-417.47 3718.89,-561.85 3634.5,-472 3568.87,-402.12 3592.62,-274.47 3607.34,-218.51"/>
<polygon fill="none" stroke="red" points="3610.64,-219.74 3609.91,-209.17 3603.89,-217.88 3610.64,-219.74"/>
</g>
<!-- OnReloadComplete__15 -->
<g id="node28" class="node">
<title>OnReloadComplete__15</title>
<polygon fill="#eeeeee" stroke="black" points="3356.5,-433.5 3356.5,-471.5 3472.5,-471.5 3472.5,-433.5 3356.5,-433.5"/>
<text text-anchor="start" x="3364.5" y="-456.3" font-family="monospace" font-size="14.00">EX_Return</text>
<text text-anchor="start" x="3364.5" y="-441.3" font-family="monospace" font-size="14.00">  EX_Nothing</text>
</g>
<!-- OnReloadComplete__0&#45;&gt;OnReloadComplete__15 -->
<g id="edge22" class="edge">
<title>OnReloadComplete__0&#45;&gt;OnReloadComplete__15</title>
<path fill="none" stroke="black" d="M3414.5,-508.83C3414.5,-501 3414.5,-491.57 3414.5,-482.74"/>
<polygon fill="black" stroke="black" points="3418,-482.78 3414.5,-472.78 3411,-482.78 3418,-482.78"/>
</g>
<!-- OnReloadComplete__17 -->
<g id="node29" class="node">
<title>OnReloadComplete__17</title>
<polygon fill="#eeeeee" stroke="black" points="4830.5,-172 4830.5,-208 4962.5,-208 4962.5,-172 4830.5,-172"/>
<text text-anchor="start" x="4838.5" y="-186.3" font-family="monospace" font-size="14.00">EX_EndOfScript</text>
</g>
<!-- OnReloadStarted -->
<g id="node30" class="node">
<title>OnReloadStarted</title>
<polygon fill="#ff8888" stroke="black" points="2299,-712 2299,-748 2514,-748 2514,-712 2299,-712"/>
<text text-anchor="start" x="2307" y="-726.3" font-family="monospace" font-size="14.00">Function OnReloadStarted</text>
</g>
<!-- OnReloadStarted__0 -->
<g id="node31" class="node">
<title>OnReloadStarted__0</title>
<polygon fill="#eeeeee" stroke="black" points="1911.5,-508.5 1911.5,-546.5 2901.5,-546.5 2901.5,-508.5 1911.5,-508.5"/>
<text text-anchor="start" x="1919.5" y="-531.3" font-family="monospace" font-size="14.00">EX_LocalFinalFunction export WeaponDisplay_Autocannon_AmmoCount_C&#45;&gt;ExecuteUbergraph_WeaponDisplay_Autocannon_AmmoCount</text>
<text text-anchor="start" x="1919.5" y="-516.3" font-family="monospace" font-size="14.00">  EX_IntConst 151</text>
</g>
<!-- OnReloadStarted&#45;&gt;OnReloadStarted__0 -->
<g id="edge23" class="edge">
<title>OnReloadStarted&#45;&gt;OnReloadStarted__0</title>
<path fill="none" stroke="black" d="M2406.5,-712.25C2406.5,-678.17 2406.5,-600.39 2406.5,-557.76"/>
<polygon fill="black" stroke="black" points="2410,-558 2406.5,-548 2403,-558 2410,-558"/>
</g>
<!-- OnReloadStarted__0&#45;&gt;ExecuteUbergraph_WeaponDisplay_Autocannon_AmmoCount__151 -->
<g id="edge24" class="edge">
<title>OnReloadStarted__0:e&#45;&gt;ExecuteUbergraph_WeaponDisplay_Autocannon_AmmoCount__151</title>
<path fill="none" stroke="red" d="M2902.5,-527.5C2911.87,-527.5 2905.25,-515.76 2910.5,-508 3027.88,-334.5 3227.38,-175.86 3304.63,-117.84"/>
<polygon fill="none" stroke="red" points="3306.3,-120.97 3312.22,-112.18 3302.11,-115.36 3306.3,-120.97"/>
</g>
<!-- OnReloadStarted__15 -->
<g id="node32" class="node">
<title>OnReloadStarted__15</title>
<polygon fill="#eeeeee" stroke="black" points="2348.5,-433.5 2348.5,-471.5 2464.5,-471.5 2464.5,-433.5 2348.5,-433.5"/>
<text text-anchor="start" x="2356.5" y="-456.3" font-family="monospace" font-size="14.00">EX_Return</text>
<text text-anchor="start" x="2356.5" y="-441.3" font-family="monospace" font-size="14.00">  EX_Nothing</text>
</g>
<!-- OnReloadStarted__0&#45;&gt;OnReloadStarted__15 -->
<g id="edge25" class="edge">
<title>OnReloadStarted__0&#45;&gt;OnReloadStarted__15</title>
<path fill="none" stroke="black" d="M2406.5,-508.83C2406.5,-501 2406.5,-491.57 2406.5,-482.74"/>
<polygon fill="black" stroke="black" points="2410,-482.78 2406.5,-472.78 2403,-482.78 2410,-482.78"/>
</g>
<!-- OnReloadStarted__17 -->
<g id="node33" class="node">
<title>OnReloadStarted__17</title>
<polygon fill="#eeeeee" stroke="black" points="4963.5,-712 4963.5,-748 5095.5,-748 5095.5,-712 4963.5,-712"/>
<text text-anchor="start" x="4971.5" y="-726.3" font-family="monospace" font-size="14.00">EX_EndOfScript</text>
</g>
<!-- SetClipCount -->
<g id="node34" class="node">
<title>SetClipCount</title>
<polygon fill="#ff8888" stroke="black" points="1439.5,-703.5 1439.5,-756.5 1909.5,-756.5 1909.5,-703.5 1439.5,-703.5"/>
<text text-anchor="start" x="1447.5" y="-741.3" font-family="monospace" font-size="14.00">Function SetClipCount</text>
<text text-anchor="start" x="1447.5" y="-726.3" font-family="monospace" font-size="14.00">  IntProperty Value</text>
<text text-anchor="start" x="1447.5" y="-711.3" font-family="monospace" font-size="14.00">    CPF_BlueprintVisible|CPF_BlueprintReadOnly|CPF_Parm</text>
</g>
<!-- SetClipCount__0 -->
<g id="node35" class="node">
<title>SetClipCount__0</title>
<polygon fill="#eeeeee" stroke="black" points="1456,-508.5 1456,-546.5 1893,-546.5 1893,-508.5 1456,-508.5"/>
<text text-anchor="start" x="1464" y="-531.3" font-family="monospace" font-size="14.00">EX_LetValueOnPersistentFrame [K2Node_Event_Value_1]</text>
<text text-anchor="start" x="1464" y="-516.3" font-family="monospace" font-size="14.00">  EX_LocalVariable [Value]</text>
</g>
<!-- SetClipCount&#45;&gt;SetClipCount__0 -->
<g id="edge26" class="edge">
<title>SetClipCount&#45;&gt;SetClipCount__0</title>
<path fill="none" stroke="black" d="M1674.5,-703.61C1674.5,-666.35 1674.5,-597.04 1674.5,-557.72"/>
<polygon fill="black" stroke="black" points="1678,-557.83 1674.5,-547.83 1671,-557.83 1678,-557.83"/>
</g>
<!-- SetClipCount__18 -->
<g id="node36" class="node">
<title>SetClipCount__18</title>
<polygon fill="#eeeeee" stroke="black" points="1260.5,-433.5 1260.5,-471.5 2250.5,-471.5 2250.5,-433.5 1260.5,-433.5"/>
<text text-anchor="start" x="1268.5" y="-456.3" font-family="monospace" font-size="14.00">EX_LocalFinalFunction export WeaponDisplay_Autocannon_AmmoCount_C&#45;&gt;ExecuteUbergraph_WeaponDisplay_Autocannon_AmmoCount</text>
<text text-anchor="start" x="1268.5" y="-441.3" font-family="monospace" font-size="14.00">  EX_IntConst 52</text>
</g>
<!-- SetClipCount__0&#45;&gt;SetClipCount__18 -->
<g id="edge27" class="edge">
<title>SetClipCount__0&#45;&gt;SetClipCount__18</title>
<path fill="none" stroke="black" d="M1694.11,-508.83C1704.08,-499.84 1716.39,-488.75 1727.35,-478.87"/>
<polygon fill="black" stroke="black" points="1729.58,-481.57 1734.67,-472.27 1724.9,-476.37 1729.58,-481.57"/>
</g>
<!-- SetClipCount__18&#45;&gt;ExecuteUbergraph_WeaponDisplay_Autocannon_AmmoCount__52 -->
<g id="edge28" class="edge">
<title>SetClipCount__18:e&#45;&gt;ExecuteUbergraph_WeaponDisplay_Autocannon_AmmoCount__52</title>
<path fill="none" stroke="red" d="M2251.5,-452.5C2295.11,-452.5 2336.83,-429.35 2369.83,-403.47"/>
<polygon fill="none" stroke="red" points="2371.72,-406.45 2377.29,-397.44 2367.32,-401.01 2371.72,-406.45"/>
</g>
<!-- SetClipCount__33 -->
<g id="node37" class="node">
<title>SetClipCount__33</title>
<polygon fill="#eeeeee" stroke="black" points="1697.5,-313.5 1697.5,-351.5 1813.5,-351.5 1813.5,-313.5 1697.5,-313.5"/>
<text text-anchor="start" x="1705.5" y="-336.3" font-family="monospace" font-size="14.00">EX_Return</text>
<text text-anchor="start" x="1705.5" y="-321.3" font-family="monospace" font-size="14.00">  EX_Nothing</text>
</g>
<!-- SetClipCount__18&#45;&gt;SetClipCount__33 -->
<g id="edge29" class="edge">
<title>SetClipCount__18&#45;&gt;SetClipCount__33</title>
<path fill="none" stroke="black" d="M1755.5,-433.58C1755.5,-414.76 1755.5,-384.86 1755.5,-362.64"/>
<polygon fill="black" stroke="black" points="1759,-362.72 1755.5,-352.72 1752,-362.72 1759,-362.72"/>
</g>
<!-- SetClipCount__35 -->
<g id="node38" class="node">
<title>SetClipCount__35</title>
<polygon fill="#eeeeee" stroke="black" points="5113.5,-712 5113.5,-748 5245.5,-748 5245.5,-712 5113.5,-712"/>
<text text-anchor="start" x="5121.5" y="-726.3" font-family="monospace" font-size="14.00">EX_EndOfScript</text>
</g>
</g>
</svg>
