<?xml version="1.0" encoding="UTF-8" standalone="no"?>
<!DOCTYPE svg PUBLIC "-//W3C//DTD SVG 1.1//EN"
 "http://www.w3.org/Graphics/SVG/1.1/DTD/svg11.dtd">
<!-- Generated by graphviz version 7.0.1 (0)
 -->
<!-- Pages: 1 -->
<svg width="2783pt" height="735pt"
 viewBox="0.00 0.00 2783.00 735.00" xmlns="http://www.w3.org/2000/svg" xmlns:xlink="http://www.w3.org/1999/xlink">
<g id="graph0" class="graph" transform="scale(1 1) rotate(0) translate(4 731)">
<polygon fill="white" stroke="none" points="-4,4 -4,-731 2779,-731 2779,4 -4,4"/>
<!-- HoopsScore_Widget_C -->
<g id="node1" class="node">
<title>HoopsScore_Widget_C</title>
<polygon fill="#88ff88" stroke="black" points="0,-583.5 0,-726.5 850,-726.5 850,-583.5 0,-583.5"/>
<text text-anchor="start" x="8" y="-711.3" font-family="monospace" font-size="14.00">ClassExport: HoopsScore_Widget_C</text>
<text text-anchor="start" x="8" y="-696.3" font-family="monospace" font-size="14.00">  SuperStruct: import /Script/UMG&#45;&gt;UserWidget</text>
<text text-anchor="start" x="8" y="-681.3" font-family="monospace" font-size="14.00">  Properties:</text>
<text text-anchor="start" x="8" y="-666.3" font-family="monospace" font-size="14.00">    StructProperty UberGraphFrame</text>
<text text-anchor="start" x="8" y="-651.3" font-family="monospace" font-size="14.00">      CPF_Transient|CPF_DuplicateTransient</text>
<text text-anchor="start" x="8" y="-636.3" font-family="monospace" font-size="14.00">    ObjectProperty ConsoleScreen_Empty</text>
<text text-anchor="start" x="8" y="-621.3" font-family="monospace" font-size="14.00">      CPF_BlueprintVisible|CPF_ExportObject|CPF_InstancedReference|CPF_RepSkip|CPF_PersistentInstance</text>
<text text-anchor="start" x="8" y="-606.3" font-family="monospace" font-size="14.00">    ObjectProperty ScoreText</text>
<text text-anchor="start" x="8" y="-591.3" font-family="monospace" font-size="14.00">      CPF_BlueprintVisible|CPF_ExportObject|CPF_InstancedReference|CPF_RepSkip|CPF_PersistentInstance</text>
</g>
<!-- ExecuteUbergraph_HoopsScore_Widget -->
<g id="node2" class="node">
<title>ExecuteUbergraph_HoopsScore_Widget</title>
<polygon fill="#ff8888" stroke="black" points="868,-613.5 868,-696.5 1338,-696.5 1338,-613.5 868,-613.5"/>
<text text-anchor="start" x="876" y="-681.3" font-family="monospace" font-size="14.00">Function ExecuteUbergraph_HoopsScore_Widget</text>
<text text-anchor="start" x="876" y="-666.3" font-family="monospace" font-size="14.00">  IntProperty EntryPoint</text>
<text text-anchor="start" x="876" y="-651.3" font-family="monospace" font-size="14.00">    CPF_BlueprintVisible|CPF_BlueprintReadOnly|CPF_Parm</text>
<text text-anchor="start" x="876" y="-636.3" font-family="monospace" font-size="14.00">  IntProperty K2Node_CustomEvent_Score</text>
<text text-anchor="start" x="876" y="-621.3" font-family="monospace" font-size="14.00">  TextProperty CallFunc_Conv_IntToText_ReturnValue</text>
</g>
<!-- ExecuteUbergraph_HoopsScore_Widget__0 -->
<g id="node3" class="node">
<title>ExecuteUbergraph_HoopsScore_Widget__0</title>
<polygon fill="#eeeeee" stroke="black" points="967,-508.5 967,-546.5 1239,-546.5 1239,-508.5 967,-508.5"/>
<text text-anchor="start" x="975" y="-531.3" font-family="monospace" font-size="14.00">EX_ComputedJump</text>
<text text-anchor="start" x="975" y="-516.3" font-family="monospace" font-size="14.00">  EX_LocalVariable [EntryPoint]</text>
</g>
<!-- ExecuteUbergraph_HoopsScore_Widget&#45;&gt;ExecuteUbergraph_HoopsScore_Widget__0 -->
<g id="edge1" class="edge">
<title>ExecuteUbergraph_HoopsScore_Widget&#45;&gt;ExecuteUbergraph_HoopsScore_Widget__0</title>
<path fill="none" stroke="black" d="M1103,-613.6C1103,-595.38 1103,-574.27 1103,-557.63"/>
<polygon fill="black" stroke="black" points="1106.5,-557.92 1103,-547.92 1099.5,-557.92 1106.5,-557.92"/>
</g>
<!-- ExecuteUbergraph_HoopsScore_Widget__10 -->
<g id="node4" class="node">
<title>ExecuteUbergraph_HoopsScore_Widget__10</title>
<polygon fill="#eeeeee" stroke="black" points="2321,-268.5 2321,-396.5 2775,-396.5 2775,-268.5 2321,-268.5"/>
<text text-anchor="start" x="2329" y="-381.3" font-family="monospace" font-size="14.00">EX_Context</text>
<text text-anchor="start" x="2329" y="-366.3" font-family="monospace" font-size="14.00">  EX_InstanceVariable [ScoreText]</text>
<text text-anchor="start" x="2329" y="-351.3" font-family="monospace" font-size="14.00">  EX_VirtualFunction SetText</text>
<text text-anchor="start" x="2329" y="-336.3" font-family="monospace" font-size="14.00">    EX_TextConst</text>
<text text-anchor="start" x="2329" y="-321.3" font-family="monospace" font-size="14.00">      SourceString = 0</text>
<text text-anchor="start" x="2329" y="-306.3" font-family="monospace" font-size="14.00">      LocalizedKey = 701419A2418C8EA0AC1187BC5817ED6B</text>
<text text-anchor="start" x="2329" y="-291.3" font-family="monospace" font-size="14.00">      LocalizedNamespace = </text>
<text text-anchor="start" x="2329" y="-276.3" font-family="monospace" font-size="14.00">  RValue = []</text>
</g>
<!-- ExecuteUbergraph_HoopsScore_Widget__87 -->
<g id="node5" class="node">
<title>ExecuteUbergraph_HoopsScore_Widget__87</title>
<polygon fill="#eeeeee" stroke="black" points="2436.5,-172 2436.5,-208 2543.5,-208 2543.5,-172 2436.5,-172"/>
<text text-anchor="start" x="2444.5" y="-186.3" font-family="monospace" font-size="14.00">EX_Jump 196</text>
</g>
<!-- ExecuteUbergraph_HoopsScore_Widget__10&#45;&gt;ExecuteUbergraph_HoopsScore_Widget__87 -->
<g id="edge2" class="edge">
<title>ExecuteUbergraph_HoopsScore_Widget__10&#45;&gt;ExecuteUbergraph_HoopsScore_Widget__87</title>
<path fill="none" stroke="black" d="M2522.05,-268.65C2514.77,-251.01 2507.23,-232.73 2501.29,-218.35"/>
<polygon fill="black" stroke="black" points="2504.54,-217.04 2497.49,-209.14 2498.07,-219.71 2504.54,-217.04"/>
</g>
<!-- ExecuteUbergraph_HoopsScore_Widget__196 -->
<g id="node10" class="node">
<title>ExecuteUbergraph_HoopsScore_Widget__196</title>
<polygon fill="#eeeeee" stroke="black" points="2215,-0.5 2215,-38.5 2331,-38.5 2331,-0.5 2215,-0.5"/>
<text text-anchor="start" x="2223" y="-23.3" font-family="monospace" font-size="14.00">EX_Return</text>
<text text-anchor="start" x="2223" y="-8.3" font-family="monospace" font-size="14.00">  EX_Nothing</text>
</g>
<!-- ExecuteUbergraph_HoopsScore_Widget__87&#45;&gt;ExecuteUbergraph_HoopsScore_Widget__196 -->
<g id="edge3" class="edge">
<title>ExecuteUbergraph_HoopsScore_Widget__87&#45;&gt;ExecuteUbergraph_HoopsScore_Widget__196</title>
<path fill="none" stroke="black" d="M2468.4,-172.23C2430.07,-142.46 2349.97,-80.27 2305.15,-45.46"/>
<polygon fill="black" stroke="black" points="2307.38,-42.77 2297.34,-39.4 2303.09,-48.3 2307.38,-42.77"/>
</g>
<!-- ExecuteUbergraph_HoopsScore_Widget__92 -->
<g id="node6" class="node">
<title>ExecuteUbergraph_HoopsScore_Widget__92</title>
<polygon fill="#eeeeee" stroke="black" points="1703,-268.5 1703,-396.5 2297,-396.5 2297,-268.5 1703,-268.5"/>
<text text-anchor="start" x="1711" y="-381.3" font-family="monospace" font-size="14.00">EX_Let</text>
<text text-anchor="start" x="1711" y="-366.3" font-family="monospace" font-size="14.00">  EX_LocalVariable [CallFunc_Conv_IntToText_ReturnValue]</text>
<text text-anchor="start" x="1711" y="-351.3" font-family="monospace" font-size="14.00">  EX_CallMath import /Script/Engine&#45;&gt;KismetTextLibrary&#45;&gt;Conv_IntToText</text>
<text text-anchor="start" x="1711" y="-336.3" font-family="monospace" font-size="14.00">    EX_LocalVariable [K2Node_CustomEvent_Score]</text>
<text text-anchor="start" x="1711" y="-321.3" font-family="monospace" font-size="14.00">    EX_False</text>
<text text-anchor="start" x="1711" y="-306.3" font-family="monospace" font-size="14.00">    EX_False</text>
<text text-anchor="start" x="1711" y="-291.3" font-family="monospace" font-size="14.00">    EX_IntConst 1</text>
<text text-anchor="start" x="1711" y="-276.3" font-family="monospace" font-size="14.00">    EX_IntConst 324</text>
</g>
<!-- ExecuteUbergraph_HoopsScore_Widget__141 -->
<g id="node7" class="node">
<title>ExecuteUbergraph_HoopsScore_Widget__141</title>
<polygon fill="#eeeeee" stroke="black" points="1866.5,-148.5 1866.5,-231.5 2361.5,-231.5 2361.5,-148.5 1866.5,-148.5"/>
<text text-anchor="start" x="1874.5" y="-216.3" font-family="monospace" font-size="14.00">EX_Context</text>
<text text-anchor="start" x="1874.5" y="-201.3" font-family="monospace" font-size="14.00">  EX_InstanceVariable [ScoreText]</text>
<text text-anchor="start" x="1874.5" y="-186.3" font-family="monospace" font-size="14.00">  EX_VirtualFunction SetText</text>
<text text-anchor="start" x="1874.5" y="-171.3" font-family="monospace" font-size="14.00">    EX_LocalVariable [CallFunc_Conv_IntToText_ReturnValue]</text>
<text text-anchor="start" x="1874.5" y="-156.3" font-family="monospace" font-size="14.00">  RValue = []</text>
</g>
<!-- ExecuteUbergraph_HoopsScore_Widget__92&#45;&gt;ExecuteUbergraph_HoopsScore_Widget__141 -->
<g id="edge4" class="edge">
<title>ExecuteUbergraph_HoopsScore_Widget__92&#45;&gt;ExecuteUbergraph_HoopsScore_Widget__141</title>
<path fill="none" stroke="black" d="M2051,-268.65C2058.82,-259.01 2066.78,-249.19 2074.31,-239.92"/>
<polygon fill="black" stroke="black" points="2076.83,-242.36 2080.41,-232.39 2071.4,-237.95 2076.83,-242.36"/>
</g>
<!-- ExecuteUbergraph_HoopsScore_Widget__186 -->
<g id="node8" class="node">
<title>ExecuteUbergraph_HoopsScore_Widget__186</title>
<polygon fill="#eeeeee" stroke="black" points="2178.5,-75.5 2178.5,-111.5 2285.5,-111.5 2285.5,-75.5 2178.5,-75.5"/>
<text text-anchor="start" x="2186.5" y="-89.8" font-family="monospace" font-size="14.00">EX_Jump 196</text>
</g>
<!-- ExecuteUbergraph_HoopsScore_Widget__141&#45;&gt;ExecuteUbergraph_HoopsScore_Widget__186 -->
<g id="edge5" class="edge">
<title>ExecuteUbergraph_HoopsScore_Widget__141&#45;&gt;ExecuteUbergraph_HoopsScore_Widget__186</title>
<path fill="none" stroke="black" d="M2164.38,-148.65C2177.24,-138.36 2190.64,-127.62 2202.1,-118.45"/>
<polygon fill="black" stroke="black" points="2204.02,-121.39 2209.64,-112.41 2199.65,-115.93 2204.02,-121.39"/>
</g>
<!-- ExecuteUbergraph_HoopsScore_Widget__186&#45;&gt;ExecuteUbergraph_HoopsScore_Widget__196 -->
<g id="edge6" class="edge">
<title>ExecuteUbergraph_HoopsScore_Widget__186&#45;&gt;ExecuteUbergraph_HoopsScore_Widget__196</title>
<path fill="none" stroke="black" d="M2241.51,-75.8C2246.15,-67.65 2251.86,-57.63 2257.13,-48.36"/>
<polygon fill="black" stroke="black" points="2260.17,-50.1 2262.08,-39.68 2254.09,-46.64 2260.17,-50.1"/>
</g>
<!-- ExecuteUbergraph_HoopsScore_Widget__191 -->
<g id="node9" class="node">
<title>ExecuteUbergraph_HoopsScore_Widget__191</title>
<polygon fill="#eeeeee" stroke="black" points="2501.5,-434.5 2501.5,-470.5 2600.5,-470.5 2600.5,-434.5 2501.5,-434.5"/>
<text text-anchor="start" x="2509.5" y="-448.8" font-family="monospace" font-size="14.00">EX_Jump 10</text>
</g>
<!-- ExecuteUbergraph_HoopsScore_Widget__191&#45;&gt;ExecuteUbergraph_HoopsScore_Widget__10 -->
<g id="edge7" class="edge">
<title>ExecuteUbergraph_HoopsScore_Widget__191&#45;&gt;ExecuteUbergraph_HoopsScore_Widget__10</title>
<path fill="none" stroke="black" d="M2550.57,-434.59C2550.38,-427.14 2550.14,-417.81 2549.89,-407.86"/>
<polygon fill="black" stroke="black" points="2553.39,-407.85 2549.64,-397.94 2546.39,-408.02 2553.39,-407.85"/>
</g>
<!-- ExecuteUbergraph_HoopsScore_Widget__198 -->
<g id="node11" class="node">
<title>ExecuteUbergraph_HoopsScore_Widget__198</title>
<polygon fill="#eeeeee" stroke="black" points="2401,-75.5 2401,-111.5 2533,-111.5 2533,-75.5 2401,-75.5"/>
<text text-anchor="start" x="2409" y="-89.8" font-family="monospace" font-size="14.00">EX_EndOfScript</text>
</g>
<!-- Construct -->
<g id="node12" class="node">
<title>Construct</title>
<polygon fill="#ff8888" stroke="black" points="2116.5,-637 2116.5,-673 2281.5,-673 2281.5,-637 2116.5,-637"/>
<text text-anchor="start" x="2124.5" y="-651.3" font-family="monospace" font-size="14.00">Function Construct</text>
</g>
<!-- Construct__0 -->
<g id="node13" class="node">
<title>Construct__0</title>
<polygon fill="#eeeeee" stroke="black" points="1844,-508.5 1844,-546.5 2554,-546.5 2554,-508.5 1844,-508.5"/>
<text text-anchor="start" x="1852" y="-531.3" font-family="monospace" font-size="14.00">EX_LocalFinalFunction export HoopsScore_Widget_C&#45;&gt;ExecuteUbergraph_HoopsScore_Widget</text>
<text text-anchor="start" x="1852" y="-516.3" font-family="monospace" font-size="14.00">  EX_IntConst 191</text>
</g>
<!-- Construct&#45;&gt;Construct__0 -->
<g id="edge8" class="edge">
<title>Construct&#45;&gt;Construct__0</title>
<path fill="none" stroke="black" d="M2199,-637.07C2199,-616.72 2199,-582.22 2199,-557.57"/>
<polygon fill="black" stroke="black" points="2202.5,-557.88 2199,-547.88 2195.5,-557.88 2202.5,-557.88"/>
</g>
<!-- Construct__0&#45;&gt;ExecuteUbergraph_HoopsScore_Widget__191 -->
<g id="edge9" class="edge">
<title>Construct__0:e&#45;&gt;ExecuteUbergraph_HoopsScore_Widget__191</title>
<path fill="none" stroke="red" d="M2555,-527.5C2574.3,-527.5 2569.61,-502.08 2562.41,-481.04"/>
<polygon fill="none" stroke="red" points="2565.71,-479.86 2558.94,-471.71 2559.15,-482.3 2565.71,-479.86"/>
</g>
<!-- Construct__15 -->
<g id="node14" class="node">
<title>Construct__15</title>
<polygon fill="#eeeeee" stroke="black" points="2141,-433.5 2141,-471.5 2257,-471.5 2257,-433.5 2141,-433.5"/>
<text text-anchor="start" x="2149" y="-456.3" font-family="monospace" font-size="14.00">EX_Return</text>
<text text-anchor="start" x="2149" y="-441.3" font-family="monospace" font-size="14.00">  EX_Nothing</text>
</g>
<!-- Construct__0&#45;&gt;Construct__15 -->
<g id="edge10" class="edge">
<title>Construct__0&#45;&gt;Construct__15</title>
<path fill="none" stroke="black" d="M2199,-508.83C2199,-501 2199,-491.57 2199,-482.74"/>
<polygon fill="black" stroke="black" points="2202.5,-482.78 2199,-472.78 2195.5,-482.78 2202.5,-482.78"/>
</g>
<!-- Construct__17 -->
<g id="node15" class="node">
<title>Construct__17</title>
<polygon fill="#eeeeee" stroke="black" points="2349,-1.5 2349,-37.5 2481,-37.5 2481,-1.5 2349,-1.5"/>
<text text-anchor="start" x="2357" y="-15.8" font-family="monospace" font-size="14.00">EX_EndOfScript</text>
</g>
<!-- SetScore -->
<g id="node16" class="node">
<title>SetScore</title>
<polygon fill="#ff8888" stroke="black" points="1356,-628.5 1356,-681.5 1826,-681.5 1826,-628.5 1356,-628.5"/>
<text text-anchor="start" x="1364" y="-666.3" font-family="monospace" font-size="14.00">Function SetScore</text>
<text text-anchor="start" x="1364" y="-651.3" font-family="monospace" font-size="14.00">  IntProperty Score</text>
<text text-anchor="start" x="1364" y="-636.3" font-family="monospace" font-size="14.00">    CPF_BlueprintVisible|CPF_BlueprintReadOnly|CPF_Parm</text>
</g>
<!-- SetScore__0 -->
<g id="node17" class="node">
<title>SetScore__0</title>
<polygon fill="#eeeeee" stroke="black" points="1356,-508.5 1356,-546.5 1826,-546.5 1826,-508.5 1356,-508.5"/>
<text text-anchor="start" x="1364" y="-531.3" font-family="monospace" font-size="14.00">EX_LetValueOnPersistentFrame [K2Node_CustomEvent_Score]</text>
<text text-anchor="start" x="1364" y="-516.3" font-family="monospace" font-size="14.00">  EX_LocalVariable [Score]</text>
</g>
<!-- SetScore&#45;&gt;SetScore__0 -->
<g id="edge11" class="edge">
<title>SetScore&#45;&gt;SetScore__0</title>
<path fill="none" stroke="black" d="M1591,-628.6C1591,-608.03 1591,-579.04 1591,-557.54"/>
<polygon fill="black" stroke="black" points="1594.5,-557.69 1591,-547.69 1587.5,-557.69 1594.5,-557.69"/>
</g>
<!-- SetScore__18 -->
<g id="node18" class="node">
<title>SetScore__18</title>
<polygon fill="#eeeeee" stroke="black" points="1260,-433.5 1260,-471.5 1970,-471.5 1970,-433.5 1260,-433.5"/>
<text text-anchor="start" x="1268" y="-456.3" font-family="monospace" font-size="14.00">EX_LocalFinalFunction export HoopsScore_Widget_C&#45;&gt;ExecuteUbergraph_HoopsScore_Widget</text>
<text text-anchor="start" x="1268" y="-441.3" font-family="monospace" font-size="14.00">  EX_IntConst 92</text>
</g>
<!-- SetScore__0&#45;&gt;SetScore__18 -->
<g id="edge12" class="edge">
<title>SetScore__0&#45;&gt;SetScore__18</title>
<path fill="none" stroke="black" d="M1596.81,-508.83C1599.44,-500.82 1602.62,-491.14 1605.59,-482.13"/>
<polygon fill="black" stroke="black" points="1608.89,-483.29 1608.69,-472.7 1602.24,-481.11 1608.89,-483.29"/>
</g>
<!-- SetScore__18&#45;&gt;ExecuteUbergraph_HoopsScore_Widget__92 -->
<g id="edge13" class="edge">
<title>SetScore__18:e&#45;&gt;ExecuteUbergraph_HoopsScore_Widget__92</title>
<path fill="none" stroke="red" d="M1971,-452.5C1993.68,-452.5 2002.5,-431.84 2005.06,-407.74"/>
<polygon fill="none" stroke="red" points="2008.54,-408.21 2005.73,-397.99 2001.56,-407.73 2008.54,-408.21"/>
</g>
<!-- SetScore__33 -->
<g id="node19" class="node">
<title>SetScore__33</title>
<polygon fill="#eeeeee" stroke="black" points="1557,-313.5 1557,-351.5 1673,-351.5 1673,-313.5 1557,-313.5"/>
<text text-anchor="start" x="1565" y="-336.3" font-family="monospace" font-size="14.00">EX_Return</text>
<text text-anchor="start" x="1565" y="-321.3" font-family="monospace" font-size="14.00">  EX_Nothing</text>
</g>
<!-- SetScore__18&#45;&gt;SetScore__33 -->
<g id="edge14" class="edge">
<title>SetScore__18&#45;&gt;SetScore__33</title>
<path fill="none" stroke="black" d="M1615,-433.58C1615,-414.76 1615,-384.86 1615,-362.64"/>
<polygon fill="black" stroke="black" points="1618.5,-362.72 1615,-352.72 1611.5,-362.72 1618.5,-362.72"/>
</g>
<!-- SetScore__35 -->
<g id="node20" class="node">
<title>SetScore__35</title>
<polygon fill="#eeeeee" stroke="black" points="2300,-637 2300,-673 2432,-673 2432,-637 2300,-637"/>
<text text-anchor="start" x="2308" y="-651.3" font-family="monospace" font-size="14.00">EX_EndOfScript</text>
</g>
</g>
</svg>
