<?xml version="1.0" encoding="UTF-8" standalone="no"?>
<!DOCTYPE svg PUBLIC "-//W3C//DTD SVG 1.1//EN"
 "http://www.w3.org/Graphics/SVG/1.1/DTD/svg11.dtd">
<!-- Generated by graphviz version 7.0.1 (0)
 -->
<!-- Pages: 1 -->
<svg width="1624pt" height="452pt"
 viewBox="0.00 0.00 1624.00 452.00" xmlns="http://www.w3.org/2000/svg" xmlns:xlink="http://www.w3.org/1999/xlink">
<g id="graph0" class="graph" transform="scale(1 1) rotate(0) translate(4 448)">
<polygon fill="white" stroke="none" points="-4,4 -4,-448 1620,-448 1620,4 -4,4"/>
<!-- ABP_Pipeline_Connector_C -->
<g id="node1" class="node">
<title>ABP_Pipeline_Connector_C</title>
<polygon fill="#88ff88" stroke="black" points="0,-195.5 0,-443.5 586,-443.5 586,-195.5 0,-195.5"/>
<text text-anchor="start" x="8" y="-428.3" font-family="monospace" font-size="14.00">ClassExport: ABP_Pipeline_Connector_C</text>
<text text-anchor="start" x="8" y="-413.3" font-family="monospace" font-size="14.00">  SuperStruct: import /Script/FSD&#45;&gt;PipelineSegmentEndPostAnimInstance</text>
<text text-anchor="start" x="8" y="-398.3" font-family="monospace" font-size="14.00">  Properties:</text>
<text text-anchor="start" x="8" y="-383.3" font-family="monospace" font-size="14.00">    StructProperty UberGraphFrame</text>
<text text-anchor="start" x="8" y="-368.3" font-family="monospace" font-size="14.00">      CPF_Transient|CPF_DuplicateTransient</text>
<text text-anchor="start" x="8" y="-353.3" font-family="monospace" font-size="14.00">    StructProperty AnimGraphNode_Root</text>
<text text-anchor="start" x="8" y="-338.3" font-family="monospace" font-size="14.00">    StructProperty AnimGraphNode_TransitionResult_2</text>
<text text-anchor="start" x="8" y="-323.3" font-family="monospace" font-size="14.00">    StructProperty AnimGraphNode_TransitionResult_1</text>
<text text-anchor="start" x="8" y="-308.3" font-family="monospace" font-size="14.00">    StructProperty AnimGraphNode_TransitionResult</text>
<text text-anchor="start" x="8" y="-293.3" font-family="monospace" font-size="14.00">    StructProperty AnimGraphNode_SequenceEvaluator_1</text>
<text text-anchor="start" x="8" y="-278.3" font-family="monospace" font-size="14.00">    StructProperty AnimGraphNode_StateResult_2</text>
<text text-anchor="start" x="8" y="-263.3" font-family="monospace" font-size="14.00">    StructProperty AnimGraphNode_SequencePlayer</text>
<text text-anchor="start" x="8" y="-248.3" font-family="monospace" font-size="14.00">    StructProperty AnimGraphNode_StateResult_1</text>
<text text-anchor="start" x="8" y="-233.3" font-family="monospace" font-size="14.00">    StructProperty AnimGraphNode_SequenceEvaluator</text>
<text text-anchor="start" x="8" y="-218.3" font-family="monospace" font-size="14.00">    StructProperty AnimGraphNode_StateResult</text>
<text text-anchor="start" x="8" y="-203.3" font-family="monospace" font-size="14.00">    StructProperty AnimGraphNode_StateMachine</text>
</g>
<!-- ExecuteUbergraph_ABP_Pipeline_Connector -->
<g id="node2" class="node">
<title>ExecuteUbergraph_ABP_Pipeline_Connector</title>
<polygon fill="#ff8888" stroke="black" points="604,-293 604,-346 1074,-346 1074,-293 604,-293"/>
<text text-anchor="start" x="612" y="-330.8" font-family="monospace" font-size="14.00">Function ExecuteUbergraph_ABP_Pipeline_Connector</text>
<text text-anchor="start" x="612" y="-315.8" font-family="monospace" font-size="14.00">  IntProperty EntryPoint</text>
<text text-anchor="start" x="612" y="-300.8" font-family="monospace" font-size="14.00">    CPF_BlueprintVisible|CPF_BlueprintReadOnly|CPF_Parm</text>
</g>
<!-- ExecuteUbergraph_ABP_Pipeline_Connector__0 -->
<g id="node3" class="node">
<title>ExecuteUbergraph_ABP_Pipeline_Connector__0</title>
<polygon fill="#eeeeee" stroke="black" points="703,-98 703,-136 975,-136 975,-98 703,-98"/>
<text text-anchor="start" x="711" y="-120.8" font-family="monospace" font-size="14.00">EX_ComputedJump</text>
<text text-anchor="start" x="711" y="-105.8" font-family="monospace" font-size="14.00">  EX_LocalVariable [EntryPoint]</text>
</g>
<!-- ExecuteUbergraph_ABP_Pipeline_Connector&#45;&gt;ExecuteUbergraph_ABP_Pipeline_Connector__0 -->
<g id="edge1" class="edge">
<title>ExecuteUbergraph_ABP_Pipeline_Connector&#45;&gt;ExecuteUbergraph_ABP_Pipeline_Connector__0</title>
<path fill="none" stroke="black" d="M839,-293.11C839,-255.85 839,-186.54 839,-147.22"/>
<polygon fill="black" stroke="black" points="842.5,-147.33 839,-137.33 835.5,-147.33 842.5,-147.33"/>
</g>
<!-- ExecuteUbergraph_ABP_Pipeline_Connector__10 -->
<g id="node4" class="node">
<title>ExecuteUbergraph_ABP_Pipeline_Connector__10</title>
<polygon fill="#eeeeee" stroke="black" points="1158,-0.5 1158,-38.5 1274,-38.5 1274,-0.5 1158,-0.5"/>
<text text-anchor="start" x="1166" y="-23.3" font-family="monospace" font-size="14.00">EX_Return</text>
<text text-anchor="start" x="1166" y="-8.3" font-family="monospace" font-size="14.00">  EX_Nothing</text>
</g>
<!-- ExecuteUbergraph_ABP_Pipeline_Connector__12 -->
<g id="node5" class="node">
<title>ExecuteUbergraph_ABP_Pipeline_Connector__12</title>
<polygon fill="#eeeeee" stroke="black" points="993,-99 993,-135 1125,-135 1125,-99 993,-99"/>
<text text-anchor="start" x="1001" y="-113.3" font-family="monospace" font-size="14.00">EX_EndOfScript</text>
</g>
<!-- AnimGraph -->
<g id="node6" class="node">
<title>AnimGraph</title>
<polygon fill="#ff8888" stroke="black" points="1234.5,-293 1234.5,-346 1465.5,-346 1465.5,-293 1234.5,-293"/>
<text text-anchor="start" x="1242.5" y="-330.8" font-family="monospace" font-size="14.00">Function AnimGraph</text>
<text text-anchor="start" x="1242.5" y="-315.8" font-family="monospace" font-size="14.00">  StructProperty AnimGraph</text>
<text text-anchor="start" x="1242.5" y="-300.8" font-family="monospace" font-size="14.00">    CPF_Parm|CPF_OutParm</text>
</g>
<!-- AnimGraph__0 -->
<g id="node7" class="node">
<title>AnimGraph__0</title>
<polygon fill="#eeeeee" stroke="black" points="1143.5,-75.5 1143.5,-158.5 1556.5,-158.5 1556.5,-75.5 1143.5,-75.5"/>
<text text-anchor="start" x="1151.5" y="-143.3" font-family="monospace" font-size="14.00">EX_Let</text>
<text text-anchor="start" x="1151.5" y="-128.3" font-family="monospace" font-size="14.00">  EX_LocalOutVariable</text>
<text text-anchor="start" x="1151.5" y="-113.3" font-family="monospace" font-size="14.00">    [AnimGraph]</text>
<text text-anchor="start" x="1151.5" y="-98.3" font-family="monospace" font-size="14.00">  EX_StructConst import /Script/Engine&#45;&gt;PoseLink</text>
<text text-anchor="start" x="1151.5" y="-83.3" font-family="monospace" font-size="14.00">    EX_IntConst &#45;1</text>
</g>
<!-- AnimGraph&#45;&gt;AnimGraph__0 -->
<g id="edge2" class="edge">
<title>AnimGraph&#45;&gt;AnimGraph__0</title>
<path fill="none" stroke="black" d="M1350,-293.11C1350,-262.22 1350,-209.32 1350,-169.73"/>
<polygon fill="black" stroke="black" points="1353.5,-169.94 1350,-159.94 1346.5,-169.94 1353.5,-169.94"/>
</g>
<!-- AnimGraph__37 -->
<g id="node8" class="node">
<title>AnimGraph__37</title>
<polygon fill="#eeeeee" stroke="black" points="1292,-0.5 1292,-38.5 1408,-38.5 1408,-0.5 1292,-0.5"/>
<text text-anchor="start" x="1300" y="-23.3" font-family="monospace" font-size="14.00">EX_Return</text>
<text text-anchor="start" x="1300" y="-8.3" font-family="monospace" font-size="14.00">  EX_Nothing</text>
</g>
<!-- AnimGraph__0&#45;&gt;AnimGraph__37 -->
<g id="edge3" class="edge">
<title>AnimGraph__0&#45;&gt;AnimGraph__37</title>
<path fill="none" stroke="black" d="M1350,-75.78C1350,-67.01 1350,-57.89 1350,-49.65"/>
<polygon fill="black" stroke="black" points="1353.5,-49.86 1350,-39.86 1346.5,-49.86 1353.5,-49.86"/>
</g>
<!-- AnimGraph__39 -->
<g id="node9" class="node">
<title>AnimGraph__39</title>
<polygon fill="#eeeeee" stroke="black" points="1484,-301.5 1484,-337.5 1616,-337.5 1616,-301.5 1484,-301.5"/>
<text text-anchor="start" x="1492" y="-315.8" font-family="monospace" font-size="14.00">EX_EndOfScript</text>
</g>
</g>
</svg>
