<?xml version="1.0" encoding="UTF-8" standalone="no"?>
<!DOCTYPE svg PUBLIC "-//W3C//DTD SVG 1.1//EN"
 "http://www.w3.org/Graphics/SVG/1.1/DTD/svg11.dtd">
<!-- Generated by graphviz version 7.0.1 (0)
 -->
<!-- Pages: 1 -->
<svg width="4255pt" height="1599pt"
 viewBox="0.00 0.00 4255.00 1599.00" xmlns="http://www.w3.org/2000/svg" xmlns:xlink="http://www.w3.org/1999/xlink">
<g id="graph0" class="graph" transform="scale(1 1) rotate(0) translate(4 1595)">
<polygon fill="white" stroke="none" points="-4,4 -4,-1595 4251,-1595 4251,4 -4,4"/>
<!-- Biome_ToolTip_C -->
<g id="node1" class="node">
<title>Biome_ToolTip_C</title>
<polygon fill="#88ff88" stroke="black" points="0,-1237.5 0,-1590.5 850,-1590.5 850,-1237.5 0,-1237.5"/>
<text text-anchor="start" x="8" y="-1575.3" font-family="monospace" font-size="14.00">ClassExport: Biome_ToolTip_C</text>
<text text-anchor="start" x="8" y="-1560.3" font-family="monospace" font-size="14.00">  SuperStruct: import /Script/UMG&#45;&gt;UserWidget</text>
<text text-anchor="start" x="8" y="-1545.3" font-family="monospace" font-size="14.00">  Properties:</text>
<text text-anchor="start" x="8" y="-1530.3" font-family="monospace" font-size="14.00">    StructProperty UberGraphFrame</text>
<text text-anchor="start" x="8" y="-1515.3" font-family="monospace" font-size="14.00">      CPF_Transient|CPF_DuplicateTransient</text>
<text text-anchor="start" x="8" y="-1500.3" font-family="monospace" font-size="14.00">    ObjectProperty Intro</text>
<text text-anchor="start" x="8" y="-1485.3" font-family="monospace" font-size="14.00">      CPF_BlueprintVisible|CPF_BlueprintReadOnly|CPF_Transient|CPF_RepSkip</text>
<text text-anchor="start" x="8" y="-1470.3" font-family="monospace" font-size="14.00">    ObjectProperty Basic_Menu_MinimalWindow</text>
<text text-anchor="start" x="8" y="-1455.3" font-family="monospace" font-size="14.00">      CPF_BlueprintVisible|CPF_ExportObject|CPF_InstancedReference|CPF_RepSkip|CPF_PersistentInstance</text>
<text text-anchor="start" x="8" y="-1440.3" font-family="monospace" font-size="14.00">    ObjectProperty Basic_ResourceIconA</text>
<text text-anchor="start" x="8" y="-1425.3" font-family="monospace" font-size="14.00">      CPF_BlueprintVisible|CPF_ExportObject|CPF_InstancedReference|CPF_RepSkip|CPF_PersistentInstance</text>
<text text-anchor="start" x="8" y="-1410.3" font-family="monospace" font-size="14.00">    ObjectProperty Basic_ResourceIconB</text>
<text text-anchor="start" x="8" y="-1395.3" font-family="monospace" font-size="14.00">      CPF_BlueprintVisible|CPF_ExportObject|CPF_InstancedReference|CPF_RepSkip|CPF_PersistentInstance</text>
<text text-anchor="start" x="8" y="-1380.3" font-family="monospace" font-size="14.00">    ObjectProperty ResourceAName</text>
<text text-anchor="start" x="8" y="-1365.3" font-family="monospace" font-size="14.00">      CPF_BlueprintVisible|CPF_ExportObject|CPF_InstancedReference|CPF_RepSkip|CPF_PersistentInstance</text>
<text text-anchor="start" x="8" y="-1350.3" font-family="monospace" font-size="14.00">    ObjectProperty ResourceBName</text>
<text text-anchor="start" x="8" y="-1335.3" font-family="monospace" font-size="14.00">      CPF_BlueprintVisible|CPF_ExportObject|CPF_InstancedReference|CPF_RepSkip|CPF_PersistentInstance</text>
<text text-anchor="start" x="8" y="-1320.3" font-family="monospace" font-size="14.00">    StructProperty Position</text>
<text text-anchor="start" x="8" y="-1305.3" font-family="monospace" font-size="14.00">      CPF_Edit|CPF_BlueprintVisible|CPF_DisableEditOnInstance</text>
<text text-anchor="start" x="8" y="-1290.3" font-family="monospace" font-size="14.00">    StructProperty Alignment</text>
<text text-anchor="start" x="8" y="-1275.3" font-family="monospace" font-size="14.00">      CPF_Edit|CPF_BlueprintVisible|CPF_DisableEditOnInstance</text>
<text text-anchor="start" x="8" y="-1260.3" font-family="monospace" font-size="14.00">    ObjectProperty Owner</text>
<text text-anchor="start" x="8" y="-1245.3" font-family="monospace" font-size="14.00">      CPF_Edit|CPF_BlueprintVisible|CPF_DisableEditOnInstance|CPF_InstancedReference</text>
</g>
<!-- ExecuteUbergraph_Biome_ToolTip -->
<g id="node2" class="node">
<title>ExecuteUbergraph_Biome_ToolTip</title>
<polygon fill="#ff8888" stroke="black" points="868,-1357.5 868,-1470.5 1338,-1470.5 1338,-1357.5 868,-1357.5"/>
<text text-anchor="start" x="876" y="-1455.3" font-family="monospace" font-size="14.00">Function ExecuteUbergraph_Biome_ToolTip</text>
<text text-anchor="start" x="876" y="-1440.3" font-family="monospace" font-size="14.00">  IntProperty EntryPoint</text>
<text text-anchor="start" x="876" y="-1425.3" font-family="monospace" font-size="14.00">    CPF_BlueprintVisible|CPF_BlueprintReadOnly|CPF_Parm</text>
<text text-anchor="start" x="876" y="-1410.3" font-family="monospace" font-size="14.00">  ObjectProperty K2Node_CustomEvent_Owner</text>
<text text-anchor="start" x="876" y="-1395.3" font-family="monospace" font-size="14.00">    CPF_InstancedReference</text>
<text text-anchor="start" x="876" y="-1380.3" font-family="monospace" font-size="14.00">  BoolProperty CallFunc_IsValid_ReturnValue</text>
<text text-anchor="start" x="876" y="-1365.3" font-family="monospace" font-size="14.00">  BoolProperty K2Node_Event_IsDesignTime</text>
</g>
<!-- ExecuteUbergraph_Biome_ToolTip__0 -->
<g id="node3" class="node">
<title>ExecuteUbergraph_Biome_ToolTip__0</title>
<polygon fill="#eeeeee" stroke="black" points="967,-1103 967,-1141 1239,-1141 1239,-1103 967,-1103"/>
<text text-anchor="start" x="975" y="-1125.8" font-family="monospace" font-size="14.00">EX_ComputedJump</text>
<text text-anchor="start" x="975" y="-1110.8" font-family="monospace" font-size="14.00">  EX_LocalVariable [EntryPoint]</text>
</g>
<!-- ExecuteUbergraph_Biome_ToolTip&#45;&gt;ExecuteUbergraph_Biome_ToolTip__0 -->
<g id="edge1" class="edge">
<title>ExecuteUbergraph_Biome_ToolTip&#45;&gt;ExecuteUbergraph_Biome_ToolTip__0</title>
<path fill="none" stroke="black" d="M1103,-1357.77C1103,-1296.54 1103,-1200.11 1103,-1152.13"/>
<polygon fill="black" stroke="black" points="1106.5,-1152.27 1103,-1142.27 1099.5,-1152.27 1106.5,-1152.27"/>
</g>
<!-- ExecuteUbergraph_Biome_ToolTip__10 -->
<g id="node4" class="node">
<title>ExecuteUbergraph_Biome_ToolTip__10</title>
<polygon fill="#eeeeee" stroke="black" points="2342,-759 2342,-812 2730,-812 2730,-759 2342,-759"/>
<text text-anchor="start" x="2350" y="-796.8" font-family="monospace" font-size="14.00">EX_LetObj</text>
<text text-anchor="start" x="2350" y="-781.8" font-family="monospace" font-size="14.00">  EX_InstanceVariable [Owner]</text>
<text text-anchor="start" x="2350" y="-766.8" font-family="monospace" font-size="14.00">  EX_LocalVariable [K2Node_CustomEvent_Owner]</text>
</g>
<!-- ExecuteUbergraph_Biome_ToolTip__29 -->
<g id="node5" class="node">
<title>ExecuteUbergraph_Biome_ToolTip__29</title>
<polygon fill="#eeeeee" stroke="black" points="2190.5,-549.5 2190.5,-617.5 2743.5,-617.5 2743.5,-549.5 2190.5,-549.5"/>
<text text-anchor="start" x="2198.5" y="-602.3" font-family="monospace" font-size="14.00">EX_LetBool</text>
<text text-anchor="start" x="2198.5" y="-587.3" font-family="monospace" font-size="14.00">  EX_LocalVariable [CallFunc_IsValid_ReturnValue]</text>
<text text-anchor="start" x="2198.5" y="-572.3" font-family="monospace" font-size="14.00">  EX_CallMath import /Script/Engine&#45;&gt;KismetSystemLibrary&#45;&gt;IsValid</text>
<text text-anchor="start" x="2198.5" y="-557.3" font-family="monospace" font-size="14.00">    EX_InstanceVariable [Owner]</text>
</g>
<!-- ExecuteUbergraph_Biome_ToolTip__10&#45;&gt;ExecuteUbergraph_Biome_ToolTip__29 -->
<g id="edge2" class="edge">
<title>ExecuteUbergraph_Biome_ToolTip__10&#45;&gt;ExecuteUbergraph_Biome_ToolTip__29</title>
<path fill="none" stroke="black" d="M2527.26,-759.17C2515.89,-726.21 2495.85,-668.12 2482.02,-628.04"/>
<polygon fill="black" stroke="black" points="2485.36,-626.99 2478.79,-618.68 2478.74,-629.27 2485.36,-626.99"/>
</g>
<!-- ExecuteUbergraph_Biome_ToolTip__58 -->
<g id="node6" class="node">
<title>ExecuteUbergraph_Biome_ToolTip__58</title>
<polygon fill="#eeeeee" stroke="black" points="2221.5,-385 2221.5,-423 2642.5,-423 2642.5,-385 2221.5,-385"/>
<text text-anchor="start" x="2229.5" y="-407.8" font-family="monospace" font-size="14.00">EX_JumpIfNot 142</text>
<text text-anchor="start" x="2229.5" y="-392.8" font-family="monospace" font-size="14.00">  EX_LocalVariable [CallFunc_IsValid_ReturnValue]</text>
</g>
<!-- ExecuteUbergraph_Biome_ToolTip__29&#45;&gt;ExecuteUbergraph_Biome_ToolTip__58 -->
<g id="edge3" class="edge">
<title>ExecuteUbergraph_Biome_ToolTip__29&#45;&gt;ExecuteUbergraph_Biome_ToolTip__58</title>
<path fill="none" stroke="black" d="M2460.5,-549.53C2453.94,-516.28 2443.92,-465.47 2437.68,-433.79"/>
<polygon fill="black" stroke="black" points="2441.14,-433.29 2435.78,-424.15 2434.28,-434.64 2441.14,-433.29"/>
</g>
<!-- ExecuteUbergraph_Biome_ToolTip__72 -->
<g id="node7" class="node">
<title>ExecuteUbergraph_Biome_ToolTip__72</title>
<polygon fill="#eeeeee" stroke="black" points="2127.5,-205.5 2127.5,-288.5 2614.5,-288.5 2614.5,-205.5 2127.5,-205.5"/>
<text text-anchor="start" x="2135.5" y="-273.3" font-family="monospace" font-size="14.00">EX_Context</text>
<text text-anchor="start" x="2135.5" y="-258.3" font-family="monospace" font-size="14.00">  EX_InstanceVariable [Owner]</text>
<text text-anchor="start" x="2135.5" y="-243.3" font-family="monospace" font-size="14.00">  EX_FinalFunction import /Script/UMG&#45;&gt;Widget&#45;&gt;SetToolTip</text>
<text text-anchor="start" x="2135.5" y="-228.3" font-family="monospace" font-size="14.00">    EX_Self</text>
<text text-anchor="start" x="2135.5" y="-213.3" font-family="monospace" font-size="14.00">  RValue = []</text>
</g>
<!-- ExecuteUbergraph_Biome_ToolTip__58&#45;&gt;ExecuteUbergraph_Biome_ToolTip__72 -->
<g id="edge5" class="edge">
<title>ExecuteUbergraph_Biome_ToolTip__58&#45;&gt;ExecuteUbergraph_Biome_ToolTip__72</title>
<path fill="none" stroke="black" d="M2425,-385.22C2416.78,-364.33 2402.78,-328.74 2391.09,-299.05"/>
<polygon fill="black" stroke="black" points="2394.38,-297.84 2387.46,-289.82 2387.86,-300.41 2394.38,-297.84"/>
<text text-anchor="middle" x="2417.5" y="-321.8" font-family="monospace" font-size="14.00">IF</text>
</g>
<!-- ExecuteUbergraph_Biome_ToolTip__142 -->
<g id="node10" class="node">
<title>ExecuteUbergraph_Biome_ToolTip__142</title>
<polygon fill="#eeeeee" stroke="black" points="2313,-0.5 2313,-38.5 2429,-38.5 2429,-0.5 2313,-0.5"/>
<text text-anchor="start" x="2321" y="-23.3" font-family="monospace" font-size="14.00">EX_Return</text>
<text text-anchor="start" x="2321" y="-8.3" font-family="monospace" font-size="14.00">  EX_Nothing</text>
</g>
<!-- ExecuteUbergraph_Biome_ToolTip__58&#45;&gt;ExecuteUbergraph_Biome_ToolTip__142 -->
<g id="edge4" class="edge">
<title>ExecuteUbergraph_Biome_ToolTip__58:e&#45;&gt;ExecuteUbergraph_Biome_ToolTip__142</title>
<path fill="none" stroke="red" d="M2644,-404C2654.87,-404 2729.27,-388.52 2623,-205 2577.5,-126.43 2483.71,-71.71 2424.27,-43.25"/>
<polygon fill="none" stroke="red" points="2425.86,-40.13 2415.32,-39.05 2422.89,-46.47 2425.86,-40.13"/>
<text text-anchor="middle" x="2636" y="-156.3" font-family="monospace" font-size="14.00">IF NOT</text>
</g>
<!-- ExecuteUbergraph_Biome_ToolTip__105 -->
<g id="node8" class="node">
<title>ExecuteUbergraph_Biome_ToolTip__105</title>
<polygon fill="#eeeeee" stroke="black" points="2317.5,-77.5 2317.5,-113.5 2424.5,-113.5 2424.5,-77.5 2317.5,-77.5"/>
<text text-anchor="start" x="2325.5" y="-91.8" font-family="monospace" font-size="14.00">EX_Jump 142</text>
</g>
<!-- ExecuteUbergraph_Biome_ToolTip__72&#45;&gt;ExecuteUbergraph_Biome_ToolTip__105 -->
<g id="edge6" class="edge">
<title>ExecuteUbergraph_Biome_ToolTip__72&#45;&gt;ExecuteUbergraph_Biome_ToolTip__105</title>
<path fill="none" stroke="black" d="M2371,-205.54C2371,-179.89 2371,-147.35 2371,-124.52"/>
<polygon fill="black" stroke="black" points="2374.5,-124.77 2371,-114.77 2367.5,-124.77 2374.5,-124.77"/>
</g>
<!-- ExecuteUbergraph_Biome_ToolTip__105&#45;&gt;ExecuteUbergraph_Biome_ToolTip__142 -->
<g id="edge7" class="edge">
<title>ExecuteUbergraph_Biome_ToolTip__105&#45;&gt;ExecuteUbergraph_Biome_ToolTip__142</title>
<path fill="none" stroke="black" d="M2371,-77.71C2371,-69.43 2371,-59.21 2371,-49.71"/>
<polygon fill="black" stroke="black" points="2374.5,-49.77 2371,-39.77 2367.5,-49.77 2374.5,-49.77"/>
</g>
<!-- ExecuteUbergraph_Biome_ToolTip__110 -->
<g id="node9" class="node">
<title>ExecuteUbergraph_Biome_ToolTip__110</title>
<polygon fill="#eeeeee" stroke="black" points="1953,-133.5 1953,-186.5 2349,-186.5 2349,-133.5 1953,-133.5"/>
<text text-anchor="start" x="1961" y="-171.3" font-family="monospace" font-size="14.00">EX_LocalVirtualFunction SetPostionAndAlignment</text>
<text text-anchor="start" x="1961" y="-156.3" font-family="monospace" font-size="14.00">  EX_InstanceVariable [Position]</text>
<text text-anchor="start" x="1961" y="-141.3" font-family="monospace" font-size="14.00">  EX_InstanceVariable [Alignment]</text>
</g>
<!-- ExecuteUbergraph_Biome_ToolTip__110&#45;&gt;ExecuteUbergraph_Biome_ToolTip__142 -->
<g id="edge8" class="edge">
<title>ExecuteUbergraph_Biome_ToolTip__110&#45;&gt;ExecuteUbergraph_Biome_ToolTip__142</title>
<path fill="none" stroke="black" d="M2191.35,-133.6C2231.72,-108.18 2293.35,-69.39 2332.9,-44.49"/>
<polygon fill="black" stroke="black" points="2334.57,-47.57 2341.17,-39.28 2330.85,-41.64 2334.57,-47.57"/>
</g>
<!-- ExecuteUbergraph_Biome_ToolTip__144 -->
<g id="node11" class="node">
<title>ExecuteUbergraph_Biome_ToolTip__144</title>
<polygon fill="#eeeeee" stroke="black" points="2526,-1182.5 2526,-1218.5 2658,-1218.5 2658,-1182.5 2526,-1182.5"/>
<text text-anchor="start" x="2534" y="-1196.8" font-family="monospace" font-size="14.00">EX_EndOfScript</text>
</g>
<!-- Set Tool Tip Owner -->
<g id="node12" class="node">
<title>Set Tool Tip Owner</title>
<polygon fill="#ff8888" stroke="black" points="1923,-1387.5 1923,-1440.5 2583,-1440.5 2583,-1387.5 1923,-1387.5"/>
<text text-anchor="start" x="1931" y="-1425.3" font-family="monospace" font-size="14.00">Function Set Tool Tip Owner</text>
<text text-anchor="start" x="1931" y="-1410.3" font-family="monospace" font-size="14.00">  ObjectProperty Owner</text>
<text text-anchor="start" x="1931" y="-1395.3" font-family="monospace" font-size="14.00">    CPF_BlueprintVisible|CPF_BlueprintReadOnly|CPF_Parm|CPF_InstancedReference</text>
</g>
<!-- Set Tool Tip Owner__0 -->
<g id="node13" class="node">
<title>Set Tool Tip Owner__0</title>
<polygon fill="#eeeeee" stroke="black" points="2018,-1103 2018,-1141 2488,-1141 2488,-1103 2018,-1103"/>
<text text-anchor="start" x="2026" y="-1125.8" font-family="monospace" font-size="14.00">EX_LetValueOnPersistentFrame [K2Node_CustomEvent_Owner]</text>
<text text-anchor="start" x="2026" y="-1110.8" font-family="monospace" font-size="14.00">  EX_LocalVariable [Owner]</text>
</g>
<!-- Set Tool Tip Owner&#45;&gt;Set Tool Tip Owner__0 -->
<g id="edge9" class="edge">
<title>Set Tool Tip Owner&#45;&gt;Set Tool Tip Owner__0</title>
<path fill="none" stroke="black" d="M2253,-1387.52C2253,-1333.82 2253,-1209.32 2253,-1152.38"/>
<polygon fill="black" stroke="black" points="2256.5,-1152.5 2253,-1142.5 2249.5,-1152.5 2256.5,-1152.5"/>
</g>
<!-- Set Tool Tip Owner__18 -->
<g id="node14" class="node">
<title>Set Tool Tip Owner__18</title>
<polygon fill="#eeeeee" stroke="black" points="1931,-946 1931,-984 2575,-984 2575,-946 1931,-946"/>
<text text-anchor="start" x="1939" y="-968.8" font-family="monospace" font-size="14.00">EX_LocalFinalFunction export Biome_ToolTip_C&#45;&gt;ExecuteUbergraph_Biome_ToolTip</text>
<text text-anchor="start" x="1939" y="-953.8" font-family="monospace" font-size="14.00">  EX_IntConst 10</text>
</g>
<!-- Set Tool Tip Owner__0&#45;&gt;Set Tool Tip Owner__18 -->
<g id="edge10" class="edge">
<title>Set Tool Tip Owner__0&#45;&gt;Set Tool Tip Owner__18</title>
<path fill="none" stroke="black" d="M2253,-1103.22C2253,-1076.71 2253,-1026.54 2253,-994.76"/>
<polygon fill="black" stroke="black" points="2256.5,-995.09 2253,-985.09 2249.5,-995.09 2256.5,-995.09"/>
</g>
<!-- Set Tool Tip Owner__18&#45;&gt;ExecuteUbergraph_Biome_ToolTip__10 -->
<g id="edge11" class="edge">
<title>Set Tool Tip Owner__18:e&#45;&gt;ExecuteUbergraph_Biome_ToolTip__10</title>
<path fill="none" stroke="red" d="M2576,-965C2634.21,-965 2588.57,-873.51 2557.94,-821.53"/>
<polygon fill="none" stroke="red" points="2560.97,-819.77 2552.83,-812.99 2554.96,-823.37 2560.97,-819.77"/>
</g>
<!-- Set Tool Tip Owner__33 -->
<g id="node15" class="node">
<title>Set Tool Tip Owner__33</title>
<polygon fill="#eeeeee" stroke="black" points="2195,-766.5 2195,-804.5 2311,-804.5 2311,-766.5 2195,-766.5"/>
<text text-anchor="start" x="2203" y="-789.3" font-family="monospace" font-size="14.00">EX_Return</text>
<text text-anchor="start" x="2203" y="-774.3" font-family="monospace" font-size="14.00">  EX_Nothing</text>
</g>
<!-- Set Tool Tip Owner__18&#45;&gt;Set Tool Tip Owner__33 -->
<g id="edge12" class="edge">
<title>Set Tool Tip Owner__18&#45;&gt;Set Tool Tip Owner__33</title>
<path fill="none" stroke="black" d="M2253,-946C2253,-915.36 2253,-852.78 2253,-815.77"/>
<polygon fill="black" stroke="black" points="2256.5,-815.79 2253,-805.79 2249.5,-815.79 2256.5,-815.79"/>
</g>
<!-- Set Tool Tip Owner__35 -->
<g id="node16" class="node">
<title>Set Tool Tip Owner__35</title>
<polygon fill="#eeeeee" stroke="black" points="2526,-1025.5 2526,-1061.5 2658,-1061.5 2658,-1025.5 2526,-1025.5"/>
<text text-anchor="start" x="2534" y="-1039.8" font-family="monospace" font-size="14.00">EX_EndOfScript</text>
</g>
<!-- PreConstruct -->
<g id="node17" class="node">
<title>PreConstruct</title>
<polygon fill="#ff8888" stroke="black" points="1356,-1387.5 1356,-1440.5 1826,-1440.5 1826,-1387.5 1356,-1387.5"/>
<text text-anchor="start" x="1364" y="-1425.3" font-family="monospace" font-size="14.00">Function PreConstruct</text>
<text text-anchor="start" x="1364" y="-1410.3" font-family="monospace" font-size="14.00">  BoolProperty IsDesignTime</text>
<text text-anchor="start" x="1364" y="-1395.3" font-family="monospace" font-size="14.00">    CPF_BlueprintVisible|CPF_BlueprintReadOnly|CPF_Parm</text>
</g>
<!-- PreConstruct__0 -->
<g id="node18" class="node">
<title>PreConstruct__0</title>
<polygon fill="#eeeeee" stroke="black" points="1351.5,-1103 1351.5,-1141 1830.5,-1141 1830.5,-1103 1351.5,-1103"/>
<text text-anchor="start" x="1359.5" y="-1125.8" font-family="monospace" font-size="14.00">EX_LetValueOnPersistentFrame [K2Node_Event_IsDesignTime]</text>
<text text-anchor="start" x="1359.5" y="-1110.8" font-family="monospace" font-size="14.00">  EX_LocalVariable [IsDesignTime]</text>
</g>
<!-- PreConstruct&#45;&gt;PreConstruct__0 -->
<g id="edge13" class="edge">
<title>PreConstruct&#45;&gt;PreConstruct__0</title>
<path fill="none" stroke="black" d="M1591,-1387.52C1591,-1333.82 1591,-1209.32 1591,-1152.38"/>
<polygon fill="black" stroke="black" points="1594.5,-1152.5 1591,-1142.5 1587.5,-1152.5 1594.5,-1152.5"/>
</g>
<!-- PreConstruct__18 -->
<g id="node19" class="node">
<title>PreConstruct__18</title>
<polygon fill="#eeeeee" stroke="black" points="1269,-946 1269,-984 1913,-984 1913,-946 1269,-946"/>
<text text-anchor="start" x="1277" y="-968.8" font-family="monospace" font-size="14.00">EX_LocalFinalFunction export Biome_ToolTip_C&#45;&gt;ExecuteUbergraph_Biome_ToolTip</text>
<text text-anchor="start" x="1277" y="-953.8" font-family="monospace" font-size="14.00">  EX_IntConst 110</text>
</g>
<!-- PreConstruct__0&#45;&gt;PreConstruct__18 -->
<g id="edge14" class="edge">
<title>PreConstruct__0&#45;&gt;PreConstruct__18</title>
<path fill="none" stroke="black" d="M1591,-1103.22C1591,-1076.71 1591,-1026.54 1591,-994.76"/>
<polygon fill="black" stroke="black" points="1594.5,-995.09 1591,-985.09 1587.5,-995.09 1594.5,-995.09"/>
</g>
<!-- PreConstruct__18&#45;&gt;ExecuteUbergraph_Biome_ToolTip__110 -->
<g id="edge15" class="edge">
<title>PreConstruct__18:e&#45;&gt;ExecuteUbergraph_Biome_ToolTip__110</title>
<path fill="none" stroke="red" d="M1914,-965C1923.5,-965 1917.86,-931.55 1922,-923 1956.92,-850.81 2040,-866.69 2040,-786.5 2040,-786.5 2040,-786.5 2040,-324.5 2040,-272.22 2079.33,-224.25 2111.17,-193.98"/>
<polygon fill="none" stroke="red" points="2113.4,-196.68 2118.38,-187.32 2108.65,-191.53 2113.4,-196.68"/>
</g>
<!-- PreConstruct__33 -->
<g id="node20" class="node">
<title>PreConstruct__33</title>
<polygon fill="#eeeeee" stroke="black" points="1533,-766.5 1533,-804.5 1649,-804.5 1649,-766.5 1533,-766.5"/>
<text text-anchor="start" x="1541" y="-789.3" font-family="monospace" font-size="14.00">EX_Return</text>
<text text-anchor="start" x="1541" y="-774.3" font-family="monospace" font-size="14.00">  EX_Nothing</text>
</g>
<!-- PreConstruct__18&#45;&gt;PreConstruct__33 -->
<g id="edge16" class="edge">
<title>PreConstruct__18&#45;&gt;PreConstruct__33</title>
<path fill="none" stroke="black" d="M1591,-946C1591,-915.36 1591,-852.78 1591,-815.77"/>
<polygon fill="black" stroke="black" points="1594.5,-815.79 1591,-805.79 1587.5,-815.79 1594.5,-815.79"/>
</g>
<!-- PreConstruct__35 -->
<g id="node21" class="node">
<title>PreConstruct__35</title>
<polygon fill="#eeeeee" stroke="black" points="2713,-868.5 2713,-904.5 2845,-904.5 2845,-868.5 2713,-868.5"/>
<text text-anchor="start" x="2721" y="-882.8" font-family="monospace" font-size="14.00">EX_EndOfScript</text>
</g>
<!-- SetTarget -->
<g id="node22" class="node">
<title>SetTarget</title>
<polygon fill="#ff8888" stroke="black" points="2601,-1380 2601,-1448 3261,-1448 3261,-1380 2601,-1380"/>
<text text-anchor="start" x="2609" y="-1432.8" font-family="monospace" font-size="14.00">Function SetTarget</text>
<text text-anchor="start" x="2609" y="-1417.8" font-family="monospace" font-size="14.00">  ObjectProperty Target Widget</text>
<text text-anchor="start" x="2609" y="-1402.8" font-family="monospace" font-size="14.00">    CPF_BlueprintVisible|CPF_BlueprintReadOnly|CPF_Parm|CPF_InstancedReference</text>
<text text-anchor="start" x="2609" y="-1387.8" font-family="monospace" font-size="14.00">  BoolProperty CallFunc_IsValid_ReturnValue</text>
</g>
<!-- SetTarget__0 -->
<g id="node23" class="node">
<title>SetTarget__0</title>
<polygon fill="#eeeeee" stroke="black" points="2654.5,-1088 2654.5,-1156 3207.5,-1156 3207.5,-1088 2654.5,-1088"/>
<text text-anchor="start" x="2662.5" y="-1140.8" font-family="monospace" font-size="14.00">EX_LetBool</text>
<text text-anchor="start" x="2662.5" y="-1125.8" font-family="monospace" font-size="14.00">  EX_LocalVariable [CallFunc_IsValid_ReturnValue]</text>
<text text-anchor="start" x="2662.5" y="-1110.8" font-family="monospace" font-size="14.00">  EX_CallMath import /Script/Engine&#45;&gt;KismetSystemLibrary&#45;&gt;IsValid</text>
<text text-anchor="start" x="2662.5" y="-1095.8" font-family="monospace" font-size="14.00">    EX_LocalVariable [Target Widget]</text>
</g>
<!-- SetTarget&#45;&gt;SetTarget__0 -->
<g id="edge17" class="edge">
<title>SetTarget&#45;&gt;SetTarget__0</title>
<path fill="none" stroke="black" d="M2931,-1380.02C2931,-1327.79 2931,-1226.01 2931,-1167.42"/>
<polygon fill="black" stroke="black" points="2934.5,-1167.47 2931,-1157.47 2927.5,-1167.47 2934.5,-1167.47"/>
</g>
<!-- SetTarget__29 -->
<g id="node24" class="node">
<title>SetTarget__29</title>
<polygon fill="#eeeeee" stroke="black" points="2720.5,-946 2720.5,-984 3141.5,-984 3141.5,-946 2720.5,-946"/>
<text text-anchor="start" x="2728.5" y="-968.8" font-family="monospace" font-size="14.00">EX_JumpIfNot 43</text>
<text text-anchor="start" x="2728.5" y="-953.8" font-family="monospace" font-size="14.00">  EX_LocalVariable [CallFunc_IsValid_ReturnValue]</text>
</g>
<!-- SetTarget__0&#45;&gt;SetTarget__29 -->
<g id="edge18" class="edge">
<title>SetTarget__0&#45;&gt;SetTarget__29</title>
<path fill="none" stroke="black" d="M2931,-1088.13C2931,-1060.54 2931,-1021.51 2931,-995.05"/>
<polygon fill="black" stroke="black" points="2934.5,-995.38 2931,-985.38 2927.5,-995.38 2934.5,-995.38"/>
</g>
<!-- SetTarget__43 -->
<g id="node25" class="node">
<title>SetTarget__43</title>
<polygon fill="#eeeeee" stroke="black" points="2957,-766.5 2957,-804.5 3073,-804.5 3073,-766.5 2957,-766.5"/>
<text text-anchor="start" x="2965" y="-789.3" font-family="monospace" font-size="14.00">EX_Return</text>
<text text-anchor="start" x="2965" y="-774.3" font-family="monospace" font-size="14.00">  EX_Nothing</text>
</g>
<!-- SetTarget__29&#45;&gt;SetTarget__43 -->
<g id="edge19" class="edge">
<title>SetTarget__29:e&#45;&gt;SetTarget__43</title>
<path fill="none" stroke="red" d="M3143,-965C3217.57,-965 3103.54,-860.86 3045.52,-811.67"/>
<polygon fill="none" stroke="red" points="3047.79,-809 3037.89,-805.24 3043.29,-814.36 3047.79,-809"/>
<text text-anchor="middle" x="3166" y="-882.8" font-family="monospace" font-size="14.00">IF NOT</text>
</g>
<!-- SetTarget__29&#45;&gt;SetTarget__43 -->
<g id="edge20" class="edge">
<title>SetTarget__29&#45;&gt;SetTarget__43</title>
<path fill="none" stroke="black" d="M2939.52,-946C2954.21,-914.96 2984.41,-851.14 3001.83,-814.33"/>
<polygon fill="black" stroke="black" points="3004.82,-816.18 3005.94,-805.65 2998.5,-813.19 3004.82,-816.18"/>
<text text-anchor="middle" x="2984.5" y="-882.8" font-family="monospace" font-size="14.00">IF</text>
</g>
<!-- SetTarget__45 -->
<g id="node26" class="node">
<title>SetTarget__45</title>
<polygon fill="#eeeeee" stroke="black" points="2934,-666.5 2934,-702.5 3066,-702.5 3066,-666.5 2934,-666.5"/>
<text text-anchor="start" x="2942" y="-680.8" font-family="monospace" font-size="14.00">EX_EndOfScript</text>
</g>
<!-- SetPostionAndAlignment -->
<g id="node27" class="node">
<title>SetPostionAndAlignment</title>
<polygon fill="#ff8888" stroke="black" points="3279.5,-1342.5 3279.5,-1485.5 3758.5,-1485.5 3758.5,-1342.5 3279.5,-1342.5"/>
<text text-anchor="start" x="3287.5" y="-1470.3" font-family="monospace" font-size="14.00">Function SetPostionAndAlignment</text>
<text text-anchor="start" x="3287.5" y="-1455.3" font-family="monospace" font-size="14.00">  StructProperty InPosition</text>
<text text-anchor="start" x="3287.5" y="-1440.3" font-family="monospace" font-size="14.00">    CPF_BlueprintVisible|CPF_BlueprintReadOnly|CPF_Parm</text>
<text text-anchor="start" x="3287.5" y="-1425.3" font-family="monospace" font-size="14.00">  StructProperty InAlignment</text>
<text text-anchor="start" x="3287.5" y="-1410.3" font-family="monospace" font-size="14.00">    CPF_BlueprintVisible|CPF_BlueprintReadOnly|CPF_Parm</text>
<text text-anchor="start" x="3287.5" y="-1395.3" font-family="monospace" font-size="14.00">  ObjectProperty CanvasSlot</text>
<text text-anchor="start" x="3287.5" y="-1380.3" font-family="monospace" font-size="14.00">    CPF_Edit|CPF_BlueprintVisible|CPF_InstancedReference</text>
<text text-anchor="start" x="3287.5" y="-1365.3" font-family="monospace" font-size="14.00">  ObjectProperty CallFunc_SlotAsCanvasSlot_ReturnValue</text>
<text text-anchor="start" x="3287.5" y="-1350.3" font-family="monospace" font-size="14.00">    CPF_InstancedReference</text>
</g>
<!-- SetPostionAndAlignment__0 -->
<g id="node28" class="node">
<title>SetPostionAndAlignment__0</title>
<polygon fill="#eeeeee" stroke="black" points="3378.5,-1095.5 3378.5,-1148.5 3659.5,-1148.5 3659.5,-1095.5 3378.5,-1095.5"/>
<text text-anchor="start" x="3386.5" y="-1133.3" font-family="monospace" font-size="14.00">EX_Let</text>
<text text-anchor="start" x="3386.5" y="-1118.3" font-family="monospace" font-size="14.00">  EX_InstanceVariable [Position]</text>
<text text-anchor="start" x="3386.5" y="-1103.3" font-family="monospace" font-size="14.00">  EX_LocalVariable [InPosition]</text>
</g>
<!-- SetPostionAndAlignment&#45;&gt;SetPostionAndAlignment__0 -->
<g id="edge21" class="edge">
<title>SetPostionAndAlignment&#45;&gt;SetPostionAndAlignment__0</title>
<path fill="none" stroke="black" d="M3519,-1342.8C3519,-1285.09 3519,-1205.63 3519,-1159.74"/>
<polygon fill="black" stroke="black" points="3522.5,-1159.8 3519,-1149.8 3515.5,-1159.8 3522.5,-1159.8"/>
</g>
<!-- SetPostionAndAlignment__27 -->
<g id="node29" class="node">
<title>SetPostionAndAlignment__27</title>
<polygon fill="#eeeeee" stroke="black" points="3374.5,-938.5 3374.5,-991.5 3663.5,-991.5 3663.5,-938.5 3374.5,-938.5"/>
<text text-anchor="start" x="3382.5" y="-976.3" font-family="monospace" font-size="14.00">EX_Let</text>
<text text-anchor="start" x="3382.5" y="-961.3" font-family="monospace" font-size="14.00">  EX_InstanceVariable [Alignment]</text>
<text text-anchor="start" x="3382.5" y="-946.3" font-family="monospace" font-size="14.00">  EX_LocalVariable [InAlignment]</text>
</g>
<!-- SetPostionAndAlignment__0&#45;&gt;SetPostionAndAlignment__27 -->
<g id="edge22" class="edge">
<title>SetPostionAndAlignment__0&#45;&gt;SetPostionAndAlignment__27</title>
<path fill="none" stroke="black" d="M3519,-1095.75C3519,-1070.49 3519,-1031.38 3519,-1002.69"/>
<polygon fill="black" stroke="black" points="3522.5,-1003.01 3519,-993.01 3515.5,-1003.01 3522.5,-1003.01"/>
</g>
<!-- SetPostionAndAlignment__54 -->
<g id="node30" class="node">
<title>SetPostionAndAlignment__54</title>
<polygon fill="#eeeeee" stroke="black" points="3218,-751.5 3218,-819.5 3820,-819.5 3820,-751.5 3218,-751.5"/>
<text text-anchor="start" x="3226" y="-804.3" font-family="monospace" font-size="14.00">EX_LetObj</text>
<text text-anchor="start" x="3226" y="-789.3" font-family="monospace" font-size="14.00">  EX_LocalVariable [CallFunc_SlotAsCanvasSlot_ReturnValue]</text>
<text text-anchor="start" x="3226" y="-774.3" font-family="monospace" font-size="14.00">  EX_CallMath import /Script/UMG&#45;&gt;WidgetLayoutLibrary&#45;&gt;SlotAsCanvasSlot</text>
<text text-anchor="start" x="3226" y="-759.3" font-family="monospace" font-size="14.00">    EX_InstanceVariable [Basic_Menu_MinimalWindow]</text>
</g>
<!-- SetPostionAndAlignment__27&#45;&gt;SetPostionAndAlignment__54 -->
<g id="edge23" class="edge">
<title>SetPostionAndAlignment__27&#45;&gt;SetPostionAndAlignment__54</title>
<path fill="none" stroke="black" d="M3519,-938.57C3519,-910.53 3519,-864.89 3519,-830.92"/>
<polygon fill="black" stroke="black" points="3522.5,-830.95 3519,-820.95 3515.5,-830.95 3522.5,-830.95"/>
</g>
<!-- SetPostionAndAlignment__83 -->
<g id="node31" class="node">
<title>SetPostionAndAlignment__83</title>
<polygon fill="#eeeeee" stroke="black" points="3271.5,-557 3271.5,-610 3766.5,-610 3766.5,-557 3271.5,-557"/>
<text text-anchor="start" x="3279.5" y="-594.8" font-family="monospace" font-size="14.00">EX_LetObj</text>
<text text-anchor="start" x="3279.5" y="-579.8" font-family="monospace" font-size="14.00">  EX_LocalVariable [CanvasSlot]</text>
<text text-anchor="start" x="3279.5" y="-564.8" font-family="monospace" font-size="14.00">  EX_LocalVariable [CallFunc_SlotAsCanvasSlot_ReturnValue]</text>
</g>
<!-- SetPostionAndAlignment__54&#45;&gt;SetPostionAndAlignment__83 -->
<g id="edge24" class="edge">
<title>SetPostionAndAlignment__54&#45;&gt;SetPostionAndAlignment__83</title>
<path fill="none" stroke="black" d="M3519,-751.92C3519,-716.06 3519,-658.56 3519,-621.16"/>
<polygon fill="black" stroke="black" points="3522.5,-621.28 3519,-611.28 3515.5,-621.28 3522.5,-621.28"/>
</g>
<!-- SetPostionAndAlignment__102 -->
<g id="node32" class="node">
<title>SetPostionAndAlignment__102</title>
<polygon fill="#eeeeee" stroke="black" points="3234.5,-362.5 3234.5,-445.5 3803.5,-445.5 3803.5,-362.5 3234.5,-362.5"/>
<text text-anchor="start" x="3242.5" y="-430.3" font-family="monospace" font-size="14.00">EX_Context</text>
<text text-anchor="start" x="3242.5" y="-415.3" font-family="monospace" font-size="14.00">  EX_LocalVariable [CanvasSlot]</text>
<text text-anchor="start" x="3242.5" y="-400.3" font-family="monospace" font-size="14.00">  EX_FinalFunction import /Script/UMG&#45;&gt;CanvasPanelSlot&#45;&gt;SetPosition</text>
<text text-anchor="start" x="3242.5" y="-385.3" font-family="monospace" font-size="14.00">    EX_InstanceVariable [Position]</text>
<text text-anchor="start" x="3242.5" y="-370.3" font-family="monospace" font-size="14.00">  RValue = []</text>
</g>
<!-- SetPostionAndAlignment__83&#45;&gt;SetPostionAndAlignment__102 -->
<g id="edge25" class="edge">
<title>SetPostionAndAlignment__83&#45;&gt;SetPostionAndAlignment__102</title>
<path fill="none" stroke="black" d="M3519,-557.07C3519,-531 3519,-489.73 3519,-456.75"/>
<polygon fill="black" stroke="black" points="3522.5,-456.99 3519,-446.99 3515.5,-456.99 3522.5,-456.99"/>
</g>
<!-- SetPostionAndAlignment__143 -->
<g id="node33" class="node">
<title>SetPostionAndAlignment__143</title>
<polygon fill="#eeeeee" stroke="black" points="3230,-205.5 3230,-288.5 3808,-288.5 3808,-205.5 3230,-205.5"/>
<text text-anchor="start" x="3238" y="-273.3" font-family="monospace" font-size="14.00">EX_Context</text>
<text text-anchor="start" x="3238" y="-258.3" font-family="monospace" font-size="14.00">  EX_LocalVariable [CanvasSlot]</text>
<text text-anchor="start" x="3238" y="-243.3" font-family="monospace" font-size="14.00">  EX_FinalFunction import /Script/UMG&#45;&gt;CanvasPanelSlot&#45;&gt;SetAlignment</text>
<text text-anchor="start" x="3238" y="-228.3" font-family="monospace" font-size="14.00">    EX_InstanceVariable [Alignment]</text>
<text text-anchor="start" x="3238" y="-213.3" font-family="monospace" font-size="14.00">  RValue = []</text>
</g>
<!-- SetPostionAndAlignment__102&#45;&gt;SetPostionAndAlignment__143 -->
<g id="edge26" class="edge">
<title>SetPostionAndAlignment__102&#45;&gt;SetPostionAndAlignment__143</title>
<path fill="none" stroke="black" d="M3519,-362.68C3519,-343.47 3519,-320.27 3519,-299.77"/>
<polygon fill="black" stroke="black" points="3522.5,-299.9 3519,-289.9 3515.5,-299.9 3522.5,-299.9"/>
</g>
<!-- SetPostionAndAlignment__184 -->
<g id="node34" class="node">
<title>SetPostionAndAlignment__184</title>
<polygon fill="#eeeeee" stroke="black" points="3461,-76.5 3461,-114.5 3577,-114.5 3577,-76.5 3461,-76.5"/>
<text text-anchor="start" x="3469" y="-99.3" font-family="monospace" font-size="14.00">EX_Return</text>
<text text-anchor="start" x="3469" y="-84.3" font-family="monospace" font-size="14.00">  EX_Nothing</text>
</g>
<!-- SetPostionAndAlignment__143&#45;&gt;SetPostionAndAlignment__184 -->
<g id="edge27" class="edge">
<title>SetPostionAndAlignment__143&#45;&gt;SetPostionAndAlignment__184</title>
<path fill="none" stroke="black" d="M3519,-205.54C3519,-180.33 3519,-148.47 3519,-125.71"/>
<polygon fill="black" stroke="black" points="3522.5,-125.92 3519,-115.92 3515.5,-125.92 3522.5,-125.92"/>
</g>
<!-- SetPostionAndAlignment__186 -->
<g id="node35" class="node">
<title>SetPostionAndAlignment__186</title>
<polygon fill="#eeeeee" stroke="black" points="3700,-464.5 3700,-500.5 3832,-500.5 3832,-464.5 3700,-464.5"/>
<text text-anchor="start" x="3708" y="-478.8" font-family="monospace" font-size="14.00">EX_EndOfScript</text>
</g>
<!-- SetData -->
<g id="node36" class="node">
<title>SetData</title>
<polygon fill="#ff8888" stroke="black" points="3777,-1372.5 3777,-1455.5 4247,-1455.5 4247,-1372.5 3777,-1372.5"/>
<text text-anchor="start" x="3785" y="-1440.3" font-family="monospace" font-size="14.00">Function SetData</text>
<text text-anchor="start" x="3785" y="-1425.3" font-family="monospace" font-size="14.00">  ObjectProperty ResourceA</text>
<text text-anchor="start" x="3785" y="-1410.3" font-family="monospace" font-size="14.00">    CPF_BlueprintVisible|CPF_BlueprintReadOnly|CPF_Parm</text>
<text text-anchor="start" x="3785" y="-1395.3" font-family="monospace" font-size="14.00">  ObjectProperty ResourceB</text>
<text text-anchor="start" x="3785" y="-1380.3" font-family="monospace" font-size="14.00">    CPF_BlueprintVisible|CPF_BlueprintReadOnly|CPF_Parm</text>
</g>
<!-- SetData__0 -->
<g id="node37" class="node">
<title>SetData__0</title>
<polygon fill="#eeeeee" stroke="black" points="3826.5,-1080.5 3826.5,-1163.5 4197.5,-1163.5 4197.5,-1080.5 3826.5,-1080.5"/>
<text text-anchor="start" x="3834.5" y="-1148.3" font-family="monospace" font-size="14.00">EX_Context</text>
<text text-anchor="start" x="3834.5" y="-1133.3" font-family="monospace" font-size="14.00">  EX_InstanceVariable [Basic_ResourceIconA]</text>
<text text-anchor="start" x="3834.5" y="-1118.3" font-family="monospace" font-size="14.00">  EX_LocalVirtualFunction SetResource</text>
<text text-anchor="start" x="3834.5" y="-1103.3" font-family="monospace" font-size="14.00">    EX_LocalVariable [ResourceA]</text>
<text text-anchor="start" x="3834.5" y="-1088.3" font-family="monospace" font-size="14.00">  RValue = []</text>
</g>
<!-- SetData&#45;&gt;SetData__0 -->
<g id="edge28" class="edge">
<title>SetData&#45;&gt;SetData__0</title>
<path fill="none" stroke="black" d="M4012,-1372.68C4012,-1320.99 4012,-1231.3 4012,-1174.66"/>
<polygon fill="black" stroke="black" points="4015.5,-1174.96 4012,-1164.96 4008.5,-1174.96 4015.5,-1174.96"/>
</g>
<!-- SetData__45 -->
<g id="node38" class="node">
<title>SetData__45</title>
<polygon fill="#eeeeee" stroke="black" points="3826.5,-923.5 3826.5,-1006.5 4197.5,-1006.5 4197.5,-923.5 3826.5,-923.5"/>
<text text-anchor="start" x="3834.5" y="-991.3" font-family="monospace" font-size="14.00">EX_Context</text>
<text text-anchor="start" x="3834.5" y="-976.3" font-family="monospace" font-size="14.00">  EX_InstanceVariable [Basic_ResourceIconB]</text>
<text text-anchor="start" x="3834.5" y="-961.3" font-family="monospace" font-size="14.00">  EX_LocalVirtualFunction SetResource</text>
<text text-anchor="start" x="3834.5" y="-946.3" font-family="monospace" font-size="14.00">    EX_LocalVariable [ResourceB]</text>
<text text-anchor="start" x="3834.5" y="-931.3" font-family="monospace" font-size="14.00">  RValue = []</text>
</g>
<!-- SetData__0&#45;&gt;SetData__45 -->
<g id="edge29" class="edge">
<title>SetData__0&#45;&gt;SetData__45</title>
<path fill="none" stroke="black" d="M4012,-1080.68C4012,-1061.47 4012,-1038.27 4012,-1017.77"/>
<polygon fill="black" stroke="black" points="4015.5,-1017.9 4012,-1007.9 4008.5,-1017.9 4015.5,-1017.9"/>
</g>
<!-- SetData__90 -->
<g id="node39" class="node">
<title>SetData__90</title>
<polygon fill="#eeeeee" stroke="black" points="3851,-721.5 3851,-849.5 4173,-849.5 4173,-721.5 3851,-721.5"/>
<text text-anchor="start" x="3859" y="-834.3" font-family="monospace" font-size="14.00">EX_Context</text>
<text text-anchor="start" x="3859" y="-819.3" font-family="monospace" font-size="14.00">  EX_InstanceVariable [ResourceAName]</text>
<text text-anchor="start" x="3859" y="-804.3" font-family="monospace" font-size="14.00">  EX_VirtualFunction SetText</text>
<text text-anchor="start" x="3859" y="-789.3" font-family="monospace" font-size="14.00">    EX_Context</text>
<text text-anchor="start" x="3859" y="-774.3" font-family="monospace" font-size="14.00">      EX_LocalVariable [ResourceA]</text>
<text text-anchor="start" x="3859" y="-759.3" font-family="monospace" font-size="14.00">      EX_InstanceVariable [Title]</text>
<text text-anchor="start" x="3859" y="-744.3" font-family="monospace" font-size="14.00">      RValue = [Title]</text>
<text text-anchor="start" x="3859" y="-729.3" font-family="monospace" font-size="14.00">  RValue = []</text>
</g>
<!-- SetData__45&#45;&gt;SetData__90 -->
<g id="edge30" class="edge">
<title>SetData__45&#45;&gt;SetData__90</title>
<path fill="none" stroke="black" d="M4012,-923.72C4012,-905.08 4012,-882.32 4012,-860.74"/>
<polygon fill="black" stroke="black" points="4015.5,-860.77 4012,-850.77 4008.5,-860.77 4015.5,-860.77"/>
</g>
<!-- SetData__157 -->
<g id="node40" class="node">
<title>SetData__157</title>
<polygon fill="#eeeeee" stroke="black" points="3851,-519.5 3851,-647.5 4173,-647.5 4173,-519.5 3851,-519.5"/>
<text text-anchor="start" x="3859" y="-632.3" font-family="monospace" font-size="14.00">EX_Context</text>
<text text-anchor="start" x="3859" y="-617.3" font-family="monospace" font-size="14.00">  EX_InstanceVariable [ResourceBName]</text>
<text text-anchor="start" x="3859" y="-602.3" font-family="monospace" font-size="14.00">  EX_VirtualFunction SetText</text>
<text text-anchor="start" x="3859" y="-587.3" font-family="monospace" font-size="14.00">    EX_Context</text>
<text text-anchor="start" x="3859" y="-572.3" font-family="monospace" font-size="14.00">      EX_LocalVariable [ResourceB]</text>
<text text-anchor="start" x="3859" y="-557.3" font-family="monospace" font-size="14.00">      EX_InstanceVariable [Title]</text>
<text text-anchor="start" x="3859" y="-542.3" font-family="monospace" font-size="14.00">      RValue = [Title]</text>
<text text-anchor="start" x="3859" y="-527.3" font-family="monospace" font-size="14.00">  RValue = []</text>
</g>
<!-- SetData__90&#45;&gt;SetData__157 -->
<g id="edge31" class="edge">
<title>SetData__90&#45;&gt;SetData__157</title>
<path fill="none" stroke="black" d="M4012,-721.77C4012,-701.76 4012,-679.43 4012,-658.69"/>
<polygon fill="black" stroke="black" points="4015.5,-658.87 4012,-648.87 4008.5,-658.87 4015.5,-658.87"/>
</g>
<!-- SetData__224 -->
<g id="node41" class="node">
<title>SetData__224</title>
<polygon fill="#eeeeee" stroke="black" points="3954,-385 3954,-423 4070,-423 4070,-385 3954,-385"/>
<text text-anchor="start" x="3962" y="-407.8" font-family="monospace" font-size="14.00">EX_Return</text>
<text text-anchor="start" x="3962" y="-392.8" font-family="monospace" font-size="14.00">  EX_Nothing</text>
</g>
<!-- SetData__157&#45;&gt;SetData__224 -->
<g id="edge32" class="edge">
<title>SetData__157&#45;&gt;SetData__224</title>
<path fill="none" stroke="black" d="M4012,-519.92C4012,-490.82 4012,-457.59 4012,-434.37"/>
<polygon fill="black" stroke="black" points="4015.5,-434.42 4012,-424.42 4008.5,-434.42 4015.5,-434.42"/>
</g>
<!-- SetData__226 -->
<g id="node42" class="node">
<title>SetData__226</title>
<polygon fill="#eeeeee" stroke="black" points="3534,-307.5 3534,-343.5 3666,-343.5 3666,-307.5 3534,-307.5"/>
<text text-anchor="start" x="3542" y="-321.8" font-family="monospace" font-size="14.00">EX_EndOfScript</text>
</g>
</g>
</svg>
