<?xml version="1.0" encoding="UTF-8" standalone="no"?>
<!DOCTYPE svg PUBLIC "-//W3C//DTD SVG 1.1//EN"
 "http://www.w3.org/Graphics/SVG/1.1/DTD/svg11.dtd">
<!-- Generated by graphviz version 7.0.1 (0)
 -->
<!-- Pages: 1 -->
<svg width="1965pt" height="1113pt"
 viewBox="0.00 0.00 1965.00 1113.00" xmlns="http://www.w3.org/2000/svg" xmlns:xlink="http://www.w3.org/1999/xlink">
<g id="graph0" class="graph" transform="scale(1 1) rotate(0) translate(4 1109)">
<polygon fill="white" stroke="none" points="-4,4 -4,-1109 1961,-1109 1961,4 -4,4"/>
<!-- ABP_Grabber_C -->
<g id="node1" class="node">
<title>ABP_Grabber_C</title>
<polygon fill="#88ff88" stroke="black" points="0,-796.5 0,-1104.5 503,-1104.5 503,-796.5 0,-796.5"/>
<text text-anchor="start" x="8" y="-1089.3" font-family="monospace" font-size="14.00">ClassExport: ABP_Grabber_C</text>
<text text-anchor="start" x="8" y="-1074.3" font-family="monospace" font-size="14.00">  SuperStruct: import /Script/FSD&#45;&gt;FlyingLifterAnimInstance</text>
<text text-anchor="start" x="8" y="-1059.3" font-family="monospace" font-size="14.00">  Properties:</text>
<text text-anchor="start" x="8" y="-1044.3" font-family="monospace" font-size="14.00">    StructProperty UberGraphFrame</text>
<text text-anchor="start" x="8" y="-1029.3" font-family="monospace" font-size="14.00">      CPF_Transient|CPF_DuplicateTransient</text>
<text text-anchor="start" x="8" y="-1014.3" font-family="monospace" font-size="14.00">    StructProperty AnimGraphNode_Root</text>
<text text-anchor="start" x="8" y="-999.3" font-family="monospace" font-size="14.00">    StructProperty AnimGraphNode_Slot</text>
<text text-anchor="start" x="8" y="-984.3" font-family="monospace" font-size="14.00">    StructProperty AnimGraphNode_TransitionResult_5</text>
<text text-anchor="start" x="8" y="-969.3" font-family="monospace" font-size="14.00">    StructProperty AnimGraphNode_TransitionResult_4</text>
<text text-anchor="start" x="8" y="-954.3" font-family="monospace" font-size="14.00">    StructProperty AnimGraphNode_TransitionResult_3</text>
<text text-anchor="start" x="8" y="-939.3" font-family="monospace" font-size="14.00">    StructProperty AnimGraphNode_TransitionResult_2</text>
<text text-anchor="start" x="8" y="-924.3" font-family="monospace" font-size="14.00">    StructProperty AnimGraphNode_TransitionResult_1</text>
<text text-anchor="start" x="8" y="-909.3" font-family="monospace" font-size="14.00">    StructProperty AnimGraphNode_TransitionResult</text>
<text text-anchor="start" x="8" y="-894.3" font-family="monospace" font-size="14.00">    StructProperty AnimGraphNode_SequencePlayer_2</text>
<text text-anchor="start" x="8" y="-879.3" font-family="monospace" font-size="14.00">    StructProperty AnimGraphNode_StateResult_2</text>
<text text-anchor="start" x="8" y="-864.3" font-family="monospace" font-size="14.00">    StructProperty AnimGraphNode_SequencePlayer_1</text>
<text text-anchor="start" x="8" y="-849.3" font-family="monospace" font-size="14.00">    StructProperty AnimGraphNode_StateResult_1</text>
<text text-anchor="start" x="8" y="-834.3" font-family="monospace" font-size="14.00">    StructProperty AnimGraphNode_SequencePlayer</text>
<text text-anchor="start" x="8" y="-819.3" font-family="monospace" font-size="14.00">    StructProperty AnimGraphNode_StateResult</text>
<text text-anchor="start" x="8" y="-804.3" font-family="monospace" font-size="14.00">    StructProperty AnimGraphNode_StateMachine</text>
</g>
<!-- ExecuteUbergraph_ABP_Grabber -->
<g id="node2" class="node">
<title>ExecuteUbergraph_ABP_Grabber</title>
<polygon fill="#ff8888" stroke="black" points="521.5,-924 521.5,-977 991.5,-977 991.5,-924 521.5,-924"/>
<text text-anchor="start" x="529.5" y="-961.8" font-family="monospace" font-size="14.00">Function ExecuteUbergraph_ABP_Grabber</text>
<text text-anchor="start" x="529.5" y="-946.8" font-family="monospace" font-size="14.00">  IntProperty EntryPoint</text>
<text text-anchor="start" x="529.5" y="-931.8" font-family="monospace" font-size="14.00">    CPF_BlueprintVisible|CPF_BlueprintReadOnly|CPF_Parm</text>
</g>
<!-- ExecuteUbergraph_ABP_Grabber__0 -->
<g id="node3" class="node">
<title>ExecuteUbergraph_ABP_Grabber__0</title>
<polygon fill="#eeeeee" stroke="black" points="620.5,-660 620.5,-698 892.5,-698 892.5,-660 620.5,-660"/>
<text text-anchor="start" x="628.5" y="-682.8" font-family="monospace" font-size="14.00">EX_ComputedJump</text>
<text text-anchor="start" x="628.5" y="-667.8" font-family="monospace" font-size="14.00">  EX_LocalVariable [EntryPoint]</text>
</g>
<!-- ExecuteUbergraph_ABP_Grabber&#45;&gt;ExecuteUbergraph_ABP_Grabber__0 -->
<g id="edge1" class="edge">
<title>ExecuteUbergraph_ABP_Grabber&#45;&gt;ExecuteUbergraph_ABP_Grabber__0</title>
<path fill="none" stroke="black" d="M756.5,-924.15C756.5,-873.94 756.5,-762.15 756.5,-709.06"/>
<polygon fill="black" stroke="black" points="760,-709.3 756.5,-699.3 753,-709.3 760,-709.3"/>
</g>
<!-- ExecuteUbergraph_ABP_Grabber__10 -->
<g id="node4" class="node">
<title>ExecuteUbergraph_ABP_Grabber__10</title>
<polygon fill="#eeeeee" stroke="black" points="945.5,-739.5 945.5,-777.5 1061.5,-777.5 1061.5,-739.5 945.5,-739.5"/>
<text text-anchor="start" x="953.5" y="-762.3" font-family="monospace" font-size="14.00">EX_Return</text>
<text text-anchor="start" x="953.5" y="-747.3" font-family="monospace" font-size="14.00">  EX_Nothing</text>
</g>
<!-- ExecuteUbergraph_ABP_Grabber__12 -->
<g id="node5" class="node">
<title>ExecuteUbergraph_ABP_Grabber__12</title>
<polygon fill="#eeeeee" stroke="black" points="1102.5,-582.5 1102.5,-618.5 1234.5,-618.5 1234.5,-582.5 1102.5,-582.5"/>
<text text-anchor="start" x="1110.5" y="-596.8" font-family="monospace" font-size="14.00">EX_EndOfScript</text>
</g>
<!-- SpawnIdleSound -->
<g id="node6" class="node">
<title>SpawnIdleSound</title>
<polygon fill="#ff8888" stroke="black" points="1010,-901.5 1010,-999.5 1489,-999.5 1489,-901.5 1010,-901.5"/>
<text text-anchor="start" x="1018" y="-984.3" font-family="monospace" font-size="14.00">Function SpawnIdleSound</text>
<text text-anchor="start" x="1018" y="-969.3" font-family="monospace" font-size="14.00">  BoolProperty CallFunc_IsValid_ReturnValue</text>
<text text-anchor="start" x="1018" y="-954.3" font-family="monospace" font-size="14.00">  ObjectProperty CallFunc_GetOwningComponent_ReturnValue</text>
<text text-anchor="start" x="1018" y="-939.3" font-family="monospace" font-size="14.00">    CPF_InstancedReference</text>
<text text-anchor="start" x="1018" y="-924.3" font-family="monospace" font-size="14.00">  ObjectProperty CallFunc_SpawnSoundAttached_ReturnValue</text>
<text text-anchor="start" x="1018" y="-909.3" font-family="monospace" font-size="14.00">    CPF_InstancedReference</text>
</g>
<!-- SpawnIdleSound__0 -->
<g id="node7" class="node">
<title>SpawnIdleSound__0</title>
<polygon fill="#eeeeee" stroke="black" points="973,-645 973,-713 1526,-713 1526,-645 973,-645"/>
<text text-anchor="start" x="981" y="-697.8" font-family="monospace" font-size="14.00">EX_LetBool</text>
<text text-anchor="start" x="981" y="-682.8" font-family="monospace" font-size="14.00">  EX_LocalVariable [CallFunc_IsValid_ReturnValue]</text>
<text text-anchor="start" x="981" y="-667.8" font-family="monospace" font-size="14.00">  EX_CallMath import /Script/Engine&#45;&gt;KismetSystemLibrary&#45;&gt;IsValid</text>
<text text-anchor="start" x="981" y="-652.8" font-family="monospace" font-size="14.00">    EX_NoObject</text>
</g>
<!-- SpawnIdleSound&#45;&gt;SpawnIdleSound__0 -->
<g id="edge2" class="edge">
<title>SpawnIdleSound&#45;&gt;SpawnIdleSound__0</title>
<path fill="none" stroke="black" d="M1249.5,-901.63C1249.5,-851.46 1249.5,-773.29 1249.5,-724.45"/>
<polygon fill="black" stroke="black" points="1253,-724.51 1249.5,-714.51 1246,-724.51 1253,-724.51"/>
</g>
<!-- SpawnIdleSound__21 -->
<g id="node8" class="node">
<title>SpawnIdleSound__21</title>
<polygon fill="#eeeeee" stroke="black" points="1039,-525.5 1039,-563.5 1460,-563.5 1460,-525.5 1039,-525.5"/>
<text text-anchor="start" x="1047" y="-548.3" font-family="monospace" font-size="14.00">EX_JumpIfNot 40</text>
<text text-anchor="start" x="1047" y="-533.3" font-family="monospace" font-size="14.00">  EX_LocalVariable [CallFunc_IsValid_ReturnValue]</text>
</g>
<!-- SpawnIdleSound__0&#45;&gt;SpawnIdleSound__21 -->
<g id="edge3" class="edge">
<title>SpawnIdleSound__0&#45;&gt;SpawnIdleSound__21</title>
<path fill="none" stroke="black" d="M1249.5,-645.25C1249.5,-623.59 1249.5,-595.46 1249.5,-574.6"/>
<polygon fill="black" stroke="black" points="1253,-574.77 1249.5,-564.77 1246,-574.77 1253,-574.77"/>
</g>
<!-- SpawnIdleSound__35 -->
<g id="node9" class="node">
<title>SpawnIdleSound__35</title>
<polygon fill="#eeeeee" stroke="black" points="1115,-343.5 1115,-379.5 1222,-379.5 1222,-343.5 1115,-343.5"/>
<text text-anchor="start" x="1123" y="-357.8" font-family="monospace" font-size="14.00">EX_Jump 158</text>
</g>
<!-- SpawnIdleSound__21&#45;&gt;SpawnIdleSound__35 -->
<g id="edge5" class="edge">
<title>SpawnIdleSound__21&#45;&gt;SpawnIdleSound__35</title>
<path fill="none" stroke="black" d="M1241.59,-525.82C1227.38,-494.08 1197.49,-427.27 1180.66,-389.68"/>
<polygon fill="black" stroke="black" points="1183.99,-388.54 1176.71,-380.84 1177.6,-391.4 1183.99,-388.54"/>
<text text-anchor="middle" x="1241" y="-484.8" font-family="monospace" font-size="14.00">IF</text>
</g>
<!-- SpawnIdleSound__40 -->
<g id="node10" class="node">
<title>SpawnIdleSound__40</title>
<polygon fill="#eeeeee" stroke="black" points="1221,-398.5 1221,-451.5 1848,-451.5 1848,-398.5 1221,-398.5"/>
<text text-anchor="start" x="1229" y="-436.3" font-family="monospace" font-size="14.00">EX_LetObj</text>
<text text-anchor="start" x="1229" y="-421.3" font-family="monospace" font-size="14.00">  EX_LocalVariable [CallFunc_GetOwningComponent_ReturnValue]</text>
<text text-anchor="start" x="1229" y="-406.3" font-family="monospace" font-size="14.00">  EX_FinalFunction import /Script/Engine&#45;&gt;AnimInstance&#45;&gt;GetOwningComponent</text>
</g>
<!-- SpawnIdleSound__21&#45;&gt;SpawnIdleSound__40 -->
<g id="edge4" class="edge">
<title>SpawnIdleSound__21:e&#45;&gt;SpawnIdleSound__40</title>
<path fill="none" stroke="red" d="M1461.5,-544.5C1496.87,-544.5 1470.17,-499.63 1489.5,-470 1491.78,-466.5 1494.39,-463.06 1497.17,-459.75"/>
<polygon fill="none" stroke="red" points="1499.69,-462.18 1503.82,-452.43 1494.51,-457.48 1499.69,-462.18"/>
<text text-anchor="middle" x="1514.5" y="-484.8" font-family="monospace" font-size="14.00">IF NOT</text>
</g>
<!-- SpawnIdleSound__158 -->
<g id="node12" class="node">
<title>SpawnIdleSound__158</title>
<polygon fill="#eeeeee" stroke="black" points="1089.5,-0.5 1089.5,-38.5 1205.5,-38.5 1205.5,-0.5 1089.5,-0.5"/>
<text text-anchor="start" x="1097.5" y="-23.3" font-family="monospace" font-size="14.00">EX_Return</text>
<text text-anchor="start" x="1097.5" y="-8.3" font-family="monospace" font-size="14.00">  EX_Nothing</text>
</g>
<!-- SpawnIdleSound__35&#45;&gt;SpawnIdleSound__158 -->
<g id="edge6" class="edge">
<title>SpawnIdleSound__35&#45;&gt;SpawnIdleSound__158</title>
<path fill="none" stroke="black" d="M1160.41,-343.54C1158.04,-337.78 1155.76,-331.23 1154.5,-325 1134.4,-225.49 1140.51,-103.99 1144.82,-49.44"/>
<polygon fill="black" stroke="black" points="1148.29,-50.01 1145.63,-39.75 1141.31,-49.43 1148.29,-50.01"/>
</g>
<!-- SpawnIdleSound__60 -->
<g id="node11" class="node">
<title>SpawnIdleSound__60</title>
<polygon fill="#eeeeee" stroke="black" points="1164,-76.5 1164,-324.5 1923,-324.5 1923,-76.5 1164,-76.5"/>
<text text-anchor="start" x="1172" y="-309.3" font-family="monospace" font-size="14.00">EX_LetObj</text>
<text text-anchor="start" x="1172" y="-294.3" font-family="monospace" font-size="14.00">  EX_LocalVariable [CallFunc_SpawnSoundAttached_ReturnValue]</text>
<text text-anchor="start" x="1172" y="-279.3" font-family="monospace" font-size="14.00">  EX_CallMath import /Script/Engine&#45;&gt;GameplayStatics&#45;&gt;SpawnSoundAttached</text>
<text text-anchor="start" x="1172" y="-264.3" font-family="monospace" font-size="14.00">    EX_ObjectConst import /Game/Audio/SFX/Enemies/Grabber/GrabberIdle_Cue&#45;&gt;GrabberIdle_Cue</text>
<text text-anchor="start" x="1172" y="-249.3" font-family="monospace" font-size="14.00">    EX_LocalVariable [CallFunc_GetOwningComponent_ReturnValue]</text>
<text text-anchor="start" x="1172" y="-234.3" font-family="monospace" font-size="14.00">    EX_NameConst None</text>
<text text-anchor="start" x="1172" y="-219.3" font-family="monospace" font-size="14.00">    EX_VectorConst 0,0,0</text>
<text text-anchor="start" x="1172" y="-204.3" font-family="monospace" font-size="14.00">    EX_RotationConst 0,0,0</text>
<text text-anchor="start" x="1172" y="-189.3" font-family="monospace" font-size="14.00">    EX_ByteConst 0</text>
<text text-anchor="start" x="1172" y="-174.3" font-family="monospace" font-size="14.00">    EX_False</text>
<text text-anchor="start" x="1172" y="-159.3" font-family="monospace" font-size="14.00">    EX_FloatConst 1</text>
<text text-anchor="start" x="1172" y="-144.3" font-family="monospace" font-size="14.00">    EX_FloatConst 1</text>
<text text-anchor="start" x="1172" y="-129.3" font-family="monospace" font-size="14.00">    EX_FloatConst 0</text>
<text text-anchor="start" x="1172" y="-114.3" font-family="monospace" font-size="14.00">    EX_NoObject</text>
<text text-anchor="start" x="1172" y="-99.3" font-family="monospace" font-size="14.00">    EX_NoObject</text>
<text text-anchor="start" x="1172" y="-84.3" font-family="monospace" font-size="14.00">    EX_True</text>
</g>
<!-- SpawnIdleSound__40&#45;&gt;SpawnIdleSound__60 -->
<g id="edge7" class="edge">
<title>SpawnIdleSound__40&#45;&gt;SpawnIdleSound__60</title>
<path fill="none" stroke="black" d="M1535.51,-398.91C1536.18,-382.55 1537.1,-359.78 1538.08,-335.51"/>
<polygon fill="black" stroke="black" points="1541.57,-335.91 1538.47,-325.78 1534.57,-335.63 1541.57,-335.91"/>
</g>
<!-- SpawnIdleSound__60&#45;&gt;SpawnIdleSound__158 -->
<g id="edge8" class="edge">
<title>SpawnIdleSound__60&#45;&gt;SpawnIdleSound__158</title>
<path fill="none" stroke="black" d="M1271.44,-76.52C1243.56,-63.92 1217.97,-52.36 1197.38,-43.05"/>
<polygon fill="black" stroke="black" points="1199.01,-39.94 1188.46,-39.01 1196.13,-46.32 1199.01,-39.94"/>
</g>
<!-- SpawnIdleSound__160 -->
<g id="node13" class="node">
<title>SpawnIdleSound__160</title>
<polygon fill="#eeeeee" stroke="black" points="1548.5,-470.5 1548.5,-506.5 1680.5,-506.5 1680.5,-470.5 1548.5,-470.5"/>
<text text-anchor="start" x="1556.5" y="-484.8" font-family="monospace" font-size="14.00">EX_EndOfScript</text>
</g>
<!-- AnimGraph -->
<g id="node14" class="node">
<title>AnimGraph</title>
<polygon fill="#ff8888" stroke="black" points="1635,-924 1635,-977 1866,-977 1866,-924 1635,-924"/>
<text text-anchor="start" x="1643" y="-961.8" font-family="monospace" font-size="14.00">Function AnimGraph</text>
<text text-anchor="start" x="1643" y="-946.8" font-family="monospace" font-size="14.00">  StructProperty AnimGraph</text>
<text text-anchor="start" x="1643" y="-931.8" font-family="monospace" font-size="14.00">    CPF_Parm|CPF_OutParm</text>
</g>
<!-- AnimGraph__0 -->
<g id="node15" class="node">
<title>AnimGraph__0</title>
<polygon fill="#eeeeee" stroke="black" points="1544,-637.5 1544,-720.5 1957,-720.5 1957,-637.5 1544,-637.5"/>
<text text-anchor="start" x="1552" y="-705.3" font-family="monospace" font-size="14.00">EX_Let</text>
<text text-anchor="start" x="1552" y="-690.3" font-family="monospace" font-size="14.00">  EX_LocalOutVariable</text>
<text text-anchor="start" x="1552" y="-675.3" font-family="monospace" font-size="14.00">    [AnimGraph]</text>
<text text-anchor="start" x="1552" y="-660.3" font-family="monospace" font-size="14.00">  EX_StructConst import /Script/Engine&#45;&gt;PoseLink</text>
<text text-anchor="start" x="1552" y="-645.3" font-family="monospace" font-size="14.00">    EX_IntConst &#45;1</text>
</g>
<!-- AnimGraph&#45;&gt;AnimGraph__0 -->
<g id="edge9" class="edge">
<title>AnimGraph&#45;&gt;AnimGraph__0</title>
<path fill="none" stroke="black" d="M1750.5,-924.15C1750.5,-880.26 1750.5,-789.32 1750.5,-731.66"/>
<polygon fill="black" stroke="black" points="1754,-731.76 1750.5,-721.76 1747,-731.76 1754,-731.76"/>
</g>
<!-- AnimGraph__37 -->
<g id="node16" class="node">
<title>AnimGraph__37</title>
<polygon fill="#eeeeee" stroke="black" points="1692.5,-525.5 1692.5,-563.5 1808.5,-563.5 1808.5,-525.5 1692.5,-525.5"/>
<text text-anchor="start" x="1700.5" y="-548.3" font-family="monospace" font-size="14.00">EX_Return</text>
<text text-anchor="start" x="1700.5" y="-533.3" font-family="monospace" font-size="14.00">  EX_Nothing</text>
</g>
<!-- AnimGraph__0&#45;&gt;AnimGraph__37 -->
<g id="edge10" class="edge">
<title>AnimGraph__0&#45;&gt;AnimGraph__37</title>
<path fill="none" stroke="black" d="M1750.5,-637.53C1750.5,-617.27 1750.5,-593.21 1750.5,-574.77"/>
<polygon fill="black" stroke="black" points="1754,-574.8 1750.5,-564.8 1747,-574.8 1754,-574.8"/>
</g>
<!-- AnimGraph__39 -->
<g id="node17" class="node">
<title>AnimGraph__39</title>
<polygon fill="#eeeeee" stroke="black" points="1553.5,-343.5 1553.5,-379.5 1685.5,-379.5 1685.5,-343.5 1553.5,-343.5"/>
<text text-anchor="start" x="1561.5" y="-357.8" font-family="monospace" font-size="14.00">EX_EndOfScript</text>
</g>
</g>
</svg>
