<?xml version="1.0" encoding="UTF-8" standalone="no"?>
<!DOCTYPE svg PUBLIC "-//W3C//DTD SVG 1.1//EN"
 "http://www.w3.org/Graphics/SVG/1.1/DTD/svg11.dtd">
<!-- Generated by graphviz version 7.0.1 (0)
 -->
<!-- Pages: 1 -->
<svg width="4325pt" height="1153pt"
 viewBox="0.00 0.00 4325.00 1153.00" xmlns="http://www.w3.org/2000/svg" xmlns:xlink="http://www.w3.org/1999/xlink">
<g id="graph0" class="graph" transform="scale(1 1) rotate(0) translate(4 1149)">
<polygon fill="white" stroke="none" points="-4,4 -4,-1149 4321,-1149 4321,4 -4,4"/>
<!-- Options_Gamepad_SwapThumbsticks_C -->
<g id="node1" class="node">
<title>Options_Gamepad_SwapThumbsticks_C</title>
<polygon fill="#88ff88" stroke="black" points="0,-1009 0,-1122 850,-1122 850,-1009 0,-1009"/>
<text text-anchor="start" x="8" y="-1106.8" font-family="monospace" font-size="14.00">ClassExport: Options_Gamepad_SwapThumbsticks_C</text>
<text text-anchor="start" x="8" y="-1091.8" font-family="monospace" font-size="14.00">  SuperStruct: import /Script/UMG&#45;&gt;UserWidget</text>
<text text-anchor="start" x="8" y="-1076.8" font-family="monospace" font-size="14.00">  Properties:</text>
<text text-anchor="start" x="8" y="-1061.8" font-family="monospace" font-size="14.00">    StructProperty UberGraphFrame</text>
<text text-anchor="start" x="8" y="-1046.8" font-family="monospace" font-size="14.00">      CPF_Transient|CPF_DuplicateTransient</text>
<text text-anchor="start" x="8" y="-1031.8" font-family="monospace" font-size="14.00">    ObjectProperty Basic_CheckBox</text>
<text text-anchor="start" x="8" y="-1016.8" font-family="monospace" font-size="14.00">      CPF_BlueprintVisible|CPF_ExportObject|CPF_InstancedReference|CPF_RepSkip|CPF_PersistentInstance</text>
</g>
<!-- ExecuteUbergraph_Options_Gamepad_SwapThumbsticks -->
<g id="node2" class="node">
<title>ExecuteUbergraph_Options_Gamepad_SwapThumbsticks</title>
<polygon fill="#ff8888" stroke="black" points="868,-986.5 868,-1144.5 1396,-1144.5 1396,-986.5 868,-986.5"/>
<text text-anchor="start" x="876" y="-1129.3" font-family="monospace" font-size="14.00">Function ExecuteUbergraph_Options_Gamepad_SwapThumbsticks</text>
<text text-anchor="start" x="876" y="-1114.3" font-family="monospace" font-size="14.00">  IntProperty EntryPoint</text>
<text text-anchor="start" x="876" y="-1099.3" font-family="monospace" font-size="14.00">    CPF_BlueprintVisible|CPF_BlueprintReadOnly|CPF_Parm</text>
<text text-anchor="start" x="876" y="-1084.3" font-family="monospace" font-size="14.00">  ObjectProperty CallFunc_GetFSDGameInstance_ReturnValue</text>
<text text-anchor="start" x="876" y="-1069.3" font-family="monospace" font-size="14.00">  DelegateProperty K2Node_CreateDelegate_OutputDelegate</text>
<text text-anchor="start" x="876" y="-1054.3" font-family="monospace" font-size="14.00">  ObjectProperty CallFunc_GetFSDGameUserSettings_ReturnValue</text>
<text text-anchor="start" x="876" y="-1039.3" font-family="monospace" font-size="14.00">  ObjectProperty CallFunc_GetFSDGameUserSettings_ReturnValue_1</text>
<text text-anchor="start" x="876" y="-1024.3" font-family="monospace" font-size="14.00">  BoolProperty K2Node_ComponentBoundEvent_IsChecked</text>
<text text-anchor="start" x="876" y="-1009.3" font-family="monospace" font-size="14.00">  ObjectProperty CallFunc_GetFSDGameUserSettings_ReturnValue_2</text>
<text text-anchor="start" x="876" y="-994.3" font-family="monospace" font-size="14.00">  DelegateProperty K2Node_CreateDelegate_OutputDelegate_1</text>
</g>
<!-- ExecuteUbergraph_Options_Gamepad_SwapThumbsticks__0 -->
<g id="node3" class="node">
<title>ExecuteUbergraph_Options_Gamepad_SwapThumbsticks__0</title>
<polygon fill="#eeeeee" stroke="black" points="996,-911.5 996,-949.5 1268,-949.5 1268,-911.5 996,-911.5"/>
<text text-anchor="start" x="1004" y="-934.3" font-family="monospace" font-size="14.00">EX_ComputedJump</text>
<text text-anchor="start" x="1004" y="-919.3" font-family="monospace" font-size="14.00">  EX_LocalVariable [EntryPoint]</text>
</g>
<!-- ExecuteUbergraph_Options_Gamepad_SwapThumbsticks&#45;&gt;ExecuteUbergraph_Options_Gamepad_SwapThumbsticks__0 -->
<g id="edge1" class="edge">
<title>ExecuteUbergraph_Options_Gamepad_SwapThumbsticks&#45;&gt;ExecuteUbergraph_Options_Gamepad_SwapThumbsticks__0</title>
<path fill="none" stroke="black" d="M1132,-986.75C1132,-977.5 1132,-968.54 1132,-960.64"/>
<polygon fill="black" stroke="black" points="1135.5,-960.69 1132,-950.69 1128.5,-960.69 1135.5,-960.69"/>
</g>
<!-- ExecuteUbergraph_Options_Gamepad_SwapThumbsticks__10 -->
<g id="node4" class="node">
<title>ExecuteUbergraph_Options_Gamepad_SwapThumbsticks__10</title>
<polygon fill="#eeeeee" stroke="black" points="3749.5,-821.5 3749.5,-874.5 4236.5,-874.5 4236.5,-821.5 3749.5,-821.5"/>
<text text-anchor="start" x="3757.5" y="-859.3" font-family="monospace" font-size="14.00">EX_BindDelegate OnRefresh</text>
<text text-anchor="start" x="3757.5" y="-844.3" font-family="monospace" font-size="14.00">  EX_LocalVariable [K2Node_CreateDelegate_OutputDelegate]</text>
<text text-anchor="start" x="3757.5" y="-829.3" font-family="monospace" font-size="14.00">  EX_Self</text>
</g>
<!-- ExecuteUbergraph_Options_Gamepad_SwapThumbsticks__33 -->
<g id="node5" class="node">
<title>ExecuteUbergraph_Options_Gamepad_SwapThumbsticks__33</title>
<polygon fill="#eeeeee" stroke="black" points="3665,-731.5 3665,-784.5 4317,-784.5 4317,-731.5 3665,-731.5"/>
<text text-anchor="start" x="3673" y="-769.3" font-family="monospace" font-size="14.00">EX_LetObj</text>
<text text-anchor="start" x="3673" y="-754.3" font-family="monospace" font-size="14.00">  EX_LocalVariable [CallFunc_GetFSDGameUserSettings_ReturnValue_1]</text>
<text text-anchor="start" x="3673" y="-739.3" font-family="monospace" font-size="14.00">  EX_CallMath import /Script/FSD&#45;&gt;FSDGameUserSettings&#45;&gt;GetFSDGameUserSettings</text>
</g>
<!-- ExecuteUbergraph_Options_Gamepad_SwapThumbsticks__10&#45;&gt;ExecuteUbergraph_Options_Gamepad_SwapThumbsticks__33 -->
<g id="edge2" class="edge">
<title>ExecuteUbergraph_Options_Gamepad_SwapThumbsticks__10&#45;&gt;ExecuteUbergraph_Options_Gamepad_SwapThumbsticks__33</title>
<path fill="none" stroke="black" d="M3992.42,-821.55C3992.24,-813.52 3992.03,-804.49 3991.84,-795.83"/>
<polygon fill="black" stroke="black" points="3995.34,-795.83 3991.61,-785.91 3988.34,-795.99 3995.34,-795.83"/>
</g>
<!-- ExecuteUbergraph_Options_Gamepad_SwapThumbsticks__53 -->
<g id="node6" class="node">
<title>ExecuteUbergraph_Options_Gamepad_SwapThumbsticks__53</title>
<polygon fill="#eeeeee" stroke="black" points="3665,-581.5 3665,-679.5 4243,-679.5 4243,-581.5 3665,-581.5"/>
<text text-anchor="start" x="3673" y="-664.3" font-family="monospace" font-size="14.00">EX_AddMulticastDelegate</text>
<text text-anchor="start" x="3673" y="-649.3" font-family="monospace" font-size="14.00">  EX_Context</text>
<text text-anchor="start" x="3673" y="-634.3" font-family="monospace" font-size="14.00">    EX_LocalVariable [CallFunc_GetFSDGameUserSettings_ReturnValue_1]</text>
<text text-anchor="start" x="3673" y="-619.3" font-family="monospace" font-size="14.00">    EX_InstanceVariable [OnCustomKeyBindingsChanged]</text>
<text text-anchor="start" x="3673" y="-604.3" font-family="monospace" font-size="14.00">    RValue = [OnCustomKeyBindingsChanged]</text>
<text text-anchor="start" x="3673" y="-589.3" font-family="monospace" font-size="14.00">  EX_LocalVariable [K2Node_CreateDelegate_OutputDelegate]</text>
</g>
<!-- ExecuteUbergraph_Options_Gamepad_SwapThumbsticks__33&#45;&gt;ExecuteUbergraph_Options_Gamepad_SwapThumbsticks__53 -->
<g id="edge3" class="edge">
<title>ExecuteUbergraph_Options_Gamepad_SwapThumbsticks__33&#45;&gt;ExecuteUbergraph_Options_Gamepad_SwapThumbsticks__53</title>
<path fill="none" stroke="black" d="M3983.51,-731.6C3980,-719.67 3975.64,-704.91 3971.37,-690.43"/>
<polygon fill="black" stroke="black" points="3974.75,-689.51 3968.57,-680.9 3968.04,-691.49 3974.75,-689.51"/>
</g>
<!-- ExecuteUbergraph_Options_Gamepad_SwapThumbsticks__94 -->
<g id="node7" class="node">
<title>ExecuteUbergraph_Options_Gamepad_SwapThumbsticks__94</title>
<polygon fill="#eeeeee" stroke="black" points="3639.5,-454 3639.5,-522 4258.5,-522 4258.5,-454 3639.5,-454"/>
<text text-anchor="start" x="3647.5" y="-506.8" font-family="monospace" font-size="14.00">EX_LetObj</text>
<text text-anchor="start" x="3647.5" y="-491.8" font-family="monospace" font-size="14.00">  EX_LocalVariable [CallFunc_GetFSDGameInstance_ReturnValue]</text>
<text text-anchor="start" x="3647.5" y="-476.8" font-family="monospace" font-size="14.00">  EX_CallMath import /Script/FSD&#45;&gt;GameFunctionLibrary&#45;&gt;GetFSDGameInstance</text>
<text text-anchor="start" x="3647.5" y="-461.8" font-family="monospace" font-size="14.00">    EX_Self</text>
</g>
<!-- ExecuteUbergraph_Options_Gamepad_SwapThumbsticks__53&#45;&gt;ExecuteUbergraph_Options_Gamepad_SwapThumbsticks__94 -->
<g id="edge4" class="edge">
<title>ExecuteUbergraph_Options_Gamepad_SwapThumbsticks__53&#45;&gt;ExecuteUbergraph_Options_Gamepad_SwapThumbsticks__94</title>
<path fill="none" stroke="black" d="M3952.29,-581.54C3951.73,-565.83 3951.12,-548.46 3950.57,-533.05"/>
<polygon fill="black" stroke="black" points="3954.07,-533.1 3950.22,-523.23 3947.08,-533.34 3954.07,-533.1"/>
</g>
<!-- ExecuteUbergraph_Options_Gamepad_SwapThumbsticks__115 -->
<g id="node8" class="node">
<title>ExecuteUbergraph_Options_Gamepad_SwapThumbsticks__115</title>
<polygon fill="#eeeeee" stroke="black" points="3590.5,-356.5 3590.5,-409.5 4093.5,-409.5 4093.5,-356.5 3590.5,-356.5"/>
<text text-anchor="start" x="3598.5" y="-394.3" font-family="monospace" font-size="14.00">EX_BindDelegate OnRefresh</text>
<text text-anchor="start" x="3598.5" y="-379.3" font-family="monospace" font-size="14.00">  EX_LocalVariable [K2Node_CreateDelegate_OutputDelegate_1]</text>
<text text-anchor="start" x="3598.5" y="-364.3" font-family="monospace" font-size="14.00">  EX_Self</text>
</g>
<!-- ExecuteUbergraph_Options_Gamepad_SwapThumbsticks__94&#45;&gt;ExecuteUbergraph_Options_Gamepad_SwapThumbsticks__115 -->
<g id="edge5" class="edge">
<title>ExecuteUbergraph_Options_Gamepad_SwapThumbsticks__94&#45;&gt;ExecuteUbergraph_Options_Gamepad_SwapThumbsticks__115</title>
<path fill="none" stroke="black" d="M3914.85,-454.13C3902.63,-442.36 3888.84,-429.09 3876.58,-417.29"/>
<polygon fill="black" stroke="black" points="3879.1,-414.85 3869.47,-410.44 3874.24,-419.9 3879.1,-414.85"/>
</g>
<!-- ExecuteUbergraph_Options_Gamepad_SwapThumbsticks__138 -->
<g id="node9" class="node">
<title>ExecuteUbergraph_Options_Gamepad_SwapThumbsticks__138</title>
<polygon fill="#eeeeee" stroke="black" points="3375,-221.5 3375,-319.5 3903,-319.5 3903,-221.5 3375,-221.5"/>
<text text-anchor="start" x="3383" y="-304.3" font-family="monospace" font-size="14.00">EX_AddMulticastDelegate</text>
<text text-anchor="start" x="3383" y="-289.3" font-family="monospace" font-size="14.00">  EX_Context</text>
<text text-anchor="start" x="3383" y="-274.3" font-family="monospace" font-size="14.00">    EX_LocalVariable [CallFunc_GetFSDGameInstance_ReturnValue]</text>
<text text-anchor="start" x="3383" y="-259.3" font-family="monospace" font-size="14.00">    EX_InstanceVariable [OnGameSettingsChanged]</text>
<text text-anchor="start" x="3383" y="-244.3" font-family="monospace" font-size="14.00">    RValue = [OnGameSettingsChanged]</text>
<text text-anchor="start" x="3383" y="-229.3" font-family="monospace" font-size="14.00">  EX_LocalVariable [K2Node_CreateDelegate_OutputDelegate_1]</text>
</g>
<!-- ExecuteUbergraph_Options_Gamepad_SwapThumbsticks__115&#45;&gt;ExecuteUbergraph_Options_Gamepad_SwapThumbsticks__138 -->
<g id="edge6" class="edge">
<title>ExecuteUbergraph_Options_Gamepad_SwapThumbsticks__115&#45;&gt;ExecuteUbergraph_Options_Gamepad_SwapThumbsticks__138</title>
<path fill="none" stroke="black" d="M3795.17,-356.51C3777.76,-347.03 3757.3,-335.89 3737.02,-324.85"/>
<polygon fill="black" stroke="black" points="3738.88,-321.88 3728.42,-320.17 3735.53,-328.03 3738.88,-321.88"/>
</g>
<!-- ExecuteUbergraph_Options_Gamepad_SwapThumbsticks__179 -->
<g id="node10" class="node">
<title>ExecuteUbergraph_Options_Gamepad_SwapThumbsticks__179</title>
<polygon fill="#eeeeee" stroke="black" points="3381.5,-148.5 3381.5,-184.5 3670.5,-184.5 3670.5,-148.5 3381.5,-148.5"/>
<text text-anchor="start" x="3389.5" y="-162.8" font-family="monospace" font-size="14.00">EX_LocalVirtualFunction OnRefresh</text>
</g>
<!-- ExecuteUbergraph_Options_Gamepad_SwapThumbsticks__138&#45;&gt;ExecuteUbergraph_Options_Gamepad_SwapThumbsticks__179 -->
<g id="edge7" class="edge">
<title>ExecuteUbergraph_Options_Gamepad_SwapThumbsticks__138&#45;&gt;ExecuteUbergraph_Options_Gamepad_SwapThumbsticks__179</title>
<path fill="none" stroke="black" d="M3586.14,-221.79C3574.68,-211.44 3563.01,-200.91 3553.05,-191.92"/>
<polygon fill="black" stroke="black" points="3555.67,-189.56 3545.9,-185.46 3550.98,-194.76 3555.67,-189.56"/>
</g>
<!-- ExecuteUbergraph_Options_Gamepad_SwapThumbsticks__193 -->
<g id="node11" class="node">
<title>ExecuteUbergraph_Options_Gamepad_SwapThumbsticks__193</title>
<polygon fill="#eeeeee" stroke="black" points="3370.5,-75.5 3370.5,-111.5 3477.5,-111.5 3477.5,-75.5 3370.5,-75.5"/>
<text text-anchor="start" x="3378.5" y="-89.8" font-family="monospace" font-size="14.00">EX_Jump 356</text>
</g>
<!-- ExecuteUbergraph_Options_Gamepad_SwapThumbsticks__179&#45;&gt;ExecuteUbergraph_Options_Gamepad_SwapThumbsticks__193 -->
<g id="edge8" class="edge">
<title>ExecuteUbergraph_Options_Gamepad_SwapThumbsticks__179&#45;&gt;ExecuteUbergraph_Options_Gamepad_SwapThumbsticks__193</title>
<path fill="none" stroke="black" d="M3501.83,-148.67C3488.59,-139.46 3471.97,-127.89 3457.5,-117.82"/>
<polygon fill="black" stroke="black" points="3459.8,-115.16 3449.59,-112.32 3455.8,-120.9 3459.8,-115.16"/>
</g>
<!-- ExecuteUbergraph_Options_Gamepad_SwapThumbsticks__356 -->
<g id="node18" class="node">
<title>ExecuteUbergraph_Options_Gamepad_SwapThumbsticks__356</title>
<polygon fill="#eeeeee" stroke="black" points="3183,-0.5 3183,-38.5 3299,-38.5 3299,-0.5 3183,-0.5"/>
<text text-anchor="start" x="3191" y="-23.3" font-family="monospace" font-size="14.00">EX_Return</text>
<text text-anchor="start" x="3191" y="-8.3" font-family="monospace" font-size="14.00">  EX_Nothing</text>
</g>
<!-- ExecuteUbergraph_Options_Gamepad_SwapThumbsticks__193&#45;&gt;ExecuteUbergraph_Options_Gamepad_SwapThumbsticks__356 -->
<g id="edge9" class="edge">
<title>ExecuteUbergraph_Options_Gamepad_SwapThumbsticks__193&#45;&gt;ExecuteUbergraph_Options_Gamepad_SwapThumbsticks__356</title>
<path fill="none" stroke="black" d="M3381.09,-75.62C3356.01,-65.75 3324.05,-53.18 3297,-42.53"/>
<polygon fill="black" stroke="black" points="3298.51,-39.37 3287.92,-38.96 3295.95,-45.88 3298.51,-39.37"/>
</g>
<!-- ExecuteUbergraph_Options_Gamepad_SwapThumbsticks__198 -->
<g id="node12" class="node">
<title>ExecuteUbergraph_Options_Gamepad_SwapThumbsticks__198</title>
<polygon fill="#eeeeee" stroke="black" points="1972,-731.5 1972,-784.5 2624,-784.5 2624,-731.5 1972,-731.5"/>
<text text-anchor="start" x="1980" y="-769.3" font-family="monospace" font-size="14.00">EX_LetObj</text>
<text text-anchor="start" x="1980" y="-754.3" font-family="monospace" font-size="14.00">  EX_LocalVariable [CallFunc_GetFSDGameUserSettings_ReturnValue]</text>
<text text-anchor="start" x="1980" y="-739.3" font-family="monospace" font-size="14.00">  EX_CallMath import /Script/FSD&#45;&gt;FSDGameUserSettings&#45;&gt;GetFSDGameUserSettings</text>
</g>
<!-- ExecuteUbergraph_Options_Gamepad_SwapThumbsticks__218 -->
<g id="node13" class="node">
<title>ExecuteUbergraph_Options_Gamepad_SwapThumbsticks__218</title>
<polygon fill="#eeeeee" stroke="black" points="2245,-566.5 2245,-694.5 2823,-694.5 2823,-566.5 2245,-566.5"/>
<text text-anchor="start" x="2253" y="-679.3" font-family="monospace" font-size="14.00">EX_Context</text>
<text text-anchor="start" x="2253" y="-664.3" font-family="monospace" font-size="14.00">  EX_InstanceVariable [Basic_CheckBox]</text>
<text text-anchor="start" x="2253" y="-649.3" font-family="monospace" font-size="14.00">  EX_LocalVirtualFunction SetIsChecked</text>
<text text-anchor="start" x="2253" y="-634.3" font-family="monospace" font-size="14.00">    EX_Context</text>
<text text-anchor="start" x="2253" y="-619.3" font-family="monospace" font-size="14.00">      EX_LocalVariable [CallFunc_GetFSDGameUserSettings_ReturnValue]</text>
<text text-anchor="start" x="2253" y="-604.3" font-family="monospace" font-size="14.00">      EX_InstanceVariable [SwapControllerThumbsticks]</text>
<text text-anchor="start" x="2253" y="-589.3" font-family="monospace" font-size="14.00">      RValue = [SwapControllerThumbsticks]</text>
<text text-anchor="start" x="2253" y="-574.3" font-family="monospace" font-size="14.00">  RValue = []</text>
</g>
<!-- ExecuteUbergraph_Options_Gamepad_SwapThumbsticks__198&#45;&gt;ExecuteUbergraph_Options_Gamepad_SwapThumbsticks__218 -->
<g id="edge10" class="edge">
<title>ExecuteUbergraph_Options_Gamepad_SwapThumbsticks__198&#45;&gt;ExecuteUbergraph_Options_Gamepad_SwapThumbsticks__218</title>
<path fill="none" stroke="black" d="M2345.76,-731.6C2363.32,-722.27 2384.13,-711.2 2405.42,-699.88"/>
<polygon fill="black" stroke="black" points="2407.03,-702.98 2414.22,-695.2 2403.74,-696.8 2407.03,-702.98"/>
</g>
<!-- ExecuteUbergraph_Options_Gamepad_SwapThumbsticks__285 -->
<g id="node14" class="node">
<title>ExecuteUbergraph_Options_Gamepad_SwapThumbsticks__285</title>
<polygon fill="#eeeeee" stroke="black" points="2870.5,-365 2870.5,-401 2977.5,-401 2977.5,-365 2870.5,-365"/>
<text text-anchor="start" x="2878.5" y="-379.3" font-family="monospace" font-size="14.00">EX_Jump 356</text>
</g>
<!-- ExecuteUbergraph_Options_Gamepad_SwapThumbsticks__218&#45;&gt;ExecuteUbergraph_Options_Gamepad_SwapThumbsticks__285 -->
<g id="edge11" class="edge">
<title>ExecuteUbergraph_Options_Gamepad_SwapThumbsticks__218&#45;&gt;ExecuteUbergraph_Options_Gamepad_SwapThumbsticks__285</title>
<path fill="none" stroke="black" d="M2633.93,-566.6C2716.75,-514.46 2829.86,-443.26 2887.3,-407.1"/>
<polygon fill="black" stroke="black" points="2889.14,-410.08 2895.74,-401.79 2885.41,-404.15 2889.14,-410.08"/>
</g>
<!-- ExecuteUbergraph_Options_Gamepad_SwapThumbsticks__285&#45;&gt;ExecuteUbergraph_Options_Gamepad_SwapThumbsticks__356 -->
<g id="edge12" class="edge">
<title>ExecuteUbergraph_Options_Gamepad_SwapThumbsticks__285&#45;&gt;ExecuteUbergraph_Options_Gamepad_SwapThumbsticks__356</title>
<path fill="none" stroke="black" d="M2938.86,-365.05C2989.69,-307.09 3156.8,-116.51 3218.15,-46.56"/>
<polygon fill="black" stroke="black" points="3220.47,-49.22 3224.43,-39.4 3215.2,-44.61 3220.47,-49.22"/>
</g>
<!-- ExecuteUbergraph_Options_Gamepad_SwapThumbsticks__290 -->
<g id="node15" class="node">
<title>ExecuteUbergraph_Options_Gamepad_SwapThumbsticks__290</title>
<polygon fill="#eeeeee" stroke="black" points="2174.5,-830 2174.5,-866 2281.5,-866 2281.5,-830 2174.5,-830"/>
<text text-anchor="start" x="2182.5" y="-844.3" font-family="monospace" font-size="14.00">EX_Jump 198</text>
</g>
<!-- ExecuteUbergraph_Options_Gamepad_SwapThumbsticks__290&#45;&gt;ExecuteUbergraph_Options_Gamepad_SwapThumbsticks__198 -->
<g id="edge13" class="edge">
<title>ExecuteUbergraph_Options_Gamepad_SwapThumbsticks__290&#45;&gt;ExecuteUbergraph_Options_Gamepad_SwapThumbsticks__198</title>
<path fill="none" stroke="black" d="M2241.5,-830.03C2249.81,-819.58 2260.76,-805.81 2270.81,-793.18"/>
<polygon fill="black" stroke="black" points="2273.49,-795.44 2276.98,-785.43 2268.01,-791.08 2273.49,-795.44"/>
</g>
<!-- ExecuteUbergraph_Options_Gamepad_SwapThumbsticks__295 -->
<g id="node16" class="node">
<title>ExecuteUbergraph_Options_Gamepad_SwapThumbsticks__295</title>
<polygon fill="#eeeeee" stroke="black" points="2915,-731.5 2915,-784.5 3567,-784.5 3567,-731.5 2915,-731.5"/>
<text text-anchor="start" x="2923" y="-769.3" font-family="monospace" font-size="14.00">EX_LetObj</text>
<text text-anchor="start" x="2923" y="-754.3" font-family="monospace" font-size="14.00">  EX_LocalVariable [CallFunc_GetFSDGameUserSettings_ReturnValue_2]</text>
<text text-anchor="start" x="2923" y="-739.3" font-family="monospace" font-size="14.00">  EX_CallMath import /Script/FSD&#45;&gt;FSDGameUserSettings&#45;&gt;GetFSDGameUserSettings</text>
</g>
<!-- ExecuteUbergraph_Options_Gamepad_SwapThumbsticks__315 -->
<g id="node17" class="node">
<title>ExecuteUbergraph_Options_Gamepad_SwapThumbsticks__315</title>
<polygon fill="#eeeeee" stroke="black" points="2869.5,-446.5 2869.5,-529.5 3612.5,-529.5 3612.5,-446.5 2869.5,-446.5"/>
<text text-anchor="start" x="2877.5" y="-514.3" font-family="monospace" font-size="14.00">EX_Context</text>
<text text-anchor="start" x="2877.5" y="-499.3" font-family="monospace" font-size="14.00">  EX_LocalVariable [CallFunc_GetFSDGameUserSettings_ReturnValue_2]</text>
<text text-anchor="start" x="2877.5" y="-484.3" font-family="monospace" font-size="14.00">  EX_FinalFunction import /Script/FSD&#45;&gt;FSDGameUserSettings&#45;&gt;SetSwapControllerThumbsticks</text>
<text text-anchor="start" x="2877.5" y="-469.3" font-family="monospace" font-size="14.00">    EX_LocalVariable [K2Node_ComponentBoundEvent_IsChecked]</text>
<text text-anchor="start" x="2877.5" y="-454.3" font-family="monospace" font-size="14.00">  RValue = []</text>
</g>
<!-- ExecuteUbergraph_Options_Gamepad_SwapThumbsticks__295&#45;&gt;ExecuteUbergraph_Options_Gamepad_SwapThumbsticks__315 -->
<g id="edge14" class="edge">
<title>ExecuteUbergraph_Options_Gamepad_SwapThumbsticks__295&#45;&gt;ExecuteUbergraph_Options_Gamepad_SwapThumbsticks__315</title>
<path fill="none" stroke="black" d="M3241,-731.79C3241,-688.27 3241,-598.21 3241,-540.85"/>
<polygon fill="black" stroke="black" points="3244.5,-541 3241,-531 3237.5,-541 3244.5,-541"/>
</g>
<!-- ExecuteUbergraph_Options_Gamepad_SwapThumbsticks__315&#45;&gt;ExecuteUbergraph_Options_Gamepad_SwapThumbsticks__356 -->
<g id="edge15" class="edge">
<title>ExecuteUbergraph_Options_Gamepad_SwapThumbsticks__315&#45;&gt;ExecuteUbergraph_Options_Gamepad_SwapThumbsticks__356</title>
<path fill="none" stroke="black" d="M3241,-446.89C3241,-403.61 3241,-332.67 3241,-271.5 3241,-271.5 3241,-271.5 3241,-165.5 3241,-125.41 3241,-79.09 3241,-49.8"/>
<polygon fill="black" stroke="black" points="3244.5,-49.87 3241,-39.87 3237.5,-49.87 3244.5,-49.87"/>
</g>
<!-- ExecuteUbergraph_Options_Gamepad_SwapThumbsticks__358 -->
<g id="node19" class="node">
<title>ExecuteUbergraph_Options_Gamepad_SwapThumbsticks__358</title>
<polygon fill="#eeeeee" stroke="black" points="4112,-365 4112,-401 4244,-401 4244,-365 4112,-365"/>
<text text-anchor="start" x="4120" y="-379.3" font-family="monospace" font-size="14.00">EX_EndOfScript</text>
</g>
<!-- BndEvt__Basic_CheckBox_K2Node_ComponentBoundEvent_0_OnCheckStateChanged__DelegateSignature -->
<g id="node20" class="node">
<title>BndEvt__Basic_CheckBox_K2Node_ComponentBoundEvent_0_OnCheckStateChanged__DelegateSignature</title>
<polygon fill="#ff8888" stroke="black" points="2350.5,-1039 2350.5,-1092 3183.5,-1092 3183.5,-1039 2350.5,-1039"/>
<text text-anchor="start" x="2358.5" y="-1076.8" font-family="monospace" font-size="14.00">Function BndEvt__Basic_CheckBox_K2Node_ComponentBoundEvent_0_OnCheckStateChanged__DelegateSignature</text>
<text text-anchor="start" x="2358.5" y="-1061.8" font-family="monospace" font-size="14.00">  BoolProperty IsChecked</text>
<text text-anchor="start" x="2358.5" y="-1046.8" font-family="monospace" font-size="14.00">    CPF_BlueprintVisible|CPF_BlueprintReadOnly|CPF_Parm</text>
</g>
<!-- BndEvt__Basic_CheckBox_K2Node_ComponentBoundEvent_0_OnCheckStateChanged__DelegateSignature__0 -->
<g id="node21" class="node">
<title>BndEvt__Basic_CheckBox_K2Node_ComponentBoundEvent_0_OnCheckStateChanged__DelegateSignature__0</title>
<polygon fill="#eeeeee" stroke="black" points="2482.5,-911.5 2482.5,-949.5 3051.5,-949.5 3051.5,-911.5 2482.5,-911.5"/>
<text text-anchor="start" x="2490.5" y="-934.3" font-family="monospace" font-size="14.00">EX_LetValueOnPersistentFrame [K2Node_ComponentBoundEvent_IsChecked]</text>
<text text-anchor="start" x="2490.5" y="-919.3" font-family="monospace" font-size="14.00">  EX_LocalVariable [IsChecked]</text>
</g>
<!-- BndEvt__Basic_CheckBox_K2Node_ComponentBoundEvent_0_OnCheckStateChanged__DelegateSignature&#45;&gt;BndEvt__Basic_CheckBox_K2Node_ComponentBoundEvent_0_OnCheckStateChanged__DelegateSignature__0 -->
<g id="edge16" class="edge">
<title>BndEvt__Basic_CheckBox_K2Node_ComponentBoundEvent_0_OnCheckStateChanged__DelegateSignature&#45;&gt;BndEvt__Basic_CheckBox_K2Node_ComponentBoundEvent_0_OnCheckStateChanged__DelegateSignature__0</title>
<path fill="none" stroke="black" d="M2767,-1039.17C2767,-1016.84 2767,-984.29 2767,-960.83"/>
<polygon fill="black" stroke="black" points="2770.5,-961 2767,-951 2763.5,-961 2770.5,-961"/>
</g>
<!-- BndEvt__Basic_CheckBox_K2Node_ComponentBoundEvent_0_OnCheckStateChanged__DelegateSignature__18 -->
<g id="node22" class="node">
<title>BndEvt__Basic_CheckBox_K2Node_ComponentBoundEvent_0_OnCheckStateChanged__DelegateSignature__18</title>
<polygon fill="#eeeeee" stroke="black" points="2299.5,-829 2299.5,-867 3240.5,-867 3240.5,-829 2299.5,-829"/>
<text text-anchor="start" x="2307.5" y="-851.8" font-family="monospace" font-size="14.00">EX_LocalFinalFunction export Options_Gamepad_SwapThumbsticks_C&#45;&gt;ExecuteUbergraph_Options_Gamepad_SwapThumbsticks</text>
<text text-anchor="start" x="2307.5" y="-836.8" font-family="monospace" font-size="14.00">  EX_IntConst 295</text>
</g>
<!-- BndEvt__Basic_CheckBox_K2Node_ComponentBoundEvent_0_OnCheckStateChanged__DelegateSignature__0&#45;&gt;BndEvt__Basic_CheckBox_K2Node_ComponentBoundEvent_0_OnCheckStateChanged__DelegateSignature__18 -->
<g id="edge17" class="edge">
<title>BndEvt__Basic_CheckBox_K2Node_ComponentBoundEvent_0_OnCheckStateChanged__DelegateSignature__0&#45;&gt;BndEvt__Basic_CheckBox_K2Node_ComponentBoundEvent_0_OnCheckStateChanged__DelegateSignature__18</title>
<path fill="none" stroke="black" d="M2767.67,-911.63C2768.03,-901.84 2768.49,-889.45 2768.91,-878.28"/>
<polygon fill="black" stroke="black" points="2772.4,-878.45 2769.28,-868.33 2765.41,-878.19 2772.4,-878.45"/>
</g>
<!-- BndEvt__Basic_CheckBox_K2Node_ComponentBoundEvent_0_OnCheckStateChanged__DelegateSignature__18&#45;&gt;ExecuteUbergraph_Options_Gamepad_SwapThumbsticks__295 -->
<g id="edge18" class="edge">
<title>BndEvt__Basic_CheckBox_K2Node_ComponentBoundEvent_0_OnCheckStateChanged__DelegateSignature__18:e&#45;&gt;ExecuteUbergraph_Options_Gamepad_SwapThumbsticks__295</title>
<path fill="none" stroke="red" d="M3242,-848C3264.24,-848 3261.16,-819.86 3254.19,-795.22"/>
<polygon fill="none" stroke="red" points="3257.55,-794.23 3251.24,-785.71 3250.86,-796.3 3257.55,-794.23"/>
</g>
<!-- BndEvt__Basic_CheckBox_K2Node_ComponentBoundEvent_0_OnCheckStateChanged__DelegateSignature__33 -->
<g id="node23" class="node">
<title>BndEvt__Basic_CheckBox_K2Node_ComponentBoundEvent_0_OnCheckStateChanged__DelegateSignature__33</title>
<polygon fill="#eeeeee" stroke="black" points="2712,-739 2712,-777 2828,-777 2828,-739 2712,-739"/>
<text text-anchor="start" x="2720" y="-761.8" font-family="monospace" font-size="14.00">EX_Return</text>
<text text-anchor="start" x="2720" y="-746.8" font-family="monospace" font-size="14.00">  EX_Nothing</text>
</g>
<!-- BndEvt__Basic_CheckBox_K2Node_ComponentBoundEvent_0_OnCheckStateChanged__DelegateSignature__18&#45;&gt;BndEvt__Basic_CheckBox_K2Node_ComponentBoundEvent_0_OnCheckStateChanged__DelegateSignature__33 -->
<g id="edge19" class="edge">
<title>BndEvt__Basic_CheckBox_K2Node_ComponentBoundEvent_0_OnCheckStateChanged__DelegateSignature__18&#45;&gt;BndEvt__Basic_CheckBox_K2Node_ComponentBoundEvent_0_OnCheckStateChanged__DelegateSignature__33</title>
<path fill="none" stroke="black" d="M2770,-829.19C2770,-817.38 2770,-801.62 2770,-788.02"/>
<polygon fill="black" stroke="black" points="2773.5,-788.3 2770,-778.3 2766.5,-788.3 2773.5,-788.3"/>
</g>
<!-- BndEvt__Basic_CheckBox_K2Node_ComponentBoundEvent_0_OnCheckStateChanged__DelegateSignature__35 -->
<g id="node24" class="node">
<title>BndEvt__Basic_CheckBox_K2Node_ComponentBoundEvent_0_OnCheckStateChanged__DelegateSignature__35</title>
<polygon fill="#eeeeee" stroke="black" points="3921,-252.5 3921,-288.5 4053,-288.5 4053,-252.5 3921,-252.5"/>
<text text-anchor="start" x="3929" y="-266.8" font-family="monospace" font-size="14.00">EX_EndOfScript</text>
</g>
<!-- OnRefresh -->
<g id="node25" class="node">
<title>OnRefresh</title>
<polygon fill="#ff8888" stroke="black" points="1674.5,-1047.5 1674.5,-1083.5 1839.5,-1083.5 1839.5,-1047.5 1674.5,-1047.5"/>
<text text-anchor="start" x="1682.5" y="-1061.8" font-family="monospace" font-size="14.00">Function OnRefresh</text>
</g>
<!-- OnRefresh__0 -->
<g id="node26" class="node">
<title>OnRefresh__0</title>
<polygon fill="#eeeeee" stroke="black" points="1286.5,-911.5 1286.5,-949.5 2227.5,-949.5 2227.5,-911.5 1286.5,-911.5"/>
<text text-anchor="start" x="1294.5" y="-934.3" font-family="monospace" font-size="14.00">EX_LocalFinalFunction export Options_Gamepad_SwapThumbsticks_C&#45;&gt;ExecuteUbergraph_Options_Gamepad_SwapThumbsticks</text>
<text text-anchor="start" x="1294.5" y="-919.3" font-family="monospace" font-size="14.00">  EX_IntConst 290</text>
</g>
<!-- OnRefresh&#45;&gt;OnRefresh__0 -->
<g id="edge20" class="edge">
<title>OnRefresh&#45;&gt;OnRefresh__0</title>
<path fill="none" stroke="black" d="M1757,-1047.66C1757,-1025.83 1757,-987.44 1757,-960.79"/>
<polygon fill="black" stroke="black" points="1760.5,-960.99 1757,-950.99 1753.5,-960.99 1760.5,-960.99"/>
</g>
<!-- OnRefresh__0&#45;&gt;ExecuteUbergraph_Options_Gamepad_SwapThumbsticks__290 -->
<g id="edge21" class="edge">
<title>OnRefresh__0:e&#45;&gt;ExecuteUbergraph_Options_Gamepad_SwapThumbsticks__290</title>
<path fill="none" stroke="red" d="M2229,-930.5C2251.11,-930.5 2245.86,-900.14 2238.41,-876.48"/>
<polygon fill="none" stroke="red" points="2241.83,-875.66 2235.29,-867.32 2235.2,-877.91 2241.83,-875.66"/>
</g>
<!-- OnRefresh__15 -->
<g id="node27" class="node">
<title>OnRefresh__15</title>
<polygon fill="#eeeeee" stroke="black" points="1699,-829 1699,-867 1815,-867 1815,-829 1699,-829"/>
<text text-anchor="start" x="1707" y="-851.8" font-family="monospace" font-size="14.00">EX_Return</text>
<text text-anchor="start" x="1707" y="-836.8" font-family="monospace" font-size="14.00">  EX_Nothing</text>
</g>
<!-- OnRefresh__0&#45;&gt;OnRefresh__15 -->
<g id="edge22" class="edge">
<title>OnRefresh__0&#45;&gt;OnRefresh__15</title>
<path fill="none" stroke="black" d="M1757,-911.63C1757,-901.84 1757,-889.45 1757,-878.28"/>
<polygon fill="black" stroke="black" points="1760.5,-878.33 1757,-868.33 1753.5,-878.33 1760.5,-878.33"/>
</g>
<!-- OnRefresh__17 -->
<g id="node28" class="node">
<title>OnRefresh__17</title>
<polygon fill="#eeeeee" stroke="black" points="3689,-148.5 3689,-184.5 3821,-184.5 3821,-148.5 3689,-148.5"/>
<text text-anchor="start" x="3697" y="-162.8" font-family="monospace" font-size="14.00">EX_EndOfScript</text>
</g>
<!-- Construct -->
<g id="node29" class="node">
<title>Construct</title>
<polygon fill="#ff8888" stroke="black" points="3457.5,-1047.5 3457.5,-1083.5 3622.5,-1083.5 3622.5,-1047.5 3457.5,-1047.5"/>
<text text-anchor="start" x="3465.5" y="-1061.8" font-family="monospace" font-size="14.00">Function Construct</text>
</g>
<!-- Construct__0 -->
<g id="node30" class="node">
<title>Construct__0</title>
<polygon fill="#eeeeee" stroke="black" points="3069.5,-911.5 3069.5,-949.5 4010.5,-949.5 4010.5,-911.5 3069.5,-911.5"/>
<text text-anchor="start" x="3077.5" y="-934.3" font-family="monospace" font-size="14.00">EX_LocalFinalFunction export Options_Gamepad_SwapThumbsticks_C&#45;&gt;ExecuteUbergraph_Options_Gamepad_SwapThumbsticks</text>
<text text-anchor="start" x="3077.5" y="-919.3" font-family="monospace" font-size="14.00">  EX_IntConst 10</text>
</g>
<!-- Construct&#45;&gt;Construct__0 -->
<g id="edge23" class="edge">
<title>Construct&#45;&gt;Construct__0</title>
<path fill="none" stroke="black" d="M3540,-1047.66C3540,-1025.83 3540,-987.44 3540,-960.79"/>
<polygon fill="black" stroke="black" points="3543.5,-960.99 3540,-950.99 3536.5,-960.99 3543.5,-960.99"/>
</g>
<!-- Construct__0&#45;&gt;ExecuteUbergraph_Options_Gamepad_SwapThumbsticks__10 -->
<g id="edge24" class="edge">
<title>Construct__0:e&#45;&gt;ExecuteUbergraph_Options_Gamepad_SwapThumbsticks__10</title>
<path fill="none" stroke="red" d="M4012,-930.5C4032.19,-930.5 4024.86,-906.48 4013.94,-884.52"/>
<polygon fill="none" stroke="red" points="4017.04,-882.89 4009.28,-875.68 4010.84,-886.16 4017.04,-882.89"/>
</g>
<!-- Construct__15 -->
<g id="node31" class="node">
<title>Construct__15</title>
<polygon fill="#eeeeee" stroke="black" points="3482,-829 3482,-867 3598,-867 3598,-829 3482,-829"/>
<text text-anchor="start" x="3490" y="-851.8" font-family="monospace" font-size="14.00">EX_Return</text>
<text text-anchor="start" x="3490" y="-836.8" font-family="monospace" font-size="14.00">  EX_Nothing</text>
</g>
<!-- Construct__0&#45;&gt;Construct__15 -->
<g id="edge25" class="edge">
<title>Construct__0&#45;&gt;Construct__15</title>
<path fill="none" stroke="black" d="M3540,-911.63C3540,-901.84 3540,-889.45 3540,-878.28"/>
<polygon fill="black" stroke="black" points="3543.5,-878.33 3540,-868.33 3536.5,-878.33 3543.5,-878.33"/>
</g>
<!-- Construct__17 -->
<g id="node32" class="node">
<title>Construct__17</title>
<polygon fill="#eeeeee" stroke="black" points="3496,-75.5 3496,-111.5 3628,-111.5 3628,-75.5 3496,-75.5"/>
<text text-anchor="start" x="3504" y="-89.8" font-family="monospace" font-size="14.00">EX_EndOfScript</text>
</g>
</g>
</svg>
