<?xml version="1.0" encoding="UTF-8" standalone="no"?>
<!DOCTYPE svg PUBLIC "-//W3C//DTD SVG 1.1//EN"
 "http://www.w3.org/Graphics/SVG/1.1/DTD/svg11.dtd">
<!-- Generated by graphviz version 7.0.1 (0)
 -->
<!-- Pages: 1 -->
<svg width="5831pt" height="1158pt"
 viewBox="0.00 0.00 5830.50 1158.00" xmlns="http://www.w3.org/2000/svg" xmlns:xlink="http://www.w3.org/1999/xlink">
<g id="graph0" class="graph" transform="scale(1 1) rotate(0) translate(4 1154)">
<polygon fill="white" stroke="none" points="-4,4 -4,-1154 5826.5,-1154 5826.5,4 -4,4"/>
<!-- BP_New_SnowStorm_C -->
<g id="node1" class="node">
<title>BP_New_SnowStorm_C</title>
<polygon fill="#88ff88" stroke="black" points="0,-946.5 0,-1149.5 685,-1149.5 685,-946.5 0,-946.5"/>
<text text-anchor="start" x="8" y="-1134.3" font-family="monospace" font-size="14.00">ClassExport: BP_New_SnowStorm_C</text>
<text text-anchor="start" x="8" y="-1119.3" font-family="monospace" font-size="14.00">  SuperStruct: import /Game/Landscape/Biomes/BP_WeatherEffect&#45;&gt;BP_WeatherEffect_C</text>
<text text-anchor="start" x="8" y="-1104.3" font-family="monospace" font-size="14.00">  Properties:</text>
<text text-anchor="start" x="8" y="-1089.3" font-family="monospace" font-size="14.00">    StructProperty UberGraphFrame</text>
<text text-anchor="start" x="8" y="-1074.3" font-family="monospace" font-size="14.00">      CPF_Transient|CPF_DuplicateTransient</text>
<text text-anchor="start" x="8" y="-1059.3" font-family="monospace" font-size="14.00">    FloatProperty Fadeout_OneToZero_321EE05E466F9B8147EEF89FEA0B8335</text>
<text text-anchor="start" x="8" y="-1044.3" font-family="monospace" font-size="14.00">    ByteProperty Fadeout__Direction_321EE05E466F9B8147EEF89FEA0B8335</text>
<text text-anchor="start" x="8" y="-1029.3" font-family="monospace" font-size="14.00">    ObjectProperty Fadeout</text>
<text text-anchor="start" x="8" y="-1014.3" font-family="monospace" font-size="14.00">      CPF_BlueprintVisible|CPF_InstancedReference</text>
<text text-anchor="start" x="8" y="-999.3" font-family="monospace" font-size="14.00">    FloatProperty Fadein_ZeroToOne_A0FCF2DB48CDF89D5DB4DC99F95711E6</text>
<text text-anchor="start" x="8" y="-984.3" font-family="monospace" font-size="14.00">    ByteProperty Fadein__Direction_A0FCF2DB48CDF89D5DB4DC99F95711E6</text>
<text text-anchor="start" x="8" y="-969.3" font-family="monospace" font-size="14.00">    ObjectProperty Fadein</text>
<text text-anchor="start" x="8" y="-954.3" font-family="monospace" font-size="14.00">      CPF_BlueprintVisible|CPF_InstancedReference</text>
</g>
<!-- ExecuteUbergraph_BP_New_SnowStorm -->
<g id="node2" class="node">
<title>ExecuteUbergraph_BP_New_SnowStorm</title>
<polygon fill="#ff8888" stroke="black" points="703.5,-1014 703.5,-1082 1173.5,-1082 1173.5,-1014 703.5,-1014"/>
<text text-anchor="start" x="711.5" y="-1066.8" font-family="monospace" font-size="14.00">Function ExecuteUbergraph_BP_New_SnowStorm</text>
<text text-anchor="start" x="711.5" y="-1051.8" font-family="monospace" font-size="14.00">  IntProperty EntryPoint</text>
<text text-anchor="start" x="711.5" y="-1036.8" font-family="monospace" font-size="14.00">    CPF_BlueprintVisible|CPF_BlueprintReadOnly|CPF_Parm</text>
<text text-anchor="start" x="711.5" y="-1021.8" font-family="monospace" font-size="14.00">  BoolProperty CallFunc_IsValid_ReturnValue</text>
</g>
<!-- ExecuteUbergraph_BP_New_SnowStorm__0 -->
<g id="node3" class="node">
<title>ExecuteUbergraph_BP_New_SnowStorm__0</title>
<polygon fill="#eeeeee" stroke="black" points="802.5,-834.5 802.5,-872.5 1074.5,-872.5 1074.5,-834.5 802.5,-834.5"/>
<text text-anchor="start" x="810.5" y="-857.3" font-family="monospace" font-size="14.00">EX_ComputedJump</text>
<text text-anchor="start" x="810.5" y="-842.3" font-family="monospace" font-size="14.00">  EX_LocalVariable [EntryPoint]</text>
</g>
<!-- ExecuteUbergraph_BP_New_SnowStorm&#45;&gt;ExecuteUbergraph_BP_New_SnowStorm__0 -->
<g id="edge1" class="edge">
<title>ExecuteUbergraph_BP_New_SnowStorm&#45;&gt;ExecuteUbergraph_BP_New_SnowStorm__0</title>
<path fill="none" stroke="black" d="M938.5,-1014.34C938.5,-977.69 938.5,-918.76 938.5,-883.62"/>
<polygon fill="black" stroke="black" points="942,-883.77 938.5,-873.77 935,-883.77 942,-883.77"/>
</g>
<!-- ExecuteUbergraph_BP_New_SnowStorm__10 -->
<g id="node4" class="node">
<title>ExecuteUbergraph_BP_New_SnowStorm__10</title>
<polygon fill="#eeeeee" stroke="black" points="5050,-667.5 5050,-703.5 5157,-703.5 5157,-667.5 5050,-667.5"/>
<text text-anchor="start" x="5058" y="-681.8" font-family="monospace" font-size="14.00">EX_Jump 237</text>
</g>
<!-- ExecuteUbergraph_BP_New_SnowStorm__237 -->
<g id="node21" class="node">
<title>ExecuteUbergraph_BP_New_SnowStorm__237</title>
<polygon fill="#eeeeee" stroke="black" points="3895.5,-0.5 3895.5,-38.5 4011.5,-38.5 4011.5,-0.5 3895.5,-0.5"/>
<text text-anchor="start" x="3903.5" y="-23.3" font-family="monospace" font-size="14.00">EX_Return</text>
<text text-anchor="start" x="3903.5" y="-8.3" font-family="monospace" font-size="14.00">  EX_Nothing</text>
</g>
<!-- ExecuteUbergraph_BP_New_SnowStorm__10&#45;&gt;ExecuteUbergraph_BP_New_SnowStorm__237 -->
<g id="edge2" class="edge">
<title>ExecuteUbergraph_BP_New_SnowStorm__10&#45;&gt;ExecuteUbergraph_BP_New_SnowStorm__237</title>
<path fill="none" stroke="black" d="M5101.13,-667.73C5097.63,-641.5 5091.5,-589.14 5091.5,-544.5 5091.5,-544.5 5091.5,-544.5 5091.5,-93.5 5091.5,-39.66 4269.7,-24.61 4022.81,-21.3"/>
<polygon fill="black" stroke="black" points="4023.06,-17.81 4013.01,-21.17 4022.96,-24.8 4023.06,-17.81"/>
</g>
<!-- ExecuteUbergraph_BP_New_SnowStorm__15 -->
<g id="node5" class="node">
<title>ExecuteUbergraph_BP_New_SnowStorm__15</title>
<polygon fill="#eeeeee" stroke="black" points="1506,-722.5 1506,-760.5 2125,-760.5 2125,-722.5 1506,-722.5"/>
<text text-anchor="start" x="1514" y="-745.3" font-family="monospace" font-size="14.00">EX_LocalVirtualFunction FadeFogAndAudio</text>
<text text-anchor="start" x="1514" y="-730.3" font-family="monospace" font-size="14.00">  EX_InstanceVariable [Fadein_ZeroToOne_A0FCF2DB48CDF89D5DB4DC99F95711E6]</text>
</g>
<!-- ExecuteUbergraph_BP_New_SnowStorm__38 -->
<g id="node6" class="node">
<title>ExecuteUbergraph_BP_New_SnowStorm__38</title>
<polygon fill="#eeeeee" stroke="black" points="2217,-525.5 2217,-561.5 2324,-561.5 2324,-525.5 2217,-525.5"/>
<text text-anchor="start" x="2225" y="-539.8" font-family="monospace" font-size="14.00">EX_Jump 237</text>
</g>
<!-- ExecuteUbergraph_BP_New_SnowStorm__15&#45;&gt;ExecuteUbergraph_BP_New_SnowStorm__38 -->
<g id="edge3" class="edge">
<title>ExecuteUbergraph_BP_New_SnowStorm__15&#45;&gt;ExecuteUbergraph_BP_New_SnowStorm__38</title>
<path fill="none" stroke="black" d="M1857.08,-722.59C1940.99,-686.44 2130.22,-604.93 2220.61,-565.99"/>
<polygon fill="black" stroke="black" points="2221.94,-569.23 2229.74,-562.06 2219.17,-562.8 2221.94,-569.23"/>
</g>
<!-- ExecuteUbergraph_BP_New_SnowStorm__38&#45;&gt;ExecuteUbergraph_BP_New_SnowStorm__237 -->
<g id="edge4" class="edge">
<title>ExecuteUbergraph_BP_New_SnowStorm__38&#45;&gt;ExecuteUbergraph_BP_New_SnowStorm__237</title>
<path fill="none" stroke="black" d="M2323.97,-541.13C2410.96,-535.75 2573.5,-511.15 2573.5,-402.5 2573.5,-402.5 2573.5,-402.5 2573.5,-93.5 2573.5,-27.13 3604.81,-20.96 3884.34,-20.5"/>
<polygon fill="black" stroke="black" points="3884.01,-24 3894.01,-20.49 3884,-17 3884.01,-24"/>
</g>
<!-- ExecuteUbergraph_BP_New_SnowStorm__43 -->
<g id="node7" class="node">
<title>ExecuteUbergraph_BP_New_SnowStorm__43</title>
<polygon fill="#eeeeee" stroke="black" points="2341.5,-723.5 2341.5,-759.5 2679.5,-759.5 2679.5,-723.5 2341.5,-723.5"/>
<text text-anchor="start" x="2349.5" y="-737.8" font-family="monospace" font-size="14.00">EX_LocalVirtualFunction FadeoutComplete</text>
</g>
<!-- ExecuteUbergraph_BP_New_SnowStorm__57 -->
<g id="node8" class="node">
<title>ExecuteUbergraph_BP_New_SnowStorm__57</title>
<polygon fill="#eeeeee" stroke="black" points="2672,-383.5 2672,-419.5 2779,-419.5 2779,-383.5 2672,-383.5"/>
<text text-anchor="start" x="2680" y="-397.8" font-family="monospace" font-size="14.00">EX_Jump 237</text>
</g>
<!-- ExecuteUbergraph_BP_New_SnowStorm__43&#45;&gt;ExecuteUbergraph_BP_New_SnowStorm__57 -->
<g id="edge5" class="edge">
<title>ExecuteUbergraph_BP_New_SnowStorm__43&#45;&gt;ExecuteUbergraph_BP_New_SnowStorm__57</title>
<path fill="none" stroke="black" d="M2521.16,-723.74C2555.98,-669 2666.52,-495.22 2708.82,-428.72"/>
<polygon fill="black" stroke="black" points="2711.55,-430.96 2713.96,-420.64 2705.64,-427.2 2711.55,-430.96"/>
</g>
<!-- ExecuteUbergraph_BP_New_SnowStorm__57&#45;&gt;ExecuteUbergraph_BP_New_SnowStorm__237 -->
<g id="edge6" class="edge">
<title>ExecuteUbergraph_BP_New_SnowStorm__57&#45;&gt;ExecuteUbergraph_BP_New_SnowStorm__237</title>
<path fill="none" stroke="black" d="M2778.76,-395.99C2840.98,-387.46 2935.5,-362.91 2935.5,-292.5 2935.5,-292.5 2935.5,-292.5 2935.5,-93.5 2935.5,-45.82 3655.25,-26.71 3884.35,-21.84"/>
<polygon fill="black" stroke="black" points="3884.41,-25.34 3894.34,-21.63 3884.27,-18.34 3884.41,-25.34"/>
</g>
<!-- ExecuteUbergraph_BP_New_SnowStorm__62 -->
<g id="node9" class="node">
<title>ExecuteUbergraph_BP_New_SnowStorm__62</title>
<polygon fill="#eeeeee" stroke="black" points="3364,-186.5 3364,-254.5 3917,-254.5 3917,-186.5 3364,-186.5"/>
<text text-anchor="start" x="3372" y="-239.3" font-family="monospace" font-size="14.00">EX_Context</text>
<text text-anchor="start" x="3372" y="-224.3" font-family="monospace" font-size="14.00">  EX_InstanceVariable [Fadein]</text>
<text text-anchor="start" x="3372" y="-209.3" font-family="monospace" font-size="14.00">  EX_FinalFunction import /Script/Engine&#45;&gt;TimelineComponent&#45;&gt;Play</text>
<text text-anchor="start" x="3372" y="-194.3" font-family="monospace" font-size="14.00">  RValue = []</text>
</g>
<!-- ExecuteUbergraph_BP_New_SnowStorm__94 -->
<g id="node10" class="node">
<title>ExecuteUbergraph_BP_New_SnowStorm__94</title>
<polygon fill="#eeeeee" stroke="black" points="3745,-76.5 3745,-112.5 3852,-112.5 3852,-76.5 3745,-76.5"/>
<text text-anchor="start" x="3753" y="-90.8" font-family="monospace" font-size="14.00">EX_Jump 237</text>
</g>
<!-- ExecuteUbergraph_BP_New_SnowStorm__62&#45;&gt;ExecuteUbergraph_BP_New_SnowStorm__94 -->
<g id="edge7" class="edge">
<title>ExecuteUbergraph_BP_New_SnowStorm__62&#45;&gt;ExecuteUbergraph_BP_New_SnowStorm__94</title>
<path fill="none" stroke="black" d="M3682.43,-186.6C3709.5,-165.35 3744.09,-138.2 3768.44,-119.09"/>
<polygon fill="black" stroke="black" points="3770.34,-122.05 3776.05,-113.12 3766.02,-116.54 3770.34,-122.05"/>
</g>
<!-- ExecuteUbergraph_BP_New_SnowStorm__94&#45;&gt;ExecuteUbergraph_BP_New_SnowStorm__237 -->
<g id="edge8" class="edge">
<title>ExecuteUbergraph_BP_New_SnowStorm__94&#45;&gt;ExecuteUbergraph_BP_New_SnowStorm__237</title>
<path fill="none" stroke="black" d="M3834.45,-76.57C3855.47,-66.67 3882.27,-54.05 3905.12,-43.28"/>
<polygon fill="black" stroke="black" points="3906.38,-46.56 3913.94,-39.13 3903.4,-40.23 3906.38,-46.56"/>
</g>
<!-- ExecuteUbergraph_BP_New_SnowStorm__99 -->
<g id="node11" class="node">
<title>ExecuteUbergraph_BP_New_SnowStorm__99</title>
<polygon fill="#eeeeee" stroke="black" points="3834,-722.5 3834,-760.5 4461,-760.5 4461,-722.5 3834,-722.5"/>
<text text-anchor="start" x="3842" y="-745.3" font-family="monospace" font-size="14.00">EX_LocalVirtualFunction FadeFogAndAudio</text>
<text text-anchor="start" x="3842" y="-730.3" font-family="monospace" font-size="14.00">  EX_InstanceVariable [Fadeout_OneToZero_321EE05E466F9B8147EEF89FEA0B8335]</text>
</g>
<!-- ExecuteUbergraph_BP_New_SnowStorm__122 -->
<g id="node12" class="node">
<title>ExecuteUbergraph_BP_New_SnowStorm__122</title>
<polygon fill="#eeeeee" stroke="black" points="4005,-273.5 4005,-309.5 4112,-309.5 4112,-273.5 4005,-273.5"/>
<text text-anchor="start" x="4013" y="-287.8" font-family="monospace" font-size="14.00">EX_Jump 237</text>
</g>
<!-- ExecuteUbergraph_BP_New_SnowStorm__99&#45;&gt;ExecuteUbergraph_BP_New_SnowStorm__122 -->
<g id="edge9" class="edge">
<title>ExecuteUbergraph_BP_New_SnowStorm__99&#45;&gt;ExecuteUbergraph_BP_New_SnowStorm__122</title>
<path fill="none" stroke="black" d="M4138.26,-722.83C4126.72,-699.09 4108.5,-655.28 4108.5,-615.5 4108.5,-615.5 4108.5,-615.5 4108.5,-400.5 4108.5,-370.36 4092.26,-339.49 4078.29,-318.52"/>
<polygon fill="black" stroke="black" points="4081.35,-316.79 4072.76,-310.59 4075.61,-320.79 4081.35,-316.79"/>
</g>
<!-- ExecuteUbergraph_BP_New_SnowStorm__122&#45;&gt;ExecuteUbergraph_BP_New_SnowStorm__237 -->
<g id="edge10" class="edge">
<title>ExecuteUbergraph_BP_New_SnowStorm__122&#45;&gt;ExecuteUbergraph_BP_New_SnowStorm__237</title>
<path fill="none" stroke="black" d="M4051.93,-273.61C4034.42,-228.57 3986.45,-105.22 3964.6,-49.04"/>
<polygon fill="black" stroke="black" points="3967.91,-47.9 3961.02,-39.85 3961.39,-50.44 3967.91,-47.9"/>
</g>
<!-- ExecuteUbergraph_BP_New_SnowStorm__127 -->
<g id="node13" class="node">
<title>ExecuteUbergraph_BP_New_SnowStorm__127</title>
<polygon fill="#eeeeee" stroke="black" points="4336,-438.5 4336,-506.5 4963,-506.5 4963,-438.5 4336,-438.5"/>
<text text-anchor="start" x="4344" y="-491.3" font-family="monospace" font-size="14.00">EX_Context</text>
<text text-anchor="start" x="4344" y="-476.3" font-family="monospace" font-size="14.00">  EX_InstanceVariable [Fadeout]</text>
<text text-anchor="start" x="4344" y="-461.3" font-family="monospace" font-size="14.00">  EX_FinalFunction import /Script/Engine&#45;&gt;TimelineComponent&#45;&gt;PlayFromStart</text>
<text text-anchor="start" x="4344" y="-446.3" font-family="monospace" font-size="14.00">  RValue = []</text>
</g>
<!-- ExecuteUbergraph_BP_New_SnowStorm__159 -->
<g id="node14" class="node">
<title>ExecuteUbergraph_BP_New_SnowStorm__159</title>
<polygon fill="#eeeeee" stroke="black" points="4215,-202.5 4215,-238.5 4322,-238.5 4322,-202.5 4215,-202.5"/>
<text text-anchor="start" x="4223" y="-216.8" font-family="monospace" font-size="14.00">EX_Jump 237</text>
</g>
<!-- ExecuteUbergraph_BP_New_SnowStorm__127&#45;&gt;ExecuteUbergraph_BP_New_SnowStorm__159 -->
<g id="edge11" class="edge">
<title>ExecuteUbergraph_BP_New_SnowStorm__127&#45;&gt;ExecuteUbergraph_BP_New_SnowStorm__159</title>
<path fill="none" stroke="black" d="M4599.3,-438.56C4520.91,-387.13 4371.41,-289.03 4303.56,-244.5"/>
<polygon fill="black" stroke="black" points="4305.7,-241.72 4295.42,-239.16 4301.86,-247.58 4305.7,-241.72"/>
</g>
<!-- ExecuteUbergraph_BP_New_SnowStorm__159&#45;&gt;ExecuteUbergraph_BP_New_SnowStorm__237 -->
<g id="edge12" class="edge">
<title>ExecuteUbergraph_BP_New_SnowStorm__159&#45;&gt;ExecuteUbergraph_BP_New_SnowStorm__237</title>
<path fill="none" stroke="black" d="M4252.64,-202.73C4220.98,-170.16 4146.42,-97.97 4070.5,-57 4055.45,-48.88 4038.31,-42.26 4021.88,-37"/>
<polygon fill="black" stroke="black" points="4023.25,-33.75 4012.67,-34.18 4021.2,-40.45 4023.25,-33.75"/>
</g>
<!-- ExecuteUbergraph_BP_New_SnowStorm__164 -->
<g id="node15" class="node">
<title>ExecuteUbergraph_BP_New_SnowStorm__164</title>
<polygon fill="#eeeeee" stroke="black" points="2831.5,-723.5 2831.5,-759.5 3681.5,-759.5 3681.5,-723.5 2831.5,-723.5"/>
<text text-anchor="start" x="2839.5" y="-737.8" font-family="monospace" font-size="14.00">EX_LocalFinalFunction import /Game/Landscape/Biomes/BP_WeatherEffect&#45;&gt;BP_WeatherEffect_C&#45;&gt;StartEffect</text>
</g>
<!-- ExecuteUbergraph_BP_New_SnowStorm__174 -->
<g id="node16" class="node">
<title>ExecuteUbergraph_BP_New_SnowStorm__174</title>
<polygon fill="#eeeeee" stroke="black" points="3233,-580.5 3233,-648.5 3786,-648.5 3786,-580.5 3233,-580.5"/>
<text text-anchor="start" x="3241" y="-633.3" font-family="monospace" font-size="14.00">EX_LetBool</text>
<text text-anchor="start" x="3241" y="-618.3" font-family="monospace" font-size="14.00">  EX_LocalVariable [CallFunc_IsValid_ReturnValue]</text>
<text text-anchor="start" x="3241" y="-603.3" font-family="monospace" font-size="14.00">  EX_CallMath import /Script/Engine&#45;&gt;KismetSystemLibrary&#45;&gt;IsValid</text>
<text text-anchor="start" x="3241" y="-588.3" font-family="monospace" font-size="14.00">    EX_InstanceVariable [Fog]</text>
</g>
<!-- ExecuteUbergraph_BP_New_SnowStorm__164&#45;&gt;ExecuteUbergraph_BP_New_SnowStorm__174 -->
<g id="edge13" class="edge">
<title>ExecuteUbergraph_BP_New_SnowStorm__164&#45;&gt;ExecuteUbergraph_BP_New_SnowStorm__174</title>
<path fill="none" stroke="black" d="M3290.88,-723.51C3327.13,-705.6 3385.43,-676.8 3432.71,-653.44"/>
<polygon fill="black" stroke="black" points="3434.15,-656.63 3441.57,-649.06 3431.05,-650.36 3434.15,-656.63"/>
</g>
<!-- ExecuteUbergraph_BP_New_SnowStorm__203 -->
<g id="node17" class="node">
<title>ExecuteUbergraph_BP_New_SnowStorm__203</title>
<polygon fill="#eeeeee" stroke="black" points="3430,-453.5 3430,-491.5 3851,-491.5 3851,-453.5 3430,-453.5"/>
<text text-anchor="start" x="3438" y="-476.3" font-family="monospace" font-size="14.00">EX_JumpIfNot 237</text>
<text text-anchor="start" x="3438" y="-461.3" font-family="monospace" font-size="14.00">  EX_LocalVariable [CallFunc_IsValid_ReturnValue]</text>
</g>
<!-- ExecuteUbergraph_BP_New_SnowStorm__174&#45;&gt;ExecuteUbergraph_BP_New_SnowStorm__203 -->
<g id="edge14" class="edge">
<title>ExecuteUbergraph_BP_New_SnowStorm__174&#45;&gt;ExecuteUbergraph_BP_New_SnowStorm__203</title>
<path fill="none" stroke="black" d="M3540.21,-580.68C3563.42,-555.88 3594.82,-522.32 3616.27,-499.4"/>
<polygon fill="black" stroke="black" points="3618.65,-501.97 3622.93,-492.28 3613.54,-497.19 3618.65,-501.97"/>
</g>
<!-- ExecuteUbergraph_BP_New_SnowStorm__217 -->
<g id="node18" class="node">
<title>ExecuteUbergraph_BP_New_SnowStorm__217</title>
<polygon fill="#eeeeee" stroke="black" points="3591,-328.5 3591,-364.5 3690,-364.5 3690,-328.5 3591,-328.5"/>
<text text-anchor="start" x="3599" y="-342.8" font-family="monospace" font-size="14.00">EX_Jump 62</text>
</g>
<!-- ExecuteUbergraph_BP_New_SnowStorm__203&#45;&gt;ExecuteUbergraph_BP_New_SnowStorm__217 -->
<g id="edge16" class="edge">
<title>ExecuteUbergraph_BP_New_SnowStorm__203&#45;&gt;ExecuteUbergraph_BP_New_SnowStorm__217</title>
<path fill="none" stroke="black" d="M3640.5,-453.73C3640.5,-433.34 3640.5,-399.62 3640.5,-375.64"/>
<polygon fill="black" stroke="black" points="3644,-375.95 3640.5,-365.95 3637,-375.95 3644,-375.95"/>
<text text-anchor="middle" x="3649" y="-397.8" font-family="monospace" font-size="14.00">IF</text>
</g>
<!-- ExecuteUbergraph_BP_New_SnowStorm__203&#45;&gt;ExecuteUbergraph_BP_New_SnowStorm__237 -->
<g id="edge15" class="edge">
<title>ExecuteUbergraph_BP_New_SnowStorm__203:e&#45;&gt;ExecuteUbergraph_BP_New_SnowStorm__237</title>
<path fill="none" stroke="red" d="M3852.5,-472.5C3923.92,-472.5 3953.5,-418.92 3953.5,-347.5 3953.5,-347.5 3953.5,-347.5 3953.5,-93.5 3953.5,-79.14 3953.5,-63.19 3953.5,-49.87"/>
<polygon fill="none" stroke="red" points="3957,-50.01 3953.5,-40.01 3950,-50.01 3957,-50.01"/>
<text text-anchor="middle" x="3978.5" y="-216.8" font-family="monospace" font-size="14.00">IF NOT</text>
</g>
<!-- ExecuteUbergraph_BP_New_SnowStorm__217&#45;&gt;ExecuteUbergraph_BP_New_SnowStorm__62 -->
<g id="edge17" class="edge">
<title>ExecuteUbergraph_BP_New_SnowStorm__217&#45;&gt;ExecuteUbergraph_BP_New_SnowStorm__62</title>
<path fill="none" stroke="black" d="M3640.5,-328.52C3640.5,-312.38 3640.5,-287.42 3640.5,-265.66"/>
<polygon fill="black" stroke="black" points="3644,-265.82 3640.5,-255.82 3637,-265.82 3644,-265.82"/>
</g>
<!-- ExecuteUbergraph_BP_New_SnowStorm__222 -->
<g id="node19" class="node">
<title>ExecuteUbergraph_BP_New_SnowStorm__222</title>
<polygon fill="#eeeeee" stroke="black" points="4614,-723.5 4614,-759.5 5447,-759.5 5447,-723.5 4614,-723.5"/>
<text text-anchor="start" x="4622" y="-737.8" font-family="monospace" font-size="14.00">EX_LocalFinalFunction import /Game/Landscape/Biomes/BP_WeatherEffect&#45;&gt;BP_WeatherEffect_C&#45;&gt;EndEffect</text>
</g>
<!-- ExecuteUbergraph_BP_New_SnowStorm__232 -->
<g id="node20" class="node">
<title>ExecuteUbergraph_BP_New_SnowStorm__232</title>
<polygon fill="#eeeeee" stroke="black" points="4826,-596.5 4826,-632.5 4933,-632.5 4933,-596.5 4826,-596.5"/>
<text text-anchor="start" x="4834" y="-610.8" font-family="monospace" font-size="14.00">EX_Jump 127</text>
</g>
<!-- ExecuteUbergraph_BP_New_SnowStorm__222&#45;&gt;ExecuteUbergraph_BP_New_SnowStorm__232 -->
<g id="edge18" class="edge">
<title>ExecuteUbergraph_BP_New_SnowStorm__222&#45;&gt;ExecuteUbergraph_BP_New_SnowStorm__232</title>
<path fill="none" stroke="black" d="M5010.14,-723.64C4984.02,-702.02 4938.55,-664.38 4908.73,-639.7"/>
<polygon fill="black" stroke="black" points="4911.12,-637.14 4901.19,-633.46 4906.66,-642.53 4911.12,-637.14"/>
</g>
<!-- ExecuteUbergraph_BP_New_SnowStorm__232&#45;&gt;ExecuteUbergraph_BP_New_SnowStorm__127 -->
<g id="edge19" class="edge">
<title>ExecuteUbergraph_BP_New_SnowStorm__232&#45;&gt;ExecuteUbergraph_BP_New_SnowStorm__127</title>
<path fill="none" stroke="black" d="M4851.76,-596.61C4817.7,-575.88 4758.86,-540.07 4713.4,-512.39"/>
<polygon fill="black" stroke="black" points="4715.28,-509.44 4704.92,-507.23 4711.64,-515.42 4715.28,-509.44"/>
</g>
<!-- ExecuteUbergraph_BP_New_SnowStorm__239 -->
<g id="node22" class="node">
<title>ExecuteUbergraph_BP_New_SnowStorm__239</title>
<polygon fill="#eeeeee" stroke="black" points="5473.5,-891.5 5473.5,-927.5 5605.5,-927.5 5605.5,-891.5 5473.5,-891.5"/>
<text text-anchor="start" x="5481.5" y="-905.8" font-family="monospace" font-size="14.00">EX_EndOfScript</text>
</g>
<!-- EndEffect -->
<g id="node23" class="node">
<title>EndEffect</title>
<polygon fill="#ff8888" stroke="black" points="4492,-1030 4492,-1066 4657,-1066 4657,-1030 4492,-1030"/>
<text text-anchor="start" x="4500" y="-1044.3" font-family="monospace" font-size="14.00">Function EndEffect</text>
</g>
<!-- EndEffect__0 -->
<g id="node24" class="node">
<title>EndEffect__0</title>
<polygon fill="#eeeeee" stroke="black" points="4228,-834.5 4228,-872.5 4921,-872.5 4921,-834.5 4228,-834.5"/>
<text text-anchor="start" x="4236" y="-857.3" font-family="monospace" font-size="14.00">EX_LocalFinalFunction export BP_New_SnowStorm_C&#45;&gt;ExecuteUbergraph_BP_New_SnowStorm</text>
<text text-anchor="start" x="4236" y="-842.3" font-family="monospace" font-size="14.00">  EX_IntConst 222</text>
</g>
<!-- EndEffect&#45;&gt;EndEffect__0 -->
<g id="edge20" class="edge">
<title>EndEffect&#45;&gt;EndEffect__0</title>
<path fill="none" stroke="black" d="M4574.5,-1030.25C4574.5,-997.52 4574.5,-924.7 4574.5,-883.81"/>
<polygon fill="black" stroke="black" points="4578,-883.97 4574.5,-873.97 4571,-883.97 4578,-883.97"/>
</g>
<!-- EndEffect__0&#45;&gt;ExecuteUbergraph_BP_New_SnowStorm__222 -->
<g id="edge21" class="edge">
<title>EndEffect__0:e&#45;&gt;ExecuteUbergraph_BP_New_SnowStorm__222</title>
<path fill="none" stroke="red" d="M4922.5,-853.5C4969.12,-853.5 5002.14,-802.57 5018.59,-769.71"/>
<polygon fill="none" stroke="red" points="5021.73,-771.26 5022.87,-760.72 5015.41,-768.24 5021.73,-771.26"/>
</g>
<!-- EndEffect__15 -->
<g id="node25" class="node">
<title>EndEffect__15</title>
<polygon fill="#eeeeee" stroke="black" points="4479.5,-722.5 4479.5,-760.5 4595.5,-760.5 4595.5,-722.5 4479.5,-722.5"/>
<text text-anchor="start" x="4487.5" y="-745.3" font-family="monospace" font-size="14.00">EX_Return</text>
<text text-anchor="start" x="4487.5" y="-730.3" font-family="monospace" font-size="14.00">  EX_Nothing</text>
</g>
<!-- EndEffect__0&#45;&gt;EndEffect__15 -->
<g id="edge22" class="edge">
<title>EndEffect__0&#45;&gt;EndEffect__15</title>
<path fill="none" stroke="black" d="M4568.56,-834.83C4562.79,-817.69 4553.95,-791.4 4547.17,-771.25"/>
<polygon fill="black" stroke="black" points="4550.54,-770.29 4544.04,-761.93 4543.91,-772.52 4550.54,-770.29"/>
</g>
<!-- EndEffect__17 -->
<g id="node26" class="node">
<title>EndEffect__17</title>
<polygon fill="#eeeeee" stroke="black" points="5690.5,-779.5 5690.5,-815.5 5822.5,-815.5 5822.5,-779.5 5690.5,-779.5"/>
<text text-anchor="start" x="5698.5" y="-793.8" font-family="monospace" font-size="14.00">EX_EndOfScript</text>
</g>
<!-- StartEffect -->
<g id="node27" class="node">
<title>StartEffect</title>
<polygon fill="#ff8888" stroke="black" points="2799.5,-1030 2799.5,-1066 2981.5,-1066 2981.5,-1030 2799.5,-1030"/>
<text text-anchor="start" x="2807.5" y="-1044.3" font-family="monospace" font-size="14.00">Function StartEffect</text>
</g>
<!-- StartEffect__0 -->
<g id="node28" class="node">
<title>StartEffect__0</title>
<polygon fill="#eeeeee" stroke="black" points="2544,-834.5 2544,-872.5 3237,-872.5 3237,-834.5 2544,-834.5"/>
<text text-anchor="start" x="2552" y="-857.3" font-family="monospace" font-size="14.00">EX_LocalFinalFunction export BP_New_SnowStorm_C&#45;&gt;ExecuteUbergraph_BP_New_SnowStorm</text>
<text text-anchor="start" x="2552" y="-842.3" font-family="monospace" font-size="14.00">  EX_IntConst 164</text>
</g>
<!-- StartEffect&#45;&gt;StartEffect__0 -->
<g id="edge23" class="edge">
<title>StartEffect&#45;&gt;StartEffect__0</title>
<path fill="none" stroke="black" d="M2890.5,-1030.25C2890.5,-997.52 2890.5,-924.7 2890.5,-883.81"/>
<polygon fill="black" stroke="black" points="2894,-883.97 2890.5,-873.97 2887,-883.97 2894,-883.97"/>
</g>
<!-- StartEffect__0&#45;&gt;ExecuteUbergraph_BP_New_SnowStorm__164 -->
<g id="edge24" class="edge">
<title>StartEffect__0:e&#45;&gt;ExecuteUbergraph_BP_New_SnowStorm__164</title>
<path fill="none" stroke="red" d="M3238.5,-853.5C3272.06,-853.5 3268.67,-803.46 3262.81,-770.57"/>
<polygon fill="none" stroke="red" points="3266.27,-769.98 3260.9,-760.84 3259.4,-771.33 3266.27,-769.98"/>
</g>
<!-- StartEffect__15 -->
<g id="node29" class="node">
<title>StartEffect__15</title>
<polygon fill="#eeeeee" stroke="black" points="2697.5,-722.5 2697.5,-760.5 2813.5,-760.5 2813.5,-722.5 2697.5,-722.5"/>
<text text-anchor="start" x="2705.5" y="-745.3" font-family="monospace" font-size="14.00">EX_Return</text>
<text text-anchor="start" x="2705.5" y="-730.3" font-family="monospace" font-size="14.00">  EX_Nothing</text>
</g>
<!-- StartEffect__0&#45;&gt;StartEffect__15 -->
<g id="edge25" class="edge">
<title>StartEffect__0&#45;&gt;StartEffect__15</title>
<path fill="none" stroke="black" d="M2868.51,-834.58C2846.15,-816.36 2811.32,-787.99 2786.24,-767.55"/>
<polygon fill="black" stroke="black" points="2788.62,-764.97 2778.65,-761.37 2784.2,-770.4 2788.62,-764.97"/>
</g>
<!-- StartEffect__17 -->
<g id="node30" class="node">
<title>StartEffect__17</title>
<polygon fill="#eeeeee" stroke="black" points="5162.5,-667.5 5162.5,-703.5 5294.5,-703.5 5294.5,-667.5 5162.5,-667.5"/>
<text text-anchor="start" x="5170.5" y="-681.8" font-family="monospace" font-size="14.00">EX_EndOfScript</text>
</g>
<!-- Fadeout__UpdateFunc -->
<g id="node31" class="node">
<title>Fadeout__UpdateFunc</title>
<polygon fill="#ff8888" stroke="black" points="3644.5,-1030 3644.5,-1066 3892.5,-1066 3892.5,-1030 3644.5,-1030"/>
<text text-anchor="start" x="3652.5" y="-1044.3" font-family="monospace" font-size="14.00">Function Fadeout__UpdateFunc</text>
</g>
<!-- Fadeout__UpdateFunc__0 -->
<g id="node32" class="node">
<title>Fadeout__UpdateFunc__0</title>
<polygon fill="#eeeeee" stroke="black" points="3422,-834.5 3422,-872.5 4115,-872.5 4115,-834.5 3422,-834.5"/>
<text text-anchor="start" x="3430" y="-857.3" font-family="monospace" font-size="14.00">EX_LocalFinalFunction export BP_New_SnowStorm_C&#45;&gt;ExecuteUbergraph_BP_New_SnowStorm</text>
<text text-anchor="start" x="3430" y="-842.3" font-family="monospace" font-size="14.00">  EX_IntConst 99</text>
</g>
<!-- Fadeout__UpdateFunc&#45;&gt;Fadeout__UpdateFunc__0 -->
<g id="edge26" class="edge">
<title>Fadeout__UpdateFunc&#45;&gt;Fadeout__UpdateFunc__0</title>
<path fill="none" stroke="black" d="M3768.5,-1030.25C3768.5,-997.52 3768.5,-924.7 3768.5,-883.81"/>
<polygon fill="black" stroke="black" points="3772,-883.97 3768.5,-873.97 3765,-883.97 3772,-883.97"/>
</g>
<!-- Fadeout__UpdateFunc__0&#45;&gt;ExecuteUbergraph_BP_New_SnowStorm__99 -->
<g id="edge27" class="edge">
<title>Fadeout__UpdateFunc__0:e&#45;&gt;ExecuteUbergraph_BP_New_SnowStorm__99</title>
<path fill="none" stroke="red" d="M4116.5,-853.5C4150.54,-853.5 4153.03,-804.49 4150.87,-771.6"/>
<polygon fill="none" stroke="red" points="4154.37,-771.51 4150.04,-761.84 4147.4,-772.1 4154.37,-771.51"/>
</g>
<!-- Fadeout__UpdateFunc__15 -->
<g id="node33" class="node">
<title>Fadeout__UpdateFunc__15</title>
<polygon fill="#eeeeee" stroke="black" points="3699.5,-722.5 3699.5,-760.5 3815.5,-760.5 3815.5,-722.5 3699.5,-722.5"/>
<text text-anchor="start" x="3707.5" y="-745.3" font-family="monospace" font-size="14.00">EX_Return</text>
<text text-anchor="start" x="3707.5" y="-730.3" font-family="monospace" font-size="14.00">  EX_Nothing</text>
</g>
<!-- Fadeout__UpdateFunc__0&#45;&gt;Fadeout__UpdateFunc__15 -->
<g id="edge28" class="edge">
<title>Fadeout__UpdateFunc__0&#45;&gt;Fadeout__UpdateFunc__15</title>
<path fill="none" stroke="black" d="M3766.73,-834.83C3765.03,-817.85 3762.44,-791.88 3760.43,-771.81"/>
<polygon fill="black" stroke="black" points="3763.93,-771.6 3759.45,-762 3756.96,-772.3 3763.93,-771.6"/>
</g>
<!-- Fadeout__UpdateFunc__17 -->
<g id="node34" class="node">
<title>Fadeout__UpdateFunc__17</title>
<polygon fill="#eeeeee" stroke="black" points="5106.5,-525.5 5106.5,-561.5 5238.5,-561.5 5238.5,-525.5 5106.5,-525.5"/>
<text text-anchor="start" x="5114.5" y="-539.8" font-family="monospace" font-size="14.00">EX_EndOfScript</text>
</g>
<!-- Fadeout__FinishedFunc -->
<g id="node35" class="node">
<title>Fadeout__FinishedFunc</title>
<polygon fill="#ff8888" stroke="black" points="2038.5,-1030 2038.5,-1066 2302.5,-1066 2302.5,-1030 2038.5,-1030"/>
<text text-anchor="start" x="2046.5" y="-1044.3" font-family="monospace" font-size="14.00">Function Fadeout__FinishedFunc</text>
</g>
<!-- Fadeout__FinishedFunc__0 -->
<g id="node36" class="node">
<title>Fadeout__FinishedFunc__0</title>
<polygon fill="#eeeeee" stroke="black" points="1824,-834.5 1824,-872.5 2517,-872.5 2517,-834.5 1824,-834.5"/>
<text text-anchor="start" x="1832" y="-857.3" font-family="monospace" font-size="14.00">EX_LocalFinalFunction export BP_New_SnowStorm_C&#45;&gt;ExecuteUbergraph_BP_New_SnowStorm</text>
<text text-anchor="start" x="1832" y="-842.3" font-family="monospace" font-size="14.00">  EX_IntConst 43</text>
</g>
<!-- Fadeout__FinishedFunc&#45;&gt;Fadeout__FinishedFunc__0 -->
<g id="edge29" class="edge">
<title>Fadeout__FinishedFunc&#45;&gt;Fadeout__FinishedFunc__0</title>
<path fill="none" stroke="black" d="M2170.5,-1030.25C2170.5,-997.52 2170.5,-924.7 2170.5,-883.81"/>
<polygon fill="black" stroke="black" points="2174,-883.97 2170.5,-873.97 2167,-883.97 2174,-883.97"/>
</g>
<!-- Fadeout__FinishedFunc__0&#45;&gt;ExecuteUbergraph_BP_New_SnowStorm__43 -->
<g id="edge30" class="edge">
<title>Fadeout__FinishedFunc__0:e&#45;&gt;ExecuteUbergraph_BP_New_SnowStorm__43</title>
<path fill="none" stroke="red" d="M2518.5,-853.5C2535.18,-853.5 2525.72,-803.02 2517.8,-770.14"/>
<polygon fill="none" stroke="red" points="2521.29,-769.68 2515.47,-760.83 2514.5,-771.38 2521.29,-769.68"/>
</g>
<!-- Fadeout__FinishedFunc__15 -->
<g id="node37" class="node">
<title>Fadeout__FinishedFunc__15</title>
<polygon fill="#eeeeee" stroke="black" points="2143.5,-722.5 2143.5,-760.5 2259.5,-760.5 2259.5,-722.5 2143.5,-722.5"/>
<text text-anchor="start" x="2151.5" y="-745.3" font-family="monospace" font-size="14.00">EX_Return</text>
<text text-anchor="start" x="2151.5" y="-730.3" font-family="monospace" font-size="14.00">  EX_Nothing</text>
</g>
<!-- Fadeout__FinishedFunc__0&#45;&gt;Fadeout__FinishedFunc__15 -->
<g id="edge31" class="edge">
<title>Fadeout__FinishedFunc__0&#45;&gt;Fadeout__FinishedFunc__15</title>
<path fill="none" stroke="black" d="M2175.48,-834.83C2180.29,-817.77 2187.65,-791.64 2193.32,-771.53"/>
<polygon fill="black" stroke="black" points="2196.67,-772.53 2196.02,-761.95 2189.94,-770.63 2196.67,-772.53"/>
</g>
<!-- Fadeout__FinishedFunc__17 -->
<g id="node38" class="node">
<title>Fadeout__FinishedFunc__17</title>
<polygon fill="#eeeeee" stroke="black" points="5106.5,-383.5 5106.5,-419.5 5238.5,-419.5 5238.5,-383.5 5106.5,-383.5"/>
<text text-anchor="start" x="5114.5" y="-397.8" font-family="monospace" font-size="14.00">EX_EndOfScript</text>
</g>
<!-- Fadein__UpdateFunc -->
<g id="node39" class="node">
<title>Fadein__UpdateFunc</title>
<polygon fill="#ff8888" stroke="black" points="1320,-1030 1320,-1066 1559,-1066 1559,-1030 1320,-1030"/>
<text text-anchor="start" x="1328" y="-1044.3" font-family="monospace" font-size="14.00">Function Fadein__UpdateFunc</text>
</g>
<!-- Fadein__UpdateFunc__0 -->
<g id="node40" class="node">
<title>Fadein__UpdateFunc__0</title>
<polygon fill="#eeeeee" stroke="black" points="1093,-834.5 1093,-872.5 1786,-872.5 1786,-834.5 1093,-834.5"/>
<text text-anchor="start" x="1101" y="-857.3" font-family="monospace" font-size="14.00">EX_LocalFinalFunction export BP_New_SnowStorm_C&#45;&gt;ExecuteUbergraph_BP_New_SnowStorm</text>
<text text-anchor="start" x="1101" y="-842.3" font-family="monospace" font-size="14.00">  EX_IntConst 15</text>
</g>
<!-- Fadein__UpdateFunc&#45;&gt;Fadein__UpdateFunc__0 -->
<g id="edge32" class="edge">
<title>Fadein__UpdateFunc&#45;&gt;Fadein__UpdateFunc__0</title>
<path fill="none" stroke="black" d="M1439.5,-1030.25C1439.5,-997.52 1439.5,-924.7 1439.5,-883.81"/>
<polygon fill="black" stroke="black" points="1443,-883.97 1439.5,-873.97 1436,-883.97 1443,-883.97"/>
</g>
<!-- Fadein__UpdateFunc__0&#45;&gt;ExecuteUbergraph_BP_New_SnowStorm__15 -->
<g id="edge33" class="edge">
<title>Fadein__UpdateFunc__0:e&#45;&gt;ExecuteUbergraph_BP_New_SnowStorm__15</title>
<path fill="none" stroke="red" d="M1787.5,-853.5C1821.31,-853.5 1822.55,-804.49 1819.58,-771.6"/>
<polygon fill="none" stroke="red" points="1823.08,-771.4 1818.51,-761.84 1816.12,-772.16 1823.08,-771.4"/>
</g>
<!-- Fadein__UpdateFunc__15 -->
<g id="node41" class="node">
<title>Fadein__UpdateFunc__15</title>
<polygon fill="#eeeeee" stroke="black" points="1371.5,-722.5 1371.5,-760.5 1487.5,-760.5 1487.5,-722.5 1371.5,-722.5"/>
<text text-anchor="start" x="1379.5" y="-745.3" font-family="monospace" font-size="14.00">EX_Return</text>
<text text-anchor="start" x="1379.5" y="-730.3" font-family="monospace" font-size="14.00">  EX_Nothing</text>
</g>
<!-- Fadein__UpdateFunc__0&#45;&gt;Fadein__UpdateFunc__15 -->
<g id="edge34" class="edge">
<title>Fadein__UpdateFunc__0&#45;&gt;Fadein__UpdateFunc__15</title>
<path fill="none" stroke="black" d="M1437.89,-834.83C1436.35,-817.85 1433.99,-791.88 1432.16,-771.81"/>
<polygon fill="black" stroke="black" points="1435.66,-771.64 1431.27,-762 1428.69,-772.28 1435.66,-771.64"/>
</g>
<!-- Fadein__UpdateFunc__17 -->
<g id="node42" class="node">
<title>Fadein__UpdateFunc__17</title>
<polygon fill="#eeeeee" stroke="black" points="5106.5,-273.5 5106.5,-309.5 5238.5,-309.5 5238.5,-273.5 5106.5,-273.5"/>
<text text-anchor="start" x="5114.5" y="-287.8" font-family="monospace" font-size="14.00">EX_EndOfScript</text>
</g>
<!-- Fadein__FinishedFunc -->
<g id="node43" class="node">
<title>Fadein__FinishedFunc</title>
<polygon fill="#ff8888" stroke="black" points="5330.5,-1030 5330.5,-1066 5586.5,-1066 5586.5,-1030 5330.5,-1030"/>
<text text-anchor="start" x="5338.5" y="-1044.3" font-family="monospace" font-size="14.00">Function Fadein__FinishedFunc</text>
</g>
<!-- Fadein__FinishedFunc__0 -->
<g id="node44" class="node">
<title>Fadein__FinishedFunc__0</title>
<polygon fill="#eeeeee" stroke="black" points="5112,-834.5 5112,-872.5 5805,-872.5 5805,-834.5 5112,-834.5"/>
<text text-anchor="start" x="5120" y="-857.3" font-family="monospace" font-size="14.00">EX_LocalFinalFunction export BP_New_SnowStorm_C&#45;&gt;ExecuteUbergraph_BP_New_SnowStorm</text>
<text text-anchor="start" x="5120" y="-842.3" font-family="monospace" font-size="14.00">  EX_IntConst 10</text>
</g>
<!-- Fadein__FinishedFunc&#45;&gt;Fadein__FinishedFunc__0 -->
<g id="edge35" class="edge">
<title>Fadein__FinishedFunc&#45;&gt;Fadein__FinishedFunc__0</title>
<path fill="none" stroke="black" d="M5458.5,-1030.25C5458.5,-997.52 5458.5,-924.7 5458.5,-883.81"/>
<polygon fill="black" stroke="black" points="5462,-883.97 5458.5,-873.97 5455,-883.97 5462,-883.97"/>
</g>
<!-- Fadein__FinishedFunc__0&#45;&gt;ExecuteUbergraph_BP_New_SnowStorm__10 -->
<g id="edge36" class="edge">
<title>Fadein__FinishedFunc__0:e&#45;&gt;ExecuteUbergraph_BP_New_SnowStorm__10</title>
<path fill="none" stroke="red" d="M5806.5,-853.5C5815.18,-853.5 5811.31,-840.44 5805.5,-834 5770.55,-795.26 5736.33,-839.01 5689.5,-816 5635.04,-789.24 5646.37,-745.66 5590.5,-722 5505.62,-686.05 5272.45,-717.7 5167.99,-704.94"/>
<polygon fill="none" stroke="red" points="5168.7,-701.51 5158.3,-703.53 5167.69,-708.44 5168.7,-701.51"/>
</g>
<!-- Fadein__FinishedFunc__15 -->
<g id="node45" class="node">
<title>Fadein__FinishedFunc__15</title>
<polygon fill="#eeeeee" stroke="black" points="5465.5,-722.5 5465.5,-760.5 5581.5,-760.5 5581.5,-722.5 5465.5,-722.5"/>
<text text-anchor="start" x="5473.5" y="-745.3" font-family="monospace" font-size="14.00">EX_Return</text>
<text text-anchor="start" x="5473.5" y="-730.3" font-family="monospace" font-size="14.00">  EX_Nothing</text>
</g>
<!-- Fadein__FinishedFunc__0&#45;&gt;Fadein__FinishedFunc__15 -->
<g id="edge37" class="edge">
<title>Fadein__FinishedFunc__0&#45;&gt;Fadein__FinishedFunc__15</title>
<path fill="none" stroke="black" d="M5468.94,-834.83C5479.21,-817.45 5495.04,-790.66 5507.01,-770.41"/>
<polygon fill="black" stroke="black" points="5510.02,-772.19 5512.1,-761.8 5504,-768.63 5510.02,-772.19"/>
</g>
<!-- Fadein__FinishedFunc__17 -->
<g id="node46" class="node">
<title>Fadein__FinishedFunc__17</title>
<polygon fill="#eeeeee" stroke="black" points="5106.5,-131.5 5106.5,-167.5 5238.5,-167.5 5238.5,-131.5 5106.5,-131.5"/>
<text text-anchor="start" x="5114.5" y="-145.8" font-family="monospace" font-size="14.00">EX_EndOfScript</text>
</g>
</g>
</svg>
