<?xml version="1.0" encoding="UTF-8" standalone="no"?>
<!DOCTYPE svg PUBLIC "-//W3C//DTD SVG 1.1//EN"
 "http://www.w3.org/Graphics/SVG/1.1/DTD/svg11.dtd">
<!-- Generated by graphviz version 7.0.1 (0)
 -->
<!-- Pages: 1 -->
<svg width="3690pt" height="1013pt"
 viewBox="0.00 0.00 3689.50 1013.00" xmlns="http://www.w3.org/2000/svg" xmlns:xlink="http://www.w3.org/1999/xlink">
<g id="graph0" class="graph" transform="scale(1 1) rotate(0) translate(4 1009)">
<polygon fill="white" stroke="none" points="-4,4 -4,-1009 3685.5,-1009 3685.5,4 -4,4"/>
<!-- UI_MaskedCanvas_C -->
<g id="node1" class="node">
<title>UI_MaskedCanvas_C</title>
<polygon fill="#88ff88" stroke="black" points="0,-801.5 0,-1004.5 850,-1004.5 850,-801.5 0,-801.5"/>
<text text-anchor="start" x="8" y="-989.3" font-family="monospace" font-size="14.00">ClassExport: UI_MaskedCanvas_C</text>
<text text-anchor="start" x="8" y="-974.3" font-family="monospace" font-size="14.00">  SuperStruct: import /Script/UMG&#45;&gt;UserWidget</text>
<text text-anchor="start" x="8" y="-959.3" font-family="monospace" font-size="14.00">  Properties:</text>
<text text-anchor="start" x="8" y="-944.3" font-family="monospace" font-size="14.00">    StructProperty UberGraphFrame</text>
<text text-anchor="start" x="8" y="-929.3" font-family="monospace" font-size="14.00">      CPF_Transient|CPF_DuplicateTransient</text>
<text text-anchor="start" x="8" y="-914.3" font-family="monospace" font-size="14.00">    ObjectProperty Content</text>
<text text-anchor="start" x="8" y="-899.3" font-family="monospace" font-size="14.00">      CPF_BlueprintVisible|CPF_ExportObject|CPF_InstancedReference|CPF_RepSkip|CPF_PersistentInstance</text>
<text text-anchor="start" x="8" y="-884.3" font-family="monospace" font-size="14.00">    ObjectProperty MaskRetainer</text>
<text text-anchor="start" x="8" y="-869.3" font-family="monospace" font-size="14.00">      CPF_BlueprintVisible|CPF_ExportObject|CPF_InstancedReference|CPF_RepSkip|CPF_PersistentInstance</text>
<text text-anchor="start" x="8" y="-854.3" font-family="monospace" font-size="14.00">    ObjectProperty Material</text>
<text text-anchor="start" x="8" y="-839.3" font-family="monospace" font-size="14.00">      CPF_Edit|CPF_BlueprintVisible|CPF_DisableEditOnInstance</text>
<text text-anchor="start" x="8" y="-824.3" font-family="monospace" font-size="14.00">    ObjectProperty Mask</text>
<text text-anchor="start" x="8" y="-809.3" font-family="monospace" font-size="14.00">      CPF_Edit|CPF_BlueprintVisible|CPF_ExposeOnSpawn</text>
</g>
<!-- ExecuteUbergraph_UI_MaskedCanvas -->
<g id="node2" class="node">
<title>ExecuteUbergraph_UI_MaskedCanvas</title>
<polygon fill="#ff8888" stroke="black" points="868,-869 868,-937 1338,-937 1338,-869 868,-869"/>
<text text-anchor="start" x="876" y="-921.8" font-family="monospace" font-size="14.00">Function ExecuteUbergraph_UI_MaskedCanvas</text>
<text text-anchor="start" x="876" y="-906.8" font-family="monospace" font-size="14.00">  IntProperty EntryPoint</text>
<text text-anchor="start" x="876" y="-891.8" font-family="monospace" font-size="14.00">    CPF_BlueprintVisible|CPF_BlueprintReadOnly|CPF_Parm</text>
<text text-anchor="start" x="876" y="-876.8" font-family="monospace" font-size="14.00">  BoolProperty K2Node_Event_IsDesignTime</text>
</g>
<!-- ExecuteUbergraph_UI_MaskedCanvas__0 -->
<g id="node3" class="node">
<title>ExecuteUbergraph_UI_MaskedCanvas__0</title>
<polygon fill="#eeeeee" stroke="black" points="967,-674.5 967,-712.5 1239,-712.5 1239,-674.5 967,-674.5"/>
<text text-anchor="start" x="975" y="-697.3" font-family="monospace" font-size="14.00">EX_ComputedJump</text>
<text text-anchor="start" x="975" y="-682.3" font-family="monospace" font-size="14.00">  EX_LocalVariable [EntryPoint]</text>
</g>
<!-- ExecuteUbergraph_UI_MaskedCanvas&#45;&gt;ExecuteUbergraph_UI_MaskedCanvas__0 -->
<g id="edge1" class="edge">
<title>ExecuteUbergraph_UI_MaskedCanvas&#45;&gt;ExecuteUbergraph_UI_MaskedCanvas__0</title>
<path fill="none" stroke="black" d="M1103,-869.12C1103,-829.11 1103,-762.17 1103,-723.83"/>
<polygon fill="black" stroke="black" points="1106.5,-723.98 1103,-713.98 1099.5,-723.98 1106.5,-723.98"/>
</g>
<!-- ExecuteUbergraph_UI_MaskedCanvas__10 -->
<g id="node4" class="node">
<title>ExecuteUbergraph_UI_MaskedCanvas__10</title>
<polygon fill="#eeeeee" stroke="black" points="1794,-241 1794,-279 2066,-279 2066,-241 1794,-241"/>
<text text-anchor="start" x="1802" y="-263.8" font-family="monospace" font-size="14.00">EX_LocalVirtualFunction SetMask</text>
<text text-anchor="start" x="1802" y="-248.8" font-family="monospace" font-size="14.00">  EX_InstanceVariable [Mask]</text>
</g>
<!-- ExecuteUbergraph_UI_MaskedCanvas__33 -->
<g id="node5" class="node">
<title>ExecuteUbergraph_UI_MaskedCanvas__33</title>
<polygon fill="#eeeeee" stroke="black" points="1880.5,-100 1880.5,-136 1979.5,-136 1979.5,-100 1880.5,-100"/>
<text text-anchor="start" x="1888.5" y="-114.3" font-family="monospace" font-size="14.00">EX_Jump 43</text>
</g>
<!-- ExecuteUbergraph_UI_MaskedCanvas__10&#45;&gt;ExecuteUbergraph_UI_MaskedCanvas__33 -->
<g id="edge2" class="edge">
<title>ExecuteUbergraph_UI_MaskedCanvas__10&#45;&gt;ExecuteUbergraph_UI_MaskedCanvas__33</title>
<path fill="none" stroke="black" d="M1930,-241.27C1930,-217.55 1930,-175.24 1930,-147.15"/>
<polygon fill="black" stroke="black" points="1933.5,-147.23 1930,-137.23 1926.5,-147.23 1933.5,-147.23"/>
</g>
<!-- ExecuteUbergraph_UI_MaskedCanvas__43 -->
<g id="node7" class="node">
<title>ExecuteUbergraph_UI_MaskedCanvas__43</title>
<polygon fill="#eeeeee" stroke="black" points="1872,-0.5 1872,-38.5 1988,-38.5 1988,-0.5 1872,-0.5"/>
<text text-anchor="start" x="1880" y="-23.3" font-family="monospace" font-size="14.00">EX_Return</text>
<text text-anchor="start" x="1880" y="-8.3" font-family="monospace" font-size="14.00">  EX_Nothing</text>
</g>
<!-- ExecuteUbergraph_UI_MaskedCanvas__33&#45;&gt;ExecuteUbergraph_UI_MaskedCanvas__43 -->
<g id="edge3" class="edge">
<title>ExecuteUbergraph_UI_MaskedCanvas__33&#45;&gt;ExecuteUbergraph_UI_MaskedCanvas__43</title>
<path fill="none" stroke="black" d="M1930,-100.19C1930,-86.29 1930,-66.21 1930,-49.69"/>
<polygon fill="black" stroke="black" points="1933.5,-49.94 1930,-39.94 1926.5,-49.94 1933.5,-49.94"/>
</g>
<!-- ExecuteUbergraph_UI_MaskedCanvas__38 -->
<g id="node6" class="node">
<title>ExecuteUbergraph_UI_MaskedCanvas__38</title>
<polygon fill="#eeeeee" stroke="black" points="1880.5,-399 1880.5,-435 1979.5,-435 1979.5,-399 1880.5,-399"/>
<text text-anchor="start" x="1888.5" y="-413.3" font-family="monospace" font-size="14.00">EX_Jump 10</text>
</g>
<!-- ExecuteUbergraph_UI_MaskedCanvas__38&#45;&gt;ExecuteUbergraph_UI_MaskedCanvas__10 -->
<g id="edge4" class="edge">
<title>ExecuteUbergraph_UI_MaskedCanvas__38&#45;&gt;ExecuteUbergraph_UI_MaskedCanvas__10</title>
<path fill="none" stroke="black" d="M1930,-399.12C1930,-372.96 1930,-322.3 1930,-290.14"/>
<polygon fill="black" stroke="black" points="1933.5,-290.33 1930,-280.33 1926.5,-290.33 1933.5,-290.33"/>
</g>
<!-- ExecuteUbergraph_UI_MaskedCanvas__45 -->
<g id="node8" class="node">
<title>ExecuteUbergraph_UI_MaskedCanvas__45</title>
<polygon fill="#eeeeee" stroke="black" points="1827,-746.5 1827,-782.5 1959,-782.5 1959,-746.5 1827,-746.5"/>
<text text-anchor="start" x="1835" y="-760.8" font-family="monospace" font-size="14.00">EX_EndOfScript</text>
</g>
<!-- PreConstruct -->
<g id="node9" class="node">
<title>PreConstruct</title>
<polygon fill="#ff8888" stroke="black" points="1356,-876.5 1356,-929.5 1826,-929.5 1826,-876.5 1356,-876.5"/>
<text text-anchor="start" x="1364" y="-914.3" font-family="monospace" font-size="14.00">Function PreConstruct</text>
<text text-anchor="start" x="1364" y="-899.3" font-family="monospace" font-size="14.00">  BoolProperty IsDesignTime</text>
<text text-anchor="start" x="1364" y="-884.3" font-family="monospace" font-size="14.00">    CPF_BlueprintVisible|CPF_BlueprintReadOnly|CPF_Parm</text>
</g>
<!-- PreConstruct__0 -->
<g id="node10" class="node">
<title>PreConstruct__0</title>
<polygon fill="#eeeeee" stroke="black" points="1351.5,-674.5 1351.5,-712.5 1830.5,-712.5 1830.5,-674.5 1351.5,-674.5"/>
<text text-anchor="start" x="1359.5" y="-697.3" font-family="monospace" font-size="14.00">EX_LetValueOnPersistentFrame [K2Node_Event_IsDesignTime]</text>
<text text-anchor="start" x="1359.5" y="-682.3" font-family="monospace" font-size="14.00">  EX_LocalVariable [IsDesignTime]</text>
</g>
<!-- PreConstruct&#45;&gt;PreConstruct__0 -->
<g id="edge5" class="edge">
<title>PreConstruct&#45;&gt;PreConstruct__0</title>
<path fill="none" stroke="black" d="M1591,-876.56C1591,-837.83 1591,-764.31 1591,-723.55"/>
<polygon fill="black" stroke="black" points="1594.5,-723.77 1591,-713.77 1587.5,-723.77 1594.5,-723.77"/>
</g>
<!-- PreConstruct__18 -->
<g id="node11" class="node">
<title>PreConstruct__18</title>
<polygon fill="#eeeeee" stroke="black" points="1252.5,-547.5 1252.5,-585.5 1929.5,-585.5 1929.5,-547.5 1252.5,-547.5"/>
<text text-anchor="start" x="1260.5" y="-570.3" font-family="monospace" font-size="14.00">EX_LocalFinalFunction export UI_MaskedCanvas_C&#45;&gt;ExecuteUbergraph_UI_MaskedCanvas</text>
<text text-anchor="start" x="1260.5" y="-555.3" font-family="monospace" font-size="14.00">  EX_IntConst 38</text>
</g>
<!-- PreConstruct__0&#45;&gt;PreConstruct__18 -->
<g id="edge6" class="edge">
<title>PreConstruct__0&#45;&gt;PreConstruct__18</title>
<path fill="none" stroke="black" d="M1591,-674.59C1591,-654.26 1591,-620.8 1591,-596.69"/>
<polygon fill="black" stroke="black" points="1594.5,-596.89 1591,-586.89 1587.5,-596.89 1594.5,-596.89"/>
</g>
<!-- PreConstruct__18&#45;&gt;ExecuteUbergraph_UI_MaskedCanvas__38 -->
<g id="edge7" class="edge">
<title>PreConstruct__18:e&#45;&gt;ExecuteUbergraph_UI_MaskedCanvas__38</title>
<path fill="none" stroke="red" d="M1931,-566.5C1978.93,-566.5 1956.72,-488.2 1940.97,-445.31"/>
<polygon fill="none" stroke="red" points="1944.31,-444.27 1937.49,-436.16 1937.77,-446.75 1944.31,-444.27"/>
</g>
<!-- PreConstruct__33 -->
<g id="node12" class="node">
<title>PreConstruct__33</title>
<polygon fill="#eeeeee" stroke="black" points="1533,-398 1533,-436 1649,-436 1649,-398 1533,-398"/>
<text text-anchor="start" x="1541" y="-420.8" font-family="monospace" font-size="14.00">EX_Return</text>
<text text-anchor="start" x="1541" y="-405.8" font-family="monospace" font-size="14.00">  EX_Nothing</text>
</g>
<!-- PreConstruct__18&#45;&gt;PreConstruct__33 -->
<g id="edge8" class="edge">
<title>PreConstruct__18&#45;&gt;PreConstruct__33</title>
<path fill="none" stroke="black" d="M1591,-547.71C1591,-522.79 1591,-477.2 1591,-447.25"/>
<polygon fill="black" stroke="black" points="1594.5,-447.37 1591,-437.37 1587.5,-447.37 1594.5,-447.37"/>
</g>
<!-- PreConstruct__35 -->
<g id="node13" class="node">
<title>PreConstruct__35</title>
<polygon fill="#eeeeee" stroke="black" points="1827,-604.5 1827,-640.5 1959,-640.5 1959,-604.5 1827,-604.5"/>
<text text-anchor="start" x="1835" y="-618.8" font-family="monospace" font-size="14.00">EX_EndOfScript</text>
</g>
<!-- UpdateMaterial -->
<g id="node14" class="node">
<title>UpdateMaterial</title>
<polygon fill="#ff8888" stroke="black" points="1909.5,-876.5 1909.5,-929.5 2478.5,-929.5 2478.5,-876.5 1909.5,-876.5"/>
<text text-anchor="start" x="1917.5" y="-914.3" font-family="monospace" font-size="14.00">Function UpdateMaterial</text>
<text text-anchor="start" x="1917.5" y="-899.3" font-family="monospace" font-size="14.00">  BoolProperty CallFunc_IsValid_ReturnValue</text>
<text text-anchor="start" x="1917.5" y="-884.3" font-family="monospace" font-size="14.00">  ObjectProperty CallFunc_CreateDynamicMaterialInstance_ReturnValue</text>
</g>
<!-- UpdateMaterial__0 -->
<g id="node15" class="node">
<title>UpdateMaterial__0</title>
<polygon fill="#eeeeee" stroke="black" points="1917.5,-659.5 1917.5,-727.5 2470.5,-727.5 2470.5,-659.5 1917.5,-659.5"/>
<text text-anchor="start" x="1925.5" y="-712.3" font-family="monospace" font-size="14.00">EX_LetBool</text>
<text text-anchor="start" x="1925.5" y="-697.3" font-family="monospace" font-size="14.00">  EX_LocalVariable [CallFunc_IsValid_ReturnValue]</text>
<text text-anchor="start" x="1925.5" y="-682.3" font-family="monospace" font-size="14.00">  EX_CallMath import /Script/Engine&#45;&gt;KismetSystemLibrary&#45;&gt;IsValid</text>
<text text-anchor="start" x="1925.5" y="-667.3" font-family="monospace" font-size="14.00">    EX_InstanceVariable [Material]</text>
</g>
<!-- UpdateMaterial&#45;&gt;UpdateMaterial__0 -->
<g id="edge9" class="edge">
<title>UpdateMaterial&#45;&gt;UpdateMaterial__0</title>
<path fill="none" stroke="black" d="M2194,-876.56C2194,-842.23 2194,-780.57 2194,-738.61"/>
<polygon fill="black" stroke="black" points="2197.5,-738.85 2194,-728.85 2190.5,-738.85 2197.5,-738.85"/>
</g>
<!-- UpdateMaterial__29 -->
<g id="node16" class="node">
<title>UpdateMaterial__29</title>
<polygon fill="#eeeeee" stroke="black" points="1983.5,-547.5 1983.5,-585.5 2404.5,-585.5 2404.5,-547.5 1983.5,-547.5"/>
<text text-anchor="start" x="1991.5" y="-570.3" font-family="monospace" font-size="14.00">EX_JumpIfNot 48</text>
<text text-anchor="start" x="1991.5" y="-555.3" font-family="monospace" font-size="14.00">  EX_LocalVariable [CallFunc_IsValid_ReturnValue]</text>
</g>
<!-- UpdateMaterial__0&#45;&gt;UpdateMaterial__29 -->
<g id="edge10" class="edge">
<title>UpdateMaterial__0&#45;&gt;UpdateMaterial__29</title>
<path fill="none" stroke="black" d="M2194,-659.66C2194,-640.2 2194,-615.74 2194,-596.91"/>
<polygon fill="black" stroke="black" points="2197.5,-596.97 2194,-586.97 2190.5,-596.97 2197.5,-596.97"/>
</g>
<!-- UpdateMaterial__43 -->
<g id="node17" class="node">
<title>UpdateMaterial__43</title>
<polygon fill="#eeeeee" stroke="black" points="2046.5,-178.5 2046.5,-214.5 2153.5,-214.5 2153.5,-178.5 2046.5,-178.5"/>
<text text-anchor="start" x="2054.5" y="-192.8" font-family="monospace" font-size="14.00">EX_Jump 153</text>
</g>
<!-- UpdateMaterial__29&#45;&gt;UpdateMaterial__43 -->
<g id="edge12" class="edge">
<title>UpdateMaterial__29&#45;&gt;UpdateMaterial__43</title>
<path fill="none" stroke="black" d="M2167.23,-547.7C2145.38,-531.43 2116.07,-505.2 2103,-474 2067.54,-389.35 2083.37,-276.93 2093.66,-225.43"/>
<polygon fill="black" stroke="black" points="2097.06,-226.25 2095.69,-215.74 2090.21,-224.81 2097.06,-226.25"/>
<text text-anchor="middle" x="2111.5" y="-413.3" font-family="monospace" font-size="14.00">IF</text>
</g>
<!-- UpdateMaterial__48 -->
<g id="node18" class="node">
<title>UpdateMaterial__48</title>
<polygon fill="#eeeeee" stroke="black" points="2129.5,-360.5 2129.5,-473.5 2896.5,-473.5 2896.5,-360.5 2129.5,-360.5"/>
<text text-anchor="start" x="2137.5" y="-458.3" font-family="monospace" font-size="14.00">EX_LetObj</text>
<text text-anchor="start" x="2137.5" y="-443.3" font-family="monospace" font-size="14.00">  EX_LocalVariable [CallFunc_CreateDynamicMaterialInstance_ReturnValue]</text>
<text text-anchor="start" x="2137.5" y="-428.3" font-family="monospace" font-size="14.00">  EX_CallMath import /Script/Engine&#45;&gt;KismetMaterialLibrary&#45;&gt;CreateDynamicMaterialInstance</text>
<text text-anchor="start" x="2137.5" y="-413.3" font-family="monospace" font-size="14.00">    EX_Self</text>
<text text-anchor="start" x="2137.5" y="-398.3" font-family="monospace" font-size="14.00">    EX_ObjectConst import /Game/UI/_GlobalAssets/MaskedImage/M_MaskMaterial&#45;&gt;M_MaskMaterial</text>
<text text-anchor="start" x="2137.5" y="-383.3" font-family="monospace" font-size="14.00">    EX_NameConst None</text>
<text text-anchor="start" x="2137.5" y="-368.3" font-family="monospace" font-size="14.00">    EX_ByteConst 0</text>
</g>
<!-- UpdateMaterial__29&#45;&gt;UpdateMaterial__48 -->
<g id="edge11" class="edge">
<title>UpdateMaterial__29:e&#45;&gt;UpdateMaterial__48</title>
<path fill="none" stroke="red" d="M2406,-566.5C2449.75,-566.5 2477.4,-523.54 2493.6,-483.83"/>
<polygon fill="none" stroke="red" points="2496.79,-485.3 2497.13,-474.71 2490.26,-482.77 2496.79,-485.3"/>
<text text-anchor="middle" x="2516" y="-506.8" font-family="monospace" font-size="14.00">IF NOT</text>
</g>
<!-- UpdateMaterial__153 -->
<g id="node21" class="node">
<title>UpdateMaterial__153</title>
<polygon fill="#eeeeee" stroke="black" points="2152,-0.5 2152,-38.5 2268,-38.5 2268,-0.5 2152,-0.5"/>
<text text-anchor="start" x="2160" y="-23.3" font-family="monospace" font-size="14.00">EX_Return</text>
<text text-anchor="start" x="2160" y="-8.3" font-family="monospace" font-size="14.00">  EX_Nothing</text>
</g>
<!-- UpdateMaterial__43&#45;&gt;UpdateMaterial__153 -->
<g id="edge13" class="edge">
<title>UpdateMaterial__43&#45;&gt;UpdateMaterial__153</title>
<path fill="none" stroke="black" d="M2110.55,-178.72C2129.57,-148.46 2169.78,-84.49 2192.82,-47.83"/>
<polygon fill="black" stroke="black" points="2195.67,-49.88 2198.03,-39.55 2189.74,-46.15 2195.67,-49.88"/>
</g>
<!-- UpdateMaterial__93 -->
<g id="node19" class="node">
<title>UpdateMaterial__93</title>
<polygon fill="#eeeeee" stroke="black" points="2197,-233.5 2197,-286.5 2799,-286.5 2799,-233.5 2197,-233.5"/>
<text text-anchor="start" x="2205" y="-271.3" font-family="monospace" font-size="14.00">EX_LetObj</text>
<text text-anchor="start" x="2205" y="-256.3" font-family="monospace" font-size="14.00">  EX_InstanceVariable [Material]</text>
<text text-anchor="start" x="2205" y="-241.3" font-family="monospace" font-size="14.00">  EX_LocalVariable [CallFunc_CreateDynamicMaterialInstance_ReturnValue]</text>
</g>
<!-- UpdateMaterial__48&#45;&gt;UpdateMaterial__93 -->
<g id="edge14" class="edge">
<title>UpdateMaterial__48&#45;&gt;UpdateMaterial__93</title>
<path fill="none" stroke="black" d="M2507.67,-360.92C2505.64,-339.97 2503.38,-316.64 2501.56,-297.8"/>
<polygon fill="black" stroke="black" points="2505.05,-297.54 2500.61,-287.92 2498.09,-298.21 2505.05,-297.54"/>
</g>
<!-- UpdateMaterial__112 -->
<g id="node20" class="node">
<title>UpdateMaterial__112</title>
<polygon fill="#eeeeee" stroke="black" points="2201,-76.5 2201,-159.5 2787,-159.5 2787,-76.5 2201,-76.5"/>
<text text-anchor="start" x="2209" y="-144.3" font-family="monospace" font-size="14.00">EX_Context</text>
<text text-anchor="start" x="2209" y="-129.3" font-family="monospace" font-size="14.00">  EX_InstanceVariable [MaskRetainer]</text>
<text text-anchor="start" x="2209" y="-114.3" font-family="monospace" font-size="14.00">  EX_FinalFunction import /Script/UMG&#45;&gt;RetainerBox&#45;&gt;SetEffectMaterial</text>
<text text-anchor="start" x="2209" y="-99.3" font-family="monospace" font-size="14.00">    EX_InstanceVariable [Material]</text>
<text text-anchor="start" x="2209" y="-84.3" font-family="monospace" font-size="14.00">  RValue = []</text>
</g>
<!-- UpdateMaterial__93&#45;&gt;UpdateMaterial__112 -->
<g id="edge15" class="edge">
<title>UpdateMaterial__93&#45;&gt;UpdateMaterial__112</title>
<path fill="none" stroke="black" d="M2497.28,-233.65C2496.77,-216.08 2496.09,-192.08 2495.47,-170.57"/>
<polygon fill="black" stroke="black" points="2498.98,-170.68 2495.19,-160.78 2491.98,-170.88 2498.98,-170.68"/>
</g>
<!-- UpdateMaterial__112&#45;&gt;UpdateMaterial__153 -->
<g id="edge16" class="edge">
<title>UpdateMaterial__112&#45;&gt;UpdateMaterial__153</title>
<path fill="none" stroke="black" d="M2375.2,-76.63C2340.28,-64.77 2303.43,-52.25 2273.41,-42.05"/>
<polygon fill="black" stroke="black" points="2274.71,-38.79 2264.11,-38.89 2272.46,-45.42 2274.71,-38.79"/>
</g>
<!-- UpdateMaterial__155 -->
<g id="node22" class="node">
<title>UpdateMaterial__155</title>
<polygon fill="#eeeeee" stroke="black" points="2824,-492.5 2824,-528.5 2956,-528.5 2956,-492.5 2824,-492.5"/>
<text text-anchor="start" x="2832" y="-506.8" font-family="monospace" font-size="14.00">EX_EndOfScript</text>
</g>
<!-- SetMask -->
<g id="node23" class="node">
<title>SetMask</title>
<polygon fill="#ff8888" stroke="black" points="3063,-876.5 3063,-929.5 3533,-929.5 3533,-876.5 3063,-876.5"/>
<text text-anchor="start" x="3071" y="-914.3" font-family="monospace" font-size="14.00">Function SetMask</text>
<text text-anchor="start" x="3071" y="-899.3" font-family="monospace" font-size="14.00">  ObjectProperty Texture</text>
<text text-anchor="start" x="3071" y="-884.3" font-family="monospace" font-size="14.00">    CPF_BlueprintVisible|CPF_BlueprintReadOnly|CPF_Parm</text>
</g>
<!-- SetMask__0 -->
<g id="node24" class="node">
<title>SetMask__0</title>
<polygon fill="#eeeeee" stroke="black" points="3174,-667 3174,-720 3422,-720 3422,-667 3174,-667"/>
<text text-anchor="start" x="3182" y="-704.8" font-family="monospace" font-size="14.00">EX_LetObj</text>
<text text-anchor="start" x="3182" y="-689.8" font-family="monospace" font-size="14.00">  EX_InstanceVariable [Mask]</text>
<text text-anchor="start" x="3182" y="-674.8" font-family="monospace" font-size="14.00">  EX_LocalVariable [Texture]</text>
</g>
<!-- SetMask&#45;&gt;SetMask__0 -->
<g id="edge17" class="edge">
<title>SetMask&#45;&gt;SetMask__0</title>
<path fill="none" stroke="black" d="M3298,-876.56C3298,-840.13 3298,-772.93 3298,-731.15"/>
<polygon fill="black" stroke="black" points="3301.5,-731.34 3298,-721.34 3294.5,-731.34 3301.5,-731.34"/>
</g>
<!-- SetMask__19 -->
<g id="node25" class="node">
<title>SetMask__19</title>
<polygon fill="#eeeeee" stroke="black" points="3133,-548.5 3133,-584.5 3463,-584.5 3463,-548.5 3133,-548.5"/>
<text text-anchor="start" x="3141" y="-562.8" font-family="monospace" font-size="14.00">EX_LocalVirtualFunction UpdateMaterial</text>
</g>
<!-- SetMask__0&#45;&gt;SetMask__19 -->
<g id="edge18" class="edge">
<title>SetMask__0&#45;&gt;SetMask__19</title>
<path fill="none" stroke="black" d="M3298,-667.2C3298,-646.47 3298,-617.16 3298,-595.68"/>
<polygon fill="black" stroke="black" points="3301.5,-595.88 3298,-585.88 3294.5,-595.88 3301.5,-595.88"/>
</g>
<!-- SetMask__33 -->
<g id="node26" class="node">
<title>SetMask__33</title>
<polygon fill="#eeeeee" stroke="black" points="2914.5,-368 2914.5,-466 3681.5,-466 3681.5,-368 2914.5,-368"/>
<text text-anchor="start" x="2922.5" y="-450.8" font-family="monospace" font-size="14.00">EX_Context</text>
<text text-anchor="start" x="2922.5" y="-435.8" font-family="monospace" font-size="14.00">  EX_InstanceVariable [Material]</text>
<text text-anchor="start" x="2922.5" y="-420.8" font-family="monospace" font-size="14.00">  EX_FinalFunction import /Script/Engine&#45;&gt;MaterialInstanceDynamic&#45;&gt;SetTextureParameterValue</text>
<text text-anchor="start" x="2922.5" y="-405.8" font-family="monospace" font-size="14.00">    EX_NameConst Mask</text>
<text text-anchor="start" x="2922.5" y="-390.8" font-family="monospace" font-size="14.00">    EX_InstanceVariable [Mask]</text>
<text text-anchor="start" x="2922.5" y="-375.8" font-family="monospace" font-size="14.00">  RValue = []</text>
</g>
<!-- SetMask__19&#45;&gt;SetMask__33 -->
<g id="edge19" class="edge">
<title>SetMask__19&#45;&gt;SetMask__33</title>
<path fill="none" stroke="black" d="M3298,-548.58C3298,-531.11 3298,-502.85 3298,-477.08"/>
<polygon fill="black" stroke="black" points="3301.5,-477.36 3298,-467.36 3294.5,-477.36 3301.5,-477.36"/>
</g>
<!-- SetMask__87 -->
<g id="node27" class="node">
<title>SetMask__87</title>
<polygon fill="#eeeeee" stroke="black" points="3240,-241 3240,-279 3356,-279 3356,-241 3240,-241"/>
<text text-anchor="start" x="3248" y="-263.8" font-family="monospace" font-size="14.00">EX_Return</text>
<text text-anchor="start" x="3248" y="-248.8" font-family="monospace" font-size="14.00">  EX_Nothing</text>
</g>
<!-- SetMask__33&#45;&gt;SetMask__87 -->
<g id="edge20" class="edge">
<title>SetMask__33&#45;&gt;SetMask__87</title>
<path fill="none" stroke="black" d="M3298,-368.23C3298,-342.71 3298,-312.13 3298,-290.16"/>
<polygon fill="black" stroke="black" points="3301.5,-290.45 3298,-280.45 3294.5,-290.45 3301.5,-290.45"/>
</g>
<!-- SetMask__89 -->
<g id="node28" class="node">
<title>SetMask__89</title>
<polygon fill="#eeeeee" stroke="black" points="3313,-305.5 3313,-341.5 3445,-341.5 3445,-305.5 3313,-305.5"/>
<text text-anchor="start" x="3321" y="-319.8" font-family="monospace" font-size="14.00">EX_EndOfScript</text>
</g>
</g>
</svg>
