<?xml version="1.0" encoding="UTF-8" standalone="no"?>
<!DOCTYPE svg PUBLIC "-//W3C//DTD SVG 1.1//EN"
 "http://www.w3.org/Graphics/SVG/1.1/DTD/svg11.dtd">
<!-- Generated by graphviz version 7.0.1 (0)
 -->
<!-- Pages: 1 -->
<svg width="2271pt" height="587pt"
 viewBox="0.00 0.00 2270.50 587.00" xmlns="http://www.w3.org/2000/svg" xmlns:xlink="http://www.w3.org/1999/xlink">
<g id="graph0" class="graph" transform="scale(1 1) rotate(0) translate(4 583)">
<polygon fill="white" stroke="none" points="-4,4 -4,-583 2266.5,-583 2266.5,4 -4,4"/>
<!-- AIC_Spider_Tank_Base_C -->
<g id="node1" class="node">
<title>AIC_Spider_Tank_Base_C</title>
<polygon fill="#88ff88" stroke="black" points="0,-465.5 0,-578.5 569,-578.5 569,-465.5 0,-465.5"/>
<text text-anchor="start" x="8" y="-563.3" font-family="monospace" font-size="14.00">ClassExport: AIC_Spider_Tank_Base_C</text>
<text text-anchor="start" x="8" y="-548.3" font-family="monospace" font-size="14.00">  SuperStruct: import /Game/Enemies/Spider/AIC_Spider&#45;&gt;AIC_Spider_C</text>
<text text-anchor="start" x="8" y="-533.3" font-family="monospace" font-size="14.00">  Properties:</text>
<text text-anchor="start" x="8" y="-518.3" font-family="monospace" font-size="14.00">    StructProperty UberGraphFrame</text>
<text text-anchor="start" x="8" y="-503.3" font-family="monospace" font-size="14.00">      CPF_Transient|CPF_DuplicateTransient</text>
<text text-anchor="start" x="8" y="-488.3" font-family="monospace" font-size="14.00">    BoolProperty HasSpecialAttack</text>
<text text-anchor="start" x="8" y="-473.3" font-family="monospace" font-size="14.00">      CPF_Edit|CPF_BlueprintVisible|CPF_DisableEditOnInstance</text>
</g>
<!-- ExecuteUbergraph_AIC_Spider_Tank_Base -->
<g id="node2" class="node">
<title>ExecuteUbergraph_AIC_Spider_Tank_Base</title>
<polygon fill="#ff8888" stroke="black" points="587.5,-488 587.5,-556 1057.5,-556 1057.5,-488 587.5,-488"/>
<text text-anchor="start" x="595.5" y="-540.8" font-family="monospace" font-size="14.00">Function ExecuteUbergraph_AIC_Spider_Tank_Base</text>
<text text-anchor="start" x="595.5" y="-525.8" font-family="monospace" font-size="14.00">  IntProperty EntryPoint</text>
<text text-anchor="start" x="595.5" y="-510.8" font-family="monospace" font-size="14.00">    CPF_BlueprintVisible|CPF_BlueprintReadOnly|CPF_Parm</text>
<text text-anchor="start" x="595.5" y="-495.8" font-family="monospace" font-size="14.00">  NameProperty CallFunc_MakeLiteralName_ReturnValue</text>
</g>
<!-- ExecuteUbergraph_AIC_Spider_Tank_Base__0 -->
<g id="node3" class="node">
<title>ExecuteUbergraph_AIC_Spider_Tank_Base__0</title>
<polygon fill="#eeeeee" stroke="black" points="686.5,-390.5 686.5,-428.5 958.5,-428.5 958.5,-390.5 686.5,-390.5"/>
<text text-anchor="start" x="694.5" y="-413.3" font-family="monospace" font-size="14.00">EX_ComputedJump</text>
<text text-anchor="start" x="694.5" y="-398.3" font-family="monospace" font-size="14.00">  EX_LocalVariable [EntryPoint]</text>
</g>
<!-- ExecuteUbergraph_AIC_Spider_Tank_Base&#45;&gt;ExecuteUbergraph_AIC_Spider_Tank_Base__0 -->
<g id="edge1" class="edge">
<title>ExecuteUbergraph_AIC_Spider_Tank_Base&#45;&gt;ExecuteUbergraph_AIC_Spider_Tank_Base__0</title>
<path fill="none" stroke="black" d="M822.5,-488.15C822.5,-472.68 822.5,-454.41 822.5,-439.47"/>
<polygon fill="black" stroke="black" points="826,-439.84 822.5,-429.84 819,-439.84 826,-439.84"/>
</g>
<!-- ExecuteUbergraph_AIC_Spider_Tank_Base__10 -->
<g id="node4" class="node">
<title>ExecuteUbergraph_AIC_Spider_Tank_Base__10</title>
<polygon fill="#eeeeee" stroke="black" points="1390.5,-316.5 1390.5,-352.5 2166.5,-352.5 2166.5,-316.5 1390.5,-316.5"/>
<text text-anchor="start" x="1398.5" y="-330.8" font-family="monospace" font-size="14.00">EX_LocalFinalFunction import /Game/Enemies/Spider/AIC_Spider&#45;&gt;AIC_Spider_C&#45;&gt;ReceiveBeginPlay</text>
</g>
<!-- ExecuteUbergraph_AIC_Spider_Tank_Base__20 -->
<g id="node5" class="node">
<title>ExecuteUbergraph_AIC_Spider_Tank_Base__20</title>
<polygon fill="#eeeeee" stroke="black" points="1469,-210.5 1469,-278.5 2088,-278.5 2088,-210.5 1469,-210.5"/>
<text text-anchor="start" x="1477" y="-263.3" font-family="monospace" font-size="14.00">EX_Let</text>
<text text-anchor="start" x="1477" y="-248.3" font-family="monospace" font-size="14.00">  EX_LocalVariable [CallFunc_MakeLiteralName_ReturnValue]</text>
<text text-anchor="start" x="1477" y="-233.3" font-family="monospace" font-size="14.00">  EX_CallMath import /Script/Engine&#45;&gt;KismetSystemLibrary&#45;&gt;MakeLiteralName</text>
<text text-anchor="start" x="1477" y="-218.3" font-family="monospace" font-size="14.00">    EX_NameConst HasSpecialAttack</text>
</g>
<!-- ExecuteUbergraph_AIC_Spider_Tank_Base__10&#45;&gt;ExecuteUbergraph_AIC_Spider_Tank_Base__20 -->
<g id="edge2" class="edge">
<title>ExecuteUbergraph_AIC_Spider_Tank_Base__10&#45;&gt;ExecuteUbergraph_AIC_Spider_Tank_Base__20</title>
<path fill="none" stroke="black" d="M1778.5,-316.53C1778.5,-308.86 1778.5,-299.4 1778.5,-289.92"/>
<polygon fill="black" stroke="black" points="1782,-289.97 1778.5,-279.97 1775,-289.97 1782,-289.97"/>
</g>
<!-- ExecuteUbergraph_AIC_Spider_Tank_Base__61 -->
<g id="node6" class="node">
<title>ExecuteUbergraph_AIC_Spider_Tank_Base__61</title>
<polygon fill="#eeeeee" stroke="black" points="1444.5,-75.5 1444.5,-173.5 2112.5,-173.5 2112.5,-75.5 1444.5,-75.5"/>
<text text-anchor="start" x="1452.5" y="-158.3" font-family="monospace" font-size="14.00">EX_Context</text>
<text text-anchor="start" x="1452.5" y="-143.3" font-family="monospace" font-size="14.00">  EX_InstanceVariable [Blackboard]</text>
<text text-anchor="start" x="1452.5" y="-128.3" font-family="monospace" font-size="14.00">  EX_FinalFunction import /Script/AIModule&#45;&gt;BlackboardComponent&#45;&gt;SetValueAsBool</text>
<text text-anchor="start" x="1452.5" y="-113.3" font-family="monospace" font-size="14.00">    EX_LocalVariable [CallFunc_MakeLiteralName_ReturnValue]</text>
<text text-anchor="start" x="1452.5" y="-98.3" font-family="monospace" font-size="14.00">    EX_InstanceVariable [HasSpecialAttack]</text>
<text text-anchor="start" x="1452.5" y="-83.3" font-family="monospace" font-size="14.00">  RValue = []</text>
</g>
<!-- ExecuteUbergraph_AIC_Spider_Tank_Base__20&#45;&gt;ExecuteUbergraph_AIC_Spider_Tank_Base__61 -->
<g id="edge3" class="edge">
<title>ExecuteUbergraph_AIC_Spider_Tank_Base__20&#45;&gt;ExecuteUbergraph_AIC_Spider_Tank_Base__61</title>
<path fill="none" stroke="black" d="M1778.5,-210.63C1778.5,-202.48 1778.5,-193.49 1778.5,-184.51"/>
<polygon fill="black" stroke="black" points="1782,-184.7 1778.5,-174.7 1775,-184.7 1782,-184.7"/>
</g>
<!-- ExecuteUbergraph_AIC_Spider_Tank_Base__111 -->
<g id="node7" class="node">
<title>ExecuteUbergraph_AIC_Spider_Tank_Base__111</title>
<polygon fill="#eeeeee" stroke="black" points="1720.5,-0.5 1720.5,-38.5 1836.5,-38.5 1836.5,-0.5 1720.5,-0.5"/>
<text text-anchor="start" x="1728.5" y="-23.3" font-family="monospace" font-size="14.00">EX_Return</text>
<text text-anchor="start" x="1728.5" y="-8.3" font-family="monospace" font-size="14.00">  EX_Nothing</text>
</g>
<!-- ExecuteUbergraph_AIC_Spider_Tank_Base__61&#45;&gt;ExecuteUbergraph_AIC_Spider_Tank_Base__111 -->
<g id="edge4" class="edge">
<title>ExecuteUbergraph_AIC_Spider_Tank_Base__61&#45;&gt;ExecuteUbergraph_AIC_Spider_Tank_Base__111</title>
<path fill="none" stroke="black" d="M1778.5,-75.62C1778.5,-66.83 1778.5,-57.89 1778.5,-49.85"/>
<polygon fill="black" stroke="black" points="1782,-49.98 1778.5,-39.98 1775,-49.98 1782,-49.98"/>
</g>
<!-- ExecuteUbergraph_AIC_Spider_Tank_Base__113 -->
<g id="node8" class="node">
<title>ExecuteUbergraph_AIC_Spider_Tank_Base__113</title>
<polygon fill="#eeeeee" stroke="black" points="2106.5,-226.5 2106.5,-262.5 2238.5,-262.5 2238.5,-226.5 2106.5,-226.5"/>
<text text-anchor="start" x="2114.5" y="-240.8" font-family="monospace" font-size="14.00">EX_EndOfScript</text>
</g>
<!-- ReceiveBeginPlay -->
<g id="node9" class="node">
<title>ReceiveBeginPlay</title>
<polygon fill="#ff8888" stroke="black" points="1245,-504 1245,-540 1468,-540 1468,-504 1245,-504"/>
<text text-anchor="start" x="1253" y="-518.3" font-family="monospace" font-size="14.00">Function ReceiveBeginPlay</text>
</g>
<!-- ReceiveBeginPlay__0 -->
<g id="node10" class="node">
<title>ReceiveBeginPlay__0</title>
<polygon fill="#eeeeee" stroke="black" points="977,-390.5 977,-428.5 1736,-428.5 1736,-390.5 977,-390.5"/>
<text text-anchor="start" x="985" y="-413.3" font-family="monospace" font-size="14.00">EX_LocalFinalFunction export AIC_Spider_Tank_Base_C&#45;&gt;ExecuteUbergraph_AIC_Spider_Tank_Base</text>
<text text-anchor="start" x="985" y="-398.3" font-family="monospace" font-size="14.00">  EX_IntConst 10</text>
</g>
<!-- ReceiveBeginPlay&#45;&gt;ReceiveBeginPlay__0 -->
<g id="edge5" class="edge">
<title>ReceiveBeginPlay&#45;&gt;ReceiveBeginPlay__0</title>
<path fill="none" stroke="black" d="M1356.5,-504.22C1356.5,-487.06 1356.5,-460.07 1356.5,-439.45"/>
<polygon fill="black" stroke="black" points="1360,-439.69 1356.5,-429.69 1353,-439.69 1360,-439.69"/>
</g>
<!-- ReceiveBeginPlay__0&#45;&gt;ExecuteUbergraph_AIC_Spider_Tank_Base__10 -->
<g id="edge6" class="edge">
<title>ReceiveBeginPlay__0:e&#45;&gt;ExecuteUbergraph_AIC_Spider_Tank_Base__10</title>
<path fill="none" stroke="red" d="M1737.5,-409.5C1759.43,-409.5 1769.73,-384.32 1774.5,-363.33"/>
<polygon fill="none" stroke="red" points="1777.89,-364.26 1776.34,-353.78 1771.01,-362.94 1777.89,-364.26"/>
</g>
<!-- ReceiveBeginPlay__15 -->
<g id="node11" class="node">
<title>ReceiveBeginPlay__15</title>
<polygon fill="#eeeeee" stroke="black" points="1256.5,-315.5 1256.5,-353.5 1372.5,-353.5 1372.5,-315.5 1256.5,-315.5"/>
<text text-anchor="start" x="1264.5" y="-338.3" font-family="monospace" font-size="14.00">EX_Return</text>
<text text-anchor="start" x="1264.5" y="-323.3" font-family="monospace" font-size="14.00">  EX_Nothing</text>
</g>
<!-- ReceiveBeginPlay__0&#45;&gt;ReceiveBeginPlay__15 -->
<g id="edge7" class="edge">
<title>ReceiveBeginPlay__0&#45;&gt;ReceiveBeginPlay__15</title>
<path fill="none" stroke="black" d="M1346.33,-390.83C1341.57,-382.55 1335.78,-372.49 1330.46,-363.24"/>
<polygon fill="black" stroke="black" points="1333.49,-361.5 1325.47,-354.57 1327.43,-364.99 1333.49,-361.5"/>
</g>
<!-- ReceiveBeginPlay__17 -->
<g id="node12" class="node">
<title>ReceiveBeginPlay__17</title>
<polygon fill="#eeeeee" stroke="black" points="2130.5,-106.5 2130.5,-142.5 2262.5,-142.5 2262.5,-106.5 2130.5,-106.5"/>
<text text-anchor="start" x="2138.5" y="-120.8" font-family="monospace" font-size="14.00">EX_EndOfScript</text>
</g>
</g>
</svg>
