<?xml version="1.0" encoding="UTF-8" standalone="no"?>
<!DOCTYPE svg PUBLIC "-//W3C//DTD SVG 1.1//EN"
 "http://www.w3.org/Graphics/SVG/1.1/DTD/svg11.dtd">
<!-- Generated by graphviz version 7.0.1 (0)
 -->
<!-- Pages: 1 -->
<svg width="1977pt" height="242pt"
 viewBox="0.00 0.00 1977.00 242.00" xmlns="http://www.w3.org/2000/svg" xmlns:xlink="http://www.w3.org/1999/xlink">
<g id="graph0" class="graph" transform="scale(1 1) rotate(0) translate(4 238)">
<polygon fill="white" stroke="none" points="-4,4 -4,-238 1973,-238 1973,4 -4,4"/>
<!-- ESI_Tank_Radioactive_C -->
<g id="node1" class="node">
<title>ESI_Tank_Radioactive_C</title>
<polygon fill="#88ff88" stroke="black" points="0,-150.5 0,-233.5 652,-233.5 652,-150.5 0,-150.5"/>
<text text-anchor="start" x="8" y="-218.3" font-family="monospace" font-size="14.00">ClassExport: ESI_Tank_Radioactive_C</text>
<text text-anchor="start" x="8" y="-203.3" font-family="monospace" font-size="14.00">  SuperStruct: import /Game/Enemies/Spider/ESI_Spider_Base&#45;&gt;ESI_Spider_Base_C</text>
<text text-anchor="start" x="8" y="-188.3" font-family="monospace" font-size="14.00">  Properties:</text>
<text text-anchor="start" x="8" y="-173.3" font-family="monospace" font-size="14.00">    StructProperty UberGraphFrame</text>
<text text-anchor="start" x="8" y="-158.3" font-family="monospace" font-size="14.00">      CPF_Transient|CPF_DuplicateTransient</text>
</g>
<!-- ExecuteUbergraph_ESI_Tank_Radioactive -->
<g id="node2" class="node">
<title>ExecuteUbergraph_ESI_Tank_Radioactive</title>
<polygon fill="#ff8888" stroke="black" points="670,-165.5 670,-218.5 1140,-218.5 1140,-165.5 670,-165.5"/>
<text text-anchor="start" x="678" y="-203.3" font-family="monospace" font-size="14.00">Function ExecuteUbergraph_ESI_Tank_Radioactive</text>
<text text-anchor="start" x="678" y="-188.3" font-family="monospace" font-size="14.00">  IntProperty EntryPoint</text>
<text text-anchor="start" x="678" y="-173.3" font-family="monospace" font-size="14.00">    CPF_BlueprintVisible|CPF_BlueprintReadOnly|CPF_Parm</text>
</g>
<!-- ExecuteUbergraph_ESI_Tank_Radioactive__0 -->
<g id="node3" class="node">
<title>ExecuteUbergraph_ESI_Tank_Radioactive__0</title>
<polygon fill="#eeeeee" stroke="black" points="769,-75.5 769,-113.5 1041,-113.5 1041,-75.5 769,-75.5"/>
<text text-anchor="start" x="777" y="-98.3" font-family="monospace" font-size="14.00">EX_ComputedJump</text>
<text text-anchor="start" x="777" y="-83.3" font-family="monospace" font-size="14.00">  EX_LocalVariable [EntryPoint]</text>
</g>
<!-- ExecuteUbergraph_ESI_Tank_Radioactive&#45;&gt;ExecuteUbergraph_ESI_Tank_Radioactive__0 -->
<g id="edge1" class="edge">
<title>ExecuteUbergraph_ESI_Tank_Radioactive&#45;&gt;ExecuteUbergraph_ESI_Tank_Radioactive__0</title>
<path fill="none" stroke="black" d="M905,-165.66C905,-153.05 905,-137.75 905,-124.66"/>
<polygon fill="black" stroke="black" points="908.5,-124.91 905,-114.91 901.5,-124.91 908.5,-124.91"/>
</g>
<!-- ExecuteUbergraph_ESI_Tank_Radioactive__10 -->
<g id="node4" class="node">
<title>ExecuteUbergraph_ESI_Tank_Radioactive__10</title>
<polygon fill="#eeeeee" stroke="black" points="1761,-0.5 1761,-38.5 1877,-38.5 1877,-0.5 1761,-0.5"/>
<text text-anchor="start" x="1769" y="-23.3" font-family="monospace" font-size="14.00">EX_Return</text>
<text text-anchor="start" x="1769" y="-8.3" font-family="monospace" font-size="14.00">  EX_Nothing</text>
</g>
<!-- ExecuteUbergraph_ESI_Tank_Radioactive__12 -->
<g id="node5" class="node">
<title>ExecuteUbergraph_ESI_Tank_Radioactive__12</title>
<polygon fill="#eeeeee" stroke="black" points="1837,-76.5 1837,-112.5 1969,-112.5 1969,-76.5 1837,-76.5"/>
<text text-anchor="start" x="1845" y="-90.8" font-family="monospace" font-size="14.00">EX_EndOfScript</text>
</g>
<!-- ReceiveBeginPlay -->
<g id="node6" class="node">
<title>ReceiveBeginPlay</title>
<polygon fill="#ff8888" stroke="black" points="1327.5,-174 1327.5,-210 1550.5,-210 1550.5,-174 1327.5,-174"/>
<text text-anchor="start" x="1335.5" y="-188.3" font-family="monospace" font-size="14.00">Function ReceiveBeginPlay</text>
</g>
<!-- ReceiveBeginPlay__0 -->
<g id="node7" class="node">
<title>ReceiveBeginPlay__0</title>
<polygon fill="#eeeeee" stroke="black" points="1059.5,-75.5 1059.5,-113.5 1818.5,-113.5 1818.5,-75.5 1059.5,-75.5"/>
<text text-anchor="start" x="1067.5" y="-98.3" font-family="monospace" font-size="14.00">EX_LocalFinalFunction export ESI_Tank_Radioactive_C&#45;&gt;ExecuteUbergraph_ESI_Tank_Radioactive</text>
<text text-anchor="start" x="1067.5" y="-83.3" font-family="monospace" font-size="14.00">  EX_IntConst 10</text>
</g>
<!-- ReceiveBeginPlay&#45;&gt;ReceiveBeginPlay__0 -->
<g id="edge2" class="edge">
<title>ReceiveBeginPlay&#45;&gt;ReceiveBeginPlay__0</title>
<path fill="none" stroke="black" d="M1439,-174.37C1439,-160.6 1439,-140.74 1439,-124.39"/>
<polygon fill="black" stroke="black" points="1442.5,-124.75 1439,-114.75 1435.5,-124.75 1442.5,-124.75"/>
</g>
<!-- ReceiveBeginPlay__0&#45;&gt;ExecuteUbergraph_ESI_Tank_Radioactive__10 -->
<g id="edge3" class="edge">
<title>ReceiveBeginPlay__0:e&#45;&gt;ExecuteUbergraph_ESI_Tank_Radioactive__10</title>
<path fill="none" stroke="red" d="M1820,-94.5C1829.39,-94.5 1827.73,-70.39 1824.58,-49.69"/>
<polygon fill="none" stroke="red" points="1828.05,-49.19 1822.93,-39.91 1821.14,-50.35 1828.05,-49.19"/>
</g>
<!-- ReceiveBeginPlay__15 -->
<g id="node8" class="node">
<title>ReceiveBeginPlay__15</title>
<polygon fill="#eeeeee" stroke="black" points="1381,-0.5 1381,-38.5 1497,-38.5 1497,-0.5 1381,-0.5"/>
<text text-anchor="start" x="1389" y="-23.3" font-family="monospace" font-size="14.00">EX_Return</text>
<text text-anchor="start" x="1389" y="-8.3" font-family="monospace" font-size="14.00">  EX_Nothing</text>
</g>
<!-- ReceiveBeginPlay__0&#45;&gt;ReceiveBeginPlay__15 -->
<g id="edge4" class="edge">
<title>ReceiveBeginPlay__0&#45;&gt;ReceiveBeginPlay__15</title>
<path fill="none" stroke="black" d="M1439,-75.83C1439,-68 1439,-58.57 1439,-49.74"/>
<polygon fill="black" stroke="black" points="1442.5,-49.78 1439,-39.78 1435.5,-49.78 1442.5,-49.78"/>
</g>
<!-- ReceiveBeginPlay__17 -->
<g id="node9" class="node">
<title>ReceiveBeginPlay__17</title>
<polygon fill="#eeeeee" stroke="black" points="1569,-174 1569,-210 1701,-210 1701,-174 1569,-174"/>
<text text-anchor="start" x="1577" y="-188.3" font-family="monospace" font-size="14.00">EX_EndOfScript</text>
</g>
</g>
</svg>
