<?xml version="1.0" encoding="UTF-8" standalone="no"?>
<!DOCTYPE svg PUBLIC "-//W3C//DTD SVG 1.1//EN"
 "http://www.w3.org/Graphics/SVG/1.1/DTD/svg11.dtd">
<!-- Generated by graphviz version 7.0.1 (0)
 -->
<!-- Pages: 1 -->
<svg width="1765pt" height="347pt"
 viewBox="0.00 0.00 1764.50 347.00" xmlns="http://www.w3.org/2000/svg" xmlns:xlink="http://www.w3.org/1999/xlink">
<g id="graph0" class="graph" transform="scale(1 1) rotate(0) translate(4 343)">
<polygon fill="white" stroke="none" points="-4,4 -4,-343 1760.5,-343 1760.5,4 -4,4"/>
<!-- SK_StabberVine_Stalk_FlatHierarchy_Skeleton_AnimBlueprint_C -->
<g id="node1" class="node">
<title>SK_StabberVine_Stalk_FlatHierarchy_Skeleton_AnimBlueprint_C</title>
<polygon fill="#88ff88" stroke="black" points="0,-195.5 0,-338.5 611,-338.5 611,-195.5 0,-195.5"/>
<text text-anchor="start" x="8" y="-323.3" font-family="monospace" font-size="14.00">ClassExport: SK_StabberVine_Stalk_FlatHierarchy_Skeleton_AnimBlueprint_C</text>
<text text-anchor="start" x="8" y="-308.3" font-family="monospace" font-size="14.00">  SuperStruct: import /Script/FSD&#45;&gt;TentacleAnimInstance</text>
<text text-anchor="start" x="8" y="-293.3" font-family="monospace" font-size="14.00">  Properties:</text>
<text text-anchor="start" x="8" y="-278.3" font-family="monospace" font-size="14.00">    StructProperty UberGraphFrame</text>
<text text-anchor="start" x="8" y="-263.3" font-family="monospace" font-size="14.00">      CPF_Transient|CPF_DuplicateTransient</text>
<text text-anchor="start" x="8" y="-248.3" font-family="monospace" font-size="14.00">    StructProperty AnimGraphNode_Root</text>
<text text-anchor="start" x="8" y="-233.3" font-family="monospace" font-size="14.00">    StructProperty AnimGraphNode_ComponentToLocalSpace</text>
<text text-anchor="start" x="8" y="-218.3" font-family="monospace" font-size="14.00">    StructProperty AnimGraphNode_Tentacle</text>
<text text-anchor="start" x="8" y="-203.3" font-family="monospace" font-size="14.00">    StructProperty AnimGraphNode_MeshRefPose</text>
</g>
<!-- ExecuteUbergraph_SK_StabberVine_Stalk_FlatHierarchy_Skeleton_AnimBlueprint -->
<g id="node2" class="node">
<title>ExecuteUbergraph_SK_StabberVine_Stalk_FlatHierarchy_Skeleton_AnimBlueprint</title>
<polygon fill="#ff8888" stroke="black" points="629,-240.5 629,-293.5 1330,-293.5 1330,-240.5 629,-240.5"/>
<text text-anchor="start" x="637" y="-278.3" font-family="monospace" font-size="14.00">Function ExecuteUbergraph_SK_StabberVine_Stalk_FlatHierarchy_Skeleton_AnimBlueprint</text>
<text text-anchor="start" x="637" y="-263.3" font-family="monospace" font-size="14.00">  IntProperty EntryPoint</text>
<text text-anchor="start" x="637" y="-248.3" font-family="monospace" font-size="14.00">    CPF_BlueprintVisible|CPF_BlueprintReadOnly|CPF_Parm</text>
</g>
<!-- ExecuteUbergraph_SK_StabberVine_Stalk_FlatHierarchy_Skeleton_AnimBlueprint__0 -->
<g id="node3" class="node">
<title>ExecuteUbergraph_SK_StabberVine_Stalk_FlatHierarchy_Skeleton_AnimBlueprint__0</title>
<polygon fill="#eeeeee" stroke="black" points="843.5,-98 843.5,-136 1115.5,-136 1115.5,-98 843.5,-98"/>
<text text-anchor="start" x="851.5" y="-120.8" font-family="monospace" font-size="14.00">EX_ComputedJump</text>
<text text-anchor="start" x="851.5" y="-105.8" font-family="monospace" font-size="14.00">  EX_LocalVariable [EntryPoint]</text>
</g>
<!-- ExecuteUbergraph_SK_StabberVine_Stalk_FlatHierarchy_Skeleton_AnimBlueprint&#45;&gt;ExecuteUbergraph_SK_StabberVine_Stalk_FlatHierarchy_Skeleton_AnimBlueprint__0 -->
<g id="edge1" class="edge">
<title>ExecuteUbergraph_SK_StabberVine_Stalk_FlatHierarchy_Skeleton_AnimBlueprint&#45;&gt;ExecuteUbergraph_SK_StabberVine_Stalk_FlatHierarchy_Skeleton_AnimBlueprint__0</title>
<path fill="none" stroke="black" d="M979.5,-240.56C979.5,-214.61 979.5,-174.41 979.5,-147.19"/>
<polygon fill="black" stroke="black" points="983,-147.2 979.5,-137.2 976,-147.2 983,-147.2"/>
</g>
<!-- ExecuteUbergraph_SK_StabberVine_Stalk_FlatHierarchy_Skeleton_AnimBlueprint__10 -->
<g id="node4" class="node">
<title>ExecuteUbergraph_SK_StabberVine_Stalk_FlatHierarchy_Skeleton_AnimBlueprint__10</title>
<polygon fill="#eeeeee" stroke="black" points="1298.5,-0.5 1298.5,-38.5 1414.5,-38.5 1414.5,-0.5 1298.5,-0.5"/>
<text text-anchor="start" x="1306.5" y="-23.3" font-family="monospace" font-size="14.00">EX_Return</text>
<text text-anchor="start" x="1306.5" y="-8.3" font-family="monospace" font-size="14.00">  EX_Nothing</text>
</g>
<!-- ExecuteUbergraph_SK_StabberVine_Stalk_FlatHierarchy_Skeleton_AnimBlueprint__12 -->
<g id="node5" class="node">
<title>ExecuteUbergraph_SK_StabberVine_Stalk_FlatHierarchy_Skeleton_AnimBlueprint__12</title>
<polygon fill="#eeeeee" stroke="black" points="1133.5,-99 1133.5,-135 1265.5,-135 1265.5,-99 1133.5,-99"/>
<text text-anchor="start" x="1141.5" y="-113.3" font-family="monospace" font-size="14.00">EX_EndOfScript</text>
</g>
<!-- AnimGraph -->
<g id="node6" class="node">
<title>AnimGraph</title>
<polygon fill="#ff8888" stroke="black" points="1375,-240.5 1375,-293.5 1606,-293.5 1606,-240.5 1375,-240.5"/>
<text text-anchor="start" x="1383" y="-278.3" font-family="monospace" font-size="14.00">Function AnimGraph</text>
<text text-anchor="start" x="1383" y="-263.3" font-family="monospace" font-size="14.00">  StructProperty AnimGraph</text>
<text text-anchor="start" x="1383" y="-248.3" font-family="monospace" font-size="14.00">    CPF_Parm|CPF_OutParm</text>
</g>
<!-- AnimGraph__0 -->
<g id="node7" class="node">
<title>AnimGraph__0</title>
<polygon fill="#eeeeee" stroke="black" points="1284,-75.5 1284,-158.5 1697,-158.5 1697,-75.5 1284,-75.5"/>
<text text-anchor="start" x="1292" y="-143.3" font-family="monospace" font-size="14.00">EX_Let</text>
<text text-anchor="start" x="1292" y="-128.3" font-family="monospace" font-size="14.00">  EX_LocalOutVariable</text>
<text text-anchor="start" x="1292" y="-113.3" font-family="monospace" font-size="14.00">    [AnimGraph]</text>
<text text-anchor="start" x="1292" y="-98.3" font-family="monospace" font-size="14.00">  EX_StructConst import /Script/Engine&#45;&gt;PoseLink</text>
<text text-anchor="start" x="1292" y="-83.3" font-family="monospace" font-size="14.00">    EX_IntConst &#45;1</text>
</g>
<!-- AnimGraph&#45;&gt;AnimGraph__0 -->
<g id="edge2" class="edge">
<title>AnimGraph&#45;&gt;AnimGraph__0</title>
<path fill="none" stroke="black" d="M1490.5,-240.56C1490.5,-221.17 1490.5,-193.81 1490.5,-169.87"/>
<polygon fill="black" stroke="black" points="1494,-169.95 1490.5,-159.95 1487,-169.95 1494,-169.95"/>
</g>
<!-- AnimGraph__37 -->
<g id="node8" class="node">
<title>AnimGraph__37</title>
<polygon fill="#eeeeee" stroke="black" points="1432.5,-0.5 1432.5,-38.5 1548.5,-38.5 1548.5,-0.5 1432.5,-0.5"/>
<text text-anchor="start" x="1440.5" y="-23.3" font-family="monospace" font-size="14.00">EX_Return</text>
<text text-anchor="start" x="1440.5" y="-8.3" font-family="monospace" font-size="14.00">  EX_Nothing</text>
</g>
<!-- AnimGraph__0&#45;&gt;AnimGraph__37 -->
<g id="edge3" class="edge">
<title>AnimGraph__0&#45;&gt;AnimGraph__37</title>
<path fill="none" stroke="black" d="M1490.5,-75.78C1490.5,-67.01 1490.5,-57.89 1490.5,-49.65"/>
<polygon fill="black" stroke="black" points="1494,-49.86 1490.5,-39.86 1487,-49.86 1494,-49.86"/>
</g>
<!-- AnimGraph__39 -->
<g id="node9" class="node">
<title>AnimGraph__39</title>
<polygon fill="#eeeeee" stroke="black" points="1624.5,-249 1624.5,-285 1756.5,-285 1756.5,-249 1624.5,-249"/>
<text text-anchor="start" x="1632.5" y="-263.3" font-family="monospace" font-size="14.00">EX_EndOfScript</text>
</g>
</g>
</svg>
