<?xml version="1.0" encoding="UTF-8" standalone="no"?>
<!DOCTYPE svg PUBLIC "-//W3C//DTD SVG 1.1//EN"
 "http://www.w3.org/Graphics/SVG/1.1/DTD/svg11.dtd">
<!-- Generated by graphviz version 7.0.1 (0)
 -->
<!-- Pages: 1 -->
<svg width="6189pt" height="688pt"
 viewBox="0.00 0.00 6188.50 688.00" xmlns="http://www.w3.org/2000/svg" xmlns:xlink="http://www.w3.org/1999/xlink">
<g id="graph0" class="graph" transform="scale(1 1) rotate(0) translate(4 684)">
<polygon fill="white" stroke="none" points="-4,4 -4,-684 6184.5,-684 6184.5,4 -4,4"/>
<!-- BP_New_HeavyRain_Lush_C -->
<g id="node1" class="node">
<title>BP_New_HeavyRain_Lush_C</title>
<polygon fill="#88ff88" stroke="black" points="0,-476.5 0,-679.5 685,-679.5 685,-476.5 0,-476.5"/>
<text text-anchor="start" x="8" y="-664.3" font-family="monospace" font-size="14.00">ClassExport: BP_New_HeavyRain_Lush_C</text>
<text text-anchor="start" x="8" y="-649.3" font-family="monospace" font-size="14.00">  SuperStruct: import /Game/Landscape/Biomes/BP_WeatherEffect&#45;&gt;BP_WeatherEffect_C</text>
<text text-anchor="start" x="8" y="-634.3" font-family="monospace" font-size="14.00">  Properties:</text>
<text text-anchor="start" x="8" y="-619.3" font-family="monospace" font-size="14.00">    StructProperty UberGraphFrame</text>
<text text-anchor="start" x="8" y="-604.3" font-family="monospace" font-size="14.00">      CPF_Transient|CPF_DuplicateTransient</text>
<text text-anchor="start" x="8" y="-589.3" font-family="monospace" font-size="14.00">    FloatProperty Fadeout_OneToZero_6AF7D3FF4ECB419F4995D9B03104B55F</text>
<text text-anchor="start" x="8" y="-574.3" font-family="monospace" font-size="14.00">    ByteProperty Fadeout__Direction_6AF7D3FF4ECB419F4995D9B03104B55F</text>
<text text-anchor="start" x="8" y="-559.3" font-family="monospace" font-size="14.00">    ObjectProperty Fadeout</text>
<text text-anchor="start" x="8" y="-544.3" font-family="monospace" font-size="14.00">      CPF_BlueprintVisible|CPF_InstancedReference</text>
<text text-anchor="start" x="8" y="-529.3" font-family="monospace" font-size="14.00">    FloatProperty Fadein_ZeroToOne_FE890FCF46CAF26A7BBFED9BDF736F8A</text>
<text text-anchor="start" x="8" y="-514.3" font-family="monospace" font-size="14.00">    ByteProperty Fadein__Direction_FE890FCF46CAF26A7BBFED9BDF736F8A</text>
<text text-anchor="start" x="8" y="-499.3" font-family="monospace" font-size="14.00">    ObjectProperty Fadein</text>
<text text-anchor="start" x="8" y="-484.3" font-family="monospace" font-size="14.00">      CPF_BlueprintVisible|CPF_InstancedReference</text>
</g>
<!-- ExecuteUbergraph_BP_New_HeavyRain_Lush -->
<g id="node2" class="node">
<title>ExecuteUbergraph_BP_New_HeavyRain_Lush</title>
<polygon fill="#ff8888" stroke="black" points="703.5,-551.5 703.5,-604.5 1173.5,-604.5 1173.5,-551.5 703.5,-551.5"/>
<text text-anchor="start" x="711.5" y="-589.3" font-family="monospace" font-size="14.00">Function ExecuteUbergraph_BP_New_HeavyRain_Lush</text>
<text text-anchor="start" x="711.5" y="-574.3" font-family="monospace" font-size="14.00">  IntProperty EntryPoint</text>
<text text-anchor="start" x="711.5" y="-559.3" font-family="monospace" font-size="14.00">    CPF_BlueprintVisible|CPF_BlueprintReadOnly|CPF_Parm</text>
</g>
<!-- ExecuteUbergraph_BP_New_HeavyRain_Lush__0 -->
<g id="node3" class="node">
<title>ExecuteUbergraph_BP_New_HeavyRain_Lush__0</title>
<polygon fill="#eeeeee" stroke="black" points="802.5,-401.5 802.5,-439.5 1074.5,-439.5 1074.5,-401.5 802.5,-401.5"/>
<text text-anchor="start" x="810.5" y="-424.3" font-family="monospace" font-size="14.00">EX_ComputedJump</text>
<text text-anchor="start" x="810.5" y="-409.3" font-family="monospace" font-size="14.00">  EX_LocalVariable [EntryPoint]</text>
</g>
<!-- ExecuteUbergraph_BP_New_HeavyRain_Lush&#45;&gt;ExecuteUbergraph_BP_New_HeavyRain_Lush__0 -->
<g id="edge1" class="edge">
<title>ExecuteUbergraph_BP_New_HeavyRain_Lush&#45;&gt;ExecuteUbergraph_BP_New_HeavyRain_Lush__0</title>
<path fill="none" stroke="black" d="M938.5,-551.67C938.5,-523.96 938.5,-479.62 938.5,-450.52"/>
<polygon fill="black" stroke="black" points="942,-450.6 938.5,-440.6 935,-450.6 942,-450.6"/>
</g>
<!-- ExecuteUbergraph_BP_New_HeavyRain_Lush__10 -->
<g id="node4" class="node">
<title>ExecuteUbergraph_BP_New_HeavyRain_Lush__10</title>
<polygon fill="#eeeeee" stroke="black" points="5719.5,-253.5 5719.5,-289.5 6057.5,-289.5 6057.5,-253.5 5719.5,-253.5"/>
<text text-anchor="start" x="5727.5" y="-267.8" font-family="monospace" font-size="14.00">EX_LocalVirtualFunction FadeoutComplete</text>
</g>
<!-- ExecuteUbergraph_BP_New_HeavyRain_Lush__24 -->
<g id="node5" class="node">
<title>ExecuteUbergraph_BP_New_HeavyRain_Lush__24</title>
<polygon fill="#eeeeee" stroke="black" points="5670,-164.5 5670,-200.5 5777,-200.5 5777,-164.5 5670,-164.5"/>
<text text-anchor="start" x="5678" y="-178.8" font-family="monospace" font-size="14.00">EX_Jump 199</text>
</g>
<!-- ExecuteUbergraph_BP_New_HeavyRain_Lush__10&#45;&gt;ExecuteUbergraph_BP_New_HeavyRain_Lush__24 -->
<g id="edge2" class="edge">
<title>ExecuteUbergraph_BP_New_HeavyRain_Lush__10&#45;&gt;ExecuteUbergraph_BP_New_HeavyRain_Lush__24</title>
<path fill="none" stroke="black" d="M5856.32,-253.68C5836.23,-243.17 5809.84,-229.33 5786.5,-217 5779.66,-213.39 5772.4,-209.54 5765.34,-205.79"/>
<polygon fill="black" stroke="black" points="5767.02,-202.72 5756.54,-201.12 5763.73,-208.9 5767.02,-202.72"/>
</g>
<!-- ExecuteUbergraph_BP_New_HeavyRain_Lush__199 -->
<g id="node20" class="node">
<title>ExecuteUbergraph_BP_New_HeavyRain_Lush__199</title>
<polygon fill="#eeeeee" stroke="black" points="4192.5,-0.5 4192.5,-38.5 4308.5,-38.5 4308.5,-0.5 4192.5,-0.5"/>
<text text-anchor="start" x="4200.5" y="-23.3" font-family="monospace" font-size="14.00">EX_Return</text>
<text text-anchor="start" x="4200.5" y="-8.3" font-family="monospace" font-size="14.00">  EX_Nothing</text>
</g>
<!-- ExecuteUbergraph_BP_New_HeavyRain_Lush__24&#45;&gt;ExecuteUbergraph_BP_New_HeavyRain_Lush__199 -->
<g id="edge3" class="edge">
<title>ExecuteUbergraph_BP_New_HeavyRain_Lush__24&#45;&gt;ExecuteUbergraph_BP_New_HeavyRain_Lush__199</title>
<path fill="none" stroke="black" d="M5670.25,-174.44C5530.17,-156.04 5139.71,-105.91 4813.5,-75 4597.11,-54.5 4537.28,-75.86 4319.61,-39.16"/>
<polygon fill="black" stroke="black" points="4320.39,-35.74 4309.94,-37.51 4319.2,-42.64 4320.39,-35.74"/>
</g>
<!-- ExecuteUbergraph_BP_New_HeavyRain_Lush__29 -->
<g id="node6" class="node">
<title>ExecuteUbergraph_BP_New_HeavyRain_Lush__29</title>
<polygon fill="#eeeeee" stroke="black" points="2485,-164.5 2485,-200.5 2592,-200.5 2592,-164.5 2485,-164.5"/>
<text text-anchor="start" x="2493" y="-178.8" font-family="monospace" font-size="14.00">EX_Jump 199</text>
</g>
<!-- ExecuteUbergraph_BP_New_HeavyRain_Lush__29&#45;&gt;ExecuteUbergraph_BP_New_HeavyRain_Lush__199 -->
<g id="edge4" class="edge">
<title>ExecuteUbergraph_BP_New_HeavyRain_Lush__29&#45;&gt;ExecuteUbergraph_BP_New_HeavyRain_Lush__199</title>
<path fill="none" stroke="black" d="M2591.85,-174.31C2644.95,-167.25 2728.79,-156.35 2801.5,-148 3118.41,-111.62 3197.75,-103.02 3515.5,-75 3760.17,-53.43 4051.17,-33.56 4181.45,-24.98"/>
<polygon fill="black" stroke="black" points="4181.55,-28.48 4191.29,-24.33 4181.09,-21.49 4181.55,-28.48"/>
</g>
<!-- ExecuteUbergraph_BP_New_HeavyRain_Lush__34 -->
<g id="node7" class="node">
<title>ExecuteUbergraph_BP_New_HeavyRain_Lush__34</title>
<polygon fill="#eeeeee" stroke="black" points="2352,-326.5 2352,-364.5 2971,-364.5 2971,-326.5 2352,-326.5"/>
<text text-anchor="start" x="2360" y="-349.3" font-family="monospace" font-size="14.00">EX_LocalVirtualFunction FadeFogAndAudio</text>
<text text-anchor="start" x="2360" y="-334.3" font-family="monospace" font-size="14.00">  EX_InstanceVariable [Fadein_ZeroToOne_FE890FCF46CAF26A7BBFED9BDF736F8A]</text>
</g>
<!-- ExecuteUbergraph_BP_New_HeavyRain_Lush__57 -->
<g id="node8" class="node">
<title>ExecuteUbergraph_BP_New_HeavyRain_Lush__57</title>
<polygon fill="#eeeeee" stroke="black" points="3525,-75.5 3525,-111.5 3632,-111.5 3632,-75.5 3525,-75.5"/>
<text text-anchor="start" x="3533" y="-89.8" font-family="monospace" font-size="14.00">EX_Jump 199</text>
</g>
<!-- ExecuteUbergraph_BP_New_HeavyRain_Lush__34&#45;&gt;ExecuteUbergraph_BP_New_HeavyRain_Lush__57 -->
<g id="edge5" class="edge">
<title>ExecuteUbergraph_BP_New_HeavyRain_Lush__34&#45;&gt;ExecuteUbergraph_BP_New_HeavyRain_Lush__57</title>
<path fill="none" stroke="black" d="M2727.45,-326.52C2897.04,-280.28 3346.73,-157.69 3514.34,-111.99"/>
<polygon fill="black" stroke="black" points="3515.01,-115.44 3523.74,-109.43 3513.17,-108.68 3515.01,-115.44"/>
</g>
<!-- ExecuteUbergraph_BP_New_HeavyRain_Lush__57&#45;&gt;ExecuteUbergraph_BP_New_HeavyRain_Lush__199 -->
<g id="edge6" class="edge">
<title>ExecuteUbergraph_BP_New_HeavyRain_Lush__57&#45;&gt;ExecuteUbergraph_BP_New_HeavyRain_Lush__199</title>
<path fill="none" stroke="black" d="M3631.79,-86.79C3752.6,-73.85 4047.2,-42.28 4181.61,-27.88"/>
<polygon fill="black" stroke="black" points="4181.87,-31.37 4191.44,-26.83 4181.12,-24.41 4181.87,-31.37"/>
</g>
<!-- ExecuteUbergraph_BP_New_HeavyRain_Lush__62 -->
<g id="node9" class="node">
<title>ExecuteUbergraph_BP_New_HeavyRain_Lush__62</title>
<polygon fill="#eeeeee" stroke="black" points="5935,-327.5 5935,-363.5 6034,-363.5 6034,-327.5 5935,-327.5"/>
<text text-anchor="start" x="5943" y="-341.8" font-family="monospace" font-size="14.00">EX_Jump 10</text>
</g>
<!-- ExecuteUbergraph_BP_New_HeavyRain_Lush__62&#45;&gt;ExecuteUbergraph_BP_New_HeavyRain_Lush__10 -->
<g id="edge7" class="edge">
<title>ExecuteUbergraph_BP_New_HeavyRain_Lush__62&#45;&gt;ExecuteUbergraph_BP_New_HeavyRain_Lush__10</title>
<path fill="none" stroke="black" d="M5962.23,-327.8C5949.72,-318.42 5933.9,-306.55 5920.12,-296.22"/>
<polygon fill="black" stroke="black" points="5922.29,-293.47 5912.19,-290.27 5918.09,-299.07 5922.29,-293.47"/>
</g>
<!-- ExecuteUbergraph_BP_New_HeavyRain_Lush__67 -->
<g id="node10" class="node">
<title>ExecuteUbergraph_BP_New_HeavyRain_Lush__67</title>
<polygon fill="#eeeeee" stroke="black" points="3578,-148.5 3578,-216.5 4205,-216.5 4205,-148.5 3578,-148.5"/>
<text text-anchor="start" x="3586" y="-201.3" font-family="monospace" font-size="14.00">EX_Context</text>
<text text-anchor="start" x="3586" y="-186.3" font-family="monospace" font-size="14.00">  EX_InstanceVariable [Fadein]</text>
<text text-anchor="start" x="3586" y="-171.3" font-family="monospace" font-size="14.00">  EX_FinalFunction import /Script/Engine&#45;&gt;TimelineComponent&#45;&gt;PlayFromStart</text>
<text text-anchor="start" x="3586" y="-156.3" font-family="monospace" font-size="14.00">  RValue = []</text>
</g>
<!-- ExecuteUbergraph_BP_New_HeavyRain_Lush__99 -->
<g id="node11" class="node">
<title>ExecuteUbergraph_BP_New_HeavyRain_Lush__99</title>
<polygon fill="#eeeeee" stroke="black" points="3958,-75.5 3958,-111.5 4065,-111.5 4065,-75.5 3958,-75.5"/>
<text text-anchor="start" x="3966" y="-89.8" font-family="monospace" font-size="14.00">EX_Jump 199</text>
</g>
<!-- ExecuteUbergraph_BP_New_HeavyRain_Lush__67&#45;&gt;ExecuteUbergraph_BP_New_HeavyRain_Lush__99 -->
<g id="edge8" class="edge">
<title>ExecuteUbergraph_BP_New_HeavyRain_Lush__67&#45;&gt;ExecuteUbergraph_BP_New_HeavyRain_Lush__99</title>
<path fill="none" stroke="black" d="M3936.87,-148.61C3950.97,-138.39 3966.21,-127.33 3979.23,-117.9"/>
<polygon fill="black" stroke="black" points="3981,-120.94 3987.04,-112.23 3976.89,-115.27 3981,-120.94"/>
</g>
<!-- ExecuteUbergraph_BP_New_HeavyRain_Lush__99&#45;&gt;ExecuteUbergraph_BP_New_HeavyRain_Lush__199 -->
<g id="edge9" class="edge">
<title>ExecuteUbergraph_BP_New_HeavyRain_Lush__99&#45;&gt;ExecuteUbergraph_BP_New_HeavyRain_Lush__199</title>
<path fill="none" stroke="black" d="M4064.84,-76.43C4099.4,-66.02 4144.74,-52.36 4181.96,-41.15"/>
<polygon fill="black" stroke="black" points="4182.71,-44.58 4191.28,-38.34 4180.69,-37.87 4182.71,-44.58"/>
</g>
<!-- ExecuteUbergraph_BP_New_HeavyRain_Lush__104 -->
<g id="node12" class="node">
<title>ExecuteUbergraph_BP_New_HeavyRain_Lush__104</title>
<polygon fill="#eeeeee" stroke="black" points="4126,-326.5 4126,-364.5 4753,-364.5 4753,-326.5 4126,-326.5"/>
<text text-anchor="start" x="4134" y="-349.3" font-family="monospace" font-size="14.00">EX_LocalVirtualFunction FadeFogAndAudio</text>
<text text-anchor="start" x="4134" y="-334.3" font-family="monospace" font-size="14.00">  EX_InstanceVariable [Fadeout_OneToZero_6AF7D3FF4ECB419F4995D9B03104B55F]</text>
</g>
<!-- ExecuteUbergraph_BP_New_HeavyRain_Lush__127 -->
<g id="node13" class="node">
<title>ExecuteUbergraph_BP_New_HeavyRain_Lush__127</title>
<polygon fill="#eeeeee" stroke="black" points="4351,-253.5 4351,-289.5 4458,-289.5 4458,-253.5 4351,-253.5"/>
<text text-anchor="start" x="4359" y="-267.8" font-family="monospace" font-size="14.00">EX_Jump 199</text>
</g>
<!-- ExecuteUbergraph_BP_New_HeavyRain_Lush__104&#45;&gt;ExecuteUbergraph_BP_New_HeavyRain_Lush__127 -->
<g id="edge10" class="edge">
<title>ExecuteUbergraph_BP_New_HeavyRain_Lush__104&#45;&gt;ExecuteUbergraph_BP_New_HeavyRain_Lush__127</title>
<path fill="none" stroke="black" d="M4430.85,-326.7C4426.83,-318.44 4421.97,-308.45 4417.53,-299.3"/>
<polygon fill="black" stroke="black" points="4420.75,-297.93 4413.23,-290.47 4414.46,-300.99 4420.75,-297.93"/>
</g>
<!-- ExecuteUbergraph_BP_New_HeavyRain_Lush__127&#45;&gt;ExecuteUbergraph_BP_New_HeavyRain_Lush__199 -->
<g id="edge11" class="edge">
<title>ExecuteUbergraph_BP_New_HeavyRain_Lush__127&#45;&gt;ExecuteUbergraph_BP_New_HeavyRain_Lush__199</title>
<path fill="none" stroke="black" d="M4394.16,-253.71C4368.05,-211.32 4299.27,-99.68 4267.29,-47.76"/>
<polygon fill="black" stroke="black" points="4270.43,-46.18 4262.21,-39.5 4264.47,-49.85 4270.43,-46.18"/>
</g>
<!-- ExecuteUbergraph_BP_New_HeavyRain_Lush__132 -->
<g id="node14" class="node">
<title>ExecuteUbergraph_BP_New_HeavyRain_Lush__132</title>
<polygon fill="#eeeeee" stroke="black" points="4738,-148.5 4738,-216.5 5365,-216.5 5365,-148.5 4738,-148.5"/>
<text text-anchor="start" x="4746" y="-201.3" font-family="monospace" font-size="14.00">EX_Context</text>
<text text-anchor="start" x="4746" y="-186.3" font-family="monospace" font-size="14.00">  EX_InstanceVariable [Fadeout]</text>
<text text-anchor="start" x="4746" y="-171.3" font-family="monospace" font-size="14.00">  EX_FinalFunction import /Script/Engine&#45;&gt;TimelineComponent&#45;&gt;PlayFromStart</text>
<text text-anchor="start" x="4746" y="-156.3" font-family="monospace" font-size="14.00">  RValue = []</text>
</g>
<!-- ExecuteUbergraph_BP_New_HeavyRain_Lush__164 -->
<g id="node15" class="node">
<title>ExecuteUbergraph_BP_New_HeavyRain_Lush__164</title>
<polygon fill="#eeeeee" stroke="black" points="4698,-75.5 4698,-111.5 4805,-111.5 4805,-75.5 4698,-75.5"/>
<text text-anchor="start" x="4706" y="-89.8" font-family="monospace" font-size="14.00">EX_Jump 199</text>
</g>
<!-- ExecuteUbergraph_BP_New_HeavyRain_Lush__132&#45;&gt;ExecuteUbergraph_BP_New_HeavyRain_Lush__164 -->
<g id="edge12" class="edge">
<title>ExecuteUbergraph_BP_New_HeavyRain_Lush__132&#45;&gt;ExecuteUbergraph_BP_New_HeavyRain_Lush__164</title>
<path fill="none" stroke="black" d="M4938.08,-148.61C4896.58,-136.57 4851.1,-123.38 4815.43,-113.04"/>
<polygon fill="black" stroke="black" points="4816.72,-109.77 4806.14,-110.35 4814.77,-116.49 4816.72,-109.77"/>
</g>
<!-- ExecuteUbergraph_BP_New_HeavyRain_Lush__164&#45;&gt;ExecuteUbergraph_BP_New_HeavyRain_Lush__199 -->
<g id="edge13" class="edge">
<title>ExecuteUbergraph_BP_New_HeavyRain_Lush__164&#45;&gt;ExecuteUbergraph_BP_New_HeavyRain_Lush__199</title>
<path fill="none" stroke="black" d="M4698.32,-88.48C4618.19,-81.86 4461.61,-66.78 4319.55,-39.25"/>
<polygon fill="black" stroke="black" points="4320.45,-35.86 4309.97,-37.36 4319.1,-42.73 4320.45,-35.86"/>
</g>
<!-- ExecuteUbergraph_BP_New_HeavyRain_Lush__169 -->
<g id="node16" class="node">
<title>ExecuteUbergraph_BP_New_HeavyRain_Lush__169</title>
<polygon fill="#eeeeee" stroke="black" points="3123.5,-327.5 3123.5,-363.5 3973.5,-363.5 3973.5,-327.5 3123.5,-327.5"/>
<text text-anchor="start" x="3131.5" y="-341.8" font-family="monospace" font-size="14.00">EX_LocalFinalFunction import /Game/Landscape/Biomes/BP_WeatherEffect&#45;&gt;BP_WeatherEffect_C&#45;&gt;StartEffect</text>
</g>
<!-- ExecuteUbergraph_BP_New_HeavyRain_Lush__179 -->
<g id="node17" class="node">
<title>ExecuteUbergraph_BP_New_HeavyRain_Lush__179</title>
<polygon fill="#eeeeee" stroke="black" points="3568,-253.5 3568,-289.5 3667,-289.5 3667,-253.5 3568,-253.5"/>
<text text-anchor="start" x="3576" y="-267.8" font-family="monospace" font-size="14.00">EX_Jump 67</text>
</g>
<!-- ExecuteUbergraph_BP_New_HeavyRain_Lush__169&#45;&gt;ExecuteUbergraph_BP_New_HeavyRain_Lush__179 -->
<g id="edge14" class="edge">
<title>ExecuteUbergraph_BP_New_HeavyRain_Lush__169&#45;&gt;ExecuteUbergraph_BP_New_HeavyRain_Lush__179</title>
<path fill="none" stroke="black" d="M3564.5,-327.8C3573.21,-318.71 3584.15,-307.3 3593.83,-297.2"/>
<polygon fill="black" stroke="black" points="3596.14,-299.84 3600.54,-290.2 3591.09,-295 3596.14,-299.84"/>
</g>
<!-- ExecuteUbergraph_BP_New_HeavyRain_Lush__179&#45;&gt;ExecuteUbergraph_BP_New_HeavyRain_Lush__67 -->
<g id="edge15" class="edge">
<title>ExecuteUbergraph_BP_New_HeavyRain_Lush__179&#45;&gt;ExecuteUbergraph_BP_New_HeavyRain_Lush__67</title>
<path fill="none" stroke="black" d="M3666.8,-254.85C3697.57,-245.07 3738.53,-232.07 3777.04,-219.84"/>
<polygon fill="black" stroke="black" points="3777.92,-223.24 3786.39,-216.88 3775.8,-216.57 3777.92,-223.24"/>
</g>
<!-- ExecuteUbergraph_BP_New_HeavyRain_Lush__184 -->
<g id="node18" class="node">
<title>ExecuteUbergraph_BP_New_HeavyRain_Lush__184</title>
<polygon fill="#eeeeee" stroke="black" points="4906,-327.5 4906,-363.5 5739,-363.5 5739,-327.5 4906,-327.5"/>
<text text-anchor="start" x="4914" y="-341.8" font-family="monospace" font-size="14.00">EX_LocalFinalFunction import /Game/Landscape/Biomes/BP_WeatherEffect&#45;&gt;BP_WeatherEffect_C&#45;&gt;EndEffect</text>
</g>
<!-- ExecuteUbergraph_BP_New_HeavyRain_Lush__194 -->
<g id="node19" class="node">
<title>ExecuteUbergraph_BP_New_HeavyRain_Lush__194</title>
<polygon fill="#eeeeee" stroke="black" points="5133,-253.5 5133,-289.5 5240,-289.5 5240,-253.5 5133,-253.5"/>
<text text-anchor="start" x="5141" y="-267.8" font-family="monospace" font-size="14.00">EX_Jump 132</text>
</g>
<!-- ExecuteUbergraph_BP_New_HeavyRain_Lush__184&#45;&gt;ExecuteUbergraph_BP_New_HeavyRain_Lush__194 -->
<g id="edge16" class="edge">
<title>ExecuteUbergraph_BP_New_HeavyRain_Lush__184&#45;&gt;ExecuteUbergraph_BP_New_HeavyRain_Lush__194</title>
<path fill="none" stroke="black" d="M5290.61,-327.62C5272.03,-317.78 5248.37,-305.26 5228.31,-294.63"/>
<polygon fill="black" stroke="black" points="5230,-291.57 5219.52,-289.98 5226.72,-297.76 5230,-291.57"/>
</g>
<!-- ExecuteUbergraph_BP_New_HeavyRain_Lush__194&#45;&gt;ExecuteUbergraph_BP_New_HeavyRain_Lush__132 -->
<g id="edge17" class="edge">
<title>ExecuteUbergraph_BP_New_HeavyRain_Lush__194&#45;&gt;ExecuteUbergraph_BP_New_HeavyRain_Lush__132</title>
<path fill="none" stroke="black" d="M5160.15,-253.52C5146.36,-244.63 5128.86,-233.36 5111.96,-222.46"/>
<polygon fill="black" stroke="black" points="5114.24,-219.77 5103.93,-217.29 5110.44,-225.65 5114.24,-219.77"/>
</g>
<!-- ExecuteUbergraph_BP_New_HeavyRain_Lush__201 -->
<g id="node21" class="node">
<title>ExecuteUbergraph_BP_New_HeavyRain_Lush__201</title>
<polygon fill="#eeeeee" stroke="black" points="4326.5,-1.5 4326.5,-37.5 4458.5,-37.5 4458.5,-1.5 4326.5,-1.5"/>
<text text-anchor="start" x="4334.5" y="-15.8" font-family="monospace" font-size="14.00">EX_EndOfScript</text>
</g>
<!-- EndEffect -->
<g id="node22" class="node">
<title>EndEffect</title>
<polygon fill="#ff8888" stroke="black" points="4806,-560 4806,-596 4971,-596 4971,-560 4806,-560"/>
<text text-anchor="start" x="4814" y="-574.3" font-family="monospace" font-size="14.00">Function EndEffect</text>
</g>
<!-- EndEffect__0 -->
<g id="node23" class="node">
<title>EndEffect__0</title>
<polygon fill="#eeeeee" stroke="black" points="4500.5,-401.5 4500.5,-439.5 5276.5,-439.5 5276.5,-401.5 4500.5,-401.5"/>
<text text-anchor="start" x="4508.5" y="-424.3" font-family="monospace" font-size="14.00">EX_LocalFinalFunction export BP_New_HeavyRain_Lush_C&#45;&gt;ExecuteUbergraph_BP_New_HeavyRain_Lush</text>
<text text-anchor="start" x="4508.5" y="-409.3" font-family="monospace" font-size="14.00">  EX_IntConst 184</text>
</g>
<!-- EndEffect&#45;&gt;EndEffect__0 -->
<g id="edge18" class="edge">
<title>EndEffect&#45;&gt;EndEffect__0</title>
<path fill="none" stroke="black" d="M4888.5,-560.06C4888.5,-533.82 4888.5,-483 4888.5,-450.74"/>
<polygon fill="black" stroke="black" points="4892,-450.88 4888.5,-440.88 4885,-450.88 4892,-450.88"/>
</g>
<!-- EndEffect__0&#45;&gt;ExecuteUbergraph_BP_New_HeavyRain_Lush__184 -->
<g id="edge19" class="edge">
<title>EndEffect__0:e&#45;&gt;ExecuteUbergraph_BP_New_HeavyRain_Lush__184</title>
<path fill="none" stroke="red" d="M5277.5,-420.5C5299.96,-420.5 5311.53,-395.32 5317.27,-374.33"/>
<polygon fill="none" stroke="red" points="5320.64,-375.3 5319.54,-364.76 5313.83,-373.68 5320.64,-375.3"/>
</g>
<!-- EndEffect__15 -->
<g id="node24" class="node">
<title>EndEffect__15</title>
<polygon fill="#eeeeee" stroke="black" points="4771.5,-326.5 4771.5,-364.5 4887.5,-364.5 4887.5,-326.5 4771.5,-326.5"/>
<text text-anchor="start" x="4779.5" y="-349.3" font-family="monospace" font-size="14.00">EX_Return</text>
<text text-anchor="start" x="4779.5" y="-334.3" font-family="monospace" font-size="14.00">  EX_Nothing</text>
</g>
<!-- EndEffect__0&#45;&gt;EndEffect__15 -->
<g id="edge20" class="edge">
<title>EndEffect__0&#45;&gt;EndEffect__15</title>
<path fill="none" stroke="black" d="M4874.22,-401.83C4867.24,-393.19 4858.7,-382.63 4850.96,-373.05"/>
<polygon fill="black" stroke="black" points="4853.81,-371.02 4844.81,-365.44 4848.37,-375.42 4853.81,-371.02"/>
</g>
<!-- EndEffect__17 -->
<g id="node25" class="node">
<title>EndEffect__17</title>
<polygon fill="#eeeeee" stroke="black" points="5306.5,-75.5 5306.5,-111.5 5438.5,-111.5 5438.5,-75.5 5306.5,-75.5"/>
<text text-anchor="start" x="5314.5" y="-89.8" font-family="monospace" font-size="14.00">EX_EndOfScript</text>
</g>
<!-- StartEffect -->
<g id="node26" class="node">
<title>StartEffect</title>
<polygon fill="#ff8888" stroke="black" points="3023.5,-560 3023.5,-596 3205.5,-596 3205.5,-560 3023.5,-560"/>
<text text-anchor="start" x="3031.5" y="-574.3" font-family="monospace" font-size="14.00">Function StartEffect</text>
</g>
<!-- StartEffect__0 -->
<g id="node27" class="node">
<title>StartEffect__0</title>
<polygon fill="#eeeeee" stroke="black" points="2726.5,-401.5 2726.5,-439.5 3502.5,-439.5 3502.5,-401.5 2726.5,-401.5"/>
<text text-anchor="start" x="2734.5" y="-424.3" font-family="monospace" font-size="14.00">EX_LocalFinalFunction export BP_New_HeavyRain_Lush_C&#45;&gt;ExecuteUbergraph_BP_New_HeavyRain_Lush</text>
<text text-anchor="start" x="2734.5" y="-409.3" font-family="monospace" font-size="14.00">  EX_IntConst 169</text>
</g>
<!-- StartEffect&#45;&gt;StartEffect__0 -->
<g id="edge21" class="edge">
<title>StartEffect&#45;&gt;StartEffect__0</title>
<path fill="none" stroke="black" d="M3114.5,-560.06C3114.5,-533.82 3114.5,-483 3114.5,-450.74"/>
<polygon fill="black" stroke="black" points="3118,-450.88 3114.5,-440.88 3111,-450.88 3118,-450.88"/>
</g>
<!-- StartEffect__0&#45;&gt;ExecuteUbergraph_BP_New_HeavyRain_Lush__169 -->
<g id="edge22" class="edge">
<title>StartEffect__0:e&#45;&gt;ExecuteUbergraph_BP_New_HeavyRain_Lush__169</title>
<path fill="none" stroke="red" d="M3503.5,-420.5C3525.96,-420.5 3537.53,-395.32 3543.27,-374.33"/>
<polygon fill="none" stroke="red" points="3546.64,-375.3 3545.54,-364.76 3539.83,-373.68 3546.64,-375.3"/>
</g>
<!-- StartEffect__15 -->
<g id="node28" class="node">
<title>StartEffect__15</title>
<polygon fill="#eeeeee" stroke="black" points="2989.5,-326.5 2989.5,-364.5 3105.5,-364.5 3105.5,-326.5 2989.5,-326.5"/>
<text text-anchor="start" x="2997.5" y="-349.3" font-family="monospace" font-size="14.00">EX_Return</text>
<text text-anchor="start" x="2997.5" y="-334.3" font-family="monospace" font-size="14.00">  EX_Nothing</text>
</g>
<!-- StartEffect__0&#45;&gt;StartEffect__15 -->
<g id="edge23" class="edge">
<title>StartEffect__0&#45;&gt;StartEffect__15</title>
<path fill="none" stroke="black" d="M3098.28,-401.83C3090.19,-393.02 3080.26,-382.19 3071.32,-372.46"/>
<polygon fill="black" stroke="black" points="3074.17,-370.38 3064.83,-365.38 3069.01,-375.11 3074.17,-370.38"/>
</g>
<!-- StartEffect__17 -->
<g id="node29" class="node">
<title>StartEffect__17</title>
<polygon fill="#eeeeee" stroke="black" points="4476.5,-1.5 4476.5,-37.5 4608.5,-37.5 4608.5,-1.5 4476.5,-1.5"/>
<text text-anchor="start" x="4484.5" y="-15.8" font-family="monospace" font-size="14.00">EX_EndOfScript</text>
</g>
<!-- Fadeout__UpdateFunc -->
<g id="node30" class="node">
<title>Fadeout__UpdateFunc</title>
<polygon fill="#ff8888" stroke="black" points="3926.5,-560 3926.5,-596 4174.5,-596 4174.5,-560 3926.5,-560"/>
<text text-anchor="start" x="3934.5" y="-574.3" font-family="monospace" font-size="14.00">Function Fadeout__UpdateFunc</text>
</g>
<!-- Fadeout__UpdateFunc__0 -->
<g id="node31" class="node">
<title>Fadeout__UpdateFunc__0</title>
<polygon fill="#eeeeee" stroke="black" points="3662.5,-401.5 3662.5,-439.5 4438.5,-439.5 4438.5,-401.5 3662.5,-401.5"/>
<text text-anchor="start" x="3670.5" y="-424.3" font-family="monospace" font-size="14.00">EX_LocalFinalFunction export BP_New_HeavyRain_Lush_C&#45;&gt;ExecuteUbergraph_BP_New_HeavyRain_Lush</text>
<text text-anchor="start" x="3670.5" y="-409.3" font-family="monospace" font-size="14.00">  EX_IntConst 104</text>
</g>
<!-- Fadeout__UpdateFunc&#45;&gt;Fadeout__UpdateFunc__0 -->
<g id="edge24" class="edge">
<title>Fadeout__UpdateFunc&#45;&gt;Fadeout__UpdateFunc__0</title>
<path fill="none" stroke="black" d="M4050.5,-560.06C4050.5,-533.82 4050.5,-483 4050.5,-450.74"/>
<polygon fill="black" stroke="black" points="4054,-450.88 4050.5,-440.88 4047,-450.88 4054,-450.88"/>
</g>
<!-- Fadeout__UpdateFunc__0&#45;&gt;ExecuteUbergraph_BP_New_HeavyRain_Lush__104 -->
<g id="edge25" class="edge">
<title>Fadeout__UpdateFunc__0:e&#45;&gt;ExecuteUbergraph_BP_New_HeavyRain_Lush__104</title>
<path fill="none" stroke="red" d="M4439.5,-420.5C4458.36,-420.5 4455.59,-396.16 4449.79,-375.4"/>
<polygon fill="none" stroke="red" points="4453.14,-374.37 4446.83,-365.86 4446.45,-376.45 4453.14,-374.37"/>
</g>
<!-- Fadeout__UpdateFunc__15 -->
<g id="node32" class="node">
<title>Fadeout__UpdateFunc__15</title>
<polygon fill="#eeeeee" stroke="black" points="3991.5,-326.5 3991.5,-364.5 4107.5,-364.5 4107.5,-326.5 3991.5,-326.5"/>
<text text-anchor="start" x="3999.5" y="-349.3" font-family="monospace" font-size="14.00">EX_Return</text>
<text text-anchor="start" x="3999.5" y="-334.3" font-family="monospace" font-size="14.00">  EX_Nothing</text>
</g>
<!-- Fadeout__UpdateFunc__0&#45;&gt;Fadeout__UpdateFunc__15 -->
<g id="edge26" class="edge">
<title>Fadeout__UpdateFunc__0&#45;&gt;Fadeout__UpdateFunc__15</title>
<path fill="none" stroke="black" d="M4050.26,-401.83C4050.15,-394 4050.02,-384.57 4049.9,-375.74"/>
<polygon fill="black" stroke="black" points="4053.4,-375.73 4049.76,-365.77 4046.4,-375.82 4053.4,-375.73"/>
</g>
<!-- Fadeout__UpdateFunc__17 -->
<g id="node33" class="node">
<title>Fadeout__UpdateFunc__17</title>
<polygon fill="#eeeeee" stroke="black" points="5795.5,-164.5 5795.5,-200.5 5927.5,-200.5 5927.5,-164.5 5795.5,-164.5"/>
<text text-anchor="start" x="5803.5" y="-178.8" font-family="monospace" font-size="14.00">EX_EndOfScript</text>
</g>
<!-- Fadeout__FinishedFunc -->
<g id="node34" class="node">
<title>Fadeout__FinishedFunc</title>
<polygon fill="#ff8888" stroke="black" points="5616.5,-560 5616.5,-596 5880.5,-596 5880.5,-560 5616.5,-560"/>
<text text-anchor="start" x="5624.5" y="-574.3" font-family="monospace" font-size="14.00">Function Fadeout__FinishedFunc</text>
</g>
<!-- Fadeout__FinishedFunc__0 -->
<g id="node35" class="node">
<title>Fadeout__FinishedFunc__0</title>
<polygon fill="#eeeeee" stroke="black" points="5360.5,-401.5 5360.5,-439.5 6136.5,-439.5 6136.5,-401.5 5360.5,-401.5"/>
<text text-anchor="start" x="5368.5" y="-424.3" font-family="monospace" font-size="14.00">EX_LocalFinalFunction export BP_New_HeavyRain_Lush_C&#45;&gt;ExecuteUbergraph_BP_New_HeavyRain_Lush</text>
<text text-anchor="start" x="5368.5" y="-409.3" font-family="monospace" font-size="14.00">  EX_IntConst 62</text>
</g>
<!-- Fadeout__FinishedFunc&#45;&gt;Fadeout__FinishedFunc__0 -->
<g id="edge27" class="edge">
<title>Fadeout__FinishedFunc&#45;&gt;Fadeout__FinishedFunc__0</title>
<path fill="none" stroke="black" d="M5748.5,-560.06C5748.5,-533.82 5748.5,-483 5748.5,-450.74"/>
<polygon fill="black" stroke="black" points="5752,-450.88 5748.5,-440.88 5745,-450.88 5752,-450.88"/>
</g>
<!-- Fadeout__FinishedFunc__0&#45;&gt;ExecuteUbergraph_BP_New_HeavyRain_Lush__62 -->
<g id="edge28" class="edge">
<title>Fadeout__FinishedFunc__0:e&#45;&gt;ExecuteUbergraph_BP_New_HeavyRain_Lush__62</title>
<path fill="none" stroke="red" d="M6137.5,-420.5C6146.18,-420.5 6141.67,-407.97 6136.5,-401 6115.27,-372.41 6077.68,-358.78 6045.2,-352.29"/>
<polygon fill="none" stroke="red" points="6045.91,-348.87 6035.45,-350.55 6044.68,-355.76 6045.91,-348.87"/>
</g>
<!-- Fadeout__FinishedFunc__15 -->
<g id="node36" class="node">
<title>Fadeout__FinishedFunc__15</title>
<polygon fill="#eeeeee" stroke="black" points="5757.5,-326.5 5757.5,-364.5 5873.5,-364.5 5873.5,-326.5 5757.5,-326.5"/>
<text text-anchor="start" x="5765.5" y="-349.3" font-family="monospace" font-size="14.00">EX_Return</text>
<text text-anchor="start" x="5765.5" y="-334.3" font-family="monospace" font-size="14.00">  EX_Nothing</text>
</g>
<!-- Fadeout__FinishedFunc__0&#45;&gt;Fadeout__FinishedFunc__15 -->
<g id="edge29" class="edge">
<title>Fadeout__FinishedFunc__0&#45;&gt;Fadeout__FinishedFunc__15</title>
<path fill="none" stroke="black" d="M5764.72,-401.83C5772.81,-393.02 5782.74,-382.19 5791.68,-372.46"/>
<polygon fill="black" stroke="black" points="5793.99,-375.11 5798.17,-365.38 5788.83,-370.38 5793.99,-375.11"/>
</g>
<!-- Fadeout__FinishedFunc__17 -->
<g id="node37" class="node">
<title>Fadeout__FinishedFunc__17</title>
<polygon fill="#eeeeee" stroke="black" points="5456.5,-75.5 5456.5,-111.5 5588.5,-111.5 5588.5,-75.5 5456.5,-75.5"/>
<text text-anchor="start" x="5464.5" y="-89.8" font-family="monospace" font-size="14.00">EX_EndOfScript</text>
</g>
<!-- Fadein__UpdateFunc -->
<g id="node38" class="node">
<title>Fadein__UpdateFunc</title>
<polygon fill="#ff8888" stroke="black" points="2155,-560 2155,-596 2394,-596 2394,-560 2155,-560"/>
<text text-anchor="start" x="2163" y="-574.3" font-family="monospace" font-size="14.00">Function Fadein__UpdateFunc</text>
</g>
<!-- Fadein__UpdateFunc__0 -->
<g id="node39" class="node">
<title>Fadein__UpdateFunc__0</title>
<polygon fill="#eeeeee" stroke="black" points="1886.5,-401.5 1886.5,-439.5 2662.5,-439.5 2662.5,-401.5 1886.5,-401.5"/>
<text text-anchor="start" x="1894.5" y="-424.3" font-family="monospace" font-size="14.00">EX_LocalFinalFunction export BP_New_HeavyRain_Lush_C&#45;&gt;ExecuteUbergraph_BP_New_HeavyRain_Lush</text>
<text text-anchor="start" x="1894.5" y="-409.3" font-family="monospace" font-size="14.00">  EX_IntConst 34</text>
</g>
<!-- Fadein__UpdateFunc&#45;&gt;Fadein__UpdateFunc__0 -->
<g id="edge30" class="edge">
<title>Fadein__UpdateFunc&#45;&gt;Fadein__UpdateFunc__0</title>
<path fill="none" stroke="black" d="M2274.5,-560.06C2274.5,-533.82 2274.5,-483 2274.5,-450.74"/>
<polygon fill="black" stroke="black" points="2278,-450.88 2274.5,-440.88 2271,-450.88 2278,-450.88"/>
</g>
<!-- Fadein__UpdateFunc__0&#45;&gt;ExecuteUbergraph_BP_New_HeavyRain_Lush__34 -->
<g id="edge31" class="edge">
<title>Fadein__UpdateFunc__0:e&#45;&gt;ExecuteUbergraph_BP_New_HeavyRain_Lush__34</title>
<path fill="none" stroke="red" d="M2663.5,-420.5C2682.46,-420.5 2678.91,-395.94 2672.49,-375.11"/>
<polygon fill="none" stroke="red" points="2675.87,-374.2 2669.35,-365.85 2669.24,-376.44 2675.87,-374.2"/>
</g>
<!-- Fadein__UpdateFunc__15 -->
<g id="node40" class="node">
<title>Fadein__UpdateFunc__15</title>
<polygon fill="#eeeeee" stroke="black" points="2216.5,-326.5 2216.5,-364.5 2332.5,-364.5 2332.5,-326.5 2216.5,-326.5"/>
<text text-anchor="start" x="2224.5" y="-349.3" font-family="monospace" font-size="14.00">EX_Return</text>
<text text-anchor="start" x="2224.5" y="-334.3" font-family="monospace" font-size="14.00">  EX_Nothing</text>
</g>
<!-- Fadein__UpdateFunc__0&#45;&gt;Fadein__UpdateFunc__15 -->
<g id="edge32" class="edge">
<title>Fadein__UpdateFunc__0&#45;&gt;Fadein__UpdateFunc__15</title>
<path fill="none" stroke="black" d="M2274.5,-401.83C2274.5,-394 2274.5,-384.57 2274.5,-375.74"/>
<polygon fill="black" stroke="black" points="2278,-375.78 2274.5,-365.78 2271,-375.78 2278,-375.78"/>
</g>
<!-- Fadein__UpdateFunc__17 -->
<g id="node41" class="node">
<title>Fadein__UpdateFunc__17</title>
<polygon fill="#eeeeee" stroke="black" points="5898.5,-560 5898.5,-596 6030.5,-596 6030.5,-560 5898.5,-560"/>
<text text-anchor="start" x="5906.5" y="-574.3" font-family="monospace" font-size="14.00">EX_EndOfScript</text>
</g>
<!-- Fadein__FinishedFunc -->
<g id="node42" class="node">
<title>Fadein__FinishedFunc</title>
<polygon fill="#ff8888" stroke="black" points="1352.5,-560 1352.5,-596 1608.5,-596 1608.5,-560 1352.5,-560"/>
<text text-anchor="start" x="1360.5" y="-574.3" font-family="monospace" font-size="14.00">Function Fadein__FinishedFunc</text>
</g>
<!-- Fadein__FinishedFunc__0 -->
<g id="node43" class="node">
<title>Fadein__FinishedFunc__0</title>
<polygon fill="#eeeeee" stroke="black" points="1092.5,-401.5 1092.5,-439.5 1868.5,-439.5 1868.5,-401.5 1092.5,-401.5"/>
<text text-anchor="start" x="1100.5" y="-424.3" font-family="monospace" font-size="14.00">EX_LocalFinalFunction export BP_New_HeavyRain_Lush_C&#45;&gt;ExecuteUbergraph_BP_New_HeavyRain_Lush</text>
<text text-anchor="start" x="1100.5" y="-409.3" font-family="monospace" font-size="14.00">  EX_IntConst 29</text>
</g>
<!-- Fadein__FinishedFunc&#45;&gt;Fadein__FinishedFunc__0 -->
<g id="edge33" class="edge">
<title>Fadein__FinishedFunc&#45;&gt;Fadein__FinishedFunc__0</title>
<path fill="none" stroke="black" d="M1480.5,-560.06C1480.5,-533.82 1480.5,-483 1480.5,-450.74"/>
<polygon fill="black" stroke="black" points="1484,-450.88 1480.5,-440.88 1477,-450.88 1484,-450.88"/>
</g>
<!-- Fadein__FinishedFunc__0&#45;&gt;ExecuteUbergraph_BP_New_HeavyRain_Lush__29 -->
<g id="edge34" class="edge">
<title>Fadein__FinishedFunc__0:e&#45;&gt;ExecuteUbergraph_BP_New_HeavyRain_Lush__29</title>
<path fill="none" stroke="red" d="M1869.5,-420.5C1878.87,-420.5 1870.64,-407.38 1877.5,-401 2050.23,-240.18 2344.26,-198.15 2473.87,-187.26"/>
<polygon fill="none" stroke="red" points="2473.95,-190.76 2483.64,-186.48 2473.39,-183.79 2473.95,-190.76"/>
</g>
<!-- Fadein__FinishedFunc__15 -->
<g id="node44" class="node">
<title>Fadein__FinishedFunc__15</title>
<polygon fill="#eeeeee" stroke="black" points="1422.5,-326.5 1422.5,-364.5 1538.5,-364.5 1538.5,-326.5 1422.5,-326.5"/>
<text text-anchor="start" x="1430.5" y="-349.3" font-family="monospace" font-size="14.00">EX_Return</text>
<text text-anchor="start" x="1430.5" y="-334.3" font-family="monospace" font-size="14.00">  EX_Nothing</text>
</g>
<!-- Fadein__FinishedFunc__0&#45;&gt;Fadein__FinishedFunc__15 -->
<g id="edge35" class="edge">
<title>Fadein__FinishedFunc__0&#45;&gt;Fadein__FinishedFunc__15</title>
<path fill="none" stroke="black" d="M1480.5,-401.83C1480.5,-394 1480.5,-384.57 1480.5,-375.74"/>
<polygon fill="black" stroke="black" points="1484,-375.78 1480.5,-365.78 1477,-375.78 1484,-375.78"/>
</g>
<!-- Fadein__FinishedFunc__17 -->
<g id="node45" class="node">
<title>Fadein__FinishedFunc__17</title>
<polygon fill="#eeeeee" stroke="black" points="6048.5,-560 6048.5,-596 6180.5,-596 6180.5,-560 6048.5,-560"/>
<text text-anchor="start" x="6056.5" y="-574.3" font-family="monospace" font-size="14.00">EX_EndOfScript</text>
</g>
</g>
</svg>
