<?xml version="1.0" encoding="UTF-8" standalone="no"?>
<!DOCTYPE svg PUBLIC "-//W3C//DTD SVG 1.1//EN"
 "http://www.w3.org/Graphics/SVG/1.1/DTD/svg11.dtd">
<!-- Generated by graphviz version 7.0.1 (0)
 -->
<!-- Pages: 1 -->
<svg width="3614pt" height="1713pt"
 viewBox="0.00 0.00 3613.50 1713.00" xmlns="http://www.w3.org/2000/svg" xmlns:xlink="http://www.w3.org/1999/xlink">
<g id="graph0" class="graph" transform="scale(1 1) rotate(0) translate(4 1709)">
<polygon fill="white" stroke="none" points="-4,4 -4,-1709 3609.5,-1709 3609.5,4 -4,4"/>
<!-- UI_Subtitle_C -->
<g id="node1" class="node">
<title>UI_Subtitle_C</title>
<polygon fill="#88ff88" stroke="black" points="0,-1479 0,-1682 850,-1682 850,-1479 0,-1479"/>
<text text-anchor="start" x="8" y="-1666.8" font-family="monospace" font-size="14.00">ClassExport: UI_Subtitle_C</text>
<text text-anchor="start" x="8" y="-1651.8" font-family="monospace" font-size="14.00">  SuperStruct: import /Script/UMG&#45;&gt;UserWidget</text>
<text text-anchor="start" x="8" y="-1636.8" font-family="monospace" font-size="14.00">  Properties:</text>
<text text-anchor="start" x="8" y="-1621.8" font-family="monospace" font-size="14.00">    StructProperty UberGraphFrame</text>
<text text-anchor="start" x="8" y="-1606.8" font-family="monospace" font-size="14.00">      CPF_Transient|CPF_DuplicateTransient</text>
<text text-anchor="start" x="8" y="-1591.8" font-family="monospace" font-size="14.00">    ObjectProperty SubtitleSender</text>
<text text-anchor="start" x="8" y="-1576.8" font-family="monospace" font-size="14.00">      CPF_BlueprintVisible|CPF_ExportObject|CPF_InstancedReference|CPF_RepSkip|CPF_PersistentInstance</text>
<text text-anchor="start" x="8" y="-1561.8" font-family="monospace" font-size="14.00">    ObjectProperty SubtitleText</text>
<text text-anchor="start" x="8" y="-1546.8" font-family="monospace" font-size="14.00">      CPF_BlueprintVisible|CPF_ExportObject|CPF_InstancedReference|CPF_RepSkip|CPF_PersistentInstance</text>
<text text-anchor="start" x="8" y="-1531.8" font-family="monospace" font-size="14.00">    ObjectProperty Communication</text>
<text text-anchor="start" x="8" y="-1516.8" font-family="monospace" font-size="14.00">      CPF_Edit|CPF_BlueprintVisible|CPF_DisableEditOnInstance|CPF_InstancedReference</text>
<text text-anchor="start" x="8" y="-1501.8" font-family="monospace" font-size="14.00">    StructProperty TimeOutHandle</text>
<text text-anchor="start" x="8" y="-1486.8" font-family="monospace" font-size="14.00">      CPF_Edit|CPF_BlueprintVisible|CPF_DisableEditOnInstance</text>
</g>
<!-- ExecuteUbergraph_UI_Subtitle -->
<g id="node2" class="node">
<title>ExecuteUbergraph_UI_Subtitle</title>
<polygon fill="#ff8888" stroke="black" points="868,-1546.5 868,-1614.5 1338,-1614.5 1338,-1546.5 868,-1546.5"/>
<text text-anchor="start" x="876" y="-1599.3" font-family="monospace" font-size="14.00">Function ExecuteUbergraph_UI_Subtitle</text>
<text text-anchor="start" x="876" y="-1584.3" font-family="monospace" font-size="14.00">  IntProperty EntryPoint</text>
<text text-anchor="start" x="876" y="-1569.3" font-family="monospace" font-size="14.00">    CPF_BlueprintVisible|CPF_BlueprintReadOnly|CPF_Parm</text>
<text text-anchor="start" x="876" y="-1554.3" font-family="monospace" font-size="14.00">  BoolProperty K2Node_Event_IsDesignTime</text>
</g>
<!-- ExecuteUbergraph_UI_Subtitle__0 -->
<g id="node3" class="node">
<title>ExecuteUbergraph_UI_Subtitle__0</title>
<polygon fill="#eeeeee" stroke="black" points="967,-1344.5 967,-1382.5 1239,-1382.5 1239,-1344.5 967,-1344.5"/>
<text text-anchor="start" x="975" y="-1367.3" font-family="monospace" font-size="14.00">EX_ComputedJump</text>
<text text-anchor="start" x="975" y="-1352.3" font-family="monospace" font-size="14.00">  EX_LocalVariable [EntryPoint]</text>
</g>
<!-- ExecuteUbergraph_UI_Subtitle&#45;&gt;ExecuteUbergraph_UI_Subtitle__0 -->
<g id="edge1" class="edge">
<title>ExecuteUbergraph_UI_Subtitle&#45;&gt;ExecuteUbergraph_UI_Subtitle__0</title>
<path fill="none" stroke="black" d="M1103,-1546.85C1103,-1505.11 1103,-1433.51 1103,-1393.57"/>
<polygon fill="black" stroke="black" points="1106.5,-1393.78 1103,-1383.78 1099.5,-1393.78 1106.5,-1393.78"/>
</g>
<!-- ExecuteUbergraph_UI_Subtitle__10 -->
<g id="node4" class="node">
<title>ExecuteUbergraph_UI_Subtitle__10</title>
<polygon fill="#eeeeee" stroke="black" points="1629.5,-722.5 1629.5,-835.5 2388.5,-835.5 2388.5,-722.5 1629.5,-722.5"/>
<text text-anchor="start" x="1637.5" y="-820.3" font-family="monospace" font-size="14.00">EX_Context</text>
<text text-anchor="start" x="1637.5" y="-805.3" font-family="monospace" font-size="14.00">  EX_ObjectConst import /Game/UI/Art/WidgetParts/LIB_MenuColors&#45;&gt;Default__LIB_MenuColors_C</text>
<text text-anchor="start" x="1637.5" y="-790.3" font-family="monospace" font-size="14.00">  EX_LocalVirtualFunction SetTextColor</text>
<text text-anchor="start" x="1637.5" y="-775.3" font-family="monospace" font-size="14.00">    EX_InstanceVariable [SubtitleText]</text>
<text text-anchor="start" x="1637.5" y="-760.3" font-family="monospace" font-size="14.00">    EX_ByteConst 4</text>
<text text-anchor="start" x="1637.5" y="-745.3" font-family="monospace" font-size="14.00">    EX_Self</text>
<text text-anchor="start" x="1637.5" y="-730.3" font-family="monospace" font-size="14.00">  RValue = []</text>
</g>
<!-- ExecuteUbergraph_UI_Subtitle__58 -->
<g id="node5" class="node">
<title>ExecuteUbergraph_UI_Subtitle__58</title>
<polygon fill="#eeeeee" stroke="black" points="1955.5,-602.5 1955.5,-638.5 2062.5,-638.5 2062.5,-602.5 1955.5,-602.5"/>
<text text-anchor="start" x="1963.5" y="-616.8" font-family="monospace" font-size="14.00">EX_Jump 116</text>
</g>
<!-- ExecuteUbergraph_UI_Subtitle__10&#45;&gt;ExecuteUbergraph_UI_Subtitle__58 -->
<g id="edge2" class="edge">
<title>ExecuteUbergraph_UI_Subtitle__10&#45;&gt;ExecuteUbergraph_UI_Subtitle__58</title>
<path fill="none" stroke="black" d="M2009,-722.82C2009,-698.08 2009,-669.94 2009,-649.61"/>
<polygon fill="black" stroke="black" points="2012.5,-649.86 2009,-639.86 2005.5,-649.86 2012.5,-649.86"/>
</g>
<!-- ExecuteUbergraph_UI_Subtitle__116 -->
<g id="node8" class="node">
<title>ExecuteUbergraph_UI_Subtitle__116</title>
<polygon fill="#eeeeee" stroke="black" points="1951,-450.5 1951,-488.5 2067,-488.5 2067,-450.5 1951,-450.5"/>
<text text-anchor="start" x="1959" y="-473.3" font-family="monospace" font-size="14.00">EX_Return</text>
<text text-anchor="start" x="1959" y="-458.3" font-family="monospace" font-size="14.00">  EX_Nothing</text>
</g>
<!-- ExecuteUbergraph_UI_Subtitle__58&#45;&gt;ExecuteUbergraph_UI_Subtitle__116 -->
<g id="edge3" class="edge">
<title>ExecuteUbergraph_UI_Subtitle__58&#45;&gt;ExecuteUbergraph_UI_Subtitle__116</title>
<path fill="none" stroke="black" d="M2009,-602.7C2009,-577.7 2009,-530.38 2009,-499.66"/>
<polygon fill="black" stroke="black" points="2012.5,-499.91 2009,-489.91 2005.5,-499.91 2012.5,-499.91"/>
</g>
<!-- ExecuteUbergraph_UI_Subtitle__63 -->
<g id="node6" class="node">
<title>ExecuteUbergraph_UI_Subtitle__63</title>
<polygon fill="#eeeeee" stroke="black" points="1629.5,-1045.5 1629.5,-1158.5 2388.5,-1158.5 2388.5,-1045.5 1629.5,-1045.5"/>
<text text-anchor="start" x="1637.5" y="-1143.3" font-family="monospace" font-size="14.00">EX_Context</text>
<text text-anchor="start" x="1637.5" y="-1128.3" font-family="monospace" font-size="14.00">  EX_ObjectConst import /Game/UI/Art/WidgetParts/LIB_MenuColors&#45;&gt;Default__LIB_MenuColors_C</text>
<text text-anchor="start" x="1637.5" y="-1113.3" font-family="monospace" font-size="14.00">  EX_LocalVirtualFunction SetTextColor</text>
<text text-anchor="start" x="1637.5" y="-1098.3" font-family="monospace" font-size="14.00">    EX_InstanceVariable [SubtitleSender]</text>
<text text-anchor="start" x="1637.5" y="-1083.3" font-family="monospace" font-size="14.00">    EX_ByteConst 5</text>
<text text-anchor="start" x="1637.5" y="-1068.3" font-family="monospace" font-size="14.00">    EX_Self</text>
<text text-anchor="start" x="1637.5" y="-1053.3" font-family="monospace" font-size="14.00">  RValue = []</text>
</g>
<!-- ExecuteUbergraph_UI_Subtitle__111 -->
<g id="node7" class="node">
<title>ExecuteUbergraph_UI_Subtitle__111</title>
<polygon fill="#eeeeee" stroke="black" points="1959.5,-904.5 1959.5,-940.5 2058.5,-940.5 2058.5,-904.5 1959.5,-904.5"/>
<text text-anchor="start" x="1967.5" y="-918.8" font-family="monospace" font-size="14.00">EX_Jump 10</text>
</g>
<!-- ExecuteUbergraph_UI_Subtitle__63&#45;&gt;ExecuteUbergraph_UI_Subtitle__111 -->
<g id="edge4" class="edge">
<title>ExecuteUbergraph_UI_Subtitle__63&#45;&gt;ExecuteUbergraph_UI_Subtitle__111</title>
<path fill="none" stroke="black" d="M2009,-1045.81C2009,-1014.5 2009,-976.66 2009,-951.43"/>
<polygon fill="black" stroke="black" points="2012.5,-951.66 2009,-941.66 2005.5,-951.66 2012.5,-951.66"/>
</g>
<!-- ExecuteUbergraph_UI_Subtitle__111&#45;&gt;ExecuteUbergraph_UI_Subtitle__10 -->
<g id="edge5" class="edge">
<title>ExecuteUbergraph_UI_Subtitle__111&#45;&gt;ExecuteUbergraph_UI_Subtitle__10</title>
<path fill="none" stroke="black" d="M2009,-904.71C2009,-890.19 2009,-868.2 2009,-846.72"/>
<polygon fill="black" stroke="black" points="2012.5,-846.74 2009,-836.74 2005.5,-846.74 2012.5,-846.74"/>
</g>
<!-- ExecuteUbergraph_UI_Subtitle__118 -->
<g id="node9" class="node">
<title>ExecuteUbergraph_UI_Subtitle__118</title>
<polygon fill="#eeeeee" stroke="black" points="2290,-1401.5 2290,-1437.5 2422,-1437.5 2422,-1401.5 2290,-1401.5"/>
<text text-anchor="start" x="2298" y="-1415.8" font-family="monospace" font-size="14.00">EX_EndOfScript</text>
</g>
<!-- PreConstruct -->
<g id="node10" class="node">
<title>PreConstruct</title>
<polygon fill="#ff8888" stroke="black" points="1356,-1554 1356,-1607 1826,-1607 1826,-1554 1356,-1554"/>
<text text-anchor="start" x="1364" y="-1591.8" font-family="monospace" font-size="14.00">Function PreConstruct</text>
<text text-anchor="start" x="1364" y="-1576.8" font-family="monospace" font-size="14.00">  BoolProperty IsDesignTime</text>
<text text-anchor="start" x="1364" y="-1561.8" font-family="monospace" font-size="14.00">    CPF_BlueprintVisible|CPF_BlueprintReadOnly|CPF_Parm</text>
</g>
<!-- PreConstruct__0 -->
<g id="node11" class="node">
<title>PreConstruct__0</title>
<polygon fill="#eeeeee" stroke="black" points="1351.5,-1344.5 1351.5,-1382.5 1830.5,-1382.5 1830.5,-1344.5 1351.5,-1344.5"/>
<text text-anchor="start" x="1359.5" y="-1367.3" font-family="monospace" font-size="14.00">EX_LetValueOnPersistentFrame [K2Node_Event_IsDesignTime]</text>
<text text-anchor="start" x="1359.5" y="-1352.3" font-family="monospace" font-size="14.00">  EX_LocalVariable [IsDesignTime]</text>
</g>
<!-- PreConstruct&#45;&gt;PreConstruct__0 -->
<g id="edge6" class="edge">
<title>PreConstruct&#45;&gt;PreConstruct__0</title>
<path fill="none" stroke="black" d="M1591,-1554.42C1591,-1514.39 1591,-1436.27 1591,-1393.76"/>
<polygon fill="black" stroke="black" points="1594.5,-1393.8 1591,-1383.8 1587.5,-1393.8 1594.5,-1393.8"/>
</g>
<!-- PreConstruct__18 -->
<g id="node12" class="node">
<title>PreConstruct__18</title>
<polygon fill="#eeeeee" stroke="black" points="1285.5,-1232.5 1285.5,-1270.5 1896.5,-1270.5 1896.5,-1232.5 1285.5,-1232.5"/>
<text text-anchor="start" x="1293.5" y="-1255.3" font-family="monospace" font-size="14.00">EX_LocalFinalFunction export UI_Subtitle_C&#45;&gt;ExecuteUbergraph_UI_Subtitle</text>
<text text-anchor="start" x="1293.5" y="-1240.3" font-family="monospace" font-size="14.00">  EX_IntConst 63</text>
</g>
<!-- PreConstruct__0&#45;&gt;PreConstruct__18 -->
<g id="edge7" class="edge">
<title>PreConstruct__0&#45;&gt;PreConstruct__18</title>
<path fill="none" stroke="black" d="M1591,-1344.83C1591,-1327.85 1591,-1301.88 1591,-1281.81"/>
<polygon fill="black" stroke="black" points="1594.5,-1282.01 1591,-1272.01 1587.5,-1282.01 1594.5,-1282.01"/>
</g>
<!-- PreConstruct__18&#45;&gt;ExecuteUbergraph_UI_Subtitle__63 -->
<g id="edge8" class="edge">
<title>PreConstruct__18:e&#45;&gt;ExecuteUbergraph_UI_Subtitle__63</title>
<path fill="none" stroke="red" d="M1898,-1251.5C1942.32,-1251.5 1971.08,-1208.54 1988.19,-1168.83"/>
<polygon fill="none" stroke="red" points="1991.38,-1170.28 1991.93,-1159.7 1984.9,-1167.63 1991.38,-1170.28"/>
</g>
<!-- PreConstruct__33 -->
<g id="node13" class="node">
<title>PreConstruct__33</title>
<polygon fill="#eeeeee" stroke="black" points="1495,-1083 1495,-1121 1611,-1121 1611,-1083 1495,-1083"/>
<text text-anchor="start" x="1503" y="-1105.8" font-family="monospace" font-size="14.00">EX_Return</text>
<text text-anchor="start" x="1503" y="-1090.8" font-family="monospace" font-size="14.00">  EX_Nothing</text>
</g>
<!-- PreConstruct__18&#45;&gt;PreConstruct__33 -->
<g id="edge9" class="edge">
<title>PreConstruct__18&#45;&gt;PreConstruct__33</title>
<path fill="none" stroke="black" d="M1586.42,-1232.71C1579.97,-1207.68 1568.15,-1161.79 1560.43,-1131.85"/>
<polygon fill="black" stroke="black" points="1563.86,-1131.13 1557.98,-1122.32 1557.08,-1132.88 1563.86,-1131.13"/>
</g>
<!-- PreConstruct__35 -->
<g id="node14" class="node">
<title>PreConstruct__35</title>
<polygon fill="#eeeeee" stroke="black" points="2274,-1289.5 2274,-1325.5 2406,-1325.5 2406,-1289.5 2274,-1289.5"/>
<text text-anchor="start" x="2282" y="-1303.8" font-family="monospace" font-size="14.00">EX_EndOfScript</text>
</g>
<!-- ShoutStart -->
<g id="node15" class="node">
<title>ShoutStart</title>
<polygon fill="#ff8888" stroke="black" points="2763.5,-1456.5 2763.5,-1704.5 3250.5,-1704.5 3250.5,-1456.5 2763.5,-1456.5"/>
<text text-anchor="start" x="2771.5" y="-1689.3" font-family="monospace" font-size="14.00">Function ShoutStart</text>
<text text-anchor="start" x="2771.5" y="-1674.3" font-family="monospace" font-size="14.00">  ObjectProperty InSender</text>
<text text-anchor="start" x="2771.5" y="-1659.3" font-family="monospace" font-size="14.00">    CPF_BlueprintVisible|CPF_BlueprintReadOnly|CPF_Parm</text>
<text text-anchor="start" x="2771.5" y="-1644.3" font-family="monospace" font-size="14.00">  TextProperty InText</text>
<text text-anchor="start" x="2771.5" y="-1629.3" font-family="monospace" font-size="14.00">    CPF_BlueprintVisible|CPF_BlueprintReadOnly|CPF_Parm</text>
<text text-anchor="start" x="2771.5" y="-1614.3" font-family="monospace" font-size="14.00">  FloatProperty InDuration</text>
<text text-anchor="start" x="2771.5" y="-1599.3" font-family="monospace" font-size="14.00">    CPF_BlueprintVisible|CPF_BlueprintReadOnly|CPF_Parm</text>
<text text-anchor="start" x="2771.5" y="-1584.3" font-family="monospace" font-size="14.00">  BoolProperty Temp_bool_Variable</text>
<text text-anchor="start" x="2771.5" y="-1569.3" font-family="monospace" font-size="14.00">  TextProperty Temp_text_Variable</text>
<text text-anchor="start" x="2771.5" y="-1554.3" font-family="monospace" font-size="14.00">  BoolProperty CallFunc_IsLocallyControlled_ReturnValue</text>
<text text-anchor="start" x="2771.5" y="-1539.3" font-family="monospace" font-size="14.00">  TextProperty CallFunc_GetHeroName_ReturnValue</text>
<text text-anchor="start" x="2771.5" y="-1524.3" font-family="monospace" font-size="14.00">    CPF_ConstParm</text>
<text text-anchor="start" x="2771.5" y="-1509.3" font-family="monospace" font-size="14.00">  TextProperty K2Node_Select_Default</text>
<text text-anchor="start" x="2771.5" y="-1494.3" font-family="monospace" font-size="14.00">  FloatProperty CallFunc_Add_FloatFloat_ReturnValue</text>
<text text-anchor="start" x="2771.5" y="-1479.3" font-family="monospace" font-size="14.00">  DelegateProperty K2Node_CreateDelegate_OutputDelegate</text>
<text text-anchor="start" x="2771.5" y="-1464.3" font-family="monospace" font-size="14.00">  StructProperty CallFunc_K2_SetTimerDelegate_ReturnValue</text>
</g>
<!-- ShoutStart__0 -->
<g id="node16" class="node">
<title>ShoutStart__0</title>
<polygon fill="#eeeeee" stroke="black" points="2899.5,-1345.5 2899.5,-1381.5 3114.5,-1381.5 3114.5,-1345.5 2899.5,-1345.5"/>
<text text-anchor="start" x="2907.5" y="-1359.8" font-family="monospace" font-size="14.00">EX_PushExecutionFlow 518</text>
</g>
<!-- ShoutStart&#45;&gt;ShoutStart__0 -->
<g id="edge10" class="edge">
<title>ShoutStart&#45;&gt;ShoutStart__0</title>
<path fill="none" stroke="black" d="M3007,-1456.61C3007,-1432.54 3007,-1409.53 3007,-1392.52"/>
<polygon fill="black" stroke="black" points="3010.5,-1392.78 3007,-1382.78 3003.5,-1392.78 3010.5,-1392.78"/>
</g>
<!-- ShoutStart__5 -->
<g id="node17" class="node">
<title>ShoutStart__5</title>
<polygon fill="#eeeeee" stroke="black" points="2842.5,-1233.5 2842.5,-1269.5 3057.5,-1269.5 3057.5,-1233.5 2842.5,-1233.5"/>
<text text-anchor="start" x="2850.5" y="-1247.8" font-family="monospace" font-size="14.00">EX_PushExecutionFlow 332</text>
</g>
<!-- ShoutStart__0&#45;&gt;ShoutStart__5 -->
<g id="edge12" class="edge">
<title>ShoutStart__0&#45;&gt;ShoutStart__5</title>
<path fill="none" stroke="black" d="M2998.34,-1345.79C2989.22,-1328.19 2974.71,-1300.19 2963.97,-1279.45"/>
<polygon fill="black" stroke="black" points="2967.14,-1277.98 2959.43,-1270.71 2960.93,-1281.2 2967.14,-1277.98"/>
</g>
<!-- ShoutStart__518 -->
<g id="node32" class="node">
<title>ShoutStart__518</title>
<polygon fill="#eeeeee" stroke="black" points="3076,-1232.5 3076,-1270.5 3192,-1270.5 3192,-1232.5 3076,-1232.5"/>
<text text-anchor="start" x="3084" y="-1255.3" font-family="monospace" font-size="14.00">EX_Return</text>
<text text-anchor="start" x="3084" y="-1240.3" font-family="monospace" font-size="14.00">  EX_Nothing</text>
</g>
<!-- ShoutStart__0&#45;&gt;ShoutStart__518 -->
<g id="edge11" class="edge">
<title>ShoutStart__0:e&#45;&gt;ShoutStart__518</title>
<path fill="none" stroke="red" d="M3116,-1363.5C3149.21,-1363.5 3146.23,-1314.49 3140.5,-1281.6"/>
<polygon fill="none" stroke="red" points="3143.94,-1280.97 3138.61,-1271.82 3137.07,-1282.3 3143.94,-1280.97"/>
<text text-anchor="middle" x="3186.5" y="-1303.8" font-family="monospace" font-size="14.00">PUSH STACK</text>
</g>
<!-- ShoutStart__10 -->
<g id="node18" class="node">
<title>ShoutStart__10</title>
<polygon fill="#eeeeee" stroke="black" points="2516,-1060.5 2516,-1143.5 2830,-1143.5 2830,-1060.5 2516,-1060.5"/>
<text text-anchor="start" x="2524" y="-1128.3" font-family="monospace" font-size="14.00">EX_Context</text>
<text text-anchor="start" x="2524" y="-1113.3" font-family="monospace" font-size="14.00">  EX_InstanceVariable [SubtitleText]</text>
<text text-anchor="start" x="2524" y="-1098.3" font-family="monospace" font-size="14.00">  EX_VirtualFunction SetText</text>
<text text-anchor="start" x="2524" y="-1083.3" font-family="monospace" font-size="14.00">    EX_LocalVariable [InText]</text>
<text text-anchor="start" x="2524" y="-1068.3" font-family="monospace" font-size="14.00">  RValue = []</text>
</g>
<!-- ShoutStart__5&#45;&gt;ShoutStart__10 -->
<g id="edge14" class="edge">
<title>ShoutStart__5&#45;&gt;ShoutStart__10</title>
<path fill="none" stroke="black" d="M2918.22,-1233.58C2879.63,-1213.03 2812.98,-1177.54 2758.89,-1148.74"/>
<polygon fill="black" stroke="black" points="2760.76,-1145.77 2750.29,-1144.16 2757.47,-1151.94 2760.76,-1145.77"/>
</g>
<!-- ShoutStart__332 -->
<g id="node25" class="node">
<title>ShoutStart__332</title>
<polygon fill="#eeeeee" stroke="black" points="2862.5,-1075.5 2862.5,-1128.5 3605.5,-1128.5 3605.5,-1075.5 2862.5,-1075.5"/>
<text text-anchor="start" x="2870.5" y="-1113.3" font-family="monospace" font-size="14.00">EX_CallMath import /Script/Engine&#45;&gt;KismetSystemLibrary&#45;&gt;K2_ClearAndInvalidateTimerHandle</text>
<text text-anchor="start" x="2870.5" y="-1098.3" font-family="monospace" font-size="14.00">  EX_Self</text>
<text text-anchor="start" x="2870.5" y="-1083.3" font-family="monospace" font-size="14.00">  EX_InstanceVariable [TimeOutHandle]</text>
</g>
<!-- ShoutStart__5&#45;&gt;ShoutStart__332 -->
<g id="edge13" class="edge">
<title>ShoutStart__5:e&#45;&gt;ShoutStart__332</title>
<path fill="none" stroke="red" d="M3059,-1251.5C3068.37,-1251.5 3061.32,-1239.45 3067,-1232 3097.68,-1191.74 3143.88,-1157.37 3179.92,-1134.25"/>
<polygon fill="none" stroke="red" points="3181.44,-1137.43 3188.04,-1129.13 3177.71,-1131.5 3181.44,-1137.43"/>
<text text-anchor="middle" x="3162.5" y="-1191.8" font-family="monospace" font-size="14.00">PUSH STACK</text>
</g>
<!-- ShoutStart__55 -->
<g id="node19" class="node">
<title>ShoutStart__55</title>
<polygon fill="#eeeeee" stroke="black" points="2452.5,-873.5 2452.5,-971.5 2889.5,-971.5 2889.5,-873.5 2452.5,-873.5"/>
<text text-anchor="start" x="2460.5" y="-956.3" font-family="monospace" font-size="14.00">EX_Let</text>
<text text-anchor="start" x="2460.5" y="-941.3" font-family="monospace" font-size="14.00">  EX_LocalVariable [Temp_text_Variable]</text>
<text text-anchor="start" x="2460.5" y="-926.3" font-family="monospace" font-size="14.00">  EX_TextConst</text>
<text text-anchor="start" x="2460.5" y="-911.3" font-family="monospace" font-size="14.00">    SourceString = Me</text>
<text text-anchor="start" x="2460.5" y="-896.3" font-family="monospace" font-size="14.00">    LocalizedKey = F40A144645E1266C5FEEC7A29F68EBBC</text>
<text text-anchor="start" x="2460.5" y="-881.3" font-family="monospace" font-size="14.00">    LocalizedNamespace = </text>
</g>
<!-- ShoutStart__10&#45;&gt;ShoutStart__55 -->
<g id="edge15" class="edge">
<title>ShoutStart__10&#45;&gt;ShoutStart__55</title>
<path fill="none" stroke="black" d="M2672.55,-1060.72C2672.29,-1037.75 2671.96,-1008.52 2671.67,-982.95"/>
<polygon fill="black" stroke="black" points="2675.17,-982.97 2671.56,-973.01 2668.17,-983.05 2675.17,-982.97"/>
</g>
<!-- ShoutStart__115 -->
<g id="node20" class="node">
<title>ShoutStart__115</title>
<polygon fill="#eeeeee" stroke="black" points="2407,-730 2407,-828 2927,-828 2927,-730 2407,-730"/>
<text text-anchor="start" x="2415" y="-812.8" font-family="monospace" font-size="14.00">EX_LetBool</text>
<text text-anchor="start" x="2415" y="-797.8" font-family="monospace" font-size="14.00">  EX_LocalVariable [CallFunc_IsLocallyControlled_ReturnValue]</text>
<text text-anchor="start" x="2415" y="-782.8" font-family="monospace" font-size="14.00">  EX_Context</text>
<text text-anchor="start" x="2415" y="-767.8" font-family="monospace" font-size="14.00">    EX_LocalVariable [InSender]</text>
<text text-anchor="start" x="2415" y="-752.8" font-family="monospace" font-size="14.00">    EX_VirtualFunction IsLocallyControlled</text>
<text text-anchor="start" x="2415" y="-737.8" font-family="monospace" font-size="14.00">    RValue = [CallFunc_IsLocallyControlled_ReturnValue]</text>
</g>
<!-- ShoutStart__55&#45;&gt;ShoutStart__115 -->
<g id="edge16" class="edge">
<title>ShoutStart__55&#45;&gt;ShoutStart__115</title>
<path fill="none" stroke="black" d="M2669.65,-873.59C2669.33,-862.53 2669,-850.63 2668.67,-839.15"/>
<polygon fill="black" stroke="black" points="2672.18,-839.27 2668.4,-829.37 2665.18,-839.46 2672.18,-839.27"/>
</g>
<!-- ShoutStart__161 -->
<g id="node21" class="node">
<title>ShoutStart__161</title>
<polygon fill="#eeeeee" stroke="black" points="2406,-594 2406,-647 2926,-647 2926,-594 2406,-594"/>
<text text-anchor="start" x="2414" y="-631.8" font-family="monospace" font-size="14.00">EX_LetBool</text>
<text text-anchor="start" x="2414" y="-616.8" font-family="monospace" font-size="14.00">  EX_LocalVariable [Temp_bool_Variable]</text>
<text text-anchor="start" x="2414" y="-601.8" font-family="monospace" font-size="14.00">  EX_LocalVariable [CallFunc_IsLocallyControlled_ReturnValue]</text>
</g>
<!-- ShoutStart__115&#45;&gt;ShoutStart__161 -->
<g id="edge17" class="edge">
<title>ShoutStart__115&#45;&gt;ShoutStart__161</title>
<path fill="none" stroke="black" d="M2666.69,-730.19C2666.55,-706.99 2666.37,-679.54 2666.23,-658.04"/>
<polygon fill="black" stroke="black" points="2669.74,-658.26 2666.17,-648.28 2662.74,-658.31 2669.74,-658.26"/>
</g>
<!-- ShoutStart__180 -->
<g id="node22" class="node">
<title>ShoutStart__180</title>
<polygon fill="#eeeeee" stroke="black" points="2373,-420.5 2373,-518.5 2959,-518.5 2959,-420.5 2373,-420.5"/>
<text text-anchor="start" x="2381" y="-503.3" font-family="monospace" font-size="14.00">EX_Let</text>
<text text-anchor="start" x="2381" y="-488.3" font-family="monospace" font-size="14.00">  EX_LocalVariable [CallFunc_GetHeroName_ReturnValue]</text>
<text text-anchor="start" x="2381" y="-473.3" font-family="monospace" font-size="14.00">  EX_Context</text>
<text text-anchor="start" x="2381" y="-458.3" font-family="monospace" font-size="14.00">    EX_LocalVariable [InSender]</text>
<text text-anchor="start" x="2381" y="-443.3" font-family="monospace" font-size="14.00">    EX_FinalFunction import /Script/FSD&#45;&gt;PlayerCharacter&#45;&gt;GetHeroName</text>
<text text-anchor="start" x="2381" y="-428.3" font-family="monospace" font-size="14.00">    RValue = [CallFunc_GetHeroName_ReturnValue]</text>
</g>
<!-- ShoutStart__161&#45;&gt;ShoutStart__180 -->
<g id="edge18" class="edge">
<title>ShoutStart__161&#45;&gt;ShoutStart__180</title>
<path fill="none" stroke="black" d="M2666,-594.22C2666,-576.55 2666,-552.18 2666,-529.74"/>
<polygon fill="black" stroke="black" points="2669.5,-529.74 2666,-519.74 2662.5,-529.74 2669.5,-529.74"/>
</g>
<!-- ShoutStart__230 -->
<g id="node23" class="node">
<title>ShoutStart__230</title>
<polygon fill="#eeeeee" stroke="black" points="2373,-74.5 2373,-382.5 2959,-382.5 2959,-74.5 2373,-74.5"/>
<text text-anchor="start" x="2381" y="-367.3" font-family="monospace" font-size="14.00">EX_Context</text>
<text text-anchor="start" x="2381" y="-352.3" font-family="monospace" font-size="14.00">  EX_ObjectConst import /Game/Game/Text/LIB_Text&#45;&gt;Default__LIB_Text_C</text>
<text text-anchor="start" x="2381" y="-337.3" font-family="monospace" font-size="14.00">  EX_LocalVirtualFunction SetTextCased</text>
<text text-anchor="start" x="2381" y="-322.3" font-family="monospace" font-size="14.00">    EX_InstanceVariable [SubtitleSender]</text>
<text text-anchor="start" x="2381" y="-307.3" font-family="monospace" font-size="14.00">    EX_SwitchValue</text>
<text text-anchor="start" x="2381" y="-292.3" font-family="monospace" font-size="14.00">      EX_LocalVariable [Temp_bool_Variable]</text>
<text text-anchor="start" x="2381" y="-277.3" font-family="monospace" font-size="14.00">      OffsetToSwitchEnd = 327</text>
<text text-anchor="start" x="2381" y="-262.3" font-family="monospace" font-size="14.00">      case 0:</text>
<text text-anchor="start" x="2381" y="-247.3" font-family="monospace" font-size="14.00">        EX_False</text>
<text text-anchor="start" x="2381" y="-232.3" font-family="monospace" font-size="14.00">        NextCaseOffset = 304</text>
<text text-anchor="start" x="2381" y="-217.3" font-family="monospace" font-size="14.00">        EX_LocalVariable [CallFunc_GetHeroName_ReturnValue]</text>
<text text-anchor="start" x="2381" y="-202.3" font-family="monospace" font-size="14.00">      case 1:</text>
<text text-anchor="start" x="2381" y="-187.3" font-family="monospace" font-size="14.00">        EX_True</text>
<text text-anchor="start" x="2381" y="-172.3" font-family="monospace" font-size="14.00">        NextCaseOffset = 318</text>
<text text-anchor="start" x="2381" y="-157.3" font-family="monospace" font-size="14.00">        EX_LocalVariable [Temp_text_Variable]</text>
<text text-anchor="start" x="2381" y="-142.3" font-family="monospace" font-size="14.00">      default:</text>
<text text-anchor="start" x="2381" y="-127.3" font-family="monospace" font-size="14.00">        EX_LocalVariable [K2Node_Select_Default]</text>
<text text-anchor="start" x="2381" y="-112.3" font-family="monospace" font-size="14.00">    EX_ByteConst 0</text>
<text text-anchor="start" x="2381" y="-97.3" font-family="monospace" font-size="14.00">    EX_Self</text>
<text text-anchor="start" x="2381" y="-82.3" font-family="monospace" font-size="14.00">  RValue = []</text>
</g>
<!-- ShoutStart__180&#45;&gt;ShoutStart__230 -->
<g id="edge19" class="edge">
<title>ShoutStart__180&#45;&gt;ShoutStart__230</title>
<path fill="none" stroke="black" d="M2666,-420.71C2666,-412.39 2666,-403.33 2666,-393.83"/>
<polygon fill="black" stroke="black" points="2669.5,-394 2666,-384 2662.5,-394 2669.5,-394"/>
</g>
<!-- ShoutStart__331 -->
<g id="node24" class="node">
<title>ShoutStart__331</title>
<polygon fill="#eeeeee" stroke="black" points="2579.5,-0.5 2579.5,-36.5 2752.5,-36.5 2752.5,-0.5 2579.5,-0.5"/>
<text text-anchor="start" x="2587.5" y="-14.8" font-family="monospace" font-size="14.00">EX_PopExecutionFlow</text>
</g>
<!-- ShoutStart__230&#45;&gt;ShoutStart__331 -->
<g id="edge20" class="edge">
<title>ShoutStart__230&#45;&gt;ShoutStart__331</title>
<path fill="none" stroke="black" d="M2666,-74.69C2666,-64.7 2666,-55.48 2666,-47.56"/>
<polygon fill="black" stroke="black" points="2669.5,-47.75 2666,-37.75 2662.5,-47.75 2669.5,-47.75"/>
</g>
<!-- ShoutStart__352 -->
<g id="node26" class="node">
<title>ShoutStart__352</title>
<polygon fill="#eeeeee" stroke="black" points="2938,-881 2938,-964 3532,-964 3532,-881 2938,-881"/>
<text text-anchor="start" x="2946" y="-948.8" font-family="monospace" font-size="14.00">EX_Let</text>
<text text-anchor="start" x="2946" y="-933.8" font-family="monospace" font-size="14.00">  EX_LocalVariable [CallFunc_Add_FloatFloat_ReturnValue]</text>
<text text-anchor="start" x="2946" y="-918.8" font-family="monospace" font-size="14.00">  EX_CallMath import /Script/Engine&#45;&gt;KismetMathLibrary&#45;&gt;Add_FloatFloat</text>
<text text-anchor="start" x="2946" y="-903.8" font-family="monospace" font-size="14.00">    EX_LocalVariable [InDuration]</text>
<text text-anchor="start" x="2946" y="-888.8" font-family="monospace" font-size="14.00">    EX_FloatConst 0.5</text>
</g>
<!-- ShoutStart__332&#45;&gt;ShoutStart__352 -->
<g id="edge21" class="edge">
<title>ShoutStart__332&#45;&gt;ShoutStart__352</title>
<path fill="none" stroke="black" d="M3234.14,-1075.57C3234.29,-1049.5 3234.52,-1008.23 3234.71,-975.25"/>
<polygon fill="black" stroke="black" points="3238.21,-975.5 3234.76,-965.49 3231.21,-975.47 3238.21,-975.5"/>
</g>
<!-- ShoutStart__394 -->
<g id="node27" class="node">
<title>ShoutStart__394</title>
<polygon fill="#eeeeee" stroke="black" points="3019.5,-752.5 3019.5,-805.5 3506.5,-805.5 3506.5,-752.5 3019.5,-752.5"/>
<text text-anchor="start" x="3027.5" y="-790.3" font-family="monospace" font-size="14.00">EX_BindDelegate OnShoutEnd</text>
<text text-anchor="start" x="3027.5" y="-775.3" font-family="monospace" font-size="14.00">  EX_LocalVariable [K2Node_CreateDelegate_OutputDelegate]</text>
<text text-anchor="start" x="3027.5" y="-760.3" font-family="monospace" font-size="14.00">  EX_Self</text>
</g>
<!-- ShoutStart__352&#45;&gt;ShoutStart__394 -->
<g id="edge22" class="edge">
<title>ShoutStart__352&#45;&gt;ShoutStart__394</title>
<path fill="none" stroke="black" d="M3242.95,-881.33C3247,-860.84 3251.9,-836.11 3255.83,-816.21"/>
<polygon fill="black" stroke="black" points="3259.23,-817.1 3257.73,-806.61 3252.36,-815.74 3259.23,-817.1"/>
</g>
<!-- ShoutStart__417 -->
<g id="node28" class="node">
<title>ShoutStart__417</title>
<polygon fill="#eeeeee" stroke="black" points="2944,-556.5 2944,-684.5 3596,-684.5 3596,-556.5 2944,-556.5"/>
<text text-anchor="start" x="2952" y="-669.3" font-family="monospace" font-size="14.00">EX_Let</text>
<text text-anchor="start" x="2952" y="-654.3" font-family="monospace" font-size="14.00">  EX_LocalVariable [CallFunc_K2_SetTimerDelegate_ReturnValue]</text>
<text text-anchor="start" x="2952" y="-639.3" font-family="monospace" font-size="14.00">  EX_CallMath import /Script/Engine&#45;&gt;KismetSystemLibrary&#45;&gt;K2_SetTimerDelegate</text>
<text text-anchor="start" x="2952" y="-624.3" font-family="monospace" font-size="14.00">    EX_LocalVariable [K2Node_CreateDelegate_OutputDelegate]</text>
<text text-anchor="start" x="2952" y="-609.3" font-family="monospace" font-size="14.00">    EX_LocalVariable [CallFunc_Add_FloatFloat_ReturnValue]</text>
<text text-anchor="start" x="2952" y="-594.3" font-family="monospace" font-size="14.00">    EX_False</text>
<text text-anchor="start" x="2952" y="-579.3" font-family="monospace" font-size="14.00">    EX_FloatConst 0</text>
<text text-anchor="start" x="2952" y="-564.3" font-family="monospace" font-size="14.00">    EX_FloatConst 0</text>
</g>
<!-- ShoutStart__394&#45;&gt;ShoutStart__417 -->
<g id="edge23" class="edge">
<title>ShoutStart__394&#45;&gt;ShoutStart__417</title>
<path fill="none" stroke="black" d="M3264.14,-752.51C3264.84,-736.94 3265.77,-716.16 3266.68,-695.75"/>
<polygon fill="black" stroke="black" points="3270.17,-696.14 3267.12,-685.99 3263.17,-695.82 3270.17,-696.14"/>
</g>
<!-- ShoutStart__474 -->
<g id="node29" class="node">
<title>ShoutStart__474</title>
<polygon fill="#eeeeee" stroke="black" points="3010,-443 3010,-496 3530,-496 3530,-443 3010,-443"/>
<text text-anchor="start" x="3018" y="-480.8" font-family="monospace" font-size="14.00">EX_Let</text>
<text text-anchor="start" x="3018" y="-465.8" font-family="monospace" font-size="14.00">  EX_InstanceVariable [TimeOutHandle]</text>
<text text-anchor="start" x="3018" y="-450.8" font-family="monospace" font-size="14.00">  EX_LocalVariable [CallFunc_K2_SetTimerDelegate_ReturnValue]</text>
</g>
<!-- ShoutStart__417&#45;&gt;ShoutStart__474 -->
<g id="edge24" class="edge">
<title>ShoutStart__417&#45;&gt;ShoutStart__474</title>
<path fill="none" stroke="black" d="M3270,-556.74C3270,-539.8 3270,-522.02 3270,-507.04"/>
<polygon fill="black" stroke="black" points="3273.5,-507.21 3270,-497.21 3266.5,-507.21 3273.5,-507.21"/>
</g>
<!-- ShoutStart__501 -->
<g id="node30" class="node">
<title>ShoutStart__501</title>
<polygon fill="#eeeeee" stroke="black" points="3129.5,-209.5 3129.5,-247.5 3410.5,-247.5 3410.5,-209.5 3129.5,-209.5"/>
<text text-anchor="start" x="3137.5" y="-232.3" font-family="monospace" font-size="14.00">EX_VirtualFunction SetVisibility</text>
<text text-anchor="start" x="3137.5" y="-217.3" font-family="monospace" font-size="14.00">  EX_ByteConst 3</text>
</g>
<!-- ShoutStart__474&#45;&gt;ShoutStart__501 -->
<g id="edge25" class="edge">
<title>ShoutStart__474&#45;&gt;ShoutStart__501</title>
<path fill="none" stroke="black" d="M3270,-443.37C3270,-398.72 3270,-305.81 3270,-258.51"/>
<polygon fill="black" stroke="black" points="3273.5,-258.77 3270,-248.77 3266.5,-258.77 3273.5,-258.77"/>
</g>
<!-- ShoutStart__517 -->
<g id="node31" class="node">
<title>ShoutStart__517</title>
<polygon fill="#eeeeee" stroke="black" points="3183.5,-0.5 3183.5,-36.5 3356.5,-36.5 3356.5,-0.5 3183.5,-0.5"/>
<text text-anchor="start" x="3191.5" y="-14.8" font-family="monospace" font-size="14.00">EX_PopExecutionFlow</text>
</g>
<!-- ShoutStart__501&#45;&gt;ShoutStart__517 -->
<g id="edge26" class="edge">
<title>ShoutStart__501&#45;&gt;ShoutStart__517</title>
<path fill="none" stroke="black" d="M3270,-209.77C3270,-173.65 3270,-91.33 3270,-47.76"/>
<polygon fill="black" stroke="black" points="3273.5,-47.83 3270,-37.83 3266.5,-47.83 3273.5,-47.83"/>
</g>
<!-- ShoutStart__520 -->
<g id="node33" class="node">
<title>ShoutStart__520</title>
<polygon fill="#eeeeee" stroke="black" points="3263,-1177.5 3263,-1213.5 3395,-1213.5 3395,-1177.5 3263,-1177.5"/>
<text text-anchor="start" x="3271" y="-1191.8" font-family="monospace" font-size="14.00">EX_EndOfScript</text>
</g>
<!-- OnShoutEnd -->
<g id="node34" class="node">
<title>OnShoutEnd</title>
<polygon fill="#ff8888" stroke="black" points="3268.5,-1562.5 3268.5,-1598.5 3441.5,-1598.5 3441.5,-1562.5 3268.5,-1562.5"/>
<text text-anchor="start" x="3276.5" y="-1576.8" font-family="monospace" font-size="14.00">Function OnShoutEnd</text>
</g>
<!-- OnShoutEnd__0 -->
<g id="node35" class="node">
<title>OnShoutEnd__0</title>
<polygon fill="#eeeeee" stroke="black" points="3214.5,-1344.5 3214.5,-1382.5 3495.5,-1382.5 3495.5,-1344.5 3214.5,-1344.5"/>
<text text-anchor="start" x="3222.5" y="-1367.3" font-family="monospace" font-size="14.00">EX_VirtualFunction SetVisibility</text>
<text text-anchor="start" x="3222.5" y="-1352.3" font-family="monospace" font-size="14.00">  EX_ByteConst 1</text>
</g>
<!-- OnShoutEnd&#45;&gt;OnShoutEnd__0 -->
<g id="edge27" class="edge">
<title>OnShoutEnd&#45;&gt;OnShoutEnd__0</title>
<path fill="none" stroke="black" d="M3355,-1562.63C3355,-1526.18 3355,-1439.67 3355,-1393.97"/>
<polygon fill="black" stroke="black" points="3358.5,-1394.01 3355,-1384.01 3351.5,-1394.01 3358.5,-1394.01"/>
</g>
<!-- OnShoutEnd__16 -->
<g id="node36" class="node">
<title>OnShoutEnd__16</title>
<polygon fill="#eeeeee" stroke="black" points="3297,-1232.5 3297,-1270.5 3413,-1270.5 3413,-1232.5 3297,-1232.5"/>
<text text-anchor="start" x="3305" y="-1255.3" font-family="monospace" font-size="14.00">EX_Return</text>
<text text-anchor="start" x="3305" y="-1240.3" font-family="monospace" font-size="14.00">  EX_Nothing</text>
</g>
<!-- OnShoutEnd__0&#45;&gt;OnShoutEnd__16 -->
<g id="edge28" class="edge">
<title>OnShoutEnd__0&#45;&gt;OnShoutEnd__16</title>
<path fill="none" stroke="black" d="M3355,-1344.83C3355,-1327.85 3355,-1301.88 3355,-1281.81"/>
<polygon fill="black" stroke="black" points="3358.5,-1282.01 3355,-1272.01 3351.5,-1282.01 3358.5,-1282.01"/>
</g>
<!-- OnShoutEnd__18 -->
<g id="node37" class="node">
<title>OnShoutEnd__18</title>
<polygon fill="#eeeeee" stroke="black" points="3249,-990.5 3249,-1026.5 3381,-1026.5 3381,-990.5 3249,-990.5"/>
<text text-anchor="start" x="3257" y="-1004.8" font-family="monospace" font-size="14.00">EX_EndOfScript</text>
</g>
</g>
</svg>
