<?xml version="1.0" encoding="UTF-8" standalone="no"?>
<!DOCTYPE svg PUBLIC "-//W3C//DTD SVG 1.1//EN"
 "http://www.w3.org/Graphics/SVG/1.1/DTD/svg11.dtd">
<!-- Generated by graphviz version 7.0.1 (0)
 -->
<!-- Pages: 1 -->
<svg width="2047pt" height="1069pt"
 viewBox="0.00 0.00 2047.00 1069.00" xmlns="http://www.w3.org/2000/svg" xmlns:xlink="http://www.w3.org/1999/xlink">
<g id="graph0" class="graph" transform="scale(1 1) rotate(0) translate(4 1065)">
<polygon fill="white" stroke="none" points="-4,4 -4,-1065 2043,-1065 2043,4 -4,4"/>
<!-- BP_LockOnRifle_AoE_C -->
<g id="node1" class="node">
<title>BP_LockOnRifle_AoE_C</title>
<polygon fill="#88ff88" stroke="black" points="0,-827.5 0,-1060.5 594,-1060.5 594,-827.5 0,-827.5"/>
<text text-anchor="start" x="8" y="-1045.3" font-family="monospace" font-size="14.00">ClassExport: BP_LockOnRifle_AoE_C</text>
<text text-anchor="start" x="8" y="-1030.3" font-family="monospace" font-size="14.00">  SuperStruct: import /Script/Engine&#45;&gt;Actor</text>
<text text-anchor="start" x="8" y="-1015.3" font-family="monospace" font-size="14.00">  Properties:</text>
<text text-anchor="start" x="8" y="-1000.3" font-family="monospace" font-size="14.00">    StructProperty UberGraphFrame</text>
<text text-anchor="start" x="8" y="-985.3" font-family="monospace" font-size="14.00">      CPF_Transient|CPF_DuplicateTransient</text>
<text text-anchor="start" x="8" y="-970.3" font-family="monospace" font-size="14.00">    ObjectProperty P_Grenade_Cluster_Fragment</text>
<text text-anchor="start" x="8" y="-955.3" font-family="monospace" font-size="14.00">      CPF_BlueprintVisible|CPF_InstancedReference|CPF_NonTransactional</text>
<text text-anchor="start" x="8" y="-940.3" font-family="monospace" font-size="14.00">    ObjectProperty Damage</text>
<text text-anchor="start" x="8" y="-925.3" font-family="monospace" font-size="14.00">      CPF_BlueprintVisible|CPF_InstancedReference|CPF_NonTransactional</text>
<text text-anchor="start" x="8" y="-910.3" font-family="monospace" font-size="14.00">    ObjectProperty Audio</text>
<text text-anchor="start" x="8" y="-895.3" font-family="monospace" font-size="14.00">      CPF_BlueprintVisible|CPF_InstancedReference|CPF_NonTransactional</text>
<text text-anchor="start" x="8" y="-880.3" font-family="monospace" font-size="14.00">    ObjectProperty Particle</text>
<text text-anchor="start" x="8" y="-865.3" font-family="monospace" font-size="14.00">      CPF_BlueprintVisible|CPF_InstancedReference|CPF_NonTransactional</text>
<text text-anchor="start" x="8" y="-850.3" font-family="monospace" font-size="14.00">    ObjectProperty DefaultSceneRoot</text>
<text text-anchor="start" x="8" y="-835.3" font-family="monospace" font-size="14.00">      CPF_BlueprintVisible|CPF_InstancedReference|CPF_NonTransactional</text>
</g>
<!-- ExecuteUbergraph_BP_LockOnRifle_AoE -->
<g id="node2" class="node">
<title>ExecuteUbergraph_BP_LockOnRifle_AoE</title>
<polygon fill="#ff8888" stroke="black" points="612.5,-902.5 612.5,-985.5 1099.5,-985.5 1099.5,-902.5 612.5,-902.5"/>
<text text-anchor="start" x="620.5" y="-970.3" font-family="monospace" font-size="14.00">Function ExecuteUbergraph_BP_LockOnRifle_AoE</text>
<text text-anchor="start" x="620.5" y="-955.3" font-family="monospace" font-size="14.00">  IntProperty EntryPoint</text>
<text text-anchor="start" x="620.5" y="-940.3" font-family="monospace" font-size="14.00">    CPF_BlueprintVisible|CPF_BlueprintReadOnly|CPF_Parm</text>
<text text-anchor="start" x="620.5" y="-925.3" font-family="monospace" font-size="14.00">  StructProperty CallFunc_K2_GetActorLocation_ReturnValue</text>
<text text-anchor="start" x="620.5" y="-910.3" font-family="monospace" font-size="14.00">  BoolProperty CallFunc_HasAuthority_ReturnValue</text>
</g>
<!-- ExecuteUbergraph_BP_LockOnRifle_AoE__0 -->
<g id="node3" class="node">
<title>ExecuteUbergraph_BP_LockOnRifle_AoE__0</title>
<polygon fill="#eeeeee" stroke="black" points="720,-715.5 720,-753.5 992,-753.5 992,-715.5 720,-715.5"/>
<text text-anchor="start" x="728" y="-738.3" font-family="monospace" font-size="14.00">EX_ComputedJump</text>
<text text-anchor="start" x="728" y="-723.3" font-family="monospace" font-size="14.00">  EX_LocalVariable [EntryPoint]</text>
</g>
<!-- ExecuteUbergraph_BP_LockOnRifle_AoE&#45;&gt;ExecuteUbergraph_BP_LockOnRifle_AoE__0 -->
<g id="edge1" class="edge">
<title>ExecuteUbergraph_BP_LockOnRifle_AoE&#45;&gt;ExecuteUbergraph_BP_LockOnRifle_AoE__0</title>
<path fill="none" stroke="black" d="M856,-902.99C856,-862.47 856,-800.76 856,-764.65"/>
<polygon fill="black" stroke="black" points="859.5,-764.96 856,-754.96 852.5,-764.96 859.5,-764.96"/>
</g>
<!-- ExecuteUbergraph_BP_LockOnRifle_AoE__10 -->
<g id="node4" class="node">
<title>ExecuteUbergraph_BP_LockOnRifle_AoE__10</title>
<polygon fill="#eeeeee" stroke="black" points="1476,-512.5 1476,-565.5 1996,-565.5 1996,-512.5 1476,-512.5"/>
<text text-anchor="start" x="1484" y="-550.3" font-family="monospace" font-size="14.00">EX_LetBool</text>
<text text-anchor="start" x="1484" y="-535.3" font-family="monospace" font-size="14.00">  EX_LocalVariable [CallFunc_HasAuthority_ReturnValue]</text>
<text text-anchor="start" x="1484" y="-520.3" font-family="monospace" font-size="14.00">  EX_FinalFunction import /Script/Engine&#45;&gt;Actor&#45;&gt;HasAuthority</text>
</g>
<!-- ExecuteUbergraph_BP_LockOnRifle_AoE__30 -->
<g id="node5" class="node">
<title>ExecuteUbergraph_BP_LockOnRifle_AoE__30</title>
<polygon fill="#eeeeee" stroke="black" points="1505,-436.5 1505,-474.5 1967,-474.5 1967,-436.5 1505,-436.5"/>
<text text-anchor="start" x="1513" y="-459.3" font-family="monospace" font-size="14.00">EX_JumpIfNot 131</text>
<text text-anchor="start" x="1513" y="-444.3" font-family="monospace" font-size="14.00">  EX_LocalVariable [CallFunc_HasAuthority_ReturnValue]</text>
</g>
<!-- ExecuteUbergraph_BP_LockOnRifle_AoE__10&#45;&gt;ExecuteUbergraph_BP_LockOnRifle_AoE__30 -->
<g id="edge2" class="edge">
<title>ExecuteUbergraph_BP_LockOnRifle_AoE__10&#45;&gt;ExecuteUbergraph_BP_LockOnRifle_AoE__30</title>
<path fill="none" stroke="black" d="M1736,-512.66C1736,-504.11 1736,-494.51 1736,-485.69"/>
<polygon fill="black" stroke="black" points="1739.5,-485.84 1736,-475.84 1732.5,-485.84 1739.5,-485.84"/>
</g>
<!-- ExecuteUbergraph_BP_LockOnRifle_AoE__44 -->
<g id="node6" class="node">
<title>ExecuteUbergraph_BP_LockOnRifle_AoE__44</title>
<polygon fill="#eeeeee" stroke="black" points="1381,-331.5 1381,-384.5 1959,-384.5 1959,-331.5 1381,-331.5"/>
<text text-anchor="start" x="1389" y="-369.3" font-family="monospace" font-size="14.00">EX_Let</text>
<text text-anchor="start" x="1389" y="-354.3" font-family="monospace" font-size="14.00">  EX_LocalVariable [CallFunc_K2_GetActorLocation_ReturnValue]</text>
<text text-anchor="start" x="1389" y="-339.3" font-family="monospace" font-size="14.00">  EX_FinalFunction import /Script/Engine&#45;&gt;Actor&#45;&gt;K2_GetActorLocation</text>
</g>
<!-- ExecuteUbergraph_BP_LockOnRifle_AoE__30&#45;&gt;ExecuteUbergraph_BP_LockOnRifle_AoE__44 -->
<g id="edge4" class="edge">
<title>ExecuteUbergraph_BP_LockOnRifle_AoE__30&#45;&gt;ExecuteUbergraph_BP_LockOnRifle_AoE__44</title>
<path fill="none" stroke="black" d="M1723.59,-436.54C1715.25,-424.48 1704.01,-408.21 1693.97,-393.68"/>
<polygon fill="black" stroke="black" points="1697.01,-391.93 1688.45,-385.7 1691.26,-395.91 1697.01,-391.93"/>
<text text-anchor="middle" x="1717.5" y="-406.8" font-family="monospace" font-size="14.00">IF</text>
</g>
<!-- ExecuteUbergraph_BP_LockOnRifle_AoE__131 -->
<g id="node10" class="node">
<title>ExecuteUbergraph_BP_LockOnRifle_AoE__131</title>
<polygon fill="#eeeeee" stroke="black" points="1890,-0.5 1890,-38.5 2006,-38.5 2006,-0.5 1890,-0.5"/>
<text text-anchor="start" x="1898" y="-23.3" font-family="monospace" font-size="14.00">EX_Return</text>
<text text-anchor="start" x="1898" y="-8.3" font-family="monospace" font-size="14.00">  EX_Nothing</text>
</g>
<!-- ExecuteUbergraph_BP_LockOnRifle_AoE__30&#45;&gt;ExecuteUbergraph_BP_LockOnRifle_AoE__131 -->
<g id="edge3" class="edge">
<title>ExecuteUbergraph_BP_LockOnRifle_AoE__30:e&#45;&gt;ExecuteUbergraph_BP_LockOnRifle_AoE__131</title>
<path fill="none" stroke="red" d="M1968,-455.5C2011.89,-455.5 1989,-402.89 1989,-359 1989,-359 1989,-359 1989,-93.5 1989,-76.77 1980.72,-60.33 1971.6,-47.3"/>
<polygon fill="none" stroke="red" points="1974.65,-45.54 1965.83,-39.67 1969.06,-49.76 1974.65,-45.54"/>
<text text-anchor="middle" x="2014" y="-218.3" font-family="monospace" font-size="14.00">IF NOT</text>
</g>
<!-- ExecuteUbergraph_BP_LockOnRifle_AoE__72 -->
<g id="node7" class="node">
<title>ExecuteUbergraph_BP_LockOnRifle_AoE__72</title>
<polygon fill="#eeeeee" stroke="black" points="1375,-150.5 1375,-293.5 1953,-293.5 1953,-150.5 1375,-150.5"/>
<text text-anchor="start" x="1383" y="-278.3" font-family="monospace" font-size="14.00">EX_Context</text>
<text text-anchor="start" x="1383" y="-263.3" font-family="monospace" font-size="14.00">  EX_InstanceVariable [Damage]</text>
<text text-anchor="start" x="1383" y="-248.3" font-family="monospace" font-size="14.00">  EX_FinalFunction import /Script/FSD&#45;&gt;DamageComponent&#45;&gt;DamageTarget</text>
<text text-anchor="start" x="1383" y="-233.3" font-family="monospace" font-size="14.00">    EX_NoObject</text>
<text text-anchor="start" x="1383" y="-218.3" font-family="monospace" font-size="14.00">    EX_LocalVariable [CallFunc_K2_GetActorLocation_ReturnValue]</text>
<text text-anchor="start" x="1383" y="-203.3" font-family="monospace" font-size="14.00">    EX_NoObject</text>
<text text-anchor="start" x="1383" y="-188.3" font-family="monospace" font-size="14.00">    EX_NoObject</text>
<text text-anchor="start" x="1383" y="-173.3" font-family="monospace" font-size="14.00">    EX_IntConst &#45;1</text>
<text text-anchor="start" x="1383" y="-158.3" font-family="monospace" font-size="14.00">  RValue = []</text>
</g>
<!-- ExecuteUbergraph_BP_LockOnRifle_AoE__44&#45;&gt;ExecuteUbergraph_BP_LockOnRifle_AoE__72 -->
<g id="edge5" class="edge">
<title>ExecuteUbergraph_BP_LockOnRifle_AoE__44&#45;&gt;ExecuteUbergraph_BP_LockOnRifle_AoE__72</title>
<path fill="none" stroke="black" d="M1668.87,-331.8C1668.51,-323.75 1668.09,-314.37 1667.65,-304.56"/>
<polygon fill="black" stroke="black" points="1671.16,-304.68 1667.22,-294.84 1664.17,-304.99 1671.16,-304.68"/>
</g>
<!-- ExecuteUbergraph_BP_LockOnRifle_AoE__121 -->
<g id="node8" class="node">
<title>ExecuteUbergraph_BP_LockOnRifle_AoE__121</title>
<polygon fill="#eeeeee" stroke="black" points="1792.5,-76.5 1792.5,-112.5 1899.5,-112.5 1899.5,-76.5 1792.5,-76.5"/>
<text text-anchor="start" x="1800.5" y="-90.8" font-family="monospace" font-size="14.00">EX_Jump 131</text>
</g>
<!-- ExecuteUbergraph_BP_LockOnRifle_AoE__72&#45;&gt;ExecuteUbergraph_BP_LockOnRifle_AoE__121 -->
<g id="edge6" class="edge">
<title>ExecuteUbergraph_BP_LockOnRifle_AoE__72&#45;&gt;ExecuteUbergraph_BP_LockOnRifle_AoE__121</title>
<path fill="none" stroke="black" d="M1766.17,-150.55C1782.86,-139.04 1799.05,-127.88 1812.43,-118.65"/>
<polygon fill="black" stroke="black" points="1814.15,-121.71 1820.4,-113.15 1810.18,-115.95 1814.15,-121.71"/>
</g>
<!-- ExecuteUbergraph_BP_LockOnRifle_AoE__121&#45;&gt;ExecuteUbergraph_BP_LockOnRifle_AoE__131 -->
<g id="edge7" class="edge">
<title>ExecuteUbergraph_BP_LockOnRifle_AoE__121&#45;&gt;ExecuteUbergraph_BP_LockOnRifle_AoE__131</title>
<path fill="none" stroke="black" d="M1869.66,-76.57C1882.79,-67.17 1899.35,-55.32 1913.86,-44.93"/>
<polygon fill="black" stroke="black" points="1915.72,-47.9 1921.82,-39.24 1911.65,-42.21 1915.72,-47.9"/>
</g>
<!-- ExecuteUbergraph_BP_LockOnRifle_AoE__126 -->
<g id="node9" class="node">
<title>ExecuteUbergraph_BP_LockOnRifle_AoE__126</title>
<polygon fill="#eeeeee" stroke="black" points="1686.5,-604.5 1686.5,-640.5 1785.5,-640.5 1785.5,-604.5 1686.5,-604.5"/>
<text text-anchor="start" x="1694.5" y="-618.8" font-family="monospace" font-size="14.00">EX_Jump 10</text>
</g>
<!-- ExecuteUbergraph_BP_LockOnRifle_AoE__126&#45;&gt;ExecuteUbergraph_BP_LockOnRifle_AoE__10 -->
<g id="edge8" class="edge">
<title>ExecuteUbergraph_BP_LockOnRifle_AoE__126&#45;&gt;ExecuteUbergraph_BP_LockOnRifle_AoE__10</title>
<path fill="none" stroke="black" d="M1736,-604.61C1736,-596.44 1736,-586.28 1736,-576.46"/>
<polygon fill="black" stroke="black" points="1739.5,-576.74 1736,-566.74 1732.5,-576.74 1739.5,-576.74"/>
</g>
<!-- ExecuteUbergraph_BP_LockOnRifle_AoE__133 -->
<g id="node11" class="node">
<title>ExecuteUbergraph_BP_LockOnRifle_AoE__133</title>
<polygon fill="#eeeeee" stroke="black" points="1388,-772.5 1388,-808.5 1520,-808.5 1520,-772.5 1388,-772.5"/>
<text text-anchor="start" x="1396" y="-786.8" font-family="monospace" font-size="14.00">EX_EndOfScript</text>
</g>
<!-- ReceiveBeginPlay -->
<g id="node12" class="node">
<title>ReceiveBeginPlay</title>
<polygon fill="#ff8888" stroke="black" points="1261.5,-926 1261.5,-962 1484.5,-962 1484.5,-926 1261.5,-926"/>
<text text-anchor="start" x="1269.5" y="-940.3" font-family="monospace" font-size="14.00">Function ReceiveBeginPlay</text>
</g>
<!-- ReceiveBeginPlay__0 -->
<g id="node13" class="node">
<title>ReceiveBeginPlay__0</title>
<polygon fill="#eeeeee" stroke="black" points="1010,-715.5 1010,-753.5 1736,-753.5 1736,-715.5 1010,-715.5"/>
<text text-anchor="start" x="1018" y="-738.3" font-family="monospace" font-size="14.00">EX_LocalFinalFunction export BP_LockOnRifle_AoE_C&#45;&gt;ExecuteUbergraph_BP_LockOnRifle_AoE</text>
<text text-anchor="start" x="1018" y="-723.3" font-family="monospace" font-size="14.00">  EX_IntConst 126</text>
</g>
<!-- ReceiveBeginPlay&#45;&gt;ReceiveBeginPlay__0 -->
<g id="edge9" class="edge">
<title>ReceiveBeginPlay&#45;&gt;ReceiveBeginPlay__0</title>
<path fill="none" stroke="black" d="M1373,-926.02C1373,-890.63 1373,-808.63 1373,-764.63"/>
<polygon fill="black" stroke="black" points="1376.5,-764.82 1373,-754.82 1369.5,-764.82 1376.5,-764.82"/>
</g>
<!-- ReceiveBeginPlay__0&#45;&gt;ExecuteUbergraph_BP_LockOnRifle_AoE__126 -->
<g id="edge10" class="edge">
<title>ReceiveBeginPlay__0:e&#45;&gt;ExecuteUbergraph_BP_LockOnRifle_AoE__126</title>
<path fill="none" stroke="red" d="M1737,-734.5C1753.56,-734.5 1747.43,-684.46 1741.62,-651.57"/>
<polygon fill="none" stroke="red" points="1745.08,-651.04 1739.81,-641.85 1738.2,-652.32 1745.08,-651.04"/>
</g>
<!-- ReceiveBeginPlay__15 -->
<g id="node14" class="node">
<title>ReceiveBeginPlay__15</title>
<polygon fill="#eeeeee" stroke="black" points="1315,-603.5 1315,-641.5 1431,-641.5 1431,-603.5 1315,-603.5"/>
<text text-anchor="start" x="1323" y="-626.3" font-family="monospace" font-size="14.00">EX_Return</text>
<text text-anchor="start" x="1323" y="-611.3" font-family="monospace" font-size="14.00">  EX_Nothing</text>
</g>
<!-- ReceiveBeginPlay__0&#45;&gt;ReceiveBeginPlay__15 -->
<g id="edge11" class="edge">
<title>ReceiveBeginPlay__0&#45;&gt;ReceiveBeginPlay__15</title>
<path fill="none" stroke="black" d="M1373,-715.83C1373,-698.85 1373,-672.88 1373,-652.81"/>
<polygon fill="black" stroke="black" points="1376.5,-653.01 1373,-643.01 1369.5,-653.01 1376.5,-653.01"/>
</g>
<!-- ReceiveBeginPlay__17 -->
<g id="node15" class="node">
<title>ReceiveBeginPlay__17</title>
<polygon fill="#eeeeee" stroke="black" points="1751,-660.5 1751,-696.5 1883,-696.5 1883,-660.5 1751,-660.5"/>
<text text-anchor="start" x="1759" y="-674.8" font-family="monospace" font-size="14.00">EX_EndOfScript</text>
</g>
</g>
</svg>
