<?xml version="1.0" encoding="UTF-8" standalone="no"?>
<!DOCTYPE svg PUBLIC "-//W3C//DTD SVG 1.1//EN"
 "http://www.w3.org/Graphics/SVG/1.1/DTD/svg11.dtd">
<!-- Generated by graphviz version 7.0.1 (0)
 -->
<!-- Pages: 1 -->
<svg width="2145pt" height="557pt"
 viewBox="0.00 0.00 2145.00 557.00" xmlns="http://www.w3.org/2000/svg" xmlns:xlink="http://www.w3.org/1999/xlink">
<g id="graph0" class="graph" transform="scale(1 1) rotate(0) translate(4 553)">
<polygon fill="white" stroke="none" points="-4,4 -4,-553 2141,-553 2141,4 -4,4"/>
<!-- HUD_CrossHair_FlareGun_C -->
<g id="node1" class="node">
<title>HUD_CrossHair_FlareGun_C</title>
<polygon fill="#88ff88" stroke="black" points="0,-225.5 0,-548.5 850,-548.5 850,-225.5 0,-225.5"/>
<text text-anchor="start" x="8" y="-533.3" font-family="monospace" font-size="14.00">ClassExport: HUD_CrossHair_FlareGun_C</text>
<text text-anchor="start" x="8" y="-518.3" font-family="monospace" font-size="14.00">  SuperStruct: import /Script/UMG&#45;&gt;UserWidget</text>
<text text-anchor="start" x="8" y="-503.3" font-family="monospace" font-size="14.00">  Properties:</text>
<text text-anchor="start" x="8" y="-488.3" font-family="monospace" font-size="14.00">    StructProperty UberGraphFrame</text>
<text text-anchor="start" x="8" y="-473.3" font-family="monospace" font-size="14.00">      CPF_Transient|CPF_DuplicateTransient</text>
<text text-anchor="start" x="8" y="-458.3" font-family="monospace" font-size="14.00">    ObjectProperty Dot</text>
<text text-anchor="start" x="8" y="-443.3" font-family="monospace" font-size="14.00">      CPF_BlueprintVisible|CPF_ExportObject|CPF_InstancedReference|CPF_RepSkip|CPF_PersistentInstance</text>
<text text-anchor="start" x="8" y="-428.3" font-family="monospace" font-size="14.00">    ObjectProperty Image_1</text>
<text text-anchor="start" x="8" y="-413.3" font-family="monospace" font-size="14.00">      CPF_BlueprintVisible|CPF_ExportObject|CPF_InstancedReference|CPF_RepSkip|CPF_PersistentInstance</text>
<text text-anchor="start" x="8" y="-398.3" font-family="monospace" font-size="14.00">    ObjectProperty Image_2</text>
<text text-anchor="start" x="8" y="-383.3" font-family="monospace" font-size="14.00">      CPF_BlueprintVisible|CPF_ExportObject|CPF_InstancedReference|CPF_RepSkip|CPF_PersistentInstance</text>
<text text-anchor="start" x="8" y="-368.3" font-family="monospace" font-size="14.00">    ObjectProperty Image_4</text>
<text text-anchor="start" x="8" y="-353.3" font-family="monospace" font-size="14.00">      CPF_BlueprintVisible|CPF_ExportObject|CPF_InstancedReference|CPF_RepSkip|CPF_PersistentInstance</text>
<text text-anchor="start" x="8" y="-338.3" font-family="monospace" font-size="14.00">    ObjectProperty Image_5</text>
<text text-anchor="start" x="8" y="-323.3" font-family="monospace" font-size="14.00">      CPF_BlueprintVisible|CPF_ExportObject|CPF_InstancedReference|CPF_RepSkip|CPF_PersistentInstance</text>
<text text-anchor="start" x="8" y="-308.3" font-family="monospace" font-size="14.00">    ObjectProperty Image_6</text>
<text text-anchor="start" x="8" y="-293.3" font-family="monospace" font-size="14.00">      CPF_BlueprintVisible|CPF_ExportObject|CPF_InstancedReference|CPF_RepSkip|CPF_PersistentInstance</text>
<text text-anchor="start" x="8" y="-278.3" font-family="monospace" font-size="14.00">    ObjectProperty Image_7</text>
<text text-anchor="start" x="8" y="-263.3" font-family="monospace" font-size="14.00">      CPF_BlueprintVisible|CPF_ExportObject|CPF_InstancedReference|CPF_RepSkip|CPF_PersistentInstance</text>
<text text-anchor="start" x="8" y="-248.3" font-family="monospace" font-size="14.00">    ObjectProperty Image_8</text>
<text text-anchor="start" x="8" y="-233.3" font-family="monospace" font-size="14.00">      CPF_BlueprintVisible|CPF_ExportObject|CPF_InstancedReference|CPF_RepSkip|CPF_PersistentInstance</text>
</g>
<!-- ExecuteUbergraph_HUD_CrossHair_FlareGun -->
<g id="node2" class="node">
<title>ExecuteUbergraph_HUD_CrossHair_FlareGun</title>
<polygon fill="#ff8888" stroke="black" points="868,-353 868,-421 1338,-421 1338,-353 868,-353"/>
<text text-anchor="start" x="876" y="-405.8" font-family="monospace" font-size="14.00">Function ExecuteUbergraph_HUD_CrossHair_FlareGun</text>
<text text-anchor="start" x="876" y="-390.8" font-family="monospace" font-size="14.00">  IntProperty EntryPoint</text>
<text text-anchor="start" x="876" y="-375.8" font-family="monospace" font-size="14.00">    CPF_BlueprintVisible|CPF_BlueprintReadOnly|CPF_Parm</text>
<text text-anchor="start" x="876" y="-360.8" font-family="monospace" font-size="14.00">  BoolProperty K2Node_Event_IsDesignTime</text>
</g>
<!-- ExecuteUbergraph_HUD_CrossHair_FlareGun__0 -->
<g id="node3" class="node">
<title>ExecuteUbergraph_HUD_CrossHair_FlareGun__0</title>
<polygon fill="#eeeeee" stroke="black" points="967,-150.5 967,-188.5 1239,-188.5 1239,-150.5 967,-150.5"/>
<text text-anchor="start" x="975" y="-173.3" font-family="monospace" font-size="14.00">EX_ComputedJump</text>
<text text-anchor="start" x="975" y="-158.3" font-family="monospace" font-size="14.00">  EX_LocalVariable [EntryPoint]</text>
</g>
<!-- ExecuteUbergraph_HUD_CrossHair_FlareGun&#45;&gt;ExecuteUbergraph_HUD_CrossHair_FlareGun__0 -->
<g id="edge1" class="edge">
<title>ExecuteUbergraph_HUD_CrossHair_FlareGun&#45;&gt;ExecuteUbergraph_HUD_CrossHair_FlareGun__0</title>
<path fill="none" stroke="black" d="M1103,-353.27C1103,-311.44 1103,-239.67 1103,-199.64"/>
<polygon fill="black" stroke="black" points="1106.5,-199.82 1103,-189.82 1099.5,-199.82 1106.5,-199.82"/>
</g>
<!-- ExecuteUbergraph_HUD_CrossHair_FlareGun__10 -->
<g id="node4" class="node">
<title>ExecuteUbergraph_HUD_CrossHair_FlareGun__10</title>
<polygon fill="#eeeeee" stroke="black" points="1929,-0.5 1929,-38.5 2045,-38.5 2045,-0.5 1929,-0.5"/>
<text text-anchor="start" x="1937" y="-23.3" font-family="monospace" font-size="14.00">EX_Return</text>
<text text-anchor="start" x="1937" y="-8.3" font-family="monospace" font-size="14.00">  EX_Nothing</text>
</g>
<!-- ExecuteUbergraph_HUD_CrossHair_FlareGun__12 -->
<g id="node5" class="node">
<title>ExecuteUbergraph_HUD_CrossHair_FlareGun__12</title>
<polygon fill="#eeeeee" stroke="black" points="2005,-76.5 2005,-112.5 2137,-112.5 2137,-76.5 2005,-76.5"/>
<text text-anchor="start" x="2013" y="-90.8" font-family="monospace" font-size="14.00">EX_EndOfScript</text>
</g>
<!-- PreConstruct -->
<g id="node6" class="node">
<title>PreConstruct</title>
<polygon fill="#ff8888" stroke="black" points="1356,-360.5 1356,-413.5 1826,-413.5 1826,-360.5 1356,-360.5"/>
<text text-anchor="start" x="1364" y="-398.3" font-family="monospace" font-size="14.00">Function PreConstruct</text>
<text text-anchor="start" x="1364" y="-383.3" font-family="monospace" font-size="14.00">  BoolProperty IsDesignTime</text>
<text text-anchor="start" x="1364" y="-368.3" font-family="monospace" font-size="14.00">    CPF_BlueprintVisible|CPF_BlueprintReadOnly|CPF_Parm</text>
</g>
<!-- PreConstruct__0 -->
<g id="node7" class="node">
<title>PreConstruct__0</title>
<polygon fill="#eeeeee" stroke="black" points="1351.5,-150.5 1351.5,-188.5 1830.5,-188.5 1830.5,-150.5 1351.5,-150.5"/>
<text text-anchor="start" x="1359.5" y="-173.3" font-family="monospace" font-size="14.00">EX_LetValueOnPersistentFrame [K2Node_Event_IsDesignTime]</text>
<text text-anchor="start" x="1359.5" y="-158.3" font-family="monospace" font-size="14.00">  EX_LocalVariable [IsDesignTime]</text>
</g>
<!-- PreConstruct&#45;&gt;PreConstruct__0 -->
<g id="edge2" class="edge">
<title>PreConstruct&#45;&gt;PreConstruct__0</title>
<path fill="none" stroke="black" d="M1591,-360.86C1591,-320.74 1591,-242.44 1591,-199.83"/>
<polygon fill="black" stroke="black" points="1594.5,-199.84 1591,-189.84 1587.5,-199.84 1594.5,-199.84"/>
</g>
<!-- PreConstruct__18 -->
<g id="node8" class="node">
<title>PreConstruct__18</title>
<polygon fill="#eeeeee" stroke="black" points="1195,-75.5 1195,-113.5 1987,-113.5 1987,-75.5 1195,-75.5"/>
<text text-anchor="start" x="1203" y="-98.3" font-family="monospace" font-size="14.00">EX_LocalFinalFunction export HUD_CrossHair_FlareGun_C&#45;&gt;ExecuteUbergraph_HUD_CrossHair_FlareGun</text>
<text text-anchor="start" x="1203" y="-83.3" font-family="monospace" font-size="14.00">  EX_IntConst 10</text>
</g>
<!-- PreConstruct__0&#45;&gt;PreConstruct__18 -->
<g id="edge3" class="edge">
<title>PreConstruct__0&#45;&gt;PreConstruct__18</title>
<path fill="none" stroke="black" d="M1591,-150.83C1591,-143 1591,-133.57 1591,-124.74"/>
<polygon fill="black" stroke="black" points="1594.5,-124.78 1591,-114.78 1587.5,-124.78 1594.5,-124.78"/>
</g>
<!-- PreConstruct__18&#45;&gt;ExecuteUbergraph_HUD_CrossHair_FlareGun__10 -->
<g id="edge4" class="edge">
<title>PreConstruct__18:e&#45;&gt;ExecuteUbergraph_HUD_CrossHair_FlareGun__10</title>
<path fill="none" stroke="red" d="M1988,-94.5C1997.39,-94.5 1995.73,-70.39 1992.58,-49.69"/>
<polygon fill="none" stroke="red" points="1996.05,-49.19 1990.93,-39.91 1989.14,-50.35 1996.05,-49.19"/>
</g>
<!-- PreConstruct__33 -->
<g id="node9" class="node">
<title>PreConstruct__33</title>
<polygon fill="#eeeeee" stroke="black" points="1533,-0.5 1533,-38.5 1649,-38.5 1649,-0.5 1533,-0.5"/>
<text text-anchor="start" x="1541" y="-23.3" font-family="monospace" font-size="14.00">EX_Return</text>
<text text-anchor="start" x="1541" y="-8.3" font-family="monospace" font-size="14.00">  EX_Nothing</text>
</g>
<!-- PreConstruct__18&#45;&gt;PreConstruct__33 -->
<g id="edge5" class="edge">
<title>PreConstruct__18&#45;&gt;PreConstruct__33</title>
<path fill="none" stroke="black" d="M1591,-75.83C1591,-68 1591,-58.57 1591,-49.74"/>
<polygon fill="black" stroke="black" points="1594.5,-49.78 1591,-39.78 1587.5,-49.78 1594.5,-49.78"/>
</g>
<!-- PreConstruct__35 -->
<g id="node10" class="node">
<title>PreConstruct__35</title>
<polygon fill="#eeeeee" stroke="black" points="1844,-369 1844,-405 1976,-405 1976,-369 1844,-369"/>
<text text-anchor="start" x="1852" y="-383.3" font-family="monospace" font-size="14.00">EX_EndOfScript</text>
</g>
</g>
</svg>
