<?xml version="1.0" encoding="UTF-8" standalone="no"?>
<!DOCTYPE svg PUBLIC "-//W3C//DTD SVG 1.1//EN"
 "http://www.w3.org/Graphics/SVG/1.1/DTD/svg11.dtd">
<!-- Generated by graphviz version 7.0.1 (0)
 -->
<!-- Pages: 1 -->
<svg width="2858pt" height="1097pt"
 viewBox="0.00 0.00 2857.50 1097.00" xmlns="http://www.w3.org/2000/svg" xmlns:xlink="http://www.w3.org/1999/xlink">
<g id="graph0" class="graph" transform="scale(1 1) rotate(0) translate(4 1093)">
<polygon fill="white" stroke="none" points="-4,4 -4,-1093 2853.5,-1093 2853.5,4 -4,4"/>
<!-- BP_OxygenRich_C -->
<g id="node1" class="node">
<title>BP_OxygenRich_C</title>
<polygon fill="#88ff88" stroke="black" points="0,-983 0,-1066 437,-1066 437,-983 0,-983"/>
<text text-anchor="start" x="8" y="-1050.8" font-family="monospace" font-size="14.00">ClassExport: BP_OxygenRich_C</text>
<text text-anchor="start" x="8" y="-1035.8" font-family="monospace" font-size="14.00">  SuperStruct: import /Script/FSD&#45;&gt;RunningMissionBP</text>
<text text-anchor="start" x="8" y="-1020.8" font-family="monospace" font-size="14.00">  Properties:</text>
<text text-anchor="start" x="8" y="-1005.8" font-family="monospace" font-size="14.00">    StructProperty UberGraphFrame</text>
<text text-anchor="start" x="8" y="-990.8" font-family="monospace" font-size="14.00">      CPF_Transient|CPF_DuplicateTransient</text>
</g>
<!-- ExecuteUbergraph_BP_OxygenRich -->
<g id="node2" class="node">
<title>ExecuteUbergraph_BP_OxygenRich</title>
<polygon fill="#ff8888" stroke="black" points="455.5,-960.5 455.5,-1088.5 925.5,-1088.5 925.5,-960.5 455.5,-960.5"/>
<text text-anchor="start" x="463.5" y="-1073.3" font-family="monospace" font-size="14.00">Function ExecuteUbergraph_BP_OxygenRich</text>
<text text-anchor="start" x="463.5" y="-1058.3" font-family="monospace" font-size="14.00">  IntProperty EntryPoint</text>
<text text-anchor="start" x="463.5" y="-1043.3" font-family="monospace" font-size="14.00">    CPF_BlueprintVisible|CPF_BlueprintReadOnly|CPF_Parm</text>
<text text-anchor="start" x="463.5" y="-1028.3" font-family="monospace" font-size="14.00">  ObjectProperty K2Node_CustomEvent_PlayerCharacter</text>
<text text-anchor="start" x="463.5" y="-1013.3" font-family="monospace" font-size="14.00">  DelegateProperty K2Node_CreateDelegate_OutputDelegate</text>
<text text-anchor="start" x="463.5" y="-998.3" font-family="monospace" font-size="14.00">  IntProperty CallFunc_AddModifier_ReturnValue</text>
<text text-anchor="start" x="463.5" y="-983.3" font-family="monospace" font-size="14.00">  BoolProperty CallFunc_IsServer_ReturnValue</text>
<text text-anchor="start" x="463.5" y="-968.3" font-family="monospace" font-size="14.00">  ObjectProperty CallFunc_GetFSDGameState_ReturnValue</text>
</g>
<!-- ExecuteUbergraph_BP_OxygenRich__0 -->
<g id="node3" class="node">
<title>ExecuteUbergraph_BP_OxygenRich__0</title>
<polygon fill="#eeeeee" stroke="black" points="554.5,-848.5 554.5,-886.5 826.5,-886.5 826.5,-848.5 554.5,-848.5"/>
<text text-anchor="start" x="562.5" y="-871.3" font-family="monospace" font-size="14.00">EX_ComputedJump</text>
<text text-anchor="start" x="562.5" y="-856.3" font-family="monospace" font-size="14.00">  EX_LocalVariable [EntryPoint]</text>
</g>
<!-- ExecuteUbergraph_BP_OxygenRich&#45;&gt;ExecuteUbergraph_BP_OxygenRich__0 -->
<g id="edge1" class="edge">
<title>ExecuteUbergraph_BP_OxygenRich&#45;&gt;ExecuteUbergraph_BP_OxygenRich__0</title>
<path fill="none" stroke="black" d="M690.5,-960.9C690.5,-939.06 690.5,-915.57 690.5,-897.74"/>
<polygon fill="black" stroke="black" points="694,-897.91 690.5,-887.91 687,-897.91 694,-897.91"/>
</g>
<!-- ExecuteUbergraph_BP_OxygenRich__10 -->
<g id="node4" class="node">
<title>ExecuteUbergraph_BP_OxygenRich__10</title>
<polygon fill="#eeeeee" stroke="black" points="2065.5,-459.5 2065.5,-632.5 2849.5,-632.5 2849.5,-459.5 2065.5,-459.5"/>
<text text-anchor="start" x="2073.5" y="-617.3" font-family="monospace" font-size="14.00">EX_Let</text>
<text text-anchor="start" x="2073.5" y="-602.3" font-family="monospace" font-size="14.00">  EX_LocalVariable [CallFunc_AddModifier_ReturnValue]</text>
<text text-anchor="start" x="2073.5" y="-587.3" font-family="monospace" font-size="14.00">  EX_Context</text>
<text text-anchor="start" x="2073.5" y="-572.3" font-family="monospace" font-size="14.00">    EX_Context</text>
<text text-anchor="start" x="2073.5" y="-557.3" font-family="monospace" font-size="14.00">      EX_LocalVariable [K2Node_CustomEvent_PlayerCharacter]</text>
<text text-anchor="start" x="2073.5" y="-542.3" font-family="monospace" font-size="14.00">      EX_InstanceVariable [PawnStatsComponent]</text>
<text text-anchor="start" x="2073.5" y="-527.3" font-family="monospace" font-size="14.00">      RValue = [PawnStatsComponent]</text>
<text text-anchor="start" x="2073.5" y="-512.3" font-family="monospace" font-size="14.00">    EX_FinalFunction import /Script/FSD&#45;&gt;PawnStatsComponent&#45;&gt;AddModifier</text>
<text text-anchor="start" x="2073.5" y="-497.3" font-family="monospace" font-size="14.00">      EX_ObjectConst import /Game/GameElements/PawnStats/PST_MovementSpeed&#45;&gt;PST_MovementSpeed</text>
<text text-anchor="start" x="2073.5" y="-482.3" font-family="monospace" font-size="14.00">      EX_FloatConst 1.5</text>
<text text-anchor="start" x="2073.5" y="-467.3" font-family="monospace" font-size="14.00">    RValue = [CallFunc_AddModifier_ReturnValue]</text>
</g>
<!-- ExecuteUbergraph_BP_OxygenRich__96 -->
<g id="node5" class="node">
<title>ExecuteUbergraph_BP_OxygenRich__96</title>
<polygon fill="#eeeeee" stroke="black" points="2250,-299.5 2250,-335.5 2357,-335.5 2357,-299.5 2250,-299.5"/>
<text text-anchor="start" x="2258" y="-313.8" font-family="monospace" font-size="14.00">EX_Jump 221</text>
</g>
<!-- ExecuteUbergraph_BP_OxygenRich__10&#45;&gt;ExecuteUbergraph_BP_OxygenRich__96 -->
<g id="edge2" class="edge">
<title>ExecuteUbergraph_BP_OxygenRich__10&#45;&gt;ExecuteUbergraph_BP_OxygenRich__96</title>
<path fill="none" stroke="black" d="M2399.5,-459.69C2371.71,-418.82 2340.39,-372.76 2321.3,-344.68"/>
<polygon fill="black" stroke="black" points="2324.22,-342.75 2315.7,-336.45 2318.43,-346.69 2324.22,-342.75"/>
</g>
<!-- ExecuteUbergraph_BP_OxygenRich__221 -->
<g id="node11" class="node">
<title>ExecuteUbergraph_BP_OxygenRich__221</title>
<polygon fill="#eeeeee" stroke="black" points="1927.5,-0.5 1927.5,-38.5 2043.5,-38.5 2043.5,-0.5 1927.5,-0.5"/>
<text text-anchor="start" x="1935.5" y="-23.3" font-family="monospace" font-size="14.00">EX_Return</text>
<text text-anchor="start" x="1935.5" y="-8.3" font-family="monospace" font-size="14.00">  EX_Nothing</text>
</g>
<!-- ExecuteUbergraph_BP_OxygenRich__96&#45;&gt;ExecuteUbergraph_BP_OxygenRich__221 -->
<g id="edge3" class="edge">
<title>ExecuteUbergraph_BP_OxygenRich__96&#45;&gt;ExecuteUbergraph_BP_OxygenRich__221</title>
<path fill="none" stroke="black" d="M2285.49,-299.74C2232.41,-250.33 2076.32,-105.04 2012.83,-45.94"/>
<polygon fill="black" stroke="black" points="2015.32,-43.47 2005.61,-39.22 2010.55,-48.6 2015.32,-43.47"/>
</g>
<!-- ExecuteUbergraph_BP_OxygenRich__101 -->
<g id="node6" class="node">
<title>ExecuteUbergraph_BP_OxygenRich__101</title>
<polygon fill="#eeeeee" stroke="black" points="1234,-706.5 1234,-774.5 1795,-774.5 1795,-706.5 1234,-706.5"/>
<text text-anchor="start" x="1242" y="-759.3" font-family="monospace" font-size="14.00">EX_LetBool</text>
<text text-anchor="start" x="1242" y="-744.3" font-family="monospace" font-size="14.00">  EX_LocalVariable [CallFunc_IsServer_ReturnValue]</text>
<text text-anchor="start" x="1242" y="-729.3" font-family="monospace" font-size="14.00">  EX_CallMath import /Script/Engine&#45;&gt;KismetSystemLibrary&#45;&gt;IsServer</text>
<text text-anchor="start" x="1242" y="-714.3" font-family="monospace" font-size="14.00">    EX_Self</text>
</g>
<!-- ExecuteUbergraph_BP_OxygenRich__122 -->
<g id="node7" class="node">
<title>ExecuteUbergraph_BP_OxygenRich__122</title>
<polygon fill="#eeeeee" stroke="black" points="1438,-527 1438,-565 1867,-565 1867,-527 1438,-527"/>
<text text-anchor="start" x="1446" y="-549.8" font-family="monospace" font-size="14.00">EX_JumpIfNot 221</text>
<text text-anchor="start" x="1446" y="-534.8" font-family="monospace" font-size="14.00">  EX_LocalVariable [CallFunc_IsServer_ReturnValue]</text>
</g>
<!-- ExecuteUbergraph_BP_OxygenRich__101&#45;&gt;ExecuteUbergraph_BP_OxygenRich__122 -->
<g id="edge4" class="edge">
<title>ExecuteUbergraph_BP_OxygenRich__101&#45;&gt;ExecuteUbergraph_BP_OxygenRich__122</title>
<path fill="none" stroke="black" d="M1537.91,-706.84C1564.76,-669.39 1608.28,-608.68 1633.25,-573.85"/>
<polygon fill="black" stroke="black" points="1635.91,-576.15 1638.89,-565.99 1630.22,-572.08 1635.91,-576.15"/>
</g>
<!-- ExecuteUbergraph_BP_OxygenRich__136 -->
<g id="node8" class="node">
<title>ExecuteUbergraph_BP_OxygenRich__136</title>
<polygon fill="#eeeeee" stroke="black" points="1409,-354.5 1409,-407.5 1896,-407.5 1896,-354.5 1409,-354.5"/>
<text text-anchor="start" x="1417" y="-392.3" font-family="monospace" font-size="14.00">EX_BindDelegate PlayerSpawned</text>
<text text-anchor="start" x="1417" y="-377.3" font-family="monospace" font-size="14.00">  EX_LocalVariable [K2Node_CreateDelegate_OutputDelegate]</text>
<text text-anchor="start" x="1417" y="-362.3" font-family="monospace" font-size="14.00">  EX_Self</text>
</g>
<!-- ExecuteUbergraph_BP_OxygenRich__122&#45;&gt;ExecuteUbergraph_BP_OxygenRich__136 -->
<g id="edge6" class="edge">
<title>ExecuteUbergraph_BP_OxygenRich__122&#45;&gt;ExecuteUbergraph_BP_OxygenRich__136</title>
<path fill="none" stroke="black" d="M1652.5,-527.25C1652.5,-501.34 1652.5,-452.58 1652.5,-418.75"/>
<polygon fill="black" stroke="black" points="1656,-418.98 1652.5,-408.98 1649,-418.98 1656,-418.98"/>
<text text-anchor="middle" x="1661" y="-429.8" font-family="monospace" font-size="14.00">IF</text>
</g>
<!-- ExecuteUbergraph_BP_OxygenRich__122&#45;&gt;ExecuteUbergraph_BP_OxygenRich__221 -->
<g id="edge5" class="edge">
<title>ExecuteUbergraph_BP_OxygenRich__122:e&#45;&gt;ExecuteUbergraph_BP_OxygenRich__221</title>
<path fill="none" stroke="red" d="M1868.5,-546C1914.01,-546 1896.03,-496.02 1922.5,-459 1948.21,-423.03 1985.5,-426.22 1985.5,-382 1985.5,-382 1985.5,-382 1985.5,-124.5 1985.5,-99.14 1985.5,-70.31 1985.5,-49.44"/>
<polygon fill="none" stroke="red" points="1989,-49.68 1985.5,-39.68 1982,-49.68 1989,-49.68"/>
<text text-anchor="middle" x="2010.5" y="-242.8" font-family="monospace" font-size="14.00">IF NOT</text>
</g>
<!-- ExecuteUbergraph_BP_OxygenRich__159 -->
<g id="node9" class="node">
<title>ExecuteUbergraph_BP_OxygenRich__159</title>
<polygon fill="#eeeeee" stroke="black" points="1355.5,-212.5 1355.5,-280.5 1949.5,-280.5 1949.5,-212.5 1355.5,-212.5"/>
<text text-anchor="start" x="1363.5" y="-265.3" font-family="monospace" font-size="14.00">EX_LetObj</text>
<text text-anchor="start" x="1363.5" y="-250.3" font-family="monospace" font-size="14.00">  EX_LocalVariable [CallFunc_GetFSDGameState_ReturnValue]</text>
<text text-anchor="start" x="1363.5" y="-235.3" font-family="monospace" font-size="14.00">  EX_CallMath import /Script/FSD&#45;&gt;GameFunctionLibrary&#45;&gt;GetFSDGameState</text>
<text text-anchor="start" x="1363.5" y="-220.3" font-family="monospace" font-size="14.00">    EX_Self</text>
</g>
<!-- ExecuteUbergraph_BP_OxygenRich__136&#45;&gt;ExecuteUbergraph_BP_OxygenRich__159 -->
<g id="edge7" class="edge">
<title>ExecuteUbergraph_BP_OxygenRich__136&#45;&gt;ExecuteUbergraph_BP_OxygenRich__159</title>
<path fill="none" stroke="black" d="M1652.5,-354.77C1652.5,-336.9 1652.5,-312.47 1652.5,-291.44"/>
<polygon fill="black" stroke="black" points="1656,-291.69 1652.5,-281.69 1649,-291.69 1656,-291.69"/>
</g>
<!-- ExecuteUbergraph_BP_OxygenRich__180 -->
<g id="node10" class="node">
<title>ExecuteUbergraph_BP_OxygenRich__180</title>
<polygon fill="#eeeeee" stroke="black" points="1441,-76.5 1441,-174.5 1944,-174.5 1944,-76.5 1441,-76.5"/>
<text text-anchor="start" x="1449" y="-159.3" font-family="monospace" font-size="14.00">EX_AddMulticastDelegate</text>
<text text-anchor="start" x="1449" y="-144.3" font-family="monospace" font-size="14.00">  EX_Context</text>
<text text-anchor="start" x="1449" y="-129.3" font-family="monospace" font-size="14.00">    EX_LocalVariable [CallFunc_GetFSDGameState_ReturnValue]</text>
<text text-anchor="start" x="1449" y="-114.3" font-family="monospace" font-size="14.00">    EX_InstanceVariable [OnPlayerCharacterRegistered]</text>
<text text-anchor="start" x="1449" y="-99.3" font-family="monospace" font-size="14.00">    RValue = [OnPlayerCharacterRegistered]</text>
<text text-anchor="start" x="1449" y="-84.3" font-family="monospace" font-size="14.00">  EX_LocalVariable [K2Node_CreateDelegate_OutputDelegate]</text>
</g>
<!-- ExecuteUbergraph_BP_OxygenRich__159&#45;&gt;ExecuteUbergraph_BP_OxygenRich__180 -->
<g id="edge8" class="edge">
<title>ExecuteUbergraph_BP_OxygenRich__159&#45;&gt;ExecuteUbergraph_BP_OxygenRich__180</title>
<path fill="none" stroke="black" d="M1663.54,-212.67C1666.43,-204.07 1669.63,-194.54 1672.82,-185.04"/>
<polygon fill="black" stroke="black" points="1676.06,-186.4 1675.93,-175.81 1669.42,-184.17 1676.06,-186.4"/>
</g>
<!-- ExecuteUbergraph_BP_OxygenRich__180&#45;&gt;ExecuteUbergraph_BP_OxygenRich__221 -->
<g id="edge9" class="edge">
<title>ExecuteUbergraph_BP_OxygenRich__180&#45;&gt;ExecuteUbergraph_BP_OxygenRich__221</title>
<path fill="none" stroke="black" d="M1827.42,-76.61C1861.38,-64.56 1896.18,-52.2 1924.45,-42.17"/>
<polygon fill="black" stroke="black" points="1925.27,-45.59 1933.52,-38.95 1922.93,-39 1925.27,-45.59"/>
</g>
<!-- ExecuteUbergraph_BP_OxygenRich__223 -->
<g id="node12" class="node">
<title>ExecuteUbergraph_BP_OxygenRich__223</title>
<polygon fill="#eeeeee" stroke="black" points="2150.5,-905.5 2150.5,-941.5 2282.5,-941.5 2282.5,-905.5 2150.5,-905.5"/>
<text text-anchor="start" x="2158.5" y="-919.8" font-family="monospace" font-size="14.00">EX_EndOfScript</text>
</g>
<!-- PlayerSpawned -->
<g id="node13" class="node">
<title>PlayerSpawned</title>
<polygon fill="#ff8888" stroke="black" points="1900.5,-998 1900.5,-1051 2370.5,-1051 2370.5,-998 1900.5,-998"/>
<text text-anchor="start" x="1908.5" y="-1035.8" font-family="monospace" font-size="14.00">Function PlayerSpawned</text>
<text text-anchor="start" x="1908.5" y="-1020.8" font-family="monospace" font-size="14.00">  ObjectProperty PlayerCharacter</text>
<text text-anchor="start" x="1908.5" y="-1005.8" font-family="monospace" font-size="14.00">    CPF_BlueprintVisible|CPF_BlueprintReadOnly|CPF_Parm</text>
</g>
<!-- PlayerSpawned__0 -->
<g id="node14" class="node">
<title>PlayerSpawned__0</title>
<polygon fill="#eeeeee" stroke="black" points="1859,-848.5 1859,-886.5 2412,-886.5 2412,-848.5 1859,-848.5"/>
<text text-anchor="start" x="1867" y="-871.3" font-family="monospace" font-size="14.00">EX_LetValueOnPersistentFrame [K2Node_CustomEvent_PlayerCharacter]</text>
<text text-anchor="start" x="1867" y="-856.3" font-family="monospace" font-size="14.00">  EX_LocalVariable [PlayerCharacter]</text>
</g>
<!-- PlayerSpawned&#45;&gt;PlayerSpawned__0 -->
<g id="edge10" class="edge">
<title>PlayerSpawned&#45;&gt;PlayerSpawned__0</title>
<path fill="none" stroke="black" d="M2135.5,-998.25C2135.5,-970.78 2135.5,-926.91 2135.5,-897.91"/>
<polygon fill="black" stroke="black" points="2139,-897.99 2135.5,-887.99 2132,-897.99 2139,-897.99"/>
</g>
<!-- PlayerSpawned__18 -->
<g id="node15" class="node">
<title>PlayerSpawned__18</title>
<polygon fill="#eeeeee" stroke="black" points="1813.5,-721.5 1813.5,-759.5 2457.5,-759.5 2457.5,-721.5 1813.5,-721.5"/>
<text text-anchor="start" x="1821.5" y="-744.3" font-family="monospace" font-size="14.00">EX_LocalFinalFunction export BP_OxygenRich_C&#45;&gt;ExecuteUbergraph_BP_OxygenRich</text>
<text text-anchor="start" x="1821.5" y="-729.3" font-family="monospace" font-size="14.00">  EX_IntConst 10</text>
</g>
<!-- PlayerSpawned__0&#45;&gt;PlayerSpawned__18 -->
<g id="edge11" class="edge">
<title>PlayerSpawned__0&#45;&gt;PlayerSpawned__18</title>
<path fill="none" stroke="black" d="M2135.5,-848.59C2135.5,-828.26 2135.5,-794.8 2135.5,-770.69"/>
<polygon fill="black" stroke="black" points="2139,-770.89 2135.5,-760.89 2132,-770.89 2139,-770.89"/>
</g>
<!-- PlayerSpawned__18&#45;&gt;ExecuteUbergraph_BP_OxygenRich__10 -->
<g id="edge12" class="edge">
<title>PlayerSpawned__18:e&#45;&gt;ExecuteUbergraph_BP_OxygenRich__10</title>
<path fill="none" stroke="red" d="M2458.5,-740.5C2469.25,-740.5 2469,-692.1 2466.06,-643.72"/>
<polygon fill="none" stroke="red" points="2469.57,-643.7 2465.43,-633.95 2462.58,-644.15 2469.57,-643.7"/>
</g>
<!-- PlayerSpawned__33 -->
<g id="node16" class="node">
<title>PlayerSpawned__33</title>
<polygon fill="#eeeeee" stroke="black" points="1931.5,-527 1931.5,-565 2047.5,-565 2047.5,-527 1931.5,-527"/>
<text text-anchor="start" x="1939.5" y="-549.8" font-family="monospace" font-size="14.00">EX_Return</text>
<text text-anchor="start" x="1939.5" y="-534.8" font-family="monospace" font-size="14.00">  EX_Nothing</text>
</g>
<!-- PlayerSpawned__18&#45;&gt;PlayerSpawned__33 -->
<g id="edge13" class="edge">
<title>PlayerSpawned__18&#45;&gt;PlayerSpawned__33</title>
<path fill="none" stroke="black" d="M2122.03,-721.74C2096.33,-687.86 2040.19,-613.84 2009.88,-573.87"/>
<polygon fill="black" stroke="black" points="2012.69,-571.78 2003.86,-565.93 2007.11,-576.01 2012.69,-571.78"/>
</g>
<!-- PlayerSpawned__35 -->
<g id="node17" class="node">
<title>PlayerSpawned__35</title>
<polygon fill="#eeeeee" stroke="black" points="2150.5,-793.5 2150.5,-829.5 2282.5,-829.5 2282.5,-793.5 2150.5,-793.5"/>
<text text-anchor="start" x="2158.5" y="-807.8" font-family="monospace" font-size="14.00">EX_EndOfScript</text>
</g>
<!-- StartLogic -->
<g id="node18" class="node">
<title>StartLogic</title>
<polygon fill="#ff8888" stroke="black" points="1080,-1006.5 1080,-1042.5 1253,-1042.5 1253,-1006.5 1080,-1006.5"/>
<text text-anchor="start" x="1088" y="-1020.8" font-family="monospace" font-size="14.00">Function StartLogic</text>
</g>
<!-- StartLogic__0 -->
<g id="node19" class="node">
<title>StartLogic__0</title>
<polygon fill="#eeeeee" stroke="black" points="844.5,-848.5 844.5,-886.5 1488.5,-886.5 1488.5,-848.5 844.5,-848.5"/>
<text text-anchor="start" x="852.5" y="-871.3" font-family="monospace" font-size="14.00">EX_LocalFinalFunction export BP_OxygenRich_C&#45;&gt;ExecuteUbergraph_BP_OxygenRich</text>
<text text-anchor="start" x="852.5" y="-856.3" font-family="monospace" font-size="14.00">  EX_IntConst 101</text>
</g>
<!-- StartLogic&#45;&gt;StartLogic__0 -->
<g id="edge14" class="edge">
<title>StartLogic&#45;&gt;StartLogic__0</title>
<path fill="none" stroke="black" d="M1166.5,-1006.62C1166.5,-980.46 1166.5,-929.8 1166.5,-897.64"/>
<polygon fill="black" stroke="black" points="1170,-897.83 1166.5,-887.83 1163,-897.83 1170,-897.83"/>
</g>
<!-- StartLogic__0&#45;&gt;ExecuteUbergraph_BP_OxygenRich__101 -->
<g id="edge15" class="edge">
<title>StartLogic__0:e&#45;&gt;ExecuteUbergraph_BP_OxygenRich__101</title>
<path fill="none" stroke="red" d="M1489.5,-867.5C1523.81,-867.5 1525.91,-821.99 1522.12,-785.68"/>
<polygon fill="none" stroke="red" points="1525.6,-785.28 1520.91,-775.78 1518.65,-786.13 1525.6,-785.28"/>
</g>
<!-- StartLogic__15 -->
<g id="node20" class="node">
<title>StartLogic__15</title>
<polygon fill="#eeeeee" stroke="black" points="1099.5,-721.5 1099.5,-759.5 1215.5,-759.5 1215.5,-721.5 1099.5,-721.5"/>
<text text-anchor="start" x="1107.5" y="-744.3" font-family="monospace" font-size="14.00">EX_Return</text>
<text text-anchor="start" x="1107.5" y="-729.3" font-family="monospace" font-size="14.00">  EX_Nothing</text>
</g>
<!-- StartLogic__0&#45;&gt;StartLogic__15 -->
<g id="edge16" class="edge">
<title>StartLogic__0&#45;&gt;StartLogic__15</title>
<path fill="none" stroke="black" d="M1165.21,-848.59C1163.75,-828.26 1161.34,-794.8 1159.6,-770.69"/>
<polygon fill="black" stroke="black" points="1163.1,-770.61 1158.9,-760.89 1156.12,-771.11 1163.1,-770.61"/>
</g>
<!-- StartLogic__17 -->
<g id="node21" class="node">
<title>StartLogic__17</title>
<polygon fill="#eeeeee" stroke="black" points="2472.5,-651.5 2472.5,-687.5 2604.5,-687.5 2604.5,-651.5 2472.5,-651.5"/>
<text text-anchor="start" x="2480.5" y="-665.8" font-family="monospace" font-size="14.00">EX_EndOfScript</text>
</g>
</g>
</svg>
