<?xml version="1.0" encoding="UTF-8" standalone="no"?>
<!DOCTYPE svg PUBLIC "-//W3C//DTD SVG 1.1//EN"
 "http://www.w3.org/Graphics/SVG/1.1/DTD/svg11.dtd">
<!-- Generated by graphviz version 7.0.1 (0)
 -->
<!-- Pages: 1 -->
<svg width="6295pt" height="688pt"
 viewBox="0.00 0.00 6294.50 688.00" xmlns="http://www.w3.org/2000/svg" xmlns:xlink="http://www.w3.org/1999/xlink">
<g id="graph0" class="graph" transform="scale(1 1) rotate(0) translate(4 684)">
<polygon fill="white" stroke="none" points="-4,4 -4,-684 6290.5,-684 6290.5,4 -4,4"/>
<!-- BP_New_HeavyRain_Crystal_C -->
<g id="node1" class="node">
<title>BP_New_HeavyRain_Crystal_C</title>
<polygon fill="#88ff88" stroke="black" points="0,-476.5 0,-679.5 685,-679.5 685,-476.5 0,-476.5"/>
<text text-anchor="start" x="8" y="-664.3" font-family="monospace" font-size="14.00">ClassExport: BP_New_HeavyRain_Crystal_C</text>
<text text-anchor="start" x="8" y="-649.3" font-family="monospace" font-size="14.00">  SuperStruct: import /Game/Landscape/Biomes/BP_WeatherEffect&#45;&gt;BP_WeatherEffect_C</text>
<text text-anchor="start" x="8" y="-634.3" font-family="monospace" font-size="14.00">  Properties:</text>
<text text-anchor="start" x="8" y="-619.3" font-family="monospace" font-size="14.00">    StructProperty UberGraphFrame</text>
<text text-anchor="start" x="8" y="-604.3" font-family="monospace" font-size="14.00">      CPF_Transient|CPF_DuplicateTransient</text>
<text text-anchor="start" x="8" y="-589.3" font-family="monospace" font-size="14.00">    FloatProperty Fadeout_OneToZero_A3017D9546A53807B6D05BB6AE0CDCAB</text>
<text text-anchor="start" x="8" y="-574.3" font-family="monospace" font-size="14.00">    ByteProperty Fadeout__Direction_A3017D9546A53807B6D05BB6AE0CDCAB</text>
<text text-anchor="start" x="8" y="-559.3" font-family="monospace" font-size="14.00">    ObjectProperty Fadeout</text>
<text text-anchor="start" x="8" y="-544.3" font-family="monospace" font-size="14.00">      CPF_BlueprintVisible|CPF_InstancedReference</text>
<text text-anchor="start" x="8" y="-529.3" font-family="monospace" font-size="14.00">    FloatProperty Fadein_ZeroToOne_292B154C4E05A9ACA12E6F98823124C0</text>
<text text-anchor="start" x="8" y="-514.3" font-family="monospace" font-size="14.00">    ByteProperty Fadein__Direction_292B154C4E05A9ACA12E6F98823124C0</text>
<text text-anchor="start" x="8" y="-499.3" font-family="monospace" font-size="14.00">    ObjectProperty Fadein</text>
<text text-anchor="start" x="8" y="-484.3" font-family="monospace" font-size="14.00">      CPF_BlueprintVisible|CPF_InstancedReference</text>
</g>
<!-- ExecuteUbergraph_BP_New_HeavyRain_Crystal -->
<g id="node2" class="node">
<title>ExecuteUbergraph_BP_New_HeavyRain_Crystal</title>
<polygon fill="#ff8888" stroke="black" points="703.5,-551.5 703.5,-604.5 1173.5,-604.5 1173.5,-551.5 703.5,-551.5"/>
<text text-anchor="start" x="711.5" y="-589.3" font-family="monospace" font-size="14.00">Function ExecuteUbergraph_BP_New_HeavyRain_Crystal</text>
<text text-anchor="start" x="711.5" y="-574.3" font-family="monospace" font-size="14.00">  IntProperty EntryPoint</text>
<text text-anchor="start" x="711.5" y="-559.3" font-family="monospace" font-size="14.00">    CPF_BlueprintVisible|CPF_BlueprintReadOnly|CPF_Parm</text>
</g>
<!-- ExecuteUbergraph_BP_New_HeavyRain_Crystal__0 -->
<g id="node3" class="node">
<title>ExecuteUbergraph_BP_New_HeavyRain_Crystal__0</title>
<polygon fill="#eeeeee" stroke="black" points="802.5,-401.5 802.5,-439.5 1074.5,-439.5 1074.5,-401.5 802.5,-401.5"/>
<text text-anchor="start" x="810.5" y="-424.3" font-family="monospace" font-size="14.00">EX_ComputedJump</text>
<text text-anchor="start" x="810.5" y="-409.3" font-family="monospace" font-size="14.00">  EX_LocalVariable [EntryPoint]</text>
</g>
<!-- ExecuteUbergraph_BP_New_HeavyRain_Crystal&#45;&gt;ExecuteUbergraph_BP_New_HeavyRain_Crystal__0 -->
<g id="edge1" class="edge">
<title>ExecuteUbergraph_BP_New_HeavyRain_Crystal&#45;&gt;ExecuteUbergraph_BP_New_HeavyRain_Crystal__0</title>
<path fill="none" stroke="black" d="M938.5,-551.67C938.5,-523.96 938.5,-479.62 938.5,-450.52"/>
<polygon fill="black" stroke="black" points="942,-450.6 938.5,-440.6 935,-450.6 942,-450.6"/>
</g>
<!-- ExecuteUbergraph_BP_New_HeavyRain_Crystal__10 -->
<g id="node4" class="node">
<title>ExecuteUbergraph_BP_New_HeavyRain_Crystal__10</title>
<polygon fill="#eeeeee" stroke="black" points="5835.5,-253.5 5835.5,-289.5 6173.5,-289.5 6173.5,-253.5 5835.5,-253.5"/>
<text text-anchor="start" x="5843.5" y="-267.8" font-family="monospace" font-size="14.00">EX_LocalVirtualFunction FadeoutComplete</text>
</g>
<!-- ExecuteUbergraph_BP_New_HeavyRain_Crystal__24 -->
<g id="node5" class="node">
<title>ExecuteUbergraph_BP_New_HeavyRain_Crystal__24</title>
<polygon fill="#eeeeee" stroke="black" points="5756,-164.5 5756,-200.5 5863,-200.5 5863,-164.5 5756,-164.5"/>
<text text-anchor="start" x="5764" y="-178.8" font-family="monospace" font-size="14.00">EX_Jump 199</text>
</g>
<!-- ExecuteUbergraph_BP_New_HeavyRain_Crystal__10&#45;&gt;ExecuteUbergraph_BP_New_HeavyRain_Crystal__24 -->
<g id="edge2" class="edge">
<title>ExecuteUbergraph_BP_New_HeavyRain_Crystal__10&#45;&gt;ExecuteUbergraph_BP_New_HeavyRain_Crystal__24</title>
<path fill="none" stroke="black" d="M5959.4,-253.56C5933.66,-243.56 5900.95,-230.29 5872.5,-217 5865.01,-213.5 5857.15,-209.56 5849.62,-205.63"/>
<polygon fill="black" stroke="black" points="5851.43,-202.63 5840.96,-201.04 5848.16,-208.81 5851.43,-202.63"/>
</g>
<!-- ExecuteUbergraph_BP_New_HeavyRain_Crystal__199 -->
<g id="node20" class="node">
<title>ExecuteUbergraph_BP_New_HeavyRain_Crystal__199</title>
<polygon fill="#eeeeee" stroke="black" points="4278.5,-0.5 4278.5,-38.5 4394.5,-38.5 4394.5,-0.5 4278.5,-0.5"/>
<text text-anchor="start" x="4286.5" y="-23.3" font-family="monospace" font-size="14.00">EX_Return</text>
<text text-anchor="start" x="4286.5" y="-8.3" font-family="monospace" font-size="14.00">  EX_Nothing</text>
</g>
<!-- ExecuteUbergraph_BP_New_HeavyRain_Crystal__24&#45;&gt;ExecuteUbergraph_BP_New_HeavyRain_Crystal__199 -->
<g id="edge3" class="edge">
<title>ExecuteUbergraph_BP_New_HeavyRain_Crystal__24&#45;&gt;ExecuteUbergraph_BP_New_HeavyRain_Crystal__199</title>
<path fill="none" stroke="black" d="M5756.25,-174.44C5616.17,-156.04 5225.71,-105.91 4899.5,-75 4683.11,-54.5 4623.28,-75.86 4405.61,-39.16"/>
<polygon fill="black" stroke="black" points="4406.39,-35.74 4395.94,-37.51 4405.2,-42.64 4406.39,-35.74"/>
</g>
<!-- ExecuteUbergraph_BP_New_HeavyRain_Crystal__29 -->
<g id="node6" class="node">
<title>ExecuteUbergraph_BP_New_HeavyRain_Crystal__29</title>
<polygon fill="#eeeeee" stroke="black" points="2571,-164.5 2571,-200.5 2678,-200.5 2678,-164.5 2571,-164.5"/>
<text text-anchor="start" x="2579" y="-178.8" font-family="monospace" font-size="14.00">EX_Jump 199</text>
</g>
<!-- ExecuteUbergraph_BP_New_HeavyRain_Crystal__29&#45;&gt;ExecuteUbergraph_BP_New_HeavyRain_Crystal__199 -->
<g id="edge4" class="edge">
<title>ExecuteUbergraph_BP_New_HeavyRain_Crystal__29&#45;&gt;ExecuteUbergraph_BP_New_HeavyRain_Crystal__199</title>
<path fill="none" stroke="black" d="M2677.85,-174.31C2730.95,-167.25 2814.79,-156.35 2887.5,-148 3204.41,-111.62 3283.75,-103.02 3601.5,-75 3846.17,-53.43 4137.17,-33.56 4267.45,-24.98"/>
<polygon fill="black" stroke="black" points="4267.55,-28.48 4277.29,-24.33 4267.09,-21.49 4267.55,-28.48"/>
</g>
<!-- ExecuteUbergraph_BP_New_HeavyRain_Crystal__34 -->
<g id="node7" class="node">
<title>ExecuteUbergraph_BP_New_HeavyRain_Crystal__34</title>
<polygon fill="#eeeeee" stroke="black" points="2438,-326.5 2438,-364.5 3057,-364.5 3057,-326.5 2438,-326.5"/>
<text text-anchor="start" x="2446" y="-349.3" font-family="monospace" font-size="14.00">EX_LocalVirtualFunction FadeFogAndAudio</text>
<text text-anchor="start" x="2446" y="-334.3" font-family="monospace" font-size="14.00">  EX_InstanceVariable [Fadein_ZeroToOne_292B154C4E05A9ACA12E6F98823124C0]</text>
</g>
<!-- ExecuteUbergraph_BP_New_HeavyRain_Crystal__57 -->
<g id="node8" class="node">
<title>ExecuteUbergraph_BP_New_HeavyRain_Crystal__57</title>
<polygon fill="#eeeeee" stroke="black" points="3611,-75.5 3611,-111.5 3718,-111.5 3718,-75.5 3611,-75.5"/>
<text text-anchor="start" x="3619" y="-89.8" font-family="monospace" font-size="14.00">EX_Jump 199</text>
</g>
<!-- ExecuteUbergraph_BP_New_HeavyRain_Crystal__34&#45;&gt;ExecuteUbergraph_BP_New_HeavyRain_Crystal__57 -->
<g id="edge5" class="edge">
<title>ExecuteUbergraph_BP_New_HeavyRain_Crystal__34&#45;&gt;ExecuteUbergraph_BP_New_HeavyRain_Crystal__57</title>
<path fill="none" stroke="black" d="M2813.45,-326.52C2983.04,-280.28 3432.73,-157.69 3600.34,-111.99"/>
<polygon fill="black" stroke="black" points="3601.01,-115.44 3609.74,-109.43 3599.17,-108.68 3601.01,-115.44"/>
</g>
<!-- ExecuteUbergraph_BP_New_HeavyRain_Crystal__57&#45;&gt;ExecuteUbergraph_BP_New_HeavyRain_Crystal__199 -->
<g id="edge6" class="edge">
<title>ExecuteUbergraph_BP_New_HeavyRain_Crystal__57&#45;&gt;ExecuteUbergraph_BP_New_HeavyRain_Crystal__199</title>
<path fill="none" stroke="black" d="M3717.79,-86.79C3838.6,-73.85 4133.2,-42.28 4267.61,-27.88"/>
<polygon fill="black" stroke="black" points="4267.87,-31.37 4277.44,-26.83 4267.12,-24.41 4267.87,-31.37"/>
</g>
<!-- ExecuteUbergraph_BP_New_HeavyRain_Crystal__62 -->
<g id="node9" class="node">
<title>ExecuteUbergraph_BP_New_HeavyRain_Crystal__62</title>
<polygon fill="#eeeeee" stroke="black" points="6081,-327.5 6081,-363.5 6180,-363.5 6180,-327.5 6081,-327.5"/>
<text text-anchor="start" x="6089" y="-341.8" font-family="monospace" font-size="14.00">EX_Jump 10</text>
</g>
<!-- ExecuteUbergraph_BP_New_HeavyRain_Crystal__62&#45;&gt;ExecuteUbergraph_BP_New_HeavyRain_Crystal__10 -->
<g id="edge7" class="edge">
<title>ExecuteUbergraph_BP_New_HeavyRain_Crystal__62&#45;&gt;ExecuteUbergraph_BP_New_HeavyRain_Crystal__10</title>
<path fill="none" stroke="black" d="M6100.96,-327.62C6083.9,-317.87 6062.22,-305.48 6043.74,-294.93"/>
<polygon fill="black" stroke="black" points="6045.59,-291.95 6035.17,-290.03 6042.12,-298.03 6045.59,-291.95"/>
</g>
<!-- ExecuteUbergraph_BP_New_HeavyRain_Crystal__67 -->
<g id="node10" class="node">
<title>ExecuteUbergraph_BP_New_HeavyRain_Crystal__67</title>
<polygon fill="#eeeeee" stroke="black" points="3664,-148.5 3664,-216.5 4291,-216.5 4291,-148.5 3664,-148.5"/>
<text text-anchor="start" x="3672" y="-201.3" font-family="monospace" font-size="14.00">EX_Context</text>
<text text-anchor="start" x="3672" y="-186.3" font-family="monospace" font-size="14.00">  EX_InstanceVariable [Fadein]</text>
<text text-anchor="start" x="3672" y="-171.3" font-family="monospace" font-size="14.00">  EX_FinalFunction import /Script/Engine&#45;&gt;TimelineComponent&#45;&gt;PlayFromStart</text>
<text text-anchor="start" x="3672" y="-156.3" font-family="monospace" font-size="14.00">  RValue = []</text>
</g>
<!-- ExecuteUbergraph_BP_New_HeavyRain_Crystal__99 -->
<g id="node11" class="node">
<title>ExecuteUbergraph_BP_New_HeavyRain_Crystal__99</title>
<polygon fill="#eeeeee" stroke="black" points="4044,-75.5 4044,-111.5 4151,-111.5 4151,-75.5 4044,-75.5"/>
<text text-anchor="start" x="4052" y="-89.8" font-family="monospace" font-size="14.00">EX_Jump 199</text>
</g>
<!-- ExecuteUbergraph_BP_New_HeavyRain_Crystal__67&#45;&gt;ExecuteUbergraph_BP_New_HeavyRain_Crystal__99 -->
<g id="edge8" class="edge">
<title>ExecuteUbergraph_BP_New_HeavyRain_Crystal__67&#45;&gt;ExecuteUbergraph_BP_New_HeavyRain_Crystal__99</title>
<path fill="none" stroke="black" d="M4022.87,-148.61C4036.97,-138.39 4052.21,-127.33 4065.23,-117.9"/>
<polygon fill="black" stroke="black" points="4067,-120.94 4073.04,-112.23 4062.89,-115.27 4067,-120.94"/>
</g>
<!-- ExecuteUbergraph_BP_New_HeavyRain_Crystal__99&#45;&gt;ExecuteUbergraph_BP_New_HeavyRain_Crystal__199 -->
<g id="edge9" class="edge">
<title>ExecuteUbergraph_BP_New_HeavyRain_Crystal__99&#45;&gt;ExecuteUbergraph_BP_New_HeavyRain_Crystal__199</title>
<path fill="none" stroke="black" d="M4150.84,-76.43C4185.4,-66.02 4230.74,-52.36 4267.96,-41.15"/>
<polygon fill="black" stroke="black" points="4268.71,-44.58 4277.28,-38.34 4266.69,-37.87 4268.71,-44.58"/>
</g>
<!-- ExecuteUbergraph_BP_New_HeavyRain_Crystal__104 -->
<g id="node12" class="node">
<title>ExecuteUbergraph_BP_New_HeavyRain_Crystal__104</title>
<polygon fill="#eeeeee" stroke="black" points="4212,-326.5 4212,-364.5 4839,-364.5 4839,-326.5 4212,-326.5"/>
<text text-anchor="start" x="4220" y="-349.3" font-family="monospace" font-size="14.00">EX_LocalVirtualFunction FadeFogAndAudio</text>
<text text-anchor="start" x="4220" y="-334.3" font-family="monospace" font-size="14.00">  EX_InstanceVariable [Fadeout_OneToZero_A3017D9546A53807B6D05BB6AE0CDCAB]</text>
</g>
<!-- ExecuteUbergraph_BP_New_HeavyRain_Crystal__127 -->
<g id="node13" class="node">
<title>ExecuteUbergraph_BP_New_HeavyRain_Crystal__127</title>
<polygon fill="#eeeeee" stroke="black" points="4437,-253.5 4437,-289.5 4544,-289.5 4544,-253.5 4437,-253.5"/>
<text text-anchor="start" x="4445" y="-267.8" font-family="monospace" font-size="14.00">EX_Jump 199</text>
</g>
<!-- ExecuteUbergraph_BP_New_HeavyRain_Crystal__104&#45;&gt;ExecuteUbergraph_BP_New_HeavyRain_Crystal__127 -->
<g id="edge10" class="edge">
<title>ExecuteUbergraph_BP_New_HeavyRain_Crystal__104&#45;&gt;ExecuteUbergraph_BP_New_HeavyRain_Crystal__127</title>
<path fill="none" stroke="black" d="M4516.85,-326.7C4512.83,-318.44 4507.97,-308.45 4503.53,-299.3"/>
<polygon fill="black" stroke="black" points="4506.75,-297.93 4499.23,-290.47 4500.46,-300.99 4506.75,-297.93"/>
</g>
<!-- ExecuteUbergraph_BP_New_HeavyRain_Crystal__127&#45;&gt;ExecuteUbergraph_BP_New_HeavyRain_Crystal__199 -->
<g id="edge11" class="edge">
<title>ExecuteUbergraph_BP_New_HeavyRain_Crystal__127&#45;&gt;ExecuteUbergraph_BP_New_HeavyRain_Crystal__199</title>
<path fill="none" stroke="black" d="M4480.16,-253.71C4454.05,-211.32 4385.27,-99.68 4353.29,-47.76"/>
<polygon fill="black" stroke="black" points="4356.43,-46.18 4348.21,-39.5 4350.47,-49.85 4356.43,-46.18"/>
</g>
<!-- ExecuteUbergraph_BP_New_HeavyRain_Crystal__132 -->
<g id="node14" class="node">
<title>ExecuteUbergraph_BP_New_HeavyRain_Crystal__132</title>
<polygon fill="#eeeeee" stroke="black" points="4824,-148.5 4824,-216.5 5451,-216.5 5451,-148.5 4824,-148.5"/>
<text text-anchor="start" x="4832" y="-201.3" font-family="monospace" font-size="14.00">EX_Context</text>
<text text-anchor="start" x="4832" y="-186.3" font-family="monospace" font-size="14.00">  EX_InstanceVariable [Fadeout]</text>
<text text-anchor="start" x="4832" y="-171.3" font-family="monospace" font-size="14.00">  EX_FinalFunction import /Script/Engine&#45;&gt;TimelineComponent&#45;&gt;PlayFromStart</text>
<text text-anchor="start" x="4832" y="-156.3" font-family="monospace" font-size="14.00">  RValue = []</text>
</g>
<!-- ExecuteUbergraph_BP_New_HeavyRain_Crystal__164 -->
<g id="node15" class="node">
<title>ExecuteUbergraph_BP_New_HeavyRain_Crystal__164</title>
<polygon fill="#eeeeee" stroke="black" points="4784,-75.5 4784,-111.5 4891,-111.5 4891,-75.5 4784,-75.5"/>
<text text-anchor="start" x="4792" y="-89.8" font-family="monospace" font-size="14.00">EX_Jump 199</text>
</g>
<!-- ExecuteUbergraph_BP_New_HeavyRain_Crystal__132&#45;&gt;ExecuteUbergraph_BP_New_HeavyRain_Crystal__164 -->
<g id="edge12" class="edge">
<title>ExecuteUbergraph_BP_New_HeavyRain_Crystal__132&#45;&gt;ExecuteUbergraph_BP_New_HeavyRain_Crystal__164</title>
<path fill="none" stroke="black" d="M5024.08,-148.61C4982.58,-136.57 4937.1,-123.38 4901.43,-113.04"/>
<polygon fill="black" stroke="black" points="4902.72,-109.77 4892.14,-110.35 4900.77,-116.49 4902.72,-109.77"/>
</g>
<!-- ExecuteUbergraph_BP_New_HeavyRain_Crystal__164&#45;&gt;ExecuteUbergraph_BP_New_HeavyRain_Crystal__199 -->
<g id="edge13" class="edge">
<title>ExecuteUbergraph_BP_New_HeavyRain_Crystal__164&#45;&gt;ExecuteUbergraph_BP_New_HeavyRain_Crystal__199</title>
<path fill="none" stroke="black" d="M4784.32,-88.48C4704.19,-81.86 4547.61,-66.78 4405.55,-39.25"/>
<polygon fill="black" stroke="black" points="4406.45,-35.86 4395.97,-37.36 4405.1,-42.73 4406.45,-35.86"/>
</g>
<!-- ExecuteUbergraph_BP_New_HeavyRain_Crystal__169 -->
<g id="node16" class="node">
<title>ExecuteUbergraph_BP_New_HeavyRain_Crystal__169</title>
<polygon fill="#eeeeee" stroke="black" points="3209.5,-327.5 3209.5,-363.5 4059.5,-363.5 4059.5,-327.5 3209.5,-327.5"/>
<text text-anchor="start" x="3217.5" y="-341.8" font-family="monospace" font-size="14.00">EX_LocalFinalFunction import /Game/Landscape/Biomes/BP_WeatherEffect&#45;&gt;BP_WeatherEffect_C&#45;&gt;StartEffect</text>
</g>
<!-- ExecuteUbergraph_BP_New_HeavyRain_Crystal__179 -->
<g id="node17" class="node">
<title>ExecuteUbergraph_BP_New_HeavyRain_Crystal__179</title>
<polygon fill="#eeeeee" stroke="black" points="3654,-253.5 3654,-289.5 3753,-289.5 3753,-253.5 3654,-253.5"/>
<text text-anchor="start" x="3662" y="-267.8" font-family="monospace" font-size="14.00">EX_Jump 67</text>
</g>
<!-- ExecuteUbergraph_BP_New_HeavyRain_Crystal__169&#45;&gt;ExecuteUbergraph_BP_New_HeavyRain_Crystal__179 -->
<g id="edge14" class="edge">
<title>ExecuteUbergraph_BP_New_HeavyRain_Crystal__169&#45;&gt;ExecuteUbergraph_BP_New_HeavyRain_Crystal__179</title>
<path fill="none" stroke="black" d="M3650.5,-327.8C3659.21,-318.71 3670.15,-307.3 3679.83,-297.2"/>
<polygon fill="black" stroke="black" points="3682.14,-299.84 3686.54,-290.2 3677.09,-295 3682.14,-299.84"/>
</g>
<!-- ExecuteUbergraph_BP_New_HeavyRain_Crystal__179&#45;&gt;ExecuteUbergraph_BP_New_HeavyRain_Crystal__67 -->
<g id="edge15" class="edge">
<title>ExecuteUbergraph_BP_New_HeavyRain_Crystal__179&#45;&gt;ExecuteUbergraph_BP_New_HeavyRain_Crystal__67</title>
<path fill="none" stroke="black" d="M3752.8,-254.85C3783.57,-245.07 3824.53,-232.07 3863.04,-219.84"/>
<polygon fill="black" stroke="black" points="3863.92,-223.24 3872.39,-216.88 3861.8,-216.57 3863.92,-223.24"/>
</g>
<!-- ExecuteUbergraph_BP_New_HeavyRain_Crystal__184 -->
<g id="node18" class="node">
<title>ExecuteUbergraph_BP_New_HeavyRain_Crystal__184</title>
<polygon fill="#eeeeee" stroke="black" points="4992,-327.5 4992,-363.5 5825,-363.5 5825,-327.5 4992,-327.5"/>
<text text-anchor="start" x="5000" y="-341.8" font-family="monospace" font-size="14.00">EX_LocalFinalFunction import /Game/Landscape/Biomes/BP_WeatherEffect&#45;&gt;BP_WeatherEffect_C&#45;&gt;EndEffect</text>
</g>
<!-- ExecuteUbergraph_BP_New_HeavyRain_Crystal__194 -->
<g id="node19" class="node">
<title>ExecuteUbergraph_BP_New_HeavyRain_Crystal__194</title>
<polygon fill="#eeeeee" stroke="black" points="5219,-253.5 5219,-289.5 5326,-289.5 5326,-253.5 5219,-253.5"/>
<text text-anchor="start" x="5227" y="-267.8" font-family="monospace" font-size="14.00">EX_Jump 132</text>
</g>
<!-- ExecuteUbergraph_BP_New_HeavyRain_Crystal__184&#45;&gt;ExecuteUbergraph_BP_New_HeavyRain_Crystal__194 -->
<g id="edge16" class="edge">
<title>ExecuteUbergraph_BP_New_HeavyRain_Crystal__184&#45;&gt;ExecuteUbergraph_BP_New_HeavyRain_Crystal__194</title>
<path fill="none" stroke="black" d="M5376.61,-327.62C5358.03,-317.78 5334.37,-305.26 5314.31,-294.63"/>
<polygon fill="black" stroke="black" points="5316,-291.57 5305.52,-289.98 5312.72,-297.76 5316,-291.57"/>
</g>
<!-- ExecuteUbergraph_BP_New_HeavyRain_Crystal__194&#45;&gt;ExecuteUbergraph_BP_New_HeavyRain_Crystal__132 -->
<g id="edge17" class="edge">
<title>ExecuteUbergraph_BP_New_HeavyRain_Crystal__194&#45;&gt;ExecuteUbergraph_BP_New_HeavyRain_Crystal__132</title>
<path fill="none" stroke="black" d="M5246.15,-253.52C5232.36,-244.63 5214.86,-233.36 5197.96,-222.46"/>
<polygon fill="black" stroke="black" points="5200.24,-219.77 5189.93,-217.29 5196.44,-225.65 5200.24,-219.77"/>
</g>
<!-- ExecuteUbergraph_BP_New_HeavyRain_Crystal__201 -->
<g id="node21" class="node">
<title>ExecuteUbergraph_BP_New_HeavyRain_Crystal__201</title>
<polygon fill="#eeeeee" stroke="black" points="4412.5,-1.5 4412.5,-37.5 4544.5,-37.5 4544.5,-1.5 4412.5,-1.5"/>
<text text-anchor="start" x="4420.5" y="-15.8" font-family="monospace" font-size="14.00">EX_EndOfScript</text>
</g>
<!-- EndEffect -->
<g id="node22" class="node">
<title>EndEffect</title>
<polygon fill="#ff8888" stroke="black" points="4893,-560 4893,-596 5058,-596 5058,-560 4893,-560"/>
<text text-anchor="start" x="4901" y="-574.3" font-family="monospace" font-size="14.00">Function EndEffect</text>
</g>
<!-- EndEffect__0 -->
<g id="node23" class="node">
<title>EndEffect__0</title>
<polygon fill="#eeeeee" stroke="black" points="4563,-401.5 4563,-439.5 5388,-439.5 5388,-401.5 4563,-401.5"/>
<text text-anchor="start" x="4571" y="-424.3" font-family="monospace" font-size="14.00">EX_LocalFinalFunction export BP_New_HeavyRain_Crystal_C&#45;&gt;ExecuteUbergraph_BP_New_HeavyRain_Crystal</text>
<text text-anchor="start" x="4571" y="-409.3" font-family="monospace" font-size="14.00">  EX_IntConst 184</text>
</g>
<!-- EndEffect&#45;&gt;EndEffect__0 -->
<g id="edge18" class="edge">
<title>EndEffect&#45;&gt;EndEffect__0</title>
<path fill="none" stroke="black" d="M4975.5,-560.06C4975.5,-533.82 4975.5,-483 4975.5,-450.74"/>
<polygon fill="black" stroke="black" points="4979,-450.88 4975.5,-440.88 4972,-450.88 4979,-450.88"/>
</g>
<!-- EndEffect__0&#45;&gt;ExecuteUbergraph_BP_New_HeavyRain_Crystal__184 -->
<g id="edge19" class="edge">
<title>EndEffect__0:e&#45;&gt;ExecuteUbergraph_BP_New_HeavyRain_Crystal__184</title>
<path fill="none" stroke="red" d="M5389.5,-420.5C5409.22,-420.5 5412.44,-395.55 5411.68,-374.62"/>
<polygon fill="none" stroke="red" points="5415.18,-374.54 5411,-364.8 5408.2,-375.02 5415.18,-374.54"/>
</g>
<!-- EndEffect__15 -->
<g id="node24" class="node">
<title>EndEffect__15</title>
<polygon fill="#eeeeee" stroke="black" points="4857.5,-326.5 4857.5,-364.5 4973.5,-364.5 4973.5,-326.5 4857.5,-326.5"/>
<text text-anchor="start" x="4865.5" y="-349.3" font-family="monospace" font-size="14.00">EX_Return</text>
<text text-anchor="start" x="4865.5" y="-334.3" font-family="monospace" font-size="14.00">  EX_Nothing</text>
</g>
<!-- EndEffect__0&#45;&gt;EndEffect__15 -->
<g id="edge20" class="edge">
<title>EndEffect__0&#45;&gt;EndEffect__15</title>
<path fill="none" stroke="black" d="M4960.98,-401.83C4953.88,-393.19 4945.19,-382.63 4937.32,-373.05"/>
<polygon fill="black" stroke="black" points="4940.11,-370.93 4931.06,-365.43 4934.71,-375.38 4940.11,-370.93"/>
</g>
<!-- EndEffect__17 -->
<g id="node25" class="node">
<title>EndEffect__17</title>
<polygon fill="#eeeeee" stroke="black" points="5392.5,-75.5 5392.5,-111.5 5524.5,-111.5 5524.5,-75.5 5392.5,-75.5"/>
<text text-anchor="start" x="5400.5" y="-89.8" font-family="monospace" font-size="14.00">EX_EndOfScript</text>
</g>
<!-- StartEffect -->
<g id="node26" class="node">
<title>StartEffect</title>
<polygon fill="#ff8888" stroke="black" points="3115.5,-560 3115.5,-596 3297.5,-596 3297.5,-560 3115.5,-560"/>
<text text-anchor="start" x="3123.5" y="-574.3" font-family="monospace" font-size="14.00">Function StartEffect</text>
</g>
<!-- StartEffect__0 -->
<g id="node27" class="node">
<title>StartEffect__0</title>
<polygon fill="#eeeeee" stroke="black" points="2794,-401.5 2794,-439.5 3619,-439.5 3619,-401.5 2794,-401.5"/>
<text text-anchor="start" x="2802" y="-424.3" font-family="monospace" font-size="14.00">EX_LocalFinalFunction export BP_New_HeavyRain_Crystal_C&#45;&gt;ExecuteUbergraph_BP_New_HeavyRain_Crystal</text>
<text text-anchor="start" x="2802" y="-409.3" font-family="monospace" font-size="14.00">  EX_IntConst 169</text>
</g>
<!-- StartEffect&#45;&gt;StartEffect__0 -->
<g id="edge21" class="edge">
<title>StartEffect&#45;&gt;StartEffect__0</title>
<path fill="none" stroke="black" d="M3206.5,-560.06C3206.5,-533.82 3206.5,-483 3206.5,-450.74"/>
<polygon fill="black" stroke="black" points="3210,-450.88 3206.5,-440.88 3203,-450.88 3210,-450.88"/>
</g>
<!-- StartEffect__0&#45;&gt;ExecuteUbergraph_BP_New_HeavyRain_Crystal__169 -->
<g id="edge22" class="edge">
<title>StartEffect__0:e&#45;&gt;ExecuteUbergraph_BP_New_HeavyRain_Crystal__169</title>
<path fill="none" stroke="red" d="M3620.5,-420.5C3639.94,-420.5 3641.52,-395.55 3639.43,-374.62"/>
<polygon fill="none" stroke="red" points="3642.91,-374.25 3638.13,-364.79 3635.97,-375.16 3642.91,-374.25"/>
</g>
<!-- StartEffect__15 -->
<g id="node28" class="node">
<title>StartEffect__15</title>
<polygon fill="#eeeeee" stroke="black" points="3075.5,-326.5 3075.5,-364.5 3191.5,-364.5 3191.5,-326.5 3075.5,-326.5"/>
<text text-anchor="start" x="3083.5" y="-349.3" font-family="monospace" font-size="14.00">EX_Return</text>
<text text-anchor="start" x="3083.5" y="-334.3" font-family="monospace" font-size="14.00">  EX_Nothing</text>
</g>
<!-- StartEffect__0&#45;&gt;StartEffect__15 -->
<g id="edge23" class="edge">
<title>StartEffect__0&#45;&gt;StartEffect__15</title>
<path fill="none" stroke="black" d="M3188.83,-401.83C3179.93,-392.93 3168.97,-381.97 3159.16,-372.16"/>
<polygon fill="black" stroke="black" points="3161.88,-369.93 3152.33,-365.33 3156.93,-374.88 3161.88,-369.93"/>
</g>
<!-- StartEffect__17 -->
<g id="node29" class="node">
<title>StartEffect__17</title>
<polygon fill="#eeeeee" stroke="black" points="4562.5,-1.5 4562.5,-37.5 4694.5,-37.5 4694.5,-1.5 4562.5,-1.5"/>
<text text-anchor="start" x="4570.5" y="-15.8" font-family="monospace" font-size="14.00">EX_EndOfScript</text>
</g>
<!-- Fadeout__UpdateFunc -->
<g id="node30" class="node">
<title>Fadeout__UpdateFunc</title>
<polygon fill="#ff8888" stroke="black" points="4000.5,-560 4000.5,-596 4248.5,-596 4248.5,-560 4000.5,-560"/>
<text text-anchor="start" x="4008.5" y="-574.3" font-family="monospace" font-size="14.00">Function Fadeout__UpdateFunc</text>
</g>
<!-- Fadeout__UpdateFunc__0 -->
<g id="node31" class="node">
<title>Fadeout__UpdateFunc__0</title>
<polygon fill="#eeeeee" stroke="black" points="3712,-401.5 3712,-439.5 4537,-439.5 4537,-401.5 3712,-401.5"/>
<text text-anchor="start" x="3720" y="-424.3" font-family="monospace" font-size="14.00">EX_LocalFinalFunction export BP_New_HeavyRain_Crystal_C&#45;&gt;ExecuteUbergraph_BP_New_HeavyRain_Crystal</text>
<text text-anchor="start" x="3720" y="-409.3" font-family="monospace" font-size="14.00">  EX_IntConst 104</text>
</g>
<!-- Fadeout__UpdateFunc&#45;&gt;Fadeout__UpdateFunc__0 -->
<g id="edge24" class="edge">
<title>Fadeout__UpdateFunc&#45;&gt;Fadeout__UpdateFunc__0</title>
<path fill="none" stroke="black" d="M4124.5,-560.06C4124.5,-533.82 4124.5,-483 4124.5,-450.74"/>
<polygon fill="black" stroke="black" points="4128,-450.88 4124.5,-440.88 4121,-450.88 4128,-450.88"/>
</g>
<!-- Fadeout__UpdateFunc__0&#45;&gt;ExecuteUbergraph_BP_New_HeavyRain_Crystal__104 -->
<g id="edge25" class="edge">
<title>Fadeout__UpdateFunc__0:e&#45;&gt;ExecuteUbergraph_BP_New_HeavyRain_Crystal__104</title>
<path fill="none" stroke="red" d="M4538.5,-420.5C4557.92,-420.5 4550.36,-395.48 4540.63,-374.54"/>
<polygon fill="none" stroke="red" points="4543.87,-373.19 4536.3,-365.77 4537.59,-376.29 4543.87,-373.19"/>
</g>
<!-- Fadeout__UpdateFunc__15 -->
<g id="node32" class="node">
<title>Fadeout__UpdateFunc__15</title>
<polygon fill="#eeeeee" stroke="black" points="4077.5,-326.5 4077.5,-364.5 4193.5,-364.5 4193.5,-326.5 4077.5,-326.5"/>
<text text-anchor="start" x="4085.5" y="-349.3" font-family="monospace" font-size="14.00">EX_Return</text>
<text text-anchor="start" x="4085.5" y="-334.3" font-family="monospace" font-size="14.00">  EX_Nothing</text>
</g>
<!-- Fadeout__UpdateFunc__0&#45;&gt;Fadeout__UpdateFunc__15 -->
<g id="edge26" class="edge">
<title>Fadeout__UpdateFunc__0&#45;&gt;Fadeout__UpdateFunc__15</title>
<path fill="none" stroke="black" d="M4127.16,-401.83C4128.36,-393.91 4129.8,-384.36 4131.14,-375.44"/>
<polygon fill="black" stroke="black" points="4134.57,-376.17 4132.6,-365.76 4127.65,-375.13 4134.57,-376.17"/>
</g>
<!-- Fadeout__UpdateFunc__17 -->
<g id="node33" class="node">
<title>Fadeout__UpdateFunc__17</title>
<polygon fill="#eeeeee" stroke="black" points="5881.5,-164.5 5881.5,-200.5 6013.5,-200.5 6013.5,-164.5 5881.5,-164.5"/>
<text text-anchor="start" x="5889.5" y="-178.8" font-family="monospace" font-size="14.00">EX_EndOfScript</text>
</g>
<!-- Fadeout__FinishedFunc -->
<g id="node34" class="node">
<title>Fadeout__FinishedFunc</title>
<polygon fill="#ff8888" stroke="black" points="5722.5,-560 5722.5,-596 5986.5,-596 5986.5,-560 5722.5,-560"/>
<text text-anchor="start" x="5730.5" y="-574.3" font-family="monospace" font-size="14.00">Function Fadeout__FinishedFunc</text>
</g>
<!-- Fadeout__FinishedFunc__0 -->
<g id="node35" class="node">
<title>Fadeout__FinishedFunc__0</title>
<polygon fill="#eeeeee" stroke="black" points="5442,-401.5 5442,-439.5 6267,-439.5 6267,-401.5 5442,-401.5"/>
<text text-anchor="start" x="5450" y="-424.3" font-family="monospace" font-size="14.00">EX_LocalFinalFunction export BP_New_HeavyRain_Crystal_C&#45;&gt;ExecuteUbergraph_BP_New_HeavyRain_Crystal</text>
<text text-anchor="start" x="5450" y="-409.3" font-family="monospace" font-size="14.00">  EX_IntConst 62</text>
</g>
<!-- Fadeout__FinishedFunc&#45;&gt;Fadeout__FinishedFunc__0 -->
<g id="edge27" class="edge">
<title>Fadeout__FinishedFunc&#45;&gt;Fadeout__FinishedFunc__0</title>
<path fill="none" stroke="black" d="M5854.5,-560.06C5854.5,-533.82 5854.5,-483 5854.5,-450.74"/>
<polygon fill="black" stroke="black" points="5858,-450.88 5854.5,-440.88 5851,-450.88 5858,-450.88"/>
</g>
<!-- Fadeout__FinishedFunc__0&#45;&gt;ExecuteUbergraph_BP_New_HeavyRain_Crystal__62 -->
<g id="edge28" class="edge">
<title>Fadeout__FinishedFunc__0:e&#45;&gt;ExecuteUbergraph_BP_New_HeavyRain_Crystal__62</title>
<path fill="none" stroke="red" d="M6268.5,-420.5C6277.18,-420.5 6272.55,-408.05 6267.5,-401 6249.73,-376.2 6218.82,-362.68 6190.84,-355.31"/>
<polygon fill="none" stroke="red" points="6191.91,-351.97 6181.37,-353.04 6190.28,-358.78 6191.91,-351.97"/>
</g>
<!-- Fadeout__FinishedFunc__15 -->
<g id="node36" class="node">
<title>Fadeout__FinishedFunc__15</title>
<polygon fill="#eeeeee" stroke="black" points="5843.5,-326.5 5843.5,-364.5 5959.5,-364.5 5959.5,-326.5 5843.5,-326.5"/>
<text text-anchor="start" x="5851.5" y="-349.3" font-family="monospace" font-size="14.00">EX_Return</text>
<text text-anchor="start" x="5851.5" y="-334.3" font-family="monospace" font-size="14.00">  EX_Nothing</text>
</g>
<!-- Fadeout__FinishedFunc__0&#45;&gt;Fadeout__FinishedFunc__15 -->
<g id="edge29" class="edge">
<title>Fadeout__FinishedFunc__0&#45;&gt;Fadeout__FinishedFunc__15</title>
<path fill="none" stroke="black" d="M5865.88,-401.83C5871.26,-393.46 5877.82,-383.28 5883.83,-373.94"/>
<polygon fill="black" stroke="black" points="5886.77,-375.84 5889.25,-365.53 5880.89,-372.05 5886.77,-375.84"/>
</g>
<!-- Fadeout__FinishedFunc__17 -->
<g id="node37" class="node">
<title>Fadeout__FinishedFunc__17</title>
<polygon fill="#eeeeee" stroke="black" points="5542.5,-75.5 5542.5,-111.5 5674.5,-111.5 5674.5,-75.5 5542.5,-75.5"/>
<text text-anchor="start" x="5550.5" y="-89.8" font-family="monospace" font-size="14.00">EX_EndOfScript</text>
</g>
<!-- Fadein__UpdateFunc -->
<g id="node38" class="node">
<title>Fadein__UpdateFunc</title>
<polygon fill="#ff8888" stroke="black" points="2229,-560 2229,-596 2468,-596 2468,-560 2229,-560"/>
<text text-anchor="start" x="2237" y="-574.3" font-family="monospace" font-size="14.00">Function Fadein__UpdateFunc</text>
</g>
<!-- Fadein__UpdateFunc__0 -->
<g id="node39" class="node">
<title>Fadein__UpdateFunc__0</title>
<polygon fill="#eeeeee" stroke="black" points="1936,-401.5 1936,-439.5 2761,-439.5 2761,-401.5 1936,-401.5"/>
<text text-anchor="start" x="1944" y="-424.3" font-family="monospace" font-size="14.00">EX_LocalFinalFunction export BP_New_HeavyRain_Crystal_C&#45;&gt;ExecuteUbergraph_BP_New_HeavyRain_Crystal</text>
<text text-anchor="start" x="1944" y="-409.3" font-family="monospace" font-size="14.00">  EX_IntConst 34</text>
</g>
<!-- Fadein__UpdateFunc&#45;&gt;Fadein__UpdateFunc__0 -->
<g id="edge30" class="edge">
<title>Fadein__UpdateFunc&#45;&gt;Fadein__UpdateFunc__0</title>
<path fill="none" stroke="black" d="M2348.5,-560.06C2348.5,-533.82 2348.5,-483 2348.5,-450.74"/>
<polygon fill="black" stroke="black" points="2352,-450.88 2348.5,-440.88 2345,-450.88 2352,-450.88"/>
</g>
<!-- Fadein__UpdateFunc__0&#45;&gt;ExecuteUbergraph_BP_New_HeavyRain_Crystal__34 -->
<g id="edge31" class="edge">
<title>Fadein__UpdateFunc__0:e&#45;&gt;ExecuteUbergraph_BP_New_HeavyRain_Crystal__34</title>
<path fill="none" stroke="red" d="M2762.5,-420.5C2782.01,-420.5 2773.76,-395.48 2763.44,-374.54"/>
<polygon fill="none" stroke="red" points="2766.58,-373 2758.85,-365.76 2760.38,-376.24 2766.58,-373"/>
</g>
<!-- Fadein__UpdateFunc__15 -->
<g id="node40" class="node">
<title>Fadein__UpdateFunc__15</title>
<polygon fill="#eeeeee" stroke="black" points="2290.5,-326.5 2290.5,-364.5 2406.5,-364.5 2406.5,-326.5 2290.5,-326.5"/>
<text text-anchor="start" x="2298.5" y="-349.3" font-family="monospace" font-size="14.00">EX_Return</text>
<text text-anchor="start" x="2298.5" y="-334.3" font-family="monospace" font-size="14.00">  EX_Nothing</text>
</g>
<!-- Fadein__UpdateFunc__0&#45;&gt;Fadein__UpdateFunc__15 -->
<g id="edge32" class="edge">
<title>Fadein__UpdateFunc__0&#45;&gt;Fadein__UpdateFunc__15</title>
<path fill="none" stroke="black" d="M2348.5,-401.83C2348.5,-394 2348.5,-384.57 2348.5,-375.74"/>
<polygon fill="black" stroke="black" points="2352,-375.78 2348.5,-365.78 2345,-375.78 2352,-375.78"/>
</g>
<!-- Fadein__UpdateFunc__17 -->
<g id="node41" class="node">
<title>Fadein__UpdateFunc__17</title>
<polygon fill="#eeeeee" stroke="black" points="6004.5,-560 6004.5,-596 6136.5,-596 6136.5,-560 6004.5,-560"/>
<text text-anchor="start" x="6012.5" y="-574.3" font-family="monospace" font-size="14.00">EX_EndOfScript</text>
</g>
<!-- Fadein__FinishedFunc -->
<g id="node42" class="node">
<title>Fadein__FinishedFunc</title>
<polygon fill="#ff8888" stroke="black" points="1377.5,-560 1377.5,-596 1633.5,-596 1633.5,-560 1377.5,-560"/>
<text text-anchor="start" x="1385.5" y="-574.3" font-family="monospace" font-size="14.00">Function Fadein__FinishedFunc</text>
</g>
<!-- Fadein__FinishedFunc__0 -->
<g id="node43" class="node">
<title>Fadein__FinishedFunc__0</title>
<polygon fill="#eeeeee" stroke="black" points="1093,-401.5 1093,-439.5 1918,-439.5 1918,-401.5 1093,-401.5"/>
<text text-anchor="start" x="1101" y="-424.3" font-family="monospace" font-size="14.00">EX_LocalFinalFunction export BP_New_HeavyRain_Crystal_C&#45;&gt;ExecuteUbergraph_BP_New_HeavyRain_Crystal</text>
<text text-anchor="start" x="1101" y="-409.3" font-family="monospace" font-size="14.00">  EX_IntConst 29</text>
</g>
<!-- Fadein__FinishedFunc&#45;&gt;Fadein__FinishedFunc__0 -->
<g id="edge33" class="edge">
<title>Fadein__FinishedFunc&#45;&gt;Fadein__FinishedFunc__0</title>
<path fill="none" stroke="black" d="M1505.5,-560.06C1505.5,-533.82 1505.5,-483 1505.5,-450.74"/>
<polygon fill="black" stroke="black" points="1509,-450.88 1505.5,-440.88 1502,-450.88 1509,-450.88"/>
</g>
<!-- Fadein__FinishedFunc__0&#45;&gt;ExecuteUbergraph_BP_New_HeavyRain_Crystal__29 -->
<g id="edge34" class="edge">
<title>Fadein__FinishedFunc__0:e&#45;&gt;ExecuteUbergraph_BP_New_HeavyRain_Crystal__29</title>
<path fill="none" stroke="red" d="M1919.5,-420.5C1928.71,-420.5 1919.85,-407.37 1926.5,-401 2107.26,-227.77 2423.86,-192.37 2559.65,-185.24"/>
<polygon fill="none" stroke="red" points="2559.73,-188.74 2569.54,-184.76 2559.39,-181.75 2559.73,-188.74"/>
</g>
<!-- Fadein__FinishedFunc__15 -->
<g id="node44" class="node">
<title>Fadein__FinishedFunc__15</title>
<polygon fill="#eeeeee" stroke="black" points="1447.5,-326.5 1447.5,-364.5 1563.5,-364.5 1563.5,-326.5 1447.5,-326.5"/>
<text text-anchor="start" x="1455.5" y="-349.3" font-family="monospace" font-size="14.00">EX_Return</text>
<text text-anchor="start" x="1455.5" y="-334.3" font-family="monospace" font-size="14.00">  EX_Nothing</text>
</g>
<!-- Fadein__FinishedFunc__0&#45;&gt;Fadein__FinishedFunc__15 -->
<g id="edge35" class="edge">
<title>Fadein__FinishedFunc__0&#45;&gt;Fadein__FinishedFunc__15</title>
<path fill="none" stroke="black" d="M1505.5,-401.83C1505.5,-394 1505.5,-384.57 1505.5,-375.74"/>
<polygon fill="black" stroke="black" points="1509,-375.78 1505.5,-365.78 1502,-375.78 1509,-375.78"/>
</g>
<!-- Fadein__FinishedFunc__17 -->
<g id="node45" class="node">
<title>Fadein__FinishedFunc__17</title>
<polygon fill="#eeeeee" stroke="black" points="6154.5,-560 6154.5,-596 6286.5,-596 6286.5,-560 6154.5,-560"/>
<text text-anchor="start" x="6162.5" y="-574.3" font-family="monospace" font-size="14.00">EX_EndOfScript</text>
</g>
</g>
</svg>
