<?xml version="1.0" encoding="UTF-8" standalone="no"?>
<!DOCTYPE svg PUBLIC "-//W3C//DTD SVG 1.1//EN"
 "http://www.w3.org/Graphics/SVG/1.1/DTD/svg11.dtd">
<!-- Generated by graphviz version 7.0.1 (0)
 -->
<!-- Pages: 1 -->
<svg width="2869pt" height="797pt"
 viewBox="0.00 0.00 2869.00 797.00" xmlns="http://www.w3.org/2000/svg" xmlns:xlink="http://www.w3.org/1999/xlink">
<g id="graph0" class="graph" transform="scale(1 1) rotate(0) translate(4 793)">
<polygon fill="white" stroke="none" points="-4,4 -4,-793 2865,-793 2865,4 -4,4"/>
<!-- LoreScreen_Upgrades_C -->
<g id="node1" class="node">
<title>LoreScreen_Upgrades_C</title>
<polygon fill="#88ff88" stroke="black" points="0,-555.5 0,-788.5 850,-788.5 850,-555.5 0,-555.5"/>
<text text-anchor="start" x="8" y="-773.3" font-family="monospace" font-size="14.00">ClassExport: LoreScreen_Upgrades_C</text>
<text text-anchor="start" x="8" y="-758.3" font-family="monospace" font-size="14.00">  SuperStruct: import /Game/UI/Menu_MinersManual/InfoScreens/LoreScreen_Master&#45;&gt;LoreScreen_Master_C</text>
<text text-anchor="start" x="8" y="-743.3" font-family="monospace" font-size="14.00">  Properties:</text>
<text text-anchor="start" x="8" y="-728.3" font-family="monospace" font-size="14.00">    StructProperty UberGraphFrame</text>
<text text-anchor="start" x="8" y="-713.3" font-family="monospace" font-size="14.00">      CPF_Transient|CPF_DuplicateTransient</text>
<text text-anchor="start" x="8" y="-698.3" font-family="monospace" font-size="14.00">    ObjectProperty Lore_Content1</text>
<text text-anchor="start" x="8" y="-683.3" font-family="monospace" font-size="14.00">      CPF_BlueprintVisible|CPF_ExportObject|CPF_InstancedReference|CPF_RepSkip|CPF_PersistentInstance</text>
<text text-anchor="start" x="8" y="-668.3" font-family="monospace" font-size="14.00">    ObjectProperty Lore_Content2</text>
<text text-anchor="start" x="8" y="-653.3" font-family="monospace" font-size="14.00">      CPF_BlueprintVisible|CPF_ExportObject|CPF_InstancedReference|CPF_RepSkip|CPF_PersistentInstance</text>
<text text-anchor="start" x="8" y="-638.3" font-family="monospace" font-size="14.00">    ObjectProperty Lore_Content3</text>
<text text-anchor="start" x="8" y="-623.3" font-family="monospace" font-size="14.00">      CPF_BlueprintVisible|CPF_ExportObject|CPF_InstancedReference|CPF_RepSkip|CPF_PersistentInstance</text>
<text text-anchor="start" x="8" y="-608.3" font-family="monospace" font-size="14.00">    ObjectProperty LoreScreen_Template</text>
<text text-anchor="start" x="8" y="-593.3" font-family="monospace" font-size="14.00">      CPF_BlueprintVisible|CPF_ExportObject|CPF_InstancedReference|CPF_RepSkip|CPF_PersistentInstance</text>
<text text-anchor="start" x="8" y="-578.3" font-family="monospace" font-size="14.00">    ObjectProperty HoverSound</text>
<text text-anchor="start" x="8" y="-563.3" font-family="monospace" font-size="14.00">      CPF_Edit|CPF_BlueprintVisible|CPF_DisableEditOnInstance|CPF_InstancedReference</text>
</g>
<!-- ExecuteUbergraph_LoreScreen_Upgrades -->
<g id="node2" class="node">
<title>ExecuteUbergraph_LoreScreen_Upgrades</title>
<polygon fill="#ff8888" stroke="black" points="868,-645.5 868,-698.5 1338,-698.5 1338,-645.5 868,-645.5"/>
<text text-anchor="start" x="876" y="-683.3" font-family="monospace" font-size="14.00">Function ExecuteUbergraph_LoreScreen_Upgrades</text>
<text text-anchor="start" x="876" y="-668.3" font-family="monospace" font-size="14.00">  IntProperty EntryPoint</text>
<text text-anchor="start" x="876" y="-653.3" font-family="monospace" font-size="14.00">    CPF_BlueprintVisible|CPF_BlueprintReadOnly|CPF_Parm</text>
</g>
<!-- ExecuteUbergraph_LoreScreen_Upgrades__0 -->
<g id="node3" class="node">
<title>ExecuteUbergraph_LoreScreen_Upgrades__0</title>
<polygon fill="#eeeeee" stroke="black" points="967,-480.5 967,-518.5 1239,-518.5 1239,-480.5 967,-480.5"/>
<text text-anchor="start" x="975" y="-503.3" font-family="monospace" font-size="14.00">EX_ComputedJump</text>
<text text-anchor="start" x="975" y="-488.3" font-family="monospace" font-size="14.00">  EX_LocalVariable [EntryPoint]</text>
</g>
<!-- ExecuteUbergraph_LoreScreen_Upgrades&#45;&gt;ExecuteUbergraph_LoreScreen_Upgrades__0 -->
<g id="edge1" class="edge">
<title>ExecuteUbergraph_LoreScreen_Upgrades&#45;&gt;ExecuteUbergraph_LoreScreen_Upgrades__0</title>
<path fill="none" stroke="black" d="M1103,-645.84C1103,-614.96 1103,-562.67 1103,-529.94"/>
<polygon fill="black" stroke="black" points="1106.5,-529.96 1103,-519.96 1099.5,-529.96 1106.5,-529.96"/>
</g>
<!-- ExecuteUbergraph_LoreScreen_Upgrades__10 -->
<g id="node4" class="node">
<title>ExecuteUbergraph_LoreScreen_Upgrades__10</title>
<polygon fill="#eeeeee" stroke="black" points="2531,-361.5 2531,-397.5 2861,-397.5 2861,-361.5 2531,-361.5"/>
<text text-anchor="start" x="2539" y="-375.8" font-family="monospace" font-size="14.00">EX_LocalVirtualFunction RefreshContent</text>
</g>
<!-- ExecuteUbergraph_LoreScreen_Upgrades__24 -->
<g id="node5" class="node">
<title>ExecuteUbergraph_LoreScreen_Upgrades__24</title>
<polygon fill="#eeeeee" stroke="black" points="2566.5,-159 2566.5,-195 2673.5,-195 2673.5,-159 2566.5,-159"/>
<text text-anchor="start" x="2574.5" y="-173.3" font-family="monospace" font-size="14.00">EX_Jump 168</text>
</g>
<!-- ExecuteUbergraph_LoreScreen_Upgrades__10&#45;&gt;ExecuteUbergraph_LoreScreen_Upgrades__24 -->
<g id="edge2" class="edge">
<title>ExecuteUbergraph_LoreScreen_Upgrades__10&#45;&gt;ExecuteUbergraph_LoreScreen_Upgrades__24</title>
<path fill="none" stroke="black" d="M2689.65,-361.75C2676.55,-327.18 2646.4,-247.64 2630.4,-205.44"/>
<polygon fill="black" stroke="black" points="2633.74,-204.37 2626.92,-196.26 2627.19,-206.85 2633.74,-204.37"/>
</g>
<!-- ExecuteUbergraph_LoreScreen_Upgrades__168 -->
<g id="node8" class="node">
<title>ExecuteUbergraph_LoreScreen_Upgrades__168</title>
<polygon fill="#eeeeee" stroke="black" points="2322,-0.5 2322,-38.5 2438,-38.5 2438,-0.5 2322,-0.5"/>
<text text-anchor="start" x="2330" y="-23.3" font-family="monospace" font-size="14.00">EX_Return</text>
<text text-anchor="start" x="2330" y="-8.3" font-family="monospace" font-size="14.00">  EX_Nothing</text>
</g>
<!-- ExecuteUbergraph_LoreScreen_Upgrades__24&#45;&gt;ExecuteUbergraph_LoreScreen_Upgrades__168 -->
<g id="edge3" class="edge">
<title>ExecuteUbergraph_LoreScreen_Upgrades__24&#45;&gt;ExecuteUbergraph_LoreScreen_Upgrades__168</title>
<path fill="none" stroke="black" d="M2598.95,-159.34C2572.25,-138.52 2524.43,-102.32 2481,-75 2463.38,-63.91 2443.31,-52.8 2425.74,-43.52"/>
<polygon fill="black" stroke="black" points="2427.54,-40.51 2417.06,-38.99 2424.3,-46.72 2427.54,-40.51"/>
</g>
<!-- ExecuteUbergraph_LoreScreen_Upgrades__29 -->
<g id="node6" class="node">
<title>ExecuteUbergraph_LoreScreen_Upgrades__29</title>
<polygon fill="#eeeeee" stroke="black" points="1879.5,-315.5 1879.5,-443.5 2250.5,-443.5 2250.5,-315.5 1879.5,-315.5"/>
<text text-anchor="start" x="1887.5" y="-428.3" font-family="monospace" font-size="14.00">EX_Context</text>
<text text-anchor="start" x="1887.5" y="-413.3" font-family="monospace" font-size="14.00">  EX_InstanceVariable [LoreScreen_Template]</text>
<text text-anchor="start" x="1887.5" y="-398.3" font-family="monospace" font-size="14.00">  EX_LocalVirtualFunction SetHeaderImage</text>
<text text-anchor="start" x="1887.5" y="-383.3" font-family="monospace" font-size="14.00">    EX_NoObject</text>
<text text-anchor="start" x="1887.5" y="-368.3" font-family="monospace" font-size="14.00">    EX_False</text>
<text text-anchor="start" x="1887.5" y="-353.3" font-family="monospace" font-size="14.00">    EX_FloatConst 0.7</text>
<text text-anchor="start" x="1887.5" y="-338.3" font-family="monospace" font-size="14.00">    EX_True</text>
<text text-anchor="start" x="1887.5" y="-323.3" font-family="monospace" font-size="14.00">  RValue = []</text>
</g>
<!-- ExecuteUbergraph_LoreScreen_Upgrades__73 -->
<g id="node7" class="node">
<title>ExecuteUbergraph_LoreScreen_Upgrades__73</title>
<polygon fill="#eeeeee" stroke="black" points="1960,-75.5 1960,-278.5 2472,-278.5 2472,-75.5 1960,-75.5"/>
<text text-anchor="start" x="1968" y="-263.3" font-family="monospace" font-size="14.00">EX_Context</text>
<text text-anchor="start" x="1968" y="-248.3" font-family="monospace" font-size="14.00">  EX_InstanceVariable [LoreScreen_Template]</text>
<text text-anchor="start" x="1968" y="-233.3" font-family="monospace" font-size="14.00">  EX_LocalVirtualFunction SetHeadline</text>
<text text-anchor="start" x="1968" y="-218.3" font-family="monospace" font-size="14.00">    EX_InstanceVariable [PageName]</text>
<text text-anchor="start" x="1968" y="-203.3" font-family="monospace" font-size="14.00">    EX_NoObject</text>
<text text-anchor="start" x="1968" y="-188.3" font-family="monospace" font-size="14.00">    EX_StructConst import /Script/FSD&#45;&gt;ObjectiveMissionIcon</text>
<text text-anchor="start" x="1968" y="-173.3" font-family="monospace" font-size="14.00">      EX_NoObject</text>
<text text-anchor="start" x="1968" y="-158.3" font-family="monospace" font-size="14.00">      EX_StructConst import /Script/CoreUObject&#45;&gt;LinearColor</text>
<text text-anchor="start" x="1968" y="-143.3" font-family="monospace" font-size="14.00">        EX_FloatConst 1</text>
<text text-anchor="start" x="1968" y="-128.3" font-family="monospace" font-size="14.00">        EX_FloatConst 1</text>
<text text-anchor="start" x="1968" y="-113.3" font-family="monospace" font-size="14.00">        EX_FloatConst 1</text>
<text text-anchor="start" x="1968" y="-98.3" font-family="monospace" font-size="14.00">        EX_FloatConst 1</text>
<text text-anchor="start" x="1968" y="-83.3" font-family="monospace" font-size="14.00">  RValue = []</text>
</g>
<!-- ExecuteUbergraph_LoreScreen_Upgrades__29&#45;&gt;ExecuteUbergraph_LoreScreen_Upgrades__73 -->
<g id="edge4" class="edge">
<title>ExecuteUbergraph_LoreScreen_Upgrades__29&#45;&gt;ExecuteUbergraph_LoreScreen_Upgrades__73</title>
<path fill="none" stroke="black" d="M2112.36,-315.61C2119.11,-306.65 2126.22,-297.22 2133.4,-287.67"/>
<polygon fill="black" stroke="black" points="2136.18,-289.8 2139.4,-279.71 2130.59,-285.59 2136.18,-289.8"/>
</g>
<!-- ExecuteUbergraph_LoreScreen_Upgrades__73&#45;&gt;ExecuteUbergraph_LoreScreen_Upgrades__168 -->
<g id="edge5" class="edge">
<title>ExecuteUbergraph_LoreScreen_Upgrades__73&#45;&gt;ExecuteUbergraph_LoreScreen_Upgrades__168</title>
<path fill="none" stroke="black" d="M2321.72,-75.76C2333.18,-64.89 2343.96,-54.67 2353.06,-46.04"/>
<polygon fill="black" stroke="black" points="2355.3,-48.75 2360.14,-39.33 2350.48,-43.67 2355.3,-48.75"/>
</g>
<!-- ExecuteUbergraph_LoreScreen_Upgrades__170 -->
<g id="node9" class="node">
<title>ExecuteUbergraph_LoreScreen_Upgrades__170</title>
<polygon fill="#eeeeee" stroke="black" points="2456,-1.5 2456,-37.5 2588,-37.5 2588,-1.5 2456,-1.5"/>
<text text-anchor="start" x="2464" y="-15.8" font-family="monospace" font-size="14.00">EX_EndOfScript</text>
</g>
<!-- RefreshContent -->
<g id="node10" class="node">
<title>RefreshContent</title>
<polygon fill="#ff8888" stroke="black" points="1526,-654 1526,-690 1732,-690 1732,-654 1526,-654"/>
<text text-anchor="start" x="1534" y="-668.3" font-family="monospace" font-size="14.00">Function RefreshContent</text>
</g>
<!-- RefreshContent__0 -->
<g id="node11" class="node">
<title>RefreshContent__0</title>
<polygon fill="#eeeeee" stroke="black" points="1257.5,-480.5 1257.5,-518.5 2000.5,-518.5 2000.5,-480.5 1257.5,-480.5"/>
<text text-anchor="start" x="1265.5" y="-503.3" font-family="monospace" font-size="14.00">EX_LocalFinalFunction export LoreScreen_Upgrades_C&#45;&gt;ExecuteUbergraph_LoreScreen_Upgrades</text>
<text text-anchor="start" x="1265.5" y="-488.3" font-family="monospace" font-size="14.00">  EX_IntConst 29</text>
</g>
<!-- RefreshContent&#45;&gt;RefreshContent__0 -->
<g id="edge6" class="edge">
<title>RefreshContent&#45;&gt;RefreshContent__0</title>
<path fill="none" stroke="black" d="M1629,-654.03C1629,-624.97 1629,-565.36 1629,-529.57"/>
<polygon fill="black" stroke="black" points="1632.5,-529.94 1629,-519.94 1625.5,-529.94 1632.5,-529.94"/>
</g>
<!-- RefreshContent__0&#45;&gt;ExecuteUbergraph_LoreScreen_Upgrades__29 -->
<g id="edge7" class="edge">
<title>RefreshContent__0:e&#45;&gt;ExecuteUbergraph_LoreScreen_Upgrades__29</title>
<path fill="none" stroke="red" d="M2002,-499.5C2011.21,-499.5 2005.17,-488.38 2009,-480 2013.01,-471.22 2017.52,-462.19 2022.2,-453.31"/>
<polygon fill="none" stroke="red" points="2025.17,-455.17 2026.81,-444.7 2019,-451.86 2025.17,-455.17"/>
</g>
<!-- RefreshContent__15 -->
<g id="node12" class="node">
<title>RefreshContent__15</title>
<polygon fill="#eeeeee" stroke="black" points="1571,-360.5 1571,-398.5 1687,-398.5 1687,-360.5 1571,-360.5"/>
<text text-anchor="start" x="1579" y="-383.3" font-family="monospace" font-size="14.00">EX_Return</text>
<text text-anchor="start" x="1579" y="-368.3" font-family="monospace" font-size="14.00">  EX_Nothing</text>
</g>
<!-- RefreshContent__0&#45;&gt;RefreshContent__15 -->
<g id="edge8" class="edge">
<title>RefreshContent__0&#45;&gt;RefreshContent__15</title>
<path fill="none" stroke="black" d="M1629,-480.58C1629,-461.76 1629,-431.86 1629,-409.64"/>
<polygon fill="black" stroke="black" points="1632.5,-409.72 1629,-399.72 1625.5,-409.72 1632.5,-409.72"/>
</g>
<!-- RefreshContent__17 -->
<g id="node13" class="node">
<title>RefreshContent__17</title>
<polygon fill="#eeeeee" stroke="black" points="2692,-159 2692,-195 2824,-195 2824,-159 2692,-159"/>
<text text-anchor="start" x="2700" y="-173.3" font-family="monospace" font-size="14.00">EX_EndOfScript</text>
</g>
<!-- Construct -->
<g id="node14" class="node">
<title>Construct</title>
<polygon fill="#ff8888" stroke="black" points="2307.5,-654 2307.5,-690 2472.5,-690 2472.5,-654 2307.5,-654"/>
<text text-anchor="start" x="2315.5" y="-668.3" font-family="monospace" font-size="14.00">Function Construct</text>
</g>
<!-- Construct__0 -->
<g id="node15" class="node">
<title>Construct__0</title>
<polygon fill="#eeeeee" stroke="black" points="2018.5,-480.5 2018.5,-518.5 2761.5,-518.5 2761.5,-480.5 2018.5,-480.5"/>
<text text-anchor="start" x="2026.5" y="-503.3" font-family="monospace" font-size="14.00">EX_LocalFinalFunction export LoreScreen_Upgrades_C&#45;&gt;ExecuteUbergraph_LoreScreen_Upgrades</text>
<text text-anchor="start" x="2026.5" y="-488.3" font-family="monospace" font-size="14.00">  EX_IntConst 10</text>
</g>
<!-- Construct&#45;&gt;Construct__0 -->
<g id="edge9" class="edge">
<title>Construct&#45;&gt;Construct__0</title>
<path fill="none" stroke="black" d="M2390,-654.03C2390,-624.97 2390,-565.36 2390,-529.57"/>
<polygon fill="black" stroke="black" points="2393.5,-529.94 2390,-519.94 2386.5,-529.94 2393.5,-529.94"/>
</g>
<!-- Construct__0&#45;&gt;ExecuteUbergraph_LoreScreen_Upgrades__10 -->
<g id="edge10" class="edge">
<title>Construct__0:e&#45;&gt;ExecuteUbergraph_LoreScreen_Upgrades__10</title>
<path fill="none" stroke="red" d="M2763,-499.5C2805.91,-499.5 2754.66,-440.02 2720.94,-405.16"/>
<polygon fill="none" stroke="red" points="2723.78,-403.07 2714.28,-398.38 2718.79,-407.97 2723.78,-403.07"/>
</g>
<!-- Construct__15 -->
<g id="node16" class="node">
<title>Construct__15</title>
<polygon fill="#eeeeee" stroke="black" points="2332,-360.5 2332,-398.5 2448,-398.5 2448,-360.5 2332,-360.5"/>
<text text-anchor="start" x="2340" y="-383.3" font-family="monospace" font-size="14.00">EX_Return</text>
<text text-anchor="start" x="2340" y="-368.3" font-family="monospace" font-size="14.00">  EX_Nothing</text>
</g>
<!-- Construct__0&#45;&gt;Construct__15 -->
<g id="edge11" class="edge">
<title>Construct__0&#45;&gt;Construct__15</title>
<path fill="none" stroke="black" d="M2390,-480.58C2390,-461.76 2390,-431.86 2390,-409.64"/>
<polygon fill="black" stroke="black" points="2393.5,-409.72 2390,-399.72 2386.5,-409.72 2393.5,-409.72"/>
</g>
<!-- Construct__17 -->
<g id="node17" class="node">
<title>Construct__17</title>
<polygon fill="#eeeeee" stroke="black" points="2491,-654 2491,-690 2623,-690 2623,-654 2491,-654"/>
<text text-anchor="start" x="2499" y="-668.3" font-family="monospace" font-size="14.00">EX_EndOfScript</text>
</g>
</g>
</svg>
