<?xml version="1.0" encoding="UTF-8" standalone="no"?>
<!DOCTYPE svg PUBLIC "-//W3C//DTD SVG 1.1//EN"
 "http://www.w3.org/Graphics/SVG/1.1/DTD/svg11.dtd">
<!-- Generated by graphviz version 7.0.1 (0)
 -->
<!-- Pages: 1 -->
<svg width="2926pt" height="797pt"
 viewBox="0.00 0.00 2926.00 797.00" xmlns="http://www.w3.org/2000/svg" xmlns:xlink="http://www.w3.org/1999/xlink">
<g id="graph0" class="graph" transform="scale(1 1) rotate(0) translate(4 793)">
<polygon fill="white" stroke="none" points="-4,4 -4,-793 2922,-793 2922,4 -4,4"/>
<!-- LoreScreen_Navigation_C -->
<g id="node1" class="node">
<title>LoreScreen_Navigation_C</title>
<polygon fill="#88ff88" stroke="black" points="0,-555.5 0,-788.5 850,-788.5 850,-555.5 0,-555.5"/>
<text text-anchor="start" x="8" y="-773.3" font-family="monospace" font-size="14.00">ClassExport: LoreScreen_Navigation_C</text>
<text text-anchor="start" x="8" y="-758.3" font-family="monospace" font-size="14.00">  SuperStruct: import /Game/UI/Menu_MinersManual/InfoScreens/LoreScreen_Master&#45;&gt;LoreScreen_Master_C</text>
<text text-anchor="start" x="8" y="-743.3" font-family="monospace" font-size="14.00">  Properties:</text>
<text text-anchor="start" x="8" y="-728.3" font-family="monospace" font-size="14.00">    StructProperty UberGraphFrame</text>
<text text-anchor="start" x="8" y="-713.3" font-family="monospace" font-size="14.00">      CPF_Transient|CPF_DuplicateTransient</text>
<text text-anchor="start" x="8" y="-698.3" font-family="monospace" font-size="14.00">    ObjectProperty Lore_Content1</text>
<text text-anchor="start" x="8" y="-683.3" font-family="monospace" font-size="14.00">      CPF_BlueprintVisible|CPF_ExportObject|CPF_InstancedReference|CPF_RepSkip|CPF_PersistentInstance</text>
<text text-anchor="start" x="8" y="-668.3" font-family="monospace" font-size="14.00">    ObjectProperty Lore_Content2</text>
<text text-anchor="start" x="8" y="-653.3" font-family="monospace" font-size="14.00">      CPF_BlueprintVisible|CPF_ExportObject|CPF_InstancedReference|CPF_RepSkip|CPF_PersistentInstance</text>
<text text-anchor="start" x="8" y="-638.3" font-family="monospace" font-size="14.00">    ObjectProperty Lore_Content3</text>
<text text-anchor="start" x="8" y="-623.3" font-family="monospace" font-size="14.00">      CPF_BlueprintVisible|CPF_ExportObject|CPF_InstancedReference|CPF_RepSkip|CPF_PersistentInstance</text>
<text text-anchor="start" x="8" y="-608.3" font-family="monospace" font-size="14.00">    ObjectProperty LoreScreen_Template</text>
<text text-anchor="start" x="8" y="-593.3" font-family="monospace" font-size="14.00">      CPF_BlueprintVisible|CPF_ExportObject|CPF_InstancedReference|CPF_RepSkip|CPF_PersistentInstance</text>
<text text-anchor="start" x="8" y="-578.3" font-family="monospace" font-size="14.00">    ObjectProperty HoverSound</text>
<text text-anchor="start" x="8" y="-563.3" font-family="monospace" font-size="14.00">      CPF_Edit|CPF_BlueprintVisible|CPF_DisableEditOnInstance|CPF_InstancedReference</text>
</g>
<!-- ExecuteUbergraph_LoreScreen_Navigation -->
<g id="node2" class="node">
<title>ExecuteUbergraph_LoreScreen_Navigation</title>
<polygon fill="#ff8888" stroke="black" points="868,-645.5 868,-698.5 1338,-698.5 1338,-645.5 868,-645.5"/>
<text text-anchor="start" x="876" y="-683.3" font-family="monospace" font-size="14.00">Function ExecuteUbergraph_LoreScreen_Navigation</text>
<text text-anchor="start" x="876" y="-668.3" font-family="monospace" font-size="14.00">  IntProperty EntryPoint</text>
<text text-anchor="start" x="876" y="-653.3" font-family="monospace" font-size="14.00">    CPF_BlueprintVisible|CPF_BlueprintReadOnly|CPF_Parm</text>
</g>
<!-- ExecuteUbergraph_LoreScreen_Navigation__0 -->
<g id="node3" class="node">
<title>ExecuteUbergraph_LoreScreen_Navigation__0</title>
<polygon fill="#eeeeee" stroke="black" points="967,-480.5 967,-518.5 1239,-518.5 1239,-480.5 967,-480.5"/>
<text text-anchor="start" x="975" y="-503.3" font-family="monospace" font-size="14.00">EX_ComputedJump</text>
<text text-anchor="start" x="975" y="-488.3" font-family="monospace" font-size="14.00">  EX_LocalVariable [EntryPoint]</text>
</g>
<!-- ExecuteUbergraph_LoreScreen_Navigation&#45;&gt;ExecuteUbergraph_LoreScreen_Navigation__0 -->
<g id="edge1" class="edge">
<title>ExecuteUbergraph_LoreScreen_Navigation&#45;&gt;ExecuteUbergraph_LoreScreen_Navigation__0</title>
<path fill="none" stroke="black" d="M1103,-645.84C1103,-614.96 1103,-562.67 1103,-529.94"/>
<polygon fill="black" stroke="black" points="1106.5,-529.96 1103,-519.96 1099.5,-529.96 1106.5,-529.96"/>
</g>
<!-- ExecuteUbergraph_LoreScreen_Navigation__10 -->
<g id="node4" class="node">
<title>ExecuteUbergraph_LoreScreen_Navigation__10</title>
<polygon fill="#eeeeee" stroke="black" points="2588,-361.5 2588,-397.5 2918,-397.5 2918,-361.5 2588,-361.5"/>
<text text-anchor="start" x="2596" y="-375.8" font-family="monospace" font-size="14.00">EX_LocalVirtualFunction RefreshContent</text>
</g>
<!-- ExecuteUbergraph_LoreScreen_Navigation__24 -->
<g id="node5" class="node">
<title>ExecuteUbergraph_LoreScreen_Navigation__24</title>
<polygon fill="#eeeeee" stroke="black" points="2619.5,-159 2619.5,-195 2726.5,-195 2726.5,-159 2619.5,-159"/>
<text text-anchor="start" x="2627.5" y="-173.3" font-family="monospace" font-size="14.00">EX_Jump 168</text>
</g>
<!-- ExecuteUbergraph_LoreScreen_Navigation__10&#45;&gt;ExecuteUbergraph_LoreScreen_Navigation__24 -->
<g id="edge2" class="edge">
<title>ExecuteUbergraph_LoreScreen_Navigation__10&#45;&gt;ExecuteUbergraph_LoreScreen_Navigation__24</title>
<path fill="none" stroke="black" d="M2746.32,-361.75C2732.52,-327.18 2700.78,-247.64 2683.95,-205.44"/>
<polygon fill="black" stroke="black" points="2687.24,-204.24 2680.28,-196.25 2680.74,-206.83 2687.24,-204.24"/>
</g>
<!-- ExecuteUbergraph_LoreScreen_Navigation__168 -->
<g id="node8" class="node">
<title>ExecuteUbergraph_LoreScreen_Navigation__168</title>
<polygon fill="#eeeeee" stroke="black" points="2371,-0.5 2371,-38.5 2487,-38.5 2487,-0.5 2371,-0.5"/>
<text text-anchor="start" x="2379" y="-23.3" font-family="monospace" font-size="14.00">EX_Return</text>
<text text-anchor="start" x="2379" y="-8.3" font-family="monospace" font-size="14.00">  EX_Nothing</text>
</g>
<!-- ExecuteUbergraph_LoreScreen_Navigation__24&#45;&gt;ExecuteUbergraph_LoreScreen_Navigation__168 -->
<g id="edge3" class="edge">
<title>ExecuteUbergraph_LoreScreen_Navigation__24&#45;&gt;ExecuteUbergraph_LoreScreen_Navigation__168</title>
<path fill="none" stroke="black" d="M2650.78,-159.05C2623.14,-138.25 2574.18,-102.38 2530,-75 2512.3,-64.03 2492.23,-52.94 2474.66,-43.65"/>
<polygon fill="black" stroke="black" points="2476.47,-40.64 2465.99,-39.1 2473.22,-46.84 2476.47,-40.64"/>
</g>
<!-- ExecuteUbergraph_LoreScreen_Navigation__29 -->
<g id="node6" class="node">
<title>ExecuteUbergraph_LoreScreen_Navigation__29</title>
<polygon fill="#eeeeee" stroke="black" points="1919.5,-315.5 1919.5,-443.5 2290.5,-443.5 2290.5,-315.5 1919.5,-315.5"/>
<text text-anchor="start" x="1927.5" y="-428.3" font-family="monospace" font-size="14.00">EX_Context</text>
<text text-anchor="start" x="1927.5" y="-413.3" font-family="monospace" font-size="14.00">  EX_InstanceVariable [LoreScreen_Template]</text>
<text text-anchor="start" x="1927.5" y="-398.3" font-family="monospace" font-size="14.00">  EX_LocalVirtualFunction SetHeaderImage</text>
<text text-anchor="start" x="1927.5" y="-383.3" font-family="monospace" font-size="14.00">    EX_NoObject</text>
<text text-anchor="start" x="1927.5" y="-368.3" font-family="monospace" font-size="14.00">    EX_False</text>
<text text-anchor="start" x="1927.5" y="-353.3" font-family="monospace" font-size="14.00">    EX_FloatConst 0.7</text>
<text text-anchor="start" x="1927.5" y="-338.3" font-family="monospace" font-size="14.00">    EX_True</text>
<text text-anchor="start" x="1927.5" y="-323.3" font-family="monospace" font-size="14.00">  RValue = []</text>
</g>
<!-- ExecuteUbergraph_LoreScreen_Navigation__73 -->
<g id="node7" class="node">
<title>ExecuteUbergraph_LoreScreen_Navigation__73</title>
<polygon fill="#eeeeee" stroke="black" points="2009,-75.5 2009,-278.5 2521,-278.5 2521,-75.5 2009,-75.5"/>
<text text-anchor="start" x="2017" y="-263.3" font-family="monospace" font-size="14.00">EX_Context</text>
<text text-anchor="start" x="2017" y="-248.3" font-family="monospace" font-size="14.00">  EX_InstanceVariable [LoreScreen_Template]</text>
<text text-anchor="start" x="2017" y="-233.3" font-family="monospace" font-size="14.00">  EX_LocalVirtualFunction SetHeadline</text>
<text text-anchor="start" x="2017" y="-218.3" font-family="monospace" font-size="14.00">    EX_InstanceVariable [PageName]</text>
<text text-anchor="start" x="2017" y="-203.3" font-family="monospace" font-size="14.00">    EX_NoObject</text>
<text text-anchor="start" x="2017" y="-188.3" font-family="monospace" font-size="14.00">    EX_StructConst import /Script/FSD&#45;&gt;ObjectiveMissionIcon</text>
<text text-anchor="start" x="2017" y="-173.3" font-family="monospace" font-size="14.00">      EX_NoObject</text>
<text text-anchor="start" x="2017" y="-158.3" font-family="monospace" font-size="14.00">      EX_StructConst import /Script/CoreUObject&#45;&gt;LinearColor</text>
<text text-anchor="start" x="2017" y="-143.3" font-family="monospace" font-size="14.00">        EX_FloatConst 1</text>
<text text-anchor="start" x="2017" y="-128.3" font-family="monospace" font-size="14.00">        EX_FloatConst 1</text>
<text text-anchor="start" x="2017" y="-113.3" font-family="monospace" font-size="14.00">        EX_FloatConst 1</text>
<text text-anchor="start" x="2017" y="-98.3" font-family="monospace" font-size="14.00">        EX_FloatConst 1</text>
<text text-anchor="start" x="2017" y="-83.3" font-family="monospace" font-size="14.00">  RValue = []</text>
</g>
<!-- ExecuteUbergraph_LoreScreen_Navigation__29&#45;&gt;ExecuteUbergraph_LoreScreen_Navigation__73 -->
<g id="edge4" class="edge">
<title>ExecuteUbergraph_LoreScreen_Navigation__29&#45;&gt;ExecuteUbergraph_LoreScreen_Navigation__73</title>
<path fill="none" stroke="black" d="M2155.19,-315.61C2162.41,-306.55 2170.02,-297.02 2177.72,-287.38"/>
<polygon fill="black" stroke="black" points="2180.36,-289.68 2183.86,-279.68 2174.88,-285.32 2180.36,-289.68"/>
</g>
<!-- ExecuteUbergraph_LoreScreen_Navigation__73&#45;&gt;ExecuteUbergraph_LoreScreen_Navigation__168 -->
<g id="edge5" class="edge">
<title>ExecuteUbergraph_LoreScreen_Navigation__73&#45;&gt;ExecuteUbergraph_LoreScreen_Navigation__168</title>
<path fill="none" stroke="black" d="M2370.72,-75.76C2382.18,-64.89 2392.96,-54.67 2402.06,-46.04"/>
<polygon fill="black" stroke="black" points="2404.3,-48.75 2409.14,-39.33 2399.48,-43.67 2404.3,-48.75"/>
</g>
<!-- ExecuteUbergraph_LoreScreen_Navigation__170 -->
<g id="node9" class="node">
<title>ExecuteUbergraph_LoreScreen_Navigation__170</title>
<polygon fill="#eeeeee" stroke="black" points="2505,-1.5 2505,-37.5 2637,-37.5 2637,-1.5 2505,-1.5"/>
<text text-anchor="start" x="2513" y="-15.8" font-family="monospace" font-size="14.00">EX_EndOfScript</text>
</g>
<!-- RefreshContent -->
<g id="node10" class="node">
<title>RefreshContent</title>
<polygon fill="#ff8888" stroke="black" points="1542,-654 1542,-690 1748,-690 1748,-654 1542,-654"/>
<text text-anchor="start" x="1550" y="-668.3" font-family="monospace" font-size="14.00">Function RefreshContent</text>
</g>
<!-- RefreshContent__0 -->
<g id="node11" class="node">
<title>RefreshContent__0</title>
<polygon fill="#eeeeee" stroke="black" points="1257,-480.5 1257,-518.5 2033,-518.5 2033,-480.5 1257,-480.5"/>
<text text-anchor="start" x="1265" y="-503.3" font-family="monospace" font-size="14.00">EX_LocalFinalFunction export LoreScreen_Navigation_C&#45;&gt;ExecuteUbergraph_LoreScreen_Navigation</text>
<text text-anchor="start" x="1265" y="-488.3" font-family="monospace" font-size="14.00">  EX_IntConst 29</text>
</g>
<!-- RefreshContent&#45;&gt;RefreshContent__0 -->
<g id="edge6" class="edge">
<title>RefreshContent&#45;&gt;RefreshContent__0</title>
<path fill="none" stroke="black" d="M1645,-654.03C1645,-624.97 1645,-565.36 1645,-529.57"/>
<polygon fill="black" stroke="black" points="1648.5,-529.94 1645,-519.94 1641.5,-529.94 1648.5,-529.94"/>
</g>
<!-- RefreshContent__0&#45;&gt;ExecuteUbergraph_LoreScreen_Navigation__29 -->
<g id="edge7" class="edge">
<title>RefreshContent__0:e&#45;&gt;ExecuteUbergraph_LoreScreen_Navigation__29</title>
<path fill="none" stroke="red" d="M2034,-499.5C2043.37,-499.5 2037.7,-488.32 2042,-480 2046.58,-471.13 2051.71,-462.02 2057.01,-453.09"/>
<polygon fill="none" stroke="red" points="2059.85,-455.15 2062.02,-444.78 2053.86,-451.54 2059.85,-455.15"/>
</g>
<!-- RefreshContent__15 -->
<g id="node12" class="node">
<title>RefreshContent__15</title>
<polygon fill="#eeeeee" stroke="black" points="1587,-360.5 1587,-398.5 1703,-398.5 1703,-360.5 1587,-360.5"/>
<text text-anchor="start" x="1595" y="-383.3" font-family="monospace" font-size="14.00">EX_Return</text>
<text text-anchor="start" x="1595" y="-368.3" font-family="monospace" font-size="14.00">  EX_Nothing</text>
</g>
<!-- RefreshContent__0&#45;&gt;RefreshContent__15 -->
<g id="edge8" class="edge">
<title>RefreshContent__0&#45;&gt;RefreshContent__15</title>
<path fill="none" stroke="black" d="M1645,-480.58C1645,-461.76 1645,-431.86 1645,-409.64"/>
<polygon fill="black" stroke="black" points="1648.5,-409.72 1645,-399.72 1641.5,-409.72 1648.5,-409.72"/>
</g>
<!-- RefreshContent__17 -->
<g id="node13" class="node">
<title>RefreshContent__17</title>
<polygon fill="#eeeeee" stroke="black" points="2745,-159 2745,-195 2877,-195 2877,-159 2745,-159"/>
<text text-anchor="start" x="2753" y="-173.3" font-family="monospace" font-size="14.00">EX_EndOfScript</text>
</g>
<!-- Construct -->
<g id="node14" class="node">
<title>Construct</title>
<polygon fill="#ff8888" stroke="black" points="2356.5,-654 2356.5,-690 2521.5,-690 2521.5,-654 2356.5,-654"/>
<text text-anchor="start" x="2364.5" y="-668.3" font-family="monospace" font-size="14.00">Function Construct</text>
</g>
<!-- Construct__0 -->
<g id="node15" class="node">
<title>Construct__0</title>
<polygon fill="#eeeeee" stroke="black" points="2051,-480.5 2051,-518.5 2827,-518.5 2827,-480.5 2051,-480.5"/>
<text text-anchor="start" x="2059" y="-503.3" font-family="monospace" font-size="14.00">EX_LocalFinalFunction export LoreScreen_Navigation_C&#45;&gt;ExecuteUbergraph_LoreScreen_Navigation</text>
<text text-anchor="start" x="2059" y="-488.3" font-family="monospace" font-size="14.00">  EX_IntConst 10</text>
</g>
<!-- Construct&#45;&gt;Construct__0 -->
<g id="edge9" class="edge">
<title>Construct&#45;&gt;Construct__0</title>
<path fill="none" stroke="black" d="M2439,-654.03C2439,-624.97 2439,-565.36 2439,-529.57"/>
<polygon fill="black" stroke="black" points="2442.5,-529.94 2439,-519.94 2435.5,-529.94 2442.5,-529.94"/>
</g>
<!-- Construct__0&#45;&gt;ExecuteUbergraph_LoreScreen_Navigation__10 -->
<g id="edge10" class="edge">
<title>Construct__0:e&#45;&gt;ExecuteUbergraph_LoreScreen_Navigation__10</title>
<path fill="none" stroke="red" d="M2828,-499.5C2872.2,-499.5 2816.41,-440.02 2779.93,-405.16"/>
<polygon fill="none" stroke="red" points="2782.36,-402.65 2772.69,-398.34 2777.56,-407.74 2782.36,-402.65"/>
</g>
<!-- Construct__15 -->
<g id="node16" class="node">
<title>Construct__15</title>
<polygon fill="#eeeeee" stroke="black" points="2381,-360.5 2381,-398.5 2497,-398.5 2497,-360.5 2381,-360.5"/>
<text text-anchor="start" x="2389" y="-383.3" font-family="monospace" font-size="14.00">EX_Return</text>
<text text-anchor="start" x="2389" y="-368.3" font-family="monospace" font-size="14.00">  EX_Nothing</text>
</g>
<!-- Construct__0&#45;&gt;Construct__15 -->
<g id="edge11" class="edge">
<title>Construct__0&#45;&gt;Construct__15</title>
<path fill="none" stroke="black" d="M2439,-480.58C2439,-461.76 2439,-431.86 2439,-409.64"/>
<polygon fill="black" stroke="black" points="2442.5,-409.72 2439,-399.72 2435.5,-409.72 2442.5,-409.72"/>
</g>
<!-- Construct__17 -->
<g id="node17" class="node">
<title>Construct__17</title>
<polygon fill="#eeeeee" stroke="black" points="2540,-654 2540,-690 2672,-690 2672,-654 2540,-654"/>
<text text-anchor="start" x="2548" y="-668.3" font-family="monospace" font-size="14.00">EX_EndOfScript</text>
</g>
</g>
</svg>
