<?xml version="1.0" encoding="UTF-8" standalone="no"?>
<!DOCTYPE svg PUBLIC "-//W3C//DTD SVG 1.1//EN"
 "http://www.w3.org/Graphics/SVG/1.1/DTD/svg11.dtd">
<!-- Generated by graphviz version 7.0.1 (0)
 -->
<!-- Pages: 1 -->
<svg width="3104pt" height="2103pt"
 viewBox="0.00 0.00 3103.50 2103.00" xmlns="http://www.w3.org/2000/svg" xmlns:xlink="http://www.w3.org/1999/xlink">
<g id="graph0" class="graph" transform="scale(1 1) rotate(0) translate(4 2099)">
<polygon fill="white" stroke="none" points="-4,4 -4,-2099 3099.5,-2099 3099.5,4 -4,4"/>
<!-- ABP_MiniMule_C -->
<g id="node1" class="node">
<title>ABP_MiniMule_C</title>
<polygon fill="#88ff88" stroke="black" points="0,-1531.5 0,-2094.5 734,-2094.5 734,-1531.5 0,-1531.5"/>
<text text-anchor="start" x="8" y="-2079.3" font-family="monospace" font-size="14.00">ClassExport: ABP_MiniMule_C</text>
<text text-anchor="start" x="8" y="-2064.3" font-family="monospace" font-size="14.00">  SuperStruct: import /Script/FSD&#45;&gt;SimpleMovingEnemyAnimInstance</text>
<text text-anchor="start" x="8" y="-2049.3" font-family="monospace" font-size="14.00">  Properties:</text>
<text text-anchor="start" x="8" y="-2034.3" font-family="monospace" font-size="14.00">    StructProperty UberGraphFrame</text>
<text text-anchor="start" x="8" y="-2019.3" font-family="monospace" font-size="14.00">      CPF_Transient|CPF_DuplicateTransient</text>
<text text-anchor="start" x="8" y="-2004.3" font-family="monospace" font-size="14.00">    StructProperty AnimGraphNode_Root</text>
<text text-anchor="start" x="8" y="-1989.3" font-family="monospace" font-size="14.00">    StructProperty AnimGraphNode_TransitionResult_4</text>
<text text-anchor="start" x="8" y="-1974.3" font-family="monospace" font-size="14.00">    StructProperty AnimGraphNode_TransitionResult_3</text>
<text text-anchor="start" x="8" y="-1959.3" font-family="monospace" font-size="14.00">    StructProperty AnimGraphNode_TransitionResult_2</text>
<text text-anchor="start" x="8" y="-1944.3" font-family="monospace" font-size="14.00">    StructProperty AnimGraphNode_TransitionResult_1</text>
<text text-anchor="start" x="8" y="-1929.3" font-family="monospace" font-size="14.00">    StructProperty AnimGraphNode_TransitionResult</text>
<text text-anchor="start" x="8" y="-1914.3" font-family="monospace" font-size="14.00">    StructProperty AnimGraphNode_ModifyBone_2</text>
<text text-anchor="start" x="8" y="-1899.3" font-family="monospace" font-size="14.00">    StructProperty AnimGraphNode_ModifyBone_1</text>
<text text-anchor="start" x="8" y="-1884.3" font-family="monospace" font-size="14.00">    StructProperty AnimGraphNode_ComponentToLocalSpace</text>
<text text-anchor="start" x="8" y="-1869.3" font-family="monospace" font-size="14.00">    StructProperty AnimGraphNode_ModifyBone</text>
<text text-anchor="start" x="8" y="-1854.3" font-family="monospace" font-size="14.00">    StructProperty AnimGraphNode_LocalToComponentSpace</text>
<text text-anchor="start" x="8" y="-1839.3" font-family="monospace" font-size="14.00">    StructProperty AnimGraphNode_SequencePlayer_4</text>
<text text-anchor="start" x="8" y="-1824.3" font-family="monospace" font-size="14.00">    StructProperty AnimGraphNode_StateResult_4</text>
<text text-anchor="start" x="8" y="-1809.3" font-family="monospace" font-size="14.00">    StructProperty AnimGraphNode_SequencePlayer_3</text>
<text text-anchor="start" x="8" y="-1794.3" font-family="monospace" font-size="14.00">    StructProperty AnimGraphNode_StateResult_3</text>
<text text-anchor="start" x="8" y="-1779.3" font-family="monospace" font-size="14.00">    StructProperty AnimGraphNode_SequencePlayer_2</text>
<text text-anchor="start" x="8" y="-1764.3" font-family="monospace" font-size="14.00">    StructProperty AnimGraphNode_StateResult_2</text>
<text text-anchor="start" x="8" y="-1749.3" font-family="monospace" font-size="14.00">    StructProperty AnimGraphNode_SequencePlayer_1</text>
<text text-anchor="start" x="8" y="-1734.3" font-family="monospace" font-size="14.00">    StructProperty AnimGraphNode_StateResult_1</text>
<text text-anchor="start" x="8" y="-1719.3" font-family="monospace" font-size="14.00">    StructProperty AnimGraphNode_SequencePlayer</text>
<text text-anchor="start" x="8" y="-1704.3" font-family="monospace" font-size="14.00">    StructProperty AnimGraphNode_StateResult</text>
<text text-anchor="start" x="8" y="-1689.3" font-family="monospace" font-size="14.00">    StructProperty AnimGraphNode_StateMachine</text>
<text text-anchor="start" x="8" y="-1674.3" font-family="monospace" font-size="14.00">    ObjectProperty Mule</text>
<text text-anchor="start" x="8" y="-1659.3" font-family="monospace" font-size="14.00">      CPF_Edit|CPF_BlueprintVisible|CPF_DisableEditOnTemplate|CPF_DisableEditOnInstance</text>
<text text-anchor="start" x="8" y="-1644.3" font-family="monospace" font-size="14.00">    FloatProperty LegTwist</text>
<text text-anchor="start" x="8" y="-1629.3" font-family="monospace" font-size="14.00">      CPF_Edit|CPF_BlueprintVisible|CPF_DisableEditOnInstance</text>
<text text-anchor="start" x="8" y="-1614.3" font-family="monospace" font-size="14.00">    BoolProperty IsDown</text>
<text text-anchor="start" x="8" y="-1599.3" font-family="monospace" font-size="14.00">      CPF_Edit|CPF_BlueprintVisible|CPF_Transient|CPF_DisableEditOnInstance</text>
<text text-anchor="start" x="8" y="-1584.3" font-family="monospace" font-size="14.00">    BoolProperty IsRepaired</text>
<text text-anchor="start" x="8" y="-1569.3" font-family="monospace" font-size="14.00">      CPF_Edit|CPF_BlueprintVisible|CPF_DisableEditOnInstance</text>
<text text-anchor="start" x="8" y="-1554.3" font-family="monospace" font-size="14.00">    StructProperty Progress</text>
<text text-anchor="start" x="8" y="-1539.3" font-family="monospace" font-size="14.00">      CPF_Edit|CPF_BlueprintVisible|CPF_Transient|CPF_DisableEditOnInstance</text>
</g>
<!-- ExecuteUbergraph_ABP_MiniMule -->
<g id="node2" class="node">
<title>ExecuteUbergraph_ABP_MiniMule</title>
<polygon fill="#ff8888" stroke="black" points="752.5,-1726.5 752.5,-1899.5 1247.5,-1899.5 1247.5,-1726.5 752.5,-1726.5"/>
<text text-anchor="start" x="760.5" y="-1884.3" font-family="monospace" font-size="14.00">Function ExecuteUbergraph_ABP_MiniMule</text>
<text text-anchor="start" x="760.5" y="-1869.3" font-family="monospace" font-size="14.00">  IntProperty EntryPoint</text>
<text text-anchor="start" x="760.5" y="-1854.3" font-family="monospace" font-size="14.00">    CPF_BlueprintVisible|CPF_BlueprintReadOnly|CPF_Parm</text>
<text text-anchor="start" x="760.5" y="-1839.3" font-family="monospace" font-size="14.00">  ObjectProperty CallFunc_GetOwningActor_ReturnValue</text>
<text text-anchor="start" x="760.5" y="-1824.3" font-family="monospace" font-size="14.00">  ObjectProperty K2Node_DynamicCast_AsBP_Mini_Mule_Salvage</text>
<text text-anchor="start" x="760.5" y="-1809.3" font-family="monospace" font-size="14.00">  BoolProperty K2Node_DynamicCast_bSuccess</text>
<text text-anchor="start" x="760.5" y="-1794.3" font-family="monospace" font-size="14.00">  FloatProperty K2Node_Event_DeltaTimeX</text>
<text text-anchor="start" x="760.5" y="-1779.3" font-family="monospace" font-size="14.00">  BoolProperty CallFunc_IsValid_ReturnValue</text>
<text text-anchor="start" x="760.5" y="-1764.3" font-family="monospace" font-size="14.00">  FloatProperty CallFunc_Subtract_FloatFloat_ReturnValue</text>
<text text-anchor="start" x="760.5" y="-1749.3" font-family="monospace" font-size="14.00">  FloatProperty CallFunc_Multiply_FloatFloat_ReturnValue</text>
<text text-anchor="start" x="760.5" y="-1734.3" font-family="monospace" font-size="14.00">  StructProperty CallFunc_MakeRotator_ReturnValue</text>
</g>
<!-- ExecuteUbergraph_ABP_MiniMule__0 -->
<g id="node3" class="node">
<title>ExecuteUbergraph_ABP_MiniMule__0</title>
<polygon fill="#eeeeee" stroke="black" points="864,-1397 864,-1435 1136,-1435 1136,-1397 864,-1397"/>
<text text-anchor="start" x="872" y="-1419.8" font-family="monospace" font-size="14.00">EX_ComputedJump</text>
<text text-anchor="start" x="872" y="-1404.8" font-family="monospace" font-size="14.00">  EX_LocalVariable [EntryPoint]</text>
</g>
<!-- ExecuteUbergraph_ABP_MiniMule&#45;&gt;ExecuteUbergraph_ABP_MiniMule__0 -->
<g id="edge1" class="edge">
<title>ExecuteUbergraph_ABP_MiniMule&#45;&gt;ExecuteUbergraph_ABP_MiniMule__0</title>
<path fill="none" stroke="black" d="M1000,-1726.78C1000,-1638.27 1000,-1504.72 1000,-1446.21"/>
<polygon fill="black" stroke="black" points="1003.5,-1446.42 1000,-1436.42 996.5,-1446.42 1003.5,-1446.42"/>
</g>
<!-- ExecuteUbergraph_ABP_MiniMule__10 -->
<g id="node4" class="node">
<title>ExecuteUbergraph_ABP_MiniMule__10</title>
<polygon fill="#eeeeee" stroke="black" points="2394,-881 2394,-934 2988,-934 2988,-881 2394,-881"/>
<text text-anchor="start" x="2402" y="-918.8" font-family="monospace" font-size="14.00">EX_LetObj</text>
<text text-anchor="start" x="2402" y="-903.8" font-family="monospace" font-size="14.00">  EX_LocalVariable [CallFunc_GetOwningActor_ReturnValue]</text>
<text text-anchor="start" x="2402" y="-888.8" font-family="monospace" font-size="14.00">  EX_FinalFunction import /Script/Engine&#45;&gt;AnimInstance&#45;&gt;GetOwningActor</text>
</g>
<!-- ExecuteUbergraph_ABP_MiniMule__30 -->
<g id="node5" class="node">
<title>ExecuteUbergraph_ABP_MiniMule__30</title>
<polygon fill="#eeeeee" stroke="black" points="2220.5,-715 2220.5,-783 3095.5,-783 3095.5,-715 2220.5,-715"/>
<text text-anchor="start" x="2228.5" y="-767.8" font-family="monospace" font-size="14.00">EX_Let</text>
<text text-anchor="start" x="2228.5" y="-752.8" font-family="monospace" font-size="14.00">  EX_LocalVariable [K2Node_DynamicCast_AsBP_Mini_Mule_Salvage]</text>
<text text-anchor="start" x="2228.5" y="-737.8" font-family="monospace" font-size="14.00">  EX_DynamicCast import /Game/GameElements/Objectives/Salvage/BP_MiniMule_Salvage&#45;&gt;BP_MiniMule_Salvage_C</text>
<text text-anchor="start" x="2228.5" y="-722.8" font-family="monospace" font-size="14.00">    EX_LocalVariable [CallFunc_GetOwningActor_ReturnValue]</text>
</g>
<!-- ExecuteUbergraph_ABP_MiniMule__10&#45;&gt;ExecuteUbergraph_ABP_MiniMule__30 -->
<g id="edge2" class="edge">
<title>ExecuteUbergraph_ABP_MiniMule__10&#45;&gt;ExecuteUbergraph_ABP_MiniMule__30</title>
<path fill="none" stroke="black" d="M2685.62,-881.01C2680.66,-857.48 2673.19,-822.06 2667.27,-793.97"/>
<polygon fill="black" stroke="black" points="2670.72,-793.37 2665.24,-784.31 2663.87,-794.82 2670.72,-793.37"/>
</g>
<!-- ExecuteUbergraph_ABP_MiniMule__66 -->
<g id="node6" class="node">
<title>ExecuteUbergraph_ABP_MiniMule__66</title>
<polygon fill="#eeeeee" stroke="black" points="2359.5,-519 2359.5,-587 2904.5,-587 2904.5,-519 2359.5,-519"/>
<text text-anchor="start" x="2367.5" y="-571.8" font-family="monospace" font-size="14.00">EX_Let</text>
<text text-anchor="start" x="2367.5" y="-556.8" font-family="monospace" font-size="14.00">  EX_LocalVariable [K2Node_DynamicCast_bSuccess]</text>
<text text-anchor="start" x="2367.5" y="-541.8" font-family="monospace" font-size="14.00">  EX_PrimitiveCast ObjectToBool</text>
<text text-anchor="start" x="2367.5" y="-526.8" font-family="monospace" font-size="14.00">    EX_LocalVariable [K2Node_DynamicCast_AsBP_Mini_Mule_Salvage]</text>
</g>
<!-- ExecuteUbergraph_ABP_MiniMule__30&#45;&gt;ExecuteUbergraph_ABP_MiniMule__66 -->
<g id="edge3" class="edge">
<title>ExecuteUbergraph_ABP_MiniMule__30&#45;&gt;ExecuteUbergraph_ABP_MiniMule__66</title>
<path fill="none" stroke="black" d="M2653.59,-715.09C2649.26,-682.8 2642.64,-633.37 2637.87,-597.78"/>
<polygon fill="black" stroke="black" points="2641.39,-597.69 2636.59,-588.25 2634.45,-598.62 2641.39,-597.69"/>
</g>
<!-- ExecuteUbergraph_ABP_MiniMule__95 -->
<g id="node7" class="node">
<title>ExecuteUbergraph_ABP_MiniMule__95</title>
<polygon fill="#eeeeee" stroke="black" points="2351.5,-354 2351.5,-392 2764.5,-392 2764.5,-354 2351.5,-354"/>
<text text-anchor="start" x="2359.5" y="-376.8" font-family="monospace" font-size="14.00">EX_JumpIfNot 482</text>
<text text-anchor="start" x="2359.5" y="-361.8" font-family="monospace" font-size="14.00">  EX_LocalVariable [K2Node_DynamicCast_bSuccess]</text>
</g>
<!-- ExecuteUbergraph_ABP_MiniMule__66&#45;&gt;ExecuteUbergraph_ABP_MiniMule__95 -->
<g id="edge4" class="edge">
<title>ExecuteUbergraph_ABP_MiniMule__66&#45;&gt;ExecuteUbergraph_ABP_MiniMule__95</title>
<path fill="none" stroke="black" d="M2618.43,-519.35C2604.47,-485.77 2582.95,-434.02 2569.71,-402.18"/>
<polygon fill="black" stroke="black" points="2573.05,-401.09 2565.98,-393.2 2566.59,-403.78 2573.05,-401.09"/>
</g>
<!-- ExecuteUbergraph_ABP_MiniMule__109 -->
<g id="node8" class="node">
<title>ExecuteUbergraph_ABP_MiniMule__109</title>
<polygon fill="#eeeeee" stroke="black" points="2209,-204 2209,-257 2737,-257 2737,-204 2209,-204"/>
<text text-anchor="start" x="2217" y="-241.8" font-family="monospace" font-size="14.00">EX_LetObj</text>
<text text-anchor="start" x="2217" y="-226.8" font-family="monospace" font-size="14.00">  EX_InstanceVariable [Mule]</text>
<text text-anchor="start" x="2217" y="-211.8" font-family="monospace" font-size="14.00">  EX_LocalVariable [K2Node_DynamicCast_AsBP_Mini_Mule_Salvage]</text>
</g>
<!-- ExecuteUbergraph_ABP_MiniMule__95&#45;&gt;ExecuteUbergraph_ABP_MiniMule__109 -->
<g id="edge6" class="edge">
<title>ExecuteUbergraph_ABP_MiniMule__95&#45;&gt;ExecuteUbergraph_ABP_MiniMule__109</title>
<path fill="none" stroke="black" d="M2547.23,-354.21C2533.99,-332.31 2511.18,-294.61 2494.33,-266.76"/>
<polygon fill="black" stroke="black" points="2497.38,-265.03 2489.2,-258.29 2491.39,-268.65 2497.38,-265.03"/>
<text text-anchor="middle" x="2529.5" y="-301.8" font-family="monospace" font-size="14.00">IF</text>
</g>
<!-- ExecuteUbergraph_ABP_MiniMule__482 -->
<g id="node18" class="node">
<title>ExecuteUbergraph_ABP_MiniMule__482</title>
<polygon fill="#eeeeee" stroke="black" points="2269,-0.5 2269,-38.5 2385,-38.5 2385,-0.5 2269,-0.5"/>
<text text-anchor="start" x="2277" y="-23.3" font-family="monospace" font-size="14.00">EX_Return</text>
<text text-anchor="start" x="2277" y="-8.3" font-family="monospace" font-size="14.00">  EX_Nothing</text>
</g>
<!-- ExecuteUbergraph_ABP_MiniMule__95&#45;&gt;ExecuteUbergraph_ABP_MiniMule__482 -->
<g id="edge5" class="edge">
<title>ExecuteUbergraph_ABP_MiniMule__95:e&#45;&gt;ExecuteUbergraph_ABP_MiniMule__482</title>
<path fill="none" stroke="red" d="M2766,-373C2779.95,-373 2875.12,-350.27 2746,-181 2661.79,-70.6 2491.7,-36.13 2396.16,-25.37"/>
<polygon fill="none" stroke="red" points="2396.71,-21.91 2386.39,-24.33 2395.97,-28.87 2396.71,-21.91"/>
<text text-anchor="middle" x="2754" y="-151.8" font-family="monospace" font-size="14.00">IF NOT</text>
</g>
<!-- ExecuteUbergraph_ABP_MiniMule__128 -->
<g id="node9" class="node">
<title>ExecuteUbergraph_ABP_MiniMule__128</title>
<polygon fill="#eeeeee" stroke="black" points="2365.5,-85 2365.5,-121 2472.5,-121 2472.5,-85 2365.5,-85"/>
<text text-anchor="start" x="2373.5" y="-99.3" font-family="monospace" font-size="14.00">EX_Jump 482</text>
</g>
<!-- ExecuteUbergraph_ABP_MiniMule__109&#45;&gt;ExecuteUbergraph_ABP_MiniMule__128 -->
<g id="edge7" class="edge">
<title>ExecuteUbergraph_ABP_MiniMule__109&#45;&gt;ExecuteUbergraph_ABP_MiniMule__128</title>
<path fill="none" stroke="black" d="M2462.07,-204.1C2452.99,-183 2440.1,-153.03 2430.79,-131.4"/>
<polygon fill="black" stroke="black" points="2434.05,-130.12 2426.88,-122.32 2427.62,-132.89 2434.05,-130.12"/>
</g>
<!-- ExecuteUbergraph_ABP_MiniMule__128&#45;&gt;ExecuteUbergraph_ABP_MiniMule__482 -->
<g id="edge8" class="edge">
<title>ExecuteUbergraph_ABP_MiniMule__128&#45;&gt;ExecuteUbergraph_ABP_MiniMule__482</title>
<path fill="none" stroke="black" d="M2399.94,-85.11C2387.21,-73.84 2370.24,-58.8 2355.86,-46.07"/>
<polygon fill="black" stroke="black" points="2358.25,-43.51 2348.45,-39.5 2353.61,-48.75 2358.25,-43.51"/>
</g>
<!-- ExecuteUbergraph_ABP_MiniMule__133 -->
<g id="node10" class="node">
<title>ExecuteUbergraph_ABP_MiniMule__133</title>
<polygon fill="#eeeeee" stroke="black" points="1558.5,-1120.5 1558.5,-1188.5 2111.5,-1188.5 2111.5,-1120.5 1558.5,-1120.5"/>
<text text-anchor="start" x="1566.5" y="-1173.3" font-family="monospace" font-size="14.00">EX_LetBool</text>
<text text-anchor="start" x="1566.5" y="-1158.3" font-family="monospace" font-size="14.00">  EX_LocalVariable [CallFunc_IsValid_ReturnValue]</text>
<text text-anchor="start" x="1566.5" y="-1143.3" font-family="monospace" font-size="14.00">  EX_CallMath import /Script/Engine&#45;&gt;KismetSystemLibrary&#45;&gt;IsValid</text>
<text text-anchor="start" x="1566.5" y="-1128.3" font-family="monospace" font-size="14.00">    EX_InstanceVariable [Mule]</text>
</g>
<!-- ExecuteUbergraph_ABP_MiniMule__162 -->
<g id="node11" class="node">
<title>ExecuteUbergraph_ABP_MiniMule__162</title>
<polygon fill="#eeeeee" stroke="black" points="1624.5,-1008.5 1624.5,-1046.5 2045.5,-1046.5 2045.5,-1008.5 1624.5,-1008.5"/>
<text text-anchor="start" x="1632.5" y="-1031.3" font-family="monospace" font-size="14.00">EX_JumpIfNot 482</text>
<text text-anchor="start" x="1632.5" y="-1016.3" font-family="monospace" font-size="14.00">  EX_LocalVariable [CallFunc_IsValid_ReturnValue]</text>
</g>
<!-- ExecuteUbergraph_ABP_MiniMule__133&#45;&gt;ExecuteUbergraph_ABP_MiniMule__162 -->
<g id="edge9" class="edge">
<title>ExecuteUbergraph_ABP_MiniMule__133&#45;&gt;ExecuteUbergraph_ABP_MiniMule__162</title>
<path fill="none" stroke="black" d="M1835,-1120.66C1835,-1101.2 1835,-1076.74 1835,-1057.91"/>
<polygon fill="black" stroke="black" points="1838.5,-1057.97 1835,-1047.97 1831.5,-1057.97 1838.5,-1057.97"/>
</g>
<!-- ExecuteUbergraph_ABP_MiniMule__176 -->
<g id="node12" class="node">
<title>ExecuteUbergraph_ABP_MiniMule__176</title>
<polygon fill="#eeeeee" stroke="black" points="1694.5,-858.5 1694.5,-956.5 1975.5,-956.5 1975.5,-858.5 1694.5,-858.5"/>
<text text-anchor="start" x="1702.5" y="-941.3" font-family="monospace" font-size="14.00">EX_LetBool</text>
<text text-anchor="start" x="1702.5" y="-926.3" font-family="monospace" font-size="14.00">  EX_InstanceVariable [IsDown]</text>
<text text-anchor="start" x="1702.5" y="-911.3" font-family="monospace" font-size="14.00">  EX_Context</text>
<text text-anchor="start" x="1702.5" y="-896.3" font-family="monospace" font-size="14.00">    EX_InstanceVariable [Mule]</text>
<text text-anchor="start" x="1702.5" y="-881.3" font-family="monospace" font-size="14.00">    EX_InstanceVariable [IsDown]</text>
<text text-anchor="start" x="1702.5" y="-866.3" font-family="monospace" font-size="14.00">    RValue = [IsDown]</text>
</g>
<!-- ExecuteUbergraph_ABP_MiniMule__162&#45;&gt;ExecuteUbergraph_ABP_MiniMule__176 -->
<g id="edge11" class="edge">
<title>ExecuteUbergraph_ABP_MiniMule__162&#45;&gt;ExecuteUbergraph_ABP_MiniMule__176</title>
<path fill="none" stroke="black" d="M1835,-1008.58C1835,-997.53 1835,-982.67 1835,-967.79"/>
<polygon fill="black" stroke="black" points="1838.5,-967.98 1835,-957.98 1831.5,-967.98 1838.5,-967.98"/>
<text text-anchor="middle" x="1843.5" y="-978.8" font-family="monospace" font-size="14.00">IF</text>
</g>
<!-- ExecuteUbergraph_ABP_MiniMule__162&#45;&gt;ExecuteUbergraph_ABP_MiniMule__482 -->
<g id="edge10" class="edge">
<title>ExecuteUbergraph_ABP_MiniMule__162:e&#45;&gt;ExecuteUbergraph_ABP_MiniMule__482</title>
<path fill="none" stroke="red" d="M2047,-1027.5C2056.21,-1027.5 2048.61,-1015.47 2054,-1008 2095.98,-949.87 2181,-980.2 2181,-908.5 2181,-908.5 2181,-908.5 2181,-102 2181,-63.43 2220.34,-42.94 2258.18,-32.15"/>
<polygon fill="none" stroke="red" points="2259.05,-35.54 2267.83,-29.62 2257.27,-28.77 2259.05,-35.54"/>
<text text-anchor="middle" x="2206" y="-436.8" font-family="monospace" font-size="14.00">IF NOT</text>
</g>
<!-- ExecuteUbergraph_ABP_MiniMule__217 -->
<g id="node13" class="node">
<title>ExecuteUbergraph_ABP_MiniMule__217</title>
<polygon fill="#eeeeee" stroke="black" points="1657.5,-677.5 1657.5,-820.5 2012.5,-820.5 2012.5,-677.5 1657.5,-677.5"/>
<text text-anchor="start" x="1665.5" y="-805.3" font-family="monospace" font-size="14.00">EX_LetBool</text>
<text text-anchor="start" x="1665.5" y="-790.3" font-family="monospace" font-size="14.00">  EX_InstanceVariable [IsRepaired]</text>
<text text-anchor="start" x="1665.5" y="-775.3" font-family="monospace" font-size="14.00">  EX_Context</text>
<text text-anchor="start" x="1665.5" y="-760.3" font-family="monospace" font-size="14.00">    EX_Context</text>
<text text-anchor="start" x="1665.5" y="-745.3" font-family="monospace" font-size="14.00">      EX_InstanceVariable [Mule]</text>
<text text-anchor="start" x="1665.5" y="-730.3" font-family="monospace" font-size="14.00">      EX_InstanceVariable [Repairable]</text>
<text text-anchor="start" x="1665.5" y="-715.3" font-family="monospace" font-size="14.00">      RValue = [Repairable]</text>
<text text-anchor="start" x="1665.5" y="-700.3" font-family="monospace" font-size="14.00">    EX_InstanceVariable [IsFullyRepaired]</text>
<text text-anchor="start" x="1665.5" y="-685.3" font-family="monospace" font-size="14.00">    RValue = [IsFullyRepaired]</text>
</g>
<!-- ExecuteUbergraph_ABP_MiniMule__176&#45;&gt;ExecuteUbergraph_ABP_MiniMule__217 -->
<g id="edge12" class="edge">
<title>ExecuteUbergraph_ABP_MiniMule__176&#45;&gt;ExecuteUbergraph_ABP_MiniMule__217</title>
<path fill="none" stroke="black" d="M1835,-858.69C1835,-850.07 1835,-840.85 1835,-831.58"/>
<polygon fill="black" stroke="black" points="1838.5,-831.78 1835,-821.78 1831.5,-831.78 1838.5,-831.78"/>
</g>
<!-- ExecuteUbergraph_ABP_MiniMule__280 -->
<g id="node14" class="node">
<title>ExecuteUbergraph_ABP_MiniMule__280</title>
<polygon fill="#eeeeee" stroke="black" points="1517.5,-466.5 1517.5,-639.5 2152.5,-639.5 2152.5,-466.5 1517.5,-466.5"/>
<text text-anchor="start" x="1525.5" y="-624.3" font-family="monospace" font-size="14.00">EX_Let</text>
<text text-anchor="start" x="1525.5" y="-609.3" font-family="monospace" font-size="14.00">  EX_LocalVariable [CallFunc_Subtract_FloatFloat_ReturnValue]</text>
<text text-anchor="start" x="1525.5" y="-594.3" font-family="monospace" font-size="14.00">  EX_CallMath import /Script/Engine&#45;&gt;KismetMathLibrary&#45;&gt;Subtract_FloatFloat</text>
<text text-anchor="start" x="1525.5" y="-579.3" font-family="monospace" font-size="14.00">    EX_FloatConst 1</text>
<text text-anchor="start" x="1525.5" y="-564.3" font-family="monospace" font-size="14.00">    EX_Context</text>
<text text-anchor="start" x="1525.5" y="-549.3" font-family="monospace" font-size="14.00">      EX_Context</text>
<text text-anchor="start" x="1525.5" y="-534.3" font-family="monospace" font-size="14.00">        EX_InstanceVariable [Mule]</text>
<text text-anchor="start" x="1525.5" y="-519.3" font-family="monospace" font-size="14.00">        EX_InstanceVariable [UsableRepair]</text>
<text text-anchor="start" x="1525.5" y="-504.3" font-family="monospace" font-size="14.00">        RValue = [UsableRepair]</text>
<text text-anchor="start" x="1525.5" y="-489.3" font-family="monospace" font-size="14.00">      EX_InstanceVariable [Progress]</text>
<text text-anchor="start" x="1525.5" y="-474.3" font-family="monospace" font-size="14.00">      RValue = [Progress]</text>
</g>
<!-- ExecuteUbergraph_ABP_MiniMule__217&#45;&gt;ExecuteUbergraph_ABP_MiniMule__280 -->
<g id="edge13" class="edge">
<title>ExecuteUbergraph_ABP_MiniMule__217&#45;&gt;ExecuteUbergraph_ABP_MiniMule__280</title>
<path fill="none" stroke="black" d="M1835,-677.69C1835,-668.92 1835,-659.84 1835,-650.75"/>
<polygon fill="black" stroke="black" points="1838.5,-650.79 1835,-640.79 1831.5,-650.79 1838.5,-650.79"/>
</g>
<!-- ExecuteUbergraph_ABP_MiniMule__366 -->
<g id="node15" class="node">
<title>ExecuteUbergraph_ABP_MiniMule__366</title>
<polygon fill="#eeeeee" stroke="black" points="1517.5,-331.5 1517.5,-414.5 2152.5,-414.5 2152.5,-331.5 1517.5,-331.5"/>
<text text-anchor="start" x="1525.5" y="-399.3" font-family="monospace" font-size="14.00">EX_Let</text>
<text text-anchor="start" x="1525.5" y="-384.3" font-family="monospace" font-size="14.00">  EX_LocalVariable [CallFunc_Multiply_FloatFloat_ReturnValue]</text>
<text text-anchor="start" x="1525.5" y="-369.3" font-family="monospace" font-size="14.00">  EX_CallMath import /Script/Engine&#45;&gt;KismetMathLibrary&#45;&gt;Multiply_FloatFloat</text>
<text text-anchor="start" x="1525.5" y="-354.3" font-family="monospace" font-size="14.00">    EX_LocalVariable [CallFunc_Subtract_FloatFloat_ReturnValue]</text>
<text text-anchor="start" x="1525.5" y="-339.3" font-family="monospace" font-size="14.00">    EX_FloatConst 90</text>
</g>
<!-- ExecuteUbergraph_ABP_MiniMule__280&#45;&gt;ExecuteUbergraph_ABP_MiniMule__366 -->
<g id="edge14" class="edge">
<title>ExecuteUbergraph_ABP_MiniMule__280&#45;&gt;ExecuteUbergraph_ABP_MiniMule__366</title>
<path fill="none" stroke="black" d="M1835,-466.65C1835,-452.71 1835,-438.66 1835,-425.85"/>
<polygon fill="black" stroke="black" points="1838.5,-426 1835,-416 1831.5,-426 1838.5,-426"/>
</g>
<!-- ExecuteUbergraph_ABP_MiniMule__408 -->
<g id="node16" class="node">
<title>ExecuteUbergraph_ABP_MiniMule__408</title>
<polygon fill="#eeeeee" stroke="black" points="1575.5,-181.5 1575.5,-279.5 2144.5,-279.5 2144.5,-181.5 1575.5,-181.5"/>
<text text-anchor="start" x="1583.5" y="-264.3" font-family="monospace" font-size="14.00">EX_Let</text>
<text text-anchor="start" x="1583.5" y="-249.3" font-family="monospace" font-size="14.00">  EX_LocalVariable [CallFunc_MakeRotator_ReturnValue]</text>
<text text-anchor="start" x="1583.5" y="-234.3" font-family="monospace" font-size="14.00">  EX_CallMath import /Script/Engine&#45;&gt;KismetMathLibrary&#45;&gt;MakeRotator</text>
<text text-anchor="start" x="1583.5" y="-219.3" font-family="monospace" font-size="14.00">    EX_FloatConst 0</text>
<text text-anchor="start" x="1583.5" y="-204.3" font-family="monospace" font-size="14.00">    EX_FloatConst 0</text>
<text text-anchor="start" x="1583.5" y="-189.3" font-family="monospace" font-size="14.00">    EX_LocalVariable [CallFunc_Multiply_FloatFloat_ReturnValue]</text>
</g>
<!-- ExecuteUbergraph_ABP_MiniMule__366&#45;&gt;ExecuteUbergraph_ABP_MiniMule__408 -->
<g id="edge15" class="edge">
<title>ExecuteUbergraph_ABP_MiniMule__366&#45;&gt;ExecuteUbergraph_ABP_MiniMule__408</title>
<path fill="none" stroke="black" d="M1842.16,-331.74C1844.45,-318.88 1847.03,-304.37 1849.51,-290.46"/>
<polygon fill="black" stroke="black" points="1852.89,-291.43 1851.2,-280.97 1846,-290.2 1852.89,-291.43"/>
</g>
<!-- ExecuteUbergraph_ABP_MiniMule__455 -->
<g id="node17" class="node">
<title>ExecuteUbergraph_ABP_MiniMule__455</title>
<polygon fill="#eeeeee" stroke="black" points="1685,-76.5 1685,-129.5 2139,-129.5 2139,-76.5 1685,-76.5"/>
<text text-anchor="start" x="1693" y="-114.3" font-family="monospace" font-size="14.00">EX_Let</text>
<text text-anchor="start" x="1693" y="-99.3" font-family="monospace" font-size="14.00">  EX_InstanceVariable [Progress]</text>
<text text-anchor="start" x="1693" y="-84.3" font-family="monospace" font-size="14.00">  EX_LocalVariable [CallFunc_MakeRotator_ReturnValue]</text>
</g>
<!-- ExecuteUbergraph_ABP_MiniMule__408&#45;&gt;ExecuteUbergraph_ABP_MiniMule__455 -->
<g id="edge16" class="edge">
<title>ExecuteUbergraph_ABP_MiniMule__408&#45;&gt;ExecuteUbergraph_ABP_MiniMule__455</title>
<path fill="none" stroke="black" d="M1879.81,-181.7C1885.59,-167.73 1891.81,-152.72 1897.23,-139.65"/>
<polygon fill="black" stroke="black" points="1900.39,-141.17 1900.98,-130.6 1893.92,-138.49 1900.39,-141.17"/>
</g>
<!-- ExecuteUbergraph_ABP_MiniMule__455&#45;&gt;ExecuteUbergraph_ABP_MiniMule__482 -->
<g id="edge17" class="edge">
<title>ExecuteUbergraph_ABP_MiniMule__455&#45;&gt;ExecuteUbergraph_ABP_MiniMule__482</title>
<path fill="none" stroke="black" d="M2041.6,-76.55C2113.21,-62.49 2199.3,-45.58 2258.07,-34.04"/>
<polygon fill="black" stroke="black" points="2258.46,-37.53 2267.59,-32.17 2257.11,-30.66 2258.46,-37.53"/>
</g>
<!-- ExecuteUbergraph_ABP_MiniMule__484 -->
<g id="node19" class="node">
<title>ExecuteUbergraph_ABP_MiniMule__484</title>
<polygon fill="#eeeeee" stroke="black" points="2438,-1476.5 2438,-1512.5 2570,-1512.5 2570,-1476.5 2438,-1476.5"/>
<text text-anchor="start" x="2446" y="-1490.8" font-family="monospace" font-size="14.00">EX_EndOfScript</text>
</g>
<!-- BlueprintUpdateAnimation -->
<g id="node20" class="node">
<title>BlueprintUpdateAnimation</title>
<polygon fill="#ff8888" stroke="black" points="1266,-1786.5 1266,-1839.5 1736,-1839.5 1736,-1786.5 1266,-1786.5"/>
<text text-anchor="start" x="1274" y="-1824.3" font-family="monospace" font-size="14.00">Function BlueprintUpdateAnimation</text>
<text text-anchor="start" x="1274" y="-1809.3" font-family="monospace" font-size="14.00">  FloatProperty DeltaTimeX</text>
<text text-anchor="start" x="1274" y="-1794.3" font-family="monospace" font-size="14.00">    CPF_BlueprintVisible|CPF_BlueprintReadOnly|CPF_Parm</text>
</g>
<!-- BlueprintUpdateAnimation__0 -->
<g id="node21" class="node">
<title>BlueprintUpdateAnimation__0</title>
<polygon fill="#eeeeee" stroke="black" points="1270,-1397 1270,-1435 1732,-1435 1732,-1397 1270,-1397"/>
<text text-anchor="start" x="1278" y="-1419.8" font-family="monospace" font-size="14.00">EX_LetValueOnPersistentFrame [K2Node_Event_DeltaTimeX]</text>
<text text-anchor="start" x="1278" y="-1404.8" font-family="monospace" font-size="14.00">  EX_LocalVariable [DeltaTimeX]</text>
</g>
<!-- BlueprintUpdateAnimation&#45;&gt;BlueprintUpdateAnimation__0 -->
<g id="edge18" class="edge">
<title>BlueprintUpdateAnimation&#45;&gt;BlueprintUpdateAnimation__0</title>
<path fill="none" stroke="black" d="M1501,-1786.69C1501,-1716.69 1501,-1520.75 1501,-1446.25"/>
<polygon fill="black" stroke="black" points="1504.5,-1446.49 1501,-1436.49 1497.5,-1446.49 1504.5,-1446.49"/>
</g>
<!-- BlueprintUpdateAnimation__18 -->
<g id="node22" class="node">
<title>BlueprintUpdateAnimation__18</title>
<polygon fill="#eeeeee" stroke="black" points="1187.5,-1262.5 1187.5,-1300.5 1814.5,-1300.5 1814.5,-1262.5 1187.5,-1262.5"/>
<text text-anchor="start" x="1195.5" y="-1285.3" font-family="monospace" font-size="14.00">EX_LocalFinalFunction export ABP_MiniMule_C&#45;&gt;ExecuteUbergraph_ABP_MiniMule</text>
<text text-anchor="start" x="1195.5" y="-1270.3" font-family="monospace" font-size="14.00">  EX_IntConst 133</text>
</g>
<!-- BlueprintUpdateAnimation__0&#45;&gt;BlueprintUpdateAnimation__18 -->
<g id="edge19" class="edge">
<title>BlueprintUpdateAnimation__0&#45;&gt;BlueprintUpdateAnimation__18</title>
<path fill="none" stroke="black" d="M1501,-1397.13C1501,-1375.18 1501,-1337.64 1501,-1311.53"/>
<polygon fill="black" stroke="black" points="1504.5,-1311.6 1501,-1301.6 1497.5,-1311.6 1504.5,-1311.6"/>
</g>
<!-- BlueprintUpdateAnimation__18&#45;&gt;ExecuteUbergraph_ABP_MiniMule__133 -->
<g id="edge20" class="edge">
<title>BlueprintUpdateAnimation__18:e&#45;&gt;ExecuteUbergraph_ABP_MiniMule__133</title>
<path fill="none" stroke="red" d="M1816,-1281.5C1850.18,-1281.5 1850.02,-1235.6 1844.53,-1199.2"/>
<polygon fill="none" stroke="red" points="1848.05,-1199.05 1842.93,-1189.77 1841.15,-1200.21 1848.05,-1199.05"/>
</g>
<!-- BlueprintUpdateAnimation__33 -->
<g id="node23" class="node">
<title>BlueprintUpdateAnimation__33</title>
<polygon fill="#eeeeee" stroke="black" points="1424,-1135.5 1424,-1173.5 1540,-1173.5 1540,-1135.5 1424,-1135.5"/>
<text text-anchor="start" x="1432" y="-1158.3" font-family="monospace" font-size="14.00">EX_Return</text>
<text text-anchor="start" x="1432" y="-1143.3" font-family="monospace" font-size="14.00">  EX_Nothing</text>
</g>
<!-- BlueprintUpdateAnimation__18&#45;&gt;BlueprintUpdateAnimation__33 -->
<g id="edge21" class="edge">
<title>BlueprintUpdateAnimation__18&#45;&gt;BlueprintUpdateAnimation__33</title>
<path fill="none" stroke="black" d="M1498.28,-1262.59C1495.19,-1242.26 1490.1,-1208.8 1486.44,-1184.69"/>
<polygon fill="black" stroke="black" points="1489.91,-1184.23 1484.94,-1174.87 1482.99,-1185.29 1489.91,-1184.23"/>
</g>
<!-- BlueprintUpdateAnimation__35 -->
<g id="node24" class="node">
<title>BlueprintUpdateAnimation__35</title>
<polygon fill="#eeeeee" stroke="black" points="2438,-1319.5 2438,-1355.5 2570,-1355.5 2570,-1319.5 2438,-1319.5"/>
<text text-anchor="start" x="2446" y="-1333.8" font-family="monospace" font-size="14.00">EX_EndOfScript</text>
</g>
<!-- BlueprintBeginPlay -->
<g id="node25" class="node">
<title>BlueprintBeginPlay</title>
<polygon fill="#ff8888" stroke="black" points="2257.5,-1795 2257.5,-1831 2496.5,-1831 2496.5,-1795 2257.5,-1795"/>
<text text-anchor="start" x="2265.5" y="-1809.3" font-family="monospace" font-size="14.00">Function BlueprintBeginPlay</text>
</g>
<!-- BlueprintBeginPlay__0 -->
<g id="node26" class="node">
<title>BlueprintBeginPlay__0</title>
<polygon fill="#eeeeee" stroke="black" points="2063.5,-1008.5 2063.5,-1046.5 2690.5,-1046.5 2690.5,-1008.5 2063.5,-1008.5"/>
<text text-anchor="start" x="2071.5" y="-1031.3" font-family="monospace" font-size="14.00">EX_LocalFinalFunction export ABP_MiniMule_C&#45;&gt;ExecuteUbergraph_ABP_MiniMule</text>
<text text-anchor="start" x="2071.5" y="-1016.3" font-family="monospace" font-size="14.00">  EX_IntConst 10</text>
</g>
<!-- BlueprintBeginPlay&#45;&gt;BlueprintBeginPlay__0 -->
<g id="edge22" class="edge">
<title>BlueprintBeginPlay&#45;&gt;BlueprintBeginPlay__0</title>
<path fill="none" stroke="black" d="M2377,-1795.06C2377,-1740.35 2377,-1563.41 2377,-1417 2377,-1417 2377,-1417 2377,-1153.5 2377,-1120.68 2377,-1083.01 2377,-1057.67"/>
<polygon fill="black" stroke="black" points="2380.5,-1057.82 2377,-1047.82 2373.5,-1057.82 2380.5,-1057.82"/>
</g>
<!-- BlueprintBeginPlay__0&#45;&gt;ExecuteUbergraph_ABP_MiniMule__10 -->
<g id="edge23" class="edge">
<title>BlueprintBeginPlay__0:e&#45;&gt;ExecuteUbergraph_ABP_MiniMule__10</title>
<path fill="none" stroke="red" d="M2692,-1027.5C2725.56,-1027.5 2716.13,-979.6 2704.75,-944.58"/>
<polygon fill="none" stroke="red" points="2708.08,-943.5 2701.54,-935.17 2701.46,-945.76 2708.08,-943.5"/>
</g>
<!-- BlueprintBeginPlay__15 -->
<g id="node27" class="node">
<title>BlueprintBeginPlay__15</title>
<polygon fill="#eeeeee" stroke="black" points="2260,-888.5 2260,-926.5 2376,-926.5 2376,-888.5 2260,-888.5"/>
<text text-anchor="start" x="2268" y="-911.3" font-family="monospace" font-size="14.00">EX_Return</text>
<text text-anchor="start" x="2268" y="-896.3" font-family="monospace" font-size="14.00">  EX_Nothing</text>
</g>
<!-- BlueprintBeginPlay__0&#45;&gt;BlueprintBeginPlay__15 -->
<g id="edge24" class="edge">
<title>BlueprintBeginPlay__0&#45;&gt;BlueprintBeginPlay__15</title>
<path fill="none" stroke="black" d="M2368.04,-1008.58C2358.45,-989.41 2343.13,-958.75 2331.96,-936.41"/>
<polygon fill="black" stroke="black" points="2335.13,-934.94 2327.53,-927.56 2328.87,-938.07 2335.13,-934.94"/>
</g>
<!-- BlueprintBeginPlay__17 -->
<g id="node28" class="node">
<title>BlueprintBeginPlay__17</title>
<polygon fill="#eeeeee" stroke="black" points="2392,-1207.5 2392,-1243.5 2524,-1243.5 2524,-1207.5 2392,-1207.5"/>
<text text-anchor="start" x="2400" y="-1221.8" font-family="monospace" font-size="14.00">EX_EndOfScript</text>
</g>
<!-- AnimGraph -->
<g id="node29" class="node">
<title>AnimGraph</title>
<polygon fill="#ff8888" stroke="black" points="2514.5,-1786.5 2514.5,-1839.5 2745.5,-1839.5 2745.5,-1786.5 2514.5,-1786.5"/>
<text text-anchor="start" x="2522.5" y="-1824.3" font-family="monospace" font-size="14.00">Function AnimGraph</text>
<text text-anchor="start" x="2522.5" y="-1809.3" font-family="monospace" font-size="14.00">  StructProperty AnimGraph</text>
<text text-anchor="start" x="2522.5" y="-1794.3" font-family="monospace" font-size="14.00">    CPF_Parm|CPF_OutParm</text>
</g>
<!-- AnimGraph__0 -->
<g id="node30" class="node">
<title>AnimGraph__0</title>
<polygon fill="#eeeeee" stroke="black" points="2423.5,-1374.5 2423.5,-1457.5 2836.5,-1457.5 2836.5,-1374.5 2423.5,-1374.5"/>
<text text-anchor="start" x="2431.5" y="-1442.3" font-family="monospace" font-size="14.00">EX_Let</text>
<text text-anchor="start" x="2431.5" y="-1427.3" font-family="monospace" font-size="14.00">  EX_LocalOutVariable</text>
<text text-anchor="start" x="2431.5" y="-1412.3" font-family="monospace" font-size="14.00">    [AnimGraph]</text>
<text text-anchor="start" x="2431.5" y="-1397.3" font-family="monospace" font-size="14.00">  EX_StructConst import /Script/Engine&#45;&gt;PoseLink</text>
<text text-anchor="start" x="2431.5" y="-1382.3" font-family="monospace" font-size="14.00">    EX_IntConst &#45;1</text>
</g>
<!-- AnimGraph&#45;&gt;AnimGraph__0 -->
<g id="edge25" class="edge">
<title>AnimGraph&#45;&gt;AnimGraph__0</title>
<path fill="none" stroke="black" d="M2630,-1786.69C2630,-1722.88 2630,-1554.41 2630,-1468.68"/>
<polygon fill="black" stroke="black" points="2633.5,-1468.92 2630,-1458.92 2626.5,-1468.92 2633.5,-1468.92"/>
</g>
<!-- AnimGraph__37 -->
<g id="node31" class="node">
<title>AnimGraph__37</title>
<polygon fill="#eeeeee" stroke="black" points="2572,-1262.5 2572,-1300.5 2688,-1300.5 2688,-1262.5 2572,-1262.5"/>
<text text-anchor="start" x="2580" y="-1285.3" font-family="monospace" font-size="14.00">EX_Return</text>
<text text-anchor="start" x="2580" y="-1270.3" font-family="monospace" font-size="14.00">  EX_Nothing</text>
</g>
<!-- AnimGraph__0&#45;&gt;AnimGraph__37 -->
<g id="edge26" class="edge">
<title>AnimGraph__0&#45;&gt;AnimGraph__37</title>
<path fill="none" stroke="black" d="M2630,-1374.53C2630,-1354.27 2630,-1330.21 2630,-1311.77"/>
<polygon fill="black" stroke="black" points="2633.5,-1311.8 2630,-1301.8 2626.5,-1311.8 2633.5,-1311.8"/>
</g>
<!-- AnimGraph__39 -->
<g id="node32" class="node">
<title>AnimGraph__39</title>
<polygon fill="#eeeeee" stroke="black" points="2392,-1065.5 2392,-1101.5 2524,-1101.5 2524,-1065.5 2392,-1065.5"/>
<text text-anchor="start" x="2400" y="-1079.8" font-family="monospace" font-size="14.00">EX_EndOfScript</text>
</g>
</g>
</svg>
