<?xml version="1.0" encoding="UTF-8" standalone="no"?>
<!DOCTYPE svg PUBLIC "-//W3C//DTD SVG 1.1//EN"
 "http://www.w3.org/Graphics/SVG/1.1/DTD/svg11.dtd">
<!-- Generated by graphviz version 7.0.1 (0)
 -->
<!-- Pages: 1 -->
<svg width="2770pt" height="1497pt"
 viewBox="0.00 0.00 2769.50 1497.00" xmlns="http://www.w3.org/2000/svg" xmlns:xlink="http://www.w3.org/1999/xlink">
<g id="graph0" class="graph" transform="scale(1 1) rotate(0) translate(4 1493)">
<polygon fill="white" stroke="none" points="-4,4 -4,-1493 2765.5,-1493 2765.5,4 -4,4"/>
<!-- AIC_MiniMule_C -->
<g id="node1" class="node">
<title>AIC_MiniMule_C</title>
<polygon fill="#88ff88" stroke="black" points="0,-1345.5 0,-1428.5 429,-1428.5 429,-1345.5 0,-1345.5"/>
<text text-anchor="start" x="8" y="-1413.3" font-family="monospace" font-size="14.00">ClassExport: AIC_MiniMule_C</text>
<text text-anchor="start" x="8" y="-1398.3" font-family="monospace" font-size="14.00">  SuperStruct: import /Script/FSD&#45;&gt;FSDAIController</text>
<text text-anchor="start" x="8" y="-1383.3" font-family="monospace" font-size="14.00">  Properties:</text>
<text text-anchor="start" x="8" y="-1368.3" font-family="monospace" font-size="14.00">    StructProperty UberGraphFrame</text>
<text text-anchor="start" x="8" y="-1353.3" font-family="monospace" font-size="14.00">      CPF_Transient|CPF_DuplicateTransient</text>
</g>
<!-- ExecuteUbergraph_AIC_MiniMule -->
<g id="node2" class="node">
<title>ExecuteUbergraph_AIC_MiniMule</title>
<polygon fill="#ff8888" stroke="black" points="447,-1285.5 447,-1488.5 934,-1488.5 934,-1285.5 447,-1285.5"/>
<text text-anchor="start" x="455" y="-1473.3" font-family="monospace" font-size="14.00">Function ExecuteUbergraph_AIC_MiniMule</text>
<text text-anchor="start" x="455" y="-1458.3" font-family="monospace" font-size="14.00">  IntProperty EntryPoint</text>
<text text-anchor="start" x="455" y="-1443.3" font-family="monospace" font-size="14.00">    CPF_BlueprintVisible|CPF_BlueprintReadOnly|CPF_Parm</text>
<text text-anchor="start" x="455" y="-1428.3" font-family="monospace" font-size="14.00">  NameProperty CallFunc_MakeLiteralName_ReturnValue</text>
<text text-anchor="start" x="455" y="-1413.3" font-family="monospace" font-size="14.00">  BoolProperty CallFunc_HasAuthority_ReturnValue</text>
<text text-anchor="start" x="455" y="-1398.3" font-family="monospace" font-size="14.00">  DelegateProperty K2Node_CreateDelegate_OutputDelegate</text>
<text text-anchor="start" x="455" y="-1383.3" font-family="monospace" font-size="14.00">  StructProperty CallFunc_K2_SetTimerDelegate_ReturnValue</text>
<text text-anchor="start" x="455" y="-1368.3" font-family="monospace" font-size="14.00">  BoolProperty CallFunc_RunBehaviorTree_ReturnValue</text>
<text text-anchor="start" x="455" y="-1353.3" font-family="monospace" font-size="14.00">  ObjectProperty CallFunc_GetFSDGameInstance_ReturnValue</text>
<text text-anchor="start" x="455" y="-1338.3" font-family="monospace" font-size="14.00">  ObjectProperty CallFunc_GetBlackboard_ReturnValue</text>
<text text-anchor="start" x="455" y="-1323.3" font-family="monospace" font-size="14.00">    CPF_InstancedReference</text>
<text text-anchor="start" x="455" y="-1308.3" font-family="monospace" font-size="14.00">  BoolProperty CallFunc_IsValid_ReturnValue</text>
<text text-anchor="start" x="455" y="-1293.3" font-family="monospace" font-size="14.00">  StructProperty CallFunc_K2_GetActorLocation_ReturnValue</text>
</g>
<!-- ExecuteUbergraph_AIC_MiniMule__0 -->
<g id="node3" class="node">
<title>ExecuteUbergraph_AIC_MiniMule__0</title>
<polygon fill="#eeeeee" stroke="black" points="554.5,-1173.5 554.5,-1211.5 826.5,-1211.5 826.5,-1173.5 554.5,-1173.5"/>
<text text-anchor="start" x="562.5" y="-1196.3" font-family="monospace" font-size="14.00">EX_ComputedJump</text>
<text text-anchor="start" x="562.5" y="-1181.3" font-family="monospace" font-size="14.00">  EX_LocalVariable [EntryPoint]</text>
</g>
<!-- ExecuteUbergraph_AIC_MiniMule&#45;&gt;ExecuteUbergraph_AIC_MiniMule__0 -->
<g id="edge1" class="edge">
<title>ExecuteUbergraph_AIC_MiniMule&#45;&gt;ExecuteUbergraph_AIC_MiniMule__0</title>
<path fill="none" stroke="black" d="M690.5,-1285.52C690.5,-1262.49 690.5,-1239.78 690.5,-1222.68"/>
<polygon fill="black" stroke="black" points="694,-1222.81 690.5,-1212.81 687,-1222.81 694,-1222.81"/>
</g>
<!-- ExecuteUbergraph_AIC_MiniMule__10 -->
<g id="node4" class="node">
<title>ExecuteUbergraph_AIC_MiniMule__10</title>
<polygon fill="#eeeeee" stroke="black" points="2220.5,-753.5 2220.5,-806.5 2740.5,-806.5 2740.5,-753.5 2220.5,-753.5"/>
<text text-anchor="start" x="2228.5" y="-791.3" font-family="monospace" font-size="14.00">EX_LetBool</text>
<text text-anchor="start" x="2228.5" y="-776.3" font-family="monospace" font-size="14.00">  EX_LocalVariable [CallFunc_HasAuthority_ReturnValue]</text>
<text text-anchor="start" x="2228.5" y="-761.3" font-family="monospace" font-size="14.00">  EX_FinalFunction import /Script/Engine&#45;&gt;Actor&#45;&gt;HasAuthority</text>
</g>
<!-- ExecuteUbergraph_AIC_MiniMule__30 -->
<g id="node5" class="node">
<title>ExecuteUbergraph_AIC_MiniMule__30</title>
<polygon fill="#eeeeee" stroke="black" points="2249.5,-648.5 2249.5,-686.5 2711.5,-686.5 2711.5,-648.5 2249.5,-648.5"/>
<text text-anchor="start" x="2257.5" y="-671.3" font-family="monospace" font-size="14.00">EX_JumpIfNot 454</text>
<text text-anchor="start" x="2257.5" y="-656.3" font-family="monospace" font-size="14.00">  EX_LocalVariable [CallFunc_HasAuthority_ReturnValue]</text>
</g>
<!-- ExecuteUbergraph_AIC_MiniMule__10&#45;&gt;ExecuteUbergraph_AIC_MiniMule__30 -->
<g id="edge2" class="edge">
<title>ExecuteUbergraph_AIC_MiniMule__10&#45;&gt;ExecuteUbergraph_AIC_MiniMule__30</title>
<path fill="none" stroke="black" d="M2480.5,-753.65C2480.5,-737.06 2480.5,-715.32 2480.5,-697.96"/>
<polygon fill="black" stroke="black" points="2484,-698.01 2480.5,-688.01 2477,-698.01 2484,-698.01"/>
</g>
<!-- ExecuteUbergraph_AIC_MiniMule__44 -->
<g id="node6" class="node">
<title>ExecuteUbergraph_AIC_MiniMule__44</title>
<polygon fill="#eeeeee" stroke="black" points="1940,-513.5 1940,-581.5 2683,-581.5 2683,-513.5 1940,-513.5"/>
<text text-anchor="start" x="1948" y="-566.3" font-family="monospace" font-size="14.00">EX_LetBool</text>
<text text-anchor="start" x="1948" y="-551.3" font-family="monospace" font-size="14.00">  EX_LocalVariable [CallFunc_RunBehaviorTree_ReturnValue]</text>
<text text-anchor="start" x="1948" y="-536.3" font-family="monospace" font-size="14.00">  EX_VirtualFunction RunBehaviorTree</text>
<text text-anchor="start" x="1948" y="-521.3" font-family="monospace" font-size="14.00">    EX_ObjectConst import /Game/GameElements/Objectives/Salvage/BT_MiniMule&#45;&gt;BT_MiniMule</text>
</g>
<!-- ExecuteUbergraph_AIC_MiniMule__30&#45;&gt;ExecuteUbergraph_AIC_MiniMule__44 -->
<g id="edge4" class="edge">
<title>ExecuteUbergraph_AIC_MiniMule__30&#45;&gt;ExecuteUbergraph_AIC_MiniMule__44</title>
<path fill="none" stroke="black" d="M2454.83,-648.58C2431.84,-632.52 2397.3,-608.41 2367.89,-587.87"/>
<polygon fill="black" stroke="black" points="2369.98,-585.07 2359.78,-582.21 2365.98,-590.81 2369.98,-585.07"/>
<text text-anchor="middle" x="2414" y="-603.8" font-family="monospace" font-size="14.00">IF</text>
</g>
<!-- ExecuteUbergraph_AIC_MiniMule__454 -->
<g id="node19" class="node">
<title>ExecuteUbergraph_AIC_MiniMule__454</title>
<polygon fill="#eeeeee" stroke="black" points="2053.5,-0.5 2053.5,-38.5 2169.5,-38.5 2169.5,-0.5 2053.5,-0.5"/>
<text text-anchor="start" x="2061.5" y="-23.3" font-family="monospace" font-size="14.00">EX_Return</text>
<text text-anchor="start" x="2061.5" y="-8.3" font-family="monospace" font-size="14.00">  EX_Nothing</text>
</g>
<!-- ExecuteUbergraph_AIC_MiniMule__30&#45;&gt;ExecuteUbergraph_AIC_MiniMule__454 -->
<g id="edge3" class="edge">
<title>ExecuteUbergraph_AIC_MiniMule__30:e&#45;&gt;ExecuteUbergraph_AIC_MiniMule__454</title>
<path fill="none" stroke="red" d="M2712.5,-667.5C2765.39,-667.5 2711.5,-601.39 2711.5,-548.5 2711.5,-548.5 2711.5,-548.5 2711.5,-124.5 2711.5,-71.16 2338.58,-37.28 2180.74,-25.33"/>
<polygon fill="none" stroke="red" points="2181.05,-21.85 2170.81,-24.59 2180.52,-28.83 2181.05,-21.85"/>
<text text-anchor="middle" x="2736.5" y="-377.8" font-family="monospace" font-size="14.00">IF NOT</text>
</g>
<!-- ExecuteUbergraph_AIC_MiniMule__77 -->
<g id="node7" class="node">
<title>ExecuteUbergraph_AIC_MiniMule__77</title>
<polygon fill="#eeeeee" stroke="black" points="2051,-415 2051,-468 2538,-468 2538,-415 2051,-415"/>
<text text-anchor="start" x="2059" y="-452.8" font-family="monospace" font-size="14.00">EX_BindDelegate CustomEvent_0</text>
<text text-anchor="start" x="2059" y="-437.8" font-family="monospace" font-size="14.00">  EX_LocalVariable [K2Node_CreateDelegate_OutputDelegate]</text>
<text text-anchor="start" x="2059" y="-422.8" font-family="monospace" font-size="14.00">  EX_Self</text>
</g>
<!-- ExecuteUbergraph_AIC_MiniMule__44&#45;&gt;ExecuteUbergraph_AIC_MiniMule__77 -->
<g id="edge5" class="edge">
<title>ExecuteUbergraph_AIC_MiniMule__44&#45;&gt;ExecuteUbergraph_AIC_MiniMule__77</title>
<path fill="none" stroke="black" d="M2306.12,-513.59C2304.33,-502.64 2302.33,-490.37 2300.49,-479.16"/>
<polygon fill="black" stroke="black" points="2303.97,-478.74 2298.9,-469.43 2297.06,-479.87 2303.97,-478.74"/>
</g>
<!-- ExecuteUbergraph_AIC_MiniMule__100 -->
<g id="node8" class="node">
<title>ExecuteUbergraph_AIC_MiniMule__100</title>
<polygon fill="#eeeeee" stroke="black" points="1942.5,-220 1942.5,-348 2594.5,-348 2594.5,-220 1942.5,-220"/>
<text text-anchor="start" x="1950.5" y="-332.8" font-family="monospace" font-size="14.00">EX_Let</text>
<text text-anchor="start" x="1950.5" y="-317.8" font-family="monospace" font-size="14.00">  EX_LocalVariable [CallFunc_K2_SetTimerDelegate_ReturnValue]</text>
<text text-anchor="start" x="1950.5" y="-302.8" font-family="monospace" font-size="14.00">  EX_CallMath import /Script/Engine&#45;&gt;KismetSystemLibrary&#45;&gt;K2_SetTimerDelegate</text>
<text text-anchor="start" x="1950.5" y="-287.8" font-family="monospace" font-size="14.00">    EX_LocalVariable [K2Node_CreateDelegate_OutputDelegate]</text>
<text text-anchor="start" x="1950.5" y="-272.8" font-family="monospace" font-size="14.00">    EX_FloatConst 1</text>
<text text-anchor="start" x="1950.5" y="-257.8" font-family="monospace" font-size="14.00">    EX_True</text>
<text text-anchor="start" x="1950.5" y="-242.8" font-family="monospace" font-size="14.00">    EX_FloatConst 0</text>
<text text-anchor="start" x="1950.5" y="-227.8" font-family="monospace" font-size="14.00">    EX_FloatConst 0</text>
</g>
<!-- ExecuteUbergraph_AIC_MiniMule__77&#45;&gt;ExecuteUbergraph_AIC_MiniMule__100 -->
<g id="edge6" class="edge">
<title>ExecuteUbergraph_AIC_MiniMule__77&#45;&gt;ExecuteUbergraph_AIC_MiniMule__100</title>
<path fill="none" stroke="black" d="M2290.26,-415.17C2287.69,-399.78 2284.26,-379.25 2280.88,-359.06"/>
<polygon fill="black" stroke="black" points="2284.37,-358.69 2279.27,-349.4 2277.47,-359.84 2284.37,-358.69"/>
</g>
<!-- ExecuteUbergraph_AIC_MiniMule__153 -->
<g id="node9" class="node">
<title>ExecuteUbergraph_AIC_MiniMule__153</title>
<polygon fill="#eeeeee" stroke="black" points="2162,-107.5 2162,-143.5 2269,-143.5 2269,-107.5 2162,-107.5"/>
<text text-anchor="start" x="2170" y="-121.8" font-family="monospace" font-size="14.00">EX_Jump 454</text>
</g>
<!-- ExecuteUbergraph_AIC_MiniMule__100&#45;&gt;ExecuteUbergraph_AIC_MiniMule__153 -->
<g id="edge7" class="edge">
<title>ExecuteUbergraph_AIC_MiniMule__100&#45;&gt;ExecuteUbergraph_AIC_MiniMule__153</title>
<path fill="none" stroke="black" d="M2247.25,-220.25C2239.46,-197.26 2231.05,-172.41 2224.84,-154.07"/>
<polygon fill="black" stroke="black" points="2228.2,-153.1 2221.68,-144.75 2221.57,-155.34 2228.2,-153.1"/>
</g>
<!-- ExecuteUbergraph_AIC_MiniMule__153&#45;&gt;ExecuteUbergraph_AIC_MiniMule__454 -->
<g id="edge8" class="edge">
<title>ExecuteUbergraph_AIC_MiniMule__153&#45;&gt;ExecuteUbergraph_AIC_MiniMule__454</title>
<path fill="none" stroke="black" d="M2198.79,-107.79C2182.18,-91.18 2156.49,-65.49 2137.27,-46.27"/>
<polygon fill="black" stroke="black" points="2139.83,-43.88 2130.28,-39.28 2134.88,-48.83 2139.83,-43.88"/>
</g>
<!-- ExecuteUbergraph_AIC_MiniMule__158 -->
<g id="node10" class="node">
<title>ExecuteUbergraph_AIC_MiniMule__158</title>
<polygon fill="#eeeeee" stroke="black" points="2431,-883 2431,-919 2530,-919 2530,-883 2431,-883"/>
<text text-anchor="start" x="2439" y="-897.3" font-family="monospace" font-size="14.00">EX_Jump 10</text>
</g>
<!-- ExecuteUbergraph_AIC_MiniMule__158&#45;&gt;ExecuteUbergraph_AIC_MiniMule__10 -->
<g id="edge9" class="edge">
<title>ExecuteUbergraph_AIC_MiniMule__158&#45;&gt;ExecuteUbergraph_AIC_MiniMule__10</title>
<path fill="none" stroke="black" d="M2480.5,-883.2C2480.5,-866.26 2480.5,-839.55 2480.5,-817.69"/>
<polygon fill="black" stroke="black" points="2484,-817.96 2480.5,-807.96 2477,-817.96 2484,-817.96"/>
</g>
<!-- ExecuteUbergraph_AIC_MiniMule__163 -->
<g id="node11" class="node">
<title>ExecuteUbergraph_AIC_MiniMule__163</title>
<polygon fill="#eeeeee" stroke="black" points="1217,-1031.5 1217,-1099.5 1836,-1099.5 1836,-1031.5 1217,-1031.5"/>
<text text-anchor="start" x="1225" y="-1084.3" font-family="monospace" font-size="14.00">EX_LetObj</text>
<text text-anchor="start" x="1225" y="-1069.3" font-family="monospace" font-size="14.00">  EX_LocalVariable [CallFunc_GetFSDGameInstance_ReturnValue]</text>
<text text-anchor="start" x="1225" y="-1054.3" font-family="monospace" font-size="14.00">  EX_CallMath import /Script/FSD&#45;&gt;GameFunctionLibrary&#45;&gt;GetFSDGameInstance</text>
<text text-anchor="start" x="1225" y="-1039.3" font-family="monospace" font-size="14.00">    EX_Self</text>
</g>
<!-- ExecuteUbergraph_AIC_MiniMule__184 -->
<g id="node12" class="node">
<title>ExecuteUbergraph_AIC_MiniMule__184</title>
<polygon fill="#eeeeee" stroke="black" points="1261,-844.5 1261,-957.5 1814,-957.5 1814,-844.5 1261,-844.5"/>
<text text-anchor="start" x="1269" y="-942.3" font-family="monospace" font-size="14.00">EX_LetBool</text>
<text text-anchor="start" x="1269" y="-927.3" font-family="monospace" font-size="14.00">  EX_LocalVariable [CallFunc_IsValid_ReturnValue]</text>
<text text-anchor="start" x="1269" y="-912.3" font-family="monospace" font-size="14.00">  EX_CallMath import /Script/Engine&#45;&gt;KismetSystemLibrary&#45;&gt;IsValid</text>
<text text-anchor="start" x="1269" y="-897.3" font-family="monospace" font-size="14.00">    EX_Context</text>
<text text-anchor="start" x="1269" y="-882.3" font-family="monospace" font-size="14.00">      EX_LocalVariable [CallFunc_GetFSDGameInstance_ReturnValue]</text>
<text text-anchor="start" x="1269" y="-867.3" font-family="monospace" font-size="14.00">      EX_InstanceVariable [Donkey]</text>
<text text-anchor="start" x="1269" y="-852.3" font-family="monospace" font-size="14.00">      RValue = [Donkey]</text>
</g>
<!-- ExecuteUbergraph_AIC_MiniMule__163&#45;&gt;ExecuteUbergraph_AIC_MiniMule__184 -->
<g id="edge10" class="edge">
<title>ExecuteUbergraph_AIC_MiniMule__163&#45;&gt;ExecuteUbergraph_AIC_MiniMule__184</title>
<path fill="none" stroke="black" d="M1528.73,-1031.62C1529.96,-1013.45 1531.53,-990.22 1533,-968.45"/>
<polygon fill="black" stroke="black" points="1536.48,-968.96 1533.66,-958.74 1529.49,-968.49 1536.48,-968.96"/>
</g>
<!-- ExecuteUbergraph_AIC_MiniMule__235 -->
<g id="node13" class="node">
<title>ExecuteUbergraph_AIC_MiniMule__235</title>
<polygon fill="#eeeeee" stroke="black" points="1330,-761 1330,-799 1751,-799 1751,-761 1330,-761"/>
<text text-anchor="start" x="1338" y="-783.8" font-family="monospace" font-size="14.00">EX_JumpIfNot 454</text>
<text text-anchor="start" x="1338" y="-768.8" font-family="monospace" font-size="14.00">  EX_LocalVariable [CallFunc_IsValid_ReturnValue]</text>
</g>
<!-- ExecuteUbergraph_AIC_MiniMule__184&#45;&gt;ExecuteUbergraph_AIC_MiniMule__235 -->
<g id="edge11" class="edge">
<title>ExecuteUbergraph_AIC_MiniMule__184&#45;&gt;ExecuteUbergraph_AIC_MiniMule__235</title>
<path fill="none" stroke="black" d="M1538.89,-844.68C1539.19,-832.81 1539.5,-820.73 1539.76,-810.31"/>
<polygon fill="black" stroke="black" points="1543.26,-810.57 1540.01,-800.49 1536.26,-810.4 1543.26,-810.57"/>
</g>
<!-- ExecuteUbergraph_AIC_MiniMule__249 -->
<g id="node14" class="node">
<title>ExecuteUbergraph_AIC_MiniMule__249</title>
<polygon fill="#eeeeee" stroke="black" points="1231,-633.5 1231,-701.5 1850,-701.5 1850,-633.5 1231,-633.5"/>
<text text-anchor="start" x="1239" y="-686.3" font-family="monospace" font-size="14.00">EX_Let</text>
<text text-anchor="start" x="1239" y="-671.3" font-family="monospace" font-size="14.00">  EX_LocalVariable [CallFunc_MakeLiteralName_ReturnValue]</text>
<text text-anchor="start" x="1239" y="-656.3" font-family="monospace" font-size="14.00">  EX_CallMath import /Script/Engine&#45;&gt;KismetSystemLibrary&#45;&gt;MakeLiteralName</text>
<text text-anchor="start" x="1239" y="-641.3" font-family="monospace" font-size="14.00">    EX_NameConst MollyLocation</text>
</g>
<!-- ExecuteUbergraph_AIC_MiniMule__235&#45;&gt;ExecuteUbergraph_AIC_MiniMule__249 -->
<g id="edge13" class="edge">
<title>ExecuteUbergraph_AIC_MiniMule__235&#45;&gt;ExecuteUbergraph_AIC_MiniMule__249</title>
<path fill="none" stroke="black" d="M1540.5,-761.25C1540.5,-748.16 1540.5,-729.76 1540.5,-712.8"/>
<polygon fill="black" stroke="black" points="1544,-712.88 1540.5,-702.88 1537,-712.88 1544,-712.88"/>
<text text-anchor="middle" x="1549" y="-723.8" font-family="monospace" font-size="14.00">IF</text>
</g>
<!-- ExecuteUbergraph_AIC_MiniMule__235&#45;&gt;ExecuteUbergraph_AIC_MiniMule__454 -->
<g id="edge12" class="edge">
<title>ExecuteUbergraph_AIC_MiniMule__235:e&#45;&gt;ExecuteUbergraph_AIC_MiniMule__454</title>
<path fill="none" stroke="red" d="M1752.5,-780C1838.81,-780 1911.5,-754.81 1911.5,-668.5 1911.5,-668.5 1911.5,-668.5 1911.5,-124.5 1911.5,-63.96 1984.52,-38.61 2042.32,-28.03"/>
<polygon fill="none" stroke="red" points="2042.89,-31.48 2052.16,-26.36 2041.71,-24.58 2042.89,-31.48"/>
<text text-anchor="middle" x="1936.5" y="-437.8" font-family="monospace" font-size="14.00">IF NOT</text>
</g>
<!-- ExecuteUbergraph_AIC_MiniMule__290 -->
<g id="node15" class="node">
<title>ExecuteUbergraph_AIC_MiniMule__290</title>
<polygon fill="#eeeeee" stroke="black" points="1231,-513.5 1231,-581.5 1850,-581.5 1850,-513.5 1231,-513.5"/>
<text text-anchor="start" x="1239" y="-566.3" font-family="monospace" font-size="14.00">EX_LetObj</text>
<text text-anchor="start" x="1239" y="-551.3" font-family="monospace" font-size="14.00">  EX_LocalVariable [CallFunc_GetFSDGameInstance_ReturnValue]</text>
<text text-anchor="start" x="1239" y="-536.3" font-family="monospace" font-size="14.00">  EX_CallMath import /Script/FSD&#45;&gt;GameFunctionLibrary&#45;&gt;GetFSDGameInstance</text>
<text text-anchor="start" x="1239" y="-521.3" font-family="monospace" font-size="14.00">    EX_Self</text>
</g>
<!-- ExecuteUbergraph_AIC_MiniMule__249&#45;&gt;ExecuteUbergraph_AIC_MiniMule__290 -->
<g id="edge14" class="edge">
<title>ExecuteUbergraph_AIC_MiniMule__249&#45;&gt;ExecuteUbergraph_AIC_MiniMule__290</title>
<path fill="none" stroke="black" d="M1540.5,-633.63C1540.5,-620.84 1540.5,-606.01 1540.5,-592.33"/>
<polygon fill="black" stroke="black" points="1544,-592.71 1540.5,-582.71 1537,-592.71 1544,-592.71"/>
</g>
<!-- ExecuteUbergraph_AIC_MiniMule__311 -->
<g id="node16" class="node">
<title>ExecuteUbergraph_AIC_MiniMule__311</title>
<polygon fill="#eeeeee" stroke="black" points="1210.5,-407.5 1210.5,-475.5 1870.5,-475.5 1870.5,-407.5 1210.5,-407.5"/>
<text text-anchor="start" x="1218.5" y="-460.3" font-family="monospace" font-size="14.00">EX_LetObj</text>
<text text-anchor="start" x="1218.5" y="-445.3" font-family="monospace" font-size="14.00">  EX_LocalVariable [CallFunc_GetBlackboard_ReturnValue]</text>
<text text-anchor="start" x="1218.5" y="-430.3" font-family="monospace" font-size="14.00">  EX_CallMath import /Script/AIModule&#45;&gt;AIBlueprintHelperLibrary&#45;&gt;GetBlackboard</text>
<text text-anchor="start" x="1218.5" y="-415.3" font-family="monospace" font-size="14.00">    EX_Self</text>
</g>
<!-- ExecuteUbergraph_AIC_MiniMule__290&#45;&gt;ExecuteUbergraph_AIC_MiniMule__311 -->
<g id="edge15" class="edge">
<title>ExecuteUbergraph_AIC_MiniMule__290&#45;&gt;ExecuteUbergraph_AIC_MiniMule__311</title>
<path fill="none" stroke="black" d="M1540.5,-513.59C1540.5,-504.97 1540.5,-495.54 1540.5,-486.45"/>
<polygon fill="black" stroke="black" points="1544,-486.71 1540.5,-476.71 1537,-486.71 1544,-486.71"/>
</g>
<!-- ExecuteUbergraph_AIC_MiniMule__332 -->
<g id="node17" class="node">
<title>ExecuteUbergraph_AIC_MiniMule__332</title>
<polygon fill="#eeeeee" stroke="black" points="1243.5,-212.5 1243.5,-355.5 1837.5,-355.5 1837.5,-212.5 1243.5,-212.5"/>
<text text-anchor="start" x="1251.5" y="-340.3" font-family="monospace" font-size="14.00">EX_Let</text>
<text text-anchor="start" x="1251.5" y="-325.3" font-family="monospace" font-size="14.00">  EX_LocalVariable [CallFunc_K2_GetActorLocation_ReturnValue]</text>
<text text-anchor="start" x="1251.5" y="-310.3" font-family="monospace" font-size="14.00">  EX_Context</text>
<text text-anchor="start" x="1251.5" y="-295.3" font-family="monospace" font-size="14.00">    EX_Context</text>
<text text-anchor="start" x="1251.5" y="-280.3" font-family="monospace" font-size="14.00">      EX_LocalVariable [CallFunc_GetFSDGameInstance_ReturnValue]</text>
<text text-anchor="start" x="1251.5" y="-265.3" font-family="monospace" font-size="14.00">      EX_InstanceVariable [Donkey]</text>
<text text-anchor="start" x="1251.5" y="-250.3" font-family="monospace" font-size="14.00">      RValue = [Donkey]</text>
<text text-anchor="start" x="1251.5" y="-235.3" font-family="monospace" font-size="14.00">    EX_FinalFunction import /Script/Engine&#45;&gt;Actor&#45;&gt;K2_GetActorLocation</text>
<text text-anchor="start" x="1251.5" y="-220.3" font-family="monospace" font-size="14.00">    RValue = [CallFunc_K2_GetActorLocation_ReturnValue]</text>
</g>
<!-- ExecuteUbergraph_AIC_MiniMule__311&#45;&gt;ExecuteUbergraph_AIC_MiniMule__332 -->
<g id="edge16" class="edge">
<title>ExecuteUbergraph_AIC_MiniMule__311&#45;&gt;ExecuteUbergraph_AIC_MiniMule__332</title>
<path fill="none" stroke="black" d="M1540.5,-407.52C1540.5,-395.37 1540.5,-381.01 1540.5,-366.48"/>
<polygon fill="black" stroke="black" points="1544,-366.88 1540.5,-356.88 1537,-366.88 1544,-366.88"/>
</g>
<!-- ExecuteUbergraph_AIC_MiniMule__404 -->
<g id="node18" class="node">
<title>ExecuteUbergraph_AIC_MiniMule__404</title>
<polygon fill="#eeeeee" stroke="black" points="1198,-76.5 1198,-174.5 1883,-174.5 1883,-76.5 1198,-76.5"/>
<text text-anchor="start" x="1206" y="-159.3" font-family="monospace" font-size="14.00">EX_Context</text>
<text text-anchor="start" x="1206" y="-144.3" font-family="monospace" font-size="14.00">  EX_LocalVariable [CallFunc_GetBlackboard_ReturnValue]</text>
<text text-anchor="start" x="1206" y="-129.3" font-family="monospace" font-size="14.00">  EX_FinalFunction import /Script/AIModule&#45;&gt;BlackboardComponent&#45;&gt;SetValueAsVector</text>
<text text-anchor="start" x="1206" y="-114.3" font-family="monospace" font-size="14.00">    EX_LocalVariable [CallFunc_MakeLiteralName_ReturnValue]</text>
<text text-anchor="start" x="1206" y="-99.3" font-family="monospace" font-size="14.00">    EX_LocalVariable [CallFunc_K2_GetActorLocation_ReturnValue]</text>
<text text-anchor="start" x="1206" y="-84.3" font-family="monospace" font-size="14.00">  RValue = []</text>
</g>
<!-- ExecuteUbergraph_AIC_MiniMule__332&#45;&gt;ExecuteUbergraph_AIC_MiniMule__404 -->
<g id="edge17" class="edge">
<title>ExecuteUbergraph_AIC_MiniMule__332&#45;&gt;ExecuteUbergraph_AIC_MiniMule__404</title>
<path fill="none" stroke="black" d="M1540.5,-212.53C1540.5,-203.51 1540.5,-194.34 1540.5,-185.52"/>
<polygon fill="black" stroke="black" points="1544,-185.69 1540.5,-175.69 1537,-185.69 1544,-185.69"/>
</g>
<!-- ExecuteUbergraph_AIC_MiniMule__404&#45;&gt;ExecuteUbergraph_AIC_MiniMule__454 -->
<g id="edge18" class="edge">
<title>ExecuteUbergraph_AIC_MiniMule__404&#45;&gt;ExecuteUbergraph_AIC_MiniMule__454</title>
<path fill="none" stroke="black" d="M1791.03,-76.54C1826.75,-69.88 1863.04,-63.2 1897.5,-57 1945.92,-48.29 2000.6,-38.98 2042.57,-31.93"/>
<polygon fill="black" stroke="black" points="2043,-35.41 2052.28,-30.31 2041.84,-28.51 2043,-35.41"/>
</g>
<!-- ExecuteUbergraph_AIC_MiniMule__456 -->
<g id="node20" class="node">
<title>ExecuteUbergraph_AIC_MiniMule__456</title>
<polygon fill="#eeeeee" stroke="black" points="2182.5,-1230.5 2182.5,-1266.5 2314.5,-1266.5 2314.5,-1230.5 2182.5,-1230.5"/>
<text text-anchor="start" x="2190.5" y="-1244.8" font-family="monospace" font-size="14.00">EX_EndOfScript</text>
</g>
<!-- CustomEvent_0 -->
<g id="node21" class="node">
<title>CustomEvent_0</title>
<polygon fill="#ff8888" stroke="black" points="1059.5,-1369 1059.5,-1405 1257.5,-1405 1257.5,-1369 1059.5,-1369"/>
<text text-anchor="start" x="1067.5" y="-1383.3" font-family="monospace" font-size="14.00">Function CustomEvent_0</text>
</g>
<!-- CustomEvent_0__0 -->
<g id="node22" class="node">
<title>CustomEvent_0__0</title>
<polygon fill="#eeeeee" stroke="black" points="845,-1173.5 845,-1211.5 1472,-1211.5 1472,-1173.5 845,-1173.5"/>
<text text-anchor="start" x="853" y="-1196.3" font-family="monospace" font-size="14.00">EX_LocalFinalFunction export AIC_MiniMule_C&#45;&gt;ExecuteUbergraph_AIC_MiniMule</text>
<text text-anchor="start" x="853" y="-1181.3" font-family="monospace" font-size="14.00">  EX_IntConst 163</text>
</g>
<!-- CustomEvent_0&#45;&gt;CustomEvent_0__0 -->
<g id="edge19" class="edge">
<title>CustomEvent_0&#45;&gt;CustomEvent_0__0</title>
<path fill="none" stroke="black" d="M1158.5,-1369.25C1158.5,-1336.52 1158.5,-1263.7 1158.5,-1222.81"/>
<polygon fill="black" stroke="black" points="1162,-1222.97 1158.5,-1212.97 1155,-1222.97 1162,-1222.97"/>
</g>
<!-- CustomEvent_0__0&#45;&gt;ExecuteUbergraph_AIC_MiniMule__163 -->
<g id="edge20" class="edge">
<title>CustomEvent_0__0:e&#45;&gt;ExecuteUbergraph_AIC_MiniMule__163</title>
<path fill="none" stroke="red" d="M1473.5,-1192.5C1510.01,-1192.5 1521.78,-1146.99 1525.36,-1110.68"/>
<polygon fill="none" stroke="red" points="1528.84,-1111.03 1526.13,-1100.78 1521.86,-1110.48 1528.84,-1111.03"/>
</g>
<!-- CustomEvent_0__15 -->
<g id="node23" class="node">
<title>CustomEvent_0__15</title>
<polygon fill="#eeeeee" stroke="black" points="1082.5,-1046.5 1082.5,-1084.5 1198.5,-1084.5 1198.5,-1046.5 1082.5,-1046.5"/>
<text text-anchor="start" x="1090.5" y="-1069.3" font-family="monospace" font-size="14.00">EX_Return</text>
<text text-anchor="start" x="1090.5" y="-1054.3" font-family="monospace" font-size="14.00">  EX_Nothing</text>
</g>
<!-- CustomEvent_0__0&#45;&gt;CustomEvent_0__15 -->
<g id="edge21" class="edge">
<title>CustomEvent_0__0&#45;&gt;CustomEvent_0__15</title>
<path fill="none" stroke="black" d="M1155.92,-1173.59C1152.99,-1153.26 1148.18,-1119.8 1144.7,-1095.69"/>
<polygon fill="black" stroke="black" points="1148.18,-1095.27 1143.29,-1085.87 1141.25,-1096.27 1148.18,-1095.27"/>
</g>
<!-- CustomEvent_0__17 -->
<g id="node24" class="node">
<title>CustomEvent_0__17</title>
<polygon fill="#eeeeee" stroke="black" points="2182.5,-1118.5 2182.5,-1154.5 2314.5,-1154.5 2314.5,-1118.5 2182.5,-1118.5"/>
<text text-anchor="start" x="2190.5" y="-1132.8" font-family="monospace" font-size="14.00">EX_EndOfScript</text>
</g>
<!-- ReceiveBeginPlay -->
<g id="node25" class="node">
<title>ReceiveBeginPlay</title>
<polygon fill="#ff8888" stroke="black" points="2056,-1369 2056,-1405 2279,-1405 2279,-1369 2056,-1369"/>
<text text-anchor="start" x="2064" y="-1383.3" font-family="monospace" font-size="14.00">Function ReceiveBeginPlay</text>
</g>
<!-- ReceiveBeginPlay__0 -->
<g id="node26" class="node">
<title>ReceiveBeginPlay__0</title>
<polygon fill="#eeeeee" stroke="black" points="1854,-1046.5 1854,-1084.5 2481,-1084.5 2481,-1046.5 1854,-1046.5"/>
<text text-anchor="start" x="1862" y="-1069.3" font-family="monospace" font-size="14.00">EX_LocalFinalFunction export AIC_MiniMule_C&#45;&gt;ExecuteUbergraph_AIC_MiniMule</text>
<text text-anchor="start" x="1862" y="-1054.3" font-family="monospace" font-size="14.00">  EX_IntConst 158</text>
</g>
<!-- ReceiveBeginPlay&#45;&gt;ReceiveBeginPlay__0 -->
<g id="edge22" class="edge">
<title>ReceiveBeginPlay&#45;&gt;ReceiveBeginPlay__0</title>
<path fill="none" stroke="black" d="M2167.5,-1369.27C2167.5,-1317.77 2167.5,-1161.11 2167.5,-1095.69"/>
<polygon fill="black" stroke="black" points="2171,-1095.74 2167.5,-1085.74 2164,-1095.74 2171,-1095.74"/>
</g>
<!-- ReceiveBeginPlay__0&#45;&gt;ExecuteUbergraph_AIC_MiniMule__158 -->
<g id="edge23" class="edge">
<title>ReceiveBeginPlay__0:e&#45;&gt;ExecuteUbergraph_AIC_MiniMule__158</title>
<path fill="none" stroke="red" d="M2482.5,-1065.5C2495.88,-1065.5 2488.46,-976.77 2483.63,-930.04"/>
<polygon fill="none" stroke="red" points="2487.14,-929.96 2482.6,-920.39 2480.18,-930.7 2487.14,-929.96"/>
</g>
<!-- ReceiveBeginPlay__15 -->
<g id="node27" class="node">
<title>ReceiveBeginPlay__15</title>
<polygon fill="#eeeeee" stroke="black" points="2109.5,-882 2109.5,-920 2225.5,-920 2225.5,-882 2109.5,-882"/>
<text text-anchor="start" x="2117.5" y="-904.8" font-family="monospace" font-size="14.00">EX_Return</text>
<text text-anchor="start" x="2117.5" y="-889.8" font-family="monospace" font-size="14.00">  EX_Nothing</text>
</g>
<!-- ReceiveBeginPlay__0&#45;&gt;ReceiveBeginPlay__15 -->
<g id="edge24" class="edge">
<title>ReceiveBeginPlay__0&#45;&gt;ReceiveBeginPlay__15</title>
<path fill="none" stroke="black" d="M2167.5,-1046.8C2167.5,-1018.96 2167.5,-964.66 2167.5,-931.04"/>
<polygon fill="black" stroke="black" points="2171,-931.19 2167.5,-921.19 2164,-931.19 2171,-931.19"/>
</g>
<!-- ReceiveBeginPlay__17 -->
<g id="node28" class="node">
<title>ReceiveBeginPlay__17</title>
<polygon fill="#eeeeee" stroke="black" points="2495.5,-976.5 2495.5,-1012.5 2627.5,-1012.5 2627.5,-976.5 2495.5,-976.5"/>
<text text-anchor="start" x="2503.5" y="-990.8" font-family="monospace" font-size="14.00">EX_EndOfScript</text>
</g>
</g>
</svg>
