<?xml version="1.0" encoding="UTF-8" standalone="no"?>
<!DOCTYPE svg PUBLIC "-//W3C//DTD SVG 1.1//EN"
 "http://www.w3.org/Graphics/SVG/1.1/DTD/svg11.dtd">
<!-- Generated by graphviz version 7.0.1 (0)
 -->
<!-- Pages: 1 -->
<svg width="4459pt" height="1445pt"
 viewBox="0.00 0.00 4459.00 1445.00" xmlns="http://www.w3.org/2000/svg" xmlns:xlink="http://www.w3.org/1999/xlink">
<g id="graph0" class="graph" transform="scale(1 1) rotate(0) translate(4 1441)">
<polygon fill="white" stroke="none" points="-4,4 -4,-1441 4455,-1441 4455,4 -4,4"/>
<!-- ScreenOverlay_Plague_C -->
<g id="node1" class="node">
<title>ScreenOverlay_Plague_C</title>
<polygon fill="#88ff88" stroke="black" points="0,-1203.5 0,-1436.5 850,-1436.5 850,-1203.5 0,-1203.5"/>
<text text-anchor="start" x="8" y="-1421.3" font-family="monospace" font-size="14.00">ClassExport: ScreenOverlay_Plague_C</text>
<text text-anchor="start" x="8" y="-1406.3" font-family="monospace" font-size="14.00">  SuperStruct: import /Script/FSD&#45;&gt;PlayerAfflictionOverlayWidget</text>
<text text-anchor="start" x="8" y="-1391.3" font-family="monospace" font-size="14.00">  Properties:</text>
<text text-anchor="start" x="8" y="-1376.3" font-family="monospace" font-size="14.00">    StructProperty UberGraphFrame</text>
<text text-anchor="start" x="8" y="-1361.3" font-family="monospace" font-size="14.00">      CPF_Transient|CPF_DuplicateTransient</text>
<text text-anchor="start" x="8" y="-1346.3" font-family="monospace" font-size="14.00">    ObjectProperty AnimJitter</text>
<text text-anchor="start" x="8" y="-1331.3" font-family="monospace" font-size="14.00">      CPF_BlueprintVisible|CPF_BlueprintReadOnly|CPF_Transient|CPF_RepSkip</text>
<text text-anchor="start" x="8" y="-1316.3" font-family="monospace" font-size="14.00">    ObjectProperty AnimPulse</text>
<text text-anchor="start" x="8" y="-1301.3" font-family="monospace" font-size="14.00">      CPF_BlueprintVisible|CPF_BlueprintReadOnly|CPF_Transient|CPF_RepSkip</text>
<text text-anchor="start" x="8" y="-1286.3" font-family="monospace" font-size="14.00">    ObjectProperty AnimFading</text>
<text text-anchor="start" x="8" y="-1271.3" font-family="monospace" font-size="14.00">      CPF_BlueprintVisible|CPF_BlueprintReadOnly|CPF_Transient|CPF_RepSkip</text>
<text text-anchor="start" x="8" y="-1256.3" font-family="monospace" font-size="14.00">    ObjectProperty AfflictionImage</text>
<text text-anchor="start" x="8" y="-1241.3" font-family="monospace" font-size="14.00">      CPF_BlueprintVisible|CPF_ExportObject|CPF_InstancedReference|CPF_RepSkip|CPF_PersistentInstance</text>
<text text-anchor="start" x="8" y="-1226.3" font-family="monospace" font-size="14.00">    FloatProperty FadeDuration</text>
<text text-anchor="start" x="8" y="-1211.3" font-family="monospace" font-size="14.00">      CPF_Edit|CPF_BlueprintVisible|CPF_ExposeOnSpawn</text>
</g>
<!-- ExecuteUbergraph_ScreenOverlay_Plague -->
<g id="node2" class="node">
<title>ExecuteUbergraph_ScreenOverlay_Plague</title>
<polygon fill="#ff8888" stroke="black" points="868,-1211 868,-1429 1380,-1429 1380,-1211 868,-1211"/>
<text text-anchor="start" x="876" y="-1413.8" font-family="monospace" font-size="14.00">Function ExecuteUbergraph_ScreenOverlay_Plague</text>
<text text-anchor="start" x="876" y="-1398.8" font-family="monospace" font-size="14.00">  IntProperty EntryPoint</text>
<text text-anchor="start" x="876" y="-1383.8" font-family="monospace" font-size="14.00">    CPF_BlueprintVisible|CPF_BlueprintReadOnly|CPF_Parm</text>
<text text-anchor="start" x="876" y="-1368.8" font-family="monospace" font-size="14.00">  ByteProperty K2Node_CustomEvent_PlayMode</text>
<text text-anchor="start" x="876" y="-1353.8" font-family="monospace" font-size="14.00">  FloatProperty CallFunc_GetAnimationCurrentTime_ReturnValue</text>
<text text-anchor="start" x="876" y="-1338.8" font-family="monospace" font-size="14.00">  DelegateProperty K2Node_CreateDelegate_OutputDelegate</text>
<text text-anchor="start" x="876" y="-1323.8" font-family="monospace" font-size="14.00">  BoolProperty CallFunc_SelectVisibility_IsVisible</text>
<text text-anchor="start" x="876" y="-1308.8" font-family="monospace" font-size="14.00">  BoolProperty CallFunc_SelectVisibility_VisibilityChanged</text>
<text text-anchor="start" x="876" y="-1293.8" font-family="monospace" font-size="14.00">  EnumProperty CallFunc_SelectVisibility_New_Visibility</text>
<text text-anchor="start" x="876" y="-1278.8" font-family="monospace" font-size="14.00">  FloatProperty CallFunc_FMax_ReturnValue</text>
<text text-anchor="start" x="876" y="-1263.8" font-family="monospace" font-size="14.00">  FloatProperty CallFunc_Divide_FloatFloat_ReturnValue</text>
<text text-anchor="start" x="876" y="-1248.8" font-family="monospace" font-size="14.00">  ObjectProperty CallFunc_PlayAnimation_ReturnValue</text>
<text text-anchor="start" x="876" y="-1233.8" font-family="monospace" font-size="14.00">  ObjectProperty K2Node_Event_InTexture</text>
<text text-anchor="start" x="876" y="-1218.8" font-family="monospace" font-size="14.00">  StructProperty K2Node_Event_InTint</text>
</g>
<!-- ExecuteUbergraph_ScreenOverlay_Plague__0 -->
<g id="node3" class="node">
<title>ExecuteUbergraph_ScreenOverlay_Plague__0</title>
<polygon fill="#eeeeee" stroke="black" points="988,-1091.5 988,-1129.5 1260,-1129.5 1260,-1091.5 988,-1091.5"/>
<text text-anchor="start" x="996" y="-1114.3" font-family="monospace" font-size="14.00">EX_ComputedJump</text>
<text text-anchor="start" x="996" y="-1099.3" font-family="monospace" font-size="14.00">  EX_LocalVariable [EntryPoint]</text>
</g>
<!-- ExecuteUbergraph_ScreenOverlay_Plague&#45;&gt;ExecuteUbergraph_ScreenOverlay_Plague__0 -->
<g id="edge1" class="edge">
<title>ExecuteUbergraph_ScreenOverlay_Plague&#45;&gt;ExecuteUbergraph_ScreenOverlay_Plague__0</title>
<path fill="none" stroke="black" d="M1124,-1211.3C1124,-1185.23 1124,-1159.5 1124,-1140.69"/>
<polygon fill="black" stroke="black" points="1127.5,-1140.92 1124,-1130.92 1120.5,-1140.92 1127.5,-1140.92"/>
</g>
<!-- ExecuteUbergraph_ScreenOverlay_Plague__10 -->
<g id="node4" class="node">
<title>ExecuteUbergraph_ScreenOverlay_Plague__10</title>
<polygon fill="#eeeeee" stroke="black" points="3762.5,-426 3762.5,-464 4043.5,-464 4043.5,-426 3762.5,-426"/>
<text text-anchor="start" x="3770.5" y="-448.8" font-family="monospace" font-size="14.00">EX_VirtualFunction SetVisibility</text>
<text text-anchor="start" x="3770.5" y="-433.8" font-family="monospace" font-size="14.00">  EX_ByteConst 4</text>
</g>
<!-- ExecuteUbergraph_ScreenOverlay_Plague__26 -->
<g id="node5" class="node">
<title>ExecuteUbergraph_ScreenOverlay_Plague__26</title>
<polygon fill="#eeeeee" stroke="black" points="3426.5,-239 3426.5,-277 3715.5,-277 3715.5,-239 3426.5,-239"/>
<text text-anchor="start" x="3434.5" y="-261.8" font-family="monospace" font-size="14.00">EX_LocalVirtualFunction Play Fade</text>
<text text-anchor="start" x="3434.5" y="-246.8" font-family="monospace" font-size="14.00">  EX_ByteConst 0</text>
</g>
<!-- ExecuteUbergraph_ScreenOverlay_Plague__10&#45;&gt;ExecuteUbergraph_ScreenOverlay_Plague__26 -->
<g id="edge2" class="edge">
<title>ExecuteUbergraph_ScreenOverlay_Plague__10&#45;&gt;ExecuteUbergraph_ScreenOverlay_Plague__26</title>
<path fill="none" stroke="black" d="M3847.42,-426.05C3818,-415.66 3781.71,-401.4 3751,-385 3695.25,-355.23 3636.26,-311.21 3601.58,-283.86"/>
<polygon fill="black" stroke="black" points="3604.08,-281.37 3594.07,-277.89 3599.72,-286.85 3604.08,-281.37"/>
</g>
<!-- ExecuteUbergraph_ScreenOverlay_Plague__42 -->
<g id="node6" class="node">
<title>ExecuteUbergraph_ScreenOverlay_Plague__42</title>
<polygon fill="#eeeeee" stroke="black" points="3237.5,-76.5 3237.5,-112.5 3344.5,-112.5 3344.5,-76.5 3237.5,-76.5"/>
<text text-anchor="start" x="3245.5" y="-90.8" font-family="monospace" font-size="14.00">EX_Jump 450</text>
</g>
<!-- ExecuteUbergraph_ScreenOverlay_Plague__26&#45;&gt;ExecuteUbergraph_ScreenOverlay_Plague__42 -->
<g id="edge3" class="edge">
<title>ExecuteUbergraph_ScreenOverlay_Plague__26&#45;&gt;ExecuteUbergraph_ScreenOverlay_Plague__42</title>
<path fill="none" stroke="black" d="M3539.97,-239.1C3488.63,-209.49 3386.13,-150.37 3329.98,-117.99"/>
<polygon fill="black" stroke="black" points="3331.79,-114.98 3321.37,-113.02 3328.29,-121.05 3331.79,-114.98"/>
</g>
<!-- ExecuteUbergraph_ScreenOverlay_Plague__450 -->
<g id="node26" class="node">
<title>ExecuteUbergraph_ScreenOverlay_Plague__450</title>
<polygon fill="#eeeeee" stroke="black" points="2728,-0.5 2728,-38.5 2844,-38.5 2844,-0.5 2728,-0.5"/>
<text text-anchor="start" x="2736" y="-23.3" font-family="monospace" font-size="14.00">EX_Return</text>
<text text-anchor="start" x="2736" y="-8.3" font-family="monospace" font-size="14.00">  EX_Nothing</text>
</g>
<!-- ExecuteUbergraph_ScreenOverlay_Plague__42&#45;&gt;ExecuteUbergraph_ScreenOverlay_Plague__450 -->
<g id="edge4" class="edge">
<title>ExecuteUbergraph_ScreenOverlay_Plague__42&#45;&gt;ExecuteUbergraph_ScreenOverlay_Plague__450</title>
<path fill="none" stroke="black" d="M3237.91,-85.83C3145.89,-72.52 2956.86,-45.2 2854.87,-30.46"/>
<polygon fill="black" stroke="black" points="2855.67,-27.03 2845.27,-29.07 2854.67,-33.96 2855.67,-27.03"/>
</g>
<!-- ExecuteUbergraph_ScreenOverlay_Plague__47 -->
<g id="node7" class="node">
<title>ExecuteUbergraph_ScreenOverlay_Plague__47</title>
<polygon fill="#eeeeee" stroke="black" points="1970.5,-239 1970.5,-277 2251.5,-277 2251.5,-239 1970.5,-239"/>
<text text-anchor="start" x="1978.5" y="-261.8" font-family="monospace" font-size="14.00">EX_VirtualFunction SetVisibility</text>
<text text-anchor="start" x="1978.5" y="-246.8" font-family="monospace" font-size="14.00">  EX_ByteConst 1</text>
</g>
<!-- ExecuteUbergraph_ScreenOverlay_Plague__63 -->
<g id="node8" class="node">
<title>ExecuteUbergraph_ScreenOverlay_Plague__63</title>
<polygon fill="#eeeeee" stroke="black" points="2429.5,-76.5 2429.5,-112.5 2536.5,-112.5 2536.5,-76.5 2429.5,-76.5"/>
<text text-anchor="start" x="2437.5" y="-90.8" font-family="monospace" font-size="14.00">EX_Jump 450</text>
</g>
<!-- ExecuteUbergraph_ScreenOverlay_Plague__47&#45;&gt;ExecuteUbergraph_ScreenOverlay_Plague__63 -->
<g id="edge5" class="edge">
<title>ExecuteUbergraph_ScreenOverlay_Plague__47&#45;&gt;ExecuteUbergraph_ScreenOverlay_Plague__63</title>
<path fill="none" stroke="black" d="M2147.16,-239.03C2177.16,-224.3 2221.06,-203.16 2260,-186 2316.99,-160.89 2383.21,-134.34 2428.6,-116.54"/>
<polygon fill="black" stroke="black" points="2429.65,-119.89 2437.69,-112.98 2427.1,-113.37 2429.65,-119.89"/>
</g>
<!-- ExecuteUbergraph_ScreenOverlay_Plague__63&#45;&gt;ExecuteUbergraph_ScreenOverlay_Plague__450 -->
<g id="edge6" class="edge">
<title>ExecuteUbergraph_ScreenOverlay_Plague__63&#45;&gt;ExecuteUbergraph_ScreenOverlay_Plague__450</title>
<path fill="none" stroke="black" d="M2536.47,-80.62C2586.78,-68.5 2662.35,-50.29 2717.15,-37.09"/>
<polygon fill="black" stroke="black" points="2717.79,-40.53 2726.69,-34.79 2716.15,-33.73 2717.79,-40.53"/>
</g>
<!-- ExecuteUbergraph_ScreenOverlay_Plague__68 -->
<g id="node9" class="node">
<title>ExecuteUbergraph_ScreenOverlay_Plague__68</title>
<polygon fill="#eeeeee" stroke="black" points="1777,-426 1777,-464 2107,-464 2107,-426 1777,-426"/>
<text text-anchor="start" x="1785" y="-448.8" font-family="monospace" font-size="14.00">EX_JumpIfNot 47</text>
<text text-anchor="start" x="1785" y="-433.8" font-family="monospace" font-size="14.00">  EX_InstanceVariable [bOverlayActive]</text>
</g>
<!-- ExecuteUbergraph_ScreenOverlay_Plague__68&#45;&gt;ExecuteUbergraph_ScreenOverlay_Plague__47 -->
<g id="edge7" class="edge">
<title>ExecuteUbergraph_ScreenOverlay_Plague__68:e&#45;&gt;ExecuteUbergraph_ScreenOverlay_Plague__47</title>
<path fill="none" stroke="red" d="M2108,-445C2170.28,-445 2140.43,-339.45 2121.91,-287.37"/>
<polygon fill="none" stroke="red" points="2125.3,-286.45 2118.58,-278.26 2118.73,-288.85 2125.3,-286.45"/>
<text text-anchor="middle" x="2171" y="-362.8" font-family="monospace" font-size="14.00">IF NOT</text>
</g>
<!-- ExecuteUbergraph_ScreenOverlay_Plague__82 -->
<g id="node10" class="node">
<title>ExecuteUbergraph_ScreenOverlay_Plague__82</title>
<polygon fill="#eeeeee" stroke="black" points="2090.5,-131.5 2090.5,-167.5 2197.5,-167.5 2197.5,-131.5 2090.5,-131.5"/>
<text text-anchor="start" x="2098.5" y="-145.8" font-family="monospace" font-size="14.00">EX_Jump 450</text>
</g>
<!-- ExecuteUbergraph_ScreenOverlay_Plague__68&#45;&gt;ExecuteUbergraph_ScreenOverlay_Plague__82 -->
<g id="edge8" class="edge">
<title>ExecuteUbergraph_ScreenOverlay_Plague__68&#45;&gt;ExecuteUbergraph_ScreenOverlay_Plague__82</title>
<path fill="none" stroke="black" d="M1936.86,-426.23C1924.69,-380.08 1899.55,-255.17 1961,-186 1976.59,-168.45 2033.25,-159.39 2079.45,-154.84"/>
<polygon fill="black" stroke="black" points="2079.49,-158.35 2089.13,-153.94 2078.85,-151.38 2079.49,-158.35"/>
<text text-anchor="middle" x="1936.5" y="-362.8" font-family="monospace" font-size="14.00">IF</text>
</g>
<!-- ExecuteUbergraph_ScreenOverlay_Plague__82&#45;&gt;ExecuteUbergraph_ScreenOverlay_Plague__450 -->
<g id="edge9" class="edge">
<title>ExecuteUbergraph_ScreenOverlay_Plague__82&#45;&gt;ExecuteUbergraph_ScreenOverlay_Plague__450</title>
<path fill="none" stroke="black" d="M2197.29,-132.7C2252.58,-116.73 2341.76,-92.16 2420,-76 2522.82,-54.76 2643.46,-38.03 2717.3,-28.7"/>
<polygon fill="black" stroke="black" points="2717.3,-32.23 2726.79,-27.51 2716.43,-25.28 2717.3,-32.23"/>
</g>
<!-- ExecuteUbergraph_ScreenOverlay_Plague__87 -->
<g id="node11" class="node">
<title>ExecuteUbergraph_ScreenOverlay_Plague__87</title>
<polygon fill="#eeeeee" stroke="black" points="2074.5,-777.5 2074.5,-845.5 2701.5,-845.5 2701.5,-777.5 2074.5,-777.5"/>
<text text-anchor="start" x="2082.5" y="-830.3" font-family="monospace" font-size="14.00">EX_Let</text>
<text text-anchor="start" x="2082.5" y="-815.3" font-family="monospace" font-size="14.00">  EX_LocalVariable [CallFunc_GetAnimationCurrentTime_ReturnValue]</text>
<text text-anchor="start" x="2082.5" y="-800.3" font-family="monospace" font-size="14.00">  EX_FinalFunction import /Script/UMG&#45;&gt;UserWidget&#45;&gt;GetAnimationCurrentTime</text>
<text text-anchor="start" x="2082.5" y="-785.3" font-family="monospace" font-size="14.00">    EX_InstanceVariable [AnimFading]</text>
</g>
<!-- ExecuteUbergraph_ScreenOverlay_Plague__124 -->
<g id="node12" class="node">
<title>ExecuteUbergraph_ScreenOverlay_Plague__124</title>
<polygon fill="#eeeeee" stroke="black" points="2157,-560.5 2157,-643.5 2669,-643.5 2669,-560.5 2157,-560.5"/>
<text text-anchor="start" x="2165" y="-628.3" font-family="monospace" font-size="14.00">EX_Let</text>
<text text-anchor="start" x="2165" y="-613.3" font-family="monospace" font-size="14.00">  EX_LocalVariable [CallFunc_FMax_ReturnValue]</text>
<text text-anchor="start" x="2165" y="-598.3" font-family="monospace" font-size="14.00">  EX_CallMath import /Script/Engine&#45;&gt;KismetMathLibrary&#45;&gt;FMax</text>
<text text-anchor="start" x="2165" y="-583.3" font-family="monospace" font-size="14.00">    EX_InstanceVariable [FadeDuration]</text>
<text text-anchor="start" x="2165" y="-568.3" font-family="monospace" font-size="14.00">    EX_FloatConst 0.1</text>
</g>
<!-- ExecuteUbergraph_ScreenOverlay_Plague__87&#45;&gt;ExecuteUbergraph_ScreenOverlay_Plague__124 -->
<g id="edge10" class="edge">
<title>ExecuteUbergraph_ScreenOverlay_Plague__87&#45;&gt;ExecuteUbergraph_ScreenOverlay_Plague__124</title>
<path fill="none" stroke="black" d="M2391.96,-777.62C2395.96,-744.44 2402.19,-692.74 2406.83,-654.19"/>
<polygon fill="black" stroke="black" points="2410.26,-655.04 2407.98,-644.69 2403.31,-654.2 2410.26,-655.04"/>
</g>
<!-- ExecuteUbergraph_ScreenOverlay_Plague__166 -->
<g id="node13" class="node">
<title>ExecuteUbergraph_ScreenOverlay_Plague__166</title>
<polygon fill="#eeeeee" stroke="black" points="2172.5,-403.5 2172.5,-486.5 2791.5,-486.5 2791.5,-403.5 2172.5,-403.5"/>
<text text-anchor="start" x="2180.5" y="-471.3" font-family="monospace" font-size="14.00">EX_Let</text>
<text text-anchor="start" x="2180.5" y="-456.3" font-family="monospace" font-size="14.00">  EX_LocalVariable [CallFunc_Divide_FloatFloat_ReturnValue]</text>
<text text-anchor="start" x="2180.5" y="-441.3" font-family="monospace" font-size="14.00">  EX_CallMath import /Script/Engine&#45;&gt;KismetMathLibrary&#45;&gt;Divide_FloatFloat</text>
<text text-anchor="start" x="2180.5" y="-426.3" font-family="monospace" font-size="14.00">    EX_FloatConst 1</text>
<text text-anchor="start" x="2180.5" y="-411.3" font-family="monospace" font-size="14.00">    EX_LocalVariable [CallFunc_FMax_ReturnValue]</text>
</g>
<!-- ExecuteUbergraph_ScreenOverlay_Plague__124&#45;&gt;ExecuteUbergraph_ScreenOverlay_Plague__166 -->
<g id="edge11" class="edge">
<title>ExecuteUbergraph_ScreenOverlay_Plague__124&#45;&gt;ExecuteUbergraph_ScreenOverlay_Plague__166</title>
<path fill="none" stroke="black" d="M2430.95,-560.68C2439.66,-541.11 2450.21,-517.4 2459.46,-496.63"/>
<polygon fill="black" stroke="black" points="2462.54,-498.33 2463.41,-487.77 2456.14,-495.48 2462.54,-498.33"/>
</g>
<!-- ExecuteUbergraph_ScreenOverlay_Plague__208 -->
<g id="node14" class="node">
<title>ExecuteUbergraph_ScreenOverlay_Plague__208</title>
<polygon fill="#eeeeee" stroke="black" points="2269.5,-186.5 2269.5,-329.5 2838.5,-329.5 2838.5,-186.5 2269.5,-186.5"/>
<text text-anchor="start" x="2277.5" y="-314.3" font-family="monospace" font-size="14.00">EX_LetObj</text>
<text text-anchor="start" x="2277.5" y="-299.3" font-family="monospace" font-size="14.00">  EX_LocalVariable [CallFunc_PlayAnimation_ReturnValue]</text>
<text text-anchor="start" x="2277.5" y="-284.3" font-family="monospace" font-size="14.00">  EX_FinalFunction import /Script/UMG&#45;&gt;UserWidget&#45;&gt;PlayAnimation</text>
<text text-anchor="start" x="2277.5" y="-269.3" font-family="monospace" font-size="14.00">    EX_InstanceVariable [AnimFading]</text>
<text text-anchor="start" x="2277.5" y="-254.3" font-family="monospace" font-size="14.00">    EX_LocalVariable [CallFunc_GetAnimationCurrentTime_ReturnValue]</text>
<text text-anchor="start" x="2277.5" y="-239.3" font-family="monospace" font-size="14.00">    EX_IntConst 1</text>
<text text-anchor="start" x="2277.5" y="-224.3" font-family="monospace" font-size="14.00">    EX_LocalVariable [K2Node_CustomEvent_PlayMode]</text>
<text text-anchor="start" x="2277.5" y="-209.3" font-family="monospace" font-size="14.00">    EX_LocalVariable [CallFunc_Divide_FloatFloat_ReturnValue]</text>
<text text-anchor="start" x="2277.5" y="-194.3" font-family="monospace" font-size="14.00">    EX_False</text>
</g>
<!-- ExecuteUbergraph_ScreenOverlay_Plague__166&#45;&gt;ExecuteUbergraph_ScreenOverlay_Plague__208 -->
<g id="edge12" class="edge">
<title>ExecuteUbergraph_ScreenOverlay_Plague__166&#45;&gt;ExecuteUbergraph_ScreenOverlay_Plague__208</title>
<path fill="none" stroke="black" d="M2497.62,-403.86C2504.94,-385.05 2513.94,-361.94 2522.58,-339.74"/>
<polygon fill="black" stroke="black" points="2525.73,-341.29 2526.1,-330.7 2519.21,-338.75 2525.73,-341.29"/>
</g>
<!-- ExecuteUbergraph_ScreenOverlay_Plague__270 -->
<g id="node15" class="node">
<title>ExecuteUbergraph_ScreenOverlay_Plague__270</title>
<polygon fill="#eeeeee" stroke="black" points="2631.5,-76.5 2631.5,-112.5 2738.5,-112.5 2738.5,-76.5 2631.5,-76.5"/>
<text text-anchor="start" x="2639.5" y="-90.8" font-family="monospace" font-size="14.00">EX_Jump 450</text>
</g>
<!-- ExecuteUbergraph_ScreenOverlay_Plague__208&#45;&gt;ExecuteUbergraph_ScreenOverlay_Plague__270 -->
<g id="edge13" class="edge">
<title>ExecuteUbergraph_ScreenOverlay_Plague__208&#45;&gt;ExecuteUbergraph_ScreenOverlay_Plague__270</title>
<path fill="none" stroke="black" d="M2611.08,-186.63C2630.1,-163.18 2650.09,-138.54 2664.48,-120.8"/>
<polygon fill="black" stroke="black" points="2666.92,-123.35 2670.5,-113.37 2661.48,-118.94 2666.92,-123.35"/>
</g>
<!-- ExecuteUbergraph_ScreenOverlay_Plague__270&#45;&gt;ExecuteUbergraph_ScreenOverlay_Plague__450 -->
<g id="edge14" class="edge">
<title>ExecuteUbergraph_ScreenOverlay_Plague__270&#45;&gt;ExecuteUbergraph_ScreenOverlay_Plague__450</title>
<path fill="none" stroke="black" d="M2708.43,-76.57C2721.43,-67.17 2737.83,-55.32 2752.2,-44.93"/>
<polygon fill="black" stroke="black" points="2754.01,-47.94 2760.07,-39.24 2749.91,-42.27 2754.01,-47.94"/>
</g>
<!-- ExecuteUbergraph_ScreenOverlay_Plague__275 -->
<g id="node16" class="node">
<title>ExecuteUbergraph_ScreenOverlay_Plague__275</title>
<polygon fill="#eeeeee" stroke="black" points="2722.5,-792.5 2722.5,-830.5 3011.5,-830.5 3011.5,-792.5 2722.5,-792.5"/>
<text text-anchor="start" x="2730.5" y="-815.3" font-family="monospace" font-size="14.00">EX_LocalVirtualFunction Play Fade</text>
<text text-anchor="start" x="2730.5" y="-800.3" font-family="monospace" font-size="14.00">  EX_ByteConst 1</text>
</g>
<!-- ExecuteUbergraph_ScreenOverlay_Plague__291 -->
<g id="node17" class="node">
<title>ExecuteUbergraph_ScreenOverlay_Plague__291</title>
<polygon fill="#eeeeee" stroke="black" points="2779.5,-131.5 2779.5,-167.5 2886.5,-167.5 2886.5,-131.5 2779.5,-131.5"/>
<text text-anchor="start" x="2787.5" y="-145.8" font-family="monospace" font-size="14.00">EX_Jump 450</text>
</g>
<!-- ExecuteUbergraph_ScreenOverlay_Plague__275&#45;&gt;ExecuteUbergraph_ScreenOverlay_Plague__291 -->
<g id="edge15" class="edge">
<title>ExecuteUbergraph_ScreenOverlay_Plague__275&#45;&gt;ExecuteUbergraph_ScreenOverlay_Plague__291</title>
<path fill="none" stroke="black" d="M2867,-792.74C2867,-756.87 2867,-673.25 2867,-603 2867,-603 2867,-603 2867,-365.5 2867,-285.23 2866.34,-263.91 2847,-186 2846.34,-183.34 2845.53,-180.62 2844.63,-177.91"/>
<polygon fill="black" stroke="black" points="2847.93,-176.74 2841.16,-168.59 2841.37,-179.19 2847.93,-176.74"/>
</g>
<!-- ExecuteUbergraph_ScreenOverlay_Plague__291&#45;&gt;ExecuteUbergraph_ScreenOverlay_Plague__450 -->
<g id="edge16" class="edge">
<title>ExecuteUbergraph_ScreenOverlay_Plague__291&#45;&gt;ExecuteUbergraph_ScreenOverlay_Plague__450</title>
<path fill="none" stroke="black" d="M2826.76,-131.5C2819.05,-110.51 2805.82,-74.47 2796.53,-49.17"/>
<polygon fill="black" stroke="black" points="2799.82,-47.99 2793.09,-39.81 2793.25,-50.41 2799.82,-47.99"/>
</g>
<!-- ExecuteUbergraph_ScreenOverlay_Plague__296 -->
<g id="node18" class="node">
<title>ExecuteUbergraph_ScreenOverlay_Plague__296</title>
<polygon fill="#eeeeee" stroke="black" points="3029.5,-717.5 3029.5,-905.5 3590.5,-905.5 3590.5,-717.5 3029.5,-717.5"/>
<text text-anchor="start" x="3037.5" y="-890.3" font-family="monospace" font-size="14.00">EX_Context</text>
<text text-anchor="start" x="3037.5" y="-875.3" font-family="monospace" font-size="14.00">  EX_ObjectConst import /Game/Game/LIB_Game&#45;&gt;Default__LIB_Game_C</text>
<text text-anchor="start" x="3037.5" y="-860.3" font-family="monospace" font-size="14.00">  EX_LocalVirtualFunction SelectVisibility</text>
<text text-anchor="start" x="3037.5" y="-845.3" font-family="monospace" font-size="14.00">    EX_Self</text>
<text text-anchor="start" x="3037.5" y="-830.3" font-family="monospace" font-size="14.00">    EX_ByteConst 1</text>
<text text-anchor="start" x="3037.5" y="-815.3" font-family="monospace" font-size="14.00">    EX_ByteConst 4</text>
<text text-anchor="start" x="3037.5" y="-800.3" font-family="monospace" font-size="14.00">    EX_InstanceVariable [bOverlayActive]</text>
<text text-anchor="start" x="3037.5" y="-785.3" font-family="monospace" font-size="14.00">    EX_Self</text>
<text text-anchor="start" x="3037.5" y="-770.3" font-family="monospace" font-size="14.00">    EX_LocalVariable [CallFunc_SelectVisibility_IsVisible]</text>
<text text-anchor="start" x="3037.5" y="-755.3" font-family="monospace" font-size="14.00">    EX_LocalVariable [CallFunc_SelectVisibility_VisibilityChanged]</text>
<text text-anchor="start" x="3037.5" y="-740.3" font-family="monospace" font-size="14.00">    EX_LocalVariable [CallFunc_SelectVisibility_New_Visibility]</text>
<text text-anchor="start" x="3037.5" y="-725.3" font-family="monospace" font-size="14.00">  RValue = []</text>
</g>
<!-- ExecuteUbergraph_ScreenOverlay_Plague__374 -->
<g id="node19" class="node">
<title>ExecuteUbergraph_ScreenOverlay_Plague__374</title>
<polygon fill="#eeeeee" stroke="black" points="3045.5,-575.5 3045.5,-628.5 3532.5,-628.5 3532.5,-575.5 3045.5,-575.5"/>
<text text-anchor="start" x="3053.5" y="-613.3" font-family="monospace" font-size="14.00">EX_BindDelegate OnAnimFadingFinished</text>
<text text-anchor="start" x="3053.5" y="-598.3" font-family="monospace" font-size="14.00">  EX_LocalVariable [K2Node_CreateDelegate_OutputDelegate]</text>
<text text-anchor="start" x="3053.5" y="-583.3" font-family="monospace" font-size="14.00">  EX_Self</text>
</g>
<!-- ExecuteUbergraph_ScreenOverlay_Plague__296&#45;&gt;ExecuteUbergraph_ScreenOverlay_Plague__374 -->
<g id="edge17" class="edge">
<title>ExecuteUbergraph_ScreenOverlay_Plague__296&#45;&gt;ExecuteUbergraph_ScreenOverlay_Plague__374</title>
<path fill="none" stroke="black" d="M3300.61,-717.67C3297.8,-690 3294.9,-661.27 3292.69,-639.49"/>
<polygon fill="black" stroke="black" points="3296.19,-639.26 3291.7,-629.66 3289.22,-639.97 3296.19,-639.26"/>
</g>
<!-- ExecuteUbergraph_ScreenOverlay_Plague__397 -->
<g id="node20" class="node">
<title>ExecuteUbergraph_ScreenOverlay_Plague__397</title>
<polygon fill="#eeeeee" stroke="black" points="2922.5,-418.5 2922.5,-471.5 3533.5,-471.5 3533.5,-418.5 2922.5,-418.5"/>
<text text-anchor="start" x="2930.5" y="-456.3" font-family="monospace" font-size="14.00">EX_FinalFunction import /Script/UMG&#45;&gt;UserWidget&#45;&gt;BindToAnimationFinished</text>
<text text-anchor="start" x="2930.5" y="-441.3" font-family="monospace" font-size="14.00">  EX_InstanceVariable [AnimFading]</text>
<text text-anchor="start" x="2930.5" y="-426.3" font-family="monospace" font-size="14.00">  EX_LocalVariable [K2Node_CreateDelegate_OutputDelegate]</text>
</g>
<!-- ExecuteUbergraph_ScreenOverlay_Plague__374&#45;&gt;ExecuteUbergraph_ScreenOverlay_Plague__397 -->
<g id="edge18" class="edge">
<title>ExecuteUbergraph_ScreenOverlay_Plague__374&#45;&gt;ExecuteUbergraph_ScreenOverlay_Plague__397</title>
<path fill="none" stroke="black" d="M3279.06,-575.75C3269.04,-550.27 3253.45,-510.68 3242.14,-481.93"/>
<polygon fill="black" stroke="black" points="3245.51,-480.93 3238.59,-472.9 3238.99,-483.49 3245.51,-480.93"/>
</g>
<!-- ExecuteUbergraph_ScreenOverlay_Plague__425 -->
<g id="node21" class="node">
<title>ExecuteUbergraph_ScreenOverlay_Plague__425</title>
<polygon fill="#eeeeee" stroke="black" points="2998.5,-131.5 2998.5,-167.5 3105.5,-167.5 3105.5,-131.5 2998.5,-131.5"/>
<text text-anchor="start" x="3006.5" y="-145.8" font-family="monospace" font-size="14.00">EX_Jump 450</text>
</g>
<!-- ExecuteUbergraph_ScreenOverlay_Plague__397&#45;&gt;ExecuteUbergraph_ScreenOverlay_Plague__425 -->
<g id="edge19" class="edge">
<title>ExecuteUbergraph_ScreenOverlay_Plague__397&#45;&gt;ExecuteUbergraph_ScreenOverlay_Plague__425</title>
<path fill="none" stroke="black" d="M3212.84,-418.72C3179.8,-363.61 3101.53,-233.1 3067.86,-176.94"/>
<polygon fill="black" stroke="black" points="3071.03,-175.43 3062.89,-168.66 3065.03,-179.03 3071.03,-175.43"/>
</g>
<!-- ExecuteUbergraph_ScreenOverlay_Plague__425&#45;&gt;ExecuteUbergraph_ScreenOverlay_Plague__450 -->
<g id="edge20" class="edge">
<title>ExecuteUbergraph_ScreenOverlay_Plague__425&#45;&gt;ExecuteUbergraph_ScreenOverlay_Plague__450</title>
<path fill="none" stroke="black" d="M3016.68,-131.5C2969.51,-108.81 2885.82,-68.53 2833.26,-43.24"/>
<polygon fill="black" stroke="black" points="2835.08,-40.23 2824.55,-39.05 2832.04,-46.54 2835.08,-40.23"/>
</g>
<!-- ExecuteUbergraph_ScreenOverlay_Plague__430 -->
<g id="node22" class="node">
<title>ExecuteUbergraph_ScreenOverlay_Plague__430</title>
<polygon fill="#eeeeee" stroke="black" points="1880.5,-584 1880.5,-620 1979.5,-620 1979.5,-584 1880.5,-584"/>
<text text-anchor="start" x="1888.5" y="-598.3" font-family="monospace" font-size="14.00">EX_Jump 68</text>
</g>
<!-- ExecuteUbergraph_ScreenOverlay_Plague__430&#45;&gt;ExecuteUbergraph_ScreenOverlay_Plague__68 -->
<g id="edge21" class="edge">
<title>ExecuteUbergraph_ScreenOverlay_Plague__430&#45;&gt;ExecuteUbergraph_ScreenOverlay_Plague__68</title>
<path fill="none" stroke="black" d="M1931.31,-584.12C1933.33,-557.96 1937.25,-507.3 1939.74,-475.14"/>
<polygon fill="black" stroke="black" points="1943.22,-475.56 1940.5,-465.32 1936.24,-475.02 1943.22,-475.56"/>
</g>
<!-- ExecuteUbergraph_ScreenOverlay_Plague__435 -->
<g id="node23" class="node">
<title>ExecuteUbergraph_ScreenOverlay_Plague__435</title>
<polygon fill="#eeeeee" stroke="black" points="4191.5,-584 4191.5,-620 4290.5,-620 4290.5,-584 4191.5,-584"/>
<text text-anchor="start" x="4199.5" y="-598.3" font-family="monospace" font-size="14.00">EX_Jump 10</text>
</g>
<!-- ExecuteUbergraph_ScreenOverlay_Plague__435&#45;&gt;ExecuteUbergraph_ScreenOverlay_Plague__10 -->
<g id="edge22" class="edge">
<title>ExecuteUbergraph_ScreenOverlay_Plague__435&#45;&gt;ExecuteUbergraph_ScreenOverlay_Plague__10</title>
<path fill="none" stroke="black" d="M4192.22,-584.12C4161.39,-573.04 4120.91,-557.73 4086,-542 4036.22,-519.57 3980.95,-489.88 3944.31,-469.49"/>
<polygon fill="black" stroke="black" points="3946.25,-466.56 3935.81,-464.74 3942.83,-472.67 3946.25,-466.56"/>
</g>
<!-- ExecuteUbergraph_ScreenOverlay_Plague__440 -->
<g id="node24" class="node">
<title>ExecuteUbergraph_ScreenOverlay_Plague__440</title>
<polygon fill="#eeeeee" stroke="black" points="3550.5,-980.5 3550.5,-1016.5 3657.5,-1016.5 3657.5,-980.5 3550.5,-980.5"/>
<text text-anchor="start" x="3558.5" y="-994.8" font-family="monospace" font-size="14.00">EX_Jump 296</text>
</g>
<!-- ExecuteUbergraph_ScreenOverlay_Plague__440&#45;&gt;ExecuteUbergraph_ScreenOverlay_Plague__296 -->
<g id="edge23" class="edge">
<title>ExecuteUbergraph_ScreenOverlay_Plague__440&#45;&gt;ExecuteUbergraph_ScreenOverlay_Plague__296</title>
<path fill="none" stroke="black" d="M3577.13,-980.59C3551.23,-964.3 3509.81,-938.23 3467.23,-911.44"/>
<polygon fill="black" stroke="black" points="3469.17,-908.52 3458.84,-906.16 3465.44,-914.45 3469.17,-908.52"/>
</g>
<!-- ExecuteUbergraph_ScreenOverlay_Plague__445 -->
<g id="node25" class="node">
<title>ExecuteUbergraph_ScreenOverlay_Plague__445</title>
<polygon fill="#eeeeee" stroke="black" points="2834.5,-980.5 2834.5,-1016.5 2941.5,-1016.5 2941.5,-980.5 2834.5,-980.5"/>
<text text-anchor="start" x="2842.5" y="-994.8" font-family="monospace" font-size="14.00">EX_Jump 275</text>
</g>
<!-- ExecuteUbergraph_ScreenOverlay_Plague__445&#45;&gt;ExecuteUbergraph_ScreenOverlay_Plague__275 -->
<g id="edge24" class="edge">
<title>ExecuteUbergraph_ScreenOverlay_Plague__445&#45;&gt;ExecuteUbergraph_ScreenOverlay_Plague__275</title>
<path fill="none" stroke="black" d="M2886.1,-980.76C2882.53,-949.31 2874.78,-881.05 2870.33,-841.82"/>
<polygon fill="black" stroke="black" points="2873.81,-841.47 2869.21,-831.93 2866.86,-842.26 2873.81,-841.47"/>
</g>
<!-- ExecuteUbergraph_ScreenOverlay_Plague__452 -->
<g id="node27" class="node">
<title>ExecuteUbergraph_ScreenOverlay_Plague__452</title>
<polygon fill="#eeeeee" stroke="black" points="4003,-1148.5 4003,-1184.5 4135,-1184.5 4135,-1148.5 4003,-1148.5"/>
<text text-anchor="start" x="4011" y="-1162.8" font-family="monospace" font-size="14.00">EX_EndOfScript</text>
</g>
<!-- ReceiveEndOverlay -->
<g id="node28" class="node">
<title>ReceiveEndOverlay</title>
<polygon fill="#ff8888" stroke="black" points="2435.5,-1302 2435.5,-1338 2666.5,-1338 2666.5,-1302 2435.5,-1302"/>
<text text-anchor="start" x="2443.5" y="-1316.3" font-family="monospace" font-size="14.00">Function ReceiveEndOverlay</text>
</g>
<!-- ReceiveEndOverlay__0 -->
<g id="node29" class="node">
<title>ReceiveEndOverlay__0</title>
<polygon fill="#eeeeee" stroke="black" points="2171.5,-1091.5 2171.5,-1129.5 2930.5,-1129.5 2930.5,-1091.5 2171.5,-1091.5"/>
<text text-anchor="start" x="2179.5" y="-1114.3" font-family="monospace" font-size="14.00">EX_LocalFinalFunction export ScreenOverlay_Plague_C&#45;&gt;ExecuteUbergraph_ScreenOverlay_Plague</text>
<text text-anchor="start" x="2179.5" y="-1099.3" font-family="monospace" font-size="14.00">  EX_IntConst 445</text>
</g>
<!-- ReceiveEndOverlay&#45;&gt;ReceiveEndOverlay__0 -->
<g id="edge25" class="edge">
<title>ReceiveEndOverlay&#45;&gt;ReceiveEndOverlay__0</title>
<path fill="none" stroke="black" d="M2551,-1302.02C2551,-1266.63 2551,-1184.63 2551,-1140.63"/>
<polygon fill="black" stroke="black" points="2554.5,-1140.82 2551,-1130.82 2547.5,-1140.82 2554.5,-1140.82"/>
</g>
<!-- ReceiveEndOverlay__0&#45;&gt;ExecuteUbergraph_ScreenOverlay_Plague__445 -->
<g id="edge26" class="edge">
<title>ReceiveEndOverlay__0:e&#45;&gt;ExecuteUbergraph_ScreenOverlay_Plague__445</title>
<path fill="none" stroke="red" d="M2932,-1110.5C2950.05,-1110.5 2923.18,-1059.13 2904.15,-1026.28"/>
<polygon fill="none" stroke="red" points="2907.17,-1024.51 2899.08,-1017.66 2901.14,-1028.06 2907.17,-1024.51"/>
</g>
<!-- ReceiveEndOverlay__15 -->
<g id="node30" class="node">
<title>ReceiveEndOverlay__15</title>
<polygon fill="#eeeeee" stroke="black" points="2493,-979.5 2493,-1017.5 2609,-1017.5 2609,-979.5 2493,-979.5"/>
<text text-anchor="start" x="2501" y="-1002.3" font-family="monospace" font-size="14.00">EX_Return</text>
<text text-anchor="start" x="2501" y="-987.3" font-family="monospace" font-size="14.00">  EX_Nothing</text>
</g>
<!-- ReceiveEndOverlay__0&#45;&gt;ReceiveEndOverlay__15 -->
<g id="edge27" class="edge">
<title>ReceiveEndOverlay__0&#45;&gt;ReceiveEndOverlay__15</title>
<path fill="none" stroke="black" d="M2551,-1091.83C2551,-1074.85 2551,-1048.88 2551,-1028.81"/>
<polygon fill="black" stroke="black" points="2554.5,-1029.01 2551,-1019.01 2547.5,-1029.01 2554.5,-1029.01"/>
</g>
<!-- ReceiveEndOverlay__17 -->
<g id="node31" class="node">
<title>ReceiveEndOverlay__17</title>
<polygon fill="#eeeeee" stroke="black" points="4003,-1036.5 4003,-1072.5 4135,-1072.5 4135,-1036.5 4003,-1036.5"/>
<text text-anchor="start" x="4011" y="-1050.8" font-family="monospace" font-size="14.00">EX_EndOfScript</text>
</g>
<!-- Construct -->
<g id="node32" class="node">
<title>Construct</title>
<polygon fill="#ff8888" stroke="black" points="3245.5,-1302 3245.5,-1338 3410.5,-1338 3410.5,-1302 3245.5,-1302"/>
<text text-anchor="start" x="3253.5" y="-1316.3" font-family="monospace" font-size="14.00">Function Construct</text>
</g>
<!-- Construct__0 -->
<g id="node33" class="node">
<title>Construct__0</title>
<polygon fill="#eeeeee" stroke="black" points="2948.5,-1091.5 2948.5,-1129.5 3707.5,-1129.5 3707.5,-1091.5 2948.5,-1091.5"/>
<text text-anchor="start" x="2956.5" y="-1114.3" font-family="monospace" font-size="14.00">EX_LocalFinalFunction export ScreenOverlay_Plague_C&#45;&gt;ExecuteUbergraph_ScreenOverlay_Plague</text>
<text text-anchor="start" x="2956.5" y="-1099.3" font-family="monospace" font-size="14.00">  EX_IntConst 440</text>
</g>
<!-- Construct&#45;&gt;Construct__0 -->
<g id="edge28" class="edge">
<title>Construct&#45;&gt;Construct__0</title>
<path fill="none" stroke="black" d="M3328,-1302.02C3328,-1266.63 3328,-1184.63 3328,-1140.63"/>
<polygon fill="black" stroke="black" points="3331.5,-1140.82 3328,-1130.82 3324.5,-1140.82 3331.5,-1140.82"/>
</g>
<!-- Construct__0&#45;&gt;ExecuteUbergraph_ScreenOverlay_Plague__440 -->
<g id="edge29" class="edge">
<title>Construct__0:e&#45;&gt;ExecuteUbergraph_ScreenOverlay_Plague__440</title>
<path fill="none" stroke="red" d="M3709,-1110.5C3756.9,-1110.5 3684.99,-1055.28 3638.46,-1022.74"/>
<polygon fill="none" stroke="red" points="3640.71,-1020.04 3630.49,-1017.22 3636.72,-1025.79 3640.71,-1020.04"/>
</g>
<!-- Construct__15 -->
<g id="node34" class="node">
<title>Construct__15</title>
<polygon fill="#eeeeee" stroke="black" points="3270,-979.5 3270,-1017.5 3386,-1017.5 3386,-979.5 3270,-979.5"/>
<text text-anchor="start" x="3278" y="-1002.3" font-family="monospace" font-size="14.00">EX_Return</text>
<text text-anchor="start" x="3278" y="-987.3" font-family="monospace" font-size="14.00">  EX_Nothing</text>
</g>
<!-- Construct__0&#45;&gt;Construct__15 -->
<g id="edge30" class="edge">
<title>Construct__0&#45;&gt;Construct__15</title>
<path fill="none" stroke="black" d="M3328,-1091.83C3328,-1074.85 3328,-1048.88 3328,-1028.81"/>
<polygon fill="black" stroke="black" points="3331.5,-1029.01 3328,-1019.01 3324.5,-1029.01 3331.5,-1029.01"/>
</g>
<!-- Construct__17 -->
<g id="node35" class="node">
<title>Construct__17</title>
<polygon fill="#eeeeee" stroke="black" points="4003,-924.5 4003,-960.5 4135,-960.5 4135,-924.5 4003,-924.5"/>
<text text-anchor="start" x="4011" y="-938.8" font-family="monospace" font-size="14.00">EX_EndOfScript</text>
</g>
<!-- ReceiveBeginOverlay -->
<g id="node36" class="node">
<title>ReceiveBeginOverlay</title>
<polygon fill="#ff8888" stroke="black" points="3753,-1278.5 3753,-1361.5 4223,-1361.5 4223,-1278.5 3753,-1278.5"/>
<text text-anchor="start" x="3761" y="-1346.3" font-family="monospace" font-size="14.00">Function ReceiveBeginOverlay</text>
<text text-anchor="start" x="3761" y="-1331.3" font-family="monospace" font-size="14.00">  ObjectProperty InTexture</text>
<text text-anchor="start" x="3761" y="-1316.3" font-family="monospace" font-size="14.00">    CPF_BlueprintVisible|CPF_BlueprintReadOnly|CPF_Parm</text>
<text text-anchor="start" x="3761" y="-1301.3" font-family="monospace" font-size="14.00">  StructProperty InTint</text>
<text text-anchor="start" x="3761" y="-1286.3" font-family="monospace" font-size="14.00">    CPF_BlueprintVisible|CPF_BlueprintReadOnly|CPF_Parm</text>
</g>
<!-- ReceiveBeginOverlay__0 -->
<g id="node37" class="node">
<title>ReceiveBeginOverlay__0</title>
<polygon fill="#eeeeee" stroke="black" points="3761,-1091.5 3761,-1129.5 4215,-1129.5 4215,-1091.5 3761,-1091.5"/>
<text text-anchor="start" x="3769" y="-1114.3" font-family="monospace" font-size="14.00">EX_LetValueOnPersistentFrame [K2Node_Event_InTexture]</text>
<text text-anchor="start" x="3769" y="-1099.3" font-family="monospace" font-size="14.00">  EX_LocalVariable [InTexture]</text>
</g>
<!-- ReceiveBeginOverlay&#45;&gt;ReceiveBeginOverlay__0 -->
<g id="edge31" class="edge">
<title>ReceiveBeginOverlay&#45;&gt;ReceiveBeginOverlay__0</title>
<path fill="none" stroke="black" d="M3988,-1278.99C3988,-1238.47 3988,-1176.76 3988,-1140.65"/>
<polygon fill="black" stroke="black" points="3991.5,-1140.96 3988,-1130.96 3984.5,-1140.96 3991.5,-1140.96"/>
</g>
<!-- ReceiveBeginOverlay__18 -->
<g id="node38" class="node">
<title>ReceiveBeginOverlay__18</title>
<polygon fill="#eeeeee" stroke="black" points="3773.5,-979.5 3773.5,-1017.5 4202.5,-1017.5 4202.5,-979.5 3773.5,-979.5"/>
<text text-anchor="start" x="3781.5" y="-1002.3" font-family="monospace" font-size="14.00">EX_LetValueOnPersistentFrame [K2Node_Event_InTint]</text>
<text text-anchor="start" x="3781.5" y="-987.3" font-family="monospace" font-size="14.00">  EX_LocalVariable [InTint]</text>
</g>
<!-- ReceiveBeginOverlay__0&#45;&gt;ReceiveBeginOverlay__18 -->
<g id="edge32" class="edge">
<title>ReceiveBeginOverlay__0&#45;&gt;ReceiveBeginOverlay__18</title>
<path fill="none" stroke="black" d="M3988,-1091.83C3988,-1074.85 3988,-1048.88 3988,-1028.81"/>
<polygon fill="black" stroke="black" points="3991.5,-1029.01 3988,-1019.01 3984.5,-1029.01 3991.5,-1029.01"/>
</g>
<!-- ReceiveBeginOverlay__36 -->
<g id="node39" class="node">
<title>ReceiveBeginOverlay__36</title>
<polygon fill="#eeeeee" stroke="black" points="3608.5,-792.5 3608.5,-830.5 4367.5,-830.5 4367.5,-792.5 3608.5,-792.5"/>
<text text-anchor="start" x="3616.5" y="-815.3" font-family="monospace" font-size="14.00">EX_LocalFinalFunction export ScreenOverlay_Plague_C&#45;&gt;ExecuteUbergraph_ScreenOverlay_Plague</text>
<text text-anchor="start" x="3616.5" y="-800.3" font-family="monospace" font-size="14.00">  EX_IntConst 435</text>
</g>
<!-- ReceiveBeginOverlay__18&#45;&gt;ReceiveBeginOverlay__36 -->
<g id="edge33" class="edge">
<title>ReceiveBeginOverlay__18&#45;&gt;ReceiveBeginOverlay__36</title>
<path fill="none" stroke="black" d="M3988,-979.76C3988,-947.87 3988,-880.55 3988,-841.74"/>
<polygon fill="black" stroke="black" points="3991.5,-841.97 3988,-831.97 3984.5,-841.97 3991.5,-841.97"/>
</g>
<!-- ReceiveBeginOverlay__36&#45;&gt;ExecuteUbergraph_ScreenOverlay_Plague__435 -->
<g id="edge34" class="edge">
<title>ReceiveBeginOverlay__36:e&#45;&gt;ExecuteUbergraph_ScreenOverlay_Plague__435</title>
<path fill="none" stroke="red" d="M4369,-811.5C4377.68,-811.5 4370.74,-800.23 4368,-792 4356.3,-756.87 4293.72,-671.95 4260.99,-628.92"/>
<polygon fill="none" stroke="red" points="4263.88,-626.94 4255.02,-621.12 4258.31,-631.19 4263.88,-626.94"/>
</g>
<!-- ReceiveBeginOverlay__51 -->
<g id="node40" class="node">
<title>ReceiveBeginOverlay__51</title>
<polygon fill="#eeeeee" stroke="black" points="3930,-583 3930,-621 4046,-621 4046,-583 3930,-583"/>
<text text-anchor="start" x="3938" y="-605.8" font-family="monospace" font-size="14.00">EX_Return</text>
<text text-anchor="start" x="3938" y="-590.8" font-family="monospace" font-size="14.00">  EX_Nothing</text>
</g>
<!-- ReceiveBeginOverlay__36&#45;&gt;ReceiveBeginOverlay__51 -->
<g id="edge35" class="edge">
<title>ReceiveBeginOverlay__36&#45;&gt;ReceiveBeginOverlay__51</title>
<path fill="none" stroke="black" d="M3988,-792.81C3988,-757.06 3988,-675.93 3988,-632.21"/>
<polygon fill="black" stroke="black" points="3991.5,-632.45 3988,-622.45 3984.5,-632.45 3991.5,-632.45"/>
</g>
<!-- ReceiveBeginOverlay__53 -->
<g id="node41" class="node">
<title>ReceiveBeginOverlay__53</title>
<polygon fill="#eeeeee" stroke="black" points="4319,-662.5 4319,-698.5 4451,-698.5 4451,-662.5 4319,-662.5"/>
<text text-anchor="start" x="4327" y="-676.8" font-family="monospace" font-size="14.00">EX_EndOfScript</text>
</g>
<!-- OnAnimFadingFinished -->
<g id="node42" class="node">
<title>OnAnimFadingFinished</title>
<polygon fill="#ff8888" stroke="black" points="1398,-1302 1398,-1338 1654,-1338 1654,-1302 1398,-1302"/>
<text text-anchor="start" x="1406" y="-1316.3" font-family="monospace" font-size="14.00">Function OnAnimFadingFinished</text>
</g>
<!-- OnAnimFadingFinished__0 -->
<g id="node43" class="node">
<title>OnAnimFadingFinished__0</title>
<polygon fill="#eeeeee" stroke="black" points="1156.5,-792.5 1156.5,-830.5 1915.5,-830.5 1915.5,-792.5 1156.5,-792.5"/>
<text text-anchor="start" x="1164.5" y="-815.3" font-family="monospace" font-size="14.00">EX_LocalFinalFunction export ScreenOverlay_Plague_C&#45;&gt;ExecuteUbergraph_ScreenOverlay_Plague</text>
<text text-anchor="start" x="1164.5" y="-800.3" font-family="monospace" font-size="14.00">  EX_IntConst 430</text>
</g>
<!-- OnAnimFadingFinished&#45;&gt;OnAnimFadingFinished__0 -->
<g id="edge36" class="edge">
<title>OnAnimFadingFinished&#45;&gt;OnAnimFadingFinished__0</title>
<path fill="none" stroke="black" d="M1526.33,-1302.15C1527.78,-1228.72 1533.56,-936.16 1535.42,-841.92"/>
<polygon fill="black" stroke="black" points="1538.92,-842.04 1535.62,-831.97 1531.92,-841.9 1538.92,-842.04"/>
</g>
<!-- OnAnimFadingFinished__0&#45;&gt;ExecuteUbergraph_ScreenOverlay_Plague__430 -->
<g id="edge37" class="edge">
<title>OnAnimFadingFinished__0:e&#45;&gt;ExecuteUbergraph_ScreenOverlay_Plague__430</title>
<path fill="none" stroke="red" d="M1917,-811.5C1921.47,-811.5 1926.76,-687.98 1928.96,-631.08"/>
<polygon fill="none" stroke="red" points="1932.45,-631.35 1929.34,-621.22 1925.46,-631.08 1932.45,-631.35"/>
</g>
<!-- OnAnimFadingFinished__15 -->
<g id="node44" class="node">
<title>OnAnimFadingFinished__15</title>
<polygon fill="#eeeeee" stroke="black" points="1478,-583 1478,-621 1594,-621 1594,-583 1478,-583"/>
<text text-anchor="start" x="1486" y="-605.8" font-family="monospace" font-size="14.00">EX_Return</text>
<text text-anchor="start" x="1486" y="-590.8" font-family="monospace" font-size="14.00">  EX_Nothing</text>
</g>
<!-- OnAnimFadingFinished__0&#45;&gt;OnAnimFadingFinished__15 -->
<g id="edge38" class="edge">
<title>OnAnimFadingFinished__0&#45;&gt;OnAnimFadingFinished__15</title>
<path fill="none" stroke="black" d="M1536,-792.81C1536,-757.06 1536,-675.93 1536,-632.21"/>
<polygon fill="black" stroke="black" points="1539.5,-632.45 1536,-622.45 1532.5,-632.45 1539.5,-632.45"/>
</g>
<!-- OnAnimFadingFinished__17 -->
<g id="node45" class="node">
<title>OnAnimFadingFinished__17</title>
<polygon fill="#eeeeee" stroke="black" points="4087,-505.5 4087,-541.5 4219,-541.5 4219,-505.5 4087,-505.5"/>
<text text-anchor="start" x="4095" y="-519.8" font-family="monospace" font-size="14.00">EX_EndOfScript</text>
</g>
<!-- Play Fade -->
<g id="node46" class="node">
<title>Play Fade</title>
<polygon fill="#ff8888" stroke="black" points="1672,-1293.5 1672,-1346.5 2142,-1346.5 2142,-1293.5 1672,-1293.5"/>
<text text-anchor="start" x="1680" y="-1331.3" font-family="monospace" font-size="14.00">Function Play Fade</text>
<text text-anchor="start" x="1680" y="-1316.3" font-family="monospace" font-size="14.00">  ByteProperty PlayMode</text>
<text text-anchor="start" x="1680" y="-1301.3" font-family="monospace" font-size="14.00">    CPF_BlueprintVisible|CPF_BlueprintReadOnly|CPF_Parm</text>
</g>
<!-- Play Fade__0 -->
<g id="node47" class="node">
<title>Play Fade__0</title>
<polygon fill="#eeeeee" stroke="black" points="1658.5,-1091.5 1658.5,-1129.5 2153.5,-1129.5 2153.5,-1091.5 1658.5,-1091.5"/>
<text text-anchor="start" x="1666.5" y="-1114.3" font-family="monospace" font-size="14.00">EX_LetValueOnPersistentFrame [K2Node_CustomEvent_PlayMode]</text>
<text text-anchor="start" x="1666.5" y="-1099.3" font-family="monospace" font-size="14.00">  EX_LocalVariable [PlayMode]</text>
</g>
<!-- Play Fade&#45;&gt;Play Fade__0 -->
<g id="edge39" class="edge">
<title>Play Fade&#45;&gt;Play Fade__0</title>
<path fill="none" stroke="black" d="M1906.88,-1293.56C1906.69,-1254.83 1906.34,-1181.31 1906.14,-1140.55"/>
<polygon fill="black" stroke="black" points="1909.64,-1140.76 1906.09,-1130.77 1902.64,-1140.79 1909.64,-1140.76"/>
</g>
<!-- Play Fade__18 -->
<g id="node48" class="node">
<title>Play Fade__18</title>
<polygon fill="#eeeeee" stroke="black" points="1613.5,-979.5 1613.5,-1017.5 2372.5,-1017.5 2372.5,-979.5 1613.5,-979.5"/>
<text text-anchor="start" x="1621.5" y="-1002.3" font-family="monospace" font-size="14.00">EX_LocalFinalFunction export ScreenOverlay_Plague_C&#45;&gt;ExecuteUbergraph_ScreenOverlay_Plague</text>
<text text-anchor="start" x="1621.5" y="-987.3" font-family="monospace" font-size="14.00">  EX_IntConst 87</text>
</g>
<!-- Play Fade__0&#45;&gt;Play Fade__18 -->
<g id="edge40" class="edge">
<title>Play Fade__0&#45;&gt;Play Fade__18</title>
<path fill="none" stroke="black" d="M1919.98,-1091.83C1933.97,-1074.13 1955.69,-1046.67 1971.8,-1026.3"/>
<polygon fill="black" stroke="black" points="1974.37,-1028.7 1977.83,-1018.68 1968.88,-1024.35 1974.37,-1028.7"/>
</g>
<!-- Play Fade__18&#45;&gt;ExecuteUbergraph_ScreenOverlay_Plague__87 -->
<g id="edge41" class="edge">
<title>Play Fade__18:e&#45;&gt;ExecuteUbergraph_ScreenOverlay_Plague__87</title>
<path fill="none" stroke="red" d="M2374,-998.5C2430.8,-998.5 2416.34,-911.17 2401.6,-856.19"/>
<polygon fill="none" stroke="red" points="2405.03,-855.48 2398.98,-846.78 2398.29,-857.36 2405.03,-855.48"/>
</g>
<!-- Play Fade__33 -->
<g id="node49" class="node">
<title>Play Fade__33</title>
<polygon fill="#eeeeee" stroke="black" points="1935,-792.5 1935,-830.5 2051,-830.5 2051,-792.5 1935,-792.5"/>
<text text-anchor="start" x="1943" y="-815.3" font-family="monospace" font-size="14.00">EX_Return</text>
<text text-anchor="start" x="1943" y="-800.3" font-family="monospace" font-size="14.00">  EX_Nothing</text>
</g>
<!-- Play Fade__18&#45;&gt;Play Fade__33 -->
<g id="edge42" class="edge">
<title>Play Fade__18&#45;&gt;Play Fade__33</title>
<path fill="none" stroke="black" d="M1993,-979.76C1993,-947.87 1993,-880.55 1993,-841.74"/>
<polygon fill="black" stroke="black" points="1996.5,-841.97 1993,-831.97 1989.5,-841.97 1996.5,-841.97"/>
</g>
<!-- Play Fade__35 -->
<g id="node50" class="node">
<title>Play Fade__35</title>
<polygon fill="#eeeeee" stroke="black" points="3752,-348.5 3752,-384.5 3884,-384.5 3884,-348.5 3752,-348.5"/>
<text text-anchor="start" x="3760" y="-362.8" font-family="monospace" font-size="14.00">EX_EndOfScript</text>
</g>
</g>
</svg>
