<?xml version="1.0" encoding="UTF-8" standalone="no"?>
<!DOCTYPE svg PUBLIC "-//W3C//DTD SVG 1.1//EN"
 "http://www.w3.org/Graphics/SVG/1.1/DTD/svg11.dtd">
<!-- Generated by graphviz version 7.0.1 (0)
 -->
<!-- Pages: 1 -->
<svg width="3789pt" height="1277pt"
 viewBox="0.00 0.00 3789.00 1277.00" xmlns="http://www.w3.org/2000/svg" xmlns:xlink="http://www.w3.org/1999/xlink">
<g id="graph0" class="graph" transform="scale(1 1) rotate(0) translate(4 1273)">
<polygon fill="white" stroke="none" points="-4,4 -4,-1273 3785,-1273 3785,4 -4,4"/>
<!-- MatrixCore_Display_C -->
<g id="node1" class="node">
<title>MatrixCore_Display_C</title>
<polygon fill="#88ff88" stroke="black" points="0,-1095.5 0,-1268.5 850,-1268.5 850,-1095.5 0,-1095.5"/>
<text text-anchor="start" x="8" y="-1253.3" font-family="monospace" font-size="14.00">ClassExport: MatrixCore_Display_C</text>
<text text-anchor="start" x="8" y="-1238.3" font-family="monospace" font-size="14.00">  SuperStruct: import /Script/UMG&#45;&gt;UserWidget</text>
<text text-anchor="start" x="8" y="-1223.3" font-family="monospace" font-size="14.00">  Properties:</text>
<text text-anchor="start" x="8" y="-1208.3" font-family="monospace" font-size="14.00">    StructProperty UberGraphFrame</text>
<text text-anchor="start" x="8" y="-1193.3" font-family="monospace" font-size="14.00">      CPF_Transient|CPF_DuplicateTransient</text>
<text text-anchor="start" x="8" y="-1178.3" font-family="monospace" font-size="14.00">    ObjectProperty Image_55</text>
<text text-anchor="start" x="8" y="-1163.3" font-family="monospace" font-size="14.00">      CPF_BlueprintVisible|CPF_ExportObject|CPF_InstancedReference|CPF_RepSkip|CPF_PersistentInstance</text>
<text text-anchor="start" x="8" y="-1148.3" font-family="monospace" font-size="14.00">    ObjectProperty ITM_Overclock_Icon</text>
<text text-anchor="start" x="8" y="-1133.3" font-family="monospace" font-size="14.00">      CPF_BlueprintVisible|CPF_ExportObject|CPF_InstancedReference|CPF_RepSkip|CPF_PersistentInstance</text>
<text text-anchor="start" x="8" y="-1118.3" font-family="monospace" font-size="14.00">    ObjectProperty RetainerBox_234</text>
<text text-anchor="start" x="8" y="-1103.3" font-family="monospace" font-size="14.00">      CPF_BlueprintVisible|CPF_ExportObject|CPF_InstancedReference|CPF_RepSkip|CPF_PersistentInstance</text>
</g>
<!-- ExecuteUbergraph_MatrixCore_Display -->
<g id="node2" class="node">
<title>ExecuteUbergraph_MatrixCore_Display</title>
<polygon fill="#ff8888" stroke="black" points="868.5,-1110.5 868.5,-1253.5 1347.5,-1253.5 1347.5,-1110.5 868.5,-1110.5"/>
<text text-anchor="start" x="876.5" y="-1238.3" font-family="monospace" font-size="14.00">Function ExecuteUbergraph_MatrixCore_Display</text>
<text text-anchor="start" x="876.5" y="-1223.3" font-family="monospace" font-size="14.00">  IntProperty EntryPoint</text>
<text text-anchor="start" x="876.5" y="-1208.3" font-family="monospace" font-size="14.00">    CPF_BlueprintVisible|CPF_BlueprintReadOnly|CPF_Parm</text>
<text text-anchor="start" x="876.5" y="-1193.3" font-family="monospace" font-size="14.00">  ObjectProperty K2Node_CustomEvent_InSchematic</text>
<text text-anchor="start" x="876.5" y="-1178.3" font-family="monospace" font-size="14.00">  BoolProperty CallFunc_IsValid_ReturnValue</text>
<text text-anchor="start" x="876.5" y="-1163.3" font-family="monospace" font-size="14.00">  BoolProperty K2Node_Event_IsDesignTime</text>
<text text-anchor="start" x="876.5" y="-1148.3" font-family="monospace" font-size="14.00">  ObjectProperty CallFunc_LoadAsset_Blocking_ReturnValue</text>
<text text-anchor="start" x="876.5" y="-1133.3" font-family="monospace" font-size="14.00">  ObjectProperty K2Node_DynamicCast_AsSchematic</text>
<text text-anchor="start" x="876.5" y="-1118.3" font-family="monospace" font-size="14.00">  BoolProperty K2Node_DynamicCast_bSuccess</text>
</g>
<!-- ExecuteUbergraph_MatrixCore_Display__0 -->
<g id="node3" class="node">
<title>ExecuteUbergraph_MatrixCore_Display__0</title>
<polygon fill="#eeeeee" stroke="black" points="1000.5,-984.5 1000.5,-1020.5 1215.5,-1020.5 1215.5,-984.5 1000.5,-984.5"/>
<text text-anchor="start" x="1008.5" y="-998.8" font-family="monospace" font-size="14.00">EX_PushExecutionFlow 434</text>
</g>
<!-- ExecuteUbergraph_MatrixCore_Display&#45;&gt;ExecuteUbergraph_MatrixCore_Display__0 -->
<g id="edge1" class="edge">
<title>ExecuteUbergraph_MatrixCore_Display&#45;&gt;ExecuteUbergraph_MatrixCore_Display__0</title>
<path fill="none" stroke="black" d="M1108,-1110.59C1108,-1083.08 1108,-1053.11 1108,-1031.89"/>
<polygon fill="black" stroke="black" points="1111.5,-1032.01 1108,-1022.01 1104.5,-1032.01 1111.5,-1032.01"/>
</g>
<!-- ExecuteUbergraph_MatrixCore_Display__5 -->
<g id="node4" class="node">
<title>ExecuteUbergraph_MatrixCore_Display__5</title>
<polygon fill="#eeeeee" stroke="black" points="920,-871.5 920,-909.5 1192,-909.5 1192,-871.5 920,-871.5"/>
<text text-anchor="start" x="928" y="-894.3" font-family="monospace" font-size="14.00">EX_ComputedJump</text>
<text text-anchor="start" x="928" y="-879.3" font-family="monospace" font-size="14.00">  EX_LocalVariable [EntryPoint]</text>
</g>
<!-- ExecuteUbergraph_MatrixCore_Display__0&#45;&gt;ExecuteUbergraph_MatrixCore_Display__5 -->
<g id="edge3" class="edge">
<title>ExecuteUbergraph_MatrixCore_Display__0&#45;&gt;ExecuteUbergraph_MatrixCore_Display__5</title>
<path fill="none" stroke="black" d="M1100.1,-984.79C1091.96,-967.57 1079.12,-940.41 1069.39,-919.83"/>
<polygon fill="black" stroke="black" points="1072.58,-918.38 1065.14,-910.83 1066.25,-921.37 1072.58,-918.38"/>
</g>
<!-- ExecuteUbergraph_MatrixCore_Display__434 -->
<g id="node19" class="node">
<title>ExecuteUbergraph_MatrixCore_Display__434</title>
<polygon fill="#eeeeee" stroke="black" points="1210,-871.5 1210,-909.5 1326,-909.5 1326,-871.5 1210,-871.5"/>
<text text-anchor="start" x="1218" y="-894.3" font-family="monospace" font-size="14.00">EX_Return</text>
<text text-anchor="start" x="1218" y="-879.3" font-family="monospace" font-size="14.00">  EX_Nothing</text>
</g>
<!-- ExecuteUbergraph_MatrixCore_Display__0&#45;&gt;ExecuteUbergraph_MatrixCore_Display__434 -->
<g id="edge2" class="edge">
<title>ExecuteUbergraph_MatrixCore_Display__0:e&#45;&gt;ExecuteUbergraph_MatrixCore_Display__434</title>
<path fill="none" stroke="red" d="M1217,-1002.5C1253.08,-1002.5 1263.73,-953.49 1266.81,-920.6"/>
<polygon fill="none" stroke="red" points="1270.29,-921.07 1267.53,-910.84 1263.31,-920.56 1270.29,-921.07"/>
<text text-anchor="middle" x="1307.5" y="-942.8" font-family="monospace" font-size="14.00">PUSH STACK</text>
</g>
<!-- ExecuteUbergraph_MatrixCore_Display__15 -->
<g id="node5" class="node">
<title>ExecuteUbergraph_MatrixCore_Display__15</title>
<polygon fill="#eeeeee" stroke="black" points="2157,-497.5 2157,-595.5 2611,-595.5 2611,-497.5 2157,-497.5"/>
<text text-anchor="start" x="2165" y="-580.3" font-family="monospace" font-size="14.00">EX_Context</text>
<text text-anchor="start" x="2165" y="-565.3" font-family="monospace" font-size="14.00">  EX_InstanceVariable [ITM_Overclock_Icon]</text>
<text text-anchor="start" x="2165" y="-550.3" font-family="monospace" font-size="14.00">  EX_LocalVirtualFunction FromSchematic</text>
<text text-anchor="start" x="2165" y="-535.3" font-family="monospace" font-size="14.00">    EX_LocalVariable [K2Node_CustomEvent_InSchematic]</text>
<text text-anchor="start" x="2165" y="-520.3" font-family="monospace" font-size="14.00">    EX_False</text>
<text text-anchor="start" x="2165" y="-505.3" font-family="monospace" font-size="14.00">  RValue = []</text>
</g>
<!-- ExecuteUbergraph_MatrixCore_Display__61 -->
<g id="node6" class="node">
<title>ExecuteUbergraph_MatrixCore_Display__61</title>
<polygon fill="#eeeeee" stroke="black" points="2107.5,-391.5 2107.5,-459.5 2660.5,-459.5 2660.5,-391.5 2107.5,-391.5"/>
<text text-anchor="start" x="2115.5" y="-444.3" font-family="monospace" font-size="14.00">EX_LetBool</text>
<text text-anchor="start" x="2115.5" y="-429.3" font-family="monospace" font-size="14.00">  EX_LocalVariable [CallFunc_IsValid_ReturnValue]</text>
<text text-anchor="start" x="2115.5" y="-414.3" font-family="monospace" font-size="14.00">  EX_CallMath import /Script/Engine&#45;&gt;KismetSystemLibrary&#45;&gt;IsValid</text>
<text text-anchor="start" x="2115.5" y="-399.3" font-family="monospace" font-size="14.00">    EX_LocalVariable [K2Node_CustomEvent_InSchematic]</text>
</g>
<!-- ExecuteUbergraph_MatrixCore_Display__15&#45;&gt;ExecuteUbergraph_MatrixCore_Display__61 -->
<g id="edge4" class="edge">
<title>ExecuteUbergraph_MatrixCore_Display__15&#45;&gt;ExecuteUbergraph_MatrixCore_Display__61</title>
<path fill="none" stroke="black" d="M2384,-497.78C2384,-488.79 2384,-479.43 2384,-470.55"/>
<polygon fill="black" stroke="black" points="2387.5,-470.76 2384,-460.76 2380.5,-470.76 2387.5,-470.76"/>
</g>
<!-- ExecuteUbergraph_MatrixCore_Display__90 -->
<g id="node7" class="node">
<title>ExecuteUbergraph_MatrixCore_Display__90</title>
<polygon fill="#eeeeee" stroke="black" points="2173.5,-300.5 2173.5,-338.5 2594.5,-338.5 2594.5,-300.5 2173.5,-300.5"/>
<text text-anchor="start" x="2181.5" y="-323.3" font-family="monospace" font-size="14.00">EX_PopExecutionFlowIfNot</text>
<text text-anchor="start" x="2181.5" y="-308.3" font-family="monospace" font-size="14.00">  EX_LocalVariable [CallFunc_IsValid_ReturnValue]</text>
</g>
<!-- ExecuteUbergraph_MatrixCore_Display__61&#45;&gt;ExecuteUbergraph_MatrixCore_Display__90 -->
<g id="edge5" class="edge">
<title>ExecuteUbergraph_MatrixCore_Display__61&#45;&gt;ExecuteUbergraph_MatrixCore_Display__90</title>
<path fill="none" stroke="black" d="M2384,-391.59C2384,-378.11 2384,-362.63 2384,-349.57"/>
<polygon fill="black" stroke="black" points="2387.5,-349.89 2384,-339.89 2380.5,-349.89 2387.5,-349.89"/>
</g>
<!-- ExecuteUbergraph_MatrixCore_Display__100 -->
<g id="node8" class="node">
<title>ExecuteUbergraph_MatrixCore_Display__100</title>
<polygon fill="#eeeeee" stroke="black" points="2111.5,-74.5 2111.5,-247.5 2656.5,-247.5 2656.5,-74.5 2111.5,-74.5"/>
<text text-anchor="start" x="2119.5" y="-232.3" font-family="monospace" font-size="14.00">EX_Context</text>
<text text-anchor="start" x="2119.5" y="-217.3" font-family="monospace" font-size="14.00">  EX_InstanceVariable [Image_55]</text>
<text text-anchor="start" x="2119.5" y="-202.3" font-family="monospace" font-size="14.00">  EX_FinalFunction import /Script/UMG&#45;&gt;Image&#45;&gt;SetColorAndOpacity</text>
<text text-anchor="start" x="2119.5" y="-187.3" font-family="monospace" font-size="14.00">    EX_Context</text>
<text text-anchor="start" x="2119.5" y="-172.3" font-family="monospace" font-size="14.00">      EX_Context</text>
<text text-anchor="start" x="2119.5" y="-157.3" font-family="monospace" font-size="14.00">        EX_LocalVariable [K2Node_CustomEvent_InSchematic]</text>
<text text-anchor="start" x="2119.5" y="-142.3" font-family="monospace" font-size="14.00">        EX_InstanceVariable [Category]</text>
<text text-anchor="start" x="2119.5" y="-127.3" font-family="monospace" font-size="14.00">        RValue = [Category]</text>
<text text-anchor="start" x="2119.5" y="-112.3" font-family="monospace" font-size="14.00">      EX_InstanceVariable [BackgroundTint]</text>
<text text-anchor="start" x="2119.5" y="-97.3" font-family="monospace" font-size="14.00">      RValue = [BackgroundTint]</text>
<text text-anchor="start" x="2119.5" y="-82.3" font-family="monospace" font-size="14.00">  RValue = []</text>
</g>
<!-- ExecuteUbergraph_MatrixCore_Display__90&#45;&gt;ExecuteUbergraph_MatrixCore_Display__100 -->
<g id="edge6" class="edge">
<title>ExecuteUbergraph_MatrixCore_Display__90&#45;&gt;ExecuteUbergraph_MatrixCore_Display__100</title>
<path fill="none" stroke="black" d="M2384,-300.55C2384,-289.59 2384,-274.62 2384,-258.57"/>
<polygon fill="black" stroke="black" points="2387.5,-258.83 2384,-248.83 2380.5,-258.83 2387.5,-258.83"/>
</g>
<!-- ExecuteUbergraph_MatrixCore_Display__185 -->
<g id="node9" class="node">
<title>ExecuteUbergraph_MatrixCore_Display__185</title>
<polygon fill="#eeeeee" stroke="black" points="2297.5,-0.5 2297.5,-36.5 2470.5,-36.5 2470.5,-0.5 2297.5,-0.5"/>
<text text-anchor="start" x="2305.5" y="-14.8" font-family="monospace" font-size="14.00">EX_PopExecutionFlow</text>
</g>
<!-- ExecuteUbergraph_MatrixCore_Display__100&#45;&gt;ExecuteUbergraph_MatrixCore_Display__185 -->
<g id="edge7" class="edge">
<title>ExecuteUbergraph_MatrixCore_Display__100&#45;&gt;ExecuteUbergraph_MatrixCore_Display__185</title>
<path fill="none" stroke="black" d="M2384,-74.63C2384,-64.86 2384,-55.5 2384,-47.35"/>
<polygon fill="black" stroke="black" points="2387.5,-47.54 2384,-37.54 2380.5,-47.54 2387.5,-47.54"/>
</g>
<!-- ExecuteUbergraph_MatrixCore_Display__186 -->
<g id="node10" class="node">
<title>ExecuteUbergraph_MatrixCore_Display__186</title>
<polygon fill="#eeeeee" stroke="black" points="1810,-669.5 1810,-797.5 2330,-797.5 2330,-669.5 1810,-669.5"/>
<text text-anchor="start" x="1818" y="-782.3" font-family="monospace" font-size="14.00">EX_CallMath import /Script/Engine&#45;&gt;KismetSystemLibrary&#45;&gt;Delay</text>
<text text-anchor="start" x="1818" y="-767.3" font-family="monospace" font-size="14.00">  EX_Self</text>
<text text-anchor="start" x="1818" y="-752.3" font-family="monospace" font-size="14.00">  EX_FloatConst 0.0001</text>
<text text-anchor="start" x="1818" y="-737.3" font-family="monospace" font-size="14.00">  EX_StructConst import /Script/Engine&#45;&gt;LatentActionInfo</text>
<text text-anchor="start" x="1818" y="-722.3" font-family="monospace" font-size="14.00">    EX_SkipOffsetConst 15</text>
<text text-anchor="start" x="1818" y="-707.3" font-family="monospace" font-size="14.00">    EX_IntConst 2057425589</text>
<text text-anchor="start" x="1818" y="-692.3" font-family="monospace" font-size="14.00">    EX_NameConst ExecuteUbergraph_MatrixCore_Display</text>
<text text-anchor="start" x="1818" y="-677.3" font-family="monospace" font-size="14.00">    EX_Self</text>
</g>
<!-- ExecuteUbergraph_MatrixCore_Display__186&#45;&gt;ExecuteUbergraph_MatrixCore_Display__15 -->
<g id="edge8" class="edge">
<title>ExecuteUbergraph_MatrixCore_Display__186:e&#45;&gt;ExecuteUbergraph_MatrixCore_Display__15</title>
<path fill="none" stroke="red" d="M2331,-733.5C2384.6,-733.5 2391.96,-661.17 2389.91,-606.72"/>
<polygon fill="none" stroke="red" points="2393.41,-606.72 2389.42,-596.91 2386.42,-607.07 2393.41,-606.72"/>
</g>
<!-- ExecuteUbergraph_MatrixCore_Display__240 -->
<g id="node11" class="node">
<title>ExecuteUbergraph_MatrixCore_Display__240</title>
<polygon fill="#eeeeee" stroke="black" points="1965.5,-528.5 1965.5,-564.5 2138.5,-564.5 2138.5,-528.5 1965.5,-528.5"/>
<text text-anchor="start" x="1973.5" y="-542.8" font-family="monospace" font-size="14.00">EX_PopExecutionFlow</text>
</g>
<!-- ExecuteUbergraph_MatrixCore_Display__186&#45;&gt;ExecuteUbergraph_MatrixCore_Display__240 -->
<g id="edge9" class="edge">
<title>ExecuteUbergraph_MatrixCore_Display__186&#45;&gt;ExecuteUbergraph_MatrixCore_Display__240</title>
<path fill="none" stroke="black" d="M2063.88,-669.61C2060.76,-637.56 2057.13,-600.22 2054.71,-575.34"/>
<polygon fill="black" stroke="black" points="2058.22,-575.33 2053.77,-565.72 2051.26,-576.01 2058.22,-575.33"/>
</g>
<!-- ExecuteUbergraph_MatrixCore_Display__241 -->
<g id="node12" class="node">
<title>ExecuteUbergraph_MatrixCore_Display__241</title>
<polygon fill="#eeeeee" stroke="black" points="2815,-714.5 2815,-752.5 3211,-752.5 3211,-714.5 2815,-714.5"/>
<text text-anchor="start" x="2823" y="-737.3" font-family="monospace" font-size="14.00">EX_PopExecutionFlowIfNot</text>
<text text-anchor="start" x="2823" y="-722.3" font-family="monospace" font-size="14.00">  EX_LocalVariable [K2Node_Event_IsDesignTime]</text>
</g>
<!-- ExecuteUbergraph_MatrixCore_Display__251 -->
<g id="node13" class="node">
<title>ExecuteUbergraph_MatrixCore_Display__251</title>
<polygon fill="#eeeeee" stroke="black" points="2629.5,-505 2629.5,-588 3396.5,-588 3396.5,-505 2629.5,-505"/>
<text text-anchor="start" x="2637.5" y="-572.8" font-family="monospace" font-size="14.00">EX_LetObj</text>
<text text-anchor="start" x="2637.5" y="-557.8" font-family="monospace" font-size="14.00">  EX_LocalVariable [CallFunc_LoadAsset_Blocking_ReturnValue]</text>
<text text-anchor="start" x="2637.5" y="-542.8" font-family="monospace" font-size="14.00">  EX_CallMath import /Script/Engine&#45;&gt;KismetSystemLibrary&#45;&gt;LoadAsset_Blocking</text>
<text text-anchor="start" x="2637.5" y="-527.8" font-family="monospace" font-size="14.00">    EX_SoftObjectConst UAssetAPI.Kismet.Bytecode.Expressions.EX_StringConst</text>
<text text-anchor="start" x="2637.5" y="-512.8" font-family="monospace" font-size="14.00">      EX_StringConst /Game/GameElements/Schematics/ResourceSchematics/SCE_Croppa.SCE_Croppa</text>
</g>
<!-- ExecuteUbergraph_MatrixCore_Display__241&#45;&gt;ExecuteUbergraph_MatrixCore_Display__251 -->
<g id="edge10" class="edge">
<title>ExecuteUbergraph_MatrixCore_Display__241&#45;&gt;ExecuteUbergraph_MatrixCore_Display__251</title>
<path fill="none" stroke="black" d="M3013,-714.76C3013,-688.34 3013,-637.61 3013,-598.92"/>
<polygon fill="black" stroke="black" points="3016.5,-599.36 3013,-589.36 3009.5,-599.36 3016.5,-599.36"/>
</g>
<!-- ExecuteUbergraph_MatrixCore_Display__344 -->
<g id="node14" class="node">
<title>ExecuteUbergraph_MatrixCore_Display__344</title>
<polygon fill="#eeeeee" stroke="black" points="2749,-391.5 2749,-459.5 3277,-459.5 3277,-391.5 2749,-391.5"/>
<text text-anchor="start" x="2757" y="-444.3" font-family="monospace" font-size="14.00">EX_Let</text>
<text text-anchor="start" x="2757" y="-429.3" font-family="monospace" font-size="14.00">  EX_LocalVariable [K2Node_DynamicCast_AsSchematic]</text>
<text text-anchor="start" x="2757" y="-414.3" font-family="monospace" font-size="14.00">  EX_DynamicCast import /Script/FSD&#45;&gt;Schematic</text>
<text text-anchor="start" x="2757" y="-399.3" font-family="monospace" font-size="14.00">    EX_LocalVariable [CallFunc_LoadAsset_Blocking_ReturnValue]</text>
</g>
<!-- ExecuteUbergraph_MatrixCore_Display__251&#45;&gt;ExecuteUbergraph_MatrixCore_Display__344 -->
<g id="edge11" class="edge">
<title>ExecuteUbergraph_MatrixCore_Display__251&#45;&gt;ExecuteUbergraph_MatrixCore_Display__344</title>
<path fill="none" stroke="black" d="M3013,-505.21C3013,-494.1 3013,-481.99 3013,-470.67"/>
<polygon fill="black" stroke="black" points="3016.5,-470.76 3013,-460.76 3009.5,-470.76 3016.5,-470.76"/>
</g>
<!-- ExecuteUbergraph_MatrixCore_Display__380 -->
<g id="node15" class="node">
<title>ExecuteUbergraph_MatrixCore_Display__380</title>
<polygon fill="#eeeeee" stroke="black" points="2786,-285.5 2786,-353.5 3240,-353.5 3240,-285.5 2786,-285.5"/>
<text text-anchor="start" x="2794" y="-338.3" font-family="monospace" font-size="14.00">EX_Let</text>
<text text-anchor="start" x="2794" y="-323.3" font-family="monospace" font-size="14.00">  EX_LocalVariable [K2Node_DynamicCast_bSuccess]</text>
<text text-anchor="start" x="2794" y="-308.3" font-family="monospace" font-size="14.00">  EX_PrimitiveCast ObjectToBool</text>
<text text-anchor="start" x="2794" y="-293.3" font-family="monospace" font-size="14.00">    EX_LocalVariable [K2Node_DynamicCast_AsSchematic]</text>
</g>
<!-- ExecuteUbergraph_MatrixCore_Display__344&#45;&gt;ExecuteUbergraph_MatrixCore_Display__380 -->
<g id="edge12" class="edge">
<title>ExecuteUbergraph_MatrixCore_Display__344&#45;&gt;ExecuteUbergraph_MatrixCore_Display__380</title>
<path fill="none" stroke="black" d="M3013,-391.59C3013,-382.97 3013,-373.54 3013,-364.45"/>
<polygon fill="black" stroke="black" points="3016.5,-364.71 3013,-354.71 3009.5,-364.71 3016.5,-364.71"/>
</g>
<!-- ExecuteUbergraph_MatrixCore_Display__409 -->
<g id="node16" class="node">
<title>ExecuteUbergraph_MatrixCore_Display__409</title>
<polygon fill="#eeeeee" stroke="black" points="2794.5,-142 2794.5,-180 3231.5,-180 3231.5,-142 2794.5,-142"/>
<text text-anchor="start" x="2802.5" y="-164.8" font-family="monospace" font-size="14.00">EX_LocalVirtualFunction SetSchematic</text>
<text text-anchor="start" x="2802.5" y="-149.8" font-family="monospace" font-size="14.00">  EX_LocalVariable [K2Node_DynamicCast_AsSchematic]</text>
</g>
<!-- ExecuteUbergraph_MatrixCore_Display__380&#45;&gt;ExecuteUbergraph_MatrixCore_Display__409 -->
<g id="edge13" class="edge">
<title>ExecuteUbergraph_MatrixCore_Display__380&#45;&gt;ExecuteUbergraph_MatrixCore_Display__409</title>
<path fill="none" stroke="black" d="M3013,-285.69C3013,-257.71 3013,-217.87 3013,-191.03"/>
<polygon fill="black" stroke="black" points="3016.5,-191.21 3013,-181.21 3009.5,-191.21 3016.5,-191.21"/>
</g>
<!-- ExecuteUbergraph_MatrixCore_Display__432 -->
<g id="node17" class="node">
<title>ExecuteUbergraph_MatrixCore_Display__432</title>
<polygon fill="#eeeeee" stroke="black" points="2926.5,-0.5 2926.5,-36.5 3099.5,-36.5 3099.5,-0.5 2926.5,-0.5"/>
<text text-anchor="start" x="2934.5" y="-14.8" font-family="monospace" font-size="14.00">EX_PopExecutionFlow</text>
</g>
<!-- ExecuteUbergraph_MatrixCore_Display__409&#45;&gt;ExecuteUbergraph_MatrixCore_Display__432 -->
<g id="edge14" class="edge">
<title>ExecuteUbergraph_MatrixCore_Display__409&#45;&gt;ExecuteUbergraph_MatrixCore_Display__432</title>
<path fill="none" stroke="black" d="M3013,-142.21C3013,-118.41 3013,-75.95 3013,-47.75"/>
<polygon fill="black" stroke="black" points="3016.5,-47.79 3013,-37.79 3009.5,-47.79 3016.5,-47.79"/>
</g>
<!-- ExecuteUbergraph_MatrixCore_Display__433 -->
<g id="node18" class="node">
<title>ExecuteUbergraph_MatrixCore_Display__433</title>
<polygon fill="#eeeeee" stroke="black" points="3547.5,-872.5 3547.5,-908.5 3720.5,-908.5 3720.5,-872.5 3547.5,-872.5"/>
<text text-anchor="start" x="3555.5" y="-886.8" font-family="monospace" font-size="14.00">EX_PopExecutionFlow</text>
</g>
<!-- ExecuteUbergraph_MatrixCore_Display__436 -->
<g id="node20" class="node">
<title>ExecuteUbergraph_MatrixCore_Display__436</title>
<polygon fill="#eeeeee" stroke="black" points="3286,-1040.5 3286,-1076.5 3418,-1076.5 3418,-1040.5 3286,-1040.5"/>
<text text-anchor="start" x="3294" y="-1054.8" font-family="monospace" font-size="14.00">EX_EndOfScript</text>
</g>
<!-- Construct -->
<g id="node21" class="node">
<title>Construct</title>
<polygon fill="#ff8888" stroke="black" points="3188.5,-1164 3188.5,-1200 3353.5,-1200 3353.5,-1164 3188.5,-1164"/>
<text text-anchor="start" x="3196.5" y="-1178.3" font-family="monospace" font-size="14.00">Function Construct</text>
</g>
<!-- Construct__0 -->
<g id="node22" class="node">
<title>Construct__0</title>
<polygon fill="#eeeeee" stroke="black" points="2908,-983.5 2908,-1021.5 3634,-1021.5 3634,-983.5 2908,-983.5"/>
<text text-anchor="start" x="2916" y="-1006.3" font-family="monospace" font-size="14.00">EX_LocalFinalFunction export MatrixCore_Display_C&#45;&gt;ExecuteUbergraph_MatrixCore_Display</text>
<text text-anchor="start" x="2916" y="-991.3" font-family="monospace" font-size="14.00">  EX_IntConst 433</text>
</g>
<!-- Construct&#45;&gt;Construct__0 -->
<g id="edge15" class="edge">
<title>Construct&#45;&gt;Construct__0</title>
<path fill="none" stroke="black" d="M3271,-1164.3C3271,-1134.09 3271,-1070 3271,-1032.5"/>
<polygon fill="black" stroke="black" points="3274.5,-1032.85 3271,-1022.85 3267.5,-1032.85 3274.5,-1032.85"/>
</g>
<!-- Construct__0&#45;&gt;ExecuteUbergraph_MatrixCore_Display__433 -->
<g id="edge16" class="edge">
<title>Construct__0:e&#45;&gt;ExecuteUbergraph_MatrixCore_Display__433</title>
<path fill="none" stroke="red" d="M3635,-1002.5C3651.56,-1002.5 3645.43,-952.46 3639.62,-919.57"/>
<polygon fill="none" stroke="red" points="3643.08,-919.04 3637.81,-909.85 3636.2,-920.32 3643.08,-919.04"/>
</g>
<!-- Construct__15 -->
<g id="node23" class="node">
<title>Construct__15</title>
<polygon fill="#eeeeee" stroke="black" points="3213,-871.5 3213,-909.5 3329,-909.5 3329,-871.5 3213,-871.5"/>
<text text-anchor="start" x="3221" y="-894.3" font-family="monospace" font-size="14.00">EX_Return</text>
<text text-anchor="start" x="3221" y="-879.3" font-family="monospace" font-size="14.00">  EX_Nothing</text>
</g>
<!-- Construct__0&#45;&gt;Construct__15 -->
<g id="edge17" class="edge">
<title>Construct__0&#45;&gt;Construct__15</title>
<path fill="none" stroke="black" d="M3271,-983.83C3271,-966.85 3271,-940.88 3271,-920.81"/>
<polygon fill="black" stroke="black" points="3274.5,-921.01 3271,-911.01 3267.5,-921.01 3274.5,-921.01"/>
</g>
<!-- Construct__17 -->
<g id="node24" class="node">
<title>Construct__17</title>
<polygon fill="#eeeeee" stroke="black" points="3649,-928.5 3649,-964.5 3781,-964.5 3781,-928.5 3649,-928.5"/>
<text text-anchor="start" x="3657" y="-942.8" font-family="monospace" font-size="14.00">EX_EndOfScript</text>
</g>
<!-- PreConstruct -->
<g id="node25" class="node">
<title>PreConstruct</title>
<polygon fill="#ff8888" stroke="black" points="2415,-1155.5 2415,-1208.5 2885,-1208.5 2885,-1155.5 2415,-1155.5"/>
<text text-anchor="start" x="2423" y="-1193.3" font-family="monospace" font-size="14.00">Function PreConstruct</text>
<text text-anchor="start" x="2423" y="-1178.3" font-family="monospace" font-size="14.00">  BoolProperty IsDesignTime</text>
<text text-anchor="start" x="2423" y="-1163.3" font-family="monospace" font-size="14.00">    CPF_BlueprintVisible|CPF_BlueprintReadOnly|CPF_Parm</text>
</g>
<!-- PreConstruct__0 -->
<g id="node26" class="node">
<title>PreConstruct__0</title>
<polygon fill="#eeeeee" stroke="black" points="2410.5,-983.5 2410.5,-1021.5 2889.5,-1021.5 2889.5,-983.5 2410.5,-983.5"/>
<text text-anchor="start" x="2418.5" y="-1006.3" font-family="monospace" font-size="14.00">EX_LetValueOnPersistentFrame [K2Node_Event_IsDesignTime]</text>
<text text-anchor="start" x="2418.5" y="-991.3" font-family="monospace" font-size="14.00">  EX_LocalVariable [IsDesignTime]</text>
</g>
<!-- PreConstruct&#45;&gt;PreConstruct__0 -->
<g id="edge18" class="edge">
<title>PreConstruct&#45;&gt;PreConstruct__0</title>
<path fill="none" stroke="black" d="M2650,-1155.57C2650,-1122.98 2650,-1066.64 2650,-1032.44"/>
<polygon fill="black" stroke="black" points="2653.5,-1032.86 2650,-1022.86 2646.5,-1032.86 2653.5,-1032.86"/>
</g>
<!-- PreConstruct__18 -->
<g id="node27" class="node">
<title>PreConstruct__18</title>
<polygon fill="#eeeeee" stroke="black" points="2287,-871.5 2287,-909.5 3013,-909.5 3013,-871.5 2287,-871.5"/>
<text text-anchor="start" x="2295" y="-894.3" font-family="monospace" font-size="14.00">EX_LocalFinalFunction export MatrixCore_Display_C&#45;&gt;ExecuteUbergraph_MatrixCore_Display</text>
<text text-anchor="start" x="2295" y="-879.3" font-family="monospace" font-size="14.00">  EX_IntConst 241</text>
</g>
<!-- PreConstruct__0&#45;&gt;PreConstruct__18 -->
<g id="edge19" class="edge">
<title>PreConstruct__0&#45;&gt;PreConstruct__18</title>
<path fill="none" stroke="black" d="M2650,-983.83C2650,-966.85 2650,-940.88 2650,-920.81"/>
<polygon fill="black" stroke="black" points="2653.5,-921.01 2650,-911.01 2646.5,-921.01 2653.5,-921.01"/>
</g>
<!-- PreConstruct__18&#45;&gt;ExecuteUbergraph_MatrixCore_Display__241 -->
<g id="edge20" class="edge">
<title>PreConstruct__18:e&#45;&gt;ExecuteUbergraph_MatrixCore_Display__241</title>
<path fill="none" stroke="red" d="M3014,-890.5C3026.53,-890.5 3020.42,-809 3016.08,-763.82"/>
<polygon fill="none" stroke="red" points="3019.56,-763.51 3015.09,-753.9 3012.6,-764.2 3019.56,-763.51"/>
</g>
<!-- PreConstruct__33 -->
<g id="node28" class="node">
<title>PreConstruct__33</title>
<polygon fill="#eeeeee" stroke="black" points="2592,-714.5 2592,-752.5 2708,-752.5 2708,-714.5 2592,-714.5"/>
<text text-anchor="start" x="2600" y="-737.3" font-family="monospace" font-size="14.00">EX_Return</text>
<text text-anchor="start" x="2600" y="-722.3" font-family="monospace" font-size="14.00">  EX_Nothing</text>
</g>
<!-- PreConstruct__18&#45;&gt;PreConstruct__33 -->
<g id="edge21" class="edge">
<title>PreConstruct__18&#45;&gt;PreConstruct__33</title>
<path fill="none" stroke="black" d="M2650,-871.72C2650,-845.21 2650,-795.04 2650,-763.26"/>
<polygon fill="black" stroke="black" points="2653.5,-763.59 2650,-753.59 2646.5,-763.59 2653.5,-763.59"/>
</g>
<!-- PreConstruct__35 -->
<g id="node29" class="node">
<title>PreConstruct__35</title>
<polygon fill="#eeeeee" stroke="black" points="3028,-816.5 3028,-852.5 3160,-852.5 3160,-816.5 3028,-816.5"/>
<text text-anchor="start" x="3036" y="-830.8" font-family="monospace" font-size="14.00">EX_EndOfScript</text>
</g>
<!-- SetSchematic -->
<g id="node30" class="node">
<title>SetSchematic</title>
<polygon fill="#ff8888" stroke="black" points="1472,-1155.5 1472,-1208.5 1942,-1208.5 1942,-1155.5 1472,-1155.5"/>
<text text-anchor="start" x="1480" y="-1193.3" font-family="monospace" font-size="14.00">Function SetSchematic</text>
<text text-anchor="start" x="1480" y="-1178.3" font-family="monospace" font-size="14.00">  ObjectProperty InSchematic</text>
<text text-anchor="start" x="1480" y="-1163.3" font-family="monospace" font-size="14.00">    CPF_BlueprintVisible|CPF_BlueprintReadOnly|CPF_Parm</text>
</g>
<!-- SetSchematic__0 -->
<g id="node31" class="node">
<title>SetSchematic__0</title>
<polygon fill="#eeeeee" stroke="black" points="1447,-983.5 1447,-1021.5 1967,-1021.5 1967,-983.5 1447,-983.5"/>
<text text-anchor="start" x="1455" y="-1006.3" font-family="monospace" font-size="14.00">EX_LetValueOnPersistentFrame [K2Node_CustomEvent_InSchematic]</text>
<text text-anchor="start" x="1455" y="-991.3" font-family="monospace" font-size="14.00">  EX_LocalVariable [InSchematic]</text>
</g>
<!-- SetSchematic&#45;&gt;SetSchematic__0 -->
<g id="edge22" class="edge">
<title>SetSchematic&#45;&gt;SetSchematic__0</title>
<path fill="none" stroke="black" d="M1707,-1155.57C1707,-1122.98 1707,-1066.64 1707,-1032.44"/>
<polygon fill="black" stroke="black" points="1710.5,-1032.86 1707,-1022.86 1703.5,-1032.86 1710.5,-1032.86"/>
</g>
<!-- SetSchematic__18 -->
<g id="node32" class="node">
<title>SetSchematic__18</title>
<polygon fill="#eeeeee" stroke="black" points="1344,-871.5 1344,-909.5 2070,-909.5 2070,-871.5 1344,-871.5"/>
<text text-anchor="start" x="1352" y="-894.3" font-family="monospace" font-size="14.00">EX_LocalFinalFunction export MatrixCore_Display_C&#45;&gt;ExecuteUbergraph_MatrixCore_Display</text>
<text text-anchor="start" x="1352" y="-879.3" font-family="monospace" font-size="14.00">  EX_IntConst 186</text>
</g>
<!-- SetSchematic__0&#45;&gt;SetSchematic__18 -->
<g id="edge23" class="edge">
<title>SetSchematic__0&#45;&gt;SetSchematic__18</title>
<path fill="none" stroke="black" d="M1707,-983.83C1707,-966.85 1707,-940.88 1707,-920.81"/>
<polygon fill="black" stroke="black" points="1710.5,-921.01 1707,-911.01 1703.5,-921.01 1710.5,-921.01"/>
</g>
<!-- SetSchematic__18&#45;&gt;ExecuteUbergraph_MatrixCore_Display__186 -->
<g id="edge24" class="edge">
<title>SetSchematic__18:e&#45;&gt;ExecuteUbergraph_MatrixCore_Display__186</title>
<path fill="none" stroke="red" d="M2071,-890.5C2106.97,-890.5 2105.35,-848.51 2095.46,-808.09"/>
<polygon fill="none" stroke="red" points="2098.87,-807.3 2092.94,-798.52 2092.1,-809.08 2098.87,-807.3"/>
</g>
<!-- SetSchematic__33 -->
<g id="node33" class="node">
<title>SetSchematic__33</title>
<polygon fill="#eeeeee" stroke="black" points="1649,-714.5 1649,-752.5 1765,-752.5 1765,-714.5 1649,-714.5"/>
<text text-anchor="start" x="1657" y="-737.3" font-family="monospace" font-size="14.00">EX_Return</text>
<text text-anchor="start" x="1657" y="-722.3" font-family="monospace" font-size="14.00">  EX_Nothing</text>
</g>
<!-- SetSchematic__18&#45;&gt;SetSchematic__33 -->
<g id="edge25" class="edge">
<title>SetSchematic__18&#45;&gt;SetSchematic__33</title>
<path fill="none" stroke="black" d="M1707,-871.72C1707,-845.21 1707,-795.04 1707,-763.26"/>
<polygon fill="black" stroke="black" points="1710.5,-763.59 1707,-753.59 1703.5,-763.59 1710.5,-763.59"/>
</g>
<!-- SetSchematic__35 -->
<g id="node34" class="node">
<title>SetSchematic__35</title>
<polygon fill="#eeeeee" stroke="black" points="3028,-614.5 3028,-650.5 3160,-650.5 3160,-614.5 3028,-614.5"/>
<text text-anchor="start" x="3036" y="-628.8" font-family="monospace" font-size="14.00">EX_EndOfScript</text>
</g>
</g>
</svg>
