<?xml version="1.0" encoding="UTF-8" standalone="no"?>
<!DOCTYPE svg PUBLIC "-//W3C//DTD SVG 1.1//EN"
 "http://www.w3.org/Graphics/SVG/1.1/DTD/svg11.dtd">
<!-- Generated by graphviz version 7.0.1 (0)
 -->
<!-- Pages: 1 -->
<svg width="1476pt" height="437pt"
 viewBox="0.00 0.00 1475.50 437.00" xmlns="http://www.w3.org/2000/svg" xmlns:xlink="http://www.w3.org/1999/xlink">
<g id="graph0" class="graph" transform="scale(1 1) rotate(0) translate(4 433)">
<polygon fill="white" stroke="none" points="-4,4 -4,-433 1471.5,-433 1471.5,4 -4,4"/>
<!-- APB_BarnacleAnim_C -->
<g id="node1" class="node">
<title>APB_BarnacleAnim_C</title>
<polygon fill="#88ff88" stroke="black" points="0,-195.5 0,-428.5 437,-428.5 437,-195.5 0,-195.5"/>
<text text-anchor="start" x="8" y="-413.3" font-family="monospace" font-size="14.00">ClassExport: APB_BarnacleAnim_C</text>
<text text-anchor="start" x="8" y="-398.3" font-family="monospace" font-size="14.00">  SuperStruct: import /Script/Engine&#45;&gt;AnimInstance</text>
<text text-anchor="start" x="8" y="-383.3" font-family="monospace" font-size="14.00">  Properties:</text>
<text text-anchor="start" x="8" y="-368.3" font-family="monospace" font-size="14.00">    StructProperty UberGraphFrame</text>
<text text-anchor="start" x="8" y="-353.3" font-family="monospace" font-size="14.00">      CPF_Transient|CPF_DuplicateTransient</text>
<text text-anchor="start" x="8" y="-338.3" font-family="monospace" font-size="14.00">    StructProperty AnimGraphNode_Root</text>
<text text-anchor="start" x="8" y="-323.3" font-family="monospace" font-size="14.00">    StructProperty AnimGraphNode_TransitionResult_1</text>
<text text-anchor="start" x="8" y="-308.3" font-family="monospace" font-size="14.00">    StructProperty AnimGraphNode_TransitionResult</text>
<text text-anchor="start" x="8" y="-293.3" font-family="monospace" font-size="14.00">    StructProperty AnimGraphNode_SequencePlayer_1</text>
<text text-anchor="start" x="8" y="-278.3" font-family="monospace" font-size="14.00">    StructProperty AnimGraphNode_StateResult_1</text>
<text text-anchor="start" x="8" y="-263.3" font-family="monospace" font-size="14.00">    StructProperty AnimGraphNode_SequencePlayer</text>
<text text-anchor="start" x="8" y="-248.3" font-family="monospace" font-size="14.00">    StructProperty AnimGraphNode_StateResult</text>
<text text-anchor="start" x="8" y="-233.3" font-family="monospace" font-size="14.00">    StructProperty AnimGraphNode_StateMachine</text>
<text text-anchor="start" x="8" y="-218.3" font-family="monospace" font-size="14.00">    BoolProperty Attacking</text>
<text text-anchor="start" x="8" y="-203.3" font-family="monospace" font-size="14.00">      CPF_Edit|CPF_BlueprintVisible|CPF_Transient</text>
</g>
<!-- ExecuteUbergraph_APB_BarnacleAnim -->
<g id="node2" class="node">
<title>ExecuteUbergraph_APB_BarnacleAnim</title>
<polygon fill="#ff8888" stroke="black" points="455.5,-285.5 455.5,-338.5 925.5,-338.5 925.5,-285.5 455.5,-285.5"/>
<text text-anchor="start" x="463.5" y="-323.3" font-family="monospace" font-size="14.00">Function ExecuteUbergraph_APB_BarnacleAnim</text>
<text text-anchor="start" x="463.5" y="-308.3" font-family="monospace" font-size="14.00">  IntProperty EntryPoint</text>
<text text-anchor="start" x="463.5" y="-293.3" font-family="monospace" font-size="14.00">    CPF_BlueprintVisible|CPF_BlueprintReadOnly|CPF_Parm</text>
</g>
<!-- ExecuteUbergraph_APB_BarnacleAnim__0 -->
<g id="node3" class="node">
<title>ExecuteUbergraph_APB_BarnacleAnim__0</title>
<polygon fill="#eeeeee" stroke="black" points="554.5,-98 554.5,-136 826.5,-136 826.5,-98 554.5,-98"/>
<text text-anchor="start" x="562.5" y="-120.8" font-family="monospace" font-size="14.00">EX_ComputedJump</text>
<text text-anchor="start" x="562.5" y="-105.8" font-family="monospace" font-size="14.00">  EX_LocalVariable [EntryPoint]</text>
</g>
<!-- ExecuteUbergraph_APB_BarnacleAnim&#45;&gt;ExecuteUbergraph_APB_BarnacleAnim__0 -->
<g id="edge1" class="edge">
<title>ExecuteUbergraph_APB_BarnacleAnim&#45;&gt;ExecuteUbergraph_APB_BarnacleAnim__0</title>
<path fill="none" stroke="black" d="M690.5,-285.77C690.5,-250 690.5,-184.7 690.5,-146.98"/>
<polygon fill="black" stroke="black" points="694,-147.29 690.5,-137.29 687,-147.29 694,-147.29"/>
</g>
<!-- ExecuteUbergraph_APB_BarnacleAnim__10 -->
<g id="node4" class="node">
<title>ExecuteUbergraph_APB_BarnacleAnim__10</title>
<polygon fill="#eeeeee" stroke="black" points="1009.5,-0.5 1009.5,-38.5 1125.5,-38.5 1125.5,-0.5 1009.5,-0.5"/>
<text text-anchor="start" x="1017.5" y="-23.3" font-family="monospace" font-size="14.00">EX_Return</text>
<text text-anchor="start" x="1017.5" y="-8.3" font-family="monospace" font-size="14.00">  EX_Nothing</text>
</g>
<!-- ExecuteUbergraph_APB_BarnacleAnim__12 -->
<g id="node5" class="node">
<title>ExecuteUbergraph_APB_BarnacleAnim__12</title>
<polygon fill="#eeeeee" stroke="black" points="844.5,-99 844.5,-135 976.5,-135 976.5,-99 844.5,-99"/>
<text text-anchor="start" x="852.5" y="-113.3" font-family="monospace" font-size="14.00">EX_EndOfScript</text>
</g>
<!-- AnimGraph -->
<g id="node6" class="node">
<title>AnimGraph</title>
<polygon fill="#ff8888" stroke="black" points="1086,-285.5 1086,-338.5 1317,-338.5 1317,-285.5 1086,-285.5"/>
<text text-anchor="start" x="1094" y="-323.3" font-family="monospace" font-size="14.00">Function AnimGraph</text>
<text text-anchor="start" x="1094" y="-308.3" font-family="monospace" font-size="14.00">  StructProperty AnimGraph</text>
<text text-anchor="start" x="1094" y="-293.3" font-family="monospace" font-size="14.00">    CPF_Parm|CPF_OutParm</text>
</g>
<!-- AnimGraph__0 -->
<g id="node7" class="node">
<title>AnimGraph__0</title>
<polygon fill="#eeeeee" stroke="black" points="995,-75.5 995,-158.5 1408,-158.5 1408,-75.5 995,-75.5"/>
<text text-anchor="start" x="1003" y="-143.3" font-family="monospace" font-size="14.00">EX_Let</text>
<text text-anchor="start" x="1003" y="-128.3" font-family="monospace" font-size="14.00">  EX_LocalOutVariable</text>
<text text-anchor="start" x="1003" y="-113.3" font-family="monospace" font-size="14.00">    [AnimGraph]</text>
<text text-anchor="start" x="1003" y="-98.3" font-family="monospace" font-size="14.00">  EX_StructConst import /Script/Engine&#45;&gt;PoseLink</text>
<text text-anchor="start" x="1003" y="-83.3" font-family="monospace" font-size="14.00">    EX_IntConst &#45;1</text>
</g>
<!-- AnimGraph&#45;&gt;AnimGraph__0 -->
<g id="edge2" class="edge">
<title>AnimGraph&#45;&gt;AnimGraph__0</title>
<path fill="none" stroke="black" d="M1201.5,-285.77C1201.5,-256.41 1201.5,-207.18 1201.5,-169.62"/>
<polygon fill="black" stroke="black" points="1205,-169.89 1201.5,-159.89 1198,-169.89 1205,-169.89"/>
</g>
<!-- AnimGraph__37 -->
<g id="node8" class="node">
<title>AnimGraph__37</title>
<polygon fill="#eeeeee" stroke="black" points="1143.5,-0.5 1143.5,-38.5 1259.5,-38.5 1259.5,-0.5 1143.5,-0.5"/>
<text text-anchor="start" x="1151.5" y="-23.3" font-family="monospace" font-size="14.00">EX_Return</text>
<text text-anchor="start" x="1151.5" y="-8.3" font-family="monospace" font-size="14.00">  EX_Nothing</text>
</g>
<!-- AnimGraph__0&#45;&gt;AnimGraph__37 -->
<g id="edge3" class="edge">
<title>AnimGraph__0&#45;&gt;AnimGraph__37</title>
<path fill="none" stroke="black" d="M1201.5,-75.78C1201.5,-67.01 1201.5,-57.89 1201.5,-49.65"/>
<polygon fill="black" stroke="black" points="1205,-49.86 1201.5,-39.86 1198,-49.86 1205,-49.86"/>
</g>
<!-- AnimGraph__39 -->
<g id="node9" class="node">
<title>AnimGraph__39</title>
<polygon fill="#eeeeee" stroke="black" points="1335.5,-294 1335.5,-330 1467.5,-330 1467.5,-294 1335.5,-294"/>
<text text-anchor="start" x="1343.5" y="-308.3" font-family="monospace" font-size="14.00">EX_EndOfScript</text>
</g>
</g>
</svg>
