<?xml version="1.0" encoding="UTF-8" standalone="no"?>
<!DOCTYPE svg PUBLIC "-//W3C//DTD SVG 1.1//EN"
 "http://www.w3.org/Graphics/SVG/1.1/DTD/svg11.dtd">
<!-- Generated by graphviz version 7.0.1 (0)
 -->
<!-- Pages: 1 -->
<svg width="2826pt" height="2728pt"
 viewBox="0.00 0.00 2826.00 2728.00" xmlns="http://www.w3.org/2000/svg" xmlns:xlink="http://www.w3.org/1999/xlink">
<g id="graph0" class="graph" transform="scale(1 1) rotate(0) translate(4 2724)">
<polygon fill="white" stroke="none" points="-4,4 -4,-2724 2822,-2724 2822,4 -4,4"/>
<!-- Lore_Content_Itm_Flora_C -->
<g id="node1" class="node">
<title>Lore_Content_Itm_Flora_C</title>
<polygon fill="#88ff88" stroke="black" points="0,-2516.5 0,-2719.5 850,-2719.5 850,-2516.5 0,-2516.5"/>
<text text-anchor="start" x="8" y="-2704.3" font-family="monospace" font-size="14.00">ClassExport: Lore_Content_Itm_Flora_C</text>
<text text-anchor="start" x="8" y="-2689.3" font-family="monospace" font-size="14.00">  SuperStruct: import /Script/UMG&#45;&gt;UserWidget</text>
<text text-anchor="start" x="8" y="-2674.3" font-family="monospace" font-size="14.00">  Properties:</text>
<text text-anchor="start" x="8" y="-2659.3" font-family="monospace" font-size="14.00">    StructProperty UberGraphFrame</text>
<text text-anchor="start" x="8" y="-2644.3" font-family="monospace" font-size="14.00">      CPF_Transient|CPF_DuplicateTransient</text>
<text text-anchor="start" x="8" y="-2629.3" font-family="monospace" font-size="14.00">    ObjectProperty FloraImage</text>
<text text-anchor="start" x="8" y="-2614.3" font-family="monospace" font-size="14.00">      CPF_BlueprintVisible|CPF_ExportObject|CPF_InstancedReference|CPF_RepSkip|CPF_PersistentInstance</text>
<text text-anchor="start" x="8" y="-2599.3" font-family="monospace" font-size="14.00">    ObjectProperty SizeBox_17</text>
<text text-anchor="start" x="8" y="-2584.3" font-family="monospace" font-size="14.00">      CPF_ExportObject|CPF_InstancedReference|CPF_RepSkip|CPF_PersistentInstance</text>
<text text-anchor="start" x="8" y="-2569.3" font-family="monospace" font-size="14.00">    TextProperty Name</text>
<text text-anchor="start" x="8" y="-2554.3" font-family="monospace" font-size="14.00">      CPF_Edit|CPF_BlueprintVisible|CPF_DisableEditOnInstance</text>
<text text-anchor="start" x="8" y="-2539.3" font-family="monospace" font-size="14.00">    TextProperty Description</text>
<text text-anchor="start" x="8" y="-2524.3" font-family="monospace" font-size="14.00">      CPF_Edit|CPF_BlueprintVisible|CPF_DisableEditOnInstance</text>
</g>
<!-- ExecuteUbergraph_Lore_Content_Itm_Flora -->
<g id="node2" class="node">
<title>ExecuteUbergraph_Lore_Content_Itm_Flora</title>
<polygon fill="#ff8888" stroke="black" points="868,-2516.5 868,-2719.5 1338,-2719.5 1338,-2516.5 868,-2516.5"/>
<text text-anchor="start" x="876" y="-2704.3" font-family="monospace" font-size="14.00">Function ExecuteUbergraph_Lore_Content_Itm_Flora</text>
<text text-anchor="start" x="876" y="-2689.3" font-family="monospace" font-size="14.00">  IntProperty EntryPoint</text>
<text text-anchor="start" x="876" y="-2674.3" font-family="monospace" font-size="14.00">    CPF_BlueprintVisible|CPF_BlueprintReadOnly|CPF_Parm</text>
<text text-anchor="start" x="876" y="-2659.3" font-family="monospace" font-size="14.00">  BoolProperty Temp_bool_Variable</text>
<text text-anchor="start" x="876" y="-2644.3" font-family="monospace" font-size="14.00">  EnumProperty Temp_byte_Variable</text>
<text text-anchor="start" x="876" y="-2629.3" font-family="monospace" font-size="14.00">  EnumProperty Temp_byte_Variable_1</text>
<text text-anchor="start" x="876" y="-2614.3" font-family="monospace" font-size="14.00">  TextProperty K2Node_CustomEvent_Name</text>
<text text-anchor="start" x="876" y="-2599.3" font-family="monospace" font-size="14.00">  TextProperty K2Node_CustomEvent_Description</text>
<text text-anchor="start" x="876" y="-2584.3" font-family="monospace" font-size="14.00">  ObjectProperty K2Node_CustomEvent_Texture</text>
<text text-anchor="start" x="876" y="-2569.3" font-family="monospace" font-size="14.00">  StructProperty K2Node_CustomEvent_ObjectID</text>
<text text-anchor="start" x="876" y="-2554.3" font-family="monospace" font-size="14.00">  ObjectProperty CallFunc_GetFSDSaveGame_ReturnValue</text>
<text text-anchor="start" x="876" y="-2539.3" font-family="monospace" font-size="14.00">  BoolProperty CallFunc_IsInMinersManual_ReturnValue</text>
<text text-anchor="start" x="876" y="-2524.3" font-family="monospace" font-size="14.00">  EnumProperty K2Node_Select_Default</text>
</g>
<!-- ExecuteUbergraph_Lore_Content_Itm_Flora__0 -->
<g id="node3" class="node">
<title>ExecuteUbergraph_Lore_Content_Itm_Flora__0</title>
<polygon fill="#eeeeee" stroke="black" points="967,-2389.5 967,-2427.5 1239,-2427.5 1239,-2389.5 967,-2389.5"/>
<text text-anchor="start" x="975" y="-2412.3" font-family="monospace" font-size="14.00">EX_ComputedJump</text>
<text text-anchor="start" x="975" y="-2397.3" font-family="monospace" font-size="14.00">  EX_LocalVariable [EntryPoint]</text>
</g>
<!-- ExecuteUbergraph_Lore_Content_Itm_Flora&#45;&gt;ExecuteUbergraph_Lore_Content_Itm_Flora__0 -->
<g id="edge1" class="edge">
<title>ExecuteUbergraph_Lore_Content_Itm_Flora&#45;&gt;ExecuteUbergraph_Lore_Content_Itm_Flora__0</title>
<path fill="none" stroke="black" d="M1103,-2516.59C1103,-2488.02 1103,-2459.1 1103,-2438.53"/>
<polygon fill="black" stroke="black" points="1106.5,-2438.68 1103,-2428.68 1099.5,-2438.68 1106.5,-2438.68"/>
</g>
<!-- ExecuteUbergraph_Lore_Content_Itm_Flora__10 -->
<g id="node4" class="node">
<title>ExecuteUbergraph_Lore_Content_Itm_Flora__10</title>
<polygon fill="#eeeeee" stroke="black" points="1965.5,-991.5 1965.5,-1089.5 2600.5,-1089.5 2600.5,-991.5 1965.5,-991.5"/>
<text text-anchor="start" x="1973.5" y="-1074.3" font-family="monospace" font-size="14.00">EX_Context</text>
<text text-anchor="start" x="1973.5" y="-1059.3" font-family="monospace" font-size="14.00">  EX_InstanceVariable [FloraImage]</text>
<text text-anchor="start" x="1973.5" y="-1044.3" font-family="monospace" font-size="14.00">  EX_VirtualFunction SetBrushFromTexture</text>
<text text-anchor="start" x="1973.5" y="-1029.3" font-family="monospace" font-size="14.00">    EX_ObjectConst import /Game/Art/UI/Icon_Questionmark&#45;&gt;Icon_Questionmark</text>
<text text-anchor="start" x="1973.5" y="-1014.3" font-family="monospace" font-size="14.00">    EX_False</text>
<text text-anchor="start" x="1973.5" y="-999.3" font-family="monospace" font-size="14.00">  RValue = []</text>
</g>
<!-- ExecuteUbergraph_Lore_Content_Itm_Flora__56 -->
<g id="node5" class="node">
<title>ExecuteUbergraph_Lore_Content_Itm_Flora__56</title>
<polygon fill="#eeeeee" stroke="black" points="2011,-845.5 2011,-898.5 2349,-898.5 2349,-845.5 2011,-845.5"/>
<text text-anchor="start" x="2019" y="-883.3" font-family="monospace" font-size="14.00">EX_Let</text>
<text text-anchor="start" x="2019" y="-868.3" font-family="monospace" font-size="14.00">  EX_LocalVariable [Temp_byte_Variable]</text>
<text text-anchor="start" x="2019" y="-853.3" font-family="monospace" font-size="14.00">  EX_ByteConst 0</text>
</g>
<!-- ExecuteUbergraph_Lore_Content_Itm_Flora__10&#45;&gt;ExecuteUbergraph_Lore_Content_Itm_Flora__56 -->
<g id="edge2" class="edge">
<title>ExecuteUbergraph_Lore_Content_Itm_Flora__10&#45;&gt;ExecuteUbergraph_Lore_Content_Itm_Flora__56</title>
<path fill="none" stroke="black" d="M2253.48,-991.79C2236.87,-964.93 2216.5,-932 2201.42,-907.63"/>
<polygon fill="black" stroke="black" points="2204.55,-906.03 2196.31,-899.36 2198.59,-909.71 2204.55,-906.03"/>
</g>
<!-- ExecuteUbergraph_Lore_Content_Itm_Flora__76 -->
<g id="node6" class="node">
<title>ExecuteUbergraph_Lore_Content_Itm_Flora__76</title>
<polygon fill="#eeeeee" stroke="black" points="2002.5,-754.5 2002.5,-807.5 2357.5,-807.5 2357.5,-754.5 2002.5,-754.5"/>
<text text-anchor="start" x="2010.5" y="-792.3" font-family="monospace" font-size="14.00">EX_Let</text>
<text text-anchor="start" x="2010.5" y="-777.3" font-family="monospace" font-size="14.00">  EX_LocalVariable [Temp_byte_Variable_1]</text>
<text text-anchor="start" x="2010.5" y="-762.3" font-family="monospace" font-size="14.00">  EX_ByteConst 1</text>
</g>
<!-- ExecuteUbergraph_Lore_Content_Itm_Flora__56&#45;&gt;ExecuteUbergraph_Lore_Content_Itm_Flora__76 -->
<g id="edge3" class="edge">
<title>ExecuteUbergraph_Lore_Content_Itm_Flora__56&#45;&gt;ExecuteUbergraph_Lore_Content_Itm_Flora__76</title>
<path fill="none" stroke="black" d="M2180,-845.73C2180,-837.37 2180,-827.89 2180,-818.84"/>
<polygon fill="black" stroke="black" points="2183.5,-818.84 2180,-808.84 2176.5,-818.84 2183.5,-818.84"/>
</g>
<!-- ExecuteUbergraph_Lore_Content_Itm_Flora__96 -->
<g id="node7" class="node">
<title>ExecuteUbergraph_Lore_Content_Itm_Flora__96</title>
<polygon fill="#eeeeee" stroke="black" points="1887,-648.5 1887,-716.5 2473,-716.5 2473,-648.5 1887,-648.5"/>
<text text-anchor="start" x="1895" y="-701.3" font-family="monospace" font-size="14.00">EX_LetObj</text>
<text text-anchor="start" x="1895" y="-686.3" font-family="monospace" font-size="14.00">  EX_LocalVariable [CallFunc_GetFSDSaveGame_ReturnValue]</text>
<text text-anchor="start" x="1895" y="-671.3" font-family="monospace" font-size="14.00">  EX_CallMath import /Script/FSD&#45;&gt;GameFunctionLibrary&#45;&gt;GetFSDSaveGame</text>
<text text-anchor="start" x="1895" y="-656.3" font-family="monospace" font-size="14.00">    EX_Self</text>
</g>
<!-- ExecuteUbergraph_Lore_Content_Itm_Flora__76&#45;&gt;ExecuteUbergraph_Lore_Content_Itm_Flora__96 -->
<g id="edge4" class="edge">
<title>ExecuteUbergraph_Lore_Content_Itm_Flora__76&#45;&gt;ExecuteUbergraph_Lore_Content_Itm_Flora__96</title>
<path fill="none" stroke="black" d="M2180,-754.65C2180,-746.4 2180,-736.99 2180,-727.78"/>
<polygon fill="black" stroke="black" points="2183.5,-727.83 2180,-717.83 2176.5,-727.83 2183.5,-727.83"/>
</g>
<!-- ExecuteUbergraph_Lore_Content_Itm_Flora__117 -->
<g id="node8" class="node">
<title>ExecuteUbergraph_Lore_Content_Itm_Flora__117</title>
<polygon fill="#eeeeee" stroke="black" points="1883,-497.5 1883,-610.5 2477,-610.5 2477,-497.5 1883,-497.5"/>
<text text-anchor="start" x="1891" y="-595.3" font-family="monospace" font-size="14.00">EX_LetBool</text>
<text text-anchor="start" x="1891" y="-580.3" font-family="monospace" font-size="14.00">  EX_LocalVariable [CallFunc_IsInMinersManual_ReturnValue]</text>
<text text-anchor="start" x="1891" y="-565.3" font-family="monospace" font-size="14.00">  EX_Context</text>
<text text-anchor="start" x="1891" y="-550.3" font-family="monospace" font-size="14.00">    EX_LocalVariable [CallFunc_GetFSDSaveGame_ReturnValue]</text>
<text text-anchor="start" x="1891" y="-535.3" font-family="monospace" font-size="14.00">    EX_FinalFunction import /Script/FSD&#45;&gt;FSDSaveGame&#45;&gt;IsInMinersManual</text>
<text text-anchor="start" x="1891" y="-520.3" font-family="monospace" font-size="14.00">      EX_LocalVariable [K2Node_CustomEvent_ObjectID]</text>
<text text-anchor="start" x="1891" y="-505.3" font-family="monospace" font-size="14.00">    RValue = [CallFunc_IsInMinersManual_ReturnValue]</text>
</g>
<!-- ExecuteUbergraph_Lore_Content_Itm_Flora__96&#45;&gt;ExecuteUbergraph_Lore_Content_Itm_Flora__117 -->
<g id="edge5" class="edge">
<title>ExecuteUbergraph_Lore_Content_Itm_Flora__96&#45;&gt;ExecuteUbergraph_Lore_Content_Itm_Flora__117</title>
<path fill="none" stroke="black" d="M2180,-648.59C2180,-640.27 2180,-631.02 2180,-621.67"/>
<polygon fill="black" stroke="black" points="2183.5,-621.79 2180,-611.79 2176.5,-621.79 2183.5,-621.79"/>
</g>
<!-- ExecuteUbergraph_Lore_Content_Itm_Flora__168 -->
<g id="node9" class="node">
<title>ExecuteUbergraph_Lore_Content_Itm_Flora__168</title>
<polygon fill="#eeeeee" stroke="black" points="1932.5,-406.5 1932.5,-459.5 2427.5,-459.5 2427.5,-406.5 1932.5,-406.5"/>
<text text-anchor="start" x="1940.5" y="-444.3" font-family="monospace" font-size="14.00">EX_LetBool</text>
<text text-anchor="start" x="1940.5" y="-429.3" font-family="monospace" font-size="14.00">  EX_LocalVariable [Temp_bool_Variable]</text>
<text text-anchor="start" x="1940.5" y="-414.3" font-family="monospace" font-size="14.00">  EX_LocalVariable [CallFunc_IsInMinersManual_ReturnValue]</text>
</g>
<!-- ExecuteUbergraph_Lore_Content_Itm_Flora__117&#45;&gt;ExecuteUbergraph_Lore_Content_Itm_Flora__168 -->
<g id="edge6" class="edge">
<title>ExecuteUbergraph_Lore_Content_Itm_Flora__117&#45;&gt;ExecuteUbergraph_Lore_Content_Itm_Flora__168</title>
<path fill="none" stroke="black" d="M2180,-497.68C2180,-488.6 2180,-479.4 2180,-470.91"/>
<polygon fill="black" stroke="black" points="2183.5,-471 2180,-461 2176.5,-471 2183.5,-471"/>
</g>
<!-- ExecuteUbergraph_Lore_Content_Itm_Flora__187 -->
<g id="node10" class="node">
<title>ExecuteUbergraph_Lore_Content_Itm_Flora__187</title>
<polygon fill="#eeeeee" stroke="black" points="1982,-150.5 1982,-368.5 2378,-368.5 2378,-150.5 1982,-150.5"/>
<text text-anchor="start" x="1990" y="-353.3" font-family="monospace" font-size="14.00">EX_VirtualFunction SetVisibility</text>
<text text-anchor="start" x="1990" y="-338.3" font-family="monospace" font-size="14.00">  EX_SwitchValue</text>
<text text-anchor="start" x="1990" y="-323.3" font-family="monospace" font-size="14.00">    EX_LocalVariable [Temp_bool_Variable]</text>
<text text-anchor="start" x="1990" y="-308.3" font-family="monospace" font-size="14.00">    OffsetToSwitchEnd = 253</text>
<text text-anchor="start" x="1990" y="-293.3" font-family="monospace" font-size="14.00">    case 0:</text>
<text text-anchor="start" x="1990" y="-278.3" font-family="monospace" font-size="14.00">      EX_False</text>
<text text-anchor="start" x="1990" y="-263.3" font-family="monospace" font-size="14.00">      NextCaseOffset = 230</text>
<text text-anchor="start" x="1990" y="-248.3" font-family="monospace" font-size="14.00">      EX_LocalVariable [Temp_byte_Variable_1]</text>
<text text-anchor="start" x="1990" y="-233.3" font-family="monospace" font-size="14.00">    case 1:</text>
<text text-anchor="start" x="1990" y="-218.3" font-family="monospace" font-size="14.00">      EX_True</text>
<text text-anchor="start" x="1990" y="-203.3" font-family="monospace" font-size="14.00">      NextCaseOffset = 244</text>
<text text-anchor="start" x="1990" y="-188.3" font-family="monospace" font-size="14.00">      EX_LocalVariable [Temp_byte_Variable]</text>
<text text-anchor="start" x="1990" y="-173.3" font-family="monospace" font-size="14.00">    default:</text>
<text text-anchor="start" x="1990" y="-158.3" font-family="monospace" font-size="14.00">      EX_LocalVariable [K2Node_Select_Default]</text>
</g>
<!-- ExecuteUbergraph_Lore_Content_Itm_Flora__168&#45;&gt;ExecuteUbergraph_Lore_Content_Itm_Flora__187 -->
<g id="edge7" class="edge">
<title>ExecuteUbergraph_Lore_Content_Itm_Flora__168&#45;&gt;ExecuteUbergraph_Lore_Content_Itm_Flora__187</title>
<path fill="none" stroke="black" d="M2180,-406.69C2180,-398.84 2180,-389.61 2180,-379.67"/>
<polygon fill="black" stroke="black" points="2183.5,-379.7 2180,-369.7 2176.5,-379.7 2183.5,-379.7"/>
</g>
<!-- ExecuteUbergraph_Lore_Content_Itm_Flora__254 -->
<g id="node11" class="node">
<title>ExecuteUbergraph_Lore_Content_Itm_Flora__254</title>
<polygon fill="#eeeeee" stroke="black" points="2126.5,-76.5 2126.5,-112.5 2233.5,-112.5 2233.5,-76.5 2126.5,-76.5"/>
<text text-anchor="start" x="2134.5" y="-90.8" font-family="monospace" font-size="14.00">EX_Jump 450</text>
</g>
<!-- ExecuteUbergraph_Lore_Content_Itm_Flora__187&#45;&gt;ExecuteUbergraph_Lore_Content_Itm_Flora__254 -->
<g id="edge8" class="edge">
<title>ExecuteUbergraph_Lore_Content_Itm_Flora__187&#45;&gt;ExecuteUbergraph_Lore_Content_Itm_Flora__254</title>
<path fill="none" stroke="black" d="M2180,-150.68C2180,-140.89 2180,-131.67 2180,-123.67"/>
<polygon fill="black" stroke="black" points="2183.5,-123.71 2180,-113.71 2176.5,-123.71 2183.5,-123.71"/>
</g>
<!-- ExecuteUbergraph_Lore_Content_Itm_Flora__450 -->
<g id="node19" class="node">
<title>ExecuteUbergraph_Lore_Content_Itm_Flora__450</title>
<polygon fill="#eeeeee" stroke="black" points="2122,-0.5 2122,-38.5 2238,-38.5 2238,-0.5 2122,-0.5"/>
<text text-anchor="start" x="2130" y="-23.3" font-family="monospace" font-size="14.00">EX_Return</text>
<text text-anchor="start" x="2130" y="-8.3" font-family="monospace" font-size="14.00">  EX_Nothing</text>
</g>
<!-- ExecuteUbergraph_Lore_Content_Itm_Flora__254&#45;&gt;ExecuteUbergraph_Lore_Content_Itm_Flora__450 -->
<g id="edge9" class="edge">
<title>ExecuteUbergraph_Lore_Content_Itm_Flora__254&#45;&gt;ExecuteUbergraph_Lore_Content_Itm_Flora__450</title>
<path fill="none" stroke="black" d="M2180,-76.57C2180,-68.6 2180,-58.87 2180,-49.77"/>
<polygon fill="black" stroke="black" points="2183.5,-49.87 2180,-39.87 2176.5,-49.87 2183.5,-49.87"/>
</g>
<!-- ExecuteUbergraph_Lore_Content_Itm_Flora__259 -->
<g id="node12" class="node">
<title>ExecuteUbergraph_Lore_Content_Itm_Flora__259</title>
<polygon fill="#eeeeee" stroke="black" points="1797,-1690 1797,-1743 2177,-1743 2177,-1690 1797,-1690"/>
<text text-anchor="start" x="1805" y="-1727.8" font-family="monospace" font-size="14.00">EX_Let</text>
<text text-anchor="start" x="1805" y="-1712.8" font-family="monospace" font-size="14.00">  EX_InstanceVariable [Name]</text>
<text text-anchor="start" x="1805" y="-1697.8" font-family="monospace" font-size="14.00">  EX_LocalVariable [K2Node_CustomEvent_Name]</text>
</g>
<!-- ExecuteUbergraph_Lore_Content_Itm_Flora__286 -->
<g id="node13" class="node">
<title>ExecuteUbergraph_Lore_Content_Itm_Flora__286</title>
<polygon fill="#eeeeee" stroke="black" points="1768.5,-1591.5 1768.5,-1644.5 2205.5,-1644.5 2205.5,-1591.5 1768.5,-1591.5"/>
<text text-anchor="start" x="1776.5" y="-1629.3" font-family="monospace" font-size="14.00">EX_Let</text>
<text text-anchor="start" x="1776.5" y="-1614.3" font-family="monospace" font-size="14.00">  EX_InstanceVariable [Description]</text>
<text text-anchor="start" x="1776.5" y="-1599.3" font-family="monospace" font-size="14.00">  EX_LocalVariable [K2Node_CustomEvent_Description]</text>
</g>
<!-- ExecuteUbergraph_Lore_Content_Itm_Flora__259&#45;&gt;ExecuteUbergraph_Lore_Content_Itm_Flora__286 -->
<g id="edge10" class="edge">
<title>ExecuteUbergraph_Lore_Content_Itm_Flora__259&#45;&gt;ExecuteUbergraph_Lore_Content_Itm_Flora__286</title>
<path fill="none" stroke="black" d="M1987,-1690.15C1987,-1679.51 1987,-1666.94 1987,-1655.34"/>
<polygon fill="black" stroke="black" points="1990.5,-1655.7 1987,-1645.7 1983.5,-1655.7 1990.5,-1655.7"/>
</g>
<!-- ExecuteUbergraph_Lore_Content_Itm_Flora__313 -->
<g id="node14" class="node">
<title>ExecuteUbergraph_Lore_Content_Itm_Flora__313</title>
<polygon fill="#eeeeee" stroke="black" points="1694,-1485.5 1694,-1553.5 2280,-1553.5 2280,-1485.5 1694,-1485.5"/>
<text text-anchor="start" x="1702" y="-1538.3" font-family="monospace" font-size="14.00">EX_LetObj</text>
<text text-anchor="start" x="1702" y="-1523.3" font-family="monospace" font-size="14.00">  EX_LocalVariable [CallFunc_GetFSDSaveGame_ReturnValue]</text>
<text text-anchor="start" x="1702" y="-1508.3" font-family="monospace" font-size="14.00">  EX_CallMath import /Script/FSD&#45;&gt;GameFunctionLibrary&#45;&gt;GetFSDSaveGame</text>
<text text-anchor="start" x="1702" y="-1493.3" font-family="monospace" font-size="14.00">    EX_Self</text>
</g>
<!-- ExecuteUbergraph_Lore_Content_Itm_Flora__286&#45;&gt;ExecuteUbergraph_Lore_Content_Itm_Flora__313 -->
<g id="edge11" class="edge">
<title>ExecuteUbergraph_Lore_Content_Itm_Flora__286&#45;&gt;ExecuteUbergraph_Lore_Content_Itm_Flora__313</title>
<path fill="none" stroke="black" d="M1987,-1591.65C1987,-1583.4 1987,-1573.99 1987,-1564.78"/>
<polygon fill="black" stroke="black" points="1990.5,-1564.83 1987,-1554.83 1983.5,-1564.83 1990.5,-1564.83"/>
</g>
<!-- ExecuteUbergraph_Lore_Content_Itm_Flora__334 -->
<g id="node15" class="node">
<title>ExecuteUbergraph_Lore_Content_Itm_Flora__334</title>
<polygon fill="#eeeeee" stroke="black" points="1690,-1334.5 1690,-1447.5 2284,-1447.5 2284,-1334.5 1690,-1334.5"/>
<text text-anchor="start" x="1698" y="-1432.3" font-family="monospace" font-size="14.00">EX_LetBool</text>
<text text-anchor="start" x="1698" y="-1417.3" font-family="monospace" font-size="14.00">  EX_LocalVariable [CallFunc_IsInMinersManual_ReturnValue]</text>
<text text-anchor="start" x="1698" y="-1402.3" font-family="monospace" font-size="14.00">  EX_Context</text>
<text text-anchor="start" x="1698" y="-1387.3" font-family="monospace" font-size="14.00">    EX_LocalVariable [CallFunc_GetFSDSaveGame_ReturnValue]</text>
<text text-anchor="start" x="1698" y="-1372.3" font-family="monospace" font-size="14.00">    EX_FinalFunction import /Script/FSD&#45;&gt;FSDSaveGame&#45;&gt;IsInMinersManual</text>
<text text-anchor="start" x="1698" y="-1357.3" font-family="monospace" font-size="14.00">      EX_LocalVariable [K2Node_CustomEvent_ObjectID]</text>
<text text-anchor="start" x="1698" y="-1342.3" font-family="monospace" font-size="14.00">    RValue = [CallFunc_IsInMinersManual_ReturnValue]</text>
</g>
<!-- ExecuteUbergraph_Lore_Content_Itm_Flora__313&#45;&gt;ExecuteUbergraph_Lore_Content_Itm_Flora__334 -->
<g id="edge12" class="edge">
<title>ExecuteUbergraph_Lore_Content_Itm_Flora__313&#45;&gt;ExecuteUbergraph_Lore_Content_Itm_Flora__334</title>
<path fill="none" stroke="black" d="M1987,-1485.59C1987,-1477.27 1987,-1468.02 1987,-1458.67"/>
<polygon fill="black" stroke="black" points="1990.5,-1458.79 1987,-1448.79 1983.5,-1458.79 1990.5,-1458.79"/>
</g>
<!-- ExecuteUbergraph_Lore_Content_Itm_Flora__385 -->
<g id="node16" class="node">
<title>ExecuteUbergraph_Lore_Content_Itm_Flora__385</title>
<polygon fill="#eeeeee" stroke="black" points="1739.5,-1258.5 1739.5,-1296.5 2234.5,-1296.5 2234.5,-1258.5 1739.5,-1258.5"/>
<text text-anchor="start" x="1747.5" y="-1281.3" font-family="monospace" font-size="14.00">EX_JumpIfNot 10</text>
<text text-anchor="start" x="1747.5" y="-1266.3" font-family="monospace" font-size="14.00">  EX_LocalVariable [CallFunc_IsInMinersManual_ReturnValue]</text>
</g>
<!-- ExecuteUbergraph_Lore_Content_Itm_Flora__334&#45;&gt;ExecuteUbergraph_Lore_Content_Itm_Flora__385 -->
<g id="edge13" class="edge">
<title>ExecuteUbergraph_Lore_Content_Itm_Flora__334&#45;&gt;ExecuteUbergraph_Lore_Content_Itm_Flora__385</title>
<path fill="none" stroke="black" d="M1987,-1334.58C1987,-1325.25 1987,-1315.91 1987,-1307.6"/>
<polygon fill="black" stroke="black" points="1990.5,-1307.81 1987,-1297.81 1983.5,-1307.81 1990.5,-1307.81"/>
</g>
<!-- ExecuteUbergraph_Lore_Content_Itm_Flora__385&#45;&gt;ExecuteUbergraph_Lore_Content_Itm_Flora__10 -->
<g id="edge14" class="edge">
<title>ExecuteUbergraph_Lore_Content_Itm_Flora__385:e&#45;&gt;ExecuteUbergraph_Lore_Content_Itm_Flora__10</title>
<path fill="none" stroke="red" d="M2236,-1277.5C2308.02,-1277.5 2304.36,-1170.47 2294.28,-1100.56"/>
<polygon fill="none" stroke="red" points="2297.75,-1100.11 2292.78,-1090.75 2290.83,-1101.17 2297.75,-1100.11"/>
<text text-anchor="middle" x="2319" y="-1228.8" font-family="monospace" font-size="14.00">IF NOT</text>
</g>
<!-- ExecuteUbergraph_Lore_Content_Itm_Flora__399 -->
<g id="node17" class="node">
<title>ExecuteUbergraph_Lore_Content_Itm_Flora__399</title>
<polygon fill="#eeeeee" stroke="black" points="1744.5,-1108.5 1744.5,-1206.5 2165.5,-1206.5 2165.5,-1108.5 1744.5,-1108.5"/>
<text text-anchor="start" x="1752.5" y="-1191.3" font-family="monospace" font-size="14.00">EX_Context</text>
<text text-anchor="start" x="1752.5" y="-1176.3" font-family="monospace" font-size="14.00">  EX_InstanceVariable [FloraImage]</text>
<text text-anchor="start" x="1752.5" y="-1161.3" font-family="monospace" font-size="14.00">  EX_VirtualFunction SetBrushFromTexture</text>
<text text-anchor="start" x="1752.5" y="-1146.3" font-family="monospace" font-size="14.00">    EX_LocalVariable [K2Node_CustomEvent_Texture]</text>
<text text-anchor="start" x="1752.5" y="-1131.3" font-family="monospace" font-size="14.00">    EX_False</text>
<text text-anchor="start" x="1752.5" y="-1116.3" font-family="monospace" font-size="14.00">  RValue = []</text>
</g>
<!-- ExecuteUbergraph_Lore_Content_Itm_Flora__385&#45;&gt;ExecuteUbergraph_Lore_Content_Itm_Flora__399 -->
<g id="edge15" class="edge">
<title>ExecuteUbergraph_Lore_Content_Itm_Flora__385&#45;&gt;ExecuteUbergraph_Lore_Content_Itm_Flora__399</title>
<path fill="none" stroke="black" d="M1982.14,-1258.58C1979.11,-1247.42 1975.04,-1232.38 1970.96,-1217.35"/>
<polygon fill="black" stroke="black" points="1974.4,-1216.66 1968.4,-1207.93 1967.64,-1218.49 1974.4,-1216.66"/>
<text text-anchor="middle" x="1985.5" y="-1228.8" font-family="monospace" font-size="14.00">IF</text>
</g>
<!-- ExecuteUbergraph_Lore_Content_Itm_Flora__445 -->
<g id="node18" class="node">
<title>ExecuteUbergraph_Lore_Content_Itm_Flora__445</title>
<polygon fill="#eeeeee" stroke="black" points="2027.5,-936.5 2027.5,-972.5 2126.5,-972.5 2126.5,-936.5 2027.5,-936.5"/>
<text text-anchor="start" x="2035.5" y="-950.8" font-family="monospace" font-size="14.00">EX_Jump 56</text>
</g>
<!-- ExecuteUbergraph_Lore_Content_Itm_Flora__399&#45;&gt;ExecuteUbergraph_Lore_Content_Itm_Flora__445 -->
<g id="edge16" class="edge">
<title>ExecuteUbergraph_Lore_Content_Itm_Flora__399&#45;&gt;ExecuteUbergraph_Lore_Content_Itm_Flora__445</title>
<path fill="none" stroke="black" d="M1944.17,-1108.72C1938.92,-1072.67 1938.41,-1023.95 1964,-991 1976.66,-974.7 1996.76,-965.73 2016.52,-960.84"/>
<polygon fill="black" stroke="black" points="2017.2,-964.27 2026.26,-958.78 2015.75,-957.42 2017.2,-964.27"/>
</g>
<!-- ExecuteUbergraph_Lore_Content_Itm_Flora__445&#45;&gt;ExecuteUbergraph_Lore_Content_Itm_Flora__56 -->
<g id="edge17" class="edge">
<title>ExecuteUbergraph_Lore_Content_Itm_Flora__445&#45;&gt;ExecuteUbergraph_Lore_Content_Itm_Flora__56</title>
<path fill="none" stroke="black" d="M2098.34,-936.82C2110.04,-927.68 2124.94,-916.03 2138.81,-905.2"/>
<polygon fill="black" stroke="black" points="2140.81,-908.08 2146.53,-899.16 2136.49,-902.56 2140.81,-908.08"/>
</g>
<!-- ExecuteUbergraph_Lore_Content_Itm_Flora__452 -->
<g id="node20" class="node">
<title>ExecuteUbergraph_Lore_Content_Itm_Flora__452</title>
<polygon fill="#eeeeee" stroke="black" points="1912,-2461.5 1912,-2497.5 2044,-2497.5 2044,-2461.5 1912,-2461.5"/>
<text text-anchor="start" x="1920" y="-2475.8" font-family="monospace" font-size="14.00">EX_EndOfScript</text>
</g>
<!-- SetData -->
<g id="node21" class="node">
<title>SetData</title>
<polygon fill="#ff8888" stroke="black" points="1356,-2546.5 1356,-2689.5 1826,-2689.5 1826,-2546.5 1356,-2546.5"/>
<text text-anchor="start" x="1364" y="-2674.3" font-family="monospace" font-size="14.00">Function SetData</text>
<text text-anchor="start" x="1364" y="-2659.3" font-family="monospace" font-size="14.00">  TextProperty Name</text>
<text text-anchor="start" x="1364" y="-2644.3" font-family="monospace" font-size="14.00">    CPF_BlueprintVisible|CPF_BlueprintReadOnly|CPF_Parm</text>
<text text-anchor="start" x="1364" y="-2629.3" font-family="monospace" font-size="14.00">  TextProperty Description</text>
<text text-anchor="start" x="1364" y="-2614.3" font-family="monospace" font-size="14.00">    CPF_BlueprintVisible|CPF_BlueprintReadOnly|CPF_Parm</text>
<text text-anchor="start" x="1364" y="-2599.3" font-family="monospace" font-size="14.00">  ObjectProperty Texture</text>
<text text-anchor="start" x="1364" y="-2584.3" font-family="monospace" font-size="14.00">    CPF_BlueprintVisible|CPF_BlueprintReadOnly|CPF_Parm</text>
<text text-anchor="start" x="1364" y="-2569.3" font-family="monospace" font-size="14.00">  StructProperty ObjectID</text>
<text text-anchor="start" x="1364" y="-2554.3" font-family="monospace" font-size="14.00">    CPF_BlueprintVisible|CPF_BlueprintReadOnly|CPF_Parm</text>
</g>
<!-- SetData__0 -->
<g id="node22" class="node">
<title>SetData__0</title>
<polygon fill="#eeeeee" stroke="black" points="1360,-2389.5 1360,-2427.5 1822,-2427.5 1822,-2389.5 1360,-2389.5"/>
<text text-anchor="start" x="1368" y="-2412.3" font-family="monospace" font-size="14.00">EX_LetValueOnPersistentFrame [K2Node_CustomEvent_Name]</text>
<text text-anchor="start" x="1368" y="-2397.3" font-family="monospace" font-size="14.00">  EX_LocalVariable [Name]</text>
</g>
<!-- SetData&#45;&gt;SetData__0 -->
<g id="edge18" class="edge">
<title>SetData&#45;&gt;SetData__0</title>
<path fill="none" stroke="black" d="M1591,-2546.75C1591,-2509.88 1591,-2466.69 1591,-2438.75"/>
<polygon fill="black" stroke="black" points="1594.5,-2438.93 1591,-2428.93 1587.5,-2438.93 1594.5,-2438.93"/>
</g>
<!-- SetData__18 -->
<g id="node23" class="node">
<title>SetData__18</title>
<polygon fill="#eeeeee" stroke="black" points="1331,-2217.5 1331,-2255.5 1851,-2255.5 1851,-2217.5 1331,-2217.5"/>
<text text-anchor="start" x="1339" y="-2240.3" font-family="monospace" font-size="14.00">EX_LetValueOnPersistentFrame [K2Node_CustomEvent_Description]</text>
<text text-anchor="start" x="1339" y="-2225.3" font-family="monospace" font-size="14.00">  EX_LocalVariable [Description]</text>
</g>
<!-- SetData__0&#45;&gt;SetData__18 -->
<g id="edge19" class="edge">
<title>SetData__0&#45;&gt;SetData__18</title>
<path fill="none" stroke="black" d="M1591,-2389.63C1591,-2360.42 1591,-2302.19 1591,-2266.85"/>
<polygon fill="black" stroke="black" points="1594.5,-2266.9 1591,-2256.9 1587.5,-2266.9 1594.5,-2266.9"/>
</g>
<!-- SetData__36 -->
<g id="node24" class="node">
<title>SetData__36</title>
<polygon fill="#eeeeee" stroke="black" points="1347.5,-2053 1347.5,-2091 1834.5,-2091 1834.5,-2053 1347.5,-2053"/>
<text text-anchor="start" x="1355.5" y="-2075.8" font-family="monospace" font-size="14.00">EX_LetValueOnPersistentFrame [K2Node_CustomEvent_Texture]</text>
<text text-anchor="start" x="1355.5" y="-2060.8" font-family="monospace" font-size="14.00">  EX_LocalVariable [Texture]</text>
</g>
<!-- SetData__18&#45;&gt;SetData__36 -->
<g id="edge20" class="edge">
<title>SetData__18&#45;&gt;SetData__36</title>
<path fill="none" stroke="black" d="M1591,-2217.8C1591,-2189.96 1591,-2135.66 1591,-2102.04"/>
<polygon fill="black" stroke="black" points="1594.5,-2102.19 1591,-2092.19 1587.5,-2102.19 1594.5,-2102.19"/>
</g>
<!-- SetData__54 -->
<g id="node25" class="node">
<title>SetData__54</title>
<polygon fill="#eeeeee" stroke="black" points="1343.5,-1939.5 1343.5,-1977.5 1838.5,-1977.5 1838.5,-1939.5 1343.5,-1939.5"/>
<text text-anchor="start" x="1351.5" y="-1962.3" font-family="monospace" font-size="14.00">EX_LetValueOnPersistentFrame [K2Node_CustomEvent_ObjectID]</text>
<text text-anchor="start" x="1351.5" y="-1947.3" font-family="monospace" font-size="14.00">  EX_LocalVariable [ObjectID]</text>
</g>
<!-- SetData__36&#45;&gt;SetData__54 -->
<g id="edge21" class="edge">
<title>SetData__36&#45;&gt;SetData__54</title>
<path fill="none" stroke="black" d="M1591,-2053.09C1591,-2035.77 1591,-2009.24 1591,-1988.85"/>
<polygon fill="black" stroke="black" points="1594.5,-1988.88 1591,-1978.88 1587.5,-1988.88 1594.5,-1988.88"/>
</g>
<!-- SetData__72 -->
<g id="node26" class="node">
<title>SetData__72</title>
<polygon fill="#eeeeee" stroke="black" points="1195,-1811 1195,-1849 1987,-1849 1987,-1811 1195,-1811"/>
<text text-anchor="start" x="1203" y="-1833.8" font-family="monospace" font-size="14.00">EX_LocalFinalFunction export Lore_Content_Itm_Flora_C&#45;&gt;ExecuteUbergraph_Lore_Content_Itm_Flora</text>
<text text-anchor="start" x="1203" y="-1818.8" font-family="monospace" font-size="14.00">  EX_IntConst 259</text>
</g>
<!-- SetData__54&#45;&gt;SetData__72 -->
<g id="edge22" class="edge">
<title>SetData__54&#45;&gt;SetData__72</title>
<path fill="none" stroke="black" d="M1591,-1939.64C1591,-1919.02 1591,-1884.78 1591,-1860.25"/>
<polygon fill="black" stroke="black" points="1594.5,-1860.28 1591,-1850.28 1587.5,-1860.28 1594.5,-1860.28"/>
</g>
<!-- SetData__72&#45;&gt;ExecuteUbergraph_Lore_Content_Itm_Flora__259 -->
<g id="edge23" class="edge">
<title>SetData__72:e&#45;&gt;ExecuteUbergraph_Lore_Content_Itm_Flora__259</title>
<path fill="none" stroke="red" d="M1988,-1830C2019.15,-1830 2011.1,-1786.34 2000.6,-1753.42"/>
<polygon fill="none" stroke="red" points="2004,-1752.54 1997.49,-1744.18 1997.37,-1754.78 2004,-1752.54"/>
</g>
<!-- SetData__87 -->
<g id="node27" class="node">
<title>SetData__87</title>
<polygon fill="#eeeeee" stroke="black" points="1533,-1697.5 1533,-1735.5 1649,-1735.5 1649,-1697.5 1533,-1697.5"/>
<text text-anchor="start" x="1541" y="-1720.3" font-family="monospace" font-size="14.00">EX_Return</text>
<text text-anchor="start" x="1541" y="-1705.3" font-family="monospace" font-size="14.00">  EX_Nothing</text>
</g>
<!-- SetData__72&#45;&gt;SetData__87 -->
<g id="edge24" class="edge">
<title>SetData__72&#45;&gt;SetData__87</title>
<path fill="none" stroke="black" d="M1591,-1811.09C1591,-1793.77 1591,-1767.24 1591,-1746.85"/>
<polygon fill="black" stroke="black" points="1594.5,-1746.88 1591,-1736.88 1587.5,-1746.88 1594.5,-1746.88"/>
</g>
<!-- SetData__89 -->
<g id="node28" class="node">
<title>SetData__89</title>
<polygon fill="#eeeeee" stroke="black" points="1912,-2319.5 1912,-2355.5 2044,-2355.5 2044,-2319.5 1912,-2319.5"/>
<text text-anchor="start" x="1920" y="-2333.8" font-family="monospace" font-size="14.00">EX_EndOfScript</text>
</g>
<!-- GetToolTipWidget_0 -->
<g id="node29" class="node">
<title>GetToolTipWidget_0</title>
<polygon fill="#ff8888" stroke="black" points="2091.5,-2539 2091.5,-2697 2636.5,-2697 2636.5,-2539 2091.5,-2539"/>
<text text-anchor="start" x="2099.5" y="-2681.8" font-family="monospace" font-size="14.00">Function GetToolTipWidget_0</text>
<text text-anchor="start" x="2099.5" y="-2666.8" font-family="monospace" font-size="14.00">  ObjectProperty ReturnValue</text>
<text text-anchor="start" x="2099.5" y="-2651.8" font-family="monospace" font-size="14.00">    CPF_Parm|CPF_OutParm|CPF_ReturnParm|CPF_InstancedReference</text>
<text text-anchor="start" x="2099.5" y="-2636.8" font-family="monospace" font-size="14.00">  ObjectProperty HoverTooltipWidget</text>
<text text-anchor="start" x="2099.5" y="-2621.8" font-family="monospace" font-size="14.00">    CPF_Edit|CPF_BlueprintVisible|CPF_InstancedReference</text>
<text text-anchor="start" x="2099.5" y="-2606.8" font-family="monospace" font-size="14.00">  ObjectProperty CallFunc_GetWindowManager_ReturnValue</text>
<text text-anchor="start" x="2099.5" y="-2591.8" font-family="monospace" font-size="14.00">    CPF_InstancedReference</text>
<text text-anchor="start" x="2099.5" y="-2576.8" font-family="monospace" font-size="14.00">  BoolProperty CallFunc_GetOrCreateSingletonWidget_WidgetCreated</text>
<text text-anchor="start" x="2099.5" y="-2561.8" font-family="monospace" font-size="14.00">  ObjectProperty CallFunc_GetOrCreateSingletonWidget_ReturnValue</text>
<text text-anchor="start" x="2099.5" y="-2546.8" font-family="monospace" font-size="14.00">    CPF_InstancedReference</text>
</g>
<!-- GetToolTipWidget_0__0 -->
<g id="node30" class="node">
<title>GetToolTipWidget_0__0</title>
<polygon fill="#eeeeee" stroke="black" points="2063,-2374.5 2063,-2442.5 2665,-2442.5 2665,-2374.5 2063,-2374.5"/>
<text text-anchor="start" x="2071" y="-2427.3" font-family="monospace" font-size="14.00">EX_LetObj</text>
<text text-anchor="start" x="2071" y="-2412.3" font-family="monospace" font-size="14.00">  EX_LocalVariable [CallFunc_GetWindowManager_ReturnValue]</text>
<text text-anchor="start" x="2071" y="-2397.3" font-family="monospace" font-size="14.00">  EX_CallMath import /Script/FSD&#45;&gt;GameFunctionLibrary&#45;&gt;GetWindowManager</text>
<text text-anchor="start" x="2071" y="-2382.3" font-family="monospace" font-size="14.00">    EX_Self</text>
</g>
<!-- GetToolTipWidget_0&#45;&gt;GetToolTipWidget_0__0 -->
<g id="edge25" class="edge">
<title>GetToolTipWidget_0&#45;&gt;GetToolTipWidget_0__0</title>
<path fill="none" stroke="black" d="M2364,-2539.14C2364,-2510.26 2364,-2478.5 2364,-2453.65"/>
<polygon fill="black" stroke="black" points="2367.5,-2453.92 2364,-2443.92 2360.5,-2453.92 2367.5,-2453.92"/>
</g>
<!-- GetToolTipWidget_0__21 -->
<g id="node31" class="node">
<title>GetToolTipWidget_0__21</title>
<polygon fill="#eeeeee" stroke="black" points="1910,-2172.5 1910,-2300.5 2818,-2300.5 2818,-2172.5 1910,-2172.5"/>
<text text-anchor="start" x="1918" y="-2285.3" font-family="monospace" font-size="14.00">EX_LetObj</text>
<text text-anchor="start" x="1918" y="-2270.3" font-family="monospace" font-size="14.00">  EX_LocalVariable [CallFunc_GetOrCreateSingletonWidget_ReturnValue]</text>
<text text-anchor="start" x="1918" y="-2255.3" font-family="monospace" font-size="14.00">  EX_Context</text>
<text text-anchor="start" x="1918" y="-2240.3" font-family="monospace" font-size="14.00">    EX_LocalVariable [CallFunc_GetWindowManager_ReturnValue]</text>
<text text-anchor="start" x="1918" y="-2225.3" font-family="monospace" font-size="14.00">    EX_FinalFunction import /Script/FSD&#45;&gt;WindowManager&#45;&gt;GetOrCreateSingletonWidget</text>
<text text-anchor="start" x="1918" y="-2210.3" font-family="monospace" font-size="14.00">      EX_ObjectConst import /Game/UI/ToolTips/Basic_ToolTip_HeadlineAndText&#45;&gt;Basic_ToolTip_HeadlineAndText_C</text>
<text text-anchor="start" x="1918" y="-2195.3" font-family="monospace" font-size="14.00">      EX_LocalVariable [CallFunc_GetOrCreateSingletonWidget_WidgetCreated]</text>
<text text-anchor="start" x="1918" y="-2180.3" font-family="monospace" font-size="14.00">    RValue = [CallFunc_GetOrCreateSingletonWidget_ReturnValue]</text>
</g>
<!-- GetToolTipWidget_0__0&#45;&gt;GetToolTipWidget_0__21 -->
<g id="edge26" class="edge">
<title>GetToolTipWidget_0__0&#45;&gt;GetToolTipWidget_0__21</title>
<path fill="none" stroke="black" d="M2364,-2374.72C2364,-2356.81 2364,-2333.85 2364,-2311.85"/>
<polygon fill="black" stroke="black" points="2367.5,-2311.98 2364,-2301.98 2360.5,-2311.98 2367.5,-2311.98"/>
</g>
<!-- GetToolTipWidget_0__81 -->
<g id="node32" class="node">
<title>GetToolTipWidget_0__81</title>
<polygon fill="#eeeeee" stroke="black" points="2075,-2045.5 2075,-2098.5 2653,-2098.5 2653,-2045.5 2075,-2045.5"/>
<text text-anchor="start" x="2083" y="-2083.3" font-family="monospace" font-size="14.00">EX_LetObj</text>
<text text-anchor="start" x="2083" y="-2068.3" font-family="monospace" font-size="14.00">  EX_LocalVariable [HoverTooltipWidget]</text>
<text text-anchor="start" x="2083" y="-2053.3" font-family="monospace" font-size="14.00">  EX_LocalVariable [CallFunc_GetOrCreateSingletonWidget_ReturnValue]</text>
</g>
<!-- GetToolTipWidget_0__21&#45;&gt;GetToolTipWidget_0__81 -->
<g id="edge27" class="edge">
<title>GetToolTipWidget_0__21&#45;&gt;GetToolTipWidget_0__81</title>
<path fill="none" stroke="black" d="M2364,-2172.67C2364,-2151.43 2364,-2128.41 2364,-2109.85"/>
<polygon fill="black" stroke="black" points="2367.5,-2109.87 2364,-2099.87 2360.5,-2109.87 2367.5,-2109.87"/>
</g>
<!-- GetToolTipWidget_0__100 -->
<g id="node33" class="node">
<title>GetToolTipWidget_0__100</title>
<polygon fill="#eeeeee" stroke="black" points="2195,-1909.5 2195,-2007.5 2533,-2007.5 2533,-1909.5 2195,-1909.5"/>
<text text-anchor="start" x="2203" y="-1992.3" font-family="monospace" font-size="14.00">EX_Context</text>
<text text-anchor="start" x="2203" y="-1977.3" font-family="monospace" font-size="14.00">  EX_LocalVariable [HoverTooltipWidget]</text>
<text text-anchor="start" x="2203" y="-1962.3" font-family="monospace" font-size="14.00">  EX_LocalVirtualFunction SetText</text>
<text text-anchor="start" x="2203" y="-1947.3" font-family="monospace" font-size="14.00">    EX_InstanceVariable [Name]</text>
<text text-anchor="start" x="2203" y="-1932.3" font-family="monospace" font-size="14.00">    EX_InstanceVariable [Description]</text>
<text text-anchor="start" x="2203" y="-1917.3" font-family="monospace" font-size="14.00">  RValue = []</text>
</g>
<!-- GetToolTipWidget_0__81&#45;&gt;GetToolTipWidget_0__100 -->
<g id="edge28" class="edge">
<title>GetToolTipWidget_0__81&#45;&gt;GetToolTipWidget_0__100</title>
<path fill="none" stroke="black" d="M2364,-2045.7C2364,-2037.48 2364,-2027.98 2364,-2018.37"/>
<polygon fill="black" stroke="black" points="2367.5,-2018.6 2364,-2008.6 2360.5,-2018.6 2367.5,-2018.6"/>
</g>
<!-- GetToolTipWidget_0__154 -->
<g id="node34" class="node">
<title>GetToolTipWidget_0__154</title>
<polygon fill="#eeeeee" stroke="black" points="2195,-1788.5 2195,-1871.5 2533,-1871.5 2533,-1788.5 2195,-1788.5"/>
<text text-anchor="start" x="2203" y="-1856.3" font-family="monospace" font-size="14.00">EX_Context</text>
<text text-anchor="start" x="2203" y="-1841.3" font-family="monospace" font-size="14.00">  EX_LocalVariable [HoverTooltipWidget]</text>
<text text-anchor="start" x="2203" y="-1826.3" font-family="monospace" font-size="14.00">  EX_VirtualFunction SetVisibility</text>
<text text-anchor="start" x="2203" y="-1811.3" font-family="monospace" font-size="14.00">    EX_ByteConst 0</text>
<text text-anchor="start" x="2203" y="-1796.3" font-family="monospace" font-size="14.00">  RValue = []</text>
</g>
<!-- GetToolTipWidget_0__100&#45;&gt;GetToolTipWidget_0__154 -->
<g id="edge29" class="edge">
<title>GetToolTipWidget_0__100&#45;&gt;GetToolTipWidget_0__154</title>
<path fill="none" stroke="black" d="M2364,-1909.68C2364,-1900.92 2364,-1891.74 2364,-1882.87"/>
<polygon fill="black" stroke="black" points="2367.5,-1882.97 2364,-1872.97 2360.5,-1882.97 2367.5,-1882.97"/>
</g>
<!-- GetToolTipWidget_0__192 -->
<g id="node35" class="node">
<title>GetToolTipWidget_0__192</title>
<polygon fill="#eeeeee" stroke="black" points="2195,-1682.5 2195,-1750.5 2533,-1750.5 2533,-1682.5 2195,-1682.5"/>
<text text-anchor="start" x="2203" y="-1735.3" font-family="monospace" font-size="14.00">EX_LetObj</text>
<text text-anchor="start" x="2203" y="-1720.3" font-family="monospace" font-size="14.00">  EX_LocalOutVariable</text>
<text text-anchor="start" x="2203" y="-1705.3" font-family="monospace" font-size="14.00">    [ReturnValue]</text>
<text text-anchor="start" x="2203" y="-1690.3" font-family="monospace" font-size="14.00">  EX_LocalVariable [HoverTooltipWidget]</text>
</g>
<!-- GetToolTipWidget_0__154&#45;&gt;GetToolTipWidget_0__192 -->
<g id="edge30" class="edge">
<title>GetToolTipWidget_0__154&#45;&gt;GetToolTipWidget_0__192</title>
<path fill="none" stroke="black" d="M2364,-1788.75C2364,-1779.98 2364,-1770.67 2364,-1761.76"/>
<polygon fill="black" stroke="black" points="2367.5,-1761.88 2364,-1751.88 2360.5,-1761.88 2367.5,-1761.88"/>
</g>
<!-- GetToolTipWidget_0__211 -->
<g id="node36" class="node">
<title>GetToolTipWidget_0__211</title>
<polygon fill="#eeeeee" stroke="black" points="2269,-1591.5 2269,-1644.5 2459,-1644.5 2459,-1591.5 2269,-1591.5"/>
<text text-anchor="start" x="2277" y="-1629.3" font-family="monospace" font-size="14.00">EX_Return</text>
<text text-anchor="start" x="2277" y="-1614.3" font-family="monospace" font-size="14.00">  EX_LocalOutVariable</text>
<text text-anchor="start" x="2277" y="-1599.3" font-family="monospace" font-size="14.00">    [ReturnValue]</text>
</g>
<!-- GetToolTipWidget_0__192&#45;&gt;GetToolTipWidget_0__211 -->
<g id="edge31" class="edge">
<title>GetToolTipWidget_0__192&#45;&gt;GetToolTipWidget_0__211</title>
<path fill="none" stroke="black" d="M2364,-1682.56C2364,-1674 2364,-1664.73 2364,-1655.97"/>
<polygon fill="black" stroke="black" points="2367.5,-1656 2364,-1646 2360.5,-1656 2367.5,-1656"/>
</g>
<!-- GetToolTipWidget_0__221 -->
<g id="node37" class="node">
<title>GetToolTipWidget_0__221</title>
<polygon fill="#eeeeee" stroke="black" points="2379,-2117.5 2379,-2153.5 2511,-2153.5 2511,-2117.5 2379,-2117.5"/>
<text text-anchor="start" x="2387" y="-2131.8" font-family="monospace" font-size="14.00">EX_EndOfScript</text>
</g>
</g>
</svg>
