<?xml version="1.0" encoding="UTF-8" standalone="no"?>
<!DOCTYPE svg PUBLIC "-//W3C//DTD SVG 1.1//EN"
 "http://www.w3.org/Graphics/SVG/1.1/DTD/svg11.dtd">
<!-- Generated by graphviz version 7.0.1 (0)
 -->
<!-- Pages: 1 -->
<svg width="2218pt" height="2859pt"
 viewBox="0.00 0.00 2218.00 2859.00" xmlns="http://www.w3.org/2000/svg" xmlns:xlink="http://www.w3.org/1999/xlink">
<g id="graph0" class="graph" transform="scale(1 1) rotate(0) translate(4 2855)">
<polygon fill="white" stroke="none" points="-4,4 -4,-2855 2214,-2855 2214,4 -4,4"/>
<!-- BP_EnemyShowroomController_C -->
<g id="node1" class="node">
<title>BP_EnemyShowroomController_C</title>
<polygon fill="#88ff88" stroke="black" points="0,-2662.5 0,-2745.5 495,-2745.5 495,-2662.5 0,-2662.5"/>
<text text-anchor="start" x="8" y="-2730.3" font-family="monospace" font-size="14.00">ClassExport: BP_EnemyShowroomController_C</text>
<text text-anchor="start" x="8" y="-2715.3" font-family="monospace" font-size="14.00">  SuperStruct: import /Script/FSD&#45;&gt;EnemyShowroomController</text>
<text text-anchor="start" x="8" y="-2700.3" font-family="monospace" font-size="14.00">  Properties:</text>
<text text-anchor="start" x="8" y="-2685.3" font-family="monospace" font-size="14.00">    StructProperty UberGraphFrame</text>
<text text-anchor="start" x="8" y="-2670.3" font-family="monospace" font-size="14.00">      CPF_Transient|CPF_DuplicateTransient</text>
</g>
<!-- ExecuteUbergraph_BP_EnemyShowroomController -->
<g id="node2" class="node">
<title>ExecuteUbergraph_BP_EnemyShowroomController</title>
<polygon fill="#ff8888" stroke="black" points="513.5,-2557.5 513.5,-2850.5 1025.5,-2850.5 1025.5,-2557.5 513.5,-2557.5"/>
<text text-anchor="start" x="521.5" y="-2835.3" font-family="monospace" font-size="14.00">Function ExecuteUbergraph_BP_EnemyShowroomController</text>
<text text-anchor="start" x="521.5" y="-2820.3" font-family="monospace" font-size="14.00">  IntProperty EntryPoint</text>
<text text-anchor="start" x="521.5" y="-2805.3" font-family="monospace" font-size="14.00">    CPF_BlueprintVisible|CPF_BlueprintReadOnly|CPF_Parm</text>
<text text-anchor="start" x="521.5" y="-2790.3" font-family="monospace" font-size="14.00">  ArrayProperty CallFunc_K2_GetComponentsByClass_ReturnValue</text>
<text text-anchor="start" x="521.5" y="-2775.3" font-family="monospace" font-size="14.00">    CPF_ReferenceParm|CPF_ContainsInstancedReference</text>
<text text-anchor="start" x="521.5" y="-2760.3" font-family="monospace" font-size="14.00">  IntProperty Temp_int_Array_Index_Variable</text>
<text text-anchor="start" x="521.5" y="-2745.3" font-family="monospace" font-size="14.00">  IntProperty CallFunc_Array_Length_ReturnValue</text>
<text text-anchor="start" x="521.5" y="-2730.3" font-family="monospace" font-size="14.00">  ObjectProperty CallFunc_Array_Get_Item</text>
<text text-anchor="start" x="521.5" y="-2715.3" font-family="monospace" font-size="14.00">    CPF_InstancedReference</text>
<text text-anchor="start" x="521.5" y="-2700.3" font-family="monospace" font-size="14.00">  IntProperty Temp_int_Loop_Counter_Variable</text>
<text text-anchor="start" x="521.5" y="-2685.3" font-family="monospace" font-size="14.00">  BoolProperty CallFunc_Less_IntInt_ReturnValue</text>
<text text-anchor="start" x="521.5" y="-2670.3" font-family="monospace" font-size="14.00">  IntProperty CallFunc_Add_IntInt_ReturnValue</text>
<text text-anchor="start" x="521.5" y="-2655.3" font-family="monospace" font-size="14.00">  ObjectProperty K2Node_Event_attackAnimation</text>
<text text-anchor="start" x="521.5" y="-2640.3" font-family="monospace" font-size="14.00">  ObjectProperty K2Node_DynamicCast_AsAnim_Montage</text>
<text text-anchor="start" x="521.5" y="-2625.3" font-family="monospace" font-size="14.00">  BoolProperty K2Node_DynamicCast_bSuccess</text>
<text text-anchor="start" x="521.5" y="-2610.3" font-family="monospace" font-size="14.00">  ObjectProperty CallFunc_GetComponentByClass_ReturnValue</text>
<text text-anchor="start" x="521.5" y="-2595.3" font-family="monospace" font-size="14.00">    CPF_InstancedReference</text>
<text text-anchor="start" x="521.5" y="-2580.3" font-family="monospace" font-size="14.00">  ObjectProperty CallFunc_GetAnimInstance_ReturnValue</text>
<text text-anchor="start" x="521.5" y="-2565.3" font-family="monospace" font-size="14.00">  FloatProperty CallFunc_Montage_Play_ReturnValue</text>
</g>
<!-- ExecuteUbergraph_BP_EnemyShowroomController__0 -->
<g id="node3" class="node">
<title>ExecuteUbergraph_BP_EnemyShowroomController__0</title>
<polygon fill="#eeeeee" stroke="black" points="662,-2446.5 662,-2482.5 877,-2482.5 877,-2446.5 662,-2446.5"/>
<text text-anchor="start" x="670" y="-2460.8" font-family="monospace" font-size="14.00">EX_PushExecutionFlow 721</text>
</g>
<!-- ExecuteUbergraph_BP_EnemyShowroomController&#45;&gt;ExecuteUbergraph_BP_EnemyShowroomController__0 -->
<g id="edge1" class="edge">
<title>ExecuteUbergraph_BP_EnemyShowroomController&#45;&gt;ExecuteUbergraph_BP_EnemyShowroomController__0</title>
<path fill="none" stroke="black" d="M769.5,-2557.66C769.5,-2533.18 769.5,-2510.28 769.5,-2493.43"/>
<polygon fill="black" stroke="black" points="773,-2493.81 769.5,-2483.81 766,-2493.81 773,-2493.81"/>
</g>
<!-- ExecuteUbergraph_BP_EnemyShowroomController__5 -->
<g id="node4" class="node">
<title>ExecuteUbergraph_BP_EnemyShowroomController__5</title>
<polygon fill="#eeeeee" stroke="black" points="581.5,-2333.5 581.5,-2371.5 853.5,-2371.5 853.5,-2333.5 581.5,-2333.5"/>
<text text-anchor="start" x="589.5" y="-2356.3" font-family="monospace" font-size="14.00">EX_ComputedJump</text>
<text text-anchor="start" x="589.5" y="-2341.3" font-family="monospace" font-size="14.00">  EX_LocalVariable [EntryPoint]</text>
</g>
<!-- ExecuteUbergraph_BP_EnemyShowroomController__0&#45;&gt;ExecuteUbergraph_BP_EnemyShowroomController__5 -->
<g id="edge3" class="edge">
<title>ExecuteUbergraph_BP_EnemyShowroomController__0&#45;&gt;ExecuteUbergraph_BP_EnemyShowroomController__5</title>
<path fill="none" stroke="black" d="M761.6,-2446.79C753.46,-2429.57 740.62,-2402.41 730.89,-2381.83"/>
<polygon fill="black" stroke="black" points="734.08,-2380.38 726.64,-2372.83 727.75,-2383.37 734.08,-2380.38"/>
</g>
<!-- ExecuteUbergraph_BP_EnemyShowroomController__721 -->
<g id="node28" class="node">
<title>ExecuteUbergraph_BP_EnemyShowroomController__721</title>
<polygon fill="#eeeeee" stroke="black" points="871.5,-2333.5 871.5,-2371.5 987.5,-2371.5 987.5,-2333.5 871.5,-2333.5"/>
<text text-anchor="start" x="879.5" y="-2356.3" font-family="monospace" font-size="14.00">EX_Return</text>
<text text-anchor="start" x="879.5" y="-2341.3" font-family="monospace" font-size="14.00">  EX_Nothing</text>
</g>
<!-- ExecuteUbergraph_BP_EnemyShowroomController__0&#45;&gt;ExecuteUbergraph_BP_EnemyShowroomController__721 -->
<g id="edge2" class="edge">
<title>ExecuteUbergraph_BP_EnemyShowroomController__0:e&#45;&gt;ExecuteUbergraph_BP_EnemyShowroomController__721</title>
<path fill="none" stroke="red" d="M878.5,-2464.5C914.58,-2464.5 925.23,-2415.49 928.31,-2382.6"/>
<polygon fill="none" stroke="red" points="931.79,-2383.07 929.03,-2372.84 924.81,-2382.56 931.79,-2383.07"/>
<text text-anchor="middle" x="969" y="-2404.8" font-family="monospace" font-size="14.00">PUSH STACK</text>
</g>
<!-- ExecuteUbergraph_BP_EnemyShowroomController__15 -->
<g id="node5" class="node">
<title>ExecuteUbergraph_BP_EnemyShowroomController__15</title>
<polygon fill="#eeeeee" stroke="black" points="1514,-511.5 1514,-547.5 1729,-547.5 1729,-511.5 1514,-511.5"/>
<text text-anchor="start" x="1522" y="-525.8" font-family="monospace" font-size="14.00">EX_PushExecutionFlow 176</text>
</g>
<!-- ExecuteUbergraph_BP_EnemyShowroomController__20 -->
<g id="node6" class="node">
<title>ExecuteUbergraph_BP_EnemyShowroomController__20</title>
<polygon fill="#eeeeee" stroke="black" points="804,-346.5 804,-459.5 1431,-459.5 1431,-346.5 804,-346.5"/>
<text text-anchor="start" x="812" y="-444.3" font-family="monospace" font-size="14.00">EX_Let</text>
<text text-anchor="start" x="812" y="-429.3" font-family="monospace" font-size="14.00">  EX_LocalVariable [CallFunc_K2_GetComponentsByClass_ReturnValue]</text>
<text text-anchor="start" x="812" y="-414.3" font-family="monospace" font-size="14.00">  EX_Context</text>
<text text-anchor="start" x="812" y="-399.3" font-family="monospace" font-size="14.00">    EX_InstanceVariable [EnemyInstance]</text>
<text text-anchor="start" x="812" y="-384.3" font-family="monospace" font-size="14.00">    EX_FinalFunction import /Script/Engine&#45;&gt;Actor&#45;&gt;K2_GetComponentsByClass</text>
<text text-anchor="start" x="812" y="-369.3" font-family="monospace" font-size="14.00">      EX_ObjectConst import /Script/Engine&#45;&gt;ParticleSystemComponent</text>
<text text-anchor="start" x="812" y="-354.3" font-family="monospace" font-size="14.00">    RValue = [CallFunc_K2_GetComponentsByClass_ReturnValue]</text>
</g>
<!-- ExecuteUbergraph_BP_EnemyShowroomController__15&#45;&gt;ExecuteUbergraph_BP_EnemyShowroomController__20 -->
<g id="edge5" class="edge">
<title>ExecuteUbergraph_BP_EnemyShowroomController__15&#45;&gt;ExecuteUbergraph_BP_EnemyShowroomController__20</title>
<path fill="none" stroke="black" d="M1552.74,-511.51C1500.62,-498.64 1425.74,-480.14 1352.74,-462.11"/>
<polygon fill="black" stroke="black" points="1354,-458.82 1343.45,-459.82 1352.32,-465.61 1354,-458.82"/>
</g>
<!-- ExecuteUbergraph_BP_EnemyShowroomController__176 -->
<g id="node10" class="node">
<title>ExecuteUbergraph_BP_EnemyShowroomController__176</title>
<polygon fill="#eeeeee" stroke="black" points="1449,-361.5 1449,-444.5 2010,-444.5 2010,-361.5 1449,-361.5"/>
<text text-anchor="start" x="1457" y="-429.3" font-family="monospace" font-size="14.00">EX_Let</text>
<text text-anchor="start" x="1457" y="-414.3" font-family="monospace" font-size="14.00">  EX_LocalVariable [CallFunc_Add_IntInt_ReturnValue]</text>
<text text-anchor="start" x="1457" y="-399.3" font-family="monospace" font-size="14.00">  EX_CallMath import /Script/Engine&#45;&gt;KismetMathLibrary&#45;&gt;Add_IntInt</text>
<text text-anchor="start" x="1457" y="-384.3" font-family="monospace" font-size="14.00">    EX_LocalVariable [Temp_int_Loop_Counter_Variable]</text>
<text text-anchor="start" x="1457" y="-369.3" font-family="monospace" font-size="14.00">    EX_IntConst 1</text>
</g>
<!-- ExecuteUbergraph_BP_EnemyShowroomController__15&#45;&gt;ExecuteUbergraph_BP_EnemyShowroomController__176 -->
<g id="edge4" class="edge">
<title>ExecuteUbergraph_BP_EnemyShowroomController__15:e&#45;&gt;ExecuteUbergraph_BP_EnemyShowroomController__176</title>
<path fill="none" stroke="red" d="M1730.5,-529.5C1761.76,-529.5 1757.67,-490.08 1748.03,-455.43"/>
<polygon fill="none" stroke="red" points="1751.39,-454.43 1745.18,-445.85 1744.68,-456.43 1751.39,-454.43"/>
<text text-anchor="middle" x="1796" y="-481.8" font-family="monospace" font-size="14.00">PUSH STACK</text>
</g>
<!-- ExecuteUbergraph_BP_EnemyShowroomController__79 -->
<g id="node7" class="node">
<title>ExecuteUbergraph_BP_EnemyShowroomController__79</title>
<polygon fill="#eeeeee" stroke="black" points="816.5,-195.5 816.5,-308.5 1418.5,-308.5 1418.5,-195.5 816.5,-195.5"/>
<text text-anchor="start" x="824.5" y="-293.3" font-family="monospace" font-size="14.00">EX_Context</text>
<text text-anchor="start" x="824.5" y="-278.3" font-family="monospace" font-size="14.00">  EX_ObjectConst import /Script/Engine&#45;&gt;Default__KismetArrayLibrary</text>
<text text-anchor="start" x="824.5" y="-263.3" font-family="monospace" font-size="14.00">  EX_FinalFunction import /Script/Engine&#45;&gt;KismetArrayLibrary&#45;&gt;Array_Get</text>
<text text-anchor="start" x="824.5" y="-248.3" font-family="monospace" font-size="14.00">    EX_LocalVariable [CallFunc_K2_GetComponentsByClass_ReturnValue]</text>
<text text-anchor="start" x="824.5" y="-233.3" font-family="monospace" font-size="14.00">    EX_LocalVariable [Temp_int_Array_Index_Variable]</text>
<text text-anchor="start" x="824.5" y="-218.3" font-family="monospace" font-size="14.00">    EX_LocalVariable [CallFunc_Array_Get_Item]</text>
<text text-anchor="start" x="824.5" y="-203.3" font-family="monospace" font-size="14.00">  RValue = []</text>
</g>
<!-- ExecuteUbergraph_BP_EnemyShowroomController__20&#45;&gt;ExecuteUbergraph_BP_EnemyShowroomController__79 -->
<g id="edge6" class="edge">
<title>ExecuteUbergraph_BP_EnemyShowroomController__20&#45;&gt;ExecuteUbergraph_BP_EnemyShowroomController__79</title>
<path fill="none" stroke="black" d="M1117.5,-346.52C1117.5,-337.68 1117.5,-328.45 1117.5,-319.39"/>
<polygon fill="black" stroke="black" points="1121,-319.55 1117.5,-309.55 1114,-319.55 1121,-319.55"/>
</g>
<!-- ExecuteUbergraph_BP_EnemyShowroomController__138 -->
<g id="node8" class="node">
<title>ExecuteUbergraph_BP_EnemyShowroomController__138</title>
<polygon fill="#eeeeee" stroke="black" points="927.5,-74.5 927.5,-157.5 1307.5,-157.5 1307.5,-74.5 927.5,-74.5"/>
<text text-anchor="start" x="935.5" y="-142.3" font-family="monospace" font-size="14.00">EX_Context</text>
<text text-anchor="start" x="935.5" y="-127.3" font-family="monospace" font-size="14.00">  EX_LocalVariable [CallFunc_Array_Get_Item]</text>
<text text-anchor="start" x="935.5" y="-112.3" font-family="monospace" font-size="14.00">  EX_VirtualFunction Activate</text>
<text text-anchor="start" x="935.5" y="-97.3" font-family="monospace" font-size="14.00">    EX_True</text>
<text text-anchor="start" x="935.5" y="-82.3" font-family="monospace" font-size="14.00">  RValue = []</text>
</g>
<!-- ExecuteUbergraph_BP_EnemyShowroomController__79&#45;&gt;ExecuteUbergraph_BP_EnemyShowroomController__138 -->
<g id="edge7" class="edge">
<title>ExecuteUbergraph_BP_EnemyShowroomController__79&#45;&gt;ExecuteUbergraph_BP_EnemyShowroomController__138</title>
<path fill="none" stroke="black" d="M1117.5,-195.72C1117.5,-186.8 1117.5,-177.59 1117.5,-168.76"/>
<polygon fill="black" stroke="black" points="1121,-168.93 1117.5,-158.93 1114,-168.93 1121,-168.93"/>
</g>
<!-- ExecuteUbergraph_BP_EnemyShowroomController__175 -->
<g id="node9" class="node">
<title>ExecuteUbergraph_BP_EnemyShowroomController__175</title>
<polygon fill="#eeeeee" stroke="black" points="1031,-0.5 1031,-36.5 1204,-36.5 1204,-0.5 1031,-0.5"/>
<text text-anchor="start" x="1039" y="-14.8" font-family="monospace" font-size="14.00">EX_PopExecutionFlow</text>
</g>
<!-- ExecuteUbergraph_BP_EnemyShowroomController__138&#45;&gt;ExecuteUbergraph_BP_EnemyShowroomController__175 -->
<g id="edge8" class="edge">
<title>ExecuteUbergraph_BP_EnemyShowroomController__138&#45;&gt;ExecuteUbergraph_BP_EnemyShowroomController__175</title>
<path fill="none" stroke="black" d="M1117.5,-74.78C1117.5,-65.73 1117.5,-56.32 1117.5,-47.88"/>
<polygon fill="black" stroke="black" points="1121,-47.88 1117.5,-37.88 1114,-47.88 1121,-47.88"/>
</g>
<!-- ExecuteUbergraph_BP_EnemyShowroomController__218 -->
<g id="node11" class="node">
<title>ExecuteUbergraph_BP_EnemyShowroomController__218</title>
<polygon fill="#eeeeee" stroke="black" points="1732.5,-225.5 1732.5,-278.5 2178.5,-278.5 2178.5,-225.5 1732.5,-225.5"/>
<text text-anchor="start" x="1740.5" y="-263.3" font-family="monospace" font-size="14.00">EX_Let</text>
<text text-anchor="start" x="1740.5" y="-248.3" font-family="monospace" font-size="14.00">  EX_LocalVariable [Temp_int_Loop_Counter_Variable]</text>
<text text-anchor="start" x="1740.5" y="-233.3" font-family="monospace" font-size="14.00">  EX_LocalVariable [CallFunc_Add_IntInt_ReturnValue]</text>
</g>
<!-- ExecuteUbergraph_BP_EnemyShowroomController__176&#45;&gt;ExecuteUbergraph_BP_EnemyShowroomController__218 -->
<g id="edge9" class="edge">
<title>ExecuteUbergraph_BP_EnemyShowroomController__176&#45;&gt;ExecuteUbergraph_BP_EnemyShowroomController__218</title>
<path fill="none" stroke="black" d="M1790.66,-361.68C1827.46,-337.41 1873.63,-306.98 1907.74,-284.49"/>
<polygon fill="black" stroke="black" points="1909.34,-287.63 1915.76,-279.2 1905.48,-281.78 1909.34,-287.63"/>
</g>
<!-- ExecuteUbergraph_BP_EnemyShowroomController__245 -->
<g id="node12" class="node">
<title>ExecuteUbergraph_BP_EnemyShowroomController__245</title>
<polygon fill="#eeeeee" stroke="black" points="1550,-1098.5 1550,-1211.5 2177,-1211.5 2177,-1098.5 1550,-1098.5"/>
<text text-anchor="start" x="1558" y="-1196.3" font-family="monospace" font-size="14.00">EX_Let</text>
<text text-anchor="start" x="1558" y="-1181.3" font-family="monospace" font-size="14.00">  EX_LocalVariable [CallFunc_K2_GetComponentsByClass_ReturnValue]</text>
<text text-anchor="start" x="1558" y="-1166.3" font-family="monospace" font-size="14.00">  EX_Context</text>
<text text-anchor="start" x="1558" y="-1151.3" font-family="monospace" font-size="14.00">    EX_InstanceVariable [EnemyInstance]</text>
<text text-anchor="start" x="1558" y="-1136.3" font-family="monospace" font-size="14.00">    EX_FinalFunction import /Script/Engine&#45;&gt;Actor&#45;&gt;K2_GetComponentsByClass</text>
<text text-anchor="start" x="1558" y="-1121.3" font-family="monospace" font-size="14.00">      EX_ObjectConst import /Script/Engine&#45;&gt;ParticleSystemComponent</text>
<text text-anchor="start" x="1558" y="-1106.3" font-family="monospace" font-size="14.00">    RValue = [CallFunc_K2_GetComponentsByClass_ReturnValue]</text>
</g>
<!-- ExecuteUbergraph_BP_EnemyShowroomController__218&#45;&gt;ExecuteUbergraph_BP_EnemyShowroomController__245 -->
<g id="edge10" class="edge">
<title>ExecuteUbergraph_BP_EnemyShowroomController__218&#45;&gt;ExecuteUbergraph_BP_EnemyShowroomController__245</title>
<path fill="none" stroke="black" d="M1980.18,-278.34C2004.64,-306.24 2038.5,-353.59 2038.5,-402 2038.5,-1005 2038.5,-1005 2038.5,-1005 2038.5,-1031.28 2036.03,-1040.57 2019.5,-1061 2010.33,-1072.33 1999.39,-1082.6 1987.62,-1091.82"/>
<polygon fill="black" stroke="black" points="1985.59,-1088.97 1979.68,-1097.77 1989.78,-1094.58 1985.59,-1088.97"/>
</g>
<!-- ExecuteUbergraph_BP_EnemyShowroomController__304 -->
<g id="node13" class="node">
<title>ExecuteUbergraph_BP_EnemyShowroomController__304</title>
<polygon fill="#eeeeee" stroke="black" points="1366.5,-947.5 1366.5,-1060.5 2010.5,-1060.5 2010.5,-947.5 1366.5,-947.5"/>
<text text-anchor="start" x="1374.5" y="-1045.3" font-family="monospace" font-size="14.00">EX_Let</text>
<text text-anchor="start" x="1374.5" y="-1030.3" font-family="monospace" font-size="14.00">  EX_LocalVariable [CallFunc_Array_Length_ReturnValue]</text>
<text text-anchor="start" x="1374.5" y="-1015.3" font-family="monospace" font-size="14.00">  EX_Context</text>
<text text-anchor="start" x="1374.5" y="-1000.3" font-family="monospace" font-size="14.00">    EX_ObjectConst import /Script/Engine&#45;&gt;Default__KismetArrayLibrary</text>
<text text-anchor="start" x="1374.5" y="-985.3" font-family="monospace" font-size="14.00">    EX_FinalFunction import /Script/Engine&#45;&gt;KismetArrayLibrary&#45;&gt;Array_Length</text>
<text text-anchor="start" x="1374.5" y="-970.3" font-family="monospace" font-size="14.00">      EX_LocalVariable [CallFunc_K2_GetComponentsByClass_ReturnValue]</text>
<text text-anchor="start" x="1374.5" y="-955.3" font-family="monospace" font-size="14.00">    RValue = [CallFunc_Array_Length_ReturnValue]</text>
</g>
<!-- ExecuteUbergraph_BP_EnemyShowroomController__245&#45;&gt;ExecuteUbergraph_BP_EnemyShowroomController__304 -->
<g id="edge11" class="edge">
<title>ExecuteUbergraph_BP_EnemyShowroomController__245&#45;&gt;ExecuteUbergraph_BP_EnemyShowroomController__304</title>
<path fill="none" stroke="black" d="M1798.34,-1098.52C1786.53,-1088.46 1774.14,-1077.92 1762.11,-1067.67"/>
<polygon fill="black" stroke="black" points="1764.46,-1065.08 1754.58,-1061.26 1759.92,-1070.41 1764.46,-1065.08"/>
</g>
<!-- ExecuteUbergraph_BP_EnemyShowroomController__363 -->
<g id="node14" class="node">
<title>ExecuteUbergraph_BP_EnemyShowroomController__363</title>
<polygon fill="#eeeeee" stroke="black" points="1370,-826.5 1370,-909.5 1939,-909.5 1939,-826.5 1370,-826.5"/>
<text text-anchor="start" x="1378" y="-894.3" font-family="monospace" font-size="14.00">EX_LetBool</text>
<text text-anchor="start" x="1378" y="-879.3" font-family="monospace" font-size="14.00">  EX_LocalVariable [CallFunc_Less_IntInt_ReturnValue]</text>
<text text-anchor="start" x="1378" y="-864.3" font-family="monospace" font-size="14.00">  EX_CallMath import /Script/Engine&#45;&gt;KismetMathLibrary&#45;&gt;Less_IntInt</text>
<text text-anchor="start" x="1378" y="-849.3" font-family="monospace" font-size="14.00">    EX_LocalVariable [Temp_int_Loop_Counter_Variable]</text>
<text text-anchor="start" x="1378" y="-834.3" font-family="monospace" font-size="14.00">    EX_LocalVariable [CallFunc_Array_Length_ReturnValue]</text>
</g>
<!-- ExecuteUbergraph_BP_EnemyShowroomController__304&#45;&gt;ExecuteUbergraph_BP_EnemyShowroomController__363 -->
<g id="edge12" class="edge">
<title>ExecuteUbergraph_BP_EnemyShowroomController__304&#45;&gt;ExecuteUbergraph_BP_EnemyShowroomController__363</title>
<path fill="none" stroke="black" d="M1674.47,-947.72C1672.19,-938.7 1669.82,-929.38 1667.56,-920.46"/>
<polygon fill="black" stroke="black" points="1670.98,-919.71 1665.13,-910.88 1664.19,-921.43 1670.98,-919.71"/>
</g>
<!-- ExecuteUbergraph_BP_EnemyShowroomController__401 -->
<g id="node15" class="node">
<title>ExecuteUbergraph_BP_EnemyShowroomController__401</title>
<polygon fill="#eeeeee" stroke="black" points="1402.5,-750.5 1402.5,-788.5 1856.5,-788.5 1856.5,-750.5 1402.5,-750.5"/>
<text text-anchor="start" x="1410.5" y="-773.3" font-family="monospace" font-size="14.00">EX_PopExecutionFlowIfNot</text>
<text text-anchor="start" x="1410.5" y="-758.3" font-family="monospace" font-size="14.00">  EX_LocalVariable [CallFunc_Less_IntInt_ReturnValue]</text>
</g>
<!-- ExecuteUbergraph_BP_EnemyShowroomController__363&#45;&gt;ExecuteUbergraph_BP_EnemyShowroomController__401 -->
<g id="edge13" class="edge">
<title>ExecuteUbergraph_BP_EnemyShowroomController__363&#45;&gt;ExecuteUbergraph_BP_EnemyShowroomController__401</title>
<path fill="none" stroke="black" d="M1644.04,-826.63C1641.65,-817.4 1639.16,-807.77 1636.92,-799.15"/>
<polygon fill="black" stroke="black" points="1640.35,-798.42 1634.45,-789.62 1633.57,-800.17 1640.35,-798.42"/>
</g>
<!-- ExecuteUbergraph_BP_EnemyShowroomController__411 -->
<g id="node16" class="node">
<title>ExecuteUbergraph_BP_EnemyShowroomController__411</title>
<polygon fill="#eeeeee" stroke="black" points="1405,-659.5 1405,-712.5 1842,-712.5 1842,-659.5 1405,-659.5"/>
<text text-anchor="start" x="1413" y="-697.3" font-family="monospace" font-size="14.00">EX_Let</text>
<text text-anchor="start" x="1413" y="-682.3" font-family="monospace" font-size="14.00">  EX_LocalVariable [Temp_int_Array_Index_Variable]</text>
<text text-anchor="start" x="1413" y="-667.3" font-family="monospace" font-size="14.00">  EX_LocalVariable [Temp_int_Loop_Counter_Variable]</text>
</g>
<!-- ExecuteUbergraph_BP_EnemyShowroomController__401&#45;&gt;ExecuteUbergraph_BP_EnemyShowroomController__411 -->
<g id="edge14" class="edge">
<title>ExecuteUbergraph_BP_EnemyShowroomController__401&#45;&gt;ExecuteUbergraph_BP_EnemyShowroomController__411</title>
<path fill="none" stroke="black" d="M1628.2,-750.82C1627.61,-742.83 1626.89,-733.08 1626.2,-723.62"/>
<polygon fill="black" stroke="black" points="1629.7,-723.61 1625.48,-713.89 1622.72,-724.12 1629.7,-723.61"/>
</g>
<!-- ExecuteUbergraph_BP_EnemyShowroomController__438 -->
<g id="node17" class="node">
<title>ExecuteUbergraph_BP_EnemyShowroomController__438</title>
<polygon fill="#eeeeee" stroke="black" points="1572,-585.5 1572,-621.5 1671,-621.5 1671,-585.5 1572,-585.5"/>
<text text-anchor="start" x="1580" y="-599.8" font-family="monospace" font-size="14.00">EX_Jump 15</text>
</g>
<!-- ExecuteUbergraph_BP_EnemyShowroomController__411&#45;&gt;ExecuteUbergraph_BP_EnemyShowroomController__438 -->
<g id="edge15" class="edge">
<title>ExecuteUbergraph_BP_EnemyShowroomController__411&#45;&gt;ExecuteUbergraph_BP_EnemyShowroomController__438</title>
<path fill="none" stroke="black" d="M1622.87,-659.53C1622.65,-650.92 1622.41,-641.25 1622.19,-632.46"/>
<polygon fill="black" stroke="black" points="1625.7,-632.6 1621.95,-622.69 1618.7,-632.78 1625.7,-632.6"/>
</g>
<!-- ExecuteUbergraph_BP_EnemyShowroomController__438&#45;&gt;ExecuteUbergraph_BP_EnemyShowroomController__15 -->
<g id="edge16" class="edge">
<title>ExecuteUbergraph_BP_EnemyShowroomController__438&#45;&gt;ExecuteUbergraph_BP_EnemyShowroomController__15</title>
<path fill="none" stroke="black" d="M1621.5,-585.8C1621.5,-577.71 1621.5,-567.78 1621.5,-558.57"/>
<polygon fill="black" stroke="black" points="1625,-558.62 1621.5,-548.62 1618,-558.62 1625,-558.62"/>
</g>
<!-- ExecuteUbergraph_BP_EnemyShowroomController__443 -->
<g id="node18" class="node">
<title>ExecuteUbergraph_BP_EnemyShowroomController__443</title>
<polygon fill="#eeeeee" stroke="black" points="1649,-1323.5 1649,-1376.5 2078,-1376.5 2078,-1323.5 1649,-1323.5"/>
<text text-anchor="start" x="1657" y="-1361.3" font-family="monospace" font-size="14.00">EX_Let</text>
<text text-anchor="start" x="1657" y="-1346.3" font-family="monospace" font-size="14.00">  EX_LocalVariable [Temp_int_Array_Index_Variable]</text>
<text text-anchor="start" x="1657" y="-1331.3" font-family="monospace" font-size="14.00">  EX_IntConst 0</text>
</g>
<!-- ExecuteUbergraph_BP_EnemyShowroomController__466 -->
<g id="node19" class="node">
<title>ExecuteUbergraph_BP_EnemyShowroomController__466</title>
<polygon fill="#eeeeee" stroke="black" points="1810,-1249.5 1810,-1285.5 1917,-1285.5 1917,-1249.5 1810,-1249.5"/>
<text text-anchor="start" x="1818" y="-1263.8" font-family="monospace" font-size="14.00">EX_Jump 245</text>
</g>
<!-- ExecuteUbergraph_BP_EnemyShowroomController__443&#45;&gt;ExecuteUbergraph_BP_EnemyShowroomController__466 -->
<g id="edge17" class="edge">
<title>ExecuteUbergraph_BP_EnemyShowroomController__443&#45;&gt;ExecuteUbergraph_BP_EnemyShowroomController__466</title>
<path fill="none" stroke="black" d="M1863.5,-1323.53C1863.5,-1314.92 1863.5,-1305.25 1863.5,-1296.46"/>
<polygon fill="black" stroke="black" points="1867,-1296.69 1863.5,-1286.69 1860,-1296.69 1867,-1296.69"/>
</g>
<!-- ExecuteUbergraph_BP_EnemyShowroomController__466&#45;&gt;ExecuteUbergraph_BP_EnemyShowroomController__245 -->
<g id="edge18" class="edge">
<title>ExecuteUbergraph_BP_EnemyShowroomController__466&#45;&gt;ExecuteUbergraph_BP_EnemyShowroomController__245</title>
<path fill="none" stroke="black" d="M1863.5,-1249.72C1863.5,-1242.17 1863.5,-1232.73 1863.5,-1222.76"/>
<polygon fill="black" stroke="black" points="1867,-1222.87 1863.5,-1212.87 1860,-1222.87 1867,-1222.87"/>
</g>
<!-- ExecuteUbergraph_BP_EnemyShowroomController__471 -->
<g id="node20" class="node">
<title>ExecuteUbergraph_BP_EnemyShowroomController__471</title>
<polygon fill="#eeeeee" stroke="black" points="1645,-1488.5 1645,-1541.5 2082,-1541.5 2082,-1488.5 1645,-1488.5"/>
<text text-anchor="start" x="1653" y="-1526.3" font-family="monospace" font-size="14.00">EX_Let</text>
<text text-anchor="start" x="1653" y="-1511.3" font-family="monospace" font-size="14.00">  EX_LocalVariable [Temp_int_Loop_Counter_Variable]</text>
<text text-anchor="start" x="1653" y="-1496.3" font-family="monospace" font-size="14.00">  EX_IntConst 0</text>
</g>
<!-- ExecuteUbergraph_BP_EnemyShowroomController__494 -->
<g id="node21" class="node">
<title>ExecuteUbergraph_BP_EnemyShowroomController__494</title>
<polygon fill="#eeeeee" stroke="black" points="1810,-1414.5 1810,-1450.5 1917,-1450.5 1917,-1414.5 1810,-1414.5"/>
<text text-anchor="start" x="1818" y="-1428.8" font-family="monospace" font-size="14.00">EX_Jump 443</text>
</g>
<!-- ExecuteUbergraph_BP_EnemyShowroomController__471&#45;&gt;ExecuteUbergraph_BP_EnemyShowroomController__494 -->
<g id="edge19" class="edge">
<title>ExecuteUbergraph_BP_EnemyShowroomController__471&#45;&gt;ExecuteUbergraph_BP_EnemyShowroomController__494</title>
<path fill="none" stroke="black" d="M1863.5,-1488.53C1863.5,-1479.92 1863.5,-1470.25 1863.5,-1461.46"/>
<polygon fill="black" stroke="black" points="1867,-1461.69 1863.5,-1451.69 1860,-1461.69 1867,-1461.69"/>
</g>
<!-- ExecuteUbergraph_BP_EnemyShowroomController__494&#45;&gt;ExecuteUbergraph_BP_EnemyShowroomController__443 -->
<g id="edge20" class="edge">
<title>ExecuteUbergraph_BP_EnemyShowroomController__494&#45;&gt;ExecuteUbergraph_BP_EnemyShowroomController__443</title>
<path fill="none" stroke="black" d="M1863.5,-1414.82C1863.5,-1406.9 1863.5,-1397.09 1863.5,-1387.57"/>
<polygon fill="black" stroke="black" points="1867,-1387.74 1863.5,-1377.74 1860,-1387.74 1867,-1387.74"/>
</g>
<!-- ExecuteUbergraph_BP_EnemyShowroomController__499 -->
<g id="node22" class="node">
<title>ExecuteUbergraph_BP_EnemyShowroomController__499</title>
<polygon fill="#eeeeee" stroke="black" points="1546,-2212.5 1546,-2295.5 2181,-2295.5 2181,-2212.5 1546,-2212.5"/>
<text text-anchor="start" x="1554" y="-2280.3" font-family="monospace" font-size="14.00">EX_LetObj</text>
<text text-anchor="start" x="1554" y="-2265.3" font-family="monospace" font-size="14.00">  EX_LocalVariable [CallFunc_GetComponentByClass_ReturnValue]</text>
<text text-anchor="start" x="1554" y="-2250.3" font-family="monospace" font-size="14.00">  EX_CallMath import /Script/FSD&#45;&gt;ActorFunctionLibrary&#45;&gt;GetComponentByClass</text>
<text text-anchor="start" x="1554" y="-2235.3" font-family="monospace" font-size="14.00">    EX_InstanceVariable [EnemyInstance]</text>
<text text-anchor="start" x="1554" y="-2220.3" font-family="monospace" font-size="14.00">    EX_ObjectConst import /Script/Engine&#45;&gt;SkeletalMeshComponent</text>
</g>
<!-- ExecuteUbergraph_BP_EnemyShowroomController__537 -->
<g id="node23" class="node">
<title>ExecuteUbergraph_BP_EnemyShowroomController__537</title>
<polygon fill="#eeeeee" stroke="black" points="1632.5,-2106.5 1632.5,-2174.5 2094.5,-2174.5 2094.5,-2106.5 1632.5,-2106.5"/>
<text text-anchor="start" x="1640.5" y="-2159.3" font-family="monospace" font-size="14.00">EX_Let</text>
<text text-anchor="start" x="1640.5" y="-2144.3" font-family="monospace" font-size="14.00">  EX_LocalVariable [K2Node_DynamicCast_AsAnim_Montage]</text>
<text text-anchor="start" x="1640.5" y="-2129.3" font-family="monospace" font-size="14.00">  EX_DynamicCast import /Script/Engine&#45;&gt;AnimMontage</text>
<text text-anchor="start" x="1640.5" y="-2114.3" font-family="monospace" font-size="14.00">    EX_LocalVariable [K2Node_Event_attackAnimation]</text>
</g>
<!-- ExecuteUbergraph_BP_EnemyShowroomController__499&#45;&gt;ExecuteUbergraph_BP_EnemyShowroomController__537 -->
<g id="edge21" class="edge">
<title>ExecuteUbergraph_BP_EnemyShowroomController__499&#45;&gt;ExecuteUbergraph_BP_EnemyShowroomController__537</title>
<path fill="none" stroke="black" d="M1863.5,-2212.75C1863.5,-2203.98 1863.5,-2194.67 1863.5,-2185.76"/>
<polygon fill="black" stroke="black" points="1867,-2185.88 1863.5,-2175.88 1860,-2185.88 1867,-2185.88"/>
</g>
<!-- ExecuteUbergraph_BP_EnemyShowroomController__573 -->
<g id="node24" class="node">
<title>ExecuteUbergraph_BP_EnemyShowroomController__573</title>
<polygon fill="#eeeeee" stroke="black" points="1624,-2000.5 1624,-2068.5 2103,-2068.5 2103,-2000.5 1624,-2000.5"/>
<text text-anchor="start" x="1632" y="-2053.3" font-family="monospace" font-size="14.00">EX_Let</text>
<text text-anchor="start" x="1632" y="-2038.3" font-family="monospace" font-size="14.00">  EX_LocalVariable [K2Node_DynamicCast_bSuccess]</text>
<text text-anchor="start" x="1632" y="-2023.3" font-family="monospace" font-size="14.00">  EX_PrimitiveCast ObjectToBool</text>
<text text-anchor="start" x="1632" y="-2008.3" font-family="monospace" font-size="14.00">    EX_LocalVariable [K2Node_DynamicCast_AsAnim_Montage]</text>
</g>
<!-- ExecuteUbergraph_BP_EnemyShowroomController__537&#45;&gt;ExecuteUbergraph_BP_EnemyShowroomController__573 -->
<g id="edge22" class="edge">
<title>ExecuteUbergraph_BP_EnemyShowroomController__537&#45;&gt;ExecuteUbergraph_BP_EnemyShowroomController__573</title>
<path fill="none" stroke="black" d="M1863.5,-2106.59C1863.5,-2097.97 1863.5,-2088.54 1863.5,-2079.45"/>
<polygon fill="black" stroke="black" points="1867,-2079.71 1863.5,-2069.71 1860,-2079.71 1867,-2079.71"/>
</g>
<!-- ExecuteUbergraph_BP_EnemyShowroomController__602 -->
<g id="node25" class="node">
<title>ExecuteUbergraph_BP_EnemyShowroomController__602</title>
<polygon fill="#eeeeee" stroke="black" points="1517,-1864.5 1517,-1962.5 2210,-1962.5 2210,-1864.5 1517,-1864.5"/>
<text text-anchor="start" x="1525" y="-1947.3" font-family="monospace" font-size="14.00">EX_LetObj</text>
<text text-anchor="start" x="1525" y="-1932.3" font-family="monospace" font-size="14.00">  EX_LocalVariable [CallFunc_GetAnimInstance_ReturnValue]</text>
<text text-anchor="start" x="1525" y="-1917.3" font-family="monospace" font-size="14.00">  EX_Context</text>
<text text-anchor="start" x="1525" y="-1902.3" font-family="monospace" font-size="14.00">    EX_LocalVariable [CallFunc_GetComponentByClass_ReturnValue]</text>
<text text-anchor="start" x="1525" y="-1887.3" font-family="monospace" font-size="14.00">    EX_FinalFunction import /Script/Engine&#45;&gt;SkeletalMeshComponent&#45;&gt;GetAnimInstance</text>
<text text-anchor="start" x="1525" y="-1872.3" font-family="monospace" font-size="14.00">    RValue = [CallFunc_GetAnimInstance_ReturnValue]</text>
</g>
<!-- ExecuteUbergraph_BP_EnemyShowroomController__573&#45;&gt;ExecuteUbergraph_BP_EnemyShowroomController__602 -->
<g id="edge23" class="edge">
<title>ExecuteUbergraph_BP_EnemyShowroomController__573&#45;&gt;ExecuteUbergraph_BP_EnemyShowroomController__602</title>
<path fill="none" stroke="black" d="M1863.5,-2000.67C1863.5,-1992.26 1863.5,-1982.95 1863.5,-1973.65"/>
<polygon fill="black" stroke="black" points="1867,-1973.89 1863.5,-1963.89 1860,-1973.89 1867,-1973.89"/>
</g>
<!-- ExecuteUbergraph_BP_EnemyShowroomController__644 -->
<g id="node26" class="node">
<title>ExecuteUbergraph_BP_EnemyShowroomController__644</title>
<polygon fill="#eeeeee" stroke="black" points="1566.5,-1653.5 1566.5,-1826.5 2160.5,-1826.5 2160.5,-1653.5 1566.5,-1653.5"/>
<text text-anchor="start" x="1574.5" y="-1811.3" font-family="monospace" font-size="14.00">EX_Let</text>
<text text-anchor="start" x="1574.5" y="-1796.3" font-family="monospace" font-size="14.00">  EX_LocalVariable [CallFunc_Montage_Play_ReturnValue]</text>
<text text-anchor="start" x="1574.5" y="-1781.3" font-family="monospace" font-size="14.00">  EX_Context</text>
<text text-anchor="start" x="1574.5" y="-1766.3" font-family="monospace" font-size="14.00">    EX_LocalVariable [CallFunc_GetAnimInstance_ReturnValue]</text>
<text text-anchor="start" x="1574.5" y="-1751.3" font-family="monospace" font-size="14.00">    EX_FinalFunction import /Script/Engine&#45;&gt;AnimInstance&#45;&gt;Montage_Play</text>
<text text-anchor="start" x="1574.5" y="-1736.3" font-family="monospace" font-size="14.00">      EX_LocalVariable [K2Node_DynamicCast_AsAnim_Montage]</text>
<text text-anchor="start" x="1574.5" y="-1721.3" font-family="monospace" font-size="14.00">      EX_FloatConst 1</text>
<text text-anchor="start" x="1574.5" y="-1706.3" font-family="monospace" font-size="14.00">      EX_ByteConst 0</text>
<text text-anchor="start" x="1574.5" y="-1691.3" font-family="monospace" font-size="14.00">      EX_FloatConst 0</text>
<text text-anchor="start" x="1574.5" y="-1676.3" font-family="monospace" font-size="14.00">      EX_True</text>
<text text-anchor="start" x="1574.5" y="-1661.3" font-family="monospace" font-size="14.00">    RValue = [CallFunc_Montage_Play_ReturnValue]</text>
</g>
<!-- ExecuteUbergraph_BP_EnemyShowroomController__602&#45;&gt;ExecuteUbergraph_BP_EnemyShowroomController__644 -->
<g id="edge24" class="edge">
<title>ExecuteUbergraph_BP_EnemyShowroomController__602&#45;&gt;ExecuteUbergraph_BP_EnemyShowroomController__644</title>
<path fill="none" stroke="black" d="M1863.5,-1864.73C1863.5,-1856.2 1863.5,-1847.05 1863.5,-1837.72"/>
<polygon fill="black" stroke="black" points="1867,-1837.79 1863.5,-1827.79 1860,-1837.79 1867,-1837.79"/>
</g>
<!-- ExecuteUbergraph_BP_EnemyShowroomController__716 -->
<g id="node27" class="node">
<title>ExecuteUbergraph_BP_EnemyShowroomController__716</title>
<polygon fill="#eeeeee" stroke="black" points="1810,-1579.5 1810,-1615.5 1917,-1615.5 1917,-1579.5 1810,-1579.5"/>
<text text-anchor="start" x="1818" y="-1593.8" font-family="monospace" font-size="14.00">EX_Jump 471</text>
</g>
<!-- ExecuteUbergraph_BP_EnemyShowroomController__644&#45;&gt;ExecuteUbergraph_BP_EnemyShowroomController__716 -->
<g id="edge25" class="edge">
<title>ExecuteUbergraph_BP_EnemyShowroomController__644&#45;&gt;ExecuteUbergraph_BP_EnemyShowroomController__716</title>
<path fill="none" stroke="black" d="M1863.5,-1653.63C1863.5,-1643.86 1863.5,-1634.5 1863.5,-1626.35"/>
<polygon fill="black" stroke="black" points="1867,-1626.54 1863.5,-1616.54 1860,-1626.54 1867,-1626.54"/>
</g>
<!-- ExecuteUbergraph_BP_EnemyShowroomController__716&#45;&gt;ExecuteUbergraph_BP_EnemyShowroomController__471 -->
<g id="edge26" class="edge">
<title>ExecuteUbergraph_BP_EnemyShowroomController__716&#45;&gt;ExecuteUbergraph_BP_EnemyShowroomController__471</title>
<path fill="none" stroke="black" d="M1863.5,-1579.82C1863.5,-1571.9 1863.5,-1562.09 1863.5,-1552.57"/>
<polygon fill="black" stroke="black" points="1867,-1552.74 1863.5,-1542.74 1860,-1552.74 1867,-1552.74"/>
</g>
<!-- ExecuteUbergraph_BP_EnemyShowroomController__723 -->
<g id="node29" class="node">
<title>ExecuteUbergraph_BP_EnemyShowroomController__723</title>
<polygon fill="#eeeeee" stroke="black" points="1449.5,-2502.5 1449.5,-2538.5 1581.5,-2538.5 1581.5,-2502.5 1449.5,-2502.5"/>
<text text-anchor="start" x="1457.5" y="-2516.8" font-family="monospace" font-size="14.00">EX_EndOfScript</text>
</g>
<!-- Receive_PlayAttack -->
<g id="node30" class="node">
<title>Receive_PlayAttack</title>
<polygon fill="#ff8888" stroke="black" points="1199.5,-2677.5 1199.5,-2730.5 1669.5,-2730.5 1669.5,-2677.5 1199.5,-2677.5"/>
<text text-anchor="start" x="1207.5" y="-2715.3" font-family="monospace" font-size="14.00">Function Receive_PlayAttack</text>
<text text-anchor="start" x="1207.5" y="-2700.3" font-family="monospace" font-size="14.00">  ObjectProperty attackAnimation</text>
<text text-anchor="start" x="1207.5" y="-2685.3" font-family="monospace" font-size="14.00">    CPF_BlueprintVisible|CPF_BlueprintReadOnly|CPF_Parm</text>
</g>
<!-- Receive_PlayAttack__0 -->
<g id="node31" class="node">
<title>Receive_PlayAttack__0</title>
<polygon fill="#eeeeee" stroke="black" points="1183,-2445.5 1183,-2483.5 1686,-2483.5 1686,-2445.5 1183,-2445.5"/>
<text text-anchor="start" x="1191" y="-2468.3" font-family="monospace" font-size="14.00">EX_LetValueOnPersistentFrame [K2Node_Event_attackAnimation]</text>
<text text-anchor="start" x="1191" y="-2453.3" font-family="monospace" font-size="14.00">  EX_LocalVariable [attackAnimation]</text>
</g>
<!-- Receive_PlayAttack&#45;&gt;Receive_PlayAttack__0 -->
<g id="edge27" class="edge">
<title>Receive_PlayAttack&#45;&gt;Receive_PlayAttack__0</title>
<path fill="none" stroke="black" d="M1434.5,-2677.58C1434.5,-2633.2 1434.5,-2541.84 1434.5,-2494.85"/>
<polygon fill="black" stroke="black" points="1438,-2494.89 1434.5,-2484.89 1431,-2494.89 1438,-2494.89"/>
</g>
<!-- Receive_PlayAttack__18 -->
<g id="node32" class="node">
<title>Receive_PlayAttack__18</title>
<polygon fill="#eeeeee" stroke="black" points="1005.5,-2333.5 1005.5,-2371.5 1863.5,-2371.5 1863.5,-2333.5 1005.5,-2333.5"/>
<text text-anchor="start" x="1013.5" y="-2356.3" font-family="monospace" font-size="14.00">EX_LocalFinalFunction export BP_EnemyShowroomController_C&#45;&gt;ExecuteUbergraph_BP_EnemyShowroomController</text>
<text text-anchor="start" x="1013.5" y="-2341.3" font-family="monospace" font-size="14.00">  EX_IntConst 499</text>
</g>
<!-- Receive_PlayAttack__0&#45;&gt;Receive_PlayAttack__18 -->
<g id="edge28" class="edge">
<title>Receive_PlayAttack__0&#45;&gt;Receive_PlayAttack__18</title>
<path fill="none" stroke="black" d="M1434.5,-2445.83C1434.5,-2428.85 1434.5,-2402.88 1434.5,-2382.81"/>
<polygon fill="black" stroke="black" points="1438,-2383.01 1434.5,-2373.01 1431,-2383.01 1438,-2383.01"/>
</g>
<!-- Receive_PlayAttack__18&#45;&gt;ExecuteUbergraph_BP_EnemyShowroomController__499 -->
<g id="edge29" class="edge">
<title>Receive_PlayAttack__18:e&#45;&gt;ExecuteUbergraph_BP_EnemyShowroomController__499</title>
<path fill="none" stroke="red" d="M1864.5,-2352.5C1885.4,-2352.5 1885.91,-2329.83 1880.83,-2306.35"/>
<polygon fill="none" stroke="red" points="1884.24,-2305.55 1878.43,-2296.69 1877.45,-2307.24 1884.24,-2305.55"/>
</g>
<!-- Receive_PlayAttack__33 -->
<g id="node33" class="node">
<title>Receive_PlayAttack__33</title>
<polygon fill="#eeeeee" stroke="black" points="1376.5,-2235 1376.5,-2273 1492.5,-2273 1492.5,-2235 1376.5,-2235"/>
<text text-anchor="start" x="1384.5" y="-2257.8" font-family="monospace" font-size="14.00">EX_Return</text>
<text text-anchor="start" x="1384.5" y="-2242.8" font-family="monospace" font-size="14.00">  EX_Nothing</text>
</g>
<!-- Receive_PlayAttack__18&#45;&gt;Receive_PlayAttack__33 -->
<g id="edge30" class="edge">
<title>Receive_PlayAttack__18&#45;&gt;Receive_PlayAttack__33</title>
<path fill="none" stroke="black" d="M1434.5,-2333.8C1434.5,-2319.88 1434.5,-2300.19 1434.5,-2283.97"/>
<polygon fill="black" stroke="black" points="1438,-2284.43 1434.5,-2274.43 1431,-2284.43 1438,-2284.43"/>
</g>
<!-- Receive_PlayAttack__35 -->
<g id="node34" class="node">
<title>Receive_PlayAttack__35</title>
<polygon fill="#eeeeee" stroke="black" points="1449.5,-2390.5 1449.5,-2426.5 1581.5,-2426.5 1581.5,-2390.5 1449.5,-2390.5"/>
<text text-anchor="start" x="1457.5" y="-2404.8" font-family="monospace" font-size="14.00">EX_EndOfScript</text>
</g>
</g>
</svg>
