<?xml version="1.0" encoding="UTF-8" standalone="no"?>
<!DOCTYPE svg PUBLIC "-//W3C//DTD SVG 1.1//EN"
 "http://www.w3.org/Graphics/SVG/1.1/DTD/svg11.dtd">
<!-- Generated by graphviz version 7.0.1 (0)
 -->
<!-- Pages: 1 -->
<svg width="1739pt" height="1484pt"
 viewBox="0.00 0.00 1739.00 1484.00" xmlns="http://www.w3.org/2000/svg" xmlns:xlink="http://www.w3.org/1999/xlink">
<g id="graph0" class="graph" transform="scale(1 1) rotate(0) translate(4 1480)">
<polygon fill="white" stroke="none" points="-4,4 -4,-1480 1735,-1480 1735,4 -4,4"/>
<!-- BP_SmallMangroveRoot_4_C -->
<g id="node1" class="node">
<title>BP_SmallMangroveRoot_4_C</title>
<polygon fill="#88ff88" stroke="black" points="0,-1377.5 0,-1430.5 1114,-1430.5 1114,-1377.5 0,-1377.5"/>
<text text-anchor="start" x="8" y="-1415.3" font-family="monospace" font-size="14.00">ClassExport: BP_SmallMangroveRoot_4_C</text>
<text text-anchor="start" x="8" y="-1400.3" font-family="monospace" font-size="14.00">  SuperStruct: import /Game/LevelElements/RoomObjects/HugeCarvers/MangroveRockStructures/BP_MangroveRock_Base&#45;&gt;BP_MangroveRock_Base_C</text>
<text text-anchor="start" x="8" y="-1385.3" font-family="monospace" font-size="14.00">  Properties:</text>
</g>
<!-- UserConstructionScript -->
<g id="node2" class="node">
<title>UserConstructionScript</title>
<polygon fill="#ff8888" stroke="black" points="1132.5,-1332.5 1132.5,-1475.5 1701.5,-1475.5 1701.5,-1332.5 1132.5,-1332.5"/>
<text text-anchor="start" x="1140.5" y="-1460.3" font-family="monospace" font-size="14.00">Function UserConstructionScript</text>
<text text-anchor="start" x="1140.5" y="-1445.3" font-family="monospace" font-size="14.00">  BoolProperty CallFunc_HasAuthority_ReturnValue</text>
<text text-anchor="start" x="1140.5" y="-1430.3" font-family="monospace" font-size="14.00">  ObjectProperty CallFunc_GetProceduralSetup_ReturnValue</text>
<text text-anchor="start" x="1140.5" y="-1415.3" font-family="monospace" font-size="14.00">  FloatProperty CallFunc_RandomFloatInRangeFromStream_ReturnValue</text>
<text text-anchor="start" x="1140.5" y="-1400.3" font-family="monospace" font-size="14.00">  FloatProperty CallFunc_RandomFloatInRangeFromStream_ReturnValue_1</text>
<text text-anchor="start" x="1140.5" y="-1385.3" font-family="monospace" font-size="14.00">  FloatProperty CallFunc_RandomFloatInRangeFromStream_ReturnValue_2</text>
<text text-anchor="start" x="1140.5" y="-1370.3" font-family="monospace" font-size="14.00">  StructProperty CallFunc_MakeRotator_ReturnValue</text>
<text text-anchor="start" x="1140.5" y="-1355.3" font-family="monospace" font-size="14.00">  StructProperty CallFunc_K2_SetRelativeRotation_SweepHitResult</text>
<text text-anchor="start" x="1140.5" y="-1340.3" font-family="monospace" font-size="14.00">    CPF_ContainsInstancedReference</text>
</g>
<!-- UserConstructionScript__0 -->
<g id="node3" class="node">
<title>UserConstructionScript__0</title>
<polygon fill="#eeeeee" stroke="black" points="1103.5,-1222.5 1103.5,-1258.5 1730.5,-1258.5 1730.5,-1222.5 1103.5,-1222.5"/>
<text text-anchor="start" x="1111.5" y="-1236.8" font-family="monospace" font-size="14.00">EX_LocalFinalFunction import /Script/Engine&#45;&gt;Actor&#45;&gt;UserConstructionScript</text>
</g>
<!-- UserConstructionScript&#45;&gt;UserConstructionScript__0 -->
<g id="edge1" class="edge">
<title>UserConstructionScript&#45;&gt;UserConstructionScript__0</title>
<path fill="none" stroke="black" d="M1417,-1332.63C1417,-1310.36 1417,-1287.02 1417,-1269.54"/>
<polygon fill="black" stroke="black" points="1420.5,-1269.71 1417,-1259.71 1413.5,-1269.71 1420.5,-1269.71"/>
</g>
<!-- UserConstructionScript__10 -->
<g id="node4" class="node">
<title>UserConstructionScript__10</title>
<polygon fill="#eeeeee" stroke="black" points="1157,-1131.5 1157,-1184.5 1677,-1184.5 1677,-1131.5 1157,-1131.5"/>
<text text-anchor="start" x="1165" y="-1169.3" font-family="monospace" font-size="14.00">EX_LetBool</text>
<text text-anchor="start" x="1165" y="-1154.3" font-family="monospace" font-size="14.00">  EX_LocalVariable [CallFunc_HasAuthority_ReturnValue]</text>
<text text-anchor="start" x="1165" y="-1139.3" font-family="monospace" font-size="14.00">  EX_FinalFunction import /Script/Engine&#45;&gt;Actor&#45;&gt;HasAuthority</text>
</g>
<!-- UserConstructionScript__0&#45;&gt;UserConstructionScript__10 -->
<g id="edge2" class="edge">
<title>UserConstructionScript__0&#45;&gt;UserConstructionScript__10</title>
<path fill="none" stroke="black" d="M1417,-1222.82C1417,-1214.9 1417,-1205.09 1417,-1195.57"/>
<polygon fill="black" stroke="black" points="1420.5,-1195.74 1417,-1185.74 1413.5,-1195.74 1420.5,-1195.74"/>
</g>
<!-- UserConstructionScript__30 -->
<g id="node5" class="node">
<title>UserConstructionScript__30</title>
<polygon fill="#eeeeee" stroke="black" points="1186,-1055.5 1186,-1093.5 1648,-1093.5 1648,-1055.5 1186,-1055.5"/>
<text text-anchor="start" x="1194" y="-1078.3" font-family="monospace" font-size="14.00">EX_JumpIfNot 379</text>
<text text-anchor="start" x="1194" y="-1063.3" font-family="monospace" font-size="14.00">  EX_LocalVariable [CallFunc_HasAuthority_ReturnValue]</text>
</g>
<!-- UserConstructionScript__10&#45;&gt;UserConstructionScript__30 -->
<g id="edge3" class="edge">
<title>UserConstructionScript__10&#45;&gt;UserConstructionScript__30</title>
<path fill="none" stroke="black" d="M1417,-1131.66C1417,-1123.11 1417,-1113.51 1417,-1104.69"/>
<polygon fill="black" stroke="black" points="1420.5,-1104.84 1417,-1094.84 1413.5,-1104.84 1420.5,-1104.84"/>
</g>
<!-- UserConstructionScript__44 -->
<g id="node6" class="node">
<title>UserConstructionScript__44</title>
<polygon fill="#eeeeee" stroke="black" points="980,-935.5 980,-1003.5 1648,-1003.5 1648,-935.5 980,-935.5"/>
<text text-anchor="start" x="988" y="-988.3" font-family="monospace" font-size="14.00">EX_LetObj</text>
<text text-anchor="start" x="988" y="-973.3" font-family="monospace" font-size="14.00">  EX_LocalVariable [CallFunc_GetProceduralSetup_ReturnValue]</text>
<text text-anchor="start" x="988" y="-958.3" font-family="monospace" font-size="14.00">  EX_CallMath import /Script/FSD&#45;&gt;ProceduralFunctionLibrary&#45;&gt;GetProceduralSetup</text>
<text text-anchor="start" x="988" y="-943.3" font-family="monospace" font-size="14.00">    EX_Self</text>
</g>
<!-- UserConstructionScript__30&#45;&gt;UserConstructionScript__44 -->
<g id="edge5" class="edge">
<title>UserConstructionScript__30&#45;&gt;UserConstructionScript__44</title>
<path fill="none" stroke="black" d="M1399.06,-1055.56C1386.79,-1043.29 1370.02,-1026.52 1354.61,-1011.11"/>
<polygon fill="black" stroke="black" points="1357.32,-1008.87 1347.78,-1004.28 1352.37,-1013.82 1357.32,-1008.87"/>
<text text-anchor="middle" x="1386.5" y="-1025.8" font-family="monospace" font-size="14.00">IF</text>
</g>
<!-- UserConstructionScript__379 -->
<g id="node12" class="node">
<title>UserConstructionScript__379</title>
<polygon fill="#eeeeee" stroke="black" points="1439,-0.5 1439,-38.5 1555,-38.5 1555,-0.5 1439,-0.5"/>
<text text-anchor="start" x="1447" y="-23.3" font-family="monospace" font-size="14.00">EX_Return</text>
<text text-anchor="start" x="1447" y="-8.3" font-family="monospace" font-size="14.00">  EX_Nothing</text>
</g>
<!-- UserConstructionScript__30&#45;&gt;UserConstructionScript__379 -->
<g id="edge4" class="edge">
<title>UserConstructionScript__30:e&#45;&gt;UserConstructionScript__379</title>
<path fill="none" stroke="red" d="M1649,-1074.5C1697.36,-1074.5 1681,-1018.86 1681,-970.5 1681,-970.5 1681,-970.5 1681,-139.5 1681,-109.91 1681.7,-97.14 1661,-76 1635.87,-50.33 1598.47,-36.54 1565.73,-29.12"/>
<polygon fill="none" stroke="red" points="1566.82,-25.77 1556.31,-27.15 1565.38,-32.62 1566.82,-25.77"/>
<text text-anchor="middle" x="1706" y="-543.8" font-family="monospace" font-size="14.00">IF NOT</text>
</g>
<!-- UserConstructionScript__65 -->
<g id="node7" class="node">
<title>UserConstructionScript__65</title>
<polygon fill="#eeeeee" stroke="black" points="943,-754.5 943,-897.5 1653,-897.5 1653,-754.5 943,-754.5"/>
<text text-anchor="start" x="951" y="-882.3" font-family="monospace" font-size="14.00">EX_Let</text>
<text text-anchor="start" x="951" y="-867.3" font-family="monospace" font-size="14.00">  EX_LocalVariable [CallFunc_RandomFloatInRangeFromStream_ReturnValue]</text>
<text text-anchor="start" x="951" y="-852.3" font-family="monospace" font-size="14.00">  EX_CallMath import /Script/Engine&#45;&gt;KismetMathLibrary&#45;&gt;RandomFloatInRangeFromStream</text>
<text text-anchor="start" x="951" y="-837.3" font-family="monospace" font-size="14.00">    EX_FloatConst &#45;180</text>
<text text-anchor="start" x="951" y="-822.3" font-family="monospace" font-size="14.00">    EX_FloatConst 180</text>
<text text-anchor="start" x="951" y="-807.3" font-family="monospace" font-size="14.00">    EX_Context</text>
<text text-anchor="start" x="951" y="-792.3" font-family="monospace" font-size="14.00">      EX_LocalVariable [CallFunc_GetProceduralSetup_ReturnValue]</text>
<text text-anchor="start" x="951" y="-777.3" font-family="monospace" font-size="14.00">      EX_InstanceVariable [RandomStreamServer]</text>
<text text-anchor="start" x="951" y="-762.3" font-family="monospace" font-size="14.00">      RValue = [RandomStreamServer]</text>
</g>
<!-- UserConstructionScript__44&#45;&gt;UserConstructionScript__65 -->
<g id="edge6" class="edge">
<title>UserConstructionScript__44&#45;&gt;UserConstructionScript__65</title>
<path fill="none" stroke="black" d="M1310.29,-935.68C1309.35,-927.41 1308.31,-918.15 1307.23,-908.63"/>
<polygon fill="black" stroke="black" points="1310.73,-908.41 1306.13,-898.87 1303.77,-909.2 1310.73,-908.41"/>
</g>
<!-- UserConstructionScript__134 -->
<g id="node8" class="node">
<title>UserConstructionScript__134</title>
<polygon fill="#eeeeee" stroke="black" points="943,-573.5 943,-716.5 1653,-716.5 1653,-573.5 943,-573.5"/>
<text text-anchor="start" x="951" y="-701.3" font-family="monospace" font-size="14.00">EX_Let</text>
<text text-anchor="start" x="951" y="-686.3" font-family="monospace" font-size="14.00">  EX_LocalVariable [CallFunc_RandomFloatInRangeFromStream_ReturnValue_1]</text>
<text text-anchor="start" x="951" y="-671.3" font-family="monospace" font-size="14.00">  EX_CallMath import /Script/Engine&#45;&gt;KismetMathLibrary&#45;&gt;RandomFloatInRangeFromStream</text>
<text text-anchor="start" x="951" y="-656.3" font-family="monospace" font-size="14.00">    EX_FloatConst &#45;180</text>
<text text-anchor="start" x="951" y="-641.3" font-family="monospace" font-size="14.00">    EX_FloatConst 180</text>
<text text-anchor="start" x="951" y="-626.3" font-family="monospace" font-size="14.00">    EX_Context</text>
<text text-anchor="start" x="951" y="-611.3" font-family="monospace" font-size="14.00">      EX_LocalVariable [CallFunc_GetProceduralSetup_ReturnValue]</text>
<text text-anchor="start" x="951" y="-596.3" font-family="monospace" font-size="14.00">      EX_InstanceVariable [RandomStreamServer]</text>
<text text-anchor="start" x="951" y="-581.3" font-family="monospace" font-size="14.00">      RValue = [RandomStreamServer]</text>
</g>
<!-- UserConstructionScript__65&#45;&gt;UserConstructionScript__134 -->
<g id="edge7" class="edge">
<title>UserConstructionScript__65&#45;&gt;UserConstructionScript__134</title>
<path fill="none" stroke="black" d="M1298,-754.51C1298,-745.71 1298,-736.64 1298,-727.69"/>
<polygon fill="black" stroke="black" points="1301.5,-727.94 1298,-717.94 1294.5,-727.94 1301.5,-727.94"/>
</g>
<!-- UserConstructionScript__203 -->
<g id="node9" class="node">
<title>UserConstructionScript__203</title>
<polygon fill="#eeeeee" stroke="black" points="943,-378.5 943,-521.5 1653,-521.5 1653,-378.5 943,-378.5"/>
<text text-anchor="start" x="951" y="-506.3" font-family="monospace" font-size="14.00">EX_Let</text>
<text text-anchor="start" x="951" y="-491.3" font-family="monospace" font-size="14.00">  EX_LocalVariable [CallFunc_RandomFloatInRangeFromStream_ReturnValue_2]</text>
<text text-anchor="start" x="951" y="-476.3" font-family="monospace" font-size="14.00">  EX_CallMath import /Script/Engine&#45;&gt;KismetMathLibrary&#45;&gt;RandomFloatInRangeFromStream</text>
<text text-anchor="start" x="951" y="-461.3" font-family="monospace" font-size="14.00">    EX_FloatConst &#45;180</text>
<text text-anchor="start" x="951" y="-446.3" font-family="monospace" font-size="14.00">    EX_FloatConst 180</text>
<text text-anchor="start" x="951" y="-431.3" font-family="monospace" font-size="14.00">    EX_Context</text>
<text text-anchor="start" x="951" y="-416.3" font-family="monospace" font-size="14.00">      EX_LocalVariable [CallFunc_GetProceduralSetup_ReturnValue]</text>
<text text-anchor="start" x="951" y="-401.3" font-family="monospace" font-size="14.00">      EX_InstanceVariable [RandomStreamServer]</text>
<text text-anchor="start" x="951" y="-386.3" font-family="monospace" font-size="14.00">      RValue = [RandomStreamServer]</text>
</g>
<!-- UserConstructionScript__134&#45;&gt;UserConstructionScript__203 -->
<g id="edge8" class="edge">
<title>UserConstructionScript__134&#45;&gt;UserConstructionScript__203</title>
<path fill="none" stroke="black" d="M1298,-573.5C1298,-560.21 1298,-546.21 1298,-532.61"/>
<polygon fill="black" stroke="black" points="1301.5,-532.82 1298,-522.82 1294.5,-532.82 1301.5,-532.82"/>
</g>
<!-- UserConstructionScript__272 -->
<g id="node10" class="node">
<title>UserConstructionScript__272</title>
<polygon fill="#eeeeee" stroke="black" points="990.5,-242.5 990.5,-340.5 1617.5,-340.5 1617.5,-242.5 990.5,-242.5"/>
<text text-anchor="start" x="998.5" y="-325.3" font-family="monospace" font-size="14.00">EX_Let</text>
<text text-anchor="start" x="998.5" y="-310.3" font-family="monospace" font-size="14.00">  EX_LocalVariable [CallFunc_MakeRotator_ReturnValue]</text>
<text text-anchor="start" x="998.5" y="-295.3" font-family="monospace" font-size="14.00">  EX_CallMath import /Script/Engine&#45;&gt;KismetMathLibrary&#45;&gt;MakeRotator</text>
<text text-anchor="start" x="998.5" y="-280.3" font-family="monospace" font-size="14.00">    EX_LocalVariable [CallFunc_RandomFloatInRangeFromStream_ReturnValue_2]</text>
<text text-anchor="start" x="998.5" y="-265.3" font-family="monospace" font-size="14.00">    EX_LocalVariable [CallFunc_RandomFloatInRangeFromStream_ReturnValue_1]</text>
<text text-anchor="start" x="998.5" y="-250.3" font-family="monospace" font-size="14.00">    EX_LocalVariable [CallFunc_RandomFloatInRangeFromStream_ReturnValue]</text>
</g>
<!-- UserConstructionScript__203&#45;&gt;UserConstructionScript__272 -->
<g id="edge9" class="edge">
<title>UserConstructionScript__203&#45;&gt;UserConstructionScript__272</title>
<path fill="none" stroke="black" d="M1300.7,-378.53C1301.05,-369.51 1301.4,-360.34 1301.74,-351.52"/>
<polygon fill="black" stroke="black" points="1305.23,-351.81 1302.11,-341.68 1298.23,-351.54 1305.23,-351.81"/>
</g>
<!-- UserConstructionScript__327 -->
<g id="node11" class="node">
<title>UserConstructionScript__327</title>
<polygon fill="#eeeeee" stroke="black" points="974.5,-76.5 974.5,-204.5 1651.5,-204.5 1651.5,-76.5 974.5,-76.5"/>
<text text-anchor="start" x="982.5" y="-189.3" font-family="monospace" font-size="14.00">EX_Context</text>
<text text-anchor="start" x="982.5" y="-174.3" font-family="monospace" font-size="14.00">  EX_InstanceVariable [LevelGenerationCarver]</text>
<text text-anchor="start" x="982.5" y="-159.3" font-family="monospace" font-size="14.00">  EX_FinalFunction import /Script/Engine&#45;&gt;SceneComponent&#45;&gt;K2_SetRelativeRotation</text>
<text text-anchor="start" x="982.5" y="-144.3" font-family="monospace" font-size="14.00">    EX_LocalVariable [CallFunc_MakeRotator_ReturnValue]</text>
<text text-anchor="start" x="982.5" y="-129.3" font-family="monospace" font-size="14.00">    EX_False</text>
<text text-anchor="start" x="982.5" y="-114.3" font-family="monospace" font-size="14.00">    EX_LocalVariable [CallFunc_K2_SetRelativeRotation_SweepHitResult]</text>
<text text-anchor="start" x="982.5" y="-99.3" font-family="monospace" font-size="14.00">    EX_False</text>
<text text-anchor="start" x="982.5" y="-84.3" font-family="monospace" font-size="14.00">  RValue = []</text>
</g>
<!-- UserConstructionScript__272&#45;&gt;UserConstructionScript__327 -->
<g id="edge10" class="edge">
<title>UserConstructionScript__272&#45;&gt;UserConstructionScript__327</title>
<path fill="none" stroke="black" d="M1306.9,-242.54C1307.41,-233.98 1307.96,-224.89 1308.51,-215.8"/>
<polygon fill="black" stroke="black" points="1312,-216.04 1309.11,-205.85 1305.02,-215.62 1312,-216.04"/>
</g>
<!-- UserConstructionScript__327&#45;&gt;UserConstructionScript__379 -->
<g id="edge11" class="edge">
<title>UserConstructionScript__327&#45;&gt;UserConstructionScript__379</title>
<path fill="none" stroke="black" d="M1410.39,-76.52C1428.04,-65.1 1445.42,-53.86 1459.93,-44.47"/>
<polygon fill="black" stroke="black" points="1461.72,-47.49 1468.21,-39.12 1457.92,-41.61 1461.72,-47.49"/>
</g>
<!-- UserConstructionScript__381 -->
<g id="node13" class="node">
<title>UserConstructionScript__381</title>
<polygon fill="#eeeeee" stroke="black" points="1432,-1277.5 1432,-1313.5 1564,-1313.5 1564,-1277.5 1432,-1277.5"/>
<text text-anchor="start" x="1440" y="-1291.8" font-family="monospace" font-size="14.00">EX_EndOfScript</text>
</g>
</g>
</svg>
