<?xml version="1.0" encoding="UTF-8" standalone="no"?>
<!DOCTYPE svg PUBLIC "-//W3C//DTD SVG 1.1//EN"
 "http://www.w3.org/Graphics/SVG/1.1/DTD/svg11.dtd">
<!-- Generated by graphviz version 7.0.1 (0)
 -->
<!-- Pages: 1 -->
<svg width="2616pt" height="828pt"
 viewBox="0.00 0.00 2616.00 828.00" xmlns="http://www.w3.org/2000/svg" xmlns:xlink="http://www.w3.org/1999/xlink">
<g id="graph0" class="graph" transform="scale(1 1) rotate(0) translate(4 824)">
<polygon fill="white" stroke="none" points="-4,4 -4,-824 2612,-824 2612,4 -4,4"/>
<!-- BP_RadioactiveGlyphidDeathGas_C -->
<g id="node1" class="node">
<title>BP_RadioactiveGlyphidDeathGas_C</title>
<polygon fill="#88ff88" stroke="black" points="0,-706.5 0,-819.5 759,-819.5 759,-706.5 0,-706.5"/>
<text text-anchor="start" x="8" y="-804.3" font-family="monospace" font-size="14.00">ClassExport: BP_RadioactiveGlyphidDeathGas_C</text>
<text text-anchor="start" x="8" y="-789.3" font-family="monospace" font-size="14.00">  SuperStruct: import /Game/Enemies/BaseItems/BP_Damage_Cloud_Base&#45;&gt;BP_Damage_Cloud_Base_C</text>
<text text-anchor="start" x="8" y="-774.3" font-family="monospace" font-size="14.00">  Properties:</text>
<text text-anchor="start" x="8" y="-759.3" font-family="monospace" font-size="14.00">    StructProperty UberGraphFrame</text>
<text text-anchor="start" x="8" y="-744.3" font-family="monospace" font-size="14.00">      CPF_Transient|CPF_DuplicateTransient</text>
<text text-anchor="start" x="8" y="-729.3" font-family="monospace" font-size="14.00">    FloatProperty InitialDamageDelay</text>
<text text-anchor="start" x="8" y="-714.3" font-family="monospace" font-size="14.00">      CPF_Edit|CPF_BlueprintVisible|CPF_DisableEditOnInstance</text>
</g>
<!-- ExecuteUbergraph_BP_RadioactiveGlyphidDeathGas -->
<g id="node2" class="node">
<title>ExecuteUbergraph_BP_RadioactiveGlyphidDeathGas</title>
<polygon fill="#ff8888" stroke="black" points="777.5,-736.5 777.5,-789.5 1247.5,-789.5 1247.5,-736.5 777.5,-736.5"/>
<text text-anchor="start" x="785.5" y="-774.3" font-family="monospace" font-size="14.00">Function ExecuteUbergraph_BP_RadioactiveGlyphidDeathGas</text>
<text text-anchor="start" x="785.5" y="-759.3" font-family="monospace" font-size="14.00">  IntProperty EntryPoint</text>
<text text-anchor="start" x="785.5" y="-744.3" font-family="monospace" font-size="14.00">    CPF_BlueprintVisible|CPF_BlueprintReadOnly|CPF_Parm</text>
</g>
<!-- ExecuteUbergraph_BP_RadioactiveGlyphidDeathGas__0 -->
<g id="node3" class="node">
<title>ExecuteUbergraph_BP_RadioactiveGlyphidDeathGas__0</title>
<polygon fill="#eeeeee" stroke="black" points="905,-595.5 905,-631.5 1120,-631.5 1120,-595.5 905,-595.5"/>
<text text-anchor="start" x="913" y="-609.8" font-family="monospace" font-size="14.00">EX_PushExecutionFlow 161</text>
</g>
<!-- ExecuteUbergraph_BP_RadioactiveGlyphidDeathGas&#45;&gt;ExecuteUbergraph_BP_RadioactiveGlyphidDeathGas__0 -->
<g id="edge1" class="edge">
<title>ExecuteUbergraph_BP_RadioactiveGlyphidDeathGas&#45;&gt;ExecuteUbergraph_BP_RadioactiveGlyphidDeathGas__0</title>
<path fill="none" stroke="black" d="M1012.5,-736.64C1012.5,-710.5 1012.5,-669.83 1012.5,-642.69"/>
<polygon fill="black" stroke="black" points="1016,-642.79 1012.5,-632.79 1009,-642.79 1016,-642.79"/>
</g>
<!-- ExecuteUbergraph_BP_RadioactiveGlyphidDeathGas__5 -->
<g id="node4" class="node">
<title>ExecuteUbergraph_BP_RadioactiveGlyphidDeathGas__5</title>
<polygon fill="#eeeeee" stroke="black" points="824.5,-482.5 824.5,-520.5 1096.5,-520.5 1096.5,-482.5 824.5,-482.5"/>
<text text-anchor="start" x="832.5" y="-505.3" font-family="monospace" font-size="14.00">EX_ComputedJump</text>
<text text-anchor="start" x="832.5" y="-490.3" font-family="monospace" font-size="14.00">  EX_LocalVariable [EntryPoint]</text>
</g>
<!-- ExecuteUbergraph_BP_RadioactiveGlyphidDeathGas__0&#45;&gt;ExecuteUbergraph_BP_RadioactiveGlyphidDeathGas__5 -->
<g id="edge3" class="edge">
<title>ExecuteUbergraph_BP_RadioactiveGlyphidDeathGas__0&#45;&gt;ExecuteUbergraph_BP_RadioactiveGlyphidDeathGas__5</title>
<path fill="none" stroke="black" d="M1004.6,-595.79C996.46,-578.57 983.62,-551.41 973.89,-530.83"/>
<polygon fill="black" stroke="black" points="977.08,-529.38 969.64,-521.83 970.75,-532.37 977.08,-529.38"/>
</g>
<!-- ExecuteUbergraph_BP_RadioactiveGlyphidDeathGas__161 -->
<g id="node11" class="node">
<title>ExecuteUbergraph_BP_RadioactiveGlyphidDeathGas__161</title>
<polygon fill="#eeeeee" stroke="black" points="1114.5,-482.5 1114.5,-520.5 1230.5,-520.5 1230.5,-482.5 1114.5,-482.5"/>
<text text-anchor="start" x="1122.5" y="-505.3" font-family="monospace" font-size="14.00">EX_Return</text>
<text text-anchor="start" x="1122.5" y="-490.3" font-family="monospace" font-size="14.00">  EX_Nothing</text>
</g>
<!-- ExecuteUbergraph_BP_RadioactiveGlyphidDeathGas__0&#45;&gt;ExecuteUbergraph_BP_RadioactiveGlyphidDeathGas__161 -->
<g id="edge2" class="edge">
<title>ExecuteUbergraph_BP_RadioactiveGlyphidDeathGas__0:e&#45;&gt;ExecuteUbergraph_BP_RadioactiveGlyphidDeathGas__161</title>
<path fill="none" stroke="red" d="M1121.5,-613.5C1130.87,-613.5 1125.73,-602.58 1129.5,-594 1138.97,-572.48 1150.3,-548.42 1158.95,-530.38"/>
<polygon fill="none" stroke="red" points="1161.99,-532.15 1163.17,-521.63 1155.68,-529.12 1161.99,-532.15"/>
<text text-anchor="middle" x="1196" y="-553.8" font-family="monospace" font-size="14.00">PUSH STACK</text>
</g>
<!-- ExecuteUbergraph_BP_RadioactiveGlyphidDeathGas__15 -->
<g id="node5" class="node">
<title>ExecuteUbergraph_BP_RadioactiveGlyphidDeathGas__15</title>
<polygon fill="#eeeeee" stroke="black" points="2228,-74.5 2228,-157.5 2575,-157.5 2575,-74.5 2228,-74.5"/>
<text text-anchor="start" x="2236" y="-142.3" font-family="monospace" font-size="14.00">EX_Context</text>
<text text-anchor="start" x="2236" y="-127.3" font-family="monospace" font-size="14.00">  EX_InstanceVariable [Sphere]</text>
<text text-anchor="start" x="2236" y="-112.3" font-family="monospace" font-size="14.00">  EX_VirtualFunction SetCollisionEnabled</text>
<text text-anchor="start" x="2236" y="-97.3" font-family="monospace" font-size="14.00">    EX_ByteConst 1</text>
<text text-anchor="start" x="2236" y="-82.3" font-family="monospace" font-size="14.00">  RValue = []</text>
</g>
<!-- ExecuteUbergraph_BP_RadioactiveGlyphidDeathGas__53 -->
<g id="node6" class="node">
<title>ExecuteUbergraph_BP_RadioactiveGlyphidDeathGas__53</title>
<polygon fill="#eeeeee" stroke="black" points="2315,-0.5 2315,-36.5 2488,-36.5 2488,-0.5 2315,-0.5"/>
<text text-anchor="start" x="2323" y="-14.8" font-family="monospace" font-size="14.00">EX_PopExecutionFlow</text>
</g>
<!-- ExecuteUbergraph_BP_RadioactiveGlyphidDeathGas__15&#45;&gt;ExecuteUbergraph_BP_RadioactiveGlyphidDeathGas__53 -->
<g id="edge4" class="edge">
<title>ExecuteUbergraph_BP_RadioactiveGlyphidDeathGas__15&#45;&gt;ExecuteUbergraph_BP_RadioactiveGlyphidDeathGas__53</title>
<path fill="none" stroke="black" d="M2401.5,-74.78C2401.5,-65.73 2401.5,-56.32 2401.5,-47.88"/>
<polygon fill="black" stroke="black" points="2405,-47.88 2401.5,-37.88 2398,-47.88 2405,-47.88"/>
</g>
<!-- ExecuteUbergraph_BP_RadioactiveGlyphidDeathGas__54 -->
<g id="node7" class="node">
<title>ExecuteUbergraph_BP_RadioactiveGlyphidDeathGas__54</title>
<polygon fill="#eeeeee" stroke="black" points="1643,-483.5 1643,-519.5 2608,-519.5 2608,-483.5 1643,-483.5"/>
<text text-anchor="start" x="1651" y="-497.8" font-family="monospace" font-size="14.00">EX_LocalFinalFunction import /Game/Enemies/BaseItems/BP_Damage_Cloud_Base&#45;&gt;BP_Damage_Cloud_Base_C&#45;&gt;ReceiveBeginPlay</text>
</g>
<!-- ExecuteUbergraph_BP_RadioactiveGlyphidDeathGas__64 -->
<g id="node8" class="node">
<title>ExecuteUbergraph_BP_RadioactiveGlyphidDeathGas__64</title>
<polygon fill="#eeeeee" stroke="black" points="1952,-361.5 1952,-444.5 2299,-444.5 2299,-361.5 1952,-361.5"/>
<text text-anchor="start" x="1960" y="-429.3" font-family="monospace" font-size="14.00">EX_Context</text>
<text text-anchor="start" x="1960" y="-414.3" font-family="monospace" font-size="14.00">  EX_InstanceVariable [Sphere]</text>
<text text-anchor="start" x="1960" y="-399.3" font-family="monospace" font-size="14.00">  EX_VirtualFunction SetCollisionEnabled</text>
<text text-anchor="start" x="1960" y="-384.3" font-family="monospace" font-size="14.00">    EX_ByteConst 0</text>
<text text-anchor="start" x="1960" y="-369.3" font-family="monospace" font-size="14.00">  RValue = []</text>
</g>
<!-- ExecuteUbergraph_BP_RadioactiveGlyphidDeathGas__54&#45;&gt;ExecuteUbergraph_BP_RadioactiveGlyphidDeathGas__64 -->
<g id="edge5" class="edge">
<title>ExecuteUbergraph_BP_RadioactiveGlyphidDeathGas__54&#45;&gt;ExecuteUbergraph_BP_RadioactiveGlyphidDeathGas__64</title>
<path fill="none" stroke="black" d="M2125.5,-483.69C2125.5,-475.77 2125.5,-465.84 2125.5,-455.7"/>
<polygon fill="black" stroke="black" points="2129,-455.78 2125.5,-445.78 2122,-455.78 2129,-455.78"/>
</g>
<!-- ExecuteUbergraph_BP_RadioactiveGlyphidDeathGas__102 -->
<g id="node9" class="node">
<title>ExecuteUbergraph_BP_RadioactiveGlyphidDeathGas__102</title>
<polygon fill="#eeeeee" stroke="black" points="1857.5,-195.5 1857.5,-323.5 2393.5,-323.5 2393.5,-195.5 1857.5,-195.5"/>
<text text-anchor="start" x="1865.5" y="-308.3" font-family="monospace" font-size="14.00">EX_CallMath import /Script/Engine&#45;&gt;KismetSystemLibrary&#45;&gt;Delay</text>
<text text-anchor="start" x="1865.5" y="-293.3" font-family="monospace" font-size="14.00">  EX_Self</text>
<text text-anchor="start" x="1865.5" y="-278.3" font-family="monospace" font-size="14.00">  EX_InstanceVariable [InitialDamageDelay]</text>
<text text-anchor="start" x="1865.5" y="-263.3" font-family="monospace" font-size="14.00">  EX_StructConst import /Script/Engine&#45;&gt;LatentActionInfo</text>
<text text-anchor="start" x="1865.5" y="-248.3" font-family="monospace" font-size="14.00">    EX_SkipOffsetConst 15</text>
<text text-anchor="start" x="1865.5" y="-233.3" font-family="monospace" font-size="14.00">    EX_IntConst 1538004249</text>
<text text-anchor="start" x="1865.5" y="-218.3" font-family="monospace" font-size="14.00">    EX_NameConst ExecuteUbergraph_BP_RadioactiveGlyphidDeathGas</text>
<text text-anchor="start" x="1865.5" y="-203.3" font-family="monospace" font-size="14.00">    EX_Self</text>
</g>
<!-- ExecuteUbergraph_BP_RadioactiveGlyphidDeathGas__64&#45;&gt;ExecuteUbergraph_BP_RadioactiveGlyphidDeathGas__102 -->
<g id="edge6" class="edge">
<title>ExecuteUbergraph_BP_RadioactiveGlyphidDeathGas__64&#45;&gt;ExecuteUbergraph_BP_RadioactiveGlyphidDeathGas__102</title>
<path fill="none" stroke="black" d="M2125.5,-361.83C2125.5,-353.29 2125.5,-344.02 2125.5,-334.66"/>
<polygon fill="black" stroke="black" points="2129,-334.77 2125.5,-324.77 2122,-334.77 2129,-334.77"/>
</g>
<!-- ExecuteUbergraph_BP_RadioactiveGlyphidDeathGas__102&#45;&gt;ExecuteUbergraph_BP_RadioactiveGlyphidDeathGas__15 -->
<g id="edge7" class="edge">
<title>ExecuteUbergraph_BP_RadioactiveGlyphidDeathGas__102:e&#45;&gt;ExecuteUbergraph_BP_RadioactiveGlyphidDeathGas__15</title>
<path fill="none" stroke="red" d="M2394.5,-259.5C2432.16,-259.5 2427.55,-209.22 2417.6,-168.4"/>
<polygon fill="none" stroke="red" points="2421.04,-167.72 2415.14,-158.92 2414.27,-169.48 2421.04,-167.72"/>
</g>
<!-- ExecuteUbergraph_BP_RadioactiveGlyphidDeathGas__160 -->
<g id="node10" class="node">
<title>ExecuteUbergraph_BP_RadioactiveGlyphidDeathGas__160</title>
<polygon fill="#eeeeee" stroke="black" points="2037,-98 2037,-134 2210,-134 2210,-98 2037,-98"/>
<text text-anchor="start" x="2045" y="-112.3" font-family="monospace" font-size="14.00">EX_PopExecutionFlow</text>
</g>
<!-- ExecuteUbergraph_BP_RadioactiveGlyphidDeathGas__102&#45;&gt;ExecuteUbergraph_BP_RadioactiveGlyphidDeathGas__160 -->
<g id="edge8" class="edge">
<title>ExecuteUbergraph_BP_RadioactiveGlyphidDeathGas__102&#45;&gt;ExecuteUbergraph_BP_RadioactiveGlyphidDeathGas__160</title>
<path fill="none" stroke="black" d="M2124.61,-195.61C2124.36,-177.97 2124.1,-159.66 2123.9,-145.16"/>
<polygon fill="black" stroke="black" points="2127.4,-145.43 2123.76,-135.48 2120.4,-145.53 2127.4,-145.43"/>
</g>
<!-- ExecuteUbergraph_BP_RadioactiveGlyphidDeathGas__163 -->
<g id="node12" class="node">
<title>ExecuteUbergraph_BP_RadioactiveGlyphidDeathGas__163</title>
<polygon fill="#eeeeee" stroke="black" points="1607.5,-651.5 1607.5,-687.5 1739.5,-687.5 1739.5,-651.5 1607.5,-651.5"/>
<text text-anchor="start" x="1615.5" y="-665.8" font-family="monospace" font-size="14.00">EX_EndOfScript</text>
</g>
<!-- ReceiveBeginPlay -->
<g id="node13" class="node">
<title>ReceiveBeginPlay</title>
<polygon fill="#ff8888" stroke="black" points="1481,-745 1481,-781 1704,-781 1704,-745 1481,-745"/>
<text text-anchor="start" x="1489" y="-759.3" font-family="monospace" font-size="14.00">Function ReceiveBeginPlay</text>
</g>
<!-- ReceiveBeginPlay__0 -->
<g id="node14" class="node">
<title>ReceiveBeginPlay__0</title>
<polygon fill="#eeeeee" stroke="black" points="1138.5,-594.5 1138.5,-632.5 2046.5,-632.5 2046.5,-594.5 1138.5,-594.5"/>
<text text-anchor="start" x="1146.5" y="-617.3" font-family="monospace" font-size="14.00">EX_LocalFinalFunction export BP_RadioactiveGlyphidDeathGas_C&#45;&gt;ExecuteUbergraph_BP_RadioactiveGlyphidDeathGas</text>
<text text-anchor="start" x="1146.5" y="-602.3" font-family="monospace" font-size="14.00">  EX_IntConst 54</text>
</g>
<!-- ReceiveBeginPlay&#45;&gt;ReceiveBeginPlay__0 -->
<g id="edge9" class="edge">
<title>ReceiveBeginPlay&#45;&gt;ReceiveBeginPlay__0</title>
<path fill="none" stroke="black" d="M1592.5,-745.08C1592.5,-720.34 1592.5,-673.95 1592.5,-643.65"/>
<polygon fill="black" stroke="black" points="1596,-643.65 1592.5,-633.65 1589,-643.65 1596,-643.65"/>
</g>
<!-- ReceiveBeginPlay__0&#45;&gt;ExecuteUbergraph_BP_RadioactiveGlyphidDeathGas__54 -->
<g id="edge10" class="edge">
<title>ReceiveBeginPlay__0:e&#45;&gt;ExecuteUbergraph_BP_RadioactiveGlyphidDeathGas__54</title>
<path fill="none" stroke="red" d="M2047.5,-613.5C2067.92,-613.5 2096.46,-562.57 2112.76,-529.71"/>
<polygon fill="none" stroke="red" points="2115.9,-531.24 2117.12,-520.72 2109.61,-528.19 2115.9,-531.24"/>
</g>
<!-- ReceiveBeginPlay__15 -->
<g id="node15" class="node">
<title>ReceiveBeginPlay__15</title>
<polygon fill="#eeeeee" stroke="black" points="1508.5,-482.5 1508.5,-520.5 1624.5,-520.5 1624.5,-482.5 1508.5,-482.5"/>
<text text-anchor="start" x="1516.5" y="-505.3" font-family="monospace" font-size="14.00">EX_Return</text>
<text text-anchor="start" x="1516.5" y="-490.3" font-family="monospace" font-size="14.00">  EX_Nothing</text>
</g>
<!-- ReceiveBeginPlay__0&#45;&gt;ReceiveBeginPlay__15 -->
<g id="edge11" class="edge">
<title>ReceiveBeginPlay__0&#45;&gt;ReceiveBeginPlay__15</title>
<path fill="none" stroke="black" d="M1588.32,-594.83C1584.29,-577.77 1578.12,-551.64 1573.36,-531.53"/>
<polygon fill="black" stroke="black" points="1576.81,-530.89 1571.1,-521.97 1570,-532.5 1576.81,-530.89"/>
</g>
<!-- ReceiveBeginPlay__17 -->
<g id="node16" class="node">
<title>ReceiveBeginPlay__17</title>
<polygon fill="#eeeeee" stroke="black" points="2113.5,-539.5 2113.5,-575.5 2245.5,-575.5 2245.5,-539.5 2113.5,-539.5"/>
<text text-anchor="start" x="2121.5" y="-553.8" font-family="monospace" font-size="14.00">EX_EndOfScript</text>
</g>
</g>
</svg>
