<?xml version="1.0" encoding="UTF-8" standalone="no"?>
<!DOCTYPE svg PUBLIC "-//W3C//DTD SVG 1.1//EN"
 "http://www.w3.org/Graphics/SVG/1.1/DTD/svg11.dtd">
<!-- Generated by graphviz version 7.0.1 (0)
 -->
<!-- Pages: 1 -->
<svg width="2812pt" height="1430pt"
 viewBox="0.00 0.00 2812.00 1430.00" xmlns="http://www.w3.org/2000/svg" xmlns:xlink="http://www.w3.org/1999/xlink">
<g id="graph0" class="graph" transform="scale(1 1) rotate(0) translate(4 1426)">
<polygon fill="white" stroke="none" points="-4,4 -4,-1426 2808,-1426 2808,4 -4,4"/>
<!-- BP_HeightenedSense_Discharge_C -->
<g id="node1" class="node">
<title>BP_HeightenedSense_Discharge_C</title>
<polygon fill="#88ff88" stroke="black" points="0,-1278.5 0,-1421.5 594,-1421.5 594,-1278.5 0,-1278.5"/>
<text text-anchor="start" x="8" y="-1406.3" font-family="monospace" font-size="14.00">ClassExport: BP_HeightenedSense_Discharge_C</text>
<text text-anchor="start" x="8" y="-1391.3" font-family="monospace" font-size="14.00">  SuperStruct: import /Script/Engine&#45;&gt;Actor</text>
<text text-anchor="start" x="8" y="-1376.3" font-family="monospace" font-size="14.00">  Properties:</text>
<text text-anchor="start" x="8" y="-1361.3" font-family="monospace" font-size="14.00">    StructProperty UberGraphFrame</text>
<text text-anchor="start" x="8" y="-1346.3" font-family="monospace" font-size="14.00">      CPF_Transient|CPF_DuplicateTransient</text>
<text text-anchor="start" x="8" y="-1331.3" font-family="monospace" font-size="14.00">    ObjectProperty ParticleSystem</text>
<text text-anchor="start" x="8" y="-1316.3" font-family="monospace" font-size="14.00">      CPF_BlueprintVisible|CPF_InstancedReference|CPF_NonTransactional</text>
<text text-anchor="start" x="8" y="-1301.3" font-family="monospace" font-size="14.00">    ObjectProperty DefaultSceneRoot</text>
<text text-anchor="start" x="8" y="-1286.3" font-family="monospace" font-size="14.00">      CPF_BlueprintVisible|CPF_InstancedReference|CPF_NonTransactional</text>
</g>
<!-- ExecuteUbergraph_BP_HeightenedSense_Discharge -->
<g id="node2" class="node">
<title>ExecuteUbergraph_BP_HeightenedSense_Discharge</title>
<polygon fill="#ff8888" stroke="black" points="612,-1293.5 612,-1406.5 1082,-1406.5 1082,-1293.5 612,-1293.5"/>
<text text-anchor="start" x="620" y="-1391.3" font-family="monospace" font-size="14.00">Function ExecuteUbergraph_BP_HeightenedSense_Discharge</text>
<text text-anchor="start" x="620" y="-1376.3" font-family="monospace" font-size="14.00">  IntProperty EntryPoint</text>
<text text-anchor="start" x="620" y="-1361.3" font-family="monospace" font-size="14.00">    CPF_BlueprintVisible|CPF_BlueprintReadOnly|CPF_Parm</text>
<text text-anchor="start" x="620" y="-1346.3" font-family="monospace" font-size="14.00">  ObjectProperty CallFunc_GetOwner_ReturnValue</text>
<text text-anchor="start" x="620" y="-1331.3" font-family="monospace" font-size="14.00">  ObjectProperty K2Node_DynamicCast_AsPlayer_Character</text>
<text text-anchor="start" x="620" y="-1316.3" font-family="monospace" font-size="14.00">  BoolProperty K2Node_DynamicCast_bSuccess</text>
<text text-anchor="start" x="620" y="-1301.3" font-family="monospace" font-size="14.00">  BoolProperty CallFunc_IsLocallyControlled_ReturnValue</text>
</g>
<!-- ExecuteUbergraph_BP_HeightenedSense_Discharge__0 -->
<g id="node3" class="node">
<title>ExecuteUbergraph_BP_HeightenedSense_Discharge__0</title>
<polygon fill="#eeeeee" stroke="black" points="739.5,-1167.5 739.5,-1203.5 954.5,-1203.5 954.5,-1167.5 739.5,-1167.5"/>
<text text-anchor="start" x="747.5" y="-1181.8" font-family="monospace" font-size="14.00">EX_PushExecutionFlow 327</text>
</g>
<!-- ExecuteUbergraph_BP_HeightenedSense_Discharge&#45;&gt;ExecuteUbergraph_BP_HeightenedSense_Discharge__0 -->
<g id="edge1" class="edge">
<title>ExecuteUbergraph_BP_HeightenedSense_Discharge&#45;&gt;ExecuteUbergraph_BP_HeightenedSense_Discharge__0</title>
<path fill="none" stroke="black" d="M847,-1293.53C847,-1266.97 847,-1236.3 847,-1214.62"/>
<polygon fill="black" stroke="black" points="850.5,-1214.81 847,-1204.81 843.5,-1214.81 850.5,-1214.81"/>
</g>
<!-- ExecuteUbergraph_BP_HeightenedSense_Discharge__5 -->
<g id="node4" class="node">
<title>ExecuteUbergraph_BP_HeightenedSense_Discharge__5</title>
<polygon fill="#eeeeee" stroke="black" points="659,-1054.5 659,-1092.5 931,-1092.5 931,-1054.5 659,-1054.5"/>
<text text-anchor="start" x="667" y="-1077.3" font-family="monospace" font-size="14.00">EX_ComputedJump</text>
<text text-anchor="start" x="667" y="-1062.3" font-family="monospace" font-size="14.00">  EX_LocalVariable [EntryPoint]</text>
</g>
<!-- ExecuteUbergraph_BP_HeightenedSense_Discharge__0&#45;&gt;ExecuteUbergraph_BP_HeightenedSense_Discharge__5 -->
<g id="edge3" class="edge">
<title>ExecuteUbergraph_BP_HeightenedSense_Discharge__0&#45;&gt;ExecuteUbergraph_BP_HeightenedSense_Discharge__5</title>
<path fill="none" stroke="black" d="M839.1,-1167.79C830.96,-1150.57 818.12,-1123.41 808.39,-1102.83"/>
<polygon fill="black" stroke="black" points="811.58,-1101.38 804.14,-1093.83 805.25,-1104.37 811.58,-1101.38"/>
</g>
<!-- ExecuteUbergraph_BP_HeightenedSense_Discharge__327 -->
<g id="node20" class="node">
<title>ExecuteUbergraph_BP_HeightenedSense_Discharge__327</title>
<polygon fill="#eeeeee" stroke="black" points="949,-1054.5 949,-1092.5 1065,-1092.5 1065,-1054.5 949,-1054.5"/>
<text text-anchor="start" x="957" y="-1077.3" font-family="monospace" font-size="14.00">EX_Return</text>
<text text-anchor="start" x="957" y="-1062.3" font-family="monospace" font-size="14.00">  EX_Nothing</text>
</g>
<!-- ExecuteUbergraph_BP_HeightenedSense_Discharge__0&#45;&gt;ExecuteUbergraph_BP_HeightenedSense_Discharge__327 -->
<g id="edge2" class="edge">
<title>ExecuteUbergraph_BP_HeightenedSense_Discharge__0:e&#45;&gt;ExecuteUbergraph_BP_HeightenedSense_Discharge__327</title>
<path fill="none" stroke="red" d="M956,-1185.5C965.21,-1185.5 959.44,-1174.49 963,-1166 972.06,-1144.35 983.6,-1120.48 992.58,-1102.54"/>
<polygon fill="none" stroke="red" points="995.6,-1104.33 996.99,-1093.83 989.35,-1101.17 995.6,-1104.33"/>
<text text-anchor="middle" x="1029.5" y="-1125.8" font-family="monospace" font-size="14.00">PUSH STACK</text>
</g>
<!-- ExecuteUbergraph_BP_HeightenedSense_Discharge__15 -->
<g id="node5" class="node">
<title>ExecuteUbergraph_BP_HeightenedSense_Discharge__15</title>
<polygon fill="#eeeeee" stroke="black" points="1756,-74.5 1756,-262.5 2804,-262.5 2804,-74.5 1756,-74.5"/>
<text text-anchor="start" x="1764" y="-247.3" font-family="monospace" font-size="14.00">EX_Context</text>
<text text-anchor="start" x="1764" y="-232.3" font-family="monospace" font-size="14.00">  EX_ObjectConst import /Script/Engine&#45;&gt;Default__GameplayStatics</text>
<text text-anchor="start" x="1764" y="-217.3" font-family="monospace" font-size="14.00">  EX_FinalFunction import /Script/Engine&#45;&gt;GameplayStatics&#45;&gt;PlaySound2D</text>
<text text-anchor="start" x="1764" y="-202.3" font-family="monospace" font-size="14.00">    EX_Self</text>
<text text-anchor="start" x="1764" y="-187.3" font-family="monospace" font-size="14.00">    EX_ObjectConst import /Game/Audio/SFX/Characters/Perks/PerkHeightenedSenseDischarge_Cue&#45;&gt;PerkHeightenedSenseDischarge_Cue</text>
<text text-anchor="start" x="1764" y="-172.3" font-family="monospace" font-size="14.00">    EX_FloatConst 1</text>
<text text-anchor="start" x="1764" y="-157.3" font-family="monospace" font-size="14.00">    EX_FloatConst 1</text>
<text text-anchor="start" x="1764" y="-142.3" font-family="monospace" font-size="14.00">    EX_FloatConst 0</text>
<text text-anchor="start" x="1764" y="-127.3" font-family="monospace" font-size="14.00">    EX_NoObject</text>
<text text-anchor="start" x="1764" y="-112.3" font-family="monospace" font-size="14.00">    EX_NoObject</text>
<text text-anchor="start" x="1764" y="-97.3" font-family="monospace" font-size="14.00">    EX_True</text>
<text text-anchor="start" x="1764" y="-82.3" font-family="monospace" font-size="14.00">  RValue = []</text>
</g>
<!-- ExecuteUbergraph_BP_HeightenedSense_Discharge__75 -->
<g id="node6" class="node">
<title>ExecuteUbergraph_BP_HeightenedSense_Discharge__75</title>
<polygon fill="#eeeeee" stroke="black" points="2193.5,-0.5 2193.5,-36.5 2366.5,-36.5 2366.5,-0.5 2193.5,-0.5"/>
<text text-anchor="start" x="2201.5" y="-14.8" font-family="monospace" font-size="14.00">EX_PopExecutionFlow</text>
</g>
<!-- ExecuteUbergraph_BP_HeightenedSense_Discharge__15&#45;&gt;ExecuteUbergraph_BP_HeightenedSense_Discharge__75 -->
<g id="edge4" class="edge">
<title>ExecuteUbergraph_BP_HeightenedSense_Discharge__15&#45;&gt;ExecuteUbergraph_BP_HeightenedSense_Discharge__75</title>
<path fill="none" stroke="black" d="M2280,-74.61C2280,-65.01 2280,-55.86 2280,-47.87"/>
<polygon fill="black" stroke="black" points="2283.5,-47.89 2280,-37.89 2276.5,-47.89 2283.5,-47.89"/>
</g>
<!-- ExecuteUbergraph_BP_HeightenedSense_Discharge__76 -->
<g id="node7" class="node">
<title>ExecuteUbergraph_BP_HeightenedSense_Discharge__76</title>
<polygon fill="#eeeeee" stroke="black" points="1676,-783.5 1676,-821.5 2014,-821.5 2014,-783.5 1676,-783.5"/>
<text text-anchor="start" x="1684" y="-806.3" font-family="monospace" font-size="14.00">EX_VirtualFunction SetActorHiddenInGame</text>
<text text-anchor="start" x="1684" y="-791.3" font-family="monospace" font-size="14.00">  EX_True</text>
</g>
<!-- ExecuteUbergraph_BP_HeightenedSense_Discharge__91 -->
<g id="node8" class="node">
<title>ExecuteUbergraph_BP_HeightenedSense_Discharge__91</title>
<polygon fill="#eeeeee" stroke="black" points="1713,-677.5 1713,-715.5 1977,-715.5 1977,-677.5 1713,-677.5"/>
<text text-anchor="start" x="1721" y="-700.3" font-family="monospace" font-size="14.00">EX_VirtualFunction SetLifeSpan</text>
<text text-anchor="start" x="1721" y="-685.3" font-family="monospace" font-size="14.00">  EX_FloatConst 1</text>
</g>
<!-- ExecuteUbergraph_BP_HeightenedSense_Discharge__76&#45;&gt;ExecuteUbergraph_BP_HeightenedSense_Discharge__91 -->
<g id="edge5" class="edge">
<title>ExecuteUbergraph_BP_HeightenedSense_Discharge__76&#45;&gt;ExecuteUbergraph_BP_HeightenedSense_Discharge__91</title>
<path fill="none" stroke="black" d="M1845,-783.86C1845,-768.17 1845,-744.93 1845,-726.51"/>
<polygon fill="black" stroke="black" points="1848.5,-726.74 1845,-716.74 1841.5,-726.74 1848.5,-726.74"/>
</g>
<!-- ExecuteUbergraph_BP_HeightenedSense_Discharge__110 -->
<g id="node9" class="node">
<title>ExecuteUbergraph_BP_HeightenedSense_Discharge__110</title>
<polygon fill="#eeeeee" stroke="black" points="1758.5,-587.5 1758.5,-623.5 1931.5,-623.5 1931.5,-587.5 1758.5,-587.5"/>
<text text-anchor="start" x="1766.5" y="-601.8" font-family="monospace" font-size="14.00">EX_PopExecutionFlow</text>
</g>
<!-- ExecuteUbergraph_BP_HeightenedSense_Discharge__91&#45;&gt;ExecuteUbergraph_BP_HeightenedSense_Discharge__110 -->
<g id="edge6" class="edge">
<title>ExecuteUbergraph_BP_HeightenedSense_Discharge__91&#45;&gt;ExecuteUbergraph_BP_HeightenedSense_Discharge__110</title>
<path fill="none" stroke="black" d="M1845,-677.92C1845,-665.57 1845,-648.79 1845,-634.6"/>
<polygon fill="black" stroke="black" points="1848.5,-634.96 1845,-624.96 1841.5,-634.96 1848.5,-634.96"/>
</g>
<!-- ExecuteUbergraph_BP_HeightenedSense_Discharge__111 -->
<g id="node10" class="node">
<title>ExecuteUbergraph_BP_HeightenedSense_Discharge__111</title>
<polygon fill="#eeeeee" stroke="black" points="1756.5,-1055.5 1756.5,-1091.5 1971.5,-1091.5 1971.5,-1055.5 1756.5,-1055.5"/>
<text text-anchor="start" x="1764.5" y="-1069.8" font-family="monospace" font-size="14.00">EX_PushExecutionFlow 171</text>
</g>
<!-- ExecuteUbergraph_BP_HeightenedSense_Discharge__116 -->
<g id="node11" class="node">
<title>ExecuteUbergraph_BP_HeightenedSense_Discharge__116</title>
<polygon fill="#eeeeee" stroke="black" points="1317,-874.5 1317,-1002.5 1845,-1002.5 1845,-874.5 1317,-874.5"/>
<text text-anchor="start" x="1325" y="-987.3" font-family="monospace" font-size="14.00">EX_CallMath import /Script/Engine&#45;&gt;KismetSystemLibrary&#45;&gt;Delay</text>
<text text-anchor="start" x="1325" y="-972.3" font-family="monospace" font-size="14.00">  EX_Self</text>
<text text-anchor="start" x="1325" y="-957.3" font-family="monospace" font-size="14.00">  EX_FloatConst 2</text>
<text text-anchor="start" x="1325" y="-942.3" font-family="monospace" font-size="14.00">  EX_StructConst import /Script/Engine&#45;&gt;LatentActionInfo</text>
<text text-anchor="start" x="1325" y="-927.3" font-family="monospace" font-size="14.00">    EX_SkipOffsetConst 76</text>
<text text-anchor="start" x="1325" y="-912.3" font-family="monospace" font-size="14.00">    EX_IntConst &#45;1604197783</text>
<text text-anchor="start" x="1325" y="-897.3" font-family="monospace" font-size="14.00">    EX_NameConst ExecuteUbergraph_BP_HeightenedSense_Discharge</text>
<text text-anchor="start" x="1325" y="-882.3" font-family="monospace" font-size="14.00">    EX_Self</text>
</g>
<!-- ExecuteUbergraph_BP_HeightenedSense_Discharge__111&#45;&gt;ExecuteUbergraph_BP_HeightenedSense_Discharge__116 -->
<g id="edge8" class="edge">
<title>ExecuteUbergraph_BP_HeightenedSense_Discharge__111&#45;&gt;ExecuteUbergraph_BP_HeightenedSense_Discharge__116</title>
<path fill="none" stroke="black" d="M1827.87,-1055.52C1801.33,-1043.05 1763.39,-1025.22 1725.19,-1007.26"/>
<polygon fill="black" stroke="black" points="1726.85,-1004.18 1716.32,-1003.09 1723.88,-1010.51 1726.85,-1004.18"/>
</g>
<!-- ExecuteUbergraph_BP_HeightenedSense_Discharge__171 -->
<g id="node13" class="node">
<title>ExecuteUbergraph_BP_HeightenedSense_Discharge__171</title>
<polygon fill="#eeeeee" stroke="black" points="1949.5,-912 1949.5,-965 2436.5,-965 2436.5,-912 1949.5,-912"/>
<text text-anchor="start" x="1957.5" y="-949.8" font-family="monospace" font-size="14.00">EX_LetObj</text>
<text text-anchor="start" x="1957.5" y="-934.8" font-family="monospace" font-size="14.00">  EX_LocalVariable [CallFunc_GetOwner_ReturnValue]</text>
<text text-anchor="start" x="1957.5" y="-919.8" font-family="monospace" font-size="14.00">  EX_FinalFunction import /Script/Engine&#45;&gt;Actor&#45;&gt;GetOwner</text>
</g>
<!-- ExecuteUbergraph_BP_HeightenedSense_Discharge__111&#45;&gt;ExecuteUbergraph_BP_HeightenedSense_Discharge__171 -->
<g id="edge7" class="edge">
<title>ExecuteUbergraph_BP_HeightenedSense_Discharge__111:e&#45;&gt;ExecuteUbergraph_BP_HeightenedSense_Discharge__171</title>
<path fill="none" stroke="red" d="M1973,-1073.5C2050.24,-1073.5 2123.4,-1012.51 2162.82,-972.82"/>
<polygon fill="none" stroke="red" points="2165.2,-975.4 2169.66,-965.79 2160.18,-970.52 2165.2,-975.4"/>
<text text-anchor="middle" x="2147.5" y="-1024.8" font-family="monospace" font-size="14.00">PUSH STACK</text>
</g>
<!-- ExecuteUbergraph_BP_HeightenedSense_Discharge__116&#45;&gt;ExecuteUbergraph_BP_HeightenedSense_Discharge__76 -->
<g id="edge9" class="edge">
<title>ExecuteUbergraph_BP_HeightenedSense_Discharge__116:e&#45;&gt;ExecuteUbergraph_BP_HeightenedSense_Discharge__76</title>
<path fill="none" stroke="red" d="M1846,-938.5C1888.22,-938.5 1870.53,-871.65 1856.33,-832.04"/>
<polygon fill="none" stroke="red" points="1859.68,-831 1852.91,-822.85 1853.12,-833.44 1859.68,-831"/>
</g>
<!-- ExecuteUbergraph_BP_HeightenedSense_Discharge__170 -->
<g id="node12" class="node">
<title>ExecuteUbergraph_BP_HeightenedSense_Discharge__170</title>
<polygon fill="#eeeeee" stroke="black" points="1484.5,-784.5 1484.5,-820.5 1657.5,-820.5 1657.5,-784.5 1484.5,-784.5"/>
<text text-anchor="start" x="1492.5" y="-798.8" font-family="monospace" font-size="14.00">EX_PopExecutionFlow</text>
</g>
<!-- ExecuteUbergraph_BP_HeightenedSense_Discharge__116&#45;&gt;ExecuteUbergraph_BP_HeightenedSense_Discharge__170 -->
<g id="edge10" class="edge">
<title>ExecuteUbergraph_BP_HeightenedSense_Discharge__116&#45;&gt;ExecuteUbergraph_BP_HeightenedSense_Discharge__170</title>
<path fill="none" stroke="black" d="M1576.32,-874.82C1575.19,-859.64 1574.03,-844.17 1573.09,-831.53"/>
<polygon fill="black" stroke="black" points="1576.61,-831.61 1572.37,-821.89 1569.63,-832.13 1576.61,-831.61"/>
</g>
<!-- ExecuteUbergraph_BP_HeightenedSense_Discharge__191 -->
<g id="node14" class="node">
<title>ExecuteUbergraph_BP_HeightenedSense_Discharge__191</title>
<polygon fill="#eeeeee" stroke="black" points="2032.5,-768.5 2032.5,-836.5 2527.5,-836.5 2527.5,-768.5 2032.5,-768.5"/>
<text text-anchor="start" x="2040.5" y="-821.3" font-family="monospace" font-size="14.00">EX_Let</text>
<text text-anchor="start" x="2040.5" y="-806.3" font-family="monospace" font-size="14.00">  EX_LocalVariable [K2Node_DynamicCast_AsPlayer_Character]</text>
<text text-anchor="start" x="2040.5" y="-791.3" font-family="monospace" font-size="14.00">  EX_DynamicCast import /Script/FSD&#45;&gt;PlayerCharacter</text>
<text text-anchor="start" x="2040.5" y="-776.3" font-family="monospace" font-size="14.00">    EX_LocalVariable [CallFunc_GetOwner_ReturnValue]</text>
</g>
<!-- ExecuteUbergraph_BP_HeightenedSense_Discharge__171&#45;&gt;ExecuteUbergraph_BP_HeightenedSense_Discharge__191 -->
<g id="edge11" class="edge">
<title>ExecuteUbergraph_BP_HeightenedSense_Discharge__171&#45;&gt;ExecuteUbergraph_BP_HeightenedSense_Discharge__191</title>
<path fill="none" stroke="black" d="M2209.36,-912.3C2221.54,-893.54 2238.44,-867.51 2252.66,-845.61"/>
<polygon fill="black" stroke="black" points="2255.44,-847.76 2257.95,-837.47 2249.56,-843.95 2255.44,-847.76"/>
</g>
<!-- ExecuteUbergraph_BP_HeightenedSense_Discharge__227 -->
<g id="node15" class="node">
<title>ExecuteUbergraph_BP_HeightenedSense_Discharge__227</title>
<polygon fill="#eeeeee" stroke="black" points="2024,-662.5 2024,-730.5 2536,-730.5 2536,-662.5 2024,-662.5"/>
<text text-anchor="start" x="2032" y="-715.3" font-family="monospace" font-size="14.00">EX_Let</text>
<text text-anchor="start" x="2032" y="-700.3" font-family="monospace" font-size="14.00">  EX_LocalVariable [K2Node_DynamicCast_bSuccess]</text>
<text text-anchor="start" x="2032" y="-685.3" font-family="monospace" font-size="14.00">  EX_PrimitiveCast ObjectToBool</text>
<text text-anchor="start" x="2032" y="-670.3" font-family="monospace" font-size="14.00">    EX_LocalVariable [K2Node_DynamicCast_AsPlayer_Character]</text>
</g>
<!-- ExecuteUbergraph_BP_HeightenedSense_Discharge__191&#45;&gt;ExecuteUbergraph_BP_HeightenedSense_Discharge__227 -->
<g id="edge12" class="edge">
<title>ExecuteUbergraph_BP_HeightenedSense_Discharge__191&#45;&gt;ExecuteUbergraph_BP_HeightenedSense_Discharge__227</title>
<path fill="none" stroke="black" d="M2280,-768.59C2280,-759.97 2280,-750.54 2280,-741.45"/>
<polygon fill="black" stroke="black" points="2283.5,-741.71 2280,-731.71 2276.5,-741.71 2283.5,-741.71"/>
</g>
<!-- ExecuteUbergraph_BP_HeightenedSense_Discharge__256 -->
<g id="node16" class="node">
<title>ExecuteUbergraph_BP_HeightenedSense_Discharge__256</title>
<polygon fill="#eeeeee" stroke="black" points="2073.5,-586.5 2073.5,-624.5 2486.5,-624.5 2486.5,-586.5 2073.5,-586.5"/>
<text text-anchor="start" x="2081.5" y="-609.3" font-family="monospace" font-size="14.00">EX_PopExecutionFlowIfNot</text>
<text text-anchor="start" x="2081.5" y="-594.3" font-family="monospace" font-size="14.00">  EX_LocalVariable [K2Node_DynamicCast_bSuccess]</text>
</g>
<!-- ExecuteUbergraph_BP_HeightenedSense_Discharge__227&#45;&gt;ExecuteUbergraph_BP_HeightenedSense_Discharge__256 -->
<g id="edge13" class="edge">
<title>ExecuteUbergraph_BP_HeightenedSense_Discharge__227&#45;&gt;ExecuteUbergraph_BP_HeightenedSense_Discharge__256</title>
<path fill="none" stroke="black" d="M2280,-662.61C2280,-653.79 2280,-644.32 2280,-635.72"/>
<polygon fill="black" stroke="black" points="2283.5,-635.8 2280,-625.8 2276.5,-635.8 2283.5,-635.8"/>
</g>
<!-- ExecuteUbergraph_BP_HeightenedSense_Discharge__266 -->
<g id="node17" class="node">
<title>ExecuteUbergraph_BP_HeightenedSense_Discharge__266</title>
<polygon fill="#eeeeee" stroke="black" points="2020,-450.5 2020,-548.5 2540,-548.5 2540,-450.5 2020,-450.5"/>
<text text-anchor="start" x="2028" y="-533.3" font-family="monospace" font-size="14.00">EX_LetBool</text>
<text text-anchor="start" x="2028" y="-518.3" font-family="monospace" font-size="14.00">  EX_LocalVariable [CallFunc_IsLocallyControlled_ReturnValue]</text>
<text text-anchor="start" x="2028" y="-503.3" font-family="monospace" font-size="14.00">  EX_Context</text>
<text text-anchor="start" x="2028" y="-488.3" font-family="monospace" font-size="14.00">    EX_LocalVariable [K2Node_DynamicCast_AsPlayer_Character]</text>
<text text-anchor="start" x="2028" y="-473.3" font-family="monospace" font-size="14.00">    EX_VirtualFunction IsLocallyControlled</text>
<text text-anchor="start" x="2028" y="-458.3" font-family="monospace" font-size="14.00">    RValue = [CallFunc_IsLocallyControlled_ReturnValue]</text>
</g>
<!-- ExecuteUbergraph_BP_HeightenedSense_Discharge__256&#45;&gt;ExecuteUbergraph_BP_HeightenedSense_Discharge__266 -->
<g id="edge14" class="edge">
<title>ExecuteUbergraph_BP_HeightenedSense_Discharge__256&#45;&gt;ExecuteUbergraph_BP_HeightenedSense_Discharge__266</title>
<path fill="none" stroke="black" d="M2280,-586.86C2280,-579.11 2280,-569.52 2280,-559.58"/>
<polygon fill="black" stroke="black" points="2283.5,-559.8 2280,-549.8 2276.5,-559.8 2283.5,-559.8"/>
</g>
<!-- ExecuteUbergraph_BP_HeightenedSense_Discharge__312 -->
<g id="node18" class="node">
<title>ExecuteUbergraph_BP_HeightenedSense_Discharge__312</title>
<polygon fill="#eeeeee" stroke="black" points="2020,-374.5 2020,-412.5 2540,-412.5 2540,-374.5 2020,-374.5"/>
<text text-anchor="start" x="2028" y="-397.3" font-family="monospace" font-size="14.00">EX_PopExecutionFlowIfNot</text>
<text text-anchor="start" x="2028" y="-382.3" font-family="monospace" font-size="14.00">  EX_LocalVariable [CallFunc_IsLocallyControlled_ReturnValue]</text>
</g>
<!-- ExecuteUbergraph_BP_HeightenedSense_Discharge__266&#45;&gt;ExecuteUbergraph_BP_HeightenedSense_Discharge__312 -->
<g id="edge15" class="edge">
<title>ExecuteUbergraph_BP_HeightenedSense_Discharge__266&#45;&gt;ExecuteUbergraph_BP_HeightenedSense_Discharge__312</title>
<path fill="none" stroke="black" d="M2280,-450.76C2280,-441.58 2280,-432.21 2280,-423.83"/>
<polygon fill="black" stroke="black" points="2283.5,-423.89 2280,-413.89 2276.5,-423.89 2283.5,-423.89"/>
</g>
<!-- ExecuteUbergraph_BP_HeightenedSense_Discharge__322 -->
<g id="node19" class="node">
<title>ExecuteUbergraph_BP_HeightenedSense_Discharge__322</title>
<polygon fill="#eeeeee" stroke="black" points="2230.5,-300.5 2230.5,-336.5 2329.5,-336.5 2329.5,-300.5 2230.5,-300.5"/>
<text text-anchor="start" x="2238.5" y="-314.8" font-family="monospace" font-size="14.00">EX_Jump 15</text>
</g>
<!-- ExecuteUbergraph_BP_HeightenedSense_Discharge__312&#45;&gt;ExecuteUbergraph_BP_HeightenedSense_Discharge__322 -->
<g id="edge16" class="edge">
<title>ExecuteUbergraph_BP_HeightenedSense_Discharge__312&#45;&gt;ExecuteUbergraph_BP_HeightenedSense_Discharge__322</title>
<path fill="none" stroke="black" d="M2280,-374.83C2280,-366.61 2280,-356.65 2280,-347.45"/>
<polygon fill="black" stroke="black" points="2283.5,-347.52 2280,-337.52 2276.5,-347.52 2283.5,-347.52"/>
</g>
<!-- ExecuteUbergraph_BP_HeightenedSense_Discharge__322&#45;&gt;ExecuteUbergraph_BP_HeightenedSense_Discharge__15 -->
<g id="edge17" class="edge">
<title>ExecuteUbergraph_BP_HeightenedSense_Discharge__322&#45;&gt;ExecuteUbergraph_BP_HeightenedSense_Discharge__15</title>
<path fill="none" stroke="black" d="M2280,-300.52C2280,-293.16 2280,-283.89 2280,-273.7"/>
<polygon fill="black" stroke="black" points="2283.5,-273.84 2280,-263.84 2276.5,-273.84 2283.5,-273.84"/>
</g>
<!-- ExecuteUbergraph_BP_HeightenedSense_Discharge__329 -->
<g id="node21" class="node">
<title>ExecuteUbergraph_BP_HeightenedSense_Discharge__329</title>
<polygon fill="#eeeeee" stroke="black" points="1433,-1223.5 1433,-1259.5 1565,-1259.5 1565,-1223.5 1433,-1223.5"/>
<text text-anchor="start" x="1441" y="-1237.8" font-family="monospace" font-size="14.00">EX_EndOfScript</text>
</g>
<!-- ReceiveBeginPlay -->
<g id="node22" class="node">
<title>ReceiveBeginPlay</title>
<polygon fill="#ff8888" stroke="black" points="1306.5,-1332 1306.5,-1368 1529.5,-1368 1529.5,-1332 1306.5,-1332"/>
<text text-anchor="start" x="1314.5" y="-1346.3" font-family="monospace" font-size="14.00">Function ReceiveBeginPlay</text>
</g>
<!-- ReceiveBeginPlay__0 -->
<g id="node23" class="node">
<title>ReceiveBeginPlay__0</title>
<polygon fill="#eeeeee" stroke="black" points="972.5,-1166.5 972.5,-1204.5 1863.5,-1204.5 1863.5,-1166.5 972.5,-1166.5"/>
<text text-anchor="start" x="980.5" y="-1189.3" font-family="monospace" font-size="14.00">EX_LocalFinalFunction export BP_HeightenedSense_Discharge_C&#45;&gt;ExecuteUbergraph_BP_HeightenedSense_Discharge</text>
<text text-anchor="start" x="980.5" y="-1174.3" font-family="monospace" font-size="14.00">  EX_IntConst 111</text>
</g>
<!-- ReceiveBeginPlay&#45;&gt;ReceiveBeginPlay__0 -->
<g id="edge18" class="edge">
<title>ReceiveBeginPlay&#45;&gt;ReceiveBeginPlay__0</title>
<path fill="none" stroke="black" d="M1418,-1332.22C1418,-1304.78 1418,-1249.94 1418,-1215.92"/>
<polygon fill="black" stroke="black" points="1421.5,-1215.93 1418,-1205.93 1414.5,-1215.93 1421.5,-1215.93"/>
</g>
<!-- ReceiveBeginPlay__0&#45;&gt;ExecuteUbergraph_BP_HeightenedSense_Discharge__111 -->
<g id="edge19" class="edge">
<title>ReceiveBeginPlay__0:e&#45;&gt;ExecuteUbergraph_BP_HeightenedSense_Discharge__111</title>
<path fill="none" stroke="red" d="M1865,-1185.5C1881.56,-1185.5 1875.43,-1135.46 1869.62,-1102.57"/>
<polygon fill="none" stroke="red" points="1873.08,-1102.04 1867.81,-1092.85 1866.2,-1103.32 1873.08,-1102.04"/>
</g>
<!-- ReceiveBeginPlay__15 -->
<g id="node24" class="node">
<title>ReceiveBeginPlay__15</title>
<polygon fill="#eeeeee" stroke="black" points="1360,-1054.5 1360,-1092.5 1476,-1092.5 1476,-1054.5 1360,-1054.5"/>
<text text-anchor="start" x="1368" y="-1077.3" font-family="monospace" font-size="14.00">EX_Return</text>
<text text-anchor="start" x="1368" y="-1062.3" font-family="monospace" font-size="14.00">  EX_Nothing</text>
</g>
<!-- ReceiveBeginPlay__0&#45;&gt;ReceiveBeginPlay__15 -->
<g id="edge20" class="edge">
<title>ReceiveBeginPlay__0&#45;&gt;ReceiveBeginPlay__15</title>
<path fill="none" stroke="black" d="M1418,-1166.83C1418,-1149.85 1418,-1123.88 1418,-1103.81"/>
<polygon fill="black" stroke="black" points="1421.5,-1104.01 1418,-1094.01 1414.5,-1104.01 1421.5,-1104.01"/>
</g>
<!-- ReceiveBeginPlay__17 -->
<g id="node25" class="node">
<title>ReceiveBeginPlay__17</title>
<polygon fill="#eeeeee" stroke="black" points="1879,-1111.5 1879,-1147.5 2011,-1147.5 2011,-1111.5 1879,-1111.5"/>
<text text-anchor="start" x="1887" y="-1125.8" font-family="monospace" font-size="14.00">EX_EndOfScript</text>
</g>
</g>
</svg>
