<?xml version="1.0" encoding="UTF-8" standalone="no"?>
<!DOCTYPE svg PUBLIC "-//W3C//DTD SVG 1.1//EN"
 "http://www.w3.org/Graphics/SVG/1.1/DTD/svg11.dtd">
<!-- Generated by graphviz version 7.0.1 (0)
 -->
<!-- Pages: 1 -->
<svg width="2329pt" height="1805pt"
 viewBox="0.00 0.00 2329.00 1805.00" xmlns="http://www.w3.org/2000/svg" xmlns:xlink="http://www.w3.org/1999/xlink">
<g id="graph0" class="graph" transform="scale(1 1) rotate(0) translate(4 1801)">
<polygon fill="white" stroke="none" points="-4,4 -4,-1801 2325,-1801 2325,4 -4,4"/>
<!-- Tutorial_Hint_LowO2_C -->
<g id="node1" class="node">
<title>Tutorial_Hint_LowO2_C</title>
<polygon fill="#88ff88" stroke="black" points="0,-1593.5 0,-1796.5 734,-1796.5 734,-1593.5 0,-1593.5"/>
<text text-anchor="start" x="8" y="-1781.3" font-family="monospace" font-size="14.00">ClassExport: Tutorial_Hint_LowO2_C</text>
<text text-anchor="start" x="8" y="-1766.3" font-family="monospace" font-size="14.00">  SuperStruct: import /Script/FSD&#45;&gt;TutorialHintComponent</text>
<text text-anchor="start" x="8" y="-1751.3" font-family="monospace" font-size="14.00">  Properties:</text>
<text text-anchor="start" x="8" y="-1736.3" font-family="monospace" font-size="14.00">    StructProperty UberGraphFrame</text>
<text text-anchor="start" x="8" y="-1721.3" font-family="monospace" font-size="14.00">      CPF_Transient|CPF_DuplicateTransient</text>
<text text-anchor="start" x="8" y="-1706.3" font-family="monospace" font-size="14.00">    FloatProperty AccumilatedDamage</text>
<text text-anchor="start" x="8" y="-1691.3" font-family="monospace" font-size="14.00">      CPF_Edit|CPF_BlueprintVisible|CPF_DisableEditOnInstance</text>
<text text-anchor="start" x="8" y="-1676.3" font-family="monospace" font-size="14.00">    FloatProperty TotalDamageBeforeShowingHint</text>
<text text-anchor="start" x="8" y="-1661.3" font-family="monospace" font-size="14.00">      CPF_Edit|CPF_BlueprintVisible|CPF_DisableEditOnInstance</text>
<text text-anchor="start" x="8" y="-1646.3" font-family="monospace" font-size="14.00">    ObjectProperty Drilldozer</text>
<text text-anchor="start" x="8" y="-1631.3" font-family="monospace" font-size="14.00">      CPF_Edit|CPF_BlueprintVisible|CPF_DisableEditOnTemplate|CPF_DisableEditOnInstance</text>
<text text-anchor="start" x="8" y="-1616.3" font-family="monospace" font-size="14.00">    ObjectProperty DrilldozerHealth</text>
<text text-anchor="start" x="8" y="-1601.3" font-family="monospace" font-size="14.00">      CPF_Edit|CPF_BlueprintVisible|CPF_DisableEditOnInstance|CPF_InstancedReference</text>
</g>
<!-- ExecuteUbergraph_Tutorial_Hint_LowO2 -->
<g id="node2" class="node">
<title>ExecuteUbergraph_Tutorial_Hint_LowO2</title>
<polygon fill="#ff8888" stroke="black" points="752.5,-1623.5 752.5,-1766.5 1247.5,-1766.5 1247.5,-1623.5 752.5,-1623.5"/>
<text text-anchor="start" x="760.5" y="-1751.3" font-family="monospace" font-size="14.00">Function ExecuteUbergraph_Tutorial_Hint_LowO2</text>
<text text-anchor="start" x="760.5" y="-1736.3" font-family="monospace" font-size="14.00">  IntProperty EntryPoint</text>
<text text-anchor="start" x="760.5" y="-1721.3" font-family="monospace" font-size="14.00">    CPF_BlueprintVisible|CPF_BlueprintReadOnly|CPF_Parm</text>
<text text-anchor="start" x="760.5" y="-1706.3" font-family="monospace" font-size="14.00">  BoolProperty Temp_bool_Has_Been_Initd_Variable</text>
<text text-anchor="start" x="760.5" y="-1691.3" font-family="monospace" font-size="14.00">  BoolProperty Temp_bool_IsClosed_Variable</text>
<text text-anchor="start" x="760.5" y="-1676.3" font-family="monospace" font-size="14.00">  ObjectProperty CallFunc_GetFSDGameInstance_ReturnValue</text>
<text text-anchor="start" x="760.5" y="-1661.3" font-family="monospace" font-size="14.00">  BoolProperty CallFunc_IsValid_ReturnValue</text>
<text text-anchor="start" x="760.5" y="-1646.3" font-family="monospace" font-size="14.00">  ObjectProperty CallFunc_GetFSDGameInstance_ReturnValue_1</text>
<text text-anchor="start" x="760.5" y="-1631.3" font-family="monospace" font-size="14.00">  BoolProperty CallFunc_IsMutatorActive_ReturnValue</text>
</g>
<!-- ExecuteUbergraph_Tutorial_Hint_LowO2__0 -->
<g id="node3" class="node">
<title>ExecuteUbergraph_Tutorial_Hint_LowO2__0</title>
<polygon fill="#eeeeee" stroke="black" points="892.5,-1482.5 892.5,-1518.5 1107.5,-1518.5 1107.5,-1482.5 892.5,-1482.5"/>
<text text-anchor="start" x="900.5" y="-1496.8" font-family="monospace" font-size="14.00">EX_PushExecutionFlow 363</text>
</g>
<!-- ExecuteUbergraph_Tutorial_Hint_LowO2&#45;&gt;ExecuteUbergraph_Tutorial_Hint_LowO2__0 -->
<g id="edge1" class="edge">
<title>ExecuteUbergraph_Tutorial_Hint_LowO2&#45;&gt;ExecuteUbergraph_Tutorial_Hint_LowO2__0</title>
<path fill="none" stroke="black" d="M1000,-1623.69C1000,-1591.16 1000,-1554.37 1000,-1529.73"/>
<polygon fill="black" stroke="black" points="1003.5,-1529.88 1000,-1519.88 996.5,-1529.88 1003.5,-1529.88"/>
</g>
<!-- ExecuteUbergraph_Tutorial_Hint_LowO2__5 -->
<g id="node4" class="node">
<title>ExecuteUbergraph_Tutorial_Hint_LowO2__5</title>
<polygon fill="#eeeeee" stroke="black" points="812,-1369.5 812,-1407.5 1084,-1407.5 1084,-1369.5 812,-1369.5"/>
<text text-anchor="start" x="820" y="-1392.3" font-family="monospace" font-size="14.00">EX_ComputedJump</text>
<text text-anchor="start" x="820" y="-1377.3" font-family="monospace" font-size="14.00">  EX_LocalVariable [EntryPoint]</text>
</g>
<!-- ExecuteUbergraph_Tutorial_Hint_LowO2__0&#45;&gt;ExecuteUbergraph_Tutorial_Hint_LowO2__5 -->
<g id="edge3" class="edge">
<title>ExecuteUbergraph_Tutorial_Hint_LowO2__0&#45;&gt;ExecuteUbergraph_Tutorial_Hint_LowO2__5</title>
<path fill="none" stroke="black" d="M992.1,-1482.79C983.96,-1465.57 971.12,-1438.41 961.39,-1417.83"/>
<polygon fill="black" stroke="black" points="964.58,-1416.38 957.14,-1408.83 958.25,-1419.37 964.58,-1416.38"/>
</g>
<!-- ExecuteUbergraph_Tutorial_Hint_LowO2__363 -->
<g id="node29" class="node">
<title>ExecuteUbergraph_Tutorial_Hint_LowO2__363</title>
<polygon fill="#eeeeee" stroke="black" points="1102,-1369.5 1102,-1407.5 1218,-1407.5 1218,-1369.5 1102,-1369.5"/>
<text text-anchor="start" x="1110" y="-1392.3" font-family="monospace" font-size="14.00">EX_Return</text>
<text text-anchor="start" x="1110" y="-1377.3" font-family="monospace" font-size="14.00">  EX_Nothing</text>
</g>
<!-- ExecuteUbergraph_Tutorial_Hint_LowO2__0&#45;&gt;ExecuteUbergraph_Tutorial_Hint_LowO2__363 -->
<g id="edge2" class="edge">
<title>ExecuteUbergraph_Tutorial_Hint_LowO2__0:e&#45;&gt;ExecuteUbergraph_Tutorial_Hint_LowO2__363</title>
<path fill="none" stroke="red" d="M1109,-1500.5C1118.21,-1500.5 1112.44,-1489.49 1116,-1481 1125.06,-1459.35 1136.6,-1435.48 1145.58,-1417.54"/>
<polygon fill="none" stroke="red" points="1148.6,-1419.33 1149.99,-1408.83 1142.35,-1416.17 1148.6,-1419.33"/>
<text text-anchor="middle" x="1182.5" y="-1440.8" font-family="monospace" font-size="14.00">PUSH STACK</text>
</g>
<!-- ExecuteUbergraph_Tutorial_Hint_LowO2__15 -->
<g id="node5" class="node">
<title>ExecuteUbergraph_Tutorial_Hint_LowO2__15</title>
<polygon fill="#eeeeee" stroke="black" points="1677,-74.5 1677,-110.5 2321,-110.5 2321,-74.5 1677,-74.5"/>
<text text-anchor="start" x="1685" y="-88.8" font-family="monospace" font-size="14.00">EX_FinalFunction import /Script/FSD&#45;&gt;TutorialComponent&#45;&gt;MarkTutorialReadyNow</text>
</g>
<!-- ExecuteUbergraph_Tutorial_Hint_LowO2__25 -->
<g id="node6" class="node">
<title>ExecuteUbergraph_Tutorial_Hint_LowO2__25</title>
<polygon fill="#eeeeee" stroke="black" points="1912.5,-0.5 1912.5,-36.5 2085.5,-36.5 2085.5,-0.5 1912.5,-0.5"/>
<text text-anchor="start" x="1920.5" y="-14.8" font-family="monospace" font-size="14.00">EX_PopExecutionFlow</text>
</g>
<!-- ExecuteUbergraph_Tutorial_Hint_LowO2__15&#45;&gt;ExecuteUbergraph_Tutorial_Hint_LowO2__25 -->
<g id="edge4" class="edge">
<title>ExecuteUbergraph_Tutorial_Hint_LowO2__15&#45;&gt;ExecuteUbergraph_Tutorial_Hint_LowO2__25</title>
<path fill="none" stroke="black" d="M1999,-74.8C1999,-66.71 1999,-56.78 1999,-47.57"/>
<polygon fill="black" stroke="black" points="2002.5,-47.62 1999,-37.62 1995.5,-47.62 2002.5,-47.62"/>
</g>
<!-- ExecuteUbergraph_Tutorial_Hint_LowO2__26 -->
<g id="node7" class="node">
<title>ExecuteUbergraph_Tutorial_Hint_LowO2__26</title>
<polygon fill="#eeeeee" stroke="black" points="1559.5,-1263.5 1559.5,-1331.5 2178.5,-1331.5 2178.5,-1263.5 1559.5,-1263.5"/>
<text text-anchor="start" x="1567.5" y="-1316.3" font-family="monospace" font-size="14.00">EX_LetObj</text>
<text text-anchor="start" x="1567.5" y="-1301.3" font-family="monospace" font-size="14.00">  EX_LocalVariable [CallFunc_GetFSDGameInstance_ReturnValue]</text>
<text text-anchor="start" x="1567.5" y="-1286.3" font-family="monospace" font-size="14.00">  EX_CallMath import /Script/FSD&#45;&gt;GameFunctionLibrary&#45;&gt;GetFSDGameInstance</text>
<text text-anchor="start" x="1567.5" y="-1271.3" font-family="monospace" font-size="14.00">    EX_Self</text>
</g>
<!-- ExecuteUbergraph_Tutorial_Hint_LowO2__47 -->
<g id="node8" class="node">
<title>ExecuteUbergraph_Tutorial_Hint_LowO2__47</title>
<polygon fill="#eeeeee" stroke="black" points="1429.5,-1157.5 1429.5,-1225.5 1982.5,-1225.5 1982.5,-1157.5 1429.5,-1157.5"/>
<text text-anchor="start" x="1437.5" y="-1210.3" font-family="monospace" font-size="14.00">EX_LetBool</text>
<text text-anchor="start" x="1437.5" y="-1195.3" font-family="monospace" font-size="14.00">  EX_LocalVariable [CallFunc_IsValid_ReturnValue]</text>
<text text-anchor="start" x="1437.5" y="-1180.3" font-family="monospace" font-size="14.00">  EX_CallMath import /Script/Engine&#45;&gt;KismetSystemLibrary&#45;&gt;IsValid</text>
<text text-anchor="start" x="1437.5" y="-1165.3" font-family="monospace" font-size="14.00">    EX_LocalVariable [CallFunc_GetFSDGameInstance_ReturnValue]</text>
</g>
<!-- ExecuteUbergraph_Tutorial_Hint_LowO2__26&#45;&gt;ExecuteUbergraph_Tutorial_Hint_LowO2__47 -->
<g id="edge5" class="edge">
<title>ExecuteUbergraph_Tutorial_Hint_LowO2__26&#45;&gt;ExecuteUbergraph_Tutorial_Hint_LowO2__47</title>
<path fill="none" stroke="black" d="M1817.43,-1263.59C1801.44,-1253.4 1783.68,-1242.06 1767.11,-1231.49"/>
<polygon fill="black" stroke="black" points="1769.11,-1228.61 1758.79,-1226.18 1765.34,-1234.51 1769.11,-1228.61"/>
</g>
<!-- ExecuteUbergraph_Tutorial_Hint_LowO2__76 -->
<g id="node9" class="node">
<title>ExecuteUbergraph_Tutorial_Hint_LowO2__76</title>
<polygon fill="#eeeeee" stroke="black" points="1371.5,-1081.5 1371.5,-1119.5 1792.5,-1119.5 1792.5,-1081.5 1371.5,-1081.5"/>
<text text-anchor="start" x="1379.5" y="-1104.3" font-family="monospace" font-size="14.00">EX_JumpIfNot 192</text>
<text text-anchor="start" x="1379.5" y="-1089.3" font-family="monospace" font-size="14.00">  EX_LocalVariable [CallFunc_IsValid_ReturnValue]</text>
</g>
<!-- ExecuteUbergraph_Tutorial_Hint_LowO2__47&#45;&gt;ExecuteUbergraph_Tutorial_Hint_LowO2__76 -->
<g id="edge6" class="edge">
<title>ExecuteUbergraph_Tutorial_Hint_LowO2__47&#45;&gt;ExecuteUbergraph_Tutorial_Hint_LowO2__76</title>
<path fill="none" stroke="black" d="M1660.18,-1157.61C1645.49,-1147.07 1629.5,-1135.6 1615.84,-1125.79"/>
<polygon fill="black" stroke="black" points="1618.18,-1123.16 1608.02,-1120.17 1614.1,-1128.85 1618.18,-1123.16"/>
</g>
<!-- ExecuteUbergraph_Tutorial_Hint_LowO2__90 -->
<g id="node10" class="node">
<title>ExecuteUbergraph_Tutorial_Hint_LowO2__90</title>
<polygon fill="#eeeeee" stroke="black" points="895.5,-931.5 895.5,-999.5 1514.5,-999.5 1514.5,-931.5 895.5,-931.5"/>
<text text-anchor="start" x="903.5" y="-984.3" font-family="monospace" font-size="14.00">EX_LetObj</text>
<text text-anchor="start" x="903.5" y="-969.3" font-family="monospace" font-size="14.00">  EX_LocalVariable [CallFunc_GetFSDGameInstance_ReturnValue_1]</text>
<text text-anchor="start" x="903.5" y="-954.3" font-family="monospace" font-size="14.00">  EX_CallMath import /Script/FSD&#45;&gt;GameFunctionLibrary&#45;&gt;GetFSDGameInstance</text>
<text text-anchor="start" x="903.5" y="-939.3" font-family="monospace" font-size="14.00">    EX_Self</text>
</g>
<!-- ExecuteUbergraph_Tutorial_Hint_LowO2__76&#45;&gt;ExecuteUbergraph_Tutorial_Hint_LowO2__90 -->
<g id="edge8" class="edge">
<title>ExecuteUbergraph_Tutorial_Hint_LowO2__76&#45;&gt;ExecuteUbergraph_Tutorial_Hint_LowO2__90</title>
<path fill="none" stroke="black" d="M1531.16,-1081.56C1474.45,-1061.56 1381.21,-1028.66 1308.91,-1003.16"/>
<polygon fill="black" stroke="black" points="1310.42,-999.98 1299.83,-999.95 1308.1,-1006.58 1310.42,-999.98"/>
<text text-anchor="middle" x="1479.5" y="-1051.8" font-family="monospace" font-size="14.00">IF</text>
</g>
<!-- ExecuteUbergraph_Tutorial_Hint_LowO2__192 -->
<g id="node16" class="node">
<title>ExecuteUbergraph_Tutorial_Hint_LowO2__192</title>
<polygon fill="#eeeeee" stroke="black" points="1533,-901.5 1533,-1029.5 2053,-1029.5 2053,-901.5 1533,-901.5"/>
<text text-anchor="start" x="1541" y="-1014.3" font-family="monospace" font-size="14.00">EX_CallMath import /Script/Engine&#45;&gt;KismetSystemLibrary&#45;&gt;Delay</text>
<text text-anchor="start" x="1541" y="-999.3" font-family="monospace" font-size="14.00">  EX_Self</text>
<text text-anchor="start" x="1541" y="-984.3" font-family="monospace" font-size="14.00">  EX_FloatConst 1</text>
<text text-anchor="start" x="1541" y="-969.3" font-family="monospace" font-size="14.00">  EX_StructConst import /Script/Engine&#45;&gt;LatentActionInfo</text>
<text text-anchor="start" x="1541" y="-954.3" font-family="monospace" font-size="14.00">    EX_SkipOffsetConst 26</text>
<text text-anchor="start" x="1541" y="-939.3" font-family="monospace" font-size="14.00">    EX_IntConst &#45;354741653</text>
<text text-anchor="start" x="1541" y="-924.3" font-family="monospace" font-size="14.00">    EX_NameConst ExecuteUbergraph_Tutorial_Hint_LowO2</text>
<text text-anchor="start" x="1541" y="-909.3" font-family="monospace" font-size="14.00">    EX_Self</text>
</g>
<!-- ExecuteUbergraph_Tutorial_Hint_LowO2__76&#45;&gt;ExecuteUbergraph_Tutorial_Hint_LowO2__192 -->
<g id="edge7" class="edge">
<title>ExecuteUbergraph_Tutorial_Hint_LowO2__76:e&#45;&gt;ExecuteUbergraph_Tutorial_Hint_LowO2__192</title>
<path fill="none" stroke="red" d="M1794,-1100.5C1821.78,-1100.5 1823.43,-1071.34 1817.27,-1040.23"/>
<polygon fill="none" stroke="red" points="1820.73,-1039.66 1815.13,-1030.66 1813.9,-1041.18 1820.73,-1039.66"/>
<text text-anchor="middle" x="1845" y="-1051.8" font-family="monospace" font-size="14.00">IF NOT</text>
</g>
<!-- ExecuteUbergraph_Tutorial_Hint_LowO2__111 -->
<g id="node11" class="node">
<title>ExecuteUbergraph_Tutorial_Hint_LowO2__111</title>
<polygon fill="#eeeeee" stroke="black" points="895.5,-750.5 895.5,-863.5 1514.5,-863.5 1514.5,-750.5 895.5,-750.5"/>
<text text-anchor="start" x="903.5" y="-848.3" font-family="monospace" font-size="14.00">EX_LetBool</text>
<text text-anchor="start" x="903.5" y="-833.3" font-family="monospace" font-size="14.00">  EX_LocalVariable [CallFunc_IsMutatorActive_ReturnValue]</text>
<text text-anchor="start" x="903.5" y="-818.3" font-family="monospace" font-size="14.00">  EX_Context</text>
<text text-anchor="start" x="903.5" y="-803.3" font-family="monospace" font-size="14.00">    EX_LocalVariable [CallFunc_GetFSDGameInstance_ReturnValue_1]</text>
<text text-anchor="start" x="903.5" y="-788.3" font-family="monospace" font-size="14.00">    EX_FinalFunction import /Script/FSD&#45;&gt;FSDGameInstance&#45;&gt;IsMutatorActive</text>
<text text-anchor="start" x="903.5" y="-773.3" font-family="monospace" font-size="14.00">      EX_ObjectConst import /Script/FSD&#45;&gt;NoOxygenMutator</text>
<text text-anchor="start" x="903.5" y="-758.3" font-family="monospace" font-size="14.00">    RValue = [CallFunc_IsMutatorActive_ReturnValue]</text>
</g>
<!-- ExecuteUbergraph_Tutorial_Hint_LowO2__90&#45;&gt;ExecuteUbergraph_Tutorial_Hint_LowO2__111 -->
<g id="edge9" class="edge">
<title>ExecuteUbergraph_Tutorial_Hint_LowO2__90&#45;&gt;ExecuteUbergraph_Tutorial_Hint_LowO2__111</title>
<path fill="none" stroke="black" d="M1205,-931.69C1205,-915.13 1205,-894.42 1205,-874.71"/>
<polygon fill="black" stroke="black" points="1208.5,-874.77 1205,-864.77 1201.5,-874.77 1208.5,-874.77"/>
</g>
<!-- ExecuteUbergraph_Tutorial_Hint_LowO2__162 -->
<g id="node12" class="node">
<title>ExecuteUbergraph_Tutorial_Hint_LowO2__162</title>
<polygon fill="#eeeeee" stroke="black" points="961.5,-674.5 961.5,-712.5 1448.5,-712.5 1448.5,-674.5 961.5,-674.5"/>
<text text-anchor="start" x="969.5" y="-697.3" font-family="monospace" font-size="14.00">EX_PopExecutionFlowIfNot</text>
<text text-anchor="start" x="969.5" y="-682.3" font-family="monospace" font-size="14.00">  EX_LocalVariable [CallFunc_IsMutatorActive_ReturnValue]</text>
</g>
<!-- ExecuteUbergraph_Tutorial_Hint_LowO2__111&#45;&gt;ExecuteUbergraph_Tutorial_Hint_LowO2__162 -->
<g id="edge10" class="edge">
<title>ExecuteUbergraph_Tutorial_Hint_LowO2__111&#45;&gt;ExecuteUbergraph_Tutorial_Hint_LowO2__162</title>
<path fill="none" stroke="black" d="M1205,-750.58C1205,-741.25 1205,-731.91 1205,-723.6"/>
<polygon fill="black" stroke="black" points="1208.5,-723.81 1205,-713.81 1201.5,-723.81 1208.5,-723.81"/>
</g>
<!-- ExecuteUbergraph_Tutorial_Hint_LowO2__172 -->
<g id="node13" class="node">
<title>ExecuteUbergraph_Tutorial_Hint_LowO2__172</title>
<polygon fill="#eeeeee" stroke="black" points="1097.5,-600.5 1097.5,-636.5 1312.5,-636.5 1312.5,-600.5 1097.5,-600.5"/>
<text text-anchor="start" x="1105.5" y="-614.8" font-family="monospace" font-size="14.00">EX_PushExecutionFlow 247</text>
</g>
<!-- ExecuteUbergraph_Tutorial_Hint_LowO2__162&#45;&gt;ExecuteUbergraph_Tutorial_Hint_LowO2__172 -->
<g id="edge11" class="edge">
<title>ExecuteUbergraph_Tutorial_Hint_LowO2__162&#45;&gt;ExecuteUbergraph_Tutorial_Hint_LowO2__172</title>
<path fill="none" stroke="black" d="M1205,-674.83C1205,-666.61 1205,-656.65 1205,-647.45"/>
<polygon fill="black" stroke="black" points="1208.5,-647.52 1205,-637.52 1201.5,-647.52 1208.5,-647.52"/>
</g>
<!-- ExecuteUbergraph_Tutorial_Hint_LowO2__177 -->
<g id="node14" class="node">
<title>ExecuteUbergraph_Tutorial_Hint_LowO2__177</title>
<polygon fill="#eeeeee" stroke="black" points="630,-510.5 630,-548.5 1092,-548.5 1092,-510.5 630,-510.5"/>
<text text-anchor="start" x="638" y="-533.3" font-family="monospace" font-size="14.00">EX_JumpIfNot 333</text>
<text text-anchor="start" x="638" y="-518.3" font-family="monospace" font-size="14.00">  EX_LocalVariable [Temp_bool_Has_Been_Initd_Variable]</text>
</g>
<!-- ExecuteUbergraph_Tutorial_Hint_LowO2__172&#45;&gt;ExecuteUbergraph_Tutorial_Hint_LowO2__177 -->
<g id="edge13" class="edge">
<title>ExecuteUbergraph_Tutorial_Hint_LowO2__172&#45;&gt;ExecuteUbergraph_Tutorial_Hint_LowO2__177</title>
<path fill="none" stroke="black" d="M1137.86,-600.52C1082.08,-586.41 1002.52,-566.29 942.99,-551.24"/>
<polygon fill="black" stroke="black" points="944.14,-547.92 933.59,-548.86 942.42,-554.7 944.14,-547.92"/>
</g>
<!-- ExecuteUbergraph_Tutorial_Hint_LowO2__247 -->
<g id="node18" class="node">
<title>ExecuteUbergraph_Tutorial_Hint_LowO2__247</title>
<polygon fill="#eeeeee" stroke="black" points="1221.5,-510.5 1221.5,-548.5 1634.5,-548.5 1634.5,-510.5 1221.5,-510.5"/>
<text text-anchor="start" x="1229.5" y="-533.3" font-family="monospace" font-size="14.00">EX_JumpIfNot 262</text>
<text text-anchor="start" x="1229.5" y="-518.3" font-family="monospace" font-size="14.00">  EX_LocalVariable [Temp_bool_IsClosed_Variable]</text>
</g>
<!-- ExecuteUbergraph_Tutorial_Hint_LowO2__172&#45;&gt;ExecuteUbergraph_Tutorial_Hint_LowO2__247 -->
<g id="edge12" class="edge">
<title>ExecuteUbergraph_Tutorial_Hint_LowO2__172:e&#45;&gt;ExecuteUbergraph_Tutorial_Hint_LowO2__247</title>
<path fill="none" stroke="red" d="M1314,-618.5C1354.53,-618.5 1389.44,-583.22 1409.59,-557.34"/>
<polygon fill="none" stroke="red" points="1412.25,-559.63 1415.43,-549.52 1406.64,-555.44 1412.25,-559.63"/>
<text text-anchor="middle" x="1441.5" y="-570.8" font-family="monospace" font-size="14.00">PUSH STACK</text>
</g>
<!-- ExecuteUbergraph_Tutorial_Hint_LowO2__191 -->
<g id="node15" class="node">
<title>ExecuteUbergraph_Tutorial_Hint_LowO2__191</title>
<polygon fill="#eeeeee" stroke="black" points="669.5,-414 669.5,-450 842.5,-450 842.5,-414 669.5,-414"/>
<text text-anchor="start" x="677.5" y="-428.3" font-family="monospace" font-size="14.00">EX_PopExecutionFlow</text>
</g>
<!-- ExecuteUbergraph_Tutorial_Hint_LowO2__177&#45;&gt;ExecuteUbergraph_Tutorial_Hint_LowO2__191 -->
<g id="edge15" class="edge">
<title>ExecuteUbergraph_Tutorial_Hint_LowO2__177&#45;&gt;ExecuteUbergraph_Tutorial_Hint_LowO2__191</title>
<path fill="none" stroke="black" d="M841.25,-510.54C824.81,-495.59 801.24,-474.15 783.05,-457.6"/>
<polygon fill="black" stroke="black" points="785.48,-455.08 775.72,-450.94 780.77,-460.26 785.48,-455.08"/>
<text text-anchor="middle" x="826.5" y="-480.8" font-family="monospace" font-size="14.00">IF</text>
</g>
<!-- ExecuteUbergraph_Tutorial_Hint_LowO2__333 -->
<g id="node24" class="node">
<title>ExecuteUbergraph_Tutorial_Hint_LowO2__333</title>
<polygon fill="#eeeeee" stroke="black" points="861,-405.5 861,-458.5 1323,-458.5 1323,-405.5 861,-405.5"/>
<text text-anchor="start" x="869" y="-443.3" font-family="monospace" font-size="14.00">EX_LetBool</text>
<text text-anchor="start" x="869" y="-428.3" font-family="monospace" font-size="14.00">  EX_LocalVariable [Temp_bool_Has_Been_Initd_Variable]</text>
<text text-anchor="start" x="869" y="-413.3" font-family="monospace" font-size="14.00">  EX_True</text>
</g>
<!-- ExecuteUbergraph_Tutorial_Hint_LowO2__177&#45;&gt;ExecuteUbergraph_Tutorial_Hint_LowO2__333 -->
<g id="edge14" class="edge">
<title>ExecuteUbergraph_Tutorial_Hint_LowO2__177:e&#45;&gt;ExecuteUbergraph_Tutorial_Hint_LowO2__333</title>
<path fill="none" stroke="red" d="M1093,-529.5C1118.03,-529.5 1113.5,-496.63 1105.39,-469.25"/>
<polygon fill="none" stroke="red" points="1108.75,-468.25 1102.37,-459.8 1102.08,-470.39 1108.75,-468.25"/>
<text text-anchor="middle" x="1136" y="-480.8" font-family="monospace" font-size="14.00">IF NOT</text>
</g>
<!-- ExecuteUbergraph_Tutorial_Hint_LowO2__192&#45;&gt;ExecuteUbergraph_Tutorial_Hint_LowO2__26 -->
<g id="edge16" class="edge">
<title>ExecuteUbergraph_Tutorial_Hint_LowO2__192:e&#45;&gt;ExecuteUbergraph_Tutorial_Hint_LowO2__26</title>
<path fill="none" stroke="red" d="M2054,-965.5C2173.01,-965.5 2066.47,-1133.16 1992,-1226 1982.27,-1238.13 1969.86,-1248.56 1956.67,-1257.4"/>
<polygon fill="none" stroke="red" points="1954.81,-1254.44 1948.24,-1262.75 1958.56,-1260.35 1954.81,-1254.44"/>
</g>
<!-- ExecuteUbergraph_Tutorial_Hint_LowO2__246 -->
<g id="node17" class="node">
<title>ExecuteUbergraph_Tutorial_Hint_LowO2__246</title>
<polygon fill="#eeeeee" stroke="black" points="1706.5,-789 1706.5,-825 1879.5,-825 1879.5,-789 1706.5,-789"/>
<text text-anchor="start" x="1714.5" y="-803.3" font-family="monospace" font-size="14.00">EX_PopExecutionFlow</text>
</g>
<!-- ExecuteUbergraph_Tutorial_Hint_LowO2__192&#45;&gt;ExecuteUbergraph_Tutorial_Hint_LowO2__246 -->
<g id="edge17" class="edge">
<title>ExecuteUbergraph_Tutorial_Hint_LowO2__192&#45;&gt;ExecuteUbergraph_Tutorial_Hint_LowO2__246</title>
<path fill="none" stroke="black" d="M1793,-901.75C1793,-878.98 1793,-854.38 1793,-836.1"/>
<polygon fill="black" stroke="black" points="1796.5,-836.33 1793,-826.33 1789.5,-836.33 1796.5,-836.33"/>
</g>
<!-- ExecuteUbergraph_Tutorial_Hint_LowO2__261 -->
<g id="node19" class="node">
<title>ExecuteUbergraph_Tutorial_Hint_LowO2__261</title>
<polygon fill="#eeeeee" stroke="black" points="1341.5,-414 1341.5,-450 1514.5,-450 1514.5,-414 1341.5,-414"/>
<text text-anchor="start" x="1349.5" y="-428.3" font-family="monospace" font-size="14.00">EX_PopExecutionFlow</text>
</g>
<!-- ExecuteUbergraph_Tutorial_Hint_LowO2__247&#45;&gt;ExecuteUbergraph_Tutorial_Hint_LowO2__261 -->
<g id="edge19" class="edge">
<title>ExecuteUbergraph_Tutorial_Hint_LowO2__247&#45;&gt;ExecuteUbergraph_Tutorial_Hint_LowO2__261</title>
<path fill="none" stroke="black" d="M1428,-510.54C1428,-496.67 1428,-477.23 1428,-461.28"/>
<polygon fill="black" stroke="black" points="1431.5,-461.43 1428,-451.43 1424.5,-461.43 1431.5,-461.43"/>
<text text-anchor="middle" x="1436.5" y="-480.8" font-family="monospace" font-size="14.00">IF</text>
</g>
<!-- ExecuteUbergraph_Tutorial_Hint_LowO2__262 -->
<g id="node20" class="node">
<title>ExecuteUbergraph_Tutorial_Hint_LowO2__262</title>
<polygon fill="#eeeeee" stroke="black" points="1532.5,-405.5 1532.5,-458.5 1945.5,-458.5 1945.5,-405.5 1532.5,-405.5"/>
<text text-anchor="start" x="1540.5" y="-443.3" font-family="monospace" font-size="14.00">EX_LetBool</text>
<text text-anchor="start" x="1540.5" y="-428.3" font-family="monospace" font-size="14.00">  EX_LocalVariable [Temp_bool_IsClosed_Variable]</text>
<text text-anchor="start" x="1540.5" y="-413.3" font-family="monospace" font-size="14.00">  EX_True</text>
</g>
<!-- ExecuteUbergraph_Tutorial_Hint_LowO2__247&#45;&gt;ExecuteUbergraph_Tutorial_Hint_LowO2__262 -->
<g id="edge18" class="edge">
<title>ExecuteUbergraph_Tutorial_Hint_LowO2__247:e&#45;&gt;ExecuteUbergraph_Tutorial_Hint_LowO2__262</title>
<path fill="none" stroke="red" d="M1636,-529.5C1673.1,-529.5 1702.34,-495.75 1720.05,-468.16"/>
<polygon fill="none" stroke="red" points="1723.02,-470 1725.25,-459.65 1717.05,-466.35 1723.02,-470"/>
<text text-anchor="middle" x="1738" y="-480.8" font-family="monospace" font-size="14.00">IF NOT</text>
</g>
<!-- ExecuteUbergraph_Tutorial_Hint_LowO2__273 -->
<g id="node21" class="node">
<title>ExecuteUbergraph_Tutorial_Hint_LowO2__273</title>
<polygon fill="#eeeeee" stroke="black" points="1479,-239.5 1479,-367.5 1999,-367.5 1999,-239.5 1479,-239.5"/>
<text text-anchor="start" x="1487" y="-352.3" font-family="monospace" font-size="14.00">EX_CallMath import /Script/Engine&#45;&gt;KismetSystemLibrary&#45;&gt;Delay</text>
<text text-anchor="start" x="1487" y="-337.3" font-family="monospace" font-size="14.00">  EX_Self</text>
<text text-anchor="start" x="1487" y="-322.3" font-family="monospace" font-size="14.00">  EX_FloatConst 17</text>
<text text-anchor="start" x="1487" y="-307.3" font-family="monospace" font-size="14.00">  EX_StructConst import /Script/Engine&#45;&gt;LatentActionInfo</text>
<text text-anchor="start" x="1487" y="-292.3" font-family="monospace" font-size="14.00">    EX_SkipOffsetConst 328</text>
<text text-anchor="start" x="1487" y="-277.3" font-family="monospace" font-size="14.00">    EX_IntConst 1482941204</text>
<text text-anchor="start" x="1487" y="-262.3" font-family="monospace" font-size="14.00">    EX_NameConst ExecuteUbergraph_Tutorial_Hint_LowO2</text>
<text text-anchor="start" x="1487" y="-247.3" font-family="monospace" font-size="14.00">    EX_Self</text>
</g>
<!-- ExecuteUbergraph_Tutorial_Hint_LowO2__262&#45;&gt;ExecuteUbergraph_Tutorial_Hint_LowO2__273 -->
<g id="edge20" class="edge">
<title>ExecuteUbergraph_Tutorial_Hint_LowO2__262&#45;&gt;ExecuteUbergraph_Tutorial_Hint_LowO2__273</title>
<path fill="none" stroke="black" d="M1739,-405.7C1739,-397.72 1739,-388.46 1739,-378.85"/>
<polygon fill="black" stroke="black" points="1742.5,-378.97 1739,-368.97 1735.5,-378.97 1742.5,-378.97"/>
</g>
<!-- ExecuteUbergraph_Tutorial_Hint_LowO2__327 -->
<g id="node22" class="node">
<title>ExecuteUbergraph_Tutorial_Hint_LowO2__327</title>
<polygon fill="#eeeeee" stroke="black" points="1652.5,-157 1652.5,-193 1825.5,-193 1825.5,-157 1652.5,-157"/>
<text text-anchor="start" x="1660.5" y="-171.3" font-family="monospace" font-size="14.00">EX_PopExecutionFlow</text>
</g>
<!-- ExecuteUbergraph_Tutorial_Hint_LowO2__273&#45;&gt;ExecuteUbergraph_Tutorial_Hint_LowO2__327 -->
<g id="edge22" class="edge">
<title>ExecuteUbergraph_Tutorial_Hint_LowO2__273&#45;&gt;ExecuteUbergraph_Tutorial_Hint_LowO2__327</title>
<path fill="none" stroke="black" d="M1739,-239.62C1739,-227.23 1739,-214.82 1739,-204.3"/>
<polygon fill="black" stroke="black" points="1742.5,-204.43 1739,-194.43 1735.5,-204.43 1742.5,-204.43"/>
</g>
<!-- ExecuteUbergraph_Tutorial_Hint_LowO2__328 -->
<g id="node23" class="node">
<title>ExecuteUbergraph_Tutorial_Hint_LowO2__328</title>
<polygon fill="#eeeeee" stroke="black" points="1949.5,-157 1949.5,-193 2048.5,-193 2048.5,-157 1949.5,-157"/>
<text text-anchor="start" x="1957.5" y="-171.3" font-family="monospace" font-size="14.00">EX_Jump 15</text>
</g>
<!-- ExecuteUbergraph_Tutorial_Hint_LowO2__273&#45;&gt;ExecuteUbergraph_Tutorial_Hint_LowO2__328 -->
<g id="edge21" class="edge">
<title>ExecuteUbergraph_Tutorial_Hint_LowO2__273:e&#45;&gt;ExecuteUbergraph_Tutorial_Hint_LowO2__328</title>
<path fill="none" stroke="red" d="M2000,-303.5C2039.62,-303.5 2023.35,-241.18 2009.97,-203.68"/>
<polygon fill="none" stroke="red" points="2013.27,-202.5 2006.51,-194.35 2006.71,-204.94 2013.27,-202.5"/>
</g>
<!-- ExecuteUbergraph_Tutorial_Hint_LowO2__328&#45;&gt;ExecuteUbergraph_Tutorial_Hint_LowO2__15 -->
<g id="edge23" class="edge">
<title>ExecuteUbergraph_Tutorial_Hint_LowO2__328&#45;&gt;ExecuteUbergraph_Tutorial_Hint_LowO2__15</title>
<path fill="none" stroke="black" d="M1999,-157.32C1999,-147.03 1999,-133.56 1999,-121.65"/>
<polygon fill="black" stroke="black" points="2002.5,-121.95 1999,-111.95 1995.5,-121.95 2002.5,-121.95"/>
</g>
<!-- ExecuteUbergraph_Tutorial_Hint_LowO2__344 -->
<g id="node25" class="node">
<title>ExecuteUbergraph_Tutorial_Hint_LowO2__344</title>
<polygon fill="#eeeeee" stroke="black" points="984.5,-284.5 984.5,-322.5 1199.5,-322.5 1199.5,-284.5 984.5,-284.5"/>
<text text-anchor="start" x="992.5" y="-307.3" font-family="monospace" font-size="14.00">EX_PopExecutionFlowIfNot</text>
<text text-anchor="start" x="992.5" y="-292.3" font-family="monospace" font-size="14.00">  EX_False</text>
</g>
<!-- ExecuteUbergraph_Tutorial_Hint_LowO2__333&#45;&gt;ExecuteUbergraph_Tutorial_Hint_LowO2__344 -->
<g id="edge24" class="edge">
<title>ExecuteUbergraph_Tutorial_Hint_LowO2__333&#45;&gt;ExecuteUbergraph_Tutorial_Hint_LowO2__344</title>
<path fill="none" stroke="black" d="M1092,-405.7C1092,-385 1092,-355.67 1092,-333.92"/>
<polygon fill="black" stroke="black" points="1095.5,-333.92 1092,-323.92 1088.5,-333.92 1095.5,-333.92"/>
</g>
<!-- ExecuteUbergraph_Tutorial_Hint_LowO2__346 -->
<g id="node26" class="node">
<title>ExecuteUbergraph_Tutorial_Hint_LowO2__346</title>
<polygon fill="#eeeeee" stroke="black" points="885.5,-148.5 885.5,-201.5 1298.5,-201.5 1298.5,-148.5 885.5,-148.5"/>
<text text-anchor="start" x="893.5" y="-186.3" font-family="monospace" font-size="14.00">EX_LetBool</text>
<text text-anchor="start" x="893.5" y="-171.3" font-family="monospace" font-size="14.00">  EX_LocalVariable [Temp_bool_IsClosed_Variable]</text>
<text text-anchor="start" x="893.5" y="-156.3" font-family="monospace" font-size="14.00">  EX_True</text>
</g>
<!-- ExecuteUbergraph_Tutorial_Hint_LowO2__344&#45;&gt;ExecuteUbergraph_Tutorial_Hint_LowO2__346 -->
<g id="edge25" class="edge">
<title>ExecuteUbergraph_Tutorial_Hint_LowO2__344&#45;&gt;ExecuteUbergraph_Tutorial_Hint_LowO2__346</title>
<path fill="none" stroke="black" d="M1092,-284.64C1092,-266 1092,-236.23 1092,-212.57"/>
<polygon fill="black" stroke="black" points="1095.5,-212.69 1092,-202.69 1088.5,-212.7 1095.5,-212.69"/>
</g>
<!-- ExecuteUbergraph_Tutorial_Hint_LowO2__357 -->
<g id="node27" class="node">
<title>ExecuteUbergraph_Tutorial_Hint_LowO2__357</title>
<polygon fill="#eeeeee" stroke="black" points="1005.5,-74.5 1005.5,-110.5 1178.5,-110.5 1178.5,-74.5 1005.5,-74.5"/>
<text text-anchor="start" x="1013.5" y="-88.8" font-family="monospace" font-size="14.00">EX_PopExecutionFlow</text>
</g>
<!-- ExecuteUbergraph_Tutorial_Hint_LowO2__346&#45;&gt;ExecuteUbergraph_Tutorial_Hint_LowO2__357 -->
<g id="edge26" class="edge">
<title>ExecuteUbergraph_Tutorial_Hint_LowO2__346&#45;&gt;ExecuteUbergraph_Tutorial_Hint_LowO2__357</title>
<path fill="none" stroke="black" d="M1092,-148.53C1092,-139.92 1092,-130.25 1092,-121.46"/>
<polygon fill="black" stroke="black" points="1095.5,-121.69 1092,-111.69 1088.5,-121.69 1095.5,-121.69"/>
</g>
<!-- ExecuteUbergraph_Tutorial_Hint_LowO2__358 -->
<g id="node28" class="node">
<title>ExecuteUbergraph_Tutorial_Hint_LowO2__358</title>
<polygon fill="#eeeeee" stroke="black" points="1819.5,-1370.5 1819.5,-1406.5 1918.5,-1406.5 1918.5,-1370.5 1819.5,-1370.5"/>
<text text-anchor="start" x="1827.5" y="-1384.8" font-family="monospace" font-size="14.00">EX_Jump 26</text>
</g>
<!-- ExecuteUbergraph_Tutorial_Hint_LowO2__358&#45;&gt;ExecuteUbergraph_Tutorial_Hint_LowO2__26 -->
<g id="edge27" class="edge">
<title>ExecuteUbergraph_Tutorial_Hint_LowO2__358&#45;&gt;ExecuteUbergraph_Tutorial_Hint_LowO2__26</title>
<path fill="none" stroke="black" d="M1869,-1370.76C1869,-1362.71 1869,-1352.65 1869,-1342.61"/>
<polygon fill="black" stroke="black" points="1872.5,-1342.9 1869,-1332.9 1865.5,-1342.9 1872.5,-1342.9"/>
</g>
<!-- ExecuteUbergraph_Tutorial_Hint_LowO2__365 -->
<g id="node30" class="node">
<title>ExecuteUbergraph_Tutorial_Hint_LowO2__365</title>
<polygon fill="#eeeeee" stroke="black" points="1512,-1538.5 1512,-1574.5 1644,-1574.5 1644,-1538.5 1512,-1538.5"/>
<text text-anchor="start" x="1520" y="-1552.8" font-family="monospace" font-size="14.00">EX_EndOfScript</text>
</g>
<!-- ReceiveOnInitialized -->
<g id="node31" class="node">
<title>ReceiveOnInitialized</title>
<polygon fill="#ff8888" stroke="black" points="1369,-1677 1369,-1713 1625,-1713 1625,-1677 1369,-1677"/>
<text text-anchor="start" x="1377" y="-1691.3" font-family="monospace" font-size="14.00">Function ReceiveOnInitialized</text>
</g>
<!-- ReceiveOnInitialized__0 -->
<g id="node32" class="node">
<title>ReceiveOnInitialized__0</title>
<polygon fill="#eeeeee" stroke="black" points="1125.5,-1481.5 1125.5,-1519.5 1868.5,-1519.5 1868.5,-1481.5 1125.5,-1481.5"/>
<text text-anchor="start" x="1133.5" y="-1504.3" font-family="monospace" font-size="14.00">EX_LocalFinalFunction export Tutorial_Hint_LowO2_C&#45;&gt;ExecuteUbergraph_Tutorial_Hint_LowO2</text>
<text text-anchor="start" x="1133.5" y="-1489.3" font-family="monospace" font-size="14.00">  EX_IntConst 358</text>
</g>
<!-- ReceiveOnInitialized&#45;&gt;ReceiveOnInitialized__0 -->
<g id="edge28" class="edge">
<title>ReceiveOnInitialized&#45;&gt;ReceiveOnInitialized__0</title>
<path fill="none" stroke="black" d="M1497,-1677.25C1497,-1644.52 1497,-1571.7 1497,-1530.81"/>
<polygon fill="black" stroke="black" points="1500.5,-1530.97 1497,-1520.97 1493.5,-1530.97 1500.5,-1530.97"/>
</g>
<!-- ReceiveOnInitialized__0&#45;&gt;ExecuteUbergraph_Tutorial_Hint_LowO2__358 -->
<g id="edge29" class="edge">
<title>ReceiveOnInitialized__0:e&#45;&gt;ExecuteUbergraph_Tutorial_Hint_LowO2__358</title>
<path fill="none" stroke="red" d="M1870,-1500.5C1886.56,-1500.5 1880.43,-1450.46 1874.62,-1417.57"/>
<polygon fill="none" stroke="red" points="1878.08,-1417.04 1872.81,-1407.85 1871.2,-1418.32 1878.08,-1417.04"/>
</g>
<!-- ReceiveOnInitialized__15 -->
<g id="node33" class="node">
<title>ReceiveOnInitialized__15</title>
<polygon fill="#eeeeee" stroke="black" points="1439,-1369.5 1439,-1407.5 1555,-1407.5 1555,-1369.5 1439,-1369.5"/>
<text text-anchor="start" x="1447" y="-1392.3" font-family="monospace" font-size="14.00">EX_Return</text>
<text text-anchor="start" x="1447" y="-1377.3" font-family="monospace" font-size="14.00">  EX_Nothing</text>
</g>
<!-- ReceiveOnInitialized__0&#45;&gt;ReceiveOnInitialized__15 -->
<g id="edge30" class="edge">
<title>ReceiveOnInitialized__0&#45;&gt;ReceiveOnInitialized__15</title>
<path fill="none" stroke="black" d="M1497,-1481.83C1497,-1464.85 1497,-1438.88 1497,-1418.81"/>
<polygon fill="black" stroke="black" points="1500.5,-1419.01 1497,-1409.01 1493.5,-1419.01 1500.5,-1419.01"/>
</g>
<!-- ReceiveOnInitialized__17 -->
<g id="node34" class="node">
<title>ReceiveOnInitialized__17</title>
<polygon fill="#eeeeee" stroke="black" points="1884,-1426.5 1884,-1462.5 2016,-1462.5 2016,-1426.5 1884,-1426.5"/>
<text text-anchor="start" x="1892" y="-1440.8" font-family="monospace" font-size="14.00">EX_EndOfScript</text>
</g>
</g>
</svg>
