<?xml version="1.0" encoding="UTF-8" standalone="no"?>
<!DOCTYPE svg PUBLIC "-//W3C//DTD SVG 1.1//EN"
 "http://www.w3.org/Graphics/SVG/1.1/DTD/svg11.dtd">
<!-- Generated by graphviz version 7.0.1 (0)
 -->
<!-- Pages: 1 -->
<svg width="2475pt" height="2016pt"
 viewBox="0.00 0.00 2475.00 2016.00" xmlns="http://www.w3.org/2000/svg" xmlns:xlink="http://www.w3.org/1999/xlink">
<g id="graph0" class="graph" transform="scale(1 1) rotate(0) translate(4 2012)">
<polygon fill="white" stroke="none" points="-4,4 -4,-2012 2471,-2012 2471,4 -4,4"/>
<!-- Tutorial_Hint_PlagueWarning_Start_C -->
<g id="node1" class="node">
<title>Tutorial_Hint_PlagueWarning_Start_C</title>
<polygon fill="#88ff88" stroke="black" points="0,-1804.5 0,-2007.5 734,-2007.5 734,-1804.5 0,-1804.5"/>
<text text-anchor="start" x="8" y="-1992.3" font-family="monospace" font-size="14.00">ClassExport: Tutorial_Hint_PlagueWarning_Start_C</text>
<text text-anchor="start" x="8" y="-1977.3" font-family="monospace" font-size="14.00">  SuperStruct: import /Script/FSD&#45;&gt;TutorialHintComponent</text>
<text text-anchor="start" x="8" y="-1962.3" font-family="monospace" font-size="14.00">  Properties:</text>
<text text-anchor="start" x="8" y="-1947.3" font-family="monospace" font-size="14.00">    StructProperty UberGraphFrame</text>
<text text-anchor="start" x="8" y="-1932.3" font-family="monospace" font-size="14.00">      CPF_Transient|CPF_DuplicateTransient</text>
<text text-anchor="start" x="8" y="-1917.3" font-family="monospace" font-size="14.00">    FloatProperty AccumilatedDamage</text>
<text text-anchor="start" x="8" y="-1902.3" font-family="monospace" font-size="14.00">      CPF_Edit|CPF_BlueprintVisible|CPF_DisableEditOnInstance</text>
<text text-anchor="start" x="8" y="-1887.3" font-family="monospace" font-size="14.00">    FloatProperty TotalDamageBeforeShowingHint</text>
<text text-anchor="start" x="8" y="-1872.3" font-family="monospace" font-size="14.00">      CPF_Edit|CPF_BlueprintVisible|CPF_DisableEditOnInstance</text>
<text text-anchor="start" x="8" y="-1857.3" font-family="monospace" font-size="14.00">    ObjectProperty Drilldozer</text>
<text text-anchor="start" x="8" y="-1842.3" font-family="monospace" font-size="14.00">      CPF_Edit|CPF_BlueprintVisible|CPF_DisableEditOnTemplate|CPF_DisableEditOnInstance</text>
<text text-anchor="start" x="8" y="-1827.3" font-family="monospace" font-size="14.00">    ObjectProperty DrilldozerHealth</text>
<text text-anchor="start" x="8" y="-1812.3" font-family="monospace" font-size="14.00">      CPF_Edit|CPF_BlueprintVisible|CPF_DisableEditOnInstance|CPF_InstancedReference</text>
</g>
<!-- ExecuteUbergraph_Tutorial_Hint_PlagueWarning_Start -->
<g id="node2" class="node">
<title>ExecuteUbergraph_Tutorial_Hint_PlagueWarning_Start</title>
<polygon fill="#ff8888" stroke="black" points="752.5,-1819.5 752.5,-1992.5 1255.5,-1992.5 1255.5,-1819.5 752.5,-1819.5"/>
<text text-anchor="start" x="760.5" y="-1977.3" font-family="monospace" font-size="14.00">Function ExecuteUbergraph_Tutorial_Hint_PlagueWarning_Start</text>
<text text-anchor="start" x="760.5" y="-1962.3" font-family="monospace" font-size="14.00">  IntProperty EntryPoint</text>
<text text-anchor="start" x="760.5" y="-1947.3" font-family="monospace" font-size="14.00">    CPF_BlueprintVisible|CPF_BlueprintReadOnly|CPF_Parm</text>
<text text-anchor="start" x="760.5" y="-1932.3" font-family="monospace" font-size="14.00">  ObjectProperty Temp_object_Variable</text>
<text text-anchor="start" x="760.5" y="-1917.3" font-family="monospace" font-size="14.00">    CPF_ConstParm</text>
<text text-anchor="start" x="760.5" y="-1902.3" font-family="monospace" font-size="14.00">  BoolProperty Temp_bool_Has_Been_Initd_Variable</text>
<text text-anchor="start" x="760.5" y="-1887.3" font-family="monospace" font-size="14.00">  BoolProperty Temp_bool_IsClosed_Variable</text>
<text text-anchor="start" x="760.5" y="-1872.3" font-family="monospace" font-size="14.00">  ObjectProperty CallFunc_GetFSDGameInstance_ReturnValue</text>
<text text-anchor="start" x="760.5" y="-1857.3" font-family="monospace" font-size="14.00">  BoolProperty CallFunc_IsValid_ReturnValue</text>
<text text-anchor="start" x="760.5" y="-1842.3" font-family="monospace" font-size="14.00">  ObjectProperty CallFunc_GetFSDGameInstance_ReturnValue_1</text>
<text text-anchor="start" x="760.5" y="-1827.3" font-family="monospace" font-size="14.00">  BoolProperty CallFunc_Array_Contains_ReturnValue</text>
</g>
<!-- ExecuteUbergraph_Tutorial_Hint_PlagueWarning_Start__0 -->
<g id="node3" class="node">
<title>ExecuteUbergraph_Tutorial_Hint_PlagueWarning_Start__0</title>
<polygon fill="#eeeeee" stroke="black" points="896.5,-1693.5 896.5,-1729.5 1111.5,-1729.5 1111.5,-1693.5 896.5,-1693.5"/>
<text text-anchor="start" x="904.5" y="-1707.8" font-family="monospace" font-size="14.00">EX_PushExecutionFlow 435</text>
</g>
<!-- ExecuteUbergraph_Tutorial_Hint_PlagueWarning_Start&#45;&gt;ExecuteUbergraph_Tutorial_Hint_PlagueWarning_Start__0 -->
<g id="edge1" class="edge">
<title>ExecuteUbergraph_Tutorial_Hint_PlagueWarning_Start&#45;&gt;ExecuteUbergraph_Tutorial_Hint_PlagueWarning_Start__0</title>
<path fill="none" stroke="black" d="M1004,-1819.73C1004,-1791.31 1004,-1761.6 1004,-1740.68"/>
<polygon fill="black" stroke="black" points="1007.5,-1740.97 1004,-1730.97 1000.5,-1740.97 1007.5,-1740.97"/>
</g>
<!-- ExecuteUbergraph_Tutorial_Hint_PlagueWarning_Start__5 -->
<g id="node4" class="node">
<title>ExecuteUbergraph_Tutorial_Hint_PlagueWarning_Start__5</title>
<polygon fill="#eeeeee" stroke="black" points="816,-1580.5 816,-1618.5 1088,-1618.5 1088,-1580.5 816,-1580.5"/>
<text text-anchor="start" x="824" y="-1603.3" font-family="monospace" font-size="14.00">EX_ComputedJump</text>
<text text-anchor="start" x="824" y="-1588.3" font-family="monospace" font-size="14.00">  EX_LocalVariable [EntryPoint]</text>
</g>
<!-- ExecuteUbergraph_Tutorial_Hint_PlagueWarning_Start__0&#45;&gt;ExecuteUbergraph_Tutorial_Hint_PlagueWarning_Start__5 -->
<g id="edge3" class="edge">
<title>ExecuteUbergraph_Tutorial_Hint_PlagueWarning_Start__0&#45;&gt;ExecuteUbergraph_Tutorial_Hint_PlagueWarning_Start__5</title>
<path fill="none" stroke="black" d="M996.1,-1693.79C987.96,-1676.57 975.12,-1649.41 965.39,-1628.83"/>
<polygon fill="black" stroke="black" points="968.58,-1627.38 961.14,-1619.83 962.25,-1630.37 968.58,-1627.38"/>
</g>
<!-- ExecuteUbergraph_Tutorial_Hint_PlagueWarning_Start__435 -->
<g id="node30" class="node">
<title>ExecuteUbergraph_Tutorial_Hint_PlagueWarning_Start__435</title>
<polygon fill="#eeeeee" stroke="black" points="1106,-1580.5 1106,-1618.5 1222,-1618.5 1222,-1580.5 1106,-1580.5"/>
<text text-anchor="start" x="1114" y="-1603.3" font-family="monospace" font-size="14.00">EX_Return</text>
<text text-anchor="start" x="1114" y="-1588.3" font-family="monospace" font-size="14.00">  EX_Nothing</text>
</g>
<!-- ExecuteUbergraph_Tutorial_Hint_PlagueWarning_Start__0&#45;&gt;ExecuteUbergraph_Tutorial_Hint_PlagueWarning_Start__435 -->
<g id="edge2" class="edge">
<title>ExecuteUbergraph_Tutorial_Hint_PlagueWarning_Start__0:e&#45;&gt;ExecuteUbergraph_Tutorial_Hint_PlagueWarning_Start__435</title>
<path fill="none" stroke="red" d="M1113,-1711.5C1122.37,-1711.5 1117.23,-1700.58 1121,-1692 1130.47,-1670.48 1141.8,-1646.42 1150.45,-1628.38"/>
<polygon fill="none" stroke="red" points="1153.49,-1630.15 1154.67,-1619.63 1147.18,-1627.12 1153.49,-1630.15"/>
<text text-anchor="middle" x="1187.5" y="-1651.8" font-family="monospace" font-size="14.00">PUSH STACK</text>
</g>
<!-- ExecuteUbergraph_Tutorial_Hint_PlagueWarning_Start__15 -->
<g id="node5" class="node">
<title>ExecuteUbergraph_Tutorial_Hint_PlagueWarning_Start__15</title>
<polygon fill="#eeeeee" stroke="black" points="1823,-74.5 1823,-110.5 2467,-110.5 2467,-74.5 1823,-74.5"/>
<text text-anchor="start" x="1831" y="-88.8" font-family="monospace" font-size="14.00">EX_FinalFunction import /Script/FSD&#45;&gt;TutorialComponent&#45;&gt;MarkTutorialReadyNow</text>
</g>
<!-- ExecuteUbergraph_Tutorial_Hint_PlagueWarning_Start__25 -->
<g id="node6" class="node">
<title>ExecuteUbergraph_Tutorial_Hint_PlagueWarning_Start__25</title>
<polygon fill="#eeeeee" stroke="black" points="2058.5,-0.5 2058.5,-36.5 2231.5,-36.5 2231.5,-0.5 2058.5,-0.5"/>
<text text-anchor="start" x="2066.5" y="-14.8" font-family="monospace" font-size="14.00">EX_PopExecutionFlow</text>
</g>
<!-- ExecuteUbergraph_Tutorial_Hint_PlagueWarning_Start__15&#45;&gt;ExecuteUbergraph_Tutorial_Hint_PlagueWarning_Start__25 -->
<g id="edge4" class="edge">
<title>ExecuteUbergraph_Tutorial_Hint_PlagueWarning_Start__15&#45;&gt;ExecuteUbergraph_Tutorial_Hint_PlagueWarning_Start__25</title>
<path fill="none" stroke="black" d="M2145,-74.8C2145,-66.71 2145,-56.78 2145,-47.57"/>
<polygon fill="black" stroke="black" points="2148.5,-47.62 2145,-37.62 2141.5,-47.62 2148.5,-47.62"/>
</g>
<!-- ExecuteUbergraph_Tutorial_Hint_PlagueWarning_Start__26 -->
<g id="node7" class="node">
<title>ExecuteUbergraph_Tutorial_Hint_PlagueWarning_Start__26</title>
<polygon fill="#eeeeee" stroke="black" points="1794.5,-1474.5 1794.5,-1542.5 2413.5,-1542.5 2413.5,-1474.5 1794.5,-1474.5"/>
<text text-anchor="start" x="1802.5" y="-1527.3" font-family="monospace" font-size="14.00">EX_LetObj</text>
<text text-anchor="start" x="1802.5" y="-1512.3" font-family="monospace" font-size="14.00">  EX_LocalVariable [CallFunc_GetFSDGameInstance_ReturnValue]</text>
<text text-anchor="start" x="1802.5" y="-1497.3" font-family="monospace" font-size="14.00">  EX_CallMath import /Script/FSD&#45;&gt;GameFunctionLibrary&#45;&gt;GetFSDGameInstance</text>
<text text-anchor="start" x="1802.5" y="-1482.3" font-family="monospace" font-size="14.00">    EX_Self</text>
</g>
<!-- ExecuteUbergraph_Tutorial_Hint_PlagueWarning_Start__47 -->
<g id="node8" class="node">
<title>ExecuteUbergraph_Tutorial_Hint_PlagueWarning_Start__47</title>
<polygon fill="#eeeeee" stroke="black" points="1663.5,-1368.5 1663.5,-1436.5 2216.5,-1436.5 2216.5,-1368.5 1663.5,-1368.5"/>
<text text-anchor="start" x="1671.5" y="-1421.3" font-family="monospace" font-size="14.00">EX_LetBool</text>
<text text-anchor="start" x="1671.5" y="-1406.3" font-family="monospace" font-size="14.00">  EX_LocalVariable [CallFunc_IsValid_ReturnValue]</text>
<text text-anchor="start" x="1671.5" y="-1391.3" font-family="monospace" font-size="14.00">  EX_CallMath import /Script/Engine&#45;&gt;KismetSystemLibrary&#45;&gt;IsValid</text>
<text text-anchor="start" x="1671.5" y="-1376.3" font-family="monospace" font-size="14.00">    EX_LocalVariable [CallFunc_GetFSDGameInstance_ReturnValue]</text>
</g>
<!-- ExecuteUbergraph_Tutorial_Hint_PlagueWarning_Start__26&#45;&gt;ExecuteUbergraph_Tutorial_Hint_PlagueWarning_Start__47 -->
<g id="edge5" class="edge">
<title>ExecuteUbergraph_Tutorial_Hint_PlagueWarning_Start__26&#45;&gt;ExecuteUbergraph_Tutorial_Hint_PlagueWarning_Start__47</title>
<path fill="none" stroke="black" d="M2052.11,-1474.59C2036.03,-1464.4 2018.15,-1453.06 2001.49,-1442.49"/>
<polygon fill="black" stroke="black" points="2003.43,-1439.58 1993.11,-1437.18 1999.68,-1445.49 2003.43,-1439.58"/>
</g>
<!-- ExecuteUbergraph_Tutorial_Hint_PlagueWarning_Start__76 -->
<g id="node9" class="node">
<title>ExecuteUbergraph_Tutorial_Hint_PlagueWarning_Start__76</title>
<polygon fill="#eeeeee" stroke="black" points="1586.5,-1292.5 1586.5,-1330.5 2007.5,-1330.5 2007.5,-1292.5 1586.5,-1292.5"/>
<text text-anchor="start" x="1594.5" y="-1315.3" font-family="monospace" font-size="14.00">EX_JumpIfNot 264</text>
<text text-anchor="start" x="1594.5" y="-1300.3" font-family="monospace" font-size="14.00">  EX_LocalVariable [CallFunc_IsValid_ReturnValue]</text>
</g>
<!-- ExecuteUbergraph_Tutorial_Hint_PlagueWarning_Start__47&#45;&gt;ExecuteUbergraph_Tutorial_Hint_PlagueWarning_Start__76 -->
<g id="edge6" class="edge">
<title>ExecuteUbergraph_Tutorial_Hint_PlagueWarning_Start__47&#45;&gt;ExecuteUbergraph_Tutorial_Hint_PlagueWarning_Start__76</title>
<path fill="none" stroke="black" d="M1887.16,-1368.61C1869.9,-1357.87 1851.07,-1346.15 1835.11,-1336.22"/>
<polygon fill="black" stroke="black" points="1837.21,-1333.4 1826.87,-1331.09 1833.51,-1339.35 1837.21,-1333.4"/>
</g>
<!-- ExecuteUbergraph_Tutorial_Hint_PlagueWarning_Start__90 -->
<g id="node10" class="node">
<title>ExecuteUbergraph_Tutorial_Hint_PlagueWarning_Start__90</title>
<polygon fill="#eeeeee" stroke="black" points="946.5,-1150 946.5,-1203 1705.5,-1203 1705.5,-1150 946.5,-1150"/>
<text text-anchor="start" x="954.5" y="-1187.8" font-family="monospace" font-size="14.00">EX_LetObj</text>
<text text-anchor="start" x="954.5" y="-1172.8" font-family="monospace" font-size="14.00">  EX_LocalVariable [Temp_object_Variable]</text>
<text text-anchor="start" x="954.5" y="-1157.8" font-family="monospace" font-size="14.00">  EX_ObjectConst import /Game/GameElements/Missions/Warnings/Plague/WRN_Plague&#45;&gt;WRN_Plague</text>
</g>
<!-- ExecuteUbergraph_Tutorial_Hint_PlagueWarning_Start__76&#45;&gt;ExecuteUbergraph_Tutorial_Hint_PlagueWarning_Start__90 -->
<g id="edge8" class="edge">
<title>ExecuteUbergraph_Tutorial_Hint_PlagueWarning_Start__76&#45;&gt;ExecuteUbergraph_Tutorial_Hint_PlagueWarning_Start__90</title>
<path fill="none" stroke="black" d="M1733.48,-1292.56C1654.86,-1270.36 1520.01,-1232.28 1427.11,-1206.05"/>
<polygon fill="black" stroke="black" points="1428.31,-1202.75 1417.73,-1203.4 1426.4,-1209.49 1428.31,-1202.75"/>
<text text-anchor="middle" x="1665.5" y="-1262.8" font-family="monospace" font-size="14.00">IF</text>
</g>
<!-- ExecuteUbergraph_Tutorial_Hint_PlagueWarning_Start__264 -->
<g id="node17" class="node">
<title>ExecuteUbergraph_Tutorial_Hint_PlagueWarning_Start__264</title>
<polygon fill="#eeeeee" stroke="black" points="1723.5,-1112.5 1723.5,-1240.5 2292.5,-1240.5 2292.5,-1112.5 1723.5,-1112.5"/>
<text text-anchor="start" x="1731.5" y="-1225.3" font-family="monospace" font-size="14.00">EX_CallMath import /Script/Engine&#45;&gt;KismetSystemLibrary&#45;&gt;Delay</text>
<text text-anchor="start" x="1731.5" y="-1210.3" font-family="monospace" font-size="14.00">  EX_Self</text>
<text text-anchor="start" x="1731.5" y="-1195.3" font-family="monospace" font-size="14.00">  EX_FloatConst 1</text>
<text text-anchor="start" x="1731.5" y="-1180.3" font-family="monospace" font-size="14.00">  EX_StructConst import /Script/Engine&#45;&gt;LatentActionInfo</text>
<text text-anchor="start" x="1731.5" y="-1165.3" font-family="monospace" font-size="14.00">    EX_SkipOffsetConst 26</text>
<text text-anchor="start" x="1731.5" y="-1150.3" font-family="monospace" font-size="14.00">    EX_IntConst &#45;1929809008</text>
<text text-anchor="start" x="1731.5" y="-1135.3" font-family="monospace" font-size="14.00">    EX_NameConst ExecuteUbergraph_Tutorial_Hint_PlagueWarning_Start</text>
<text text-anchor="start" x="1731.5" y="-1120.3" font-family="monospace" font-size="14.00">    EX_Self</text>
</g>
<!-- ExecuteUbergraph_Tutorial_Hint_PlagueWarning_Start__76&#45;&gt;ExecuteUbergraph_Tutorial_Hint_PlagueWarning_Start__264 -->
<g id="edge7" class="edge">
<title>ExecuteUbergraph_Tutorial_Hint_PlagueWarning_Start__76:e&#45;&gt;ExecuteUbergraph_Tutorial_Hint_PlagueWarning_Start__264</title>
<path fill="none" stroke="red" d="M2009,-1311.5C2036.78,-1311.5 2038.43,-1282.34 2032.27,-1251.23"/>
<polygon fill="none" stroke="red" points="2035.73,-1250.66 2030.13,-1241.66 2028.9,-1252.18 2035.73,-1250.66"/>
<text text-anchor="middle" x="2060" y="-1262.8" font-family="monospace" font-size="14.00">IF NOT</text>
</g>
<!-- ExecuteUbergraph_Tutorial_Hint_PlagueWarning_Start__109 -->
<g id="node11" class="node">
<title>ExecuteUbergraph_Tutorial_Hint_PlagueWarning_Start__109</title>
<polygon fill="#eeeeee" stroke="black" points="1016.5,-1006.5 1016.5,-1074.5 1635.5,-1074.5 1635.5,-1006.5 1016.5,-1006.5"/>
<text text-anchor="start" x="1024.5" y="-1059.3" font-family="monospace" font-size="14.00">EX_LetObj</text>
<text text-anchor="start" x="1024.5" y="-1044.3" font-family="monospace" font-size="14.00">  EX_LocalVariable [CallFunc_GetFSDGameInstance_ReturnValue_1]</text>
<text text-anchor="start" x="1024.5" y="-1029.3" font-family="monospace" font-size="14.00">  EX_CallMath import /Script/FSD&#45;&gt;GameFunctionLibrary&#45;&gt;GetFSDGameInstance</text>
<text text-anchor="start" x="1024.5" y="-1014.3" font-family="monospace" font-size="14.00">    EX_Self</text>
</g>
<!-- ExecuteUbergraph_Tutorial_Hint_PlagueWarning_Start__90&#45;&gt;ExecuteUbergraph_Tutorial_Hint_PlagueWarning_Start__109 -->
<g id="edge9" class="edge">
<title>ExecuteUbergraph_Tutorial_Hint_PlagueWarning_Start__90&#45;&gt;ExecuteUbergraph_Tutorial_Hint_PlagueWarning_Start__109</title>
<path fill="none" stroke="black" d="M1326,-1150.3C1326,-1132.13 1326,-1107.14 1326,-1085.69"/>
<polygon fill="black" stroke="black" points="1329.5,-1085.71 1326,-1075.71 1322.5,-1085.71 1329.5,-1085.71"/>
</g>
<!-- ExecuteUbergraph_Tutorial_Hint_PlagueWarning_Start__130 -->
<g id="node12" class="node">
<title>ExecuteUbergraph_Tutorial_Hint_PlagueWarning_Start__130</title>
<polygon fill="#eeeeee" stroke="black" points="996,-750.5 996,-968.5 1656,-968.5 1656,-750.5 996,-750.5"/>
<text text-anchor="start" x="1004" y="-953.3" font-family="monospace" font-size="14.00">EX_LetBool</text>
<text text-anchor="start" x="1004" y="-938.3" font-family="monospace" font-size="14.00">  EX_LocalVariable [CallFunc_Array_Contains_ReturnValue]</text>
<text text-anchor="start" x="1004" y="-923.3" font-family="monospace" font-size="14.00">  EX_Context</text>
<text text-anchor="start" x="1004" y="-908.3" font-family="monospace" font-size="14.00">    EX_ObjectConst import /Script/Engine&#45;&gt;Default__KismetArrayLibrary</text>
<text text-anchor="start" x="1004" y="-893.3" font-family="monospace" font-size="14.00">    EX_FinalFunction import /Script/Engine&#45;&gt;KismetArrayLibrary&#45;&gt;Array_Contains</text>
<text text-anchor="start" x="1004" y="-878.3" font-family="monospace" font-size="14.00">      EX_Context</text>
<text text-anchor="start" x="1004" y="-863.3" font-family="monospace" font-size="14.00">        EX_Context</text>
<text text-anchor="start" x="1004" y="-848.3" font-family="monospace" font-size="14.00">          EX_LocalVariable [CallFunc_GetFSDGameInstance_ReturnValue_1]</text>
<text text-anchor="start" x="1004" y="-833.3" font-family="monospace" font-size="14.00">          EX_InstanceVariable [GeneratedMission]</text>
<text text-anchor="start" x="1004" y="-818.3" font-family="monospace" font-size="14.00">          RValue = [GeneratedMission]</text>
<text text-anchor="start" x="1004" y="-803.3" font-family="monospace" font-size="14.00">        EX_InstanceVariable [MissionWarnings]</text>
<text text-anchor="start" x="1004" y="-788.3" font-family="monospace" font-size="14.00">        RValue = [MissionWarnings]</text>
<text text-anchor="start" x="1004" y="-773.3" font-family="monospace" font-size="14.00">      EX_LocalVariable [Temp_object_Variable]</text>
<text text-anchor="start" x="1004" y="-758.3" font-family="monospace" font-size="14.00">    RValue = [CallFunc_Array_Contains_ReturnValue]</text>
</g>
<!-- ExecuteUbergraph_Tutorial_Hint_PlagueWarning_Start__109&#45;&gt;ExecuteUbergraph_Tutorial_Hint_PlagueWarning_Start__130 -->
<g id="edge10" class="edge">
<title>ExecuteUbergraph_Tutorial_Hint_PlagueWarning_Start__109&#45;&gt;ExecuteUbergraph_Tutorial_Hint_PlagueWarning_Start__130</title>
<path fill="none" stroke="black" d="M1326,-1006.67C1326,-998.62 1326,-989.52 1326,-979.91"/>
<polygon fill="black" stroke="black" points="1329.5,-979.93 1326,-969.93 1322.5,-979.93 1329.5,-979.93"/>
</g>
<!-- ExecuteUbergraph_Tutorial_Hint_PlagueWarning_Start__234 -->
<g id="node13" class="node">
<title>ExecuteUbergraph_Tutorial_Hint_PlagueWarning_Start__234</title>
<polygon fill="#eeeeee" stroke="black" points="1086.5,-674.5 1086.5,-712.5 1565.5,-712.5 1565.5,-674.5 1086.5,-674.5"/>
<text text-anchor="start" x="1094.5" y="-697.3" font-family="monospace" font-size="14.00">EX_PopExecutionFlowIfNot</text>
<text text-anchor="start" x="1094.5" y="-682.3" font-family="monospace" font-size="14.00">  EX_LocalVariable [CallFunc_Array_Contains_ReturnValue]</text>
</g>
<!-- ExecuteUbergraph_Tutorial_Hint_PlagueWarning_Start__130&#45;&gt;ExecuteUbergraph_Tutorial_Hint_PlagueWarning_Start__234 -->
<g id="edge11" class="edge">
<title>ExecuteUbergraph_Tutorial_Hint_PlagueWarning_Start__130&#45;&gt;ExecuteUbergraph_Tutorial_Hint_PlagueWarning_Start__234</title>
<path fill="none" stroke="black" d="M1326,-750.94C1326,-741 1326,-731.61 1326,-723.45"/>
<polygon fill="black" stroke="black" points="1329.5,-723.61 1326,-713.61 1322.5,-723.61 1329.5,-723.61"/>
</g>
<!-- ExecuteUbergraph_Tutorial_Hint_PlagueWarning_Start__244 -->
<g id="node14" class="node">
<title>ExecuteUbergraph_Tutorial_Hint_PlagueWarning_Start__244</title>
<polygon fill="#eeeeee" stroke="black" points="1218.5,-600.5 1218.5,-636.5 1433.5,-636.5 1433.5,-600.5 1218.5,-600.5"/>
<text text-anchor="start" x="1226.5" y="-614.8" font-family="monospace" font-size="14.00">EX_PushExecutionFlow 319</text>
</g>
<!-- ExecuteUbergraph_Tutorial_Hint_PlagueWarning_Start__234&#45;&gt;ExecuteUbergraph_Tutorial_Hint_PlagueWarning_Start__244 -->
<g id="edge12" class="edge">
<title>ExecuteUbergraph_Tutorial_Hint_PlagueWarning_Start__234&#45;&gt;ExecuteUbergraph_Tutorial_Hint_PlagueWarning_Start__244</title>
<path fill="none" stroke="black" d="M1326,-674.83C1326,-666.61 1326,-656.65 1326,-647.45"/>
<polygon fill="black" stroke="black" points="1329.5,-647.52 1326,-637.52 1322.5,-647.52 1329.5,-647.52"/>
</g>
<!-- ExecuteUbergraph_Tutorial_Hint_PlagueWarning_Start__249 -->
<g id="node15" class="node">
<title>ExecuteUbergraph_Tutorial_Hint_PlagueWarning_Start__249</title>
<polygon fill="#eeeeee" stroke="black" points="751,-510.5 751,-548.5 1213,-548.5 1213,-510.5 751,-510.5"/>
<text text-anchor="start" x="759" y="-533.3" font-family="monospace" font-size="14.00">EX_JumpIfNot 405</text>
<text text-anchor="start" x="759" y="-518.3" font-family="monospace" font-size="14.00">  EX_LocalVariable [Temp_bool_Has_Been_Initd_Variable]</text>
</g>
<!-- ExecuteUbergraph_Tutorial_Hint_PlagueWarning_Start__244&#45;&gt;ExecuteUbergraph_Tutorial_Hint_PlagueWarning_Start__249 -->
<g id="edge14" class="edge">
<title>ExecuteUbergraph_Tutorial_Hint_PlagueWarning_Start__244&#45;&gt;ExecuteUbergraph_Tutorial_Hint_PlagueWarning_Start__249</title>
<path fill="none" stroke="black" d="M1258.86,-600.52C1203.08,-586.41 1123.52,-566.29 1063.99,-551.24"/>
<polygon fill="black" stroke="black" points="1065.14,-547.92 1054.59,-548.86 1063.42,-554.7 1065.14,-547.92"/>
</g>
<!-- ExecuteUbergraph_Tutorial_Hint_PlagueWarning_Start__319 -->
<g id="node19" class="node">
<title>ExecuteUbergraph_Tutorial_Hint_PlagueWarning_Start__319</title>
<polygon fill="#eeeeee" stroke="black" points="1342.5,-510.5 1342.5,-548.5 1755.5,-548.5 1755.5,-510.5 1342.5,-510.5"/>
<text text-anchor="start" x="1350.5" y="-533.3" font-family="monospace" font-size="14.00">EX_JumpIfNot 334</text>
<text text-anchor="start" x="1350.5" y="-518.3" font-family="monospace" font-size="14.00">  EX_LocalVariable [Temp_bool_IsClosed_Variable]</text>
</g>
<!-- ExecuteUbergraph_Tutorial_Hint_PlagueWarning_Start__244&#45;&gt;ExecuteUbergraph_Tutorial_Hint_PlagueWarning_Start__319 -->
<g id="edge13" class="edge">
<title>ExecuteUbergraph_Tutorial_Hint_PlagueWarning_Start__244:e&#45;&gt;ExecuteUbergraph_Tutorial_Hint_PlagueWarning_Start__319</title>
<path fill="none" stroke="red" d="M1435,-618.5C1475.53,-618.5 1510.44,-583.22 1530.59,-557.34"/>
<polygon fill="none" stroke="red" points="1533.25,-559.63 1536.43,-549.52 1527.64,-555.44 1533.25,-559.63"/>
<text text-anchor="middle" x="1562.5" y="-570.8" font-family="monospace" font-size="14.00">PUSH STACK</text>
</g>
<!-- ExecuteUbergraph_Tutorial_Hint_PlagueWarning_Start__263 -->
<g id="node16" class="node">
<title>ExecuteUbergraph_Tutorial_Hint_PlagueWarning_Start__263</title>
<polygon fill="#eeeeee" stroke="black" points="790.5,-414 790.5,-450 963.5,-450 963.5,-414 790.5,-414"/>
<text text-anchor="start" x="798.5" y="-428.3" font-family="monospace" font-size="14.00">EX_PopExecutionFlow</text>
</g>
<!-- ExecuteUbergraph_Tutorial_Hint_PlagueWarning_Start__249&#45;&gt;ExecuteUbergraph_Tutorial_Hint_PlagueWarning_Start__263 -->
<g id="edge16" class="edge">
<title>ExecuteUbergraph_Tutorial_Hint_PlagueWarning_Start__249&#45;&gt;ExecuteUbergraph_Tutorial_Hint_PlagueWarning_Start__263</title>
<path fill="none" stroke="black" d="M962.25,-510.54C945.81,-495.59 922.24,-474.15 904.05,-457.6"/>
<polygon fill="black" stroke="black" points="906.48,-455.08 896.72,-450.94 901.77,-460.26 906.48,-455.08"/>
<text text-anchor="middle" x="947.5" y="-480.8" font-family="monospace" font-size="14.00">IF</text>
</g>
<!-- ExecuteUbergraph_Tutorial_Hint_PlagueWarning_Start__405 -->
<g id="node25" class="node">
<title>ExecuteUbergraph_Tutorial_Hint_PlagueWarning_Start__405</title>
<polygon fill="#eeeeee" stroke="black" points="982,-405.5 982,-458.5 1444,-458.5 1444,-405.5 982,-405.5"/>
<text text-anchor="start" x="990" y="-443.3" font-family="monospace" font-size="14.00">EX_LetBool</text>
<text text-anchor="start" x="990" y="-428.3" font-family="monospace" font-size="14.00">  EX_LocalVariable [Temp_bool_Has_Been_Initd_Variable]</text>
<text text-anchor="start" x="990" y="-413.3" font-family="monospace" font-size="14.00">  EX_True</text>
</g>
<!-- ExecuteUbergraph_Tutorial_Hint_PlagueWarning_Start__249&#45;&gt;ExecuteUbergraph_Tutorial_Hint_PlagueWarning_Start__405 -->
<g id="edge15" class="edge">
<title>ExecuteUbergraph_Tutorial_Hint_PlagueWarning_Start__249:e&#45;&gt;ExecuteUbergraph_Tutorial_Hint_PlagueWarning_Start__405</title>
<path fill="none" stroke="red" d="M1214,-529.5C1239.03,-529.5 1234.5,-496.63 1226.39,-469.25"/>
<polygon fill="none" stroke="red" points="1229.75,-468.25 1223.37,-459.8 1223.08,-470.39 1229.75,-468.25"/>
<text text-anchor="middle" x="1257" y="-480.8" font-family="monospace" font-size="14.00">IF NOT</text>
</g>
<!-- ExecuteUbergraph_Tutorial_Hint_PlagueWarning_Start__264&#45;&gt;ExecuteUbergraph_Tutorial_Hint_PlagueWarning_Start__26 -->
<g id="edge17" class="edge">
<title>ExecuteUbergraph_Tutorial_Hint_PlagueWarning_Start__264:e&#45;&gt;ExecuteUbergraph_Tutorial_Hint_PlagueWarning_Start__26</title>
<path fill="none" stroke="red" d="M2294,-1176.5C2413.66,-1176.5 2301.99,-1344.57 2226,-1437 2215.97,-1449.21 2203.23,-1459.74 2189.79,-1468.67"/>
<polygon fill="none" stroke="red" points="2188.27,-1465.49 2181.68,-1473.79 2192,-1471.41 2188.27,-1465.49"/>
</g>
<!-- ExecuteUbergraph_Tutorial_Hint_PlagueWarning_Start__318 -->
<g id="node18" class="node">
<title>ExecuteUbergraph_Tutorial_Hint_PlagueWarning_Start__318</title>
<polygon fill="#eeeeee" stroke="black" points="1921.5,-1022.5 1921.5,-1058.5 2094.5,-1058.5 2094.5,-1022.5 1921.5,-1022.5"/>
<text text-anchor="start" x="1929.5" y="-1036.8" font-family="monospace" font-size="14.00">EX_PopExecutionFlow</text>
</g>
<!-- ExecuteUbergraph_Tutorial_Hint_PlagueWarning_Start__264&#45;&gt;ExecuteUbergraph_Tutorial_Hint_PlagueWarning_Start__318 -->
<g id="edge18" class="edge">
<title>ExecuteUbergraph_Tutorial_Hint_PlagueWarning_Start__264&#45;&gt;ExecuteUbergraph_Tutorial_Hint_PlagueWarning_Start__318</title>
<path fill="none" stroke="black" d="M2008,-1112.82C2008,-1097.64 2008,-1082.17 2008,-1069.53"/>
<polygon fill="black" stroke="black" points="2011.5,-1069.9 2008,-1059.9 2004.5,-1069.9 2011.5,-1069.9"/>
</g>
<!-- ExecuteUbergraph_Tutorial_Hint_PlagueWarning_Start__333 -->
<g id="node20" class="node">
<title>ExecuteUbergraph_Tutorial_Hint_PlagueWarning_Start__333</title>
<polygon fill="#eeeeee" stroke="black" points="1462.5,-414 1462.5,-450 1635.5,-450 1635.5,-414 1462.5,-414"/>
<text text-anchor="start" x="1470.5" y="-428.3" font-family="monospace" font-size="14.00">EX_PopExecutionFlow</text>
</g>
<!-- ExecuteUbergraph_Tutorial_Hint_PlagueWarning_Start__319&#45;&gt;ExecuteUbergraph_Tutorial_Hint_PlagueWarning_Start__333 -->
<g id="edge20" class="edge">
<title>ExecuteUbergraph_Tutorial_Hint_PlagueWarning_Start__319&#45;&gt;ExecuteUbergraph_Tutorial_Hint_PlagueWarning_Start__333</title>
<path fill="none" stroke="black" d="M1549,-510.54C1549,-496.67 1549,-477.23 1549,-461.28"/>
<polygon fill="black" stroke="black" points="1552.5,-461.43 1549,-451.43 1545.5,-461.43 1552.5,-461.43"/>
<text text-anchor="middle" x="1557.5" y="-480.8" font-family="monospace" font-size="14.00">IF</text>
</g>
<!-- ExecuteUbergraph_Tutorial_Hint_PlagueWarning_Start__334 -->
<g id="node21" class="node">
<title>ExecuteUbergraph_Tutorial_Hint_PlagueWarning_Start__334</title>
<polygon fill="#eeeeee" stroke="black" points="1653.5,-405.5 1653.5,-458.5 2066.5,-458.5 2066.5,-405.5 1653.5,-405.5"/>
<text text-anchor="start" x="1661.5" y="-443.3" font-family="monospace" font-size="14.00">EX_LetBool</text>
<text text-anchor="start" x="1661.5" y="-428.3" font-family="monospace" font-size="14.00">  EX_LocalVariable [Temp_bool_IsClosed_Variable]</text>
<text text-anchor="start" x="1661.5" y="-413.3" font-family="monospace" font-size="14.00">  EX_True</text>
</g>
<!-- ExecuteUbergraph_Tutorial_Hint_PlagueWarning_Start__319&#45;&gt;ExecuteUbergraph_Tutorial_Hint_PlagueWarning_Start__334 -->
<g id="edge19" class="edge">
<title>ExecuteUbergraph_Tutorial_Hint_PlagueWarning_Start__319:e&#45;&gt;ExecuteUbergraph_Tutorial_Hint_PlagueWarning_Start__334</title>
<path fill="none" stroke="red" d="M1757,-529.5C1794.1,-529.5 1823.34,-495.75 1841.05,-468.16"/>
<polygon fill="none" stroke="red" points="1844.02,-470 1846.25,-459.65 1838.05,-466.35 1844.02,-470"/>
<text text-anchor="middle" x="1859" y="-480.8" font-family="monospace" font-size="14.00">IF NOT</text>
</g>
<!-- ExecuteUbergraph_Tutorial_Hint_PlagueWarning_Start__345 -->
<g id="node22" class="node">
<title>ExecuteUbergraph_Tutorial_Hint_PlagueWarning_Start__345</title>
<polygon fill="#eeeeee" stroke="black" points="1575.5,-239.5 1575.5,-367.5 2144.5,-367.5 2144.5,-239.5 1575.5,-239.5"/>
<text text-anchor="start" x="1583.5" y="-352.3" font-family="monospace" font-size="14.00">EX_CallMath import /Script/Engine&#45;&gt;KismetSystemLibrary&#45;&gt;Delay</text>
<text text-anchor="start" x="1583.5" y="-337.3" font-family="monospace" font-size="14.00">  EX_Self</text>
<text text-anchor="start" x="1583.5" y="-322.3" font-family="monospace" font-size="14.00">  EX_FloatConst 17</text>
<text text-anchor="start" x="1583.5" y="-307.3" font-family="monospace" font-size="14.00">  EX_StructConst import /Script/Engine&#45;&gt;LatentActionInfo</text>
<text text-anchor="start" x="1583.5" y="-292.3" font-family="monospace" font-size="14.00">    EX_SkipOffsetConst 400</text>
<text text-anchor="start" x="1583.5" y="-277.3" font-family="monospace" font-size="14.00">    EX_IntConst 872410154</text>
<text text-anchor="start" x="1583.5" y="-262.3" font-family="monospace" font-size="14.00">    EX_NameConst ExecuteUbergraph_Tutorial_Hint_PlagueWarning_Start</text>
<text text-anchor="start" x="1583.5" y="-247.3" font-family="monospace" font-size="14.00">    EX_Self</text>
</g>
<!-- ExecuteUbergraph_Tutorial_Hint_PlagueWarning_Start__334&#45;&gt;ExecuteUbergraph_Tutorial_Hint_PlagueWarning_Start__345 -->
<g id="edge21" class="edge">
<title>ExecuteUbergraph_Tutorial_Hint_PlagueWarning_Start__334&#45;&gt;ExecuteUbergraph_Tutorial_Hint_PlagueWarning_Start__345</title>
<path fill="none" stroke="black" d="M1860,-405.7C1860,-397.72 1860,-388.46 1860,-378.85"/>
<polygon fill="black" stroke="black" points="1863.5,-378.97 1860,-368.97 1856.5,-378.97 1863.5,-378.97"/>
</g>
<!-- ExecuteUbergraph_Tutorial_Hint_PlagueWarning_Start__399 -->
<g id="node23" class="node">
<title>ExecuteUbergraph_Tutorial_Hint_PlagueWarning_Start__399</title>
<polygon fill="#eeeeee" stroke="black" points="1773.5,-157 1773.5,-193 1946.5,-193 1946.5,-157 1773.5,-157"/>
<text text-anchor="start" x="1781.5" y="-171.3" font-family="monospace" font-size="14.00">EX_PopExecutionFlow</text>
</g>
<!-- ExecuteUbergraph_Tutorial_Hint_PlagueWarning_Start__345&#45;&gt;ExecuteUbergraph_Tutorial_Hint_PlagueWarning_Start__399 -->
<g id="edge23" class="edge">
<title>ExecuteUbergraph_Tutorial_Hint_PlagueWarning_Start__345&#45;&gt;ExecuteUbergraph_Tutorial_Hint_PlagueWarning_Start__399</title>
<path fill="none" stroke="black" d="M1860,-239.62C1860,-227.23 1860,-214.82 1860,-204.3"/>
<polygon fill="black" stroke="black" points="1863.5,-204.43 1860,-194.43 1856.5,-204.43 1863.5,-204.43"/>
</g>
<!-- ExecuteUbergraph_Tutorial_Hint_PlagueWarning_Start__400 -->
<g id="node24" class="node">
<title>ExecuteUbergraph_Tutorial_Hint_PlagueWarning_Start__400</title>
<polygon fill="#eeeeee" stroke="black" points="2095.5,-157 2095.5,-193 2194.5,-193 2194.5,-157 2095.5,-157"/>
<text text-anchor="start" x="2103.5" y="-171.3" font-family="monospace" font-size="14.00">EX_Jump 15</text>
</g>
<!-- ExecuteUbergraph_Tutorial_Hint_PlagueWarning_Start__345&#45;&gt;ExecuteUbergraph_Tutorial_Hint_PlagueWarning_Start__400 -->
<g id="edge22" class="edge">
<title>ExecuteUbergraph_Tutorial_Hint_PlagueWarning_Start__345:e&#45;&gt;ExecuteUbergraph_Tutorial_Hint_PlagueWarning_Start__400</title>
<path fill="none" stroke="red" d="M2146,-303.5C2185.62,-303.5 2169.35,-241.18 2155.97,-203.68"/>
<polygon fill="none" stroke="red" points="2159.27,-202.5 2152.51,-194.35 2152.71,-204.94 2159.27,-202.5"/>
</g>
<!-- ExecuteUbergraph_Tutorial_Hint_PlagueWarning_Start__400&#45;&gt;ExecuteUbergraph_Tutorial_Hint_PlagueWarning_Start__15 -->
<g id="edge24" class="edge">
<title>ExecuteUbergraph_Tutorial_Hint_PlagueWarning_Start__400&#45;&gt;ExecuteUbergraph_Tutorial_Hint_PlagueWarning_Start__15</title>
<path fill="none" stroke="black" d="M2145,-157.32C2145,-147.03 2145,-133.56 2145,-121.65"/>
<polygon fill="black" stroke="black" points="2148.5,-121.95 2145,-111.95 2141.5,-121.95 2148.5,-121.95"/>
</g>
<!-- ExecuteUbergraph_Tutorial_Hint_PlagueWarning_Start__416 -->
<g id="node26" class="node">
<title>ExecuteUbergraph_Tutorial_Hint_PlagueWarning_Start__416</title>
<polygon fill="#eeeeee" stroke="black" points="1105.5,-284.5 1105.5,-322.5 1320.5,-322.5 1320.5,-284.5 1105.5,-284.5"/>
<text text-anchor="start" x="1113.5" y="-307.3" font-family="monospace" font-size="14.00">EX_PopExecutionFlowIfNot</text>
<text text-anchor="start" x="1113.5" y="-292.3" font-family="monospace" font-size="14.00">  EX_False</text>
</g>
<!-- ExecuteUbergraph_Tutorial_Hint_PlagueWarning_Start__405&#45;&gt;ExecuteUbergraph_Tutorial_Hint_PlagueWarning_Start__416 -->
<g id="edge25" class="edge">
<title>ExecuteUbergraph_Tutorial_Hint_PlagueWarning_Start__405&#45;&gt;ExecuteUbergraph_Tutorial_Hint_PlagueWarning_Start__416</title>
<path fill="none" stroke="black" d="M1213,-405.7C1213,-385 1213,-355.67 1213,-333.92"/>
<polygon fill="black" stroke="black" points="1216.5,-333.92 1213,-323.92 1209.5,-333.92 1216.5,-333.92"/>
</g>
<!-- ExecuteUbergraph_Tutorial_Hint_PlagueWarning_Start__418 -->
<g id="node27" class="node">
<title>ExecuteUbergraph_Tutorial_Hint_PlagueWarning_Start__418</title>
<polygon fill="#eeeeee" stroke="black" points="1006.5,-148.5 1006.5,-201.5 1419.5,-201.5 1419.5,-148.5 1006.5,-148.5"/>
<text text-anchor="start" x="1014.5" y="-186.3" font-family="monospace" font-size="14.00">EX_LetBool</text>
<text text-anchor="start" x="1014.5" y="-171.3" font-family="monospace" font-size="14.00">  EX_LocalVariable [Temp_bool_IsClosed_Variable]</text>
<text text-anchor="start" x="1014.5" y="-156.3" font-family="monospace" font-size="14.00">  EX_True</text>
</g>
<!-- ExecuteUbergraph_Tutorial_Hint_PlagueWarning_Start__416&#45;&gt;ExecuteUbergraph_Tutorial_Hint_PlagueWarning_Start__418 -->
<g id="edge26" class="edge">
<title>ExecuteUbergraph_Tutorial_Hint_PlagueWarning_Start__416&#45;&gt;ExecuteUbergraph_Tutorial_Hint_PlagueWarning_Start__418</title>
<path fill="none" stroke="black" d="M1213,-284.64C1213,-266 1213,-236.23 1213,-212.57"/>
<polygon fill="black" stroke="black" points="1216.5,-212.69 1213,-202.69 1209.5,-212.7 1216.5,-212.69"/>
</g>
<!-- ExecuteUbergraph_Tutorial_Hint_PlagueWarning_Start__429 -->
<g id="node28" class="node">
<title>ExecuteUbergraph_Tutorial_Hint_PlagueWarning_Start__429</title>
<polygon fill="#eeeeee" stroke="black" points="1126.5,-74.5 1126.5,-110.5 1299.5,-110.5 1299.5,-74.5 1126.5,-74.5"/>
<text text-anchor="start" x="1134.5" y="-88.8" font-family="monospace" font-size="14.00">EX_PopExecutionFlow</text>
</g>
<!-- ExecuteUbergraph_Tutorial_Hint_PlagueWarning_Start__418&#45;&gt;ExecuteUbergraph_Tutorial_Hint_PlagueWarning_Start__429 -->
<g id="edge27" class="edge">
<title>ExecuteUbergraph_Tutorial_Hint_PlagueWarning_Start__418&#45;&gt;ExecuteUbergraph_Tutorial_Hint_PlagueWarning_Start__429</title>
<path fill="none" stroke="black" d="M1213,-148.53C1213,-139.92 1213,-130.25 1213,-121.46"/>
<polygon fill="black" stroke="black" points="1216.5,-121.69 1213,-111.69 1209.5,-121.69 1216.5,-121.69"/>
</g>
<!-- ExecuteUbergraph_Tutorial_Hint_PlagueWarning_Start__430 -->
<g id="node29" class="node">
<title>ExecuteUbergraph_Tutorial_Hint_PlagueWarning_Start__430</title>
<polygon fill="#eeeeee" stroke="black" points="2054.5,-1581.5 2054.5,-1617.5 2153.5,-1617.5 2153.5,-1581.5 2054.5,-1581.5"/>
<text text-anchor="start" x="2062.5" y="-1595.8" font-family="monospace" font-size="14.00">EX_Jump 26</text>
</g>
<!-- ExecuteUbergraph_Tutorial_Hint_PlagueWarning_Start__430&#45;&gt;ExecuteUbergraph_Tutorial_Hint_PlagueWarning_Start__26 -->
<g id="edge28" class="edge">
<title>ExecuteUbergraph_Tutorial_Hint_PlagueWarning_Start__430&#45;&gt;ExecuteUbergraph_Tutorial_Hint_PlagueWarning_Start__26</title>
<path fill="none" stroke="black" d="M2104,-1581.76C2104,-1573.71 2104,-1563.65 2104,-1553.61"/>
<polygon fill="black" stroke="black" points="2107.5,-1553.9 2104,-1543.9 2100.5,-1553.9 2107.5,-1553.9"/>
</g>
<!-- ExecuteUbergraph_Tutorial_Hint_PlagueWarning_Start__437 -->
<g id="node31" class="node">
<title>ExecuteUbergraph_Tutorial_Hint_PlagueWarning_Start__437</title>
<polygon fill="#eeeeee" stroke="black" points="1632,-1749.5 1632,-1785.5 1764,-1785.5 1764,-1749.5 1632,-1749.5"/>
<text text-anchor="start" x="1640" y="-1763.8" font-family="monospace" font-size="14.00">EX_EndOfScript</text>
</g>
<!-- ReceiveOnInitialized -->
<g id="node32" class="node">
<title>ReceiveOnInitialized</title>
<polygon fill="#ff8888" stroke="black" points="1489,-1888 1489,-1924 1745,-1924 1745,-1888 1489,-1888"/>
<text text-anchor="start" x="1497" y="-1902.3" font-family="monospace" font-size="14.00">Function ReceiveOnInitialized</text>
</g>
<!-- ReceiveOnInitialized__0 -->
<g id="node33" class="node">
<title>ReceiveOnInitialized__0</title>
<polygon fill="#eeeeee" stroke="black" points="1130,-1692.5 1130,-1730.5 2104,-1730.5 2104,-1692.5 1130,-1692.5"/>
<text text-anchor="start" x="1138" y="-1715.3" font-family="monospace" font-size="14.00">EX_LocalFinalFunction export Tutorial_Hint_PlagueWarning_Start_C&#45;&gt;ExecuteUbergraph_Tutorial_Hint_PlagueWarning_Start</text>
<text text-anchor="start" x="1138" y="-1700.3" font-family="monospace" font-size="14.00">  EX_IntConst 430</text>
</g>
<!-- ReceiveOnInitialized&#45;&gt;ReceiveOnInitialized__0 -->
<g id="edge29" class="edge">
<title>ReceiveOnInitialized&#45;&gt;ReceiveOnInitialized__0</title>
<path fill="none" stroke="black" d="M1617,-1888.25C1617,-1855.52 1617,-1782.7 1617,-1741.81"/>
<polygon fill="black" stroke="black" points="1620.5,-1741.97 1617,-1731.97 1613.5,-1741.97 1620.5,-1741.97"/>
</g>
<!-- ReceiveOnInitialized__0&#45;&gt;ExecuteUbergraph_Tutorial_Hint_PlagueWarning_Start__430 -->
<g id="edge30" class="edge">
<title>ReceiveOnInitialized__0:e&#45;&gt;ExecuteUbergraph_Tutorial_Hint_PlagueWarning_Start__430</title>
<path fill="none" stroke="red" d="M2105,-1711.5C2121.56,-1711.5 2115.43,-1661.46 2109.62,-1628.57"/>
<polygon fill="none" stroke="red" points="2113.08,-1628.04 2107.81,-1618.85 2106.2,-1629.32 2113.08,-1628.04"/>
</g>
<!-- ReceiveOnInitialized__15 -->
<g id="node34" class="node">
<title>ReceiveOnInitialized__15</title>
<polygon fill="#eeeeee" stroke="black" points="1559,-1580.5 1559,-1618.5 1675,-1618.5 1675,-1580.5 1559,-1580.5"/>
<text text-anchor="start" x="1567" y="-1603.3" font-family="monospace" font-size="14.00">EX_Return</text>
<text text-anchor="start" x="1567" y="-1588.3" font-family="monospace" font-size="14.00">  EX_Nothing</text>
</g>
<!-- ReceiveOnInitialized__0&#45;&gt;ReceiveOnInitialized__15 -->
<g id="edge31" class="edge">
<title>ReceiveOnInitialized__0&#45;&gt;ReceiveOnInitialized__15</title>
<path fill="none" stroke="black" d="M1617,-1692.83C1617,-1675.85 1617,-1649.88 1617,-1629.81"/>
<polygon fill="black" stroke="black" points="1620.5,-1630.01 1617,-1620.01 1613.5,-1630.01 1620.5,-1630.01"/>
</g>
<!-- ReceiveOnInitialized__17 -->
<g id="node35" class="node">
<title>ReceiveOnInitialized__17</title>
<polygon fill="#eeeeee" stroke="black" points="2119,-1637.5 2119,-1673.5 2251,-1673.5 2251,-1637.5 2119,-1637.5"/>
<text text-anchor="start" x="2127" y="-1651.8" font-family="monospace" font-size="14.00">EX_EndOfScript</text>
</g>
</g>
</svg>
