<?xml version="1.0" encoding="UTF-8" standalone="no"?>
<!DOCTYPE svg PUBLIC "-//W3C//DTD SVG 1.1//EN"
 "http://www.w3.org/Graphics/SVG/1.1/DTD/svg11.dtd">
<!-- Generated by graphviz version 7.0.1 (0)
 -->
<!-- Pages: 1 -->
<svg width="3067pt" height="2192pt"
 viewBox="0.00 0.00 3067.00 2192.00" xmlns="http://www.w3.org/2000/svg" xmlns:xlink="http://www.w3.org/1999/xlink">
<g id="graph0" class="graph" transform="scale(1 1) rotate(0) translate(4 2188)">
<polygon fill="white" stroke="none" points="-4,4 -4,-2188 3063,-2188 3063,4 -4,4"/>
<!-- Tutorial_Hint_Nitra_C -->
<g id="node1" class="node">
<title>Tutorial_Hint_Nitra_C</title>
<polygon fill="#88ff88" stroke="black" points="0,-2003 0,-2176 520,-2176 520,-2003 0,-2003"/>
<text text-anchor="start" x="8" y="-2160.8" font-family="monospace" font-size="14.00">ClassExport: Tutorial_Hint_Nitra_C</text>
<text text-anchor="start" x="8" y="-2145.8" font-family="monospace" font-size="14.00">  SuperStruct: import /Script/FSD&#45;&gt;TutorialHintComponent</text>
<text text-anchor="start" x="8" y="-2130.8" font-family="monospace" font-size="14.00">  Properties:</text>
<text text-anchor="start" x="8" y="-2115.8" font-family="monospace" font-size="14.00">    StructProperty UberGraphFrame</text>
<text text-anchor="start" x="8" y="-2100.8" font-family="monospace" font-size="14.00">      CPF_Transient|CPF_DuplicateTransient</text>
<text text-anchor="start" x="8" y="-2085.8" font-family="monospace" font-size="14.00">    ObjectProperty Resource</text>
<text text-anchor="start" x="8" y="-2070.8" font-family="monospace" font-size="14.00">      CPF_Edit|CPF_BlueprintVisible|CPF_DisableEditOnInstance</text>
<text text-anchor="start" x="8" y="-2055.8" font-family="monospace" font-size="14.00">    FloatProperty MinimumAmount</text>
<text text-anchor="start" x="8" y="-2040.8" font-family="monospace" font-size="14.00">      CPF_Edit|CPF_BlueprintVisible|CPF_DisableEditOnInstance</text>
<text text-anchor="start" x="8" y="-2025.8" font-family="monospace" font-size="14.00">    FloatProperty DelayBeforeActive</text>
<text text-anchor="start" x="8" y="-2010.8" font-family="monospace" font-size="14.00">      CPF_Edit|CPF_BlueprintVisible</text>
</g>
<!-- ExecuteUbergraph_Tutorial_Hint_Nitra -->
<g id="node2" class="node">
<title>ExecuteUbergraph_Tutorial_Hint_Nitra</title>
<polygon fill="#ff8888" stroke="black" points="538.5,-1995.5 538.5,-2183.5 1041.5,-2183.5 1041.5,-1995.5 538.5,-1995.5"/>
<text text-anchor="start" x="546.5" y="-2168.3" font-family="monospace" font-size="14.00">Function ExecuteUbergraph_Tutorial_Hint_Nitra</text>
<text text-anchor="start" x="546.5" y="-2153.3" font-family="monospace" font-size="14.00">  IntProperty EntryPoint</text>
<text text-anchor="start" x="546.5" y="-2138.3" font-family="monospace" font-size="14.00">    CPF_BlueprintVisible|CPF_BlueprintReadOnly|CPF_Parm</text>
<text text-anchor="start" x="546.5" y="-2123.3" font-family="monospace" font-size="14.00">  ObjectProperty CallFunc_GetFSDGameData_ReturnValue</text>
<text text-anchor="start" x="546.5" y="-2108.3" font-family="monospace" font-size="14.00">  BoolProperty CallFunc_IsValid_ReturnValue</text>
<text text-anchor="start" x="546.5" y="-2093.3" font-family="monospace" font-size="14.00">  DelegateProperty K2Node_CreateDelegate_OutputDelegate</text>
<text text-anchor="start" x="546.5" y="-2078.3" font-family="monospace" font-size="14.00">  ObjectProperty K2Node_CustomEvent_Resource</text>
<text text-anchor="start" x="546.5" y="-2063.3" font-family="monospace" font-size="14.00">  FloatProperty K2Node_CustomEvent_amount</text>
<text text-anchor="start" x="546.5" y="-2048.3" font-family="monospace" font-size="14.00">  BoolProperty CallFunc_IsValid_ReturnValue_1</text>
<text text-anchor="start" x="546.5" y="-2033.3" font-family="monospace" font-size="14.00">  BoolProperty CallFunc_IsValid_ReturnValue_2</text>
<text text-anchor="start" x="546.5" y="-2018.3" font-family="monospace" font-size="14.00">  ObjectProperty CallFunc_GetResource_ReturnValue</text>
<text text-anchor="start" x="546.5" y="-2003.3" font-family="monospace" font-size="14.00">  BoolProperty CallFunc_GreaterEqual_FloatFloat_ReturnValue</text>
</g>
<!-- ExecuteUbergraph_Tutorial_Hint_Nitra__0 -->
<g id="node3" class="node">
<title>ExecuteUbergraph_Tutorial_Hint_Nitra__0</title>
<polygon fill="#eeeeee" stroke="black" points="682.5,-1884.5 682.5,-1920.5 897.5,-1920.5 897.5,-1884.5 682.5,-1884.5"/>
<text text-anchor="start" x="690.5" y="-1898.8" font-family="monospace" font-size="14.00">EX_PushExecutionFlow 577</text>
</g>
<!-- ExecuteUbergraph_Tutorial_Hint_Nitra&#45;&gt;ExecuteUbergraph_Tutorial_Hint_Nitra__0 -->
<g id="edge1" class="edge">
<title>ExecuteUbergraph_Tutorial_Hint_Nitra&#45;&gt;ExecuteUbergraph_Tutorial_Hint_Nitra__0</title>
<path fill="none" stroke="black" d="M790,-1995.73C790,-1972.37 790,-1949.03 790,-1931.68"/>
<polygon fill="black" stroke="black" points="793.5,-1931.7 790,-1921.7 786.5,-1931.7 793.5,-1931.7"/>
</g>
<!-- ExecuteUbergraph_Tutorial_Hint_Nitra__5 -->
<g id="node4" class="node">
<title>ExecuteUbergraph_Tutorial_Hint_Nitra__5</title>
<polygon fill="#eeeeee" stroke="black" points="602,-1771.5 602,-1809.5 874,-1809.5 874,-1771.5 602,-1771.5"/>
<text text-anchor="start" x="610" y="-1794.3" font-family="monospace" font-size="14.00">EX_ComputedJump</text>
<text text-anchor="start" x="610" y="-1779.3" font-family="monospace" font-size="14.00">  EX_LocalVariable [EntryPoint]</text>
</g>
<!-- ExecuteUbergraph_Tutorial_Hint_Nitra__0&#45;&gt;ExecuteUbergraph_Tutorial_Hint_Nitra__5 -->
<g id="edge3" class="edge">
<title>ExecuteUbergraph_Tutorial_Hint_Nitra__0&#45;&gt;ExecuteUbergraph_Tutorial_Hint_Nitra__5</title>
<path fill="none" stroke="black" d="M782.1,-1884.79C773.96,-1867.57 761.12,-1840.41 751.39,-1819.83"/>
<polygon fill="black" stroke="black" points="754.58,-1818.38 747.14,-1810.83 748.25,-1821.37 754.58,-1818.38"/>
</g>
<!-- ExecuteUbergraph_Tutorial_Hint_Nitra__577 -->
<g id="node27" class="node">
<title>ExecuteUbergraph_Tutorial_Hint_Nitra__577</title>
<polygon fill="#eeeeee" stroke="black" points="892,-1771.5 892,-1809.5 1008,-1809.5 1008,-1771.5 892,-1771.5"/>
<text text-anchor="start" x="900" y="-1794.3" font-family="monospace" font-size="14.00">EX_Return</text>
<text text-anchor="start" x="900" y="-1779.3" font-family="monospace" font-size="14.00">  EX_Nothing</text>
</g>
<!-- ExecuteUbergraph_Tutorial_Hint_Nitra__0&#45;&gt;ExecuteUbergraph_Tutorial_Hint_Nitra__577 -->
<g id="edge2" class="edge">
<title>ExecuteUbergraph_Tutorial_Hint_Nitra__0:e&#45;&gt;ExecuteUbergraph_Tutorial_Hint_Nitra__577</title>
<path fill="none" stroke="red" d="M899,-1902.5C908.21,-1902.5 902.44,-1891.49 906,-1883 915.06,-1861.35 926.6,-1837.48 935.58,-1819.54"/>
<polygon fill="none" stroke="red" points="938.6,-1821.33 939.99,-1810.83 932.35,-1818.17 938.6,-1821.33"/>
<text text-anchor="middle" x="972.5" y="-1842.8" font-family="monospace" font-size="14.00">PUSH STACK</text>
</g>
<!-- ExecuteUbergraph_Tutorial_Hint_Nitra__15 -->
<g id="node5" class="node">
<title>ExecuteUbergraph_Tutorial_Hint_Nitra__15</title>
<polygon fill="#eeeeee" stroke="black" points="1741.5,-210.5 1741.5,-263.5 2228.5,-263.5 2228.5,-210.5 1741.5,-210.5"/>
<text text-anchor="start" x="1749.5" y="-248.3" font-family="monospace" font-size="14.00">EX_BindDelegate OnIncreased_Event</text>
<text text-anchor="start" x="1749.5" y="-233.3" font-family="monospace" font-size="14.00">  EX_LocalVariable [K2Node_CreateDelegate_OutputDelegate]</text>
<text text-anchor="start" x="1749.5" y="-218.3" font-family="monospace" font-size="14.00">  EX_Self</text>
</g>
<!-- ExecuteUbergraph_Tutorial_Hint_Nitra__38 -->
<g id="node6" class="node">
<title>ExecuteUbergraph_Tutorial_Hint_Nitra__38</title>
<polygon fill="#eeeeee" stroke="black" points="1741.5,-74.5 1741.5,-172.5 2228.5,-172.5 2228.5,-74.5 1741.5,-74.5"/>
<text text-anchor="start" x="1749.5" y="-157.3" font-family="monospace" font-size="14.00">EX_AddMulticastDelegate</text>
<text text-anchor="start" x="1749.5" y="-142.3" font-family="monospace" font-size="14.00">  EX_Context</text>
<text text-anchor="start" x="1749.5" y="-127.3" font-family="monospace" font-size="14.00">    EX_InstanceVariable [Resource]</text>
<text text-anchor="start" x="1749.5" y="-112.3" font-family="monospace" font-size="14.00">    EX_InstanceVariable [OnIncreased]</text>
<text text-anchor="start" x="1749.5" y="-97.3" font-family="monospace" font-size="14.00">    RValue = [OnIncreased]</text>
<text text-anchor="start" x="1749.5" y="-82.3" font-family="monospace" font-size="14.00">  EX_LocalVariable [K2Node_CreateDelegate_OutputDelegate]</text>
</g>
<!-- ExecuteUbergraph_Tutorial_Hint_Nitra__15&#45;&gt;ExecuteUbergraph_Tutorial_Hint_Nitra__38 -->
<g id="edge4" class="edge">
<title>ExecuteUbergraph_Tutorial_Hint_Nitra__15&#45;&gt;ExecuteUbergraph_Tutorial_Hint_Nitra__38</title>
<path fill="none" stroke="black" d="M1985,-210.7C1985,-202.48 1985,-192.98 1985,-183.37"/>
<polygon fill="black" stroke="black" points="1988.5,-183.6 1985,-173.6 1981.5,-183.6 1988.5,-183.6"/>
</g>
<!-- ExecuteUbergraph_Tutorial_Hint_Nitra__79 -->
<g id="node7" class="node">
<title>ExecuteUbergraph_Tutorial_Hint_Nitra__79</title>
<polygon fill="#eeeeee" stroke="black" points="1898.5,-0.5 1898.5,-36.5 2071.5,-36.5 2071.5,-0.5 1898.5,-0.5"/>
<text text-anchor="start" x="1906.5" y="-14.8" font-family="monospace" font-size="14.00">EX_PopExecutionFlow</text>
</g>
<!-- ExecuteUbergraph_Tutorial_Hint_Nitra__38&#45;&gt;ExecuteUbergraph_Tutorial_Hint_Nitra__79 -->
<g id="edge5" class="edge">
<title>ExecuteUbergraph_Tutorial_Hint_Nitra__38&#45;&gt;ExecuteUbergraph_Tutorial_Hint_Nitra__79</title>
<path fill="none" stroke="black" d="M1985,-74.62C1985,-65.44 1985,-56.11 1985,-47.8"/>
<polygon fill="black" stroke="black" points="1988.5,-48 1985,-38 1981.5,-48 1988.5,-48"/>
</g>
<!-- ExecuteUbergraph_Tutorial_Hint_Nitra__80 -->
<g id="node8" class="node">
<title>ExecuteUbergraph_Tutorial_Hint_Nitra__80</title>
<polygon fill="#eeeeee" stroke="black" points="1382.5,-543.5 1382.5,-611.5 1935.5,-611.5 1935.5,-543.5 1382.5,-543.5"/>
<text text-anchor="start" x="1390.5" y="-596.3" font-family="monospace" font-size="14.00">EX_LetBool</text>
<text text-anchor="start" x="1390.5" y="-581.3" font-family="monospace" font-size="14.00">  EX_LocalVariable [CallFunc_IsValid_ReturnValue]</text>
<text text-anchor="start" x="1390.5" y="-566.3" font-family="monospace" font-size="14.00">  EX_CallMath import /Script/Engine&#45;&gt;KismetSystemLibrary&#45;&gt;IsValid</text>
<text text-anchor="start" x="1390.5" y="-551.3" font-family="monospace" font-size="14.00">    EX_InstanceVariable [Resource]</text>
</g>
<!-- ExecuteUbergraph_Tutorial_Hint_Nitra__109 -->
<g id="node9" class="node">
<title>ExecuteUbergraph_Tutorial_Hint_Nitra__109</title>
<polygon fill="#eeeeee" stroke="black" points="1448.5,-467.5 1448.5,-505.5 1869.5,-505.5 1869.5,-467.5 1448.5,-467.5"/>
<text text-anchor="start" x="1456.5" y="-490.3" font-family="monospace" font-size="14.00">EX_PopExecutionFlowIfNot</text>
<text text-anchor="start" x="1456.5" y="-475.3" font-family="monospace" font-size="14.00">  EX_LocalVariable [CallFunc_IsValid_ReturnValue]</text>
</g>
<!-- ExecuteUbergraph_Tutorial_Hint_Nitra__80&#45;&gt;ExecuteUbergraph_Tutorial_Hint_Nitra__109 -->
<g id="edge6" class="edge">
<title>ExecuteUbergraph_Tutorial_Hint_Nitra__80&#45;&gt;ExecuteUbergraph_Tutorial_Hint_Nitra__109</title>
<path fill="none" stroke="black" d="M1659,-543.61C1659,-534.79 1659,-525.32 1659,-516.72"/>
<polygon fill="black" stroke="black" points="1662.5,-516.8 1659,-506.8 1655.5,-516.8 1662.5,-516.8"/>
</g>
<!-- ExecuteUbergraph_Tutorial_Hint_Nitra__119 -->
<g id="node10" class="node">
<title>ExecuteUbergraph_Tutorial_Hint_Nitra__119</title>
<polygon fill="#eeeeee" stroke="black" points="1399,-301.5 1399,-429.5 1919,-429.5 1919,-301.5 1399,-301.5"/>
<text text-anchor="start" x="1407" y="-414.3" font-family="monospace" font-size="14.00">EX_CallMath import /Script/Engine&#45;&gt;KismetSystemLibrary&#45;&gt;Delay</text>
<text text-anchor="start" x="1407" y="-399.3" font-family="monospace" font-size="14.00">  EX_Self</text>
<text text-anchor="start" x="1407" y="-384.3" font-family="monospace" font-size="14.00">  EX_InstanceVariable [DelayBeforeActive]</text>
<text text-anchor="start" x="1407" y="-369.3" font-family="monospace" font-size="14.00">  EX_StructConst import /Script/Engine&#45;&gt;LatentActionInfo</text>
<text text-anchor="start" x="1407" y="-354.3" font-family="monospace" font-size="14.00">    EX_SkipOffsetConst 15</text>
<text text-anchor="start" x="1407" y="-339.3" font-family="monospace" font-size="14.00">    EX_IntConst 565057748</text>
<text text-anchor="start" x="1407" y="-324.3" font-family="monospace" font-size="14.00">    EX_NameConst ExecuteUbergraph_Tutorial_Hint_Nitra</text>
<text text-anchor="start" x="1407" y="-309.3" font-family="monospace" font-size="14.00">    EX_Self</text>
</g>
<!-- ExecuteUbergraph_Tutorial_Hint_Nitra__109&#45;&gt;ExecuteUbergraph_Tutorial_Hint_Nitra__119 -->
<g id="edge7" class="edge">
<title>ExecuteUbergraph_Tutorial_Hint_Nitra__109&#45;&gt;ExecuteUbergraph_Tutorial_Hint_Nitra__119</title>
<path fill="none" stroke="black" d="M1659,-467.68C1659,-460.1 1659,-450.7 1659,-440.71"/>
<polygon fill="black" stroke="black" points="1662.5,-440.76 1659,-430.76 1655.5,-440.76 1662.5,-440.76"/>
</g>
<!-- ExecuteUbergraph_Tutorial_Hint_Nitra__119&#45;&gt;ExecuteUbergraph_Tutorial_Hint_Nitra__15 -->
<g id="edge8" class="edge">
<title>ExecuteUbergraph_Tutorial_Hint_Nitra__119:e&#45;&gt;ExecuteUbergraph_Tutorial_Hint_Nitra__15</title>
<path fill="none" stroke="red" d="M1920,-365.5C1961.09,-365.5 1976.22,-312.28 1981.78,-274.61"/>
<polygon fill="none" stroke="red" points="1985.21,-275.36 1983.02,-265 1978.27,-274.47 1985.21,-275.36"/>
</g>
<!-- ExecuteUbergraph_Tutorial_Hint_Nitra__177 -->
<g id="node11" class="node">
<title>ExecuteUbergraph_Tutorial_Hint_Nitra__177</title>
<polygon fill="#eeeeee" stroke="black" points="1550.5,-219 1550.5,-255 1723.5,-255 1723.5,-219 1550.5,-219"/>
<text text-anchor="start" x="1558.5" y="-233.3" font-family="monospace" font-size="14.00">EX_PopExecutionFlow</text>
</g>
<!-- ExecuteUbergraph_Tutorial_Hint_Nitra__119&#45;&gt;ExecuteUbergraph_Tutorial_Hint_Nitra__177 -->
<g id="edge9" class="edge">
<title>ExecuteUbergraph_Tutorial_Hint_Nitra__119&#45;&gt;ExecuteUbergraph_Tutorial_Hint_Nitra__177</title>
<path fill="none" stroke="black" d="M1648.06,-301.62C1645.89,-289.1 1643.7,-276.55 1641.86,-265.95"/>
<polygon fill="black" stroke="black" points="1645.36,-265.66 1640.2,-256.41 1638.47,-266.86 1645.36,-265.66"/>
</g>
<!-- ExecuteUbergraph_Tutorial_Hint_Nitra__178 -->
<g id="node12" class="node">
<title>ExecuteUbergraph_Tutorial_Hint_Nitra__178</title>
<polygon fill="#eeeeee" stroke="black" points="2391,-1463.5 2391,-1591.5 3059,-1591.5 3059,-1463.5 2391,-1463.5"/>
<text text-anchor="start" x="2399" y="-1576.3" font-family="monospace" font-size="14.00">EX_LetBool</text>
<text text-anchor="start" x="2399" y="-1561.3" font-family="monospace" font-size="14.00">  EX_LocalVariable [CallFunc_GreaterEqual_FloatFloat_ReturnValue]</text>
<text text-anchor="start" x="2399" y="-1546.3" font-family="monospace" font-size="14.00">  EX_CallMath import /Script/Engine&#45;&gt;KismetMathLibrary&#45;&gt;GreaterEqual_FloatFloat</text>
<text text-anchor="start" x="2399" y="-1531.3" font-family="monospace" font-size="14.00">    EX_Context</text>
<text text-anchor="start" x="2399" y="-1516.3" font-family="monospace" font-size="14.00">      EX_LocalVariable [K2Node_CustomEvent_Resource]</text>
<text text-anchor="start" x="2399" y="-1501.3" font-family="monospace" font-size="14.00">      EX_InstanceVariable [CurrentAmount]</text>
<text text-anchor="start" x="2399" y="-1486.3" font-family="monospace" font-size="14.00">      RValue = [CurrentAmount]</text>
<text text-anchor="start" x="2399" y="-1471.3" font-family="monospace" font-size="14.00">    EX_InstanceVariable [MinimumAmount]</text>
</g>
<!-- ExecuteUbergraph_Tutorial_Hint_Nitra__238 -->
<g id="node13" class="node">
<title>ExecuteUbergraph_Tutorial_Hint_Nitra__238</title>
<polygon fill="#eeeeee" stroke="black" points="2448.5,-1350 2448.5,-1388 3001.5,-1388 3001.5,-1350 2448.5,-1350"/>
<text text-anchor="start" x="2456.5" y="-1372.8" font-family="monospace" font-size="14.00">EX_PopExecutionFlowIfNot</text>
<text text-anchor="start" x="2456.5" y="-1357.8" font-family="monospace" font-size="14.00">  EX_LocalVariable [CallFunc_GreaterEqual_FloatFloat_ReturnValue]</text>
</g>
<!-- ExecuteUbergraph_Tutorial_Hint_Nitra__178&#45;&gt;ExecuteUbergraph_Tutorial_Hint_Nitra__238 -->
<g id="edge10" class="edge">
<title>ExecuteUbergraph_Tutorial_Hint_Nitra__178&#45;&gt;ExecuteUbergraph_Tutorial_Hint_Nitra__238</title>
<path fill="none" stroke="black" d="M2725,-1463.75C2725,-1441.39 2725,-1417.28 2725,-1399.11"/>
<polygon fill="black" stroke="black" points="2728.5,-1399.35 2725,-1389.35 2721.5,-1399.35 2728.5,-1399.35"/>
</g>
<!-- ExecuteUbergraph_Tutorial_Hint_Nitra__248 -->
<g id="node14" class="node">
<title>ExecuteUbergraph_Tutorial_Hint_Nitra__248</title>
<polygon fill="#eeeeee" stroke="black" points="2481.5,-1221.5 2481.5,-1274.5 2968.5,-1274.5 2968.5,-1221.5 2481.5,-1221.5"/>
<text text-anchor="start" x="2489.5" y="-1259.3" font-family="monospace" font-size="14.00">EX_BindDelegate OnIncreased_Event</text>
<text text-anchor="start" x="2489.5" y="-1244.3" font-family="monospace" font-size="14.00">  EX_LocalVariable [K2Node_CreateDelegate_OutputDelegate]</text>
<text text-anchor="start" x="2489.5" y="-1229.3" font-family="monospace" font-size="14.00">  EX_Self</text>
</g>
<!-- ExecuteUbergraph_Tutorial_Hint_Nitra__238&#45;&gt;ExecuteUbergraph_Tutorial_Hint_Nitra__248 -->
<g id="edge11" class="edge">
<title>ExecuteUbergraph_Tutorial_Hint_Nitra__238&#45;&gt;ExecuteUbergraph_Tutorial_Hint_Nitra__248</title>
<path fill="none" stroke="black" d="M2725,-1350.18C2725,-1333.23 2725,-1307.19 2725,-1285.77"/>
<polygon fill="black" stroke="black" points="2728.5,-1285.95 2725,-1275.95 2721.5,-1285.95 2728.5,-1285.95"/>
</g>
<!-- ExecuteUbergraph_Tutorial_Hint_Nitra__271 -->
<g id="node15" class="node">
<title>ExecuteUbergraph_Tutorial_Hint_Nitra__271</title>
<polygon fill="#eeeeee" stroke="black" points="2481.5,-1085.5 2481.5,-1183.5 2968.5,-1183.5 2968.5,-1085.5 2481.5,-1085.5"/>
<text text-anchor="start" x="2489.5" y="-1168.3" font-family="monospace" font-size="14.00">EX_RemoveMulticastDelegate</text>
<text text-anchor="start" x="2489.5" y="-1153.3" font-family="monospace" font-size="14.00">  EX_Context</text>
<text text-anchor="start" x="2489.5" y="-1138.3" font-family="monospace" font-size="14.00">    EX_InstanceVariable [Resource]</text>
<text text-anchor="start" x="2489.5" y="-1123.3" font-family="monospace" font-size="14.00">    EX_InstanceVariable [OnIncreased]</text>
<text text-anchor="start" x="2489.5" y="-1108.3" font-family="monospace" font-size="14.00">    RValue = [OnIncreased]</text>
<text text-anchor="start" x="2489.5" y="-1093.3" font-family="monospace" font-size="14.00">  EX_LocalVariable [K2Node_CreateDelegate_OutputDelegate]</text>
</g>
<!-- ExecuteUbergraph_Tutorial_Hint_Nitra__248&#45;&gt;ExecuteUbergraph_Tutorial_Hint_Nitra__271 -->
<g id="edge12" class="edge">
<title>ExecuteUbergraph_Tutorial_Hint_Nitra__248&#45;&gt;ExecuteUbergraph_Tutorial_Hint_Nitra__271</title>
<path fill="none" stroke="black" d="M2725,-1221.7C2725,-1213.48 2725,-1203.98 2725,-1194.37"/>
<polygon fill="black" stroke="black" points="2728.5,-1194.6 2725,-1184.6 2721.5,-1194.6 2728.5,-1194.6"/>
</g>
<!-- ExecuteUbergraph_Tutorial_Hint_Nitra__312 -->
<g id="node16" class="node">
<title>ExecuteUbergraph_Tutorial_Hint_Nitra__312</title>
<polygon fill="#eeeeee" stroke="black" points="2403,-913 2403,-949 3047,-949 3047,-913 2403,-913"/>
<text text-anchor="start" x="2411" y="-927.3" font-family="monospace" font-size="14.00">EX_FinalFunction import /Script/FSD&#45;&gt;TutorialComponent&#45;&gt;MarkTutorialReadyNow</text>
</g>
<!-- ExecuteUbergraph_Tutorial_Hint_Nitra__271&#45;&gt;ExecuteUbergraph_Tutorial_Hint_Nitra__312 -->
<g id="edge13" class="edge">
<title>ExecuteUbergraph_Tutorial_Hint_Nitra__271&#45;&gt;ExecuteUbergraph_Tutorial_Hint_Nitra__312</title>
<path fill="none" stroke="black" d="M2725,-1085.75C2725,-1046.53 2725,-992.34 2725,-959.87"/>
<polygon fill="black" stroke="black" points="2728.5,-960.08 2725,-950.08 2721.5,-960.08 2728.5,-960.08"/>
</g>
<!-- ExecuteUbergraph_Tutorial_Hint_Nitra__322 -->
<g id="node17" class="node">
<title>ExecuteUbergraph_Tutorial_Hint_Nitra__322</title>
<polygon fill="#eeeeee" stroke="black" points="2638.5,-732 2638.5,-768 2811.5,-768 2811.5,-732 2638.5,-732"/>
<text text-anchor="start" x="2646.5" y="-746.3" font-family="monospace" font-size="14.00">EX_PopExecutionFlow</text>
</g>
<!-- ExecuteUbergraph_Tutorial_Hint_Nitra__312&#45;&gt;ExecuteUbergraph_Tutorial_Hint_Nitra__322 -->
<g id="edge14" class="edge">
<title>ExecuteUbergraph_Tutorial_Hint_Nitra__312&#45;&gt;ExecuteUbergraph_Tutorial_Hint_Nitra__322</title>
<path fill="none" stroke="black" d="M2725,-913.16C2725,-882.38 2725,-816.73 2725,-779.08"/>
<polygon fill="black" stroke="black" points="2728.5,-779.44 2725,-769.44 2721.5,-779.44 2728.5,-779.44"/>
</g>
<!-- ExecuteUbergraph_Tutorial_Hint_Nitra__323 -->
<g id="node18" class="node">
<title>ExecuteUbergraph_Tutorial_Hint_Nitra__323</title>
<polygon fill="#eeeeee" stroke="black" points="1382.5,-1629.5 1382.5,-1697.5 1935.5,-1697.5 1935.5,-1629.5 1382.5,-1629.5"/>
<text text-anchor="start" x="1390.5" y="-1682.3" font-family="monospace" font-size="14.00">EX_LetBool</text>
<text text-anchor="start" x="1390.5" y="-1667.3" font-family="monospace" font-size="14.00">  EX_LocalVariable [CallFunc_IsValid_ReturnValue_1]</text>
<text text-anchor="start" x="1390.5" y="-1652.3" font-family="monospace" font-size="14.00">  EX_CallMath import /Script/Engine&#45;&gt;KismetSystemLibrary&#45;&gt;IsValid</text>
<text text-anchor="start" x="1390.5" y="-1637.3" font-family="monospace" font-size="14.00">    EX_InstanceVariable [PlayerState]</text>
</g>
<!-- ExecuteUbergraph_Tutorial_Hint_Nitra__352 -->
<g id="node19" class="node">
<title>ExecuteUbergraph_Tutorial_Hint_Nitra__352</title>
<polygon fill="#eeeeee" stroke="black" points="1440.5,-1508.5 1440.5,-1546.5 1877.5,-1546.5 1877.5,-1508.5 1440.5,-1508.5"/>
<text text-anchor="start" x="1448.5" y="-1531.3" font-family="monospace" font-size="14.00">EX_PopExecutionFlowIfNot</text>
<text text-anchor="start" x="1448.5" y="-1516.3" font-family="monospace" font-size="14.00">  EX_LocalVariable [CallFunc_IsValid_ReturnValue_1]</text>
</g>
<!-- ExecuteUbergraph_Tutorial_Hint_Nitra__323&#45;&gt;ExecuteUbergraph_Tutorial_Hint_Nitra__352 -->
<g id="edge15" class="edge">
<title>ExecuteUbergraph_Tutorial_Hint_Nitra__323&#45;&gt;ExecuteUbergraph_Tutorial_Hint_Nitra__352</title>
<path fill="none" stroke="black" d="M1659,-1629.72C1659,-1607.6 1659,-1578.67 1659,-1557.4"/>
<polygon fill="black" stroke="black" points="1662.5,-1557.69 1659,-1547.69 1655.5,-1557.69 1662.5,-1557.69"/>
</g>
<!-- ExecuteUbergraph_Tutorial_Hint_Nitra__362 -->
<g id="node20" class="node">
<title>ExecuteUbergraph_Tutorial_Hint_Nitra__362</title>
<polygon fill="#eeeeee" stroke="black" points="1382.5,-1312.5 1382.5,-1425.5 1935.5,-1425.5 1935.5,-1312.5 1382.5,-1312.5"/>
<text text-anchor="start" x="1390.5" y="-1410.3" font-family="monospace" font-size="14.00">EX_LetBool</text>
<text text-anchor="start" x="1390.5" y="-1395.3" font-family="monospace" font-size="14.00">  EX_LocalVariable [CallFunc_IsValid_ReturnValue_2]</text>
<text text-anchor="start" x="1390.5" y="-1380.3" font-family="monospace" font-size="14.00">  EX_CallMath import /Script/Engine&#45;&gt;KismetSystemLibrary&#45;&gt;IsValid</text>
<text text-anchor="start" x="1390.5" y="-1365.3" font-family="monospace" font-size="14.00">    EX_Context</text>
<text text-anchor="start" x="1390.5" y="-1350.3" font-family="monospace" font-size="14.00">      EX_InstanceVariable [PlayerState]</text>
<text text-anchor="start" x="1390.5" y="-1335.3" font-family="monospace" font-size="14.00">      EX_InstanceVariable [PlayerResources]</text>
<text text-anchor="start" x="1390.5" y="-1320.3" font-family="monospace" font-size="14.00">      RValue = [PlayerResources]</text>
</g>
<!-- ExecuteUbergraph_Tutorial_Hint_Nitra__352&#45;&gt;ExecuteUbergraph_Tutorial_Hint_Nitra__362 -->
<g id="edge16" class="edge">
<title>ExecuteUbergraph_Tutorial_Hint_Nitra__352&#45;&gt;ExecuteUbergraph_Tutorial_Hint_Nitra__362</title>
<path fill="none" stroke="black" d="M1659,-1508.55C1659,-1490.92 1659,-1462.94 1659,-1436.73"/>
<polygon fill="black" stroke="black" points="1662.5,-1436.76 1659,-1426.76 1655.5,-1436.76 1662.5,-1436.76"/>
</g>
<!-- ExecuteUbergraph_Tutorial_Hint_Nitra__413 -->
<g id="node21" class="node">
<title>ExecuteUbergraph_Tutorial_Hint_Nitra__413</title>
<polygon fill="#eeeeee" stroke="black" points="1440.5,-1229 1440.5,-1267 1877.5,-1267 1877.5,-1229 1440.5,-1229"/>
<text text-anchor="start" x="1448.5" y="-1251.8" font-family="monospace" font-size="14.00">EX_PopExecutionFlowIfNot</text>
<text text-anchor="start" x="1448.5" y="-1236.8" font-family="monospace" font-size="14.00">  EX_LocalVariable [CallFunc_IsValid_ReturnValue_2]</text>
</g>
<!-- ExecuteUbergraph_Tutorial_Hint_Nitra__362&#45;&gt;ExecuteUbergraph_Tutorial_Hint_Nitra__413 -->
<g id="edge17" class="edge">
<title>ExecuteUbergraph_Tutorial_Hint_Nitra__362&#45;&gt;ExecuteUbergraph_Tutorial_Hint_Nitra__413</title>
<path fill="none" stroke="black" d="M1659,-1312.68C1659,-1300.81 1659,-1288.73 1659,-1278.31"/>
<polygon fill="black" stroke="black" points="1662.5,-1278.49 1659,-1268.49 1655.5,-1278.49 1662.5,-1278.49"/>
</g>
<!-- ExecuteUbergraph_Tutorial_Hint_Nitra__423 -->
<g id="node22" class="node">
<title>ExecuteUbergraph_Tutorial_Hint_Nitra__423</title>
<polygon fill="#eeeeee" stroke="black" points="1366,-1108 1366,-1161 1952,-1161 1952,-1108 1366,-1108"/>
<text text-anchor="start" x="1374" y="-1145.8" font-family="monospace" font-size="14.00">EX_LetObj</text>
<text text-anchor="start" x="1374" y="-1130.8" font-family="monospace" font-size="14.00">  EX_LocalVariable [CallFunc_GetFSDGameData_ReturnValue]</text>
<text text-anchor="start" x="1374" y="-1115.8" font-family="monospace" font-size="14.00">  EX_CallMath import /Script/FSD&#45;&gt;GameFunctionLibrary&#45;&gt;GetFSDGameData</text>
</g>
<!-- ExecuteUbergraph_Tutorial_Hint_Nitra__413&#45;&gt;ExecuteUbergraph_Tutorial_Hint_Nitra__423 -->
<g id="edge18" class="edge">
<title>ExecuteUbergraph_Tutorial_Hint_Nitra__413&#45;&gt;ExecuteUbergraph_Tutorial_Hint_Nitra__423</title>
<path fill="none" stroke="black" d="M1659,-1229.09C1659,-1213.79 1659,-1191.31 1659,-1172.21"/>
<polygon fill="black" stroke="black" points="1662.5,-1172.36 1659,-1162.36 1655.5,-1172.36 1662.5,-1172.36"/>
</g>
<!-- ExecuteUbergraph_Tutorial_Hint_Nitra__443 -->
<g id="node23" class="node">
<title>ExecuteUbergraph_Tutorial_Hint_Nitra__443</title>
<polygon fill="#eeeeee" stroke="black" points="1353.5,-814.5 1353.5,-1047.5 1964.5,-1047.5 1964.5,-814.5 1353.5,-814.5"/>
<text text-anchor="start" x="1361.5" y="-1032.3" font-family="monospace" font-size="14.00">EX_LetObj</text>
<text text-anchor="start" x="1361.5" y="-1017.3" font-family="monospace" font-size="14.00">  EX_LocalVariable [CallFunc_GetResource_ReturnValue]</text>
<text text-anchor="start" x="1361.5" y="-1002.3" font-family="monospace" font-size="14.00">  EX_Context</text>
<text text-anchor="start" x="1361.5" y="-987.3" font-family="monospace" font-size="14.00">    EX_Context</text>
<text text-anchor="start" x="1361.5" y="-972.3" font-family="monospace" font-size="14.00">      EX_InstanceVariable [PlayerState]</text>
<text text-anchor="start" x="1361.5" y="-957.3" font-family="monospace" font-size="14.00">      EX_InstanceVariable [PlayerResources]</text>
<text text-anchor="start" x="1361.5" y="-942.3" font-family="monospace" font-size="14.00">      RValue = [PlayerResources]</text>
<text text-anchor="start" x="1361.5" y="-927.3" font-family="monospace" font-size="14.00">    EX_FinalFunction import /Script/FSD&#45;&gt;ResourcesComponent&#45;&gt;GetResource</text>
<text text-anchor="start" x="1361.5" y="-912.3" font-family="monospace" font-size="14.00">      EX_StructMemberContext [NitraResource]</text>
<text text-anchor="start" x="1361.5" y="-897.3" font-family="monospace" font-size="14.00">        EX_Context</text>
<text text-anchor="start" x="1361.5" y="-882.3" font-family="monospace" font-size="14.00">          EX_LocalVariable [CallFunc_GetFSDGameData_ReturnValue]</text>
<text text-anchor="start" x="1361.5" y="-867.3" font-family="monospace" font-size="14.00">          EX_InstanceVariable [Resources]</text>
<text text-anchor="start" x="1361.5" y="-852.3" font-family="monospace" font-size="14.00">          RValue = [Resources]</text>
<text text-anchor="start" x="1361.5" y="-837.3" font-family="monospace" font-size="14.00">      EX_True</text>
<text text-anchor="start" x="1361.5" y="-822.3" font-family="monospace" font-size="14.00">    RValue = [CallFunc_GetResource_ReturnValue]</text>
</g>
<!-- ExecuteUbergraph_Tutorial_Hint_Nitra__423&#45;&gt;ExecuteUbergraph_Tutorial_Hint_Nitra__443 -->
<g id="edge19" class="edge">
<title>ExecuteUbergraph_Tutorial_Hint_Nitra__423&#45;&gt;ExecuteUbergraph_Tutorial_Hint_Nitra__443</title>
<path fill="none" stroke="black" d="M1659,-1108.39C1659,-1094.98 1659,-1077.37 1659,-1058.46"/>
<polygon fill="black" stroke="black" points="1662.5,-1058.71 1659,-1048.71 1655.5,-1058.71 1662.5,-1058.71"/>
</g>
<!-- ExecuteUbergraph_Tutorial_Hint_Nitra__548 -->
<g id="node24" class="node">
<title>ExecuteUbergraph_Tutorial_Hint_Nitra__548</title>
<polygon fill="#eeeeee" stroke="black" points="1432,-723.5 1432,-776.5 1886,-776.5 1886,-723.5 1432,-723.5"/>
<text text-anchor="start" x="1440" y="-761.3" font-family="monospace" font-size="14.00">EX_LetObj</text>
<text text-anchor="start" x="1440" y="-746.3" font-family="monospace" font-size="14.00">  EX_InstanceVariable [Resource]</text>
<text text-anchor="start" x="1440" y="-731.3" font-family="monospace" font-size="14.00">  EX_LocalVariable [CallFunc_GetResource_ReturnValue]</text>
</g>
<!-- ExecuteUbergraph_Tutorial_Hint_Nitra__443&#45;&gt;ExecuteUbergraph_Tutorial_Hint_Nitra__548 -->
<g id="edge20" class="edge">
<title>ExecuteUbergraph_Tutorial_Hint_Nitra__443&#45;&gt;ExecuteUbergraph_Tutorial_Hint_Nitra__548</title>
<path fill="none" stroke="black" d="M1659,-814.61C1659,-805.07 1659,-795.95 1659,-787.76"/>
<polygon fill="black" stroke="black" points="1662.5,-787.97 1659,-777.97 1655.5,-787.97 1662.5,-787.97"/>
</g>
<!-- ExecuteUbergraph_Tutorial_Hint_Nitra__567 -->
<g id="node25" class="node">
<title>ExecuteUbergraph_Tutorial_Hint_Nitra__567</title>
<polygon fill="#eeeeee" stroke="black" points="1609.5,-649.5 1609.5,-685.5 1708.5,-685.5 1708.5,-649.5 1609.5,-649.5"/>
<text text-anchor="start" x="1617.5" y="-663.8" font-family="monospace" font-size="14.00">EX_Jump 80</text>
</g>
<!-- ExecuteUbergraph_Tutorial_Hint_Nitra__548&#45;&gt;ExecuteUbergraph_Tutorial_Hint_Nitra__567 -->
<g id="edge21" class="edge">
<title>ExecuteUbergraph_Tutorial_Hint_Nitra__548&#45;&gt;ExecuteUbergraph_Tutorial_Hint_Nitra__567</title>
<path fill="none" stroke="black" d="M1659,-723.53C1659,-714.92 1659,-705.25 1659,-696.46"/>
<polygon fill="black" stroke="black" points="1662.5,-696.69 1659,-686.69 1655.5,-696.69 1662.5,-696.69"/>
</g>
<!-- ExecuteUbergraph_Tutorial_Hint_Nitra__567&#45;&gt;ExecuteUbergraph_Tutorial_Hint_Nitra__80 -->
<g id="edge22" class="edge">
<title>ExecuteUbergraph_Tutorial_Hint_Nitra__567&#45;&gt;ExecuteUbergraph_Tutorial_Hint_Nitra__80</title>
<path fill="none" stroke="black" d="M1659,-649.53C1659,-641.86 1659,-632.4 1659,-622.92"/>
<polygon fill="black" stroke="black" points="1662.5,-622.97 1659,-612.97 1655.5,-622.97 1662.5,-622.97"/>
</g>
<!-- ExecuteUbergraph_Tutorial_Hint_Nitra__572 -->
<g id="node26" class="node">
<title>ExecuteUbergraph_Tutorial_Hint_Nitra__572</title>
<polygon fill="#eeeeee" stroke="black" points="1605.5,-1772.5 1605.5,-1808.5 1712.5,-1808.5 1712.5,-1772.5 1605.5,-1772.5"/>
<text text-anchor="start" x="1613.5" y="-1786.8" font-family="monospace" font-size="14.00">EX_Jump 323</text>
</g>
<!-- ExecuteUbergraph_Tutorial_Hint_Nitra__572&#45;&gt;ExecuteUbergraph_Tutorial_Hint_Nitra__323 -->
<g id="edge23" class="edge">
<title>ExecuteUbergraph_Tutorial_Hint_Nitra__572&#45;&gt;ExecuteUbergraph_Tutorial_Hint_Nitra__323</title>
<path fill="none" stroke="black" d="M1659,-1772.64C1659,-1756.37 1659,-1731.03 1659,-1708.97"/>
<polygon fill="black" stroke="black" points="1662.5,-1708.98 1659,-1698.98 1655.5,-1708.98 1662.5,-1708.98"/>
</g>
<!-- ExecuteUbergraph_Tutorial_Hint_Nitra__579 -->
<g id="node28" class="node">
<title>ExecuteUbergraph_Tutorial_Hint_Nitra__579</title>
<polygon fill="#eeeeee" stroke="black" points="2340,-1940.5 2340,-1976.5 2472,-1976.5 2472,-1940.5 2340,-1940.5"/>
<text text-anchor="start" x="2348" y="-1954.8" font-family="monospace" font-size="14.00">EX_EndOfScript</text>
</g>
<!-- ReceiveOnInitialized -->
<g id="node29" class="node">
<title>ReceiveOnInitialized</title>
<polygon fill="#ff8888" stroke="black" points="1159,-2071.5 1159,-2107.5 1415,-2107.5 1415,-2071.5 1159,-2071.5"/>
<text text-anchor="start" x="1167" y="-2085.8" font-family="monospace" font-size="14.00">Function ReceiveOnInitialized</text>
</g>
<!-- ReceiveOnInitialized__0 -->
<g id="node30" class="node">
<title>ReceiveOnInitialized__0</title>
<polygon fill="#eeeeee" stroke="black" points="915.5,-1883.5 915.5,-1921.5 1658.5,-1921.5 1658.5,-1883.5 915.5,-1883.5"/>
<text text-anchor="start" x="923.5" y="-1906.3" font-family="monospace" font-size="14.00">EX_LocalFinalFunction export Tutorial_Hint_Nitra_C&#45;&gt;ExecuteUbergraph_Tutorial_Hint_Nitra</text>
<text text-anchor="start" x="923.5" y="-1891.3" font-family="monospace" font-size="14.00">  EX_IntConst 572</text>
</g>
<!-- ReceiveOnInitialized&#45;&gt;ReceiveOnInitialized__0 -->
<g id="edge24" class="edge">
<title>ReceiveOnInitialized&#45;&gt;ReceiveOnInitialized__0</title>
<path fill="none" stroke="black" d="M1287,-2071.76C1287,-2040.31 1287,-1972.05 1287,-1932.82"/>
<polygon fill="black" stroke="black" points="1290.5,-1932.94 1287,-1922.94 1283.5,-1932.94 1290.5,-1932.94"/>
</g>
<!-- ReceiveOnInitialized__0&#45;&gt;ExecuteUbergraph_Tutorial_Hint_Nitra__572 -->
<g id="edge25" class="edge">
<title>ReceiveOnInitialized__0:e&#45;&gt;ExecuteUbergraph_Tutorial_Hint_Nitra__572</title>
<path fill="none" stroke="red" d="M1660,-1902.5C1693.27,-1902.5 1681.21,-1852.02 1669.83,-1819.14"/>
<polygon fill="none" stroke="red" points="1673.13,-1817.98 1666.43,-1809.78 1666.56,-1820.37 1673.13,-1817.98"/>
</g>
<!-- ReceiveOnInitialized__15 -->
<g id="node31" class="node">
<title>ReceiveOnInitialized__15</title>
<polygon fill="#eeeeee" stroke="black" points="1229,-1771.5 1229,-1809.5 1345,-1809.5 1345,-1771.5 1229,-1771.5"/>
<text text-anchor="start" x="1237" y="-1794.3" font-family="monospace" font-size="14.00">EX_Return</text>
<text text-anchor="start" x="1237" y="-1779.3" font-family="monospace" font-size="14.00">  EX_Nothing</text>
</g>
<!-- ReceiveOnInitialized__0&#45;&gt;ReceiveOnInitialized__15 -->
<g id="edge26" class="edge">
<title>ReceiveOnInitialized__0&#45;&gt;ReceiveOnInitialized__15</title>
<path fill="none" stroke="black" d="M1287,-1883.83C1287,-1866.85 1287,-1840.88 1287,-1820.81"/>
<polygon fill="black" stroke="black" points="1290.5,-1821.01 1287,-1811.01 1283.5,-1821.01 1290.5,-1821.01"/>
</g>
<!-- ReceiveOnInitialized__17 -->
<g id="node32" class="node">
<title>ReceiveOnInitialized__17</title>
<polygon fill="#eeeeee" stroke="black" points="2340,-1828.5 2340,-1864.5 2472,-1864.5 2472,-1828.5 2340,-1828.5"/>
<text text-anchor="start" x="2348" y="-1842.8" font-family="monospace" font-size="14.00">EX_EndOfScript</text>
</g>
<!-- OnIncreased_Event -->
<g id="node33" class="node">
<title>OnIncreased_Event</title>
<polygon fill="#ff8888" stroke="black" points="2090,-2048 2090,-2131 2560,-2131 2560,-2048 2090,-2048"/>
<text text-anchor="start" x="2098" y="-2115.8" font-family="monospace" font-size="14.00">Function OnIncreased_Event</text>
<text text-anchor="start" x="2098" y="-2100.8" font-family="monospace" font-size="14.00">  ObjectProperty Resource</text>
<text text-anchor="start" x="2098" y="-2085.8" font-family="monospace" font-size="14.00">    CPF_BlueprintVisible|CPF_BlueprintReadOnly|CPF_Parm</text>
<text text-anchor="start" x="2098" y="-2070.8" font-family="monospace" font-size="14.00">  FloatProperty amount</text>
<text text-anchor="start" x="2098" y="-2055.8" font-family="monospace" font-size="14.00">    CPF_BlueprintVisible|CPF_BlueprintReadOnly|CPF_Parm</text>
</g>
<!-- OnIncreased_Event__0 -->
<g id="node34" class="node">
<title>OnIncreased_Event__0</title>
<polygon fill="#eeeeee" stroke="black" points="2077.5,-1883.5 2077.5,-1921.5 2572.5,-1921.5 2572.5,-1883.5 2077.5,-1883.5"/>
<text text-anchor="start" x="2085.5" y="-1906.3" font-family="monospace" font-size="14.00">EX_LetValueOnPersistentFrame [K2Node_CustomEvent_Resource]</text>
<text text-anchor="start" x="2085.5" y="-1891.3" font-family="monospace" font-size="14.00">  EX_LocalVariable [Resource]</text>
</g>
<!-- OnIncreased_Event&#45;&gt;OnIncreased_Event__0 -->
<g id="edge27" class="edge">
<title>OnIncreased_Event&#45;&gt;OnIncreased_Event__0</title>
<path fill="none" stroke="black" d="M2325,-2048.36C2325,-2013.46 2325,-1963.73 2325,-1932.56"/>
<polygon fill="black" stroke="black" points="2328.5,-1932.72 2325,-1922.72 2321.5,-1932.72 2328.5,-1932.72"/>
</g>
<!-- OnIncreased_Event__18 -->
<g id="node35" class="node">
<title>OnIncreased_Event__18</title>
<polygon fill="#eeeeee" stroke="black" points="2085.5,-1771.5 2085.5,-1809.5 2564.5,-1809.5 2564.5,-1771.5 2085.5,-1771.5"/>
<text text-anchor="start" x="2093.5" y="-1794.3" font-family="monospace" font-size="14.00">EX_LetValueOnPersistentFrame [K2Node_CustomEvent_amount]</text>
<text text-anchor="start" x="2093.5" y="-1779.3" font-family="monospace" font-size="14.00">  EX_LocalVariable [amount]</text>
</g>
<!-- OnIncreased_Event__0&#45;&gt;OnIncreased_Event__18 -->
<g id="edge28" class="edge">
<title>OnIncreased_Event__0&#45;&gt;OnIncreased_Event__18</title>
<path fill="none" stroke="black" d="M2325,-1883.83C2325,-1866.85 2325,-1840.88 2325,-1820.81"/>
<polygon fill="black" stroke="black" points="2328.5,-1821.01 2325,-1811.01 2321.5,-1821.01 2328.5,-1821.01"/>
</g>
<!-- OnIncreased_Event__36 -->
<g id="node36" class="node">
<title>OnIncreased_Event__36</title>
<polygon fill="#eeeeee" stroke="black" points="1953.5,-1644.5 1953.5,-1682.5 2696.5,-1682.5 2696.5,-1644.5 1953.5,-1644.5"/>
<text text-anchor="start" x="1961.5" y="-1667.3" font-family="monospace" font-size="14.00">EX_LocalFinalFunction export Tutorial_Hint_Nitra_C&#45;&gt;ExecuteUbergraph_Tutorial_Hint_Nitra</text>
<text text-anchor="start" x="1961.5" y="-1652.3" font-family="monospace" font-size="14.00">  EX_IntConst 178</text>
</g>
<!-- OnIncreased_Event__18&#45;&gt;OnIncreased_Event__36 -->
<g id="edge29" class="edge">
<title>OnIncreased_Event__18&#45;&gt;OnIncreased_Event__36</title>
<path fill="none" stroke="black" d="M2325,-1771.59C2325,-1751.26 2325,-1717.8 2325,-1693.69"/>
<polygon fill="black" stroke="black" points="2328.5,-1693.89 2325,-1683.89 2321.5,-1693.89 2328.5,-1693.89"/>
</g>
<!-- OnIncreased_Event__36&#45;&gt;ExecuteUbergraph_Tutorial_Hint_Nitra__178 -->
<g id="edge30" class="edge">
<title>OnIncreased_Event__36:e&#45;&gt;ExecuteUbergraph_Tutorial_Hint_Nitra__178</title>
<path fill="none" stroke="red" d="M2698,-1663.5C2726.65,-1663.5 2734.39,-1633.9 2734.52,-1602.42"/>
<polygon fill="none" stroke="red" points="2738.03,-1602.69 2734.3,-1592.77 2731.03,-1602.85 2738.03,-1602.69"/>
</g>
<!-- OnIncreased_Event__51 -->
<g id="node37" class="node">
<title>OnIncreased_Event__51</title>
<polygon fill="#eeeeee" stroke="black" points="2257,-1508.5 2257,-1546.5 2373,-1546.5 2373,-1508.5 2257,-1508.5"/>
<text text-anchor="start" x="2265" y="-1531.3" font-family="monospace" font-size="14.00">EX_Return</text>
<text text-anchor="start" x="2265" y="-1516.3" font-family="monospace" font-size="14.00">  EX_Nothing</text>
</g>
<!-- OnIncreased_Event__36&#45;&gt;OnIncreased_Event__51 -->
<g id="edge31" class="edge">
<title>OnIncreased_Event__36&#45;&gt;OnIncreased_Event__51</title>
<path fill="none" stroke="black" d="M2323.67,-1644.71C2322.01,-1622.48 2319.15,-1584.15 2317.17,-1557.63"/>
<polygon fill="black" stroke="black" points="2320.68,-1557.59 2316.45,-1547.88 2313.7,-1558.11 2320.68,-1557.59"/>
</g>
<!-- OnIncreased_Event__53 -->
<g id="node38" class="node">
<title>OnIncreased_Event__53</title>
<polygon fill="#eeeeee" stroke="black" points="2340,-1716.5 2340,-1752.5 2472,-1752.5 2472,-1716.5 2340,-1716.5"/>
<text text-anchor="start" x="2348" y="-1730.8" font-family="monospace" font-size="14.00">EX_EndOfScript</text>
</g>
</g>
</svg>
