<?xml version="1.0" encoding="UTF-8" standalone="no"?>
<!DOCTYPE svg PUBLIC "-//W3C//DTD SVG 1.1//EN"
 "http://www.w3.org/Graphics/SVG/1.1/DTD/svg11.dtd">
<!-- Generated by graphviz version 7.0.1 (0)
 -->
<!-- Pages: 1 -->
<svg width="5653pt" height="1047pt"
 viewBox="0.00 0.00 5652.50 1047.00" xmlns="http://www.w3.org/2000/svg" xmlns:xlink="http://www.w3.org/1999/xlink">
<g id="graph0" class="graph" transform="scale(1 1) rotate(0) translate(4 1043)">
<polygon fill="white" stroke="none" points="-4,4 -4,-1043 5648.5,-1043 5648.5,4 -4,4"/>
<!-- ITM_SeasonEditor_EmptySpot_C -->
<g id="node1" class="node">
<title>ITM_SeasonEditor_EmptySpot_C</title>
<polygon fill="#88ff88" stroke="black" points="0,-865.5 0,-1038.5 899,-1038.5 899,-865.5 0,-865.5"/>
<text text-anchor="start" x="8" y="-1023.3" font-family="monospace" font-size="14.00">ClassExport: ITM_SeasonEditor_EmptySpot_C</text>
<text text-anchor="start" x="8" y="-1008.3" font-family="monospace" font-size="14.00">  SuperStruct: import /Script/UMG&#45;&gt;UserWidget</text>
<text text-anchor="start" x="8" y="-993.3" font-family="monospace" font-size="14.00">  Properties:</text>
<text text-anchor="start" x="8" y="-978.3" font-family="monospace" font-size="14.00">    StructProperty UberGraphFrame</text>
<text text-anchor="start" x="8" y="-963.3" font-family="monospace" font-size="14.00">      CPF_Transient|CPF_DuplicateTransient</text>
<text text-anchor="start" x="8" y="-948.3" font-family="monospace" font-size="14.00">    ObjectProperty Button_Holder</text>
<text text-anchor="start" x="8" y="-933.3" font-family="monospace" font-size="14.00">      CPF_BlueprintVisible|CPF_ExportObject|CPF_InstancedReference|CPF_RepSkip|CPF_PersistentInstance</text>
<text text-anchor="start" x="8" y="-918.3" font-family="monospace" font-size="14.00">    ObjectProperty Text_Plus</text>
<text text-anchor="start" x="8" y="-903.3" font-family="monospace" font-size="14.00">      CPF_BlueprintVisible|CPF_ExportObject|CPF_InstancedReference|CPF_RepSkip|CPF_PersistentInstance</text>
<text text-anchor="start" x="8" y="-888.3" font-family="monospace" font-size="14.00">    MulticastInlineDelegateProperty OnClicked</text>
<text text-anchor="start" x="8" y="-873.3" font-family="monospace" font-size="14.00">      CPF_Edit|CPF_BlueprintVisible|CPF_DisableEditOnInstance|CPF_BlueprintAssignable|CPF_BlueprintCallable</text>
</g>
<!-- OnClicked__DelegateSignature -->
<g id="node2" class="node">
<title>OnClicked__DelegateSignature</title>
<polygon fill="#ff8888" stroke="black" points="917.5,-910.5 917.5,-993.5 1577.5,-993.5 1577.5,-910.5 917.5,-910.5"/>
<text text-anchor="start" x="925.5" y="-978.3" font-family="monospace" font-size="14.00">Function OnClicked__DelegateSignature</text>
<text text-anchor="start" x="925.5" y="-963.3" font-family="monospace" font-size="14.00">  ObjectProperty GridSpot</text>
<text text-anchor="start" x="925.5" y="-948.3" font-family="monospace" font-size="14.00">    CPF_BlueprintVisible|CPF_BlueprintReadOnly|CPF_Parm|CPF_InstancedReference</text>
<text text-anchor="start" x="925.5" y="-933.3" font-family="monospace" font-size="14.00">  ObjectProperty Button</text>
<text text-anchor="start" x="925.5" y="-918.3" font-family="monospace" font-size="14.00">    CPF_BlueprintVisible|CPF_BlueprintReadOnly|CPF_Parm|CPF_InstancedReference</text>
</g>
<!-- OnClicked__DelegateSignature__0 -->
<g id="node3" class="node">
<title>OnClicked__DelegateSignature__0</title>
<polygon fill="#eeeeee" stroke="black" points="1189.5,-723.5 1189.5,-761.5 1305.5,-761.5 1305.5,-723.5 1189.5,-723.5"/>
<text text-anchor="start" x="1197.5" y="-746.3" font-family="monospace" font-size="14.00">EX_Return</text>
<text text-anchor="start" x="1197.5" y="-731.3" font-family="monospace" font-size="14.00">  EX_Nothing</text>
</g>
<!-- OnClicked__DelegateSignature&#45;&gt;OnClicked__DelegateSignature__0 -->
<g id="edge1" class="edge">
<title>OnClicked__DelegateSignature&#45;&gt;OnClicked__DelegateSignature__0</title>
<path fill="none" stroke="black" d="M1247.5,-910.99C1247.5,-870.47 1247.5,-808.76 1247.5,-772.65"/>
<polygon fill="black" stroke="black" points="1251,-772.96 1247.5,-762.96 1244,-772.96 1251,-772.96"/>
</g>
<!-- OnClicked__DelegateSignature__2 -->
<g id="node4" class="node">
<title>OnClicked__DelegateSignature__2</title>
<polygon fill="#eeeeee" stroke="black" points="1473.5,-810.5 1473.5,-846.5 1605.5,-846.5 1605.5,-810.5 1473.5,-810.5"/>
<text text-anchor="start" x="1481.5" y="-824.8" font-family="monospace" font-size="14.00">EX_EndOfScript</text>
</g>
<!-- ExecuteUbergraph_ITM_SeasonEditor_EmptySpot -->
<g id="node5" class="node">
<title>ExecuteUbergraph_ITM_SeasonEditor_EmptySpot</title>
<polygon fill="#ff8888" stroke="black" points="1595.5,-918 1595.5,-986 2065.5,-986 2065.5,-918 1595.5,-918"/>
<text text-anchor="start" x="1603.5" y="-970.8" font-family="monospace" font-size="14.00">Function ExecuteUbergraph_ITM_SeasonEditor_EmptySpot</text>
<text text-anchor="start" x="1603.5" y="-955.8" font-family="monospace" font-size="14.00">  IntProperty EntryPoint</text>
<text text-anchor="start" x="1603.5" y="-940.8" font-family="monospace" font-size="14.00">    CPF_BlueprintVisible|CPF_BlueprintReadOnly|CPF_Parm</text>
<text text-anchor="start" x="1603.5" y="-925.8" font-family="monospace" font-size="14.00">  BoolProperty CallFunc_HasAnyChildren_ReturnValue</text>
</g>
<!-- ExecuteUbergraph_ITM_SeasonEditor_EmptySpot__0 -->
<g id="node6" class="node">
<title>ExecuteUbergraph_ITM_SeasonEditor_EmptySpot__0</title>
<polygon fill="#eeeeee" stroke="black" points="1694.5,-723.5 1694.5,-761.5 1966.5,-761.5 1966.5,-723.5 1694.5,-723.5"/>
<text text-anchor="start" x="1702.5" y="-746.3" font-family="monospace" font-size="14.00">EX_ComputedJump</text>
<text text-anchor="start" x="1702.5" y="-731.3" font-family="monospace" font-size="14.00">  EX_LocalVariable [EntryPoint]</text>
</g>
<!-- ExecuteUbergraph_ITM_SeasonEditor_EmptySpot&#45;&gt;ExecuteUbergraph_ITM_SeasonEditor_EmptySpot__0 -->
<g id="edge2" class="edge">
<title>ExecuteUbergraph_ITM_SeasonEditor_EmptySpot&#45;&gt;ExecuteUbergraph_ITM_SeasonEditor_EmptySpot__0</title>
<path fill="none" stroke="black" d="M1830.5,-918.12C1830.5,-878.11 1830.5,-811.17 1830.5,-772.83"/>
<polygon fill="black" stroke="black" points="1834,-772.98 1830.5,-762.98 1827,-772.98 1834,-772.98"/>
</g>
<!-- ExecuteUbergraph_ITM_SeasonEditor_EmptySpot__10 -->
<g id="node7" class="node">
<title>ExecuteUbergraph_ITM_SeasonEditor_EmptySpot__10</title>
<polygon fill="#eeeeee" stroke="black" points="3870,-222.5 3870,-305.5 4167,-305.5 4167,-222.5 3870,-222.5"/>
<text text-anchor="start" x="3878" y="-290.3" font-family="monospace" font-size="14.00">EX_Context</text>
<text text-anchor="start" x="3878" y="-275.3" font-family="monospace" font-size="14.00">  EX_InstanceVariable [Text_Plus]</text>
<text text-anchor="start" x="3878" y="-260.3" font-family="monospace" font-size="14.00">  EX_VirtualFunction SetVisibility</text>
<text text-anchor="start" x="3878" y="-245.3" font-family="monospace" font-size="14.00">    EX_ByteConst 1</text>
<text text-anchor="start" x="3878" y="-230.3" font-family="monospace" font-size="14.00">  RValue = []</text>
</g>
<!-- ExecuteUbergraph_ITM_SeasonEditor_EmptySpot__48 -->
<g id="node8" class="node">
<title>ExecuteUbergraph_ITM_SeasonEditor_EmptySpot__48</title>
<polygon fill="#eeeeee" stroke="black" points="3895,-112.5 3895,-148.5 4002,-148.5 4002,-112.5 3895,-112.5"/>
<text text-anchor="start" x="3903" y="-126.8" font-family="monospace" font-size="14.00">EX_Jump 234</text>
</g>
<!-- ExecuteUbergraph_ITM_SeasonEditor_EmptySpot__10&#45;&gt;ExecuteUbergraph_ITM_SeasonEditor_EmptySpot__48 -->
<g id="edge3" class="edge">
<title>ExecuteUbergraph_ITM_SeasonEditor_EmptySpot__10&#45;&gt;ExecuteUbergraph_ITM_SeasonEditor_EmptySpot__48</title>
<path fill="none" stroke="black" d="M3997.12,-222.83C3986.03,-202 3972.77,-177.1 3962.91,-158.57"/>
<polygon fill="black" stroke="black" points="3966.03,-156.99 3958.24,-149.8 3959.85,-160.28 3966.03,-156.99"/>
</g>
<!-- ExecuteUbergraph_ITM_SeasonEditor_EmptySpot__234 -->
<g id="node18" class="node">
<title>ExecuteUbergraph_ITM_SeasonEditor_EmptySpot__234</title>
<polygon fill="#eeeeee" stroke="black" points="3712.5,-0.5 3712.5,-38.5 3828.5,-38.5 3828.5,-0.5 3712.5,-0.5"/>
<text text-anchor="start" x="3720.5" y="-23.3" font-family="monospace" font-size="14.00">EX_Return</text>
<text text-anchor="start" x="3720.5" y="-8.3" font-family="monospace" font-size="14.00">  EX_Nothing</text>
</g>
<!-- ExecuteUbergraph_ITM_SeasonEditor_EmptySpot__48&#45;&gt;ExecuteUbergraph_ITM_SeasonEditor_EmptySpot__234 -->
<g id="edge4" class="edge">
<title>ExecuteUbergraph_ITM_SeasonEditor_EmptySpot__48&#45;&gt;ExecuteUbergraph_ITM_SeasonEditor_EmptySpot__234</title>
<path fill="none" stroke="black" d="M3921.08,-112.71C3891.17,-94.39 3843.05,-64.93 3809.28,-44.25"/>
<polygon fill="black" stroke="black" points="3811.38,-41.43 3801.02,-39.19 3807.72,-47.4 3811.38,-41.43"/>
</g>
<!-- ExecuteUbergraph_ITM_SeasonEditor_EmptySpot__53 -->
<g id="node9" class="node">
<title>ExecuteUbergraph_ITM_SeasonEditor_EmptySpot__53</title>
<polygon fill="#eeeeee" stroke="black" points="2673.5,-521.5 2673.5,-619.5 3251.5,-619.5 3251.5,-521.5 2673.5,-521.5"/>
<text text-anchor="start" x="2681.5" y="-604.3" font-family="monospace" font-size="14.00">EX_LetBool</text>
<text text-anchor="start" x="2681.5" y="-589.3" font-family="monospace" font-size="14.00">  EX_LocalVariable [CallFunc_HasAnyChildren_ReturnValue]</text>
<text text-anchor="start" x="2681.5" y="-574.3" font-family="monospace" font-size="14.00">  EX_Context</text>
<text text-anchor="start" x="2681.5" y="-559.3" font-family="monospace" font-size="14.00">    EX_InstanceVariable [Button_Holder]</text>
<text text-anchor="start" x="2681.5" y="-544.3" font-family="monospace" font-size="14.00">    EX_FinalFunction import /Script/UMG&#45;&gt;PanelWidget&#45;&gt;HasAnyChildren</text>
<text text-anchor="start" x="2681.5" y="-529.3" font-family="monospace" font-size="14.00">    RValue = [CallFunc_HasAnyChildren_ReturnValue]</text>
</g>
<!-- ExecuteUbergraph_ITM_SeasonEditor_EmptySpot__95 -->
<g id="node10" class="node">
<title>ExecuteUbergraph_ITM_SeasonEditor_EmptySpot__95</title>
<polygon fill="#eeeeee" stroke="black" points="3141,-394.5 3141,-432.5 3620,-432.5 3620,-394.5 3141,-394.5"/>
<text text-anchor="start" x="3149" y="-417.3" font-family="monospace" font-size="14.00">EX_JumpIfNot 114</text>
<text text-anchor="start" x="3149" y="-402.3" font-family="monospace" font-size="14.00">  EX_LocalVariable [CallFunc_HasAnyChildren_ReturnValue]</text>
</g>
<!-- ExecuteUbergraph_ITM_SeasonEditor_EmptySpot__53&#45;&gt;ExecuteUbergraph_ITM_SeasonEditor_EmptySpot__95 -->
<g id="edge5" class="edge">
<title>ExecuteUbergraph_ITM_SeasonEditor_EmptySpot__53&#45;&gt;ExecuteUbergraph_ITM_SeasonEditor_EmptySpot__95</title>
<path fill="none" stroke="black" d="M3091.9,-521.52C3168.53,-493.1 3261.95,-458.46 3321.33,-436.44"/>
<polygon fill="black" stroke="black" points="3322.44,-439.76 3330.6,-433.01 3320,-433.2 3322.44,-439.76"/>
</g>
<!-- ExecuteUbergraph_ITM_SeasonEditor_EmptySpot__109 -->
<g id="node11" class="node">
<title>ExecuteUbergraph_ITM_SeasonEditor_EmptySpot__109</title>
<polygon fill="#eeeeee" stroke="black" points="3454,-167.5 3454,-203.5 3561,-203.5 3561,-167.5 3454,-167.5"/>
<text text-anchor="start" x="3462" y="-181.8" font-family="monospace" font-size="14.00">EX_Jump 234</text>
</g>
<!-- ExecuteUbergraph_ITM_SeasonEditor_EmptySpot__95&#45;&gt;ExecuteUbergraph_ITM_SeasonEditor_EmptySpot__109 -->
<g id="edge7" class="edge">
<title>ExecuteUbergraph_ITM_SeasonEditor_EmptySpot__95&#45;&gt;ExecuteUbergraph_ITM_SeasonEditor_EmptySpot__109</title>
<path fill="none" stroke="black" d="M3384.97,-394.69C3394.55,-359.07 3419.75,-277.7 3462.5,-222 3465.58,-217.98 3469.22,-214.16 3473.06,-210.62"/>
<polygon fill="black" stroke="black" points="3475.15,-213.43 3480.53,-204.3 3470.63,-208.09 3475.15,-213.43"/>
<text text-anchor="middle" x="3417" y="-338.8" font-family="monospace" font-size="14.00">IF</text>
</g>
<!-- ExecuteUbergraph_ITM_SeasonEditor_EmptySpot__114 -->
<g id="node12" class="node">
<title>ExecuteUbergraph_ITM_SeasonEditor_EmptySpot__114</title>
<polygon fill="#eeeeee" stroke="black" points="3472,-222.5 3472,-305.5 3769,-305.5 3769,-222.5 3472,-222.5"/>
<text text-anchor="start" x="3480" y="-290.3" font-family="monospace" font-size="14.00">EX_Context</text>
<text text-anchor="start" x="3480" y="-275.3" font-family="monospace" font-size="14.00">  EX_InstanceVariable [Text_Plus]</text>
<text text-anchor="start" x="3480" y="-260.3" font-family="monospace" font-size="14.00">  EX_VirtualFunction SetVisibility</text>
<text text-anchor="start" x="3480" y="-245.3" font-family="monospace" font-size="14.00">    EX_ByteConst 4</text>
<text text-anchor="start" x="3480" y="-230.3" font-family="monospace" font-size="14.00">  RValue = []</text>
</g>
<!-- ExecuteUbergraph_ITM_SeasonEditor_EmptySpot__95&#45;&gt;ExecuteUbergraph_ITM_SeasonEditor_EmptySpot__114 -->
<g id="edge6" class="edge">
<title>ExecuteUbergraph_ITM_SeasonEditor_EmptySpot__95:e&#45;&gt;ExecuteUbergraph_ITM_SeasonEditor_EmptySpot__114</title>
<path fill="none" stroke="red" d="M3621.5,-413.5C3661.46,-413.5 3652.67,-359.06 3639.5,-316.1"/>
<polygon fill="none" stroke="red" points="3642.85,-315.08 3636.46,-306.63 3636.19,-317.22 3642.85,-315.08"/>
<text text-anchor="middle" x="3674.5" y="-338.8" font-family="monospace" font-size="14.00">IF NOT</text>
</g>
<!-- ExecuteUbergraph_ITM_SeasonEditor_EmptySpot__109&#45;&gt;ExecuteUbergraph_ITM_SeasonEditor_EmptySpot__234 -->
<g id="edge8" class="edge">
<title>ExecuteUbergraph_ITM_SeasonEditor_EmptySpot__109&#45;&gt;ExecuteUbergraph_ITM_SeasonEditor_EmptySpot__234</title>
<path fill="none" stroke="black" d="M3534.66,-167.57C3581.73,-138.21 3678.59,-77.81 3732.38,-44.27"/>
<polygon fill="black" stroke="black" points="3733.99,-47.39 3740.62,-39.13 3730.28,-41.45 3733.99,-47.39"/>
</g>
<!-- ExecuteUbergraph_ITM_SeasonEditor_EmptySpot__152 -->
<g id="node13" class="node">
<title>ExecuteUbergraph_ITM_SeasonEditor_EmptySpot__152</title>
<polygon fill="#eeeeee" stroke="black" points="3638,-112.5 3638,-148.5 3745,-148.5 3745,-112.5 3638,-112.5"/>
<text text-anchor="start" x="3646" y="-126.8" font-family="monospace" font-size="14.00">EX_Jump 234</text>
</g>
<!-- ExecuteUbergraph_ITM_SeasonEditor_EmptySpot__114&#45;&gt;ExecuteUbergraph_ITM_SeasonEditor_EmptySpot__152 -->
<g id="edge9" class="edge">
<title>ExecuteUbergraph_ITM_SeasonEditor_EmptySpot__114&#45;&gt;ExecuteUbergraph_ITM_SeasonEditor_EmptySpot__152</title>
<path fill="none" stroke="black" d="M3642.19,-222.83C3653.44,-202 3666.88,-177.1 3676.89,-158.57"/>
<polygon fill="black" stroke="black" points="3679.95,-160.26 3681.62,-149.8 3673.79,-156.94 3679.95,-160.26"/>
</g>
<!-- ExecuteUbergraph_ITM_SeasonEditor_EmptySpot__152&#45;&gt;ExecuteUbergraph_ITM_SeasonEditor_EmptySpot__234 -->
<g id="edge10" class="edge">
<title>ExecuteUbergraph_ITM_SeasonEditor_EmptySpot__152&#45;&gt;ExecuteUbergraph_ITM_SeasonEditor_EmptySpot__234</title>
<path fill="none" stroke="black" d="M3703.5,-112.95C3716.09,-95.57 3736.09,-67.97 3750.97,-47.45"/>
<polygon fill="black" stroke="black" points="3753.68,-49.68 3756.71,-39.52 3748.01,-45.57 3753.68,-49.68"/>
</g>
<!-- ExecuteUbergraph_ITM_SeasonEditor_EmptySpot__157 -->
<g id="node14" class="node">
<title>ExecuteUbergraph_ITM_SeasonEditor_EmptySpot__157</title>
<polygon fill="#eeeeee" stroke="black" points="3649,-529 3649,-612 3946,-612 3946,-529 3649,-529"/>
<text text-anchor="start" x="3657" y="-596.8" font-family="monospace" font-size="14.00">EX_Context</text>
<text text-anchor="start" x="3657" y="-581.8" font-family="monospace" font-size="14.00">  EX_InstanceVariable [Text_Plus]</text>
<text text-anchor="start" x="3657" y="-566.8" font-family="monospace" font-size="14.00">  EX_VirtualFunction SetVisibility</text>
<text text-anchor="start" x="3657" y="-551.8" font-family="monospace" font-size="14.00">    EX_ByteConst 1</text>
<text text-anchor="start" x="3657" y="-536.8" font-family="monospace" font-size="14.00">  RValue = []</text>
</g>
<!-- ExecuteUbergraph_ITM_SeasonEditor_EmptySpot__195 -->
<g id="node15" class="node">
<title>ExecuteUbergraph_ITM_SeasonEditor_EmptySpot__195</title>
<polygon fill="#eeeeee" stroke="black" points="3744,-324.5 3744,-360.5 3851,-360.5 3851,-324.5 3744,-324.5"/>
<text text-anchor="start" x="3752" y="-338.8" font-family="monospace" font-size="14.00">EX_Jump 234</text>
</g>
<!-- ExecuteUbergraph_ITM_SeasonEditor_EmptySpot__157&#45;&gt;ExecuteUbergraph_ITM_SeasonEditor_EmptySpot__195 -->
<g id="edge11" class="edge">
<title>ExecuteUbergraph_ITM_SeasonEditor_EmptySpot__157&#45;&gt;ExecuteUbergraph_ITM_SeasonEditor_EmptySpot__195</title>
<path fill="none" stroke="black" d="M3797.5,-529.1C3797.5,-483.74 3797.5,-411.34 3797.5,-371.7"/>
<polygon fill="black" stroke="black" points="3801,-371.8 3797.5,-361.8 3794,-371.8 3801,-371.8"/>
</g>
<!-- ExecuteUbergraph_ITM_SeasonEditor_EmptySpot__195&#45;&gt;ExecuteUbergraph_ITM_SeasonEditor_EmptySpot__234 -->
<g id="edge12" class="edge">
<title>ExecuteUbergraph_ITM_SeasonEditor_EmptySpot__195&#45;&gt;ExecuteUbergraph_ITM_SeasonEditor_EmptySpot__234</title>
<path fill="none" stroke="black" d="M3796.09,-324.69C3791.72,-272.84 3778.44,-114.9 3772.93,-49.42"/>
<polygon fill="black" stroke="black" points="3776.45,-49.49 3772.13,-39.82 3769.48,-50.08 3776.45,-49.49"/>
</g>
<!-- ExecuteUbergraph_ITM_SeasonEditor_EmptySpot__200 -->
<g id="node16" class="node">
<title>ExecuteUbergraph_ITM_SeasonEditor_EmptySpot__200</title>
<polygon fill="#eeeeee" stroke="black" points="4294,-536.5 4294,-604.5 5053,-604.5 5053,-536.5 4294,-536.5"/>
<text text-anchor="start" x="4302" y="-589.3" font-family="monospace" font-size="14.00">EX_CallMulticastDelegate export ITM_SeasonEditor_EmptySpot_C&#45;&gt;OnClicked__DelegateSignature</text>
<text text-anchor="start" x="4302" y="-574.3" font-family="monospace" font-size="14.00">  EX_InstanceVariable [OnClicked]</text>
<text text-anchor="start" x="4302" y="-559.3" font-family="monospace" font-size="14.00">  EX_Self</text>
<text text-anchor="start" x="4302" y="-544.3" font-family="monospace" font-size="14.00">  EX_InstanceVariable [Button_Holder]</text>
</g>
<!-- ExecuteUbergraph_ITM_SeasonEditor_EmptySpot__229 -->
<g id="node17" class="node">
<title>ExecuteUbergraph_ITM_SeasonEditor_EmptySpot__229</title>
<polygon fill="#eeeeee" stroke="black" points="4493,-395.5 4493,-431.5 4592,-431.5 4592,-395.5 4493,-395.5"/>
<text text-anchor="start" x="4501" y="-409.8" font-family="monospace" font-size="14.00">EX_Jump 10</text>
</g>
<!-- ExecuteUbergraph_ITM_SeasonEditor_EmptySpot__200&#45;&gt;ExecuteUbergraph_ITM_SeasonEditor_EmptySpot__229 -->
<g id="edge13" class="edge">
<title>ExecuteUbergraph_ITM_SeasonEditor_EmptySpot__200&#45;&gt;ExecuteUbergraph_ITM_SeasonEditor_EmptySpot__229</title>
<path fill="none" stroke="black" d="M4645.72,-536.63C4621.26,-507.69 4586.17,-466.17 4563.86,-439.77"/>
<polygon fill="black" stroke="black" points="4566.64,-437.64 4557.51,-432.26 4561.29,-442.16 4566.64,-437.64"/>
</g>
<!-- ExecuteUbergraph_ITM_SeasonEditor_EmptySpot__229&#45;&gt;ExecuteUbergraph_ITM_SeasonEditor_EmptySpot__10 -->
<g id="edge14" class="edge">
<title>ExecuteUbergraph_ITM_SeasonEditor_EmptySpot__229&#45;&gt;ExecuteUbergraph_ITM_SeasonEditor_EmptySpot__10</title>
<path fill="none" stroke="black" d="M4493.2,-398.62C4420.65,-378.2 4281.96,-339.16 4173.14,-308.53"/>
<polygon fill="black" stroke="black" points="4174.4,-305.25 4163.83,-305.91 4172.51,-311.99 4174.4,-305.25"/>
</g>
<!-- ExecuteUbergraph_ITM_SeasonEditor_EmptySpot__236 -->
<g id="node19" class="node">
<title>ExecuteUbergraph_ITM_SeasonEditor_EmptySpot__236</title>
<polygon fill="#eeeeee" stroke="black" points="4948.5,-638.5 4948.5,-674.5 5080.5,-674.5 5080.5,-638.5 4948.5,-638.5"/>
<text text-anchor="start" x="4956.5" y="-652.8" font-family="monospace" font-size="14.00">EX_EndOfScript</text>
</g>
<!-- BndEvt__Button_Holder_K2Node_ComponentBoundEvent_2_OnButtonClickedEvent__DelegateSignature -->
<g id="node20" class="node">
<title>BndEvt__Button_Holder_K2Node_ComponentBoundEvent_2_OnButtonClickedEvent__DelegateSignature</title>
<polygon fill="#ff8888" stroke="black" points="3828,-934 3828,-970 4661,-970 4661,-934 3828,-934"/>
<text text-anchor="start" x="3836" y="-948.3" font-family="monospace" font-size="14.00">Function BndEvt__Button_Holder_K2Node_ComponentBoundEvent_2_OnButtonClickedEvent__DelegateSignature</text>
</g>
<!-- BndEvt__Button_Holder_K2Node_ComponentBoundEvent_2_OnButtonClickedEvent__DelegateSignature__0 -->
<g id="node21" class="node">
<title>BndEvt__Button_Holder_K2Node_ComponentBoundEvent_2_OnButtonClickedEvent__DelegateSignature__0</title>
<polygon fill="#eeeeee" stroke="black" points="3815.5,-723.5 3815.5,-761.5 4673.5,-761.5 4673.5,-723.5 3815.5,-723.5"/>
<text text-anchor="start" x="3823.5" y="-746.3" font-family="monospace" font-size="14.00">EX_LocalFinalFunction export ITM_SeasonEditor_EmptySpot_C&#45;&gt;ExecuteUbergraph_ITM_SeasonEditor_EmptySpot</text>
<text text-anchor="start" x="3823.5" y="-731.3" font-family="monospace" font-size="14.00">  EX_IntConst 200</text>
</g>
<!-- BndEvt__Button_Holder_K2Node_ComponentBoundEvent_2_OnButtonClickedEvent__DelegateSignature&#45;&gt;BndEvt__Button_Holder_K2Node_ComponentBoundEvent_2_OnButtonClickedEvent__DelegateSignature__0 -->
<g id="edge15" class="edge">
<title>BndEvt__Button_Holder_K2Node_ComponentBoundEvent_2_OnButtonClickedEvent__DelegateSignature&#45;&gt;BndEvt__Button_Holder_K2Node_ComponentBoundEvent_2_OnButtonClickedEvent__DelegateSignature__0</title>
<path fill="none" stroke="black" d="M4244.5,-934.02C4244.5,-898.63 4244.5,-816.63 4244.5,-772.63"/>
<polygon fill="black" stroke="black" points="4248,-772.82 4244.5,-762.82 4241,-772.82 4248,-772.82"/>
</g>
<!-- BndEvt__Button_Holder_K2Node_ComponentBoundEvent_2_OnButtonClickedEvent__DelegateSignature__0&#45;&gt;ExecuteUbergraph_ITM_SeasonEditor_EmptySpot__200 -->
<g id="edge16" class="edge">
<title>BndEvt__Button_Holder_K2Node_ComponentBoundEvent_2_OnButtonClickedEvent__DelegateSignature__0:e&#45;&gt;ExecuteUbergraph_ITM_SeasonEditor_EmptySpot__200</title>
<path fill="none" stroke="red" d="M4674.5,-742.5C4725.39,-742.5 4707.68,-665.83 4690.42,-615.16"/>
<polygon fill="none" stroke="red" points="4693.78,-614.17 4687.16,-605.9 4687.18,-616.49 4693.78,-614.17"/>
</g>
<!-- BndEvt__Button_Holder_K2Node_ComponentBoundEvent_2_OnButtonClickedEvent__DelegateSignature__15 -->
<g id="node22" class="node">
<title>BndEvt__Button_Holder_K2Node_ComponentBoundEvent_2_OnButtonClickedEvent__DelegateSignature__15</title>
<polygon fill="#eeeeee" stroke="black" points="4159.5,-551.5 4159.5,-589.5 4275.5,-589.5 4275.5,-551.5 4159.5,-551.5"/>
<text text-anchor="start" x="4167.5" y="-574.3" font-family="monospace" font-size="14.00">EX_Return</text>
<text text-anchor="start" x="4167.5" y="-559.3" font-family="monospace" font-size="14.00">  EX_Nothing</text>
</g>
<!-- BndEvt__Button_Holder_K2Node_ComponentBoundEvent_2_OnButtonClickedEvent__DelegateSignature__0&#45;&gt;BndEvt__Button_Holder_K2Node_ComponentBoundEvent_2_OnButtonClickedEvent__DelegateSignature__15 -->
<g id="edge17" class="edge">
<title>BndEvt__Button_Holder_K2Node_ComponentBoundEvent_2_OnButtonClickedEvent__DelegateSignature__0&#45;&gt;BndEvt__Button_Holder_K2Node_ComponentBoundEvent_2_OnButtonClickedEvent__DelegateSignature__15</title>
<path fill="none" stroke="black" d="M4241.66,-723.63C4237,-694.29 4227.69,-635.68 4222.09,-600.39"/>
<polygon fill="black" stroke="black" points="4225.6,-600.21 4220.58,-590.88 4218.69,-601.31 4225.6,-600.21"/>
</g>
<!-- BndEvt__Button_Holder_K2Node_ComponentBoundEvent_2_OnButtonClickedEvent__DelegateSignature__17 -->
<g id="node23" class="node">
<title>BndEvt__Button_Holder_K2Node_ComponentBoundEvent_2_OnButtonClickedEvent__DelegateSignature__17</title>
<polygon fill="#eeeeee" stroke="black" points="4948.5,-466.5 4948.5,-502.5 5080.5,-502.5 5080.5,-466.5 4948.5,-466.5"/>
<text text-anchor="start" x="4956.5" y="-480.8" font-family="monospace" font-size="14.00">EX_EndOfScript</text>
</g>
<!-- BndEvt__Button_Holder_K2Node_ComponentBoundEvent_1_OnButtonHoverEvent__DelegateSignature -->
<g id="node24" class="node">
<title>BndEvt__Button_Holder_K2Node_ComponentBoundEvent_1_OnButtonHoverEvent__DelegateSignature</title>
<polygon fill="#ff8888" stroke="black" points="2960,-934 2960,-970 3777,-970 3777,-934 2960,-934"/>
<text text-anchor="start" x="2968" y="-948.3" font-family="monospace" font-size="14.00">Function BndEvt__Button_Holder_K2Node_ComponentBoundEvent_1_OnButtonHoverEvent__DelegateSignature</text>
</g>
<!-- BndEvt__Button_Holder_K2Node_ComponentBoundEvent_1_OnButtonHoverEvent__DelegateSignature__0 -->
<g id="node25" class="node">
<title>BndEvt__Button_Holder_K2Node_ComponentBoundEvent_1_OnButtonHoverEvent__DelegateSignature__0</title>
<polygon fill="#eeeeee" stroke="black" points="2939.5,-723.5 2939.5,-761.5 3797.5,-761.5 3797.5,-723.5 2939.5,-723.5"/>
<text text-anchor="start" x="2947.5" y="-746.3" font-family="monospace" font-size="14.00">EX_LocalFinalFunction export ITM_SeasonEditor_EmptySpot_C&#45;&gt;ExecuteUbergraph_ITM_SeasonEditor_EmptySpot</text>
<text text-anchor="start" x="2947.5" y="-731.3" font-family="monospace" font-size="14.00">  EX_IntConst 157</text>
</g>
<!-- BndEvt__Button_Holder_K2Node_ComponentBoundEvent_1_OnButtonHoverEvent__DelegateSignature&#45;&gt;BndEvt__Button_Holder_K2Node_ComponentBoundEvent_1_OnButtonHoverEvent__DelegateSignature__0 -->
<g id="edge18" class="edge">
<title>BndEvt__Button_Holder_K2Node_ComponentBoundEvent_1_OnButtonHoverEvent__DelegateSignature&#45;&gt;BndEvt__Button_Holder_K2Node_ComponentBoundEvent_1_OnButtonHoverEvent__DelegateSignature__0</title>
<path fill="none" stroke="black" d="M3368.5,-934.02C3368.5,-898.63 3368.5,-816.63 3368.5,-772.63"/>
<polygon fill="black" stroke="black" points="3372,-772.82 3368.5,-762.82 3365,-772.82 3372,-772.82"/>
</g>
<!-- BndEvt__Button_Holder_K2Node_ComponentBoundEvent_1_OnButtonHoverEvent__DelegateSignature__0&#45;&gt;ExecuteUbergraph_ITM_SeasonEditor_EmptySpot__157 -->
<g id="edge19" class="edge">
<title>BndEvt__Button_Holder_K2Node_ComponentBoundEvent_1_OnButtonHoverEvent__DelegateSignature__0:e&#45;&gt;ExecuteUbergraph_ITM_SeasonEditor_EmptySpot__157</title>
<path fill="none" stroke="red" d="M3798.5,-742.5C3804.54,-742.5 3802.49,-673.33 3800.2,-622.98"/>
<polygon fill="none" stroke="red" points="3803.7,-622.93 3799.74,-613.1 3796.71,-623.26 3803.7,-622.93"/>
</g>
<!-- BndEvt__Button_Holder_K2Node_ComponentBoundEvent_1_OnButtonHoverEvent__DelegateSignature__15 -->
<g id="node26" class="node">
<title>BndEvt__Button_Holder_K2Node_ComponentBoundEvent_1_OnButtonHoverEvent__DelegateSignature__15</title>
<polygon fill="#eeeeee" stroke="black" points="3310.5,-551.5 3310.5,-589.5 3426.5,-589.5 3426.5,-551.5 3310.5,-551.5"/>
<text text-anchor="start" x="3318.5" y="-574.3" font-family="monospace" font-size="14.00">EX_Return</text>
<text text-anchor="start" x="3318.5" y="-559.3" font-family="monospace" font-size="14.00">  EX_Nothing</text>
</g>
<!-- BndEvt__Button_Holder_K2Node_ComponentBoundEvent_1_OnButtonHoverEvent__DelegateSignature__0&#45;&gt;BndEvt__Button_Holder_K2Node_ComponentBoundEvent_1_OnButtonHoverEvent__DelegateSignature__15 -->
<g id="edge20" class="edge">
<title>BndEvt__Button_Holder_K2Node_ComponentBoundEvent_1_OnButtonHoverEvent__DelegateSignature__0&#45;&gt;BndEvt__Button_Holder_K2Node_ComponentBoundEvent_1_OnButtonHoverEvent__DelegateSignature__15</title>
<path fill="none" stroke="black" d="M3368.5,-723.63C3368.5,-694.42 3368.5,-636.19 3368.5,-600.85"/>
<polygon fill="black" stroke="black" points="3372,-600.9 3368.5,-590.9 3365,-600.9 3372,-600.9"/>
</g>
<!-- BndEvt__Button_Holder_K2Node_ComponentBoundEvent_1_OnButtonHoverEvent__DelegateSignature__17 -->
<g id="node27" class="node">
<title>BndEvt__Button_Holder_K2Node_ComponentBoundEvent_1_OnButtonHoverEvent__DelegateSignature__17</title>
<polygon fill="#eeeeee" stroke="black" points="4774.5,-324.5 4774.5,-360.5 4906.5,-360.5 4906.5,-324.5 4774.5,-324.5"/>
<text text-anchor="start" x="4782.5" y="-338.8" font-family="monospace" font-size="14.00">EX_EndOfScript</text>
</g>
<!-- BndEvt__Button_Holder_K2Node_ComponentBoundEvent_0_OnButtonHoverEvent__DelegateSignature -->
<g id="node28" class="node">
<title>BndEvt__Button_Holder_K2Node_ComponentBoundEvent_0_OnButtonHoverEvent__DelegateSignature</title>
<polygon fill="#ff8888" stroke="black" points="2084,-934 2084,-970 2901,-970 2901,-934 2084,-934"/>
<text text-anchor="start" x="2092" y="-948.3" font-family="monospace" font-size="14.00">Function BndEvt__Button_Holder_K2Node_ComponentBoundEvent_0_OnButtonHoverEvent__DelegateSignature</text>
</g>
<!-- BndEvt__Button_Holder_K2Node_ComponentBoundEvent_0_OnButtonHoverEvent__DelegateSignature__0 -->
<g id="node29" class="node">
<title>BndEvt__Button_Holder_K2Node_ComponentBoundEvent_0_OnButtonHoverEvent__DelegateSignature__0</title>
<polygon fill="#eeeeee" stroke="black" points="2063.5,-723.5 2063.5,-761.5 2921.5,-761.5 2921.5,-723.5 2063.5,-723.5"/>
<text text-anchor="start" x="2071.5" y="-746.3" font-family="monospace" font-size="14.00">EX_LocalFinalFunction export ITM_SeasonEditor_EmptySpot_C&#45;&gt;ExecuteUbergraph_ITM_SeasonEditor_EmptySpot</text>
<text text-anchor="start" x="2071.5" y="-731.3" font-family="monospace" font-size="14.00">  EX_IntConst 53</text>
</g>
<!-- BndEvt__Button_Holder_K2Node_ComponentBoundEvent_0_OnButtonHoverEvent__DelegateSignature&#45;&gt;BndEvt__Button_Holder_K2Node_ComponentBoundEvent_0_OnButtonHoverEvent__DelegateSignature__0 -->
<g id="edge21" class="edge">
<title>BndEvt__Button_Holder_K2Node_ComponentBoundEvent_0_OnButtonHoverEvent__DelegateSignature&#45;&gt;BndEvt__Button_Holder_K2Node_ComponentBoundEvent_0_OnButtonHoverEvent__DelegateSignature__0</title>
<path fill="none" stroke="black" d="M2492.5,-934.02C2492.5,-898.63 2492.5,-816.63 2492.5,-772.63"/>
<polygon fill="black" stroke="black" points="2496,-772.82 2492.5,-762.82 2489,-772.82 2496,-772.82"/>
</g>
<!-- BndEvt__Button_Holder_K2Node_ComponentBoundEvent_0_OnButtonHoverEvent__DelegateSignature__0&#45;&gt;ExecuteUbergraph_ITM_SeasonEditor_EmptySpot__53 -->
<g id="edge22" class="edge">
<title>BndEvt__Button_Holder_K2Node_ComponentBoundEvent_0_OnButtonHoverEvent__DelegateSignature__0:e&#45;&gt;ExecuteUbergraph_ITM_SeasonEditor_EmptySpot__53</title>
<path fill="none" stroke="red" d="M2922.5,-742.5C2933.64,-742.5 2928.19,-703.9 2930.5,-693 2934.85,-672.48 2940.45,-650.23 2945.74,-630.45"/>
<polygon fill="none" stroke="red" points="2949.09,-631.46 2948.33,-620.89 2942.34,-629.63 2949.09,-631.46"/>
</g>
<!-- BndEvt__Button_Holder_K2Node_ComponentBoundEvent_0_OnButtonHoverEvent__DelegateSignature__15 -->
<g id="node30" class="node">
<title>BndEvt__Button_Holder_K2Node_ComponentBoundEvent_0_OnButtonHoverEvent__DelegateSignature__15</title>
<polygon fill="#eeeeee" stroke="black" points="2434.5,-551.5 2434.5,-589.5 2550.5,-589.5 2550.5,-551.5 2434.5,-551.5"/>
<text text-anchor="start" x="2442.5" y="-574.3" font-family="monospace" font-size="14.00">EX_Return</text>
<text text-anchor="start" x="2442.5" y="-559.3" font-family="monospace" font-size="14.00">  EX_Nothing</text>
</g>
<!-- BndEvt__Button_Holder_K2Node_ComponentBoundEvent_0_OnButtonHoverEvent__DelegateSignature__0&#45;&gt;BndEvt__Button_Holder_K2Node_ComponentBoundEvent_0_OnButtonHoverEvent__DelegateSignature__15 -->
<g id="edge23" class="edge">
<title>BndEvt__Button_Holder_K2Node_ComponentBoundEvent_0_OnButtonHoverEvent__DelegateSignature__0&#45;&gt;BndEvt__Button_Holder_K2Node_ComponentBoundEvent_0_OnButtonHoverEvent__DelegateSignature__15</title>
<path fill="none" stroke="black" d="M2492.5,-723.63C2492.5,-694.42 2492.5,-636.19 2492.5,-600.85"/>
<polygon fill="black" stroke="black" points="2496,-600.9 2492.5,-590.9 2489,-600.9 2496,-600.9"/>
</g>
<!-- BndEvt__Button_Holder_K2Node_ComponentBoundEvent_0_OnButtonHoverEvent__DelegateSignature__17 -->
<g id="node31" class="node">
<title>BndEvt__Button_Holder_K2Node_ComponentBoundEvent_0_OnButtonHoverEvent__DelegateSignature__17</title>
<polygon fill="#eeeeee" stroke="black" points="3998.5,-167.5 3998.5,-203.5 4130.5,-203.5 4130.5,-167.5 3998.5,-167.5"/>
<text text-anchor="start" x="4006.5" y="-181.8" font-family="monospace" font-size="14.00">EX_EndOfScript</text>
</g>
<!-- IsEmpty -->
<g id="node32" class="node">
<title>IsEmpty</title>
<polygon fill="#ff8888" stroke="black" points="5141,-910.5 5141,-993.5 5570,-993.5 5570,-910.5 5141,-910.5"/>
<text text-anchor="start" x="5149" y="-978.3" font-family="monospace" font-size="14.00">Function IsEmpty</text>
<text text-anchor="start" x="5149" y="-963.3" font-family="monospace" font-size="14.00">  BoolProperty IsEmpty</text>
<text text-anchor="start" x="5149" y="-948.3" font-family="monospace" font-size="14.00">    CPF_Parm|CPF_OutParm</text>
<text text-anchor="start" x="5149" y="-933.3" font-family="monospace" font-size="14.00">  BoolProperty CallFunc_HasAnyChildren_ReturnValue</text>
<text text-anchor="start" x="5149" y="-918.3" font-family="monospace" font-size="14.00">  BoolProperty CallFunc_Not_PreBool_ReturnValue</text>
</g>
<!-- IsEmpty__0 -->
<g id="node33" class="node">
<title>IsEmpty__0</title>
<polygon fill="#eeeeee" stroke="black" points="5066.5,-693.5 5066.5,-791.5 5644.5,-791.5 5644.5,-693.5 5066.5,-693.5"/>
<text text-anchor="start" x="5074.5" y="-776.3" font-family="monospace" font-size="14.00">EX_LetBool</text>
<text text-anchor="start" x="5074.5" y="-761.3" font-family="monospace" font-size="14.00">  EX_LocalVariable [CallFunc_HasAnyChildren_ReturnValue]</text>
<text text-anchor="start" x="5074.5" y="-746.3" font-family="monospace" font-size="14.00">  EX_Context</text>
<text text-anchor="start" x="5074.5" y="-731.3" font-family="monospace" font-size="14.00">    EX_InstanceVariable [Button_Holder]</text>
<text text-anchor="start" x="5074.5" y="-716.3" font-family="monospace" font-size="14.00">    EX_FinalFunction import /Script/UMG&#45;&gt;PanelWidget&#45;&gt;HasAnyChildren</text>
<text text-anchor="start" x="5074.5" y="-701.3" font-family="monospace" font-size="14.00">    RValue = [CallFunc_HasAnyChildren_ReturnValue]</text>
</g>
<!-- IsEmpty&#45;&gt;IsEmpty__0 -->
<g id="edge24" class="edge">
<title>IsEmpty&#45;&gt;IsEmpty__0</title>
<path fill="none" stroke="black" d="M5355.5,-910.99C5355.5,-880.31 5355.5,-837.48 5355.5,-802.81"/>
<polygon fill="black" stroke="black" points="5359,-802.91 5355.5,-792.91 5352,-802.91 5359,-802.91"/>
</g>
<!-- IsEmpty__42 -->
<g id="node34" class="node">
<title>IsEmpty__42</title>
<polygon fill="#eeeeee" stroke="black" points="5071,-536.5 5071,-604.5 5640,-604.5 5640,-536.5 5071,-536.5"/>
<text text-anchor="start" x="5079" y="-589.3" font-family="monospace" font-size="14.00">EX_LetBool</text>
<text text-anchor="start" x="5079" y="-574.3" font-family="monospace" font-size="14.00">  EX_LocalVariable [CallFunc_Not_PreBool_ReturnValue]</text>
<text text-anchor="start" x="5079" y="-559.3" font-family="monospace" font-size="14.00">  EX_CallMath import /Script/Engine&#45;&gt;KismetMathLibrary&#45;&gt;Not_PreBool</text>
<text text-anchor="start" x="5079" y="-544.3" font-family="monospace" font-size="14.00">    EX_LocalVariable [CallFunc_HasAnyChildren_ReturnValue]</text>
</g>
<!-- IsEmpty__0&#45;&gt;IsEmpty__42 -->
<g id="edge25" class="edge">
<title>IsEmpty__0&#45;&gt;IsEmpty__42</title>
<path fill="none" stroke="black" d="M5355.5,-693.69C5355.5,-669.22 5355.5,-639.62 5355.5,-615.68"/>
<polygon fill="black" stroke="black" points="5359,-615.95 5355.5,-605.95 5352,-615.95 5359,-615.95"/>
</g>
<!-- IsEmpty__71 -->
<g id="node35" class="node">
<title>IsEmpty__71</title>
<polygon fill="#eeeeee" stroke="black" points="5128.5,-379.5 5128.5,-447.5 5582.5,-447.5 5582.5,-379.5 5128.5,-379.5"/>
<text text-anchor="start" x="5136.5" y="-432.3" font-family="monospace" font-size="14.00">EX_LetBool</text>
<text text-anchor="start" x="5136.5" y="-417.3" font-family="monospace" font-size="14.00">  EX_LocalOutVariable</text>
<text text-anchor="start" x="5136.5" y="-402.3" font-family="monospace" font-size="14.00">    [IsEmpty]</text>
<text text-anchor="start" x="5136.5" y="-387.3" font-family="monospace" font-size="14.00">  EX_LocalVariable [CallFunc_Not_PreBool_ReturnValue]</text>
</g>
<!-- IsEmpty__42&#45;&gt;IsEmpty__71 -->
<g id="edge26" class="edge">
<title>IsEmpty__42&#45;&gt;IsEmpty__71</title>
<path fill="none" stroke="black" d="M5355.5,-536.63C5355.5,-513.92 5355.5,-483.46 5355.5,-458.64"/>
<polygon fill="black" stroke="black" points="5359,-458.84 5355.5,-448.84 5352,-458.84 5359,-458.84"/>
</g>
<!-- IsEmpty__90 -->
<g id="node36" class="node">
<title>IsEmpty__90</title>
<polygon fill="#eeeeee" stroke="black" points="5297.5,-245 5297.5,-283 5413.5,-283 5413.5,-245 5297.5,-245"/>
<text text-anchor="start" x="5305.5" y="-267.8" font-family="monospace" font-size="14.00">EX_Return</text>
<text text-anchor="start" x="5305.5" y="-252.8" font-family="monospace" font-size="14.00">  EX_Nothing</text>
</g>
<!-- IsEmpty__71&#45;&gt;IsEmpty__90 -->
<g id="edge27" class="edge">
<title>IsEmpty__71&#45;&gt;IsEmpty__90</title>
<path fill="none" stroke="black" d="M5355.5,-379.76C5355.5,-354.21 5355.5,-319.02 5355.5,-294.36"/>
<polygon fill="black" stroke="black" points="5359,-294.38 5355.5,-284.38 5352,-294.38 5359,-294.38"/>
</g>
<!-- IsEmpty__92 -->
<g id="node37" class="node">
<title>IsEmpty__92</title>
<polygon fill="#eeeeee" stroke="black" points="3900.5,-57.5 3900.5,-93.5 4032.5,-93.5 4032.5,-57.5 3900.5,-57.5"/>
<text text-anchor="start" x="3908.5" y="-71.8" font-family="monospace" font-size="14.00">EX_EndOfScript</text>
</g>
</g>
</svg>
