<?xml version="1.0" encoding="UTF-8" standalone="no"?>
<!DOCTYPE svg PUBLIC "-//W3C//DTD SVG 1.1//EN"
 "http://www.w3.org/Graphics/SVG/1.1/DTD/svg11.dtd">
<!-- Generated by graphviz version 7.0.1 (0)
 -->
<!-- Pages: 1 -->
<svg width="2269pt" height="1652pt"
 viewBox="0.00 0.00 2269.00 1652.00" xmlns="http://www.w3.org/2000/svg" xmlns:xlink="http://www.w3.org/1999/xlink">
<g id="graph0" class="graph" transform="scale(1 1) rotate(0) translate(4 1648)">
<polygon fill="white" stroke="none" points="-4,4 -4,-1648 2265,-1648 2265,4 -4,4"/>
<!-- UI_MissionCheat_Base_C -->
<g id="node1" class="node">
<title>UI_MissionCheat_Base_C</title>
<polygon fill="#88ff88" stroke="black" points="0,-1470.5 0,-1523.5 388,-1523.5 388,-1470.5 0,-1470.5"/>
<text text-anchor="start" x="8" y="-1508.3" font-family="monospace" font-size="14.00">ClassExport: UI_MissionCheat_Base_C</text>
<text text-anchor="start" x="8" y="-1493.3" font-family="monospace" font-size="14.00">  SuperStruct: import /Script/UMG&#45;&gt;UserWidget</text>
<text text-anchor="start" x="8" y="-1478.3" font-family="monospace" font-size="14.00">  Properties:</text>
</g>
<!-- CreateButton -->
<g id="node2" class="node">
<title>CreateButton</title>
<polygon fill="#ff8888" stroke="black" points="406.5,-1350.5 406.5,-1643.5 1495.5,-1643.5 1495.5,-1350.5 406.5,-1350.5"/>
<text text-anchor="start" x="414.5" y="-1628.3" font-family="monospace" font-size="14.00">Function CreateButton</text>
<text text-anchor="start" x="414.5" y="-1613.3" font-family="monospace" font-size="14.00">  StrProperty Base Text</text>
<text text-anchor="start" x="414.5" y="-1598.3" font-family="monospace" font-size="14.00">    CPF_BlueprintVisible|CPF_BlueprintReadOnly|CPF_Parm</text>
<text text-anchor="start" x="414.5" y="-1583.3" font-family="monospace" font-size="14.00">  StrProperty Item Text</text>
<text text-anchor="start" x="414.5" y="-1568.3" font-family="monospace" font-size="14.00">    CPF_BlueprintVisible|CPF_BlueprintReadOnly|CPF_Parm</text>
<text text-anchor="start" x="414.5" y="-1553.3" font-family="monospace" font-size="14.00">  ObjectProperty Panel</text>
<text text-anchor="start" x="414.5" y="-1538.3" font-family="monospace" font-size="14.00">    CPF_BlueprintVisible|CPF_BlueprintReadOnly|CPF_Parm|CPF_OutParm|CPF_InstancedReference|CPF_ReferenceParm</text>
<text text-anchor="start" x="414.5" y="-1523.3" font-family="monospace" font-size="14.00">  ArrayProperty TargetArray</text>
<text text-anchor="start" x="414.5" y="-1508.3" font-family="monospace" font-size="14.00">    CPF_ConstParm|CPF_BlueprintVisible|CPF_BlueprintReadOnly|CPF_Parm|CPF_OutParm|CPF_ReferenceParm|CPF_ContainsInstancedReference</text>
<text text-anchor="start" x="414.5" y="-1493.3" font-family="monospace" font-size="14.00">  ObjectProperty ReturnValue</text>
<text text-anchor="start" x="414.5" y="-1478.3" font-family="monospace" font-size="14.00">    CPF_Parm|CPF_OutParm|CPF_ReturnParm|CPF_InstancedReference</text>
<text text-anchor="start" x="414.5" y="-1463.3" font-family="monospace" font-size="14.00">  StrProperty CallFunc_Concat_StrStr_ReturnValue</text>
<text text-anchor="start" x="414.5" y="-1448.3" font-family="monospace" font-size="14.00">  ObjectProperty CallFunc_GetOwningPlayer_ReturnValue</text>
<text text-anchor="start" x="414.5" y="-1433.3" font-family="monospace" font-size="14.00">  TextProperty CallFunc_Conv_StringToText_ReturnValue</text>
<text text-anchor="start" x="414.5" y="-1418.3" font-family="monospace" font-size="14.00">  ObjectProperty CallFunc_Create_ReturnValue</text>
<text text-anchor="start" x="414.5" y="-1403.3" font-family="monospace" font-size="14.00">    CPF_InstancedReference</text>
<text text-anchor="start" x="414.5" y="-1388.3" font-family="monospace" font-size="14.00">  ObjectProperty CallFunc_AddChild_ReturnValue</text>
<text text-anchor="start" x="414.5" y="-1373.3" font-family="monospace" font-size="14.00">    CPF_InstancedReference</text>
<text text-anchor="start" x="414.5" y="-1358.3" font-family="monospace" font-size="14.00">  IntProperty CallFunc_Array_Add_ReturnValue</text>
</g>
<!-- CreateButton__0 -->
<g id="node3" class="node">
<title>CreateButton__0</title>
<polygon fill="#eeeeee" stroke="black" points="707.5,-1230.5 707.5,-1283.5 1194.5,-1283.5 1194.5,-1230.5 707.5,-1230.5"/>
<text text-anchor="start" x="715.5" y="-1268.3" font-family="monospace" font-size="14.00">EX_LetObj</text>
<text text-anchor="start" x="715.5" y="-1253.3" font-family="monospace" font-size="14.00">  EX_LocalVariable [CallFunc_GetOwningPlayer_ReturnValue]</text>
<text text-anchor="start" x="715.5" y="-1238.3" font-family="monospace" font-size="14.00">  EX_VirtualFunction GetOwningPlayer</text>
</g>
<!-- CreateButton&#45;&gt;CreateButton__0 -->
<g id="edge1" class="edge">
<title>CreateButton&#45;&gt;CreateButton__0</title>
<path fill="none" stroke="black" d="M951,-1350.7C951,-1330.03 951,-1310.48 951,-1294.7"/>
<polygon fill="black" stroke="black" points="954.5,-1294.93 951,-1284.93 947.5,-1294.93 954.5,-1294.93"/>
</g>
<!-- CreateButton__24 -->
<g id="node4" class="node">
<title>CreateButton__24</title>
<polygon fill="#eeeeee" stroke="black" points="509.5,-1020.5 509.5,-1163.5 1392.5,-1163.5 1392.5,-1020.5 509.5,-1020.5"/>
<text text-anchor="start" x="517.5" y="-1148.3" font-family="monospace" font-size="14.00">EX_LetObj</text>
<text text-anchor="start" x="517.5" y="-1133.3" font-family="monospace" font-size="14.00">  EX_LocalVariable [CallFunc_Create_ReturnValue]</text>
<text text-anchor="start" x="517.5" y="-1118.3" font-family="monospace" font-size="14.00">  EX_Context</text>
<text text-anchor="start" x="517.5" y="-1103.3" font-family="monospace" font-size="14.00">    EX_ObjectConst import /Script/UMG&#45;&gt;Default__WidgetBlueprintLibrary</text>
<text text-anchor="start" x="517.5" y="-1088.3" font-family="monospace" font-size="14.00">    EX_FinalFunction import /Script/UMG&#45;&gt;WidgetBlueprintLibrary&#45;&gt;Create</text>
<text text-anchor="start" x="517.5" y="-1073.3" font-family="monospace" font-size="14.00">      EX_Self</text>
<text text-anchor="start" x="517.5" y="-1058.3" font-family="monospace" font-size="14.00">      EX_ObjectConst import /Game/UI/Menu_Cheats/CheatMenu_BasicButtonWText&#45;&gt;CheatMenu_BasicButtonWText_C</text>
<text text-anchor="start" x="517.5" y="-1043.3" font-family="monospace" font-size="14.00">      EX_LocalVariable [CallFunc_GetOwningPlayer_ReturnValue]</text>
<text text-anchor="start" x="517.5" y="-1028.3" font-family="monospace" font-size="14.00">    RValue = [CallFunc_Create_ReturnValue]</text>
</g>
<!-- CreateButton__0&#45;&gt;CreateButton__24 -->
<g id="edge2" class="edge">
<title>CreateButton__0&#45;&gt;CreateButton__24</title>
<path fill="none" stroke="black" d="M951,-1230.53C951,-1215.27 951,-1194.93 951,-1174.58"/>
<polygon fill="black" stroke="black" points="954.5,-1174.82 951,-1164.82 947.5,-1174.82 954.5,-1174.82"/>
</g>
<!-- CreateButton__85 -->
<g id="node5" class="node">
<title>CreateButton__85</title>
<polygon fill="#eeeeee" stroke="black" points="650,-900.5 650,-983.5 1252,-983.5 1252,-900.5 650,-900.5"/>
<text text-anchor="start" x="658" y="-968.3" font-family="monospace" font-size="14.00">EX_Let</text>
<text text-anchor="start" x="658" y="-953.3" font-family="monospace" font-size="14.00">  EX_LocalVariable [CallFunc_Concat_StrStr_ReturnValue]</text>
<text text-anchor="start" x="658" y="-938.3" font-family="monospace" font-size="14.00">  EX_CallMath import /Script/Engine&#45;&gt;KismetStringLibrary&#45;&gt;Concat_StrStr</text>
<text text-anchor="start" x="658" y="-923.3" font-family="monospace" font-size="14.00">    EX_LocalVariable [Base Text]</text>
<text text-anchor="start" x="658" y="-908.3" font-family="monospace" font-size="14.00">    EX_LocalVariable [Item Text]</text>
</g>
<!-- CreateButton__24&#45;&gt;CreateButton__85 -->
<g id="edge3" class="edge">
<title>CreateButton__24&#45;&gt;CreateButton__85</title>
<path fill="none" stroke="black" d="M951,-1020.9C951,-1012.07 951,-1003.16 951,-994.68"/>
<polygon fill="black" stroke="black" points="954.5,-994.95 951,-984.95 947.5,-994.95 954.5,-994.95"/>
</g>
<!-- CreateButton__131 -->
<g id="node6" class="node">
<title>CreateButton__131</title>
<polygon fill="#eeeeee" stroke="black" points="641.5,-728 641.5,-796 1260.5,-796 1260.5,-728 641.5,-728"/>
<text text-anchor="start" x="649.5" y="-780.8" font-family="monospace" font-size="14.00">EX_Let</text>
<text text-anchor="start" x="649.5" y="-765.8" font-family="monospace" font-size="14.00">  EX_LocalVariable [CallFunc_Conv_StringToText_ReturnValue]</text>
<text text-anchor="start" x="649.5" y="-750.8" font-family="monospace" font-size="14.00">  EX_CallMath import /Script/Engine&#45;&gt;KismetTextLibrary&#45;&gt;Conv_StringToText</text>
<text text-anchor="start" x="649.5" y="-735.8" font-family="monospace" font-size="14.00">    EX_LocalVariable [CallFunc_Concat_StrStr_ReturnValue]</text>
</g>
<!-- CreateButton__85&#45;&gt;CreateButton__131 -->
<g id="edge4" class="edge">
<title>CreateButton__85&#45;&gt;CreateButton__131</title>
<path fill="none" stroke="black" d="M951,-900.61C951,-872.75 951,-835.73 951,-807.1"/>
<polygon fill="black" stroke="black" points="954.5,-807.31 951,-797.31 947.5,-807.31 954.5,-807.31"/>
</g>
<!-- CreateButton__168 -->
<g id="node7" class="node">
<title>CreateButton__168</title>
<polygon fill="#eeeeee" stroke="black" points="691,-540.5 691,-623.5 1211,-623.5 1211,-540.5 691,-540.5"/>
<text text-anchor="start" x="699" y="-608.3" font-family="monospace" font-size="14.00">EX_Context</text>
<text text-anchor="start" x="699" y="-593.3" font-family="monospace" font-size="14.00">  EX_LocalVariable [CallFunc_Create_ReturnValue]</text>
<text text-anchor="start" x="699" y="-578.3" font-family="monospace" font-size="14.00">  EX_LocalVirtualFunction SetButtonText</text>
<text text-anchor="start" x="699" y="-563.3" font-family="monospace" font-size="14.00">    EX_LocalVariable [CallFunc_Conv_StringToText_ReturnValue]</text>
<text text-anchor="start" x="699" y="-548.3" font-family="monospace" font-size="14.00">  RValue = []</text>
</g>
<!-- CreateButton__131&#45;&gt;CreateButton__168 -->
<g id="edge5" class="edge">
<title>CreateButton__131&#45;&gt;CreateButton__168</title>
<path fill="none" stroke="black" d="M951,-728.35C951,-702.1 951,-664.73 951,-634.46"/>
<polygon fill="black" stroke="black" points="954.5,-634.76 951,-624.76 947.5,-634.76 954.5,-634.76"/>
</g>
<!-- CreateButton__213 -->
<g id="node8" class="node">
<title>CreateButton__213</title>
<polygon fill="#eeeeee" stroke="black" points="641.5,-360.5 641.5,-503.5 1260.5,-503.5 1260.5,-360.5 641.5,-360.5"/>
<text text-anchor="start" x="649.5" y="-488.3" font-family="monospace" font-size="14.00">EX_Let</text>
<text text-anchor="start" x="649.5" y="-473.3" font-family="monospace" font-size="14.00">  EX_LocalVariable [CallFunc_Array_Add_ReturnValue]</text>
<text text-anchor="start" x="649.5" y="-458.3" font-family="monospace" font-size="14.00">  EX_Context</text>
<text text-anchor="start" x="649.5" y="-443.3" font-family="monospace" font-size="14.00">    EX_ObjectConst import /Script/Engine&#45;&gt;Default__KismetArrayLibrary</text>
<text text-anchor="start" x="649.5" y="-428.3" font-family="monospace" font-size="14.00">    EX_FinalFunction import /Script/Engine&#45;&gt;KismetArrayLibrary&#45;&gt;Array_Add</text>
<text text-anchor="start" x="649.5" y="-413.3" font-family="monospace" font-size="14.00">      EX_LocalOutVariable</text>
<text text-anchor="start" x="649.5" y="-398.3" font-family="monospace" font-size="14.00">        [TargetArray]</text>
<text text-anchor="start" x="649.5" y="-383.3" font-family="monospace" font-size="14.00">      EX_LocalVariable [CallFunc_Create_ReturnValue]</text>
<text text-anchor="start" x="649.5" y="-368.3" font-family="monospace" font-size="14.00">    RValue = [CallFunc_Array_Add_ReturnValue]</text>
</g>
<!-- CreateButton__168&#45;&gt;CreateButton__213 -->
<g id="edge6" class="edge">
<title>CreateButton__168&#45;&gt;CreateButton__213</title>
<path fill="none" stroke="black" d="M951,-540.56C951,-532.43 951,-523.63 951,-514.67"/>
<polygon fill="black" stroke="black" points="954.5,-514.79 951,-504.79 947.5,-514.79 954.5,-514.79"/>
</g>
<!-- CreateButton__281 -->
<g id="node9" class="node">
<title>CreateButton__281</title>
<polygon fill="#eeeeee" stroke="black" points="687,-195.5 687,-323.5 1215,-323.5 1215,-195.5 687,-195.5"/>
<text text-anchor="start" x="695" y="-308.3" font-family="monospace" font-size="14.00">EX_LetObj</text>
<text text-anchor="start" x="695" y="-293.3" font-family="monospace" font-size="14.00">  EX_LocalVariable [CallFunc_AddChild_ReturnValue]</text>
<text text-anchor="start" x="695" y="-278.3" font-family="monospace" font-size="14.00">  EX_Context</text>
<text text-anchor="start" x="695" y="-263.3" font-family="monospace" font-size="14.00">    EX_LocalOutVariable</text>
<text text-anchor="start" x="695" y="-248.3" font-family="monospace" font-size="14.00">      [Panel]</text>
<text text-anchor="start" x="695" y="-233.3" font-family="monospace" font-size="14.00">    EX_FinalFunction import /Script/UMG&#45;&gt;PanelWidget&#45;&gt;AddChild</text>
<text text-anchor="start" x="695" y="-218.3" font-family="monospace" font-size="14.00">      EX_LocalVariable [CallFunc_Create_ReturnValue]</text>
<text text-anchor="start" x="695" y="-203.3" font-family="monospace" font-size="14.00">    RValue = [CallFunc_AddChild_ReturnValue]</text>
</g>
<!-- CreateButton__213&#45;&gt;CreateButton__281 -->
<g id="edge7" class="edge">
<title>CreateButton__213&#45;&gt;CreateButton__281</title>
<path fill="none" stroke="black" d="M951,-360.67C951,-352.06 951,-343.24 951,-334.57"/>
<polygon fill="black" stroke="black" points="954.5,-334.82 951,-324.82 947.5,-334.82 954.5,-334.82"/>
</g>
<!-- CreateButton__332 -->
<g id="node10" class="node">
<title>CreateButton__332</title>
<polygon fill="#eeeeee" stroke="black" points="744.5,-90.5 744.5,-158.5 1157.5,-158.5 1157.5,-90.5 744.5,-90.5"/>
<text text-anchor="start" x="752.5" y="-143.3" font-family="monospace" font-size="14.00">EX_LetObj</text>
<text text-anchor="start" x="752.5" y="-128.3" font-family="monospace" font-size="14.00">  EX_LocalOutVariable</text>
<text text-anchor="start" x="752.5" y="-113.3" font-family="monospace" font-size="14.00">    [ReturnValue]</text>
<text text-anchor="start" x="752.5" y="-98.3" font-family="monospace" font-size="14.00">  EX_LocalVariable [CallFunc_Create_ReturnValue]</text>
</g>
<!-- CreateButton__281&#45;&gt;CreateButton__332 -->
<g id="edge8" class="edge">
<title>CreateButton__281&#45;&gt;CreateButton__332</title>
<path fill="none" stroke="black" d="M951,-195.51C951,-186.74 951,-177.9 951,-169.59"/>
<polygon fill="black" stroke="black" points="954.5,-169.76 951,-159.76 947.5,-169.76 954.5,-169.76"/>
</g>
<!-- CreateButton__351 -->
<g id="node11" class="node">
<title>CreateButton__351</title>
<polygon fill="#eeeeee" stroke="black" points="856,-0.5 856,-53.5 1046,-53.5 1046,-0.5 856,-0.5"/>
<text text-anchor="start" x="864" y="-38.3" font-family="monospace" font-size="14.00">EX_Return</text>
<text text-anchor="start" x="864" y="-23.3" font-family="monospace" font-size="14.00">  EX_LocalOutVariable</text>
<text text-anchor="start" x="864" y="-8.3" font-family="monospace" font-size="14.00">    [ReturnValue]</text>
</g>
<!-- CreateButton__332&#45;&gt;CreateButton__351 -->
<g id="edge9" class="edge">
<title>CreateButton__332&#45;&gt;CreateButton__351</title>
<path fill="none" stroke="black" d="M951,-90.63C951,-82.25 951,-73.19 951,-64.63"/>
<polygon fill="black" stroke="black" points="954.5,-64.9 951,-54.9 947.5,-64.9 954.5,-64.9"/>
</g>
<!-- CreateButton__361 -->
<g id="node12" class="node">
<title>CreateButton__361</title>
<polygon fill="#eeeeee" stroke="black" points="1279,-414 1279,-450 1411,-450 1411,-414 1279,-414"/>
<text text-anchor="start" x="1287" y="-428.3" font-family="monospace" font-size="14.00">EX_EndOfScript</text>
</g>
<!-- TeleportTo -->
<g id="node13" class="node">
<title>TeleportTo</title>
<polygon fill="#ff8888" stroke="black" points="1514,-1410.5 1514,-1583.5 2232,-1583.5 2232,-1410.5 1514,-1410.5"/>
<text text-anchor="start" x="1522" y="-1568.3" font-family="monospace" font-size="14.00">Function TeleportTo</text>
<text text-anchor="start" x="1522" y="-1553.3" font-family="monospace" font-size="14.00">  FloatProperty desiredDistance</text>
<text text-anchor="start" x="1522" y="-1538.3" font-family="monospace" font-size="14.00">    CPF_BlueprintVisible|CPF_BlueprintReadOnly|CPF_Parm</text>
<text text-anchor="start" x="1522" y="-1523.3" font-family="monospace" font-size="14.00">  ObjectProperty Taget</text>
<text text-anchor="start" x="1522" y="-1508.3" font-family="monospace" font-size="14.00">    CPF_BlueprintVisible|CPF_BlueprintReadOnly|CPF_Parm|CPF_OutParm|CPF_ReferenceParm</text>
<text text-anchor="start" x="1522" y="-1493.3" font-family="monospace" font-size="14.00">  ObjectProperty CallFunc_GetFSDGameInstance_ReturnValue</text>
<text text-anchor="start" x="1522" y="-1478.3" font-family="monospace" font-size="14.00">  StructProperty CallFunc_K2_GetActorLocation_ReturnValue</text>
<text text-anchor="start" x="1522" y="-1463.3" font-family="monospace" font-size="14.00">  StructProperty CallFunc_FindCharacterTeleportLocation_ReturnValue</text>
<text text-anchor="start" x="1522" y="-1448.3" font-family="monospace" font-size="14.00">  StructProperty CallFunc_K2_SetActorLocation_SweepHitResult</text>
<text text-anchor="start" x="1522" y="-1433.3" font-family="monospace" font-size="14.00">    CPF_ContainsInstancedReference</text>
<text text-anchor="start" x="1522" y="-1418.3" font-family="monospace" font-size="14.00">  BoolProperty CallFunc_K2_SetActorLocation_ReturnValue</text>
</g>
<!-- TeleportTo__0 -->
<g id="node14" class="node">
<title>TeleportTo__0</title>
<polygon fill="#eeeeee" stroke="black" points="1576,-1200.5 1576,-1313.5 2170,-1313.5 2170,-1200.5 1576,-1200.5"/>
<text text-anchor="start" x="1584" y="-1298.3" font-family="monospace" font-size="14.00">EX_Let</text>
<text text-anchor="start" x="1584" y="-1283.3" font-family="monospace" font-size="14.00">  EX_LocalVariable [CallFunc_K2_GetActorLocation_ReturnValue]</text>
<text text-anchor="start" x="1584" y="-1268.3" font-family="monospace" font-size="14.00">  EX_Context</text>
<text text-anchor="start" x="1584" y="-1253.3" font-family="monospace" font-size="14.00">    EX_LocalOutVariable</text>
<text text-anchor="start" x="1584" y="-1238.3" font-family="monospace" font-size="14.00">      [Taget]</text>
<text text-anchor="start" x="1584" y="-1223.3" font-family="monospace" font-size="14.00">    EX_FinalFunction import /Script/Engine&#45;&gt;Actor&#45;&gt;K2_GetActorLocation</text>
<text text-anchor="start" x="1584" y="-1208.3" font-family="monospace" font-size="14.00">    RValue = [CallFunc_K2_GetActorLocation_ReturnValue]</text>
</g>
<!-- TeleportTo&#45;&gt;TeleportTo__0 -->
<g id="edge10" class="edge">
<title>TeleportTo&#45;&gt;TeleportTo__0</title>
<path fill="none" stroke="black" d="M1873,-1410.75C1873,-1382.39 1873,-1351.24 1873,-1324.51"/>
<polygon fill="black" stroke="black" points="1876.5,-1324.86 1873,-1314.86 1869.5,-1324.86 1876.5,-1324.86"/>
</g>
<!-- TeleportTo__50 -->
<g id="node15" class="node">
<title>TeleportTo__50</title>
<polygon fill="#eeeeee" stroke="black" points="1485,-1020.5 1485,-1163.5 2261,-1163.5 2261,-1020.5 1485,-1020.5"/>
<text text-anchor="start" x="1493" y="-1148.3" font-family="monospace" font-size="14.00">EX_Let</text>
<text text-anchor="start" x="1493" y="-1133.3" font-family="monospace" font-size="14.00">  EX_LocalVariable [CallFunc_FindCharacterTeleportLocation_ReturnValue]</text>
<text text-anchor="start" x="1493" y="-1118.3" font-family="monospace" font-size="14.00">  EX_Context</text>
<text text-anchor="start" x="1493" y="-1103.3" font-family="monospace" font-size="14.00">    EX_ObjectConst import /Script/FSD&#45;&gt;Default__ActorFunctionLibrary</text>
<text text-anchor="start" x="1493" y="-1088.3" font-family="monospace" font-size="14.00">    EX_FinalFunction import /Script/FSD&#45;&gt;ActorFunctionLibrary&#45;&gt;FindCharacterTeleportLocation</text>
<text text-anchor="start" x="1493" y="-1073.3" font-family="monospace" font-size="14.00">      EX_Self</text>
<text text-anchor="start" x="1493" y="-1058.3" font-family="monospace" font-size="14.00">      EX_LocalVariable [CallFunc_K2_GetActorLocation_ReturnValue]</text>
<text text-anchor="start" x="1493" y="-1043.3" font-family="monospace" font-size="14.00">      EX_LocalVariable [desiredDistance]</text>
<text text-anchor="start" x="1493" y="-1028.3" font-family="monospace" font-size="14.00">    RValue = [CallFunc_FindCharacterTeleportLocation_ReturnValue]</text>
</g>
<!-- TeleportTo__0&#45;&gt;TeleportTo__50 -->
<g id="edge11" class="edge">
<title>TeleportTo__0&#45;&gt;TeleportTo__50</title>
<path fill="none" stroke="black" d="M1873,-1200.82C1873,-1192.47 1873,-1183.71 1873,-1174.94"/>
<polygon fill="black" stroke="black" points="1876.5,-1174.96 1873,-1164.96 1869.5,-1174.96 1876.5,-1174.96"/>
</g>
<!-- TeleportTo__119 -->
<g id="node16" class="node">
<title>TeleportTo__119</title>
<polygon fill="#eeeeee" stroke="black" points="1563.5,-908 1563.5,-976 2182.5,-976 2182.5,-908 1563.5,-908"/>
<text text-anchor="start" x="1571.5" y="-960.8" font-family="monospace" font-size="14.00">EX_LetObj</text>
<text text-anchor="start" x="1571.5" y="-945.8" font-family="monospace" font-size="14.00">  EX_LocalVariable [CallFunc_GetFSDGameInstance_ReturnValue]</text>
<text text-anchor="start" x="1571.5" y="-930.8" font-family="monospace" font-size="14.00">  EX_CallMath import /Script/FSD&#45;&gt;GameFunctionLibrary&#45;&gt;GetFSDGameInstance</text>
<text text-anchor="start" x="1571.5" y="-915.8" font-family="monospace" font-size="14.00">    EX_Self</text>
</g>
<!-- TeleportTo__50&#45;&gt;TeleportTo__119 -->
<g id="edge12" class="edge">
<title>TeleportTo__50&#45;&gt;TeleportTo__119</title>
<path fill="none" stroke="black" d="M1873,-1020.9C1873,-1009.5 1873,-997.98 1873,-987.42"/>
<polygon fill="black" stroke="black" points="1876.5,-987.47 1873,-977.47 1869.5,-987.47 1876.5,-987.47"/>
</g>
<!-- TeleportTo__140 -->
<g id="node17" class="node">
<title>TeleportTo__140</title>
<polygon fill="#eeeeee" stroke="black" points="1555.5,-660.5 1555.5,-863.5 2190.5,-863.5 2190.5,-660.5 1555.5,-660.5"/>
<text text-anchor="start" x="1563.5" y="-848.3" font-family="monospace" font-size="14.00">EX_LetBool</text>
<text text-anchor="start" x="1563.5" y="-833.3" font-family="monospace" font-size="14.00">  EX_LocalVariable [CallFunc_K2_SetActorLocation_ReturnValue]</text>
<text text-anchor="start" x="1563.5" y="-818.3" font-family="monospace" font-size="14.00">  EX_Context</text>
<text text-anchor="start" x="1563.5" y="-803.3" font-family="monospace" font-size="14.00">    EX_Context</text>
<text text-anchor="start" x="1563.5" y="-788.3" font-family="monospace" font-size="14.00">      EX_LocalVariable [CallFunc_GetFSDGameInstance_ReturnValue]</text>
<text text-anchor="start" x="1563.5" y="-773.3" font-family="monospace" font-size="14.00">      EX_InstanceVariable [LocalPlayerCharacter]</text>
<text text-anchor="start" x="1563.5" y="-758.3" font-family="monospace" font-size="14.00">      RValue = [LocalPlayerCharacter]</text>
<text text-anchor="start" x="1563.5" y="-743.3" font-family="monospace" font-size="14.00">    EX_FinalFunction import /Script/Engine&#45;&gt;Actor&#45;&gt;K2_SetActorLocation</text>
<text text-anchor="start" x="1563.5" y="-728.3" font-family="monospace" font-size="14.00">      EX_LocalVariable [CallFunc_FindCharacterTeleportLocation_ReturnValue]</text>
<text text-anchor="start" x="1563.5" y="-713.3" font-family="monospace" font-size="14.00">      EX_False</text>
<text text-anchor="start" x="1563.5" y="-698.3" font-family="monospace" font-size="14.00">      EX_LocalVariable [CallFunc_K2_SetActorLocation_SweepHitResult]</text>
<text text-anchor="start" x="1563.5" y="-683.3" font-family="monospace" font-size="14.00">      EX_True</text>
<text text-anchor="start" x="1563.5" y="-668.3" font-family="monospace" font-size="14.00">    RValue = [CallFunc_K2_SetActorLocation_ReturnValue]</text>
</g>
<!-- TeleportTo__119&#45;&gt;TeleportTo__140 -->
<g id="edge13" class="edge">
<title>TeleportTo__119&#45;&gt;TeleportTo__140</title>
<path fill="none" stroke="black" d="M1873,-908.35C1873,-898.36 1873,-886.76 1873,-874.56"/>
<polygon fill="black" stroke="black" points="1876.5,-874.72 1873,-864.72 1869.5,-874.72 1876.5,-874.72"/>
</g>
<!-- TeleportTo__224 -->
<g id="node18" class="node">
<title>TeleportTo__224</title>
<polygon fill="#eeeeee" stroke="black" points="1815,-563 1815,-601 1931,-601 1931,-563 1815,-563"/>
<text text-anchor="start" x="1823" y="-585.8" font-family="monospace" font-size="14.00">EX_Return</text>
<text text-anchor="start" x="1823" y="-570.8" font-family="monospace" font-size="14.00">  EX_Nothing</text>
</g>
<!-- TeleportTo__140&#45;&gt;TeleportTo__224 -->
<g id="edge14" class="edge">
<title>TeleportTo__140&#45;&gt;TeleportTo__224</title>
<path fill="none" stroke="black" d="M1873,-660.56C1873,-642.93 1873,-625.91 1873,-612.32"/>
<polygon fill="black" stroke="black" points="1876.5,-612.41 1873,-602.41 1869.5,-612.41 1876.5,-612.41"/>
</g>
<!-- TeleportTo__226 -->
<g id="node19" class="node">
<title>TeleportTo__226</title>
<polygon fill="#eeeeee" stroke="black" points="1233,-241.5 1233,-277.5 1365,-277.5 1365,-241.5 1233,-241.5"/>
<text text-anchor="start" x="1241" y="-255.8" font-family="monospace" font-size="14.00">EX_EndOfScript</text>
</g>
</g>
</svg>
