<?xml version="1.0" encoding="UTF-8" standalone="no"?>
<!DOCTYPE svg PUBLIC "-//W3C//DTD SVG 1.1//EN"
 "http://www.w3.org/Graphics/SVG/1.1/DTD/svg11.dtd">
<!-- Generated by graphviz version 7.0.1 (0)
 -->
<!-- Pages: 1 -->
<svg width="1881pt" height="467pt"
 viewBox="0.00 0.00 1881.00 467.00" xmlns="http://www.w3.org/2000/svg" xmlns:xlink="http://www.w3.org/1999/xlink">
<g id="graph0" class="graph" transform="scale(1 1) rotate(0) translate(4 463)">
<polygon fill="white" stroke="none" points="-4,4 -4,-463 1877,-463 1877,4 -4,4"/>
<!-- ESI_BoughWasp_Spawner_C -->
<g id="node1" class="node">
<title>ESI_BoughWasp_Spawner_C</title>
<polygon fill="#88ff88" stroke="black" points="0,-225.5 0,-458.5 594,-458.5 594,-225.5 0,-225.5"/>
<text text-anchor="start" x="8" y="-443.3" font-family="monospace" font-size="14.00">ClassExport: ESI_BoughWasp_Spawner_C</text>
<text text-anchor="start" x="8" y="-428.3" font-family="monospace" font-size="14.00">  SuperStruct: import /Script/FSD&#45;&gt;EnemyShowroomItem</text>
<text text-anchor="start" x="8" y="-413.3" font-family="monospace" font-size="14.00">  Properties:</text>
<text text-anchor="start" x="8" y="-398.3" font-family="monospace" font-size="14.00">    StructProperty UberGraphFrame</text>
<text text-anchor="start" x="8" y="-383.3" font-family="monospace" font-size="14.00">      CPF_Transient|CPF_DuplicateTransient</text>
<text text-anchor="start" x="8" y="-368.3" font-family="monospace" font-size="14.00">    ObjectProperty SM_HollowboughWaspNest_02</text>
<text text-anchor="start" x="8" y="-353.3" font-family="monospace" font-size="14.00">      CPF_BlueprintVisible|CPF_InstancedReference|CPF_NonTransactional</text>
<text text-anchor="start" x="8" y="-338.3" font-family="monospace" font-size="14.00">    ObjectProperty P_InsectSwarm</text>
<text text-anchor="start" x="8" y="-323.3" font-family="monospace" font-size="14.00">      CPF_BlueprintVisible|CPF_InstancedReference|CPF_NonTransactional</text>
<text text-anchor="start" x="8" y="-308.3" font-family="monospace" font-size="14.00">    ObjectProperty PointLight</text>
<text text-anchor="start" x="8" y="-293.3" font-family="monospace" font-size="14.00">      CPF_BlueprintVisible|CPF_InstancedReference|CPF_NonTransactional</text>
<text text-anchor="start" x="8" y="-278.3" font-family="monospace" font-size="14.00">    ObjectProperty StaticMesh</text>
<text text-anchor="start" x="8" y="-263.3" font-family="monospace" font-size="14.00">      CPF_BlueprintVisible|CPF_InstancedReference|CPF_NonTransactional</text>
<text text-anchor="start" x="8" y="-248.3" font-family="monospace" font-size="14.00">    ObjectProperty DefaultSceneRoot</text>
<text text-anchor="start" x="8" y="-233.3" font-family="monospace" font-size="14.00">      CPF_BlueprintVisible|CPF_InstancedReference|CPF_NonTransactional</text>
</g>
<!-- ExecuteUbergraph_ESI_BoughWasp_Spawner -->
<g id="node2" class="node">
<title>ExecuteUbergraph_ESI_BoughWasp_Spawner</title>
<polygon fill="#ff8888" stroke="black" points="612,-308 612,-376 1082,-376 1082,-308 612,-308"/>
<text text-anchor="start" x="620" y="-360.8" font-family="monospace" font-size="14.00">Function ExecuteUbergraph_ESI_BoughWasp_Spawner</text>
<text text-anchor="start" x="620" y="-345.8" font-family="monospace" font-size="14.00">  IntProperty EntryPoint</text>
<text text-anchor="start" x="620" y="-330.8" font-family="monospace" font-size="14.00">    CPF_BlueprintVisible|CPF_BlueprintReadOnly|CPF_Parm</text>
<text text-anchor="start" x="620" y="-315.8" font-family="monospace" font-size="14.00">  FloatProperty K2Node_Event_DeltaSeconds</text>
</g>
<!-- ExecuteUbergraph_ESI_BoughWasp_Spawner__0 -->
<g id="node3" class="node">
<title>ExecuteUbergraph_ESI_BoughWasp_Spawner__0</title>
<polygon fill="#eeeeee" stroke="black" points="711,-150.5 711,-188.5 983,-188.5 983,-150.5 711,-150.5"/>
<text text-anchor="start" x="719" y="-173.3" font-family="monospace" font-size="14.00">EX_ComputedJump</text>
<text text-anchor="start" x="719" y="-158.3" font-family="monospace" font-size="14.00">  EX_LocalVariable [EntryPoint]</text>
</g>
<!-- ExecuteUbergraph_ESI_BoughWasp_Spawner&#45;&gt;ExecuteUbergraph_ESI_BoughWasp_Spawner__0 -->
<g id="edge1" class="edge">
<title>ExecuteUbergraph_ESI_BoughWasp_Spawner&#45;&gt;ExecuteUbergraph_ESI_BoughWasp_Spawner__0</title>
<path fill="none" stroke="black" d="M847,-308.13C847,-276.66 847,-229.64 847,-199.53"/>
<polygon fill="black" stroke="black" points="850.5,-199.64 847,-189.64 843.5,-199.64 850.5,-199.64"/>
</g>
<!-- ExecuteUbergraph_ESI_BoughWasp_Spawner__10 -->
<g id="node4" class="node">
<title>ExecuteUbergraph_ESI_BoughWasp_Spawner__10</title>
<polygon fill="#eeeeee" stroke="black" points="1665,-0.5 1665,-38.5 1781,-38.5 1781,-0.5 1665,-0.5"/>
<text text-anchor="start" x="1673" y="-23.3" font-family="monospace" font-size="14.00">EX_Return</text>
<text text-anchor="start" x="1673" y="-8.3" font-family="monospace" font-size="14.00">  EX_Nothing</text>
</g>
<!-- ExecuteUbergraph_ESI_BoughWasp_Spawner__12 -->
<g id="node5" class="node">
<title>ExecuteUbergraph_ESI_BoughWasp_Spawner__12</title>
<polygon fill="#eeeeee" stroke="black" points="1741,-76.5 1741,-112.5 1873,-112.5 1873,-76.5 1741,-76.5"/>
<text text-anchor="start" x="1749" y="-90.8" font-family="monospace" font-size="14.00">EX_EndOfScript</text>
</g>
<!-- ReceiveTick -->
<g id="node6" class="node">
<title>ReceiveTick</title>
<polygon fill="#ff8888" stroke="black" points="1100,-315.5 1100,-368.5 1570,-368.5 1570,-315.5 1100,-315.5"/>
<text text-anchor="start" x="1108" y="-353.3" font-family="monospace" font-size="14.00">Function ReceiveTick</text>
<text text-anchor="start" x="1108" y="-338.3" font-family="monospace" font-size="14.00">  FloatProperty DeltaSeconds</text>
<text text-anchor="start" x="1108" y="-323.3" font-family="monospace" font-size="14.00">    CPF_BlueprintVisible|CPF_BlueprintReadOnly|CPF_Parm</text>
</g>
<!-- ReceiveTick__0 -->
<g id="node7" class="node">
<title>ReceiveTick__0</title>
<polygon fill="#eeeeee" stroke="black" points="1095.5,-150.5 1095.5,-188.5 1574.5,-188.5 1574.5,-150.5 1095.5,-150.5"/>
<text text-anchor="start" x="1103.5" y="-173.3" font-family="monospace" font-size="14.00">EX_LetValueOnPersistentFrame [K2Node_Event_DeltaSeconds]</text>
<text text-anchor="start" x="1103.5" y="-158.3" font-family="monospace" font-size="14.00">  EX_LocalVariable [DeltaSeconds]</text>
</g>
<!-- ReceiveTick&#45;&gt;ReceiveTick__0 -->
<g id="edge2" class="edge">
<title>ReceiveTick&#45;&gt;ReceiveTick__0</title>
<path fill="none" stroke="black" d="M1335,-315.84C1335,-284.96 1335,-232.67 1335,-199.94"/>
<polygon fill="black" stroke="black" points="1338.5,-199.96 1335,-189.96 1331.5,-199.96 1338.5,-199.96"/>
</g>
<!-- ReceiveTick__18 -->
<g id="node8" class="node">
<title>ReceiveTick__18</title>
<polygon fill="#eeeeee" stroke="black" points="947,-75.5 947,-113.5 1723,-113.5 1723,-75.5 947,-75.5"/>
<text text-anchor="start" x="955" y="-98.3" font-family="monospace" font-size="14.00">EX_LocalFinalFunction export ESI_BoughWasp_Spawner_C&#45;&gt;ExecuteUbergraph_ESI_BoughWasp_Spawner</text>
<text text-anchor="start" x="955" y="-83.3" font-family="monospace" font-size="14.00">  EX_IntConst 10</text>
</g>
<!-- ReceiveTick__0&#45;&gt;ReceiveTick__18 -->
<g id="edge3" class="edge">
<title>ReceiveTick__0&#45;&gt;ReceiveTick__18</title>
<path fill="none" stroke="black" d="M1335,-150.83C1335,-143 1335,-133.57 1335,-124.74"/>
<polygon fill="black" stroke="black" points="1338.5,-124.78 1335,-114.78 1331.5,-124.78 1338.5,-124.78"/>
</g>
<!-- ReceiveTick__18&#45;&gt;ExecuteUbergraph_ESI_BoughWasp_Spawner__10 -->
<g id="edge4" class="edge">
<title>ReceiveTick__18:e&#45;&gt;ExecuteUbergraph_ESI_BoughWasp_Spawner__10</title>
<path fill="none" stroke="red" d="M1724,-94.5C1733.39,-94.5 1731.73,-70.39 1728.58,-49.69"/>
<polygon fill="none" stroke="red" points="1732.05,-49.19 1726.93,-39.91 1725.14,-50.35 1732.05,-49.19"/>
</g>
<!-- ReceiveTick__33 -->
<g id="node9" class="node">
<title>ReceiveTick__33</title>
<polygon fill="#eeeeee" stroke="black" points="1277,-0.5 1277,-38.5 1393,-38.5 1393,-0.5 1277,-0.5"/>
<text text-anchor="start" x="1285" y="-23.3" font-family="monospace" font-size="14.00">EX_Return</text>
<text text-anchor="start" x="1285" y="-8.3" font-family="monospace" font-size="14.00">  EX_Nothing</text>
</g>
<!-- ReceiveTick__18&#45;&gt;ReceiveTick__33 -->
<g id="edge5" class="edge">
<title>ReceiveTick__18&#45;&gt;ReceiveTick__33</title>
<path fill="none" stroke="black" d="M1335,-75.83C1335,-68 1335,-58.57 1335,-49.74"/>
<polygon fill="black" stroke="black" points="1338.5,-49.78 1335,-39.78 1331.5,-49.78 1338.5,-49.78"/>
</g>
<!-- ReceiveTick__35 -->
<g id="node10" class="node">
<title>ReceiveTick__35</title>
<polygon fill="#eeeeee" stroke="black" points="1588,-324 1588,-360 1720,-360 1720,-324 1588,-324"/>
<text text-anchor="start" x="1596" y="-338.3" font-family="monospace" font-size="14.00">EX_EndOfScript</text>
</g>
</g>
</svg>
