<?xml version="1.0" encoding="UTF-8" standalone="no"?>
<!DOCTYPE svg PUBLIC "-//W3C//DTD SVG 1.1//EN"
 "http://www.w3.org/Graphics/SVG/1.1/DTD/svg11.dtd">
<!-- Generated by graphviz version 7.0.1 (0)
 -->
<!-- Pages: 1 -->
<svg width="3121pt" height="2889pt"
 viewBox="0.00 0.00 3120.50 2889.00" xmlns="http://www.w3.org/2000/svg" xmlns:xlink="http://www.w3.org/1999/xlink">
<g id="graph0" class="graph" transform="scale(1 1) rotate(0) translate(4 2885)">
<polygon fill="white" stroke="none" points="-4,4 -4,-2885 3116.5,-2885 3116.5,4 -4,4"/>
<!-- UI_Bar_DrinkCostPrice_C -->
<g id="node1" class="node">
<title>UI_Bar_DrinkCostPrice_C</title>
<polygon fill="#88ff88" stroke="black" points="0,-2617.5 0,-2880.5 850,-2880.5 850,-2617.5 0,-2617.5"/>
<text text-anchor="start" x="8" y="-2865.3" font-family="monospace" font-size="14.00">ClassExport: UI_Bar_DrinkCostPrice_C</text>
<text text-anchor="start" x="8" y="-2850.3" font-family="monospace" font-size="14.00">  SuperStruct: import /Script/UMG&#45;&gt;UserWidget</text>
<text text-anchor="start" x="8" y="-2835.3" font-family="monospace" font-size="14.00">  Properties:</text>
<text text-anchor="start" x="8" y="-2820.3" font-family="monospace" font-size="14.00">    StructProperty UberGraphFrame</text>
<text text-anchor="start" x="8" y="-2805.3" font-family="monospace" font-size="14.00">      CPF_Transient|CPF_DuplicateTransient</text>
<text text-anchor="start" x="8" y="-2790.3" font-family="monospace" font-size="14.00">    ObjectProperty Basic_ResourceIcon</text>
<text text-anchor="start" x="8" y="-2775.3" font-family="monospace" font-size="14.00">      CPF_BlueprintVisible|CPF_ExportObject|CPF_InstancedReference|CPF_RepSkip|CPF_PersistentInstance</text>
<text text-anchor="start" x="8" y="-2760.3" font-family="monospace" font-size="14.00">    ObjectProperty DATAAmount</text>
<text text-anchor="start" x="8" y="-2745.3" font-family="monospace" font-size="14.00">      CPF_BlueprintVisible|CPF_ExportObject|CPF_InstancedReference|CPF_RepSkip|CPF_PersistentInstance</text>
<text text-anchor="start" x="8" y="-2730.3" font-family="monospace" font-size="14.00">    ObjectProperty SizeBox_Height</text>
<text text-anchor="start" x="8" y="-2715.3" font-family="monospace" font-size="14.00">      CPF_BlueprintVisible|CPF_ExportObject|CPF_InstancedReference|CPF_RepSkip|CPF_PersistentInstance</text>
<text text-anchor="start" x="8" y="-2700.3" font-family="monospace" font-size="14.00">    ObjectProperty Resource</text>
<text text-anchor="start" x="8" y="-2685.3" font-family="monospace" font-size="14.00">      CPF_Edit|CPF_BlueprintVisible|CPF_ExposeOnSpawn</text>
<text text-anchor="start" x="8" y="-2670.3" font-family="monospace" font-size="14.00">    FloatProperty Amount</text>
<text text-anchor="start" x="8" y="-2655.3" font-family="monospace" font-size="14.00">      CPF_Edit|CPF_BlueprintVisible|CPF_ExposeOnSpawn</text>
<text text-anchor="start" x="8" y="-2640.3" font-family="monospace" font-size="14.00">    FloatProperty Height</text>
<text text-anchor="start" x="8" y="-2625.3" font-family="monospace" font-size="14.00">      CPF_Edit|CPF_BlueprintVisible|CPF_BlueprintReadOnly|CPF_ExposeOnSpawn</text>
</g>
<!-- ExecuteUbergraph_UI_Bar_DrinkCostPrice -->
<g id="node2" class="node">
<title>ExecuteUbergraph_UI_Bar_DrinkCostPrice</title>
<polygon fill="#ff8888" stroke="black" points="868.5,-2647.5 868.5,-2850.5 1371.5,-2850.5 1371.5,-2647.5 868.5,-2647.5"/>
<text text-anchor="start" x="876.5" y="-2835.3" font-family="monospace" font-size="14.00">Function ExecuteUbergraph_UI_Bar_DrinkCostPrice</text>
<text text-anchor="start" x="876.5" y="-2820.3" font-family="monospace" font-size="14.00">  IntProperty EntryPoint</text>
<text text-anchor="start" x="876.5" y="-2805.3" font-family="monospace" font-size="14.00">    CPF_BlueprintVisible|CPF_BlueprintReadOnly|CPF_Parm</text>
<text text-anchor="start" x="876.5" y="-2790.3" font-family="monospace" font-size="14.00">  BoolProperty Temp_bool_Variable</text>
<text text-anchor="start" x="876.5" y="-2775.3" font-family="monospace" font-size="14.00">  BoolProperty CallFunc_IsValid_ReturnValue</text>
<text text-anchor="start" x="876.5" y="-2760.3" font-family="monospace" font-size="14.00">  BoolProperty K2Node_Event_IsDesignTime</text>
<text text-anchor="start" x="876.5" y="-2745.3" font-family="monospace" font-size="14.00">  TextProperty CallFunc_Conv_FloatToText_ReturnValue</text>
<text text-anchor="start" x="876.5" y="-2730.3" font-family="monospace" font-size="14.00">  FloatProperty CallFunc_GetOwnedAmount_ReturnValue</text>
<text text-anchor="start" x="876.5" y="-2715.3" font-family="monospace" font-size="14.00">  BoolProperty CallFunc_GreaterEqual_FloatFloat_ReturnValue</text>
<text text-anchor="start" x="876.5" y="-2700.3" font-family="monospace" font-size="14.00">  StructProperty CallFunc_MenuColors_OutputColor</text>
<text text-anchor="start" x="876.5" y="-2685.3" font-family="monospace" font-size="14.00">  StructProperty CallFunc_MenuColors_OutputColor_1</text>
<text text-anchor="start" x="876.5" y="-2670.3" font-family="monospace" font-size="14.00">  StructProperty K2Node_Select_Default</text>
<text text-anchor="start" x="876.5" y="-2655.3" font-family="monospace" font-size="14.00">  StructProperty K2Node_MakeStruct_SlateColor</text>
</g>
<!-- ExecuteUbergraph_UI_Bar_DrinkCostPrice__0 -->
<g id="node3" class="node">
<title>ExecuteUbergraph_UI_Bar_DrinkCostPrice__0</title>
<polygon fill="#eeeeee" stroke="black" points="984,-2505.5 984,-2543.5 1256,-2543.5 1256,-2505.5 984,-2505.5"/>
<text text-anchor="start" x="992" y="-2528.3" font-family="monospace" font-size="14.00">EX_ComputedJump</text>
<text text-anchor="start" x="992" y="-2513.3" font-family="monospace" font-size="14.00">  EX_LocalVariable [EntryPoint]</text>
</g>
<!-- ExecuteUbergraph_UI_Bar_DrinkCostPrice&#45;&gt;ExecuteUbergraph_UI_Bar_DrinkCostPrice__0 -->
<g id="edge1" class="edge">
<title>ExecuteUbergraph_UI_Bar_DrinkCostPrice&#45;&gt;ExecuteUbergraph_UI_Bar_DrinkCostPrice__0</title>
<path fill="none" stroke="black" d="M1120,-2647.82C1120,-2613.83 1120,-2578.45 1120,-2554.54"/>
<polygon fill="black" stroke="black" points="1123.5,-2554.66 1120,-2544.66 1116.5,-2554.66 1123.5,-2554.66"/>
</g>
<!-- ExecuteUbergraph_UI_Bar_DrinkCostPrice__10 -->
<g id="node4" class="node">
<title>ExecuteUbergraph_UI_Bar_DrinkCostPrice__10</title>
<polygon fill="#eeeeee" stroke="black" points="2559.5,-2236.5 2559.5,-2319.5 3112.5,-2319.5 3112.5,-2236.5 2559.5,-2236.5"/>
<text text-anchor="start" x="2567.5" y="-2304.3" font-family="monospace" font-size="14.00">EX_Context</text>
<text text-anchor="start" x="2567.5" y="-2289.3" font-family="monospace" font-size="14.00">  EX_InstanceVariable [SizeBox_Height]</text>
<text text-anchor="start" x="2567.5" y="-2274.3" font-family="monospace" font-size="14.00">  EX_FinalFunction import /Script/UMG&#45;&gt;SizeBox&#45;&gt;SetHeightOverride</text>
<text text-anchor="start" x="2567.5" y="-2259.3" font-family="monospace" font-size="14.00">    EX_InstanceVariable [Height]</text>
<text text-anchor="start" x="2567.5" y="-2244.3" font-family="monospace" font-size="14.00">  RValue = []</text>
</g>
<!-- ExecuteUbergraph_UI_Bar_DrinkCostPrice__51 -->
<g id="node5" class="node">
<title>ExecuteUbergraph_UI_Bar_DrinkCostPrice__51</title>
<polygon fill="#eeeeee" stroke="black" points="2699.5,-2124.5 2699.5,-2162.5 2848.5,-2162.5 2848.5,-2124.5 2699.5,-2124.5"/>
<text text-anchor="start" x="2707.5" y="-2147.3" font-family="monospace" font-size="14.00">EX_JumpIfNot 664</text>
<text text-anchor="start" x="2707.5" y="-2132.3" font-family="monospace" font-size="14.00">  EX_True</text>
</g>
<!-- ExecuteUbergraph_UI_Bar_DrinkCostPrice__10&#45;&gt;ExecuteUbergraph_UI_Bar_DrinkCostPrice__51 -->
<g id="edge2" class="edge">
<title>ExecuteUbergraph_UI_Bar_DrinkCostPrice__10&#45;&gt;ExecuteUbergraph_UI_Bar_DrinkCostPrice__51</title>
<path fill="none" stroke="black" d="M2817.06,-2236.53C2807.4,-2215.88 2795.89,-2191.28 2787.2,-2172.71"/>
<polygon fill="black" stroke="black" points="2790.37,-2171.23 2782.96,-2163.66 2784.03,-2174.2 2790.37,-2171.23"/>
</g>
<!-- ExecuteUbergraph_UI_Bar_DrinkCostPrice__57 -->
<g id="node6" class="node">
<title>ExecuteUbergraph_UI_Bar_DrinkCostPrice__57</title>
<polygon fill="#eeeeee" stroke="black" points="2244.5,-2004.5 2244.5,-2072.5 2797.5,-2072.5 2797.5,-2004.5 2244.5,-2004.5"/>
<text text-anchor="start" x="2252.5" y="-2057.3" font-family="monospace" font-size="14.00">EX_LetBool</text>
<text text-anchor="start" x="2252.5" y="-2042.3" font-family="monospace" font-size="14.00">  EX_LocalVariable [CallFunc_IsValid_ReturnValue]</text>
<text text-anchor="start" x="2252.5" y="-2027.3" font-family="monospace" font-size="14.00">  EX_CallMath import /Script/Engine&#45;&gt;KismetSystemLibrary&#45;&gt;IsValid</text>
<text text-anchor="start" x="2252.5" y="-2012.3" font-family="monospace" font-size="14.00">    EX_InstanceVariable [Resource]</text>
</g>
<!-- ExecuteUbergraph_UI_Bar_DrinkCostPrice__51&#45;&gt;ExecuteUbergraph_UI_Bar_DrinkCostPrice__57 -->
<g id="edge4" class="edge">
<title>ExecuteUbergraph_UI_Bar_DrinkCostPrice__51&#45;&gt;ExecuteUbergraph_UI_Bar_DrinkCostPrice__57</title>
<path fill="none" stroke="black" d="M2729.93,-2124.56C2697.57,-2111.38 2652.46,-2093.02 2612.44,-2076.73"/>
<polygon fill="black" stroke="black" points="2613.83,-2073.51 2603.25,-2072.98 2611.19,-2080 2613.83,-2073.51"/>
<text text-anchor="middle" x="2685.5" y="-2094.8" font-family="monospace" font-size="14.00">IF</text>
</g>
<!-- ExecuteUbergraph_UI_Bar_DrinkCostPrice__664 -->
<g id="node21" class="node">
<title>ExecuteUbergraph_UI_Bar_DrinkCostPrice__664</title>
<polygon fill="#eeeeee" stroke="black" points="2726,-0.5 2726,-38.5 2842,-38.5 2842,-0.5 2726,-0.5"/>
<text text-anchor="start" x="2734" y="-23.3" font-family="monospace" font-size="14.00">EX_Return</text>
<text text-anchor="start" x="2734" y="-8.3" font-family="monospace" font-size="14.00">  EX_Nothing</text>
</g>
<!-- ExecuteUbergraph_UI_Bar_DrinkCostPrice__51&#45;&gt;ExecuteUbergraph_UI_Bar_DrinkCostPrice__664 -->
<g id="edge3" class="edge">
<title>ExecuteUbergraph_UI_Bar_DrinkCostPrice__51:e&#45;&gt;ExecuteUbergraph_UI_Bar_DrinkCostPrice__664</title>
<path fill="none" stroke="red" d="M2850,-2143.5C2896.22,-2143.5 2849,-2085.72 2849,-2039.5 2849,-2039.5 2849,-2039.5 2849,-93.5 2849,-74.39 2836.42,-57.96 2822.33,-45.56"/>
<polygon fill="none" stroke="red" points="2824.61,-42.9 2814.63,-39.32 2820.2,-48.34 2824.61,-42.9"/>
<text text-anchor="middle" x="2874" y="-1129.8" font-family="monospace" font-size="14.00">IF NOT</text>
</g>
<!-- ExecuteUbergraph_UI_Bar_DrinkCostPrice__86 -->
<g id="node7" class="node">
<title>ExecuteUbergraph_UI_Bar_DrinkCostPrice__86</title>
<polygon fill="#eeeeee" stroke="black" points="2310.5,-1928.5 2310.5,-1966.5 2731.5,-1966.5 2731.5,-1928.5 2310.5,-1928.5"/>
<text text-anchor="start" x="2318.5" y="-1951.3" font-family="monospace" font-size="14.00">EX_JumpIfNot 664</text>
<text text-anchor="start" x="2318.5" y="-1936.3" font-family="monospace" font-size="14.00">  EX_LocalVariable [CallFunc_IsValid_ReturnValue]</text>
</g>
<!-- ExecuteUbergraph_UI_Bar_DrinkCostPrice__57&#45;&gt;ExecuteUbergraph_UI_Bar_DrinkCostPrice__86 -->
<g id="edge5" class="edge">
<title>ExecuteUbergraph_UI_Bar_DrinkCostPrice__57&#45;&gt;ExecuteUbergraph_UI_Bar_DrinkCostPrice__86</title>
<path fill="none" stroke="black" d="M2521,-2004.61C2521,-1995.79 2521,-1986.32 2521,-1977.72"/>
<polygon fill="black" stroke="black" points="2524.5,-1977.8 2521,-1967.8 2517.5,-1977.8 2524.5,-1977.8"/>
</g>
<!-- ExecuteUbergraph_UI_Bar_DrinkCostPrice__100 -->
<g id="node8" class="node">
<title>ExecuteUbergraph_UI_Bar_DrinkCostPrice__100</title>
<polygon fill="#eeeeee" stroke="black" points="2144.5,-1703.5 2144.5,-1876.5 2755.5,-1876.5 2755.5,-1703.5 2144.5,-1703.5"/>
<text text-anchor="start" x="2152.5" y="-1861.3" font-family="monospace" font-size="14.00">EX_Let</text>
<text text-anchor="start" x="2152.5" y="-1846.3" font-family="monospace" font-size="14.00">  EX_LocalVariable [CallFunc_Conv_FloatToText_ReturnValue]</text>
<text text-anchor="start" x="2152.5" y="-1831.3" font-family="monospace" font-size="14.00">  EX_CallMath import /Script/Engine&#45;&gt;KismetTextLibrary&#45;&gt;Conv_FloatToText</text>
<text text-anchor="start" x="2152.5" y="-1816.3" font-family="monospace" font-size="14.00">    EX_InstanceVariable [Amount]</text>
<text text-anchor="start" x="2152.5" y="-1801.3" font-family="monospace" font-size="14.00">    EX_ByteConst 5</text>
<text text-anchor="start" x="2152.5" y="-1786.3" font-family="monospace" font-size="14.00">    EX_False</text>
<text text-anchor="start" x="2152.5" y="-1771.3" font-family="monospace" font-size="14.00">    EX_True</text>
<text text-anchor="start" x="2152.5" y="-1756.3" font-family="monospace" font-size="14.00">    EX_IntConst 1</text>
<text text-anchor="start" x="2152.5" y="-1741.3" font-family="monospace" font-size="14.00">    EX_IntConst 324</text>
<text text-anchor="start" x="2152.5" y="-1726.3" font-family="monospace" font-size="14.00">    EX_IntConst 0</text>
<text text-anchor="start" x="2152.5" y="-1711.3" font-family="monospace" font-size="14.00">    EX_IntConst 3</text>
</g>
<!-- ExecuteUbergraph_UI_Bar_DrinkCostPrice__86&#45;&gt;ExecuteUbergraph_UI_Bar_DrinkCostPrice__100 -->
<g id="edge7" class="edge">
<title>ExecuteUbergraph_UI_Bar_DrinkCostPrice__86&#45;&gt;ExecuteUbergraph_UI_Bar_DrinkCostPrice__100</title>
<path fill="none" stroke="black" d="M2512.86,-1928.66C2507.85,-1917.7 2501,-1902.69 2493.66,-1886.61"/>
<polygon fill="black" stroke="black" points="2497,-1885.51 2489.66,-1877.87 2490.63,-1888.42 2497,-1885.51"/>
<text text-anchor="middle" x="2511.5" y="-1898.8" font-family="monospace" font-size="14.00">IF</text>
</g>
<!-- ExecuteUbergraph_UI_Bar_DrinkCostPrice__86&#45;&gt;ExecuteUbergraph_UI_Bar_DrinkCostPrice__664 -->
<g id="edge6" class="edge">
<title>ExecuteUbergraph_UI_Bar_DrinkCostPrice__86:e&#45;&gt;ExecuteUbergraph_UI_Bar_DrinkCostPrice__664</title>
<path fill="none" stroke="red" d="M2733,-1947.5C2806.16,-1947.5 2784,-1864.16 2784,-1791 2784,-1791 2784,-1791 2784,-93.5 2784,-79.14 2784,-63.19 2784,-49.87"/>
<polygon fill="none" stroke="red" points="2787.5,-50.01 2784,-40.01 2780.5,-50.01 2787.5,-50.01"/>
<text text-anchor="middle" x="2809" y="-1024.8" font-family="monospace" font-size="14.00">IF NOT</text>
</g>
<!-- ExecuteUbergraph_UI_Bar_DrinkCostPrice__161 -->
<g id="node9" class="node">
<title>ExecuteUbergraph_UI_Bar_DrinkCostPrice__161</title>
<polygon fill="#eeeeee" stroke="black" points="2156,-1582.5 2156,-1665.5 2668,-1665.5 2668,-1582.5 2156,-1582.5"/>
<text text-anchor="start" x="2164" y="-1650.3" font-family="monospace" font-size="14.00">EX_Context</text>
<text text-anchor="start" x="2164" y="-1635.3" font-family="monospace" font-size="14.00">  EX_InstanceVariable [DATAAmount]</text>
<text text-anchor="start" x="2164" y="-1620.3" font-family="monospace" font-size="14.00">  EX_VirtualFunction SetText</text>
<text text-anchor="start" x="2164" y="-1605.3" font-family="monospace" font-size="14.00">    EX_LocalVariable [CallFunc_Conv_FloatToText_ReturnValue]</text>
<text text-anchor="start" x="2164" y="-1590.3" font-family="monospace" font-size="14.00">  RValue = []</text>
</g>
<!-- ExecuteUbergraph_UI_Bar_DrinkCostPrice__100&#45;&gt;ExecuteUbergraph_UI_Bar_DrinkCostPrice__161 -->
<g id="edge8" class="edge">
<title>ExecuteUbergraph_UI_Bar_DrinkCostPrice__100&#45;&gt;ExecuteUbergraph_UI_Bar_DrinkCostPrice__161</title>
<path fill="none" stroke="black" d="M2430.22,-1703.64C2428.06,-1694.33 2425.92,-1685.08 2423.9,-1676.37"/>
<polygon fill="black" stroke="black" points="2427.34,-1675.69 2421.67,-1666.74 2420.52,-1677.27 2427.34,-1675.69"/>
</g>
<!-- ExecuteUbergraph_UI_Bar_DrinkCostPrice__206 -->
<g id="node10" class="node">
<title>ExecuteUbergraph_UI_Bar_DrinkCostPrice__206</title>
<polygon fill="#eeeeee" stroke="black" points="2145.5,-1431.5 2145.5,-1544.5 2624.5,-1544.5 2624.5,-1431.5 2145.5,-1431.5"/>
<text text-anchor="start" x="2153.5" y="-1529.3" font-family="monospace" font-size="14.00">EX_Let</text>
<text text-anchor="start" x="2153.5" y="-1514.3" font-family="monospace" font-size="14.00">  EX_LocalVariable [CallFunc_GetOwnedAmount_ReturnValue]</text>
<text text-anchor="start" x="2153.5" y="-1499.3" font-family="monospace" font-size="14.00">  EX_Context</text>
<text text-anchor="start" x="2153.5" y="-1484.3" font-family="monospace" font-size="14.00">    EX_InstanceVariable [Resource]</text>
<text text-anchor="start" x="2153.5" y="-1469.3" font-family="monospace" font-size="14.00">    EX_VirtualFunction GetOwnedAmount</text>
<text text-anchor="start" x="2153.5" y="-1454.3" font-family="monospace" font-size="14.00">      EX_Self</text>
<text text-anchor="start" x="2153.5" y="-1439.3" font-family="monospace" font-size="14.00">    RValue = [CallFunc_GetOwnedAmount_ReturnValue]</text>
</g>
<!-- ExecuteUbergraph_UI_Bar_DrinkCostPrice__161&#45;&gt;ExecuteUbergraph_UI_Bar_DrinkCostPrice__206 -->
<g id="edge9" class="edge">
<title>ExecuteUbergraph_UI_Bar_DrinkCostPrice__161&#45;&gt;ExecuteUbergraph_UI_Bar_DrinkCostPrice__206</title>
<path fill="none" stroke="black" d="M2403.9,-1582.8C2402.14,-1574.04 2400.22,-1564.56 2398.32,-1555.09"/>
<polygon fill="black" stroke="black" points="2401.8,-1554.64 2396.39,-1545.53 2394.93,-1556.02 2401.8,-1554.64"/>
</g>
<!-- ExecuteUbergraph_UI_Bar_DrinkCostPrice__261 -->
<g id="node11" class="node">
<title>ExecuteUbergraph_UI_Bar_DrinkCostPrice__261</title>
<polygon fill="#eeeeee" stroke="black" points="2044,-1310.5 2044,-1393.5 2712,-1393.5 2712,-1310.5 2044,-1310.5"/>
<text text-anchor="start" x="2052" y="-1378.3" font-family="monospace" font-size="14.00">EX_LetBool</text>
<text text-anchor="start" x="2052" y="-1363.3" font-family="monospace" font-size="14.00">  EX_LocalVariable [CallFunc_GreaterEqual_FloatFloat_ReturnValue]</text>
<text text-anchor="start" x="2052" y="-1348.3" font-family="monospace" font-size="14.00">  EX_CallMath import /Script/Engine&#45;&gt;KismetMathLibrary&#45;&gt;GreaterEqual_FloatFloat</text>
<text text-anchor="start" x="2052" y="-1333.3" font-family="monospace" font-size="14.00">    EX_LocalVariable [CallFunc_GetOwnedAmount_ReturnValue]</text>
<text text-anchor="start" x="2052" y="-1318.3" font-family="monospace" font-size="14.00">    EX_InstanceVariable [Amount]</text>
</g>
<!-- ExecuteUbergraph_UI_Bar_DrinkCostPrice__206&#45;&gt;ExecuteUbergraph_UI_Bar_DrinkCostPrice__261 -->
<g id="edge10" class="edge">
<title>ExecuteUbergraph_UI_Bar_DrinkCostPrice__206&#45;&gt;ExecuteUbergraph_UI_Bar_DrinkCostPrice__261</title>
<path fill="none" stroke="black" d="M2382.11,-1431.72C2381.65,-1422.8 2381.17,-1413.59 2380.7,-1404.76"/>
<polygon fill="black" stroke="black" points="2384.21,-1404.73 2380.19,-1394.92 2377.22,-1405.09 2384.21,-1404.73"/>
</g>
<!-- ExecuteUbergraph_UI_Bar_DrinkCostPrice__299 -->
<g id="node12" class="node">
<title>ExecuteUbergraph_UI_Bar_DrinkCostPrice__299</title>
<polygon fill="#eeeeee" stroke="black" points="1996.5,-1159.5 1996.5,-1272.5 2755.5,-1272.5 2755.5,-1159.5 1996.5,-1159.5"/>
<text text-anchor="start" x="2004.5" y="-1257.3" font-family="monospace" font-size="14.00">EX_Context</text>
<text text-anchor="start" x="2004.5" y="-1242.3" font-family="monospace" font-size="14.00">  EX_ObjectConst import /Game/UI/Art/WidgetParts/LIB_MenuColors&#45;&gt;Default__LIB_MenuColors_C</text>
<text text-anchor="start" x="2004.5" y="-1227.3" font-family="monospace" font-size="14.00">  EX_LocalVirtualFunction MenuColors</text>
<text text-anchor="start" x="2004.5" y="-1212.3" font-family="monospace" font-size="14.00">    EX_ByteConst 12</text>
<text text-anchor="start" x="2004.5" y="-1197.3" font-family="monospace" font-size="14.00">    EX_Self</text>
<text text-anchor="start" x="2004.5" y="-1182.3" font-family="monospace" font-size="14.00">    EX_LocalVariable [CallFunc_MenuColors_OutputColor]</text>
<text text-anchor="start" x="2004.5" y="-1167.3" font-family="monospace" font-size="14.00">  RValue = []</text>
</g>
<!-- ExecuteUbergraph_UI_Bar_DrinkCostPrice__261&#45;&gt;ExecuteUbergraph_UI_Bar_DrinkCostPrice__299 -->
<g id="edge11" class="edge">
<title>ExecuteUbergraph_UI_Bar_DrinkCostPrice__261&#45;&gt;ExecuteUbergraph_UI_Bar_DrinkCostPrice__299</title>
<path fill="none" stroke="black" d="M2377.4,-1310.8C2377.27,-1302.14 2377.13,-1292.76 2376.99,-1283.4"/>
<polygon fill="black" stroke="black" points="2380.49,-1283.5 2376.84,-1273.56 2373.49,-1283.61 2380.49,-1283.5"/>
</g>
<!-- ExecuteUbergraph_UI_Bar_DrinkCostPrice__347 -->
<g id="node13" class="node">
<title>ExecuteUbergraph_UI_Bar_DrinkCostPrice__347</title>
<polygon fill="#eeeeee" stroke="black" points="2099.5,-1054.5 2099.5,-1107.5 2652.5,-1107.5 2652.5,-1054.5 2099.5,-1054.5"/>
<text text-anchor="start" x="2107.5" y="-1092.3" font-family="monospace" font-size="14.00">EX_LetBool</text>
<text text-anchor="start" x="2107.5" y="-1077.3" font-family="monospace" font-size="14.00">  EX_LocalVariable [Temp_bool_Variable]</text>
<text text-anchor="start" x="2107.5" y="-1062.3" font-family="monospace" font-size="14.00">  EX_LocalVariable [CallFunc_GreaterEqual_FloatFloat_ReturnValue]</text>
</g>
<!-- ExecuteUbergraph_UI_Bar_DrinkCostPrice__299&#45;&gt;ExecuteUbergraph_UI_Bar_DrinkCostPrice__347 -->
<g id="edge12" class="edge">
<title>ExecuteUbergraph_UI_Bar_DrinkCostPrice__299&#45;&gt;ExecuteUbergraph_UI_Bar_DrinkCostPrice__347</title>
<path fill="none" stroke="black" d="M2376,-1159.75C2376,-1145.76 2376,-1131.09 2376,-1118.31"/>
<polygon fill="black" stroke="black" points="2379.5,-1118.69 2376,-1108.69 2372.5,-1118.69 2379.5,-1118.69"/>
</g>
<!-- ExecuteUbergraph_UI_Bar_DrinkCostPrice__366 -->
<g id="node14" class="node">
<title>ExecuteUbergraph_UI_Bar_DrinkCostPrice__366</title>
<polygon fill="#eeeeee" stroke="black" points="1996.5,-889.5 1996.5,-1002.5 2755.5,-1002.5 2755.5,-889.5 1996.5,-889.5"/>
<text text-anchor="start" x="2004.5" y="-987.3" font-family="monospace" font-size="14.00">EX_Context</text>
<text text-anchor="start" x="2004.5" y="-972.3" font-family="monospace" font-size="14.00">  EX_ObjectConst import /Game/UI/Art/WidgetParts/LIB_MenuColors&#45;&gt;Default__LIB_MenuColors_C</text>
<text text-anchor="start" x="2004.5" y="-957.3" font-family="monospace" font-size="14.00">  EX_LocalVirtualFunction MenuColors</text>
<text text-anchor="start" x="2004.5" y="-942.3" font-family="monospace" font-size="14.00">    EX_ByteConst 8</text>
<text text-anchor="start" x="2004.5" y="-927.3" font-family="monospace" font-size="14.00">    EX_Self</text>
<text text-anchor="start" x="2004.5" y="-912.3" font-family="monospace" font-size="14.00">    EX_LocalVariable [CallFunc_MenuColors_OutputColor_1]</text>
<text text-anchor="start" x="2004.5" y="-897.3" font-family="monospace" font-size="14.00">  RValue = []</text>
</g>
<!-- ExecuteUbergraph_UI_Bar_DrinkCostPrice__347&#45;&gt;ExecuteUbergraph_UI_Bar_DrinkCostPrice__366 -->
<g id="edge13" class="edge">
<title>ExecuteUbergraph_UI_Bar_DrinkCostPrice__347&#45;&gt;ExecuteUbergraph_UI_Bar_DrinkCostPrice__366</title>
<path fill="none" stroke="black" d="M2376,-1054.67C2376,-1042.84 2376,-1028.14 2376,-1013.45"/>
<polygon fill="black" stroke="black" points="2379.5,-1013.77 2376,-1003.77 2372.5,-1013.77 2379.5,-1013.77"/>
</g>
<!-- ExecuteUbergraph_UI_Bar_DrinkCostPrice__414 -->
<g id="node15" class="node">
<title>ExecuteUbergraph_UI_Bar_DrinkCostPrice__414</title>
<polygon fill="#eeeeee" stroke="black" points="2175.5,-603.5 2175.5,-851.5 2670.5,-851.5 2670.5,-603.5 2175.5,-603.5"/>
<text text-anchor="start" x="2183.5" y="-836.3" font-family="monospace" font-size="14.00">EX_Let</text>
<text text-anchor="start" x="2183.5" y="-821.3" font-family="monospace" font-size="14.00">  EX_StructMemberContext [SpecifiedColor]</text>
<text text-anchor="start" x="2183.5" y="-806.3" font-family="monospace" font-size="14.00">    EX_LocalVariable [K2Node_MakeStruct_SlateColor]</text>
<text text-anchor="start" x="2183.5" y="-791.3" font-family="monospace" font-size="14.00">  EX_SwitchValue</text>
<text text-anchor="start" x="2183.5" y="-776.3" font-family="monospace" font-size="14.00">    EX_LocalVariable [Temp_bool_Variable]</text>
<text text-anchor="start" x="2183.5" y="-761.3" font-family="monospace" font-size="14.00">    OffsetToSwitchEnd = 494</text>
<text text-anchor="start" x="2183.5" y="-746.3" font-family="monospace" font-size="14.00">    case 0:</text>
<text text-anchor="start" x="2183.5" y="-731.3" font-family="monospace" font-size="14.00">      EX_False</text>
<text text-anchor="start" x="2183.5" y="-716.3" font-family="monospace" font-size="14.00">      NextCaseOffset = 471</text>
<text text-anchor="start" x="2183.5" y="-701.3" font-family="monospace" font-size="14.00">      EX_LocalVariable [CallFunc_MenuColors_OutputColor]</text>
<text text-anchor="start" x="2183.5" y="-686.3" font-family="monospace" font-size="14.00">    case 1:</text>
<text text-anchor="start" x="2183.5" y="-671.3" font-family="monospace" font-size="14.00">      EX_True</text>
<text text-anchor="start" x="2183.5" y="-656.3" font-family="monospace" font-size="14.00">      NextCaseOffset = 485</text>
<text text-anchor="start" x="2183.5" y="-641.3" font-family="monospace" font-size="14.00">      EX_LocalVariable [CallFunc_MenuColors_OutputColor_1]</text>
<text text-anchor="start" x="2183.5" y="-626.3" font-family="monospace" font-size="14.00">    default:</text>
<text text-anchor="start" x="2183.5" y="-611.3" font-family="monospace" font-size="14.00">      EX_LocalVariable [K2Node_Select_Default]</text>
</g>
<!-- ExecuteUbergraph_UI_Bar_DrinkCostPrice__366&#45;&gt;ExecuteUbergraph_UI_Bar_DrinkCostPrice__414 -->
<g id="edge14" class="edge">
<title>ExecuteUbergraph_UI_Bar_DrinkCostPrice__366&#45;&gt;ExecuteUbergraph_UI_Bar_DrinkCostPrice__414</title>
<path fill="none" stroke="black" d="M2388.04,-889.53C2389.9,-880.97 2391.88,-871.84 2393.93,-862.42"/>
<polygon fill="black" stroke="black" points="2397.33,-863.26 2396.03,-852.75 2390.49,-861.78 2397.33,-863.26"/>
</g>
<!-- ExecuteUbergraph_UI_Bar_DrinkCostPrice__494 -->
<g id="node16" class="node">
<title>ExecuteUbergraph_UI_Bar_DrinkCostPrice__494</title>
<polygon fill="#eeeeee" stroke="black" points="2238.5,-497.5 2238.5,-565.5 2675.5,-565.5 2675.5,-497.5 2238.5,-497.5"/>
<text text-anchor="start" x="2246.5" y="-550.3" font-family="monospace" font-size="14.00">EX_Let</text>
<text text-anchor="start" x="2246.5" y="-535.3" font-family="monospace" font-size="14.00">  EX_StructMemberContext [ColorUseRule]</text>
<text text-anchor="start" x="2246.5" y="-520.3" font-family="monospace" font-size="14.00">    EX_LocalVariable [K2Node_MakeStruct_SlateColor]</text>
<text text-anchor="start" x="2246.5" y="-505.3" font-family="monospace" font-size="14.00">  EX_ByteConst 0</text>
</g>
<!-- ExecuteUbergraph_UI_Bar_DrinkCostPrice__414&#45;&gt;ExecuteUbergraph_UI_Bar_DrinkCostPrice__494 -->
<g id="edge15" class="edge">
<title>ExecuteUbergraph_UI_Bar_DrinkCostPrice__414&#45;&gt;ExecuteUbergraph_UI_Bar_DrinkCostPrice__494</title>
<path fill="none" stroke="black" d="M2444.53,-603.64C2446.2,-594.13 2447.8,-584.98 2449.27,-576.59"/>
<polygon fill="black" stroke="black" points="2452.71,-577.23 2450.99,-566.77 2445.82,-576.02 2452.71,-577.23"/>
</g>
<!-- ExecuteUbergraph_UI_Bar_DrinkCostPrice__523 -->
<g id="node17" class="node">
<title>ExecuteUbergraph_UI_Bar_DrinkCostPrice__523</title>
<polygon fill="#eeeeee" stroke="black" points="2177,-376.5 2177,-459.5 2755,-459.5 2755,-376.5 2177,-376.5"/>
<text text-anchor="start" x="2185" y="-444.3" font-family="monospace" font-size="14.00">EX_Context</text>
<text text-anchor="start" x="2185" y="-429.3" font-family="monospace" font-size="14.00">  EX_InstanceVariable [DATAAmount]</text>
<text text-anchor="start" x="2185" y="-414.3" font-family="monospace" font-size="14.00">  EX_FinalFunction import /Script/UMG&#45;&gt;TextBlock&#45;&gt;SetColorAndOpacity</text>
<text text-anchor="start" x="2185" y="-399.3" font-family="monospace" font-size="14.00">    EX_LocalVariable [K2Node_MakeStruct_SlateColor]</text>
<text text-anchor="start" x="2185" y="-384.3" font-family="monospace" font-size="14.00">  RValue = []</text>
</g>
<!-- ExecuteUbergraph_UI_Bar_DrinkCostPrice__494&#45;&gt;ExecuteUbergraph_UI_Bar_DrinkCostPrice__523 -->
<g id="edge16" class="edge">
<title>ExecuteUbergraph_UI_Bar_DrinkCostPrice__494&#45;&gt;ExecuteUbergraph_UI_Bar_DrinkCostPrice__523</title>
<path fill="none" stroke="black" d="M2459.65,-497.65C2460.34,-489.06 2461.11,-479.6 2461.86,-470.3"/>
<polygon fill="black" stroke="black" points="2465.32,-470.87 2462.64,-460.62 2458.35,-470.31 2465.32,-470.87"/>
</g>
<!-- ExecuteUbergraph_UI_Bar_DrinkCostPrice__564 -->
<g id="node18" class="node">
<title>ExecuteUbergraph_UI_Bar_DrinkCostPrice__564</title>
<polygon fill="#eeeeee" stroke="black" points="2351,-150.5 2351,-338.5 2731,-338.5 2731,-150.5 2351,-150.5"/>
<text text-anchor="start" x="2359" y="-323.3" font-family="monospace" font-size="14.00">EX_Context</text>
<text text-anchor="start" x="2359" y="-308.3" font-family="monospace" font-size="14.00">  EX_Context</text>
<text text-anchor="start" x="2359" y="-293.3" font-family="monospace" font-size="14.00">    EX_InstanceVariable [Basic_ResourceIcon]</text>
<text text-anchor="start" x="2359" y="-278.3" font-family="monospace" font-size="14.00">    EX_InstanceVariable [ResourceIcon]</text>
<text text-anchor="start" x="2359" y="-263.3" font-family="monospace" font-size="14.00">    RValue = [ResourceIcon]</text>
<text text-anchor="start" x="2359" y="-248.3" font-family="monospace" font-size="14.00">  EX_VirtualFunction SetBrushFromTexture</text>
<text text-anchor="start" x="2359" y="-233.3" font-family="monospace" font-size="14.00">    EX_Context</text>
<text text-anchor="start" x="2359" y="-218.3" font-family="monospace" font-size="14.00">      EX_InstanceVariable [Resource]</text>
<text text-anchor="start" x="2359" y="-203.3" font-family="monospace" font-size="14.00">      EX_InstanceVariable [Icon]</text>
<text text-anchor="start" x="2359" y="-188.3" font-family="monospace" font-size="14.00">      RValue = [Icon]</text>
<text text-anchor="start" x="2359" y="-173.3" font-family="monospace" font-size="14.00">    EX_False</text>
<text text-anchor="start" x="2359" y="-158.3" font-family="monospace" font-size="14.00">  RValue = []</text>
</g>
<!-- ExecuteUbergraph_UI_Bar_DrinkCostPrice__523&#45;&gt;ExecuteUbergraph_UI_Bar_DrinkCostPrice__564 -->
<g id="edge17" class="edge">
<title>ExecuteUbergraph_UI_Bar_DrinkCostPrice__523&#45;&gt;ExecuteUbergraph_UI_Bar_DrinkCostPrice__564</title>
<path fill="none" stroke="black" d="M2483.58,-376.79C2487.38,-368.12 2491.55,-358.57 2495.87,-348.71"/>
<polygon fill="black" stroke="black" points="2499,-350.28 2499.8,-339.72 2492.58,-347.48 2499,-350.28"/>
</g>
<!-- ExecuteUbergraph_UI_Bar_DrinkCostPrice__654 -->
<g id="node19" class="node">
<title>ExecuteUbergraph_UI_Bar_DrinkCostPrice__654</title>
<polygon fill="#eeeeee" stroke="black" points="2614.5,-76.5 2614.5,-112.5 2721.5,-112.5 2721.5,-76.5 2614.5,-76.5"/>
<text text-anchor="start" x="2622.5" y="-90.8" font-family="monospace" font-size="14.00">EX_Jump 664</text>
</g>
<!-- ExecuteUbergraph_UI_Bar_DrinkCostPrice__564&#45;&gt;ExecuteUbergraph_UI_Bar_DrinkCostPrice__654 -->
<g id="edge18" class="edge">
<title>ExecuteUbergraph_UI_Bar_DrinkCostPrice__564&#45;&gt;ExecuteUbergraph_UI_Bar_DrinkCostPrice__654</title>
<path fill="none" stroke="black" d="M2620.71,-150.61C2629.93,-139.86 2638.67,-129.68 2646.06,-121.07"/>
<polygon fill="black" stroke="black" points="2648.67,-123.4 2652.53,-113.53 2643.36,-118.84 2648.67,-123.4"/>
</g>
<!-- ExecuteUbergraph_UI_Bar_DrinkCostPrice__654&#45;&gt;ExecuteUbergraph_UI_Bar_DrinkCostPrice__664 -->
<g id="edge19" class="edge">
<title>ExecuteUbergraph_UI_Bar_DrinkCostPrice__654&#45;&gt;ExecuteUbergraph_UI_Bar_DrinkCostPrice__664</title>
<path fill="none" stroke="black" d="M2694.9,-76.57C2710.12,-66.99 2729.4,-54.86 2746.12,-44.34"/>
<polygon fill="black" stroke="black" points="2747.74,-47.45 2754.34,-39.16 2744.01,-41.53 2747.74,-47.45"/>
</g>
<!-- ExecuteUbergraph_UI_Bar_DrinkCostPrice__659 -->
<g id="node20" class="node">
<title>ExecuteUbergraph_UI_Bar_DrinkCostPrice__659</title>
<polygon fill="#eeeeee" stroke="black" points="2269.5,-2181.5 2269.5,-2217.5 2368.5,-2217.5 2368.5,-2181.5 2269.5,-2181.5"/>
<text text-anchor="start" x="2277.5" y="-2195.8" font-family="monospace" font-size="14.00">EX_Jump 57</text>
</g>
<!-- ExecuteUbergraph_UI_Bar_DrinkCostPrice__659&#45;&gt;ExecuteUbergraph_UI_Bar_DrinkCostPrice__57 -->
<g id="edge20" class="edge">
<title>ExecuteUbergraph_UI_Bar_DrinkCostPrice__659&#45;&gt;ExecuteUbergraph_UI_Bar_DrinkCostPrice__57</title>
<path fill="none" stroke="black" d="M2340.24,-2181.78C2370.91,-2157.64 2428.52,-2112.29 2470.48,-2079.26"/>
<polygon fill="black" stroke="black" points="2472.57,-2082.08 2478.26,-2073.14 2468.24,-2076.58 2472.57,-2082.08"/>
</g>
<!-- ExecuteUbergraph_UI_Bar_DrinkCostPrice__666 -->
<g id="node22" class="node">
<title>ExecuteUbergraph_UI_Bar_DrinkCostPrice__666</title>
<polygon fill="#eeeeee" stroke="black" points="2481,-2562.5 2481,-2598.5 2613,-2598.5 2613,-2562.5 2481,-2562.5"/>
<text text-anchor="start" x="2489" y="-2576.8" font-family="monospace" font-size="14.00">EX_EndOfScript</text>
</g>
<!-- Construct -->
<g id="node23" class="node">
<title>Construct</title>
<polygon fill="#ff8888" stroke="black" points="1579.5,-2731 1579.5,-2767 1744.5,-2767 1744.5,-2731 1579.5,-2731"/>
<text text-anchor="start" x="1587.5" y="-2745.3" font-family="monospace" font-size="14.00">Function Construct</text>
</g>
<!-- Construct__0 -->
<g id="node24" class="node">
<title>Construct__0</title>
<polygon fill="#eeeeee" stroke="black" points="1274,-2505.5 1274,-2543.5 2050,-2543.5 2050,-2505.5 1274,-2505.5"/>
<text text-anchor="start" x="1282" y="-2528.3" font-family="monospace" font-size="14.00">EX_LocalFinalFunction export UI_Bar_DrinkCostPrice_C&#45;&gt;ExecuteUbergraph_UI_Bar_DrinkCostPrice</text>
<text text-anchor="start" x="1282" y="-2513.3" font-family="monospace" font-size="14.00">  EX_IntConst 659</text>
</g>
<!-- Construct&#45;&gt;Construct__0 -->
<g id="edge21" class="edge">
<title>Construct&#45;&gt;Construct__0</title>
<path fill="none" stroke="black" d="M1662,-2731.28C1662,-2693.62 1662,-2601.81 1662,-2554.59"/>
<polygon fill="black" stroke="black" points="1665.5,-2554.86 1662,-2544.86 1658.5,-2554.86 1665.5,-2554.86"/>
</g>
<!-- Construct__0&#45;&gt;ExecuteUbergraph_UI_Bar_DrinkCostPrice__659 -->
<g id="edge22" class="edge">
<title>Construct__0:e&#45;&gt;ExecuteUbergraph_UI_Bar_DrinkCostPrice__659</title>
<path fill="none" stroke="red" d="M2051,-2524.5C2109.99,-2524.5 2039.42,-2444.04 2069,-2393 2116.43,-2311.18 2213.58,-2252.17 2271.82,-2222.42"/>
<polygon fill="none" stroke="red" points="2273.15,-2225.67 2280.52,-2218.05 2270.01,-2219.41 2273.15,-2225.67"/>
</g>
<!-- Construct__15 -->
<g id="node25" class="node">
<title>Construct__15</title>
<polygon fill="#eeeeee" stroke="black" points="1604,-2393.5 1604,-2431.5 1720,-2431.5 1720,-2393.5 1604,-2393.5"/>
<text text-anchor="start" x="1612" y="-2416.3" font-family="monospace" font-size="14.00">EX_Return</text>
<text text-anchor="start" x="1612" y="-2401.3" font-family="monospace" font-size="14.00">  EX_Nothing</text>
</g>
<!-- Construct__0&#45;&gt;Construct__15 -->
<g id="edge23" class="edge">
<title>Construct__0&#45;&gt;Construct__15</title>
<path fill="none" stroke="black" d="M1662,-2505.83C1662,-2488.85 1662,-2462.88 1662,-2442.81"/>
<polygon fill="black" stroke="black" points="1665.5,-2443.01 1662,-2433.01 1658.5,-2443.01 1665.5,-2443.01"/>
</g>
<!-- Construct__17 -->
<g id="node26" class="node">
<title>Construct__17</title>
<polygon fill="#eeeeee" stroke="black" points="2481,-2450.5 2481,-2486.5 2613,-2486.5 2613,-2450.5 2481,-2450.5"/>
<text text-anchor="start" x="2489" y="-2464.8" font-family="monospace" font-size="14.00">EX_EndOfScript</text>
</g>
<!-- PreConstruct -->
<g id="node27" class="node">
<title>PreConstruct</title>
<polygon fill="#ff8888" stroke="black" points="2231,-2722.5 2231,-2775.5 2701,-2775.5 2701,-2722.5 2231,-2722.5"/>
<text text-anchor="start" x="2239" y="-2760.3" font-family="monospace" font-size="14.00">Function PreConstruct</text>
<text text-anchor="start" x="2239" y="-2745.3" font-family="monospace" font-size="14.00">  BoolProperty IsDesignTime</text>
<text text-anchor="start" x="2239" y="-2730.3" font-family="monospace" font-size="14.00">    CPF_BlueprintVisible|CPF_BlueprintReadOnly|CPF_Parm</text>
</g>
<!-- PreConstruct__0 -->
<g id="node28" class="node">
<title>PreConstruct__0</title>
<polygon fill="#eeeeee" stroke="black" points="2226.5,-2505.5 2226.5,-2543.5 2705.5,-2543.5 2705.5,-2505.5 2226.5,-2505.5"/>
<text text-anchor="start" x="2234.5" y="-2528.3" font-family="monospace" font-size="14.00">EX_LetValueOnPersistentFrame [K2Node_Event_IsDesignTime]</text>
<text text-anchor="start" x="2234.5" y="-2513.3" font-family="monospace" font-size="14.00">  EX_LocalVariable [IsDesignTime]</text>
</g>
<!-- PreConstruct&#45;&gt;PreConstruct__0 -->
<g id="edge24" class="edge">
<title>PreConstruct&#45;&gt;PreConstruct__0</title>
<path fill="none" stroke="black" d="M2466,-2722.91C2466,-2681.46 2466,-2598.89 2466,-2554.82"/>
<polygon fill="black" stroke="black" points="2469.5,-2554.99 2466,-2544.99 2462.5,-2554.99 2469.5,-2554.99"/>
</g>
<!-- PreConstruct__18 -->
<g id="node29" class="node">
<title>PreConstruct__18</title>
<polygon fill="#eeeeee" stroke="black" points="2078,-2393.5 2078,-2431.5 2854,-2431.5 2854,-2393.5 2078,-2393.5"/>
<text text-anchor="start" x="2086" y="-2416.3" font-family="monospace" font-size="14.00">EX_LocalFinalFunction export UI_Bar_DrinkCostPrice_C&#45;&gt;ExecuteUbergraph_UI_Bar_DrinkCostPrice</text>
<text text-anchor="start" x="2086" y="-2401.3" font-family="monospace" font-size="14.00">  EX_IntConst 10</text>
</g>
<!-- PreConstruct__0&#45;&gt;PreConstruct__18 -->
<g id="edge25" class="edge">
<title>PreConstruct__0&#45;&gt;PreConstruct__18</title>
<path fill="none" stroke="black" d="M2466,-2505.83C2466,-2488.85 2466,-2462.88 2466,-2442.81"/>
<polygon fill="black" stroke="black" points="2469.5,-2443.01 2466,-2433.01 2462.5,-2443.01 2469.5,-2443.01"/>
</g>
<!-- PreConstruct__18&#45;&gt;ExecuteUbergraph_UI_Bar_DrinkCostPrice__10 -->
<g id="edge26" class="edge">
<title>PreConstruct__18:e&#45;&gt;ExecuteUbergraph_UI_Bar_DrinkCostPrice__10</title>
<path fill="none" stroke="red" d="M2855,-2412.5C2863.66,-2412.5 2855.97,-2367.94 2847.93,-2330.31"/>
<polygon fill="none" stroke="red" points="2851.43,-2329.92 2845.88,-2320.9 2844.59,-2331.41 2851.43,-2329.92"/>
</g>
<!-- PreConstruct__33 -->
<g id="node30" class="node">
<title>PreConstruct__33</title>
<polygon fill="#eeeeee" stroke="black" points="2408,-2259 2408,-2297 2524,-2297 2524,-2259 2408,-2259"/>
<text text-anchor="start" x="2416" y="-2281.8" font-family="monospace" font-size="14.00">EX_Return</text>
<text text-anchor="start" x="2416" y="-2266.8" font-family="monospace" font-size="14.00">  EX_Nothing</text>
</g>
<!-- PreConstruct__18&#45;&gt;PreConstruct__33 -->
<g id="edge27" class="edge">
<title>PreConstruct__18&#45;&gt;PreConstruct__33</title>
<path fill="none" stroke="black" d="M2466,-2393.63C2466,-2371.68 2466,-2334.14 2466,-2308.03"/>
<polygon fill="black" stroke="black" points="2469.5,-2308.1 2466,-2298.1 2462.5,-2308.1 2469.5,-2308.1"/>
</g>
<!-- PreConstruct__35 -->
<g id="node31" class="node">
<title>PreConstruct__35</title>
<polygon fill="#eeeeee" stroke="black" points="2860,-2338.5 2860,-2374.5 2992,-2374.5 2992,-2338.5 2860,-2338.5"/>
<text text-anchor="start" x="2868" y="-2352.8" font-family="monospace" font-size="14.00">EX_EndOfScript</text>
</g>
</g>
</svg>
