<?xml version="1.0" encoding="UTF-8" standalone="no"?>
<!DOCTYPE svg PUBLIC "-//W3C//DTD SVG 1.1//EN"
 "http://www.w3.org/Graphics/SVG/1.1/DTD/svg11.dtd">
<!-- Generated by graphviz version 7.0.1 (0)
 -->
<!-- Pages: 1 -->
<svg width="2425pt" height="3239pt"
 viewBox="0.00 0.00 2425.00 3239.00" xmlns="http://www.w3.org/2000/svg" xmlns:xlink="http://www.w3.org/1999/xlink">
<g id="graph0" class="graph" transform="scale(1 1) rotate(0) translate(4 3235)">
<polygon fill="white" stroke="none" points="-4,4 -4,-3235 2421,-3235 2421,4 -4,4"/>
<!-- UI_Bar_Inventory_C -->
<g id="node1" class="node">
<title>UI_Bar_Inventory_C</title>
<polygon fill="#88ff88" stroke="black" points="0,-2997.5 0,-3140.5 850,-3140.5 850,-2997.5 0,-2997.5"/>
<text text-anchor="start" x="8" y="-3125.3" font-family="monospace" font-size="14.00">ClassExport: UI_Bar_Inventory_C</text>
<text text-anchor="start" x="8" y="-3110.3" font-family="monospace" font-size="14.00">  SuperStruct: import /Script/UMG&#45;&gt;UserWidget</text>
<text text-anchor="start" x="8" y="-3095.3" font-family="monospace" font-size="14.00">  Properties:</text>
<text text-anchor="start" x="8" y="-3080.3" font-family="monospace" font-size="14.00">    StructProperty UberGraphFrame</text>
<text text-anchor="start" x="8" y="-3065.3" font-family="monospace" font-size="14.00">      CPF_Transient|CPF_DuplicateTransient</text>
<text text-anchor="start" x="8" y="-3050.3" font-family="monospace" font-size="14.00">    ObjectProperty InventoryBox</text>
<text text-anchor="start" x="8" y="-3035.3" font-family="monospace" font-size="14.00">      CPF_BlueprintVisible|CPF_ExportObject|CPF_InstancedReference|CPF_RepSkip|CPF_PersistentInstance</text>
<text text-anchor="start" x="8" y="-3020.3" font-family="monospace" font-size="14.00">    ArrayProperty Resources</text>
<text text-anchor="start" x="8" y="-3005.3" font-family="monospace" font-size="14.00">      CPF_Edit|CPF_BlueprintVisible|CPF_DisableEditOnInstance</text>
</g>
<!-- ExecuteUbergraph_UI_Bar_Inventory -->
<g id="node2" class="node">
<title>ExecuteUbergraph_UI_Bar_Inventory</title>
<polygon fill="#ff8888" stroke="black" points="868,-2907.5 868,-3230.5 1446,-3230.5 1446,-2907.5 868,-2907.5"/>
<text text-anchor="start" x="876" y="-3215.3" font-family="monospace" font-size="14.00">Function ExecuteUbergraph_UI_Bar_Inventory</text>
<text text-anchor="start" x="876" y="-3200.3" font-family="monospace" font-size="14.00">  IntProperty EntryPoint</text>
<text text-anchor="start" x="876" y="-3185.3" font-family="monospace" font-size="14.00">    CPF_BlueprintVisible|CPF_BlueprintReadOnly|CPF_Parm</text>
<text text-anchor="start" x="876" y="-3170.3" font-family="monospace" font-size="14.00">  StructProperty K2Node_MakeStruct_Margin</text>
<text text-anchor="start" x="876" y="-3155.3" font-family="monospace" font-size="14.00">  IntProperty Temp_int_Array_Index_Variable</text>
<text text-anchor="start" x="876" y="-3140.3" font-family="monospace" font-size="14.00">  IntProperty Temp_int_Loop_Counter_Variable</text>
<text text-anchor="start" x="876" y="-3125.3" font-family="monospace" font-size="14.00">  IntProperty CallFunc_Add_IntInt_ReturnValue</text>
<text text-anchor="start" x="876" y="-3110.3" font-family="monospace" font-size="14.00">  BoolProperty K2Node_Event_IsDesignTime</text>
<text text-anchor="start" x="876" y="-3095.3" font-family="monospace" font-size="14.00">  ObjectProperty CallFunc_GetOwningPlayer_ReturnValue</text>
<text text-anchor="start" x="876" y="-3080.3" font-family="monospace" font-size="14.00">  ObjectProperty CallFunc_Array_Get_Item</text>
<text text-anchor="start" x="876" y="-3065.3" font-family="monospace" font-size="14.00">  ObjectProperty CallFunc_Create_ReturnValue</text>
<text text-anchor="start" x="876" y="-3050.3" font-family="monospace" font-size="14.00">    CPF_InstancedReference</text>
<text text-anchor="start" x="876" y="-3035.3" font-family="monospace" font-size="14.00">  FloatProperty CallFunc_GetOwnedAmount_ReturnValue</text>
<text text-anchor="start" x="876" y="-3020.3" font-family="monospace" font-size="14.00">  IntProperty CallFunc_Array_Length_ReturnValue</text>
<text text-anchor="start" x="876" y="-3005.3" font-family="monospace" font-size="14.00">  BoolProperty CallFunc_Less_IntInt_ReturnValue</text>
<text text-anchor="start" x="876" y="-2990.3" font-family="monospace" font-size="14.00">  ObjectProperty CallFunc_AddChildToHorizontalBoxEx_OutSlot</text>
<text text-anchor="start" x="876" y="-2975.3" font-family="monospace" font-size="14.00">    CPF_InstancedReference</text>
<text text-anchor="start" x="876" y="-2960.3" font-family="monospace" font-size="14.00">  ObjectProperty CallFunc_AddChildToHorizontalBoxEx_OutHorizontalBox</text>
<text text-anchor="start" x="876" y="-2945.3" font-family="monospace" font-size="14.00">    CPF_InstancedReference</text>
<text text-anchor="start" x="876" y="-2930.3" font-family="monospace" font-size="14.00">  ObjectProperty CallFunc_AddChildToHorizontalBoxEx_ReturnValue</text>
<text text-anchor="start" x="876" y="-2915.3" font-family="monospace" font-size="14.00">    CPF_InstancedReference</text>
</g>
<!-- ExecuteUbergraph_UI_Bar_Inventory__0 -->
<g id="node3" class="node">
<title>ExecuteUbergraph_UI_Bar_Inventory__0</title>
<polygon fill="#eeeeee" stroke="black" points="1049.5,-2796.5 1049.5,-2832.5 1264.5,-2832.5 1264.5,-2796.5 1049.5,-2796.5"/>
<text text-anchor="start" x="1057.5" y="-2810.8" font-family="monospace" font-size="14.00">EX_PushExecutionFlow 832</text>
</g>
<!-- ExecuteUbergraph_UI_Bar_Inventory&#45;&gt;ExecuteUbergraph_UI_Bar_Inventory__0 -->
<g id="edge1" class="edge">
<title>ExecuteUbergraph_UI_Bar_Inventory&#45;&gt;ExecuteUbergraph_UI_Bar_Inventory__0</title>
<path fill="none" stroke="black" d="M1157,-2907.73C1157,-2883.08 1157,-2860.3 1157,-2843.54"/>
<polygon fill="black" stroke="black" points="1160.5,-2843.98 1157,-2833.98 1153.5,-2843.98 1160.5,-2843.98"/>
</g>
<!-- ExecuteUbergraph_UI_Bar_Inventory__5 -->
<g id="node4" class="node">
<title>ExecuteUbergraph_UI_Bar_Inventory__5</title>
<polygon fill="#eeeeee" stroke="black" points="972,-2683.5 972,-2721.5 1244,-2721.5 1244,-2683.5 972,-2683.5"/>
<text text-anchor="start" x="980" y="-2706.3" font-family="monospace" font-size="14.00">EX_ComputedJump</text>
<text text-anchor="start" x="980" y="-2691.3" font-family="monospace" font-size="14.00">  EX_LocalVariable [EntryPoint]</text>
</g>
<!-- ExecuteUbergraph_UI_Bar_Inventory__0&#45;&gt;ExecuteUbergraph_UI_Bar_Inventory__5 -->
<g id="edge3" class="edge">
<title>ExecuteUbergraph_UI_Bar_Inventory__0&#45;&gt;ExecuteUbergraph_UI_Bar_Inventory__5</title>
<path fill="none" stroke="black" d="M1149.56,-2796.79C1141.89,-2779.57 1129.79,-2752.41 1120.62,-2731.83"/>
<polygon fill="black" stroke="black" points="1123.88,-2730.56 1116.62,-2722.84 1117.49,-2733.4 1123.88,-2730.56"/>
</g>
<!-- ExecuteUbergraph_UI_Bar_Inventory__832 -->
<g id="node31" class="node">
<title>ExecuteUbergraph_UI_Bar_Inventory__832</title>
<polygon fill="#eeeeee" stroke="black" points="1262,-2683.5 1262,-2721.5 1378,-2721.5 1378,-2683.5 1262,-2683.5"/>
<text text-anchor="start" x="1270" y="-2706.3" font-family="monospace" font-size="14.00">EX_Return</text>
<text text-anchor="start" x="1270" y="-2691.3" font-family="monospace" font-size="14.00">  EX_Nothing</text>
</g>
<!-- ExecuteUbergraph_UI_Bar_Inventory__0&#45;&gt;ExecuteUbergraph_UI_Bar_Inventory__832 -->
<g id="edge2" class="edge">
<title>ExecuteUbergraph_UI_Bar_Inventory__0:e&#45;&gt;ExecuteUbergraph_UI_Bar_Inventory__832</title>
<path fill="none" stroke="red" d="M1266,-2814.5C1302.45,-2814.5 1314.31,-2765.49 1318.15,-2732.6"/>
<polygon fill="none" stroke="red" points="1321.62,-2733.13 1319.1,-2722.84 1314.65,-2732.46 1321.62,-2733.13"/>
<text text-anchor="middle" x="1358.5" y="-2754.8" font-family="monospace" font-size="14.00">PUSH STACK</text>
</g>
<!-- ExecuteUbergraph_UI_Bar_Inventory__15 -->
<g id="node5" class="node">
<title>ExecuteUbergraph_UI_Bar_Inventory__15</title>
<polygon fill="#eeeeee" stroke="black" points="1727.5,-1690.5 1727.5,-1726.5 1942.5,-1726.5 1942.5,-1690.5 1727.5,-1690.5"/>
<text text-anchor="start" x="1735.5" y="-1704.8" font-family="monospace" font-size="14.00">EX_PushExecutionFlow 563</text>
</g>
<!-- ExecuteUbergraph_UI_Bar_Inventory__20 -->
<g id="node6" class="node">
<title>ExecuteUbergraph_UI_Bar_Inventory__20</title>
<polygon fill="#eeeeee" stroke="black" points="1157.5,-1570.5 1157.5,-1623.5 1644.5,-1623.5 1644.5,-1570.5 1157.5,-1570.5"/>
<text text-anchor="start" x="1165.5" y="-1608.3" font-family="monospace" font-size="14.00">EX_LetObj</text>
<text text-anchor="start" x="1165.5" y="-1593.3" font-family="monospace" font-size="14.00">  EX_LocalVariable [CallFunc_GetOwningPlayer_ReturnValue]</text>
<text text-anchor="start" x="1165.5" y="-1578.3" font-family="monospace" font-size="14.00">  EX_VirtualFunction GetOwningPlayer</text>
</g>
<!-- ExecuteUbergraph_UI_Bar_Inventory__15&#45;&gt;ExecuteUbergraph_UI_Bar_Inventory__20 -->
<g id="edge5" class="edge">
<title>ExecuteUbergraph_UI_Bar_Inventory__15&#45;&gt;ExecuteUbergraph_UI_Bar_Inventory__20</title>
<path fill="none" stroke="black" d="M1767.66,-1690.51C1699.65,-1673.35 1593.38,-1646.54 1512.73,-1626.19"/>
<polygon fill="black" stroke="black" points="1514.04,-1622.91 1503.49,-1623.86 1512.33,-1629.7 1514.04,-1622.91"/>
</g>
<!-- ExecuteUbergraph_UI_Bar_Inventory__563 -->
<g id="node19" class="node">
<title>ExecuteUbergraph_UI_Bar_Inventory__563</title>
<polygon fill="#eeeeee" stroke="black" points="1662.5,-1555.5 1662.5,-1638.5 2223.5,-1638.5 2223.5,-1555.5 1662.5,-1555.5"/>
<text text-anchor="start" x="1670.5" y="-1623.3" font-family="monospace" font-size="14.00">EX_Let</text>
<text text-anchor="start" x="1670.5" y="-1608.3" font-family="monospace" font-size="14.00">  EX_LocalVariable [CallFunc_Add_IntInt_ReturnValue]</text>
<text text-anchor="start" x="1670.5" y="-1593.3" font-family="monospace" font-size="14.00">  EX_CallMath import /Script/Engine&#45;&gt;KismetMathLibrary&#45;&gt;Add_IntInt</text>
<text text-anchor="start" x="1670.5" y="-1578.3" font-family="monospace" font-size="14.00">    EX_LocalVariable [Temp_int_Loop_Counter_Variable]</text>
<text text-anchor="start" x="1670.5" y="-1563.3" font-family="monospace" font-size="14.00">    EX_IntConst 1</text>
</g>
<!-- ExecuteUbergraph_UI_Bar_Inventory__15&#45;&gt;ExecuteUbergraph_UI_Bar_Inventory__563 -->
<g id="edge4" class="edge">
<title>ExecuteUbergraph_UI_Bar_Inventory__15:e&#45;&gt;ExecuteUbergraph_UI_Bar_Inventory__563</title>
<path fill="none" stroke="red" d="M1944,-1708.5C1969.77,-1708.5 1968.22,-1678.07 1960.93,-1649.15"/>
<polygon fill="none" stroke="red" points="1964.34,-1648.37 1958.3,-1639.66 1957.59,-1650.24 1964.34,-1648.37"/>
<text text-anchor="middle" x="2005.5" y="-1660.8" font-family="monospace" font-size="14.00">PUSH STACK</text>
</g>
<!-- ExecuteUbergraph_UI_Bar_Inventory__44 -->
<g id="node7" class="node">
<title>ExecuteUbergraph_UI_Bar_Inventory__44</title>
<polygon fill="#eeeeee" stroke="black" points="959.5,-1374.5 959.5,-1517.5 1842.5,-1517.5 1842.5,-1374.5 959.5,-1374.5"/>
<text text-anchor="start" x="967.5" y="-1502.3" font-family="monospace" font-size="14.00">EX_LetObj</text>
<text text-anchor="start" x="967.5" y="-1487.3" font-family="monospace" font-size="14.00">  EX_LocalVariable [CallFunc_Create_ReturnValue]</text>
<text text-anchor="start" x="967.5" y="-1472.3" font-family="monospace" font-size="14.00">  EX_Context</text>
<text text-anchor="start" x="967.5" y="-1457.3" font-family="monospace" font-size="14.00">    EX_ObjectConst import /Script/UMG&#45;&gt;Default__WidgetBlueprintLibrary</text>
<text text-anchor="start" x="967.5" y="-1442.3" font-family="monospace" font-size="14.00">    EX_FinalFunction import /Script/UMG&#45;&gt;WidgetBlueprintLibrary&#45;&gt;Create</text>
<text text-anchor="start" x="967.5" y="-1427.3" font-family="monospace" font-size="14.00">      EX_Self</text>
<text text-anchor="start" x="967.5" y="-1412.3" font-family="monospace" font-size="14.00">      EX_ObjectConst import /Game/UI/Menu_TopBar/ITM_TopBar_ResourceCounter&#45;&gt;ITM_TopBar_ResourceCounter_C</text>
<text text-anchor="start" x="967.5" y="-1397.3" font-family="monospace" font-size="14.00">      EX_LocalVariable [CallFunc_GetOwningPlayer_ReturnValue]</text>
<text text-anchor="start" x="967.5" y="-1382.3" font-family="monospace" font-size="14.00">    RValue = [CallFunc_Create_ReturnValue]</text>
</g>
<!-- ExecuteUbergraph_UI_Bar_Inventory__20&#45;&gt;ExecuteUbergraph_UI_Bar_Inventory__44 -->
<g id="edge6" class="edge">
<title>ExecuteUbergraph_UI_Bar_Inventory__20&#45;&gt;ExecuteUbergraph_UI_Bar_Inventory__44</title>
<path fill="none" stroke="black" d="M1401,-1570.72C1401,-1558.83 1401,-1543.91 1401,-1528.59"/>
<polygon fill="black" stroke="black" points="1404.5,-1528.91 1401,-1518.91 1397.5,-1528.91 1404.5,-1528.91"/>
</g>
<!-- ExecuteUbergraph_UI_Bar_Inventory__105 -->
<g id="node8" class="node">
<title>ExecuteUbergraph_UI_Bar_Inventory__105</title>
<polygon fill="#eeeeee" stroke="black" points="1100,-1223.5 1100,-1336.5 1702,-1336.5 1702,-1223.5 1100,-1223.5"/>
<text text-anchor="start" x="1108" y="-1321.3" font-family="monospace" font-size="14.00">EX_Context</text>
<text text-anchor="start" x="1108" y="-1306.3" font-family="monospace" font-size="14.00">  EX_ObjectConst import /Script/Engine&#45;&gt;Default__KismetArrayLibrary</text>
<text text-anchor="start" x="1108" y="-1291.3" font-family="monospace" font-size="14.00">  EX_FinalFunction import /Script/Engine&#45;&gt;KismetArrayLibrary&#45;&gt;Array_Get</text>
<text text-anchor="start" x="1108" y="-1276.3" font-family="monospace" font-size="14.00">    EX_InstanceVariable [Resources]</text>
<text text-anchor="start" x="1108" y="-1261.3" font-family="monospace" font-size="14.00">    EX_LocalVariable [Temp_int_Array_Index_Variable]</text>
<text text-anchor="start" x="1108" y="-1246.3" font-family="monospace" font-size="14.00">    EX_LocalVariable [CallFunc_Array_Get_Item]</text>
<text text-anchor="start" x="1108" y="-1231.3" font-family="monospace" font-size="14.00">  RValue = []</text>
</g>
<!-- ExecuteUbergraph_UI_Bar_Inventory__44&#45;&gt;ExecuteUbergraph_UI_Bar_Inventory__105 -->
<g id="edge7" class="edge">
<title>ExecuteUbergraph_UI_Bar_Inventory__44&#45;&gt;ExecuteUbergraph_UI_Bar_Inventory__105</title>
<path fill="none" stroke="black" d="M1401,-1374.97C1401,-1365.91 1401,-1356.65 1401,-1347.65"/>
<polygon fill="black" stroke="black" points="1404.5,-1347.93 1401,-1337.93 1397.5,-1347.93 1404.5,-1347.93"/>
</g>
<!-- ExecuteUbergraph_UI_Bar_Inventory__164 -->
<g id="node9" class="node">
<title>ExecuteUbergraph_UI_Bar_Inventory__164</title>
<polygon fill="#eeeeee" stroke="black" points="1067,-1117.5 1067,-1185.5 1735,-1185.5 1735,-1117.5 1067,-1117.5"/>
<text text-anchor="start" x="1075" y="-1170.3" font-family="monospace" font-size="14.00">EX_CallMath import /Script/Engine&#45;&gt;KismetSystemLibrary&#45;&gt;SetObjectPropertyByName</text>
<text text-anchor="start" x="1075" y="-1155.3" font-family="monospace" font-size="14.00">  EX_LocalVariable [CallFunc_Create_ReturnValue]</text>
<text text-anchor="start" x="1075" y="-1140.3" font-family="monospace" font-size="14.00">  EX_NameConst Resource</text>
<text text-anchor="start" x="1075" y="-1125.3" font-family="monospace" font-size="14.00">  EX_LocalVariable [CallFunc_Array_Get_Item]</text>
</g>
<!-- ExecuteUbergraph_UI_Bar_Inventory__105&#45;&gt;ExecuteUbergraph_UI_Bar_Inventory__164 -->
<g id="edge8" class="edge">
<title>ExecuteUbergraph_UI_Bar_Inventory__105&#45;&gt;ExecuteUbergraph_UI_Bar_Inventory__164</title>
<path fill="none" stroke="black" d="M1401,-1223.52C1401,-1214.57 1401,-1205.41 1401,-1196.78"/>
<polygon fill="black" stroke="black" points="1404.5,-1196.91 1401,-1186.91 1397.5,-1196.91 1404.5,-1196.91"/>
</g>
<!-- ExecuteUbergraph_UI_Bar_Inventory__205 -->
<g id="node10" class="node">
<title>ExecuteUbergraph_UI_Bar_Inventory__205</title>
<polygon fill="#eeeeee" stroke="black" points="1100,-966.5 1100,-1079.5 1702,-1079.5 1702,-966.5 1100,-966.5"/>
<text text-anchor="start" x="1108" y="-1064.3" font-family="monospace" font-size="14.00">EX_Context</text>
<text text-anchor="start" x="1108" y="-1049.3" font-family="monospace" font-size="14.00">  EX_ObjectConst import /Script/Engine&#45;&gt;Default__KismetArrayLibrary</text>
<text text-anchor="start" x="1108" y="-1034.3" font-family="monospace" font-size="14.00">  EX_FinalFunction import /Script/Engine&#45;&gt;KismetArrayLibrary&#45;&gt;Array_Get</text>
<text text-anchor="start" x="1108" y="-1019.3" font-family="monospace" font-size="14.00">    EX_InstanceVariable [Resources]</text>
<text text-anchor="start" x="1108" y="-1004.3" font-family="monospace" font-size="14.00">    EX_LocalVariable [Temp_int_Array_Index_Variable]</text>
<text text-anchor="start" x="1108" y="-989.3" font-family="monospace" font-size="14.00">    EX_LocalVariable [CallFunc_Array_Get_Item]</text>
<text text-anchor="start" x="1108" y="-974.3" font-family="monospace" font-size="14.00">  RValue = []</text>
</g>
<!-- ExecuteUbergraph_UI_Bar_Inventory__164&#45;&gt;ExecuteUbergraph_UI_Bar_Inventory__205 -->
<g id="edge9" class="edge">
<title>ExecuteUbergraph_UI_Bar_Inventory__164&#45;&gt;ExecuteUbergraph_UI_Bar_Inventory__205</title>
<path fill="none" stroke="black" d="M1401,-1117.59C1401,-1109.27 1401,-1100.02 1401,-1090.67"/>
<polygon fill="black" stroke="black" points="1404.5,-1090.79 1401,-1080.79 1397.5,-1090.79 1404.5,-1090.79"/>
</g>
<!-- ExecuteUbergraph_UI_Bar_Inventory__264 -->
<g id="node11" class="node">
<title>ExecuteUbergraph_UI_Bar_Inventory__264</title>
<polygon fill="#eeeeee" stroke="black" points="1161.5,-815.5 1161.5,-928.5 1640.5,-928.5 1640.5,-815.5 1161.5,-815.5"/>
<text text-anchor="start" x="1169.5" y="-913.3" font-family="monospace" font-size="14.00">EX_Let</text>
<text text-anchor="start" x="1169.5" y="-898.3" font-family="monospace" font-size="14.00">  EX_LocalVariable [CallFunc_GetOwnedAmount_ReturnValue]</text>
<text text-anchor="start" x="1169.5" y="-883.3" font-family="monospace" font-size="14.00">  EX_Context</text>
<text text-anchor="start" x="1169.5" y="-868.3" font-family="monospace" font-size="14.00">    EX_LocalVariable [CallFunc_Array_Get_Item]</text>
<text text-anchor="start" x="1169.5" y="-853.3" font-family="monospace" font-size="14.00">    EX_VirtualFunction GetOwnedAmount</text>
<text text-anchor="start" x="1169.5" y="-838.3" font-family="monospace" font-size="14.00">      EX_Self</text>
<text text-anchor="start" x="1169.5" y="-823.3" font-family="monospace" font-size="14.00">    RValue = [CallFunc_GetOwnedAmount_ReturnValue]</text>
</g>
<!-- ExecuteUbergraph_UI_Bar_Inventory__205&#45;&gt;ExecuteUbergraph_UI_Bar_Inventory__264 -->
<g id="edge10" class="edge">
<title>ExecuteUbergraph_UI_Bar_Inventory__205&#45;&gt;ExecuteUbergraph_UI_Bar_Inventory__264</title>
<path fill="none" stroke="black" d="M1401,-966.52C1401,-957.68 1401,-948.45 1401,-939.39"/>
<polygon fill="black" stroke="black" points="1404.5,-939.55 1401,-929.55 1397.5,-939.55 1404.5,-939.55"/>
</g>
<!-- ExecuteUbergraph_UI_Bar_Inventory__319 -->
<g id="node12" class="node">
<title>ExecuteUbergraph_UI_Bar_Inventory__319</title>
<polygon fill="#eeeeee" stroke="black" points="1071,-709.5 1071,-777.5 1731,-777.5 1731,-709.5 1071,-709.5"/>
<text text-anchor="start" x="1079" y="-762.3" font-family="monospace" font-size="14.00">EX_CallMath import /Script/Engine&#45;&gt;KismetSystemLibrary&#45;&gt;SetFloatPropertyByName</text>
<text text-anchor="start" x="1079" y="-747.3" font-family="monospace" font-size="14.00">  EX_LocalVariable [CallFunc_Create_ReturnValue]</text>
<text text-anchor="start" x="1079" y="-732.3" font-family="monospace" font-size="14.00">  EX_NameConst Amount</text>
<text text-anchor="start" x="1079" y="-717.3" font-family="monospace" font-size="14.00">  EX_LocalVariable [CallFunc_GetOwnedAmount_ReturnValue]</text>
</g>
<!-- ExecuteUbergraph_UI_Bar_Inventory__264&#45;&gt;ExecuteUbergraph_UI_Bar_Inventory__319 -->
<g id="edge11" class="edge">
<title>ExecuteUbergraph_UI_Bar_Inventory__264&#45;&gt;ExecuteUbergraph_UI_Bar_Inventory__319</title>
<path fill="none" stroke="black" d="M1401,-815.52C1401,-806.57 1401,-797.41 1401,-788.78"/>
<polygon fill="black" stroke="black" points="1404.5,-788.91 1401,-778.91 1397.5,-788.91 1404.5,-788.91"/>
</g>
<!-- ExecuteUbergraph_UI_Bar_Inventory__360 -->
<g id="node13" class="node">
<title>ExecuteUbergraph_UI_Bar_Inventory__360</title>
<polygon fill="#eeeeee" stroke="black" points="1199,-603.5 1199,-671.5 1603,-671.5 1603,-603.5 1199,-603.5"/>
<text text-anchor="start" x="1207" y="-656.3" font-family="monospace" font-size="14.00">EX_Let</text>
<text text-anchor="start" x="1207" y="-641.3" font-family="monospace" font-size="14.00">  EX_StructMemberContext [Left]</text>
<text text-anchor="start" x="1207" y="-626.3" font-family="monospace" font-size="14.00">    EX_LocalVariable [K2Node_MakeStruct_Margin]</text>
<text text-anchor="start" x="1207" y="-611.3" font-family="monospace" font-size="14.00">  EX_FloatConst 5</text>
</g>
<!-- ExecuteUbergraph_UI_Bar_Inventory__319&#45;&gt;ExecuteUbergraph_UI_Bar_Inventory__360 -->
<g id="edge12" class="edge">
<title>ExecuteUbergraph_UI_Bar_Inventory__319&#45;&gt;ExecuteUbergraph_UI_Bar_Inventory__360</title>
<path fill="none" stroke="black" d="M1401,-709.59C1401,-700.97 1401,-691.54 1401,-682.45"/>
<polygon fill="black" stroke="black" points="1404.5,-682.71 1401,-672.71 1397.5,-682.71 1404.5,-682.71"/>
</g>
<!-- ExecuteUbergraph_UI_Bar_Inventory__392 -->
<g id="node14" class="node">
<title>ExecuteUbergraph_UI_Bar_Inventory__392</title>
<polygon fill="#eeeeee" stroke="black" points="1199,-497.5 1199,-565.5 1603,-565.5 1603,-497.5 1199,-497.5"/>
<text text-anchor="start" x="1207" y="-550.3" font-family="monospace" font-size="14.00">EX_Let</text>
<text text-anchor="start" x="1207" y="-535.3" font-family="monospace" font-size="14.00">  EX_StructMemberContext [Top]</text>
<text text-anchor="start" x="1207" y="-520.3" font-family="monospace" font-size="14.00">    EX_LocalVariable [K2Node_MakeStruct_Margin]</text>
<text text-anchor="start" x="1207" y="-505.3" font-family="monospace" font-size="14.00">  EX_FloatConst 0</text>
</g>
<!-- ExecuteUbergraph_UI_Bar_Inventory__360&#45;&gt;ExecuteUbergraph_UI_Bar_Inventory__392 -->
<g id="edge13" class="edge">
<title>ExecuteUbergraph_UI_Bar_Inventory__360&#45;&gt;ExecuteUbergraph_UI_Bar_Inventory__392</title>
<path fill="none" stroke="black" d="M1401,-603.59C1401,-594.97 1401,-585.54 1401,-576.45"/>
<polygon fill="black" stroke="black" points="1404.5,-576.71 1401,-566.71 1397.5,-576.71 1404.5,-576.71"/>
</g>
<!-- ExecuteUbergraph_UI_Bar_Inventory__424 -->
<g id="node15" class="node">
<title>ExecuteUbergraph_UI_Bar_Inventory__424</title>
<polygon fill="#eeeeee" stroke="black" points="1199,-391.5 1199,-459.5 1603,-459.5 1603,-391.5 1199,-391.5"/>
<text text-anchor="start" x="1207" y="-444.3" font-family="monospace" font-size="14.00">EX_Let</text>
<text text-anchor="start" x="1207" y="-429.3" font-family="monospace" font-size="14.00">  EX_StructMemberContext [Right]</text>
<text text-anchor="start" x="1207" y="-414.3" font-family="monospace" font-size="14.00">    EX_LocalVariable [K2Node_MakeStruct_Margin]</text>
<text text-anchor="start" x="1207" y="-399.3" font-family="monospace" font-size="14.00">  EX_FloatConst 5</text>
</g>
<!-- ExecuteUbergraph_UI_Bar_Inventory__392&#45;&gt;ExecuteUbergraph_UI_Bar_Inventory__424 -->
<g id="edge14" class="edge">
<title>ExecuteUbergraph_UI_Bar_Inventory__392&#45;&gt;ExecuteUbergraph_UI_Bar_Inventory__424</title>
<path fill="none" stroke="black" d="M1401,-497.59C1401,-488.97 1401,-479.54 1401,-470.45"/>
<polygon fill="black" stroke="black" points="1404.5,-470.71 1401,-460.71 1397.5,-470.71 1404.5,-470.71"/>
</g>
<!-- ExecuteUbergraph_UI_Bar_Inventory__456 -->
<g id="node16" class="node">
<title>ExecuteUbergraph_UI_Bar_Inventory__456</title>
<polygon fill="#eeeeee" stroke="black" points="1199,-285.5 1199,-353.5 1603,-353.5 1603,-285.5 1199,-285.5"/>
<text text-anchor="start" x="1207" y="-338.3" font-family="monospace" font-size="14.00">EX_Let</text>
<text text-anchor="start" x="1207" y="-323.3" font-family="monospace" font-size="14.00">  EX_StructMemberContext [Bottom]</text>
<text text-anchor="start" x="1207" y="-308.3" font-family="monospace" font-size="14.00">    EX_LocalVariable [K2Node_MakeStruct_Margin]</text>
<text text-anchor="start" x="1207" y="-293.3" font-family="monospace" font-size="14.00">  EX_FloatConst 0</text>
</g>
<!-- ExecuteUbergraph_UI_Bar_Inventory__424&#45;&gt;ExecuteUbergraph_UI_Bar_Inventory__456 -->
<g id="edge15" class="edge">
<title>ExecuteUbergraph_UI_Bar_Inventory__424&#45;&gt;ExecuteUbergraph_UI_Bar_Inventory__456</title>
<path fill="none" stroke="black" d="M1401,-391.59C1401,-382.97 1401,-373.54 1401,-364.45"/>
<polygon fill="black" stroke="black" points="1404.5,-364.71 1401,-354.71 1397.5,-364.71 1404.5,-364.71"/>
</g>
<!-- ExecuteUbergraph_UI_Bar_Inventory__488 -->
<g id="node17" class="node">
<title>ExecuteUbergraph_UI_Bar_Inventory__488</title>
<polygon fill="#eeeeee" stroke="black" points="1038,-74.5 1038,-247.5 1764,-247.5 1764,-74.5 1038,-74.5"/>
<text text-anchor="start" x="1046" y="-232.3" font-family="monospace" font-size="14.00">EX_LetObj</text>
<text text-anchor="start" x="1046" y="-217.3" font-family="monospace" font-size="14.00">  EX_LocalVariable [CallFunc_AddChildToHorizontalBoxEx_ReturnValue]</text>
<text text-anchor="start" x="1046" y="-202.3" font-family="monospace" font-size="14.00">  EX_CallMath import /Script/FSD&#45;&gt;FSDWidgetBlueprintLibrary&#45;&gt;AddChildToHorizontalBoxEx</text>
<text text-anchor="start" x="1046" y="-187.3" font-family="monospace" font-size="14.00">    EX_InstanceVariable [InventoryBox]</text>
<text text-anchor="start" x="1046" y="-172.3" font-family="monospace" font-size="14.00">    EX_LocalVariable [CallFunc_Create_ReturnValue]</text>
<text text-anchor="start" x="1046" y="-157.3" font-family="monospace" font-size="14.00">    EX_ByteConst 2</text>
<text text-anchor="start" x="1046" y="-142.3" font-family="monospace" font-size="14.00">    EX_ByteConst 0</text>
<text text-anchor="start" x="1046" y="-127.3" font-family="monospace" font-size="14.00">    EX_FloatConst 0.1</text>
<text text-anchor="start" x="1046" y="-112.3" font-family="monospace" font-size="14.00">    EX_LocalVariable [K2Node_MakeStruct_Margin]</text>
<text text-anchor="start" x="1046" y="-97.3" font-family="monospace" font-size="14.00">    EX_LocalVariable [CallFunc_AddChildToHorizontalBoxEx_OutSlot]</text>
<text text-anchor="start" x="1046" y="-82.3" font-family="monospace" font-size="14.00">    EX_LocalVariable [CallFunc_AddChildToHorizontalBoxEx_OutHorizontalBox]</text>
</g>
<!-- ExecuteUbergraph_UI_Bar_Inventory__456&#45;&gt;ExecuteUbergraph_UI_Bar_Inventory__488 -->
<g id="edge16" class="edge">
<title>ExecuteUbergraph_UI_Bar_Inventory__456&#45;&gt;ExecuteUbergraph_UI_Bar_Inventory__488</title>
<path fill="none" stroke="black" d="M1401,-285.69C1401,-277.51 1401,-268.32 1401,-258.73"/>
<polygon fill="black" stroke="black" points="1404.5,-258.84 1401,-248.84 1397.5,-258.84 1404.5,-258.84"/>
</g>
<!-- ExecuteUbergraph_UI_Bar_Inventory__562 -->
<g id="node18" class="node">
<title>ExecuteUbergraph_UI_Bar_Inventory__562</title>
<polygon fill="#eeeeee" stroke="black" points="1314.5,-0.5 1314.5,-36.5 1487.5,-36.5 1487.5,-0.5 1314.5,-0.5"/>
<text text-anchor="start" x="1322.5" y="-14.8" font-family="monospace" font-size="14.00">EX_PopExecutionFlow</text>
</g>
<!-- ExecuteUbergraph_UI_Bar_Inventory__488&#45;&gt;ExecuteUbergraph_UI_Bar_Inventory__562 -->
<g id="edge17" class="edge">
<title>ExecuteUbergraph_UI_Bar_Inventory__488&#45;&gt;ExecuteUbergraph_UI_Bar_Inventory__562</title>
<path fill="none" stroke="black" d="M1401,-74.63C1401,-64.86 1401,-55.5 1401,-47.35"/>
<polygon fill="black" stroke="black" points="1404.5,-47.54 1401,-37.54 1397.5,-47.54 1404.5,-47.54"/>
</g>
<!-- ExecuteUbergraph_UI_Bar_Inventory__605 -->
<g id="node20" class="node">
<title>ExecuteUbergraph_UI_Bar_Inventory__605</title>
<polygon fill="#eeeeee" stroke="black" points="1946,-1419.5 1946,-1472.5 2392,-1472.5 2392,-1419.5 1946,-1419.5"/>
<text text-anchor="start" x="1954" y="-1457.3" font-family="monospace" font-size="14.00">EX_Let</text>
<text text-anchor="start" x="1954" y="-1442.3" font-family="monospace" font-size="14.00">  EX_LocalVariable [Temp_int_Loop_Counter_Variable]</text>
<text text-anchor="start" x="1954" y="-1427.3" font-family="monospace" font-size="14.00">  EX_LocalVariable [CallFunc_Add_IntInt_ReturnValue]</text>
</g>
<!-- ExecuteUbergraph_UI_Bar_Inventory__563&#45;&gt;ExecuteUbergraph_UI_Bar_Inventory__605 -->
<g id="edge18" class="edge">
<title>ExecuteUbergraph_UI_Bar_Inventory__563&#45;&gt;ExecuteUbergraph_UI_Bar_Inventory__605</title>
<path fill="none" stroke="black" d="M2004.16,-1555.68C2040.96,-1531.41 2087.13,-1500.98 2121.24,-1478.49"/>
<polygon fill="black" stroke="black" points="2122.84,-1481.63 2129.26,-1473.2 2118.98,-1475.78 2122.84,-1481.63"/>
</g>
<!-- ExecuteUbergraph_UI_Bar_Inventory__632 -->
<g id="node21" class="node">
<title>ExecuteUbergraph_UI_Bar_Inventory__632</title>
<polygon fill="#eeeeee" stroke="black" points="1773,-2126.5 1773,-2239.5 2417,-2239.5 2417,-2126.5 1773,-2126.5"/>
<text text-anchor="start" x="1781" y="-2224.3" font-family="monospace" font-size="14.00">EX_Let</text>
<text text-anchor="start" x="1781" y="-2209.3" font-family="monospace" font-size="14.00">  EX_LocalVariable [CallFunc_Array_Length_ReturnValue]</text>
<text text-anchor="start" x="1781" y="-2194.3" font-family="monospace" font-size="14.00">  EX_Context</text>
<text text-anchor="start" x="1781" y="-2179.3" font-family="monospace" font-size="14.00">    EX_ObjectConst import /Script/Engine&#45;&gt;Default__KismetArrayLibrary</text>
<text text-anchor="start" x="1781" y="-2164.3" font-family="monospace" font-size="14.00">    EX_FinalFunction import /Script/Engine&#45;&gt;KismetArrayLibrary&#45;&gt;Array_Length</text>
<text text-anchor="start" x="1781" y="-2149.3" font-family="monospace" font-size="14.00">      EX_InstanceVariable [Resources]</text>
<text text-anchor="start" x="1781" y="-2134.3" font-family="monospace" font-size="14.00">    RValue = [CallFunc_Array_Length_ReturnValue]</text>
</g>
<!-- ExecuteUbergraph_UI_Bar_Inventory__605&#45;&gt;ExecuteUbergraph_UI_Bar_Inventory__632 -->
<g id="edge19" class="edge">
<title>ExecuteUbergraph_UI_Bar_Inventory__605&#45;&gt;ExecuteUbergraph_UI_Bar_Inventory__632</title>
<path fill="none" stroke="black" d="M2193.68,-1472.34C2218.14,-1500.24 2252,-1547.59 2252,-1596 2252,-2048 2252,-2048 2252,-2048 2252,-2076.47 2236.88,-2100.18 2216.02,-2119.33"/>
<polygon fill="black" stroke="black" points="2213.88,-2116.56 2208.58,-2125.74 2218.44,-2121.87 2213.88,-2116.56"/>
</g>
<!-- ExecuteUbergraph_UI_Bar_Inventory__691 -->
<g id="node22" class="node">
<title>ExecuteUbergraph_UI_Bar_Inventory__691</title>
<polygon fill="#eeeeee" stroke="black" points="1654.5,-2005.5 1654.5,-2088.5 2223.5,-2088.5 2223.5,-2005.5 1654.5,-2005.5"/>
<text text-anchor="start" x="1662.5" y="-2073.3" font-family="monospace" font-size="14.00">EX_LetBool</text>
<text text-anchor="start" x="1662.5" y="-2058.3" font-family="monospace" font-size="14.00">  EX_LocalVariable [CallFunc_Less_IntInt_ReturnValue]</text>
<text text-anchor="start" x="1662.5" y="-2043.3" font-family="monospace" font-size="14.00">  EX_CallMath import /Script/Engine&#45;&gt;KismetMathLibrary&#45;&gt;Less_IntInt</text>
<text text-anchor="start" x="1662.5" y="-2028.3" font-family="monospace" font-size="14.00">    EX_LocalVariable [Temp_int_Loop_Counter_Variable]</text>
<text text-anchor="start" x="1662.5" y="-2013.3" font-family="monospace" font-size="14.00">    EX_LocalVariable [CallFunc_Array_Length_ReturnValue]</text>
</g>
<!-- ExecuteUbergraph_UI_Bar_Inventory__632&#45;&gt;ExecuteUbergraph_UI_Bar_Inventory__691 -->
<g id="edge20" class="edge">
<title>ExecuteUbergraph_UI_Bar_Inventory__632&#45;&gt;ExecuteUbergraph_UI_Bar_Inventory__691</title>
<path fill="none" stroke="black" d="M2030.65,-2126.72C2018.74,-2116.5 2006.4,-2105.9 1994.78,-2095.91"/>
<polygon fill="black" stroke="black" points="1997.06,-2093.26 1987.19,-2089.4 1992.5,-2098.57 1997.06,-2093.26"/>
</g>
<!-- ExecuteUbergraph_UI_Bar_Inventory__729 -->
<g id="node23" class="node">
<title>ExecuteUbergraph_UI_Bar_Inventory__729</title>
<polygon fill="#eeeeee" stroke="black" points="1659,-1929.5 1659,-1967.5 2113,-1967.5 2113,-1929.5 1659,-1929.5"/>
<text text-anchor="start" x="1667" y="-1952.3" font-family="monospace" font-size="14.00">EX_PopExecutionFlowIfNot</text>
<text text-anchor="start" x="1667" y="-1937.3" font-family="monospace" font-size="14.00">  EX_LocalVariable [CallFunc_Less_IntInt_ReturnValue]</text>
</g>
<!-- ExecuteUbergraph_UI_Bar_Inventory__691&#45;&gt;ExecuteUbergraph_UI_Bar_Inventory__729 -->
<g id="edge21" class="edge">
<title>ExecuteUbergraph_UI_Bar_Inventory__691&#45;&gt;ExecuteUbergraph_UI_Bar_Inventory__729</title>
<path fill="none" stroke="black" d="M1916.83,-2005.63C1911.53,-1995.98 1905.99,-1985.9 1901.09,-1976.98"/>
<polygon fill="black" stroke="black" points="1904.3,-1975.56 1896.42,-1968.48 1898.17,-1978.93 1904.3,-1975.56"/>
</g>
<!-- ExecuteUbergraph_UI_Bar_Inventory__739 -->
<g id="node24" class="node">
<title>ExecuteUbergraph_UI_Bar_Inventory__739</title>
<polygon fill="#eeeeee" stroke="black" points="1628.5,-1838.5 1628.5,-1891.5 2065.5,-1891.5 2065.5,-1838.5 1628.5,-1838.5"/>
<text text-anchor="start" x="1636.5" y="-1876.3" font-family="monospace" font-size="14.00">EX_Let</text>
<text text-anchor="start" x="1636.5" y="-1861.3" font-family="monospace" font-size="14.00">  EX_LocalVariable [Temp_int_Array_Index_Variable]</text>
<text text-anchor="start" x="1636.5" y="-1846.3" font-family="monospace" font-size="14.00">  EX_LocalVariable [Temp_int_Loop_Counter_Variable]</text>
</g>
<!-- ExecuteUbergraph_UI_Bar_Inventory__729&#45;&gt;ExecuteUbergraph_UI_Bar_Inventory__739 -->
<g id="edge22" class="edge">
<title>ExecuteUbergraph_UI_Bar_Inventory__729&#45;&gt;ExecuteUbergraph_UI_Bar_Inventory__739</title>
<path fill="none" stroke="black" d="M1877.54,-1929.82C1873.59,-1921.56 1868.74,-1911.43 1864.08,-1901.69"/>
<polygon fill="black" stroke="black" points="1867.27,-1900.26 1859.8,-1892.75 1860.96,-1903.28 1867.27,-1900.26"/>
</g>
<!-- ExecuteUbergraph_UI_Bar_Inventory__766 -->
<g id="node25" class="node">
<title>ExecuteUbergraph_UI_Bar_Inventory__766</title>
<polygon fill="#eeeeee" stroke="black" points="1788.5,-1764.5 1788.5,-1800.5 1887.5,-1800.5 1887.5,-1764.5 1788.5,-1764.5"/>
<text text-anchor="start" x="1796.5" y="-1778.8" font-family="monospace" font-size="14.00">EX_Jump 15</text>
</g>
<!-- ExecuteUbergraph_UI_Bar_Inventory__739&#45;&gt;ExecuteUbergraph_UI_Bar_Inventory__766 -->
<g id="edge23" class="edge">
<title>ExecuteUbergraph_UI_Bar_Inventory__739&#45;&gt;ExecuteUbergraph_UI_Bar_Inventory__766</title>
<path fill="none" stroke="black" d="M1844.15,-1838.53C1843.19,-1829.92 1842.11,-1820.25 1841.13,-1811.46"/>
<polygon fill="black" stroke="black" points="1844.62,-1811.23 1840.03,-1801.68 1837.67,-1812.01 1844.62,-1811.23"/>
</g>
<!-- ExecuteUbergraph_UI_Bar_Inventory__766&#45;&gt;ExecuteUbergraph_UI_Bar_Inventory__15 -->
<g id="edge24" class="edge">
<title>ExecuteUbergraph_UI_Bar_Inventory__766&#45;&gt;ExecuteUbergraph_UI_Bar_Inventory__15</title>
<path fill="none" stroke="black" d="M1837.3,-1764.8C1836.97,-1756.71 1836.55,-1746.78 1836.17,-1737.57"/>
<polygon fill="black" stroke="black" points="1839.67,-1737.47 1835.76,-1727.62 1832.67,-1737.76 1839.67,-1737.47"/>
</g>
<!-- ExecuteUbergraph_UI_Bar_Inventory__771 -->
<g id="node26" class="node">
<title>ExecuteUbergraph_UI_Bar_Inventory__771</title>
<polygon fill="#eeeeee" stroke="black" points="1880.5,-2351.5 1880.5,-2404.5 2309.5,-2404.5 2309.5,-2351.5 1880.5,-2351.5"/>
<text text-anchor="start" x="1888.5" y="-2389.3" font-family="monospace" font-size="14.00">EX_Let</text>
<text text-anchor="start" x="1888.5" y="-2374.3" font-family="monospace" font-size="14.00">  EX_LocalVariable [Temp_int_Array_Index_Variable]</text>
<text text-anchor="start" x="1888.5" y="-2359.3" font-family="monospace" font-size="14.00">  EX_IntConst 0</text>
</g>
<!-- ExecuteUbergraph_UI_Bar_Inventory__794 -->
<g id="node27" class="node">
<title>ExecuteUbergraph_UI_Bar_Inventory__794</title>
<polygon fill="#eeeeee" stroke="black" points="2041.5,-2277.5 2041.5,-2313.5 2148.5,-2313.5 2148.5,-2277.5 2041.5,-2277.5"/>
<text text-anchor="start" x="2049.5" y="-2291.8" font-family="monospace" font-size="14.00">EX_Jump 632</text>
</g>
<!-- ExecuteUbergraph_UI_Bar_Inventory__771&#45;&gt;ExecuteUbergraph_UI_Bar_Inventory__794 -->
<g id="edge25" class="edge">
<title>ExecuteUbergraph_UI_Bar_Inventory__771&#45;&gt;ExecuteUbergraph_UI_Bar_Inventory__794</title>
<path fill="none" stroke="black" d="M2095,-2351.53C2095,-2342.92 2095,-2333.25 2095,-2324.46"/>
<polygon fill="black" stroke="black" points="2098.5,-2324.69 2095,-2314.69 2091.5,-2324.69 2098.5,-2324.69"/>
</g>
<!-- ExecuteUbergraph_UI_Bar_Inventory__794&#45;&gt;ExecuteUbergraph_UI_Bar_Inventory__632 -->
<g id="edge26" class="edge">
<title>ExecuteUbergraph_UI_Bar_Inventory__794&#45;&gt;ExecuteUbergraph_UI_Bar_Inventory__632</title>
<path fill="none" stroke="black" d="M2095,-2277.72C2095,-2270.17 2095,-2260.73 2095,-2250.76"/>
<polygon fill="black" stroke="black" points="2098.5,-2250.87 2095,-2240.87 2091.5,-2250.87 2098.5,-2250.87"/>
</g>
<!-- ExecuteUbergraph_UI_Bar_Inventory__799 -->
<g id="node28" class="node">
<title>ExecuteUbergraph_UI_Bar_Inventory__799</title>
<polygon fill="#eeeeee" stroke="black" points="1876.5,-2516.5 1876.5,-2569.5 2313.5,-2569.5 2313.5,-2516.5 1876.5,-2516.5"/>
<text text-anchor="start" x="1884.5" y="-2554.3" font-family="monospace" font-size="14.00">EX_Let</text>
<text text-anchor="start" x="1884.5" y="-2539.3" font-family="monospace" font-size="14.00">  EX_LocalVariable [Temp_int_Loop_Counter_Variable]</text>
<text text-anchor="start" x="1884.5" y="-2524.3" font-family="monospace" font-size="14.00">  EX_IntConst 0</text>
</g>
<!-- ExecuteUbergraph_UI_Bar_Inventory__822 -->
<g id="node29" class="node">
<title>ExecuteUbergraph_UI_Bar_Inventory__822</title>
<polygon fill="#eeeeee" stroke="black" points="2041.5,-2442.5 2041.5,-2478.5 2148.5,-2478.5 2148.5,-2442.5 2041.5,-2442.5"/>
<text text-anchor="start" x="2049.5" y="-2456.8" font-family="monospace" font-size="14.00">EX_Jump 771</text>
</g>
<!-- ExecuteUbergraph_UI_Bar_Inventory__799&#45;&gt;ExecuteUbergraph_UI_Bar_Inventory__822 -->
<g id="edge27" class="edge">
<title>ExecuteUbergraph_UI_Bar_Inventory__799&#45;&gt;ExecuteUbergraph_UI_Bar_Inventory__822</title>
<path fill="none" stroke="black" d="M2095,-2516.53C2095,-2507.92 2095,-2498.25 2095,-2489.46"/>
<polygon fill="black" stroke="black" points="2098.5,-2489.69 2095,-2479.69 2091.5,-2489.69 2098.5,-2489.69"/>
</g>
<!-- ExecuteUbergraph_UI_Bar_Inventory__822&#45;&gt;ExecuteUbergraph_UI_Bar_Inventory__771 -->
<g id="edge28" class="edge">
<title>ExecuteUbergraph_UI_Bar_Inventory__822&#45;&gt;ExecuteUbergraph_UI_Bar_Inventory__771</title>
<path fill="none" stroke="black" d="M2095,-2442.82C2095,-2434.9 2095,-2425.09 2095,-2415.57"/>
<polygon fill="black" stroke="black" points="2098.5,-2415.74 2095,-2405.74 2091.5,-2415.74 2098.5,-2415.74"/>
</g>
<!-- ExecuteUbergraph_UI_Bar_Inventory__827 -->
<g id="node30" class="node">
<title>ExecuteUbergraph_UI_Bar_Inventory__827</title>
<polygon fill="#eeeeee" stroke="black" points="2041.5,-2608.5 2041.5,-2644.5 2148.5,-2644.5 2148.5,-2608.5 2041.5,-2608.5"/>
<text text-anchor="start" x="2049.5" y="-2622.8" font-family="monospace" font-size="14.00">EX_Jump 799</text>
</g>
<!-- ExecuteUbergraph_UI_Bar_Inventory__827&#45;&gt;ExecuteUbergraph_UI_Bar_Inventory__799 -->
<g id="edge29" class="edge">
<title>ExecuteUbergraph_UI_Bar_Inventory__827&#45;&gt;ExecuteUbergraph_UI_Bar_Inventory__799</title>
<path fill="none" stroke="black" d="M2095,-2608.61C2095,-2600.44 2095,-2590.28 2095,-2580.46"/>
<polygon fill="black" stroke="black" points="2098.5,-2580.74 2095,-2570.74 2091.5,-2580.74 2098.5,-2580.74"/>
</g>
<!-- ExecuteUbergraph_UI_Bar_Inventory__834 -->
<g id="node32" class="node">
<title>ExecuteUbergraph_UI_Bar_Inventory__834</title>
<polygon fill="#eeeeee" stroke="black" points="1763,-2852.5 1763,-2888.5 1895,-2888.5 1895,-2852.5 1763,-2852.5"/>
<text text-anchor="start" x="1771" y="-2866.8" font-family="monospace" font-size="14.00">EX_EndOfScript</text>
</g>
<!-- PreConstruct -->
<g id="node33" class="node">
<title>PreConstruct</title>
<polygon fill="#ff8888" stroke="black" points="1513,-3042.5 1513,-3095.5 1983,-3095.5 1983,-3042.5 1513,-3042.5"/>
<text text-anchor="start" x="1521" y="-3080.3" font-family="monospace" font-size="14.00">Function PreConstruct</text>
<text text-anchor="start" x="1521" y="-3065.3" font-family="monospace" font-size="14.00">  BoolProperty IsDesignTime</text>
<text text-anchor="start" x="1521" y="-3050.3" font-family="monospace" font-size="14.00">    CPF_BlueprintVisible|CPF_BlueprintReadOnly|CPF_Parm</text>
</g>
<!-- PreConstruct__0 -->
<g id="node34" class="node">
<title>PreConstruct__0</title>
<polygon fill="#eeeeee" stroke="black" points="1508.5,-2795.5 1508.5,-2833.5 1987.5,-2833.5 1987.5,-2795.5 1508.5,-2795.5"/>
<text text-anchor="start" x="1516.5" y="-2818.3" font-family="monospace" font-size="14.00">EX_LetValueOnPersistentFrame [K2Node_Event_IsDesignTime]</text>
<text text-anchor="start" x="1516.5" y="-2803.3" font-family="monospace" font-size="14.00">  EX_LocalVariable [IsDesignTime]</text>
</g>
<!-- PreConstruct&#45;&gt;PreConstruct__0 -->
<g id="edge30" class="edge">
<title>PreConstruct&#45;&gt;PreConstruct__0</title>
<path fill="none" stroke="black" d="M1748,-3042.87C1748,-2995.73 1748,-2894.34 1748,-2844.44"/>
<polygon fill="black" stroke="black" points="1751.5,-2844.72 1748,-2834.72 1744.5,-2844.72 1751.5,-2844.72"/>
</g>
<!-- PreConstruct__18 -->
<g id="node35" class="node">
<title>PreConstruct__18</title>
<polygon fill="#eeeeee" stroke="black" points="1401.5,-2683.5 1401.5,-2721.5 2094.5,-2721.5 2094.5,-2683.5 1401.5,-2683.5"/>
<text text-anchor="start" x="1409.5" y="-2706.3" font-family="monospace" font-size="14.00">EX_LocalFinalFunction export UI_Bar_Inventory_C&#45;&gt;ExecuteUbergraph_UI_Bar_Inventory</text>
<text text-anchor="start" x="1409.5" y="-2691.3" font-family="monospace" font-size="14.00">  EX_IntConst 827</text>
</g>
<!-- PreConstruct__0&#45;&gt;PreConstruct__18 -->
<g id="edge31" class="edge">
<title>PreConstruct__0&#45;&gt;PreConstruct__18</title>
<path fill="none" stroke="black" d="M1748,-2795.83C1748,-2778.85 1748,-2752.88 1748,-2732.81"/>
<polygon fill="black" stroke="black" points="1751.5,-2733.01 1748,-2723.01 1744.5,-2733.01 1751.5,-2733.01"/>
</g>
<!-- PreConstruct__18&#45;&gt;ExecuteUbergraph_UI_Bar_Inventory__827 -->
<g id="edge32" class="edge">
<title>PreConstruct__18:e&#45;&gt;ExecuteUbergraph_UI_Bar_Inventory__827</title>
<path fill="none" stroke="red" d="M2096,-2702.5C2115.65,-2702.5 2111.79,-2676.45 2105.31,-2655.05"/>
<polygon fill="none" stroke="red" points="2108.63,-2653.97 2102.16,-2645.58 2101.99,-2656.17 2108.63,-2653.97"/>
</g>
<!-- PreConstruct__33 -->
<g id="node36" class="node">
<title>PreConstruct__33</title>
<polygon fill="#eeeeee" stroke="black" points="1690,-2607.5 1690,-2645.5 1806,-2645.5 1806,-2607.5 1690,-2607.5"/>
<text text-anchor="start" x="1698" y="-2630.3" font-family="monospace" font-size="14.00">EX_Return</text>
<text text-anchor="start" x="1698" y="-2615.3" font-family="monospace" font-size="14.00">  EX_Nothing</text>
</g>
<!-- PreConstruct__18&#45;&gt;PreConstruct__33 -->
<g id="edge33" class="edge">
<title>PreConstruct__18&#45;&gt;PreConstruct__33</title>
<path fill="none" stroke="black" d="M1748,-2683.59C1748,-2675.5 1748,-2665.73 1748,-2656.63"/>
<polygon fill="black" stroke="black" points="1751.5,-2656.76 1748,-2646.76 1744.5,-2656.76 1751.5,-2656.76"/>
</g>
<!-- PreConstruct__35 -->
<g id="node37" class="node">
<title>PreConstruct__35</title>
<polygon fill="#eeeeee" stroke="black" points="1763,-2740.5 1763,-2776.5 1895,-2776.5 1895,-2740.5 1763,-2740.5"/>
<text text-anchor="start" x="1771" y="-2754.8" font-family="monospace" font-size="14.00">EX_EndOfScript</text>
</g>
</g>
</svg>
