<?xml version="1.0" encoding="UTF-8" standalone="no"?>
<!DOCTYPE svg PUBLIC "-//W3C//DTD SVG 1.1//EN"
 "http://www.w3.org/Graphics/SVG/1.1/DTD/svg11.dtd">
<!-- Generated by graphviz version 7.0.1 (0)
 -->
<!-- Pages: 1 -->
<svg width="2940pt" height="1517pt"
 viewBox="0.00 0.00 2939.50 1517.00" xmlns="http://www.w3.org/2000/svg" xmlns:xlink="http://www.w3.org/1999/xlink">
<g id="graph0" class="graph" transform="scale(1 1) rotate(0) translate(4 1513)">
<polygon fill="white" stroke="none" points="-4,4 -4,-1513 2935.5,-1513 2935.5,4 -4,4"/>
<!-- UI_Bar_BackgroundMenu_Item_C -->
<g id="node1" class="node">
<title>UI_Bar_BackgroundMenu_Item_C</title>
<polygon fill="#88ff88" stroke="black" points="0,-1305.5 0,-1508.5 850,-1508.5 850,-1305.5 0,-1305.5"/>
<text text-anchor="start" x="8" y="-1493.3" font-family="monospace" font-size="14.00">ClassExport: UI_Bar_BackgroundMenu_Item_C</text>
<text text-anchor="start" x="8" y="-1478.3" font-family="monospace" font-size="14.00">  SuperStruct: import /Script/FSD&#45;&gt;BarMenuWidget</text>
<text text-anchor="start" x="8" y="-1463.3" font-family="monospace" font-size="14.00">  Properties:</text>
<text text-anchor="start" x="8" y="-1448.3" font-family="monospace" font-size="14.00">    StructProperty UberGraphFrame</text>
<text text-anchor="start" x="8" y="-1433.3" font-family="monospace" font-size="14.00">      CPF_Transient|CPF_DuplicateTransient</text>
<text text-anchor="start" x="8" y="-1418.3" font-family="monospace" font-size="14.00">    ObjectProperty ImgIcon</text>
<text text-anchor="start" x="8" y="-1403.3" font-family="monospace" font-size="14.00">      CPF_BlueprintVisible|CPF_ExportObject|CPF_InstancedReference|CPF_RepSkip|CPF_PersistentInstance</text>
<text text-anchor="start" x="8" y="-1388.3" font-family="monospace" font-size="14.00">    ObjectProperty LabelName</text>
<text text-anchor="start" x="8" y="-1373.3" font-family="monospace" font-size="14.00">      CPF_BlueprintVisible|CPF_ExportObject|CPF_InstancedReference|CPF_RepSkip|CPF_PersistentInstance</text>
<text text-anchor="start" x="8" y="-1358.3" font-family="monospace" font-size="14.00">    ObjectProperty UI_Bar_DrinkCost</text>
<text text-anchor="start" x="8" y="-1343.3" font-family="monospace" font-size="14.00">      CPF_BlueprintVisible|CPF_ExportObject|CPF_InstancedReference|CPF_RepSkip|CPF_PersistentInstance</text>
<text text-anchor="start" x="8" y="-1328.3" font-family="monospace" font-size="14.00">    ObjectProperty Drinkable</text>
<text text-anchor="start" x="8" y="-1313.3" font-family="monospace" font-size="14.00">      CPF_Edit|CPF_BlueprintVisible|CPF_BlueprintReadOnly|CPF_ExposeOnSpawn</text>
</g>
<!-- ExecuteUbergraph_UI_Bar_BackgroundMenu_Item -->
<g id="node2" class="node">
<title>ExecuteUbergraph_UI_Bar_BackgroundMenu_Item</title>
<polygon fill="#ff8888" stroke="black" points="868,-1343 868,-1471 1338,-1471 1338,-1343 868,-1343"/>
<text text-anchor="start" x="876" y="-1455.8" font-family="monospace" font-size="14.00">Function ExecuteUbergraph_UI_Bar_BackgroundMenu_Item</text>
<text text-anchor="start" x="876" y="-1440.8" font-family="monospace" font-size="14.00">  IntProperty EntryPoint</text>
<text text-anchor="start" x="876" y="-1425.8" font-family="monospace" font-size="14.00">    CPF_BlueprintVisible|CPF_BlueprintReadOnly|CPF_Parm</text>
<text text-anchor="start" x="876" y="-1410.8" font-family="monospace" font-size="14.00">  BoolProperty K2Node_Event_IsDesignTime</text>
<text text-anchor="start" x="876" y="-1395.8" font-family="monospace" font-size="14.00">  ObjectProperty CallFunc_GetDrinkableIcon_ReturnValue</text>
<text text-anchor="start" x="876" y="-1380.8" font-family="monospace" font-size="14.00">  StructProperty CallFunc_MenuColors_OutputColor</text>
<text text-anchor="start" x="876" y="-1365.8" font-family="monospace" font-size="14.00">  TextProperty CallFunc_TextToUpper_ReturnValue</text>
<text text-anchor="start" x="876" y="-1350.8" font-family="monospace" font-size="14.00">  StructProperty K2Node_MakeStruct_SlateColor</text>
</g>
<!-- ExecuteUbergraph_UI_Bar_BackgroundMenu_Item__0 -->
<g id="node3" class="node">
<title>ExecuteUbergraph_UI_Bar_BackgroundMenu_Item__0</title>
<polygon fill="#eeeeee" stroke="black" points="967,-1230.5 967,-1268.5 1239,-1268.5 1239,-1230.5 967,-1230.5"/>
<text text-anchor="start" x="975" y="-1253.3" font-family="monospace" font-size="14.00">EX_ComputedJump</text>
<text text-anchor="start" x="975" y="-1238.3" font-family="monospace" font-size="14.00">  EX_LocalVariable [EntryPoint]</text>
</g>
<!-- ExecuteUbergraph_UI_Bar_BackgroundMenu_Item&#45;&gt;ExecuteUbergraph_UI_Bar_BackgroundMenu_Item__0 -->
<g id="edge1" class="edge">
<title>ExecuteUbergraph_UI_Bar_BackgroundMenu_Item&#45;&gt;ExecuteUbergraph_UI_Bar_BackgroundMenu_Item__0</title>
<path fill="none" stroke="black" d="M1103,-1343.2C1103,-1321.28 1103,-1297.72 1103,-1279.84"/>
<polygon fill="black" stroke="black" points="1106.5,-1279.97 1103,-1269.97 1099.5,-1279.97 1106.5,-1279.97"/>
</g>
<!-- ExecuteUbergraph_UI_Bar_BackgroundMenu_Item__10 -->
<g id="node4" class="node">
<title>ExecuteUbergraph_UI_Bar_BackgroundMenu_Item__10</title>
<polygon fill="#eeeeee" stroke="black" points="2420.5,-1095.5 2420.5,-1193.5 2767.5,-1193.5 2767.5,-1095.5 2420.5,-1095.5"/>
<text text-anchor="start" x="2428.5" y="-1178.3" font-family="monospace" font-size="14.00">EX_Context</text>
<text text-anchor="start" x="2428.5" y="-1163.3" font-family="monospace" font-size="14.00">  EX_InstanceVariable [UI_Bar_DrinkCost]</text>
<text text-anchor="start" x="2428.5" y="-1148.3" font-family="monospace" font-size="14.00">  EX_LocalVirtualFunction ShowCost</text>
<text text-anchor="start" x="2428.5" y="-1133.3" font-family="monospace" font-size="14.00">    EX_InstanceVariable [Drinkable]</text>
<text text-anchor="start" x="2428.5" y="-1118.3" font-family="monospace" font-size="14.00">    EX_False</text>
<text text-anchor="start" x="2428.5" y="-1103.3" font-family="monospace" font-size="14.00">  RValue = []</text>
</g>
<!-- ExecuteUbergraph_UI_Bar_BackgroundMenu_Item__56 -->
<g id="node5" class="node">
<title>ExecuteUbergraph_UI_Bar_BackgroundMenu_Item__56</title>
<polygon fill="#eeeeee" stroke="black" points="2531.5,-316.5 2531.5,-352.5 2638.5,-352.5 2638.5,-316.5 2531.5,-316.5"/>
<text text-anchor="start" x="2539.5" y="-330.8" font-family="monospace" font-size="14.00">EX_Jump 407</text>
</g>
<!-- ExecuteUbergraph_UI_Bar_BackgroundMenu_Item__10&#45;&gt;ExecuteUbergraph_UI_Bar_BackgroundMenu_Item__56 -->
<g id="edge2" class="edge">
<title>ExecuteUbergraph_UI_Bar_BackgroundMenu_Item__10&#45;&gt;ExecuteUbergraph_UI_Bar_BackgroundMenu_Item__56</title>
<path fill="none" stroke="black" d="M2593.43,-1095.57C2592.84,-1041.95 2592,-952.51 2592,-875.5 2592,-875.5 2592,-875.5 2592,-596 2592,-511.31 2588.26,-411.18 2586.24,-363.48"/>
<polygon fill="black" stroke="black" points="2589.75,-363.61 2585.83,-353.77 2582.76,-363.91 2589.75,-363.61"/>
</g>
<!-- ExecuteUbergraph_UI_Bar_BackgroundMenu_Item__407 -->
<g id="node14" class="node">
<title>ExecuteUbergraph_UI_Bar_BackgroundMenu_Item__407</title>
<polygon fill="#eeeeee" stroke="black" points="2359,-0.5 2359,-38.5 2475,-38.5 2475,-0.5 2359,-0.5"/>
<text text-anchor="start" x="2367" y="-23.3" font-family="monospace" font-size="14.00">EX_Return</text>
<text text-anchor="start" x="2367" y="-8.3" font-family="monospace" font-size="14.00">  EX_Nothing</text>
</g>
<!-- ExecuteUbergraph_UI_Bar_BackgroundMenu_Item__56&#45;&gt;ExecuteUbergraph_UI_Bar_BackgroundMenu_Item__407 -->
<g id="edge3" class="edge">
<title>ExecuteUbergraph_UI_Bar_BackgroundMenu_Item__56&#45;&gt;ExecuteUbergraph_UI_Bar_BackgroundMenu_Item__407</title>
<path fill="none" stroke="black" d="M2588.62,-316.54C2597.14,-271.81 2613.69,-149 2557,-75 2539.86,-52.63 2512.24,-39.43 2486.05,-31.65"/>
<polygon fill="black" stroke="black" points="2486.97,-28.27 2476.41,-29.03 2485.14,-35.03 2486.97,-28.27"/>
</g>
<!-- ExecuteUbergraph_UI_Bar_BackgroundMenu_Item__61 -->
<g id="node6" class="node">
<title>ExecuteUbergraph_UI_Bar_BackgroundMenu_Item__61</title>
<polygon fill="#eeeeee" stroke="black" points="1746,-960.5 1746,-1058.5 2398,-1058.5 2398,-960.5 1746,-960.5"/>
<text text-anchor="start" x="1754" y="-1043.3" font-family="monospace" font-size="14.00">EX_LetObj</text>
<text text-anchor="start" x="1754" y="-1028.3" font-family="monospace" font-size="14.00">  EX_LocalVariable [CallFunc_GetDrinkableIcon_ReturnValue]</text>
<text text-anchor="start" x="1754" y="-1013.3" font-family="monospace" font-size="14.00">  EX_Context</text>
<text text-anchor="start" x="1754" y="-998.3" font-family="monospace" font-size="14.00">    EX_InstanceVariable [Drinkable]</text>
<text text-anchor="start" x="1754" y="-983.3" font-family="monospace" font-size="14.00">    EX_FinalFunction import /Script/FSD&#45;&gt;DrinkableDataAsset&#45;&gt;GetDrinkableIcon</text>
<text text-anchor="start" x="1754" y="-968.3" font-family="monospace" font-size="14.00">    RValue = [CallFunc_GetDrinkableIcon_ReturnValue]</text>
</g>
<!-- ExecuteUbergraph_UI_Bar_BackgroundMenu_Item__103 -->
<g id="node7" class="node">
<title>ExecuteUbergraph_UI_Bar_BackgroundMenu_Item__103</title>
<polygon fill="#eeeeee" stroke="black" points="1874,-825.5 1874,-923.5 2386,-923.5 2386,-825.5 1874,-825.5"/>
<text text-anchor="start" x="1882" y="-908.3" font-family="monospace" font-size="14.00">EX_Context</text>
<text text-anchor="start" x="1882" y="-893.3" font-family="monospace" font-size="14.00">  EX_InstanceVariable [ImgIcon]</text>
<text text-anchor="start" x="1882" y="-878.3" font-family="monospace" font-size="14.00">  EX_VirtualFunction SetBrushFromTexture</text>
<text text-anchor="start" x="1882" y="-863.3" font-family="monospace" font-size="14.00">    EX_LocalVariable [CallFunc_GetDrinkableIcon_ReturnValue]</text>
<text text-anchor="start" x="1882" y="-848.3" font-family="monospace" font-size="14.00">    EX_False</text>
<text text-anchor="start" x="1882" y="-833.3" font-family="monospace" font-size="14.00">  RValue = []</text>
</g>
<!-- ExecuteUbergraph_UI_Bar_BackgroundMenu_Item__61&#45;&gt;ExecuteUbergraph_UI_Bar_BackgroundMenu_Item__103 -->
<g id="edge4" class="edge">
<title>ExecuteUbergraph_UI_Bar_BackgroundMenu_Item__61&#45;&gt;ExecuteUbergraph_UI_Bar_BackgroundMenu_Item__103</title>
<path fill="none" stroke="black" d="M2092.78,-960.86C2096.61,-952.07 2100.65,-942.81 2104.6,-933.75"/>
<polygon fill="black" stroke="black" points="2107.78,-935.21 2108.57,-924.64 2101.36,-932.41 2107.78,-935.21"/>
</g>
<!-- ExecuteUbergraph_UI_Bar_BackgroundMenu_Item__149 -->
<g id="node8" class="node">
<title>ExecuteUbergraph_UI_Bar_BackgroundMenu_Item__149</title>
<polygon fill="#eeeeee" stroke="black" points="1874.5,-675.5 1874.5,-788.5 2443.5,-788.5 2443.5,-675.5 1874.5,-675.5"/>
<text text-anchor="start" x="1882.5" y="-773.3" font-family="monospace" font-size="14.00">EX_Let</text>
<text text-anchor="start" x="1882.5" y="-758.3" font-family="monospace" font-size="14.00">  EX_LocalVariable [CallFunc_TextToUpper_ReturnValue]</text>
<text text-anchor="start" x="1882.5" y="-743.3" font-family="monospace" font-size="14.00">  EX_CallMath import /Script/Engine&#45;&gt;KismetTextLibrary&#45;&gt;TextToUpper</text>
<text text-anchor="start" x="1882.5" y="-728.3" font-family="monospace" font-size="14.00">    EX_Context</text>
<text text-anchor="start" x="1882.5" y="-713.3" font-family="monospace" font-size="14.00">      EX_InstanceVariable [Drinkable]</text>
<text text-anchor="start" x="1882.5" y="-698.3" font-family="monospace" font-size="14.00">      EX_InstanceVariable [DrinkableName]</text>
<text text-anchor="start" x="1882.5" y="-683.3" font-family="monospace" font-size="14.00">      RValue = [DrinkableName]</text>
</g>
<!-- ExecuteUbergraph_UI_Bar_BackgroundMenu_Item__103&#45;&gt;ExecuteUbergraph_UI_Bar_BackgroundMenu_Item__149 -->
<g id="edge5" class="edge">
<title>ExecuteUbergraph_UI_Bar_BackgroundMenu_Item__103&#45;&gt;ExecuteUbergraph_UI_Bar_BackgroundMenu_Item__149</title>
<path fill="none" stroke="black" d="M2139.9,-825.54C2141.63,-817.16 2143.46,-808.3 2145.27,-799.52"/>
<polygon fill="black" stroke="black" points="2148.65,-800.47 2147.24,-789.97 2141.79,-799.05 2148.65,-800.47"/>
</g>
<!-- ExecuteUbergraph_UI_Bar_BackgroundMenu_Item__208 -->
<g id="node9" class="node">
<title>ExecuteUbergraph_UI_Bar_BackgroundMenu_Item__208</title>
<polygon fill="#eeeeee" stroke="black" points="1938,-555.5 1938,-638.5 2408,-638.5 2408,-555.5 1938,-555.5"/>
<text text-anchor="start" x="1946" y="-623.3" font-family="monospace" font-size="14.00">EX_Context</text>
<text text-anchor="start" x="1946" y="-608.3" font-family="monospace" font-size="14.00">  EX_InstanceVariable [LabelName]</text>
<text text-anchor="start" x="1946" y="-593.3" font-family="monospace" font-size="14.00">  EX_VirtualFunction SetText</text>
<text text-anchor="start" x="1946" y="-578.3" font-family="monospace" font-size="14.00">    EX_LocalVariable [CallFunc_TextToUpper_ReturnValue]</text>
<text text-anchor="start" x="1946" y="-563.3" font-family="monospace" font-size="14.00">  RValue = []</text>
</g>
<!-- ExecuteUbergraph_UI_Bar_BackgroundMenu_Item__149&#45;&gt;ExecuteUbergraph_UI_Bar_BackgroundMenu_Item__208 -->
<g id="edge6" class="edge">
<title>ExecuteUbergraph_UI_Bar_BackgroundMenu_Item__149&#45;&gt;ExecuteUbergraph_UI_Bar_BackgroundMenu_Item__208</title>
<path fill="none" stroke="black" d="M2164.82,-675.75C2165.72,-667.12 2166.66,-658.22 2167.56,-649.67"/>
<polygon fill="black" stroke="black" points="2171.04,-650.09 2168.6,-639.78 2164.07,-649.36 2171.04,-650.09"/>
</g>
<!-- ExecuteUbergraph_UI_Bar_BackgroundMenu_Item__253 -->
<g id="node10" class="node">
<title>ExecuteUbergraph_UI_Bar_BackgroundMenu_Item__253</title>
<polygon fill="#eeeeee" stroke="black" points="1800.5,-405.5 1800.5,-518.5 2559.5,-518.5 2559.5,-405.5 1800.5,-405.5"/>
<text text-anchor="start" x="1808.5" y="-503.3" font-family="monospace" font-size="14.00">EX_Context</text>
<text text-anchor="start" x="1808.5" y="-488.3" font-family="monospace" font-size="14.00">  EX_ObjectConst import /Game/UI/Art/WidgetParts/LIB_MenuColors&#45;&gt;Default__LIB_MenuColors_C</text>
<text text-anchor="start" x="1808.5" y="-473.3" font-family="monospace" font-size="14.00">  EX_LocalVirtualFunction MenuColors</text>
<text text-anchor="start" x="1808.5" y="-458.3" font-family="monospace" font-size="14.00">    EX_ByteConst 0</text>
<text text-anchor="start" x="1808.5" y="-443.3" font-family="monospace" font-size="14.00">    EX_Self</text>
<text text-anchor="start" x="1808.5" y="-428.3" font-family="monospace" font-size="14.00">    EX_LocalVariable [CallFunc_MenuColors_OutputColor]</text>
<text text-anchor="start" x="1808.5" y="-413.3" font-family="monospace" font-size="14.00">  RValue = []</text>
</g>
<!-- ExecuteUbergraph_UI_Bar_BackgroundMenu_Item__208&#45;&gt;ExecuteUbergraph_UI_Bar_BackgroundMenu_Item__253 -->
<g id="edge7" class="edge">
<title>ExecuteUbergraph_UI_Bar_BackgroundMenu_Item__208&#45;&gt;ExecuteUbergraph_UI_Bar_BackgroundMenu_Item__253</title>
<path fill="none" stroke="black" d="M2175.12,-555.73C2175.55,-547.46 2176.02,-538.53 2176.49,-529.6"/>
<polygon fill="black" stroke="black" points="2179.98,-530.02 2177.01,-519.85 2172.99,-529.66 2179.98,-530.02"/>
</g>
<!-- ExecuteUbergraph_UI_Bar_BackgroundMenu_Item__301 -->
<g id="node11" class="node">
<title>ExecuteUbergraph_UI_Bar_BackgroundMenu_Item__301</title>
<polygon fill="#eeeeee" stroke="black" points="2002,-300.5 2002,-368.5 2448,-368.5 2448,-300.5 2002,-300.5"/>
<text text-anchor="start" x="2010" y="-353.3" font-family="monospace" font-size="14.00">EX_Let</text>
<text text-anchor="start" x="2010" y="-338.3" font-family="monospace" font-size="14.00">  EX_StructMemberContext [SpecifiedColor]</text>
<text text-anchor="start" x="2010" y="-323.3" font-family="monospace" font-size="14.00">    EX_LocalVariable [K2Node_MakeStruct_SlateColor]</text>
<text text-anchor="start" x="2010" y="-308.3" font-family="monospace" font-size="14.00">  EX_LocalVariable [CallFunc_MenuColors_OutputColor]</text>
</g>
<!-- ExecuteUbergraph_UI_Bar_BackgroundMenu_Item__253&#45;&gt;ExecuteUbergraph_UI_Bar_BackgroundMenu_Item__301 -->
<g id="edge8" class="edge">
<title>ExecuteUbergraph_UI_Bar_BackgroundMenu_Item__253&#45;&gt;ExecuteUbergraph_UI_Bar_BackgroundMenu_Item__301</title>
<path fill="none" stroke="black" d="M2199.87,-405.59C2203.08,-396.63 2206.36,-387.47 2209.45,-378.85"/>
<polygon fill="black" stroke="black" points="2212.65,-380.3 2212.73,-369.71 2206.06,-377.94 2212.65,-380.3"/>
</g>
<!-- ExecuteUbergraph_UI_Bar_BackgroundMenu_Item__337 -->
<g id="node12" class="node">
<title>ExecuteUbergraph_UI_Bar_BackgroundMenu_Item__337</title>
<polygon fill="#eeeeee" stroke="black" points="2029.5,-195.5 2029.5,-263.5 2466.5,-263.5 2466.5,-195.5 2029.5,-195.5"/>
<text text-anchor="start" x="2037.5" y="-248.3" font-family="monospace" font-size="14.00">EX_Let</text>
<text text-anchor="start" x="2037.5" y="-233.3" font-family="monospace" font-size="14.00">  EX_StructMemberContext [ColorUseRule]</text>
<text text-anchor="start" x="2037.5" y="-218.3" font-family="monospace" font-size="14.00">    EX_LocalVariable [K2Node_MakeStruct_SlateColor]</text>
<text text-anchor="start" x="2037.5" y="-203.3" font-family="monospace" font-size="14.00">  EX_ByteConst 0</text>
</g>
<!-- ExecuteUbergraph_UI_Bar_BackgroundMenu_Item__301&#45;&gt;ExecuteUbergraph_UI_Bar_BackgroundMenu_Item__337 -->
<g id="edge9" class="edge">
<title>ExecuteUbergraph_UI_Bar_BackgroundMenu_Item__301&#45;&gt;ExecuteUbergraph_UI_Bar_BackgroundMenu_Item__337</title>
<path fill="none" stroke="black" d="M2232.34,-300.63C2234.19,-292.36 2236.2,-283.35 2238.15,-274.63"/>
<polygon fill="black" stroke="black" points="2241.56,-275.41 2240.32,-264.89 2234.73,-273.89 2241.56,-275.41"/>
</g>
<!-- ExecuteUbergraph_UI_Bar_BackgroundMenu_Item__366 -->
<g id="node13" class="node">
<title>ExecuteUbergraph_UI_Bar_BackgroundMenu_Item__366</title>
<polygon fill="#eeeeee" stroke="black" points="1970,-75.5 1970,-158.5 2548,-158.5 2548,-75.5 1970,-75.5"/>
<text text-anchor="start" x="1978" y="-143.3" font-family="monospace" font-size="14.00">EX_Context</text>
<text text-anchor="start" x="1978" y="-128.3" font-family="monospace" font-size="14.00">  EX_InstanceVariable [LabelName]</text>
<text text-anchor="start" x="1978" y="-113.3" font-family="monospace" font-size="14.00">  EX_FinalFunction import /Script/UMG&#45;&gt;TextBlock&#45;&gt;SetColorAndOpacity</text>
<text text-anchor="start" x="1978" y="-98.3" font-family="monospace" font-size="14.00">    EX_LocalVariable [K2Node_MakeStruct_SlateColor]</text>
<text text-anchor="start" x="1978" y="-83.3" font-family="monospace" font-size="14.00">  RValue = []</text>
</g>
<!-- ExecuteUbergraph_UI_Bar_BackgroundMenu_Item__337&#45;&gt;ExecuteUbergraph_UI_Bar_BackgroundMenu_Item__366 -->
<g id="edge10" class="edge">
<title>ExecuteUbergraph_UI_Bar_BackgroundMenu_Item__337&#45;&gt;ExecuteUbergraph_UI_Bar_BackgroundMenu_Item__366</title>
<path fill="none" stroke="black" d="M2251.27,-195.65C2252.08,-187.51 2252.97,-178.59 2253.84,-169.78"/>
<polygon fill="black" stroke="black" points="2257.32,-170.16 2254.83,-159.86 2250.36,-169.47 2257.32,-170.16"/>
</g>
<!-- ExecuteUbergraph_UI_Bar_BackgroundMenu_Item__366&#45;&gt;ExecuteUbergraph_UI_Bar_BackgroundMenu_Item__407 -->
<g id="edge11" class="edge">
<title>ExecuteUbergraph_UI_Bar_BackgroundMenu_Item__366&#45;&gt;ExecuteUbergraph_UI_Bar_BackgroundMenu_Item__407</title>
<path fill="none" stroke="black" d="M2325.55,-75.78C2343.43,-64.97 2362.18,-53.63 2378.02,-44.06"/>
<polygon fill="black" stroke="black" points="2379.42,-47.3 2386.17,-39.13 2375.8,-41.31 2379.42,-47.3"/>
</g>
<!-- ExecuteUbergraph_UI_Bar_BackgroundMenu_Item__409 -->
<g id="node15" class="node">
<title>ExecuteUbergraph_UI_Bar_BackgroundMenu_Item__409</title>
<polygon fill="#eeeeee" stroke="black" points="2620,-856.5 2620,-892.5 2752,-892.5 2752,-856.5 2620,-856.5"/>
<text text-anchor="start" x="2628" y="-870.8" font-family="monospace" font-size="14.00">EX_EndOfScript</text>
</g>
<!-- Construct -->
<g id="node16" class="node">
<title>Construct</title>
<polygon fill="#ff8888" stroke="black" points="2195.5,-1389 2195.5,-1425 2360.5,-1425 2360.5,-1389 2195.5,-1389"/>
<text text-anchor="start" x="2203.5" y="-1403.3" font-family="monospace" font-size="14.00">Function Construct</text>
</g>
<!-- Construct__0 -->
<g id="node17" class="node">
<title>Construct__0</title>
<polygon fill="#eeeeee" stroke="black" points="1849,-1230.5 1849,-1268.5 2707,-1268.5 2707,-1230.5 1849,-1230.5"/>
<text text-anchor="start" x="1857" y="-1253.3" font-family="monospace" font-size="14.00">EX_LocalFinalFunction export UI_Bar_BackgroundMenu_Item_C&#45;&gt;ExecuteUbergraph_UI_Bar_BackgroundMenu_Item</text>
<text text-anchor="start" x="1857" y="-1238.3" font-family="monospace" font-size="14.00">  EX_IntConst 10</text>
</g>
<!-- Construct&#45;&gt;Construct__0 -->
<g id="edge12" class="edge">
<title>Construct&#45;&gt;Construct__0</title>
<path fill="none" stroke="black" d="M2278,-1389.06C2278,-1362.82 2278,-1312 2278,-1279.74"/>
<polygon fill="black" stroke="black" points="2281.5,-1279.88 2278,-1269.88 2274.5,-1279.88 2281.5,-1279.88"/>
</g>
<!-- Construct__0&#45;&gt;ExecuteUbergraph_UI_Bar_BackgroundMenu_Item__10 -->
<g id="edge13" class="edge">
<title>Construct__0:e&#45;&gt;ExecuteUbergraph_UI_Bar_BackgroundMenu_Item__10</title>
<path fill="none" stroke="red" d="M2708,-1249.5C2716.68,-1249.5 2711.08,-1237.66 2707,-1230 2701.35,-1219.41 2693.72,-1209.78 2685.09,-1201.12"/>
<polygon fill="none" stroke="red" points="2687.69,-1198.77 2678,-1194.49 2682.91,-1203.88 2687.69,-1198.77"/>
</g>
<!-- Construct__15 -->
<g id="node18" class="node">
<title>Construct__15</title>
<polygon fill="#eeeeee" stroke="black" points="2220,-1125.5 2220,-1163.5 2336,-1163.5 2336,-1125.5 2220,-1125.5"/>
<text text-anchor="start" x="2228" y="-1148.3" font-family="monospace" font-size="14.00">EX_Return</text>
<text text-anchor="start" x="2228" y="-1133.3" font-family="monospace" font-size="14.00">  EX_Nothing</text>
</g>
<!-- Construct__0&#45;&gt;Construct__15 -->
<g id="edge14" class="edge">
<title>Construct__0&#45;&gt;Construct__15</title>
<path fill="none" stroke="black" d="M2278,-1230.56C2278,-1215.12 2278,-1192.57 2278,-1174.56"/>
<polygon fill="black" stroke="black" points="2281.5,-1174.75 2278,-1164.75 2274.5,-1174.75 2281.5,-1174.75"/>
</g>
<!-- Construct__17 -->
<g id="node19" class="node">
<title>Construct__17</title>
<polygon fill="#eeeeee" stroke="black" points="2620,-714 2620,-750 2752,-750 2752,-714 2620,-714"/>
<text text-anchor="start" x="2628" y="-728.3" font-family="monospace" font-size="14.00">EX_EndOfScript</text>
</g>
<!-- PreConstruct -->
<g id="node20" class="node">
<title>PreConstruct</title>
<polygon fill="#ff8888" stroke="black" points="1356,-1380.5 1356,-1433.5 1826,-1433.5 1826,-1380.5 1356,-1380.5"/>
<text text-anchor="start" x="1364" y="-1418.3" font-family="monospace" font-size="14.00">Function PreConstruct</text>
<text text-anchor="start" x="1364" y="-1403.3" font-family="monospace" font-size="14.00">  BoolProperty IsDesignTime</text>
<text text-anchor="start" x="1364" y="-1388.3" font-family="monospace" font-size="14.00">    CPF_BlueprintVisible|CPF_BlueprintReadOnly|CPF_Parm</text>
</g>
<!-- PreConstruct__0 -->
<g id="node21" class="node">
<title>PreConstruct__0</title>
<polygon fill="#eeeeee" stroke="black" points="1351.5,-1230.5 1351.5,-1268.5 1830.5,-1268.5 1830.5,-1230.5 1351.5,-1230.5"/>
<text text-anchor="start" x="1359.5" y="-1253.3" font-family="monospace" font-size="14.00">EX_LetValueOnPersistentFrame [K2Node_Event_IsDesignTime]</text>
<text text-anchor="start" x="1359.5" y="-1238.3" font-family="monospace" font-size="14.00">  EX_LocalVariable [IsDesignTime]</text>
</g>
<!-- PreConstruct&#45;&gt;PreConstruct__0 -->
<g id="edge15" class="edge">
<title>PreConstruct&#45;&gt;PreConstruct__0</title>
<path fill="none" stroke="black" d="M1591,-1380.67C1591,-1352.96 1591,-1308.62 1591,-1279.52"/>
<polygon fill="black" stroke="black" points="1594.5,-1279.6 1591,-1269.6 1587.5,-1279.6 1594.5,-1279.6"/>
</g>
<!-- PreConstruct__18 -->
<g id="node22" class="node">
<title>PreConstruct__18</title>
<polygon fill="#eeeeee" stroke="black" points="1164,-1125.5 1164,-1163.5 2022,-1163.5 2022,-1125.5 1164,-1125.5"/>
<text text-anchor="start" x="1172" y="-1148.3" font-family="monospace" font-size="14.00">EX_LocalFinalFunction export UI_Bar_BackgroundMenu_Item_C&#45;&gt;ExecuteUbergraph_UI_Bar_BackgroundMenu_Item</text>
<text text-anchor="start" x="1172" y="-1133.3" font-family="monospace" font-size="14.00">  EX_IntConst 61</text>
</g>
<!-- PreConstruct__0&#45;&gt;PreConstruct__18 -->
<g id="edge16" class="edge">
<title>PreConstruct__0&#45;&gt;PreConstruct__18</title>
<path fill="none" stroke="black" d="M1591.35,-1230.56C1591.65,-1215.12 1592.09,-1192.57 1592.44,-1174.56"/>
<polygon fill="black" stroke="black" points="1595.93,-1174.81 1592.63,-1164.75 1588.93,-1174.68 1595.93,-1174.81"/>
</g>
<!-- PreConstruct__18&#45;&gt;ExecuteUbergraph_UI_Bar_BackgroundMenu_Item__61 -->
<g id="edge17" class="edge">
<title>PreConstruct__18:e&#45;&gt;ExecuteUbergraph_UI_Bar_BackgroundMenu_Item__61</title>
<path fill="none" stroke="red" d="M2023,-1144.5C2057.09,-1144.5 2068.69,-1105.78 2072.12,-1069.97"/>
<polygon fill="none" stroke="red" points="2075.61,-1070.24 2072.86,-1060.01 2068.63,-1069.72 2075.61,-1070.24"/>
</g>
<!-- PreConstruct__33 -->
<g id="node23" class="node">
<title>PreConstruct__33</title>
<polygon fill="#eeeeee" stroke="black" points="1535,-990.5 1535,-1028.5 1651,-1028.5 1651,-990.5 1535,-990.5"/>
<text text-anchor="start" x="1543" y="-1013.3" font-family="monospace" font-size="14.00">EX_Return</text>
<text text-anchor="start" x="1543" y="-998.3" font-family="monospace" font-size="14.00">  EX_Nothing</text>
</g>
<!-- PreConstruct__18&#45;&gt;PreConstruct__33 -->
<g id="edge18" class="edge">
<title>PreConstruct__18&#45;&gt;PreConstruct__33</title>
<path fill="none" stroke="black" d="M1593,-1125.56C1593,-1103.53 1593,-1065.85 1593,-1039.64"/>
<polygon fill="black" stroke="black" points="1596.5,-1039.67 1593,-1029.67 1589.5,-1039.67 1596.5,-1039.67"/>
</g>
<!-- PreConstruct__35 -->
<g id="node24" class="node">
<title>PreConstruct__35</title>
<polygon fill="#eeeeee" stroke="black" points="2620,-579 2620,-615 2752,-615 2752,-579 2620,-579"/>
<text text-anchor="start" x="2628" y="-593.3" font-family="monospace" font-size="14.00">EX_EndOfScript</text>
</g>
<!-- Set Drinkable shown price -->
<g id="node25" class="node">
<title>Set Drinkable shown price</title>
<polygon fill="#ff8888" stroke="black" points="2634.5,-1389 2634.5,-1425 2931.5,-1425 2931.5,-1389 2634.5,-1389"/>
<text text-anchor="start" x="2642.5" y="-1403.3" font-family="monospace" font-size="14.00">Function Set Drinkable shown price</text>
</g>
<!-- Set Drinkable shown price__0 -->
<g id="node26" class="node">
<title>Set Drinkable shown price__0</title>
<polygon fill="#eeeeee" stroke="black" points="2725,-1230.5 2725,-1268.5 2841,-1268.5 2841,-1230.5 2725,-1230.5"/>
<text text-anchor="start" x="2733" y="-1253.3" font-family="monospace" font-size="14.00">EX_Return</text>
<text text-anchor="start" x="2733" y="-1238.3" font-family="monospace" font-size="14.00">  EX_Nothing</text>
</g>
<!-- Set Drinkable shown price&#45;&gt;Set Drinkable shown price__0 -->
<g id="edge19" class="edge">
<title>Set Drinkable shown price&#45;&gt;Set Drinkable shown price__0</title>
<path fill="none" stroke="black" d="M2783,-1389.06C2783,-1362.82 2783,-1312 2783,-1279.74"/>
<polygon fill="black" stroke="black" points="2786.5,-1279.88 2783,-1269.88 2779.5,-1279.88 2786.5,-1279.88"/>
</g>
<!-- Set Drinkable shown price__2 -->
<g id="node27" class="node">
<title>Set Drinkable shown price__2</title>
<polygon fill="#eeeeee" stroke="black" points="2620,-444 2620,-480 2752,-480 2752,-444 2620,-444"/>
<text text-anchor="start" x="2628" y="-458.3" font-family="monospace" font-size="14.00">EX_EndOfScript</text>
</g>
</g>
</svg>
