<?xml version="1.0" encoding="UTF-8" standalone="no"?>
<!DOCTYPE svg PUBLIC "-//W3C//DTD SVG 1.1//EN"
 "http://www.w3.org/Graphics/SVG/1.1/DTD/svg11.dtd">
<!-- Generated by graphviz version 7.0.1 (0)
 -->
<!-- Pages: 1 -->
<svg width="1584pt" height="707pt"
 viewBox="0.00 0.00 1583.50 707.00" xmlns="http://www.w3.org/2000/svg" xmlns:xlink="http://www.w3.org/1999/xlink">
<g id="graph0" class="graph" transform="scale(1 1) rotate(0) translate(4 703)">
<polygon fill="white" stroke="none" points="-4,4 -4,-703 1579.5,-703 1579.5,4 -4,4"/>
<!-- ABP_Donkey_C -->
<g id="node1" class="node">
<title>ABP_Donkey_C</title>
<polygon fill="#88ff88" stroke="black" points="0,-195.5 0,-698.5 545,-698.5 545,-195.5 0,-195.5"/>
<text text-anchor="start" x="8" y="-683.3" font-family="monospace" font-size="14.00">ClassExport: ABP_Donkey_C</text>
<text text-anchor="start" x="8" y="-668.3" font-family="monospace" font-size="14.00">  SuperStruct: import /Script/FSD&#45;&gt;SimpleMovingEnemyAnimInstance</text>
<text text-anchor="start" x="8" y="-653.3" font-family="monospace" font-size="14.00">  Properties:</text>
<text text-anchor="start" x="8" y="-638.3" font-family="monospace" font-size="14.00">    StructProperty UberGraphFrame</text>
<text text-anchor="start" x="8" y="-623.3" font-family="monospace" font-size="14.00">      CPF_Transient|CPF_DuplicateTransient</text>
<text text-anchor="start" x="8" y="-608.3" font-family="monospace" font-size="14.00">    StructProperty AnimGraphNode_Root</text>
<text text-anchor="start" x="8" y="-593.3" font-family="monospace" font-size="14.00">    StructProperty AnimGraphNode_TransitionResult_7</text>
<text text-anchor="start" x="8" y="-578.3" font-family="monospace" font-size="14.00">    StructProperty AnimGraphNode_TransitionResult_6</text>
<text text-anchor="start" x="8" y="-563.3" font-family="monospace" font-size="14.00">    StructProperty AnimGraphNode_TransitionResult_5</text>
<text text-anchor="start" x="8" y="-548.3" font-family="monospace" font-size="14.00">    StructProperty AnimGraphNode_TransitionResult_4</text>
<text text-anchor="start" x="8" y="-533.3" font-family="monospace" font-size="14.00">    StructProperty AnimGraphNode_TransitionResult_3</text>
<text text-anchor="start" x="8" y="-518.3" font-family="monospace" font-size="14.00">    StructProperty AnimGraphNode_TransitionResult_2</text>
<text text-anchor="start" x="8" y="-503.3" font-family="monospace" font-size="14.00">    StructProperty AnimGraphNode_TransitionResult_1</text>
<text text-anchor="start" x="8" y="-488.3" font-family="monospace" font-size="14.00">    StructProperty AnimGraphNode_TransitionResult</text>
<text text-anchor="start" x="8" y="-473.3" font-family="monospace" font-size="14.00">    StructProperty AnimGraphNode_SequenceEvaluator_1</text>
<text text-anchor="start" x="8" y="-458.3" font-family="monospace" font-size="14.00">    StructProperty AnimGraphNode_StateResult_6</text>
<text text-anchor="start" x="8" y="-443.3" font-family="monospace" font-size="14.00">    StructProperty AnimGraphNode_SequencePlayer_4</text>
<text text-anchor="start" x="8" y="-428.3" font-family="monospace" font-size="14.00">    StructProperty AnimGraphNode_StateResult_5</text>
<text text-anchor="start" x="8" y="-413.3" font-family="monospace" font-size="14.00">    StructProperty AnimGraphNode_SequencePlayer_3</text>
<text text-anchor="start" x="8" y="-398.3" font-family="monospace" font-size="14.00">    StructProperty AnimGraphNode_StateResult_4</text>
<text text-anchor="start" x="8" y="-383.3" font-family="monospace" font-size="14.00">    StructProperty AnimGraphNode_SequencePlayer_2</text>
<text text-anchor="start" x="8" y="-368.3" font-family="monospace" font-size="14.00">    StructProperty AnimGraphNode_StateResult_3</text>
<text text-anchor="start" x="8" y="-353.3" font-family="monospace" font-size="14.00">    StructProperty AnimGraphNode_SequencePlayer_1</text>
<text text-anchor="start" x="8" y="-338.3" font-family="monospace" font-size="14.00">    StructProperty AnimGraphNode_StateResult_2</text>
<text text-anchor="start" x="8" y="-323.3" font-family="monospace" font-size="14.00">    StructProperty AnimGraphNode_SequencePlayer</text>
<text text-anchor="start" x="8" y="-308.3" font-family="monospace" font-size="14.00">    StructProperty AnimGraphNode_StateResult_1</text>
<text text-anchor="start" x="8" y="-293.3" font-family="monospace" font-size="14.00">    StructProperty AnimGraphNode_SequenceEvaluator</text>
<text text-anchor="start" x="8" y="-278.3" font-family="monospace" font-size="14.00">    StructProperty AnimGraphNode_StateResult</text>
<text text-anchor="start" x="8" y="-263.3" font-family="monospace" font-size="14.00">    StructProperty AnimGraphNode_StateMachine</text>
<text text-anchor="start" x="8" y="-248.3" font-family="monospace" font-size="14.00">    BoolProperty IsDown</text>
<text text-anchor="start" x="8" y="-233.3" font-family="monospace" font-size="14.00">      CPF_Edit|CPF_BlueprintVisible|CPF_DisableEditOnInstance</text>
<text text-anchor="start" x="8" y="-218.3" font-family="monospace" font-size="14.00">    BoolProperty IsTrayOpen</text>
<text text-anchor="start" x="8" y="-203.3" font-family="monospace" font-size="14.00">      CPF_Edit|CPF_BlueprintVisible|CPF_DisableEditOnInstance</text>
</g>
<!-- ExecuteUbergraph_ABP_Donkey -->
<g id="node2" class="node">
<title>ExecuteUbergraph_ABP_Donkey</title>
<polygon fill="#ff8888" stroke="black" points="563.5,-420.5 563.5,-473.5 1033.5,-473.5 1033.5,-420.5 563.5,-420.5"/>
<text text-anchor="start" x="571.5" y="-458.3" font-family="monospace" font-size="14.00">Function ExecuteUbergraph_ABP_Donkey</text>
<text text-anchor="start" x="571.5" y="-443.3" font-family="monospace" font-size="14.00">  IntProperty EntryPoint</text>
<text text-anchor="start" x="571.5" y="-428.3" font-family="monospace" font-size="14.00">    CPF_BlueprintVisible|CPF_BlueprintReadOnly|CPF_Parm</text>
</g>
<!-- ExecuteUbergraph_ABP_Donkey__0 -->
<g id="node3" class="node">
<title>ExecuteUbergraph_ABP_Donkey__0</title>
<polygon fill="#eeeeee" stroke="black" points="662.5,-98 662.5,-136 934.5,-136 934.5,-98 662.5,-98"/>
<text text-anchor="start" x="670.5" y="-120.8" font-family="monospace" font-size="14.00">EX_ComputedJump</text>
<text text-anchor="start" x="670.5" y="-105.8" font-family="monospace" font-size="14.00">  EX_LocalVariable [EntryPoint]</text>
</g>
<!-- ExecuteUbergraph_ABP_Donkey&#45;&gt;ExecuteUbergraph_ABP_Donkey__0 -->
<g id="edge1" class="edge">
<title>ExecuteUbergraph_ABP_Donkey&#45;&gt;ExecuteUbergraph_ABP_Donkey__0</title>
<path fill="none" stroke="black" d="M798.5,-420.54C798.5,-360.56 798.5,-210.72 798.5,-147.2"/>
<polygon fill="black" stroke="black" points="802,-147.21 798.5,-137.21 795,-147.21 802,-147.21"/>
</g>
<!-- ExecuteUbergraph_ABP_Donkey__10 -->
<g id="node4" class="node">
<title>ExecuteUbergraph_ABP_Donkey__10</title>
<polygon fill="#eeeeee" stroke="black" points="1117.5,-0.5 1117.5,-38.5 1233.5,-38.5 1233.5,-0.5 1117.5,-0.5"/>
<text text-anchor="start" x="1125.5" y="-23.3" font-family="monospace" font-size="14.00">EX_Return</text>
<text text-anchor="start" x="1125.5" y="-8.3" font-family="monospace" font-size="14.00">  EX_Nothing</text>
</g>
<!-- ExecuteUbergraph_ABP_Donkey__12 -->
<g id="node5" class="node">
<title>ExecuteUbergraph_ABP_Donkey__12</title>
<polygon fill="#eeeeee" stroke="black" points="952.5,-99 952.5,-135 1084.5,-135 1084.5,-99 952.5,-99"/>
<text text-anchor="start" x="960.5" y="-113.3" font-family="monospace" font-size="14.00">EX_EndOfScript</text>
</g>
<!-- AnimGraph -->
<g id="node6" class="node">
<title>AnimGraph</title>
<polygon fill="#ff8888" stroke="black" points="1194,-420.5 1194,-473.5 1425,-473.5 1425,-420.5 1194,-420.5"/>
<text text-anchor="start" x="1202" y="-458.3" font-family="monospace" font-size="14.00">Function AnimGraph</text>
<text text-anchor="start" x="1202" y="-443.3" font-family="monospace" font-size="14.00">  StructProperty AnimGraph</text>
<text text-anchor="start" x="1202" y="-428.3" font-family="monospace" font-size="14.00">    CPF_Parm|CPF_OutParm</text>
</g>
<!-- AnimGraph__0 -->
<g id="node7" class="node">
<title>AnimGraph__0</title>
<polygon fill="#eeeeee" stroke="black" points="1103,-75.5 1103,-158.5 1516,-158.5 1516,-75.5 1103,-75.5"/>
<text text-anchor="start" x="1111" y="-143.3" font-family="monospace" font-size="14.00">EX_Let</text>
<text text-anchor="start" x="1111" y="-128.3" font-family="monospace" font-size="14.00">  EX_LocalOutVariable</text>
<text text-anchor="start" x="1111" y="-113.3" font-family="monospace" font-size="14.00">    [AnimGraph]</text>
<text text-anchor="start" x="1111" y="-98.3" font-family="monospace" font-size="14.00">  EX_StructConst import /Script/Engine&#45;&gt;PoseLink</text>
<text text-anchor="start" x="1111" y="-83.3" font-family="monospace" font-size="14.00">    EX_IntConst &#45;1</text>
</g>
<!-- AnimGraph&#45;&gt;AnimGraph__0 -->
<g id="edge2" class="edge">
<title>AnimGraph&#45;&gt;AnimGraph__0</title>
<path fill="none" stroke="black" d="M1309.5,-420.54C1309.5,-366.85 1309.5,-241.16 1309.5,-169.83"/>
<polygon fill="black" stroke="black" points="1313,-169.96 1309.5,-159.96 1306,-169.96 1313,-169.96"/>
</g>
<!-- AnimGraph__37 -->
<g id="node8" class="node">
<title>AnimGraph__37</title>
<polygon fill="#eeeeee" stroke="black" points="1251.5,-0.5 1251.5,-38.5 1367.5,-38.5 1367.5,-0.5 1251.5,-0.5"/>
<text text-anchor="start" x="1259.5" y="-23.3" font-family="monospace" font-size="14.00">EX_Return</text>
<text text-anchor="start" x="1259.5" y="-8.3" font-family="monospace" font-size="14.00">  EX_Nothing</text>
</g>
<!-- AnimGraph__0&#45;&gt;AnimGraph__37 -->
<g id="edge3" class="edge">
<title>AnimGraph__0&#45;&gt;AnimGraph__37</title>
<path fill="none" stroke="black" d="M1309.5,-75.78C1309.5,-67.01 1309.5,-57.89 1309.5,-49.65"/>
<polygon fill="black" stroke="black" points="1313,-49.86 1309.5,-39.86 1306,-49.86 1313,-49.86"/>
</g>
<!-- AnimGraph__39 -->
<g id="node9" class="node">
<title>AnimGraph__39</title>
<polygon fill="#eeeeee" stroke="black" points="1443.5,-429 1443.5,-465 1575.5,-465 1575.5,-429 1443.5,-429"/>
<text text-anchor="start" x="1451.5" y="-443.3" font-family="monospace" font-size="14.00">EX_EndOfScript</text>
</g>
</g>
</svg>
