<?xml version="1.0" encoding="UTF-8" standalone="no"?>
<!DOCTYPE svg PUBLIC "-//W3C//DTD SVG 1.1//EN"
 "http://www.w3.org/Graphics/SVG/1.1/DTD/svg11.dtd">
<!-- Generated by graphviz version 7.0.1 (0)
 -->
<!-- Pages: 1 -->
<svg width="2470pt" height="1725pt"
 viewBox="0.00 0.00 2469.50 1725.00" xmlns="http://www.w3.org/2000/svg" xmlns:xlink="http://www.w3.org/1999/xlink">
<g id="graph0" class="graph" transform="scale(1 1) rotate(0) translate(4 1721)">
<polygon fill="white" stroke="none" points="-4,4 -4,-1721 2465.5,-1721 2465.5,4 -4,4"/>
<!-- AIC_Donkey_C -->
<g id="node1" class="node">
<title>AIC_Donkey_C</title>
<polygon fill="#88ff88" stroke="black" points="0,-1566 0,-1649 429,-1649 429,-1566 0,-1566"/>
<text text-anchor="start" x="8" y="-1633.8" font-family="monospace" font-size="14.00">ClassExport: AIC_Donkey_C</text>
<text text-anchor="start" x="8" y="-1618.8" font-family="monospace" font-size="14.00">  SuperStruct: import /Script/FSD&#45;&gt;FSDAIController</text>
<text text-anchor="start" x="8" y="-1603.8" font-family="monospace" font-size="14.00">  Properties:</text>
<text text-anchor="start" x="8" y="-1588.8" font-family="monospace" font-size="14.00">    StructProperty UberGraphFrame</text>
<text text-anchor="start" x="8" y="-1573.8" font-family="monospace" font-size="14.00">      CPF_Transient|CPF_DuplicateTransient</text>
</g>
<!-- ExecuteUbergraph_AIC_Donkey -->
<g id="node2" class="node">
<title>ExecuteUbergraph_AIC_Donkey</title>
<polygon fill="#ff8888" stroke="black" points="447.5,-1498.5 447.5,-1716.5 917.5,-1716.5 917.5,-1498.5 447.5,-1498.5"/>
<text text-anchor="start" x="455.5" y="-1701.3" font-family="monospace" font-size="14.00">Function ExecuteUbergraph_AIC_Donkey</text>
<text text-anchor="start" x="455.5" y="-1686.3" font-family="monospace" font-size="14.00">  IntProperty EntryPoint</text>
<text text-anchor="start" x="455.5" y="-1671.3" font-family="monospace" font-size="14.00">    CPF_BlueprintVisible|CPF_BlueprintReadOnly|CPF_Parm</text>
<text text-anchor="start" x="455.5" y="-1656.3" font-family="monospace" font-size="14.00">  BoolProperty CallFunc_HasAuthority_ReturnValue</text>
<text text-anchor="start" x="455.5" y="-1641.3" font-family="monospace" font-size="14.00">  DelegateProperty K2Node_CreateDelegate_OutputDelegate</text>
<text text-anchor="start" x="455.5" y="-1626.3" font-family="monospace" font-size="14.00">  BoolProperty CallFunc_RunBehaviorTree_ReturnValue</text>
<text text-anchor="start" x="455.5" y="-1611.3" font-family="monospace" font-size="14.00">  ObjectProperty CallFunc_K2_GetPawn_ReturnValue</text>
<text text-anchor="start" x="455.5" y="-1596.3" font-family="monospace" font-size="14.00">  IntProperty K2Node_CustomEvent_OverlapCount</text>
<text text-anchor="start" x="455.5" y="-1581.3" font-family="monospace" font-size="14.00">  ObjectProperty K2Node_DynamicCast_AsBP_Donkey</text>
<text text-anchor="start" x="455.5" y="-1566.3" font-family="monospace" font-size="14.00">  BoolProperty K2Node_DynamicCast_bSuccess</text>
<text text-anchor="start" x="455.5" y="-1551.3" font-family="monospace" font-size="14.00">  BoolProperty CallFunc_Greater_IntInt_ReturnValue</text>
<text text-anchor="start" x="455.5" y="-1536.3" font-family="monospace" font-size="14.00">  ObjectProperty CallFunc_GetBlackboard_ReturnValue</text>
<text text-anchor="start" x="455.5" y="-1521.3" font-family="monospace" font-size="14.00">    CPF_InstancedReference</text>
<text text-anchor="start" x="455.5" y="-1506.3" font-family="monospace" font-size="14.00">  NameProperty CallFunc_MakeLiteralName_ReturnValue</text>
</g>
<!-- ExecuteUbergraph_AIC_Donkey__0 -->
<g id="node3" class="node">
<title>ExecuteUbergraph_AIC_Donkey__0</title>
<polygon fill="#eeeeee" stroke="black" points="575,-1387.5 575,-1423.5 790,-1423.5 790,-1387.5 575,-1387.5"/>
<text text-anchor="start" x="583" y="-1401.8" font-family="monospace" font-size="14.00">EX_PushExecutionFlow 454</text>
</g>
<!-- ExecuteUbergraph_AIC_Donkey&#45;&gt;ExecuteUbergraph_AIC_Donkey__0 -->
<g id="edge1" class="edge">
<title>ExecuteUbergraph_AIC_Donkey&#45;&gt;ExecuteUbergraph_AIC_Donkey__0</title>
<path fill="none" stroke="black" d="M682.5,-1498.6C682.5,-1474.84 682.5,-1451.69 682.5,-1434.54"/>
<polygon fill="black" stroke="black" points="686,-1434.7 682.5,-1424.7 679,-1434.7 686,-1434.7"/>
</g>
<!-- ExecuteUbergraph_AIC_Donkey__5 -->
<g id="node4" class="node">
<title>ExecuteUbergraph_AIC_Donkey__5</title>
<polygon fill="#eeeeee" stroke="black" points="494.5,-1274.5 494.5,-1312.5 766.5,-1312.5 766.5,-1274.5 494.5,-1274.5"/>
<text text-anchor="start" x="502.5" y="-1297.3" font-family="monospace" font-size="14.00">EX_ComputedJump</text>
<text text-anchor="start" x="502.5" y="-1282.3" font-family="monospace" font-size="14.00">  EX_LocalVariable [EntryPoint]</text>
</g>
<!-- ExecuteUbergraph_AIC_Donkey__0&#45;&gt;ExecuteUbergraph_AIC_Donkey__5 -->
<g id="edge3" class="edge">
<title>ExecuteUbergraph_AIC_Donkey__0&#45;&gt;ExecuteUbergraph_AIC_Donkey__5</title>
<path fill="none" stroke="black" d="M674.6,-1387.79C666.46,-1370.57 653.62,-1343.41 643.89,-1322.83"/>
<polygon fill="black" stroke="black" points="647.08,-1321.38 639.64,-1313.83 640.75,-1324.37 647.08,-1321.38"/>
</g>
<!-- ExecuteUbergraph_AIC_Donkey__454 -->
<g id="node24" class="node">
<title>ExecuteUbergraph_AIC_Donkey__454</title>
<polygon fill="#eeeeee" stroke="black" points="784.5,-1274.5 784.5,-1312.5 900.5,-1312.5 900.5,-1274.5 784.5,-1274.5"/>
<text text-anchor="start" x="792.5" y="-1297.3" font-family="monospace" font-size="14.00">EX_Return</text>
<text text-anchor="start" x="792.5" y="-1282.3" font-family="monospace" font-size="14.00">  EX_Nothing</text>
</g>
<!-- ExecuteUbergraph_AIC_Donkey__0&#45;&gt;ExecuteUbergraph_AIC_Donkey__454 -->
<g id="edge2" class="edge">
<title>ExecuteUbergraph_AIC_Donkey__0:e&#45;&gt;ExecuteUbergraph_AIC_Donkey__454</title>
<path fill="none" stroke="red" d="M791.5,-1405.5C800.87,-1405.5 795.73,-1394.58 799.5,-1386 808.97,-1364.48 820.3,-1340.42 828.95,-1322.38"/>
<polygon fill="none" stroke="red" points="831.99,-1324.15 833.17,-1313.63 825.68,-1321.12 831.99,-1324.15"/>
<text text-anchor="middle" x="866" y="-1345.8" font-family="monospace" font-size="14.00">PUSH STACK</text>
</g>
<!-- ExecuteUbergraph_AIC_Donkey__15 -->
<g id="node5" class="node">
<title>ExecuteUbergraph_AIC_Donkey__15</title>
<polygon fill="#eeeeee" stroke="black" points="888.5,-210.5 888.5,-338.5 1408.5,-338.5 1408.5,-210.5 888.5,-210.5"/>
<text text-anchor="start" x="896.5" y="-323.3" font-family="monospace" font-size="14.00">EX_CallMath import /Script/Engine&#45;&gt;KismetSystemLibrary&#45;&gt;Delay</text>
<text text-anchor="start" x="896.5" y="-308.3" font-family="monospace" font-size="14.00">  EX_Self</text>
<text text-anchor="start" x="896.5" y="-293.3" font-family="monospace" font-size="14.00">  EX_FloatConst 0.2</text>
<text text-anchor="start" x="896.5" y="-278.3" font-family="monospace" font-size="14.00">  EX_StructConst import /Script/Engine&#45;&gt;LatentActionInfo</text>
<text text-anchor="start" x="896.5" y="-263.3" font-family="monospace" font-size="14.00">    EX_SkipOffsetConst 70</text>
<text text-anchor="start" x="896.5" y="-248.3" font-family="monospace" font-size="14.00">    EX_IntConst 333176166</text>
<text text-anchor="start" x="896.5" y="-233.3" font-family="monospace" font-size="14.00">    EX_NameConst ExecuteUbergraph_AIC_Donkey</text>
<text text-anchor="start" x="896.5" y="-218.3" font-family="monospace" font-size="14.00">    EX_Self</text>
</g>
<!-- ExecuteUbergraph_AIC_Donkey__69 -->
<g id="node6" class="node">
<title>ExecuteUbergraph_AIC_Donkey__69</title>
<polygon fill="#eeeeee" stroke="black" points="1062,-105.5 1062,-141.5 1235,-141.5 1235,-105.5 1062,-105.5"/>
<text text-anchor="start" x="1070" y="-119.8" font-family="monospace" font-size="14.00">EX_PopExecutionFlow</text>
</g>
<!-- ExecuteUbergraph_AIC_Donkey__15&#45;&gt;ExecuteUbergraph_AIC_Donkey__69 -->
<g id="edge5" class="edge">
<title>ExecuteUbergraph_AIC_Donkey__15&#45;&gt;ExecuteUbergraph_AIC_Donkey__69</title>
<path fill="none" stroke="black" d="M1148.5,-210.74C1148.5,-190.59 1148.5,-169.26 1148.5,-152.85"/>
<polygon fill="black" stroke="black" points="1152,-152.88 1148.5,-142.88 1145,-152.88 1152,-152.88"/>
</g>
<!-- ExecuteUbergraph_AIC_Donkey__70 -->
<g id="node7" class="node">
<title>ExecuteUbergraph_AIC_Donkey__70</title>
<polygon fill="#eeeeee" stroke="black" points="1130,-678.5 1130,-731.5 1675,-731.5 1675,-678.5 1130,-678.5"/>
<text text-anchor="start" x="1138" y="-716.3" font-family="monospace" font-size="14.00">EX_LetObj</text>
<text text-anchor="start" x="1138" y="-701.3" font-family="monospace" font-size="14.00">  EX_LocalVariable [CallFunc_K2_GetPawn_ReturnValue]</text>
<text text-anchor="start" x="1138" y="-686.3" font-family="monospace" font-size="14.00">  EX_FinalFunction import /Script/Engine&#45;&gt;Controller&#45;&gt;K2_GetPawn</text>
</g>
<!-- ExecuteUbergraph_AIC_Donkey__15&#45;&gt;ExecuteUbergraph_AIC_Donkey__70 -->
<g id="edge4" class="edge">
<title>ExecuteUbergraph_AIC_Donkey__15:e&#45;&gt;ExecuteUbergraph_AIC_Donkey__70</title>
<path fill="none" stroke="red" d="M1409.5,-274.5C1439.58,-274.5 1390.5,-378.42 1390.5,-408.5 1390.5,-607.5 1390.5,-607.5 1390.5,-607.5 1390.5,-627.44 1393.05,-649.53 1395.81,-667.53"/>
<polygon fill="none" stroke="red" points="1392.32,-667.9 1397.38,-677.22 1399.23,-666.78 1392.32,-667.9"/>
</g>
<!-- ExecuteUbergraph_AIC_Donkey__90 -->
<g id="node8" class="node">
<title>ExecuteUbergraph_AIC_Donkey__90</title>
<polygon fill="#eeeeee" stroke="black" points="1419,-572.5 1419,-640.5 2030,-640.5 2030,-572.5 1419,-572.5"/>
<text text-anchor="start" x="1427" y="-625.3" font-family="monospace" font-size="14.00">EX_Let</text>
<text text-anchor="start" x="1427" y="-610.3" font-family="monospace" font-size="14.00">  EX_LocalVariable [K2Node_DynamicCast_AsBP_Donkey]</text>
<text text-anchor="start" x="1427" y="-595.3" font-family="monospace" font-size="14.00">  EX_DynamicCast import /Game/GameElements/Donkey/BP_Donkey&#45;&gt;BP_Donkey_C</text>
<text text-anchor="start" x="1427" y="-580.3" font-family="monospace" font-size="14.00">    EX_LocalVariable [CallFunc_K2_GetPawn_ReturnValue]</text>
</g>
<!-- ExecuteUbergraph_AIC_Donkey__70&#45;&gt;ExecuteUbergraph_AIC_Donkey__90 -->
<g id="edge6" class="edge">
<title>ExecuteUbergraph_AIC_Donkey__70&#45;&gt;ExecuteUbergraph_AIC_Donkey__90</title>
<path fill="none" stroke="black" d="M1487.52,-678.52C1523.12,-667.85 1565.14,-655.26 1603.84,-643.66"/>
<polygon fill="black" stroke="black" points="1604.64,-647.08 1613.21,-640.85 1602.63,-640.37 1604.64,-647.08"/>
</g>
<!-- ExecuteUbergraph_AIC_Donkey__126 -->
<g id="node9" class="node">
<title>ExecuteUbergraph_AIC_Donkey__126</title>
<polygon fill="#eeeeee" stroke="black" points="1490.5,-466.5 1490.5,-534.5 1944.5,-534.5 1944.5,-466.5 1490.5,-466.5"/>
<text text-anchor="start" x="1498.5" y="-519.3" font-family="monospace" font-size="14.00">EX_Let</text>
<text text-anchor="start" x="1498.5" y="-504.3" font-family="monospace" font-size="14.00">  EX_LocalVariable [K2Node_DynamicCast_bSuccess]</text>
<text text-anchor="start" x="1498.5" y="-489.3" font-family="monospace" font-size="14.00">  EX_PrimitiveCast ObjectToBool</text>
<text text-anchor="start" x="1498.5" y="-474.3" font-family="monospace" font-size="14.00">    EX_LocalVariable [K2Node_DynamicCast_AsBP_Donkey]</text>
</g>
<!-- ExecuteUbergraph_AIC_Donkey__90&#45;&gt;ExecuteUbergraph_AIC_Donkey__126 -->
<g id="edge7" class="edge">
<title>ExecuteUbergraph_AIC_Donkey__90&#45;&gt;ExecuteUbergraph_AIC_Donkey__126</title>
<path fill="none" stroke="black" d="M1722.29,-572.59C1721.7,-563.97 1721.07,-554.54 1720.46,-545.45"/>
<polygon fill="black" stroke="black" points="1723.97,-545.44 1719.8,-535.7 1716.98,-545.91 1723.97,-545.44"/>
</g>
<!-- ExecuteUbergraph_AIC_Donkey__155 -->
<g id="node10" class="node">
<title>ExecuteUbergraph_AIC_Donkey__155</title>
<polygon fill="#eeeeee" stroke="black" points="1473,-390.5 1473,-428.5 1886,-428.5 1886,-390.5 1473,-390.5"/>
<text text-anchor="start" x="1481" y="-413.3" font-family="monospace" font-size="14.00">EX_JumpIfNot 15</text>
<text text-anchor="start" x="1481" y="-398.3" font-family="monospace" font-size="14.00">  EX_LocalVariable [K2Node_DynamicCast_bSuccess]</text>
</g>
<!-- ExecuteUbergraph_AIC_Donkey__126&#45;&gt;ExecuteUbergraph_AIC_Donkey__155 -->
<g id="edge8" class="edge">
<title>ExecuteUbergraph_AIC_Donkey__126&#45;&gt;ExecuteUbergraph_AIC_Donkey__155</title>
<path fill="none" stroke="black" d="M1703.46,-466.61C1699.56,-457.49 1695.37,-447.67 1691.6,-438.83"/>
<polygon fill="black" stroke="black" points="1694.84,-437.51 1687.69,-429.68 1688.4,-440.25 1694.84,-437.51"/>
</g>
<!-- ExecuteUbergraph_AIC_Donkey__155&#45;&gt;ExecuteUbergraph_AIC_Donkey__15 -->
<g id="edge9" class="edge">
<title>ExecuteUbergraph_AIC_Donkey__155:e&#45;&gt;ExecuteUbergraph_AIC_Donkey__15</title>
<path fill="none" stroke="red" d="M1887.5,-409.5C1896.18,-409.5 1892.24,-396.51 1886.5,-390 1830.94,-327.06 1783.85,-367.1 1700.5,-357 1579.35,-342.32 1547.26,-356.64 1426.5,-339 1424.16,-338.66 1421.8,-338.31 1419.44,-337.94"/>
<polygon fill="none" stroke="red" points="1420.25,-334.53 1409.83,-336.43 1419.16,-341.44 1420.25,-334.53"/>
<text text-anchor="middle" x="1891.5" y="-360.8" font-family="monospace" font-size="14.00">IF NOT</text>
</g>
<!-- ExecuteUbergraph_AIC_Donkey__169 -->
<g id="node11" class="node">
<title>ExecuteUbergraph_AIC_Donkey__169</title>
<polygon fill="#eeeeee" stroke="black" points="1436,-248 1436,-301 1923,-301 1923,-248 1436,-248"/>
<text text-anchor="start" x="1444" y="-285.8" font-family="monospace" font-size="14.00">EX_BindDelegate OnOverlapsChanged</text>
<text text-anchor="start" x="1444" y="-270.8" font-family="monospace" font-size="14.00">  EX_LocalVariable [K2Node_CreateDelegate_OutputDelegate]</text>
<text text-anchor="start" x="1444" y="-255.8" font-family="monospace" font-size="14.00">  EX_Self</text>
</g>
<!-- ExecuteUbergraph_AIC_Donkey__155&#45;&gt;ExecuteUbergraph_AIC_Donkey__169 -->
<g id="edge10" class="edge">
<title>ExecuteUbergraph_AIC_Donkey__155&#45;&gt;ExecuteUbergraph_AIC_Donkey__169</title>
<path fill="none" stroke="black" d="M1679.5,-390.56C1679.5,-370.61 1679.5,-337.83 1679.5,-312.35"/>
<polygon fill="black" stroke="black" points="1683,-312.38 1679.5,-302.38 1676,-312.38 1683,-312.38"/>
<text text-anchor="middle" x="1688" y="-360.8" font-family="monospace" font-size="14.00">IF</text>
</g>
<!-- ExecuteUbergraph_AIC_Donkey__192 -->
<g id="node12" class="node">
<title>ExecuteUbergraph_AIC_Donkey__192</title>
<polygon fill="#eeeeee" stroke="black" points="1436,-74.5 1436,-172.5 1923,-172.5 1923,-74.5 1436,-74.5"/>
<text text-anchor="start" x="1444" y="-157.3" font-family="monospace" font-size="14.00">EX_AddMulticastDelegate</text>
<text text-anchor="start" x="1444" y="-142.3" font-family="monospace" font-size="14.00">  EX_Context</text>
<text text-anchor="start" x="1444" y="-127.3" font-family="monospace" font-size="14.00">    EX_LocalVariable [K2Node_DynamicCast_AsBP_Donkey]</text>
<text text-anchor="start" x="1444" y="-112.3" font-family="monospace" font-size="14.00">    EX_InstanceVariable [PlayerOverlapsChanged]</text>
<text text-anchor="start" x="1444" y="-97.3" font-family="monospace" font-size="14.00">    RValue = [PlayerOverlapsChanged]</text>
<text text-anchor="start" x="1444" y="-82.3" font-family="monospace" font-size="14.00">  EX_LocalVariable [K2Node_CreateDelegate_OutputDelegate]</text>
</g>
<!-- ExecuteUbergraph_AIC_Donkey__169&#45;&gt;ExecuteUbergraph_AIC_Donkey__192 -->
<g id="edge11" class="edge">
<title>ExecuteUbergraph_AIC_Donkey__169&#45;&gt;ExecuteUbergraph_AIC_Donkey__192</title>
<path fill="none" stroke="black" d="M1679.5,-248.22C1679.5,-230.55 1679.5,-206.18 1679.5,-183.74"/>
<polygon fill="black" stroke="black" points="1683,-183.74 1679.5,-173.74 1676,-183.74 1683,-183.74"/>
</g>
<!-- ExecuteUbergraph_AIC_Donkey__233 -->
<g id="node13" class="node">
<title>ExecuteUbergraph_AIC_Donkey__233</title>
<polygon fill="#eeeeee" stroke="black" points="1593,-0.5 1593,-36.5 1766,-36.5 1766,-0.5 1593,-0.5"/>
<text text-anchor="start" x="1601" y="-14.8" font-family="monospace" font-size="14.00">EX_PopExecutionFlow</text>
</g>
<!-- ExecuteUbergraph_AIC_Donkey__192&#45;&gt;ExecuteUbergraph_AIC_Donkey__233 -->
<g id="edge12" class="edge">
<title>ExecuteUbergraph_AIC_Donkey__192&#45;&gt;ExecuteUbergraph_AIC_Donkey__233</title>
<path fill="none" stroke="black" d="M1679.5,-74.62C1679.5,-65.44 1679.5,-56.11 1679.5,-47.8"/>
<polygon fill="black" stroke="black" points="1683,-48 1679.5,-38 1676,-48 1683,-48"/>
</g>
<!-- ExecuteUbergraph_AIC_Donkey__234 -->
<g id="node14" class="node">
<title>ExecuteUbergraph_AIC_Donkey__234</title>
<polygon fill="#eeeeee" stroke="black" points="1142.5,-1132.5 1142.5,-1185.5 1662.5,-1185.5 1662.5,-1132.5 1142.5,-1132.5"/>
<text text-anchor="start" x="1150.5" y="-1170.3" font-family="monospace" font-size="14.00">EX_LetBool</text>
<text text-anchor="start" x="1150.5" y="-1155.3" font-family="monospace" font-size="14.00">  EX_LocalVariable [CallFunc_HasAuthority_ReturnValue]</text>
<text text-anchor="start" x="1150.5" y="-1140.3" font-family="monospace" font-size="14.00">  EX_FinalFunction import /Script/Engine&#45;&gt;Actor&#45;&gt;HasAuthority</text>
</g>
<!-- ExecuteUbergraph_AIC_Donkey__254 -->
<g id="node15" class="node">
<title>ExecuteUbergraph_AIC_Donkey__254</title>
<polygon fill="#eeeeee" stroke="black" points="1171.5,-1026.5 1171.5,-1064.5 1633.5,-1064.5 1633.5,-1026.5 1171.5,-1026.5"/>
<text text-anchor="start" x="1179.5" y="-1049.3" font-family="monospace" font-size="14.00">EX_PopExecutionFlowIfNot</text>
<text text-anchor="start" x="1179.5" y="-1034.3" font-family="monospace" font-size="14.00">  EX_LocalVariable [CallFunc_HasAuthority_ReturnValue]</text>
</g>
<!-- ExecuteUbergraph_AIC_Donkey__234&#45;&gt;ExecuteUbergraph_AIC_Donkey__254 -->
<g id="edge13" class="edge">
<title>ExecuteUbergraph_AIC_Donkey__234&#45;&gt;ExecuteUbergraph_AIC_Donkey__254</title>
<path fill="none" stroke="black" d="M1402.5,-1132.7C1402.5,-1115.78 1402.5,-1093.48 1402.5,-1075.79"/>
<polygon fill="black" stroke="black" points="1406,-1075.92 1402.5,-1065.92 1399,-1075.92 1406,-1075.92"/>
</g>
<!-- ExecuteUbergraph_AIC_Donkey__264 -->
<g id="node16" class="node">
<title>ExecuteUbergraph_AIC_Donkey__264</title>
<polygon fill="#eeeeee" stroke="black" points="1097,-905.5 1097,-973.5 1708,-973.5 1708,-905.5 1097,-905.5"/>
<text text-anchor="start" x="1105" y="-958.3" font-family="monospace" font-size="14.00">EX_LetBool</text>
<text text-anchor="start" x="1105" y="-943.3" font-family="monospace" font-size="14.00">  EX_LocalVariable [CallFunc_RunBehaviorTree_ReturnValue]</text>
<text text-anchor="start" x="1105" y="-928.3" font-family="monospace" font-size="14.00">  EX_VirtualFunction RunBehaviorTree</text>
<text text-anchor="start" x="1105" y="-913.3" font-family="monospace" font-size="14.00">    EX_ObjectConst import /Game/GameElements/Donkey/BT_Donkey&#45;&gt;BT_Donkey</text>
</g>
<!-- ExecuteUbergraph_AIC_Donkey__254&#45;&gt;ExecuteUbergraph_AIC_Donkey__264 -->
<g id="edge14" class="edge">
<title>ExecuteUbergraph_AIC_Donkey__254&#45;&gt;ExecuteUbergraph_AIC_Donkey__264</title>
<path fill="none" stroke="black" d="M1402.5,-1026.86C1402.5,-1015.22 1402.5,-999.43 1402.5,-984.53"/>
<polygon fill="black" stroke="black" points="1406,-984.91 1402.5,-974.91 1399,-984.91 1406,-984.91"/>
</g>
<!-- ExecuteUbergraph_AIC_Donkey__297 -->
<g id="node17" class="node">
<title>ExecuteUbergraph_AIC_Donkey__297</title>
<polygon fill="#eeeeee" stroke="black" points="1353,-800.5 1353,-836.5 1452,-836.5 1452,-800.5 1353,-800.5"/>
<text text-anchor="start" x="1361" y="-814.8" font-family="monospace" font-size="14.00">EX_Jump 70</text>
</g>
<!-- ExecuteUbergraph_AIC_Donkey__264&#45;&gt;ExecuteUbergraph_AIC_Donkey__297 -->
<g id="edge15" class="edge">
<title>ExecuteUbergraph_AIC_Donkey__264&#45;&gt;ExecuteUbergraph_AIC_Donkey__297</title>
<path fill="none" stroke="black" d="M1402.5,-905.67C1402.5,-887.53 1402.5,-865.23 1402.5,-847.86"/>
<polygon fill="black" stroke="black" points="1406,-847.99 1402.5,-837.99 1399,-847.99 1406,-847.99"/>
</g>
<!-- ExecuteUbergraph_AIC_Donkey__297&#45;&gt;ExecuteUbergraph_AIC_Donkey__70 -->
<g id="edge16" class="edge">
<title>ExecuteUbergraph_AIC_Donkey__297&#45;&gt;ExecuteUbergraph_AIC_Donkey__70</title>
<path fill="none" stroke="black" d="M1402.5,-800.57C1402.5,-785.26 1402.5,-762.2 1402.5,-742.68"/>
<polygon fill="black" stroke="black" points="1406,-742.9 1402.5,-732.9 1399,-742.9 1406,-742.9"/>
</g>
<!-- ExecuteUbergraph_AIC_Donkey__302 -->
<g id="node18" class="node">
<title>ExecuteUbergraph_AIC_Donkey__302</title>
<polygon fill="#eeeeee" stroke="black" points="1349,-1275.5 1349,-1311.5 1456,-1311.5 1456,-1275.5 1349,-1275.5"/>
<text text-anchor="start" x="1357" y="-1289.8" font-family="monospace" font-size="14.00">EX_Jump 234</text>
</g>
<!-- ExecuteUbergraph_AIC_Donkey__302&#45;&gt;ExecuteUbergraph_AIC_Donkey__234 -->
<g id="edge17" class="edge">
<title>ExecuteUbergraph_AIC_Donkey__302&#45;&gt;ExecuteUbergraph_AIC_Donkey__234</title>
<path fill="none" stroke="black" d="M1402.5,-1275.72C1402.5,-1255.91 1402.5,-1222.4 1402.5,-1196.52"/>
<polygon fill="black" stroke="black" points="1406,-1196.76 1402.5,-1186.76 1399,-1196.76 1406,-1196.76"/>
</g>
<!-- ExecuteUbergraph_AIC_Donkey__307 -->
<g id="node19" class="node">
<title>ExecuteUbergraph_AIC_Donkey__307</title>
<polygon fill="#eeeeee" stroke="black" points="1830.5,-1117.5 1830.5,-1200.5 2424.5,-1200.5 2424.5,-1117.5 1830.5,-1117.5"/>
<text text-anchor="start" x="1838.5" y="-1185.3" font-family="monospace" font-size="14.00">EX_LetBool</text>
<text text-anchor="start" x="1838.5" y="-1170.3" font-family="monospace" font-size="14.00">  EX_LocalVariable [CallFunc_Greater_IntInt_ReturnValue]</text>
<text text-anchor="start" x="1838.5" y="-1155.3" font-family="monospace" font-size="14.00">  EX_CallMath import /Script/Engine&#45;&gt;KismetMathLibrary&#45;&gt;Greater_IntInt</text>
<text text-anchor="start" x="1838.5" y="-1140.3" font-family="monospace" font-size="14.00">    EX_LocalVariable [K2Node_CustomEvent_OverlapCount]</text>
<text text-anchor="start" x="1838.5" y="-1125.3" font-family="monospace" font-size="14.00">    EX_IntConst 0</text>
</g>
<!-- ExecuteUbergraph_AIC_Donkey__341 -->
<g id="node20" class="node">
<title>ExecuteUbergraph_AIC_Donkey__341</title>
<polygon fill="#eeeeee" stroke="black" points="1797.5,-1011.5 1797.5,-1079.5 2457.5,-1079.5 2457.5,-1011.5 1797.5,-1011.5"/>
<text text-anchor="start" x="1805.5" y="-1064.3" font-family="monospace" font-size="14.00">EX_LetObj</text>
<text text-anchor="start" x="1805.5" y="-1049.3" font-family="monospace" font-size="14.00">  EX_LocalVariable [CallFunc_GetBlackboard_ReturnValue]</text>
<text text-anchor="start" x="1805.5" y="-1034.3" font-family="monospace" font-size="14.00">  EX_CallMath import /Script/AIModule&#45;&gt;AIBlueprintHelperLibrary&#45;&gt;GetBlackboard</text>
<text text-anchor="start" x="1805.5" y="-1019.3" font-family="monospace" font-size="14.00">    EX_Self</text>
</g>
<!-- ExecuteUbergraph_AIC_Donkey__307&#45;&gt;ExecuteUbergraph_AIC_Donkey__341 -->
<g id="edge18" class="edge">
<title>ExecuteUbergraph_AIC_Donkey__307&#45;&gt;ExecuteUbergraph_AIC_Donkey__341</title>
<path fill="none" stroke="black" d="M2127.5,-1117.75C2127.5,-1108.98 2127.5,-1099.67 2127.5,-1090.76"/>
<polygon fill="black" stroke="black" points="2131,-1090.88 2127.5,-1080.88 2124,-1090.88 2131,-1090.88"/>
</g>
<!-- ExecuteUbergraph_AIC_Donkey__362 -->
<g id="node21" class="node">
<title>ExecuteUbergraph_AIC_Donkey__362</title>
<polygon fill="#eeeeee" stroke="black" points="1818,-905.5 1818,-973.5 2437,-973.5 2437,-905.5 1818,-905.5"/>
<text text-anchor="start" x="1826" y="-958.3" font-family="monospace" font-size="14.00">EX_Let</text>
<text text-anchor="start" x="1826" y="-943.3" font-family="monospace" font-size="14.00">  EX_LocalVariable [CallFunc_MakeLiteralName_ReturnValue]</text>
<text text-anchor="start" x="1826" y="-928.3" font-family="monospace" font-size="14.00">  EX_CallMath import /Script/Engine&#45;&gt;KismetSystemLibrary&#45;&gt;MakeLiteralName</text>
<text text-anchor="start" x="1826" y="-913.3" font-family="monospace" font-size="14.00">    EX_NameConst OverlapsPlayer</text>
</g>
<!-- ExecuteUbergraph_AIC_Donkey__341&#45;&gt;ExecuteUbergraph_AIC_Donkey__362 -->
<g id="edge19" class="edge">
<title>ExecuteUbergraph_AIC_Donkey__341&#45;&gt;ExecuteUbergraph_AIC_Donkey__362</title>
<path fill="none" stroke="black" d="M2127.5,-1011.59C2127.5,-1002.97 2127.5,-993.54 2127.5,-984.45"/>
<polygon fill="black" stroke="black" points="2131,-984.71 2127.5,-974.71 2124,-984.71 2131,-984.71"/>
</g>
<!-- ExecuteUbergraph_AIC_Donkey__403 -->
<g id="node22" class="node">
<title>ExecuteUbergraph_AIC_Donkey__403</title>
<polygon fill="#eeeeee" stroke="black" points="1793.5,-769.5 1793.5,-867.5 2461.5,-867.5 2461.5,-769.5 1793.5,-769.5"/>
<text text-anchor="start" x="1801.5" y="-852.3" font-family="monospace" font-size="14.00">EX_Context</text>
<text text-anchor="start" x="1801.5" y="-837.3" font-family="monospace" font-size="14.00">  EX_LocalVariable [CallFunc_GetBlackboard_ReturnValue]</text>
<text text-anchor="start" x="1801.5" y="-822.3" font-family="monospace" font-size="14.00">  EX_FinalFunction import /Script/AIModule&#45;&gt;BlackboardComponent&#45;&gt;SetValueAsBool</text>
<text text-anchor="start" x="1801.5" y="-807.3" font-family="monospace" font-size="14.00">    EX_LocalVariable [CallFunc_MakeLiteralName_ReturnValue]</text>
<text text-anchor="start" x="1801.5" y="-792.3" font-family="monospace" font-size="14.00">    EX_LocalVariable [CallFunc_Greater_IntInt_ReturnValue]</text>
<text text-anchor="start" x="1801.5" y="-777.3" font-family="monospace" font-size="14.00">  RValue = []</text>
</g>
<!-- ExecuteUbergraph_AIC_Donkey__362&#45;&gt;ExecuteUbergraph_AIC_Donkey__403 -->
<g id="edge20" class="edge">
<title>ExecuteUbergraph_AIC_Donkey__362&#45;&gt;ExecuteUbergraph_AIC_Donkey__403</title>
<path fill="none" stroke="black" d="M2127.5,-905.67C2127.5,-897.26 2127.5,-887.95 2127.5,-878.65"/>
<polygon fill="black" stroke="black" points="2131,-878.89 2127.5,-868.89 2124,-878.89 2131,-878.89"/>
</g>
<!-- ExecuteUbergraph_AIC_Donkey__453 -->
<g id="node23" class="node">
<title>ExecuteUbergraph_AIC_Donkey__453</title>
<polygon fill="#eeeeee" stroke="black" points="2041,-687 2041,-723 2214,-723 2214,-687 2041,-687"/>
<text text-anchor="start" x="2049" y="-701.3" font-family="monospace" font-size="14.00">EX_PopExecutionFlow</text>
</g>
<!-- ExecuteUbergraph_AIC_Donkey__403&#45;&gt;ExecuteUbergraph_AIC_Donkey__453 -->
<g id="edge21" class="edge">
<title>ExecuteUbergraph_AIC_Donkey__403&#45;&gt;ExecuteUbergraph_AIC_Donkey__453</title>
<path fill="none" stroke="black" d="M2127.5,-769.57C2127.5,-757.47 2127.5,-744.88 2127.5,-734.12"/>
<polygon fill="black" stroke="black" points="2131,-734.39 2127.5,-724.39 2124,-734.4 2131,-734.39"/>
</g>
<!-- ExecuteUbergraph_AIC_Donkey__456 -->
<g id="node25" class="node">
<title>ExecuteUbergraph_AIC_Donkey__456</title>
<polygon fill="#eeeeee" stroke="black" points="1805.5,-1443.5 1805.5,-1479.5 1937.5,-1479.5 1937.5,-1443.5 1805.5,-1443.5"/>
<text text-anchor="start" x="1813.5" y="-1457.8" font-family="monospace" font-size="14.00">EX_EndOfScript</text>
</g>
<!-- OnOverlapsChanged -->
<g id="node26" class="node">
<title>OnOverlapsChanged</title>
<polygon fill="#ff8888" stroke="black" points="1555.5,-1581 1555.5,-1634 2025.5,-1634 2025.5,-1581 1555.5,-1581"/>
<text text-anchor="start" x="1563.5" y="-1618.8" font-family="monospace" font-size="14.00">Function OnOverlapsChanged</text>
<text text-anchor="start" x="1563.5" y="-1603.8" font-family="monospace" font-size="14.00">  IntProperty OverlapCount</text>
<text text-anchor="start" x="1563.5" y="-1588.8" font-family="monospace" font-size="14.00">    CPF_BlueprintVisible|CPF_BlueprintReadOnly|CPF_Parm</text>
</g>
<!-- OnOverlapsChanged__0 -->
<g id="node27" class="node">
<title>OnOverlapsChanged__0</title>
<polygon fill="#eeeeee" stroke="black" points="1526.5,-1386.5 1526.5,-1424.5 2054.5,-1424.5 2054.5,-1386.5 1526.5,-1386.5"/>
<text text-anchor="start" x="1534.5" y="-1409.3" font-family="monospace" font-size="14.00">EX_LetValueOnPersistentFrame [K2Node_CustomEvent_OverlapCount]</text>
<text text-anchor="start" x="1534.5" y="-1394.3" font-family="monospace" font-size="14.00">  EX_LocalVariable [OverlapCount]</text>
</g>
<!-- OnOverlapsChanged&#45;&gt;OnOverlapsChanged__0 -->
<g id="edge22" class="edge">
<title>OnOverlapsChanged&#45;&gt;OnOverlapsChanged__0</title>
<path fill="none" stroke="black" d="M1790.5,-1581.17C1790.5,-1544 1790.5,-1474.87 1790.5,-1435.64"/>
<polygon fill="black" stroke="black" points="1794,-1435.78 1790.5,-1425.78 1787,-1435.78 1794,-1435.78"/>
</g>
<!-- OnOverlapsChanged__18 -->
<g id="node28" class="node">
<title>OnOverlapsChanged__18</title>
<polygon fill="#eeeeee" stroke="black" points="1493.5,-1274.5 1493.5,-1312.5 2087.5,-1312.5 2087.5,-1274.5 1493.5,-1274.5"/>
<text text-anchor="start" x="1501.5" y="-1297.3" font-family="monospace" font-size="14.00">EX_LocalFinalFunction export AIC_Donkey_C&#45;&gt;ExecuteUbergraph_AIC_Donkey</text>
<text text-anchor="start" x="1501.5" y="-1282.3" font-family="monospace" font-size="14.00">  EX_IntConst 307</text>
</g>
<!-- OnOverlapsChanged__0&#45;&gt;OnOverlapsChanged__18 -->
<g id="edge23" class="edge">
<title>OnOverlapsChanged__0&#45;&gt;OnOverlapsChanged__18</title>
<path fill="none" stroke="black" d="M1790.5,-1386.83C1790.5,-1369.85 1790.5,-1343.88 1790.5,-1323.81"/>
<polygon fill="black" stroke="black" points="1794,-1324.01 1790.5,-1314.01 1787,-1324.01 1794,-1324.01"/>
</g>
<!-- OnOverlapsChanged__18&#45;&gt;ExecuteUbergraph_AIC_Donkey__307 -->
<g id="edge24" class="edge">
<title>OnOverlapsChanged__18:e&#45;&gt;ExecuteUbergraph_AIC_Donkey__307</title>
<path fill="none" stroke="red" d="M2088.5,-1293.5C2106.28,-1293.5 2116.51,-1249.32 2121.99,-1211.79"/>
<polygon fill="none" stroke="red" points="2125.46,-1212.3 2123.34,-1201.92 2118.52,-1211.35 2125.46,-1212.3"/>
</g>
<!-- OnOverlapsChanged__33 -->
<g id="node29" class="node">
<title>OnOverlapsChanged__33</title>
<polygon fill="#eeeeee" stroke="black" points="1696.5,-1140 1696.5,-1178 1812.5,-1178 1812.5,-1140 1696.5,-1140"/>
<text text-anchor="start" x="1704.5" y="-1162.8" font-family="monospace" font-size="14.00">EX_Return</text>
<text text-anchor="start" x="1704.5" y="-1147.8" font-family="monospace" font-size="14.00">  EX_Nothing</text>
</g>
<!-- OnOverlapsChanged__18&#45;&gt;OnOverlapsChanged__33 -->
<g id="edge25" class="edge">
<title>OnOverlapsChanged__18&#45;&gt;OnOverlapsChanged__33</title>
<path fill="none" stroke="black" d="M1785.64,-1274.63C1779.65,-1252.58 1769.39,-1214.8 1762.29,-1188.67"/>
<polygon fill="black" stroke="black" points="1765.67,-1187.78 1759.68,-1179.05 1758.92,-1189.61 1765.67,-1187.78"/>
</g>
<!-- OnOverlapsChanged__35 -->
<g id="node30" class="node">
<title>OnOverlapsChanged__35</title>
<polygon fill="#eeeeee" stroke="black" points="1805.5,-1331.5 1805.5,-1367.5 1937.5,-1367.5 1937.5,-1331.5 1805.5,-1331.5"/>
<text text-anchor="start" x="1813.5" y="-1345.8" font-family="monospace" font-size="14.00">EX_EndOfScript</text>
</g>
<!-- ReceiveBeginPlay -->
<g id="node31" class="node">
<title>ReceiveBeginPlay</title>
<polygon fill="#ff8888" stroke="black" points="994,-1589.5 994,-1625.5 1217,-1625.5 1217,-1589.5 994,-1589.5"/>
<text text-anchor="start" x="1002" y="-1603.8" font-family="monospace" font-size="14.00">Function ReceiveBeginPlay</text>
</g>
<!-- ReceiveBeginPlay__0 -->
<g id="node32" class="node">
<title>ReceiveBeginPlay__0</title>
<polygon fill="#eeeeee" stroke="black" points="808.5,-1386.5 808.5,-1424.5 1402.5,-1424.5 1402.5,-1386.5 808.5,-1386.5"/>
<text text-anchor="start" x="816.5" y="-1409.3" font-family="monospace" font-size="14.00">EX_LocalFinalFunction export AIC_Donkey_C&#45;&gt;ExecuteUbergraph_AIC_Donkey</text>
<text text-anchor="start" x="816.5" y="-1394.3" font-family="monospace" font-size="14.00">  EX_IntConst 302</text>
</g>
<!-- ReceiveBeginPlay&#45;&gt;ReceiveBeginPlay__0 -->
<g id="edge26" class="edge">
<title>ReceiveBeginPlay&#45;&gt;ReceiveBeginPlay__0</title>
<path fill="none" stroke="black" d="M1105.5,-1589.79C1105.5,-1555.8 1105.5,-1478.21 1105.5,-1435.69"/>
<polygon fill="black" stroke="black" points="1109,-1435.96 1105.5,-1425.96 1102,-1435.96 1109,-1435.96"/>
</g>
<!-- ReceiveBeginPlay__0&#45;&gt;ExecuteUbergraph_AIC_Donkey__302 -->
<g id="edge27" class="edge">
<title>ReceiveBeginPlay__0:e&#45;&gt;ExecuteUbergraph_AIC_Donkey__302</title>
<path fill="none" stroke="red" d="M1403.5,-1405.5C1436.77,-1405.5 1424.71,-1355.02 1413.33,-1322.14"/>
<polygon fill="none" stroke="red" points="1416.63,-1320.98 1409.93,-1312.78 1410.06,-1323.37 1416.63,-1320.98"/>
</g>
<!-- ReceiveBeginPlay__15 -->
<g id="node33" class="node">
<title>ReceiveBeginPlay__15</title>
<polygon fill="#eeeeee" stroke="black" points="1047.5,-1274.5 1047.5,-1312.5 1163.5,-1312.5 1163.5,-1274.5 1047.5,-1274.5"/>
<text text-anchor="start" x="1055.5" y="-1297.3" font-family="monospace" font-size="14.00">EX_Return</text>
<text text-anchor="start" x="1055.5" y="-1282.3" font-family="monospace" font-size="14.00">  EX_Nothing</text>
</g>
<!-- ReceiveBeginPlay__0&#45;&gt;ReceiveBeginPlay__15 -->
<g id="edge28" class="edge">
<title>ReceiveBeginPlay__0&#45;&gt;ReceiveBeginPlay__15</title>
<path fill="none" stroke="black" d="M1105.5,-1386.83C1105.5,-1369.85 1105.5,-1343.88 1105.5,-1323.81"/>
<polygon fill="black" stroke="black" points="1109,-1324.01 1105.5,-1314.01 1102,-1324.01 1109,-1324.01"/>
</g>
<!-- ReceiveBeginPlay__17 -->
<g id="node34" class="node">
<title>ReceiveBeginPlay__17</title>
<polygon fill="#eeeeee" stroke="black" points="2123.5,-1219.5 2123.5,-1255.5 2255.5,-1255.5 2255.5,-1219.5 2123.5,-1219.5"/>
<text text-anchor="start" x="2131.5" y="-1233.8" font-family="monospace" font-size="14.00">EX_EndOfScript</text>
</g>
</g>
</svg>
