<?xml version="1.0" encoding="UTF-8" standalone="no"?>
<!DOCTYPE svg PUBLIC "-//W3C//DTD SVG 1.1//EN"
 "http://www.w3.org/Graphics/SVG/1.1/DTD/svg11.dtd">
<!-- Generated by graphviz version 7.0.1 (0)
 -->
<!-- Pages: 1 -->
<svg width="2945pt" height="2447pt"
 viewBox="0.00 0.00 2945.00 2447.00" xmlns="http://www.w3.org/2000/svg" xmlns:xlink="http://www.w3.org/1999/xlink">
<g id="graph0" class="graph" transform="scale(1 1) rotate(0) translate(4 2443)">
<polygon fill="white" stroke="none" points="-4,4 -4,-2443 2941,-2443 2941,4 -4,4"/>
<!-- BP_DonkeyDestinationMarker_C -->
<g id="node1" class="node">
<title>BP_DonkeyDestinationMarker_C</title>
<polygon fill="#88ff88" stroke="black" points="0,-2198 0,-2431 594,-2431 594,-2198 0,-2198"/>
<text text-anchor="start" x="8" y="-2415.8" font-family="monospace" font-size="14.00">ClassExport: BP_DonkeyDestinationMarker_C</text>
<text text-anchor="start" x="8" y="-2400.8" font-family="monospace" font-size="14.00">  SuperStruct: import /Script/Engine&#45;&gt;Actor</text>
<text text-anchor="start" x="8" y="-2385.8" font-family="monospace" font-size="14.00">  Properties:</text>
<text text-anchor="start" x="8" y="-2370.8" font-family="monospace" font-size="14.00">    StructProperty UberGraphFrame</text>
<text text-anchor="start" x="8" y="-2355.8" font-family="monospace" font-size="14.00">      CPF_Transient|CPF_DuplicateTransient</text>
<text text-anchor="start" x="8" y="-2340.8" font-family="monospace" font-size="14.00">    ObjectProperty SM_Donkey_DestinationMarker</text>
<text text-anchor="start" x="8" y="-2325.8" font-family="monospace" font-size="14.00">      CPF_BlueprintVisible|CPF_InstancedReference|CPF_NonTransactional</text>
<text text-anchor="start" x="8" y="-2310.8" font-family="monospace" font-size="14.00">    ObjectProperty SM_Light02</text>
<text text-anchor="start" x="8" y="-2295.8" font-family="monospace" font-size="14.00">      CPF_BlueprintVisible|CPF_InstancedReference|CPF_NonTransactional</text>
<text text-anchor="start" x="8" y="-2280.8" font-family="monospace" font-size="14.00">    ObjectProperty Decal</text>
<text text-anchor="start" x="8" y="-2265.8" font-family="monospace" font-size="14.00">      CPF_BlueprintVisible|CPF_InstancedReference|CPF_NonTransactional</text>
<text text-anchor="start" x="8" y="-2250.8" font-family="monospace" font-size="14.00">    ObjectProperty Cube</text>
<text text-anchor="start" x="8" y="-2235.8" font-family="monospace" font-size="14.00">      CPF_BlueprintVisible|CPF_InstancedReference|CPF_NonTransactional</text>
<text text-anchor="start" x="8" y="-2220.8" font-family="monospace" font-size="14.00">    ObjectProperty DefaultSceneRoot</text>
<text text-anchor="start" x="8" y="-2205.8" font-family="monospace" font-size="14.00">      CPF_BlueprintVisible|CPF_InstancedReference|CPF_NonTransactional</text>
</g>
<!-- ExecuteUbergraph_BP_DonkeyDestinationMarker -->
<g id="node2" class="node">
<title>ExecuteUbergraph_BP_DonkeyDestinationMarker</title>
<polygon fill="#ff8888" stroke="black" points="612,-2190.5 612,-2438.5 1124,-2438.5 1124,-2190.5 612,-2190.5"/>
<text text-anchor="start" x="620" y="-2423.3" font-family="monospace" font-size="14.00">Function ExecuteUbergraph_BP_DonkeyDestinationMarker</text>
<text text-anchor="start" x="620" y="-2408.3" font-family="monospace" font-size="14.00">  IntProperty EntryPoint</text>
<text text-anchor="start" x="620" y="-2393.3" font-family="monospace" font-size="14.00">    CPF_BlueprintVisible|CPF_BlueprintReadOnly|CPF_Parm</text>
<text text-anchor="start" x="620" y="-2378.3" font-family="monospace" font-size="14.00">  StructProperty CallFunc_MakeRotator_ReturnValue</text>
<text text-anchor="start" x="620" y="-2363.3" font-family="monospace" font-size="14.00">  StructProperty CallFunc_K2_GetActorLocation_ReturnValue</text>
<text text-anchor="start" x="620" y="-2348.3" font-family="monospace" font-size="14.00">  ObjectProperty CallFunc_SpawnSoundAtLocation_ReturnValue</text>
<text text-anchor="start" x="620" y="-2333.3" font-family="monospace" font-size="14.00">    CPF_InstancedReference</text>
<text text-anchor="start" x="620" y="-2318.3" font-family="monospace" font-size="14.00">  StructProperty CallFunc_K2_GetActorLocation_ReturnValue_1</text>
<text text-anchor="start" x="620" y="-2303.3" font-family="monospace" font-size="14.00">  ObjectProperty CallFunc_SpawnSoundAtLocation_ReturnValue_1</text>
<text text-anchor="start" x="620" y="-2288.3" font-family="monospace" font-size="14.00">    CPF_InstancedReference</text>
<text text-anchor="start" x="620" y="-2273.3" font-family="monospace" font-size="14.00">  StructProperty CallFunc_K2_GetActorLocation_ReturnValue_2</text>
<text text-anchor="start" x="620" y="-2258.3" font-family="monospace" font-size="14.00">  StructProperty K2Node_CustomEvent_Loc</text>
<text text-anchor="start" x="620" y="-2243.3" font-family="monospace" font-size="14.00">  StructProperty CallFunc_K2_SetActorLocation_SweepHitResult</text>
<text text-anchor="start" x="620" y="-2228.3" font-family="monospace" font-size="14.00">    CPF_ContainsInstancedReference</text>
<text text-anchor="start" x="620" y="-2213.3" font-family="monospace" font-size="14.00">  BoolProperty CallFunc_K2_SetActorLocation_ReturnValue</text>
<text text-anchor="start" x="620" y="-2198.3" font-family="monospace" font-size="14.00">  StructProperty CallFunc_MakeRotator_ReturnValue_1</text>
</g>
<!-- ExecuteUbergraph_BP_DonkeyDestinationMarker__0 -->
<g id="node3" class="node">
<title>ExecuteUbergraph_BP_DonkeyDestinationMarker__0</title>
<polygon fill="#eeeeee" stroke="black" points="760.5,-2079.5 760.5,-2115.5 975.5,-2115.5 975.5,-2079.5 760.5,-2079.5"/>
<text text-anchor="start" x="768.5" y="-2093.8" font-family="monospace" font-size="14.00">EX_PushExecutionFlow 571</text>
</g>
<!-- ExecuteUbergraph_BP_DonkeyDestinationMarker&#45;&gt;ExecuteUbergraph_BP_DonkeyDestinationMarker__0 -->
<g id="edge1" class="edge">
<title>ExecuteUbergraph_BP_DonkeyDestinationMarker&#45;&gt;ExecuteUbergraph_BP_DonkeyDestinationMarker__0</title>
<path fill="none" stroke="black" d="M868,-2190.61C868,-2166.54 868,-2143.53 868,-2126.52"/>
<polygon fill="black" stroke="black" points="871.5,-2126.78 868,-2116.78 864.5,-2126.78 871.5,-2126.78"/>
</g>
<!-- ExecuteUbergraph_BP_DonkeyDestinationMarker__5 -->
<g id="node4" class="node">
<title>ExecuteUbergraph_BP_DonkeyDestinationMarker__5</title>
<polygon fill="#eeeeee" stroke="black" points="680,-1936.5 680,-1974.5 952,-1974.5 952,-1936.5 680,-1936.5"/>
<text text-anchor="start" x="688" y="-1959.3" font-family="monospace" font-size="14.00">EX_ComputedJump</text>
<text text-anchor="start" x="688" y="-1944.3" font-family="monospace" font-size="14.00">  EX_LocalVariable [EntryPoint]</text>
</g>
<!-- ExecuteUbergraph_BP_DonkeyDestinationMarker__0&#45;&gt;ExecuteUbergraph_BP_DonkeyDestinationMarker__5 -->
<g id="edge3" class="edge">
<title>ExecuteUbergraph_BP_DonkeyDestinationMarker__0&#45;&gt;ExecuteUbergraph_BP_DonkeyDestinationMarker__5</title>
<path fill="none" stroke="black" d="M861.73,-2079.61C853,-2056.11 837.08,-2013.24 826.52,-1984.81"/>
<polygon fill="black" stroke="black" points="829.91,-1983.9 823.15,-1975.75 823.35,-1986.34 829.91,-1983.9"/>
</g>
<!-- ExecuteUbergraph_BP_DonkeyDestinationMarker__571 -->
<g id="node22" class="node">
<title>ExecuteUbergraph_BP_DonkeyDestinationMarker__571</title>
<polygon fill="#eeeeee" stroke="black" points="970,-1936.5 970,-1974.5 1086,-1974.5 1086,-1936.5 970,-1936.5"/>
<text text-anchor="start" x="978" y="-1959.3" font-family="monospace" font-size="14.00">EX_Return</text>
<text text-anchor="start" x="978" y="-1944.3" font-family="monospace" font-size="14.00">  EX_Nothing</text>
</g>
<!-- ExecuteUbergraph_BP_DonkeyDestinationMarker__0&#45;&gt;ExecuteUbergraph_BP_DonkeyDestinationMarker__571 -->
<g id="edge2" class="edge">
<title>ExecuteUbergraph_BP_DonkeyDestinationMarker__0:e&#45;&gt;ExecuteUbergraph_BP_DonkeyDestinationMarker__571</title>
<path fill="none" stroke="red" d="M977,-2097.5C1024.15,-2097.5 1030.11,-2026.92 1029.56,-1985.63"/>
<polygon fill="none" stroke="red" points="1033.07,-1985.77 1029.29,-1975.87 1026.07,-1985.97 1033.07,-1985.77"/>
<text text-anchor="middle" x="1069.5" y="-2037.8" font-family="monospace" font-size="14.00">PUSH STACK</text>
</g>
<!-- ExecuteUbergraph_BP_DonkeyDestinationMarker__15 -->
<g id="node5" class="node">
<title>ExecuteUbergraph_BP_DonkeyDestinationMarker__15</title>
<polygon fill="#eeeeee" stroke="black" points="2034,-315.5 2034,-368.5 2612,-368.5 2612,-315.5 2034,-315.5"/>
<text text-anchor="start" x="2042" y="-353.3" font-family="monospace" font-size="14.00">EX_Let</text>
<text text-anchor="start" x="2042" y="-338.3" font-family="monospace" font-size="14.00">  EX_LocalVariable [CallFunc_K2_GetActorLocation_ReturnValue_1]</text>
<text text-anchor="start" x="2042" y="-323.3" font-family="monospace" font-size="14.00">  EX_FinalFunction import /Script/Engine&#45;&gt;Actor&#45;&gt;K2_GetActorLocation</text>
</g>
<!-- ExecuteUbergraph_BP_DonkeyDestinationMarker__43 -->
<g id="node6" class="node">
<title>ExecuteUbergraph_BP_DonkeyDestinationMarker__43</title>
<polygon fill="#eeeeee" stroke="black" points="1890,-74.5 1890,-277.5 2756,-277.5 2756,-74.5 1890,-74.5"/>
<text text-anchor="start" x="1898" y="-262.3" font-family="monospace" font-size="14.00">EX_LetObj</text>
<text text-anchor="start" x="1898" y="-247.3" font-family="monospace" font-size="14.00">  EX_LocalVariable [CallFunc_SpawnSoundAtLocation_ReturnValue_1]</text>
<text text-anchor="start" x="1898" y="-232.3" font-family="monospace" font-size="14.00">  EX_CallMath import /Script/Engine&#45;&gt;GameplayStatics&#45;&gt;SpawnSoundAtLocation</text>
<text text-anchor="start" x="1898" y="-217.3" font-family="monospace" font-size="14.00">    EX_Self</text>
<text text-anchor="start" x="1898" y="-202.3" font-family="monospace" font-size="14.00">    EX_ObjectConst import /Game/Audio/SFX/Donkey/Molly/Donkey_beep_deposit_Cue&#45;&gt;Donkey_beep_deposit_Cue</text>
<text text-anchor="start" x="1898" y="-187.3" font-family="monospace" font-size="14.00">    EX_LocalVariable [CallFunc_K2_GetActorLocation_ReturnValue_1]</text>
<text text-anchor="start" x="1898" y="-172.3" font-family="monospace" font-size="14.00">    EX_RotationConst 0,0,0</text>
<text text-anchor="start" x="1898" y="-157.3" font-family="monospace" font-size="14.00">    EX_FloatConst 1</text>
<text text-anchor="start" x="1898" y="-142.3" font-family="monospace" font-size="14.00">    EX_FloatConst 1</text>
<text text-anchor="start" x="1898" y="-127.3" font-family="monospace" font-size="14.00">    EX_FloatConst 0</text>
<text text-anchor="start" x="1898" y="-112.3" font-family="monospace" font-size="14.00">    EX_NoObject</text>
<text text-anchor="start" x="1898" y="-97.3" font-family="monospace" font-size="14.00">    EX_NoObject</text>
<text text-anchor="start" x="1898" y="-82.3" font-family="monospace" font-size="14.00">    EX_True</text>
</g>
<!-- ExecuteUbergraph_BP_DonkeyDestinationMarker__15&#45;&gt;ExecuteUbergraph_BP_DonkeyDestinationMarker__43 -->
<g id="edge4" class="edge">
<title>ExecuteUbergraph_BP_DonkeyDestinationMarker__15&#45;&gt;ExecuteUbergraph_BP_DonkeyDestinationMarker__43</title>
<path fill="none" stroke="black" d="M2323,-315.73C2323,-307.9 2323,-298.71 2323,-288.86"/>
<polygon fill="black" stroke="black" points="2326.5,-289 2323,-279 2319.5,-289 2326.5,-289"/>
</g>
<!-- ExecuteUbergraph_BP_DonkeyDestinationMarker__113 -->
<g id="node7" class="node">
<title>ExecuteUbergraph_BP_DonkeyDestinationMarker__113</title>
<polygon fill="#eeeeee" stroke="black" points="2236.5,-0.5 2236.5,-36.5 2409.5,-36.5 2409.5,-0.5 2236.5,-0.5"/>
<text text-anchor="start" x="2244.5" y="-14.8" font-family="monospace" font-size="14.00">EX_PopExecutionFlow</text>
</g>
<!-- ExecuteUbergraph_BP_DonkeyDestinationMarker__43&#45;&gt;ExecuteUbergraph_BP_DonkeyDestinationMarker__113 -->
<g id="edge5" class="edge">
<title>ExecuteUbergraph_BP_DonkeyDestinationMarker__43&#45;&gt;ExecuteUbergraph_BP_DonkeyDestinationMarker__113</title>
<path fill="none" stroke="black" d="M2323,-74.76C2323,-65.04 2323,-55.84 2323,-47.83"/>
<polygon fill="black" stroke="black" points="2326.5,-47.83 2323,-37.83 2319.5,-47.83 2326.5,-47.83"/>
</g>
<!-- ExecuteUbergraph_BP_DonkeyDestinationMarker__114 -->
<g id="node8" class="node">
<title>ExecuteUbergraph_BP_DonkeyDestinationMarker__114</title>
<polygon fill="#eeeeee" stroke="black" points="1661,-1161.5 1661,-1259.5 2263,-1259.5 2263,-1161.5 1661,-1161.5"/>
<text text-anchor="start" x="1669" y="-1244.3" font-family="monospace" font-size="14.00">EX_Context</text>
<text text-anchor="start" x="1669" y="-1229.3" font-family="monospace" font-size="14.00">  EX_InstanceVariable [Cube]</text>
<text text-anchor="start" x="1669" y="-1214.3" font-family="monospace" font-size="14.00">  EX_FinalFunction import /Script/Engine&#45;&gt;SceneComponent&#45;&gt;SetVisibility</text>
<text text-anchor="start" x="1669" y="-1199.3" font-family="monospace" font-size="14.00">    EX_True</text>
<text text-anchor="start" x="1669" y="-1184.3" font-family="monospace" font-size="14.00">    EX_True</text>
<text text-anchor="start" x="1669" y="-1169.3" font-family="monospace" font-size="14.00">  RValue = []</text>
</g>
<!-- ExecuteUbergraph_BP_DonkeyDestinationMarker__148 -->
<g id="node9" class="node">
<title>ExecuteUbergraph_BP_DonkeyDestinationMarker__148</title>
<polygon fill="#eeeeee" stroke="black" points="1677.5,-1025.5 1677.5,-1123.5 2246.5,-1123.5 2246.5,-1025.5 1677.5,-1025.5"/>
<text text-anchor="start" x="1685.5" y="-1108.3" font-family="monospace" font-size="14.00">EX_Let</text>
<text text-anchor="start" x="1685.5" y="-1093.3" font-family="monospace" font-size="14.00">  EX_LocalVariable [CallFunc_MakeRotator_ReturnValue]</text>
<text text-anchor="start" x="1685.5" y="-1078.3" font-family="monospace" font-size="14.00">  EX_CallMath import /Script/Engine&#45;&gt;KismetMathLibrary&#45;&gt;MakeRotator</text>
<text text-anchor="start" x="1685.5" y="-1063.3" font-family="monospace" font-size="14.00">    EX_FloatConst 0</text>
<text text-anchor="start" x="1685.5" y="-1048.3" font-family="monospace" font-size="14.00">    EX_FloatConst 0</text>
<text text-anchor="start" x="1685.5" y="-1033.3" font-family="monospace" font-size="14.00">    EX_FloatConst 0</text>
</g>
<!-- ExecuteUbergraph_BP_DonkeyDestinationMarker__114&#45;&gt;ExecuteUbergraph_BP_DonkeyDestinationMarker__148 -->
<g id="edge6" class="edge">
<title>ExecuteUbergraph_BP_DonkeyDestinationMarker__114&#45;&gt;ExecuteUbergraph_BP_DonkeyDestinationMarker__148</title>
<path fill="none" stroke="black" d="M1962,-1161.5C1962,-1152.74 1962,-1143.5 1962,-1134.46"/>
<polygon fill="black" stroke="black" points="1965.5,-1134.68 1962,-1124.68 1958.5,-1134.68 1965.5,-1134.68"/>
</g>
<!-- ExecuteUbergraph_BP_DonkeyDestinationMarker__191 -->
<g id="node10" class="node">
<title>ExecuteUbergraph_BP_DonkeyDestinationMarker__191</title>
<polygon fill="#eeeeee" stroke="black" points="1483.5,-904.5 1483.5,-987.5 2440.5,-987.5 2440.5,-904.5 1483.5,-904.5"/>
<text text-anchor="start" x="1491.5" y="-972.3" font-family="monospace" font-size="14.00">EX_CallMath import /Script/FSD&#45;&gt;ProceduralFunctionLibrary&#45;&gt;SpawnTerrainImpact</text>
<text text-anchor="start" x="1491.5" y="-957.3" font-family="monospace" font-size="14.00">  EX_Self</text>
<text text-anchor="start" x="1491.5" y="-942.3" font-family="monospace" font-size="14.00">  EX_ObjectConst import /Game/GameElements/Donkey/P_Donkey_DestinationMarker_Pull&#45;&gt;P_Donkey_DestinationMarker_Pull</text>
<text text-anchor="start" x="1491.5" y="-927.3" font-family="monospace" font-size="14.00">  EX_LocalVariable [K2Node_CustomEvent_Loc]</text>
<text text-anchor="start" x="1491.5" y="-912.3" font-family="monospace" font-size="14.00">  EX_LocalVariable [CallFunc_MakeRotator_ReturnValue]</text>
</g>
<!-- ExecuteUbergraph_BP_DonkeyDestinationMarker__148&#45;&gt;ExecuteUbergraph_BP_DonkeyDestinationMarker__191 -->
<g id="edge7" class="edge">
<title>ExecuteUbergraph_BP_DonkeyDestinationMarker__148&#45;&gt;ExecuteUbergraph_BP_DonkeyDestinationMarker__191</title>
<path fill="none" stroke="black" d="M1962,-1025.68C1962,-1016.92 1962,-1007.74 1962,-998.87"/>
<polygon fill="black" stroke="black" points="1965.5,-998.97 1962,-988.97 1958.5,-998.97 1965.5,-998.97"/>
</g>
<!-- ExecuteUbergraph_BP_DonkeyDestinationMarker__229 -->
<g id="node11" class="node">
<title>ExecuteUbergraph_BP_DonkeyDestinationMarker__229</title>
<polygon fill="#eeeeee" stroke="black" points="1673,-813.5 1673,-866.5 2251,-866.5 2251,-813.5 1673,-813.5"/>
<text text-anchor="start" x="1681" y="-851.3" font-family="monospace" font-size="14.00">EX_Let</text>
<text text-anchor="start" x="1681" y="-836.3" font-family="monospace" font-size="14.00">  EX_LocalVariable [CallFunc_K2_GetActorLocation_ReturnValue]</text>
<text text-anchor="start" x="1681" y="-821.3" font-family="monospace" font-size="14.00">  EX_FinalFunction import /Script/Engine&#45;&gt;Actor&#45;&gt;K2_GetActorLocation</text>
</g>
<!-- ExecuteUbergraph_BP_DonkeyDestinationMarker__191&#45;&gt;ExecuteUbergraph_BP_DonkeyDestinationMarker__229 -->
<g id="edge8" class="edge">
<title>ExecuteUbergraph_BP_DonkeyDestinationMarker__191&#45;&gt;ExecuteUbergraph_BP_DonkeyDestinationMarker__229</title>
<path fill="none" stroke="black" d="M1962,-904.79C1962,-895.91 1962,-886.54 1962,-877.81"/>
<polygon fill="black" stroke="black" points="1965.5,-877.9 1962,-867.9 1958.5,-877.9 1965.5,-877.9"/>
</g>
<!-- ExecuteUbergraph_BP_DonkeyDestinationMarker__257 -->
<g id="node12" class="node">
<title>ExecuteUbergraph_BP_DonkeyDestinationMarker__257</title>
<polygon fill="#eeeeee" stroke="black" points="1496,-572.5 1496,-775.5 2428,-775.5 2428,-572.5 1496,-572.5"/>
<text text-anchor="start" x="1504" y="-760.3" font-family="monospace" font-size="14.00">EX_LetObj</text>
<text text-anchor="start" x="1504" y="-745.3" font-family="monospace" font-size="14.00">  EX_LocalVariable [CallFunc_SpawnSoundAtLocation_ReturnValue]</text>
<text text-anchor="start" x="1504" y="-730.3" font-family="monospace" font-size="14.00">  EX_CallMath import /Script/Engine&#45;&gt;GameplayStatics&#45;&gt;SpawnSoundAtLocation</text>
<text text-anchor="start" x="1504" y="-715.3" font-family="monospace" font-size="14.00">    EX_Self</text>
<text text-anchor="start" x="1504" y="-700.3" font-family="monospace" font-size="14.00">    EX_ObjectConst import /Game/Audio/SFX/Donkey/Molly/DonkeyDestinationMarker_Cue&#45;&gt;DonkeyDestinationMarker_Cue</text>
<text text-anchor="start" x="1504" y="-685.3" font-family="monospace" font-size="14.00">    EX_LocalVariable [CallFunc_K2_GetActorLocation_ReturnValue]</text>
<text text-anchor="start" x="1504" y="-670.3" font-family="monospace" font-size="14.00">    EX_RotationConst 0,0,0</text>
<text text-anchor="start" x="1504" y="-655.3" font-family="monospace" font-size="14.00">    EX_FloatConst 1</text>
<text text-anchor="start" x="1504" y="-640.3" font-family="monospace" font-size="14.00">    EX_FloatConst 1</text>
<text text-anchor="start" x="1504" y="-625.3" font-family="monospace" font-size="14.00">    EX_FloatConst 0</text>
<text text-anchor="start" x="1504" y="-610.3" font-family="monospace" font-size="14.00">    EX_NoObject</text>
<text text-anchor="start" x="1504" y="-595.3" font-family="monospace" font-size="14.00">    EX_NoObject</text>
<text text-anchor="start" x="1504" y="-580.3" font-family="monospace" font-size="14.00">    EX_True</text>
</g>
<!-- ExecuteUbergraph_BP_DonkeyDestinationMarker__229&#45;&gt;ExecuteUbergraph_BP_DonkeyDestinationMarker__257 -->
<g id="edge9" class="edge">
<title>ExecuteUbergraph_BP_DonkeyDestinationMarker__229&#45;&gt;ExecuteUbergraph_BP_DonkeyDestinationMarker__257</title>
<path fill="none" stroke="black" d="M1962,-813.73C1962,-805.9 1962,-796.71 1962,-786.86"/>
<polygon fill="black" stroke="black" points="1965.5,-787 1962,-777 1958.5,-787 1965.5,-787"/>
</g>
<!-- ExecuteUbergraph_BP_DonkeyDestinationMarker__327 -->
<g id="node13" class="node">
<title>ExecuteUbergraph_BP_DonkeyDestinationMarker__327</title>
<polygon fill="#eeeeee" stroke="black" points="1702,-406.5 1702,-534.5 2222,-534.5 2222,-406.5 1702,-406.5"/>
<text text-anchor="start" x="1710" y="-519.3" font-family="monospace" font-size="14.00">EX_CallMath import /Script/Engine&#45;&gt;KismetSystemLibrary&#45;&gt;Delay</text>
<text text-anchor="start" x="1710" y="-504.3" font-family="monospace" font-size="14.00">  EX_Self</text>
<text text-anchor="start" x="1710" y="-489.3" font-family="monospace" font-size="14.00">  EX_FloatConst 0</text>
<text text-anchor="start" x="1710" y="-474.3" font-family="monospace" font-size="14.00">  EX_StructConst import /Script/Engine&#45;&gt;LatentActionInfo</text>
<text text-anchor="start" x="1710" y="-459.3" font-family="monospace" font-size="14.00">    EX_SkipOffsetConst 15</text>
<text text-anchor="start" x="1710" y="-444.3" font-family="monospace" font-size="14.00">    EX_IntConst 2062815719</text>
<text text-anchor="start" x="1710" y="-429.3" font-family="monospace" font-size="14.00">    EX_NameConst ExecuteUbergraph_BP_DonkeyDestinationMarker</text>
<text text-anchor="start" x="1710" y="-414.3" font-family="monospace" font-size="14.00">    EX_Self</text>
</g>
<!-- ExecuteUbergraph_BP_DonkeyDestinationMarker__257&#45;&gt;ExecuteUbergraph_BP_DonkeyDestinationMarker__327 -->
<g id="edge10" class="edge">
<title>ExecuteUbergraph_BP_DonkeyDestinationMarker__257&#45;&gt;ExecuteUbergraph_BP_DonkeyDestinationMarker__327</title>
<path fill="none" stroke="black" d="M1962,-572.55C1962,-563.5 1962,-554.45 1962,-545.68"/>
<polygon fill="black" stroke="black" points="1965.5,-545.87 1962,-535.87 1958.5,-545.87 1965.5,-545.87"/>
</g>
<!-- ExecuteUbergraph_BP_DonkeyDestinationMarker__327&#45;&gt;ExecuteUbergraph_BP_DonkeyDestinationMarker__15 -->
<g id="edge11" class="edge">
<title>ExecuteUbergraph_BP_DonkeyDestinationMarker__327:e&#45;&gt;ExecuteUbergraph_BP_DonkeyDestinationMarker__15</title>
<path fill="none" stroke="red" d="M2223,-470.5C2269.73,-470.5 2297.92,-416.82 2311.95,-379.12"/>
<polygon fill="none" stroke="red" points="2315.17,-380.52 2315.2,-369.92 2308.57,-378.19 2315.17,-380.52"/>
</g>
<!-- ExecuteUbergraph_BP_DonkeyDestinationMarker__381 -->
<g id="node14" class="node">
<title>ExecuteUbergraph_BP_DonkeyDestinationMarker__381</title>
<polygon fill="#eeeeee" stroke="black" points="1842.5,-324 1842.5,-360 2015.5,-360 2015.5,-324 1842.5,-324"/>
<text text-anchor="start" x="1850.5" y="-338.3" font-family="monospace" font-size="14.00">EX_PopExecutionFlow</text>
</g>
<!-- ExecuteUbergraph_BP_DonkeyDestinationMarker__327&#45;&gt;ExecuteUbergraph_BP_DonkeyDestinationMarker__381 -->
<g id="edge12" class="edge">
<title>ExecuteUbergraph_BP_DonkeyDestinationMarker__327&#45;&gt;ExecuteUbergraph_BP_DonkeyDestinationMarker__381</title>
<path fill="none" stroke="black" d="M1945.6,-406.62C1942.33,-394.1 1939.06,-381.55 1936.29,-370.95"/>
<polygon fill="black" stroke="black" points="1939.71,-370.18 1933.8,-361.38 1932.93,-371.94 1939.71,-370.18"/>
</g>
<!-- ExecuteUbergraph_BP_DonkeyDestinationMarker__382 -->
<g id="node15" class="node">
<title>ExecuteUbergraph_BP_DonkeyDestinationMarker__382</title>
<polygon fill="#eeeeee" stroke="black" points="1673,-1779.5 1673,-1832.5 2251,-1832.5 2251,-1779.5 1673,-1779.5"/>
<text text-anchor="start" x="1681" y="-1817.3" font-family="monospace" font-size="14.00">EX_Let</text>
<text text-anchor="start" x="1681" y="-1802.3" font-family="monospace" font-size="14.00">  EX_LocalVariable [CallFunc_K2_GetActorLocation_ReturnValue_2]</text>
<text text-anchor="start" x="1681" y="-1787.3" font-family="monospace" font-size="14.00">  EX_FinalFunction import /Script/Engine&#45;&gt;Actor&#45;&gt;K2_GetActorLocation</text>
</g>
<!-- ExecuteUbergraph_BP_DonkeyDestinationMarker__410 -->
<g id="node16" class="node">
<title>ExecuteUbergraph_BP_DonkeyDestinationMarker__410</title>
<polygon fill="#eeeeee" stroke="black" points="1677.5,-1643.5 1677.5,-1741.5 2246.5,-1741.5 2246.5,-1643.5 1677.5,-1643.5"/>
<text text-anchor="start" x="1685.5" y="-1726.3" font-family="monospace" font-size="14.00">EX_Let</text>
<text text-anchor="start" x="1685.5" y="-1711.3" font-family="monospace" font-size="14.00">  EX_LocalVariable [CallFunc_MakeRotator_ReturnValue_1]</text>
<text text-anchor="start" x="1685.5" y="-1696.3" font-family="monospace" font-size="14.00">  EX_CallMath import /Script/Engine&#45;&gt;KismetMathLibrary&#45;&gt;MakeRotator</text>
<text text-anchor="start" x="1685.5" y="-1681.3" font-family="monospace" font-size="14.00">    EX_FloatConst 0</text>
<text text-anchor="start" x="1685.5" y="-1666.3" font-family="monospace" font-size="14.00">    EX_FloatConst 0</text>
<text text-anchor="start" x="1685.5" y="-1651.3" font-family="monospace" font-size="14.00">    EX_FloatConst 0</text>
</g>
<!-- ExecuteUbergraph_BP_DonkeyDestinationMarker__382&#45;&gt;ExecuteUbergraph_BP_DonkeyDestinationMarker__410 -->
<g id="edge13" class="edge">
<title>ExecuteUbergraph_BP_DonkeyDestinationMarker__382&#45;&gt;ExecuteUbergraph_BP_DonkeyDestinationMarker__410</title>
<path fill="none" stroke="black" d="M1962,-1779.7C1962,-1771.48 1962,-1761.98 1962,-1752.37"/>
<polygon fill="black" stroke="black" points="1965.5,-1752.6 1962,-1742.6 1958.5,-1752.6 1965.5,-1752.6"/>
</g>
<!-- ExecuteUbergraph_BP_DonkeyDestinationMarker__453 -->
<g id="node17" class="node">
<title>ExecuteUbergraph_BP_DonkeyDestinationMarker__453</title>
<polygon fill="#eeeeee" stroke="black" points="1524.5,-1522.5 1524.5,-1605.5 2399.5,-1605.5 2399.5,-1522.5 1524.5,-1522.5"/>
<text text-anchor="start" x="1532.5" y="-1590.3" font-family="monospace" font-size="14.00">EX_CallMath import /Script/FSD&#45;&gt;ProceduralFunctionLibrary&#45;&gt;SpawnTerrainImpact</text>
<text text-anchor="start" x="1532.5" y="-1575.3" font-family="monospace" font-size="14.00">  EX_Self</text>
<text text-anchor="start" x="1532.5" y="-1560.3" font-family="monospace" font-size="14.00">  EX_ObjectConst import /Game/GameElements/Donkey/P_DonkeyDestination_Impact&#45;&gt;P_DonkeyDestination_Impact</text>
<text text-anchor="start" x="1532.5" y="-1545.3" font-family="monospace" font-size="14.00">  EX_LocalVariable [CallFunc_K2_GetActorLocation_ReturnValue_2]</text>
<text text-anchor="start" x="1532.5" y="-1530.3" font-family="monospace" font-size="14.00">  EX_LocalVariable [CallFunc_MakeRotator_ReturnValue_1]</text>
</g>
<!-- ExecuteUbergraph_BP_DonkeyDestinationMarker__410&#45;&gt;ExecuteUbergraph_BP_DonkeyDestinationMarker__453 -->
<g id="edge14" class="edge">
<title>ExecuteUbergraph_BP_DonkeyDestinationMarker__410&#45;&gt;ExecuteUbergraph_BP_DonkeyDestinationMarker__453</title>
<path fill="none" stroke="black" d="M1962,-1643.68C1962,-1634.92 1962,-1625.74 1962,-1616.87"/>
<polygon fill="black" stroke="black" points="1965.5,-1616.97 1962,-1606.97 1958.5,-1616.97 1965.5,-1616.97"/>
</g>
<!-- ExecuteUbergraph_BP_DonkeyDestinationMarker__491 -->
<g id="node18" class="node">
<title>ExecuteUbergraph_BP_DonkeyDestinationMarker__491</title>
<polygon fill="#eeeeee" stroke="black" points="1673,-1371.5 1673,-1484.5 2251,-1484.5 2251,-1371.5 1673,-1371.5"/>
<text text-anchor="start" x="1681" y="-1469.3" font-family="monospace" font-size="14.00">EX_LetBool</text>
<text text-anchor="start" x="1681" y="-1454.3" font-family="monospace" font-size="14.00">  EX_LocalVariable [CallFunc_K2_SetActorLocation_ReturnValue]</text>
<text text-anchor="start" x="1681" y="-1439.3" font-family="monospace" font-size="14.00">  EX_FinalFunction import /Script/Engine&#45;&gt;Actor&#45;&gt;K2_SetActorLocation</text>
<text text-anchor="start" x="1681" y="-1424.3" font-family="monospace" font-size="14.00">    EX_LocalVariable [K2Node_CustomEvent_Loc]</text>
<text text-anchor="start" x="1681" y="-1409.3" font-family="monospace" font-size="14.00">    EX_False</text>
<text text-anchor="start" x="1681" y="-1394.3" font-family="monospace" font-size="14.00">    EX_LocalVariable [CallFunc_K2_SetActorLocation_SweepHitResult]</text>
<text text-anchor="start" x="1681" y="-1379.3" font-family="monospace" font-size="14.00">    EX_True</text>
</g>
<!-- ExecuteUbergraph_BP_DonkeyDestinationMarker__453&#45;&gt;ExecuteUbergraph_BP_DonkeyDestinationMarker__491 -->
<g id="edge15" class="edge">
<title>ExecuteUbergraph_BP_DonkeyDestinationMarker__453&#45;&gt;ExecuteUbergraph_BP_DonkeyDestinationMarker__491</title>
<path fill="none" stroke="black" d="M1962,-1522.8C1962,-1514.14 1962,-1504.76 1962,-1495.4"/>
<polygon fill="black" stroke="black" points="1965.5,-1495.56 1962,-1485.56 1958.5,-1495.56 1965.5,-1495.56"/>
</g>
<!-- ExecuteUbergraph_BP_DonkeyDestinationMarker__531 -->
<g id="node19" class="node">
<title>ExecuteUbergraph_BP_DonkeyDestinationMarker__531</title>
<polygon fill="#eeeeee" stroke="black" points="1908.5,-1297.5 1908.5,-1333.5 2015.5,-1333.5 2015.5,-1297.5 1908.5,-1297.5"/>
<text text-anchor="start" x="1916.5" y="-1311.8" font-family="monospace" font-size="14.00">EX_Jump 114</text>
</g>
<!-- ExecuteUbergraph_BP_DonkeyDestinationMarker__491&#45;&gt;ExecuteUbergraph_BP_DonkeyDestinationMarker__531 -->
<g id="edge16" class="edge">
<title>ExecuteUbergraph_BP_DonkeyDestinationMarker__491&#45;&gt;ExecuteUbergraph_BP_DonkeyDestinationMarker__531</title>
<path fill="none" stroke="black" d="M1962,-1371.75C1962,-1362.32 1962,-1352.9 1962,-1344.57"/>
<polygon fill="black" stroke="black" points="1965.5,-1344.8 1962,-1334.8 1958.5,-1344.8 1965.5,-1344.8"/>
</g>
<!-- ExecuteUbergraph_BP_DonkeyDestinationMarker__531&#45;&gt;ExecuteUbergraph_BP_DonkeyDestinationMarker__114 -->
<g id="edge17" class="edge">
<title>ExecuteUbergraph_BP_DonkeyDestinationMarker__531&#45;&gt;ExecuteUbergraph_BP_DonkeyDestinationMarker__114</title>
<path fill="none" stroke="black" d="M1962,-1297.95C1962,-1290.27 1962,-1280.62 1962,-1270.57"/>
<polygon fill="black" stroke="black" points="1965.5,-1270.66 1962,-1260.66 1958.5,-1270.66 1965.5,-1270.66"/>
</g>
<!-- ExecuteUbergraph_BP_DonkeyDestinationMarker__536 -->
<g id="node20" class="node">
<title>ExecuteUbergraph_BP_DonkeyDestinationMarker__536</title>
<polygon fill="#eeeeee" stroke="black" points="2335,-1906.5 2335,-2004.5 2937,-2004.5 2937,-1906.5 2335,-1906.5"/>
<text text-anchor="start" x="2343" y="-1989.3" font-family="monospace" font-size="14.00">EX_Context</text>
<text text-anchor="start" x="2343" y="-1974.3" font-family="monospace" font-size="14.00">  EX_InstanceVariable [Cube]</text>
<text text-anchor="start" x="2343" y="-1959.3" font-family="monospace" font-size="14.00">  EX_FinalFunction import /Script/Engine&#45;&gt;SceneComponent&#45;&gt;SetVisibility</text>
<text text-anchor="start" x="2343" y="-1944.3" font-family="monospace" font-size="14.00">    EX_False</text>
<text text-anchor="start" x="2343" y="-1929.3" font-family="monospace" font-size="14.00">    EX_True</text>
<text text-anchor="start" x="2343" y="-1914.3" font-family="monospace" font-size="14.00">  RValue = []</text>
</g>
<!-- ExecuteUbergraph_BP_DonkeyDestinationMarker__570 -->
<g id="node21" class="node">
<title>ExecuteUbergraph_BP_DonkeyDestinationMarker__570</title>
<polygon fill="#eeeeee" stroke="black" points="2549.5,-1788 2549.5,-1824 2722.5,-1824 2722.5,-1788 2549.5,-1788"/>
<text text-anchor="start" x="2557.5" y="-1802.3" font-family="monospace" font-size="14.00">EX_PopExecutionFlow</text>
</g>
<!-- ExecuteUbergraph_BP_DonkeyDestinationMarker__536&#45;&gt;ExecuteUbergraph_BP_DonkeyDestinationMarker__570 -->
<g id="edge18" class="edge">
<title>ExecuteUbergraph_BP_DonkeyDestinationMarker__536&#45;&gt;ExecuteUbergraph_BP_DonkeyDestinationMarker__570</title>
<path fill="none" stroke="black" d="M2636,-1906.61C2636,-1883.07 2636,-1855.49 2636,-1835.33"/>
<polygon fill="black" stroke="black" points="2639.5,-1835.36 2636,-1825.36 2632.5,-1835.36 2639.5,-1835.36"/>
</g>
<!-- ExecuteUbergraph_BP_DonkeyDestinationMarker__573 -->
<g id="node23" class="node">
<title>ExecuteUbergraph_BP_DonkeyDestinationMarker__573</title>
<polygon fill="#eeeeee" stroke="black" points="2222,-2135.5 2222,-2171.5 2354,-2171.5 2354,-2135.5 2222,-2135.5"/>
<text text-anchor="start" x="2230" y="-2149.8" font-family="monospace" font-size="14.00">EX_EndOfScript</text>
</g>
<!-- HideMarker -->
<g id="node24" class="node">
<title>HideMarker</title>
<polygon fill="#ff8888" stroke="black" points="2120.5,-2296.5 2120.5,-2332.5 2293.5,-2332.5 2293.5,-2296.5 2120.5,-2296.5"/>
<text text-anchor="start" x="2128.5" y="-2310.8" font-family="monospace" font-size="14.00">Function HideMarker</text>
</g>
<!-- HideMarker__0 -->
<g id="node25" class="node">
<title>HideMarker__0</title>
<polygon fill="#eeeeee" stroke="black" points="1778,-2078.5 1778,-2116.5 2636,-2116.5 2636,-2078.5 1778,-2078.5"/>
<text text-anchor="start" x="1786" y="-2101.3" font-family="monospace" font-size="14.00">EX_LocalFinalFunction export BP_DonkeyDestinationMarker_C&#45;&gt;ExecuteUbergraph_BP_DonkeyDestinationMarker</text>
<text text-anchor="start" x="1786" y="-2086.3" font-family="monospace" font-size="14.00">  EX_IntConst 536</text>
</g>
<!-- HideMarker&#45;&gt;HideMarker__0 -->
<g id="edge19" class="edge">
<title>HideMarker&#45;&gt;HideMarker__0</title>
<path fill="none" stroke="black" d="M2207,-2296.63C2207,-2260.18 2207,-2173.67 2207,-2127.97"/>
<polygon fill="black" stroke="black" points="2210.5,-2128.01 2207,-2118.01 2203.5,-2128.01 2210.5,-2128.01"/>
</g>
<!-- HideMarker__0&#45;&gt;ExecuteUbergraph_BP_DonkeyDestinationMarker__536 -->
<g id="edge20" class="edge">
<title>HideMarker__0:e&#45;&gt;ExecuteUbergraph_BP_DonkeyDestinationMarker__536</title>
<path fill="none" stroke="red" d="M2637,-2097.5C2645.69,-2097.5 2644.43,-2054.13 2641.59,-2015.49"/>
<polygon fill="none" stroke="red" points="2645.1,-2015.44 2640.83,-2005.75 2638.12,-2015.99 2645.1,-2015.44"/>
</g>
<!-- HideMarker__15 -->
<g id="node26" class="node">
<title>HideMarker__15</title>
<polygon fill="#eeeeee" stroke="black" points="2149,-1936.5 2149,-1974.5 2265,-1974.5 2265,-1936.5 2149,-1936.5"/>
<text text-anchor="start" x="2157" y="-1959.3" font-family="monospace" font-size="14.00">EX_Return</text>
<text text-anchor="start" x="2157" y="-1944.3" font-family="monospace" font-size="14.00">  EX_Nothing</text>
</g>
<!-- HideMarker__0&#45;&gt;HideMarker__15 -->
<g id="edge21" class="edge">
<title>HideMarker__0&#45;&gt;HideMarker__15</title>
<path fill="none" stroke="black" d="M2207,-2078.77C2207,-2055.31 2207,-2013.66 2207,-1985.56"/>
<polygon fill="black" stroke="black" points="2210.5,-1985.6 2207,-1975.6 2203.5,-1985.6 2210.5,-1985.6"/>
</g>
<!-- HideMarker__17 -->
<g id="node27" class="node">
<title>HideMarker__17</title>
<polygon fill="#eeeeee" stroke="black" points="2651,-2023.5 2651,-2059.5 2783,-2059.5 2783,-2023.5 2651,-2023.5"/>
<text text-anchor="start" x="2659" y="-2037.8" font-family="monospace" font-size="14.00">EX_EndOfScript</text>
</g>
<!-- ActivateAtPosition -->
<g id="node28" class="node">
<title>ActivateAtPosition</title>
<polygon fill="#ff8888" stroke="black" points="1298,-2288 1298,-2341 1768,-2341 1768,-2288 1298,-2288"/>
<text text-anchor="start" x="1306" y="-2325.8" font-family="monospace" font-size="14.00">Function ActivateAtPosition</text>
<text text-anchor="start" x="1306" y="-2310.8" font-family="monospace" font-size="14.00">  StructProperty Loc</text>
<text text-anchor="start" x="1306" y="-2295.8" font-family="monospace" font-size="14.00">    CPF_BlueprintVisible|CPF_BlueprintReadOnly|CPF_Parm</text>
</g>
<!-- ActivateAtPosition__0 -->
<g id="node29" class="node">
<title>ActivateAtPosition__0</title>
<polygon fill="#eeeeee" stroke="black" points="1306,-2078.5 1306,-2116.5 1760,-2116.5 1760,-2078.5 1306,-2078.5"/>
<text text-anchor="start" x="1314" y="-2101.3" font-family="monospace" font-size="14.00">EX_LetValueOnPersistentFrame [K2Node_CustomEvent_Loc]</text>
<text text-anchor="start" x="1314" y="-2086.3" font-family="monospace" font-size="14.00">  EX_LocalVariable [Loc]</text>
</g>
<!-- ActivateAtPosition&#45;&gt;ActivateAtPosition__0 -->
<g id="edge22" class="edge">
<title>ActivateAtPosition&#45;&gt;ActivateAtPosition__0</title>
<path fill="none" stroke="black" d="M1533,-2288.42C1533,-2248.39 1533,-2170.27 1533,-2127.76"/>
<polygon fill="black" stroke="black" points="1536.5,-2127.8 1533,-2117.8 1529.5,-2127.8 1536.5,-2127.8"/>
</g>
<!-- ActivateAtPosition__18 -->
<g id="node30" class="node">
<title>ActivateAtPosition__18</title>
<polygon fill="#eeeeee" stroke="black" points="1104,-1936.5 1104,-1974.5 1962,-1974.5 1962,-1936.5 1104,-1936.5"/>
<text text-anchor="start" x="1112" y="-1959.3" font-family="monospace" font-size="14.00">EX_LocalFinalFunction export BP_DonkeyDestinationMarker_C&#45;&gt;ExecuteUbergraph_BP_DonkeyDestinationMarker</text>
<text text-anchor="start" x="1112" y="-1944.3" font-family="monospace" font-size="14.00">  EX_IntConst 382</text>
</g>
<!-- ActivateAtPosition__0&#45;&gt;ActivateAtPosition__18 -->
<g id="edge23" class="edge">
<title>ActivateAtPosition__0&#45;&gt;ActivateAtPosition__18</title>
<path fill="none" stroke="black" d="M1533,-2078.77C1533,-2055.31 1533,-2013.66 1533,-1985.56"/>
<polygon fill="black" stroke="black" points="1536.5,-1985.6 1533,-1975.6 1529.5,-1985.6 1536.5,-1985.6"/>
</g>
<!-- ActivateAtPosition__18&#45;&gt;ExecuteUbergraph_BP_DonkeyDestinationMarker__382 -->
<g id="edge24" class="edge">
<title>ActivateAtPosition__18:e&#45;&gt;ExecuteUbergraph_BP_DonkeyDestinationMarker__382</title>
<path fill="none" stroke="red" d="M1963,-1955.5C2007.92,-1955.5 1991.23,-1886.71 1975.99,-1842.77"/>
<polygon fill="none" stroke="red" points="1979.37,-1841.84 1972.7,-1833.62 1972.79,-1844.21 1979.37,-1841.84"/>
</g>
<!-- ActivateAtPosition__33 -->
<g id="node31" class="node">
<title>ActivateAtPosition__33</title>
<polygon fill="#eeeeee" stroke="black" points="1475,-1787 1475,-1825 1591,-1825 1591,-1787 1475,-1787"/>
<text text-anchor="start" x="1483" y="-1809.8" font-family="monospace" font-size="14.00">EX_Return</text>
<text text-anchor="start" x="1483" y="-1794.8" font-family="monospace" font-size="14.00">  EX_Nothing</text>
</g>
<!-- ActivateAtPosition__18&#45;&gt;ActivateAtPosition__33 -->
<g id="edge25" class="edge">
<title>ActivateAtPosition__18&#45;&gt;ActivateAtPosition__33</title>
<path fill="none" stroke="black" d="M1533,-1936.71C1533,-1911.79 1533,-1866.2 1533,-1836.25"/>
<polygon fill="black" stroke="black" points="1536.5,-1836.37 1533,-1826.37 1529.5,-1836.37 1536.5,-1836.37"/>
</g>
<!-- ActivateAtPosition__35 -->
<g id="node32" class="node">
<title>ActivateAtPosition__35</title>
<polygon fill="#eeeeee" stroke="black" points="2651,-1851.5 2651,-1887.5 2783,-1887.5 2783,-1851.5 2651,-1851.5"/>
<text text-anchor="start" x="2659" y="-1865.8" font-family="monospace" font-size="14.00">EX_EndOfScript</text>
</g>
</g>
</svg>
