<?xml version="1.0" encoding="UTF-8" standalone="no"?>
<!DOCTYPE svg PUBLIC "-//W3C//DTD SVG 1.1//EN"
 "http://www.w3.org/Graphics/SVG/1.1/DTD/svg11.dtd">
<!-- Generated by graphviz version 7.0.1 (0)
 -->
<!-- Pages: 1 -->
<svg width="2735pt" height="1138pt"
 viewBox="0.00 0.00 2735.00 1138.00" xmlns="http://www.w3.org/2000/svg" xmlns:xlink="http://www.w3.org/1999/xlink">
<g id="graph0" class="graph" transform="scale(1 1) rotate(0) translate(4 1134)">
<polygon fill="white" stroke="none" points="-4,4 -4,-1134 2731,-1134 2731,4 -4,4"/>
<!-- BP_AudioVolume_Reverb_MediemCave_C -->
<g id="node1" class="node">
<title>BP_AudioVolume_Reverb_MediemCave_C</title>
<polygon fill="#88ff88" stroke="black" points="0,-926.5 0,-1129.5 594,-1129.5 594,-926.5 0,-926.5"/>
<text text-anchor="start" x="8" y="-1114.3" font-family="monospace" font-size="14.00">ClassExport: BP_AudioVolume_Reverb_MediemCave_C</text>
<text text-anchor="start" x="8" y="-1099.3" font-family="monospace" font-size="14.00">  SuperStruct: import /Script/Engine&#45;&gt;Actor</text>
<text text-anchor="start" x="8" y="-1084.3" font-family="monospace" font-size="14.00">  Properties:</text>
<text text-anchor="start" x="8" y="-1069.3" font-family="monospace" font-size="14.00">    StructProperty UberGraphFrame</text>
<text text-anchor="start" x="8" y="-1054.3" font-family="monospace" font-size="14.00">      CPF_Transient|CPF_DuplicateTransient</text>
<text text-anchor="start" x="8" y="-1039.3" font-family="monospace" font-size="14.00">    ObjectProperty Sphere</text>
<text text-anchor="start" x="8" y="-1024.3" font-family="monospace" font-size="14.00">      CPF_BlueprintVisible|CPF_InstancedReference|CPF_NonTransactional</text>
<text text-anchor="start" x="8" y="-1009.3" font-family="monospace" font-size="14.00">    ObjectProperty DefaultSceneRoot</text>
<text text-anchor="start" x="8" y="-994.3" font-family="monospace" font-size="14.00">      CPF_BlueprintVisible|CPF_InstancedReference|CPF_NonTransactional</text>
<text text-anchor="start" x="8" y="-979.3" font-family="monospace" font-size="14.00">    FloatProperty Volume</text>
<text text-anchor="start" x="8" y="-964.3" font-family="monospace" font-size="14.00">      CPF_Edit|CPF_BlueprintVisible</text>
<text text-anchor="start" x="8" y="-949.3" font-family="monospace" font-size="14.00">    FloatProperty FadeTime</text>
<text text-anchor="start" x="8" y="-934.3" font-family="monospace" font-size="14.00">      CPF_Edit|CPF_BlueprintVisible</text>
</g>
<!-- ExecuteUbergraph_BP_AudioVolume_Reverb_MediemCave -->
<g id="node2" class="node">
<title>ExecuteUbergraph_BP_AudioVolume_Reverb_MediemCave</title>
<polygon fill="#ff8888" stroke="black" points="612.5,-956.5 612.5,-1099.5 1107.5,-1099.5 1107.5,-956.5 612.5,-956.5"/>
<text text-anchor="start" x="620.5" y="-1084.3" font-family="monospace" font-size="14.00">Function ExecuteUbergraph_BP_AudioVolume_Reverb_MediemCave</text>
<text text-anchor="start" x="620.5" y="-1069.3" font-family="monospace" font-size="14.00">  IntProperty EntryPoint</text>
<text text-anchor="start" x="620.5" y="-1054.3" font-family="monospace" font-size="14.00">    CPF_BlueprintVisible|CPF_BlueprintReadOnly|CPF_Parm</text>
<text text-anchor="start" x="620.5" y="-1039.3" font-family="monospace" font-size="14.00">  ObjectProperty K2Node_Event_OtherActor_1</text>
<text text-anchor="start" x="620.5" y="-1024.3" font-family="monospace" font-size="14.00">  ObjectProperty K2Node_Event_OtherActor</text>
<text text-anchor="start" x="620.5" y="-1009.3" font-family="monospace" font-size="14.00">  ObjectProperty K2Node_DynamicCast_AsPlayer_Character</text>
<text text-anchor="start" x="620.5" y="-994.3" font-family="monospace" font-size="14.00">  BoolProperty K2Node_DynamicCast_bSuccess</text>
<text text-anchor="start" x="620.5" y="-979.3" font-family="monospace" font-size="14.00">  ObjectProperty K2Node_DynamicCast_AsPlayer_Character_1</text>
<text text-anchor="start" x="620.5" y="-964.3" font-family="monospace" font-size="14.00">  BoolProperty K2Node_DynamicCast_bSuccess_1</text>
</g>
<!-- ExecuteUbergraph_BP_AudioVolume_Reverb_MediemCave__0 -->
<g id="node3" class="node">
<title>ExecuteUbergraph_BP_AudioVolume_Reverb_MediemCave__0</title>
<polygon fill="#eeeeee" stroke="black" points="724,-814.5 724,-852.5 996,-852.5 996,-814.5 724,-814.5"/>
<text text-anchor="start" x="732" y="-837.3" font-family="monospace" font-size="14.00">EX_ComputedJump</text>
<text text-anchor="start" x="732" y="-822.3" font-family="monospace" font-size="14.00">  EX_LocalVariable [EntryPoint]</text>
</g>
<!-- ExecuteUbergraph_BP_AudioVolume_Reverb_MediemCave&#45;&gt;ExecuteUbergraph_BP_AudioVolume_Reverb_MediemCave__0 -->
<g id="edge1" class="edge">
<title>ExecuteUbergraph_BP_AudioVolume_Reverb_MediemCave&#45;&gt;ExecuteUbergraph_BP_AudioVolume_Reverb_MediemCave__0</title>
<path fill="none" stroke="black" d="M860,-956.69C860,-924.53 860,-888.2 860,-863.57"/>
<polygon fill="black" stroke="black" points="863.5,-863.68 860,-853.68 856.5,-863.68 863.5,-863.68"/>
</g>
<!-- ExecuteUbergraph_BP_AudioVolume_Reverb_MediemCave__10 -->
<g id="node4" class="node">
<title>ExecuteUbergraph_BP_AudioVolume_Reverb_MediemCave__10</title>
<polygon fill="#eeeeee" stroke="black" points="2202.5,-558.5 2202.5,-626.5 2697.5,-626.5 2697.5,-558.5 2202.5,-558.5"/>
<text text-anchor="start" x="2210.5" y="-611.3" font-family="monospace" font-size="14.00">EX_Let</text>
<text text-anchor="start" x="2210.5" y="-596.3" font-family="monospace" font-size="14.00">  EX_LocalVariable [K2Node_DynamicCast_AsPlayer_Character]</text>
<text text-anchor="start" x="2210.5" y="-581.3" font-family="monospace" font-size="14.00">  EX_DynamicCast import /Script/FSD&#45;&gt;PlayerCharacter</text>
<text text-anchor="start" x="2210.5" y="-566.3" font-family="monospace" font-size="14.00">    EX_LocalVariable [K2Node_Event_OtherActor_1]</text>
</g>
<!-- ExecuteUbergraph_BP_AudioVolume_Reverb_MediemCave__46 -->
<g id="node5" class="node">
<title>ExecuteUbergraph_BP_AudioVolume_Reverb_MediemCave__46</title>
<polygon fill="#eeeeee" stroke="black" points="2194,-452.5 2194,-520.5 2706,-520.5 2706,-452.5 2194,-452.5"/>
<text text-anchor="start" x="2202" y="-505.3" font-family="monospace" font-size="14.00">EX_Let</text>
<text text-anchor="start" x="2202" y="-490.3" font-family="monospace" font-size="14.00">  EX_LocalVariable [K2Node_DynamicCast_bSuccess]</text>
<text text-anchor="start" x="2202" y="-475.3" font-family="monospace" font-size="14.00">  EX_PrimitiveCast ObjectToBool</text>
<text text-anchor="start" x="2202" y="-460.3" font-family="monospace" font-size="14.00">    EX_LocalVariable [K2Node_DynamicCast_AsPlayer_Character]</text>
</g>
<!-- ExecuteUbergraph_BP_AudioVolume_Reverb_MediemCave__10&#45;&gt;ExecuteUbergraph_BP_AudioVolume_Reverb_MediemCave__46 -->
<g id="edge2" class="edge">
<title>ExecuteUbergraph_BP_AudioVolume_Reverb_MediemCave__10&#45;&gt;ExecuteUbergraph_BP_AudioVolume_Reverb_MediemCave__46</title>
<path fill="none" stroke="black" d="M2450,-558.59C2450,-549.97 2450,-540.54 2450,-531.45"/>
<polygon fill="black" stroke="black" points="2453.5,-531.71 2450,-521.71 2446.5,-531.71 2453.5,-531.71"/>
</g>
<!-- ExecuteUbergraph_BP_AudioVolume_Reverb_MediemCave__75 -->
<g id="node6" class="node">
<title>ExecuteUbergraph_BP_AudioVolume_Reverb_MediemCave__75</title>
<polygon fill="#eeeeee" stroke="black" points="2243.5,-361.5 2243.5,-399.5 2656.5,-399.5 2656.5,-361.5 2243.5,-361.5"/>
<text text-anchor="start" x="2251.5" y="-384.3" font-family="monospace" font-size="14.00">EX_JumpIfNot 253</text>
<text text-anchor="start" x="2251.5" y="-369.3" font-family="monospace" font-size="14.00">  EX_LocalVariable [K2Node_DynamicCast_bSuccess]</text>
</g>
<!-- ExecuteUbergraph_BP_AudioVolume_Reverb_MediemCave__46&#45;&gt;ExecuteUbergraph_BP_AudioVolume_Reverb_MediemCave__75 -->
<g id="edge3" class="edge">
<title>ExecuteUbergraph_BP_AudioVolume_Reverb_MediemCave__46&#45;&gt;ExecuteUbergraph_BP_AudioVolume_Reverb_MediemCave__75</title>
<path fill="none" stroke="black" d="M2450,-452.59C2450,-439.11 2450,-423.63 2450,-410.57"/>
<polygon fill="black" stroke="black" points="2453.5,-410.89 2450,-400.89 2446.5,-410.89 2453.5,-410.89"/>
</g>
<!-- ExecuteUbergraph_BP_AudioVolume_Reverb_MediemCave__89 -->
<g id="node7" class="node">
<title>ExecuteUbergraph_BP_AudioVolume_Reverb_MediemCave__89</title>
<polygon fill="#eeeeee" stroke="black" points="2072.5,-181.5 2072.5,-294.5 2683.5,-294.5 2683.5,-181.5 2072.5,-181.5"/>
<text text-anchor="start" x="2080.5" y="-279.3" font-family="monospace" font-size="14.00">EX_CallMath import /Script/Engine&#45;&gt;GameplayStatics&#45;&gt;ActivateReverbEffect</text>
<text text-anchor="start" x="2080.5" y="-264.3" font-family="monospace" font-size="14.00">  EX_Self</text>
<text text-anchor="start" x="2080.5" y="-249.3" font-family="monospace" font-size="14.00">  EX_ObjectConst import /Engine/EngineSounds/ReverbSettings/Cave&#45;&gt;Cave</text>
<text text-anchor="start" x="2080.5" y="-234.3" font-family="monospace" font-size="14.00">  EX_NameConst CaveReverb</text>
<text text-anchor="start" x="2080.5" y="-219.3" font-family="monospace" font-size="14.00">  EX_FloatConst 0</text>
<text text-anchor="start" x="2080.5" y="-204.3" font-family="monospace" font-size="14.00">  EX_InstanceVariable [Volume]</text>
<text text-anchor="start" x="2080.5" y="-189.3" font-family="monospace" font-size="14.00">  EX_InstanceVariable [FadeTime]</text>
</g>
<!-- ExecuteUbergraph_BP_AudioVolume_Reverb_MediemCave__75&#45;&gt;ExecuteUbergraph_BP_AudioVolume_Reverb_MediemCave__89 -->
<g id="edge5" class="edge">
<title>ExecuteUbergraph_BP_AudioVolume_Reverb_MediemCave__75&#45;&gt;ExecuteUbergraph_BP_AudioVolume_Reverb_MediemCave__89</title>
<path fill="none" stroke="black" d="M2440.88,-361.71C2433.37,-347.04 2422.23,-325.3 2411.4,-304.17"/>
<polygon fill="black" stroke="black" points="2414.66,-302.86 2406.98,-295.56 2408.43,-306.05 2414.66,-302.86"/>
<text text-anchor="middle" x="2430.5" y="-316.8" font-family="monospace" font-size="14.00">IF</text>
</g>
<!-- ExecuteUbergraph_BP_AudioVolume_Reverb_MediemCave__253 -->
<g id="node13" class="node">
<title>ExecuteUbergraph_BP_AudioVolume_Reverb_MediemCave__253</title>
<polygon fill="#eeeeee" stroke="black" points="2220,-0.5 2220,-38.5 2336,-38.5 2336,-0.5 2220,-0.5"/>
<text text-anchor="start" x="2228" y="-23.3" font-family="monospace" font-size="14.00">EX_Return</text>
<text text-anchor="start" x="2228" y="-8.3" font-family="monospace" font-size="14.00">  EX_Nothing</text>
</g>
<!-- ExecuteUbergraph_BP_AudioVolume_Reverb_MediemCave__75&#45;&gt;ExecuteUbergraph_BP_AudioVolume_Reverb_MediemCave__253 -->
<g id="edge4" class="edge">
<title>ExecuteUbergraph_BP_AudioVolume_Reverb_MediemCave__75:e&#45;&gt;ExecuteUbergraph_BP_AudioVolume_Reverb_MediemCave__253</title>
<path fill="none" stroke="red" d="M2658,-380.5C2726.9,-380.5 2696.75,-186.47 2693,-181 2614.94,-67.11 2443.58,-34.02 2347.26,-24.41"/>
<polygon fill="none" stroke="red" points="2347.68,-20.94 2337.4,-23.5 2347.04,-27.91 2347.68,-20.94"/>
<text text-anchor="middle" x="2702" y="-151.8" font-family="monospace" font-size="14.00">IF NOT</text>
</g>
<!-- ExecuteUbergraph_BP_AudioVolume_Reverb_MediemCave__145 -->
<g id="node8" class="node">
<title>ExecuteUbergraph_BP_AudioVolume_Reverb_MediemCave__145</title>
<polygon fill="#eeeeee" stroke="black" points="2289.5,-85 2289.5,-121 2396.5,-121 2396.5,-85 2289.5,-85"/>
<text text-anchor="start" x="2297.5" y="-99.3" font-family="monospace" font-size="14.00">EX_Jump 253</text>
</g>
<!-- ExecuteUbergraph_BP_AudioVolume_Reverb_MediemCave__89&#45;&gt;ExecuteUbergraph_BP_AudioVolume_Reverb_MediemCave__145 -->
<g id="edge6" class="edge">
<title>ExecuteUbergraph_BP_AudioVolume_Reverb_MediemCave__89&#45;&gt;ExecuteUbergraph_BP_AudioVolume_Reverb_MediemCave__145</title>
<path fill="none" stroke="black" d="M2363.46,-181.75C2358.9,-164.41 2354.06,-146.01 2350.23,-131.47"/>
<polygon fill="black" stroke="black" points="2353.72,-130.97 2347.79,-122.19 2346.95,-132.75 2353.72,-130.97"/>
</g>
<!-- ExecuteUbergraph_BP_AudioVolume_Reverb_MediemCave__145&#45;&gt;ExecuteUbergraph_BP_AudioVolume_Reverb_MediemCave__253 -->
<g id="edge7" class="edge">
<title>ExecuteUbergraph_BP_AudioVolume_Reverb_MediemCave__145&#45;&gt;ExecuteUbergraph_BP_AudioVolume_Reverb_MediemCave__253</title>
<path fill="none" stroke="black" d="M2329.53,-85.11C2320.79,-74.16 2309.22,-59.65 2299.26,-47.16"/>
<polygon fill="black" stroke="black" points="2302.27,-45.31 2293.3,-39.68 2296.8,-49.68 2302.27,-45.31"/>
</g>
<!-- ExecuteUbergraph_BP_AudioVolume_Reverb_MediemCave__150 -->
<g id="node9" class="node">
<title>ExecuteUbergraph_BP_AudioVolume_Reverb_MediemCave__150</title>
<polygon fill="#eeeeee" stroke="black" points="1584,-452.5 1584,-520.5 2096,-520.5 2096,-452.5 1584,-452.5"/>
<text text-anchor="start" x="1592" y="-505.3" font-family="monospace" font-size="14.00">EX_Let</text>
<text text-anchor="start" x="1592" y="-490.3" font-family="monospace" font-size="14.00">  EX_LocalVariable [K2Node_DynamicCast_AsPlayer_Character_1]</text>
<text text-anchor="start" x="1592" y="-475.3" font-family="monospace" font-size="14.00">  EX_DynamicCast import /Script/FSD&#45;&gt;PlayerCharacter</text>
<text text-anchor="start" x="1592" y="-460.3" font-family="monospace" font-size="14.00">    EX_LocalVariable [K2Node_Event_OtherActor]</text>
</g>
<!-- ExecuteUbergraph_BP_AudioVolume_Reverb_MediemCave__186 -->
<g id="node10" class="node">
<title>ExecuteUbergraph_BP_AudioVolume_Reverb_MediemCave__186</title>
<polygon fill="#eeeeee" stroke="black" points="1576,-346.5 1576,-414.5 2104,-414.5 2104,-346.5 1576,-346.5"/>
<text text-anchor="start" x="1584" y="-399.3" font-family="monospace" font-size="14.00">EX_Let</text>
<text text-anchor="start" x="1584" y="-384.3" font-family="monospace" font-size="14.00">  EX_LocalVariable [K2Node_DynamicCast_bSuccess_1]</text>
<text text-anchor="start" x="1584" y="-369.3" font-family="monospace" font-size="14.00">  EX_PrimitiveCast ObjectToBool</text>
<text text-anchor="start" x="1584" y="-354.3" font-family="monospace" font-size="14.00">    EX_LocalVariable [K2Node_DynamicCast_AsPlayer_Character_1]</text>
</g>
<!-- ExecuteUbergraph_BP_AudioVolume_Reverb_MediemCave__150&#45;&gt;ExecuteUbergraph_BP_AudioVolume_Reverb_MediemCave__186 -->
<g id="edge8" class="edge">
<title>ExecuteUbergraph_BP_AudioVolume_Reverb_MediemCave__150&#45;&gt;ExecuteUbergraph_BP_AudioVolume_Reverb_MediemCave__186</title>
<path fill="none" stroke="black" d="M1840,-452.59C1840,-443.97 1840,-434.54 1840,-425.45"/>
<polygon fill="black" stroke="black" points="1843.5,-425.71 1840,-415.71 1836.5,-425.71 1843.5,-425.71"/>
</g>
<!-- ExecuteUbergraph_BP_AudioVolume_Reverb_MediemCave__215 -->
<g id="node11" class="node">
<title>ExecuteUbergraph_BP_AudioVolume_Reverb_MediemCave__215</title>
<polygon fill="#eeeeee" stroke="black" points="1625.5,-219 1625.5,-257 2054.5,-257 2054.5,-219 1625.5,-219"/>
<text text-anchor="start" x="1633.5" y="-241.8" font-family="monospace" font-size="14.00">EX_JumpIfNot 253</text>
<text text-anchor="start" x="1633.5" y="-226.8" font-family="monospace" font-size="14.00">  EX_LocalVariable [K2Node_DynamicCast_bSuccess_1]</text>
</g>
<!-- ExecuteUbergraph_BP_AudioVolume_Reverb_MediemCave__186&#45;&gt;ExecuteUbergraph_BP_AudioVolume_Reverb_MediemCave__215 -->
<g id="edge9" class="edge">
<title>ExecuteUbergraph_BP_AudioVolume_Reverb_MediemCave__186&#45;&gt;ExecuteUbergraph_BP_AudioVolume_Reverb_MediemCave__215</title>
<path fill="none" stroke="black" d="M1840,-346.56C1840,-322.77 1840,-290.94 1840,-268.09"/>
<polygon fill="black" stroke="black" points="1843.5,-268.25 1840,-258.25 1836.5,-268.25 1843.5,-268.25"/>
</g>
<!-- ExecuteUbergraph_BP_AudioVolume_Reverb_MediemCave__229 -->
<g id="node12" class="node">
<title>ExecuteUbergraph_BP_AudioVolume_Reverb_MediemCave__229</title>
<polygon fill="#eeeeee" stroke="black" points="1545.5,-76.5 1545.5,-129.5 2172.5,-129.5 2172.5,-76.5 1545.5,-76.5"/>
<text text-anchor="start" x="1553.5" y="-114.3" font-family="monospace" font-size="14.00">EX_CallMath import /Script/Engine&#45;&gt;GameplayStatics&#45;&gt;DeactivateReverbEffect</text>
<text text-anchor="start" x="1553.5" y="-99.3" font-family="monospace" font-size="14.00">  EX_Self</text>
<text text-anchor="start" x="1553.5" y="-84.3" font-family="monospace" font-size="14.00">  EX_NameConst CaveReverb</text>
</g>
<!-- ExecuteUbergraph_BP_AudioVolume_Reverb_MediemCave__215&#45;&gt;ExecuteUbergraph_BP_AudioVolume_Reverb_MediemCave__229 -->
<g id="edge11" class="edge">
<title>ExecuteUbergraph_BP_AudioVolume_Reverb_MediemCave__215&#45;&gt;ExecuteUbergraph_BP_AudioVolume_Reverb_MediemCave__229</title>
<path fill="none" stroke="black" d="M1842.56,-219.06C1845.43,-199.02 1850.14,-166.03 1853.79,-140.5"/>
<polygon fill="black" stroke="black" points="1857.21,-141.26 1855.16,-130.87 1850.28,-140.27 1857.21,-141.26"/>
<text text-anchor="middle" x="1861.5" y="-151.8" font-family="monospace" font-size="14.00">IF</text>
</g>
<!-- ExecuteUbergraph_BP_AudioVolume_Reverb_MediemCave__215&#45;&gt;ExecuteUbergraph_BP_AudioVolume_Reverb_MediemCave__253 -->
<g id="edge10" class="edge">
<title>ExecuteUbergraph_BP_AudioVolume_Reverb_MediemCave__215:e&#45;&gt;ExecuteUbergraph_BP_AudioVolume_Reverb_MediemCave__253</title>
<path fill="none" stroke="red" d="M2056,-238C2068.79,-238 2056.25,-191.17 2064,-181 2098.63,-135.56 2135.82,-163.64 2182,-130 2186.41,-126.79 2228.59,-78.04 2255.55,-46.68"/>
<polygon fill="none" stroke="red" points="2257.86,-49.37 2261.72,-39.5 2252.55,-44.81 2257.86,-49.37"/>
<text text-anchor="middle" x="2254" y="-99.3" font-family="monospace" font-size="14.00">IF NOT</text>
</g>
<!-- ExecuteUbergraph_BP_AudioVolume_Reverb_MediemCave__229&#45;&gt;ExecuteUbergraph_BP_AudioVolume_Reverb_MediemCave__253 -->
<g id="edge12" class="edge">
<title>ExecuteUbergraph_BP_AudioVolume_Reverb_MediemCave__229&#45;&gt;ExecuteUbergraph_BP_AudioVolume_Reverb_MediemCave__253</title>
<path fill="none" stroke="black" d="M1989.85,-76.55C2062.37,-62.44 2149.61,-45.47 2208.96,-33.93"/>
<polygon fill="black" stroke="black" points="2209.44,-37.4 2218.59,-32.06 2208.1,-30.53 2209.44,-37.4"/>
</g>
<!-- ExecuteUbergraph_BP_AudioVolume_Reverb_MediemCave__255 -->
<g id="node14" class="node">
<title>ExecuteUbergraph_BP_AudioVolume_Reverb_MediemCave__255</title>
<polygon fill="#eeeeee" stroke="black" points="1986,-871.5 1986,-907.5 2118,-907.5 2118,-871.5 1986,-871.5"/>
<text text-anchor="start" x="1994" y="-885.8" font-family="monospace" font-size="14.00">EX_EndOfScript</text>
</g>
<!-- ReceiveActorEndOverlap -->
<g id="node15" class="node">
<title>ReceiveActorEndOverlap</title>
<polygon fill="#ff8888" stroke="black" points="1126,-1001.5 1126,-1054.5 1596,-1054.5 1596,-1001.5 1126,-1001.5"/>
<text text-anchor="start" x="1134" y="-1039.3" font-family="monospace" font-size="14.00">Function ReceiveActorEndOverlap</text>
<text text-anchor="start" x="1134" y="-1024.3" font-family="monospace" font-size="14.00">  ObjectProperty OtherActor</text>
<text text-anchor="start" x="1134" y="-1009.3" font-family="monospace" font-size="14.00">    CPF_BlueprintVisible|CPF_BlueprintReadOnly|CPF_Parm</text>
</g>
<!-- ReceiveActorEndOverlap__0 -->
<g id="node16" class="node">
<title>ReceiveActorEndOverlap__0</title>
<polygon fill="#eeeeee" stroke="black" points="1130,-757.5 1130,-795.5 1592,-795.5 1592,-757.5 1130,-757.5"/>
<text text-anchor="start" x="1138" y="-780.3" font-family="monospace" font-size="14.00">EX_LetValueOnPersistentFrame [K2Node_Event_OtherActor]</text>
<text text-anchor="start" x="1138" y="-765.3" font-family="monospace" font-size="14.00">  EX_LocalVariable [OtherActor]</text>
</g>
<!-- ReceiveActorEndOverlap&#45;&gt;ReceiveActorEndOverlap__0 -->
<g id="edge13" class="edge">
<title>ReceiveActorEndOverlap&#45;&gt;ReceiveActorEndOverlap__0</title>
<path fill="none" stroke="black" d="M1361,-1001.7C1361,-955.11 1361,-855.98 1361,-806.64"/>
<polygon fill="black" stroke="black" points="1364.5,-806.75 1361,-796.75 1357.5,-806.75 1364.5,-806.75"/>
</g>
<!-- ReceiveActorEndOverlap__18 -->
<g id="node17" class="node">
<title>ReceiveActorEndOverlap__18</title>
<polygon fill="#eeeeee" stroke="black" points="882.5,-573.5 882.5,-611.5 1839.5,-611.5 1839.5,-573.5 882.5,-573.5"/>
<text text-anchor="start" x="890.5" y="-596.3" font-family="monospace" font-size="14.00">EX_LocalFinalFunction export BP_AudioVolume_Reverb_MediemCave_C&#45;&gt;ExecuteUbergraph_BP_AudioVolume_Reverb_MediemCave</text>
<text text-anchor="start" x="890.5" y="-581.3" font-family="monospace" font-size="14.00">  EX_IntConst 150</text>
</g>
<!-- ReceiveActorEndOverlap__0&#45;&gt;ReceiveActorEndOverlap__18 -->
<g id="edge14" class="edge">
<title>ReceiveActorEndOverlap__0&#45;&gt;ReceiveActorEndOverlap__18</title>
<path fill="none" stroke="black" d="M1361,-757.72C1361,-726.32 1361,-660.79 1361,-622.68"/>
<polygon fill="black" stroke="black" points="1364.5,-622.87 1361,-612.87 1357.5,-622.87 1364.5,-622.87"/>
</g>
<!-- ReceiveActorEndOverlap__18&#45;&gt;ExecuteUbergraph_BP_AudioVolume_Reverb_MediemCave__150 -->
<g id="edge15" class="edge">
<title>ReceiveActorEndOverlap__18:e&#45;&gt;ExecuteUbergraph_BP_AudioVolume_Reverb_MediemCave__150</title>
<path fill="none" stroke="red" d="M1841,-592.5C1866.94,-592.5 1863.73,-560.05 1855.77,-531.23"/>
<polygon fill="none" stroke="red" points="1859.19,-530.46 1852.96,-521.88 1852.48,-532.47 1859.19,-530.46"/>
</g>
<!-- ReceiveActorEndOverlap__33 -->
<g id="node18" class="node">
<title>ReceiveActorEndOverlap__33</title>
<polygon fill="#eeeeee" stroke="black" points="1303,-467.5 1303,-505.5 1419,-505.5 1419,-467.5 1303,-467.5"/>
<text text-anchor="start" x="1311" y="-490.3" font-family="monospace" font-size="14.00">EX_Return</text>
<text text-anchor="start" x="1311" y="-475.3" font-family="monospace" font-size="14.00">  EX_Nothing</text>
</g>
<!-- ReceiveActorEndOverlap__18&#45;&gt;ReceiveActorEndOverlap__33 -->
<g id="edge16" class="edge">
<title>ReceiveActorEndOverlap__18&#45;&gt;ReceiveActorEndOverlap__33</title>
<path fill="none" stroke="black" d="M1361,-573.86C1361,-558.17 1361,-534.93 1361,-516.51"/>
<polygon fill="black" stroke="black" points="1364.5,-516.74 1361,-506.74 1357.5,-516.74 1364.5,-516.74"/>
</g>
<!-- ReceiveActorEndOverlap__35 -->
<g id="node19" class="node">
<title>ReceiveActorEndOverlap__35</title>
<polygon fill="#eeeeee" stroke="black" points="1986,-758.5 1986,-794.5 2118,-794.5 2118,-758.5 1986,-758.5"/>
<text text-anchor="start" x="1994" y="-772.8" font-family="monospace" font-size="14.00">EX_EndOfScript</text>
</g>
<!-- ReceiveActorBeginOverlap -->
<g id="node20" class="node">
<title>ReceiveActorBeginOverlap</title>
<polygon fill="#ff8888" stroke="black" points="1736,-1001.5 1736,-1054.5 2206,-1054.5 2206,-1001.5 1736,-1001.5"/>
<text text-anchor="start" x="1744" y="-1039.3" font-family="monospace" font-size="14.00">Function ReceiveActorBeginOverlap</text>
<text text-anchor="start" x="1744" y="-1024.3" font-family="monospace" font-size="14.00">  ObjectProperty OtherActor</text>
<text text-anchor="start" x="1744" y="-1009.3" font-family="monospace" font-size="14.00">    CPF_BlueprintVisible|CPF_BlueprintReadOnly|CPF_Parm</text>
</g>
<!-- ReceiveActorBeginOverlap__0 -->
<g id="node21" class="node">
<title>ReceiveActorBeginOverlap__0</title>
<polygon fill="#eeeeee" stroke="black" points="1731.5,-814.5 1731.5,-852.5 2210.5,-852.5 2210.5,-814.5 1731.5,-814.5"/>
<text text-anchor="start" x="1739.5" y="-837.3" font-family="monospace" font-size="14.00">EX_LetValueOnPersistentFrame [K2Node_Event_OtherActor_1]</text>
<text text-anchor="start" x="1739.5" y="-822.3" font-family="monospace" font-size="14.00">  EX_LocalVariable [OtherActor]</text>
</g>
<!-- ReceiveActorBeginOverlap&#45;&gt;ReceiveActorBeginOverlap__0 -->
<g id="edge17" class="edge">
<title>ReceiveActorBeginOverlap&#45;&gt;ReceiveActorBeginOverlap__0</title>
<path fill="none" stroke="black" d="M1971,-1001.83C1971,-966.25 1971,-901.36 1971,-863.7"/>
<polygon fill="black" stroke="black" points="1974.5,-864.01 1971,-854.01 1967.5,-864.01 1974.5,-864.01"/>
</g>
<!-- ReceiveActorBeginOverlap__18 -->
<g id="node22" class="node">
<title>ReceiveActorBeginOverlap__18</title>
<polygon fill="#eeeeee" stroke="black" points="1492.5,-700.5 1492.5,-738.5 2449.5,-738.5 2449.5,-700.5 1492.5,-700.5"/>
<text text-anchor="start" x="1500.5" y="-723.3" font-family="monospace" font-size="14.00">EX_LocalFinalFunction export BP_AudioVolume_Reverb_MediemCave_C&#45;&gt;ExecuteUbergraph_BP_AudioVolume_Reverb_MediemCave</text>
<text text-anchor="start" x="1500.5" y="-708.3" font-family="monospace" font-size="14.00">  EX_IntConst 10</text>
</g>
<!-- ReceiveActorBeginOverlap__0&#45;&gt;ReceiveActorBeginOverlap__18 -->
<g id="edge18" class="edge">
<title>ReceiveActorBeginOverlap__0&#45;&gt;ReceiveActorBeginOverlap__18</title>
<path fill="none" stroke="black" d="M1971,-814.51C1971,-797.03 1971,-770.22 1971,-749.69"/>
<polygon fill="black" stroke="black" points="1974.5,-749.96 1971,-739.96 1967.5,-749.96 1974.5,-749.96"/>
</g>
<!-- ReceiveActorBeginOverlap__18&#45;&gt;ExecuteUbergraph_BP_AudioVolume_Reverb_MediemCave__10 -->
<g id="edge19" class="edge">
<title>ReceiveActorBeginOverlap__18:e&#45;&gt;ExecuteUbergraph_BP_AudioVolume_Reverb_MediemCave__10</title>
<path fill="none" stroke="red" d="M2451,-719.5C2467.9,-719.5 2464.04,-673.6 2458.31,-637.2"/>
<polygon fill="none" stroke="red" points="2461.84,-637.06 2456.75,-627.77 2454.93,-638.21 2461.84,-637.06"/>
</g>
<!-- ReceiveActorBeginOverlap__33 -->
<g id="node23" class="node">
<title>ReceiveActorBeginOverlap__33</title>
<polygon fill="#eeeeee" stroke="black" points="1913,-573.5 1913,-611.5 2029,-611.5 2029,-573.5 1913,-573.5"/>
<text text-anchor="start" x="1921" y="-596.3" font-family="monospace" font-size="14.00">EX_Return</text>
<text text-anchor="start" x="1921" y="-581.3" font-family="monospace" font-size="14.00">  EX_Nothing</text>
</g>
<!-- ReceiveActorBeginOverlap__18&#45;&gt;ReceiveActorBeginOverlap__33 -->
<g id="edge20" class="edge">
<title>ReceiveActorBeginOverlap__18&#45;&gt;ReceiveActorBeginOverlap__33</title>
<path fill="none" stroke="black" d="M1971,-700.59C1971,-680.26 1971,-646.8 1971,-622.69"/>
<polygon fill="black" stroke="black" points="1974.5,-622.89 1971,-612.89 1967.5,-622.89 1974.5,-622.89"/>
</g>
<!-- ReceiveActorBeginOverlap__35 -->
<g id="node24" class="node">
<title>ReceiveActorBeginOverlap__35</title>
<polygon fill="#eeeeee" stroke="black" points="2465,-645.5 2465,-681.5 2597,-681.5 2597,-645.5 2465,-645.5"/>
<text text-anchor="start" x="2473" y="-659.8" font-family="monospace" font-size="14.00">EX_EndOfScript</text>
</g>
</g>
</svg>
