<?xml version="1.0" encoding="UTF-8" standalone="no"?>
<!DOCTYPE svg PUBLIC "-//W3C//DTD SVG 1.1//EN"
 "http://www.w3.org/Graphics/SVG/1.1/DTD/svg11.dtd">
<!-- Generated by graphviz version 7.0.1 (0)
 -->
<!-- Pages: 1 -->
<svg width="1100pt" height="422pt"
 viewBox="0.00 0.00 1100.00 422.00" xmlns="http://www.w3.org/2000/svg" xmlns:xlink="http://www.w3.org/1999/xlink">
<g id="graph0" class="graph" transform="scale(1 1) rotate(0) translate(4 418)">
<polygon fill="white" stroke="none" points="-4,4 -4,-418 1096,-418 1096,4 -4,4"/>
<!-- BP_EletrocutedSentry_C -->
<g id="node1" class="node">
<title>BP_EletrocutedSentry_C</title>
<polygon fill="#88ff88" stroke="black" points="0,-210.5 0,-413.5 594,-413.5 594,-210.5 0,-210.5"/>
<text text-anchor="start" x="8" y="-398.3" font-family="monospace" font-size="14.00">ClassExport: BP_EletrocutedSentry_C</text>
<text text-anchor="start" x="8" y="-383.3" font-family="monospace" font-size="14.00">  SuperStruct: import /Script/Engine&#45;&gt;Actor</text>
<text text-anchor="start" x="8" y="-368.3" font-family="monospace" font-size="14.00">  Properties:</text>
<text text-anchor="start" x="8" y="-353.3" font-family="monospace" font-size="14.00">    ObjectProperty Sphere</text>
<text text-anchor="start" x="8" y="-338.3" font-family="monospace" font-size="14.00">      CPF_BlueprintVisible|CPF_InstancedReference|CPF_NonTransactional</text>
<text text-anchor="start" x="8" y="-323.3" font-family="monospace" font-size="14.00">    ObjectProperty StatusEffectTrigger</text>
<text text-anchor="start" x="8" y="-308.3" font-family="monospace" font-size="14.00">      CPF_BlueprintVisible|CPF_InstancedReference|CPF_NonTransactional</text>
<text text-anchor="start" x="8" y="-293.3" font-family="monospace" font-size="14.00">    ObjectProperty Audio</text>
<text text-anchor="start" x="8" y="-278.3" font-family="monospace" font-size="14.00">      CPF_BlueprintVisible|CPF_InstancedReference|CPF_NonTransactional</text>
<text text-anchor="start" x="8" y="-263.3" font-family="monospace" font-size="14.00">    ObjectProperty ParticleSystem</text>
<text text-anchor="start" x="8" y="-248.3" font-family="monospace" font-size="14.00">      CPF_BlueprintVisible|CPF_InstancedReference|CPF_NonTransactional</text>
<text text-anchor="start" x="8" y="-233.3" font-family="monospace" font-size="14.00">    ObjectProperty DefaultSceneRoot</text>
<text text-anchor="start" x="8" y="-218.3" font-family="monospace" font-size="14.00">      CPF_BlueprintVisible|CPF_InstancedReference|CPF_NonTransactional</text>
</g>
<!-- UserConstructionScript -->
<g id="node2" class="node">
<title>UserConstructionScript</title>
<polygon fill="#ff8888" stroke="black" points="612,-294 612,-330 884,-330 884,-294 612,-294"/>
<text text-anchor="start" x="620" y="-308.3" font-family="monospace" font-size="14.00">Function UserConstructionScript</text>
</g>
<!-- UserConstructionScript__0 -->
<g id="node3" class="node">
<title>UserConstructionScript__0</title>
<polygon fill="#eeeeee" stroke="black" points="554,-75.5 554,-173.5 942,-173.5 942,-75.5 554,-75.5"/>
<text text-anchor="start" x="562" y="-158.3" font-family="monospace" font-size="14.00">EX_LetObj</text>
<text text-anchor="start" x="562" y="-143.3" font-family="monospace" font-size="14.00">  EX_Context</text>
<text text-anchor="start" x="562" y="-128.3" font-family="monospace" font-size="14.00">    EX_InstanceVariable [StatusEffectTrigger]</text>
<text text-anchor="start" x="562" y="-113.3" font-family="monospace" font-size="14.00">    EX_InstanceVariable [Collider]</text>
<text text-anchor="start" x="562" y="-98.3" font-family="monospace" font-size="14.00">    RValue = [Collider]</text>
<text text-anchor="start" x="562" y="-83.3" font-family="monospace" font-size="14.00">  EX_InstanceVariable [Sphere]</text>
</g>
<!-- UserConstructionScript&#45;&gt;UserConstructionScript__0 -->
<g id="edge1" class="edge">
<title>UserConstructionScript&#45;&gt;UserConstructionScript__0</title>
<path fill="none" stroke="black" d="M748,-294.21C748,-269.72 748,-222.97 748,-184.89"/>
<polygon fill="black" stroke="black" points="751.5,-184.89 748,-174.89 744.5,-184.89 751.5,-184.89"/>
</g>
<!-- UserConstructionScript__41 -->
<g id="node4" class="node">
<title>UserConstructionScript__41</title>
<polygon fill="#eeeeee" stroke="black" points="690,-0.5 690,-38.5 806,-38.5 806,-0.5 690,-0.5"/>
<text text-anchor="start" x="698" y="-23.3" font-family="monospace" font-size="14.00">EX_Return</text>
<text text-anchor="start" x="698" y="-8.3" font-family="monospace" font-size="14.00">  EX_Nothing</text>
</g>
<!-- UserConstructionScript__0&#45;&gt;UserConstructionScript__41 -->
<g id="edge2" class="edge">
<title>UserConstructionScript__0&#45;&gt;UserConstructionScript__41</title>
<path fill="none" stroke="black" d="M748,-75.62C748,-66.83 748,-57.89 748,-49.85"/>
<polygon fill="black" stroke="black" points="751.5,-49.98 748,-39.98 744.5,-49.98 751.5,-49.98"/>
</g>
<!-- UserConstructionScript__43 -->
<g id="node5" class="node">
<title>UserConstructionScript__43</title>
<polygon fill="#eeeeee" stroke="black" points="960,-106.5 960,-142.5 1092,-142.5 1092,-106.5 960,-106.5"/>
<text text-anchor="start" x="968" y="-120.8" font-family="monospace" font-size="14.00">EX_EndOfScript</text>
</g>
</g>
</svg>
