<?xml version="1.0" encoding="UTF-8" standalone="no"?>
<!DOCTYPE svg PUBLIC "-//W3C//DTD SVG 1.1//EN"
 "http://www.w3.org/Graphics/SVG/1.1/DTD/svg11.dtd">
<!-- Generated by graphviz version 7.0.1 (0)
 -->
<!-- Pages: 1 -->
<svg width="1472pt" height="332pt"
 viewBox="0.00 0.00 1471.50 332.00" xmlns="http://www.w3.org/2000/svg" xmlns:xlink="http://www.w3.org/1999/xlink">
<g id="graph0" class="graph" transform="scale(1 1) rotate(0) translate(4 328)">
<polygon fill="white" stroke="none" points="-4,4 -4,-328 1467.5,-328 1467.5,4 -4,4"/>
<!-- ABP_ZipLineGun_A_AnimBlueprint_C -->
<g id="node1" class="node">
<title>ABP_ZipLineGun_A_AnimBlueprint_C</title>
<polygon fill="#88ff88" stroke="black" points="0,-195.5 0,-323.5 429,-323.5 429,-195.5 0,-195.5"/>
<text text-anchor="start" x="8" y="-308.3" font-family="monospace" font-size="14.00">ClassExport: ABP_ZipLineGun_A_AnimBlueprint_C</text>
<text text-anchor="start" x="8" y="-293.3" font-family="monospace" font-size="14.00">  SuperStruct: import /Script/Engine&#45;&gt;AnimInstance</text>
<text text-anchor="start" x="8" y="-278.3" font-family="monospace" font-size="14.00">  Properties:</text>
<text text-anchor="start" x="8" y="-263.3" font-family="monospace" font-size="14.00">    StructProperty UberGraphFrame</text>
<text text-anchor="start" x="8" y="-248.3" font-family="monospace" font-size="14.00">      CPF_Transient|CPF_DuplicateTransient</text>
<text text-anchor="start" x="8" y="-233.3" font-family="monospace" font-size="14.00">    StructProperty AnimGraphNode_Root</text>
<text text-anchor="start" x="8" y="-218.3" font-family="monospace" font-size="14.00">    StructProperty AnimGraphNode_Slot</text>
<text text-anchor="start" x="8" y="-203.3" font-family="monospace" font-size="14.00">    StructProperty AnimGraphNode_SequenceEvaluator</text>
</g>
<!-- ExecuteUbergraph_ABP_ZipLineGun_A_AnimBlueprint -->
<g id="node2" class="node">
<title>ExecuteUbergraph_ABP_ZipLineGun_A_AnimBlueprint</title>
<polygon fill="#ff8888" stroke="black" points="447,-233 447,-286 926,-286 926,-233 447,-233"/>
<text text-anchor="start" x="455" y="-270.8" font-family="monospace" font-size="14.00">Function ExecuteUbergraph_ABP_ZipLineGun_A_AnimBlueprint</text>
<text text-anchor="start" x="455" y="-255.8" font-family="monospace" font-size="14.00">  IntProperty EntryPoint</text>
<text text-anchor="start" x="455" y="-240.8" font-family="monospace" font-size="14.00">    CPF_BlueprintVisible|CPF_BlueprintReadOnly|CPF_Parm</text>
</g>
<!-- ExecuteUbergraph_ABP_ZipLineGun_A_AnimBlueprint__0 -->
<g id="node3" class="node">
<title>ExecuteUbergraph_ABP_ZipLineGun_A_AnimBlueprint__0</title>
<polygon fill="#eeeeee" stroke="black" points="550.5,-98 550.5,-136 822.5,-136 822.5,-98 550.5,-98"/>
<text text-anchor="start" x="558.5" y="-120.8" font-family="monospace" font-size="14.00">EX_ComputedJump</text>
<text text-anchor="start" x="558.5" y="-105.8" font-family="monospace" font-size="14.00">  EX_LocalVariable [EntryPoint]</text>
</g>
<!-- ExecuteUbergraph_ABP_ZipLineGun_A_AnimBlueprint&#45;&gt;ExecuteUbergraph_ABP_ZipLineGun_A_AnimBlueprint__0 -->
<g id="edge1" class="edge">
<title>ExecuteUbergraph_ABP_ZipLineGun_A_AnimBlueprint&#45;&gt;ExecuteUbergraph_ABP_ZipLineGun_A_AnimBlueprint__0</title>
<path fill="none" stroke="black" d="M686.5,-233.06C686.5,-208.86 686.5,-172.5 686.5,-147.15"/>
<polygon fill="black" stroke="black" points="690,-147.21 686.5,-137.21 683,-147.21 690,-147.21"/>
</g>
<!-- ExecuteUbergraph_ABP_ZipLineGun_A_AnimBlueprint__10 -->
<g id="node4" class="node">
<title>ExecuteUbergraph_ABP_ZipLineGun_A_AnimBlueprint__10</title>
<polygon fill="#eeeeee" stroke="black" points="1005.5,-0.5 1005.5,-38.5 1121.5,-38.5 1121.5,-0.5 1005.5,-0.5"/>
<text text-anchor="start" x="1013.5" y="-23.3" font-family="monospace" font-size="14.00">EX_Return</text>
<text text-anchor="start" x="1013.5" y="-8.3" font-family="monospace" font-size="14.00">  EX_Nothing</text>
</g>
<!-- ExecuteUbergraph_ABP_ZipLineGun_A_AnimBlueprint__12 -->
<g id="node5" class="node">
<title>ExecuteUbergraph_ABP_ZipLineGun_A_AnimBlueprint__12</title>
<polygon fill="#eeeeee" stroke="black" points="840.5,-99 840.5,-135 972.5,-135 972.5,-99 840.5,-99"/>
<text text-anchor="start" x="848.5" y="-113.3" font-family="monospace" font-size="14.00">EX_EndOfScript</text>
</g>
<!-- AnimGraph -->
<g id="node6" class="node">
<title>AnimGraph</title>
<polygon fill="#ff8888" stroke="black" points="1082,-233 1082,-286 1313,-286 1313,-233 1082,-233"/>
<text text-anchor="start" x="1090" y="-270.8" font-family="monospace" font-size="14.00">Function AnimGraph</text>
<text text-anchor="start" x="1090" y="-255.8" font-family="monospace" font-size="14.00">  StructProperty AnimGraph</text>
<text text-anchor="start" x="1090" y="-240.8" font-family="monospace" font-size="14.00">    CPF_Parm|CPF_OutParm</text>
</g>
<!-- AnimGraph__0 -->
<g id="node7" class="node">
<title>AnimGraph__0</title>
<polygon fill="#eeeeee" stroke="black" points="991,-75.5 991,-158.5 1404,-158.5 1404,-75.5 991,-75.5"/>
<text text-anchor="start" x="999" y="-143.3" font-family="monospace" font-size="14.00">EX_Let</text>
<text text-anchor="start" x="999" y="-128.3" font-family="monospace" font-size="14.00">  EX_LocalOutVariable</text>
<text text-anchor="start" x="999" y="-113.3" font-family="monospace" font-size="14.00">    [AnimGraph]</text>
<text text-anchor="start" x="999" y="-98.3" font-family="monospace" font-size="14.00">  EX_StructConst import /Script/Engine&#45;&gt;PoseLink</text>
<text text-anchor="start" x="999" y="-83.3" font-family="monospace" font-size="14.00">    EX_IntConst &#45;1</text>
</g>
<!-- AnimGraph&#45;&gt;AnimGraph__0 -->
<g id="edge2" class="edge">
<title>AnimGraph&#45;&gt;AnimGraph__0</title>
<path fill="none" stroke="black" d="M1197.5,-233.06C1197.5,-215.43 1197.5,-191.34 1197.5,-169.75"/>
<polygon fill="black" stroke="black" points="1201,-169.93 1197.5,-159.93 1194,-169.93 1201,-169.93"/>
</g>
<!-- AnimGraph__37 -->
<g id="node8" class="node">
<title>AnimGraph__37</title>
<polygon fill="#eeeeee" stroke="black" points="1139.5,-0.5 1139.5,-38.5 1255.5,-38.5 1255.5,-0.5 1139.5,-0.5"/>
<text text-anchor="start" x="1147.5" y="-23.3" font-family="monospace" font-size="14.00">EX_Return</text>
<text text-anchor="start" x="1147.5" y="-8.3" font-family="monospace" font-size="14.00">  EX_Nothing</text>
</g>
<!-- AnimGraph__0&#45;&gt;AnimGraph__37 -->
<g id="edge3" class="edge">
<title>AnimGraph__0&#45;&gt;AnimGraph__37</title>
<path fill="none" stroke="black" d="M1197.5,-75.78C1197.5,-67.01 1197.5,-57.89 1197.5,-49.65"/>
<polygon fill="black" stroke="black" points="1201,-49.86 1197.5,-39.86 1194,-49.86 1201,-49.86"/>
</g>
<!-- AnimGraph__39 -->
<g id="node9" class="node">
<title>AnimGraph__39</title>
<polygon fill="#eeeeee" stroke="black" points="1331.5,-241.5 1331.5,-277.5 1463.5,-277.5 1463.5,-241.5 1331.5,-241.5"/>
<text text-anchor="start" x="1339.5" y="-255.8" font-family="monospace" font-size="14.00">EX_EndOfScript</text>
</g>
</g>
</svg>
