<?xml version="1.0" encoding="UTF-8" standalone="no"?>
<!DOCTYPE svg PUBLIC "-//W3C//DTD SVG 1.1//EN"
 "http://www.w3.org/Graphics/SVG/1.1/DTD/svg11.dtd">
<!-- Generated by graphviz version 7.0.1 (0)
 -->
<!-- Pages: 1 -->
<svg width="3364pt" height="825pt"
 viewBox="0.00 0.00 3363.50 825.00" xmlns="http://www.w3.org/2000/svg" xmlns:xlink="http://www.w3.org/1999/xlink">
<g id="graph0" class="graph" transform="scale(1 1) rotate(0) translate(4 821)">
<polygon fill="white" stroke="none" points="-4,4 -4,-821 3359.5,-821 3359.5,4 -4,4"/>
<!-- WeaponDisplay_Zipline_AmmoCount2_C -->
<g id="node1" class="node">
<title>WeaponDisplay_Zipline_AmmoCount2_C</title>
<polygon fill="#88ff88" stroke="black" points="0,-583.5 0,-816.5 891,-816.5 891,-583.5 0,-583.5"/>
<text text-anchor="start" x="8" y="-801.3" font-family="monospace" font-size="14.00">ClassExport: WeaponDisplay_Zipline_AmmoCount2_C</text>
<text text-anchor="start" x="8" y="-786.3" font-family="monospace" font-size="14.00">  SuperStruct: import /Game/UI/WeaponDisplays/WeaponDisplay_Base_AmmoCount&#45;&gt;WeaponDisplay_Base_AmmoCount_C</text>
<text text-anchor="start" x="8" y="-771.3" font-family="monospace" font-size="14.00">  Properties:</text>
<text text-anchor="start" x="8" y="-756.3" font-family="monospace" font-size="14.00">    StructProperty UberGraphFrame</text>
<text text-anchor="start" x="8" y="-741.3" font-family="monospace" font-size="14.00">      CPF_Transient|CPF_DuplicateTransient</text>
<text text-anchor="start" x="8" y="-726.3" font-family="monospace" font-size="14.00">    ObjectProperty AmmoBox</text>
<text text-anchor="start" x="8" y="-711.3" font-family="monospace" font-size="14.00">      CPF_BlueprintVisible|CPF_ExportObject|CPF_InstancedReference|CPF_RepSkip|CPF_PersistentInstance</text>
<text text-anchor="start" x="8" y="-696.3" font-family="monospace" font-size="14.00">    ObjectProperty AmmoCount</text>
<text text-anchor="start" x="8" y="-681.3" font-family="monospace" font-size="14.00">      CPF_BlueprintVisible|CPF_ExportObject|CPF_InstancedReference|CPF_RepSkip|CPF_PersistentInstance</text>
<text text-anchor="start" x="8" y="-666.3" font-family="monospace" font-size="14.00">    ObjectProperty AnimatedStaticOverlay_WithScanlines_LightVersion</text>
<text text-anchor="start" x="8" y="-651.3" font-family="monospace" font-size="14.00">      CPF_BlueprintVisible|CPF_ExportObject|CPF_InstancedReference|CPF_RepSkip|CPF_PersistentInstance</text>
<text text-anchor="start" x="8" y="-636.3" font-family="monospace" font-size="14.00">    ObjectProperty Image_88</text>
<text text-anchor="start" x="8" y="-621.3" font-family="monospace" font-size="14.00">      CPF_BlueprintVisible|CPF_ExportObject|CPF_InstancedReference|CPF_RepSkip|CPF_PersistentInstance</text>
<text text-anchor="start" x="8" y="-606.3" font-family="monospace" font-size="14.00">    ObjectProperty MaxAmmo</text>
<text text-anchor="start" x="8" y="-591.3" font-family="monospace" font-size="14.00">      CPF_BlueprintVisible|CPF_ExportObject|CPF_InstancedReference|CPF_RepSkip|CPF_PersistentInstance</text>
</g>
<!-- ExecuteUbergraph_WeaponDisplay_Zipline_AmmoCount2 -->
<g id="node2" class="node">
<title>ExecuteUbergraph_WeaponDisplay_Zipline_AmmoCount2</title>
<polygon fill="#ff8888" stroke="black" points="909,-643.5 909,-756.5 1404,-756.5 1404,-643.5 909,-643.5"/>
<text text-anchor="start" x="917" y="-741.3" font-family="monospace" font-size="14.00">Function ExecuteUbergraph_WeaponDisplay_Zipline_AmmoCount2</text>
<text text-anchor="start" x="917" y="-726.3" font-family="monospace" font-size="14.00">  IntProperty EntryPoint</text>
<text text-anchor="start" x="917" y="-711.3" font-family="monospace" font-size="14.00">    CPF_BlueprintVisible|CPF_BlueprintReadOnly|CPF_Parm</text>
<text text-anchor="start" x="917" y="-696.3" font-family="monospace" font-size="14.00">  IntProperty K2Node_Event_Value_1</text>
<text text-anchor="start" x="917" y="-681.3" font-family="monospace" font-size="14.00">  IntProperty K2Node_Event_Value</text>
<text text-anchor="start" x="917" y="-666.3" font-family="monospace" font-size="14.00">  TextProperty CallFunc_Conv_IntToText_ReturnValue</text>
<text text-anchor="start" x="917" y="-651.3" font-family="monospace" font-size="14.00">  TextProperty CallFunc_Conv_IntToText_ReturnValue_1</text>
</g>
<!-- ExecuteUbergraph_WeaponDisplay_Zipline_AmmoCount2__0 -->
<g id="node3" class="node">
<title>ExecuteUbergraph_WeaponDisplay_Zipline_AmmoCount2__0</title>
<polygon fill="#eeeeee" stroke="black" points="1020.5,-508.5 1020.5,-546.5 1292.5,-546.5 1292.5,-508.5 1020.5,-508.5"/>
<text text-anchor="start" x="1028.5" y="-531.3" font-family="monospace" font-size="14.00">EX_ComputedJump</text>
<text text-anchor="start" x="1028.5" y="-516.3" font-family="monospace" font-size="14.00">  EX_LocalVariable [EntryPoint]</text>
</g>
<!-- ExecuteUbergraph_WeaponDisplay_Zipline_AmmoCount2&#45;&gt;ExecuteUbergraph_WeaponDisplay_Zipline_AmmoCount2__0 -->
<g id="edge1" class="edge">
<title>ExecuteUbergraph_WeaponDisplay_Zipline_AmmoCount2&#45;&gt;ExecuteUbergraph_WeaponDisplay_Zipline_AmmoCount2__0</title>
<path fill="none" stroke="black" d="M1156.5,-643.64C1156.5,-614.99 1156.5,-581.19 1156.5,-557.65"/>
<polygon fill="black" stroke="black" points="1160,-557.87 1156.5,-547.87 1153,-557.87 1160,-557.87"/>
</g>
<!-- ExecuteUbergraph_WeaponDisplay_Zipline_AmmoCount2__10 -->
<g id="node4" class="node">
<title>ExecuteUbergraph_WeaponDisplay_Zipline_AmmoCount2__10</title>
<polygon fill="#eeeeee" stroke="black" points="2761.5,-268.5 2761.5,-396.5 3355.5,-396.5 3355.5,-268.5 2761.5,-268.5"/>
<text text-anchor="start" x="2769.5" y="-381.3" font-family="monospace" font-size="14.00">EX_Let</text>
<text text-anchor="start" x="2769.5" y="-366.3" font-family="monospace" font-size="14.00">  EX_LocalVariable [CallFunc_Conv_IntToText_ReturnValue]</text>
<text text-anchor="start" x="2769.5" y="-351.3" font-family="monospace" font-size="14.00">  EX_CallMath import /Script/Engine&#45;&gt;KismetTextLibrary&#45;&gt;Conv_IntToText</text>
<text text-anchor="start" x="2769.5" y="-336.3" font-family="monospace" font-size="14.00">    EX_LocalVariable [K2Node_Event_Value_1]</text>
<text text-anchor="start" x="2769.5" y="-321.3" font-family="monospace" font-size="14.00">    EX_False</text>
<text text-anchor="start" x="2769.5" y="-306.3" font-family="monospace" font-size="14.00">    EX_True</text>
<text text-anchor="start" x="2769.5" y="-291.3" font-family="monospace" font-size="14.00">    EX_IntConst 1</text>
<text text-anchor="start" x="2769.5" y="-276.3" font-family="monospace" font-size="14.00">    EX_IntConst 324</text>
</g>
<!-- ExecuteUbergraph_WeaponDisplay_Zipline_AmmoCount2__59 -->
<g id="node5" class="node">
<title>ExecuteUbergraph_WeaponDisplay_Zipline_AmmoCount2__59</title>
<polygon fill="#eeeeee" stroke="black" points="2726,-148.5 2726,-231.5 3221,-231.5 3221,-148.5 2726,-148.5"/>
<text text-anchor="start" x="2734" y="-216.3" font-family="monospace" font-size="14.00">EX_Context</text>
<text text-anchor="start" x="2734" y="-201.3" font-family="monospace" font-size="14.00">  EX_InstanceVariable [MaxAmmo]</text>
<text text-anchor="start" x="2734" y="-186.3" font-family="monospace" font-size="14.00">  EX_VirtualFunction SetText</text>
<text text-anchor="start" x="2734" y="-171.3" font-family="monospace" font-size="14.00">    EX_LocalVariable [CallFunc_Conv_IntToText_ReturnValue]</text>
<text text-anchor="start" x="2734" y="-156.3" font-family="monospace" font-size="14.00">  RValue = []</text>
</g>
<!-- ExecuteUbergraph_WeaponDisplay_Zipline_AmmoCount2__10&#45;&gt;ExecuteUbergraph_WeaponDisplay_Zipline_AmmoCount2__59 -->
<g id="edge2" class="edge">
<title>ExecuteUbergraph_WeaponDisplay_Zipline_AmmoCount2__10&#45;&gt;ExecuteUbergraph_WeaponDisplay_Zipline_AmmoCount2__59</title>
<path fill="none" stroke="black" d="M3020.48,-268.65C3014.89,-259.41 3009.19,-250 3003.79,-241.07"/>
<polygon fill="black" stroke="black" points="3006.79,-239.26 2998.61,-232.51 3000.8,-242.88 3006.79,-239.26"/>
</g>
<!-- ExecuteUbergraph_WeaponDisplay_Zipline_AmmoCount2__104 -->
<g id="node6" class="node">
<title>ExecuteUbergraph_WeaponDisplay_Zipline_AmmoCount2__104</title>
<polygon fill="#eeeeee" stroke="black" points="2726,-75.5 2726,-111.5 2833,-111.5 2833,-75.5 2726,-75.5"/>
<text text-anchor="start" x="2734" y="-89.8" font-family="monospace" font-size="14.00">EX_Jump 203</text>
</g>
<!-- ExecuteUbergraph_WeaponDisplay_Zipline_AmmoCount2__59&#45;&gt;ExecuteUbergraph_WeaponDisplay_Zipline_AmmoCount2__104 -->
<g id="edge3" class="edge">
<title>ExecuteUbergraph_WeaponDisplay_Zipline_AmmoCount2__59&#45;&gt;ExecuteUbergraph_WeaponDisplay_Zipline_AmmoCount2__104</title>
<path fill="none" stroke="black" d="M2890.38,-148.51C2867.72,-137.47 2844.02,-125.93 2824.38,-116.36"/>
<polygon fill="black" stroke="black" points="2826.09,-113.3 2815.57,-112.07 2823.03,-119.6 2826.09,-113.3"/>
</g>
<!-- ExecuteUbergraph_WeaponDisplay_Zipline_AmmoCount2__203 -->
<g id="node9" class="node">
<title>ExecuteUbergraph_WeaponDisplay_Zipline_AmmoCount2__203</title>
<polygon fill="#eeeeee" stroke="black" points="2570.5,-0.5 2570.5,-38.5 2686.5,-38.5 2686.5,-0.5 2570.5,-0.5"/>
<text text-anchor="start" x="2578.5" y="-23.3" font-family="monospace" font-size="14.00">EX_Return</text>
<text text-anchor="start" x="2578.5" y="-8.3" font-family="monospace" font-size="14.00">  EX_Nothing</text>
</g>
<!-- ExecuteUbergraph_WeaponDisplay_Zipline_AmmoCount2__104&#45;&gt;ExecuteUbergraph_WeaponDisplay_Zipline_AmmoCount2__203 -->
<g id="edge4" class="edge">
<title>ExecuteUbergraph_WeaponDisplay_Zipline_AmmoCount2__104&#45;&gt;ExecuteUbergraph_WeaponDisplay_Zipline_AmmoCount2__203</title>
<path fill="none" stroke="black" d="M2744.1,-75.62C2723.85,-65.97 2698.19,-53.73 2676.19,-43.24"/>
<polygon fill="black" stroke="black" points="2677.95,-40.2 2667.42,-39.06 2674.94,-46.52 2677.95,-40.2"/>
</g>
<!-- ExecuteUbergraph_WeaponDisplay_Zipline_AmmoCount2__109 -->
<g id="node7" class="node">
<title>ExecuteUbergraph_WeaponDisplay_Zipline_AmmoCount2__109</title>
<polygon fill="#eeeeee" stroke="black" points="1901.5,-268.5 1901.5,-396.5 2495.5,-396.5 2495.5,-268.5 1901.5,-268.5"/>
<text text-anchor="start" x="1909.5" y="-381.3" font-family="monospace" font-size="14.00">EX_Let</text>
<text text-anchor="start" x="1909.5" y="-366.3" font-family="monospace" font-size="14.00">  EX_LocalVariable [CallFunc_Conv_IntToText_ReturnValue_1]</text>
<text text-anchor="start" x="1909.5" y="-351.3" font-family="monospace" font-size="14.00">  EX_CallMath import /Script/Engine&#45;&gt;KismetTextLibrary&#45;&gt;Conv_IntToText</text>
<text text-anchor="start" x="1909.5" y="-336.3" font-family="monospace" font-size="14.00">    EX_LocalVariable [K2Node_Event_Value]</text>
<text text-anchor="start" x="1909.5" y="-321.3" font-family="monospace" font-size="14.00">    EX_False</text>
<text text-anchor="start" x="1909.5" y="-306.3" font-family="monospace" font-size="14.00">    EX_True</text>
<text text-anchor="start" x="1909.5" y="-291.3" font-family="monospace" font-size="14.00">    EX_IntConst 1</text>
<text text-anchor="start" x="1909.5" y="-276.3" font-family="monospace" font-size="14.00">    EX_IntConst 324</text>
</g>
<!-- ExecuteUbergraph_WeaponDisplay_Zipline_AmmoCount2__158 -->
<g id="node8" class="node">
<title>ExecuteUbergraph_WeaponDisplay_Zipline_AmmoCount2__158</title>
<polygon fill="#eeeeee" stroke="black" points="2111.5,-148.5 2111.5,-231.5 2623.5,-231.5 2623.5,-148.5 2111.5,-148.5"/>
<text text-anchor="start" x="2119.5" y="-216.3" font-family="monospace" font-size="14.00">EX_Context</text>
<text text-anchor="start" x="2119.5" y="-201.3" font-family="monospace" font-size="14.00">  EX_InstanceVariable [AmmoCount]</text>
<text text-anchor="start" x="2119.5" y="-186.3" font-family="monospace" font-size="14.00">  EX_VirtualFunction SetText</text>
<text text-anchor="start" x="2119.5" y="-171.3" font-family="monospace" font-size="14.00">    EX_LocalVariable [CallFunc_Conv_IntToText_ReturnValue_1]</text>
<text text-anchor="start" x="2119.5" y="-156.3" font-family="monospace" font-size="14.00">  RValue = []</text>
</g>
<!-- ExecuteUbergraph_WeaponDisplay_Zipline_AmmoCount2__109&#45;&gt;ExecuteUbergraph_WeaponDisplay_Zipline_AmmoCount2__158 -->
<g id="edge5" class="edge">
<title>ExecuteUbergraph_WeaponDisplay_Zipline_AmmoCount2__109&#45;&gt;ExecuteUbergraph_WeaponDisplay_Zipline_AmmoCount2__158</title>
<path fill="none" stroke="black" d="M2274.1,-268.65C2286.29,-258.52 2298.72,-248.18 2310.38,-238.49"/>
<polygon fill="black" stroke="black" points="2312.51,-241.27 2317.96,-232.19 2308.03,-235.89 2312.51,-241.27"/>
</g>
<!-- ExecuteUbergraph_WeaponDisplay_Zipline_AmmoCount2__158&#45;&gt;ExecuteUbergraph_WeaponDisplay_Zipline_AmmoCount2__203 -->
<g id="edge6" class="edge">
<title>ExecuteUbergraph_WeaponDisplay_Zipline_AmmoCount2__158&#45;&gt;ExecuteUbergraph_WeaponDisplay_Zipline_AmmoCount2__203</title>
<path fill="none" stroke="black" d="M2430.02,-148.64C2480.28,-116.19 2549.21,-71.69 2591.2,-44.58"/>
<polygon fill="black" stroke="black" points="2592.99,-47.59 2599.49,-39.23 2589.19,-41.71 2592.99,-47.59"/>
</g>
<!-- ExecuteUbergraph_WeaponDisplay_Zipline_AmmoCount2__205 -->
<g id="node10" class="node">
<title>ExecuteUbergraph_WeaponDisplay_Zipline_AmmoCount2__205</title>
<polygon fill="#eeeeee" stroke="black" points="2851.5,-75.5 2851.5,-111.5 2983.5,-111.5 2983.5,-75.5 2851.5,-75.5"/>
<text text-anchor="start" x="2859.5" y="-89.8" font-family="monospace" font-size="14.00">EX_EndOfScript</text>
</g>
<!-- SetClipCount -->
<g id="node11" class="node">
<title>SetClipCount</title>
<polygon fill="#ff8888" stroke="black" points="1422.5,-673.5 1422.5,-726.5 1892.5,-726.5 1892.5,-673.5 1422.5,-673.5"/>
<text text-anchor="start" x="1430.5" y="-711.3" font-family="monospace" font-size="14.00">Function SetClipCount</text>
<text text-anchor="start" x="1430.5" y="-696.3" font-family="monospace" font-size="14.00">  IntProperty Value</text>
<text text-anchor="start" x="1430.5" y="-681.3" font-family="monospace" font-size="14.00">    CPF_BlueprintVisible|CPF_BlueprintReadOnly|CPF_Parm</text>
</g>
<!-- SetClipCount__0 -->
<g id="node12" class="node">
<title>SetClipCount__0</title>
<polygon fill="#eeeeee" stroke="black" points="1447,-508.5 1447,-546.5 1868,-546.5 1868,-508.5 1447,-508.5"/>
<text text-anchor="start" x="1455" y="-531.3" font-family="monospace" font-size="14.00">EX_LetValueOnPersistentFrame [K2Node_Event_Value]</text>
<text text-anchor="start" x="1455" y="-516.3" font-family="monospace" font-size="14.00">  EX_LocalVariable [Value]</text>
</g>
<!-- SetClipCount&#45;&gt;SetClipCount__0 -->
<g id="edge7" class="edge">
<title>SetClipCount&#45;&gt;SetClipCount__0</title>
<path fill="none" stroke="black" d="M1657.5,-673.84C1657.5,-642.96 1657.5,-590.67 1657.5,-557.94"/>
<polygon fill="black" stroke="black" points="1661,-557.96 1657.5,-547.96 1654,-557.96 1661,-557.96"/>
</g>
<!-- SetClipCount__18 -->
<g id="node13" class="node">
<title>SetClipCount__18</title>
<polygon fill="#eeeeee" stroke="black" points="1179,-433.5 1179,-471.5 2136,-471.5 2136,-433.5 1179,-433.5"/>
<text text-anchor="start" x="1187" y="-456.3" font-family="monospace" font-size="14.00">EX_LocalFinalFunction export WeaponDisplay_Zipline_AmmoCount2_C&#45;&gt;ExecuteUbergraph_WeaponDisplay_Zipline_AmmoCount2</text>
<text text-anchor="start" x="1187" y="-441.3" font-family="monospace" font-size="14.00">  EX_IntConst 109</text>
</g>
<!-- SetClipCount__0&#45;&gt;SetClipCount__18 -->
<g id="edge8" class="edge">
<title>SetClipCount__0&#45;&gt;SetClipCount__18</title>
<path fill="none" stroke="black" d="M1657.5,-508.83C1657.5,-501 1657.5,-491.57 1657.5,-482.74"/>
<polygon fill="black" stroke="black" points="1661,-482.78 1657.5,-472.78 1654,-482.78 1661,-482.78"/>
</g>
<!-- SetClipCount__18&#45;&gt;ExecuteUbergraph_WeaponDisplay_Zipline_AmmoCount2__109 -->
<g id="edge9" class="edge">
<title>SetClipCount__18:e&#45;&gt;ExecuteUbergraph_WeaponDisplay_Zipline_AmmoCount2__109</title>
<path fill="none" stroke="red" d="M2137.5,-452.5C2146.71,-452.5 2140.74,-441.4 2144.5,-433 2148.37,-424.36 2152.69,-415.45 2157.16,-406.68"/>
<polygon fill="none" stroke="red" points="2160.26,-408.3 2161.76,-397.81 2154.05,-405.08 2160.26,-408.3"/>
</g>
<!-- SetClipCount__33 -->
<g id="node14" class="node">
<title>SetClipCount__33</title>
<polygon fill="#eeeeee" stroke="black" points="1599.5,-313.5 1599.5,-351.5 1715.5,-351.5 1715.5,-313.5 1599.5,-313.5"/>
<text text-anchor="start" x="1607.5" y="-336.3" font-family="monospace" font-size="14.00">EX_Return</text>
<text text-anchor="start" x="1607.5" y="-321.3" font-family="monospace" font-size="14.00">  EX_Nothing</text>
</g>
<!-- SetClipCount__18&#45;&gt;SetClipCount__33 -->
<g id="edge10" class="edge">
<title>SetClipCount__18&#45;&gt;SetClipCount__33</title>
<path fill="none" stroke="black" d="M1657.5,-433.58C1657.5,-414.76 1657.5,-384.86 1657.5,-362.64"/>
<polygon fill="black" stroke="black" points="1661,-362.72 1657.5,-352.72 1654,-362.72 1661,-362.72"/>
</g>
<!-- SetClipCount__35 -->
<g id="node15" class="node">
<title>SetClipCount__35</title>
<polygon fill="#eeeeee" stroke="black" points="2704.5,-1.5 2704.5,-37.5 2836.5,-37.5 2836.5,-1.5 2704.5,-1.5"/>
<text text-anchor="start" x="2712.5" y="-15.8" font-family="monospace" font-size="14.00">EX_EndOfScript</text>
</g>
<!-- SetTotalCount -->
<g id="node16" class="node">
<title>SetTotalCount</title>
<polygon fill="#ff8888" stroke="black" points="2397.5,-673.5 2397.5,-726.5 2867.5,-726.5 2867.5,-673.5 2397.5,-673.5"/>
<text text-anchor="start" x="2405.5" y="-711.3" font-family="monospace" font-size="14.00">Function SetTotalCount</text>
<text text-anchor="start" x="2405.5" y="-696.3" font-family="monospace" font-size="14.00">  IntProperty Value</text>
<text text-anchor="start" x="2405.5" y="-681.3" font-family="monospace" font-size="14.00">    CPF_BlueprintVisible|CPF_BlueprintReadOnly|CPF_Parm</text>
</g>
<!-- SetTotalCount__0 -->
<g id="node17" class="node">
<title>SetTotalCount__0</title>
<polygon fill="#eeeeee" stroke="black" points="2414,-508.5 2414,-546.5 2851,-546.5 2851,-508.5 2414,-508.5"/>
<text text-anchor="start" x="2422" y="-531.3" font-family="monospace" font-size="14.00">EX_LetValueOnPersistentFrame [K2Node_Event_Value_1]</text>
<text text-anchor="start" x="2422" y="-516.3" font-family="monospace" font-size="14.00">  EX_LocalVariable [Value]</text>
</g>
<!-- SetTotalCount&#45;&gt;SetTotalCount__0 -->
<g id="edge11" class="edge">
<title>SetTotalCount&#45;&gt;SetTotalCount__0</title>
<path fill="none" stroke="black" d="M2632.5,-673.84C2632.5,-642.96 2632.5,-590.67 2632.5,-557.94"/>
<polygon fill="black" stroke="black" points="2636,-557.96 2632.5,-547.96 2629,-557.96 2636,-557.96"/>
</g>
<!-- SetTotalCount__18 -->
<g id="node18" class="node">
<title>SetTotalCount__18</title>
<polygon fill="#eeeeee" stroke="black" points="2154,-433.5 2154,-471.5 3111,-471.5 3111,-433.5 2154,-433.5"/>
<text text-anchor="start" x="2162" y="-456.3" font-family="monospace" font-size="14.00">EX_LocalFinalFunction export WeaponDisplay_Zipline_AmmoCount2_C&#45;&gt;ExecuteUbergraph_WeaponDisplay_Zipline_AmmoCount2</text>
<text text-anchor="start" x="2162" y="-441.3" font-family="monospace" font-size="14.00">  EX_IntConst 10</text>
</g>
<!-- SetTotalCount__0&#45;&gt;SetTotalCount__18 -->
<g id="edge12" class="edge">
<title>SetTotalCount__0&#45;&gt;SetTotalCount__18</title>
<path fill="none" stroke="black" d="M2632.5,-508.83C2632.5,-501 2632.5,-491.57 2632.5,-482.74"/>
<polygon fill="black" stroke="black" points="2636,-482.78 2632.5,-472.78 2629,-482.78 2636,-482.78"/>
</g>
<!-- SetTotalCount__18&#45;&gt;ExecuteUbergraph_WeaponDisplay_Zipline_AmmoCount2__10 -->
<g id="edge13" class="edge">
<title>SetTotalCount__18:e&#45;&gt;ExecuteUbergraph_WeaponDisplay_Zipline_AmmoCount2__10</title>
<path fill="none" stroke="red" d="M3112.5,-452.5C3137.24,-452.5 3131.1,-430.9 3115.9,-406.11"/>
<polygon fill="none" stroke="red" points="3118.87,-404.25 3110.5,-397.76 3112.99,-408.05 3118.87,-404.25"/>
</g>
<!-- SetTotalCount__33 -->
<g id="node19" class="node">
<title>SetTotalCount__33</title>
<polygon fill="#eeeeee" stroke="black" points="2574.5,-313.5 2574.5,-351.5 2690.5,-351.5 2690.5,-313.5 2574.5,-313.5"/>
<text text-anchor="start" x="2582.5" y="-336.3" font-family="monospace" font-size="14.00">EX_Return</text>
<text text-anchor="start" x="2582.5" y="-321.3" font-family="monospace" font-size="14.00">  EX_Nothing</text>
</g>
<!-- SetTotalCount__18&#45;&gt;SetTotalCount__33 -->
<g id="edge14" class="edge">
<title>SetTotalCount__18&#45;&gt;SetTotalCount__33</title>
<path fill="none" stroke="black" d="M2632.5,-433.58C2632.5,-414.76 2632.5,-384.86 2632.5,-362.64"/>
<polygon fill="black" stroke="black" points="2636,-362.72 2632.5,-352.72 2629,-362.72 2636,-362.72"/>
</g>
<!-- SetTotalCount__35 -->
<g id="node20" class="node">
<title>SetTotalCount__35</title>
<polygon fill="#eeeeee" stroke="black" points="2885.5,-682 2885.5,-718 3017.5,-718 3017.5,-682 2885.5,-682"/>
<text text-anchor="start" x="2893.5" y="-696.3" font-family="monospace" font-size="14.00">EX_EndOfScript</text>
</g>
</g>
</svg>
