<?xml version="1.0" encoding="UTF-8" standalone="no"?>
<!DOCTYPE svg PUBLIC "-//W3C//DTD SVG 1.1//EN"
 "http://www.w3.org/Graphics/SVG/1.1/DTD/svg11.dtd">
<!-- Generated by graphviz version 7.0.1 (0)
 -->
<!-- Pages: 1 -->
<svg width="2588pt" height="885pt"
 viewBox="0.00 0.00 2587.50 885.00" xmlns="http://www.w3.org/2000/svg" xmlns:xlink="http://www.w3.org/1999/xlink">
<g id="graph0" class="graph" transform="scale(1 1) rotate(0) translate(4 881)">
<polygon fill="white" stroke="none" points="-4,4 -4,-881 2583.5,-881 2583.5,4 -4,4"/>
<!-- PLS_CaveGenerator_C -->
<g id="node1" class="node">
<title>PLS_CaveGenerator_C</title>
<polygon fill="#88ff88" stroke="black" points="0,-771 0,-854 495,-854 495,-771 0,-771"/>
<text text-anchor="start" x="8" y="-838.8" font-family="monospace" font-size="14.00">ClassExport: PLS_CaveGenerator_C</text>
<text text-anchor="start" x="8" y="-823.8" font-family="monospace" font-size="14.00">  SuperStruct: import /Game/Landscape/PLS_Base&#45;&gt;PLS_Base_C</text>
<text text-anchor="start" x="8" y="-808.8" font-family="monospace" font-size="14.00">  Properties:</text>
<text text-anchor="start" x="8" y="-793.8" font-family="monospace" font-size="14.00">    StructProperty UberGraphFrame</text>
<text text-anchor="start" x="8" y="-778.8" font-family="monospace" font-size="14.00">      CPF_Transient|CPF_DuplicateTransient</text>
</g>
<!-- ExecuteUbergraph_PLS_CaveGenerator -->
<g id="node2" class="node">
<title>ExecuteUbergraph_PLS_CaveGenerator</title>
<polygon fill="#ff8888" stroke="black" points="513.5,-748.5 513.5,-876.5 983.5,-876.5 983.5,-748.5 513.5,-748.5"/>
<text text-anchor="start" x="521.5" y="-861.3" font-family="monospace" font-size="14.00">Function ExecuteUbergraph_PLS_CaveGenerator</text>
<text text-anchor="start" x="521.5" y="-846.3" font-family="monospace" font-size="14.00">  IntProperty EntryPoint</text>
<text text-anchor="start" x="521.5" y="-831.3" font-family="monospace" font-size="14.00">    CPF_BlueprintVisible|CPF_BlueprintReadOnly|CPF_Parm</text>
<text text-anchor="start" x="521.5" y="-816.3" font-family="monospace" font-size="14.00">  ObjectProperty CallFunc_GetActorOfClass_ReturnValue</text>
<text text-anchor="start" x="521.5" y="-801.3" font-family="monospace" font-size="14.00">  ObjectProperty CallFunc_GetRoomGenerator_ReturnValue</text>
<text text-anchor="start" x="521.5" y="-786.3" font-family="monospace" font-size="14.00">  StructProperty CallFunc_AddRoom_outCenter</text>
<text text-anchor="start" x="521.5" y="-771.3" font-family="monospace" font-size="14.00">  StructProperty CallFunc_AddRoom_outRoom</text>
<text text-anchor="start" x="521.5" y="-756.3" font-family="monospace" font-size="14.00">  IntProperty CallFunc_AddRoom_ReturnValue</text>
</g>
<!-- ExecuteUbergraph_PLS_CaveGenerator__0 -->
<g id="node3" class="node">
<title>ExecuteUbergraph_PLS_CaveGenerator__0</title>
<polygon fill="#eeeeee" stroke="black" points="612.5,-673.5 612.5,-711.5 884.5,-711.5 884.5,-673.5 612.5,-673.5"/>
<text text-anchor="start" x="620.5" y="-696.3" font-family="monospace" font-size="14.00">EX_ComputedJump</text>
<text text-anchor="start" x="620.5" y="-681.3" font-family="monospace" font-size="14.00">  EX_LocalVariable [EntryPoint]</text>
</g>
<!-- ExecuteUbergraph_PLS_CaveGenerator&#45;&gt;ExecuteUbergraph_PLS_CaveGenerator__0 -->
<g id="edge1" class="edge">
<title>ExecuteUbergraph_PLS_CaveGenerator&#45;&gt;ExecuteUbergraph_PLS_CaveGenerator__0</title>
<path fill="none" stroke="black" d="M748.5,-748.7C748.5,-739.49 748.5,-730.4 748.5,-722.34"/>
<polygon fill="black" stroke="black" points="752,-722.53 748.5,-712.53 745,-722.53 752,-722.53"/>
</g>
<!-- ExecuteUbergraph_PLS_CaveGenerator__10 -->
<g id="node4" class="node">
<title>ExecuteUbergraph_PLS_CaveGenerator__10</title>
<polygon fill="#eeeeee" stroke="black" points="1843.5,-478.5 1843.5,-561.5 2429.5,-561.5 2429.5,-478.5 1843.5,-478.5"/>
<text text-anchor="start" x="1851.5" y="-546.3" font-family="monospace" font-size="14.00">EX_LetObj</text>
<text text-anchor="start" x="1851.5" y="-531.3" font-family="monospace" font-size="14.00">  EX_LocalVariable [CallFunc_GetActorOfClass_ReturnValue]</text>
<text text-anchor="start" x="1851.5" y="-516.3" font-family="monospace" font-size="14.00">  EX_CallMath import /Script/Engine&#45;&gt;GameplayStatics&#45;&gt;GetActorOfClass</text>
<text text-anchor="start" x="1851.5" y="-501.3" font-family="monospace" font-size="14.00">    EX_Self</text>
<text text-anchor="start" x="1851.5" y="-486.3" font-family="monospace" font-size="14.00">    EX_ObjectConst import /Script/FSD&#45;&gt;RoomBurner</text>
</g>
<!-- ExecuteUbergraph_PLS_CaveGenerator__40 -->
<g id="node5" class="node">
<title>ExecuteUbergraph_PLS_CaveGenerator__40</title>
<polygon fill="#eeeeee" stroke="black" points="1785.5,-343.5 1785.5,-441.5 2371.5,-441.5 2371.5,-343.5 1785.5,-343.5"/>
<text text-anchor="start" x="1793.5" y="-426.3" font-family="monospace" font-size="14.00">EX_LetObj</text>
<text text-anchor="start" x="1793.5" y="-411.3" font-family="monospace" font-size="14.00">  EX_LocalVariable [CallFunc_GetRoomGenerator_ReturnValue]</text>
<text text-anchor="start" x="1793.5" y="-396.3" font-family="monospace" font-size="14.00">  EX_Context</text>
<text text-anchor="start" x="1793.5" y="-381.3" font-family="monospace" font-size="14.00">    EX_LocalVariable [CallFunc_GetActorOfClass_ReturnValue]</text>
<text text-anchor="start" x="1793.5" y="-366.3" font-family="monospace" font-size="14.00">    EX_FinalFunction import /Script/FSD&#45;&gt;RoomBurner&#45;&gt;GetRoomGenerator</text>
<text text-anchor="start" x="1793.5" y="-351.3" font-family="monospace" font-size="14.00">    RValue = [CallFunc_GetRoomGenerator_ReturnValue]</text>
</g>
<!-- ExecuteUbergraph_PLS_CaveGenerator__10&#45;&gt;ExecuteUbergraph_PLS_CaveGenerator__40 -->
<g id="edge2" class="edge">
<title>ExecuteUbergraph_PLS_CaveGenerator__10&#45;&gt;ExecuteUbergraph_PLS_CaveGenerator__40</title>
<path fill="none" stroke="black" d="M2117.83,-478.6C2113.84,-469.96 2109.54,-460.66 2105.31,-451.51"/>
<polygon fill="black" stroke="black" points="2108.58,-450.25 2101.21,-442.64 2102.23,-453.19 2108.58,-450.25"/>
</g>
<!-- ExecuteUbergraph_PLS_CaveGenerator__82 -->
<g id="node6" class="node">
<title>ExecuteUbergraph_PLS_CaveGenerator__82</title>
<polygon fill="#eeeeee" stroke="black" points="1681.5,-148.5 1681.5,-306.5 2217.5,-306.5 2217.5,-148.5 1681.5,-148.5"/>
<text text-anchor="start" x="1689.5" y="-291.3" font-family="monospace" font-size="14.00">EX_Let</text>
<text text-anchor="start" x="1689.5" y="-276.3" font-family="monospace" font-size="14.00">  EX_LocalVariable [CallFunc_AddRoom_ReturnValue]</text>
<text text-anchor="start" x="1689.5" y="-261.3" font-family="monospace" font-size="14.00">  EX_FinalFunction import /Script/FSD&#45;&gt;ProceduralSetup&#45;&gt;AddRoom</text>
<text text-anchor="start" x="1689.5" y="-246.3" font-family="monospace" font-size="14.00">    EX_VectorConst 0,0,0</text>
<text text-anchor="start" x="1689.5" y="-231.3" font-family="monospace" font-size="14.00">    EX_True</text>
<text text-anchor="start" x="1689.5" y="-216.3" font-family="monospace" font-size="14.00">    EX_LocalVariable [CallFunc_GetRoomGenerator_ReturnValue]</text>
<text text-anchor="start" x="1689.5" y="-201.3" font-family="monospace" font-size="14.00">    EX_False</text>
<text text-anchor="start" x="1689.5" y="-186.3" font-family="monospace" font-size="14.00">    EX_LocalVariable [CallFunc_AddRoom_outCenter]</text>
<text text-anchor="start" x="1689.5" y="-171.3" font-family="monospace" font-size="14.00">    EX_LocalVariable [CallFunc_AddRoom_outRoom]</text>
<text text-anchor="start" x="1689.5" y="-156.3" font-family="monospace" font-size="14.00">    EX_FloatConst 1</text>
</g>
<!-- ExecuteUbergraph_PLS_CaveGenerator__40&#45;&gt;ExecuteUbergraph_PLS_CaveGenerator__82 -->
<g id="edge3" class="edge">
<title>ExecuteUbergraph_PLS_CaveGenerator__40&#45;&gt;ExecuteUbergraph_PLS_CaveGenerator__82</title>
<path fill="none" stroke="black" d="M2040.84,-343.92C2033.59,-334.76 2025.8,-324.91 2017.92,-314.95"/>
<polygon fill="black" stroke="black" points="2020.88,-313.05 2011.93,-307.38 2015.39,-317.4 2020.88,-313.05"/>
</g>
<!-- ExecuteUbergraph_PLS_CaveGenerator__157 -->
<g id="node7" class="node">
<title>ExecuteUbergraph_PLS_CaveGenerator__157</title>
<polygon fill="#eeeeee" stroke="black" points="1777,-75.5 1777,-111.5 1884,-111.5 1884,-75.5 1777,-75.5"/>
<text text-anchor="start" x="1785" y="-89.8" font-family="monospace" font-size="14.00">EX_Jump 167</text>
</g>
<!-- ExecuteUbergraph_PLS_CaveGenerator__82&#45;&gt;ExecuteUbergraph_PLS_CaveGenerator__157 -->
<g id="edge4" class="edge">
<title>ExecuteUbergraph_PLS_CaveGenerator__82&#45;&gt;ExecuteUbergraph_PLS_CaveGenerator__157</title>
<path fill="none" stroke="black" d="M1879.25,-148.57C1869.83,-138.13 1860.79,-128.1 1853.11,-119.58"/>
<polygon fill="black" stroke="black" points="1855.94,-117.49 1846.65,-112.41 1850.74,-122.18 1855.94,-117.49"/>
</g>
<!-- ExecuteUbergraph_PLS_CaveGenerator__167 -->
<g id="node9" class="node">
<title>ExecuteUbergraph_PLS_CaveGenerator__167</title>
<polygon fill="#eeeeee" stroke="black" points="1624.5,-0.5 1624.5,-38.5 1740.5,-38.5 1740.5,-0.5 1624.5,-0.5"/>
<text text-anchor="start" x="1632.5" y="-23.3" font-family="monospace" font-size="14.00">EX_Return</text>
<text text-anchor="start" x="1632.5" y="-8.3" font-family="monospace" font-size="14.00">  EX_Nothing</text>
</g>
<!-- ExecuteUbergraph_PLS_CaveGenerator__157&#45;&gt;ExecuteUbergraph_PLS_CaveGenerator__167 -->
<g id="edge5" class="edge">
<title>ExecuteUbergraph_PLS_CaveGenerator__157&#45;&gt;ExecuteUbergraph_PLS_CaveGenerator__167</title>
<path fill="none" stroke="black" d="M1795.8,-75.62C1776.05,-66.01 1751.04,-53.84 1729.54,-43.38"/>
<polygon fill="black" stroke="black" points="1731.19,-40.3 1720.67,-39.07 1728.13,-46.59 1731.19,-40.3"/>
</g>
<!-- ExecuteUbergraph_PLS_CaveGenerator__162 -->
<g id="node8" class="node">
<title>ExecuteUbergraph_PLS_CaveGenerator__162</title>
<polygon fill="#eeeeee" stroke="black" points="2116,-599.5 2116,-635.5 2215,-635.5 2215,-599.5 2116,-599.5"/>
<text text-anchor="start" x="2124" y="-613.8" font-family="monospace" font-size="14.00">EX_Jump 10</text>
</g>
<!-- ExecuteUbergraph_PLS_CaveGenerator__162&#45;&gt;ExecuteUbergraph_PLS_CaveGenerator__10 -->
<g id="edge6" class="edge">
<title>ExecuteUbergraph_PLS_CaveGenerator__162&#45;&gt;ExecuteUbergraph_PLS_CaveGenerator__10</title>
<path fill="none" stroke="black" d="M2160.45,-599.87C2158.07,-592.02 2155.08,-582.18 2152.03,-572.14"/>
<polygon fill="black" stroke="black" points="2155.42,-571.26 2149.16,-562.71 2148.72,-573.29 2155.42,-571.26"/>
</g>
<!-- ExecuteUbergraph_PLS_CaveGenerator__169 -->
<g id="node10" class="node">
<title>ExecuteUbergraph_PLS_CaveGenerator__169</title>
<polygon fill="#eeeeee" stroke="black" points="2447.5,-502 2447.5,-538 2579.5,-538 2579.5,-502 2447.5,-502"/>
<text text-anchor="start" x="2455.5" y="-516.3" font-family="monospace" font-size="14.00">EX_EndOfScript</text>
</g>
<!-- CreateSpawn -->
<g id="node11" class="node">
<title>CreateSpawn</title>
<polygon fill="#ff8888" stroke="black" points="1166.5,-794.5 1166.5,-830.5 1348.5,-830.5 1348.5,-794.5 1166.5,-794.5"/>
<text text-anchor="start" x="1174.5" y="-808.8" font-family="monospace" font-size="14.00">Function CreateSpawn</text>
</g>
<!-- CreateSpawn__0 -->
<g id="node12" class="node">
<title>CreateSpawn__0</title>
<polygon fill="#eeeeee" stroke="black" points="902.5,-673.5 902.5,-711.5 1612.5,-711.5 1612.5,-673.5 902.5,-673.5"/>
<text text-anchor="start" x="910.5" y="-696.3" font-family="monospace" font-size="14.00">EX_LocalFinalFunction export PLS_CaveGenerator_C&#45;&gt;ExecuteUbergraph_PLS_CaveGenerator</text>
<text text-anchor="start" x="910.5" y="-681.3" font-family="monospace" font-size="14.00">  EX_IntConst 167</text>
</g>
<!-- CreateSpawn&#45;&gt;CreateSpawn__0 -->
<g id="edge7" class="edge">
<title>CreateSpawn&#45;&gt;CreateSpawn__0</title>
<path fill="none" stroke="black" d="M1257.5,-794.59C1257.5,-775.8 1257.5,-745.1 1257.5,-722.46"/>
<polygon fill="black" stroke="black" points="1261,-722.66 1257.5,-712.66 1254,-722.66 1261,-722.66"/>
</g>
<!-- CreateSpawn__0&#45;&gt;ExecuteUbergraph_PLS_CaveGenerator__167 -->
<g id="edge8" class="edge">
<title>CreateSpawn__0:e&#45;&gt;ExecuteUbergraph_PLS_CaveGenerator__167</title>
<path fill="none" stroke="red" d="M1613.5,-692.5C1623.15,-692.5 1641.5,-530.65 1641.5,-521 1641.5,-521 1641.5,-521 1641.5,-226.5 1641.5,-162.25 1660.92,-88.86 1673.03,-49.35"/>
<polygon fill="none" stroke="red" points="1676.34,-50.48 1676,-39.89 1669.66,-48.39 1676.34,-50.48"/>
</g>
<!-- CreateSpawn__15 -->
<g id="node13" class="node">
<title>CreateSpawn__15</title>
<polygon fill="#eeeeee" stroke="black" points="1199.5,-598.5 1199.5,-636.5 1315.5,-636.5 1315.5,-598.5 1199.5,-598.5"/>
<text text-anchor="start" x="1207.5" y="-621.3" font-family="monospace" font-size="14.00">EX_Return</text>
<text text-anchor="start" x="1207.5" y="-606.3" font-family="monospace" font-size="14.00">  EX_Nothing</text>
</g>
<!-- CreateSpawn__0&#45;&gt;CreateSpawn__15 -->
<g id="edge9" class="edge">
<title>CreateSpawn__0&#45;&gt;CreateSpawn__15</title>
<path fill="none" stroke="black" d="M1257.5,-673.83C1257.5,-666 1257.5,-656.57 1257.5,-647.74"/>
<polygon fill="black" stroke="black" points="1261,-647.78 1257.5,-637.78 1254,-647.78 1261,-647.78"/>
</g>
<!-- CreateSpawn__17 -->
<g id="node14" class="node">
<title>CreateSpawn__17</title>
<polygon fill="#eeeeee" stroke="black" points="2389.5,-374.5 2389.5,-410.5 2521.5,-410.5 2521.5,-374.5 2389.5,-374.5"/>
<text text-anchor="start" x="2397.5" y="-388.8" font-family="monospace" font-size="14.00">EX_EndOfScript</text>
</g>
<!-- CreateCaveGraph -->
<g id="node15" class="node">
<title>CreateCaveGraph</title>
<polygon fill="#ff8888" stroke="black" points="1878,-794.5 1878,-830.5 2093,-830.5 2093,-794.5 1878,-794.5"/>
<text text-anchor="start" x="1886" y="-808.8" font-family="monospace" font-size="14.00">Function CreateCaveGraph</text>
</g>
<!-- CreateCaveGraph__0 -->
<g id="node16" class="node">
<title>CreateCaveGraph__0</title>
<polygon fill="#eeeeee" stroke="black" points="1630.5,-673.5 1630.5,-711.5 2340.5,-711.5 2340.5,-673.5 1630.5,-673.5"/>
<text text-anchor="start" x="1638.5" y="-696.3" font-family="monospace" font-size="14.00">EX_LocalFinalFunction export PLS_CaveGenerator_C&#45;&gt;ExecuteUbergraph_PLS_CaveGenerator</text>
<text text-anchor="start" x="1638.5" y="-681.3" font-family="monospace" font-size="14.00">  EX_IntConst 162</text>
</g>
<!-- CreateCaveGraph&#45;&gt;CreateCaveGraph__0 -->
<g id="edge10" class="edge">
<title>CreateCaveGraph&#45;&gt;CreateCaveGraph__0</title>
<path fill="none" stroke="black" d="M1985.5,-794.59C1985.5,-775.8 1985.5,-745.1 1985.5,-722.46"/>
<polygon fill="black" stroke="black" points="1989,-722.66 1985.5,-712.66 1982,-722.66 1989,-722.66"/>
</g>
<!-- CreateCaveGraph__0&#45;&gt;ExecuteUbergraph_PLS_CaveGenerator__162 -->
<g id="edge11" class="edge">
<title>CreateCaveGraph__0:e&#45;&gt;ExecuteUbergraph_PLS_CaveGenerator__162</title>
<path fill="none" stroke="red" d="M2341.5,-692.5C2350.18,-692.5 2345.82,-679.86 2340.5,-673 2313.68,-638.45 2265.22,-625.29 2226.09,-620.51"/>
<polygon fill="none" stroke="red" points="2226.62,-617.05 2216.31,-619.49 2225.89,-624.01 2226.62,-617.05"/>
</g>
<!-- CreateCaveGraph__15 -->
<g id="node17" class="node">
<title>CreateCaveGraph__15</title>
<polygon fill="#eeeeee" stroke="black" points="1927.5,-598.5 1927.5,-636.5 2043.5,-636.5 2043.5,-598.5 1927.5,-598.5"/>
<text text-anchor="start" x="1935.5" y="-621.3" font-family="monospace" font-size="14.00">EX_Return</text>
<text text-anchor="start" x="1935.5" y="-606.3" font-family="monospace" font-size="14.00">  EX_Nothing</text>
</g>
<!-- CreateCaveGraph__0&#45;&gt;CreateCaveGraph__15 -->
<g id="edge12" class="edge">
<title>CreateCaveGraph__0&#45;&gt;CreateCaveGraph__15</title>
<path fill="none" stroke="black" d="M1985.5,-673.83C1985.5,-666 1985.5,-656.57 1985.5,-647.74"/>
<polygon fill="black" stroke="black" points="1989,-647.78 1985.5,-637.78 1982,-647.78 1989,-647.78"/>
</g>
<!-- CreateCaveGraph__17 -->
<g id="node18" class="node">
<title>CreateCaveGraph__17</title>
<polygon fill="#eeeeee" stroke="black" points="2235.5,-209.5 2235.5,-245.5 2367.5,-245.5 2367.5,-209.5 2235.5,-209.5"/>
<text text-anchor="start" x="2243.5" y="-223.8" font-family="monospace" font-size="14.00">EX_EndOfScript</text>
</g>
</g>
</svg>
