<?xml version="1.0" encoding="UTF-8" standalone="no"?>
<!DOCTYPE svg PUBLIC "-//W3C//DTD SVG 1.1//EN"
 "http://www.w3.org/Graphics/SVG/1.1/DTD/svg11.dtd">
<!-- Generated by graphviz version 7.0.1 (0)
 -->
<!-- Pages: 1 -->
<svg width="1492pt" height="452pt"
 viewBox="0.00 0.00 1492.00 452.00" xmlns="http://www.w3.org/2000/svg" xmlns:xlink="http://www.w3.org/1999/xlink">
<g id="graph0" class="graph" transform="scale(1 1) rotate(0) translate(4 448)">
<polygon fill="white" stroke="none" points="-4,4 -4,-448 1488,-448 1488,4 -4,4"/>
<!-- ABP_TransmitterNode_C -->
<g id="node1" class="node">
<title>ABP_TransmitterNode_C</title>
<polygon fill="#88ff88" stroke="black" points="0,-195.5 0,-443.5 454,-443.5 454,-195.5 0,-195.5"/>
<text text-anchor="start" x="8" y="-428.3" font-family="monospace" font-size="14.00">ClassExport: ABP_TransmitterNode_C</text>
<text text-anchor="start" x="8" y="-413.3" font-family="monospace" font-size="14.00">  SuperStruct: import /Script/FSD&#45;&gt;TetherAnimInstance</text>
<text text-anchor="start" x="8" y="-398.3" font-family="monospace" font-size="14.00">  Properties:</text>
<text text-anchor="start" x="8" y="-383.3" font-family="monospace" font-size="14.00">    StructProperty UberGraphFrame</text>
<text text-anchor="start" x="8" y="-368.3" font-family="monospace" font-size="14.00">      CPF_Transient|CPF_DuplicateTransient</text>
<text text-anchor="start" x="8" y="-353.3" font-family="monospace" font-size="14.00">    StructProperty AnimGraphNode_Root</text>
<text text-anchor="start" x="8" y="-338.3" font-family="monospace" font-size="14.00">    StructProperty AnimGraphNode_TransitionResult_2</text>
<text text-anchor="start" x="8" y="-323.3" font-family="monospace" font-size="14.00">    StructProperty AnimGraphNode_TransitionResult_1</text>
<text text-anchor="start" x="8" y="-308.3" font-family="monospace" font-size="14.00">    StructProperty AnimGraphNode_TransitionResult</text>
<text text-anchor="start" x="8" y="-293.3" font-family="monospace" font-size="14.00">    StructProperty AnimGraphNode_SequencePlayer_2</text>
<text text-anchor="start" x="8" y="-278.3" font-family="monospace" font-size="14.00">    StructProperty AnimGraphNode_StateResult_2</text>
<text text-anchor="start" x="8" y="-263.3" font-family="monospace" font-size="14.00">    StructProperty AnimGraphNode_SequencePlayer_1</text>
<text text-anchor="start" x="8" y="-248.3" font-family="monospace" font-size="14.00">    StructProperty AnimGraphNode_StateResult_1</text>
<text text-anchor="start" x="8" y="-233.3" font-family="monospace" font-size="14.00">    StructProperty AnimGraphNode_SequencePlayer</text>
<text text-anchor="start" x="8" y="-218.3" font-family="monospace" font-size="14.00">    StructProperty AnimGraphNode_StateResult</text>
<text text-anchor="start" x="8" y="-203.3" font-family="monospace" font-size="14.00">    StructProperty AnimGraphNode_StateMachine</text>
</g>
<!-- ExecuteUbergraph_ABP_TransmitterNode -->
<g id="node2" class="node">
<title>ExecuteUbergraph_ABP_TransmitterNode</title>
<polygon fill="#ff8888" stroke="black" points="472,-293 472,-346 942,-346 942,-293 472,-293"/>
<text text-anchor="start" x="480" y="-330.8" font-family="monospace" font-size="14.00">Function ExecuteUbergraph_ABP_TransmitterNode</text>
<text text-anchor="start" x="480" y="-315.8" font-family="monospace" font-size="14.00">  IntProperty EntryPoint</text>
<text text-anchor="start" x="480" y="-300.8" font-family="monospace" font-size="14.00">    CPF_BlueprintVisible|CPF_BlueprintReadOnly|CPF_Parm</text>
</g>
<!-- ExecuteUbergraph_ABP_TransmitterNode__0 -->
<g id="node3" class="node">
<title>ExecuteUbergraph_ABP_TransmitterNode__0</title>
<polygon fill="#eeeeee" stroke="black" points="571,-98 571,-136 843,-136 843,-98 571,-98"/>
<text text-anchor="start" x="579" y="-120.8" font-family="monospace" font-size="14.00">EX_ComputedJump</text>
<text text-anchor="start" x="579" y="-105.8" font-family="monospace" font-size="14.00">  EX_LocalVariable [EntryPoint]</text>
</g>
<!-- ExecuteUbergraph_ABP_TransmitterNode&#45;&gt;ExecuteUbergraph_ABP_TransmitterNode__0 -->
<g id="edge1" class="edge">
<title>ExecuteUbergraph_ABP_TransmitterNode&#45;&gt;ExecuteUbergraph_ABP_TransmitterNode__0</title>
<path fill="none" stroke="black" d="M707,-293.11C707,-255.85 707,-186.54 707,-147.22"/>
<polygon fill="black" stroke="black" points="710.5,-147.33 707,-137.33 703.5,-147.33 710.5,-147.33"/>
</g>
<!-- ExecuteUbergraph_ABP_TransmitterNode__10 -->
<g id="node4" class="node">
<title>ExecuteUbergraph_ABP_TransmitterNode__10</title>
<polygon fill="#eeeeee" stroke="black" points="1026,-0.5 1026,-38.5 1142,-38.5 1142,-0.5 1026,-0.5"/>
<text text-anchor="start" x="1034" y="-23.3" font-family="monospace" font-size="14.00">EX_Return</text>
<text text-anchor="start" x="1034" y="-8.3" font-family="monospace" font-size="14.00">  EX_Nothing</text>
</g>
<!-- ExecuteUbergraph_ABP_TransmitterNode__12 -->
<g id="node5" class="node">
<title>ExecuteUbergraph_ABP_TransmitterNode__12</title>
<polygon fill="#eeeeee" stroke="black" points="861,-99 861,-135 993,-135 993,-99 861,-99"/>
<text text-anchor="start" x="869" y="-113.3" font-family="monospace" font-size="14.00">EX_EndOfScript</text>
</g>
<!-- AnimGraph -->
<g id="node6" class="node">
<title>AnimGraph</title>
<polygon fill="#ff8888" stroke="black" points="1102.5,-293 1102.5,-346 1333.5,-346 1333.5,-293 1102.5,-293"/>
<text text-anchor="start" x="1110.5" y="-330.8" font-family="monospace" font-size="14.00">Function AnimGraph</text>
<text text-anchor="start" x="1110.5" y="-315.8" font-family="monospace" font-size="14.00">  StructProperty AnimGraph</text>
<text text-anchor="start" x="1110.5" y="-300.8" font-family="monospace" font-size="14.00">    CPF_Parm|CPF_OutParm</text>
</g>
<!-- AnimGraph__0 -->
<g id="node7" class="node">
<title>AnimGraph__0</title>
<polygon fill="#eeeeee" stroke="black" points="1011.5,-75.5 1011.5,-158.5 1424.5,-158.5 1424.5,-75.5 1011.5,-75.5"/>
<text text-anchor="start" x="1019.5" y="-143.3" font-family="monospace" font-size="14.00">EX_Let</text>
<text text-anchor="start" x="1019.5" y="-128.3" font-family="monospace" font-size="14.00">  EX_LocalOutVariable</text>
<text text-anchor="start" x="1019.5" y="-113.3" font-family="monospace" font-size="14.00">    [AnimGraph]</text>
<text text-anchor="start" x="1019.5" y="-98.3" font-family="monospace" font-size="14.00">  EX_StructConst import /Script/Engine&#45;&gt;PoseLink</text>
<text text-anchor="start" x="1019.5" y="-83.3" font-family="monospace" font-size="14.00">    EX_IntConst &#45;1</text>
</g>
<!-- AnimGraph&#45;&gt;AnimGraph__0 -->
<g id="edge2" class="edge">
<title>AnimGraph&#45;&gt;AnimGraph__0</title>
<path fill="none" stroke="black" d="M1218,-293.11C1218,-262.22 1218,-209.32 1218,-169.73"/>
<polygon fill="black" stroke="black" points="1221.5,-169.94 1218,-159.94 1214.5,-169.94 1221.5,-169.94"/>
</g>
<!-- AnimGraph__37 -->
<g id="node8" class="node">
<title>AnimGraph__37</title>
<polygon fill="#eeeeee" stroke="black" points="1160,-0.5 1160,-38.5 1276,-38.5 1276,-0.5 1160,-0.5"/>
<text text-anchor="start" x="1168" y="-23.3" font-family="monospace" font-size="14.00">EX_Return</text>
<text text-anchor="start" x="1168" y="-8.3" font-family="monospace" font-size="14.00">  EX_Nothing</text>
</g>
<!-- AnimGraph__0&#45;&gt;AnimGraph__37 -->
<g id="edge3" class="edge">
<title>AnimGraph__0&#45;&gt;AnimGraph__37</title>
<path fill="none" stroke="black" d="M1218,-75.78C1218,-67.01 1218,-57.89 1218,-49.65"/>
<polygon fill="black" stroke="black" points="1221.5,-49.86 1218,-39.86 1214.5,-49.86 1221.5,-49.86"/>
</g>
<!-- AnimGraph__39 -->
<g id="node9" class="node">
<title>AnimGraph__39</title>
<polygon fill="#eeeeee" stroke="black" points="1352,-301.5 1352,-337.5 1484,-337.5 1484,-301.5 1352,-301.5"/>
<text text-anchor="start" x="1360" y="-315.8" font-family="monospace" font-size="14.00">EX_EndOfScript</text>
</g>
</g>
</svg>
