<?xml version="1.0" encoding="UTF-8" standalone="no"?>
<!DOCTYPE svg PUBLIC "-//W3C//DTD SVG 1.1//EN"
 "http://www.w3.org/Graphics/SVG/1.1/DTD/svg11.dtd">
<!-- Generated by graphviz version 7.0.1 (0)
 -->
<!-- Pages: 1 -->
<svg width="2019pt" height="242pt"
 viewBox="0.00 0.00 2019.00 242.00" xmlns="http://www.w3.org/2000/svg" xmlns:xlink="http://www.w3.org/1999/xlink">
<g id="graph0" class="graph" transform="scale(1 1) rotate(0) translate(4 238)">
<polygon fill="white" stroke="none" points="-4,4 -4,-238 2015,-238 2015,4 -4,4"/>
<!-- ENE_Woodlouse_Youngling_C -->
<g id="node1" class="node">
<title>ENE_Woodlouse_Youngling_C</title>
<polygon fill="#88ff88" stroke="black" points="0,-150.5 0,-233.5 644,-233.5 644,-150.5 0,-150.5"/>
<text text-anchor="start" x="8" y="-218.3" font-family="monospace" font-size="14.00">ClassExport: ENE_Woodlouse_Youngling_C</text>
<text text-anchor="start" x="8" y="-203.3" font-family="monospace" font-size="14.00">  SuperStruct: import /Game/Enemies/Woodlouse/ENE_Woodlouse&#45;&gt;ENE_Woodlouse_C</text>
<text text-anchor="start" x="8" y="-188.3" font-family="monospace" font-size="14.00">  Properties:</text>
<text text-anchor="start" x="8" y="-173.3" font-family="monospace" font-size="14.00">    StructProperty UberGraphFrame</text>
<text text-anchor="start" x="8" y="-158.3" font-family="monospace" font-size="14.00">      CPF_Transient|CPF_DuplicateTransient</text>
</g>
<!-- ExecuteUbergraph_ENE_Woodlouse_Youngling -->
<g id="node2" class="node">
<title>ExecuteUbergraph_ENE_Woodlouse_Youngling</title>
<polygon fill="#ff8888" stroke="black" points="662,-165.5 662,-218.5 1132,-218.5 1132,-165.5 662,-165.5"/>
<text text-anchor="start" x="670" y="-203.3" font-family="monospace" font-size="14.00">Function ExecuteUbergraph_ENE_Woodlouse_Youngling</text>
<text text-anchor="start" x="670" y="-188.3" font-family="monospace" font-size="14.00">  IntProperty EntryPoint</text>
<text text-anchor="start" x="670" y="-173.3" font-family="monospace" font-size="14.00">    CPF_BlueprintVisible|CPF_BlueprintReadOnly|CPF_Parm</text>
</g>
<!-- ExecuteUbergraph_ENE_Woodlouse_Youngling__0 -->
<g id="node3" class="node">
<title>ExecuteUbergraph_ENE_Woodlouse_Youngling__0</title>
<polygon fill="#eeeeee" stroke="black" points="761,-75.5 761,-113.5 1033,-113.5 1033,-75.5 761,-75.5"/>
<text text-anchor="start" x="769" y="-98.3" font-family="monospace" font-size="14.00">EX_ComputedJump</text>
<text text-anchor="start" x="769" y="-83.3" font-family="monospace" font-size="14.00">  EX_LocalVariable [EntryPoint]</text>
</g>
<!-- ExecuteUbergraph_ENE_Woodlouse_Youngling&#45;&gt;ExecuteUbergraph_ENE_Woodlouse_Youngling__0 -->
<g id="edge1" class="edge">
<title>ExecuteUbergraph_ENE_Woodlouse_Youngling&#45;&gt;ExecuteUbergraph_ENE_Woodlouse_Youngling__0</title>
<path fill="none" stroke="black" d="M897,-165.66C897,-153.05 897,-137.75 897,-124.66"/>
<polygon fill="black" stroke="black" points="900.5,-124.91 897,-114.91 893.5,-124.91 900.5,-124.91"/>
</g>
<!-- ExecuteUbergraph_ENE_Woodlouse_Youngling__10 -->
<g id="node4" class="node">
<title>ExecuteUbergraph_ENE_Woodlouse_Youngling__10</title>
<polygon fill="#eeeeee" stroke="black" points="1803,-0.5 1803,-38.5 1919,-38.5 1919,-0.5 1803,-0.5"/>
<text text-anchor="start" x="1811" y="-23.3" font-family="monospace" font-size="14.00">EX_Return</text>
<text text-anchor="start" x="1811" y="-8.3" font-family="monospace" font-size="14.00">  EX_Nothing</text>
</g>
<!-- ExecuteUbergraph_ENE_Woodlouse_Youngling__12 -->
<g id="node5" class="node">
<title>ExecuteUbergraph_ENE_Woodlouse_Youngling__12</title>
<polygon fill="#eeeeee" stroke="black" points="1879,-76.5 1879,-112.5 2011,-112.5 2011,-76.5 1879,-76.5"/>
<text text-anchor="start" x="1887" y="-90.8" font-family="monospace" font-size="14.00">EX_EndOfScript</text>
</g>
<!-- IncrementCommunityGoal -->
<g id="node6" class="node">
<title>IncrementCommunityGoal</title>
<polygon fill="#ff8888" stroke="black" points="1320,-174 1320,-210 1592,-210 1592,-174 1320,-174"/>
<text text-anchor="start" x="1328" y="-188.3" font-family="monospace" font-size="14.00">Function IncrementCommunityGoal</text>
</g>
<!-- IncrementCommunityGoal__0 -->
<g id="node7" class="node">
<title>IncrementCommunityGoal__0</title>
<polygon fill="#eeeeee" stroke="black" points="1051.5,-75.5 1051.5,-113.5 1860.5,-113.5 1860.5,-75.5 1051.5,-75.5"/>
<text text-anchor="start" x="1059.5" y="-98.3" font-family="monospace" font-size="14.00">EX_LocalFinalFunction export ENE_Woodlouse_Youngling_C&#45;&gt;ExecuteUbergraph_ENE_Woodlouse_Youngling</text>
<text text-anchor="start" x="1059.5" y="-83.3" font-family="monospace" font-size="14.00">  EX_IntConst 10</text>
</g>
<!-- IncrementCommunityGoal&#45;&gt;IncrementCommunityGoal__0 -->
<g id="edge2" class="edge">
<title>IncrementCommunityGoal&#45;&gt;IncrementCommunityGoal__0</title>
<path fill="none" stroke="black" d="M1456,-174.37C1456,-160.6 1456,-140.74 1456,-124.39"/>
<polygon fill="black" stroke="black" points="1459.5,-124.75 1456,-114.75 1452.5,-124.75 1459.5,-124.75"/>
</g>
<!-- IncrementCommunityGoal__0&#45;&gt;ExecuteUbergraph_ENE_Woodlouse_Youngling__10 -->
<g id="edge3" class="edge">
<title>IncrementCommunityGoal__0:e&#45;&gt;ExecuteUbergraph_ENE_Woodlouse_Youngling__10</title>
<path fill="none" stroke="red" d="M1862,-94.5C1871.39,-94.5 1869.73,-70.39 1866.58,-49.69"/>
<polygon fill="none" stroke="red" points="1870.05,-49.19 1864.93,-39.91 1863.14,-50.35 1870.05,-49.19"/>
</g>
<!-- IncrementCommunityGoal__15 -->
<g id="node8" class="node">
<title>IncrementCommunityGoal__15</title>
<polygon fill="#eeeeee" stroke="black" points="1398,-0.5 1398,-38.5 1514,-38.5 1514,-0.5 1398,-0.5"/>
<text text-anchor="start" x="1406" y="-23.3" font-family="monospace" font-size="14.00">EX_Return</text>
<text text-anchor="start" x="1406" y="-8.3" font-family="monospace" font-size="14.00">  EX_Nothing</text>
</g>
<!-- IncrementCommunityGoal__0&#45;&gt;IncrementCommunityGoal__15 -->
<g id="edge4" class="edge">
<title>IncrementCommunityGoal__0&#45;&gt;IncrementCommunityGoal__15</title>
<path fill="none" stroke="black" d="M1456,-75.83C1456,-68 1456,-58.57 1456,-49.74"/>
<polygon fill="black" stroke="black" points="1459.5,-49.78 1456,-39.78 1452.5,-49.78 1459.5,-49.78"/>
</g>
<!-- IncrementCommunityGoal__17 -->
<g id="node9" class="node">
<title>IncrementCommunityGoal__17</title>
<polygon fill="#eeeeee" stroke="black" points="1610,-174 1610,-210 1742,-210 1742,-174 1610,-174"/>
<text text-anchor="start" x="1618" y="-188.3" font-family="monospace" font-size="14.00">EX_EndOfScript</text>
</g>
</g>
</svg>
