<?xml version="1.0" encoding="UTF-8" standalone="no"?>
<!DOCTYPE svg PUBLIC "-//W3C//DTD SVG 1.1//EN"
 "http://www.w3.org/Graphics/SVG/1.1/DTD/svg11.dtd">
<!-- Generated by graphviz version 7.0.1 (0)
 -->
<!-- Pages: 1 -->
<svg width="3112pt" height="2092pt"
 viewBox="0.00 0.00 3112.00 2092.00" xmlns="http://www.w3.org/2000/svg" xmlns:xlink="http://www.w3.org/1999/xlink">
<g id="graph0" class="graph" transform="scale(1 1) rotate(0) translate(4 2088)">
<polygon fill="white" stroke="none" points="-4,4 -4,-2088 3108,-2088 3108,4 -4,4"/>
<!-- TSK_FindRandomPoint_C -->
<g id="node1" class="node">
<title>TSK_FindRandomPoint_C</title>
<polygon fill="#88ff88" stroke="black" points="0,-1850.5 0,-2083.5 512,-2083.5 512,-1850.5 0,-1850.5"/>
<text text-anchor="start" x="8" y="-2068.3" font-family="monospace" font-size="14.00">ClassExport: TSK_FindRandomPoint_C</text>
<text text-anchor="start" x="8" y="-2053.3" font-family="monospace" font-size="14.00">  SuperStruct: import /Script/AIModule&#45;&gt;BTTask_BlueprintBase</text>
<text text-anchor="start" x="8" y="-2038.3" font-family="monospace" font-size="14.00">  Properties:</text>
<text text-anchor="start" x="8" y="-2023.3" font-family="monospace" font-size="14.00">    StructProperty UberGraphFrame</text>
<text text-anchor="start" x="8" y="-2008.3" font-family="monospace" font-size="14.00">      CPF_Transient|CPF_DuplicateTransient</text>
<text text-anchor="start" x="8" y="-1993.3" font-family="monospace" font-size="14.00">    StructProperty LocationKey</text>
<text text-anchor="start" x="8" y="-1978.3" font-family="monospace" font-size="14.00">      CPF_Edit|CPF_BlueprintVisible</text>
<text text-anchor="start" x="8" y="-1963.3" font-family="monospace" font-size="14.00">    FloatProperty Distance</text>
<text text-anchor="start" x="8" y="-1948.3" font-family="monospace" font-size="14.00">      CPF_Edit|CPF_BlueprintVisible</text>
<text text-anchor="start" x="8" y="-1933.3" font-family="monospace" font-size="14.00">    BoolProperty SnapToCeiling</text>
<text text-anchor="start" x="8" y="-1918.3" font-family="monospace" font-size="14.00">      CPF_Edit|CPF_BlueprintVisible</text>
<text text-anchor="start" x="8" y="-1903.3" font-family="monospace" font-size="14.00">    EnumProperty OffsetFrom</text>
<text text-anchor="start" x="8" y="-1888.3" font-family="monospace" font-size="14.00">      CPF_Edit|CPF_BlueprintVisible</text>
<text text-anchor="start" x="8" y="-1873.3" font-family="monospace" font-size="14.00">    FloatProperty OffsetFromDistance</text>
<text text-anchor="start" x="8" y="-1858.3" font-family="monospace" font-size="14.00">      CPF_Edit|CPF_BlueprintVisible</text>
</g>
<!-- ExecuteUbergraph_TSK_FindRandomPoint -->
<g id="node2" class="node">
<title>ExecuteUbergraph_TSK_FindRandomPoint</title>
<polygon fill="#ff8888" stroke="black" points="530.5,-1880.5 530.5,-2053.5 1231.5,-2053.5 1231.5,-1880.5 530.5,-1880.5"/>
<text text-anchor="start" x="538.5" y="-2038.3" font-family="monospace" font-size="14.00">Function ExecuteUbergraph_TSK_FindRandomPoint</text>
<text text-anchor="start" x="538.5" y="-2023.3" font-family="monospace" font-size="14.00">  IntProperty EntryPoint</text>
<text text-anchor="start" x="538.5" y="-2008.3" font-family="monospace" font-size="14.00">    CPF_BlueprintVisible|CPF_BlueprintReadOnly|CPF_Parm</text>
<text text-anchor="start" x="538.5" y="-1993.3" font-family="monospace" font-size="14.00">  ObjectProperty K2Node_Event_OwnerController</text>
<text text-anchor="start" x="538.5" y="-1978.3" font-family="monospace" font-size="14.00">  ObjectProperty K2Node_Event_ControlledPawn</text>
<text text-anchor="start" x="538.5" y="-1963.3" font-family="monospace" font-size="14.00">  ObjectProperty CallFunc_GetComponentByClass_ReturnValue</text>
<text text-anchor="start" x="538.5" y="-1948.3" font-family="monospace" font-size="14.00">    CPF_InstancedReference</text>
<text text-anchor="start" x="538.5" y="-1933.3" font-family="monospace" font-size="14.00">  StructProperty CallFunc_K2_GetActorLocation_ReturnValue</text>
<text text-anchor="start" x="538.5" y="-1918.3" font-family="monospace" font-size="14.00">  BoolProperty CallFunc_GetRandomReachablePointAtApproximateDistance_Async_success</text>
<text text-anchor="start" x="538.5" y="-1903.3" font-family="monospace" font-size="14.00">  StructProperty CallFunc_GetRandomReachablePointAtApproximateDistance_Async_outPos</text>
<text text-anchor="start" x="538.5" y="-1888.3" font-family="monospace" font-size="14.00">  StructProperty CallFunc_FindPathfinderOffsetPoint_ReturnValue</text>
</g>
<!-- ExecuteUbergraph_TSK_FindRandomPoint__0 -->
<g id="node3" class="node">
<title>ExecuteUbergraph_TSK_FindRandomPoint__0</title>
<polygon fill="#eeeeee" stroke="black" points="773.5,-1739.5 773.5,-1775.5 988.5,-1775.5 988.5,-1739.5 773.5,-1739.5"/>
<text text-anchor="start" x="781.5" y="-1753.8" font-family="monospace" font-size="14.00">EX_PushExecutionFlow 536</text>
</g>
<!-- ExecuteUbergraph_TSK_FindRandomPoint&#45;&gt;ExecuteUbergraph_TSK_FindRandomPoint__0 -->
<g id="edge1" class="edge">
<title>ExecuteUbergraph_TSK_FindRandomPoint&#45;&gt;ExecuteUbergraph_TSK_FindRandomPoint__0</title>
<path fill="none" stroke="black" d="M881,-1880.7C881,-1847.2 881,-1811.04 881,-1786.82"/>
<polygon fill="black" stroke="black" points="884.5,-1786.83 881,-1776.83 877.5,-1786.83 884.5,-1786.83"/>
</g>
<!-- ExecuteUbergraph_TSK_FindRandomPoint__5 -->
<g id="node4" class="node">
<title>ExecuteUbergraph_TSK_FindRandomPoint__5</title>
<polygon fill="#eeeeee" stroke="black" points="693,-1574 693,-1612 965,-1612 965,-1574 693,-1574"/>
<text text-anchor="start" x="701" y="-1596.8" font-family="monospace" font-size="14.00">EX_ComputedJump</text>
<text text-anchor="start" x="701" y="-1581.8" font-family="monospace" font-size="14.00">  EX_LocalVariable [EntryPoint]</text>
</g>
<!-- ExecuteUbergraph_TSK_FindRandomPoint__0&#45;&gt;ExecuteUbergraph_TSK_FindRandomPoint__5 -->
<g id="edge3" class="edge">
<title>ExecuteUbergraph_TSK_FindRandomPoint__0&#45;&gt;ExecuteUbergraph_TSK_FindRandomPoint__5</title>
<path fill="none" stroke="black" d="M875.63,-1739.72C866.77,-1712.04 848.99,-1656.48 838.13,-1622.53"/>
<polygon fill="black" stroke="black" points="841.58,-1621.82 835.2,-1613.36 834.91,-1623.95 841.58,-1621.82"/>
</g>
<!-- ExecuteUbergraph_TSK_FindRandomPoint__536 -->
<g id="node22" class="node">
<title>ExecuteUbergraph_TSK_FindRandomPoint__536</title>
<polygon fill="#eeeeee" stroke="black" points="983,-1574 983,-1612 1099,-1612 1099,-1574 983,-1574"/>
<text text-anchor="start" x="991" y="-1596.8" font-family="monospace" font-size="14.00">EX_Return</text>
<text text-anchor="start" x="991" y="-1581.8" font-family="monospace" font-size="14.00">  EX_Nothing</text>
</g>
<!-- ExecuteUbergraph_TSK_FindRandomPoint__0&#45;&gt;ExecuteUbergraph_TSK_FindRandomPoint__536 -->
<g id="edge2" class="edge">
<title>ExecuteUbergraph_TSK_FindRandomPoint__0:e&#45;&gt;ExecuteUbergraph_TSK_FindRandomPoint__536</title>
<path fill="none" stroke="red" d="M990,-1757.5C1045.66,-1757.5 1047.19,-1670.07 1043.99,-1623.08"/>
<polygon fill="none" stroke="red" points="1047.5,-1623 1043.2,-1613.32 1040.52,-1623.57 1047.5,-1623"/>
<text text-anchor="middle" x="1085.5" y="-1697.8" font-family="monospace" font-size="14.00">PUSH STACK</text>
</g>
<!-- ExecuteUbergraph_TSK_FindRandomPoint__15 -->
<g id="node5" class="node">
<title>ExecuteUbergraph_TSK_FindRandomPoint__15</title>
<polygon fill="#eeeeee" stroke="black" points="1962.5,-692.5 1962.5,-730.5 2705.5,-730.5 2705.5,-692.5 1962.5,-692.5"/>
<text text-anchor="start" x="1970.5" y="-715.3" font-family="monospace" font-size="14.00">EX_JumpIfNot 147</text>
<text text-anchor="start" x="1970.5" y="-700.3" font-family="monospace" font-size="14.00">  EX_LocalVariable [CallFunc_GetRandomReachablePointAtApproximateDistance_Async_success]</text>
</g>
<!-- ExecuteUbergraph_TSK_FindRandomPoint__29 -->
<g id="node6" class="node">
<title>ExecuteUbergraph_TSK_FindRandomPoint__29</title>
<polygon fill="#eeeeee" stroke="black" points="2083,-602.5 2083,-640.5 2405,-640.5 2405,-602.5 2083,-602.5"/>
<text text-anchor="start" x="2091" y="-625.3" font-family="monospace" font-size="14.00">EX_JumpIfNot 159</text>
<text text-anchor="start" x="2091" y="-610.3" font-family="monospace" font-size="14.00">  EX_InstanceVariable [SnapToCeiling]</text>
</g>
<!-- ExecuteUbergraph_TSK_FindRandomPoint__15&#45;&gt;ExecuteUbergraph_TSK_FindRandomPoint__29 -->
<g id="edge5" class="edge">
<title>ExecuteUbergraph_TSK_FindRandomPoint__15&#45;&gt;ExecuteUbergraph_TSK_FindRandomPoint__29</title>
<path fill="none" stroke="black" d="M2315.79,-692.69C2302.73,-679.93 2284.95,-662.54 2270.35,-648.27"/>
<polygon fill="black" stroke="black" points="2272.86,-645.83 2263.27,-641.34 2267.97,-650.83 2272.86,-645.83"/>
<text text-anchor="middle" x="2303.5" y="-662.8" font-family="monospace" font-size="14.00">IF</text>
</g>
<!-- ExecuteUbergraph_TSK_FindRandomPoint__147 -->
<g id="node11" class="node">
<title>ExecuteUbergraph_TSK_FindRandomPoint__147</title>
<polygon fill="#eeeeee" stroke="black" points="2452,-602.5 2452,-640.5 3104,-640.5 3104,-602.5 2452,-602.5"/>
<text text-anchor="start" x="2460" y="-625.3" font-family="monospace" font-size="14.00">EX_FinalFunction import /Script/AIModule&#45;&gt;BTTask_BlueprintBase&#45;&gt;FinishExecute</text>
<text text-anchor="start" x="2460" y="-610.3" font-family="monospace" font-size="14.00">  EX_False</text>
</g>
<!-- ExecuteUbergraph_TSK_FindRandomPoint__15&#45;&gt;ExecuteUbergraph_TSK_FindRandomPoint__147 -->
<g id="edge4" class="edge">
<title>ExecuteUbergraph_TSK_FindRandomPoint__15:e&#45;&gt;ExecuteUbergraph_TSK_FindRandomPoint__147</title>
<path fill="none" stroke="red" d="M2707,-711.5C2738.65,-711.5 2758.48,-676.68 2768.9,-650.6"/>
<polygon fill="none" stroke="red" points="2772.08,-652.1 2772.27,-641.5 2765.52,-649.66 2772.08,-652.1"/>
<text text-anchor="middle" x="2791" y="-662.8" font-family="monospace" font-size="14.00">IF NOT</text>
</g>
<!-- ExecuteUbergraph_TSK_FindRandomPoint__43 -->
<g id="node7" class="node">
<title>ExecuteUbergraph_TSK_FindRandomPoint__43</title>
<polygon fill="#eeeeee" stroke="black" points="1476,-437.5 1476,-550.5 2070,-550.5 2070,-437.5 1476,-437.5"/>
<text text-anchor="start" x="1484" y="-535.3" font-family="monospace" font-size="14.00">EX_LetObj</text>
<text text-anchor="start" x="1484" y="-520.3" font-family="monospace" font-size="14.00">  EX_LocalVariable [CallFunc_GetComponentByClass_ReturnValue]</text>
<text text-anchor="start" x="1484" y="-505.3" font-family="monospace" font-size="14.00">  EX_Context</text>
<text text-anchor="start" x="1484" y="-490.3" font-family="monospace" font-size="14.00">    EX_LocalVariable [K2Node_Event_ControlledPawn]</text>
<text text-anchor="start" x="1484" y="-475.3" font-family="monospace" font-size="14.00">    EX_FinalFunction import /Script/Engine&#45;&gt;Actor&#45;&gt;GetComponentByClass</text>
<text text-anchor="start" x="1484" y="-460.3" font-family="monospace" font-size="14.00">      EX_ObjectConst import /Script/FSD&#45;&gt;DeepPathfinderMovement</text>
<text text-anchor="start" x="1484" y="-445.3" font-family="monospace" font-size="14.00">    RValue = [CallFunc_GetComponentByClass_ReturnValue]</text>
</g>
<!-- ExecuteUbergraph_TSK_FindRandomPoint__29&#45;&gt;ExecuteUbergraph_TSK_FindRandomPoint__43 -->
<g id="edge7" class="edge">
<title>ExecuteUbergraph_TSK_FindRandomPoint__29&#45;&gt;ExecuteUbergraph_TSK_FindRandomPoint__43</title>
<path fill="none" stroke="black" d="M2176.52,-602.52C2127.74,-589.52 2058.91,-571.18 1991.88,-553.32"/>
<polygon fill="black" stroke="black" points="1993.17,-550.04 1982.6,-550.85 1991.36,-556.81 1993.17,-550.04"/>
<text text-anchor="middle" x="2113.5" y="-572.8" font-family="monospace" font-size="14.00">IF</text>
</g>
<!-- ExecuteUbergraph_TSK_FindRandomPoint__159 -->
<g id="node13" class="node">
<title>ExecuteUbergraph_TSK_FindRandomPoint__159</title>
<polygon fill="#eeeeee" stroke="black" points="2108,-437.5 2108,-550.5 2702,-550.5 2702,-437.5 2108,-437.5"/>
<text text-anchor="start" x="2116" y="-535.3" font-family="monospace" font-size="14.00">EX_LetObj</text>
<text text-anchor="start" x="2116" y="-520.3" font-family="monospace" font-size="14.00">  EX_LocalVariable [CallFunc_GetComponentByClass_ReturnValue]</text>
<text text-anchor="start" x="2116" y="-505.3" font-family="monospace" font-size="14.00">  EX_Context</text>
<text text-anchor="start" x="2116" y="-490.3" font-family="monospace" font-size="14.00">    EX_LocalVariable [K2Node_Event_ControlledPawn]</text>
<text text-anchor="start" x="2116" y="-475.3" font-family="monospace" font-size="14.00">    EX_FinalFunction import /Script/Engine&#45;&gt;Actor&#45;&gt;GetComponentByClass</text>
<text text-anchor="start" x="2116" y="-460.3" font-family="monospace" font-size="14.00">      EX_ObjectConst import /Script/FSD&#45;&gt;DeepPathfinderMovement</text>
<text text-anchor="start" x="2116" y="-445.3" font-family="monospace" font-size="14.00">    RValue = [CallFunc_GetComponentByClass_ReturnValue]</text>
</g>
<!-- ExecuteUbergraph_TSK_FindRandomPoint__29&#45;&gt;ExecuteUbergraph_TSK_FindRandomPoint__159 -->
<g id="edge6" class="edge">
<title>ExecuteUbergraph_TSK_FindRandomPoint__29:e&#45;&gt;ExecuteUbergraph_TSK_FindRandomPoint__159</title>
<path fill="none" stroke="red" d="M2406,-621.5C2433.21,-621.5 2433.85,-591.87 2427.26,-561.29"/>
<polygon fill="none" stroke="red" points="2430.76,-560.86 2425.02,-551.96 2423.95,-562.5 2430.76,-560.86"/>
<text text-anchor="middle" x="2456" y="-572.8" font-family="monospace" font-size="14.00">IF NOT</text>
</g>
<!-- ExecuteUbergraph_TSK_FindRandomPoint__94 -->
<g id="node8" class="node">
<title>ExecuteUbergraph_TSK_FindRandomPoint__94</title>
<polygon fill="#eeeeee" stroke="black" points="1289,-294 1289,-362 2023,-362 2023,-294 1289,-294"/>
<text text-anchor="start" x="1297" y="-346.8" font-family="monospace" font-size="14.00">EX_LocalVirtualFunction Snap</text>
<text text-anchor="start" x="1297" y="-331.8" font-family="monospace" font-size="14.00">  EX_InstanceVariable [SnapToCeiling]</text>
<text text-anchor="start" x="1297" y="-316.8" font-family="monospace" font-size="14.00">  EX_LocalVariable [CallFunc_GetComponentByClass_ReturnValue]</text>
<text text-anchor="start" x="1297" y="-301.8" font-family="monospace" font-size="14.00">  EX_LocalVariable [CallFunc_GetRandomReachablePointAtApproximateDistance_Async_outPos]</text>
</g>
<!-- ExecuteUbergraph_TSK_FindRandomPoint__43&#45;&gt;ExecuteUbergraph_TSK_FindRandomPoint__94 -->
<g id="edge8" class="edge">
<title>ExecuteUbergraph_TSK_FindRandomPoint__43&#45;&gt;ExecuteUbergraph_TSK_FindRandomPoint__94</title>
<path fill="none" stroke="black" d="M1733.72,-437.93C1718.13,-416.08 1700.49,-391.36 1685.96,-371"/>
<polygon fill="black" stroke="black" points="1688.85,-369.02 1680.2,-362.92 1683.15,-373.09 1688.85,-369.02"/>
</g>
<!-- ExecuteUbergraph_TSK_FindRandomPoint__135 -->
<g id="node9" class="node">
<title>ExecuteUbergraph_TSK_FindRandomPoint__135</title>
<polygon fill="#eeeeee" stroke="black" points="1330,-165.5 1330,-203.5 1982,-203.5 1982,-165.5 1330,-165.5"/>
<text text-anchor="start" x="1338" y="-188.3" font-family="monospace" font-size="14.00">EX_FinalFunction import /Script/AIModule&#45;&gt;BTTask_BlueprintBase&#45;&gt;FinishExecute</text>
<text text-anchor="start" x="1338" y="-173.3" font-family="monospace" font-size="14.00">  EX_True</text>
</g>
<!-- ExecuteUbergraph_TSK_FindRandomPoint__94&#45;&gt;ExecuteUbergraph_TSK_FindRandomPoint__135 -->
<g id="edge9" class="edge">
<title>ExecuteUbergraph_TSK_FindRandomPoint__94&#45;&gt;ExecuteUbergraph_TSK_FindRandomPoint__135</title>
<path fill="none" stroke="black" d="M1656,-294.18C1656,-270.24 1656,-238.06 1656,-214.94"/>
<polygon fill="black" stroke="black" points="1659.5,-214.97 1656,-204.97 1652.5,-214.97 1659.5,-214.97"/>
</g>
<!-- ExecuteUbergraph_TSK_FindRandomPoint__146 -->
<g id="node10" class="node">
<title>ExecuteUbergraph_TSK_FindRandomPoint__146</title>
<polygon fill="#eeeeee" stroke="black" points="1569.5,-75.5 1569.5,-111.5 1742.5,-111.5 1742.5,-75.5 1569.5,-75.5"/>
<text text-anchor="start" x="1577.5" y="-89.8" font-family="monospace" font-size="14.00">EX_PopExecutionFlow</text>
</g>
<!-- ExecuteUbergraph_TSK_FindRandomPoint__135&#45;&gt;ExecuteUbergraph_TSK_FindRandomPoint__146 -->
<g id="edge10" class="edge">
<title>ExecuteUbergraph_TSK_FindRandomPoint__135&#45;&gt;ExecuteUbergraph_TSK_FindRandomPoint__146</title>
<path fill="none" stroke="black" d="M1656,-165.92C1656,-153.57 1656,-136.79 1656,-122.6"/>
<polygon fill="black" stroke="black" points="1659.5,-122.96 1656,-112.96 1652.5,-122.96 1659.5,-122.96"/>
</g>
<!-- ExecuteUbergraph_TSK_FindRandomPoint__158 -->
<g id="node12" class="node">
<title>ExecuteUbergraph_TSK_FindRandomPoint__158</title>
<polygon fill="#eeeeee" stroke="black" points="2720.5,-476 2720.5,-512 2893.5,-512 2893.5,-476 2720.5,-476"/>
<text text-anchor="start" x="2728.5" y="-490.3" font-family="monospace" font-size="14.00">EX_PopExecutionFlow</text>
</g>
<!-- ExecuteUbergraph_TSK_FindRandomPoint__147&#45;&gt;ExecuteUbergraph_TSK_FindRandomPoint__158 -->
<g id="edge11" class="edge">
<title>ExecuteUbergraph_TSK_FindRandomPoint__147&#45;&gt;ExecuteUbergraph_TSK_FindRandomPoint__158</title>
<path fill="none" stroke="black" d="M2782.15,-602.52C2786.97,-581.67 2794.97,-547.05 2800.59,-522.74"/>
<polygon fill="black" stroke="black" points="2803.95,-523.75 2802.79,-513.22 2797.13,-522.17 2803.95,-523.75"/>
</g>
<!-- ExecuteUbergraph_TSK_FindRandomPoint__210 -->
<g id="node14" class="node">
<title>ExecuteUbergraph_TSK_FindRandomPoint__210</title>
<polygon fill="#eeeeee" stroke="black" points="2041.5,-256.5 2041.5,-399.5 2808.5,-399.5 2808.5,-256.5 2041.5,-256.5"/>
<text text-anchor="start" x="2049.5" y="-384.3" font-family="monospace" font-size="14.00">EX_Let</text>
<text text-anchor="start" x="2049.5" y="-369.3" font-family="monospace" font-size="14.00">  EX_LocalVariable [CallFunc_FindPathfinderOffsetPoint_ReturnValue]</text>
<text text-anchor="start" x="2049.5" y="-354.3" font-family="monospace" font-size="14.00">  EX_Context</text>
<text text-anchor="start" x="2049.5" y="-339.3" font-family="monospace" font-size="14.00">    EX_LocalVariable [CallFunc_GetComponentByClass_ReturnValue]</text>
<text text-anchor="start" x="2049.5" y="-324.3" font-family="monospace" font-size="14.00">    EX_FinalFunction import /Script/FSD&#45;&gt;DeepPathfinderMovement&#45;&gt;FindPathfinderOffsetPoint</text>
<text text-anchor="start" x="2049.5" y="-309.3" font-family="monospace" font-size="14.00">      EX_LocalVariable [CallFunc_GetRandomReachablePointAtApproximateDistance_Async_outPos]</text>
<text text-anchor="start" x="2049.5" y="-294.3" font-family="monospace" font-size="14.00">      EX_InstanceVariable [OffsetFrom]</text>
<text text-anchor="start" x="2049.5" y="-279.3" font-family="monospace" font-size="14.00">      EX_InstanceVariable [OffsetFromDistance]</text>
<text text-anchor="start" x="2049.5" y="-264.3" font-family="monospace" font-size="14.00">    RValue = [CallFunc_FindPathfinderOffsetPoint_ReturnValue]</text>
</g>
<!-- ExecuteUbergraph_TSK_FindRandomPoint__159&#45;&gt;ExecuteUbergraph_TSK_FindRandomPoint__210 -->
<g id="edge12" class="edge">
<title>ExecuteUbergraph_TSK_FindRandomPoint__159&#45;&gt;ExecuteUbergraph_TSK_FindRandomPoint__210</title>
<path fill="none" stroke="black" d="M2411.72,-437.93C2412.79,-429.14 2413.92,-419.87 2415.05,-410.61"/>
<polygon fill="black" stroke="black" points="2418.5,-411.21 2416.24,-400.86 2411.55,-410.36 2418.5,-411.21"/>
</g>
<!-- ExecuteUbergraph_TSK_FindRandomPoint__287 -->
<g id="node15" class="node">
<title>ExecuteUbergraph_TSK_FindRandomPoint__287</title>
<polygon fill="#eeeeee" stroke="black" points="2078.5,-150.5 2078.5,-218.5 2771.5,-218.5 2771.5,-150.5 2078.5,-150.5"/>
<text text-anchor="start" x="2086.5" y="-203.3" font-family="monospace" font-size="14.00">EX_CallMath import /Script/AIModule&#45;&gt;BTFunctionLibrary&#45;&gt;SetBlackboardValueAsVector</text>
<text text-anchor="start" x="2086.5" y="-188.3" font-family="monospace" font-size="14.00">  EX_Self</text>
<text text-anchor="start" x="2086.5" y="-173.3" font-family="monospace" font-size="14.00">  EX_InstanceVariable [LocationKey]</text>
<text text-anchor="start" x="2086.5" y="-158.3" font-family="monospace" font-size="14.00">  EX_LocalVariable [CallFunc_FindPathfinderOffsetPoint_ReturnValue]</text>
</g>
<!-- ExecuteUbergraph_TSK_FindRandomPoint__210&#45;&gt;ExecuteUbergraph_TSK_FindRandomPoint__287 -->
<g id="edge13" class="edge">
<title>ExecuteUbergraph_TSK_FindRandomPoint__210&#45;&gt;ExecuteUbergraph_TSK_FindRandomPoint__287</title>
<path fill="none" stroke="black" d="M2425,-256.66C2425,-247.41 2425,-238.15 2425,-229.52"/>
<polygon fill="black" stroke="black" points="2428.5,-229.7 2425,-219.7 2421.5,-229.7 2428.5,-229.7"/>
</g>
<!-- ExecuteUbergraph_TSK_FindRandomPoint__316 -->
<g id="node16" class="node">
<title>ExecuteUbergraph_TSK_FindRandomPoint__316</title>
<polygon fill="#eeeeee" stroke="black" points="2099,-74.5 2099,-112.5 2751,-112.5 2751,-74.5 2099,-74.5"/>
<text text-anchor="start" x="2107" y="-97.3" font-family="monospace" font-size="14.00">EX_FinalFunction import /Script/AIModule&#45;&gt;BTTask_BlueprintBase&#45;&gt;FinishExecute</text>
<text text-anchor="start" x="2107" y="-82.3" font-family="monospace" font-size="14.00">  EX_True</text>
</g>
<!-- ExecuteUbergraph_TSK_FindRandomPoint__287&#45;&gt;ExecuteUbergraph_TSK_FindRandomPoint__316 -->
<g id="edge14" class="edge">
<title>ExecuteUbergraph_TSK_FindRandomPoint__287&#45;&gt;ExecuteUbergraph_TSK_FindRandomPoint__316</title>
<path fill="none" stroke="black" d="M2425,-150.61C2425,-141.79 2425,-132.32 2425,-123.72"/>
<polygon fill="black" stroke="black" points="2428.5,-123.8 2425,-113.8 2421.5,-123.8 2428.5,-123.8"/>
</g>
<!-- ExecuteUbergraph_TSK_FindRandomPoint__327 -->
<g id="node17" class="node">
<title>ExecuteUbergraph_TSK_FindRandomPoint__327</title>
<polygon fill="#eeeeee" stroke="black" points="2338.5,-0.5 2338.5,-36.5 2511.5,-36.5 2511.5,-0.5 2338.5,-0.5"/>
<text text-anchor="start" x="2346.5" y="-14.8" font-family="monospace" font-size="14.00">EX_PopExecutionFlow</text>
</g>
<!-- ExecuteUbergraph_TSK_FindRandomPoint__316&#45;&gt;ExecuteUbergraph_TSK_FindRandomPoint__327 -->
<g id="edge15" class="edge">
<title>ExecuteUbergraph_TSK_FindRandomPoint__316&#45;&gt;ExecuteUbergraph_TSK_FindRandomPoint__327</title>
<path fill="none" stroke="black" d="M2425,-74.83C2425,-66.61 2425,-56.65 2425,-47.45"/>
<polygon fill="black" stroke="black" points="2428.5,-47.52 2425,-37.52 2421.5,-47.52 2428.5,-47.52"/>
</g>
<!-- ExecuteUbergraph_TSK_FindRandomPoint__328 -->
<g id="node18" class="node">
<title>ExecuteUbergraph_TSK_FindRandomPoint__328</title>
<polygon fill="#eeeeee" stroke="black" points="1561,-1145.5 1561,-1258.5 2155,-1258.5 2155,-1145.5 1561,-1145.5"/>
<text text-anchor="start" x="1569" y="-1243.3" font-family="monospace" font-size="14.00">EX_LetObj</text>
<text text-anchor="start" x="1569" y="-1228.3" font-family="monospace" font-size="14.00">  EX_LocalVariable [CallFunc_GetComponentByClass_ReturnValue]</text>
<text text-anchor="start" x="1569" y="-1213.3" font-family="monospace" font-size="14.00">  EX_Context</text>
<text text-anchor="start" x="1569" y="-1198.3" font-family="monospace" font-size="14.00">    EX_LocalVariable [K2Node_Event_ControlledPawn]</text>
<text text-anchor="start" x="1569" y="-1183.3" font-family="monospace" font-size="14.00">    EX_FinalFunction import /Script/Engine&#45;&gt;Actor&#45;&gt;GetComponentByClass</text>
<text text-anchor="start" x="1569" y="-1168.3" font-family="monospace" font-size="14.00">      EX_ObjectConst import /Script/FSD&#45;&gt;DeepPathfinderMovement</text>
<text text-anchor="start" x="1569" y="-1153.3" font-family="monospace" font-size="14.00">    RValue = [CallFunc_GetComponentByClass_ReturnValue]</text>
</g>
<!-- ExecuteUbergraph_TSK_FindRandomPoint__379 -->
<g id="node19" class="node">
<title>ExecuteUbergraph_TSK_FindRandomPoint__379</title>
<polygon fill="#eeeeee" stroke="black" points="1561,-1009.5 1561,-1107.5 2155,-1107.5 2155,-1009.5 1561,-1009.5"/>
<text text-anchor="start" x="1569" y="-1092.3" font-family="monospace" font-size="14.00">EX_Let</text>
<text text-anchor="start" x="1569" y="-1077.3" font-family="monospace" font-size="14.00">  EX_LocalVariable [CallFunc_K2_GetActorLocation_ReturnValue]</text>
<text text-anchor="start" x="1569" y="-1062.3" font-family="monospace" font-size="14.00">  EX_Context</text>
<text text-anchor="start" x="1569" y="-1047.3" font-family="monospace" font-size="14.00">    EX_LocalVariable [K2Node_Event_ControlledPawn]</text>
<text text-anchor="start" x="1569" y="-1032.3" font-family="monospace" font-size="14.00">    EX_FinalFunction import /Script/Engine&#45;&gt;Actor&#45;&gt;K2_GetActorLocation</text>
<text text-anchor="start" x="1569" y="-1017.3" font-family="monospace" font-size="14.00">    RValue = [CallFunc_K2_GetActorLocation_ReturnValue]</text>
</g>
<!-- ExecuteUbergraph_TSK_FindRandomPoint__328&#45;&gt;ExecuteUbergraph_TSK_FindRandomPoint__379 -->
<g id="edge16" class="edge">
<title>ExecuteUbergraph_TSK_FindRandomPoint__328&#45;&gt;ExecuteUbergraph_TSK_FindRandomPoint__379</title>
<path fill="none" stroke="black" d="M1858,-1145.89C1858,-1136.94 1858,-1127.64 1858,-1118.6"/>
<polygon fill="black" stroke="black" points="1861.5,-1118.85 1858,-1108.85 1854.5,-1118.85 1861.5,-1118.85"/>
</g>
<!-- ExecuteUbergraph_TSK_FindRandomPoint__429 -->
<g id="node20" class="node">
<title>ExecuteUbergraph_TSK_FindRandomPoint__429</title>
<polygon fill="#eeeeee" stroke="black" points="1383.5,-768.5 1383.5,-971.5 2332.5,-971.5 2332.5,-768.5 1383.5,-768.5"/>
<text text-anchor="start" x="1391.5" y="-956.3" font-family="monospace" font-size="14.00">EX_Context</text>
<text text-anchor="start" x="1391.5" y="-941.3" font-family="monospace" font-size="14.00">  EX_LocalVariable [CallFunc_GetComponentByClass_ReturnValue]</text>
<text text-anchor="start" x="1391.5" y="-926.3" font-family="monospace" font-size="14.00">  EX_FinalFunction import /Script/FSD&#45;&gt;DeepPathfinderMovement&#45;&gt;GetRandomReachablePointAtApproximateDistance_Async</text>
<text text-anchor="start" x="1391.5" y="-911.3" font-family="monospace" font-size="14.00">    EX_LocalVariable [CallFunc_K2_GetActorLocation_ReturnValue]</text>
<text text-anchor="start" x="1391.5" y="-896.3" font-family="monospace" font-size="14.00">    EX_InstanceVariable [Distance]</text>
<text text-anchor="start" x="1391.5" y="-881.3" font-family="monospace" font-size="14.00">    EX_LocalVariable [CallFunc_GetRandomReachablePointAtApproximateDistance_Async_success]</text>
<text text-anchor="start" x="1391.5" y="-866.3" font-family="monospace" font-size="14.00">    EX_LocalVariable [CallFunc_GetRandomReachablePointAtApproximateDistance_Async_outPos]</text>
<text text-anchor="start" x="1391.5" y="-851.3" font-family="monospace" font-size="14.00">    EX_StructConst import /Script/Engine&#45;&gt;LatentActionInfo</text>
<text text-anchor="start" x="1391.5" y="-836.3" font-family="monospace" font-size="14.00">      EX_SkipOffsetConst 15</text>
<text text-anchor="start" x="1391.5" y="-821.3" font-family="monospace" font-size="14.00">      EX_IntConst 504512204</text>
<text text-anchor="start" x="1391.5" y="-806.3" font-family="monospace" font-size="14.00">      EX_NameConst ExecuteUbergraph_TSK_FindRandomPoint</text>
<text text-anchor="start" x="1391.5" y="-791.3" font-family="monospace" font-size="14.00">      EX_Self</text>
<text text-anchor="start" x="1391.5" y="-776.3" font-family="monospace" font-size="14.00">  RValue = []</text>
</g>
<!-- ExecuteUbergraph_TSK_FindRandomPoint__379&#45;&gt;ExecuteUbergraph_TSK_FindRandomPoint__429 -->
<g id="edge17" class="edge">
<title>ExecuteUbergraph_TSK_FindRandomPoint__379&#45;&gt;ExecuteUbergraph_TSK_FindRandomPoint__429</title>
<path fill="none" stroke="black" d="M1858,-1009.96C1858,-1001.35 1858,-992.04 1858,-982.48"/>
<polygon fill="black" stroke="black" points="1861.5,-982.66 1858,-972.66 1854.5,-982.66 1861.5,-982.66"/>
</g>
<!-- ExecuteUbergraph_TSK_FindRandomPoint__429&#45;&gt;ExecuteUbergraph_TSK_FindRandomPoint__15 -->
<g id="edge18" class="edge">
<title>ExecuteUbergraph_TSK_FindRandomPoint__429:e&#45;&gt;ExecuteUbergraph_TSK_FindRandomPoint__15</title>
<path fill="none" stroke="red" d="M2334,-870C2385.05,-870 2361.64,-786.25 2345.23,-740.89"/>
<polygon fill="none" stroke="red" points="2348.56,-739.82 2341.78,-731.68 2342.01,-742.27 2348.56,-739.82"/>
</g>
<!-- ExecuteUbergraph_TSK_FindRandomPoint__535 -->
<g id="node21" class="node">
<title>ExecuteUbergraph_TSK_FindRandomPoint__535</title>
<polygon fill="#eeeeee" stroke="black" points="1771.5,-693.5 1771.5,-729.5 1944.5,-729.5 1944.5,-693.5 1771.5,-693.5"/>
<text text-anchor="start" x="1779.5" y="-707.8" font-family="monospace" font-size="14.00">EX_PopExecutionFlow</text>
</g>
<!-- ExecuteUbergraph_TSK_FindRandomPoint__429&#45;&gt;ExecuteUbergraph_TSK_FindRandomPoint__535 -->
<g id="edge19" class="edge">
<title>ExecuteUbergraph_TSK_FindRandomPoint__429&#45;&gt;ExecuteUbergraph_TSK_FindRandomPoint__535</title>
<path fill="none" stroke="black" d="M1858,-768.56C1858,-758.44 1858,-748.86 1858,-740.58"/>
<polygon fill="black" stroke="black" points="1861.5,-740.61 1858,-730.61 1854.5,-740.61 1861.5,-740.61"/>
</g>
<!-- ExecuteUbergraph_TSK_FindRandomPoint__538 -->
<g id="node23" class="node">
<title>ExecuteUbergraph_TSK_FindRandomPoint__538</title>
<polygon fill="#eeeeee" stroke="black" points="2011,-1795.5 2011,-1831.5 2143,-1831.5 2143,-1795.5 2011,-1795.5"/>
<text text-anchor="start" x="2019" y="-1809.8" font-family="monospace" font-size="14.00">EX_EndOfScript</text>
</g>
<!-- ReceiveExecuteAI -->
<g id="node24" class="node">
<title>ReceiveExecuteAI</title>
<polygon fill="#ff8888" stroke="black" points="1250,-1925.5 1250,-2008.5 1720,-2008.5 1720,-1925.5 1250,-1925.5"/>
<text text-anchor="start" x="1258" y="-1993.3" font-family="monospace" font-size="14.00">Function ReceiveExecuteAI</text>
<text text-anchor="start" x="1258" y="-1978.3" font-family="monospace" font-size="14.00">  ObjectProperty OwnerController</text>
<text text-anchor="start" x="1258" y="-1963.3" font-family="monospace" font-size="14.00">    CPF_BlueprintVisible|CPF_BlueprintReadOnly|CPF_Parm</text>
<text text-anchor="start" x="1258" y="-1948.3" font-family="monospace" font-size="14.00">  ObjectProperty ControlledPawn</text>
<text text-anchor="start" x="1258" y="-1933.3" font-family="monospace" font-size="14.00">    CPF_BlueprintVisible|CPF_BlueprintReadOnly|CPF_Parm</text>
</g>
<!-- ReceiveExecuteAI__0 -->
<g id="node25" class="node">
<title>ReceiveExecuteAI__0</title>
<polygon fill="#eeeeee" stroke="black" points="1233.5,-1738.5 1233.5,-1776.5 1736.5,-1776.5 1736.5,-1738.5 1233.5,-1738.5"/>
<text text-anchor="start" x="1241.5" y="-1761.3" font-family="monospace" font-size="14.00">EX_LetValueOnPersistentFrame [K2Node_Event_OwnerController]</text>
<text text-anchor="start" x="1241.5" y="-1746.3" font-family="monospace" font-size="14.00">  EX_LocalVariable [OwnerController]</text>
</g>
<!-- ReceiveExecuteAI&#45;&gt;ReceiveExecuteAI__0 -->
<g id="edge20" class="edge">
<title>ReceiveExecuteAI&#45;&gt;ReceiveExecuteAI__0</title>
<path fill="none" stroke="black" d="M1485,-1925.99C1485,-1885.47 1485,-1823.76 1485,-1787.65"/>
<polygon fill="black" stroke="black" points="1488.5,-1787.96 1485,-1777.96 1481.5,-1787.96 1488.5,-1787.96"/>
</g>
<!-- ReceiveExecuteAI__18 -->
<g id="node26" class="node">
<title>ReceiveExecuteAI__18</title>
<polygon fill="#eeeeee" stroke="black" points="1237.5,-1574 1237.5,-1612 1732.5,-1612 1732.5,-1574 1237.5,-1574"/>
<text text-anchor="start" x="1245.5" y="-1596.8" font-family="monospace" font-size="14.00">EX_LetValueOnPersistentFrame [K2Node_Event_ControlledPawn]</text>
<text text-anchor="start" x="1245.5" y="-1581.8" font-family="monospace" font-size="14.00">  EX_LocalVariable [ControlledPawn]</text>
</g>
<!-- ReceiveExecuteAI__0&#45;&gt;ReceiveExecuteAI__18 -->
<g id="edge21" class="edge">
<title>ReceiveExecuteAI__0&#45;&gt;ReceiveExecuteAI__18</title>
<path fill="none" stroke="black" d="M1485,-1738.8C1485,-1710.96 1485,-1656.66 1485,-1623.04"/>
<polygon fill="black" stroke="black" points="1488.5,-1623.19 1485,-1613.19 1481.5,-1623.19 1488.5,-1623.19"/>
</g>
<!-- ReceiveExecuteAI__36 -->
<g id="node27" class="node">
<title>ReceiveExecuteAI__36</title>
<polygon fill="#eeeeee" stroke="black" points="1113.5,-1394.5 1113.5,-1432.5 1856.5,-1432.5 1856.5,-1394.5 1113.5,-1394.5"/>
<text text-anchor="start" x="1121.5" y="-1417.3" font-family="monospace" font-size="14.00">EX_LocalFinalFunction export TSK_FindRandomPoint_C&#45;&gt;ExecuteUbergraph_TSK_FindRandomPoint</text>
<text text-anchor="start" x="1121.5" y="-1402.3" font-family="monospace" font-size="14.00">  EX_IntConst 328</text>
</g>
<!-- ReceiveExecuteAI__18&#45;&gt;ReceiveExecuteAI__36 -->
<g id="edge22" class="edge">
<title>ReceiveExecuteAI__18&#45;&gt;ReceiveExecuteAI__36</title>
<path fill="none" stroke="black" d="M1485,-1574C1485,-1543.36 1485,-1480.78 1485,-1443.77"/>
<polygon fill="black" stroke="black" points="1488.5,-1443.79 1485,-1433.79 1481.5,-1443.79 1488.5,-1443.79"/>
</g>
<!-- ReceiveExecuteAI__36&#45;&gt;ExecuteUbergraph_TSK_FindRandomPoint__328 -->
<g id="edge23" class="edge">
<title>ReceiveExecuteAI__36:e&#45;&gt;ExecuteUbergraph_TSK_FindRandomPoint__328</title>
<path fill="none" stroke="red" d="M1858,-1413.5C1916.61,-1413.5 1901.79,-1330.89 1882.53,-1269.17"/>
<polygon fill="none" stroke="red" points="1885.9,-1268.19 1879.5,-1259.75 1879.23,-1270.34 1885.9,-1268.19"/>
</g>
<!-- ReceiveExecuteAI__51 -->
<g id="node28" class="node">
<title>ReceiveExecuteAI__51</title>
<polygon fill="#eeeeee" stroke="black" points="1427,-1183 1427,-1221 1543,-1221 1543,-1183 1427,-1183"/>
<text text-anchor="start" x="1435" y="-1205.8" font-family="monospace" font-size="14.00">EX_Return</text>
<text text-anchor="start" x="1435" y="-1190.8" font-family="monospace" font-size="14.00">  EX_Nothing</text>
</g>
<!-- ReceiveExecuteAI__36&#45;&gt;ReceiveExecuteAI__51 -->
<g id="edge24" class="edge">
<title>ReceiveExecuteAI__36&#45;&gt;ReceiveExecuteAI__51</title>
<path fill="none" stroke="black" d="M1485,-1394.64C1485,-1358.46 1485,-1276.22 1485,-1232.16"/>
<polygon fill="black" stroke="black" points="1488.5,-1232.33 1485,-1222.33 1481.5,-1232.33 1488.5,-1232.33"/>
</g>
<!-- ReceiveExecuteAI__53 -->
<g id="node29" class="node">
<title>ReceiveExecuteAI__53</title>
<polygon fill="#eeeeee" stroke="black" points="1876,-1683.5 1876,-1719.5 2008,-1719.5 2008,-1683.5 1876,-1683.5"/>
<text text-anchor="start" x="1884" y="-1697.8" font-family="monospace" font-size="14.00">EX_EndOfScript</text>
</g>
<!-- Snap -->
<g id="node30" class="node">
<title>Snap</title>
<polygon fill="#ff8888" stroke="black" points="2113,-1903 2113,-2031 2831,-2031 2831,-1903 2113,-1903"/>
<text text-anchor="start" x="2121" y="-2015.8" font-family="monospace" font-size="14.00">Function Snap</text>
<text text-anchor="start" x="2121" y="-2000.8" font-family="monospace" font-size="14.00">  BoolProperty SnapToCeiling</text>
<text text-anchor="start" x="2121" y="-1985.8" font-family="monospace" font-size="14.00">    CPF_BlueprintVisible|CPF_BlueprintReadOnly|CPF_Parm</text>
<text text-anchor="start" x="2121" y="-1970.8" font-family="monospace" font-size="14.00">  ObjectProperty Pathfinder</text>
<text text-anchor="start" x="2121" y="-1955.8" font-family="monospace" font-size="14.00">    CPF_BlueprintVisible|CPF_BlueprintReadOnly|CPF_Parm|CPF_InstancedReference</text>
<text text-anchor="start" x="2121" y="-1940.8" font-family="monospace" font-size="14.00">  StructProperty Location</text>
<text text-anchor="start" x="2121" y="-1925.8" font-family="monospace" font-size="14.00">    CPF_BlueprintVisible|CPF_BlueprintReadOnly|CPF_Parm|CPF_OutParm|CPF_ReferenceParm</text>
<text text-anchor="start" x="2121" y="-1910.8" font-family="monospace" font-size="14.00">  StructProperty CallFunc_FindPathfinderPointAbove_ReturnValue</text>
</g>
<!-- Snap__0 -->
<g id="node31" class="node">
<title>Snap__0</title>
<polygon fill="#eeeeee" stroke="black" points="2323.5,-1738.5 2323.5,-1776.5 2620.5,-1776.5 2620.5,-1738.5 2323.5,-1738.5"/>
<text text-anchor="start" x="2331.5" y="-1761.3" font-family="monospace" font-size="14.00">EX_JumpIfNot 112</text>
<text text-anchor="start" x="2331.5" y="-1746.3" font-family="monospace" font-size="14.00">  EX_LocalVariable [SnapToCeiling]</text>
</g>
<!-- Snap&#45;&gt;Snap__0 -->
<g id="edge25" class="edge">
<title>Snap&#45;&gt;Snap__0</title>
<path fill="none" stroke="black" d="M2472,-1903.18C2472,-1864.81 2472,-1817.54 2472,-1787.71"/>
<polygon fill="black" stroke="black" points="2475.5,-1787.95 2472,-1777.95 2468.5,-1787.95 2475.5,-1787.95"/>
</g>
<!-- Snap__14 -->
<g id="node32" class="node">
<title>Snap__14</title>
<polygon fill="#eeeeee" stroke="black" points="1899.5,-1521.5 1899.5,-1664.5 2650.5,-1664.5 2650.5,-1521.5 1899.5,-1521.5"/>
<text text-anchor="start" x="1907.5" y="-1649.3" font-family="monospace" font-size="14.00">EX_Let</text>
<text text-anchor="start" x="1907.5" y="-1634.3" font-family="monospace" font-size="14.00">  EX_LocalVariable [CallFunc_FindPathfinderPointAbove_ReturnValue]</text>
<text text-anchor="start" x="1907.5" y="-1619.3" font-family="monospace" font-size="14.00">  EX_Context</text>
<text text-anchor="start" x="1907.5" y="-1604.3" font-family="monospace" font-size="14.00">    EX_LocalVariable [Pathfinder]</text>
<text text-anchor="start" x="1907.5" y="-1589.3" font-family="monospace" font-size="14.00">    EX_FinalFunction import /Script/FSD&#45;&gt;DeepPathfinderMovement&#45;&gt;FindPathfinderPointAbove</text>
<text text-anchor="start" x="1907.5" y="-1574.3" font-family="monospace" font-size="14.00">      EX_LocalOutVariable</text>
<text text-anchor="start" x="1907.5" y="-1559.3" font-family="monospace" font-size="14.00">        [Location]</text>
<text text-anchor="start" x="1907.5" y="-1544.3" font-family="monospace" font-size="14.00">      EX_FloatConst 150</text>
<text text-anchor="start" x="1907.5" y="-1529.3" font-family="monospace" font-size="14.00">    RValue = [CallFunc_FindPathfinderPointAbove_ReturnValue]</text>
</g>
<!-- Snap__0&#45;&gt;Snap__14 -->
<g id="edge27" class="edge">
<title>Snap__0&#45;&gt;Snap__14</title>
<path fill="none" stroke="black" d="M2450.54,-1738.8C2430.58,-1722.33 2399.39,-1696.61 2368.81,-1671.38"/>
<polygon fill="black" stroke="black" points="2371.32,-1668.91 2361.38,-1665.25 2366.87,-1674.31 2371.32,-1668.91"/>
<text text-anchor="middle" x="2433.5" y="-1697.8" font-family="monospace" font-size="14.00">IF</text>
</g>
<!-- Snap__112 -->
<g id="node35" class="node">
<title>Snap__112</title>
<polygon fill="#eeeeee" stroke="black" points="2327.5,-1277.5 2327.5,-1360.5 3020.5,-1360.5 3020.5,-1277.5 2327.5,-1277.5"/>
<text text-anchor="start" x="2335.5" y="-1345.3" font-family="monospace" font-size="14.00">EX_CallMath import /Script/AIModule&#45;&gt;BTFunctionLibrary&#45;&gt;SetBlackboardValueAsVector</text>
<text text-anchor="start" x="2335.5" y="-1330.3" font-family="monospace" font-size="14.00">  EX_Self</text>
<text text-anchor="start" x="2335.5" y="-1315.3" font-family="monospace" font-size="14.00">  EX_InstanceVariable [LocationKey]</text>
<text text-anchor="start" x="2335.5" y="-1300.3" font-family="monospace" font-size="14.00">  EX_LocalOutVariable</text>
<text text-anchor="start" x="2335.5" y="-1285.3" font-family="monospace" font-size="14.00">    [Location]</text>
</g>
<!-- Snap__0&#45;&gt;Snap__112 -->
<g id="edge26" class="edge">
<title>Snap__0:e&#45;&gt;Snap__112</title>
<path fill="none" stroke="red" d="M2622,-1757.5C2698.91,-1757.5 2687.08,-1487.54 2678.46,-1371.74"/>
<polygon fill="none" stroke="red" points="2681.96,-1371.59 2677.71,-1361.88 2674.98,-1372.12 2681.96,-1371.59"/>
<text text-anchor="middle" x="2710" y="-1589.3" font-family="monospace" font-size="14.00">IF NOT</text>
</g>
<!-- Snap__78 -->
<g id="node33" class="node">
<title>Snap__78</title>
<polygon fill="#eeeeee" stroke="black" points="1947.5,-1379.5 1947.5,-1447.5 2640.5,-1447.5 2640.5,-1379.5 1947.5,-1379.5"/>
<text text-anchor="start" x="1955.5" y="-1432.3" font-family="monospace" font-size="14.00">EX_CallMath import /Script/AIModule&#45;&gt;BTFunctionLibrary&#45;&gt;SetBlackboardValueAsVector</text>
<text text-anchor="start" x="1955.5" y="-1417.3" font-family="monospace" font-size="14.00">  EX_Self</text>
<text text-anchor="start" x="1955.5" y="-1402.3" font-family="monospace" font-size="14.00">  EX_InstanceVariable [LocationKey]</text>
<text text-anchor="start" x="1955.5" y="-1387.3" font-family="monospace" font-size="14.00">  EX_LocalVariable [CallFunc_FindPathfinderPointAbove_ReturnValue]</text>
</g>
<!-- Snap__14&#45;&gt;Snap__78 -->
<g id="edge28" class="edge">
<title>Snap__14&#45;&gt;Snap__78</title>
<path fill="none" stroke="black" d="M2282.54,-1521.59C2284.82,-1500.27 2287.26,-1477.47 2289.3,-1458.42"/>
<polygon fill="black" stroke="black" points="2292.77,-1458.9 2290.35,-1448.58 2285.81,-1458.16 2292.77,-1458.9"/>
</g>
<!-- Snap__107 -->
<g id="node34" class="node">
<title>Snap__107</title>
<polygon fill="#eeeeee" stroke="black" points="2313.5,-1184 2313.5,-1220 2420.5,-1220 2420.5,-1184 2313.5,-1184"/>
<text text-anchor="start" x="2321.5" y="-1198.3" font-family="monospace" font-size="14.00">EX_Jump 141</text>
</g>
<!-- Snap__78&#45;&gt;Snap__107 -->
<g id="edge29" class="edge">
<title>Snap__78&#45;&gt;Snap__107</title>
<path fill="none" stroke="black" d="M2296.83,-1379.5C2300.06,-1351.45 2306.7,-1310.51 2320,-1277 2326.73,-1260.04 2337.47,-1242.73 2346.98,-1229.13"/>
<polygon fill="black" stroke="black" points="2349.72,-1231.31 2352.73,-1221.16 2344.04,-1227.22 2349.72,-1231.31"/>
</g>
<!-- Snap__141 -->
<g id="node36" class="node">
<title>Snap__141</title>
<polygon fill="#eeeeee" stroke="black" points="2417,-1039.5 2417,-1077.5 2533,-1077.5 2533,-1039.5 2417,-1039.5"/>
<text text-anchor="start" x="2425" y="-1062.3" font-family="monospace" font-size="14.00">EX_Return</text>
<text text-anchor="start" x="2425" y="-1047.3" font-family="monospace" font-size="14.00">  EX_Nothing</text>
</g>
<!-- Snap__107&#45;&gt;Snap__141 -->
<g id="edge30" class="edge">
<title>Snap__107&#45;&gt;Snap__141</title>
<path fill="none" stroke="black" d="M2379.81,-1184.21C2398.29,-1160.01 2432.59,-1115.06 2454.58,-1086.25"/>
<polygon fill="black" stroke="black" points="2457.32,-1088.43 2460.61,-1078.36 2451.76,-1084.18 2457.32,-1088.43"/>
</g>
<!-- Snap__112&#45;&gt;Snap__141 -->
<g id="edge31" class="edge">
<title>Snap__112&#45;&gt;Snap__141</title>
<path fill="none" stroke="black" d="M2642.91,-1277.61C2601.88,-1224.32 2530.78,-1131.96 2495.74,-1086.44"/>
<polygon fill="black" stroke="black" points="2498.63,-1084.46 2489.76,-1078.67 2493.09,-1088.73 2498.63,-1084.46"/>
</g>
<!-- Snap__143 -->
<g id="node37" class="node">
<title>Snap__143</title>
<polygon fill="#eeeeee" stroke="black" points="2702,-1466.5 2702,-1502.5 2834,-1502.5 2834,-1466.5 2702,-1466.5"/>
<text text-anchor="start" x="2710" y="-1480.8" font-family="monospace" font-size="14.00">EX_EndOfScript</text>
</g>
</g>
</svg>
