<?xml version="1.0" encoding="UTF-8" standalone="no"?>
<!DOCTYPE svg PUBLIC "-//W3C//DTD SVG 1.1//EN"
 "http://www.w3.org/Graphics/SVG/1.1/DTD/svg11.dtd">
<!-- Generated by graphviz version 7.0.1 (0)
 -->
<!-- Pages: 1 -->
<svg width="2534pt" height="1027pt"
 viewBox="0.00 0.00 2534.00 1027.00" xmlns="http://www.w3.org/2000/svg" xmlns:xlink="http://www.w3.org/1999/xlink">
<g id="graph0" class="graph" transform="scale(1 1) rotate(0) translate(4 1023)">
<polygon fill="white" stroke="none" points="-4,4 -4,-1023 2530,-1023 2530,4 -4,4"/>
<!-- TSK_StopAttackStance_C -->
<g id="node1" class="node">
<title>TSK_StopAttackStance_C</title>
<polygon fill="#88ff88" stroke="black" points="0,-920.5 0,-1003.5 512,-1003.5 512,-920.5 0,-920.5"/>
<text text-anchor="start" x="8" y="-988.3" font-family="monospace" font-size="14.00">ClassExport: TSK_StopAttackStance_C</text>
<text text-anchor="start" x="8" y="-973.3" font-family="monospace" font-size="14.00">  SuperStruct: import /Script/AIModule&#45;&gt;BTTask_BlueprintBase</text>
<text text-anchor="start" x="8" y="-958.3" font-family="monospace" font-size="14.00">  Properties:</text>
<text text-anchor="start" x="8" y="-943.3" font-family="monospace" font-size="14.00">    StructProperty UberGraphFrame</text>
<text text-anchor="start" x="8" y="-928.3" font-family="monospace" font-size="14.00">      CPF_Transient|CPF_DuplicateTransient</text>
</g>
<!-- ExecuteUbergraph_TSK_StopAttackStance -->
<g id="node2" class="node">
<title>ExecuteUbergraph_TSK_StopAttackStance</title>
<polygon fill="#ff8888" stroke="black" points="530,-905.5 530,-1018.5 1066,-1018.5 1066,-905.5 530,-905.5"/>
<text text-anchor="start" x="538" y="-1003.3" font-family="monospace" font-size="14.00">Function ExecuteUbergraph_TSK_StopAttackStance</text>
<text text-anchor="start" x="538" y="-988.3" font-family="monospace" font-size="14.00">  IntProperty EntryPoint</text>
<text text-anchor="start" x="538" y="-973.3" font-family="monospace" font-size="14.00">    CPF_BlueprintVisible|CPF_BlueprintReadOnly|CPF_Parm</text>
<text text-anchor="start" x="538" y="-958.3" font-family="monospace" font-size="14.00">  ObjectProperty K2Node_Event_OwnerController</text>
<text text-anchor="start" x="538" y="-943.3" font-family="monospace" font-size="14.00">  ObjectProperty K2Node_Event_ControlledPawn</text>
<text text-anchor="start" x="538" y="-928.3" font-family="monospace" font-size="14.00">  ObjectProperty K2Node_DynamicCast_AsDeep_Pathfinder_Character</text>
<text text-anchor="start" x="538" y="-913.3" font-family="monospace" font-size="14.00">  BoolProperty K2Node_DynamicCast_bSuccess</text>
</g>
<!-- ExecuteUbergraph_TSK_StopAttackStance__0 -->
<g id="node3" class="node">
<title>ExecuteUbergraph_TSK_StopAttackStance__0</title>
<polygon fill="#eeeeee" stroke="black" points="662,-793.5 662,-831.5 934,-831.5 934,-793.5 662,-793.5"/>
<text text-anchor="start" x="670" y="-816.3" font-family="monospace" font-size="14.00">EX_ComputedJump</text>
<text text-anchor="start" x="670" y="-801.3" font-family="monospace" font-size="14.00">  EX_LocalVariable [EntryPoint]</text>
</g>
<!-- ExecuteUbergraph_TSK_StopAttackStance&#45;&gt;ExecuteUbergraph_TSK_StopAttackStance__0 -->
<g id="edge1" class="edge">
<title>ExecuteUbergraph_TSK_StopAttackStance&#45;&gt;ExecuteUbergraph_TSK_StopAttackStance__0</title>
<path fill="none" stroke="black" d="M798,-905.66C798,-884.27 798,-860.68 798,-842.72"/>
<polygon fill="black" stroke="black" points="801.5,-842.79 798,-832.79 794.5,-842.79 801.5,-842.79"/>
</g>
<!-- ExecuteUbergraph_TSK_StopAttackStance__10 -->
<g id="node4" class="node">
<title>ExecuteUbergraph_TSK_StopAttackStance__10</title>
<polygon fill="#eeeeee" stroke="black" points="1874,-190 1874,-228 2526,-228 2526,-190 1874,-190"/>
<text text-anchor="start" x="1882" y="-212.8" font-family="monospace" font-size="14.00">EX_FinalFunction import /Script/AIModule&#45;&gt;BTTask_BlueprintBase&#45;&gt;FinishExecute</text>
<text text-anchor="start" x="1882" y="-197.8" font-family="monospace" font-size="14.00">  EX_False</text>
</g>
<!-- ExecuteUbergraph_TSK_StopAttackStance__21 -->
<g id="node5" class="node">
<title>ExecuteUbergraph_TSK_StopAttackStance__21</title>
<polygon fill="#eeeeee" stroke="black" points="2111.5,-77.5 2111.5,-113.5 2218.5,-113.5 2218.5,-77.5 2111.5,-77.5"/>
<text text-anchor="start" x="2119.5" y="-91.8" font-family="monospace" font-size="14.00">EX_Jump 170</text>
</g>
<!-- ExecuteUbergraph_TSK_StopAttackStance__10&#45;&gt;ExecuteUbergraph_TSK_StopAttackStance__21 -->
<g id="edge2" class="edge">
<title>ExecuteUbergraph_TSK_StopAttackStance__10&#45;&gt;ExecuteUbergraph_TSK_StopAttackStance__21</title>
<path fill="none" stroke="black" d="M2194.38,-190.09C2188.79,-172.3 2180.16,-144.79 2173.69,-124.19"/>
<polygon fill="black" stroke="black" points="2177.05,-123.21 2170.72,-114.72 2170.37,-125.31 2177.05,-123.21"/>
</g>
<!-- ExecuteUbergraph_TSK_StopAttackStance__170 -->
<g id="node11" class="node">
<title>ExecuteUbergraph_TSK_StopAttackStance__170</title>
<polygon fill="#eeeeee" stroke="black" points="1872,-0.5 1872,-38.5 1988,-38.5 1988,-0.5 1872,-0.5"/>
<text text-anchor="start" x="1880" y="-23.3" font-family="monospace" font-size="14.00">EX_Return</text>
<text text-anchor="start" x="1880" y="-8.3" font-family="monospace" font-size="14.00">  EX_Nothing</text>
</g>
<!-- ExecuteUbergraph_TSK_StopAttackStance__21&#45;&gt;ExecuteUbergraph_TSK_StopAttackStance__170 -->
<g id="edge3" class="edge">
<title>ExecuteUbergraph_TSK_StopAttackStance__21&#45;&gt;ExecuteUbergraph_TSK_StopAttackStance__170</title>
<path fill="none" stroke="black" d="M2111.67,-77.71C2077.93,-67.08 2033.99,-53.24 1997.78,-41.84"/>
<polygon fill="black" stroke="black" points="1998.84,-38.51 1988.25,-38.84 1996.74,-45.18 1998.84,-38.51"/>
</g>
<!-- ExecuteUbergraph_TSK_StopAttackStance__26 -->
<g id="node6" class="node">
<title>ExecuteUbergraph_TSK_StopAttackStance__26</title>
<polygon fill="#eeeeee" stroke="black" points="1414.5,-499.5 1414.5,-567.5 1983.5,-567.5 1983.5,-499.5 1414.5,-499.5"/>
<text text-anchor="start" x="1422.5" y="-552.3" font-family="monospace" font-size="14.00">EX_Let</text>
<text text-anchor="start" x="1422.5" y="-537.3" font-family="monospace" font-size="14.00">  EX_LocalVariable [K2Node_DynamicCast_AsDeep_Pathfinder_Character]</text>
<text text-anchor="start" x="1422.5" y="-522.3" font-family="monospace" font-size="14.00">  EX_DynamicCast import /Script/FSD&#45;&gt;DeepPathfinderCharacter</text>
<text text-anchor="start" x="1422.5" y="-507.3" font-family="monospace" font-size="14.00">    EX_LocalVariable [K2Node_Event_ControlledPawn]</text>
</g>
<!-- ExecuteUbergraph_TSK_StopAttackStance__62 -->
<g id="node7" class="node">
<title>ExecuteUbergraph_TSK_StopAttackStance__62</title>
<polygon fill="#eeeeee" stroke="black" points="1406,-393.5 1406,-461.5 1992,-461.5 1992,-393.5 1406,-393.5"/>
<text text-anchor="start" x="1414" y="-446.3" font-family="monospace" font-size="14.00">EX_Let</text>
<text text-anchor="start" x="1414" y="-431.3" font-family="monospace" font-size="14.00">  EX_LocalVariable [K2Node_DynamicCast_bSuccess]</text>
<text text-anchor="start" x="1414" y="-416.3" font-family="monospace" font-size="14.00">  EX_PrimitiveCast ObjectToBool</text>
<text text-anchor="start" x="1414" y="-401.3" font-family="monospace" font-size="14.00">    EX_LocalVariable [K2Node_DynamicCast_AsDeep_Pathfinder_Character]</text>
</g>
<!-- ExecuteUbergraph_TSK_StopAttackStance__26&#45;&gt;ExecuteUbergraph_TSK_StopAttackStance__62 -->
<g id="edge4" class="edge">
<title>ExecuteUbergraph_TSK_StopAttackStance__26&#45;&gt;ExecuteUbergraph_TSK_StopAttackStance__62</title>
<path fill="none" stroke="black" d="M1699,-499.59C1699,-490.97 1699,-481.54 1699,-472.45"/>
<polygon fill="black" stroke="black" points="1702.5,-472.71 1699,-462.71 1695.5,-472.71 1702.5,-472.71"/>
</g>
<!-- ExecuteUbergraph_TSK_StopAttackStance__91 -->
<g id="node8" class="node">
<title>ExecuteUbergraph_TSK_StopAttackStance__91</title>
<polygon fill="#eeeeee" stroke="black" points="1492.5,-317.5 1492.5,-355.5 1905.5,-355.5 1905.5,-317.5 1492.5,-317.5"/>
<text text-anchor="start" x="1500.5" y="-340.3" font-family="monospace" font-size="14.00">EX_JumpIfNot 10</text>
<text text-anchor="start" x="1500.5" y="-325.3" font-family="monospace" font-size="14.00">  EX_LocalVariable [K2Node_DynamicCast_bSuccess]</text>
</g>
<!-- ExecuteUbergraph_TSK_StopAttackStance__62&#45;&gt;ExecuteUbergraph_TSK_StopAttackStance__91 -->
<g id="edge5" class="edge">
<title>ExecuteUbergraph_TSK_StopAttackStance__62&#45;&gt;ExecuteUbergraph_TSK_StopAttackStance__91</title>
<path fill="none" stroke="black" d="M1699,-393.61C1699,-384.79 1699,-375.32 1699,-366.72"/>
<polygon fill="black" stroke="black" points="1702.5,-366.8 1699,-356.8 1695.5,-366.8 1702.5,-366.8"/>
</g>
<!-- ExecuteUbergraph_TSK_StopAttackStance__91&#45;&gt;ExecuteUbergraph_TSK_StopAttackStance__10 -->
<g id="edge6" class="edge">
<title>ExecuteUbergraph_TSK_StopAttackStance__91:e&#45;&gt;ExecuteUbergraph_TSK_StopAttackStance__10</title>
<path fill="none" stroke="red" d="M1907,-336.5C2008.97,-336.5 2115.76,-271.12 2167.74,-234.36"/>
<polygon fill="none" stroke="red" points="2169.48,-237.42 2175.56,-228.74 2165.4,-231.73 2169.48,-237.42"/>
<text text-anchor="middle" x="2110" y="-287.8" font-family="monospace" font-size="14.00">IF NOT</text>
</g>
<!-- ExecuteUbergraph_TSK_StopAttackStance__105 -->
<g id="node9" class="node">
<title>ExecuteUbergraph_TSK_StopAttackStance__105</title>
<polygon fill="#eeeeee" stroke="black" points="1188,-152.5 1188,-265.5 1856,-265.5 1856,-152.5 1188,-152.5"/>
<text text-anchor="start" x="1196" y="-250.3" font-family="monospace" font-size="14.00">EX_Context</text>
<text text-anchor="start" x="1196" y="-235.3" font-family="monospace" font-size="14.00">  EX_Context</text>
<text text-anchor="start" x="1196" y="-220.3" font-family="monospace" font-size="14.00">    EX_LocalVariable [K2Node_DynamicCast_AsDeep_Pathfinder_Character]</text>
<text text-anchor="start" x="1196" y="-205.3" font-family="monospace" font-size="14.00">    EX_InstanceVariable [PathfinderMovement]</text>
<text text-anchor="start" x="1196" y="-190.3" font-family="monospace" font-size="14.00">    RValue = [PathfinderMovement]</text>
<text text-anchor="start" x="1196" y="-175.3" font-family="monospace" font-size="14.00">  EX_FinalFunction import /Script/FSD&#45;&gt;DeepPathfinderMovement&#45;&gt;StopAttackStance</text>
<text text-anchor="start" x="1196" y="-160.3" font-family="monospace" font-size="14.00">  RValue = []</text>
</g>
<!-- ExecuteUbergraph_TSK_StopAttackStance__91&#45;&gt;ExecuteUbergraph_TSK_StopAttackStance__105 -->
<g id="edge7" class="edge">
<title>ExecuteUbergraph_TSK_StopAttackStance__91&#45;&gt;ExecuteUbergraph_TSK_StopAttackStance__105</title>
<path fill="none" stroke="black" d="M1673.64,-317.52C1656.59,-305.43 1633.03,-288.72 1609.55,-272.08"/>
<polygon fill="black" stroke="black" points="1611.64,-269.26 1601.45,-266.34 1607.59,-274.97 1611.64,-269.26"/>
<text text-anchor="middle" x="1654.5" y="-287.8" font-family="monospace" font-size="14.00">IF</text>
</g>
<!-- ExecuteUbergraph_TSK_StopAttackStance__159 -->
<g id="node10" class="node">
<title>ExecuteUbergraph_TSK_StopAttackStance__159</title>
<polygon fill="#eeeeee" stroke="black" points="1406,-76.5 1406,-114.5 2058,-114.5 2058,-76.5 1406,-76.5"/>
<text text-anchor="start" x="1414" y="-99.3" font-family="monospace" font-size="14.00">EX_FinalFunction import /Script/AIModule&#45;&gt;BTTask_BlueprintBase&#45;&gt;FinishExecute</text>
<text text-anchor="start" x="1414" y="-84.3" font-family="monospace" font-size="14.00">  EX_True</text>
</g>
<!-- ExecuteUbergraph_TSK_StopAttackStance__105&#45;&gt;ExecuteUbergraph_TSK_StopAttackStance__159 -->
<g id="edge8" class="edge">
<title>ExecuteUbergraph_TSK_StopAttackStance__105&#45;&gt;ExecuteUbergraph_TSK_StopAttackStance__159</title>
<path fill="none" stroke="black" d="M1626.38,-152.58C1648.34,-140.92 1670.34,-129.24 1688.53,-119.58"/>
<polygon fill="black" stroke="black" points="1689.96,-122.78 1697.15,-115 1686.68,-116.6 1689.96,-122.78"/>
</g>
<!-- ExecuteUbergraph_TSK_StopAttackStance__159&#45;&gt;ExecuteUbergraph_TSK_StopAttackStance__170 -->
<g id="edge9" class="edge">
<title>ExecuteUbergraph_TSK_StopAttackStance__159&#45;&gt;ExecuteUbergraph_TSK_StopAttackStance__170</title>
<path fill="none" stroke="black" d="M1779.93,-76.59C1807.55,-66.26 1842.48,-53.21 1871.69,-42.29"/>
<polygon fill="black" stroke="black" points="1872.61,-45.69 1880.75,-38.91 1870.16,-39.13 1872.61,-45.69"/>
</g>
<!-- ExecuteUbergraph_TSK_StopAttackStance__172 -->
<g id="node12" class="node">
<title>ExecuteUbergraph_TSK_StopAttackStance__172</title>
<polygon fill="#eeeeee" stroke="black" points="1334,-850.5 1334,-886.5 1466,-886.5 1466,-850.5 1334,-850.5"/>
<text text-anchor="start" x="1342" y="-864.8" font-family="monospace" font-size="14.00">EX_EndOfScript</text>
</g>
<!-- ReceiveExecuteAI -->
<g id="node13" class="node">
<title>ReceiveExecuteAI</title>
<polygon fill="#ff8888" stroke="black" points="1084,-920.5 1084,-1003.5 1554,-1003.5 1554,-920.5 1084,-920.5"/>
<text text-anchor="start" x="1092" y="-988.3" font-family="monospace" font-size="14.00">Function ReceiveExecuteAI</text>
<text text-anchor="start" x="1092" y="-973.3" font-family="monospace" font-size="14.00">  ObjectProperty OwnerController</text>
<text text-anchor="start" x="1092" y="-958.3" font-family="monospace" font-size="14.00">    CPF_BlueprintVisible|CPF_BlueprintReadOnly|CPF_Parm</text>
<text text-anchor="start" x="1092" y="-943.3" font-family="monospace" font-size="14.00">  ObjectProperty ControlledPawn</text>
<text text-anchor="start" x="1092" y="-928.3" font-family="monospace" font-size="14.00">    CPF_BlueprintVisible|CPF_BlueprintReadOnly|CPF_Parm</text>
</g>
<!-- ReceiveExecuteAI__0 -->
<g id="node14" class="node">
<title>ReceiveExecuteAI__0</title>
<polygon fill="#eeeeee" stroke="black" points="1067.5,-793.5 1067.5,-831.5 1570.5,-831.5 1570.5,-793.5 1067.5,-793.5"/>
<text text-anchor="start" x="1075.5" y="-816.3" font-family="monospace" font-size="14.00">EX_LetValueOnPersistentFrame [K2Node_Event_OwnerController]</text>
<text text-anchor="start" x="1075.5" y="-801.3" font-family="monospace" font-size="14.00">  EX_LocalVariable [OwnerController]</text>
</g>
<!-- ReceiveExecuteAI&#45;&gt;ReceiveExecuteAI__0 -->
<g id="edge10" class="edge">
<title>ReceiveExecuteAI&#45;&gt;ReceiveExecuteAI__0</title>
<path fill="none" stroke="black" d="M1319,-920.69C1319,-896.08 1319,-865.16 1319,-842.86"/>
<polygon fill="black" stroke="black" points="1322.5,-842.97 1319,-832.97 1315.5,-842.97 1322.5,-842.97"/>
</g>
<!-- ReceiveExecuteAI__18 -->
<g id="node15" class="node">
<title>ReceiveExecuteAI__18</title>
<polygon fill="#eeeeee" stroke="black" points="1071.5,-681.5 1071.5,-719.5 1566.5,-719.5 1566.5,-681.5 1071.5,-681.5"/>
<text text-anchor="start" x="1079.5" y="-704.3" font-family="monospace" font-size="14.00">EX_LetValueOnPersistentFrame [K2Node_Event_ControlledPawn]</text>
<text text-anchor="start" x="1079.5" y="-689.3" font-family="monospace" font-size="14.00">  EX_LocalVariable [ControlledPawn]</text>
</g>
<!-- ReceiveExecuteAI__0&#45;&gt;ReceiveExecuteAI__18 -->
<g id="edge11" class="edge">
<title>ReceiveExecuteAI__0&#45;&gt;ReceiveExecuteAI__18</title>
<path fill="none" stroke="black" d="M1319,-793.83C1319,-776.85 1319,-750.88 1319,-730.81"/>
<polygon fill="black" stroke="black" points="1322.5,-731.01 1319,-721.01 1315.5,-731.01 1322.5,-731.01"/>
</g>
<!-- ReceiveExecuteAI__36 -->
<g id="node16" class="node">
<title>ReceiveExecuteAI__36</title>
<polygon fill="#eeeeee" stroke="black" points="939.5,-605.5 939.5,-643.5 1698.5,-643.5 1698.5,-605.5 939.5,-605.5"/>
<text text-anchor="start" x="947.5" y="-628.3" font-family="monospace" font-size="14.00">EX_LocalFinalFunction export TSK_StopAttackStance_C&#45;&gt;ExecuteUbergraph_TSK_StopAttackStance</text>
<text text-anchor="start" x="947.5" y="-613.3" font-family="monospace" font-size="14.00">  EX_IntConst 26</text>
</g>
<!-- ReceiveExecuteAI__18&#45;&gt;ReceiveExecuteAI__36 -->
<g id="edge12" class="edge">
<title>ReceiveExecuteAI__18&#45;&gt;ReceiveExecuteAI__36</title>
<path fill="none" stroke="black" d="M1319,-681.59C1319,-673.5 1319,-663.73 1319,-654.63"/>
<polygon fill="black" stroke="black" points="1322.5,-654.76 1319,-644.76 1315.5,-654.76 1322.5,-654.76"/>
</g>
<!-- ReceiveExecuteAI__36&#45;&gt;ExecuteUbergraph_TSK_StopAttackStance__26 -->
<g id="edge13" class="edge">
<title>ReceiveExecuteAI__36:e&#45;&gt;ExecuteUbergraph_TSK_StopAttackStance__26</title>
<path fill="none" stroke="red" d="M1700,-624.5C1720.34,-624.5 1719.74,-601.22 1714.23,-578.34"/>
<polygon fill="none" stroke="red" points="1717.61,-577.43 1711.6,-568.71 1710.85,-579.28 1717.61,-577.43"/>
</g>
<!-- ReceiveExecuteAI__51 -->
<g id="node17" class="node">
<title>ReceiveExecuteAI__51</title>
<polygon fill="#eeeeee" stroke="black" points="1261,-514.5 1261,-552.5 1377,-552.5 1377,-514.5 1261,-514.5"/>
<text text-anchor="start" x="1269" y="-537.3" font-family="monospace" font-size="14.00">EX_Return</text>
<text text-anchor="start" x="1269" y="-522.3" font-family="monospace" font-size="14.00">  EX_Nothing</text>
</g>
<!-- ReceiveExecuteAI__36&#45;&gt;ReceiveExecuteAI__51 -->
<g id="edge14" class="edge">
<title>ReceiveExecuteAI__36&#45;&gt;ReceiveExecuteAI__51</title>
<path fill="none" stroke="black" d="M1319,-605.92C1319,-593.93 1319,-577.76 1319,-563.84"/>
<polygon fill="black" stroke="black" points="1322.5,-563.87 1319,-553.87 1315.5,-563.87 1322.5,-563.87"/>
</g>
<!-- ReceiveExecuteAI__53 -->
<g id="node18" class="node">
<title>ReceiveExecuteAI__53</title>
<polygon fill="#eeeeee" stroke="black" points="1334,-738.5 1334,-774.5 1466,-774.5 1466,-738.5 1334,-738.5"/>
<text text-anchor="start" x="1342" y="-752.8" font-family="monospace" font-size="14.00">EX_EndOfScript</text>
</g>
</g>
</svg>
