<?xml version="1.0" encoding="UTF-8" standalone="no"?>
<!DOCTYPE svg PUBLIC "-//W3C//DTD SVG 1.1//EN"
 "http://www.w3.org/Graphics/SVG/1.1/DTD/svg11.dtd">
<!-- Generated by graphviz version 7.0.1 (0)
 -->
<!-- Pages: 1 -->
<svg width="3056pt" height="2111pt"
 viewBox="0.00 0.00 3056.00 2111.00" xmlns="http://www.w3.org/2000/svg" xmlns:xlink="http://www.w3.org/1999/xlink">
<g id="graph0" class="graph" transform="scale(1 1) rotate(0) translate(4 2107)">
<polygon fill="white" stroke="none" points="-4,4 -4,-2107 3052,-2107 3052,4 -4,4"/>
<!-- TSK_FindPointAboveTarget_C -->
<g id="node1" class="node">
<title>TSK_FindPointAboveTarget_C</title>
<polygon fill="#88ff88" stroke="black" points="0,-1869.5 0,-2102.5 512,-2102.5 512,-1869.5 0,-1869.5"/>
<text text-anchor="start" x="8" y="-2087.3" font-family="monospace" font-size="14.00">ClassExport: TSK_FindPointAboveTarget_C</text>
<text text-anchor="start" x="8" y="-2072.3" font-family="monospace" font-size="14.00">  SuperStruct: import /Script/AIModule&#45;&gt;BTTask_BlueprintBase</text>
<text text-anchor="start" x="8" y="-2057.3" font-family="monospace" font-size="14.00">  Properties:</text>
<text text-anchor="start" x="8" y="-2042.3" font-family="monospace" font-size="14.00">    StructProperty UberGraphFrame</text>
<text text-anchor="start" x="8" y="-2027.3" font-family="monospace" font-size="14.00">      CPF_Transient|CPF_DuplicateTransient</text>
<text text-anchor="start" x="8" y="-2012.3" font-family="monospace" font-size="14.00">    StructProperty LocationKey</text>
<text text-anchor="start" x="8" y="-1997.3" font-family="monospace" font-size="14.00">      CPF_Edit|CPF_BlueprintVisible</text>
<text text-anchor="start" x="8" y="-1982.3" font-family="monospace" font-size="14.00">    FloatProperty Distance</text>
<text text-anchor="start" x="8" y="-1967.3" font-family="monospace" font-size="14.00">      CPF_Edit|CPF_BlueprintVisible</text>
<text text-anchor="start" x="8" y="-1952.3" font-family="monospace" font-size="14.00">    StructProperty TargetKey</text>
<text text-anchor="start" x="8" y="-1937.3" font-family="monospace" font-size="14.00">      CPF_Edit|CPF_BlueprintVisible</text>
<text text-anchor="start" x="8" y="-1922.3" font-family="monospace" font-size="14.00">    FloatProperty Height</text>
<text text-anchor="start" x="8" y="-1907.3" font-family="monospace" font-size="14.00">      CPF_Edit|CPF_BlueprintVisible</text>
<text text-anchor="start" x="8" y="-1892.3" font-family="monospace" font-size="14.00">    StructProperty ManualOffset</text>
<text text-anchor="start" x="8" y="-1877.3" font-family="monospace" font-size="14.00">      CPF_Edit|CPF_BlueprintVisible</text>
</g>
<!-- ExecuteUbergraph_TSK_FindPointAboveTarget -->
<g id="node2" class="node">
<title>ExecuteUbergraph_TSK_FindPointAboveTarget</title>
<polygon fill="#ff8888" stroke="black" points="530.5,-1877 530.5,-2095 1231.5,-2095 1231.5,-1877 530.5,-1877"/>
<text text-anchor="start" x="538.5" y="-2079.8" font-family="monospace" font-size="14.00">Function ExecuteUbergraph_TSK_FindPointAboveTarget</text>
<text text-anchor="start" x="538.5" y="-2064.8" font-family="monospace" font-size="14.00">  IntProperty EntryPoint</text>
<text text-anchor="start" x="538.5" y="-2049.8" font-family="monospace" font-size="14.00">    CPF_BlueprintVisible|CPF_BlueprintReadOnly|CPF_Parm</text>
<text text-anchor="start" x="538.5" y="-2034.8" font-family="monospace" font-size="14.00">  ObjectProperty CallFunc_GetBlackboardValueAsActor_ReturnValue</text>
<text text-anchor="start" x="538.5" y="-2019.8" font-family="monospace" font-size="14.00">  ObjectProperty K2Node_Event_OwnerController</text>
<text text-anchor="start" x="538.5" y="-2004.8" font-family="monospace" font-size="14.00">  ObjectProperty K2Node_Event_ControlledPawn</text>
<text text-anchor="start" x="538.5" y="-1989.8" font-family="monospace" font-size="14.00">  BoolProperty CallFunc_IsValid_ReturnValue</text>
<text text-anchor="start" x="538.5" y="-1974.8" font-family="monospace" font-size="14.00">  ObjectProperty CallFunc_GetComponentByClass_ReturnValue</text>
<text text-anchor="start" x="538.5" y="-1959.8" font-family="monospace" font-size="14.00">    CPF_InstancedReference</text>
<text text-anchor="start" x="538.5" y="-1944.8" font-family="monospace" font-size="14.00">  StructProperty CallFunc_K2_GetActorLocation_ReturnValue</text>
<text text-anchor="start" x="538.5" y="-1929.8" font-family="monospace" font-size="14.00">  StructProperty CallFunc_Add_VectorVector_ReturnValue</text>
<text text-anchor="start" x="538.5" y="-1914.8" font-family="monospace" font-size="14.00">  BoolProperty CallFunc_GetRandomReachablePointAtApproximateDistance_Async_success</text>
<text text-anchor="start" x="538.5" y="-1899.8" font-family="monospace" font-size="14.00">  StructProperty CallFunc_GetRandomReachablePointAtApproximateDistance_Async_outPos</text>
<text text-anchor="start" x="538.5" y="-1884.8" font-family="monospace" font-size="14.00">  StructProperty CallFunc_FindPathfinderPointAbove_ReturnValue</text>
</g>
<!-- ExecuteUbergraph_TSK_FindPointAboveTarget__0 -->
<g id="node3" class="node">
<title>ExecuteUbergraph_TSK_FindPointAboveTarget__0</title>
<polygon fill="#eeeeee" stroke="black" points="773.5,-1758.5 773.5,-1794.5 988.5,-1794.5 988.5,-1758.5 773.5,-1758.5"/>
<text text-anchor="start" x="781.5" y="-1772.8" font-family="monospace" font-size="14.00">EX_PushExecutionFlow 506</text>
</g>
<!-- ExecuteUbergraph_TSK_FindPointAboveTarget&#45;&gt;ExecuteUbergraph_TSK_FindPointAboveTarget__0 -->
<g id="edge1" class="edge">
<title>ExecuteUbergraph_TSK_FindPointAboveTarget&#45;&gt;ExecuteUbergraph_TSK_FindPointAboveTarget__0</title>
<path fill="none" stroke="black" d="M881,-1877.3C881,-1850.75 881,-1824.54 881,-1805.65"/>
<polygon fill="black" stroke="black" points="884.5,-1805.88 881,-1795.88 877.5,-1805.88 884.5,-1805.88"/>
</g>
<!-- ExecuteUbergraph_TSK_FindPointAboveTarget__5 -->
<g id="node4" class="node">
<title>ExecuteUbergraph_TSK_FindPointAboveTarget__5</title>
<polygon fill="#eeeeee" stroke="black" points="693,-1645.5 693,-1683.5 965,-1683.5 965,-1645.5 693,-1645.5"/>
<text text-anchor="start" x="701" y="-1668.3" font-family="monospace" font-size="14.00">EX_ComputedJump</text>
<text text-anchor="start" x="701" y="-1653.3" font-family="monospace" font-size="14.00">  EX_LocalVariable [EntryPoint]</text>
</g>
<!-- ExecuteUbergraph_TSK_FindPointAboveTarget__0&#45;&gt;ExecuteUbergraph_TSK_FindPointAboveTarget__5 -->
<g id="edge3" class="edge">
<title>ExecuteUbergraph_TSK_FindPointAboveTarget__0&#45;&gt;ExecuteUbergraph_TSK_FindPointAboveTarget__5</title>
<path fill="none" stroke="black" d="M873.1,-1758.79C864.96,-1741.57 852.12,-1714.41 842.39,-1693.83"/>
<polygon fill="black" stroke="black" points="845.58,-1692.38 838.14,-1684.83 839.25,-1695.37 845.58,-1692.38"/>
</g>
<!-- ExecuteUbergraph_TSK_FindPointAboveTarget__506 -->
<g id="node23" class="node">
<title>ExecuteUbergraph_TSK_FindPointAboveTarget__506</title>
<polygon fill="#eeeeee" stroke="black" points="983,-1645.5 983,-1683.5 1099,-1683.5 1099,-1645.5 983,-1645.5"/>
<text text-anchor="start" x="991" y="-1668.3" font-family="monospace" font-size="14.00">EX_Return</text>
<text text-anchor="start" x="991" y="-1653.3" font-family="monospace" font-size="14.00">  EX_Nothing</text>
</g>
<!-- ExecuteUbergraph_TSK_FindPointAboveTarget__0&#45;&gt;ExecuteUbergraph_TSK_FindPointAboveTarget__506 -->
<g id="edge2" class="edge">
<title>ExecuteUbergraph_TSK_FindPointAboveTarget__0:e&#45;&gt;ExecuteUbergraph_TSK_FindPointAboveTarget__506</title>
<path fill="none" stroke="red" d="M990,-1776.5C1026.08,-1776.5 1036.73,-1727.49 1039.81,-1694.6"/>
<polygon fill="none" stroke="red" points="1043.29,-1695.07 1040.53,-1684.84 1036.31,-1694.56 1043.29,-1695.07"/>
<text text-anchor="middle" x="1080.5" y="-1716.8" font-family="monospace" font-size="14.00">PUSH STACK</text>
</g>
<!-- ExecuteUbergraph_TSK_FindPointAboveTarget__15 -->
<g id="node5" class="node">
<title>ExecuteUbergraph_TSK_FindPointAboveTarget__15</title>
<polygon fill="#eeeeee" stroke="black" points="2396,-301.5 2396,-339.5 3048,-339.5 3048,-301.5 2396,-301.5"/>
<text text-anchor="start" x="2404" y="-324.3" font-family="monospace" font-size="14.00">EX_FinalFunction import /Script/AIModule&#45;&gt;BTTask_BlueprintBase&#45;&gt;FinishExecute</text>
<text text-anchor="start" x="2404" y="-309.3" font-family="monospace" font-size="14.00">  EX_False</text>
</g>
<!-- ExecuteUbergraph_TSK_FindPointAboveTarget__26 -->
<g id="node6" class="node">
<title>ExecuteUbergraph_TSK_FindPointAboveTarget__26</title>
<polygon fill="#eeeeee" stroke="black" points="2635.5,-166.5 2635.5,-202.5 2808.5,-202.5 2808.5,-166.5 2635.5,-166.5"/>
<text text-anchor="start" x="2643.5" y="-180.8" font-family="monospace" font-size="14.00">EX_PopExecutionFlow</text>
</g>
<!-- ExecuteUbergraph_TSK_FindPointAboveTarget__15&#45;&gt;ExecuteUbergraph_TSK_FindPointAboveTarget__26 -->
<g id="edge4" class="edge">
<title>ExecuteUbergraph_TSK_FindPointAboveTarget__15&#45;&gt;ExecuteUbergraph_TSK_FindPointAboveTarget__26</title>
<path fill="none" stroke="black" d="M2722,-301.71C2722,-279.11 2722,-239.87 2722,-213.31"/>
<polygon fill="black" stroke="black" points="2725.5,-213.62 2722,-203.62 2718.5,-213.62 2725.5,-213.62"/>
</g>
<!-- ExecuteUbergraph_TSK_FindPointAboveTarget__27 -->
<g id="node7" class="node">
<title>ExecuteUbergraph_TSK_FindPointAboveTarget__27</title>
<polygon fill="#eeeeee" stroke="black" points="1844.5,-436.5 1844.5,-474.5 2587.5,-474.5 2587.5,-436.5 1844.5,-436.5"/>
<text text-anchor="start" x="1852.5" y="-459.3" font-family="monospace" font-size="14.00">EX_JumpIfNot 15</text>
<text text-anchor="start" x="1852.5" y="-444.3" font-family="monospace" font-size="14.00">  EX_LocalVariable [CallFunc_GetRandomReachablePointAtApproximateDistance_Async_success]</text>
</g>
<!-- ExecuteUbergraph_TSK_FindPointAboveTarget__27&#45;&gt;ExecuteUbergraph_TSK_FindPointAboveTarget__15 -->
<g id="edge5" class="edge">
<title>ExecuteUbergraph_TSK_FindPointAboveTarget__27:e&#45;&gt;ExecuteUbergraph_TSK_FindPointAboveTarget__15</title>
<path fill="none" stroke="red" d="M2589,-455.5C2648.17,-455.5 2690.03,-388.86 2709.57,-349.57"/>
<polygon fill="none" stroke="red" points="2712.67,-351.19 2713.83,-340.66 2706.36,-348.17 2712.67,-351.19"/>
<text text-anchor="middle" x="2700" y="-406.8" font-family="monospace" font-size="14.00">IF NOT</text>
</g>
<!-- ExecuteUbergraph_TSK_FindPointAboveTarget__41 -->
<g id="node8" class="node">
<title>ExecuteUbergraph_TSK_FindPointAboveTarget__41</title>
<polygon fill="#eeeeee" stroke="black" points="1610.5,-256.5 1610.5,-384.5 2377.5,-384.5 2377.5,-256.5 1610.5,-256.5"/>
<text text-anchor="start" x="1618.5" y="-369.3" font-family="monospace" font-size="14.00">EX_Let</text>
<text text-anchor="start" x="1618.5" y="-354.3" font-family="monospace" font-size="14.00">  EX_LocalVariable [CallFunc_FindPathfinderPointAbove_ReturnValue]</text>
<text text-anchor="start" x="1618.5" y="-339.3" font-family="monospace" font-size="14.00">  EX_Context</text>
<text text-anchor="start" x="1618.5" y="-324.3" font-family="monospace" font-size="14.00">    EX_LocalVariable [CallFunc_GetComponentByClass_ReturnValue]</text>
<text text-anchor="start" x="1618.5" y="-309.3" font-family="monospace" font-size="14.00">    EX_FinalFunction import /Script/FSD&#45;&gt;DeepPathfinderMovement&#45;&gt;FindPathfinderPointAbove</text>
<text text-anchor="start" x="1618.5" y="-294.3" font-family="monospace" font-size="14.00">      EX_LocalVariable [CallFunc_GetRandomReachablePointAtApproximateDistance_Async_outPos]</text>
<text text-anchor="start" x="1618.5" y="-279.3" font-family="monospace" font-size="14.00">      EX_InstanceVariable [Height]</text>
<text text-anchor="start" x="1618.5" y="-264.3" font-family="monospace" font-size="14.00">    RValue = [CallFunc_FindPathfinderPointAbove_ReturnValue]</text>
</g>
<!-- ExecuteUbergraph_TSK_FindPointAboveTarget__27&#45;&gt;ExecuteUbergraph_TSK_FindPointAboveTarget__41 -->
<g id="edge6" class="edge">
<title>ExecuteUbergraph_TSK_FindPointAboveTarget__27&#45;&gt;ExecuteUbergraph_TSK_FindPointAboveTarget__41</title>
<path fill="none" stroke="black" d="M2186.06,-436.56C2165.64,-424.33 2137.18,-407.28 2108.42,-390.05"/>
<polygon fill="black" stroke="black" points="2110.34,-387.12 2099.96,-384.98 2106.74,-393.12 2110.34,-387.12"/>
<text text-anchor="middle" x="2158.5" y="-406.8" font-family="monospace" font-size="14.00">IF</text>
</g>
<!-- ExecuteUbergraph_TSK_FindPointAboveTarget__109 -->
<g id="node9" class="node">
<title>ExecuteUbergraph_TSK_FindPointAboveTarget__109</title>
<polygon fill="#eeeeee" stroke="black" points="1647.5,-150.5 1647.5,-218.5 2340.5,-218.5 2340.5,-150.5 1647.5,-150.5"/>
<text text-anchor="start" x="1655.5" y="-203.3" font-family="monospace" font-size="14.00">EX_CallMath import /Script/AIModule&#45;&gt;BTFunctionLibrary&#45;&gt;SetBlackboardValueAsVector</text>
<text text-anchor="start" x="1655.5" y="-188.3" font-family="monospace" font-size="14.00">  EX_Self</text>
<text text-anchor="start" x="1655.5" y="-173.3" font-family="monospace" font-size="14.00">  EX_InstanceVariable [LocationKey]</text>
<text text-anchor="start" x="1655.5" y="-158.3" font-family="monospace" font-size="14.00">  EX_LocalVariable [CallFunc_FindPathfinderPointAbove_ReturnValue]</text>
</g>
<!-- ExecuteUbergraph_TSK_FindPointAboveTarget__41&#45;&gt;ExecuteUbergraph_TSK_FindPointAboveTarget__109 -->
<g id="edge7" class="edge">
<title>ExecuteUbergraph_TSK_FindPointAboveTarget__41&#45;&gt;ExecuteUbergraph_TSK_FindPointAboveTarget__109</title>
<path fill="none" stroke="black" d="M1994,-256.82C1994,-247.64 1994,-238.35 1994,-229.65"/>
<polygon fill="black" stroke="black" points="1997.5,-229.72 1994,-219.72 1990.5,-229.72 1997.5,-229.72"/>
</g>
<!-- ExecuteUbergraph_TSK_FindPointAboveTarget__138 -->
<g id="node10" class="node">
<title>ExecuteUbergraph_TSK_FindPointAboveTarget__138</title>
<polygon fill="#eeeeee" stroke="black" points="1668,-74.5 1668,-112.5 2320,-112.5 2320,-74.5 1668,-74.5"/>
<text text-anchor="start" x="1676" y="-97.3" font-family="monospace" font-size="14.00">EX_FinalFunction import /Script/AIModule&#45;&gt;BTTask_BlueprintBase&#45;&gt;FinishExecute</text>
<text text-anchor="start" x="1676" y="-82.3" font-family="monospace" font-size="14.00">  EX_True</text>
</g>
<!-- ExecuteUbergraph_TSK_FindPointAboveTarget__109&#45;&gt;ExecuteUbergraph_TSK_FindPointAboveTarget__138 -->
<g id="edge8" class="edge">
<title>ExecuteUbergraph_TSK_FindPointAboveTarget__109&#45;&gt;ExecuteUbergraph_TSK_FindPointAboveTarget__138</title>
<path fill="none" stroke="black" d="M1994,-150.61C1994,-141.79 1994,-132.32 1994,-123.72"/>
<polygon fill="black" stroke="black" points="1997.5,-123.8 1994,-113.8 1990.5,-123.8 1997.5,-123.8"/>
</g>
<!-- ExecuteUbergraph_TSK_FindPointAboveTarget__149 -->
<g id="node11" class="node">
<title>ExecuteUbergraph_TSK_FindPointAboveTarget__149</title>
<polygon fill="#eeeeee" stroke="black" points="1907.5,-0.5 1907.5,-36.5 2080.5,-36.5 2080.5,-0.5 1907.5,-0.5"/>
<text text-anchor="start" x="1915.5" y="-14.8" font-family="monospace" font-size="14.00">EX_PopExecutionFlow</text>
</g>
<!-- ExecuteUbergraph_TSK_FindPointAboveTarget__138&#45;&gt;ExecuteUbergraph_TSK_FindPointAboveTarget__149 -->
<g id="edge9" class="edge">
<title>ExecuteUbergraph_TSK_FindPointAboveTarget__138&#45;&gt;ExecuteUbergraph_TSK_FindPointAboveTarget__149</title>
<path fill="none" stroke="black" d="M1994,-74.83C1994,-66.61 1994,-56.65 1994,-47.45"/>
<polygon fill="black" stroke="black" points="1997.5,-47.52 1994,-37.52 1990.5,-47.52 1997.5,-47.52"/>
</g>
<!-- ExecuteUbergraph_TSK_FindPointAboveTarget__150 -->
<g id="node12" class="node">
<title>ExecuteUbergraph_TSK_FindPointAboveTarget__150</title>
<polygon fill="#eeeeee" stroke="black" points="2076,-1154 2076,-1192 2728,-1192 2728,-1154 2076,-1154"/>
<text text-anchor="start" x="2084" y="-1176.8" font-family="monospace" font-size="14.00">EX_FinalFunction import /Script/AIModule&#45;&gt;BTTask_BlueprintBase&#45;&gt;FinishExecute</text>
<text text-anchor="start" x="2084" y="-1161.8" font-family="monospace" font-size="14.00">  EX_False</text>
</g>
<!-- ExecuteUbergraph_TSK_FindPointAboveTarget__161 -->
<g id="node13" class="node">
<title>ExecuteUbergraph_TSK_FindPointAboveTarget__161</title>
<polygon fill="#eeeeee" stroke="black" points="2315.5,-1034 2315.5,-1070 2488.5,-1070 2488.5,-1034 2315.5,-1034"/>
<text text-anchor="start" x="2323.5" y="-1048.3" font-family="monospace" font-size="14.00">EX_PopExecutionFlow</text>
</g>
<!-- ExecuteUbergraph_TSK_FindPointAboveTarget__150&#45;&gt;ExecuteUbergraph_TSK_FindPointAboveTarget__161 -->
<g id="edge10" class="edge">
<title>ExecuteUbergraph_TSK_FindPointAboveTarget__150&#45;&gt;ExecuteUbergraph_TSK_FindPointAboveTarget__161</title>
<path fill="none" stroke="black" d="M2402,-1154.18C2402,-1134.84 2402,-1103.68 2402,-1081.04"/>
<polygon fill="black" stroke="black" points="2405.5,-1081.3 2402,-1071.3 2398.5,-1081.3 2405.5,-1081.3"/>
</g>
<!-- ExecuteUbergraph_TSK_FindPointAboveTarget__162 -->
<g id="node14" class="node">
<title>ExecuteUbergraph_TSK_FindPointAboveTarget__162</title>
<polygon fill="#eeeeee" stroke="black" points="1558.5,-1448.5 1558.5,-1531.5 2259.5,-1531.5 2259.5,-1448.5 1558.5,-1448.5"/>
<text text-anchor="start" x="1566.5" y="-1516.3" font-family="monospace" font-size="14.00">EX_LetObj</text>
<text text-anchor="start" x="1566.5" y="-1501.3" font-family="monospace" font-size="14.00">  EX_LocalVariable [CallFunc_GetBlackboardValueAsActor_ReturnValue]</text>
<text text-anchor="start" x="1566.5" y="-1486.3" font-family="monospace" font-size="14.00">  EX_CallMath import /Script/AIModule&#45;&gt;BTFunctionLibrary&#45;&gt;GetBlackboardValueAsActor</text>
<text text-anchor="start" x="1566.5" y="-1471.3" font-family="monospace" font-size="14.00">    EX_Self</text>
<text text-anchor="start" x="1566.5" y="-1456.3" font-family="monospace" font-size="14.00">    EX_InstanceVariable [TargetKey]</text>
</g>
<!-- ExecuteUbergraph_TSK_FindPointAboveTarget__192 -->
<g id="node15" class="node">
<title>ExecuteUbergraph_TSK_FindPointAboveTarget__192</title>
<polygon fill="#eeeeee" stroke="black" points="1616,-1342.5 1616,-1410.5 2202,-1410.5 2202,-1342.5 1616,-1342.5"/>
<text text-anchor="start" x="1624" y="-1395.3" font-family="monospace" font-size="14.00">EX_LetBool</text>
<text text-anchor="start" x="1624" y="-1380.3" font-family="monospace" font-size="14.00">  EX_LocalVariable [CallFunc_IsValid_ReturnValue]</text>
<text text-anchor="start" x="1624" y="-1365.3" font-family="monospace" font-size="14.00">  EX_CallMath import /Script/Engine&#45;&gt;KismetSystemLibrary&#45;&gt;IsValid</text>
<text text-anchor="start" x="1624" y="-1350.3" font-family="monospace" font-size="14.00">    EX_LocalVariable [CallFunc_GetBlackboardValueAsActor_ReturnValue]</text>
</g>
<!-- ExecuteUbergraph_TSK_FindPointAboveTarget__162&#45;&gt;ExecuteUbergraph_TSK_FindPointAboveTarget__192 -->
<g id="edge11" class="edge">
<title>ExecuteUbergraph_TSK_FindPointAboveTarget__162&#45;&gt;ExecuteUbergraph_TSK_FindPointAboveTarget__192</title>
<path fill="none" stroke="black" d="M1909,-1448.75C1909,-1439.98 1909,-1430.67 1909,-1421.76"/>
<polygon fill="black" stroke="black" points="1912.5,-1421.88 1909,-1411.88 1905.5,-1421.88 1912.5,-1421.88"/>
</g>
<!-- ExecuteUbergraph_TSK_FindPointAboveTarget__221 -->
<g id="node16" class="node">
<title>ExecuteUbergraph_TSK_FindPointAboveTarget__221</title>
<polygon fill="#eeeeee" stroke="black" points="1698.5,-1266.5 1698.5,-1304.5 2119.5,-1304.5 2119.5,-1266.5 1698.5,-1266.5"/>
<text text-anchor="start" x="1706.5" y="-1289.3" font-family="monospace" font-size="14.00">EX_JumpIfNot 150</text>
<text text-anchor="start" x="1706.5" y="-1274.3" font-family="monospace" font-size="14.00">  EX_LocalVariable [CallFunc_IsValid_ReturnValue]</text>
</g>
<!-- ExecuteUbergraph_TSK_FindPointAboveTarget__192&#45;&gt;ExecuteUbergraph_TSK_FindPointAboveTarget__221 -->
<g id="edge12" class="edge">
<title>ExecuteUbergraph_TSK_FindPointAboveTarget__192&#45;&gt;ExecuteUbergraph_TSK_FindPointAboveTarget__221</title>
<path fill="none" stroke="black" d="M1909,-1342.61C1909,-1333.79 1909,-1324.32 1909,-1315.72"/>
<polygon fill="black" stroke="black" points="1912.5,-1315.8 1909,-1305.8 1905.5,-1315.8 1912.5,-1315.8"/>
</g>
<!-- ExecuteUbergraph_TSK_FindPointAboveTarget__221&#45;&gt;ExecuteUbergraph_TSK_FindPointAboveTarget__150 -->
<g id="edge13" class="edge">
<title>ExecuteUbergraph_TSK_FindPointAboveTarget__221:e&#45;&gt;ExecuteUbergraph_TSK_FindPointAboveTarget__150</title>
<path fill="none" stroke="red" d="M2121,-1285.5C2214.98,-1285.5 2314.97,-1230.95 2366.58,-1198.16"/>
<polygon fill="none" stroke="red" points="2368.47,-1201.1 2374.97,-1192.74 2364.67,-1195.23 2368.47,-1201.1"/>
<text text-anchor="middle" x="2330" y="-1236.8" font-family="monospace" font-size="14.00">IF NOT</text>
</g>
<!-- ExecuteUbergraph_TSK_FindPointAboveTarget__235 -->
<g id="node17" class="node">
<title>ExecuteUbergraph_TSK_FindPointAboveTarget__235</title>
<polygon fill="#eeeeee" stroke="black" points="1422.5,-1131.5 1422.5,-1214.5 2057.5,-1214.5 2057.5,-1131.5 1422.5,-1131.5"/>
<text text-anchor="start" x="1430.5" y="-1199.3" font-family="monospace" font-size="14.00">EX_LetObj</text>
<text text-anchor="start" x="1430.5" y="-1184.3" font-family="monospace" font-size="14.00">  EX_LocalVariable [CallFunc_GetComponentByClass_ReturnValue]</text>
<text text-anchor="start" x="1430.5" y="-1169.3" font-family="monospace" font-size="14.00">  EX_CallMath import /Script/FSD&#45;&gt;ActorFunctionLibrary&#45;&gt;GetComponentByClass</text>
<text text-anchor="start" x="1430.5" y="-1154.3" font-family="monospace" font-size="14.00">    EX_LocalVariable [K2Node_Event_ControlledPawn]</text>
<text text-anchor="start" x="1430.5" y="-1139.3" font-family="monospace" font-size="14.00">    EX_ObjectConst import /Script/FSD&#45;&gt;DeepPathfinderMovement</text>
</g>
<!-- ExecuteUbergraph_TSK_FindPointAboveTarget__221&#45;&gt;ExecuteUbergraph_TSK_FindPointAboveTarget__235 -->
<g id="edge14" class="edge">
<title>ExecuteUbergraph_TSK_FindPointAboveTarget__221&#45;&gt;ExecuteUbergraph_TSK_FindPointAboveTarget__235</title>
<path fill="none" stroke="black" d="M1881.47,-1266.5C1862.4,-1254.03 1836.07,-1236.82 1811.3,-1220.62"/>
<polygon fill="black" stroke="black" points="1813.45,-1217.84 1803.16,-1215.3 1809.62,-1223.7 1813.45,-1217.84"/>
<text text-anchor="middle" x="1857.5" y="-1236.8" font-family="monospace" font-size="14.00">IF</text>
</g>
<!-- ExecuteUbergraph_TSK_FindPointAboveTarget__273 -->
<g id="node18" class="node">
<title>ExecuteUbergraph_TSK_FindPointAboveTarget__273</title>
<polygon fill="#eeeeee" stroke="black" points="1389.5,-1010.5 1389.5,-1093.5 2090.5,-1093.5 2090.5,-1010.5 1389.5,-1010.5"/>
<text text-anchor="start" x="1397.5" y="-1078.3" font-family="monospace" font-size="14.00">EX_LetObj</text>
<text text-anchor="start" x="1397.5" y="-1063.3" font-family="monospace" font-size="14.00">  EX_LocalVariable [CallFunc_GetBlackboardValueAsActor_ReturnValue]</text>
<text text-anchor="start" x="1397.5" y="-1048.3" font-family="monospace" font-size="14.00">  EX_CallMath import /Script/AIModule&#45;&gt;BTFunctionLibrary&#45;&gt;GetBlackboardValueAsActor</text>
<text text-anchor="start" x="1397.5" y="-1033.3" font-family="monospace" font-size="14.00">    EX_Self</text>
<text text-anchor="start" x="1397.5" y="-1018.3" font-family="monospace" font-size="14.00">    EX_InstanceVariable [TargetKey]</text>
</g>
<!-- ExecuteUbergraph_TSK_FindPointAboveTarget__235&#45;&gt;ExecuteUbergraph_TSK_FindPointAboveTarget__273 -->
<g id="edge15" class="edge">
<title>ExecuteUbergraph_TSK_FindPointAboveTarget__235&#45;&gt;ExecuteUbergraph_TSK_FindPointAboveTarget__273</title>
<path fill="none" stroke="black" d="M1740,-1131.71C1740,-1122.99 1740,-1113.65 1740,-1104.56"/>
<polygon fill="black" stroke="black" points="1743.5,-1104.76 1740,-1094.76 1736.5,-1104.76 1743.5,-1104.76"/>
</g>
<!-- ExecuteUbergraph_TSK_FindPointAboveTarget__303 -->
<g id="node19" class="node">
<title>ExecuteUbergraph_TSK_FindPointAboveTarget__303</title>
<polygon fill="#eeeeee" stroke="black" points="1443,-874.5 1443,-972.5 2037,-972.5 2037,-874.5 1443,-874.5"/>
<text text-anchor="start" x="1451" y="-957.3" font-family="monospace" font-size="14.00">EX_Let</text>
<text text-anchor="start" x="1451" y="-942.3" font-family="monospace" font-size="14.00">  EX_LocalVariable [CallFunc_K2_GetActorLocation_ReturnValue]</text>
<text text-anchor="start" x="1451" y="-927.3" font-family="monospace" font-size="14.00">  EX_Context</text>
<text text-anchor="start" x="1451" y="-912.3" font-family="monospace" font-size="14.00">    EX_LocalVariable [CallFunc_GetBlackboardValueAsActor_ReturnValue]</text>
<text text-anchor="start" x="1451" y="-897.3" font-family="monospace" font-size="14.00">    EX_FinalFunction import /Script/Engine&#45;&gt;Actor&#45;&gt;K2_GetActorLocation</text>
<text text-anchor="start" x="1451" y="-882.3" font-family="monospace" font-size="14.00">    RValue = [CallFunc_K2_GetActorLocation_ReturnValue]</text>
</g>
<!-- ExecuteUbergraph_TSK_FindPointAboveTarget__273&#45;&gt;ExecuteUbergraph_TSK_FindPointAboveTarget__303 -->
<g id="edge16" class="edge">
<title>ExecuteUbergraph_TSK_FindPointAboveTarget__273&#45;&gt;ExecuteUbergraph_TSK_FindPointAboveTarget__303</title>
<path fill="none" stroke="black" d="M1740,-1010.63C1740,-1002.09 1740,-992.9 1740,-983.82"/>
<polygon fill="black" stroke="black" points="1743.5,-983.96 1740,-973.96 1736.5,-983.96 1743.5,-983.96"/>
</g>
<!-- ExecuteUbergraph_TSK_FindPointAboveTarget__353 -->
<g id="node20" class="node">
<title>ExecuteUbergraph_TSK_FindPointAboveTarget__353</title>
<polygon fill="#eeeeee" stroke="black" points="1434.5,-753.5 1434.5,-836.5 2045.5,-836.5 2045.5,-753.5 1434.5,-753.5"/>
<text text-anchor="start" x="1442.5" y="-821.3" font-family="monospace" font-size="14.00">EX_Let</text>
<text text-anchor="start" x="1442.5" y="-806.3" font-family="monospace" font-size="14.00">  EX_LocalVariable [CallFunc_Add_VectorVector_ReturnValue]</text>
<text text-anchor="start" x="1442.5" y="-791.3" font-family="monospace" font-size="14.00">  EX_CallMath import /Script/Engine&#45;&gt;KismetMathLibrary&#45;&gt;Add_VectorVector</text>
<text text-anchor="start" x="1442.5" y="-776.3" font-family="monospace" font-size="14.00">    EX_LocalVariable [CallFunc_K2_GetActorLocation_ReturnValue]</text>
<text text-anchor="start" x="1442.5" y="-761.3" font-family="monospace" font-size="14.00">    EX_InstanceVariable [ManualOffset]</text>
</g>
<!-- ExecuteUbergraph_TSK_FindPointAboveTarget__303&#45;&gt;ExecuteUbergraph_TSK_FindPointAboveTarget__353 -->
<g id="edge17" class="edge">
<title>ExecuteUbergraph_TSK_FindPointAboveTarget__303&#45;&gt;ExecuteUbergraph_TSK_FindPointAboveTarget__353</title>
<path fill="none" stroke="black" d="M1740,-874.68C1740,-865.92 1740,-856.74 1740,-847.87"/>
<polygon fill="black" stroke="black" points="1743.5,-847.97 1740,-837.97 1736.5,-847.97 1743.5,-847.97"/>
</g>
<!-- ExecuteUbergraph_TSK_FindPointAboveTarget__399 -->
<g id="node21" class="node">
<title>ExecuteUbergraph_TSK_FindPointAboveTarget__399</title>
<polygon fill="#eeeeee" stroke="black" points="1265.5,-512.5 1265.5,-715.5 2214.5,-715.5 2214.5,-512.5 1265.5,-512.5"/>
<text text-anchor="start" x="1273.5" y="-700.3" font-family="monospace" font-size="14.00">EX_Context</text>
<text text-anchor="start" x="1273.5" y="-685.3" font-family="monospace" font-size="14.00">  EX_LocalVariable [CallFunc_GetComponentByClass_ReturnValue]</text>
<text text-anchor="start" x="1273.5" y="-670.3" font-family="monospace" font-size="14.00">  EX_FinalFunction import /Script/FSD&#45;&gt;DeepPathfinderMovement&#45;&gt;GetRandomReachablePointAtApproximateDistance_Async</text>
<text text-anchor="start" x="1273.5" y="-655.3" font-family="monospace" font-size="14.00">    EX_LocalVariable [CallFunc_Add_VectorVector_ReturnValue]</text>
<text text-anchor="start" x="1273.5" y="-640.3" font-family="monospace" font-size="14.00">    EX_InstanceVariable [Distance]</text>
<text text-anchor="start" x="1273.5" y="-625.3" font-family="monospace" font-size="14.00">    EX_LocalVariable [CallFunc_GetRandomReachablePointAtApproximateDistance_Async_success]</text>
<text text-anchor="start" x="1273.5" y="-610.3" font-family="monospace" font-size="14.00">    EX_LocalVariable [CallFunc_GetRandomReachablePointAtApproximateDistance_Async_outPos]</text>
<text text-anchor="start" x="1273.5" y="-595.3" font-family="monospace" font-size="14.00">    EX_StructConst import /Script/Engine&#45;&gt;LatentActionInfo</text>
<text text-anchor="start" x="1273.5" y="-580.3" font-family="monospace" font-size="14.00">      EX_SkipOffsetConst 27</text>
<text text-anchor="start" x="1273.5" y="-565.3" font-family="monospace" font-size="14.00">      EX_IntConst 1995927992</text>
<text text-anchor="start" x="1273.5" y="-550.3" font-family="monospace" font-size="14.00">      EX_NameConst ExecuteUbergraph_TSK_FindPointAboveTarget</text>
<text text-anchor="start" x="1273.5" y="-535.3" font-family="monospace" font-size="14.00">      EX_Self</text>
<text text-anchor="start" x="1273.5" y="-520.3" font-family="monospace" font-size="14.00">  RValue = []</text>
</g>
<!-- ExecuteUbergraph_TSK_FindPointAboveTarget__353&#45;&gt;ExecuteUbergraph_TSK_FindPointAboveTarget__399 -->
<g id="edge18" class="edge">
<title>ExecuteUbergraph_TSK_FindPointAboveTarget__353&#45;&gt;ExecuteUbergraph_TSK_FindPointAboveTarget__399</title>
<path fill="none" stroke="black" d="M1740,-753.83C1740,-745.46 1740,-736.25 1740,-726.68"/>
<polygon fill="black" stroke="black" points="1743.5,-726.82 1740,-716.82 1736.5,-726.82 1743.5,-726.82"/>
</g>
<!-- ExecuteUbergraph_TSK_FindPointAboveTarget__399&#45;&gt;ExecuteUbergraph_TSK_FindPointAboveTarget__27 -->
<g id="edge19" class="edge">
<title>ExecuteUbergraph_TSK_FindPointAboveTarget__399:e&#45;&gt;ExecuteUbergraph_TSK_FindPointAboveTarget__27</title>
<path fill="none" stroke="red" d="M2216,-614C2267.05,-614 2243.64,-530.25 2227.23,-484.89"/>
<polygon fill="none" stroke="red" points="2230.56,-483.82 2223.78,-475.68 2224.01,-486.27 2230.56,-483.82"/>
</g>
<!-- ExecuteUbergraph_TSK_FindPointAboveTarget__505 -->
<g id="node22" class="node">
<title>ExecuteUbergraph_TSK_FindPointAboveTarget__505</title>
<polygon fill="#eeeeee" stroke="black" points="1653.5,-437.5 1653.5,-473.5 1826.5,-473.5 1826.5,-437.5 1653.5,-437.5"/>
<text text-anchor="start" x="1661.5" y="-451.8" font-family="monospace" font-size="14.00">EX_PopExecutionFlow</text>
</g>
<!-- ExecuteUbergraph_TSK_FindPointAboveTarget__399&#45;&gt;ExecuteUbergraph_TSK_FindPointAboveTarget__505 -->
<g id="edge20" class="edge">
<title>ExecuteUbergraph_TSK_FindPointAboveTarget__399&#45;&gt;ExecuteUbergraph_TSK_FindPointAboveTarget__505</title>
<path fill="none" stroke="black" d="M1740,-512.56C1740,-502.44 1740,-492.86 1740,-484.58"/>
<polygon fill="black" stroke="black" points="1743.5,-484.61 1740,-474.61 1736.5,-484.61 1743.5,-484.61"/>
</g>
<!-- ExecuteUbergraph_TSK_FindPointAboveTarget__508 -->
<g id="node24" class="node">
<title>ExecuteUbergraph_TSK_FindPointAboveTarget__508</title>
<polygon fill="#eeeeee" stroke="black" points="1500,-1814.5 1500,-1850.5 1632,-1850.5 1632,-1814.5 1500,-1814.5"/>
<text text-anchor="start" x="1508" y="-1828.8" font-family="monospace" font-size="14.00">EX_EndOfScript</text>
</g>
<!-- ReceiveExecuteAI -->
<g id="node25" class="node">
<title>ReceiveExecuteAI</title>
<polygon fill="#ff8888" stroke="black" points="1250,-1944.5 1250,-2027.5 1720,-2027.5 1720,-1944.5 1250,-1944.5"/>
<text text-anchor="start" x="1258" y="-2012.3" font-family="monospace" font-size="14.00">Function ReceiveExecuteAI</text>
<text text-anchor="start" x="1258" y="-1997.3" font-family="monospace" font-size="14.00">  ObjectProperty OwnerController</text>
<text text-anchor="start" x="1258" y="-1982.3" font-family="monospace" font-size="14.00">    CPF_BlueprintVisible|CPF_BlueprintReadOnly|CPF_Parm</text>
<text text-anchor="start" x="1258" y="-1967.3" font-family="monospace" font-size="14.00">  ObjectProperty ControlledPawn</text>
<text text-anchor="start" x="1258" y="-1952.3" font-family="monospace" font-size="14.00">    CPF_BlueprintVisible|CPF_BlueprintReadOnly|CPF_Parm</text>
</g>
<!-- ReceiveExecuteAI__0 -->
<g id="node26" class="node">
<title>ReceiveExecuteAI__0</title>
<polygon fill="#eeeeee" stroke="black" points="1233.5,-1757.5 1233.5,-1795.5 1736.5,-1795.5 1736.5,-1757.5 1233.5,-1757.5"/>
<text text-anchor="start" x="1241.5" y="-1780.3" font-family="monospace" font-size="14.00">EX_LetValueOnPersistentFrame [K2Node_Event_OwnerController]</text>
<text text-anchor="start" x="1241.5" y="-1765.3" font-family="monospace" font-size="14.00">  EX_LocalVariable [OwnerController]</text>
</g>
<!-- ReceiveExecuteAI&#45;&gt;ReceiveExecuteAI__0 -->
<g id="edge21" class="edge">
<title>ReceiveExecuteAI&#45;&gt;ReceiveExecuteAI__0</title>
<path fill="none" stroke="black" d="M1485,-1944.99C1485,-1904.47 1485,-1842.76 1485,-1806.65"/>
<polygon fill="black" stroke="black" points="1488.5,-1806.96 1485,-1796.96 1481.5,-1806.96 1488.5,-1806.96"/>
</g>
<!-- ReceiveExecuteAI__18 -->
<g id="node27" class="node">
<title>ReceiveExecuteAI__18</title>
<polygon fill="#eeeeee" stroke="black" points="1237.5,-1645.5 1237.5,-1683.5 1732.5,-1683.5 1732.5,-1645.5 1237.5,-1645.5"/>
<text text-anchor="start" x="1245.5" y="-1668.3" font-family="monospace" font-size="14.00">EX_LetValueOnPersistentFrame [K2Node_Event_ControlledPawn]</text>
<text text-anchor="start" x="1245.5" y="-1653.3" font-family="monospace" font-size="14.00">  EX_LocalVariable [ControlledPawn]</text>
</g>
<!-- ReceiveExecuteAI__0&#45;&gt;ReceiveExecuteAI__18 -->
<g id="edge22" class="edge">
<title>ReceiveExecuteAI__0&#45;&gt;ReceiveExecuteAI__18</title>
<path fill="none" stroke="black" d="M1485,-1757.83C1485,-1740.85 1485,-1714.88 1485,-1694.81"/>
<polygon fill="black" stroke="black" points="1488.5,-1695.01 1485,-1685.01 1481.5,-1695.01 1488.5,-1695.01"/>
</g>
<!-- ReceiveExecuteAI__36 -->
<g id="node28" class="node">
<title>ReceiveExecuteAI__36</title>
<polygon fill="#eeeeee" stroke="black" points="1072.5,-1569.5 1072.5,-1607.5 1897.5,-1607.5 1897.5,-1569.5 1072.5,-1569.5"/>
<text text-anchor="start" x="1080.5" y="-1592.3" font-family="monospace" font-size="14.00">EX_LocalFinalFunction export TSK_FindPointAboveTarget_C&#45;&gt;ExecuteUbergraph_TSK_FindPointAboveTarget</text>
<text text-anchor="start" x="1080.5" y="-1577.3" font-family="monospace" font-size="14.00">  EX_IntConst 162</text>
</g>
<!-- ReceiveExecuteAI__18&#45;&gt;ReceiveExecuteAI__36 -->
<g id="edge23" class="edge">
<title>ReceiveExecuteAI__18&#45;&gt;ReceiveExecuteAI__36</title>
<path fill="none" stroke="black" d="M1485,-1645.59C1485,-1637.5 1485,-1627.73 1485,-1618.63"/>
<polygon fill="black" stroke="black" points="1488.5,-1618.76 1485,-1608.76 1481.5,-1618.76 1488.5,-1618.76"/>
</g>
<!-- ReceiveExecuteAI__36&#45;&gt;ExecuteUbergraph_TSK_FindPointAboveTarget__162 -->
<g id="edge24" class="edge">
<title>ReceiveExecuteAI__36:e&#45;&gt;ExecuteUbergraph_TSK_FindPointAboveTarget__162</title>
<path fill="none" stroke="red" d="M1899,-1588.5C1920.01,-1588.5 1923.08,-1565.83 1920.63,-1542.35"/>
<polygon fill="none" stroke="red" points="1924.13,-1542.15 1919.3,-1532.72 1917.2,-1543.1 1924.13,-1542.15"/>
</g>
<!-- ReceiveExecuteAI__51 -->
<g id="node29" class="node">
<title>ReceiveExecuteAI__51</title>
<polygon fill="#eeeeee" stroke="black" points="1424,-1471 1424,-1509 1540,-1509 1540,-1471 1424,-1471"/>
<text text-anchor="start" x="1432" y="-1493.8" font-family="monospace" font-size="14.00">EX_Return</text>
<text text-anchor="start" x="1432" y="-1478.8" font-family="monospace" font-size="14.00">  EX_Nothing</text>
</g>
<!-- ReceiveExecuteAI__36&#45;&gt;ReceiveExecuteAI__51 -->
<g id="edge25" class="edge">
<title>ReceiveExecuteAI__36&#45;&gt;ReceiveExecuteAI__51</title>
<path fill="none" stroke="black" d="M1484.45,-1569.8C1484.02,-1555.88 1483.4,-1536.19 1482.9,-1519.97"/>
<polygon fill="black" stroke="black" points="1486.41,-1520.31 1482.6,-1510.43 1479.42,-1520.53 1486.41,-1520.31"/>
</g>
<!-- ReceiveExecuteAI__53 -->
<g id="node30" class="node">
<title>ReceiveExecuteAI__53</title>
<polygon fill="#eeeeee" stroke="black" points="1500,-1702.5 1500,-1738.5 1632,-1738.5 1632,-1702.5 1500,-1702.5"/>
<text text-anchor="start" x="1508" y="-1716.8" font-family="monospace" font-size="14.00">EX_EndOfScript</text>
</g>
</g>
</svg>
