<?xml version="1.0" encoding="UTF-8" standalone="no"?>
<!DOCTYPE svg PUBLIC "-//W3C//DTD SVG 1.1//EN"
 "http://www.w3.org/Graphics/SVG/1.1/DTD/svg11.dtd">
<!-- Generated by graphviz version 7.0.1 (0)
 -->
<!-- Pages: 1 -->
<svg width="3053pt" height="1896pt"
 viewBox="0.00 0.00 3053.00 1896.00" xmlns="http://www.w3.org/2000/svg" xmlns:xlink="http://www.w3.org/1999/xlink">
<g id="graph0" class="graph" transform="scale(1 1) rotate(0) translate(4 1892)">
<polygon fill="white" stroke="none" points="-4,4 -4,-1892 3049,-1892 3049,4 -4,4"/>
<!-- TSK_ChangeDest_C -->
<g id="node1" class="node">
<title>TSK_ChangeDest_C</title>
<polygon fill="#88ff88" stroke="black" points="0,-1722 0,-1865 512,-1865 512,-1722 0,-1722"/>
<text text-anchor="start" x="8" y="-1849.8" font-family="monospace" font-size="14.00">ClassExport: TSK_ChangeDest_C</text>
<text text-anchor="start" x="8" y="-1834.8" font-family="monospace" font-size="14.00">  SuperStruct: import /Script/AIModule&#45;&gt;BTTask_BlueprintBase</text>
<text text-anchor="start" x="8" y="-1819.8" font-family="monospace" font-size="14.00">  Properties:</text>
<text text-anchor="start" x="8" y="-1804.8" font-family="monospace" font-size="14.00">    StructProperty UberGraphFrame</text>
<text text-anchor="start" x="8" y="-1789.8" font-family="monospace" font-size="14.00">      CPF_Transient|CPF_DuplicateTransient</text>
<text text-anchor="start" x="8" y="-1774.8" font-family="monospace" font-size="14.00">    StructProperty DestKey</text>
<text text-anchor="start" x="8" y="-1759.8" font-family="monospace" font-size="14.00">      CPF_Edit|CPF_BlueprintVisible</text>
<text text-anchor="start" x="8" y="-1744.8" font-family="monospace" font-size="14.00">    FloatProperty ApproximatePlayerDistance</text>
<text text-anchor="start" x="8" y="-1729.8" font-family="monospace" font-size="14.00">      CPF_Edit|CPF_BlueprintVisible</text>
</g>
<!-- ExecuteUbergraph_TSK_ChangeDest -->
<g id="node2" class="node">
<title>ExecuteUbergraph_TSK_ChangeDest</title>
<polygon fill="#ff8888" stroke="black" points="530.5,-1699.5 530.5,-1887.5 1231.5,-1887.5 1231.5,-1699.5 530.5,-1699.5"/>
<text text-anchor="start" x="538.5" y="-1872.3" font-family="monospace" font-size="14.00">Function ExecuteUbergraph_TSK_ChangeDest</text>
<text text-anchor="start" x="538.5" y="-1857.3" font-family="monospace" font-size="14.00">  IntProperty EntryPoint</text>
<text text-anchor="start" x="538.5" y="-1842.3" font-family="monospace" font-size="14.00">    CPF_BlueprintVisible|CPF_BlueprintReadOnly|CPF_Parm</text>
<text text-anchor="start" x="538.5" y="-1827.3" font-family="monospace" font-size="14.00">  ObjectProperty K2Node_Event_OwnerController</text>
<text text-anchor="start" x="538.5" y="-1812.3" font-family="monospace" font-size="14.00">  ObjectProperty K2Node_Event_ControlledPawn</text>
<text text-anchor="start" x="538.5" y="-1797.3" font-family="monospace" font-size="14.00">  ObjectProperty CallFunc_GetComponentByClass_ReturnValue</text>
<text text-anchor="start" x="538.5" y="-1782.3" font-family="monospace" font-size="14.00">    CPF_InstancedReference</text>
<text text-anchor="start" x="538.5" y="-1767.3" font-family="monospace" font-size="14.00">  ObjectProperty CallFunc_FindPlayer_Player</text>
<text text-anchor="start" x="538.5" y="-1752.3" font-family="monospace" font-size="14.00">  StructProperty CallFunc_FindPlayer_Location</text>
<text text-anchor="start" x="538.5" y="-1737.3" font-family="monospace" font-size="14.00">  BoolProperty CallFunc_IsValid_ReturnValue</text>
<text text-anchor="start" x="538.5" y="-1722.3" font-family="monospace" font-size="14.00">  BoolProperty CallFunc_GetRandomReachablePointAtApproximateDistance_Async_success</text>
<text text-anchor="start" x="538.5" y="-1707.3" font-family="monospace" font-size="14.00">  StructProperty CallFunc_GetRandomReachablePointAtApproximateDistance_Async_outPos</text>
</g>
<!-- ExecuteUbergraph_TSK_ChangeDest__0 -->
<g id="node3" class="node">
<title>ExecuteUbergraph_TSK_ChangeDest__0</title>
<polygon fill="#eeeeee" stroke="black" points="773.5,-1543.5 773.5,-1579.5 988.5,-1579.5 988.5,-1543.5 773.5,-1543.5"/>
<text text-anchor="start" x="781.5" y="-1557.8" font-family="monospace" font-size="14.00">EX_PushExecutionFlow 336</text>
</g>
<!-- ExecuteUbergraph_TSK_ChangeDest&#45;&gt;ExecuteUbergraph_TSK_ChangeDest__0 -->
<g id="edge1" class="edge">
<title>ExecuteUbergraph_TSK_ChangeDest&#45;&gt;ExecuteUbergraph_TSK_ChangeDest__0</title>
<path fill="none" stroke="black" d="M881,-1699.61C881,-1660.48 881,-1617.79 881,-1590.61"/>
<polygon fill="black" stroke="black" points="884.5,-1590.8 881,-1580.8 877.5,-1590.8 884.5,-1590.8"/>
</g>
<!-- ExecuteUbergraph_TSK_ChangeDest__5 -->
<g id="node4" class="node">
<title>ExecuteUbergraph_TSK_ChangeDest__5</title>
<polygon fill="#eeeeee" stroke="black" points="693,-1378 693,-1416 965,-1416 965,-1378 693,-1378"/>
<text text-anchor="start" x="701" y="-1400.8" font-family="monospace" font-size="14.00">EX_ComputedJump</text>
<text text-anchor="start" x="701" y="-1385.8" font-family="monospace" font-size="14.00">  EX_LocalVariable [EntryPoint]</text>
</g>
<!-- ExecuteUbergraph_TSK_ChangeDest__0&#45;&gt;ExecuteUbergraph_TSK_ChangeDest__5 -->
<g id="edge3" class="edge">
<title>ExecuteUbergraph_TSK_ChangeDest__0&#45;&gt;ExecuteUbergraph_TSK_ChangeDest__5</title>
<path fill="none" stroke="black" d="M875.63,-1543.72C866.77,-1516.04 848.99,-1460.48 838.13,-1426.53"/>
<polygon fill="black" stroke="black" points="841.58,-1425.82 835.2,-1417.36 834.91,-1427.95 841.58,-1425.82"/>
</g>
<!-- ExecuteUbergraph_TSK_ChangeDest__336 -->
<g id="node19" class="node">
<title>ExecuteUbergraph_TSK_ChangeDest__336</title>
<polygon fill="#eeeeee" stroke="black" points="983,-1378 983,-1416 1099,-1416 1099,-1378 983,-1378"/>
<text text-anchor="start" x="991" y="-1400.8" font-family="monospace" font-size="14.00">EX_Return</text>
<text text-anchor="start" x="991" y="-1385.8" font-family="monospace" font-size="14.00">  EX_Nothing</text>
</g>
<!-- ExecuteUbergraph_TSK_ChangeDest__0&#45;&gt;ExecuteUbergraph_TSK_ChangeDest__336 -->
<g id="edge2" class="edge">
<title>ExecuteUbergraph_TSK_ChangeDest__0:e&#45;&gt;ExecuteUbergraph_TSK_ChangeDest__336</title>
<path fill="none" stroke="red" d="M990,-1561.5C1045.66,-1561.5 1047.19,-1474.07 1043.99,-1427.08"/>
<polygon fill="none" stroke="red" points="1047.5,-1427 1043.2,-1417.32 1040.52,-1427.57 1047.5,-1427"/>
<text text-anchor="middle" x="1086.5" y="-1456.8" font-family="monospace" font-size="14.00">PUSH STACK</text>
</g>
<!-- ExecuteUbergraph_TSK_ChangeDest__15 -->
<g id="node5" class="node">
<title>ExecuteUbergraph_TSK_ChangeDest__15</title>
<polygon fill="#eeeeee" stroke="black" points="1493.5,-270.5 1493.5,-308.5 2236.5,-308.5 2236.5,-270.5 1493.5,-270.5"/>
<text text-anchor="start" x="1501.5" y="-293.3" font-family="monospace" font-size="14.00">EX_JumpIfNot 70</text>
<text text-anchor="start" x="1501.5" y="-278.3" font-family="monospace" font-size="14.00">  EX_LocalVariable [CallFunc_GetRandomReachablePointAtApproximateDistance_Async_success]</text>
</g>
<!-- ExecuteUbergraph_TSK_ChangeDest__29 -->
<g id="node6" class="node">
<title>ExecuteUbergraph_TSK_ChangeDest__29</title>
<polygon fill="#eeeeee" stroke="black" points="1343,-150.5 1343,-218.5 2077,-218.5 2077,-150.5 1343,-150.5"/>
<text text-anchor="start" x="1351" y="-203.3" font-family="monospace" font-size="14.00">EX_CallMath import /Script/AIModule&#45;&gt;BTFunctionLibrary&#45;&gt;SetBlackboardValueAsVector</text>
<text text-anchor="start" x="1351" y="-188.3" font-family="monospace" font-size="14.00">  EX_Self</text>
<text text-anchor="start" x="1351" y="-173.3" font-family="monospace" font-size="14.00">  EX_InstanceVariable [DestKey]</text>
<text text-anchor="start" x="1351" y="-158.3" font-family="monospace" font-size="14.00">  EX_LocalVariable [CallFunc_GetRandomReachablePointAtApproximateDistance_Async_outPos]</text>
</g>
<!-- ExecuteUbergraph_TSK_ChangeDest__15&#45;&gt;ExecuteUbergraph_TSK_ChangeDest__29 -->
<g id="edge5" class="edge">
<title>ExecuteUbergraph_TSK_ChangeDest__15&#45;&gt;ExecuteUbergraph_TSK_ChangeDest__29</title>
<path fill="none" stroke="black" d="M1838,-270.56C1818.93,-257.89 1792.65,-240.42 1768.85,-224.61"/>
<polygon fill="black" stroke="black" points="1771.06,-221.87 1760.79,-219.25 1767.18,-227.7 1771.06,-221.87"/>
<text text-anchor="middle" x="1814.5" y="-240.8" font-family="monospace" font-size="14.00">IF</text>
</g>
<!-- ExecuteUbergraph_TSK_ChangeDest__70 -->
<g id="node9" class="node">
<title>ExecuteUbergraph_TSK_ChangeDest__70</title>
<polygon fill="#eeeeee" stroke="black" points="2095,-165.5 2095,-203.5 2747,-203.5 2747,-165.5 2095,-165.5"/>
<text text-anchor="start" x="2103" y="-188.3" font-family="monospace" font-size="14.00">EX_FinalFunction import /Script/AIModule&#45;&gt;BTTask_BlueprintBase&#45;&gt;FinishExecute</text>
<text text-anchor="start" x="2103" y="-173.3" font-family="monospace" font-size="14.00">  EX_False</text>
</g>
<!-- ExecuteUbergraph_TSK_ChangeDest__15&#45;&gt;ExecuteUbergraph_TSK_ChangeDest__70 -->
<g id="edge4" class="edge">
<title>ExecuteUbergraph_TSK_ChangeDest__15:e&#45;&gt;ExecuteUbergraph_TSK_ChangeDest__70</title>
<path fill="none" stroke="red" d="M2238,-289.5C2301.4,-289.5 2362.92,-241.73 2395.98,-210.94"/>
<polygon fill="none" stroke="red" points="2398.24,-213.63 2403.05,-204.19 2393.41,-208.57 2398.24,-213.63"/>
<text text-anchor="middle" x="2390" y="-240.8" font-family="monospace" font-size="14.00">IF NOT</text>
</g>
<!-- ExecuteUbergraph_TSK_ChangeDest__58 -->
<g id="node7" class="node">
<title>ExecuteUbergraph_TSK_ChangeDest__58</title>
<polygon fill="#eeeeee" stroke="black" points="1384,-74.5 1384,-112.5 2036,-112.5 2036,-74.5 1384,-74.5"/>
<text text-anchor="start" x="1392" y="-97.3" font-family="monospace" font-size="14.00">EX_FinalFunction import /Script/AIModule&#45;&gt;BTTask_BlueprintBase&#45;&gt;FinishExecute</text>
<text text-anchor="start" x="1392" y="-82.3" font-family="monospace" font-size="14.00">  EX_True</text>
</g>
<!-- ExecuteUbergraph_TSK_ChangeDest__29&#45;&gt;ExecuteUbergraph_TSK_ChangeDest__58 -->
<g id="edge6" class="edge">
<title>ExecuteUbergraph_TSK_ChangeDest__29&#45;&gt;ExecuteUbergraph_TSK_ChangeDest__58</title>
<path fill="none" stroke="black" d="M1710,-150.61C1710,-141.79 1710,-132.32 1710,-123.72"/>
<polygon fill="black" stroke="black" points="1713.5,-123.8 1710,-113.8 1706.5,-123.8 1713.5,-123.8"/>
</g>
<!-- ExecuteUbergraph_TSK_ChangeDest__69 -->
<g id="node8" class="node">
<title>ExecuteUbergraph_TSK_ChangeDest__69</title>
<polygon fill="#eeeeee" stroke="black" points="1623.5,-0.5 1623.5,-36.5 1796.5,-36.5 1796.5,-0.5 1623.5,-0.5"/>
<text text-anchor="start" x="1631.5" y="-14.8" font-family="monospace" font-size="14.00">EX_PopExecutionFlow</text>
</g>
<!-- ExecuteUbergraph_TSK_ChangeDest__58&#45;&gt;ExecuteUbergraph_TSK_ChangeDest__69 -->
<g id="edge7" class="edge">
<title>ExecuteUbergraph_TSK_ChangeDest__58&#45;&gt;ExecuteUbergraph_TSK_ChangeDest__69</title>
<path fill="none" stroke="black" d="M1710,-74.83C1710,-66.61 1710,-56.65 1710,-47.45"/>
<polygon fill="black" stroke="black" points="1713.5,-47.52 1710,-37.52 1706.5,-47.52 1713.5,-47.52"/>
</g>
<!-- ExecuteUbergraph_TSK_ChangeDest__81 -->
<g id="node10" class="node">
<title>ExecuteUbergraph_TSK_ChangeDest__81</title>
<polygon fill="#eeeeee" stroke="black" points="2334.5,-75.5 2334.5,-111.5 2507.5,-111.5 2507.5,-75.5 2334.5,-75.5"/>
<text text-anchor="start" x="2342.5" y="-89.8" font-family="monospace" font-size="14.00">EX_PopExecutionFlow</text>
</g>
<!-- ExecuteUbergraph_TSK_ChangeDest__70&#45;&gt;ExecuteUbergraph_TSK_ChangeDest__81 -->
<g id="edge8" class="edge">
<title>ExecuteUbergraph_TSK_ChangeDest__70&#45;&gt;ExecuteUbergraph_TSK_ChangeDest__81</title>
<path fill="none" stroke="black" d="M2421,-165.92C2421,-153.57 2421,-136.79 2421,-122.6"/>
<polygon fill="black" stroke="black" points="2424.5,-122.96 2421,-112.96 2417.5,-122.96 2424.5,-122.96"/>
</g>
<!-- ExecuteUbergraph_TSK_ChangeDest__82 -->
<g id="node11" class="node">
<title>ExecuteUbergraph_TSK_ChangeDest__82</title>
<polygon fill="#eeeeee" stroke="black" points="1604.5,-1122.5 1604.5,-1190.5 2025.5,-1190.5 2025.5,-1122.5 1604.5,-1122.5"/>
<text text-anchor="start" x="1612.5" y="-1175.3" font-family="monospace" font-size="14.00">EX_LocalVirtualFunction FindPlayer</text>
<text text-anchor="start" x="1612.5" y="-1160.3" font-family="monospace" font-size="14.00">  EX_LocalVariable [K2Node_Event_ControlledPawn]</text>
<text text-anchor="start" x="1612.5" y="-1145.3" font-family="monospace" font-size="14.00">  EX_LocalVariable [CallFunc_FindPlayer_Player]</text>
<text text-anchor="start" x="1612.5" y="-1130.3" font-family="monospace" font-size="14.00">  EX_LocalVariable [CallFunc_FindPlayer_Location]</text>
</g>
<!-- ExecuteUbergraph_TSK_ChangeDest__123 -->
<g id="node12" class="node">
<title>ExecuteUbergraph_TSK_ChangeDest__123</title>
<polygon fill="#eeeeee" stroke="black" points="1538.5,-972.5 1538.5,-1040.5 2091.5,-1040.5 2091.5,-972.5 1538.5,-972.5"/>
<text text-anchor="start" x="1546.5" y="-1025.3" font-family="monospace" font-size="14.00">EX_LetBool</text>
<text text-anchor="start" x="1546.5" y="-1010.3" font-family="monospace" font-size="14.00">  EX_LocalVariable [CallFunc_IsValid_ReturnValue]</text>
<text text-anchor="start" x="1546.5" y="-995.3" font-family="monospace" font-size="14.00">  EX_CallMath import /Script/Engine&#45;&gt;KismetSystemLibrary&#45;&gt;IsValid</text>
<text text-anchor="start" x="1546.5" y="-980.3" font-family="monospace" font-size="14.00">    EX_LocalVariable [CallFunc_FindPlayer_Player]</text>
</g>
<!-- ExecuteUbergraph_TSK_ChangeDest__82&#45;&gt;ExecuteUbergraph_TSK_ChangeDest__123 -->
<g id="edge9" class="edge">
<title>ExecuteUbergraph_TSK_ChangeDest__82&#45;&gt;ExecuteUbergraph_TSK_ChangeDest__123</title>
<path fill="none" stroke="black" d="M1815,-1122.65C1815,-1101.77 1815,-1074.47 1815,-1051.69"/>
<polygon fill="black" stroke="black" points="1818.5,-1051.77 1815,-1041.77 1811.5,-1051.77 1818.5,-1051.77"/>
</g>
<!-- ExecuteUbergraph_TSK_ChangeDest__152 -->
<g id="node13" class="node">
<title>ExecuteUbergraph_TSK_ChangeDest__152</title>
<polygon fill="#eeeeee" stroke="black" points="1604.5,-836.5 1604.5,-874.5 2025.5,-874.5 2025.5,-836.5 1604.5,-836.5"/>
<text text-anchor="start" x="1612.5" y="-859.3" font-family="monospace" font-size="14.00">EX_JumpIfNot 324</text>
<text text-anchor="start" x="1612.5" y="-844.3" font-family="monospace" font-size="14.00">  EX_LocalVariable [CallFunc_IsValid_ReturnValue]</text>
</g>
<!-- ExecuteUbergraph_TSK_ChangeDest__123&#45;&gt;ExecuteUbergraph_TSK_ChangeDest__152 -->
<g id="edge10" class="edge">
<title>ExecuteUbergraph_TSK_ChangeDest__123&#45;&gt;ExecuteUbergraph_TSK_ChangeDest__152</title>
<path fill="none" stroke="black" d="M1815,-972.8C1815,-946.74 1815,-910.59 1815,-885.54"/>
<polygon fill="black" stroke="black" points="1818.5,-885.74 1815,-875.74 1811.5,-885.74 1818.5,-885.74"/>
</g>
<!-- ExecuteUbergraph_TSK_ChangeDest__166 -->
<g id="node14" class="node">
<title>ExecuteUbergraph_TSK_ChangeDest__166</title>
<polygon fill="#eeeeee" stroke="black" points="1093,-587.5 1093,-700.5 1687,-700.5 1687,-587.5 1093,-587.5"/>
<text text-anchor="start" x="1101" y="-685.3" font-family="monospace" font-size="14.00">EX_LetObj</text>
<text text-anchor="start" x="1101" y="-670.3" font-family="monospace" font-size="14.00">  EX_LocalVariable [CallFunc_GetComponentByClass_ReturnValue]</text>
<text text-anchor="start" x="1101" y="-655.3" font-family="monospace" font-size="14.00">  EX_Context</text>
<text text-anchor="start" x="1101" y="-640.3" font-family="monospace" font-size="14.00">    EX_LocalVariable [K2Node_Event_ControlledPawn]</text>
<text text-anchor="start" x="1101" y="-625.3" font-family="monospace" font-size="14.00">    EX_FinalFunction import /Script/Engine&#45;&gt;Actor&#45;&gt;GetComponentByClass</text>
<text text-anchor="start" x="1101" y="-610.3" font-family="monospace" font-size="14.00">      EX_ObjectConst import /Script/FSD&#45;&gt;DeepPathfinderMovement</text>
<text text-anchor="start" x="1101" y="-595.3" font-family="monospace" font-size="14.00">    RValue = [CallFunc_GetComponentByClass_ReturnValue]</text>
</g>
<!-- ExecuteUbergraph_TSK_ChangeDest__152&#45;&gt;ExecuteUbergraph_TSK_ChangeDest__166 -->
<g id="edge12" class="edge">
<title>ExecuteUbergraph_TSK_ChangeDest__152&#45;&gt;ExecuteUbergraph_TSK_ChangeDest__166</title>
<path fill="none" stroke="black" d="M1778.76,-836.64C1720.43,-807.88 1603.07,-750.03 1512.49,-705.38"/>
<polygon fill="black" stroke="black" points="1514.29,-702.37 1503.77,-701.08 1511.19,-708.64 1514.29,-702.37"/>
<text text-anchor="middle" x="1686.5" y="-749.8" font-family="monospace" font-size="14.00">IF</text>
</g>
<!-- ExecuteUbergraph_TSK_ChangeDest__324 -->
<g id="node17" class="node">
<title>ExecuteUbergraph_TSK_ChangeDest__324</title>
<polygon fill="#eeeeee" stroke="black" points="1705,-625 1705,-663 2357,-663 2357,-625 1705,-625"/>
<text text-anchor="start" x="1713" y="-647.8" font-family="monospace" font-size="14.00">EX_FinalFunction import /Script/AIModule&#45;&gt;BTTask_BlueprintBase&#45;&gt;FinishExecute</text>
<text text-anchor="start" x="1713" y="-632.8" font-family="monospace" font-size="14.00">  EX_False</text>
</g>
<!-- ExecuteUbergraph_TSK_ChangeDest__152&#45;&gt;ExecuteUbergraph_TSK_ChangeDest__324 -->
<g id="edge11" class="edge">
<title>ExecuteUbergraph_TSK_ChangeDest__152:e&#45;&gt;ExecuteUbergraph_TSK_ChangeDest__324</title>
<path fill="none" stroke="red" d="M2027,-855.5C2098.96,-855.5 2062.61,-731 2041.97,-673.5"/>
<polygon fill="none" stroke="red" points="2045.35,-672.55 2038.62,-664.37 2038.78,-674.96 2045.35,-672.55"/>
<text text-anchor="middle" x="2095" y="-749.8" font-family="monospace" font-size="14.00">IF NOT</text>
</g>
<!-- ExecuteUbergraph_TSK_ChangeDest__217 -->
<g id="node15" class="node">
<title>ExecuteUbergraph_TSK_ChangeDest__217</title>
<polygon fill="#eeeeee" stroke="black" points="915.5,-346.5 915.5,-549.5 1864.5,-549.5 1864.5,-346.5 915.5,-346.5"/>
<text text-anchor="start" x="923.5" y="-534.3" font-family="monospace" font-size="14.00">EX_Context</text>
<text text-anchor="start" x="923.5" y="-519.3" font-family="monospace" font-size="14.00">  EX_LocalVariable [CallFunc_GetComponentByClass_ReturnValue]</text>
<text text-anchor="start" x="923.5" y="-504.3" font-family="monospace" font-size="14.00">  EX_FinalFunction import /Script/FSD&#45;&gt;DeepPathfinderMovement&#45;&gt;GetRandomReachablePointAtApproximateDistance_Async</text>
<text text-anchor="start" x="923.5" y="-489.3" font-family="monospace" font-size="14.00">    EX_LocalVariable [CallFunc_FindPlayer_Location]</text>
<text text-anchor="start" x="923.5" y="-474.3" font-family="monospace" font-size="14.00">    EX_InstanceVariable [ApproximatePlayerDistance]</text>
<text text-anchor="start" x="923.5" y="-459.3" font-family="monospace" font-size="14.00">    EX_LocalVariable [CallFunc_GetRandomReachablePointAtApproximateDistance_Async_success]</text>
<text text-anchor="start" x="923.5" y="-444.3" font-family="monospace" font-size="14.00">    EX_LocalVariable [CallFunc_GetRandomReachablePointAtApproximateDistance_Async_outPos]</text>
<text text-anchor="start" x="923.5" y="-429.3" font-family="monospace" font-size="14.00">    EX_StructConst import /Script/Engine&#45;&gt;LatentActionInfo</text>
<text text-anchor="start" x="923.5" y="-414.3" font-family="monospace" font-size="14.00">      EX_SkipOffsetConst 15</text>
<text text-anchor="start" x="923.5" y="-399.3" font-family="monospace" font-size="14.00">      EX_IntConst 644459170</text>
<text text-anchor="start" x="923.5" y="-384.3" font-family="monospace" font-size="14.00">      EX_NameConst ExecuteUbergraph_TSK_ChangeDest</text>
<text text-anchor="start" x="923.5" y="-369.3" font-family="monospace" font-size="14.00">      EX_Self</text>
<text text-anchor="start" x="923.5" y="-354.3" font-family="monospace" font-size="14.00">  RValue = []</text>
</g>
<!-- ExecuteUbergraph_TSK_ChangeDest__166&#45;&gt;ExecuteUbergraph_TSK_ChangeDest__217 -->
<g id="edge13" class="edge">
<title>ExecuteUbergraph_TSK_ChangeDest__166&#45;&gt;ExecuteUbergraph_TSK_ChangeDest__217</title>
<path fill="none" stroke="black" d="M1390,-587.67C1390,-579.07 1390,-569.93 1390,-560.61"/>
<polygon fill="black" stroke="black" points="1393.5,-560.68 1390,-550.68 1386.5,-560.68 1393.5,-560.68"/>
</g>
<!-- ExecuteUbergraph_TSK_ChangeDest__217&#45;&gt;ExecuteUbergraph_TSK_ChangeDest__15 -->
<g id="edge14" class="edge">
<title>ExecuteUbergraph_TSK_ChangeDest__217:e&#45;&gt;ExecuteUbergraph_TSK_ChangeDest__15</title>
<path fill="none" stroke="red" d="M1866,-448C1917.05,-448 1893.11,-364.25 1876.41,-318.89"/>
<polygon fill="none" stroke="red" points="1879.73,-317.78 1872.91,-309.68 1873.19,-320.27 1879.73,-317.78"/>
</g>
<!-- ExecuteUbergraph_TSK_ChangeDest__323 -->
<g id="node16" class="node">
<title>ExecuteUbergraph_TSK_ChangeDest__323</title>
<polygon fill="#eeeeee" stroke="black" points="1302.5,-271.5 1302.5,-307.5 1475.5,-307.5 1475.5,-271.5 1302.5,-271.5"/>
<text text-anchor="start" x="1310.5" y="-285.8" font-family="monospace" font-size="14.00">EX_PopExecutionFlow</text>
</g>
<!-- ExecuteUbergraph_TSK_ChangeDest__217&#45;&gt;ExecuteUbergraph_TSK_ChangeDest__323 -->
<g id="edge15" class="edge">
<title>ExecuteUbergraph_TSK_ChangeDest__217&#45;&gt;ExecuteUbergraph_TSK_ChangeDest__323</title>
<path fill="none" stroke="black" d="M1389.36,-346.56C1389.29,-336.44 1389.23,-326.86 1389.18,-318.58"/>
<polygon fill="black" stroke="black" points="1392.68,-318.59 1389.12,-308.61 1385.68,-318.64 1392.68,-318.59"/>
</g>
<!-- ExecuteUbergraph_TSK_ChangeDest__335 -->
<g id="node18" class="node">
<title>ExecuteUbergraph_TSK_ChangeDest__335</title>
<polygon fill="#eeeeee" stroke="black" points="1944.5,-430 1944.5,-466 2117.5,-466 2117.5,-430 1944.5,-430"/>
<text text-anchor="start" x="1952.5" y="-444.3" font-family="monospace" font-size="14.00">EX_PopExecutionFlow</text>
</g>
<!-- ExecuteUbergraph_TSK_ChangeDest__324&#45;&gt;ExecuteUbergraph_TSK_ChangeDest__335 -->
<g id="edge16" class="edge">
<title>ExecuteUbergraph_TSK_ChangeDest__324&#45;&gt;ExecuteUbergraph_TSK_ChangeDest__335</title>
<path fill="none" stroke="black" d="M2031,-625.1C2031,-591.26 2031,-517.71 2031,-477.18"/>
<polygon fill="black" stroke="black" points="2034.5,-477.26 2031,-467.26 2027.5,-477.26 2034.5,-477.26"/>
</g>
<!-- ExecuteUbergraph_TSK_ChangeDest__338 -->
<g id="node20" class="node">
<title>ExecuteUbergraph_TSK_ChangeDest__338</title>
<polygon fill="#eeeeee" stroke="black" points="1983,-1644.5 1983,-1680.5 2115,-1680.5 2115,-1644.5 1983,-1644.5"/>
<text text-anchor="start" x="1991" y="-1658.8" font-family="monospace" font-size="14.00">EX_EndOfScript</text>
</g>
<!-- ReceiveExecuteAI -->
<g id="node21" class="node">
<title>ReceiveExecuteAI</title>
<polygon fill="#ff8888" stroke="black" points="1250,-1752 1250,-1835 1720,-1835 1720,-1752 1250,-1752"/>
<text text-anchor="start" x="1258" y="-1819.8" font-family="monospace" font-size="14.00">Function ReceiveExecuteAI</text>
<text text-anchor="start" x="1258" y="-1804.8" font-family="monospace" font-size="14.00">  ObjectProperty OwnerController</text>
<text text-anchor="start" x="1258" y="-1789.8" font-family="monospace" font-size="14.00">    CPF_BlueprintVisible|CPF_BlueprintReadOnly|CPF_Parm</text>
<text text-anchor="start" x="1258" y="-1774.8" font-family="monospace" font-size="14.00">  ObjectProperty ControlledPawn</text>
<text text-anchor="start" x="1258" y="-1759.8" font-family="monospace" font-size="14.00">    CPF_BlueprintVisible|CPF_BlueprintReadOnly|CPF_Parm</text>
</g>
<!-- ReceiveExecuteAI__0 -->
<g id="node22" class="node">
<title>ReceiveExecuteAI__0</title>
<polygon fill="#eeeeee" stroke="black" points="1233.5,-1542.5 1233.5,-1580.5 1736.5,-1580.5 1736.5,-1542.5 1233.5,-1542.5"/>
<text text-anchor="start" x="1241.5" y="-1565.3" font-family="monospace" font-size="14.00">EX_LetValueOnPersistentFrame [K2Node_Event_OwnerController]</text>
<text text-anchor="start" x="1241.5" y="-1550.3" font-family="monospace" font-size="14.00">  EX_LocalVariable [OwnerController]</text>
</g>
<!-- ReceiveExecuteAI&#45;&gt;ReceiveExecuteAI__0 -->
<g id="edge17" class="edge">
<title>ReceiveExecuteAI&#45;&gt;ReceiveExecuteAI__0</title>
<path fill="none" stroke="black" d="M1485,-1752.17C1485,-1706.29 1485,-1632.46 1485,-1591.77"/>
<polygon fill="black" stroke="black" points="1488.5,-1591.78 1485,-1581.78 1481.5,-1591.78 1488.5,-1591.78"/>
</g>
<!-- ReceiveExecuteAI__18 -->
<g id="node23" class="node">
<title>ReceiveExecuteAI__18</title>
<polygon fill="#eeeeee" stroke="black" points="1237.5,-1378 1237.5,-1416 1732.5,-1416 1732.5,-1378 1237.5,-1378"/>
<text text-anchor="start" x="1245.5" y="-1400.8" font-family="monospace" font-size="14.00">EX_LetValueOnPersistentFrame [K2Node_Event_ControlledPawn]</text>
<text text-anchor="start" x="1245.5" y="-1385.8" font-family="monospace" font-size="14.00">  EX_LocalVariable [ControlledPawn]</text>
</g>
<!-- ReceiveExecuteAI__0&#45;&gt;ReceiveExecuteAI__18 -->
<g id="edge18" class="edge">
<title>ReceiveExecuteAI__0&#45;&gt;ReceiveExecuteAI__18</title>
<path fill="none" stroke="black" d="M1485,-1542.8C1485,-1514.96 1485,-1460.66 1485,-1427.04"/>
<polygon fill="black" stroke="black" points="1488.5,-1427.19 1485,-1417.19 1481.5,-1427.19 1488.5,-1427.19"/>
</g>
<!-- ReceiveExecuteAI__36 -->
<g id="node24" class="node">
<title>ReceiveExecuteAI__36</title>
<polygon fill="#eeeeee" stroke="black" points="1155,-1243.5 1155,-1281.5 1815,-1281.5 1815,-1243.5 1155,-1243.5"/>
<text text-anchor="start" x="1163" y="-1266.3" font-family="monospace" font-size="14.00">EX_LocalFinalFunction export TSK_ChangeDest_C&#45;&gt;ExecuteUbergraph_TSK_ChangeDest</text>
<text text-anchor="start" x="1163" y="-1251.3" font-family="monospace" font-size="14.00">  EX_IntConst 82</text>
</g>
<!-- ReceiveExecuteAI__18&#45;&gt;ReceiveExecuteAI__36 -->
<g id="edge19" class="edge">
<title>ReceiveExecuteAI__18&#45;&gt;ReceiveExecuteAI__36</title>
<path fill="none" stroke="black" d="M1485,-1378.13C1485,-1356.18 1485,-1318.64 1485,-1292.53"/>
<polygon fill="black" stroke="black" points="1488.5,-1292.6 1485,-1282.6 1481.5,-1292.6 1488.5,-1292.6"/>
</g>
<!-- ReceiveExecuteAI__36&#45;&gt;ExecuteUbergraph_TSK_ChangeDest__82 -->
<g id="edge20" class="edge">
<title>ReceiveExecuteAI__36:e&#45;&gt;ExecuteUbergraph_TSK_ChangeDest__82</title>
<path fill="none" stroke="red" d="M1816,-1262.5C1841.94,-1262.5 1838.73,-1230.05 1830.77,-1201.23"/>
<polygon fill="none" stroke="red" points="1834.19,-1200.46 1827.96,-1191.88 1827.48,-1202.47 1834.19,-1200.46"/>
</g>
<!-- ReceiveExecuteAI__51 -->
<g id="node25" class="node">
<title>ReceiveExecuteAI__51</title>
<polygon fill="#eeeeee" stroke="black" points="1427,-1137.5 1427,-1175.5 1543,-1175.5 1543,-1137.5 1427,-1137.5"/>
<text text-anchor="start" x="1435" y="-1160.3" font-family="monospace" font-size="14.00">EX_Return</text>
<text text-anchor="start" x="1435" y="-1145.3" font-family="monospace" font-size="14.00">  EX_Nothing</text>
</g>
<!-- ReceiveExecuteAI__36&#45;&gt;ReceiveExecuteAI__51 -->
<g id="edge21" class="edge">
<title>ReceiveExecuteAI__36&#45;&gt;ReceiveExecuteAI__51</title>
<path fill="none" stroke="black" d="M1485,-1243.86C1485,-1228.17 1485,-1204.93 1485,-1186.51"/>
<polygon fill="black" stroke="black" points="1488.5,-1186.74 1485,-1176.74 1481.5,-1186.74 1488.5,-1186.74"/>
</g>
<!-- ReceiveExecuteAI__53 -->
<g id="node26" class="node">
<title>ReceiveExecuteAI__53</title>
<polygon fill="#eeeeee" stroke="black" points="1983,-1442.5 1983,-1478.5 2115,-1478.5 2115,-1442.5 1983,-1442.5"/>
<text text-anchor="start" x="1991" y="-1456.8" font-family="monospace" font-size="14.00">EX_EndOfScript</text>
</g>
<!-- FindPlayer -->
<g id="node27" class="node">
<title>FindPlayer</title>
<polygon fill="#ff8888" stroke="black" points="2329.5,-1699.5 2329.5,-1887.5 2832.5,-1887.5 2832.5,-1699.5 2329.5,-1699.5"/>
<text text-anchor="start" x="2337.5" y="-1872.3" font-family="monospace" font-size="14.00">Function FindPlayer</text>
<text text-anchor="start" x="2337.5" y="-1857.3" font-family="monospace" font-size="14.00">  ObjectProperty From</text>
<text text-anchor="start" x="2337.5" y="-1842.3" font-family="monospace" font-size="14.00">    CPF_BlueprintVisible|CPF_BlueprintReadOnly|CPF_Parm</text>
<text text-anchor="start" x="2337.5" y="-1827.3" font-family="monospace" font-size="14.00">  ObjectProperty Player</text>
<text text-anchor="start" x="2337.5" y="-1812.3" font-family="monospace" font-size="14.00">    CPF_Parm|CPF_OutParm</text>
<text text-anchor="start" x="2337.5" y="-1797.3" font-family="monospace" font-size="14.00">  StructProperty Location</text>
<text text-anchor="start" x="2337.5" y="-1782.3" font-family="monospace" font-size="14.00">    CPF_Parm|CPF_OutParm</text>
<text text-anchor="start" x="2337.5" y="-1767.3" font-family="monospace" font-size="14.00">  ObjectProperty FoundPlayer</text>
<text text-anchor="start" x="2337.5" y="-1752.3" font-family="monospace" font-size="14.00">    CPF_Edit|CPF_BlueprintVisible|CPF_DisableEditOnTemplate</text>
<text text-anchor="start" x="2337.5" y="-1737.3" font-family="monospace" font-size="14.00">  ObjectProperty CallFunc_GetNearestPlayer_ReturnValue</text>
<text text-anchor="start" x="2337.5" y="-1722.3" font-family="monospace" font-size="14.00">  BoolProperty CallFunc_IsValid_ReturnValue</text>
<text text-anchor="start" x="2337.5" y="-1707.3" font-family="monospace" font-size="14.00">  StructProperty CallFunc_K2_GetActorLocation_ReturnValue</text>
</g>
<!-- FindPlayer__0 -->
<g id="node28" class="node">
<title>FindPlayer__0</title>
<polygon fill="#eeeeee" stroke="black" points="2234.5,-1497.5 2234.5,-1625.5 2927.5,-1625.5 2927.5,-1497.5 2234.5,-1497.5"/>
<text text-anchor="start" x="2242.5" y="-1610.3" font-family="monospace" font-size="14.00">EX_LetObj</text>
<text text-anchor="start" x="2242.5" y="-1595.3" font-family="monospace" font-size="14.00">  EX_LocalVariable [CallFunc_GetNearestPlayer_ReturnValue]</text>
<text text-anchor="start" x="2242.5" y="-1580.3" font-family="monospace" font-size="14.00">  EX_CallMath import /Script/FSD&#45;&gt;PlayerCharacterFunctionLibrary&#45;&gt;GetNearestPlayer</text>
<text text-anchor="start" x="2242.5" y="-1565.3" font-family="monospace" font-size="14.00">    EX_LocalVariable [From]</text>
<text text-anchor="start" x="2242.5" y="-1550.3" font-family="monospace" font-size="14.00">    EX_FloatConst 100000</text>
<text text-anchor="start" x="2242.5" y="-1535.3" font-family="monospace" font-size="14.00">    EX_True</text>
<text text-anchor="start" x="2242.5" y="-1520.3" font-family="monospace" font-size="14.00">    EX_False</text>
<text text-anchor="start" x="2242.5" y="-1505.3" font-family="monospace" font-size="14.00">    EX_False</text>
</g>
<!-- FindPlayer&#45;&gt;FindPlayer__0 -->
<g id="edge22" class="edge">
<title>FindPlayer&#45;&gt;FindPlayer__0</title>
<path fill="none" stroke="black" d="M2581,-1699.61C2581,-1678.67 2581,-1656.71 2581,-1636.66"/>
<polygon fill="black" stroke="black" points="2584.5,-1636.93 2581,-1626.93 2577.5,-1636.93 2584.5,-1636.93"/>
</g>
<!-- FindPlayer__37 -->
<g id="node29" class="node">
<title>FindPlayer__37</title>
<polygon fill="#eeeeee" stroke="black" points="2333.5,-1370.5 2333.5,-1423.5 2828.5,-1423.5 2828.5,-1370.5 2333.5,-1370.5"/>
<text text-anchor="start" x="2341.5" y="-1408.3" font-family="monospace" font-size="14.00">EX_LetObj</text>
<text text-anchor="start" x="2341.5" y="-1393.3" font-family="monospace" font-size="14.00">  EX_LocalVariable [FoundPlayer]</text>
<text text-anchor="start" x="2341.5" y="-1378.3" font-family="monospace" font-size="14.00">  EX_LocalVariable [CallFunc_GetNearestPlayer_ReturnValue]</text>
</g>
<!-- FindPlayer__0&#45;&gt;FindPlayer__37 -->
<g id="edge23" class="edge">
<title>FindPlayer__0&#45;&gt;FindPlayer__37</title>
<path fill="none" stroke="black" d="M2581,-1497.67C2581,-1476.43 2581,-1453.41 2581,-1434.85"/>
<polygon fill="black" stroke="black" points="2584.5,-1434.87 2581,-1424.87 2577.5,-1434.87 2584.5,-1434.87"/>
</g>
<!-- FindPlayer__56 -->
<g id="node30" class="node">
<title>FindPlayer__56</title>
<polygon fill="#eeeeee" stroke="black" points="2304.5,-1228.5 2304.5,-1296.5 2857.5,-1296.5 2857.5,-1228.5 2304.5,-1228.5"/>
<text text-anchor="start" x="2312.5" y="-1281.3" font-family="monospace" font-size="14.00">EX_LetBool</text>
<text text-anchor="start" x="2312.5" y="-1266.3" font-family="monospace" font-size="14.00">  EX_LocalVariable [CallFunc_IsValid_ReturnValue]</text>
<text text-anchor="start" x="2312.5" y="-1251.3" font-family="monospace" font-size="14.00">  EX_CallMath import /Script/Engine&#45;&gt;KismetSystemLibrary&#45;&gt;IsValid</text>
<text text-anchor="start" x="2312.5" y="-1236.3" font-family="monospace" font-size="14.00">    EX_LocalVariable [FoundPlayer]</text>
</g>
<!-- FindPlayer__37&#45;&gt;FindPlayer__56 -->
<g id="edge24" class="edge">
<title>FindPlayer__37&#45;&gt;FindPlayer__56</title>
<path fill="none" stroke="black" d="M2581,-1370.77C2581,-1352.9 2581,-1328.47 2581,-1307.44"/>
<polygon fill="black" stroke="black" points="2584.5,-1307.69 2581,-1297.69 2577.5,-1307.69 2584.5,-1307.69"/>
</g>
<!-- FindPlayer__85 -->
<g id="node31" class="node">
<title>FindPlayer__85</title>
<polygon fill="#eeeeee" stroke="black" points="2370.5,-1137.5 2370.5,-1175.5 2791.5,-1175.5 2791.5,-1137.5 2370.5,-1137.5"/>
<text text-anchor="start" x="2378.5" y="-1160.3" font-family="monospace" font-size="14.00">EX_JumpIfNot 237</text>
<text text-anchor="start" x="2378.5" y="-1145.3" font-family="monospace" font-size="14.00">  EX_LocalVariable [CallFunc_IsValid_ReturnValue]</text>
</g>
<!-- FindPlayer__56&#45;&gt;FindPlayer__85 -->
<g id="edge25" class="edge">
<title>FindPlayer__56&#45;&gt;FindPlayer__85</title>
<path fill="none" stroke="black" d="M2581,-1228.59C2581,-1215.11 2581,-1199.63 2581,-1186.57"/>
<polygon fill="black" stroke="black" points="2584.5,-1186.89 2581,-1176.89 2577.5,-1186.89 2584.5,-1186.89"/>
</g>
<!-- FindPlayer__99 -->
<g id="node32" class="node">
<title>FindPlayer__99</title>
<polygon fill="#eeeeee" stroke="black" points="2141.5,-942.5 2141.5,-1070.5 2834.5,-1070.5 2834.5,-942.5 2141.5,-942.5"/>
<text text-anchor="start" x="2149.5" y="-1055.3" font-family="monospace" font-size="14.00">EX_LetObj</text>
<text text-anchor="start" x="2149.5" y="-1040.3" font-family="monospace" font-size="14.00">  EX_LocalVariable [CallFunc_GetNearestPlayer_ReturnValue]</text>
<text text-anchor="start" x="2149.5" y="-1025.3" font-family="monospace" font-size="14.00">  EX_CallMath import /Script/FSD&#45;&gt;PlayerCharacterFunctionLibrary&#45;&gt;GetNearestPlayer</text>
<text text-anchor="start" x="2149.5" y="-1010.3" font-family="monospace" font-size="14.00">    EX_LocalVariable [From]</text>
<text text-anchor="start" x="2149.5" y="-995.3" font-family="monospace" font-size="14.00">    EX_FloatConst 100000</text>
<text text-anchor="start" x="2149.5" y="-980.3" font-family="monospace" font-size="14.00">    EX_True</text>
<text text-anchor="start" x="2149.5" y="-965.3" font-family="monospace" font-size="14.00">    EX_False</text>
<text text-anchor="start" x="2149.5" y="-950.3" font-family="monospace" font-size="14.00">    EX_False</text>
</g>
<!-- FindPlayer__85&#45;&gt;FindPlayer__99 -->
<g id="edge27" class="edge">
<title>FindPlayer__85&#45;&gt;FindPlayer__99</title>
<path fill="none" stroke="black" d="M2569.78,-1137.65C2560.61,-1123.05 2546.99,-1101.37 2533.48,-1079.88"/>
<polygon fill="black" stroke="black" points="2536.6,-1078.26 2528.32,-1071.66 2530.67,-1081.99 2536.6,-1078.26"/>
<text text-anchor="middle" x="2557.5" y="-1092.8" font-family="monospace" font-size="14.00">IF</text>
</g>
<!-- FindPlayer__237 -->
<g id="node37" class="node">
<title>FindPlayer__237</title>
<polygon fill="#eeeeee" stroke="black" points="2853,-972.5 2853,-1040.5 3043,-1040.5 3043,-972.5 2853,-972.5"/>
<text text-anchor="start" x="2861" y="-1025.3" font-family="monospace" font-size="14.00">EX_LetObj</text>
<text text-anchor="start" x="2861" y="-1010.3" font-family="monospace" font-size="14.00">  EX_LocalOutVariable</text>
<text text-anchor="start" x="2861" y="-995.3" font-family="monospace" font-size="14.00">    [Player]</text>
<text text-anchor="start" x="2861" y="-980.3" font-family="monospace" font-size="14.00">  EX_NoObject</text>
</g>
<!-- FindPlayer__85&#45;&gt;FindPlayer__237 -->
<g id="edge26" class="edge">
<title>FindPlayer__85:e&#45;&gt;FindPlayer__237</title>
<path fill="none" stroke="red" d="M2793,-1156.5C2854.81,-1156.5 2901.52,-1094.15 2926.79,-1050.12"/>
<polygon fill="none" stroke="red" points="2929.77,-1051.96 2931.57,-1041.52 2923.65,-1048.56 2929.77,-1051.96"/>
<text text-anchor="middle" x="2925" y="-1092.8" font-family="monospace" font-size="14.00">IF NOT</text>
</g>
<!-- FindPlayer__136 -->
<g id="node33" class="node">
<title>FindPlayer__136</title>
<polygon fill="#eeeeee" stroke="black" points="2290,-806.5 2290,-904.5 2884,-904.5 2884,-806.5 2290,-806.5"/>
<text text-anchor="start" x="2298" y="-889.3" font-family="monospace" font-size="14.00">EX_Let</text>
<text text-anchor="start" x="2298" y="-874.3" font-family="monospace" font-size="14.00">  EX_LocalVariable [CallFunc_K2_GetActorLocation_ReturnValue]</text>
<text text-anchor="start" x="2298" y="-859.3" font-family="monospace" font-size="14.00">  EX_Context</text>
<text text-anchor="start" x="2298" y="-844.3" font-family="monospace" font-size="14.00">    EX_LocalVariable [CallFunc_GetNearestPlayer_ReturnValue]</text>
<text text-anchor="start" x="2298" y="-829.3" font-family="monospace" font-size="14.00">    EX_FinalFunction import /Script/Engine&#45;&gt;Actor&#45;&gt;K2_GetActorLocation</text>
<text text-anchor="start" x="2298" y="-814.3" font-family="monospace" font-size="14.00">    RValue = [CallFunc_K2_GetActorLocation_ReturnValue]</text>
</g>
<!-- FindPlayer__99&#45;&gt;FindPlayer__136 -->
<g id="edge28" class="edge">
<title>FindPlayer__99&#45;&gt;FindPlayer__136</title>
<path fill="none" stroke="black" d="M2529.7,-942.74C2536.12,-933.08 2542.72,-923.15 2549.05,-913.61"/>
<polygon fill="black" stroke="black" points="2551.82,-915.77 2554.44,-905.5 2545.99,-911.89 2551.82,-915.77"/>
</g>
<!-- FindPlayer__186 -->
<g id="node34" class="node">
<title>FindPlayer__186</title>
<polygon fill="#eeeeee" stroke="black" points="2376.5,-610 2376.5,-678 2871.5,-678 2871.5,-610 2376.5,-610"/>
<text text-anchor="start" x="2384.5" y="-662.8" font-family="monospace" font-size="14.00">EX_LetObj</text>
<text text-anchor="start" x="2384.5" y="-647.8" font-family="monospace" font-size="14.00">  EX_LocalOutVariable</text>
<text text-anchor="start" x="2384.5" y="-632.8" font-family="monospace" font-size="14.00">    [Player]</text>
<text text-anchor="start" x="2384.5" y="-617.8" font-family="monospace" font-size="14.00">  EX_LocalVariable [CallFunc_GetNearestPlayer_ReturnValue]</text>
</g>
<!-- FindPlayer__136&#45;&gt;FindPlayer__186 -->
<g id="edge29" class="edge">
<title>FindPlayer__136&#45;&gt;FindPlayer__186</title>
<path fill="none" stroke="black" d="M2595.44,-806.7C2601.69,-771.33 2610.13,-723.51 2616.22,-689.06"/>
<polygon fill="black" stroke="black" points="2619.63,-689.87 2617.92,-679.42 2612.74,-688.66 2619.63,-689.87"/>
</g>
<!-- FindPlayer__205 -->
<g id="node35" class="node">
<title>FindPlayer__205</title>
<polygon fill="#eeeeee" stroke="black" points="2381,-414 2381,-482 2901,-482 2901,-414 2381,-414"/>
<text text-anchor="start" x="2389" y="-466.8" font-family="monospace" font-size="14.00">EX_Let</text>
<text text-anchor="start" x="2389" y="-451.8" font-family="monospace" font-size="14.00">  EX_LocalOutVariable</text>
<text text-anchor="start" x="2389" y="-436.8" font-family="monospace" font-size="14.00">    [Location]</text>
<text text-anchor="start" x="2389" y="-421.8" font-family="monospace" font-size="14.00">  EX_LocalVariable [CallFunc_K2_GetActorLocation_ReturnValue]</text>
</g>
<!-- FindPlayer__186&#45;&gt;FindPlayer__205 -->
<g id="edge30" class="edge">
<title>FindPlayer__186&#45;&gt;FindPlayer__205</title>
<path fill="none" stroke="black" d="M2626.88,-610.09C2629.71,-577.8 2634.05,-528.37 2637.16,-492.78"/>
<polygon fill="black" stroke="black" points="2640.61,-493.52 2638,-483.25 2633.64,-492.91 2640.61,-493.52"/>
</g>
<!-- FindPlayer__232 -->
<g id="node36" class="node">
<title>FindPlayer__232</title>
<polygon fill="#eeeeee" stroke="black" points="2742.5,-271.5 2742.5,-307.5 2849.5,-307.5 2849.5,-271.5 2742.5,-271.5"/>
<text text-anchor="start" x="2750.5" y="-285.8" font-family="monospace" font-size="14.00">EX_Jump 279</text>
</g>
<!-- FindPlayer__205&#45;&gt;FindPlayer__232 -->
<g id="edge31" class="edge">
<title>FindPlayer__205&#45;&gt;FindPlayer__232</title>
<path fill="none" stroke="black" d="M2673.49,-414.19C2702.65,-384.75 2744.81,-342.18 2771.3,-315.44"/>
<polygon fill="black" stroke="black" points="2773.69,-318 2778.24,-308.43 2768.72,-313.07 2773.69,-318"/>
</g>
<!-- FindPlayer__279 -->
<g id="node39" class="node">
<title>FindPlayer__279</title>
<polygon fill="#eeeeee" stroke="black" points="2849,-165.5 2849,-203.5 2965,-203.5 2965,-165.5 2849,-165.5"/>
<text text-anchor="start" x="2857" y="-188.3" font-family="monospace" font-size="14.00">EX_Return</text>
<text text-anchor="start" x="2857" y="-173.3" font-family="monospace" font-size="14.00">  EX_Nothing</text>
</g>
<!-- FindPlayer__232&#45;&gt;FindPlayer__279 -->
<g id="edge32" class="edge">
<title>FindPlayer__232&#45;&gt;FindPlayer__279</title>
<path fill="none" stroke="black" d="M2813.83,-271.95C2831.53,-255.53 2858.9,-230.14 2879.4,-211.11"/>
<polygon fill="black" stroke="black" points="2881.66,-213.79 2886.61,-204.42 2876.9,-208.66 2881.66,-213.79"/>
</g>
<!-- FindPlayer__248 -->
<g id="node38" class="node">
<title>FindPlayer__248</title>
<polygon fill="#eeeeee" stroke="black" points="2847,-719.5 2847,-787.5 3045,-787.5 3045,-719.5 2847,-719.5"/>
<text text-anchor="start" x="2855" y="-772.3" font-family="monospace" font-size="14.00">EX_Let</text>
<text text-anchor="start" x="2855" y="-757.3" font-family="monospace" font-size="14.00">  EX_LocalOutVariable</text>
<text text-anchor="start" x="2855" y="-742.3" font-family="monospace" font-size="14.00">    [Location]</text>
<text text-anchor="start" x="2855" y="-727.3" font-family="monospace" font-size="14.00">  EX_VectorConst 0,0,0</text>
</g>
<!-- FindPlayer__237&#45;&gt;FindPlayer__248 -->
<g id="edge33" class="edge">
<title>FindPlayer__237&#45;&gt;FindPlayer__248</title>
<path fill="none" stroke="black" d="M2947.74,-972.69C2947.38,-928.15 2946.75,-848.44 2946.35,-798.68"/>
<polygon fill="black" stroke="black" points="2949.85,-798.81 2946.27,-788.84 2942.85,-798.86 2949.85,-798.81"/>
</g>
<!-- FindPlayer__248&#45;&gt;FindPlayer__279 -->
<g id="edge34" class="edge">
<title>FindPlayer__248&#45;&gt;FindPlayer__279</title>
<path fill="none" stroke="black" d="M2943.71,-719.7C2941.34,-683.01 2938,-621.77 2938,-569 2938,-569 2938,-569 2938,-288.5 2938,-262.34 2928.72,-233.98 2920.32,-213.65"/>
<polygon fill="black" stroke="black" points="2923.6,-212.41 2916.4,-204.63 2917.17,-215.2 2923.6,-212.41"/>
</g>
<!-- FindPlayer__281 -->
<g id="node40" class="node">
<title>FindPlayer__281</title>
<polygon fill="#eeeeee" stroke="black" points="2596,-1315.5 2596,-1351.5 2728,-1351.5 2728,-1315.5 2596,-1315.5"/>
<text text-anchor="start" x="2604" y="-1329.8" font-family="monospace" font-size="14.00">EX_EndOfScript</text>
</g>
</g>
</svg>
