<?xml version="1.0" encoding="UTF-8" standalone="no"?>
<!DOCTYPE svg PUBLIC "-//W3C//DTD SVG 1.1//EN"
 "http://www.w3.org/Graphics/SVG/1.1/DTD/svg11.dtd">
<!-- Generated by graphviz version 7.0.1 (0)
 -->
<!-- Pages: 1 -->
<svg width="2630pt" height="2332pt"
 viewBox="0.00 0.00 2629.50 2332.00" xmlns="http://www.w3.org/2000/svg" xmlns:xlink="http://www.w3.org/1999/xlink">
<g id="graph0" class="graph" transform="scale(1 1) rotate(0) translate(4 2328)">
<polygon fill="white" stroke="none" points="-4,4 -4,-2328 2625.5,-2328 2625.5,4 -4,4"/>
<!-- ESI_HydraWeed_C -->
<g id="node1" class="node">
<title>ESI_HydraWeed_C</title>
<polygon fill="#88ff88" stroke="black" points="0,-2000.5 0,-2323.5 594,-2323.5 594,-2000.5 0,-2000.5"/>
<text text-anchor="start" x="8" y="-2308.3" font-family="monospace" font-size="14.00">ClassExport: ESI_HydraWeed_C</text>
<text text-anchor="start" x="8" y="-2293.3" font-family="monospace" font-size="14.00">  SuperStruct: import /Script/FSD&#45;&gt;EnemyShowroomItem</text>
<text text-anchor="start" x="8" y="-2278.3" font-family="monospace" font-size="14.00">  Properties:</text>
<text text-anchor="start" x="8" y="-2263.3" font-family="monospace" font-size="14.00">    StructProperty UberGraphFrame</text>
<text text-anchor="start" x="8" y="-2248.3" font-family="monospace" font-size="14.00">      CPF_Transient|CPF_DuplicateTransient</text>
<text text-anchor="start" x="8" y="-2233.3" font-family="monospace" font-size="14.00">    ObjectProperty SkeletalMesh1</text>
<text text-anchor="start" x="8" y="-2218.3" font-family="monospace" font-size="14.00">      CPF_BlueprintVisible|CPF_InstancedReference|CPF_NonTransactional</text>
<text text-anchor="start" x="8" y="-2203.3" font-family="monospace" font-size="14.00">    ObjectProperty SkeletalMesh</text>
<text text-anchor="start" x="8" y="-2188.3" font-family="monospace" font-size="14.00">      CPF_BlueprintVisible|CPF_InstancedReference|CPF_NonTransactional</text>
<text text-anchor="start" x="8" y="-2173.3" font-family="monospace" font-size="14.00">    ObjectProperty ShootingPlant_small</text>
<text text-anchor="start" x="8" y="-2158.3" font-family="monospace" font-size="14.00">      CPF_BlueprintVisible|CPF_InstancedReference|CPF_NonTransactional</text>
<text text-anchor="start" x="8" y="-2143.3" font-family="monospace" font-size="14.00">    ObjectProperty Scale</text>
<text text-anchor="start" x="8" y="-2128.3" font-family="monospace" font-size="14.00">      CPF_BlueprintVisible|CPF_InstancedReference|CPF_NonTransactional</text>
<text text-anchor="start" x="8" y="-2113.3" font-family="monospace" font-size="14.00">    ObjectProperty DefaultSceneRoot</text>
<text text-anchor="start" x="8" y="-2098.3" font-family="monospace" font-size="14.00">      CPF_BlueprintVisible|CPF_InstancedReference|CPF_NonTransactional</text>
<text text-anchor="start" x="8" y="-2083.3" font-family="monospace" font-size="14.00">    ArrayProperty Animations</text>
<text text-anchor="start" x="8" y="-2068.3" font-family="monospace" font-size="14.00">      CPF_Edit|CPF_BlueprintVisible|CPF_DisableEditOnInstance</text>
<text text-anchor="start" x="8" y="-2053.3" font-family="monospace" font-size="14.00">    IntProperty Index</text>
<text text-anchor="start" x="8" y="-2038.3" font-family="monospace" font-size="14.00">      CPF_Edit|CPF_BlueprintVisible|CPF_DisableEditOnInstance</text>
<text text-anchor="start" x="8" y="-2023.3" font-family="monospace" font-size="14.00">    FloatProperty LastPlayTime</text>
<text text-anchor="start" x="8" y="-2008.3" font-family="monospace" font-size="14.00">      CPF_Edit|CPF_BlueprintVisible|CPF_DisableEditOnInstance</text>
</g>
<!-- ExecuteUbergraph_ESI_HydraWeed -->
<g id="node2" class="node">
<title>ExecuteUbergraph_ESI_HydraWeed</title>
<polygon fill="#ff8888" stroke="black" points="612.5,-2060.5 612.5,-2263.5 1115.5,-2263.5 1115.5,-2060.5 612.5,-2060.5"/>
<text text-anchor="start" x="620.5" y="-2248.3" font-family="monospace" font-size="14.00">Function ExecuteUbergraph_ESI_HydraWeed</text>
<text text-anchor="start" x="620.5" y="-2233.3" font-family="monospace" font-size="14.00">  IntProperty EntryPoint</text>
<text text-anchor="start" x="620.5" y="-2218.3" font-family="monospace" font-size="14.00">    CPF_BlueprintVisible|CPF_BlueprintReadOnly|CPF_Parm</text>
<text text-anchor="start" x="620.5" y="-2203.3" font-family="monospace" font-size="14.00">  IntProperty CallFunc_Array_Length_ReturnValue</text>
<text text-anchor="start" x="620.5" y="-2188.3" font-family="monospace" font-size="14.00">  StructProperty CallFunc_Array_Get_Item</text>
<text text-anchor="start" x="620.5" y="-2173.3" font-family="monospace" font-size="14.00">  IntProperty CallFunc_Add_IntInt_ReturnValue</text>
<text text-anchor="start" x="620.5" y="-2158.3" font-family="monospace" font-size="14.00">  IntProperty CallFunc_Percent_IntInt_ReturnValue</text>
<text text-anchor="start" x="620.5" y="-2143.3" font-family="monospace" font-size="14.00">  FloatProperty K2Node_Event_DeltaSeconds</text>
<text text-anchor="start" x="620.5" y="-2128.3" font-family="monospace" font-size="14.00">  FloatProperty CallFunc_GetRealTimeSeconds_ReturnValue</text>
<text text-anchor="start" x="620.5" y="-2113.3" font-family="monospace" font-size="14.00">  FloatProperty CallFunc_GetRealTimeSeconds_ReturnValue_1</text>
<text text-anchor="start" x="620.5" y="-2098.3" font-family="monospace" font-size="14.00">  FloatProperty CallFunc_GetRealTimeSeconds_ReturnValue_2</text>
<text text-anchor="start" x="620.5" y="-2083.3" font-family="monospace" font-size="14.00">  FloatProperty CallFunc_Subtract_FloatFloat_ReturnValue</text>
<text text-anchor="start" x="620.5" y="-2068.3" font-family="monospace" font-size="14.00">  BoolProperty CallFunc_GreaterEqual_FloatFloat_ReturnValue</text>
</g>
<!-- ExecuteUbergraph_ESI_HydraWeed__0 -->
<g id="node3" class="node">
<title>ExecuteUbergraph_ESI_HydraWeed__0</title>
<polygon fill="#eeeeee" stroke="black" points="728,-1888.5 728,-1926.5 1000,-1926.5 1000,-1888.5 728,-1888.5"/>
<text text-anchor="start" x="736" y="-1911.3" font-family="monospace" font-size="14.00">EX_ComputedJump</text>
<text text-anchor="start" x="736" y="-1896.3" font-family="monospace" font-size="14.00">  EX_LocalVariable [EntryPoint]</text>
</g>
<!-- ExecuteUbergraph_ESI_HydraWeed&#45;&gt;ExecuteUbergraph_ESI_HydraWeed__0 -->
<g id="edge1" class="edge">
<title>ExecuteUbergraph_ESI_HydraWeed&#45;&gt;ExecuteUbergraph_ESI_HydraWeed__0</title>
<path fill="none" stroke="black" d="M864,-2060.84C864,-2016.55 864,-1967.78 864,-1937.64"/>
<polygon fill="black" stroke="black" points="867.5,-1937.82 864,-1927.82 860.5,-1937.82 867.5,-1937.82"/>
</g>
<!-- ExecuteUbergraph_ESI_HydraWeed__10 -->
<g id="node4" class="node">
<title>ExecuteUbergraph_ESI_HydraWeed__10</title>
<polygon fill="#eeeeee" stroke="black" points="2010.5,-1746.5 2010.5,-1814.5 2621.5,-1814.5 2621.5,-1746.5 2010.5,-1746.5"/>
<text text-anchor="start" x="2018.5" y="-1799.3" font-family="monospace" font-size="14.00">EX_Let</text>
<text text-anchor="start" x="2018.5" y="-1784.3" font-family="monospace" font-size="14.00">  EX_LocalVariable [CallFunc_GetRealTimeSeconds_ReturnValue]</text>
<text text-anchor="start" x="2018.5" y="-1769.3" font-family="monospace" font-size="14.00">  EX_CallMath import /Script/Engine&#45;&gt;GameplayStatics&#45;&gt;GetRealTimeSeconds</text>
<text text-anchor="start" x="2018.5" y="-1754.3" font-family="monospace" font-size="14.00">    EX_Self</text>
</g>
<!-- ExecuteUbergraph_ESI_HydraWeed__39 -->
<g id="node5" class="node">
<title>ExecuteUbergraph_ESI_HydraWeed__39</title>
<polygon fill="#eeeeee" stroke="black" points="2060,-1612 2060,-1665 2572,-1665 2572,-1612 2060,-1612"/>
<text text-anchor="start" x="2068" y="-1649.8" font-family="monospace" font-size="14.00">EX_Let</text>
<text text-anchor="start" x="2068" y="-1634.8" font-family="monospace" font-size="14.00">  EX_InstanceVariable [LastPlayTime]</text>
<text text-anchor="start" x="2068" y="-1619.8" font-family="monospace" font-size="14.00">  EX_LocalVariable [CallFunc_GetRealTimeSeconds_ReturnValue]</text>
</g>
<!-- ExecuteUbergraph_ESI_HydraWeed__10&#45;&gt;ExecuteUbergraph_ESI_HydraWeed__39 -->
<g id="edge2" class="edge">
<title>ExecuteUbergraph_ESI_HydraWeed__10&#45;&gt;ExecuteUbergraph_ESI_HydraWeed__39</title>
<path fill="none" stroke="black" d="M2316,-1746.68C2316,-1725.54 2316,-1698.02 2316,-1676.17"/>
<polygon fill="black" stroke="black" points="2319.5,-1676.2 2316,-1666.2 2312.5,-1676.2 2319.5,-1676.2"/>
</g>
<!-- ExecuteUbergraph_ESI_HydraWeed__66 -->
<g id="node6" class="node">
<title>ExecuteUbergraph_ESI_HydraWeed__66</title>
<polygon fill="#eeeeee" stroke="black" points="2260.5,-1428.5 2260.5,-1464.5 2367.5,-1464.5 2367.5,-1428.5 2260.5,-1428.5"/>
<text text-anchor="start" x="2268.5" y="-1442.8" font-family="monospace" font-size="14.00">EX_Jump 561</text>
</g>
<!-- ExecuteUbergraph_ESI_HydraWeed__39&#45;&gt;ExecuteUbergraph_ESI_HydraWeed__66 -->
<g id="edge3" class="edge">
<title>ExecuteUbergraph_ESI_HydraWeed__39&#45;&gt;ExecuteUbergraph_ESI_HydraWeed__66</title>
<path fill="none" stroke="black" d="M2315.73,-1612.27C2315.36,-1576.9 2314.69,-1512.77 2314.3,-1475.81"/>
<polygon fill="black" stroke="black" points="2317.8,-1475.88 2314.19,-1465.92 2310.8,-1475.95 2317.8,-1475.88"/>
</g>
<!-- ExecuteUbergraph_ESI_HydraWeed__561 -->
<g id="node21" class="node">
<title>ExecuteUbergraph_ESI_HydraWeed__561</title>
<polygon fill="#eeeeee" stroke="black" points="2190,-0.5 2190,-38.5 2306,-38.5 2306,-0.5 2190,-0.5"/>
<text text-anchor="start" x="2198" y="-23.3" font-family="monospace" font-size="14.00">EX_Return</text>
<text text-anchor="start" x="2198" y="-8.3" font-family="monospace" font-size="14.00">  EX_Nothing</text>
</g>
<!-- ExecuteUbergraph_ESI_HydraWeed__66&#45;&gt;ExecuteUbergraph_ESI_HydraWeed__561 -->
<g id="edge4" class="edge">
<title>ExecuteUbergraph_ESI_HydraWeed__66&#45;&gt;ExecuteUbergraph_ESI_HydraWeed__561</title>
<path fill="none" stroke="black" d="M2314,-1428.57C2314,-1402.61 2314,-1351.45 2314,-1308 2314,-1308 2314,-1308 2314,-93.5 2314,-74.26 2301.23,-57.82 2286.92,-45.44"/>
<polygon fill="black" stroke="black" points="2289.1,-42.7 2279.09,-39.21 2284.74,-48.18 2289.1,-42.7"/>
</g>
<!-- ExecuteUbergraph_ESI_HydraWeed__71 -->
<g id="node7" class="node">
<title>ExecuteUbergraph_ESI_HydraWeed__71</title>
<polygon fill="#eeeeee" stroke="black" points="1589,-814.5 1589,-927.5 2191,-927.5 2191,-814.5 1589,-814.5"/>
<text text-anchor="start" x="1597" y="-912.3" font-family="monospace" font-size="14.00">EX_Context</text>
<text text-anchor="start" x="1597" y="-897.3" font-family="monospace" font-size="14.00">  EX_ObjectConst import /Script/Engine&#45;&gt;Default__KismetArrayLibrary</text>
<text text-anchor="start" x="1597" y="-882.3" font-family="monospace" font-size="14.00">  EX_FinalFunction import /Script/Engine&#45;&gt;KismetArrayLibrary&#45;&gt;Array_Get</text>
<text text-anchor="start" x="1597" y="-867.3" font-family="monospace" font-size="14.00">    EX_InstanceVariable [Animations]</text>
<text text-anchor="start" x="1597" y="-852.3" font-family="monospace" font-size="14.00">    EX_InstanceVariable [Index]</text>
<text text-anchor="start" x="1597" y="-837.3" font-family="monospace" font-size="14.00">    EX_LocalVariable [CallFunc_Array_Get_Item]</text>
<text text-anchor="start" x="1597" y="-822.3" font-family="monospace" font-size="14.00">  RValue = []</text>
</g>
<!-- ExecuteUbergraph_ESI_HydraWeed__130 -->
<g id="node8" class="node">
<title>ExecuteUbergraph_ESI_HydraWeed__130</title>
<polygon fill="#eeeeee" stroke="black" points="1560,-648.5 1560,-776.5 2220,-776.5 2220,-648.5 1560,-648.5"/>
<text text-anchor="start" x="1568" y="-761.3" font-family="monospace" font-size="14.00">EX_Context</text>
<text text-anchor="start" x="1568" y="-746.3" font-family="monospace" font-size="14.00">  EX_InstanceVariable [SkeletalMesh]</text>
<text text-anchor="start" x="1568" y="-731.3" font-family="monospace" font-size="14.00">  EX_FinalFunction import /Script/Engine&#45;&gt;SkeletalMeshComponent&#45;&gt;PlayAnimation</text>
<text text-anchor="start" x="1568" y="-716.3" font-family="monospace" font-size="14.00">    EX_StructMemberContext [AnimToPlay]</text>
<text text-anchor="start" x="1568" y="-701.3" font-family="monospace" font-size="14.00">      EX_LocalVariable [CallFunc_Array_Get_Item]</text>
<text text-anchor="start" x="1568" y="-686.3" font-family="monospace" font-size="14.00">    EX_StructMemberContext [bSavedLooping]</text>
<text text-anchor="start" x="1568" y="-671.3" font-family="monospace" font-size="14.00">      EX_LocalVariable [CallFunc_Array_Get_Item]</text>
<text text-anchor="start" x="1568" y="-656.3" font-family="monospace" font-size="14.00">  RValue = []</text>
</g>
<!-- ExecuteUbergraph_ESI_HydraWeed__71&#45;&gt;ExecuteUbergraph_ESI_HydraWeed__130 -->
<g id="edge5" class="edge">
<title>ExecuteUbergraph_ESI_HydraWeed__71&#45;&gt;ExecuteUbergraph_ESI_HydraWeed__130</title>
<path fill="none" stroke="black" d="M1890,-814.82C1890,-806.1 1890,-796.95 1890,-787.88"/>
<polygon fill="black" stroke="black" points="1893.5,-787.97 1890,-777.97 1886.5,-787.97 1893.5,-787.97"/>
</g>
<!-- ExecuteUbergraph_ESI_HydraWeed__198 -->
<g id="node9" class="node">
<title>ExecuteUbergraph_ESI_HydraWeed__198</title>
<polygon fill="#eeeeee" stroke="black" points="1574,-483.5 1574,-596.5 2218,-596.5 2218,-483.5 1574,-483.5"/>
<text text-anchor="start" x="1582" y="-581.3" font-family="monospace" font-size="14.00">EX_Let</text>
<text text-anchor="start" x="1582" y="-566.3" font-family="monospace" font-size="14.00">  EX_LocalVariable [CallFunc_Array_Length_ReturnValue]</text>
<text text-anchor="start" x="1582" y="-551.3" font-family="monospace" font-size="14.00">  EX_Context</text>
<text text-anchor="start" x="1582" y="-536.3" font-family="monospace" font-size="14.00">    EX_ObjectConst import /Script/Engine&#45;&gt;Default__KismetArrayLibrary</text>
<text text-anchor="start" x="1582" y="-521.3" font-family="monospace" font-size="14.00">    EX_FinalFunction import /Script/Engine&#45;&gt;KismetArrayLibrary&#45;&gt;Array_Length</text>
<text text-anchor="start" x="1582" y="-506.3" font-family="monospace" font-size="14.00">      EX_InstanceVariable [Animations]</text>
<text text-anchor="start" x="1582" y="-491.3" font-family="monospace" font-size="14.00">    RValue = [CallFunc_Array_Length_ReturnValue]</text>
</g>
<!-- ExecuteUbergraph_ESI_HydraWeed__130&#45;&gt;ExecuteUbergraph_ESI_HydraWeed__198 -->
<g id="edge6" class="edge">
<title>ExecuteUbergraph_ESI_HydraWeed__130&#45;&gt;ExecuteUbergraph_ESI_HydraWeed__198</title>
<path fill="none" stroke="black" d="M1892.2,-648.98C1892.67,-635.54 1893.17,-621.29 1893.65,-607.7"/>
<polygon fill="black" stroke="black" points="1897.14,-608.1 1893.99,-597.98 1890.15,-607.85 1897.14,-608.1"/>
</g>
<!-- ExecuteUbergraph_ESI_HydraWeed__257 -->
<g id="node10" class="node">
<title>ExecuteUbergraph_ESI_HydraWeed__257</title>
<polygon fill="#eeeeee" stroke="black" points="1631.5,-362.5 1631.5,-445.5 2192.5,-445.5 2192.5,-362.5 1631.5,-362.5"/>
<text text-anchor="start" x="1639.5" y="-430.3" font-family="monospace" font-size="14.00">EX_Let</text>
<text text-anchor="start" x="1639.5" y="-415.3" font-family="monospace" font-size="14.00">  EX_LocalVariable [CallFunc_Add_IntInt_ReturnValue]</text>
<text text-anchor="start" x="1639.5" y="-400.3" font-family="monospace" font-size="14.00">  EX_CallMath import /Script/Engine&#45;&gt;KismetMathLibrary&#45;&gt;Add_IntInt</text>
<text text-anchor="start" x="1639.5" y="-385.3" font-family="monospace" font-size="14.00">    EX_InstanceVariable [Index]</text>
<text text-anchor="start" x="1639.5" y="-370.3" font-family="monospace" font-size="14.00">    EX_IntConst 1</text>
</g>
<!-- ExecuteUbergraph_ESI_HydraWeed__198&#45;&gt;ExecuteUbergraph_ESI_HydraWeed__257 -->
<g id="edge7" class="edge">
<title>ExecuteUbergraph_ESI_HydraWeed__198&#45;&gt;ExecuteUbergraph_ESI_HydraWeed__257</title>
<path fill="none" stroke="black" d="M1902.6,-483.72C1903.67,-474.8 1904.77,-465.59 1905.82,-456.76"/>
<polygon fill="black" stroke="black" points="1909.28,-457.26 1907,-446.91 1902.33,-456.43 1909.28,-457.26"/>
</g>
<!-- ExecuteUbergraph_ESI_HydraWeed__299 -->
<g id="node11" class="node">
<title>ExecuteUbergraph_ESI_HydraWeed__299</title>
<polygon fill="#eeeeee" stroke="black" points="1624,-241.5 1624,-324.5 2218,-324.5 2218,-241.5 1624,-241.5"/>
<text text-anchor="start" x="1632" y="-309.3" font-family="monospace" font-size="14.00">EX_Let</text>
<text text-anchor="start" x="1632" y="-294.3" font-family="monospace" font-size="14.00">  EX_LocalVariable [CallFunc_Percent_IntInt_ReturnValue]</text>
<text text-anchor="start" x="1632" y="-279.3" font-family="monospace" font-size="14.00">  EX_CallMath import /Script/Engine&#45;&gt;KismetMathLibrary&#45;&gt;Percent_IntInt</text>
<text text-anchor="start" x="1632" y="-264.3" font-family="monospace" font-size="14.00">    EX_LocalVariable [CallFunc_Add_IntInt_ReturnValue]</text>
<text text-anchor="start" x="1632" y="-249.3" font-family="monospace" font-size="14.00">    EX_LocalVariable [CallFunc_Array_Length_ReturnValue]</text>
</g>
<!-- ExecuteUbergraph_ESI_HydraWeed__257&#45;&gt;ExecuteUbergraph_ESI_HydraWeed__299 -->
<g id="edge8" class="edge">
<title>ExecuteUbergraph_ESI_HydraWeed__257&#45;&gt;ExecuteUbergraph_ESI_HydraWeed__299</title>
<path fill="none" stroke="black" d="M1915.05,-362.71C1915.71,-353.99 1916.41,-344.65 1917.1,-335.56"/>
<polygon fill="black" stroke="black" points="1920.58,-335.99 1917.84,-325.76 1913.6,-335.46 1920.58,-335.99"/>
</g>
<!-- ExecuteUbergraph_ESI_HydraWeed__345 -->
<g id="node12" class="node">
<title>ExecuteUbergraph_ESI_HydraWeed__345</title>
<polygon fill="#eeeeee" stroke="black" points="1726.5,-150.5 1726.5,-203.5 2205.5,-203.5 2205.5,-150.5 1726.5,-150.5"/>
<text text-anchor="start" x="1734.5" y="-188.3" font-family="monospace" font-size="14.00">EX_Let</text>
<text text-anchor="start" x="1734.5" y="-173.3" font-family="monospace" font-size="14.00">  EX_InstanceVariable [Index]</text>
<text text-anchor="start" x="1734.5" y="-158.3" font-family="monospace" font-size="14.00">  EX_LocalVariable [CallFunc_Percent_IntInt_ReturnValue]</text>
</g>
<!-- ExecuteUbergraph_ESI_HydraWeed__299&#45;&gt;ExecuteUbergraph_ESI_HydraWeed__345 -->
<g id="edge9" class="edge">
<title>ExecuteUbergraph_ESI_HydraWeed__299&#45;&gt;ExecuteUbergraph_ESI_HydraWeed__345</title>
<path fill="none" stroke="black" d="M1938.4,-241.79C1942.37,-232.61 1946.57,-222.91 1950.46,-213.91"/>
<polygon fill="black" stroke="black" points="1953.66,-215.34 1954.42,-204.77 1947.23,-212.56 1953.66,-215.34"/>
</g>
<!-- ExecuteUbergraph_ESI_HydraWeed__372 -->
<g id="node13" class="node">
<title>ExecuteUbergraph_ESI_HydraWeed__372</title>
<polygon fill="#eeeeee" stroke="black" points="2066.5,-76.5 2066.5,-112.5 2173.5,-112.5 2173.5,-76.5 2066.5,-76.5"/>
<text text-anchor="start" x="2074.5" y="-90.8" font-family="monospace" font-size="14.00">EX_Jump 561</text>
</g>
<!-- ExecuteUbergraph_ESI_HydraWeed__345&#45;&gt;ExecuteUbergraph_ESI_HydraWeed__372 -->
<g id="edge10" class="edge">
<title>ExecuteUbergraph_ESI_HydraWeed__345&#45;&gt;ExecuteUbergraph_ESI_HydraWeed__372</title>
<path fill="none" stroke="black" d="M2014.73,-150.53C2034.89,-139.99 2058.07,-127.87 2077.53,-117.7"/>
<polygon fill="black" stroke="black" points="2079.04,-120.86 2086.28,-113.13 2075.8,-114.66 2079.04,-120.86"/>
</g>
<!-- ExecuteUbergraph_ESI_HydraWeed__372&#45;&gt;ExecuteUbergraph_ESI_HydraWeed__561 -->
<g id="edge11" class="edge">
<title>ExecuteUbergraph_ESI_HydraWeed__372&#45;&gt;ExecuteUbergraph_ESI_HydraWeed__561</title>
<path fill="none" stroke="black" d="M2149.69,-76.57C2166.64,-66.9 2188.14,-54.64 2206.72,-44.04"/>
<polygon fill="black" stroke="black" points="2208.42,-47.1 2215.37,-39.11 2204.95,-41.02 2208.42,-47.1"/>
</g>
<!-- ExecuteUbergraph_ESI_HydraWeed__377 -->
<g id="node14" class="node">
<title>ExecuteUbergraph_ESI_HydraWeed__377</title>
<polygon fill="#eeeeee" stroke="black" points="1430.5,-1604.5 1430.5,-1672.5 2041.5,-1672.5 2041.5,-1604.5 1430.5,-1604.5"/>
<text text-anchor="start" x="1438.5" y="-1657.3" font-family="monospace" font-size="14.00">EX_Let</text>
<text text-anchor="start" x="1438.5" y="-1642.3" font-family="monospace" font-size="14.00">  EX_LocalVariable [CallFunc_GetRealTimeSeconds_ReturnValue_1]</text>
<text text-anchor="start" x="1438.5" y="-1627.3" font-family="monospace" font-size="14.00">  EX_CallMath import /Script/Engine&#45;&gt;GameplayStatics&#45;&gt;GetRealTimeSeconds</text>
<text text-anchor="start" x="1438.5" y="-1612.3" font-family="monospace" font-size="14.00">    EX_Self</text>
</g>
<!-- ExecuteUbergraph_ESI_HydraWeed__406 -->
<g id="node15" class="node">
<title>ExecuteUbergraph_ESI_HydraWeed__406</title>
<polygon fill="#eeeeee" stroke="black" points="1535.5,-1483.5 1535.5,-1566.5 2170.5,-1566.5 2170.5,-1483.5 1535.5,-1483.5"/>
<text text-anchor="start" x="1543.5" y="-1551.3" font-family="monospace" font-size="14.00">EX_Let</text>
<text text-anchor="start" x="1543.5" y="-1536.3" font-family="monospace" font-size="14.00">  EX_LocalVariable [CallFunc_Subtract_FloatFloat_ReturnValue]</text>
<text text-anchor="start" x="1543.5" y="-1521.3" font-family="monospace" font-size="14.00">  EX_CallMath import /Script/Engine&#45;&gt;KismetMathLibrary&#45;&gt;Subtract_FloatFloat</text>
<text text-anchor="start" x="1543.5" y="-1506.3" font-family="monospace" font-size="14.00">    EX_LocalVariable [CallFunc_GetRealTimeSeconds_ReturnValue_1]</text>
<text text-anchor="start" x="1543.5" y="-1491.3" font-family="monospace" font-size="14.00">    EX_InstanceVariable [LastPlayTime]</text>
</g>
<!-- ExecuteUbergraph_ESI_HydraWeed__377&#45;&gt;ExecuteUbergraph_ESI_HydraWeed__406 -->
<g id="edge12" class="edge">
<title>ExecuteUbergraph_ESI_HydraWeed__377&#45;&gt;ExecuteUbergraph_ESI_HydraWeed__406</title>
<path fill="none" stroke="black" d="M1770.47,-1604.65C1780.57,-1595.03 1791.82,-1584.3 1802.69,-1573.94"/>
<polygon fill="black" stroke="black" points="1804.98,-1576.59 1809.81,-1567.16 1800.16,-1571.53 1804.98,-1576.59"/>
</g>
<!-- ExecuteUbergraph_ESI_HydraWeed__452 -->
<g id="node16" class="node">
<title>ExecuteUbergraph_ESI_HydraWeed__452</title>
<polygon fill="#eeeeee" stroke="black" points="1549,-1326.5 1549,-1409.5 2217,-1409.5 2217,-1326.5 1549,-1326.5"/>
<text text-anchor="start" x="1557" y="-1394.3" font-family="monospace" font-size="14.00">EX_LetBool</text>
<text text-anchor="start" x="1557" y="-1379.3" font-family="monospace" font-size="14.00">  EX_LocalVariable [CallFunc_GreaterEqual_FloatFloat_ReturnValue]</text>
<text text-anchor="start" x="1557" y="-1364.3" font-family="monospace" font-size="14.00">  EX_CallMath import /Script/Engine&#45;&gt;KismetMathLibrary&#45;&gt;GreaterEqual_FloatFloat</text>
<text text-anchor="start" x="1557" y="-1349.3" font-family="monospace" font-size="14.00">    EX_LocalVariable [CallFunc_Subtract_FloatFloat_ReturnValue]</text>
<text text-anchor="start" x="1557" y="-1334.3" font-family="monospace" font-size="14.00">    EX_FloatConst 3</text>
</g>
<!-- ExecuteUbergraph_ESI_HydraWeed__406&#45;&gt;ExecuteUbergraph_ESI_HydraWeed__452 -->
<g id="edge13" class="edge">
<title>ExecuteUbergraph_ESI_HydraWeed__406&#45;&gt;ExecuteUbergraph_ESI_HydraWeed__452</title>
<path fill="none" stroke="black" d="M1860.8,-1483.68C1864.54,-1464.38 1869.05,-1441.05 1873.04,-1420.48"/>
<polygon fill="black" stroke="black" points="1876.43,-1421.36 1874.9,-1410.87 1869.56,-1420.03 1876.43,-1421.36"/>
</g>
<!-- ExecuteUbergraph_ESI_HydraWeed__486 -->
<g id="node17" class="node">
<title>ExecuteUbergraph_ESI_HydraWeed__486</title>
<polygon fill="#eeeeee" stroke="black" points="1613.5,-1250.5 1613.5,-1288.5 2166.5,-1288.5 2166.5,-1250.5 1613.5,-1250.5"/>
<text text-anchor="start" x="1621.5" y="-1273.3" font-family="monospace" font-size="14.00">EX_JumpIfNot 561</text>
<text text-anchor="start" x="1621.5" y="-1258.3" font-family="monospace" font-size="14.00">  EX_LocalVariable [CallFunc_GreaterEqual_FloatFloat_ReturnValue]</text>
</g>
<!-- ExecuteUbergraph_ESI_HydraWeed__452&#45;&gt;ExecuteUbergraph_ESI_HydraWeed__486 -->
<g id="edge14" class="edge">
<title>ExecuteUbergraph_ESI_HydraWeed__452&#45;&gt;ExecuteUbergraph_ESI_HydraWeed__486</title>
<path fill="none" stroke="black" d="M1885.93,-1326.63C1886.59,-1317.51 1887.28,-1307.99 1887.9,-1299.45"/>
<polygon fill="black" stroke="black" points="1891.38,-1299.89 1888.61,-1289.66 1884.4,-1299.38 1891.38,-1299.89"/>
</g>
<!-- ExecuteUbergraph_ESI_HydraWeed__500 -->
<g id="node18" class="node">
<title>ExecuteUbergraph_ESI_HydraWeed__500</title>
<polygon fill="#eeeeee" stroke="black" points="1584.5,-1130.5 1584.5,-1198.5 2195.5,-1198.5 2195.5,-1130.5 1584.5,-1130.5"/>
<text text-anchor="start" x="1592.5" y="-1183.3" font-family="monospace" font-size="14.00">EX_Let</text>
<text text-anchor="start" x="1592.5" y="-1168.3" font-family="monospace" font-size="14.00">  EX_LocalVariable [CallFunc_GetRealTimeSeconds_ReturnValue_2]</text>
<text text-anchor="start" x="1592.5" y="-1153.3" font-family="monospace" font-size="14.00">  EX_CallMath import /Script/Engine&#45;&gt;GameplayStatics&#45;&gt;GetRealTimeSeconds</text>
<text text-anchor="start" x="1592.5" y="-1138.3" font-family="monospace" font-size="14.00">    EX_Self</text>
</g>
<!-- ExecuteUbergraph_ESI_HydraWeed__486&#45;&gt;ExecuteUbergraph_ESI_HydraWeed__500 -->
<g id="edge16" class="edge">
<title>ExecuteUbergraph_ESI_HydraWeed__486&#45;&gt;ExecuteUbergraph_ESI_HydraWeed__500</title>
<path fill="none" stroke="black" d="M1890,-1250.56C1890,-1239.19 1890,-1223.95 1890,-1209.52"/>
<polygon fill="black" stroke="black" points="1893.5,-1209.72 1890,-1199.72 1886.5,-1209.72 1893.5,-1209.72"/>
<text text-anchor="middle" x="1898.5" y="-1220.8" font-family="monospace" font-size="14.00">IF</text>
</g>
<!-- ExecuteUbergraph_ESI_HydraWeed__486&#45;&gt;ExecuteUbergraph_ESI_HydraWeed__561 -->
<g id="edge15" class="edge">
<title>ExecuteUbergraph_ESI_HydraWeed__486:e&#45;&gt;ExecuteUbergraph_ESI_HydraWeed__561</title>
<path fill="none" stroke="red" d="M2168,-1269.5C2226.32,-1269.5 2248,-1223.82 2248,-1165.5 2248,-1165.5 2248,-1165.5 2248,-93.5 2248,-79.14 2248,-63.19 2248,-49.87"/>
<polygon fill="none" stroke="red" points="2251.5,-50.01 2248,-40.01 2244.5,-50.01 2251.5,-50.01"/>
<text text-anchor="middle" x="2273" y="-618.8" font-family="monospace" font-size="14.00">IF NOT</text>
</g>
<!-- ExecuteUbergraph_ESI_HydraWeed__529 -->
<g id="node19" class="node">
<title>ExecuteUbergraph_ESI_HydraWeed__529</title>
<polygon fill="#eeeeee" stroke="black" points="1626,-1039.5 1626,-1092.5 2154,-1092.5 2154,-1039.5 1626,-1039.5"/>
<text text-anchor="start" x="1634" y="-1077.3" font-family="monospace" font-size="14.00">EX_Let</text>
<text text-anchor="start" x="1634" y="-1062.3" font-family="monospace" font-size="14.00">  EX_InstanceVariable [LastPlayTime]</text>
<text text-anchor="start" x="1634" y="-1047.3" font-family="monospace" font-size="14.00">  EX_LocalVariable [CallFunc_GetRealTimeSeconds_ReturnValue_2]</text>
</g>
<!-- ExecuteUbergraph_ESI_HydraWeed__500&#45;&gt;ExecuteUbergraph_ESI_HydraWeed__529 -->
<g id="edge17" class="edge">
<title>ExecuteUbergraph_ESI_HydraWeed__500&#45;&gt;ExecuteUbergraph_ESI_HydraWeed__529</title>
<path fill="none" stroke="black" d="M1890,-1130.56C1890,-1122 1890,-1112.73 1890,-1103.97"/>
<polygon fill="black" stroke="black" points="1893.5,-1104 1890,-1094 1886.5,-1104 1893.5,-1104"/>
</g>
<!-- ExecuteUbergraph_ESI_HydraWeed__556 -->
<g id="node20" class="node">
<title>ExecuteUbergraph_ESI_HydraWeed__556</title>
<polygon fill="#eeeeee" stroke="black" points="1840.5,-965.5 1840.5,-1001.5 1939.5,-1001.5 1939.5,-965.5 1840.5,-965.5"/>
<text text-anchor="start" x="1848.5" y="-979.8" font-family="monospace" font-size="14.00">EX_Jump 71</text>
</g>
<!-- ExecuteUbergraph_ESI_HydraWeed__529&#45;&gt;ExecuteUbergraph_ESI_HydraWeed__556 -->
<g id="edge18" class="edge">
<title>ExecuteUbergraph_ESI_HydraWeed__529&#45;&gt;ExecuteUbergraph_ESI_HydraWeed__556</title>
<path fill="none" stroke="black" d="M1890,-1039.53C1890,-1030.92 1890,-1021.25 1890,-1012.46"/>
<polygon fill="black" stroke="black" points="1893.5,-1012.69 1890,-1002.69 1886.5,-1012.69 1893.5,-1012.69"/>
</g>
<!-- ExecuteUbergraph_ESI_HydraWeed__556&#45;&gt;ExecuteUbergraph_ESI_HydraWeed__71 -->
<g id="edge19" class="edge">
<title>ExecuteUbergraph_ESI_HydraWeed__556&#45;&gt;ExecuteUbergraph_ESI_HydraWeed__71</title>
<path fill="none" stroke="black" d="M1890,-965.72C1890,-958.17 1890,-948.73 1890,-938.76"/>
<polygon fill="black" stroke="black" points="1893.5,-938.87 1890,-928.87 1886.5,-938.87 1893.5,-938.87"/>
</g>
<!-- ExecuteUbergraph_ESI_HydraWeed__563 -->
<g id="node22" class="node">
<title>ExecuteUbergraph_ESI_HydraWeed__563</title>
<polygon fill="#eeeeee" stroke="black" points="1972,-1945.5 1972,-1981.5 2104,-1981.5 2104,-1945.5 1972,-1945.5"/>
<text text-anchor="start" x="1980" y="-1959.8" font-family="monospace" font-size="14.00">EX_EndOfScript</text>
</g>
<!-- ReceiveTick -->
<g id="node23" class="node">
<title>ReceiveTick</title>
<polygon fill="#ff8888" stroke="black" points="1134,-2135.5 1134,-2188.5 1604,-2188.5 1604,-2135.5 1134,-2135.5"/>
<text text-anchor="start" x="1142" y="-2173.3" font-family="monospace" font-size="14.00">Function ReceiveTick</text>
<text text-anchor="start" x="1142" y="-2158.3" font-family="monospace" font-size="14.00">  FloatProperty DeltaSeconds</text>
<text text-anchor="start" x="1142" y="-2143.3" font-family="monospace" font-size="14.00">    CPF_BlueprintVisible|CPF_BlueprintReadOnly|CPF_Parm</text>
</g>
<!-- ReceiveTick__0 -->
<g id="node24" class="node">
<title>ReceiveTick__0</title>
<polygon fill="#eeeeee" stroke="black" points="1129.5,-1888.5 1129.5,-1926.5 1608.5,-1926.5 1608.5,-1888.5 1129.5,-1888.5"/>
<text text-anchor="start" x="1137.5" y="-1911.3" font-family="monospace" font-size="14.00">EX_LetValueOnPersistentFrame [K2Node_Event_DeltaSeconds]</text>
<text text-anchor="start" x="1137.5" y="-1896.3" font-family="monospace" font-size="14.00">  EX_LocalVariable [DeltaSeconds]</text>
</g>
<!-- ReceiveTick&#45;&gt;ReceiveTick__0 -->
<g id="edge20" class="edge">
<title>ReceiveTick&#45;&gt;ReceiveTick__0</title>
<path fill="none" stroke="black" d="M1369,-2135.87C1369,-2088.73 1369,-1987.34 1369,-1937.44"/>
<polygon fill="black" stroke="black" points="1372.5,-1937.72 1369,-1927.72 1365.5,-1937.72 1372.5,-1937.72"/>
</g>
<!-- ReceiveTick__18 -->
<g id="node25" class="node">
<title>ReceiveTick__18</title>
<polygon fill="#eeeeee" stroke="black" points="1047,-1761.5 1047,-1799.5 1691,-1799.5 1691,-1761.5 1047,-1761.5"/>
<text text-anchor="start" x="1055" y="-1784.3" font-family="monospace" font-size="14.00">EX_LocalFinalFunction export ESI_HydraWeed_C&#45;&gt;ExecuteUbergraph_ESI_HydraWeed</text>
<text text-anchor="start" x="1055" y="-1769.3" font-family="monospace" font-size="14.00">  EX_IntConst 377</text>
</g>
<!-- ReceiveTick__0&#45;&gt;ReceiveTick__18 -->
<g id="edge21" class="edge">
<title>ReceiveTick__0&#45;&gt;ReceiveTick__18</title>
<path fill="none" stroke="black" d="M1369,-1888.59C1369,-1868.26 1369,-1834.8 1369,-1810.69"/>
<polygon fill="black" stroke="black" points="1372.5,-1810.89 1369,-1800.89 1365.5,-1810.89 1372.5,-1810.89"/>
</g>
<!-- ReceiveTick__18&#45;&gt;ExecuteUbergraph_ESI_HydraWeed__377 -->
<g id="edge22" class="edge">
<title>ReceiveTick__18:e&#45;&gt;ExecuteUbergraph_ESI_HydraWeed__377</title>
<path fill="none" stroke="red" d="M1692,-1780.5C1733.17,-1780.5 1740.01,-1725.06 1739.38,-1683.7"/>
<polygon fill="none" stroke="red" points="1742.88,-1683.6 1739.07,-1673.72 1735.88,-1683.82 1742.88,-1683.6"/>
</g>
<!-- ReceiveTick__33 -->
<g id="node26" class="node">
<title>ReceiveTick__33</title>
<polygon fill="#eeeeee" stroke="black" points="1296,-1619.5 1296,-1657.5 1412,-1657.5 1412,-1619.5 1296,-1619.5"/>
<text text-anchor="start" x="1304" y="-1642.3" font-family="monospace" font-size="14.00">EX_Return</text>
<text text-anchor="start" x="1304" y="-1627.3" font-family="monospace" font-size="14.00">  EX_Nothing</text>
</g>
<!-- ReceiveTick__18&#45;&gt;ReceiveTick__33 -->
<g id="edge23" class="edge">
<title>ReceiveTick__18&#45;&gt;ReceiveTick__33</title>
<path fill="none" stroke="black" d="M1367.1,-1761.77C1364.58,-1738.21 1360.08,-1696.28 1357.07,-1668.19"/>
<polygon fill="black" stroke="black" points="1360.59,-1668.16 1356.05,-1658.59 1353.63,-1668.91 1360.59,-1668.16"/>
</g>
<!-- ReceiveTick__35 -->
<g id="node27" class="node">
<title>ReceiveTick__35</title>
<polygon fill="#eeeeee" stroke="black" points="2324,-1833.5 2324,-1869.5 2456,-1869.5 2456,-1833.5 2324,-1833.5"/>
<text text-anchor="start" x="2332" y="-1847.8" font-family="monospace" font-size="14.00">EX_EndOfScript</text>
</g>
<!-- ReceiveBeginPlay -->
<g id="node28" class="node">
<title>ReceiveBeginPlay</title>
<polygon fill="#ff8888" stroke="black" points="1845.5,-2144 1845.5,-2180 2068.5,-2180 2068.5,-2144 1845.5,-2144"/>
<text text-anchor="start" x="1853.5" y="-2158.3" font-family="monospace" font-size="14.00">Function ReceiveBeginPlay</text>
</g>
<!-- ReceiveBeginPlay__0 -->
<g id="node29" class="node">
<title>ReceiveBeginPlay__0</title>
<polygon fill="#eeeeee" stroke="black" points="1635,-1888.5 1635,-1926.5 2279,-1926.5 2279,-1888.5 1635,-1888.5"/>
<text text-anchor="start" x="1643" y="-1911.3" font-family="monospace" font-size="14.00">EX_LocalFinalFunction export ESI_HydraWeed_C&#45;&gt;ExecuteUbergraph_ESI_HydraWeed</text>
<text text-anchor="start" x="1643" y="-1896.3" font-family="monospace" font-size="14.00">  EX_IntConst 10</text>
</g>
<!-- ReceiveBeginPlay&#45;&gt;ReceiveBeginPlay__0 -->
<g id="edge24" class="edge">
<title>ReceiveBeginPlay&#45;&gt;ReceiveBeginPlay__0</title>
<path fill="none" stroke="black" d="M1957,-2144.04C1957,-2101.67 1957,-1990.81 1957,-1937.69"/>
<polygon fill="black" stroke="black" points="1960.5,-1937.9 1957,-1927.9 1953.5,-1937.9 1960.5,-1937.9"/>
</g>
<!-- ReceiveBeginPlay__0&#45;&gt;ExecuteUbergraph_ESI_HydraWeed__10 -->
<g id="edge25" class="edge">
<title>ReceiveBeginPlay__0:e&#45;&gt;ExecuteUbergraph_ESI_HydraWeed__10</title>
<path fill="none" stroke="red" d="M2280,-1907.5C2315,-1907.5 2320.93,-1861.99 2320.1,-1825.68"/>
<polygon fill="none" stroke="red" points="2323.6,-1825.63 2319.68,-1815.79 2316.6,-1825.93 2323.6,-1825.63"/>
</g>
<!-- ReceiveBeginPlay__15 -->
<g id="node30" class="node">
<title>ReceiveBeginPlay__15</title>
<polygon fill="#eeeeee" stroke="black" points="1876,-1761.5 1876,-1799.5 1992,-1799.5 1992,-1761.5 1876,-1761.5"/>
<text text-anchor="start" x="1884" y="-1784.3" font-family="monospace" font-size="14.00">EX_Return</text>
<text text-anchor="start" x="1884" y="-1769.3" font-family="monospace" font-size="14.00">  EX_Nothing</text>
</g>
<!-- ReceiveBeginPlay__0&#45;&gt;ReceiveBeginPlay__15 -->
<g id="edge26" class="edge">
<title>ReceiveBeginPlay__0&#45;&gt;ReceiveBeginPlay__15</title>
<path fill="none" stroke="black" d="M1953.7,-1888.59C1949.96,-1868.26 1943.81,-1834.8 1939.37,-1810.69"/>
<polygon fill="black" stroke="black" points="1942.82,-1810.07 1937.56,-1800.86 1935.93,-1811.33 1942.82,-1810.07"/>
</g>
<!-- ReceiveBeginPlay__17 -->
<g id="node31" class="node">
<title>ReceiveBeginPlay__17</title>
<polygon fill="#eeeeee" stroke="black" points="2331,-1691.5 2331,-1727.5 2463,-1727.5 2463,-1691.5 2331,-1691.5"/>
<text text-anchor="start" x="2339" y="-1705.8" font-family="monospace" font-size="14.00">EX_EndOfScript</text>
</g>
</g>
</svg>
