<?xml version="1.0" encoding="UTF-8" standalone="no"?>
<!DOCTYPE svg PUBLIC "-//W3C//DTD SVG 1.1//EN"
 "http://www.w3.org/Graphics/SVG/1.1/DTD/svg11.dtd">
<!-- Generated by graphviz version 7.0.1 (0)
 -->
<!-- Pages: 1 -->
<svg width="2938pt" height="2282pt"
 viewBox="0.00 0.00 2938.00 2282.00" xmlns="http://www.w3.org/2000/svg" xmlns:xlink="http://www.w3.org/1999/xlink">
<g id="graph0" class="graph" transform="scale(1 1) rotate(0) translate(4 2278)">
<polygon fill="white" stroke="none" points="-4,4 -4,-2278 2934,-2278 2934,4 -4,4"/>
<!-- Lore_Container_DamageType_C -->
<g id="node1" class="node">
<title>Lore_Container_DamageType_C</title>
<polygon fill="#88ff88" stroke="black" points="0,-1980.5 0,-2273.5 850,-2273.5 850,-1980.5 0,-1980.5"/>
<text text-anchor="start" x="8" y="-2258.3" font-family="monospace" font-size="14.00">ClassExport: Lore_Container_DamageType_C</text>
<text text-anchor="start" x="8" y="-2243.3" font-family="monospace" font-size="14.00">  SuperStruct: import /Script/UMG&#45;&gt;UserWidget</text>
<text text-anchor="start" x="8" y="-2228.3" font-family="monospace" font-size="14.00">  Properties:</text>
<text text-anchor="start" x="8" y="-2213.3" font-family="monospace" font-size="14.00">    StructProperty UberGraphFrame</text>
<text text-anchor="start" x="8" y="-2198.3" font-family="monospace" font-size="14.00">      CPF_Transient|CPF_DuplicateTransient</text>
<text text-anchor="start" x="8" y="-2183.3" font-family="monospace" font-size="14.00">    ObjectProperty Basic_HexIcon</text>
<text text-anchor="start" x="8" y="-2168.3" font-family="monospace" font-size="14.00">      CPF_BlueprintVisible|CPF_ExportObject|CPF_InstancedReference|CPF_RepSkip|CPF_PersistentInstance</text>
<text text-anchor="start" x="8" y="-2153.3" font-family="monospace" font-size="14.00">    ObjectProperty Basic_Window</text>
<text text-anchor="start" x="8" y="-2138.3" font-family="monospace" font-size="14.00">      CPF_BlueprintVisible|CPF_ExportObject|CPF_InstancedReference|CPF_RepSkip|CPF_PersistentInstance</text>
<text text-anchor="start" x="8" y="-2123.3" font-family="monospace" font-size="14.00">    ObjectProperty RichTextSizable_Body</text>
<text text-anchor="start" x="8" y="-2108.3" font-family="monospace" font-size="14.00">      CPF_BlueprintVisible|CPF_ExportObject|CPF_InstancedReference|CPF_RepSkip|CPF_PersistentInstance</text>
<text text-anchor="start" x="8" y="-2093.3" font-family="monospace" font-size="14.00">    ObjectProperty TextBlock_Headline</text>
<text text-anchor="start" x="8" y="-2078.3" font-family="monospace" font-size="14.00">      CPF_BlueprintVisible|CPF_ExportObject|CPF_InstancedReference|CPF_RepSkip|CPF_PersistentInstance</text>
<text text-anchor="start" x="8" y="-2063.3" font-family="monospace" font-size="14.00">    ByteProperty IconShape</text>
<text text-anchor="start" x="8" y="-2048.3" font-family="monospace" font-size="14.00">      CPF_Edit|CPF_BlueprintVisible|CPF_DisableEditOnInstance</text>
<text text-anchor="start" x="8" y="-2033.3" font-family="monospace" font-size="14.00">    StructProperty IconTint</text>
<text text-anchor="start" x="8" y="-2018.3" font-family="monospace" font-size="14.00">      CPF_Edit|CPF_BlueprintVisible|CPF_DisableEditOnInstance</text>
<text text-anchor="start" x="8" y="-2003.3" font-family="monospace" font-size="14.00">    BoolProperty IconOutline</text>
<text text-anchor="start" x="8" y="-1988.3" font-family="monospace" font-size="14.00">      CPF_Edit|CPF_BlueprintVisible|CPF_DisableEditOnInstance</text>
</g>
<!-- ExecuteUbergraph_Lore_Container_DamageType -->
<g id="node2" class="node">
<title>ExecuteUbergraph_Lore_Container_DamageType</title>
<polygon fill="#ff8888" stroke="black" points="868.5,-2048 868.5,-2206 1347.5,-2206 1347.5,-2048 868.5,-2048"/>
<text text-anchor="start" x="876.5" y="-2190.8" font-family="monospace" font-size="14.00">Function ExecuteUbergraph_Lore_Container_DamageType</text>
<text text-anchor="start" x="876.5" y="-2175.8" font-family="monospace" font-size="14.00">  IntProperty EntryPoint</text>
<text text-anchor="start" x="876.5" y="-2160.8" font-family="monospace" font-size="14.00">    CPF_BlueprintVisible|CPF_BlueprintReadOnly|CPF_Parm</text>
<text text-anchor="start" x="876.5" y="-2145.8" font-family="monospace" font-size="14.00">  StructProperty CallFunc_MenuColors_OutputColor</text>
<text text-anchor="start" x="876.5" y="-2130.8" font-family="monospace" font-size="14.00">  StructProperty K2Node_MakeStruct_SlateColor</text>
<text text-anchor="start" x="876.5" y="-2115.8" font-family="monospace" font-size="14.00">  StructProperty K2Node_CustomEvent_Damage_Description</text>
<text text-anchor="start" x="876.5" y="-2100.8" font-family="monospace" font-size="14.00">  BoolProperty K2Node_Event_IsDesignTime</text>
<text text-anchor="start" x="876.5" y="-2085.8" font-family="monospace" font-size="14.00">  ObjectProperty CallFunc_LoadAsset_Blocking_ReturnValue</text>
<text text-anchor="start" x="876.5" y="-2070.8" font-family="monospace" font-size="14.00">  ObjectProperty K2Node_DynamicCast_AsTexture_2D</text>
<text text-anchor="start" x="876.5" y="-2055.8" font-family="monospace" font-size="14.00">  BoolProperty K2Node_DynamicCast_bSuccess</text>
</g>
<!-- ExecuteUbergraph_Lore_Container_DamageType__0 -->
<g id="node3" class="node">
<title>ExecuteUbergraph_Lore_Container_DamageType__0</title>
<polygon fill="#eeeeee" stroke="black" points="972,-1868.5 972,-1906.5 1244,-1906.5 1244,-1868.5 972,-1868.5"/>
<text text-anchor="start" x="980" y="-1891.3" font-family="monospace" font-size="14.00">EX_ComputedJump</text>
<text text-anchor="start" x="980" y="-1876.3" font-family="monospace" font-size="14.00">  EX_LocalVariable [EntryPoint]</text>
</g>
<!-- ExecuteUbergraph_Lore_Container_DamageType&#45;&gt;ExecuteUbergraph_Lore_Container_DamageType__0 -->
<g id="edge1" class="edge">
<title>ExecuteUbergraph_Lore_Container_DamageType&#45;&gt;ExecuteUbergraph_Lore_Container_DamageType__0</title>
<path fill="none" stroke="black" d="M1108,-2048.23C1108,-2003.37 1108,-1949.61 1108,-1917.3"/>
<polygon fill="black" stroke="black" points="1111.5,-1917.54 1108,-1907.54 1104.5,-1917.54 1111.5,-1917.54"/>
</g>
<!-- ExecuteUbergraph_Lore_Container_DamageType__10 -->
<g id="node4" class="node">
<title>ExecuteUbergraph_Lore_Container_DamageType__10</title>
<polygon fill="#eeeeee" stroke="black" points="2344,-1508.5 2344,-1606.5 2872,-1606.5 2872,-1508.5 2344,-1508.5"/>
<text text-anchor="start" x="2352" y="-1591.3" font-family="monospace" font-size="14.00">EX_Context</text>
<text text-anchor="start" x="2352" y="-1576.3" font-family="monospace" font-size="14.00">  EX_InstanceVariable [TextBlock_Headline]</text>
<text text-anchor="start" x="2352" y="-1561.3" font-family="monospace" font-size="14.00">  EX_VirtualFunction SetText</text>
<text text-anchor="start" x="2352" y="-1546.3" font-family="monospace" font-size="14.00">    EX_StructMemberContext [Name]</text>
<text text-anchor="start" x="2352" y="-1531.3" font-family="monospace" font-size="14.00">      EX_LocalVariable [K2Node_CustomEvent_Damage_Description]</text>
<text text-anchor="start" x="2352" y="-1516.3" font-family="monospace" font-size="14.00">  RValue = []</text>
</g>
<!-- ExecuteUbergraph_Lore_Container_DamageType__64 -->
<g id="node5" class="node">
<title>ExecuteUbergraph_Lore_Container_DamageType__64</title>
<polygon fill="#eeeeee" stroke="black" points="2344,-1372.5 2344,-1470.5 2872,-1470.5 2872,-1372.5 2344,-1372.5"/>
<text text-anchor="start" x="2352" y="-1455.3" font-family="monospace" font-size="14.00">EX_Context</text>
<text text-anchor="start" x="2352" y="-1440.3" font-family="monospace" font-size="14.00">  EX_InstanceVariable [RichTextSizable_Body]</text>
<text text-anchor="start" x="2352" y="-1425.3" font-family="monospace" font-size="14.00">  EX_VirtualFunction SetText</text>
<text text-anchor="start" x="2352" y="-1410.3" font-family="monospace" font-size="14.00">    EX_StructMemberContext [RichDescription]</text>
<text text-anchor="start" x="2352" y="-1395.3" font-family="monospace" font-size="14.00">      EX_LocalVariable [K2Node_CustomEvent_Damage_Description]</text>
<text text-anchor="start" x="2352" y="-1380.3" font-family="monospace" font-size="14.00">  RValue = []</text>
</g>
<!-- ExecuteUbergraph_Lore_Container_DamageType__10&#45;&gt;ExecuteUbergraph_Lore_Container_DamageType__64 -->
<g id="edge2" class="edge">
<title>ExecuteUbergraph_Lore_Container_DamageType__10&#45;&gt;ExecuteUbergraph_Lore_Container_DamageType__64</title>
<path fill="none" stroke="black" d="M2608,-1508.5C2608,-1499.74 2608,-1490.5 2608,-1481.46"/>
<polygon fill="black" stroke="black" points="2611.5,-1481.68 2608,-1471.68 2604.5,-1481.68 2611.5,-1481.68"/>
</g>
<!-- ExecuteUbergraph_Lore_Container_DamageType__118 -->
<g id="node6" class="node">
<title>ExecuteUbergraph_Lore_Container_DamageType__118</title>
<polygon fill="#eeeeee" stroke="black" points="2286,-1236.5 2286,-1334.5 2930,-1334.5 2930,-1236.5 2286,-1236.5"/>
<text text-anchor="start" x="2294" y="-1319.3" font-family="monospace" font-size="14.00">EX_LetObj</text>
<text text-anchor="start" x="2294" y="-1304.3" font-family="monospace" font-size="14.00">  EX_LocalVariable [CallFunc_LoadAsset_Blocking_ReturnValue]</text>
<text text-anchor="start" x="2294" y="-1289.3" font-family="monospace" font-size="14.00">  EX_CallMath import /Script/Engine&#45;&gt;KismetSystemLibrary&#45;&gt;LoadAsset_Blocking</text>
<text text-anchor="start" x="2294" y="-1274.3" font-family="monospace" font-size="14.00">    EX_StructMemberContext [Icon]</text>
<text text-anchor="start" x="2294" y="-1259.3" font-family="monospace" font-size="14.00">      EX_StructMemberContext [Icon]</text>
<text text-anchor="start" x="2294" y="-1244.3" font-family="monospace" font-size="14.00">        EX_LocalVariable [K2Node_CustomEvent_Damage_Description]</text>
</g>
<!-- ExecuteUbergraph_Lore_Container_DamageType__64&#45;&gt;ExecuteUbergraph_Lore_Container_DamageType__118 -->
<g id="edge3" class="edge">
<title>ExecuteUbergraph_Lore_Container_DamageType__64&#45;&gt;ExecuteUbergraph_Lore_Container_DamageType__118</title>
<path fill="none" stroke="black" d="M2608,-1372.5C2608,-1363.74 2608,-1354.5 2608,-1345.46"/>
<polygon fill="black" stroke="black" points="2611.5,-1345.68 2608,-1335.68 2604.5,-1345.68 2611.5,-1345.68"/>
</g>
<!-- ExecuteUbergraph_Lore_Container_DamageType__165 -->
<g id="node7" class="node">
<title>ExecuteUbergraph_Lore_Container_DamageType__165</title>
<polygon fill="#eeeeee" stroke="black" points="2344,-1130.5 2344,-1198.5 2872,-1198.5 2872,-1130.5 2344,-1130.5"/>
<text text-anchor="start" x="2352" y="-1183.3" font-family="monospace" font-size="14.00">EX_Let</text>
<text text-anchor="start" x="2352" y="-1168.3" font-family="monospace" font-size="14.00">  EX_LocalVariable [K2Node_DynamicCast_AsTexture_2D]</text>
<text text-anchor="start" x="2352" y="-1153.3" font-family="monospace" font-size="14.00">  EX_DynamicCast import /Script/Engine&#45;&gt;Texture2D</text>
<text text-anchor="start" x="2352" y="-1138.3" font-family="monospace" font-size="14.00">    EX_LocalVariable [CallFunc_LoadAsset_Blocking_ReturnValue]</text>
</g>
<!-- ExecuteUbergraph_Lore_Container_DamageType__118&#45;&gt;ExecuteUbergraph_Lore_Container_DamageType__165 -->
<g id="edge4" class="edge">
<title>ExecuteUbergraph_Lore_Container_DamageType__118&#45;&gt;ExecuteUbergraph_Lore_Container_DamageType__165</title>
<path fill="none" stroke="black" d="M2608,-1236.78C2608,-1227.79 2608,-1218.43 2608,-1209.55"/>
<polygon fill="black" stroke="black" points="2611.5,-1209.76 2608,-1199.76 2604.5,-1209.76 2611.5,-1209.76"/>
</g>
<!-- ExecuteUbergraph_Lore_Container_DamageType__201 -->
<g id="node8" class="node">
<title>ExecuteUbergraph_Lore_Container_DamageType__201</title>
<polygon fill="#eeeeee" stroke="black" points="2377,-1024.5 2377,-1092.5 2839,-1092.5 2839,-1024.5 2377,-1024.5"/>
<text text-anchor="start" x="2385" y="-1077.3" font-family="monospace" font-size="14.00">EX_Let</text>
<text text-anchor="start" x="2385" y="-1062.3" font-family="monospace" font-size="14.00">  EX_LocalVariable [K2Node_DynamicCast_bSuccess]</text>
<text text-anchor="start" x="2385" y="-1047.3" font-family="monospace" font-size="14.00">  EX_PrimitiveCast ObjectToBool</text>
<text text-anchor="start" x="2385" y="-1032.3" font-family="monospace" font-size="14.00">    EX_LocalVariable [K2Node_DynamicCast_AsTexture_2D]</text>
</g>
<!-- ExecuteUbergraph_Lore_Container_DamageType__165&#45;&gt;ExecuteUbergraph_Lore_Container_DamageType__201 -->
<g id="edge5" class="edge">
<title>ExecuteUbergraph_Lore_Container_DamageType__165&#45;&gt;ExecuteUbergraph_Lore_Container_DamageType__201</title>
<path fill="none" stroke="black" d="M2608,-1130.59C2608,-1121.97 2608,-1112.54 2608,-1103.45"/>
<polygon fill="black" stroke="black" points="2611.5,-1103.71 2608,-1093.71 2604.5,-1103.71 2611.5,-1103.71"/>
</g>
<!-- ExecuteUbergraph_Lore_Container_DamageType__230 -->
<g id="node9" class="node">
<title>ExecuteUbergraph_Lore_Container_DamageType__230</title>
<polygon fill="#eeeeee" stroke="black" points="2401.5,-948.5 2401.5,-986.5 2814.5,-986.5 2814.5,-948.5 2401.5,-948.5"/>
<text text-anchor="start" x="2409.5" y="-971.3" font-family="monospace" font-size="14.00">EX_JumpIfNot 544</text>
<text text-anchor="start" x="2409.5" y="-956.3" font-family="monospace" font-size="14.00">  EX_LocalVariable [K2Node_DynamicCast_bSuccess]</text>
</g>
<!-- ExecuteUbergraph_Lore_Container_DamageType__201&#45;&gt;ExecuteUbergraph_Lore_Container_DamageType__230 -->
<g id="edge6" class="edge">
<title>ExecuteUbergraph_Lore_Container_DamageType__201&#45;&gt;ExecuteUbergraph_Lore_Container_DamageType__230</title>
<path fill="none" stroke="black" d="M2608,-1024.61C2608,-1015.79 2608,-1006.32 2608,-997.72"/>
<polygon fill="black" stroke="black" points="2611.5,-997.8 2608,-987.8 2604.5,-997.8 2611.5,-997.8"/>
</g>
<!-- ExecuteUbergraph_Lore_Container_DamageType__244 -->
<g id="node10" class="node">
<title>ExecuteUbergraph_Lore_Container_DamageType__244</title>
<polygon fill="#eeeeee" stroke="black" points="2251.5,-648.5 2251.5,-896.5 2796.5,-896.5 2796.5,-648.5 2251.5,-648.5"/>
<text text-anchor="start" x="2259.5" y="-881.3" font-family="monospace" font-size="14.00">EX_Context</text>
<text text-anchor="start" x="2259.5" y="-866.3" font-family="monospace" font-size="14.00">  EX_InstanceVariable [Basic_HexIcon]</text>
<text text-anchor="start" x="2259.5" y="-851.3" font-family="monospace" font-size="14.00">  EX_LocalVirtualFunction SetData</text>
<text text-anchor="start" x="2259.5" y="-836.3" font-family="monospace" font-size="14.00">    EX_LocalVariable [K2Node_DynamicCast_AsTexture_2D]</text>
<text text-anchor="start" x="2259.5" y="-821.3" font-family="monospace" font-size="14.00">    EX_StructMemberContext [Tint]</text>
<text text-anchor="start" x="2259.5" y="-806.3" font-family="monospace" font-size="14.00">      EX_StructMemberContext [Icon]</text>
<text text-anchor="start" x="2259.5" y="-791.3" font-family="monospace" font-size="14.00">        EX_LocalVariable [K2Node_CustomEvent_Damage_Description]</text>
<text text-anchor="start" x="2259.5" y="-776.3" font-family="monospace" font-size="14.00">    EX_StructMemberContext [Tint]</text>
<text text-anchor="start" x="2259.5" y="-761.3" font-family="monospace" font-size="14.00">      EX_StructMemberContext [Icon]</text>
<text text-anchor="start" x="2259.5" y="-746.3" font-family="monospace" font-size="14.00">        EX_LocalVariable [K2Node_CustomEvent_Damage_Description]</text>
<text text-anchor="start" x="2259.5" y="-731.3" font-family="monospace" font-size="14.00">    EX_InstanceVariable [IconOutline]</text>
<text text-anchor="start" x="2259.5" y="-716.3" font-family="monospace" font-size="14.00">    EX_False</text>
<text text-anchor="start" x="2259.5" y="-701.3" font-family="monospace" font-size="14.00">    EX_StructMemberContext [IconScale]</text>
<text text-anchor="start" x="2259.5" y="-686.3" font-family="monospace" font-size="14.00">      EX_LocalVariable [K2Node_CustomEvent_Damage_Description]</text>
<text text-anchor="start" x="2259.5" y="-671.3" font-family="monospace" font-size="14.00">    EX_InstanceVariable [IconShape]</text>
<text text-anchor="start" x="2259.5" y="-656.3" font-family="monospace" font-size="14.00">  RValue = []</text>
</g>
<!-- ExecuteUbergraph_Lore_Container_DamageType__230&#45;&gt;ExecuteUbergraph_Lore_Container_DamageType__244 -->
<g id="edge8" class="edge">
<title>ExecuteUbergraph_Lore_Container_DamageType__230&#45;&gt;ExecuteUbergraph_Lore_Container_DamageType__244</title>
<path fill="none" stroke="black" d="M2600.25,-948.69C2595.57,-937.95 2589.15,-923.18 2581.99,-906.74"/>
<polygon fill="black" stroke="black" points="2585.26,-905.47 2578.06,-897.7 2578.84,-908.26 2585.26,-905.47"/>
<text text-anchor="middle" x="2600.5" y="-918.8" font-family="monospace" font-size="14.00">IF</text>
</g>
<!-- ExecuteUbergraph_Lore_Container_DamageType__544 -->
<g id="node17" class="node">
<title>ExecuteUbergraph_Lore_Container_DamageType__544</title>
<polygon fill="#eeeeee" stroke="black" points="2753,-0.5 2753,-38.5 2869,-38.5 2869,-0.5 2753,-0.5"/>
<text text-anchor="start" x="2761" y="-23.3" font-family="monospace" font-size="14.00">EX_Return</text>
<text text-anchor="start" x="2761" y="-8.3" font-family="monospace" font-size="14.00">  EX_Nothing</text>
</g>
<!-- ExecuteUbergraph_Lore_Container_DamageType__230&#45;&gt;ExecuteUbergraph_Lore_Container_DamageType__544 -->
<g id="edge7" class="edge">
<title>ExecuteUbergraph_Lore_Container_DamageType__230:e&#45;&gt;ExecuteUbergraph_Lore_Container_DamageType__544</title>
<path fill="none" stroke="red" d="M2816,-967.5C2903.69,-967.5 2852,-861.19 2852,-773.5 2852,-773.5 2852,-773.5 2852,-93.5 2852,-76.77 2843.72,-60.33 2834.6,-47.3"/>
<polygon fill="none" stroke="red" points="2837.65,-45.54 2828.83,-39.67 2832.06,-49.76 2837.65,-45.54"/>
<text text-anchor="middle" x="2877" y="-361.8" font-family="monospace" font-size="14.00">IF NOT</text>
</g>
<!-- ExecuteUbergraph_Lore_Container_DamageType__380 -->
<g id="node11" class="node">
<title>ExecuteUbergraph_Lore_Container_DamageType__380</title>
<polygon fill="#eeeeee" stroke="black" points="2064.5,-497.5 2064.5,-610.5 2823.5,-610.5 2823.5,-497.5 2064.5,-497.5"/>
<text text-anchor="start" x="2072.5" y="-595.3" font-family="monospace" font-size="14.00">EX_Context</text>
<text text-anchor="start" x="2072.5" y="-580.3" font-family="monospace" font-size="14.00">  EX_ObjectConst import /Game/UI/Art/WidgetParts/LIB_MenuColors&#45;&gt;Default__LIB_MenuColors_C</text>
<text text-anchor="start" x="2072.5" y="-565.3" font-family="monospace" font-size="14.00">  EX_LocalVirtualFunction MenuColors</text>
<text text-anchor="start" x="2072.5" y="-550.3" font-family="monospace" font-size="14.00">    EX_ByteConst 8</text>
<text text-anchor="start" x="2072.5" y="-535.3" font-family="monospace" font-size="14.00">    EX_Self</text>
<text text-anchor="start" x="2072.5" y="-520.3" font-family="monospace" font-size="14.00">    EX_LocalVariable [CallFunc_MenuColors_OutputColor]</text>
<text text-anchor="start" x="2072.5" y="-505.3" font-family="monospace" font-size="14.00">  RValue = []</text>
</g>
<!-- ExecuteUbergraph_Lore_Container_DamageType__244&#45;&gt;ExecuteUbergraph_Lore_Container_DamageType__380 -->
<g id="edge9" class="edge">
<title>ExecuteUbergraph_Lore_Container_DamageType__244&#45;&gt;ExecuteUbergraph_Lore_Container_DamageType__380</title>
<path fill="none" stroke="black" d="M2478.62,-648.7C2475.11,-639.2 2471.66,-629.85 2468.37,-620.96"/>
<polygon fill="black" stroke="black" points="2471.73,-619.94 2464.98,-611.77 2465.16,-622.37 2471.73,-619.94"/>
</g>
<!-- ExecuteUbergraph_Lore_Container_DamageType__428 -->
<g id="node12" class="node">
<title>ExecuteUbergraph_Lore_Container_DamageType__428</title>
<polygon fill="#eeeeee" stroke="black" points="2268,-391.5 2268,-459.5 2714,-459.5 2714,-391.5 2268,-391.5"/>
<text text-anchor="start" x="2276" y="-444.3" font-family="monospace" font-size="14.00">EX_Let</text>
<text text-anchor="start" x="2276" y="-429.3" font-family="monospace" font-size="14.00">  EX_StructMemberContext [SpecifiedColor]</text>
<text text-anchor="start" x="2276" y="-414.3" font-family="monospace" font-size="14.00">    EX_LocalVariable [K2Node_MakeStruct_SlateColor]</text>
<text text-anchor="start" x="2276" y="-399.3" font-family="monospace" font-size="14.00">  EX_LocalVariable [CallFunc_MenuColors_OutputColor]</text>
</g>
<!-- ExecuteUbergraph_Lore_Container_DamageType__380&#45;&gt;ExecuteUbergraph_Lore_Container_DamageType__428 -->
<g id="edge10" class="edge">
<title>ExecuteUbergraph_Lore_Container_DamageType__380&#45;&gt;ExecuteUbergraph_Lore_Container_DamageType__428</title>
<path fill="none" stroke="black" d="M2464.61,-497.52C2468.05,-488.26 2471.57,-478.79 2474.88,-469.9"/>
<polygon fill="black" stroke="black" points="2478.05,-471.4 2478.25,-460.81 2471.49,-468.97 2478.05,-471.4"/>
</g>
<!-- ExecuteUbergraph_Lore_Container_DamageType__464 -->
<g id="node13" class="node">
<title>ExecuteUbergraph_Lore_Container_DamageType__464</title>
<polygon fill="#eeeeee" stroke="black" points="2306.5,-271.5 2306.5,-339.5 2743.5,-339.5 2743.5,-271.5 2306.5,-271.5"/>
<text text-anchor="start" x="2314.5" y="-324.3" font-family="monospace" font-size="14.00">EX_Let</text>
<text text-anchor="start" x="2314.5" y="-309.3" font-family="monospace" font-size="14.00">  EX_StructMemberContext [ColorUseRule]</text>
<text text-anchor="start" x="2314.5" y="-294.3" font-family="monospace" font-size="14.00">    EX_LocalVariable [K2Node_MakeStruct_SlateColor]</text>
<text text-anchor="start" x="2314.5" y="-279.3" font-family="monospace" font-size="14.00">  EX_ByteConst 0</text>
</g>
<!-- ExecuteUbergraph_Lore_Container_DamageType__428&#45;&gt;ExecuteUbergraph_Lore_Container_DamageType__464 -->
<g id="edge11" class="edge">
<title>ExecuteUbergraph_Lore_Container_DamageType__428&#45;&gt;ExecuteUbergraph_Lore_Container_DamageType__464</title>
<path fill="none" stroke="black" d="M2500.47,-391.63C2504.19,-378.72 2508.52,-363.71 2512.49,-349.92"/>
<polygon fill="black" stroke="black" points="2515.76,-351.23 2515.16,-340.65 2509.03,-349.29 2515.76,-351.23"/>
</g>
<!-- ExecuteUbergraph_Lore_Container_DamageType__493 -->
<g id="node14" class="node">
<title>ExecuteUbergraph_Lore_Container_DamageType__493</title>
<polygon fill="#eeeeee" stroke="black" points="2245,-150.5 2245,-233.5 2823,-233.5 2823,-150.5 2245,-150.5"/>
<text text-anchor="start" x="2253" y="-218.3" font-family="monospace" font-size="14.00">EX_Context</text>
<text text-anchor="start" x="2253" y="-203.3" font-family="monospace" font-size="14.00">  EX_InstanceVariable [TextBlock_Headline]</text>
<text text-anchor="start" x="2253" y="-188.3" font-family="monospace" font-size="14.00">  EX_FinalFunction import /Script/UMG&#45;&gt;TextBlock&#45;&gt;SetColorAndOpacity</text>
<text text-anchor="start" x="2253" y="-173.3" font-family="monospace" font-size="14.00">    EX_LocalVariable [K2Node_MakeStruct_SlateColor]</text>
<text text-anchor="start" x="2253" y="-158.3" font-family="monospace" font-size="14.00">  RValue = []</text>
</g>
<!-- ExecuteUbergraph_Lore_Container_DamageType__464&#45;&gt;ExecuteUbergraph_Lore_Container_DamageType__493 -->
<g id="edge12" class="edge">
<title>ExecuteUbergraph_Lore_Container_DamageType__464&#45;&gt;ExecuteUbergraph_Lore_Container_DamageType__493</title>
<path fill="none" stroke="black" d="M2527.65,-271.65C2528.34,-263.06 2529.11,-253.6 2529.86,-244.3"/>
<polygon fill="black" stroke="black" points="2533.32,-244.87 2530.64,-234.62 2526.35,-244.31 2533.32,-244.87"/>
</g>
<!-- ExecuteUbergraph_Lore_Container_DamageType__534 -->
<g id="node15" class="node">
<title>ExecuteUbergraph_Lore_Container_DamageType__534</title>
<polygon fill="#eeeeee" stroke="black" points="2657.5,-76.5 2657.5,-112.5 2764.5,-112.5 2764.5,-76.5 2657.5,-76.5"/>
<text text-anchor="start" x="2665.5" y="-90.8" font-family="monospace" font-size="14.00">EX_Jump 544</text>
</g>
<!-- ExecuteUbergraph_Lore_Container_DamageType__493&#45;&gt;ExecuteUbergraph_Lore_Container_DamageType__534 -->
<g id="edge13" class="edge">
<title>ExecuteUbergraph_Lore_Container_DamageType__493&#45;&gt;ExecuteUbergraph_Lore_Container_DamageType__534</title>
<path fill="none" stroke="black" d="M2608.81,-150.64C2629.73,-139.35 2651.69,-127.5 2669.87,-117.69"/>
<polygon fill="black" stroke="black" points="2671.36,-120.87 2678.5,-113.04 2668.04,-114.7 2671.36,-120.87"/>
</g>
<!-- ExecuteUbergraph_Lore_Container_DamageType__534&#45;&gt;ExecuteUbergraph_Lore_Container_DamageType__544 -->
<g id="edge14" class="edge">
<title>ExecuteUbergraph_Lore_Container_DamageType__534&#45;&gt;ExecuteUbergraph_Lore_Container_DamageType__544</title>
<path fill="none" stroke="black" d="M2734.19,-76.57C2747.07,-67.17 2763.31,-55.32 2777.53,-44.93"/>
<polygon fill="black" stroke="black" points="2779.3,-47.97 2785.31,-39.25 2775.17,-42.32 2779.3,-47.97"/>
</g>
<!-- ExecuteUbergraph_Lore_Container_DamageType__539 -->
<g id="node16" class="node">
<title>ExecuteUbergraph_Lore_Container_DamageType__539</title>
<polygon fill="#eeeeee" stroke="black" points="2207.5,-1645.5 2207.5,-1681.5 2306.5,-1681.5 2306.5,-1645.5 2207.5,-1645.5"/>
<text text-anchor="start" x="2215.5" y="-1659.8" font-family="monospace" font-size="14.00">EX_Jump 10</text>
</g>
<!-- ExecuteUbergraph_Lore_Container_DamageType__539&#45;&gt;ExecuteUbergraph_Lore_Container_DamageType__10 -->
<g id="edge15" class="edge">
<title>ExecuteUbergraph_Lore_Container_DamageType__539&#45;&gt;ExecuteUbergraph_Lore_Container_DamageType__10</title>
<path fill="none" stroke="black" d="M2306.17,-1647.93C2340.29,-1637.82 2387.96,-1623.7 2435.35,-1609.66"/>
<polygon fill="black" stroke="black" points="2436.04,-1613.1 2444.64,-1606.9 2434.05,-1606.39 2436.04,-1613.1"/>
</g>
<!-- ExecuteUbergraph_Lore_Container_DamageType__546 -->
<g id="node18" class="node">
<title>ExecuteUbergraph_Lore_Container_DamageType__546</title>
<polygon fill="#eeeeee" stroke="black" points="2476,-1925.5 2476,-1961.5 2608,-1961.5 2608,-1925.5 2476,-1925.5"/>
<text text-anchor="start" x="2484" y="-1939.8" font-family="monospace" font-size="14.00">EX_EndOfScript</text>
</g>
<!-- PreConstruct -->
<g id="node19" class="node">
<title>PreConstruct</title>
<polygon fill="#ff8888" stroke="black" points="1366,-2100.5 1366,-2153.5 1836,-2153.5 1836,-2100.5 1366,-2100.5"/>
<text text-anchor="start" x="1374" y="-2138.3" font-family="monospace" font-size="14.00">Function PreConstruct</text>
<text text-anchor="start" x="1374" y="-2123.3" font-family="monospace" font-size="14.00">  BoolProperty IsDesignTime</text>
<text text-anchor="start" x="1374" y="-2108.3" font-family="monospace" font-size="14.00">    CPF_BlueprintVisible|CPF_BlueprintReadOnly|CPF_Parm</text>
</g>
<!-- PreConstruct__0 -->
<g id="node20" class="node">
<title>PreConstruct__0</title>
<polygon fill="#eeeeee" stroke="black" points="1361.5,-1868.5 1361.5,-1906.5 1840.5,-1906.5 1840.5,-1868.5 1361.5,-1868.5"/>
<text text-anchor="start" x="1369.5" y="-1891.3" font-family="monospace" font-size="14.00">EX_LetValueOnPersistentFrame [K2Node_Event_IsDesignTime]</text>
<text text-anchor="start" x="1369.5" y="-1876.3" font-family="monospace" font-size="14.00">  EX_LocalVariable [IsDesignTime]</text>
</g>
<!-- PreConstruct&#45;&gt;PreConstruct__0 -->
<g id="edge16" class="edge">
<title>PreConstruct&#45;&gt;PreConstruct__0</title>
<path fill="none" stroke="black" d="M1601,-2100.58C1601,-2056.2 1601,-1964.84 1601,-1917.85"/>
<polygon fill="black" stroke="black" points="1604.5,-1917.89 1601,-1907.89 1597.5,-1917.89 1604.5,-1917.89"/>
</g>
<!-- PreConstruct__18 -->
<g id="node21" class="node">
<title>PreConstruct__18</title>
<polygon fill="#eeeeee" stroke="black" points="1180,-1756.5 1180,-1794.5 2022,-1794.5 2022,-1756.5 1180,-1756.5"/>
<text text-anchor="start" x="1188" y="-1779.3" font-family="monospace" font-size="14.00">EX_LocalFinalFunction export Lore_Container_DamageType_C&#45;&gt;ExecuteUbergraph_Lore_Container_DamageType</text>
<text text-anchor="start" x="1188" y="-1764.3" font-family="monospace" font-size="14.00">  EX_IntConst 539</text>
</g>
<!-- PreConstruct__0&#45;&gt;PreConstruct__18 -->
<g id="edge17" class="edge">
<title>PreConstruct__0&#45;&gt;PreConstruct__18</title>
<path fill="none" stroke="black" d="M1601,-1868.83C1601,-1851.85 1601,-1825.88 1601,-1805.81"/>
<polygon fill="black" stroke="black" points="1604.5,-1806.01 1601,-1796.01 1597.5,-1806.01 1604.5,-1806.01"/>
</g>
<!-- PreConstruct__18&#45;&gt;ExecuteUbergraph_Lore_Container_DamageType__539 -->
<g id="edge18" class="edge">
<title>PreConstruct__18:e&#45;&gt;ExecuteUbergraph_Lore_Container_DamageType__539</title>
<path fill="none" stroke="red" d="M2023,-1775.5C2032.37,-1775.5 2024.36,-1762.61 2031,-1756 2076.18,-1711.02 2146.43,-1687.3 2196.6,-1675.39"/>
<polygon fill="none" stroke="red" points="2197.17,-1678.85 2206.15,-1673.22 2195.62,-1672.02 2197.17,-1678.85"/>
</g>
<!-- PreConstruct__33 -->
<g id="node22" class="node">
<title>PreConstruct__33</title>
<polygon fill="#eeeeee" stroke="black" points="1543,-1644.5 1543,-1682.5 1659,-1682.5 1659,-1644.5 1543,-1644.5"/>
<text text-anchor="start" x="1551" y="-1667.3" font-family="monospace" font-size="14.00">EX_Return</text>
<text text-anchor="start" x="1551" y="-1652.3" font-family="monospace" font-size="14.00">  EX_Nothing</text>
</g>
<!-- PreConstruct__18&#45;&gt;PreConstruct__33 -->
<g id="edge19" class="edge">
<title>PreConstruct__18&#45;&gt;PreConstruct__33</title>
<path fill="none" stroke="black" d="M1601,-1756.83C1601,-1739.85 1601,-1713.88 1601,-1693.81"/>
<polygon fill="black" stroke="black" points="1604.5,-1694.01 1601,-1684.01 1597.5,-1694.01 1604.5,-1694.01"/>
</g>
<!-- PreConstruct__35 -->
<g id="node23" class="node">
<title>PreConstruct__35</title>
<polygon fill="#eeeeee" stroke="black" points="2476,-1813.5 2476,-1849.5 2608,-1849.5 2608,-1813.5 2476,-1813.5"/>
<text text-anchor="start" x="2484" y="-1827.8" font-family="monospace" font-size="14.00">EX_EndOfScript</text>
</g>
<!-- SetData -->
<g id="node24" class="node">
<title>SetData</title>
<polygon fill="#ff8888" stroke="black" points="2226,-2100.5 2226,-2153.5 2696,-2153.5 2696,-2100.5 2226,-2100.5"/>
<text text-anchor="start" x="2234" y="-2138.3" font-family="monospace" font-size="14.00">Function SetData</text>
<text text-anchor="start" x="2234" y="-2123.3" font-family="monospace" font-size="14.00">  StructProperty Damage Description</text>
<text text-anchor="start" x="2234" y="-2108.3" font-family="monospace" font-size="14.00">    CPF_BlueprintVisible|CPF_BlueprintReadOnly|CPF_Parm</text>
</g>
<!-- SetData__0 -->
<g id="node25" class="node">
<title>SetData__0</title>
<polygon fill="#eeeeee" stroke="black" points="2172,-1868.5 2172,-1906.5 2750,-1906.5 2750,-1868.5 2172,-1868.5"/>
<text text-anchor="start" x="2180" y="-1891.3" font-family="monospace" font-size="14.00">EX_LetValueOnPersistentFrame [K2Node_CustomEvent_Damage_Description]</text>
<text text-anchor="start" x="2180" y="-1876.3" font-family="monospace" font-size="14.00">  EX_LocalVariable [Damage Description]</text>
</g>
<!-- SetData&#45;&gt;SetData__0 -->
<g id="edge20" class="edge">
<title>SetData&#45;&gt;SetData__0</title>
<path fill="none" stroke="black" d="M2461,-2100.58C2461,-2056.2 2461,-1964.84 2461,-1917.85"/>
<polygon fill="black" stroke="black" points="2464.5,-1917.89 2461,-1907.89 2457.5,-1917.89 2464.5,-1917.89"/>
</g>
<!-- SetData__18 -->
<g id="node26" class="node">
<title>SetData__18</title>
<polygon fill="#eeeeee" stroke="black" points="2040,-1756.5 2040,-1794.5 2882,-1794.5 2882,-1756.5 2040,-1756.5"/>
<text text-anchor="start" x="2048" y="-1779.3" font-family="monospace" font-size="14.00">EX_LocalFinalFunction export Lore_Container_DamageType_C&#45;&gt;ExecuteUbergraph_Lore_Container_DamageType</text>
<text text-anchor="start" x="2048" y="-1764.3" font-family="monospace" font-size="14.00">  EX_IntConst 10</text>
</g>
<!-- SetData__0&#45;&gt;SetData__18 -->
<g id="edge21" class="edge">
<title>SetData__0&#45;&gt;SetData__18</title>
<path fill="none" stroke="black" d="M2461,-1868.83C2461,-1851.85 2461,-1825.88 2461,-1805.81"/>
<polygon fill="black" stroke="black" points="2464.5,-1806.01 2461,-1796.01 2457.5,-1806.01 2464.5,-1806.01"/>
</g>
<!-- SetData__18&#45;&gt;ExecuteUbergraph_Lore_Container_DamageType__10 -->
<g id="edge22" class="edge">
<title>SetData__18:e&#45;&gt;ExecuteUbergraph_Lore_Container_DamageType__10</title>
<path fill="none" stroke="red" d="M2883,-1775.5C2891.68,-1775.5 2887.93,-1762.33 2882,-1756 2858.44,-1730.86 2757.39,-1755.98 2728,-1738 2682.4,-1710.11 2650.37,-1657.6 2630.94,-1616.55"/>
<polygon fill="none" stroke="red" points="2634.13,-1615.12 2626.78,-1607.49 2627.77,-1618.04 2634.13,-1615.12"/>
</g>
<!-- SetData__33 -->
<g id="node27" class="node">
<title>SetData__33</title>
<polygon fill="#eeeeee" stroke="black" points="2403,-1644.5 2403,-1682.5 2519,-1682.5 2519,-1644.5 2403,-1644.5"/>
<text text-anchor="start" x="2411" y="-1667.3" font-family="monospace" font-size="14.00">EX_Return</text>
<text text-anchor="start" x="2411" y="-1652.3" font-family="monospace" font-size="14.00">  EX_Nothing</text>
</g>
<!-- SetData__18&#45;&gt;SetData__33 -->
<g id="edge23" class="edge">
<title>SetData__18&#45;&gt;SetData__33</title>
<path fill="none" stroke="black" d="M2461,-1756.83C2461,-1739.85 2461,-1713.88 2461,-1693.81"/>
<polygon fill="black" stroke="black" points="2464.5,-1694.01 2461,-1684.01 2457.5,-1694.01 2464.5,-1694.01"/>
</g>
<!-- SetData__35 -->
<g id="node28" class="node">
<title>SetData__35</title>
<polygon fill="#eeeeee" stroke="black" points="2729,-1701.5 2729,-1737.5 2861,-1737.5 2861,-1701.5 2729,-1701.5"/>
<text text-anchor="start" x="2737" y="-1715.8" font-family="monospace" font-size="14.00">EX_EndOfScript</text>
</g>
</g>
</svg>
