<?xml version="1.0" encoding="UTF-8" standalone="no"?>
<!DOCTYPE svg PUBLIC "-//W3C//DTD SVG 1.1//EN"
 "http://www.w3.org/Graphics/SVG/1.1/DTD/svg11.dtd">
<!-- Generated by graphviz version 7.0.1 (0)
 -->
<!-- Pages: 1 -->
<svg width="2076pt" height="913pt"
 viewBox="0.00 0.00 2076.00 913.00" xmlns="http://www.w3.org/2000/svg" xmlns:xlink="http://www.w3.org/1999/xlink">
<g id="graph0" class="graph" transform="scale(1 1) rotate(0) translate(4 909)">
<polygon fill="white" stroke="none" points="-4,4 -4,-909 2072,-909 2072,4 -4,4"/>
<!-- ABP_Spider_Boss_Twin_C -->
<g id="node1" class="node">
<title>ABP_Spider_Boss_Twin_C</title>
<polygon fill="#88ff88" stroke="black" points="0,-596.5 0,-904.5 652,-904.5 652,-596.5 0,-596.5"/>
<text text-anchor="start" x="8" y="-889.3" font-family="monospace" font-size="14.00">ClassExport: ABP_Spider_Boss_Twin_C</text>
<text text-anchor="start" x="8" y="-874.3" font-family="monospace" font-size="14.00">  SuperStruct: import /Script/FSD&#45;&gt;SpiderAnimInstance</text>
<text text-anchor="start" x="8" y="-859.3" font-family="monospace" font-size="14.00">  Properties:</text>
<text text-anchor="start" x="8" y="-844.3" font-family="monospace" font-size="14.00">    StructProperty UberGraphFrame</text>
<text text-anchor="start" x="8" y="-829.3" font-family="monospace" font-size="14.00">      CPF_Transient|CPF_DuplicateTransient</text>
<text text-anchor="start" x="8" y="-814.3" font-family="monospace" font-size="14.00">    StructProperty AnimGraphNode_Slot_2</text>
<text text-anchor="start" x="8" y="-799.3" font-family="monospace" font-size="14.00">    StructProperty AnimGraphNode_Slot_1</text>
<text text-anchor="start" x="8" y="-784.3" font-family="monospace" font-size="14.00">    StructProperty AnimGraphNode_Slot</text>
<text text-anchor="start" x="8" y="-769.3" font-family="monospace" font-size="14.00">    StructProperty AnimGraphNode_BlendListByBool_1</text>
<text text-anchor="start" x="8" y="-754.3" font-family="monospace" font-size="14.00">    StructProperty AnimGraphNode_SequencePlayer</text>
<text text-anchor="start" x="8" y="-739.3" font-family="monospace" font-size="14.00">    StructProperty AnimGraphNode_Root</text>
<text text-anchor="start" x="8" y="-724.3" font-family="monospace" font-size="14.00">    StructProperty AnimGraphNode_LinkedAnimGraph</text>
<text text-anchor="start" x="8" y="-709.3" font-family="monospace" font-size="14.00">    StructProperty AnimGraphNode_BlendListByBool</text>
<text text-anchor="start" x="8" y="-694.3" font-family="monospace" font-size="14.00">    StructProperty AnimGraphNode_LocalRefPose</text>
<text text-anchor="start" x="8" y="-679.3" font-family="monospace" font-size="14.00">    FloatProperty __CustomProperty_MeshScale_2736D6F143DF40E6119A3C80493609FF</text>
<text text-anchor="start" x="8" y="-664.3" font-family="monospace" font-size="14.00">    FloatProperty __CustomProperty_MeshScale_0FCCB9C04D0127FC79759792C14FFAA1</text>
<text text-anchor="start" x="8" y="-649.3" font-family="monospace" font-size="14.00">    BoolProperty PlayDeath</text>
<text text-anchor="start" x="8" y="-634.3" font-family="monospace" font-size="14.00">      CPF_Edit|CPF_BlueprintVisible|CPF_DisableEditOnInstance</text>
<text text-anchor="start" x="8" y="-619.3" font-family="monospace" font-size="14.00">    ObjectProperty DeathAnimation</text>
<text text-anchor="start" x="8" y="-604.3" font-family="monospace" font-size="14.00">      CPF_Edit|CPF_BlueprintVisible|CPF_DisableEditOnInstance</text>
</g>
<!-- ExecuteUbergraph_ABP_Spider_Boss_Twin -->
<g id="node2" class="node">
<title>ExecuteUbergraph_ABP_Spider_Boss_Twin</title>
<polygon fill="#ff8888" stroke="black" points="670,-716.5 670,-784.5 1140,-784.5 1140,-716.5 670,-716.5"/>
<text text-anchor="start" x="678" y="-769.3" font-family="monospace" font-size="14.00">Function ExecuteUbergraph_ABP_Spider_Boss_Twin</text>
<text text-anchor="start" x="678" y="-754.3" font-family="monospace" font-size="14.00">  IntProperty EntryPoint</text>
<text text-anchor="start" x="678" y="-739.3" font-family="monospace" font-size="14.00">    CPF_BlueprintVisible|CPF_BlueprintReadOnly|CPF_Parm</text>
<text text-anchor="start" x="678" y="-724.3" font-family="monospace" font-size="14.00">  ObjectProperty K2Node_Event_animation</text>
</g>
<!-- ExecuteUbergraph_ABP_Spider_Boss_Twin__0 -->
<g id="node3" class="node">
<title>ExecuteUbergraph_ABP_Spider_Boss_Twin__0</title>
<polygon fill="#eeeeee" stroke="black" points="769,-499 769,-537 1041,-537 1041,-499 769,-499"/>
<text text-anchor="start" x="777" y="-521.8" font-family="monospace" font-size="14.00">EX_ComputedJump</text>
<text text-anchor="start" x="777" y="-506.8" font-family="monospace" font-size="14.00">  EX_LocalVariable [EntryPoint]</text>
</g>
<!-- ExecuteUbergraph_ABP_Spider_Boss_Twin&#45;&gt;ExecuteUbergraph_ABP_Spider_Boss_Twin__0 -->
<g id="edge1" class="edge">
<title>ExecuteUbergraph_ABP_Spider_Boss_Twin&#45;&gt;ExecuteUbergraph_ABP_Spider_Boss_Twin__0</title>
<path fill="none" stroke="black" d="M905,-716.96C905,-671.91 905,-591.23 905,-548.09"/>
<polygon fill="black" stroke="black" points="908.5,-548.24 905,-538.24 901.5,-548.24 908.5,-548.24"/>
</g>
<!-- ExecuteUbergraph_ABP_Spider_Boss_Twin__10 -->
<g id="node4" class="node">
<title>ExecuteUbergraph_ABP_Spider_Boss_Twin__10</title>
<polygon fill="#eeeeee" stroke="black" points="1628.5,-148.5 1628.5,-201.5 1917.5,-201.5 1917.5,-148.5 1628.5,-148.5"/>
<text text-anchor="start" x="1636.5" y="-186.3" font-family="monospace" font-size="14.00">EX_LetBool</text>
<text text-anchor="start" x="1636.5" y="-171.3" font-family="monospace" font-size="14.00">  EX_InstanceVariable [PlayDeath]</text>
<text text-anchor="start" x="1636.5" y="-156.3" font-family="monospace" font-size="14.00">  EX_False</text>
</g>
<!-- ExecuteUbergraph_ABP_Spider_Boss_Twin__21 -->
<g id="node5" class="node">
<title>ExecuteUbergraph_ABP_Spider_Boss_Twin__21</title>
<polygon fill="#eeeeee" stroke="black" points="1723.5,-75.5 1723.5,-111.5 1822.5,-111.5 1822.5,-75.5 1723.5,-75.5"/>
<text text-anchor="start" x="1731.5" y="-89.8" font-family="monospace" font-size="14.00">EX_Jump 50</text>
</g>
<!-- ExecuteUbergraph_ABP_Spider_Boss_Twin__10&#45;&gt;ExecuteUbergraph_ABP_Spider_Boss_Twin__21 -->
<g id="edge2" class="edge">
<title>ExecuteUbergraph_ABP_Spider_Boss_Twin__10&#45;&gt;ExecuteUbergraph_ABP_Spider_Boss_Twin__21</title>
<path fill="none" stroke="black" d="M1773,-148.85C1773,-140.56 1773,-131.29 1773,-122.79"/>
<polygon fill="black" stroke="black" points="1776.5,-122.97 1773,-112.97 1769.5,-122.97 1776.5,-122.97"/>
</g>
<!-- ExecuteUbergraph_ABP_Spider_Boss_Twin__50 -->
<g id="node8" class="node">
<title>ExecuteUbergraph_ABP_Spider_Boss_Twin__50</title>
<polygon fill="#eeeeee" stroke="black" points="1715,-0.5 1715,-38.5 1831,-38.5 1831,-0.5 1715,-0.5"/>
<text text-anchor="start" x="1723" y="-23.3" font-family="monospace" font-size="14.00">EX_Return</text>
<text text-anchor="start" x="1723" y="-8.3" font-family="monospace" font-size="14.00">  EX_Nothing</text>
</g>
<!-- ExecuteUbergraph_ABP_Spider_Boss_Twin__21&#45;&gt;ExecuteUbergraph_ABP_Spider_Boss_Twin__50 -->
<g id="edge3" class="edge">
<title>ExecuteUbergraph_ABP_Spider_Boss_Twin__21&#45;&gt;ExecuteUbergraph_ABP_Spider_Boss_Twin__50</title>
<path fill="none" stroke="black" d="M1773,-75.8C1773,-68.09 1773,-58.7 1773,-49.86"/>
<polygon fill="black" stroke="black" points="1776.5,-49.88 1773,-39.88 1769.5,-49.88 1776.5,-49.88"/>
</g>
<!-- ExecuteUbergraph_ABP_Spider_Boss_Twin__26 -->
<g id="node6" class="node">
<title>ExecuteUbergraph_ABP_Spider_Boss_Twin__26</title>
<polygon fill="#eeeeee" stroke="black" points="1587.5,-311.5 1587.5,-364.5 1958.5,-364.5 1958.5,-311.5 1587.5,-311.5"/>
<text text-anchor="start" x="1595.5" y="-349.3" font-family="monospace" font-size="14.00">EX_LetObj</text>
<text text-anchor="start" x="1595.5" y="-334.3" font-family="monospace" font-size="14.00">  EX_InstanceVariable [DeathAnimation]</text>
<text text-anchor="start" x="1595.5" y="-319.3" font-family="monospace" font-size="14.00">  EX_LocalVariable [K2Node_Event_animation]</text>
</g>
<!-- ExecuteUbergraph_ABP_Spider_Boss_Twin__45 -->
<g id="node7" class="node">
<title>ExecuteUbergraph_ABP_Spider_Boss_Twin__45</title>
<polygon fill="#eeeeee" stroke="black" points="1723.5,-238.5 1723.5,-274.5 1822.5,-274.5 1822.5,-238.5 1723.5,-238.5"/>
<text text-anchor="start" x="1731.5" y="-252.8" font-family="monospace" font-size="14.00">EX_Jump 10</text>
</g>
<!-- ExecuteUbergraph_ABP_Spider_Boss_Twin__26&#45;&gt;ExecuteUbergraph_ABP_Spider_Boss_Twin__45 -->
<g id="edge4" class="edge">
<title>ExecuteUbergraph_ABP_Spider_Boss_Twin__26&#45;&gt;ExecuteUbergraph_ABP_Spider_Boss_Twin__45</title>
<path fill="none" stroke="black" d="M1773,-311.85C1773,-303.56 1773,-294.29 1773,-285.79"/>
<polygon fill="black" stroke="black" points="1776.5,-285.97 1773,-275.97 1769.5,-285.97 1776.5,-285.97"/>
</g>
<!-- ExecuteUbergraph_ABP_Spider_Boss_Twin__45&#45;&gt;ExecuteUbergraph_ABP_Spider_Boss_Twin__10 -->
<g id="edge5" class="edge">
<title>ExecuteUbergraph_ABP_Spider_Boss_Twin__45&#45;&gt;ExecuteUbergraph_ABP_Spider_Boss_Twin__10</title>
<path fill="none" stroke="black" d="M1773,-238.64C1773,-231.01 1773,-221.68 1773,-212.57"/>
<polygon fill="black" stroke="black" points="1776.5,-212.81 1773,-202.81 1769.5,-212.81 1776.5,-212.81"/>
</g>
<!-- ExecuteUbergraph_ABP_Spider_Boss_Twin__52 -->
<g id="node9" class="node">
<title>ExecuteUbergraph_ABP_Spider_Boss_Twin__52</title>
<polygon fill="#eeeeee" stroke="black" points="1841,-238.5 1841,-274.5 1973,-274.5 1973,-238.5 1841,-238.5"/>
<text text-anchor="start" x="1849" y="-252.8" font-family="monospace" font-size="14.00">EX_EndOfScript</text>
</g>
<!-- SetDeathAnimation -->
<g id="node10" class="node">
<title>SetDeathAnimation</title>
<polygon fill="#ff8888" stroke="black" points="1158,-724 1158,-777 1628,-777 1628,-724 1158,-724"/>
<text text-anchor="start" x="1166" y="-761.8" font-family="monospace" font-size="14.00">Function SetDeathAnimation</text>
<text text-anchor="start" x="1166" y="-746.8" font-family="monospace" font-size="14.00">  ObjectProperty animation</text>
<text text-anchor="start" x="1166" y="-731.8" font-family="monospace" font-size="14.00">    CPF_BlueprintVisible|CPF_BlueprintReadOnly|CPF_Parm</text>
</g>
<!-- SetDeathAnimation__0 -->
<g id="node11" class="node">
<title>SetDeathAnimation__0</title>
<polygon fill="#eeeeee" stroke="black" points="1166,-499 1166,-537 1620,-537 1620,-499 1166,-499"/>
<text text-anchor="start" x="1174" y="-521.8" font-family="monospace" font-size="14.00">EX_LetValueOnPersistentFrame [K2Node_Event_animation]</text>
<text text-anchor="start" x="1174" y="-506.8" font-family="monospace" font-size="14.00">  EX_LocalVariable [animation]</text>
</g>
<!-- SetDeathAnimation&#45;&gt;SetDeathAnimation__0 -->
<g id="edge6" class="edge">
<title>SetDeathAnimation&#45;&gt;SetDeathAnimation__0</title>
<path fill="none" stroke="black" d="M1393,-724.39C1393,-681.43 1393,-594.02 1393,-548.32"/>
<polygon fill="black" stroke="black" points="1396.5,-548.39 1393,-538.39 1389.5,-548.39 1396.5,-548.39"/>
</g>
<!-- SetDeathAnimation__18 -->
<g id="node12" class="node">
<title>SetDeathAnimation__18</title>
<polygon fill="#eeeeee" stroke="black" points="1013.5,-401.5 1013.5,-439.5 1772.5,-439.5 1772.5,-401.5 1013.5,-401.5"/>
<text text-anchor="start" x="1021.5" y="-424.3" font-family="monospace" font-size="14.00">EX_LocalFinalFunction export ABP_Spider_Boss_Twin_C&#45;&gt;ExecuteUbergraph_ABP_Spider_Boss_Twin</text>
<text text-anchor="start" x="1021.5" y="-409.3" font-family="monospace" font-size="14.00">  EX_IntConst 26</text>
</g>
<!-- SetDeathAnimation__0&#45;&gt;SetDeathAnimation__18 -->
<g id="edge7" class="edge">
<title>SetDeathAnimation__0&#45;&gt;SetDeathAnimation__18</title>
<path fill="none" stroke="black" d="M1393,-499.04C1393,-485.43 1393,-466.45 1393,-450.68"/>
<polygon fill="black" stroke="black" points="1396.5,-450.9 1393,-440.9 1389.5,-450.9 1396.5,-450.9"/>
</g>
<!-- SetDeathAnimation__18&#45;&gt;ExecuteUbergraph_ABP_Spider_Boss_Twin__26 -->
<g id="edge8" class="edge">
<title>SetDeathAnimation__18:e&#45;&gt;ExecuteUbergraph_ABP_Spider_Boss_Twin__26</title>
<path fill="none" stroke="red" d="M1774,-420.5C1783.66,-420.5 1782.73,-397.34 1779.77,-375.71"/>
<polygon fill="none" stroke="red" points="1783.23,-375.19 1778.25,-365.84 1776.31,-376.25 1783.23,-375.19"/>
</g>
<!-- SetDeathAnimation__33 -->
<g id="node13" class="node">
<title>SetDeathAnimation__33</title>
<polygon fill="#eeeeee" stroke="black" points="1335,-319 1335,-357 1451,-357 1451,-319 1335,-319"/>
<text text-anchor="start" x="1343" y="-341.8" font-family="monospace" font-size="14.00">EX_Return</text>
<text text-anchor="start" x="1343" y="-326.8" font-family="monospace" font-size="14.00">  EX_Nothing</text>
</g>
<!-- SetDeathAnimation__18&#45;&gt;SetDeathAnimation__33 -->
<g id="edge9" class="edge">
<title>SetDeathAnimation__18&#45;&gt;SetDeathAnimation__33</title>
<path fill="none" stroke="black" d="M1393,-401.63C1393,-391.84 1393,-379.45 1393,-368.28"/>
<polygon fill="black" stroke="black" points="1396.5,-368.33 1393,-358.33 1389.5,-368.33 1396.5,-368.33"/>
</g>
<!-- SetDeathAnimation__35 -->
<g id="node14" class="node">
<title>SetDeathAnimation__35</title>
<polygon fill="#eeeeee" stroke="black" points="1936,-157 1936,-193 2068,-193 2068,-157 1936,-157"/>
<text text-anchor="start" x="1944" y="-171.3" font-family="monospace" font-size="14.00">EX_EndOfScript</text>
</g>
<!-- AnimGraph -->
<g id="node15" class="node">
<title>AnimGraph</title>
<polygon fill="#ff8888" stroke="black" points="1733.5,-724 1733.5,-777 1964.5,-777 1964.5,-724 1733.5,-724"/>
<text text-anchor="start" x="1741.5" y="-761.8" font-family="monospace" font-size="14.00">Function AnimGraph</text>
<text text-anchor="start" x="1741.5" y="-746.8" font-family="monospace" font-size="14.00">  StructProperty AnimGraph</text>
<text text-anchor="start" x="1741.5" y="-731.8" font-family="monospace" font-size="14.00">    CPF_Parm|CPF_OutParm</text>
</g>
<!-- AnimGraph__0 -->
<g id="node16" class="node">
<title>AnimGraph__0</title>
<polygon fill="#eeeeee" stroke="black" points="1642.5,-476.5 1642.5,-559.5 2055.5,-559.5 2055.5,-476.5 1642.5,-476.5"/>
<text text-anchor="start" x="1650.5" y="-544.3" font-family="monospace" font-size="14.00">EX_Let</text>
<text text-anchor="start" x="1650.5" y="-529.3" font-family="monospace" font-size="14.00">  EX_LocalOutVariable</text>
<text text-anchor="start" x="1650.5" y="-514.3" font-family="monospace" font-size="14.00">    [AnimGraph]</text>
<text text-anchor="start" x="1650.5" y="-499.3" font-family="monospace" font-size="14.00">  EX_StructConst import /Script/Engine&#45;&gt;PoseLink</text>
<text text-anchor="start" x="1650.5" y="-484.3" font-family="monospace" font-size="14.00">    EX_IntConst &#45;1</text>
</g>
<!-- AnimGraph&#45;&gt;AnimGraph__0 -->
<g id="edge10" class="edge">
<title>AnimGraph&#45;&gt;AnimGraph__0</title>
<path fill="none" stroke="black" d="M1849,-724.39C1849,-687.64 1849,-618.35 1849,-570.49"/>
<polygon fill="black" stroke="black" points="1852.5,-570.63 1849,-560.63 1845.5,-570.63 1852.5,-570.63"/>
</g>
<!-- AnimGraph__37 -->
<g id="node17" class="node">
<title>AnimGraph__37</title>
<polygon fill="#eeeeee" stroke="black" points="1791,-401.5 1791,-439.5 1907,-439.5 1907,-401.5 1791,-401.5"/>
<text text-anchor="start" x="1799" y="-424.3" font-family="monospace" font-size="14.00">EX_Return</text>
<text text-anchor="start" x="1799" y="-409.3" font-family="monospace" font-size="14.00">  EX_Nothing</text>
</g>
<!-- AnimGraph__0&#45;&gt;AnimGraph__37 -->
<g id="edge11" class="edge">
<title>AnimGraph__0&#45;&gt;AnimGraph__37</title>
<path fill="none" stroke="black" d="M1849,-476.78C1849,-468.01 1849,-458.89 1849,-450.65"/>
<polygon fill="black" stroke="black" points="1852.5,-450.86 1849,-440.86 1845.5,-450.86 1852.5,-450.86"/>
</g>
<!-- AnimGraph__39 -->
<g id="node18" class="node">
<title>AnimGraph__39</title>
<polygon fill="#eeeeee" stroke="black" points="1841,-75.5 1841,-111.5 1973,-111.5 1973,-75.5 1841,-75.5"/>
<text text-anchor="start" x="1849" y="-89.8" font-family="monospace" font-size="14.00">EX_EndOfScript</text>
</g>
</g>
</svg>
