<?xml version="1.0" encoding="UTF-8" standalone="no"?>
<!DOCTYPE svg PUBLIC "-//W3C//DTD SVG 1.1//EN"
 "http://www.w3.org/Graphics/SVG/1.1/DTD/svg11.dtd">
<!-- Generated by graphviz version 7.0.1 (0)
 -->
<!-- Pages: 1 -->
<svg width="2881pt" height="463pt"
 viewBox="0.00 0.00 2880.50 463.00" xmlns="http://www.w3.org/2000/svg" xmlns:xlink="http://www.w3.org/1999/xlink">
<g id="graph0" class="graph" transform="scale(1 1) rotate(0) translate(4 459)">
<polygon fill="white" stroke="none" points="-4,4 -4,-459 2876.5,-459 2876.5,4 -4,4"/>
<!-- AIC_Spider_Boss_TwinB_C -->
<g id="node1" class="node">
<title>AIC_Spider_Boss_TwinB_C</title>
<polygon fill="#88ff88" stroke="black" points="0,-371.5 0,-454.5 957,-454.5 957,-371.5 0,-371.5"/>
<text text-anchor="start" x="8" y="-439.3" font-family="monospace" font-size="14.00">ClassExport: AIC_Spider_Boss_TwinB_C</text>
<text text-anchor="start" x="8" y="-424.3" font-family="monospace" font-size="14.00">  SuperStruct: import /Game/Enemies/Spider/TankBoss/BossTwins/AIC_Spider_Boss_TwinBase&#45;&gt;AIC_Spider_Boss_TwinBase_C</text>
<text text-anchor="start" x="8" y="-409.3" font-family="monospace" font-size="14.00">  Properties:</text>
<text text-anchor="start" x="8" y="-394.3" font-family="monospace" font-size="14.00">    StructProperty UberGraphFrame</text>
<text text-anchor="start" x="8" y="-379.3" font-family="monospace" font-size="14.00">      CPF_Transient|CPF_DuplicateTransient</text>
</g>
<!-- ExecuteUbergraph_AIC_Spider_Boss_TwinB -->
<g id="node2" class="node">
<title>ExecuteUbergraph_AIC_Spider_Boss_TwinB</title>
<polygon fill="#ff8888" stroke="black" points="975.5,-386.5 975.5,-439.5 1445.5,-439.5 1445.5,-386.5 975.5,-386.5"/>
<text text-anchor="start" x="983.5" y="-424.3" font-family="monospace" font-size="14.00">Function ExecuteUbergraph_AIC_Spider_Boss_TwinB</text>
<text text-anchor="start" x="983.5" y="-409.3" font-family="monospace" font-size="14.00">  IntProperty EntryPoint</text>
<text text-anchor="start" x="983.5" y="-394.3" font-family="monospace" font-size="14.00">    CPF_BlueprintVisible|CPF_BlueprintReadOnly|CPF_Parm</text>
</g>
<!-- ExecuteUbergraph_AIC_Spider_Boss_TwinB__0 -->
<g id="node3" class="node">
<title>ExecuteUbergraph_AIC_Spider_Boss_TwinB__0</title>
<polygon fill="#eeeeee" stroke="black" points="1074.5,-296.5 1074.5,-334.5 1346.5,-334.5 1346.5,-296.5 1074.5,-296.5"/>
<text text-anchor="start" x="1082.5" y="-319.3" font-family="monospace" font-size="14.00">EX_ComputedJump</text>
<text text-anchor="start" x="1082.5" y="-304.3" font-family="monospace" font-size="14.00">  EX_LocalVariable [EntryPoint]</text>
</g>
<!-- ExecuteUbergraph_AIC_Spider_Boss_TwinB&#45;&gt;ExecuteUbergraph_AIC_Spider_Boss_TwinB__0 -->
<g id="edge1" class="edge">
<title>ExecuteUbergraph_AIC_Spider_Boss_TwinB&#45;&gt;ExecuteUbergraph_AIC_Spider_Boss_TwinB__0</title>
<path fill="none" stroke="black" d="M1210.5,-386.66C1210.5,-374.05 1210.5,-358.75 1210.5,-345.66"/>
<polygon fill="black" stroke="black" points="1214,-345.91 1210.5,-335.91 1207,-345.91 1214,-345.91"/>
</g>
<!-- ExecuteUbergraph_AIC_Spider_Boss_TwinB__10 -->
<g id="node4" class="node">
<title>ExecuteUbergraph_AIC_Spider_Boss_TwinB__10</title>
<polygon fill="#eeeeee" stroke="black" points="1559,-148.5 1559,-184.5 2722,-184.5 2722,-148.5 1559,-148.5"/>
<text text-anchor="start" x="1567" y="-162.8" font-family="monospace" font-size="14.00">EX_LocalFinalFunction import /Game/Enemies/Spider/TankBoss/BossTwins/AIC_Spider_Boss_TwinBase&#45;&gt;AIC_Spider_Boss_TwinBase_C&#45;&gt;ReceiveBeginPlay</text>
</g>
<!-- ExecuteUbergraph_AIC_Spider_Boss_TwinB__20 -->
<g id="node5" class="node">
<title>ExecuteUbergraph_AIC_Spider_Boss_TwinB__20</title>
<polygon fill="#eeeeee" stroke="black" points="2091,-75.5 2091,-111.5 2190,-111.5 2190,-75.5 2091,-75.5"/>
<text text-anchor="start" x="2099" y="-89.8" font-family="monospace" font-size="14.00">EX_Jump 30</text>
</g>
<!-- ExecuteUbergraph_AIC_Spider_Boss_TwinB__10&#45;&gt;ExecuteUbergraph_AIC_Spider_Boss_TwinB__20 -->
<g id="edge2" class="edge">
<title>ExecuteUbergraph_AIC_Spider_Boss_TwinB__10&#45;&gt;ExecuteUbergraph_AIC_Spider_Boss_TwinB__20</title>
<path fill="none" stroke="black" d="M2140.5,-148.67C2140.5,-140.89 2140.5,-131.44 2140.5,-122.62"/>
<polygon fill="black" stroke="black" points="2144,-122.72 2140.5,-112.72 2137,-122.72 2144,-122.72"/>
</g>
<!-- ExecuteUbergraph_AIC_Spider_Boss_TwinB__30 -->
<g id="node7" class="node">
<title>ExecuteUbergraph_AIC_Spider_Boss_TwinB__30</title>
<polygon fill="#eeeeee" stroke="black" points="2082.5,-0.5 2082.5,-38.5 2198.5,-38.5 2198.5,-0.5 2082.5,-0.5"/>
<text text-anchor="start" x="2090.5" y="-23.3" font-family="monospace" font-size="14.00">EX_Return</text>
<text text-anchor="start" x="2090.5" y="-8.3" font-family="monospace" font-size="14.00">  EX_Nothing</text>
</g>
<!-- ExecuteUbergraph_AIC_Spider_Boss_TwinB__20&#45;&gt;ExecuteUbergraph_AIC_Spider_Boss_TwinB__30 -->
<g id="edge3" class="edge">
<title>ExecuteUbergraph_AIC_Spider_Boss_TwinB__20&#45;&gt;ExecuteUbergraph_AIC_Spider_Boss_TwinB__30</title>
<path fill="none" stroke="black" d="M2140.5,-75.8C2140.5,-68.09 2140.5,-58.7 2140.5,-49.86"/>
<polygon fill="black" stroke="black" points="2144,-49.88 2140.5,-39.88 2137,-49.88 2144,-49.88"/>
</g>
<!-- ExecuteUbergraph_AIC_Spider_Boss_TwinB__25 -->
<g id="node6" class="node">
<title>ExecuteUbergraph_AIC_Spider_Boss_TwinB__25</title>
<polygon fill="#eeeeee" stroke="black" points="2091,-222.5 2091,-258.5 2190,-258.5 2190,-222.5 2091,-222.5"/>
<text text-anchor="start" x="2099" y="-236.8" font-family="monospace" font-size="14.00">EX_Jump 10</text>
</g>
<!-- ExecuteUbergraph_AIC_Spider_Boss_TwinB__25&#45;&gt;ExecuteUbergraph_AIC_Spider_Boss_TwinB__10 -->
<g id="edge4" class="edge">
<title>ExecuteUbergraph_AIC_Spider_Boss_TwinB__25&#45;&gt;ExecuteUbergraph_AIC_Spider_Boss_TwinB__10</title>
<path fill="none" stroke="black" d="M2140.5,-222.8C2140.5,-214.71 2140.5,-204.78 2140.5,-195.57"/>
<polygon fill="black" stroke="black" points="2144,-195.62 2140.5,-185.62 2137,-195.62 2144,-195.62"/>
</g>
<!-- ExecuteUbergraph_AIC_Spider_Boss_TwinB__32 -->
<g id="node8" class="node">
<title>ExecuteUbergraph_AIC_Spider_Boss_TwinB__32</title>
<polygon fill="#eeeeee" stroke="black" points="2740.5,-148.5 2740.5,-184.5 2872.5,-184.5 2872.5,-148.5 2740.5,-148.5"/>
<text text-anchor="start" x="2748.5" y="-162.8" font-family="monospace" font-size="14.00">EX_EndOfScript</text>
</g>
<!-- ReceiveBeginPlay -->
<g id="node9" class="node">
<title>ReceiveBeginPlay</title>
<polygon fill="#ff8888" stroke="black" points="1641,-395 1641,-431 1864,-431 1864,-395 1641,-395"/>
<text text-anchor="start" x="1649" y="-409.3" font-family="monospace" font-size="14.00">Function ReceiveBeginPlay</text>
</g>
<!-- ReceiveBeginPlay__0 -->
<g id="node10" class="node">
<title>ReceiveBeginPlay__0</title>
<polygon fill="#eeeeee" stroke="black" points="1364.5,-296.5 1364.5,-334.5 2140.5,-334.5 2140.5,-296.5 1364.5,-296.5"/>
<text text-anchor="start" x="1372.5" y="-319.3" font-family="monospace" font-size="14.00">EX_LocalFinalFunction export AIC_Spider_Boss_TwinB_C&#45;&gt;ExecuteUbergraph_AIC_Spider_Boss_TwinB</text>
<text text-anchor="start" x="1372.5" y="-304.3" font-family="monospace" font-size="14.00">  EX_IntConst 25</text>
</g>
<!-- ReceiveBeginPlay&#45;&gt;ReceiveBeginPlay__0 -->
<g id="edge5" class="edge">
<title>ReceiveBeginPlay&#45;&gt;ReceiveBeginPlay__0</title>
<path fill="none" stroke="black" d="M1752.5,-395.37C1752.5,-381.6 1752.5,-361.74 1752.5,-345.39"/>
<polygon fill="black" stroke="black" points="1756,-345.75 1752.5,-335.75 1749,-345.75 1756,-345.75"/>
</g>
<!-- ReceiveBeginPlay__0&#45;&gt;ExecuteUbergraph_AIC_Spider_Boss_TwinB__25 -->
<g id="edge6" class="edge">
<title>ReceiveBeginPlay__0:e&#45;&gt;ExecuteUbergraph_AIC_Spider_Boss_TwinB__25</title>
<path fill="none" stroke="red" d="M2141.5,-315.5C2160.78,-315.5 2157.12,-290.08 2150.78,-269.04"/>
<polygon fill="none" stroke="red" points="2154.16,-268.12 2147.7,-259.73 2147.52,-270.32 2154.16,-268.12"/>
</g>
<!-- ReceiveBeginPlay__15 -->
<g id="node11" class="node">
<title>ReceiveBeginPlay__15</title>
<polygon fill="#eeeeee" stroke="black" points="1694.5,-221.5 1694.5,-259.5 1810.5,-259.5 1810.5,-221.5 1694.5,-221.5"/>
<text text-anchor="start" x="1702.5" y="-244.3" font-family="monospace" font-size="14.00">EX_Return</text>
<text text-anchor="start" x="1702.5" y="-229.3" font-family="monospace" font-size="14.00">  EX_Nothing</text>
</g>
<!-- ReceiveBeginPlay__0&#45;&gt;ReceiveBeginPlay__15 -->
<g id="edge7" class="edge">
<title>ReceiveBeginPlay__0&#45;&gt;ReceiveBeginPlay__15</title>
<path fill="none" stroke="black" d="M1752.5,-296.83C1752.5,-289 1752.5,-279.57 1752.5,-270.74"/>
<polygon fill="black" stroke="black" points="1756,-270.78 1752.5,-260.78 1749,-270.78 1756,-270.78"/>
</g>
<!-- ReceiveBeginPlay__17 -->
<g id="node12" class="node">
<title>ReceiveBeginPlay__17</title>
<polygon fill="#eeeeee" stroke="black" points="2208.5,-75.5 2208.5,-111.5 2340.5,-111.5 2340.5,-75.5 2208.5,-75.5"/>
<text text-anchor="start" x="2216.5" y="-89.8" font-family="monospace" font-size="14.00">EX_EndOfScript</text>
</g>
</g>
</svg>
