<?xml version="1.0" encoding="UTF-8" standalone="no"?>
<!DOCTYPE svg PUBLIC "-//W3C//DTD SVG 1.1//EN"
 "http://www.w3.org/Graphics/SVG/1.1/DTD/svg11.dtd">
<!-- Generated by graphviz version 7.0.1 (0)
 -->
<!-- Pages: 1 -->
<svg width="1166pt" height="1658pt"
 viewBox="0.00 0.00 1165.50 1658.00" xmlns="http://www.w3.org/2000/svg" xmlns:xlink="http://www.w3.org/1999/xlink">
<g id="graph0" class="graph" transform="scale(1 1) rotate(0) translate(4 1654)">
<polygon fill="white" stroke="none" points="-4,4 -4,-1654 1161.5,-1654 1161.5,4 -4,4"/>
<!-- DEC_IsAttackOffCooldown_C -->
<g id="node1" class="node">
<title>DEC_IsAttackOffCooldown_C</title>
<polygon fill="#88ff88" stroke="black" points="0,-1484 0,-1597 553,-1597 553,-1484 0,-1484"/>
<text text-anchor="start" x="8" y="-1581.8" font-family="monospace" font-size="14.00">ClassExport: DEC_IsAttackOffCooldown_C</text>
<text text-anchor="start" x="8" y="-1566.8" font-family="monospace" font-size="14.00">  SuperStruct: import /Script/AIModule&#45;&gt;BTDecorator_BlueprintBase</text>
<text text-anchor="start" x="8" y="-1551.8" font-family="monospace" font-size="14.00">  Properties:</text>
<text text-anchor="start" x="8" y="-1536.8" font-family="monospace" font-size="14.00">    BoolProperty Any</text>
<text text-anchor="start" x="8" y="-1521.8" font-family="monospace" font-size="14.00">      CPF_Edit|CPF_BlueprintVisible</text>
<text text-anchor="start" x="8" y="-1506.8" font-family="monospace" font-size="14.00">    NameProperty AttackName</text>
<text text-anchor="start" x="8" y="-1491.8" font-family="monospace" font-size="14.00">      CPF_Edit|CPF_BlueprintVisible</text>
</g>
<!-- PerformConditionCheckAI -->
<g id="node2" class="node">
<title>PerformConditionCheckAI</title>
<polygon fill="#ff8888" stroke="black" points="571,-1431.5 571,-1649.5 1066,-1649.5 1066,-1431.5 571,-1431.5"/>
<text text-anchor="start" x="579" y="-1634.3" font-family="monospace" font-size="14.00">Function PerformConditionCheckAI</text>
<text text-anchor="start" x="579" y="-1619.3" font-family="monospace" font-size="14.00">  ObjectProperty OwnerController</text>
<text text-anchor="start" x="579" y="-1604.3" font-family="monospace" font-size="14.00">    CPF_BlueprintVisible|CPF_BlueprintReadOnly|CPF_Parm</text>
<text text-anchor="start" x="579" y="-1589.3" font-family="monospace" font-size="14.00">  ObjectProperty ControlledPawn</text>
<text text-anchor="start" x="579" y="-1574.3" font-family="monospace" font-size="14.00">    CPF_BlueprintVisible|CPF_BlueprintReadOnly|CPF_Parm</text>
<text text-anchor="start" x="579" y="-1559.3" font-family="monospace" font-size="14.00">  BoolProperty ReturnValue</text>
<text text-anchor="start" x="579" y="-1544.3" font-family="monospace" font-size="14.00">    CPF_Parm|CPF_OutParm|CPF_ReturnParm</text>
<text text-anchor="start" x="579" y="-1529.3" font-family="monospace" font-size="14.00">  BoolProperty Temp_bool_Variable</text>
<text text-anchor="start" x="579" y="-1514.3" font-family="monospace" font-size="14.00">  ObjectProperty CallFunc_GetComponentByClass_ReturnValue</text>
<text text-anchor="start" x="579" y="-1499.3" font-family="monospace" font-size="14.00">    CPF_InstancedReference</text>
<text text-anchor="start" x="579" y="-1484.3" font-family="monospace" font-size="14.00">  BoolProperty CallFunc_IsValid_ReturnValue</text>
<text text-anchor="start" x="579" y="-1469.3" font-family="monospace" font-size="14.00">  BoolProperty CallFunc_IsAttackOffCooldown_ReturnValue</text>
<text text-anchor="start" x="579" y="-1454.3" font-family="monospace" font-size="14.00">  BoolProperty CallFunc_IsAnyAttackOffCooldown_ReturnValue</text>
<text text-anchor="start" x="579" y="-1439.3" font-family="monospace" font-size="14.00">  BoolProperty K2Node_Select_Default</text>
</g>
<!-- PerformConditionCheckAI__0 -->
<g id="node3" class="node">
<title>PerformConditionCheckAI__0</title>
<polygon fill="#eeeeee" stroke="black" points="521.5,-1244.5 521.5,-1357.5 1115.5,-1357.5 1115.5,-1244.5 521.5,-1244.5"/>
<text text-anchor="start" x="529.5" y="-1342.3" font-family="monospace" font-size="14.00">EX_LetObj</text>
<text text-anchor="start" x="529.5" y="-1327.3" font-family="monospace" font-size="14.00">  EX_LocalVariable [CallFunc_GetComponentByClass_ReturnValue]</text>
<text text-anchor="start" x="529.5" y="-1312.3" font-family="monospace" font-size="14.00">  EX_Context</text>
<text text-anchor="start" x="529.5" y="-1297.3" font-family="monospace" font-size="14.00">    EX_LocalVariable [ControlledPawn]</text>
<text text-anchor="start" x="529.5" y="-1282.3" font-family="monospace" font-size="14.00">    EX_FinalFunction import /Script/Engine&#45;&gt;Actor&#45;&gt;GetComponentByClass</text>
<text text-anchor="start" x="529.5" y="-1267.3" font-family="monospace" font-size="14.00">      EX_ObjectConst import /Script/FSD&#45;&gt;AttackCooldownComponent</text>
<text text-anchor="start" x="529.5" y="-1252.3" font-family="monospace" font-size="14.00">    RValue = [CallFunc_GetComponentByClass_ReturnValue]</text>
</g>
<!-- PerformConditionCheckAI&#45;&gt;PerformConditionCheckAI__0 -->
<g id="edge1" class="edge">
<title>PerformConditionCheckAI&#45;&gt;PerformConditionCheckAI__0</title>
<path fill="none" stroke="black" d="M818.5,-1431.52C818.5,-1410.21 818.5,-1388.44 818.5,-1368.97"/>
<polygon fill="black" stroke="black" points="822,-1369 818.5,-1359 815,-1369 822,-1369"/>
</g>
<!-- PerformConditionCheckAI__51 -->
<g id="node4" class="node">
<title>PerformConditionCheckAI__51</title>
<polygon fill="#eeeeee" stroke="black" points="542,-1138.5 542,-1206.5 1095,-1206.5 1095,-1138.5 542,-1138.5"/>
<text text-anchor="start" x="550" y="-1191.3" font-family="monospace" font-size="14.00">EX_LetBool</text>
<text text-anchor="start" x="550" y="-1176.3" font-family="monospace" font-size="14.00">  EX_LocalVariable [CallFunc_IsValid_ReturnValue]</text>
<text text-anchor="start" x="550" y="-1161.3" font-family="monospace" font-size="14.00">  EX_CallMath import /Script/Engine&#45;&gt;KismetSystemLibrary&#45;&gt;IsValid</text>
<text text-anchor="start" x="550" y="-1146.3" font-family="monospace" font-size="14.00">    EX_LocalVariable [CallFunc_GetComponentByClass_ReturnValue]</text>
</g>
<!-- PerformConditionCheckAI__0&#45;&gt;PerformConditionCheckAI__51 -->
<g id="edge2" class="edge">
<title>PerformConditionCheckAI__0&#45;&gt;PerformConditionCheckAI__51</title>
<path fill="none" stroke="black" d="M818.5,-1244.52C818.5,-1235.57 818.5,-1226.41 818.5,-1217.78"/>
<polygon fill="black" stroke="black" points="822,-1217.91 818.5,-1207.91 815,-1217.91 822,-1217.91"/>
</g>
<!-- PerformConditionCheckAI__80 -->
<g id="node5" class="node">
<title>PerformConditionCheckAI__80</title>
<polygon fill="#eeeeee" stroke="black" points="608,-1062.5 608,-1100.5 1029,-1100.5 1029,-1062.5 608,-1062.5"/>
<text text-anchor="start" x="616" y="-1085.3" font-family="monospace" font-size="14.00">EX_JumpIfNot 325</text>
<text text-anchor="start" x="616" y="-1070.3" font-family="monospace" font-size="14.00">  EX_LocalVariable [CallFunc_IsValid_ReturnValue]</text>
</g>
<!-- PerformConditionCheckAI__51&#45;&gt;PerformConditionCheckAI__80 -->
<g id="edge3" class="edge">
<title>PerformConditionCheckAI__51&#45;&gt;PerformConditionCheckAI__80</title>
<path fill="none" stroke="black" d="M818.5,-1138.61C818.5,-1129.79 818.5,-1120.32 818.5,-1111.72"/>
<polygon fill="black" stroke="black" points="822,-1111.8 818.5,-1101.8 815,-1111.8 822,-1111.8"/>
</g>
<!-- PerformConditionCheckAI__94 -->
<g id="node6" class="node">
<title>PerformConditionCheckAI__94</title>
<polygon fill="#eeeeee" stroke="black" points="427.5,-897.5 427.5,-1010.5 1021.5,-1010.5 1021.5,-897.5 427.5,-897.5"/>
<text text-anchor="start" x="435.5" y="-995.3" font-family="monospace" font-size="14.00">EX_LetObj</text>
<text text-anchor="start" x="435.5" y="-980.3" font-family="monospace" font-size="14.00">  EX_LocalVariable [CallFunc_GetComponentByClass_ReturnValue]</text>
<text text-anchor="start" x="435.5" y="-965.3" font-family="monospace" font-size="14.00">  EX_Context</text>
<text text-anchor="start" x="435.5" y="-950.3" font-family="monospace" font-size="14.00">    EX_LocalVariable [ControlledPawn]</text>
<text text-anchor="start" x="435.5" y="-935.3" font-family="monospace" font-size="14.00">    EX_FinalFunction import /Script/Engine&#45;&gt;Actor&#45;&gt;GetComponentByClass</text>
<text text-anchor="start" x="435.5" y="-920.3" font-family="monospace" font-size="14.00">      EX_ObjectConst import /Script/FSD&#45;&gt;AttackCooldownComponent</text>
<text text-anchor="start" x="435.5" y="-905.3" font-family="monospace" font-size="14.00">    RValue = [CallFunc_GetComponentByClass_ReturnValue]</text>
</g>
<!-- PerformConditionCheckAI__80&#45;&gt;PerformConditionCheckAI__94 -->
<g id="edge5" class="edge">
<title>PerformConditionCheckAI__80&#45;&gt;PerformConditionCheckAI__94</title>
<path fill="none" stroke="black" d="M805.03,-1062.52C796.38,-1050.97 784.56,-1035.19 772.65,-1019.28"/>
<polygon fill="black" stroke="black" points="775.74,-1017.58 766.95,-1011.67 770.14,-1021.77 775.74,-1017.58"/>
<text text-anchor="middle" x="800" y="-1032.8" font-family="monospace" font-size="14.00">IF</text>
</g>
<!-- PerformConditionCheckAI__325 -->
<g id="node12" class="node">
<title>PerformConditionCheckAI__325</title>
<polygon fill="#eeeeee" stroke="black" points="967.5,-810.5 967.5,-878.5 1157.5,-878.5 1157.5,-810.5 967.5,-810.5"/>
<text text-anchor="start" x="975.5" y="-863.3" font-family="monospace" font-size="14.00">EX_LetBool</text>
<text text-anchor="start" x="975.5" y="-848.3" font-family="monospace" font-size="14.00">  EX_LocalOutVariable</text>
<text text-anchor="start" x="975.5" y="-833.3" font-family="monospace" font-size="14.00">    [ReturnValue]</text>
<text text-anchor="start" x="975.5" y="-818.3" font-family="monospace" font-size="14.00">  EX_False</text>
</g>
<!-- PerformConditionCheckAI__80&#45;&gt;PerformConditionCheckAI__325 -->
<g id="edge4" class="edge">
<title>PerformConditionCheckAI__80:e&#45;&gt;PerformConditionCheckAI__325</title>
<path fill="none" stroke="red" d="M1030.5,-1081.5C1107.27,-1081.5 1089.51,-957.37 1073.97,-889.16"/>
<polygon fill="none" stroke="red" points="1077.46,-888.72 1071.75,-879.79 1070.65,-890.32 1077.46,-888.72"/>
<text text-anchor="middle" x="1108.5" y="-1032.8" font-family="monospace" font-size="14.00">IF NOT</text>
</g>
<!-- PerformConditionCheckAI__145 -->
<g id="node7" class="node">
<title>PerformConditionCheckAI__145</title>
<polygon fill="#eeeeee" stroke="black" points="319.5,-678.5 319.5,-791.5 1037.5,-791.5 1037.5,-678.5 319.5,-678.5"/>
<text text-anchor="start" x="327.5" y="-776.3" font-family="monospace" font-size="14.00">EX_LetBool</text>
<text text-anchor="start" x="327.5" y="-761.3" font-family="monospace" font-size="14.00">  EX_LocalVariable [CallFunc_IsAttackOffCooldown_ReturnValue]</text>
<text text-anchor="start" x="327.5" y="-746.3" font-family="monospace" font-size="14.00">  EX_Context</text>
<text text-anchor="start" x="327.5" y="-731.3" font-family="monospace" font-size="14.00">    EX_LocalVariable [CallFunc_GetComponentByClass_ReturnValue]</text>
<text text-anchor="start" x="327.5" y="-716.3" font-family="monospace" font-size="14.00">    EX_FinalFunction import /Script/FSD&#45;&gt;AttackCooldownComponent&#45;&gt;IsAttackOffCooldown</text>
<text text-anchor="start" x="327.5" y="-701.3" font-family="monospace" font-size="14.00">      EX_InstanceVariable [AttackName]</text>
<text text-anchor="start" x="327.5" y="-686.3" font-family="monospace" font-size="14.00">    RValue = [CallFunc_IsAttackOffCooldown_ReturnValue]</text>
</g>
<!-- PerformConditionCheckAI__94&#45;&gt;PerformConditionCheckAI__145 -->
<g id="edge6" class="edge">
<title>PerformConditionCheckAI__94&#45;&gt;PerformConditionCheckAI__145</title>
<path fill="none" stroke="black" d="M712.77,-897.68C706.61,-868.6 699.01,-832.76 692.54,-802.21"/>
<polygon fill="black" stroke="black" points="696.02,-801.76 690.52,-792.7 689.17,-803.21 696.02,-801.76"/>
</g>
<!-- PerformConditionCheckAI__196 -->
<g id="node8" class="node">
<title>PerformConditionCheckAI__196</title>
<polygon fill="#eeeeee" stroke="black" points="297,-542.5 297,-640.5 1040,-640.5 1040,-542.5 297,-542.5"/>
<text text-anchor="start" x="305" y="-625.3" font-family="monospace" font-size="14.00">EX_LetBool</text>
<text text-anchor="start" x="305" y="-610.3" font-family="monospace" font-size="14.00">  EX_LocalVariable [CallFunc_IsAnyAttackOffCooldown_ReturnValue]</text>
<text text-anchor="start" x="305" y="-595.3" font-family="monospace" font-size="14.00">  EX_Context</text>
<text text-anchor="start" x="305" y="-580.3" font-family="monospace" font-size="14.00">    EX_LocalVariable [CallFunc_GetComponentByClass_ReturnValue]</text>
<text text-anchor="start" x="305" y="-565.3" font-family="monospace" font-size="14.00">    EX_FinalFunction import /Script/FSD&#45;&gt;AttackCooldownComponent&#45;&gt;IsAnyAttackOffCooldown</text>
<text text-anchor="start" x="305" y="-550.3" font-family="monospace" font-size="14.00">    RValue = [CallFunc_IsAnyAttackOffCooldown_ReturnValue]</text>
</g>
<!-- PerformConditionCheckAI__145&#45;&gt;PerformConditionCheckAI__196 -->
<g id="edge7" class="edge">
<title>PerformConditionCheckAI__145&#45;&gt;PerformConditionCheckAI__196</title>
<path fill="none" stroke="black" d="M674.61,-678.89C673.97,-669.94 673.32,-660.64 672.68,-651.6"/>
<polygon fill="black" stroke="black" points="676.18,-651.58 671.99,-641.85 669.2,-652.07 676.18,-651.58"/>
</g>
<!-- PerformConditionCheckAI__238 -->
<g id="node9" class="node">
<title>PerformConditionCheckAI__238</title>
<polygon fill="#eeeeee" stroke="black" points="530.5,-451.5 530.5,-504.5 868.5,-504.5 868.5,-451.5 530.5,-451.5"/>
<text text-anchor="start" x="538.5" y="-489.3" font-family="monospace" font-size="14.00">EX_LetBool</text>
<text text-anchor="start" x="538.5" y="-474.3" font-family="monospace" font-size="14.00">  EX_LocalVariable [Temp_bool_Variable]</text>
<text text-anchor="start" x="538.5" y="-459.3" font-family="monospace" font-size="14.00">  EX_InstanceVariable [Any]</text>
</g>
<!-- PerformConditionCheckAI__196&#45;&gt;PerformConditionCheckAI__238 -->
<g id="edge8" class="edge">
<title>PerformConditionCheckAI__196&#45;&gt;PerformConditionCheckAI__238</title>
<path fill="none" stroke="black" d="M681.83,-542.57C684.36,-533.46 686.97,-524.06 689.39,-515.38"/>
<polygon fill="black" stroke="black" points="692.71,-516.5 692.01,-505.93 685.96,-514.62 692.71,-516.5"/>
</g>
<!-- PerformConditionCheckAI__257 -->
<g id="node10" class="node">
<title>PerformConditionCheckAI__257</title>
<polygon fill="#eeeeee" stroke="black" points="457.5,-165.5 457.5,-413.5 1035.5,-413.5 1035.5,-165.5 457.5,-165.5"/>
<text text-anchor="start" x="465.5" y="-398.3" font-family="monospace" font-size="14.00">EX_LetBool</text>
<text text-anchor="start" x="465.5" y="-383.3" font-family="monospace" font-size="14.00">  EX_LocalOutVariable</text>
<text text-anchor="start" x="465.5" y="-368.3" font-family="monospace" font-size="14.00">    [ReturnValue]</text>
<text text-anchor="start" x="465.5" y="-353.3" font-family="monospace" font-size="14.00">  EX_SwitchValue</text>
<text text-anchor="start" x="465.5" y="-338.3" font-family="monospace" font-size="14.00">    EX_LocalVariable [Temp_bool_Variable]</text>
<text text-anchor="start" x="465.5" y="-323.3" font-family="monospace" font-size="14.00">    OffsetToSwitchEnd = 320</text>
<text text-anchor="start" x="465.5" y="-308.3" font-family="monospace" font-size="14.00">    case 0:</text>
<text text-anchor="start" x="465.5" y="-293.3" font-family="monospace" font-size="14.00">      EX_False</text>
<text text-anchor="start" x="465.5" y="-278.3" font-family="monospace" font-size="14.00">      NextCaseOffset = 297</text>
<text text-anchor="start" x="465.5" y="-263.3" font-family="monospace" font-size="14.00">      EX_LocalVariable [CallFunc_IsAttackOffCooldown_ReturnValue]</text>
<text text-anchor="start" x="465.5" y="-248.3" font-family="monospace" font-size="14.00">    case 1:</text>
<text text-anchor="start" x="465.5" y="-233.3" font-family="monospace" font-size="14.00">      EX_True</text>
<text text-anchor="start" x="465.5" y="-218.3" font-family="monospace" font-size="14.00">      NextCaseOffset = 311</text>
<text text-anchor="start" x="465.5" y="-203.3" font-family="monospace" font-size="14.00">      EX_LocalVariable [CallFunc_IsAnyAttackOffCooldown_ReturnValue]</text>
<text text-anchor="start" x="465.5" y="-188.3" font-family="monospace" font-size="14.00">    default:</text>
<text text-anchor="start" x="465.5" y="-173.3" font-family="monospace" font-size="14.00">      EX_LocalVariable [K2Node_Select_Default]</text>
</g>
<!-- PerformConditionCheckAI__238&#45;&gt;PerformConditionCheckAI__257 -->
<g id="edge9" class="edge">
<title>PerformConditionCheckAI__238&#45;&gt;PerformConditionCheckAI__257</title>
<path fill="none" stroke="black" d="M705.84,-451.85C707.85,-443.88 710.22,-434.45 712.8,-424.21"/>
<polygon fill="black" stroke="black" points="716.14,-425.3 715.19,-414.75 709.35,-423.59 716.14,-425.3"/>
</g>
<!-- PerformConditionCheckAI__320 -->
<g id="node11" class="node">
<title>PerformConditionCheckAI__320</title>
<polygon fill="#eeeeee" stroke="black" points="872,-91.5 872,-127.5 979,-127.5 979,-91.5 872,-91.5"/>
<text text-anchor="start" x="880" y="-105.8" font-family="monospace" font-size="14.00">EX_Jump 336</text>
</g>
<!-- PerformConditionCheckAI__257&#45;&gt;PerformConditionCheckAI__320 -->
<g id="edge10" class="edge">
<title>PerformConditionCheckAI__257&#45;&gt;PerformConditionCheckAI__320</title>
<path fill="none" stroke="black" d="M869.84,-165.84C881.29,-154.46 891.87,-143.94 900.66,-135.2"/>
<polygon fill="black" stroke="black" points="903.13,-137.68 907.75,-128.15 898.19,-132.72 903.13,-137.68"/>
</g>
<!-- PerformConditionCheckAI__336 -->
<g id="node13" class="node">
<title>PerformConditionCheckAI__336</title>
<polygon fill="#eeeeee" stroke="black" points="901.5,-0.5 901.5,-53.5 1091.5,-53.5 1091.5,-0.5 901.5,-0.5"/>
<text text-anchor="start" x="909.5" y="-38.3" font-family="monospace" font-size="14.00">EX_Return</text>
<text text-anchor="start" x="909.5" y="-23.3" font-family="monospace" font-size="14.00">  EX_LocalOutVariable</text>
<text text-anchor="start" x="909.5" y="-8.3" font-family="monospace" font-size="14.00">    [ReturnValue]</text>
</g>
<!-- PerformConditionCheckAI__320&#45;&gt;PerformConditionCheckAI__336 -->
<g id="edge11" class="edge">
<title>PerformConditionCheckAI__320&#45;&gt;PerformConditionCheckAI__336</title>
<path fill="none" stroke="black" d="M940.21,-91.82C947.89,-83.11 957.57,-72.13 966.73,-61.75"/>
<polygon fill="black" stroke="black" points="969.26,-64.18 973.25,-54.36 964.01,-59.55 969.26,-64.18"/>
</g>
<!-- PerformConditionCheckAI__325&#45;&gt;PerformConditionCheckAI__336 -->
<g id="edge12" class="edge">
<title>PerformConditionCheckAI__325&#45;&gt;PerformConditionCheckAI__336</title>
<path fill="none" stroke="black" d="M1064.22,-810.69C1065.99,-773.99 1068.5,-712.75 1068.5,-660 1068.5,-660 1068.5,-660 1068.5,-108.5 1068.5,-90.02 1057.83,-73.84 1044.71,-60.93"/>
<polygon fill="black" stroke="black" points="1047.18,-58.44 1037.41,-54.33 1042.48,-63.64 1047.18,-58.44"/>
</g>
<!-- PerformConditionCheckAI__346 -->
<g id="node14" class="node">
<title>PerformConditionCheckAI__346</title>
<polygon fill="#eeeeee" stroke="black" points="833.5,-1376.5 833.5,-1412.5 965.5,-1412.5 965.5,-1376.5 833.5,-1376.5"/>
<text text-anchor="start" x="841.5" y="-1390.8" font-family="monospace" font-size="14.00">EX_EndOfScript</text>
</g>
</g>
</svg>
