<?xml version="1.0" encoding="UTF-8" standalone="no"?>
<!DOCTYPE svg PUBLIC "-//W3C//DTD SVG 1.1//EN"
 "http://www.w3.org/Graphics/SVG/1.1/DTD/svg11.dtd">
<!-- Generated by graphviz version 7.0.1 (0)
 -->
<!-- Pages: 1 -->
<svg width="4022pt" height="1584pt"
 viewBox="0.00 0.00 4021.50 1584.00" xmlns="http://www.w3.org/2000/svg" xmlns:xlink="http://www.w3.org/1999/xlink">
<g id="graph0" class="graph" transform="scale(1 1) rotate(0) translate(4 1580)">
<polygon fill="white" stroke="none" points="-4,4 -4,-1580 4017.5,-1580 4017.5,4 -4,4"/>
<!-- PRJ_Spider_Boss_Twin_Multifireball_C -->
<g id="node1" class="node">
<title>PRJ_Spider_Boss_Twin_Multifireball_C</title>
<polygon fill="#88ff88" stroke="black" points="0,-1282.5 0,-1575.5 594,-1575.5 594,-1282.5 0,-1282.5"/>
<text text-anchor="start" x="8" y="-1560.3" font-family="monospace" font-size="14.00">ClassExport: PRJ_Spider_Boss_Twin_Multifireball_C</text>
<text text-anchor="start" x="8" y="-1545.3" font-family="monospace" font-size="14.00">  SuperStruct: import /Script/FSD&#45;&gt;Projectile</text>
<text text-anchor="start" x="8" y="-1530.3" font-family="monospace" font-size="14.00">  Properties:</text>
<text text-anchor="start" x="8" y="-1515.3" font-family="monospace" font-size="14.00">    StructProperty UberGraphFrame</text>
<text text-anchor="start" x="8" y="-1500.3" font-family="monospace" font-size="14.00">      CPF_Transient|CPF_DuplicateTransient</text>
<text text-anchor="start" x="8" y="-1485.3" font-family="monospace" font-size="14.00">    ObjectProperty SimpleObjectInfo</text>
<text text-anchor="start" x="8" y="-1470.3" font-family="monospace" font-size="14.00">      CPF_BlueprintVisible|CPF_InstancedReference|CPF_NonTransactional</text>
<text text-anchor="start" x="8" y="-1455.3" font-family="monospace" font-size="14.00">    ObjectProperty Damage</text>
<text text-anchor="start" x="8" y="-1440.3" font-family="monospace" font-size="14.00">      CPF_BlueprintVisible|CPF_InstancedReference|CPF_NonTransactional</text>
<text text-anchor="start" x="8" y="-1425.3" font-family="monospace" font-size="14.00">    ObjectProperty ProjectileExplosion</text>
<text text-anchor="start" x="8" y="-1410.3" font-family="monospace" font-size="14.00">      CPF_BlueprintVisible|CPF_InstancedReference|CPF_NonTransactional</text>
<text text-anchor="start" x="8" y="-1395.3" font-family="monospace" font-size="14.00">    ObjectProperty ParticleComponent</text>
<text text-anchor="start" x="8" y="-1380.3" font-family="monospace" font-size="14.00">      CPF_BlueprintVisible|CPF_InstancedReference|CPF_NonTransactional</text>
<text text-anchor="start" x="8" y="-1365.3" font-family="monospace" font-size="14.00">    ObjectProperty Audio</text>
<text text-anchor="start" x="8" y="-1350.3" font-family="monospace" font-size="14.00">      CPF_BlueprintVisible|CPF_InstancedReference|CPF_NonTransactional</text>
<text text-anchor="start" x="8" y="-1335.3" font-family="monospace" font-size="14.00">    ObjectProperty PointLight</text>
<text text-anchor="start" x="8" y="-1320.3" font-family="monospace" font-size="14.00">      CPF_BlueprintVisible|CPF_InstancedReference|CPF_NonTransactional</text>
<text text-anchor="start" x="8" y="-1305.3" font-family="monospace" font-size="14.00">    FloatProperty LightIntensity</text>
<text text-anchor="start" x="8" y="-1290.3" font-family="monospace" font-size="14.00">      CPF_Edit|CPF_BlueprintVisible|CPF_DisableEditOnInstance</text>
</g>
<!-- ExecuteUbergraph_PRJ_Spider_Boss_Twin_Multifireball -->
<g id="node2" class="node">
<title>ExecuteUbergraph_PRJ_Spider_Boss_Twin_Multifireball</title>
<polygon fill="#ff8888" stroke="black" points="612,-1365 612,-1493 1124,-1493 1124,-1365 612,-1365"/>
<text text-anchor="start" x="620" y="-1477.8" font-family="monospace" font-size="14.00">Function ExecuteUbergraph_PRJ_Spider_Boss_Twin_Multifireball</text>
<text text-anchor="start" x="620" y="-1462.8" font-family="monospace" font-size="14.00">  IntProperty EntryPoint</text>
<text text-anchor="start" x="620" y="-1447.8" font-family="monospace" font-size="14.00">    CPF_BlueprintVisible|CPF_BlueprintReadOnly|CPF_Parm</text>
<text text-anchor="start" x="620" y="-1432.8" font-family="monospace" font-size="14.00">  BoolProperty CallFunc_HasAuthority_ReturnValue</text>
<text text-anchor="start" x="620" y="-1417.8" font-family="monospace" font-size="14.00">  BoolProperty K2Node_Event_PredictedImpact</text>
<text text-anchor="start" x="620" y="-1402.8" font-family="monospace" font-size="14.00">  StructProperty K2Node_Event_HitResult</text>
<text text-anchor="start" x="620" y="-1387.8" font-family="monospace" font-size="14.00">    CPF_ConstParm|CPF_ContainsInstancedReference</text>
<text text-anchor="start" x="620" y="-1372.8" font-family="monospace" font-size="14.00">  BoolProperty CallFunc_HasAuthority_ReturnValue_1</text>
</g>
<!-- ExecuteUbergraph_PRJ_Spider_Boss_Twin_Multifireball__0 -->
<g id="node3" class="node">
<title>ExecuteUbergraph_PRJ_Spider_Boss_Twin_Multifireball__0</title>
<polygon fill="#eeeeee" stroke="black" points="760.5,-1171.5 760.5,-1207.5 975.5,-1207.5 975.5,-1171.5 760.5,-1171.5"/>
<text text-anchor="start" x="768.5" y="-1185.8" font-family="monospace" font-size="14.00">EX_PushExecutionFlow 354</text>
</g>
<!-- ExecuteUbergraph_PRJ_Spider_Boss_Twin_Multifireball&#45;&gt;ExecuteUbergraph_PRJ_Spider_Boss_Twin_Multifireball__0 -->
<g id="edge1" class="edge">
<title>ExecuteUbergraph_PRJ_Spider_Boss_Twin_Multifireball&#45;&gt;ExecuteUbergraph_PRJ_Spider_Boss_Twin_Multifireball__0</title>
<path fill="none" stroke="black" d="M868,-1365.29C868,-1317.63 868,-1254.34 868,-1218.46"/>
<polygon fill="black" stroke="black" points="871.5,-1218.92 868,-1208.92 864.5,-1218.92 871.5,-1218.92"/>
</g>
<!-- ExecuteUbergraph_PRJ_Spider_Boss_Twin_Multifireball__5 -->
<g id="node4" class="node">
<title>ExecuteUbergraph_PRJ_Spider_Boss_Twin_Multifireball__5</title>
<polygon fill="#eeeeee" stroke="black" points="680,-1051 680,-1089 952,-1089 952,-1051 680,-1051"/>
<text text-anchor="start" x="688" y="-1073.8" font-family="monospace" font-size="14.00">EX_ComputedJump</text>
<text text-anchor="start" x="688" y="-1058.8" font-family="monospace" font-size="14.00">  EX_LocalVariable [EntryPoint]</text>
</g>
<!-- ExecuteUbergraph_PRJ_Spider_Boss_Twin_Multifireball__0&#45;&gt;ExecuteUbergraph_PRJ_Spider_Boss_Twin_Multifireball__5 -->
<g id="edge3" class="edge">
<title>ExecuteUbergraph_PRJ_Spider_Boss_Twin_Multifireball__0&#45;&gt;ExecuteUbergraph_PRJ_Spider_Boss_Twin_Multifireball__5</title>
<path fill="none" stroke="black" d="M860.55,-1171.67C852.2,-1152.8 838.52,-1121.89 828.52,-1099.3"/>
<polygon fill="black" stroke="black" points="831.81,-1098.07 824.56,-1090.34 825.41,-1100.9 831.81,-1098.07"/>
</g>
<!-- ExecuteUbergraph_PRJ_Spider_Boss_Twin_Multifireball__354 -->
<g id="node24" class="node">
<title>ExecuteUbergraph_PRJ_Spider_Boss_Twin_Multifireball__354</title>
<polygon fill="#eeeeee" stroke="black" points="970,-1051 970,-1089 1086,-1089 1086,-1051 970,-1051"/>
<text text-anchor="start" x="978" y="-1073.8" font-family="monospace" font-size="14.00">EX_Return</text>
<text text-anchor="start" x="978" y="-1058.8" font-family="monospace" font-size="14.00">  EX_Nothing</text>
</g>
<!-- ExecuteUbergraph_PRJ_Spider_Boss_Twin_Multifireball__0&#45;&gt;ExecuteUbergraph_PRJ_Spider_Boss_Twin_Multifireball__354 -->
<g id="edge2" class="edge">
<title>ExecuteUbergraph_PRJ_Spider_Boss_Twin_Multifireball__0:e&#45;&gt;ExecuteUbergraph_PRJ_Spider_Boss_Twin_Multifireball__354</title>
<path fill="none" stroke="red" d="M977,-1189.5C986.37,-1189.5 981.36,-1178.63 985,-1170 995.1,-1146.08 1006.87,-1119.05 1015.53,-1099.28"/>
<polygon fill="none" stroke="red" points="1018.7,-1100.79 1019.51,-1090.22 1012.29,-1097.97 1018.7,-1100.79"/>
<text text-anchor="middle" x="1050.5" y="-1129.8" font-family="monospace" font-size="14.00">PUSH STACK</text>
</g>
<!-- ExecuteUbergraph_PRJ_Spider_Boss_Twin_Multifireball__15 -->
<g id="node5" class="node">
<title>ExecuteUbergraph_PRJ_Spider_Boss_Twin_Multifireball__15</title>
<polygon fill="#eeeeee" stroke="black" points="1724,-916.5 1724,-969.5 2244,-969.5 2244,-916.5 1724,-916.5"/>
<text text-anchor="start" x="1732" y="-954.3" font-family="monospace" font-size="14.00">EX_LetBool</text>
<text text-anchor="start" x="1732" y="-939.3" font-family="monospace" font-size="14.00">  EX_LocalVariable [CallFunc_HasAuthority_ReturnValue]</text>
<text text-anchor="start" x="1732" y="-924.3" font-family="monospace" font-size="14.00">  EX_FinalFunction import /Script/Engine&#45;&gt;Actor&#45;&gt;HasAuthority</text>
</g>
<!-- ExecuteUbergraph_PRJ_Spider_Boss_Twin_Multifireball__35 -->
<g id="node6" class="node">
<title>ExecuteUbergraph_PRJ_Spider_Boss_Twin_Multifireball__35</title>
<polygon fill="#eeeeee" stroke="black" points="1753,-840.5 1753,-878.5 2215,-878.5 2215,-840.5 1753,-840.5"/>
<text text-anchor="start" x="1761" y="-863.3" font-family="monospace" font-size="14.00">EX_JumpIfNot 50</text>
<text text-anchor="start" x="1761" y="-848.3" font-family="monospace" font-size="14.00">  EX_LocalVariable [CallFunc_HasAuthority_ReturnValue]</text>
</g>
<!-- ExecuteUbergraph_PRJ_Spider_Boss_Twin_Multifireball__15&#45;&gt;ExecuteUbergraph_PRJ_Spider_Boss_Twin_Multifireball__35 -->
<g id="edge4" class="edge">
<title>ExecuteUbergraph_PRJ_Spider_Boss_Twin_Multifireball__15&#45;&gt;ExecuteUbergraph_PRJ_Spider_Boss_Twin_Multifireball__35</title>
<path fill="none" stroke="black" d="M1984,-916.66C1984,-908.11 1984,-898.51 1984,-889.69"/>
<polygon fill="black" stroke="black" points="1987.5,-889.84 1984,-879.84 1980.5,-889.84 1987.5,-889.84"/>
</g>
<!-- ExecuteUbergraph_PRJ_Spider_Boss_Twin_Multifireball__49 -->
<g id="node7" class="node">
<title>ExecuteUbergraph_PRJ_Spider_Boss_Twin_Multifireball__49</title>
<polygon fill="#eeeeee" stroke="black" points="1870.5,-729 1870.5,-765 2043.5,-765 2043.5,-729 1870.5,-729"/>
<text text-anchor="start" x="1878.5" y="-743.3" font-family="monospace" font-size="14.00">EX_PopExecutionFlow</text>
</g>
<!-- ExecuteUbergraph_PRJ_Spider_Boss_Twin_Multifireball__35&#45;&gt;ExecuteUbergraph_PRJ_Spider_Boss_Twin_Multifireball__49 -->
<g id="edge6" class="edge">
<title>ExecuteUbergraph_PRJ_Spider_Boss_Twin_Multifireball__35&#45;&gt;ExecuteUbergraph_PRJ_Spider_Boss_Twin_Multifireball__49</title>
<path fill="none" stroke="black" d="M1979.66,-840.75C1975.4,-823.3 1968.83,-796.42 1963.86,-776.08"/>
<polygon fill="black" stroke="black" points="1967.28,-775.34 1961.51,-766.45 1960.48,-777 1967.28,-775.34"/>
<text text-anchor="middle" x="1983.5" y="-810.8" font-family="monospace" font-size="14.00">IF</text>
</g>
<!-- ExecuteUbergraph_PRJ_Spider_Boss_Twin_Multifireball__50 -->
<g id="node8" class="node">
<title>ExecuteUbergraph_PRJ_Spider_Boss_Twin_Multifireball__50</title>
<polygon fill="#eeeeee" stroke="black" points="2061.5,-705.5 2061.5,-788.5 2424.5,-788.5 2424.5,-705.5 2061.5,-705.5"/>
<text text-anchor="start" x="2069.5" y="-773.3" font-family="monospace" font-size="14.00">EX_Context</text>
<text text-anchor="start" x="2069.5" y="-758.3" font-family="monospace" font-size="14.00">  EX_InstanceVariable [CollisionComponent]</text>
<text text-anchor="start" x="2069.5" y="-743.3" font-family="monospace" font-size="14.00">  EX_VirtualFunction SetCollisionEnabled</text>
<text text-anchor="start" x="2069.5" y="-728.3" font-family="monospace" font-size="14.00">    EX_ByteConst 0</text>
<text text-anchor="start" x="2069.5" y="-713.3" font-family="monospace" font-size="14.00">  RValue = []</text>
</g>
<!-- ExecuteUbergraph_PRJ_Spider_Boss_Twin_Multifireball__35&#45;&gt;ExecuteUbergraph_PRJ_Spider_Boss_Twin_Multifireball__50 -->
<g id="edge5" class="edge">
<title>ExecuteUbergraph_PRJ_Spider_Boss_Twin_Multifireball__35:e&#45;&gt;ExecuteUbergraph_PRJ_Spider_Boss_Twin_Multifireball__50</title>
<path fill="none" stroke="red" d="M2216,-859.5C2242.73,-859.5 2248.85,-828.86 2248.63,-799.71"/>
<polygon fill="none" stroke="red" points="2252.13,-799.64 2248.29,-789.77 2245.14,-799.88 2252.13,-799.64"/>
<text text-anchor="middle" x="2274" y="-810.8" font-family="monospace" font-size="14.00">IF NOT</text>
</g>
<!-- ExecuteUbergraph_PRJ_Spider_Boss_Twin_Multifireball__88 -->
<g id="node9" class="node">
<title>ExecuteUbergraph_PRJ_Spider_Boss_Twin_Multifireball__88</title>
<polygon fill="#eeeeee" stroke="black" points="2156.5,-594 2156.5,-630 2329.5,-630 2329.5,-594 2156.5,-594"/>
<text text-anchor="start" x="2164.5" y="-608.3" font-family="monospace" font-size="14.00">EX_PopExecutionFlow</text>
</g>
<!-- ExecuteUbergraph_PRJ_Spider_Boss_Twin_Multifireball__50&#45;&gt;ExecuteUbergraph_PRJ_Spider_Boss_Twin_Multifireball__88 -->
<g id="edge7" class="edge">
<title>ExecuteUbergraph_PRJ_Spider_Boss_Twin_Multifireball__50&#45;&gt;ExecuteUbergraph_PRJ_Spider_Boss_Twin_Multifireball__88</title>
<path fill="none" stroke="black" d="M2243,-705.73C2243,-684.91 2243,-660 2243,-641.25"/>
<polygon fill="black" stroke="black" points="2246.5,-641.43 2243,-631.43 2239.5,-641.43 2246.5,-641.43"/>
</g>
<!-- ExecuteUbergraph_PRJ_Spider_Boss_Twin_Multifireball__89 -->
<g id="node10" class="node">
<title>ExecuteUbergraph_PRJ_Spider_Boss_Twin_Multifireball__89</title>
<polygon fill="#eeeeee" stroke="black" points="2906,-74.5 2906,-110.5 3220,-110.5 3220,-74.5 2906,-74.5"/>
<text text-anchor="start" x="2914" y="-88.8" font-family="monospace" font-size="14.00">EX_VirtualFunction DisableAndDestroy</text>
</g>
<!-- ExecuteUbergraph_PRJ_Spider_Boss_Twin_Multifireball__103 -->
<g id="node11" class="node">
<title>ExecuteUbergraph_PRJ_Spider_Boss_Twin_Multifireball__103</title>
<polygon fill="#eeeeee" stroke="black" points="2976.5,-0.5 2976.5,-36.5 3149.5,-36.5 3149.5,-0.5 2976.5,-0.5"/>
<text text-anchor="start" x="2984.5" y="-14.8" font-family="monospace" font-size="14.00">EX_PopExecutionFlow</text>
</g>
<!-- ExecuteUbergraph_PRJ_Spider_Boss_Twin_Multifireball__89&#45;&gt;ExecuteUbergraph_PRJ_Spider_Boss_Twin_Multifireball__103 -->
<g id="edge8" class="edge">
<title>ExecuteUbergraph_PRJ_Spider_Boss_Twin_Multifireball__89&#45;&gt;ExecuteUbergraph_PRJ_Spider_Boss_Twin_Multifireball__103</title>
<path fill="none" stroke="black" d="M3063,-74.8C3063,-66.71 3063,-56.78 3063,-47.57"/>
<polygon fill="black" stroke="black" points="3066.5,-47.62 3063,-37.62 3059.5,-47.62 3066.5,-47.62"/>
</g>
<!-- ExecuteUbergraph_PRJ_Spider_Boss_Twin_Multifireball__104 -->
<g id="node12" class="node">
<title>ExecuteUbergraph_PRJ_Spider_Boss_Twin_Multifireball__104</title>
<polygon fill="#eeeeee" stroke="black" points="3144.5,-729 3144.5,-765 3359.5,-765 3359.5,-729 3144.5,-729"/>
<text text-anchor="start" x="3152.5" y="-743.3" font-family="monospace" font-size="14.00">EX_PushExecutionFlow 263</text>
</g>
<!-- ExecuteUbergraph_PRJ_Spider_Boss_Twin_Multifireball__109 -->
<g id="node13" class="node">
<title>ExecuteUbergraph_PRJ_Spider_Boss_Twin_Multifireball__109</title>
<polygon fill="#eeeeee" stroke="black" points="2729,-570.5 2729,-653.5 3397,-653.5 3397,-570.5 2729,-570.5"/>
<text text-anchor="start" x="2737" y="-638.3" font-family="monospace" font-size="14.00">EX_Context</text>
<text text-anchor="start" x="2737" y="-623.3" font-family="monospace" font-size="14.00">  EX_InstanceVariable [ProjectileExplosion]</text>
<text text-anchor="start" x="2737" y="-608.3" font-family="monospace" font-size="14.00">  EX_FinalFunction import /Script/FSD&#45;&gt;ProjectileExplosion&#45;&gt;SpawnEffectsFromHit</text>
<text text-anchor="start" x="2737" y="-593.3" font-family="monospace" font-size="14.00">    EX_LocalVariable [K2Node_Event_HitResult]</text>
<text text-anchor="start" x="2737" y="-578.3" font-family="monospace" font-size="14.00">  RValue = []</text>
</g>
<!-- ExecuteUbergraph_PRJ_Spider_Boss_Twin_Multifireball__104&#45;&gt;ExecuteUbergraph_PRJ_Spider_Boss_Twin_Multifireball__109 -->
<g id="edge10" class="edge">
<title>ExecuteUbergraph_PRJ_Spider_Boss_Twin_Multifireball__104&#45;&gt;ExecuteUbergraph_PRJ_Spider_Boss_Twin_Multifireball__109</title>
<path fill="none" stroke="black" d="M3228.06,-729.16C3203.35,-711.77 3163.69,-683.85 3129.43,-659.75"/>
<polygon fill="black" stroke="black" points="3131.82,-657.15 3121.63,-654.26 3127.8,-662.88 3131.82,-657.15"/>
</g>
<!-- ExecuteUbergraph_PRJ_Spider_Boss_Twin_Multifireball__263 -->
<g id="node18" class="node">
<title>ExecuteUbergraph_PRJ_Spider_Boss_Twin_Multifireball__263</title>
<polygon fill="#eeeeee" stroke="black" points="3415,-585.5 3415,-638.5 3935,-638.5 3935,-585.5 3415,-585.5"/>
<text text-anchor="start" x="3423" y="-623.3" font-family="monospace" font-size="14.00">EX_LetBool</text>
<text text-anchor="start" x="3423" y="-608.3" font-family="monospace" font-size="14.00">  EX_LocalVariable [CallFunc_HasAuthority_ReturnValue_1]</text>
<text text-anchor="start" x="3423" y="-593.3" font-family="monospace" font-size="14.00">  EX_FinalFunction import /Script/Engine&#45;&gt;Actor&#45;&gt;HasAuthority</text>
</g>
<!-- ExecuteUbergraph_PRJ_Spider_Boss_Twin_Multifireball__104&#45;&gt;ExecuteUbergraph_PRJ_Spider_Boss_Twin_Multifireball__263 -->
<g id="edge9" class="edge">
<title>ExecuteUbergraph_PRJ_Spider_Boss_Twin_Multifireball__104:e&#45;&gt;ExecuteUbergraph_PRJ_Spider_Boss_Twin_Multifireball__263</title>
<path fill="none" stroke="red" d="M3361,-747C3464.87,-747 3573.67,-684.21 3631.98,-644.59"/>
<polygon fill="none" stroke="red" points="3633.75,-647.62 3640,-639.06 3629.78,-641.86 3633.75,-647.62"/>
<text text-anchor="middle" x="3627.5" y="-675.8" font-family="monospace" font-size="14.00">PUSH STACK</text>
</g>
<!-- ExecuteUbergraph_PRJ_Spider_Boss_Twin_Multifireball__150 -->
<g id="node14" class="node">
<title>ExecuteUbergraph_PRJ_Spider_Boss_Twin_Multifireball__150</title>
<polygon fill="#eeeeee" stroke="black" points="2885.5,-464.5 2885.5,-532.5 3240.5,-532.5 3240.5,-464.5 2885.5,-464.5"/>
<text text-anchor="start" x="2893.5" y="-517.3" font-family="monospace" font-size="14.00">EX_Context</text>
<text text-anchor="start" x="2893.5" y="-502.3" font-family="monospace" font-size="14.00">  EX_InstanceVariable [ParticleComponent]</text>
<text text-anchor="start" x="2893.5" y="-487.3" font-family="monospace" font-size="14.00">  EX_VirtualFunction Deactivate</text>
<text text-anchor="start" x="2893.5" y="-472.3" font-family="monospace" font-size="14.00">  RValue = []</text>
</g>
<!-- ExecuteUbergraph_PRJ_Spider_Boss_Twin_Multifireball__109&#45;&gt;ExecuteUbergraph_PRJ_Spider_Boss_Twin_Multifireball__150 -->
<g id="edge11" class="edge">
<title>ExecuteUbergraph_PRJ_Spider_Boss_Twin_Multifireball__109&#45;&gt;ExecuteUbergraph_PRJ_Spider_Boss_Twin_Multifireball__150</title>
<path fill="none" stroke="black" d="M3063,-570.75C3063,-561.98 3063,-552.67 3063,-543.76"/>
<polygon fill="black" stroke="black" points="3066.5,-543.88 3063,-533.88 3059.5,-543.88 3066.5,-543.88"/>
</g>
<!-- ExecuteUbergraph_PRJ_Spider_Boss_Twin_Multifireball__186 -->
<g id="node15" class="node">
<title>ExecuteUbergraph_PRJ_Spider_Boss_Twin_Multifireball__186</title>
<polygon fill="#eeeeee" stroke="black" points="2914.5,-343.5 2914.5,-411.5 3211.5,-411.5 3211.5,-343.5 2914.5,-343.5"/>
<text text-anchor="start" x="2922.5" y="-396.3" font-family="monospace" font-size="14.00">EX_Context</text>
<text text-anchor="start" x="2922.5" y="-381.3" font-family="monospace" font-size="14.00">  EX_InstanceVariable [PointLight]</text>
<text text-anchor="start" x="2922.5" y="-366.3" font-family="monospace" font-size="14.00">  EX_VirtualFunction Deactivate</text>
<text text-anchor="start" x="2922.5" y="-351.3" font-family="monospace" font-size="14.00">  RValue = []</text>
</g>
<!-- ExecuteUbergraph_PRJ_Spider_Boss_Twin_Multifireball__150&#45;&gt;ExecuteUbergraph_PRJ_Spider_Boss_Twin_Multifireball__186 -->
<g id="edge12" class="edge">
<title>ExecuteUbergraph_PRJ_Spider_Boss_Twin_Multifireball__150&#45;&gt;ExecuteUbergraph_PRJ_Spider_Boss_Twin_Multifireball__186</title>
<path fill="none" stroke="black" d="M3063,-464.67C3063,-451.66 3063,-436.51 3063,-422.57"/>
<polygon fill="black" stroke="black" points="3066.5,-422.74 3063,-412.74 3059.5,-422.74 3066.5,-422.74"/>
</g>
<!-- ExecuteUbergraph_PRJ_Spider_Boss_Twin_Multifireball__222 -->
<g id="node16" class="node">
<title>ExecuteUbergraph_PRJ_Spider_Boss_Twin_Multifireball__222</title>
<polygon fill="#eeeeee" stroke="black" points="2927,-222.5 2927,-290.5 3199,-290.5 3199,-222.5 2927,-222.5"/>
<text text-anchor="start" x="2935" y="-275.3" font-family="monospace" font-size="14.00">EX_Context</text>
<text text-anchor="start" x="2935" y="-260.3" font-family="monospace" font-size="14.00">  EX_InstanceVariable [Audio]</text>
<text text-anchor="start" x="2935" y="-245.3" font-family="monospace" font-size="14.00">  EX_VirtualFunction Deactivate</text>
<text text-anchor="start" x="2935" y="-230.3" font-family="monospace" font-size="14.00">  RValue = []</text>
</g>
<!-- ExecuteUbergraph_PRJ_Spider_Boss_Twin_Multifireball__186&#45;&gt;ExecuteUbergraph_PRJ_Spider_Boss_Twin_Multifireball__222 -->
<g id="edge13" class="edge">
<title>ExecuteUbergraph_PRJ_Spider_Boss_Twin_Multifireball__186&#45;&gt;ExecuteUbergraph_PRJ_Spider_Boss_Twin_Multifireball__222</title>
<path fill="none" stroke="black" d="M3063,-343.67C3063,-330.66 3063,-315.51 3063,-301.57"/>
<polygon fill="black" stroke="black" points="3066.5,-301.74 3063,-291.74 3059.5,-301.74 3066.5,-301.74"/>
</g>
<!-- ExecuteUbergraph_PRJ_Spider_Boss_Twin_Multifireball__258 -->
<g id="node17" class="node">
<title>ExecuteUbergraph_PRJ_Spider_Boss_Twin_Multifireball__258</title>
<polygon fill="#eeeeee" stroke="black" points="3013.5,-148.5 3013.5,-184.5 3112.5,-184.5 3112.5,-148.5 3013.5,-148.5"/>
<text text-anchor="start" x="3021.5" y="-162.8" font-family="monospace" font-size="14.00">EX_Jump 89</text>
</g>
<!-- ExecuteUbergraph_PRJ_Spider_Boss_Twin_Multifireball__222&#45;&gt;ExecuteUbergraph_PRJ_Spider_Boss_Twin_Multifireball__258 -->
<g id="edge14" class="edge">
<title>ExecuteUbergraph_PRJ_Spider_Boss_Twin_Multifireball__222&#45;&gt;ExecuteUbergraph_PRJ_Spider_Boss_Twin_Multifireball__258</title>
<path fill="none" stroke="black" d="M3063,-222.73C3063,-213.83 3063,-204.27 3063,-195.65"/>
<polygon fill="black" stroke="black" points="3066.5,-195.77 3063,-185.77 3059.5,-195.77 3066.5,-195.77"/>
</g>
<!-- ExecuteUbergraph_PRJ_Spider_Boss_Twin_Multifireball__258&#45;&gt;ExecuteUbergraph_PRJ_Spider_Boss_Twin_Multifireball__89 -->
<g id="edge15" class="edge">
<title>ExecuteUbergraph_PRJ_Spider_Boss_Twin_Multifireball__258&#45;&gt;ExecuteUbergraph_PRJ_Spider_Boss_Twin_Multifireball__89</title>
<path fill="none" stroke="black" d="M3063,-148.8C3063,-140.71 3063,-130.78 3063,-121.57"/>
<polygon fill="black" stroke="black" points="3066.5,-121.62 3063,-111.62 3059.5,-121.62 3066.5,-121.62"/>
</g>
<!-- ExecuteUbergraph_PRJ_Spider_Boss_Twin_Multifireball__283 -->
<g id="node19" class="node">
<title>ExecuteUbergraph_PRJ_Spider_Boss_Twin_Multifireball__283</title>
<polygon fill="#eeeeee" stroke="black" points="3435.5,-479.5 3435.5,-517.5 3914.5,-517.5 3914.5,-479.5 3435.5,-479.5"/>
<text text-anchor="start" x="3443.5" y="-502.3" font-family="monospace" font-size="14.00">EX_PopExecutionFlowIfNot</text>
<text text-anchor="start" x="3443.5" y="-487.3" font-family="monospace" font-size="14.00">  EX_LocalVariable [CallFunc_HasAuthority_ReturnValue_1]</text>
</g>
<!-- ExecuteUbergraph_PRJ_Spider_Boss_Twin_Multifireball__263&#45;&gt;ExecuteUbergraph_PRJ_Spider_Boss_Twin_Multifireball__283 -->
<g id="edge16" class="edge">
<title>ExecuteUbergraph_PRJ_Spider_Boss_Twin_Multifireball__263&#45;&gt;ExecuteUbergraph_PRJ_Spider_Boss_Twin_Multifireball__283</title>
<path fill="none" stroke="black" d="M3675,-585.7C3675,-568.78 3675,-546.48 3675,-528.79"/>
<polygon fill="black" stroke="black" points="3678.5,-528.92 3675,-518.92 3671.5,-528.92 3678.5,-528.92"/>
</g>
<!-- ExecuteUbergraph_PRJ_Spider_Boss_Twin_Multifireball__293 -->
<g id="node20" class="node">
<title>ExecuteUbergraph_PRJ_Spider_Boss_Twin_Multifireball__293</title>
<polygon fill="#eeeeee" stroke="black" points="3336.5,-328.5 3336.5,-426.5 4013.5,-426.5 4013.5,-328.5 3336.5,-328.5"/>
<text text-anchor="start" x="3344.5" y="-411.3" font-family="monospace" font-size="14.00">EX_Context</text>
<text text-anchor="start" x="3344.5" y="-396.3" font-family="monospace" font-size="14.00">  EX_InstanceVariable [ProjectileExplosion]</text>
<text text-anchor="start" x="3344.5" y="-381.3" font-family="monospace" font-size="14.00">  EX_FinalFunction import /Script/FSD&#45;&gt;ExplosionBaseComponent&#45;&gt;DamageOnlyFromHit</text>
<text text-anchor="start" x="3344.5" y="-366.3" font-family="monospace" font-size="14.00">    EX_LocalVariable [K2Node_Event_HitResult]</text>
<text text-anchor="start" x="3344.5" y="-351.3" font-family="monospace" font-size="14.00">    EX_InstanceVariable [Damage]</text>
<text text-anchor="start" x="3344.5" y="-336.3" font-family="monospace" font-size="14.00">  RValue = []</text>
</g>
<!-- ExecuteUbergraph_PRJ_Spider_Boss_Twin_Multifireball__283&#45;&gt;ExecuteUbergraph_PRJ_Spider_Boss_Twin_Multifireball__293 -->
<g id="edge17" class="edge">
<title>ExecuteUbergraph_PRJ_Spider_Boss_Twin_Multifireball__283&#45;&gt;ExecuteUbergraph_PRJ_Spider_Boss_Twin_Multifireball__293</title>
<path fill="none" stroke="black" d="M3675,-479.68C3675,-468.31 3675,-452.85 3675,-437.44"/>
<polygon fill="black" stroke="black" points="3678.5,-437.81 3675,-427.81 3671.5,-437.81 3678.5,-437.81"/>
</g>
<!-- ExecuteUbergraph_PRJ_Spider_Boss_Twin_Multifireball__343 -->
<g id="node21" class="node">
<title>ExecuteUbergraph_PRJ_Spider_Boss_Twin_Multifireball__343</title>
<polygon fill="#eeeeee" stroke="black" points="3588.5,-238.5 3588.5,-274.5 3761.5,-274.5 3761.5,-238.5 3588.5,-238.5"/>
<text text-anchor="start" x="3596.5" y="-252.8" font-family="monospace" font-size="14.00">EX_PopExecutionFlow</text>
</g>
<!-- ExecuteUbergraph_PRJ_Spider_Boss_Twin_Multifireball__293&#45;&gt;ExecuteUbergraph_PRJ_Spider_Boss_Twin_Multifireball__343 -->
<g id="edge18" class="edge">
<title>ExecuteUbergraph_PRJ_Spider_Boss_Twin_Multifireball__293&#45;&gt;ExecuteUbergraph_PRJ_Spider_Boss_Twin_Multifireball__343</title>
<path fill="none" stroke="black" d="M3675,-328.78C3675,-314.18 3675,-298.59 3675,-285.73"/>
<polygon fill="black" stroke="black" points="3678.5,-285.86 3675,-275.86 3671.5,-285.86 3678.5,-285.86"/>
</g>
<!-- ExecuteUbergraph_PRJ_Spider_Boss_Twin_Multifireball__344 -->
<g id="node22" class="node">
<title>ExecuteUbergraph_PRJ_Spider_Boss_Twin_Multifireball__344</title>
<polygon fill="#eeeeee" stroke="black" points="3198.5,-841.5 3198.5,-877.5 3305.5,-877.5 3305.5,-841.5 3198.5,-841.5"/>
<text text-anchor="start" x="3206.5" y="-855.8" font-family="monospace" font-size="14.00">EX_Jump 104</text>
</g>
<!-- ExecuteUbergraph_PRJ_Spider_Boss_Twin_Multifireball__344&#45;&gt;ExecuteUbergraph_PRJ_Spider_Boss_Twin_Multifireball__104 -->
<g id="edge19" class="edge">
<title>ExecuteUbergraph_PRJ_Spider_Boss_Twin_Multifireball__344&#45;&gt;ExecuteUbergraph_PRJ_Spider_Boss_Twin_Multifireball__104</title>
<path fill="none" stroke="black" d="M3252,-841.72C3252,-824.36 3252,-796.93 3252,-776.23"/>
<polygon fill="black" stroke="black" points="3255.5,-776.45 3252,-766.45 3248.5,-776.45 3255.5,-776.45"/>
</g>
<!-- ExecuteUbergraph_PRJ_Spider_Boss_Twin_Multifireball__349 -->
<g id="node23" class="node">
<title>ExecuteUbergraph_PRJ_Spider_Boss_Twin_Multifireball__349</title>
<polygon fill="#eeeeee" stroke="black" points="1934.5,-1052 1934.5,-1088 2033.5,-1088 2033.5,-1052 1934.5,-1052"/>
<text text-anchor="start" x="1942.5" y="-1066.3" font-family="monospace" font-size="14.00">EX_Jump 15</text>
</g>
<!-- ExecuteUbergraph_PRJ_Spider_Boss_Twin_Multifireball__349&#45;&gt;ExecuteUbergraph_PRJ_Spider_Boss_Twin_Multifireball__15 -->
<g id="edge20" class="edge">
<title>ExecuteUbergraph_PRJ_Spider_Boss_Twin_Multifireball__349&#45;&gt;ExecuteUbergraph_PRJ_Spider_Boss_Twin_Multifireball__15</title>
<path fill="none" stroke="black" d="M1984,-1052.14C1984,-1033.9 1984,-1004.25 1984,-980.61"/>
<polygon fill="black" stroke="black" points="1987.5,-980.73 1984,-970.73 1980.5,-980.73 1987.5,-980.73"/>
</g>
<!-- ExecuteUbergraph_PRJ_Spider_Boss_Twin_Multifireball__356 -->
<g id="node25" class="node">
<title>ExecuteUbergraph_PRJ_Spider_Boss_Twin_Multifireball__356</title>
<polygon fill="#eeeeee" stroke="black" points="2772,-1227.5 2772,-1263.5 2904,-1263.5 2904,-1227.5 2772,-1227.5"/>
<text text-anchor="start" x="2780" y="-1241.8" font-family="monospace" font-size="14.00">EX_EndOfScript</text>
</g>
<!-- ReceiveBeginPlay -->
<g id="node26" class="node">
<title>ReceiveBeginPlay</title>
<polygon fill="#ff8888" stroke="black" points="1377.5,-1411 1377.5,-1447 1600.5,-1447 1600.5,-1411 1377.5,-1411"/>
<text text-anchor="start" x="1385.5" y="-1425.3" font-family="monospace" font-size="14.00">Function ReceiveBeginPlay</text>
</g>
<!-- ReceiveBeginPlay__0 -->
<g id="node27" class="node">
<title>ReceiveBeginPlay__0</title>
<polygon fill="#eeeeee" stroke="black" points="994,-1170.5 994,-1208.5 1984,-1208.5 1984,-1170.5 994,-1170.5"/>
<text text-anchor="start" x="1002" y="-1193.3" font-family="monospace" font-size="14.00">EX_LocalFinalFunction export PRJ_Spider_Boss_Twin_Multifireball_C&#45;&gt;ExecuteUbergraph_PRJ_Spider_Boss_Twin_Multifireball</text>
<text text-anchor="start" x="1002" y="-1178.3" font-family="monospace" font-size="14.00">  EX_IntConst 349</text>
</g>
<!-- ReceiveBeginPlay&#45;&gt;ReceiveBeginPlay__0 -->
<g id="edge21" class="edge">
<title>ReceiveBeginPlay&#45;&gt;ReceiveBeginPlay__0</title>
<path fill="none" stroke="black" d="M1489,-1411.3C1489,-1371.4 1489,-1270.14 1489,-1219.82"/>
<polygon fill="black" stroke="black" points="1492.5,-1219.98 1489,-1209.98 1485.5,-1219.98 1492.5,-1219.98"/>
</g>
<!-- ReceiveBeginPlay__0&#45;&gt;ExecuteUbergraph_PRJ_Spider_Boss_Twin_Multifireball__349 -->
<g id="edge22" class="edge">
<title>ReceiveBeginPlay__0:e&#45;&gt;ExecuteUbergraph_PRJ_Spider_Boss_Twin_Multifireball__349</title>
<path fill="none" stroke="red" d="M1985,-1189.5C2021.2,-1189.5 2007.17,-1133.52 1994.85,-1098.51"/>
<polygon fill="none" stroke="red" points="1998.24,-1097.58 1991.5,-1089.4 1991.67,-1099.99 1998.24,-1097.58"/>
</g>
<!-- ReceiveBeginPlay__15 -->
<g id="node28" class="node">
<title>ReceiveBeginPlay__15</title>
<polygon fill="#eeeeee" stroke="black" points="1431,-1051 1431,-1089 1547,-1089 1547,-1051 1431,-1051"/>
<text text-anchor="start" x="1439" y="-1073.8" font-family="monospace" font-size="14.00">EX_Return</text>
<text text-anchor="start" x="1439" y="-1058.8" font-family="monospace" font-size="14.00">  EX_Nothing</text>
</g>
<!-- ReceiveBeginPlay__0&#45;&gt;ReceiveBeginPlay__15 -->
<g id="edge23" class="edge">
<title>ReceiveBeginPlay__0&#45;&gt;ReceiveBeginPlay__15</title>
<path fill="none" stroke="black" d="M1489,-1170.65C1489,-1151.91 1489,-1122.14 1489,-1100.02"/>
<polygon fill="black" stroke="black" points="1492.5,-1100.14 1489,-1090.14 1485.5,-1100.14 1492.5,-1100.14"/>
</g>
<!-- ReceiveBeginPlay__17 -->
<g id="node29" class="node">
<title>ReceiveBeginPlay__17</title>
<polygon fill="#eeeeee" stroke="black" points="2772,-1115.5 2772,-1151.5 2904,-1151.5 2904,-1115.5 2772,-1115.5"/>
<text text-anchor="start" x="2780" y="-1129.8" font-family="monospace" font-size="14.00">EX_EndOfScript</text>
</g>
<!-- OnImpacted -->
<g id="node30" class="node">
<title>OnImpacted</title>
<polygon fill="#ff8888" stroke="black" points="2212.5,-1387.5 2212.5,-1470.5 3301.5,-1470.5 3301.5,-1387.5 2212.5,-1387.5"/>
<text text-anchor="start" x="2220.5" y="-1455.3" font-family="monospace" font-size="14.00">Function OnImpacted</text>
<text text-anchor="start" x="2220.5" y="-1440.3" font-family="monospace" font-size="14.00">  BoolProperty PredictedImpact</text>
<text text-anchor="start" x="2220.5" y="-1425.3" font-family="monospace" font-size="14.00">    CPF_BlueprintVisible|CPF_BlueprintReadOnly|CPF_Parm</text>
<text text-anchor="start" x="2220.5" y="-1410.3" font-family="monospace" font-size="14.00">  StructProperty HitResult</text>
<text text-anchor="start" x="2220.5" y="-1395.3" font-family="monospace" font-size="14.00">    CPF_ConstParm|CPF_BlueprintVisible|CPF_BlueprintReadOnly|CPF_Parm|CPF_OutParm|CPF_ReferenceParm|CPF_ContainsInstancedReference</text>
</g>
<!-- OnImpacted__0 -->
<g id="node31" class="node">
<title>OnImpacted__0</title>
<polygon fill="#eeeeee" stroke="black" points="2505.5,-1170.5 2505.5,-1208.5 3008.5,-1208.5 3008.5,-1170.5 2505.5,-1170.5"/>
<text text-anchor="start" x="2513.5" y="-1193.3" font-family="monospace" font-size="14.00">EX_LetValueOnPersistentFrame [K2Node_Event_PredictedImpact]</text>
<text text-anchor="start" x="2513.5" y="-1178.3" font-family="monospace" font-size="14.00">  EX_LocalVariable [PredictedImpact]</text>
</g>
<!-- OnImpacted&#45;&gt;OnImpacted__0 -->
<g id="edge24" class="edge">
<title>OnImpacted&#45;&gt;OnImpacted__0</title>
<path fill="none" stroke="black" d="M2757,-1387.71C2757,-1340.13 2757,-1262.14 2757,-1219.9"/>
<polygon fill="black" stroke="black" points="2760.5,-1220.01 2757,-1210.01 2753.5,-1220.01 2760.5,-1220.01"/>
</g>
<!-- OnImpacted__18 -->
<g id="node32" class="node">
<title>OnImpacted__18</title>
<polygon fill="#eeeeee" stroke="black" points="2530,-1043.5 2530,-1096.5 2984,-1096.5 2984,-1043.5 2530,-1043.5"/>
<text text-anchor="start" x="2538" y="-1081.3" font-family="monospace" font-size="14.00">EX_LetValueOnPersistentFrame [K2Node_Event_HitResult]</text>
<text text-anchor="start" x="2538" y="-1066.3" font-family="monospace" font-size="14.00">  EX_LocalOutVariable</text>
<text text-anchor="start" x="2538" y="-1051.3" font-family="monospace" font-size="14.00">    [HitResult]</text>
</g>
<!-- OnImpacted__0&#45;&gt;OnImpacted__18 -->
<g id="edge25" class="edge">
<title>OnImpacted__0&#45;&gt;OnImpacted__18</title>
<path fill="none" stroke="black" d="M2757,-1170.65C2757,-1154.05 2757,-1128.78 2757,-1107.85"/>
<polygon fill="black" stroke="black" points="2760.5,-1107.95 2757,-1097.95 2753.5,-1107.95 2760.5,-1107.95"/>
</g>
<!-- OnImpacted__36 -->
<g id="node33" class="node">
<title>OnImpacted__36</title>
<polygon fill="#eeeeee" stroke="black" points="2262,-924 2262,-962 3252,-962 3252,-924 2262,-924"/>
<text text-anchor="start" x="2270" y="-946.8" font-family="monospace" font-size="14.00">EX_LocalFinalFunction export PRJ_Spider_Boss_Twin_Multifireball_C&#45;&gt;ExecuteUbergraph_PRJ_Spider_Boss_Twin_Multifireball</text>
<text text-anchor="start" x="2270" y="-931.8" font-family="monospace" font-size="14.00">  EX_IntConst 344</text>
</g>
<!-- OnImpacted__18&#45;&gt;OnImpacted__36 -->
<g id="edge26" class="edge">
<title>OnImpacted__18&#45;&gt;OnImpacted__36</title>
<path fill="none" stroke="black" d="M2757,-1043.7C2757,-1023.33 2757,-994.67 2757,-973.31"/>
<polygon fill="black" stroke="black" points="2760.5,-973.5 2757,-963.5 2753.5,-973.5 2760.5,-973.5"/>
</g>
<!-- OnImpacted__36&#45;&gt;ExecuteUbergraph_PRJ_Spider_Boss_Twin_Multifireball__344 -->
<g id="edge27" class="edge">
<title>OnImpacted__36:e&#45;&gt;ExecuteUbergraph_PRJ_Spider_Boss_Twin_Multifireball__344</title>
<path fill="none" stroke="red" d="M3253,-943C3275.51,-943 3270.01,-911.92 3262.41,-887.92"/>
<polygon fill="none" stroke="red" points="3265.78,-886.96 3259.23,-878.63 3259.15,-889.22 3265.78,-886.96"/>
</g>
<!-- OnImpacted__51 -->
<g id="node34" class="node">
<title>OnImpacted__51</title>
<polygon fill="#eeeeee" stroke="black" points="2699,-840.5 2699,-878.5 2815,-878.5 2815,-840.5 2699,-840.5"/>
<text text-anchor="start" x="2707" y="-863.3" font-family="monospace" font-size="14.00">EX_Return</text>
<text text-anchor="start" x="2707" y="-848.3" font-family="monospace" font-size="14.00">  EX_Nothing</text>
</g>
<!-- OnImpacted__36&#45;&gt;OnImpacted__51 -->
<g id="edge28" class="edge">
<title>OnImpacted__36&#45;&gt;OnImpacted__51</title>
<path fill="none" stroke="black" d="M2757,-924.32C2757,-914.24 2757,-901.36 2757,-889.81"/>
<polygon fill="black" stroke="black" points="2760.5,-889.94 2757,-879.94 2753.5,-889.94 2760.5,-889.94"/>
</g>
<!-- OnImpacted__53 -->
<g id="node35" class="node">
<title>OnImpacted__53</title>
<polygon fill="#eeeeee" stroke="black" points="2772,-988.5 2772,-1024.5 2904,-1024.5 2904,-988.5 2772,-988.5"/>
<text text-anchor="start" x="2780" y="-1002.8" font-family="monospace" font-size="14.00">EX_EndOfScript</text>
</g>
</g>
</svg>
