<?xml version="1.0" encoding="UTF-8" standalone="no"?>
<!DOCTYPE svg PUBLIC "-//W3C//DTD SVG 1.1//EN"
 "http://www.w3.org/Graphics/SVG/1.1/DTD/svg11.dtd">
<!-- Generated by graphviz version 7.0.1 (0)
 -->
<!-- Pages: 1 -->
<svg width="1558pt" height="557pt"
 viewBox="0.00 0.00 1558.00 557.00" xmlns="http://www.w3.org/2000/svg" xmlns:xlink="http://www.w3.org/1999/xlink">
<g id="graph0" class="graph" transform="scale(1 1) rotate(0) translate(4 553)">
<polygon fill="white" stroke="none" points="-4,4 -4,-553 1554,-553 1554,4 -4,4"/>
<!-- ABP_FacilityTurret_C -->
<g id="node1" class="node">
<title>ABP_FacilityTurret_C</title>
<polygon fill="#88ff88" stroke="black" points="0,-195.5 0,-548.5 520,-548.5 520,-195.5 0,-195.5"/>
<text text-anchor="start" x="8" y="-533.3" font-family="monospace" font-size="14.00">ClassExport: ABP_FacilityTurret_C</text>
<text text-anchor="start" x="8" y="-518.3" font-family="monospace" font-size="14.00">  SuperStruct: import /Script/FSD&#45;&gt;FacilityTurretAnimInstance</text>
<text text-anchor="start" x="8" y="-503.3" font-family="monospace" font-size="14.00">  Properties:</text>
<text text-anchor="start" x="8" y="-488.3" font-family="monospace" font-size="14.00">    StructProperty UberGraphFrame</text>
<text text-anchor="start" x="8" y="-473.3" font-family="monospace" font-size="14.00">      CPF_Transient|CPF_DuplicateTransient</text>
<text text-anchor="start" x="8" y="-458.3" font-family="monospace" font-size="14.00">    StructProperty AnimGraphNode_Root</text>
<text text-anchor="start" x="8" y="-443.3" font-family="monospace" font-size="14.00">    StructProperty AnimGraphNode_TransitionResult_3</text>
<text text-anchor="start" x="8" y="-428.3" font-family="monospace" font-size="14.00">    StructProperty AnimGraphNode_TransitionResult_2</text>
<text text-anchor="start" x="8" y="-413.3" font-family="monospace" font-size="14.00">    StructProperty AnimGraphNode_TransitionResult_1</text>
<text text-anchor="start" x="8" y="-398.3" font-family="monospace" font-size="14.00">    StructProperty AnimGraphNode_TransitionResult</text>
<text text-anchor="start" x="8" y="-383.3" font-family="monospace" font-size="14.00">    StructProperty AnimGraphNode_ModifyBone_1</text>
<text text-anchor="start" x="8" y="-368.3" font-family="monospace" font-size="14.00">    StructProperty AnimGraphNode_ComponentToLocalSpace</text>
<text text-anchor="start" x="8" y="-353.3" font-family="monospace" font-size="14.00">    StructProperty AnimGraphNode_LocalToComponentSpace</text>
<text text-anchor="start" x="8" y="-338.3" font-family="monospace" font-size="14.00">    StructProperty AnimGraphNode_ModifyBone</text>
<text text-anchor="start" x="8" y="-323.3" font-family="monospace" font-size="14.00">    StructProperty AnimGraphNode_SequencePlayer_3</text>
<text text-anchor="start" x="8" y="-308.3" font-family="monospace" font-size="14.00">    StructProperty AnimGraphNode_StateResult_3</text>
<text text-anchor="start" x="8" y="-293.3" font-family="monospace" font-size="14.00">    StructProperty AnimGraphNode_SequencePlayer_2</text>
<text text-anchor="start" x="8" y="-278.3" font-family="monospace" font-size="14.00">    StructProperty AnimGraphNode_StateResult_2</text>
<text text-anchor="start" x="8" y="-263.3" font-family="monospace" font-size="14.00">    StructProperty AnimGraphNode_SequencePlayer_1</text>
<text text-anchor="start" x="8" y="-248.3" font-family="monospace" font-size="14.00">    StructProperty AnimGraphNode_StateResult_1</text>
<text text-anchor="start" x="8" y="-233.3" font-family="monospace" font-size="14.00">    StructProperty AnimGraphNode_SequencePlayer</text>
<text text-anchor="start" x="8" y="-218.3" font-family="monospace" font-size="14.00">    StructProperty AnimGraphNode_StateResult</text>
<text text-anchor="start" x="8" y="-203.3" font-family="monospace" font-size="14.00">    StructProperty AnimGraphNode_StateMachine</text>
</g>
<!-- ExecuteUbergraph_ABP_FacilityTurret -->
<g id="node2" class="node">
<title>ExecuteUbergraph_ABP_FacilityTurret</title>
<polygon fill="#ff8888" stroke="black" points="538,-345.5 538,-398.5 1008,-398.5 1008,-345.5 538,-345.5"/>
<text text-anchor="start" x="546" y="-383.3" font-family="monospace" font-size="14.00">Function ExecuteUbergraph_ABP_FacilityTurret</text>
<text text-anchor="start" x="546" y="-368.3" font-family="monospace" font-size="14.00">  IntProperty EntryPoint</text>
<text text-anchor="start" x="546" y="-353.3" font-family="monospace" font-size="14.00">    CPF_BlueprintVisible|CPF_BlueprintReadOnly|CPF_Parm</text>
</g>
<!-- ExecuteUbergraph_ABP_FacilityTurret__0 -->
<g id="node3" class="node">
<title>ExecuteUbergraph_ABP_FacilityTurret__0</title>
<polygon fill="#eeeeee" stroke="black" points="637,-98 637,-136 909,-136 909,-98 637,-98"/>
<text text-anchor="start" x="645" y="-120.8" font-family="monospace" font-size="14.00">EX_ComputedJump</text>
<text text-anchor="start" x="645" y="-105.8" font-family="monospace" font-size="14.00">  EX_LocalVariable [EntryPoint]</text>
</g>
<!-- ExecuteUbergraph_ABP_FacilityTurret&#45;&gt;ExecuteUbergraph_ABP_FacilityTurret__0 -->
<g id="edge1" class="edge">
<title>ExecuteUbergraph_ABP_FacilityTurret&#45;&gt;ExecuteUbergraph_ABP_FacilityTurret__0</title>
<path fill="none" stroke="black" d="M773,-345.82C773,-298.59 773,-197 773,-147"/>
<polygon fill="black" stroke="black" points="776.5,-147.26 773,-137.26 769.5,-147.26 776.5,-147.26"/>
</g>
<!-- ExecuteUbergraph_ABP_FacilityTurret__10 -->
<g id="node4" class="node">
<title>ExecuteUbergraph_ABP_FacilityTurret__10</title>
<polygon fill="#eeeeee" stroke="black" points="1092,-0.5 1092,-38.5 1208,-38.5 1208,-0.5 1092,-0.5"/>
<text text-anchor="start" x="1100" y="-23.3" font-family="monospace" font-size="14.00">EX_Return</text>
<text text-anchor="start" x="1100" y="-8.3" font-family="monospace" font-size="14.00">  EX_Nothing</text>
</g>
<!-- ExecuteUbergraph_ABP_FacilityTurret__12 -->
<g id="node5" class="node">
<title>ExecuteUbergraph_ABP_FacilityTurret__12</title>
<polygon fill="#eeeeee" stroke="black" points="927,-99 927,-135 1059,-135 1059,-99 927,-99"/>
<text text-anchor="start" x="935" y="-113.3" font-family="monospace" font-size="14.00">EX_EndOfScript</text>
</g>
<!-- AnimGraph -->
<g id="node6" class="node">
<title>AnimGraph</title>
<polygon fill="#ff8888" stroke="black" points="1168.5,-345.5 1168.5,-398.5 1399.5,-398.5 1399.5,-345.5 1168.5,-345.5"/>
<text text-anchor="start" x="1176.5" y="-383.3" font-family="monospace" font-size="14.00">Function AnimGraph</text>
<text text-anchor="start" x="1176.5" y="-368.3" font-family="monospace" font-size="14.00">  StructProperty AnimGraph</text>
<text text-anchor="start" x="1176.5" y="-353.3" font-family="monospace" font-size="14.00">    CPF_Parm|CPF_OutParm</text>
</g>
<!-- AnimGraph__0 -->
<g id="node7" class="node">
<title>AnimGraph__0</title>
<polygon fill="#eeeeee" stroke="black" points="1077.5,-75.5 1077.5,-158.5 1490.5,-158.5 1490.5,-75.5 1077.5,-75.5"/>
<text text-anchor="start" x="1085.5" y="-143.3" font-family="monospace" font-size="14.00">EX_Let</text>
<text text-anchor="start" x="1085.5" y="-128.3" font-family="monospace" font-size="14.00">  EX_LocalOutVariable</text>
<text text-anchor="start" x="1085.5" y="-113.3" font-family="monospace" font-size="14.00">    [AnimGraph]</text>
<text text-anchor="start" x="1085.5" y="-98.3" font-family="monospace" font-size="14.00">  EX_StructConst import /Script/Engine&#45;&gt;PoseLink</text>
<text text-anchor="start" x="1085.5" y="-83.3" font-family="monospace" font-size="14.00">    EX_IntConst &#45;1</text>
</g>
<!-- AnimGraph&#45;&gt;AnimGraph__0 -->
<g id="edge2" class="edge">
<title>AnimGraph&#45;&gt;AnimGraph__0</title>
<path fill="none" stroke="black" d="M1284,-345.82C1284,-304.94 1284,-223.35 1284,-169.72"/>
<polygon fill="black" stroke="black" points="1287.5,-169.91 1284,-159.91 1280.5,-169.91 1287.5,-169.91"/>
</g>
<!-- AnimGraph__37 -->
<g id="node8" class="node">
<title>AnimGraph__37</title>
<polygon fill="#eeeeee" stroke="black" points="1226,-0.5 1226,-38.5 1342,-38.5 1342,-0.5 1226,-0.5"/>
<text text-anchor="start" x="1234" y="-23.3" font-family="monospace" font-size="14.00">EX_Return</text>
<text text-anchor="start" x="1234" y="-8.3" font-family="monospace" font-size="14.00">  EX_Nothing</text>
</g>
<!-- AnimGraph__0&#45;&gt;AnimGraph__37 -->
<g id="edge3" class="edge">
<title>AnimGraph__0&#45;&gt;AnimGraph__37</title>
<path fill="none" stroke="black" d="M1284,-75.78C1284,-67.01 1284,-57.89 1284,-49.65"/>
<polygon fill="black" stroke="black" points="1287.5,-49.86 1284,-39.86 1280.5,-49.86 1287.5,-49.86"/>
</g>
<!-- AnimGraph__39 -->
<g id="node9" class="node">
<title>AnimGraph__39</title>
<polygon fill="#eeeeee" stroke="black" points="1418,-354 1418,-390 1550,-390 1550,-354 1418,-354"/>
<text text-anchor="start" x="1426" y="-368.3" font-family="monospace" font-size="14.00">EX_EndOfScript</text>
</g>
</g>
</svg>
