<?xml version="1.0" encoding="UTF-8" standalone="no"?>
<!DOCTYPE svg PUBLIC "-//W3C//DTD SVG 1.1//EN"
 "http://www.w3.org/Graphics/SVG/1.1/DTD/svg11.dtd">
<!-- Generated by graphviz version 7.0.1 (0)
 -->
<!-- Pages: 1 -->
<svg width="3192pt" height="2751pt"
 viewBox="0.00 0.00 3192.00 2751.00" xmlns="http://www.w3.org/2000/svg" xmlns:xlink="http://www.w3.org/1999/xlink">
<g id="graph0" class="graph" transform="scale(1 1) rotate(0) translate(4 2747)">
<polygon fill="white" stroke="none" points="-4,4 -4,-2747 3188,-2747 3188,4 -4,4"/>
<!-- BP_Refinery_WarningLight_C -->
<g id="node1" class="node">
<title>BP_Refinery_WarningLight_C</title>
<polygon fill="#88ff88" stroke="black" points="0,-2502 0,-2675 594,-2675 594,-2502 0,-2502"/>
<text text-anchor="start" x="8" y="-2659.8" font-family="monospace" font-size="14.00">ClassExport: BP_Refinery_WarningLight_C</text>
<text text-anchor="start" x="8" y="-2644.8" font-family="monospace" font-size="14.00">  SuperStruct: import /Script/Engine&#45;&gt;Actor</text>
<text text-anchor="start" x="8" y="-2629.8" font-family="monospace" font-size="14.00">  Properties:</text>
<text text-anchor="start" x="8" y="-2614.8" font-family="monospace" font-size="14.00">    StructProperty UberGraphFrame</text>
<text text-anchor="start" x="8" y="-2599.8" font-family="monospace" font-size="14.00">      CPF_Transient|CPF_DuplicateTransient</text>
<text text-anchor="start" x="8" y="-2584.8" font-family="monospace" font-size="14.00">    ObjectProperty PointLight</text>
<text text-anchor="start" x="8" y="-2569.8" font-family="monospace" font-size="14.00">      CPF_BlueprintVisible|CPF_InstancedReference|CPF_NonTransactional</text>
<text text-anchor="start" x="8" y="-2554.8" font-family="monospace" font-size="14.00">    ObjectProperty ST_Refinery_WarningLight</text>
<text text-anchor="start" x="8" y="-2539.8" font-family="monospace" font-size="14.00">      CPF_BlueprintVisible|CPF_InstancedReference|CPF_NonTransactional</text>
<text text-anchor="start" x="8" y="-2524.8" font-family="monospace" font-size="14.00">    ObjectProperty DefaultSceneRoot</text>
<text text-anchor="start" x="8" y="-2509.8" font-family="monospace" font-size="14.00">      CPF_BlueprintVisible|CPF_InstancedReference|CPF_NonTransactional</text>
</g>
<!-- ExecuteUbergraph_BP_Refinery_WarningLight -->
<g id="node2" class="node">
<title>ExecuteUbergraph_BP_Refinery_WarningLight</title>
<polygon fill="#ff8888" stroke="black" points="612,-2434.5 612,-2742.5 1124,-2742.5 1124,-2434.5 612,-2434.5"/>
<text text-anchor="start" x="620" y="-2727.3" font-family="monospace" font-size="14.00">Function ExecuteUbergraph_BP_Refinery_WarningLight</text>
<text text-anchor="start" x="620" y="-2712.3" font-family="monospace" font-size="14.00">  IntProperty EntryPoint</text>
<text text-anchor="start" x="620" y="-2697.3" font-family="monospace" font-size="14.00">    CPF_BlueprintVisible|CPF_BlueprintReadOnly|CPF_Parm</text>
<text text-anchor="start" x="620" y="-2682.3" font-family="monospace" font-size="14.00">  ObjectProperty CallFunc_GetFSDGameUserSettings_ReturnValue</text>
<text text-anchor="start" x="620" y="-2667.3" font-family="monospace" font-size="14.00">  BoolProperty Temp_bool_Variable</text>
<text text-anchor="start" x="620" y="-2652.3" font-family="monospace" font-size="14.00">  BoolProperty CallFunc_GetPhotosensitiveMode_ReturnValue</text>
<text text-anchor="start" x="620" y="-2637.3" font-family="monospace" font-size="14.00">  ObjectProperty Temp_object_Variable</text>
<text text-anchor="start" x="620" y="-2622.3" font-family="monospace" font-size="14.00">  BoolProperty Temp_bool_Variable_1</text>
<text text-anchor="start" x="620" y="-2607.3" font-family="monospace" font-size="14.00">  ObjectProperty Temp_object_Variable_1</text>
<text text-anchor="start" x="620" y="-2592.3" font-family="monospace" font-size="14.00">  ObjectProperty Temp_object_Variable_2</text>
<text text-anchor="start" x="620" y="-2577.3" font-family="monospace" font-size="14.00">  ObjectProperty K2Node_Select_Default</text>
<text text-anchor="start" x="620" y="-2562.3" font-family="monospace" font-size="14.00">  ObjectProperty CallFunc_GetParentActor_ReturnValue</text>
<text text-anchor="start" x="620" y="-2547.3" font-family="monospace" font-size="14.00">  EnumProperty K2Node_CustomEvent_InRefineryState</text>
<text text-anchor="start" x="620" y="-2532.3" font-family="monospace" font-size="14.00">  ObjectProperty K2Node_DynamicCast_AsFSDRefinery</text>
<text text-anchor="start" x="620" y="-2517.3" font-family="monospace" font-size="14.00">  BoolProperty K2Node_DynamicCast_bSuccess</text>
<text text-anchor="start" x="620" y="-2502.3" font-family="monospace" font-size="14.00">  BoolProperty CallFunc_EqualEqual_ByteByte_ReturnValue</text>
<text text-anchor="start" x="620" y="-2487.3" font-family="monospace" font-size="14.00">  BoolProperty CallFunc_EqualEqual_ByteByte_ReturnValue_1</text>
<text text-anchor="start" x="620" y="-2472.3" font-family="monospace" font-size="14.00">  BoolProperty CallFunc_BooleanOR_ReturnValue</text>
<text text-anchor="start" x="620" y="-2457.3" font-family="monospace" font-size="14.00">  ObjectProperty K2Node_Select_Default_1</text>
<text text-anchor="start" x="620" y="-2442.3" font-family="monospace" font-size="14.00">  DelegateProperty K2Node_CreateDelegate_OutputDelegate</text>
</g>
<!-- ExecuteUbergraph_BP_Refinery_WarningLight__0 -->
<g id="node3" class="node">
<title>ExecuteUbergraph_BP_Refinery_WarningLight__0</title>
<polygon fill="#eeeeee" stroke="black" points="732,-2322.5 732,-2360.5 1004,-2360.5 1004,-2322.5 732,-2322.5"/>
<text text-anchor="start" x="740" y="-2345.3" font-family="monospace" font-size="14.00">EX_ComputedJump</text>
<text text-anchor="start" x="740" y="-2330.3" font-family="monospace" font-size="14.00">  EX_LocalVariable [EntryPoint]</text>
</g>
<!-- ExecuteUbergraph_BP_Refinery_WarningLight&#45;&gt;ExecuteUbergraph_BP_Refinery_WarningLight__0 -->
<g id="edge1" class="edge">
<title>ExecuteUbergraph_BP_Refinery_WarningLight&#45;&gt;ExecuteUbergraph_BP_Refinery_WarningLight__0</title>
<path fill="none" stroke="black" d="M868,-2434.77C868,-2410.57 868,-2388.05 868,-2371.32"/>
<polygon fill="black" stroke="black" points="871.5,-2371.72 868,-2361.72 864.5,-2371.72 871.5,-2371.72"/>
</g>
<!-- ExecuteUbergraph_BP_Refinery_WarningLight__10 -->
<g id="node4" class="node">
<title>ExecuteUbergraph_BP_Refinery_WarningLight__10</title>
<polygon fill="#eeeeee" stroke="black" points="2648,-1356.5 2648,-1409.5 3184,-1409.5 3184,-1356.5 2648,-1356.5"/>
<text text-anchor="start" x="2656" y="-1394.3" font-family="monospace" font-size="14.00">EX_LetObj</text>
<text text-anchor="start" x="2656" y="-1379.3" font-family="monospace" font-size="14.00">  EX_LocalVariable [CallFunc_GetParentActor_ReturnValue]</text>
<text text-anchor="start" x="2656" y="-1364.3" font-family="monospace" font-size="14.00">  EX_FinalFunction import /Script/Engine&#45;&gt;Actor&#45;&gt;GetParentActor</text>
</g>
<!-- ExecuteUbergraph_BP_Refinery_WarningLight__30 -->
<g id="node5" class="node">
<title>ExecuteUbergraph_BP_Refinery_WarningLight__30</title>
<polygon fill="#eeeeee" stroke="black" points="2591.5,-1228 2591.5,-1296 3086.5,-1296 3086.5,-1228 2591.5,-1228"/>
<text text-anchor="start" x="2599.5" y="-1280.8" font-family="monospace" font-size="14.00">EX_Let</text>
<text text-anchor="start" x="2599.5" y="-1265.8" font-family="monospace" font-size="14.00">  EX_LocalVariable [K2Node_DynamicCast_AsFSDRefinery]</text>
<text text-anchor="start" x="2599.5" y="-1250.8" font-family="monospace" font-size="14.00">  EX_DynamicCast import /Script/FSD&#45;&gt;FSDRefinery</text>
<text text-anchor="start" x="2599.5" y="-1235.8" font-family="monospace" font-size="14.00">    EX_LocalVariable [CallFunc_GetParentActor_ReturnValue]</text>
</g>
<!-- ExecuteUbergraph_BP_Refinery_WarningLight__10&#45;&gt;ExecuteUbergraph_BP_Refinery_WarningLight__30 -->
<g id="edge2" class="edge">
<title>ExecuteUbergraph_BP_Refinery_WarningLight__10&#45;&gt;ExecuteUbergraph_BP_Refinery_WarningLight__30</title>
<path fill="none" stroke="black" d="M2899.67,-1356.76C2889.99,-1341.8 2877.46,-1322.44 2866.31,-1305.21"/>
<polygon fill="black" stroke="black" points="2869.48,-1303.66 2861.1,-1297.16 2863.6,-1307.46 2869.48,-1303.66"/>
</g>
<!-- ExecuteUbergraph_BP_Refinery_WarningLight__66 -->
<g id="node6" class="node">
<title>ExecuteUbergraph_BP_Refinery_WarningLight__66</title>
<polygon fill="#eeeeee" stroke="black" points="2573,-1114.5 2573,-1182.5 3043,-1182.5 3043,-1114.5 2573,-1114.5"/>
<text text-anchor="start" x="2581" y="-1167.3" font-family="monospace" font-size="14.00">EX_Let</text>
<text text-anchor="start" x="2581" y="-1152.3" font-family="monospace" font-size="14.00">  EX_LocalVariable [K2Node_DynamicCast_bSuccess]</text>
<text text-anchor="start" x="2581" y="-1137.3" font-family="monospace" font-size="14.00">  EX_PrimitiveCast ObjectToBool</text>
<text text-anchor="start" x="2581" y="-1122.3" font-family="monospace" font-size="14.00">    EX_LocalVariable [K2Node_DynamicCast_AsFSDRefinery]</text>
</g>
<!-- ExecuteUbergraph_BP_Refinery_WarningLight__30&#45;&gt;ExecuteUbergraph_BP_Refinery_WarningLight__66 -->
<g id="edge3" class="edge">
<title>ExecuteUbergraph_BP_Refinery_WarningLight__30&#45;&gt;ExecuteUbergraph_BP_Refinery_WarningLight__66</title>
<path fill="none" stroke="black" d="M2829.87,-1228.15C2826.81,-1217.15 2823.35,-1204.71 2820.1,-1193.02"/>
<polygon fill="black" stroke="black" points="2823.52,-1192.27 2817.47,-1183.57 2816.78,-1194.15 2823.52,-1192.27"/>
</g>
<!-- ExecuteUbergraph_BP_Refinery_WarningLight__95 -->
<g id="node7" class="node">
<title>ExecuteUbergraph_BP_Refinery_WarningLight__95</title>
<polygon fill="#eeeeee" stroke="black" points="2586.5,-828.5 2586.5,-866.5 2999.5,-866.5 2999.5,-828.5 2586.5,-828.5"/>
<text text-anchor="start" x="2594.5" y="-851.3" font-family="monospace" font-size="14.00">EX_JumpIfNot 760</text>
<text text-anchor="start" x="2594.5" y="-836.3" font-family="monospace" font-size="14.00">  EX_LocalVariable [K2Node_DynamicCast_bSuccess]</text>
</g>
<!-- ExecuteUbergraph_BP_Refinery_WarningLight__66&#45;&gt;ExecuteUbergraph_BP_Refinery_WarningLight__95 -->
<g id="edge4" class="edge">
<title>ExecuteUbergraph_BP_Refinery_WarningLight__66&#45;&gt;ExecuteUbergraph_BP_Refinery_WarningLight__95</title>
<path fill="none" stroke="black" d="M2806.35,-1114.65C2803.4,-1055.85 2797.27,-933.57 2794.46,-877.6"/>
<polygon fill="black" stroke="black" points="2797.97,-877.73 2793.97,-867.92 2790.98,-878.08 2797.97,-877.73"/>
</g>
<!-- ExecuteUbergraph_BP_Refinery_WarningLight__109 -->
<g id="node8" class="node">
<title>ExecuteUbergraph_BP_Refinery_WarningLight__109</title>
<polygon fill="#eeeeee" stroke="black" points="2484.5,-498.5 2484.5,-551.5 2971.5,-551.5 2971.5,-498.5 2484.5,-498.5"/>
<text text-anchor="start" x="2492.5" y="-536.3" font-family="monospace" font-size="14.00">EX_BindDelegate OnRefineryStateChanged</text>
<text text-anchor="start" x="2492.5" y="-521.3" font-family="monospace" font-size="14.00">  EX_LocalVariable [K2Node_CreateDelegate_OutputDelegate]</text>
<text text-anchor="start" x="2492.5" y="-506.3" font-family="monospace" font-size="14.00">  EX_Self</text>
</g>
<!-- ExecuteUbergraph_BP_Refinery_WarningLight__95&#45;&gt;ExecuteUbergraph_BP_Refinery_WarningLight__109 -->
<g id="edge6" class="edge">
<title>ExecuteUbergraph_BP_Refinery_WarningLight__95&#45;&gt;ExecuteUbergraph_BP_Refinery_WarningLight__109</title>
<path fill="none" stroke="black" d="M2789.41,-828.81C2779.12,-778.07 2749.35,-631.29 2735.39,-562.45"/>
<polygon fill="black" stroke="black" points="2738.85,-561.91 2733.44,-552.8 2731.99,-563.3 2738.85,-561.91"/>
<text text-anchor="middle" x="2750.5" y="-588.8" font-family="monospace" font-size="14.00">IF</text>
</g>
<!-- ExecuteUbergraph_BP_Refinery_WarningLight__760 -->
<g id="node27" class="node">
<title>ExecuteUbergraph_BP_Refinery_WarningLight__760</title>
<polygon fill="#eeeeee" stroke="black" points="2670,-0.5 2670,-38.5 2786,-38.5 2786,-0.5 2670,-0.5"/>
<text text-anchor="start" x="2678" y="-23.3" font-family="monospace" font-size="14.00">EX_Return</text>
<text text-anchor="start" x="2678" y="-8.3" font-family="monospace" font-size="14.00">  EX_Nothing</text>
</g>
<!-- ExecuteUbergraph_BP_Refinery_WarningLight__95&#45;&gt;ExecuteUbergraph_BP_Refinery_WarningLight__760 -->
<g id="edge5" class="edge">
<title>ExecuteUbergraph_BP_Refinery_WarningLight__95:e&#45;&gt;ExecuteUbergraph_BP_Refinery_WarningLight__760</title>
<path fill="none" stroke="red" d="M3001,-847.5C3143.89,-847.5 3000,-668.89 3000,-526 3000,-526 3000,-526 3000,-124.5 3000,-81.04 2877.34,-49.05 2796.76,-32.72"/>
<polygon fill="none" stroke="red" points="2797.66,-29.34 2787.17,-30.82 2796.3,-36.2 2797.66,-29.34"/>
<text text-anchor="middle" x="3025" y="-317.8" font-family="monospace" font-size="14.00">IF NOT</text>
</g>
<!-- ExecuteUbergraph_BP_Refinery_WarningLight__132 -->
<g id="node9" class="node">
<title>ExecuteUbergraph_BP_Refinery_WarningLight__132</title>
<polygon fill="#eeeeee" stroke="black" points="2484.5,-347.5 2484.5,-445.5 2971.5,-445.5 2971.5,-347.5 2484.5,-347.5"/>
<text text-anchor="start" x="2492.5" y="-430.3" font-family="monospace" font-size="14.00">EX_AddMulticastDelegate</text>
<text text-anchor="start" x="2492.5" y="-415.3" font-family="monospace" font-size="14.00">  EX_Context</text>
<text text-anchor="start" x="2492.5" y="-400.3" font-family="monospace" font-size="14.00">    EX_LocalVariable [K2Node_DynamicCast_AsFSDRefinery]</text>
<text text-anchor="start" x="2492.5" y="-385.3" font-family="monospace" font-size="14.00">    EX_InstanceVariable [OnRefineryStateChanged]</text>
<text text-anchor="start" x="2492.5" y="-370.3" font-family="monospace" font-size="14.00">    RValue = [OnRefineryStateChanged]</text>
<text text-anchor="start" x="2492.5" y="-355.3" font-family="monospace" font-size="14.00">  EX_LocalVariable [K2Node_CreateDelegate_OutputDelegate]</text>
</g>
<!-- ExecuteUbergraph_BP_Refinery_WarningLight__109&#45;&gt;ExecuteUbergraph_BP_Refinery_WarningLight__132 -->
<g id="edge7" class="edge">
<title>ExecuteUbergraph_BP_Refinery_WarningLight__109&#45;&gt;ExecuteUbergraph_BP_Refinery_WarningLight__132</title>
<path fill="none" stroke="black" d="M2728,-498.7C2728,-486.52 2728,-471.36 2728,-456.52"/>
<polygon fill="black" stroke="black" points="2731.5,-456.79 2728,-446.79 2724.5,-456.79 2731.5,-456.79"/>
</g>
<!-- ExecuteUbergraph_BP_Refinery_WarningLight__173 -->
<g id="node10" class="node">
<title>ExecuteUbergraph_BP_Refinery_WarningLight__173</title>
<polygon fill="#eeeeee" stroke="black" points="2493,-212.5 2493,-295.5 2963,-295.5 2963,-212.5 2493,-212.5"/>
<text text-anchor="start" x="2501" y="-280.3" font-family="monospace" font-size="14.00">EX_LocalVirtualFunction OnRefineryStateChanged</text>
<text text-anchor="start" x="2501" y="-265.3" font-family="monospace" font-size="14.00">  EX_Context</text>
<text text-anchor="start" x="2501" y="-250.3" font-family="monospace" font-size="14.00">    EX_LocalVariable [K2Node_DynamicCast_AsFSDRefinery]</text>
<text text-anchor="start" x="2501" y="-235.3" font-family="monospace" font-size="14.00">    EX_InstanceVariable [RefineryState]</text>
<text text-anchor="start" x="2501" y="-220.3" font-family="monospace" font-size="14.00">    RValue = [RefineryState]</text>
</g>
<!-- ExecuteUbergraph_BP_Refinery_WarningLight__132&#45;&gt;ExecuteUbergraph_BP_Refinery_WarningLight__173 -->
<g id="edge8" class="edge">
<title>ExecuteUbergraph_BP_Refinery_WarningLight__132&#45;&gt;ExecuteUbergraph_BP_Refinery_WarningLight__173</title>
<path fill="none" stroke="black" d="M2728,-347.54C2728,-334.38 2728,-320.06 2728,-306.7"/>
<polygon fill="black" stroke="black" points="2731.5,-306.78 2728,-296.78 2724.5,-306.78 2731.5,-306.78"/>
</g>
<!-- ExecuteUbergraph_BP_Refinery_WarningLight__218 -->
<g id="node11" class="node">
<title>ExecuteUbergraph_BP_Refinery_WarningLight__218</title>
<polygon fill="#eeeeee" stroke="black" points="2674.5,-107.5 2674.5,-143.5 2781.5,-143.5 2781.5,-107.5 2674.5,-107.5"/>
<text text-anchor="start" x="2682.5" y="-121.8" font-family="monospace" font-size="14.00">EX_Jump 760</text>
</g>
<!-- ExecuteUbergraph_BP_Refinery_WarningLight__173&#45;&gt;ExecuteUbergraph_BP_Refinery_WarningLight__218 -->
<g id="edge9" class="edge">
<title>ExecuteUbergraph_BP_Refinery_WarningLight__173&#45;&gt;ExecuteUbergraph_BP_Refinery_WarningLight__218</title>
<path fill="none" stroke="black" d="M2728,-212.63C2728,-193.78 2728,-171.79 2728,-154.75"/>
<polygon fill="black" stroke="black" points="2731.5,-154.85 2728,-144.85 2724.5,-154.85 2731.5,-154.85"/>
</g>
<!-- ExecuteUbergraph_BP_Refinery_WarningLight__218&#45;&gt;ExecuteUbergraph_BP_Refinery_WarningLight__760 -->
<g id="edge10" class="edge">
<title>ExecuteUbergraph_BP_Refinery_WarningLight__218&#45;&gt;ExecuteUbergraph_BP_Refinery_WarningLight__760</title>
<path fill="none" stroke="black" d="M2728,-107.79C2728,-92.15 2728,-68.45 2728,-49.69"/>
<polygon fill="black" stroke="black" points="2731.5,-49.73 2728,-39.73 2724.5,-49.73 2731.5,-49.73"/>
</g>
<!-- ExecuteUbergraph_BP_Refinery_WarningLight__223 -->
<g id="node12" class="node">
<title>ExecuteUbergraph_BP_Refinery_WarningLight__223</title>
<polygon fill="#eeeeee" stroke="black" points="1464,-2083.5 1464,-2136.5 2116,-2136.5 2116,-2083.5 1464,-2083.5"/>
<text text-anchor="start" x="1472" y="-2121.3" font-family="monospace" font-size="14.00">EX_LetObj</text>
<text text-anchor="start" x="1472" y="-2106.3" font-family="monospace" font-size="14.00">  EX_LocalVariable [CallFunc_GetFSDGameUserSettings_ReturnValue]</text>
<text text-anchor="start" x="1472" y="-2091.3" font-family="monospace" font-size="14.00">  EX_CallMath import /Script/FSD&#45;&gt;FSDGameUserSettings&#45;&gt;GetFSDGameUserSettings</text>
</g>
<!-- ExecuteUbergraph_BP_Refinery_WarningLight__243 -->
<g id="node13" class="node">
<title>ExecuteUbergraph_BP_Refinery_WarningLight__243</title>
<polygon fill="#eeeeee" stroke="black" points="1439.5,-1947.5 1439.5,-2045.5 2140.5,-2045.5 2140.5,-1947.5 1439.5,-1947.5"/>
<text text-anchor="start" x="1447.5" y="-2030.3" font-family="monospace" font-size="14.00">EX_LetBool</text>
<text text-anchor="start" x="1447.5" y="-2015.3" font-family="monospace" font-size="14.00">  EX_LocalVariable [CallFunc_GetPhotosensitiveMode_ReturnValue]</text>
<text text-anchor="start" x="1447.5" y="-2000.3" font-family="monospace" font-size="14.00">  EX_Context</text>
<text text-anchor="start" x="1447.5" y="-1985.3" font-family="monospace" font-size="14.00">    EX_LocalVariable [CallFunc_GetFSDGameUserSettings_ReturnValue]</text>
<text text-anchor="start" x="1447.5" y="-1970.3" font-family="monospace" font-size="14.00">    EX_FinalFunction import /Script/FSD&#45;&gt;FSDGameUserSettings&#45;&gt;GetPhotosensitiveMode</text>
<text text-anchor="start" x="1447.5" y="-1955.3" font-family="monospace" font-size="14.00">    RValue = [CallFunc_GetPhotosensitiveMode_ReturnValue]</text>
</g>
<!-- ExecuteUbergraph_BP_Refinery_WarningLight__223&#45;&gt;ExecuteUbergraph_BP_Refinery_WarningLight__243 -->
<g id="edge11" class="edge">
<title>ExecuteUbergraph_BP_Refinery_WarningLight__223&#45;&gt;ExecuteUbergraph_BP_Refinery_WarningLight__243</title>
<path fill="none" stroke="black" d="M1790,-2083.7C1790,-2075.48 1790,-2065.98 1790,-2056.37"/>
<polygon fill="black" stroke="black" points="1793.5,-2056.6 1790,-2046.6 1786.5,-2056.6 1793.5,-2056.6"/>
</g>
<!-- ExecuteUbergraph_BP_Refinery_WarningLight__285 -->
<g id="node14" class="node">
<title>ExecuteUbergraph_BP_Refinery_WarningLight__285</title>
<polygon fill="#eeeeee" stroke="black" points="1352.5,-1856.5 1352.5,-1909.5 2227.5,-1909.5 2227.5,-1856.5 1352.5,-1856.5"/>
<text text-anchor="start" x="1360.5" y="-1894.3" font-family="monospace" font-size="14.00">EX_LetObj</text>
<text text-anchor="start" x="1360.5" y="-1879.3" font-family="monospace" font-size="14.00">  EX_LocalVariable [Temp_object_Variable]</text>
<text text-anchor="start" x="1360.5" y="-1864.3" font-family="monospace" font-size="14.00">  EX_ObjectConst import /Game/LevelElements/Refinery/Refinery/Materials/M_Refinery_Lamp&#45;&gt;M_Refinery_Lamp</text>
</g>
<!-- ExecuteUbergraph_BP_Refinery_WarningLight__243&#45;&gt;ExecuteUbergraph_BP_Refinery_WarningLight__285 -->
<g id="edge12" class="edge">
<title>ExecuteUbergraph_BP_Refinery_WarningLight__243&#45;&gt;ExecuteUbergraph_BP_Refinery_WarningLight__285</title>
<path fill="none" stroke="black" d="M1790,-1947.57C1790,-1938.66 1790,-1929.48 1790,-1920.97"/>
<polygon fill="black" stroke="black" points="1793.5,-1920.98 1790,-1910.98 1786.5,-1920.98 1793.5,-1920.98"/>
</g>
<!-- ExecuteUbergraph_BP_Refinery_WarningLight__304 -->
<g id="node15" class="node">
<title>ExecuteUbergraph_BP_Refinery_WarningLight__304</title>
<polygon fill="#eeeeee" stroke="black" points="1522,-1765.5 1522,-1818.5 2058,-1818.5 2058,-1765.5 1522,-1765.5"/>
<text text-anchor="start" x="1530" y="-1803.3" font-family="monospace" font-size="14.00">EX_LetBool</text>
<text text-anchor="start" x="1530" y="-1788.3" font-family="monospace" font-size="14.00">  EX_LocalVariable [Temp_bool_Variable_1]</text>
<text text-anchor="start" x="1530" y="-1773.3" font-family="monospace" font-size="14.00">  EX_LocalVariable [CallFunc_GetPhotosensitiveMode_ReturnValue]</text>
</g>
<!-- ExecuteUbergraph_BP_Refinery_WarningLight__285&#45;&gt;ExecuteUbergraph_BP_Refinery_WarningLight__304 -->
<g id="edge13" class="edge">
<title>ExecuteUbergraph_BP_Refinery_WarningLight__285&#45;&gt;ExecuteUbergraph_BP_Refinery_WarningLight__304</title>
<path fill="none" stroke="black" d="M1790,-1856.73C1790,-1848.37 1790,-1838.89 1790,-1829.84"/>
<polygon fill="black" stroke="black" points="1793.5,-1829.84 1790,-1819.84 1786.5,-1829.84 1793.5,-1829.84"/>
</g>
<!-- ExecuteUbergraph_BP_Refinery_WarningLight__323 -->
<g id="node16" class="node">
<title>ExecuteUbergraph_BP_Refinery_WarningLight__323</title>
<polygon fill="#eeeeee" stroke="black" points="1352.5,-1674.5 1352.5,-1727.5 2227.5,-1727.5 2227.5,-1674.5 1352.5,-1674.5"/>
<text text-anchor="start" x="1360.5" y="-1712.3" font-family="monospace" font-size="14.00">EX_LetObj</text>
<text text-anchor="start" x="1360.5" y="-1697.3" font-family="monospace" font-size="14.00">  EX_LocalVariable [Temp_object_Variable_1]</text>
<text text-anchor="start" x="1360.5" y="-1682.3" font-family="monospace" font-size="14.00">  EX_ObjectConst import /Game/LevelElements/Refinery/Refinery/Materials/M_Refinery_Lamp&#45;&gt;M_Refinery_Lamp</text>
</g>
<!-- ExecuteUbergraph_BP_Refinery_WarningLight__304&#45;&gt;ExecuteUbergraph_BP_Refinery_WarningLight__323 -->
<g id="edge14" class="edge">
<title>ExecuteUbergraph_BP_Refinery_WarningLight__304&#45;&gt;ExecuteUbergraph_BP_Refinery_WarningLight__323</title>
<path fill="none" stroke="black" d="M1790,-1765.73C1790,-1757.37 1790,-1747.89 1790,-1738.84"/>
<polygon fill="black" stroke="black" points="1793.5,-1738.84 1790,-1728.84 1786.5,-1738.84 1793.5,-1738.84"/>
</g>
<!-- ExecuteUbergraph_BP_Refinery_WarningLight__342 -->
<g id="node17" class="node">
<title>ExecuteUbergraph_BP_Refinery_WarningLight__342</title>
<polygon fill="#eeeeee" stroke="black" points="1328,-1583.5 1328,-1636.5 2252,-1636.5 2252,-1583.5 1328,-1583.5"/>
<text text-anchor="start" x="1336" y="-1621.3" font-family="monospace" font-size="14.00">EX_LetObj</text>
<text text-anchor="start" x="1336" y="-1606.3" font-family="monospace" font-size="14.00">  EX_LocalVariable [Temp_object_Variable_2]</text>
<text text-anchor="start" x="1336" y="-1591.3" font-family="monospace" font-size="14.00">  EX_ObjectConst import /Game/LevelElements/Refinery/Refinery/Materials/M_Refinery_Light_3&#45;&gt;M_Refinery_Light_3</text>
</g>
<!-- ExecuteUbergraph_BP_Refinery_WarningLight__323&#45;&gt;ExecuteUbergraph_BP_Refinery_WarningLight__342 -->
<g id="edge15" class="edge">
<title>ExecuteUbergraph_BP_Refinery_WarningLight__323&#45;&gt;ExecuteUbergraph_BP_Refinery_WarningLight__342</title>
<path fill="none" stroke="black" d="M1790,-1674.73C1790,-1666.37 1790,-1656.89 1790,-1647.84"/>
<polygon fill="black" stroke="black" points="1793.5,-1647.84 1790,-1637.84 1786.5,-1647.84 1793.5,-1647.84"/>
</g>
<!-- ExecuteUbergraph_BP_Refinery_WarningLight__361 -->
<g id="node18" class="node">
<title>ExecuteUbergraph_BP_Refinery_WarningLight__361</title>
<polygon fill="#eeeeee" stroke="black" points="1472.5,-1462.5 1472.5,-1545.5 2107.5,-1545.5 2107.5,-1462.5 1472.5,-1462.5"/>
<text text-anchor="start" x="1480.5" y="-1530.3" font-family="monospace" font-size="14.00">EX_LetBool</text>
<text text-anchor="start" x="1480.5" y="-1515.3" font-family="monospace" font-size="14.00">  EX_LocalVariable [CallFunc_EqualEqual_ByteByte_ReturnValue]</text>
<text text-anchor="start" x="1480.5" y="-1500.3" font-family="monospace" font-size="14.00">  EX_CallMath import /Script/Engine&#45;&gt;KismetMathLibrary&#45;&gt;EqualEqual_ByteByte</text>
<text text-anchor="start" x="1480.5" y="-1485.3" font-family="monospace" font-size="14.00">    EX_LocalVariable [K2Node_CustomEvent_InRefineryState]</text>
<text text-anchor="start" x="1480.5" y="-1470.3" font-family="monospace" font-size="14.00">    EX_ByteConst 6</text>
</g>
<!-- ExecuteUbergraph_BP_Refinery_WarningLight__342&#45;&gt;ExecuteUbergraph_BP_Refinery_WarningLight__361 -->
<g id="edge16" class="edge">
<title>ExecuteUbergraph_BP_Refinery_WarningLight__342&#45;&gt;ExecuteUbergraph_BP_Refinery_WarningLight__361</title>
<path fill="none" stroke="black" d="M1790,-1583.56C1790,-1575.35 1790,-1565.93 1790,-1556.54"/>
<polygon fill="black" stroke="black" points="1793.5,-1556.69 1790,-1546.69 1786.5,-1556.69 1793.5,-1556.69"/>
</g>
<!-- ExecuteUbergraph_BP_Refinery_WarningLight__392 -->
<g id="node19" class="node">
<title>ExecuteUbergraph_BP_Refinery_WarningLight__392</title>
<polygon fill="#eeeeee" stroke="black" points="1738.5,-1341.5 1738.5,-1424.5 2373.5,-1424.5 2373.5,-1341.5 1738.5,-1341.5"/>
<text text-anchor="start" x="1746.5" y="-1409.3" font-family="monospace" font-size="14.00">EX_LetBool</text>
<text text-anchor="start" x="1746.5" y="-1394.3" font-family="monospace" font-size="14.00">  EX_LocalVariable [CallFunc_EqualEqual_ByteByte_ReturnValue_1]</text>
<text text-anchor="start" x="1746.5" y="-1379.3" font-family="monospace" font-size="14.00">  EX_CallMath import /Script/Engine&#45;&gt;KismetMathLibrary&#45;&gt;EqualEqual_ByteByte</text>
<text text-anchor="start" x="1746.5" y="-1364.3" font-family="monospace" font-size="14.00">    EX_LocalVariable [K2Node_CustomEvent_InRefineryState]</text>
<text text-anchor="start" x="1746.5" y="-1349.3" font-family="monospace" font-size="14.00">    EX_ByteConst 4</text>
</g>
<!-- ExecuteUbergraph_BP_Refinery_WarningLight__361&#45;&gt;ExecuteUbergraph_BP_Refinery_WarningLight__392 -->
<g id="edge17" class="edge">
<title>ExecuteUbergraph_BP_Refinery_WarningLight__361&#45;&gt;ExecuteUbergraph_BP_Refinery_WarningLight__392</title>
<path fill="none" stroke="black" d="M1880.43,-1462.55C1904.54,-1451.76 1930.75,-1440.03 1955.38,-1429.02"/>
<polygon fill="black" stroke="black" points="1956.74,-1432.24 1964.44,-1424.96 1953.88,-1425.85 1956.74,-1432.24"/>
</g>
<!-- ExecuteUbergraph_BP_Refinery_WarningLight__423 -->
<g id="node20" class="node">
<title>ExecuteUbergraph_BP_Refinery_WarningLight__423</title>
<polygon fill="#eeeeee" stroke="black" points="1849.5,-1220.5 1849.5,-1303.5 2402.5,-1303.5 2402.5,-1220.5 1849.5,-1220.5"/>
<text text-anchor="start" x="1857.5" y="-1288.3" font-family="monospace" font-size="14.00">EX_LetBool</text>
<text text-anchor="start" x="1857.5" y="-1273.3" font-family="monospace" font-size="14.00">  EX_LocalVariable [CallFunc_BooleanOR_ReturnValue]</text>
<text text-anchor="start" x="1857.5" y="-1258.3" font-family="monospace" font-size="14.00">  EX_CallMath import /Script/Engine&#45;&gt;KismetMathLibrary&#45;&gt;BooleanOR</text>
<text text-anchor="start" x="1857.5" y="-1243.3" font-family="monospace" font-size="14.00">    EX_LocalVariable [CallFunc_EqualEqual_ByteByte_ReturnValue_1]</text>
<text text-anchor="start" x="1857.5" y="-1228.3" font-family="monospace" font-size="14.00">    EX_LocalVariable [CallFunc_EqualEqual_ByteByte_ReturnValue]</text>
</g>
<!-- ExecuteUbergraph_BP_Refinery_WarningLight__392&#45;&gt;ExecuteUbergraph_BP_Refinery_WarningLight__423 -->
<g id="edge18" class="edge">
<title>ExecuteUbergraph_BP_Refinery_WarningLight__392&#45;&gt;ExecuteUbergraph_BP_Refinery_WarningLight__423</title>
<path fill="none" stroke="black" d="M2079.7,-1341.71C2085.12,-1332.5 2090.94,-1322.61 2096.56,-1313.05"/>
<polygon fill="black" stroke="black" points="2099.5,-1314.94 2101.56,-1304.55 2093.47,-1311.4 2099.5,-1314.94"/>
</g>
<!-- ExecuteUbergraph_BP_Refinery_WarningLight__461 -->
<g id="node21" class="node">
<title>ExecuteUbergraph_BP_Refinery_WarningLight__461</title>
<polygon fill="#eeeeee" stroke="black" points="1925.5,-1122 1925.5,-1175 2362.5,-1175 2362.5,-1122 1925.5,-1122"/>
<text text-anchor="start" x="1933.5" y="-1159.8" font-family="monospace" font-size="14.00">EX_LetBool</text>
<text text-anchor="start" x="1933.5" y="-1144.8" font-family="monospace" font-size="14.00">  EX_LocalVariable [Temp_bool_Variable]</text>
<text text-anchor="start" x="1933.5" y="-1129.8" font-family="monospace" font-size="14.00">  EX_LocalVariable [CallFunc_BooleanOR_ReturnValue]</text>
</g>
<!-- ExecuteUbergraph_BP_Refinery_WarningLight__423&#45;&gt;ExecuteUbergraph_BP_Refinery_WarningLight__461 -->
<g id="edge19" class="edge">
<title>ExecuteUbergraph_BP_Refinery_WarningLight__423&#45;&gt;ExecuteUbergraph_BP_Refinery_WarningLight__461</title>
<path fill="none" stroke="black" d="M2132.5,-1220.75C2134.34,-1209.36 2136.33,-1197.03 2138.13,-1185.88"/>
<polygon fill="black" stroke="black" points="2141.54,-1186.71 2139.68,-1176.28 2134.63,-1185.59 2141.54,-1186.71"/>
</g>
<!-- ExecuteUbergraph_BP_Refinery_WarningLight__480 -->
<g id="node22" class="node">
<title>ExecuteUbergraph_BP_Refinery_WarningLight__480</title>
<polygon fill="#eeeeee" stroke="black" points="1921,-618.5 1921,-1076.5 2375,-1076.5 2375,-618.5 1921,-618.5"/>
<text text-anchor="start" x="1929" y="-1061.3" font-family="monospace" font-size="14.00">EX_Context</text>
<text text-anchor="start" x="1929" y="-1046.3" font-family="monospace" font-size="14.00">  EX_InstanceVariable [ST_Refinery_WarningLight]</text>
<text text-anchor="start" x="1929" y="-1031.3" font-family="monospace" font-size="14.00">  EX_VirtualFunction SetMaterial</text>
<text text-anchor="start" x="1929" y="-1016.3" font-family="monospace" font-size="14.00">    EX_IntConst 1</text>
<text text-anchor="start" x="1929" y="-1001.3" font-family="monospace" font-size="14.00">    EX_SwitchValue</text>
<text text-anchor="start" x="1929" y="-986.3" font-family="monospace" font-size="14.00">      EX_LocalVariable [Temp_bool_Variable]</text>
<text text-anchor="start" x="1929" y="-971.3" font-family="monospace" font-size="14.00">      OffsetToSwitchEnd = 617</text>
<text text-anchor="start" x="1929" y="-956.3" font-family="monospace" font-size="14.00">      case 0:</text>
<text text-anchor="start" x="1929" y="-941.3" font-family="monospace" font-size="14.00">        EX_False</text>
<text text-anchor="start" x="1929" y="-926.3" font-family="monospace" font-size="14.00">        NextCaseOffset = 550</text>
<text text-anchor="start" x="1929" y="-911.3" font-family="monospace" font-size="14.00">        EX_LocalVariable [Temp_object_Variable]</text>
<text text-anchor="start" x="1929" y="-896.3" font-family="monospace" font-size="14.00">      case 1:</text>
<text text-anchor="start" x="1929" y="-881.3" font-family="monospace" font-size="14.00">        EX_True</text>
<text text-anchor="start" x="1929" y="-866.3" font-family="monospace" font-size="14.00">        NextCaseOffset = 608</text>
<text text-anchor="start" x="1929" y="-851.3" font-family="monospace" font-size="14.00">        EX_SwitchValue</text>
<text text-anchor="start" x="1929" y="-836.3" font-family="monospace" font-size="14.00">          EX_LocalVariable [Temp_bool_Variable_1]</text>
<text text-anchor="start" x="1929" y="-821.3" font-family="monospace" font-size="14.00">          OffsetToSwitchEnd = 608</text>
<text text-anchor="start" x="1929" y="-806.3" font-family="monospace" font-size="14.00">          case 0:</text>
<text text-anchor="start" x="1929" y="-791.3" font-family="monospace" font-size="14.00">            EX_False</text>
<text text-anchor="start" x="1929" y="-776.3" font-family="monospace" font-size="14.00">            NextCaseOffset = 585</text>
<text text-anchor="start" x="1929" y="-761.3" font-family="monospace" font-size="14.00">            EX_LocalVariable [Temp_object_Variable_2]</text>
<text text-anchor="start" x="1929" y="-746.3" font-family="monospace" font-size="14.00">          case 1:</text>
<text text-anchor="start" x="1929" y="-731.3" font-family="monospace" font-size="14.00">            EX_True</text>
<text text-anchor="start" x="1929" y="-716.3" font-family="monospace" font-size="14.00">            NextCaseOffset = 599</text>
<text text-anchor="start" x="1929" y="-701.3" font-family="monospace" font-size="14.00">            EX_LocalVariable [Temp_object_Variable_1]</text>
<text text-anchor="start" x="1929" y="-686.3" font-family="monospace" font-size="14.00">          default:</text>
<text text-anchor="start" x="1929" y="-671.3" font-family="monospace" font-size="14.00">            EX_LocalVariable [K2Node_Select_Default]</text>
<text text-anchor="start" x="1929" y="-656.3" font-family="monospace" font-size="14.00">      default:</text>
<text text-anchor="start" x="1929" y="-641.3" font-family="monospace" font-size="14.00">        EX_LocalVariable [K2Node_Select_Default_1]</text>
<text text-anchor="start" x="1929" y="-626.3" font-family="monospace" font-size="14.00">  RValue = []</text>
</g>
<!-- ExecuteUbergraph_BP_Refinery_WarningLight__461&#45;&gt;ExecuteUbergraph_BP_Refinery_WarningLight__480 -->
<g id="edge20" class="edge">
<title>ExecuteUbergraph_BP_Refinery_WarningLight__461&#45;&gt;ExecuteUbergraph_BP_Refinery_WarningLight__480</title>
<path fill="none" stroke="black" d="M2144.34,-1122.01C2144.47,-1112.52 2144.62,-1100.81 2144.8,-1087.63"/>
<polygon fill="black" stroke="black" points="2148.3,-1087.79 2144.93,-1077.74 2141.3,-1087.69 2148.3,-1087.79"/>
</g>
<!-- ExecuteUbergraph_BP_Refinery_WarningLight__618 -->
<g id="node23" class="node">
<title>ExecuteUbergraph_BP_Refinery_WarningLight__618</title>
<polygon fill="#eeeeee" stroke="black" points="1831.5,-483.5 1831.5,-566.5 2466.5,-566.5 2466.5,-483.5 1831.5,-483.5"/>
<text text-anchor="start" x="1839.5" y="-551.3" font-family="monospace" font-size="14.00">EX_LetBool</text>
<text text-anchor="start" x="1839.5" y="-536.3" font-family="monospace" font-size="14.00">  EX_LocalVariable [CallFunc_EqualEqual_ByteByte_ReturnValue]</text>
<text text-anchor="start" x="1839.5" y="-521.3" font-family="monospace" font-size="14.00">  EX_CallMath import /Script/Engine&#45;&gt;KismetMathLibrary&#45;&gt;EqualEqual_ByteByte</text>
<text text-anchor="start" x="1839.5" y="-506.3" font-family="monospace" font-size="14.00">    EX_LocalVariable [K2Node_CustomEvent_InRefineryState]</text>
<text text-anchor="start" x="1839.5" y="-491.3" font-family="monospace" font-size="14.00">    EX_ByteConst 6</text>
</g>
<!-- ExecuteUbergraph_BP_Refinery_WarningLight__480&#45;&gt;ExecuteUbergraph_BP_Refinery_WarningLight__618 -->
<g id="edge21" class="edge">
<title>ExecuteUbergraph_BP_Refinery_WarningLight__480&#45;&gt;ExecuteUbergraph_BP_Refinery_WarningLight__618</title>
<path fill="none" stroke="black" d="M2148.71,-618.7C2148.76,-603.87 2148.8,-589.98 2148.84,-577.69"/>
<polygon fill="black" stroke="black" points="2152.34,-577.95 2148.87,-567.94 2145.34,-577.93 2152.34,-577.95"/>
</g>
<!-- ExecuteUbergraph_BP_Refinery_WarningLight__649 -->
<g id="node24" class="node">
<title>ExecuteUbergraph_BP_Refinery_WarningLight__649</title>
<polygon fill="#eeeeee" stroke="black" points="1831.5,-355 1831.5,-438 2466.5,-438 2466.5,-355 1831.5,-355"/>
<text text-anchor="start" x="1839.5" y="-422.8" font-family="monospace" font-size="14.00">EX_LetBool</text>
<text text-anchor="start" x="1839.5" y="-407.8" font-family="monospace" font-size="14.00">  EX_LocalVariable [CallFunc_EqualEqual_ByteByte_ReturnValue_1]</text>
<text text-anchor="start" x="1839.5" y="-392.8" font-family="monospace" font-size="14.00">  EX_CallMath import /Script/Engine&#45;&gt;KismetMathLibrary&#45;&gt;EqualEqual_ByteByte</text>
<text text-anchor="start" x="1839.5" y="-377.8" font-family="monospace" font-size="14.00">    EX_LocalVariable [K2Node_CustomEvent_InRefineryState]</text>
<text text-anchor="start" x="1839.5" y="-362.8" font-family="monospace" font-size="14.00">    EX_ByteConst 4</text>
</g>
<!-- ExecuteUbergraph_BP_Refinery_WarningLight__618&#45;&gt;ExecuteUbergraph_BP_Refinery_WarningLight__649 -->
<g id="edge22" class="edge">
<title>ExecuteUbergraph_BP_Refinery_WarningLight__618&#45;&gt;ExecuteUbergraph_BP_Refinery_WarningLight__649</title>
<path fill="none" stroke="black" d="M2149,-483.63C2149,-472.67 2149,-460.66 2149,-449.17"/>
<polygon fill="black" stroke="black" points="2152.5,-449.44 2149,-439.44 2145.5,-449.44 2152.5,-449.44"/>
</g>
<!-- ExecuteUbergraph_BP_Refinery_WarningLight__680 -->
<g id="node25" class="node">
<title>ExecuteUbergraph_BP_Refinery_WarningLight__680</title>
<polygon fill="#eeeeee" stroke="black" points="1909.5,-212.5 1909.5,-295.5 2462.5,-295.5 2462.5,-212.5 1909.5,-212.5"/>
<text text-anchor="start" x="1917.5" y="-280.3" font-family="monospace" font-size="14.00">EX_LetBool</text>
<text text-anchor="start" x="1917.5" y="-265.3" font-family="monospace" font-size="14.00">  EX_LocalVariable [CallFunc_BooleanOR_ReturnValue]</text>
<text text-anchor="start" x="1917.5" y="-250.3" font-family="monospace" font-size="14.00">  EX_CallMath import /Script/Engine&#45;&gt;KismetMathLibrary&#45;&gt;BooleanOR</text>
<text text-anchor="start" x="1917.5" y="-235.3" font-family="monospace" font-size="14.00">    EX_LocalVariable [CallFunc_EqualEqual_ByteByte_ReturnValue_1]</text>
<text text-anchor="start" x="1917.5" y="-220.3" font-family="monospace" font-size="14.00">    EX_LocalVariable [CallFunc_EqualEqual_ByteByte_ReturnValue]</text>
</g>
<!-- ExecuteUbergraph_BP_Refinery_WarningLight__649&#45;&gt;ExecuteUbergraph_BP_Refinery_WarningLight__680 -->
<g id="edge23" class="edge">
<title>ExecuteUbergraph_BP_Refinery_WarningLight__649&#45;&gt;ExecuteUbergraph_BP_Refinery_WarningLight__680</title>
<path fill="none" stroke="black" d="M2159.6,-355.24C2163.63,-339.95 2168.27,-322.34 2172.52,-306.18"/>
<polygon fill="black" stroke="black" points="2175.85,-307.29 2175.01,-296.73 2169.08,-305.51 2175.85,-307.29"/>
</g>
<!-- ExecuteUbergraph_BP_Refinery_WarningLight__718 -->
<g id="node26" class="node">
<title>ExecuteUbergraph_BP_Refinery_WarningLight__718</title>
<polygon fill="#eeeeee" stroke="black" points="2015,-76.5 2015,-174.5 2617,-174.5 2617,-76.5 2015,-76.5"/>
<text text-anchor="start" x="2023" y="-159.3" font-family="monospace" font-size="14.00">EX_Context</text>
<text text-anchor="start" x="2023" y="-144.3" font-family="monospace" font-size="14.00">  EX_InstanceVariable [PointLight]</text>
<text text-anchor="start" x="2023" y="-129.3" font-family="monospace" font-size="14.00">  EX_FinalFunction import /Script/Engine&#45;&gt;SceneComponent&#45;&gt;SetVisibility</text>
<text text-anchor="start" x="2023" y="-114.3" font-family="monospace" font-size="14.00">    EX_LocalVariable [CallFunc_BooleanOR_ReturnValue]</text>
<text text-anchor="start" x="2023" y="-99.3" font-family="monospace" font-size="14.00">    EX_True</text>
<text text-anchor="start" x="2023" y="-84.3" font-family="monospace" font-size="14.00">  RValue = []</text>
</g>
<!-- ExecuteUbergraph_BP_Refinery_WarningLight__680&#45;&gt;ExecuteUbergraph_BP_Refinery_WarningLight__718 -->
<g id="edge24" class="edge">
<title>ExecuteUbergraph_BP_Refinery_WarningLight__680&#45;&gt;ExecuteUbergraph_BP_Refinery_WarningLight__718</title>
<path fill="none" stroke="black" d="M2227.49,-212.63C2237.44,-202.95 2248.24,-192.44 2258.76,-182.2"/>
<polygon fill="black" stroke="black" points="2260.92,-184.98 2265.65,-175.5 2256.04,-179.96 2260.92,-184.98"/>
</g>
<!-- ExecuteUbergraph_BP_Refinery_WarningLight__718&#45;&gt;ExecuteUbergraph_BP_Refinery_WarningLight__760 -->
<g id="edge25" class="edge">
<title>ExecuteUbergraph_BP_Refinery_WarningLight__718&#45;&gt;ExecuteUbergraph_BP_Refinery_WarningLight__760</title>
<path fill="none" stroke="black" d="M2506.02,-76.53C2560.84,-62.7 2617.18,-48.47 2659.38,-37.82"/>
<polygon fill="black" stroke="black" points="2660.04,-41.27 2668.88,-35.42 2658.32,-34.48 2660.04,-41.27"/>
</g>
<!-- ExecuteUbergraph_BP_Refinery_WarningLight__762 -->
<g id="node28" class="node">
<title>ExecuteUbergraph_BP_Refinery_WarningLight__762</title>
<polygon fill="#eeeeee" stroke="black" points="2553,-2379.5 2553,-2415.5 2685,-2415.5 2685,-2379.5 2553,-2379.5"/>
<text text-anchor="start" x="2561" y="-2393.8" font-family="monospace" font-size="14.00">EX_EndOfScript</text>
</g>
<!-- OnRefineryStateChanged -->
<g id="node29" class="node">
<title>OnRefineryStateChanged</title>
<polygon fill="#ff8888" stroke="black" points="1142,-2562 1142,-2615 1612,-2615 1612,-2562 1142,-2562"/>
<text text-anchor="start" x="1150" y="-2599.8" font-family="monospace" font-size="14.00">Function OnRefineryStateChanged</text>
<text text-anchor="start" x="1150" y="-2584.8" font-family="monospace" font-size="14.00">  EnumProperty InRefineryState</text>
<text text-anchor="start" x="1150" y="-2569.8" font-family="monospace" font-size="14.00">    CPF_BlueprintVisible|CPF_BlueprintReadOnly|CPF_Parm</text>
</g>
<!-- OnRefineryStateChanged__0 -->
<g id="node30" class="node">
<title>OnRefineryStateChanged__0</title>
<polygon fill="#eeeeee" stroke="black" points="1100.5,-2322.5 1100.5,-2360.5 1653.5,-2360.5 1653.5,-2322.5 1100.5,-2322.5"/>
<text text-anchor="start" x="1108.5" y="-2345.3" font-family="monospace" font-size="14.00">EX_LetValueOnPersistentFrame [K2Node_CustomEvent_InRefineryState]</text>
<text text-anchor="start" x="1108.5" y="-2330.3" font-family="monospace" font-size="14.00">  EX_LocalVariable [InRefineryState]</text>
</g>
<!-- OnRefineryStateChanged&#45;&gt;OnRefineryStateChanged__0 -->
<g id="edge26" class="edge">
<title>OnRefineryStateChanged&#45;&gt;OnRefineryStateChanged__0</title>
<path fill="none" stroke="black" d="M1377,-2562.2C1377,-2516.44 1377,-2420.18 1377,-2371.7"/>
<polygon fill="black" stroke="black" points="1380.5,-2371.98 1377,-2361.98 1373.5,-2371.98 1380.5,-2371.98"/>
</g>
<!-- OnRefineryStateChanged__18 -->
<g id="node31" class="node">
<title>OnRefineryStateChanged__18</title>
<polygon fill="#eeeeee" stroke="black" points="964.5,-2210.5 964.5,-2248.5 1789.5,-2248.5 1789.5,-2210.5 964.5,-2210.5"/>
<text text-anchor="start" x="972.5" y="-2233.3" font-family="monospace" font-size="14.00">EX_LocalFinalFunction export BP_Refinery_WarningLight_C&#45;&gt;ExecuteUbergraph_BP_Refinery_WarningLight</text>
<text text-anchor="start" x="972.5" y="-2218.3" font-family="monospace" font-size="14.00">  EX_IntConst 223</text>
</g>
<!-- OnRefineryStateChanged__0&#45;&gt;OnRefineryStateChanged__18 -->
<g id="edge27" class="edge">
<title>OnRefineryStateChanged__0&#45;&gt;OnRefineryStateChanged__18</title>
<path fill="none" stroke="black" d="M1377,-2322.83C1377,-2305.85 1377,-2279.88 1377,-2259.81"/>
<polygon fill="black" stroke="black" points="1380.5,-2260.01 1377,-2250.01 1373.5,-2260.01 1380.5,-2260.01"/>
</g>
<!-- OnRefineryStateChanged__18&#45;&gt;ExecuteUbergraph_BP_Refinery_WarningLight__223 -->
<g id="edge28" class="edge">
<title>OnRefineryStateChanged__18:e&#45;&gt;ExecuteUbergraph_BP_Refinery_WarningLight__223</title>
<path fill="none" stroke="red" d="M1791,-2229.5C1824.32,-2229.5 1815.08,-2182.06 1803.79,-2147.22"/>
<polygon fill="none" stroke="red" points="1807.14,-2146.19 1800.6,-2137.85 1800.51,-2148.45 1807.14,-2146.19"/>
</g>
<!-- OnRefineryStateChanged__33 -->
<g id="node32" class="node">
<title>OnRefineryStateChanged__33</title>
<polygon fill="#eeeeee" stroke="black" points="1319,-2091 1319,-2129 1435,-2129 1435,-2091 1319,-2091"/>
<text text-anchor="start" x="1327" y="-2113.8" font-family="monospace" font-size="14.00">EX_Return</text>
<text text-anchor="start" x="1327" y="-2098.8" font-family="monospace" font-size="14.00">  EX_Nothing</text>
</g>
<!-- OnRefineryStateChanged__18&#45;&gt;OnRefineryStateChanged__33 -->
<g id="edge29" class="edge">
<title>OnRefineryStateChanged__18&#45;&gt;OnRefineryStateChanged__33</title>
<path fill="none" stroke="black" d="M1377,-2210.65C1377,-2191.91 1377,-2162.14 1377,-2140.02"/>
<polygon fill="black" stroke="black" points="1380.5,-2140.14 1377,-2130.14 1373.5,-2140.14 1380.5,-2140.14"/>
</g>
<!-- OnRefineryStateChanged__35 -->
<g id="node33" class="node">
<title>OnRefineryStateChanged__35</title>
<polygon fill="#eeeeee" stroke="black" points="2553,-2267.5 2553,-2303.5 2685,-2303.5 2685,-2267.5 2553,-2267.5"/>
<text text-anchor="start" x="2561" y="-2281.8" font-family="monospace" font-size="14.00">EX_EndOfScript</text>
</g>
<!-- ReceiveBeginPlay -->
<g id="node34" class="node">
<title>ReceiveBeginPlay</title>
<polygon fill="#ff8888" stroke="black" points="2426.5,-2570.5 2426.5,-2606.5 2649.5,-2606.5 2649.5,-2570.5 2426.5,-2570.5"/>
<text text-anchor="start" x="2434.5" y="-2584.8" font-family="monospace" font-size="14.00">Function ReceiveBeginPlay</text>
</g>
<!-- ReceiveBeginPlay__0 -->
<g id="node35" class="node">
<title>ReceiveBeginPlay__0</title>
<polygon fill="#eeeeee" stroke="black" points="2125.5,-1485 2125.5,-1523 2950.5,-1523 2950.5,-1485 2125.5,-1485"/>
<text text-anchor="start" x="2133.5" y="-1507.8" font-family="monospace" font-size="14.00">EX_LocalFinalFunction export BP_Refinery_WarningLight_C&#45;&gt;ExecuteUbergraph_BP_Refinery_WarningLight</text>
<text text-anchor="start" x="2133.5" y="-1492.8" font-family="monospace" font-size="14.00">  EX_IntConst 10</text>
</g>
<!-- ReceiveBeginPlay&#45;&gt;ReceiveBeginPlay__0 -->
<g id="edge30" class="edge">
<title>ReceiveBeginPlay&#45;&gt;ReceiveBeginPlay__0</title>
<path fill="none" stroke="black" d="M2538,-2570.57C2538,-2530.78 2538,-2428.21 2538,-2342.5 2538,-2342.5 2538,-2342.5 2538,-1609 2538,-1583.64 2538,-1554.81 2538,-1533.94"/>
<polygon fill="black" stroke="black" points="2541.5,-1534.18 2538,-1524.18 2534.5,-1534.18 2541.5,-1534.18"/>
</g>
<!-- ReceiveBeginPlay__0&#45;&gt;ExecuteUbergraph_BP_Refinery_WarningLight__10 -->
<g id="edge31" class="edge">
<title>ReceiveBeginPlay__0:e&#45;&gt;ExecuteUbergraph_BP_Refinery_WarningLight__10</title>
<path fill="none" stroke="red" d="M2952,-1504C2987.79,-1504 2962.7,-1454.43 2940.21,-1419.01"/>
<polygon fill="none" stroke="red" points="2943.2,-1417.19 2934.81,-1410.72 2937.33,-1421.01 2943.2,-1417.19"/>
</g>
<!-- ReceiveBeginPlay__15 -->
<g id="node36" class="node">
<title>ReceiveBeginPlay__15</title>
<polygon fill="#eeeeee" stroke="black" points="2480,-1364 2480,-1402 2596,-1402 2596,-1364 2480,-1364"/>
<text text-anchor="start" x="2488" y="-1386.8" font-family="monospace" font-size="14.00">EX_Return</text>
<text text-anchor="start" x="2488" y="-1371.8" font-family="monospace" font-size="14.00">  EX_Nothing</text>
</g>
<!-- ReceiveBeginPlay__0&#45;&gt;ReceiveBeginPlay__15 -->
<g id="edge32" class="edge">
<title>ReceiveBeginPlay__0&#45;&gt;ReceiveBeginPlay__15</title>
<path fill="none" stroke="black" d="M2538,-1485.18C2538,-1466.17 2538,-1435.74 2538,-1413.21"/>
<polygon fill="black" stroke="black" points="2541.5,-1413.45 2538,-1403.45 2534.5,-1413.45 2541.5,-1413.45"/>
</g>
<!-- ReceiveBeginPlay__17 -->
<g id="node37" class="node">
<title>ReceiveBeginPlay__17</title>
<polygon fill="#eeeeee" stroke="black" points="2553,-2155.5 2553,-2191.5 2685,-2191.5 2685,-2155.5 2553,-2155.5"/>
<text text-anchor="start" x="2561" y="-2169.8" font-family="monospace" font-size="14.00">EX_EndOfScript</text>
</g>
</g>
</svg>
