<?xml version="1.0" encoding="UTF-8" standalone="no"?>
<!DOCTYPE svg PUBLIC "-//W3C//DTD SVG 1.1//EN"
 "http://www.w3.org/Graphics/SVG/1.1/DTD/svg11.dtd">
<!-- Generated by graphviz version 7.0.1 (0)
 -->
<!-- Pages: 1 -->
<svg width="1944pt" height="480pt"
 viewBox="0.00 0.00 1943.50 480.00" xmlns="http://www.w3.org/2000/svg" xmlns:xlink="http://www.w3.org/1999/xlink">
<g id="graph0" class="graph" transform="scale(1 1) rotate(0) translate(4 476)">
<polygon fill="white" stroke="none" points="-4,4 -4,-476 1939.5,-476 1939.5,4 -4,4"/>
<!-- BP_LowGravity_C -->
<g id="node1" class="node">
<title>BP_LowGravity_C</title>
<polygon fill="#88ff88" stroke="black" points="0,-388.5 0,-471.5 437,-471.5 437,-388.5 0,-388.5"/>
<text text-anchor="start" x="8" y="-456.3" font-family="monospace" font-size="14.00">ClassExport: BP_LowGravity_C</text>
<text text-anchor="start" x="8" y="-441.3" font-family="monospace" font-size="14.00">  SuperStruct: import /Script/FSD&#45;&gt;RunningMissionBP</text>
<text text-anchor="start" x="8" y="-426.3" font-family="monospace" font-size="14.00">  Properties:</text>
<text text-anchor="start" x="8" y="-411.3" font-family="monospace" font-size="14.00">    StructProperty UberGraphFrame</text>
<text text-anchor="start" x="8" y="-396.3" font-family="monospace" font-size="14.00">      CPF_Transient|CPF_DuplicateTransient</text>
</g>
<!-- ExecuteUbergraph_BP_LowGravity -->
<g id="node2" class="node">
<title>ExecuteUbergraph_BP_LowGravity</title>
<polygon fill="#ff8888" stroke="black" points="455.5,-403.5 455.5,-456.5 925.5,-456.5 925.5,-403.5 455.5,-403.5"/>
<text text-anchor="start" x="463.5" y="-441.3" font-family="monospace" font-size="14.00">Function ExecuteUbergraph_BP_LowGravity</text>
<text text-anchor="start" x="463.5" y="-426.3" font-family="monospace" font-size="14.00">  IntProperty EntryPoint</text>
<text text-anchor="start" x="463.5" y="-411.3" font-family="monospace" font-size="14.00">    CPF_BlueprintVisible|CPF_BlueprintReadOnly|CPF_Parm</text>
</g>
<!-- ExecuteUbergraph_BP_LowGravity__0 -->
<g id="node3" class="node">
<title>ExecuteUbergraph_BP_LowGravity__0</title>
<polygon fill="#eeeeee" stroke="black" points="554.5,-313.5 554.5,-351.5 826.5,-351.5 826.5,-313.5 554.5,-313.5"/>
<text text-anchor="start" x="562.5" y="-336.3" font-family="monospace" font-size="14.00">EX_ComputedJump</text>
<text text-anchor="start" x="562.5" y="-321.3" font-family="monospace" font-size="14.00">  EX_LocalVariable [EntryPoint]</text>
</g>
<!-- ExecuteUbergraph_BP_LowGravity&#45;&gt;ExecuteUbergraph_BP_LowGravity__0 -->
<g id="edge1" class="edge">
<title>ExecuteUbergraph_BP_LowGravity&#45;&gt;ExecuteUbergraph_BP_LowGravity__0</title>
<path fill="none" stroke="black" d="M690.5,-403.66C690.5,-391.05 690.5,-375.75 690.5,-362.66"/>
<polygon fill="black" stroke="black" points="694,-362.91 690.5,-352.91 687,-362.91 694,-362.91"/>
</g>
<!-- ExecuteUbergraph_BP_LowGravity__10 -->
<g id="node4" class="node">
<title>ExecuteUbergraph_BP_LowGravity__10</title>
<polygon fill="#eeeeee" stroke="black" points="1191.5,-148.5 1191.5,-201.5 1785.5,-201.5 1785.5,-148.5 1191.5,-148.5"/>
<text text-anchor="start" x="1199.5" y="-186.3" font-family="monospace" font-size="14.00">EX_CallMath import /Script/FSD&#45;&gt;GameFunctionLibrary&#45;&gt;SetGlobalGravityZ</text>
<text text-anchor="start" x="1199.5" y="-171.3" font-family="monospace" font-size="14.00">  EX_Self</text>
<text text-anchor="start" x="1199.5" y="-156.3" font-family="monospace" font-size="14.00">  EX_FloatConst &#45;400</text>
</g>
<!-- ExecuteUbergraph_BP_LowGravity__26 -->
<g id="node5" class="node">
<title>ExecuteUbergraph_BP_LowGravity__26</title>
<polygon fill="#eeeeee" stroke="black" points="1439,-75.5 1439,-111.5 1538,-111.5 1538,-75.5 1439,-75.5"/>
<text text-anchor="start" x="1447" y="-89.8" font-family="monospace" font-size="14.00">EX_Jump 36</text>
</g>
<!-- ExecuteUbergraph_BP_LowGravity__10&#45;&gt;ExecuteUbergraph_BP_LowGravity__26 -->
<g id="edge2" class="edge">
<title>ExecuteUbergraph_BP_LowGravity__10&#45;&gt;ExecuteUbergraph_BP_LowGravity__26</title>
<path fill="none" stroke="black" d="M1488.5,-148.85C1488.5,-140.56 1488.5,-131.29 1488.5,-122.79"/>
<polygon fill="black" stroke="black" points="1492,-122.97 1488.5,-112.97 1485,-122.97 1492,-122.97"/>
</g>
<!-- ExecuteUbergraph_BP_LowGravity__36 -->
<g id="node7" class="node">
<title>ExecuteUbergraph_BP_LowGravity__36</title>
<polygon fill="#eeeeee" stroke="black" points="1430.5,-0.5 1430.5,-38.5 1546.5,-38.5 1546.5,-0.5 1430.5,-0.5"/>
<text text-anchor="start" x="1438.5" y="-23.3" font-family="monospace" font-size="14.00">EX_Return</text>
<text text-anchor="start" x="1438.5" y="-8.3" font-family="monospace" font-size="14.00">  EX_Nothing</text>
</g>
<!-- ExecuteUbergraph_BP_LowGravity__26&#45;&gt;ExecuteUbergraph_BP_LowGravity__36 -->
<g id="edge3" class="edge">
<title>ExecuteUbergraph_BP_LowGravity__26&#45;&gt;ExecuteUbergraph_BP_LowGravity__36</title>
<path fill="none" stroke="black" d="M1488.5,-75.8C1488.5,-68.09 1488.5,-58.7 1488.5,-49.86"/>
<polygon fill="black" stroke="black" points="1492,-49.88 1488.5,-39.88 1485,-49.88 1492,-49.88"/>
</g>
<!-- ExecuteUbergraph_BP_LowGravity__31 -->
<g id="node6" class="node">
<title>ExecuteUbergraph_BP_LowGravity__31</title>
<polygon fill="#eeeeee" stroke="black" points="1439,-239.5 1439,-275.5 1538,-275.5 1538,-239.5 1439,-239.5"/>
<text text-anchor="start" x="1447" y="-253.8" font-family="monospace" font-size="14.00">EX_Jump 10</text>
</g>
<!-- ExecuteUbergraph_BP_LowGravity__31&#45;&gt;ExecuteUbergraph_BP_LowGravity__10 -->
<g id="edge4" class="edge">
<title>ExecuteUbergraph_BP_LowGravity__31&#45;&gt;ExecuteUbergraph_BP_LowGravity__10</title>
<path fill="none" stroke="black" d="M1488.5,-239.82C1488.5,-231.9 1488.5,-222.09 1488.5,-212.57"/>
<polygon fill="black" stroke="black" points="1492,-212.74 1488.5,-202.74 1485,-212.74 1492,-212.74"/>
</g>
<!-- ExecuteUbergraph_BP_LowGravity__38 -->
<g id="node8" class="node">
<title>ExecuteUbergraph_BP_LowGravity__38</title>
<polygon fill="#eeeeee" stroke="black" points="1803.5,-157 1803.5,-193 1935.5,-193 1935.5,-157 1803.5,-157"/>
<text text-anchor="start" x="1811.5" y="-171.3" font-family="monospace" font-size="14.00">EX_EndOfScript</text>
</g>
<!-- StartLogic -->
<g id="node9" class="node">
<title>StartLogic</title>
<polygon fill="#ff8888" stroke="black" points="1080,-412 1080,-448 1253,-448 1253,-412 1080,-412"/>
<text text-anchor="start" x="1088" y="-426.3" font-family="monospace" font-size="14.00">Function StartLogic</text>
</g>
<!-- StartLogic__0 -->
<g id="node10" class="node">
<title>StartLogic__0</title>
<polygon fill="#eeeeee" stroke="black" points="844.5,-313.5 844.5,-351.5 1488.5,-351.5 1488.5,-313.5 844.5,-313.5"/>
<text text-anchor="start" x="852.5" y="-336.3" font-family="monospace" font-size="14.00">EX_LocalFinalFunction export BP_LowGravity_C&#45;&gt;ExecuteUbergraph_BP_LowGravity</text>
<text text-anchor="start" x="852.5" y="-321.3" font-family="monospace" font-size="14.00">  EX_IntConst 31</text>
</g>
<!-- StartLogic&#45;&gt;StartLogic__0 -->
<g id="edge5" class="edge">
<title>StartLogic&#45;&gt;StartLogic__0</title>
<path fill="none" stroke="black" d="M1166.5,-412.37C1166.5,-398.6 1166.5,-378.74 1166.5,-362.39"/>
<polygon fill="black" stroke="black" points="1170,-362.75 1166.5,-352.75 1163,-362.75 1170,-362.75"/>
</g>
<!-- StartLogic__0&#45;&gt;ExecuteUbergraph_BP_LowGravity__31 -->
<g id="edge6" class="edge">
<title>StartLogic__0:e&#45;&gt;ExecuteUbergraph_BP_LowGravity__31</title>
<path fill="none" stroke="red" d="M1489.5,-332.5C1508.78,-332.5 1505.12,-307.08 1498.78,-286.04"/>
<polygon fill="none" stroke="red" points="1502.16,-285.12 1495.7,-276.73 1495.52,-287.32 1502.16,-285.12"/>
</g>
<!-- StartLogic__15 -->
<g id="node11" class="node">
<title>StartLogic__15</title>
<polygon fill="#eeeeee" stroke="black" points="1108.5,-238.5 1108.5,-276.5 1224.5,-276.5 1224.5,-238.5 1108.5,-238.5"/>
<text text-anchor="start" x="1116.5" y="-261.3" font-family="monospace" font-size="14.00">EX_Return</text>
<text text-anchor="start" x="1116.5" y="-246.3" font-family="monospace" font-size="14.00">  EX_Nothing</text>
</g>
<!-- StartLogic__0&#45;&gt;StartLogic__15 -->
<g id="edge7" class="edge">
<title>StartLogic__0&#45;&gt;StartLogic__15</title>
<path fill="none" stroke="black" d="M1166.5,-313.83C1166.5,-306 1166.5,-296.57 1166.5,-287.74"/>
<polygon fill="black" stroke="black" points="1170,-287.78 1166.5,-277.78 1163,-287.78 1170,-287.78"/>
</g>
<!-- StartLogic__17 -->
<g id="node12" class="node">
<title>StartLogic__17</title>
<polygon fill="#eeeeee" stroke="black" points="1556.5,-75.5 1556.5,-111.5 1688.5,-111.5 1688.5,-75.5 1556.5,-75.5"/>
<text text-anchor="start" x="1564.5" y="-89.8" font-family="monospace" font-size="14.00">EX_EndOfScript</text>
</g>
</g>
</svg>
