<?xml version="1.0" encoding="UTF-8" standalone="no"?>
<!DOCTYPE svg PUBLIC "-//W3C//DTD SVG 1.1//EN"
 "http://www.w3.org/Graphics/SVG/1.1/DTD/svg11.dtd">
<!-- Generated by graphviz version 7.0.1 (0)
 -->
<!-- Pages: 1 -->
<svg width="3273pt" height="1805pt"
 viewBox="0.00 0.00 3273.00 1805.00" xmlns="http://www.w3.org/2000/svg" xmlns:xlink="http://www.w3.org/1999/xlink">
<g id="graph0" class="graph" transform="scale(1 1) rotate(0) translate(4 1801)">
<polygon fill="white" stroke="none" points="-4,4 -4,-1801 3269,-1801 3269,4 -4,4"/>
<!-- DE_GutWrecker_C -->
<g id="node1" class="node">
<title>DE_GutWrecker_C</title>
<polygon fill="#88ff88" stroke="black" points="0,-1676 0,-1789 734,-1789 734,-1676 0,-1676"/>
<text text-anchor="start" x="8" y="-1773.8" font-family="monospace" font-size="14.00">ClassExport: DE_GutWrecker_C</text>
<text text-anchor="start" x="8" y="-1758.8" font-family="monospace" font-size="14.00">  SuperStruct: import /Script/FSD&#45;&gt;DrinkEffectComponent</text>
<text text-anchor="start" x="8" y="-1743.8" font-family="monospace" font-size="14.00">  Properties:</text>
<text text-anchor="start" x="8" y="-1728.8" font-family="monospace" font-size="14.00">    StructProperty UberGraphFrame</text>
<text text-anchor="start" x="8" y="-1713.8" font-family="monospace" font-size="14.00">      CPF_Transient|CPF_DuplicateTransient</text>
<text text-anchor="start" x="8" y="-1698.8" font-family="monospace" font-size="14.00">    ObjectProperty Character</text>
<text text-anchor="start" x="8" y="-1683.8" font-family="monospace" font-size="14.00">      CPF_Edit|CPF_BlueprintVisible|CPF_DisableEditOnTemplate|CPF_DisableEditOnInstance</text>
</g>
<!-- ExecuteUbergraph_DE_GutWrecker -->
<g id="node2" class="node">
<title>ExecuteUbergraph_DE_GutWrecker</title>
<polygon fill="#ff8888" stroke="black" points="752.5,-1668.5 752.5,-1796.5 1239.5,-1796.5 1239.5,-1668.5 752.5,-1668.5"/>
<text text-anchor="start" x="760.5" y="-1781.3" font-family="monospace" font-size="14.00">Function ExecuteUbergraph_DE_GutWrecker</text>
<text text-anchor="start" x="760.5" y="-1766.3" font-family="monospace" font-size="14.00">  IntProperty EntryPoint</text>
<text text-anchor="start" x="760.5" y="-1751.3" font-family="monospace" font-size="14.00">    CPF_BlueprintVisible|CPF_BlueprintReadOnly|CPF_Parm</text>
<text text-anchor="start" x="760.5" y="-1736.3" font-family="monospace" font-size="14.00">  FloatProperty K2Node_Event_DeltaSeconds</text>
<text text-anchor="start" x="760.5" y="-1721.3" font-family="monospace" font-size="14.00">  ObjectProperty K2Node_Event_character</text>
<text text-anchor="start" x="760.5" y="-1706.3" font-family="monospace" font-size="14.00">  ObjectProperty CallFunc_GetPlayerController_ReturnValue</text>
<text text-anchor="start" x="760.5" y="-1691.3" font-family="monospace" font-size="14.00">  BoolProperty CallFunc_IsLocallyControlled_ReturnValue</text>
<text text-anchor="start" x="760.5" y="-1676.3" font-family="monospace" font-size="14.00">  BoolProperty CallFunc_IsLocallyControlled_ReturnValue_1</text>
</g>
<!-- ExecuteUbergraph_DE_GutWrecker__0 -->
<g id="node3" class="node">
<title>ExecuteUbergraph_DE_GutWrecker__0</title>
<polygon fill="#eeeeee" stroke="black" points="888.5,-1557.5 888.5,-1593.5 1103.5,-1593.5 1103.5,-1557.5 888.5,-1557.5"/>
<text text-anchor="start" x="896.5" y="-1571.8" font-family="monospace" font-size="14.00">EX_PushExecutionFlow 415</text>
</g>
<!-- ExecuteUbergraph_DE_GutWrecker&#45;&gt;ExecuteUbergraph_DE_GutWrecker__0 -->
<g id="edge1" class="edge">
<title>ExecuteUbergraph_DE_GutWrecker&#45;&gt;ExecuteUbergraph_DE_GutWrecker__0</title>
<path fill="none" stroke="black" d="M996,-1668.9C996,-1646.65 996,-1622.69 996,-1604.75"/>
<polygon fill="black" stroke="black" points="999.5,-1604.89 996,-1594.89 992.5,-1604.89 999.5,-1604.89"/>
</g>
<!-- ExecuteUbergraph_DE_GutWrecker__5 -->
<g id="node4" class="node">
<title>ExecuteUbergraph_DE_GutWrecker__5</title>
<polygon fill="#eeeeee" stroke="black" points="808,-1444.5 808,-1482.5 1080,-1482.5 1080,-1444.5 808,-1444.5"/>
<text text-anchor="start" x="816" y="-1467.3" font-family="monospace" font-size="14.00">EX_ComputedJump</text>
<text text-anchor="start" x="816" y="-1452.3" font-family="monospace" font-size="14.00">  EX_LocalVariable [EntryPoint]</text>
</g>
<!-- ExecuteUbergraph_DE_GutWrecker__0&#45;&gt;ExecuteUbergraph_DE_GutWrecker__5 -->
<g id="edge3" class="edge">
<title>ExecuteUbergraph_DE_GutWrecker__0&#45;&gt;ExecuteUbergraph_DE_GutWrecker__5</title>
<path fill="none" stroke="black" d="M988.1,-1557.79C979.96,-1540.57 967.12,-1513.41 957.39,-1492.83"/>
<polygon fill="black" stroke="black" points="960.58,-1491.38 953.14,-1483.83 954.25,-1494.37 960.58,-1491.38"/>
</g>
<!-- ExecuteUbergraph_DE_GutWrecker__415 -->
<g id="node20" class="node">
<title>ExecuteUbergraph_DE_GutWrecker__415</title>
<polygon fill="#eeeeee" stroke="black" points="1098,-1444.5 1098,-1482.5 1214,-1482.5 1214,-1444.5 1098,-1444.5"/>
<text text-anchor="start" x="1106" y="-1467.3" font-family="monospace" font-size="14.00">EX_Return</text>
<text text-anchor="start" x="1106" y="-1452.3" font-family="monospace" font-size="14.00">  EX_Nothing</text>
</g>
<!-- ExecuteUbergraph_DE_GutWrecker__0&#45;&gt;ExecuteUbergraph_DE_GutWrecker__415 -->
<g id="edge2" class="edge">
<title>ExecuteUbergraph_DE_GutWrecker__0:e&#45;&gt;ExecuteUbergraph_DE_GutWrecker__415</title>
<path fill="none" stroke="red" d="M1105,-1575.5C1141.08,-1575.5 1151.73,-1526.49 1154.81,-1493.6"/>
<polygon fill="none" stroke="red" points="1158.29,-1494.07 1155.53,-1483.84 1151.31,-1493.56 1158.29,-1494.07"/>
<text text-anchor="middle" x="1195.5" y="-1515.8" font-family="monospace" font-size="14.00">PUSH STACK</text>
</g>
<!-- ExecuteUbergraph_DE_GutWrecker__15 -->
<g id="node5" class="node">
<title>ExecuteUbergraph_DE_GutWrecker__15</title>
<polygon fill="#eeeeee" stroke="black" points="1963,-376.5 1963,-504.5 2483,-504.5 2483,-376.5 1963,-376.5"/>
<text text-anchor="start" x="1971" y="-489.3" font-family="monospace" font-size="14.00">EX_CallMath import /Script/Engine&#45;&gt;KismetSystemLibrary&#45;&gt;Delay</text>
<text text-anchor="start" x="1971" y="-474.3" font-family="monospace" font-size="14.00">  EX_Self</text>
<text text-anchor="start" x="1971" y="-459.3" font-family="monospace" font-size="14.00">  EX_FloatConst 2.5</text>
<text text-anchor="start" x="1971" y="-444.3" font-family="monospace" font-size="14.00">  EX_StructConst import /Script/Engine&#45;&gt;LatentActionInfo</text>
<text text-anchor="start" x="1971" y="-429.3" font-family="monospace" font-size="14.00">    EX_SkipOffsetConst 70</text>
<text text-anchor="start" x="1971" y="-414.3" font-family="monospace" font-size="14.00">    EX_IntConst &#45;1954685559</text>
<text text-anchor="start" x="1971" y="-399.3" font-family="monospace" font-size="14.00">    EX_NameConst ExecuteUbergraph_DE_GutWrecker</text>
<text text-anchor="start" x="1971" y="-384.3" font-family="monospace" font-size="14.00">    EX_Self</text>
</g>
<!-- ExecuteUbergraph_DE_GutWrecker__69 -->
<g id="node6" class="node">
<title>ExecuteUbergraph_DE_GutWrecker__69</title>
<polygon fill="#eeeeee" stroke="black" points="2051.5,-271.5 2051.5,-307.5 2224.5,-307.5 2224.5,-271.5 2051.5,-271.5"/>
<text text-anchor="start" x="2059.5" y="-285.8" font-family="monospace" font-size="14.00">EX_PopExecutionFlow</text>
</g>
<!-- ExecuteUbergraph_DE_GutWrecker__15&#45;&gt;ExecuteUbergraph_DE_GutWrecker__69 -->
<g id="edge5" class="edge">
<title>ExecuteUbergraph_DE_GutWrecker__15&#45;&gt;ExecuteUbergraph_DE_GutWrecker__69</title>
<path fill="none" stroke="black" d="M2187.2,-376.74C2175.25,-355.8 2162.58,-333.58 2153.09,-316.95"/>
<polygon fill="black" stroke="black" points="2156.37,-315.64 2148.37,-308.68 2150.29,-319.1 2156.37,-315.64"/>
</g>
<!-- ExecuteUbergraph_DE_GutWrecker__70 -->
<g id="node7" class="node">
<title>ExecuteUbergraph_DE_GutWrecker__70</title>
<polygon fill="#eeeeee" stroke="black" points="2243,-240.5 2243,-338.5 2895,-338.5 2895,-240.5 2243,-240.5"/>
<text text-anchor="start" x="2251" y="-323.3" font-family="monospace" font-size="14.00">EX_LetObj</text>
<text text-anchor="start" x="2251" y="-308.3" font-family="monospace" font-size="14.00">  EX_LocalVariable [CallFunc_GetPlayerController_ReturnValue]</text>
<text text-anchor="start" x="2251" y="-293.3" font-family="monospace" font-size="14.00">  EX_Context</text>
<text text-anchor="start" x="2251" y="-278.3" font-family="monospace" font-size="14.00">    EX_LocalVariable [K2Node_Event_character]</text>
<text text-anchor="start" x="2251" y="-263.3" font-family="monospace" font-size="14.00">    EX_FinalFunction import /Script/FSD&#45;&gt;PlayerCharacter&#45;&gt;GetPlayerController</text>
<text text-anchor="start" x="2251" y="-248.3" font-family="monospace" font-size="14.00">    RValue = [CallFunc_GetPlayerController_ReturnValue]</text>
</g>
<!-- ExecuteUbergraph_DE_GutWrecker__15&#45;&gt;ExecuteUbergraph_DE_GutWrecker__70 -->
<g id="edge4" class="edge">
<title>ExecuteUbergraph_DE_GutWrecker__15:e&#45;&gt;ExecuteUbergraph_DE_GutWrecker__70</title>
<path fill="none" stroke="red" d="M2484,-440.5C2527.83,-440.5 2549.32,-391.43 2559.7,-349.43"/>
<polygon fill="none" stroke="red" points="2563.07,-350.38 2561.89,-339.85 2556.25,-348.82 2563.07,-350.38"/>
</g>
<!-- ExecuteUbergraph_DE_GutWrecker__112 -->
<g id="node8" class="node">
<title>ExecuteUbergraph_DE_GutWrecker__112</title>
<polygon fill="#eeeeee" stroke="black" points="2032.5,-74.5 2032.5,-202.5 3105.5,-202.5 3105.5,-74.5 2032.5,-74.5"/>
<text text-anchor="start" x="2040.5" y="-187.3" font-family="monospace" font-size="14.00">EX_Context</text>
<text text-anchor="start" x="2040.5" y="-172.3" font-family="monospace" font-size="14.00">  EX_LocalVariable [CallFunc_GetPlayerController_ReturnValue]</text>
<text text-anchor="start" x="2040.5" y="-157.3" font-family="monospace" font-size="14.00">  EX_VirtualFunction ClientStartCameraShake</text>
<text text-anchor="start" x="2040.5" y="-142.3" font-family="monospace" font-size="14.00">    EX_ObjectConst import /Game/Character/Camera/CameraShakes/CameraShake_BuffBeer_Gutwrecker&#45;&gt;CameraShake_BuffBeer_Gutwrecker_C</text>
<text text-anchor="start" x="2040.5" y="-127.3" font-family="monospace" font-size="14.00">    EX_FloatConst 1</text>
<text text-anchor="start" x="2040.5" y="-112.3" font-family="monospace" font-size="14.00">    EX_ByteConst 0</text>
<text text-anchor="start" x="2040.5" y="-97.3" font-family="monospace" font-size="14.00">    EX_RotationConst 0,0,0</text>
<text text-anchor="start" x="2040.5" y="-82.3" font-family="monospace" font-size="14.00">  RValue = []</text>
</g>
<!-- ExecuteUbergraph_DE_GutWrecker__70&#45;&gt;ExecuteUbergraph_DE_GutWrecker__112 -->
<g id="edge6" class="edge">
<title>ExecuteUbergraph_DE_GutWrecker__70&#45;&gt;ExecuteUbergraph_DE_GutWrecker__112</title>
<path fill="none" stroke="black" d="M2569,-240.54C2569,-231.98 2569,-222.89 2569,-213.8"/>
<polygon fill="black" stroke="black" points="2572.5,-213.85 2569,-203.85 2565.5,-213.85 2572.5,-213.85"/>
</g>
<!-- ExecuteUbergraph_DE_GutWrecker__177 -->
<g id="node9" class="node">
<title>ExecuteUbergraph_DE_GutWrecker__177</title>
<polygon fill="#eeeeee" stroke="black" points="2482.5,-0.5 2482.5,-36.5 2655.5,-36.5 2655.5,-0.5 2482.5,-0.5"/>
<text text-anchor="start" x="2490.5" y="-14.8" font-family="monospace" font-size="14.00">EX_PopExecutionFlow</text>
</g>
<!-- ExecuteUbergraph_DE_GutWrecker__112&#45;&gt;ExecuteUbergraph_DE_GutWrecker__177 -->
<g id="edge7" class="edge">
<title>ExecuteUbergraph_DE_GutWrecker__112&#45;&gt;ExecuteUbergraph_DE_GutWrecker__177</title>
<path fill="none" stroke="black" d="M2569,-74.7C2569,-65.08 2569,-55.61 2569,-47.29"/>
<polygon fill="black" stroke="black" points="2572.5,-47.57 2569,-37.57 2565.5,-47.57 2572.5,-47.57"/>
</g>
<!-- ExecuteUbergraph_DE_GutWrecker__178 -->
<g id="node10" class="node">
<title>ExecuteUbergraph_DE_GutWrecker__178</title>
<polygon fill="#eeeeee" stroke="black" points="1955,-1070.5 1955,-1168.5 2491,-1168.5 2491,-1070.5 1955,-1070.5"/>
<text text-anchor="start" x="1963" y="-1153.3" font-family="monospace" font-size="14.00">EX_LetBool</text>
<text text-anchor="start" x="1963" y="-1138.3" font-family="monospace" font-size="14.00">  EX_LocalVariable [CallFunc_IsLocallyControlled_ReturnValue_1]</text>
<text text-anchor="start" x="1963" y="-1123.3" font-family="monospace" font-size="14.00">  EX_Context</text>
<text text-anchor="start" x="1963" y="-1108.3" font-family="monospace" font-size="14.00">    EX_LocalVariable [K2Node_Event_character]</text>
<text text-anchor="start" x="1963" y="-1093.3" font-family="monospace" font-size="14.00">    EX_VirtualFunction IsLocallyControlled</text>
<text text-anchor="start" x="1963" y="-1078.3" font-family="monospace" font-size="14.00">    RValue = [CallFunc_IsLocallyControlled_ReturnValue_1]</text>
</g>
<!-- ExecuteUbergraph_DE_GutWrecker__224 -->
<g id="node11" class="node">
<title>ExecuteUbergraph_DE_GutWrecker__224</title>
<polygon fill="#eeeeee" stroke="black" points="1955,-994.5 1955,-1032.5 2491,-1032.5 2491,-994.5 1955,-994.5"/>
<text text-anchor="start" x="1963" y="-1017.3" font-family="monospace" font-size="14.00">EX_PopExecutionFlowIfNot</text>
<text text-anchor="start" x="1963" y="-1002.3" font-family="monospace" font-size="14.00">  EX_LocalVariable [CallFunc_IsLocallyControlled_ReturnValue_1]</text>
</g>
<!-- ExecuteUbergraph_DE_GutWrecker__178&#45;&gt;ExecuteUbergraph_DE_GutWrecker__224 -->
<g id="edge8" class="edge">
<title>ExecuteUbergraph_DE_GutWrecker__178&#45;&gt;ExecuteUbergraph_DE_GutWrecker__224</title>
<path fill="none" stroke="black" d="M2223,-1070.76C2223,-1061.58 2223,-1052.21 2223,-1043.83"/>
<polygon fill="black" stroke="black" points="2226.5,-1043.89 2223,-1033.89 2219.5,-1043.89 2226.5,-1043.89"/>
</g>
<!-- ExecuteUbergraph_DE_GutWrecker__234 -->
<g id="node12" class="node">
<title>ExecuteUbergraph_DE_GutWrecker__234</title>
<polygon fill="#eeeeee" stroke="black" points="1736,-828.5 1736,-956.5 2710,-956.5 2710,-828.5 1736,-828.5"/>
<text text-anchor="start" x="1744" y="-941.3" font-family="monospace" font-size="14.00">EX_Context</text>
<text text-anchor="start" x="1744" y="-926.3" font-family="monospace" font-size="14.00">  EX_Context</text>
<text text-anchor="start" x="1744" y="-911.3" font-family="monospace" font-size="14.00">    EX_LocalVariable [K2Node_Event_character]</text>
<text text-anchor="start" x="1744" y="-896.3" font-family="monospace" font-size="14.00">    EX_InstanceVariable [CommunicationComponent]</text>
<text text-anchor="start" x="1744" y="-881.3" font-family="monospace" font-size="14.00">    RValue = [CommunicationComponent]</text>
<text text-anchor="start" x="1744" y="-866.3" font-family="monospace" font-size="14.00">  EX_FinalFunction import /Script/FSD&#45;&gt;CommunicationComponent&#45;&gt;ShoutCustom</text>
<text text-anchor="start" x="1744" y="-851.3" font-family="monospace" font-size="14.00">    EX_ObjectConst import /Game/Character/Shouts/SpaceRig/Bar/Shout_Beer_GutWrecker_Burp&#45;&gt;Shout_Beer_GutWrecker_Burp</text>
<text text-anchor="start" x="1744" y="-836.3" font-family="monospace" font-size="14.00">  RValue = []</text>
</g>
<!-- ExecuteUbergraph_DE_GutWrecker__224&#45;&gt;ExecuteUbergraph_DE_GutWrecker__234 -->
<g id="edge9" class="edge">
<title>ExecuteUbergraph_DE_GutWrecker__224&#45;&gt;ExecuteUbergraph_DE_GutWrecker__234</title>
<path fill="none" stroke="black" d="M2223,-994.68C2223,-987.1 2223,-977.7 2223,-967.71"/>
<polygon fill="black" stroke="black" points="2226.5,-967.76 2223,-957.76 2219.5,-967.76 2226.5,-967.76"/>
</g>
<!-- ExecuteUbergraph_DE_GutWrecker__297 -->
<g id="node13" class="node">
<title>ExecuteUbergraph_DE_GutWrecker__297</title>
<polygon fill="#eeeeee" stroke="black" points="1963,-692.5 1963,-790.5 2483,-790.5 2483,-692.5 1963,-692.5"/>
<text text-anchor="start" x="1971" y="-775.3" font-family="monospace" font-size="14.00">EX_LetBool</text>
<text text-anchor="start" x="1971" y="-760.3" font-family="monospace" font-size="14.00">  EX_LocalVariable [CallFunc_IsLocallyControlled_ReturnValue]</text>
<text text-anchor="start" x="1971" y="-745.3" font-family="monospace" font-size="14.00">  EX_Context</text>
<text text-anchor="start" x="1971" y="-730.3" font-family="monospace" font-size="14.00">    EX_LocalVariable [K2Node_Event_character]</text>
<text text-anchor="start" x="1971" y="-715.3" font-family="monospace" font-size="14.00">    EX_VirtualFunction IsLocallyControlled</text>
<text text-anchor="start" x="1971" y="-700.3" font-family="monospace" font-size="14.00">    RValue = [CallFunc_IsLocallyControlled_ReturnValue]</text>
</g>
<!-- ExecuteUbergraph_DE_GutWrecker__234&#45;&gt;ExecuteUbergraph_DE_GutWrecker__297 -->
<g id="edge10" class="edge">
<title>ExecuteUbergraph_DE_GutWrecker__234&#45;&gt;ExecuteUbergraph_DE_GutWrecker__297</title>
<path fill="none" stroke="black" d="M2223,-828.74C2223,-819.78 2223,-810.59 2223,-801.71"/>
<polygon fill="black" stroke="black" points="2226.5,-801.76 2223,-791.76 2219.5,-801.76 2226.5,-801.76"/>
</g>
<!-- ExecuteUbergraph_DE_GutWrecker__343 -->
<g id="node14" class="node">
<title>ExecuteUbergraph_DE_GutWrecker__343</title>
<polygon fill="#eeeeee" stroke="black" points="1963,-616.5 1963,-654.5 2483,-654.5 2483,-616.5 1963,-616.5"/>
<text text-anchor="start" x="1971" y="-639.3" font-family="monospace" font-size="14.00">EX_PopExecutionFlowIfNot</text>
<text text-anchor="start" x="1971" y="-624.3" font-family="monospace" font-size="14.00">  EX_LocalVariable [CallFunc_IsLocallyControlled_ReturnValue]</text>
</g>
<!-- ExecuteUbergraph_DE_GutWrecker__297&#45;&gt;ExecuteUbergraph_DE_GutWrecker__343 -->
<g id="edge11" class="edge">
<title>ExecuteUbergraph_DE_GutWrecker__297&#45;&gt;ExecuteUbergraph_DE_GutWrecker__343</title>
<path fill="none" stroke="black" d="M2223,-692.76C2223,-683.58 2223,-674.21 2223,-665.83"/>
<polygon fill="black" stroke="black" points="2226.5,-665.89 2223,-655.89 2219.5,-665.89 2226.5,-665.89"/>
</g>
<!-- ExecuteUbergraph_DE_GutWrecker__353 -->
<g id="node15" class="node">
<title>ExecuteUbergraph_DE_GutWrecker__353</title>
<polygon fill="#eeeeee" stroke="black" points="2173.5,-542.5 2173.5,-578.5 2272.5,-578.5 2272.5,-542.5 2173.5,-542.5"/>
<text text-anchor="start" x="2181.5" y="-556.8" font-family="monospace" font-size="14.00">EX_Jump 15</text>
</g>
<!-- ExecuteUbergraph_DE_GutWrecker__343&#45;&gt;ExecuteUbergraph_DE_GutWrecker__353 -->
<g id="edge12" class="edge">
<title>ExecuteUbergraph_DE_GutWrecker__343&#45;&gt;ExecuteUbergraph_DE_GutWrecker__353</title>
<path fill="none" stroke="black" d="M2223,-616.83C2223,-608.61 2223,-598.65 2223,-589.45"/>
<polygon fill="black" stroke="black" points="2226.5,-589.52 2223,-579.52 2219.5,-589.52 2226.5,-589.52"/>
</g>
<!-- ExecuteUbergraph_DE_GutWrecker__353&#45;&gt;ExecuteUbergraph_DE_GutWrecker__15 -->
<g id="edge13" class="edge">
<title>ExecuteUbergraph_DE_GutWrecker__353&#45;&gt;ExecuteUbergraph_DE_GutWrecker__15</title>
<path fill="none" stroke="black" d="M2223,-542.59C2223,-535.14 2223,-525.81 2223,-515.86"/>
<polygon fill="black" stroke="black" points="2226.5,-515.94 2223,-505.94 2219.5,-515.94 2226.5,-515.94"/>
</g>
<!-- ExecuteUbergraph_DE_GutWrecker__358 -->
<g id="node16" class="node">
<title>ExecuteUbergraph_DE_GutWrecker__358</title>
<polygon fill="#eeeeee" stroke="black" points="2451.5,-1288.5 2451.5,-1324.5 2624.5,-1324.5 2624.5,-1288.5 2451.5,-1288.5"/>
<text text-anchor="start" x="2459.5" y="-1302.8" font-family="monospace" font-size="14.00">EX_PopExecutionFlow</text>
</g>
<!-- ExecuteUbergraph_DE_GutWrecker__359 -->
<g id="node17" class="node">
<title>ExecuteUbergraph_DE_GutWrecker__359</title>
<polygon fill="#eeeeee" stroke="black" points="1619,-1242.5 1619,-1370.5 2139,-1370.5 2139,-1242.5 1619,-1242.5"/>
<text text-anchor="start" x="1627" y="-1355.3" font-family="monospace" font-size="14.00">EX_CallMath import /Script/Engine&#45;&gt;KismetSystemLibrary&#45;&gt;Delay</text>
<text text-anchor="start" x="1627" y="-1340.3" font-family="monospace" font-size="14.00">  EX_Self</text>
<text text-anchor="start" x="1627" y="-1325.3" font-family="monospace" font-size="14.00">  EX_FloatConst 3</text>
<text text-anchor="start" x="1627" y="-1310.3" font-family="monospace" font-size="14.00">  EX_StructConst import /Script/Engine&#45;&gt;LatentActionInfo</text>
<text text-anchor="start" x="1627" y="-1295.3" font-family="monospace" font-size="14.00">    EX_SkipOffsetConst 178</text>
<text text-anchor="start" x="1627" y="-1280.3" font-family="monospace" font-size="14.00">    EX_IntConst &#45;1638879274</text>
<text text-anchor="start" x="1627" y="-1265.3" font-family="monospace" font-size="14.00">    EX_NameConst ExecuteUbergraph_DE_GutWrecker</text>
<text text-anchor="start" x="1627" y="-1250.3" font-family="monospace" font-size="14.00">    EX_Self</text>
</g>
<!-- ExecuteUbergraph_DE_GutWrecker__359&#45;&gt;ExecuteUbergraph_DE_GutWrecker__178 -->
<g id="edge14" class="edge">
<title>ExecuteUbergraph_DE_GutWrecker__359:e&#45;&gt;ExecuteUbergraph_DE_GutWrecker__178</title>
<path fill="none" stroke="red" d="M2140,-1306.5C2154.47,-1306.5 2144.13,-1255.63 2149,-1242 2156.88,-1219.91 2169.1,-1197.49 2181.35,-1178.03"/>
<polygon fill="none" stroke="red" points="2184.24,-1180 2186.72,-1169.7 2178.36,-1176.21 2184.24,-1180"/>
</g>
<!-- ExecuteUbergraph_DE_GutWrecker__413 -->
<g id="node18" class="node">
<title>ExecuteUbergraph_DE_GutWrecker__413</title>
<polygon fill="#eeeeee" stroke="black" points="1763.5,-1101.5 1763.5,-1137.5 1936.5,-1137.5 1936.5,-1101.5 1763.5,-1101.5"/>
<text text-anchor="start" x="1771.5" y="-1115.8" font-family="monospace" font-size="14.00">EX_PopExecutionFlow</text>
</g>
<!-- ExecuteUbergraph_DE_GutWrecker__359&#45;&gt;ExecuteUbergraph_DE_GutWrecker__413 -->
<g id="edge15" class="edge">
<title>ExecuteUbergraph_DE_GutWrecker__359&#45;&gt;ExecuteUbergraph_DE_GutWrecker__413</title>
<path fill="none" stroke="black" d="M1869.14,-1242.61C1864.12,-1210.56 1858.26,-1173.22 1854.36,-1148.34"/>
<polygon fill="black" stroke="black" points="1857.86,-1148.05 1852.85,-1138.71 1850.95,-1149.13 1857.86,-1148.05"/>
</g>
<!-- ExecuteUbergraph_DE_GutWrecker__414 -->
<g id="node19" class="node">
<title>ExecuteUbergraph_DE_GutWrecker__414</title>
<polygon fill="#eeeeee" stroke="black" points="3031.5,-1445.5 3031.5,-1481.5 3204.5,-1481.5 3204.5,-1445.5 3031.5,-1445.5"/>
<text text-anchor="start" x="3039.5" y="-1459.8" font-family="monospace" font-size="14.00">EX_PopExecutionFlow</text>
</g>
<!-- ExecuteUbergraph_DE_GutWrecker__417 -->
<g id="node21" class="node">
<title>ExecuteUbergraph_DE_GutWrecker__417</title>
<polygon fill="#eeeeee" stroke="black" points="2811,-1613.5 2811,-1649.5 2943,-1649.5 2943,-1613.5 2811,-1613.5"/>
<text text-anchor="start" x="2819" y="-1627.8" font-family="monospace" font-size="14.00">EX_EndOfScript</text>
</g>
<!-- OnStopEffect -->
<g id="node22" class="node">
<title>OnStopEffect</title>
<polygon fill="#ff8888" stroke="black" points="2701,-1714.5 2701,-1750.5 2891,-1750.5 2891,-1714.5 2701,-1714.5"/>
<text text-anchor="start" x="2709" y="-1728.8" font-family="monospace" font-size="14.00">Function OnStopEffect</text>
</g>
<!-- OnStopEffect__0 -->
<g id="node23" class="node">
<title>OnStopEffect__0</title>
<polygon fill="#eeeeee" stroke="black" points="2474,-1556.5 2474,-1594.5 3118,-1594.5 3118,-1556.5 2474,-1556.5"/>
<text text-anchor="start" x="2482" y="-1579.3" font-family="monospace" font-size="14.00">EX_LocalFinalFunction export DE_GutWrecker_C&#45;&gt;ExecuteUbergraph_DE_GutWrecker</text>
<text text-anchor="start" x="2482" y="-1564.3" font-family="monospace" font-size="14.00">  EX_IntConst 414</text>
</g>
<!-- OnStopEffect&#45;&gt;OnStopEffect__0 -->
<g id="edge16" class="edge">
<title>OnStopEffect&#45;&gt;OnStopEffect__0</title>
<path fill="none" stroke="black" d="M2796,-1714.62C2796,-1688.46 2796,-1637.8 2796,-1605.64"/>
<polygon fill="black" stroke="black" points="2799.5,-1605.83 2796,-1595.83 2792.5,-1605.83 2799.5,-1605.83"/>
</g>
<!-- OnStopEffect__0&#45;&gt;ExecuteUbergraph_DE_GutWrecker__414 -->
<g id="edge17" class="edge">
<title>OnStopEffect__0:e&#45;&gt;ExecuteUbergraph_DE_GutWrecker__414</title>
<path fill="none" stroke="red" d="M3119,-1575.5C3135.56,-1575.5 3129.43,-1525.46 3123.62,-1492.57"/>
<polygon fill="none" stroke="red" points="3127.08,-1492.04 3121.81,-1482.85 3120.2,-1493.32 3127.08,-1492.04"/>
</g>
<!-- OnStopEffect__15 -->
<g id="node24" class="node">
<title>OnStopEffect__15</title>
<polygon fill="#eeeeee" stroke="black" points="2738,-1444.5 2738,-1482.5 2854,-1482.5 2854,-1444.5 2738,-1444.5"/>
<text text-anchor="start" x="2746" y="-1467.3" font-family="monospace" font-size="14.00">EX_Return</text>
<text text-anchor="start" x="2746" y="-1452.3" font-family="monospace" font-size="14.00">  EX_Nothing</text>
</g>
<!-- OnStopEffect__0&#45;&gt;OnStopEffect__15 -->
<g id="edge18" class="edge">
<title>OnStopEffect__0&#45;&gt;OnStopEffect__15</title>
<path fill="none" stroke="black" d="M2796,-1556.83C2796,-1539.85 2796,-1513.88 2796,-1493.81"/>
<polygon fill="black" stroke="black" points="2799.5,-1494.01 2796,-1484.01 2792.5,-1494.01 2799.5,-1494.01"/>
</g>
<!-- OnStopEffect__17 -->
<g id="node25" class="node">
<title>OnStopEffect__17</title>
<polygon fill="#eeeeee" stroke="black" points="3133,-1501.5 3133,-1537.5 3265,-1537.5 3265,-1501.5 3133,-1501.5"/>
<text text-anchor="start" x="3141" y="-1515.8" font-family="monospace" font-size="14.00">EX_EndOfScript</text>
</g>
<!-- OnStartEffect -->
<g id="node26" class="node">
<title>OnStartEffect</title>
<polygon fill="#ff8888" stroke="black" points="1319,-1706 1319,-1759 1789,-1759 1789,-1706 1319,-1706"/>
<text text-anchor="start" x="1327" y="-1743.8" font-family="monospace" font-size="14.00">Function OnStartEffect</text>
<text text-anchor="start" x="1327" y="-1728.8" font-family="monospace" font-size="14.00">  ObjectProperty character</text>
<text text-anchor="start" x="1327" y="-1713.8" font-family="monospace" font-size="14.00">    CPF_BlueprintVisible|CPF_BlueprintReadOnly|CPF_Parm</text>
</g>
<!-- OnStartEffect__0 -->
<g id="node27" class="node">
<title>OnStartEffect__0</title>
<polygon fill="#eeeeee" stroke="black" points="1327,-1556.5 1327,-1594.5 1781,-1594.5 1781,-1556.5 1327,-1556.5"/>
<text text-anchor="start" x="1335" y="-1579.3" font-family="monospace" font-size="14.00">EX_LetValueOnPersistentFrame [K2Node_Event_character]</text>
<text text-anchor="start" x="1335" y="-1564.3" font-family="monospace" font-size="14.00">  EX_LocalVariable [character]</text>
</g>
<!-- OnStartEffect&#45;&gt;OnStartEffect__0 -->
<g id="edge19" class="edge">
<title>OnStartEffect&#45;&gt;OnStartEffect__0</title>
<path fill="none" stroke="black" d="M1554,-1706.25C1554,-1678.78 1554,-1634.91 1554,-1605.91"/>
<polygon fill="black" stroke="black" points="1557.5,-1605.99 1554,-1595.99 1550.5,-1605.99 1557.5,-1605.99"/>
</g>
<!-- OnStartEffect__18 -->
<g id="node28" class="node">
<title>OnStartEffect__18</title>
<polygon fill="#eeeeee" stroke="black" points="1232,-1444.5 1232,-1482.5 1876,-1482.5 1876,-1444.5 1232,-1444.5"/>
<text text-anchor="start" x="1240" y="-1467.3" font-family="monospace" font-size="14.00">EX_LocalFinalFunction export DE_GutWrecker_C&#45;&gt;ExecuteUbergraph_DE_GutWrecker</text>
<text text-anchor="start" x="1240" y="-1452.3" font-family="monospace" font-size="14.00">  EX_IntConst 359</text>
</g>
<!-- OnStartEffect__0&#45;&gt;OnStartEffect__18 -->
<g id="edge20" class="edge">
<title>OnStartEffect__0&#45;&gt;OnStartEffect__18</title>
<path fill="none" stroke="black" d="M1554,-1556.83C1554,-1539.85 1554,-1513.88 1554,-1493.81"/>
<polygon fill="black" stroke="black" points="1557.5,-1494.01 1554,-1484.01 1550.5,-1494.01 1557.5,-1494.01"/>
</g>
<!-- OnStartEffect__18&#45;&gt;ExecuteUbergraph_DE_GutWrecker__359 -->
<g id="edge21" class="edge">
<title>OnStartEffect__18:e&#45;&gt;ExecuteUbergraph_DE_GutWrecker__359</title>
<path fill="none" stroke="red" d="M1877,-1463.5C1885.97,-1463.5 1886.19,-1421.68 1884.32,-1381.35"/>
<polygon fill="none" stroke="red" points="1887.82,-1381.37 1883.81,-1371.56 1880.83,-1381.73 1887.82,-1381.37"/>
</g>
<!-- OnStartEffect__33 -->
<g id="node29" class="node">
<title>OnStartEffect__33</title>
<polygon fill="#eeeeee" stroke="black" points="1485,-1287.5 1485,-1325.5 1601,-1325.5 1601,-1287.5 1485,-1287.5"/>
<text text-anchor="start" x="1493" y="-1310.3" font-family="monospace" font-size="14.00">EX_Return</text>
<text text-anchor="start" x="1493" y="-1295.3" font-family="monospace" font-size="14.00">  EX_Nothing</text>
</g>
<!-- OnStartEffect__18&#45;&gt;OnStartEffect__33 -->
<g id="edge22" class="edge">
<title>OnStartEffect__18&#45;&gt;OnStartEffect__33</title>
<path fill="none" stroke="black" d="M1552.74,-1444.72C1550.86,-1418.21 1547.3,-1368.04 1545.04,-1336.26"/>
<polygon fill="black" stroke="black" points="1548.55,-1336.31 1544.35,-1326.58 1541.57,-1336.81 1548.55,-1336.31"/>
</g>
<!-- OnStartEffect__35 -->
<g id="node30" class="node">
<title>OnStartEffect__35</title>
<polygon fill="#eeeeee" stroke="black" points="2553,-1389.5 2553,-1425.5 2685,-1425.5 2685,-1389.5 2553,-1389.5"/>
<text text-anchor="start" x="2561" y="-1403.8" font-family="monospace" font-size="14.00">EX_EndOfScript</text>
</g>
<!-- ReceiveTick -->
<g id="node31" class="node">
<title>ReceiveTick</title>
<polygon fill="#ff8888" stroke="black" points="1981,-1706 1981,-1759 2451,-1759 2451,-1706 1981,-1706"/>
<text text-anchor="start" x="1989" y="-1743.8" font-family="monospace" font-size="14.00">Function ReceiveTick</text>
<text text-anchor="start" x="1989" y="-1728.8" font-family="monospace" font-size="14.00">  FloatProperty DeltaSeconds</text>
<text text-anchor="start" x="1989" y="-1713.8" font-family="monospace" font-size="14.00">    CPF_BlueprintVisible|CPF_BlueprintReadOnly|CPF_Parm</text>
</g>
<!-- ReceiveTick__0 -->
<g id="node32" class="node">
<title>ReceiveTick__0</title>
<polygon fill="#eeeeee" stroke="black" points="1976.5,-1556.5 1976.5,-1594.5 2455.5,-1594.5 2455.5,-1556.5 1976.5,-1556.5"/>
<text text-anchor="start" x="1984.5" y="-1579.3" font-family="monospace" font-size="14.00">EX_LetValueOnPersistentFrame [K2Node_Event_DeltaSeconds]</text>
<text text-anchor="start" x="1984.5" y="-1564.3" font-family="monospace" font-size="14.00">  EX_LocalVariable [DeltaSeconds]</text>
</g>
<!-- ReceiveTick&#45;&gt;ReceiveTick__0 -->
<g id="edge23" class="edge">
<title>ReceiveTick&#45;&gt;ReceiveTick__0</title>
<path fill="none" stroke="black" d="M2216,-1706.25C2216,-1678.78 2216,-1634.91 2216,-1605.91"/>
<polygon fill="black" stroke="black" points="2219.5,-1605.99 2216,-1595.99 2212.5,-1605.99 2219.5,-1605.99"/>
</g>
<!-- ReceiveTick__18 -->
<g id="node33" class="node">
<title>ReceiveTick__18</title>
<polygon fill="#eeeeee" stroke="black" points="1894,-1444.5 1894,-1482.5 2538,-1482.5 2538,-1444.5 1894,-1444.5"/>
<text text-anchor="start" x="1902" y="-1467.3" font-family="monospace" font-size="14.00">EX_LocalFinalFunction export DE_GutWrecker_C&#45;&gt;ExecuteUbergraph_DE_GutWrecker</text>
<text text-anchor="start" x="1902" y="-1452.3" font-family="monospace" font-size="14.00">  EX_IntConst 358</text>
</g>
<!-- ReceiveTick__0&#45;&gt;ReceiveTick__18 -->
<g id="edge24" class="edge">
<title>ReceiveTick__0&#45;&gt;ReceiveTick__18</title>
<path fill="none" stroke="black" d="M2216,-1556.83C2216,-1539.85 2216,-1513.88 2216,-1493.81"/>
<polygon fill="black" stroke="black" points="2219.5,-1494.01 2216,-1484.01 2212.5,-1494.01 2219.5,-1494.01"/>
</g>
<!-- ReceiveTick__18&#45;&gt;ExecuteUbergraph_DE_GutWrecker__358 -->
<g id="edge25" class="edge">
<title>ReceiveTick__18:e&#45;&gt;ExecuteUbergraph_DE_GutWrecker__358</title>
<path fill="none" stroke="red" d="M2539,-1463.5C2551.62,-1463.5 2545.33,-1380.79 2540.98,-1335.82"/>
<polygon fill="none" stroke="red" points="2544.48,-1335.6 2540,-1326 2537.51,-1336.3 2544.48,-1335.6"/>
</g>
<!-- ReceiveTick__33 -->
<g id="node34" class="node">
<title>ReceiveTick__33</title>
<polygon fill="#eeeeee" stroke="black" points="2158,-1287.5 2158,-1325.5 2274,-1325.5 2274,-1287.5 2158,-1287.5"/>
<text text-anchor="start" x="2166" y="-1310.3" font-family="monospace" font-size="14.00">EX_Return</text>
<text text-anchor="start" x="2166" y="-1295.3" font-family="monospace" font-size="14.00">  EX_Nothing</text>
</g>
<!-- ReceiveTick__18&#45;&gt;ReceiveTick__33 -->
<g id="edge26" class="edge">
<title>ReceiveTick__18&#45;&gt;ReceiveTick__33</title>
<path fill="none" stroke="black" d="M2216,-1444.72C2216,-1418.21 2216,-1368.04 2216,-1336.26"/>
<polygon fill="black" stroke="black" points="2219.5,-1336.59 2216,-1326.59 2212.5,-1336.59 2219.5,-1336.59"/>
</g>
<!-- ReceiveTick__35 -->
<g id="node35" class="node">
<title>ReceiveTick__35</title>
<polygon fill="#eeeeee" stroke="black" points="2210,-1187.5 2210,-1223.5 2342,-1223.5 2342,-1187.5 2210,-1187.5"/>
<text text-anchor="start" x="2218" y="-1201.8" font-family="monospace" font-size="14.00">EX_EndOfScript</text>
</g>
</g>
</svg>
