<?xml version="1.0" encoding="UTF-8" standalone="no"?>
<!DOCTYPE svg PUBLIC "-//W3C//DTD SVG 1.1//EN"
 "http://www.w3.org/Graphics/SVG/1.1/DTD/svg11.dtd">
<!-- Generated by graphviz version 7.0.1 (0)
 -->
<!-- Pages: 1 -->
<svg width="2929pt" height="883pt"
 viewBox="0.00 0.00 2928.50 883.00" xmlns="http://www.w3.org/2000/svg" xmlns:xlink="http://www.w3.org/1999/xlink">
<g id="graph0" class="graph" transform="scale(1 1) rotate(0) translate(4 879)">
<polygon fill="white" stroke="none" points="-4,4 -4,-879 2924.5,-879 2924.5,4 -4,4"/>
<!-- DE_StrongerBarrelKicking_C -->
<g id="node1" class="node">
<title>DE_StrongerBarrelKicking_C</title>
<polygon fill="#88ff88" stroke="black" points="0,-761.5 0,-874.5 734,-874.5 734,-761.5 0,-761.5"/>
<text text-anchor="start" x="8" y="-859.3" font-family="monospace" font-size="14.00">ClassExport: DE_StrongerBarrelKicking_C</text>
<text text-anchor="start" x="8" y="-844.3" font-family="monospace" font-size="14.00">  SuperStruct: import /Script/FSD&#45;&gt;DrinkEffectComponent</text>
<text text-anchor="start" x="8" y="-829.3" font-family="monospace" font-size="14.00">  Properties:</text>
<text text-anchor="start" x="8" y="-814.3" font-family="monospace" font-size="14.00">    StructProperty UberGraphFrame</text>
<text text-anchor="start" x="8" y="-799.3" font-family="monospace" font-size="14.00">      CPF_Transient|CPF_DuplicateTransient</text>
<text text-anchor="start" x="8" y="-784.3" font-family="monospace" font-size="14.00">    ObjectProperty Character</text>
<text text-anchor="start" x="8" y="-769.3" font-family="monospace" font-size="14.00">      CPF_Edit|CPF_BlueprintVisible|CPF_DisableEditOnTemplate|CPF_DisableEditOnInstance</text>
</g>
<!-- ExecuteUbergraph_DE_StrongerBarrelKicking -->
<g id="node2" class="node">
<title>ExecuteUbergraph_DE_StrongerBarrelKicking</title>
<polygon fill="#ff8888" stroke="black" points="752,-776.5 752,-859.5 1222,-859.5 1222,-776.5 752,-776.5"/>
<text text-anchor="start" x="760" y="-844.3" font-family="monospace" font-size="14.00">Function ExecuteUbergraph_DE_StrongerBarrelKicking</text>
<text text-anchor="start" x="760" y="-829.3" font-family="monospace" font-size="14.00">  IntProperty EntryPoint</text>
<text text-anchor="start" x="760" y="-814.3" font-family="monospace" font-size="14.00">    CPF_BlueprintVisible|CPF_BlueprintReadOnly|CPF_Parm</text>
<text text-anchor="start" x="760" y="-799.3" font-family="monospace" font-size="14.00">  IntProperty CallFunc_AddModifier_ReturnValue</text>
<text text-anchor="start" x="760" y="-784.3" font-family="monospace" font-size="14.00">  ObjectProperty K2Node_Event_character</text>
</g>
<!-- ExecuteUbergraph_DE_StrongerBarrelKicking__0 -->
<g id="node3" class="node">
<title>ExecuteUbergraph_DE_StrongerBarrelKicking__0</title>
<polygon fill="#eeeeee" stroke="black" points="851,-686.5 851,-724.5 1123,-724.5 1123,-686.5 851,-686.5"/>
<text text-anchor="start" x="859" y="-709.3" font-family="monospace" font-size="14.00">EX_ComputedJump</text>
<text text-anchor="start" x="859" y="-694.3" font-family="monospace" font-size="14.00">  EX_LocalVariable [EntryPoint]</text>
</g>
<!-- ExecuteUbergraph_DE_StrongerBarrelKicking&#45;&gt;ExecuteUbergraph_DE_StrongerBarrelKicking__0 -->
<g id="edge1" class="edge">
<title>ExecuteUbergraph_DE_StrongerBarrelKicking&#45;&gt;ExecuteUbergraph_DE_StrongerBarrelKicking__0</title>
<path fill="none" stroke="black" d="M987,-776.79C987,-763.14 987,-748.16 987,-735.55"/>
<polygon fill="black" stroke="black" points="990.5,-735.82 987,-725.82 983.5,-735.82 990.5,-735.82"/>
</g>
<!-- ExecuteUbergraph_DE_StrongerBarrelKicking__10 -->
<g id="node4" class="node">
<title>ExecuteUbergraph_DE_StrongerBarrelKicking__10</title>
<polygon fill="#eeeeee" stroke="black" points="2153.5,-431.5 2153.5,-574.5 2920.5,-574.5 2920.5,-431.5 2153.5,-431.5"/>
<text text-anchor="start" x="2161.5" y="-559.3" font-family="monospace" font-size="14.00">EX_Context</text>
<text text-anchor="start" x="2161.5" y="-544.3" font-family="monospace" font-size="14.00">  EX_Context</text>
<text text-anchor="start" x="2161.5" y="-529.3" font-family="monospace" font-size="14.00">    EX_InstanceVariable [Character]</text>
<text text-anchor="start" x="2161.5" y="-514.3" font-family="monospace" font-size="14.00">    EX_InstanceVariable [PawnStatsComponent]</text>
<text text-anchor="start" x="2161.5" y="-499.3" font-family="monospace" font-size="14.00">    RValue = [PawnStatsComponent]</text>
<text text-anchor="start" x="2161.5" y="-484.3" font-family="monospace" font-size="14.00">  EX_FinalFunction import /Script/FSD&#45;&gt;PawnStatsComponent&#45;&gt;RemoveModifier</text>
<text text-anchor="start" x="2161.5" y="-469.3" font-family="monospace" font-size="14.00">    EX_ObjectConst import /Game/GameElements/PawnStats/PST_BarrelKicking&#45;&gt;PST_BarrelKicking</text>
<text text-anchor="start" x="2161.5" y="-454.3" font-family="monospace" font-size="14.00">    EX_FloatConst 3</text>
<text text-anchor="start" x="2161.5" y="-439.3" font-family="monospace" font-size="14.00">  RValue = []</text>
</g>
<!-- ExecuteUbergraph_DE_StrongerBarrelKicking__78 -->
<g id="node5" class="node">
<title>ExecuteUbergraph_DE_StrongerBarrelKicking__78</title>
<polygon fill="#eeeeee" stroke="black" points="2472.5,-358.5 2472.5,-394.5 2579.5,-394.5 2579.5,-358.5 2472.5,-358.5"/>
<text text-anchor="start" x="2480.5" y="-372.8" font-family="monospace" font-size="14.00">EX_Jump 203</text>
</g>
<!-- ExecuteUbergraph_DE_StrongerBarrelKicking__10&#45;&gt;ExecuteUbergraph_DE_StrongerBarrelKicking__78 -->
<g id="edge2" class="edge">
<title>ExecuteUbergraph_DE_StrongerBarrelKicking__10&#45;&gt;ExecuteUbergraph_DE_StrongerBarrelKicking__78</title>
<path fill="none" stroke="black" d="M2530.79,-431.75C2529.96,-422.37 2529.16,-413.24 2528.45,-405.22"/>
<polygon fill="black" stroke="black" points="2531.96,-405.19 2527.59,-395.54 2524.99,-405.81 2531.96,-405.19"/>
</g>
<!-- ExecuteUbergraph_DE_StrongerBarrelKicking__203 -->
<g id="node11" class="node">
<title>ExecuteUbergraph_DE_StrongerBarrelKicking__203</title>
<polygon fill="#eeeeee" stroke="black" points="2247,-0.5 2247,-38.5 2363,-38.5 2363,-0.5 2247,-0.5"/>
<text text-anchor="start" x="2255" y="-23.3" font-family="monospace" font-size="14.00">EX_Return</text>
<text text-anchor="start" x="2255" y="-8.3" font-family="monospace" font-size="14.00">  EX_Nothing</text>
</g>
<!-- ExecuteUbergraph_DE_StrongerBarrelKicking__78&#45;&gt;ExecuteUbergraph_DE_StrongerBarrelKicking__203 -->
<g id="edge3" class="edge">
<title>ExecuteUbergraph_DE_StrongerBarrelKicking__78&#45;&gt;ExecuteUbergraph_DE_StrongerBarrelKicking__203</title>
<path fill="none" stroke="black" d="M2525.97,-358.57C2525.14,-318.63 2518.48,-216.7 2474,-148 2443.93,-101.55 2390.78,-65.64 2352.1,-43.94"/>
<polygon fill="black" stroke="black" points="2353.88,-40.92 2343.43,-39.19 2350.52,-47.06 2353.88,-40.92"/>
</g>
<!-- ExecuteUbergraph_DE_StrongerBarrelKicking__83 -->
<g id="node6" class="node">
<title>ExecuteUbergraph_DE_StrongerBarrelKicking__83</title>
<polygon fill="#eeeeee" stroke="black" points="1681,-148.5 1681,-321.5 2465,-321.5 2465,-148.5 1681,-148.5"/>
<text text-anchor="start" x="1689" y="-306.3" font-family="monospace" font-size="14.00">EX_Let</text>
<text text-anchor="start" x="1689" y="-291.3" font-family="monospace" font-size="14.00">  EX_LocalVariable [CallFunc_AddModifier_ReturnValue]</text>
<text text-anchor="start" x="1689" y="-276.3" font-family="monospace" font-size="14.00">  EX_Context</text>
<text text-anchor="start" x="1689" y="-261.3" font-family="monospace" font-size="14.00">    EX_Context</text>
<text text-anchor="start" x="1689" y="-246.3" font-family="monospace" font-size="14.00">      EX_InstanceVariable [Character]</text>
<text text-anchor="start" x="1689" y="-231.3" font-family="monospace" font-size="14.00">      EX_InstanceVariable [PawnStatsComponent]</text>
<text text-anchor="start" x="1689" y="-216.3" font-family="monospace" font-size="14.00">      RValue = [PawnStatsComponent]</text>
<text text-anchor="start" x="1689" y="-201.3" font-family="monospace" font-size="14.00">    EX_FinalFunction import /Script/FSD&#45;&gt;PawnStatsComponent&#45;&gt;AddModifier</text>
<text text-anchor="start" x="1689" y="-186.3" font-family="monospace" font-size="14.00">      EX_ObjectConst import /Game/GameElements/PawnStats/PST_BarrelKicking&#45;&gt;PST_BarrelKicking</text>
<text text-anchor="start" x="1689" y="-171.3" font-family="monospace" font-size="14.00">      EX_FloatConst 3</text>
<text text-anchor="start" x="1689" y="-156.3" font-family="monospace" font-size="14.00">    RValue = [CallFunc_AddModifier_ReturnValue]</text>
</g>
<!-- ExecuteUbergraph_DE_StrongerBarrelKicking__169 -->
<g id="node7" class="node">
<title>ExecuteUbergraph_DE_StrongerBarrelKicking__169</title>
<polygon fill="#eeeeee" stroke="black" points="2210.5,-75.5 2210.5,-111.5 2317.5,-111.5 2317.5,-75.5 2210.5,-75.5"/>
<text text-anchor="start" x="2218.5" y="-89.8" font-family="monospace" font-size="14.00">EX_Jump 203</text>
</g>
<!-- ExecuteUbergraph_DE_StrongerBarrelKicking__83&#45;&gt;ExecuteUbergraph_DE_StrongerBarrelKicking__169 -->
<g id="edge4" class="edge">
<title>ExecuteUbergraph_DE_StrongerBarrelKicking__83&#45;&gt;ExecuteUbergraph_DE_StrongerBarrelKicking__169</title>
<path fill="none" stroke="black" d="M2189.88,-148.63C2205.16,-137.48 2219.67,-126.88 2231.73,-118.07"/>
<polygon fill="black" stroke="black" points="2233.61,-121.03 2239.63,-112.3 2229.49,-115.37 2233.61,-121.03"/>
</g>
<!-- ExecuteUbergraph_DE_StrongerBarrelKicking__169&#45;&gt;ExecuteUbergraph_DE_StrongerBarrelKicking__203 -->
<g id="edge5" class="edge">
<title>ExecuteUbergraph_DE_StrongerBarrelKicking__169&#45;&gt;ExecuteUbergraph_DE_StrongerBarrelKicking__203</title>
<path fill="none" stroke="black" d="M2273.51,-75.8C2278.15,-67.65 2283.86,-57.63 2289.13,-48.36"/>
<polygon fill="black" stroke="black" points="2292.17,-50.1 2294.08,-39.68 2286.09,-46.64 2292.17,-50.1"/>
</g>
<!-- ExecuteUbergraph_DE_StrongerBarrelKicking__174 -->
<g id="node8" class="node">
<title>ExecuteUbergraph_DE_StrongerBarrelKicking__174</title>
<polygon fill="#eeeeee" stroke="black" points="1755.5,-476.5 1755.5,-529.5 2126.5,-529.5 2126.5,-476.5 1755.5,-476.5"/>
<text text-anchor="start" x="1763.5" y="-514.3" font-family="monospace" font-size="14.00">EX_LetObj</text>
<text text-anchor="start" x="1763.5" y="-499.3" font-family="monospace" font-size="14.00">  EX_InstanceVariable [Character]</text>
<text text-anchor="start" x="1763.5" y="-484.3" font-family="monospace" font-size="14.00">  EX_LocalVariable [K2Node_Event_character]</text>
</g>
<!-- ExecuteUbergraph_DE_StrongerBarrelKicking__193 -->
<g id="node9" class="node">
<title>ExecuteUbergraph_DE_StrongerBarrelKicking__193</title>
<polygon fill="#eeeeee" stroke="black" points="1979.5,-358.5 1979.5,-394.5 2078.5,-394.5 2078.5,-358.5 1979.5,-358.5"/>
<text text-anchor="start" x="1987.5" y="-372.8" font-family="monospace" font-size="14.00">EX_Jump 83</text>
</g>
<!-- ExecuteUbergraph_DE_StrongerBarrelKicking__174&#45;&gt;ExecuteUbergraph_DE_StrongerBarrelKicking__193 -->
<g id="edge6" class="edge">
<title>ExecuteUbergraph_DE_StrongerBarrelKicking__174&#45;&gt;ExecuteUbergraph_DE_StrongerBarrelKicking__193</title>
<path fill="none" stroke="black" d="M1959.02,-476.51C1974.11,-455.16 1995.55,-424.83 2010.71,-403.38"/>
<polygon fill="black" stroke="black" points="2013.4,-405.63 2016.31,-395.45 2007.68,-401.59 2013.4,-405.63"/>
</g>
<!-- ExecuteUbergraph_DE_StrongerBarrelKicking__193&#45;&gt;ExecuteUbergraph_DE_StrongerBarrelKicking__83 -->
<g id="edge7" class="edge">
<title>ExecuteUbergraph_DE_StrongerBarrelKicking__193&#45;&gt;ExecuteUbergraph_DE_StrongerBarrelKicking__83</title>
<path fill="none" stroke="black" d="M2034.31,-358.67C2036.61,-351.36 2039.52,-342.16 2042.69,-332.11"/>
<polygon fill="black" stroke="black" points="2045.95,-333.39 2045.62,-322.8 2039.28,-331.29 2045.95,-333.39"/>
</g>
<!-- ExecuteUbergraph_DE_StrongerBarrelKicking__198 -->
<g id="node10" class="node">
<title>ExecuteUbergraph_DE_StrongerBarrelKicking__198</title>
<polygon fill="#eeeeee" stroke="black" points="2491.5,-612.5 2491.5,-648.5 2590.5,-648.5 2590.5,-612.5 2491.5,-612.5"/>
<text text-anchor="start" x="2499.5" y="-626.8" font-family="monospace" font-size="14.00">EX_Jump 10</text>
</g>
<!-- ExecuteUbergraph_DE_StrongerBarrelKicking__198&#45;&gt;ExecuteUbergraph_DE_StrongerBarrelKicking__10 -->
<g id="edge8" class="edge">
<title>ExecuteUbergraph_DE_StrongerBarrelKicking__198&#45;&gt;ExecuteUbergraph_DE_StrongerBarrelKicking__10</title>
<path fill="none" stroke="black" d="M2540.46,-612.57C2540.23,-605.19 2539.93,-595.93 2539.61,-585.96"/>
<polygon fill="black" stroke="black" points="2543.11,-585.86 2539.29,-575.98 2536.11,-586.08 2543.11,-585.86"/>
</g>
<!-- ExecuteUbergraph_DE_StrongerBarrelKicking__205 -->
<g id="node12" class="node">
<title>ExecuteUbergraph_DE_StrongerBarrelKicking__205</title>
<polygon fill="#eeeeee" stroke="black" points="2543,-217 2543,-253 2675,-253 2675,-217 2543,-217"/>
<text text-anchor="start" x="2551" y="-231.3" font-family="monospace" font-size="14.00">EX_EndOfScript</text>
</g>
<!-- OnStopEffect -->
<g id="node13" class="node">
<title>OnStopEffect</title>
<polygon fill="#ff8888" stroke="black" points="2038,-800 2038,-836 2228,-836 2228,-800 2038,-800"/>
<text text-anchor="start" x="2046" y="-814.3" font-family="monospace" font-size="14.00">Function OnStopEffect</text>
</g>
<!-- OnStopEffect__0 -->
<g id="node14" class="node">
<title>OnStopEffect__0</title>
<polygon fill="#eeeeee" stroke="black" points="1720.5,-686.5 1720.5,-724.5 2545.5,-724.5 2545.5,-686.5 1720.5,-686.5"/>
<text text-anchor="start" x="1728.5" y="-709.3" font-family="monospace" font-size="14.00">EX_LocalFinalFunction export DE_StrongerBarrelKicking_C&#45;&gt;ExecuteUbergraph_DE_StrongerBarrelKicking</text>
<text text-anchor="start" x="1728.5" y="-694.3" font-family="monospace" font-size="14.00">  EX_IntConst 198</text>
</g>
<!-- OnStopEffect&#45;&gt;OnStopEffect__0 -->
<g id="edge9" class="edge">
<title>OnStopEffect&#45;&gt;OnStopEffect__0</title>
<path fill="none" stroke="black" d="M2133,-800.22C2133,-783.06 2133,-756.07 2133,-735.45"/>
<polygon fill="black" stroke="black" points="2136.5,-735.69 2133,-725.69 2129.5,-735.69 2136.5,-735.69"/>
</g>
<!-- OnStopEffect__0&#45;&gt;ExecuteUbergraph_DE_StrongerBarrelKicking__198 -->
<g id="edge10" class="edge">
<title>OnStopEffect__0:e&#45;&gt;ExecuteUbergraph_DE_StrongerBarrelKicking__198</title>
<path fill="none" stroke="red" d="M2547,-705.5C2566.43,-705.5 2560.9,-679.85 2553.07,-658.75"/>
<polygon fill="none" stroke="red" points="2556.41,-657.68 2549.44,-649.7 2549.91,-660.28 2556.41,-657.68"/>
</g>
<!-- OnStopEffect__15 -->
<g id="node15" class="node">
<title>OnStopEffect__15</title>
<polygon fill="#eeeeee" stroke="black" points="2075,-611.5 2075,-649.5 2191,-649.5 2191,-611.5 2075,-611.5"/>
<text text-anchor="start" x="2083" y="-634.3" font-family="monospace" font-size="14.00">EX_Return</text>
<text text-anchor="start" x="2083" y="-619.3" font-family="monospace" font-size="14.00">  EX_Nothing</text>
</g>
<!-- OnStopEffect__0&#45;&gt;OnStopEffect__15 -->
<g id="edge11" class="edge">
<title>OnStopEffect__0&#45;&gt;OnStopEffect__15</title>
<path fill="none" stroke="black" d="M2133,-686.83C2133,-679 2133,-669.57 2133,-660.74"/>
<polygon fill="black" stroke="black" points="2136.5,-660.78 2133,-650.78 2129.5,-660.78 2136.5,-660.78"/>
</g>
<!-- OnStopEffect__17 -->
<g id="node16" class="node">
<title>OnStopEffect__17</title>
<polygon fill="#eeeeee" stroke="black" points="2543,-75.5 2543,-111.5 2675,-111.5 2675,-75.5 2543,-75.5"/>
<text text-anchor="start" x="2551" y="-89.8" font-family="monospace" font-size="14.00">EX_EndOfScript</text>
</g>
<!-- OnStartEffect -->
<g id="node17" class="node">
<title>OnStartEffect</title>
<polygon fill="#ff8888" stroke="black" points="1240,-791.5 1240,-844.5 1710,-844.5 1710,-791.5 1240,-791.5"/>
<text text-anchor="start" x="1248" y="-829.3" font-family="monospace" font-size="14.00">Function OnStartEffect</text>
<text text-anchor="start" x="1248" y="-814.3" font-family="monospace" font-size="14.00">  ObjectProperty character</text>
<text text-anchor="start" x="1248" y="-799.3" font-family="monospace" font-size="14.00">    CPF_BlueprintVisible|CPF_BlueprintReadOnly|CPF_Parm</text>
</g>
<!-- OnStartEffect__0 -->
<g id="node18" class="node">
<title>OnStartEffect__0</title>
<polygon fill="#eeeeee" stroke="black" points="1248,-686.5 1248,-724.5 1702,-724.5 1702,-686.5 1248,-686.5"/>
<text text-anchor="start" x="1256" y="-709.3" font-family="monospace" font-size="14.00">EX_LetValueOnPersistentFrame [K2Node_Event_character]</text>
<text text-anchor="start" x="1256" y="-694.3" font-family="monospace" font-size="14.00">  EX_LocalVariable [character]</text>
</g>
<!-- OnStartEffect&#45;&gt;OnStartEffect__0 -->
<g id="edge12" class="edge">
<title>OnStartEffect&#45;&gt;OnStartEffect__0</title>
<path fill="none" stroke="black" d="M1475,-791.65C1475,-775.06 1475,-753.32 1475,-735.96"/>
<polygon fill="black" stroke="black" points="1478.5,-736.01 1475,-726.01 1471.5,-736.01 1478.5,-736.01"/>
</g>
<!-- OnStartEffect__18 -->
<g id="node19" class="node">
<title>OnStartEffect__18</title>
<polygon fill="#eeeeee" stroke="black" points="1097.5,-611.5 1097.5,-649.5 1922.5,-649.5 1922.5,-611.5 1097.5,-611.5"/>
<text text-anchor="start" x="1105.5" y="-634.3" font-family="monospace" font-size="14.00">EX_LocalFinalFunction export DE_StrongerBarrelKicking_C&#45;&gt;ExecuteUbergraph_DE_StrongerBarrelKicking</text>
<text text-anchor="start" x="1105.5" y="-619.3" font-family="monospace" font-size="14.00">  EX_IntConst 174</text>
</g>
<!-- OnStartEffect__0&#45;&gt;OnStartEffect__18 -->
<g id="edge13" class="edge">
<title>OnStartEffect__0&#45;&gt;OnStartEffect__18</title>
<path fill="none" stroke="black" d="M1483.47,-686.83C1487.4,-678.64 1492.16,-668.71 1496.56,-659.54"/>
<polygon fill="black" stroke="black" points="1499.66,-661.16 1500.83,-650.63 1493.35,-658.13 1499.66,-661.16"/>
</g>
<!-- OnStartEffect__18&#45;&gt;ExecuteUbergraph_DE_StrongerBarrelKicking__174 -->
<g id="edge14" class="edge">
<title>OnStartEffect__18:e&#45;&gt;ExecuteUbergraph_DE_StrongerBarrelKicking__174</title>
<path fill="none" stroke="red" d="M1924,-630.5C1960.65,-630.5 1957.04,-577.7 1949.89,-540.32"/>
<polygon fill="none" stroke="red" points="1953.37,-539.86 1947.91,-530.78 1946.52,-541.28 1953.37,-539.86"/>
</g>
<!-- OnStartEffect__33 -->
<g id="node20" class="node">
<title>OnStartEffect__33</title>
<polygon fill="#eeeeee" stroke="black" points="1452,-484 1452,-522 1568,-522 1568,-484 1452,-484"/>
<text text-anchor="start" x="1460" y="-506.8" font-family="monospace" font-size="14.00">EX_Return</text>
<text text-anchor="start" x="1460" y="-491.8" font-family="monospace" font-size="14.00">  EX_Nothing</text>
</g>
<!-- OnStartEffect__18&#45;&gt;OnStartEffect__33 -->
<g id="edge15" class="edge">
<title>OnStartEffect__18&#45;&gt;OnStartEffect__33</title>
<path fill="none" stroke="black" d="M1510,-611.52C1510,-591.11 1510,-557.52 1510,-533.31"/>
<polygon fill="black" stroke="black" points="1513.5,-533.46 1510,-523.46 1506.5,-533.46 1513.5,-533.46"/>
</g>
<!-- OnStartEffect__35 -->
<g id="node21" class="node">
<title>OnStartEffect__35</title>
<polygon fill="#eeeeee" stroke="black" points="2381,-1.5 2381,-37.5 2513,-37.5 2513,-1.5 2381,-1.5"/>
<text text-anchor="start" x="2389" y="-15.8" font-family="monospace" font-size="14.00">EX_EndOfScript</text>
</g>
</g>
</svg>
