<?xml version="1.0" encoding="UTF-8" standalone="no"?>
<!DOCTYPE svg PUBLIC "-//W3C//DTD SVG 1.1//EN"
 "http://www.w3.org/Graphics/SVG/1.1/DTD/svg11.dtd">
<!-- Generated by graphviz version 7.0.1 (0)
 -->
<!-- Pages: 1 -->
<svg width="4040pt" height="1502pt"
 viewBox="0.00 0.00 4039.50 1502.00" xmlns="http://www.w3.org/2000/svg" xmlns:xlink="http://www.w3.org/1999/xlink">
<g id="graph0" class="graph" transform="scale(1 1) rotate(0) translate(4 1498)">
<polygon fill="white" stroke="none" points="-4,4 -4,-1498 4035.5,-1498 4035.5,4 -4,4"/>
<!-- Options_UseStreamerProgram_C -->
<g id="node1" class="node">
<title>Options_UseStreamerProgram_C</title>
<polygon fill="#88ff88" stroke="black" points="0,-1350.5 0,-1463.5 850,-1463.5 850,-1350.5 0,-1350.5"/>
<text text-anchor="start" x="8" y="-1448.3" font-family="monospace" font-size="14.00">ClassExport: Options_UseStreamerProgram_C</text>
<text text-anchor="start" x="8" y="-1433.3" font-family="monospace" font-size="14.00">  SuperStruct: import /Script/UMG&#45;&gt;UserWidget</text>
<text text-anchor="start" x="8" y="-1418.3" font-family="monospace" font-size="14.00">  Properties:</text>
<text text-anchor="start" x="8" y="-1403.3" font-family="monospace" font-size="14.00">    StructProperty UberGraphFrame</text>
<text text-anchor="start" x="8" y="-1388.3" font-family="monospace" font-size="14.00">      CPF_Transient|CPF_DuplicateTransient</text>
<text text-anchor="start" x="8" y="-1373.3" font-family="monospace" font-size="14.00">    ObjectProperty Basic_CheckBox</text>
<text text-anchor="start" x="8" y="-1358.3" font-family="monospace" font-size="14.00">      CPF_BlueprintVisible|CPF_ExportObject|CPF_InstancedReference|CPF_RepSkip|CPF_PersistentInstance</text>
</g>
<!-- ExecuteUbergraph_Options_UseStreamerProgram -->
<g id="node2" class="node">
<title>ExecuteUbergraph_Options_UseStreamerProgram</title>
<polygon fill="#ff8888" stroke="black" points="868.5,-1320.5 868.5,-1493.5 1371.5,-1493.5 1371.5,-1320.5 868.5,-1320.5"/>
<text text-anchor="start" x="876.5" y="-1478.3" font-family="monospace" font-size="14.00">Function ExecuteUbergraph_Options_UseStreamerProgram</text>
<text text-anchor="start" x="876.5" y="-1463.3" font-family="monospace" font-size="14.00">  IntProperty EntryPoint</text>
<text text-anchor="start" x="876.5" y="-1448.3" font-family="monospace" font-size="14.00">    CPF_BlueprintVisible|CPF_BlueprintReadOnly|CPF_Parm</text>
<text text-anchor="start" x="876.5" y="-1433.3" font-family="monospace" font-size="14.00">  ObjectProperty CallFunc_FSDGameUserSettings_ReturnValue</text>
<text text-anchor="start" x="876.5" y="-1418.3" font-family="monospace" font-size="14.00">  BoolProperty CallFunc_GetUseStreamerProgram_ReturnValue</text>
<text text-anchor="start" x="876.5" y="-1403.3" font-family="monospace" font-size="14.00">  BoolProperty K2Node_ComponentBoundEvent_IsChecked</text>
<text text-anchor="start" x="876.5" y="-1388.3" font-family="monospace" font-size="14.00">  DelegateProperty K2Node_CreateDelegate_OutputDelegate</text>
<text text-anchor="start" x="876.5" y="-1373.3" font-family="monospace" font-size="14.00">  BoolProperty CallFunc_NotEqual_BoolBool_ReturnValue</text>
<text text-anchor="start" x="876.5" y="-1358.3" font-family="monospace" font-size="14.00">  ObjectProperty CallFunc_GetFSDGameInstance_ReturnValue</text>
<text text-anchor="start" x="876.5" y="-1343.3" font-family="monospace" font-size="14.00">  ObjectProperty CallFunc_FSDGameUserSettings_ReturnValue_1</text>
<text text-anchor="start" x="876.5" y="-1328.3" font-family="monospace" font-size="14.00">  BoolProperty CallFunc_GetUseStreamerProgram_ReturnValue_1</text>
</g>
<!-- ExecuteUbergraph_Options_UseStreamerProgram__0 -->
<g id="node3" class="node">
<title>ExecuteUbergraph_Options_UseStreamerProgram__0</title>
<polygon fill="#eeeeee" stroke="black" points="984,-1208.5 984,-1246.5 1256,-1246.5 1256,-1208.5 984,-1208.5"/>
<text text-anchor="start" x="992" y="-1231.3" font-family="monospace" font-size="14.00">EX_ComputedJump</text>
<text text-anchor="start" x="992" y="-1216.3" font-family="monospace" font-size="14.00">  EX_LocalVariable [EntryPoint]</text>
</g>
<!-- ExecuteUbergraph_Options_UseStreamerProgram&#45;&gt;ExecuteUbergraph_Options_UseStreamerProgram__0 -->
<g id="edge1" class="edge">
<title>ExecuteUbergraph_Options_UseStreamerProgram&#45;&gt;ExecuteUbergraph_Options_UseStreamerProgram__0</title>
<path fill="none" stroke="black" d="M1120,-1320.63C1120,-1297.94 1120,-1274.95 1120,-1257.61"/>
<polygon fill="black" stroke="black" points="1123.5,-1257.84 1120,-1247.84 1116.5,-1257.84 1123.5,-1257.84"/>
</g>
<!-- ExecuteUbergraph_Options_UseStreamerProgram__10 -->
<g id="node4" class="node">
<title>ExecuteUbergraph_Options_UseStreamerProgram__10</title>
<polygon fill="#eeeeee" stroke="black" points="3044,-421 3044,-457 3382,-457 3382,-421 3044,-421"/>
<text text-anchor="start" x="3052" y="-435.3" font-family="monospace" font-size="14.00">EX_LocalVirtualFunction SettingsChanged</text>
</g>
<!-- ExecuteUbergraph_Options_UseStreamerProgram__24 -->
<g id="node5" class="node">
<title>ExecuteUbergraph_Options_UseStreamerProgram__24</title>
<polygon fill="#eeeeee" stroke="black" points="3046.5,-266.5 3046.5,-302.5 3153.5,-302.5 3153.5,-266.5 3046.5,-266.5"/>
<text text-anchor="start" x="3054.5" y="-280.8" font-family="monospace" font-size="14.00">EX_Jump 391</text>
</g>
<!-- ExecuteUbergraph_Options_UseStreamerProgram__10&#45;&gt;ExecuteUbergraph_Options_UseStreamerProgram__24 -->
<g id="edge2" class="edge">
<title>ExecuteUbergraph_Options_UseStreamerProgram__10&#45;&gt;ExecuteUbergraph_Options_UseStreamerProgram__24</title>
<path fill="none" stroke="black" d="M3200.48,-421.1C3180.79,-394.53 3142.47,-342.81 3119.26,-311.49"/>
<polygon fill="black" stroke="black" points="3122.25,-309.65 3113.48,-303.69 3116.62,-313.81 3122.25,-309.65"/>
</g>
<!-- ExecuteUbergraph_Options_UseStreamerProgram__391 -->
<g id="node20" class="node">
<title>ExecuteUbergraph_Options_UseStreamerProgram__391</title>
<polygon fill="#eeeeee" stroke="black" points="2876,-0.5 2876,-38.5 2992,-38.5 2992,-0.5 2876,-0.5"/>
<text text-anchor="start" x="2884" y="-23.3" font-family="monospace" font-size="14.00">EX_Return</text>
<text text-anchor="start" x="2884" y="-8.3" font-family="monospace" font-size="14.00">  EX_Nothing</text>
</g>
<!-- ExecuteUbergraph_Options_UseStreamerProgram__24&#45;&gt;ExecuteUbergraph_Options_UseStreamerProgram__391 -->
<g id="edge3" class="edge">
<title>ExecuteUbergraph_Options_UseStreamerProgram__24&#45;&gt;ExecuteUbergraph_Options_UseStreamerProgram__391</title>
<path fill="none" stroke="black" d="M3094.04,-266.7C3079.39,-227.05 3038.61,-125.79 2981,-57 2977.7,-53.06 2973.91,-49.28 2969.95,-45.73"/>
<polygon fill="black" stroke="black" points="2972.2,-43.06 2962.27,-39.36 2967.73,-48.44 2972.2,-43.06"/>
</g>
<!-- ExecuteUbergraph_Options_UseStreamerProgram__29 -->
<g id="node6" class="node">
<title>ExecuteUbergraph_Options_UseStreamerProgram__29</title>
<polygon fill="#eeeeee" stroke="black" points="2122.5,-760 2122.5,-813 2749.5,-813 2749.5,-760 2122.5,-760"/>
<text text-anchor="start" x="2130.5" y="-797.8" font-family="monospace" font-size="14.00">EX_LetObj</text>
<text text-anchor="start" x="2130.5" y="-782.8" font-family="monospace" font-size="14.00">  EX_LocalVariable [CallFunc_FSDGameUserSettings_ReturnValue]</text>
<text text-anchor="start" x="2130.5" y="-767.8" font-family="monospace" font-size="14.00">  EX_CallMath import /Script/FSD&#45;&gt;FSDGameUserSettings&#45;&gt;FSDGameUserSettings</text>
</g>
<!-- ExecuteUbergraph_Options_UseStreamerProgram__49 -->
<g id="node7" class="node">
<title>ExecuteUbergraph_Options_UseStreamerProgram__49</title>
<polygon fill="#eeeeee" stroke="black" points="2091.5,-518.5 2091.5,-616.5 2792.5,-616.5 2792.5,-518.5 2091.5,-518.5"/>
<text text-anchor="start" x="2099.5" y="-601.3" font-family="monospace" font-size="14.00">EX_LetBool</text>
<text text-anchor="start" x="2099.5" y="-586.3" font-family="monospace" font-size="14.00">  EX_LocalVariable [CallFunc_GetUseStreamerProgram_ReturnValue]</text>
<text text-anchor="start" x="2099.5" y="-571.3" font-family="monospace" font-size="14.00">  EX_Context</text>
<text text-anchor="start" x="2099.5" y="-556.3" font-family="monospace" font-size="14.00">    EX_LocalVariable [CallFunc_FSDGameUserSettings_ReturnValue]</text>
<text text-anchor="start" x="2099.5" y="-541.3" font-family="monospace" font-size="14.00">    EX_FinalFunction import /Script/FSD&#45;&gt;FSDGameUserSettings&#45;&gt;GetUseStreamerProgram</text>
<text text-anchor="start" x="2099.5" y="-526.3" font-family="monospace" font-size="14.00">    RValue = [CallFunc_GetUseStreamerProgram_ReturnValue]</text>
</g>
<!-- ExecuteUbergraph_Options_UseStreamerProgram__29&#45;&gt;ExecuteUbergraph_Options_UseStreamerProgram__49 -->
<g id="edge4" class="edge">
<title>ExecuteUbergraph_Options_UseStreamerProgram__29&#45;&gt;ExecuteUbergraph_Options_UseStreamerProgram__49</title>
<path fill="none" stroke="black" d="M2436.7,-760.18C2437.59,-727.85 2439.17,-670.9 2440.37,-627.45"/>
<polygon fill="black" stroke="black" points="2443.86,-627.76 2440.64,-617.67 2436.87,-627.57 2443.86,-627.76"/>
</g>
<!-- ExecuteUbergraph_Options_UseStreamerProgram__91 -->
<g id="node8" class="node">
<title>ExecuteUbergraph_Options_UseStreamerProgram__91</title>
<polygon fill="#eeeeee" stroke="black" points="2158.5,-397.5 2158.5,-480.5 2777.5,-480.5 2777.5,-397.5 2158.5,-397.5"/>
<text text-anchor="start" x="2166.5" y="-465.3" font-family="monospace" font-size="14.00">EX_LetBool</text>
<text text-anchor="start" x="2166.5" y="-450.3" font-family="monospace" font-size="14.00">  EX_LocalVariable [CallFunc_NotEqual_BoolBool_ReturnValue]</text>
<text text-anchor="start" x="2166.5" y="-435.3" font-family="monospace" font-size="14.00">  EX_CallMath import /Script/Engine&#45;&gt;KismetMathLibrary&#45;&gt;NotEqual_BoolBool</text>
<text text-anchor="start" x="2166.5" y="-420.3" font-family="monospace" font-size="14.00">    EX_LocalVariable [CallFunc_GetUseStreamerProgram_ReturnValue]</text>
<text text-anchor="start" x="2166.5" y="-405.3" font-family="monospace" font-size="14.00">    EX_LocalVariable [K2Node_ComponentBoundEvent_IsChecked]</text>
</g>
<!-- ExecuteUbergraph_Options_UseStreamerProgram__49&#45;&gt;ExecuteUbergraph_Options_UseStreamerProgram__91 -->
<g id="edge5" class="edge">
<title>ExecuteUbergraph_Options_UseStreamerProgram__49&#45;&gt;ExecuteUbergraph_Options_UseStreamerProgram__91</title>
<path fill="none" stroke="black" d="M2451.83,-518.68C2453.65,-509.82 2455.56,-500.54 2457.4,-491.58"/>
<polygon fill="black" stroke="black" points="2460.8,-492.44 2459.38,-481.94 2453.94,-491.03 2460.8,-492.44"/>
</g>
<!-- ExecuteUbergraph_Options_UseStreamerProgram__129 -->
<g id="node9" class="node">
<title>ExecuteUbergraph_Options_UseStreamerProgram__129</title>
<polygon fill="#eeeeee" stroke="black" points="2279.5,-321.5 2279.5,-359.5 2782.5,-359.5 2782.5,-321.5 2279.5,-321.5"/>
<text text-anchor="start" x="2287.5" y="-344.3" font-family="monospace" font-size="14.00">EX_JumpIfNot 391</text>
<text text-anchor="start" x="2287.5" y="-329.3" font-family="monospace" font-size="14.00">  EX_LocalVariable [CallFunc_NotEqual_BoolBool_ReturnValue]</text>
</g>
<!-- ExecuteUbergraph_Options_UseStreamerProgram__91&#45;&gt;ExecuteUbergraph_Options_UseStreamerProgram__129 -->
<g id="edge6" class="edge">
<title>ExecuteUbergraph_Options_UseStreamerProgram__91&#45;&gt;ExecuteUbergraph_Options_UseStreamerProgram__129</title>
<path fill="none" stroke="black" d="M2494.35,-397.63C2500.72,-387.88 2507.38,-377.68 2513.25,-368.69"/>
<polygon fill="black" stroke="black" points="2516.11,-370.7 2518.65,-360.42 2510.25,-366.88 2516.11,-370.7"/>
</g>
<!-- ExecuteUbergraph_Options_UseStreamerProgram__143 -->
<g id="node10" class="node">
<title>ExecuteUbergraph_Options_UseStreamerProgram__143</title>
<polygon fill="#eeeeee" stroke="black" points="2188.5,-164.5 2188.5,-247.5 2873.5,-247.5 2873.5,-164.5 2188.5,-164.5"/>
<text text-anchor="start" x="2196.5" y="-232.3" font-family="monospace" font-size="14.00">EX_Context</text>
<text text-anchor="start" x="2196.5" y="-217.3" font-family="monospace" font-size="14.00">  EX_LocalVariable [CallFunc_FSDGameUserSettings_ReturnValue]</text>
<text text-anchor="start" x="2196.5" y="-202.3" font-family="monospace" font-size="14.00">  EX_FinalFunction import /Script/FSD&#45;&gt;FSDGameUserSettings&#45;&gt;SetUseStreamerProgram</text>
<text text-anchor="start" x="2196.5" y="-187.3" font-family="monospace" font-size="14.00">    EX_LocalVariable [K2Node_ComponentBoundEvent_IsChecked]</text>
<text text-anchor="start" x="2196.5" y="-172.3" font-family="monospace" font-size="14.00">  RValue = []</text>
</g>
<!-- ExecuteUbergraph_Options_UseStreamerProgram__129&#45;&gt;ExecuteUbergraph_Options_UseStreamerProgram__143 -->
<g id="edge8" class="edge">
<title>ExecuteUbergraph_Options_UseStreamerProgram__129&#45;&gt;ExecuteUbergraph_Options_UseStreamerProgram__143</title>
<path fill="none" stroke="black" d="M2531,-321.63C2531,-305.51 2531,-280.98 2531,-258.75"/>
<polygon fill="black" stroke="black" points="2534.5,-258.9 2531,-248.9 2527.5,-258.9 2534.5,-258.9"/>
<text text-anchor="middle" x="2539.5" y="-280.8" font-family="monospace" font-size="14.00">IF</text>
</g>
<!-- ExecuteUbergraph_Options_UseStreamerProgram__129&#45;&gt;ExecuteUbergraph_Options_UseStreamerProgram__391 -->
<g id="edge7" class="edge">
<title>ExecuteUbergraph_Options_UseStreamerProgram__129:e&#45;&gt;ExecuteUbergraph_Options_UseStreamerProgram__391</title>
<path fill="none" stroke="red" d="M2784,-340.5C2891.08,-340.5 2879.05,-235.37 2903,-131 2909.42,-103.02 2918.44,-71.52 2925.09,-49.34"/>
<polygon fill="none" stroke="red" points="2928.43,-50.39 2927.98,-39.8 2921.73,-48.36 2928.43,-50.39"/>
<text text-anchor="middle" x="2928" y="-134.8" font-family="monospace" font-size="14.00">IF NOT</text>
</g>
<!-- ExecuteUbergraph_Options_UseStreamerProgram__184 -->
<g id="node11" class="node">
<title>ExecuteUbergraph_Options_UseStreamerProgram__184</title>
<polygon fill="#eeeeee" stroke="black" points="2694.5,-76.5 2694.5,-112.5 2801.5,-112.5 2801.5,-76.5 2694.5,-76.5"/>
<text text-anchor="start" x="2702.5" y="-90.8" font-family="monospace" font-size="14.00">EX_Jump 391</text>
</g>
<!-- ExecuteUbergraph_Options_UseStreamerProgram__143&#45;&gt;ExecuteUbergraph_Options_UseStreamerProgram__184 -->
<g id="edge9" class="edge">
<title>ExecuteUbergraph_Options_UseStreamerProgram__143&#45;&gt;ExecuteUbergraph_Options_UseStreamerProgram__184</title>
<path fill="none" stroke="black" d="M2611.19,-164.54C2642.74,-148.62 2677.72,-130.96 2704.41,-117.49"/>
<polygon fill="black" stroke="black" points="2705.87,-120.68 2713.23,-113.05 2702.72,-114.43 2705.87,-120.68"/>
</g>
<!-- ExecuteUbergraph_Options_UseStreamerProgram__184&#45;&gt;ExecuteUbergraph_Options_UseStreamerProgram__391 -->
<g id="edge10" class="edge">
<title>ExecuteUbergraph_Options_UseStreamerProgram__184&#45;&gt;ExecuteUbergraph_Options_UseStreamerProgram__391</title>
<path fill="none" stroke="black" d="M2791.14,-76.57C2816.93,-66.45 2849.98,-53.48 2877.79,-42.56"/>
<polygon fill="black" stroke="black" points="2878.73,-45.95 2886.76,-39.04 2876.18,-39.43 2878.73,-45.95"/>
</g>
<!-- ExecuteUbergraph_Options_UseStreamerProgram__189 -->
<g id="node12" class="node">
<title>ExecuteUbergraph_Options_UseStreamerProgram__189</title>
<polygon fill="#eeeeee" stroke="black" points="3544.5,-1081.5 3544.5,-1134.5 4031.5,-1134.5 4031.5,-1081.5 3544.5,-1081.5"/>
<text text-anchor="start" x="3552.5" y="-1119.3" font-family="monospace" font-size="14.00">EX_BindDelegate SettingsChanged</text>
<text text-anchor="start" x="3552.5" y="-1104.3" font-family="monospace" font-size="14.00">  EX_LocalVariable [K2Node_CreateDelegate_OutputDelegate]</text>
<text text-anchor="start" x="3552.5" y="-1089.3" font-family="monospace" font-size="14.00">  EX_Self</text>
</g>
<!-- ExecuteUbergraph_Options_UseStreamerProgram__212 -->
<g id="node13" class="node">
<title>ExecuteUbergraph_Options_UseStreamerProgram__212</title>
<polygon fill="#eeeeee" stroke="black" points="3379.5,-924.5 3379.5,-992.5 3998.5,-992.5 3998.5,-924.5 3379.5,-924.5"/>
<text text-anchor="start" x="3387.5" y="-977.3" font-family="monospace" font-size="14.00">EX_LetObj</text>
<text text-anchor="start" x="3387.5" y="-962.3" font-family="monospace" font-size="14.00">  EX_LocalVariable [CallFunc_GetFSDGameInstance_ReturnValue]</text>
<text text-anchor="start" x="3387.5" y="-947.3" font-family="monospace" font-size="14.00">  EX_CallMath import /Script/FSD&#45;&gt;GameFunctionLibrary&#45;&gt;GetFSDGameInstance</text>
<text text-anchor="start" x="3387.5" y="-932.3" font-family="monospace" font-size="14.00">    EX_Self</text>
</g>
<!-- ExecuteUbergraph_Options_UseStreamerProgram__189&#45;&gt;ExecuteUbergraph_Options_UseStreamerProgram__212 -->
<g id="edge11" class="edge">
<title>ExecuteUbergraph_Options_UseStreamerProgram__189&#45;&gt;ExecuteUbergraph_Options_UseStreamerProgram__212</title>
<path fill="none" stroke="black" d="M3766.44,-1081.88C3761.53,-1075.82 3756.45,-1069.28 3752,-1063 3738.29,-1043.65 3724.44,-1021.27 3713.23,-1002.28"/>
<polygon fill="black" stroke="black" points="3716.29,-1000.58 3708.22,-993.71 3710.25,-1004.11 3716.29,-1000.58"/>
</g>
<!-- ExecuteUbergraph_Options_UseStreamerProgram__233 -->
<g id="node14" class="node">
<title>ExecuteUbergraph_Options_UseStreamerProgram__233</title>
<polygon fill="#eeeeee" stroke="black" points="3286,-737.5 3286,-835.5 3814,-835.5 3814,-737.5 3286,-737.5"/>
<text text-anchor="start" x="3294" y="-820.3" font-family="monospace" font-size="14.00">EX_AddMulticastDelegate</text>
<text text-anchor="start" x="3294" y="-805.3" font-family="monospace" font-size="14.00">  EX_Context</text>
<text text-anchor="start" x="3294" y="-790.3" font-family="monospace" font-size="14.00">    EX_LocalVariable [CallFunc_GetFSDGameInstance_ReturnValue]</text>
<text text-anchor="start" x="3294" y="-775.3" font-family="monospace" font-size="14.00">    EX_InstanceVariable [OnGameSettingsChanged]</text>
<text text-anchor="start" x="3294" y="-760.3" font-family="monospace" font-size="14.00">    RValue = [OnGameSettingsChanged]</text>
<text text-anchor="start" x="3294" y="-745.3" font-family="monospace" font-size="14.00">  EX_LocalVariable [K2Node_CreateDelegate_OutputDelegate]</text>
</g>
<!-- ExecuteUbergraph_Options_UseStreamerProgram__212&#45;&gt;ExecuteUbergraph_Options_UseStreamerProgram__233 -->
<g id="edge12" class="edge">
<title>ExecuteUbergraph_Options_UseStreamerProgram__212&#45;&gt;ExecuteUbergraph_Options_UseStreamerProgram__233</title>
<path fill="none" stroke="black" d="M3661.21,-924.82C3652.16,-914.09 3642.1,-902.08 3633,-891 3620.59,-875.9 3607.29,-859.44 3595.05,-844.18"/>
<polygon fill="black" stroke="black" points="3597.91,-842.15 3588.93,-836.54 3592.45,-846.53 3597.91,-842.15"/>
</g>
<!-- ExecuteUbergraph_Options_UseStreamerProgram__274 -->
<g id="node15" class="node">
<title>ExecuteUbergraph_Options_UseStreamerProgram__274</title>
<polygon fill="#eeeeee" stroke="black" points="3286.5,-549.5 3286.5,-585.5 3385.5,-585.5 3385.5,-549.5 3286.5,-549.5"/>
<text text-anchor="start" x="3294.5" y="-563.8" font-family="monospace" font-size="14.00">EX_Jump 10</text>
</g>
<!-- ExecuteUbergraph_Options_UseStreamerProgram__233&#45;&gt;ExecuteUbergraph_Options_UseStreamerProgram__274 -->
<g id="edge13" class="edge">
<title>ExecuteUbergraph_Options_UseStreamerProgram__233&#45;&gt;ExecuteUbergraph_Options_UseStreamerProgram__274</title>
<path fill="none" stroke="black" d="M3502.77,-737.61C3458.79,-693.01 3394.96,-628.29 3360.42,-593.26"/>
<polygon fill="black" stroke="black" points="3363.27,-591.17 3353.76,-586.51 3358.29,-596.09 3363.27,-591.17"/>
</g>
<!-- ExecuteUbergraph_Options_UseStreamerProgram__274&#45;&gt;ExecuteUbergraph_Options_UseStreamerProgram__10 -->
<g id="edge14" class="edge">
<title>ExecuteUbergraph_Options_UseStreamerProgram__274&#45;&gt;ExecuteUbergraph_Options_UseStreamerProgram__10</title>
<path fill="none" stroke="black" d="M3319.67,-549.7C3298.53,-527.96 3261.53,-489.91 3237.15,-464.83"/>
<polygon fill="black" stroke="black" points="3239.94,-462.68 3230.46,-457.95 3234.92,-467.56 3239.94,-462.68"/>
</g>
<!-- ExecuteUbergraph_Options_UseStreamerProgram__279 -->
<g id="node16" class="node">
<title>ExecuteUbergraph_Options_UseStreamerProgram__279</title>
<polygon fill="#eeeeee" stroke="black" points="2384.5,-940.5 2384.5,-976.5 2483.5,-976.5 2483.5,-940.5 2384.5,-940.5"/>
<text text-anchor="start" x="2392.5" y="-954.8" font-family="monospace" font-size="14.00">EX_Jump 29</text>
</g>
<!-- ExecuteUbergraph_Options_UseStreamerProgram__279&#45;&gt;ExecuteUbergraph_Options_UseStreamerProgram__29 -->
<g id="edge15" class="edge">
<title>ExecuteUbergraph_Options_UseStreamerProgram__279&#45;&gt;ExecuteUbergraph_Options_UseStreamerProgram__29</title>
<path fill="none" stroke="black" d="M2434.2,-940.58C2434.52,-913.64 2435.14,-860.38 2435.57,-824.35"/>
<polygon fill="black" stroke="black" points="2439.07,-824.4 2435.68,-814.36 2432.07,-824.32 2439.07,-824.4"/>
</g>
<!-- ExecuteUbergraph_Options_UseStreamerProgram__284 -->
<g id="node17" class="node">
<title>ExecuteUbergraph_Options_UseStreamerProgram__284</title>
<polygon fill="#eeeeee" stroke="black" points="2653.5,-1081.5 2653.5,-1134.5 3280.5,-1134.5 3280.5,-1081.5 2653.5,-1081.5"/>
<text text-anchor="start" x="2661.5" y="-1119.3" font-family="monospace" font-size="14.00">EX_LetObj</text>
<text text-anchor="start" x="2661.5" y="-1104.3" font-family="monospace" font-size="14.00">  EX_LocalVariable [CallFunc_FSDGameUserSettings_ReturnValue_1]</text>
<text text-anchor="start" x="2661.5" y="-1089.3" font-family="monospace" font-size="14.00">  EX_CallMath import /Script/FSD&#45;&gt;FSDGameUserSettings&#45;&gt;FSDGameUserSettings</text>
</g>
<!-- ExecuteUbergraph_Options_UseStreamerProgram__304 -->
<g id="node18" class="node">
<title>ExecuteUbergraph_Options_UseStreamerProgram__304</title>
<polygon fill="#eeeeee" stroke="black" points="2616.5,-909.5 2616.5,-1007.5 3317.5,-1007.5 3317.5,-909.5 2616.5,-909.5"/>
<text text-anchor="start" x="2624.5" y="-992.3" font-family="monospace" font-size="14.00">EX_LetBool</text>
<text text-anchor="start" x="2624.5" y="-977.3" font-family="monospace" font-size="14.00">  EX_LocalVariable [CallFunc_GetUseStreamerProgram_ReturnValue_1]</text>
<text text-anchor="start" x="2624.5" y="-962.3" font-family="monospace" font-size="14.00">  EX_Context</text>
<text text-anchor="start" x="2624.5" y="-947.3" font-family="monospace" font-size="14.00">    EX_LocalVariable [CallFunc_FSDGameUserSettings_ReturnValue_1]</text>
<text text-anchor="start" x="2624.5" y="-932.3" font-family="monospace" font-size="14.00">    EX_FinalFunction import /Script/FSD&#45;&gt;FSDGameUserSettings&#45;&gt;GetUseStreamerProgram</text>
<text text-anchor="start" x="2624.5" y="-917.3" font-family="monospace" font-size="14.00">    RValue = [CallFunc_GetUseStreamerProgram_ReturnValue_1]</text>
</g>
<!-- ExecuteUbergraph_Options_UseStreamerProgram__284&#45;&gt;ExecuteUbergraph_Options_UseStreamerProgram__304 -->
<g id="edge16" class="edge">
<title>ExecuteUbergraph_Options_UseStreamerProgram__284&#45;&gt;ExecuteUbergraph_Options_UseStreamerProgram__304</title>
<path fill="none" stroke="black" d="M2967,-1081.64C2967,-1064.32 2967,-1040.61 2967,-1018.7"/>
<polygon fill="black" stroke="black" points="2970.5,-1018.95 2967,-1008.95 2963.5,-1018.95 2970.5,-1018.95"/>
</g>
<!-- ExecuteUbergraph_Options_UseStreamerProgram__346 -->
<g id="node19" class="node">
<title>ExecuteUbergraph_Options_UseStreamerProgram__346</title>
<polygon fill="#eeeeee" stroke="black" points="2682.5,-635.5 2682.5,-718.5 3251.5,-718.5 3251.5,-635.5 2682.5,-635.5"/>
<text text-anchor="start" x="2690.5" y="-703.3" font-family="monospace" font-size="14.00">EX_Context</text>
<text text-anchor="start" x="2690.5" y="-688.3" font-family="monospace" font-size="14.00">  EX_InstanceVariable [Basic_CheckBox]</text>
<text text-anchor="start" x="2690.5" y="-673.3" font-family="monospace" font-size="14.00">  EX_LocalVirtualFunction SetIsChecked</text>
<text text-anchor="start" x="2690.5" y="-658.3" font-family="monospace" font-size="14.00">    EX_LocalVariable [CallFunc_GetUseStreamerProgram_ReturnValue_1]</text>
<text text-anchor="start" x="2690.5" y="-643.3" font-family="monospace" font-size="14.00">  RValue = []</text>
</g>
<!-- ExecuteUbergraph_Options_UseStreamerProgram__304&#45;&gt;ExecuteUbergraph_Options_UseStreamerProgram__346 -->
<g id="edge17" class="edge">
<title>ExecuteUbergraph_Options_UseStreamerProgram__304&#45;&gt;ExecuteUbergraph_Options_UseStreamerProgram__346</title>
<path fill="none" stroke="black" d="M2967,-909.77C2967,-859.62 2967,-781 2967,-729.48"/>
<polygon fill="black" stroke="black" points="2970.5,-729.79 2967,-719.79 2963.5,-729.79 2970.5,-729.79"/>
</g>
<!-- ExecuteUbergraph_Options_UseStreamerProgram__346&#45;&gt;ExecuteUbergraph_Options_UseStreamerProgram__391 -->
<g id="edge18" class="edge">
<title>ExecuteUbergraph_Options_UseStreamerProgram__346&#45;&gt;ExecuteUbergraph_Options_UseStreamerProgram__391</title>
<path fill="none" stroke="black" d="M2967,-635.81C2967,-600.13 2967,-546.6 2967,-500 2967,-500 2967,-500 2967,-93.5 2967,-77.59 2960.41,-61.32 2953.12,-48.19"/>
<polygon fill="black" stroke="black" points="2956.16,-46.46 2948.01,-39.69 2950.16,-50.07 2956.16,-46.46"/>
</g>
<!-- ExecuteUbergraph_Options_UseStreamerProgram__393 -->
<g id="node21" class="node">
<title>ExecuteUbergraph_Options_UseStreamerProgram__393</title>
<polygon fill="#eeeeee" stroke="black" points="3429,-1265.5 3429,-1301.5 3561,-1301.5 3561,-1265.5 3429,-1265.5"/>
<text text-anchor="start" x="3437" y="-1279.8" font-family="monospace" font-size="14.00">EX_EndOfScript</text>
</g>
<!-- SettingsChanged -->
<g id="node22" class="node">
<title>SettingsChanged</title>
<polygon fill="#ff8888" stroke="black" points="2430.5,-1389 2430.5,-1425 2645.5,-1425 2645.5,-1389 2430.5,-1389"/>
<text text-anchor="start" x="2438.5" y="-1403.3" font-family="monospace" font-size="14.00">Function SettingsChanged</text>
</g>
<!-- SettingsChanged__0 -->
<g id="node23" class="node">
<title>SettingsChanged__0</title>
<polygon fill="#eeeeee" stroke="black" points="2109,-1208.5 2109,-1246.5 2967,-1246.5 2967,-1208.5 2109,-1208.5"/>
<text text-anchor="start" x="2117" y="-1231.3" font-family="monospace" font-size="14.00">EX_LocalFinalFunction export Options_UseStreamerProgram_C&#45;&gt;ExecuteUbergraph_Options_UseStreamerProgram</text>
<text text-anchor="start" x="2117" y="-1216.3" font-family="monospace" font-size="14.00">  EX_IntConst 284</text>
</g>
<!-- SettingsChanged&#45;&gt;SettingsChanged__0 -->
<g id="edge19" class="edge">
<title>SettingsChanged&#45;&gt;SettingsChanged__0</title>
<path fill="none" stroke="black" d="M2538,-1389.3C2538,-1359.09 2538,-1295 2538,-1257.5"/>
<polygon fill="black" stroke="black" points="2541.5,-1257.85 2538,-1247.85 2534.5,-1257.85 2541.5,-1257.85"/>
</g>
<!-- SettingsChanged__0&#45;&gt;ExecuteUbergraph_Options_UseStreamerProgram__284 -->
<g id="edge20" class="edge">
<title>SettingsChanged__0:e&#45;&gt;ExecuteUbergraph_Options_UseStreamerProgram__284</title>
<path fill="none" stroke="red" d="M2968,-1227.5C2976.29,-1227.5 2973.74,-1180.47 2970.72,-1145.67"/>
<polygon fill="none" stroke="red" points="2974.22,-1145.57 2969.83,-1135.93 2967.25,-1146.21 2974.22,-1145.57"/>
</g>
<!-- SettingsChanged__15 -->
<g id="node24" class="node">
<title>SettingsChanged__15</title>
<polygon fill="#eeeeee" stroke="black" points="2480,-1089 2480,-1127 2596,-1127 2596,-1089 2480,-1089"/>
<text text-anchor="start" x="2488" y="-1111.8" font-family="monospace" font-size="14.00">EX_Return</text>
<text text-anchor="start" x="2488" y="-1096.8" font-family="monospace" font-size="14.00">  EX_Nothing</text>
</g>
<!-- SettingsChanged__0&#45;&gt;SettingsChanged__15 -->
<g id="edge21" class="edge">
<title>SettingsChanged__0&#45;&gt;SettingsChanged__15</title>
<path fill="none" stroke="black" d="M2538,-1208.65C2538,-1189.91 2538,-1160.14 2538,-1138.02"/>
<polygon fill="black" stroke="black" points="2541.5,-1138.14 2538,-1128.14 2534.5,-1138.14 2541.5,-1138.14"/>
</g>
<!-- SettingsChanged__17 -->
<g id="node25" class="node">
<title>SettingsChanged__17</title>
<polygon fill="#eeeeee" stroke="black" points="3830,-1153.5 3830,-1189.5 3962,-1189.5 3962,-1153.5 3830,-1153.5"/>
<text text-anchor="start" x="3838" y="-1167.8" font-family="monospace" font-size="14.00">EX_EndOfScript</text>
</g>
<!-- BndEvt__Basic_CheckBox_K2Node_ComponentBoundEvent_8_OnCheckStateChanged__DelegateSignature -->
<g id="node26" class="node">
<title>BndEvt__Basic_CheckBox_K2Node_ComponentBoundEvent_8_OnCheckStateChanged__DelegateSignature</title>
<polygon fill="#ff8888" stroke="black" points="1389.5,-1380.5 1389.5,-1433.5 2222.5,-1433.5 2222.5,-1380.5 1389.5,-1380.5"/>
<text text-anchor="start" x="1397.5" y="-1418.3" font-family="monospace" font-size="14.00">Function BndEvt__Basic_CheckBox_K2Node_ComponentBoundEvent_8_OnCheckStateChanged__DelegateSignature</text>
<text text-anchor="start" x="1397.5" y="-1403.3" font-family="monospace" font-size="14.00">  BoolProperty IsChecked</text>
<text text-anchor="start" x="1397.5" y="-1388.3" font-family="monospace" font-size="14.00">    CPF_BlueprintVisible|CPF_BlueprintReadOnly|CPF_Parm</text>
</g>
<!-- BndEvt__Basic_CheckBox_K2Node_ComponentBoundEvent_8_OnCheckStateChanged__DelegateSignature__0 -->
<g id="node27" class="node">
<title>BndEvt__Basic_CheckBox_K2Node_ComponentBoundEvent_8_OnCheckStateChanged__DelegateSignature__0</title>
<polygon fill="#eeeeee" stroke="black" points="1521.5,-1208.5 1521.5,-1246.5 2090.5,-1246.5 2090.5,-1208.5 1521.5,-1208.5"/>
<text text-anchor="start" x="1529.5" y="-1231.3" font-family="monospace" font-size="14.00">EX_LetValueOnPersistentFrame [K2Node_ComponentBoundEvent_IsChecked]</text>
<text text-anchor="start" x="1529.5" y="-1216.3" font-family="monospace" font-size="14.00">  EX_LocalVariable [IsChecked]</text>
</g>
<!-- BndEvt__Basic_CheckBox_K2Node_ComponentBoundEvent_8_OnCheckStateChanged__DelegateSignature&#45;&gt;BndEvt__Basic_CheckBox_K2Node_ComponentBoundEvent_8_OnCheckStateChanged__DelegateSignature__0 -->
<g id="edge22" class="edge">
<title>BndEvt__Basic_CheckBox_K2Node_ComponentBoundEvent_8_OnCheckStateChanged__DelegateSignature&#45;&gt;BndEvt__Basic_CheckBox_K2Node_ComponentBoundEvent_8_OnCheckStateChanged__DelegateSignature__0</title>
<path fill="none" stroke="black" d="M1806,-1380.57C1806,-1347.98 1806,-1291.64 1806,-1257.44"/>
<polygon fill="black" stroke="black" points="1809.5,-1257.86 1806,-1247.86 1802.5,-1257.86 1809.5,-1257.86"/>
</g>
<!-- BndEvt__Basic_CheckBox_K2Node_ComponentBoundEvent_8_OnCheckStateChanged__DelegateSignature__18 -->
<g id="node28" class="node">
<title>BndEvt__Basic_CheckBox_K2Node_ComponentBoundEvent_8_OnCheckStateChanged__DelegateSignature__18</title>
<polygon fill="#eeeeee" stroke="black" points="1547,-1089 1547,-1127 2405,-1127 2405,-1089 1547,-1089"/>
<text text-anchor="start" x="1555" y="-1111.8" font-family="monospace" font-size="14.00">EX_LocalFinalFunction export Options_UseStreamerProgram_C&#45;&gt;ExecuteUbergraph_Options_UseStreamerProgram</text>
<text text-anchor="start" x="1555" y="-1096.8" font-family="monospace" font-size="14.00">  EX_IntConst 279</text>
</g>
<!-- BndEvt__Basic_CheckBox_K2Node_ComponentBoundEvent_8_OnCheckStateChanged__DelegateSignature__0&#45;&gt;BndEvt__Basic_CheckBox_K2Node_ComponentBoundEvent_8_OnCheckStateChanged__DelegateSignature__18 -->
<g id="edge23" class="edge">
<title>BndEvt__Basic_CheckBox_K2Node_ComponentBoundEvent_8_OnCheckStateChanged__DelegateSignature__0&#45;&gt;BndEvt__Basic_CheckBox_K2Node_ComponentBoundEvent_8_OnCheckStateChanged__DelegateSignature__18</title>
<path fill="none" stroke="black" d="M1831.82,-1208.65C1860.99,-1188.5 1908.61,-1155.58 1941.08,-1133.14"/>
<polygon fill="black" stroke="black" points="1942.74,-1136.25 1948.97,-1127.68 1938.76,-1130.49 1942.74,-1136.25"/>
</g>
<!-- BndEvt__Basic_CheckBox_K2Node_ComponentBoundEvent_8_OnCheckStateChanged__DelegateSignature__18&#45;&gt;ExecuteUbergraph_Options_UseStreamerProgram__279 -->
<g id="edge24" class="edge">
<title>BndEvt__Basic_CheckBox_K2Node_ComponentBoundEvent_8_OnCheckStateChanged__DelegateSignature__18:e&#45;&gt;ExecuteUbergraph_Options_UseStreamerProgram__279</title>
<path fill="none" stroke="red" d="M2406,-1108C2454.56,-1108 2447.54,-1030.37 2439.92,-987.36"/>
<polygon fill="none" stroke="red" points="2443.4,-986.9 2438.09,-977.73 2436.52,-988.21 2443.4,-986.9"/>
</g>
<!-- BndEvt__Basic_CheckBox_K2Node_ComponentBoundEvent_8_OnCheckStateChanged__DelegateSignature__33 -->
<g id="node29" class="node">
<title>BndEvt__Basic_CheckBox_K2Node_ComponentBoundEvent_8_OnCheckStateChanged__DelegateSignature__33</title>
<polygon fill="#eeeeee" stroke="black" points="1918,-939.5 1918,-977.5 2034,-977.5 2034,-939.5 1918,-939.5"/>
<text text-anchor="start" x="1926" y="-962.3" font-family="monospace" font-size="14.00">EX_Return</text>
<text text-anchor="start" x="1926" y="-947.3" font-family="monospace" font-size="14.00">  EX_Nothing</text>
</g>
<!-- BndEvt__Basic_CheckBox_K2Node_ComponentBoundEvent_8_OnCheckStateChanged__DelegateSignature__18&#45;&gt;BndEvt__Basic_CheckBox_K2Node_ComponentBoundEvent_8_OnCheckStateChanged__DelegateSignature__33 -->
<g id="edge25" class="edge">
<title>BndEvt__Basic_CheckBox_K2Node_ComponentBoundEvent_8_OnCheckStateChanged__DelegateSignature__18&#45;&gt;BndEvt__Basic_CheckBox_K2Node_ComponentBoundEvent_8_OnCheckStateChanged__DelegateSignature__33</title>
<path fill="none" stroke="black" d="M1976,-1089.21C1976,-1064.29 1976,-1018.7 1976,-988.75"/>
<polygon fill="black" stroke="black" points="1979.5,-988.87 1976,-978.87 1972.5,-988.87 1979.5,-988.87"/>
</g>
<!-- BndEvt__Basic_CheckBox_K2Node_ComponentBoundEvent_8_OnCheckStateChanged__DelegateSignature__35 -->
<g id="node30" class="node">
<title>BndEvt__Basic_CheckBox_K2Node_ComponentBoundEvent_8_OnCheckStateChanged__DelegateSignature__35</title>
<polygon fill="#eeeeee" stroke="black" points="3753,-1026.5 3753,-1062.5 3885,-1062.5 3885,-1026.5 3753,-1026.5"/>
<text text-anchor="start" x="3761" y="-1040.8" font-family="monospace" font-size="14.00">EX_EndOfScript</text>
</g>
<!-- Construct -->
<g id="node31" class="node">
<title>Construct</title>
<polygon fill="#ff8888" stroke="black" points="3331.5,-1389 3331.5,-1425 3496.5,-1425 3496.5,-1389 3331.5,-1389"/>
<text text-anchor="start" x="3339.5" y="-1403.3" font-family="monospace" font-size="14.00">Function Construct</text>
</g>
<!-- Construct__0 -->
<g id="node32" class="node">
<title>Construct__0</title>
<polygon fill="#eeeeee" stroke="black" points="2985,-1208.5 2985,-1246.5 3843,-1246.5 3843,-1208.5 2985,-1208.5"/>
<text text-anchor="start" x="2993" y="-1231.3" font-family="monospace" font-size="14.00">EX_LocalFinalFunction export Options_UseStreamerProgram_C&#45;&gt;ExecuteUbergraph_Options_UseStreamerProgram</text>
<text text-anchor="start" x="2993" y="-1216.3" font-family="monospace" font-size="14.00">  EX_IntConst 189</text>
</g>
<!-- Construct&#45;&gt;Construct__0 -->
<g id="edge26" class="edge">
<title>Construct&#45;&gt;Construct__0</title>
<path fill="none" stroke="black" d="M3414,-1389.3C3414,-1359.09 3414,-1295 3414,-1257.5"/>
<polygon fill="black" stroke="black" points="3417.5,-1257.85 3414,-1247.85 3410.5,-1257.85 3417.5,-1257.85"/>
</g>
<!-- Construct__0&#45;&gt;ExecuteUbergraph_Options_UseStreamerProgram__189 -->
<g id="edge27" class="edge">
<title>Construct__0:e&#45;&gt;ExecuteUbergraph_Options_UseStreamerProgram__189</title>
<path fill="none" stroke="red" d="M3844,-1227.5C3852.68,-1227.5 3846.03,-1216.13 3843,-1208 3839.47,-1198.5 3834.42,-1198.56 3829,-1190 3819.9,-1175.64 3811.2,-1159.01 3804.16,-1144.57"/>
<polygon fill="none" stroke="red" points="3807.48,-1143.38 3800.01,-1135.87 3801.16,-1146.4 3807.48,-1143.38"/>
</g>
<!-- Construct__15 -->
<g id="node33" class="node">
<title>Construct__15</title>
<polygon fill="#eeeeee" stroke="black" points="3356,-1089 3356,-1127 3472,-1127 3472,-1089 3356,-1089"/>
<text text-anchor="start" x="3364" y="-1111.8" font-family="monospace" font-size="14.00">EX_Return</text>
<text text-anchor="start" x="3364" y="-1096.8" font-family="monospace" font-size="14.00">  EX_Nothing</text>
</g>
<!-- Construct__0&#45;&gt;Construct__15 -->
<g id="edge28" class="edge">
<title>Construct__0&#45;&gt;Construct__15</title>
<path fill="none" stroke="black" d="M3414,-1208.65C3414,-1189.91 3414,-1160.14 3414,-1138.02"/>
<polygon fill="black" stroke="black" points="3417.5,-1138.14 3414,-1128.14 3410.5,-1138.14 3417.5,-1138.14"/>
</g>
<!-- Construct__17 -->
<g id="node34" class="node">
<title>Construct__17</title>
<polygon fill="#eeeeee" stroke="black" points="3634,-854.5 3634,-890.5 3766,-890.5 3766,-854.5 3634,-854.5"/>
<text text-anchor="start" x="3642" y="-868.8" font-family="monospace" font-size="14.00">EX_EndOfScript</text>
</g>
</g>
</svg>
