<?xml version="1.0" encoding="UTF-8" standalone="no"?>
<!DOCTYPE svg PUBLIC "-//W3C//DTD SVG 1.1//EN"
 "http://www.w3.org/Graphics/SVG/1.1/DTD/svg11.dtd">
<!-- Generated by graphviz version 7.0.1 (0)
 -->
<!-- Pages: 1 -->
<svg width="4358pt" height="1080pt"
 viewBox="0.00 0.00 4357.50 1080.00" xmlns="http://www.w3.org/2000/svg" xmlns:xlink="http://www.w3.org/1999/xlink">
<g id="graph0" class="graph" transform="scale(1 1) rotate(0) translate(4 1076)">
<polygon fill="white" stroke="none" points="-4,4 -4,-1076 4353.5,-1076 4353.5,4 -4,4"/>
<!-- Options_ProfanityFilter_C -->
<g id="node1" class="node">
<title>Options_ProfanityFilter_C</title>
<polygon fill="#88ff88" stroke="black" points="0,-936 0,-1049 850,-1049 850,-936 0,-936"/>
<text text-anchor="start" x="8" y="-1033.8" font-family="monospace" font-size="14.00">ClassExport: Options_ProfanityFilter_C</text>
<text text-anchor="start" x="8" y="-1018.8" font-family="monospace" font-size="14.00">  SuperStruct: import /Script/UMG&#45;&gt;UserWidget</text>
<text text-anchor="start" x="8" y="-1003.8" font-family="monospace" font-size="14.00">  Properties:</text>
<text text-anchor="start" x="8" y="-988.8" font-family="monospace" font-size="14.00">    StructProperty UberGraphFrame</text>
<text text-anchor="start" x="8" y="-973.8" font-family="monospace" font-size="14.00">      CPF_Transient|CPF_DuplicateTransient</text>
<text text-anchor="start" x="8" y="-958.8" font-family="monospace" font-size="14.00">    ObjectProperty Basic_CheckBox</text>
<text text-anchor="start" x="8" y="-943.8" font-family="monospace" font-size="14.00">      CPF_BlueprintVisible|CPF_ExportObject|CPF_InstancedReference|CPF_RepSkip|CPF_PersistentInstance</text>
</g>
<!-- ExecuteUbergraph_Options_ProfanityFilter -->
<g id="node2" class="node">
<title>ExecuteUbergraph_Options_ProfanityFilter</title>
<polygon fill="#ff8888" stroke="black" points="868.5,-913.5 868.5,-1071.5 1371.5,-1071.5 1371.5,-913.5 868.5,-913.5"/>
<text text-anchor="start" x="876.5" y="-1056.3" font-family="monospace" font-size="14.00">Function ExecuteUbergraph_Options_ProfanityFilter</text>
<text text-anchor="start" x="876.5" y="-1041.3" font-family="monospace" font-size="14.00">  IntProperty EntryPoint</text>
<text text-anchor="start" x="876.5" y="-1026.3" font-family="monospace" font-size="14.00">    CPF_BlueprintVisible|CPF_BlueprintReadOnly|CPF_Parm</text>
<text text-anchor="start" x="876.5" y="-1011.3" font-family="monospace" font-size="14.00">  ObjectProperty CallFunc_FSDGameUserSettings_ReturnValue</text>
<text text-anchor="start" x="876.5" y="-996.3" font-family="monospace" font-size="14.00">  DelegateProperty K2Node_CreateDelegate_OutputDelegate</text>
<text text-anchor="start" x="876.5" y="-981.3" font-family="monospace" font-size="14.00">  BoolProperty K2Node_ComponentBoundEvent_IsChecked</text>
<text text-anchor="start" x="876.5" y="-966.3" font-family="monospace" font-size="14.00">  ObjectProperty CallFunc_FSDGameUserSettings_ReturnValue_1</text>
<text text-anchor="start" x="876.5" y="-951.3" font-family="monospace" font-size="14.00">  ObjectProperty CallFunc_FSDGameUserSettings_ReturnValue_2</text>
<text text-anchor="start" x="876.5" y="-936.3" font-family="monospace" font-size="14.00">  ObjectProperty CallFunc_FSDGameUserSettings_ReturnValue_3</text>
<text text-anchor="start" x="876.5" y="-921.3" font-family="monospace" font-size="14.00">  BoolProperty CallFunc_GetUseProfanityFilter_ReturnValue</text>
</g>
<!-- ExecuteUbergraph_Options_ProfanityFilter__0 -->
<g id="node3" class="node">
<title>ExecuteUbergraph_Options_ProfanityFilter__0</title>
<polygon fill="#eeeeee" stroke="black" points="984,-838.5 984,-876.5 1256,-876.5 1256,-838.5 984,-838.5"/>
<text text-anchor="start" x="992" y="-861.3" font-family="monospace" font-size="14.00">EX_ComputedJump</text>
<text text-anchor="start" x="992" y="-846.3" font-family="monospace" font-size="14.00">  EX_LocalVariable [EntryPoint]</text>
</g>
<!-- ExecuteUbergraph_Options_ProfanityFilter&#45;&gt;ExecuteUbergraph_Options_ProfanityFilter__0 -->
<g id="edge1" class="edge">
<title>ExecuteUbergraph_Options_ProfanityFilter&#45;&gt;ExecuteUbergraph_Options_ProfanityFilter__0</title>
<path fill="none" stroke="black" d="M1120,-913.75C1120,-904.5 1120,-895.54 1120,-887.64"/>
<polygon fill="black" stroke="black" points="1123.5,-887.69 1120,-877.69 1116.5,-887.69 1123.5,-887.69"/>
</g>
<!-- ExecuteUbergraph_Options_ProfanityFilter__10 -->
<g id="node4" class="node">
<title>ExecuteUbergraph_Options_ProfanityFilter__10</title>
<polygon fill="#eeeeee" stroke="black" points="3136.5,-268.5 3136.5,-321.5 3763.5,-321.5 3763.5,-268.5 3136.5,-268.5"/>
<text text-anchor="start" x="3144.5" y="-306.3" font-family="monospace" font-size="14.00">EX_LetObj</text>
<text text-anchor="start" x="3144.5" y="-291.3" font-family="monospace" font-size="14.00">  EX_LocalVariable [CallFunc_FSDGameUserSettings_ReturnValue]</text>
<text text-anchor="start" x="3144.5" y="-276.3" font-family="monospace" font-size="14.00">  EX_CallMath import /Script/FSD&#45;&gt;FSDGameUserSettings&#45;&gt;FSDGameUserSettings</text>
</g>
<!-- ExecuteUbergraph_Options_ProfanityFilter__30 -->
<g id="node5" class="node">
<title>ExecuteUbergraph_Options_ProfanityFilter__30</title>
<polygon fill="#eeeeee" stroke="black" points="3060,-148.5 3060,-231.5 3580,-231.5 3580,-148.5 3060,-148.5"/>
<text text-anchor="start" x="3068" y="-216.3" font-family="monospace" font-size="14.00">EX_Context</text>
<text text-anchor="start" x="3068" y="-201.3" font-family="monospace" font-size="14.00">  EX_LocalVariable [CallFunc_FSDGameUserSettings_ReturnValue]</text>
<text text-anchor="start" x="3068" y="-186.3" font-family="monospace" font-size="14.00">  EX_VirtualFunction ApplySettings</text>
<text text-anchor="start" x="3068" y="-171.3" font-family="monospace" font-size="14.00">    EX_False</text>
<text text-anchor="start" x="3068" y="-156.3" font-family="monospace" font-size="14.00">  RValue = []</text>
</g>
<!-- ExecuteUbergraph_Options_ProfanityFilter__10&#45;&gt;ExecuteUbergraph_Options_ProfanityFilter__30 -->
<g id="edge2" class="edge">
<title>ExecuteUbergraph_Options_ProfanityFilter__10&#45;&gt;ExecuteUbergraph_Options_ProfanityFilter__30</title>
<path fill="none" stroke="black" d="M3417.87,-268.54C3406.38,-259.44 3393.04,-248.87 3379.97,-238.51"/>
<polygon fill="black" stroke="black" points="3382.19,-235.81 3372.18,-232.34 3377.84,-241.29 3382.19,-235.81"/>
</g>
<!-- ExecuteUbergraph_Options_ProfanityFilter__67 -->
<g id="node6" class="node">
<title>ExecuteUbergraph_Options_ProfanityFilter__67</title>
<polygon fill="#eeeeee" stroke="black" points="3098.5,-75.5 3098.5,-111.5 3205.5,-111.5 3205.5,-75.5 3098.5,-75.5"/>
<text text-anchor="start" x="3106.5" y="-89.8" font-family="monospace" font-size="14.00">EX_Jump 348</text>
</g>
<!-- ExecuteUbergraph_Options_ProfanityFilter__30&#45;&gt;ExecuteUbergraph_Options_ProfanityFilter__67 -->
<g id="edge3" class="edge">
<title>ExecuteUbergraph_Options_ProfanityFilter__30&#45;&gt;ExecuteUbergraph_Options_ProfanityFilter__67</title>
<path fill="none" stroke="black" d="M3248.27,-148.65C3229.06,-137.85 3208.99,-126.56 3192.17,-117.09"/>
<polygon fill="black" stroke="black" points="3193.9,-114.06 3183.47,-112.2 3190.47,-120.16 3193.9,-114.06"/>
</g>
<!-- ExecuteUbergraph_Options_ProfanityFilter__348 -->
<g id="node18" class="node">
<title>ExecuteUbergraph_Options_ProfanityFilter__348</title>
<polygon fill="#eeeeee" stroke="black" points="2845,-0.5 2845,-38.5 2961,-38.5 2961,-0.5 2845,-0.5"/>
<text text-anchor="start" x="2853" y="-23.3" font-family="monospace" font-size="14.00">EX_Return</text>
<text text-anchor="start" x="2853" y="-8.3" font-family="monospace" font-size="14.00">  EX_Nothing</text>
</g>
<!-- ExecuteUbergraph_Options_ProfanityFilter__67&#45;&gt;ExecuteUbergraph_Options_ProfanityFilter__348 -->
<g id="edge4" class="edge">
<title>ExecuteUbergraph_Options_ProfanityFilter__67&#45;&gt;ExecuteUbergraph_Options_ProfanityFilter__348</title>
<path fill="none" stroke="black" d="M3098.58,-77.05C3061.49,-66.33 3011.73,-51.94 2971.69,-40.36"/>
<polygon fill="black" stroke="black" points="2972.7,-37.01 2962.12,-37.6 2970.76,-43.74 2972.7,-37.01"/>
</g>
<!-- ExecuteUbergraph_Options_ProfanityFilter__72 -->
<g id="node7" class="node">
<title>ExecuteUbergraph_Options_ProfanityFilter__72</title>
<polygon fill="#eeeeee" stroke="black" points="1786.5,-748.5 1786.5,-801.5 2413.5,-801.5 2413.5,-748.5 1786.5,-748.5"/>
<text text-anchor="start" x="1794.5" y="-786.3" font-family="monospace" font-size="14.00">EX_LetObj</text>
<text text-anchor="start" x="1794.5" y="-771.3" font-family="monospace" font-size="14.00">  EX_LocalVariable [CallFunc_FSDGameUserSettings_ReturnValue_1]</text>
<text text-anchor="start" x="1794.5" y="-756.3" font-family="monospace" font-size="14.00">  EX_CallMath import /Script/FSD&#45;&gt;FSDGameUserSettings&#45;&gt;FSDGameUserSettings</text>
</g>
<!-- ExecuteUbergraph_Options_ProfanityFilter__92 -->
<g id="node8" class="node">
<title>ExecuteUbergraph_Options_ProfanityFilter__92</title>
<polygon fill="#eeeeee" stroke="black" points="1963.5,-636 1963.5,-689 2450.5,-689 2450.5,-636 1963.5,-636"/>
<text text-anchor="start" x="1971.5" y="-673.8" font-family="monospace" font-size="14.00">EX_BindDelegate OnGameUserSettingsChanged</text>
<text text-anchor="start" x="1971.5" y="-658.8" font-family="monospace" font-size="14.00">  EX_LocalVariable [K2Node_CreateDelegate_OutputDelegate]</text>
<text text-anchor="start" x="1971.5" y="-643.8" font-family="monospace" font-size="14.00">  EX_Self</text>
</g>
<!-- ExecuteUbergraph_Options_ProfanityFilter__72&#45;&gt;ExecuteUbergraph_Options_ProfanityFilter__92 -->
<g id="edge5" class="edge">
<title>ExecuteUbergraph_Options_ProfanityFilter__72&#45;&gt;ExecuteUbergraph_Options_ProfanityFilter__92</title>
<path fill="none" stroke="black" d="M2124.55,-748.65C2139.5,-733.21 2158.77,-713.31 2174.92,-696.63"/>
<polygon fill="black" stroke="black" points="2177.07,-699.44 2181.51,-689.82 2172.04,-694.57 2177.07,-699.44"/>
</g>
<!-- ExecuteUbergraph_Options_ProfanityFilter__115 -->
<g id="node9" class="node">
<title>ExecuteUbergraph_Options_ProfanityFilter__115</title>
<polygon fill="#eeeeee" stroke="black" points="1983.5,-478.5 1983.5,-576.5 2536.5,-576.5 2536.5,-478.5 1983.5,-478.5"/>
<text text-anchor="start" x="1991.5" y="-561.3" font-family="monospace" font-size="14.00">EX_AddMulticastDelegate</text>
<text text-anchor="start" x="1991.5" y="-546.3" font-family="monospace" font-size="14.00">  EX_Context</text>
<text text-anchor="start" x="1991.5" y="-531.3" font-family="monospace" font-size="14.00">    EX_LocalVariable [CallFunc_FSDGameUserSettings_ReturnValue_1]</text>
<text text-anchor="start" x="1991.5" y="-516.3" font-family="monospace" font-size="14.00">    EX_InstanceVariable [OnGameUserSettingsUINeedsUpdate]</text>
<text text-anchor="start" x="1991.5" y="-501.3" font-family="monospace" font-size="14.00">    RValue = [OnGameUserSettingsUINeedsUpdate]</text>
<text text-anchor="start" x="1991.5" y="-486.3" font-family="monospace" font-size="14.00">  EX_LocalVariable [K2Node_CreateDelegate_OutputDelegate]</text>
</g>
<!-- ExecuteUbergraph_Options_ProfanityFilter__92&#45;&gt;ExecuteUbergraph_Options_ProfanityFilter__115 -->
<g id="edge6" class="edge">
<title>ExecuteUbergraph_Options_ProfanityFilter__92&#45;&gt;ExecuteUbergraph_Options_ProfanityFilter__115</title>
<path fill="none" stroke="black" d="M2217.09,-636.17C2222.66,-622.19 2229.83,-604.21 2236.71,-586.96"/>
<polygon fill="black" stroke="black" points="2239.92,-588.34 2240.37,-577.76 2233.42,-585.75 2239.92,-588.34"/>
</g>
<!-- ExecuteUbergraph_Options_ProfanityFilter__156 -->
<g id="node10" class="node">
<title>ExecuteUbergraph_Options_ProfanityFilter__156</title>
<polygon fill="#eeeeee" stroke="black" points="2118.5,-382 2118.5,-418 2539.5,-418 2539.5,-382 2118.5,-382"/>
<text text-anchor="start" x="2126.5" y="-396.3" font-family="monospace" font-size="14.00">EX_LocalVirtualFunction OnGameUserSettingsChanged</text>
</g>
<!-- ExecuteUbergraph_Options_ProfanityFilter__115&#45;&gt;ExecuteUbergraph_Options_ProfanityFilter__156 -->
<g id="edge7" class="edge">
<title>ExecuteUbergraph_Options_ProfanityFilter__115&#45;&gt;ExecuteUbergraph_Options_ProfanityFilter__156</title>
<path fill="none" stroke="black" d="M2286.28,-478.7C2295.78,-461.42 2306.17,-442.53 2314.32,-427.71"/>
<polygon fill="black" stroke="black" points="2317.33,-429.49 2319.08,-419.04 2311.2,-426.11 2317.33,-429.49"/>
</g>
<!-- ExecuteUbergraph_Options_ProfanityFilter__170 -->
<g id="node11" class="node">
<title>ExecuteUbergraph_Options_ProfanityFilter__170</title>
<polygon fill="#eeeeee" stroke="black" points="2521.5,-277 2521.5,-313 2628.5,-313 2628.5,-277 2521.5,-277"/>
<text text-anchor="start" x="2529.5" y="-291.3" font-family="monospace" font-size="14.00">EX_Jump 348</text>
</g>
<!-- ExecuteUbergraph_Options_ProfanityFilter__156&#45;&gt;ExecuteUbergraph_Options_ProfanityFilter__170 -->
<g id="edge8" class="edge">
<title>ExecuteUbergraph_Options_ProfanityFilter__156&#45;&gt;ExecuteUbergraph_Options_ProfanityFilter__170</title>
<path fill="none" stroke="black" d="M2369.35,-382.11C2411.62,-364.41 2478.14,-336.56 2524.02,-317.35"/>
<polygon fill="black" stroke="black" points="2525.36,-320.58 2533.24,-313.49 2522.66,-314.12 2525.36,-320.58"/>
</g>
<!-- ExecuteUbergraph_Options_ProfanityFilter__170&#45;&gt;ExecuteUbergraph_Options_ProfanityFilter__348 -->
<g id="edge9" class="edge">
<title>ExecuteUbergraph_Options_ProfanityFilter__170&#45;&gt;ExecuteUbergraph_Options_ProfanityFilter__348</title>
<path fill="none" stroke="black" d="M2595.02,-277.3C2650.55,-231 2806.73,-100.77 2872.84,-45.65"/>
<polygon fill="black" stroke="black" points="2874.95,-48.45 2880.39,-39.36 2870.46,-43.07 2874.95,-48.45"/>
</g>
<!-- ExecuteUbergraph_Options_ProfanityFilter__175 -->
<g id="node12" class="node">
<title>ExecuteUbergraph_Options_ProfanityFilter__175</title>
<polygon fill="#eeeeee" stroke="black" points="3722.5,-636 3722.5,-689 4349.5,-689 4349.5,-636 3722.5,-636"/>
<text text-anchor="start" x="3730.5" y="-673.8" font-family="monospace" font-size="14.00">EX_LetObj</text>
<text text-anchor="start" x="3730.5" y="-658.8" font-family="monospace" font-size="14.00">  EX_LocalVariable [CallFunc_FSDGameUserSettings_ReturnValue_3]</text>
<text text-anchor="start" x="3730.5" y="-643.8" font-family="monospace" font-size="14.00">  EX_CallMath import /Script/FSD&#45;&gt;FSDGameUserSettings&#45;&gt;FSDGameUserSettings</text>
</g>
<!-- ExecuteUbergraph_Options_ProfanityFilter__195 -->
<g id="node13" class="node">
<title>ExecuteUbergraph_Options_ProfanityFilter__195</title>
<polygon fill="#eeeeee" stroke="black" points="3312.5,-486 3312.5,-569 3997.5,-569 3997.5,-486 3312.5,-486"/>
<text text-anchor="start" x="3320.5" y="-553.8" font-family="monospace" font-size="14.00">EX_Context</text>
<text text-anchor="start" x="3320.5" y="-538.8" font-family="monospace" font-size="14.00">  EX_LocalVariable [CallFunc_FSDGameUserSettings_ReturnValue_3]</text>
<text text-anchor="start" x="3320.5" y="-523.8" font-family="monospace" font-size="14.00">  EX_FinalFunction import /Script/FSD&#45;&gt;FSDGameUserSettings&#45;&gt;SetUseProfanityFilter</text>
<text text-anchor="start" x="3320.5" y="-508.8" font-family="monospace" font-size="14.00">    EX_LocalVariable [K2Node_ComponentBoundEvent_IsChecked]</text>
<text text-anchor="start" x="3320.5" y="-493.8" font-family="monospace" font-size="14.00">  RValue = []</text>
</g>
<!-- ExecuteUbergraph_Options_ProfanityFilter__175&#45;&gt;ExecuteUbergraph_Options_ProfanityFilter__195 -->
<g id="edge10" class="edge">
<title>ExecuteUbergraph_Options_ProfanityFilter__175&#45;&gt;ExecuteUbergraph_Options_ProfanityFilter__195</title>
<path fill="none" stroke="black" d="M3962.99,-636.01C3911.73,-618.12 3841.84,-593.72 3781.59,-572.69"/>
<polygon fill="black" stroke="black" points="3782.88,-569.43 3772.28,-569.44 3780.57,-576.04 3782.88,-569.43"/>
</g>
<!-- ExecuteUbergraph_Options_ProfanityFilter__236 -->
<g id="node14" class="node">
<title>ExecuteUbergraph_Options_ProfanityFilter__236</title>
<polygon fill="#eeeeee" stroke="black" points="3503.5,-382 3503.5,-418 3602.5,-418 3602.5,-382 3503.5,-382"/>
<text text-anchor="start" x="3511.5" y="-396.3" font-family="monospace" font-size="14.00">EX_Jump 10</text>
</g>
<!-- ExecuteUbergraph_Options_ProfanityFilter__195&#45;&gt;ExecuteUbergraph_Options_ProfanityFilter__236 -->
<g id="edge11" class="edge">
<title>ExecuteUbergraph_Options_ProfanityFilter__195&#45;&gt;ExecuteUbergraph_Options_ProfanityFilter__236</title>
<path fill="none" stroke="black" d="M3622.17,-486.1C3606.34,-466.63 3587.84,-443.86 3573.95,-426.78"/>
<polygon fill="black" stroke="black" points="3576.74,-424.65 3567.71,-419.1 3571.3,-429.07 3576.74,-424.65"/>
</g>
<!-- ExecuteUbergraph_Options_ProfanityFilter__236&#45;&gt;ExecuteUbergraph_Options_ProfanityFilter__10 -->
<g id="edge12" class="edge">
<title>ExecuteUbergraph_Options_ProfanityFilter__236&#45;&gt;ExecuteUbergraph_Options_ProfanityFilter__10</title>
<path fill="none" stroke="black" d="M3536.45,-382.45C3522.15,-368.15 3501.04,-347.04 3483.26,-329.26"/>
<polygon fill="black" stroke="black" points="3485.98,-327.03 3476.43,-322.43 3481.03,-331.98 3485.98,-327.03"/>
</g>
<!-- ExecuteUbergraph_Options_ProfanityFilter__241 -->
<g id="node15" class="node">
<title>ExecuteUbergraph_Options_ProfanityFilter__241</title>
<polygon fill="#eeeeee" stroke="black" points="2589.5,-748.5 2589.5,-801.5 3216.5,-801.5 3216.5,-748.5 2589.5,-748.5"/>
<text text-anchor="start" x="2597.5" y="-786.3" font-family="monospace" font-size="14.00">EX_LetObj</text>
<text text-anchor="start" x="2597.5" y="-771.3" font-family="monospace" font-size="14.00">  EX_LocalVariable [CallFunc_FSDGameUserSettings_ReturnValue_2]</text>
<text text-anchor="start" x="2597.5" y="-756.3" font-family="monospace" font-size="14.00">  EX_CallMath import /Script/FSD&#45;&gt;FSDGameUserSettings&#45;&gt;FSDGameUserSettings</text>
</g>
<!-- ExecuteUbergraph_Options_ProfanityFilter__261 -->
<g id="node16" class="node">
<title>ExecuteUbergraph_Options_ProfanityFilter__261</title>
<polygon fill="#eeeeee" stroke="black" points="2552.5,-613.5 2552.5,-711.5 3253.5,-711.5 3253.5,-613.5 2552.5,-613.5"/>
<text text-anchor="start" x="2560.5" y="-696.3" font-family="monospace" font-size="14.00">EX_LetBool</text>
<text text-anchor="start" x="2560.5" y="-681.3" font-family="monospace" font-size="14.00">  EX_LocalVariable [CallFunc_GetUseProfanityFilter_ReturnValue]</text>
<text text-anchor="start" x="2560.5" y="-666.3" font-family="monospace" font-size="14.00">  EX_Context</text>
<text text-anchor="start" x="2560.5" y="-651.3" font-family="monospace" font-size="14.00">    EX_LocalVariable [CallFunc_FSDGameUserSettings_ReturnValue_2]</text>
<text text-anchor="start" x="2560.5" y="-636.3" font-family="monospace" font-size="14.00">    EX_FinalFunction import /Script/FSD&#45;&gt;FSDGameUserSettings&#45;&gt;GetUseProfanityFilter</text>
<text text-anchor="start" x="2560.5" y="-621.3" font-family="monospace" font-size="14.00">    RValue = [CallFunc_GetUseProfanityFilter_ReturnValue]</text>
</g>
<!-- ExecuteUbergraph_Options_ProfanityFilter__241&#45;&gt;ExecuteUbergraph_Options_ProfanityFilter__261 -->
<g id="edge13" class="edge">
<title>ExecuteUbergraph_Options_ProfanityFilter__241&#45;&gt;ExecuteUbergraph_Options_ProfanityFilter__261</title>
<path fill="none" stroke="black" d="M2903,-748.65C2903,-740.85 2903,-731.92 2903,-722.84"/>
<polygon fill="black" stroke="black" points="2906.5,-722.85 2903,-712.85 2899.5,-722.85 2906.5,-722.85"/>
</g>
<!-- ExecuteUbergraph_Options_ProfanityFilter__303 -->
<g id="node17" class="node">
<title>ExecuteUbergraph_Options_ProfanityFilter__303</title>
<polygon fill="#eeeeee" stroke="black" points="2626.5,-358.5 2626.5,-441.5 3179.5,-441.5 3179.5,-358.5 2626.5,-358.5"/>
<text text-anchor="start" x="2634.5" y="-426.3" font-family="monospace" font-size="14.00">EX_Context</text>
<text text-anchor="start" x="2634.5" y="-411.3" font-family="monospace" font-size="14.00">  EX_InstanceVariable [Basic_CheckBox]</text>
<text text-anchor="start" x="2634.5" y="-396.3" font-family="monospace" font-size="14.00">  EX_LocalVirtualFunction SetIsChecked</text>
<text text-anchor="start" x="2634.5" y="-381.3" font-family="monospace" font-size="14.00">    EX_LocalVariable [CallFunc_GetUseProfanityFilter_ReturnValue]</text>
<text text-anchor="start" x="2634.5" y="-366.3" font-family="monospace" font-size="14.00">  RValue = []</text>
</g>
<!-- ExecuteUbergraph_Options_ProfanityFilter__261&#45;&gt;ExecuteUbergraph_Options_ProfanityFilter__303 -->
<g id="edge14" class="edge">
<title>ExecuteUbergraph_Options_ProfanityFilter__261&#45;&gt;ExecuteUbergraph_Options_ProfanityFilter__303</title>
<path fill="none" stroke="black" d="M2903,-613.72C2903,-568.09 2903,-499.51 2903,-452.64"/>
<polygon fill="black" stroke="black" points="2906.5,-452.73 2903,-442.73 2899.5,-452.73 2906.5,-452.73"/>
</g>
<!-- ExecuteUbergraph_Options_ProfanityFilter__303&#45;&gt;ExecuteUbergraph_Options_ProfanityFilter__348 -->
<g id="edge15" class="edge">
<title>ExecuteUbergraph_Options_ProfanityFilter__303&#45;&gt;ExecuteUbergraph_Options_ProfanityFilter__348</title>
<path fill="none" stroke="black" d="M2903,-358.85C2903,-282.19 2903,-116.65 2903,-49.59"/>
<polygon fill="black" stroke="black" points="2906.5,-49.77 2903,-39.77 2899.5,-49.77 2906.5,-49.77"/>
</g>
<!-- ExecuteUbergraph_Options_ProfanityFilter__350 -->
<g id="node19" class="node">
<title>ExecuteUbergraph_Options_ProfanityFilter__350</title>
<polygon fill="#eeeeee" stroke="black" points="3598,-172 3598,-208 3730,-208 3730,-172 3598,-172"/>
<text text-anchor="start" x="3606" y="-186.3" font-family="monospace" font-size="14.00">EX_EndOfScript</text>
</g>
<!-- OnGameUserSettingsChanged -->
<g id="node20" class="node">
<title>OnGameUserSettingsChanged</title>
<polygon fill="#ff8888" stroke="black" points="2357.5,-974.5 2357.5,-1010.5 2654.5,-1010.5 2654.5,-974.5 2357.5,-974.5"/>
<text text-anchor="start" x="2365.5" y="-988.8" font-family="monospace" font-size="14.00">Function OnGameUserSettingsChanged</text>
</g>
<!-- OnGameUserSettingsChanged__0 -->
<g id="node21" class="node">
<title>OnGameUserSettingsChanged__0</title>
<polygon fill="#eeeeee" stroke="black" points="2101.5,-838.5 2101.5,-876.5 2910.5,-876.5 2910.5,-838.5 2101.5,-838.5"/>
<text text-anchor="start" x="2109.5" y="-861.3" font-family="monospace" font-size="14.00">EX_LocalFinalFunction export Options_ProfanityFilter_C&#45;&gt;ExecuteUbergraph_Options_ProfanityFilter</text>
<text text-anchor="start" x="2109.5" y="-846.3" font-family="monospace" font-size="14.00">  EX_IntConst 241</text>
</g>
<!-- OnGameUserSettingsChanged&#45;&gt;OnGameUserSettingsChanged__0 -->
<g id="edge16" class="edge">
<title>OnGameUserSettingsChanged&#45;&gt;OnGameUserSettingsChanged__0</title>
<path fill="none" stroke="black" d="M2506,-974.66C2506,-952.83 2506,-914.44 2506,-887.79"/>
<polygon fill="black" stroke="black" points="2509.5,-887.99 2506,-877.99 2502.5,-887.99 2509.5,-887.99"/>
</g>
<!-- OnGameUserSettingsChanged__0&#45;&gt;ExecuteUbergraph_Options_ProfanityFilter__241 -->
<g id="edge17" class="edge">
<title>OnGameUserSettingsChanged__0:e&#45;&gt;ExecuteUbergraph_Options_ProfanityFilter__241</title>
<path fill="none" stroke="red" d="M2912,-857.5C2931.7,-857.5 2927.47,-833.69 2919.43,-811.81"/>
<polygon fill="none" stroke="red" points="2922.77,-810.75 2915.83,-802.75 2916.27,-813.33 2922.77,-810.75"/>
</g>
<!-- OnGameUserSettingsChanged__15 -->
<g id="node22" class="node">
<title>OnGameUserSettingsChanged__15</title>
<polygon fill="#eeeeee" stroke="black" points="2448,-756 2448,-794 2564,-794 2564,-756 2448,-756"/>
<text text-anchor="start" x="2456" y="-778.8" font-family="monospace" font-size="14.00">EX_Return</text>
<text text-anchor="start" x="2456" y="-763.8" font-family="monospace" font-size="14.00">  EX_Nothing</text>
</g>
<!-- OnGameUserSettingsChanged__0&#45;&gt;OnGameUserSettingsChanged__15 -->
<g id="edge18" class="edge">
<title>OnGameUserSettingsChanged__0&#45;&gt;OnGameUserSettingsChanged__15</title>
<path fill="none" stroke="black" d="M2506,-838.63C2506,-828.84 2506,-816.45 2506,-805.28"/>
<polygon fill="black" stroke="black" points="2509.5,-805.33 2506,-795.33 2502.5,-805.33 2509.5,-805.33"/>
</g>
<!-- OnGameUserSettingsChanged__17 -->
<g id="node23" class="node">
<title>OnGameUserSettingsChanged__17</title>
<polygon fill="#eeeeee" stroke="black" points="3224,-75.5 3224,-111.5 3356,-111.5 3356,-75.5 3224,-75.5"/>
<text text-anchor="start" x="3232" y="-89.8" font-family="monospace" font-size="14.00">EX_EndOfScript</text>
</g>
<!-- BndEvt__Basic_CheckBox_K2Node_ComponentBoundEvent_0_OnCheckStateChanged__DelegateSignature -->
<g id="node24" class="node">
<title>BndEvt__Basic_CheckBox_K2Node_ComponentBoundEvent_0_OnCheckStateChanged__DelegateSignature</title>
<polygon fill="#ff8888" stroke="black" points="3222.5,-966 3222.5,-1019 4055.5,-1019 4055.5,-966 3222.5,-966"/>
<text text-anchor="start" x="3230.5" y="-1003.8" font-family="monospace" font-size="14.00">Function BndEvt__Basic_CheckBox_K2Node_ComponentBoundEvent_0_OnCheckStateChanged__DelegateSignature</text>
<text text-anchor="start" x="3230.5" y="-988.8" font-family="monospace" font-size="14.00">  BoolProperty IsChecked</text>
<text text-anchor="start" x="3230.5" y="-973.8" font-family="monospace" font-size="14.00">    CPF_BlueprintVisible|CPF_BlueprintReadOnly|CPF_Parm</text>
</g>
<!-- BndEvt__Basic_CheckBox_K2Node_ComponentBoundEvent_0_OnCheckStateChanged__DelegateSignature__0 -->
<g id="node25" class="node">
<title>BndEvt__Basic_CheckBox_K2Node_ComponentBoundEvent_0_OnCheckStateChanged__DelegateSignature__0</title>
<polygon fill="#eeeeee" stroke="black" points="3354.5,-838.5 3354.5,-876.5 3923.5,-876.5 3923.5,-838.5 3354.5,-838.5"/>
<text text-anchor="start" x="3362.5" y="-861.3" font-family="monospace" font-size="14.00">EX_LetValueOnPersistentFrame [K2Node_ComponentBoundEvent_IsChecked]</text>
<text text-anchor="start" x="3362.5" y="-846.3" font-family="monospace" font-size="14.00">  EX_LocalVariable [IsChecked]</text>
</g>
<!-- BndEvt__Basic_CheckBox_K2Node_ComponentBoundEvent_0_OnCheckStateChanged__DelegateSignature&#45;&gt;BndEvt__Basic_CheckBox_K2Node_ComponentBoundEvent_0_OnCheckStateChanged__DelegateSignature__0 -->
<g id="edge19" class="edge">
<title>BndEvt__Basic_CheckBox_K2Node_ComponentBoundEvent_0_OnCheckStateChanged__DelegateSignature&#45;&gt;BndEvt__Basic_CheckBox_K2Node_ComponentBoundEvent_0_OnCheckStateChanged__DelegateSignature__0</title>
<path fill="none" stroke="black" d="M3639,-966.17C3639,-943.84 3639,-911.29 3639,-887.83"/>
<polygon fill="black" stroke="black" points="3642.5,-888 3639,-878 3635.5,-888 3642.5,-888"/>
</g>
<!-- BndEvt__Basic_CheckBox_K2Node_ComponentBoundEvent_0_OnCheckStateChanged__DelegateSignature__18 -->
<g id="node26" class="node">
<title>BndEvt__Basic_CheckBox_K2Node_ComponentBoundEvent_0_OnCheckStateChanged__DelegateSignature__18</title>
<polygon fill="#eeeeee" stroke="black" points="3234.5,-756 3234.5,-794 4043.5,-794 4043.5,-756 3234.5,-756"/>
<text text-anchor="start" x="3242.5" y="-778.8" font-family="monospace" font-size="14.00">EX_LocalFinalFunction export Options_ProfanityFilter_C&#45;&gt;ExecuteUbergraph_Options_ProfanityFilter</text>
<text text-anchor="start" x="3242.5" y="-763.8" font-family="monospace" font-size="14.00">  EX_IntConst 175</text>
</g>
<!-- BndEvt__Basic_CheckBox_K2Node_ComponentBoundEvent_0_OnCheckStateChanged__DelegateSignature__0&#45;&gt;BndEvt__Basic_CheckBox_K2Node_ComponentBoundEvent_0_OnCheckStateChanged__DelegateSignature__18 -->
<g id="edge20" class="edge">
<title>BndEvt__Basic_CheckBox_K2Node_ComponentBoundEvent_0_OnCheckStateChanged__DelegateSignature__0&#45;&gt;BndEvt__Basic_CheckBox_K2Node_ComponentBoundEvent_0_OnCheckStateChanged__DelegateSignature__18</title>
<path fill="none" stroke="black" d="M3639,-838.63C3639,-828.84 3639,-816.45 3639,-805.28"/>
<polygon fill="black" stroke="black" points="3642.5,-805.33 3639,-795.33 3635.5,-805.33 3642.5,-805.33"/>
</g>
<!-- BndEvt__Basic_CheckBox_K2Node_ComponentBoundEvent_0_OnCheckStateChanged__DelegateSignature__18&#45;&gt;ExecuteUbergraph_Options_ProfanityFilter__175 -->
<g id="edge21" class="edge">
<title>BndEvt__Basic_CheckBox_K2Node_ComponentBoundEvent_0_OnCheckStateChanged__DelegateSignature__18:e&#45;&gt;ExecuteUbergraph_Options_ProfanityFilter__175</title>
<path fill="none" stroke="red" d="M4045,-775C4075.88,-775 4064.93,-731.98 4052.19,-699.38"/>
<polygon fill="none" stroke="red" points="4055.46,-698.13 4048.44,-690.2 4048.98,-700.78 4055.46,-698.13"/>
</g>
<!-- BndEvt__Basic_CheckBox_K2Node_ComponentBoundEvent_0_OnCheckStateChanged__DelegateSignature__33 -->
<g id="node27" class="node">
<title>BndEvt__Basic_CheckBox_K2Node_ComponentBoundEvent_0_OnCheckStateChanged__DelegateSignature__33</title>
<polygon fill="#eeeeee" stroke="black" points="3581,-643.5 3581,-681.5 3697,-681.5 3697,-643.5 3581,-643.5"/>
<text text-anchor="start" x="3589" y="-666.3" font-family="monospace" font-size="14.00">EX_Return</text>
<text text-anchor="start" x="3589" y="-651.3" font-family="monospace" font-size="14.00">  EX_Nothing</text>
</g>
<!-- BndEvt__Basic_CheckBox_K2Node_ComponentBoundEvent_0_OnCheckStateChanged__DelegateSignature__18&#45;&gt;BndEvt__Basic_CheckBox_K2Node_ComponentBoundEvent_0_OnCheckStateChanged__DelegateSignature__33 -->
<g id="edge22" class="edge">
<title>BndEvt__Basic_CheckBox_K2Node_ComponentBoundEvent_0_OnCheckStateChanged__DelegateSignature__18&#45;&gt;BndEvt__Basic_CheckBox_K2Node_ComponentBoundEvent_0_OnCheckStateChanged__DelegateSignature__33</title>
<path fill="none" stroke="black" d="M3639,-756.25C3639,-739.09 3639,-712.8 3639,-692.58"/>
<polygon fill="black" stroke="black" points="3642.5,-692.72 3639,-682.72 3635.5,-692.72 3642.5,-692.72"/>
</g>
<!-- BndEvt__Basic_CheckBox_K2Node_ComponentBoundEvent_0_OnCheckStateChanged__DelegateSignature__35 -->
<g id="node28" class="node">
<title>BndEvt__Basic_CheckBox_K2Node_ComponentBoundEvent_0_OnCheckStateChanged__DelegateSignature__35</title>
<polygon fill="#eeeeee" stroke="black" points="2979,-1.5 2979,-37.5 3111,-37.5 3111,-1.5 2979,-1.5"/>
<text text-anchor="start" x="2987" y="-15.8" font-family="monospace" font-size="14.00">EX_EndOfScript</text>
</g>
<!-- Construct -->
<g id="node29" class="node">
<title>Construct</title>
<polygon fill="#ff8888" stroke="black" points="1596.5,-974.5 1596.5,-1010.5 1761.5,-1010.5 1761.5,-974.5 1596.5,-974.5"/>
<text text-anchor="start" x="1604.5" y="-988.8" font-family="monospace" font-size="14.00">Function Construct</text>
</g>
<!-- Construct__0 -->
<g id="node30" class="node">
<title>Construct__0</title>
<polygon fill="#eeeeee" stroke="black" points="1274.5,-838.5 1274.5,-876.5 2083.5,-876.5 2083.5,-838.5 1274.5,-838.5"/>
<text text-anchor="start" x="1282.5" y="-861.3" font-family="monospace" font-size="14.00">EX_LocalFinalFunction export Options_ProfanityFilter_C&#45;&gt;ExecuteUbergraph_Options_ProfanityFilter</text>
<text text-anchor="start" x="1282.5" y="-846.3" font-family="monospace" font-size="14.00">  EX_IntConst 72</text>
</g>
<!-- Construct&#45;&gt;Construct__0 -->
<g id="edge23" class="edge">
<title>Construct&#45;&gt;Construct__0</title>
<path fill="none" stroke="black" d="M1679,-974.66C1679,-952.83 1679,-914.44 1679,-887.79"/>
<polygon fill="black" stroke="black" points="1682.5,-887.99 1679,-877.99 1675.5,-887.99 1682.5,-887.99"/>
</g>
<!-- Construct__0&#45;&gt;ExecuteUbergraph_Options_ProfanityFilter__72 -->
<g id="edge24" class="edge">
<title>Construct__0:e&#45;&gt;ExecuteUbergraph_Options_ProfanityFilter__72</title>
<path fill="none" stroke="red" d="M2085,-857.5C2087.45,-857.5 2091.55,-834.34 2094.85,-812.71"/>
<polygon fill="none" stroke="red" points="2098.31,-813.24 2096.31,-802.84 2091.38,-812.22 2098.31,-813.24"/>
</g>
<!-- Construct__15 -->
<g id="node31" class="node">
<title>Construct__15</title>
<polygon fill="#eeeeee" stroke="black" points="1621,-756 1621,-794 1737,-794 1737,-756 1621,-756"/>
<text text-anchor="start" x="1629" y="-778.8" font-family="monospace" font-size="14.00">EX_Return</text>
<text text-anchor="start" x="1629" y="-763.8" font-family="monospace" font-size="14.00">  EX_Nothing</text>
</g>
<!-- Construct__0&#45;&gt;Construct__15 -->
<g id="edge25" class="edge">
<title>Construct__0&#45;&gt;Construct__15</title>
<path fill="none" stroke="black" d="M1679,-838.63C1679,-828.84 1679,-816.45 1679,-805.28"/>
<polygon fill="black" stroke="black" points="1682.5,-805.33 1679,-795.33 1675.5,-805.33 1682.5,-805.33"/>
</g>
<!-- Construct__17 -->
<g id="node32" class="node">
<title>Construct__17</title>
<polygon fill="#eeeeee" stroke="black" points="4074,-974.5 4074,-1010.5 4206,-1010.5 4206,-974.5 4074,-974.5"/>
<text text-anchor="start" x="4082" y="-988.8" font-family="monospace" font-size="14.00">EX_EndOfScript</text>
</g>
</g>
</svg>
