<?xml version="1.0" encoding="UTF-8" standalone="no"?>
<!DOCTYPE svg PUBLIC "-//W3C//DTD SVG 1.1//EN"
 "http://www.w3.org/Graphics/SVG/1.1/DTD/svg11.dtd">
<!-- Generated by graphviz version 7.0.1 (0)
 -->
<!-- Pages: 1 -->
<svg width="3699pt" height="1050pt"
 viewBox="0.00 0.00 3699.00 1050.00" xmlns="http://www.w3.org/2000/svg" xmlns:xlink="http://www.w3.org/1999/xlink">
<g id="graph0" class="graph" transform="scale(1 1) rotate(0) translate(4 1046)">
<polygon fill="white" stroke="none" points="-4,4 -4,-1046 3695,-1046 3695,4 -4,4"/>
<!-- Options_Chat_FadeTime_C -->
<g id="node1" class="node">
<title>Options_Chat_FadeTime_C</title>
<polygon fill="#88ff88" stroke="black" points="0,-898.5 0,-1041.5 899,-1041.5 899,-898.5 0,-898.5"/>
<text text-anchor="start" x="8" y="-1026.3" font-family="monospace" font-size="14.00">ClassExport: Options_Chat_FadeTime_C</text>
<text text-anchor="start" x="8" y="-1011.3" font-family="monospace" font-size="14.00">  SuperStruct: import /Script/FSD&#45;&gt;SoundClassWidget</text>
<text text-anchor="start" x="8" y="-996.3" font-family="monospace" font-size="14.00">  Properties:</text>
<text text-anchor="start" x="8" y="-981.3" font-family="monospace" font-size="14.00">    StructProperty UberGraphFrame</text>
<text text-anchor="start" x="8" y="-966.3" font-family="monospace" font-size="14.00">      CPF_Transient|CPF_DuplicateTransient</text>
<text text-anchor="start" x="8" y="-951.3" font-family="monospace" font-size="14.00">    ObjectProperty Basic_Slider</text>
<text text-anchor="start" x="8" y="-936.3" font-family="monospace" font-size="14.00">      CPF_BlueprintVisible|CPF_ExportObject|CPF_InstancedReference|CPF_RepSkip|CPF_PersistentInstance</text>
<text text-anchor="start" x="8" y="-921.3" font-family="monospace" font-size="14.00">    MulticastInlineDelegateProperty OnVolumeChanged</text>
<text text-anchor="start" x="8" y="-906.3" font-family="monospace" font-size="14.00">      CPF_Edit|CPF_BlueprintVisible|CPF_DisableEditOnInstance|CPF_BlueprintAssignable|CPF_BlueprintCallable</text>
</g>
<!-- OnVolumeChanged__DelegateSignature -->
<g id="node2" class="node">
<title>OnVolumeChanged__DelegateSignature</title>
<polygon fill="#ff8888" stroke="black" points="917.5,-943.5 917.5,-996.5 1387.5,-996.5 1387.5,-943.5 917.5,-943.5"/>
<text text-anchor="start" x="925.5" y="-981.3" font-family="monospace" font-size="14.00">Function OnVolumeChanged__DelegateSignature</text>
<text text-anchor="start" x="925.5" y="-966.3" font-family="monospace" font-size="14.00">  FloatProperty Volume</text>
<text text-anchor="start" x="925.5" y="-951.3" font-family="monospace" font-size="14.00">    CPF_BlueprintVisible|CPF_BlueprintReadOnly|CPF_Parm</text>
</g>
<!-- OnVolumeChanged__DelegateSignature__0 -->
<g id="node3" class="node">
<title>OnVolumeChanged__DelegateSignature__0</title>
<polygon fill="#eeeeee" stroke="black" points="1094.5,-823.5 1094.5,-861.5 1210.5,-861.5 1210.5,-823.5 1094.5,-823.5"/>
<text text-anchor="start" x="1102.5" y="-846.3" font-family="monospace" font-size="14.00">EX_Return</text>
<text text-anchor="start" x="1102.5" y="-831.3" font-family="monospace" font-size="14.00">  EX_Nothing</text>
</g>
<!-- OnVolumeChanged__DelegateSignature&#45;&gt;OnVolumeChanged__DelegateSignature__0 -->
<g id="edge1" class="edge">
<title>OnVolumeChanged__DelegateSignature&#45;&gt;OnVolumeChanged__DelegateSignature__0</title>
<path fill="none" stroke="black" d="M1152.5,-943.6C1152.5,-923.03 1152.5,-894.04 1152.5,-872.54"/>
<polygon fill="black" stroke="black" points="1156,-872.69 1152.5,-862.69 1149,-872.69 1156,-872.69"/>
</g>
<!-- OnVolumeChanged__DelegateSignature__2 -->
<g id="node4" class="node">
<title>OnVolumeChanged__DelegateSignature__2</title>
<polygon fill="#eeeeee" stroke="black" points="2408.5,-269.5 2408.5,-305.5 2540.5,-305.5 2540.5,-269.5 2408.5,-269.5"/>
<text text-anchor="start" x="2416.5" y="-283.8" font-family="monospace" font-size="14.00">EX_EndOfScript</text>
</g>
<!-- ExecuteUbergraph_Options_Chat_FadeTime -->
<g id="node5" class="node">
<title>ExecuteUbergraph_Options_Chat_FadeTime</title>
<polygon fill="#ff8888" stroke="black" points="1406,-906 1406,-1034 1909,-1034 1909,-906 1406,-906"/>
<text text-anchor="start" x="1414" y="-1018.8" font-family="monospace" font-size="14.00">Function ExecuteUbergraph_Options_Chat_FadeTime</text>
<text text-anchor="start" x="1414" y="-1003.8" font-family="monospace" font-size="14.00">  IntProperty EntryPoint</text>
<text text-anchor="start" x="1414" y="-988.8" font-family="monospace" font-size="14.00">    CPF_BlueprintVisible|CPF_BlueprintReadOnly|CPF_Parm</text>
<text text-anchor="start" x="1414" y="-973.8" font-family="monospace" font-size="14.00">  ObjectProperty CallFunc_FSDGameUserSettings_ReturnValue</text>
<text text-anchor="start" x="1414" y="-958.8" font-family="monospace" font-size="14.00">  ObjectProperty CallFunc_FSDGameUserSettings_ReturnValue_1</text>
<text text-anchor="start" x="1414" y="-943.8" font-family="monospace" font-size="14.00">  FloatProperty CallFunc_GetChatFadeTime_ReturnValue</text>
<text text-anchor="start" x="1414" y="-928.8" font-family="monospace" font-size="14.00">  ObjectProperty CallFunc_GetFSDGameInstance_ReturnValue</text>
<text text-anchor="start" x="1414" y="-913.8" font-family="monospace" font-size="14.00">  FloatProperty K2Node_ComponentBoundEvent_Value</text>
</g>
<!-- ExecuteUbergraph_Options_Chat_FadeTime__0 -->
<g id="node6" class="node">
<title>ExecuteUbergraph_Options_Chat_FadeTime__0</title>
<polygon fill="#eeeeee" stroke="black" points="1521.5,-823.5 1521.5,-861.5 1793.5,-861.5 1793.5,-823.5 1521.5,-823.5"/>
<text text-anchor="start" x="1529.5" y="-846.3" font-family="monospace" font-size="14.00">EX_ComputedJump</text>
<text text-anchor="start" x="1529.5" y="-831.3" font-family="monospace" font-size="14.00">  EX_LocalVariable [EntryPoint]</text>
</g>
<!-- ExecuteUbergraph_Options_Chat_FadeTime&#45;&gt;ExecuteUbergraph_Options_Chat_FadeTime__0 -->
<g id="edge2" class="edge">
<title>ExecuteUbergraph_Options_Chat_FadeTime&#45;&gt;ExecuteUbergraph_Options_Chat_FadeTime__0</title>
<path fill="none" stroke="black" d="M1657.5,-906.25C1657.5,-894.57 1657.5,-882.9 1657.5,-872.84"/>
<polygon fill="black" stroke="black" points="1661,-872.99 1657.5,-862.99 1654,-872.99 1661,-872.99"/>
</g>
<!-- ExecuteUbergraph_Options_Chat_FadeTime__10 -->
<g id="node7" class="node">
<title>ExecuteUbergraph_Options_Chat_FadeTime__10</title>
<polygon fill="#eeeeee" stroke="black" points="3064,-733.5 3064,-786.5 3691,-786.5 3691,-733.5 3064,-733.5"/>
<text text-anchor="start" x="3072" y="-771.3" font-family="monospace" font-size="14.00">EX_LetObj</text>
<text text-anchor="start" x="3072" y="-756.3" font-family="monospace" font-size="14.00">  EX_LocalVariable [CallFunc_FSDGameUserSettings_ReturnValue]</text>
<text text-anchor="start" x="3072" y="-741.3" font-family="monospace" font-size="14.00">  EX_CallMath import /Script/FSD&#45;&gt;FSDGameUserSettings&#45;&gt;FSDGameUserSettings</text>
</g>
<!-- ExecuteUbergraph_Options_Chat_FadeTime__30 -->
<g id="node8" class="node">
<title>ExecuteUbergraph_Options_Chat_FadeTime__30</title>
<polygon fill="#eeeeee" stroke="black" points="3028.5,-598.5 3028.5,-696.5 3680.5,-696.5 3680.5,-598.5 3028.5,-598.5"/>
<text text-anchor="start" x="3036.5" y="-681.3" font-family="monospace" font-size="14.00">EX_Let</text>
<text text-anchor="start" x="3036.5" y="-666.3" font-family="monospace" font-size="14.00">  EX_LocalVariable [CallFunc_GetChatFadeTime_ReturnValue]</text>
<text text-anchor="start" x="3036.5" y="-651.3" font-family="monospace" font-size="14.00">  EX_Context</text>
<text text-anchor="start" x="3036.5" y="-636.3" font-family="monospace" font-size="14.00">    EX_LocalVariable [CallFunc_FSDGameUserSettings_ReturnValue]</text>
<text text-anchor="start" x="3036.5" y="-621.3" font-family="monospace" font-size="14.00">    EX_FinalFunction import /Script/FSD&#45;&gt;FSDGameUserSettings&#45;&gt;GetChatFadeTime</text>
<text text-anchor="start" x="3036.5" y="-606.3" font-family="monospace" font-size="14.00">    RValue = [CallFunc_GetChatFadeTime_ReturnValue]</text>
</g>
<!-- ExecuteUbergraph_Options_Chat_FadeTime__10&#45;&gt;ExecuteUbergraph_Options_Chat_FadeTime__30 -->
<g id="edge3" class="edge">
<title>ExecuteUbergraph_Options_Chat_FadeTime__10&#45;&gt;ExecuteUbergraph_Options_Chat_FadeTime__30</title>
<path fill="none" stroke="black" d="M3372.22,-733.65C3370.58,-725.77 3368.7,-716.72 3366.79,-707.54"/>
<polygon fill="black" stroke="black" points="3370.23,-706.89 3364.77,-697.82 3363.38,-708.32 3370.23,-706.89"/>
</g>
<!-- ExecuteUbergraph_Options_Chat_FadeTime__80 -->
<g id="node9" class="node">
<title>ExecuteUbergraph_Options_Chat_FadeTime__80</title>
<polygon fill="#eeeeee" stroke="black" points="3100,-478.5 3100,-561.5 3603,-561.5 3603,-478.5 3100,-478.5"/>
<text text-anchor="start" x="3108" y="-546.3" font-family="monospace" font-size="14.00">EX_Context</text>
<text text-anchor="start" x="3108" y="-531.3" font-family="monospace" font-size="14.00">  EX_InstanceVariable [Basic_Slider]</text>
<text text-anchor="start" x="3108" y="-516.3" font-family="monospace" font-size="14.00">  EX_LocalVirtualFunction Set Value</text>
<text text-anchor="start" x="3108" y="-501.3" font-family="monospace" font-size="14.00">    EX_LocalVariable [CallFunc_GetChatFadeTime_ReturnValue]</text>
<text text-anchor="start" x="3108" y="-486.3" font-family="monospace" font-size="14.00">  RValue = []</text>
</g>
<!-- ExecuteUbergraph_Options_Chat_FadeTime__30&#45;&gt;ExecuteUbergraph_Options_Chat_FadeTime__80 -->
<g id="edge4" class="edge">
<title>ExecuteUbergraph_Options_Chat_FadeTime__30&#45;&gt;ExecuteUbergraph_Options_Chat_FadeTime__80</title>
<path fill="none" stroke="black" d="M3353.36,-598.7C3353.15,-590.22 3352.94,-581.36 3352.74,-572.77"/>
<polygon fill="black" stroke="black" points="3356.24,-572.74 3352.5,-562.83 3349.24,-572.91 3356.24,-572.74"/>
</g>
<!-- ExecuteUbergraph_Options_Chat_FadeTime__125 -->
<g id="node10" class="node">
<title>ExecuteUbergraph_Options_Chat_FadeTime__125</title>
<polygon fill="#eeeeee" stroke="black" points="3243,-382 3243,-418 3350,-418 3350,-382 3243,-382"/>
<text text-anchor="start" x="3251" y="-396.3" font-family="monospace" font-size="14.00">EX_Jump 254</text>
</g>
<!-- ExecuteUbergraph_Options_Chat_FadeTime__80&#45;&gt;ExecuteUbergraph_Options_Chat_FadeTime__125 -->
<g id="edge5" class="edge">
<title>ExecuteUbergraph_Options_Chat_FadeTime__80&#45;&gt;ExecuteUbergraph_Options_Chat_FadeTime__125</title>
<path fill="none" stroke="black" d="M3332.73,-478.72C3324.91,-461.96 3316.05,-442.95 3309.05,-427.92"/>
<polygon fill="black" stroke="black" points="3312.36,-426.73 3304.96,-419.15 3306.01,-429.69 3312.36,-426.73"/>
</g>
<!-- ExecuteUbergraph_Options_Chat_FadeTime__254 -->
<g id="node17" class="node">
<title>ExecuteUbergraph_Options_Chat_FadeTime__254</title>
<polygon fill="#eeeeee" stroke="black" points="3047.5,-0.5 3047.5,-38.5 3163.5,-38.5 3163.5,-0.5 3047.5,-0.5"/>
<text text-anchor="start" x="3055.5" y="-23.3" font-family="monospace" font-size="14.00">EX_Return</text>
<text text-anchor="start" x="3055.5" y="-8.3" font-family="monospace" font-size="14.00">  EX_Nothing</text>
</g>
<!-- ExecuteUbergraph_Options_Chat_FadeTime__125&#45;&gt;ExecuteUbergraph_Options_Chat_FadeTime__254 -->
<g id="edge6" class="edge">
<title>ExecuteUbergraph_Options_Chat_FadeTime__125&#45;&gt;ExecuteUbergraph_Options_Chat_FadeTime__254</title>
<path fill="none" stroke="black" d="M3296.89,-382.2C3297.13,-339.92 3293.25,-226.92 3248.5,-148 3223.56,-104.02 3177.83,-67.32 3144.78,-44.76"/>
<polygon fill="black" stroke="black" points="3146.92,-41.98 3136.66,-39.34 3143.03,-47.8 3146.92,-41.98"/>
</g>
<!-- ExecuteUbergraph_Options_Chat_FadeTime__130 -->
<g id="node11" class="node">
<title>ExecuteUbergraph_Options_Chat_FadeTime__130</title>
<polygon fill="#eeeeee" stroke="black" points="2449,-493.5 2449,-546.5 3076,-546.5 3076,-493.5 2449,-493.5"/>
<text text-anchor="start" x="2457" y="-531.3" font-family="monospace" font-size="14.00">EX_LetObj</text>
<text text-anchor="start" x="2457" y="-516.3" font-family="monospace" font-size="14.00">  EX_LocalVariable [CallFunc_FSDGameUserSettings_ReturnValue_1]</text>
<text text-anchor="start" x="2457" y="-501.3" font-family="monospace" font-size="14.00">  EX_CallMath import /Script/FSD&#45;&gt;FSDGameUserSettings&#45;&gt;FSDGameUserSettings</text>
</g>
<!-- ExecuteUbergraph_Options_Chat_FadeTime__150 -->
<g id="node12" class="node">
<title>ExecuteUbergraph_Options_Chat_FadeTime__150</title>
<polygon fill="#eeeeee" stroke="black" points="2542,-358.5 2542,-441.5 3177,-441.5 3177,-358.5 2542,-358.5"/>
<text text-anchor="start" x="2550" y="-426.3" font-family="monospace" font-size="14.00">EX_Context</text>
<text text-anchor="start" x="2550" y="-411.3" font-family="monospace" font-size="14.00">  EX_LocalVariable [CallFunc_FSDGameUserSettings_ReturnValue_1]</text>
<text text-anchor="start" x="2550" y="-396.3" font-family="monospace" font-size="14.00">  EX_FinalFunction import /Script/FSD&#45;&gt;FSDGameUserSettings&#45;&gt;SetChatFadeTime</text>
<text text-anchor="start" x="2550" y="-381.3" font-family="monospace" font-size="14.00">    EX_LocalVariable [K2Node_ComponentBoundEvent_Value]</text>
<text text-anchor="start" x="2550" y="-366.3" font-family="monospace" font-size="14.00">  RValue = []</text>
</g>
<!-- ExecuteUbergraph_Options_Chat_FadeTime__130&#45;&gt;ExecuteUbergraph_Options_Chat_FadeTime__150 -->
<g id="edge7" class="edge">
<title>ExecuteUbergraph_Options_Chat_FadeTime__130&#45;&gt;ExecuteUbergraph_Options_Chat_FadeTime__150</title>
<path fill="none" stroke="black" d="M2783.31,-493.69C2793.83,-480.89 2806.95,-464.92 2819.34,-449.86"/>
<polygon fill="black" stroke="black" points="2821.91,-452.24 2825.55,-442.29 2816.5,-447.8 2821.91,-452.24"/>
</g>
<!-- ExecuteUbergraph_Options_Chat_FadeTime__191 -->
<g id="node13" class="node">
<title>ExecuteUbergraph_Options_Chat_FadeTime__191</title>
<polygon fill="#eeeeee" stroke="black" points="2559,-253.5 2559,-321.5 3178,-321.5 3178,-253.5 2559,-253.5"/>
<text text-anchor="start" x="2567" y="-306.3" font-family="monospace" font-size="14.00">EX_LetObj</text>
<text text-anchor="start" x="2567" y="-291.3" font-family="monospace" font-size="14.00">  EX_LocalVariable [CallFunc_GetFSDGameInstance_ReturnValue]</text>
<text text-anchor="start" x="2567" y="-276.3" font-family="monospace" font-size="14.00">  EX_CallMath import /Script/FSD&#45;&gt;GameFunctionLibrary&#45;&gt;GetFSDGameInstance</text>
<text text-anchor="start" x="2567" y="-261.3" font-family="monospace" font-size="14.00">    EX_Self</text>
</g>
<!-- ExecuteUbergraph_Options_Chat_FadeTime__150&#45;&gt;ExecuteUbergraph_Options_Chat_FadeTime__191 -->
<g id="edge8" class="edge">
<title>ExecuteUbergraph_Options_Chat_FadeTime__150&#45;&gt;ExecuteUbergraph_Options_Chat_FadeTime__191</title>
<path fill="none" stroke="black" d="M2862.77,-358.79C2863.47,-350.31 2864.2,-341.31 2864.9,-332.69"/>
<polygon fill="black" stroke="black" points="2868.39,-333.01 2865.71,-322.76 2861.41,-332.44 2868.39,-333.01"/>
</g>
<!-- ExecuteUbergraph_Options_Chat_FadeTime__212 -->
<g id="node14" class="node">
<title>ExecuteUbergraph_Options_Chat_FadeTime__212</title>
<polygon fill="#eeeeee" stroke="black" points="2571.5,-148.5 2571.5,-216.5 3239.5,-216.5 3239.5,-148.5 2571.5,-148.5"/>
<text text-anchor="start" x="2579.5" y="-201.3" font-family="monospace" font-size="14.00">EX_Context</text>
<text text-anchor="start" x="2579.5" y="-186.3" font-family="monospace" font-size="14.00">  EX_LocalVariable [CallFunc_GetFSDGameInstance_ReturnValue]</text>
<text text-anchor="start" x="2579.5" y="-171.3" font-family="monospace" font-size="14.00">  EX_FinalFunction import /Script/FSD&#45;&gt;FSDGameInstance&#45;&gt;GameUserSettingsChanged</text>
<text text-anchor="start" x="2579.5" y="-156.3" font-family="monospace" font-size="14.00">  RValue = []</text>
</g>
<!-- ExecuteUbergraph_Options_Chat_FadeTime__191&#45;&gt;ExecuteUbergraph_Options_Chat_FadeTime__212 -->
<g id="edge9" class="edge">
<title>ExecuteUbergraph_Options_Chat_FadeTime__191&#45;&gt;ExecuteUbergraph_Options_Chat_FadeTime__212</title>
<path fill="none" stroke="black" d="M2880.31,-253.63C2883.35,-245.17 2886.66,-235.94 2889.86,-227.04"/>
<polygon fill="black" stroke="black" points="2893.08,-228.43 2893.16,-217.84 2886.49,-226.07 2893.08,-228.43"/>
</g>
<!-- ExecuteUbergraph_Options_Chat_FadeTime__244 -->
<g id="node15" class="node">
<title>ExecuteUbergraph_Options_Chat_FadeTime__244</title>
<polygon fill="#eeeeee" stroke="black" points="3011,-75.5 3011,-111.5 3118,-111.5 3118,-75.5 3011,-75.5"/>
<text text-anchor="start" x="3019" y="-89.8" font-family="monospace" font-size="14.00">EX_Jump 254</text>
</g>
<!-- ExecuteUbergraph_Options_Chat_FadeTime__212&#45;&gt;ExecuteUbergraph_Options_Chat_FadeTime__244 -->
<g id="edge10" class="edge">
<title>ExecuteUbergraph_Options_Chat_FadeTime__212&#45;&gt;ExecuteUbergraph_Options_Chat_FadeTime__244</title>
<path fill="none" stroke="black" d="M2965.61,-148.61C2985.02,-137.99 3006.07,-126.47 3023.74,-116.8"/>
<polygon fill="black" stroke="black" points="3025.29,-119.94 3032.39,-112.07 3021.93,-113.8 3025.29,-119.94"/>
</g>
<!-- ExecuteUbergraph_Options_Chat_FadeTime__244&#45;&gt;ExecuteUbergraph_Options_Chat_FadeTime__254 -->
<g id="edge11" class="edge">
<title>ExecuteUbergraph_Options_Chat_FadeTime__244&#45;&gt;ExecuteUbergraph_Options_Chat_FadeTime__254</title>
<path fill="none" stroke="black" d="M3074.01,-75.8C3078.65,-67.65 3084.36,-57.63 3089.63,-48.36"/>
<polygon fill="black" stroke="black" points="3092.67,-50.1 3094.58,-39.68 3086.59,-46.64 3092.67,-50.1"/>
</g>
<!-- ExecuteUbergraph_Options_Chat_FadeTime__249 -->
<g id="node16" class="node">
<title>ExecuteUbergraph_Options_Chat_FadeTime__249</title>
<polygon fill="#eeeeee" stroke="black" points="2698,-629.5 2698,-665.5 2805,-665.5 2805,-629.5 2698,-629.5"/>
<text text-anchor="start" x="2706" y="-643.8" font-family="monospace" font-size="14.00">EX_Jump 130</text>
</g>
<!-- ExecuteUbergraph_Options_Chat_FadeTime__249&#45;&gt;ExecuteUbergraph_Options_Chat_FadeTime__130 -->
<g id="edge12" class="edge">
<title>ExecuteUbergraph_Options_Chat_FadeTime__249&#45;&gt;ExecuteUbergraph_Options_Chat_FadeTime__130</title>
<path fill="none" stroke="black" d="M2752.98,-629.57C2754.59,-611.26 2757.2,-581.49 2759.28,-557.75"/>
<polygon fill="black" stroke="black" points="2762.76,-558.1 2760.15,-547.83 2755.79,-557.49 2762.76,-558.1"/>
</g>
<!-- ExecuteUbergraph_Options_Chat_FadeTime__256 -->
<g id="node18" class="node">
<title>ExecuteUbergraph_Options_Chat_FadeTime__256</title>
<polygon fill="#eeeeee" stroke="black" points="3314.5,-164.5 3314.5,-200.5 3446.5,-200.5 3446.5,-164.5 3314.5,-164.5"/>
<text text-anchor="start" x="3322.5" y="-178.8" font-family="monospace" font-size="14.00">EX_EndOfScript</text>
</g>
<!-- BndEvt__Basic_Slider_K2Node_ComponentBoundEvent_9_OnValueChanged__DelegateSignature -->
<g id="node19" class="node">
<title>BndEvt__Basic_Slider_K2Node_ComponentBoundEvent_9_OnValueChanged__DelegateSignature</title>
<polygon fill="#ff8888" stroke="black" points="1927.5,-943.5 1927.5,-996.5 2703.5,-996.5 2703.5,-943.5 1927.5,-943.5"/>
<text text-anchor="start" x="1935.5" y="-981.3" font-family="monospace" font-size="14.00">Function BndEvt__Basic_Slider_K2Node_ComponentBoundEvent_9_OnValueChanged__DelegateSignature</text>
<text text-anchor="start" x="1935.5" y="-966.3" font-family="monospace" font-size="14.00">  FloatProperty Value</text>
<text text-anchor="start" x="1935.5" y="-951.3" font-family="monospace" font-size="14.00">    CPF_BlueprintVisible|CPF_BlueprintReadOnly|CPF_Parm</text>
</g>
<!-- BndEvt__Basic_Slider_K2Node_ComponentBoundEvent_9_OnValueChanged__DelegateSignature__0 -->
<g id="node20" class="node">
<title>BndEvt__Basic_Slider_K2Node_ComponentBoundEvent_9_OnValueChanged__DelegateSignature__0</title>
<polygon fill="#eeeeee" stroke="black" points="2047.5,-823.5 2047.5,-861.5 2583.5,-861.5 2583.5,-823.5 2047.5,-823.5"/>
<text text-anchor="start" x="2055.5" y="-846.3" font-family="monospace" font-size="14.00">EX_LetValueOnPersistentFrame [K2Node_ComponentBoundEvent_Value]</text>
<text text-anchor="start" x="2055.5" y="-831.3" font-family="monospace" font-size="14.00">  EX_LocalVariable [Value]</text>
</g>
<!-- BndEvt__Basic_Slider_K2Node_ComponentBoundEvent_9_OnValueChanged__DelegateSignature&#45;&gt;BndEvt__Basic_Slider_K2Node_ComponentBoundEvent_9_OnValueChanged__DelegateSignature__0 -->
<g id="edge13" class="edge">
<title>BndEvt__Basic_Slider_K2Node_ComponentBoundEvent_9_OnValueChanged__DelegateSignature&#45;&gt;BndEvt__Basic_Slider_K2Node_ComponentBoundEvent_9_OnValueChanged__DelegateSignature__0</title>
<path fill="none" stroke="black" d="M2315.5,-943.6C2315.5,-923.03 2315.5,-894.04 2315.5,-872.54"/>
<polygon fill="black" stroke="black" points="2319,-872.69 2315.5,-862.69 2312,-872.69 2319,-872.69"/>
</g>
<!-- BndEvt__Basic_Slider_K2Node_ComponentBoundEvent_9_OnValueChanged__DelegateSignature__18 -->
<g id="node21" class="node">
<title>BndEvt__Basic_Slider_K2Node_ComponentBoundEvent_9_OnValueChanged__DelegateSignature__18</title>
<polygon fill="#eeeeee" stroke="black" points="1930.5,-741 1930.5,-779 2706.5,-779 2706.5,-741 1930.5,-741"/>
<text text-anchor="start" x="1938.5" y="-763.8" font-family="monospace" font-size="14.00">EX_LocalFinalFunction export Options_Chat_FadeTime_C&#45;&gt;ExecuteUbergraph_Options_Chat_FadeTime</text>
<text text-anchor="start" x="1938.5" y="-748.8" font-family="monospace" font-size="14.00">  EX_IntConst 249</text>
</g>
<!-- BndEvt__Basic_Slider_K2Node_ComponentBoundEvent_9_OnValueChanged__DelegateSignature__0&#45;&gt;BndEvt__Basic_Slider_K2Node_ComponentBoundEvent_9_OnValueChanged__DelegateSignature__18 -->
<g id="edge14" class="edge">
<title>BndEvt__Basic_Slider_K2Node_ComponentBoundEvent_9_OnValueChanged__DelegateSignature__0&#45;&gt;BndEvt__Basic_Slider_K2Node_ComponentBoundEvent_9_OnValueChanged__DelegateSignature__18</title>
<path fill="none" stroke="black" d="M2316.17,-823.63C2316.53,-813.84 2316.99,-801.45 2317.41,-790.28"/>
<polygon fill="black" stroke="black" points="2320.9,-790.45 2317.78,-780.33 2313.91,-790.19 2320.9,-790.45"/>
</g>
<!-- BndEvt__Basic_Slider_K2Node_ComponentBoundEvent_9_OnValueChanged__DelegateSignature__18&#45;&gt;ExecuteUbergraph_Options_Chat_FadeTime__249 -->
<g id="edge15" class="edge">
<title>BndEvt__Basic_Slider_K2Node_ComponentBoundEvent_9_OnValueChanged__DelegateSignature__18:e&#45;&gt;ExecuteUbergraph_Options_Chat_FadeTime__249</title>
<path fill="none" stroke="red" d="M2707.5,-760C2743.27,-760 2750.84,-709.73 2751.96,-676.7"/>
<polygon fill="none" stroke="red" points="2755.45,-677 2752.09,-666.95 2748.45,-676.9 2755.45,-677"/>
</g>
<!-- BndEvt__Basic_Slider_K2Node_ComponentBoundEvent_9_OnValueChanged__DelegateSignature__33 -->
<g id="node22" class="node">
<title>BndEvt__Basic_Slider_K2Node_ComponentBoundEvent_9_OnValueChanged__DelegateSignature__33</title>
<polygon fill="#eeeeee" stroke="black" points="2260.5,-628.5 2260.5,-666.5 2376.5,-666.5 2376.5,-628.5 2260.5,-628.5"/>
<text text-anchor="start" x="2268.5" y="-651.3" font-family="monospace" font-size="14.00">EX_Return</text>
<text text-anchor="start" x="2268.5" y="-636.3" font-family="monospace" font-size="14.00">  EX_Nothing</text>
</g>
<!-- BndEvt__Basic_Slider_K2Node_ComponentBoundEvent_9_OnValueChanged__DelegateSignature__18&#45;&gt;BndEvt__Basic_Slider_K2Node_ComponentBoundEvent_9_OnValueChanged__DelegateSignature__33 -->
<g id="edge16" class="edge">
<title>BndEvt__Basic_Slider_K2Node_ComponentBoundEvent_9_OnValueChanged__DelegateSignature__18&#45;&gt;BndEvt__Basic_Slider_K2Node_ComponentBoundEvent_9_OnValueChanged__DelegateSignature__33</title>
<path fill="none" stroke="black" d="M2318.5,-741.25C2318.5,-724.09 2318.5,-697.8 2318.5,-677.58"/>
<polygon fill="black" stroke="black" points="2322,-677.72 2318.5,-667.72 2315,-677.72 2322,-677.72"/>
</g>
<!-- BndEvt__Basic_Slider_K2Node_ComponentBoundEvent_9_OnValueChanged__DelegateSignature__35 -->
<g id="node23" class="node">
<title>BndEvt__Basic_Slider_K2Node_ComponentBoundEvent_9_OnValueChanged__DelegateSignature__35</title>
<polygon fill="#eeeeee" stroke="black" points="3314.5,-75.5 3314.5,-111.5 3446.5,-111.5 3446.5,-75.5 3314.5,-75.5"/>
<text text-anchor="start" x="3322.5" y="-89.8" font-family="monospace" font-size="14.00">EX_EndOfScript</text>
</g>
<!-- Construct -->
<g id="node24" class="node">
<title>Construct</title>
<polygon fill="#ff8888" stroke="black" points="2907,-952 2907,-988 3072,-988 3072,-952 2907,-952"/>
<text text-anchor="start" x="2915" y="-966.3" font-family="monospace" font-size="14.00">Function Construct</text>
</g>
<!-- Construct__0 -->
<g id="node25" class="node">
<title>Construct__0</title>
<polygon fill="#eeeeee" stroke="black" points="2601.5,-823.5 2601.5,-861.5 3377.5,-861.5 3377.5,-823.5 2601.5,-823.5"/>
<text text-anchor="start" x="2609.5" y="-846.3" font-family="monospace" font-size="14.00">EX_LocalFinalFunction export Options_Chat_FadeTime_C&#45;&gt;ExecuteUbergraph_Options_Chat_FadeTime</text>
<text text-anchor="start" x="2609.5" y="-831.3" font-family="monospace" font-size="14.00">  EX_IntConst 10</text>
</g>
<!-- Construct&#45;&gt;Construct__0 -->
<g id="edge17" class="edge">
<title>Construct&#45;&gt;Construct__0</title>
<path fill="none" stroke="black" d="M2989.5,-952.07C2989.5,-931.72 2989.5,-897.22 2989.5,-872.57"/>
<polygon fill="black" stroke="black" points="2993,-872.88 2989.5,-862.88 2986,-872.88 2993,-872.88"/>
</g>
<!-- Construct__0&#45;&gt;ExecuteUbergraph_Options_Chat_FadeTime__10 -->
<g id="edge18" class="edge">
<title>Construct__0:e&#45;&gt;ExecuteUbergraph_Options_Chat_FadeTime__10</title>
<path fill="none" stroke="red" d="M3378.5,-842.5C3397.99,-842.5 3396.22,-818.91 3390.42,-797.11"/>
<polygon fill="none" stroke="red" points="3393.86,-796.38 3387.65,-787.79 3387.15,-798.37 3393.86,-796.38"/>
</g>
<!-- Construct__15 -->
<g id="node26" class="node">
<title>Construct__15</title>
<polygon fill="#eeeeee" stroke="black" points="2929.5,-741 2929.5,-779 3045.5,-779 3045.5,-741 2929.5,-741"/>
<text text-anchor="start" x="2937.5" y="-763.8" font-family="monospace" font-size="14.00">EX_Return</text>
<text text-anchor="start" x="2937.5" y="-748.8" font-family="monospace" font-size="14.00">  EX_Nothing</text>
</g>
<!-- Construct__0&#45;&gt;Construct__15 -->
<g id="edge19" class="edge">
<title>Construct__0&#45;&gt;Construct__15</title>
<path fill="none" stroke="black" d="M2989.06,-823.63C2988.81,-813.84 2988.5,-801.45 2988.23,-790.28"/>
<polygon fill="black" stroke="black" points="2991.73,-790.24 2987.98,-780.33 2984.73,-790.41 2991.73,-790.24"/>
</g>
<!-- Construct__17 -->
<g id="node27" class="node">
<title>Construct__17</title>
<polygon fill="#eeeeee" stroke="black" points="3181.5,-1.5 3181.5,-37.5 3313.5,-37.5 3313.5,-1.5 3181.5,-1.5"/>
<text text-anchor="start" x="3189.5" y="-15.8" font-family="monospace" font-size="14.00">EX_EndOfScript</text>
</g>
</g>
</svg>
