<?xml version="1.0" encoding="UTF-8" standalone="no"?>
<!DOCTYPE svg PUBLIC "-//W3C//DTD SVG 1.1//EN"
 "http://www.w3.org/Graphics/SVG/1.1/DTD/svg11.dtd">
<!-- Generated by graphviz version 7.0.1 (0)
 -->
<!-- Pages: 1 -->
<svg width="3712pt" height="1050pt"
 viewBox="0.00 0.00 3712.00 1050.00" xmlns="http://www.w3.org/2000/svg" xmlns:xlink="http://www.w3.org/1999/xlink">
<g id="graph0" class="graph" transform="scale(1 1) rotate(0) translate(4 1046)">
<polygon fill="white" stroke="none" points="-4,4 -4,-1046 3708,-1046 3708,4 -4,4"/>
<!-- Options_UIScale_Slider_C -->
<g id="node1" class="node">
<title>Options_UIScale_Slider_C</title>
<polygon fill="#88ff88" stroke="black" points="0,-898.5 0,-1041.5 899,-1041.5 899,-898.5 0,-898.5"/>
<text text-anchor="start" x="8" y="-1026.3" font-family="monospace" font-size="14.00">ClassExport: Options_UIScale_Slider_C</text>
<text text-anchor="start" x="8" y="-1011.3" font-family="monospace" font-size="14.00">  SuperStruct: import /Script/FSD&#45;&gt;SoundClassWidget</text>
<text text-anchor="start" x="8" y="-996.3" font-family="monospace" font-size="14.00">  Properties:</text>
<text text-anchor="start" x="8" y="-981.3" font-family="monospace" font-size="14.00">    StructProperty UberGraphFrame</text>
<text text-anchor="start" x="8" y="-966.3" font-family="monospace" font-size="14.00">      CPF_Transient|CPF_DuplicateTransient</text>
<text text-anchor="start" x="8" y="-951.3" font-family="monospace" font-size="14.00">    ObjectProperty Basic_Slider</text>
<text text-anchor="start" x="8" y="-936.3" font-family="monospace" font-size="14.00">      CPF_BlueprintVisible|CPF_ExportObject|CPF_InstancedReference|CPF_RepSkip|CPF_PersistentInstance</text>
<text text-anchor="start" x="8" y="-921.3" font-family="monospace" font-size="14.00">    MulticastInlineDelegateProperty OnVolumeChanged</text>
<text text-anchor="start" x="8" y="-906.3" font-family="monospace" font-size="14.00">      CPF_Edit|CPF_BlueprintVisible|CPF_DisableEditOnInstance|CPF_BlueprintAssignable|CPF_BlueprintCallable</text>
</g>
<!-- OnVolumeChanged__DelegateSignature -->
<g id="node2" class="node">
<title>OnVolumeChanged__DelegateSignature</title>
<polygon fill="#ff8888" stroke="black" points="917.5,-943.5 917.5,-996.5 1387.5,-996.5 1387.5,-943.5 917.5,-943.5"/>
<text text-anchor="start" x="925.5" y="-981.3" font-family="monospace" font-size="14.00">Function OnVolumeChanged__DelegateSignature</text>
<text text-anchor="start" x="925.5" y="-966.3" font-family="monospace" font-size="14.00">  FloatProperty Volume</text>
<text text-anchor="start" x="925.5" y="-951.3" font-family="monospace" font-size="14.00">    CPF_BlueprintVisible|CPF_BlueprintReadOnly|CPF_Parm</text>
</g>
<!-- OnVolumeChanged__DelegateSignature__0 -->
<g id="node3" class="node">
<title>OnVolumeChanged__DelegateSignature__0</title>
<polygon fill="#eeeeee" stroke="black" points="1094.5,-823.5 1094.5,-861.5 1210.5,-861.5 1210.5,-823.5 1094.5,-823.5"/>
<text text-anchor="start" x="1102.5" y="-846.3" font-family="monospace" font-size="14.00">EX_Return</text>
<text text-anchor="start" x="1102.5" y="-831.3" font-family="monospace" font-size="14.00">  EX_Nothing</text>
</g>
<!-- OnVolumeChanged__DelegateSignature&#45;&gt;OnVolumeChanged__DelegateSignature__0 -->
<g id="edge1" class="edge">
<title>OnVolumeChanged__DelegateSignature&#45;&gt;OnVolumeChanged__DelegateSignature__0</title>
<path fill="none" stroke="black" d="M1152.5,-943.6C1152.5,-923.03 1152.5,-894.04 1152.5,-872.54"/>
<polygon fill="black" stroke="black" points="1156,-872.69 1152.5,-862.69 1149,-872.69 1156,-872.69"/>
</g>
<!-- OnVolumeChanged__DelegateSignature__2 -->
<g id="node4" class="node">
<title>OnVolumeChanged__DelegateSignature__2</title>
<polygon fill="#eeeeee" stroke="black" points="2424.5,-269.5 2424.5,-305.5 2556.5,-305.5 2556.5,-269.5 2424.5,-269.5"/>
<text text-anchor="start" x="2432.5" y="-283.8" font-family="monospace" font-size="14.00">EX_EndOfScript</text>
</g>
<!-- ExecuteUbergraph_Options_UIScale_Slider -->
<g id="node5" class="node">
<title>ExecuteUbergraph_Options_UIScale_Slider</title>
<polygon fill="#ff8888" stroke="black" points="1406,-906 1406,-1034 1909,-1034 1909,-906 1406,-906"/>
<text text-anchor="start" x="1414" y="-1018.8" font-family="monospace" font-size="14.00">Function ExecuteUbergraph_Options_UIScale_Slider</text>
<text text-anchor="start" x="1414" y="-1003.8" font-family="monospace" font-size="14.00">  IntProperty EntryPoint</text>
<text text-anchor="start" x="1414" y="-988.8" font-family="monospace" font-size="14.00">    CPF_BlueprintVisible|CPF_BlueprintReadOnly|CPF_Parm</text>
<text text-anchor="start" x="1414" y="-973.8" font-family="monospace" font-size="14.00">  ObjectProperty CallFunc_FSDGameUserSettings_ReturnValue</text>
<text text-anchor="start" x="1414" y="-958.8" font-family="monospace" font-size="14.00">  ObjectProperty CallFunc_FSDGameUserSettings_ReturnValue_1</text>
<text text-anchor="start" x="1414" y="-943.8" font-family="monospace" font-size="14.00">  FloatProperty CallFunc_GetUIDPIScale_ReturnValue</text>
<text text-anchor="start" x="1414" y="-928.8" font-family="monospace" font-size="14.00">  ObjectProperty CallFunc_GetFSDGameInstance_ReturnValue</text>
<text text-anchor="start" x="1414" y="-913.8" font-family="monospace" font-size="14.00">  FloatProperty K2Node_ComponentBoundEvent_Value</text>
</g>
<!-- ExecuteUbergraph_Options_UIScale_Slider__0 -->
<g id="node6" class="node">
<title>ExecuteUbergraph_Options_UIScale_Slider__0</title>
<polygon fill="#eeeeee" stroke="black" points="1521.5,-823.5 1521.5,-861.5 1793.5,-861.5 1793.5,-823.5 1521.5,-823.5"/>
<text text-anchor="start" x="1529.5" y="-846.3" font-family="monospace" font-size="14.00">EX_ComputedJump</text>
<text text-anchor="start" x="1529.5" y="-831.3" font-family="monospace" font-size="14.00">  EX_LocalVariable [EntryPoint]</text>
</g>
<!-- ExecuteUbergraph_Options_UIScale_Slider&#45;&gt;ExecuteUbergraph_Options_UIScale_Slider__0 -->
<g id="edge2" class="edge">
<title>ExecuteUbergraph_Options_UIScale_Slider&#45;&gt;ExecuteUbergraph_Options_UIScale_Slider__0</title>
<path fill="none" stroke="black" d="M1657.5,-906.25C1657.5,-894.57 1657.5,-882.9 1657.5,-872.84"/>
<polygon fill="black" stroke="black" points="1661,-872.99 1657.5,-862.99 1654,-872.99 1661,-872.99"/>
</g>
<!-- ExecuteUbergraph_Options_UIScale_Slider__10 -->
<g id="node7" class="node">
<title>ExecuteUbergraph_Options_UIScale_Slider__10</title>
<polygon fill="#eeeeee" stroke="black" points="3077,-733.5 3077,-786.5 3704,-786.5 3704,-733.5 3077,-733.5"/>
<text text-anchor="start" x="3085" y="-771.3" font-family="monospace" font-size="14.00">EX_LetObj</text>
<text text-anchor="start" x="3085" y="-756.3" font-family="monospace" font-size="14.00">  EX_LocalVariable [CallFunc_FSDGameUserSettings_ReturnValue]</text>
<text text-anchor="start" x="3085" y="-741.3" font-family="monospace" font-size="14.00">  EX_CallMath import /Script/FSD&#45;&gt;FSDGameUserSettings&#45;&gt;FSDGameUserSettings</text>
</g>
<!-- ExecuteUbergraph_Options_UIScale_Slider__30 -->
<g id="node8" class="node">
<title>ExecuteUbergraph_Options_UIScale_Slider__30</title>
<polygon fill="#eeeeee" stroke="black" points="3048,-598.5 3048,-696.5 3683,-696.5 3683,-598.5 3048,-598.5"/>
<text text-anchor="start" x="3056" y="-681.3" font-family="monospace" font-size="14.00">EX_Let</text>
<text text-anchor="start" x="3056" y="-666.3" font-family="monospace" font-size="14.00">  EX_LocalVariable [CallFunc_GetUIDPIScale_ReturnValue]</text>
<text text-anchor="start" x="3056" y="-651.3" font-family="monospace" font-size="14.00">  EX_Context</text>
<text text-anchor="start" x="3056" y="-636.3" font-family="monospace" font-size="14.00">    EX_LocalVariable [CallFunc_FSDGameUserSettings_ReturnValue]</text>
<text text-anchor="start" x="3056" y="-621.3" font-family="monospace" font-size="14.00">    EX_FinalFunction import /Script/FSD&#45;&gt;FSDGameUserSettings&#45;&gt;GetUIDPIScale</text>
<text text-anchor="start" x="3056" y="-606.3" font-family="monospace" font-size="14.00">    RValue = [CallFunc_GetUIDPIScale_ReturnValue]</text>
</g>
<!-- ExecuteUbergraph_Options_UIScale_Slider__10&#45;&gt;ExecuteUbergraph_Options_UIScale_Slider__30 -->
<g id="edge3" class="edge">
<title>ExecuteUbergraph_Options_UIScale_Slider__10&#45;&gt;ExecuteUbergraph_Options_UIScale_Slider__30</title>
<path fill="none" stroke="black" d="M3384.76,-733.65C3382.98,-725.77 3380.94,-716.72 3378.86,-707.54"/>
<polygon fill="black" stroke="black" points="3382.28,-706.79 3376.66,-697.81 3375.45,-708.34 3382.28,-706.79"/>
</g>
<!-- ExecuteUbergraph_Options_UIScale_Slider__80 -->
<g id="node9" class="node">
<title>ExecuteUbergraph_Options_UIScale_Slider__80</title>
<polygon fill="#eeeeee" stroke="black" points="3118,-478.5 3118,-561.5 3605,-561.5 3605,-478.5 3118,-478.5"/>
<text text-anchor="start" x="3126" y="-546.3" font-family="monospace" font-size="14.00">EX_Context</text>
<text text-anchor="start" x="3126" y="-531.3" font-family="monospace" font-size="14.00">  EX_InstanceVariable [Basic_Slider]</text>
<text text-anchor="start" x="3126" y="-516.3" font-family="monospace" font-size="14.00">  EX_LocalVirtualFunction Set Value</text>
<text text-anchor="start" x="3126" y="-501.3" font-family="monospace" font-size="14.00">    EX_LocalVariable [CallFunc_GetUIDPIScale_ReturnValue]</text>
<text text-anchor="start" x="3126" y="-486.3" font-family="monospace" font-size="14.00">  RValue = []</text>
</g>
<!-- ExecuteUbergraph_Options_UIScale_Slider__30&#45;&gt;ExecuteUbergraph_Options_UIScale_Slider__80 -->
<g id="edge4" class="edge">
<title>ExecuteUbergraph_Options_UIScale_Slider__30&#45;&gt;ExecuteUbergraph_Options_UIScale_Slider__80</title>
<path fill="none" stroke="black" d="M3363.98,-598.7C3363.71,-590.22 3363.42,-581.36 3363.15,-572.77"/>
<polygon fill="black" stroke="black" points="3366.65,-572.71 3362.83,-562.82 3359.65,-572.93 3366.65,-572.71"/>
</g>
<!-- ExecuteUbergraph_Options_UIScale_Slider__125 -->
<g id="node10" class="node">
<title>ExecuteUbergraph_Options_UIScale_Slider__125</title>
<polygon fill="#eeeeee" stroke="black" points="3252,-382 3252,-418 3359,-418 3359,-382 3252,-382"/>
<text text-anchor="start" x="3260" y="-396.3" font-family="monospace" font-size="14.00">EX_Jump 254</text>
</g>
<!-- ExecuteUbergraph_Options_UIScale_Slider__80&#45;&gt;ExecuteUbergraph_Options_UIScale_Slider__125 -->
<g id="edge5" class="edge">
<title>ExecuteUbergraph_Options_UIScale_Slider__80&#45;&gt;ExecuteUbergraph_Options_UIScale_Slider__125</title>
<path fill="none" stroke="black" d="M3342.38,-478.72C3334.43,-461.96 3325.41,-442.95 3318.28,-427.92"/>
<polygon fill="black" stroke="black" points="3321.56,-426.68 3314.11,-419.14 3315.24,-429.68 3321.56,-426.68"/>
</g>
<!-- ExecuteUbergraph_Options_UIScale_Slider__254 -->
<g id="node17" class="node">
<title>ExecuteUbergraph_Options_UIScale_Slider__254</title>
<polygon fill="#eeeeee" stroke="black" points="3057.5,-0.5 3057.5,-38.5 3173.5,-38.5 3173.5,-0.5 3057.5,-0.5"/>
<text text-anchor="start" x="3065.5" y="-23.3" font-family="monospace" font-size="14.00">EX_Return</text>
<text text-anchor="start" x="3065.5" y="-8.3" font-family="monospace" font-size="14.00">  EX_Nothing</text>
</g>
<!-- ExecuteUbergraph_Options_UIScale_Slider__125&#45;&gt;ExecuteUbergraph_Options_UIScale_Slider__254 -->
<g id="edge6" class="edge">
<title>ExecuteUbergraph_Options_UIScale_Slider__125&#45;&gt;ExecuteUbergraph_Options_UIScale_Slider__254</title>
<path fill="none" stroke="black" d="M3306.17,-382.19C3307.11,-339.9 3304.97,-226.86 3260.5,-148 3235.47,-103.62 3189.05,-66.99 3155.46,-44.56"/>
<polygon fill="black" stroke="black" points="3157.48,-41.69 3147.19,-39.16 3153.65,-47.56 3157.48,-41.69"/>
</g>
<!-- ExecuteUbergraph_Options_UIScale_Slider__130 -->
<g id="node11" class="node">
<title>ExecuteUbergraph_Options_UIScale_Slider__130</title>
<polygon fill="#eeeeee" stroke="black" points="2466,-493.5 2466,-546.5 3093,-546.5 3093,-493.5 2466,-493.5"/>
<text text-anchor="start" x="2474" y="-531.3" font-family="monospace" font-size="14.00">EX_LetObj</text>
<text text-anchor="start" x="2474" y="-516.3" font-family="monospace" font-size="14.00">  EX_LocalVariable [CallFunc_FSDGameUserSettings_ReturnValue_1]</text>
<text text-anchor="start" x="2474" y="-501.3" font-family="monospace" font-size="14.00">  EX_CallMath import /Script/FSD&#45;&gt;FSDGameUserSettings&#45;&gt;FSDGameUserSettings</text>
</g>
<!-- ExecuteUbergraph_Options_UIScale_Slider__150 -->
<g id="node12" class="node">
<title>ExecuteUbergraph_Options_UIScale_Slider__150</title>
<polygon fill="#eeeeee" stroke="black" points="2567,-358.5 2567,-441.5 3186,-441.5 3186,-358.5 2567,-358.5"/>
<text text-anchor="start" x="2575" y="-426.3" font-family="monospace" font-size="14.00">EX_Context</text>
<text text-anchor="start" x="2575" y="-411.3" font-family="monospace" font-size="14.00">  EX_LocalVariable [CallFunc_FSDGameUserSettings_ReturnValue_1]</text>
<text text-anchor="start" x="2575" y="-396.3" font-family="monospace" font-size="14.00">  EX_FinalFunction import /Script/FSD&#45;&gt;FSDGameUserSettings&#45;&gt;SetUIDPIScale</text>
<text text-anchor="start" x="2575" y="-381.3" font-family="monospace" font-size="14.00">    EX_LocalVariable [K2Node_ComponentBoundEvent_Value]</text>
<text text-anchor="start" x="2575" y="-366.3" font-family="monospace" font-size="14.00">  RValue = []</text>
</g>
<!-- ExecuteUbergraph_Options_UIScale_Slider__130&#45;&gt;ExecuteUbergraph_Options_UIScale_Slider__150 -->
<g id="edge7" class="edge">
<title>ExecuteUbergraph_Options_UIScale_Slider__130&#45;&gt;ExecuteUbergraph_Options_UIScale_Slider__150</title>
<path fill="none" stroke="black" d="M2800.31,-493.69C2810.83,-480.89 2823.95,-464.92 2836.34,-449.86"/>
<polygon fill="black" stroke="black" points="2838.91,-452.24 2842.55,-442.29 2833.5,-447.8 2838.91,-452.24"/>
</g>
<!-- ExecuteUbergraph_Options_UIScale_Slider__191 -->
<g id="node13" class="node">
<title>ExecuteUbergraph_Options_UIScale_Slider__191</title>
<polygon fill="#eeeeee" stroke="black" points="2575,-253.5 2575,-321.5 3194,-321.5 3194,-253.5 2575,-253.5"/>
<text text-anchor="start" x="2583" y="-306.3" font-family="monospace" font-size="14.00">EX_LetObj</text>
<text text-anchor="start" x="2583" y="-291.3" font-family="monospace" font-size="14.00">  EX_LocalVariable [CallFunc_GetFSDGameInstance_ReturnValue]</text>
<text text-anchor="start" x="2583" y="-276.3" font-family="monospace" font-size="14.00">  EX_CallMath import /Script/FSD&#45;&gt;GameFunctionLibrary&#45;&gt;GetFSDGameInstance</text>
<text text-anchor="start" x="2583" y="-261.3" font-family="monospace" font-size="14.00">    EX_Self</text>
</g>
<!-- ExecuteUbergraph_Options_UIScale_Slider__150&#45;&gt;ExecuteUbergraph_Options_UIScale_Slider__191 -->
<g id="edge8" class="edge">
<title>ExecuteUbergraph_Options_UIScale_Slider__150&#45;&gt;ExecuteUbergraph_Options_UIScale_Slider__191</title>
<path fill="none" stroke="black" d="M2879.41,-358.79C2880.03,-350.31 2880.68,-341.31 2881.3,-332.69"/>
<polygon fill="black" stroke="black" points="2884.79,-332.98 2882.02,-322.76 2877.81,-332.48 2884.79,-332.98"/>
</g>
<!-- ExecuteUbergraph_Options_UIScale_Slider__212 -->
<g id="node14" class="node">
<title>ExecuteUbergraph_Options_UIScale_Slider__212</title>
<polygon fill="#eeeeee" stroke="black" points="2583.5,-148.5 2583.5,-216.5 3251.5,-216.5 3251.5,-148.5 2583.5,-148.5"/>
<text text-anchor="start" x="2591.5" y="-201.3" font-family="monospace" font-size="14.00">EX_Context</text>
<text text-anchor="start" x="2591.5" y="-186.3" font-family="monospace" font-size="14.00">  EX_LocalVariable [CallFunc_GetFSDGameInstance_ReturnValue]</text>
<text text-anchor="start" x="2591.5" y="-171.3" font-family="monospace" font-size="14.00">  EX_FinalFunction import /Script/FSD&#45;&gt;FSDGameInstance&#45;&gt;GameUserSettingsChanged</text>
<text text-anchor="start" x="2591.5" y="-156.3" font-family="monospace" font-size="14.00">  RValue = []</text>
</g>
<!-- ExecuteUbergraph_Options_UIScale_Slider__191&#45;&gt;ExecuteUbergraph_Options_UIScale_Slider__212 -->
<g id="edge9" class="edge">
<title>ExecuteUbergraph_Options_UIScale_Slider__191&#45;&gt;ExecuteUbergraph_Options_UIScale_Slider__212</title>
<path fill="none" stroke="black" d="M2895.03,-253.63C2897.71,-245.26 2900.63,-236.15 2903.46,-227.33"/>
<polygon fill="black" stroke="black" points="2906.77,-228.45 2906.49,-217.86 2900.11,-226.31 2906.77,-228.45"/>
</g>
<!-- ExecuteUbergraph_Options_UIScale_Slider__244 -->
<g id="node15" class="node">
<title>ExecuteUbergraph_Options_UIScale_Slider__244</title>
<polygon fill="#eeeeee" stroke="black" points="3021,-75.5 3021,-111.5 3128,-111.5 3128,-75.5 3021,-75.5"/>
<text text-anchor="start" x="3029" y="-89.8" font-family="monospace" font-size="14.00">EX_Jump 254</text>
</g>
<!-- ExecuteUbergraph_Options_UIScale_Slider__212&#45;&gt;ExecuteUbergraph_Options_UIScale_Slider__244 -->
<g id="edge10" class="edge">
<title>ExecuteUbergraph_Options_UIScale_Slider__212&#45;&gt;ExecuteUbergraph_Options_UIScale_Slider__244</title>
<path fill="none" stroke="black" d="M2976.85,-148.61C2996.02,-137.99 3016.8,-126.47 3034.25,-116.8"/>
<polygon fill="black" stroke="black" points="3035.73,-119.99 3042.78,-112.08 3032.33,-113.86 3035.73,-119.99"/>
</g>
<!-- ExecuteUbergraph_Options_UIScale_Slider__244&#45;&gt;ExecuteUbergraph_Options_UIScale_Slider__254 -->
<g id="edge11" class="edge">
<title>ExecuteUbergraph_Options_UIScale_Slider__244&#45;&gt;ExecuteUbergraph_Options_UIScale_Slider__254</title>
<path fill="none" stroke="black" d="M3084.01,-75.8C3088.65,-67.65 3094.36,-57.63 3099.63,-48.36"/>
<polygon fill="black" stroke="black" points="3102.67,-50.1 3104.58,-39.68 3096.59,-46.64 3102.67,-50.1"/>
</g>
<!-- ExecuteUbergraph_Options_UIScale_Slider__249 -->
<g id="node16" class="node">
<title>ExecuteUbergraph_Options_UIScale_Slider__249</title>
<polygon fill="#eeeeee" stroke="black" points="2712,-629.5 2712,-665.5 2819,-665.5 2819,-629.5 2712,-629.5"/>
<text text-anchor="start" x="2720" y="-643.8" font-family="monospace" font-size="14.00">EX_Jump 130</text>
</g>
<!-- ExecuteUbergraph_Options_UIScale_Slider__249&#45;&gt;ExecuteUbergraph_Options_UIScale_Slider__130 -->
<g id="edge12" class="edge">
<title>ExecuteUbergraph_Options_UIScale_Slider__249&#45;&gt;ExecuteUbergraph_Options_UIScale_Slider__130</title>
<path fill="none" stroke="black" d="M2767.39,-629.57C2769.43,-611.26 2772.75,-581.49 2775.4,-557.75"/>
<polygon fill="black" stroke="black" points="2778.88,-558.15 2776.51,-547.83 2771.92,-557.38 2778.88,-558.15"/>
</g>
<!-- ExecuteUbergraph_Options_UIScale_Slider__256 -->
<g id="node18" class="node">
<title>ExecuteUbergraph_Options_UIScale_Slider__256</title>
<polygon fill="#eeeeee" stroke="black" points="3324.5,-164.5 3324.5,-200.5 3456.5,-200.5 3456.5,-164.5 3324.5,-164.5"/>
<text text-anchor="start" x="3332.5" y="-178.8" font-family="monospace" font-size="14.00">EX_EndOfScript</text>
</g>
<!-- BndEvt__Basic_Slider_K2Node_ComponentBoundEvent_9_OnValueChanged__DelegateSignature -->
<g id="node19" class="node">
<title>BndEvt__Basic_Slider_K2Node_ComponentBoundEvent_9_OnValueChanged__DelegateSignature</title>
<polygon fill="#ff8888" stroke="black" points="1927.5,-943.5 1927.5,-996.5 2703.5,-996.5 2703.5,-943.5 1927.5,-943.5"/>
<text text-anchor="start" x="1935.5" y="-981.3" font-family="monospace" font-size="14.00">Function BndEvt__Basic_Slider_K2Node_ComponentBoundEvent_9_OnValueChanged__DelegateSignature</text>
<text text-anchor="start" x="1935.5" y="-966.3" font-family="monospace" font-size="14.00">  FloatProperty Value</text>
<text text-anchor="start" x="1935.5" y="-951.3" font-family="monospace" font-size="14.00">    CPF_BlueprintVisible|CPF_BlueprintReadOnly|CPF_Parm</text>
</g>
<!-- BndEvt__Basic_Slider_K2Node_ComponentBoundEvent_9_OnValueChanged__DelegateSignature__0 -->
<g id="node20" class="node">
<title>BndEvt__Basic_Slider_K2Node_ComponentBoundEvent_9_OnValueChanged__DelegateSignature__0</title>
<polygon fill="#eeeeee" stroke="black" points="2047.5,-823.5 2047.5,-861.5 2583.5,-861.5 2583.5,-823.5 2047.5,-823.5"/>
<text text-anchor="start" x="2055.5" y="-846.3" font-family="monospace" font-size="14.00">EX_LetValueOnPersistentFrame [K2Node_ComponentBoundEvent_Value]</text>
<text text-anchor="start" x="2055.5" y="-831.3" font-family="monospace" font-size="14.00">  EX_LocalVariable [Value]</text>
</g>
<!-- BndEvt__Basic_Slider_K2Node_ComponentBoundEvent_9_OnValueChanged__DelegateSignature&#45;&gt;BndEvt__Basic_Slider_K2Node_ComponentBoundEvent_9_OnValueChanged__DelegateSignature__0 -->
<g id="edge13" class="edge">
<title>BndEvt__Basic_Slider_K2Node_ComponentBoundEvent_9_OnValueChanged__DelegateSignature&#45;&gt;BndEvt__Basic_Slider_K2Node_ComponentBoundEvent_9_OnValueChanged__DelegateSignature__0</title>
<path fill="none" stroke="black" d="M2315.5,-943.6C2315.5,-923.03 2315.5,-894.04 2315.5,-872.54"/>
<polygon fill="black" stroke="black" points="2319,-872.69 2315.5,-862.69 2312,-872.69 2319,-872.69"/>
</g>
<!-- BndEvt__Basic_Slider_K2Node_ComponentBoundEvent_9_OnValueChanged__DelegateSignature__18 -->
<g id="node21" class="node">
<title>BndEvt__Basic_Slider_K2Node_ComponentBoundEvent_9_OnValueChanged__DelegateSignature__18</title>
<polygon fill="#eeeeee" stroke="black" points="1923.5,-741 1923.5,-779 2715.5,-779 2715.5,-741 1923.5,-741"/>
<text text-anchor="start" x="1931.5" y="-763.8" font-family="monospace" font-size="14.00">EX_LocalFinalFunction export Options_UIScale_Slider_C&#45;&gt;ExecuteUbergraph_Options_UIScale_Slider</text>
<text text-anchor="start" x="1931.5" y="-748.8" font-family="monospace" font-size="14.00">  EX_IntConst 249</text>
</g>
<!-- BndEvt__Basic_Slider_K2Node_ComponentBoundEvent_9_OnValueChanged__DelegateSignature__0&#45;&gt;BndEvt__Basic_Slider_K2Node_ComponentBoundEvent_9_OnValueChanged__DelegateSignature__18 -->
<g id="edge14" class="edge">
<title>BndEvt__Basic_Slider_K2Node_ComponentBoundEvent_9_OnValueChanged__DelegateSignature__0&#45;&gt;BndEvt__Basic_Slider_K2Node_ComponentBoundEvent_9_OnValueChanged__DelegateSignature__18</title>
<path fill="none" stroke="black" d="M2316.39,-823.63C2316.87,-813.84 2317.49,-801.45 2318.05,-790.28"/>
<polygon fill="black" stroke="black" points="2321.54,-790.49 2318.54,-780.33 2314.55,-790.14 2321.54,-790.49"/>
</g>
<!-- BndEvt__Basic_Slider_K2Node_ComponentBoundEvent_9_OnValueChanged__DelegateSignature__18&#45;&gt;ExecuteUbergraph_Options_UIScale_Slider__249 -->
<g id="edge15" class="edge">
<title>BndEvt__Basic_Slider_K2Node_ComponentBoundEvent_9_OnValueChanged__DelegateSignature__18:e&#45;&gt;ExecuteUbergraph_Options_UIScale_Slider__249</title>
<path fill="none" stroke="red" d="M2716.5,-760C2752.85,-760 2762.47,-709.73 2764.88,-676.7"/>
<polygon fill="none" stroke="red" points="2768.36,-677.12 2765.39,-666.95 2761.37,-676.75 2768.36,-677.12"/>
</g>
<!-- BndEvt__Basic_Slider_K2Node_ComponentBoundEvent_9_OnValueChanged__DelegateSignature__33 -->
<g id="node22" class="node">
<title>BndEvt__Basic_Slider_K2Node_ComponentBoundEvent_9_OnValueChanged__DelegateSignature__33</title>
<polygon fill="#eeeeee" stroke="black" points="2261.5,-628.5 2261.5,-666.5 2377.5,-666.5 2377.5,-628.5 2261.5,-628.5"/>
<text text-anchor="start" x="2269.5" y="-651.3" font-family="monospace" font-size="14.00">EX_Return</text>
<text text-anchor="start" x="2269.5" y="-636.3" font-family="monospace" font-size="14.00">  EX_Nothing</text>
</g>
<!-- BndEvt__Basic_Slider_K2Node_ComponentBoundEvent_9_OnValueChanged__DelegateSignature__18&#45;&gt;BndEvt__Basic_Slider_K2Node_ComponentBoundEvent_9_OnValueChanged__DelegateSignature__33 -->
<g id="edge16" class="edge">
<title>BndEvt__Basic_Slider_K2Node_ComponentBoundEvent_9_OnValueChanged__DelegateSignature__18&#45;&gt;BndEvt__Basic_Slider_K2Node_ComponentBoundEvent_9_OnValueChanged__DelegateSignature__33</title>
<path fill="none" stroke="black" d="M2319.5,-741.25C2319.5,-724.09 2319.5,-697.8 2319.5,-677.58"/>
<polygon fill="black" stroke="black" points="2323,-677.72 2319.5,-667.72 2316,-677.72 2323,-677.72"/>
</g>
<!-- BndEvt__Basic_Slider_K2Node_ComponentBoundEvent_9_OnValueChanged__DelegateSignature__35 -->
<g id="node23" class="node">
<title>BndEvt__Basic_Slider_K2Node_ComponentBoundEvent_9_OnValueChanged__DelegateSignature__35</title>
<polygon fill="#eeeeee" stroke="black" points="3324.5,-75.5 3324.5,-111.5 3456.5,-111.5 3456.5,-75.5 3324.5,-75.5"/>
<text text-anchor="start" x="3332.5" y="-89.8" font-family="monospace" font-size="14.00">EX_EndOfScript</text>
</g>
<!-- Construct -->
<g id="node24" class="node">
<title>Construct</title>
<polygon fill="#ff8888" stroke="black" points="2915,-952 2915,-988 3080,-988 3080,-952 2915,-952"/>
<text text-anchor="start" x="2923" y="-966.3" font-family="monospace" font-size="14.00">Function Construct</text>
</g>
<!-- Construct__0 -->
<g id="node25" class="node">
<title>Construct__0</title>
<polygon fill="#eeeeee" stroke="black" points="2601.5,-823.5 2601.5,-861.5 3393.5,-861.5 3393.5,-823.5 2601.5,-823.5"/>
<text text-anchor="start" x="2609.5" y="-846.3" font-family="monospace" font-size="14.00">EX_LocalFinalFunction export Options_UIScale_Slider_C&#45;&gt;ExecuteUbergraph_Options_UIScale_Slider</text>
<text text-anchor="start" x="2609.5" y="-831.3" font-family="monospace" font-size="14.00">  EX_IntConst 10</text>
</g>
<!-- Construct&#45;&gt;Construct__0 -->
<g id="edge17" class="edge">
<title>Construct&#45;&gt;Construct__0</title>
<path fill="none" stroke="black" d="M2997.5,-952.07C2997.5,-931.72 2997.5,-897.22 2997.5,-872.57"/>
<polygon fill="black" stroke="black" points="3001,-872.88 2997.5,-862.88 2994,-872.88 3001,-872.88"/>
</g>
<!-- Construct__0&#45;&gt;ExecuteUbergraph_Options_UIScale_Slider__10 -->
<g id="edge18" class="edge">
<title>Construct__0:e&#45;&gt;ExecuteUbergraph_Options_UIScale_Slider__10</title>
<path fill="none" stroke="red" d="M3394.5,-842.5C3414.01,-842.5 3411.37,-818.91 3404.77,-797.11"/>
<polygon fill="none" stroke="red" points="3408.13,-796.15 3401.65,-787.78 3401.5,-798.37 3408.13,-796.15"/>
</g>
<!-- Construct__15 -->
<g id="node26" class="node">
<title>Construct__15</title>
<polygon fill="#eeeeee" stroke="black" points="2939.5,-741 2939.5,-779 3055.5,-779 3055.5,-741 2939.5,-741"/>
<text text-anchor="start" x="2947.5" y="-763.8" font-family="monospace" font-size="14.00">EX_Return</text>
<text text-anchor="start" x="2947.5" y="-748.8" font-family="monospace" font-size="14.00">  EX_Nothing</text>
</g>
<!-- Construct__0&#45;&gt;Construct__15 -->
<g id="edge19" class="edge">
<title>Construct__0&#45;&gt;Construct__15</title>
<path fill="none" stroke="black" d="M2997.5,-823.63C2997.5,-813.84 2997.5,-801.45 2997.5,-790.28"/>
<polygon fill="black" stroke="black" points="3001,-790.33 2997.5,-780.33 2994,-790.33 3001,-790.33"/>
</g>
<!-- Construct__17 -->
<g id="node27" class="node">
<title>Construct__17</title>
<polygon fill="#eeeeee" stroke="black" points="3191.5,-1.5 3191.5,-37.5 3323.5,-37.5 3323.5,-1.5 3191.5,-1.5"/>
<text text-anchor="start" x="3199.5" y="-15.8" font-family="monospace" font-size="14.00">EX_EndOfScript</text>
</g>
</g>
</svg>
