<?xml version="1.0" encoding="UTF-8" standalone="no"?>
<!DOCTYPE svg PUBLIC "-//W3C//DTD SVG 1.1//EN"
 "http://www.w3.org/Graphics/SVG/1.1/DTD/svg11.dtd">
<!-- Generated by graphviz version 7.0.1 (0)
 -->
<!-- Pages: 1 -->
<svg width="2713pt" height="705pt"
 viewBox="0.00 0.00 2713.00 705.00" xmlns="http://www.w3.org/2000/svg" xmlns:xlink="http://www.w3.org/1999/xlink">
<g id="graph0" class="graph" transform="scale(1 1) rotate(0) translate(4 701)">
<polygon fill="white" stroke="none" points="-4,4 -4,-701 2709,-701 2709,4 -4,4"/>
<!-- Options_RestoreSave_C -->
<g id="node1" class="node">
<title>Options_RestoreSave_C</title>
<polygon fill="#88ff88" stroke="black" points="0,-583.5 0,-696.5 850,-696.5 850,-583.5 0,-583.5"/>
<text text-anchor="start" x="8" y="-681.3" font-family="monospace" font-size="14.00">ClassExport: Options_RestoreSave_C</text>
<text text-anchor="start" x="8" y="-666.3" font-family="monospace" font-size="14.00">  SuperStruct: import /Script/UMG&#45;&gt;UserWidget</text>
<text text-anchor="start" x="8" y="-651.3" font-family="monospace" font-size="14.00">  Properties:</text>
<text text-anchor="start" x="8" y="-636.3" font-family="monospace" font-size="14.00">    StructProperty UberGraphFrame</text>
<text text-anchor="start" x="8" y="-621.3" font-family="monospace" font-size="14.00">      CPF_Transient|CPF_DuplicateTransient</text>
<text text-anchor="start" x="8" y="-606.3" font-family="monospace" font-size="14.00">    ObjectProperty Basic_ButtonWithControls</text>
<text text-anchor="start" x="8" y="-591.3" font-family="monospace" font-size="14.00">      CPF_BlueprintVisible|CPF_ExportObject|CPF_InstancedReference|CPF_RepSkip|CPF_PersistentInstance</text>
</g>
<!-- ExecuteUbergraph_Options_RestoreSave -->
<g id="node2" class="node">
<title>ExecuteUbergraph_Options_RestoreSave</title>
<polygon fill="#ff8888" stroke="black" points="868.5,-583.5 868.5,-696.5 1355.5,-696.5 1355.5,-583.5 868.5,-583.5"/>
<text text-anchor="start" x="876.5" y="-681.3" font-family="monospace" font-size="14.00">Function ExecuteUbergraph_Options_RestoreSave</text>
<text text-anchor="start" x="876.5" y="-666.3" font-family="monospace" font-size="14.00">  IntProperty EntryPoint</text>
<text text-anchor="start" x="876.5" y="-651.3" font-family="monospace" font-size="14.00">    CPF_BlueprintVisible|CPF_BlueprintReadOnly|CPF_Parm</text>
<text text-anchor="start" x="876.5" y="-636.3" font-family="monospace" font-size="14.00">  ObjectProperty CallFunc_GetWindowManager_ReturnValue</text>
<text text-anchor="start" x="876.5" y="-621.3" font-family="monospace" font-size="14.00">    CPF_InstancedReference</text>
<text text-anchor="start" x="876.5" y="-606.3" font-family="monospace" font-size="14.00">  ObjectProperty CallFunc_OpenWindowFromClass_ReturnValue</text>
<text text-anchor="start" x="876.5" y="-591.3" font-family="monospace" font-size="14.00">    CPF_InstancedReference</text>
</g>
<!-- ExecuteUbergraph_Options_RestoreSave__0 -->
<g id="node3" class="node">
<title>ExecuteUbergraph_Options_RestoreSave__0</title>
<polygon fill="#eeeeee" stroke="black" points="976,-508.5 976,-546.5 1248,-546.5 1248,-508.5 976,-508.5"/>
<text text-anchor="start" x="984" y="-531.3" font-family="monospace" font-size="14.00">EX_ComputedJump</text>
<text text-anchor="start" x="984" y="-516.3" font-family="monospace" font-size="14.00">  EX_LocalVariable [EntryPoint]</text>
</g>
<!-- ExecuteUbergraph_Options_RestoreSave&#45;&gt;ExecuteUbergraph_Options_RestoreSave__0 -->
<g id="edge1" class="edge">
<title>ExecuteUbergraph_Options_RestoreSave&#45;&gt;ExecuteUbergraph_Options_RestoreSave__0</title>
<path fill="none" stroke="black" d="M1112,-583.75C1112,-574.72 1112,-565.69 1112,-557.63"/>
<polygon fill="black" stroke="black" points="1115.5,-557.77 1112,-547.77 1108.5,-557.77 1115.5,-557.77"/>
</g>
<!-- ExecuteUbergraph_Options_RestoreSave__10 -->
<g id="node4" class="node">
<title>ExecuteUbergraph_Options_RestoreSave__10</title>
<polygon fill="#eeeeee" stroke="black" points="1866,-328.5 1866,-396.5 2468,-396.5 2468,-328.5 1866,-328.5"/>
<text text-anchor="start" x="1874" y="-381.3" font-family="monospace" font-size="14.00">EX_LetObj</text>
<text text-anchor="start" x="1874" y="-366.3" font-family="monospace" font-size="14.00">  EX_LocalVariable [CallFunc_GetWindowManager_ReturnValue]</text>
<text text-anchor="start" x="1874" y="-351.3" font-family="monospace" font-size="14.00">  EX_CallMath import /Script/FSD&#45;&gt;GameFunctionLibrary&#45;&gt;GetWindowManager</text>
<text text-anchor="start" x="1874" y="-336.3" font-family="monospace" font-size="14.00">    EX_Self</text>
</g>
<!-- ExecuteUbergraph_Options_RestoreSave__31 -->
<g id="node5" class="node">
<title>ExecuteUbergraph_Options_RestoreSave__31</title>
<polygon fill="#eeeeee" stroke="black" points="1779,-148.5 1779,-291.5 2555,-291.5 2555,-148.5 1779,-148.5"/>
<text text-anchor="start" x="1787" y="-276.3" font-family="monospace" font-size="14.00">EX_LetObj</text>
<text text-anchor="start" x="1787" y="-261.3" font-family="monospace" font-size="14.00">  EX_LocalVariable [CallFunc_OpenWindowFromClass_ReturnValue]</text>
<text text-anchor="start" x="1787" y="-246.3" font-family="monospace" font-size="14.00">  EX_Context</text>
<text text-anchor="start" x="1787" y="-231.3" font-family="monospace" font-size="14.00">    EX_LocalVariable [CallFunc_GetWindowManager_ReturnValue]</text>
<text text-anchor="start" x="1787" y="-216.3" font-family="monospace" font-size="14.00">    EX_FinalFunction import /Script/FSD&#45;&gt;WindowManager&#45;&gt;OpenWindowFromClass</text>
<text text-anchor="start" x="1787" y="-201.3" font-family="monospace" font-size="14.00">      EX_ObjectConst import /Game/UI/Menu_RestoreSave/Menu_RestoreSaves&#45;&gt;Menu_RestoreSaves_C</text>
<text text-anchor="start" x="1787" y="-186.3" font-family="monospace" font-size="14.00">      EX_IntConst 300</text>
<text text-anchor="start" x="1787" y="-171.3" font-family="monospace" font-size="14.00">      EX_True</text>
<text text-anchor="start" x="1787" y="-156.3" font-family="monospace" font-size="14.00">    RValue = [CallFunc_OpenWindowFromClass_ReturnValue]</text>
</g>
<!-- ExecuteUbergraph_Options_RestoreSave__10&#45;&gt;ExecuteUbergraph_Options_RestoreSave__31 -->
<g id="edge2" class="edge">
<title>ExecuteUbergraph_Options_RestoreSave__10&#45;&gt;ExecuteUbergraph_Options_RestoreSave__31</title>
<path fill="none" stroke="black" d="M2167,-328.56C2167,-320.69 2167,-311.94 2167,-302.92"/>
<polygon fill="black" stroke="black" points="2170.5,-302.93 2167,-292.93 2163.5,-302.93 2170.5,-302.93"/>
</g>
<!-- ExecuteUbergraph_Options_RestoreSave__88 -->
<g id="node6" class="node">
<title>ExecuteUbergraph_Options_RestoreSave__88</title>
<polygon fill="#eeeeee" stroke="black" points="2117.5,-75.5 2117.5,-111.5 2216.5,-111.5 2216.5,-75.5 2117.5,-75.5"/>
<text text-anchor="start" x="2125.5" y="-89.8" font-family="monospace" font-size="14.00">EX_Jump 98</text>
</g>
<!-- ExecuteUbergraph_Options_RestoreSave__31&#45;&gt;ExecuteUbergraph_Options_RestoreSave__88 -->
<g id="edge3" class="edge">
<title>ExecuteUbergraph_Options_RestoreSave__31&#45;&gt;ExecuteUbergraph_Options_RestoreSave__88</title>
<path fill="none" stroke="black" d="M2167,-148.75C2167,-139.48 2167,-130.45 2167,-122.51"/>
<polygon fill="black" stroke="black" points="2170.5,-122.55 2167,-112.55 2163.5,-122.55 2170.5,-122.55"/>
</g>
<!-- ExecuteUbergraph_Options_RestoreSave__98 -->
<g id="node8" class="node">
<title>ExecuteUbergraph_Options_RestoreSave__98</title>
<polygon fill="#eeeeee" stroke="black" points="2109,-0.5 2109,-38.5 2225,-38.5 2225,-0.5 2109,-0.5"/>
<text text-anchor="start" x="2117" y="-23.3" font-family="monospace" font-size="14.00">EX_Return</text>
<text text-anchor="start" x="2117" y="-8.3" font-family="monospace" font-size="14.00">  EX_Nothing</text>
</g>
<!-- ExecuteUbergraph_Options_RestoreSave__88&#45;&gt;ExecuteUbergraph_Options_RestoreSave__98 -->
<g id="edge4" class="edge">
<title>ExecuteUbergraph_Options_RestoreSave__88&#45;&gt;ExecuteUbergraph_Options_RestoreSave__98</title>
<path fill="none" stroke="black" d="M2167,-75.8C2167,-68.09 2167,-58.7 2167,-49.86"/>
<polygon fill="black" stroke="black" points="2170.5,-49.88 2167,-39.88 2163.5,-49.88 2170.5,-49.88"/>
</g>
<!-- ExecuteUbergraph_Options_RestoreSave__93 -->
<g id="node7" class="node">
<title>ExecuteUbergraph_Options_RestoreSave__93</title>
<polygon fill="#eeeeee" stroke="black" points="2117.5,-434.5 2117.5,-470.5 2216.5,-470.5 2216.5,-434.5 2117.5,-434.5"/>
<text text-anchor="start" x="2125.5" y="-448.8" font-family="monospace" font-size="14.00">EX_Jump 10</text>
</g>
<!-- ExecuteUbergraph_Options_RestoreSave__93&#45;&gt;ExecuteUbergraph_Options_RestoreSave__10 -->
<g id="edge5" class="edge">
<title>ExecuteUbergraph_Options_RestoreSave__93&#45;&gt;ExecuteUbergraph_Options_RestoreSave__10</title>
<path fill="none" stroke="black" d="M2167,-434.53C2167,-426.86 2167,-417.4 2167,-407.92"/>
<polygon fill="black" stroke="black" points="2170.5,-407.97 2167,-397.97 2163.5,-407.97 2170.5,-407.97"/>
</g>
<!-- ExecuteUbergraph_Options_RestoreSave__100 -->
<g id="node9" class="node">
<title>ExecuteUbergraph_Options_RestoreSave__100</title>
<polygon fill="#eeeeee" stroke="black" points="2486,-344.5 2486,-380.5 2618,-380.5 2618,-344.5 2486,-344.5"/>
<text text-anchor="start" x="2494" y="-358.8" font-family="monospace" font-size="14.00">EX_EndOfScript</text>
</g>
<!-- BndEvt__Basic_ButtonWithControls_K2Node_ComponentBoundEvent_21_OnClicked__DelegateSignature -->
<g id="node10" class="node">
<title>BndEvt__Basic_ButtonWithControls_K2Node_ComponentBoundEvent_21_OnClicked__DelegateSignature</title>
<polygon fill="#ff8888" stroke="black" points="1374,-622 1374,-658 2216,-658 2216,-622 1374,-622"/>
<text text-anchor="start" x="1382" y="-636.3" font-family="monospace" font-size="14.00">Function BndEvt__Basic_ButtonWithControls_K2Node_ComponentBoundEvent_21_OnClicked__DelegateSignature</text>
</g>
<!-- BndEvt__Basic_ButtonWithControls_K2Node_ComponentBoundEvent_21_OnClicked__DelegateSignature__0 -->
<g id="node11" class="node">
<title>BndEvt__Basic_ButtonWithControls_K2Node_ComponentBoundEvent_21_OnClicked__DelegateSignature__0</title>
<polygon fill="#eeeeee" stroke="black" points="1423.5,-508.5 1423.5,-546.5 2166.5,-546.5 2166.5,-508.5 1423.5,-508.5"/>
<text text-anchor="start" x="1431.5" y="-531.3" font-family="monospace" font-size="14.00">EX_LocalFinalFunction export Options_RestoreSave_C&#45;&gt;ExecuteUbergraph_Options_RestoreSave</text>
<text text-anchor="start" x="1431.5" y="-516.3" font-family="monospace" font-size="14.00">  EX_IntConst 93</text>
</g>
<!-- BndEvt__Basic_ButtonWithControls_K2Node_ComponentBoundEvent_21_OnClicked__DelegateSignature&#45;&gt;BndEvt__Basic_ButtonWithControls_K2Node_ComponentBoundEvent_21_OnClicked__DelegateSignature__0 -->
<g id="edge6" class="edge">
<title>BndEvt__Basic_ButtonWithControls_K2Node_ComponentBoundEvent_21_OnClicked__DelegateSignature&#45;&gt;BndEvt__Basic_ButtonWithControls_K2Node_ComponentBoundEvent_21_OnClicked__DelegateSignature__0</title>
<path fill="none" stroke="black" d="M1795,-622.22C1795,-605.06 1795,-578.07 1795,-557.45"/>
<polygon fill="black" stroke="black" points="1798.5,-557.69 1795,-547.69 1791.5,-557.69 1798.5,-557.69"/>
</g>
<!-- BndEvt__Basic_ButtonWithControls_K2Node_ComponentBoundEvent_21_OnClicked__DelegateSignature__0&#45;&gt;ExecuteUbergraph_Options_RestoreSave__93 -->
<g id="edge7" class="edge">
<title>BndEvt__Basic_ButtonWithControls_K2Node_ComponentBoundEvent_21_OnClicked__DelegateSignature__0:e&#45;&gt;ExecuteUbergraph_Options_RestoreSave__93</title>
<path fill="none" stroke="red" d="M2168,-527.5C2187.28,-527.5 2183.62,-502.08 2177.28,-481.04"/>
<polygon fill="none" stroke="red" points="2180.66,-480.12 2174.2,-471.73 2174.02,-482.32 2180.66,-480.12"/>
</g>
<!-- BndEvt__Basic_ButtonWithControls_K2Node_ComponentBoundEvent_21_OnClicked__DelegateSignature__15 -->
<g id="node12" class="node">
<title>BndEvt__Basic_ButtonWithControls_K2Node_ComponentBoundEvent_21_OnClicked__DelegateSignature__15</title>
<polygon fill="#eeeeee" stroke="black" points="1737,-433.5 1737,-471.5 1853,-471.5 1853,-433.5 1737,-433.5"/>
<text text-anchor="start" x="1745" y="-456.3" font-family="monospace" font-size="14.00">EX_Return</text>
<text text-anchor="start" x="1745" y="-441.3" font-family="monospace" font-size="14.00">  EX_Nothing</text>
</g>
<!-- BndEvt__Basic_ButtonWithControls_K2Node_ComponentBoundEvent_21_OnClicked__DelegateSignature__0&#45;&gt;BndEvt__Basic_ButtonWithControls_K2Node_ComponentBoundEvent_21_OnClicked__DelegateSignature__15 -->
<g id="edge8" class="edge">
<title>BndEvt__Basic_ButtonWithControls_K2Node_ComponentBoundEvent_21_OnClicked__DelegateSignature__0&#45;&gt;BndEvt__Basic_ButtonWithControls_K2Node_ComponentBoundEvent_21_OnClicked__DelegateSignature__15</title>
<path fill="none" stroke="black" d="M1795,-508.83C1795,-501 1795,-491.57 1795,-482.74"/>
<polygon fill="black" stroke="black" points="1798.5,-482.78 1795,-472.78 1791.5,-482.78 1798.5,-482.78"/>
</g>
<!-- BndEvt__Basic_ButtonWithControls_K2Node_ComponentBoundEvent_21_OnClicked__DelegateSignature__17 -->
<g id="node13" class="node">
<title>BndEvt__Basic_ButtonWithControls_K2Node_ComponentBoundEvent_21_OnClicked__DelegateSignature__17</title>
<polygon fill="#eeeeee" stroke="black" points="2573,-202 2573,-238 2705,-238 2705,-202 2573,-202"/>
<text text-anchor="start" x="2581" y="-216.3" font-family="monospace" font-size="14.00">EX_EndOfScript</text>
</g>
</g>
</svg>
