<?xml version="1.0" encoding="UTF-8" standalone="no"?>
<!DOCTYPE svg PUBLIC "-//W3C//DTD SVG 1.1//EN"
 "http://www.w3.org/Graphics/SVG/1.1/DTD/svg11.dtd">
<!-- Generated by graphviz version 7.0.1 (0)
 -->
<!-- Pages: 1 -->
<svg width="4761pt" height="1518pt"
 viewBox="0.00 0.00 4760.50 1518.00" xmlns="http://www.w3.org/2000/svg" xmlns:xlink="http://www.w3.org/1999/xlink">
<g id="graph0" class="graph" transform="scale(1 1) rotate(0) translate(4 1514)">
<polygon fill="white" stroke="none" points="-4,4 -4,-1514 4756.5,-1514 4756.5,4 -4,4"/>
<!-- Options_PreventLatejoinCharacterDuplication_C -->
<g id="node1" class="node">
<title>Options_PreventLatejoinCharacterDuplication_C</title>
<polygon fill="#88ff88" stroke="black" points="0,-1359 0,-1472 850,-1472 850,-1359 0,-1359"/>
<text text-anchor="start" x="8" y="-1456.8" font-family="monospace" font-size="14.00">ClassExport: Options_PreventLatejoinCharacterDuplication_C</text>
<text text-anchor="start" x="8" y="-1441.8" font-family="monospace" font-size="14.00">  SuperStruct: import /Script/UMG&#45;&gt;UserWidget</text>
<text text-anchor="start" x="8" y="-1426.8" font-family="monospace" font-size="14.00">  Properties:</text>
<text text-anchor="start" x="8" y="-1411.8" font-family="monospace" font-size="14.00">    StructProperty UberGraphFrame</text>
<text text-anchor="start" x="8" y="-1396.8" font-family="monospace" font-size="14.00">      CPF_Transient|CPF_DuplicateTransient</text>
<text text-anchor="start" x="8" y="-1381.8" font-family="monospace" font-size="14.00">    ObjectProperty Basic_CheckBox</text>
<text text-anchor="start" x="8" y="-1366.8" font-family="monospace" font-size="14.00">      CPF_BlueprintVisible|CPF_ExportObject|CPF_InstancedReference|CPF_RepSkip|CPF_PersistentInstance</text>
</g>
<!-- ExecuteUbergraph_Options_PreventLatejoinCharacterDuplication -->
<g id="node2" class="node">
<title>ExecuteUbergraph_Options_PreventLatejoinCharacterDuplication</title>
<polygon fill="#ff8888" stroke="black" points="868.5,-1321.5 868.5,-1509.5 1495.5,-1509.5 1495.5,-1321.5 868.5,-1321.5"/>
<text text-anchor="start" x="876.5" y="-1494.3" font-family="monospace" font-size="14.00">Function ExecuteUbergraph_Options_PreventLatejoinCharacterDuplication</text>
<text text-anchor="start" x="876.5" y="-1479.3" font-family="monospace" font-size="14.00">  IntProperty EntryPoint</text>
<text text-anchor="start" x="876.5" y="-1464.3" font-family="monospace" font-size="14.00">    CPF_BlueprintVisible|CPF_BlueprintReadOnly|CPF_Parm</text>
<text text-anchor="start" x="876.5" y="-1449.3" font-family="monospace" font-size="14.00">  ObjectProperty CallFunc_GetFSDGameState_ReturnValue</text>
<text text-anchor="start" x="876.5" y="-1434.3" font-family="monospace" font-size="14.00">  ObjectProperty CallFunc_FSDGameUserSettings_ReturnValue</text>
<text text-anchor="start" x="876.5" y="-1419.3" font-family="monospace" font-size="14.00">  ObjectProperty CallFunc_FSDGameUserSettings_ReturnValue_1</text>
<text text-anchor="start" x="876.5" y="-1404.3" font-family="monospace" font-size="14.00">  BoolProperty K2Node_ComponentBoundEvent_IsChecked</text>
<text text-anchor="start" x="876.5" y="-1389.3" font-family="monospace" font-size="14.00">  DelegateProperty K2Node_CreateDelegate_OutputDelegate</text>
<text text-anchor="start" x="876.5" y="-1374.3" font-family="monospace" font-size="14.00">  ObjectProperty CallFunc_FSDGameUserSettings_ReturnValue_2</text>
<text text-anchor="start" x="876.5" y="-1359.3" font-family="monospace" font-size="14.00">  BoolProperty CallFunc_GetPreventLatejoinCharacterDuplication_ReturnValue</text>
<text text-anchor="start" x="876.5" y="-1344.3" font-family="monospace" font-size="14.00">  ObjectProperty CallFunc_FSDGameUserSettings_ReturnValue_3</text>
<text text-anchor="start" x="876.5" y="-1329.3" font-family="monospace" font-size="14.00">  BoolProperty CallFunc_IsServer_ReturnValue</text>
</g>
<!-- ExecuteUbergraph_Options_PreventLatejoinCharacterDuplication__0 -->
<g id="node3" class="node">
<title>ExecuteUbergraph_Options_PreventLatejoinCharacterDuplication__0</title>
<polygon fill="#eeeeee" stroke="black" points="1046,-1209.5 1046,-1247.5 1318,-1247.5 1318,-1209.5 1046,-1209.5"/>
<text text-anchor="start" x="1054" y="-1232.3" font-family="monospace" font-size="14.00">EX_ComputedJump</text>
<text text-anchor="start" x="1054" y="-1217.3" font-family="monospace" font-size="14.00">  EX_LocalVariable [EntryPoint]</text>
</g>
<!-- ExecuteUbergraph_Options_PreventLatejoinCharacterDuplication&#45;&gt;ExecuteUbergraph_Options_PreventLatejoinCharacterDuplication__0 -->
<g id="edge1" class="edge">
<title>ExecuteUbergraph_Options_PreventLatejoinCharacterDuplication&#45;&gt;ExecuteUbergraph_Options_PreventLatejoinCharacterDuplication__0</title>
<path fill="none" stroke="black" d="M1182,-1321.73C1182,-1298.8 1182,-1275.9 1182,-1258.65"/>
<polygon fill="black" stroke="black" points="1185.5,-1258.69 1182,-1248.69 1178.5,-1258.69 1185.5,-1258.69"/>
</g>
<!-- ExecuteUbergraph_Options_PreventLatejoinCharacterDuplication__10 -->
<g id="node4" class="node">
<title>ExecuteUbergraph_Options_PreventLatejoinCharacterDuplication__10</title>
<polygon fill="#eeeeee" stroke="black" points="4125.5,-1082.5 4125.5,-1135.5 4752.5,-1135.5 4752.5,-1082.5 4125.5,-1082.5"/>
<text text-anchor="start" x="4133.5" y="-1120.3" font-family="monospace" font-size="14.00">EX_LetObj</text>
<text text-anchor="start" x="4133.5" y="-1105.3" font-family="monospace" font-size="14.00">  EX_LocalVariable [CallFunc_FSDGameUserSettings_ReturnValue]</text>
<text text-anchor="start" x="4133.5" y="-1090.3" font-family="monospace" font-size="14.00">  EX_CallMath import /Script/FSD&#45;&gt;FSDGameUserSettings&#45;&gt;FSDGameUserSettings</text>
</g>
<!-- ExecuteUbergraph_Options_PreventLatejoinCharacterDuplication__30 -->
<g id="node5" class="node">
<title>ExecuteUbergraph_Options_PreventLatejoinCharacterDuplication__30</title>
<polygon fill="#eeeeee" stroke="black" points="3958.5,-933 3958.5,-986 4445.5,-986 4445.5,-933 3958.5,-933"/>
<text text-anchor="start" x="3966.5" y="-970.8" font-family="monospace" font-size="14.00">EX_BindDelegate OnGameUserSettingsChanged</text>
<text text-anchor="start" x="3966.5" y="-955.8" font-family="monospace" font-size="14.00">  EX_LocalVariable [K2Node_CreateDelegate_OutputDelegate]</text>
<text text-anchor="start" x="3966.5" y="-940.8" font-family="monospace" font-size="14.00">  EX_Self</text>
</g>
<!-- ExecuteUbergraph_Options_PreventLatejoinCharacterDuplication__10&#45;&gt;ExecuteUbergraph_Options_PreventLatejoinCharacterDuplication__30 -->
<g id="edge2" class="edge">
<title>ExecuteUbergraph_Options_PreventLatejoinCharacterDuplication__10&#45;&gt;ExecuteUbergraph_Options_PreventLatejoinCharacterDuplication__30</title>
<path fill="none" stroke="black" d="M4370.76,-1082.55C4358.24,-1077.01 4345.51,-1070.75 4334,-1064 4299.4,-1043.69 4263.82,-1015.27 4238.33,-993.34"/>
<polygon fill="black" stroke="black" points="4240.73,-990.8 4230.89,-986.88 4236.14,-996.08 4240.73,-990.8"/>
</g>
<!-- ExecuteUbergraph_Options_PreventLatejoinCharacterDuplication__53 -->
<g id="node6" class="node">
<title>ExecuteUbergraph_Options_PreventLatejoinCharacterDuplication__53</title>
<polygon fill="#eeeeee" stroke="black" points="3762,-738.5 3762,-836.5 4298,-836.5 4298,-738.5 3762,-738.5"/>
<text text-anchor="start" x="3770" y="-821.3" font-family="monospace" font-size="14.00">EX_AddMulticastDelegate</text>
<text text-anchor="start" x="3770" y="-806.3" font-family="monospace" font-size="14.00">  EX_Context</text>
<text text-anchor="start" x="3770" y="-791.3" font-family="monospace" font-size="14.00">    EX_LocalVariable [CallFunc_FSDGameUserSettings_ReturnValue]</text>
<text text-anchor="start" x="3770" y="-776.3" font-family="monospace" font-size="14.00">    EX_InstanceVariable [OnGameUserSettingsUINeedsUpdate]</text>
<text text-anchor="start" x="3770" y="-761.3" font-family="monospace" font-size="14.00">    RValue = [OnGameUserSettingsUINeedsUpdate]</text>
<text text-anchor="start" x="3770" y="-746.3" font-family="monospace" font-size="14.00">  EX_LocalVariable [K2Node_CreateDelegate_OutputDelegate]</text>
</g>
<!-- ExecuteUbergraph_Options_PreventLatejoinCharacterDuplication__30&#45;&gt;ExecuteUbergraph_Options_PreventLatejoinCharacterDuplication__53 -->
<g id="edge3" class="edge">
<title>ExecuteUbergraph_Options_PreventLatejoinCharacterDuplication__30&#45;&gt;ExecuteUbergraph_Options_PreventLatejoinCharacterDuplication__53</title>
<path fill="none" stroke="black" d="M4173.96,-933.28C4160.5,-921 4144.23,-905.92 4130,-892 4114.48,-876.83 4097.98,-860.04 4082.95,-844.47"/>
<polygon fill="black" stroke="black" points="4085.75,-842.33 4076.29,-837.55 4080.7,-847.18 4085.75,-842.33"/>
</g>
<!-- ExecuteUbergraph_Options_PreventLatejoinCharacterDuplication__94 -->
<g id="node7" class="node">
<title>ExecuteUbergraph_Options_PreventLatejoinCharacterDuplication__94</title>
<polygon fill="#eeeeee" stroke="black" points="3744.5,-641 3744.5,-677 4165.5,-677 4165.5,-641 3744.5,-641"/>
<text text-anchor="start" x="3752.5" y="-655.3" font-family="monospace" font-size="14.00">EX_LocalVirtualFunction OnGameUserSettingsChanged</text>
</g>
<!-- ExecuteUbergraph_Options_PreventLatejoinCharacterDuplication__53&#45;&gt;ExecuteUbergraph_Options_PreventLatejoinCharacterDuplication__94 -->
<g id="edge4" class="edge">
<title>ExecuteUbergraph_Options_PreventLatejoinCharacterDuplication__53&#45;&gt;ExecuteUbergraph_Options_PreventLatejoinCharacterDuplication__94</title>
<path fill="none" stroke="black" d="M4001.65,-738.68C3991.2,-721.05 3979.74,-701.73 3970.8,-686.64"/>
<polygon fill="black" stroke="black" points="3973.93,-685.07 3965.82,-678.25 3967.91,-688.64 3973.93,-685.07"/>
</g>
<!-- ExecuteUbergraph_Options_PreventLatejoinCharacterDuplication__108 -->
<g id="node8" class="node">
<title>ExecuteUbergraph_Options_PreventLatejoinCharacterDuplication__108</title>
<polygon fill="#eeeeee" stroke="black" points="3857.5,-471.5 3857.5,-507.5 3964.5,-507.5 3964.5,-471.5 3857.5,-471.5"/>
<text text-anchor="start" x="3865.5" y="-485.8" font-family="monospace" font-size="14.00">EX_Jump 487</text>
</g>
<!-- ExecuteUbergraph_Options_PreventLatejoinCharacterDuplication__94&#45;&gt;ExecuteUbergraph_Options_PreventLatejoinCharacterDuplication__108 -->
<g id="edge5" class="edge">
<title>ExecuteUbergraph_Options_PreventLatejoinCharacterDuplication__94&#45;&gt;ExecuteUbergraph_Options_PreventLatejoinCharacterDuplication__108</title>
<path fill="none" stroke="black" d="M3950.54,-641.02C3942.92,-612.02 3927.35,-552.74 3918.18,-517.85"/>
<polygon fill="black" stroke="black" points="3921.65,-517.28 3915.73,-508.49 3914.88,-519.06 3921.65,-517.28"/>
</g>
<!-- ExecuteUbergraph_Options_PreventLatejoinCharacterDuplication__487 -->
<g id="node23" class="node">
<title>ExecuteUbergraph_Options_PreventLatejoinCharacterDuplication__487</title>
<polygon fill="#eeeeee" stroke="black" points="3479,-0.5 3479,-38.5 3595,-38.5 3595,-0.5 3479,-0.5"/>
<text text-anchor="start" x="3487" y="-23.3" font-family="monospace" font-size="14.00">EX_Return</text>
<text text-anchor="start" x="3487" y="-8.3" font-family="monospace" font-size="14.00">  EX_Nothing</text>
</g>
<!-- ExecuteUbergraph_Options_PreventLatejoinCharacterDuplication__108&#45;&gt;ExecuteUbergraph_Options_PreventLatejoinCharacterDuplication__487 -->
<g id="edge6" class="edge">
<title>ExecuteUbergraph_Options_PreventLatejoinCharacterDuplication__108&#45;&gt;ExecuteUbergraph_Options_PreventLatejoinCharacterDuplication__487</title>
<path fill="none" stroke="black" d="M3902.09,-471.67C3889.5,-446.26 3868,-396.27 3868,-351 3868,-351 3868,-351 3868,-117 3868,-62.88 3702.83,-37.07 3605.84,-26.57"/>
<polygon fill="black" stroke="black" points="3606.47,-23.12 3596.16,-25.56 3605.74,-30.08 3606.47,-23.12"/>
</g>
<!-- ExecuteUbergraph_Options_PreventLatejoinCharacterDuplication__113 -->
<g id="node9" class="node">
<title>ExecuteUbergraph_Options_PreventLatejoinCharacterDuplication__113</title>
<polygon fill="#eeeeee" stroke="black" points="2222.5,-761 2222.5,-814 2849.5,-814 2849.5,-761 2222.5,-761"/>
<text text-anchor="start" x="2230.5" y="-798.8" font-family="monospace" font-size="14.00">EX_LetObj</text>
<text text-anchor="start" x="2230.5" y="-783.8" font-family="monospace" font-size="14.00">  EX_LocalVariable [CallFunc_FSDGameUserSettings_ReturnValue_1]</text>
<text text-anchor="start" x="2230.5" y="-768.8" font-family="monospace" font-size="14.00">  EX_CallMath import /Script/FSD&#45;&gt;FSDGameUserSettings&#45;&gt;FSDGameUserSettings</text>
</g>
<!-- ExecuteUbergraph_Options_PreventLatejoinCharacterDuplication__133 -->
<g id="node10" class="node">
<title>ExecuteUbergraph_Options_PreventLatejoinCharacterDuplication__133</title>
<polygon fill="#eeeeee" stroke="black" points="2243.5,-617.5 2243.5,-700.5 3068.5,-700.5 3068.5,-617.5 2243.5,-617.5"/>
<text text-anchor="start" x="2251.5" y="-685.3" font-family="monospace" font-size="14.00">EX_Context</text>
<text text-anchor="start" x="2251.5" y="-670.3" font-family="monospace" font-size="14.00">  EX_LocalVariable [CallFunc_FSDGameUserSettings_ReturnValue_1]</text>
<text text-anchor="start" x="2251.5" y="-655.3" font-family="monospace" font-size="14.00">  EX_FinalFunction import /Script/FSD&#45;&gt;FSDGameUserSettings&#45;&gt;SetPreventLatejoinCharacterDuplication</text>
<text text-anchor="start" x="2251.5" y="-640.3" font-family="monospace" font-size="14.00">    EX_LocalVariable [K2Node_ComponentBoundEvent_IsChecked]</text>
<text text-anchor="start" x="2251.5" y="-625.3" font-family="monospace" font-size="14.00">  RValue = []</text>
</g>
<!-- ExecuteUbergraph_Options_PreventLatejoinCharacterDuplication__113&#45;&gt;ExecuteUbergraph_Options_PreventLatejoinCharacterDuplication__133 -->
<g id="edge7" class="edge">
<title>ExecuteUbergraph_Options_PreventLatejoinCharacterDuplication__113&#45;&gt;ExecuteUbergraph_Options_PreventLatejoinCharacterDuplication__133</title>
<path fill="none" stroke="black" d="M2560,-761.2C2574.35,-746.07 2593.07,-726.34 2610.16,-708.33"/>
<polygon fill="black" stroke="black" points="2612.49,-710.95 2616.83,-701.29 2607.41,-706.14 2612.49,-710.95"/>
</g>
<!-- ExecuteUbergraph_Options_PreventLatejoinCharacterDuplication__174 -->
<g id="node11" class="node">
<title>ExecuteUbergraph_Options_PreventLatejoinCharacterDuplication__174</title>
<polygon fill="#eeeeee" stroke="black" points="2344.5,-526.5 2344.5,-579.5 2971.5,-579.5 2971.5,-526.5 2344.5,-526.5"/>
<text text-anchor="start" x="2352.5" y="-564.3" font-family="monospace" font-size="14.00">EX_LetObj</text>
<text text-anchor="start" x="2352.5" y="-549.3" font-family="monospace" font-size="14.00">  EX_LocalVariable [CallFunc_FSDGameUserSettings_ReturnValue_3]</text>
<text text-anchor="start" x="2352.5" y="-534.3" font-family="monospace" font-size="14.00">  EX_CallMath import /Script/FSD&#45;&gt;FSDGameUserSettings&#45;&gt;FSDGameUserSettings</text>
</g>
<!-- ExecuteUbergraph_Options_PreventLatejoinCharacterDuplication__133&#45;&gt;ExecuteUbergraph_Options_PreventLatejoinCharacterDuplication__174 -->
<g id="edge8" class="edge">
<title>ExecuteUbergraph_Options_PreventLatejoinCharacterDuplication__133&#45;&gt;ExecuteUbergraph_Options_PreventLatejoinCharacterDuplication__174</title>
<path fill="none" stroke="black" d="M2656.77,-617.79C2656.94,-608.91 2657.12,-599.54 2657.29,-590.81"/>
<polygon fill="black" stroke="black" points="2660.79,-590.96 2657.48,-580.9 2653.79,-590.83 2660.79,-590.96"/>
</g>
<!-- ExecuteUbergraph_Options_PreventLatejoinCharacterDuplication__194 -->
<g id="node12" class="node">
<title>ExecuteUbergraph_Options_PreventLatejoinCharacterDuplication__194</title>
<polygon fill="#eeeeee" stroke="black" points="2397,-369.5 2397,-452.5 2933,-452.5 2933,-369.5 2397,-369.5"/>
<text text-anchor="start" x="2405" y="-437.3" font-family="monospace" font-size="14.00">EX_Context</text>
<text text-anchor="start" x="2405" y="-422.3" font-family="monospace" font-size="14.00">  EX_LocalVariable [CallFunc_FSDGameUserSettings_ReturnValue_3]</text>
<text text-anchor="start" x="2405" y="-407.3" font-family="monospace" font-size="14.00">  EX_VirtualFunction ApplySettings</text>
<text text-anchor="start" x="2405" y="-392.3" font-family="monospace" font-size="14.00">    EX_True</text>
<text text-anchor="start" x="2405" y="-377.3" font-family="monospace" font-size="14.00">  RValue = []</text>
</g>
<!-- ExecuteUbergraph_Options_PreventLatejoinCharacterDuplication__174&#45;&gt;ExecuteUbergraph_Options_PreventLatejoinCharacterDuplication__194 -->
<g id="edge9" class="edge">
<title>ExecuteUbergraph_Options_PreventLatejoinCharacterDuplication__174&#45;&gt;ExecuteUbergraph_Options_PreventLatejoinCharacterDuplication__194</title>
<path fill="none" stroke="black" d="M2659.27,-526.65C2660.15,-509.08 2661.35,-485.08 2662.42,-463.57"/>
<polygon fill="black" stroke="black" points="2665.91,-463.94 2662.91,-453.78 2658.92,-463.59 2665.91,-463.94"/>
</g>
<!-- ExecuteUbergraph_Options_PreventLatejoinCharacterDuplication__231 -->
<g id="node13" class="node">
<title>ExecuteUbergraph_Options_PreventLatejoinCharacterDuplication__231</title>
<polygon fill="#eeeeee" stroke="black" points="2672.5,-178.5 2672.5,-214.5 2779.5,-214.5 2779.5,-178.5 2672.5,-178.5"/>
<text text-anchor="start" x="2680.5" y="-192.8" font-family="monospace" font-size="14.00">EX_Jump 487</text>
</g>
<!-- ExecuteUbergraph_Options_PreventLatejoinCharacterDuplication__194&#45;&gt;ExecuteUbergraph_Options_PreventLatejoinCharacterDuplication__231 -->
<g id="edge10" class="edge">
<title>ExecuteUbergraph_Options_PreventLatejoinCharacterDuplication__194&#45;&gt;ExecuteUbergraph_Options_PreventLatejoinCharacterDuplication__231</title>
<path fill="none" stroke="black" d="M2676.62,-369.53C2688.75,-327.26 2707.46,-262.09 2718.02,-225.29"/>
<polygon fill="black" stroke="black" points="2721.33,-226.44 2720.73,-215.86 2714.61,-224.51 2721.33,-226.44"/>
</g>
<!-- ExecuteUbergraph_Options_PreventLatejoinCharacterDuplication__231&#45;&gt;ExecuteUbergraph_Options_PreventLatejoinCharacterDuplication__487 -->
<g id="edge11" class="edge">
<title>ExecuteUbergraph_Options_PreventLatejoinCharacterDuplication__231&#45;&gt;ExecuteUbergraph_Options_PreventLatejoinCharacterDuplication__487</title>
<path fill="none" stroke="black" d="M2734.96,-178.74C2750.45,-151.66 2785.07,-99 2831,-76 2887.02,-47.95 3301.35,-29.39 3467.94,-22.98"/>
<polygon fill="black" stroke="black" points="3467.65,-26.5 3477.51,-22.62 3467.38,-19.5 3467.65,-26.5"/>
</g>
<!-- ExecuteUbergraph_Options_PreventLatejoinCharacterDuplication__236 -->
<g id="node14" class="node">
<title>ExecuteUbergraph_Options_PreventLatejoinCharacterDuplication__236</title>
<polygon fill="#eeeeee" stroke="black" points="2452.5,-941.5 2452.5,-977.5 2559.5,-977.5 2559.5,-941.5 2452.5,-941.5"/>
<text text-anchor="start" x="2460.5" y="-955.8" font-family="monospace" font-size="14.00">EX_Jump 113</text>
</g>
<!-- ExecuteUbergraph_Options_PreventLatejoinCharacterDuplication__236&#45;&gt;ExecuteUbergraph_Options_PreventLatejoinCharacterDuplication__113 -->
<g id="edge12" class="edge">
<title>ExecuteUbergraph_Options_PreventLatejoinCharacterDuplication__236&#45;&gt;ExecuteUbergraph_Options_PreventLatejoinCharacterDuplication__113</title>
<path fill="none" stroke="black" d="M2508.99,-941.58C2513.76,-914.52 2523.22,-860.92 2529.58,-824.88"/>
<polygon fill="black" stroke="black" points="2532.97,-825.8 2531.26,-815.34 2526.08,-824.58 2532.97,-825.8"/>
</g>
<!-- ExecuteUbergraph_Options_PreventLatejoinCharacterDuplication__241 -->
<g id="node15" class="node">
<title>ExecuteUbergraph_Options_PreventLatejoinCharacterDuplication__241</title>
<polygon fill="#eeeeee" stroke="black" points="3058.5,-1082.5 3058.5,-1135.5 3685.5,-1135.5 3685.5,-1082.5 3058.5,-1082.5"/>
<text text-anchor="start" x="3066.5" y="-1120.3" font-family="monospace" font-size="14.00">EX_LetObj</text>
<text text-anchor="start" x="3066.5" y="-1105.3" font-family="monospace" font-size="14.00">  EX_LocalVariable [CallFunc_FSDGameUserSettings_ReturnValue_2]</text>
<text text-anchor="start" x="3066.5" y="-1090.3" font-family="monospace" font-size="14.00">  EX_CallMath import /Script/FSD&#45;&gt;FSDGameUserSettings&#45;&gt;FSDGameUserSettings</text>
</g>
<!-- ExecuteUbergraph_Options_PreventLatejoinCharacterDuplication__261 -->
<g id="node16" class="node">
<title>ExecuteUbergraph_Options_PreventLatejoinCharacterDuplication__261</title>
<polygon fill="#eeeeee" stroke="black" points="2951,-910.5 2951,-1008.5 3793,-1008.5 3793,-910.5 2951,-910.5"/>
<text text-anchor="start" x="2959" y="-993.3" font-family="monospace" font-size="14.00">EX_LetBool</text>
<text text-anchor="start" x="2959" y="-978.3" font-family="monospace" font-size="14.00">  EX_LocalVariable [CallFunc_GetPreventLatejoinCharacterDuplication_ReturnValue]</text>
<text text-anchor="start" x="2959" y="-963.3" font-family="monospace" font-size="14.00">  EX_Context</text>
<text text-anchor="start" x="2959" y="-948.3" font-family="monospace" font-size="14.00">    EX_LocalVariable [CallFunc_FSDGameUserSettings_ReturnValue_2]</text>
<text text-anchor="start" x="2959" y="-933.3" font-family="monospace" font-size="14.00">    EX_FinalFunction import /Script/FSD&#45;&gt;FSDGameUserSettings&#45;&gt;GetPreventLatejoinCharacterDuplication</text>
<text text-anchor="start" x="2959" y="-918.3" font-family="monospace" font-size="14.00">    RValue = [CallFunc_GetPreventLatejoinCharacterDuplication_ReturnValue]</text>
</g>
<!-- ExecuteUbergraph_Options_PreventLatejoinCharacterDuplication__241&#45;&gt;ExecuteUbergraph_Options_PreventLatejoinCharacterDuplication__261 -->
<g id="edge13" class="edge">
<title>ExecuteUbergraph_Options_PreventLatejoinCharacterDuplication__241&#45;&gt;ExecuteUbergraph_Options_PreventLatejoinCharacterDuplication__261</title>
<path fill="none" stroke="black" d="M3372,-1082.64C3372,-1065.32 3372,-1041.61 3372,-1019.7"/>
<polygon fill="black" stroke="black" points="3375.5,-1019.95 3372,-1009.95 3368.5,-1019.95 3375.5,-1019.95"/>
</g>
<!-- ExecuteUbergraph_Options_PreventLatejoinCharacterDuplication__303 -->
<g id="node17" class="node">
<title>ExecuteUbergraph_Options_PreventLatejoinCharacterDuplication__303</title>
<polygon fill="#eeeeee" stroke="black" points="3025.5,-746 3025.5,-829 3718.5,-829 3718.5,-746 3025.5,-746"/>
<text text-anchor="start" x="3033.5" y="-813.8" font-family="monospace" font-size="14.00">EX_Context</text>
<text text-anchor="start" x="3033.5" y="-798.8" font-family="monospace" font-size="14.00">  EX_InstanceVariable [Basic_CheckBox]</text>
<text text-anchor="start" x="3033.5" y="-783.8" font-family="monospace" font-size="14.00">  EX_LocalVirtualFunction SetIsChecked</text>
<text text-anchor="start" x="3033.5" y="-768.8" font-family="monospace" font-size="14.00">    EX_LocalVariable [CallFunc_GetPreventLatejoinCharacterDuplication_ReturnValue]</text>
<text text-anchor="start" x="3033.5" y="-753.8" font-family="monospace" font-size="14.00">  RValue = []</text>
</g>
<!-- ExecuteUbergraph_Options_PreventLatejoinCharacterDuplication__261&#45;&gt;ExecuteUbergraph_Options_PreventLatejoinCharacterDuplication__303 -->
<g id="edge14" class="edge">
<title>ExecuteUbergraph_Options_PreventLatejoinCharacterDuplication__261&#45;&gt;ExecuteUbergraph_Options_PreventLatejoinCharacterDuplication__303</title>
<path fill="none" stroke="black" d="M3372,-910.69C3372,-888.7 3372,-862.57 3372,-840.12"/>
<polygon fill="black" stroke="black" points="3375.5,-840.28 3372,-830.28 3368.5,-840.28 3375.5,-840.28"/>
</g>
<!-- ExecuteUbergraph_Options_PreventLatejoinCharacterDuplication__348 -->
<g id="node18" class="node">
<title>ExecuteUbergraph_Options_PreventLatejoinCharacterDuplication__348</title>
<polygon fill="#eeeeee" stroke="black" points="3091.5,-625 3091.5,-693 3652.5,-693 3652.5,-625 3091.5,-625"/>
<text text-anchor="start" x="3099.5" y="-677.8" font-family="monospace" font-size="14.00">EX_LetBool</text>
<text text-anchor="start" x="3099.5" y="-662.8" font-family="monospace" font-size="14.00">  EX_LocalVariable [CallFunc_IsServer_ReturnValue]</text>
<text text-anchor="start" x="3099.5" y="-647.8" font-family="monospace" font-size="14.00">  EX_CallMath import /Script/Engine&#45;&gt;KismetSystemLibrary&#45;&gt;IsServer</text>
<text text-anchor="start" x="3099.5" y="-632.8" font-family="monospace" font-size="14.00">    EX_Self</text>
</g>
<!-- ExecuteUbergraph_Options_PreventLatejoinCharacterDuplication__303&#45;&gt;ExecuteUbergraph_Options_PreventLatejoinCharacterDuplication__348 -->
<g id="edge15" class="edge">
<title>ExecuteUbergraph_Options_PreventLatejoinCharacterDuplication__303&#45;&gt;ExecuteUbergraph_Options_PreventLatejoinCharacterDuplication__348</title>
<path fill="none" stroke="black" d="M3372,-746.13C3372,-732.68 3372,-717.64 3372,-703.94"/>
<polygon fill="black" stroke="black" points="3375.5,-704.33 3372,-694.33 3368.5,-704.33 3375.5,-704.33"/>
</g>
<!-- ExecuteUbergraph_Options_PreventLatejoinCharacterDuplication__369 -->
<g id="node19" class="node">
<title>ExecuteUbergraph_Options_PreventLatejoinCharacterDuplication__369</title>
<polygon fill="#eeeeee" stroke="black" points="3157.5,-534 3157.5,-572 3586.5,-572 3586.5,-534 3157.5,-534"/>
<text text-anchor="start" x="3165.5" y="-556.8" font-family="monospace" font-size="14.00">EX_JumpIfNot 487</text>
<text text-anchor="start" x="3165.5" y="-541.8" font-family="monospace" font-size="14.00">  EX_LocalVariable [CallFunc_IsServer_ReturnValue]</text>
</g>
<!-- ExecuteUbergraph_Options_PreventLatejoinCharacterDuplication__348&#45;&gt;ExecuteUbergraph_Options_PreventLatejoinCharacterDuplication__369 -->
<g id="edge16" class="edge">
<title>ExecuteUbergraph_Options_PreventLatejoinCharacterDuplication__348&#45;&gt;ExecuteUbergraph_Options_PreventLatejoinCharacterDuplication__369</title>
<path fill="none" stroke="black" d="M3372,-625.09C3372,-611.61 3372,-596.13 3372,-583.07"/>
<polygon fill="black" stroke="black" points="3375.5,-583.39 3372,-573.39 3368.5,-583.39 3375.5,-583.39"/>
</g>
<!-- ExecuteUbergraph_Options_PreventLatejoinCharacterDuplication__383 -->
<g id="node20" class="node">
<title>ExecuteUbergraph_Options_PreventLatejoinCharacterDuplication__383</title>
<polygon fill="#eeeeee" stroke="black" points="3016,-377 3016,-445 3610,-445 3610,-377 3016,-377"/>
<text text-anchor="start" x="3024" y="-429.8" font-family="monospace" font-size="14.00">EX_LetObj</text>
<text text-anchor="start" x="3024" y="-414.8" font-family="monospace" font-size="14.00">  EX_LocalVariable [CallFunc_GetFSDGameState_ReturnValue]</text>
<text text-anchor="start" x="3024" y="-399.8" font-family="monospace" font-size="14.00">  EX_CallMath import /Script/FSD&#45;&gt;GameFunctionLibrary&#45;&gt;GetFSDGameState</text>
<text text-anchor="start" x="3024" y="-384.8" font-family="monospace" font-size="14.00">    EX_Self</text>
</g>
<!-- ExecuteUbergraph_Options_PreventLatejoinCharacterDuplication__369&#45;&gt;ExecuteUbergraph_Options_PreventLatejoinCharacterDuplication__383 -->
<g id="edge18" class="edge">
<title>ExecuteUbergraph_Options_PreventLatejoinCharacterDuplication__369&#45;&gt;ExecuteUbergraph_Options_PreventLatejoinCharacterDuplication__383</title>
<path fill="none" stroke="black" d="M3364.53,-534.27C3356.22,-514.55 3342.48,-481.96 3331.28,-455.38"/>
<polygon fill="black" stroke="black" points="3334.52,-454.04 3327.41,-446.19 3328.07,-456.76 3334.52,-454.04"/>
<text text-anchor="middle" x="3361.5" y="-485.8" font-family="monospace" font-size="14.00">IF</text>
</g>
<!-- ExecuteUbergraph_Options_PreventLatejoinCharacterDuplication__369&#45;&gt;ExecuteUbergraph_Options_PreventLatejoinCharacterDuplication__487 -->
<g id="edge17" class="edge">
<title>ExecuteUbergraph_Options_PreventLatejoinCharacterDuplication__369:e&#45;&gt;ExecuteUbergraph_Options_PreventLatejoinCharacterDuplication__487</title>
<path fill="none" stroke="red" d="M3588,-553C3655.59,-553 3645,-479.59 3645,-412 3645,-412 3645,-412 3645,-117 3645,-84.42 3617.33,-60.09 3590,-44.02"/>
<polygon fill="none" stroke="red" points="3591.76,-40.99 3581.32,-39.2 3588.36,-47.11 3591.76,-40.99"/>
<text text-anchor="middle" x="3670" y="-278.8" font-family="monospace" font-size="14.00">IF NOT</text>
</g>
<!-- ExecuteUbergraph_Options_PreventLatejoinCharacterDuplication__404 -->
<g id="node21" class="node">
<title>ExecuteUbergraph_Options_PreventLatejoinCharacterDuplication__404</title>
<polygon fill="#eeeeee" stroke="black" points="2767,-233.5 2767,-331.5 3609,-331.5 3609,-233.5 2767,-233.5"/>
<text text-anchor="start" x="2775" y="-316.3" font-family="monospace" font-size="14.00">EX_LetBool</text>
<text text-anchor="start" x="2775" y="-301.3" font-family="monospace" font-size="14.00">  EX_LocalVariable [CallFunc_GetPreventLatejoinCharacterDuplication_ReturnValue]</text>
<text text-anchor="start" x="2775" y="-286.3" font-family="monospace" font-size="14.00">  EX_Context</text>
<text text-anchor="start" x="2775" y="-271.3" font-family="monospace" font-size="14.00">    EX_LocalVariable [CallFunc_FSDGameUserSettings_ReturnValue_2]</text>
<text text-anchor="start" x="2775" y="-256.3" font-family="monospace" font-size="14.00">    EX_FinalFunction import /Script/FSD&#45;&gt;FSDGameUserSettings&#45;&gt;GetPreventLatejoinCharacterDuplication</text>
<text text-anchor="start" x="2775" y="-241.3" font-family="monospace" font-size="14.00">    RValue = [CallFunc_GetPreventLatejoinCharacterDuplication_ReturnValue]</text>
</g>
<!-- ExecuteUbergraph_Options_PreventLatejoinCharacterDuplication__383&#45;&gt;ExecuteUbergraph_Options_PreventLatejoinCharacterDuplication__404 -->
<g id="edge19" class="edge">
<title>ExecuteUbergraph_Options_PreventLatejoinCharacterDuplication__383&#45;&gt;ExecuteUbergraph_Options_PreventLatejoinCharacterDuplication__404</title>
<path fill="none" stroke="black" d="M3280.48,-377.09C3269.1,-365.58 3255.98,-352.3 3243.27,-339.43"/>
<polygon fill="black" stroke="black" points="3246,-337.22 3236.48,-332.57 3241.02,-342.14 3246,-337.22"/>
</g>
<!-- ExecuteUbergraph_Options_PreventLatejoinCharacterDuplication__446 -->
<g id="node22" class="node">
<title>ExecuteUbergraph_Options_PreventLatejoinCharacterDuplication__446</title>
<polygon fill="#eeeeee" stroke="black" points="2840.5,-76.5 2840.5,-159.5 3607.5,-159.5 3607.5,-76.5 2840.5,-76.5"/>
<text text-anchor="start" x="2848.5" y="-144.3" font-family="monospace" font-size="14.00">EX_Context</text>
<text text-anchor="start" x="2848.5" y="-129.3" font-family="monospace" font-size="14.00">  EX_LocalVariable [CallFunc_GetFSDGameState_ReturnValue]</text>
<text text-anchor="start" x="2848.5" y="-114.3" font-family="monospace" font-size="14.00">  EX_FinalFunction import /Script/FSD&#45;&gt;FSDGameState&#45;&gt;SetPreventLatejoinCharacterDuplication</text>
<text text-anchor="start" x="2848.5" y="-99.3" font-family="monospace" font-size="14.00">    EX_LocalVariable [CallFunc_GetPreventLatejoinCharacterDuplication_ReturnValue]</text>
<text text-anchor="start" x="2848.5" y="-84.3" font-family="monospace" font-size="14.00">  RValue = []</text>
</g>
<!-- ExecuteUbergraph_Options_PreventLatejoinCharacterDuplication__404&#45;&gt;ExecuteUbergraph_Options_PreventLatejoinCharacterDuplication__446 -->
<g id="edge20" class="edge">
<title>ExecuteUbergraph_Options_PreventLatejoinCharacterDuplication__404&#45;&gt;ExecuteUbergraph_Options_PreventLatejoinCharacterDuplication__446</title>
<path fill="none" stroke="black" d="M3198.61,-233.62C3203,-213.81 3208.1,-190.79 3212.57,-170.6"/>
<polygon fill="black" stroke="black" points="3215.98,-171.4 3214.72,-160.88 3209.14,-169.89 3215.98,-171.4"/>
</g>
<!-- ExecuteUbergraph_Options_PreventLatejoinCharacterDuplication__446&#45;&gt;ExecuteUbergraph_Options_PreventLatejoinCharacterDuplication__487 -->
<g id="edge21" class="edge">
<title>ExecuteUbergraph_Options_PreventLatejoinCharacterDuplication__446&#45;&gt;ExecuteUbergraph_Options_PreventLatejoinCharacterDuplication__487</title>
<path fill="none" stroke="black" d="M3354.93,-76.63C3393.91,-64.62 3435.06,-51.93 3468.37,-41.66"/>
<polygon fill="black" stroke="black" points="3469.37,-45.01 3477.9,-38.72 3467.31,-38.32 3469.37,-45.01"/>
</g>
<!-- ExecuteUbergraph_Options_PreventLatejoinCharacterDuplication__489 -->
<g id="node24" class="node">
<title>ExecuteUbergraph_Options_PreventLatejoinCharacterDuplication__489</title>
<polygon fill="#eeeeee" stroke="black" points="3974,-1266.5 3974,-1302.5 4106,-1302.5 4106,-1266.5 3974,-1266.5"/>
<text text-anchor="start" x="3982" y="-1280.8" font-family="monospace" font-size="14.00">EX_EndOfScript</text>
</g>
<!-- OnGameUserSettingsChanged -->
<g id="node25" class="node">
<title>OnGameUserSettingsChanged</title>
<polygon fill="#ff8888" stroke="black" points="2653.5,-1397.5 2653.5,-1433.5 2950.5,-1433.5 2950.5,-1397.5 2653.5,-1397.5"/>
<text text-anchor="start" x="2661.5" y="-1411.8" font-family="monospace" font-size="14.00">Function OnGameUserSettingsChanged</text>
</g>
<!-- OnGameUserSettingsChanged__0 -->
<g id="node26" class="node">
<title>OnGameUserSettingsChanged__0</title>
<polygon fill="#eeeeee" stroke="black" points="2232.5,-1209.5 2232.5,-1247.5 3371.5,-1247.5 3371.5,-1209.5 2232.5,-1209.5"/>
<text text-anchor="start" x="2240.5" y="-1232.3" font-family="monospace" font-size="14.00">EX_LocalFinalFunction export Options_PreventLatejoinCharacterDuplication_C&#45;&gt;ExecuteUbergraph_Options_PreventLatejoinCharacterDuplication</text>
<text text-anchor="start" x="2240.5" y="-1217.3" font-family="monospace" font-size="14.00">  EX_IntConst 241</text>
</g>
<!-- OnGameUserSettingsChanged&#45;&gt;OnGameUserSettingsChanged__0 -->
<g id="edge22" class="edge">
<title>OnGameUserSettingsChanged&#45;&gt;OnGameUserSettingsChanged__0</title>
<path fill="none" stroke="black" d="M2802,-1397.76C2802,-1366.31 2802,-1298.05 2802,-1258.82"/>
<polygon fill="black" stroke="black" points="2805.5,-1258.94 2802,-1248.94 2798.5,-1258.94 2805.5,-1258.94"/>
</g>
<!-- OnGameUserSettingsChanged__0&#45;&gt;ExecuteUbergraph_Options_PreventLatejoinCharacterDuplication__241 -->
<g id="edge23" class="edge">
<title>OnGameUserSettingsChanged__0:e&#45;&gt;ExecuteUbergraph_Options_PreventLatejoinCharacterDuplication__241</title>
<path fill="none" stroke="red" d="M3373,-1228.5C3381.29,-1228.5 3378.74,-1181.47 3375.72,-1146.67"/>
<polygon fill="none" stroke="red" points="3379.22,-1146.57 3374.83,-1136.93 3372.25,-1147.21 3379.22,-1146.57"/>
</g>
<!-- OnGameUserSettingsChanged__15 -->
<g id="node27" class="node">
<title>OnGameUserSettingsChanged__15</title>
<polygon fill="#eeeeee" stroke="black" points="2744,-1090 2744,-1128 2860,-1128 2860,-1090 2744,-1090"/>
<text text-anchor="start" x="2752" y="-1112.8" font-family="monospace" font-size="14.00">EX_Return</text>
<text text-anchor="start" x="2752" y="-1097.8" font-family="monospace" font-size="14.00">  EX_Nothing</text>
</g>
<!-- OnGameUserSettingsChanged__0&#45;&gt;OnGameUserSettingsChanged__15 -->
<g id="edge24" class="edge">
<title>OnGameUserSettingsChanged__0&#45;&gt;OnGameUserSettingsChanged__15</title>
<path fill="none" stroke="black" d="M2802,-1209.65C2802,-1190.91 2802,-1161.14 2802,-1139.02"/>
<polygon fill="black" stroke="black" points="2805.5,-1139.14 2802,-1129.14 2798.5,-1139.14 2805.5,-1139.14"/>
</g>
<!-- OnGameUserSettingsChanged__17 -->
<g id="node28" class="node">
<title>OnGameUserSettingsChanged__17</title>
<polygon fill="#eeeeee" stroke="black" points="4499,-1154.5 4499,-1190.5 4631,-1190.5 4631,-1154.5 4499,-1154.5"/>
<text text-anchor="start" x="4507" y="-1168.8" font-family="monospace" font-size="14.00">EX_EndOfScript</text>
</g>
<!-- BndEvt__Basic_CheckBox_K2Node_ComponentBoundEvent_8_OnCheckStateChanged__DelegateSignature -->
<g id="node29" class="node">
<title>BndEvt__Basic_CheckBox_K2Node_ComponentBoundEvent_8_OnCheckStateChanged__DelegateSignature</title>
<polygon fill="#ff8888" stroke="black" points="1513.5,-1389 1513.5,-1442 2346.5,-1442 2346.5,-1389 1513.5,-1389"/>
<text text-anchor="start" x="1521.5" y="-1426.8" font-family="monospace" font-size="14.00">Function BndEvt__Basic_CheckBox_K2Node_ComponentBoundEvent_8_OnCheckStateChanged__DelegateSignature</text>
<text text-anchor="start" x="1521.5" y="-1411.8" font-family="monospace" font-size="14.00">  BoolProperty IsChecked</text>
<text text-anchor="start" x="1521.5" y="-1396.8" font-family="monospace" font-size="14.00">    CPF_BlueprintVisible|CPF_BlueprintReadOnly|CPF_Parm</text>
</g>
<!-- BndEvt__Basic_CheckBox_K2Node_ComponentBoundEvent_8_OnCheckStateChanged__DelegateSignature__0 -->
<g id="node30" class="node">
<title>BndEvt__Basic_CheckBox_K2Node_ComponentBoundEvent_8_OnCheckStateChanged__DelegateSignature__0</title>
<polygon fill="#eeeeee" stroke="black" points="1645.5,-1209.5 1645.5,-1247.5 2214.5,-1247.5 2214.5,-1209.5 1645.5,-1209.5"/>
<text text-anchor="start" x="1653.5" y="-1232.3" font-family="monospace" font-size="14.00">EX_LetValueOnPersistentFrame [K2Node_ComponentBoundEvent_IsChecked]</text>
<text text-anchor="start" x="1653.5" y="-1217.3" font-family="monospace" font-size="14.00">  EX_LocalVariable [IsChecked]</text>
</g>
<!-- BndEvt__Basic_CheckBox_K2Node_ComponentBoundEvent_8_OnCheckStateChanged__DelegateSignature&#45;&gt;BndEvt__Basic_CheckBox_K2Node_ComponentBoundEvent_8_OnCheckStateChanged__DelegateSignature__0 -->
<g id="edge25" class="edge">
<title>BndEvt__Basic_CheckBox_K2Node_ComponentBoundEvent_8_OnCheckStateChanged__DelegateSignature&#45;&gt;BndEvt__Basic_CheckBox_K2Node_ComponentBoundEvent_8_OnCheckStateChanged__DelegateSignature__0</title>
<path fill="none" stroke="black" d="M1930,-1389.16C1930,-1355.02 1930,-1294.4 1930,-1258.48"/>
<polygon fill="black" stroke="black" points="1933.5,-1258.84 1930,-1248.84 1926.5,-1258.84 1933.5,-1258.84"/>
</g>
<!-- BndEvt__Basic_CheckBox_K2Node_ComponentBoundEvent_8_OnCheckStateChanged__DelegateSignature__18 -->
<g id="node31" class="node">
<title>BndEvt__Basic_CheckBox_K2Node_ComponentBoundEvent_8_OnCheckStateChanged__DelegateSignature__18</title>
<polygon fill="#eeeeee" stroke="black" points="1364.5,-1090 1364.5,-1128 2503.5,-1128 2503.5,-1090 1364.5,-1090"/>
<text text-anchor="start" x="1372.5" y="-1112.8" font-family="monospace" font-size="14.00">EX_LocalFinalFunction export Options_PreventLatejoinCharacterDuplication_C&#45;&gt;ExecuteUbergraph_Options_PreventLatejoinCharacterDuplication</text>
<text text-anchor="start" x="1372.5" y="-1097.8" font-family="monospace" font-size="14.00">  EX_IntConst 236</text>
</g>
<!-- BndEvt__Basic_CheckBox_K2Node_ComponentBoundEvent_8_OnCheckStateChanged__DelegateSignature__0&#45;&gt;BndEvt__Basic_CheckBox_K2Node_ComponentBoundEvent_8_OnCheckStateChanged__DelegateSignature__18 -->
<g id="edge26" class="edge">
<title>BndEvt__Basic_CheckBox_K2Node_ComponentBoundEvent_8_OnCheckStateChanged__DelegateSignature__0&#45;&gt;BndEvt__Basic_CheckBox_K2Node_ComponentBoundEvent_8_OnCheckStateChanged__DelegateSignature__18</title>
<path fill="none" stroke="black" d="M1930.61,-1209.65C1931.25,-1190.91 1932.26,-1161.14 1933.01,-1139.02"/>
<polygon fill="black" stroke="black" points="1936.51,-1139.25 1933.35,-1129.14 1929.51,-1139.02 1936.51,-1139.25"/>
</g>
<!-- BndEvt__Basic_CheckBox_K2Node_ComponentBoundEvent_8_OnCheckStateChanged__DelegateSignature__18&#45;&gt;ExecuteUbergraph_Options_PreventLatejoinCharacterDuplication__236 -->
<g id="edge27" class="edge">
<title>BndEvt__Basic_CheckBox_K2Node_ComponentBoundEvent_8_OnCheckStateChanged__DelegateSignature__18:e&#45;&gt;ExecuteUbergraph_Options_PreventLatejoinCharacterDuplication__236</title>
<path fill="none" stroke="red" d="M2505,-1109C2552.93,-1109 2531.78,-1030.7 2516.6,-987.81"/>
<polygon fill="none" stroke="red" points="2519.98,-986.85 2513.25,-978.67 2513.4,-989.26 2519.98,-986.85"/>
</g>
<!-- BndEvt__Basic_CheckBox_K2Node_ComponentBoundEvent_8_OnCheckStateChanged__DelegateSignature__33 -->
<g id="node32" class="node">
<title>BndEvt__Basic_CheckBox_K2Node_ComponentBoundEvent_8_OnCheckStateChanged__DelegateSignature__33</title>
<polygon fill="#eeeeee" stroke="black" points="1876,-940.5 1876,-978.5 1992,-978.5 1992,-940.5 1876,-940.5"/>
<text text-anchor="start" x="1884" y="-963.3" font-family="monospace" font-size="14.00">EX_Return</text>
<text text-anchor="start" x="1884" y="-948.3" font-family="monospace" font-size="14.00">  EX_Nothing</text>
</g>
<!-- BndEvt__Basic_CheckBox_K2Node_ComponentBoundEvent_8_OnCheckStateChanged__DelegateSignature__18&#45;&gt;BndEvt__Basic_CheckBox_K2Node_ComponentBoundEvent_8_OnCheckStateChanged__DelegateSignature__33 -->
<g id="edge28" class="edge">
<title>BndEvt__Basic_CheckBox_K2Node_ComponentBoundEvent_8_OnCheckStateChanged__DelegateSignature__18&#45;&gt;BndEvt__Basic_CheckBox_K2Node_ComponentBoundEvent_8_OnCheckStateChanged__DelegateSignature__33</title>
<path fill="none" stroke="black" d="M1934,-1090.21C1934,-1065.29 1934,-1019.7 1934,-989.75"/>
<polygon fill="black" stroke="black" points="1937.5,-989.87 1934,-979.87 1930.5,-989.87 1937.5,-989.87"/>
</g>
<!-- BndEvt__Basic_CheckBox_K2Node_ComponentBoundEvent_8_OnCheckStateChanged__DelegateSignature__35 -->
<g id="node33" class="node">
<title>BndEvt__Basic_CheckBox_K2Node_ComponentBoundEvent_8_OnCheckStateChanged__DelegateSignature__35</title>
<polygon fill="#eeeeee" stroke="black" points="4335,-1027.5 4335,-1063.5 4467,-1063.5 4467,-1027.5 4335,-1027.5"/>
<text text-anchor="start" x="4343" y="-1041.8" font-family="monospace" font-size="14.00">EX_EndOfScript</text>
</g>
<!-- Construct -->
<g id="node34" class="node">
<title>Construct</title>
<polygon fill="#ff8888" stroke="black" points="3876.5,-1397.5 3876.5,-1433.5 4041.5,-1433.5 4041.5,-1397.5 3876.5,-1397.5"/>
<text text-anchor="start" x="3884.5" y="-1411.8" font-family="monospace" font-size="14.00">Function Construct</text>
</g>
<!-- Construct__0 -->
<g id="node35" class="node">
<title>Construct__0</title>
<polygon fill="#eeeeee" stroke="black" points="3389.5,-1209.5 3389.5,-1247.5 4528.5,-1247.5 4528.5,-1209.5 3389.5,-1209.5"/>
<text text-anchor="start" x="3397.5" y="-1232.3" font-family="monospace" font-size="14.00">EX_LocalFinalFunction export Options_PreventLatejoinCharacterDuplication_C&#45;&gt;ExecuteUbergraph_Options_PreventLatejoinCharacterDuplication</text>
<text text-anchor="start" x="3397.5" y="-1217.3" font-family="monospace" font-size="14.00">  EX_IntConst 10</text>
</g>
<!-- Construct&#45;&gt;Construct__0 -->
<g id="edge29" class="edge">
<title>Construct&#45;&gt;Construct__0</title>
<path fill="none" stroke="black" d="M3959,-1397.76C3959,-1366.31 3959,-1298.05 3959,-1258.82"/>
<polygon fill="black" stroke="black" points="3962.5,-1258.94 3959,-1248.94 3955.5,-1258.94 3962.5,-1258.94"/>
</g>
<!-- Construct__0&#45;&gt;ExecuteUbergraph_Options_PreventLatejoinCharacterDuplication__10 -->
<g id="edge30" class="edge">
<title>Construct__0:e&#45;&gt;ExecuteUbergraph_Options_PreventLatejoinCharacterDuplication__10</title>
<path fill="none" stroke="red" d="M4530,-1228.5C4538.68,-1228.5 4533.52,-1216.41 4529,-1209 4520.7,-1195.4 4509.83,-1201.67 4498,-1191 4483.13,-1177.59 4469.7,-1159.86 4459.43,-1144.41"/>
<polygon fill="none" stroke="red" points="4462.63,-1142.93 4454.27,-1136.42 4456.75,-1146.72 4462.63,-1142.93"/>
</g>
<!-- Construct__15 -->
<g id="node36" class="node">
<title>Construct__15</title>
<polygon fill="#eeeeee" stroke="black" points="3901,-1090 3901,-1128 4017,-1128 4017,-1090 3901,-1090"/>
<text text-anchor="start" x="3909" y="-1112.8" font-family="monospace" font-size="14.00">EX_Return</text>
<text text-anchor="start" x="3909" y="-1097.8" font-family="monospace" font-size="14.00">  EX_Nothing</text>
</g>
<!-- Construct__0&#45;&gt;Construct__15 -->
<g id="edge31" class="edge">
<title>Construct__0&#45;&gt;Construct__15</title>
<path fill="none" stroke="black" d="M3959,-1209.65C3959,-1190.91 3959,-1161.14 3959,-1139.02"/>
<polygon fill="black" stroke="black" points="3962.5,-1139.14 3959,-1129.14 3955.5,-1139.14 3962.5,-1139.14"/>
</g>
<!-- Construct__17 -->
<g id="node37" class="node">
<title>Construct__17</title>
<polygon fill="#eeeeee" stroke="black" points="4131,-855.5 4131,-891.5 4263,-891.5 4263,-855.5 4131,-855.5"/>
<text text-anchor="start" x="4139" y="-869.8" font-family="monospace" font-size="14.00">EX_EndOfScript</text>
</g>
</g>
</svg>
