<?xml version="1.0" encoding="UTF-8" standalone="no"?>
<!DOCTYPE svg PUBLIC "-//W3C//DTD SVG 1.1//EN"
 "http://www.w3.org/Graphics/SVG/1.1/DTD/svg11.dtd">
<!-- Generated by graphviz version 7.0.1 (0)
 -->
<!-- Pages: 1 -->
<svg width="4961pt" height="960pt"
 viewBox="0.00 0.00 4960.50 960.00" xmlns="http://www.w3.org/2000/svg" xmlns:xlink="http://www.w3.org/1999/xlink">
<g id="graph0" class="graph" transform="scale(1 1) rotate(0) translate(4 956)">
<polygon fill="white" stroke="none" points="-4,4 -4,-956 4956.5,-956 4956.5,4 -4,4"/>
<!-- Options_HoldToSprint_C -->
<g id="node1" class="node">
<title>Options_HoldToSprint_C</title>
<polygon fill="#88ff88" stroke="black" points="0,-816 0,-929 850,-929 850,-816 0,-816"/>
<text text-anchor="start" x="8" y="-913.8" font-family="monospace" font-size="14.00">ClassExport: Options_HoldToSprint_C</text>
<text text-anchor="start" x="8" y="-898.8" font-family="monospace" font-size="14.00">  SuperStruct: import /Script/UMG&#45;&gt;UserWidget</text>
<text text-anchor="start" x="8" y="-883.8" font-family="monospace" font-size="14.00">  Properties:</text>
<text text-anchor="start" x="8" y="-868.8" font-family="monospace" font-size="14.00">    StructProperty UberGraphFrame</text>
<text text-anchor="start" x="8" y="-853.8" font-family="monospace" font-size="14.00">      CPF_Transient|CPF_DuplicateTransient</text>
<text text-anchor="start" x="8" y="-838.8" font-family="monospace" font-size="14.00">    ObjectProperty Basic_CheckBox</text>
<text text-anchor="start" x="8" y="-823.8" font-family="monospace" font-size="14.00">      CPF_BlueprintVisible|CPF_ExportObject|CPF_InstancedReference|CPF_RepSkip|CPF_PersistentInstance</text>
</g>
<!-- ExecuteUbergraph_Options_HoldToSprint -->
<g id="node2" class="node">
<title>ExecuteUbergraph_Options_HoldToSprint</title>
<polygon fill="#ff8888" stroke="black" points="868.5,-793.5 868.5,-951.5 1371.5,-951.5 1371.5,-793.5 868.5,-793.5"/>
<text text-anchor="start" x="876.5" y="-936.3" font-family="monospace" font-size="14.00">Function ExecuteUbergraph_Options_HoldToSprint</text>
<text text-anchor="start" x="876.5" y="-921.3" font-family="monospace" font-size="14.00">  IntProperty EntryPoint</text>
<text text-anchor="start" x="876.5" y="-906.3" font-family="monospace" font-size="14.00">    CPF_BlueprintVisible|CPF_BlueprintReadOnly|CPF_Parm</text>
<text text-anchor="start" x="876.5" y="-891.3" font-family="monospace" font-size="14.00">  BoolProperty K2Node_ComponentBoundEvent_IsChecked</text>
<text text-anchor="start" x="876.5" y="-876.3" font-family="monospace" font-size="14.00">  DelegateProperty K2Node_CreateDelegate_OutputDelegate</text>
<text text-anchor="start" x="876.5" y="-861.3" font-family="monospace" font-size="14.00">  ObjectProperty CallFunc_GetFSDGameInstance_ReturnValue</text>
<text text-anchor="start" x="876.5" y="-846.3" font-family="monospace" font-size="14.00">  ObjectProperty CallFunc_GetFSDGameInstance_ReturnValue_1</text>
<text text-anchor="start" x="876.5" y="-831.3" font-family="monospace" font-size="14.00">  ObjectProperty CallFunc_FSDGameUserSettings_ReturnValue</text>
<text text-anchor="start" x="876.5" y="-816.3" font-family="monospace" font-size="14.00">  ObjectProperty CallFunc_FSDGameUserSettings_ReturnValue_1</text>
<text text-anchor="start" x="876.5" y="-801.3" font-family="monospace" font-size="14.00">  BoolProperty CallFunc_GetUseHoldToRun_ReturnValue</text>
</g>
<!-- ExecuteUbergraph_Options_HoldToSprint__0 -->
<g id="node3" class="node">
<title>ExecuteUbergraph_Options_HoldToSprint__0</title>
<polygon fill="#eeeeee" stroke="black" points="984,-718.5 984,-756.5 1256,-756.5 1256,-718.5 984,-718.5"/>
<text text-anchor="start" x="992" y="-741.3" font-family="monospace" font-size="14.00">EX_ComputedJump</text>
<text text-anchor="start" x="992" y="-726.3" font-family="monospace" font-size="14.00">  EX_LocalVariable [EntryPoint]</text>
</g>
<!-- ExecuteUbergraph_Options_HoldToSprint&#45;&gt;ExecuteUbergraph_Options_HoldToSprint__0 -->
<g id="edge1" class="edge">
<title>ExecuteUbergraph_Options_HoldToSprint&#45;&gt;ExecuteUbergraph_Options_HoldToSprint__0</title>
<path fill="none" stroke="black" d="M1120,-793.75C1120,-784.5 1120,-775.54 1120,-767.64"/>
<polygon fill="black" stroke="black" points="1123.5,-767.69 1120,-757.69 1116.5,-767.69 1123.5,-767.69"/>
</g>
<!-- ExecuteUbergraph_Options_HoldToSprint__10 -->
<g id="node4" class="node">
<title>ExecuteUbergraph_Options_HoldToSprint__10</title>
<polygon fill="#eeeeee" stroke="black" points="4325.5,-516 4325.5,-569 4952.5,-569 4952.5,-516 4325.5,-516"/>
<text text-anchor="start" x="4333.5" y="-553.8" font-family="monospace" font-size="14.00">EX_LetObj</text>
<text text-anchor="start" x="4333.5" y="-538.8" font-family="monospace" font-size="14.00">  EX_LocalVariable [CallFunc_FSDGameUserSettings_ReturnValue_1]</text>
<text text-anchor="start" x="4333.5" y="-523.8" font-family="monospace" font-size="14.00">  EX_CallMath import /Script/FSD&#45;&gt;FSDGameUserSettings&#45;&gt;FSDGameUserSettings</text>
</g>
<!-- ExecuteUbergraph_Options_HoldToSprint__30 -->
<g id="node5" class="node">
<title>ExecuteUbergraph_Options_HoldToSprint__30</title>
<polygon fill="#eeeeee" stroke="black" points="3963.5,-366 3963.5,-449 4598.5,-449 4598.5,-366 3963.5,-366"/>
<text text-anchor="start" x="3971.5" y="-433.8" font-family="monospace" font-size="14.00">EX_Context</text>
<text text-anchor="start" x="3971.5" y="-418.8" font-family="monospace" font-size="14.00">  EX_LocalVariable [CallFunc_FSDGameUserSettings_ReturnValue_1]</text>
<text text-anchor="start" x="3971.5" y="-403.8" font-family="monospace" font-size="14.00">  EX_FinalFunction import /Script/FSD&#45;&gt;FSDGameUserSettings&#45;&gt;SetUseHoldToRun</text>
<text text-anchor="start" x="3971.5" y="-388.8" font-family="monospace" font-size="14.00">    EX_LocalVariable [K2Node_ComponentBoundEvent_IsChecked]</text>
<text text-anchor="start" x="3971.5" y="-373.8" font-family="monospace" font-size="14.00">  RValue = []</text>
</g>
<!-- ExecuteUbergraph_Options_HoldToSprint__10&#45;&gt;ExecuteUbergraph_Options_HoldToSprint__30 -->
<g id="edge2" class="edge">
<title>ExecuteUbergraph_Options_HoldToSprint__10&#45;&gt;ExecuteUbergraph_Options_HoldToSprint__30</title>
<path fill="none" stroke="black" d="M4570.4,-516.01C4522.33,-498.16 4456.83,-473.82 4400.3,-452.82"/>
<polygon fill="black" stroke="black" points="4401.87,-449.67 4391.28,-449.47 4399.43,-456.23 4401.87,-449.67"/>
</g>
<!-- ExecuteUbergraph_Options_HoldToSprint__71 -->
<g id="node6" class="node">
<title>ExecuteUbergraph_Options_HoldToSprint__71</title>
<polygon fill="#eeeeee" stroke="black" points="3778.5,-253.5 3778.5,-321.5 4397.5,-321.5 4397.5,-253.5 3778.5,-253.5"/>
<text text-anchor="start" x="3786.5" y="-306.3" font-family="monospace" font-size="14.00">EX_LetObj</text>
<text text-anchor="start" x="3786.5" y="-291.3" font-family="monospace" font-size="14.00">  EX_LocalVariable [CallFunc_GetFSDGameInstance_ReturnValue_1]</text>
<text text-anchor="start" x="3786.5" y="-276.3" font-family="monospace" font-size="14.00">  EX_CallMath import /Script/FSD&#45;&gt;GameFunctionLibrary&#45;&gt;GetFSDGameInstance</text>
<text text-anchor="start" x="3786.5" y="-261.3" font-family="monospace" font-size="14.00">    EX_Self</text>
</g>
<!-- ExecuteUbergraph_Options_HoldToSprint__30&#45;&gt;ExecuteUbergraph_Options_HoldToSprint__71 -->
<g id="edge3" class="edge">
<title>ExecuteUbergraph_Options_HoldToSprint__30&#45;&gt;ExecuteUbergraph_Options_HoldToSprint__71</title>
<path fill="none" stroke="black" d="M4214.85,-366.06C4194.41,-353.56 4171.94,-339.82 4151.67,-327.43"/>
<polygon fill="black" stroke="black" points="4153.56,-324.48 4143.2,-322.25 4149.91,-330.45 4153.56,-324.48"/>
</g>
<!-- ExecuteUbergraph_Options_HoldToSprint__92 -->
<g id="node7" class="node">
<title>ExecuteUbergraph_Options_HoldToSprint__92</title>
<polygon fill="#eeeeee" stroke="black" points="3543,-148.5 3543,-216.5 4211,-216.5 4211,-148.5 3543,-148.5"/>
<text text-anchor="start" x="3551" y="-201.3" font-family="monospace" font-size="14.00">EX_Context</text>
<text text-anchor="start" x="3551" y="-186.3" font-family="monospace" font-size="14.00">  EX_LocalVariable [CallFunc_GetFSDGameInstance_ReturnValue_1]</text>
<text text-anchor="start" x="3551" y="-171.3" font-family="monospace" font-size="14.00">  EX_FinalFunction import /Script/FSD&#45;&gt;FSDGameInstance&#45;&gt;GameUserSettingsChanged</text>
<text text-anchor="start" x="3551" y="-156.3" font-family="monospace" font-size="14.00">  RValue = []</text>
</g>
<!-- ExecuteUbergraph_Options_HoldToSprint__71&#45;&gt;ExecuteUbergraph_Options_HoldToSprint__92 -->
<g id="edge4" class="edge">
<title>ExecuteUbergraph_Options_HoldToSprint__71&#45;&gt;ExecuteUbergraph_Options_HoldToSprint__92</title>
<path fill="none" stroke="black" d="M4020.66,-253.63C3999.63,-243.36 3976.26,-231.95 3954.58,-221.37"/>
<polygon fill="black" stroke="black" points="3956.31,-218.32 3945.79,-217.08 3953.24,-224.61 3956.31,-218.32"/>
</g>
<!-- ExecuteUbergraph_Options_HoldToSprint__124 -->
<g id="node8" class="node">
<title>ExecuteUbergraph_Options_HoldToSprint__124</title>
<polygon fill="#eeeeee" stroke="black" points="3549.5,-75.5 3549.5,-111.5 3656.5,-111.5 3656.5,-75.5 3549.5,-75.5"/>
<text text-anchor="start" x="3557.5" y="-89.8" font-family="monospace" font-size="14.00">EX_Jump 359</text>
</g>
<!-- ExecuteUbergraph_Options_HoldToSprint__92&#45;&gt;ExecuteUbergraph_Options_HoldToSprint__124 -->
<g id="edge5" class="edge">
<title>ExecuteUbergraph_Options_HoldToSprint__92&#45;&gt;ExecuteUbergraph_Options_HoldToSprint__124</title>
<path fill="none" stroke="black" d="M3773.41,-148.61C3737.76,-137.29 3698.89,-124.95 3667.29,-114.91"/>
<polygon fill="black" stroke="black" points="3668.46,-111.61 3657.87,-111.92 3666.35,-118.29 3668.46,-111.61"/>
</g>
<!-- ExecuteUbergraph_Options_HoldToSprint__359 -->
<g id="node19" class="node">
<title>ExecuteUbergraph_Options_HoldToSprint__359</title>
<polygon fill="#eeeeee" stroke="black" points="3111,-0.5 3111,-38.5 3227,-38.5 3227,-0.5 3111,-0.5"/>
<text text-anchor="start" x="3119" y="-23.3" font-family="monospace" font-size="14.00">EX_Return</text>
<text text-anchor="start" x="3119" y="-8.3" font-family="monospace" font-size="14.00">  EX_Nothing</text>
</g>
<!-- ExecuteUbergraph_Options_HoldToSprint__124&#45;&gt;ExecuteUbergraph_Options_HoldToSprint__359 -->
<g id="edge6" class="edge">
<title>ExecuteUbergraph_Options_HoldToSprint__124&#45;&gt;ExecuteUbergraph_Options_HoldToSprint__359</title>
<path fill="none" stroke="black" d="M3549.76,-86.85C3480.27,-79.01 3354.74,-63.26 3238.24,-39.33"/>
<polygon fill="black" stroke="black" points="3238.98,-35.91 3228.48,-37.3 3237.55,-42.76 3238.98,-35.91"/>
</g>
<!-- ExecuteUbergraph_Options_HoldToSprint__129 -->
<g id="node9" class="node">
<title>ExecuteUbergraph_Options_HoldToSprint__129</title>
<polygon fill="#eeeeee" stroke="black" points="1829.5,-628.5 1829.5,-681.5 2316.5,-681.5 2316.5,-628.5 1829.5,-628.5"/>
<text text-anchor="start" x="1837.5" y="-666.3" font-family="monospace" font-size="14.00">EX_BindDelegate UINeedsUpdate</text>
<text text-anchor="start" x="1837.5" y="-651.3" font-family="monospace" font-size="14.00">  EX_LocalVariable [K2Node_CreateDelegate_OutputDelegate]</text>
<text text-anchor="start" x="1837.5" y="-636.3" font-family="monospace" font-size="14.00">  EX_Self</text>
</g>
<!-- ExecuteUbergraph_Options_HoldToSprint__152 -->
<g id="node10" class="node">
<title>ExecuteUbergraph_Options_HoldToSprint__152</title>
<polygon fill="#eeeeee" stroke="black" points="2112.5,-508.5 2112.5,-576.5 2731.5,-576.5 2731.5,-508.5 2112.5,-508.5"/>
<text text-anchor="start" x="2120.5" y="-561.3" font-family="monospace" font-size="14.00">EX_LetObj</text>
<text text-anchor="start" x="2120.5" y="-546.3" font-family="monospace" font-size="14.00">  EX_LocalVariable [CallFunc_GetFSDGameInstance_ReturnValue]</text>
<text text-anchor="start" x="2120.5" y="-531.3" font-family="monospace" font-size="14.00">  EX_CallMath import /Script/FSD&#45;&gt;GameFunctionLibrary&#45;&gt;GetFSDGameInstance</text>
<text text-anchor="start" x="2120.5" y="-516.3" font-family="monospace" font-size="14.00">    EX_Self</text>
</g>
<!-- ExecuteUbergraph_Options_HoldToSprint__129&#45;&gt;ExecuteUbergraph_Options_HoldToSprint__152 -->
<g id="edge7" class="edge">
<title>ExecuteUbergraph_Options_HoldToSprint__129&#45;&gt;ExecuteUbergraph_Options_HoldToSprint__152</title>
<path fill="none" stroke="black" d="M2153.51,-628.51C2199.08,-614.08 2256.84,-595.79 2307.11,-579.88"/>
<polygon fill="black" stroke="black" points="2308.12,-583.23 2316.6,-576.87 2306.01,-576.55 2308.12,-583.23"/>
</g>
<!-- ExecuteUbergraph_Options_HoldToSprint__173 -->
<g id="node11" class="node">
<title>ExecuteUbergraph_Options_HoldToSprint__173</title>
<polygon fill="#eeeeee" stroke="black" points="2272,-358.5 2272,-456.5 2800,-456.5 2800,-358.5 2272,-358.5"/>
<text text-anchor="start" x="2280" y="-441.3" font-family="monospace" font-size="14.00">EX_AddMulticastDelegate</text>
<text text-anchor="start" x="2280" y="-426.3" font-family="monospace" font-size="14.00">  EX_Context</text>
<text text-anchor="start" x="2280" y="-411.3" font-family="monospace" font-size="14.00">    EX_LocalVariable [CallFunc_GetFSDGameInstance_ReturnValue]</text>
<text text-anchor="start" x="2280" y="-396.3" font-family="monospace" font-size="14.00">    EX_InstanceVariable [OnGameSettingsChanged]</text>
<text text-anchor="start" x="2280" y="-381.3" font-family="monospace" font-size="14.00">    RValue = [OnGameSettingsChanged]</text>
<text text-anchor="start" x="2280" y="-366.3" font-family="monospace" font-size="14.00">  EX_LocalVariable [K2Node_CreateDelegate_OutputDelegate]</text>
</g>
<!-- ExecuteUbergraph_Options_HoldToSprint__152&#45;&gt;ExecuteUbergraph_Options_HoldToSprint__173 -->
<g id="edge8" class="edge">
<title>ExecuteUbergraph_Options_HoldToSprint__152&#45;&gt;ExecuteUbergraph_Options_HoldToSprint__173</title>
<path fill="none" stroke="black" d="M2450.18,-508.62C2461.48,-495.44 2474.83,-479.87 2487.59,-464.98"/>
<polygon fill="black" stroke="black" points="2490.18,-467.33 2494.03,-457.46 2484.87,-462.78 2490.18,-467.33"/>
</g>
<!-- ExecuteUbergraph_Options_HoldToSprint__214 -->
<g id="node12" class="node">
<title>ExecuteUbergraph_Options_HoldToSprint__214</title>
<polygon fill="#eeeeee" stroke="black" points="2495.5,-269.5 2495.5,-305.5 2800.5,-305.5 2800.5,-269.5 2495.5,-269.5"/>
<text text-anchor="start" x="2503.5" y="-283.8" font-family="monospace" font-size="14.00">EX_LocalVirtualFunction ShowOptions</text>
</g>
<!-- ExecuteUbergraph_Options_HoldToSprint__173&#45;&gt;ExecuteUbergraph_Options_HoldToSprint__214 -->
<g id="edge9" class="edge">
<title>ExecuteUbergraph_Options_HoldToSprint__173&#45;&gt;ExecuteUbergraph_Options_HoldToSprint__214</title>
<path fill="none" stroke="black" d="M2581.55,-358.5C2596.26,-343.01 2611.96,-326.47 2624.41,-313.36"/>
<polygon fill="black" stroke="black" points="2626.68,-316.04 2631.03,-306.38 2621.61,-311.22 2626.68,-316.04"/>
</g>
<!-- ExecuteUbergraph_Options_HoldToSprint__228 -->
<g id="node13" class="node">
<title>ExecuteUbergraph_Options_HoldToSprint__228</title>
<polygon fill="#eeeeee" stroke="black" points="2643.5,-164.5 2643.5,-200.5 2750.5,-200.5 2750.5,-164.5 2643.5,-164.5"/>
<text text-anchor="start" x="2651.5" y="-178.8" font-family="monospace" font-size="14.00">EX_Jump 359</text>
</g>
<!-- ExecuteUbergraph_Options_HoldToSprint__214&#45;&gt;ExecuteUbergraph_Options_HoldToSprint__228 -->
<g id="edge10" class="edge">
<title>ExecuteUbergraph_Options_HoldToSprint__214&#45;&gt;ExecuteUbergraph_Options_HoldToSprint__228</title>
<path fill="none" stroke="black" d="M2655.87,-269.95C2663.47,-253.98 2675.11,-229.51 2684.07,-210.68"/>
<polygon fill="black" stroke="black" points="2687.2,-212.25 2688.33,-201.72 2680.88,-209.24 2687.2,-212.25"/>
</g>
<!-- ExecuteUbergraph_Options_HoldToSprint__228&#45;&gt;ExecuteUbergraph_Options_HoldToSprint__359 -->
<g id="edge11" class="edge">
<title>ExecuteUbergraph_Options_HoldToSprint__228&#45;&gt;ExecuteUbergraph_Options_HoldToSprint__359</title>
<path fill="none" stroke="black" d="M2746.62,-164.57C2833,-135.11 3010.82,-74.45 3105.85,-42.04"/>
<polygon fill="black" stroke="black" points="3106.7,-45.45 3115.03,-38.91 3104.44,-38.83 3106.7,-45.45"/>
</g>
<!-- ExecuteUbergraph_Options_HoldToSprint__233 -->
<g id="node14" class="node">
<title>ExecuteUbergraph_Options_HoldToSprint__233</title>
<polygon fill="#eeeeee" stroke="black" points="2697.5,-637 2697.5,-673 3002.5,-673 3002.5,-637 2697.5,-637"/>
<text text-anchor="start" x="2705.5" y="-651.3" font-family="monospace" font-size="14.00">EX_LocalVirtualFunction ShowOptions</text>
</g>
<!-- ExecuteUbergraph_Options_HoldToSprint__247 -->
<g id="node15" class="node">
<title>ExecuteUbergraph_Options_HoldToSprint__247</title>
<polygon fill="#eeeeee" stroke="black" points="3037.5,-75.5 3037.5,-111.5 3144.5,-111.5 3144.5,-75.5 3037.5,-75.5"/>
<text text-anchor="start" x="3045.5" y="-89.8" font-family="monospace" font-size="14.00">EX_Jump 359</text>
</g>
<!-- ExecuteUbergraph_Options_HoldToSprint__233&#45;&gt;ExecuteUbergraph_Options_HoldToSprint__247 -->
<g id="edge12" class="edge">
<title>ExecuteUbergraph_Options_HoldToSprint__233&#45;&gt;ExecuteUbergraph_Options_HoldToSprint__247</title>
<path fill="none" stroke="black" d="M2860.98,-637.24C2885.18,-598.61 2941,-499.64 2941,-408.5 2941,-408.5 2941,-408.5 2941,-286.5 2941,-212.61 3010.84,-150.16 3055.21,-117.94"/>
<polygon fill="black" stroke="black" points="3057.15,-120.86 3063.29,-112.22 3053.11,-115.14 3057.15,-120.86"/>
</g>
<!-- ExecuteUbergraph_Options_HoldToSprint__247&#45;&gt;ExecuteUbergraph_Options_HoldToSprint__359 -->
<g id="edge13" class="edge">
<title>ExecuteUbergraph_Options_HoldToSprint__247&#45;&gt;ExecuteUbergraph_Options_HoldToSprint__359</title>
<path fill="none" stroke="black" d="M3109.09,-75.8C3118.68,-66.95 3130.66,-55.89 3141.38,-45.99"/>
<polygon fill="black" stroke="black" points="3143.56,-48.75 3148.53,-39.39 3138.81,-43.6 3143.56,-48.75"/>
</g>
<!-- ExecuteUbergraph_Options_HoldToSprint__252 -->
<g id="node16" class="node">
<title>ExecuteUbergraph_Options_HoldToSprint__252</title>
<polygon fill="#eeeeee" stroke="black" points="3234.5,-628.5 3234.5,-681.5 3861.5,-681.5 3861.5,-628.5 3234.5,-628.5"/>
<text text-anchor="start" x="3242.5" y="-666.3" font-family="monospace" font-size="14.00">EX_LetObj</text>
<text text-anchor="start" x="3242.5" y="-651.3" font-family="monospace" font-size="14.00">  EX_LocalVariable [CallFunc_FSDGameUserSettings_ReturnValue]</text>
<text text-anchor="start" x="3242.5" y="-636.3" font-family="monospace" font-size="14.00">  EX_CallMath import /Script/FSD&#45;&gt;FSDGameUserSettings&#45;&gt;FSDGameUserSettings</text>
</g>
<!-- ExecuteUbergraph_Options_HoldToSprint__272 -->
<g id="node17" class="node">
<title>ExecuteUbergraph_Options_HoldToSprint__272</title>
<polygon fill="#eeeeee" stroke="black" points="3090,-493.5 3090,-591.5 3742,-591.5 3742,-493.5 3090,-493.5"/>
<text text-anchor="start" x="3098" y="-576.3" font-family="monospace" font-size="14.00">EX_LetBool</text>
<text text-anchor="start" x="3098" y="-561.3" font-family="monospace" font-size="14.00">  EX_LocalVariable [CallFunc_GetUseHoldToRun_ReturnValue]</text>
<text text-anchor="start" x="3098" y="-546.3" font-family="monospace" font-size="14.00">  EX_Context</text>
<text text-anchor="start" x="3098" y="-531.3" font-family="monospace" font-size="14.00">    EX_LocalVariable [CallFunc_FSDGameUserSettings_ReturnValue]</text>
<text text-anchor="start" x="3098" y="-516.3" font-family="monospace" font-size="14.00">    EX_FinalFunction import /Script/FSD&#45;&gt;FSDGameUserSettings&#45;&gt;GetUseHoldToRun</text>
<text text-anchor="start" x="3098" y="-501.3" font-family="monospace" font-size="14.00">    RValue = [CallFunc_GetUseHoldToRun_ReturnValue]</text>
</g>
<!-- ExecuteUbergraph_Options_HoldToSprint__252&#45;&gt;ExecuteUbergraph_Options_HoldToSprint__272 -->
<g id="edge14" class="edge">
<title>ExecuteUbergraph_Options_HoldToSprint__252&#45;&gt;ExecuteUbergraph_Options_HoldToSprint__272</title>
<path fill="none" stroke="black" d="M3517.72,-628.65C3506.96,-619.64 3494.38,-609.12 3481.82,-598.6"/>
<polygon fill="black" stroke="black" points="3484.22,-596.04 3474.3,-592.31 3479.72,-601.41 3484.22,-596.04"/>
</g>
<!-- ExecuteUbergraph_Options_HoldToSprint__314 -->
<g id="node18" class="node">
<title>ExecuteUbergraph_Options_HoldToSprint__314</title>
<polygon fill="#eeeeee" stroke="black" points="3072.5,-366 3072.5,-449 3575.5,-449 3575.5,-366 3072.5,-366"/>
<text text-anchor="start" x="3080.5" y="-433.8" font-family="monospace" font-size="14.00">EX_Context</text>
<text text-anchor="start" x="3080.5" y="-418.8" font-family="monospace" font-size="14.00">  EX_InstanceVariable [Basic_CheckBox]</text>
<text text-anchor="start" x="3080.5" y="-403.8" font-family="monospace" font-size="14.00">  EX_LocalVirtualFunction SetIsChecked</text>
<text text-anchor="start" x="3080.5" y="-388.8" font-family="monospace" font-size="14.00">    EX_LocalVariable [CallFunc_GetUseHoldToRun_ReturnValue]</text>
<text text-anchor="start" x="3080.5" y="-373.8" font-family="monospace" font-size="14.00">  RValue = []</text>
</g>
<!-- ExecuteUbergraph_Options_HoldToSprint__272&#45;&gt;ExecuteUbergraph_Options_HoldToSprint__314 -->
<g id="edge15" class="edge">
<title>ExecuteUbergraph_Options_HoldToSprint__272&#45;&gt;ExecuteUbergraph_Options_HoldToSprint__314</title>
<path fill="none" stroke="black" d="M3383.05,-493.86C3374.99,-482.21 3366.35,-469.73 3358.24,-458"/>
<polygon fill="black" stroke="black" points="3361.29,-456.26 3352.73,-450.03 3355.54,-460.24 3361.29,-456.26"/>
</g>
<!-- ExecuteUbergraph_Options_HoldToSprint__314&#45;&gt;ExecuteUbergraph_Options_HoldToSprint__359 -->
<g id="edge16" class="edge">
<title>ExecuteUbergraph_Options_HoldToSprint__314&#45;&gt;ExecuteUbergraph_Options_HoldToSprint__359</title>
<path fill="none" stroke="black" d="M3307.85,-366.28C3276.34,-287.81 3207.38,-116.08 3180.27,-48.56"/>
<polygon fill="black" stroke="black" points="3183.68,-47.66 3176.71,-39.69 3177.18,-50.27 3183.68,-47.66"/>
</g>
<!-- ExecuteUbergraph_Options_HoldToSprint__361 -->
<g id="node20" class="node">
<title>ExecuteUbergraph_Options_HoldToSprint__361</title>
<polygon fill="#eeeeee" stroke="black" points="3675,-75.5 3675,-111.5 3807,-111.5 3807,-75.5 3675,-75.5"/>
<text text-anchor="start" x="3683" y="-89.8" font-family="monospace" font-size="14.00">EX_EndOfScript</text>
</g>
<!-- BndEvt__Basic_CheckBox_K2Node_ComponentBoundEvent_8_OnCheckStateChanged__DelegateSignature -->
<g id="node21" class="node">
<title>BndEvt__Basic_CheckBox_K2Node_ComponentBoundEvent_8_OnCheckStateChanged__DelegateSignature</title>
<polygon fill="#ff8888" stroke="black" points="3842.5,-846 3842.5,-899 4675.5,-899 4675.5,-846 3842.5,-846"/>
<text text-anchor="start" x="3850.5" y="-883.8" font-family="monospace" font-size="14.00">Function BndEvt__Basic_CheckBox_K2Node_ComponentBoundEvent_8_OnCheckStateChanged__DelegateSignature</text>
<text text-anchor="start" x="3850.5" y="-868.8" font-family="monospace" font-size="14.00">  BoolProperty IsChecked</text>
<text text-anchor="start" x="3850.5" y="-853.8" font-family="monospace" font-size="14.00">    CPF_BlueprintVisible|CPF_BlueprintReadOnly|CPF_Parm</text>
</g>
<!-- BndEvt__Basic_CheckBox_K2Node_ComponentBoundEvent_8_OnCheckStateChanged__DelegateSignature__0 -->
<g id="node22" class="node">
<title>BndEvt__Basic_CheckBox_K2Node_ComponentBoundEvent_8_OnCheckStateChanged__DelegateSignature__0</title>
<polygon fill="#eeeeee" stroke="black" points="3974.5,-718.5 3974.5,-756.5 4543.5,-756.5 4543.5,-718.5 3974.5,-718.5"/>
<text text-anchor="start" x="3982.5" y="-741.3" font-family="monospace" font-size="14.00">EX_LetValueOnPersistentFrame [K2Node_ComponentBoundEvent_IsChecked]</text>
<text text-anchor="start" x="3982.5" y="-726.3" font-family="monospace" font-size="14.00">  EX_LocalVariable [IsChecked]</text>
</g>
<!-- BndEvt__Basic_CheckBox_K2Node_ComponentBoundEvent_8_OnCheckStateChanged__DelegateSignature&#45;&gt;BndEvt__Basic_CheckBox_K2Node_ComponentBoundEvent_8_OnCheckStateChanged__DelegateSignature__0 -->
<g id="edge17" class="edge">
<title>BndEvt__Basic_CheckBox_K2Node_ComponentBoundEvent_8_OnCheckStateChanged__DelegateSignature&#45;&gt;BndEvt__Basic_CheckBox_K2Node_ComponentBoundEvent_8_OnCheckStateChanged__DelegateSignature__0</title>
<path fill="none" stroke="black" d="M4259,-846.17C4259,-823.84 4259,-791.29 4259,-767.83"/>
<polygon fill="black" stroke="black" points="4262.5,-768 4259,-758 4255.5,-768 4262.5,-768"/>
</g>
<!-- BndEvt__Basic_CheckBox_K2Node_ComponentBoundEvent_8_OnCheckStateChanged__DelegateSignature__18 -->
<g id="node23" class="node">
<title>BndEvt__Basic_CheckBox_K2Node_ComponentBoundEvent_8_OnCheckStateChanged__DelegateSignature__18</title>
<polygon fill="#eeeeee" stroke="black" points="3879.5,-636 3879.5,-674 4638.5,-674 4638.5,-636 3879.5,-636"/>
<text text-anchor="start" x="3887.5" y="-658.8" font-family="monospace" font-size="14.00">EX_LocalFinalFunction export Options_HoldToSprint_C&#45;&gt;ExecuteUbergraph_Options_HoldToSprint</text>
<text text-anchor="start" x="3887.5" y="-643.8" font-family="monospace" font-size="14.00">  EX_IntConst 10</text>
</g>
<!-- BndEvt__Basic_CheckBox_K2Node_ComponentBoundEvent_8_OnCheckStateChanged__DelegateSignature__0&#45;&gt;BndEvt__Basic_CheckBox_K2Node_ComponentBoundEvent_8_OnCheckStateChanged__DelegateSignature__18 -->
<g id="edge18" class="edge">
<title>BndEvt__Basic_CheckBox_K2Node_ComponentBoundEvent_8_OnCheckStateChanged__DelegateSignature__0&#45;&gt;BndEvt__Basic_CheckBox_K2Node_ComponentBoundEvent_8_OnCheckStateChanged__DelegateSignature__18</title>
<path fill="none" stroke="black" d="M4259,-718.63C4259,-708.84 4259,-696.45 4259,-685.28"/>
<polygon fill="black" stroke="black" points="4262.5,-685.33 4259,-675.33 4255.5,-685.33 4262.5,-685.33"/>
</g>
<!-- BndEvt__Basic_CheckBox_K2Node_ComponentBoundEvent_8_OnCheckStateChanged__DelegateSignature__18&#45;&gt;ExecuteUbergraph_Options_HoldToSprint__10 -->
<g id="edge19" class="edge">
<title>BndEvt__Basic_CheckBox_K2Node_ComponentBoundEvent_8_OnCheckStateChanged__DelegateSignature__18:e&#45;&gt;ExecuteUbergraph_Options_HoldToSprint__10</title>
<path fill="none" stroke="red" d="M4640,-655C4670.78,-655 4662.94,-611.98 4652.57,-579.38"/>
<polygon fill="none" stroke="red" points="4656,-578.6 4649.5,-570.24 4649.37,-580.83 4656,-578.6"/>
</g>
<!-- BndEvt__Basic_CheckBox_K2Node_ComponentBoundEvent_8_OnCheckStateChanged__DelegateSignature__33 -->
<g id="node24" class="node">
<title>BndEvt__Basic_CheckBox_K2Node_ComponentBoundEvent_8_OnCheckStateChanged__DelegateSignature__33</title>
<polygon fill="#eeeeee" stroke="black" points="4191,-523.5 4191,-561.5 4307,-561.5 4307,-523.5 4191,-523.5"/>
<text text-anchor="start" x="4199" y="-546.3" font-family="monospace" font-size="14.00">EX_Return</text>
<text text-anchor="start" x="4199" y="-531.3" font-family="monospace" font-size="14.00">  EX_Nothing</text>
</g>
<!-- BndEvt__Basic_CheckBox_K2Node_ComponentBoundEvent_8_OnCheckStateChanged__DelegateSignature__18&#45;&gt;BndEvt__Basic_CheckBox_K2Node_ComponentBoundEvent_8_OnCheckStateChanged__DelegateSignature__33 -->
<g id="edge20" class="edge">
<title>BndEvt__Basic_CheckBox_K2Node_ComponentBoundEvent_8_OnCheckStateChanged__DelegateSignature__18&#45;&gt;BndEvt__Basic_CheckBox_K2Node_ComponentBoundEvent_8_OnCheckStateChanged__DelegateSignature__33</title>
<path fill="none" stroke="black" d="M4257.39,-636.25C4255.84,-619.09 4253.46,-592.8 4251.63,-572.58"/>
<polygon fill="black" stroke="black" points="4255.13,-572.36 4250.74,-562.72 4248.15,-572.99 4255.13,-572.36"/>
</g>
<!-- BndEvt__Basic_CheckBox_K2Node_ComponentBoundEvent_8_OnCheckStateChanged__DelegateSignature__35 -->
<g id="node25" class="node">
<title>BndEvt__Basic_CheckBox_K2Node_ComponentBoundEvent_8_OnCheckStateChanged__DelegateSignature__35</title>
<polygon fill="#eeeeee" stroke="black" points="3245,-1.5 3245,-37.5 3377,-37.5 3377,-1.5 3245,-1.5"/>
<text text-anchor="start" x="3253" y="-15.8" font-family="monospace" font-size="14.00">EX_EndOfScript</text>
</g>
<!-- ShowOptions -->
<g id="node26" class="node">
<title>ShowOptions</title>
<polygon fill="#ff8888" stroke="black" points="3117,-854.5 3117,-890.5 3299,-890.5 3299,-854.5 3117,-854.5"/>
<text text-anchor="start" x="3125" y="-868.8" font-family="monospace" font-size="14.00">Function ShowOptions</text>
</g>
<!-- ShowOptions__0 -->
<g id="node27" class="node">
<title>ShowOptions__0</title>
<polygon fill="#eeeeee" stroke="black" points="2828.5,-718.5 2828.5,-756.5 3587.5,-756.5 3587.5,-718.5 2828.5,-718.5"/>
<text text-anchor="start" x="2836.5" y="-741.3" font-family="monospace" font-size="14.00">EX_LocalFinalFunction export Options_HoldToSprint_C&#45;&gt;ExecuteUbergraph_Options_HoldToSprint</text>
<text text-anchor="start" x="2836.5" y="-726.3" font-family="monospace" font-size="14.00">  EX_IntConst 252</text>
</g>
<!-- ShowOptions&#45;&gt;ShowOptions__0 -->
<g id="edge21" class="edge">
<title>ShowOptions&#45;&gt;ShowOptions__0</title>
<path fill="none" stroke="black" d="M3208,-854.66C3208,-832.83 3208,-794.44 3208,-767.79"/>
<polygon fill="black" stroke="black" points="3211.5,-767.99 3208,-757.99 3204.5,-767.99 3211.5,-767.99"/>
</g>
<!-- ShowOptions__0&#45;&gt;ExecuteUbergraph_Options_HoldToSprint__252 -->
<g id="edge22" class="edge">
<title>ShowOptions__0:e&#45;&gt;ExecuteUbergraph_Options_HoldToSprint__252</title>
<path fill="none" stroke="red" d="M3589,-737.5C3611.51,-737.5 3596.39,-712.38 3578.48,-690.03"/>
<polygon fill="none" stroke="red" points="3581.32,-687.97 3572.25,-682.51 3575.93,-692.44 3581.32,-687.97"/>
</g>
<!-- ShowOptions__15 -->
<g id="node28" class="node">
<title>ShowOptions__15</title>
<polygon fill="#eeeeee" stroke="black" points="3100,-636 3100,-674 3216,-674 3216,-636 3100,-636"/>
<text text-anchor="start" x="3108" y="-658.8" font-family="monospace" font-size="14.00">EX_Return</text>
<text text-anchor="start" x="3108" y="-643.8" font-family="monospace" font-size="14.00">  EX_Nothing</text>
</g>
<!-- ShowOptions__0&#45;&gt;ShowOptions__15 -->
<g id="edge23" class="edge">
<title>ShowOptions__0&#45;&gt;ShowOptions__15</title>
<path fill="none" stroke="black" d="M3196.9,-718.63C3190.49,-708.32 3182.3,-695.12 3175.08,-683.51"/>
<polygon fill="black" stroke="black" points="3178.11,-681.75 3169.86,-675.1 3172.17,-685.44 3178.11,-681.75"/>
</g>
<!-- ShowOptions__17 -->
<g id="node29" class="node">
<title>ShowOptions__17</title>
<polygon fill="#eeeeee" stroke="black" points="4416,-269.5 4416,-305.5 4548,-305.5 4548,-269.5 4416,-269.5"/>
<text text-anchor="start" x="4424" y="-283.8" font-family="monospace" font-size="14.00">EX_EndOfScript</text>
</g>
<!-- UINeedsUpdate -->
<g id="node30" class="node">
<title>UINeedsUpdate</title>
<polygon fill="#ff8888" stroke="black" points="2332,-854.5 2332,-890.5 2530,-890.5 2530,-854.5 2332,-854.5"/>
<text text-anchor="start" x="2340" y="-868.8" font-family="monospace" font-size="14.00">Function UINeedsUpdate</text>
</g>
<!-- UINeedsUpdate__0 -->
<g id="node31" class="node">
<title>UINeedsUpdate__0</title>
<polygon fill="#eeeeee" stroke="black" points="2051.5,-718.5 2051.5,-756.5 2810.5,-756.5 2810.5,-718.5 2051.5,-718.5"/>
<text text-anchor="start" x="2059.5" y="-741.3" font-family="monospace" font-size="14.00">EX_LocalFinalFunction export Options_HoldToSprint_C&#45;&gt;ExecuteUbergraph_Options_HoldToSprint</text>
<text text-anchor="start" x="2059.5" y="-726.3" font-family="monospace" font-size="14.00">  EX_IntConst 233</text>
</g>
<!-- UINeedsUpdate&#45;&gt;UINeedsUpdate__0 -->
<g id="edge24" class="edge">
<title>UINeedsUpdate&#45;&gt;UINeedsUpdate__0</title>
<path fill="none" stroke="black" d="M2431,-854.66C2431,-832.83 2431,-794.44 2431,-767.79"/>
<polygon fill="black" stroke="black" points="2434.5,-767.99 2431,-757.99 2427.5,-767.99 2434.5,-767.99"/>
</g>
<!-- UINeedsUpdate__0&#45;&gt;ExecuteUbergraph_Options_HoldToSprint__233 -->
<g id="edge25" class="edge">
<title>UINeedsUpdate__0:e&#45;&gt;ExecuteUbergraph_Options_HoldToSprint__233</title>
<path fill="none" stroke="red" d="M2812,-737.5C2821.21,-737.5 2815.38,-726.47 2819,-718 2824,-706.3 2830.16,-693.69 2835.67,-682.91"/>
<polygon fill="none" stroke="red" points="2838.7,-684.68 2840.2,-674.19 2832.48,-681.46 2838.7,-684.68"/>
</g>
<!-- UINeedsUpdate__15 -->
<g id="node32" class="node">
<title>UINeedsUpdate__15</title>
<polygon fill="#eeeeee" stroke="black" points="2373,-636 2373,-674 2489,-674 2489,-636 2373,-636"/>
<text text-anchor="start" x="2381" y="-658.8" font-family="monospace" font-size="14.00">EX_Return</text>
<text text-anchor="start" x="2381" y="-643.8" font-family="monospace" font-size="14.00">  EX_Nothing</text>
</g>
<!-- UINeedsUpdate__0&#45;&gt;UINeedsUpdate__15 -->
<g id="edge26" class="edge">
<title>UINeedsUpdate__0&#45;&gt;UINeedsUpdate__15</title>
<path fill="none" stroke="black" d="M2431,-718.63C2431,-708.84 2431,-696.45 2431,-685.28"/>
<polygon fill="black" stroke="black" points="2434.5,-685.33 2431,-675.33 2427.5,-685.33 2434.5,-685.33"/>
</g>
<!-- UINeedsUpdate__17 -->
<g id="node33" class="node">
<title>UINeedsUpdate__17</title>
<polygon fill="#eeeeee" stroke="black" points="4229,-164.5 4229,-200.5 4361,-200.5 4361,-164.5 4229,-164.5"/>
<text text-anchor="start" x="4237" y="-178.8" font-family="monospace" font-size="14.00">EX_EndOfScript</text>
</g>
<!-- Construct -->
<g id="node34" class="node">
<title>Construct</title>
<polygon fill="#ff8888" stroke="black" points="1571.5,-854.5 1571.5,-890.5 1736.5,-890.5 1736.5,-854.5 1571.5,-854.5"/>
<text text-anchor="start" x="1579.5" y="-868.8" font-family="monospace" font-size="14.00">Function Construct</text>
</g>
<!-- Construct__0 -->
<g id="node35" class="node">
<title>Construct__0</title>
<polygon fill="#eeeeee" stroke="black" points="1274.5,-718.5 1274.5,-756.5 2033.5,-756.5 2033.5,-718.5 1274.5,-718.5"/>
<text text-anchor="start" x="1282.5" y="-741.3" font-family="monospace" font-size="14.00">EX_LocalFinalFunction export Options_HoldToSprint_C&#45;&gt;ExecuteUbergraph_Options_HoldToSprint</text>
<text text-anchor="start" x="1282.5" y="-726.3" font-family="monospace" font-size="14.00">  EX_IntConst 129</text>
</g>
<!-- Construct&#45;&gt;Construct__0 -->
<g id="edge27" class="edge">
<title>Construct&#45;&gt;Construct__0</title>
<path fill="none" stroke="black" d="M1654,-854.66C1654,-832.83 1654,-794.44 1654,-767.79"/>
<polygon fill="black" stroke="black" points="1657.5,-767.99 1654,-757.99 1650.5,-767.99 1657.5,-767.99"/>
</g>
<!-- Construct__0&#45;&gt;ExecuteUbergraph_Options_HoldToSprint__129 -->
<g id="edge28" class="edge">
<title>Construct__0:e&#45;&gt;ExecuteUbergraph_Options_HoldToSprint__129</title>
<path fill="none" stroke="red" d="M2035,-737.5C2044.21,-737.5 2038.38,-726.47 2042,-718 2045.73,-709.27 2050.11,-700.03 2054.38,-691.42"/>
<polygon fill="none" stroke="red" points="2057.42,-693.17 2058.8,-682.67 2051.17,-690.02 2057.42,-693.17"/>
</g>
<!-- Construct__15 -->
<g id="node36" class="node">
<title>Construct__15</title>
<polygon fill="#eeeeee" stroke="black" points="1596,-636 1596,-674 1712,-674 1712,-636 1596,-636"/>
<text text-anchor="start" x="1604" y="-658.8" font-family="monospace" font-size="14.00">EX_Return</text>
<text text-anchor="start" x="1604" y="-643.8" font-family="monospace" font-size="14.00">  EX_Nothing</text>
</g>
<!-- Construct__0&#45;&gt;Construct__15 -->
<g id="edge29" class="edge">
<title>Construct__0&#45;&gt;Construct__15</title>
<path fill="none" stroke="black" d="M1654,-718.63C1654,-708.84 1654,-696.45 1654,-685.28"/>
<polygon fill="black" stroke="black" points="1657.5,-685.33 1654,-675.33 1650.5,-685.33 1657.5,-685.33"/>
</g>
<!-- Construct__17 -->
<g id="node37" class="node">
<title>Construct__17</title>
<polygon fill="#eeeeee" stroke="black" points="4694,-854.5 4694,-890.5 4826,-890.5 4826,-854.5 4694,-854.5"/>
<text text-anchor="start" x="4702" y="-868.8" font-family="monospace" font-size="14.00">EX_EndOfScript</text>
</g>
</g>
</svg>
