<?xml version="1.0" encoding="UTF-8" standalone="no"?>
<!DOCTYPE svg PUBLIC "-//W3C//DTD SVG 1.1//EN"
 "http://www.w3.org/Graphics/SVG/1.1/DTD/svg11.dtd">
<!-- Generated by graphviz version 7.0.1 (0)
 -->
<!-- Pages: 1 -->
<svg width="4303pt" height="1170pt"
 viewBox="0.00 0.00 4302.50 1170.00" xmlns="http://www.w3.org/2000/svg" xmlns:xlink="http://www.w3.org/1999/xlink">
<g id="graph0" class="graph" transform="scale(1 1) rotate(0) translate(4 1166)">
<polygon fill="white" stroke="none" points="-4,4 -4,-1166 4298.5,-1166 4298.5,4 -4,4"/>
<!-- Options_DX12_C -->
<g id="node1" class="node">
<title>Options_DX12_C</title>
<polygon fill="#88ff88" stroke="black" points="0,-1026 0,-1139 850,-1139 850,-1026 0,-1026"/>
<text text-anchor="start" x="8" y="-1123.8" font-family="monospace" font-size="14.00">ClassExport: Options_DX12_C</text>
<text text-anchor="start" x="8" y="-1108.8" font-family="monospace" font-size="14.00">  SuperStruct: import /Script/UMG&#45;&gt;UserWidget</text>
<text text-anchor="start" x="8" y="-1093.8" font-family="monospace" font-size="14.00">  Properties:</text>
<text text-anchor="start" x="8" y="-1078.8" font-family="monospace" font-size="14.00">    StructProperty UberGraphFrame</text>
<text text-anchor="start" x="8" y="-1063.8" font-family="monospace" font-size="14.00">      CPF_Transient|CPF_DuplicateTransient</text>
<text text-anchor="start" x="8" y="-1048.8" font-family="monospace" font-size="14.00">    ObjectProperty Basic_CheckBox</text>
<text text-anchor="start" x="8" y="-1033.8" font-family="monospace" font-size="14.00">      CPF_BlueprintVisible|CPF_ExportObject|CPF_InstancedReference|CPF_RepSkip|CPF_PersistentInstance</text>
</g>
<!-- ExecuteUbergraph_Options_DX12 -->
<g id="node2" class="node">
<title>ExecuteUbergraph_Options_DX12</title>
<polygon fill="#ff8888" stroke="black" points="868,-1003.5 868,-1161.5 1396,-1161.5 1396,-1003.5 868,-1003.5"/>
<text text-anchor="start" x="876" y="-1146.3" font-family="monospace" font-size="14.00">Function ExecuteUbergraph_Options_DX12</text>
<text text-anchor="start" x="876" y="-1131.3" font-family="monospace" font-size="14.00">  IntProperty EntryPoint</text>
<text text-anchor="start" x="876" y="-1116.3" font-family="monospace" font-size="14.00">    CPF_BlueprintVisible|CPF_BlueprintReadOnly|CPF_Parm</text>
<text text-anchor="start" x="876" y="-1101.3" font-family="monospace" font-size="14.00">  DelegateProperty K2Node_CreateDelegate_OutputDelegate</text>
<text text-anchor="start" x="876" y="-1086.3" font-family="monospace" font-size="14.00">  BoolProperty K2Node_ComponentBoundEvent_IsChecked</text>
<text text-anchor="start" x="876" y="-1071.3" font-family="monospace" font-size="14.00">  ObjectProperty CallFunc_GetFSDGameInstance_ReturnValue</text>
<text text-anchor="start" x="876" y="-1056.3" font-family="monospace" font-size="14.00">  ObjectProperty CallFunc_GetFSDGameInstance_ReturnValue_1</text>
<text text-anchor="start" x="876" y="-1041.3" font-family="monospace" font-size="14.00">  ObjectProperty CallFunc_GetFSDGameUserSettings_ReturnValue</text>
<text text-anchor="start" x="876" y="-1026.3" font-family="monospace" font-size="14.00">  BoolProperty CallFunc_GetDx12EnabledToBeApplied_ReturnValue</text>
<text text-anchor="start" x="876" y="-1011.3" font-family="monospace" font-size="14.00">  ObjectProperty CallFunc_GetFSDGameUserSettings_ReturnValue_1</text>
</g>
<!-- ExecuteUbergraph_Options_DX12__0 -->
<g id="node3" class="node">
<title>ExecuteUbergraph_Options_DX12__0</title>
<polygon fill="#eeeeee" stroke="black" points="996,-928.5 996,-966.5 1268,-966.5 1268,-928.5 996,-928.5"/>
<text text-anchor="start" x="1004" y="-951.3" font-family="monospace" font-size="14.00">EX_ComputedJump</text>
<text text-anchor="start" x="1004" y="-936.3" font-family="monospace" font-size="14.00">  EX_LocalVariable [EntryPoint]</text>
</g>
<!-- ExecuteUbergraph_Options_DX12&#45;&gt;ExecuteUbergraph_Options_DX12__0 -->
<g id="edge1" class="edge">
<title>ExecuteUbergraph_Options_DX12&#45;&gt;ExecuteUbergraph_Options_DX12__0</title>
<path fill="none" stroke="black" d="M1132,-1003.75C1132,-994.5 1132,-985.54 1132,-977.64"/>
<polygon fill="black" stroke="black" points="1135.5,-977.69 1132,-967.69 1128.5,-977.69 1135.5,-977.69"/>
</g>
<!-- ExecuteUbergraph_Options_DX12__10 -->
<g id="node4" class="node">
<title>ExecuteUbergraph_Options_DX12__10</title>
<polygon fill="#eeeeee" stroke="black" points="3807.5,-838.5 3807.5,-891.5 4294.5,-891.5 4294.5,-838.5 3807.5,-838.5"/>
<text text-anchor="start" x="3815.5" y="-876.3" font-family="monospace" font-size="14.00">EX_BindDelegate UINeedsUpdate</text>
<text text-anchor="start" x="3815.5" y="-861.3" font-family="monospace" font-size="14.00">  EX_LocalVariable [K2Node_CreateDelegate_OutputDelegate]</text>
<text text-anchor="start" x="3815.5" y="-846.3" font-family="monospace" font-size="14.00">  EX_Self</text>
</g>
<!-- ExecuteUbergraph_Options_DX12__33 -->
<g id="node5" class="node">
<title>ExecuteUbergraph_Options_DX12__33</title>
<polygon fill="#eeeeee" stroke="black" points="3639.5,-718.5 3639.5,-786.5 4258.5,-786.5 4258.5,-718.5 3639.5,-718.5"/>
<text text-anchor="start" x="3647.5" y="-771.3" font-family="monospace" font-size="14.00">EX_LetObj</text>
<text text-anchor="start" x="3647.5" y="-756.3" font-family="monospace" font-size="14.00">  EX_LocalVariable [CallFunc_GetFSDGameInstance_ReturnValue_1]</text>
<text text-anchor="start" x="3647.5" y="-741.3" font-family="monospace" font-size="14.00">  EX_CallMath import /Script/FSD&#45;&gt;GameFunctionLibrary&#45;&gt;GetFSDGameInstance</text>
<text text-anchor="start" x="3647.5" y="-726.3" font-family="monospace" font-size="14.00">    EX_Self</text>
</g>
<!-- ExecuteUbergraph_Options_DX12__10&#45;&gt;ExecuteUbergraph_Options_DX12__33 -->
<g id="edge2" class="edge">
<title>ExecuteUbergraph_Options_DX12__10&#45;&gt;ExecuteUbergraph_Options_DX12__33</title>
<path fill="none" stroke="black" d="M4027.6,-838.65C4015.49,-825.53 4000.41,-809.2 3986.71,-794.35"/>
<polygon fill="black" stroke="black" points="3989.65,-792.37 3980.29,-787.4 3984.5,-797.12 3989.65,-792.37"/>
</g>
<!-- ExecuteUbergraph_Options_DX12__54 -->
<g id="node6" class="node">
<title>ExecuteUbergraph_Options_DX12__54</title>
<polygon fill="#eeeeee" stroke="black" points="3573.5,-568.5 3573.5,-666.5 4118.5,-666.5 4118.5,-568.5 3573.5,-568.5"/>
<text text-anchor="start" x="3581.5" y="-651.3" font-family="monospace" font-size="14.00">EX_AddMulticastDelegate</text>
<text text-anchor="start" x="3581.5" y="-636.3" font-family="monospace" font-size="14.00">  EX_Context</text>
<text text-anchor="start" x="3581.5" y="-621.3" font-family="monospace" font-size="14.00">    EX_LocalVariable [CallFunc_GetFSDGameInstance_ReturnValue_1]</text>
<text text-anchor="start" x="3581.5" y="-606.3" font-family="monospace" font-size="14.00">    EX_InstanceVariable [OnGameSettingsChanged]</text>
<text text-anchor="start" x="3581.5" y="-591.3" font-family="monospace" font-size="14.00">    RValue = [OnGameSettingsChanged]</text>
<text text-anchor="start" x="3581.5" y="-576.3" font-family="monospace" font-size="14.00">  EX_LocalVariable [K2Node_CreateDelegate_OutputDelegate]</text>
</g>
<!-- ExecuteUbergraph_Options_DX12__33&#45;&gt;ExecuteUbergraph_Options_DX12__54 -->
<g id="edge3" class="edge">
<title>ExecuteUbergraph_Options_DX12__33&#45;&gt;ExecuteUbergraph_Options_DX12__54</title>
<path fill="none" stroke="black" d="M3923.54,-718.62C3913.43,-705.56 3901.49,-690.16 3890.06,-675.4"/>
<polygon fill="black" stroke="black" points="3892.85,-673.27 3883.96,-667.51 3887.31,-677.56 3892.85,-673.27"/>
</g>
<!-- ExecuteUbergraph_Options_DX12__95 -->
<g id="node7" class="node">
<title>ExecuteUbergraph_Options_DX12__95</title>
<polygon fill="#eeeeee" stroke="black" points="3547.5,-479.5 3547.5,-515.5 3852.5,-515.5 3852.5,-479.5 3547.5,-479.5"/>
<text text-anchor="start" x="3555.5" y="-493.8" font-family="monospace" font-size="14.00">EX_LocalVirtualFunction ShowOptions</text>
</g>
<!-- ExecuteUbergraph_Options_DX12__54&#45;&gt;ExecuteUbergraph_Options_DX12__95 -->
<g id="edge4" class="edge">
<title>ExecuteUbergraph_Options_DX12__54&#45;&gt;ExecuteUbergraph_Options_DX12__95</title>
<path fill="none" stroke="black" d="M3786.62,-568.5C3766.9,-552.57 3745.81,-535.52 3729.38,-522.24"/>
<polygon fill="black" stroke="black" points="3731.92,-519.8 3721.94,-516.23 3727.52,-525.24 3731.92,-519.8"/>
</g>
<!-- ExecuteUbergraph_Options_DX12__109 -->
<g id="node8" class="node">
<title>ExecuteUbergraph_Options_DX12__109</title>
<polygon fill="#eeeeee" stroke="black" points="3401.5,-164.5 3401.5,-200.5 3508.5,-200.5 3508.5,-164.5 3401.5,-164.5"/>
<text text-anchor="start" x="3409.5" y="-178.8" font-family="monospace" font-size="14.00">EX_Jump 412</text>
</g>
<!-- ExecuteUbergraph_Options_DX12__95&#45;&gt;ExecuteUbergraph_Options_DX12__109 -->
<g id="edge5" class="edge">
<title>ExecuteUbergraph_Options_DX12__95&#45;&gt;ExecuteUbergraph_Options_DX12__109</title>
<path fill="none" stroke="black" d="M3686.83,-479.67C3646.36,-427.98 3523.68,-271.25 3475.11,-209.19"/>
<polygon fill="black" stroke="black" points="3478.09,-207.32 3469.17,-201.6 3472.58,-211.64 3478.09,-207.32"/>
</g>
<!-- ExecuteUbergraph_Options_DX12__412 -->
<g id="node21" class="node">
<title>ExecuteUbergraph_Options_DX12__412</title>
<polygon fill="#eeeeee" stroke="black" points="3116,-0.5 3116,-38.5 3232,-38.5 3232,-0.5 3116,-0.5"/>
<text text-anchor="start" x="3124" y="-23.3" font-family="monospace" font-size="14.00">EX_Return</text>
<text text-anchor="start" x="3124" y="-8.3" font-family="monospace" font-size="14.00">  EX_Nothing</text>
</g>
<!-- ExecuteUbergraph_Options_DX12__109&#45;&gt;ExecuteUbergraph_Options_DX12__412 -->
<g id="edge6" class="edge">
<title>ExecuteUbergraph_Options_DX12__109&#45;&gt;ExecuteUbergraph_Options_DX12__412</title>
<path fill="none" stroke="black" d="M3425.46,-164.57C3375.08,-135.71 3272.44,-76.9 3215.1,-44.05"/>
<polygon fill="black" stroke="black" points="3217.01,-41.11 3206.59,-39.17 3213.53,-47.18 3217.01,-41.11"/>
</g>
<!-- ExecuteUbergraph_Options_DX12__114 -->
<g id="node9" class="node">
<title>ExecuteUbergraph_Options_DX12__114</title>
<polygon fill="#eeeeee" stroke="black" points="1929,-726 1929,-779 2581,-779 2581,-726 1929,-726"/>
<text text-anchor="start" x="1937" y="-763.8" font-family="monospace" font-size="14.00">EX_LetObj</text>
<text text-anchor="start" x="1937" y="-748.8" font-family="monospace" font-size="14.00">  EX_LocalVariable [CallFunc_GetFSDGameUserSettings_ReturnValue_1]</text>
<text text-anchor="start" x="1937" y="-733.8" font-family="monospace" font-size="14.00">  EX_CallMath import /Script/FSD&#45;&gt;FSDGameUserSettings&#45;&gt;GetFSDGameUserSettings</text>
</g>
<!-- ExecuteUbergraph_Options_DX12__134 -->
<g id="node10" class="node">
<title>ExecuteUbergraph_Options_DX12__134</title>
<polygon fill="#eeeeee" stroke="black" points="1941,-576 1941,-659 2659,-659 2659,-576 1941,-576"/>
<text text-anchor="start" x="1949" y="-643.8" font-family="monospace" font-size="14.00">EX_Context</text>
<text text-anchor="start" x="1949" y="-628.8" font-family="monospace" font-size="14.00">  EX_LocalVariable [CallFunc_GetFSDGameUserSettings_ReturnValue_1]</text>
<text text-anchor="start" x="1949" y="-613.8" font-family="monospace" font-size="14.00">  EX_FinalFunction import /Script/FSD&#45;&gt;FSDGameUserSettings&#45;&gt;SetDx12EnabledToBeApplied</text>
<text text-anchor="start" x="1949" y="-598.8" font-family="monospace" font-size="14.00">    EX_LocalVariable [K2Node_ComponentBoundEvent_IsChecked]</text>
<text text-anchor="start" x="1949" y="-583.8" font-family="monospace" font-size="14.00">  RValue = []</text>
</g>
<!-- ExecuteUbergraph_Options_DX12__114&#45;&gt;ExecuteUbergraph_Options_DX12__134 -->
<g id="edge7" class="edge">
<title>ExecuteUbergraph_Options_DX12__114&#45;&gt;ExecuteUbergraph_Options_DX12__134</title>
<path fill="none" stroke="black" d="M2263.57,-726.17C2268.97,-710.22 2276.13,-689.06 2282.67,-669.72"/>
<polygon fill="black" stroke="black" points="2285.95,-670.93 2285.84,-660.34 2279.32,-668.69 2285.95,-670.93"/>
</g>
<!-- ExecuteUbergraph_Options_DX12__175 -->
<g id="node11" class="node">
<title>ExecuteUbergraph_Options_DX12__175</title>
<polygon fill="#eeeeee" stroke="black" points="2135.5,-463.5 2135.5,-531.5 2754.5,-531.5 2754.5,-463.5 2135.5,-463.5"/>
<text text-anchor="start" x="2143.5" y="-516.3" font-family="monospace" font-size="14.00">EX_LetObj</text>
<text text-anchor="start" x="2143.5" y="-501.3" font-family="monospace" font-size="14.00">  EX_LocalVariable [CallFunc_GetFSDGameInstance_ReturnValue]</text>
<text text-anchor="start" x="2143.5" y="-486.3" font-family="monospace" font-size="14.00">  EX_CallMath import /Script/FSD&#45;&gt;GameFunctionLibrary&#45;&gt;GetFSDGameInstance</text>
<text text-anchor="start" x="2143.5" y="-471.3" font-family="monospace" font-size="14.00">    EX_Self</text>
</g>
<!-- ExecuteUbergraph_Options_DX12__134&#45;&gt;ExecuteUbergraph_Options_DX12__175 -->
<g id="edge8" class="edge">
<title>ExecuteUbergraph_Options_DX12__134&#45;&gt;ExecuteUbergraph_Options_DX12__175</title>
<path fill="none" stroke="black" d="M2349.5,-576.22C2364.58,-563.94 2381.15,-550.46 2396.2,-538.22"/>
<polygon fill="black" stroke="black" points="2398.13,-541.15 2403.68,-532.13 2393.71,-535.72 2398.13,-541.15"/>
</g>
<!-- ExecuteUbergraph_Options_DX12__196 -->
<g id="node12" class="node">
<title>ExecuteUbergraph_Options_DX12__196</title>
<polygon fill="#eeeeee" stroke="black" points="2209.5,-358.5 2209.5,-426.5 2910.5,-426.5 2910.5,-358.5 2209.5,-358.5"/>
<text text-anchor="start" x="2217.5" y="-411.3" font-family="monospace" font-size="14.00">EX_Context</text>
<text text-anchor="start" x="2217.5" y="-396.3" font-family="monospace" font-size="14.00">  EX_LocalVariable [CallFunc_GetFSDGameInstance_ReturnValue]</text>
<text text-anchor="start" x="2217.5" y="-381.3" font-family="monospace" font-size="14.00">  EX_FinalFunction import /Script/FSD&#45;&gt;FSDGameInstance&#45;&gt;GraphicsUserSettingsChanged</text>
<text text-anchor="start" x="2217.5" y="-366.3" font-family="monospace" font-size="14.00">  RValue = []</text>
</g>
<!-- ExecuteUbergraph_Options_DX12__175&#45;&gt;ExecuteUbergraph_Options_DX12__196 -->
<g id="edge9" class="edge">
<title>ExecuteUbergraph_Options_DX12__175&#45;&gt;ExecuteUbergraph_Options_DX12__196</title>
<path fill="none" stroke="black" d="M2481.7,-463.63C2492.28,-454.15 2503.95,-443.7 2514.98,-433.83"/>
<polygon fill="black" stroke="black" points="2517.01,-436.7 2522.12,-427.42 2512.34,-431.49 2517.01,-436.7"/>
</g>
<!-- ExecuteUbergraph_Options_DX12__228 -->
<g id="node13" class="node">
<title>ExecuteUbergraph_Options_DX12__228</title>
<polygon fill="#eeeeee" stroke="black" points="2258.5,-253.5 2258.5,-321.5 2877.5,-321.5 2877.5,-253.5 2258.5,-253.5"/>
<text text-anchor="start" x="2266.5" y="-306.3" font-family="monospace" font-size="14.00">EX_LetObj</text>
<text text-anchor="start" x="2266.5" y="-291.3" font-family="monospace" font-size="14.00">  EX_LocalVariable [CallFunc_GetFSDGameInstance_ReturnValue]</text>
<text text-anchor="start" x="2266.5" y="-276.3" font-family="monospace" font-size="14.00">  EX_CallMath import /Script/FSD&#45;&gt;GameFunctionLibrary&#45;&gt;GetFSDGameInstance</text>
<text text-anchor="start" x="2266.5" y="-261.3" font-family="monospace" font-size="14.00">    EX_Self</text>
</g>
<!-- ExecuteUbergraph_Options_DX12__196&#45;&gt;ExecuteUbergraph_Options_DX12__228 -->
<g id="edge10" class="edge">
<title>ExecuteUbergraph_Options_DX12__196&#45;&gt;ExecuteUbergraph_Options_DX12__228</title>
<path fill="none" stroke="black" d="M2562.55,-358.63C2563.2,-350.36 2563.9,-341.35 2564.57,-332.63"/>
<polygon fill="black" stroke="black" points="2568.04,-333.16 2565.33,-322.92 2561.06,-332.62 2568.04,-333.16"/>
</g>
<!-- ExecuteUbergraph_Options_DX12__249 -->
<g id="node14" class="node">
<title>ExecuteUbergraph_Options_DX12__249</title>
<polygon fill="#eeeeee" stroke="black" points="2338,-148.5 2338,-216.5 3006,-216.5 3006,-148.5 2338,-148.5"/>
<text text-anchor="start" x="2346" y="-201.3" font-family="monospace" font-size="14.00">EX_Context</text>
<text text-anchor="start" x="2346" y="-186.3" font-family="monospace" font-size="14.00">  EX_LocalVariable [CallFunc_GetFSDGameInstance_ReturnValue]</text>
<text text-anchor="start" x="2346" y="-171.3" font-family="monospace" font-size="14.00">  EX_FinalFunction import /Script/FSD&#45;&gt;FSDGameInstance&#45;&gt;GameUserSettingsChanged</text>
<text text-anchor="start" x="2346" y="-156.3" font-family="monospace" font-size="14.00">  RValue = []</text>
</g>
<!-- ExecuteUbergraph_Options_DX12__228&#45;&gt;ExecuteUbergraph_Options_DX12__249 -->
<g id="edge11" class="edge">
<title>ExecuteUbergraph_Options_DX12__228&#45;&gt;ExecuteUbergraph_Options_DX12__249</title>
<path fill="none" stroke="black" d="M2601.19,-253.63C2610.57,-244.34 2620.9,-234.11 2630.69,-224.41"/>
<polygon fill="black" stroke="black" points="2633.05,-227 2637.69,-217.48 2628.12,-222.03 2633.05,-227"/>
</g>
<!-- ExecuteUbergraph_Options_DX12__281 -->
<g id="node15" class="node">
<title>ExecuteUbergraph_Options_DX12__281</title>
<polygon fill="#eeeeee" stroke="black" points="2793.5,-75.5 2793.5,-111.5 2900.5,-111.5 2900.5,-75.5 2793.5,-75.5"/>
<text text-anchor="start" x="2801.5" y="-89.8" font-family="monospace" font-size="14.00">EX_Jump 412</text>
</g>
<!-- ExecuteUbergraph_Options_DX12__249&#45;&gt;ExecuteUbergraph_Options_DX12__281 -->
<g id="edge12" class="edge">
<title>ExecuteUbergraph_Options_DX12__249&#45;&gt;ExecuteUbergraph_Options_DX12__281</title>
<path fill="none" stroke="black" d="M2738.16,-148.61C2759.82,-137.84 2783.34,-126.15 2802.95,-116.4"/>
<polygon fill="black" stroke="black" points="2804.36,-119.6 2811.76,-112.02 2801.25,-113.34 2804.36,-119.6"/>
</g>
<!-- ExecuteUbergraph_Options_DX12__281&#45;&gt;ExecuteUbergraph_Options_DX12__412 -->
<g id="edge13" class="edge">
<title>ExecuteUbergraph_Options_DX12__281&#45;&gt;ExecuteUbergraph_Options_DX12__412</title>
<path fill="none" stroke="black" d="M2900.27,-80.77C2956.06,-68.49 3043.92,-49.14 3104.99,-35.69"/>
<polygon fill="black" stroke="black" points="3105.58,-39.15 3114.59,-33.58 3104.07,-32.31 3105.58,-39.15"/>
</g>
<!-- ExecuteUbergraph_Options_DX12__286 -->
<g id="node16" class="node">
<title>ExecuteUbergraph_Options_DX12__286</title>
<polygon fill="#eeeeee" stroke="black" points="2479,-838.5 2479,-891.5 3131,-891.5 3131,-838.5 2479,-838.5"/>
<text text-anchor="start" x="2487" y="-876.3" font-family="monospace" font-size="14.00">EX_LetObj</text>
<text text-anchor="start" x="2487" y="-861.3" font-family="monospace" font-size="14.00">  EX_LocalVariable [CallFunc_GetFSDGameUserSettings_ReturnValue]</text>
<text text-anchor="start" x="2487" y="-846.3" font-family="monospace" font-size="14.00">  EX_CallMath import /Script/FSD&#45;&gt;FSDGameUserSettings&#45;&gt;GetFSDGameUserSettings</text>
</g>
<!-- ExecuteUbergraph_Options_DX12__306 -->
<g id="node17" class="node">
<title>ExecuteUbergraph_Options_DX12__306</title>
<polygon fill="#eeeeee" stroke="black" points="2607,-703.5 2607,-801.5 3341,-801.5 3341,-703.5 2607,-703.5"/>
<text text-anchor="start" x="2615" y="-786.3" font-family="monospace" font-size="14.00">EX_LetBool</text>
<text text-anchor="start" x="2615" y="-771.3" font-family="monospace" font-size="14.00">  EX_LocalVariable [CallFunc_GetDx12EnabledToBeApplied_ReturnValue]</text>
<text text-anchor="start" x="2615" y="-756.3" font-family="monospace" font-size="14.00">  EX_Context</text>
<text text-anchor="start" x="2615" y="-741.3" font-family="monospace" font-size="14.00">    EX_LocalVariable [CallFunc_GetFSDGameUserSettings_ReturnValue]</text>
<text text-anchor="start" x="2615" y="-726.3" font-family="monospace" font-size="14.00">    EX_FinalFunction import /Script/FSD&#45;&gt;FSDGameUserSettings&#45;&gt;GetDx12EnabledToBeApplied</text>
<text text-anchor="start" x="2615" y="-711.3" font-family="monospace" font-size="14.00">    RValue = [CallFunc_GetDx12EnabledToBeApplied_ReturnValue]</text>
</g>
<!-- ExecuteUbergraph_Options_DX12__286&#45;&gt;ExecuteUbergraph_Options_DX12__306 -->
<g id="edge14" class="edge">
<title>ExecuteUbergraph_Options_DX12__286&#45;&gt;ExecuteUbergraph_Options_DX12__306</title>
<path fill="none" stroke="black" d="M2843.77,-838.65C2858.08,-829.29 2874.89,-818.3 2891.59,-807.38"/>
<polygon fill="black" stroke="black" points="2893.12,-810.57 2899.57,-802.16 2889.29,-804.71 2893.12,-810.57"/>
</g>
<!-- ExecuteUbergraph_Options_DX12__348 -->
<g id="node18" class="node">
<title>ExecuteUbergraph_Options_DX12__348</title>
<polygon fill="#eeeeee" stroke="black" points="2697,-576 2697,-659 3283,-659 3283,-576 2697,-576"/>
<text text-anchor="start" x="2705" y="-643.8" font-family="monospace" font-size="14.00">EX_Context</text>
<text text-anchor="start" x="2705" y="-628.8" font-family="monospace" font-size="14.00">  EX_InstanceVariable [Basic_CheckBox]</text>
<text text-anchor="start" x="2705" y="-613.8" font-family="monospace" font-size="14.00">  EX_LocalVirtualFunction SetIsChecked</text>
<text text-anchor="start" x="2705" y="-598.8" font-family="monospace" font-size="14.00">    EX_LocalVariable [CallFunc_GetDx12EnabledToBeApplied_ReturnValue]</text>
<text text-anchor="start" x="2705" y="-583.8" font-family="monospace" font-size="14.00">  RValue = []</text>
</g>
<!-- ExecuteUbergraph_Options_DX12__306&#45;&gt;ExecuteUbergraph_Options_DX12__348 -->
<g id="edge15" class="edge">
<title>ExecuteUbergraph_Options_DX12__306&#45;&gt;ExecuteUbergraph_Options_DX12__348</title>
<path fill="none" stroke="black" d="M2979.73,-703.86C2981.05,-692.91 2982.46,-681.21 2983.79,-670.1"/>
<polygon fill="black" stroke="black" points="2987.25,-670.63 2984.97,-660.29 2980.3,-669.8 2987.25,-670.63"/>
</g>
<!-- ExecuteUbergraph_Options_DX12__393 -->
<g id="node19" class="node">
<title>ExecuteUbergraph_Options_DX12__393</title>
<polygon fill="#eeeeee" stroke="black" points="3014.5,-269.5 3014.5,-305.5 3121.5,-305.5 3121.5,-269.5 3014.5,-269.5"/>
<text text-anchor="start" x="3022.5" y="-283.8" font-family="monospace" font-size="14.00">EX_Jump 412</text>
</g>
<!-- ExecuteUbergraph_Options_DX12__348&#45;&gt;ExecuteUbergraph_Options_DX12__393 -->
<g id="edge16" class="edge">
<title>ExecuteUbergraph_Options_DX12__348&#45;&gt;ExecuteUbergraph_Options_DX12__393</title>
<path fill="none" stroke="black" d="M2999.56,-576.28C3015.62,-508.74 3047.61,-374.25 3061.41,-316.22"/>
<polygon fill="black" stroke="black" points="3064.73,-317.37 3063.64,-306.83 3057.92,-315.75 3064.73,-317.37"/>
</g>
<!-- ExecuteUbergraph_Options_DX12__393&#45;&gt;ExecuteUbergraph_Options_DX12__412 -->
<g id="edge17" class="edge">
<title>ExecuteUbergraph_Options_DX12__393&#45;&gt;ExecuteUbergraph_Options_DX12__412</title>
<path fill="none" stroke="black" d="M3074.63,-269.86C3092.31,-225.49 3140.74,-103.96 3162.79,-48.62"/>
<polygon fill="black" stroke="black" points="3165.95,-50.16 3166.4,-39.58 3159.44,-47.57 3165.95,-50.16"/>
</g>
<!-- ExecuteUbergraph_Options_DX12__398 -->
<g id="node20" class="node">
<title>ExecuteUbergraph_Options_DX12__398</title>
<polygon fill="#eeeeee" stroke="black" points="3212.5,-374.5 3212.5,-410.5 3517.5,-410.5 3517.5,-374.5 3212.5,-374.5"/>
<text text-anchor="start" x="3220.5" y="-388.8" font-family="monospace" font-size="14.00">EX_LocalVirtualFunction ShowOptions</text>
</g>
<!-- ExecuteUbergraph_Options_DX12__398&#45;&gt;ExecuteUbergraph_Options_DX12__412 -->
<g id="edge18" class="edge">
<title>ExecuteUbergraph_Options_DX12__398&#45;&gt;ExecuteUbergraph_Options_DX12__412</title>
<path fill="none" stroke="black" d="M3356.3,-374.59C3326.11,-315.96 3225.71,-120.94 3188.25,-48.18"/>
<polygon fill="black" stroke="black" points="3191.58,-47 3183.89,-39.71 3185.36,-50.21 3191.58,-47"/>
</g>
<!-- ExecuteUbergraph_Options_DX12__414 -->
<g id="node22" class="node">
<title>ExecuteUbergraph_Options_DX12__414</title>
<polygon fill="#eeeeee" stroke="black" points="3647,-269.5 3647,-305.5 3779,-305.5 3779,-269.5 3647,-269.5"/>
<text text-anchor="start" x="3655" y="-283.8" font-family="monospace" font-size="14.00">EX_EndOfScript</text>
</g>
<!-- UINeedsUpdate -->
<g id="node23" class="node">
<title>UINeedsUpdate</title>
<polygon fill="#ff8888" stroke="black" points="2993,-1064.5 2993,-1100.5 3191,-1100.5 3191,-1064.5 2993,-1064.5"/>
<text text-anchor="start" x="3001" y="-1078.8" font-family="monospace" font-size="14.00">Function UINeedsUpdate</text>
</g>
<!-- UINeedsUpdate__0 -->
<g id="node24" class="node">
<title>UINeedsUpdate__0</title>
<polygon fill="#eeeeee" stroke="black" points="2778.5,-928.5 2778.5,-966.5 3405.5,-966.5 3405.5,-928.5 2778.5,-928.5"/>
<text text-anchor="start" x="2786.5" y="-951.3" font-family="monospace" font-size="14.00">EX_LocalFinalFunction export Options_DX12_C&#45;&gt;ExecuteUbergraph_Options_DX12</text>
<text text-anchor="start" x="2786.5" y="-936.3" font-family="monospace" font-size="14.00">  EX_IntConst 398</text>
</g>
<!-- UINeedsUpdate&#45;&gt;UINeedsUpdate__0 -->
<g id="edge19" class="edge">
<title>UINeedsUpdate&#45;&gt;UINeedsUpdate__0</title>
<path fill="none" stroke="black" d="M3092,-1064.66C3092,-1042.83 3092,-1004.44 3092,-977.79"/>
<polygon fill="black" stroke="black" points="3095.5,-977.99 3092,-967.99 3088.5,-977.99 3095.5,-977.99"/>
</g>
<!-- UINeedsUpdate__0&#45;&gt;ExecuteUbergraph_Options_DX12__398 -->
<g id="edge20" class="edge">
<title>UINeedsUpdate__0:e&#45;&gt;ExecuteUbergraph_Options_DX12__398</title>
<path fill="none" stroke="red" d="M3407,-947.5C3428.88,-947.5 3373,-775.38 3373,-753.5 3373,-753.5 3373,-753.5 3373,-616.5 3373,-546.33 3369,-463.83 3366.65,-421.57"/>
<polygon fill="none" stroke="red" points="3370.16,-421.57 3366.1,-411.79 3363.17,-421.97 3370.16,-421.57"/>
</g>
<!-- UINeedsUpdate__15 -->
<g id="node25" class="node">
<title>UINeedsUpdate__15</title>
<polygon fill="#eeeeee" stroke="black" points="3149,-846 3149,-884 3265,-884 3265,-846 3149,-846"/>
<text text-anchor="start" x="3157" y="-868.8" font-family="monospace" font-size="14.00">EX_Return</text>
<text text-anchor="start" x="3157" y="-853.8" font-family="monospace" font-size="14.00">  EX_Nothing</text>
</g>
<!-- UINeedsUpdate__0&#45;&gt;UINeedsUpdate__15 -->
<g id="edge21" class="edge">
<title>UINeedsUpdate__0&#45;&gt;UINeedsUpdate__15</title>
<path fill="none" stroke="black" d="M3117.52,-928.63C3133.6,-917.38 3154.57,-902.7 3172.17,-890.38"/>
<polygon fill="black" stroke="black" points="3174.12,-893.29 3180.31,-884.68 3170.11,-887.55 3174.12,-893.29"/>
</g>
<!-- UINeedsUpdate__17 -->
<g id="node26" class="node">
<title>UINeedsUpdate__17</title>
<polygon fill="#eeeeee" stroke="black" points="3527,-164.5 3527,-200.5 3659,-200.5 3659,-164.5 3527,-164.5"/>
<text text-anchor="start" x="3535" y="-178.8" font-family="monospace" font-size="14.00">EX_EndOfScript</text>
</g>
<!-- ShowOptions -->
<g id="node27" class="node">
<title>ShowOptions</title>
<polygon fill="#ff8888" stroke="black" points="2356,-1064.5 2356,-1100.5 2538,-1100.5 2538,-1064.5 2356,-1064.5"/>
<text text-anchor="start" x="2364" y="-1078.8" font-family="monospace" font-size="14.00">Function ShowOptions</text>
</g>
<!-- ShowOptions__0 -->
<g id="node28" class="node">
<title>ShowOptions__0</title>
<polygon fill="#eeeeee" stroke="black" points="2133.5,-928.5 2133.5,-966.5 2760.5,-966.5 2760.5,-928.5 2133.5,-928.5"/>
<text text-anchor="start" x="2141.5" y="-951.3" font-family="monospace" font-size="14.00">EX_LocalFinalFunction export Options_DX12_C&#45;&gt;ExecuteUbergraph_Options_DX12</text>
<text text-anchor="start" x="2141.5" y="-936.3" font-family="monospace" font-size="14.00">  EX_IntConst 286</text>
</g>
<!-- ShowOptions&#45;&gt;ShowOptions__0 -->
<g id="edge22" class="edge">
<title>ShowOptions&#45;&gt;ShowOptions__0</title>
<path fill="none" stroke="black" d="M2447,-1064.66C2447,-1042.83 2447,-1004.44 2447,-977.79"/>
<polygon fill="black" stroke="black" points="2450.5,-977.99 2447,-967.99 2443.5,-977.99 2450.5,-977.99"/>
</g>
<!-- ShowOptions__0&#45;&gt;ExecuteUbergraph_Options_DX12__286 -->
<g id="edge23" class="edge">
<title>ShowOptions__0:e&#45;&gt;ExecuteUbergraph_Options_DX12__286</title>
<path fill="none" stroke="red" d="M2762,-947.5C2771.21,-947.5 2765.12,-936.35 2769,-928 2773.15,-919.08 2778.17,-909.75 2783.13,-901.12"/>
<polygon fill="none" stroke="red" points="2786.04,-903.08 2788.09,-892.69 2780.01,-899.53 2786.04,-903.08"/>
</g>
<!-- ShowOptions__15 -->
<g id="node29" class="node">
<title>ShowOptions__15</title>
<polygon fill="#eeeeee" stroke="black" points="2345,-846 2345,-884 2461,-884 2461,-846 2345,-846"/>
<text text-anchor="start" x="2353" y="-868.8" font-family="monospace" font-size="14.00">EX_Return</text>
<text text-anchor="start" x="2353" y="-853.8" font-family="monospace" font-size="14.00">  EX_Nothing</text>
</g>
<!-- ShowOptions__0&#45;&gt;ShowOptions__15 -->
<g id="edge24" class="edge">
<title>ShowOptions__0&#45;&gt;ShowOptions__15</title>
<path fill="none" stroke="black" d="M2437.23,-928.63C2431.65,-918.42 2424.53,-905.39 2418.23,-893.86"/>
<polygon fill="black" stroke="black" points="2421.33,-892.24 2413.46,-885.14 2415.19,-895.6 2421.33,-892.24"/>
</g>
<!-- ShowOptions__17 -->
<g id="node30" class="node">
<title>ShowOptions__17</title>
<polygon fill="#eeeeee" stroke="black" points="3379,-75.5 3379,-111.5 3511,-111.5 3511,-75.5 3379,-75.5"/>
<text text-anchor="start" x="3387" y="-89.8" font-family="monospace" font-size="14.00">EX_EndOfScript</text>
</g>
<!-- BndEvt__Basic_CheckBox_K2Node_ComponentBoundEvent_1_OnCheckStateChanged__DelegateSignature -->
<g id="node31" class="node">
<title>BndEvt__Basic_CheckBox_K2Node_ComponentBoundEvent_1_OnCheckStateChanged__DelegateSignature</title>
<polygon fill="#ff8888" stroke="black" points="1414.5,-1056 1414.5,-1109 2247.5,-1109 2247.5,-1056 1414.5,-1056"/>
<text text-anchor="start" x="1422.5" y="-1093.8" font-family="monospace" font-size="14.00">Function BndEvt__Basic_CheckBox_K2Node_ComponentBoundEvent_1_OnCheckStateChanged__DelegateSignature</text>
<text text-anchor="start" x="1422.5" y="-1078.8" font-family="monospace" font-size="14.00">  BoolProperty IsChecked</text>
<text text-anchor="start" x="1422.5" y="-1063.8" font-family="monospace" font-size="14.00">    CPF_BlueprintVisible|CPF_BlueprintReadOnly|CPF_Parm</text>
</g>
<!-- BndEvt__Basic_CheckBox_K2Node_ComponentBoundEvent_1_OnCheckStateChanged__DelegateSignature__0 -->
<g id="node32" class="node">
<title>BndEvt__Basic_CheckBox_K2Node_ComponentBoundEvent_1_OnCheckStateChanged__DelegateSignature__0</title>
<polygon fill="#eeeeee" stroke="black" points="1546.5,-928.5 1546.5,-966.5 2115.5,-966.5 2115.5,-928.5 1546.5,-928.5"/>
<text text-anchor="start" x="1554.5" y="-951.3" font-family="monospace" font-size="14.00">EX_LetValueOnPersistentFrame [K2Node_ComponentBoundEvent_IsChecked]</text>
<text text-anchor="start" x="1554.5" y="-936.3" font-family="monospace" font-size="14.00">  EX_LocalVariable [IsChecked]</text>
</g>
<!-- BndEvt__Basic_CheckBox_K2Node_ComponentBoundEvent_1_OnCheckStateChanged__DelegateSignature&#45;&gt;BndEvt__Basic_CheckBox_K2Node_ComponentBoundEvent_1_OnCheckStateChanged__DelegateSignature__0 -->
<g id="edge25" class="edge">
<title>BndEvt__Basic_CheckBox_K2Node_ComponentBoundEvent_1_OnCheckStateChanged__DelegateSignature&#45;&gt;BndEvt__Basic_CheckBox_K2Node_ComponentBoundEvent_1_OnCheckStateChanged__DelegateSignature__0</title>
<path fill="none" stroke="black" d="M1831,-1056.17C1831,-1033.84 1831,-1001.29 1831,-977.83"/>
<polygon fill="black" stroke="black" points="1834.5,-978 1831,-968 1827.5,-978 1834.5,-978"/>
</g>
<!-- BndEvt__Basic_CheckBox_K2Node_ComponentBoundEvent_1_OnCheckStateChanged__DelegateSignature__18 -->
<g id="node33" class="node">
<title>BndEvt__Basic_CheckBox_K2Node_ComponentBoundEvent_1_OnCheckStateChanged__DelegateSignature__18</title>
<polygon fill="#eeeeee" stroke="black" points="1522.5,-846 1522.5,-884 2149.5,-884 2149.5,-846 1522.5,-846"/>
<text text-anchor="start" x="1530.5" y="-868.8" font-family="monospace" font-size="14.00">EX_LocalFinalFunction export Options_DX12_C&#45;&gt;ExecuteUbergraph_Options_DX12</text>
<text text-anchor="start" x="1530.5" y="-853.8" font-family="monospace" font-size="14.00">  EX_IntConst 114</text>
</g>
<!-- BndEvt__Basic_CheckBox_K2Node_ComponentBoundEvent_1_OnCheckStateChanged__DelegateSignature__0&#45;&gt;BndEvt__Basic_CheckBox_K2Node_ComponentBoundEvent_1_OnCheckStateChanged__DelegateSignature__18 -->
<g id="edge26" class="edge">
<title>BndEvt__Basic_CheckBox_K2Node_ComponentBoundEvent_1_OnCheckStateChanged__DelegateSignature__0&#45;&gt;BndEvt__Basic_CheckBox_K2Node_ComponentBoundEvent_1_OnCheckStateChanged__DelegateSignature__18</title>
<path fill="none" stroke="black" d="M1832.11,-928.63C1832.72,-918.84 1833.49,-906.45 1834.18,-895.28"/>
<polygon fill="black" stroke="black" points="1837.67,-895.52 1834.8,-885.33 1830.69,-895.09 1837.67,-895.52"/>
</g>
<!-- BndEvt__Basic_CheckBox_K2Node_ComponentBoundEvent_1_OnCheckStateChanged__DelegateSignature__18&#45;&gt;ExecuteUbergraph_Options_DX12__114 -->
<g id="edge27" class="edge">
<title>BndEvt__Basic_CheckBox_K2Node_ComponentBoundEvent_1_OnCheckStateChanged__DelegateSignature__18:e&#45;&gt;ExecuteUbergraph_Options_DX12__114</title>
<path fill="none" stroke="red" d="M2151,-865C2193.28,-865 2223.28,-821.6 2239.87,-788.95"/>
<polygon fill="none" stroke="red" points="2242.92,-790.69 2244.13,-780.16 2236.62,-787.64 2242.92,-790.69"/>
</g>
<!-- BndEvt__Basic_CheckBox_K2Node_ComponentBoundEvent_1_OnCheckStateChanged__DelegateSignature__33 -->
<g id="node34" class="node">
<title>BndEvt__Basic_CheckBox_K2Node_ComponentBoundEvent_1_OnCheckStateChanged__DelegateSignature__33</title>
<polygon fill="#eeeeee" stroke="black" points="1778,-733.5 1778,-771.5 1894,-771.5 1894,-733.5 1778,-733.5"/>
<text text-anchor="start" x="1786" y="-756.3" font-family="monospace" font-size="14.00">EX_Return</text>
<text text-anchor="start" x="1786" y="-741.3" font-family="monospace" font-size="14.00">  EX_Nothing</text>
</g>
<!-- BndEvt__Basic_CheckBox_K2Node_ComponentBoundEvent_1_OnCheckStateChanged__DelegateSignature__18&#45;&gt;BndEvt__Basic_CheckBox_K2Node_ComponentBoundEvent_1_OnCheckStateChanged__DelegateSignature__33 -->
<g id="edge28" class="edge">
<title>BndEvt__Basic_CheckBox_K2Node_ComponentBoundEvent_1_OnCheckStateChanged__DelegateSignature__18&#45;&gt;BndEvt__Basic_CheckBox_K2Node_ComponentBoundEvent_1_OnCheckStateChanged__DelegateSignature__33</title>
<path fill="none" stroke="black" d="M1836,-846.25C1836,-829.09 1836,-802.8 1836,-782.58"/>
<polygon fill="black" stroke="black" points="1839.5,-782.72 1836,-772.72 1832.5,-782.72 1839.5,-782.72"/>
</g>
<!-- BndEvt__Basic_CheckBox_K2Node_ComponentBoundEvent_1_OnCheckStateChanged__DelegateSignature__35 -->
<g id="node35" class="node">
<title>BndEvt__Basic_CheckBox_K2Node_ComponentBoundEvent_1_OnCheckStateChanged__DelegateSignature__35</title>
<polygon fill="#eeeeee" stroke="black" points="3250,-1.5 3250,-37.5 3382,-37.5 3382,-1.5 3250,-1.5"/>
<text text-anchor="start" x="3258" y="-15.8" font-family="monospace" font-size="14.00">EX_EndOfScript</text>
</g>
<!-- Construct -->
<g id="node36" class="node">
<title>Construct</title>
<polygon fill="#ff8888" stroke="black" points="3654.5,-1064.5 3654.5,-1100.5 3819.5,-1100.5 3819.5,-1064.5 3654.5,-1064.5"/>
<text text-anchor="start" x="3662.5" y="-1078.8" font-family="monospace" font-size="14.00">Function Construct</text>
</g>
<!-- Construct__0 -->
<g id="node37" class="node">
<title>Construct__0</title>
<polygon fill="#eeeeee" stroke="black" points="3423.5,-928.5 3423.5,-966.5 4050.5,-966.5 4050.5,-928.5 3423.5,-928.5"/>
<text text-anchor="start" x="3431.5" y="-951.3" font-family="monospace" font-size="14.00">EX_LocalFinalFunction export Options_DX12_C&#45;&gt;ExecuteUbergraph_Options_DX12</text>
<text text-anchor="start" x="3431.5" y="-936.3" font-family="monospace" font-size="14.00">  EX_IntConst 10</text>
</g>
<!-- Construct&#45;&gt;Construct__0 -->
<g id="edge29" class="edge">
<title>Construct&#45;&gt;Construct__0</title>
<path fill="none" stroke="black" d="M3737,-1064.66C3737,-1042.83 3737,-1004.44 3737,-977.79"/>
<polygon fill="black" stroke="black" points="3740.5,-977.99 3737,-967.99 3733.5,-977.99 3740.5,-977.99"/>
</g>
<!-- Construct__0&#45;&gt;ExecuteUbergraph_Options_DX12__10 -->
<g id="edge30" class="edge">
<title>Construct__0:e&#45;&gt;ExecuteUbergraph_Options_DX12__10</title>
<path fill="none" stroke="red" d="M4052,-947.5C4071.49,-947.5 4069.72,-923.91 4063.92,-902.11"/>
<polygon fill="none" stroke="red" points="4067.36,-901.38 4061.15,-892.79 4060.65,-903.37 4067.36,-901.38"/>
</g>
<!-- Construct__15 -->
<g id="node38" class="node">
<title>Construct__15</title>
<polygon fill="#eeeeee" stroke="black" points="3673,-846 3673,-884 3789,-884 3789,-846 3673,-846"/>
<text text-anchor="start" x="3681" y="-868.8" font-family="monospace" font-size="14.00">EX_Return</text>
<text text-anchor="start" x="3681" y="-853.8" font-family="monospace" font-size="14.00">  EX_Nothing</text>
</g>
<!-- Construct__0&#45;&gt;Construct__15 -->
<g id="edge31" class="edge">
<title>Construct__0&#45;&gt;Construct__15</title>
<path fill="none" stroke="black" d="M3735.67,-928.63C3734.94,-918.84 3734.01,-906.45 3733.18,-895.28"/>
<polygon fill="black" stroke="black" points="3736.67,-895.04 3732.44,-885.32 3729.69,-895.56 3736.67,-895.04"/>
</g>
<!-- Construct__17 -->
<g id="node39" class="node">
<title>Construct__17</title>
<polygon fill="#eeeeee" stroke="black" points="3838,-1064.5 3838,-1100.5 3970,-1100.5 3970,-1064.5 3838,-1064.5"/>
<text text-anchor="start" x="3846" y="-1078.8" font-family="monospace" font-size="14.00">EX_EndOfScript</text>
</g>
</g>
</svg>
