<?xml version="1.0" encoding="UTF-8" standalone="no"?>
<!DOCTYPE svg PUBLIC "-//W3C//DTD SVG 1.1//EN"
 "http://www.w3.org/Graphics/SVG/1.1/DTD/svg11.dtd">
<!-- Generated by graphviz version 7.0.1 (0)
 -->
<!-- Pages: 1 -->
<svg width="4049pt" height="1153pt"
 viewBox="0.00 0.00 4048.50 1153.00" xmlns="http://www.w3.org/2000/svg" xmlns:xlink="http://www.w3.org/1999/xlink">
<g id="graph0" class="graph" transform="scale(1 1) rotate(0) translate(4 1149)">
<polygon fill="white" stroke="none" points="-4,4 -4,-1149 4044.5,-1149 4044.5,4 -4,4"/>
<!-- Options_ShowSubtitles_C -->
<g id="node1" class="node">
<title>Options_ShowSubtitles_C</title>
<polygon fill="#88ff88" stroke="black" points="0,-1009 0,-1122 850,-1122 850,-1009 0,-1009"/>
<text text-anchor="start" x="8" y="-1106.8" font-family="monospace" font-size="14.00">ClassExport: Options_ShowSubtitles_C</text>
<text text-anchor="start" x="8" y="-1091.8" font-family="monospace" font-size="14.00">  SuperStruct: import /Script/UMG&#45;&gt;UserWidget</text>
<text text-anchor="start" x="8" y="-1076.8" font-family="monospace" font-size="14.00">  Properties:</text>
<text text-anchor="start" x="8" y="-1061.8" font-family="monospace" font-size="14.00">    StructProperty UberGraphFrame</text>
<text text-anchor="start" x="8" y="-1046.8" font-family="monospace" font-size="14.00">      CPF_Transient|CPF_DuplicateTransient</text>
<text text-anchor="start" x="8" y="-1031.8" font-family="monospace" font-size="14.00">    ObjectProperty Basic_CheckBox</text>
<text text-anchor="start" x="8" y="-1016.8" font-family="monospace" font-size="14.00">      CPF_BlueprintVisible|CPF_ExportObject|CPF_InstancedReference|CPF_RepSkip|CPF_PersistentInstance</text>
</g>
<!-- ExecuteUbergraph_Options_ShowSubtitles -->
<g id="node2" class="node">
<title>ExecuteUbergraph_Options_ShowSubtitles</title>
<polygon fill="#ff8888" stroke="black" points="868.5,-986.5 868.5,-1144.5 1371.5,-1144.5 1371.5,-986.5 868.5,-986.5"/>
<text text-anchor="start" x="876.5" y="-1129.3" font-family="monospace" font-size="14.00">Function ExecuteUbergraph_Options_ShowSubtitles</text>
<text text-anchor="start" x="876.5" y="-1114.3" font-family="monospace" font-size="14.00">  IntProperty EntryPoint</text>
<text text-anchor="start" x="876.5" y="-1099.3" font-family="monospace" font-size="14.00">    CPF_BlueprintVisible|CPF_BlueprintReadOnly|CPF_Parm</text>
<text text-anchor="start" x="876.5" y="-1084.3" font-family="monospace" font-size="14.00">  ObjectProperty CallFunc_FSDGameUserSettings_ReturnValue</text>
<text text-anchor="start" x="876.5" y="-1069.3" font-family="monospace" font-size="14.00">  ObjectProperty CallFunc_FSDGameUserSettings_ReturnValue_1</text>
<text text-anchor="start" x="876.5" y="-1054.3" font-family="monospace" font-size="14.00">  ObjectProperty CallFunc_FSDGameUserSettings_ReturnValue_2</text>
<text text-anchor="start" x="876.5" y="-1039.3" font-family="monospace" font-size="14.00">  BoolProperty K2Node_ComponentBoundEvent_IsChecked</text>
<text text-anchor="start" x="876.5" y="-1024.3" font-family="monospace" font-size="14.00">  DelegateProperty K2Node_CreateDelegate_OutputDelegate</text>
<text text-anchor="start" x="876.5" y="-1009.3" font-family="monospace" font-size="14.00">  ObjectProperty CallFunc_FSDGameUserSettings_ReturnValue_3</text>
<text text-anchor="start" x="876.5" y="-994.3" font-family="monospace" font-size="14.00">  BoolProperty CallFunc_GetShowSubtitles_ReturnValue</text>
</g>
<!-- ExecuteUbergraph_Options_ShowSubtitles__0 -->
<g id="node3" class="node">
<title>ExecuteUbergraph_Options_ShowSubtitles__0</title>
<polygon fill="#eeeeee" stroke="black" points="984,-911.5 984,-949.5 1256,-949.5 1256,-911.5 984,-911.5"/>
<text text-anchor="start" x="992" y="-934.3" font-family="monospace" font-size="14.00">EX_ComputedJump</text>
<text text-anchor="start" x="992" y="-919.3" font-family="monospace" font-size="14.00">  EX_LocalVariable [EntryPoint]</text>
</g>
<!-- ExecuteUbergraph_Options_ShowSubtitles&#45;&gt;ExecuteUbergraph_Options_ShowSubtitles__0 -->
<g id="edge1" class="edge">
<title>ExecuteUbergraph_Options_ShowSubtitles&#45;&gt;ExecuteUbergraph_Options_ShowSubtitles__0</title>
<path fill="none" stroke="black" d="M1120,-986.75C1120,-977.5 1120,-968.54 1120,-960.64"/>
<polygon fill="black" stroke="black" points="1123.5,-960.69 1120,-950.69 1116.5,-960.69 1123.5,-960.69"/>
</g>
<!-- ExecuteUbergraph_Options_ShowSubtitles__10 -->
<g id="node4" class="node">
<title>ExecuteUbergraph_Options_ShowSubtitles__10</title>
<polygon fill="#eeeeee" stroke="black" points="3094.5,-268.5 3094.5,-321.5 3721.5,-321.5 3721.5,-268.5 3094.5,-268.5"/>
<text text-anchor="start" x="3102.5" y="-306.3" font-family="monospace" font-size="14.00">EX_LetObj</text>
<text text-anchor="start" x="3102.5" y="-291.3" font-family="monospace" font-size="14.00">  EX_LocalVariable [CallFunc_FSDGameUserSettings_ReturnValue]</text>
<text text-anchor="start" x="3102.5" y="-276.3" font-family="monospace" font-size="14.00">  EX_CallMath import /Script/FSD&#45;&gt;FSDGameUserSettings&#45;&gt;FSDGameUserSettings</text>
</g>
<!-- ExecuteUbergraph_Options_ShowSubtitles__30 -->
<g id="node5" class="node">
<title>ExecuteUbergraph_Options_ShowSubtitles__30</title>
<polygon fill="#eeeeee" stroke="black" points="3010,-148.5 3010,-231.5 3530,-231.5 3530,-148.5 3010,-148.5"/>
<text text-anchor="start" x="3018" y="-216.3" font-family="monospace" font-size="14.00">EX_Context</text>
<text text-anchor="start" x="3018" y="-201.3" font-family="monospace" font-size="14.00">  EX_LocalVariable [CallFunc_FSDGameUserSettings_ReturnValue]</text>
<text text-anchor="start" x="3018" y="-186.3" font-family="monospace" font-size="14.00">  EX_VirtualFunction ApplySettings</text>
<text text-anchor="start" x="3018" y="-171.3" font-family="monospace" font-size="14.00">    EX_True</text>
<text text-anchor="start" x="3018" y="-156.3" font-family="monospace" font-size="14.00">  RValue = []</text>
</g>
<!-- ExecuteUbergraph_Options_ShowSubtitles__10&#45;&gt;ExecuteUbergraph_Options_ShowSubtitles__30 -->
<g id="edge2" class="edge">
<title>ExecuteUbergraph_Options_ShowSubtitles__10&#45;&gt;ExecuteUbergraph_Options_ShowSubtitles__30</title>
<path fill="none" stroke="black" d="M3373.89,-268.54C3361.58,-259.35 3347.26,-248.66 3333.26,-238.21"/>
<polygon fill="black" stroke="black" points="3335.45,-235.48 3325.34,-232.3 3331.26,-241.09 3335.45,-235.48"/>
</g>
<!-- ExecuteUbergraph_Options_ShowSubtitles__67 -->
<g id="node6" class="node">
<title>ExecuteUbergraph_Options_ShowSubtitles__67</title>
<polygon fill="#eeeeee" stroke="black" points="3044.5,-75.5 3044.5,-111.5 3151.5,-111.5 3151.5,-75.5 3044.5,-75.5"/>
<text text-anchor="start" x="3052.5" y="-89.8" font-family="monospace" font-size="14.00">EX_Jump 353</text>
</g>
<!-- ExecuteUbergraph_Options_ShowSubtitles__30&#45;&gt;ExecuteUbergraph_Options_ShowSubtitles__67 -->
<g id="edge3" class="edge">
<title>ExecuteUbergraph_Options_ShowSubtitles__30&#45;&gt;ExecuteUbergraph_Options_ShowSubtitles__67</title>
<path fill="none" stroke="black" d="M3196.56,-148.65C3176.71,-137.75 3155.96,-126.34 3138.64,-116.83"/>
<polygon fill="black" stroke="black" points="3140.65,-113.94 3130.2,-112.19 3137.28,-120.07 3140.65,-113.94"/>
</g>
<!-- ExecuteUbergraph_Options_ShowSubtitles__353 -->
<g id="node19" class="node">
<title>ExecuteUbergraph_Options_ShowSubtitles__353</title>
<polygon fill="#eeeeee" stroke="black" points="2786,-0.5 2786,-38.5 2902,-38.5 2902,-0.5 2786,-0.5"/>
<text text-anchor="start" x="2794" y="-23.3" font-family="monospace" font-size="14.00">EX_Return</text>
<text text-anchor="start" x="2794" y="-8.3" font-family="monospace" font-size="14.00">  EX_Nothing</text>
</g>
<!-- ExecuteUbergraph_Options_ShowSubtitles__67&#45;&gt;ExecuteUbergraph_Options_ShowSubtitles__353 -->
<g id="edge4" class="edge">
<title>ExecuteUbergraph_Options_ShowSubtitles__67&#45;&gt;ExecuteUbergraph_Options_ShowSubtitles__353</title>
<path fill="none" stroke="black" d="M3044.75,-77.41C3006.29,-66.5 2954.03,-51.69 2912.46,-39.91"/>
<polygon fill="black" stroke="black" points="2913.63,-36.6 2903.05,-37.24 2911.72,-43.33 2913.63,-36.6"/>
</g>
<!-- ExecuteUbergraph_Options_ShowSubtitles__72 -->
<g id="node7" class="node">
<title>ExecuteUbergraph_Options_ShowSubtitles__72</title>
<polygon fill="#eeeeee" stroke="black" points="1744.5,-821.5 1744.5,-874.5 2371.5,-874.5 2371.5,-821.5 1744.5,-821.5"/>
<text text-anchor="start" x="1752.5" y="-859.3" font-family="monospace" font-size="14.00">EX_LetObj</text>
<text text-anchor="start" x="1752.5" y="-844.3" font-family="monospace" font-size="14.00">  EX_LocalVariable [CallFunc_FSDGameUserSettings_ReturnValue_1]</text>
<text text-anchor="start" x="1752.5" y="-829.3" font-family="monospace" font-size="14.00">  EX_CallMath import /Script/FSD&#45;&gt;FSDGameUserSettings&#45;&gt;FSDGameUserSettings</text>
</g>
<!-- ExecuteUbergraph_Options_ShowSubtitles__92 -->
<g id="node8" class="node">
<title>ExecuteUbergraph_Options_ShowSubtitles__92</title>
<polygon fill="#eeeeee" stroke="black" points="1914.5,-709 1914.5,-762 2401.5,-762 2401.5,-709 1914.5,-709"/>
<text text-anchor="start" x="1922.5" y="-746.8" font-family="monospace" font-size="14.00">EX_BindDelegate OnGameUserSettingsChanged</text>
<text text-anchor="start" x="1922.5" y="-731.8" font-family="monospace" font-size="14.00">  EX_LocalVariable [K2Node_CreateDelegate_OutputDelegate]</text>
<text text-anchor="start" x="1922.5" y="-716.8" font-family="monospace" font-size="14.00">  EX_Self</text>
</g>
<!-- ExecuteUbergraph_Options_ShowSubtitles__72&#45;&gt;ExecuteUbergraph_Options_ShowSubtitles__92 -->
<g id="edge5" class="edge">
<title>ExecuteUbergraph_Options_ShowSubtitles__72&#45;&gt;ExecuteUbergraph_Options_ShowSubtitles__92</title>
<path fill="none" stroke="black" d="M2080.94,-821.65C2094.79,-806.35 2112.6,-786.67 2127.61,-770.08"/>
<polygon fill="black" stroke="black" points="2130.03,-772.62 2134.15,-762.86 2124.84,-767.92 2130.03,-772.62"/>
</g>
<!-- ExecuteUbergraph_Options_ShowSubtitles__115 -->
<g id="node9" class="node">
<title>ExecuteUbergraph_Options_ShowSubtitles__115</title>
<polygon fill="#eeeeee" stroke="black" points="1934.5,-551.5 1934.5,-649.5 2487.5,-649.5 2487.5,-551.5 1934.5,-551.5"/>
<text text-anchor="start" x="1942.5" y="-634.3" font-family="monospace" font-size="14.00">EX_AddMulticastDelegate</text>
<text text-anchor="start" x="1942.5" y="-619.3" font-family="monospace" font-size="14.00">  EX_Context</text>
<text text-anchor="start" x="1942.5" y="-604.3" font-family="monospace" font-size="14.00">    EX_LocalVariable [CallFunc_FSDGameUserSettings_ReturnValue_1]</text>
<text text-anchor="start" x="1942.5" y="-589.3" font-family="monospace" font-size="14.00">    EX_InstanceVariable [OnGameUserSettingsUINeedsUpdate]</text>
<text text-anchor="start" x="1942.5" y="-574.3" font-family="monospace" font-size="14.00">    RValue = [OnGameUserSettingsUINeedsUpdate]</text>
<text text-anchor="start" x="1942.5" y="-559.3" font-family="monospace" font-size="14.00">  EX_LocalVariable [K2Node_CreateDelegate_OutputDelegate]</text>
</g>
<!-- ExecuteUbergraph_Options_ShowSubtitles__92&#45;&gt;ExecuteUbergraph_Options_ShowSubtitles__115 -->
<g id="edge6" class="edge">
<title>ExecuteUbergraph_Options_ShowSubtitles__92&#45;&gt;ExecuteUbergraph_Options_ShowSubtitles__115</title>
<path fill="none" stroke="black" d="M2168.09,-709.17C2173.66,-695.19 2180.83,-677.21 2187.71,-659.96"/>
<polygon fill="black" stroke="black" points="2190.92,-661.34 2191.37,-650.76 2184.42,-658.75 2190.92,-661.34"/>
</g>
<!-- ExecuteUbergraph_Options_ShowSubtitles__156 -->
<g id="node10" class="node">
<title>ExecuteUbergraph_Options_ShowSubtitles__156</title>
<polygon fill="#eeeeee" stroke="black" points="2074.5,-455 2074.5,-491 2495.5,-491 2495.5,-455 2074.5,-455"/>
<text text-anchor="start" x="2082.5" y="-469.3" font-family="monospace" font-size="14.00">EX_LocalVirtualFunction OnGameUserSettingsChanged</text>
</g>
<!-- ExecuteUbergraph_Options_ShowSubtitles__115&#45;&gt;ExecuteUbergraph_Options_ShowSubtitles__156 -->
<g id="edge7" class="edge">
<title>ExecuteUbergraph_Options_ShowSubtitles__115&#45;&gt;ExecuteUbergraph_Options_ShowSubtitles__156</title>
<path fill="none" stroke="black" d="M2239.19,-551.7C2249.48,-534.25 2260.73,-515.16 2269.51,-500.28"/>
<polygon fill="black" stroke="black" points="2272.31,-502.41 2274.38,-492.01 2266.28,-498.85 2272.31,-502.41"/>
</g>
<!-- ExecuteUbergraph_Options_ShowSubtitles__170 -->
<g id="node11" class="node">
<title>ExecuteUbergraph_Options_ShowSubtitles__170</title>
<polygon fill="#eeeeee" stroke="black" points="2470.5,-358.5 2470.5,-394.5 2577.5,-394.5 2577.5,-358.5 2470.5,-358.5"/>
<text text-anchor="start" x="2478.5" y="-372.8" font-family="monospace" font-size="14.00">EX_Jump 353</text>
</g>
<!-- ExecuteUbergraph_Options_ShowSubtitles__156&#45;&gt;ExecuteUbergraph_Options_ShowSubtitles__170 -->
<g id="edge8" class="edge">
<title>ExecuteUbergraph_Options_ShowSubtitles__156&#45;&gt;ExecuteUbergraph_Options_ShowSubtitles__170</title>
<path fill="none" stroke="black" d="M2327.73,-455.11C2367.71,-439.3 2427.57,-415.63 2470.67,-398.59"/>
<polygon fill="black" stroke="black" points="2471.82,-401.9 2479.83,-394.96 2469.25,-395.39 2471.82,-401.9"/>
</g>
<!-- ExecuteUbergraph_Options_ShowSubtitles__170&#45;&gt;ExecuteUbergraph_Options_ShowSubtitles__353 -->
<g id="edge9" class="edge">
<title>ExecuteUbergraph_Options_ShowSubtitles__170&#45;&gt;ExecuteUbergraph_Options_ShowSubtitles__353</title>
<path fill="none" stroke="black" d="M2539.01,-358.85C2590.2,-302.06 2758.23,-115.65 2820.51,-46.56"/>
<polygon fill="black" stroke="black" points="2822.79,-49.26 2826.88,-39.49 2817.59,-44.57 2822.79,-49.26"/>
</g>
<!-- ExecuteUbergraph_Options_ShowSubtitles__175 -->
<g id="node12" class="node">
<title>ExecuteUbergraph_Options_ShowSubtitles__175</title>
<polygon fill="#eeeeee" stroke="black" points="3413.5,-574 3413.5,-627 4040.5,-627 4040.5,-574 3413.5,-574"/>
<text text-anchor="start" x="3421.5" y="-611.8" font-family="monospace" font-size="14.00">EX_LetObj</text>
<text text-anchor="start" x="3421.5" y="-596.8" font-family="monospace" font-size="14.00">  EX_LocalVariable [CallFunc_FSDGameUserSettings_ReturnValue_2]</text>
<text text-anchor="start" x="3421.5" y="-581.8" font-family="monospace" font-size="14.00">  EX_CallMath import /Script/FSD&#45;&gt;FSDGameUserSettings&#45;&gt;FSDGameUserSettings</text>
</g>
<!-- ExecuteUbergraph_Options_ShowSubtitles__195 -->
<g id="node13" class="node">
<title>ExecuteUbergraph_Options_ShowSubtitles__195</title>
<polygon fill="#eeeeee" stroke="black" points="3309,-431.5 3309,-514.5 3953,-514.5 3953,-431.5 3309,-431.5"/>
<text text-anchor="start" x="3317" y="-499.3" font-family="monospace" font-size="14.00">EX_Context</text>
<text text-anchor="start" x="3317" y="-484.3" font-family="monospace" font-size="14.00">  EX_LocalVariable [CallFunc_FSDGameUserSettings_ReturnValue_2]</text>
<text text-anchor="start" x="3317" y="-469.3" font-family="monospace" font-size="14.00">  EX_FinalFunction import /Script/FSD&#45;&gt;FSDGameUserSettings&#45;&gt;SetShowSubtitles</text>
<text text-anchor="start" x="3317" y="-454.3" font-family="monospace" font-size="14.00">    EX_LocalVariable [K2Node_ComponentBoundEvent_IsChecked]</text>
<text text-anchor="start" x="3317" y="-439.3" font-family="monospace" font-size="14.00">  RValue = []</text>
</g>
<!-- ExecuteUbergraph_Options_ShowSubtitles__175&#45;&gt;ExecuteUbergraph_Options_ShowSubtitles__195 -->
<g id="edge10" class="edge">
<title>ExecuteUbergraph_Options_ShowSubtitles__175&#45;&gt;ExecuteUbergraph_Options_ShowSubtitles__195</title>
<path fill="none" stroke="black" d="M3707.57,-574.1C3696.38,-559.47 3681.92,-540.56 3668.58,-523.13"/>
<polygon fill="black" stroke="black" points="3671.51,-521.2 3662.66,-515.39 3665.95,-525.45 3671.51,-521.2"/>
</g>
<!-- ExecuteUbergraph_Options_ShowSubtitles__236 -->
<g id="node14" class="node">
<title>ExecuteUbergraph_Options_ShowSubtitles__236</title>
<polygon fill="#eeeeee" stroke="black" points="3469.5,-358.5 3469.5,-394.5 3568.5,-394.5 3568.5,-358.5 3469.5,-358.5"/>
<text text-anchor="start" x="3477.5" y="-372.8" font-family="monospace" font-size="14.00">EX_Jump 10</text>
</g>
<!-- ExecuteUbergraph_Options_ShowSubtitles__195&#45;&gt;ExecuteUbergraph_Options_ShowSubtitles__236 -->
<g id="edge11" class="edge">
<title>ExecuteUbergraph_Options_ShowSubtitles__195&#45;&gt;ExecuteUbergraph_Options_ShowSubtitles__236</title>
<path fill="none" stroke="black" d="M3583.18,-431.65C3571.1,-421.46 3558.5,-410.83 3547.7,-401.72"/>
<polygon fill="black" stroke="black" points="3550.16,-399.21 3540.26,-395.44 3545.64,-404.56 3550.16,-399.21"/>
</g>
<!-- ExecuteUbergraph_Options_ShowSubtitles__236&#45;&gt;ExecuteUbergraph_Options_ShowSubtitles__10 -->
<g id="edge12" class="edge">
<title>ExecuteUbergraph_Options_ShowSubtitles__236&#45;&gt;ExecuteUbergraph_Options_ShowSubtitles__10</title>
<path fill="none" stroke="black" d="M3495.46,-358.64C3482.92,-349.66 3467.07,-338.31 3452.32,-327.74"/>
<polygon fill="black" stroke="black" points="3454.72,-325.16 3444.55,-322.18 3450.64,-330.85 3454.72,-325.16"/>
</g>
<!-- ExecuteUbergraph_Options_ShowSubtitles__241 -->
<g id="node15" class="node">
<title>ExecuteUbergraph_Options_ShowSubtitles__241</title>
<polygon fill="#eeeeee" stroke="black" points="3769.5,-717.5 3769.5,-753.5 3876.5,-753.5 3876.5,-717.5 3769.5,-717.5"/>
<text text-anchor="start" x="3777.5" y="-731.8" font-family="monospace" font-size="14.00">EX_Jump 175</text>
</g>
<!-- ExecuteUbergraph_Options_ShowSubtitles__241&#45;&gt;ExecuteUbergraph_Options_ShowSubtitles__175 -->
<g id="edge13" class="edge">
<title>ExecuteUbergraph_Options_ShowSubtitles__241&#45;&gt;ExecuteUbergraph_Options_ShowSubtitles__175</title>
<path fill="none" stroke="black" d="M3810.84,-717.66C3796.1,-697.24 3770.89,-662.3 3751.95,-636.07"/>
<polygon fill="black" stroke="black" points="3754.87,-634.13 3746.18,-628.07 3749.19,-638.22 3754.87,-634.13"/>
</g>
<!-- ExecuteUbergraph_Options_ShowSubtitles__246 -->
<g id="node16" class="node">
<title>ExecuteUbergraph_Options_ShowSubtitles__246</title>
<polygon fill="#eeeeee" stroke="black" points="2530.5,-821.5 2530.5,-874.5 3157.5,-874.5 3157.5,-821.5 2530.5,-821.5"/>
<text text-anchor="start" x="2538.5" y="-859.3" font-family="monospace" font-size="14.00">EX_LetObj</text>
<text text-anchor="start" x="2538.5" y="-844.3" font-family="monospace" font-size="14.00">  EX_LocalVariable [CallFunc_FSDGameUserSettings_ReturnValue_3]</text>
<text text-anchor="start" x="2538.5" y="-829.3" font-family="monospace" font-size="14.00">  EX_CallMath import /Script/FSD&#45;&gt;FSDGameUserSettings&#45;&gt;FSDGameUserSettings</text>
</g>
<!-- ExecuteUbergraph_Options_ShowSubtitles__266 -->
<g id="node17" class="node">
<title>ExecuteUbergraph_Options_ShowSubtitles__266</title>
<polygon fill="#eeeeee" stroke="black" points="2514,-686.5 2514,-784.5 3174,-784.5 3174,-686.5 2514,-686.5"/>
<text text-anchor="start" x="2522" y="-769.3" font-family="monospace" font-size="14.00">EX_LetBool</text>
<text text-anchor="start" x="2522" y="-754.3" font-family="monospace" font-size="14.00">  EX_LocalVariable [CallFunc_GetShowSubtitles_ReturnValue]</text>
<text text-anchor="start" x="2522" y="-739.3" font-family="monospace" font-size="14.00">  EX_Context</text>
<text text-anchor="start" x="2522" y="-724.3" font-family="monospace" font-size="14.00">    EX_LocalVariable [CallFunc_FSDGameUserSettings_ReturnValue_3]</text>
<text text-anchor="start" x="2522" y="-709.3" font-family="monospace" font-size="14.00">    EX_FinalFunction import /Script/FSD&#45;&gt;FSDGameUserSettings&#45;&gt;GetShowSubtitles</text>
<text text-anchor="start" x="2522" y="-694.3" font-family="monospace" font-size="14.00">    RValue = [CallFunc_GetShowSubtitles_ReturnValue]</text>
</g>
<!-- ExecuteUbergraph_Options_ShowSubtitles__246&#45;&gt;ExecuteUbergraph_Options_ShowSubtitles__266 -->
<g id="edge14" class="edge">
<title>ExecuteUbergraph_Options_ShowSubtitles__246&#45;&gt;ExecuteUbergraph_Options_ShowSubtitles__266</title>
<path fill="none" stroke="black" d="M2844,-821.65C2844,-813.85 2844,-804.92 2844,-795.84"/>
<polygon fill="black" stroke="black" points="2847.5,-795.85 2844,-785.85 2840.5,-795.85 2847.5,-795.85"/>
</g>
<!-- ExecuteUbergraph_Options_ShowSubtitles__308 -->
<g id="node18" class="node">
<title>ExecuteUbergraph_Options_ShowSubtitles__308</title>
<polygon fill="#eeeeee" stroke="black" points="2588,-431.5 2588,-514.5 3100,-514.5 3100,-431.5 2588,-431.5"/>
<text text-anchor="start" x="2596" y="-499.3" font-family="monospace" font-size="14.00">EX_Context</text>
<text text-anchor="start" x="2596" y="-484.3" font-family="monospace" font-size="14.00">  EX_InstanceVariable [Basic_CheckBox]</text>
<text text-anchor="start" x="2596" y="-469.3" font-family="monospace" font-size="14.00">  EX_LocalVirtualFunction SetIsChecked</text>
<text text-anchor="start" x="2596" y="-454.3" font-family="monospace" font-size="14.00">    EX_LocalVariable [CallFunc_GetShowSubtitles_ReturnValue]</text>
<text text-anchor="start" x="2596" y="-439.3" font-family="monospace" font-size="14.00">  RValue = []</text>
</g>
<!-- ExecuteUbergraph_Options_ShowSubtitles__266&#45;&gt;ExecuteUbergraph_Options_ShowSubtitles__308 -->
<g id="edge15" class="edge">
<title>ExecuteUbergraph_Options_ShowSubtitles__266&#45;&gt;ExecuteUbergraph_Options_ShowSubtitles__308</title>
<path fill="none" stroke="black" d="M2844,-686.72C2844,-641.09 2844,-572.51 2844,-525.64"/>
<polygon fill="black" stroke="black" points="2847.5,-525.73 2844,-515.73 2840.5,-525.73 2847.5,-525.73"/>
</g>
<!-- ExecuteUbergraph_Options_ShowSubtitles__308&#45;&gt;ExecuteUbergraph_Options_ShowSubtitles__353 -->
<g id="edge16" class="edge">
<title>ExecuteUbergraph_Options_ShowSubtitles__308&#45;&gt;ExecuteUbergraph_Options_ShowSubtitles__353</title>
<path fill="none" stroke="black" d="M2844,-431.81C2844,-396.13 2844,-342.6 2844,-296 2844,-296 2844,-296 2844,-189 2844,-140.02 2844,-83.03 2844,-49.46"/>
<polygon fill="black" stroke="black" points="2847.5,-49.72 2844,-39.72 2840.5,-49.72 2847.5,-49.72"/>
</g>
<!-- ExecuteUbergraph_Options_ShowSubtitles__355 -->
<g id="node20" class="node">
<title>ExecuteUbergraph_Options_ShowSubtitles__355</title>
<polygon fill="#eeeeee" stroke="black" points="3740,-277 3740,-313 3872,-313 3872,-277 3740,-277"/>
<text text-anchor="start" x="3748" y="-291.3" font-family="monospace" font-size="14.00">EX_EndOfScript</text>
</g>
<!-- OnGameUserSettingsChanged -->
<g id="node21" class="node">
<title>OnGameUserSettingsChanged</title>
<polygon fill="#ff8888" stroke="black" points="2307.5,-1047.5 2307.5,-1083.5 2604.5,-1083.5 2604.5,-1047.5 2307.5,-1047.5"/>
<text text-anchor="start" x="2315.5" y="-1061.8" font-family="monospace" font-size="14.00">Function OnGameUserSettingsChanged</text>
</g>
<!-- OnGameUserSettingsChanged__0 -->
<g id="node22" class="node">
<title>OnGameUserSettingsChanged__0</title>
<polygon fill="#eeeeee" stroke="black" points="2068,-911.5 2068,-949.5 2844,-949.5 2844,-911.5 2068,-911.5"/>
<text text-anchor="start" x="2076" y="-934.3" font-family="monospace" font-size="14.00">EX_LocalFinalFunction export Options_ShowSubtitles_C&#45;&gt;ExecuteUbergraph_Options_ShowSubtitles</text>
<text text-anchor="start" x="2076" y="-919.3" font-family="monospace" font-size="14.00">  EX_IntConst 246</text>
</g>
<!-- OnGameUserSettingsChanged&#45;&gt;OnGameUserSettingsChanged__0 -->
<g id="edge17" class="edge">
<title>OnGameUserSettingsChanged&#45;&gt;OnGameUserSettingsChanged__0</title>
<path fill="none" stroke="black" d="M2456,-1047.66C2456,-1025.83 2456,-987.44 2456,-960.79"/>
<polygon fill="black" stroke="black" points="2459.5,-960.99 2456,-950.99 2452.5,-960.99 2459.5,-960.99"/>
</g>
<!-- OnGameUserSettingsChanged__0&#45;&gt;ExecuteUbergraph_Options_ShowSubtitles__246 -->
<g id="edge18" class="edge">
<title>OnGameUserSettingsChanged__0:e&#45;&gt;ExecuteUbergraph_Options_ShowSubtitles__246</title>
<path fill="none" stroke="red" d="M2845,-930.5C2864.49,-930.5 2862.72,-906.91 2856.92,-885.11"/>
<polygon fill="none" stroke="red" points="2860.36,-884.38 2854.15,-875.79 2853.65,-886.37 2860.36,-884.38"/>
</g>
<!-- OnGameUserSettingsChanged__15 -->
<g id="node23" class="node">
<title>OnGameUserSettingsChanged__15</title>
<polygon fill="#eeeeee" stroke="black" points="2396,-829 2396,-867 2512,-867 2512,-829 2396,-829"/>
<text text-anchor="start" x="2404" y="-851.8" font-family="monospace" font-size="14.00">EX_Return</text>
<text text-anchor="start" x="2404" y="-836.8" font-family="monospace" font-size="14.00">  EX_Nothing</text>
</g>
<!-- OnGameUserSettingsChanged__0&#45;&gt;OnGameUserSettingsChanged__15 -->
<g id="edge19" class="edge">
<title>OnGameUserSettingsChanged__0&#45;&gt;OnGameUserSettingsChanged__15</title>
<path fill="none" stroke="black" d="M2455.56,-911.63C2455.31,-901.84 2455,-889.45 2454.73,-878.28"/>
<polygon fill="black" stroke="black" points="2458.23,-878.24 2454.48,-868.33 2451.23,-878.41 2458.23,-878.24"/>
</g>
<!-- OnGameUserSettingsChanged__17 -->
<g id="node24" class="node">
<title>OnGameUserSettingsChanged__17</title>
<polygon fill="#eeeeee" stroke="black" points="3548,-172 3548,-208 3680,-208 3680,-172 3548,-172"/>
<text text-anchor="start" x="3556" y="-186.3" font-family="monospace" font-size="14.00">EX_EndOfScript</text>
</g>
<!-- BndEvt__Basic_CheckBox_K2Node_ComponentBoundEvent_8_OnCheckStateChanged__DelegateSignature -->
<g id="node25" class="node">
<title>BndEvt__Basic_CheckBox_K2Node_ComponentBoundEvent_8_OnCheckStateChanged__DelegateSignature</title>
<polygon fill="#ff8888" stroke="black" points="3147.5,-1039 3147.5,-1092 3980.5,-1092 3980.5,-1039 3147.5,-1039"/>
<text text-anchor="start" x="3155.5" y="-1076.8" font-family="monospace" font-size="14.00">Function BndEvt__Basic_CheckBox_K2Node_ComponentBoundEvent_8_OnCheckStateChanged__DelegateSignature</text>
<text text-anchor="start" x="3155.5" y="-1061.8" font-family="monospace" font-size="14.00">  BoolProperty IsChecked</text>
<text text-anchor="start" x="3155.5" y="-1046.8" font-family="monospace" font-size="14.00">    CPF_BlueprintVisible|CPF_BlueprintReadOnly|CPF_Parm</text>
</g>
<!-- BndEvt__Basic_CheckBox_K2Node_ComponentBoundEvent_8_OnCheckStateChanged__DelegateSignature__0 -->
<g id="node26" class="node">
<title>BndEvt__Basic_CheckBox_K2Node_ComponentBoundEvent_8_OnCheckStateChanged__DelegateSignature__0</title>
<polygon fill="#eeeeee" stroke="black" points="3279.5,-911.5 3279.5,-949.5 3848.5,-949.5 3848.5,-911.5 3279.5,-911.5"/>
<text text-anchor="start" x="3287.5" y="-934.3" font-family="monospace" font-size="14.00">EX_LetValueOnPersistentFrame [K2Node_ComponentBoundEvent_IsChecked]</text>
<text text-anchor="start" x="3287.5" y="-919.3" font-family="monospace" font-size="14.00">  EX_LocalVariable [IsChecked]</text>
</g>
<!-- BndEvt__Basic_CheckBox_K2Node_ComponentBoundEvent_8_OnCheckStateChanged__DelegateSignature&#45;&gt;BndEvt__Basic_CheckBox_K2Node_ComponentBoundEvent_8_OnCheckStateChanged__DelegateSignature__0 -->
<g id="edge20" class="edge">
<title>BndEvt__Basic_CheckBox_K2Node_ComponentBoundEvent_8_OnCheckStateChanged__DelegateSignature&#45;&gt;BndEvt__Basic_CheckBox_K2Node_ComponentBoundEvent_8_OnCheckStateChanged__DelegateSignature__0</title>
<path fill="none" stroke="black" d="M3564,-1039.17C3564,-1016.84 3564,-984.29 3564,-960.83"/>
<polygon fill="black" stroke="black" points="3567.5,-961 3564,-951 3560.5,-961 3567.5,-961"/>
</g>
<!-- BndEvt__Basic_CheckBox_K2Node_ComponentBoundEvent_8_OnCheckStateChanged__DelegateSignature__18 -->
<g id="node27" class="node">
<title>BndEvt__Basic_CheckBox_K2Node_ComponentBoundEvent_8_OnCheckStateChanged__DelegateSignature__18</title>
<polygon fill="#eeeeee" stroke="black" points="3176,-829 3176,-867 3952,-867 3952,-829 3176,-829"/>
<text text-anchor="start" x="3184" y="-851.8" font-family="monospace" font-size="14.00">EX_LocalFinalFunction export Options_ShowSubtitles_C&#45;&gt;ExecuteUbergraph_Options_ShowSubtitles</text>
<text text-anchor="start" x="3184" y="-836.8" font-family="monospace" font-size="14.00">  EX_IntConst 241</text>
</g>
<!-- BndEvt__Basic_CheckBox_K2Node_ComponentBoundEvent_8_OnCheckStateChanged__DelegateSignature__0&#45;&gt;BndEvt__Basic_CheckBox_K2Node_ComponentBoundEvent_8_OnCheckStateChanged__DelegateSignature__18 -->
<g id="edge21" class="edge">
<title>BndEvt__Basic_CheckBox_K2Node_ComponentBoundEvent_8_OnCheckStateChanged__DelegateSignature__0&#45;&gt;BndEvt__Basic_CheckBox_K2Node_ComponentBoundEvent_8_OnCheckStateChanged__DelegateSignature__18</title>
<path fill="none" stroke="black" d="M3564,-911.63C3564,-901.84 3564,-889.45 3564,-878.28"/>
<polygon fill="black" stroke="black" points="3567.5,-878.33 3564,-868.33 3560.5,-878.33 3567.5,-878.33"/>
</g>
<!-- BndEvt__Basic_CheckBox_K2Node_ComponentBoundEvent_8_OnCheckStateChanged__DelegateSignature__18&#45;&gt;ExecuteUbergraph_Options_ShowSubtitles__241 -->
<g id="edge22" class="edge">
<title>BndEvt__Basic_CheckBox_K2Node_ComponentBoundEvent_8_OnCheckStateChanged__DelegateSignature__18:e&#45;&gt;ExecuteUbergraph_Options_ShowSubtitles__241</title>
<path fill="none" stroke="red" d="M3953,-848C4007.14,-848 3918.51,-791.6 3862.81,-759.03"/>
<polygon fill="none" stroke="red" points="3864.89,-756.18 3854.48,-754.19 3861.37,-762.24 3864.89,-756.18"/>
</g>
<!-- BndEvt__Basic_CheckBox_K2Node_ComponentBoundEvent_8_OnCheckStateChanged__DelegateSignature__33 -->
<g id="node28" class="node">
<title>BndEvt__Basic_CheckBox_K2Node_ComponentBoundEvent_8_OnCheckStateChanged__DelegateSignature__33</title>
<polygon fill="#eeeeee" stroke="black" points="3506,-716.5 3506,-754.5 3622,-754.5 3622,-716.5 3506,-716.5"/>
<text text-anchor="start" x="3514" y="-739.3" font-family="monospace" font-size="14.00">EX_Return</text>
<text text-anchor="start" x="3514" y="-724.3" font-family="monospace" font-size="14.00">  EX_Nothing</text>
</g>
<!-- BndEvt__Basic_CheckBox_K2Node_ComponentBoundEvent_8_OnCheckStateChanged__DelegateSignature__18&#45;&gt;BndEvt__Basic_CheckBox_K2Node_ComponentBoundEvent_8_OnCheckStateChanged__DelegateSignature__33 -->
<g id="edge23" class="edge">
<title>BndEvt__Basic_CheckBox_K2Node_ComponentBoundEvent_8_OnCheckStateChanged__DelegateSignature__18&#45;&gt;BndEvt__Basic_CheckBox_K2Node_ComponentBoundEvent_8_OnCheckStateChanged__DelegateSignature__33</title>
<path fill="none" stroke="black" d="M3564,-829.25C3564,-812.09 3564,-785.8 3564,-765.58"/>
<polygon fill="black" stroke="black" points="3567.5,-765.72 3564,-755.72 3560.5,-765.72 3567.5,-765.72"/>
</g>
<!-- BndEvt__Basic_CheckBox_K2Node_ComponentBoundEvent_8_OnCheckStateChanged__DelegateSignature__35 -->
<g id="node29" class="node">
<title>BndEvt__Basic_CheckBox_K2Node_ComponentBoundEvent_8_OnCheckStateChanged__DelegateSignature__35</title>
<polygon fill="#eeeeee" stroke="black" points="3170,-75.5 3170,-111.5 3302,-111.5 3302,-75.5 3170,-75.5"/>
<text text-anchor="start" x="3178" y="-89.8" font-family="monospace" font-size="14.00">EX_EndOfScript</text>
</g>
<!-- Construct -->
<g id="node30" class="node">
<title>Construct</title>
<polygon fill="#ff8888" stroke="black" points="1579.5,-1047.5 1579.5,-1083.5 1744.5,-1083.5 1744.5,-1047.5 1579.5,-1047.5"/>
<text text-anchor="start" x="1587.5" y="-1061.8" font-family="monospace" font-size="14.00">Function Construct</text>
</g>
<!-- Construct__0 -->
<g id="node31" class="node">
<title>Construct__0</title>
<polygon fill="#eeeeee" stroke="black" points="1274,-911.5 1274,-949.5 2050,-949.5 2050,-911.5 1274,-911.5"/>
<text text-anchor="start" x="1282" y="-934.3" font-family="monospace" font-size="14.00">EX_LocalFinalFunction export Options_ShowSubtitles_C&#45;&gt;ExecuteUbergraph_Options_ShowSubtitles</text>
<text text-anchor="start" x="1282" y="-919.3" font-family="monospace" font-size="14.00">  EX_IntConst 72</text>
</g>
<!-- Construct&#45;&gt;Construct__0 -->
<g id="edge24" class="edge">
<title>Construct&#45;&gt;Construct__0</title>
<path fill="none" stroke="black" d="M1662,-1047.66C1662,-1025.83 1662,-987.44 1662,-960.79"/>
<polygon fill="black" stroke="black" points="1665.5,-960.99 1662,-950.99 1658.5,-960.99 1665.5,-960.99"/>
</g>
<!-- Construct__0&#45;&gt;ExecuteUbergraph_Options_ShowSubtitles__72 -->
<g id="edge25" class="edge">
<title>Construct__0:e&#45;&gt;ExecuteUbergraph_Options_ShowSubtitles__72</title>
<path fill="none" stroke="red" d="M2051,-930.5C2055.85,-930.5 2057.51,-907.34 2058.02,-885.71"/>
<polygon fill="none" stroke="red" points="2061.51,-885.9 2058.16,-875.85 2054.51,-885.8 2061.51,-885.9"/>
</g>
<!-- Construct__15 -->
<g id="node32" class="node">
<title>Construct__15</title>
<polygon fill="#eeeeee" stroke="black" points="1604,-829 1604,-867 1720,-867 1720,-829 1604,-829"/>
<text text-anchor="start" x="1612" y="-851.8" font-family="monospace" font-size="14.00">EX_Return</text>
<text text-anchor="start" x="1612" y="-836.8" font-family="monospace" font-size="14.00">  EX_Nothing</text>
</g>
<!-- Construct__0&#45;&gt;Construct__15 -->
<g id="edge26" class="edge">
<title>Construct__0&#45;&gt;Construct__15</title>
<path fill="none" stroke="black" d="M1662,-911.63C1662,-901.84 1662,-889.45 1662,-878.28"/>
<polygon fill="black" stroke="black" points="1665.5,-878.33 1662,-868.33 1658.5,-878.33 1665.5,-878.33"/>
</g>
<!-- Construct__17 -->
<g id="node33" class="node">
<title>Construct__17</title>
<polygon fill="#eeeeee" stroke="black" points="2920,-1.5 2920,-37.5 3052,-37.5 3052,-1.5 2920,-1.5"/>
<text text-anchor="start" x="2928" y="-15.8" font-family="monospace" font-size="14.00">EX_EndOfScript</text>
</g>
</g>
</svg>
