<?xml version="1.0" encoding="UTF-8" standalone="no"?>
<!DOCTYPE svg PUBLIC "-//W3C//DTD SVG 1.1//EN"
 "http://www.w3.org/Graphics/SVG/1.1/DTD/svg11.dtd">
<!-- Generated by graphviz version 7.0.1 (0)
 -->
<!-- Pages: 1 -->
<svg width="4954pt" height="1318pt"
 viewBox="0.00 0.00 4953.50 1318.00" xmlns="http://www.w3.org/2000/svg" xmlns:xlink="http://www.w3.org/1999/xlink">
<g id="graph0" class="graph" transform="scale(1 1) rotate(0) translate(4 1314)">
<polygon fill="white" stroke="none" points="-4,4 -4,-1314 4949.5,-1314 4949.5,4 -4,4"/>
<!-- Options_AMD_FSR2_Quality_C -->
<g id="node1" class="node">
<title>Options_AMD_FSR2_Quality_C</title>
<polygon fill="#88ff88" stroke="black" points="0,-1151.5 0,-1264.5 850,-1264.5 850,-1151.5 0,-1151.5"/>
<text text-anchor="start" x="8" y="-1249.3" font-family="monospace" font-size="14.00">ClassExport: Options_AMD_FSR2_Quality_C</text>
<text text-anchor="start" x="8" y="-1234.3" font-family="monospace" font-size="14.00">  SuperStruct: import /Script/UMG&#45;&gt;UserWidget</text>
<text text-anchor="start" x="8" y="-1219.3" font-family="monospace" font-size="14.00">  Properties:</text>
<text text-anchor="start" x="8" y="-1204.3" font-family="monospace" font-size="14.00">    StructProperty UberGraphFrame</text>
<text text-anchor="start" x="8" y="-1189.3" font-family="monospace" font-size="14.00">      CPF_Transient|CPF_DuplicateTransient</text>
<text text-anchor="start" x="8" y="-1174.3" font-family="monospace" font-size="14.00">    ObjectProperty Basic_OptionSwitcher</text>
<text text-anchor="start" x="8" y="-1159.3" font-family="monospace" font-size="14.00">      CPF_BlueprintVisible|CPF_ExportObject|CPF_InstancedReference|CPF_RepSkip|CPF_PersistentInstance</text>
</g>
<!-- ExecuteUbergraph_Options_AMD_FSR2_Quality -->
<g id="node2" class="node">
<title>ExecuteUbergraph_Options_AMD_FSR2_Quality</title>
<polygon fill="#ff8888" stroke="black" points="868,-1106.5 868,-1309.5 1396,-1309.5 1396,-1106.5 868,-1106.5"/>
<text text-anchor="start" x="876" y="-1294.3" font-family="monospace" font-size="14.00">Function ExecuteUbergraph_Options_AMD_FSR2_Quality</text>
<text text-anchor="start" x="876" y="-1279.3" font-family="monospace" font-size="14.00">  IntProperty EntryPoint</text>
<text text-anchor="start" x="876" y="-1264.3" font-family="monospace" font-size="14.00">    CPF_BlueprintVisible|CPF_BlueprintReadOnly|CPF_Parm</text>
<text text-anchor="start" x="876" y="-1249.3" font-family="monospace" font-size="14.00">  ObjectProperty CallFunc_GetFSDGameInstance_ReturnValue</text>
<text text-anchor="start" x="876" y="-1234.3" font-family="monospace" font-size="14.00">  DelegateProperty K2Node_CreateDelegate_OutputDelegate</text>
<text text-anchor="start" x="876" y="-1219.3" font-family="monospace" font-size="14.00">  ObjectProperty CallFunc_GetFSDGameInstance_ReturnValue_1</text>
<text text-anchor="start" x="876" y="-1204.3" font-family="monospace" font-size="14.00">  ObjectProperty CallFunc_GetFSDGameUserSettings_ReturnValue</text>
<text text-anchor="start" x="876" y="-1189.3" font-family="monospace" font-size="14.00">  TextProperty K2Node_ComponentBoundEvent_Value</text>
<text text-anchor="start" x="876" y="-1174.3" font-family="monospace" font-size="14.00">  IntProperty K2Node_ComponentBoundEvent_Index</text>
<text text-anchor="start" x="876" y="-1159.3" font-family="monospace" font-size="14.00">  IntProperty CallFunc_GetAMDFSR2Mode_ReturnValue</text>
<text text-anchor="start" x="876" y="-1144.3" font-family="monospace" font-size="14.00">  IntProperty CallFunc_Add_IntInt_ReturnValue</text>
<text text-anchor="start" x="876" y="-1129.3" font-family="monospace" font-size="14.00">  IntProperty CallFunc_Subtract_IntInt_ReturnValue</text>
<text text-anchor="start" x="876" y="-1114.3" font-family="monospace" font-size="14.00">  ObjectProperty CallFunc_GetFSDGameUserSettings_ReturnValue_1</text>
</g>
<!-- ExecuteUbergraph_Options_AMD_FSR2_Quality__0 -->
<g id="node3" class="node">
<title>ExecuteUbergraph_Options_AMD_FSR2_Quality__0</title>
<polygon fill="#eeeeee" stroke="black" points="996,-1031.5 996,-1069.5 1268,-1069.5 1268,-1031.5 996,-1031.5"/>
<text text-anchor="start" x="1004" y="-1054.3" font-family="monospace" font-size="14.00">EX_ComputedJump</text>
<text text-anchor="start" x="1004" y="-1039.3" font-family="monospace" font-size="14.00">  EX_LocalVariable [EntryPoint]</text>
</g>
<!-- ExecuteUbergraph_Options_AMD_FSR2_Quality&#45;&gt;ExecuteUbergraph_Options_AMD_FSR2_Quality__0 -->
<g id="edge1" class="edge">
<title>ExecuteUbergraph_Options_AMD_FSR2_Quality&#45;&gt;ExecuteUbergraph_Options_AMD_FSR2_Quality__0</title>
<path fill="none" stroke="black" d="M1132,-1106.76C1132,-1097.35 1132,-1088.42 1132,-1080.59"/>
<polygon fill="black" stroke="black" points="1135.5,-1080.8 1132,-1070.8 1128.5,-1080.8 1135.5,-1080.8"/>
</g>
<!-- ExecuteUbergraph_Options_AMD_FSR2_Quality__10 -->
<g id="node4" class="node">
<title>ExecuteUbergraph_Options_AMD_FSR2_Quality__10</title>
<polygon fill="#eeeeee" stroke="black" points="3432.5,-253.5 3432.5,-321.5 4051.5,-321.5 4051.5,-253.5 3432.5,-253.5"/>
<text text-anchor="start" x="3440.5" y="-306.3" font-family="monospace" font-size="14.00">EX_LetObj</text>
<text text-anchor="start" x="3440.5" y="-291.3" font-family="monospace" font-size="14.00">  EX_LocalVariable [CallFunc_GetFSDGameInstance_ReturnValue]</text>
<text text-anchor="start" x="3440.5" y="-276.3" font-family="monospace" font-size="14.00">  EX_CallMath import /Script/FSD&#45;&gt;GameFunctionLibrary&#45;&gt;GetFSDGameInstance</text>
<text text-anchor="start" x="3440.5" y="-261.3" font-family="monospace" font-size="14.00">    EX_Self</text>
</g>
<!-- ExecuteUbergraph_Options_AMD_FSR2_Quality__31 -->
<g id="node5" class="node">
<title>ExecuteUbergraph_Options_AMD_FSR2_Quality__31</title>
<polygon fill="#eeeeee" stroke="black" points="3397,-148.5 3397,-216.5 4065,-216.5 4065,-148.5 3397,-148.5"/>
<text text-anchor="start" x="3405" y="-201.3" font-family="monospace" font-size="14.00">EX_Context</text>
<text text-anchor="start" x="3405" y="-186.3" font-family="monospace" font-size="14.00">  EX_LocalVariable [CallFunc_GetFSDGameInstance_ReturnValue]</text>
<text text-anchor="start" x="3405" y="-171.3" font-family="monospace" font-size="14.00">  EX_FinalFunction import /Script/FSD&#45;&gt;FSDGameInstance&#45;&gt;GameUserSettingsChanged</text>
<text text-anchor="start" x="3405" y="-156.3" font-family="monospace" font-size="14.00">  RValue = []</text>
</g>
<!-- ExecuteUbergraph_Options_AMD_FSR2_Quality__10&#45;&gt;ExecuteUbergraph_Options_AMD_FSR2_Quality__31 -->
<g id="edge2" class="edge">
<title>ExecuteUbergraph_Options_AMD_FSR2_Quality__10&#45;&gt;ExecuteUbergraph_Options_AMD_FSR2_Quality__31</title>
<path fill="none" stroke="black" d="M3738.49,-253.63C3737.61,-245.36 3736.64,-236.35 3735.71,-227.63"/>
<polygon fill="black" stroke="black" points="3739.22,-227.49 3734.68,-217.92 3732.26,-228.23 3739.22,-227.49"/>
</g>
<!-- ExecuteUbergraph_Options_AMD_FSR2_Quality__63 -->
<g id="node6" class="node">
<title>ExecuteUbergraph_Options_AMD_FSR2_Quality__63</title>
<polygon fill="#eeeeee" stroke="black" points="3438.5,-75.5 3438.5,-111.5 3545.5,-111.5 3545.5,-75.5 3438.5,-75.5"/>
<text text-anchor="start" x="3446.5" y="-89.8" font-family="monospace" font-size="14.00">EX_Jump 461</text>
</g>
<!-- ExecuteUbergraph_Options_AMD_FSR2_Quality__31&#45;&gt;ExecuteUbergraph_Options_AMD_FSR2_Quality__63 -->
<g id="edge3" class="edge">
<title>ExecuteUbergraph_Options_AMD_FSR2_Quality__31&#45;&gt;ExecuteUbergraph_Options_AMD_FSR2_Quality__63</title>
<path fill="none" stroke="black" d="M3640.64,-148.61C3609.95,-137.44 3576.53,-125.27 3549.16,-115.31"/>
<polygon fill="black" stroke="black" points="3550.62,-112.12 3540.03,-111.98 3548.23,-118.69 3550.62,-112.12"/>
</g>
<!-- ExecuteUbergraph_Options_AMD_FSR2_Quality__461 -->
<g id="node23" class="node">
<title>ExecuteUbergraph_Options_AMD_FSR2_Quality__461</title>
<polygon fill="#eeeeee" stroke="black" points="3080,-0.5 3080,-38.5 3196,-38.5 3196,-0.5 3080,-0.5"/>
<text text-anchor="start" x="3088" y="-23.3" font-family="monospace" font-size="14.00">EX_Return</text>
<text text-anchor="start" x="3088" y="-8.3" font-family="monospace" font-size="14.00">  EX_Nothing</text>
</g>
<!-- ExecuteUbergraph_Options_AMD_FSR2_Quality__63&#45;&gt;ExecuteUbergraph_Options_AMD_FSR2_Quality__461 -->
<g id="edge4" class="edge">
<title>ExecuteUbergraph_Options_AMD_FSR2_Quality__63&#45;&gt;ExecuteUbergraph_Options_AMD_FSR2_Quality__461</title>
<path fill="none" stroke="black" d="M3438.56,-83.94C3383.08,-74.74 3293.59,-59.02 3206.78,-39.31"/>
<polygon fill="black" stroke="black" points="3207.67,-35.92 3197.14,-37.1 3206.1,-42.74 3207.67,-35.92"/>
</g>
<!-- ExecuteUbergraph_Options_AMD_FSR2_Quality__68 -->
<g id="node7" class="node">
<title>ExecuteUbergraph_Options_AMD_FSR2_Quality__68</title>
<polygon fill="#eeeeee" stroke="black" points="1923.5,-941.5 1923.5,-994.5 2410.5,-994.5 2410.5,-941.5 1923.5,-941.5"/>
<text text-anchor="start" x="1931.5" y="-979.3" font-family="monospace" font-size="14.00">EX_BindDelegate UINeedsUpdate</text>
<text text-anchor="start" x="1931.5" y="-964.3" font-family="monospace" font-size="14.00">  EX_LocalVariable [K2Node_CreateDelegate_OutputDelegate]</text>
<text text-anchor="start" x="1931.5" y="-949.3" font-family="monospace" font-size="14.00">  EX_Self</text>
</g>
<!-- ExecuteUbergraph_Options_AMD_FSR2_Quality__91 -->
<g id="node8" class="node">
<title>ExecuteUbergraph_Options_AMD_FSR2_Quality__91</title>
<polygon fill="#eeeeee" stroke="black" points="2227.5,-821.5 2227.5,-889.5 2846.5,-889.5 2846.5,-821.5 2227.5,-821.5"/>
<text text-anchor="start" x="2235.5" y="-874.3" font-family="monospace" font-size="14.00">EX_LetObj</text>
<text text-anchor="start" x="2235.5" y="-859.3" font-family="monospace" font-size="14.00">  EX_LocalVariable [CallFunc_GetFSDGameInstance_ReturnValue_1]</text>
<text text-anchor="start" x="2235.5" y="-844.3" font-family="monospace" font-size="14.00">  EX_CallMath import /Script/FSD&#45;&gt;GameFunctionLibrary&#45;&gt;GetFSDGameInstance</text>
<text text-anchor="start" x="2235.5" y="-829.3" font-family="monospace" font-size="14.00">    EX_Self</text>
</g>
<!-- ExecuteUbergraph_Options_AMD_FSR2_Quality__68&#45;&gt;ExecuteUbergraph_Options_AMD_FSR2_Quality__91 -->
<g id="edge5" class="edge">
<title>ExecuteUbergraph_Options_AMD_FSR2_Quality__68&#45;&gt;ExecuteUbergraph_Options_AMD_FSR2_Quality__91</title>
<path fill="none" stroke="black" d="M2252.35,-941.51C2300.87,-927.02 2362.42,-908.64 2415.87,-892.68"/>
<polygon fill="black" stroke="black" points="2416.76,-896.06 2425.34,-889.85 2414.76,-889.36 2416.76,-896.06"/>
</g>
<!-- ExecuteUbergraph_Options_AMD_FSR2_Quality__112 -->
<g id="node9" class="node">
<title>ExecuteUbergraph_Options_AMD_FSR2_Quality__112</title>
<polygon fill="#eeeeee" stroke="black" points="2381.5,-671.5 2381.5,-769.5 2926.5,-769.5 2926.5,-671.5 2381.5,-671.5"/>
<text text-anchor="start" x="2389.5" y="-754.3" font-family="monospace" font-size="14.00">EX_AddMulticastDelegate</text>
<text text-anchor="start" x="2389.5" y="-739.3" font-family="monospace" font-size="14.00">  EX_Context</text>
<text text-anchor="start" x="2389.5" y="-724.3" font-family="monospace" font-size="14.00">    EX_LocalVariable [CallFunc_GetFSDGameInstance_ReturnValue_1]</text>
<text text-anchor="start" x="2389.5" y="-709.3" font-family="monospace" font-size="14.00">    EX_InstanceVariable [OnGameSettingsChanged]</text>
<text text-anchor="start" x="2389.5" y="-694.3" font-family="monospace" font-size="14.00">    RValue = [OnGameSettingsChanged]</text>
<text text-anchor="start" x="2389.5" y="-679.3" font-family="monospace" font-size="14.00">  EX_LocalVariable [K2Node_CreateDelegate_OutputDelegate]</text>
</g>
<!-- ExecuteUbergraph_Options_AMD_FSR2_Quality__91&#45;&gt;ExecuteUbergraph_Options_AMD_FSR2_Quality__112 -->
<g id="edge6" class="edge">
<title>ExecuteUbergraph_Options_AMD_FSR2_Quality__91&#45;&gt;ExecuteUbergraph_Options_AMD_FSR2_Quality__112</title>
<path fill="none" stroke="black" d="M2565.92,-821.62C2577.63,-808.32 2591.47,-792.58 2604.68,-777.56"/>
<polygon fill="black" stroke="black" points="2606.96,-780.27 2610.94,-770.45 2601.7,-775.65 2606.96,-780.27"/>
</g>
<!-- ExecuteUbergraph_Options_AMD_FSR2_Quality__153 -->
<g id="node10" class="node">
<title>ExecuteUbergraph_Options_AMD_FSR2_Quality__153</title>
<polygon fill="#eeeeee" stroke="black" points="2620.5,-575 2620.5,-611 2925.5,-611 2925.5,-575 2620.5,-575"/>
<text text-anchor="start" x="2628.5" y="-589.3" font-family="monospace" font-size="14.00">EX_LocalVirtualFunction ShowOptions</text>
</g>
<!-- ExecuteUbergraph_Options_AMD_FSR2_Quality__112&#45;&gt;ExecuteUbergraph_Options_AMD_FSR2_Quality__153 -->
<g id="edge7" class="edge">
<title>ExecuteUbergraph_Options_AMD_FSR2_Quality__112&#45;&gt;ExecuteUbergraph_Options_AMD_FSR2_Quality__153</title>
<path fill="none" stroke="black" d="M2699.33,-671.7C2716.35,-653.75 2735.01,-634.06 2749.3,-619"/>
<polygon fill="black" stroke="black" points="2751.77,-621.47 2756.11,-611.81 2746.69,-616.66 2751.77,-621.47"/>
</g>
<!-- ExecuteUbergraph_Options_AMD_FSR2_Quality__167 -->
<g id="node11" class="node">
<title>ExecuteUbergraph_Options_AMD_FSR2_Quality__167</title>
<polygon fill="#eeeeee" stroke="black" points="2883.5,-269.5 2883.5,-305.5 2990.5,-305.5 2990.5,-269.5 2883.5,-269.5"/>
<text text-anchor="start" x="2891.5" y="-283.8" font-family="monospace" font-size="14.00">EX_Jump 461</text>
</g>
<!-- ExecuteUbergraph_Options_AMD_FSR2_Quality__153&#45;&gt;ExecuteUbergraph_Options_AMD_FSR2_Quality__167 -->
<g id="edge8" class="edge">
<title>ExecuteUbergraph_Options_AMD_FSR2_Quality__153&#45;&gt;ExecuteUbergraph_Options_AMD_FSR2_Quality__167</title>
<path fill="none" stroke="black" d="M2782.05,-575.25C2809.1,-525.19 2889.5,-376.41 2922.56,-315.23"/>
<polygon fill="black" stroke="black" points="2925.58,-316.99 2927.26,-306.53 2919.42,-313.66 2925.58,-316.99"/>
</g>
<!-- ExecuteUbergraph_Options_AMD_FSR2_Quality__167&#45;&gt;ExecuteUbergraph_Options_AMD_FSR2_Quality__461 -->
<g id="edge9" class="edge">
<title>ExecuteUbergraph_Options_AMD_FSR2_Quality__167&#45;&gt;ExecuteUbergraph_Options_AMD_FSR2_Quality__461</title>
<path fill="none" stroke="black" d="M2948.68,-269.76C2974.02,-233.62 3036.26,-145.83 3092,-75 3099.27,-65.76 3107.48,-55.87 3114.93,-47.09"/>
<polygon fill="black" stroke="black" points="3117.53,-49.44 3121.37,-39.56 3112.21,-44.89 3117.53,-49.44"/>
</g>
<!-- ExecuteUbergraph_Options_AMD_FSR2_Quality__172 -->
<g id="node12" class="node">
<title>ExecuteUbergraph_Options_AMD_FSR2_Quality__172</title>
<polygon fill="#eeeeee" stroke="black" points="2852.5,-950 2852.5,-986 3157.5,-986 3157.5,-950 2852.5,-950"/>
<text text-anchor="start" x="2860.5" y="-964.3" font-family="monospace" font-size="14.00">EX_LocalVirtualFunction ShowOptions</text>
</g>
<!-- ExecuteUbergraph_Options_AMD_FSR2_Quality__186 -->
<g id="node13" class="node">
<title>ExecuteUbergraph_Options_AMD_FSR2_Quality__186</title>
<polygon fill="#eeeeee" stroke="black" points="3024.5,-358.5 3024.5,-394.5 3131.5,-394.5 3131.5,-358.5 3024.5,-358.5"/>
<text text-anchor="start" x="3032.5" y="-372.8" font-family="monospace" font-size="14.00">EX_Jump 461</text>
</g>
<!-- ExecuteUbergraph_Options_AMD_FSR2_Quality__172&#45;&gt;ExecuteUbergraph_Options_AMD_FSR2_Quality__186 -->
<g id="edge10" class="edge">
<title>ExecuteUbergraph_Options_AMD_FSR2_Quality__172&#45;&gt;ExecuteUbergraph_Options_AMD_FSR2_Quality__186</title>
<path fill="none" stroke="black" d="M3012.95,-950.17C3030.7,-911 3072,-810.3 3072,-721.5 3072,-721.5 3072,-721.5 3072,-592 3072,-525.32 3074.93,-447.03 3076.7,-405.96"/>
<polygon fill="black" stroke="black" points="3080.19,-406.11 3077.14,-395.97 3073.2,-405.81 3080.19,-406.11"/>
</g>
<!-- ExecuteUbergraph_Options_AMD_FSR2_Quality__186&#45;&gt;ExecuteUbergraph_Options_AMD_FSR2_Quality__461 -->
<g id="edge11" class="edge">
<title>ExecuteUbergraph_Options_AMD_FSR2_Quality__186&#45;&gt;ExecuteUbergraph_Options_AMD_FSR2_Quality__461</title>
<path fill="none" stroke="black" d="M3080.81,-358.85C3090.27,-302.87 3121.02,-120.94 3133.08,-49.59"/>
<polygon fill="black" stroke="black" points="3136.51,-50.3 3134.73,-39.86 3129.61,-49.13 3136.51,-50.3"/>
</g>
<!-- ExecuteUbergraph_Options_AMD_FSR2_Quality__191 -->
<g id="node14" class="node">
<title>ExecuteUbergraph_Options_AMD_FSR2_Quality__191</title>
<polygon fill="#eeeeee" stroke="black" points="3410,-941.5 3410,-994.5 4062,-994.5 4062,-941.5 3410,-941.5"/>
<text text-anchor="start" x="3418" y="-979.3" font-family="monospace" font-size="14.00">EX_LetObj</text>
<text text-anchor="start" x="3418" y="-964.3" font-family="monospace" font-size="14.00">  EX_LocalVariable [CallFunc_GetFSDGameUserSettings_ReturnValue]</text>
<text text-anchor="start" x="3418" y="-949.3" font-family="monospace" font-size="14.00">  EX_CallMath import /Script/FSD&#45;&gt;FSDGameUserSettings&#45;&gt;GetFSDGameUserSettings</text>
</g>
<!-- ExecuteUbergraph_Options_AMD_FSR2_Quality__211 -->
<g id="node15" class="node">
<title>ExecuteUbergraph_Options_AMD_FSR2_Quality__211</title>
<polygon fill="#eeeeee" stroke="black" points="3170,-806.5 3170,-904.5 3814,-904.5 3814,-806.5 3170,-806.5"/>
<text text-anchor="start" x="3178" y="-889.3" font-family="monospace" font-size="14.00">EX_Let</text>
<text text-anchor="start" x="3178" y="-874.3" font-family="monospace" font-size="14.00">  EX_LocalVariable [CallFunc_GetAMDFSR2Mode_ReturnValue]</text>
<text text-anchor="start" x="3178" y="-859.3" font-family="monospace" font-size="14.00">  EX_Context</text>
<text text-anchor="start" x="3178" y="-844.3" font-family="monospace" font-size="14.00">    EX_LocalVariable [CallFunc_GetFSDGameUserSettings_ReturnValue]</text>
<text text-anchor="start" x="3178" y="-829.3" font-family="monospace" font-size="14.00">    EX_FinalFunction import /Script/FSD&#45;&gt;FSDGameUserSettings&#45;&gt;GetAMDFSR2Mode</text>
<text text-anchor="start" x="3178" y="-814.3" font-family="monospace" font-size="14.00">    RValue = [CallFunc_GetAMDFSR2Mode_ReturnValue]</text>
</g>
<!-- ExecuteUbergraph_Options_AMD_FSR2_Quality__191&#45;&gt;ExecuteUbergraph_Options_AMD_FSR2_Quality__211 -->
<g id="edge12" class="edge">
<title>ExecuteUbergraph_Options_AMD_FSR2_Quality__191&#45;&gt;ExecuteUbergraph_Options_AMD_FSR2_Quality__211</title>
<path fill="none" stroke="black" d="M3679.72,-941.51C3658.32,-931.82 3633.07,-920.39 3608.15,-909.1"/>
<polygon fill="black" stroke="black" points="3609.81,-906.01 3599.26,-905.08 3606.93,-912.39 3609.81,-906.01"/>
</g>
<!-- ExecuteUbergraph_Options_AMD_FSR2_Quality__261 -->
<g id="node16" class="node">
<title>ExecuteUbergraph_Options_AMD_FSR2_Quality__261</title>
<polygon fill="#eeeeee" stroke="black" points="3146,-679 3146,-762 3748,-762 3748,-679 3146,-679"/>
<text text-anchor="start" x="3154" y="-746.8" font-family="monospace" font-size="14.00">EX_Let</text>
<text text-anchor="start" x="3154" y="-731.8" font-family="monospace" font-size="14.00">  EX_LocalVariable [CallFunc_Subtract_IntInt_ReturnValue]</text>
<text text-anchor="start" x="3154" y="-716.8" font-family="monospace" font-size="14.00">  EX_CallMath import /Script/Engine&#45;&gt;KismetMathLibrary&#45;&gt;Subtract_IntInt</text>
<text text-anchor="start" x="3154" y="-701.8" font-family="monospace" font-size="14.00">    EX_LocalVariable [CallFunc_GetAMDFSR2Mode_ReturnValue]</text>
<text text-anchor="start" x="3154" y="-686.8" font-family="monospace" font-size="14.00">    EX_IntConst 1</text>
</g>
<!-- ExecuteUbergraph_Options_AMD_FSR2_Quality__211&#45;&gt;ExecuteUbergraph_Options_AMD_FSR2_Quality__261 -->
<g id="edge13" class="edge">
<title>ExecuteUbergraph_Options_AMD_FSR2_Quality__211&#45;&gt;ExecuteUbergraph_Options_AMD_FSR2_Quality__261</title>
<path fill="none" stroke="black" d="M3475.88,-806.86C3472.1,-795.68 3468.05,-783.72 3464.22,-772.4"/>
<polygon fill="black" stroke="black" points="3467.64,-771.57 3461.11,-763.22 3461,-773.81 3467.64,-771.57"/>
</g>
<!-- ExecuteUbergraph_Options_AMD_FSR2_Quality__303 -->
<g id="node17" class="node">
<title>ExecuteUbergraph_Options_AMD_FSR2_Quality__303</title>
<polygon fill="#eeeeee" stroke="black" points="3147.5,-551.5 3147.5,-634.5 3650.5,-634.5 3650.5,-551.5 3147.5,-551.5"/>
<text text-anchor="start" x="3155.5" y="-619.3" font-family="monospace" font-size="14.00">EX_Context</text>
<text text-anchor="start" x="3155.5" y="-604.3" font-family="monospace" font-size="14.00">  EX_InstanceVariable [Basic_OptionSwitcher]</text>
<text text-anchor="start" x="3155.5" y="-589.3" font-family="monospace" font-size="14.00">  EX_LocalVirtualFunction SetSelectedIndex</text>
<text text-anchor="start" x="3155.5" y="-574.3" font-family="monospace" font-size="14.00">    EX_LocalVariable [CallFunc_Subtract_IntInt_ReturnValue]</text>
<text text-anchor="start" x="3155.5" y="-559.3" font-family="monospace" font-size="14.00">  RValue = []</text>
</g>
<!-- ExecuteUbergraph_Options_AMD_FSR2_Quality__261&#45;&gt;ExecuteUbergraph_Options_AMD_FSR2_Quality__303 -->
<g id="edge14" class="edge">
<title>ExecuteUbergraph_Options_AMD_FSR2_Quality__261&#45;&gt;ExecuteUbergraph_Options_AMD_FSR2_Quality__303</title>
<path fill="none" stroke="black" d="M3431.55,-679.1C3427.39,-668.24 3422.85,-656.35 3418.5,-645"/>
<polygon fill="black" stroke="black" points="3421.8,-643.83 3414.96,-635.74 3415.27,-646.33 3421.8,-643.83"/>
</g>
<!-- ExecuteUbergraph_Options_AMD_FSR2_Quality__348 -->
<g id="node18" class="node">
<title>ExecuteUbergraph_Options_AMD_FSR2_Quality__348</title>
<polygon fill="#eeeeee" stroke="black" points="3122.5,-455 3122.5,-491 3229.5,-491 3229.5,-455 3122.5,-455"/>
<text text-anchor="start" x="3130.5" y="-469.3" font-family="monospace" font-size="14.00">EX_Jump 461</text>
</g>
<!-- ExecuteUbergraph_Options_AMD_FSR2_Quality__303&#45;&gt;ExecuteUbergraph_Options_AMD_FSR2_Quality__348 -->
<g id="edge15" class="edge">
<title>ExecuteUbergraph_Options_AMD_FSR2_Quality__303&#45;&gt;ExecuteUbergraph_Options_AMD_FSR2_Quality__348</title>
<path fill="none" stroke="black" d="M3322.57,-551.56C3287.49,-533 3247.26,-511.71 3217.83,-496.14"/>
<polygon fill="black" stroke="black" points="3219.71,-493.17 3209.24,-491.59 3216.44,-499.36 3219.71,-493.17"/>
</g>
<!-- ExecuteUbergraph_Options_AMD_FSR2_Quality__348&#45;&gt;ExecuteUbergraph_Options_AMD_FSR2_Quality__461 -->
<g id="edge16" class="edge">
<title>ExecuteUbergraph_Options_AMD_FSR2_Quality__348&#45;&gt;ExecuteUbergraph_Options_AMD_FSR2_Quality__461</title>
<path fill="none" stroke="black" d="M3175.24,-455.31C3173.84,-423.07 3171,-350.01 3171,-288.5 3171,-288.5 3171,-288.5 3171,-181.5 3171,-134.23 3157.18,-80.72 3147.43,-48.84"/>
<polygon fill="black" stroke="black" points="3150.85,-48.06 3144.51,-39.57 3144.17,-50.16 3150.85,-48.06"/>
</g>
<!-- ExecuteUbergraph_Options_AMD_FSR2_Quality__353 -->
<g id="node19" class="node">
<title>ExecuteUbergraph_Options_AMD_FSR2_Quality__353</title>
<polygon fill="#eeeeee" stroke="black" points="4384.5,-679 4384.5,-762 4945.5,-762 4945.5,-679 4384.5,-679"/>
<text text-anchor="start" x="4392.5" y="-746.8" font-family="monospace" font-size="14.00">EX_Let</text>
<text text-anchor="start" x="4392.5" y="-731.8" font-family="monospace" font-size="14.00">  EX_LocalVariable [CallFunc_Add_IntInt_ReturnValue]</text>
<text text-anchor="start" x="4392.5" y="-716.8" font-family="monospace" font-size="14.00">  EX_CallMath import /Script/Engine&#45;&gt;KismetMathLibrary&#45;&gt;Add_IntInt</text>
<text text-anchor="start" x="4392.5" y="-701.8" font-family="monospace" font-size="14.00">    EX_LocalVariable [K2Node_ComponentBoundEvent_Index]</text>
<text text-anchor="start" x="4392.5" y="-686.8" font-family="monospace" font-size="14.00">    EX_IntConst 1</text>
</g>
<!-- ExecuteUbergraph_Options_AMD_FSR2_Quality__395 -->
<g id="node20" class="node">
<title>ExecuteUbergraph_Options_AMD_FSR2_Quality__395</title>
<polygon fill="#eeeeee" stroke="black" points="4004,-566.5 4004,-619.5 4656,-619.5 4656,-566.5 4004,-566.5"/>
<text text-anchor="start" x="4012" y="-604.3" font-family="monospace" font-size="14.00">EX_LetObj</text>
<text text-anchor="start" x="4012" y="-589.3" font-family="monospace" font-size="14.00">  EX_LocalVariable [CallFunc_GetFSDGameUserSettings_ReturnValue_1]</text>
<text text-anchor="start" x="4012" y="-574.3" font-family="monospace" font-size="14.00">  EX_CallMath import /Script/FSD&#45;&gt;FSDGameUserSettings&#45;&gt;GetFSDGameUserSettings</text>
</g>
<!-- ExecuteUbergraph_Options_AMD_FSR2_Quality__353&#45;&gt;ExecuteUbergraph_Options_AMD_FSR2_Quality__395 -->
<g id="edge17" class="edge">
<title>ExecuteUbergraph_Options_AMD_FSR2_Quality__353&#45;&gt;ExecuteUbergraph_Options_AMD_FSR2_Quality__395</title>
<path fill="none" stroke="black" d="M4557.16,-679.1C4508.83,-661 4452.88,-640.03 4408.6,-623.45"/>
<polygon fill="black" stroke="black" points="4409.91,-620.2 4399.32,-619.97 4407.45,-626.75 4409.91,-620.2"/>
</g>
<!-- ExecuteUbergraph_Options_AMD_FSR2_Quality__415 -->
<g id="node21" class="node">
<title>ExecuteUbergraph_Options_AMD_FSR2_Quality__415</title>
<polygon fill="#eeeeee" stroke="black" points="3631.5,-431.5 3631.5,-514.5 4258.5,-514.5 4258.5,-431.5 3631.5,-431.5"/>
<text text-anchor="start" x="3639.5" y="-499.3" font-family="monospace" font-size="14.00">EX_Context</text>
<text text-anchor="start" x="3639.5" y="-484.3" font-family="monospace" font-size="14.00">  EX_LocalVariable [CallFunc_GetFSDGameUserSettings_ReturnValue_1]</text>
<text text-anchor="start" x="3639.5" y="-469.3" font-family="monospace" font-size="14.00">  EX_FinalFunction import /Script/FSD&#45;&gt;FSDGameUserSettings&#45;&gt;SetAMDFSR2Mode</text>
<text text-anchor="start" x="3639.5" y="-454.3" font-family="monospace" font-size="14.00">    EX_LocalVariable [CallFunc_Add_IntInt_ReturnValue]</text>
<text text-anchor="start" x="3639.5" y="-439.3" font-family="monospace" font-size="14.00">  RValue = []</text>
</g>
<!-- ExecuteUbergraph_Options_AMD_FSR2_Quality__395&#45;&gt;ExecuteUbergraph_Options_AMD_FSR2_Quality__415 -->
<g id="edge18" class="edge">
<title>ExecuteUbergraph_Options_AMD_FSR2_Quality__395&#45;&gt;ExecuteUbergraph_Options_AMD_FSR2_Quality__415</title>
<path fill="none" stroke="black" d="M4246.93,-566.54C4200.61,-552.34 4141.62,-534.26 4088.1,-517.86"/>
<polygon fill="black" stroke="black" points="4089.16,-514.52 4078.57,-514.94 4087.11,-521.22 4089.16,-514.52"/>
</g>
<!-- ExecuteUbergraph_Options_AMD_FSR2_Quality__456 -->
<g id="node22" class="node">
<title>ExecuteUbergraph_Options_AMD_FSR2_Quality__456</title>
<polygon fill="#eeeeee" stroke="black" points="3793.5,-358.5 3793.5,-394.5 3892.5,-394.5 3892.5,-358.5 3793.5,-358.5"/>
<text text-anchor="start" x="3801.5" y="-372.8" font-family="monospace" font-size="14.00">EX_Jump 10</text>
</g>
<!-- ExecuteUbergraph_Options_AMD_FSR2_Quality__415&#45;&gt;ExecuteUbergraph_Options_AMD_FSR2_Quality__456 -->
<g id="edge19" class="edge">
<title>ExecuteUbergraph_Options_AMD_FSR2_Quality__415&#45;&gt;ExecuteUbergraph_Options_AMD_FSR2_Quality__456</title>
<path fill="none" stroke="black" d="M3901.45,-431.65C3890.67,-421.66 3879.44,-411.26 3869.73,-402.27"/>
<polygon fill="black" stroke="black" points="3872.13,-399.72 3862.42,-395.49 3867.37,-404.85 3872.13,-399.72"/>
</g>
<!-- ExecuteUbergraph_Options_AMD_FSR2_Quality__456&#45;&gt;ExecuteUbergraph_Options_AMD_FSR2_Quality__10 -->
<g id="edge20" class="edge">
<title>ExecuteUbergraph_Options_AMD_FSR2_Quality__456&#45;&gt;ExecuteUbergraph_Options_AMD_FSR2_Quality__10</title>
<path fill="none" stroke="black" d="M3823.53,-358.73C3813.56,-350.14 3800.96,-339.29 3788.66,-328.7"/>
<polygon fill="black" stroke="black" points="3791.25,-326.3 3781.38,-322.43 3786.68,-331.6 3791.25,-326.3"/>
</g>
<!-- ExecuteUbergraph_Options_AMD_FSR2_Quality__463 -->
<g id="node24" class="node">
<title>ExecuteUbergraph_Options_AMD_FSR2_Quality__463</title>
<polygon fill="#eeeeee" stroke="black" points="3911,-358.5 3911,-394.5 4043,-394.5 4043,-358.5 3911,-358.5"/>
<text text-anchor="start" x="3919" y="-372.8" font-family="monospace" font-size="14.00">EX_EndOfScript</text>
</g>
<!-- BndEvt__Options_AMD_FSR_Quality_Basic_OptionSwitcher_K2Node_ComponentBoundEvent_1_OnSelectionChanged__DelegateSignature -->
<g id="node25" class="node">
<title>BndEvt__Options_AMD_FSR_Quality_Basic_OptionSwitcher_K2Node_ComponentBoundEvent_1_OnSelectionChanged__DelegateSignature</title>
<polygon fill="#ff8888" stroke="black" points="3811.5,-1166.5 3811.5,-1249.5 4884.5,-1249.5 4884.5,-1166.5 3811.5,-1166.5"/>
<text text-anchor="start" x="3819.5" y="-1234.3" font-family="monospace" font-size="14.00">Function BndEvt__Options_AMD_FSR_Quality_Basic_OptionSwitcher_K2Node_ComponentBoundEvent_1_OnSelectionChanged__DelegateSignature</text>
<text text-anchor="start" x="3819.5" y="-1219.3" font-family="monospace" font-size="14.00">  TextProperty Value</text>
<text text-anchor="start" x="3819.5" y="-1204.3" font-family="monospace" font-size="14.00">    CPF_BlueprintVisible|CPF_BlueprintReadOnly|CPF_Parm</text>
<text text-anchor="start" x="3819.5" y="-1189.3" font-family="monospace" font-size="14.00">  IntProperty Index</text>
<text text-anchor="start" x="3819.5" y="-1174.3" font-family="monospace" font-size="14.00">    CPF_BlueprintVisible|CPF_BlueprintReadOnly|CPF_Parm</text>
</g>
<!-- BndEvt__Options_AMD_FSR_Quality_Basic_OptionSwitcher_K2Node_ComponentBoundEvent_1_OnSelectionChanged__DelegateSignature__0 -->
<g id="node26" class="node">
<title>BndEvt__Options_AMD_FSR_Quality_Basic_OptionSwitcher_K2Node_ComponentBoundEvent_1_OnSelectionChanged__DelegateSignature__0</title>
<polygon fill="#eeeeee" stroke="black" points="4080,-1031.5 4080,-1069.5 4616,-1069.5 4616,-1031.5 4080,-1031.5"/>
<text text-anchor="start" x="4088" y="-1054.3" font-family="monospace" font-size="14.00">EX_LetValueOnPersistentFrame [K2Node_ComponentBoundEvent_Value]</text>
<text text-anchor="start" x="4088" y="-1039.3" font-family="monospace" font-size="14.00">  EX_LocalVariable [Value]</text>
</g>
<!-- BndEvt__Options_AMD_FSR_Quality_Basic_OptionSwitcher_K2Node_ComponentBoundEvent_1_OnSelectionChanged__DelegateSignature&#45;&gt;BndEvt__Options_AMD_FSR_Quality_Basic_OptionSwitcher_K2Node_ComponentBoundEvent_1_OnSelectionChanged__DelegateSignature__0 -->
<g id="edge21" class="edge">
<title>BndEvt__Options_AMD_FSR_Quality_Basic_OptionSwitcher_K2Node_ComponentBoundEvent_1_OnSelectionChanged__DelegateSignature&#45;&gt;BndEvt__Options_AMD_FSR_Quality_Basic_OptionSwitcher_K2Node_ComponentBoundEvent_1_OnSelectionChanged__DelegateSignature__0</title>
<path fill="none" stroke="black" d="M4348,-1166.55C4348,-1139.61 4348,-1104.83 4348,-1080.6"/>
<polygon fill="black" stroke="black" points="4351.5,-1080.82 4348,-1070.82 4344.5,-1080.82 4351.5,-1080.82"/>
</g>
<!-- BndEvt__Options_AMD_FSR_Quality_Basic_OptionSwitcher_K2Node_ComponentBoundEvent_1_OnSelectionChanged__DelegateSignature__18 -->
<g id="node27" class="node">
<title>BndEvt__Options_AMD_FSR_Quality_Basic_OptionSwitcher_K2Node_ComponentBoundEvent_1_OnSelectionChanged__DelegateSignature__18</title>
<polygon fill="#eeeeee" stroke="black" points="4080,-949 4080,-987 4616,-987 4616,-949 4080,-949"/>
<text text-anchor="start" x="4088" y="-971.8" font-family="monospace" font-size="14.00">EX_LetValueOnPersistentFrame [K2Node_ComponentBoundEvent_Index]</text>
<text text-anchor="start" x="4088" y="-956.8" font-family="monospace" font-size="14.00">  EX_LocalVariable [Index]</text>
</g>
<!-- BndEvt__Options_AMD_FSR_Quality_Basic_OptionSwitcher_K2Node_ComponentBoundEvent_1_OnSelectionChanged__DelegateSignature__0&#45;&gt;BndEvt__Options_AMD_FSR_Quality_Basic_OptionSwitcher_K2Node_ComponentBoundEvent_1_OnSelectionChanged__DelegateSignature__18 -->
<g id="edge22" class="edge">
<title>BndEvt__Options_AMD_FSR_Quality_Basic_OptionSwitcher_K2Node_ComponentBoundEvent_1_OnSelectionChanged__DelegateSignature__0&#45;&gt;BndEvt__Options_AMD_FSR_Quality_Basic_OptionSwitcher_K2Node_ComponentBoundEvent_1_OnSelectionChanged__DelegateSignature__18</title>
<path fill="none" stroke="black" d="M4348,-1031.63C4348,-1021.84 4348,-1009.45 4348,-998.28"/>
<polygon fill="black" stroke="black" points="4351.5,-998.33 4348,-988.33 4344.5,-998.33 4351.5,-998.33"/>
</g>
<!-- BndEvt__Options_AMD_FSR_Quality_Basic_OptionSwitcher_K2Node_ComponentBoundEvent_1_OnSelectionChanged__DelegateSignature__36 -->
<g id="node28" class="node">
<title>BndEvt__Options_AMD_FSR_Quality_Basic_OptionSwitcher_K2Node_ComponentBoundEvent_1_OnSelectionChanged__DelegateSignature__36</title>
<polygon fill="#eeeeee" stroke="black" points="3867.5,-836.5 3867.5,-874.5 4692.5,-874.5 4692.5,-836.5 3867.5,-836.5"/>
<text text-anchor="start" x="3875.5" y="-859.3" font-family="monospace" font-size="14.00">EX_LocalFinalFunction export Options_AMD_FSR2_Quality_C&#45;&gt;ExecuteUbergraph_Options_AMD_FSR2_Quality</text>
<text text-anchor="start" x="3875.5" y="-844.3" font-family="monospace" font-size="14.00">  EX_IntConst 353</text>
</g>
<!-- BndEvt__Options_AMD_FSR_Quality_Basic_OptionSwitcher_K2Node_ComponentBoundEvent_1_OnSelectionChanged__DelegateSignature__18&#45;&gt;BndEvt__Options_AMD_FSR_Quality_Basic_OptionSwitcher_K2Node_ComponentBoundEvent_1_OnSelectionChanged__DelegateSignature__36 -->
<g id="edge23" class="edge">
<title>BndEvt__Options_AMD_FSR_Quality_Basic_OptionSwitcher_K2Node_ComponentBoundEvent_1_OnSelectionChanged__DelegateSignature__18&#45;&gt;BndEvt__Options_AMD_FSR_Quality_Basic_OptionSwitcher_K2Node_ComponentBoundEvent_1_OnSelectionChanged__DelegateSignature__36</title>
<path fill="none" stroke="black" d="M4337.07,-949.25C4326.22,-931.61 4309.42,-904.31 4296.86,-883.89"/>
<polygon fill="black" stroke="black" points="4299.91,-882.18 4291.69,-875.5 4293.95,-885.85 4299.91,-882.18"/>
</g>
<!-- BndEvt__Options_AMD_FSR_Quality_Basic_OptionSwitcher_K2Node_ComponentBoundEvent_1_OnSelectionChanged__DelegateSignature__36&#45;&gt;ExecuteUbergraph_Options_AMD_FSR2_Quality__353 -->
<g id="edge24" class="edge">
<title>BndEvt__Options_AMD_FSR_Quality_Basic_OptionSwitcher_K2Node_ComponentBoundEvent_1_OnSelectionChanged__DelegateSignature__36:e&#45;&gt;ExecuteUbergraph_Options_AMD_FSR2_Quality__353</title>
<path fill="none" stroke="red" d="M4694,-855.5C4729.62,-855.5 4713.69,-809.72 4694.31,-771.68"/>
<polygon fill="none" stroke="red" points="4697.52,-770.27 4689.77,-763.04 4691.32,-773.52 4697.52,-770.27"/>
</g>
<!-- BndEvt__Options_AMD_FSR_Quality_Basic_OptionSwitcher_K2Node_ComponentBoundEvent_1_OnSelectionChanged__DelegateSignature__51 -->
<g id="node29" class="node">
<title>BndEvt__Options_AMD_FSR_Quality_Basic_OptionSwitcher_K2Node_ComponentBoundEvent_1_OnSelectionChanged__DelegateSignature__51</title>
<polygon fill="#eeeeee" stroke="black" points="4222,-701.5 4222,-739.5 4338,-739.5 4338,-701.5 4222,-701.5"/>
<text text-anchor="start" x="4230" y="-724.3" font-family="monospace" font-size="14.00">EX_Return</text>
<text text-anchor="start" x="4230" y="-709.3" font-family="monospace" font-size="14.00">  EX_Nothing</text>
</g>
<!-- BndEvt__Options_AMD_FSR_Quality_Basic_OptionSwitcher_K2Node_ComponentBoundEvent_1_OnSelectionChanged__DelegateSignature__36&#45;&gt;BndEvt__Options_AMD_FSR_Quality_Basic_OptionSwitcher_K2Node_ComponentBoundEvent_1_OnSelectionChanged__DelegateSignature__51 -->
<g id="edge25" class="edge">
<title>BndEvt__Options_AMD_FSR_Quality_Basic_OptionSwitcher_K2Node_ComponentBoundEvent_1_OnSelectionChanged__DelegateSignature__36&#45;&gt;BndEvt__Options_AMD_FSR_Quality_Basic_OptionSwitcher_K2Node_ComponentBoundEvent_1_OnSelectionChanged__DelegateSignature__51</title>
<path fill="none" stroke="black" d="M4280,-836.56C4280,-814.53 4280,-776.85 4280,-750.64"/>
<polygon fill="black" stroke="black" points="4283.5,-750.67 4280,-740.67 4276.5,-750.67 4283.5,-750.67"/>
</g>
<!-- BndEvt__Options_AMD_FSR_Quality_Basic_OptionSwitcher_K2Node_ComponentBoundEvent_1_OnSelectionChanged__DelegateSignature__53 -->
<g id="node30" class="node">
<title>BndEvt__Options_AMD_FSR_Quality_Basic_OptionSwitcher_K2Node_ComponentBoundEvent_1_OnSelectionChanged__DelegateSignature__53</title>
<polygon fill="#eeeeee" stroke="black" points="4070,-269.5 4070,-305.5 4202,-305.5 4202,-269.5 4070,-269.5"/>
<text text-anchor="start" x="4078" y="-283.8" font-family="monospace" font-size="14.00">EX_EndOfScript</text>
</g>
<!-- ShowOptions -->
<g id="node31" class="node">
<title>ShowOptions</title>
<polygon fill="#ff8888" stroke="black" points="3294,-1190 3294,-1226 3476,-1226 3476,-1190 3294,-1190"/>
<text text-anchor="start" x="3302" y="-1204.3" font-family="monospace" font-size="14.00">Function ShowOptions</text>
</g>
<!-- ShowOptions__0 -->
<g id="node32" class="node">
<title>ShowOptions__0</title>
<polygon fill="#eeeeee" stroke="black" points="2972.5,-1031.5 2972.5,-1069.5 3797.5,-1069.5 3797.5,-1031.5 2972.5,-1031.5"/>
<text text-anchor="start" x="2980.5" y="-1054.3" font-family="monospace" font-size="14.00">EX_LocalFinalFunction export Options_AMD_FSR2_Quality_C&#45;&gt;ExecuteUbergraph_Options_AMD_FSR2_Quality</text>
<text text-anchor="start" x="2980.5" y="-1039.3" font-family="monospace" font-size="14.00">  EX_IntConst 191</text>
</g>
<!-- ShowOptions&#45;&gt;ShowOptions__0 -->
<g id="edge26" class="edge">
<title>ShowOptions&#45;&gt;ShowOptions__0</title>
<path fill="none" stroke="black" d="M3385,-1190.06C3385,-1163.82 3385,-1113 3385,-1080.74"/>
<polygon fill="black" stroke="black" points="3388.5,-1080.88 3385,-1070.88 3381.5,-1080.88 3388.5,-1080.88"/>
</g>
<!-- ShowOptions__0&#45;&gt;ExecuteUbergraph_Options_AMD_FSR2_Quality__191 -->
<g id="edge27" class="edge">
<title>ShowOptions__0:e&#45;&gt;ExecuteUbergraph_Options_AMD_FSR2_Quality__191</title>
<path fill="none" stroke="red" d="M3799,-1050.5C3824.87,-1050.5 3801.39,-1024.48 3776.07,-1001.84"/>
<polygon fill="none" stroke="red" points="3778.46,-999.28 3768.62,-995.34 3773.85,-1004.55 3778.46,-999.28"/>
</g>
<!-- ShowOptions__15 -->
<g id="node33" class="node">
<title>ShowOptions__15</title>
<polygon fill="#eeeeee" stroke="black" points="3276,-949 3276,-987 3392,-987 3392,-949 3276,-949"/>
<text text-anchor="start" x="3284" y="-971.8" font-family="monospace" font-size="14.00">EX_Return</text>
<text text-anchor="start" x="3284" y="-956.8" font-family="monospace" font-size="14.00">  EX_Nothing</text>
</g>
<!-- ShowOptions__0&#45;&gt;ShowOptions__15 -->
<g id="edge28" class="edge">
<title>ShowOptions__0&#45;&gt;ShowOptions__15</title>
<path fill="none" stroke="black" d="M3373.68,-1031.63C3367.14,-1021.32 3358.78,-1008.12 3351.43,-996.51"/>
<polygon fill="black" stroke="black" points="3354.41,-994.67 3346.1,-988.09 3348.49,-998.41 3354.41,-994.67"/>
</g>
<!-- ShowOptions__17 -->
<g id="node34" class="node">
<title>ShowOptions__17</title>
<polygon fill="#eeeeee" stroke="black" points="4083,-164.5 4083,-200.5 4215,-200.5 4215,-164.5 4083,-164.5"/>
<text text-anchor="start" x="4091" y="-178.8" font-family="monospace" font-size="14.00">EX_EndOfScript</text>
</g>
<!-- UINeedsUpdate -->
<g id="node35" class="node">
<title>UINeedsUpdate</title>
<polygon fill="#ff8888" stroke="black" points="2443,-1190 2443,-1226 2641,-1226 2641,-1190 2443,-1190"/>
<text text-anchor="start" x="2451" y="-1204.3" font-family="monospace" font-size="14.00">Function UINeedsUpdate</text>
</g>
<!-- UINeedsUpdate__0 -->
<g id="node36" class="node">
<title>UINeedsUpdate__0</title>
<polygon fill="#eeeeee" stroke="black" points="2129.5,-1031.5 2129.5,-1069.5 2954.5,-1069.5 2954.5,-1031.5 2129.5,-1031.5"/>
<text text-anchor="start" x="2137.5" y="-1054.3" font-family="monospace" font-size="14.00">EX_LocalFinalFunction export Options_AMD_FSR2_Quality_C&#45;&gt;ExecuteUbergraph_Options_AMD_FSR2_Quality</text>
<text text-anchor="start" x="2137.5" y="-1039.3" font-family="monospace" font-size="14.00">  EX_IntConst 172</text>
</g>
<!-- UINeedsUpdate&#45;&gt;UINeedsUpdate__0 -->
<g id="edge29" class="edge">
<title>UINeedsUpdate&#45;&gt;UINeedsUpdate__0</title>
<path fill="none" stroke="black" d="M2542,-1190.06C2542,-1163.82 2542,-1113 2542,-1080.74"/>
<polygon fill="black" stroke="black" points="2545.5,-1080.88 2542,-1070.88 2538.5,-1080.88 2545.5,-1080.88"/>
</g>
<!-- UINeedsUpdate__0&#45;&gt;ExecuteUbergraph_Options_AMD_FSR2_Quality__172 -->
<g id="edge30" class="edge">
<title>UINeedsUpdate__0:e&#45;&gt;ExecuteUbergraph_Options_AMD_FSR2_Quality__172</title>
<path fill="none" stroke="red" d="M2956,-1050.5C2965.21,-1050.5 2958.83,-1039.21 2963,-1031 2969.27,-1018.66 2977.58,-1005.87 2985.16,-995.13"/>
<polygon fill="none" stroke="red" points="2987.91,-997.3 2990.94,-987.14 2982.24,-993.19 2987.91,-997.3"/>
</g>
<!-- UINeedsUpdate__15 -->
<g id="node37" class="node">
<title>UINeedsUpdate__15</title>
<polygon fill="#eeeeee" stroke="black" points="2484,-949 2484,-987 2600,-987 2600,-949 2484,-949"/>
<text text-anchor="start" x="2492" y="-971.8" font-family="monospace" font-size="14.00">EX_Return</text>
<text text-anchor="start" x="2492" y="-956.8" font-family="monospace" font-size="14.00">  EX_Nothing</text>
</g>
<!-- UINeedsUpdate__0&#45;&gt;UINeedsUpdate__15 -->
<g id="edge31" class="edge">
<title>UINeedsUpdate__0&#45;&gt;UINeedsUpdate__15</title>
<path fill="none" stroke="black" d="M2542,-1031.63C2542,-1021.84 2542,-1009.45 2542,-998.28"/>
<polygon fill="black" stroke="black" points="2545.5,-998.33 2542,-988.33 2538.5,-998.33 2545.5,-998.33"/>
</g>
<!-- UINeedsUpdate__17 -->
<g id="node38" class="node">
<title>UINeedsUpdate__17</title>
<polygon fill="#eeeeee" stroke="black" points="3564,-75.5 3564,-111.5 3696,-111.5 3696,-75.5 3564,-75.5"/>
<text text-anchor="start" x="3572" y="-89.8" font-family="monospace" font-size="14.00">EX_EndOfScript</text>
</g>
<!-- Construct -->
<g id="node39" class="node">
<title>Construct</title>
<polygon fill="#ff8888" stroke="black" points="1616.5,-1190 1616.5,-1226 1781.5,-1226 1781.5,-1190 1616.5,-1190"/>
<text text-anchor="start" x="1624.5" y="-1204.3" font-family="monospace" font-size="14.00">Function Construct</text>
</g>
<!-- Construct__0 -->
<g id="node40" class="node">
<title>Construct__0</title>
<polygon fill="#eeeeee" stroke="black" points="1286.5,-1031.5 1286.5,-1069.5 2111.5,-1069.5 2111.5,-1031.5 1286.5,-1031.5"/>
<text text-anchor="start" x="1294.5" y="-1054.3" font-family="monospace" font-size="14.00">EX_LocalFinalFunction export Options_AMD_FSR2_Quality_C&#45;&gt;ExecuteUbergraph_Options_AMD_FSR2_Quality</text>
<text text-anchor="start" x="1294.5" y="-1039.3" font-family="monospace" font-size="14.00">  EX_IntConst 68</text>
</g>
<!-- Construct&#45;&gt;Construct__0 -->
<g id="edge32" class="edge">
<title>Construct&#45;&gt;Construct__0</title>
<path fill="none" stroke="black" d="M1699,-1190.06C1699,-1163.82 1699,-1113 1699,-1080.74"/>
<polygon fill="black" stroke="black" points="1702.5,-1080.88 1699,-1070.88 1695.5,-1080.88 1702.5,-1080.88"/>
</g>
<!-- Construct__0&#45;&gt;ExecuteUbergraph_Options_AMD_FSR2_Quality__68 -->
<g id="edge33" class="edge">
<title>Construct__0:e&#45;&gt;ExecuteUbergraph_Options_AMD_FSR2_Quality__68</title>
<path fill="none" stroke="red" d="M2113,-1050.5C2122.21,-1050.5 2115.61,-1039.1 2120,-1031 2125.1,-1021.58 2131.56,-1012.05 2138.03,-1003.37"/>
<polygon fill="none" stroke="red" points="2140.74,-1005.6 2144.08,-995.54 2135.2,-1001.32 2140.74,-1005.6"/>
</g>
<!-- Construct__15 -->
<g id="node41" class="node">
<title>Construct__15</title>
<polygon fill="#eeeeee" stroke="black" points="1641,-949 1641,-987 1757,-987 1757,-949 1641,-949"/>
<text text-anchor="start" x="1649" y="-971.8" font-family="monospace" font-size="14.00">EX_Return</text>
<text text-anchor="start" x="1649" y="-956.8" font-family="monospace" font-size="14.00">  EX_Nothing</text>
</g>
<!-- Construct__0&#45;&gt;Construct__15 -->
<g id="edge34" class="edge">
<title>Construct__0&#45;&gt;Construct__15</title>
<path fill="none" stroke="black" d="M1699,-1031.63C1699,-1021.84 1699,-1009.45 1699,-998.28"/>
<polygon fill="black" stroke="black" points="1702.5,-998.33 1699,-988.33 1695.5,-998.33 1702.5,-998.33"/>
</g>
<!-- Construct__17 -->
<g id="node42" class="node">
<title>Construct__17</title>
<polygon fill="#eeeeee" stroke="black" points="3214,-1.5 3214,-37.5 3346,-37.5 3346,-1.5 3214,-1.5"/>
<text text-anchor="start" x="3222" y="-15.8" font-family="monospace" font-size="14.00">EX_EndOfScript</text>
</g>
</g>
</svg>
