<?xml version="1.0" encoding="UTF-8" standalone="no"?>
<!DOCTYPE svg PUBLIC "-//W3C//DTD SVG 1.1//EN"
 "http://www.w3.org/Graphics/SVG/1.1/DTD/svg11.dtd">
<!-- Generated by graphviz version 7.0.1 (0)
 -->
<!-- Pages: 1 -->
<svg width="3474pt" height="1588pt"
 viewBox="0.00 0.00 3474.00 1588.00" xmlns="http://www.w3.org/2000/svg" xmlns:xlink="http://www.w3.org/1999/xlink">
<g id="graph0" class="graph" transform="scale(1 1) rotate(0) translate(4 1584)">
<polygon fill="white" stroke="none" points="-4,4 -4,-1584 3470,-1584 3470,4 -4,4"/>
<!-- Options_DownedTurnDirection_C -->
<g id="node1" class="node">
<title>Options_DownedTurnDirection_C</title>
<polygon fill="#88ff88" stroke="black" points="0,-1391.5 0,-1564.5 850,-1564.5 850,-1391.5 0,-1391.5"/>
<text text-anchor="start" x="8" y="-1549.3" font-family="monospace" font-size="14.00">ClassExport: Options_DownedTurnDirection_C</text>
<text text-anchor="start" x="8" y="-1534.3" font-family="monospace" font-size="14.00">  SuperStruct: import /Script/UMG&#45;&gt;UserWidget</text>
<text text-anchor="start" x="8" y="-1519.3" font-family="monospace" font-size="14.00">  Properties:</text>
<text text-anchor="start" x="8" y="-1504.3" font-family="monospace" font-size="14.00">    StructProperty UberGraphFrame</text>
<text text-anchor="start" x="8" y="-1489.3" font-family="monospace" font-size="14.00">      CPF_Transient|CPF_DuplicateTransient</text>
<text text-anchor="start" x="8" y="-1474.3" font-family="monospace" font-size="14.00">    ObjectProperty Basic_CheckBox</text>
<text text-anchor="start" x="8" y="-1459.3" font-family="monospace" font-size="14.00">      CPF_BlueprintVisible|CPF_ExportObject|CPF_InstancedReference|CPF_RepSkip|CPF_PersistentInstance</text>
<text text-anchor="start" x="8" y="-1444.3" font-family="monospace" font-size="14.00">    ObjectProperty Basic_Option</text>
<text text-anchor="start" x="8" y="-1429.3" font-family="monospace" font-size="14.00">      CPF_BlueprintVisible|CPF_ExportObject|CPF_InstancedReference|CPF_RepSkip|CPF_PersistentInstance</text>
<text text-anchor="start" x="8" y="-1414.3" font-family="monospace" font-size="14.00">    EnumProperty InputSource</text>
<text text-anchor="start" x="8" y="-1399.3" font-family="monospace" font-size="14.00">      CPF_Edit|CPF_BlueprintVisible</text>
</g>
<!-- ExecuteUbergraph_Options_DownedTurnDirection -->
<g id="node2" class="node">
<title>ExecuteUbergraph_Options_DownedTurnDirection</title>
<polygon fill="#ff8888" stroke="black" points="868,-1376.5 868,-1579.5 1404,-1579.5 1404,-1376.5 868,-1376.5"/>
<text text-anchor="start" x="876" y="-1564.3" font-family="monospace" font-size="14.00">Function ExecuteUbergraph_Options_DownedTurnDirection</text>
<text text-anchor="start" x="876" y="-1549.3" font-family="monospace" font-size="14.00">  IntProperty EntryPoint</text>
<text text-anchor="start" x="876" y="-1534.3" font-family="monospace" font-size="14.00">    CPF_BlueprintVisible|CPF_BlueprintReadOnly|CPF_Parm</text>
<text text-anchor="start" x="876" y="-1519.3" font-family="monospace" font-size="14.00">  ObjectProperty CallFunc_GetFSDGameUserSettings_ReturnValue</text>
<text text-anchor="start" x="876" y="-1504.3" font-family="monospace" font-size="14.00">  BoolProperty Temp_bool_Variable</text>
<text text-anchor="start" x="876" y="-1489.3" font-family="monospace" font-size="14.00">  FloatProperty Temp_float_Variable</text>
<text text-anchor="start" x="876" y="-1474.3" font-family="monospace" font-size="14.00">  FloatProperty Temp_float_Variable_1</text>
<text text-anchor="start" x="876" y="-1459.3" font-family="monospace" font-size="14.00">  ObjectProperty CallFunc_GetFSDGameUserSettings_ReturnValue_1</text>
<text text-anchor="start" x="876" y="-1444.3" font-family="monospace" font-size="14.00">  BoolProperty K2Node_ComponentBoundEvent_IsChecked</text>
<text text-anchor="start" x="876" y="-1429.3" font-family="monospace" font-size="14.00">  ObjectProperty CallFunc_GetFSDGameUserSettings_ReturnValue_2</text>
<text text-anchor="start" x="876" y="-1414.3" font-family="monospace" font-size="14.00">  FloatProperty K2Node_Select_Default</text>
<text text-anchor="start" x="876" y="-1399.3" font-family="monospace" font-size="14.00">  FloatProperty CallFunc_GetDownCameraTurnDirection_ReturnValue</text>
<text text-anchor="start" x="876" y="-1384.3" font-family="monospace" font-size="14.00">  BoolProperty CallFunc_Less_FloatFloat_ReturnValue</text>
</g>
<!-- ExecuteUbergraph_Options_DownedTurnDirection__0 -->
<g id="node3" class="node">
<title>ExecuteUbergraph_Options_DownedTurnDirection__0</title>
<polygon fill="#eeeeee" stroke="black" points="1000,-1301.5 1000,-1339.5 1272,-1339.5 1272,-1301.5 1000,-1301.5"/>
<text text-anchor="start" x="1008" y="-1324.3" font-family="monospace" font-size="14.00">EX_ComputedJump</text>
<text text-anchor="start" x="1008" y="-1309.3" font-family="monospace" font-size="14.00">  EX_LocalVariable [EntryPoint]</text>
</g>
<!-- ExecuteUbergraph_Options_DownedTurnDirection&#45;&gt;ExecuteUbergraph_Options_DownedTurnDirection__0 -->
<g id="edge1" class="edge">
<title>ExecuteUbergraph_Options_DownedTurnDirection&#45;&gt;ExecuteUbergraph_Options_DownedTurnDirection__0</title>
<path fill="none" stroke="black" d="M1136,-1376.76C1136,-1367.35 1136,-1358.42 1136,-1350.59"/>
<polygon fill="black" stroke="black" points="1139.5,-1350.8 1136,-1340.8 1132.5,-1350.8 1139.5,-1350.8"/>
</g>
<!-- ExecuteUbergraph_Options_DownedTurnDirection__10 -->
<g id="node4" class="node">
<title>ExecuteUbergraph_Options_DownedTurnDirection__10</title>
<polygon fill="#eeeeee" stroke="black" points="2557,-253.5 2557,-306.5 3209,-306.5 3209,-253.5 2557,-253.5"/>
<text text-anchor="start" x="2565" y="-291.3" font-family="monospace" font-size="14.00">EX_LetObj</text>
<text text-anchor="start" x="2565" y="-276.3" font-family="monospace" font-size="14.00">  EX_LocalVariable [CallFunc_GetFSDGameUserSettings_ReturnValue]</text>
<text text-anchor="start" x="2565" y="-261.3" font-family="monospace" font-size="14.00">  EX_CallMath import /Script/FSD&#45;&gt;FSDGameUserSettings&#45;&gt;GetFSDGameUserSettings</text>
</g>
<!-- ExecuteUbergraph_Options_DownedTurnDirection__30 -->
<g id="node5" class="node">
<title>ExecuteUbergraph_Options_DownedTurnDirection__30</title>
<polygon fill="#eeeeee" stroke="black" points="2589.5,-148.5 2589.5,-216.5 3134.5,-216.5 3134.5,-148.5 2589.5,-148.5"/>
<text text-anchor="start" x="2597.5" y="-201.3" font-family="monospace" font-size="14.00">EX_Context</text>
<text text-anchor="start" x="2597.5" y="-186.3" font-family="monospace" font-size="14.00">  EX_LocalVariable [CallFunc_GetFSDGameUserSettings_ReturnValue]</text>
<text text-anchor="start" x="2597.5" y="-171.3" font-family="monospace" font-size="14.00">  EX_VirtualFunction SaveSettings</text>
<text text-anchor="start" x="2597.5" y="-156.3" font-family="monospace" font-size="14.00">  RValue = []</text>
</g>
<!-- ExecuteUbergraph_Options_DownedTurnDirection__10&#45;&gt;ExecuteUbergraph_Options_DownedTurnDirection__30 -->
<g id="edge2" class="edge">
<title>ExecuteUbergraph_Options_DownedTurnDirection__10&#45;&gt;ExecuteUbergraph_Options_DownedTurnDirection__30</title>
<path fill="none" stroke="black" d="M2877.43,-253.66C2875.65,-245.58 2873.63,-236.39 2871.65,-227.38"/>
<polygon fill="black" stroke="black" points="2875.08,-226.67 2869.51,-217.65 2868.24,-228.17 2875.08,-226.67"/>
</g>
<!-- ExecuteUbergraph_Options_DownedTurnDirection__66 -->
<g id="node6" class="node">
<title>ExecuteUbergraph_Options_DownedTurnDirection__66</title>
<polygon fill="#eeeeee" stroke="black" points="2740.5,-75.5 2740.5,-111.5 2847.5,-111.5 2847.5,-75.5 2740.5,-75.5"/>
<text text-anchor="start" x="2748.5" y="-89.8" font-family="monospace" font-size="14.00">EX_Jump 418</text>
</g>
<!-- ExecuteUbergraph_Options_DownedTurnDirection__30&#45;&gt;ExecuteUbergraph_Options_DownedTurnDirection__66 -->
<g id="edge3" class="edge">
<title>ExecuteUbergraph_Options_DownedTurnDirection__30&#45;&gt;ExecuteUbergraph_Options_DownedTurnDirection__66</title>
<path fill="none" stroke="black" d="M2836.29,-148.61C2829,-139.28 2821.17,-129.26 2814.25,-120.4"/>
<polygon fill="black" stroke="black" points="2817.01,-118.26 2808.1,-112.54 2811.5,-122.57 2817.01,-118.26"/>
</g>
<!-- ExecuteUbergraph_Options_DownedTurnDirection__418 -->
<g id="node18" class="node">
<title>ExecuteUbergraph_Options_DownedTurnDirection__418</title>
<polygon fill="#eeeeee" stroke="black" points="2630,-0.5 2630,-38.5 2746,-38.5 2746,-0.5 2630,-0.5"/>
<text text-anchor="start" x="2638" y="-23.3" font-family="monospace" font-size="14.00">EX_Return</text>
<text text-anchor="start" x="2638" y="-8.3" font-family="monospace" font-size="14.00">  EX_Nothing</text>
</g>
<!-- ExecuteUbergraph_Options_DownedTurnDirection__66&#45;&gt;ExecuteUbergraph_Options_DownedTurnDirection__418 -->
<g id="edge4" class="edge">
<title>ExecuteUbergraph_Options_DownedTurnDirection__66&#45;&gt;ExecuteUbergraph_Options_DownedTurnDirection__418</title>
<path fill="none" stroke="black" d="M2769.15,-75.62C2755.59,-66.41 2738.58,-54.86 2723.64,-44.71"/>
<polygon fill="black" stroke="black" points="2725.67,-41.85 2715.43,-39.13 2721.73,-47.64 2725.67,-41.85"/>
</g>
<!-- ExecuteUbergraph_Options_DownedTurnDirection__71 -->
<g id="node7" class="node">
<title>ExecuteUbergraph_Options_DownedTurnDirection__71</title>
<polygon fill="#eeeeee" stroke="black" points="1840,-1211.5 1840,-1264.5 2492,-1264.5 2492,-1211.5 1840,-1211.5"/>
<text text-anchor="start" x="1848" y="-1249.3" font-family="monospace" font-size="14.00">EX_LetObj</text>
<text text-anchor="start" x="1848" y="-1234.3" font-family="monospace" font-size="14.00">  EX_LocalVariable [CallFunc_GetFSDGameUserSettings_ReturnValue_1]</text>
<text text-anchor="start" x="1848" y="-1219.3" font-family="monospace" font-size="14.00">  EX_CallMath import /Script/FSD&#45;&gt;FSDGameUserSettings&#45;&gt;GetFSDGameUserSettings</text>
</g>
<!-- ExecuteUbergraph_Options_DownedTurnDirection__91 -->
<g id="node8" class="node">
<title>ExecuteUbergraph_Options_DownedTurnDirection__91</title>
<polygon fill="#eeeeee" stroke="black" points="1961.5,-1061.5 1961.5,-1174.5 2704.5,-1174.5 2704.5,-1061.5 1961.5,-1061.5"/>
<text text-anchor="start" x="1969.5" y="-1159.3" font-family="monospace" font-size="14.00">EX_Let</text>
<text text-anchor="start" x="1969.5" y="-1144.3" font-family="monospace" font-size="14.00">  EX_LocalVariable [CallFunc_GetDownCameraTurnDirection_ReturnValue]</text>
<text text-anchor="start" x="1969.5" y="-1129.3" font-family="monospace" font-size="14.00">  EX_Context</text>
<text text-anchor="start" x="1969.5" y="-1114.3" font-family="monospace" font-size="14.00">    EX_LocalVariable [CallFunc_GetFSDGameUserSettings_ReturnValue_1]</text>
<text text-anchor="start" x="1969.5" y="-1099.3" font-family="monospace" font-size="14.00">    EX_FinalFunction import /Script/FSD&#45;&gt;FSDGameUserSettings&#45;&gt;GetDownCameraTurnDirection</text>
<text text-anchor="start" x="1969.5" y="-1084.3" font-family="monospace" font-size="14.00">      EX_InstanceVariable [InputSource]</text>
<text text-anchor="start" x="1969.5" y="-1069.3" font-family="monospace" font-size="14.00">    RValue = [CallFunc_GetDownCameraTurnDirection_ReturnValue]</text>
</g>
<!-- ExecuteUbergraph_Options_DownedTurnDirection__71&#45;&gt;ExecuteUbergraph_Options_DownedTurnDirection__91 -->
<g id="edge5" class="edge">
<title>ExecuteUbergraph_Options_DownedTurnDirection__71&#45;&gt;ExecuteUbergraph_Options_DownedTurnDirection__91</title>
<path fill="none" stroke="black" d="M2201.83,-1211.69C2214.8,-1202.52 2230.09,-1191.71 2245.56,-1180.78"/>
<polygon fill="black" stroke="black" points="2247.29,-1183.84 2253.44,-1175.21 2243.26,-1178.13 2247.29,-1183.84"/>
</g>
<!-- ExecuteUbergraph_Options_DownedTurnDirection__150 -->
<g id="node9" class="node">
<title>ExecuteUbergraph_Options_DownedTurnDirection__150</title>
<polygon fill="#eeeeee" stroke="black" points="2083,-941.5 2083,-1024.5 2685,-1024.5 2685,-941.5 2083,-941.5"/>
<text text-anchor="start" x="2091" y="-1009.3" font-family="monospace" font-size="14.00">EX_LetBool</text>
<text text-anchor="start" x="2091" y="-994.3" font-family="monospace" font-size="14.00">  EX_LocalVariable [CallFunc_Less_FloatFloat_ReturnValue]</text>
<text text-anchor="start" x="2091" y="-979.3" font-family="monospace" font-size="14.00">  EX_CallMath import /Script/Engine&#45;&gt;KismetMathLibrary&#45;&gt;Less_FloatFloat</text>
<text text-anchor="start" x="2091" y="-964.3" font-family="monospace" font-size="14.00">    EX_LocalVariable [CallFunc_GetDownCameraTurnDirection_ReturnValue]</text>
<text text-anchor="start" x="2091" y="-949.3" font-family="monospace" font-size="14.00">    EX_FloatConst 0</text>
</g>
<!-- ExecuteUbergraph_Options_DownedTurnDirection__91&#45;&gt;ExecuteUbergraph_Options_DownedTurnDirection__150 -->
<g id="edge6" class="edge">
<title>ExecuteUbergraph_Options_DownedTurnDirection__91&#45;&gt;ExecuteUbergraph_Options_DownedTurnDirection__150</title>
<path fill="none" stroke="black" d="M2354.19,-1061.75C2357.61,-1052.82 2361.14,-1043.61 2364.52,-1034.79"/>
<polygon fill="black" stroke="black" points="2367.7,-1036.28 2368.01,-1025.69 2361.17,-1033.77 2367.7,-1036.28"/>
</g>
<!-- ExecuteUbergraph_Options_DownedTurnDirection__184 -->
<g id="node10" class="node">
<title>ExecuteUbergraph_Options_DownedTurnDirection__184</title>
<polygon fill="#eeeeee" stroke="black" points="2157.5,-821.5 2157.5,-904.5 2660.5,-904.5 2660.5,-821.5 2157.5,-821.5"/>
<text text-anchor="start" x="2165.5" y="-889.3" font-family="monospace" font-size="14.00">EX_Context</text>
<text text-anchor="start" x="2165.5" y="-874.3" font-family="monospace" font-size="14.00">  EX_InstanceVariable [Basic_CheckBox]</text>
<text text-anchor="start" x="2165.5" y="-859.3" font-family="monospace" font-size="14.00">  EX_LocalVirtualFunction SetIsChecked</text>
<text text-anchor="start" x="2165.5" y="-844.3" font-family="monospace" font-size="14.00">    EX_LocalVariable [CallFunc_Less_FloatFloat_ReturnValue]</text>
<text text-anchor="start" x="2165.5" y="-829.3" font-family="monospace" font-size="14.00">  RValue = []</text>
</g>
<!-- ExecuteUbergraph_Options_DownedTurnDirection__150&#45;&gt;ExecuteUbergraph_Options_DownedTurnDirection__184 -->
<g id="edge7" class="edge">
<title>ExecuteUbergraph_Options_DownedTurnDirection__150&#45;&gt;ExecuteUbergraph_Options_DownedTurnDirection__184</title>
<path fill="none" stroke="black" d="M2392.53,-941.72C2394.3,-933.37 2396.19,-924.45 2398.04,-915.75"/>
<polygon fill="black" stroke="black" points="2401.46,-916.49 2400.11,-905.98 2394.61,-915.04 2401.46,-916.49"/>
</g>
<!-- ExecuteUbergraph_Options_DownedTurnDirection__229 -->
<g id="node11" class="node">
<title>ExecuteUbergraph_Options_DownedTurnDirection__229</title>
<polygon fill="#eeeeee" stroke="black" points="2462.5,-164.5 2462.5,-200.5 2569.5,-200.5 2569.5,-164.5 2462.5,-164.5"/>
<text text-anchor="start" x="2470.5" y="-178.8" font-family="monospace" font-size="14.00">EX_Jump 418</text>
</g>
<!-- ExecuteUbergraph_Options_DownedTurnDirection__184&#45;&gt;ExecuteUbergraph_Options_DownedTurnDirection__229 -->
<g id="edge8" class="edge">
<title>ExecuteUbergraph_Options_DownedTurnDirection__184&#45;&gt;ExecuteUbergraph_Options_DownedTurnDirection__229</title>
<path fill="none" stroke="black" d="M2431.64,-821.92C2461.69,-764.85 2511,-656.03 2511,-556.5 2511,-556.5 2511,-556.5 2511,-360.5 2511,-307.7 2513.25,-246.08 2514.73,-211.24"/>
<polygon fill="black" stroke="black" points="2518.21,-211.74 2515.15,-201.6 2511.22,-211.44 2518.21,-211.74"/>
</g>
<!-- ExecuteUbergraph_Options_DownedTurnDirection__229&#45;&gt;ExecuteUbergraph_Options_DownedTurnDirection__418 -->
<g id="edge9" class="edge">
<title>ExecuteUbergraph_Options_DownedTurnDirection__229&#45;&gt;ExecuteUbergraph_Options_DownedTurnDirection__418</title>
<path fill="none" stroke="black" d="M2534.08,-164.57C2564.34,-136.25 2625.41,-79.08 2660.85,-45.91"/>
<polygon fill="black" stroke="black" points="2662.84,-48.84 2667.75,-39.45 2658.06,-43.73 2662.84,-48.84"/>
</g>
<!-- ExecuteUbergraph_Options_DownedTurnDirection__234 -->
<g id="node12" class="node">
<title>ExecuteUbergraph_Options_DownedTurnDirection__234</title>
<polygon fill="#eeeeee" stroke="black" points="3118.5,-1091.5 3118.5,-1144.5 3465.5,-1144.5 3465.5,-1091.5 3118.5,-1091.5"/>
<text text-anchor="start" x="3126.5" y="-1129.3" font-family="monospace" font-size="14.00">EX_Let</text>
<text text-anchor="start" x="3126.5" y="-1114.3" font-family="monospace" font-size="14.00">  EX_LocalVariable [Temp_float_Variable]</text>
<text text-anchor="start" x="3126.5" y="-1099.3" font-family="monospace" font-size="14.00">  EX_FloatConst &#45;1</text>
</g>
<!-- ExecuteUbergraph_Options_DownedTurnDirection__257 -->
<g id="node13" class="node">
<title>ExecuteUbergraph_Options_DownedTurnDirection__257</title>
<polygon fill="#eeeeee" stroke="black" points="2973.5,-956.5 2973.5,-1009.5 3336.5,-1009.5 3336.5,-956.5 2973.5,-956.5"/>
<text text-anchor="start" x="2981.5" y="-994.3" font-family="monospace" font-size="14.00">EX_Let</text>
<text text-anchor="start" x="2981.5" y="-979.3" font-family="monospace" font-size="14.00">  EX_LocalVariable [Temp_float_Variable_1]</text>
<text text-anchor="start" x="2981.5" y="-964.3" font-family="monospace" font-size="14.00">  EX_FloatConst 1</text>
</g>
<!-- ExecuteUbergraph_Options_DownedTurnDirection__234&#45;&gt;ExecuteUbergraph_Options_DownedTurnDirection__257 -->
<g id="edge10" class="edge">
<title>ExecuteUbergraph_Options_DownedTurnDirection__234&#45;&gt;ExecuteUbergraph_Options_DownedTurnDirection__257</title>
<path fill="none" stroke="black" d="M3265.91,-1091.67C3244.1,-1070.5 3212.84,-1040.15 3189.06,-1017.07"/>
<polygon fill="black" stroke="black" points="3191.69,-1014.74 3182.08,-1010.29 3186.82,-1019.77 3191.69,-1014.74"/>
</g>
<!-- ExecuteUbergraph_Options_DownedTurnDirection__280 -->
<g id="node14" class="node">
<title>ExecuteUbergraph_Options_DownedTurnDirection__280</title>
<polygon fill="#eeeeee" stroke="black" points="2692,-836.5 2692,-889.5 3344,-889.5 3344,-836.5 2692,-836.5"/>
<text text-anchor="start" x="2700" y="-874.3" font-family="monospace" font-size="14.00">EX_LetObj</text>
<text text-anchor="start" x="2700" y="-859.3" font-family="monospace" font-size="14.00">  EX_LocalVariable [CallFunc_GetFSDGameUserSettings_ReturnValue_2]</text>
<text text-anchor="start" x="2700" y="-844.3" font-family="monospace" font-size="14.00">  EX_CallMath import /Script/FSD&#45;&gt;FSDGameUserSettings&#45;&gt;GetFSDGameUserSettings</text>
</g>
<!-- ExecuteUbergraph_Options_DownedTurnDirection__257&#45;&gt;ExecuteUbergraph_Options_DownedTurnDirection__280 -->
<g id="edge11" class="edge">
<title>ExecuteUbergraph_Options_DownedTurnDirection__257&#45;&gt;ExecuteUbergraph_Options_DownedTurnDirection__280</title>
<path fill="none" stroke="black" d="M3125.61,-956.69C3105.2,-939.11 3077.83,-915.54 3055.8,-896.56"/>
<polygon fill="black" stroke="black" points="3058.35,-894.13 3048.49,-890.26 3053.78,-899.44 3058.35,-894.13"/>
</g>
<!-- ExecuteUbergraph_Options_DownedTurnDirection__300 -->
<g id="node15" class="node">
<title>ExecuteUbergraph_Options_DownedTurnDirection__300</title>
<polygon fill="#eeeeee" stroke="black" points="2741.5,-731.5 2741.5,-784.5 3228.5,-784.5 3228.5,-731.5 2741.5,-731.5"/>
<text text-anchor="start" x="2749.5" y="-769.3" font-family="monospace" font-size="14.00">EX_LetBool</text>
<text text-anchor="start" x="2749.5" y="-754.3" font-family="monospace" font-size="14.00">  EX_LocalVariable [Temp_bool_Variable]</text>
<text text-anchor="start" x="2749.5" y="-739.3" font-family="monospace" font-size="14.00">  EX_LocalVariable [K2Node_ComponentBoundEvent_IsChecked]</text>
</g>
<!-- ExecuteUbergraph_Options_DownedTurnDirection__280&#45;&gt;ExecuteUbergraph_Options_DownedTurnDirection__300 -->
<g id="edge12" class="edge">
<title>ExecuteUbergraph_Options_DownedTurnDirection__280&#45;&gt;ExecuteUbergraph_Options_DownedTurnDirection__300</title>
<path fill="none" stroke="black" d="M3009.84,-836.54C3005.81,-823.94 3000.87,-808.52 2996.46,-794.76"/>
<polygon fill="black" stroke="black" points="2999.91,-794.06 2993.53,-785.61 2993.24,-796.2 2999.91,-794.06"/>
</g>
<!-- ExecuteUbergraph_Options_DownedTurnDirection__319 -->
<g id="node16" class="node">
<title>ExecuteUbergraph_Options_DownedTurnDirection__319</title>
<polygon fill="#eeeeee" stroke="black" points="2590,-416.5 2590,-694.5 3316,-694.5 3316,-416.5 2590,-416.5"/>
<text text-anchor="start" x="2598" y="-679.3" font-family="monospace" font-size="14.00">EX_Context</text>
<text text-anchor="start" x="2598" y="-664.3" font-family="monospace" font-size="14.00">  EX_LocalVariable [CallFunc_GetFSDGameUserSettings_ReturnValue_2]</text>
<text text-anchor="start" x="2598" y="-649.3" font-family="monospace" font-size="14.00">  EX_FinalFunction import /Script/FSD&#45;&gt;FSDGameUserSettings&#45;&gt;SetDownCameraTurnDirection</text>
<text text-anchor="start" x="2598" y="-634.3" font-family="monospace" font-size="14.00">    EX_InstanceVariable [InputSource]</text>
<text text-anchor="start" x="2598" y="-619.3" font-family="monospace" font-size="14.00">    EX_SwitchValue</text>
<text text-anchor="start" x="2598" y="-604.3" font-family="monospace" font-size="14.00">      EX_LocalVariable [Temp_bool_Variable]</text>
<text text-anchor="start" x="2598" y="-589.3" font-family="monospace" font-size="14.00">      OffsetToSwitchEnd = 412</text>
<text text-anchor="start" x="2598" y="-574.3" font-family="monospace" font-size="14.00">      case 0:</text>
<text text-anchor="start" x="2598" y="-559.3" font-family="monospace" font-size="14.00">        EX_False</text>
<text text-anchor="start" x="2598" y="-544.3" font-family="monospace" font-size="14.00">        NextCaseOffset = 389</text>
<text text-anchor="start" x="2598" y="-529.3" font-family="monospace" font-size="14.00">        EX_LocalVariable [Temp_float_Variable_1]</text>
<text text-anchor="start" x="2598" y="-514.3" font-family="monospace" font-size="14.00">      case 1:</text>
<text text-anchor="start" x="2598" y="-499.3" font-family="monospace" font-size="14.00">        EX_True</text>
<text text-anchor="start" x="2598" y="-484.3" font-family="monospace" font-size="14.00">        NextCaseOffset = 403</text>
<text text-anchor="start" x="2598" y="-469.3" font-family="monospace" font-size="14.00">        EX_LocalVariable [Temp_float_Variable]</text>
<text text-anchor="start" x="2598" y="-454.3" font-family="monospace" font-size="14.00">      default:</text>
<text text-anchor="start" x="2598" y="-439.3" font-family="monospace" font-size="14.00">        EX_LocalVariable [K2Node_Select_Default]</text>
<text text-anchor="start" x="2598" y="-424.3" font-family="monospace" font-size="14.00">  RValue = []</text>
</g>
<!-- ExecuteUbergraph_Options_DownedTurnDirection__300&#45;&gt;ExecuteUbergraph_Options_DownedTurnDirection__319 -->
<g id="edge13" class="edge">
<title>ExecuteUbergraph_Options_DownedTurnDirection__300&#45;&gt;ExecuteUbergraph_Options_DownedTurnDirection__319</title>
<path fill="none" stroke="black" d="M2980.95,-731.61C2979.74,-724.03 2978.32,-715.12 2976.77,-705.41"/>
<polygon fill="black" stroke="black" points="2980.24,-704.95 2975.21,-695.63 2973.33,-706.06 2980.24,-704.95"/>
</g>
<!-- ExecuteUbergraph_Options_DownedTurnDirection__413 -->
<g id="node17" class="node">
<title>ExecuteUbergraph_Options_DownedTurnDirection__413</title>
<polygon fill="#eeeeee" stroke="black" points="2868.5,-343.5 2868.5,-379.5 2967.5,-379.5 2967.5,-343.5 2868.5,-343.5"/>
<text text-anchor="start" x="2876.5" y="-357.8" font-family="monospace" font-size="14.00">EX_Jump 10</text>
</g>
<!-- ExecuteUbergraph_Options_DownedTurnDirection__319&#45;&gt;ExecuteUbergraph_Options_DownedTurnDirection__413 -->
<g id="edge14" class="edge">
<title>ExecuteUbergraph_Options_DownedTurnDirection__319&#45;&gt;ExecuteUbergraph_Options_DownedTurnDirection__413</title>
<path fill="none" stroke="black" d="M2927.89,-416.75C2926.11,-407.01 2924.47,-397.98 2923.05,-390.19"/>
<polygon fill="black" stroke="black" points="2926.53,-389.75 2921.29,-380.54 2919.64,-391.01 2926.53,-389.75"/>
</g>
<!-- ExecuteUbergraph_Options_DownedTurnDirection__413&#45;&gt;ExecuteUbergraph_Options_DownedTurnDirection__10 -->
<g id="edge15" class="edge">
<title>ExecuteUbergraph_Options_DownedTurnDirection__413&#45;&gt;ExecuteUbergraph_Options_DownedTurnDirection__10</title>
<path fill="none" stroke="black" d="M2910.58,-343.64C2907.11,-335.76 2902.84,-326.06 2898.7,-316.66"/>
<polygon fill="black" stroke="black" points="2901.98,-315.42 2894.75,-307.68 2895.57,-318.25 2901.98,-315.42"/>
</g>
<!-- ExecuteUbergraph_Options_DownedTurnDirection__420 -->
<g id="node19" class="node">
<title>ExecuteUbergraph_Options_DownedTurnDirection__420</title>
<polygon fill="#eeeeee" stroke="black" points="3334,-537.5 3334,-573.5 3466,-573.5 3466,-537.5 3334,-537.5"/>
<text text-anchor="start" x="3342" y="-551.8" font-family="monospace" font-size="14.00">EX_EndOfScript</text>
</g>
<!-- BndEvt__Basic_CheckBox_K2Node_ComponentBoundEvent_0_OnCheckStateChanged__DelegateSignature -->
<g id="node20" class="node">
<title>BndEvt__Basic_CheckBox_K2Node_ComponentBoundEvent_0_OnCheckStateChanged__DelegateSignature</title>
<polygon fill="#ff8888" stroke="black" points="2531.5,-1451.5 2531.5,-1504.5 3364.5,-1504.5 3364.5,-1451.5 2531.5,-1451.5"/>
<text text-anchor="start" x="2539.5" y="-1489.3" font-family="monospace" font-size="14.00">Function BndEvt__Basic_CheckBox_K2Node_ComponentBoundEvent_0_OnCheckStateChanged__DelegateSignature</text>
<text text-anchor="start" x="2539.5" y="-1474.3" font-family="monospace" font-size="14.00">  BoolProperty IsChecked</text>
<text text-anchor="start" x="2539.5" y="-1459.3" font-family="monospace" font-size="14.00">    CPF_BlueprintVisible|CPF_BlueprintReadOnly|CPF_Parm</text>
</g>
<!-- BndEvt__Basic_CheckBox_K2Node_ComponentBoundEvent_0_OnCheckStateChanged__DelegateSignature__0 -->
<g id="node21" class="node">
<title>BndEvt__Basic_CheckBox_K2Node_ComponentBoundEvent_0_OnCheckStateChanged__DelegateSignature__0</title>
<polygon fill="#eeeeee" stroke="black" points="2663.5,-1301.5 2663.5,-1339.5 3232.5,-1339.5 3232.5,-1301.5 2663.5,-1301.5"/>
<text text-anchor="start" x="2671.5" y="-1324.3" font-family="monospace" font-size="14.00">EX_LetValueOnPersistentFrame [K2Node_ComponentBoundEvent_IsChecked]</text>
<text text-anchor="start" x="2671.5" y="-1309.3" font-family="monospace" font-size="14.00">  EX_LocalVariable [IsChecked]</text>
</g>
<!-- BndEvt__Basic_CheckBox_K2Node_ComponentBoundEvent_0_OnCheckStateChanged__DelegateSignature&#45;&gt;BndEvt__Basic_CheckBox_K2Node_ComponentBoundEvent_0_OnCheckStateChanged__DelegateSignature__0 -->
<g id="edge16" class="edge">
<title>BndEvt__Basic_CheckBox_K2Node_ComponentBoundEvent_0_OnCheckStateChanged__DelegateSignature&#45;&gt;BndEvt__Basic_CheckBox_K2Node_ComponentBoundEvent_0_OnCheckStateChanged__DelegateSignature__0</title>
<path fill="none" stroke="black" d="M2948,-1451.67C2948,-1423.96 2948,-1379.62 2948,-1350.52"/>
<polygon fill="black" stroke="black" points="2951.5,-1350.6 2948,-1340.6 2944.5,-1350.6 2951.5,-1350.6"/>
</g>
<!-- BndEvt__Basic_CheckBox_K2Node_ComponentBoundEvent_0_OnCheckStateChanged__DelegateSignature__18 -->
<g id="node22" class="node">
<title>BndEvt__Basic_CheckBox_K2Node_ComponentBoundEvent_0_OnCheckStateChanged__DelegateSignature__18</title>
<polygon fill="#eeeeee" stroke="black" points="2510.5,-1219 2510.5,-1257 3385.5,-1257 3385.5,-1219 2510.5,-1219"/>
<text text-anchor="start" x="2518.5" y="-1241.8" font-family="monospace" font-size="14.00">EX_LocalFinalFunction export Options_DownedTurnDirection_C&#45;&gt;ExecuteUbergraph_Options_DownedTurnDirection</text>
<text text-anchor="start" x="2518.5" y="-1226.8" font-family="monospace" font-size="14.00">  EX_IntConst 234</text>
</g>
<!-- BndEvt__Basic_CheckBox_K2Node_ComponentBoundEvent_0_OnCheckStateChanged__DelegateSignature__0&#45;&gt;BndEvt__Basic_CheckBox_K2Node_ComponentBoundEvent_0_OnCheckStateChanged__DelegateSignature__18 -->
<g id="edge17" class="edge">
<title>BndEvt__Basic_CheckBox_K2Node_ComponentBoundEvent_0_OnCheckStateChanged__DelegateSignature__0&#45;&gt;BndEvt__Basic_CheckBox_K2Node_ComponentBoundEvent_0_OnCheckStateChanged__DelegateSignature__18</title>
<path fill="none" stroke="black" d="M2948,-1301.63C2948,-1291.84 2948,-1279.45 2948,-1268.28"/>
<polygon fill="black" stroke="black" points="2951.5,-1268.33 2948,-1258.33 2944.5,-1268.33 2951.5,-1268.33"/>
</g>
<!-- BndEvt__Basic_CheckBox_K2Node_ComponentBoundEvent_0_OnCheckStateChanged__DelegateSignature__18&#45;&gt;ExecuteUbergraph_Options_DownedTurnDirection__234 -->
<g id="edge18" class="edge">
<title>BndEvt__Basic_CheckBox_K2Node_ComponentBoundEvent_0_OnCheckStateChanged__DelegateSignature__18:e&#45;&gt;ExecuteUbergraph_Options_DownedTurnDirection__234</title>
<path fill="none" stroke="red" d="M3387,-1238C3431.42,-1238 3376.59,-1186.72 3333.67,-1151.49"/>
<polygon fill="none" stroke="red" points="3335.87,-1148.77 3325.9,-1145.19 3331.47,-1154.21 3335.87,-1148.77"/>
</g>
<!-- BndEvt__Basic_CheckBox_K2Node_ComponentBoundEvent_0_OnCheckStateChanged__DelegateSignature__33 -->
<g id="node23" class="node">
<title>BndEvt__Basic_CheckBox_K2Node_ComponentBoundEvent_0_OnCheckStateChanged__DelegateSignature__33</title>
<polygon fill="#eeeeee" stroke="black" points="2890,-1099 2890,-1137 3006,-1137 3006,-1099 2890,-1099"/>
<text text-anchor="start" x="2898" y="-1121.8" font-family="monospace" font-size="14.00">EX_Return</text>
<text text-anchor="start" x="2898" y="-1106.8" font-family="monospace" font-size="14.00">  EX_Nothing</text>
</g>
<!-- BndEvt__Basic_CheckBox_K2Node_ComponentBoundEvent_0_OnCheckStateChanged__DelegateSignature__18&#45;&gt;BndEvt__Basic_CheckBox_K2Node_ComponentBoundEvent_0_OnCheckStateChanged__DelegateSignature__33 -->
<g id="edge19" class="edge">
<title>BndEvt__Basic_CheckBox_K2Node_ComponentBoundEvent_0_OnCheckStateChanged__DelegateSignature__18&#45;&gt;BndEvt__Basic_CheckBox_K2Node_ComponentBoundEvent_0_OnCheckStateChanged__DelegateSignature__33</title>
<path fill="none" stroke="black" d="M2948,-1219.08C2948,-1200.26 2948,-1170.36 2948,-1148.14"/>
<polygon fill="black" stroke="black" points="2951.5,-1148.22 2948,-1138.22 2944.5,-1148.22 2951.5,-1148.22"/>
</g>
<!-- BndEvt__Basic_CheckBox_K2Node_ComponentBoundEvent_0_OnCheckStateChanged__DelegateSignature__35 -->
<g id="node24" class="node">
<title>BndEvt__Basic_CheckBox_K2Node_ComponentBoundEvent_0_OnCheckStateChanged__DelegateSignature__35</title>
<polygon fill="#eeeeee" stroke="black" points="2986,-343.5 2986,-379.5 3118,-379.5 3118,-343.5 2986,-343.5"/>
<text text-anchor="start" x="2994" y="-357.8" font-family="monospace" font-size="14.00">EX_EndOfScript</text>
</g>
<!-- Construct -->
<g id="node25" class="node">
<title>Construct</title>
<polygon fill="#ff8888" stroke="black" points="1645.5,-1460 1645.5,-1496 1810.5,-1496 1810.5,-1460 1645.5,-1460"/>
<text text-anchor="start" x="1653.5" y="-1474.3" font-family="monospace" font-size="14.00">Function Construct</text>
</g>
<!-- Construct__0 -->
<g id="node26" class="node">
<title>Construct__0</title>
<polygon fill="#eeeeee" stroke="black" points="1290.5,-1301.5 1290.5,-1339.5 2165.5,-1339.5 2165.5,-1301.5 1290.5,-1301.5"/>
<text text-anchor="start" x="1298.5" y="-1324.3" font-family="monospace" font-size="14.00">EX_LocalFinalFunction export Options_DownedTurnDirection_C&#45;&gt;ExecuteUbergraph_Options_DownedTurnDirection</text>
<text text-anchor="start" x="1298.5" y="-1309.3" font-family="monospace" font-size="14.00">  EX_IntConst 71</text>
</g>
<!-- Construct&#45;&gt;Construct__0 -->
<g id="edge20" class="edge">
<title>Construct&#45;&gt;Construct__0</title>
<path fill="none" stroke="black" d="M1728,-1460.06C1728,-1433.82 1728,-1383 1728,-1350.74"/>
<polygon fill="black" stroke="black" points="1731.5,-1350.88 1728,-1340.88 1724.5,-1350.88 1731.5,-1350.88"/>
</g>
<!-- Construct__0&#45;&gt;ExecuteUbergraph_Options_DownedTurnDirection__71 -->
<g id="edge21" class="edge">
<title>Construct__0:e&#45;&gt;ExecuteUbergraph_Options_DownedTurnDirection__71</title>
<path fill="none" stroke="red" d="M2167,-1320.5C2186.49,-1320.5 2184.72,-1296.91 2178.92,-1275.11"/>
<polygon fill="none" stroke="red" points="2182.36,-1274.38 2176.15,-1265.79 2175.65,-1276.37 2182.36,-1274.38"/>
</g>
<!-- Construct__15 -->
<g id="node27" class="node">
<title>Construct__15</title>
<polygon fill="#eeeeee" stroke="black" points="1670,-1219 1670,-1257 1786,-1257 1786,-1219 1670,-1219"/>
<text text-anchor="start" x="1678" y="-1241.8" font-family="monospace" font-size="14.00">EX_Return</text>
<text text-anchor="start" x="1678" y="-1226.8" font-family="monospace" font-size="14.00">  EX_Nothing</text>
</g>
<!-- Construct__0&#45;&gt;Construct__15 -->
<g id="edge22" class="edge">
<title>Construct__0&#45;&gt;Construct__15</title>
<path fill="none" stroke="black" d="M1728,-1301.63C1728,-1291.84 1728,-1279.45 1728,-1268.28"/>
<polygon fill="black" stroke="black" points="1731.5,-1268.33 1728,-1258.33 1724.5,-1268.33 1731.5,-1268.33"/>
</g>
<!-- Construct__17 -->
<g id="node28" class="node">
<title>Construct__17</title>
<polygon fill="#eeeeee" stroke="black" points="3227,-262 3227,-298 3359,-298 3359,-262 3227,-262"/>
<text text-anchor="start" x="3235" y="-276.3" font-family="monospace" font-size="14.00">EX_EndOfScript</text>
</g>
</g>
</svg>
