<?xml version="1.0" encoding="UTF-8" standalone="no"?>
<!DOCTYPE svg PUBLIC "-//W3C//DTD SVG 1.1//EN"
 "http://www.w3.org/Graphics/SVG/1.1/DTD/svg11.dtd">
<!-- Generated by graphviz version 7.0.1 (0)
 -->
<!-- Pages: 1 -->
<svg width="3451pt" height="945pt"
 viewBox="0.00 0.00 3450.50 945.00" xmlns="http://www.w3.org/2000/svg" xmlns:xlink="http://www.w3.org/1999/xlink">
<g id="graph0" class="graph" transform="scale(1 1) rotate(0) translate(4 941)">
<polygon fill="white" stroke="none" points="-4,4 -4,-941 3446.5,-941 3446.5,4 -4,4"/>
<!-- WeaponDisplay_BurstPistol_AmmoCount_C -->
<g id="node1" class="node">
<title>WeaponDisplay_BurstPistol_AmmoCount_C</title>
<polygon fill="#88ff88" stroke="black" points="0,-583.5 0,-936.5 891,-936.5 891,-583.5 0,-583.5"/>
<text text-anchor="start" x="8" y="-921.3" font-family="monospace" font-size="14.00">ClassExport: WeaponDisplay_BurstPistol_AmmoCount_C</text>
<text text-anchor="start" x="8" y="-906.3" font-family="monospace" font-size="14.00">  SuperStruct: import /Game/UI/WeaponDisplays/WeaponDisplay_Base_AmmoCount&#45;&gt;WeaponDisplay_Base_AmmoCount_C</text>
<text text-anchor="start" x="8" y="-891.3" font-family="monospace" font-size="14.00">  Properties:</text>
<text text-anchor="start" x="8" y="-876.3" font-family="monospace" font-size="14.00">    StructProperty UberGraphFrame</text>
<text text-anchor="start" x="8" y="-861.3" font-family="monospace" font-size="14.00">      CPF_Transient|CPF_DuplicateTransient</text>
<text text-anchor="start" x="8" y="-846.3" font-family="monospace" font-size="14.00">    ObjectProperty AmmoBox</text>
<text text-anchor="start" x="8" y="-831.3" font-family="monospace" font-size="14.00">      CPF_BlueprintVisible|CPF_ExportObject|CPF_InstancedReference|CPF_RepSkip|CPF_PersistentInstance</text>
<text text-anchor="start" x="8" y="-816.3" font-family="monospace" font-size="14.00">    ObjectProperty AmmoCount</text>
<text text-anchor="start" x="8" y="-801.3" font-family="monospace" font-size="14.00">      CPF_BlueprintVisible|CPF_ExportObject|CPF_InstancedReference|CPF_RepSkip|CPF_PersistentInstance</text>
<text text-anchor="start" x="8" y="-786.3" font-family="monospace" font-size="14.00">    ObjectProperty AnimatedStaticOverlay_WithScanlines_LightVersion</text>
<text text-anchor="start" x="8" y="-771.3" font-family="monospace" font-size="14.00">      CPF_BlueprintVisible|CPF_ExportObject|CPF_InstancedReference|CPF_RepSkip|CPF_PersistentInstance</text>
<text text-anchor="start" x="8" y="-756.3" font-family="monospace" font-size="14.00">    ObjectProperty Image_0</text>
<text text-anchor="start" x="8" y="-741.3" font-family="monospace" font-size="14.00">      CPF_BlueprintVisible|CPF_ExportObject|CPF_InstancedReference|CPF_RepSkip|CPF_PersistentInstance</text>
<text text-anchor="start" x="8" y="-726.3" font-family="monospace" font-size="14.00">    ObjectProperty Image_1</text>
<text text-anchor="start" x="8" y="-711.3" font-family="monospace" font-size="14.00">      CPF_BlueprintVisible|CPF_ExportObject|CPF_InstancedReference|CPF_RepSkip|CPF_PersistentInstance</text>
<text text-anchor="start" x="8" y="-696.3" font-family="monospace" font-size="14.00">    ObjectProperty Image_2</text>
<text text-anchor="start" x="8" y="-681.3" font-family="monospace" font-size="14.00">      CPF_BlueprintVisible|CPF_ExportObject|CPF_InstancedReference|CPF_RepSkip|CPF_PersistentInstance</text>
<text text-anchor="start" x="8" y="-666.3" font-family="monospace" font-size="14.00">    ObjectProperty Image_3</text>
<text text-anchor="start" x="8" y="-651.3" font-family="monospace" font-size="14.00">      CPF_BlueprintVisible|CPF_ExportObject|CPF_InstancedReference|CPF_RepSkip|CPF_PersistentInstance</text>
<text text-anchor="start" x="8" y="-636.3" font-family="monospace" font-size="14.00">    ObjectProperty Image_88</text>
<text text-anchor="start" x="8" y="-621.3" font-family="monospace" font-size="14.00">      CPF_BlueprintVisible|CPF_ExportObject|CPF_InstancedReference|CPF_RepSkip|CPF_PersistentInstance</text>
<text text-anchor="start" x="8" y="-606.3" font-family="monospace" font-size="14.00">    ObjectProperty MaxAmmo</text>
<text text-anchor="start" x="8" y="-591.3" font-family="monospace" font-size="14.00">      CPF_BlueprintVisible|CPF_ExportObject|CPF_InstancedReference|CPF_RepSkip|CPF_PersistentInstance</text>
</g>
<!-- ExecuteUbergraph_WeaponDisplay_BurstPistol_AmmoCount -->
<g id="node2" class="node">
<title>ExecuteUbergraph_WeaponDisplay_BurstPistol_AmmoCount</title>
<polygon fill="#ff8888" stroke="black" points="909.5,-703.5 909.5,-816.5 1429.5,-816.5 1429.5,-703.5 909.5,-703.5"/>
<text text-anchor="start" x="917.5" y="-801.3" font-family="monospace" font-size="14.00">Function ExecuteUbergraph_WeaponDisplay_BurstPistol_AmmoCount</text>
<text text-anchor="start" x="917.5" y="-786.3" font-family="monospace" font-size="14.00">  IntProperty EntryPoint</text>
<text text-anchor="start" x="917.5" y="-771.3" font-family="monospace" font-size="14.00">    CPF_BlueprintVisible|CPF_BlueprintReadOnly|CPF_Parm</text>
<text text-anchor="start" x="917.5" y="-756.3" font-family="monospace" font-size="14.00">  IntProperty K2Node_Event_Value_1</text>
<text text-anchor="start" x="917.5" y="-741.3" font-family="monospace" font-size="14.00">  IntProperty K2Node_Event_Value</text>
<text text-anchor="start" x="917.5" y="-726.3" font-family="monospace" font-size="14.00">  TextProperty CallFunc_Conv_IntToText_ReturnValue</text>
<text text-anchor="start" x="917.5" y="-711.3" font-family="monospace" font-size="14.00">  TextProperty CallFunc_Conv_IntToText_ReturnValue_1</text>
</g>
<!-- ExecuteUbergraph_WeaponDisplay_BurstPistol_AmmoCount__0 -->
<g id="node3" class="node">
<title>ExecuteUbergraph_WeaponDisplay_BurstPistol_AmmoCount__0</title>
<polygon fill="#eeeeee" stroke="black" points="1033.5,-508.5 1033.5,-546.5 1305.5,-546.5 1305.5,-508.5 1033.5,-508.5"/>
<text text-anchor="start" x="1041.5" y="-531.3" font-family="monospace" font-size="14.00">EX_ComputedJump</text>
<text text-anchor="start" x="1041.5" y="-516.3" font-family="monospace" font-size="14.00">  EX_LocalVariable [EntryPoint]</text>
</g>
<!-- ExecuteUbergraph_WeaponDisplay_BurstPistol_AmmoCount&#45;&gt;ExecuteUbergraph_WeaponDisplay_BurstPistol_AmmoCount__0 -->
<g id="edge1" class="edge">
<title>ExecuteUbergraph_WeaponDisplay_BurstPistol_AmmoCount&#45;&gt;ExecuteUbergraph_WeaponDisplay_BurstPistol_AmmoCount__0</title>
<path fill="none" stroke="black" d="M1169.5,-703.79C1169.5,-657.84 1169.5,-594.23 1169.5,-557.62"/>
<polygon fill="black" stroke="black" points="1173,-557.81 1169.5,-547.81 1166,-557.81 1173,-557.81"/>
</g>
<!-- ExecuteUbergraph_WeaponDisplay_BurstPistol_AmmoCount__10 -->
<g id="node4" class="node">
<title>ExecuteUbergraph_WeaponDisplay_BurstPistol_AmmoCount__10</title>
<polygon fill="#eeeeee" stroke="black" points="2848.5,-268.5 2848.5,-396.5 3442.5,-396.5 3442.5,-268.5 2848.5,-268.5"/>
<text text-anchor="start" x="2856.5" y="-381.3" font-family="monospace" font-size="14.00">EX_Let</text>
<text text-anchor="start" x="2856.5" y="-366.3" font-family="monospace" font-size="14.00">  EX_LocalVariable [CallFunc_Conv_IntToText_ReturnValue]</text>
<text text-anchor="start" x="2856.5" y="-351.3" font-family="monospace" font-size="14.00">  EX_CallMath import /Script/Engine&#45;&gt;KismetTextLibrary&#45;&gt;Conv_IntToText</text>
<text text-anchor="start" x="2856.5" y="-336.3" font-family="monospace" font-size="14.00">    EX_LocalVariable [K2Node_Event_Value_1]</text>
<text text-anchor="start" x="2856.5" y="-321.3" font-family="monospace" font-size="14.00">    EX_False</text>
<text text-anchor="start" x="2856.5" y="-306.3" font-family="monospace" font-size="14.00">    EX_True</text>
<text text-anchor="start" x="2856.5" y="-291.3" font-family="monospace" font-size="14.00">    EX_IntConst 1</text>
<text text-anchor="start" x="2856.5" y="-276.3" font-family="monospace" font-size="14.00">    EX_IntConst 324</text>
</g>
<!-- ExecuteUbergraph_WeaponDisplay_BurstPistol_AmmoCount__59 -->
<g id="node5" class="node">
<title>ExecuteUbergraph_WeaponDisplay_BurstPistol_AmmoCount__59</title>
<polygon fill="#eeeeee" stroke="black" points="2807,-148.5 2807,-231.5 3302,-231.5 3302,-148.5 2807,-148.5"/>
<text text-anchor="start" x="2815" y="-216.3" font-family="monospace" font-size="14.00">EX_Context</text>
<text text-anchor="start" x="2815" y="-201.3" font-family="monospace" font-size="14.00">  EX_InstanceVariable [MaxAmmo]</text>
<text text-anchor="start" x="2815" y="-186.3" font-family="monospace" font-size="14.00">  EX_VirtualFunction SetText</text>
<text text-anchor="start" x="2815" y="-171.3" font-family="monospace" font-size="14.00">    EX_LocalVariable [CallFunc_Conv_IntToText_ReturnValue]</text>
<text text-anchor="start" x="2815" y="-156.3" font-family="monospace" font-size="14.00">  RValue = []</text>
</g>
<!-- ExecuteUbergraph_WeaponDisplay_BurstPistol_AmmoCount__10&#45;&gt;ExecuteUbergraph_WeaponDisplay_BurstPistol_AmmoCount__59 -->
<g id="edge2" class="edge">
<title>ExecuteUbergraph_WeaponDisplay_BurstPistol_AmmoCount__10&#45;&gt;ExecuteUbergraph_WeaponDisplay_BurstPistol_AmmoCount__59</title>
<path fill="none" stroke="black" d="M3104.79,-268.65C3098.74,-259.31 3092.58,-249.8 3086.74,-240.78"/>
<polygon fill="black" stroke="black" points="3089.75,-238.98 3081.37,-232.49 3083.87,-242.78 3089.75,-238.98"/>
</g>
<!-- ExecuteUbergraph_WeaponDisplay_BurstPistol_AmmoCount__104 -->
<g id="node6" class="node">
<title>ExecuteUbergraph_WeaponDisplay_BurstPistol_AmmoCount__104</title>
<polygon fill="#eeeeee" stroke="black" points="2800,-75.5 2800,-111.5 2907,-111.5 2907,-75.5 2800,-75.5"/>
<text text-anchor="start" x="2808" y="-89.8" font-family="monospace" font-size="14.00">EX_Jump 203</text>
</g>
<!-- ExecuteUbergraph_WeaponDisplay_BurstPistol_AmmoCount__59&#45;&gt;ExecuteUbergraph_WeaponDisplay_BurstPistol_AmmoCount__104 -->
<g id="edge3" class="edge">
<title>ExecuteUbergraph_WeaponDisplay_BurstPistol_AmmoCount__59&#45;&gt;ExecuteUbergraph_WeaponDisplay_BurstPistol_AmmoCount__104</title>
<path fill="none" stroke="black" d="M2968.38,-148.51C2944.79,-137.42 2920.12,-125.82 2899.72,-116.23"/>
<polygon fill="black" stroke="black" points="2901.37,-113.14 2890.83,-112.05 2898.39,-119.47 2901.37,-113.14"/>
</g>
<!-- ExecuteUbergraph_WeaponDisplay_BurstPistol_AmmoCount__203 -->
<g id="node9" class="node">
<title>ExecuteUbergraph_WeaponDisplay_BurstPistol_AmmoCount__203</title>
<polygon fill="#eeeeee" stroke="black" points="2644.5,-0.5 2644.5,-38.5 2760.5,-38.5 2760.5,-0.5 2644.5,-0.5"/>
<text text-anchor="start" x="2652.5" y="-23.3" font-family="monospace" font-size="14.00">EX_Return</text>
<text text-anchor="start" x="2652.5" y="-8.3" font-family="monospace" font-size="14.00">  EX_Nothing</text>
</g>
<!-- ExecuteUbergraph_WeaponDisplay_BurstPistol_AmmoCount__104&#45;&gt;ExecuteUbergraph_WeaponDisplay_BurstPistol_AmmoCount__203 -->
<g id="edge4" class="edge">
<title>ExecuteUbergraph_WeaponDisplay_BurstPistol_AmmoCount__104&#45;&gt;ExecuteUbergraph_WeaponDisplay_BurstPistol_AmmoCount__203</title>
<path fill="none" stroke="black" d="M2818.1,-75.62C2797.85,-65.97 2772.19,-53.73 2750.19,-43.24"/>
<polygon fill="black" stroke="black" points="2751.95,-40.2 2741.42,-39.06 2748.94,-46.52 2751.95,-40.2"/>
</g>
<!-- ExecuteUbergraph_WeaponDisplay_BurstPistol_AmmoCount__109 -->
<g id="node7" class="node">
<title>ExecuteUbergraph_WeaponDisplay_BurstPistol_AmmoCount__109</title>
<polygon fill="#eeeeee" stroke="black" points="1963.5,-268.5 1963.5,-396.5 2557.5,-396.5 2557.5,-268.5 1963.5,-268.5"/>
<text text-anchor="start" x="1971.5" y="-381.3" font-family="monospace" font-size="14.00">EX_Let</text>
<text text-anchor="start" x="1971.5" y="-366.3" font-family="monospace" font-size="14.00">  EX_LocalVariable [CallFunc_Conv_IntToText_ReturnValue_1]</text>
<text text-anchor="start" x="1971.5" y="-351.3" font-family="monospace" font-size="14.00">  EX_CallMath import /Script/Engine&#45;&gt;KismetTextLibrary&#45;&gt;Conv_IntToText</text>
<text text-anchor="start" x="1971.5" y="-336.3" font-family="monospace" font-size="14.00">    EX_LocalVariable [K2Node_Event_Value]</text>
<text text-anchor="start" x="1971.5" y="-321.3" font-family="monospace" font-size="14.00">    EX_False</text>
<text text-anchor="start" x="1971.5" y="-306.3" font-family="monospace" font-size="14.00">    EX_True</text>
<text text-anchor="start" x="1971.5" y="-291.3" font-family="monospace" font-size="14.00">    EX_IntConst 1</text>
<text text-anchor="start" x="1971.5" y="-276.3" font-family="monospace" font-size="14.00">    EX_IntConst 324</text>
</g>
<!-- ExecuteUbergraph_WeaponDisplay_BurstPistol_AmmoCount__158 -->
<g id="node8" class="node">
<title>ExecuteUbergraph_WeaponDisplay_BurstPistol_AmmoCount__158</title>
<polygon fill="#eeeeee" stroke="black" points="2185.5,-148.5 2185.5,-231.5 2697.5,-231.5 2697.5,-148.5 2185.5,-148.5"/>
<text text-anchor="start" x="2193.5" y="-216.3" font-family="monospace" font-size="14.00">EX_Context</text>
<text text-anchor="start" x="2193.5" y="-201.3" font-family="monospace" font-size="14.00">  EX_InstanceVariable [AmmoCount]</text>
<text text-anchor="start" x="2193.5" y="-186.3" font-family="monospace" font-size="14.00">  EX_VirtualFunction SetText</text>
<text text-anchor="start" x="2193.5" y="-171.3" font-family="monospace" font-size="14.00">    EX_LocalVariable [CallFunc_Conv_IntToText_ReturnValue_1]</text>
<text text-anchor="start" x="2193.5" y="-156.3" font-family="monospace" font-size="14.00">  RValue = []</text>
</g>
<!-- ExecuteUbergraph_WeaponDisplay_BurstPistol_AmmoCount__109&#45;&gt;ExecuteUbergraph_WeaponDisplay_BurstPistol_AmmoCount__158 -->
<g id="edge5" class="edge">
<title>ExecuteUbergraph_WeaponDisplay_BurstPistol_AmmoCount__109&#45;&gt;ExecuteUbergraph_WeaponDisplay_BurstPistol_AmmoCount__158</title>
<path fill="none" stroke="black" d="M2341.47,-268.65C2354.57,-258.48 2367.95,-248.1 2380.47,-238.37"/>
<polygon fill="black" stroke="black" points="2382.48,-241.24 2388.23,-232.35 2378.19,-235.71 2382.48,-241.24"/>
</g>
<!-- ExecuteUbergraph_WeaponDisplay_BurstPistol_AmmoCount__158&#45;&gt;ExecuteUbergraph_WeaponDisplay_BurstPistol_AmmoCount__203 -->
<g id="edge6" class="edge">
<title>ExecuteUbergraph_WeaponDisplay_BurstPistol_AmmoCount__158&#45;&gt;ExecuteUbergraph_WeaponDisplay_BurstPistol_AmmoCount__203</title>
<path fill="none" stroke="black" d="M2504.02,-148.64C2554.28,-116.19 2623.21,-71.69 2665.2,-44.58"/>
<polygon fill="black" stroke="black" points="2666.99,-47.59 2673.49,-39.23 2663.19,-41.71 2666.99,-47.59"/>
</g>
<!-- ExecuteUbergraph_WeaponDisplay_BurstPistol_AmmoCount__205 -->
<g id="node10" class="node">
<title>ExecuteUbergraph_WeaponDisplay_BurstPistol_AmmoCount__205</title>
<polygon fill="#eeeeee" stroke="black" points="2925.5,-75.5 2925.5,-111.5 3057.5,-111.5 3057.5,-75.5 2925.5,-75.5"/>
<text text-anchor="start" x="2933.5" y="-89.8" font-family="monospace" font-size="14.00">EX_EndOfScript</text>
</g>
<!-- SetClipCount -->
<g id="node11" class="node">
<title>SetClipCount</title>
<polygon fill="#ff8888" stroke="black" points="1447.5,-733.5 1447.5,-786.5 1917.5,-786.5 1917.5,-733.5 1447.5,-733.5"/>
<text text-anchor="start" x="1455.5" y="-771.3" font-family="monospace" font-size="14.00">Function SetClipCount</text>
<text text-anchor="start" x="1455.5" y="-756.3" font-family="monospace" font-size="14.00">  IntProperty Value</text>
<text text-anchor="start" x="1455.5" y="-741.3" font-family="monospace" font-size="14.00">    CPF_BlueprintVisible|CPF_BlueprintReadOnly|CPF_Parm</text>
</g>
<!-- SetClipCount__0 -->
<g id="node12" class="node">
<title>SetClipCount__0</title>
<polygon fill="#eeeeee" stroke="black" points="1472,-508.5 1472,-546.5 1893,-546.5 1893,-508.5 1472,-508.5"/>
<text text-anchor="start" x="1480" y="-531.3" font-family="monospace" font-size="14.00">EX_LetValueOnPersistentFrame [K2Node_Event_Value]</text>
<text text-anchor="start" x="1480" y="-516.3" font-family="monospace" font-size="14.00">  EX_LocalVariable [Value]</text>
</g>
<!-- SetClipCount&#45;&gt;SetClipCount__0 -->
<g id="edge7" class="edge">
<title>SetClipCount&#45;&gt;SetClipCount__0</title>
<path fill="none" stroke="black" d="M1682.5,-733.89C1682.5,-690.93 1682.5,-603.52 1682.5,-557.82"/>
<polygon fill="black" stroke="black" points="1686,-557.89 1682.5,-547.89 1679,-557.89 1686,-557.89"/>
</g>
<!-- SetClipCount__18 -->
<g id="node13" class="node">
<title>SetClipCount__18</title>
<polygon fill="#eeeeee" stroke="black" points="1179,-433.5 1179,-471.5 2186,-471.5 2186,-433.5 1179,-433.5"/>
<text text-anchor="start" x="1187" y="-456.3" font-family="monospace" font-size="14.00">EX_LocalFinalFunction export WeaponDisplay_BurstPistol_AmmoCount_C&#45;&gt;ExecuteUbergraph_WeaponDisplay_BurstPistol_AmmoCount</text>
<text text-anchor="start" x="1187" y="-441.3" font-family="monospace" font-size="14.00">  EX_IntConst 109</text>
</g>
<!-- SetClipCount__0&#45;&gt;SetClipCount__18 -->
<g id="edge8" class="edge">
<title>SetClipCount__0&#45;&gt;SetClipCount__18</title>
<path fill="none" stroke="black" d="M1682.5,-508.83C1682.5,-501 1682.5,-491.57 1682.5,-482.74"/>
<polygon fill="black" stroke="black" points="1686,-482.78 1682.5,-472.78 1679,-482.78 1686,-482.78"/>
</g>
<!-- SetClipCount__18&#45;&gt;ExecuteUbergraph_WeaponDisplay_BurstPistol_AmmoCount__109 -->
<g id="edge9" class="edge">
<title>SetClipCount__18:e&#45;&gt;ExecuteUbergraph_WeaponDisplay_BurstPistol_AmmoCount__109</title>
<path fill="none" stroke="red" d="M2187.5,-452.5C2196.71,-452.5 2190.37,-441.23 2194.5,-433 2199.01,-424.02 2204.17,-414.87 2209.59,-405.95"/>
<polygon fill="none" stroke="red" points="2212.44,-407.99 2214.74,-397.65 2206.49,-404.3 2212.44,-407.99"/>
</g>
<!-- SetClipCount__33 -->
<g id="node14" class="node">
<title>SetClipCount__33</title>
<polygon fill="#eeeeee" stroke="black" points="1624.5,-313.5 1624.5,-351.5 1740.5,-351.5 1740.5,-313.5 1624.5,-313.5"/>
<text text-anchor="start" x="1632.5" y="-336.3" font-family="monospace" font-size="14.00">EX_Return</text>
<text text-anchor="start" x="1632.5" y="-321.3" font-family="monospace" font-size="14.00">  EX_Nothing</text>
</g>
<!-- SetClipCount__18&#45;&gt;SetClipCount__33 -->
<g id="edge10" class="edge">
<title>SetClipCount__18&#45;&gt;SetClipCount__33</title>
<path fill="none" stroke="black" d="M1682.5,-433.58C1682.5,-414.76 1682.5,-384.86 1682.5,-362.64"/>
<polygon fill="black" stroke="black" points="1686,-362.72 1682.5,-352.72 1679,-362.72 1686,-362.72"/>
</g>
<!-- SetClipCount__35 -->
<g id="node15" class="node">
<title>SetClipCount__35</title>
<polygon fill="#eeeeee" stroke="black" points="2778.5,-1.5 2778.5,-37.5 2910.5,-37.5 2910.5,-1.5 2778.5,-1.5"/>
<text text-anchor="start" x="2786.5" y="-15.8" font-family="monospace" font-size="14.00">EX_EndOfScript</text>
</g>
<!-- SetTotalCount -->
<g id="node16" class="node">
<title>SetTotalCount</title>
<polygon fill="#ff8888" stroke="black" points="2472.5,-733.5 2472.5,-786.5 2942.5,-786.5 2942.5,-733.5 2472.5,-733.5"/>
<text text-anchor="start" x="2480.5" y="-771.3" font-family="monospace" font-size="14.00">Function SetTotalCount</text>
<text text-anchor="start" x="2480.5" y="-756.3" font-family="monospace" font-size="14.00">  IntProperty Value</text>
<text text-anchor="start" x="2480.5" y="-741.3" font-family="monospace" font-size="14.00">    CPF_BlueprintVisible|CPF_BlueprintReadOnly|CPF_Parm</text>
</g>
<!-- SetTotalCount__0 -->
<g id="node17" class="node">
<title>SetTotalCount__0</title>
<polygon fill="#eeeeee" stroke="black" points="2489,-508.5 2489,-546.5 2926,-546.5 2926,-508.5 2489,-508.5"/>
<text text-anchor="start" x="2497" y="-531.3" font-family="monospace" font-size="14.00">EX_LetValueOnPersistentFrame [K2Node_Event_Value_1]</text>
<text text-anchor="start" x="2497" y="-516.3" font-family="monospace" font-size="14.00">  EX_LocalVariable [Value]</text>
</g>
<!-- SetTotalCount&#45;&gt;SetTotalCount__0 -->
<g id="edge11" class="edge">
<title>SetTotalCount&#45;&gt;SetTotalCount__0</title>
<path fill="none" stroke="black" d="M2707.5,-733.89C2707.5,-690.93 2707.5,-603.52 2707.5,-557.82"/>
<polygon fill="black" stroke="black" points="2711,-557.89 2707.5,-547.89 2704,-557.89 2711,-557.89"/>
</g>
<!-- SetTotalCount__18 -->
<g id="node18" class="node">
<title>SetTotalCount__18</title>
<polygon fill="#eeeeee" stroke="black" points="2204,-433.5 2204,-471.5 3211,-471.5 3211,-433.5 2204,-433.5"/>
<text text-anchor="start" x="2212" y="-456.3" font-family="monospace" font-size="14.00">EX_LocalFinalFunction export WeaponDisplay_BurstPistol_AmmoCount_C&#45;&gt;ExecuteUbergraph_WeaponDisplay_BurstPistol_AmmoCount</text>
<text text-anchor="start" x="2212" y="-441.3" font-family="monospace" font-size="14.00">  EX_IntConst 10</text>
</g>
<!-- SetTotalCount__0&#45;&gt;SetTotalCount__18 -->
<g id="edge12" class="edge">
<title>SetTotalCount__0&#45;&gt;SetTotalCount__18</title>
<path fill="none" stroke="black" d="M2707.5,-508.83C2707.5,-501 2707.5,-491.57 2707.5,-482.74"/>
<polygon fill="black" stroke="black" points="2711,-482.78 2707.5,-472.78 2704,-482.78 2711,-482.78"/>
</g>
<!-- SetTotalCount__18&#45;&gt;ExecuteUbergraph_WeaponDisplay_BurstPistol_AmmoCount__10 -->
<g id="edge13" class="edge">
<title>SetTotalCount__18:e&#45;&gt;ExecuteUbergraph_WeaponDisplay_BurstPistol_AmmoCount__10</title>
<path fill="none" stroke="red" d="M3212.5,-452.5C3238.59,-452.5 3229.87,-430.52 3211.45,-405.45"/>
<polygon fill="none" stroke="red" points="3214.36,-403.49 3205.5,-397.69 3208.81,-407.75 3214.36,-403.49"/>
</g>
<!-- SetTotalCount__33 -->
<g id="node19" class="node">
<title>SetTotalCount__33</title>
<polygon fill="#eeeeee" stroke="black" points="2649.5,-313.5 2649.5,-351.5 2765.5,-351.5 2765.5,-313.5 2649.5,-313.5"/>
<text text-anchor="start" x="2657.5" y="-336.3" font-family="monospace" font-size="14.00">EX_Return</text>
<text text-anchor="start" x="2657.5" y="-321.3" font-family="monospace" font-size="14.00">  EX_Nothing</text>
</g>
<!-- SetTotalCount__18&#45;&gt;SetTotalCount__33 -->
<g id="edge14" class="edge">
<title>SetTotalCount__18&#45;&gt;SetTotalCount__33</title>
<path fill="none" stroke="black" d="M2707.5,-433.58C2707.5,-414.76 2707.5,-384.86 2707.5,-362.64"/>
<polygon fill="black" stroke="black" points="2711,-362.72 2707.5,-352.72 2704,-362.72 2711,-362.72"/>
</g>
<!-- SetTotalCount__35 -->
<g id="node20" class="node">
<title>SetTotalCount__35</title>
<polygon fill="#eeeeee" stroke="black" points="2960.5,-742 2960.5,-778 3092.5,-778 3092.5,-742 2960.5,-742"/>
<text text-anchor="start" x="2968.5" y="-756.3" font-family="monospace" font-size="14.00">EX_EndOfScript</text>
</g>
</g>
</svg>
