<?xml version="1.0" encoding="UTF-8" standalone="no"?>
<!DOCTYPE svg PUBLIC "-//W3C//DTD SVG 1.1//EN"
 "http://www.w3.org/Graphics/SVG/1.1/DTD/svg11.dtd">
<!-- Generated by graphviz version 7.0.1 (0)
 -->
<!-- Pages: 1 -->
<svg width="2494pt" height="767pt"
 viewBox="0.00 0.00 2494.00 767.00" xmlns="http://www.w3.org/2000/svg" xmlns:xlink="http://www.w3.org/1999/xlink">
<g id="graph0" class="graph" transform="scale(1 1) rotate(0) translate(4 763)">
<polygon fill="white" stroke="none" points="-4,4 -4,-763 2490,-763 2490,4 -4,4"/>
<!-- OnScreenIndicator_EscortButton_C -->
<g id="node1" class="node">
<title>OnScreenIndicator_EscortButton_C</title>
<polygon fill="#88ff88" stroke="black" points="0,-615.5 0,-758.5 850,-758.5 850,-615.5 0,-615.5"/>
<text text-anchor="start" x="8" y="-743.3" font-family="monospace" font-size="14.00">ClassExport: OnScreenIndicator_EscortButton_C</text>
<text text-anchor="start" x="8" y="-728.3" font-family="monospace" font-size="14.00">  SuperStruct: import /Script/FSD&#45;&gt;FSDInWorldWidget</text>
<text text-anchor="start" x="8" y="-713.3" font-family="monospace" font-size="14.00">  Properties:</text>
<text text-anchor="start" x="8" y="-698.3" font-family="monospace" font-size="14.00">    StructProperty UberGraphFrame</text>
<text text-anchor="start" x="8" y="-683.3" font-family="monospace" font-size="14.00">      CPF_Transient|CPF_DuplicateTransient</text>
<text text-anchor="start" x="8" y="-668.3" font-family="monospace" font-size="14.00">    ObjectProperty Image_Arrow</text>
<text text-anchor="start" x="8" y="-653.3" font-family="monospace" font-size="14.00">      CPF_BlueprintVisible|CPF_ExportObject|CPF_InstancedReference|CPF_RepSkip|CPF_PersistentInstance</text>
<text text-anchor="start" x="8" y="-638.3" font-family="monospace" font-size="14.00">    ObjectProperty Image_Icon</text>
<text text-anchor="start" x="8" y="-623.3" font-family="monospace" font-size="14.00">      CPF_BlueprintVisible|CPF_ExportObject|CPF_InstancedReference|CPF_RepSkip|CPF_PersistentInstance</text>
</g>
<!-- ExecuteUbergraph_OnScreenIndicator_EscortButton -->
<g id="node2" class="node">
<title>ExecuteUbergraph_OnScreenIndicator_EscortButton</title>
<polygon fill="#ff8888" stroke="black" points="868.5,-645.5 868.5,-728.5 1347.5,-728.5 1347.5,-645.5 868.5,-645.5"/>
<text text-anchor="start" x="876.5" y="-713.3" font-family="monospace" font-size="14.00">Function ExecuteUbergraph_OnScreenIndicator_EscortButton</text>
<text text-anchor="start" x="876.5" y="-698.3" font-family="monospace" font-size="14.00">  IntProperty EntryPoint</text>
<text text-anchor="start" x="876.5" y="-683.3" font-family="monospace" font-size="14.00">    CPF_BlueprintVisible|CPF_BlueprintReadOnly|CPF_Parm</text>
<text text-anchor="start" x="876.5" y="-668.3" font-family="monospace" font-size="14.00">  BoolProperty K2Node_Event_IsDesignTime</text>
<text text-anchor="start" x="876.5" y="-653.3" font-family="monospace" font-size="14.00">  StructProperty CallFunc_MenuColors_OutputColor</text>
</g>
<!-- ExecuteUbergraph_OnScreenIndicator_EscortButton__0 -->
<g id="node3" class="node">
<title>ExecuteUbergraph_OnScreenIndicator_EscortButton__0</title>
<polygon fill="#eeeeee" stroke="black" points="972,-540.5 972,-578.5 1244,-578.5 1244,-540.5 972,-540.5"/>
<text text-anchor="start" x="980" y="-563.3" font-family="monospace" font-size="14.00">EX_ComputedJump</text>
<text text-anchor="start" x="980" y="-548.3" font-family="monospace" font-size="14.00">  EX_LocalVariable [EntryPoint]</text>
</g>
<!-- ExecuteUbergraph_OnScreenIndicator_EscortButton&#45;&gt;ExecuteUbergraph_OnScreenIndicator_EscortButton__0 -->
<g id="edge1" class="edge">
<title>ExecuteUbergraph_OnScreenIndicator_EscortButton&#45;&gt;ExecuteUbergraph_OnScreenIndicator_EscortButton__0</title>
<path fill="none" stroke="black" d="M1108,-645.6C1108,-627.38 1108,-606.27 1108,-589.63"/>
<polygon fill="black" stroke="black" points="1111.5,-589.92 1108,-579.92 1104.5,-589.92 1111.5,-589.92"/>
</g>
<!-- ExecuteUbergraph_OnScreenIndicator_EscortButton__10 -->
<g id="node4" class="node">
<title>ExecuteUbergraph_OnScreenIndicator_EscortButton__10</title>
<polygon fill="#eeeeee" stroke="black" points="1683.5,-315.5 1683.5,-428.5 2442.5,-428.5 2442.5,-315.5 1683.5,-315.5"/>
<text text-anchor="start" x="1691.5" y="-413.3" font-family="monospace" font-size="14.00">EX_Context</text>
<text text-anchor="start" x="1691.5" y="-398.3" font-family="monospace" font-size="14.00">  EX_ObjectConst import /Game/UI/Art/WidgetParts/LIB_MenuColors&#45;&gt;Default__LIB_MenuColors_C</text>
<text text-anchor="start" x="1691.5" y="-383.3" font-family="monospace" font-size="14.00">  EX_LocalVirtualFunction MenuColors</text>
<text text-anchor="start" x="1691.5" y="-368.3" font-family="monospace" font-size="14.00">    EX_ByteConst 5</text>
<text text-anchor="start" x="1691.5" y="-353.3" font-family="monospace" font-size="14.00">    EX_Self</text>
<text text-anchor="start" x="1691.5" y="-338.3" font-family="monospace" font-size="14.00">    EX_LocalVariable [CallFunc_MenuColors_OutputColor]</text>
<text text-anchor="start" x="1691.5" y="-323.3" font-family="monospace" font-size="14.00">  RValue = []</text>
</g>
<!-- ExecuteUbergraph_OnScreenIndicator_EscortButton__58 -->
<g id="node5" class="node">
<title>ExecuteUbergraph_OnScreenIndicator_EscortButton__58</title>
<polygon fill="#eeeeee" stroke="black" points="1790.5,-195.5 1790.5,-278.5 2335.5,-278.5 2335.5,-195.5 1790.5,-195.5"/>
<text text-anchor="start" x="1798.5" y="-263.3" font-family="monospace" font-size="14.00">EX_Context</text>
<text text-anchor="start" x="1798.5" y="-248.3" font-family="monospace" font-size="14.00">  EX_InstanceVariable [Image_Icon]</text>
<text text-anchor="start" x="1798.5" y="-233.3" font-family="monospace" font-size="14.00">  EX_FinalFunction import /Script/UMG&#45;&gt;Image&#45;&gt;SetColorAndOpacity</text>
<text text-anchor="start" x="1798.5" y="-218.3" font-family="monospace" font-size="14.00">    EX_LocalVariable [CallFunc_MenuColors_OutputColor]</text>
<text text-anchor="start" x="1798.5" y="-203.3" font-family="monospace" font-size="14.00">  RValue = []</text>
</g>
<!-- ExecuteUbergraph_OnScreenIndicator_EscortButton__10&#45;&gt;ExecuteUbergraph_OnScreenIndicator_EscortButton__58 -->
<g id="edge2" class="edge">
<title>ExecuteUbergraph_OnScreenIndicator_EscortButton__10&#45;&gt;ExecuteUbergraph_OnScreenIndicator_EscortButton__58</title>
<path fill="none" stroke="black" d="M2063,-315.75C2063,-307.12 2063,-298.22 2063,-289.67"/>
<polygon fill="black" stroke="black" points="2066.5,-289.79 2063,-279.79 2059.5,-289.79 2066.5,-289.79"/>
</g>
<!-- ExecuteUbergraph_OnScreenIndicator_EscortButton__99 -->
<g id="node6" class="node">
<title>ExecuteUbergraph_OnScreenIndicator_EscortButton__99</title>
<polygon fill="#eeeeee" stroke="black" points="1790.5,-75.5 1790.5,-158.5 2335.5,-158.5 2335.5,-75.5 1790.5,-75.5"/>
<text text-anchor="start" x="1798.5" y="-143.3" font-family="monospace" font-size="14.00">EX_Context</text>
<text text-anchor="start" x="1798.5" y="-128.3" font-family="monospace" font-size="14.00">  EX_InstanceVariable [Image_Arrow]</text>
<text text-anchor="start" x="1798.5" y="-113.3" font-family="monospace" font-size="14.00">  EX_FinalFunction import /Script/UMG&#45;&gt;Image&#45;&gt;SetColorAndOpacity</text>
<text text-anchor="start" x="1798.5" y="-98.3" font-family="monospace" font-size="14.00">    EX_LocalVariable [CallFunc_MenuColors_OutputColor]</text>
<text text-anchor="start" x="1798.5" y="-83.3" font-family="monospace" font-size="14.00">  RValue = []</text>
</g>
<!-- ExecuteUbergraph_OnScreenIndicator_EscortButton__58&#45;&gt;ExecuteUbergraph_OnScreenIndicator_EscortButton__99 -->
<g id="edge3" class="edge">
<title>ExecuteUbergraph_OnScreenIndicator_EscortButton__58&#45;&gt;ExecuteUbergraph_OnScreenIndicator_EscortButton__99</title>
<path fill="none" stroke="black" d="M2063,-195.72C2063,-187.37 2063,-178.45 2063,-169.75"/>
<polygon fill="black" stroke="black" points="2066.5,-170.01 2063,-160.01 2059.5,-170.01 2066.5,-170.01"/>
</g>
<!-- ExecuteUbergraph_OnScreenIndicator_EscortButton__140 -->
<g id="node7" class="node">
<title>ExecuteUbergraph_OnScreenIndicator_EscortButton__140</title>
<polygon fill="#eeeeee" stroke="black" points="2005,-0.5 2005,-38.5 2121,-38.5 2121,-0.5 2005,-0.5"/>
<text text-anchor="start" x="2013" y="-23.3" font-family="monospace" font-size="14.00">EX_Return</text>
<text text-anchor="start" x="2013" y="-8.3" font-family="monospace" font-size="14.00">  EX_Nothing</text>
</g>
<!-- ExecuteUbergraph_OnScreenIndicator_EscortButton__99&#45;&gt;ExecuteUbergraph_OnScreenIndicator_EscortButton__140 -->
<g id="edge4" class="edge">
<title>ExecuteUbergraph_OnScreenIndicator_EscortButton__99&#45;&gt;ExecuteUbergraph_OnScreenIndicator_EscortButton__140</title>
<path fill="none" stroke="black" d="M2063,-75.78C2063,-67.01 2063,-57.89 2063,-49.65"/>
<polygon fill="black" stroke="black" points="2066.5,-49.86 2063,-39.86 2059.5,-49.86 2066.5,-49.86"/>
</g>
<!-- ExecuteUbergraph_OnScreenIndicator_EscortButton__142 -->
<g id="node8" class="node">
<title>ExecuteUbergraph_OnScreenIndicator_EscortButton__142</title>
<polygon fill="#eeeeee" stroke="black" points="2081,-466.5 2081,-502.5 2213,-502.5 2213,-466.5 2081,-466.5"/>
<text text-anchor="start" x="2089" y="-480.8" font-family="monospace" font-size="14.00">EX_EndOfScript</text>
</g>
<!-- PreConstruct -->
<g id="node9" class="node">
<title>PreConstruct</title>
<polygon fill="#ff8888" stroke="black" points="1366,-660.5 1366,-713.5 1836,-713.5 1836,-660.5 1366,-660.5"/>
<text text-anchor="start" x="1374" y="-698.3" font-family="monospace" font-size="14.00">Function PreConstruct</text>
<text text-anchor="start" x="1374" y="-683.3" font-family="monospace" font-size="14.00">  BoolProperty IsDesignTime</text>
<text text-anchor="start" x="1374" y="-668.3" font-family="monospace" font-size="14.00">    CPF_BlueprintVisible|CPF_BlueprintReadOnly|CPF_Parm</text>
</g>
<!-- PreConstruct__0 -->
<g id="node10" class="node">
<title>PreConstruct__0</title>
<polygon fill="#eeeeee" stroke="black" points="1361.5,-540.5 1361.5,-578.5 1840.5,-578.5 1840.5,-540.5 1361.5,-540.5"/>
<text text-anchor="start" x="1369.5" y="-563.3" font-family="monospace" font-size="14.00">EX_LetValueOnPersistentFrame [K2Node_Event_IsDesignTime]</text>
<text text-anchor="start" x="1369.5" y="-548.3" font-family="monospace" font-size="14.00">  EX_LocalVariable [IsDesignTime]</text>
</g>
<!-- PreConstruct&#45;&gt;PreConstruct__0 -->
<g id="edge5" class="edge">
<title>PreConstruct&#45;&gt;PreConstruct__0</title>
<path fill="none" stroke="black" d="M1601,-660.6C1601,-640.03 1601,-611.04 1601,-589.54"/>
<polygon fill="black" stroke="black" points="1604.5,-589.69 1601,-579.69 1597.5,-589.69 1604.5,-589.69"/>
</g>
<!-- PreConstruct__18 -->
<g id="node11" class="node">
<title>PreConstruct__18</title>
<polygon fill="#eeeeee" stroke="black" points="1139,-465.5 1139,-503.5 2063,-503.5 2063,-465.5 1139,-465.5"/>
<text text-anchor="start" x="1147" y="-488.3" font-family="monospace" font-size="14.00">EX_LocalFinalFunction export OnScreenIndicator_EscortButton_C&#45;&gt;ExecuteUbergraph_OnScreenIndicator_EscortButton</text>
<text text-anchor="start" x="1147" y="-473.3" font-family="monospace" font-size="14.00">  EX_IntConst 10</text>
</g>
<!-- PreConstruct__0&#45;&gt;PreConstruct__18 -->
<g id="edge6" class="edge">
<title>PreConstruct__0&#45;&gt;PreConstruct__18</title>
<path fill="none" stroke="black" d="M1601,-540.83C1601,-533 1601,-523.57 1601,-514.74"/>
<polygon fill="black" stroke="black" points="1604.5,-514.78 1601,-504.78 1597.5,-514.78 1604.5,-514.78"/>
</g>
<!-- PreConstruct__18&#45;&gt;ExecuteUbergraph_OnScreenIndicator_EscortButton__10 -->
<g id="edge7" class="edge">
<title>PreConstruct__18:e&#45;&gt;ExecuteUbergraph_OnScreenIndicator_EscortButton__10</title>
<path fill="none" stroke="red" d="M2064,-484.5C2069.37,-484.5 2069.9,-463.56 2068.77,-439.84"/>
<polygon fill="none" stroke="red" points="2072.27,-439.72 2068.21,-429.93 2065.28,-440.12 2072.27,-439.72"/>
</g>
<!-- PreConstruct__33 -->
<g id="node12" class="node">
<title>PreConstruct__33</title>
<polygon fill="#eeeeee" stroke="black" points="1543,-353 1543,-391 1659,-391 1659,-353 1543,-353"/>
<text text-anchor="start" x="1551" y="-375.8" font-family="monospace" font-size="14.00">EX_Return</text>
<text text-anchor="start" x="1551" y="-360.8" font-family="monospace" font-size="14.00">  EX_Nothing</text>
</g>
<!-- PreConstruct__18&#45;&gt;PreConstruct__33 -->
<g id="edge8" class="edge">
<title>PreConstruct__18&#45;&gt;PreConstruct__33</title>
<path fill="none" stroke="black" d="M1601,-465.75C1601,-448.59 1601,-422.3 1601,-402.08"/>
<polygon fill="black" stroke="black" points="1604.5,-402.22 1601,-392.22 1597.5,-402.22 1604.5,-402.22"/>
</g>
<!-- PreConstruct__35 -->
<g id="node13" class="node">
<title>PreConstruct__35</title>
<polygon fill="#eeeeee" stroke="black" points="2354,-219 2354,-255 2486,-255 2486,-219 2354,-219"/>
<text text-anchor="start" x="2362" y="-233.3" font-family="monospace" font-size="14.00">EX_EndOfScript</text>
</g>
</g>
</svg>
