<?xml version="1.0" encoding="UTF-8" standalone="no"?>
<!DOCTYPE svg PUBLIC "-//W3C//DTD SVG 1.1//EN"
 "http://www.w3.org/Graphics/SVG/1.1/DTD/svg11.dtd">
<!-- Generated by graphviz version 7.0.1 (0)
 -->
<!-- Pages: 1 -->
<svg width="3853pt" height="2113pt"
 viewBox="0.00 0.00 3853.00 2113.00" xmlns="http://www.w3.org/2000/svg" xmlns:xlink="http://www.w3.org/1999/xlink">
<g id="graph0" class="graph" transform="scale(1 1) rotate(0) translate(4 2109)">
<polygon fill="white" stroke="none" points="-4,4 -4,-2109 3849,-2109 3849,4 -4,4"/>
<!-- AIC_ShootingPlant_C -->
<g id="node1" class="node">
<title>AIC_ShootingPlant_C</title>
<polygon fill="#88ff88" stroke="black" points="0,-1916.5 0,-1999.5 429,-1999.5 429,-1916.5 0,-1916.5"/>
<text text-anchor="start" x="8" y="-1984.3" font-family="monospace" font-size="14.00">ClassExport: AIC_ShootingPlant_C</text>
<text text-anchor="start" x="8" y="-1969.3" font-family="monospace" font-size="14.00">  SuperStruct: import /Script/FSD&#45;&gt;FSDAIController</text>
<text text-anchor="start" x="8" y="-1954.3" font-family="monospace" font-size="14.00">  Properties:</text>
<text text-anchor="start" x="8" y="-1939.3" font-family="monospace" font-size="14.00">    StructProperty UberGraphFrame</text>
<text text-anchor="start" x="8" y="-1924.3" font-family="monospace" font-size="14.00">      CPF_Transient|CPF_DuplicateTransient</text>
</g>
<!-- ExecuteUbergraph_AIC_ShootingPlant -->
<g id="node2" class="node">
<title>ExecuteUbergraph_AIC_ShootingPlant</title>
<polygon fill="#ff8888" stroke="black" points="447.5,-1811.5 447.5,-2104.5 917.5,-2104.5 917.5,-1811.5 447.5,-1811.5"/>
<text text-anchor="start" x="455.5" y="-2089.3" font-family="monospace" font-size="14.00">Function ExecuteUbergraph_AIC_ShootingPlant</text>
<text text-anchor="start" x="455.5" y="-2074.3" font-family="monospace" font-size="14.00">  IntProperty EntryPoint</text>
<text text-anchor="start" x="455.5" y="-2059.3" font-family="monospace" font-size="14.00">    CPF_BlueprintVisible|CPF_BlueprintReadOnly|CPF_Parm</text>
<text text-anchor="start" x="455.5" y="-2044.3" font-family="monospace" font-size="14.00">  DelegateProperty K2Node_CreateDelegate_OutputDelegate</text>
<text text-anchor="start" x="455.5" y="-2029.3" font-family="monospace" font-size="14.00">  BoolProperty CallFunc_RunBehaviorTree_ReturnValue</text>
<text text-anchor="start" x="455.5" y="-2014.3" font-family="monospace" font-size="14.00">  NameProperty K2Node_Event_keyName</text>
<text text-anchor="start" x="455.5" y="-1999.3" font-family="monospace" font-size="14.00">    CPF_ConstParm</text>
<text text-anchor="start" x="455.5" y="-1984.3" font-family="monospace" font-size="14.00">  ObjectProperty CallFunc_K2_GetPawn_ReturnValue</text>
<text text-anchor="start" x="455.5" y="-1969.3" font-family="monospace" font-size="14.00">  NameProperty CallFunc_MakeLiteralName_ReturnValue</text>
<text text-anchor="start" x="455.5" y="-1954.3" font-family="monospace" font-size="14.00">  ObjectProperty K2Node_DynamicCast_AsShooting_Plant</text>
<text text-anchor="start" x="455.5" y="-1939.3" font-family="monospace" font-size="14.00">  BoolProperty K2Node_DynamicCast_bSuccess</text>
<text text-anchor="start" x="455.5" y="-1924.3" font-family="monospace" font-size="14.00">  ObjectProperty K2Node_CustomEvent_HealthComponent</text>
<text text-anchor="start" x="455.5" y="-1909.3" font-family="monospace" font-size="14.00">    CPF_InstancedReference</text>
<text text-anchor="start" x="455.5" y="-1894.3" font-family="monospace" font-size="14.00">  ObjectProperty CallFunc_GetValueAsObject_ReturnValue</text>
<text text-anchor="start" x="455.5" y="-1879.3" font-family="monospace" font-size="14.00">  ObjectProperty K2Node_DynamicCast_AsActor</text>
<text text-anchor="start" x="455.5" y="-1864.3" font-family="monospace" font-size="14.00">  BoolProperty K2Node_DynamicCast_bSuccess_1</text>
<text text-anchor="start" x="455.5" y="-1849.3" font-family="monospace" font-size="14.00">  ObjectProperty K2Node_Event_PossessedPawn</text>
<text text-anchor="start" x="455.5" y="-1834.3" font-family="monospace" font-size="14.00">  ObjectProperty K2Node_DynamicCast_AsShooting_Plant_1</text>
<text text-anchor="start" x="455.5" y="-1819.3" font-family="monospace" font-size="14.00">  BoolProperty K2Node_DynamicCast_bSuccess_2</text>
</g>
<!-- ExecuteUbergraph_AIC_ShootingPlant__0 -->
<g id="node3" class="node">
<title>ExecuteUbergraph_AIC_ShootingPlant__0</title>
<polygon fill="#eeeeee" stroke="black" points="546.5,-1692 546.5,-1730 818.5,-1730 818.5,-1692 546.5,-1692"/>
<text text-anchor="start" x="554.5" y="-1714.8" font-family="monospace" font-size="14.00">EX_ComputedJump</text>
<text text-anchor="start" x="554.5" y="-1699.8" font-family="monospace" font-size="14.00">  EX_LocalVariable [EntryPoint]</text>
</g>
<!-- ExecuteUbergraph_AIC_ShootingPlant&#45;&gt;ExecuteUbergraph_AIC_ShootingPlant__0 -->
<g id="edge1" class="edge">
<title>ExecuteUbergraph_AIC_ShootingPlant&#45;&gt;ExecuteUbergraph_AIC_ShootingPlant__0</title>
<path fill="none" stroke="black" d="M682.5,-1811.65C682.5,-1784.9 682.5,-1759.66 682.5,-1741.27"/>
<polygon fill="black" stroke="black" points="686,-1741.48 682.5,-1731.48 679,-1741.48 686,-1741.48"/>
</g>
<!-- ExecuteUbergraph_AIC_ShootingPlant__10 -->
<g id="node4" class="node">
<title>ExecuteUbergraph_AIC_ShootingPlant__10</title>
<polygon fill="#eeeeee" stroke="black" points="3102,-1540.5 3102,-1608.5 3845,-1608.5 3845,-1540.5 3102,-1540.5"/>
<text text-anchor="start" x="3110" y="-1593.3" font-family="monospace" font-size="14.00">EX_LetBool</text>
<text text-anchor="start" x="3110" y="-1578.3" font-family="monospace" font-size="14.00">  EX_LocalVariable [CallFunc_RunBehaviorTree_ReturnValue]</text>
<text text-anchor="start" x="3110" y="-1563.3" font-family="monospace" font-size="14.00">  EX_VirtualFunction RunBehaviorTree</text>
<text text-anchor="start" x="3110" y="-1548.3" font-family="monospace" font-size="14.00">    EX_ObjectConst import /Game/Enemies/ShootingPlant/BT_ShootingPlant&#45;&gt;BT_ShootingPlant</text>
</g>
<!-- ExecuteUbergraph_AIC_ShootingPlant__43 -->
<g id="node5" class="node">
<title>ExecuteUbergraph_AIC_ShootingPlant__43</title>
<polygon fill="#eeeeee" stroke="black" points="3162,-1391 3162,-1459 3781,-1459 3781,-1391 3162,-1391"/>
<text text-anchor="start" x="3170" y="-1443.8" font-family="monospace" font-size="14.00">EX_Let</text>
<text text-anchor="start" x="3170" y="-1428.8" font-family="monospace" font-size="14.00">  EX_LocalVariable [CallFunc_MakeLiteralName_ReturnValue]</text>
<text text-anchor="start" x="3170" y="-1413.8" font-family="monospace" font-size="14.00">  EX_CallMath import /Script/Engine&#45;&gt;KismetSystemLibrary&#45;&gt;MakeLiteralName</text>
<text text-anchor="start" x="3170" y="-1398.8" font-family="monospace" font-size="14.00">    EX_NameConst Target</text>
</g>
<!-- ExecuteUbergraph_AIC_ShootingPlant__10&#45;&gt;ExecuteUbergraph_AIC_ShootingPlant__43 -->
<g id="edge2" class="edge">
<title>ExecuteUbergraph_AIC_ShootingPlant__10&#45;&gt;ExecuteUbergraph_AIC_ShootingPlant__43</title>
<path fill="none" stroke="black" d="M3473.06,-1540.76C3472.77,-1520.02 3472.41,-1492.93 3472.1,-1470.28"/>
<polygon fill="black" stroke="black" points="3475.6,-1470.36 3471.97,-1460.41 3468.6,-1470.46 3475.6,-1470.36"/>
</g>
<!-- ExecuteUbergraph_AIC_ShootingPlant__84 -->
<g id="node6" class="node">
<title>ExecuteUbergraph_AIC_ShootingPlant__84</title>
<polygon fill="#eeeeee" stroke="black" points="3103.5,-1256.5 3103.5,-1294.5 3771.5,-1294.5 3771.5,-1256.5 3103.5,-1256.5"/>
<text text-anchor="start" x="3111.5" y="-1279.3" font-family="monospace" font-size="14.00">EX_FinalFunction import /Script/FSD&#45;&gt;FSDAIController&#45;&gt;RegisterBlackboardChanges</text>
<text text-anchor="start" x="3111.5" y="-1264.3" font-family="monospace" font-size="14.00">  EX_LocalVariable [CallFunc_MakeLiteralName_ReturnValue]</text>
</g>
<!-- ExecuteUbergraph_AIC_ShootingPlant__43&#45;&gt;ExecuteUbergraph_AIC_ShootingPlant__84 -->
<g id="edge3" class="edge">
<title>ExecuteUbergraph_AIC_ShootingPlant__43&#45;&gt;ExecuteUbergraph_AIC_ShootingPlant__84</title>
<path fill="none" stroke="black" d="M3459.29,-1391.22C3456.44,-1382.76 3453.62,-1373.61 3451.5,-1365 3446.68,-1345.46 3443.16,-1323.07 3440.85,-1305.7"/>
<polygon fill="black" stroke="black" points="3444.33,-1305.29 3439.6,-1295.81 3437.38,-1306.17 3444.33,-1305.29"/>
</g>
<!-- ExecuteUbergraph_AIC_ShootingPlant__103 -->
<g id="node7" class="node">
<title>ExecuteUbergraph_AIC_ShootingPlant__103</title>
<polygon fill="#eeeeee" stroke="black" points="3315,-932.5 3315,-968.5 3422,-968.5 3422,-932.5 3315,-932.5"/>
<text text-anchor="start" x="3323" y="-946.8" font-family="monospace" font-size="14.00">EX_Jump 637</text>
</g>
<!-- ExecuteUbergraph_AIC_ShootingPlant__84&#45;&gt;ExecuteUbergraph_AIC_ShootingPlant__103 -->
<g id="edge4" class="edge">
<title>ExecuteUbergraph_AIC_ShootingPlant__84&#45;&gt;ExecuteUbergraph_AIC_ShootingPlant__103</title>
<path fill="none" stroke="black" d="M3410.73,-1256.56C3399.97,-1247.81 3388.67,-1236.29 3382.5,-1223 3344.58,-1141.37 3355.39,-1030.69 3363.37,-979.54"/>
<polygon fill="black" stroke="black" points="3366.78,-980.36 3364.96,-969.93 3359.87,-979.22 3366.78,-980.36"/>
</g>
<!-- ExecuteUbergraph_AIC_ShootingPlant__637 -->
<g id="node26" class="node">
<title>ExecuteUbergraph_AIC_ShootingPlant__637</title>
<polygon fill="#eeeeee" stroke="black" points="2298.5,-0.5 2298.5,-38.5 2414.5,-38.5 2414.5,-0.5 2298.5,-0.5"/>
<text text-anchor="start" x="2306.5" y="-23.3" font-family="monospace" font-size="14.00">EX_Return</text>
<text text-anchor="start" x="2306.5" y="-8.3" font-family="monospace" font-size="14.00">  EX_Nothing</text>
</g>
<!-- ExecuteUbergraph_AIC_ShootingPlant__103&#45;&gt;ExecuteUbergraph_AIC_ShootingPlant__637 -->
<g id="edge5" class="edge">
<title>ExecuteUbergraph_AIC_ShootingPlant__103&#45;&gt;ExecuteUbergraph_AIC_ShootingPlant__637</title>
<path fill="none" stroke="black" d="M3364.64,-932.56C3359.63,-909.02 3351.5,-865 3351.5,-827 3351.5,-827 3351.5,-827 3351.5,-147 3351.5,-53.51 2651.22,-27.85 2425.63,-22.01"/>
<polygon fill="black" stroke="black" points="2425.89,-18.52 2415.81,-21.76 2425.72,-25.52 2425.89,-18.52"/>
</g>
<!-- ExecuteUbergraph_AIC_ShootingPlant__108 -->
<g id="node8" class="node">
<title>ExecuteUbergraph_AIC_ShootingPlant__108</title>
<polygon fill="#eeeeee" stroke="black" points="1460,-1398.5 1460,-1451.5 2005,-1451.5 2005,-1398.5 1460,-1398.5"/>
<text text-anchor="start" x="1468" y="-1436.3" font-family="monospace" font-size="14.00">EX_LetObj</text>
<text text-anchor="start" x="1468" y="-1421.3" font-family="monospace" font-size="14.00">  EX_LocalVariable [CallFunc_K2_GetPawn_ReturnValue]</text>
<text text-anchor="start" x="1468" y="-1406.3" font-family="monospace" font-size="14.00">  EX_FinalFunction import /Script/Engine&#45;&gt;Controller&#45;&gt;K2_GetPawn</text>
</g>
<!-- ExecuteUbergraph_AIC_ShootingPlant__128 -->
<g id="node9" class="node">
<title>ExecuteUbergraph_AIC_ShootingPlant__128</title>
<polygon fill="#eeeeee" stroke="black" points="1503,-1241.5 1503,-1309.5 1982,-1309.5 1982,-1241.5 1503,-1241.5"/>
<text text-anchor="start" x="1511" y="-1294.3" font-family="monospace" font-size="14.00">EX_Let</text>
<text text-anchor="start" x="1511" y="-1279.3" font-family="monospace" font-size="14.00">  EX_LocalVariable [K2Node_DynamicCast_AsShooting_Plant]</text>
<text text-anchor="start" x="1511" y="-1264.3" font-family="monospace" font-size="14.00">  EX_DynamicCast import /Script/FSD&#45;&gt;ShootingPlant</text>
<text text-anchor="start" x="1511" y="-1249.3" font-family="monospace" font-size="14.00">    EX_LocalVariable [CallFunc_K2_GetPawn_ReturnValue]</text>
</g>
<!-- ExecuteUbergraph_AIC_ShootingPlant__108&#45;&gt;ExecuteUbergraph_AIC_ShootingPlant__128 -->
<g id="edge6" class="edge">
<title>ExecuteUbergraph_AIC_ShootingPlant__108&#45;&gt;ExecuteUbergraph_AIC_ShootingPlant__128</title>
<path fill="none" stroke="black" d="M1734.22,-1398.64C1735.67,-1377.22 1737.79,-1346.03 1739.51,-1320.53"/>
<polygon fill="black" stroke="black" points="1742.99,-1321 1740.18,-1310.78 1736.01,-1320.52 1742.99,-1321"/>
</g>
<!-- ExecuteUbergraph_AIC_ShootingPlant__164 -->
<g id="node10" class="node">
<title>ExecuteUbergraph_AIC_ShootingPlant__164</title>
<polygon fill="#eeeeee" stroke="black" points="1536,-1099.5 1536,-1167.5 2031,-1167.5 2031,-1099.5 1536,-1099.5"/>
<text text-anchor="start" x="1544" y="-1152.3" font-family="monospace" font-size="14.00">EX_Let</text>
<text text-anchor="start" x="1544" y="-1137.3" font-family="monospace" font-size="14.00">  EX_LocalVariable [K2Node_DynamicCast_bSuccess]</text>
<text text-anchor="start" x="1544" y="-1122.3" font-family="monospace" font-size="14.00">  EX_PrimitiveCast ObjectToBool</text>
<text text-anchor="start" x="1544" y="-1107.3" font-family="monospace" font-size="14.00">    EX_LocalVariable [K2Node_DynamicCast_AsShooting_Plant]</text>
</g>
<!-- ExecuteUbergraph_AIC_ShootingPlant__128&#45;&gt;ExecuteUbergraph_AIC_ShootingPlant__164 -->
<g id="edge7" class="edge">
<title>ExecuteUbergraph_AIC_ShootingPlant__128&#45;&gt;ExecuteUbergraph_AIC_ShootingPlant__164</title>
<path fill="none" stroke="black" d="M1752.11,-1241.68C1757.66,-1222.72 1764.72,-1198.64 1770.73,-1178.1"/>
<polygon fill="black" stroke="black" points="1774.07,-1179.15 1773.52,-1168.57 1767.35,-1177.18 1774.07,-1179.15"/>
</g>
<!-- ExecuteUbergraph_AIC_ShootingPlant__193 -->
<g id="node11" class="node">
<title>ExecuteUbergraph_AIC_ShootingPlant__193</title>
<polygon fill="#eeeeee" stroke="black" points="1693,-987.5 1693,-1025.5 2106,-1025.5 2106,-987.5 1693,-987.5"/>
<text text-anchor="start" x="1701" y="-1010.3" font-family="monospace" font-size="14.00">EX_JumpIfNot 637</text>
<text text-anchor="start" x="1701" y="-995.3" font-family="monospace" font-size="14.00">  EX_LocalVariable [K2Node_DynamicCast_bSuccess]</text>
</g>
<!-- ExecuteUbergraph_AIC_ShootingPlant__164&#45;&gt;ExecuteUbergraph_AIC_ShootingPlant__193 -->
<g id="edge8" class="edge">
<title>ExecuteUbergraph_AIC_ShootingPlant__164&#45;&gt;ExecuteUbergraph_AIC_ShootingPlant__193</title>
<path fill="none" stroke="black" d="M1813.98,-1099.66C1833.07,-1079.08 1857.34,-1052.93 1875.15,-1033.74"/>
<polygon fill="black" stroke="black" points="1877.57,-1036.28 1881.8,-1026.57 1872.44,-1031.52 1877.57,-1036.28"/>
</g>
<!-- ExecuteUbergraph_AIC_ShootingPlant__207 -->
<g id="node12" class="node">
<title>ExecuteUbergraph_AIC_ShootingPlant__207</title>
<polygon fill="#eeeeee" stroke="black" points="1590,-845.5 1590,-913.5 2209,-913.5 2209,-845.5 1590,-845.5"/>
<text text-anchor="start" x="1598" y="-898.3" font-family="monospace" font-size="14.00">EX_Let</text>
<text text-anchor="start" x="1598" y="-883.3" font-family="monospace" font-size="14.00">  EX_LocalVariable [CallFunc_MakeLiteralName_ReturnValue]</text>
<text text-anchor="start" x="1598" y="-868.3" font-family="monospace" font-size="14.00">  EX_CallMath import /Script/Engine&#45;&gt;KismetSystemLibrary&#45;&gt;MakeLiteralName</text>
<text text-anchor="start" x="1598" y="-853.3" font-family="monospace" font-size="14.00">    EX_NameConst Target</text>
</g>
<!-- ExecuteUbergraph_AIC_ShootingPlant__193&#45;&gt;ExecuteUbergraph_AIC_ShootingPlant__207 -->
<g id="edge10" class="edge">
<title>ExecuteUbergraph_AIC_ShootingPlant__193&#45;&gt;ExecuteUbergraph_AIC_ShootingPlant__207</title>
<path fill="none" stroke="black" d="M1899.5,-987.59C1899.5,-971.22 1899.5,-946.35 1899.5,-924.69"/>
<polygon fill="black" stroke="black" points="1903,-924.9 1899.5,-914.9 1896,-924.9 1903,-924.9"/>
<text text-anchor="middle" x="1908" y="-946.8" font-family="monospace" font-size="14.00">IF</text>
</g>
<!-- ExecuteUbergraph_AIC_ShootingPlant__193&#45;&gt;ExecuteUbergraph_AIC_ShootingPlant__637 -->
<g id="edge9" class="edge">
<title>ExecuteUbergraph_AIC_ShootingPlant__193:e&#45;&gt;ExecuteUbergraph_AIC_ShootingPlant__637</title>
<path fill="none" stroke="red" d="M2107.5,-1006.5C2201.9,-1006.5 2278.5,-974.9 2278.5,-880.5 2278.5,-880.5 2278.5,-880.5 2278.5,-147 2278.5,-107.71 2306.11,-70.39 2328.47,-46.61"/>
<polygon fill="none" stroke="red" points="2330.87,-49.17 2335.36,-39.57 2325.86,-44.27 2330.87,-49.17"/>
<text text-anchor="middle" x="2303.5" y="-512.8" font-family="monospace" font-size="14.00">IF NOT</text>
</g>
<!-- ExecuteUbergraph_AIC_ShootingPlant__248 -->
<g id="node13" class="node">
<title>ExecuteUbergraph_AIC_ShootingPlant__248</title>
<polygon fill="#eeeeee" stroke="black" points="1549,-694.5 1549,-807.5 2250,-807.5 2250,-694.5 1549,-694.5"/>
<text text-anchor="start" x="1557" y="-792.3" font-family="monospace" font-size="14.00">EX_LetObj</text>
<text text-anchor="start" x="1557" y="-777.3" font-family="monospace" font-size="14.00">  EX_LocalVariable [CallFunc_GetValueAsObject_ReturnValue]</text>
<text text-anchor="start" x="1557" y="-762.3" font-family="monospace" font-size="14.00">  EX_Context</text>
<text text-anchor="start" x="1557" y="-747.3" font-family="monospace" font-size="14.00">    EX_InstanceVariable [Blackboard]</text>
<text text-anchor="start" x="1557" y="-732.3" font-family="monospace" font-size="14.00">    EX_FinalFunction import /Script/AIModule&#45;&gt;BlackboardComponent&#45;&gt;GetValueAsObject</text>
<text text-anchor="start" x="1557" y="-717.3" font-family="monospace" font-size="14.00">      EX_LocalVariable [CallFunc_MakeLiteralName_ReturnValue]</text>
<text text-anchor="start" x="1557" y="-702.3" font-family="monospace" font-size="14.00">    RValue = [CallFunc_GetValueAsObject_ReturnValue]</text>
</g>
<!-- ExecuteUbergraph_AIC_ShootingPlant__207&#45;&gt;ExecuteUbergraph_AIC_ShootingPlant__248 -->
<g id="edge11" class="edge">
<title>ExecuteUbergraph_AIC_ShootingPlant__207&#45;&gt;ExecuteUbergraph_AIC_ShootingPlant__248</title>
<path fill="none" stroke="black" d="M1899.5,-845.59C1899.5,-837.27 1899.5,-828.02 1899.5,-818.67"/>
<polygon fill="black" stroke="black" points="1903,-818.79 1899.5,-808.79 1896,-818.79 1903,-818.79"/>
</g>
<!-- ExecuteUbergraph_AIC_ShootingPlant__299 -->
<g id="node14" class="node">
<title>ExecuteUbergraph_AIC_ShootingPlant__299</title>
<polygon fill="#eeeeee" stroke="black" points="1645.5,-588.5 1645.5,-656.5 2157.5,-656.5 2157.5,-588.5 1645.5,-588.5"/>
<text text-anchor="start" x="1653.5" y="-641.3" font-family="monospace" font-size="14.00">EX_Let</text>
<text text-anchor="start" x="1653.5" y="-626.3" font-family="monospace" font-size="14.00">  EX_LocalVariable [K2Node_DynamicCast_AsActor]</text>
<text text-anchor="start" x="1653.5" y="-611.3" font-family="monospace" font-size="14.00">  EX_DynamicCast import /Script/Engine&#45;&gt;Actor</text>
<text text-anchor="start" x="1653.5" y="-596.3" font-family="monospace" font-size="14.00">    EX_LocalVariable [CallFunc_GetValueAsObject_ReturnValue]</text>
</g>
<!-- ExecuteUbergraph_AIC_ShootingPlant__248&#45;&gt;ExecuteUbergraph_AIC_ShootingPlant__299 -->
<g id="edge12" class="edge">
<title>ExecuteUbergraph_AIC_ShootingPlant__248&#45;&gt;ExecuteUbergraph_AIC_ShootingPlant__299</title>
<path fill="none" stroke="black" d="M1900.38,-694.52C1900.52,-685.57 1900.66,-676.41 1900.8,-667.78"/>
<polygon fill="black" stroke="black" points="1904.3,-667.96 1900.96,-657.91 1897.3,-667.85 1904.3,-667.96"/>
</g>
<!-- ExecuteUbergraph_AIC_ShootingPlant__335 -->
<g id="node15" class="node">
<title>ExecuteUbergraph_AIC_ShootingPlant__335</title>
<polygon fill="#eeeeee" stroke="black" points="1693,-482.5 1693,-550.5 2122,-550.5 2122,-482.5 1693,-482.5"/>
<text text-anchor="start" x="1701" y="-535.3" font-family="monospace" font-size="14.00">EX_Let</text>
<text text-anchor="start" x="1701" y="-520.3" font-family="monospace" font-size="14.00">  EX_LocalVariable [K2Node_DynamicCast_bSuccess_1]</text>
<text text-anchor="start" x="1701" y="-505.3" font-family="monospace" font-size="14.00">  EX_PrimitiveCast ObjectToBool</text>
<text text-anchor="start" x="1701" y="-490.3" font-family="monospace" font-size="14.00">    EX_LocalVariable [K2Node_DynamicCast_AsActor]</text>
</g>
<!-- ExecuteUbergraph_AIC_ShootingPlant__299&#45;&gt;ExecuteUbergraph_AIC_ShootingPlant__335 -->
<g id="edge13" class="edge">
<title>ExecuteUbergraph_AIC_ShootingPlant__299&#45;&gt;ExecuteUbergraph_AIC_ShootingPlant__335</title>
<path fill="none" stroke="black" d="M1903.4,-588.59C1903.9,-579.97 1904.44,-570.54 1904.96,-561.45"/>
<polygon fill="black" stroke="black" points="1908.44,-561.89 1905.53,-551.7 1901.46,-561.48 1908.44,-561.89"/>
</g>
<!-- ExecuteUbergraph_AIC_ShootingPlant__364 -->
<g id="node16" class="node">
<title>ExecuteUbergraph_AIC_ShootingPlant__364</title>
<polygon fill="#eeeeee" stroke="black" points="1703,-406.5 1703,-444.5 2132,-444.5 2132,-406.5 1703,-406.5"/>
<text text-anchor="start" x="1711" y="-429.3" font-family="monospace" font-size="14.00">EX_JumpIfNot 637</text>
<text text-anchor="start" x="1711" y="-414.3" font-family="monospace" font-size="14.00">  EX_LocalVariable [K2Node_DynamicCast_bSuccess_1]</text>
</g>
<!-- ExecuteUbergraph_AIC_ShootingPlant__335&#45;&gt;ExecuteUbergraph_AIC_ShootingPlant__364 -->
<g id="edge14" class="edge">
<title>ExecuteUbergraph_AIC_ShootingPlant__335&#45;&gt;ExecuteUbergraph_AIC_ShootingPlant__364</title>
<path fill="none" stroke="black" d="M1911.2,-482.61C1912.19,-473.79 1913.25,-464.32 1914.22,-455.72"/>
<polygon fill="black" stroke="black" points="1917.69,-456.12 1915.33,-445.79 1910.74,-455.34 1917.69,-456.12"/>
</g>
<!-- ExecuteUbergraph_AIC_ShootingPlant__378 -->
<g id="node17" class="node">
<title>ExecuteUbergraph_AIC_ShootingPlant__378</title>
<polygon fill="#eeeeee" stroke="black" points="1649.5,-271.5 1649.5,-354.5 2185.5,-354.5 2185.5,-271.5 1649.5,-271.5"/>
<text text-anchor="start" x="1657.5" y="-339.3" font-family="monospace" font-size="14.00">EX_Context</text>
<text text-anchor="start" x="1657.5" y="-324.3" font-family="monospace" font-size="14.00">  EX_LocalVariable [K2Node_DynamicCast_AsShooting_Plant]</text>
<text text-anchor="start" x="1657.5" y="-309.3" font-family="monospace" font-size="14.00">  EX_FinalFunction import /Script/FSD&#45;&gt;ShootingPlant&#45;&gt;SetTarget</text>
<text text-anchor="start" x="1657.5" y="-294.3" font-family="monospace" font-size="14.00">    EX_LocalVariable [K2Node_DynamicCast_AsActor]</text>
<text text-anchor="start" x="1657.5" y="-279.3" font-family="monospace" font-size="14.00">  RValue = []</text>
</g>
<!-- ExecuteUbergraph_AIC_ShootingPlant__364&#45;&gt;ExecuteUbergraph_AIC_ShootingPlant__378 -->
<g id="edge16" class="edge">
<title>ExecuteUbergraph_AIC_ShootingPlant__364&#45;&gt;ExecuteUbergraph_AIC_ShootingPlant__378</title>
<path fill="none" stroke="black" d="M1917.5,-406.75C1917.5,-395.47 1917.5,-380.24 1917.5,-365.39"/>
<polygon fill="black" stroke="black" points="1921,-365.69 1917.5,-355.69 1914,-365.69 1921,-365.69"/>
<text text-anchor="middle" x="1926" y="-376.8" font-family="monospace" font-size="14.00">IF</text>
</g>
<!-- ExecuteUbergraph_AIC_ShootingPlant__364&#45;&gt;ExecuteUbergraph_AIC_ShootingPlant__637 -->
<g id="edge15" class="edge">
<title>ExecuteUbergraph_AIC_ShootingPlant__364:e&#45;&gt;ExecuteUbergraph_AIC_ShootingPlant__637</title>
<path fill="none" stroke="red" d="M2133.5,-425.5C2174.93,-425.5 2176.8,-392.46 2194.5,-355 2217.03,-307.3 2203.02,-289.49 2214.5,-238 2232.67,-156.54 2208.76,-119.12 2264.5,-57 2271.17,-49.57 2279.55,-43.63 2288.53,-38.89"/>
<polygon fill="none" stroke="red" points="2289.93,-42.1 2297.49,-34.67 2286.95,-35.76 2289.93,-42.1"/>
<text text-anchor="middle" x="2239.5" y="-241.8" font-family="monospace" font-size="14.00">IF NOT</text>
</g>
<!-- ExecuteUbergraph_AIC_ShootingPlant__419 -->
<g id="node18" class="node">
<title>ExecuteUbergraph_AIC_ShootingPlant__419</title>
<polygon fill="#eeeeee" stroke="black" points="2024,-130 2024,-166 2131,-166 2131,-130 2024,-130"/>
<text text-anchor="start" x="2032" y="-144.3" font-family="monospace" font-size="14.00">EX_Jump 637</text>
</g>
<!-- ExecuteUbergraph_AIC_ShootingPlant__378&#45;&gt;ExecuteUbergraph_AIC_ShootingPlant__419 -->
<g id="edge17" class="edge">
<title>ExecuteUbergraph_AIC_ShootingPlant__378&#45;&gt;ExecuteUbergraph_AIC_ShootingPlant__419</title>
<path fill="none" stroke="black" d="M1957.05,-271.71C1987.15,-241.05 2027.61,-199.82 2053.13,-173.83"/>
<polygon fill="black" stroke="black" points="2055.6,-176.31 2060.11,-166.72 2050.61,-171.4 2055.6,-176.31"/>
</g>
<!-- ExecuteUbergraph_AIC_ShootingPlant__419&#45;&gt;ExecuteUbergraph_AIC_ShootingPlant__637 -->
<g id="edge18" class="edge">
<title>ExecuteUbergraph_AIC_ShootingPlant__419&#45;&gt;ExecuteUbergraph_AIC_ShootingPlant__637</title>
<path fill="none" stroke="black" d="M2095.4,-130.06C2117.92,-109.67 2158.63,-75.84 2199.5,-57 2227.09,-44.28 2259.53,-35.78 2287.73,-30.21"/>
<polygon fill="black" stroke="black" points="2288.04,-33.72 2297.23,-28.43 2286.75,-26.84 2288.04,-33.72"/>
</g>
<!-- ExecuteUbergraph_AIC_ShootingPlant__424 -->
<g id="node19" class="node">
<title>ExecuteUbergraph_AIC_ShootingPlant__424</title>
<polygon fill="#eeeeee" stroke="black" points="2222.5,-1383.5 2222.5,-1466.5 2552.5,-1466.5 2552.5,-1383.5 2222.5,-1383.5"/>
<text text-anchor="start" x="2230.5" y="-1451.3" font-family="monospace" font-size="14.00">EX_Context</text>
<text text-anchor="start" x="2230.5" y="-1436.3" font-family="monospace" font-size="14.00">  EX_InstanceVariable [BrainComponent]</text>
<text text-anchor="start" x="2230.5" y="-1421.3" font-family="monospace" font-size="14.00">  EX_VirtualFunction StopLogic</text>
<text text-anchor="start" x="2230.5" y="-1406.3" font-family="monospace" font-size="14.00">    EX_StringConst Death</text>
<text text-anchor="start" x="2230.5" y="-1391.3" font-family="monospace" font-size="14.00">  RValue = []</text>
</g>
<!-- ExecuteUbergraph_AIC_ShootingPlant__467 -->
<g id="node20" class="node">
<title>ExecuteUbergraph_AIC_ShootingPlant__467</title>
<polygon fill="#eeeeee" stroke="black" points="2320,-1044.5 2320,-1080.5 2427,-1080.5 2427,-1044.5 2320,-1044.5"/>
<text text-anchor="start" x="2328" y="-1058.8" font-family="monospace" font-size="14.00">EX_Jump 637</text>
</g>
<!-- ExecuteUbergraph_AIC_ShootingPlant__424&#45;&gt;ExecuteUbergraph_AIC_ShootingPlant__467 -->
<g id="edge19" class="edge">
<title>ExecuteUbergraph_AIC_ShootingPlant__424&#45;&gt;ExecuteUbergraph_AIC_ShootingPlant__467</title>
<path fill="none" stroke="black" d="M2385.93,-1383.7C2383.07,-1309.97 2377.06,-1155.15 2374.59,-1091.62"/>
<polygon fill="black" stroke="black" points="2378.09,-1091.55 2374.21,-1081.69 2371.1,-1091.82 2378.09,-1091.55"/>
</g>
<!-- ExecuteUbergraph_AIC_ShootingPlant__467&#45;&gt;ExecuteUbergraph_AIC_ShootingPlant__637 -->
<g id="edge20" class="edge">
<title>ExecuteUbergraph_AIC_ShootingPlant__467&#45;&gt;ExecuteUbergraph_AIC_ShootingPlant__637</title>
<path fill="none" stroke="black" d="M2369.3,-1044.85C2364.26,-1023.41 2356.5,-984.93 2356.5,-951.5 2356.5,-951.5 2356.5,-951.5 2356.5,-147 2356.5,-113.59 2356.5,-75.23 2356.5,-49.59"/>
<polygon fill="black" stroke="black" points="2360,-49.61 2356.5,-39.61 2353,-49.61 2360,-49.61"/>
</g>
<!-- ExecuteUbergraph_AIC_ShootingPlant__472 -->
<g id="node21" class="node">
<title>ExecuteUbergraph_AIC_ShootingPlant__472</title>
<polygon fill="#eeeeee" stroke="black" points="2824,-588.5 2824,-656.5 3319,-656.5 3319,-588.5 2824,-588.5"/>
<text text-anchor="start" x="2832" y="-641.3" font-family="monospace" font-size="14.00">EX_Let</text>
<text text-anchor="start" x="2832" y="-626.3" font-family="monospace" font-size="14.00">  EX_LocalVariable [K2Node_DynamicCast_AsShooting_Plant_1]</text>
<text text-anchor="start" x="2832" y="-611.3" font-family="monospace" font-size="14.00">  EX_DynamicCast import /Script/FSD&#45;&gt;ShootingPlant</text>
<text text-anchor="start" x="2832" y="-596.3" font-family="monospace" font-size="14.00">    EX_LocalVariable [K2Node_Event_PossessedPawn]</text>
</g>
<!-- ExecuteUbergraph_AIC_ShootingPlant__508 -->
<g id="node22" class="node">
<title>ExecuteUbergraph_AIC_ShootingPlant__508</title>
<polygon fill="#eeeeee" stroke="black" points="2723.5,-482.5 2723.5,-550.5 3235.5,-550.5 3235.5,-482.5 2723.5,-482.5"/>
<text text-anchor="start" x="2731.5" y="-535.3" font-family="monospace" font-size="14.00">EX_Let</text>
<text text-anchor="start" x="2731.5" y="-520.3" font-family="monospace" font-size="14.00">  EX_LocalVariable [K2Node_DynamicCast_bSuccess_2]</text>
<text text-anchor="start" x="2731.5" y="-505.3" font-family="monospace" font-size="14.00">  EX_PrimitiveCast ObjectToBool</text>
<text text-anchor="start" x="2731.5" y="-490.3" font-family="monospace" font-size="14.00">    EX_LocalVariable [K2Node_DynamicCast_AsShooting_Plant_1]</text>
</g>
<!-- ExecuteUbergraph_AIC_ShootingPlant__472&#45;&gt;ExecuteUbergraph_AIC_ShootingPlant__508 -->
<g id="edge21" class="edge">
<title>ExecuteUbergraph_AIC_ShootingPlant__472&#45;&gt;ExecuteUbergraph_AIC_ShootingPlant__508</title>
<path fill="none" stroke="black" d="M3042.39,-588.59C3034,-579.11 3024.75,-568.65 3015.97,-558.73"/>
<polygon fill="black" stroke="black" points="3018.67,-556.5 3009.42,-551.33 3013.43,-561.13 3018.67,-556.5"/>
</g>
<!-- ExecuteUbergraph_AIC_ShootingPlant__537 -->
<g id="node23" class="node">
<title>ExecuteUbergraph_AIC_ShootingPlant__537</title>
<polygon fill="#eeeeee" stroke="black" points="2511,-406.5 2511,-444.5 2940,-444.5 2940,-406.5 2511,-406.5"/>
<text text-anchor="start" x="2519" y="-429.3" font-family="monospace" font-size="14.00">EX_JumpIfNot 637</text>
<text text-anchor="start" x="2519" y="-414.3" font-family="monospace" font-size="14.00">  EX_LocalVariable [K2Node_DynamicCast_bSuccess_2]</text>
</g>
<!-- ExecuteUbergraph_AIC_ShootingPlant__508&#45;&gt;ExecuteUbergraph_AIC_ShootingPlant__537 -->
<g id="edge22" class="edge">
<title>ExecuteUbergraph_AIC_ShootingPlant__508&#45;&gt;ExecuteUbergraph_AIC_ShootingPlant__537</title>
<path fill="none" stroke="black" d="M2885.64,-482.61C2852.79,-471.1 2816.76,-458.48 2787.21,-448.12"/>
<polygon fill="black" stroke="black" points="2788.66,-444.92 2778.06,-444.92 2786.34,-451.53 2788.66,-444.92"/>
</g>
<!-- ExecuteUbergraph_AIC_ShootingPlant__551 -->
<g id="node24" class="node">
<title>ExecuteUbergraph_AIC_ShootingPlant__551</title>
<polygon fill="#eeeeee" stroke="black" points="2415,-286.5 2415,-339.5 2902,-339.5 2902,-286.5 2415,-286.5"/>
<text text-anchor="start" x="2423" y="-324.3" font-family="monospace" font-size="14.00">EX_BindDelegate OnDeath</text>
<text text-anchor="start" x="2423" y="-309.3" font-family="monospace" font-size="14.00">  EX_LocalVariable [K2Node_CreateDelegate_OutputDelegate]</text>
<text text-anchor="start" x="2423" y="-294.3" font-family="monospace" font-size="14.00">  EX_Self</text>
</g>
<!-- ExecuteUbergraph_AIC_ShootingPlant__537&#45;&gt;ExecuteUbergraph_AIC_ShootingPlant__551 -->
<g id="edge24" class="edge">
<title>ExecuteUbergraph_AIC_ShootingPlant__537&#45;&gt;ExecuteUbergraph_AIC_ShootingPlant__551</title>
<path fill="none" stroke="black" d="M2714.74,-406.75C2705.29,-391.16 2691.27,-368.04 2679.59,-348.78"/>
<polygon fill="black" stroke="black" points="2682.69,-347.15 2674.52,-340.42 2676.71,-350.78 2682.69,-347.15"/>
<text text-anchor="middle" x="2711" y="-376.8" font-family="monospace" font-size="14.00">IF</text>
</g>
<!-- ExecuteUbergraph_AIC_ShootingPlant__537&#45;&gt;ExecuteUbergraph_AIC_ShootingPlant__637 -->
<g id="edge23" class="edge">
<title>ExecuteUbergraph_AIC_ShootingPlant__537:e&#45;&gt;ExecuteUbergraph_AIC_ShootingPlant__637</title>
<path fill="none" stroke="red" d="M2941.5,-425.5C3097.09,-425.5 3029.27,-188.22 2921.5,-76 2887.74,-40.85 2568.95,-26.89 2425.66,-22.35"/>
<polygon fill="none" stroke="red" points="2426.03,-18.86 2415.93,-22.05 2425.81,-25.86 2426.03,-18.86"/>
<text text-anchor="middle" x="3046.5" y="-241.8" font-family="monospace" font-size="14.00">IF NOT</text>
</g>
<!-- ExecuteUbergraph_AIC_ShootingPlant__574 -->
<g id="node25" class="node">
<title>ExecuteUbergraph_AIC_ShootingPlant__574</title>
<polygon fill="#eeeeee" stroke="black" points="2384.5,-76.5 2384.5,-219.5 2912.5,-219.5 2912.5,-76.5 2384.5,-76.5"/>
<text text-anchor="start" x="2392.5" y="-204.3" font-family="monospace" font-size="14.00">EX_AddMulticastDelegate</text>
<text text-anchor="start" x="2392.5" y="-189.3" font-family="monospace" font-size="14.00">  EX_Context</text>
<text text-anchor="start" x="2392.5" y="-174.3" font-family="monospace" font-size="14.00">    EX_Context</text>
<text text-anchor="start" x="2392.5" y="-159.3" font-family="monospace" font-size="14.00">      EX_LocalVariable [K2Node_DynamicCast_AsShooting_Plant_1]</text>
<text text-anchor="start" x="2392.5" y="-144.3" font-family="monospace" font-size="14.00">      EX_InstanceVariable [Health]</text>
<text text-anchor="start" x="2392.5" y="-129.3" font-family="monospace" font-size="14.00">      RValue = [Health]</text>
<text text-anchor="start" x="2392.5" y="-114.3" font-family="monospace" font-size="14.00">    EX_InstanceVariable [OnDeath]</text>
<text text-anchor="start" x="2392.5" y="-99.3" font-family="monospace" font-size="14.00">    RValue = [OnDeath]</text>
<text text-anchor="start" x="2392.5" y="-84.3" font-family="monospace" font-size="14.00">  EX_LocalVariable [K2Node_CreateDelegate_OutputDelegate]</text>
</g>
<!-- ExecuteUbergraph_AIC_ShootingPlant__551&#45;&gt;ExecuteUbergraph_AIC_ShootingPlant__574 -->
<g id="edge25" class="edge">
<title>ExecuteUbergraph_AIC_ShootingPlant__551&#45;&gt;ExecuteUbergraph_AIC_ShootingPlant__574</title>
<path fill="none" stroke="black" d="M2656.94,-286.53C2656,-271.27 2654.75,-250.93 2653.51,-230.58"/>
<polygon fill="black" stroke="black" points="2657.01,-230.59 2652.91,-220.82 2650.03,-231.02 2657.01,-230.59"/>
</g>
<!-- ExecuteUbergraph_AIC_ShootingPlant__574&#45;&gt;ExecuteUbergraph_AIC_ShootingPlant__637 -->
<g id="edge26" class="edge">
<title>ExecuteUbergraph_AIC_ShootingPlant__574&#45;&gt;ExecuteUbergraph_AIC_ShootingPlant__637</title>
<path fill="none" stroke="black" d="M2485.85,-76.54C2457.83,-64.4 2430.64,-52.62 2408.47,-43.02"/>
<polygon fill="black" stroke="black" points="2409.97,-39.85 2399.4,-39.09 2407.19,-46.27 2409.97,-39.85"/>
</g>
<!-- ExecuteUbergraph_AIC_ShootingPlant__639 -->
<g id="node27" class="node">
<title>ExecuteUbergraph_AIC_ShootingPlant__639</title>
<polygon fill="#eeeeee" stroke="black" points="3133.5,-1756.5 3133.5,-1792.5 3265.5,-1792.5 3265.5,-1756.5 3133.5,-1756.5"/>
<text text-anchor="start" x="3141.5" y="-1770.8" font-family="monospace" font-size="14.00">EX_EndOfScript</text>
</g>
<!-- StartBehavior -->
<g id="node28" class="node">
<title>StartBehavior</title>
<polygon fill="#ff8888" stroke="black" points="3019.5,-1940 3019.5,-1976 3217.5,-1976 3217.5,-1940 3019.5,-1940"/>
<text text-anchor="start" x="3027.5" y="-1954.3" font-family="monospace" font-size="14.00">Function StartBehavior</text>
</g>
<!-- StartBehavior__0 -->
<g id="node29" class="node">
<title>StartBehavior__0</title>
<polygon fill="#eeeeee" stroke="black" points="2763.5,-1692 2763.5,-1730 3473.5,-1730 3473.5,-1692 2763.5,-1692"/>
<text text-anchor="start" x="2771.5" y="-1714.8" font-family="monospace" font-size="14.00">EX_LocalFinalFunction export AIC_ShootingPlant_C&#45;&gt;ExecuteUbergraph_AIC_ShootingPlant</text>
<text text-anchor="start" x="2771.5" y="-1699.8" font-family="monospace" font-size="14.00">  EX_IntConst 10</text>
</g>
<!-- StartBehavior&#45;&gt;StartBehavior__0 -->
<g id="edge27" class="edge">
<title>StartBehavior&#45;&gt;StartBehavior__0</title>
<path fill="none" stroke="black" d="M3118.5,-1940.16C3118.5,-1899.02 3118.5,-1793.02 3118.5,-1741.28"/>
<polygon fill="black" stroke="black" points="3122,-1741.46 3118.5,-1731.46 3115,-1741.46 3122,-1741.46"/>
</g>
<!-- StartBehavior__0&#45;&gt;ExecuteUbergraph_AIC_ShootingPlant__10 -->
<g id="edge28" class="edge">
<title>StartBehavior__0:e&#45;&gt;ExecuteUbergraph_AIC_ShootingPlant__10</title>
<path fill="none" stroke="red" d="M3474.5,-1711C3493.13,-1711 3488.33,-1659.15 3481.95,-1619.59"/>
<polygon fill="none" stroke="red" points="3485.41,-1619.07 3480.29,-1609.79 3478.51,-1620.24 3485.41,-1619.07"/>
</g>
<!-- StartBehavior__15 -->
<g id="node30" class="node">
<title>StartBehavior__15</title>
<polygon fill="#eeeeee" stroke="black" points="2967.5,-1555.5 2967.5,-1593.5 3083.5,-1593.5 3083.5,-1555.5 2967.5,-1555.5"/>
<text text-anchor="start" x="2975.5" y="-1578.3" font-family="monospace" font-size="14.00">EX_Return</text>
<text text-anchor="start" x="2975.5" y="-1563.3" font-family="monospace" font-size="14.00">  EX_Nothing</text>
</g>
<!-- StartBehavior__0&#45;&gt;StartBehavior__15 -->
<g id="edge29" class="edge">
<title>StartBehavior__0&#45;&gt;StartBehavior__15</title>
<path fill="none" stroke="black" d="M3106.15,-1692.14C3090.31,-1669.23 3062.68,-1629.27 3044.24,-1602.6"/>
<polygon fill="black" stroke="black" points="3047.33,-1600.91 3038.76,-1594.68 3041.57,-1604.9 3047.33,-1600.91"/>
</g>
<!-- StartBehavior__17 -->
<g id="node31" class="node">
<title>StartBehavior__17</title>
<polygon fill="#eeeeee" stroke="black" points="3488.5,-1628.5 3488.5,-1664.5 3620.5,-1664.5 3620.5,-1628.5 3488.5,-1628.5"/>
<text text-anchor="start" x="3496.5" y="-1642.8" font-family="monospace" font-size="14.00">EX_EndOfScript</text>
</g>
<!-- ReceivePossess -->
<g id="node32" class="node">
<title>ReceivePossess</title>
<polygon fill="#ff8888" stroke="black" points="2500.5,-1931.5 2500.5,-1984.5 2970.5,-1984.5 2970.5,-1931.5 2500.5,-1931.5"/>
<text text-anchor="start" x="2508.5" y="-1969.3" font-family="monospace" font-size="14.00">Function ReceivePossess</text>
<text text-anchor="start" x="2508.5" y="-1954.3" font-family="monospace" font-size="14.00">  ObjectProperty PossessedPawn</text>
<text text-anchor="start" x="2508.5" y="-1939.3" font-family="monospace" font-size="14.00">    CPF_BlueprintVisible|CPF_BlueprintReadOnly|CPF_Parm</text>
</g>
<!-- ReceivePossess__0 -->
<g id="node33" class="node">
<title>ReceivePossess__0</title>
<polygon fill="#eeeeee" stroke="black" points="2492,-1627.5 2492,-1665.5 2979,-1665.5 2979,-1627.5 2492,-1627.5"/>
<text text-anchor="start" x="2500" y="-1650.3" font-family="monospace" font-size="14.00">EX_LetValueOnPersistentFrame [K2Node_Event_PossessedPawn]</text>
<text text-anchor="start" x="2500" y="-1635.3" font-family="monospace" font-size="14.00">  EX_LocalVariable [PossessedPawn]</text>
</g>
<!-- ReceivePossess&#45;&gt;ReceivePossess__0 -->
<g id="edge30" class="edge">
<title>ReceivePossess&#45;&gt;ReceivePossess__0</title>
<path fill="none" stroke="black" d="M2735.5,-1931.67C2735.5,-1874.81 2735.5,-1737.27 2735.5,-1676.82"/>
<polygon fill="black" stroke="black" points="2739,-1676.99 2735.5,-1666.99 2732,-1676.99 2739,-1676.99"/>
</g>
<!-- ReceivePossess__18 -->
<g id="node34" class="node">
<title>ReceivePossess__18</title>
<polygon fill="#eeeeee" stroke="black" points="2384.5,-732 2384.5,-770 3094.5,-770 3094.5,-732 2384.5,-732"/>
<text text-anchor="start" x="2392.5" y="-754.8" font-family="monospace" font-size="14.00">EX_LocalFinalFunction export AIC_ShootingPlant_C&#45;&gt;ExecuteUbergraph_AIC_ShootingPlant</text>
<text text-anchor="start" x="2392.5" y="-739.8" font-family="monospace" font-size="14.00">  EX_IntConst 472</text>
</g>
<!-- ReceivePossess__0&#45;&gt;ReceivePossess__18 -->
<g id="edge31" class="edge">
<title>ReceivePossess__0&#45;&gt;ReceivePossess__18</title>
<path fill="none" stroke="black" d="M2736.12,-1627.7C2737,-1600.95 2738.5,-1548.82 2738.5,-1504.5 2738.5,-1504.5 2738.5,-1504.5 2738.5,-878.5 2738.5,-845.09 2738.85,-806.72 2739.14,-781.09"/>
<polygon fill="black" stroke="black" points="2742.64,-781.15 2739.26,-771.11 2735.64,-781.07 2742.64,-781.15"/>
</g>
<!-- ReceivePossess__18&#45;&gt;ExecuteUbergraph_AIC_ShootingPlant__472 -->
<g id="edge32" class="edge">
<title>ReceivePossess__18:e&#45;&gt;ExecuteUbergraph_AIC_ShootingPlant__472</title>
<path fill="none" stroke="red" d="M3095.5,-751C3130.71,-751 3113.97,-703.47 3095.6,-666.45"/>
<polygon fill="none" stroke="red" points="3098.79,-664.98 3091.11,-657.68 3092.56,-668.18 3098.79,-664.98"/>
</g>
<!-- ReceivePossess__33 -->
<g id="node35" class="node">
<title>ReceivePossess__33</title>
<polygon fill="#eeeeee" stroke="black" points="2681.5,-603.5 2681.5,-641.5 2797.5,-641.5 2797.5,-603.5 2681.5,-603.5"/>
<text text-anchor="start" x="2689.5" y="-626.3" font-family="monospace" font-size="14.00">EX_Return</text>
<text text-anchor="start" x="2689.5" y="-611.3" font-family="monospace" font-size="14.00">  EX_Nothing</text>
</g>
<!-- ReceivePossess__18&#45;&gt;ReceivePossess__33 -->
<g id="edge33" class="edge">
<title>ReceivePossess__18&#45;&gt;ReceivePossess__33</title>
<path fill="none" stroke="black" d="M2739.5,-732.14C2739.5,-711.52 2739.5,-677.28 2739.5,-652.75"/>
<polygon fill="black" stroke="black" points="2743,-652.78 2739.5,-642.78 2736,-652.78 2743,-652.78"/>
</g>
<!-- ReceivePossess__35 -->
<g id="node36" class="node">
<title>ReceivePossess__35</title>
<polygon fill="#eeeeee" stroke="black" points="3487.5,-1485.5 3487.5,-1521.5 3619.5,-1521.5 3619.5,-1485.5 3487.5,-1485.5"/>
<text text-anchor="start" x="3495.5" y="-1499.8" font-family="monospace" font-size="14.00">EX_EndOfScript</text>
</g>
<!-- OnDeath -->
<g id="node37" class="node">
<title>OnDeath</title>
<polygon fill="#ff8888" stroke="black" points="1787.5,-1931.5 1787.5,-1984.5 2447.5,-1984.5 2447.5,-1931.5 1787.5,-1931.5"/>
<text text-anchor="start" x="1795.5" y="-1969.3" font-family="monospace" font-size="14.00">Function OnDeath</text>
<text text-anchor="start" x="1795.5" y="-1954.3" font-family="monospace" font-size="14.00">  ObjectProperty HealthComponent</text>
<text text-anchor="start" x="1795.5" y="-1939.3" font-family="monospace" font-size="14.00">    CPF_BlueprintVisible|CPF_BlueprintReadOnly|CPF_Parm|CPF_InstancedReference</text>
</g>
<!-- OnDeath__0 -->
<g id="node38" class="node">
<title>OnDeath__0</title>
<polygon fill="#eeeeee" stroke="black" points="1836,-1692 1836,-1730 2389,-1730 2389,-1692 1836,-1692"/>
<text text-anchor="start" x="1844" y="-1714.8" font-family="monospace" font-size="14.00">EX_LetValueOnPersistentFrame [K2Node_CustomEvent_HealthComponent]</text>
<text text-anchor="start" x="1844" y="-1699.8" font-family="monospace" font-size="14.00">  EX_LocalVariable [HealthComponent]</text>
</g>
<!-- OnDeath&#45;&gt;OnDeath__0 -->
<g id="edge34" class="edge">
<title>OnDeath&#45;&gt;OnDeath__0</title>
<path fill="none" stroke="black" d="M2116.98,-1931.7C2116.05,-1885.94 2114.09,-1789.68 2113.1,-1741.2"/>
<polygon fill="black" stroke="black" points="2116.6,-1741.41 2112.9,-1731.48 2109.6,-1741.55 2116.6,-1741.41"/>
</g>
<!-- OnDeath__18 -->
<g id="node39" class="node">
<title>OnDeath__18</title>
<polygon fill="#eeeeee" stroke="black" points="1738.5,-1555.5 1738.5,-1593.5 2448.5,-1593.5 2448.5,-1555.5 1738.5,-1555.5"/>
<text text-anchor="start" x="1746.5" y="-1578.3" font-family="monospace" font-size="14.00">EX_LocalFinalFunction export AIC_ShootingPlant_C&#45;&gt;ExecuteUbergraph_AIC_ShootingPlant</text>
<text text-anchor="start" x="1746.5" y="-1563.3" font-family="monospace" font-size="14.00">  EX_IntConst 424</text>
</g>
<!-- OnDeath__0&#45;&gt;OnDeath__18 -->
<g id="edge35" class="edge">
<title>OnDeath__0&#45;&gt;OnDeath__18</title>
<path fill="none" stroke="black" d="M2109.98,-1692.14C2106.83,-1669.83 2101.39,-1631.36 2097.63,-1604.73"/>
<polygon fill="black" stroke="black" points="2101.11,-1604.35 2096.25,-1594.93 2094.18,-1605.32 2101.11,-1604.35"/>
</g>
<!-- OnDeath__18&#45;&gt;ExecuteUbergraph_AIC_ShootingPlant__424 -->
<g id="edge36" class="edge">
<title>OnDeath__18:e&#45;&gt;ExecuteUbergraph_AIC_ShootingPlant__424</title>
<path fill="none" stroke="red" d="M2449.5,-1574.5C2493.45,-1574.5 2459.97,-1518.43 2427.63,-1475.19"/>
<polygon fill="none" stroke="red" points="2430.54,-1473.23 2421.69,-1467.39 2424.97,-1477.47 2430.54,-1473.23"/>
</g>
<!-- OnDeath__33 -->
<g id="node40" class="node">
<title>OnDeath__33</title>
<polygon fill="#eeeeee" stroke="black" points="2035.5,-1406 2035.5,-1444 2151.5,-1444 2151.5,-1406 2035.5,-1406"/>
<text text-anchor="start" x="2043.5" y="-1428.8" font-family="monospace" font-size="14.00">EX_Return</text>
<text text-anchor="start" x="2043.5" y="-1413.8" font-family="monospace" font-size="14.00">  EX_Nothing</text>
</g>
<!-- OnDeath__18&#45;&gt;OnDeath__33 -->
<g id="edge37" class="edge">
<title>OnDeath__18&#45;&gt;OnDeath__33</title>
<path fill="none" stroke="black" d="M2093.5,-1555.71C2093.5,-1530.79 2093.5,-1485.2 2093.5,-1455.25"/>
<polygon fill="black" stroke="black" points="2097,-1455.37 2093.5,-1445.37 2090,-1455.37 2097,-1455.37"/>
</g>
<!-- OnDeath__35 -->
<g id="node41" class="node">
<title>OnDeath__35</title>
<polygon fill="#eeeeee" stroke="black" points="3452.5,-1328.5 3452.5,-1364.5 3584.5,-1364.5 3584.5,-1328.5 3452.5,-1328.5"/>
<text text-anchor="start" x="3460.5" y="-1342.8" font-family="monospace" font-size="14.00">EX_EndOfScript</text>
</g>
<!-- Recieve_BlackboardValueChanged -->
<g id="node42" class="node">
<title>Recieve_BlackboardValueChanged</title>
<polygon fill="#ff8888" stroke="black" points="936,-1931.5 936,-1984.5 1769,-1984.5 1769,-1931.5 936,-1931.5"/>
<text text-anchor="start" x="944" y="-1969.3" font-family="monospace" font-size="14.00">Function Recieve_BlackboardValueChanged</text>
<text text-anchor="start" x="944" y="-1954.3" font-family="monospace" font-size="14.00">  NameProperty keyName</text>
<text text-anchor="start" x="944" y="-1939.3" font-family="monospace" font-size="14.00">    CPF_ConstParm|CPF_BlueprintVisible|CPF_BlueprintReadOnly|CPF_Parm|CPF_OutParm|CPF_ReferenceParm</text>
</g>
<!-- Recieve_BlackboardValueChanged__0 -->
<g id="node43" class="node">
<title>Recieve_BlackboardValueChanged__0</title>
<polygon fill="#eeeeee" stroke="black" points="1135,-1684.5 1135,-1737.5 1572,-1737.5 1572,-1684.5 1135,-1684.5"/>
<text text-anchor="start" x="1143" y="-1722.3" font-family="monospace" font-size="14.00">EX_LetValueOnPersistentFrame [K2Node_Event_keyName]</text>
<text text-anchor="start" x="1143" y="-1707.3" font-family="monospace" font-size="14.00">  EX_LocalOutVariable</text>
<text text-anchor="start" x="1143" y="-1692.3" font-family="monospace" font-size="14.00">    [keyName]</text>
</g>
<!-- Recieve_BlackboardValueChanged&#45;&gt;Recieve_BlackboardValueChanged__0 -->
<g id="edge38" class="edge">
<title>Recieve_BlackboardValueChanged&#45;&gt;Recieve_BlackboardValueChanged__0</title>
<path fill="none" stroke="black" d="M1352.6,-1931.7C1352.78,-1888.13 1353.15,-1798.75 1353.35,-1748.46"/>
<polygon fill="black" stroke="black" points="1356.85,-1748.69 1353.39,-1738.67 1349.85,-1748.66 1356.85,-1748.69"/>
</g>
<!-- Recieve_BlackboardValueChanged__18 -->
<g id="node44" class="node">
<title>Recieve_BlackboardValueChanged__18</title>
<polygon fill="#eeeeee" stroke="black" points="1008.5,-1555.5 1008.5,-1593.5 1718.5,-1593.5 1718.5,-1555.5 1008.5,-1555.5"/>
<text text-anchor="start" x="1016.5" y="-1578.3" font-family="monospace" font-size="14.00">EX_LocalFinalFunction export AIC_ShootingPlant_C&#45;&gt;ExecuteUbergraph_AIC_ShootingPlant</text>
<text text-anchor="start" x="1016.5" y="-1563.3" font-family="monospace" font-size="14.00">  EX_IntConst 108</text>
</g>
<!-- Recieve_BlackboardValueChanged__0&#45;&gt;Recieve_BlackboardValueChanged__18 -->
<g id="edge39" class="edge">
<title>Recieve_BlackboardValueChanged__0&#45;&gt;Recieve_BlackboardValueChanged__18</title>
<path fill="none" stroke="black" d="M1355.38,-1684.7C1357.07,-1661.92 1359.56,-1628.44 1361.34,-1604.56"/>
<polygon fill="black" stroke="black" points="1364.81,-1605.12 1362.06,-1594.89 1357.83,-1604.6 1364.81,-1605.12"/>
</g>
<!-- Recieve_BlackboardValueChanged__18&#45;&gt;ExecuteUbergraph_AIC_ShootingPlant__108 -->
<g id="edge40" class="edge">
<title>Recieve_BlackboardValueChanged__18:e&#45;&gt;ExecuteUbergraph_AIC_ShootingPlant__108</title>
<path fill="none" stroke="red" d="M1719.5,-1574.5C1725.1,-1574.5 1729.07,-1506.58 1731.06,-1462.61"/>
<polygon fill="none" stroke="red" points="1734.55,-1462.85 1731.49,-1452.7 1727.56,-1462.54 1734.55,-1462.85"/>
</g>
<!-- Recieve_BlackboardValueChanged__33 -->
<g id="node45" class="node">
<title>Recieve_BlackboardValueChanged__33</title>
<polygon fill="#eeeeee" stroke="black" points="1305.5,-1406 1305.5,-1444 1421.5,-1444 1421.5,-1406 1305.5,-1406"/>
<text text-anchor="start" x="1313.5" y="-1428.8" font-family="monospace" font-size="14.00">EX_Return</text>
<text text-anchor="start" x="1313.5" y="-1413.8" font-family="monospace" font-size="14.00">  EX_Nothing</text>
</g>
<!-- Recieve_BlackboardValueChanged__18&#45;&gt;Recieve_BlackboardValueChanged__33 -->
<g id="edge41" class="edge">
<title>Recieve_BlackboardValueChanged__18&#45;&gt;Recieve_BlackboardValueChanged__33</title>
<path fill="none" stroke="black" d="M1363.5,-1555.71C1363.5,-1530.79 1363.5,-1485.2 1363.5,-1455.25"/>
<polygon fill="black" stroke="black" points="1367,-1455.37 1363.5,-1445.37 1360,-1455.37 1367,-1455.37"/>
</g>
<!-- Recieve_BlackboardValueChanged__35 -->
<g id="node46" class="node">
<title>Recieve_BlackboardValueChanged__35</title>
<polygon fill="#eeeeee" stroke="black" points="3383.5,-1186.5 3383.5,-1222.5 3515.5,-1222.5 3515.5,-1186.5 3383.5,-1186.5"/>
<text text-anchor="start" x="3391.5" y="-1200.8" font-family="monospace" font-size="14.00">EX_EndOfScript</text>
</g>
</g>
</svg>
