<?xml version="1.0" encoding="UTF-8" standalone="no"?>
<!DOCTYPE svg PUBLIC "-//W3C//DTD SVG 1.1//EN"
 "http://www.w3.org/Graphics/SVG/1.1/DTD/svg11.dtd">
<!-- Generated by graphviz version 7.0.1 (0)
 -->
<!-- Pages: 1 -->
<svg width="2391pt" height="1528pt"
 viewBox="0.00 0.00 2390.50 1528.00" xmlns="http://www.w3.org/2000/svg" xmlns:xlink="http://www.w3.org/1999/xlink">
<g id="graph0" class="graph" transform="scale(1 1) rotate(0) translate(4 1524)">
<polygon fill="white" stroke="none" points="-4,4 -4,-1524 2386.5,-1524 2386.5,4 -4,4"/>
<!-- APB_ShootingPlant_C -->
<g id="node1" class="node">
<title>APB_ShootingPlant_C</title>
<polygon fill="#88ff88" stroke="black" points="0,-1076.5 0,-1519.5 734,-1519.5 734,-1076.5 0,-1076.5"/>
<text text-anchor="start" x="8" y="-1504.3" font-family="monospace" font-size="14.00">ClassExport: APB_ShootingPlant_C</text>
<text text-anchor="start" x="8" y="-1489.3" font-family="monospace" font-size="14.00">  SuperStruct: import /Script/FSD&#45;&gt;ShootingPlantAnimInstance</text>
<text text-anchor="start" x="8" y="-1474.3" font-family="monospace" font-size="14.00">  Properties:</text>
<text text-anchor="start" x="8" y="-1459.3" font-family="monospace" font-size="14.00">    StructProperty UberGraphFrame</text>
<text text-anchor="start" x="8" y="-1444.3" font-family="monospace" font-size="14.00">      CPF_Transient|CPF_DuplicateTransient</text>
<text text-anchor="start" x="8" y="-1429.3" font-family="monospace" font-size="14.00">    StructProperty AnimGraphNode_Root</text>
<text text-anchor="start" x="8" y="-1414.3" font-family="monospace" font-size="14.00">    StructProperty AnimGraphNode_TransitionResult_3</text>
<text text-anchor="start" x="8" y="-1399.3" font-family="monospace" font-size="14.00">    StructProperty AnimGraphNode_TransitionResult_2</text>
<text text-anchor="start" x="8" y="-1384.3" font-family="monospace" font-size="14.00">    StructProperty AnimGraphNode_BlendSpaceEvaluator_1</text>
<text text-anchor="start" x="8" y="-1369.3" font-family="monospace" font-size="14.00">    StructProperty AnimGraphNode_StateResult_3</text>
<text text-anchor="start" x="8" y="-1354.3" font-family="monospace" font-size="14.00">    StructProperty AnimGraphNode_BlendSpaceEvaluator</text>
<text text-anchor="start" x="8" y="-1339.3" font-family="monospace" font-size="14.00">    StructProperty AnimGraphNode_StateResult_2</text>
<text text-anchor="start" x="8" y="-1324.3" font-family="monospace" font-size="14.00">    StructProperty AnimGraphNode_StateMachine_1</text>
<text text-anchor="start" x="8" y="-1309.3" font-family="monospace" font-size="14.00">    StructProperty AnimGraphNode_ApplyAdditive</text>
<text text-anchor="start" x="8" y="-1294.3" font-family="monospace" font-size="14.00">    StructProperty AnimGraphNode_SequencePlayer_3</text>
<text text-anchor="start" x="8" y="-1279.3" font-family="monospace" font-size="14.00">    StructProperty AnimGraphNode_Slot_1</text>
<text text-anchor="start" x="8" y="-1264.3" font-family="monospace" font-size="14.00">    StructProperty AnimGraphNode_Slot</text>
<text text-anchor="start" x="8" y="-1249.3" font-family="monospace" font-size="14.00">    StructProperty AnimGraphNode_BlendListByBool_1</text>
<text text-anchor="start" x="8" y="-1234.3" font-family="monospace" font-size="14.00">    StructProperty AnimGraphNode_SequencePlayer_2</text>
<text text-anchor="start" x="8" y="-1219.3" font-family="monospace" font-size="14.00">    StructProperty AnimGraphNode_BlendListByBool</text>
<text text-anchor="start" x="8" y="-1204.3" font-family="monospace" font-size="14.00">    StructProperty AnimGraphNode_TransitionResult_1</text>
<text text-anchor="start" x="8" y="-1189.3" font-family="monospace" font-size="14.00">    StructProperty AnimGraphNode_TransitionResult</text>
<text text-anchor="start" x="8" y="-1174.3" font-family="monospace" font-size="14.00">    StructProperty AnimGraphNode_SequencePlayer_1</text>
<text text-anchor="start" x="8" y="-1159.3" font-family="monospace" font-size="14.00">    StructProperty AnimGraphNode_StateResult_1</text>
<text text-anchor="start" x="8" y="-1144.3" font-family="monospace" font-size="14.00">    StructProperty AnimGraphNode_SequencePlayer</text>
<text text-anchor="start" x="8" y="-1129.3" font-family="monospace" font-size="14.00">    StructProperty AnimGraphNode_StateResult</text>
<text text-anchor="start" x="8" y="-1114.3" font-family="monospace" font-size="14.00">    StructProperty AnimGraphNode_StateMachine</text>
<text text-anchor="start" x="8" y="-1099.3" font-family="monospace" font-size="14.00">    ObjectProperty ShootingPlant</text>
<text text-anchor="start" x="8" y="-1084.3" font-family="monospace" font-size="14.00">      CPF_Edit|CPF_BlueprintVisible|CPF_DisableEditOnTemplate|CPF_DisableEditOnInstance</text>
</g>
<!-- ExecuteUbergraph_APB_ShootingPlant -->
<g id="node2" class="node">
<title>ExecuteUbergraph_APB_ShootingPlant</title>
<polygon fill="#ff8888" stroke="black" points="752.5,-1241.5 752.5,-1354.5 1231.5,-1354.5 1231.5,-1241.5 752.5,-1241.5"/>
<text text-anchor="start" x="760.5" y="-1339.3" font-family="monospace" font-size="14.00">Function ExecuteUbergraph_APB_ShootingPlant</text>
<text text-anchor="start" x="760.5" y="-1324.3" font-family="monospace" font-size="14.00">  IntProperty EntryPoint</text>
<text text-anchor="start" x="760.5" y="-1309.3" font-family="monospace" font-size="14.00">    CPF_BlueprintVisible|CPF_BlueprintReadOnly|CPF_Parm</text>
<text text-anchor="start" x="760.5" y="-1294.3" font-family="monospace" font-size="14.00">  ObjectProperty CallFunc_TryGetPawnOwner_ReturnValue</text>
<text text-anchor="start" x="760.5" y="-1279.3" font-family="monospace" font-size="14.00">  ObjectProperty K2Node_DynamicCast_AsENE_Shooting_Plant</text>
<text text-anchor="start" x="760.5" y="-1264.3" font-family="monospace" font-size="14.00">  BoolProperty K2Node_DynamicCast_bSuccess</text>
<text text-anchor="start" x="760.5" y="-1249.3" font-family="monospace" font-size="14.00">  BoolProperty CallFunc_IsValid_ReturnValue</text>
</g>
<!-- ExecuteUbergraph_APB_ShootingPlant__0 -->
<g id="node3" class="node">
<title>ExecuteUbergraph_APB_ShootingPlant__0</title>
<polygon fill="#eeeeee" stroke="black" points="856,-942 856,-980 1128,-980 1128,-942 856,-942"/>
<text text-anchor="start" x="864" y="-964.8" font-family="monospace" font-size="14.00">EX_ComputedJump</text>
<text text-anchor="start" x="864" y="-949.8" font-family="monospace" font-size="14.00">  EX_LocalVariable [EntryPoint]</text>
</g>
<!-- ExecuteUbergraph_APB_ShootingPlant&#45;&gt;ExecuteUbergraph_APB_ShootingPlant__0 -->
<g id="edge1" class="edge">
<title>ExecuteUbergraph_APB_ShootingPlant&#45;&gt;ExecuteUbergraph_APB_ShootingPlant__0</title>
<path fill="none" stroke="black" d="M992,-1241.68C992,-1169.81 992,-1046.93 992,-991.12"/>
<polygon fill="black" stroke="black" points="995.5,-991.17 992,-981.17 988.5,-991.17 995.5,-991.17"/>
</g>
<!-- ExecuteUbergraph_APB_ShootingPlant__10 -->
<g id="node4" class="node">
<title>ExecuteUbergraph_APB_ShootingPlant__10</title>
<polygon fill="#eeeeee" stroke="black" points="1612.5,-792.5 1612.5,-845.5 2099.5,-845.5 2099.5,-792.5 1612.5,-792.5"/>
<text text-anchor="start" x="1620.5" y="-830.3" font-family="monospace" font-size="14.00">EX_LetObj</text>
<text text-anchor="start" x="1620.5" y="-815.3" font-family="monospace" font-size="14.00">  EX_LocalVariable [CallFunc_TryGetPawnOwner_ReturnValue]</text>
<text text-anchor="start" x="1620.5" y="-800.3" font-family="monospace" font-size="14.00">  EX_VirtualFunction TryGetPawnOwner</text>
</g>
<!-- ExecuteUbergraph_APB_ShootingPlant__34 -->
<g id="node5" class="node">
<title>ExecuteUbergraph_APB_ShootingPlant__34</title>
<polygon fill="#eeeeee" stroke="black" points="1579.5,-650.5 1579.5,-718.5 2132.5,-718.5 2132.5,-650.5 1579.5,-650.5"/>
<text text-anchor="start" x="1587.5" y="-703.3" font-family="monospace" font-size="14.00">EX_LetBool</text>
<text text-anchor="start" x="1587.5" y="-688.3" font-family="monospace" font-size="14.00">  EX_LocalVariable [CallFunc_IsValid_ReturnValue]</text>
<text text-anchor="start" x="1587.5" y="-673.3" font-family="monospace" font-size="14.00">  EX_CallMath import /Script/Engine&#45;&gt;KismetSystemLibrary&#45;&gt;IsValid</text>
<text text-anchor="start" x="1587.5" y="-658.3" font-family="monospace" font-size="14.00">    EX_LocalVariable [CallFunc_TryGetPawnOwner_ReturnValue]</text>
</g>
<!-- ExecuteUbergraph_APB_ShootingPlant__10&#45;&gt;ExecuteUbergraph_APB_ShootingPlant__34 -->
<g id="edge2" class="edge">
<title>ExecuteUbergraph_APB_ShootingPlant__10&#45;&gt;ExecuteUbergraph_APB_ShootingPlant__34</title>
<path fill="none" stroke="black" d="M1856,-792.77C1856,-774.9 1856,-750.47 1856,-729.44"/>
<polygon fill="black" stroke="black" points="1859.5,-729.69 1856,-719.69 1852.5,-729.69 1859.5,-729.69"/>
</g>
<!-- ExecuteUbergraph_APB_ShootingPlant__63 -->
<g id="node6" class="node">
<title>ExecuteUbergraph_APB_ShootingPlant__63</title>
<polygon fill="#eeeeee" stroke="black" points="1645.5,-574.5 1645.5,-612.5 2066.5,-612.5 2066.5,-574.5 1645.5,-574.5"/>
<text text-anchor="start" x="1653.5" y="-597.3" font-family="monospace" font-size="14.00">EX_JumpIfNot 199</text>
<text text-anchor="start" x="1653.5" y="-582.3" font-family="monospace" font-size="14.00">  EX_LocalVariable [CallFunc_IsValid_ReturnValue]</text>
</g>
<!-- ExecuteUbergraph_APB_ShootingPlant__34&#45;&gt;ExecuteUbergraph_APB_ShootingPlant__63 -->
<g id="edge3" class="edge">
<title>ExecuteUbergraph_APB_ShootingPlant__34&#45;&gt;ExecuteUbergraph_APB_ShootingPlant__63</title>
<path fill="none" stroke="black" d="M1856,-650.61C1856,-641.79 1856,-632.32 1856,-623.72"/>
<polygon fill="black" stroke="black" points="1859.5,-623.8 1856,-613.8 1852.5,-623.8 1859.5,-623.8"/>
</g>
<!-- ExecuteUbergraph_APB_ShootingPlant__77 -->
<g id="node7" class="node">
<title>ExecuteUbergraph_APB_ShootingPlant__77</title>
<polygon fill="#eeeeee" stroke="black" points="1532.5,-469.5 1532.5,-522.5 2019.5,-522.5 2019.5,-469.5 1532.5,-469.5"/>
<text text-anchor="start" x="1540.5" y="-507.3" font-family="monospace" font-size="14.00">EX_LetObj</text>
<text text-anchor="start" x="1540.5" y="-492.3" font-family="monospace" font-size="14.00">  EX_LocalVariable [CallFunc_TryGetPawnOwner_ReturnValue]</text>
<text text-anchor="start" x="1540.5" y="-477.3" font-family="monospace" font-size="14.00">  EX_VirtualFunction TryGetPawnOwner</text>
</g>
<!-- ExecuteUbergraph_APB_ShootingPlant__63&#45;&gt;ExecuteUbergraph_APB_ShootingPlant__77 -->
<g id="edge5" class="edge">
<title>ExecuteUbergraph_APB_ShootingPlant__63&#45;&gt;ExecuteUbergraph_APB_ShootingPlant__77</title>
<path fill="none" stroke="black" d="M1840.95,-574.54C1830.76,-562.37 1816.96,-545.9 1804.71,-531.27"/>
<polygon fill="black" stroke="black" points="1807.4,-529.03 1798.29,-523.61 1802.03,-533.52 1807.4,-529.03"/>
<text text-anchor="middle" x="1832.5" y="-544.8" font-family="monospace" font-size="14.00">IF</text>
</g>
<!-- ExecuteUbergraph_APB_ShootingPlant__199 -->
<g id="node12" class="node">
<title>ExecuteUbergraph_APB_ShootingPlant__199</title>
<polygon fill="#eeeeee" stroke="black" points="1944,-0.5 1944,-38.5 2060,-38.5 2060,-0.5 1944,-0.5"/>
<text text-anchor="start" x="1952" y="-23.3" font-family="monospace" font-size="14.00">EX_Return</text>
<text text-anchor="start" x="1952" y="-8.3" font-family="monospace" font-size="14.00">  EX_Nothing</text>
</g>
<!-- ExecuteUbergraph_APB_ShootingPlant__63&#45;&gt;ExecuteUbergraph_APB_ShootingPlant__199 -->
<g id="edge4" class="edge">
<title>ExecuteUbergraph_APB_ShootingPlant__63:e&#45;&gt;ExecuteUbergraph_APB_ShootingPlant__199</title>
<path fill="none" stroke="red" d="M2068,-593.5C2111.34,-593.5 2082,-540.34 2082,-497 2082,-497 2082,-497 2082,-102 2082,-78.15 2064.33,-58.71 2045.6,-44.81"/>
<polygon fill="none" stroke="red" points="2047.85,-42.11 2037.64,-39.3 2043.87,-47.87 2047.85,-42.11"/>
<text text-anchor="middle" x="2107" y="-287.8" font-family="monospace" font-size="14.00">IF NOT</text>
</g>
<!-- ExecuteUbergraph_APB_ShootingPlant__101 -->
<g id="node8" class="node">
<title>ExecuteUbergraph_APB_ShootingPlant__101</title>
<polygon fill="#eeeeee" stroke="black" points="1294.5,-363.5 1294.5,-431.5 2053.5,-431.5 2053.5,-363.5 1294.5,-363.5"/>
<text text-anchor="start" x="1302.5" y="-416.3" font-family="monospace" font-size="14.00">EX_Let</text>
<text text-anchor="start" x="1302.5" y="-401.3" font-family="monospace" font-size="14.00">  EX_LocalVariable [K2Node_DynamicCast_AsENE_Shooting_Plant]</text>
<text text-anchor="start" x="1302.5" y="-386.3" font-family="monospace" font-size="14.00">  EX_DynamicCast import /Game/Enemies/ShootingPlant/ENE_ShootingPlant&#45;&gt;ENE_ShootingPlant_C</text>
<text text-anchor="start" x="1302.5" y="-371.3" font-family="monospace" font-size="14.00">    EX_LocalVariable [CallFunc_TryGetPawnOwner_ReturnValue]</text>
</g>
<!-- ExecuteUbergraph_APB_ShootingPlant__77&#45;&gt;ExecuteUbergraph_APB_ShootingPlant__101 -->
<g id="edge6" class="edge">
<title>ExecuteUbergraph_APB_ShootingPlant__77&#45;&gt;ExecuteUbergraph_APB_ShootingPlant__101</title>
<path fill="none" stroke="black" d="M1749.2,-469.65C1739.32,-460.3 1727.87,-449.46 1716.92,-439.11"/>
<polygon fill="black" stroke="black" points="1719.46,-436.69 1709.79,-432.36 1714.65,-441.77 1719.46,-436.69"/>
</g>
<!-- ExecuteUbergraph_APB_ShootingPlant__137 -->
<g id="node9" class="node">
<title>ExecuteUbergraph_APB_ShootingPlant__137</title>
<polygon fill="#eeeeee" stroke="black" points="1424,-257.5 1424,-325.5 1952,-325.5 1952,-257.5 1424,-257.5"/>
<text text-anchor="start" x="1432" y="-310.3" font-family="monospace" font-size="14.00">EX_Let</text>
<text text-anchor="start" x="1432" y="-295.3" font-family="monospace" font-size="14.00">  EX_LocalVariable [K2Node_DynamicCast_bSuccess]</text>
<text text-anchor="start" x="1432" y="-280.3" font-family="monospace" font-size="14.00">  EX_PrimitiveCast ObjectToBool</text>
<text text-anchor="start" x="1432" y="-265.3" font-family="monospace" font-size="14.00">    EX_LocalVariable [K2Node_DynamicCast_AsENE_Shooting_Plant]</text>
</g>
<!-- ExecuteUbergraph_APB_ShootingPlant__101&#45;&gt;ExecuteUbergraph_APB_ShootingPlant__137 -->
<g id="edge7" class="edge">
<title>ExecuteUbergraph_APB_ShootingPlant__101&#45;&gt;ExecuteUbergraph_APB_ShootingPlant__137</title>
<path fill="none" stroke="black" d="M1678.43,-363.59C1679.59,-354.97 1680.86,-345.54 1682.08,-336.45"/>
<polygon fill="black" stroke="black" points="1685.53,-337.07 1683.4,-326.69 1678.59,-336.14 1685.53,-337.07"/>
</g>
<!-- ExecuteUbergraph_APB_ShootingPlant__166 -->
<g id="node10" class="node">
<title>ExecuteUbergraph_APB_ShootingPlant__166</title>
<polygon fill="#eeeeee" stroke="black" points="1503.5,-181.5 1503.5,-219.5 1916.5,-219.5 1916.5,-181.5 1503.5,-181.5"/>
<text text-anchor="start" x="1511.5" y="-204.3" font-family="monospace" font-size="14.00">EX_JumpIfNot 199</text>
<text text-anchor="start" x="1511.5" y="-189.3" font-family="monospace" font-size="14.00">  EX_LocalVariable [K2Node_DynamicCast_bSuccess]</text>
</g>
<!-- ExecuteUbergraph_APB_ShootingPlant__137&#45;&gt;ExecuteUbergraph_APB_ShootingPlant__166 -->
<g id="edge8" class="edge">
<title>ExecuteUbergraph_APB_ShootingPlant__137&#45;&gt;ExecuteUbergraph_APB_ShootingPlant__166</title>
<path fill="none" stroke="black" d="M1696.13,-257.61C1698.33,-248.69 1700.7,-239.1 1702.85,-230.42"/>
<polygon fill="black" stroke="black" points="1706.24,-231.31 1705.24,-220.76 1699.44,-229.63 1706.24,-231.31"/>
</g>
<!-- ExecuteUbergraph_APB_ShootingPlant__180 -->
<g id="node11" class="node">
<title>ExecuteUbergraph_APB_ShootingPlant__180</title>
<polygon fill="#eeeeee" stroke="black" points="1454,-76.5 1454,-129.5 1966,-129.5 1966,-76.5 1454,-76.5"/>
<text text-anchor="start" x="1462" y="-114.3" font-family="monospace" font-size="14.00">EX_LetObj</text>
<text text-anchor="start" x="1462" y="-99.3" font-family="monospace" font-size="14.00">  EX_InstanceVariable [ShootingPlant]</text>
<text text-anchor="start" x="1462" y="-84.3" font-family="monospace" font-size="14.00">  EX_LocalVariable [K2Node_DynamicCast_AsENE_Shooting_Plant]</text>
</g>
<!-- ExecuteUbergraph_APB_ShootingPlant__166&#45;&gt;ExecuteUbergraph_APB_ShootingPlant__180 -->
<g id="edge10" class="edge">
<title>ExecuteUbergraph_APB_ShootingPlant__166&#45;&gt;ExecuteUbergraph_APB_ShootingPlant__180</title>
<path fill="none" stroke="black" d="M1710,-181.54C1710,-170.06 1710,-154.75 1710,-140.77"/>
<polygon fill="black" stroke="black" points="1713.5,-140.96 1710,-130.96 1706.5,-140.96 1713.5,-140.96"/>
<text text-anchor="middle" x="1718.5" y="-151.8" font-family="monospace" font-size="14.00">IF</text>
</g>
<!-- ExecuteUbergraph_APB_ShootingPlant__166&#45;&gt;ExecuteUbergraph_APB_ShootingPlant__199 -->
<g id="edge9" class="edge">
<title>ExecuteUbergraph_APB_ShootingPlant__166:e&#45;&gt;ExecuteUbergraph_APB_ShootingPlant__199</title>
<path fill="none" stroke="red" d="M1918,-200.5C1983.77,-200.5 1998.16,-100.6 2001.23,-49.65"/>
<polygon fill="none" stroke="red" points="2004.71,-50.09 2001.7,-39.93 1997.72,-49.75 2004.71,-50.09"/>
<text text-anchor="middle" x="2024" y="-99.3" font-family="monospace" font-size="14.00">IF NOT</text>
</g>
<!-- ExecuteUbergraph_APB_ShootingPlant__180&#45;&gt;ExecuteUbergraph_APB_ShootingPlant__199 -->
<g id="edge11" class="edge">
<title>ExecuteUbergraph_APB_ShootingPlant__180&#45;&gt;ExecuteUbergraph_APB_ShootingPlant__199</title>
<path fill="none" stroke="black" d="M1801.19,-76.55C1843.77,-64.66 1893.63,-50.75 1933.02,-39.75"/>
<polygon fill="black" stroke="black" points="1933.95,-43.13 1942.64,-37.07 1932.06,-36.39 1933.95,-43.13"/>
</g>
<!-- ExecuteUbergraph_APB_ShootingPlant__201 -->
<g id="node13" class="node">
<title>ExecuteUbergraph_APB_ShootingPlant__201</title>
<polygon fill="#eeeeee" stroke="black" points="1773,-1021.5 1773,-1057.5 1905,-1057.5 1905,-1021.5 1773,-1021.5"/>
<text text-anchor="start" x="1781" y="-1035.8" font-family="monospace" font-size="14.00">EX_EndOfScript</text>
</g>
<!-- BlueprintInitializeAnimation -->
<g id="node14" class="node">
<title>BlueprintInitializeAnimation</title>
<polygon fill="#ff8888" stroke="black" points="1340,-1280 1340,-1316 1662,-1316 1662,-1280 1340,-1280"/>
<text text-anchor="start" x="1348" y="-1294.3" font-family="monospace" font-size="14.00">Function BlueprintInitializeAnimation</text>
</g>
<!-- BlueprintInitializeAnimation__0 -->
<g id="node15" class="node">
<title>BlueprintInitializeAnimation__0</title>
<polygon fill="#eeeeee" stroke="black" points="1146,-942 1146,-980 1856,-980 1856,-942 1146,-942"/>
<text text-anchor="start" x="1154" y="-964.8" font-family="monospace" font-size="14.00">EX_LocalFinalFunction export APB_ShootingPlant_C&#45;&gt;ExecuteUbergraph_APB_ShootingPlant</text>
<text text-anchor="start" x="1154" y="-949.8" font-family="monospace" font-size="14.00">  EX_IntConst 10</text>
</g>
<!-- BlueprintInitializeAnimation&#45;&gt;BlueprintInitializeAnimation__0 -->
<g id="edge12" class="edge">
<title>BlueprintInitializeAnimation&#45;&gt;BlueprintInitializeAnimation__0</title>
<path fill="none" stroke="black" d="M1501,-1280.39C1501,-1226.96 1501,-1059.07 1501,-991.05"/>
<polygon fill="black" stroke="black" points="1504.5,-991.44 1501,-981.44 1497.5,-991.44 1504.5,-991.44"/>
</g>
<!-- BlueprintInitializeAnimation__0&#45;&gt;ExecuteUbergraph_APB_ShootingPlant__10 -->
<g id="edge13" class="edge">
<title>BlueprintInitializeAnimation__0:e&#45;&gt;ExecuteUbergraph_APB_ShootingPlant__10</title>
<path fill="none" stroke="red" d="M1857,-961C1899.02,-961 1884.24,-897.6 1869.94,-855.83"/>
<polygon fill="none" stroke="red" points="1873.32,-854.88 1866.66,-846.63 1866.72,-857.23 1873.32,-854.88"/>
</g>
<!-- BlueprintInitializeAnimation__15 -->
<g id="node16" class="node">
<title>BlueprintInitializeAnimation__15</title>
<polygon fill="#eeeeee" stroke="black" points="1443,-800 1443,-838 1559,-838 1559,-800 1443,-800"/>
<text text-anchor="start" x="1451" y="-822.8" font-family="monospace" font-size="14.00">EX_Return</text>
<text text-anchor="start" x="1451" y="-807.8" font-family="monospace" font-size="14.00">  EX_Nothing</text>
</g>
<!-- BlueprintInitializeAnimation__0&#45;&gt;BlueprintInitializeAnimation__15 -->
<g id="edge14" class="edge">
<title>BlueprintInitializeAnimation__0&#45;&gt;BlueprintInitializeAnimation__15</title>
<path fill="none" stroke="black" d="M1501,-942.27C1501,-918.81 1501,-877.16 1501,-849.06"/>
<polygon fill="black" stroke="black" points="1504.5,-849.1 1501,-839.1 1497.5,-849.1 1504.5,-849.1"/>
</g>
<!-- BlueprintInitializeAnimation__17 -->
<g id="node17" class="node">
<title>BlueprintInitializeAnimation__17</title>
<polygon fill="#eeeeee" stroke="black" points="1950,-864.5 1950,-900.5 2082,-900.5 2082,-864.5 1950,-864.5"/>
<text text-anchor="start" x="1958" y="-878.8" font-family="monospace" font-size="14.00">EX_EndOfScript</text>
</g>
<!-- AnimGraph -->
<g id="node18" class="node">
<title>AnimGraph</title>
<polygon fill="#ff8888" stroke="black" points="2060.5,-1271.5 2060.5,-1324.5 2291.5,-1324.5 2291.5,-1271.5 2060.5,-1271.5"/>
<text text-anchor="start" x="2068.5" y="-1309.3" font-family="monospace" font-size="14.00">Function AnimGraph</text>
<text text-anchor="start" x="2068.5" y="-1294.3" font-family="monospace" font-size="14.00">  StructProperty AnimGraph</text>
<text text-anchor="start" x="2068.5" y="-1279.3" font-family="monospace" font-size="14.00">    CPF_Parm|CPF_OutParm</text>
</g>
<!-- AnimGraph__0 -->
<g id="node19" class="node">
<title>AnimGraph__0</title>
<polygon fill="#eeeeee" stroke="black" points="1969.5,-919.5 1969.5,-1002.5 2382.5,-1002.5 2382.5,-919.5 1969.5,-919.5"/>
<text text-anchor="start" x="1977.5" y="-987.3" font-family="monospace" font-size="14.00">EX_Let</text>
<text text-anchor="start" x="1977.5" y="-972.3" font-family="monospace" font-size="14.00">  EX_LocalOutVariable</text>
<text text-anchor="start" x="1977.5" y="-957.3" font-family="monospace" font-size="14.00">    [AnimGraph]</text>
<text text-anchor="start" x="1977.5" y="-942.3" font-family="monospace" font-size="14.00">  EX_StructConst import /Script/Engine&#45;&gt;PoseLink</text>
<text text-anchor="start" x="1977.5" y="-927.3" font-family="monospace" font-size="14.00">    EX_IntConst &#45;1</text>
</g>
<!-- AnimGraph&#45;&gt;AnimGraph__0 -->
<g id="edge15" class="edge">
<title>AnimGraph&#45;&gt;AnimGraph__0</title>
<path fill="none" stroke="black" d="M2176,-1271.55C2176,-1216.69 2176,-1086.4 2176,-1013.55"/>
<polygon fill="black" stroke="black" points="2179.5,-1013.89 2176,-1003.89 2172.5,-1013.89 2179.5,-1013.89"/>
</g>
<!-- AnimGraph__37 -->
<g id="node20" class="node">
<title>AnimGraph__37</title>
<polygon fill="#eeeeee" stroke="black" points="2118,-800 2118,-838 2234,-838 2234,-800 2118,-800"/>
<text text-anchor="start" x="2126" y="-822.8" font-family="monospace" font-size="14.00">EX_Return</text>
<text text-anchor="start" x="2126" y="-807.8" font-family="monospace" font-size="14.00">  EX_Nothing</text>
</g>
<!-- AnimGraph__0&#45;&gt;AnimGraph__37 -->
<g id="edge16" class="edge">
<title>AnimGraph__0&#45;&gt;AnimGraph__37</title>
<path fill="none" stroke="black" d="M2176,-919.51C2176,-897.06 2176,-869.67 2176,-849.31"/>
<polygon fill="black" stroke="black" points="2179.5,-849.45 2176,-839.45 2172.5,-849.45 2179.5,-849.45"/>
</g>
<!-- AnimGraph__39 -->
<g id="node21" class="node">
<title>AnimGraph__39</title>
<polygon fill="#eeeeee" stroke="black" points="1871,-737.5 1871,-773.5 2003,-773.5 2003,-737.5 1871,-737.5"/>
<text text-anchor="start" x="1879" y="-751.8" font-family="monospace" font-size="14.00">EX_EndOfScript</text>
</g>
</g>
</svg>
