<?xml version="1.0" encoding="UTF-8" standalone="no"?>
<!DOCTYPE svg PUBLIC "-//W3C//DTD SVG 1.1//EN"
 "http://www.w3.org/Graphics/SVG/1.1/DTD/svg11.dtd">
<!-- Generated by graphviz version 7.0.1 (0)
 -->
<!-- Pages: 1 -->
<svg width="2749pt" height="422pt"
 viewBox="0.00 0.00 2749.00 422.00" xmlns="http://www.w3.org/2000/svg" xmlns:xlink="http://www.w3.org/1999/xlink">
<g id="graph0" class="graph" transform="scale(1 1) rotate(0) translate(4 418)">
<polygon fill="white" stroke="none" points="-4,4 -4,-418 2745,-418 2745,4 -4,4"/>
<!-- BP_WormholeLocation_Base_C -->
<g id="node1" class="node">
<title>BP_WormholeLocation_Base_C</title>
<polygon fill="#88ff88" stroke="black" points="0,-300.5 0,-413.5 594,-413.5 594,-300.5 0,-300.5"/>
<text text-anchor="start" x="8" y="-398.3" font-family="monospace" font-size="14.00">ClassExport: BP_WormholeLocation_Base_C</text>
<text text-anchor="start" x="8" y="-383.3" font-family="monospace" font-size="14.00">  SuperStruct: import /Script/Engine&#45;&gt;Actor</text>
<text text-anchor="start" x="8" y="-368.3" font-family="monospace" font-size="14.00">  Properties:</text>
<text text-anchor="start" x="8" y="-353.3" font-family="monospace" font-size="14.00">    StructProperty UberGraphFrame</text>
<text text-anchor="start" x="8" y="-338.3" font-family="monospace" font-size="14.00">      CPF_Transient|CPF_DuplicateTransient</text>
<text text-anchor="start" x="8" y="-323.3" font-family="monospace" font-size="14.00">    ObjectProperty DefaultSceneRoot</text>
<text text-anchor="start" x="8" y="-308.3" font-family="monospace" font-size="14.00">      CPF_BlueprintVisible|CPF_InstancedReference|CPF_NonTransactional</text>
</g>
<!-- ExecuteUbergraph_BP_WormholeLocation_Base -->
<g id="node2" class="node">
<title>ExecuteUbergraph_BP_WormholeLocation_Base</title>
<polygon fill="#ff8888" stroke="black" points="612,-315.5 612,-398.5 1082,-398.5 1082,-315.5 612,-315.5"/>
<text text-anchor="start" x="620" y="-383.3" font-family="monospace" font-size="14.00">Function ExecuteUbergraph_BP_WormholeLocation_Base</text>
<text text-anchor="start" x="620" y="-368.3" font-family="monospace" font-size="14.00">  IntProperty EntryPoint</text>
<text text-anchor="start" x="620" y="-353.3" font-family="monospace" font-size="14.00">    CPF_BlueprintVisible|CPF_BlueprintReadOnly|CPF_Parm</text>
<text text-anchor="start" x="620" y="-338.3" font-family="monospace" font-size="14.00">  ObjectProperty K2Node_CustomEvent_Character</text>
<text text-anchor="start" x="620" y="-323.3" font-family="monospace" font-size="14.00">  ObjectProperty K2Node_CustomEvent_Character_1</text>
</g>
<!-- ExecuteUbergraph_BP_WormholeLocation_Base__0 -->
<g id="node3" class="node">
<title>ExecuteUbergraph_BP_WormholeLocation_Base__0</title>
<polygon fill="#eeeeee" stroke="black" points="711,-225.5 711,-263.5 983,-263.5 983,-225.5 711,-225.5"/>
<text text-anchor="start" x="719" y="-248.3" font-family="monospace" font-size="14.00">EX_ComputedJump</text>
<text text-anchor="start" x="719" y="-233.3" font-family="monospace" font-size="14.00">  EX_LocalVariable [EntryPoint]</text>
</g>
<!-- ExecuteUbergraph_BP_WormholeLocation_Base&#45;&gt;ExecuteUbergraph_BP_WormholeLocation_Base__0 -->
<g id="edge1" class="edge">
<title>ExecuteUbergraph_BP_WormholeLocation_Base&#45;&gt;ExecuteUbergraph_BP_WormholeLocation_Base__0</title>
<path fill="none" stroke="black" d="M847,-315.79C847,-302.14 847,-287.16 847,-274.55"/>
<polygon fill="black" stroke="black" points="850.5,-274.82 847,-264.82 843.5,-274.82 850.5,-274.82"/>
</g>
<!-- ExecuteUbergraph_BP_WormholeLocation_Base__10 -->
<g id="node4" class="node">
<title>ExecuteUbergraph_BP_WormholeLocation_Base__10</title>
<polygon fill="#eeeeee" stroke="black" points="2397.5,-76.5 2397.5,-112.5 2496.5,-112.5 2496.5,-76.5 2397.5,-76.5"/>
<text text-anchor="start" x="2405.5" y="-90.8" font-family="monospace" font-size="14.00">EX_Jump 15</text>
</g>
<!-- ExecuteUbergraph_BP_WormholeLocation_Base__15 -->
<g id="node5" class="node">
<title>ExecuteUbergraph_BP_WormholeLocation_Base__15</title>
<polygon fill="#eeeeee" stroke="black" points="2125,-0.5 2125,-38.5 2241,-38.5 2241,-0.5 2125,-0.5"/>
<text text-anchor="start" x="2133" y="-23.3" font-family="monospace" font-size="14.00">EX_Return</text>
<text text-anchor="start" x="2133" y="-8.3" font-family="monospace" font-size="14.00">  EX_Nothing</text>
</g>
<!-- ExecuteUbergraph_BP_WormholeLocation_Base__10&#45;&gt;ExecuteUbergraph_BP_WormholeLocation_Base__15 -->
<g id="edge2" class="edge">
<title>ExecuteUbergraph_BP_WormholeLocation_Base__10&#45;&gt;ExecuteUbergraph_BP_WormholeLocation_Base__15</title>
<path fill="none" stroke="black" d="M2397.65,-79.85C2356.57,-68.49 2297.6,-52.19 2251.87,-39.54"/>
<polygon fill="black" stroke="black" points="2252.87,-36.19 2242.3,-36.9 2251.01,-42.94 2252.87,-36.19"/>
</g>
<!-- ExecuteUbergraph_BP_WormholeLocation_Base__17 -->
<g id="node6" class="node">
<title>ExecuteUbergraph_BP_WormholeLocation_Base__17</title>
<polygon fill="#eeeeee" stroke="black" points="2259,-1.5 2259,-37.5 2391,-37.5 2391,-1.5 2259,-1.5"/>
<text text-anchor="start" x="2267" y="-15.8" font-family="monospace" font-size="14.00">EX_EndOfScript</text>
</g>
<!-- OnPlayerLeaveLocation -->
<g id="node7" class="node">
<title>OnPlayerLeaveLocation</title>
<polygon fill="#ff8888" stroke="black" points="1943,-330.5 1943,-383.5 2413,-383.5 2413,-330.5 1943,-330.5"/>
<text text-anchor="start" x="1951" y="-368.3" font-family="monospace" font-size="14.00">Function OnPlayerLeaveLocation</text>
<text text-anchor="start" x="1951" y="-353.3" font-family="monospace" font-size="14.00">  ObjectProperty Character</text>
<text text-anchor="start" x="1951" y="-338.3" font-family="monospace" font-size="14.00">    CPF_BlueprintVisible|CPF_BlueprintReadOnly|CPF_Parm</text>
</g>
<!-- OnPlayerLeaveLocation__0 -->
<g id="node8" class="node">
<title>OnPlayerLeaveLocation__0</title>
<polygon fill="#eeeeee" stroke="black" points="1926.5,-225.5 1926.5,-263.5 2429.5,-263.5 2429.5,-225.5 1926.5,-225.5"/>
<text text-anchor="start" x="1934.5" y="-248.3" font-family="monospace" font-size="14.00">EX_LetValueOnPersistentFrame [K2Node_CustomEvent_Character]</text>
<text text-anchor="start" x="1934.5" y="-233.3" font-family="monospace" font-size="14.00">  EX_LocalVariable [Character]</text>
</g>
<!-- OnPlayerLeaveLocation&#45;&gt;OnPlayerLeaveLocation__0 -->
<g id="edge3" class="edge">
<title>OnPlayerLeaveLocation&#45;&gt;OnPlayerLeaveLocation__0</title>
<path fill="none" stroke="black" d="M2178,-330.65C2178,-314.06 2178,-292.32 2178,-274.96"/>
<polygon fill="black" stroke="black" points="2181.5,-275.01 2178,-265.01 2174.5,-275.01 2181.5,-275.01"/>
</g>
<!-- OnPlayerLeaveLocation__18 -->
<g id="node9" class="node">
<title>OnPlayerLeaveLocation__18</title>
<polygon fill="#eeeeee" stroke="black" points="1765.5,-150.5 1765.5,-188.5 2590.5,-188.5 2590.5,-150.5 1765.5,-150.5"/>
<text text-anchor="start" x="1773.5" y="-173.3" font-family="monospace" font-size="14.00">EX_LocalFinalFunction export BP_WormholeLocation_Base_C&#45;&gt;ExecuteUbergraph_BP_WormholeLocation_Base</text>
<text text-anchor="start" x="1773.5" y="-158.3" font-family="monospace" font-size="14.00">  EX_IntConst 10</text>
</g>
<!-- OnPlayerLeaveLocation__0&#45;&gt;OnPlayerLeaveLocation__18 -->
<g id="edge4" class="edge">
<title>OnPlayerLeaveLocation__0&#45;&gt;OnPlayerLeaveLocation__18</title>
<path fill="none" stroke="black" d="M2178,-225.83C2178,-218 2178,-208.57 2178,-199.74"/>
<polygon fill="black" stroke="black" points="2181.5,-199.78 2178,-189.78 2174.5,-199.78 2181.5,-199.78"/>
</g>
<!-- OnPlayerLeaveLocation__18&#45;&gt;ExecuteUbergraph_BP_WormholeLocation_Base__10 -->
<g id="edge5" class="edge">
<title>OnPlayerLeaveLocation__18:e&#45;&gt;ExecuteUbergraph_BP_WormholeLocation_Base__10</title>
<path fill="none" stroke="red" d="M2592,-169.5C2600.68,-169.5 2596.11,-157.01 2591,-150 2571.57,-123.36 2537.43,-109.74 2507.27,-102.78"/>
<polygon fill="none" stroke="red" points="2508.36,-99.43 2497.86,-100.81 2506.93,-106.28 2508.36,-99.43"/>
</g>
<!-- OnPlayerLeaveLocation__33 -->
<g id="node10" class="node">
<title>OnPlayerLeaveLocation__33</title>
<polygon fill="#eeeeee" stroke="black" points="2120,-75.5 2120,-113.5 2236,-113.5 2236,-75.5 2120,-75.5"/>
<text text-anchor="start" x="2128" y="-98.3" font-family="monospace" font-size="14.00">EX_Return</text>
<text text-anchor="start" x="2128" y="-83.3" font-family="monospace" font-size="14.00">  EX_Nothing</text>
</g>
<!-- OnPlayerLeaveLocation__18&#45;&gt;OnPlayerLeaveLocation__33 -->
<g id="edge6" class="edge">
<title>OnPlayerLeaveLocation__18&#45;&gt;OnPlayerLeaveLocation__33</title>
<path fill="none" stroke="black" d="M2178,-150.83C2178,-143 2178,-133.57 2178,-124.74"/>
<polygon fill="black" stroke="black" points="2181.5,-124.78 2178,-114.78 2174.5,-124.78 2181.5,-124.78"/>
</g>
<!-- OnPlayerLeaveLocation__35 -->
<g id="node11" class="node">
<title>OnPlayerLeaveLocation__35</title>
<polygon fill="#eeeeee" stroke="black" points="2609,-151.5 2609,-187.5 2741,-187.5 2741,-151.5 2609,-151.5"/>
<text text-anchor="start" x="2617" y="-165.8" font-family="monospace" font-size="14.00">EX_EndOfScript</text>
</g>
<!-- OnPlayerEnterLocation -->
<g id="node12" class="node">
<title>OnPlayerEnterLocation</title>
<polygon fill="#ff8888" stroke="black" points="1100,-330.5 1100,-383.5 1570,-383.5 1570,-330.5 1100,-330.5"/>
<text text-anchor="start" x="1108" y="-368.3" font-family="monospace" font-size="14.00">Function OnPlayerEnterLocation</text>
<text text-anchor="start" x="1108" y="-353.3" font-family="monospace" font-size="14.00">  ObjectProperty Character</text>
<text text-anchor="start" x="1108" y="-338.3" font-family="monospace" font-size="14.00">    CPF_BlueprintVisible|CPF_BlueprintReadOnly|CPF_Parm</text>
</g>
<!-- OnPlayerEnterLocation__0 -->
<g id="node13" class="node">
<title>OnPlayerEnterLocation__0</title>
<polygon fill="#eeeeee" stroke="black" points="1075,-225.5 1075,-263.5 1595,-263.5 1595,-225.5 1075,-225.5"/>
<text text-anchor="start" x="1083" y="-248.3" font-family="monospace" font-size="14.00">EX_LetValueOnPersistentFrame [K2Node_CustomEvent_Character_1]</text>
<text text-anchor="start" x="1083" y="-233.3" font-family="monospace" font-size="14.00">  EX_LocalVariable [Character]</text>
</g>
<!-- OnPlayerEnterLocation&#45;&gt;OnPlayerEnterLocation__0 -->
<g id="edge7" class="edge">
<title>OnPlayerEnterLocation&#45;&gt;OnPlayerEnterLocation__0</title>
<path fill="none" stroke="black" d="M1335,-330.65C1335,-314.06 1335,-292.32 1335,-274.96"/>
<polygon fill="black" stroke="black" points="1338.5,-275.01 1335,-265.01 1331.5,-275.01 1338.5,-275.01"/>
</g>
<!-- OnPlayerEnterLocation__18 -->
<g id="node14" class="node">
<title>OnPlayerEnterLocation__18</title>
<polygon fill="#eeeeee" stroke="black" points="922.5,-150.5 922.5,-188.5 1747.5,-188.5 1747.5,-150.5 922.5,-150.5"/>
<text text-anchor="start" x="930.5" y="-173.3" font-family="monospace" font-size="14.00">EX_LocalFinalFunction export BP_WormholeLocation_Base_C&#45;&gt;ExecuteUbergraph_BP_WormholeLocation_Base</text>
<text text-anchor="start" x="930.5" y="-158.3" font-family="monospace" font-size="14.00">  EX_IntConst 15</text>
</g>
<!-- OnPlayerEnterLocation__0&#45;&gt;OnPlayerEnterLocation__18 -->
<g id="edge8" class="edge">
<title>OnPlayerEnterLocation__0&#45;&gt;OnPlayerEnterLocation__18</title>
<path fill="none" stroke="black" d="M1335,-225.83C1335,-218 1335,-208.57 1335,-199.74"/>
<polygon fill="black" stroke="black" points="1338.5,-199.78 1335,-189.78 1331.5,-199.78 1338.5,-199.78"/>
</g>
<!-- OnPlayerEnterLocation__18&#45;&gt;ExecuteUbergraph_BP_WormholeLocation_Base__15 -->
<g id="edge9" class="edge">
<title>OnPlayerEnterLocation__18:e&#45;&gt;ExecuteUbergraph_BP_WormholeLocation_Base__15</title>
<path fill="none" stroke="red" d="M1749,-169.5C1758.21,-169.5 1749.33,-156.35 1756,-150 1855.15,-55.7 2020.76,-29.88 2113.91,-22.93"/>
<polygon fill="none" stroke="red" points="2113.93,-26.44 2123.67,-22.26 2113.45,-19.46 2113.93,-26.44"/>
</g>
<!-- OnPlayerEnterLocation__33 -->
<g id="node15" class="node">
<title>OnPlayerEnterLocation__33</title>
<polygon fill="#eeeeee" stroke="black" points="1277,-75.5 1277,-113.5 1393,-113.5 1393,-75.5 1277,-75.5"/>
<text text-anchor="start" x="1285" y="-98.3" font-family="monospace" font-size="14.00">EX_Return</text>
<text text-anchor="start" x="1285" y="-83.3" font-family="monospace" font-size="14.00">  EX_Nothing</text>
</g>
<!-- OnPlayerEnterLocation__18&#45;&gt;OnPlayerEnterLocation__33 -->
<g id="edge10" class="edge">
<title>OnPlayerEnterLocation__18&#45;&gt;OnPlayerEnterLocation__33</title>
<path fill="none" stroke="black" d="M1335,-150.83C1335,-143 1335,-133.57 1335,-124.74"/>
<polygon fill="black" stroke="black" points="1338.5,-124.78 1335,-114.78 1331.5,-124.78 1338.5,-124.78"/>
</g>
<!-- OnPlayerEnterLocation__35 -->
<g id="node16" class="node">
<title>OnPlayerEnterLocation__35</title>
<polygon fill="#eeeeee" stroke="black" points="2431,-339 2431,-375 2563,-375 2563,-339 2431,-339"/>
<text text-anchor="start" x="2439" y="-353.3" font-family="monospace" font-size="14.00">EX_EndOfScript</text>
</g>
</g>
</svg>
