<?xml version="1.0" encoding="UTF-8" standalone="no"?>
<!DOCTYPE svg PUBLIC "-//W3C//DTD SVG 1.1//EN"
 "http://www.w3.org/Graphics/SVG/1.1/DTD/svg11.dtd">
<!-- Generated by graphviz version 7.0.1 (0)
 -->
<!-- Pages: 1 -->
<svg width="3311pt" height="587pt"
 viewBox="0.00 0.00 3311.00 587.00" xmlns="http://www.w3.org/2000/svg" xmlns:xlink="http://www.w3.org/1999/xlink">
<g id="graph0" class="graph" transform="scale(1 1) rotate(0) translate(4 583)">
<polygon fill="white" stroke="none" points="-4,4 -4,-583 3307,-583 3307,4 -4,4"/>
<!-- ITM_RestoreSaveCategoryList_Entry_C -->
<g id="node1" class="node">
<title>ITM_RestoreSaveCategoryList_Entry_C</title>
<polygon fill="#88ff88" stroke="black" points="0,-225.5 0,-578.5 850,-578.5 850,-225.5 0,-225.5"/>
<text text-anchor="start" x="8" y="-563.3" font-family="monospace" font-size="14.00">ClassExport: ITM_RestoreSaveCategoryList_Entry_C</text>
<text text-anchor="start" x="8" y="-548.3" font-family="monospace" font-size="14.00">  SuperStruct: import /Script/UMG&#45;&gt;UserWidget</text>
<text text-anchor="start" x="8" y="-533.3" font-family="monospace" font-size="14.00">  Properties:</text>
<text text-anchor="start" x="8" y="-518.3" font-family="monospace" font-size="14.00">    StructProperty UberGraphFrame</text>
<text text-anchor="start" x="8" y="-503.3" font-family="monospace" font-size="14.00">      CPF_Transient|CPF_DuplicateTransient</text>
<text text-anchor="start" x="8" y="-488.3" font-family="monospace" font-size="14.00">    ObjectProperty Basic_Menu_ColorBar</text>
<text text-anchor="start" x="8" y="-473.3" font-family="monospace" font-size="14.00">      CPF_BlueprintVisible|CPF_ExportObject|CPF_InstancedReference|CPF_RepSkip|CPF_PersistentInstance</text>
<text text-anchor="start" x="8" y="-458.3" font-family="monospace" font-size="14.00">    ObjectProperty Button_0</text>
<text text-anchor="start" x="8" y="-443.3" font-family="monospace" font-size="14.00">      CPF_BlueprintVisible|CPF_ExportObject|CPF_InstancedReference|CPF_RepSkip|CPF_PersistentInstance</text>
<text text-anchor="start" x="8" y="-428.3" font-family="monospace" font-size="14.00">    ObjectProperty IMG_MissionIcon</text>
<text text-anchor="start" x="8" y="-413.3" font-family="monospace" font-size="14.00">      CPF_BlueprintVisible|CPF_ExportObject|CPF_InstancedReference|CPF_RepSkip|CPF_PersistentInstance</text>
<text text-anchor="start" x="8" y="-398.3" font-family="monospace" font-size="14.00">    ObjectProperty Text_CreditsDescription</text>
<text text-anchor="start" x="8" y="-383.3" font-family="monospace" font-size="14.00">      CPF_BlueprintVisible|CPF_ExportObject|CPF_InstancedReference|CPF_RepSkip|CPF_PersistentInstance</text>
<text text-anchor="start" x="8" y="-368.3" font-family="monospace" font-size="14.00">    ObjectProperty Text_RankDescription</text>
<text text-anchor="start" x="8" y="-353.3" font-family="monospace" font-size="14.00">      CPF_BlueprintVisible|CPF_ExportObject|CPF_InstancedReference|CPF_RepSkip|CPF_PersistentInstance</text>
<text text-anchor="start" x="8" y="-338.3" font-family="monospace" font-size="14.00">    ObjectProperty Text_StarDescription</text>
<text text-anchor="start" x="8" y="-323.3" font-family="monospace" font-size="14.00">      CPF_BlueprintVisible|CPF_ExportObject|CPF_InstancedReference|CPF_RepSkip|CPF_PersistentInstance</text>
<text text-anchor="start" x="8" y="-308.3" font-family="monospace" font-size="14.00">    ObjectProperty TXT_SaveName</text>
<text text-anchor="start" x="8" y="-293.3" font-family="monospace" font-size="14.00">      CPF_BlueprintVisible|CPF_ExportObject|CPF_InstancedReference|CPF_RepSkip|CPF_PersistentInstance</text>
<text text-anchor="start" x="8" y="-278.3" font-family="monospace" font-size="14.00">    ObjectProperty TXT_TimeStamp</text>
<text text-anchor="start" x="8" y="-263.3" font-family="monospace" font-size="14.00">      CPF_BlueprintVisible|CPF_ExportObject|CPF_InstancedReference|CPF_RepSkip|CPF_PersistentInstance</text>
<text text-anchor="start" x="8" y="-248.3" font-family="monospace" font-size="14.00">    StructProperty Session</text>
<text text-anchor="start" x="8" y="-233.3" font-family="monospace" font-size="14.00">      CPF_Edit|CPF_BlueprintVisible|CPF_DisableEditOnInstance</text>
</g>
<!-- ExecuteUbergraph_ITM_RestoreSaveCategoryList_Entry -->
<g id="node2" class="node">
<title>ExecuteUbergraph_ITM_RestoreSaveCategoryList_Entry</title>
<polygon fill="#ff8888" stroke="black" points="868.5,-375.5 868.5,-428.5 1371.5,-428.5 1371.5,-375.5 868.5,-375.5"/>
<text text-anchor="start" x="876.5" y="-413.3" font-family="monospace" font-size="14.00">Function ExecuteUbergraph_ITM_RestoreSaveCategoryList_Entry</text>
<text text-anchor="start" x="876.5" y="-398.3" font-family="monospace" font-size="14.00">  IntProperty EntryPoint</text>
<text text-anchor="start" x="876.5" y="-383.3" font-family="monospace" font-size="14.00">    CPF_BlueprintVisible|CPF_BlueprintReadOnly|CPF_Parm</text>
</g>
<!-- ExecuteUbergraph_ITM_RestoreSaveCategoryList_Entry__0 -->
<g id="node3" class="node">
<title>ExecuteUbergraph_ITM_RestoreSaveCategoryList_Entry__0</title>
<polygon fill="#eeeeee" stroke="black" points="984,-150.5 984,-188.5 1256,-188.5 1256,-150.5 984,-150.5"/>
<text text-anchor="start" x="992" y="-173.3" font-family="monospace" font-size="14.00">EX_ComputedJump</text>
<text text-anchor="start" x="992" y="-158.3" font-family="monospace" font-size="14.00">  EX_LocalVariable [EntryPoint]</text>
</g>
<!-- ExecuteUbergraph_ITM_RestoreSaveCategoryList_Entry&#45;&gt;ExecuteUbergraph_ITM_RestoreSaveCategoryList_Entry__0 -->
<g id="edge1" class="edge">
<title>ExecuteUbergraph_ITM_RestoreSaveCategoryList_Entry&#45;&gt;ExecuteUbergraph_ITM_RestoreSaveCategoryList_Entry__0</title>
<path fill="none" stroke="black" d="M1120,-375.89C1120,-332.93 1120,-245.52 1120,-199.82"/>
<polygon fill="black" stroke="black" points="1123.5,-199.89 1120,-189.89 1116.5,-199.89 1123.5,-199.89"/>
</g>
<!-- ExecuteUbergraph_ITM_RestoreSaveCategoryList_Entry__10 -->
<g id="node4" class="node">
<title>ExecuteUbergraph_ITM_RestoreSaveCategoryList_Entry__10</title>
<polygon fill="#eeeeee" stroke="black" points="3009.5,-76.5 3009.5,-112.5 3108.5,-112.5 3108.5,-76.5 3009.5,-76.5"/>
<text text-anchor="start" x="3017.5" y="-90.8" font-family="monospace" font-size="14.00">EX_Jump 15</text>
</g>
<!-- ExecuteUbergraph_ITM_RestoreSaveCategoryList_Entry__15 -->
<g id="node5" class="node">
<title>ExecuteUbergraph_ITM_RestoreSaveCategoryList_Entry__15</title>
<polygon fill="#eeeeee" stroke="black" points="2700,-0.5 2700,-38.5 2816,-38.5 2816,-0.5 2700,-0.5"/>
<text text-anchor="start" x="2708" y="-23.3" font-family="monospace" font-size="14.00">EX_Return</text>
<text text-anchor="start" x="2708" y="-8.3" font-family="monospace" font-size="14.00">  EX_Nothing</text>
</g>
<!-- ExecuteUbergraph_ITM_RestoreSaveCategoryList_Entry__10&#45;&gt;ExecuteUbergraph_ITM_RestoreSaveCategoryList_Entry__15 -->
<g id="edge2" class="edge">
<title>ExecuteUbergraph_ITM_RestoreSaveCategoryList_Entry__10&#45;&gt;ExecuteUbergraph_ITM_RestoreSaveCategoryList_Entry__15</title>
<path fill="none" stroke="black" d="M3009.56,-82.6C2964.51,-72.52 2895.88,-56.84 2826.79,-39.41"/>
<polygon fill="black" stroke="black" points="2827.72,-36.03 2817.17,-36.97 2826,-42.82 2827.72,-36.03"/>
</g>
<!-- ExecuteUbergraph_ITM_RestoreSaveCategoryList_Entry__17 -->
<g id="node6" class="node">
<title>ExecuteUbergraph_ITM_RestoreSaveCategoryList_Entry__17</title>
<polygon fill="#eeeeee" stroke="black" points="2834,-1.5 2834,-37.5 2966,-37.5 2966,-1.5 2834,-1.5"/>
<text text-anchor="start" x="2842" y="-15.8" font-family="monospace" font-size="14.00">EX_EndOfScript</text>
</g>
<!-- BndEvt__Button_0_K2Node_ComponentBoundEvent_10_OnButtonClickedEvent__DelegateSignature -->
<g id="node7" class="node">
<title>BndEvt__Button_0_K2Node_ComponentBoundEvent_10_OnButtonClickedEvent__DelegateSignature</title>
<polygon fill="#ff8888" stroke="black" points="2353,-384 2353,-420 3153,-420 3153,-384 2353,-384"/>
<text text-anchor="start" x="2361" y="-398.3" font-family="monospace" font-size="14.00">Function BndEvt__Button_0_K2Node_ComponentBoundEvent_10_OnButtonClickedEvent__DelegateSignature</text>
</g>
<!-- BndEvt__Button_0_K2Node_ComponentBoundEvent_10_OnButtonClickedEvent__DelegateSignature__0 -->
<g id="node8" class="node">
<title>BndEvt__Button_0_K2Node_ComponentBoundEvent_10_OnButtonClickedEvent__DelegateSignature__0</title>
<polygon fill="#eeeeee" stroke="black" points="2266,-150.5 2266,-188.5 3240,-188.5 3240,-150.5 2266,-150.5"/>
<text text-anchor="start" x="2274" y="-173.3" font-family="monospace" font-size="14.00">EX_LocalFinalFunction export ITM_RestoreSaveCategoryList_Entry_C&#45;&gt;ExecuteUbergraph_ITM_RestoreSaveCategoryList_Entry</text>
<text text-anchor="start" x="2274" y="-158.3" font-family="monospace" font-size="14.00">  EX_IntConst 10</text>
</g>
<!-- BndEvt__Button_0_K2Node_ComponentBoundEvent_10_OnButtonClickedEvent__DelegateSignature&#45;&gt;BndEvt__Button_0_K2Node_ComponentBoundEvent_10_OnButtonClickedEvent__DelegateSignature__0 -->
<g id="edge3" class="edge">
<title>BndEvt__Button_0_K2Node_ComponentBoundEvent_10_OnButtonClickedEvent__DelegateSignature&#45;&gt;BndEvt__Button_0_K2Node_ComponentBoundEvent_10_OnButtonClickedEvent__DelegateSignature__0</title>
<path fill="none" stroke="black" d="M2753,-384.05C2753,-345.04 2753,-248.52 2753,-199.73"/>
<polygon fill="black" stroke="black" points="2756.5,-199.93 2753,-189.93 2749.5,-199.93 2756.5,-199.93"/>
</g>
<!-- BndEvt__Button_0_K2Node_ComponentBoundEvent_10_OnButtonClickedEvent__DelegateSignature__0&#45;&gt;ExecuteUbergraph_ITM_RestoreSaveCategoryList_Entry__10 -->
<g id="edge4" class="edge">
<title>BndEvt__Button_0_K2Node_ComponentBoundEvent_10_OnButtonClickedEvent__DelegateSignature__0:e&#45;&gt;ExecuteUbergraph_ITM_RestoreSaveCategoryList_Entry__10</title>
<path fill="none" stroke="red" d="M3241,-169.5C3249.68,-169.5 3245.35,-156.83 3240,-150 3211.75,-113.96 3160.51,-101.01 3119.74,-96.7"/>
<polygon fill="none" stroke="red" points="3120.06,-93.21 3109.79,-95.81 3119.44,-100.18 3120.06,-93.21"/>
</g>
<!-- BndEvt__Button_0_K2Node_ComponentBoundEvent_10_OnButtonClickedEvent__DelegateSignature__15 -->
<g id="node9" class="node">
<title>BndEvt__Button_0_K2Node_ComponentBoundEvent_10_OnButtonClickedEvent__DelegateSignature__15</title>
<polygon fill="#eeeeee" stroke="black" points="2695,-75.5 2695,-113.5 2811,-113.5 2811,-75.5 2695,-75.5"/>
<text text-anchor="start" x="2703" y="-98.3" font-family="monospace" font-size="14.00">EX_Return</text>
<text text-anchor="start" x="2703" y="-83.3" font-family="monospace" font-size="14.00">  EX_Nothing</text>
</g>
<!-- BndEvt__Button_0_K2Node_ComponentBoundEvent_10_OnButtonClickedEvent__DelegateSignature__0&#45;&gt;BndEvt__Button_0_K2Node_ComponentBoundEvent_10_OnButtonClickedEvent__DelegateSignature__15 -->
<g id="edge5" class="edge">
<title>BndEvt__Button_0_K2Node_ComponentBoundEvent_10_OnButtonClickedEvent__DelegateSignature__0&#45;&gt;BndEvt__Button_0_K2Node_ComponentBoundEvent_10_OnButtonClickedEvent__DelegateSignature__15</title>
<path fill="none" stroke="black" d="M2753,-150.83C2753,-143 2753,-133.57 2753,-124.74"/>
<polygon fill="black" stroke="black" points="2756.5,-124.78 2753,-114.78 2749.5,-124.78 2756.5,-124.78"/>
</g>
<!-- BndEvt__Button_0_K2Node_ComponentBoundEvent_10_OnButtonClickedEvent__DelegateSignature__17 -->
<g id="node10" class="node">
<title>BndEvt__Button_0_K2Node_ComponentBoundEvent_10_OnButtonClickedEvent__DelegateSignature__17</title>
<polygon fill="#eeeeee" stroke="black" points="2984,-1.5 2984,-37.5 3116,-37.5 3116,-1.5 2984,-1.5"/>
<text text-anchor="start" x="2992" y="-15.8" font-family="monospace" font-size="14.00">EX_EndOfScript</text>
</g>
<!-- Construct -->
<g id="node11" class="node">
<title>Construct</title>
<polygon fill="#ff8888" stroke="black" points="1678.5,-384 1678.5,-420 1843.5,-420 1843.5,-384 1678.5,-384"/>
<text text-anchor="start" x="1686.5" y="-398.3" font-family="monospace" font-size="14.00">Function Construct</text>
</g>
<!-- Construct__0 -->
<g id="node12" class="node">
<title>Construct__0</title>
<polygon fill="#eeeeee" stroke="black" points="1274,-150.5 1274,-188.5 2248,-188.5 2248,-150.5 1274,-150.5"/>
<text text-anchor="start" x="1282" y="-173.3" font-family="monospace" font-size="14.00">EX_LocalFinalFunction export ITM_RestoreSaveCategoryList_Entry_C&#45;&gt;ExecuteUbergraph_ITM_RestoreSaveCategoryList_Entry</text>
<text text-anchor="start" x="1282" y="-158.3" font-family="monospace" font-size="14.00">  EX_IntConst 15</text>
</g>
<!-- Construct&#45;&gt;Construct__0 -->
<g id="edge6" class="edge">
<title>Construct&#45;&gt;Construct__0</title>
<path fill="none" stroke="black" d="M1761,-384.05C1761,-345.04 1761,-248.52 1761,-199.73"/>
<polygon fill="black" stroke="black" points="1764.5,-199.93 1761,-189.93 1757.5,-199.93 1764.5,-199.93"/>
</g>
<!-- Construct__0&#45;&gt;ExecuteUbergraph_ITM_RestoreSaveCategoryList_Entry__15 -->
<g id="edge7" class="edge">
<title>Construct__0:e&#45;&gt;ExecuteUbergraph_ITM_RestoreSaveCategoryList_Entry__15</title>
<path fill="none" stroke="red" d="M2249,-169.5C2258.37,-169.5 2249.94,-156.16 2257,-150 2321.51,-93.74 2567.56,-49.48 2689.15,-30.53"/>
<polygon fill="none" stroke="red" points="2689.32,-34.05 2698.67,-29.06 2688.26,-27.13 2689.32,-34.05"/>
</g>
<!-- Construct__15 -->
<g id="node13" class="node">
<title>Construct__15</title>
<polygon fill="#eeeeee" stroke="black" points="1703,-75.5 1703,-113.5 1819,-113.5 1819,-75.5 1703,-75.5"/>
<text text-anchor="start" x="1711" y="-98.3" font-family="monospace" font-size="14.00">EX_Return</text>
<text text-anchor="start" x="1711" y="-83.3" font-family="monospace" font-size="14.00">  EX_Nothing</text>
</g>
<!-- Construct__0&#45;&gt;Construct__15 -->
<g id="edge8" class="edge">
<title>Construct__0&#45;&gt;Construct__15</title>
<path fill="none" stroke="black" d="M1761,-150.83C1761,-143 1761,-133.57 1761,-124.74"/>
<polygon fill="black" stroke="black" points="1764.5,-124.78 1761,-114.78 1757.5,-124.78 1764.5,-124.78"/>
</g>
<!-- Construct__17 -->
<g id="node14" class="node">
<title>Construct__17</title>
<polygon fill="#eeeeee" stroke="black" points="3171,-384 3171,-420 3303,-420 3303,-384 3171,-384"/>
<text text-anchor="start" x="3179" y="-398.3" font-family="monospace" font-size="14.00">EX_EndOfScript</text>
</g>
</g>
</svg>
