<?xml version="1.0" encoding="UTF-8" standalone="no"?>
<!DOCTYPE svg PUBLIC "-//W3C//DTD SVG 1.1//EN"
 "http://www.w3.org/Graphics/SVG/1.1/DTD/svg11.dtd">
<!-- Generated by graphviz version 7.0.1 (0)
 -->
<!-- Pages: 1 -->
<svg width="2296pt" height="1607pt"
 viewBox="0.00 0.00 2295.50 1607.00" xmlns="http://www.w3.org/2000/svg" xmlns:xlink="http://www.w3.org/1999/xlink">
<g id="graph0" class="graph" transform="scale(1 1) rotate(0) translate(4 1603)">
<polygon fill="white" stroke="none" points="-4,4 -4,-1603 2291.5,-1603 2291.5,4 -4,4"/>
<!-- BP_EnorEmd_C -->
<g id="node1" class="node">
<title>BP_EnorEmd_C</title>
<polygon fill="#88ff88" stroke="black" points="0,-1275.5 0,-1598.5 685,-1598.5 685,-1275.5 0,-1275.5"/>
<text text-anchor="start" x="8" y="-1583.3" font-family="monospace" font-size="14.00">ClassExport: BP_EnorEmd_C</text>
<text text-anchor="start" x="8" y="-1568.3" font-family="monospace" font-size="14.00">  SuperStruct: import /Game/GameElements/Resources/Embedded/Gems/BP_Gem&#45;&gt;BP_Gem_C</text>
<text text-anchor="start" x="8" y="-1553.3" font-family="monospace" font-size="14.00">  Properties:</text>
<text text-anchor="start" x="8" y="-1538.3" font-family="monospace" font-size="14.00">    StructProperty UberGraphFrame</text>
<text text-anchor="start" x="8" y="-1523.3" font-family="monospace" font-size="14.00">      CPF_Transient|CPF_DuplicateTransient</text>
<text text-anchor="start" x="8" y="-1508.3" font-family="monospace" font-size="14.00">    ObjectProperty GemTracker</text>
<text text-anchor="start" x="8" y="-1493.3" font-family="monospace" font-size="14.00">      CPF_BlueprintVisible|CPF_InstancedReference|CPF_NonTransactional</text>
<text text-anchor="start" x="8" y="-1478.3" font-family="monospace" font-size="14.00">    ObjectProperty PointLight6</text>
<text text-anchor="start" x="8" y="-1463.3" font-family="monospace" font-size="14.00">      CPF_BlueprintVisible|CPF_InstancedReference|CPF_NonTransactional</text>
<text text-anchor="start" x="8" y="-1448.3" font-family="monospace" font-size="14.00">    ObjectProperty PointLight5</text>
<text text-anchor="start" x="8" y="-1433.3" font-family="monospace" font-size="14.00">      CPF_BlueprintVisible|CPF_InstancedReference|CPF_NonTransactional</text>
<text text-anchor="start" x="8" y="-1418.3" font-family="monospace" font-size="14.00">    ObjectProperty PointLight4</text>
<text text-anchor="start" x="8" y="-1403.3" font-family="monospace" font-size="14.00">      CPF_BlueprintVisible|CPF_InstancedReference|CPF_NonTransactional</text>
<text text-anchor="start" x="8" y="-1388.3" font-family="monospace" font-size="14.00">    ObjectProperty PointLight3</text>
<text text-anchor="start" x="8" y="-1373.3" font-family="monospace" font-size="14.00">      CPF_BlueprintVisible|CPF_InstancedReference|CPF_NonTransactional</text>
<text text-anchor="start" x="8" y="-1358.3" font-family="monospace" font-size="14.00">    ObjectProperty PointLight2</text>
<text text-anchor="start" x="8" y="-1343.3" font-family="monospace" font-size="14.00">      CPF_BlueprintVisible|CPF_InstancedReference|CPF_NonTransactional</text>
<text text-anchor="start" x="8" y="-1328.3" font-family="monospace" font-size="14.00">    ObjectProperty PointLight1</text>
<text text-anchor="start" x="8" y="-1313.3" font-family="monospace" font-size="14.00">      CPF_BlueprintVisible|CPF_InstancedReference|CPF_NonTransactional</text>
<text text-anchor="start" x="8" y="-1298.3" font-family="monospace" font-size="14.00">    ObjectProperty PointLight</text>
<text text-anchor="start" x="8" y="-1283.3" font-family="monospace" font-size="14.00">      CPF_BlueprintVisible|CPF_InstancedReference|CPF_NonTransactional</text>
</g>
<!-- ExecuteUbergraph_BP_EnorEmd -->
<g id="node2" class="node">
<title>ExecuteUbergraph_BP_EnorEmd</title>
<polygon fill="#ff8888" stroke="black" points="703.5,-1410.5 703.5,-1463.5 1173.5,-1463.5 1173.5,-1410.5 703.5,-1410.5"/>
<text text-anchor="start" x="711.5" y="-1448.3" font-family="monospace" font-size="14.00">Function ExecuteUbergraph_BP_EnorEmd</text>
<text text-anchor="start" x="711.5" y="-1433.3" font-family="monospace" font-size="14.00">  IntProperty EntryPoint</text>
<text text-anchor="start" x="711.5" y="-1418.3" font-family="monospace" font-size="14.00">    CPF_BlueprintVisible|CPF_BlueprintReadOnly|CPF_Parm</text>
</g>
<!-- ExecuteUbergraph_BP_EnorEmd__0 -->
<g id="node3" class="node">
<title>ExecuteUbergraph_BP_EnorEmd__0</title>
<polygon fill="#eeeeee" stroke="black" points="802.5,-1200.5 802.5,-1238.5 1074.5,-1238.5 1074.5,-1200.5 802.5,-1200.5"/>
<text text-anchor="start" x="810.5" y="-1223.3" font-family="monospace" font-size="14.00">EX_ComputedJump</text>
<text text-anchor="start" x="810.5" y="-1208.3" font-family="monospace" font-size="14.00">  EX_LocalVariable [EntryPoint]</text>
</g>
<!-- ExecuteUbergraph_BP_EnorEmd&#45;&gt;ExecuteUbergraph_BP_EnorEmd__0 -->
<g id="edge1" class="edge">
<title>ExecuteUbergraph_BP_EnorEmd&#45;&gt;ExecuteUbergraph_BP_EnorEmd__0</title>
<path fill="none" stroke="black" d="M938.5,-1410.86C938.5,-1370.74 938.5,-1292.44 938.5,-1249.83"/>
<polygon fill="black" stroke="black" points="942,-1249.84 938.5,-1239.84 935,-1249.84 942,-1249.84"/>
</g>
<!-- ExecuteUbergraph_BP_EnorEmd__10 -->
<g id="node4" class="node">
<title>ExecuteUbergraph_BP_EnorEmd__10</title>
<polygon fill="#eeeeee" stroke="black" points="1365.5,-1126.5 1365.5,-1162.5 2207.5,-1162.5 2207.5,-1126.5 1365.5,-1126.5"/>
<text text-anchor="start" x="1373.5" y="-1140.8" font-family="monospace" font-size="14.00">EX_FinalFunction import /Game/GameElements/Resources/Embedded/Gems/BP_Gem&#45;&gt;BP_Gem_C&#45;&gt;All_PlayDugFree</text>
</g>
<!-- ExecuteUbergraph_BP_EnorEmd__20 -->
<g id="node5" class="node">
<title>ExecuteUbergraph_BP_EnorEmd__20</title>
<polygon fill="#eeeeee" stroke="black" points="1436,-1005.5 1436,-1088.5 2137,-1088.5 2137,-1005.5 1436,-1005.5"/>
<text text-anchor="start" x="1444" y="-1073.3" font-family="monospace" font-size="14.00">EX_Context</text>
<text text-anchor="start" x="1444" y="-1058.3" font-family="monospace" font-size="14.00">  EX_InstanceVariable [PointLight]</text>
<text text-anchor="start" x="1444" y="-1043.3" font-family="monospace" font-size="14.00">  EX_FinalFunction import /Script/Engine&#45;&gt;LocalLightComponent&#45;&gt;SetAttenuationRadius</text>
<text text-anchor="start" x="1444" y="-1028.3" font-family="monospace" font-size="14.00">    EX_FloatConst 1000</text>
<text text-anchor="start" x="1444" y="-1013.3" font-family="monospace" font-size="14.00">  RValue = []</text>
</g>
<!-- ExecuteUbergraph_BP_EnorEmd__10&#45;&gt;ExecuteUbergraph_BP_EnorEmd__20 -->
<g id="edge2" class="edge">
<title>ExecuteUbergraph_BP_EnorEmd__10&#45;&gt;ExecuteUbergraph_BP_EnorEmd__20</title>
<path fill="none" stroke="black" d="M1786.5,-1126.87C1786.5,-1119.1 1786.5,-1109.39 1786.5,-1099.46"/>
<polygon fill="black" stroke="black" points="1790,-1099.77 1786.5,-1089.77 1783,-1099.77 1790,-1099.77"/>
</g>
<!-- ExecuteUbergraph_BP_EnorEmd__57 -->
<g id="node6" class="node">
<title>ExecuteUbergraph_BP_EnorEmd__57</title>
<polygon fill="#eeeeee" stroke="black" points="1489.5,-885.5 1489.5,-968.5 2083.5,-968.5 2083.5,-885.5 1489.5,-885.5"/>
<text text-anchor="start" x="1497.5" y="-953.3" font-family="monospace" font-size="14.00">EX_Context</text>
<text text-anchor="start" x="1497.5" y="-938.3" font-family="monospace" font-size="14.00">  EX_InstanceVariable [PointLight]</text>
<text text-anchor="start" x="1497.5" y="-923.3" font-family="monospace" font-size="14.00">  EX_FinalFunction import /Script/Engine&#45;&gt;LightComponent&#45;&gt;SetIntensity</text>
<text text-anchor="start" x="1497.5" y="-908.3" font-family="monospace" font-size="14.00">    EX_FloatConst 50</text>
<text text-anchor="start" x="1497.5" y="-893.3" font-family="monospace" font-size="14.00">  RValue = []</text>
</g>
<!-- ExecuteUbergraph_BP_EnorEmd__20&#45;&gt;ExecuteUbergraph_BP_EnorEmd__57 -->
<g id="edge3" class="edge">
<title>ExecuteUbergraph_BP_EnorEmd__20&#45;&gt;ExecuteUbergraph_BP_EnorEmd__57</title>
<path fill="none" stroke="black" d="M1786.5,-1005.72C1786.5,-997.37 1786.5,-988.45 1786.5,-979.75"/>
<polygon fill="black" stroke="black" points="1790,-980.01 1786.5,-970.01 1783,-980.01 1790,-980.01"/>
</g>
<!-- ExecuteUbergraph_BP_EnorEmd__94 -->
<g id="node7" class="node">
<title>ExecuteUbergraph_BP_EnorEmd__94</title>
<polygon fill="#eeeeee" stroke="black" points="1485.5,-750.5 1485.5,-848.5 2087.5,-848.5 2087.5,-750.5 1485.5,-750.5"/>
<text text-anchor="start" x="1493.5" y="-833.3" font-family="monospace" font-size="14.00">EX_Context</text>
<text text-anchor="start" x="1493.5" y="-818.3" font-family="monospace" font-size="14.00">  EX_InstanceVariable [PointLight2]</text>
<text text-anchor="start" x="1493.5" y="-803.3" font-family="monospace" font-size="14.00">  EX_FinalFunction import /Script/Engine&#45;&gt;SceneComponent&#45;&gt;SetVisibility</text>
<text text-anchor="start" x="1493.5" y="-788.3" font-family="monospace" font-size="14.00">    EX_False</text>
<text text-anchor="start" x="1493.5" y="-773.3" font-family="monospace" font-size="14.00">    EX_False</text>
<text text-anchor="start" x="1493.5" y="-758.3" font-family="monospace" font-size="14.00">  RValue = []</text>
</g>
<!-- ExecuteUbergraph_BP_EnorEmd__57&#45;&gt;ExecuteUbergraph_BP_EnorEmd__94 -->
<g id="edge4" class="edge">
<title>ExecuteUbergraph_BP_EnorEmd__57&#45;&gt;ExecuteUbergraph_BP_EnorEmd__94</title>
<path fill="none" stroke="black" d="M1786.5,-885.6C1786.5,-877.33 1786.5,-868.46 1786.5,-859.69"/>
<polygon fill="black" stroke="black" points="1790,-859.78 1786.5,-849.78 1783,-859.78 1790,-859.78"/>
</g>
<!-- ExecuteUbergraph_BP_EnorEmd__128 -->
<g id="node8" class="node">
<title>ExecuteUbergraph_BP_EnorEmd__128</title>
<polygon fill="#eeeeee" stroke="black" points="1485.5,-615.5 1485.5,-713.5 2087.5,-713.5 2087.5,-615.5 1485.5,-615.5"/>
<text text-anchor="start" x="1493.5" y="-698.3" font-family="monospace" font-size="14.00">EX_Context</text>
<text text-anchor="start" x="1493.5" y="-683.3" font-family="monospace" font-size="14.00">  EX_InstanceVariable [PointLight3]</text>
<text text-anchor="start" x="1493.5" y="-668.3" font-family="monospace" font-size="14.00">  EX_FinalFunction import /Script/Engine&#45;&gt;SceneComponent&#45;&gt;SetVisibility</text>
<text text-anchor="start" x="1493.5" y="-653.3" font-family="monospace" font-size="14.00">    EX_False</text>
<text text-anchor="start" x="1493.5" y="-638.3" font-family="monospace" font-size="14.00">    EX_False</text>
<text text-anchor="start" x="1493.5" y="-623.3" font-family="monospace" font-size="14.00">  RValue = []</text>
</g>
<!-- ExecuteUbergraph_BP_EnorEmd__94&#45;&gt;ExecuteUbergraph_BP_EnorEmd__128 -->
<g id="edge5" class="edge">
<title>ExecuteUbergraph_BP_EnorEmd__94&#45;&gt;ExecuteUbergraph_BP_EnorEmd__128</title>
<path fill="none" stroke="black" d="M1786.5,-750.86C1786.5,-742.36 1786.5,-733.41 1786.5,-724.64"/>
<polygon fill="black" stroke="black" points="1790,-724.77 1786.5,-714.77 1783,-724.77 1790,-724.77"/>
</g>
<!-- ExecuteUbergraph_BP_EnorEmd__162 -->
<g id="node9" class="node">
<title>ExecuteUbergraph_BP_EnorEmd__162</title>
<polygon fill="#eeeeee" stroke="black" points="1485.5,-480.5 1485.5,-578.5 2087.5,-578.5 2087.5,-480.5 1485.5,-480.5"/>
<text text-anchor="start" x="1493.5" y="-563.3" font-family="monospace" font-size="14.00">EX_Context</text>
<text text-anchor="start" x="1493.5" y="-548.3" font-family="monospace" font-size="14.00">  EX_InstanceVariable [PointLight4]</text>
<text text-anchor="start" x="1493.5" y="-533.3" font-family="monospace" font-size="14.00">  EX_FinalFunction import /Script/Engine&#45;&gt;SceneComponent&#45;&gt;SetVisibility</text>
<text text-anchor="start" x="1493.5" y="-518.3" font-family="monospace" font-size="14.00">    EX_False</text>
<text text-anchor="start" x="1493.5" y="-503.3" font-family="monospace" font-size="14.00">    EX_False</text>
<text text-anchor="start" x="1493.5" y="-488.3" font-family="monospace" font-size="14.00">  RValue = []</text>
</g>
<!-- ExecuteUbergraph_BP_EnorEmd__128&#45;&gt;ExecuteUbergraph_BP_EnorEmd__162 -->
<g id="edge6" class="edge">
<title>ExecuteUbergraph_BP_EnorEmd__128&#45;&gt;ExecuteUbergraph_BP_EnorEmd__162</title>
<path fill="none" stroke="black" d="M1786.5,-615.86C1786.5,-607.36 1786.5,-598.41 1786.5,-589.64"/>
<polygon fill="black" stroke="black" points="1790,-589.77 1786.5,-579.77 1783,-589.77 1790,-589.77"/>
</g>
<!-- ExecuteUbergraph_BP_EnorEmd__196 -->
<g id="node10" class="node">
<title>ExecuteUbergraph_BP_EnorEmd__196</title>
<polygon fill="#eeeeee" stroke="black" points="1485.5,-345.5 1485.5,-443.5 2087.5,-443.5 2087.5,-345.5 1485.5,-345.5"/>
<text text-anchor="start" x="1493.5" y="-428.3" font-family="monospace" font-size="14.00">EX_Context</text>
<text text-anchor="start" x="1493.5" y="-413.3" font-family="monospace" font-size="14.00">  EX_InstanceVariable [PointLight5]</text>
<text text-anchor="start" x="1493.5" y="-398.3" font-family="monospace" font-size="14.00">  EX_FinalFunction import /Script/Engine&#45;&gt;SceneComponent&#45;&gt;SetVisibility</text>
<text text-anchor="start" x="1493.5" y="-383.3" font-family="monospace" font-size="14.00">    EX_False</text>
<text text-anchor="start" x="1493.5" y="-368.3" font-family="monospace" font-size="14.00">    EX_False</text>
<text text-anchor="start" x="1493.5" y="-353.3" font-family="monospace" font-size="14.00">  RValue = []</text>
</g>
<!-- ExecuteUbergraph_BP_EnorEmd__162&#45;&gt;ExecuteUbergraph_BP_EnorEmd__196 -->
<g id="edge7" class="edge">
<title>ExecuteUbergraph_BP_EnorEmd__162&#45;&gt;ExecuteUbergraph_BP_EnorEmd__196</title>
<path fill="none" stroke="black" d="M1786.5,-480.86C1786.5,-472.36 1786.5,-463.41 1786.5,-454.64"/>
<polygon fill="black" stroke="black" points="1790,-454.77 1786.5,-444.77 1783,-454.77 1790,-454.77"/>
</g>
<!-- ExecuteUbergraph_BP_EnorEmd__230 -->
<g id="node11" class="node">
<title>ExecuteUbergraph_BP_EnorEmd__230</title>
<polygon fill="#eeeeee" stroke="black" points="1485.5,-210.5 1485.5,-308.5 2087.5,-308.5 2087.5,-210.5 1485.5,-210.5"/>
<text text-anchor="start" x="1493.5" y="-293.3" font-family="monospace" font-size="14.00">EX_Context</text>
<text text-anchor="start" x="1493.5" y="-278.3" font-family="monospace" font-size="14.00">  EX_InstanceVariable [PointLight6]</text>
<text text-anchor="start" x="1493.5" y="-263.3" font-family="monospace" font-size="14.00">  EX_FinalFunction import /Script/Engine&#45;&gt;SceneComponent&#45;&gt;SetVisibility</text>
<text text-anchor="start" x="1493.5" y="-248.3" font-family="monospace" font-size="14.00">    EX_False</text>
<text text-anchor="start" x="1493.5" y="-233.3" font-family="monospace" font-size="14.00">    EX_False</text>
<text text-anchor="start" x="1493.5" y="-218.3" font-family="monospace" font-size="14.00">  RValue = []</text>
</g>
<!-- ExecuteUbergraph_BP_EnorEmd__196&#45;&gt;ExecuteUbergraph_BP_EnorEmd__230 -->
<g id="edge8" class="edge">
<title>ExecuteUbergraph_BP_EnorEmd__196&#45;&gt;ExecuteUbergraph_BP_EnorEmd__230</title>
<path fill="none" stroke="black" d="M1786.5,-345.86C1786.5,-337.36 1786.5,-328.41 1786.5,-319.64"/>
<polygon fill="black" stroke="black" points="1790,-319.77 1786.5,-309.77 1783,-319.77 1790,-319.77"/>
</g>
<!-- ExecuteUbergraph_BP_EnorEmd__264 -->
<g id="node12" class="node">
<title>ExecuteUbergraph_BP_EnorEmd__264</title>
<polygon fill="#eeeeee" stroke="black" points="1485.5,-75.5 1485.5,-173.5 2087.5,-173.5 2087.5,-75.5 1485.5,-75.5"/>
<text text-anchor="start" x="1493.5" y="-158.3" font-family="monospace" font-size="14.00">EX_Context</text>
<text text-anchor="start" x="1493.5" y="-143.3" font-family="monospace" font-size="14.00">  EX_InstanceVariable [PointLight1]</text>
<text text-anchor="start" x="1493.5" y="-128.3" font-family="monospace" font-size="14.00">  EX_FinalFunction import /Script/Engine&#45;&gt;SceneComponent&#45;&gt;SetVisibility</text>
<text text-anchor="start" x="1493.5" y="-113.3" font-family="monospace" font-size="14.00">    EX_False</text>
<text text-anchor="start" x="1493.5" y="-98.3" font-family="monospace" font-size="14.00">    EX_False</text>
<text text-anchor="start" x="1493.5" y="-83.3" font-family="monospace" font-size="14.00">  RValue = []</text>
</g>
<!-- ExecuteUbergraph_BP_EnorEmd__230&#45;&gt;ExecuteUbergraph_BP_EnorEmd__264 -->
<g id="edge9" class="edge">
<title>ExecuteUbergraph_BP_EnorEmd__230&#45;&gt;ExecuteUbergraph_BP_EnorEmd__264</title>
<path fill="none" stroke="black" d="M1786.5,-210.86C1786.5,-202.36 1786.5,-193.41 1786.5,-184.64"/>
<polygon fill="black" stroke="black" points="1790,-184.77 1786.5,-174.77 1783,-184.77 1790,-184.77"/>
</g>
<!-- ExecuteUbergraph_BP_EnorEmd__298 -->
<g id="node13" class="node">
<title>ExecuteUbergraph_BP_EnorEmd__298</title>
<polygon fill="#eeeeee" stroke="black" points="1728.5,-0.5 1728.5,-38.5 1844.5,-38.5 1844.5,-0.5 1728.5,-0.5"/>
<text text-anchor="start" x="1736.5" y="-23.3" font-family="monospace" font-size="14.00">EX_Return</text>
<text text-anchor="start" x="1736.5" y="-8.3" font-family="monospace" font-size="14.00">  EX_Nothing</text>
</g>
<!-- ExecuteUbergraph_BP_EnorEmd__264&#45;&gt;ExecuteUbergraph_BP_EnorEmd__298 -->
<g id="edge10" class="edge">
<title>ExecuteUbergraph_BP_EnorEmd__264&#45;&gt;ExecuteUbergraph_BP_EnorEmd__298</title>
<path fill="none" stroke="black" d="M1786.5,-75.62C1786.5,-66.83 1786.5,-57.89 1786.5,-49.85"/>
<polygon fill="black" stroke="black" points="1790,-49.98 1786.5,-39.98 1783,-49.98 1790,-49.98"/>
</g>
<!-- ExecuteUbergraph_BP_EnorEmd__300 -->
<g id="node14" class="node">
<title>ExecuteUbergraph_BP_EnorEmd__300</title>
<polygon fill="#eeeeee" stroke="black" points="2155.5,-1029 2155.5,-1065 2287.5,-1065 2287.5,-1029 2155.5,-1029"/>
<text text-anchor="start" x="2163.5" y="-1043.3" font-family="monospace" font-size="14.00">EX_EndOfScript</text>
</g>
<!-- All_PlayDugFree -->
<g id="node15" class="node">
<title>All_PlayDugFree</title>
<polygon fill="#ff8888" stroke="black" points="1282,-1419 1282,-1455 1497,-1455 1497,-1419 1282,-1419"/>
<text text-anchor="start" x="1290" y="-1433.3" font-family="monospace" font-size="14.00">Function All_PlayDugFree</text>
</g>
<!-- All_PlayDugFree__0 -->
<g id="node16" class="node">
<title>All_PlayDugFree__0</title>
<polygon fill="#eeeeee" stroke="black" points="1092.5,-1200.5 1092.5,-1238.5 1686.5,-1238.5 1686.5,-1200.5 1092.5,-1200.5"/>
<text text-anchor="start" x="1100.5" y="-1223.3" font-family="monospace" font-size="14.00">EX_LocalFinalFunction export BP_EnorEmd_C&#45;&gt;ExecuteUbergraph_BP_EnorEmd</text>
<text text-anchor="start" x="1100.5" y="-1208.3" font-family="monospace" font-size="14.00">  EX_IntConst 10</text>
</g>
<!-- All_PlayDugFree&#45;&gt;All_PlayDugFree__0 -->
<g id="edge11" class="edge">
<title>All_PlayDugFree&#45;&gt;All_PlayDugFree__0</title>
<path fill="none" stroke="black" d="M1389.5,-1419.09C1389.5,-1382.46 1389.5,-1295.42 1389.5,-1249.7"/>
<polygon fill="black" stroke="black" points="1393,-1249.75 1389.5,-1239.75 1386,-1249.75 1393,-1249.75"/>
</g>
<!-- All_PlayDugFree__0&#45;&gt;ExecuteUbergraph_BP_EnorEmd__10 -->
<g id="edge12" class="edge">
<title>All_PlayDugFree__0:e&#45;&gt;ExecuteUbergraph_BP_EnorEmd__10</title>
<path fill="none" stroke="red" d="M1687.5,-1219.5C1720.73,-1219.5 1749.99,-1192.42 1767.92,-1171.02"/>
<polygon fill="none" stroke="red" points="1770.44,-1173.47 1773.94,-1163.47 1764.97,-1169.1 1770.44,-1173.47"/>
</g>
<!-- All_PlayDugFree__15 -->
<g id="node17" class="node">
<title>All_PlayDugFree__15</title>
<polygon fill="#eeeeee" stroke="black" points="1231.5,-1125.5 1231.5,-1163.5 1347.5,-1163.5 1347.5,-1125.5 1231.5,-1125.5"/>
<text text-anchor="start" x="1239.5" y="-1148.3" font-family="monospace" font-size="14.00">EX_Return</text>
<text text-anchor="start" x="1239.5" y="-1133.3" font-family="monospace" font-size="14.00">  EX_Nothing</text>
</g>
<!-- All_PlayDugFree__0&#45;&gt;All_PlayDugFree__15 -->
<g id="edge13" class="edge">
<title>All_PlayDugFree__0&#45;&gt;All_PlayDugFree__15</title>
<path fill="none" stroke="black" d="M1365.04,-1200.64C1352.45,-1191.45 1336.9,-1180.1 1323.19,-1170.1"/>
<polygon fill="black" stroke="black" points="1325.42,-1167.39 1315.28,-1164.32 1321.29,-1173.04 1325.42,-1167.39"/>
</g>
<!-- All_PlayDugFree__17 -->
<g id="node18" class="node">
<title>All_PlayDugFree__17</title>
<polygon fill="#eeeeee" stroke="black" points="2101.5,-909 2101.5,-945 2233.5,-945 2233.5,-909 2101.5,-909"/>
<text text-anchor="start" x="2109.5" y="-923.3" font-family="monospace" font-size="14.00">EX_EndOfScript</text>
</g>
</g>
</svg>
