<?xml version="1.0" encoding="UTF-8" standalone="no"?>
<!DOCTYPE svg PUBLIC "-//W3C//DTD SVG 1.1//EN"
 "http://www.w3.org/Graphics/SVG/1.1/DTD/svg11.dtd">
<!-- Generated by graphviz version 7.0.1 (0)
 -->
<!-- Pages: 1 -->
<svg width="2991pt" height="2039pt"
 viewBox="0.00 0.00 2990.50 2039.00" xmlns="http://www.w3.org/2000/svg" xmlns:xlink="http://www.w3.org/1999/xlink">
<g id="graph0" class="graph" transform="scale(1 1) rotate(0) translate(4 2035)">
<polygon fill="white" stroke="none" points="-4,4 -4,-2035 2986.5,-2035 2986.5,4 -4,4"/>
<!-- NewsTicker_C -->
<g id="node1" class="node">
<title>NewsTicker_C</title>
<polygon fill="#88ff88" stroke="black" points="0,-1707.5 0,-2030.5 850,-2030.5 850,-1707.5 0,-1707.5"/>
<text text-anchor="start" x="8" y="-2015.3" font-family="monospace" font-size="14.00">ClassExport: NewsTicker_C</text>
<text text-anchor="start" x="8" y="-2000.3" font-family="monospace" font-size="14.00">  SuperStruct: import /Script/UMG&#45;&gt;UserWidget</text>
<text text-anchor="start" x="8" y="-1985.3" font-family="monospace" font-size="14.00">  Properties:</text>
<text text-anchor="start" x="8" y="-1970.3" font-family="monospace" font-size="14.00">    StructProperty UberGraphFrame</text>
<text text-anchor="start" x="8" y="-1955.3" font-family="monospace" font-size="14.00">      CPF_Transient|CPF_DuplicateTransient</text>
<text text-anchor="start" x="8" y="-1940.3" font-family="monospace" font-size="14.00">    ObjectProperty CanvasPanel_0</text>
<text text-anchor="start" x="8" y="-1925.3" font-family="monospace" font-size="14.00">      CPF_BlueprintVisible|CPF_ExportObject|CPF_InstancedReference|CPF_RepSkip|CPF_PersistentInstance</text>
<text text-anchor="start" x="8" y="-1910.3" font-family="monospace" font-size="14.00">    ObjectProperty TextBlock_379</text>
<text text-anchor="start" x="8" y="-1895.3" font-family="monospace" font-size="14.00">      CPF_BlueprintVisible|CPF_ExportObject|CPF_InstancedReference|CPF_RepSkip|CPF_PersistentInstance</text>
<text text-anchor="start" x="8" y="-1880.3" font-family="monospace" font-size="14.00">    FloatProperty StartXPosition</text>
<text text-anchor="start" x="8" y="-1865.3" font-family="monospace" font-size="14.00">      CPF_Edit|CPF_BlueprintVisible</text>
<text text-anchor="start" x="8" y="-1850.3" font-family="monospace" font-size="14.00">    FloatProperty ScrollSpeed</text>
<text text-anchor="start" x="8" y="-1835.3" font-family="monospace" font-size="14.00">      CPF_Edit|CPF_BlueprintVisible</text>
<text text-anchor="start" x="8" y="-1820.3" font-family="monospace" font-size="14.00">    StrProperty TextContents</text>
<text text-anchor="start" x="8" y="-1805.3" font-family="monospace" font-size="14.00">      CPF_Edit|CPF_BlueprintVisible</text>
<text text-anchor="start" x="8" y="-1790.3" font-family="monospace" font-size="14.00">    FloatProperty Tickerlength</text>
<text text-anchor="start" x="8" y="-1775.3" font-family="monospace" font-size="14.00">      CPF_Edit|CPF_BlueprintVisible</text>
<text text-anchor="start" x="8" y="-1760.3" font-family="monospace" font-size="14.00">    FloatProperty BackToStart</text>
<text text-anchor="start" x="8" y="-1745.3" font-family="monospace" font-size="14.00">      CPF_Edit|CPF_BlueprintVisible|CPF_DisableEditOnInstance</text>
<text text-anchor="start" x="8" y="-1730.3" font-family="monospace" font-size="14.00">    ArrayProperty TextArray</text>
<text text-anchor="start" x="8" y="-1715.3" font-family="monospace" font-size="14.00">      CPF_Edit|CPF_BlueprintVisible|CPF_DisableEditOnInstance</text>
</g>
<!-- ExecuteUbergraph_NewsTicker -->
<g id="node2" class="node">
<title>ExecuteUbergraph_NewsTicker</title>
<polygon fill="#ff8888" stroke="black" points="868.5,-1760 868.5,-1978 1363.5,-1978 1363.5,-1760 868.5,-1760"/>
<text text-anchor="start" x="876.5" y="-1962.8" font-family="monospace" font-size="14.00">Function ExecuteUbergraph_NewsTicker</text>
<text text-anchor="start" x="876.5" y="-1947.8" font-family="monospace" font-size="14.00">  IntProperty EntryPoint</text>
<text text-anchor="start" x="876.5" y="-1932.8" font-family="monospace" font-size="14.00">    CPF_BlueprintVisible|CPF_BlueprintReadOnly|CPF_Parm</text>
<text text-anchor="start" x="876.5" y="-1917.8" font-family="monospace" font-size="14.00">  BoolProperty Temp_bool_Has_Been_Initd_Variable</text>
<text text-anchor="start" x="876.5" y="-1902.8" font-family="monospace" font-size="14.00">  BoolProperty Temp_bool_IsClosed_Variable</text>
<text text-anchor="start" x="876.5" y="-1887.8" font-family="monospace" font-size="14.00">  StructProperty K2Node_Event_MyGeometry</text>
<text text-anchor="start" x="876.5" y="-1872.8" font-family="monospace" font-size="14.00">  FloatProperty K2Node_Event_InDeltaTime</text>
<text text-anchor="start" x="876.5" y="-1857.8" font-family="monospace" font-size="14.00">  FloatProperty CallFunc_Multiply_FloatFloat_ReturnValue</text>
<text text-anchor="start" x="876.5" y="-1842.8" font-family="monospace" font-size="14.00">  ObjectProperty CallFunc_SlotAsCanvasSlot_ReturnValue</text>
<text text-anchor="start" x="876.5" y="-1827.8" font-family="monospace" font-size="14.00">    CPF_InstancedReference</text>
<text text-anchor="start" x="876.5" y="-1812.8" font-family="monospace" font-size="14.00">  StructProperty CallFunc_MakeVector2D_ReturnValue</text>
<text text-anchor="start" x="876.5" y="-1797.8" font-family="monospace" font-size="14.00">  FloatProperty CallFunc_Add_FloatFloat_ReturnValue</text>
<text text-anchor="start" x="876.5" y="-1782.8" font-family="monospace" font-size="14.00">  FloatProperty CallFunc_Multiply_FloatFloat_ReturnValue_1</text>
<text text-anchor="start" x="876.5" y="-1767.8" font-family="monospace" font-size="14.00">  BoolProperty CallFunc_Less_FloatFloat_ReturnValue</text>
</g>
<!-- ExecuteUbergraph_NewsTicker__0 -->
<g id="node3" class="node">
<title>ExecuteUbergraph_NewsTicker__0</title>
<polygon fill="#eeeeee" stroke="black" points="1008.5,-1581.5 1008.5,-1617.5 1223.5,-1617.5 1223.5,-1581.5 1008.5,-1581.5"/>
<text text-anchor="start" x="1016.5" y="-1595.8" font-family="monospace" font-size="14.00">EX_PushExecutionFlow 479</text>
</g>
<!-- ExecuteUbergraph_NewsTicker&#45;&gt;ExecuteUbergraph_NewsTicker__0 -->
<g id="edge1" class="edge">
<title>ExecuteUbergraph_NewsTicker&#45;&gt;ExecuteUbergraph_NewsTicker__0</title>
<path fill="none" stroke="black" d="M1116,-1760.35C1116,-1712.42 1116,-1659.83 1116,-1628.53"/>
<polygon fill="black" stroke="black" points="1119.5,-1628.76 1116,-1618.76 1112.5,-1628.76 1119.5,-1628.76"/>
</g>
<!-- ExecuteUbergraph_NewsTicker__5 -->
<g id="node4" class="node">
<title>ExecuteUbergraph_NewsTicker__5</title>
<polygon fill="#eeeeee" stroke="black" points="948,-1438.5 948,-1476.5 1220,-1476.5 1220,-1438.5 948,-1438.5"/>
<text text-anchor="start" x="956" y="-1461.3" font-family="monospace" font-size="14.00">EX_ComputedJump</text>
<text text-anchor="start" x="956" y="-1446.3" font-family="monospace" font-size="14.00">  EX_LocalVariable [EntryPoint]</text>
</g>
<!-- ExecuteUbergraph_NewsTicker__0&#45;&gt;ExecuteUbergraph_NewsTicker__5 -->
<g id="edge3" class="edge">
<title>ExecuteUbergraph_NewsTicker__0&#45;&gt;ExecuteUbergraph_NewsTicker__5</title>
<path fill="none" stroke="black" d="M1112.14,-1581.61C1106.79,-1558.22 1097.06,-1515.62 1090.56,-1487.19"/>
<polygon fill="black" stroke="black" points="1094.05,-1486.77 1088.41,-1477.81 1087.23,-1488.33 1094.05,-1486.77"/>
</g>
<!-- ExecuteUbergraph_NewsTicker__479 -->
<g id="node32" class="node">
<title>ExecuteUbergraph_NewsTicker__479</title>
<polygon fill="#eeeeee" stroke="black" points="1238,-1438.5 1238,-1476.5 1354,-1476.5 1354,-1438.5 1238,-1438.5"/>
<text text-anchor="start" x="1246" y="-1461.3" font-family="monospace" font-size="14.00">EX_Return</text>
<text text-anchor="start" x="1246" y="-1446.3" font-family="monospace" font-size="14.00">  EX_Nothing</text>
</g>
<!-- ExecuteUbergraph_NewsTicker__0&#45;&gt;ExecuteUbergraph_NewsTicker__479 -->
<g id="edge2" class="edge">
<title>ExecuteUbergraph_NewsTicker__0:e&#45;&gt;ExecuteUbergraph_NewsTicker__479</title>
<path fill="none" stroke="red" d="M1225,-1599.5C1274.64,-1599.5 1289.58,-1528.92 1294.07,-1487.63"/>
<polygon fill="none" stroke="red" points="1297.54,-1488.15 1294.98,-1477.86 1290.57,-1487.5 1297.54,-1488.15"/>
<text text-anchor="middle" x="1332.5" y="-1524.8" font-family="monospace" font-size="14.00">PUSH STACK</text>
</g>
<!-- ExecuteUbergraph_NewsTicker__15 -->
<g id="node5" class="node">
<title>ExecuteUbergraph_NewsTicker__15</title>
<polygon fill="#eeeeee" stroke="black" points="1974,-498.5 1974,-551.5 2304,-551.5 2304,-498.5 1974,-498.5"/>
<text text-anchor="start" x="1982" y="-536.3" font-family="monospace" font-size="14.00">EX_Let</text>
<text text-anchor="start" x="1982" y="-521.3" font-family="monospace" font-size="14.00">  EX_InstanceVariable [BackToStart]</text>
<text text-anchor="start" x="1982" y="-506.3" font-family="monospace" font-size="14.00">  EX_InstanceVariable [StartXPosition]</text>
</g>
<!-- ExecuteUbergraph_NewsTicker__42 -->
<g id="node6" class="node">
<title>ExecuteUbergraph_NewsTicker__42</title>
<polygon fill="#eeeeee" stroke="black" points="2052.5,-386 2052.5,-422 2225.5,-422 2225.5,-386 2052.5,-386"/>
<text text-anchor="start" x="2060.5" y="-400.3" font-family="monospace" font-size="14.00">EX_PopExecutionFlow</text>
</g>
<!-- ExecuteUbergraph_NewsTicker__15&#45;&gt;ExecuteUbergraph_NewsTicker__42 -->
<g id="edge4" class="edge">
<title>ExecuteUbergraph_NewsTicker__15&#45;&gt;ExecuteUbergraph_NewsTicker__42</title>
<path fill="none" stroke="black" d="M2139,-498.76C2139,-479.55 2139,-453.12 2139,-433.21"/>
<polygon fill="black" stroke="black" points="2142.5,-433.3 2139,-423.3 2135.5,-433.3 2142.5,-433.3"/>
</g>
<!-- ExecuteUbergraph_NewsTicker__43 -->
<g id="node7" class="node">
<title>ExecuteUbergraph_NewsTicker__43</title>
<polygon fill="#eeeeee" stroke="black" points="1571,-619.5 1571,-672.5 2033,-672.5 2033,-619.5 1571,-619.5"/>
<text text-anchor="start" x="1579" y="-657.3" font-family="monospace" font-size="14.00">EX_LetBool</text>
<text text-anchor="start" x="1579" y="-642.3" font-family="monospace" font-size="14.00">  EX_LocalVariable [Temp_bool_Has_Been_Initd_Variable]</text>
<text text-anchor="start" x="1579" y="-627.3" font-family="monospace" font-size="14.00">  EX_True</text>
</g>
<!-- ExecuteUbergraph_NewsTicker__54 -->
<g id="node8" class="node">
<title>ExecuteUbergraph_NewsTicker__54</title>
<polygon fill="#eeeeee" stroke="black" points="1694.5,-506 1694.5,-544 1909.5,-544 1909.5,-506 1694.5,-506"/>
<text text-anchor="start" x="1702.5" y="-528.8" font-family="monospace" font-size="14.00">EX_PopExecutionFlowIfNot</text>
<text text-anchor="start" x="1702.5" y="-513.8" font-family="monospace" font-size="14.00">  EX_False</text>
</g>
<!-- ExecuteUbergraph_NewsTicker__43&#45;&gt;ExecuteUbergraph_NewsTicker__54 -->
<g id="edge5" class="edge">
<title>ExecuteUbergraph_NewsTicker__43&#45;&gt;ExecuteUbergraph_NewsTicker__54</title>
<path fill="none" stroke="black" d="M1802,-619.76C1802,-600.89 1802,-575.05 1802,-555.27"/>
<polygon fill="black" stroke="black" points="1805.5,-555.37 1802,-545.37 1798.5,-555.37 1805.5,-555.37"/>
</g>
<!-- ExecuteUbergraph_NewsTicker__56 -->
<g id="node9" class="node">
<title>ExecuteUbergraph_NewsTicker__56</title>
<polygon fill="#eeeeee" stroke="black" points="1595.5,-377.5 1595.5,-430.5 2008.5,-430.5 2008.5,-377.5 1595.5,-377.5"/>
<text text-anchor="start" x="1603.5" y="-415.3" font-family="monospace" font-size="14.00">EX_LetBool</text>
<text text-anchor="start" x="1603.5" y="-400.3" font-family="monospace" font-size="14.00">  EX_LocalVariable [Temp_bool_IsClosed_Variable]</text>
<text text-anchor="start" x="1603.5" y="-385.3" font-family="monospace" font-size="14.00">  EX_True</text>
</g>
<!-- ExecuteUbergraph_NewsTicker__54&#45;&gt;ExecuteUbergraph_NewsTicker__56 -->
<g id="edge6" class="edge">
<title>ExecuteUbergraph_NewsTicker__54&#45;&gt;ExecuteUbergraph_NewsTicker__56</title>
<path fill="none" stroke="black" d="M1802,-506.18C1802,-489.23 1802,-463.19 1802,-441.77"/>
<polygon fill="black" stroke="black" points="1805.5,-441.95 1802,-431.95 1798.5,-441.95 1805.5,-441.95"/>
</g>
<!-- ExecuteUbergraph_NewsTicker__67 -->
<g id="node10" class="node">
<title>ExecuteUbergraph_NewsTicker__67</title>
<polygon fill="#eeeeee" stroke="black" points="1715.5,-265 1715.5,-301 1888.5,-301 1888.5,-265 1715.5,-265"/>
<text text-anchor="start" x="1723.5" y="-279.3" font-family="monospace" font-size="14.00">EX_PopExecutionFlow</text>
</g>
<!-- ExecuteUbergraph_NewsTicker__56&#45;&gt;ExecuteUbergraph_NewsTicker__67 -->
<g id="edge7" class="edge">
<title>ExecuteUbergraph_NewsTicker__56&#45;&gt;ExecuteUbergraph_NewsTicker__67</title>
<path fill="none" stroke="black" d="M1802,-377.76C1802,-358.55 1802,-332.12 1802,-312.21"/>
<polygon fill="black" stroke="black" points="1805.5,-312.3 1802,-302.3 1798.5,-312.3 1805.5,-312.3"/>
</g>
<!-- ExecuteUbergraph_NewsTicker__68 -->
<g id="node11" class="node">
<title>ExecuteUbergraph_NewsTicker__68</title>
<polygon fill="#eeeeee" stroke="black" points="1261,-754.5 1261,-792.5 1723,-792.5 1723,-754.5 1261,-754.5"/>
<text text-anchor="start" x="1269" y="-777.3" font-family="monospace" font-size="14.00">EX_JumpIfNot 43</text>
<text text-anchor="start" x="1269" y="-762.3" font-family="monospace" font-size="14.00">  EX_LocalVariable [Temp_bool_Has_Been_Initd_Variable]</text>
</g>
<!-- ExecuteUbergraph_NewsTicker__68&#45;&gt;ExecuteUbergraph_NewsTicker__43 -->
<g id="edge8" class="edge">
<title>ExecuteUbergraph_NewsTicker__68:e&#45;&gt;ExecuteUbergraph_NewsTicker__43</title>
<path fill="none" stroke="red" d="M1724,-773.5C1739.74,-773.5 1725.31,-753.25 1732,-739 1741.79,-718.15 1756.87,-697.51 1770.53,-681.08"/>
<polygon fill="none" stroke="red" points="1773.12,-683.44 1776.94,-673.56 1767.79,-678.89 1773.12,-683.44"/>
<text text-anchor="middle" x="1776" y="-709.8" font-family="monospace" font-size="14.00">IF NOT</text>
</g>
<!-- ExecuteUbergraph_NewsTicker__82 -->
<g id="node12" class="node">
<title>ExecuteUbergraph_NewsTicker__82</title>
<polygon fill="#eeeeee" stroke="black" points="1379.5,-628 1379.5,-664 1552.5,-664 1552.5,-628 1379.5,-628"/>
<text text-anchor="start" x="1387.5" y="-642.3" font-family="monospace" font-size="14.00">EX_PopExecutionFlow</text>
</g>
<!-- ExecuteUbergraph_NewsTicker__68&#45;&gt;ExecuteUbergraph_NewsTicker__82 -->
<g id="edge9" class="edge">
<title>ExecuteUbergraph_NewsTicker__68&#45;&gt;ExecuteUbergraph_NewsTicker__82</title>
<path fill="none" stroke="black" d="M1488.27,-754.52C1483.95,-733.67 1476.78,-699.05 1471.75,-674.74"/>
<polygon fill="black" stroke="black" points="1475.23,-674.31 1469.78,-665.23 1468.38,-675.73 1475.23,-674.31"/>
<text text-anchor="middle" x="1490.5" y="-709.8" font-family="monospace" font-size="14.00">IF</text>
</g>
<!-- ExecuteUbergraph_NewsTicker__83 -->
<g id="node13" class="node">
<title>ExecuteUbergraph_NewsTicker__83</title>
<polygon fill="#eeeeee" stroke="black" points="1674,-988 1674,-1024 1880,-1024 1880,-988 1674,-988"/>
<text text-anchor="start" x="1682" y="-1002.3" font-family="monospace" font-size="14.00">EX_PushExecutionFlow 93</text>
</g>
<!-- ExecuteUbergraph_NewsTicker__88 -->
<g id="node14" class="node">
<title>ExecuteUbergraph_NewsTicker__88</title>
<polygon fill="#eeeeee" stroke="black" points="1515.5,-868 1515.5,-904 1614.5,-904 1614.5,-868 1515.5,-868"/>
<text text-anchor="start" x="1523.5" y="-882.3" font-family="monospace" font-size="14.00">EX_Jump 68</text>
</g>
<!-- ExecuteUbergraph_NewsTicker__83&#45;&gt;ExecuteUbergraph_NewsTicker__88 -->
<g id="edge11" class="edge">
<title>ExecuteUbergraph_NewsTicker__83&#45;&gt;ExecuteUbergraph_NewsTicker__88</title>
<path fill="none" stroke="black" d="M1746.63,-988.09C1709.47,-967.41 1646.46,-932.34 1605.29,-909.42"/>
<polygon fill="black" stroke="black" points="1607.08,-906.42 1596.64,-904.61 1603.68,-912.53 1607.08,-906.42"/>
</g>
<!-- ExecuteUbergraph_NewsTicker__93 -->
<g id="node15" class="node">
<title>ExecuteUbergraph_NewsTicker__93</title>
<polygon fill="#eeeeee" stroke="black" points="1673.5,-867 1673.5,-905 2086.5,-905 2086.5,-867 1673.5,-867"/>
<text text-anchor="start" x="1681.5" y="-889.8" font-family="monospace" font-size="14.00">EX_JumpIfNot 108</text>
<text text-anchor="start" x="1681.5" y="-874.8" font-family="monospace" font-size="14.00">  EX_LocalVariable [Temp_bool_IsClosed_Variable]</text>
</g>
<!-- ExecuteUbergraph_NewsTicker__83&#45;&gt;ExecuteUbergraph_NewsTicker__93 -->
<g id="edge10" class="edge">
<title>ExecuteUbergraph_NewsTicker__83:e&#45;&gt;ExecuteUbergraph_NewsTicker__93</title>
<path fill="none" stroke="red" d="M1881,-1006C1917.07,-1006 1903.47,-950.64 1891.18,-915.44"/>
<polygon fill="none" stroke="red" points="1894.54,-914.43 1887.82,-906.24 1887.96,-916.83 1894.54,-914.43"/>
<text text-anchor="middle" x="1941.5" y="-934.8" font-family="monospace" font-size="14.00">PUSH STACK</text>
</g>
<!-- ExecuteUbergraph_NewsTicker__88&#45;&gt;ExecuteUbergraph_NewsTicker__68 -->
<g id="edge12" class="edge">
<title>ExecuteUbergraph_NewsTicker__88&#45;&gt;ExecuteUbergraph_NewsTicker__68</title>
<path fill="none" stroke="black" d="M1553.91,-868.22C1542.26,-850.58 1523.74,-822.55 1509.99,-801.73"/>
<polygon fill="black" stroke="black" points="1512.94,-799.85 1504.51,-793.44 1507.1,-803.71 1512.94,-799.85"/>
</g>
<!-- ExecuteUbergraph_NewsTicker__107 -->
<g id="node16" class="node">
<title>ExecuteUbergraph_NewsTicker__107</title>
<polygon fill="#eeeeee" stroke="black" points="1741.5,-755.5 1741.5,-791.5 1914.5,-791.5 1914.5,-755.5 1741.5,-755.5"/>
<text text-anchor="start" x="1749.5" y="-769.8" font-family="monospace" font-size="14.00">EX_PopExecutionFlow</text>
</g>
<!-- ExecuteUbergraph_NewsTicker__93&#45;&gt;ExecuteUbergraph_NewsTicker__107 -->
<g id="edge14" class="edge">
<title>ExecuteUbergraph_NewsTicker__93&#45;&gt;ExecuteUbergraph_NewsTicker__107</title>
<path fill="none" stroke="black" d="M1871.65,-867.25C1863.32,-849.56 1850.43,-822.17 1840.82,-801.73"/>
<polygon fill="black" stroke="black" points="1844.06,-800.41 1836.64,-792.85 1837.73,-803.39 1844.06,-800.41"/>
<text text-anchor="middle" x="1867.5" y="-829.8" font-family="monospace" font-size="14.00">IF</text>
</g>
<!-- ExecuteUbergraph_NewsTicker__108 -->
<g id="node17" class="node">
<title>ExecuteUbergraph_NewsTicker__108</title>
<polygon fill="#eeeeee" stroke="black" points="1932.5,-747 1932.5,-800 2345.5,-800 2345.5,-747 1932.5,-747"/>
<text text-anchor="start" x="1940.5" y="-784.8" font-family="monospace" font-size="14.00">EX_LetBool</text>
<text text-anchor="start" x="1940.5" y="-769.8" font-family="monospace" font-size="14.00">  EX_LocalVariable [Temp_bool_IsClosed_Variable]</text>
<text text-anchor="start" x="1940.5" y="-754.8" font-family="monospace" font-size="14.00">  EX_True</text>
</g>
<!-- ExecuteUbergraph_NewsTicker__93&#45;&gt;ExecuteUbergraph_NewsTicker__108 -->
<g id="edge13" class="edge">
<title>ExecuteUbergraph_NewsTicker__93:e&#45;&gt;ExecuteUbergraph_NewsTicker__108</title>
<path fill="none" stroke="red" d="M2088,-886C2121.56,-886 2133.12,-843.72 2137.06,-811.23"/>
<polygon fill="none" stroke="red" points="2140.54,-811.6 2138.04,-801.31 2133.57,-810.91 2140.54,-811.6"/>
<text text-anchor="middle" x="2160" y="-829.8" font-family="monospace" font-size="14.00">IF NOT</text>
</g>
<!-- ExecuteUbergraph_NewsTicker__119 -->
<g id="node18" class="node">
<title>ExecuteUbergraph_NewsTicker__119</title>
<polygon fill="#eeeeee" stroke="black" points="2089.5,-628 2089.5,-664 2188.5,-664 2188.5,-628 2089.5,-628"/>
<text text-anchor="start" x="2097.5" y="-642.3" font-family="monospace" font-size="14.00">EX_Jump 15</text>
</g>
<!-- ExecuteUbergraph_NewsTicker__108&#45;&gt;ExecuteUbergraph_NewsTicker__119 -->
<g id="edge15" class="edge">
<title>ExecuteUbergraph_NewsTicker__108&#45;&gt;ExecuteUbergraph_NewsTicker__119</title>
<path fill="none" stroke="black" d="M2139,-747.1C2139,-726.29 2139,-696.86 2139,-675.29"/>
<polygon fill="black" stroke="black" points="2142.5,-675.44 2139,-665.44 2135.5,-675.44 2142.5,-675.44"/>
</g>
<!-- ExecuteUbergraph_NewsTicker__119&#45;&gt;ExecuteUbergraph_NewsTicker__15 -->
<g id="edge16" class="edge">
<title>ExecuteUbergraph_NewsTicker__119&#45;&gt;ExecuteUbergraph_NewsTicker__15</title>
<path fill="none" stroke="black" d="M2139,-628.2C2139,-611.26 2139,-584.55 2139,-562.69"/>
<polygon fill="black" stroke="black" points="2142.5,-562.96 2139,-552.96 2135.5,-562.96 2142.5,-562.96"/>
</g>
<!-- ExecuteUbergraph_NewsTicker__124 -->
<g id="node19" class="node">
<title>ExecuteUbergraph_NewsTicker__124</title>
<polygon fill="#eeeeee" stroke="black" points="1837.5,-1221.5 1837.5,-1257.5 2052.5,-1257.5 2052.5,-1221.5 1837.5,-1221.5"/>
<text text-anchor="start" x="1845.5" y="-1235.8" font-family="monospace" font-size="14.00">EX_PushExecutionFlow 134</text>
</g>
<!-- ExecuteUbergraph_NewsTicker__129 -->
<g id="node20" class="node">
<title>ExecuteUbergraph_NewsTicker__129</title>
<polygon fill="#eeeeee" stroke="black" points="1751.5,-1109 1751.5,-1145 1850.5,-1145 1850.5,-1109 1751.5,-1109"/>
<text text-anchor="start" x="1759.5" y="-1123.3" font-family="monospace" font-size="14.00">EX_Jump 83</text>
</g>
<!-- ExecuteUbergraph_NewsTicker__124&#45;&gt;ExecuteUbergraph_NewsTicker__129 -->
<g id="edge18" class="edge">
<title>ExecuteUbergraph_NewsTicker__124&#45;&gt;ExecuteUbergraph_NewsTicker__129</title>
<path fill="none" stroke="black" d="M1923.13,-1221.72C1898.81,-1203.06 1859.35,-1172.78 1831.89,-1151.7"/>
<polygon fill="black" stroke="black" points="1834.34,-1149.17 1824.28,-1145.86 1830.08,-1154.73 1834.34,-1149.17"/>
</g>
<!-- ExecuteUbergraph_NewsTicker__134 -->
<g id="node21" class="node">
<title>ExecuteUbergraph_NewsTicker__134</title>
<polygon fill="#eeeeee" stroke="black" points="1949.5,-1085.5 1949.5,-1168.5 2584.5,-1168.5 2584.5,-1085.5 1949.5,-1085.5"/>
<text text-anchor="start" x="1957.5" y="-1153.3" font-family="monospace" font-size="14.00">EX_Let</text>
<text text-anchor="start" x="1957.5" y="-1138.3" font-family="monospace" font-size="14.00">  EX_LocalVariable [CallFunc_Multiply_FloatFloat_ReturnValue]</text>
<text text-anchor="start" x="1957.5" y="-1123.3" font-family="monospace" font-size="14.00">  EX_CallMath import /Script/Engine&#45;&gt;KismetMathLibrary&#45;&gt;Multiply_FloatFloat</text>
<text text-anchor="start" x="1957.5" y="-1108.3" font-family="monospace" font-size="14.00">    EX_InstanceVariable [ScrollSpeed]</text>
<text text-anchor="start" x="1957.5" y="-1093.3" font-family="monospace" font-size="14.00">    EX_FloatConst &#45;1</text>
</g>
<!-- ExecuteUbergraph_NewsTicker__124&#45;&gt;ExecuteUbergraph_NewsTicker__134 -->
<g id="edge17" class="edge">
<title>ExecuteUbergraph_NewsTicker__124:e&#45;&gt;ExecuteUbergraph_NewsTicker__134</title>
<path fill="none" stroke="red" d="M2054,-1239.5C2112.98,-1239.5 2171.75,-1205.53 2212.57,-1175.08"/>
<polygon fill="none" stroke="red" points="2214.49,-1178.02 2220.31,-1169.17 2210.24,-1172.46 2214.49,-1178.02"/>
<text text-anchor="middle" x="2237.5" y="-1190.8" font-family="monospace" font-size="14.00">PUSH STACK</text>
</g>
<!-- ExecuteUbergraph_NewsTicker__129&#45;&gt;ExecuteUbergraph_NewsTicker__83 -->
<g id="edge19" class="edge">
<title>ExecuteUbergraph_NewsTicker__129&#45;&gt;ExecuteUbergraph_NewsTicker__83</title>
<path fill="none" stroke="black" d="M1797.61,-1109.2C1793.72,-1089.89 1787.26,-1057.89 1782.61,-1034.84"/>
<polygon fill="black" stroke="black" points="1786.08,-1034.31 1780.67,-1025.2 1779.22,-1035.69 1786.08,-1034.31"/>
</g>
<!-- ExecuteUbergraph_NewsTicker__176 -->
<g id="node22" class="node">
<title>ExecuteUbergraph_NewsTicker__176</title>
<polygon fill="#eeeeee" stroke="black" points="2052,-964.5 2052,-1047.5 2646,-1047.5 2646,-964.5 2052,-964.5"/>
<text text-anchor="start" x="2060" y="-1032.3" font-family="monospace" font-size="14.00">EX_Let</text>
<text text-anchor="start" x="2060" y="-1017.3" font-family="monospace" font-size="14.00">  EX_LocalVariable [CallFunc_Add_FloatFloat_ReturnValue]</text>
<text text-anchor="start" x="2060" y="-1002.3" font-family="monospace" font-size="14.00">  EX_CallMath import /Script/Engine&#45;&gt;KismetMathLibrary&#45;&gt;Add_FloatFloat</text>
<text text-anchor="start" x="2060" y="-987.3" font-family="monospace" font-size="14.00">    EX_InstanceVariable [StartXPosition]</text>
<text text-anchor="start" x="2060" y="-972.3" font-family="monospace" font-size="14.00">    EX_LocalVariable [CallFunc_Multiply_FloatFloat_ReturnValue]</text>
</g>
<!-- ExecuteUbergraph_NewsTicker__134&#45;&gt;ExecuteUbergraph_NewsTicker__176 -->
<g id="edge20" class="edge">
<title>ExecuteUbergraph_NewsTicker__134&#45;&gt;ExecuteUbergraph_NewsTicker__176</title>
<path fill="none" stroke="black" d="M2294.76,-1085.71C2301.24,-1076.31 2308.21,-1066.19 2314.93,-1056.44"/>
<polygon fill="black" stroke="black" points="2317.62,-1058.71 2320.41,-1048.49 2311.85,-1054.74 2317.62,-1058.71"/>
</g>
<!-- ExecuteUbergraph_NewsTicker__222 -->
<g id="node23" class="node">
<title>ExecuteUbergraph_NewsTicker__222</title>
<polygon fill="#eeeeee" stroke="black" points="2264.5,-859.5 2264.5,-912.5 2743.5,-912.5 2743.5,-859.5 2264.5,-859.5"/>
<text text-anchor="start" x="2272.5" y="-897.3" font-family="monospace" font-size="14.00">EX_Let</text>
<text text-anchor="start" x="2272.5" y="-882.3" font-family="monospace" font-size="14.00">  EX_InstanceVariable [StartXPosition]</text>
<text text-anchor="start" x="2272.5" y="-867.3" font-family="monospace" font-size="14.00">  EX_LocalVariable [CallFunc_Add_FloatFloat_ReturnValue]</text>
</g>
<!-- ExecuteUbergraph_NewsTicker__176&#45;&gt;ExecuteUbergraph_NewsTicker__222 -->
<g id="edge21" class="edge">
<title>ExecuteUbergraph_NewsTicker__176&#45;&gt;ExecuteUbergraph_NewsTicker__222</title>
<path fill="none" stroke="black" d="M2401.91,-964.72C2421.42,-949.87 2443.24,-933.26 2461.69,-919.21"/>
<polygon fill="black" stroke="black" points="2463.68,-922.09 2469.52,-913.25 2459.44,-916.52 2463.68,-922.09"/>
</g>
<!-- ExecuteUbergraph_NewsTicker__249 -->
<g id="node24" class="node">
<title>ExecuteUbergraph_NewsTicker__249</title>
<polygon fill="#eeeeee" stroke="black" points="2364,-739.5 2364,-807.5 2966,-807.5 2966,-739.5 2364,-739.5"/>
<text text-anchor="start" x="2372" y="-792.3" font-family="monospace" font-size="14.00">EX_LetObj</text>
<text text-anchor="start" x="2372" y="-777.3" font-family="monospace" font-size="14.00">  EX_LocalVariable [CallFunc_SlotAsCanvasSlot_ReturnValue]</text>
<text text-anchor="start" x="2372" y="-762.3" font-family="monospace" font-size="14.00">  EX_CallMath import /Script/UMG&#45;&gt;WidgetLayoutLibrary&#45;&gt;SlotAsCanvasSlot</text>
<text text-anchor="start" x="2372" y="-747.3" font-family="monospace" font-size="14.00">    EX_InstanceVariable [TextBlock_379]</text>
</g>
<!-- ExecuteUbergraph_NewsTicker__222&#45;&gt;ExecuteUbergraph_NewsTicker__249 -->
<g id="edge22" class="edge">
<title>ExecuteUbergraph_NewsTicker__222&#45;&gt;ExecuteUbergraph_NewsTicker__249</title>
<path fill="none" stroke="black" d="M2540.94,-859.65C2560.68,-846.1 2585.42,-829.12 2607.6,-813.9"/>
<polygon fill="black" stroke="black" points="2609.42,-816.89 2615.68,-808.35 2605.46,-811.12 2609.42,-816.89"/>
</g>
<!-- ExecuteUbergraph_NewsTicker__278 -->
<g id="node25" class="node">
<title>ExecuteUbergraph_NewsTicker__278</title>
<polygon fill="#eeeeee" stroke="black" points="2376,-604.5 2376,-687.5 2954,-687.5 2954,-604.5 2376,-604.5"/>
<text text-anchor="start" x="2384" y="-672.3" font-family="monospace" font-size="14.00">EX_Let</text>
<text text-anchor="start" x="2384" y="-657.3" font-family="monospace" font-size="14.00">  EX_LocalVariable [CallFunc_MakeVector2D_ReturnValue]</text>
<text text-anchor="start" x="2384" y="-642.3" font-family="monospace" font-size="14.00">  EX_CallMath import /Script/Engine&#45;&gt;KismetMathLibrary&#45;&gt;MakeVector2D</text>
<text text-anchor="start" x="2384" y="-627.3" font-family="monospace" font-size="14.00">    EX_InstanceVariable [StartXPosition]</text>
<text text-anchor="start" x="2384" y="-612.3" font-family="monospace" font-size="14.00">    EX_FloatConst 0</text>
</g>
<!-- ExecuteUbergraph_NewsTicker__249&#45;&gt;ExecuteUbergraph_NewsTicker__278 -->
<g id="edge23" class="edge">
<title>ExecuteUbergraph_NewsTicker__249&#45;&gt;ExecuteUbergraph_NewsTicker__278</title>
<path fill="none" stroke="black" d="M2665,-739.53C2665,-727.04 2665,-712.52 2665,-698.72"/>
<polygon fill="black" stroke="black" points="2668.5,-698.88 2665,-688.88 2661.5,-698.88 2668.5,-698.88"/>
</g>
<!-- ExecuteUbergraph_NewsTicker__320 -->
<g id="node26" class="node">
<title>ExecuteUbergraph_NewsTicker__320</title>
<polygon fill="#eeeeee" stroke="black" points="2380.5,-483.5 2380.5,-566.5 2949.5,-566.5 2949.5,-483.5 2380.5,-483.5"/>
<text text-anchor="start" x="2388.5" y="-551.3" font-family="monospace" font-size="14.00">EX_Context</text>
<text text-anchor="start" x="2388.5" y="-536.3" font-family="monospace" font-size="14.00">  EX_LocalVariable [CallFunc_SlotAsCanvasSlot_ReturnValue]</text>
<text text-anchor="start" x="2388.5" y="-521.3" font-family="monospace" font-size="14.00">  EX_FinalFunction import /Script/UMG&#45;&gt;CanvasPanelSlot&#45;&gt;SetPosition</text>
<text text-anchor="start" x="2388.5" y="-506.3" font-family="monospace" font-size="14.00">    EX_LocalVariable [CallFunc_MakeVector2D_ReturnValue]</text>
<text text-anchor="start" x="2388.5" y="-491.3" font-family="monospace" font-size="14.00">  RValue = []</text>
</g>
<!-- ExecuteUbergraph_NewsTicker__278&#45;&gt;ExecuteUbergraph_NewsTicker__320 -->
<g id="edge24" class="edge">
<title>ExecuteUbergraph_NewsTicker__278&#45;&gt;ExecuteUbergraph_NewsTicker__320</title>
<path fill="none" stroke="black" d="M2665,-604.71C2665,-595.99 2665,-586.65 2665,-577.56"/>
<polygon fill="black" stroke="black" points="2668.5,-577.76 2665,-567.76 2661.5,-577.76 2668.5,-577.76"/>
</g>
<!-- ExecuteUbergraph_NewsTicker__361 -->
<g id="node27" class="node">
<title>ExecuteUbergraph_NewsTicker__361</title>
<polygon fill="#eeeeee" stroke="black" points="2347.5,-362.5 2347.5,-445.5 2982.5,-445.5 2982.5,-362.5 2347.5,-362.5"/>
<text text-anchor="start" x="2355.5" y="-430.3" font-family="monospace" font-size="14.00">EX_Let</text>
<text text-anchor="start" x="2355.5" y="-415.3" font-family="monospace" font-size="14.00">  EX_LocalVariable [CallFunc_Multiply_FloatFloat_ReturnValue_1]</text>
<text text-anchor="start" x="2355.5" y="-400.3" font-family="monospace" font-size="14.00">  EX_CallMath import /Script/Engine&#45;&gt;KismetMathLibrary&#45;&gt;Multiply_FloatFloat</text>
<text text-anchor="start" x="2355.5" y="-385.3" font-family="monospace" font-size="14.00">    EX_InstanceVariable [Tickerlength]</text>
<text text-anchor="start" x="2355.5" y="-370.3" font-family="monospace" font-size="14.00">    EX_FloatConst &#45;1</text>
</g>
<!-- ExecuteUbergraph_NewsTicker__320&#45;&gt;ExecuteUbergraph_NewsTicker__361 -->
<g id="edge25" class="edge">
<title>ExecuteUbergraph_NewsTicker__320&#45;&gt;ExecuteUbergraph_NewsTicker__361</title>
<path fill="none" stroke="black" d="M2665,-483.71C2665,-474.99 2665,-465.65 2665,-456.56"/>
<polygon fill="black" stroke="black" points="2668.5,-456.76 2665,-446.76 2661.5,-456.76 2668.5,-456.76"/>
</g>
<!-- ExecuteUbergraph_NewsTicker__403 -->
<g id="node28" class="node">
<title>ExecuteUbergraph_NewsTicker__403</title>
<polygon fill="#eeeeee" stroke="black" points="2364,-241.5 2364,-324.5 2966,-324.5 2966,-241.5 2364,-241.5"/>
<text text-anchor="start" x="2372" y="-309.3" font-family="monospace" font-size="14.00">EX_LetBool</text>
<text text-anchor="start" x="2372" y="-294.3" font-family="monospace" font-size="14.00">  EX_LocalVariable [CallFunc_Less_FloatFloat_ReturnValue]</text>
<text text-anchor="start" x="2372" y="-279.3" font-family="monospace" font-size="14.00">  EX_CallMath import /Script/Engine&#45;&gt;KismetMathLibrary&#45;&gt;Less_FloatFloat</text>
<text text-anchor="start" x="2372" y="-264.3" font-family="monospace" font-size="14.00">    EX_InstanceVariable [StartXPosition]</text>
<text text-anchor="start" x="2372" y="-249.3" font-family="monospace" font-size="14.00">    EX_LocalVariable [CallFunc_Multiply_FloatFloat_ReturnValue_1]</text>
</g>
<!-- ExecuteUbergraph_NewsTicker__361&#45;&gt;ExecuteUbergraph_NewsTicker__403 -->
<g id="edge26" class="edge">
<title>ExecuteUbergraph_NewsTicker__361&#45;&gt;ExecuteUbergraph_NewsTicker__403</title>
<path fill="none" stroke="black" d="M2665,-362.71C2665,-353.99 2665,-344.65 2665,-335.56"/>
<polygon fill="black" stroke="black" points="2668.5,-335.76 2665,-325.76 2661.5,-335.76 2668.5,-335.76"/>
</g>
<!-- ExecuteUbergraph_NewsTicker__441 -->
<g id="node29" class="node">
<title>ExecuteUbergraph_NewsTicker__441</title>
<polygon fill="#eeeeee" stroke="black" points="2421.5,-165.5 2421.5,-203.5 2908.5,-203.5 2908.5,-165.5 2421.5,-165.5"/>
<text text-anchor="start" x="2429.5" y="-188.3" font-family="monospace" font-size="14.00">EX_PopExecutionFlowIfNot</text>
<text text-anchor="start" x="2429.5" y="-173.3" font-family="monospace" font-size="14.00">  EX_LocalVariable [CallFunc_Less_FloatFloat_ReturnValue]</text>
</g>
<!-- ExecuteUbergraph_NewsTicker__403&#45;&gt;ExecuteUbergraph_NewsTicker__441 -->
<g id="edge27" class="edge">
<title>ExecuteUbergraph_NewsTicker__403&#45;&gt;ExecuteUbergraph_NewsTicker__441</title>
<path fill="none" stroke="black" d="M2665,-241.63C2665,-232.51 2665,-222.99 2665,-214.45"/>
<polygon fill="black" stroke="black" points="2668.5,-214.66 2665,-204.66 2661.5,-214.66 2668.5,-214.66"/>
</g>
<!-- ExecuteUbergraph_NewsTicker__451 -->
<g id="node30" class="node">
<title>ExecuteUbergraph_NewsTicker__451</title>
<polygon fill="#eeeeee" stroke="black" points="2500,-74.5 2500,-127.5 2830,-127.5 2830,-74.5 2500,-74.5"/>
<text text-anchor="start" x="2508" y="-112.3" font-family="monospace" font-size="14.00">EX_Let</text>
<text text-anchor="start" x="2508" y="-97.3" font-family="monospace" font-size="14.00">  EX_InstanceVariable [StartXPosition]</text>
<text text-anchor="start" x="2508" y="-82.3" font-family="monospace" font-size="14.00">  EX_InstanceVariable [BackToStart]</text>
</g>
<!-- ExecuteUbergraph_NewsTicker__441&#45;&gt;ExecuteUbergraph_NewsTicker__451 -->
<g id="edge28" class="edge">
<title>ExecuteUbergraph_NewsTicker__441&#45;&gt;ExecuteUbergraph_NewsTicker__451</title>
<path fill="none" stroke="black" d="M2665,-165.82C2665,-157.83 2665,-148.08 2665,-138.62"/>
<polygon fill="black" stroke="black" points="2668.5,-138.9 2665,-128.9 2661.5,-138.9 2668.5,-138.9"/>
</g>
<!-- ExecuteUbergraph_NewsTicker__478 -->
<g id="node31" class="node">
<title>ExecuteUbergraph_NewsTicker__478</title>
<polygon fill="#eeeeee" stroke="black" points="2578.5,-0.5 2578.5,-36.5 2751.5,-36.5 2751.5,-0.5 2578.5,-0.5"/>
<text text-anchor="start" x="2586.5" y="-14.8" font-family="monospace" font-size="14.00">EX_PopExecutionFlow</text>
</g>
<!-- ExecuteUbergraph_NewsTicker__451&#45;&gt;ExecuteUbergraph_NewsTicker__478 -->
<g id="edge29" class="edge">
<title>ExecuteUbergraph_NewsTicker__451&#45;&gt;ExecuteUbergraph_NewsTicker__478</title>
<path fill="none" stroke="black" d="M2665,-74.53C2665,-65.92 2665,-56.25 2665,-47.46"/>
<polygon fill="black" stroke="black" points="2668.5,-47.69 2665,-37.69 2661.5,-47.69 2668.5,-47.69"/>
</g>
<!-- ExecuteUbergraph_NewsTicker__481 -->
<g id="node33" class="node">
<title>ExecuteUbergraph_NewsTicker__481</title>
<polygon fill="#eeeeee" stroke="black" points="1862,-1652.5 1862,-1688.5 1994,-1688.5 1994,-1652.5 1862,-1652.5"/>
<text text-anchor="start" x="1870" y="-1666.8" font-family="monospace" font-size="14.00">EX_EndOfScript</text>
</g>
<!-- Tick -->
<g id="node34" class="node">
<title>Tick</title>
<polygon fill="#ff8888" stroke="black" points="1413,-1827.5 1413,-1910.5 1883,-1910.5 1883,-1827.5 1413,-1827.5"/>
<text text-anchor="start" x="1421" y="-1895.3" font-family="monospace" font-size="14.00">Function Tick</text>
<text text-anchor="start" x="1421" y="-1880.3" font-family="monospace" font-size="14.00">  StructProperty MyGeometry</text>
<text text-anchor="start" x="1421" y="-1865.3" font-family="monospace" font-size="14.00">    CPF_BlueprintVisible|CPF_BlueprintReadOnly|CPF_Parm</text>
<text text-anchor="start" x="1421" y="-1850.3" font-family="monospace" font-size="14.00">  FloatProperty InDeltaTime</text>
<text text-anchor="start" x="1421" y="-1835.3" font-family="monospace" font-size="14.00">    CPF_BlueprintVisible|CPF_BlueprintReadOnly|CPF_Parm</text>
</g>
<!-- Tick__0 -->
<g id="node35" class="node">
<title>Tick__0</title>
<polygon fill="#eeeeee" stroke="black" points="1417,-1580.5 1417,-1618.5 1879,-1618.5 1879,-1580.5 1417,-1580.5"/>
<text text-anchor="start" x="1425" y="-1603.3" font-family="monospace" font-size="14.00">EX_LetValueOnPersistentFrame [K2Node_Event_MyGeometry]</text>
<text text-anchor="start" x="1425" y="-1588.3" font-family="monospace" font-size="14.00">  EX_LocalVariable [MyGeometry]</text>
</g>
<!-- Tick&#45;&gt;Tick__0 -->
<g id="edge30" class="edge">
<title>Tick&#45;&gt;Tick__0</title>
<path fill="none" stroke="black" d="M1648,-1827.66C1648,-1773.28 1648,-1677.76 1648,-1629.77"/>
<polygon fill="black" stroke="black" points="1651.5,-1629.89 1648,-1619.89 1644.5,-1629.89 1651.5,-1629.89"/>
</g>
<!-- Tick__18 -->
<g id="node36" class="node">
<title>Tick__18</title>
<polygon fill="#eeeeee" stroke="black" points="1413,-1438.5 1413,-1476.5 1883,-1476.5 1883,-1438.5 1413,-1438.5"/>
<text text-anchor="start" x="1421" y="-1461.3" font-family="monospace" font-size="14.00">EX_LetValueOnPersistentFrame [K2Node_Event_InDeltaTime]</text>
<text text-anchor="start" x="1421" y="-1446.3" font-family="monospace" font-size="14.00">  EX_LocalVariable [InDeltaTime]</text>
</g>
<!-- Tick__0&#45;&gt;Tick__18 -->
<g id="edge31" class="edge">
<title>Tick__0&#45;&gt;Tick__18</title>
<path fill="none" stroke="black" d="M1648,-1580.77C1648,-1557.31 1648,-1515.66 1648,-1487.56"/>
<polygon fill="black" stroke="black" points="1651.5,-1487.6 1648,-1477.6 1644.5,-1487.6 1651.5,-1487.6"/>
</g>
<!-- Tick__36 -->
<g id="node37" class="node">
<title>Tick__36</title>
<polygon fill="#eeeeee" stroke="black" points="1351,-1304 1351,-1342 1945,-1342 1945,-1304 1351,-1304"/>
<text text-anchor="start" x="1359" y="-1326.8" font-family="monospace" font-size="14.00">EX_LocalFinalFunction export NewsTicker_C&#45;&gt;ExecuteUbergraph_NewsTicker</text>
<text text-anchor="start" x="1359" y="-1311.8" font-family="monospace" font-size="14.00">  EX_IntConst 124</text>
</g>
<!-- Tick__18&#45;&gt;Tick__36 -->
<g id="edge32" class="edge">
<title>Tick__18&#45;&gt;Tick__36</title>
<path fill="none" stroke="black" d="M1648,-1438.63C1648,-1416.68 1648,-1379.14 1648,-1353.03"/>
<polygon fill="black" stroke="black" points="1651.5,-1353.1 1648,-1343.1 1644.5,-1353.1 1651.5,-1353.1"/>
</g>
<!-- Tick__36&#45;&gt;ExecuteUbergraph_NewsTicker__124 -->
<g id="edge33" class="edge">
<title>Tick__36:e&#45;&gt;ExecuteUbergraph_NewsTicker__124</title>
<path fill="none" stroke="red" d="M1946,-1323C1968.51,-1323 1963.01,-1291.92 1955.41,-1267.92"/>
<polygon fill="none" stroke="red" points="1958.78,-1266.96 1952.23,-1258.63 1952.15,-1269.22 1958.78,-1266.96"/>
</g>
<!-- Tick__51 -->
<g id="node38" class="node">
<title>Tick__51</title>
<polygon fill="#eeeeee" stroke="black" points="1590,-1220.5 1590,-1258.5 1706,-1258.5 1706,-1220.5 1590,-1220.5"/>
<text text-anchor="start" x="1598" y="-1243.3" font-family="monospace" font-size="14.00">EX_Return</text>
<text text-anchor="start" x="1598" y="-1228.3" font-family="monospace" font-size="14.00">  EX_Nothing</text>
</g>
<!-- Tick__36&#45;&gt;Tick__51 -->
<g id="edge34" class="edge">
<title>Tick__36&#45;&gt;Tick__51</title>
<path fill="none" stroke="black" d="M1648,-1304.32C1648,-1294.24 1648,-1281.36 1648,-1269.81"/>
<polygon fill="black" stroke="black" points="1651.5,-1269.94 1648,-1259.94 1644.5,-1269.94 1651.5,-1269.94"/>
</g>
<!-- Tick__53 -->
<g id="node39" class="node">
<title>Tick__53</title>
<polygon fill="#eeeeee" stroke="black" points="1862,-1510.5 1862,-1546.5 1994,-1546.5 1994,-1510.5 1862,-1510.5"/>
<text text-anchor="start" x="1870" y="-1524.8" font-family="monospace" font-size="14.00">EX_EndOfScript</text>
</g>
<!-- GetText_0 -->
<g id="node40" class="node">
<title>GetText_0</title>
<polygon fill="#ff8888" stroke="black" points="1980,-1835 1980,-1903 2434,-1903 2434,-1835 1980,-1835"/>
<text text-anchor="start" x="1988" y="-1887.8" font-family="monospace" font-size="14.00">Function GetText_0</text>
<text text-anchor="start" x="1988" y="-1872.8" font-family="monospace" font-size="14.00">  TextProperty ReturnValue</text>
<text text-anchor="start" x="1988" y="-1857.8" font-family="monospace" font-size="14.00">    CPF_Parm|CPF_OutParm|CPF_ReturnParm</text>
<text text-anchor="start" x="1988" y="-1842.8" font-family="monospace" font-size="14.00">  TextProperty CallFunc_Conv_StringToText_ReturnValue</text>
</g>
<!-- GetText_0__0 -->
<g id="node41" class="node">
<title>GetText_0__0</title>
<polygon fill="#eeeeee" stroke="black" points="1897.5,-1565.5 1897.5,-1633.5 2516.5,-1633.5 2516.5,-1565.5 1897.5,-1565.5"/>
<text text-anchor="start" x="1905.5" y="-1618.3" font-family="monospace" font-size="14.00">EX_Let</text>
<text text-anchor="start" x="1905.5" y="-1603.3" font-family="monospace" font-size="14.00">  EX_LocalVariable [CallFunc_Conv_StringToText_ReturnValue]</text>
<text text-anchor="start" x="1905.5" y="-1588.3" font-family="monospace" font-size="14.00">  EX_CallMath import /Script/Engine&#45;&gt;KismetTextLibrary&#45;&gt;Conv_StringToText</text>
<text text-anchor="start" x="1905.5" y="-1573.3" font-family="monospace" font-size="14.00">    EX_InstanceVariable [TextContents]</text>
</g>
<!-- GetText_0&#45;&gt;GetText_0__0 -->
<g id="edge35" class="edge">
<title>GetText_0&#45;&gt;GetText_0__0</title>
<path fill="none" stroke="black" d="M2207,-1835.2C2207,-1787.24 2207,-1697.87 2207,-1644.33"/>
<polygon fill="black" stroke="black" points="2210.5,-1644.66 2207,-1634.66 2203.5,-1644.66 2210.5,-1644.66"/>
</g>
<!-- GetText_0__37 -->
<g id="node42" class="node">
<title>GetText_0__37</title>
<polygon fill="#eeeeee" stroke="black" points="1955.5,-1423.5 1955.5,-1491.5 2458.5,-1491.5 2458.5,-1423.5 1955.5,-1423.5"/>
<text text-anchor="start" x="1963.5" y="-1476.3" font-family="monospace" font-size="14.00">EX_Let</text>
<text text-anchor="start" x="1963.5" y="-1461.3" font-family="monospace" font-size="14.00">  EX_LocalOutVariable</text>
<text text-anchor="start" x="1963.5" y="-1446.3" font-family="monospace" font-size="14.00">    [ReturnValue]</text>
<text text-anchor="start" x="1963.5" y="-1431.3" font-family="monospace" font-size="14.00">  EX_LocalVariable [CallFunc_Conv_StringToText_ReturnValue]</text>
</g>
<!-- GetText_0__0&#45;&gt;GetText_0__37 -->
<g id="edge36" class="edge">
<title>GetText_0__0&#45;&gt;GetText_0__37</title>
<path fill="none" stroke="black" d="M2207,-1565.68C2207,-1546.81 2207,-1522.86 2207,-1502.39"/>
<polygon fill="black" stroke="black" points="2210.5,-1502.63 2207,-1492.63 2203.5,-1502.63 2210.5,-1502.63"/>
</g>
<!-- GetText_0__64 -->
<g id="node43" class="node">
<title>GetText_0__64</title>
<polygon fill="#eeeeee" stroke="black" points="2112,-1296.5 2112,-1349.5 2302,-1349.5 2302,-1296.5 2112,-1296.5"/>
<text text-anchor="start" x="2120" y="-1334.3" font-family="monospace" font-size="14.00">EX_Return</text>
<text text-anchor="start" x="2120" y="-1319.3" font-family="monospace" font-size="14.00">  EX_LocalOutVariable</text>
<text text-anchor="start" x="2120" y="-1304.3" font-family="monospace" font-size="14.00">    [ReturnValue]</text>
</g>
<!-- GetText_0__37&#45;&gt;GetText_0__64 -->
<g id="edge37" class="edge">
<title>GetText_0__37&#45;&gt;GetText_0__64</title>
<path fill="none" stroke="black" d="M2207,-1423.75C2207,-1404.62 2207,-1380.43 2207,-1360.67"/>
<polygon fill="black" stroke="black" points="2210.5,-1360.83 2207,-1350.83 2203.5,-1360.83 2210.5,-1360.83"/>
</g>
<!-- GetText_0__74 -->
<g id="node44" class="node">
<title>GetText_0__74</title>
<polygon fill="#eeeeee" stroke="black" points="2222,-1368.5 2222,-1404.5 2354,-1404.5 2354,-1368.5 2222,-1368.5"/>
<text text-anchor="start" x="2230" y="-1382.8" font-family="monospace" font-size="14.00">EX_EndOfScript</text>
</g>
</g>
</svg>
