<?xml version="1.0" encoding="UTF-8" standalone="no"?>
<!DOCTYPE svg PUBLIC "-//W3C//DTD SVG 1.1//EN"
 "http://www.w3.org/Graphics/SVG/1.1/DTD/svg11.dtd">
<!-- Generated by graphviz version 7.0.1 (0)
 -->
<!-- Pages: 1 -->
<svg width="1558pt" height="692pt"
 viewBox="0.00 0.00 1558.00 692.00" xmlns="http://www.w3.org/2000/svg" xmlns:xlink="http://www.w3.org/1999/xlink">
<g id="graph0" class="graph" transform="scale(1 1) rotate(0) translate(4 688)">
<polygon fill="white" stroke="none" points="-4,4 -4,-688 1554,-688 1554,4 -4,4"/>
<!-- ABP_FacilityShieldEmitter_C -->
<g id="node1" class="node">
<title>ABP_FacilityShieldEmitter_C</title>
<polygon fill="#88ff88" stroke="black" points="0,-195.5 0,-683.5 520,-683.5 520,-195.5 0,-195.5"/>
<text text-anchor="start" x="8" y="-668.3" font-family="monospace" font-size="14.00">ClassExport: ABP_FacilityShieldEmitter_C</text>
<text text-anchor="start" x="8" y="-653.3" font-family="monospace" font-size="14.00">  SuperStruct: import /Script/Engine&#45;&gt;AnimInstance</text>
<text text-anchor="start" x="8" y="-638.3" font-family="monospace" font-size="14.00">  Properties:</text>
<text text-anchor="start" x="8" y="-623.3" font-family="monospace" font-size="14.00">    StructProperty UberGraphFrame</text>
<text text-anchor="start" x="8" y="-608.3" font-family="monospace" font-size="14.00">      CPF_Transient|CPF_DuplicateTransient</text>
<text text-anchor="start" x="8" y="-593.3" font-family="monospace" font-size="14.00">    StructProperty AnimGraphNode_Root</text>
<text text-anchor="start" x="8" y="-578.3" font-family="monospace" font-size="14.00">    StructProperty AnimGraphNode_TransitionResult_5</text>
<text text-anchor="start" x="8" y="-563.3" font-family="monospace" font-size="14.00">    StructProperty AnimGraphNode_TransitionResult_4</text>
<text text-anchor="start" x="8" y="-548.3" font-family="monospace" font-size="14.00">    StructProperty AnimGraphNode_TransitionResult_3</text>
<text text-anchor="start" x="8" y="-533.3" font-family="monospace" font-size="14.00">    StructProperty AnimGraphNode_SequencePlayer_5</text>
<text text-anchor="start" x="8" y="-518.3" font-family="monospace" font-size="14.00">    StructProperty AnimGraphNode_StateResult_5</text>
<text text-anchor="start" x="8" y="-503.3" font-family="monospace" font-size="14.00">    StructProperty AnimGraphNode_SequencePlayer_4</text>
<text text-anchor="start" x="8" y="-488.3" font-family="monospace" font-size="14.00">    StructProperty AnimGraphNode_StateResult_4</text>
<text text-anchor="start" x="8" y="-473.3" font-family="monospace" font-size="14.00">    StructProperty AnimGraphNode_SequencePlayer_3</text>
<text text-anchor="start" x="8" y="-458.3" font-family="monospace" font-size="14.00">    StructProperty AnimGraphNode_StateResult_3</text>
<text text-anchor="start" x="8" y="-443.3" font-family="monospace" font-size="14.00">    StructProperty AnimGraphNode_StateMachine_1</text>
<text text-anchor="start" x="8" y="-428.3" font-family="monospace" font-size="14.00">    StructProperty AnimGraphNode_Slot</text>
<text text-anchor="start" x="8" y="-413.3" font-family="monospace" font-size="14.00">    StructProperty AnimGraphNode_TransitionResult_2</text>
<text text-anchor="start" x="8" y="-398.3" font-family="monospace" font-size="14.00">    StructProperty AnimGraphNode_TransitionResult_1</text>
<text text-anchor="start" x="8" y="-383.3" font-family="monospace" font-size="14.00">    StructProperty AnimGraphNode_TransitionResult</text>
<text text-anchor="start" x="8" y="-368.3" font-family="monospace" font-size="14.00">    StructProperty AnimGraphNode_SequencePlayer_2</text>
<text text-anchor="start" x="8" y="-353.3" font-family="monospace" font-size="14.00">    StructProperty AnimGraphNode_StateResult_2</text>
<text text-anchor="start" x="8" y="-338.3" font-family="monospace" font-size="14.00">    StructProperty AnimGraphNode_SequencePlayer_1</text>
<text text-anchor="start" x="8" y="-323.3" font-family="monospace" font-size="14.00">    StructProperty AnimGraphNode_StateResult_1</text>
<text text-anchor="start" x="8" y="-308.3" font-family="monospace" font-size="14.00">    StructProperty AnimGraphNode_SequencePlayer</text>
<text text-anchor="start" x="8" y="-293.3" font-family="monospace" font-size="14.00">    StructProperty AnimGraphNode_StateResult</text>
<text text-anchor="start" x="8" y="-278.3" font-family="monospace" font-size="14.00">    StructProperty AnimGraphNode_StateMachine</text>
<text text-anchor="start" x="8" y="-263.3" font-family="monospace" font-size="14.00">    StructProperty AnimGraphNode_LayeredBoneBlend</text>
<text text-anchor="start" x="8" y="-248.3" font-family="monospace" font-size="14.00">    BoolProperty L_Activated</text>
<text text-anchor="start" x="8" y="-233.3" font-family="monospace" font-size="14.00">      CPF_Edit|CPF_BlueprintVisible|CPF_DisableEditOnInstance</text>
<text text-anchor="start" x="8" y="-218.3" font-family="monospace" font-size="14.00">    BoolProperty R_Activated</text>
<text text-anchor="start" x="8" y="-203.3" font-family="monospace" font-size="14.00">      CPF_Edit|CPF_BlueprintVisible|CPF_DisableEditOnInstance</text>
</g>
<!-- ExecuteUbergraph_ABP_FacilityShieldEmitter -->
<g id="node2" class="node">
<title>ExecuteUbergraph_ABP_FacilityShieldEmitter</title>
<polygon fill="#ff8888" stroke="black" points="538,-413 538,-466 1008,-466 1008,-413 538,-413"/>
<text text-anchor="start" x="546" y="-450.8" font-family="monospace" font-size="14.00">Function ExecuteUbergraph_ABP_FacilityShieldEmitter</text>
<text text-anchor="start" x="546" y="-435.8" font-family="monospace" font-size="14.00">  IntProperty EntryPoint</text>
<text text-anchor="start" x="546" y="-420.8" font-family="monospace" font-size="14.00">    CPF_BlueprintVisible|CPF_BlueprintReadOnly|CPF_Parm</text>
</g>
<!-- ExecuteUbergraph_ABP_FacilityShieldEmitter__0 -->
<g id="node3" class="node">
<title>ExecuteUbergraph_ABP_FacilityShieldEmitter__0</title>
<polygon fill="#eeeeee" stroke="black" points="637,-98 637,-136 909,-136 909,-98 637,-98"/>
<text text-anchor="start" x="645" y="-120.8" font-family="monospace" font-size="14.00">EX_ComputedJump</text>
<text text-anchor="start" x="645" y="-105.8" font-family="monospace" font-size="14.00">  EX_LocalVariable [EntryPoint]</text>
</g>
<!-- ExecuteUbergraph_ABP_FacilityShieldEmitter&#45;&gt;ExecuteUbergraph_ABP_FacilityShieldEmitter__0 -->
<g id="edge1" class="edge">
<title>ExecuteUbergraph_ABP_FacilityShieldEmitter&#45;&gt;ExecuteUbergraph_ABP_FacilityShieldEmitter__0</title>
<path fill="none" stroke="black" d="M773,-413.08C773,-354.37 773,-209.59 773,-147.28"/>
<polygon fill="black" stroke="black" points="776.5,-147.49 773,-137.49 769.5,-147.49 776.5,-147.49"/>
</g>
<!-- ExecuteUbergraph_ABP_FacilityShieldEmitter__10 -->
<g id="node4" class="node">
<title>ExecuteUbergraph_ABP_FacilityShieldEmitter__10</title>
<polygon fill="#eeeeee" stroke="black" points="1092,-0.5 1092,-38.5 1208,-38.5 1208,-0.5 1092,-0.5"/>
<text text-anchor="start" x="1100" y="-23.3" font-family="monospace" font-size="14.00">EX_Return</text>
<text text-anchor="start" x="1100" y="-8.3" font-family="monospace" font-size="14.00">  EX_Nothing</text>
</g>
<!-- ExecuteUbergraph_ABP_FacilityShieldEmitter__12 -->
<g id="node5" class="node">
<title>ExecuteUbergraph_ABP_FacilityShieldEmitter__12</title>
<polygon fill="#eeeeee" stroke="black" points="927,-99 927,-135 1059,-135 1059,-99 927,-99"/>
<text text-anchor="start" x="935" y="-113.3" font-family="monospace" font-size="14.00">EX_EndOfScript</text>
</g>
<!-- AnimGraph -->
<g id="node6" class="node">
<title>AnimGraph</title>
<polygon fill="#ff8888" stroke="black" points="1168.5,-413 1168.5,-466 1399.5,-466 1399.5,-413 1168.5,-413"/>
<text text-anchor="start" x="1176.5" y="-450.8" font-family="monospace" font-size="14.00">Function AnimGraph</text>
<text text-anchor="start" x="1176.5" y="-435.8" font-family="monospace" font-size="14.00">  StructProperty AnimGraph</text>
<text text-anchor="start" x="1176.5" y="-420.8" font-family="monospace" font-size="14.00">    CPF_Parm|CPF_OutParm</text>
</g>
<!-- AnimGraph__0 -->
<g id="node7" class="node">
<title>AnimGraph__0</title>
<polygon fill="#eeeeee" stroke="black" points="1077.5,-75.5 1077.5,-158.5 1490.5,-158.5 1490.5,-75.5 1077.5,-75.5"/>
<text text-anchor="start" x="1085.5" y="-143.3" font-family="monospace" font-size="14.00">EX_Let</text>
<text text-anchor="start" x="1085.5" y="-128.3" font-family="monospace" font-size="14.00">  EX_LocalOutVariable</text>
<text text-anchor="start" x="1085.5" y="-113.3" font-family="monospace" font-size="14.00">    [AnimGraph]</text>
<text text-anchor="start" x="1085.5" y="-98.3" font-family="monospace" font-size="14.00">  EX_StructConst import /Script/Engine&#45;&gt;PoseLink</text>
<text text-anchor="start" x="1085.5" y="-83.3" font-family="monospace" font-size="14.00">    EX_IntConst &#45;1</text>
</g>
<!-- AnimGraph&#45;&gt;AnimGraph__0 -->
<g id="edge2" class="edge">
<title>AnimGraph&#45;&gt;AnimGraph__0</title>
<path fill="none" stroke="black" d="M1284,-413.08C1284,-360.56 1284,-239.16 1284,-169.54"/>
<polygon fill="black" stroke="black" points="1287.5,-169.93 1284,-159.93 1280.5,-169.93 1287.5,-169.93"/>
</g>
<!-- AnimGraph__37 -->
<g id="node8" class="node">
<title>AnimGraph__37</title>
<polygon fill="#eeeeee" stroke="black" points="1226,-0.5 1226,-38.5 1342,-38.5 1342,-0.5 1226,-0.5"/>
<text text-anchor="start" x="1234" y="-23.3" font-family="monospace" font-size="14.00">EX_Return</text>
<text text-anchor="start" x="1234" y="-8.3" font-family="monospace" font-size="14.00">  EX_Nothing</text>
</g>
<!-- AnimGraph__0&#45;&gt;AnimGraph__37 -->
<g id="edge3" class="edge">
<title>AnimGraph__0&#45;&gt;AnimGraph__37</title>
<path fill="none" stroke="black" d="M1284,-75.78C1284,-67.01 1284,-57.89 1284,-49.65"/>
<polygon fill="black" stroke="black" points="1287.5,-49.86 1284,-39.86 1280.5,-49.86 1287.5,-49.86"/>
</g>
<!-- AnimGraph__39 -->
<g id="node9" class="node">
<title>AnimGraph__39</title>
<polygon fill="#eeeeee" stroke="black" points="1418,-421.5 1418,-457.5 1550,-457.5 1550,-421.5 1418,-421.5"/>
<text text-anchor="start" x="1426" y="-435.8" font-family="monospace" font-size="14.00">EX_EndOfScript</text>
</g>
</g>
</svg>
