<?xml version="1.0" encoding="UTF-8" standalone="no"?>
<!DOCTYPE svg PUBLIC "-//W3C//DTD SVG 1.1//EN"
 "http://www.w3.org/Graphics/SVG/1.1/DTD/svg11.dtd">
<!-- Generated by graphviz version 7.0.1 (0)
 -->
<!-- Pages: 1 -->
<svg width="5342pt" height="2000pt"
 viewBox="0.00 0.00 5341.50 2000.00" xmlns="http://www.w3.org/2000/svg" xmlns:xlink="http://www.w3.org/1999/xlink">
<g id="graph0" class="graph" transform="scale(1 1) rotate(0) translate(4 1996)">
<polygon fill="white" stroke="none" points="-4,4 -4,-1996 5337.5,-1996 5337.5,4 -4,4"/>
<!-- WeaponDisplay_GrenadeLauncher_AmmoCounter_C -->
<g id="node1" class="node">
<title>WeaponDisplay_GrenadeLauncher_AmmoCounter_C</title>
<polygon fill="#88ff88" stroke="black" points="0,-1728.5 0,-1991.5 891,-1991.5 891,-1728.5 0,-1728.5"/>
<text text-anchor="start" x="8" y="-1976.3" font-family="monospace" font-size="14.00">ClassExport: WeaponDisplay_GrenadeLauncher_AmmoCounter_C</text>
<text text-anchor="start" x="8" y="-1961.3" font-family="monospace" font-size="14.00">  SuperStruct: import /Game/UI/WeaponDisplays/WeaponDisplay_Base_AmmoCount&#45;&gt;WeaponDisplay_Base_AmmoCount_C</text>
<text text-anchor="start" x="8" y="-1946.3" font-family="monospace" font-size="14.00">  Properties:</text>
<text text-anchor="start" x="8" y="-1931.3" font-family="monospace" font-size="14.00">    StructProperty UberGraphFrame</text>
<text text-anchor="start" x="8" y="-1916.3" font-family="monospace" font-size="14.00">      CPF_Transient|CPF_DuplicateTransient</text>
<text text-anchor="start" x="8" y="-1901.3" font-family="monospace" font-size="14.00">    ObjectProperty AmmoCritical</text>
<text text-anchor="start" x="8" y="-1886.3" font-family="monospace" font-size="14.00">      CPF_BlueprintVisible|CPF_BlueprintReadOnly|CPF_Transient|CPF_RepSkip</text>
<text text-anchor="start" x="8" y="-1871.3" font-family="monospace" font-size="14.00">    ObjectProperty AnimatedStaticOverlay_WithScanlines_LightVersion</text>
<text text-anchor="start" x="8" y="-1856.3" font-family="monospace" font-size="14.00">      CPF_BlueprintVisible|CPF_ExportObject|CPF_InstancedReference|CPF_RepSkip|CPF_PersistentInstance</text>
<text text-anchor="start" x="8" y="-1841.3" font-family="monospace" font-size="14.00">    ObjectProperty Image_88</text>
<text text-anchor="start" x="8" y="-1826.3" font-family="monospace" font-size="14.00">      CPF_BlueprintVisible|CPF_ExportObject|CPF_InstancedReference|CPF_RepSkip|CPF_PersistentInstance</text>
<text text-anchor="start" x="8" y="-1811.3" font-family="monospace" font-size="14.00">    ObjectProperty MaxAmmo</text>
<text text-anchor="start" x="8" y="-1796.3" font-family="monospace" font-size="14.00">      CPF_BlueprintVisible|CPF_ExportObject|CPF_InstancedReference|CPF_RepSkip|CPF_PersistentInstance</text>
<text text-anchor="start" x="8" y="-1781.3" font-family="monospace" font-size="14.00">    ObjectProperty TextBlock_0</text>
<text text-anchor="start" x="8" y="-1766.3" font-family="monospace" font-size="14.00">      CPF_BlueprintVisible|CPF_ExportObject|CPF_InstancedReference|CPF_RepSkip|CPF_PersistentInstance</text>
<text text-anchor="start" x="8" y="-1751.3" font-family="monospace" font-size="14.00">    ObjectProperty WarningOverlay</text>
<text text-anchor="start" x="8" y="-1736.3" font-family="monospace" font-size="14.00">      CPF_BlueprintVisible|CPF_ExportObject|CPF_InstancedReference|CPF_RepSkip|CPF_PersistentInstance</text>
</g>
<!-- ExecuteUbergraph_WeaponDisplay_GrenadeLauncher_AmmoCounter -->
<g id="node2" class="node">
<title>ExecuteUbergraph_WeaponDisplay_GrenadeLauncher_AmmoCounter</title>
<polygon fill="#ff8888" stroke="black" points="909,-1743.5 909,-1976.5 1478,-1976.5 1478,-1743.5 909,-1743.5"/>
<text text-anchor="start" x="917" y="-1961.3" font-family="monospace" font-size="14.00">Function ExecuteUbergraph_WeaponDisplay_GrenadeLauncher_AmmoCounter</text>
<text text-anchor="start" x="917" y="-1946.3" font-family="monospace" font-size="14.00">  IntProperty EntryPoint</text>
<text text-anchor="start" x="917" y="-1931.3" font-family="monospace" font-size="14.00">    CPF_BlueprintVisible|CPF_BlueprintReadOnly|CPF_Parm</text>
<text text-anchor="start" x="917" y="-1916.3" font-family="monospace" font-size="14.00">  ObjectProperty CallFunc_GetComponentByClass_ReturnValue</text>
<text text-anchor="start" x="917" y="-1901.3" font-family="monospace" font-size="14.00">    CPF_InstancedReference</text>
<text text-anchor="start" x="917" y="-1886.3" font-family="monospace" font-size="14.00">  BoolProperty CallFunc_IsValid_ReturnValue</text>
<text text-anchor="start" x="917" y="-1871.3" font-family="monospace" font-size="14.00">  IntProperty CallFunc_GetClipAmount_ReturnValue</text>
<text text-anchor="start" x="917" y="-1856.3" font-family="monospace" font-size="14.00">  IntProperty CallFunc_GetTotalAmount_ReturnValue</text>
<text text-anchor="start" x="917" y="-1841.3" font-family="monospace" font-size="14.00">  IntProperty CallFunc_Add_IntInt_ReturnValue</text>
<text text-anchor="start" x="917" y="-1826.3" font-family="monospace" font-size="14.00">  TextProperty CallFunc_Conv_IntToText_ReturnValue</text>
<text text-anchor="start" x="917" y="-1811.3" font-family="monospace" font-size="14.00">  ObjectProperty CallFunc_PlayAnimation_ReturnValue</text>
<text text-anchor="start" x="917" y="-1796.3" font-family="monospace" font-size="14.00">  IntProperty K2Node_Event_amount_1</text>
<text text-anchor="start" x="917" y="-1781.3" font-family="monospace" font-size="14.00">  IntProperty K2Node_Event_amount</text>
<text text-anchor="start" x="917" y="-1766.3" font-family="monospace" font-size="14.00">  BoolProperty CallFunc_Greater_IntInt_ReturnValue</text>
<text text-anchor="start" x="917" y="-1751.3" font-family="monospace" font-size="14.00">  TextProperty CallFunc_Conv_IntToText_ReturnValue_1</text>
</g>
<!-- ExecuteUbergraph_WeaponDisplay_GrenadeLauncher_AmmoCounter__0 -->
<g id="node3" class="node">
<title>ExecuteUbergraph_WeaponDisplay_GrenadeLauncher_AmmoCounter__0</title>
<polygon fill="#eeeeee" stroke="black" points="1086,-1617.5 1086,-1653.5 1301,-1653.5 1301,-1617.5 1086,-1617.5"/>
<text text-anchor="start" x="1094" y="-1631.8" font-family="monospace" font-size="14.00">EX_PushExecutionFlow 649</text>
</g>
<!-- ExecuteUbergraph_WeaponDisplay_GrenadeLauncher_AmmoCounter&#45;&gt;ExecuteUbergraph_WeaponDisplay_GrenadeLauncher_AmmoCounter__0 -->
<g id="edge1" class="edge">
<title>ExecuteUbergraph_WeaponDisplay_GrenadeLauncher_AmmoCounter&#45;&gt;ExecuteUbergraph_WeaponDisplay_GrenadeLauncher_AmmoCounter__0</title>
<path fill="none" stroke="black" d="M1193.5,-1743.51C1193.5,-1714.25 1193.5,-1685.37 1193.5,-1665"/>
<polygon fill="black" stroke="black" points="1197,-1665.01 1193.5,-1655.01 1190,-1665.01 1197,-1665.01"/>
</g>
<!-- ExecuteUbergraph_WeaponDisplay_GrenadeLauncher_AmmoCounter__5 -->
<g id="node4" class="node">
<title>ExecuteUbergraph_WeaponDisplay_GrenadeLauncher_AmmoCounter__5</title>
<polygon fill="#eeeeee" stroke="black" points="1005.5,-1482 1005.5,-1520 1277.5,-1520 1277.5,-1482 1005.5,-1482"/>
<text text-anchor="start" x="1013.5" y="-1504.8" font-family="monospace" font-size="14.00">EX_ComputedJump</text>
<text text-anchor="start" x="1013.5" y="-1489.8" font-family="monospace" font-size="14.00">  EX_LocalVariable [EntryPoint]</text>
</g>
<!-- ExecuteUbergraph_WeaponDisplay_GrenadeLauncher_AmmoCounter__0&#45;&gt;ExecuteUbergraph_WeaponDisplay_GrenadeLauncher_AmmoCounter__5 -->
<g id="edge3" class="edge">
<title>ExecuteUbergraph_WeaponDisplay_GrenadeLauncher_AmmoCounter__0&#45;&gt;ExecuteUbergraph_WeaponDisplay_GrenadeLauncher_AmmoCounter__5</title>
<path fill="none" stroke="black" d="M1186.91,-1617.72C1178.31,-1595.78 1163.1,-1557.04 1152.67,-1530.47"/>
<polygon fill="black" stroke="black" points="1155.99,-1529.35 1149.08,-1521.32 1149.48,-1531.91 1155.99,-1529.35"/>
</g>
<!-- ExecuteUbergraph_WeaponDisplay_GrenadeLauncher_AmmoCounter__649 -->
<g id="node27" class="node">
<title>ExecuteUbergraph_WeaponDisplay_GrenadeLauncher_AmmoCounter__649</title>
<polygon fill="#eeeeee" stroke="black" points="1295.5,-1482 1295.5,-1520 1411.5,-1520 1411.5,-1482 1295.5,-1482"/>
<text text-anchor="start" x="1303.5" y="-1504.8" font-family="monospace" font-size="14.00">EX_Return</text>
<text text-anchor="start" x="1303.5" y="-1489.8" font-family="monospace" font-size="14.00">  EX_Nothing</text>
</g>
<!-- ExecuteUbergraph_WeaponDisplay_GrenadeLauncher_AmmoCounter__0&#45;&gt;ExecuteUbergraph_WeaponDisplay_GrenadeLauncher_AmmoCounter__649 -->
<g id="edge2" class="edge">
<title>ExecuteUbergraph_WeaponDisplay_GrenadeLauncher_AmmoCounter__0:e&#45;&gt;ExecuteUbergraph_WeaponDisplay_GrenadeLauncher_AmmoCounter__649</title>
<path fill="none" stroke="red" d="M1302.5,-1635.5C1346.81,-1635.5 1354.12,-1570.52 1354.48,-1531.23"/>
<polygon fill="none" stroke="red" points="1357.99,-1531.22 1354.41,-1521.24 1350.99,-1531.27 1357.99,-1531.22"/>
<text text-anchor="middle" x="1395" y="-1575.8" font-family="monospace" font-size="14.00">PUSH STACK</text>
</g>
<!-- ExecuteUbergraph_WeaponDisplay_GrenadeLauncher_AmmoCounter__15 -->
<g id="node5" class="node">
<title>ExecuteUbergraph_WeaponDisplay_GrenadeLauncher_AmmoCounter__15</title>
<polygon fill="#eeeeee" stroke="black" points="2619.5,-1055.5 2619.5,-1183.5 3213.5,-1183.5 3213.5,-1055.5 2619.5,-1055.5"/>
<text text-anchor="start" x="2627.5" y="-1168.3" font-family="monospace" font-size="14.00">EX_Let</text>
<text text-anchor="start" x="2627.5" y="-1153.3" font-family="monospace" font-size="14.00">  EX_LocalVariable [CallFunc_Conv_IntToText_ReturnValue_1]</text>
<text text-anchor="start" x="2627.5" y="-1138.3" font-family="monospace" font-size="14.00">  EX_CallMath import /Script/Engine&#45;&gt;KismetTextLibrary&#45;&gt;Conv_IntToText</text>
<text text-anchor="start" x="2627.5" y="-1123.3" font-family="monospace" font-size="14.00">    EX_LocalVariable [K2Node_Event_amount]</text>
<text text-anchor="start" x="2627.5" y="-1108.3" font-family="monospace" font-size="14.00">    EX_False</text>
<text text-anchor="start" x="2627.5" y="-1093.3" font-family="monospace" font-size="14.00">    EX_True</text>
<text text-anchor="start" x="2627.5" y="-1078.3" font-family="monospace" font-size="14.00">    EX_IntConst 1</text>
<text text-anchor="start" x="2627.5" y="-1063.3" font-family="monospace" font-size="14.00">    EX_IntConst 324</text>
</g>
<!-- ExecuteUbergraph_WeaponDisplay_GrenadeLauncher_AmmoCounter__64 -->
<g id="node6" class="node">
<title>ExecuteUbergraph_WeaponDisplay_GrenadeLauncher_AmmoCounter__64</title>
<polygon fill="#eeeeee" stroke="black" points="2660.5,-934.5 2660.5,-1017.5 3172.5,-1017.5 3172.5,-934.5 2660.5,-934.5"/>
<text text-anchor="start" x="2668.5" y="-1002.3" font-family="monospace" font-size="14.00">EX_Context</text>
<text text-anchor="start" x="2668.5" y="-987.3" font-family="monospace" font-size="14.00">  EX_InstanceVariable [MaxAmmo]</text>
<text text-anchor="start" x="2668.5" y="-972.3" font-family="monospace" font-size="14.00">  EX_VirtualFunction SetText</text>
<text text-anchor="start" x="2668.5" y="-957.3" font-family="monospace" font-size="14.00">    EX_LocalVariable [CallFunc_Conv_IntToText_ReturnValue_1]</text>
<text text-anchor="start" x="2668.5" y="-942.3" font-family="monospace" font-size="14.00">  RValue = []</text>
</g>
<!-- ExecuteUbergraph_WeaponDisplay_GrenadeLauncher_AmmoCounter__15&#45;&gt;ExecuteUbergraph_WeaponDisplay_GrenadeLauncher_AmmoCounter__64 -->
<g id="edge4" class="edge">
<title>ExecuteUbergraph_WeaponDisplay_GrenadeLauncher_AmmoCounter__15&#45;&gt;ExecuteUbergraph_WeaponDisplay_GrenadeLauncher_AmmoCounter__64</title>
<path fill="none" stroke="black" d="M2916.5,-1055.61C2916.5,-1046.58 2916.5,-1037.37 2916.5,-1028.59"/>
<polygon fill="black" stroke="black" points="2920,-1028.86 2916.5,-1018.86 2913,-1028.86 2920,-1028.86"/>
</g>
<!-- ExecuteUbergraph_WeaponDisplay_GrenadeLauncher_AmmoCounter__109 -->
<g id="node7" class="node">
<title>ExecuteUbergraph_WeaponDisplay_GrenadeLauncher_AmmoCounter__109</title>
<polygon fill="#eeeeee" stroke="black" points="2619.5,-813.5 2619.5,-896.5 3213.5,-896.5 3213.5,-813.5 2619.5,-813.5"/>
<text text-anchor="start" x="2627.5" y="-881.3" font-family="monospace" font-size="14.00">EX_LetBool</text>
<text text-anchor="start" x="2627.5" y="-866.3" font-family="monospace" font-size="14.00">  EX_LocalVariable [CallFunc_Greater_IntInt_ReturnValue]</text>
<text text-anchor="start" x="2627.5" y="-851.3" font-family="monospace" font-size="14.00">  EX_CallMath import /Script/Engine&#45;&gt;KismetMathLibrary&#45;&gt;Greater_IntInt</text>
<text text-anchor="start" x="2627.5" y="-836.3" font-family="monospace" font-size="14.00">    EX_LocalVariable [K2Node_Event_amount]</text>
<text text-anchor="start" x="2627.5" y="-821.3" font-family="monospace" font-size="14.00">    EX_IntConst 1</text>
</g>
<!-- ExecuteUbergraph_WeaponDisplay_GrenadeLauncher_AmmoCounter__64&#45;&gt;ExecuteUbergraph_WeaponDisplay_GrenadeLauncher_AmmoCounter__109 -->
<g id="edge5" class="edge">
<title>ExecuteUbergraph_WeaponDisplay_GrenadeLauncher_AmmoCounter__64&#45;&gt;ExecuteUbergraph_WeaponDisplay_GrenadeLauncher_AmmoCounter__109</title>
<path fill="none" stroke="black" d="M2916.5,-934.71C2916.5,-925.99 2916.5,-916.65 2916.5,-907.56"/>
<polygon fill="black" stroke="black" points="2920,-907.76 2916.5,-897.76 2913,-907.76 2920,-907.76"/>
</g>
<!-- ExecuteUbergraph_WeaponDisplay_GrenadeLauncher_AmmoCounter__143 -->
<g id="node8" class="node">
<title>ExecuteUbergraph_WeaponDisplay_GrenadeLauncher_AmmoCounter__143</title>
<polygon fill="#eeeeee" stroke="black" points="2677,-707.5 2677,-745.5 3156,-745.5 3156,-707.5 2677,-707.5"/>
<text text-anchor="start" x="2685" y="-730.3" font-family="monospace" font-size="14.00">EX_JumpIfNot 177</text>
<text text-anchor="start" x="2685" y="-715.3" font-family="monospace" font-size="14.00">  EX_LocalVariable [CallFunc_Greater_IntInt_ReturnValue]</text>
</g>
<!-- ExecuteUbergraph_WeaponDisplay_GrenadeLauncher_AmmoCounter__109&#45;&gt;ExecuteUbergraph_WeaponDisplay_GrenadeLauncher_AmmoCounter__143 -->
<g id="edge6" class="edge">
<title>ExecuteUbergraph_WeaponDisplay_GrenadeLauncher_AmmoCounter__109&#45;&gt;ExecuteUbergraph_WeaponDisplay_GrenadeLauncher_AmmoCounter__143</title>
<path fill="none" stroke="black" d="M2916.5,-813.63C2916.5,-795.12 2916.5,-773.6 2916.5,-756.7"/>
<polygon fill="black" stroke="black" points="2920,-756.84 2916.5,-746.84 2913,-756.84 2920,-756.84"/>
</g>
<!-- ExecuteUbergraph_WeaponDisplay_GrenadeLauncher_AmmoCounter__157 -->
<g id="node9" class="node">
<title>ExecuteUbergraph_WeaponDisplay_GrenadeLauncher_AmmoCounter__157</title>
<polygon fill="#eeeeee" stroke="black" points="2416.5,-535 2416.5,-573 2944.5,-573 2944.5,-535 2416.5,-535"/>
<text text-anchor="start" x="2424.5" y="-557.8" font-family="monospace" font-size="14.00">EX_FinalFunction import /Script/UMG&#45;&gt;UserWidget&#45;&gt;StopAnimation</text>
<text text-anchor="start" x="2424.5" y="-542.8" font-family="monospace" font-size="14.00">  EX_InstanceVariable [AmmoCritical]</text>
</g>
<!-- ExecuteUbergraph_WeaponDisplay_GrenadeLauncher_AmmoCounter__143&#45;&gt;ExecuteUbergraph_WeaponDisplay_GrenadeLauncher_AmmoCounter__157 -->
<g id="edge8" class="edge">
<title>ExecuteUbergraph_WeaponDisplay_GrenadeLauncher_AmmoCounter__143&#45;&gt;ExecuteUbergraph_WeaponDisplay_GrenadeLauncher_AmmoCounter__157</title>
<path fill="none" stroke="black" d="M2891.69,-707.58C2849.2,-676.88 2762.44,-614.2 2714.4,-579.49"/>
<polygon fill="black" stroke="black" points="2716.71,-576.85 2706.56,-573.83 2712.61,-582.52 2716.71,-576.85"/>
<text text-anchor="middle" x="2829" y="-647.8" font-family="monospace" font-size="14.00">IF</text>
</g>
<!-- ExecuteUbergraph_WeaponDisplay_GrenadeLauncher_AmmoCounter__177 -->
<g id="node11" class="node">
<title>ExecuteUbergraph_WeaponDisplay_GrenadeLauncher_AmmoCounter__177</title>
<polygon fill="#eeeeee" stroke="black" points="2963,-482.5 2963,-625.5 3508,-625.5 3508,-482.5 2963,-482.5"/>
<text text-anchor="start" x="2971" y="-610.3" font-family="monospace" font-size="14.00">EX_LetObj</text>
<text text-anchor="start" x="2971" y="-595.3" font-family="monospace" font-size="14.00">  EX_LocalVariable [CallFunc_PlayAnimation_ReturnValue]</text>
<text text-anchor="start" x="2971" y="-580.3" font-family="monospace" font-size="14.00">  EX_FinalFunction import /Script/UMG&#45;&gt;UserWidget&#45;&gt;PlayAnimation</text>
<text text-anchor="start" x="2971" y="-565.3" font-family="monospace" font-size="14.00">    EX_InstanceVariable [AmmoCritical]</text>
<text text-anchor="start" x="2971" y="-550.3" font-family="monospace" font-size="14.00">    EX_FloatConst 0</text>
<text text-anchor="start" x="2971" y="-535.3" font-family="monospace" font-size="14.00">    EX_IntConst 0</text>
<text text-anchor="start" x="2971" y="-520.3" font-family="monospace" font-size="14.00">    EX_ByteConst 0</text>
<text text-anchor="start" x="2971" y="-505.3" font-family="monospace" font-size="14.00">    EX_FloatConst 1</text>
<text text-anchor="start" x="2971" y="-490.3" font-family="monospace" font-size="14.00">    EX_False</text>
</g>
<!-- ExecuteUbergraph_WeaponDisplay_GrenadeLauncher_AmmoCounter__143&#45;&gt;ExecuteUbergraph_WeaponDisplay_GrenadeLauncher_AmmoCounter__177 -->
<g id="edge7" class="edge">
<title>ExecuteUbergraph_WeaponDisplay_GrenadeLauncher_AmmoCounter__143:e&#45;&gt;ExecuteUbergraph_WeaponDisplay_GrenadeLauncher_AmmoCounter__177</title>
<path fill="none" stroke="red" d="M3157.5,-726.5C3200.77,-726.5 3220.15,-680.7 3228.77,-636.44"/>
<polygon fill="none" stroke="red" points="3232.19,-637.2 3230.48,-626.74 3225.3,-635.98 3232.19,-637.2"/>
<text text-anchor="middle" x="3252.5" y="-647.8" font-family="monospace" font-size="14.00">IF NOT</text>
</g>
<!-- ExecuteUbergraph_WeaponDisplay_GrenadeLauncher_AmmoCounter__176 -->
<g id="node10" class="node">
<title>ExecuteUbergraph_WeaponDisplay_GrenadeLauncher_AmmoCounter__176</title>
<polygon fill="#eeeeee" stroke="black" points="2594,-385 2594,-421 2767,-421 2767,-385 2594,-385"/>
<text text-anchor="start" x="2602" y="-399.3" font-family="monospace" font-size="14.00">EX_PopExecutionFlow</text>
</g>
<!-- ExecuteUbergraph_WeaponDisplay_GrenadeLauncher_AmmoCounter__157&#45;&gt;ExecuteUbergraph_WeaponDisplay_GrenadeLauncher_AmmoCounter__176 -->
<g id="edge9" class="edge">
<title>ExecuteUbergraph_WeaponDisplay_GrenadeLauncher_AmmoCounter__157&#45;&gt;ExecuteUbergraph_WeaponDisplay_GrenadeLauncher_AmmoCounter__176</title>
<path fill="none" stroke="black" d="M2680.5,-535.03C2680.5,-509.45 2680.5,-462.3 2680.5,-432.09"/>
<polygon fill="black" stroke="black" points="2684,-432.18 2680.5,-422.18 2677,-432.18 2684,-432.18"/>
</g>
<!-- ExecuteUbergraph_WeaponDisplay_GrenadeLauncher_AmmoCounter__224 -->
<g id="node12" class="node">
<title>ExecuteUbergraph_WeaponDisplay_GrenadeLauncher_AmmoCounter__224</title>
<polygon fill="#eeeeee" stroke="black" points="3149,-385 3149,-421 3322,-421 3322,-385 3149,-385"/>
<text text-anchor="start" x="3157" y="-399.3" font-family="monospace" font-size="14.00">EX_PopExecutionFlow</text>
</g>
<!-- ExecuteUbergraph_WeaponDisplay_GrenadeLauncher_AmmoCounter__177&#45;&gt;ExecuteUbergraph_WeaponDisplay_GrenadeLauncher_AmmoCounter__224 -->
<g id="edge10" class="edge">
<title>ExecuteUbergraph_WeaponDisplay_GrenadeLauncher_AmmoCounter__177&#45;&gt;ExecuteUbergraph_WeaponDisplay_GrenadeLauncher_AmmoCounter__224</title>
<path fill="none" stroke="black" d="M3235.5,-482.86C3235.5,-464.82 3235.5,-446.43 3235.5,-431.96"/>
<polygon fill="black" stroke="black" points="3239,-432.32 3235.5,-422.32 3232,-432.32 3239,-432.32"/>
</g>
<!-- ExecuteUbergraph_WeaponDisplay_GrenadeLauncher_AmmoCounter__225 -->
<g id="node13" class="node">
<title>ExecuteUbergraph_WeaponDisplay_GrenadeLauncher_AmmoCounter__225</title>
<polygon fill="#eeeeee" stroke="black" points="3477,-1078 3477,-1161 4112,-1161 4112,-1078 3477,-1078"/>
<text text-anchor="start" x="3485" y="-1145.8" font-family="monospace" font-size="14.00">EX_LetObj</text>
<text text-anchor="start" x="3485" y="-1130.8" font-family="monospace" font-size="14.00">  EX_LocalVariable [CallFunc_GetComponentByClass_ReturnValue]</text>
<text text-anchor="start" x="3485" y="-1115.8" font-family="monospace" font-size="14.00">  EX_CallMath import /Script/FSD&#45;&gt;ActorFunctionLibrary&#45;&gt;GetComponentByClass</text>
<text text-anchor="start" x="3485" y="-1100.8" font-family="monospace" font-size="14.00">    EX_InstanceVariable [Item]</text>
<text text-anchor="start" x="3485" y="-1085.8" font-family="monospace" font-size="14.00">    EX_ObjectConst import /Script/FSD&#45;&gt;ClipBasedItemAggregator</text>
</g>
<!-- ExecuteUbergraph_WeaponDisplay_GrenadeLauncher_AmmoCounter__263 -->
<g id="node14" class="node">
<title>ExecuteUbergraph_WeaponDisplay_GrenadeLauncher_AmmoCounter__263</title>
<polygon fill="#eeeeee" stroke="black" points="3518,-942 3518,-1010 4071,-1010 4071,-942 3518,-942"/>
<text text-anchor="start" x="3526" y="-994.8" font-family="monospace" font-size="14.00">EX_LetBool</text>
<text text-anchor="start" x="3526" y="-979.8" font-family="monospace" font-size="14.00">  EX_LocalVariable [CallFunc_IsValid_ReturnValue]</text>
<text text-anchor="start" x="3526" y="-964.8" font-family="monospace" font-size="14.00">  EX_CallMath import /Script/Engine&#45;&gt;KismetSystemLibrary&#45;&gt;IsValid</text>
<text text-anchor="start" x="3526" y="-949.8" font-family="monospace" font-size="14.00">    EX_LocalVariable [CallFunc_GetComponentByClass_ReturnValue]</text>
</g>
<!-- ExecuteUbergraph_WeaponDisplay_GrenadeLauncher_AmmoCounter__225&#45;&gt;ExecuteUbergraph_WeaponDisplay_GrenadeLauncher_AmmoCounter__263 -->
<g id="edge11" class="edge">
<title>ExecuteUbergraph_WeaponDisplay_GrenadeLauncher_AmmoCounter__225&#45;&gt;ExecuteUbergraph_WeaponDisplay_GrenadeLauncher_AmmoCounter__263</title>
<path fill="none" stroke="black" d="M3794.5,-1078.33C3794.5,-1060.42 3794.5,-1039.26 3794.5,-1020.93"/>
<polygon fill="black" stroke="black" points="3798,-1021.16 3794.5,-1011.16 3791,-1021.16 3798,-1021.16"/>
</g>
<!-- ExecuteUbergraph_WeaponDisplay_GrenadeLauncher_AmmoCounter__292 -->
<g id="node15" class="node">
<title>ExecuteUbergraph_WeaponDisplay_GrenadeLauncher_AmmoCounter__292</title>
<polygon fill="#eeeeee" stroke="black" points="3584,-836 3584,-874 4005,-874 4005,-836 3584,-836"/>
<text text-anchor="start" x="3592" y="-858.8" font-family="monospace" font-size="14.00">EX_PopExecutionFlowIfNot</text>
<text text-anchor="start" x="3592" y="-843.8" font-family="monospace" font-size="14.00">  EX_LocalVariable [CallFunc_IsValid_ReturnValue]</text>
</g>
<!-- ExecuteUbergraph_WeaponDisplay_GrenadeLauncher_AmmoCounter__263&#45;&gt;ExecuteUbergraph_WeaponDisplay_GrenadeLauncher_AmmoCounter__292 -->
<g id="edge12" class="edge">
<title>ExecuteUbergraph_WeaponDisplay_GrenadeLauncher_AmmoCounter__263&#45;&gt;ExecuteUbergraph_WeaponDisplay_GrenadeLauncher_AmmoCounter__292</title>
<path fill="none" stroke="black" d="M3794.5,-942.17C3794.5,-924.37 3794.5,-902.55 3794.5,-885.32"/>
<polygon fill="black" stroke="black" points="3798,-885.49 3794.5,-875.49 3791,-885.49 3798,-885.49"/>
</g>
<!-- ExecuteUbergraph_WeaponDisplay_GrenadeLauncher_AmmoCounter__302 -->
<g id="node16" class="node">
<title>ExecuteUbergraph_WeaponDisplay_GrenadeLauncher_AmmoCounter__302</title>
<polygon fill="#eeeeee" stroke="black" points="3526.5,-677.5 3526.5,-775.5 4062.5,-775.5 4062.5,-677.5 3526.5,-677.5"/>
<text text-anchor="start" x="3534.5" y="-760.3" font-family="monospace" font-size="14.00">EX_Let</text>
<text text-anchor="start" x="3534.5" y="-745.3" font-family="monospace" font-size="14.00">  EX_LocalVariable [CallFunc_GetClipAmount_ReturnValue]</text>
<text text-anchor="start" x="3534.5" y="-730.3" font-family="monospace" font-size="14.00">  EX_Context</text>
<text text-anchor="start" x="3534.5" y="-715.3" font-family="monospace" font-size="14.00">    EX_LocalVariable [CallFunc_GetComponentByClass_ReturnValue]</text>
<text text-anchor="start" x="3534.5" y="-700.3" font-family="monospace" font-size="14.00">    EX_VirtualFunction GetClipAmount</text>
<text text-anchor="start" x="3534.5" y="-685.3" font-family="monospace" font-size="14.00">    RValue = [CallFunc_GetClipAmount_ReturnValue]</text>
</g>
<!-- ExecuteUbergraph_WeaponDisplay_GrenadeLauncher_AmmoCounter__292&#45;&gt;ExecuteUbergraph_WeaponDisplay_GrenadeLauncher_AmmoCounter__302 -->
<g id="edge13" class="edge">
<title>ExecuteUbergraph_WeaponDisplay_GrenadeLauncher_AmmoCounter__292&#45;&gt;ExecuteUbergraph_WeaponDisplay_GrenadeLauncher_AmmoCounter__302</title>
<path fill="none" stroke="black" d="M3794.5,-836.14C3794.5,-823.12 3794.5,-804.67 3794.5,-786.67"/>
<polygon fill="black" stroke="black" points="3798,-786.78 3794.5,-776.78 3791,-786.78 3798,-786.78"/>
</g>
<!-- ExecuteUbergraph_WeaponDisplay_GrenadeLauncher_AmmoCounter__356 -->
<g id="node17" class="node">
<title>ExecuteUbergraph_WeaponDisplay_GrenadeLauncher_AmmoCounter__356</title>
<polygon fill="#eeeeee" stroke="black" points="3526.5,-505 3526.5,-603 4062.5,-603 4062.5,-505 3526.5,-505"/>
<text text-anchor="start" x="3534.5" y="-587.8" font-family="monospace" font-size="14.00">EX_Let</text>
<text text-anchor="start" x="3534.5" y="-572.8" font-family="monospace" font-size="14.00">  EX_LocalVariable [CallFunc_GetTotalAmount_ReturnValue]</text>
<text text-anchor="start" x="3534.5" y="-557.8" font-family="monospace" font-size="14.00">  EX_Context</text>
<text text-anchor="start" x="3534.5" y="-542.8" font-family="monospace" font-size="14.00">    EX_LocalVariable [CallFunc_GetComponentByClass_ReturnValue]</text>
<text text-anchor="start" x="3534.5" y="-527.8" font-family="monospace" font-size="14.00">    EX_VirtualFunction GetTotalAmount</text>
<text text-anchor="start" x="3534.5" y="-512.8" font-family="monospace" font-size="14.00">    RValue = [CallFunc_GetTotalAmount_ReturnValue]</text>
</g>
<!-- ExecuteUbergraph_WeaponDisplay_GrenadeLauncher_AmmoCounter__302&#45;&gt;ExecuteUbergraph_WeaponDisplay_GrenadeLauncher_AmmoCounter__356 -->
<g id="edge14" class="edge">
<title>ExecuteUbergraph_WeaponDisplay_GrenadeLauncher_AmmoCounter__302&#45;&gt;ExecuteUbergraph_WeaponDisplay_GrenadeLauncher_AmmoCounter__356</title>
<path fill="none" stroke="black" d="M3794.5,-677.55C3794.5,-657.86 3794.5,-634.85 3794.5,-614.13"/>
<polygon fill="black" stroke="black" points="3798,-614.4 3794.5,-604.4 3791,-614.4 3798,-614.4"/>
</g>
<!-- ExecuteUbergraph_WeaponDisplay_GrenadeLauncher_AmmoCounter__410 -->
<g id="node18" class="node">
<title>ExecuteUbergraph_WeaponDisplay_GrenadeLauncher_AmmoCounter__410</title>
<polygon fill="#eeeeee" stroke="black" points="3514,-361.5 3514,-444.5 4075,-444.5 4075,-361.5 3514,-361.5"/>
<text text-anchor="start" x="3522" y="-429.3" font-family="monospace" font-size="14.00">EX_Let</text>
<text text-anchor="start" x="3522" y="-414.3" font-family="monospace" font-size="14.00">  EX_LocalVariable [CallFunc_Add_IntInt_ReturnValue]</text>
<text text-anchor="start" x="3522" y="-399.3" font-family="monospace" font-size="14.00">  EX_CallMath import /Script/Engine&#45;&gt;KismetMathLibrary&#45;&gt;Add_IntInt</text>
<text text-anchor="start" x="3522" y="-384.3" font-family="monospace" font-size="14.00">    EX_LocalVariable [CallFunc_GetTotalAmount_ReturnValue]</text>
<text text-anchor="start" x="3522" y="-369.3" font-family="monospace" font-size="14.00">    EX_LocalVariable [CallFunc_GetClipAmount_ReturnValue]</text>
</g>
<!-- ExecuteUbergraph_WeaponDisplay_GrenadeLauncher_AmmoCounter__356&#45;&gt;ExecuteUbergraph_WeaponDisplay_GrenadeLauncher_AmmoCounter__410 -->
<g id="edge15" class="edge">
<title>ExecuteUbergraph_WeaponDisplay_GrenadeLauncher_AmmoCounter__356&#45;&gt;ExecuteUbergraph_WeaponDisplay_GrenadeLauncher_AmmoCounter__410</title>
<path fill="none" stroke="black" d="M3794.5,-505.04C3794.5,-489.29 3794.5,-471.73 3794.5,-455.72"/>
<polygon fill="black" stroke="black" points="3798,-455.89 3794.5,-445.89 3791,-455.89 3798,-455.89"/>
</g>
<!-- ExecuteUbergraph_WeaponDisplay_GrenadeLauncher_AmmoCounter__456 -->
<g id="node19" class="node">
<title>ExecuteUbergraph_WeaponDisplay_GrenadeLauncher_AmmoCounter__456</title>
<polygon fill="#eeeeee" stroke="black" points="3497.5,-195.5 3497.5,-323.5 4091.5,-323.5 4091.5,-195.5 3497.5,-195.5"/>
<text text-anchor="start" x="3505.5" y="-308.3" font-family="monospace" font-size="14.00">EX_Let</text>
<text text-anchor="start" x="3505.5" y="-293.3" font-family="monospace" font-size="14.00">  EX_LocalVariable [CallFunc_Conv_IntToText_ReturnValue]</text>
<text text-anchor="start" x="3505.5" y="-278.3" font-family="monospace" font-size="14.00">  EX_CallMath import /Script/Engine&#45;&gt;KismetTextLibrary&#45;&gt;Conv_IntToText</text>
<text text-anchor="start" x="3505.5" y="-263.3" font-family="monospace" font-size="14.00">    EX_LocalVariable [CallFunc_Add_IntInt_ReturnValue]</text>
<text text-anchor="start" x="3505.5" y="-248.3" font-family="monospace" font-size="14.00">    EX_False</text>
<text text-anchor="start" x="3505.5" y="-233.3" font-family="monospace" font-size="14.00">    EX_True</text>
<text text-anchor="start" x="3505.5" y="-218.3" font-family="monospace" font-size="14.00">    EX_IntConst 1</text>
<text text-anchor="start" x="3505.5" y="-203.3" font-family="monospace" font-size="14.00">    EX_IntConst 324</text>
</g>
<!-- ExecuteUbergraph_WeaponDisplay_GrenadeLauncher_AmmoCounter__410&#45;&gt;ExecuteUbergraph_WeaponDisplay_GrenadeLauncher_AmmoCounter__456 -->
<g id="edge16" class="edge">
<title>ExecuteUbergraph_WeaponDisplay_GrenadeLauncher_AmmoCounter__410&#45;&gt;ExecuteUbergraph_WeaponDisplay_GrenadeLauncher_AmmoCounter__456</title>
<path fill="none" stroke="black" d="M3794.5,-361.83C3794.5,-353.29 3794.5,-344.02 3794.5,-334.66"/>
<polygon fill="black" stroke="black" points="3798,-334.77 3794.5,-324.77 3791,-334.77 3798,-334.77"/>
</g>
<!-- ExecuteUbergraph_WeaponDisplay_GrenadeLauncher_AmmoCounter__505 -->
<g id="node20" class="node">
<title>ExecuteUbergraph_WeaponDisplay_GrenadeLauncher_AmmoCounter__505</title>
<polygon fill="#eeeeee" stroke="black" points="3547,-74.5 3547,-157.5 4042,-157.5 4042,-74.5 3547,-74.5"/>
<text text-anchor="start" x="3555" y="-142.3" font-family="monospace" font-size="14.00">EX_Context</text>
<text text-anchor="start" x="3555" y="-127.3" font-family="monospace" font-size="14.00">  EX_InstanceVariable [MaxAmmo]</text>
<text text-anchor="start" x="3555" y="-112.3" font-family="monospace" font-size="14.00">  EX_VirtualFunction SetText</text>
<text text-anchor="start" x="3555" y="-97.3" font-family="monospace" font-size="14.00">    EX_LocalVariable [CallFunc_Conv_IntToText_ReturnValue]</text>
<text text-anchor="start" x="3555" y="-82.3" font-family="monospace" font-size="14.00">  RValue = []</text>
</g>
<!-- ExecuteUbergraph_WeaponDisplay_GrenadeLauncher_AmmoCounter__456&#45;&gt;ExecuteUbergraph_WeaponDisplay_GrenadeLauncher_AmmoCounter__505 -->
<g id="edge17" class="edge">
<title>ExecuteUbergraph_WeaponDisplay_GrenadeLauncher_AmmoCounter__456&#45;&gt;ExecuteUbergraph_WeaponDisplay_GrenadeLauncher_AmmoCounter__505</title>
<path fill="none" stroke="black" d="M3794.5,-195.61C3794.5,-186.58 3794.5,-177.37 3794.5,-168.59"/>
<polygon fill="black" stroke="black" points="3798,-168.86 3794.5,-158.86 3791,-168.86 3798,-168.86"/>
</g>
<!-- ExecuteUbergraph_WeaponDisplay_GrenadeLauncher_AmmoCounter__550 -->
<g id="node21" class="node">
<title>ExecuteUbergraph_WeaponDisplay_GrenadeLauncher_AmmoCounter__550</title>
<polygon fill="#eeeeee" stroke="black" points="3708,-0.5 3708,-36.5 3881,-36.5 3881,-0.5 3708,-0.5"/>
<text text-anchor="start" x="3716" y="-14.8" font-family="monospace" font-size="14.00">EX_PopExecutionFlow</text>
</g>
<!-- ExecuteUbergraph_WeaponDisplay_GrenadeLauncher_AmmoCounter__505&#45;&gt;ExecuteUbergraph_WeaponDisplay_GrenadeLauncher_AmmoCounter__550 -->
<g id="edge18" class="edge">
<title>ExecuteUbergraph_WeaponDisplay_GrenadeLauncher_AmmoCounter__505&#45;&gt;ExecuteUbergraph_WeaponDisplay_GrenadeLauncher_AmmoCounter__550</title>
<path fill="none" stroke="black" d="M3794.5,-74.78C3794.5,-65.73 3794.5,-56.32 3794.5,-47.88"/>
<polygon fill="black" stroke="black" points="3798,-47.88 3794.5,-37.88 3791,-47.88 3798,-47.88"/>
</g>
<!-- ExecuteUbergraph_WeaponDisplay_GrenadeLauncher_AmmoCounter__551 -->
<g id="node22" class="node">
<title>ExecuteUbergraph_WeaponDisplay_GrenadeLauncher_AmmoCounter__551</title>
<polygon fill="#eeeeee" stroke="black" points="3526.5,-1459.5 3526.5,-1542.5 4062.5,-1542.5 4062.5,-1459.5 3526.5,-1459.5"/>
<text text-anchor="start" x="3534.5" y="-1527.3" font-family="monospace" font-size="14.00">EX_Context</text>
<text text-anchor="start" x="3534.5" y="-1512.3" font-family="monospace" font-size="14.00">  EX_InstanceVariable [WarningOverlay]</text>
<text text-anchor="start" x="3534.5" y="-1497.3" font-family="monospace" font-size="14.00">  EX_FinalFunction import /Script/UMG&#45;&gt;Widget&#45;&gt;SetRenderOpacity</text>
<text text-anchor="start" x="3534.5" y="-1482.3" font-family="monospace" font-size="14.00">    EX_FloatConst 0</text>
<text text-anchor="start" x="3534.5" y="-1467.3" font-family="monospace" font-size="14.00">  RValue = []</text>
</g>
<!-- ExecuteUbergraph_WeaponDisplay_GrenadeLauncher_AmmoCounter__588 -->
<g id="node23" class="node">
<title>ExecuteUbergraph_WeaponDisplay_GrenadeLauncher_AmmoCounter__588</title>
<polygon fill="#eeeeee" stroke="black" points="3741,-1303.5 3741,-1339.5 3848,-1339.5 3848,-1303.5 3741,-1303.5"/>
<text text-anchor="start" x="3749" y="-1317.8" font-family="monospace" font-size="14.00">EX_Jump 225</text>
</g>
<!-- ExecuteUbergraph_WeaponDisplay_GrenadeLauncher_AmmoCounter__551&#45;&gt;ExecuteUbergraph_WeaponDisplay_GrenadeLauncher_AmmoCounter__588 -->
<g id="edge19" class="edge">
<title>ExecuteUbergraph_WeaponDisplay_GrenadeLauncher_AmmoCounter__551&#45;&gt;ExecuteUbergraph_WeaponDisplay_GrenadeLauncher_AmmoCounter__588</title>
<path fill="none" stroke="black" d="M3794.5,-1459.72C3794.5,-1426.43 3794.5,-1380.01 3794.5,-1350.6"/>
<polygon fill="black" stroke="black" points="3798,-1350.65 3794.5,-1340.65 3791,-1350.65 3798,-1350.65"/>
</g>
<!-- ExecuteUbergraph_WeaponDisplay_GrenadeLauncher_AmmoCounter__588&#45;&gt;ExecuteUbergraph_WeaponDisplay_GrenadeLauncher_AmmoCounter__225 -->
<g id="edge20" class="edge">
<title>ExecuteUbergraph_WeaponDisplay_GrenadeLauncher_AmmoCounter__588&#45;&gt;ExecuteUbergraph_WeaponDisplay_GrenadeLauncher_AmmoCounter__225</title>
<path fill="none" stroke="black" d="M3794.5,-1303.79C3794.5,-1275.18 3794.5,-1215.69 3794.5,-1172.21"/>
<polygon fill="black" stroke="black" points="3798,-1172.49 3794.5,-1162.49 3791,-1172.49 3798,-1172.49"/>
</g>
<!-- ExecuteUbergraph_WeaponDisplay_GrenadeLauncher_AmmoCounter__593 -->
<g id="node24" class="node">
<title>ExecuteUbergraph_WeaponDisplay_GrenadeLauncher_AmmoCounter__593</title>
<polygon fill="#eeeeee" stroke="black" points="5100,-1303.5 5100,-1339.5 5273,-1339.5 5273,-1303.5 5100,-1303.5"/>
<text text-anchor="start" x="5108" y="-1317.8" font-family="monospace" font-size="14.00">EX_PopExecutionFlow</text>
</g>
<!-- ExecuteUbergraph_WeaponDisplay_GrenadeLauncher_AmmoCounter__594 -->
<g id="node25" class="node">
<title>ExecuteUbergraph_WeaponDisplay_GrenadeLauncher_AmmoCounter__594</title>
<polygon fill="#eeeeee" stroke="black" points="2218,-1257.5 2218,-1385.5 2853,-1385.5 2853,-1257.5 2218,-1257.5"/>
<text text-anchor="start" x="2226" y="-1370.3" font-family="monospace" font-size="14.00">EX_CallMath import /Script/Engine&#45;&gt;KismetSystemLibrary&#45;&gt;Delay</text>
<text text-anchor="start" x="2226" y="-1355.3" font-family="monospace" font-size="14.00">  EX_Self</text>
<text text-anchor="start" x="2226" y="-1340.3" font-family="monospace" font-size="14.00">  EX_FloatConst 1</text>
<text text-anchor="start" x="2226" y="-1325.3" font-family="monospace" font-size="14.00">  EX_StructConst import /Script/Engine&#45;&gt;LatentActionInfo</text>
<text text-anchor="start" x="2226" y="-1310.3" font-family="monospace" font-size="14.00">    EX_SkipOffsetConst 15</text>
<text text-anchor="start" x="2226" y="-1295.3" font-family="monospace" font-size="14.00">    EX_IntConst 59176517</text>
<text text-anchor="start" x="2226" y="-1280.3" font-family="monospace" font-size="14.00">    EX_NameConst ExecuteUbergraph_WeaponDisplay_GrenadeLauncher_AmmoCounter</text>
<text text-anchor="start" x="2226" y="-1265.3" font-family="monospace" font-size="14.00">    EX_Self</text>
</g>
<!-- ExecuteUbergraph_WeaponDisplay_GrenadeLauncher_AmmoCounter__594&#45;&gt;ExecuteUbergraph_WeaponDisplay_GrenadeLauncher_AmmoCounter__15 -->
<g id="edge21" class="edge">
<title>ExecuteUbergraph_WeaponDisplay_GrenadeLauncher_AmmoCounter__594:e&#45;&gt;ExecuteUbergraph_WeaponDisplay_GrenadeLauncher_AmmoCounter__15</title>
<path fill="none" stroke="red" d="M2854.5,-1321.5C2909.53,-1321.5 2921.26,-1251.84 2921.59,-1194.54"/>
<polygon fill="none" stroke="red" points="2925.09,-1194.76 2921.53,-1184.78 2918.1,-1194.81 2925.09,-1194.76"/>
</g>
<!-- ExecuteUbergraph_WeaponDisplay_GrenadeLauncher_AmmoCounter__648 -->
<g id="node26" class="node">
<title>ExecuteUbergraph_WeaponDisplay_GrenadeLauncher_AmmoCounter__648</title>
<polygon fill="#eeeeee" stroke="black" points="2428,-1101.5 2428,-1137.5 2601,-1137.5 2601,-1101.5 2428,-1101.5"/>
<text text-anchor="start" x="2436" y="-1115.8" font-family="monospace" font-size="14.00">EX_PopExecutionFlow</text>
</g>
<!-- ExecuteUbergraph_WeaponDisplay_GrenadeLauncher_AmmoCounter__594&#45;&gt;ExecuteUbergraph_WeaponDisplay_GrenadeLauncher_AmmoCounter__648 -->
<g id="edge22" class="edge">
<title>ExecuteUbergraph_WeaponDisplay_GrenadeLauncher_AmmoCounter__594&#45;&gt;ExecuteUbergraph_WeaponDisplay_GrenadeLauncher_AmmoCounter__648</title>
<path fill="none" stroke="black" d="M2528.91,-1257.77C2525.08,-1221.24 2520.43,-1176.98 2517.47,-1148.78"/>
<polygon fill="black" stroke="black" points="2520.96,-1148.48 2516.43,-1138.9 2514,-1149.21 2520.96,-1148.48"/>
</g>
<!-- ExecuteUbergraph_WeaponDisplay_GrenadeLauncher_AmmoCounter__651 -->
<g id="node28" class="node">
<title>ExecuteUbergraph_WeaponDisplay_GrenadeLauncher_AmmoCounter__651</title>
<polygon fill="#eeeeee" stroke="black" points="4648.5,-1673.5 4648.5,-1709.5 4780.5,-1709.5 4780.5,-1673.5 4648.5,-1673.5"/>
<text text-anchor="start" x="4656.5" y="-1687.8" font-family="monospace" font-size="14.00">EX_EndOfScript</text>
</g>
<!-- Total Ammo left changed -->
<g id="node29" class="node">
<title>Total Ammo left changed</title>
<polygon fill="#ff8888" stroke="black" points="1747.5,-1833.5 1747.5,-1886.5 2217.5,-1886.5 2217.5,-1833.5 1747.5,-1833.5"/>
<text text-anchor="start" x="1755.5" y="-1871.3" font-family="monospace" font-size="14.00">Function Total Ammo left changed</text>
<text text-anchor="start" x="1755.5" y="-1856.3" font-family="monospace" font-size="14.00">  IntProperty amount</text>
<text text-anchor="start" x="1755.5" y="-1841.3" font-family="monospace" font-size="14.00">    CPF_BlueprintVisible|CPF_BlueprintReadOnly|CPF_Parm</text>
</g>
<!-- Total Ammo left changed__0 -->
<g id="node30" class="node">
<title>Total Ammo left changed__0</title>
<polygon fill="#eeeeee" stroke="black" points="1768,-1616.5 1768,-1654.5 2197,-1654.5 2197,-1616.5 1768,-1616.5"/>
<text text-anchor="start" x="1776" y="-1639.3" font-family="monospace" font-size="14.00">EX_LetValueOnPersistentFrame [K2Node_Event_amount]</text>
<text text-anchor="start" x="1776" y="-1624.3" font-family="monospace" font-size="14.00">  EX_LocalVariable [amount]</text>
</g>
<!-- Total Ammo left changed&#45;&gt;Total Ammo left changed__0 -->
<g id="edge23" class="edge">
<title>Total Ammo left changed&#45;&gt;Total Ammo left changed__0</title>
<path fill="none" stroke="black" d="M1982.5,-1833.91C1982.5,-1792.46 1982.5,-1709.89 1982.5,-1665.82"/>
<polygon fill="black" stroke="black" points="1986,-1665.99 1982.5,-1655.99 1979,-1665.99 1986,-1665.99"/>
</g>
<!-- Total Ammo left changed__18 -->
<g id="node31" class="node">
<title>Total Ammo left changed__18</title>
<polygon fill="#eeeeee" stroke="black" points="1429.5,-1482 1429.5,-1520 2535.5,-1520 2535.5,-1482 1429.5,-1482"/>
<text text-anchor="start" x="1437.5" y="-1504.8" font-family="monospace" font-size="14.00">EX_LocalFinalFunction export WeaponDisplay_GrenadeLauncher_AmmoCounter_C&#45;&gt;ExecuteUbergraph_WeaponDisplay_GrenadeLauncher_AmmoCounter</text>
<text text-anchor="start" x="1437.5" y="-1489.8" font-family="monospace" font-size="14.00">  EX_IntConst 594</text>
</g>
<!-- Total Ammo left changed__0&#45;&gt;Total Ammo left changed__18 -->
<g id="edge24" class="edge">
<title>Total Ammo left changed__0&#45;&gt;Total Ammo left changed__18</title>
<path fill="none" stroke="black" d="M1982.5,-1616.63C1982.5,-1594.68 1982.5,-1557.14 1982.5,-1531.03"/>
<polygon fill="black" stroke="black" points="1986,-1531.1 1982.5,-1521.1 1979,-1531.1 1986,-1531.1"/>
</g>
<!-- Total Ammo left changed__18&#45;&gt;ExecuteUbergraph_WeaponDisplay_GrenadeLauncher_AmmoCounter__594 -->
<g id="edge25" class="edge">
<title>Total Ammo left changed__18:e&#45;&gt;ExecuteUbergraph_WeaponDisplay_GrenadeLauncher_AmmoCounter__594</title>
<path fill="none" stroke="red" d="M2536.5,-1501C2580.73,-1501 2575.33,-1445.53 2561.9,-1396.44"/>
<polygon fill="none" stroke="red" points="2565.28,-1395.53 2559.15,-1386.89 2558.55,-1397.46 2565.28,-1395.53"/>
</g>
<!-- Total Ammo left changed__33 -->
<g id="node32" class="node">
<title>Total Ammo left changed__33</title>
<polygon fill="#eeeeee" stroke="black" points="1924.5,-1302.5 1924.5,-1340.5 2040.5,-1340.5 2040.5,-1302.5 1924.5,-1302.5"/>
<text text-anchor="start" x="1932.5" y="-1325.3" font-family="monospace" font-size="14.00">EX_Return</text>
<text text-anchor="start" x="1932.5" y="-1310.3" font-family="monospace" font-size="14.00">  EX_Nothing</text>
</g>
<!-- Total Ammo left changed__18&#45;&gt;Total Ammo left changed__33 -->
<g id="edge26" class="edge">
<title>Total Ammo left changed__18&#45;&gt;Total Ammo left changed__33</title>
<path fill="none" stroke="black" d="M1982.5,-1482C1982.5,-1451.36 1982.5,-1388.78 1982.5,-1351.77"/>
<polygon fill="black" stroke="black" points="1986,-1351.79 1982.5,-1341.79 1979,-1351.79 1986,-1351.79"/>
</g>
<!-- Total Ammo left changed__35 -->
<g id="node33" class="node">
<title>Total Ammo left changed__35</title>
<polygon fill="#eeeeee" stroke="black" points="4648.5,-1561.5 4648.5,-1597.5 4780.5,-1597.5 4780.5,-1561.5 4648.5,-1561.5"/>
<text text-anchor="start" x="4656.5" y="-1575.8" font-family="monospace" font-size="14.00">EX_EndOfScript</text>
</g>
<!-- Max Ammo Changed -->
<g id="node34" class="node">
<title>Max Ammo Changed</title>
<polygon fill="#ff8888" stroke="black" points="4398.5,-1833.5 4398.5,-1886.5 4868.5,-1886.5 4868.5,-1833.5 4398.5,-1833.5"/>
<text text-anchor="start" x="4406.5" y="-1871.3" font-family="monospace" font-size="14.00">Function Max Ammo Changed</text>
<text text-anchor="start" x="4406.5" y="-1856.3" font-family="monospace" font-size="14.00">  IntProperty amount</text>
<text text-anchor="start" x="4406.5" y="-1841.3" font-family="monospace" font-size="14.00">    CPF_BlueprintVisible|CPF_BlueprintReadOnly|CPF_Parm</text>
</g>
<!-- Max Ammo Changed__0 -->
<g id="node35" class="node">
<title>Max Ammo Changed__0</title>
<polygon fill="#eeeeee" stroke="black" points="4410.5,-1616.5 4410.5,-1654.5 4856.5,-1654.5 4856.5,-1616.5 4410.5,-1616.5"/>
<text text-anchor="start" x="4418.5" y="-1639.3" font-family="monospace" font-size="14.00">EX_LetValueOnPersistentFrame [K2Node_Event_amount_1]</text>
<text text-anchor="start" x="4418.5" y="-1624.3" font-family="monospace" font-size="14.00">  EX_LocalVariable [amount]</text>
</g>
<!-- Max Ammo Changed&#45;&gt;Max Ammo Changed__0 -->
<g id="edge27" class="edge">
<title>Max Ammo Changed&#45;&gt;Max Ammo Changed__0</title>
<path fill="none" stroke="black" d="M4633.5,-1833.91C4633.5,-1792.46 4633.5,-1709.89 4633.5,-1665.82"/>
<polygon fill="black" stroke="black" points="4637,-1665.99 4633.5,-1655.99 4630,-1665.99 4637,-1665.99"/>
</g>
<!-- Max Ammo Changed__18 -->
<g id="node36" class="node">
<title>Max Ammo Changed__18</title>
<polygon fill="#eeeeee" stroke="black" points="4080.5,-1482 4080.5,-1520 5186.5,-1520 5186.5,-1482 4080.5,-1482"/>
<text text-anchor="start" x="4088.5" y="-1504.8" font-family="monospace" font-size="14.00">EX_LocalFinalFunction export WeaponDisplay_GrenadeLauncher_AmmoCounter_C&#45;&gt;ExecuteUbergraph_WeaponDisplay_GrenadeLauncher_AmmoCounter</text>
<text text-anchor="start" x="4088.5" y="-1489.8" font-family="monospace" font-size="14.00">  EX_IntConst 593</text>
</g>
<!-- Max Ammo Changed__0&#45;&gt;Max Ammo Changed__18 -->
<g id="edge28" class="edge">
<title>Max Ammo Changed__0&#45;&gt;Max Ammo Changed__18</title>
<path fill="none" stroke="black" d="M4633.5,-1616.63C4633.5,-1594.68 4633.5,-1557.14 4633.5,-1531.03"/>
<polygon fill="black" stroke="black" points="4637,-1531.1 4633.5,-1521.1 4630,-1531.1 4637,-1531.1"/>
</g>
<!-- Max Ammo Changed__18&#45;&gt;ExecuteUbergraph_WeaponDisplay_GrenadeLauncher_AmmoCounter__593 -->
<g id="edge29" class="edge">
<title>Max Ammo Changed__18:e&#45;&gt;ExecuteUbergraph_WeaponDisplay_GrenadeLauncher_AmmoCounter__593</title>
<path fill="none" stroke="red" d="M5187.5,-1501C5202.35,-1501 5194.4,-1400.91 5189.47,-1350.63"/>
<polygon fill="none" stroke="red" points="5192.96,-1350.4 5188.48,-1340.8 5186,-1351.1 5192.96,-1350.4"/>
</g>
<!-- Max Ammo Changed__33 -->
<g id="node37" class="node">
<title>Max Ammo Changed__33</title>
<polygon fill="#eeeeee" stroke="black" points="4575.5,-1302.5 4575.5,-1340.5 4691.5,-1340.5 4691.5,-1302.5 4575.5,-1302.5"/>
<text text-anchor="start" x="4583.5" y="-1325.3" font-family="monospace" font-size="14.00">EX_Return</text>
<text text-anchor="start" x="4583.5" y="-1310.3" font-family="monospace" font-size="14.00">  EX_Nothing</text>
</g>
<!-- Max Ammo Changed__18&#45;&gt;Max Ammo Changed__33 -->
<g id="edge30" class="edge">
<title>Max Ammo Changed__18&#45;&gt;Max Ammo Changed__33</title>
<path fill="none" stroke="black" d="M4633.5,-1482C4633.5,-1451.36 4633.5,-1388.78 4633.5,-1351.77"/>
<polygon fill="black" stroke="black" points="4637,-1351.79 4633.5,-1341.79 4630,-1351.79 4637,-1351.79"/>
</g>
<!-- Max Ammo Changed__35 -->
<g id="node38" class="node">
<title>Max Ammo Changed__35</title>
<polygon fill="#eeeeee" stroke="black" points="5201.5,-1404.5 5201.5,-1440.5 5333.5,-1440.5 5333.5,-1404.5 5201.5,-1404.5"/>
<text text-anchor="start" x="5209.5" y="-1418.8" font-family="monospace" font-size="14.00">EX_EndOfScript</text>
</g>
<!-- Construct -->
<g id="node39" class="node">
<title>Construct</title>
<polygon fill="#ff8888" stroke="black" points="3159,-1842 3159,-1878 3324,-1878 3324,-1842 3159,-1842"/>
<text text-anchor="start" x="3167" y="-1856.3" font-family="monospace" font-size="14.00">Function Construct</text>
</g>
<!-- Construct__0 -->
<g id="node40" class="node">
<title>Construct__0</title>
<polygon fill="#eeeeee" stroke="black" points="2688.5,-1616.5 2688.5,-1654.5 3794.5,-1654.5 3794.5,-1616.5 2688.5,-1616.5"/>
<text text-anchor="start" x="2696.5" y="-1639.3" font-family="monospace" font-size="14.00">EX_LocalFinalFunction export WeaponDisplay_GrenadeLauncher_AmmoCounter_C&#45;&gt;ExecuteUbergraph_WeaponDisplay_GrenadeLauncher_AmmoCounter</text>
<text text-anchor="start" x="2696.5" y="-1624.3" font-family="monospace" font-size="14.00">  EX_IntConst 551</text>
</g>
<!-- Construct&#45;&gt;Construct__0 -->
<g id="edge31" class="edge">
<title>Construct&#45;&gt;Construct__0</title>
<path fill="none" stroke="black" d="M3241.5,-1842.28C3241.5,-1804.62 3241.5,-1712.81 3241.5,-1665.59"/>
<polygon fill="black" stroke="black" points="3245,-1665.86 3241.5,-1655.86 3238,-1665.86 3245,-1665.86"/>
</g>
<!-- Construct__0&#45;&gt;ExecuteUbergraph_WeaponDisplay_GrenadeLauncher_AmmoCounter__551 -->
<g id="edge32" class="edge">
<title>Construct__0:e&#45;&gt;ExecuteUbergraph_WeaponDisplay_GrenadeLauncher_AmmoCounter__551</title>
<path fill="none" stroke="red" d="M3795.5,-1635.5C3829.78,-1635.5 3824.12,-1590.94 3813.22,-1553.31"/>
<polygon fill="none" stroke="red" points="3816.6,-1552.39 3810.32,-1543.86 3809.91,-1554.45 3816.6,-1552.39"/>
</g>
<!-- Construct__15 -->
<g id="node41" class="node">
<title>Construct__15</title>
<polygon fill="#eeeeee" stroke="black" points="3183.5,-1482 3183.5,-1520 3299.5,-1520 3299.5,-1482 3183.5,-1482"/>
<text text-anchor="start" x="3191.5" y="-1504.8" font-family="monospace" font-size="14.00">EX_Return</text>
<text text-anchor="start" x="3191.5" y="-1489.8" font-family="monospace" font-size="14.00">  EX_Nothing</text>
</g>
<!-- Construct__0&#45;&gt;Construct__15 -->
<g id="edge33" class="edge">
<title>Construct__0&#45;&gt;Construct__15</title>
<path fill="none" stroke="black" d="M3241.5,-1616.63C3241.5,-1594.68 3241.5,-1557.14 3241.5,-1531.03"/>
<polygon fill="black" stroke="black" points="3245,-1531.1 3241.5,-1521.1 3238,-1531.1 3245,-1531.1"/>
</g>
<!-- Construct__17 -->
<g id="node42" class="node">
<title>Construct__17</title>
<polygon fill="#eeeeee" stroke="black" points="3809.5,-1202.5 3809.5,-1238.5 3941.5,-1238.5 3941.5,-1202.5 3809.5,-1202.5"/>
<text text-anchor="start" x="3817.5" y="-1216.8" font-family="monospace" font-size="14.00">EX_EndOfScript</text>
</g>
</g>
</svg>
