<?xml version="1.0" encoding="UTF-8" standalone="no"?>
<!DOCTYPE svg PUBLIC "-//W3C//DTD SVG 1.1//EN"
 "http://www.w3.org/Graphics/SVG/1.1/DTD/svg11.dtd">
<!-- Generated by graphviz version 7.0.1 (0)
 -->
<!-- Pages: 1 -->
<svg width="3582pt" height="825pt"
 viewBox="0.00 0.00 3582.00 825.00" xmlns="http://www.w3.org/2000/svg" xmlns:xlink="http://www.w3.org/1999/xlink">
<g id="graph0" class="graph" transform="scale(1 1) rotate(0) translate(4 821)">
<polygon fill="white" stroke="none" points="-4,4 -4,-821 3578,-821 3578,4 -4,4"/>
<!-- BP_Guntower_Module_RadialFire_new_C -->
<g id="node1" class="node">
<title>BP_Guntower_Module_RadialFire_new_C</title>
<polygon fill="#88ff88" stroke="black" points="0,-583.5 0,-816.5 594,-816.5 594,-583.5 0,-583.5"/>
<text text-anchor="start" x="8" y="-801.3" font-family="monospace" font-size="14.00">ClassExport: BP_Guntower_Module_RadialFire_new_C</text>
<text text-anchor="start" x="8" y="-786.3" font-family="monospace" font-size="14.00">  SuperStruct: import /Script/FSD&#45;&gt;RadialFireModule</text>
<text text-anchor="start" x="8" y="-771.3" font-family="monospace" font-size="14.00">  Properties:</text>
<text text-anchor="start" x="8" y="-756.3" font-family="monospace" font-size="14.00">    StructProperty UberGraphFrame</text>
<text text-anchor="start" x="8" y="-741.3" font-family="monospace" font-size="14.00">      CPF_Transient|CPF_DuplicateTransient</text>
<text text-anchor="start" x="8" y="-726.3" font-family="monospace" font-size="14.00">    ObjectProperty Capsule</text>
<text text-anchor="start" x="8" y="-711.3" font-family="monospace" font-size="14.00">      CPF_BlueprintVisible|CPF_InstancedReference|CPF_NonTransactional</text>
<text text-anchor="start" x="8" y="-696.3" font-family="monospace" font-size="14.00">    ObjectProperty Outline</text>
<text text-anchor="start" x="8" y="-681.3" font-family="monospace" font-size="14.00">      CPF_BlueprintVisible|CPF_InstancedReference|CPF_NonTransactional</text>
<text text-anchor="start" x="8" y="-666.3" font-family="monospace" font-size="14.00">    ObjectProperty Weakpoint2</text>
<text text-anchor="start" x="8" y="-651.3" font-family="monospace" font-size="14.00">      CPF_BlueprintVisible|CPF_InstancedReference|CPF_NonTransactional</text>
<text text-anchor="start" x="8" y="-636.3" font-family="monospace" font-size="14.00">    ObjectProperty Weakpoint1</text>
<text text-anchor="start" x="8" y="-621.3" font-family="monospace" font-size="14.00">      CPF_BlueprintVisible|CPF_InstancedReference|CPF_NonTransactional</text>
<text text-anchor="start" x="8" y="-606.3" font-family="monospace" font-size="14.00">    ObjectProperty Weakpoint</text>
<text text-anchor="start" x="8" y="-591.3" font-family="monospace" font-size="14.00">      CPF_BlueprintVisible|CPF_InstancedReference|CPF_NonTransactional</text>
</g>
<!-- ExecuteUbergraph_BP_Guntower_Module_RadialFire_new -->
<g id="node2" class="node">
<title>ExecuteUbergraph_BP_Guntower_Module_RadialFire_new</title>
<polygon fill="#ff8888" stroke="black" points="612.5,-643.5 612.5,-756.5 1115.5,-756.5 1115.5,-643.5 612.5,-643.5"/>
<text text-anchor="start" x="620.5" y="-741.3" font-family="monospace" font-size="14.00">Function ExecuteUbergraph_BP_Guntower_Module_RadialFire_new</text>
<text text-anchor="start" x="620.5" y="-726.3" font-family="monospace" font-size="14.00">  IntProperty EntryPoint</text>
<text text-anchor="start" x="620.5" y="-711.3" font-family="monospace" font-size="14.00">    CPF_BlueprintVisible|CPF_BlueprintReadOnly|CPF_Parm</text>
<text text-anchor="start" x="620.5" y="-696.3" font-family="monospace" font-size="14.00">  ObjectProperty CallFunc_SpawnSoundAttached_ReturnValue</text>
<text text-anchor="start" x="620.5" y="-681.3" font-family="monospace" font-size="14.00">    CPF_InstancedReference</text>
<text text-anchor="start" x="620.5" y="-666.3" font-family="monospace" font-size="14.00">  ObjectProperty CallFunc_SpawnSoundAttached_ReturnValue_1</text>
<text text-anchor="start" x="620.5" y="-651.3" font-family="monospace" font-size="14.00">    CPF_InstancedReference</text>
</g>
<!-- ExecuteUbergraph_BP_Guntower_Module_RadialFire_new__0 -->
<g id="node3" class="node">
<title>ExecuteUbergraph_BP_Guntower_Module_RadialFire_new__0</title>
<polygon fill="#eeeeee" stroke="black" points="728,-508.5 728,-546.5 1000,-546.5 1000,-508.5 728,-508.5"/>
<text text-anchor="start" x="736" y="-531.3" font-family="monospace" font-size="14.00">EX_ComputedJump</text>
<text text-anchor="start" x="736" y="-516.3" font-family="monospace" font-size="14.00">  EX_LocalVariable [EntryPoint]</text>
</g>
<!-- ExecuteUbergraph_BP_Guntower_Module_RadialFire_new&#45;&gt;ExecuteUbergraph_BP_Guntower_Module_RadialFire_new__0 -->
<g id="edge1" class="edge">
<title>ExecuteUbergraph_BP_Guntower_Module_RadialFire_new&#45;&gt;ExecuteUbergraph_BP_Guntower_Module_RadialFire_new__0</title>
<path fill="none" stroke="black" d="M864,-643.64C864,-614.99 864,-581.19 864,-557.65"/>
<polygon fill="black" stroke="black" points="867.5,-557.87 864,-547.87 860.5,-557.87 867.5,-557.87"/>
</g>
<!-- ExecuteUbergraph_BP_Guntower_Module_RadialFire_new__10 -->
<g id="node4" class="node">
<title>ExecuteUbergraph_BP_Guntower_Module_RadialFire_new__10</title>
<polygon fill="#eeeeee" stroke="black" points="2516,-148.5 2516,-396.5 3424,-396.5 3424,-148.5 2516,-148.5"/>
<text text-anchor="start" x="2524" y="-381.3" font-family="monospace" font-size="14.00">EX_LetObj</text>
<text text-anchor="start" x="2524" y="-366.3" font-family="monospace" font-size="14.00">  EX_LocalVariable [CallFunc_SpawnSoundAttached_ReturnValue]</text>
<text text-anchor="start" x="2524" y="-351.3" font-family="monospace" font-size="14.00">  EX_CallMath import /Script/Engine&#45;&gt;GameplayStatics&#45;&gt;SpawnSoundAttached</text>
<text text-anchor="start" x="2524" y="-336.3" font-family="monospace" font-size="14.00">    EX_ObjectConst import /Game/Audio/SFX/GameEvents/GunTower/GunTowerRadialFire_Cue&#45;&gt;GunTowerRadialFire_Cue</text>
<text text-anchor="start" x="2524" y="-321.3" font-family="monospace" font-size="14.00">    EX_InstanceVariable [ModuleMesh]</text>
<text text-anchor="start" x="2524" y="-306.3" font-family="monospace" font-size="14.00">    EX_NameConst None</text>
<text text-anchor="start" x="2524" y="-291.3" font-family="monospace" font-size="14.00">    EX_VectorConst 0,0,0</text>
<text text-anchor="start" x="2524" y="-276.3" font-family="monospace" font-size="14.00">    EX_RotationConst 0,0,0</text>
<text text-anchor="start" x="2524" y="-261.3" font-family="monospace" font-size="14.00">    EX_ByteConst 0</text>
<text text-anchor="start" x="2524" y="-246.3" font-family="monospace" font-size="14.00">    EX_False</text>
<text text-anchor="start" x="2524" y="-231.3" font-family="monospace" font-size="14.00">    EX_FloatConst 1</text>
<text text-anchor="start" x="2524" y="-216.3" font-family="monospace" font-size="14.00">    EX_FloatConst 1</text>
<text text-anchor="start" x="2524" y="-201.3" font-family="monospace" font-size="14.00">    EX_FloatConst 0</text>
<text text-anchor="start" x="2524" y="-186.3" font-family="monospace" font-size="14.00">    EX_NoObject</text>
<text text-anchor="start" x="2524" y="-171.3" font-family="monospace" font-size="14.00">    EX_NoObject</text>
<text text-anchor="start" x="2524" y="-156.3" font-family="monospace" font-size="14.00">    EX_True</text>
</g>
<!-- ExecuteUbergraph_BP_Guntower_Module_RadialFire_new__108 -->
<g id="node5" class="node">
<title>ExecuteUbergraph_BP_Guntower_Module_RadialFire_new__108</title>
<polygon fill="#eeeeee" stroke="black" points="2702.5,-75.5 2702.5,-111.5 2809.5,-111.5 2809.5,-75.5 2702.5,-75.5"/>
<text text-anchor="start" x="2710.5" y="-89.8" font-family="monospace" font-size="14.00">EX_Jump 216</text>
</g>
<!-- ExecuteUbergraph_BP_Guntower_Module_RadialFire_new__10&#45;&gt;ExecuteUbergraph_BP_Guntower_Module_RadialFire_new__108 -->
<g id="edge2" class="edge">
<title>ExecuteUbergraph_BP_Guntower_Module_RadialFire_new__10&#45;&gt;ExecuteUbergraph_BP_Guntower_Module_RadialFire_new__108</title>
<path fill="none" stroke="black" d="M2821.37,-148.57C2807.94,-137.46 2795.54,-127.2 2785.24,-118.68"/>
<polygon fill="black" stroke="black" points="2787.49,-116.01 2777.56,-112.33 2783.03,-121.4 2787.49,-116.01"/>
</g>
<!-- ExecuteUbergraph_BP_Guntower_Module_RadialFire_new__216 -->
<g id="node8" class="node">
<title>ExecuteUbergraph_BP_Guntower_Module_RadialFire_new__216</title>
<polygon fill="#eeeeee" stroke="black" points="2456,-0.5 2456,-38.5 2572,-38.5 2572,-0.5 2456,-0.5"/>
<text text-anchor="start" x="2464" y="-23.3" font-family="monospace" font-size="14.00">EX_Return</text>
<text text-anchor="start" x="2464" y="-8.3" font-family="monospace" font-size="14.00">  EX_Nothing</text>
</g>
<!-- ExecuteUbergraph_BP_Guntower_Module_RadialFire_new__108&#45;&gt;ExecuteUbergraph_BP_Guntower_Module_RadialFire_new__216 -->
<g id="edge3" class="edge">
<title>ExecuteUbergraph_BP_Guntower_Module_RadialFire_new__108&#45;&gt;ExecuteUbergraph_BP_Guntower_Module_RadialFire_new__216</title>
<path fill="none" stroke="black" d="M2702.59,-76.61C2667.37,-66.13 2620.91,-52.31 2582.91,-41"/>
<polygon fill="black" stroke="black" points="2583.96,-37.66 2573.37,-38.16 2581.96,-44.37 2583.96,-37.66"/>
</g>
<!-- ExecuteUbergraph_BP_Guntower_Module_RadialFire_new__113 -->
<g id="node6" class="node">
<title>ExecuteUbergraph_BP_Guntower_Module_RadialFire_new__113</title>
<polygon fill="#eeeeee" stroke="black" points="2927.5,-434.5 2927.5,-470.5 3026.5,-470.5 3026.5,-434.5 2927.5,-434.5"/>
<text text-anchor="start" x="2935.5" y="-448.8" font-family="monospace" font-size="14.00">EX_Jump 10</text>
</g>
<!-- ExecuteUbergraph_BP_Guntower_Module_RadialFire_new__113&#45;&gt;ExecuteUbergraph_BP_Guntower_Module_RadialFire_new__10 -->
<g id="edge4" class="edge">
<title>ExecuteUbergraph_BP_Guntower_Module_RadialFire_new__113&#45;&gt;ExecuteUbergraph_BP_Guntower_Module_RadialFire_new__10</title>
<path fill="none" stroke="black" d="M2976.34,-434.75C2976.05,-427.43 2975.69,-418.13 2975.28,-407.69"/>
<polygon fill="black" stroke="black" points="2978.78,-407.81 2974.89,-397.96 2971.79,-408.09 2978.78,-407.81"/>
</g>
<!-- ExecuteUbergraph_BP_Guntower_Module_RadialFire_new__118 -->
<g id="node7" class="node">
<title>ExecuteUbergraph_BP_Guntower_Module_RadialFire_new__118</title>
<polygon fill="#eeeeee" stroke="black" points="1659.5,-148.5 1659.5,-396.5 2484.5,-396.5 2484.5,-148.5 1659.5,-148.5"/>
<text text-anchor="start" x="1667.5" y="-381.3" font-family="monospace" font-size="14.00">EX_LetObj</text>
<text text-anchor="start" x="1667.5" y="-366.3" font-family="monospace" font-size="14.00">  EX_LocalVariable [CallFunc_SpawnSoundAttached_ReturnValue_1]</text>
<text text-anchor="start" x="1667.5" y="-351.3" font-family="monospace" font-size="14.00">  EX_CallMath import /Script/Engine&#45;&gt;GameplayStatics&#45;&gt;SpawnSoundAttached</text>
<text text-anchor="start" x="1667.5" y="-336.3" font-family="monospace" font-size="14.00">    EX_ObjectConst import /Game/Audio/SFX/GameEvents/GunTower/GunTowerStart_Cue&#45;&gt;GunTowerStart_Cue</text>
<text text-anchor="start" x="1667.5" y="-321.3" font-family="monospace" font-size="14.00">    EX_InstanceVariable [ModuleMesh]</text>
<text text-anchor="start" x="1667.5" y="-306.3" font-family="monospace" font-size="14.00">    EX_NameConst None</text>
<text text-anchor="start" x="1667.5" y="-291.3" font-family="monospace" font-size="14.00">    EX_VectorConst 0,0,0</text>
<text text-anchor="start" x="1667.5" y="-276.3" font-family="monospace" font-size="14.00">    EX_RotationConst 0,0,0</text>
<text text-anchor="start" x="1667.5" y="-261.3" font-family="monospace" font-size="14.00">    EX_ByteConst 0</text>
<text text-anchor="start" x="1667.5" y="-246.3" font-family="monospace" font-size="14.00">    EX_False</text>
<text text-anchor="start" x="1667.5" y="-231.3" font-family="monospace" font-size="14.00">    EX_FloatConst 1</text>
<text text-anchor="start" x="1667.5" y="-216.3" font-family="monospace" font-size="14.00">    EX_FloatConst 1</text>
<text text-anchor="start" x="1667.5" y="-201.3" font-family="monospace" font-size="14.00">    EX_FloatConst 0</text>
<text text-anchor="start" x="1667.5" y="-186.3" font-family="monospace" font-size="14.00">    EX_NoObject</text>
<text text-anchor="start" x="1667.5" y="-171.3" font-family="monospace" font-size="14.00">    EX_NoObject</text>
<text text-anchor="start" x="1667.5" y="-156.3" font-family="monospace" font-size="14.00">    EX_True</text>
</g>
<!-- ExecuteUbergraph_BP_Guntower_Module_RadialFire_new__118&#45;&gt;ExecuteUbergraph_BP_Guntower_Module_RadialFire_new__216 -->
<g id="edge5" class="edge">
<title>ExecuteUbergraph_BP_Guntower_Module_RadialFire_new__118&#45;&gt;ExecuteUbergraph_BP_Guntower_Module_RadialFire_new__216</title>
<path fill="none" stroke="black" d="M2288.47,-148.57C2358.73,-108.67 2429.61,-68.42 2472.67,-43.97"/>
<polygon fill="black" stroke="black" points="2474.19,-47.13 2481.16,-39.15 2470.74,-41.04 2474.19,-47.13"/>
</g>
<!-- ExecuteUbergraph_BP_Guntower_Module_RadialFire_new__218 -->
<g id="node9" class="node">
<title>ExecuteUbergraph_BP_Guntower_Module_RadialFire_new__218</title>
<polygon fill="#eeeeee" stroke="black" points="3442,-254.5 3442,-290.5 3574,-290.5 3574,-254.5 3442,-254.5"/>
<text text-anchor="start" x="3450" y="-268.8" font-family="monospace" font-size="14.00">EX_EndOfScript</text>
</g>
<!-- OnTearArmor -->
<g id="node10" class="node">
<title>OnTearArmor</title>
<polygon fill="#ff8888" stroke="black" points="1414,-682 1414,-718 1596,-718 1596,-682 1414,-682"/>
<text text-anchor="start" x="1422" y="-696.3" font-family="monospace" font-size="14.00">Function OnTearArmor</text>
</g>
<!-- OnTearArmor__0 -->
<g id="node11" class="node">
<title>OnTearArmor__0</title>
<polygon fill="#eeeeee" stroke="black" points="1018,-508.5 1018,-546.5 1992,-546.5 1992,-508.5 1018,-508.5"/>
<text text-anchor="start" x="1026" y="-531.3" font-family="monospace" font-size="14.00">EX_LocalFinalFunction export BP_Guntower_Module_RadialFire_new_C&#45;&gt;ExecuteUbergraph_BP_Guntower_Module_RadialFire_new</text>
<text text-anchor="start" x="1026" y="-516.3" font-family="monospace" font-size="14.00">  EX_IntConst 118</text>
</g>
<!-- OnTearArmor&#45;&gt;OnTearArmor__0 -->
<g id="edge6" class="edge">
<title>OnTearArmor&#45;&gt;OnTearArmor__0</title>
<path fill="none" stroke="black" d="M1505,-682.03C1505,-652.97 1505,-593.36 1505,-557.57"/>
<polygon fill="black" stroke="black" points="1508.5,-557.94 1505,-547.94 1501.5,-557.94 1508.5,-557.94"/>
</g>
<!-- OnTearArmor__0&#45;&gt;ExecuteUbergraph_BP_Guntower_Module_RadialFire_new__118 -->
<g id="edge7" class="edge">
<title>OnTearArmor__0:e&#45;&gt;ExecuteUbergraph_BP_Guntower_Module_RadialFire_new__118</title>
<path fill="none" stroke="red" d="M1993,-527.5C1994.78,-527.5 2013.26,-468.29 2031.9,-407.05"/>
<polygon fill="none" stroke="red" points="2035.13,-408.44 2034.69,-397.86 2028.43,-406.41 2035.13,-408.44"/>
</g>
<!-- OnTearArmor__15 -->
<g id="node12" class="node">
<title>OnTearArmor__15</title>
<polygon fill="#eeeeee" stroke="black" points="1447,-433.5 1447,-471.5 1563,-471.5 1563,-433.5 1447,-433.5"/>
<text text-anchor="start" x="1455" y="-456.3" font-family="monospace" font-size="14.00">EX_Return</text>
<text text-anchor="start" x="1455" y="-441.3" font-family="monospace" font-size="14.00">  EX_Nothing</text>
</g>
<!-- OnTearArmor__0&#45;&gt;OnTearArmor__15 -->
<g id="edge8" class="edge">
<title>OnTearArmor__0&#45;&gt;OnTearArmor__15</title>
<path fill="none" stroke="black" d="M1505,-508.83C1505,-501 1505,-491.57 1505,-482.74"/>
<polygon fill="black" stroke="black" points="1508.5,-482.78 1505,-472.78 1501.5,-482.78 1508.5,-482.78"/>
</g>
<!-- OnTearArmor__17 -->
<g id="node13" class="node">
<title>OnTearArmor__17</title>
<polygon fill="#eeeeee" stroke="black" points="2828,-75.5 2828,-111.5 2960,-111.5 2960,-75.5 2828,-75.5"/>
<text text-anchor="start" x="2836" y="-89.8" font-family="monospace" font-size="14.00">EX_EndOfScript</text>
</g>
<!-- OnFire -->
<g id="node14" class="node">
<title>OnFire</title>
<polygon fill="#ff8888" stroke="black" points="2427,-682 2427,-718 2567,-718 2567,-682 2427,-682"/>
<text text-anchor="start" x="2435" y="-696.3" font-family="monospace" font-size="14.00">Function OnFire</text>
</g>
<!-- OnFire__0 -->
<g id="node15" class="node">
<title>OnFire__0</title>
<polygon fill="#eeeeee" stroke="black" points="2010,-508.5 2010,-546.5 2984,-546.5 2984,-508.5 2010,-508.5"/>
<text text-anchor="start" x="2018" y="-531.3" font-family="monospace" font-size="14.00">EX_LocalFinalFunction export BP_Guntower_Module_RadialFire_new_C&#45;&gt;ExecuteUbergraph_BP_Guntower_Module_RadialFire_new</text>
<text text-anchor="start" x="2018" y="-516.3" font-family="monospace" font-size="14.00">  EX_IntConst 113</text>
</g>
<!-- OnFire&#45;&gt;OnFire__0 -->
<g id="edge9" class="edge">
<title>OnFire&#45;&gt;OnFire__0</title>
<path fill="none" stroke="black" d="M2497,-682.03C2497,-652.97 2497,-593.36 2497,-557.57"/>
<polygon fill="black" stroke="black" points="2500.5,-557.94 2497,-547.94 2493.5,-557.94 2500.5,-557.94"/>
</g>
<!-- OnFire__0&#45;&gt;ExecuteUbergraph_BP_Guntower_Module_RadialFire_new__113 -->
<g id="edge10" class="edge">
<title>OnFire__0:e&#45;&gt;ExecuteUbergraph_BP_Guntower_Module_RadialFire_new__113</title>
<path fill="none" stroke="red" d="M2985,-527.5C3004.48,-527.5 2998.25,-501.85 2989.83,-480.75"/>
<polygon fill="none" stroke="red" points="2993.1,-479.5 2985.95,-471.68 2986.66,-482.25 2993.1,-479.5"/>
</g>
<!-- OnFire__15 -->
<g id="node16" class="node">
<title>OnFire__15</title>
<polygon fill="#eeeeee" stroke="black" points="2439,-433.5 2439,-471.5 2555,-471.5 2555,-433.5 2439,-433.5"/>
<text text-anchor="start" x="2447" y="-456.3" font-family="monospace" font-size="14.00">EX_Return</text>
<text text-anchor="start" x="2447" y="-441.3" font-family="monospace" font-size="14.00">  EX_Nothing</text>
</g>
<!-- OnFire__0&#45;&gt;OnFire__15 -->
<g id="edge11" class="edge">
<title>OnFire__0&#45;&gt;OnFire__15</title>
<path fill="none" stroke="black" d="M2497,-508.83C2497,-501 2497,-491.57 2497,-482.74"/>
<polygon fill="black" stroke="black" points="2500.5,-482.78 2497,-472.78 2493.5,-482.78 2500.5,-482.78"/>
</g>
<!-- OnFire__17 -->
<g id="node17" class="node">
<title>OnFire__17</title>
<polygon fill="#eeeeee" stroke="black" points="2590,-1.5 2590,-37.5 2722,-37.5 2722,-1.5 2590,-1.5"/>
<text text-anchor="start" x="2598" y="-15.8" font-family="monospace" font-size="14.00">EX_EndOfScript</text>
</g>
</g>
</svg>
