<?xml version="1.0" encoding="UTF-8" standalone="no"?>
<!DOCTYPE svg PUBLIC "-//W3C//DTD SVG 1.1//EN"
 "http://www.w3.org/Graphics/SVG/1.1/DTD/svg11.dtd">
<!-- Generated by graphviz version 7.0.1 (0)
 -->
<!-- Pages: 1 -->
<svg width="3873pt" height="1140pt"
 viewBox="0.00 0.00 3873.00 1140.00" xmlns="http://www.w3.org/2000/svg" xmlns:xlink="http://www.w3.org/1999/xlink">
<g id="graph0" class="graph" transform="scale(1 1) rotate(0) translate(4 1136)">
<polygon fill="white" stroke="none" points="-4,4 -4,-1136 3869,-1136 3869,4 -4,4"/>
<!-- PRJ_GuntowerLineProjectile_C -->
<g id="node1" class="node">
<title>PRJ_GuntowerLineProjectile_C</title>
<polygon fill="#88ff88" stroke="black" points="0,-958.5 0,-1131.5 594,-1131.5 594,-958.5 0,-958.5"/>
<text text-anchor="start" x="8" y="-1116.3" font-family="monospace" font-size="14.00">ClassExport: PRJ_GuntowerLineProjectile_C</text>
<text text-anchor="start" x="8" y="-1101.3" font-family="monospace" font-size="14.00">  SuperStruct: import /Script/FSD&#45;&gt;GuntowerLineProjectile</text>
<text text-anchor="start" x="8" y="-1086.3" font-family="monospace" font-size="14.00">  Properties:</text>
<text text-anchor="start" x="8" y="-1071.3" font-family="monospace" font-size="14.00">    StructProperty UberGraphFrame</text>
<text text-anchor="start" x="8" y="-1056.3" font-family="monospace" font-size="14.00">      CPF_Transient|CPF_DuplicateTransient</text>
<text text-anchor="start" x="8" y="-1041.3" font-family="monospace" font-size="14.00">    ObjectProperty GunTowerLineProjectile_Cue</text>
<text text-anchor="start" x="8" y="-1026.3" font-family="monospace" font-size="14.00">      CPF_BlueprintVisible|CPF_InstancedReference|CPF_NonTransactional</text>
<text text-anchor="start" x="8" y="-1011.3" font-family="monospace" font-size="14.00">    ObjectProperty ProjectileExplosion</text>
<text text-anchor="start" x="8" y="-996.3" font-family="monospace" font-size="14.00">      CPF_BlueprintVisible|CPF_InstancedReference|CPF_NonTransactional</text>
<text text-anchor="start" x="8" y="-981.3" font-family="monospace" font-size="14.00">    ObjectProperty HitparticleSystem</text>
<text text-anchor="start" x="8" y="-966.3" font-family="monospace" font-size="14.00">      CPF_BlueprintVisible|CPF_InstancedReference|CPF_NonTransactional</text>
</g>
<!-- ExecuteUbergraph_PRJ_GuntowerLineProjectile -->
<g id="node2" class="node">
<title>ExecuteUbergraph_PRJ_GuntowerLineProjectile</title>
<polygon fill="#ff8888" stroke="black" points="612,-996 612,-1094 1082,-1094 1082,-996 612,-996"/>
<text text-anchor="start" x="620" y="-1078.8" font-family="monospace" font-size="14.00">Function ExecuteUbergraph_PRJ_GuntowerLineProjectile</text>
<text text-anchor="start" x="620" y="-1063.8" font-family="monospace" font-size="14.00">  IntProperty EntryPoint</text>
<text text-anchor="start" x="620" y="-1048.8" font-family="monospace" font-size="14.00">    CPF_BlueprintVisible|CPF_BlueprintReadOnly|CPF_Parm</text>
<text text-anchor="start" x="620" y="-1033.8" font-family="monospace" font-size="14.00">  DelegateProperty K2Node_CreateDelegate_OutputDelegate</text>
<text text-anchor="start" x="620" y="-1018.8" font-family="monospace" font-size="14.00">  StructProperty K2Node_CustomEvent_result</text>
<text text-anchor="start" x="620" y="-1003.8" font-family="monospace" font-size="14.00">    CPF_ContainsInstancedReference</text>
</g>
<!-- ExecuteUbergraph_PRJ_GuntowerLineProjectile__0 -->
<g id="node3" class="node">
<title>ExecuteUbergraph_PRJ_GuntowerLineProjectile__0</title>
<polygon fill="#eeeeee" stroke="black" points="711,-853.5 711,-891.5 983,-891.5 983,-853.5 711,-853.5"/>
<text text-anchor="start" x="719" y="-876.3" font-family="monospace" font-size="14.00">EX_ComputedJump</text>
<text text-anchor="start" x="719" y="-861.3" font-family="monospace" font-size="14.00">  EX_LocalVariable [EntryPoint]</text>
</g>
<!-- ExecuteUbergraph_PRJ_GuntowerLineProjectile&#45;&gt;ExecuteUbergraph_PRJ_GuntowerLineProjectile__0 -->
<g id="edge1" class="edge">
<title>ExecuteUbergraph_PRJ_GuntowerLineProjectile&#45;&gt;ExecuteUbergraph_PRJ_GuntowerLineProjectile__0</title>
<path fill="none" stroke="black" d="M847,-996.05C847,-965.95 847,-928.12 847,-902.52"/>
<polygon fill="black" stroke="black" points="850.5,-902.86 847,-892.86 843.5,-902.86 850.5,-902.86"/>
</g>
<!-- ExecuteUbergraph_PRJ_GuntowerLineProjectile__10 -->
<g id="node4" class="node">
<title>ExecuteUbergraph_PRJ_GuntowerLineProjectile__10</title>
<polygon fill="#eeeeee" stroke="black" points="2349,-238.5 2349,-336.5 2951,-336.5 2951,-238.5 2349,-238.5"/>
<text text-anchor="start" x="2357" y="-321.3" font-family="monospace" font-size="14.00">EX_Context</text>
<text text-anchor="start" x="2357" y="-306.3" font-family="monospace" font-size="14.00">  EX_InstanceVariable [BeamParticles]</text>
<text text-anchor="start" x="2357" y="-291.3" font-family="monospace" font-size="14.00">  EX_FinalFunction import /Script/Engine&#45;&gt;SceneComponent&#45;&gt;SetVisibility</text>
<text text-anchor="start" x="2357" y="-276.3" font-family="monospace" font-size="14.00">    EX_False</text>
<text text-anchor="start" x="2357" y="-261.3" font-family="monospace" font-size="14.00">    EX_False</text>
<text text-anchor="start" x="2357" y="-246.3" font-family="monospace" font-size="14.00">  RValue = []</text>
</g>
<!-- ExecuteUbergraph_PRJ_GuntowerLineProjectile__44 -->
<g id="node5" class="node">
<title>ExecuteUbergraph_PRJ_GuntowerLineProjectile__44</title>
<polygon fill="#eeeeee" stroke="black" points="2403.5,-75.5 2403.5,-111.5 2510.5,-111.5 2510.5,-75.5 2403.5,-75.5"/>
<text text-anchor="start" x="2411.5" y="-89.8" font-family="monospace" font-size="14.00">EX_Jump 150</text>
</g>
<!-- ExecuteUbergraph_PRJ_GuntowerLineProjectile__10&#45;&gt;ExecuteUbergraph_PRJ_GuntowerLineProjectile__44 -->
<g id="edge2" class="edge">
<title>ExecuteUbergraph_PRJ_GuntowerLineProjectile__10&#45;&gt;ExecuteUbergraph_PRJ_GuntowerLineProjectile__44</title>
<path fill="none" stroke="black" d="M2601.8,-238.55C2563.63,-200.57 2511.88,-149.09 2481.7,-119.07"/>
<polygon fill="black" stroke="black" points="2484.42,-116.84 2474.86,-112.27 2479.48,-121.8 2484.42,-116.84"/>
</g>
<!-- ExecuteUbergraph_PRJ_GuntowerLineProjectile__150 -->
<g id="node14" class="node">
<title>ExecuteUbergraph_PRJ_GuntowerLineProjectile__150</title>
<polygon fill="#eeeeee" stroke="black" points="2299,-0.5 2299,-38.5 2415,-38.5 2415,-0.5 2299,-0.5"/>
<text text-anchor="start" x="2307" y="-23.3" font-family="monospace" font-size="14.00">EX_Return</text>
<text text-anchor="start" x="2307" y="-8.3" font-family="monospace" font-size="14.00">  EX_Nothing</text>
</g>
<!-- ExecuteUbergraph_PRJ_GuntowerLineProjectile__44&#45;&gt;ExecuteUbergraph_PRJ_GuntowerLineProjectile__150 -->
<g id="edge3" class="edge">
<title>ExecuteUbergraph_PRJ_GuntowerLineProjectile__44&#45;&gt;ExecuteUbergraph_PRJ_GuntowerLineProjectile__150</title>
<path fill="none" stroke="black" d="M2433.55,-75.62C2420.89,-66.5 2405.02,-55.08 2391.03,-45"/>
<polygon fill="black" stroke="black" points="2393.08,-42.17 2382.92,-39.16 2388.99,-47.85 2393.08,-42.17"/>
</g>
<!-- ExecuteUbergraph_PRJ_GuntowerLineProjectile__49 -->
<g id="node6" class="node">
<title>ExecuteUbergraph_PRJ_GuntowerLineProjectile__49</title>
<polygon fill="#eeeeee" stroke="black" points="1833.5,-261 1833.5,-314 2320.5,-314 2320.5,-261 1833.5,-261"/>
<text text-anchor="start" x="1841.5" y="-298.8" font-family="monospace" font-size="14.00">EX_BindDelegate OnLineDestroy_Event_0</text>
<text text-anchor="start" x="1841.5" y="-283.8" font-family="monospace" font-size="14.00">  EX_LocalVariable [K2Node_CreateDelegate_OutputDelegate]</text>
<text text-anchor="start" x="1841.5" y="-268.8" font-family="monospace" font-size="14.00">  EX_Self</text>
</g>
<!-- ExecuteUbergraph_PRJ_GuntowerLineProjectile__72 -->
<g id="node7" class="node">
<title>ExecuteUbergraph_PRJ_GuntowerLineProjectile__72</title>
<polygon fill="#eeeeee" stroke="black" points="1978.5,-148.5 1978.5,-201.5 2465.5,-201.5 2465.5,-148.5 1978.5,-148.5"/>
<text text-anchor="start" x="1986.5" y="-186.3" font-family="monospace" font-size="14.00">EX_AddMulticastDelegate</text>
<text text-anchor="start" x="1986.5" y="-171.3" font-family="monospace" font-size="14.00">  EX_InstanceVariable [OnLineDestroy]</text>
<text text-anchor="start" x="1986.5" y="-156.3" font-family="monospace" font-size="14.00">  EX_LocalVariable [K2Node_CreateDelegate_OutputDelegate]</text>
</g>
<!-- ExecuteUbergraph_PRJ_GuntowerLineProjectile__49&#45;&gt;ExecuteUbergraph_PRJ_GuntowerLineProjectile__72 -->
<g id="edge4" class="edge">
<title>ExecuteUbergraph_PRJ_GuntowerLineProjectile__49&#45;&gt;ExecuteUbergraph_PRJ_GuntowerLineProjectile__72</title>
<path fill="none" stroke="black" d="M2110.27,-261.15C2130.99,-245.36 2157.83,-224.9 2180.01,-208"/>
<polygon fill="black" stroke="black" points="2181.85,-211 2187.69,-202.15 2177.61,-205.43 2181.85,-211"/>
</g>
<!-- ExecuteUbergraph_PRJ_GuntowerLineProjectile__91 -->
<g id="node8" class="node">
<title>ExecuteUbergraph_PRJ_GuntowerLineProjectile__91</title>
<polygon fill="#eeeeee" stroke="black" points="2241.5,-75.5 2241.5,-111.5 2348.5,-111.5 2348.5,-75.5 2241.5,-75.5"/>
<text text-anchor="start" x="2249.5" y="-89.8" font-family="monospace" font-size="14.00">EX_Jump 150</text>
</g>
<!-- ExecuteUbergraph_PRJ_GuntowerLineProjectile__72&#45;&gt;ExecuteUbergraph_PRJ_GuntowerLineProjectile__91 -->
<g id="edge5" class="edge">
<title>ExecuteUbergraph_PRJ_GuntowerLineProjectile__72&#45;&gt;ExecuteUbergraph_PRJ_GuntowerLineProjectile__91</title>
<path fill="none" stroke="black" d="M2245.1,-148.85C2253.58,-139.61 2263.19,-129.15 2271.69,-119.89"/>
<polygon fill="black" stroke="black" points="2274.22,-122.31 2278.41,-112.57 2269.06,-117.57 2274.22,-122.31"/>
</g>
<!-- ExecuteUbergraph_PRJ_GuntowerLineProjectile__91&#45;&gt;ExecuteUbergraph_PRJ_GuntowerLineProjectile__150 -->
<g id="edge6" class="edge">
<title>ExecuteUbergraph_PRJ_GuntowerLineProjectile__91&#45;&gt;ExecuteUbergraph_PRJ_GuntowerLineProjectile__150</title>
<path fill="none" stroke="black" d="M2309.38,-75.8C2316.77,-67.21 2325.96,-56.55 2334.29,-46.88"/>
<polygon fill="black" stroke="black" points="2336.75,-49.38 2340.63,-39.51 2331.45,-44.81 2336.75,-49.38"/>
</g>
<!-- ExecuteUbergraph_PRJ_GuntowerLineProjectile__96 -->
<g id="node9" class="node">
<title>ExecuteUbergraph_PRJ_GuntowerLineProjectile__96</title>
<polygon fill="#eeeeee" stroke="black" points="1803.5,-553.5 1803.5,-606.5 2158.5,-606.5 2158.5,-553.5 1803.5,-553.5"/>
<text text-anchor="start" x="1811.5" y="-591.3" font-family="monospace" font-size="14.00">EX_LetObj</text>
<text text-anchor="start" x="1811.5" y="-576.3" font-family="monospace" font-size="14.00">  EX_InstanceVariable [HitParticles]</text>
<text text-anchor="start" x="1811.5" y="-561.3" font-family="monospace" font-size="14.00">  EX_InstanceVariable [HitparticleSystem]</text>
</g>
<!-- ExecuteUbergraph_PRJ_GuntowerLineProjectile__115 -->
<g id="node10" class="node">
<title>ExecuteUbergraph_PRJ_GuntowerLineProjectile__115</title>
<polygon fill="#eeeeee" stroke="black" points="2007.5,-412 2007.5,-448 2106.5,-448 2106.5,-412 2007.5,-412"/>
<text text-anchor="start" x="2015.5" y="-426.3" font-family="monospace" font-size="14.00">EX_Jump 49</text>
</g>
<!-- ExecuteUbergraph_PRJ_GuntowerLineProjectile__96&#45;&gt;ExecuteUbergraph_PRJ_GuntowerLineProjectile__115 -->
<g id="edge7" class="edge">
<title>ExecuteUbergraph_PRJ_GuntowerLineProjectile__96&#45;&gt;ExecuteUbergraph_PRJ_GuntowerLineProjectile__115</title>
<path fill="none" stroke="black" d="M1994.06,-553.56C2007.78,-526.85 2029.25,-485.05 2043.22,-457.83"/>
<polygon fill="black" stroke="black" points="2046.21,-459.68 2047.66,-449.18 2039.98,-456.48 2046.21,-459.68"/>
</g>
<!-- ExecuteUbergraph_PRJ_GuntowerLineProjectile__115&#45;&gt;ExecuteUbergraph_PRJ_GuntowerLineProjectile__49 -->
<g id="edge8" class="edge">
<title>ExecuteUbergraph_PRJ_GuntowerLineProjectile__115&#45;&gt;ExecuteUbergraph_PRJ_GuntowerLineProjectile__49</title>
<path fill="none" stroke="black" d="M2059.41,-412.05C2062.46,-390.66 2067.78,-353.26 2071.78,-325.2"/>
<polygon fill="black" stroke="black" points="2075.24,-325.71 2073.18,-315.32 2068.31,-324.73 2075.24,-325.71"/>
</g>
<!-- ExecuteUbergraph_PRJ_GuntowerLineProjectile__120 -->
<g id="node11" class="node">
<title>ExecuteUbergraph_PRJ_GuntowerLineProjectile__120</title>
<polygon fill="#eeeeee" stroke="black" points="1809.5,-712 1809.5,-748 1908.5,-748 1908.5,-712 1809.5,-712"/>
<text text-anchor="start" x="1817.5" y="-726.3" font-family="monospace" font-size="14.00">EX_Jump 96</text>
</g>
<!-- ExecuteUbergraph_PRJ_GuntowerLineProjectile__120&#45;&gt;ExecuteUbergraph_PRJ_GuntowerLineProjectile__96 -->
<g id="edge9" class="edge">
<title>ExecuteUbergraph_PRJ_GuntowerLineProjectile__120&#45;&gt;ExecuteUbergraph_PRJ_GuntowerLineProjectile__96</title>
<path fill="none" stroke="black" d="M1872.99,-712.02C1892.42,-688.46 1927.98,-645.32 1952.98,-614.99"/>
<polygon fill="black" stroke="black" points="1955.42,-617.53 1959.08,-607.59 1950.02,-613.08 1955.42,-617.53"/>
</g>
<!-- ExecuteUbergraph_PRJ_GuntowerLineProjectile__125 -->
<g id="node12" class="node">
<title>ExecuteUbergraph_PRJ_GuntowerLineProjectile__125</title>
<polygon fill="#eeeeee" stroke="black" points="2451.5,-523.5 2451.5,-636.5 3078.5,-636.5 3078.5,-523.5 2451.5,-523.5"/>
<text text-anchor="start" x="2459.5" y="-621.3" font-family="monospace" font-size="14.00">EX_CallMath import /Script/FSD&#45;&gt;ActorFunctionLibrary&#45;&gt;KillActorWithEffects</text>
<text text-anchor="start" x="2459.5" y="-606.3" font-family="monospace" font-size="14.00">  EX_Self</text>
<text text-anchor="start" x="2459.5" y="-591.3" font-family="monospace" font-size="14.00">  EX_NoObject</text>
<text text-anchor="start" x="2459.5" y="-576.3" font-family="monospace" font-size="14.00">  EX_NoObject</text>
<text text-anchor="start" x="2459.5" y="-561.3" font-family="monospace" font-size="14.00">  EX_NoObject</text>
<text text-anchor="start" x="2459.5" y="-546.3" font-family="monospace" font-size="14.00">  EX_FloatConst 1</text>
<text text-anchor="start" x="2459.5" y="-531.3" font-family="monospace" font-size="14.00">  EX_NoObject</text>
</g>
<!-- ExecuteUbergraph_PRJ_GuntowerLineProjectile__145 -->
<g id="node13" class="node">
<title>ExecuteUbergraph_PRJ_GuntowerLineProjectile__145</title>
<polygon fill="#eeeeee" stroke="black" points="2675.5,-412 2675.5,-448 2774.5,-448 2774.5,-412 2675.5,-412"/>
<text text-anchor="start" x="2683.5" y="-426.3" font-family="monospace" font-size="14.00">EX_Jump 10</text>
</g>
<!-- ExecuteUbergraph_PRJ_GuntowerLineProjectile__125&#45;&gt;ExecuteUbergraph_PRJ_GuntowerLineProjectile__145 -->
<g id="edge10" class="edge">
<title>ExecuteUbergraph_PRJ_GuntowerLineProjectile__125&#45;&gt;ExecuteUbergraph_PRJ_GuntowerLineProjectile__145</title>
<path fill="none" stroke="black" d="M2750.11,-523.89C2744.13,-501.78 2737.5,-477.25 2732.56,-458.96"/>
<polygon fill="black" stroke="black" points="2735.96,-458.12 2729.97,-449.38 2729.2,-459.95 2735.96,-458.12"/>
</g>
<!-- ExecuteUbergraph_PRJ_GuntowerLineProjectile__145&#45;&gt;ExecuteUbergraph_PRJ_GuntowerLineProjectile__10 -->
<g id="edge11" class="edge">
<title>ExecuteUbergraph_PRJ_GuntowerLineProjectile__145&#45;&gt;ExecuteUbergraph_PRJ_GuntowerLineProjectile__10</title>
<path fill="none" stroke="black" d="M2715.95,-412.05C2707.23,-395.7 2693.51,-370.01 2680.84,-346.28"/>
<polygon fill="black" stroke="black" points="2684.01,-344.77 2676.21,-337.6 2677.83,-348.07 2684.01,-344.77"/>
</g>
<!-- ExecuteUbergraph_PRJ_GuntowerLineProjectile__152 -->
<g id="node15" class="node">
<title>ExecuteUbergraph_PRJ_GuntowerLineProjectile__152</title>
<polygon fill="#eeeeee" stroke="black" points="2529,-75.5 2529,-111.5 2661,-111.5 2661,-75.5 2529,-75.5"/>
<text text-anchor="start" x="2537" y="-89.8" font-family="monospace" font-size="14.00">EX_EndOfScript</text>
</g>
<!-- OnLineDestroy_Event_0 -->
<g id="node16" class="node">
<title>OnLineDestroy_Event_0</title>
<polygon fill="#ff8888" stroke="black" points="1993,-1018.5 1993,-1071.5 2719,-1071.5 2719,-1018.5 1993,-1018.5"/>
<text text-anchor="start" x="2001" y="-1056.3" font-family="monospace" font-size="14.00">Function OnLineDestroy_Event_0</text>
<text text-anchor="start" x="2001" y="-1041.3" font-family="monospace" font-size="14.00">  StructProperty result</text>
<text text-anchor="start" x="2001" y="-1026.3" font-family="monospace" font-size="14.00">    CPF_BlueprintVisible|CPF_BlueprintReadOnly|CPF_Parm|CPF_ContainsInstancedReference</text>
</g>
<!-- OnLineDestroy_Event_0__0 -->
<g id="node17" class="node">
<title>OnLineDestroy_Event_0__0</title>
<polygon fill="#eeeeee" stroke="black" points="2116.5,-853.5 2116.5,-891.5 2595.5,-891.5 2595.5,-853.5 2116.5,-853.5"/>
<text text-anchor="start" x="2124.5" y="-876.3" font-family="monospace" font-size="14.00">EX_LetValueOnPersistentFrame [K2Node_CustomEvent_result]</text>
<text text-anchor="start" x="2124.5" y="-861.3" font-family="monospace" font-size="14.00">  EX_LocalVariable [result]</text>
</g>
<!-- OnLineDestroy_Event_0&#45;&gt;OnLineDestroy_Event_0__0 -->
<g id="edge12" class="edge">
<title>OnLineDestroy_Event_0&#45;&gt;OnLineDestroy_Event_0__0</title>
<path fill="none" stroke="black" d="M2356,-1018.84C2356,-987.96 2356,-935.67 2356,-902.94"/>
<polygon fill="black" stroke="black" points="2359.5,-902.96 2356,-892.96 2352.5,-902.96 2359.5,-902.96"/>
</g>
<!-- OnLineDestroy_Event_0__18 -->
<g id="node18" class="node">
<title>OnLineDestroy_Event_0__18</title>
<polygon fill="#eeeeee" stroke="black" points="1927,-711 1927,-749 2785,-749 2785,-711 1927,-711"/>
<text text-anchor="start" x="1935" y="-733.8" font-family="monospace" font-size="14.00">EX_LocalFinalFunction export PRJ_GuntowerLineProjectile_C&#45;&gt;ExecuteUbergraph_PRJ_GuntowerLineProjectile</text>
<text text-anchor="start" x="1935" y="-718.8" font-family="monospace" font-size="14.00">  EX_IntConst 125</text>
</g>
<!-- OnLineDestroy_Event_0__0&#45;&gt;OnLineDestroy_Event_0__18 -->
<g id="edge13" class="edge">
<title>OnLineDestroy_Event_0__0&#45;&gt;OnLineDestroy_Event_0__18</title>
<path fill="none" stroke="black" d="M2356,-853.71C2356,-830.06 2356,-787.99 2356,-759.79"/>
<polygon fill="black" stroke="black" points="2359.5,-760.16 2356,-750.16 2352.5,-760.16 2359.5,-760.16"/>
</g>
<!-- OnLineDestroy_Event_0__18&#45;&gt;ExecuteUbergraph_PRJ_GuntowerLineProjectile__125 -->
<g id="edge14" class="edge">
<title>OnLineDestroy_Event_0__18:e&#45;&gt;ExecuteUbergraph_PRJ_GuntowerLineProjectile__125</title>
<path fill="none" stroke="red" d="M2786,-730C2821.97,-730 2813.17,-686.89 2797.36,-647.05"/>
<polygon fill="none" stroke="red" points="2800.62,-645.78 2793.55,-637.88 2794.15,-648.46 2800.62,-645.78"/>
</g>
<!-- OnLineDestroy_Event_0__33 -->
<g id="node19" class="node">
<title>OnLineDestroy_Event_0__33</title>
<polygon fill="#eeeeee" stroke="black" points="2298,-561 2298,-599 2414,-599 2414,-561 2298,-561"/>
<text text-anchor="start" x="2306" y="-583.8" font-family="monospace" font-size="14.00">EX_Return</text>
<text text-anchor="start" x="2306" y="-568.8" font-family="monospace" font-size="14.00">  EX_Nothing</text>
</g>
<!-- OnLineDestroy_Event_0__18&#45;&gt;OnLineDestroy_Event_0__33 -->
<g id="edge15" class="edge">
<title>OnLineDestroy_Event_0__18&#45;&gt;OnLineDestroy_Event_0__33</title>
<path fill="none" stroke="black" d="M2356,-711.15C2356,-686.15 2356,-640.4 2356,-610.35"/>
<polygon fill="black" stroke="black" points="2359.5,-610.43 2356,-600.43 2352.5,-610.43 2359.5,-610.43"/>
</g>
<!-- OnLineDestroy_Event_0__35 -->
<g id="node20" class="node">
<title>OnLineDestroy_Event_0__35</title>
<polygon fill="#eeeeee" stroke="black" points="2433,-1.5 2433,-37.5 2565,-37.5 2565,-1.5 2433,-1.5"/>
<text text-anchor="start" x="2441" y="-15.8" font-family="monospace" font-size="14.00">EX_EndOfScript</text>
</g>
<!-- ReceiveBeginPlay -->
<g id="node21" class="node">
<title>ReceiveBeginPlay</title>
<polygon fill="#ff8888" stroke="black" points="1318.5,-1027 1318.5,-1063 1541.5,-1063 1541.5,-1027 1318.5,-1027"/>
<text text-anchor="start" x="1326.5" y="-1041.3" font-family="monospace" font-size="14.00">Function ReceiveBeginPlay</text>
</g>
<!-- ReceiveBeginPlay__0 -->
<g id="node22" class="node">
<title>ReceiveBeginPlay__0</title>
<polygon fill="#eeeeee" stroke="black" points="1001,-853.5 1001,-891.5 1859,-891.5 1859,-853.5 1001,-853.5"/>
<text text-anchor="start" x="1009" y="-876.3" font-family="monospace" font-size="14.00">EX_LocalFinalFunction export PRJ_GuntowerLineProjectile_C&#45;&gt;ExecuteUbergraph_PRJ_GuntowerLineProjectile</text>
<text text-anchor="start" x="1009" y="-861.3" font-family="monospace" font-size="14.00">  EX_IntConst 120</text>
</g>
<!-- ReceiveBeginPlay&#45;&gt;ReceiveBeginPlay__0 -->
<g id="edge16" class="edge">
<title>ReceiveBeginPlay&#45;&gt;ReceiveBeginPlay__0</title>
<path fill="none" stroke="black" d="M1430,-1027.03C1430,-997.97 1430,-938.36 1430,-902.57"/>
<polygon fill="black" stroke="black" points="1433.5,-902.94 1430,-892.94 1426.5,-902.94 1433.5,-902.94"/>
</g>
<!-- ReceiveBeginPlay__0&#45;&gt;ExecuteUbergraph_PRJ_GuntowerLineProjectile__120 -->
<g id="edge17" class="edge">
<title>ReceiveBeginPlay__0:e&#45;&gt;ExecuteUbergraph_PRJ_GuntowerLineProjectile__120</title>
<path fill="none" stroke="red" d="M1860,-872.5C1905.14,-872.5 1884.97,-799.62 1869.99,-758.47"/>
<polygon fill="none" stroke="red" points="1873.3,-757.32 1866.49,-749.2 1866.75,-759.8 1873.3,-757.32"/>
</g>
<!-- ReceiveBeginPlay__15 -->
<g id="node23" class="node">
<title>ReceiveBeginPlay__15</title>
<polygon fill="#eeeeee" stroke="black" points="1372,-711 1372,-749 1488,-749 1488,-711 1372,-711"/>
<text text-anchor="start" x="1380" y="-733.8" font-family="monospace" font-size="14.00">EX_Return</text>
<text text-anchor="start" x="1380" y="-718.8" font-family="monospace" font-size="14.00">  EX_Nothing</text>
</g>
<!-- ReceiveBeginPlay__0&#45;&gt;ReceiveBeginPlay__15 -->
<g id="edge18" class="edge">
<title>ReceiveBeginPlay__0&#45;&gt;ReceiveBeginPlay__15</title>
<path fill="none" stroke="black" d="M1430,-853.71C1430,-830.06 1430,-787.99 1430,-759.79"/>
<polygon fill="black" stroke="black" points="1433.5,-760.16 1430,-750.16 1426.5,-760.16 1433.5,-760.16"/>
</g>
<!-- ReceiveBeginPlay__17 -->
<g id="node24" class="node">
<title>ReceiveBeginPlay__17</title>
<polygon fill="#eeeeee" stroke="black" points="2595,-157 2595,-193 2727,-193 2727,-157 2595,-157"/>
<text text-anchor="start" x="2603" y="-171.3" font-family="monospace" font-size="14.00">EX_EndOfScript</text>
</g>
<!-- UserConstructionScript -->
<g id="node25" class="node">
<title>UserConstructionScript</title>
<polygon fill="#ff8888" stroke="black" points="3179,-1018.5 3179,-1071.5 3715,-1071.5 3715,-1018.5 3179,-1018.5"/>
<text text-anchor="start" x="3187" y="-1056.3" font-family="monospace" font-size="14.00">Function UserConstructionScript</text>
<text text-anchor="start" x="3187" y="-1041.3" font-family="monospace" font-size="14.00">  StructProperty CallFunc_K2_GetComponentLocation_ReturnValue</text>
<text text-anchor="start" x="3187" y="-1026.3" font-family="monospace" font-size="14.00">  StructProperty CallFunc_K2_GetComponentLocation_ReturnValue_1</text>
</g>
<!-- UserConstructionScript__0 -->
<g id="node26" class="node">
<title>UserConstructionScript__0</title>
<polygon fill="#eeeeee" stroke="black" points="3096.5,-823.5 3096.5,-921.5 3797.5,-921.5 3797.5,-823.5 3096.5,-823.5"/>
<text text-anchor="start" x="3104.5" y="-906.3" font-family="monospace" font-size="14.00">EX_Let</text>
<text text-anchor="start" x="3104.5" y="-891.3" font-family="monospace" font-size="14.00">  EX_LocalVariable [CallFunc_K2_GetComponentLocation_ReturnValue_1]</text>
<text text-anchor="start" x="3104.5" y="-876.3" font-family="monospace" font-size="14.00">  EX_Context</text>
<text text-anchor="start" x="3104.5" y="-861.3" font-family="monospace" font-size="14.00">    EX_InstanceVariable [LeftLinePoint]</text>
<text text-anchor="start" x="3104.5" y="-846.3" font-family="monospace" font-size="14.00">    EX_FinalFunction import /Script/Engine&#45;&gt;SceneComponent&#45;&gt;K2_GetComponentLocation</text>
<text text-anchor="start" x="3104.5" y="-831.3" font-family="monospace" font-size="14.00">    RValue = [CallFunc_K2_GetComponentLocation_ReturnValue_1]</text>
</g>
<!-- UserConstructionScript&#45;&gt;UserConstructionScript__0 -->
<g id="edge19" class="edge">
<title>UserConstructionScript&#45;&gt;UserConstructionScript__0</title>
<path fill="none" stroke="black" d="M3447,-1018.84C3447,-996.27 3447,-962.27 3447,-932.82"/>
<polygon fill="black" stroke="black" points="3450.5,-932.89 3447,-922.89 3443.5,-932.89 3450.5,-932.89"/>
</g>
<!-- UserConstructionScript__50 -->
<g id="node27" class="node">
<title>UserConstructionScript__50</title>
<polygon fill="#eeeeee" stroke="black" points="3154,-673.5 3154,-786.5 3740,-786.5 3740,-673.5 3154,-673.5"/>
<text text-anchor="start" x="3162" y="-771.3" font-family="monospace" font-size="14.00">EX_Context</text>
<text text-anchor="start" x="3162" y="-756.3" font-family="monospace" font-size="14.00">  EX_InstanceVariable [BeamParticles]</text>
<text text-anchor="start" x="3162" y="-741.3" font-family="monospace" font-size="14.00">  EX_VirtualFunction SetBeamSourcePoint</text>
<text text-anchor="start" x="3162" y="-726.3" font-family="monospace" font-size="14.00">    EX_IntConst 0</text>
<text text-anchor="start" x="3162" y="-711.3" font-family="monospace" font-size="14.00">    EX_LocalVariable [CallFunc_K2_GetComponentLocation_ReturnValue_1]</text>
<text text-anchor="start" x="3162" y="-696.3" font-family="monospace" font-size="14.00">    EX_IntConst 0</text>
<text text-anchor="start" x="3162" y="-681.3" font-family="monospace" font-size="14.00">  RValue = []</text>
</g>
<!-- UserConstructionScript__0&#45;&gt;UserConstructionScript__50 -->
<g id="edge20" class="edge">
<title>UserConstructionScript__0&#45;&gt;UserConstructionScript__50</title>
<path fill="none" stroke="black" d="M3447,-823.54C3447,-815.25 3447,-806.5 3447,-797.81"/>
<polygon fill="black" stroke="black" points="3450.5,-798 3447,-788 3443.5,-798 3450.5,-798"/>
</g>
<!-- UserConstructionScript__105 -->
<g id="node28" class="node">
<title>UserConstructionScript__105</title>
<polygon fill="#eeeeee" stroke="black" points="3096.5,-531 3096.5,-629 3797.5,-629 3797.5,-531 3096.5,-531"/>
<text text-anchor="start" x="3104.5" y="-613.8" font-family="monospace" font-size="14.00">EX_Let</text>
<text text-anchor="start" x="3104.5" y="-598.8" font-family="monospace" font-size="14.00">  EX_LocalVariable [CallFunc_K2_GetComponentLocation_ReturnValue]</text>
<text text-anchor="start" x="3104.5" y="-583.8" font-family="monospace" font-size="14.00">  EX_Context</text>
<text text-anchor="start" x="3104.5" y="-568.8" font-family="monospace" font-size="14.00">    EX_InstanceVariable [RightLinePoint]</text>
<text text-anchor="start" x="3104.5" y="-553.8" font-family="monospace" font-size="14.00">    EX_FinalFunction import /Script/Engine&#45;&gt;SceneComponent&#45;&gt;K2_GetComponentLocation</text>
<text text-anchor="start" x="3104.5" y="-538.8" font-family="monospace" font-size="14.00">    RValue = [CallFunc_K2_GetComponentLocation_ReturnValue]</text>
</g>
<!-- UserConstructionScript__50&#45;&gt;UserConstructionScript__105 -->
<g id="edge21" class="edge">
<title>UserConstructionScript__50&#45;&gt;UserConstructionScript__105</title>
<path fill="none" stroke="black" d="M3447,-673.89C3447,-662.91 3447,-651.34 3447,-640.23"/>
<polygon fill="black" stroke="black" points="3450.5,-640.37 3447,-630.37 3443.5,-640.37 3450.5,-640.37"/>
</g>
<!-- UserConstructionScript__155 -->
<g id="node29" class="node">
<title>UserConstructionScript__155</title>
<polygon fill="#eeeeee" stroke="black" points="3162.5,-373.5 3162.5,-486.5 3731.5,-486.5 3731.5,-373.5 3162.5,-373.5"/>
<text text-anchor="start" x="3170.5" y="-471.3" font-family="monospace" font-size="14.00">EX_Context</text>
<text text-anchor="start" x="3170.5" y="-456.3" font-family="monospace" font-size="14.00">  EX_InstanceVariable [BeamParticles]</text>
<text text-anchor="start" x="3170.5" y="-441.3" font-family="monospace" font-size="14.00">  EX_VirtualFunction SetBeamTargetPoint</text>
<text text-anchor="start" x="3170.5" y="-426.3" font-family="monospace" font-size="14.00">    EX_IntConst 0</text>
<text text-anchor="start" x="3170.5" y="-411.3" font-family="monospace" font-size="14.00">    EX_LocalVariable [CallFunc_K2_GetComponentLocation_ReturnValue]</text>
<text text-anchor="start" x="3170.5" y="-396.3" font-family="monospace" font-size="14.00">    EX_IntConst 0</text>
<text text-anchor="start" x="3170.5" y="-381.3" font-family="monospace" font-size="14.00">  RValue = []</text>
</g>
<!-- UserConstructionScript__105&#45;&gt;UserConstructionScript__155 -->
<g id="edge22" class="edge">
<title>UserConstructionScript__105&#45;&gt;UserConstructionScript__155</title>
<path fill="none" stroke="black" d="M3447,-531.36C3447,-520.58 3447,-508.95 3447,-497.56"/>
<polygon fill="black" stroke="black" points="3450.5,-497.8 3447,-487.8 3443.5,-497.8 3450.5,-497.8"/>
</g>
<!-- UserConstructionScript__210 -->
<g id="node30" class="node">
<title>UserConstructionScript__210</title>
<polygon fill="#eeeeee" stroke="black" points="3389,-268.5 3389,-306.5 3505,-306.5 3505,-268.5 3389,-268.5"/>
<text text-anchor="start" x="3397" y="-291.3" font-family="monospace" font-size="14.00">EX_Return</text>
<text text-anchor="start" x="3397" y="-276.3" font-family="monospace" font-size="14.00">  EX_Nothing</text>
</g>
<!-- UserConstructionScript__155&#45;&gt;UserConstructionScript__210 -->
<g id="edge23" class="edge">
<title>UserConstructionScript__155&#45;&gt;UserConstructionScript__210</title>
<path fill="none" stroke="black" d="M3447,-373.87C3447,-354.76 3447,-334.08 3447,-317.86"/>
<polygon fill="black" stroke="black" points="3450.5,-317.94 3447,-307.94 3443.5,-317.94 3450.5,-317.94"/>
</g>
<!-- UserConstructionScript__212 -->
<g id="node31" class="node">
<title>UserConstructionScript__212</title>
<polygon fill="#eeeeee" stroke="black" points="3733,-1027 3733,-1063 3865,-1063 3865,-1027 3733,-1027"/>
<text text-anchor="start" x="3741" y="-1041.3" font-family="monospace" font-size="14.00">EX_EndOfScript</text>
</g>
</g>
</svg>
