<?xml version="1.0" encoding="UTF-8" standalone="no"?>
<!DOCTYPE svg PUBLIC "-//W3C//DTD SVG 1.1//EN"
 "http://www.w3.org/Graphics/SVG/1.1/DTD/svg11.dtd">
<!-- Generated by graphviz version 7.0.1 (0)
 -->
<!-- Pages: 1 -->
<svg width="2121pt" height="347pt"
 viewBox="0.00 0.00 2121.00 347.00" xmlns="http://www.w3.org/2000/svg" xmlns:xlink="http://www.w3.org/1999/xlink">
<g id="graph0" class="graph" transform="scale(1 1) rotate(0) translate(4 343)">
<polygon fill="white" stroke="none" points="-4,4 -4,-343 2117,-343 2117,4 -4,4"/>
<!-- ConsoleScreen_Empty_C -->
<g id="node1" class="node">
<title>ConsoleScreen_Empty_C</title>
<polygon fill="#88ff88" stroke="black" points="0,-225.5 0,-338.5 850,-338.5 850,-225.5 0,-225.5"/>
<text text-anchor="start" x="8" y="-323.3" font-family="monospace" font-size="14.00">ClassExport: ConsoleScreen_Empty_C</text>
<text text-anchor="start" x="8" y="-308.3" font-family="monospace" font-size="14.00">  SuperStruct: import /Script/UMG&#45;&gt;UserWidget</text>
<text text-anchor="start" x="8" y="-293.3" font-family="monospace" font-size="14.00">  Properties:</text>
<text text-anchor="start" x="8" y="-278.3" font-family="monospace" font-size="14.00">    StructProperty UberGraphFrame</text>
<text text-anchor="start" x="8" y="-263.3" font-family="monospace" font-size="14.00">      CPF_Transient|CPF_DuplicateTransient</text>
<text text-anchor="start" x="8" y="-248.3" font-family="monospace" font-size="14.00">    ObjectProperty PutStuffHere</text>
<text text-anchor="start" x="8" y="-233.3" font-family="monospace" font-size="14.00">      CPF_BlueprintVisible|CPF_ExportObject|CPF_InstancedReference|CPF_RepSkip|CPF_PersistentInstance</text>
</g>
<!-- ExecuteUbergraph_ConsoleScreen_Empty -->
<g id="node2" class="node">
<title>ExecuteUbergraph_ConsoleScreen_Empty</title>
<polygon fill="#ff8888" stroke="black" points="868,-248 868,-316 1338,-316 1338,-248 868,-248"/>
<text text-anchor="start" x="876" y="-300.8" font-family="monospace" font-size="14.00">Function ExecuteUbergraph_ConsoleScreen_Empty</text>
<text text-anchor="start" x="876" y="-285.8" font-family="monospace" font-size="14.00">  IntProperty EntryPoint</text>
<text text-anchor="start" x="876" y="-270.8" font-family="monospace" font-size="14.00">    CPF_BlueprintVisible|CPF_BlueprintReadOnly|CPF_Parm</text>
<text text-anchor="start" x="876" y="-255.8" font-family="monospace" font-size="14.00">  BoolProperty K2Node_Event_IsDesignTime</text>
</g>
<!-- ExecuteUbergraph_ConsoleScreen_Empty__0 -->
<g id="node3" class="node">
<title>ExecuteUbergraph_ConsoleScreen_Empty__0</title>
<polygon fill="#eeeeee" stroke="black" points="967,-150.5 967,-188.5 1239,-188.5 1239,-150.5 967,-150.5"/>
<text text-anchor="start" x="975" y="-173.3" font-family="monospace" font-size="14.00">EX_ComputedJump</text>
<text text-anchor="start" x="975" y="-158.3" font-family="monospace" font-size="14.00">  EX_LocalVariable [EntryPoint]</text>
</g>
<!-- ExecuteUbergraph_ConsoleScreen_Empty&#45;&gt;ExecuteUbergraph_ConsoleScreen_Empty__0 -->
<g id="edge1" class="edge">
<title>ExecuteUbergraph_ConsoleScreen_Empty&#45;&gt;ExecuteUbergraph_ConsoleScreen_Empty__0</title>
<path fill="none" stroke="black" d="M1103,-248.15C1103,-232.68 1103,-214.41 1103,-199.47"/>
<polygon fill="black" stroke="black" points="1106.5,-199.84 1103,-189.84 1099.5,-199.84 1106.5,-199.84"/>
</g>
<!-- ExecuteUbergraph_ConsoleScreen_Empty__10 -->
<g id="node4" class="node">
<title>ExecuteUbergraph_ConsoleScreen_Empty__10</title>
<polygon fill="#eeeeee" stroke="black" points="1905,-0.5 1905,-38.5 2021,-38.5 2021,-0.5 1905,-0.5"/>
<text text-anchor="start" x="1913" y="-23.3" font-family="monospace" font-size="14.00">EX_Return</text>
<text text-anchor="start" x="1913" y="-8.3" font-family="monospace" font-size="14.00">  EX_Nothing</text>
</g>
<!-- ExecuteUbergraph_ConsoleScreen_Empty__12 -->
<g id="node5" class="node">
<title>ExecuteUbergraph_ConsoleScreen_Empty__12</title>
<polygon fill="#eeeeee" stroke="black" points="1981,-76.5 1981,-112.5 2113,-112.5 2113,-76.5 1981,-76.5"/>
<text text-anchor="start" x="1989" y="-90.8" font-family="monospace" font-size="14.00">EX_EndOfScript</text>
</g>
<!-- PreConstruct -->
<g id="node6" class="node">
<title>PreConstruct</title>
<polygon fill="#ff8888" stroke="black" points="1356,-255.5 1356,-308.5 1826,-308.5 1826,-255.5 1356,-255.5"/>
<text text-anchor="start" x="1364" y="-293.3" font-family="monospace" font-size="14.00">Function PreConstruct</text>
<text text-anchor="start" x="1364" y="-278.3" font-family="monospace" font-size="14.00">  BoolProperty IsDesignTime</text>
<text text-anchor="start" x="1364" y="-263.3" font-family="monospace" font-size="14.00">    CPF_BlueprintVisible|CPF_BlueprintReadOnly|CPF_Parm</text>
</g>
<!-- PreConstruct__0 -->
<g id="node7" class="node">
<title>PreConstruct__0</title>
<polygon fill="#eeeeee" stroke="black" points="1351.5,-150.5 1351.5,-188.5 1830.5,-188.5 1830.5,-150.5 1351.5,-150.5"/>
<text text-anchor="start" x="1359.5" y="-173.3" font-family="monospace" font-size="14.00">EX_LetValueOnPersistentFrame [K2Node_Event_IsDesignTime]</text>
<text text-anchor="start" x="1359.5" y="-158.3" font-family="monospace" font-size="14.00">  EX_LocalVariable [IsDesignTime]</text>
</g>
<!-- PreConstruct&#45;&gt;PreConstruct__0 -->
<g id="edge2" class="edge">
<title>PreConstruct&#45;&gt;PreConstruct__0</title>
<path fill="none" stroke="black" d="M1591,-255.65C1591,-239.06 1591,-217.32 1591,-199.96"/>
<polygon fill="black" stroke="black" points="1594.5,-200.01 1591,-190.01 1587.5,-200.01 1594.5,-200.01"/>
</g>
<!-- PreConstruct__18 -->
<g id="node8" class="node">
<title>PreConstruct__18</title>
<polygon fill="#eeeeee" stroke="black" points="1219.5,-75.5 1219.5,-113.5 1962.5,-113.5 1962.5,-75.5 1219.5,-75.5"/>
<text text-anchor="start" x="1227.5" y="-98.3" font-family="monospace" font-size="14.00">EX_LocalFinalFunction export ConsoleScreen_Empty_C&#45;&gt;ExecuteUbergraph_ConsoleScreen_Empty</text>
<text text-anchor="start" x="1227.5" y="-83.3" font-family="monospace" font-size="14.00">  EX_IntConst 10</text>
</g>
<!-- PreConstruct__0&#45;&gt;PreConstruct__18 -->
<g id="edge3" class="edge">
<title>PreConstruct__0&#45;&gt;PreConstruct__18</title>
<path fill="none" stroke="black" d="M1591,-150.83C1591,-143 1591,-133.57 1591,-124.74"/>
<polygon fill="black" stroke="black" points="1594.5,-124.78 1591,-114.78 1587.5,-124.78 1594.5,-124.78"/>
</g>
<!-- PreConstruct__18&#45;&gt;ExecuteUbergraph_ConsoleScreen_Empty__10 -->
<g id="edge4" class="edge">
<title>PreConstruct__18:e&#45;&gt;ExecuteUbergraph_ConsoleScreen_Empty__10</title>
<path fill="none" stroke="red" d="M1964,-94.5C1973.39,-94.5 1971.73,-70.39 1968.58,-49.69"/>
<polygon fill="none" stroke="red" points="1972.05,-49.19 1966.93,-39.91 1965.14,-50.35 1972.05,-49.19"/>
</g>
<!-- PreConstruct__33 -->
<g id="node9" class="node">
<title>PreConstruct__33</title>
<polygon fill="#eeeeee" stroke="black" points="1533,-0.5 1533,-38.5 1649,-38.5 1649,-0.5 1533,-0.5"/>
<text text-anchor="start" x="1541" y="-23.3" font-family="monospace" font-size="14.00">EX_Return</text>
<text text-anchor="start" x="1541" y="-8.3" font-family="monospace" font-size="14.00">  EX_Nothing</text>
</g>
<!-- PreConstruct__18&#45;&gt;PreConstruct__33 -->
<g id="edge5" class="edge">
<title>PreConstruct__18&#45;&gt;PreConstruct__33</title>
<path fill="none" stroke="black" d="M1591,-75.83C1591,-68 1591,-58.57 1591,-49.74"/>
<polygon fill="black" stroke="black" points="1594.5,-49.78 1591,-39.78 1587.5,-49.78 1594.5,-49.78"/>
</g>
<!-- PreConstruct__35 -->
<g id="node10" class="node">
<title>PreConstruct__35</title>
<polygon fill="#eeeeee" stroke="black" points="1844,-264 1844,-300 1976,-300 1976,-264 1844,-264"/>
<text text-anchor="start" x="1852" y="-278.3" font-family="monospace" font-size="14.00">EX_EndOfScript</text>
</g>
</g>
</svg>
