<?xml version="1.0" encoding="UTF-8" standalone="no"?>
<!DOCTYPE svg PUBLIC "-//W3C//DTD SVG 1.1//EN"
 "http://www.w3.org/Graphics/SVG/1.1/DTD/svg11.dtd">
<!-- Generated by graphviz version 7.0.1 (0)
 -->
<!-- Pages: 1 -->
<svg width="3576pt" height="953pt"
 viewBox="0.00 0.00 3575.50 953.00" xmlns="http://www.w3.org/2000/svg" xmlns:xlink="http://www.w3.org/1999/xlink">
<g id="graph0" class="graph" transform="scale(1 1) rotate(0) translate(4 949)">
<polygon fill="white" stroke="none" points="-4,4 -4,-949 3571.5,-949 3571.5,4 -4,4"/>
<!-- ConsoleScreen_Base_C -->
<g id="node1" class="node">
<title>ConsoleScreen_Base_C</title>
<polygon fill="#88ff88" stroke="black" points="0,-771.5 0,-944.5 850,-944.5 850,-771.5 0,-771.5"/>
<text text-anchor="start" x="8" y="-929.3" font-family="monospace" font-size="14.00">ClassExport: ConsoleScreen_Base_C</text>
<text text-anchor="start" x="8" y="-914.3" font-family="monospace" font-size="14.00">  SuperStruct: import /Script/UMG&#45;&gt;UserWidget</text>
<text text-anchor="start" x="8" y="-899.3" font-family="monospace" font-size="14.00">  Properties:</text>
<text text-anchor="start" x="8" y="-884.3" font-family="monospace" font-size="14.00">    StructProperty UberGraphFrame</text>
<text text-anchor="start" x="8" y="-869.3" font-family="monospace" font-size="14.00">      CPF_Transient|CPF_DuplicateTransient</text>
<text text-anchor="start" x="8" y="-854.3" font-family="monospace" font-size="14.00">    ObjectProperty ConsoleScreen_BGtemplate</text>
<text text-anchor="start" x="8" y="-839.3" font-family="monospace" font-size="14.00">      CPF_BlueprintVisible|CPF_ExportObject|CPF_InstancedReference|CPF_RepSkip|CPF_PersistentInstance</text>
<text text-anchor="start" x="8" y="-824.3" font-family="monospace" font-size="14.00">    ObjectProperty ConsoleScreen_Notification</text>
<text text-anchor="start" x="8" y="-809.3" font-family="monospace" font-size="14.00">      CPF_BlueprintVisible|CPF_ExportObject|CPF_InstancedReference|CPF_RepSkip|CPF_PersistentInstance</text>
<text text-anchor="start" x="8" y="-794.3" font-family="monospace" font-size="14.00">    TextProperty Text</text>
<text text-anchor="start" x="8" y="-779.3" font-family="monospace" font-size="14.00">      CPF_Edit|CPF_BlueprintVisible|CPF_ExposeOnSpawn</text>
</g>
<!-- ExecuteUbergraph_ConsoleScreen_Base -->
<g id="node2" class="node">
<title>ExecuteUbergraph_ConsoleScreen_Base</title>
<polygon fill="#ff8888" stroke="black" points="868,-824 868,-892 1338,-892 1338,-824 868,-824"/>
<text text-anchor="start" x="876" y="-876.8" font-family="monospace" font-size="14.00">Function ExecuteUbergraph_ConsoleScreen_Base</text>
<text text-anchor="start" x="876" y="-861.8" font-family="monospace" font-size="14.00">  IntProperty EntryPoint</text>
<text text-anchor="start" x="876" y="-846.8" font-family="monospace" font-size="14.00">    CPF_BlueprintVisible|CPF_BlueprintReadOnly|CPF_Parm</text>
<text text-anchor="start" x="876" y="-831.8" font-family="monospace" font-size="14.00">  BoolProperty K2Node_Event_IsDesignTime</text>
</g>
<!-- ExecuteUbergraph_ConsoleScreen_Base__0 -->
<g id="node3" class="node">
<title>ExecuteUbergraph_ConsoleScreen_Base__0</title>
<polygon fill="#eeeeee" stroke="black" points="967,-637 967,-675 1239,-675 1239,-637 967,-637"/>
<text text-anchor="start" x="975" y="-659.8" font-family="monospace" font-size="14.00">EX_ComputedJump</text>
<text text-anchor="start" x="975" y="-644.8" font-family="monospace" font-size="14.00">  EX_LocalVariable [EntryPoint]</text>
</g>
<!-- ExecuteUbergraph_ConsoleScreen_Base&#45;&gt;ExecuteUbergraph_ConsoleScreen_Base__0 -->
<g id="edge1" class="edge">
<title>ExecuteUbergraph_ConsoleScreen_Base&#45;&gt;ExecuteUbergraph_ConsoleScreen_Base__0</title>
<path fill="none" stroke="black" d="M1103,-824.42C1103,-786.13 1103,-723.17 1103,-686.34"/>
<polygon fill="black" stroke="black" points="1106.5,-686.44 1103,-676.44 1099.5,-686.44 1106.5,-686.44"/>
</g>
<!-- ExecuteUbergraph_ConsoleScreen_Base__10 -->
<g id="node4" class="node">
<title>ExecuteUbergraph_ConsoleScreen_Base__10</title>
<polygon fill="#eeeeee" stroke="black" points="1818,-186.5 1818,-224.5 2090,-224.5 2090,-186.5 1818,-186.5"/>
<text text-anchor="start" x="1826" y="-209.3" font-family="monospace" font-size="14.00">EX_LocalVirtualFunction SetText</text>
<text text-anchor="start" x="1826" y="-194.3" font-family="monospace" font-size="14.00">  EX_InstanceVariable [Text]</text>
</g>
<!-- ExecuteUbergraph_ConsoleScreen_Base__33 -->
<g id="node5" class="node">
<title>ExecuteUbergraph_ConsoleScreen_Base__33</title>
<polygon fill="#eeeeee" stroke="black" points="1904.5,-76.5 1904.5,-112.5 2003.5,-112.5 2003.5,-76.5 1904.5,-76.5"/>
<text text-anchor="start" x="1912.5" y="-90.8" font-family="monospace" font-size="14.00">EX_Jump 43</text>
</g>
<!-- ExecuteUbergraph_ConsoleScreen_Base__10&#45;&gt;ExecuteUbergraph_ConsoleScreen_Base__33 -->
<g id="edge2" class="edge">
<title>ExecuteUbergraph_ConsoleScreen_Base__10&#45;&gt;ExecuteUbergraph_ConsoleScreen_Base__33</title>
<path fill="none" stroke="black" d="M1954,-186.5C1954,-169.48 1954,-143.66 1954,-123.86"/>
<polygon fill="black" stroke="black" points="1957.5,-123.96 1954,-113.96 1950.5,-123.96 1957.5,-123.96"/>
</g>
<!-- ExecuteUbergraph_ConsoleScreen_Base__43 -->
<g id="node7" class="node">
<title>ExecuteUbergraph_ConsoleScreen_Base__43</title>
<polygon fill="#eeeeee" stroke="black" points="1896,-0.5 1896,-38.5 2012,-38.5 2012,-0.5 1896,-0.5"/>
<text text-anchor="start" x="1904" y="-23.3" font-family="monospace" font-size="14.00">EX_Return</text>
<text text-anchor="start" x="1904" y="-8.3" font-family="monospace" font-size="14.00">  EX_Nothing</text>
</g>
<!-- ExecuteUbergraph_ConsoleScreen_Base__33&#45;&gt;ExecuteUbergraph_ConsoleScreen_Base__43 -->
<g id="edge3" class="edge">
<title>ExecuteUbergraph_ConsoleScreen_Base__33&#45;&gt;ExecuteUbergraph_ConsoleScreen_Base__43</title>
<path fill="none" stroke="black" d="M1954,-76.57C1954,-68.6 1954,-58.87 1954,-49.77"/>
<polygon fill="black" stroke="black" points="1957.5,-49.87 1954,-39.87 1950.5,-49.87 1957.5,-49.87"/>
</g>
<!-- ExecuteUbergraph_ConsoleScreen_Base__38 -->
<g id="node6" class="node">
<title>ExecuteUbergraph_ConsoleScreen_Base__38</title>
<polygon fill="#eeeeee" stroke="black" points="1904.5,-299.5 1904.5,-335.5 2003.5,-335.5 2003.5,-299.5 1904.5,-299.5"/>
<text text-anchor="start" x="1912.5" y="-313.8" font-family="monospace" font-size="14.00">EX_Jump 10</text>
</g>
<!-- ExecuteUbergraph_ConsoleScreen_Base__38&#45;&gt;ExecuteUbergraph_ConsoleScreen_Base__10 -->
<g id="edge4" class="edge">
<title>ExecuteUbergraph_ConsoleScreen_Base__38&#45;&gt;ExecuteUbergraph_ConsoleScreen_Base__10</title>
<path fill="none" stroke="black" d="M1954,-299.79C1954,-282.89 1954,-256.41 1954,-235.97"/>
<polygon fill="black" stroke="black" points="1957.5,-235.98 1954,-225.98 1950.5,-235.98 1957.5,-235.98"/>
</g>
<!-- ExecuteUbergraph_ConsoleScreen_Base__45 -->
<g id="node8" class="node">
<title>ExecuteUbergraph_ConsoleScreen_Base__45</title>
<polygon fill="#eeeeee" stroke="black" points="1819,-716.5 1819,-752.5 1951,-752.5 1951,-716.5 1819,-716.5"/>
<text text-anchor="start" x="1827" y="-730.8" font-family="monospace" font-size="14.00">EX_EndOfScript</text>
</g>
<!-- PreConstruct -->
<g id="node9" class="node">
<title>PreConstruct</title>
<polygon fill="#ff8888" stroke="black" points="1356,-831.5 1356,-884.5 1826,-884.5 1826,-831.5 1356,-831.5"/>
<text text-anchor="start" x="1364" y="-869.3" font-family="monospace" font-size="14.00">Function PreConstruct</text>
<text text-anchor="start" x="1364" y="-854.3" font-family="monospace" font-size="14.00">  BoolProperty IsDesignTime</text>
<text text-anchor="start" x="1364" y="-839.3" font-family="monospace" font-size="14.00">    CPF_BlueprintVisible|CPF_BlueprintReadOnly|CPF_Parm</text>
</g>
<!-- PreConstruct__0 -->
<g id="node10" class="node">
<title>PreConstruct__0</title>
<polygon fill="#eeeeee" stroke="black" points="1351.5,-637 1351.5,-675 1830.5,-675 1830.5,-637 1351.5,-637"/>
<text text-anchor="start" x="1359.5" y="-659.8" font-family="monospace" font-size="14.00">EX_LetValueOnPersistentFrame [K2Node_Event_IsDesignTime]</text>
<text text-anchor="start" x="1359.5" y="-644.8" font-family="monospace" font-size="14.00">  EX_LocalVariable [IsDesignTime]</text>
</g>
<!-- PreConstruct&#45;&gt;PreConstruct__0 -->
<g id="edge5" class="edge">
<title>PreConstruct&#45;&gt;PreConstruct__0</title>
<path fill="none" stroke="black" d="M1591,-831.67C1591,-794.5 1591,-725.37 1591,-686.14"/>
<polygon fill="black" stroke="black" points="1594.5,-686.28 1591,-676.28 1587.5,-686.28 1594.5,-686.28"/>
</g>
<!-- PreConstruct__18 -->
<g id="node11" class="node">
<title>PreConstruct__18</title>
<polygon fill="#eeeeee" stroke="black" points="1228,-480 1228,-518 1954,-518 1954,-480 1228,-480"/>
<text text-anchor="start" x="1236" y="-502.8" font-family="monospace" font-size="14.00">EX_LocalFinalFunction export ConsoleScreen_Base_C&#45;&gt;ExecuteUbergraph_ConsoleScreen_Base</text>
<text text-anchor="start" x="1236" y="-487.8" font-family="monospace" font-size="14.00">  EX_IntConst 38</text>
</g>
<!-- PreConstruct__0&#45;&gt;PreConstruct__18 -->
<g id="edge6" class="edge">
<title>PreConstruct__0&#45;&gt;PreConstruct__18</title>
<path fill="none" stroke="black" d="M1591,-637.22C1591,-610.71 1591,-560.54 1591,-528.76"/>
<polygon fill="black" stroke="black" points="1594.5,-529.09 1591,-519.09 1587.5,-529.09 1594.5,-529.09"/>
</g>
<!-- PreConstruct__18&#45;&gt;ExecuteUbergraph_ConsoleScreen_Base__38 -->
<g id="edge7" class="edge">
<title>PreConstruct__18:e&#45;&gt;ExecuteUbergraph_ConsoleScreen_Base__38</title>
<path fill="none" stroke="red" d="M1955,-499C1962.51,-499 1958.21,-397.79 1955.58,-346.95"/>
<polygon fill="none" stroke="red" points="1959.08,-346.79 1955.05,-336.99 1952.09,-347.16 1959.08,-346.79"/>
</g>
<!-- PreConstruct__33 -->
<g id="node12" class="node">
<title>PreConstruct__33</title>
<polygon fill="#eeeeee" stroke="black" points="1533,-298.5 1533,-336.5 1649,-336.5 1649,-298.5 1533,-298.5"/>
<text text-anchor="start" x="1541" y="-321.3" font-family="monospace" font-size="14.00">EX_Return</text>
<text text-anchor="start" x="1541" y="-306.3" font-family="monospace" font-size="14.00">  EX_Nothing</text>
</g>
<!-- PreConstruct__18&#45;&gt;PreConstruct__33 -->
<g id="edge8" class="edge">
<title>PreConstruct__18&#45;&gt;PreConstruct__33</title>
<path fill="none" stroke="black" d="M1591,-480.13C1591,-449.09 1591,-384.92 1591,-347.45"/>
<polygon fill="black" stroke="black" points="1594.5,-347.81 1591,-337.81 1587.5,-347.81 1594.5,-347.81"/>
</g>
<!-- PreConstruct__35 -->
<g id="node13" class="node">
<title>PreConstruct__35</title>
<polygon fill="#eeeeee" stroke="black" points="1819,-559.5 1819,-595.5 1951,-595.5 1951,-559.5 1819,-559.5"/>
<text text-anchor="start" x="1827" y="-573.8" font-family="monospace" font-size="14.00">EX_EndOfScript</text>
</g>
<!-- SetText -->
<g id="node14" class="node">
<title>SetText</title>
<polygon fill="#ff8888" stroke="black" points="1944,-831.5 1944,-884.5 2414,-884.5 2414,-831.5 1944,-831.5"/>
<text text-anchor="start" x="1952" y="-869.3" font-family="monospace" font-size="14.00">Function SetText</text>
<text text-anchor="start" x="1952" y="-854.3" font-family="monospace" font-size="14.00">  TextProperty InText</text>
<text text-anchor="start" x="1952" y="-839.3" font-family="monospace" font-size="14.00">    CPF_BlueprintVisible|CPF_BlueprintReadOnly|CPF_Parm</text>
</g>
<!-- SetText__0 -->
<g id="node15" class="node">
<title>SetText__0</title>
<polygon fill="#eeeeee" stroke="black" points="2055,-629.5 2055,-682.5 2303,-682.5 2303,-629.5 2055,-629.5"/>
<text text-anchor="start" x="2063" y="-667.3" font-family="monospace" font-size="14.00">EX_Let</text>
<text text-anchor="start" x="2063" y="-652.3" font-family="monospace" font-size="14.00">  EX_InstanceVariable [Text]</text>
<text text-anchor="start" x="2063" y="-637.3" font-family="monospace" font-size="14.00">  EX_LocalVariable [InText]</text>
</g>
<!-- SetText&#45;&gt;SetText__0 -->
<g id="edge9" class="edge">
<title>SetText&#45;&gt;SetText__0</title>
<path fill="none" stroke="black" d="M2179,-831.67C2179,-796.83 2179,-733.88 2179,-693.83"/>
<polygon fill="black" stroke="black" points="2182.5,-693.95 2179,-683.95 2175.5,-693.95 2182.5,-693.95"/>
</g>
<!-- SetText__27 -->
<g id="node16" class="node">
<title>SetText__27</title>
<polygon fill="#eeeeee" stroke="black" points="1972.5,-457.5 1972.5,-540.5 2385.5,-540.5 2385.5,-457.5 1972.5,-457.5"/>
<text text-anchor="start" x="1980.5" y="-525.3" font-family="monospace" font-size="14.00">EX_Context</text>
<text text-anchor="start" x="1980.5" y="-510.3" font-family="monospace" font-size="14.00">  EX_InstanceVariable [ConsoleScreen_BGtemplate]</text>
<text text-anchor="start" x="1980.5" y="-495.3" font-family="monospace" font-size="14.00">  EX_LocalVirtualFunction SetText</text>
<text text-anchor="start" x="1980.5" y="-480.3" font-family="monospace" font-size="14.00">    EX_InstanceVariable [Text]</text>
<text text-anchor="start" x="1980.5" y="-465.3" font-family="monospace" font-size="14.00">  RValue = []</text>
</g>
<!-- SetText__0&#45;&gt;SetText__27 -->
<g id="edge10" class="edge">
<title>SetText__0&#45;&gt;SetText__27</title>
<path fill="none" stroke="black" d="M2179,-629.75C2179,-608.68 2179,-577.96 2179,-551.7"/>
<polygon fill="black" stroke="black" points="2182.5,-551.89 2179,-541.89 2175.5,-551.89 2182.5,-551.89"/>
</g>
<!-- SetText__72 -->
<g id="node17" class="node">
<title>SetText__72</title>
<polygon fill="#eeeeee" stroke="black" points="2121,-298.5 2121,-336.5 2237,-336.5 2237,-298.5 2121,-298.5"/>
<text text-anchor="start" x="2129" y="-321.3" font-family="monospace" font-size="14.00">EX_Return</text>
<text text-anchor="start" x="2129" y="-306.3" font-family="monospace" font-size="14.00">  EX_Nothing</text>
</g>
<!-- SetText__27&#45;&gt;SetText__72 -->
<g id="edge11" class="edge">
<title>SetText__27&#45;&gt;SetText__72</title>
<path fill="none" stroke="black" d="M2179,-457.72C2179,-424.28 2179,-377.54 2179,-347.64"/>
<polygon fill="black" stroke="black" points="2182.5,-347.83 2179,-337.83 2175.5,-347.83 2182.5,-347.83"/>
</g>
<!-- SetText__74 -->
<g id="node18" class="node">
<title>SetText__74</title>
<polygon fill="#eeeeee" stroke="black" points="2357,-379 2357,-415 2489,-415 2489,-379 2357,-379"/>
<text text-anchor="start" x="2365" y="-393.3" font-family="monospace" font-size="14.00">EX_EndOfScript</text>
</g>
<!-- SetNotification -->
<g id="node19" class="node">
<title>SetNotification</title>
<polygon fill="#ff8888" stroke="black" points="2432,-816.5 2432,-899.5 2902,-899.5 2902,-816.5 2432,-816.5"/>
<text text-anchor="start" x="2440" y="-884.3" font-family="monospace" font-size="14.00">Function SetNotification</text>
<text text-anchor="start" x="2440" y="-869.3" font-family="monospace" font-size="14.00">  TextProperty Text</text>
<text text-anchor="start" x="2440" y="-854.3" font-family="monospace" font-size="14.00">    CPF_BlueprintVisible|CPF_BlueprintReadOnly|CPF_Parm</text>
<text text-anchor="start" x="2440" y="-839.3" font-family="monospace" font-size="14.00">  ObjectProperty IconTexture</text>
<text text-anchor="start" x="2440" y="-824.3" font-family="monospace" font-size="14.00">    CPF_BlueprintVisible|CPF_BlueprintReadOnly|CPF_Parm</text>
</g>
<!-- SetNotification__0 -->
<g id="node20" class="node">
<title>SetNotification__0</title>
<polygon fill="#eeeeee" stroke="black" points="2452.5,-614.5 2452.5,-697.5 2881.5,-697.5 2881.5,-614.5 2452.5,-614.5"/>
<text text-anchor="start" x="2460.5" y="-682.3" font-family="monospace" font-size="14.00">EX_Context</text>
<text text-anchor="start" x="2460.5" y="-667.3" font-family="monospace" font-size="14.00">  EX_InstanceVariable [ConsoleScreen_Notification]</text>
<text text-anchor="start" x="2460.5" y="-652.3" font-family="monospace" font-size="14.00">  EX_LocalVirtualFunction SetNotificationText</text>
<text text-anchor="start" x="2460.5" y="-637.3" font-family="monospace" font-size="14.00">    EX_LocalVariable [Text]</text>
<text text-anchor="start" x="2460.5" y="-622.3" font-family="monospace" font-size="14.00">  RValue = []</text>
</g>
<!-- SetNotification&#45;&gt;SetNotification__0 -->
<g id="edge12" class="edge">
<title>SetNotification&#45;&gt;SetNotification__0</title>
<path fill="none" stroke="black" d="M2667,-816.53C2667,-785.49 2667,-742.42 2667,-708.85"/>
<polygon fill="black" stroke="black" points="2670.5,-708.93 2667,-698.93 2663.5,-708.93 2670.5,-708.93"/>
</g>
<!-- SetNotification__45 -->
<g id="node21" class="node">
<title>SetNotification__45</title>
<polygon fill="#eeeeee" stroke="black" points="2452.5,-457.5 2452.5,-540.5 2881.5,-540.5 2881.5,-457.5 2452.5,-457.5"/>
<text text-anchor="start" x="2460.5" y="-525.3" font-family="monospace" font-size="14.00">EX_Context</text>
<text text-anchor="start" x="2460.5" y="-510.3" font-family="monospace" font-size="14.00">  EX_InstanceVariable [ConsoleScreen_Notification]</text>
<text text-anchor="start" x="2460.5" y="-495.3" font-family="monospace" font-size="14.00">  EX_LocalVirtualFunction SetNotificationIcon</text>
<text text-anchor="start" x="2460.5" y="-480.3" font-family="monospace" font-size="14.00">    EX_LocalVariable [IconTexture]</text>
<text text-anchor="start" x="2460.5" y="-465.3" font-family="monospace" font-size="14.00">  RValue = []</text>
</g>
<!-- SetNotification__0&#45;&gt;SetNotification__45 -->
<g id="edge13" class="edge">
<title>SetNotification__0&#45;&gt;SetNotification__45</title>
<path fill="none" stroke="black" d="M2667,-614.68C2667,-595.47 2667,-572.27 2667,-551.77"/>
<polygon fill="black" stroke="black" points="2670.5,-551.9 2667,-541.9 2663.5,-551.9 2670.5,-551.9"/>
</g>
<!-- SetNotification__90 -->
<g id="node22" class="node">
<title>SetNotification__90</title>
<polygon fill="#eeeeee" stroke="black" points="2609,-298.5 2609,-336.5 2725,-336.5 2725,-298.5 2609,-298.5"/>
<text text-anchor="start" x="2617" y="-321.3" font-family="monospace" font-size="14.00">EX_Return</text>
<text text-anchor="start" x="2617" y="-306.3" font-family="monospace" font-size="14.00">  EX_Nothing</text>
</g>
<!-- SetNotification__45&#45;&gt;SetNotification__90 -->
<g id="edge14" class="edge">
<title>SetNotification__45&#45;&gt;SetNotification__90</title>
<path fill="none" stroke="black" d="M2667,-457.72C2667,-424.28 2667,-377.54 2667,-347.64"/>
<polygon fill="black" stroke="black" points="2670.5,-347.83 2667,-337.83 2663.5,-347.83 2670.5,-347.83"/>
</g>
<!-- SetNotification__92 -->
<g id="node23" class="node">
<title>SetNotification__92</title>
<polygon fill="#eeeeee" stroke="black" points="2576,-243.5 2576,-279.5 2708,-279.5 2708,-243.5 2576,-243.5"/>
<text text-anchor="start" x="2584" y="-257.8" font-family="monospace" font-size="14.00">EX_EndOfScript</text>
</g>
<!-- SetNotificationVisible -->
<g id="node24" class="node">
<title>SetNotificationVisible</title>
<polygon fill="#ff8888" stroke="black" points="2947,-831.5 2947,-884.5 3417,-884.5 3417,-831.5 2947,-831.5"/>
<text text-anchor="start" x="2955" y="-869.3" font-family="monospace" font-size="14.00">Function SetNotificationVisible</text>
<text text-anchor="start" x="2955" y="-854.3" font-family="monospace" font-size="14.00">  BoolProperty NewVisibility</text>
<text text-anchor="start" x="2955" y="-839.3" font-family="monospace" font-size="14.00">    CPF_BlueprintVisible|CPF_BlueprintReadOnly|CPF_Parm</text>
</g>
<!-- SetNotificationVisible__0 -->
<g id="node25" class="node">
<title>SetNotificationVisible__0</title>
<polygon fill="#eeeeee" stroke="black" points="3033.5,-637 3033.5,-675 3330.5,-675 3330.5,-637 3033.5,-637"/>
<text text-anchor="start" x="3041.5" y="-659.8" font-family="monospace" font-size="14.00">EX_JumpIfNot 57</text>
<text text-anchor="start" x="3041.5" y="-644.8" font-family="monospace" font-size="14.00">  EX_LocalVariable [NewVisibility]</text>
</g>
<!-- SetNotificationVisible&#45;&gt;SetNotificationVisible__0 -->
<g id="edge15" class="edge">
<title>SetNotificationVisible&#45;&gt;SetNotificationVisible__0</title>
<path fill="none" stroke="black" d="M3182,-831.67C3182,-794.5 3182,-725.37 3182,-686.14"/>
<polygon fill="black" stroke="black" points="3185.5,-686.28 3182,-676.28 3178.5,-686.28 3185.5,-686.28"/>
</g>
<!-- SetNotificationVisible__14 -->
<g id="node26" class="node">
<title>SetNotificationVisible__14</title>
<polygon fill="#eeeeee" stroke="black" points="2899.5,-457.5 2899.5,-540.5 3328.5,-540.5 3328.5,-457.5 2899.5,-457.5"/>
<text text-anchor="start" x="2907.5" y="-525.3" font-family="monospace" font-size="14.00">EX_Context</text>
<text text-anchor="start" x="2907.5" y="-510.3" font-family="monospace" font-size="14.00">  EX_InstanceVariable [ConsoleScreen_Notification]</text>
<text text-anchor="start" x="2907.5" y="-495.3" font-family="monospace" font-size="14.00">  EX_VirtualFunction SetVisibility</text>
<text text-anchor="start" x="2907.5" y="-480.3" font-family="monospace" font-size="14.00">    EX_ByteConst 4</text>
<text text-anchor="start" x="2907.5" y="-465.3" font-family="monospace" font-size="14.00">  RValue = []</text>
</g>
<!-- SetNotificationVisible__0&#45;&gt;SetNotificationVisible__14 -->
<g id="edge17" class="edge">
<title>SetNotificationVisible__0&#45;&gt;SetNotificationVisible__14</title>
<path fill="none" stroke="black" d="M3174.2,-637.22C3164.99,-616.24 3149.29,-580.43 3136.22,-550.66"/>
<polygon fill="black" stroke="black" points="3139.56,-549.55 3132.34,-541.8 3133.15,-552.36 3139.56,-549.55"/>
<text text-anchor="middle" x="3165.5" y="-573.8" font-family="monospace" font-size="14.00">IF</text>
</g>
<!-- SetNotificationVisible__57 -->
<g id="node28" class="node">
<title>SetNotificationVisible__57</title>
<polygon fill="#eeeeee" stroke="black" points="3138.5,-355.5 3138.5,-438.5 3567.5,-438.5 3567.5,-355.5 3138.5,-355.5"/>
<text text-anchor="start" x="3146.5" y="-423.3" font-family="monospace" font-size="14.00">EX_Context</text>
<text text-anchor="start" x="3146.5" y="-408.3" font-family="monospace" font-size="14.00">  EX_InstanceVariable [ConsoleScreen_Notification]</text>
<text text-anchor="start" x="3146.5" y="-393.3" font-family="monospace" font-size="14.00">  EX_VirtualFunction SetVisibility</text>
<text text-anchor="start" x="3146.5" y="-378.3" font-family="monospace" font-size="14.00">    EX_ByteConst 1</text>
<text text-anchor="start" x="3146.5" y="-363.3" font-family="monospace" font-size="14.00">  RValue = []</text>
</g>
<!-- SetNotificationVisible__0&#45;&gt;SetNotificationVisible__57 -->
<g id="edge16" class="edge">
<title>SetNotificationVisible__0:e&#45;&gt;SetNotificationVisible__57</title>
<path fill="none" stroke="red" d="M3332,-656C3414.24,-656 3389.63,-524.16 3368.91,-448.97"/>
<polygon fill="none" stroke="red" points="3372.4,-448.44 3366.31,-439.77 3365.66,-450.34 3372.4,-448.44"/>
<text text-anchor="middle" x="3415" y="-573.8" font-family="monospace" font-size="14.00">IF NOT</text>
</g>
<!-- SetNotificationVisible__52 -->
<g id="node27" class="node">
<title>SetNotificationVisible__52</title>
<polygon fill="#eeeeee" stroke="black" points="3106.5,-299.5 3106.5,-335.5 3205.5,-335.5 3205.5,-299.5 3106.5,-299.5"/>
<text text-anchor="start" x="3114.5" y="-313.8" font-family="monospace" font-size="14.00">EX_Jump 95</text>
</g>
<!-- SetNotificationVisible__14&#45;&gt;SetNotificationVisible__52 -->
<g id="edge18" class="edge">
<title>SetNotificationVisible__14&#45;&gt;SetNotificationVisible__52</title>
<path fill="none" stroke="black" d="M3113.69,-457.64C3114.68,-428.31 3118.56,-388.12 3131,-355 3132.3,-351.55 3133.99,-348.11 3135.88,-344.8"/>
<polygon fill="black" stroke="black" points="3138.66,-346.94 3141.13,-336.64 3132.77,-343.15 3138.66,-346.94"/>
</g>
<!-- SetNotificationVisible__95 -->
<g id="node29" class="node">
<title>SetNotificationVisible__95</title>
<polygon fill="#eeeeee" stroke="black" points="3210,-186.5 3210,-224.5 3326,-224.5 3326,-186.5 3210,-186.5"/>
<text text-anchor="start" x="3218" y="-209.3" font-family="monospace" font-size="14.00">EX_Return</text>
<text text-anchor="start" x="3218" y="-194.3" font-family="monospace" font-size="14.00">  EX_Nothing</text>
</g>
<!-- SetNotificationVisible__52&#45;&gt;SetNotificationVisible__95 -->
<g id="edge19" class="edge">
<title>SetNotificationVisible__52&#45;&gt;SetNotificationVisible__95</title>
<path fill="none" stroke="black" d="M3173.01,-299.79C3191.27,-281.86 3220.51,-253.14 3241.73,-232.3"/>
<polygon fill="black" stroke="black" points="3243.95,-235.03 3248.63,-225.52 3239.04,-230.03 3243.95,-235.03"/>
</g>
<!-- SetNotificationVisible__57&#45;&gt;SetNotificationVisible__95 -->
<g id="edge20" class="edge">
<title>SetNotificationVisible__57&#45;&gt;SetNotificationVisible__95</title>
<path fill="none" stroke="black" d="M3334.97,-355.81C3318.67,-319.46 3295.08,-266.87 3280.68,-234.77"/>
<polygon fill="black" stroke="black" points="3283.91,-233.41 3276.62,-225.72 3277.52,-236.28 3283.91,-233.41"/>
</g>
<!-- SetNotificationVisible__97 -->
<g id="node30" class="node">
<title>SetNotificationVisible__97</title>
<polygon fill="#eeeeee" stroke="black" points="1969,-131.5 1969,-167.5 2101,-167.5 2101,-131.5 1969,-131.5"/>
<text text-anchor="start" x="1977" y="-145.8" font-family="monospace" font-size="14.00">EX_EndOfScript</text>
</g>
</g>
</svg>
