<?xml version="1.0" encoding="UTF-8" standalone="no"?>
<!DOCTYPE svg PUBLIC "-//W3C//DTD SVG 1.1//EN"
 "http://www.w3.org/Graphics/SVG/1.1/DTD/svg11.dtd">
<!-- Generated by graphviz version 7.0.1 (0)
 -->
<!-- Pages: 1 -->
<svg width="2285pt" height="1138pt"
 viewBox="0.00 0.00 2284.50 1138.00" xmlns="http://www.w3.org/2000/svg" xmlns:xlink="http://www.w3.org/1999/xlink">
<g id="graph0" class="graph" transform="scale(1 1) rotate(0) translate(4 1134)">
<polygon fill="white" stroke="none" points="-4,4 -4,-1134 2280.5,-1134 2280.5,4 -4,4"/>
<!-- WND_ForgeAvailableMessage_C -->
<g id="node1" class="node">
<title>WND_ForgeAvailableMessage_C</title>
<polygon fill="#88ff88" stroke="black" points="0,-1024 0,-1107 404,-1107 404,-1024 0,-1024"/>
<text text-anchor="start" x="8" y="-1091.8" font-family="monospace" font-size="14.00">ClassExport: WND_ForgeAvailableMessage_C</text>
<text text-anchor="start" x="8" y="-1076.8" font-family="monospace" font-size="14.00">  SuperStruct: import /Script/FSD&#45;&gt;WindowWidget</text>
<text text-anchor="start" x="8" y="-1061.8" font-family="monospace" font-size="14.00">  Properties:</text>
<text text-anchor="start" x="8" y="-1046.8" font-family="monospace" font-size="14.00">    StructProperty UberGraphFrame</text>
<text text-anchor="start" x="8" y="-1031.8" font-family="monospace" font-size="14.00">      CPF_Transient|CPF_DuplicateTransient</text>
</g>
<!-- ExecuteUbergraph_WND_ForgeAvailableMessage -->
<g id="node2" class="node">
<title>ExecuteUbergraph_WND_ForgeAvailableMessage</title>
<polygon fill="#ff8888" stroke="black" points="422.5,-1001.5 422.5,-1129.5 909.5,-1129.5 909.5,-1001.5 422.5,-1001.5"/>
<text text-anchor="start" x="430.5" y="-1114.3" font-family="monospace" font-size="14.00">Function ExecuteUbergraph_WND_ForgeAvailableMessage</text>
<text text-anchor="start" x="430.5" y="-1099.3" font-family="monospace" font-size="14.00">  IntProperty EntryPoint</text>
<text text-anchor="start" x="430.5" y="-1084.3" font-family="monospace" font-size="14.00">    CPF_BlueprintVisible|CPF_BlueprintReadOnly|CPF_Parm</text>
<text text-anchor="start" x="430.5" y="-1069.3" font-family="monospace" font-size="14.00">  ObjectProperty CallFunc_GetOwningPlayerPawn_ReturnValue</text>
<text text-anchor="start" x="430.5" y="-1054.3" font-family="monospace" font-size="14.00">  ObjectProperty CallFunc_GetFSDSaveGame_ReturnValue</text>
<text text-anchor="start" x="430.5" y="-1039.3" font-family="monospace" font-size="14.00">  ObjectProperty K2Node_DynamicCast_AsPlayer_Character</text>
<text text-anchor="start" x="430.5" y="-1024.3" font-family="monospace" font-size="14.00">  BoolProperty K2Node_DynamicCast_bSuccess</text>
<text text-anchor="start" x="430.5" y="-1009.3" font-family="monospace" font-size="14.00">  IntProperty CallFunc_MissionShoutLocally_ReturnValue</text>
</g>
<!-- ExecuteUbergraph_WND_ForgeAvailableMessage__0 -->
<g id="node3" class="node">
<title>ExecuteUbergraph_WND_ForgeAvailableMessage__0</title>
<polygon fill="#eeeeee" stroke="black" points="530,-926.5 530,-964.5 802,-964.5 802,-926.5 530,-926.5"/>
<text text-anchor="start" x="538" y="-949.3" font-family="monospace" font-size="14.00">EX_ComputedJump</text>
<text text-anchor="start" x="538" y="-934.3" font-family="monospace" font-size="14.00">  EX_LocalVariable [EntryPoint]</text>
</g>
<!-- ExecuteUbergraph_WND_ForgeAvailableMessage&#45;&gt;ExecuteUbergraph_WND_ForgeAvailableMessage__0 -->
<g id="edge1" class="edge">
<title>ExecuteUbergraph_WND_ForgeAvailableMessage&#45;&gt;ExecuteUbergraph_WND_ForgeAvailableMessage__0</title>
<path fill="none" stroke="black" d="M666,-1001.7C666,-992.49 666,-983.4 666,-975.34"/>
<polygon fill="black" stroke="black" points="669.5,-975.53 666,-965.53 662.5,-975.53 669.5,-975.53"/>
</g>
<!-- ExecuteUbergraph_WND_ForgeAvailableMessage__10 -->
<g id="node4" class="node">
<title>ExecuteUbergraph_WND_ForgeAvailableMessage__10</title>
<polygon fill="#eeeeee" stroke="black" points="1381.5,-778.5 1381.5,-814.5 1942.5,-814.5 1942.5,-778.5 1381.5,-778.5"/>
<text text-anchor="start" x="1389.5" y="-792.8" font-family="monospace" font-size="14.00">EX_FinalFunction import /Script/FSD&#45;&gt;WindowWidget&#45;&gt;CloseThisWindow</text>
</g>
<!-- ExecuteUbergraph_WND_ForgeAvailableMessage__20 -->
<g id="node5" class="node">
<title>ExecuteUbergraph_WND_ForgeAvailableMessage__20</title>
<polygon fill="#eeeeee" stroke="black" points="1369,-673.5 1369,-741.5 1955,-741.5 1955,-673.5 1369,-673.5"/>
<text text-anchor="start" x="1377" y="-726.3" font-family="monospace" font-size="14.00">EX_LetObj</text>
<text text-anchor="start" x="1377" y="-711.3" font-family="monospace" font-size="14.00">  EX_LocalVariable [CallFunc_GetFSDSaveGame_ReturnValue]</text>
<text text-anchor="start" x="1377" y="-696.3" font-family="monospace" font-size="14.00">  EX_CallMath import /Script/FSD&#45;&gt;GameFunctionLibrary&#45;&gt;GetFSDSaveGame</text>
<text text-anchor="start" x="1377" y="-681.3" font-family="monospace" font-size="14.00">    EX_Self</text>
</g>
<!-- ExecuteUbergraph_WND_ForgeAvailableMessage__10&#45;&gt;ExecuteUbergraph_WND_ForgeAvailableMessage__20 -->
<g id="edge2" class="edge">
<title>ExecuteUbergraph_WND_ForgeAvailableMessage__10&#45;&gt;ExecuteUbergraph_WND_ForgeAvailableMessage__20</title>
<path fill="none" stroke="black" d="M1662,-778.73C1662,-771.21 1662,-761.96 1662,-752.68"/>
<polygon fill="black" stroke="black" points="1665.5,-752.95 1662,-742.95 1658.5,-752.95 1665.5,-752.95"/>
</g>
<!-- ExecuteUbergraph_WND_ForgeAvailableMessage__41 -->
<g id="node6" class="node">
<title>ExecuteUbergraph_WND_ForgeAvailableMessage__41</title>
<polygon fill="#eeeeee" stroke="black" points="1319.5,-568.5 1319.5,-636.5 2004.5,-636.5 2004.5,-568.5 1319.5,-568.5"/>
<text text-anchor="start" x="1327.5" y="-621.3" font-family="monospace" font-size="14.00">EX_Context</text>
<text text-anchor="start" x="1327.5" y="-606.3" font-family="monospace" font-size="14.00">  EX_LocalVariable [CallFunc_GetFSDSaveGame_ReturnValue]</text>
<text text-anchor="start" x="1327.5" y="-591.3" font-family="monospace" font-size="14.00">  EX_FinalFunction import /Script/FSD&#45;&gt;FSDSaveGame&#45;&gt;MarkFirstSchematicMessageSeen</text>
<text text-anchor="start" x="1327.5" y="-576.3" font-family="monospace" font-size="14.00">  RValue = []</text>
</g>
<!-- ExecuteUbergraph_WND_ForgeAvailableMessage__20&#45;&gt;ExecuteUbergraph_WND_ForgeAvailableMessage__41 -->
<g id="edge3" class="edge">
<title>ExecuteUbergraph_WND_ForgeAvailableMessage__20&#45;&gt;ExecuteUbergraph_WND_ForgeAvailableMessage__41</title>
<path fill="none" stroke="black" d="M1662,-673.63C1662,-665.45 1662,-656.55 1662,-647.92"/>
<polygon fill="black" stroke="black" points="1665.5,-647.93 1662,-637.93 1658.5,-647.93 1665.5,-647.93"/>
</g>
<!-- ExecuteUbergraph_WND_ForgeAvailableMessage__73 -->
<g id="node7" class="node">
<title>ExecuteUbergraph_WND_ForgeAvailableMessage__73</title>
<polygon fill="#eeeeee" stroke="black" points="1365,-478.5 1365,-531.5 1959,-531.5 1959,-478.5 1365,-478.5"/>
<text text-anchor="start" x="1373" y="-516.3" font-family="monospace" font-size="14.00">EX_LetObj</text>
<text text-anchor="start" x="1373" y="-501.3" font-family="monospace" font-size="14.00">  EX_LocalVariable [CallFunc_GetOwningPlayerPawn_ReturnValue]</text>
<text text-anchor="start" x="1373" y="-486.3" font-family="monospace" font-size="14.00">  EX_FinalFunction import /Script/UMG&#45;&gt;UserWidget&#45;&gt;GetOwningPlayerPawn</text>
</g>
<!-- ExecuteUbergraph_WND_ForgeAvailableMessage__41&#45;&gt;ExecuteUbergraph_WND_ForgeAvailableMessage__73 -->
<g id="edge4" class="edge">
<title>ExecuteUbergraph_WND_ForgeAvailableMessage__41&#45;&gt;ExecuteUbergraph_WND_ForgeAvailableMessage__73</title>
<path fill="none" stroke="black" d="M1662,-568.63C1662,-560.25 1662,-551.19 1662,-542.63"/>
<polygon fill="black" stroke="black" points="1665.5,-542.9 1662,-532.9 1658.5,-542.9 1665.5,-542.9"/>
</g>
<!-- ExecuteUbergraph_WND_ForgeAvailableMessage__93 -->
<g id="node8" class="node">
<title>ExecuteUbergraph_WND_ForgeAvailableMessage__93</title>
<polygon fill="#eeeeee" stroke="black" points="1394,-373.5 1394,-441.5 1930,-441.5 1930,-373.5 1394,-373.5"/>
<text text-anchor="start" x="1402" y="-426.3" font-family="monospace" font-size="14.00">EX_Let</text>
<text text-anchor="start" x="1402" y="-411.3" font-family="monospace" font-size="14.00">  EX_LocalVariable [K2Node_DynamicCast_AsPlayer_Character]</text>
<text text-anchor="start" x="1402" y="-396.3" font-family="monospace" font-size="14.00">  EX_DynamicCast import /Script/FSD&#45;&gt;PlayerCharacter</text>
<text text-anchor="start" x="1402" y="-381.3" font-family="monospace" font-size="14.00">    EX_LocalVariable [CallFunc_GetOwningPlayerPawn_ReturnValue]</text>
</g>
<!-- ExecuteUbergraph_WND_ForgeAvailableMessage__73&#45;&gt;ExecuteUbergraph_WND_ForgeAvailableMessage__93 -->
<g id="edge5" class="edge">
<title>ExecuteUbergraph_WND_ForgeAvailableMessage__73&#45;&gt;ExecuteUbergraph_WND_ForgeAvailableMessage__93</title>
<path fill="none" stroke="black" d="M1662,-478.66C1662,-470.67 1662,-461.59 1662,-452.68"/>
<polygon fill="black" stroke="black" points="1665.5,-452.69 1662,-442.69 1658.5,-452.69 1665.5,-452.69"/>
</g>
<!-- ExecuteUbergraph_WND_ForgeAvailableMessage__129 -->
<g id="node9" class="node">
<title>ExecuteUbergraph_WND_ForgeAvailableMessage__129</title>
<polygon fill="#eeeeee" stroke="black" points="1406,-268.5 1406,-336.5 1918,-336.5 1918,-268.5 1406,-268.5"/>
<text text-anchor="start" x="1414" y="-321.3" font-family="monospace" font-size="14.00">EX_Let</text>
<text text-anchor="start" x="1414" y="-306.3" font-family="monospace" font-size="14.00">  EX_LocalVariable [K2Node_DynamicCast_bSuccess]</text>
<text text-anchor="start" x="1414" y="-291.3" font-family="monospace" font-size="14.00">  EX_PrimitiveCast ObjectToBool</text>
<text text-anchor="start" x="1414" y="-276.3" font-family="monospace" font-size="14.00">    EX_LocalVariable [K2Node_DynamicCast_AsPlayer_Character]</text>
</g>
<!-- ExecuteUbergraph_WND_ForgeAvailableMessage__93&#45;&gt;ExecuteUbergraph_WND_ForgeAvailableMessage__129 -->
<g id="edge6" class="edge">
<title>ExecuteUbergraph_WND_ForgeAvailableMessage__93&#45;&gt;ExecuteUbergraph_WND_ForgeAvailableMessage__129</title>
<path fill="none" stroke="black" d="M1662,-373.63C1662,-365.45 1662,-356.55 1662,-347.92"/>
<polygon fill="black" stroke="black" points="1665.5,-347.93 1662,-337.93 1658.5,-347.93 1665.5,-347.93"/>
</g>
<!-- ExecuteUbergraph_WND_ForgeAvailableMessage__158 -->
<g id="node10" class="node">
<title>ExecuteUbergraph_WND_ForgeAvailableMessage__158</title>
<polygon fill="#eeeeee" stroke="black" points="1047.5,-148.5 1047.5,-231.5 2276.5,-231.5 2276.5,-148.5 1047.5,-148.5"/>
<text text-anchor="start" x="1055.5" y="-216.3" font-family="monospace" font-size="14.00">EX_Let</text>
<text text-anchor="start" x="1055.5" y="-201.3" font-family="monospace" font-size="14.00">  EX_LocalVariable [CallFunc_MissionShoutLocally_ReturnValue]</text>
<text text-anchor="start" x="1055.5" y="-186.3" font-family="monospace" font-size="14.00">  EX_CallMath import /Script/FSD&#45;&gt;CommunicationComponent&#45;&gt;MissionShoutLocally</text>
<text text-anchor="start" x="1055.5" y="-171.3" font-family="monospace" font-size="14.00">    EX_Self</text>
<text text-anchor="start" x="1055.5" y="-156.3" font-family="monospace" font-size="14.00">    EX_ObjectConst import /Game/Character/Shouts/MissionControl/SpaceRig/EndGAME/Shout_Mission_First_Infused_Core&#45;&gt;Shout_Mission_First_Infused_Core</text>
</g>
<!-- ExecuteUbergraph_WND_ForgeAvailableMessage__129&#45;&gt;ExecuteUbergraph_WND_ForgeAvailableMessage__158 -->
<g id="edge7" class="edge">
<title>ExecuteUbergraph_WND_ForgeAvailableMessage__129&#45;&gt;ExecuteUbergraph_WND_ForgeAvailableMessage__158</title>
<path fill="none" stroke="black" d="M1662,-268.65C1662,-260.51 1662,-251.59 1662,-242.78"/>
<polygon fill="black" stroke="black" points="1665.5,-242.87 1662,-232.87 1658.5,-242.87 1665.5,-242.87"/>
</g>
<!-- ExecuteUbergraph_WND_ForgeAvailableMessage__196 -->
<g id="node11" class="node">
<title>ExecuteUbergraph_WND_ForgeAvailableMessage__196</title>
<polygon fill="#eeeeee" stroke="black" points="1608.5,-75.5 1608.5,-111.5 1715.5,-111.5 1715.5,-75.5 1608.5,-75.5"/>
<text text-anchor="start" x="1616.5" y="-89.8" font-family="monospace" font-size="14.00">EX_Jump 206</text>
</g>
<!-- ExecuteUbergraph_WND_ForgeAvailableMessage__158&#45;&gt;ExecuteUbergraph_WND_ForgeAvailableMessage__196 -->
<g id="edge8" class="edge">
<title>ExecuteUbergraph_WND_ForgeAvailableMessage__158&#45;&gt;ExecuteUbergraph_WND_ForgeAvailableMessage__196</title>
<path fill="none" stroke="black" d="M1662,-148.65C1662,-139.99 1662,-131.01 1662,-122.91"/>
<polygon fill="black" stroke="black" points="1665.5,-122.97 1662,-112.97 1658.5,-122.97 1665.5,-122.97"/>
</g>
<!-- ExecuteUbergraph_WND_ForgeAvailableMessage__206 -->
<g id="node13" class="node">
<title>ExecuteUbergraph_WND_ForgeAvailableMessage__206</title>
<polygon fill="#eeeeee" stroke="black" points="1604,-0.5 1604,-38.5 1720,-38.5 1720,-0.5 1604,-0.5"/>
<text text-anchor="start" x="1612" y="-23.3" font-family="monospace" font-size="14.00">EX_Return</text>
<text text-anchor="start" x="1612" y="-8.3" font-family="monospace" font-size="14.00">  EX_Nothing</text>
</g>
<!-- ExecuteUbergraph_WND_ForgeAvailableMessage__196&#45;&gt;ExecuteUbergraph_WND_ForgeAvailableMessage__206 -->
<g id="edge9" class="edge">
<title>ExecuteUbergraph_WND_ForgeAvailableMessage__196&#45;&gt;ExecuteUbergraph_WND_ForgeAvailableMessage__206</title>
<path fill="none" stroke="black" d="M1662,-75.8C1662,-68.09 1662,-58.7 1662,-49.86"/>
<polygon fill="black" stroke="black" points="1665.5,-49.88 1662,-39.88 1658.5,-49.88 1665.5,-49.88"/>
</g>
<!-- ExecuteUbergraph_WND_ForgeAvailableMessage__201 -->
<g id="node12" class="node">
<title>ExecuteUbergraph_WND_ForgeAvailableMessage__201</title>
<polygon fill="#eeeeee" stroke="black" points="1612.5,-852.5 1612.5,-888.5 1711.5,-888.5 1711.5,-852.5 1612.5,-852.5"/>
<text text-anchor="start" x="1620.5" y="-866.8" font-family="monospace" font-size="14.00">EX_Jump 10</text>
</g>
<!-- ExecuteUbergraph_WND_ForgeAvailableMessage__201&#45;&gt;ExecuteUbergraph_WND_ForgeAvailableMessage__10 -->
<g id="edge10" class="edge">
<title>ExecuteUbergraph_WND_ForgeAvailableMessage__201&#45;&gt;ExecuteUbergraph_WND_ForgeAvailableMessage__10</title>
<path fill="none" stroke="black" d="M1662,-852.8C1662,-844.71 1662,-834.78 1662,-825.57"/>
<polygon fill="black" stroke="black" points="1665.5,-825.62 1662,-815.62 1658.5,-825.62 1665.5,-825.62"/>
</g>
<!-- ExecuteUbergraph_WND_ForgeAvailableMessage__208 -->
<g id="node14" class="node">
<title>ExecuteUbergraph_WND_ForgeAvailableMessage__208</title>
<polygon fill="#eeeeee" stroke="black" points="1961,-778.5 1961,-814.5 2093,-814.5 2093,-778.5 1961,-778.5"/>
<text text-anchor="start" x="1969" y="-792.8" font-family="monospace" font-size="14.00">EX_EndOfScript</text>
</g>
<!-- OnShown -->
<g id="node15" class="node">
<title>OnShown</title>
<polygon fill="#ff8888" stroke="black" points="1166.5,-1047.5 1166.5,-1083.5 1315.5,-1083.5 1315.5,-1047.5 1166.5,-1047.5"/>
<text text-anchor="start" x="1174.5" y="-1061.8" font-family="monospace" font-size="14.00">Function OnShown</text>
</g>
<!-- OnShown__0 -->
<g id="node16" class="node">
<title>OnShown__0</title>
<polygon fill="#eeeeee" stroke="black" points="820,-926.5 820,-964.5 1662,-964.5 1662,-926.5 820,-926.5"/>
<text text-anchor="start" x="828" y="-949.3" font-family="monospace" font-size="14.00">EX_LocalFinalFunction export WND_ForgeAvailableMessage_C&#45;&gt;ExecuteUbergraph_WND_ForgeAvailableMessage</text>
<text text-anchor="start" x="828" y="-934.3" font-family="monospace" font-size="14.00">  EX_IntConst 201</text>
</g>
<!-- OnShown&#45;&gt;OnShown__0 -->
<g id="edge11" class="edge">
<title>OnShown&#45;&gt;OnShown__0</title>
<path fill="none" stroke="black" d="M1241,-1047.59C1241,-1028.8 1241,-998.1 1241,-975.46"/>
<polygon fill="black" stroke="black" points="1244.5,-975.66 1241,-965.66 1237.5,-975.66 1244.5,-975.66"/>
</g>
<!-- OnShown__0&#45;&gt;ExecuteUbergraph_WND_ForgeAvailableMessage__201 -->
<g id="edge12" class="edge">
<title>OnShown__0:e&#45;&gt;ExecuteUbergraph_WND_ForgeAvailableMessage__201</title>
<path fill="none" stroke="red" d="M1663,-945.5C1682.28,-945.5 1678.62,-920.08 1672.28,-899.04"/>
<polygon fill="none" stroke="red" points="1675.66,-898.12 1669.2,-889.73 1669.02,-900.32 1675.66,-898.12"/>
</g>
<!-- OnShown__15 -->
<g id="node17" class="node">
<title>OnShown__15</title>
<polygon fill="#eeeeee" stroke="black" points="1183,-851.5 1183,-889.5 1299,-889.5 1299,-851.5 1183,-851.5"/>
<text text-anchor="start" x="1191" y="-874.3" font-family="monospace" font-size="14.00">EX_Return</text>
<text text-anchor="start" x="1191" y="-859.3" font-family="monospace" font-size="14.00">  EX_Nothing</text>
</g>
<!-- OnShown__0&#45;&gt;OnShown__15 -->
<g id="edge13" class="edge">
<title>OnShown__0&#45;&gt;OnShown__15</title>
<path fill="none" stroke="black" d="M1241,-926.83C1241,-919 1241,-909.57 1241,-900.74"/>
<polygon fill="black" stroke="black" points="1244.5,-900.78 1241,-890.78 1237.5,-900.78 1244.5,-900.78"/>
</g>
<!-- OnShown__17 -->
<g id="node18" class="node">
<title>OnShown__17</title>
<polygon fill="#eeeeee" stroke="black" points="1973,-689.5 1973,-725.5 2105,-725.5 2105,-689.5 1973,-689.5"/>
<text text-anchor="start" x="1981" y="-703.8" font-family="monospace" font-size="14.00">EX_EndOfScript</text>
</g>
</g>
</svg>
