<?xml version="1.0" encoding="UTF-8" standalone="no"?>
<!DOCTYPE svg PUBLIC "-//W3C//DTD SVG 1.1//EN"
 "http://www.w3.org/Graphics/SVG/1.1/DTD/svg11.dtd">
<!-- Generated by graphviz version 7.0.1 (0)
 -->
<!-- Pages: 1 -->
<svg width="4232pt" height="1686pt"
 viewBox="0.00 0.00 4231.50 1686.00" xmlns="http://www.w3.org/2000/svg" xmlns:xlink="http://www.w3.org/1999/xlink">
<g id="graph0" class="graph" transform="scale(1 1) rotate(0) translate(4 1682)">
<polygon fill="white" stroke="none" points="-4,4 -4,-1682 4227.5,-1682 4227.5,4 -4,4"/>
<!-- WND_PendingMachineEventReward_C -->
<g id="node1" class="node">
<title>WND_PendingMachineEventReward_C</title>
<polygon fill="#88ff88" stroke="black" points="0,-1414.5 0,-1677.5 850,-1677.5 850,-1414.5 0,-1414.5"/>
<text text-anchor="start" x="8" y="-1662.3" font-family="monospace" font-size="14.00">ClassExport: WND_PendingMachineEventReward_C</text>
<text text-anchor="start" x="8" y="-1647.3" font-family="monospace" font-size="14.00">  SuperStruct: import /Script/FSD&#45;&gt;WindowWidget</text>
<text text-anchor="start" x="8" y="-1632.3" font-family="monospace" font-size="14.00">  Properties:</text>
<text text-anchor="start" x="8" y="-1617.3" font-family="monospace" font-size="14.00">    StructProperty UberGraphFrame</text>
<text text-anchor="start" x="8" y="-1602.3" font-family="monospace" font-size="14.00">      CPF_Transient|CPF_DuplicateTransient</text>
<text text-anchor="start" x="8" y="-1587.3" font-family="monospace" font-size="14.00">    ObjectProperty AnimFadeIn</text>
<text text-anchor="start" x="8" y="-1572.3" font-family="monospace" font-size="14.00">      CPF_BlueprintVisible|CPF_BlueprintReadOnly|CPF_Transient|CPF_RepSkip</text>
<text text-anchor="start" x="8" y="-1557.3" font-family="monospace" font-size="14.00">    ObjectProperty Basic_ButtonScalable2</text>
<text text-anchor="start" x="8" y="-1542.3" font-family="monospace" font-size="14.00">      CPF_BlueprintVisible|CPF_ExportObject|CPF_InstancedReference|CPF_RepSkip|CPF_PersistentInstance</text>
<text text-anchor="start" x="8" y="-1527.3" font-family="monospace" font-size="14.00">    ObjectProperty Basic_Menu_MinimalWindow</text>
<text text-anchor="start" x="8" y="-1512.3" font-family="monospace" font-size="14.00">      CPF_BlueprintVisible|CPF_ExportObject|CPF_InstancedReference|CPF_RepSkip|CPF_PersistentInstance</text>
<text text-anchor="start" x="8" y="-1497.3" font-family="monospace" font-size="14.00">    ObjectProperty BlurBackground</text>
<text text-anchor="start" x="8" y="-1482.3" font-family="monospace" font-size="14.00">      CPF_BlueprintVisible|CPF_ExportObject|CPF_InstancedReference|CPF_RepSkip|CPF_PersistentInstance</text>
<text text-anchor="start" x="8" y="-1467.3" font-family="monospace" font-size="14.00">    ObjectProperty UI_Forge_Schematic</text>
<text text-anchor="start" x="8" y="-1452.3" font-family="monospace" font-size="14.00">      CPF_BlueprintVisible|CPF_ExportObject|CPF_InstancedReference|CPF_RepSkip|CPF_PersistentInstance</text>
<text text-anchor="start" x="8" y="-1437.3" font-family="monospace" font-size="14.00">    ObjectProperty Reward</text>
<text text-anchor="start" x="8" y="-1422.3" font-family="monospace" font-size="14.00">      CPF_Edit|CPF_BlueprintVisible|CPF_DisableEditOnInstance</text>
</g>
<!-- ExecuteUbergraph_WND_PendingMachineEventReward -->
<g id="node2" class="node">
<title>ExecuteUbergraph_WND_PendingMachineEventReward</title>
<polygon fill="#ff8888" stroke="black" points="868.5,-1497 868.5,-1595 1363.5,-1595 1363.5,-1497 868.5,-1497"/>
<text text-anchor="start" x="876.5" y="-1579.8" font-family="monospace" font-size="14.00">Function ExecuteUbergraph_WND_PendingMachineEventReward</text>
<text text-anchor="start" x="876.5" y="-1564.8" font-family="monospace" font-size="14.00">  IntProperty EntryPoint</text>
<text text-anchor="start" x="876.5" y="-1549.8" font-family="monospace" font-size="14.00">    CPF_BlueprintVisible|CPF_BlueprintReadOnly|CPF_Parm</text>
<text text-anchor="start" x="876.5" y="-1534.8" font-family="monospace" font-size="14.00">  ObjectProperty CallFunc_TryGivePendingReward_ReturnValue</text>
<text text-anchor="start" x="876.5" y="-1519.8" font-family="monospace" font-size="14.00">  BoolProperty CallFunc_IsValid_ReturnValue</text>
<text text-anchor="start" x="876.5" y="-1504.8" font-family="monospace" font-size="14.00">  ObjectProperty CallFunc_PlayAnimation_ReturnValue</text>
</g>
<!-- ExecuteUbergraph_WND_PendingMachineEventReward__0 -->
<g id="node3" class="node">
<title>ExecuteUbergraph_WND_PendingMachineEventReward__0</title>
<polygon fill="#eeeeee" stroke="black" points="980,-1302.5 980,-1340.5 1252,-1340.5 1252,-1302.5 980,-1302.5"/>
<text text-anchor="start" x="988" y="-1325.3" font-family="monospace" font-size="14.00">EX_ComputedJump</text>
<text text-anchor="start" x="988" y="-1310.3" font-family="monospace" font-size="14.00">  EX_LocalVariable [EntryPoint]</text>
</g>
<!-- ExecuteUbergraph_WND_PendingMachineEventReward&#45;&gt;ExecuteUbergraph_WND_PendingMachineEventReward__0 -->
<g id="edge1" class="edge">
<title>ExecuteUbergraph_WND_PendingMachineEventReward&#45;&gt;ExecuteUbergraph_WND_PendingMachineEventReward__0</title>
<path fill="none" stroke="black" d="M1116,-1497.27C1116,-1453.1 1116,-1388.84 1116,-1351.8"/>
<polygon fill="black" stroke="black" points="1119.5,-1351.86 1116,-1341.86 1112.5,-1351.86 1119.5,-1351.86"/>
</g>
<!-- ExecuteUbergraph_WND_PendingMachineEventReward__10 -->
<g id="node4" class="node">
<title>ExecuteUbergraph_WND_PendingMachineEventReward__10</title>
<polygon fill="#eeeeee" stroke="black" points="3464.5,-898.5 3464.5,-1086.5 4223.5,-1086.5 4223.5,-898.5 3464.5,-898.5"/>
<text text-anchor="start" x="3472.5" y="-1071.3" font-family="monospace" font-size="14.00">EX_Context</text>
<text text-anchor="start" x="3472.5" y="-1056.3" font-family="monospace" font-size="14.00">  EX_ObjectConst import /Script/Engine&#45;&gt;Default__GameplayStatics</text>
<text text-anchor="start" x="3472.5" y="-1041.3" font-family="monospace" font-size="14.00">  EX_FinalFunction import /Script/Engine&#45;&gt;GameplayStatics&#45;&gt;PlaySound2D</text>
<text text-anchor="start" x="3472.5" y="-1026.3" font-family="monospace" font-size="14.00">    EX_Self</text>
<text text-anchor="start" x="3472.5" y="-1011.3" font-family="monospace" font-size="14.00">    EX_ObjectConst import /Game/Audio/SFX/UI/Menu/Button_RollOver_Cue&#45;&gt;Button_RollOver_Cue</text>
<text text-anchor="start" x="3472.5" y="-996.3" font-family="monospace" font-size="14.00">    EX_FloatConst 1</text>
<text text-anchor="start" x="3472.5" y="-981.3" font-family="monospace" font-size="14.00">    EX_FloatConst 1</text>
<text text-anchor="start" x="3472.5" y="-966.3" font-family="monospace" font-size="14.00">    EX_FloatConst 0</text>
<text text-anchor="start" x="3472.5" y="-951.3" font-family="monospace" font-size="14.00">    EX_NoObject</text>
<text text-anchor="start" x="3472.5" y="-936.3" font-family="monospace" font-size="14.00">    EX_NoObject</text>
<text text-anchor="start" x="3472.5" y="-921.3" font-family="monospace" font-size="14.00">    EX_True</text>
<text text-anchor="start" x="3472.5" y="-906.3" font-family="monospace" font-size="14.00">  RValue = []</text>
</g>
<!-- ExecuteUbergraph_WND_PendingMachineEventReward__70 -->
<g id="node5" class="node">
<title>ExecuteUbergraph_WND_PendingMachineEventReward__70</title>
<polygon fill="#eeeeee" stroke="black" points="3443.5,-581.5 3443.5,-617.5 3550.5,-617.5 3550.5,-581.5 3443.5,-581.5"/>
<text text-anchor="start" x="3451.5" y="-595.8" font-family="monospace" font-size="14.00">EX_Jump 355</text>
</g>
<!-- ExecuteUbergraph_WND_PendingMachineEventReward__10&#45;&gt;ExecuteUbergraph_WND_PendingMachineEventReward__70 -->
<g id="edge2" class="edge">
<title>ExecuteUbergraph_WND_PendingMachineEventReward__10&#45;&gt;ExecuteUbergraph_WND_PendingMachineEventReward__70</title>
<path fill="none" stroke="black" d="M3699.02,-898.74C3692.03,-892.67 3685.3,-886.41 3679,-880 3600.17,-799.81 3536.21,-680.46 3509.92,-627.49"/>
<polygon fill="black" stroke="black" points="3513.1,-626.03 3505.56,-618.59 3506.82,-629.11 3513.1,-626.03"/>
</g>
<!-- ExecuteUbergraph_WND_PendingMachineEventReward__355 -->
<g id="node20" class="node">
<title>ExecuteUbergraph_WND_PendingMachineEventReward__355</title>
<polygon fill="#eeeeee" stroke="black" points="3006,-0.5 3006,-38.5 3122,-38.5 3122,-0.5 3006,-0.5"/>
<text text-anchor="start" x="3014" y="-23.3" font-family="monospace" font-size="14.00">EX_Return</text>
<text text-anchor="start" x="3014" y="-8.3" font-family="monospace" font-size="14.00">  EX_Nothing</text>
</g>
<!-- ExecuteUbergraph_WND_PendingMachineEventReward__70&#45;&gt;ExecuteUbergraph_WND_PendingMachineEventReward__355 -->
<g id="edge3" class="edge">
<title>ExecuteUbergraph_WND_PendingMachineEventReward__70&#45;&gt;ExecuteUbergraph_WND_PendingMachineEventReward__355</title>
<path fill="none" stroke="black" d="M3443.7,-587C3394.83,-572.95 3330,-543.87 3330,-488.5 3330,-488.5 3330,-488.5 3330,-93.5 3330,-52.65 3211.86,-33.83 3133.04,-25.81"/>
<polygon fill="black" stroke="black" points="3133.52,-22.34 3123.22,-24.85 3132.84,-29.31 3133.52,-22.34"/>
</g>
<!-- ExecuteUbergraph_WND_PendingMachineEventReward__75 -->
<g id="node6" class="node">
<title>ExecuteUbergraph_WND_PendingMachineEventReward__75</title>
<polygon fill="#eeeeee" stroke="black" points="1826,-1160.5 1826,-1228.5 2536,-1228.5 2536,-1160.5 1826,-1160.5"/>
<text text-anchor="start" x="1834" y="-1213.3" font-family="monospace" font-size="14.00">EX_LetObj</text>
<text text-anchor="start" x="1834" y="-1198.3" font-family="monospace" font-size="14.00">  EX_LocalVariable [CallFunc_TryGivePendingReward_ReturnValue]</text>
<text text-anchor="start" x="1834" y="-1183.3" font-family="monospace" font-size="14.00">  EX_CallMath import /Script/FSD&#45;&gt;SpecialEventBlueprintLibrary&#45;&gt;TryGivePendingReward</text>
<text text-anchor="start" x="1834" y="-1168.3" font-family="monospace" font-size="14.00">    EX_Self</text>
</g>
<!-- ExecuteUbergraph_WND_PendingMachineEventReward__96 -->
<g id="node7" class="node">
<title>ExecuteUbergraph_WND_PendingMachineEventReward__96</title>
<polygon fill="#eeeeee" stroke="black" points="1930,-966 1930,-1019 2458,-1019 2458,-966 1930,-966"/>
<text text-anchor="start" x="1938" y="-1003.8" font-family="monospace" font-size="14.00">EX_LetObj</text>
<text text-anchor="start" x="1938" y="-988.8" font-family="monospace" font-size="14.00">  EX_InstanceVariable [Reward]</text>
<text text-anchor="start" x="1938" y="-973.8" font-family="monospace" font-size="14.00">  EX_LocalVariable [CallFunc_TryGivePendingReward_ReturnValue]</text>
</g>
<!-- ExecuteUbergraph_WND_PendingMachineEventReward__75&#45;&gt;ExecuteUbergraph_WND_PendingMachineEventReward__96 -->
<g id="edge4" class="edge">
<title>ExecuteUbergraph_WND_PendingMachineEventReward__75&#45;&gt;ExecuteUbergraph_WND_PendingMachineEventReward__96</title>
<path fill="none" stroke="black" d="M2183.12,-1160.92C2185.45,-1125.06 2189.19,-1067.56 2191.62,-1030.16"/>
<polygon fill="black" stroke="black" points="2195.1,-1030.49 2192.26,-1020.28 2188.12,-1030.03 2195.1,-1030.49"/>
</g>
<!-- ExecuteUbergraph_WND_PendingMachineEventReward__115 -->
<g id="node8" class="node">
<title>ExecuteUbergraph_WND_PendingMachineEventReward__115</title>
<polygon fill="#eeeeee" stroke="black" points="1968.5,-696.5 1968.5,-764.5 2521.5,-764.5 2521.5,-696.5 1968.5,-696.5"/>
<text text-anchor="start" x="1976.5" y="-749.3" font-family="monospace" font-size="14.00">EX_LetBool</text>
<text text-anchor="start" x="1976.5" y="-734.3" font-family="monospace" font-size="14.00">  EX_LocalVariable [CallFunc_IsValid_ReturnValue]</text>
<text text-anchor="start" x="1976.5" y="-719.3" font-family="monospace" font-size="14.00">  EX_CallMath import /Script/Engine&#45;&gt;KismetSystemLibrary&#45;&gt;IsValid</text>
<text text-anchor="start" x="1976.5" y="-704.3" font-family="monospace" font-size="14.00">    EX_InstanceVariable [Reward]</text>
</g>
<!-- ExecuteUbergraph_WND_PendingMachineEventReward__96&#45;&gt;ExecuteUbergraph_WND_PendingMachineEventReward__115 -->
<g id="edge5" class="edge">
<title>ExecuteUbergraph_WND_PendingMachineEventReward__96&#45;&gt;ExecuteUbergraph_WND_PendingMachineEventReward__115</title>
<path fill="none" stroke="black" d="M2198.98,-966.1C2207.66,-921.84 2225.66,-830.1 2236.39,-775.38"/>
<polygon fill="black" stroke="black" points="2239.79,-776.26 2238.28,-765.78 2232.92,-774.91 2239.79,-776.26"/>
</g>
<!-- ExecuteUbergraph_WND_PendingMachineEventReward__144 -->
<g id="node9" class="node">
<title>ExecuteUbergraph_WND_PendingMachineEventReward__144</title>
<polygon fill="#eeeeee" stroke="black" points="2104.5,-524.5 2104.5,-562.5 2525.5,-562.5 2525.5,-524.5 2104.5,-524.5"/>
<text text-anchor="start" x="2112.5" y="-547.3" font-family="monospace" font-size="14.00">EX_JumpIfNot 255</text>
<text text-anchor="start" x="2112.5" y="-532.3" font-family="monospace" font-size="14.00">  EX_LocalVariable [CallFunc_IsValid_ReturnValue]</text>
</g>
<!-- ExecuteUbergraph_WND_PendingMachineEventReward__115&#45;&gt;ExecuteUbergraph_WND_PendingMachineEventReward__144 -->
<g id="edge6" class="edge">
<title>ExecuteUbergraph_WND_PendingMachineEventReward__115&#45;&gt;ExecuteUbergraph_WND_PendingMachineEventReward__144</title>
<path fill="none" stroke="black" d="M2257.35,-696.85C2270.68,-661.62 2291.69,-606.1 2304.33,-572.7"/>
<polygon fill="black" stroke="black" points="2307.47,-574.29 2307.73,-563.7 2300.92,-571.82 2307.47,-574.29"/>
</g>
<!-- ExecuteUbergraph_WND_PendingMachineEventReward__158 -->
<g id="node10" class="node">
<title>ExecuteUbergraph_WND_PendingMachineEventReward__158</title>
<polygon fill="#eeeeee" stroke="black" points="2133.5,-367.5 2133.5,-450.5 2496.5,-450.5 2496.5,-367.5 2133.5,-367.5"/>
<text text-anchor="start" x="2141.5" y="-435.3" font-family="monospace" font-size="14.00">EX_Context</text>
<text text-anchor="start" x="2141.5" y="-420.3" font-family="monospace" font-size="14.00">  EX_InstanceVariable [UI_Forge_Schematic]</text>
<text text-anchor="start" x="2141.5" y="-405.3" font-family="monospace" font-size="14.00">  EX_LocalVirtualFunction SetSchematic</text>
<text text-anchor="start" x="2141.5" y="-390.3" font-family="monospace" font-size="14.00">    EX_InstanceVariable [Reward]</text>
<text text-anchor="start" x="2141.5" y="-375.3" font-family="monospace" font-size="14.00">  RValue = []</text>
</g>
<!-- ExecuteUbergraph_WND_PendingMachineEventReward__144&#45;&gt;ExecuteUbergraph_WND_PendingMachineEventReward__158 -->
<g id="edge8" class="edge">
<title>ExecuteUbergraph_WND_PendingMachineEventReward__144&#45;&gt;ExecuteUbergraph_WND_PendingMachineEventReward__158</title>
<path fill="none" stroke="black" d="M2315,-524.63C2315,-508.51 2315,-483.98 2315,-461.75"/>
<polygon fill="black" stroke="black" points="2318.5,-461.9 2315,-451.9 2311.5,-461.9 2318.5,-461.9"/>
<text text-anchor="middle" x="2323.5" y="-483.8" font-family="monospace" font-size="14.00">IF</text>
</g>
<!-- ExecuteUbergraph_WND_PendingMachineEventReward__255 -->
<g id="node13" class="node">
<title>ExecuteUbergraph_WND_PendingMachineEventReward__255</title>
<polygon fill="#eeeeee" stroke="black" points="2514.5,-391 2514.5,-427 3075.5,-427 3075.5,-391 2514.5,-391"/>
<text text-anchor="start" x="2522.5" y="-405.3" font-family="monospace" font-size="14.00">EX_FinalFunction import /Script/FSD&#45;&gt;WindowWidget&#45;&gt;CloseThisWindow</text>
</g>
<!-- ExecuteUbergraph_WND_PendingMachineEventReward__144&#45;&gt;ExecuteUbergraph_WND_PendingMachineEventReward__255 -->
<g id="edge7" class="edge">
<title>ExecuteUbergraph_WND_PendingMachineEventReward__144:e&#45;&gt;ExecuteUbergraph_WND_PendingMachineEventReward__255</title>
<path fill="none" stroke="red" d="M2527,-543.5C2623.98,-543.5 2721.94,-472.6 2767.95,-434.14"/>
<polygon fill="none" stroke="red" points="2769.94,-437.04 2775.29,-427.89 2765.41,-431.71 2769.94,-437.04"/>
<text text-anchor="middle" x="2742" y="-483.8" font-family="monospace" font-size="14.00">IF NOT</text>
</g>
<!-- ExecuteUbergraph_WND_PendingMachineEventReward__203 -->
<g id="node11" class="node">
<title>ExecuteUbergraph_WND_PendingMachineEventReward__203</title>
<polygon fill="#eeeeee" stroke="black" points="2278.5,-186.5 2278.5,-329.5 2823.5,-329.5 2823.5,-186.5 2278.5,-186.5"/>
<text text-anchor="start" x="2286.5" y="-314.3" font-family="monospace" font-size="14.00">EX_LetObj</text>
<text text-anchor="start" x="2286.5" y="-299.3" font-family="monospace" font-size="14.00">  EX_LocalVariable [CallFunc_PlayAnimation_ReturnValue]</text>
<text text-anchor="start" x="2286.5" y="-284.3" font-family="monospace" font-size="14.00">  EX_FinalFunction import /Script/UMG&#45;&gt;UserWidget&#45;&gt;PlayAnimation</text>
<text text-anchor="start" x="2286.5" y="-269.3" font-family="monospace" font-size="14.00">    EX_InstanceVariable [AnimFadeIn]</text>
<text text-anchor="start" x="2286.5" y="-254.3" font-family="monospace" font-size="14.00">    EX_FloatConst 0</text>
<text text-anchor="start" x="2286.5" y="-239.3" font-family="monospace" font-size="14.00">    EX_IntConst 1</text>
<text text-anchor="start" x="2286.5" y="-224.3" font-family="monospace" font-size="14.00">    EX_ByteConst 0</text>
<text text-anchor="start" x="2286.5" y="-209.3" font-family="monospace" font-size="14.00">    EX_FloatConst 1</text>
<text text-anchor="start" x="2286.5" y="-194.3" font-family="monospace" font-size="14.00">    EX_False</text>
</g>
<!-- ExecuteUbergraph_WND_PendingMachineEventReward__158&#45;&gt;ExecuteUbergraph_WND_PendingMachineEventReward__203 -->
<g id="edge9" class="edge">
<title>ExecuteUbergraph_WND_PendingMachineEventReward__158&#45;&gt;ExecuteUbergraph_WND_PendingMachineEventReward__203</title>
<path fill="none" stroke="black" d="M2378.86,-367.68C2394.79,-357.62 2412.4,-346.51 2430.09,-335.34"/>
<polygon fill="black" stroke="black" points="2431.47,-338.6 2438.06,-330.31 2427.74,-332.68 2431.47,-338.6"/>
</g>
<!-- ExecuteUbergraph_WND_PendingMachineEventReward__250 -->
<g id="node12" class="node">
<title>ExecuteUbergraph_WND_PendingMachineEventReward__250</title>
<polygon fill="#eeeeee" stroke="black" points="2701.5,-76.5 2701.5,-112.5 2808.5,-112.5 2808.5,-76.5 2701.5,-76.5"/>
<text text-anchor="start" x="2709.5" y="-90.8" font-family="monospace" font-size="14.00">EX_Jump 355</text>
</g>
<!-- ExecuteUbergraph_WND_PendingMachineEventReward__203&#45;&gt;ExecuteUbergraph_WND_PendingMachineEventReward__250 -->
<g id="edge10" class="edge">
<title>ExecuteUbergraph_WND_PendingMachineEventReward__203&#45;&gt;ExecuteUbergraph_WND_PendingMachineEventReward__250</title>
<path fill="none" stroke="black" d="M2639.88,-186.63C2670.46,-162.43 2702.63,-136.96 2725.17,-119.12"/>
<polygon fill="black" stroke="black" points="2727.05,-122.09 2732.72,-113.14 2722.71,-116.6 2727.05,-122.09"/>
</g>
<!-- ExecuteUbergraph_WND_PendingMachineEventReward__250&#45;&gt;ExecuteUbergraph_WND_PendingMachineEventReward__355 -->
<g id="edge11" class="edge">
<title>ExecuteUbergraph_WND_PendingMachineEventReward__250&#45;&gt;ExecuteUbergraph_WND_PendingMachineEventReward__355</title>
<path fill="none" stroke="black" d="M2808.47,-80.87C2860.21,-68.64 2938.87,-50.06 2995.24,-36.74"/>
<polygon fill="black" stroke="black" points="2995.8,-40.21 3004.73,-34.5 2994.19,-33.4 2995.8,-40.21"/>
</g>
<!-- ExecuteUbergraph_WND_PendingMachineEventReward__265 -->
<g id="node14" class="node">
<title>ExecuteUbergraph_WND_PendingMachineEventReward__265</title>
<polygon fill="#eeeeee" stroke="black" points="2929.5,-131.5 2929.5,-167.5 3036.5,-167.5 3036.5,-131.5 2929.5,-131.5"/>
<text text-anchor="start" x="2937.5" y="-145.8" font-family="monospace" font-size="14.00">EX_Jump 355</text>
</g>
<!-- ExecuteUbergraph_WND_PendingMachineEventReward__255&#45;&gt;ExecuteUbergraph_WND_PendingMachineEventReward__265 -->
<g id="edge12" class="edge">
<title>ExecuteUbergraph_WND_PendingMachineEventReward__255&#45;&gt;ExecuteUbergraph_WND_PendingMachineEventReward__265</title>
<path fill="none" stroke="black" d="M2807.34,-391.1C2839.4,-347.18 2925.57,-229.17 2964.02,-176.5"/>
<polygon fill="black" stroke="black" points="2966.66,-178.82 2969.73,-168.68 2961,-174.69 2966.66,-178.82"/>
</g>
<!-- ExecuteUbergraph_WND_PendingMachineEventReward__265&#45;&gt;ExecuteUbergraph_WND_PendingMachineEventReward__355 -->
<g id="edge13" class="edge">
<title>ExecuteUbergraph_WND_PendingMachineEventReward__265&#45;&gt;ExecuteUbergraph_WND_PendingMachineEventReward__355</title>
<path fill="none" stroke="black" d="M2993.76,-131.5C3007.28,-110.13 3030.67,-73.17 3046.72,-47.81"/>
<polygon fill="black" stroke="black" points="3049.48,-49.99 3051.87,-39.67 3043.56,-46.25 3049.48,-49.99"/>
</g>
<!-- ExecuteUbergraph_WND_PendingMachineEventReward__270 -->
<g id="node15" class="node">
<title>ExecuteUbergraph_WND_PendingMachineEventReward__270</title>
<polygon fill="#eeeeee" stroke="black" points="2823.5,-974.5 2823.5,-1010.5 3384.5,-1010.5 3384.5,-974.5 2823.5,-974.5"/>
<text text-anchor="start" x="2831.5" y="-988.8" font-family="monospace" font-size="14.00">EX_FinalFunction import /Script/FSD&#45;&gt;WindowWidget&#45;&gt;CloseThisWindow</text>
</g>
<!-- ExecuteUbergraph_WND_PendingMachineEventReward__280 -->
<g id="node16" class="node">
<title>ExecuteUbergraph_WND_PendingMachineEventReward__280</title>
<polygon fill="#eeeeee" stroke="black" points="2749,-636.5 2749,-824.5 3459,-824.5 3459,-636.5 2749,-636.5"/>
<text text-anchor="start" x="2757" y="-809.3" font-family="monospace" font-size="14.00">EX_Context</text>
<text text-anchor="start" x="2757" y="-794.3" font-family="monospace" font-size="14.00">  EX_ObjectConst import /Script/Engine&#45;&gt;Default__GameplayStatics</text>
<text text-anchor="start" x="2757" y="-779.3" font-family="monospace" font-size="14.00">  EX_FinalFunction import /Script/Engine&#45;&gt;GameplayStatics&#45;&gt;PlaySound2D</text>
<text text-anchor="start" x="2757" y="-764.3" font-family="monospace" font-size="14.00">    EX_Self</text>
<text text-anchor="start" x="2757" y="-749.3" font-family="monospace" font-size="14.00">    EX_ObjectConst import /Game/Audio/SFX/UI/Menu/Button_Click_Cue&#45;&gt;Button_Click_Cue</text>
<text text-anchor="start" x="2757" y="-734.3" font-family="monospace" font-size="14.00">    EX_FloatConst 1</text>
<text text-anchor="start" x="2757" y="-719.3" font-family="monospace" font-size="14.00">    EX_FloatConst 1</text>
<text text-anchor="start" x="2757" y="-704.3" font-family="monospace" font-size="14.00">    EX_FloatConst 0</text>
<text text-anchor="start" x="2757" y="-689.3" font-family="monospace" font-size="14.00">    EX_NoObject</text>
<text text-anchor="start" x="2757" y="-674.3" font-family="monospace" font-size="14.00">    EX_NoObject</text>
<text text-anchor="start" x="2757" y="-659.3" font-family="monospace" font-size="14.00">    EX_True</text>
<text text-anchor="start" x="2757" y="-644.3" font-family="monospace" font-size="14.00">  RValue = []</text>
</g>
<!-- ExecuteUbergraph_WND_PendingMachineEventReward__270&#45;&gt;ExecuteUbergraph_WND_PendingMachineEventReward__280 -->
<g id="edge14" class="edge">
<title>ExecuteUbergraph_WND_PendingMachineEventReward__270&#45;&gt;ExecuteUbergraph_WND_PendingMachineEventReward__280</title>
<path fill="none" stroke="black" d="M3104,-974.84C3104,-946.91 3104,-888.52 3104,-835.93"/>
<polygon fill="black" stroke="black" points="3107.5,-835.98 3104,-825.98 3100.5,-835.98 3107.5,-835.98"/>
</g>
<!-- ExecuteUbergraph_WND_PendingMachineEventReward__340 -->
<g id="node17" class="node">
<title>ExecuteUbergraph_WND_PendingMachineEventReward__340</title>
<polygon fill="#eeeeee" stroke="black" points="3050.5,-469.5 3050.5,-505.5 3157.5,-505.5 3157.5,-469.5 3050.5,-469.5"/>
<text text-anchor="start" x="3058.5" y="-483.8" font-family="monospace" font-size="14.00">EX_Jump 355</text>
</g>
<!-- ExecuteUbergraph_WND_PendingMachineEventReward__280&#45;&gt;ExecuteUbergraph_WND_PendingMachineEventReward__340 -->
<g id="edge15" class="edge">
<title>ExecuteUbergraph_WND_PendingMachineEventReward__280&#45;&gt;ExecuteUbergraph_WND_PendingMachineEventReward__340</title>
<path fill="none" stroke="black" d="M3104,-636.67C3104,-593.97 3104,-546.37 3104,-516.93"/>
<polygon fill="black" stroke="black" points="3107.5,-517 3104,-507 3100.5,-517 3107.5,-517"/>
</g>
<!-- ExecuteUbergraph_WND_PendingMachineEventReward__340&#45;&gt;ExecuteUbergraph_WND_PendingMachineEventReward__355 -->
<g id="edge16" class="edge">
<title>ExecuteUbergraph_WND_PendingMachineEventReward__340&#45;&gt;ExecuteUbergraph_WND_PendingMachineEventReward__355</title>
<path fill="none" stroke="black" d="M3104,-469.57C3104,-443.61 3104,-392.45 3104,-349 3104,-349 3104,-349 3104,-93.5 3104,-76.92 3095.96,-60.53 3087.09,-47.5"/>
<polygon fill="black" stroke="black" points="3089.92,-45.43 3081.17,-39.46 3084.28,-49.59 3089.92,-45.43"/>
</g>
<!-- ExecuteUbergraph_WND_PendingMachineEventReward__345 -->
<g id="node18" class="node">
<title>ExecuteUbergraph_WND_PendingMachineEventReward__345</title>
<polygon fill="#eeeeee" stroke="black" points="3050.5,-1176.5 3050.5,-1212.5 3157.5,-1212.5 3157.5,-1176.5 3050.5,-1176.5"/>
<text text-anchor="start" x="3058.5" y="-1190.8" font-family="monospace" font-size="14.00">EX_Jump 270</text>
</g>
<!-- ExecuteUbergraph_WND_PendingMachineEventReward__345&#45;&gt;ExecuteUbergraph_WND_PendingMachineEventReward__270 -->
<g id="edge17" class="edge">
<title>ExecuteUbergraph_WND_PendingMachineEventReward__345&#45;&gt;ExecuteUbergraph_WND_PendingMachineEventReward__270</title>
<path fill="none" stroke="black" d="M3104,-1176.79C3104,-1142.53 3104,-1063.98 3104,-1021.69"/>
<polygon fill="black" stroke="black" points="3107.5,-1021.81 3104,-1011.81 3100.5,-1021.81 3107.5,-1021.81"/>
</g>
<!-- ExecuteUbergraph_WND_PendingMachineEventReward__350 -->
<g id="node19" class="node">
<title>ExecuteUbergraph_WND_PendingMachineEventReward__350</title>
<polygon fill="#eeeeee" stroke="black" points="3949.5,-1176.5 3949.5,-1212.5 4048.5,-1212.5 4048.5,-1176.5 3949.5,-1176.5"/>
<text text-anchor="start" x="3957.5" y="-1190.8" font-family="monospace" font-size="14.00">EX_Jump 10</text>
</g>
<!-- ExecuteUbergraph_WND_PendingMachineEventReward__350&#45;&gt;ExecuteUbergraph_WND_PendingMachineEventReward__10 -->
<g id="edge18" class="edge">
<title>ExecuteUbergraph_WND_PendingMachineEventReward__350&#45;&gt;ExecuteUbergraph_WND_PendingMachineEventReward__10</title>
<path fill="none" stroke="black" d="M3949.54,-1180.32C3928.27,-1172.37 3904.73,-1160.17 3889,-1142 3877.79,-1129.05 3869.37,-1113.38 3863.05,-1097.13"/>
<polygon fill="black" stroke="black" points="3866.38,-1096.04 3859.7,-1087.81 3859.79,-1098.41 3866.38,-1096.04"/>
</g>
<!-- ExecuteUbergraph_WND_PendingMachineEventReward__357 -->
<g id="node21" class="node">
<title>ExecuteUbergraph_WND_PendingMachineEventReward__357</title>
<polygon fill="#eeeeee" stroke="black" points="3591,-1359.5 3591,-1395.5 3723,-1395.5 3723,-1359.5 3591,-1359.5"/>
<text text-anchor="start" x="3599" y="-1373.8" font-family="monospace" font-size="14.00">EX_EndOfScript</text>
</g>
<!-- BndEvt__Basic_ButtonScalable2_K2Node_ComponentBoundEvent_2_OnHovered__DelegateSignature -->
<g id="node22" class="node">
<title>BndEvt__Basic_ButtonScalable2_K2Node_ComponentBoundEvent_2_OnHovered__DelegateSignature</title>
<polygon fill="#ff8888" stroke="black" points="3171.5,-1528 3171.5,-1564 3980.5,-1564 3980.5,-1528 3171.5,-1528"/>
<text text-anchor="start" x="3179.5" y="-1542.3" font-family="monospace" font-size="14.00">Function BndEvt__Basic_ButtonScalable2_K2Node_ComponentBoundEvent_2_OnHovered__DelegateSignature</text>
</g>
<!-- BndEvt__Basic_ButtonScalable2_K2Node_ComponentBoundEvent_2_OnHovered__DelegateSignature__0 -->
<g id="node23" class="node">
<title>BndEvt__Basic_ButtonScalable2_K2Node_ComponentBoundEvent_2_OnHovered__DelegateSignature__0</title>
<polygon fill="#eeeeee" stroke="black" points="3122,-1302.5 3122,-1340.5 4030,-1340.5 4030,-1302.5 3122,-1302.5"/>
<text text-anchor="start" x="3130" y="-1325.3" font-family="monospace" font-size="14.00">EX_LocalFinalFunction export WND_PendingMachineEventReward_C&#45;&gt;ExecuteUbergraph_WND_PendingMachineEventReward</text>
<text text-anchor="start" x="3130" y="-1310.3" font-family="monospace" font-size="14.00">  EX_IntConst 350</text>
</g>
<!-- BndEvt__Basic_ButtonScalable2_K2Node_ComponentBoundEvent_2_OnHovered__DelegateSignature&#45;&gt;BndEvt__Basic_ButtonScalable2_K2Node_ComponentBoundEvent_2_OnHovered__DelegateSignature__0 -->
<g id="edge19" class="edge">
<title>BndEvt__Basic_ButtonScalable2_K2Node_ComponentBoundEvent_2_OnHovered__DelegateSignature&#45;&gt;BndEvt__Basic_ButtonScalable2_K2Node_ComponentBoundEvent_2_OnHovered__DelegateSignature__0</title>
<path fill="none" stroke="black" d="M3576,-1528.28C3576,-1490.62 3576,-1398.81 3576,-1351.59"/>
<polygon fill="black" stroke="black" points="3579.5,-1351.86 3576,-1341.86 3572.5,-1351.86 3579.5,-1351.86"/>
</g>
<!-- BndEvt__Basic_ButtonScalable2_K2Node_ComponentBoundEvent_2_OnHovered__DelegateSignature__0&#45;&gt;ExecuteUbergraph_WND_PendingMachineEventReward__350 -->
<g id="edge20" class="edge">
<title>BndEvt__Basic_ButtonScalable2_K2Node_ComponentBoundEvent_2_OnHovered__DelegateSignature__0:e&#45;&gt;ExecuteUbergraph_WND_PendingMachineEventReward__350</title>
<path fill="none" stroke="red" d="M4031,-1321.5C4041.07,-1321.5 4021.53,-1260.22 4008.78,-1223.13"/>
<polygon fill="none" stroke="red" points="4012.17,-1222.22 4005.58,-1213.92 4005.56,-1224.52 4012.17,-1222.22"/>
</g>
<!-- BndEvt__Basic_ButtonScalable2_K2Node_ComponentBoundEvent_2_OnHovered__DelegateSignature__15 -->
<g id="node24" class="node">
<title>BndEvt__Basic_ButtonScalable2_K2Node_ComponentBoundEvent_2_OnHovered__DelegateSignature__15</title>
<polygon fill="#eeeeee" stroke="black" points="3518,-1175.5 3518,-1213.5 3634,-1213.5 3634,-1175.5 3518,-1175.5"/>
<text text-anchor="start" x="3526" y="-1198.3" font-family="monospace" font-size="14.00">EX_Return</text>
<text text-anchor="start" x="3526" y="-1183.3" font-family="monospace" font-size="14.00">  EX_Nothing</text>
</g>
<!-- BndEvt__Basic_ButtonScalable2_K2Node_ComponentBoundEvent_2_OnHovered__DelegateSignature__0&#45;&gt;BndEvt__Basic_ButtonScalable2_K2Node_ComponentBoundEvent_2_OnHovered__DelegateSignature__15 -->
<g id="edge21" class="edge">
<title>BndEvt__Basic_ButtonScalable2_K2Node_ComponentBoundEvent_2_OnHovered__DelegateSignature__0&#45;&gt;BndEvt__Basic_ButtonScalable2_K2Node_ComponentBoundEvent_2_OnHovered__DelegateSignature__15</title>
<path fill="none" stroke="black" d="M3576,-1302.59C3576,-1282.26 3576,-1248.8 3576,-1224.69"/>
<polygon fill="black" stroke="black" points="3579.5,-1224.89 3576,-1214.89 3572.5,-1224.89 3579.5,-1224.89"/>
</g>
<!-- BndEvt__Basic_ButtonScalable2_K2Node_ComponentBoundEvent_2_OnHovered__DelegateSignature__17 -->
<g id="node25" class="node">
<title>BndEvt__Basic_ButtonScalable2_K2Node_ComponentBoundEvent_2_OnHovered__DelegateSignature__17</title>
<polygon fill="#eeeeee" stroke="black" points="4029,-1247.5 4029,-1283.5 4161,-1283.5 4161,-1247.5 4029,-1247.5"/>
<text text-anchor="start" x="4037" y="-1261.8" font-family="monospace" font-size="14.00">EX_EndOfScript</text>
</g>
<!-- BndEvt__Basic_ButtonScalable2_K2Node_ComponentBoundEvent_1_OnClicked__DelegateSignature -->
<g id="node26" class="node">
<title>BndEvt__Basic_ButtonScalable2_K2Node_ComponentBoundEvent_1_OnClicked__DelegateSignature</title>
<polygon fill="#ff8888" stroke="black" points="2245.5,-1528 2245.5,-1564 3054.5,-1564 3054.5,-1528 2245.5,-1528"/>
<text text-anchor="start" x="2253.5" y="-1542.3" font-family="monospace" font-size="14.00">Function BndEvt__Basic_ButtonScalable2_K2Node_ComponentBoundEvent_1_OnClicked__DelegateSignature</text>
</g>
<!-- BndEvt__Basic_ButtonScalable2_K2Node_ComponentBoundEvent_1_OnClicked__DelegateSignature__0 -->
<g id="node27" class="node">
<title>BndEvt__Basic_ButtonScalable2_K2Node_ComponentBoundEvent_1_OnClicked__DelegateSignature__0</title>
<polygon fill="#eeeeee" stroke="black" points="2196,-1302.5 2196,-1340.5 3104,-1340.5 3104,-1302.5 2196,-1302.5"/>
<text text-anchor="start" x="2204" y="-1325.3" font-family="monospace" font-size="14.00">EX_LocalFinalFunction export WND_PendingMachineEventReward_C&#45;&gt;ExecuteUbergraph_WND_PendingMachineEventReward</text>
<text text-anchor="start" x="2204" y="-1310.3" font-family="monospace" font-size="14.00">  EX_IntConst 345</text>
</g>
<!-- BndEvt__Basic_ButtonScalable2_K2Node_ComponentBoundEvent_1_OnClicked__DelegateSignature&#45;&gt;BndEvt__Basic_ButtonScalable2_K2Node_ComponentBoundEvent_1_OnClicked__DelegateSignature__0 -->
<g id="edge22" class="edge">
<title>BndEvt__Basic_ButtonScalable2_K2Node_ComponentBoundEvent_1_OnClicked__DelegateSignature&#45;&gt;BndEvt__Basic_ButtonScalable2_K2Node_ComponentBoundEvent_1_OnClicked__DelegateSignature__0</title>
<path fill="none" stroke="black" d="M2650,-1528.28C2650,-1490.62 2650,-1398.81 2650,-1351.59"/>
<polygon fill="black" stroke="black" points="2653.5,-1351.86 2650,-1341.86 2646.5,-1351.86 2653.5,-1351.86"/>
</g>
<!-- BndEvt__Basic_ButtonScalable2_K2Node_ComponentBoundEvent_1_OnClicked__DelegateSignature__0&#45;&gt;ExecuteUbergraph_WND_PendingMachineEventReward__345 -->
<g id="edge23" class="edge">
<title>BndEvt__Basic_ButtonScalable2_K2Node_ComponentBoundEvent_1_OnClicked__DelegateSignature__0:e&#45;&gt;ExecuteUbergraph_WND_PendingMachineEventReward__345</title>
<path fill="none" stroke="red" d="M3105,-1321.5C3114.72,-1321.5 3110.46,-1260.75 3106.95,-1223.61"/>
<polygon fill="none" stroke="red" points="3110.46,-1223.61 3106,-1214 3103.5,-1224.29 3110.46,-1223.61"/>
</g>
<!-- BndEvt__Basic_ButtonScalable2_K2Node_ComponentBoundEvent_1_OnClicked__DelegateSignature__15 -->
<g id="node28" class="node">
<title>BndEvt__Basic_ButtonScalable2_K2Node_ComponentBoundEvent_1_OnClicked__DelegateSignature__15</title>
<polygon fill="#eeeeee" stroke="black" points="2592,-1175.5 2592,-1213.5 2708,-1213.5 2708,-1175.5 2592,-1175.5"/>
<text text-anchor="start" x="2600" y="-1198.3" font-family="monospace" font-size="14.00">EX_Return</text>
<text text-anchor="start" x="2600" y="-1183.3" font-family="monospace" font-size="14.00">  EX_Nothing</text>
</g>
<!-- BndEvt__Basic_ButtonScalable2_K2Node_ComponentBoundEvent_1_OnClicked__DelegateSignature__0&#45;&gt;BndEvt__Basic_ButtonScalable2_K2Node_ComponentBoundEvent_1_OnClicked__DelegateSignature__15 -->
<g id="edge24" class="edge">
<title>BndEvt__Basic_ButtonScalable2_K2Node_ComponentBoundEvent_1_OnClicked__DelegateSignature__0&#45;&gt;BndEvt__Basic_ButtonScalable2_K2Node_ComponentBoundEvent_1_OnClicked__DelegateSignature__15</title>
<path fill="none" stroke="black" d="M2650,-1302.59C2650,-1282.26 2650,-1248.8 2650,-1224.69"/>
<polygon fill="black" stroke="black" points="2653.5,-1224.89 2650,-1214.89 2646.5,-1224.89 2653.5,-1224.89"/>
</g>
<!-- BndEvt__Basic_ButtonScalable2_K2Node_ComponentBoundEvent_1_OnClicked__DelegateSignature__17 -->
<g id="node29" class="node">
<title>BndEvt__Basic_ButtonScalable2_K2Node_ComponentBoundEvent_1_OnClicked__DelegateSignature__17</title>
<polygon fill="#eeeeee" stroke="black" points="3890,-1105.5 3890,-1141.5 4022,-1141.5 4022,-1105.5 3890,-1105.5"/>
<text text-anchor="start" x="3898" y="-1119.8" font-family="monospace" font-size="14.00">EX_EndOfScript</text>
</g>
<!-- OnShown -->
<g id="node30" class="node">
<title>OnShown</title>
<polygon fill="#ff8888" stroke="black" points="1649.5,-1528 1649.5,-1564 1798.5,-1564 1798.5,-1528 1649.5,-1528"/>
<text text-anchor="start" x="1657.5" y="-1542.3" font-family="monospace" font-size="14.00">Function OnShown</text>
</g>
<!-- OnShown__0 -->
<g id="node31" class="node">
<title>OnShown__0</title>
<polygon fill="#eeeeee" stroke="black" points="1270,-1302.5 1270,-1340.5 2178,-1340.5 2178,-1302.5 1270,-1302.5"/>
<text text-anchor="start" x="1278" y="-1325.3" font-family="monospace" font-size="14.00">EX_LocalFinalFunction export WND_PendingMachineEventReward_C&#45;&gt;ExecuteUbergraph_WND_PendingMachineEventReward</text>
<text text-anchor="start" x="1278" y="-1310.3" font-family="monospace" font-size="14.00">  EX_IntConst 75</text>
</g>
<!-- OnShown&#45;&gt;OnShown__0 -->
<g id="edge25" class="edge">
<title>OnShown&#45;&gt;OnShown__0</title>
<path fill="none" stroke="black" d="M1724,-1528.28C1724,-1490.62 1724,-1398.81 1724,-1351.59"/>
<polygon fill="black" stroke="black" points="1727.5,-1351.86 1724,-1341.86 1720.5,-1351.86 1727.5,-1351.86"/>
</g>
<!-- OnShown__0&#45;&gt;ExecuteUbergraph_WND_PendingMachineEventReward__75 -->
<g id="edge26" class="edge">
<title>OnShown__0:e&#45;&gt;ExecuteUbergraph_WND_PendingMachineEventReward__75</title>
<path fill="none" stroke="red" d="M2179,-1321.5C2187.41,-1321.5 2186.44,-1275.99 2184.32,-1239.68"/>
<polygon fill="none" stroke="red" points="2187.82,-1239.55 2183.7,-1229.79 2180.83,-1239.99 2187.82,-1239.55"/>
</g>
<!-- OnShown__15 -->
<g id="node32" class="node">
<title>OnShown__15</title>
<polygon fill="#eeeeee" stroke="black" points="1666,-1175.5 1666,-1213.5 1782,-1213.5 1782,-1175.5 1666,-1175.5"/>
<text text-anchor="start" x="1674" y="-1198.3" font-family="monospace" font-size="14.00">EX_Return</text>
<text text-anchor="start" x="1674" y="-1183.3" font-family="monospace" font-size="14.00">  EX_Nothing</text>
</g>
<!-- OnShown__0&#45;&gt;OnShown__15 -->
<g id="edge27" class="edge">
<title>OnShown__0&#45;&gt;OnShown__15</title>
<path fill="none" stroke="black" d="M1724,-1302.59C1724,-1282.26 1724,-1248.8 1724,-1224.69"/>
<polygon fill="black" stroke="black" points="1727.5,-1224.89 1724,-1214.89 1720.5,-1224.89 1727.5,-1224.89"/>
</g>
<!-- OnShown__17 -->
<g id="node33" class="node">
<title>OnShown__17</title>
<polygon fill="#eeeeee" stroke="black" points="3680,-843.5 3680,-879.5 3812,-879.5 3812,-843.5 3680,-843.5"/>
<text text-anchor="start" x="3688" y="-857.8" font-family="monospace" font-size="14.00">EX_EndOfScript</text>
</g>
</g>
</svg>
