<?xml version="1.0" encoding="UTF-8" standalone="no"?>
<!DOCTYPE svg PUBLIC "-//W3C//DTD SVG 1.1//EN"
 "http://www.w3.org/Graphics/SVG/1.1/DTD/svg11.dtd">
<!-- Generated by graphviz version 7.0.1 (0)
 -->
<!-- Pages: 1 -->
<svg width="2255pt" height="1041pt"
 viewBox="0.00 0.00 2255.00 1041.00" xmlns="http://www.w3.org/2000/svg" xmlns:xlink="http://www.w3.org/1999/xlink">
<g id="graph0" class="graph" transform="scale(1 1) rotate(0) translate(4 1037)">
<polygon fill="white" stroke="none" points="-4,4 -4,-1037 2251,-1037 2251,4 -4,4"/>
<!-- BP_DeathStats_C -->
<g id="node1" class="node">
<title>BP_DeathStats_C</title>
<polygon fill="#88ff88" stroke="black" points="0,-859.5 0,-1032.5 594,-1032.5 594,-859.5 0,-859.5"/>
<text text-anchor="start" x="8" y="-1017.3" font-family="monospace" font-size="14.00">ClassExport: BP_DeathStats_C</text>
<text text-anchor="start" x="8" y="-1002.3" font-family="monospace" font-size="14.00">  SuperStruct: import /Script/Engine&#45;&gt;Actor</text>
<text text-anchor="start" x="8" y="-987.3" font-family="monospace" font-size="14.00">  Properties:</text>
<text text-anchor="start" x="8" y="-972.3" font-family="monospace" font-size="14.00">    StructProperty UberGraphFrame</text>
<text text-anchor="start" x="8" y="-957.3" font-family="monospace" font-size="14.00">      CPF_Transient|CPF_DuplicateTransient</text>
<text text-anchor="start" x="8" y="-942.3" font-family="monospace" font-size="14.00">    ObjectProperty Cube</text>
<text text-anchor="start" x="8" y="-927.3" font-family="monospace" font-size="14.00">      CPF_BlueprintVisible|CPF_InstancedReference|CPF_NonTransactional</text>
<text text-anchor="start" x="8" y="-912.3" font-family="monospace" font-size="14.00">    ObjectProperty Widget</text>
<text text-anchor="start" x="8" y="-897.3" font-family="monospace" font-size="14.00">      CPF_BlueprintVisible|CPF_InstancedReference|CPF_NonTransactional</text>
<text text-anchor="start" x="8" y="-882.3" font-family="monospace" font-size="14.00">    ObjectProperty DefaultSceneRoot</text>
<text text-anchor="start" x="8" y="-867.3" font-family="monospace" font-size="14.00">      CPF_BlueprintVisible|CPF_InstancedReference|CPF_NonTransactional</text>
</g>
<!-- ExecuteUbergraph_BP_DeathStats -->
<g id="node2" class="node">
<title>ExecuteUbergraph_BP_DeathStats</title>
<polygon fill="#ff8888" stroke="black" points="612.5,-874.5 612.5,-1017.5 1157.5,-1017.5 1157.5,-874.5 612.5,-874.5"/>
<text text-anchor="start" x="620.5" y="-1002.3" font-family="monospace" font-size="14.00">Function ExecuteUbergraph_BP_DeathStats</text>
<text text-anchor="start" x="620.5" y="-987.3" font-family="monospace" font-size="14.00">  IntProperty EntryPoint</text>
<text text-anchor="start" x="620.5" y="-972.3" font-family="monospace" font-size="14.00">    CPF_BlueprintVisible|CPF_BlueprintReadOnly|CPF_Parm</text>
<text text-anchor="start" x="620.5" y="-957.3" font-family="monospace" font-size="14.00">  ObjectProperty K2Node_CustomEvent_Player_State</text>
<text text-anchor="start" x="620.5" y="-942.3" font-family="monospace" font-size="14.00">  ObjectProperty CallFunc_GetUserWidgetObject_ReturnValue</text>
<text text-anchor="start" x="620.5" y="-927.3" font-family="monospace" font-size="14.00">    CPF_InstancedReference</text>
<text text-anchor="start" x="620.5" y="-912.3" font-family="monospace" font-size="14.00">  ObjectProperty K2Node_DynamicCast_AsConsole_Screen_Death_Stats</text>
<text text-anchor="start" x="620.5" y="-897.3" font-family="monospace" font-size="14.00">    CPF_InstancedReference</text>
<text text-anchor="start" x="620.5" y="-882.3" font-family="monospace" font-size="14.00">  BoolProperty K2Node_DynamicCast_bSuccess</text>
</g>
<!-- ExecuteUbergraph_BP_DeathStats__0 -->
<g id="node3" class="node">
<title>ExecuteUbergraph_BP_DeathStats__0</title>
<polygon fill="#eeeeee" stroke="black" points="749,-747.5 749,-785.5 1021,-785.5 1021,-747.5 749,-747.5"/>
<text text-anchor="start" x="757" y="-770.3" font-family="monospace" font-size="14.00">EX_ComputedJump</text>
<text text-anchor="start" x="757" y="-755.3" font-family="monospace" font-size="14.00">  EX_LocalVariable [EntryPoint]</text>
</g>
<!-- ExecuteUbergraph_BP_DeathStats&#45;&gt;ExecuteUbergraph_BP_DeathStats__0 -->
<g id="edge1" class="edge">
<title>ExecuteUbergraph_BP_DeathStats&#45;&gt;ExecuteUbergraph_BP_DeathStats__0</title>
<path fill="none" stroke="black" d="M885,-874.59C885,-847.41 885,-817.82 885,-796.65"/>
<polygon fill="black" stroke="black" points="888.5,-796.75 885,-786.75 881.5,-796.75 888.5,-796.75"/>
</g>
<!-- ExecuteUbergraph_BP_DeathStats__10 -->
<g id="node4" class="node">
<title>ExecuteUbergraph_BP_DeathStats__10</title>
<polygon fill="#eeeeee" stroke="black" points="1467,-499.5 1467,-597.5 2119,-597.5 2119,-499.5 1467,-499.5"/>
<text text-anchor="start" x="1475" y="-582.3" font-family="monospace" font-size="14.00">EX_LetObj</text>
<text text-anchor="start" x="1475" y="-567.3" font-family="monospace" font-size="14.00">  EX_LocalVariable [CallFunc_GetUserWidgetObject_ReturnValue]</text>
<text text-anchor="start" x="1475" y="-552.3" font-family="monospace" font-size="14.00">  EX_Context</text>
<text text-anchor="start" x="1475" y="-537.3" font-family="monospace" font-size="14.00">    EX_InstanceVariable [Widget]</text>
<text text-anchor="start" x="1475" y="-522.3" font-family="monospace" font-size="14.00">    EX_FinalFunction import /Script/UMG&#45;&gt;WidgetComponent&#45;&gt;GetUserWidgetObject</text>
<text text-anchor="start" x="1475" y="-507.3" font-family="monospace" font-size="14.00">    RValue = [CallFunc_GetUserWidgetObject_ReturnValue]</text>
</g>
<!-- ExecuteUbergraph_BP_DeathStats__52 -->
<g id="node5" class="node">
<title>ExecuteUbergraph_BP_DeathStats__52</title>
<polygon fill="#eeeeee" stroke="black" points="1339,-393.5 1339,-461.5 2247,-461.5 2247,-393.5 1339,-393.5"/>
<text text-anchor="start" x="1347" y="-446.3" font-family="monospace" font-size="14.00">EX_Let</text>
<text text-anchor="start" x="1347" y="-431.3" font-family="monospace" font-size="14.00">  EX_LocalVariable [K2Node_DynamicCast_AsConsole_Screen_Death_Stats]</text>
<text text-anchor="start" x="1347" y="-416.3" font-family="monospace" font-size="14.00">  EX_DynamicCast import /Game/UI/HUD_SpaceRig/Infirmary/ConsoleScreen_DeathStats&#45;&gt;ConsoleScreen_DeathStats_C</text>
<text text-anchor="start" x="1347" y="-401.3" font-family="monospace" font-size="14.00">    EX_LocalVariable [CallFunc_GetUserWidgetObject_ReturnValue]</text>
</g>
<!-- ExecuteUbergraph_BP_DeathStats__10&#45;&gt;ExecuteUbergraph_BP_DeathStats__52 -->
<g id="edge2" class="edge">
<title>ExecuteUbergraph_BP_DeathStats__10&#45;&gt;ExecuteUbergraph_BP_DeathStats__52</title>
<path fill="none" stroke="black" d="M1793,-499.78C1793,-490.79 1793,-481.43 1793,-472.55"/>
<polygon fill="black" stroke="black" points="1796.5,-472.76 1793,-462.76 1789.5,-472.76 1796.5,-472.76"/>
</g>
<!-- ExecuteUbergraph_BP_DeathStats__88 -->
<g id="node6" class="node">
<title>ExecuteUbergraph_BP_DeathStats__88</title>
<polygon fill="#eeeeee" stroke="black" points="1496,-287.5 1496,-355.5 2090,-355.5 2090,-287.5 1496,-287.5"/>
<text text-anchor="start" x="1504" y="-340.3" font-family="monospace" font-size="14.00">EX_Let</text>
<text text-anchor="start" x="1504" y="-325.3" font-family="monospace" font-size="14.00">  EX_LocalVariable [K2Node_DynamicCast_bSuccess]</text>
<text text-anchor="start" x="1504" y="-310.3" font-family="monospace" font-size="14.00">  EX_PrimitiveCast ObjectToBool</text>
<text text-anchor="start" x="1504" y="-295.3" font-family="monospace" font-size="14.00">    EX_LocalVariable [K2Node_DynamicCast_AsConsole_Screen_Death_Stats]</text>
</g>
<!-- ExecuteUbergraph_BP_DeathStats__52&#45;&gt;ExecuteUbergraph_BP_DeathStats__88 -->
<g id="edge3" class="edge">
<title>ExecuteUbergraph_BP_DeathStats__52&#45;&gt;ExecuteUbergraph_BP_DeathStats__88</title>
<path fill="none" stroke="black" d="M1793,-393.59C1793,-384.97 1793,-375.54 1793,-366.45"/>
<polygon fill="black" stroke="black" points="1796.5,-366.71 1793,-356.71 1789.5,-366.71 1796.5,-366.71"/>
</g>
<!-- ExecuteUbergraph_BP_DeathStats__117 -->
<g id="node7" class="node">
<title>ExecuteUbergraph_BP_DeathStats__117</title>
<polygon fill="#eeeeee" stroke="black" points="1586.5,-211.5 1586.5,-249.5 1999.5,-249.5 1999.5,-211.5 1586.5,-211.5"/>
<text text-anchor="start" x="1594.5" y="-234.3" font-family="monospace" font-size="14.00">EX_JumpIfNot 176</text>
<text text-anchor="start" x="1594.5" y="-219.3" font-family="monospace" font-size="14.00">  EX_LocalVariable [K2Node_DynamicCast_bSuccess]</text>
</g>
<!-- ExecuteUbergraph_BP_DeathStats__88&#45;&gt;ExecuteUbergraph_BP_DeathStats__117 -->
<g id="edge4" class="edge">
<title>ExecuteUbergraph_BP_DeathStats__88&#45;&gt;ExecuteUbergraph_BP_DeathStats__117</title>
<path fill="none" stroke="black" d="M1793,-287.61C1793,-278.79 1793,-269.32 1793,-260.72"/>
<polygon fill="black" stroke="black" points="1796.5,-260.8 1793,-250.8 1789.5,-260.8 1796.5,-260.8"/>
</g>
<!-- ExecuteUbergraph_BP_DeathStats__131 -->
<g id="node8" class="node">
<title>ExecuteUbergraph_BP_DeathStats__131</title>
<polygon fill="#eeeeee" stroke="black" points="1415,-76.5 1415,-159.5 1993,-159.5 1993,-76.5 1415,-76.5"/>
<text text-anchor="start" x="1423" y="-144.3" font-family="monospace" font-size="14.00">EX_Context</text>
<text text-anchor="start" x="1423" y="-129.3" font-family="monospace" font-size="14.00">  EX_LocalVariable [K2Node_DynamicCast_AsConsole_Screen_Death_Stats]</text>
<text text-anchor="start" x="1423" y="-114.3" font-family="monospace" font-size="14.00">  EX_LocalVirtualFunction SetStatsOwner</text>
<text text-anchor="start" x="1423" y="-99.3" font-family="monospace" font-size="14.00">    EX_LocalVariable [K2Node_CustomEvent_Player_State]</text>
<text text-anchor="start" x="1423" y="-84.3" font-family="monospace" font-size="14.00">  RValue = []</text>
</g>
<!-- ExecuteUbergraph_BP_DeathStats__117&#45;&gt;ExecuteUbergraph_BP_DeathStats__131 -->
<g id="edge6" class="edge">
<title>ExecuteUbergraph_BP_DeathStats__117&#45;&gt;ExecuteUbergraph_BP_DeathStats__131</title>
<path fill="none" stroke="black" d="M1778.7,-211.75C1769.08,-199.8 1755.9,-183.44 1743.28,-167.77"/>
<polygon fill="black" stroke="black" points="1746.31,-165.95 1737.31,-160.36 1740.86,-170.34 1746.31,-165.95"/>
<text text-anchor="middle" x="1769.5" y="-181.8" font-family="monospace" font-size="14.00">IF</text>
</g>
<!-- ExecuteUbergraph_BP_DeathStats__176 -->
<g id="node9" class="node">
<title>ExecuteUbergraph_BP_DeathStats__176</title>
<polygon fill="#eeeeee" stroke="black" points="1808,-0.5 1808,-38.5 1924,-38.5 1924,-0.5 1808,-0.5"/>
<text text-anchor="start" x="1816" y="-23.3" font-family="monospace" font-size="14.00">EX_Return</text>
<text text-anchor="start" x="1816" y="-8.3" font-family="monospace" font-size="14.00">  EX_Nothing</text>
</g>
<!-- ExecuteUbergraph_BP_DeathStats__117&#45;&gt;ExecuteUbergraph_BP_DeathStats__176 -->
<g id="edge5" class="edge">
<title>ExecuteUbergraph_BP_DeathStats__117:e&#45;&gt;ExecuteUbergraph_BP_DeathStats__176</title>
<path fill="none" stroke="red" d="M2001,-230.5C2010.27,-230.5 2010.82,-89.13 2002,-76 1986.69,-53.22 1960.22,-39.78 1934.67,-31.86"/>
<polygon fill="none" stroke="red" points="1935.85,-28.56 1925.27,-29.21 1933.94,-35.29 1935.85,-28.56"/>
<text text-anchor="middle" x="2033" y="-114.3" font-family="monospace" font-size="14.00">IF NOT</text>
</g>
<!-- ExecuteUbergraph_BP_DeathStats__131&#45;&gt;ExecuteUbergraph_BP_DeathStats__176 -->
<g id="edge7" class="edge">
<title>ExecuteUbergraph_BP_DeathStats__131&#45;&gt;ExecuteUbergraph_BP_DeathStats__176</title>
<path fill="none" stroke="black" d="M1771.76,-76.63C1790.29,-65.6 1809.76,-54 1826.17,-44.23"/>
<polygon fill="black" stroke="black" points="1827.85,-47.3 1834.65,-39.17 1824.27,-41.29 1827.85,-47.3"/>
</g>
<!-- ExecuteUbergraph_BP_DeathStats__178 -->
<g id="node10" class="node">
<title>ExecuteUbergraph_BP_DeathStats__178</title>
<polygon fill="#eeeeee" stroke="black" points="1426,-804.5 1426,-840.5 1558,-840.5 1558,-804.5 1426,-804.5"/>
<text text-anchor="start" x="1434" y="-818.8" font-family="monospace" font-size="14.00">EX_EndOfScript</text>
</g>
<!-- Set Stats Owner -->
<g id="node11" class="node">
<title>Set Stats Owner</title>
<polygon fill="#ff8888" stroke="black" points="1176,-919.5 1176,-972.5 1646,-972.5 1646,-919.5 1176,-919.5"/>
<text text-anchor="start" x="1184" y="-957.3" font-family="monospace" font-size="14.00">Function Set Stats Owner</text>
<text text-anchor="start" x="1184" y="-942.3" font-family="monospace" font-size="14.00">  ObjectProperty Player State</text>
<text text-anchor="start" x="1184" y="-927.3" font-family="monospace" font-size="14.00">    CPF_BlueprintVisible|CPF_BlueprintReadOnly|CPF_Parm</text>
</g>
<!-- Set Stats Owner__0 -->
<g id="node12" class="node">
<title>Set Stats Owner__0</title>
<polygon fill="#eeeeee" stroke="black" points="1147,-747.5 1147,-785.5 1675,-785.5 1675,-747.5 1147,-747.5"/>
<text text-anchor="start" x="1155" y="-770.3" font-family="monospace" font-size="14.00">EX_LetValueOnPersistentFrame [K2Node_CustomEvent_Player_State]</text>
<text text-anchor="start" x="1155" y="-755.3" font-family="monospace" font-size="14.00">  EX_LocalVariable [Player State]</text>
</g>
<!-- Set Stats Owner&#45;&gt;Set Stats Owner__0 -->
<g id="edge8" class="edge">
<title>Set Stats Owner&#45;&gt;Set Stats Owner__0</title>
<path fill="none" stroke="black" d="M1411,-919.57C1411,-886.98 1411,-830.64 1411,-796.44"/>
<polygon fill="black" stroke="black" points="1414.5,-796.86 1411,-786.86 1407.5,-796.86 1414.5,-796.86"/>
</g>
<!-- Set Stats Owner__18 -->
<g id="node13" class="node">
<title>Set Stats Owner__18</title>
<polygon fill="#eeeeee" stroke="black" points="1089,-635.5 1089,-673.5 1733,-673.5 1733,-635.5 1089,-635.5"/>
<text text-anchor="start" x="1097" y="-658.3" font-family="monospace" font-size="14.00">EX_LocalFinalFunction export BP_DeathStats_C&#45;&gt;ExecuteUbergraph_BP_DeathStats</text>
<text text-anchor="start" x="1097" y="-643.3" font-family="monospace" font-size="14.00">  EX_IntConst 10</text>
</g>
<!-- Set Stats Owner__0&#45;&gt;Set Stats Owner__18 -->
<g id="edge9" class="edge">
<title>Set Stats Owner__0&#45;&gt;Set Stats Owner__18</title>
<path fill="none" stroke="black" d="M1411,-747.83C1411,-730.85 1411,-704.88 1411,-684.81"/>
<polygon fill="black" stroke="black" points="1414.5,-685.01 1411,-675.01 1407.5,-685.01 1414.5,-685.01"/>
</g>
<!-- Set Stats Owner__18&#45;&gt;ExecuteUbergraph_BP_DeathStats__10 -->
<g id="edge10" class="edge">
<title>Set Stats Owner__18:e&#45;&gt;ExecuteUbergraph_BP_DeathStats__10</title>
<path fill="none" stroke="red" d="M1734,-654.5C1758.68,-654.5 1773.14,-632.18 1781.57,-608.12"/>
<polygon fill="none" stroke="red" points="1784.83,-609.42 1784.47,-598.84 1778.14,-607.33 1784.83,-609.42"/>
</g>
<!-- Set Stats Owner__33 -->
<g id="node14" class="node">
<title>Set Stats Owner__33</title>
<polygon fill="#eeeeee" stroke="black" points="1333,-529.5 1333,-567.5 1449,-567.5 1449,-529.5 1333,-529.5"/>
<text text-anchor="start" x="1341" y="-552.3" font-family="monospace" font-size="14.00">EX_Return</text>
<text text-anchor="start" x="1341" y="-537.3" font-family="monospace" font-size="14.00">  EX_Nothing</text>
</g>
<!-- Set Stats Owner__18&#45;&gt;Set Stats Owner__33 -->
<g id="edge11" class="edge">
<title>Set Stats Owner__18&#45;&gt;Set Stats Owner__33</title>
<path fill="none" stroke="black" d="M1407.61,-635.86C1404.59,-620.17 1400.12,-596.93 1396.58,-578.51"/>
<polygon fill="black" stroke="black" points="1400.02,-577.87 1394.7,-568.72 1393.15,-579.2 1400.02,-577.87"/>
</g>
<!-- Set Stats Owner__35 -->
<g id="node15" class="node">
<title>Set Stats Owner__35</title>
<polygon fill="#eeeeee" stroke="black" points="1426,-692.5 1426,-728.5 1558,-728.5 1558,-692.5 1426,-692.5"/>
<text text-anchor="start" x="1434" y="-706.8" font-family="monospace" font-size="14.00">EX_EndOfScript</text>
</g>
</g>
</svg>
