<?xml version="1.0" encoding="UTF-8" standalone="no"?>
<!DOCTYPE svg PUBLIC "-//W3C//DTD SVG 1.1//EN"
 "http://www.w3.org/Graphics/SVG/1.1/DTD/svg11.dtd">
<!-- Generated by graphviz version 7.0.1 (0)
 -->
<!-- Pages: 1 -->
<svg width="4882pt" height="2013pt"
 viewBox="0.00 0.00 4882.00 2013.00" xmlns="http://www.w3.org/2000/svg" xmlns:xlink="http://www.w3.org/1999/xlink">
<g id="graph0" class="graph" transform="scale(1 1) rotate(0) translate(4 2009)">
<polygon fill="white" stroke="none" points="-4,4 -4,-2009 4878,-2009 4878,4 -4,4"/>
<!-- BP_Chimney_Geyser_Carved_Base_C -->
<g id="node1" class="node">
<title>BP_Chimney_Geyser_Carved_Base_C</title>
<polygon fill="#88ff88" stroke="black" points="0,-1681.5 0,-2004.5 710,-2004.5 710,-1681.5 0,-1681.5"/>
<text text-anchor="start" x="8" y="-1989.3" font-family="monospace" font-size="14.00">ClassExport: BP_Chimney_Geyser_Carved_Base_C</text>
<text text-anchor="start" x="8" y="-1974.3" font-family="monospace" font-size="14.00">  SuperStruct: import /Script/Engine&#45;&gt;Actor</text>
<text text-anchor="start" x="8" y="-1959.3" font-family="monospace" font-size="14.00">  Properties:</text>
<text text-anchor="start" x="8" y="-1944.3" font-family="monospace" font-size="14.00">    StructProperty UberGraphFrame</text>
<text text-anchor="start" x="8" y="-1929.3" font-family="monospace" font-size="14.00">      CPF_Transient|CPF_DuplicateTransient</text>
<text text-anchor="start" x="8" y="-1914.3" font-family="monospace" font-size="14.00">    ObjectProperty TerrainDetect</text>
<text text-anchor="start" x="8" y="-1899.3" font-family="monospace" font-size="14.00">      CPF_BlueprintVisible|CPF_InstancedReference|CPF_NonTransactional</text>
<text text-anchor="start" x="8" y="-1884.3" font-family="monospace" font-size="14.00">    ObjectProperty TerrainDetect1</text>
<text text-anchor="start" x="8" y="-1869.3" font-family="monospace" font-size="14.00">      CPF_BlueprintVisible|CPF_InstancedReference|CPF_NonTransactional</text>
<text text-anchor="start" x="8" y="-1854.3" font-family="monospace" font-size="14.00">    ObjectProperty LevelGenerationCarver</text>
<text text-anchor="start" x="8" y="-1839.3" font-family="monospace" font-size="14.00">      CPF_BlueprintVisible|CPF_InstancedReference|CPF_NonTransactional</text>
<text text-anchor="start" x="8" y="-1824.3" font-family="monospace" font-size="14.00">    ObjectProperty TerrainPlacement</text>
<text text-anchor="start" x="8" y="-1809.3" font-family="monospace" font-size="14.00">      CPF_BlueprintVisible|CPF_InstancedReference|CPF_NonTransactional</text>
<text text-anchor="start" x="8" y="-1794.3" font-family="monospace" font-size="14.00">    ObjectProperty ParticleSystem</text>
<text text-anchor="start" x="8" y="-1779.3" font-family="monospace" font-size="14.00">      CPF_BlueprintVisible|CPF_InstancedReference|CPF_NonTransactional</text>
<text text-anchor="start" x="8" y="-1764.3" font-family="monospace" font-size="14.00">    ObjectProperty DefaultSceneRoot</text>
<text text-anchor="start" x="8" y="-1749.3" font-family="monospace" font-size="14.00">      CPF_BlueprintVisible|CPF_InstancedReference|CPF_NonTransactional</text>
<text text-anchor="start" x="8" y="-1734.3" font-family="monospace" font-size="14.00">    BoolProperty IsBroken</text>
<text text-anchor="start" x="8" y="-1719.3" font-family="monospace" font-size="14.00">      CPF_Edit|CPF_BlueprintVisible|CPF_Net|CPF_DisableEditOnInstance|CPF_RepNotify</text>
<text text-anchor="start" x="8" y="-1704.3" font-family="monospace" font-size="14.00">    ObjectProperty SoundInstance</text>
<text text-anchor="start" x="8" y="-1689.3" font-family="monospace" font-size="14.00">      CPF_Edit|CPF_BlueprintVisible|CPF_DisableEditOnInstance|CPF_InstancedReference</text>
</g>
<!-- ExecuteUbergraph_BP_Chimney_Geyser_Carved_Base -->
<g id="node2" class="node">
<title>ExecuteUbergraph_BP_Chimney_Geyser_Carved_Base</title>
<polygon fill="#ff8888" stroke="black" points="728.5,-1756.5 728.5,-1929.5 1223.5,-1929.5 1223.5,-1756.5 728.5,-1756.5"/>
<text text-anchor="start" x="736.5" y="-1914.3" font-family="monospace" font-size="14.00">Function ExecuteUbergraph_BP_Chimney_Geyser_Carved_Base</text>
<text text-anchor="start" x="736.5" y="-1899.3" font-family="monospace" font-size="14.00">  IntProperty EntryPoint</text>
<text text-anchor="start" x="736.5" y="-1884.3" font-family="monospace" font-size="14.00">    CPF_BlueprintVisible|CPF_BlueprintReadOnly|CPF_Parm</text>
<text text-anchor="start" x="736.5" y="-1869.3" font-family="monospace" font-size="14.00">  BoolProperty CallFunc_HasAuthority_ReturnValue</text>
<text text-anchor="start" x="736.5" y="-1854.3" font-family="monospace" font-size="14.00">  StructProperty CallFunc_K2_GetActorLocation_ReturnValue</text>
<text text-anchor="start" x="736.5" y="-1839.3" font-family="monospace" font-size="14.00">  ObjectProperty K2Node_ComponentBoundEvent_point_1</text>
<text text-anchor="start" x="736.5" y="-1824.3" font-family="monospace" font-size="14.00">    CPF_InstancedReference</text>
<text text-anchor="start" x="736.5" y="-1809.3" font-family="monospace" font-size="14.00">  ObjectProperty CallFunc_SpawnSoundAtLocation_ReturnValue</text>
<text text-anchor="start" x="736.5" y="-1794.3" font-family="monospace" font-size="14.00">    CPF_InstancedReference</text>
<text text-anchor="start" x="736.5" y="-1779.3" font-family="monospace" font-size="14.00">  ObjectProperty K2Node_ComponentBoundEvent_point</text>
<text text-anchor="start" x="736.5" y="-1764.3" font-family="monospace" font-size="14.00">    CPF_InstancedReference</text>
</g>
<!-- ExecuteUbergraph_BP_Chimney_Geyser_Carved_Base__0 -->
<g id="node3" class="node">
<title>ExecuteUbergraph_BP_Chimney_Geyser_Carved_Base__0</title>
<polygon fill="#eeeeee" stroke="black" points="840,-1554.5 840,-1592.5 1112,-1592.5 1112,-1554.5 840,-1554.5"/>
<text text-anchor="start" x="848" y="-1577.3" font-family="monospace" font-size="14.00">EX_ComputedJump</text>
<text text-anchor="start" x="848" y="-1562.3" font-family="monospace" font-size="14.00">  EX_LocalVariable [EntryPoint]</text>
</g>
<!-- ExecuteUbergraph_BP_Chimney_Geyser_Carved_Base&#45;&gt;ExecuteUbergraph_BP_Chimney_Geyser_Carved_Base__0 -->
<g id="edge1" class="edge">
<title>ExecuteUbergraph_BP_Chimney_Geyser_Carved_Base&#45;&gt;ExecuteUbergraph_BP_Chimney_Geyser_Carved_Base__0</title>
<path fill="none" stroke="black" d="M976,-1756.63C976,-1704.15 976,-1640.19 976,-1603.72"/>
<polygon fill="black" stroke="black" points="979.5,-1603.98 976,-1593.98 972.5,-1603.98 979.5,-1603.98"/>
</g>
<!-- ExecuteUbergraph_BP_Chimney_Geyser_Carved_Base__10 -->
<g id="node4" class="node">
<title>ExecuteUbergraph_BP_Chimney_Geyser_Carved_Base__10</title>
<polygon fill="#eeeeee" stroke="black" points="2894.5,-633.5 2894.5,-671.5 3175.5,-671.5 3175.5,-633.5 2894.5,-633.5"/>
<text text-anchor="start" x="2902.5" y="-656.3" font-family="monospace" font-size="14.00">EX_JumpIfNot 29</text>
<text text-anchor="start" x="2902.5" y="-641.3" font-family="monospace" font-size="14.00">  EX_InstanceVariable [IsBroken]</text>
</g>
<!-- ExecuteUbergraph_BP_Chimney_Geyser_Carved_Base__24 -->
<g id="node5" class="node">
<title>ExecuteUbergraph_BP_Chimney_Geyser_Carved_Base__24</title>
<polygon fill="#eeeeee" stroke="black" points="2864.5,-490.5 2864.5,-526.5 2971.5,-526.5 2971.5,-490.5 2864.5,-490.5"/>
<text text-anchor="start" x="2872.5" y="-504.8" font-family="monospace" font-size="14.00">EX_Jump 283</text>
</g>
<!-- ExecuteUbergraph_BP_Chimney_Geyser_Carved_Base__10&#45;&gt;ExecuteUbergraph_BP_Chimney_Geyser_Carved_Base__24 -->
<g id="edge3" class="edge">
<title>ExecuteUbergraph_BP_Chimney_Geyser_Carved_Base__10&#45;&gt;ExecuteUbergraph_BP_Chimney_Geyser_Carved_Base__24</title>
<path fill="none" stroke="black" d="M3017.93,-633.63C3004.97,-619.84 2986.9,-600.11 2972,-582 2959.61,-566.93 2946.52,-549.4 2936.33,-535.35"/>
<polygon fill="black" stroke="black" points="2939.35,-533.56 2930.67,-527.49 2933.67,-537.65 2939.35,-533.56"/>
<text text-anchor="middle" x="3008.5" y="-603.8" font-family="monospace" font-size="14.00">IF</text>
</g>
<!-- ExecuteUbergraph_BP_Chimney_Geyser_Carved_Base__29 -->
<g id="node6" class="node">
<title>ExecuteUbergraph_BP_Chimney_Geyser_Carved_Base__29</title>
<polygon fill="#eeeeee" stroke="black" points="2981,-545.5 2981,-581.5 3517,-581.5 3517,-545.5 2981,-545.5"/>
<text text-anchor="start" x="2989" y="-559.8" font-family="monospace" font-size="14.00">EX_FinalFunction import /Script/Engine&#45;&gt;Actor&#45;&gt;FlushNetDormancy</text>
</g>
<!-- ExecuteUbergraph_BP_Chimney_Geyser_Carved_Base__10&#45;&gt;ExecuteUbergraph_BP_Chimney_Geyser_Carved_Base__29 -->
<g id="edge2" class="edge">
<title>ExecuteUbergraph_BP_Chimney_Geyser_Carved_Base__10:e&#45;&gt;ExecuteUbergraph_BP_Chimney_Geyser_Carved_Base__29</title>
<path fill="none" stroke="red" d="M3177,-652.5C3208.64,-652.5 3228.88,-618 3239.6,-592.21"/>
<polygon fill="none" stroke="red" points="3242.86,-593.47 3243.19,-582.88 3236.33,-590.95 3242.86,-593.47"/>
<text text-anchor="middle" x="3261" y="-603.8" font-family="monospace" font-size="14.00">IF NOT</text>
</g>
<!-- ExecuteUbergraph_BP_Chimney_Geyser_Carved_Base__283 -->
<g id="node21" class="node">
<title>ExecuteUbergraph_BP_Chimney_Geyser_Carved_Base__283</title>
<polygon fill="#eeeeee" stroke="black" points="3605,-0.5 3605,-38.5 3721,-38.5 3721,-0.5 3605,-0.5"/>
<text text-anchor="start" x="3613" y="-23.3" font-family="monospace" font-size="14.00">EX_Return</text>
<text text-anchor="start" x="3613" y="-8.3" font-family="monospace" font-size="14.00">  EX_Nothing</text>
</g>
<!-- ExecuteUbergraph_BP_Chimney_Geyser_Carved_Base__24&#45;&gt;ExecuteUbergraph_BP_Chimney_Geyser_Carved_Base__283 -->
<g id="edge4" class="edge">
<title>ExecuteUbergraph_BP_Chimney_Geyser_Carved_Base__24&#45;&gt;ExecuteUbergraph_BP_Chimney_Geyser_Carved_Base__283</title>
<path fill="none" stroke="black" d="M2915.34,-490.55C2912.08,-468.33 2907,-428.1 2907,-393.5 2907,-393.5 2907,-393.5 2907,-93.5 2907,-24.85 3407.35,-19.58 3593.94,-20.01"/>
<polygon fill="black" stroke="black" points="3593.72,-23.51 3603.73,-20.04 3593.74,-16.51 3593.72,-23.51"/>
</g>
<!-- ExecuteUbergraph_BP_Chimney_Geyser_Carved_Base__39 -->
<g id="node7" class="node">
<title>ExecuteUbergraph_BP_Chimney_Geyser_Carved_Base__39</title>
<polygon fill="#eeeeee" stroke="black" points="3153.5,-418.5 3153.5,-471.5 3434.5,-471.5 3434.5,-418.5 3153.5,-418.5"/>
<text text-anchor="start" x="3161.5" y="-456.3" font-family="monospace" font-size="14.00">EX_LetBool</text>
<text text-anchor="start" x="3161.5" y="-441.3" font-family="monospace" font-size="14.00">  EX_InstanceVariable [IsBroken]</text>
<text text-anchor="start" x="3161.5" y="-426.3" font-family="monospace" font-size="14.00">  EX_True</text>
</g>
<!-- ExecuteUbergraph_BP_Chimney_Geyser_Carved_Base__29&#45;&gt;ExecuteUbergraph_BP_Chimney_Geyser_Carved_Base__39 -->
<g id="edge5" class="edge">
<title>ExecuteUbergraph_BP_Chimney_Geyser_Carved_Base__29&#45;&gt;ExecuteUbergraph_BP_Chimney_Geyser_Carved_Base__39</title>
<path fill="none" stroke="black" d="M3255.45,-545.81C3261.86,-529.2 3271.91,-503.18 3280.14,-481.88"/>
<polygon fill="black" stroke="black" points="3283.37,-483.24 3283.71,-472.65 3276.84,-480.72 3283.37,-483.24"/>
</g>
<!-- ExecuteUbergraph_BP_Chimney_Geyser_Carved_Base__50 -->
<g id="node8" class="node">
<title>ExecuteUbergraph_BP_Chimney_Geyser_Carved_Base__50</title>
<polygon fill="#eeeeee" stroke="black" points="2935,-298.5 2935,-366.5 3653,-366.5 3653,-298.5 2935,-298.5"/>
<text text-anchor="start" x="2943" y="-351.3" font-family="monospace" font-size="14.00">EX_CallMath import /Script/Engine&#45;&gt;NetPushModelHelpers&#45;&gt;MarkPropertyDirtyFromRepIndex</text>
<text text-anchor="start" x="2943" y="-336.3" font-family="monospace" font-size="14.00">  EX_Self</text>
<text text-anchor="start" x="2943" y="-321.3" font-family="monospace" font-size="14.00">  EX_IntConst 10</text>
<text text-anchor="start" x="2943" y="-306.3" font-family="monospace" font-size="14.00">  EX_NameConst IsBroken</text>
</g>
<!-- ExecuteUbergraph_BP_Chimney_Geyser_Carved_Base__39&#45;&gt;ExecuteUbergraph_BP_Chimney_Geyser_Carved_Base__50 -->
<g id="edge6" class="edge">
<title>ExecuteUbergraph_BP_Chimney_Geyser_Carved_Base__39&#45;&gt;ExecuteUbergraph_BP_Chimney_Geyser_Carved_Base__50</title>
<path fill="none" stroke="black" d="M3294,-418.65C3294,-406.5 3294,-391.6 3294,-377.67"/>
<polygon fill="black" stroke="black" points="3297.5,-377.8 3294,-367.8 3290.5,-377.8 3297.5,-377.8"/>
</g>
<!-- ExecuteUbergraph_BP_Chimney_Geyser_Carved_Base__79 -->
<g id="node9" class="node">
<title>ExecuteUbergraph_BP_Chimney_Geyser_Carved_Base__79</title>
<polygon fill="#eeeeee" stroke="black" points="3274,-224.5 3274,-260.5 3604,-260.5 3604,-224.5 3274,-224.5"/>
<text text-anchor="start" x="3282" y="-238.8" font-family="monospace" font-size="14.00">EX_LocalVirtualFunction OnRep_IsBroken</text>
</g>
<!-- ExecuteUbergraph_BP_Chimney_Geyser_Carved_Base__50&#45;&gt;ExecuteUbergraph_BP_Chimney_Geyser_Carved_Base__79 -->
<g id="edge7" class="edge">
<title>ExecuteUbergraph_BP_Chimney_Geyser_Carved_Base__50&#45;&gt;ExecuteUbergraph_BP_Chimney_Geyser_Carved_Base__79</title>
<path fill="none" stroke="black" d="M3347.99,-298.73C3365.73,-287.97 3385.05,-276.24 3401.31,-266.37"/>
<polygon fill="black" stroke="black" points="3402.97,-269.46 3409.7,-261.28 3399.34,-263.48 3402.97,-269.46"/>
</g>
<!-- ExecuteUbergraph_BP_Chimney_Geyser_Carved_Base__93 -->
<g id="node10" class="node">
<title>ExecuteUbergraph_BP_Chimney_Geyser_Carved_Base__93</title>
<polygon fill="#eeeeee" stroke="black" points="3345.5,-150.5 3345.5,-186.5 3634.5,-186.5 3634.5,-150.5 3345.5,-150.5"/>
<text text-anchor="start" x="3353.5" y="-164.8" font-family="monospace" font-size="14.00">EX_VirtualFunction ForceNetUpdate</text>
</g>
<!-- ExecuteUbergraph_BP_Chimney_Geyser_Carved_Base__79&#45;&gt;ExecuteUbergraph_BP_Chimney_Geyser_Carved_Base__93 -->
<g id="edge8" class="edge">
<title>ExecuteUbergraph_BP_Chimney_Geyser_Carved_Base__79&#45;&gt;ExecuteUbergraph_BP_Chimney_Geyser_Carved_Base__93</title>
<path fill="none" stroke="black" d="M3450.83,-224.8C3457.01,-216.08 3464.71,-205.21 3471.64,-195.42"/>
<polygon fill="black" stroke="black" points="3474.44,-197.53 3477.36,-187.34 3468.72,-193.48 3474.44,-197.53"/>
</g>
<!-- ExecuteUbergraph_BP_Chimney_Geyser_Carved_Base__107 -->
<g id="node11" class="node">
<title>ExecuteUbergraph_BP_Chimney_Geyser_Carved_Base__107</title>
<polygon fill="#eeeeee" stroke="black" points="3507.5,-76.5 3507.5,-112.5 3614.5,-112.5 3614.5,-76.5 3507.5,-76.5"/>
<text text-anchor="start" x="3515.5" y="-90.8" font-family="monospace" font-size="14.00">EX_Jump 283</text>
</g>
<!-- ExecuteUbergraph_BP_Chimney_Geyser_Carved_Base__93&#45;&gt;ExecuteUbergraph_BP_Chimney_Geyser_Carved_Base__107 -->
<g id="edge9" class="edge">
<title>ExecuteUbergraph_BP_Chimney_Geyser_Carved_Base__93&#45;&gt;ExecuteUbergraph_BP_Chimney_Geyser_Carved_Base__107</title>
<path fill="none" stroke="black" d="M3506.47,-150.8C3515.43,-141.71 3526.69,-130.3 3536.64,-120.2"/>
<polygon fill="black" stroke="black" points="3539.03,-122.76 3543.56,-113.19 3534.05,-117.85 3539.03,-122.76"/>
</g>
<!-- ExecuteUbergraph_BP_Chimney_Geyser_Carved_Base__107&#45;&gt;ExecuteUbergraph_BP_Chimney_Geyser_Carved_Base__283 -->
<g id="edge10" class="edge">
<title>ExecuteUbergraph_BP_Chimney_Geyser_Carved_Base__107&#45;&gt;ExecuteUbergraph_BP_Chimney_Geyser_Carved_Base__283</title>
<path fill="none" stroke="black" d="M3584.66,-76.57C3597.79,-67.17 3614.35,-55.32 3628.86,-44.93"/>
<polygon fill="black" stroke="black" points="3630.72,-47.9 3636.82,-39.24 3626.65,-42.21 3630.72,-47.9"/>
</g>
<!-- ExecuteUbergraph_BP_Chimney_Geyser_Carved_Base__112 -->
<g id="node12" class="node">
<title>ExecuteUbergraph_BP_Chimney_Geyser_Carved_Base__112</title>
<polygon fill="#eeeeee" stroke="black" points="2766,-1008.5 2766,-1061.5 3286,-1061.5 3286,-1008.5 2766,-1008.5"/>
<text text-anchor="start" x="2774" y="-1046.3" font-family="monospace" font-size="14.00">EX_LetBool</text>
<text text-anchor="start" x="2774" y="-1031.3" font-family="monospace" font-size="14.00">  EX_LocalVariable [CallFunc_HasAuthority_ReturnValue]</text>
<text text-anchor="start" x="2774" y="-1016.3" font-family="monospace" font-size="14.00">  EX_FinalFunction import /Script/Engine&#45;&gt;Actor&#45;&gt;HasAuthority</text>
</g>
<!-- ExecuteUbergraph_BP_Chimney_Geyser_Carved_Base__132 -->
<g id="node13" class="node">
<title>ExecuteUbergraph_BP_Chimney_Geyser_Carved_Base__132</title>
<polygon fill="#eeeeee" stroke="black" points="2804,-859 2804,-897 3266,-897 3266,-859 2804,-859"/>
<text text-anchor="start" x="2812" y="-881.8" font-family="monospace" font-size="14.00">EX_JumpIfNot 283</text>
<text text-anchor="start" x="2812" y="-866.8" font-family="monospace" font-size="14.00">  EX_LocalVariable [CallFunc_HasAuthority_ReturnValue]</text>
</g>
<!-- ExecuteUbergraph_BP_Chimney_Geyser_Carved_Base__112&#45;&gt;ExecuteUbergraph_BP_Chimney_Geyser_Carved_Base__132 -->
<g id="edge11" class="edge">
<title>ExecuteUbergraph_BP_Chimney_Geyser_Carved_Base__112&#45;&gt;ExecuteUbergraph_BP_Chimney_Geyser_Carved_Base__132</title>
<path fill="none" stroke="black" d="M3027.47,-1008.75C3029.06,-981.28 3031.61,-937.41 3033.29,-908.41"/>
<polygon fill="black" stroke="black" points="3036.78,-908.67 3033.87,-898.49 3029.79,-908.27 3036.78,-908.67"/>
</g>
<!-- ExecuteUbergraph_BP_Chimney_Geyser_Carved_Base__146 -->
<g id="node14" class="node">
<title>ExecuteUbergraph_BP_Chimney_Geyser_Carved_Base__146</title>
<polygon fill="#eeeeee" stroke="black" points="2985.5,-710.5 2985.5,-746.5 3084.5,-746.5 3084.5,-710.5 2985.5,-710.5"/>
<text text-anchor="start" x="2993.5" y="-724.8" font-family="monospace" font-size="14.00">EX_Jump 10</text>
</g>
<!-- ExecuteUbergraph_BP_Chimney_Geyser_Carved_Base__132&#45;&gt;ExecuteUbergraph_BP_Chimney_Geyser_Carved_Base__146 -->
<g id="edge13" class="edge">
<title>ExecuteUbergraph_BP_Chimney_Geyser_Carved_Base__132&#45;&gt;ExecuteUbergraph_BP_Chimney_Geyser_Carved_Base__146</title>
<path fill="none" stroke="black" d="M3035,-859.21C3035,-834.02 3035,-787.71 3035,-757.78"/>
<polygon fill="black" stroke="black" points="3038.5,-757.96 3035,-747.96 3031.5,-757.96 3038.5,-757.96"/>
<text text-anchor="middle" x="3043.5" y="-780.8" font-family="monospace" font-size="14.00">IF</text>
</g>
<!-- ExecuteUbergraph_BP_Chimney_Geyser_Carved_Base__132&#45;&gt;ExecuteUbergraph_BP_Chimney_Geyser_Carved_Base__283 -->
<g id="edge12" class="edge">
<title>ExecuteUbergraph_BP_Chimney_Geyser_Carved_Base__132:e&#45;&gt;ExecuteUbergraph_BP_Chimney_Geyser_Carved_Base__283</title>
<path fill="none" stroke="red" d="M3267,-878C3364.74,-878 3681,-827.24 3681,-729.5 3681,-729.5 3681,-729.5 3681,-93.5 3681,-78.66 3677.45,-62.6 3673.5,-49.34"/>
<polygon fill="none" stroke="red" points="3676.87,-48.38 3670.47,-39.94 3670.21,-50.53 3676.87,-48.38"/>
<text text-anchor="middle" x="3706" y="-388.8" font-family="monospace" font-size="14.00">IF NOT</text>
</g>
<!-- ExecuteUbergraph_BP_Chimney_Geyser_Carved_Base__146&#45;&gt;ExecuteUbergraph_BP_Chimney_Geyser_Carved_Base__10 -->
<g id="edge14" class="edge">
<title>ExecuteUbergraph_BP_Chimney_Geyser_Carved_Base__146&#45;&gt;ExecuteUbergraph_BP_Chimney_Geyser_Carved_Base__10</title>
<path fill="none" stroke="black" d="M3035,-710.71C3035,-702.43 3035,-692.21 3035,-682.71"/>
<polygon fill="black" stroke="black" points="3038.5,-682.77 3035,-672.77 3031.5,-682.77 3038.5,-682.77"/>
</g>
<!-- ExecuteUbergraph_BP_Chimney_Geyser_Carved_Base__151 -->
<g id="node15" class="node">
<title>ExecuteUbergraph_BP_Chimney_Geyser_Carved_Base__151</title>
<polygon fill="#eeeeee" stroke="black" points="3477,-1412.5 3477,-1465.5 4055,-1465.5 4055,-1412.5 3477,-1412.5"/>
<text text-anchor="start" x="3485" y="-1450.3" font-family="monospace" font-size="14.00">EX_Let</text>
<text text-anchor="start" x="3485" y="-1435.3" font-family="monospace" font-size="14.00">  EX_LocalVariable [CallFunc_K2_GetActorLocation_ReturnValue]</text>
<text text-anchor="start" x="3485" y="-1420.3" font-family="monospace" font-size="14.00">  EX_FinalFunction import /Script/Engine&#45;&gt;Actor&#45;&gt;K2_GetActorLocation</text>
</g>
<!-- ExecuteUbergraph_BP_Chimney_Geyser_Carved_Base__179 -->
<g id="node16" class="node">
<title>ExecuteUbergraph_BP_Chimney_Geyser_Carved_Base__179</title>
<polygon fill="#eeeeee" stroke="black" points="3307,-1135.5 3307,-1338.5 4223,-1338.5 4223,-1135.5 3307,-1135.5"/>
<text text-anchor="start" x="3315" y="-1323.3" font-family="monospace" font-size="14.00">EX_LetObj</text>
<text text-anchor="start" x="3315" y="-1308.3" font-family="monospace" font-size="14.00">  EX_LocalVariable [CallFunc_SpawnSoundAtLocation_ReturnValue]</text>
<text text-anchor="start" x="3315" y="-1293.3" font-family="monospace" font-size="14.00">  EX_CallMath import /Script/Engine&#45;&gt;GameplayStatics&#45;&gt;SpawnSoundAtLocation</text>
<text text-anchor="start" x="3315" y="-1278.3" font-family="monospace" font-size="14.00">    EX_Self</text>
<text text-anchor="start" x="3315" y="-1263.3" font-family="monospace" font-size="14.00">    EX_ObjectConst import /Game/Audio/SFX/Environment/ChimneyBurning/Burning_Boiling_Cue&#45;&gt;Burning_Boiling_Cue</text>
<text text-anchor="start" x="3315" y="-1248.3" font-family="monospace" font-size="14.00">    EX_LocalVariable [CallFunc_K2_GetActorLocation_ReturnValue]</text>
<text text-anchor="start" x="3315" y="-1233.3" font-family="monospace" font-size="14.00">    EX_RotationConst 0,0,0</text>
<text text-anchor="start" x="3315" y="-1218.3" font-family="monospace" font-size="14.00">    EX_FloatConst 1</text>
<text text-anchor="start" x="3315" y="-1203.3" font-family="monospace" font-size="14.00">    EX_FloatConst 1</text>
<text text-anchor="start" x="3315" y="-1188.3" font-family="monospace" font-size="14.00">    EX_FloatConst 0</text>
<text text-anchor="start" x="3315" y="-1173.3" font-family="monospace" font-size="14.00">    EX_NoObject</text>
<text text-anchor="start" x="3315" y="-1158.3" font-family="monospace" font-size="14.00">    EX_NoObject</text>
<text text-anchor="start" x="3315" y="-1143.3" font-family="monospace" font-size="14.00">    EX_True</text>
</g>
<!-- ExecuteUbergraph_BP_Chimney_Geyser_Carved_Base__151&#45;&gt;ExecuteUbergraph_BP_Chimney_Geyser_Carved_Base__179 -->
<g id="edge15" class="edge">
<title>ExecuteUbergraph_BP_Chimney_Geyser_Carved_Base__151&#45;&gt;ExecuteUbergraph_BP_Chimney_Geyser_Carved_Base__179</title>
<path fill="none" stroke="black" d="M3765.87,-1412.67C3765.79,-1396.16 3765.68,-1373.33 3765.56,-1349.62"/>
<polygon fill="black" stroke="black" points="3769.06,-1349.8 3765.51,-1339.82 3762.06,-1349.84 3769.06,-1349.8"/>
</g>
<!-- ExecuteUbergraph_BP_Chimney_Geyser_Carved_Base__249 -->
<g id="node17" class="node">
<title>ExecuteUbergraph_BP_Chimney_Geyser_Carved_Base__249</title>
<polygon fill="#eeeeee" stroke="black" points="3499,-1008.5 3499,-1061.5 4027,-1061.5 4027,-1008.5 3499,-1008.5"/>
<text text-anchor="start" x="3507" y="-1046.3" font-family="monospace" font-size="14.00">EX_LetObj</text>
<text text-anchor="start" x="3507" y="-1031.3" font-family="monospace" font-size="14.00">  EX_InstanceVariable [SoundInstance]</text>
<text text-anchor="start" x="3507" y="-1016.3" font-family="monospace" font-size="14.00">  EX_LocalVariable [CallFunc_SpawnSoundAtLocation_ReturnValue]</text>
</g>
<!-- ExecuteUbergraph_BP_Chimney_Geyser_Carved_Base__179&#45;&gt;ExecuteUbergraph_BP_Chimney_Geyser_Carved_Base__249 -->
<g id="edge16" class="edge">
<title>ExecuteUbergraph_BP_Chimney_Geyser_Carved_Base__179&#45;&gt;ExecuteUbergraph_BP_Chimney_Geyser_Carved_Base__249</title>
<path fill="none" stroke="black" d="M3764,-1135.71C3763.77,-1113.11 3763.55,-1090.53 3763.37,-1072.59"/>
<polygon fill="black" stroke="black" points="3766.87,-1072.72 3763.27,-1062.75 3759.87,-1072.79 3766.87,-1072.72"/>
</g>
<!-- ExecuteUbergraph_BP_Chimney_Geyser_Carved_Base__268 -->
<g id="node18" class="node">
<title>ExecuteUbergraph_BP_Chimney_Geyser_Carved_Base__268</title>
<polygon fill="#eeeeee" stroke="black" points="3708.5,-766.5 3708.5,-802.5 3815.5,-802.5 3815.5,-766.5 3708.5,-766.5"/>
<text text-anchor="start" x="3716.5" y="-780.8" font-family="monospace" font-size="14.00">EX_Jump 283</text>
</g>
<!-- ExecuteUbergraph_BP_Chimney_Geyser_Carved_Base__249&#45;&gt;ExecuteUbergraph_BP_Chimney_Geyser_Carved_Base__268 -->
<g id="edge17" class="edge">
<title>ExecuteUbergraph_BP_Chimney_Geyser_Carved_Base__249&#45;&gt;ExecuteUbergraph_BP_Chimney_Geyser_Carved_Base__268</title>
<path fill="none" stroke="black" d="M3762.9,-1008.8C3762.71,-962.05 3762.31,-862.21 3762.11,-813.45"/>
<polygon fill="black" stroke="black" points="3765.61,-813.72 3762.07,-803.73 3758.61,-813.75 3765.61,-813.72"/>
</g>
<!-- ExecuteUbergraph_BP_Chimney_Geyser_Carved_Base__268&#45;&gt;ExecuteUbergraph_BP_Chimney_Geyser_Carved_Base__283 -->
<g id="edge18" class="edge">
<title>ExecuteUbergraph_BP_Chimney_Geyser_Carved_Base__268&#45;&gt;ExecuteUbergraph_BP_Chimney_Geyser_Carved_Base__283</title>
<path fill="none" stroke="black" d="M3759.69,-766.83C3757.32,-748.33 3754,-717.6 3754,-691 3754,-691 3754,-691 3754,-93.5 3754,-71.94 3738.27,-55.69 3719.88,-44.06"/>
<polygon fill="black" stroke="black" points="3721.82,-41.13 3711.41,-39.15 3718.31,-47.19 3721.82,-41.13"/>
</g>
<!-- ExecuteUbergraph_BP_Chimney_Geyser_Carved_Base__273 -->
<g id="node19" class="node">
<title>ExecuteUbergraph_BP_Chimney_Geyser_Carved_Base__273</title>
<polygon fill="#eeeeee" stroke="black" points="2303.5,-1219 2303.5,-1255 2410.5,-1255 2410.5,-1219 2303.5,-1219"/>
<text text-anchor="start" x="2311.5" y="-1233.3" font-family="monospace" font-size="14.00">EX_Jump 112</text>
</g>
<!-- ExecuteUbergraph_BP_Chimney_Geyser_Carved_Base__273&#45;&gt;ExecuteUbergraph_BP_Chimney_Geyser_Carved_Base__112 -->
<g id="edge19" class="edge">
<title>ExecuteUbergraph_BP_Chimney_Geyser_Carved_Base__273&#45;&gt;ExecuteUbergraph_BP_Chimney_Geyser_Carved_Base__112</title>
<path fill="none" stroke="black" d="M2376.05,-1219.11C2402.86,-1196.31 2454.14,-1156.1 2505,-1135 2587.79,-1100.65 2682.97,-1078.1 2769.13,-1063.36"/>
<polygon fill="black" stroke="black" points="2769.63,-1066.82 2778.91,-1061.71 2768.47,-1059.92 2769.63,-1066.82"/>
</g>
<!-- ExecuteUbergraph_BP_Chimney_Geyser_Carved_Base__278 -->
<g id="node20" class="node">
<title>ExecuteUbergraph_BP_Chimney_Geyser_Carved_Base__278</title>
<polygon fill="#eeeeee" stroke="black" points="2972.5,-1219 2972.5,-1255 3079.5,-1255 3079.5,-1219 2972.5,-1219"/>
<text text-anchor="start" x="2980.5" y="-1233.3" font-family="monospace" font-size="14.00">EX_Jump 112</text>
</g>
<!-- ExecuteUbergraph_BP_Chimney_Geyser_Carved_Base__278&#45;&gt;ExecuteUbergraph_BP_Chimney_Geyser_Carved_Base__112 -->
<g id="edge20" class="edge">
<title>ExecuteUbergraph_BP_Chimney_Geyser_Carved_Base__278&#45;&gt;ExecuteUbergraph_BP_Chimney_Geyser_Carved_Base__112</title>
<path fill="none" stroke="black" d="M3026,-1219.29C3026,-1187.21 3026,-1116.32 3026,-1072.71"/>
<polygon fill="black" stroke="black" points="3029.5,-1072.96 3026,-1062.96 3022.5,-1072.96 3029.5,-1072.96"/>
</g>
<!-- ExecuteUbergraph_BP_Chimney_Geyser_Carved_Base__285 -->
<g id="node22" class="node">
<title>ExecuteUbergraph_BP_Chimney_Geyser_Carved_Base__285</title>
<polygon fill="#eeeeee" stroke="black" points="3849,-1626.5 3849,-1662.5 3981,-1662.5 3981,-1626.5 3849,-1626.5"/>
<text text-anchor="start" x="3857" y="-1640.8" font-family="monospace" font-size="14.00">EX_EndOfScript</text>
</g>
<!-- BndEvt__TerrainDetect1_K2Node_ComponentBoundEvent_1_PointRemovedEvent__DelegateSignature -->
<g id="node23" class="node">
<title>BndEvt__TerrainDetect1_K2Node_ComponentBoundEvent_1_PointRemovedEvent__DelegateSignature</title>
<polygon fill="#ff8888" stroke="black" points="2163.5,-1816.5 2163.5,-1869.5 2980.5,-1869.5 2980.5,-1816.5 2163.5,-1816.5"/>
<text text-anchor="start" x="2171.5" y="-1854.3" font-family="monospace" font-size="14.00">Function BndEvt__TerrainDetect1_K2Node_ComponentBoundEvent_1_PointRemovedEvent__DelegateSignature</text>
<text text-anchor="start" x="2171.5" y="-1839.3" font-family="monospace" font-size="14.00">  ObjectProperty point</text>
<text text-anchor="start" x="2171.5" y="-1824.3" font-family="monospace" font-size="14.00">    CPF_BlueprintVisible|CPF_BlueprintReadOnly|CPF_Parm|CPF_InstancedReference</text>
</g>
<!-- BndEvt__TerrainDetect1_K2Node_ComponentBoundEvent_1_PointRemovedEvent__DelegateSignature__0 -->
<g id="node24" class="node">
<title>BndEvt__TerrainDetect1_K2Node_ComponentBoundEvent_1_PointRemovedEvent__DelegateSignature__0</title>
<polygon fill="#eeeeee" stroke="black" points="2304,-1554.5 2304,-1592.5 2840,-1592.5 2840,-1554.5 2304,-1554.5"/>
<text text-anchor="start" x="2312" y="-1577.3" font-family="monospace" font-size="14.00">EX_LetValueOnPersistentFrame [K2Node_ComponentBoundEvent_point]</text>
<text text-anchor="start" x="2312" y="-1562.3" font-family="monospace" font-size="14.00">  EX_LocalVariable [point]</text>
</g>
<!-- BndEvt__TerrainDetect1_K2Node_ComponentBoundEvent_1_PointRemovedEvent__DelegateSignature&#45;&gt;BndEvt__TerrainDetect1_K2Node_ComponentBoundEvent_1_PointRemovedEvent__DelegateSignature__0 -->
<g id="edge21" class="edge">
<title>BndEvt__TerrainDetect1_K2Node_ComponentBoundEvent_1_PointRemovedEvent__DelegateSignature&#45;&gt;BndEvt__TerrainDetect1_K2Node_ComponentBoundEvent_1_PointRemovedEvent__DelegateSignature__0</title>
<path fill="none" stroke="black" d="M2572,-1816.83C2572,-1767.12 2572,-1656.58 2572,-1603.73"/>
<polygon fill="black" stroke="black" points="2575.5,-1604 2572,-1594 2568.5,-1604 2575.5,-1604"/>
</g>
<!-- BndEvt__TerrainDetect1_K2Node_ComponentBoundEvent_1_PointRemovedEvent__DelegateSignature__18 -->
<g id="node25" class="node">
<title>BndEvt__TerrainDetect1_K2Node_ComponentBoundEvent_1_PointRemovedEvent__DelegateSignature__18</title>
<polygon fill="#eeeeee" stroke="black" points="2118,-1420 2118,-1458 3026,-1458 3026,-1420 2118,-1420"/>
<text text-anchor="start" x="2126" y="-1442.8" font-family="monospace" font-size="14.00">EX_LocalFinalFunction export BP_Chimney_Geyser_Carved_Base_C&#45;&gt;ExecuteUbergraph_BP_Chimney_Geyser_Carved_Base</text>
<text text-anchor="start" x="2126" y="-1427.8" font-family="monospace" font-size="14.00">  EX_IntConst 278</text>
</g>
<!-- BndEvt__TerrainDetect1_K2Node_ComponentBoundEvent_1_PointRemovedEvent__DelegateSignature__0&#45;&gt;BndEvt__TerrainDetect1_K2Node_ComponentBoundEvent_1_PointRemovedEvent__DelegateSignature__18 -->
<g id="edge22" class="edge">
<title>BndEvt__TerrainDetect1_K2Node_ComponentBoundEvent_1_PointRemovedEvent__DelegateSignature__0&#45;&gt;BndEvt__TerrainDetect1_K2Node_ComponentBoundEvent_1_PointRemovedEvent__DelegateSignature__18</title>
<path fill="none" stroke="black" d="M2572,-1554.63C2572,-1532.68 2572,-1495.14 2572,-1469.03"/>
<polygon fill="black" stroke="black" points="2575.5,-1469.1 2572,-1459.1 2568.5,-1469.1 2575.5,-1469.1"/>
</g>
<!-- BndEvt__TerrainDetect1_K2Node_ComponentBoundEvent_1_PointRemovedEvent__DelegateSignature__18&#45;&gt;ExecuteUbergraph_BP_Chimney_Geyser_Carved_Base__278 -->
<g id="edge23" class="edge">
<title>BndEvt__TerrainDetect1_K2Node_ComponentBoundEvent_1_PointRemovedEvent__DelegateSignature__18:e&#45;&gt;ExecuteUbergraph_BP_Chimney_Geyser_Carved_Base__278</title>
<path fill="none" stroke="red" d="M3027,-1439C3095.58,-1439 3058.28,-1320.55 3037.24,-1265.51"/>
<polygon fill="none" stroke="red" points="3040.5,-1264.24 3033.6,-1256.2 3033.99,-1266.79 3040.5,-1264.24"/>
</g>
<!-- BndEvt__TerrainDetect1_K2Node_ComponentBoundEvent_1_PointRemovedEvent__DelegateSignature__33 -->
<g id="node26" class="node">
<title>BndEvt__TerrainDetect1_K2Node_ComponentBoundEvent_1_PointRemovedEvent__DelegateSignature__33</title>
<polygon fill="#eeeeee" stroke="black" points="2514,-1218 2514,-1256 2630,-1256 2630,-1218 2514,-1218"/>
<text text-anchor="start" x="2522" y="-1240.8" font-family="monospace" font-size="14.00">EX_Return</text>
<text text-anchor="start" x="2522" y="-1225.8" font-family="monospace" font-size="14.00">  EX_Nothing</text>
</g>
<!-- BndEvt__TerrainDetect1_K2Node_ComponentBoundEvent_1_PointRemovedEvent__DelegateSignature__18&#45;&gt;BndEvt__TerrainDetect1_K2Node_ComponentBoundEvent_1_PointRemovedEvent__DelegateSignature__33 -->
<g id="edge24" class="edge">
<title>BndEvt__TerrainDetect1_K2Node_ComponentBoundEvent_1_PointRemovedEvent__DelegateSignature__18&#45;&gt;BndEvt__TerrainDetect1_K2Node_ComponentBoundEvent_1_PointRemovedEvent__DelegateSignature__33</title>
<path fill="none" stroke="black" d="M2572,-1420.25C2572,-1385.79 2572,-1309.54 2572,-1267.4"/>
<polygon fill="black" stroke="black" points="2575.5,-1267.51 2572,-1257.51 2568.5,-1267.51 2575.5,-1267.51"/>
</g>
<!-- BndEvt__TerrainDetect1_K2Node_ComponentBoundEvent_1_PointRemovedEvent__DelegateSignature__35 -->
<g id="node27" class="node">
<title>BndEvt__TerrainDetect1_K2Node_ComponentBoundEvent_1_PointRemovedEvent__DelegateSignature__35</title>
<polygon fill="#eeeeee" stroke="black" points="4147,-1484.5 4147,-1520.5 4279,-1520.5 4279,-1484.5 4147,-1484.5"/>
<text text-anchor="start" x="4155" y="-1498.8" font-family="monospace" font-size="14.00">EX_EndOfScript</text>
</g>
<!-- BndEvt__TerrainDetect_K2Node_ComponentBoundEvent_0_PointRemovedEvent__DelegateSignature -->
<g id="node28" class="node">
<title>BndEvt__TerrainDetect_K2Node_ComponentBoundEvent_0_PointRemovedEvent__DelegateSignature</title>
<polygon fill="#ff8888" stroke="black" points="1241.5,-1816.5 1241.5,-1869.5 2050.5,-1869.5 2050.5,-1816.5 1241.5,-1816.5"/>
<text text-anchor="start" x="1249.5" y="-1854.3" font-family="monospace" font-size="14.00">Function BndEvt__TerrainDetect_K2Node_ComponentBoundEvent_0_PointRemovedEvent__DelegateSignature</text>
<text text-anchor="start" x="1249.5" y="-1839.3" font-family="monospace" font-size="14.00">  ObjectProperty point</text>
<text text-anchor="start" x="1249.5" y="-1824.3" font-family="monospace" font-size="14.00">    CPF_BlueprintVisible|CPF_BlueprintReadOnly|CPF_Parm|CPF_InstancedReference</text>
</g>
<!-- BndEvt__TerrainDetect_K2Node_ComponentBoundEvent_0_PointRemovedEvent__DelegateSignature__0 -->
<g id="node29" class="node">
<title>BndEvt__TerrainDetect_K2Node_ComponentBoundEvent_0_PointRemovedEvent__DelegateSignature__0</title>
<polygon fill="#eeeeee" stroke="black" points="1369.5,-1554.5 1369.5,-1592.5 1922.5,-1592.5 1922.5,-1554.5 1369.5,-1554.5"/>
<text text-anchor="start" x="1377.5" y="-1577.3" font-family="monospace" font-size="14.00">EX_LetValueOnPersistentFrame [K2Node_ComponentBoundEvent_point_1]</text>
<text text-anchor="start" x="1377.5" y="-1562.3" font-family="monospace" font-size="14.00">  EX_LocalVariable [point]</text>
</g>
<!-- BndEvt__TerrainDetect_K2Node_ComponentBoundEvent_0_PointRemovedEvent__DelegateSignature&#45;&gt;BndEvt__TerrainDetect_K2Node_ComponentBoundEvent_0_PointRemovedEvent__DelegateSignature__0 -->
<g id="edge25" class="edge">
<title>BndEvt__TerrainDetect_K2Node_ComponentBoundEvent_0_PointRemovedEvent__DelegateSignature&#45;&gt;BndEvt__TerrainDetect_K2Node_ComponentBoundEvent_0_PointRemovedEvent__DelegateSignature__0</title>
<path fill="none" stroke="black" d="M1646,-1816.83C1646,-1767.12 1646,-1656.58 1646,-1603.73"/>
<polygon fill="black" stroke="black" points="1649.5,-1604 1646,-1594 1642.5,-1604 1649.5,-1604"/>
</g>
<!-- BndEvt__TerrainDetect_K2Node_ComponentBoundEvent_0_PointRemovedEvent__DelegateSignature__18 -->
<g id="node30" class="node">
<title>BndEvt__TerrainDetect_K2Node_ComponentBoundEvent_0_PointRemovedEvent__DelegateSignature__18</title>
<polygon fill="#eeeeee" stroke="black" points="1192,-1420 1192,-1458 2100,-1458 2100,-1420 1192,-1420"/>
<text text-anchor="start" x="1200" y="-1442.8" font-family="monospace" font-size="14.00">EX_LocalFinalFunction export BP_Chimney_Geyser_Carved_Base_C&#45;&gt;ExecuteUbergraph_BP_Chimney_Geyser_Carved_Base</text>
<text text-anchor="start" x="1200" y="-1427.8" font-family="monospace" font-size="14.00">  EX_IntConst 273</text>
</g>
<!-- BndEvt__TerrainDetect_K2Node_ComponentBoundEvent_0_PointRemovedEvent__DelegateSignature__0&#45;&gt;BndEvt__TerrainDetect_K2Node_ComponentBoundEvent_0_PointRemovedEvent__DelegateSignature__18 -->
<g id="edge26" class="edge">
<title>BndEvt__TerrainDetect_K2Node_ComponentBoundEvent_0_PointRemovedEvent__DelegateSignature__0&#45;&gt;BndEvt__TerrainDetect_K2Node_ComponentBoundEvent_0_PointRemovedEvent__DelegateSignature__18</title>
<path fill="none" stroke="black" d="M1646,-1554.63C1646,-1532.68 1646,-1495.14 1646,-1469.03"/>
<polygon fill="black" stroke="black" points="1649.5,-1469.1 1646,-1459.1 1642.5,-1469.1 1649.5,-1469.1"/>
</g>
<!-- BndEvt__TerrainDetect_K2Node_ComponentBoundEvent_0_PointRemovedEvent__DelegateSignature__18&#45;&gt;ExecuteUbergraph_BP_Chimney_Geyser_Carved_Base__273 -->
<g id="edge27" class="edge">
<title>BndEvt__TerrainDetect_K2Node_ComponentBoundEvent_0_PointRemovedEvent__DelegateSignature__18:e&#45;&gt;ExecuteUbergraph_BP_Chimney_Geyser_Carved_Base__273</title>
<path fill="none" stroke="red" d="M2101,-1439C2113.52,-1439 2101.69,-1422.16 2109,-1412 2160.9,-1339.85 2252.34,-1287.13 2308.51,-1259.63"/>
<polygon fill="none" stroke="red" points="2309.71,-1262.94 2317.2,-1255.45 2306.67,-1256.63 2309.71,-1262.94"/>
</g>
<!-- BndEvt__TerrainDetect_K2Node_ComponentBoundEvent_0_PointRemovedEvent__DelegateSignature__33 -->
<g id="node31" class="node">
<title>BndEvt__TerrainDetect_K2Node_ComponentBoundEvent_0_PointRemovedEvent__DelegateSignature__33</title>
<polygon fill="#eeeeee" stroke="black" points="1588,-1218 1588,-1256 1704,-1256 1704,-1218 1588,-1218"/>
<text text-anchor="start" x="1596" y="-1240.8" font-family="monospace" font-size="14.00">EX_Return</text>
<text text-anchor="start" x="1596" y="-1225.8" font-family="monospace" font-size="14.00">  EX_Nothing</text>
</g>
<!-- BndEvt__TerrainDetect_K2Node_ComponentBoundEvent_0_PointRemovedEvent__DelegateSignature__18&#45;&gt;BndEvt__TerrainDetect_K2Node_ComponentBoundEvent_0_PointRemovedEvent__DelegateSignature__33 -->
<g id="edge28" class="edge">
<title>BndEvt__TerrainDetect_K2Node_ComponentBoundEvent_0_PointRemovedEvent__DelegateSignature__18&#45;&gt;BndEvt__TerrainDetect_K2Node_ComponentBoundEvent_0_PointRemovedEvent__DelegateSignature__33</title>
<path fill="none" stroke="black" d="M1646,-1420.25C1646,-1385.79 1646,-1309.54 1646,-1267.4"/>
<polygon fill="black" stroke="black" points="1649.5,-1267.51 1646,-1257.51 1642.5,-1267.51 1649.5,-1267.51"/>
</g>
<!-- BndEvt__TerrainDetect_K2Node_ComponentBoundEvent_0_PointRemovedEvent__DelegateSignature__35 -->
<g id="node32" class="node">
<title>BndEvt__TerrainDetect_K2Node_ComponentBoundEvent_0_PointRemovedEvent__DelegateSignature__35</title>
<polygon fill="#eeeeee" stroke="black" points="4076,-1357.5 4076,-1393.5 4208,-1393.5 4208,-1357.5 4076,-1357.5"/>
<text text-anchor="start" x="4084" y="-1371.8" font-family="monospace" font-size="14.00">EX_EndOfScript</text>
</g>
<!-- ReceiveBeginPlay -->
<g id="node33" class="node">
<title>ReceiveBeginPlay</title>
<polygon fill="#ff8888" stroke="black" points="3200.5,-1825 3200.5,-1861 3423.5,-1861 3423.5,-1825 3200.5,-1825"/>
<text text-anchor="start" x="3208.5" y="-1839.3" font-family="monospace" font-size="14.00">Function ReceiveBeginPlay</text>
</g>
<!-- ReceiveBeginPlay__0 -->
<g id="node34" class="node">
<title>ReceiveBeginPlay__0</title>
<polygon fill="#eeeeee" stroke="black" points="2858,-1554.5 2858,-1592.5 3766,-1592.5 3766,-1554.5 2858,-1554.5"/>
<text text-anchor="start" x="2866" y="-1577.3" font-family="monospace" font-size="14.00">EX_LocalFinalFunction export BP_Chimney_Geyser_Carved_Base_C&#45;&gt;ExecuteUbergraph_BP_Chimney_Geyser_Carved_Base</text>
<text text-anchor="start" x="2866" y="-1562.3" font-family="monospace" font-size="14.00">  EX_IntConst 151</text>
</g>
<!-- ReceiveBeginPlay&#45;&gt;ReceiveBeginPlay__0 -->
<g id="edge29" class="edge">
<title>ReceiveBeginPlay&#45;&gt;ReceiveBeginPlay__0</title>
<path fill="none" stroke="black" d="M3312,-1825.27C3312,-1780.83 3312,-1659.45 3312,-1603.48"/>
<polygon fill="black" stroke="black" points="3315.5,-1603.78 3312,-1593.78 3308.5,-1603.78 3315.5,-1603.78"/>
</g>
<!-- ReceiveBeginPlay__0&#45;&gt;ExecuteUbergraph_BP_Chimney_Geyser_Carved_Base__151 -->
<g id="edge30" class="edge">
<title>ReceiveBeginPlay__0:e&#45;&gt;ExecuteUbergraph_BP_Chimney_Geyser_Carved_Base__151</title>
<path fill="none" stroke="red" d="M3767,-1573.5C3806,-1573.5 3793.3,-1515.81 3780.01,-1476.28"/>
<polygon fill="none" stroke="red" points="3783.31,-1475.13 3776.7,-1466.85 3776.71,-1477.45 3783.31,-1475.13"/>
</g>
<!-- ReceiveBeginPlay__15 -->
<g id="node35" class="node">
<title>ReceiveBeginPlay__15</title>
<polygon fill="#eeeeee" stroke="black" points="3254,-1420 3254,-1458 3370,-1458 3370,-1420 3254,-1420"/>
<text text-anchor="start" x="3262" y="-1442.8" font-family="monospace" font-size="14.00">EX_Return</text>
<text text-anchor="start" x="3262" y="-1427.8" font-family="monospace" font-size="14.00">  EX_Nothing</text>
</g>
<!-- ReceiveBeginPlay__0&#45;&gt;ReceiveBeginPlay__15 -->
<g id="edge31" class="edge">
<title>ReceiveBeginPlay__0&#45;&gt;ReceiveBeginPlay__15</title>
<path fill="none" stroke="black" d="M3312,-1554.63C3312,-1532.68 3312,-1495.14 3312,-1469.03"/>
<polygon fill="black" stroke="black" points="3315.5,-1469.1 3312,-1459.1 3308.5,-1469.1 3315.5,-1469.1"/>
</g>
<!-- ReceiveBeginPlay__17 -->
<g id="node36" class="node">
<title>ReceiveBeginPlay__17</title>
<polygon fill="#eeeeee" stroke="black" points="4074,-1080.5 4074,-1116.5 4206,-1116.5 4206,-1080.5 4074,-1080.5"/>
<text text-anchor="start" x="4082" y="-1094.8" font-family="monospace" font-size="14.00">EX_EndOfScript</text>
</g>
<!-- OnRep_IsBroken -->
<g id="node37" class="node">
<title>OnRep_IsBroken</title>
<polygon fill="#ff8888" stroke="black" points="4332.5,-1824 4332.5,-1862 4703.5,-1862 4703.5,-1824 4332.5,-1824"/>
<text text-anchor="start" x="4340.5" y="-1846.8" font-family="monospace" font-size="14.00">Function OnRep_IsBroken</text>
<text text-anchor="start" x="4340.5" y="-1831.8" font-family="monospace" font-size="14.00">  BoolProperty CallFunc_IsValid_ReturnValue</text>
</g>
<!-- OnRep_IsBroken__0 -->
<g id="node38" class="node">
<title>OnRep_IsBroken__0</title>
<polygon fill="#eeeeee" stroke="black" points="4353,-1539.5 4353,-1607.5 4683,-1607.5 4683,-1539.5 4353,-1539.5"/>
<text text-anchor="start" x="4361" y="-1592.3" font-family="monospace" font-size="14.00">EX_Context</text>
<text text-anchor="start" x="4361" y="-1577.3" font-family="monospace" font-size="14.00">  EX_InstanceVariable [ParticleSystem]</text>
<text text-anchor="start" x="4361" y="-1562.3" font-family="monospace" font-size="14.00">  EX_VirtualFunction Deactivate</text>
<text text-anchor="start" x="4361" y="-1547.3" font-family="monospace" font-size="14.00">  RValue = []</text>
</g>
<!-- OnRep_IsBroken&#45;&gt;OnRep_IsBroken__0 -->
<g id="edge32" class="edge">
<title>OnRep_IsBroken&#45;&gt;OnRep_IsBroken__0</title>
<path fill="none" stroke="black" d="M4518,-1824.03C4518,-1782.41 4518,-1678.38 4518,-1618.61"/>
<polygon fill="black" stroke="black" points="4521.5,-1618.79 4518,-1608.79 4514.5,-1618.79 4521.5,-1618.79"/>
</g>
<!-- OnRep_IsBroken__36 -->
<g id="node39" class="node">
<title>OnRep_IsBroken__36</title>
<polygon fill="#eeeeee" stroke="black" points="4386,-1420 4386,-1458 4650,-1458 4650,-1420 4386,-1420"/>
<text text-anchor="start" x="4394" y="-1442.8" font-family="monospace" font-size="14.00">EX_VirtualFunction SetLifeSpan</text>
<text text-anchor="start" x="4394" y="-1427.8" font-family="monospace" font-size="14.00">  EX_FloatConst 10</text>
</g>
<!-- OnRep_IsBroken__0&#45;&gt;OnRep_IsBroken__36 -->
<g id="edge33" class="edge">
<title>OnRep_IsBroken__0&#45;&gt;OnRep_IsBroken__36</title>
<path fill="none" stroke="black" d="M4518,-1539.75C4518,-1518.09 4518,-1489.96 4518,-1469.1"/>
<polygon fill="black" stroke="black" points="4521.5,-1469.27 4518,-1459.27 4514.5,-1469.27 4521.5,-1469.27"/>
</g>
<!-- OnRep_IsBroken__55 -->
<g id="node40" class="node">
<title>OnRep_IsBroken__55</title>
<polygon fill="#eeeeee" stroke="black" points="4241.5,-1203 4241.5,-1271 4794.5,-1271 4794.5,-1203 4241.5,-1203"/>
<text text-anchor="start" x="4249.5" y="-1255.8" font-family="monospace" font-size="14.00">EX_LetBool</text>
<text text-anchor="start" x="4249.5" y="-1240.8" font-family="monospace" font-size="14.00">  EX_LocalVariable [CallFunc_IsValid_ReturnValue]</text>
<text text-anchor="start" x="4249.5" y="-1225.8" font-family="monospace" font-size="14.00">  EX_CallMath import /Script/Engine&#45;&gt;KismetSystemLibrary&#45;&gt;IsValid</text>
<text text-anchor="start" x="4249.5" y="-1210.8" font-family="monospace" font-size="14.00">    EX_InstanceVariable [SoundInstance]</text>
</g>
<!-- OnRep_IsBroken__36&#45;&gt;OnRep_IsBroken__55 -->
<g id="edge34" class="edge">
<title>OnRep_IsBroken__36&#45;&gt;OnRep_IsBroken__55</title>
<path fill="none" stroke="black" d="M4518,-1420.25C4518,-1389.51 4518,-1325.51 4518,-1282.14"/>
<polygon fill="black" stroke="black" points="4521.5,-1282.29 4518,-1272.29 4514.5,-1282.29 4521.5,-1282.29"/>
</g>
<!-- OnRep_IsBroken__84 -->
<g id="node41" class="node">
<title>OnRep_IsBroken__84</title>
<polygon fill="#eeeeee" stroke="black" points="4307.5,-1016 4307.5,-1054 4728.5,-1054 4728.5,-1016 4307.5,-1016"/>
<text text-anchor="start" x="4315.5" y="-1038.8" font-family="monospace" font-size="14.00">EX_JumpIfNot 146</text>
<text text-anchor="start" x="4315.5" y="-1023.8" font-family="monospace" font-size="14.00">  EX_LocalVariable [CallFunc_IsValid_ReturnValue]</text>
</g>
<!-- OnRep_IsBroken__55&#45;&gt;OnRep_IsBroken__84 -->
<g id="edge35" class="edge">
<title>OnRep_IsBroken__55&#45;&gt;OnRep_IsBroken__84</title>
<path fill="none" stroke="black" d="M4518,-1203.42C4518,-1165.13 4518,-1102.17 4518,-1065.34"/>
<polygon fill="black" stroke="black" points="4521.5,-1065.44 4518,-1055.44 4514.5,-1065.44 4521.5,-1065.44"/>
</g>
<!-- OnRep_IsBroken__98 -->
<g id="node42" class="node">
<title>OnRep_IsBroken__98</title>
<polygon fill="#eeeeee" stroke="black" points="4366,-821.5 4366,-934.5 4688,-934.5 4688,-821.5 4366,-821.5"/>
<text text-anchor="start" x="4374" y="-919.3" font-family="monospace" font-size="14.00">EX_Context</text>
<text text-anchor="start" x="4374" y="-904.3" font-family="monospace" font-size="14.00">  EX_InstanceVariable [SoundInstance]</text>
<text text-anchor="start" x="4374" y="-889.3" font-family="monospace" font-size="14.00">  EX_VirtualFunction FadeOut</text>
<text text-anchor="start" x="4374" y="-874.3" font-family="monospace" font-size="14.00">    EX_FloatConst 1.5</text>
<text text-anchor="start" x="4374" y="-859.3" font-family="monospace" font-size="14.00">    EX_FloatConst 0</text>
<text text-anchor="start" x="4374" y="-844.3" font-family="monospace" font-size="14.00">    EX_ByteConst 0</text>
<text text-anchor="start" x="4374" y="-829.3" font-family="monospace" font-size="14.00">  RValue = []</text>
</g>
<!-- OnRep_IsBroken__84&#45;&gt;OnRep_IsBroken__98 -->
<g id="edge37" class="edge">
<title>OnRep_IsBroken__84&#45;&gt;OnRep_IsBroken__98</title>
<path fill="none" stroke="black" d="M4519.03,-1016.22C4520.04,-998.9 4521.63,-971.49 4523.13,-945.71"/>
<polygon fill="black" stroke="black" points="4526.61,-946.1 4523.7,-935.92 4519.62,-945.7 4526.61,-946.1"/>
<text text-anchor="middle" x="4531.5" y="-967.8" font-family="monospace" font-size="14.00">IF</text>
</g>
<!-- OnRep_IsBroken__146 -->
<g id="node43" class="node">
<title>OnRep_IsBroken__146</title>
<polygon fill="#eeeeee" stroke="black" points="4612,-709.5 4612,-747.5 4728,-747.5 4728,-709.5 4612,-709.5"/>
<text text-anchor="start" x="4620" y="-732.3" font-family="monospace" font-size="14.00">EX_Return</text>
<text text-anchor="start" x="4620" y="-717.3" font-family="monospace" font-size="14.00">  EX_Nothing</text>
</g>
<!-- OnRep_IsBroken__84&#45;&gt;OnRep_IsBroken__146 -->
<g id="edge36" class="edge">
<title>OnRep_IsBroken__84:e&#45;&gt;OnRep_IsBroken__146</title>
<path fill="none" stroke="red" d="M4730,-1035C4732.31,-1035 4722.11,-930.73 4697,-821 4692.12,-799.68 4685.09,-776 4679.43,-758.08"/>
<polygon fill="none" stroke="red" points="4682.79,-757.1 4676.4,-748.65 4676.12,-759.24 4682.79,-757.1"/>
<text text-anchor="middle" x="4744" y="-874.3" font-family="monospace" font-size="14.00">IF NOT</text>
</g>
<!-- OnRep_IsBroken__98&#45;&gt;OnRep_IsBroken__146 -->
<g id="edge38" class="edge">
<title>OnRep_IsBroken__98&#45;&gt;OnRep_IsBroken__146</title>
<path fill="none" stroke="black" d="M4580.65,-821.66C4602.78,-798.83 4627.35,-773.49 4645.11,-755.17"/>
<polygon fill="black" stroke="black" points="4647.26,-757.98 4651.71,-748.37 4642.24,-753.11 4647.26,-757.98"/>
</g>
<!-- OnRep_IsBroken__148 -->
<g id="node44" class="node">
<title>OnRep_IsBroken__148</title>
<polygon fill="#eeeeee" stroke="black" points="4742,-953.5 4742,-989.5 4874,-989.5 4874,-953.5 4742,-953.5"/>
<text text-anchor="start" x="4750" y="-967.8" font-family="monospace" font-size="14.00">EX_EndOfScript</text>
</g>
</g>
</svg>
