<?xml version="1.0" encoding="UTF-8" standalone="no"?>
<!DOCTYPE svg PUBLIC "-//W3C//DTD SVG 1.1//EN"
 "http://www.w3.org/Graphics/SVG/1.1/DTD/svg11.dtd">
<!-- Generated by graphviz version 7.0.1 (0)
 -->
<!-- Pages: 1 -->
<svg width="3248pt" height="1513pt"
 viewBox="0.00 0.00 3248.00 1513.00" xmlns="http://www.w3.org/2000/svg" xmlns:xlink="http://www.w3.org/1999/xlink">
<g id="graph0" class="graph" transform="scale(1 1) rotate(0) translate(4 1509)">
<polygon fill="white" stroke="none" points="-4,4 -4,-1509 3244,-1509 3244,4 -4,4"/>
<!-- ITM_DeepDive_Codename_C -->
<g id="node1" class="node">
<title>ITM_DeepDive_Codename_C</title>
<polygon fill="#88ff88" stroke="black" points="0,-1301.5 0,-1504.5 850,-1504.5 850,-1301.5 0,-1301.5"/>
<text text-anchor="start" x="8" y="-1489.3" font-family="monospace" font-size="14.00">ClassExport: ITM_DeepDive_Codename_C</text>
<text text-anchor="start" x="8" y="-1474.3" font-family="monospace" font-size="14.00">  SuperStruct: import /Script/UMG&#45;&gt;UserWidget</text>
<text text-anchor="start" x="8" y="-1459.3" font-family="monospace" font-size="14.00">  Properties:</text>
<text text-anchor="start" x="8" y="-1444.3" font-family="monospace" font-size="14.00">    StructProperty UberGraphFrame</text>
<text text-anchor="start" x="8" y="-1429.3" font-family="monospace" font-size="14.00">      CPF_Transient|CPF_DuplicateTransient</text>
<text text-anchor="start" x="8" y="-1414.3" font-family="monospace" font-size="14.00">    ObjectProperty DATA_MissionBiome</text>
<text text-anchor="start" x="8" y="-1399.3" font-family="monospace" font-size="14.00">      CPF_BlueprintVisible|CPF_ExportObject|CPF_InstancedReference|CPF_RepSkip|CPF_PersistentInstance</text>
<text text-anchor="start" x="8" y="-1384.3" font-family="monospace" font-size="14.00">    ObjectProperty DATA_MissionName</text>
<text text-anchor="start" x="8" y="-1369.3" font-family="monospace" font-size="14.00">      CPF_BlueprintVisible|CPF_ExportObject|CPF_InstancedReference|CPF_RepSkip|CPF_PersistentInstance</text>
<text text-anchor="start" x="8" y="-1354.3" font-family="monospace" font-size="14.00">    ObjectProperty TextBlock_0</text>
<text text-anchor="start" x="8" y="-1339.3" font-family="monospace" font-size="14.00">      CPF_BlueprintVisible|CPF_ExportObject|CPF_InstancedReference|CPF_RepSkip|CPF_PersistentInstance</text>
<text text-anchor="start" x="8" y="-1324.3" font-family="monospace" font-size="14.00">    ObjectProperty TextBlock_1</text>
<text text-anchor="start" x="8" y="-1309.3" font-family="monospace" font-size="14.00">      CPF_BlueprintVisible|CPF_ExportObject|CPF_InstancedReference|CPF_RepSkip|CPF_PersistentInstance</text>
</g>
<!-- ExecuteUbergraph_ITM_DeepDive_Codename -->
<g id="node2" class="node">
<title>ExecuteUbergraph_ITM_DeepDive_Codename</title>
<polygon fill="#ff8888" stroke="black" points="868,-1331.5 868,-1474.5 1338,-1474.5 1338,-1331.5 868,-1331.5"/>
<text text-anchor="start" x="876" y="-1459.3" font-family="monospace" font-size="14.00">Function ExecuteUbergraph_ITM_DeepDive_Codename</text>
<text text-anchor="start" x="876" y="-1444.3" font-family="monospace" font-size="14.00">  IntProperty EntryPoint</text>
<text text-anchor="start" x="876" y="-1429.3" font-family="monospace" font-size="14.00">    CPF_BlueprintVisible|CPF_BlueprintReadOnly|CPF_Parm</text>
<text text-anchor="start" x="876" y="-1414.3" font-family="monospace" font-size="14.00">  ObjectProperty K2Node_CustomEvent_DeepDive</text>
<text text-anchor="start" x="876" y="-1399.3" font-family="monospace" font-size="14.00">  TextProperty CallFunc_GetBiomeName_ReturnValue</text>
<text text-anchor="start" x="876" y="-1384.3" font-family="monospace" font-size="14.00">    CPF_ConstParm</text>
<text text-anchor="start" x="876" y="-1369.3" font-family="monospace" font-size="14.00">  TextProperty CallFunc_TextToUpper_ReturnValue</text>
<text text-anchor="start" x="876" y="-1354.3" font-family="monospace" font-size="14.00">  TextProperty CallFunc_TextToUpper_ReturnValue_1</text>
<text text-anchor="start" x="876" y="-1339.3" font-family="monospace" font-size="14.00">  BoolProperty K2Node_Event_IsDesignTime</text>
</g>
<!-- ExecuteUbergraph_ITM_DeepDive_Codename__0 -->
<g id="node3" class="node">
<title>ExecuteUbergraph_ITM_DeepDive_Codename__0</title>
<polygon fill="#eeeeee" stroke="black" points="967,-1226.5 967,-1264.5 1239,-1264.5 1239,-1226.5 967,-1226.5"/>
<text text-anchor="start" x="975" y="-1249.3" font-family="monospace" font-size="14.00">EX_ComputedJump</text>
<text text-anchor="start" x="975" y="-1234.3" font-family="monospace" font-size="14.00">  EX_LocalVariable [EntryPoint]</text>
</g>
<!-- ExecuteUbergraph_ITM_DeepDive_Codename&#45;&gt;ExecuteUbergraph_ITM_DeepDive_Codename__0 -->
<g id="edge1" class="edge">
<title>ExecuteUbergraph_ITM_DeepDive_Codename&#45;&gt;ExecuteUbergraph_ITM_DeepDive_Codename__0</title>
<path fill="none" stroke="black" d="M1103,-1331.53C1103,-1311.81 1103,-1291.45 1103,-1275.61"/>
<polygon fill="black" stroke="black" points="1106.5,-1275.97 1103,-1265.97 1099.5,-1275.97 1106.5,-1275.97"/>
</g>
<!-- ExecuteUbergraph_ITM_DeepDive_Codename__10 -->
<g id="node4" class="node">
<title>ExecuteUbergraph_ITM_DeepDive_Codename__10</title>
<polygon fill="#eeeeee" stroke="black" points="2330.5,-148.5 2330.5,-261.5 3089.5,-261.5 3089.5,-148.5 2330.5,-148.5"/>
<text text-anchor="start" x="2338.5" y="-246.3" font-family="monospace" font-size="14.00">EX_Context</text>
<text text-anchor="start" x="2338.5" y="-231.3" font-family="monospace" font-size="14.00">  EX_ObjectConst import /Game/UI/Art/WidgetParts/LIB_MenuColors&#45;&gt;Default__LIB_MenuColors_C</text>
<text text-anchor="start" x="2338.5" y="-216.3" font-family="monospace" font-size="14.00">  EX_LocalVirtualFunction SetTextColor</text>
<text text-anchor="start" x="2338.5" y="-201.3" font-family="monospace" font-size="14.00">    EX_InstanceVariable [DATA_MissionName]</text>
<text text-anchor="start" x="2338.5" y="-186.3" font-family="monospace" font-size="14.00">    EX_ByteConst 8</text>
<text text-anchor="start" x="2338.5" y="-171.3" font-family="monospace" font-size="14.00">    EX_Self</text>
<text text-anchor="start" x="2338.5" y="-156.3" font-family="monospace" font-size="14.00">  RValue = []</text>
</g>
<!-- ExecuteUbergraph_ITM_DeepDive_Codename__58 -->
<g id="node5" class="node">
<title>ExecuteUbergraph_ITM_DeepDive_Codename__58</title>
<polygon fill="#eeeeee" stroke="black" points="2464.5,-75.5 2464.5,-111.5 2571.5,-111.5 2571.5,-75.5 2464.5,-75.5"/>
<text text-anchor="start" x="2472.5" y="-89.8" font-family="monospace" font-size="14.00">EX_Jump 485</text>
</g>
<!-- ExecuteUbergraph_ITM_DeepDive_Codename__10&#45;&gt;ExecuteUbergraph_ITM_DeepDive_Codename__58 -->
<g id="edge2" class="edge">
<title>ExecuteUbergraph_ITM_DeepDive_Codename__10&#45;&gt;ExecuteUbergraph_ITM_DeepDive_Codename__58</title>
<path fill="none" stroke="black" d="M2612.88,-148.61C2593.16,-137.36 2573.5,-126.15 2557.24,-116.88"/>
<polygon fill="black" stroke="black" points="2559.31,-114.03 2548.89,-112.12 2555.85,-120.11 2559.31,-114.03"/>
</g>
<!-- ExecuteUbergraph_ITM_DeepDive_Codename__485 -->
<g id="node18" class="node">
<title>ExecuteUbergraph_ITM_DeepDive_Codename__485</title>
<polygon fill="#eeeeee" stroke="black" points="2256,-0.5 2256,-38.5 2372,-38.5 2372,-0.5 2256,-0.5"/>
<text text-anchor="start" x="2264" y="-23.3" font-family="monospace" font-size="14.00">EX_Return</text>
<text text-anchor="start" x="2264" y="-8.3" font-family="monospace" font-size="14.00">  EX_Nothing</text>
</g>
<!-- ExecuteUbergraph_ITM_DeepDive_Codename__58&#45;&gt;ExecuteUbergraph_ITM_DeepDive_Codename__485 -->
<g id="edge3" class="edge">
<title>ExecuteUbergraph_ITM_DeepDive_Codename__58&#45;&gt;ExecuteUbergraph_ITM_DeepDive_Codename__485</title>
<path fill="none" stroke="black" d="M2469.91,-75.53C2441.8,-65.6 2406.01,-52.97 2375.82,-42.32"/>
<polygon fill="black" stroke="black" points="2376.99,-39.02 2366.4,-38.99 2374.66,-45.62 2376.99,-39.02"/>
</g>
<!-- ExecuteUbergraph_ITM_DeepDive_Codename__63 -->
<g id="node6" class="node">
<title>ExecuteUbergraph_ITM_DeepDive_Codename__63</title>
<polygon fill="#eeeeee" stroke="black" points="1716.5,-1001.5 1716.5,-1114.5 2285.5,-1114.5 2285.5,-1001.5 1716.5,-1001.5"/>
<text text-anchor="start" x="1724.5" y="-1099.3" font-family="monospace" font-size="14.00">EX_Let</text>
<text text-anchor="start" x="1724.5" y="-1084.3" font-family="monospace" font-size="14.00">  EX_LocalVariable [CallFunc_TextToUpper_ReturnValue]</text>
<text text-anchor="start" x="1724.5" y="-1069.3" font-family="monospace" font-size="14.00">  EX_CallMath import /Script/Engine&#45;&gt;KismetTextLibrary&#45;&gt;TextToUpper</text>
<text text-anchor="start" x="1724.5" y="-1054.3" font-family="monospace" font-size="14.00">    EX_Context</text>
<text text-anchor="start" x="1724.5" y="-1039.3" font-family="monospace" font-size="14.00">      EX_LocalVariable [K2Node_CustomEvent_DeepDive]</text>
<text text-anchor="start" x="1724.5" y="-1024.3" font-family="monospace" font-size="14.00">      EX_InstanceVariable [DeepDiveName]</text>
<text text-anchor="start" x="1724.5" y="-1009.3" font-family="monospace" font-size="14.00">      RValue = [DeepDiveName]</text>
</g>
<!-- ExecuteUbergraph_ITM_DeepDive_Codename__122 -->
<g id="node7" class="node">
<title>ExecuteUbergraph_ITM_DeepDive_Codename__122</title>
<polygon fill="#eeeeee" stroke="black" points="1811,-866.5 1811,-949.5 2281,-949.5 2281,-866.5 1811,-866.5"/>
<text text-anchor="start" x="1819" y="-934.3" font-family="monospace" font-size="14.00">EX_Context</text>
<text text-anchor="start" x="1819" y="-919.3" font-family="monospace" font-size="14.00">  EX_InstanceVariable [DATA_MissionName]</text>
<text text-anchor="start" x="1819" y="-904.3" font-family="monospace" font-size="14.00">  EX_VirtualFunction SetText</text>
<text text-anchor="start" x="1819" y="-889.3" font-family="monospace" font-size="14.00">    EX_LocalVariable [CallFunc_TextToUpper_ReturnValue]</text>
<text text-anchor="start" x="1819" y="-874.3" font-family="monospace" font-size="14.00">  RValue = []</text>
</g>
<!-- ExecuteUbergraph_ITM_DeepDive_Codename__63&#45;&gt;ExecuteUbergraph_ITM_DeepDive_Codename__122 -->
<g id="edge4" class="edge">
<title>ExecuteUbergraph_ITM_DeepDive_Codename__63&#45;&gt;ExecuteUbergraph_ITM_DeepDive_Codename__122</title>
<path fill="none" stroke="black" d="M2017.76,-1001.89C2021.9,-988.28 2026.31,-973.75 2030.39,-960.33"/>
<polygon fill="black" stroke="black" points="2033.73,-961.39 2033.29,-950.8 2027.03,-959.35 2033.73,-961.39"/>
</g>
<!-- ExecuteUbergraph_ITM_DeepDive_Codename__167 -->
<g id="node8" class="node">
<title>ExecuteUbergraph_ITM_DeepDive_Codename__167</title>
<polygon fill="#eeeeee" stroke="black" points="1812,-671.5 1812,-814.5 2324,-814.5 2324,-671.5 1812,-671.5"/>
<text text-anchor="start" x="1820" y="-799.3" font-family="monospace" font-size="14.00">EX_Let</text>
<text text-anchor="start" x="1820" y="-784.3" font-family="monospace" font-size="14.00">  EX_LocalVariable [CallFunc_GetBiomeName_ReturnValue]</text>
<text text-anchor="start" x="1820" y="-769.3" font-family="monospace" font-size="14.00">  EX_Context</text>
<text text-anchor="start" x="1820" y="-754.3" font-family="monospace" font-size="14.00">    EX_Context</text>
<text text-anchor="start" x="1820" y="-739.3" font-family="monospace" font-size="14.00">      EX_LocalVariable [K2Node_CustomEvent_DeepDive]</text>
<text text-anchor="start" x="1820" y="-724.3" font-family="monospace" font-size="14.00">      EX_InstanceVariable [Biome]</text>
<text text-anchor="start" x="1820" y="-709.3" font-family="monospace" font-size="14.00">      RValue = [Biome]</text>
<text text-anchor="start" x="1820" y="-694.3" font-family="monospace" font-size="14.00">    EX_FinalFunction import /Script/FSD&#45;&gt;Biome&#45;&gt;GetBiomeName</text>
<text text-anchor="start" x="1820" y="-679.3" font-family="monospace" font-size="14.00">    RValue = [CallFunc_GetBiomeName_ReturnValue]</text>
</g>
<!-- ExecuteUbergraph_ITM_DeepDive_Codename__122&#45;&gt;ExecuteUbergraph_ITM_DeepDive_Codename__167 -->
<g id="edge5" class="edge">
<title>ExecuteUbergraph_ITM_DeepDive_Codename__122&#45;&gt;ExecuteUbergraph_ITM_DeepDive_Codename__167</title>
<path fill="none" stroke="black" d="M2051.44,-866.71C2053.12,-854.21 2055.05,-839.96 2056.97,-825.7"/>
<polygon fill="black" stroke="black" points="2060.44,-826.17 2058.31,-815.79 2053.5,-825.24 2060.44,-826.17"/>
</g>
<!-- ExecuteUbergraph_ITM_DeepDive_Codename__239 -->
<g id="node9" class="node">
<title>ExecuteUbergraph_ITM_DeepDive_Codename__239</title>
<polygon fill="#eeeeee" stroke="black" points="1794.5,-544 1794.5,-612 2363.5,-612 2363.5,-544 1794.5,-544"/>
<text text-anchor="start" x="1802.5" y="-596.8" font-family="monospace" font-size="14.00">EX_Let</text>
<text text-anchor="start" x="1802.5" y="-581.8" font-family="monospace" font-size="14.00">  EX_LocalVariable [CallFunc_TextToUpper_ReturnValue_1]</text>
<text text-anchor="start" x="1802.5" y="-566.8" font-family="monospace" font-size="14.00">  EX_CallMath import /Script/Engine&#45;&gt;KismetTextLibrary&#45;&gt;TextToUpper</text>
<text text-anchor="start" x="1802.5" y="-551.8" font-family="monospace" font-size="14.00">    EX_LocalVariable [CallFunc_GetBiomeName_ReturnValue]</text>
</g>
<!-- ExecuteUbergraph_ITM_DeepDive_Codename__167&#45;&gt;ExecuteUbergraph_ITM_DeepDive_Codename__239 -->
<g id="edge6" class="edge">
<title>ExecuteUbergraph_ITM_DeepDive_Codename__167&#45;&gt;ExecuteUbergraph_ITM_DeepDive_Codename__239</title>
<path fill="none" stroke="black" d="M2072.73,-671.93C2073.85,-655.29 2075.02,-638 2076.04,-622.91"/>
<polygon fill="black" stroke="black" points="2079.5,-623.57 2076.68,-613.36 2072.52,-623.1 2079.5,-623.57"/>
</g>
<!-- ExecuteUbergraph_ITM_DeepDive_Codename__276 -->
<g id="node10" class="node">
<title>ExecuteUbergraph_ITM_DeepDive_Codename__276</title>
<polygon fill="#eeeeee" stroke="black" points="1855.5,-386.5 1855.5,-469.5 2342.5,-469.5 2342.5,-386.5 1855.5,-386.5"/>
<text text-anchor="start" x="1863.5" y="-454.3" font-family="monospace" font-size="14.00">EX_Context</text>
<text text-anchor="start" x="1863.5" y="-439.3" font-family="monospace" font-size="14.00">  EX_InstanceVariable [DATA_MissionBiome]</text>
<text text-anchor="start" x="1863.5" y="-424.3" font-family="monospace" font-size="14.00">  EX_VirtualFunction SetText</text>
<text text-anchor="start" x="1863.5" y="-409.3" font-family="monospace" font-size="14.00">    EX_LocalVariable [CallFunc_TextToUpper_ReturnValue_1]</text>
<text text-anchor="start" x="1863.5" y="-394.3" font-family="monospace" font-size="14.00">  RValue = []</text>
</g>
<!-- ExecuteUbergraph_ITM_DeepDive_Codename__239&#45;&gt;ExecuteUbergraph_ITM_DeepDive_Codename__276 -->
<g id="edge7" class="edge">
<title>ExecuteUbergraph_ITM_DeepDive_Codename__239&#45;&gt;ExecuteUbergraph_ITM_DeepDive_Codename__276</title>
<path fill="none" stroke="black" d="M2083.44,-544.15C2085.95,-525.54 2089.16,-501.84 2092,-480.79"/>
<polygon fill="black" stroke="black" points="2095.47,-481.29 2093.34,-470.91 2088.53,-480.35 2095.47,-481.29"/>
</g>
<!-- ExecuteUbergraph_ITM_DeepDive_Codename__321 -->
<g id="node11" class="node">
<title>ExecuteUbergraph_ITM_DeepDive_Codename__321</title>
<polygon fill="#eeeeee" stroke="black" points="2161.5,-298.5 2161.5,-334.5 2268.5,-334.5 2268.5,-298.5 2161.5,-298.5"/>
<text text-anchor="start" x="2169.5" y="-312.8" font-family="monospace" font-size="14.00">EX_Jump 485</text>
</g>
<!-- ExecuteUbergraph_ITM_DeepDive_Codename__276&#45;&gt;ExecuteUbergraph_ITM_DeepDive_Codename__321 -->
<g id="edge8" class="edge">
<title>ExecuteUbergraph_ITM_DeepDive_Codename__276&#45;&gt;ExecuteUbergraph_ITM_DeepDive_Codename__321</title>
<path fill="none" stroke="black" d="M2141.86,-386.54C2157.68,-371.6 2175.12,-355.15 2189,-342.04"/>
<polygon fill="black" stroke="black" points="2191.16,-344.81 2196.03,-335.4 2186.36,-339.72 2191.16,-344.81"/>
</g>
<!-- ExecuteUbergraph_ITM_DeepDive_Codename__321&#45;&gt;ExecuteUbergraph_ITM_DeepDive_Codename__485 -->
<g id="edge9" class="edge">
<title>ExecuteUbergraph_ITM_DeepDive_Codename__321&#45;&gt;ExecuteUbergraph_ITM_DeepDive_Codename__485</title>
<path fill="none" stroke="black" d="M2220.61,-298.79C2236.86,-250.36 2284.14,-109.46 2304.5,-48.81"/>
<polygon fill="black" stroke="black" points="2307.74,-50.16 2307.6,-39.56 2301.1,-47.93 2307.74,-50.16"/>
</g>
<!-- ExecuteUbergraph_ITM_DeepDive_Codename__326 -->
<g id="node12" class="node">
<title>ExecuteUbergraph_ITM_DeepDive_Codename__326</title>
<polygon fill="#eeeeee" stroke="black" points="2387.5,-521.5 2387.5,-634.5 3146.5,-634.5 3146.5,-521.5 2387.5,-521.5"/>
<text text-anchor="start" x="2395.5" y="-619.3" font-family="monospace" font-size="14.00">EX_Context</text>
<text text-anchor="start" x="2395.5" y="-604.3" font-family="monospace" font-size="14.00">  EX_ObjectConst import /Game/UI/Art/WidgetParts/LIB_MenuColors&#45;&gt;Default__LIB_MenuColors_C</text>
<text text-anchor="start" x="2395.5" y="-589.3" font-family="monospace" font-size="14.00">  EX_LocalVirtualFunction SetTextColor</text>
<text text-anchor="start" x="2395.5" y="-574.3" font-family="monospace" font-size="14.00">    EX_InstanceVariable [TextBlock_1]</text>
<text text-anchor="start" x="2395.5" y="-559.3" font-family="monospace" font-size="14.00">    EX_ByteConst 0</text>
<text text-anchor="start" x="2395.5" y="-544.3" font-family="monospace" font-size="14.00">    EX_Self</text>
<text text-anchor="start" x="2395.5" y="-529.3" font-family="monospace" font-size="14.00">  RValue = []</text>
</g>
<!-- ExecuteUbergraph_ITM_DeepDive_Codename__374 -->
<g id="node13" class="node">
<title>ExecuteUbergraph_ITM_DeepDive_Codename__374</title>
<polygon fill="#eeeeee" stroke="black" points="2370.5,-371.5 2370.5,-484.5 3129.5,-484.5 3129.5,-371.5 2370.5,-371.5"/>
<text text-anchor="start" x="2378.5" y="-469.3" font-family="monospace" font-size="14.00">EX_Context</text>
<text text-anchor="start" x="2378.5" y="-454.3" font-family="monospace" font-size="14.00">  EX_ObjectConst import /Game/UI/Art/WidgetParts/LIB_MenuColors&#45;&gt;Default__LIB_MenuColors_C</text>
<text text-anchor="start" x="2378.5" y="-439.3" font-family="monospace" font-size="14.00">  EX_LocalVirtualFunction SetTextColor</text>
<text text-anchor="start" x="2378.5" y="-424.3" font-family="monospace" font-size="14.00">    EX_InstanceVariable [DATA_MissionBiome]</text>
<text text-anchor="start" x="2378.5" y="-409.3" font-family="monospace" font-size="14.00">    EX_ByteConst 8</text>
<text text-anchor="start" x="2378.5" y="-394.3" font-family="monospace" font-size="14.00">    EX_Self</text>
<text text-anchor="start" x="2378.5" y="-379.3" font-family="monospace" font-size="14.00">  RValue = []</text>
</g>
<!-- ExecuteUbergraph_ITM_DeepDive_Codename__326&#45;&gt;ExecuteUbergraph_ITM_DeepDive_Codename__374 -->
<g id="edge10" class="edge">
<title>ExecuteUbergraph_ITM_DeepDive_Codename__326&#45;&gt;ExecuteUbergraph_ITM_DeepDive_Codename__374</title>
<path fill="none" stroke="black" d="M2760.67,-521.89C2759.69,-513.32 2758.66,-504.38 2757.65,-495.59"/>
<polygon fill="black" stroke="black" points="2761.13,-495.19 2756.51,-485.66 2754.17,-495.99 2761.13,-495.19"/>
</g>
<!-- ExecuteUbergraph_ITM_DeepDive_Codename__422 -->
<g id="node14" class="node">
<title>ExecuteUbergraph_ITM_DeepDive_Codename__422</title>
<polygon fill="#eeeeee" stroke="black" points="2680.5,-298.5 2680.5,-334.5 2779.5,-334.5 2779.5,-298.5 2680.5,-298.5"/>
<text text-anchor="start" x="2688.5" y="-312.8" font-family="monospace" font-size="14.00">EX_Jump 10</text>
</g>
<!-- ExecuteUbergraph_ITM_DeepDive_Codename__374&#45;&gt;ExecuteUbergraph_ITM_DeepDive_Codename__422 -->
<g id="edge11" class="edge">
<title>ExecuteUbergraph_ITM_DeepDive_Codename__374&#45;&gt;ExecuteUbergraph_ITM_DeepDive_Codename__422</title>
<path fill="none" stroke="black" d="M2739.88,-371.61C2738.24,-362.59 2736.59,-353.6 2735.13,-345.6"/>
<polygon fill="black" stroke="black" points="2738.59,-345.07 2733.35,-335.86 2731.71,-346.32 2738.59,-345.07"/>
</g>
<!-- ExecuteUbergraph_ITM_DeepDive_Codename__422&#45;&gt;ExecuteUbergraph_ITM_DeepDive_Codename__10 -->
<g id="edge12" class="edge">
<title>ExecuteUbergraph_ITM_DeepDive_Codename__422&#45;&gt;ExecuteUbergraph_ITM_DeepDive_Codename__10</title>
<path fill="none" stroke="black" d="M2726.96,-298.87C2725.61,-291.48 2723.93,-282.25 2722.15,-272.5"/>
<polygon fill="black" stroke="black" points="2725.62,-272.04 2720.38,-262.83 2718.73,-273.29 2725.62,-272.04"/>
</g>
<!-- ExecuteUbergraph_ITM_DeepDive_Codename__427 -->
<g id="node15" class="node">
<title>ExecuteUbergraph_ITM_DeepDive_Codename__427</title>
<polygon fill="#eeeeee" stroke="black" points="2391.5,-851.5 2391.5,-964.5 3150.5,-964.5 3150.5,-851.5 2391.5,-851.5"/>
<text text-anchor="start" x="2399.5" y="-949.3" font-family="monospace" font-size="14.00">EX_Context</text>
<text text-anchor="start" x="2399.5" y="-934.3" font-family="monospace" font-size="14.00">  EX_ObjectConst import /Game/UI/Art/WidgetParts/LIB_MenuColors&#45;&gt;Default__LIB_MenuColors_C</text>
<text text-anchor="start" x="2399.5" y="-919.3" font-family="monospace" font-size="14.00">  EX_LocalVirtualFunction SetTextColor</text>
<text text-anchor="start" x="2399.5" y="-904.3" font-family="monospace" font-size="14.00">    EX_InstanceVariable [TextBlock_0]</text>
<text text-anchor="start" x="2399.5" y="-889.3" font-family="monospace" font-size="14.00">    EX_ByteConst 0</text>
<text text-anchor="start" x="2399.5" y="-874.3" font-family="monospace" font-size="14.00">    EX_Self</text>
<text text-anchor="start" x="2399.5" y="-859.3" font-family="monospace" font-size="14.00">  RValue = []</text>
</g>
<!-- ExecuteUbergraph_ITM_DeepDive_Codename__475 -->
<g id="node16" class="node">
<title>ExecuteUbergraph_ITM_DeepDive_Codename__475</title>
<polygon fill="#eeeeee" stroke="black" points="2714.5,-725 2714.5,-761 2821.5,-761 2821.5,-725 2714.5,-725"/>
<text text-anchor="start" x="2722.5" y="-739.3" font-family="monospace" font-size="14.00">EX_Jump 326</text>
</g>
<!-- ExecuteUbergraph_ITM_DeepDive_Codename__427&#45;&gt;ExecuteUbergraph_ITM_DeepDive_Codename__475 -->
<g id="edge13" class="edge">
<title>ExecuteUbergraph_ITM_DeepDive_Codename__427&#45;&gt;ExecuteUbergraph_ITM_DeepDive_Codename__475</title>
<path fill="none" stroke="black" d="M2769.98,-851.82C2769.49,-825.13 2768.92,-794.23 2768.52,-772.37"/>
<polygon fill="black" stroke="black" points="2772.02,-772.39 2768.34,-762.46 2765.02,-772.52 2772.02,-772.39"/>
</g>
<!-- ExecuteUbergraph_ITM_DeepDive_Codename__475&#45;&gt;ExecuteUbergraph_ITM_DeepDive_Codename__326 -->
<g id="edge14" class="edge">
<title>ExecuteUbergraph_ITM_DeepDive_Codename__475&#45;&gt;ExecuteUbergraph_ITM_DeepDive_Codename__326</title>
<path fill="none" stroke="black" d="M2767.9,-725.17C2767.78,-706.36 2767.59,-674.71 2767.41,-645.67"/>
<polygon fill="black" stroke="black" points="2770.91,-645.77 2767.35,-635.79 2763.91,-645.81 2770.91,-645.77"/>
</g>
<!-- ExecuteUbergraph_ITM_DeepDive_Codename__480 -->
<g id="node17" class="node">
<title>ExecuteUbergraph_ITM_DeepDive_Codename__480</title>
<polygon fill="#eeeeee" stroke="black" points="2718.5,-1040 2718.5,-1076 2825.5,-1076 2825.5,-1040 2718.5,-1040"/>
<text text-anchor="start" x="2726.5" y="-1054.3" font-family="monospace" font-size="14.00">EX_Jump 427</text>
</g>
<!-- ExecuteUbergraph_ITM_DeepDive_Codename__480&#45;&gt;ExecuteUbergraph_ITM_DeepDive_Codename__427 -->
<g id="edge15" class="edge">
<title>ExecuteUbergraph_ITM_DeepDive_Codename__480&#45;&gt;ExecuteUbergraph_ITM_DeepDive_Codename__427</title>
<path fill="none" stroke="black" d="M2771.89,-1040.02C2771.78,-1024.09 2771.61,-999.22 2771.45,-975.41"/>
<polygon fill="black" stroke="black" points="2774.95,-975.71 2771.38,-965.73 2767.95,-975.76 2774.95,-975.71"/>
</g>
<!-- ExecuteUbergraph_ITM_DeepDive_Codename__487 -->
<g id="node19" class="node">
<title>ExecuteUbergraph_ITM_DeepDive_Codename__487</title>
<polygon fill="#eeeeee" stroke="black" points="3108,-187 3108,-223 3240,-223 3240,-187 3108,-187"/>
<text text-anchor="start" x="3116" y="-201.3" font-family="monospace" font-size="14.00">EX_EndOfScript</text>
</g>
<!-- PreConstruct -->
<g id="node20" class="node">
<title>PreConstruct</title>
<polygon fill="#ff8888" stroke="black" points="2150,-1376.5 2150,-1429.5 2620,-1429.5 2620,-1376.5 2150,-1376.5"/>
<text text-anchor="start" x="2158" y="-1414.3" font-family="monospace" font-size="14.00">Function PreConstruct</text>
<text text-anchor="start" x="2158" y="-1399.3" font-family="monospace" font-size="14.00">  BoolProperty IsDesignTime</text>
<text text-anchor="start" x="2158" y="-1384.3" font-family="monospace" font-size="14.00">    CPF_BlueprintVisible|CPF_BlueprintReadOnly|CPF_Parm</text>
</g>
<!-- PreConstruct__0 -->
<g id="node21" class="node">
<title>PreConstruct__0</title>
<polygon fill="#eeeeee" stroke="black" points="2145.5,-1226.5 2145.5,-1264.5 2624.5,-1264.5 2624.5,-1226.5 2145.5,-1226.5"/>
<text text-anchor="start" x="2153.5" y="-1249.3" font-family="monospace" font-size="14.00">EX_LetValueOnPersistentFrame [K2Node_Event_IsDesignTime]</text>
<text text-anchor="start" x="2153.5" y="-1234.3" font-family="monospace" font-size="14.00">  EX_LocalVariable [IsDesignTime]</text>
</g>
<!-- PreConstruct&#45;&gt;PreConstruct__0 -->
<g id="edge16" class="edge">
<title>PreConstruct&#45;&gt;PreConstruct__0</title>
<path fill="none" stroke="black" d="M2385,-1376.67C2385,-1348.96 2385,-1304.62 2385,-1275.52"/>
<polygon fill="black" stroke="black" points="2388.5,-1275.6 2385,-1265.6 2381.5,-1275.6 2388.5,-1275.6"/>
</g>
<!-- PreConstruct__18 -->
<g id="node22" class="node">
<title>PreConstruct__18</title>
<polygon fill="#eeeeee" stroke="black" points="1997,-1151.5 1997,-1189.5 2773,-1189.5 2773,-1151.5 1997,-1151.5"/>
<text text-anchor="start" x="2005" y="-1174.3" font-family="monospace" font-size="14.00">EX_LocalFinalFunction export ITM_DeepDive_Codename_C&#45;&gt;ExecuteUbergraph_ITM_DeepDive_Codename</text>
<text text-anchor="start" x="2005" y="-1159.3" font-family="monospace" font-size="14.00">  EX_IntConst 480</text>
</g>
<!-- PreConstruct__0&#45;&gt;PreConstruct__18 -->
<g id="edge17" class="edge">
<title>PreConstruct__0&#45;&gt;PreConstruct__18</title>
<path fill="none" stroke="black" d="M2385,-1226.83C2385,-1219 2385,-1209.57 2385,-1200.74"/>
<polygon fill="black" stroke="black" points="2388.5,-1200.78 2385,-1190.78 2381.5,-1200.78 2388.5,-1200.78"/>
</g>
<!-- PreConstruct__18&#45;&gt;ExecuteUbergraph_ITM_DeepDive_Codename__480 -->
<g id="edge18" class="edge">
<title>PreConstruct__18:e&#45;&gt;ExecuteUbergraph_ITM_DeepDive_Codename__480</title>
<path fill="none" stroke="red" d="M2774,-1170.5C2807.57,-1170.5 2794.75,-1119.35 2782.98,-1086.33"/>
<polygon fill="none" stroke="red" points="2786.4,-1085.5 2779.62,-1077.35 2779.84,-1087.94 2786.4,-1085.5"/>
</g>
<!-- PreConstruct__33 -->
<g id="node23" class="node">
<title>PreConstruct__33</title>
<polygon fill="#eeeeee" stroke="black" points="2327,-1039 2327,-1077 2443,-1077 2443,-1039 2327,-1039"/>
<text text-anchor="start" x="2335" y="-1061.8" font-family="monospace" font-size="14.00">EX_Return</text>
<text text-anchor="start" x="2335" y="-1046.8" font-family="monospace" font-size="14.00">  EX_Nothing</text>
</g>
<!-- PreConstruct__18&#45;&gt;PreConstruct__33 -->
<g id="edge19" class="edge">
<title>PreConstruct__18&#45;&gt;PreConstruct__33</title>
<path fill="none" stroke="black" d="M2385,-1151.75C2385,-1134.59 2385,-1108.3 2385,-1088.08"/>
<polygon fill="black" stroke="black" points="2388.5,-1088.22 2385,-1078.22 2381.5,-1088.22 2388.5,-1088.22"/>
</g>
<!-- PreConstruct__35 -->
<g id="node24" class="node">
<title>PreConstruct__35</title>
<polygon fill="#eeeeee" stroke="black" points="2590,-75.5 2590,-111.5 2722,-111.5 2722,-75.5 2590,-75.5"/>
<text text-anchor="start" x="2598" y="-89.8" font-family="monospace" font-size="14.00">EX_EndOfScript</text>
</g>
<!-- SetData -->
<g id="node25" class="node">
<title>SetData</title>
<polygon fill="#ff8888" stroke="black" points="1356,-1376.5 1356,-1429.5 1826,-1429.5 1826,-1376.5 1356,-1376.5"/>
<text text-anchor="start" x="1364" y="-1414.3" font-family="monospace" font-size="14.00">Function SetData</text>
<text text-anchor="start" x="1364" y="-1399.3" font-family="monospace" font-size="14.00">  ObjectProperty DeepDive</text>
<text text-anchor="start" x="1364" y="-1384.3" font-family="monospace" font-size="14.00">    CPF_BlueprintVisible|CPF_BlueprintReadOnly|CPF_Parm</text>
</g>
<!-- SetData__0 -->
<g id="node26" class="node">
<title>SetData__0</title>
<polygon fill="#eeeeee" stroke="black" points="1343.5,-1226.5 1343.5,-1264.5 1838.5,-1264.5 1838.5,-1226.5 1343.5,-1226.5"/>
<text text-anchor="start" x="1351.5" y="-1249.3" font-family="monospace" font-size="14.00">EX_LetValueOnPersistentFrame [K2Node_CustomEvent_DeepDive]</text>
<text text-anchor="start" x="1351.5" y="-1234.3" font-family="monospace" font-size="14.00">  EX_LocalVariable [DeepDive]</text>
</g>
<!-- SetData&#45;&gt;SetData__0 -->
<g id="edge20" class="edge">
<title>SetData&#45;&gt;SetData__0</title>
<path fill="none" stroke="black" d="M1591,-1376.67C1591,-1348.96 1591,-1304.62 1591,-1275.52"/>
<polygon fill="black" stroke="black" points="1594.5,-1275.6 1591,-1265.6 1587.5,-1275.6 1594.5,-1275.6"/>
</g>
<!-- SetData__18 -->
<g id="node27" class="node">
<title>SetData__18</title>
<polygon fill="#eeeeee" stroke="black" points="1203,-1151.5 1203,-1189.5 1979,-1189.5 1979,-1151.5 1203,-1151.5"/>
<text text-anchor="start" x="1211" y="-1174.3" font-family="monospace" font-size="14.00">EX_LocalFinalFunction export ITM_DeepDive_Codename_C&#45;&gt;ExecuteUbergraph_ITM_DeepDive_Codename</text>
<text text-anchor="start" x="1211" y="-1159.3" font-family="monospace" font-size="14.00">  EX_IntConst 63</text>
</g>
<!-- SetData__0&#45;&gt;SetData__18 -->
<g id="edge21" class="edge">
<title>SetData__0&#45;&gt;SetData__18</title>
<path fill="none" stroke="black" d="M1591,-1226.83C1591,-1219 1591,-1209.57 1591,-1200.74"/>
<polygon fill="black" stroke="black" points="1594.5,-1200.78 1591,-1190.78 1587.5,-1200.78 1594.5,-1200.78"/>
</g>
<!-- SetData__18&#45;&gt;ExecuteUbergraph_ITM_DeepDive_Codename__63 -->
<g id="edge22" class="edge">
<title>SetData__18:e&#45;&gt;ExecuteUbergraph_ITM_DeepDive_Codename__63</title>
<path fill="none" stroke="red" d="M1980,-1170.5C1982.74,-1170.5 1987.08,-1149.37 1991.1,-1125.51"/>
<polygon fill="none" stroke="red" points="1994.51,-1126.35 1992.67,-1115.92 1987.6,-1125.22 1994.51,-1126.35"/>
</g>
<!-- SetData__33 -->
<g id="node28" class="node">
<title>SetData__33</title>
<polygon fill="#eeeeee" stroke="black" points="1533,-1039 1533,-1077 1649,-1077 1649,-1039 1533,-1039"/>
<text text-anchor="start" x="1541" y="-1061.8" font-family="monospace" font-size="14.00">EX_Return</text>
<text text-anchor="start" x="1541" y="-1046.8" font-family="monospace" font-size="14.00">  EX_Nothing</text>
</g>
<!-- SetData__18&#45;&gt;SetData__33 -->
<g id="edge23" class="edge">
<title>SetData__18&#45;&gt;SetData__33</title>
<path fill="none" stroke="black" d="M1591,-1151.75C1591,-1134.59 1591,-1108.3 1591,-1088.08"/>
<polygon fill="black" stroke="black" points="1594.5,-1088.22 1591,-1078.22 1587.5,-1088.22 1594.5,-1088.22"/>
</g>
<!-- SetData__35 -->
<g id="node29" class="node">
<title>SetData__35</title>
<polygon fill="#eeeeee" stroke="black" points="2390,-1.5 2390,-37.5 2522,-37.5 2522,-1.5 2390,-1.5"/>
<text text-anchor="start" x="2398" y="-15.8" font-family="monospace" font-size="14.00">EX_EndOfScript</text>
</g>
</g>
</svg>
