<?xml version="1.0" encoding="UTF-8" standalone="no"?>
<!DOCTYPE svg PUBLIC "-//W3C//DTD SVG 1.1//EN"
 "http://www.w3.org/Graphics/SVG/1.1/DTD/svg11.dtd">
<!-- Generated by graphviz version 7.0.1 (0)
 -->
<!-- Pages: 1 -->
<svg width="1690pt" height="377pt"
 viewBox="0.00 0.00 1690.00 377.00" xmlns="http://www.w3.org/2000/svg" xmlns:xlink="http://www.w3.org/1999/xlink">
<g id="graph0" class="graph" transform="scale(1 1) rotate(0) translate(4 373)">
<polygon fill="white" stroke="none" points="-4,4 -4,-373 1686,-373 1686,4 -4,4"/>
<!-- ASI_Maggot_C -->
<g id="node1" class="node">
<title>ASI_Maggot_C</title>
<polygon fill="#88ff88" stroke="black" points="0,-195.5 0,-368.5 652,-368.5 652,-195.5 0,-195.5"/>
<text text-anchor="start" x="8" y="-353.3" font-family="monospace" font-size="14.00">ClassExport: ASI_Maggot_C</text>
<text text-anchor="start" x="8" y="-338.3" font-family="monospace" font-size="14.00">  SuperStruct: import /Script/AnimationSharing&#45;&gt;AnimSharingTransitionInstance</text>
<text text-anchor="start" x="8" y="-323.3" font-family="monospace" font-size="14.00">  Properties:</text>
<text text-anchor="start" x="8" y="-308.3" font-family="monospace" font-size="14.00">    StructProperty UberGraphFrame</text>
<text text-anchor="start" x="8" y="-293.3" font-family="monospace" font-size="14.00">      CPF_Transient|CPF_DuplicateTransient</text>
<text text-anchor="start" x="8" y="-278.3" font-family="monospace" font-size="14.00">    StructProperty AnimGraphNode_Root</text>
<text text-anchor="start" x="8" y="-263.3" font-family="monospace" font-size="14.00">    StructProperty AnimGraphNode_BlendListByBool</text>
<text text-anchor="start" x="8" y="-248.3" font-family="monospace" font-size="14.00">    StructProperty AnimGraphNode_CopyPoseFromMesh_1</text>
<text text-anchor="start" x="8" y="-233.3" font-family="monospace" font-size="14.00">      CPF_ContainsInstancedReference</text>
<text text-anchor="start" x="8" y="-218.3" font-family="monospace" font-size="14.00">    StructProperty AnimGraphNode_CopyPoseFromMesh</text>
<text text-anchor="start" x="8" y="-203.3" font-family="monospace" font-size="14.00">      CPF_ContainsInstancedReference</text>
</g>
<!-- ExecuteUbergraph_ASI_Maggot -->
<g id="node2" class="node">
<title>ExecuteUbergraph_ASI_Maggot</title>
<polygon fill="#ff8888" stroke="black" points="670,-255.5 670,-308.5 1140,-308.5 1140,-255.5 670,-255.5"/>
<text text-anchor="start" x="678" y="-293.3" font-family="monospace" font-size="14.00">Function ExecuteUbergraph_ASI_Maggot</text>
<text text-anchor="start" x="678" y="-278.3" font-family="monospace" font-size="14.00">  IntProperty EntryPoint</text>
<text text-anchor="start" x="678" y="-263.3" font-family="monospace" font-size="14.00">    CPF_BlueprintVisible|CPF_BlueprintReadOnly|CPF_Parm</text>
</g>
<!-- ExecuteUbergraph_ASI_Maggot__0 -->
<g id="node3" class="node">
<title>ExecuteUbergraph_ASI_Maggot__0</title>
<polygon fill="#eeeeee" stroke="black" points="769,-98 769,-136 1041,-136 1041,-98 769,-98"/>
<text text-anchor="start" x="777" y="-120.8" font-family="monospace" font-size="14.00">EX_ComputedJump</text>
<text text-anchor="start" x="777" y="-105.8" font-family="monospace" font-size="14.00">  EX_LocalVariable [EntryPoint]</text>
</g>
<!-- ExecuteUbergraph_ASI_Maggot&#45;&gt;ExecuteUbergraph_ASI_Maggot__0 -->
<g id="edge1" class="edge">
<title>ExecuteUbergraph_ASI_Maggot&#45;&gt;ExecuteUbergraph_ASI_Maggot__0</title>
<path fill="none" stroke="black" d="M905,-255.53C905,-226.13 905,-177.86 905,-147.03"/>
<polygon fill="black" stroke="black" points="908.5,-147.27 905,-137.27 901.5,-147.27 908.5,-147.27"/>
</g>
<!-- ExecuteUbergraph_ASI_Maggot__10 -->
<g id="node4" class="node">
<title>ExecuteUbergraph_ASI_Maggot__10</title>
<polygon fill="#eeeeee" stroke="black" points="1224,-0.5 1224,-38.5 1340,-38.5 1340,-0.5 1224,-0.5"/>
<text text-anchor="start" x="1232" y="-23.3" font-family="monospace" font-size="14.00">EX_Return</text>
<text text-anchor="start" x="1232" y="-8.3" font-family="monospace" font-size="14.00">  EX_Nothing</text>
</g>
<!-- ExecuteUbergraph_ASI_Maggot__12 -->
<g id="node5" class="node">
<title>ExecuteUbergraph_ASI_Maggot__12</title>
<polygon fill="#eeeeee" stroke="black" points="1059,-99 1059,-135 1191,-135 1191,-99 1059,-99"/>
<text text-anchor="start" x="1067" y="-113.3" font-family="monospace" font-size="14.00">EX_EndOfScript</text>
</g>
<!-- AnimGraph -->
<g id="node6" class="node">
<title>AnimGraph</title>
<polygon fill="#ff8888" stroke="black" points="1300.5,-255.5 1300.5,-308.5 1531.5,-308.5 1531.5,-255.5 1300.5,-255.5"/>
<text text-anchor="start" x="1308.5" y="-293.3" font-family="monospace" font-size="14.00">Function AnimGraph</text>
<text text-anchor="start" x="1308.5" y="-278.3" font-family="monospace" font-size="14.00">  StructProperty AnimGraph</text>
<text text-anchor="start" x="1308.5" y="-263.3" font-family="monospace" font-size="14.00">    CPF_Parm|CPF_OutParm</text>
</g>
<!-- AnimGraph__0 -->
<g id="node7" class="node">
<title>AnimGraph__0</title>
<polygon fill="#eeeeee" stroke="black" points="1209.5,-75.5 1209.5,-158.5 1622.5,-158.5 1622.5,-75.5 1209.5,-75.5"/>
<text text-anchor="start" x="1217.5" y="-143.3" font-family="monospace" font-size="14.00">EX_Let</text>
<text text-anchor="start" x="1217.5" y="-128.3" font-family="monospace" font-size="14.00">  EX_LocalOutVariable</text>
<text text-anchor="start" x="1217.5" y="-113.3" font-family="monospace" font-size="14.00">    [AnimGraph]</text>
<text text-anchor="start" x="1217.5" y="-98.3" font-family="monospace" font-size="14.00">  EX_StructConst import /Script/Engine&#45;&gt;PoseLink</text>
<text text-anchor="start" x="1217.5" y="-83.3" font-family="monospace" font-size="14.00">    EX_IntConst &#45;1</text>
</g>
<!-- AnimGraph&#45;&gt;AnimGraph__0 -->
<g id="edge2" class="edge">
<title>AnimGraph&#45;&gt;AnimGraph__0</title>
<path fill="none" stroke="black" d="M1416,-255.53C1416,-232.63 1416,-198.29 1416,-169.65"/>
<polygon fill="black" stroke="black" points="1419.5,-169.7 1416,-159.7 1412.5,-169.7 1419.5,-169.7"/>
</g>
<!-- AnimGraph__37 -->
<g id="node8" class="node">
<title>AnimGraph__37</title>
<polygon fill="#eeeeee" stroke="black" points="1358,-0.5 1358,-38.5 1474,-38.5 1474,-0.5 1358,-0.5"/>
<text text-anchor="start" x="1366" y="-23.3" font-family="monospace" font-size="14.00">EX_Return</text>
<text text-anchor="start" x="1366" y="-8.3" font-family="monospace" font-size="14.00">  EX_Nothing</text>
</g>
<!-- AnimGraph__0&#45;&gt;AnimGraph__37 -->
<g id="edge3" class="edge">
<title>AnimGraph__0&#45;&gt;AnimGraph__37</title>
<path fill="none" stroke="black" d="M1416,-75.78C1416,-67.01 1416,-57.89 1416,-49.65"/>
<polygon fill="black" stroke="black" points="1419.5,-49.86 1416,-39.86 1412.5,-49.86 1419.5,-49.86"/>
</g>
<!-- AnimGraph__39 -->
<g id="node9" class="node">
<title>AnimGraph__39</title>
<polygon fill="#eeeeee" stroke="black" points="1550,-264 1550,-300 1682,-300 1682,-264 1550,-264"/>
<text text-anchor="start" x="1558" y="-278.3" font-family="monospace" font-size="14.00">EX_EndOfScript</text>
</g>
</g>
</svg>
