<?xml version="1.0" encoding="UTF-8" standalone="no"?>
<!DOCTYPE svg PUBLIC "-//W3C//DTD SVG 1.1//EN"
 "http://www.w3.org/Graphics/SVG/1.1/DTD/svg11.dtd">
<!-- Generated by graphviz version 7.0.1 (0)
 -->
<!-- Pages: 1 -->
<svg width="1837pt" height="302pt"
 viewBox="0.00 0.00 1837.00 302.00" xmlns="http://www.w3.org/2000/svg" xmlns:xlink="http://www.w3.org/1999/xlink">
<g id="graph0" class="graph" transform="scale(1 1) rotate(0) translate(4 298)">
<polygon fill="white" stroke="none" points="-4,4 -4,-298 1833,-298 1833,4 -4,4"/>
<!-- ESI_PlagueLarva_C -->
<g id="node1" class="node">
<title>ESI_PlagueLarva_C</title>
<polygon fill="#88ff88" stroke="black" points="0,-150.5 0,-293.5 594,-293.5 594,-150.5 0,-150.5"/>
<text text-anchor="start" x="8" y="-278.3" font-family="monospace" font-size="14.00">ClassExport: ESI_PlagueLarva_C</text>
<text text-anchor="start" x="8" y="-263.3" font-family="monospace" font-size="14.00">  SuperStruct: import /Script/FSD&#45;&gt;EnemyShowroomItem</text>
<text text-anchor="start" x="8" y="-248.3" font-family="monospace" font-size="14.00">  Properties:</text>
<text text-anchor="start" x="8" y="-233.3" font-family="monospace" font-size="14.00">    StructProperty UberGraphFrame</text>
<text text-anchor="start" x="8" y="-218.3" font-family="monospace" font-size="14.00">      CPF_Transient|CPF_DuplicateTransient</text>
<text text-anchor="start" x="8" y="-203.3" font-family="monospace" font-size="14.00">    ObjectProperty SkeletalMesh</text>
<text text-anchor="start" x="8" y="-188.3" font-family="monospace" font-size="14.00">      CPF_BlueprintVisible|CPF_InstancedReference|CPF_NonTransactional</text>
<text text-anchor="start" x="8" y="-173.3" font-family="monospace" font-size="14.00">    ObjectProperty DefaultSceneRoot</text>
<text text-anchor="start" x="8" y="-158.3" font-family="monospace" font-size="14.00">      CPF_BlueprintVisible|CPF_InstancedReference|CPF_NonTransactional</text>
</g>
<!-- ExecuteUbergraph_ESI_PlagueLarva -->
<g id="node2" class="node">
<title>ExecuteUbergraph_ESI_PlagueLarva</title>
<polygon fill="#ff8888" stroke="black" points="612,-195.5 612,-248.5 1082,-248.5 1082,-195.5 612,-195.5"/>
<text text-anchor="start" x="620" y="-233.3" font-family="monospace" font-size="14.00">Function ExecuteUbergraph_ESI_PlagueLarva</text>
<text text-anchor="start" x="620" y="-218.3" font-family="monospace" font-size="14.00">  IntProperty EntryPoint</text>
<text text-anchor="start" x="620" y="-203.3" font-family="monospace" font-size="14.00">    CPF_BlueprintVisible|CPF_BlueprintReadOnly|CPF_Parm</text>
</g>
<!-- ExecuteUbergraph_ESI_PlagueLarva__0 -->
<g id="node3" class="node">
<title>ExecuteUbergraph_ESI_PlagueLarva__0</title>
<polygon fill="#eeeeee" stroke="black" points="711,-75.5 711,-113.5 983,-113.5 983,-75.5 711,-75.5"/>
<text text-anchor="start" x="719" y="-98.3" font-family="monospace" font-size="14.00">EX_ComputedJump</text>
<text text-anchor="start" x="719" y="-83.3" font-family="monospace" font-size="14.00">  EX_LocalVariable [EntryPoint]</text>
</g>
<!-- ExecuteUbergraph_ESI_PlagueLarva&#45;&gt;ExecuteUbergraph_ESI_PlagueLarva__0 -->
<g id="edge1" class="edge">
<title>ExecuteUbergraph_ESI_PlagueLarva&#45;&gt;ExecuteUbergraph_ESI_PlagueLarva__0</title>
<path fill="none" stroke="black" d="M847,-195.6C847,-175.03 847,-146.04 847,-124.54"/>
<polygon fill="black" stroke="black" points="850.5,-124.69 847,-114.69 843.5,-124.69 850.5,-124.69"/>
</g>
<!-- ExecuteUbergraph_ESI_PlagueLarva__10 -->
<g id="node4" class="node">
<title>ExecuteUbergraph_ESI_PlagueLarva__10</title>
<polygon fill="#eeeeee" stroke="black" points="1621,-0.5 1621,-38.5 1737,-38.5 1737,-0.5 1621,-0.5"/>
<text text-anchor="start" x="1629" y="-23.3" font-family="monospace" font-size="14.00">EX_Return</text>
<text text-anchor="start" x="1629" y="-8.3" font-family="monospace" font-size="14.00">  EX_Nothing</text>
</g>
<!-- ExecuteUbergraph_ESI_PlagueLarva__12 -->
<g id="node5" class="node">
<title>ExecuteUbergraph_ESI_PlagueLarva__12</title>
<polygon fill="#eeeeee" stroke="black" points="1697,-76.5 1697,-112.5 1829,-112.5 1829,-76.5 1697,-76.5"/>
<text text-anchor="start" x="1705" y="-90.8" font-family="monospace" font-size="14.00">EX_EndOfScript</text>
</g>
<!-- ReceiveBeginPlay -->
<g id="node6" class="node">
<title>ReceiveBeginPlay</title>
<polygon fill="#ff8888" stroke="black" points="1228.5,-204 1228.5,-240 1451.5,-240 1451.5,-204 1228.5,-204"/>
<text text-anchor="start" x="1236.5" y="-218.3" font-family="monospace" font-size="14.00">Function ReceiveBeginPlay</text>
</g>
<!-- ReceiveBeginPlay__0 -->
<g id="node7" class="node">
<title>ReceiveBeginPlay__0</title>
<polygon fill="#eeeeee" stroke="black" points="1001.5,-75.5 1001.5,-113.5 1678.5,-113.5 1678.5,-75.5 1001.5,-75.5"/>
<text text-anchor="start" x="1009.5" y="-98.3" font-family="monospace" font-size="14.00">EX_LocalFinalFunction export ESI_PlagueLarva_C&#45;&gt;ExecuteUbergraph_ESI_PlagueLarva</text>
<text text-anchor="start" x="1009.5" y="-83.3" font-family="monospace" font-size="14.00">  EX_IntConst 10</text>
</g>
<!-- ReceiveBeginPlay&#45;&gt;ReceiveBeginPlay__0 -->
<g id="edge2" class="edge">
<title>ReceiveBeginPlay&#45;&gt;ReceiveBeginPlay__0</title>
<path fill="none" stroke="black" d="M1340,-204.07C1340,-183.72 1340,-149.22 1340,-124.57"/>
<polygon fill="black" stroke="black" points="1343.5,-124.88 1340,-114.88 1336.5,-124.88 1343.5,-124.88"/>
</g>
<!-- ReceiveBeginPlay__0&#45;&gt;ExecuteUbergraph_ESI_PlagueLarva__10 -->
<g id="edge3" class="edge">
<title>ReceiveBeginPlay__0:e&#45;&gt;ExecuteUbergraph_ESI_PlagueLarva__10</title>
<path fill="none" stroke="red" d="M1680,-94.5C1689.39,-94.5 1687.73,-70.39 1684.58,-49.69"/>
<polygon fill="none" stroke="red" points="1688.05,-49.19 1682.93,-39.91 1681.14,-50.35 1688.05,-49.19"/>
</g>
<!-- ReceiveBeginPlay__15 -->
<g id="node8" class="node">
<title>ReceiveBeginPlay__15</title>
<polygon fill="#eeeeee" stroke="black" points="1282,-0.5 1282,-38.5 1398,-38.5 1398,-0.5 1282,-0.5"/>
<text text-anchor="start" x="1290" y="-23.3" font-family="monospace" font-size="14.00">EX_Return</text>
<text text-anchor="start" x="1290" y="-8.3" font-family="monospace" font-size="14.00">  EX_Nothing</text>
</g>
<!-- ReceiveBeginPlay__0&#45;&gt;ReceiveBeginPlay__15 -->
<g id="edge4" class="edge">
<title>ReceiveBeginPlay__0&#45;&gt;ReceiveBeginPlay__15</title>
<path fill="none" stroke="black" d="M1340,-75.83C1340,-68 1340,-58.57 1340,-49.74"/>
<polygon fill="black" stroke="black" points="1343.5,-49.78 1340,-39.78 1336.5,-49.78 1343.5,-49.78"/>
</g>
<!-- ReceiveBeginPlay__17 -->
<g id="node9" class="node">
<title>ReceiveBeginPlay__17</title>
<polygon fill="#eeeeee" stroke="black" points="1470,-204 1470,-240 1602,-240 1602,-204 1470,-204"/>
<text text-anchor="start" x="1478" y="-218.3" font-family="monospace" font-size="14.00">EX_EndOfScript</text>
</g>
</g>
</svg>
