<?xml version="1.0" encoding="UTF-8" standalone="no"?>
<!DOCTYPE svg PUBLIC "-//W3C//DTD SVG 1.1//EN"
 "http://www.w3.org/Graphics/SVG/1.1/DTD/svg11.dtd">
<!-- Generated by graphviz version 7.0.1 (0)
 -->
<!-- Pages: 1 -->
<svg width="5102pt" height="452pt"
 viewBox="0.00 0.00 5101.65 452.00" xmlns="http://www.w3.org/2000/svg" xmlns:xlink="http://www.w3.org/1999/xlink">
<g id="graph0" class="graph" transform="scale(1 1) rotate(0) translate(4 448)">
<polygon fill="white" stroke="none" points="-4,4 -4,-448 5097.65,-448 5097.65,4 -4,4"/>
<!-- WND_Jobs_Entry_Base_C -->
<g id="node1" class="node">
<title>WND_Jobs_Entry_Base_C</title>
<polygon fill="#88ff88" stroke="black" points="0,-300.5 0,-443.5 899,-443.5 899,-300.5 0,-300.5"/>
<text text-anchor="start" x="8" y="-428.3" font-family="monospace" font-size="14.00">ClassExport: WND_Jobs_Entry_Base_C</text>
<text text-anchor="start" x="8" y="-413.3" font-family="monospace" font-size="14.00">  SuperStruct: import /Script/UMG&#45;&gt;UserWidget</text>
<text text-anchor="start" x="8" y="-398.3" font-family="monospace" font-size="14.00">  Properties:</text>
<text text-anchor="start" x="8" y="-383.3" font-family="monospace" font-size="14.00">    StructProperty UberGraphFrame</text>
<text text-anchor="start" x="8" y="-368.3" font-family="monospace" font-size="14.00">      CPF_Transient|CPF_DuplicateTransient</text>
<text text-anchor="start" x="8" y="-353.3" font-family="monospace" font-size="14.00">    MulticastInlineDelegateProperty Unfolded</text>
<text text-anchor="start" x="8" y="-338.3" font-family="monospace" font-size="14.00">      CPF_Edit|CPF_BlueprintVisible|CPF_DisableEditOnInstance|CPF_BlueprintAssignable|CPF_BlueprintCallable</text>
<text text-anchor="start" x="8" y="-323.3" font-family="monospace" font-size="14.00">    MulticastInlineDelegateProperty Updated</text>
<text text-anchor="start" x="8" y="-308.3" font-family="monospace" font-size="14.00">      CPF_Edit|CPF_BlueprintVisible|CPF_DisableEditOnInstance|CPF_BlueprintAssignable|CPF_BlueprintCallable</text>
</g>
<!-- Unfolded__DelegateSignature -->
<g id="node2" class="node">
<title>Unfolded__DelegateSignature</title>
<polygon fill="#ff8888" stroke="black" points="917.5,-345.5 917.5,-398.5 1577.5,-398.5 1577.5,-345.5 917.5,-345.5"/>
<text text-anchor="start" x="925.5" y="-383.3" font-family="monospace" font-size="14.00">Function Unfolded__DelegateSignature</text>
<text text-anchor="start" x="925.5" y="-368.3" font-family="monospace" font-size="14.00">  ObjectProperty Entry</text>
<text text-anchor="start" x="925.5" y="-353.3" font-family="monospace" font-size="14.00">    CPF_BlueprintVisible|CPF_BlueprintReadOnly|CPF_Parm|CPF_InstancedReference</text>
</g>
<!-- Unfolded__DelegateSignature__0 -->
<g id="node3" class="node">
<title>Unfolded__DelegateSignature__0</title>
<polygon fill="#eeeeee" stroke="black" points="1189.5,-225.5 1189.5,-263.5 1305.5,-263.5 1305.5,-225.5 1189.5,-225.5"/>
<text text-anchor="start" x="1197.5" y="-248.3" font-family="monospace" font-size="14.00">EX_Return</text>
<text text-anchor="start" x="1197.5" y="-233.3" font-family="monospace" font-size="14.00">  EX_Nothing</text>
</g>
<!-- Unfolded__DelegateSignature&#45;&gt;Unfolded__DelegateSignature__0 -->
<g id="edge1" class="edge">
<title>Unfolded__DelegateSignature&#45;&gt;Unfolded__DelegateSignature__0</title>
<path fill="none" stroke="black" d="M1247.5,-345.6C1247.5,-325.03 1247.5,-296.04 1247.5,-274.54"/>
<polygon fill="black" stroke="black" points="1251,-274.69 1247.5,-264.69 1244,-274.69 1251,-274.69"/>
</g>
<!-- Unfolded__DelegateSignature__2 -->
<g id="node4" class="node">
<title>Unfolded__DelegateSignature__2</title>
<polygon fill="#eeeeee" stroke="black" points="3937.5,-1.5 3937.5,-37.5 4069.5,-37.5 4069.5,-1.5 3937.5,-1.5"/>
<text text-anchor="start" x="3945.5" y="-15.8" font-family="monospace" font-size="14.00">EX_EndOfScript</text>
</g>
<!-- Updated__DelegateSignature -->
<g id="node5" class="node">
<title>Updated__DelegateSignature</title>
<polygon fill="#ff8888" stroke="black" points="1596,-354 1596,-390 1901,-390 1901,-354 1596,-354"/>
<text text-anchor="start" x="1604" y="-368.3" font-family="monospace" font-size="14.00">Function Updated__DelegateSignature</text>
</g>
<!-- Updated__DelegateSignature__0 -->
<g id="node6" class="node">
<title>Updated__DelegateSignature__0</title>
<polygon fill="#eeeeee" stroke="black" points="1690.5,-225.5 1690.5,-263.5 1806.5,-263.5 1806.5,-225.5 1690.5,-225.5"/>
<text text-anchor="start" x="1698.5" y="-248.3" font-family="monospace" font-size="14.00">EX_Return</text>
<text text-anchor="start" x="1698.5" y="-233.3" font-family="monospace" font-size="14.00">  EX_Nothing</text>
</g>
<!-- Updated__DelegateSignature&#45;&gt;Updated__DelegateSignature__0 -->
<g id="edge2" class="edge">
<title>Updated__DelegateSignature&#45;&gt;Updated__DelegateSignature__0</title>
<path fill="none" stroke="black" d="M1748.5,-354.07C1748.5,-333.72 1748.5,-299.22 1748.5,-274.57"/>
<polygon fill="black" stroke="black" points="1752,-274.88 1748.5,-264.88 1745,-274.88 1752,-274.88"/>
</g>
<!-- Updated__DelegateSignature__2 -->
<g id="node7" class="node">
<title>Updated__DelegateSignature__2</title>
<polygon fill="#eeeeee" stroke="black" points="3076.5,-76.5 3076.5,-112.5 3208.5,-112.5 3208.5,-76.5 3076.5,-76.5"/>
<text text-anchor="start" x="3084.5" y="-90.8" font-family="monospace" font-size="14.00">EX_EndOfScript</text>
</g>
<!-- ExecuteUbergraph_WND_Jobs_Entry_Base -->
<g id="node8" class="node">
<title>ExecuteUbergraph_WND_Jobs_Entry_Base</title>
<polygon fill="#ff8888" stroke="black" points="1919.5,-338 1919.5,-406 2389.5,-406 2389.5,-338 1919.5,-338"/>
<text text-anchor="start" x="1927.5" y="-390.8" font-family="monospace" font-size="14.00">Function ExecuteUbergraph_WND_Jobs_Entry_Base</text>
<text text-anchor="start" x="1927.5" y="-375.8" font-family="monospace" font-size="14.00">  IntProperty EntryPoint</text>
<text text-anchor="start" x="1927.5" y="-360.8" font-family="monospace" font-size="14.00">    CPF_BlueprintVisible|CPF_BlueprintReadOnly|CPF_Parm</text>
<text text-anchor="start" x="1927.5" y="-345.8" font-family="monospace" font-size="14.00">  ObjectProperty K2Node_CustomEvent_Campaign</text>
</g>
<!-- ExecuteUbergraph_WND_Jobs_Entry_Base__0 -->
<g id="node9" class="node">
<title>ExecuteUbergraph_WND_Jobs_Entry_Base__0</title>
<polygon fill="#eeeeee" stroke="black" points="2018.5,-225.5 2018.5,-263.5 2290.5,-263.5 2290.5,-225.5 2018.5,-225.5"/>
<text text-anchor="start" x="2026.5" y="-248.3" font-family="monospace" font-size="14.00">EX_ComputedJump</text>
<text text-anchor="start" x="2026.5" y="-233.3" font-family="monospace" font-size="14.00">  EX_LocalVariable [EntryPoint]</text>
</g>
<!-- ExecuteUbergraph_WND_Jobs_Entry_Base&#45;&gt;ExecuteUbergraph_WND_Jobs_Entry_Base__0 -->
<g id="edge3" class="edge">
<title>ExecuteUbergraph_WND_Jobs_Entry_Base&#45;&gt;ExecuteUbergraph_WND_Jobs_Entry_Base__0</title>
<path fill="none" stroke="black" d="M2154.5,-338.03C2154.5,-318.37 2154.5,-293.63 2154.5,-274.68"/>
<polygon fill="black" stroke="black" points="2158,-274.69 2154.5,-264.69 2151,-274.69 2158,-274.69"/>
</g>
<!-- ExecuteUbergraph_WND_Jobs_Entry_Base__10 -->
<g id="node10" class="node">
<title>ExecuteUbergraph_WND_Jobs_Entry_Base__10</title>
<polygon fill="#eeeeee" stroke="black" points="4459,-76.5 4459,-112.5 4558,-112.5 4558,-76.5 4459,-76.5"/>
<text text-anchor="start" x="4467" y="-90.8" font-family="monospace" font-size="14.00">EX_Jump 25</text>
</g>
<!-- ExecuteUbergraph_WND_Jobs_Entry_Base__25 -->
<g id="node13" class="node">
<title>ExecuteUbergraph_WND_Jobs_Entry_Base__25</title>
<polygon fill="#eeeeee" stroke="black" points="4087.5,-0.5 4087.5,-38.5 4203.5,-38.5 4203.5,-0.5 4087.5,-0.5"/>
<text text-anchor="start" x="4095.5" y="-23.3" font-family="monospace" font-size="14.00">EX_Return</text>
<text text-anchor="start" x="4095.5" y="-8.3" font-family="monospace" font-size="14.00">  EX_Nothing</text>
</g>
<!-- ExecuteUbergraph_WND_Jobs_Entry_Base__10&#45;&gt;ExecuteUbergraph_WND_Jobs_Entry_Base__25 -->
<g id="edge4" class="edge">
<title>ExecuteUbergraph_WND_Jobs_Entry_Base__10&#45;&gt;ExecuteUbergraph_WND_Jobs_Entry_Base__25</title>
<path fill="none" stroke="black" d="M4459.26,-85.79C4402.6,-76.61 4306.57,-60.15 4214.38,-39.33"/>
<polygon fill="black" stroke="black" points="4215.17,-35.92 4204.64,-37.1 4213.61,-42.74 4215.17,-35.92"/>
</g>
<!-- ExecuteUbergraph_WND_Jobs_Entry_Base__15 -->
<g id="node11" class="node">
<title>ExecuteUbergraph_WND_Jobs_Entry_Base__15</title>
<polygon fill="#eeeeee" stroke="black" points="3007,-151.5 3007,-187.5 3106,-187.5 3106,-151.5 3007,-151.5"/>
<text text-anchor="start" x="3015" y="-165.8" font-family="monospace" font-size="14.00">EX_Jump 25</text>
</g>
<!-- ExecuteUbergraph_WND_Jobs_Entry_Base__15&#45;&gt;ExecuteUbergraph_WND_Jobs_Entry_Base__25 -->
<g id="edge5" class="edge">
<title>ExecuteUbergraph_WND_Jobs_Entry_Base__15&#45;&gt;ExecuteUbergraph_WND_Jobs_Entry_Base__25</title>
<path fill="none" stroke="black" d="M3105.86,-153.07C3177.61,-131.38 3315.3,-92.58 3435.5,-75 3715.12,-34.11 3794.06,-84.06 4076.56,-39.09"/>
<polygon fill="black" stroke="black" points="4076.76,-42.61 4086.07,-37.55 4075.64,-35.7 4076.76,-42.61"/>
</g>
<!-- ExecuteUbergraph_WND_Jobs_Entry_Base__20 -->
<g id="node12" class="node">
<title>ExecuteUbergraph_WND_Jobs_Entry_Base__20</title>
<polygon fill="#eeeeee" stroke="black" points="4010,-76.5 4010,-112.5 4109,-112.5 4109,-76.5 4010,-76.5"/>
<text text-anchor="start" x="4018" y="-90.8" font-family="monospace" font-size="14.00">EX_Jump 25</text>
</g>
<!-- ExecuteUbergraph_WND_Jobs_Entry_Base__20&#45;&gt;ExecuteUbergraph_WND_Jobs_Entry_Base__25 -->
<g id="edge6" class="edge">
<title>ExecuteUbergraph_WND_Jobs_Entry_Base__20&#45;&gt;ExecuteUbergraph_WND_Jobs_Entry_Base__25</title>
<path fill="none" stroke="black" d="M4079.45,-76.57C4090.31,-67.35 4103.95,-55.77 4116.02,-45.53"/>
<polygon fill="black" stroke="black" points="4117.95,-48.48 4123.31,-39.34 4113.42,-43.14 4117.95,-48.48"/>
</g>
<!-- ExecuteUbergraph_WND_Jobs_Entry_Base__27 -->
<g id="node14" class="node">
<title>ExecuteUbergraph_WND_Jobs_Entry_Base__27</title>
<polygon fill="#eeeeee" stroke="black" points="4221.5,-1.5 4221.5,-37.5 4353.5,-37.5 4353.5,-1.5 4221.5,-1.5"/>
<text text-anchor="start" x="4229.5" y="-15.8" font-family="monospace" font-size="14.00">EX_EndOfScript</text>
</g>
<!-- Unfold -->
<g id="node15" class="node">
<title>Unfold</title>
<polygon fill="#ff8888" stroke="black" points="4645.5,-354 4645.5,-390 4785.5,-390 4785.5,-354 4645.5,-354"/>
<text text-anchor="start" x="4653.5" y="-368.3" font-family="monospace" font-size="14.00">Function Unfold</text>
</g>
<!-- Unfold__0 -->
<g id="node16" class="node">
<title>Unfold__0</title>
<polygon fill="#eeeeee" stroke="black" points="4344,-225.5 4344,-263.5 5087,-263.5 5087,-225.5 4344,-225.5"/>
<text text-anchor="start" x="4352" y="-248.3" font-family="monospace" font-size="14.00">EX_LocalFinalFunction export WND_Jobs_Entry_Base_C&#45;&gt;ExecuteUbergraph_WND_Jobs_Entry_Base</text>
<text text-anchor="start" x="4352" y="-233.3" font-family="monospace" font-size="14.00">  EX_IntConst 10</text>
</g>
<!-- Unfold&#45;&gt;Unfold__0 -->
<g id="edge7" class="edge">
<title>Unfold&#45;&gt;Unfold__0</title>
<path fill="none" stroke="black" d="M4715.5,-354.07C4715.5,-333.72 4715.5,-299.22 4715.5,-274.57"/>
<polygon fill="black" stroke="black" points="4719,-274.88 4715.5,-264.88 4712,-274.88 4719,-274.88"/>
</g>
<!-- Unfold__0&#45;&gt;ExecuteUbergraph_WND_Jobs_Entry_Base__10 -->
<g id="edge8" class="edge">
<title>Unfold__0:e&#45;&gt;ExecuteUbergraph_WND_Jobs_Entry_Base__10</title>
<path fill="none" stroke="red" d="M5088.5,-244.5C5097.18,-244.5 5093.03,-231.69 5087.5,-225 4939.34,-45.66 4801.7,-165.13 4569.09,-114.11"/>
<polygon fill="none" stroke="red" points="4569.94,-110.71 4559.41,-111.88 4568.37,-117.53 4569.94,-110.71"/>
</g>
<!-- Unfold__15 -->
<g id="node17" class="node">
<title>Unfold__15</title>
<polygon fill="#eeeeee" stroke="black" points="4657.5,-150.5 4657.5,-188.5 4773.5,-188.5 4773.5,-150.5 4657.5,-150.5"/>
<text text-anchor="start" x="4665.5" y="-173.3" font-family="monospace" font-size="14.00">EX_Return</text>
<text text-anchor="start" x="4665.5" y="-158.3" font-family="monospace" font-size="14.00">  EX_Nothing</text>
</g>
<!-- Unfold__0&#45;&gt;Unfold__15 -->
<g id="edge9" class="edge">
<title>Unfold__0&#45;&gt;Unfold__15</title>
<path fill="none" stroke="black" d="M4715.5,-225.83C4715.5,-218 4715.5,-208.57 4715.5,-199.74"/>
<polygon fill="black" stroke="black" points="4719,-199.78 4715.5,-189.78 4712,-199.78 4719,-199.78"/>
</g>
<!-- Unfold__17 -->
<g id="node18" class="node">
<title>Unfold__17</title>
<polygon fill="#eeeeee" stroke="black" points="4576.5,-76.5 4576.5,-112.5 4708.5,-112.5 4708.5,-76.5 4576.5,-76.5"/>
<text text-anchor="start" x="4584.5" y="-90.8" font-family="monospace" font-size="14.00">EX_EndOfScript</text>
</g>
<!-- Refresh -->
<g id="node19" class="node">
<title>Refresh</title>
<polygon fill="#ff8888" stroke="black" points="3880,-354 3880,-390 4029,-390 4029,-354 3880,-354"/>
<text text-anchor="start" x="3888" y="-368.3" font-family="monospace" font-size="14.00">Function Refresh</text>
</g>
<!-- Refresh__0 -->
<g id="node20" class="node">
<title>Refresh__0</title>
<polygon fill="#eeeeee" stroke="black" points="3583,-225.5 3583,-263.5 4326,-263.5 4326,-225.5 3583,-225.5"/>
<text text-anchor="start" x="3591" y="-248.3" font-family="monospace" font-size="14.00">EX_LocalFinalFunction export WND_Jobs_Entry_Base_C&#45;&gt;ExecuteUbergraph_WND_Jobs_Entry_Base</text>
<text text-anchor="start" x="3591" y="-233.3" font-family="monospace" font-size="14.00">  EX_IntConst 25</text>
</g>
<!-- Refresh&#45;&gt;Refresh__0 -->
<g id="edge10" class="edge">
<title>Refresh&#45;&gt;Refresh__0</title>
<path fill="none" stroke="black" d="M3954.5,-354.07C3954.5,-333.72 3954.5,-299.22 3954.5,-274.57"/>
<polygon fill="black" stroke="black" points="3958,-274.88 3954.5,-264.88 3951,-274.88 3958,-274.88"/>
</g>
<!-- Refresh__0&#45;&gt;ExecuteUbergraph_WND_Jobs_Entry_Base__25 -->
<g id="edge11" class="edge">
<title>Refresh__0:e&#45;&gt;ExecuteUbergraph_WND_Jobs_Entry_Base__25</title>
<path fill="none" stroke="red" d="M4327.5,-244.5C4336.18,-244.5 4329.78,-233.03 4326.5,-225 4295.01,-147.92 4221.55,-80.36 4178.52,-45.53"/>
<polygon fill="none" stroke="red" points="4180.75,-42.83 4170.75,-39.34 4176.39,-48.31 4180.75,-42.83"/>
</g>
<!-- Refresh__15 -->
<g id="node21" class="node">
<title>Refresh__15</title>
<polygon fill="#eeeeee" stroke="black" points="3896.5,-150.5 3896.5,-188.5 4012.5,-188.5 4012.5,-150.5 3896.5,-150.5"/>
<text text-anchor="start" x="3904.5" y="-173.3" font-family="monospace" font-size="14.00">EX_Return</text>
<text text-anchor="start" x="3904.5" y="-158.3" font-family="monospace" font-size="14.00">  EX_Nothing</text>
</g>
<!-- Refresh__0&#45;&gt;Refresh__15 -->
<g id="edge12" class="edge">
<title>Refresh__0&#45;&gt;Refresh__15</title>
<path fill="none" stroke="black" d="M3954.5,-225.83C3954.5,-218 3954.5,-208.57 3954.5,-199.74"/>
<polygon fill="black" stroke="black" points="3958,-199.78 3954.5,-189.78 3951,-199.78 3958,-199.78"/>
</g>
<!-- Refresh__17 -->
<g id="node22" class="node">
<title>Refresh__17</title>
<polygon fill="#eeeeee" stroke="black" points="4371.5,-1.5 4371.5,-37.5 4503.5,-37.5 4503.5,-1.5 4371.5,-1.5"/>
<text text-anchor="start" x="4379.5" y="-15.8" font-family="monospace" font-size="14.00">EX_EndOfScript</text>
</g>
<!-- SetData -->
<g id="node23" class="node">
<title>SetData</title>
<polygon fill="#ff8888" stroke="black" points="3082.5,-345.5 3082.5,-398.5 3552.5,-398.5 3552.5,-345.5 3082.5,-345.5"/>
<text text-anchor="start" x="3090.5" y="-383.3" font-family="monospace" font-size="14.00">Function SetData</text>
<text text-anchor="start" x="3090.5" y="-368.3" font-family="monospace" font-size="14.00">  ObjectProperty Campaign</text>
<text text-anchor="start" x="3090.5" y="-353.3" font-family="monospace" font-size="14.00">    CPF_BlueprintVisible|CPF_BlueprintReadOnly|CPF_Parm</text>
</g>
<!-- SetData__0 -->
<g id="node24" class="node">
<title>SetData__0</title>
<polygon fill="#eeeeee" stroke="black" points="3070,-225.5 3070,-263.5 3565,-263.5 3565,-225.5 3070,-225.5"/>
<text text-anchor="start" x="3078" y="-248.3" font-family="monospace" font-size="14.00">EX_LetValueOnPersistentFrame [K2Node_CustomEvent_Campaign]</text>
<text text-anchor="start" x="3078" y="-233.3" font-family="monospace" font-size="14.00">  EX_LocalVariable [Campaign]</text>
</g>
<!-- SetData&#45;&gt;SetData__0 -->
<g id="edge13" class="edge">
<title>SetData&#45;&gt;SetData__0</title>
<path fill="none" stroke="black" d="M3317.5,-345.6C3317.5,-325.03 3317.5,-296.04 3317.5,-274.54"/>
<polygon fill="black" stroke="black" points="3321,-274.69 3317.5,-264.69 3314,-274.69 3321,-274.69"/>
</g>
<!-- SetData__18 -->
<g id="node25" class="node">
<title>SetData__18</title>
<polygon fill="#eeeeee" stroke="black" points="3131,-150.5 3131,-188.5 3874,-188.5 3874,-150.5 3131,-150.5"/>
<text text-anchor="start" x="3139" y="-173.3" font-family="monospace" font-size="14.00">EX_LocalFinalFunction export WND_Jobs_Entry_Base_C&#45;&gt;ExecuteUbergraph_WND_Jobs_Entry_Base</text>
<text text-anchor="start" x="3139" y="-158.3" font-family="monospace" font-size="14.00">  EX_IntConst 20</text>
</g>
<!-- SetData__0&#45;&gt;SetData__18 -->
<g id="edge14" class="edge">
<title>SetData__0&#45;&gt;SetData__18</title>
<path fill="none" stroke="black" d="M3362.76,-225.64C3388.06,-215.66 3419.82,-203.12 3446.67,-192.53"/>
<polygon fill="black" stroke="black" points="3447.64,-195.91 3455.66,-188.98 3445.08,-189.4 3447.64,-195.91"/>
</g>
<!-- SetData__18&#45;&gt;ExecuteUbergraph_WND_Jobs_Entry_Base__20 -->
<g id="edge15" class="edge">
<title>SetData__18:e&#45;&gt;ExecuteUbergraph_WND_Jobs_Entry_Base__20</title>
<path fill="none" stroke="red" d="M3875.5,-169.5C3885.68,-169.5 3879.48,-156.26 3887.5,-150 3919.69,-124.86 3963.71,-111.19 3999.16,-103.83"/>
<polygon fill="none" stroke="red" points="3999.71,-107.29 4008.85,-101.94 3998.37,-100.42 3999.71,-107.29"/>
</g>
<!-- SetData__33 -->
<g id="node26" class="node">
<title>SetData__33</title>
<polygon fill="#eeeeee" stroke="black" points="3444.5,-75.5 3444.5,-113.5 3560.5,-113.5 3560.5,-75.5 3444.5,-75.5"/>
<text text-anchor="start" x="3452.5" y="-98.3" font-family="monospace" font-size="14.00">EX_Return</text>
<text text-anchor="start" x="3452.5" y="-83.3" font-family="monospace" font-size="14.00">  EX_Nothing</text>
</g>
<!-- SetData__18&#45;&gt;SetData__33 -->
<g id="edge16" class="edge">
<title>SetData__18&#45;&gt;SetData__33</title>
<path fill="none" stroke="black" d="M3502.5,-150.83C3502.5,-143 3502.5,-133.57 3502.5,-124.74"/>
<polygon fill="black" stroke="black" points="3506,-124.78 3502.5,-114.78 3499,-124.78 3506,-124.78"/>
</g>
<!-- SetData__35 -->
<g id="node27" class="node">
<title>SetData__35</title>
<polygon fill="#eeeeee" stroke="black" points="4803.5,-354 4803.5,-390 4935.5,-390 4935.5,-354 4803.5,-354"/>
<text text-anchor="start" x="4811.5" y="-368.3" font-family="monospace" font-size="14.00">EX_EndOfScript</text>
</g>
<!-- Fold -->
<g id="node28" class="node">
<title>Fold</title>
<polygon fill="#ff8888" stroke="black" points="2618.5,-354 2618.5,-390 2742.5,-390 2742.5,-354 2618.5,-354"/>
<text text-anchor="start" x="2626.5" y="-368.3" font-family="monospace" font-size="14.00">Function Fold</text>
</g>
<!-- Fold__0 -->
<g id="node29" class="node">
<title>Fold__0</title>
<polygon fill="#eeeeee" stroke="black" points="2309,-225.5 2309,-263.5 3052,-263.5 3052,-225.5 2309,-225.5"/>
<text text-anchor="start" x="2317" y="-248.3" font-family="monospace" font-size="14.00">EX_LocalFinalFunction export WND_Jobs_Entry_Base_C&#45;&gt;ExecuteUbergraph_WND_Jobs_Entry_Base</text>
<text text-anchor="start" x="2317" y="-233.3" font-family="monospace" font-size="14.00">  EX_IntConst 15</text>
</g>
<!-- Fold&#45;&gt;Fold__0 -->
<g id="edge17" class="edge">
<title>Fold&#45;&gt;Fold__0</title>
<path fill="none" stroke="black" d="M2680.5,-354.07C2680.5,-333.72 2680.5,-299.22 2680.5,-274.57"/>
<polygon fill="black" stroke="black" points="2684,-274.88 2680.5,-264.88 2677,-274.88 2684,-274.88"/>
</g>
<!-- Fold__0&#45;&gt;ExecuteUbergraph_WND_Jobs_Entry_Base__15 -->
<g id="edge18" class="edge">
<title>Fold__0:e&#45;&gt;ExecuteUbergraph_WND_Jobs_Entry_Base__15</title>
<path fill="none" stroke="red" d="M3053.5,-244.5C3058.28,-244.5 3058.52,-219.55 3057.88,-198.62"/>
<polygon fill="none" stroke="red" points="3061.38,-198.66 3057.5,-188.8 3054.39,-198.93 3061.38,-198.66"/>
</g>
<!-- Fold__15 -->
<g id="node30" class="node">
<title>Fold__15</title>
<polygon fill="#eeeeee" stroke="black" points="2622.5,-150.5 2622.5,-188.5 2738.5,-188.5 2738.5,-150.5 2622.5,-150.5"/>
<text text-anchor="start" x="2630.5" y="-173.3" font-family="monospace" font-size="14.00">EX_Return</text>
<text text-anchor="start" x="2630.5" y="-158.3" font-family="monospace" font-size="14.00">  EX_Nothing</text>
</g>
<!-- Fold__0&#45;&gt;Fold__15 -->
<g id="edge19" class="edge">
<title>Fold__0&#45;&gt;Fold__15</title>
<path fill="none" stroke="black" d="M2680.5,-225.83C2680.5,-218 2680.5,-208.57 2680.5,-199.74"/>
<polygon fill="black" stroke="black" points="2684,-199.78 2680.5,-189.78 2677,-199.78 2684,-199.78"/>
</g>
<!-- Fold__17 -->
<g id="node31" class="node">
<title>Fold__17</title>
<polygon fill="#eeeeee" stroke="black" points="4953.5,-354 4953.5,-390 5085.5,-390 5085.5,-354 4953.5,-354"/>
<text text-anchor="start" x="4961.5" y="-368.3" font-family="monospace" font-size="14.00">EX_EndOfScript</text>
</g>
</g>
</svg>
