<?xml version="1.0" encoding="UTF-8" standalone="no"?>
<!DOCTYPE svg PUBLIC "-//W3C//DTD SVG 1.1//EN"
 "http://www.w3.org/Graphics/SVG/1.1/DTD/svg11.dtd">
<!-- Generated by graphviz version 7.0.1 (0)
 -->
<!-- Pages: 1 -->
<svg width="2758pt" height="903pt"
 viewBox="0.00 0.00 2757.50 903.00" xmlns="http://www.w3.org/2000/svg" xmlns:xlink="http://www.w3.org/1999/xlink">
<g id="graph0" class="graph" transform="scale(1 1) rotate(0) translate(4 899)">
<polygon fill="white" stroke="none" points="-4,4 -4,-899 2753.5,-899 2753.5,4 -4,4"/>
<!-- BP_PatrolBot_Wheel_C -->
<g id="node1" class="node">
<title>BP_PatrolBot_Wheel_C</title>
<polygon fill="#88ff88" stroke="black" points="0,-751.5 0,-894.5 594,-894.5 594,-751.5 0,-751.5"/>
<text text-anchor="start" x="8" y="-879.3" font-family="monospace" font-size="14.00">ClassExport: BP_PatrolBot_Wheel_C</text>
<text text-anchor="start" x="8" y="-864.3" font-family="monospace" font-size="14.00">  SuperStruct: import /Script/Engine&#45;&gt;Actor</text>
<text text-anchor="start" x="8" y="-849.3" font-family="monospace" font-size="14.00">  Properties:</text>
<text text-anchor="start" x="8" y="-834.3" font-family="monospace" font-size="14.00">    StructProperty UberGraphFrame</text>
<text text-anchor="start" x="8" y="-819.3" font-family="monospace" font-size="14.00">      CPF_Transient|CPF_DuplicateTransient</text>
<text text-anchor="start" x="8" y="-804.3" font-family="monospace" font-size="14.00">    ObjectProperty StaticMesh</text>
<text text-anchor="start" x="8" y="-789.3" font-family="monospace" font-size="14.00">      CPF_BlueprintVisible|CPF_InstancedReference|CPF_NonTransactional</text>
<text text-anchor="start" x="8" y="-774.3" font-family="monospace" font-size="14.00">    ObjectProperty Sphere</text>
<text text-anchor="start" x="8" y="-759.3" font-family="monospace" font-size="14.00">      CPF_BlueprintVisible|CPF_InstancedReference|CPF_NonTransactional</text>
</g>
<!-- ExecuteUbergraph_BP_PatrolBot_Wheel -->
<g id="node2" class="node">
<title>ExecuteUbergraph_BP_PatrolBot_Wheel</title>
<polygon fill="#ff8888" stroke="black" points="612.5,-781.5 612.5,-864.5 1091.5,-864.5 1091.5,-781.5 612.5,-781.5"/>
<text text-anchor="start" x="620.5" y="-849.3" font-family="monospace" font-size="14.00">Function ExecuteUbergraph_BP_PatrolBot_Wheel</text>
<text text-anchor="start" x="620.5" y="-834.3" font-family="monospace" font-size="14.00">  IntProperty EntryPoint</text>
<text text-anchor="start" x="620.5" y="-819.3" font-family="monospace" font-size="14.00">    CPF_BlueprintVisible|CPF_BlueprintReadOnly|CPF_Parm</text>
<text text-anchor="start" x="620.5" y="-804.3" font-family="monospace" font-size="14.00">  FloatProperty CallFunc_GetLifeSpan_ReturnValue</text>
<text text-anchor="start" x="620.5" y="-789.3" font-family="monospace" font-size="14.00">  FloatProperty CallFunc_Subtract_FloatFloat_ReturnValue</text>
</g>
<!-- ExecuteUbergraph_BP_PatrolBot_Wheel__0 -->
<g id="node3" class="node">
<title>ExecuteUbergraph_BP_PatrolBot_Wheel__0</title>
<polygon fill="#eeeeee" stroke="black" points="744.5,-640.5 744.5,-676.5 959.5,-676.5 959.5,-640.5 744.5,-640.5"/>
<text text-anchor="start" x="752.5" y="-654.8" font-family="monospace" font-size="14.00">EX_PushExecutionFlow 193</text>
</g>
<!-- ExecuteUbergraph_BP_PatrolBot_Wheel&#45;&gt;ExecuteUbergraph_BP_PatrolBot_Wheel__0 -->
<g id="edge1" class="edge">
<title>ExecuteUbergraph_BP_PatrolBot_Wheel&#45;&gt;ExecuteUbergraph_BP_PatrolBot_Wheel__0</title>
<path fill="none" stroke="black" d="M852,-781.83C852,-752.62 852,-713.8 852,-687.8"/>
<polygon fill="black" stroke="black" points="855.5,-688.01 852,-678.01 848.5,-688.01 855.5,-688.01"/>
</g>
<!-- ExecuteUbergraph_BP_PatrolBot_Wheel__5 -->
<g id="node4" class="node">
<title>ExecuteUbergraph_BP_PatrolBot_Wheel__5</title>
<polygon fill="#eeeeee" stroke="black" points="664,-520 664,-558 936,-558 936,-520 664,-520"/>
<text text-anchor="start" x="672" y="-542.8" font-family="monospace" font-size="14.00">EX_ComputedJump</text>
<text text-anchor="start" x="672" y="-527.8" font-family="monospace" font-size="14.00">  EX_LocalVariable [EntryPoint]</text>
</g>
<!-- ExecuteUbergraph_BP_PatrolBot_Wheel__0&#45;&gt;ExecuteUbergraph_BP_PatrolBot_Wheel__5 -->
<g id="edge3" class="edge">
<title>ExecuteUbergraph_BP_PatrolBot_Wheel__0&#45;&gt;ExecuteUbergraph_BP_PatrolBot_Wheel__5</title>
<path fill="none" stroke="black" d="M844.55,-640.67C836.2,-621.8 822.52,-590.89 812.52,-568.3"/>
<polygon fill="black" stroke="black" points="815.81,-567.07 808.56,-559.34 809.41,-569.9 815.81,-567.07"/>
</g>
<!-- ExecuteUbergraph_BP_PatrolBot_Wheel__193 -->
<g id="node11" class="node">
<title>ExecuteUbergraph_BP_PatrolBot_Wheel__193</title>
<polygon fill="#eeeeee" stroke="black" points="954,-520 954,-558 1070,-558 1070,-520 954,-520"/>
<text text-anchor="start" x="962" y="-542.8" font-family="monospace" font-size="14.00">EX_Return</text>
<text text-anchor="start" x="962" y="-527.8" font-family="monospace" font-size="14.00">  EX_Nothing</text>
</g>
<!-- ExecuteUbergraph_BP_PatrolBot_Wheel__0&#45;&gt;ExecuteUbergraph_BP_PatrolBot_Wheel__193 -->
<g id="edge2" class="edge">
<title>ExecuteUbergraph_BP_PatrolBot_Wheel__0:e&#45;&gt;ExecuteUbergraph_BP_PatrolBot_Wheel__193</title>
<path fill="none" stroke="red" d="M961,-658.5C970.37,-658.5 965.36,-647.63 969,-639 979.1,-615.08 990.87,-588.05 999.53,-568.28"/>
<polygon fill="none" stroke="red" points="1002.7,-569.79 1003.51,-559.22 996.29,-566.97 1002.7,-569.79"/>
<text text-anchor="middle" x="1034.5" y="-598.8" font-family="monospace" font-size="14.00">PUSH STACK</text>
</g>
<!-- ExecuteUbergraph_BP_PatrolBot_Wheel__15 -->
<g id="node5" class="node">
<title>ExecuteUbergraph_BP_PatrolBot_Wheel__15</title>
<polygon fill="#eeeeee" stroke="black" points="1718.5,-74.5 1718.5,-187.5 2749.5,-187.5 2749.5,-74.5 1718.5,-74.5"/>
<text text-anchor="start" x="1726.5" y="-172.3" font-family="monospace" font-size="14.00">EX_CallMath import /Script/FSD&#45;&gt;ActorFunctionLibrary&#45;&gt;KillActorWithEffects</text>
<text text-anchor="start" x="1726.5" y="-157.3" font-family="monospace" font-size="14.00">  EX_Self</text>
<text text-anchor="start" x="1726.5" y="-142.3" font-family="monospace" font-size="14.00">  EX_InstanceVariable [StaticMesh]</text>
<text text-anchor="start" x="1726.5" y="-127.3" font-family="monospace" font-size="14.00">  EX_ObjectConst import /Game/Audio/SFX/Enemies/Facility/FacilityRollerDrone/FacilityDroneDeath_Cue&#45;&gt;FacilityDroneDeath_Cue</text>
<text text-anchor="start" x="1726.5" y="-112.3" font-family="monospace" font-size="14.00">  EX_ObjectConst import /Game/Enemies/RivalTech/PatrolBot/Particles/P_PatrolBot_WeakpointDeath&#45;&gt;P_PatrolBot_WeakpointDeath</text>
<text text-anchor="start" x="1726.5" y="-97.3" font-family="monospace" font-size="14.00">  EX_FloatConst 1</text>
<text text-anchor="start" x="1726.5" y="-82.3" font-family="monospace" font-size="14.00">  EX_NoObject</text>
</g>
<!-- ExecuteUbergraph_BP_PatrolBot_Wheel__59 -->
<g id="node6" class="node">
<title>ExecuteUbergraph_BP_PatrolBot_Wheel__59</title>
<polygon fill="#eeeeee" stroke="black" points="2147.5,-0.5 2147.5,-36.5 2320.5,-36.5 2320.5,-0.5 2147.5,-0.5"/>
<text text-anchor="start" x="2155.5" y="-14.8" font-family="monospace" font-size="14.00">EX_PopExecutionFlow</text>
</g>
<!-- ExecuteUbergraph_BP_PatrolBot_Wheel__15&#45;&gt;ExecuteUbergraph_BP_PatrolBot_Wheel__59 -->
<g id="edge4" class="edge">
<title>ExecuteUbergraph_BP_PatrolBot_Wheel__15&#45;&gt;ExecuteUbergraph_BP_PatrolBot_Wheel__59</title>
<path fill="none" stroke="black" d="M2234,-74.75C2234,-65.32 2234,-55.9 2234,-47.57"/>
<polygon fill="black" stroke="black" points="2237.5,-47.8 2234,-37.8 2230.5,-47.8 2237.5,-47.8"/>
</g>
<!-- ExecuteUbergraph_BP_PatrolBot_Wheel__60 -->
<g id="node7" class="node">
<title>ExecuteUbergraph_BP_PatrolBot_Wheel__60</title>
<polygon fill="#eeeeee" stroke="black" points="1477,-512.5 1477,-565.5 1931,-565.5 1931,-512.5 1477,-512.5"/>
<text text-anchor="start" x="1485" y="-550.3" font-family="monospace" font-size="14.00">EX_Let</text>
<text text-anchor="start" x="1485" y="-535.3" font-family="monospace" font-size="14.00">  EX_LocalVariable [CallFunc_GetLifeSpan_ReturnValue]</text>
<text text-anchor="start" x="1485" y="-520.3" font-family="monospace" font-size="14.00">  EX_VirtualFunction GetLifeSpan</text>
</g>
<!-- ExecuteUbergraph_BP_PatrolBot_Wheel__92 -->
<g id="node8" class="node">
<title>ExecuteUbergraph_BP_PatrolBot_Wheel__92</title>
<polygon fill="#eeeeee" stroke="black" points="1386.5,-391.5 1386.5,-474.5 2021.5,-474.5 2021.5,-391.5 1386.5,-391.5"/>
<text text-anchor="start" x="1394.5" y="-459.3" font-family="monospace" font-size="14.00">EX_Let</text>
<text text-anchor="start" x="1394.5" y="-444.3" font-family="monospace" font-size="14.00">  EX_LocalVariable [CallFunc_Subtract_FloatFloat_ReturnValue]</text>
<text text-anchor="start" x="1394.5" y="-429.3" font-family="monospace" font-size="14.00">  EX_CallMath import /Script/Engine&#45;&gt;KismetMathLibrary&#45;&gt;Subtract_FloatFloat</text>
<text text-anchor="start" x="1394.5" y="-414.3" font-family="monospace" font-size="14.00">    EX_LocalVariable [CallFunc_GetLifeSpan_ReturnValue]</text>
<text text-anchor="start" x="1394.5" y="-399.3" font-family="monospace" font-size="14.00">    EX_FloatConst 1</text>
</g>
<!-- ExecuteUbergraph_BP_PatrolBot_Wheel__60&#45;&gt;ExecuteUbergraph_BP_PatrolBot_Wheel__92 -->
<g id="edge5" class="edge">
<title>ExecuteUbergraph_BP_PatrolBot_Wheel__60&#45;&gt;ExecuteUbergraph_BP_PatrolBot_Wheel__92</title>
<path fill="none" stroke="black" d="M1704,-512.56C1704,-504.35 1704,-494.93 1704,-485.54"/>
<polygon fill="black" stroke="black" points="1707.5,-485.69 1704,-475.69 1700.5,-485.69 1707.5,-485.69"/>
</g>
<!-- ExecuteUbergraph_BP_PatrolBot_Wheel__134 -->
<g id="node9" class="node">
<title>ExecuteUbergraph_BP_PatrolBot_Wheel__134</title>
<polygon fill="#eeeeee" stroke="black" points="1444,-225.5 1444,-353.5 1964,-353.5 1964,-225.5 1444,-225.5"/>
<text text-anchor="start" x="1452" y="-338.3" font-family="monospace" font-size="14.00">EX_CallMath import /Script/Engine&#45;&gt;KismetSystemLibrary&#45;&gt;Delay</text>
<text text-anchor="start" x="1452" y="-323.3" font-family="monospace" font-size="14.00">  EX_Self</text>
<text text-anchor="start" x="1452" y="-308.3" font-family="monospace" font-size="14.00">  EX_LocalVariable [CallFunc_Subtract_FloatFloat_ReturnValue]</text>
<text text-anchor="start" x="1452" y="-293.3" font-family="monospace" font-size="14.00">  EX_StructConst import /Script/Engine&#45;&gt;LatentActionInfo</text>
<text text-anchor="start" x="1452" y="-278.3" font-family="monospace" font-size="14.00">    EX_SkipOffsetConst 15</text>
<text text-anchor="start" x="1452" y="-263.3" font-family="monospace" font-size="14.00">    EX_IntConst &#45;1810607591</text>
<text text-anchor="start" x="1452" y="-248.3" font-family="monospace" font-size="14.00">    EX_NameConst ExecuteUbergraph_BP_PatrolBot_Wheel</text>
<text text-anchor="start" x="1452" y="-233.3" font-family="monospace" font-size="14.00">    EX_Self</text>
</g>
<!-- ExecuteUbergraph_BP_PatrolBot_Wheel__92&#45;&gt;ExecuteUbergraph_BP_PatrolBot_Wheel__134 -->
<g id="edge6" class="edge">
<title>ExecuteUbergraph_BP_PatrolBot_Wheel__92&#45;&gt;ExecuteUbergraph_BP_PatrolBot_Wheel__134</title>
<path fill="none" stroke="black" d="M1704,-391.83C1704,-383.29 1704,-374.02 1704,-364.66"/>
<polygon fill="black" stroke="black" points="1707.5,-364.77 1704,-354.77 1700.5,-364.77 1707.5,-364.77"/>
</g>
<!-- ExecuteUbergraph_BP_PatrolBot_Wheel__134&#45;&gt;ExecuteUbergraph_BP_PatrolBot_Wheel__15 -->
<g id="edge7" class="edge">
<title>ExecuteUbergraph_BP_PatrolBot_Wheel__134:e&#45;&gt;ExecuteUbergraph_BP_PatrolBot_Wheel__15</title>
<path fill="none" stroke="red" d="M1965,-289.5C2043.78,-289.5 2119.95,-238.57 2171,-194.63"/>
<polygon fill="none" stroke="red" points="2173.26,-197.31 2178.47,-188.08 2168.64,-192.05 2173.26,-197.31"/>
</g>
<!-- ExecuteUbergraph_BP_PatrolBot_Wheel__192 -->
<g id="node10" class="node">
<title>ExecuteUbergraph_BP_PatrolBot_Wheel__192</title>
<polygon fill="#eeeeee" stroke="black" points="1527.5,-113 1527.5,-149 1700.5,-149 1700.5,-113 1527.5,-113"/>
<text text-anchor="start" x="1535.5" y="-127.3" font-family="monospace" font-size="14.00">EX_PopExecutionFlow</text>
</g>
<!-- ExecuteUbergraph_BP_PatrolBot_Wheel__134&#45;&gt;ExecuteUbergraph_BP_PatrolBot_Wheel__192 -->
<g id="edge8" class="edge">
<title>ExecuteUbergraph_BP_PatrolBot_Wheel__134&#45;&gt;ExecuteUbergraph_BP_PatrolBot_Wheel__192</title>
<path fill="none" stroke="black" d="M1667.91,-225.75C1654.44,-202.32 1639.86,-176.97 1629.26,-158.54"/>
<polygon fill="black" stroke="black" points="1632.44,-157.05 1624.42,-150.13 1626.37,-160.54 1632.44,-157.05"/>
</g>
<!-- ExecuteUbergraph_BP_PatrolBot_Wheel__195 -->
<g id="node12" class="node">
<title>ExecuteUbergraph_BP_PatrolBot_Wheel__195</title>
<polygon fill="#eeeeee" stroke="black" points="1356,-696.5 1356,-732.5 1488,-732.5 1488,-696.5 1356,-696.5"/>
<text text-anchor="start" x="1364" y="-710.8" font-family="monospace" font-size="14.00">EX_EndOfScript</text>
</g>
<!-- ReceiveBeginPlay -->
<g id="node13" class="node">
<title>ReceiveBeginPlay</title>
<polygon fill="#ff8888" stroke="black" points="1229.5,-805 1229.5,-841 1452.5,-841 1452.5,-805 1229.5,-805"/>
<text text-anchor="start" x="1237.5" y="-819.3" font-family="monospace" font-size="14.00">Function ReceiveBeginPlay</text>
</g>
<!-- ReceiveBeginPlay__0 -->
<g id="node14" class="node">
<title>ReceiveBeginPlay__0</title>
<polygon fill="#eeeeee" stroke="black" points="978,-639.5 978,-677.5 1704,-677.5 1704,-639.5 978,-639.5"/>
<text text-anchor="start" x="986" y="-662.3" font-family="monospace" font-size="14.00">EX_LocalFinalFunction export BP_PatrolBot_Wheel_C&#45;&gt;ExecuteUbergraph_BP_PatrolBot_Wheel</text>
<text text-anchor="start" x="986" y="-647.3" font-family="monospace" font-size="14.00">  EX_IntConst 60</text>
</g>
<!-- ReceiveBeginPlay&#45;&gt;ReceiveBeginPlay__0 -->
<g id="edge9" class="edge">
<title>ReceiveBeginPlay&#45;&gt;ReceiveBeginPlay__0</title>
<path fill="none" stroke="black" d="M1341,-805.22C1341,-777.78 1341,-722.94 1341,-688.92"/>
<polygon fill="black" stroke="black" points="1344.5,-688.93 1341,-678.93 1337.5,-688.93 1344.5,-688.93"/>
</g>
<!-- ReceiveBeginPlay__0&#45;&gt;ExecuteUbergraph_BP_PatrolBot_Wheel__60 -->
<g id="edge10" class="edge">
<title>ReceiveBeginPlay__0:e&#45;&gt;ExecuteUbergraph_BP_PatrolBot_Wheel__60</title>
<path fill="none" stroke="red" d="M1705,-658.5C1721.59,-658.5 1716.88,-611.47 1711.12,-576.67"/>
<polygon fill="none" stroke="red" points="1714.59,-576.16 1709.42,-566.91 1707.69,-577.37 1714.59,-576.16"/>
</g>
<!-- ReceiveBeginPlay__15 -->
<g id="node15" class="node">
<title>ReceiveBeginPlay__15</title>
<polygon fill="#eeeeee" stroke="black" points="1283,-520 1283,-558 1399,-558 1399,-520 1283,-520"/>
<text text-anchor="start" x="1291" y="-542.8" font-family="monospace" font-size="14.00">EX_Return</text>
<text text-anchor="start" x="1291" y="-527.8" font-family="monospace" font-size="14.00">  EX_Nothing</text>
</g>
<!-- ReceiveBeginPlay__0&#45;&gt;ReceiveBeginPlay__15 -->
<g id="edge11" class="edge">
<title>ReceiveBeginPlay__0&#45;&gt;ReceiveBeginPlay__15</title>
<path fill="none" stroke="black" d="M1341,-639.65C1341,-620.91 1341,-591.14 1341,-569.02"/>
<polygon fill="black" stroke="black" points="1344.5,-569.14 1341,-559.14 1337.5,-569.14 1344.5,-569.14"/>
</g>
<!-- ReceiveBeginPlay__17 -->
<g id="node16" class="node">
<title>ReceiveBeginPlay__17</title>
<polygon fill="#eeeeee" stroke="black" points="1719,-584.5 1719,-620.5 1851,-620.5 1851,-584.5 1719,-584.5"/>
<text text-anchor="start" x="1727" y="-598.8" font-family="monospace" font-size="14.00">EX_EndOfScript</text>
</g>
</g>
</svg>
