<?xml version="1.0" encoding="UTF-8" standalone="no"?>
<!DOCTYPE svg PUBLIC "-//W3C//DTD SVG 1.1//EN"
 "http://www.w3.org/Graphics/SVG/1.1/DTD/svg11.dtd">
<!-- Generated by graphviz version 7.0.1 (0)
 -->
<!-- Pages: 1 -->
<svg width="3749pt" height="1568pt"
 viewBox="0.00 0.00 3749.00 1568.00" xmlns="http://www.w3.org/2000/svg" xmlns:xlink="http://www.w3.org/1999/xlink">
<g id="graph0" class="graph" transform="scale(1 1) rotate(0) translate(4 1564)">
<polygon fill="white" stroke="none" points="-4,4 -4,-1564 3745,-1564 3745,4 -4,4"/>
<!-- MAG_BaseClass_C -->
<g id="node1" class="node">
<title>MAG_BaseClass_C</title>
<polygon fill="#88ff88" stroke="black" points="0,-1326.5 0,-1559.5 594,-1559.5 594,-1326.5 0,-1326.5"/>
<text text-anchor="start" x="8" y="-1544.3" font-family="monospace" font-size="14.00">ClassExport: MAG_BaseClass_C</text>
<text text-anchor="start" x="8" y="-1529.3" font-family="monospace" font-size="14.00">  SuperStruct: import /Script/FSD&#45;&gt;Magazine</text>
<text text-anchor="start" x="8" y="-1514.3" font-family="monospace" font-size="14.00">  Properties:</text>
<text text-anchor="start" x="8" y="-1499.3" font-family="monospace" font-size="14.00">    StructProperty UberGraphFrame</text>
<text text-anchor="start" x="8" y="-1484.3" font-family="monospace" font-size="14.00">      CPF_Transient|CPF_DuplicateTransient</text>
<text text-anchor="start" x="8" y="-1469.3" font-family="monospace" font-size="14.00">    ObjectProperty Mesh</text>
<text text-anchor="start" x="8" y="-1454.3" font-family="monospace" font-size="14.00">      CPF_BlueprintVisible|CPF_InstancedReference|CPF_NonTransactional</text>
<text text-anchor="start" x="8" y="-1439.3" font-family="monospace" font-size="14.00">    ObjectProperty Box</text>
<text text-anchor="start" x="8" y="-1424.3" font-family="monospace" font-size="14.00">      CPF_BlueprintVisible|CPF_InstancedReference|CPF_NonTransactional</text>
<text text-anchor="start" x="8" y="-1409.3" font-family="monospace" font-size="14.00">    ObjectProperty DefaultSceneRoot</text>
<text text-anchor="start" x="8" y="-1394.3" font-family="monospace" font-size="14.00">      CPF_BlueprintVisible|CPF_InstancedReference|CPF_NonTransactional</text>
<text text-anchor="start" x="8" y="-1379.3" font-family="monospace" font-size="14.00">    FloatProperty ChangeFovDelay</text>
<text text-anchor="start" x="8" y="-1364.3" font-family="monospace" font-size="14.00">      CPF_Edit|CPF_BlueprintVisible|CPF_DisableEditOnInstance</text>
<text text-anchor="start" x="8" y="-1349.3" font-family="monospace" font-size="14.00">    BoolProperty ApplySkin</text>
<text text-anchor="start" x="8" y="-1334.3" font-family="monospace" font-size="14.00">      CPF_Edit|CPF_BlueprintVisible|CPF_DisableEditOnInstance</text>
</g>
<!-- ExecuteUbergraph_MAG_BaseClass -->
<g id="node2" class="node">
<title>ExecuteUbergraph_MAG_BaseClass</title>
<polygon fill="#ff8888" stroke="black" points="612,-1409 612,-1477 1082,-1477 1082,-1409 612,-1409"/>
<text text-anchor="start" x="620" y="-1461.8" font-family="monospace" font-size="14.00">Function ExecuteUbergraph_MAG_BaseClass</text>
<text text-anchor="start" x="620" y="-1446.8" font-family="monospace" font-size="14.00">  IntProperty EntryPoint</text>
<text text-anchor="start" x="620" y="-1431.8" font-family="monospace" font-size="14.00">    CPF_BlueprintVisible|CPF_BlueprintReadOnly|CPF_Parm</text>
<text text-anchor="start" x="620" y="-1416.8" font-family="monospace" font-size="14.00">  ObjectProperty K2Node_Event_skin</text>
</g>
<!-- ExecuteUbergraph_MAG_BaseClass__0 -->
<g id="node3" class="node">
<title>ExecuteUbergraph_MAG_BaseClass__0</title>
<polygon fill="#eeeeee" stroke="black" points="739.5,-1215.5 739.5,-1251.5 954.5,-1251.5 954.5,-1215.5 739.5,-1215.5"/>
<text text-anchor="start" x="747.5" y="-1229.8" font-family="monospace" font-size="14.00">EX_PushExecutionFlow 462</text>
</g>
<!-- ExecuteUbergraph_MAG_BaseClass&#45;&gt;ExecuteUbergraph_MAG_BaseClass__0 -->
<g id="edge1" class="edge">
<title>ExecuteUbergraph_MAG_BaseClass&#45;&gt;ExecuteUbergraph_MAG_BaseClass__0</title>
<path fill="none" stroke="black" d="M847,-1409.12C847,-1368.7 847,-1300.79 847,-1262.66"/>
<polygon fill="black" stroke="black" points="850.5,-1262.91 847,-1252.91 843.5,-1262.91 850.5,-1262.91"/>
</g>
<!-- ExecuteUbergraph_MAG_BaseClass__5 -->
<g id="node4" class="node">
<title>ExecuteUbergraph_MAG_BaseClass__5</title>
<polygon fill="#eeeeee" stroke="black" points="659,-1080 659,-1118 931,-1118 931,-1080 659,-1080"/>
<text text-anchor="start" x="667" y="-1102.8" font-family="monospace" font-size="14.00">EX_ComputedJump</text>
<text text-anchor="start" x="667" y="-1087.8" font-family="monospace" font-size="14.00">  EX_LocalVariable [EntryPoint]</text>
</g>
<!-- ExecuteUbergraph_MAG_BaseClass__0&#45;&gt;ExecuteUbergraph_MAG_BaseClass__5 -->
<g id="edge3" class="edge">
<title>ExecuteUbergraph_MAG_BaseClass__0&#45;&gt;ExecuteUbergraph_MAG_BaseClass__5</title>
<path fill="none" stroke="black" d="M840.41,-1215.72C831.81,-1193.78 816.6,-1155.04 806.17,-1128.47"/>
<polygon fill="black" stroke="black" points="809.49,-1127.35 802.58,-1119.32 802.98,-1129.91 809.49,-1127.35"/>
</g>
<!-- ExecuteUbergraph_MAG_BaseClass__462 -->
<g id="node26" class="node">
<title>ExecuteUbergraph_MAG_BaseClass__462</title>
<polygon fill="#eeeeee" stroke="black" points="949,-1080 949,-1118 1065,-1118 1065,-1080 949,-1080"/>
<text text-anchor="start" x="957" y="-1102.8" font-family="monospace" font-size="14.00">EX_Return</text>
<text text-anchor="start" x="957" y="-1087.8" font-family="monospace" font-size="14.00">  EX_Nothing</text>
</g>
<!-- ExecuteUbergraph_MAG_BaseClass__0&#45;&gt;ExecuteUbergraph_MAG_BaseClass__462 -->
<g id="edge2" class="edge">
<title>ExecuteUbergraph_MAG_BaseClass__0:e&#45;&gt;ExecuteUbergraph_MAG_BaseClass__462</title>
<path fill="none" stroke="red" d="M956,-1233.5C956.7,-1233.5 981.56,-1167.68 996.31,-1128.47"/>
<polygon fill="none" stroke="red" points="999.57,-1129.74 999.81,-1119.14 993.02,-1127.27 999.57,-1129.74"/>
<text text-anchor="middle" x="1026.5" y="-1173.8" font-family="monospace" font-size="14.00">PUSH STACK</text>
</g>
<!-- ExecuteUbergraph_MAG_BaseClass__15 -->
<g id="node5" class="node">
<title>ExecuteUbergraph_MAG_BaseClass__15</title>
<polygon fill="#eeeeee" stroke="black" points="1095.5,-347.5 1095.5,-383.5 1392.5,-383.5 1392.5,-347.5 1095.5,-347.5"/>
<text text-anchor="start" x="1103.5" y="-361.8" font-family="monospace" font-size="14.00">EX_VirtualFunction K2_DestroyActor</text>
</g>
<!-- ExecuteUbergraph_MAG_BaseClass__29 -->
<g id="node6" class="node">
<title>ExecuteUbergraph_MAG_BaseClass__29</title>
<polygon fill="#eeeeee" stroke="black" points="1157.5,-219 1157.5,-255 1330.5,-255 1330.5,-219 1157.5,-219"/>
<text text-anchor="start" x="1165.5" y="-233.3" font-family="monospace" font-size="14.00">EX_PopExecutionFlow</text>
</g>
<!-- ExecuteUbergraph_MAG_BaseClass__15&#45;&gt;ExecuteUbergraph_MAG_BaseClass__29 -->
<g id="edge4" class="edge">
<title>ExecuteUbergraph_MAG_BaseClass__15&#45;&gt;ExecuteUbergraph_MAG_BaseClass__29</title>
<path fill="none" stroke="black" d="M1244,-347.7C1244,-326.91 1244,-291.19 1244,-266.18"/>
<polygon fill="black" stroke="black" points="1247.5,-266.38 1244,-256.38 1240.5,-266.38 1247.5,-266.38"/>
</g>
<!-- ExecuteUbergraph_MAG_BaseClass__30 -->
<g id="node7" class="node">
<title>ExecuteUbergraph_MAG_BaseClass__30</title>
<polygon fill="#eeeeee" stroke="black" points="2495.5,-758.5 2495.5,-796.5 2784.5,-796.5 2784.5,-758.5 2495.5,-758.5"/>
<text text-anchor="start" x="2503.5" y="-781.3" font-family="monospace" font-size="14.00">EX_PopExecutionFlowIfNot</text>
<text text-anchor="start" x="2503.5" y="-766.3" font-family="monospace" font-size="14.00">  EX_InstanceVariable [ApplySkin]</text>
</g>
<!-- ExecuteUbergraph_MAG_BaseClass__40 -->
<g id="node8" class="node">
<title>ExecuteUbergraph_MAG_BaseClass__40</title>
<polygon fill="#eeeeee" stroke="black" points="2351,-496.5 2351,-609.5 2929,-609.5 2929,-496.5 2351,-496.5"/>
<text text-anchor="start" x="2359" y="-594.3" font-family="monospace" font-size="14.00">EX_Context</text>
<text text-anchor="start" x="2359" y="-579.3" font-family="monospace" font-size="14.00">  EX_LocalVariable [K2Node_Event_skin]</text>
<text text-anchor="start" x="2359" y="-564.3" font-family="monospace" font-size="14.00">  EX_FinalFunction import /Script/FSD&#45;&gt;SkinEffect&#45;&gt;Receive_AddToItem</text>
<text text-anchor="start" x="2359" y="-549.3" font-family="monospace" font-size="14.00">    EX_InstanceVariable [Mesh]</text>
<text text-anchor="start" x="2359" y="-534.3" font-family="monospace" font-size="14.00">    EX_Self</text>
<text text-anchor="start" x="2359" y="-519.3" font-family="monospace" font-size="14.00">    EX_False</text>
<text text-anchor="start" x="2359" y="-504.3" font-family="monospace" font-size="14.00">  RValue = []</text>
</g>
<!-- ExecuteUbergraph_MAG_BaseClass__30&#45;&gt;ExecuteUbergraph_MAG_BaseClass__40 -->
<g id="edge5" class="edge">
<title>ExecuteUbergraph_MAG_BaseClass__30&#45;&gt;ExecuteUbergraph_MAG_BaseClass__40</title>
<path fill="none" stroke="black" d="M2640,-758.67C2640,-729.04 2640,-668.22 2640,-620.54"/>
<polygon fill="black" stroke="black" points="2643.5,-620.55 2640,-610.55 2636.5,-620.55 2643.5,-620.55"/>
</g>
<!-- ExecuteUbergraph_MAG_BaseClass__83 -->
<g id="node9" class="node">
<title>ExecuteUbergraph_MAG_BaseClass__83</title>
<polygon fill="#eeeeee" stroke="black" points="2553.5,-347.5 2553.5,-383.5 2726.5,-383.5 2726.5,-347.5 2553.5,-347.5"/>
<text text-anchor="start" x="2561.5" y="-361.8" font-family="monospace" font-size="14.00">EX_PopExecutionFlow</text>
</g>
<!-- ExecuteUbergraph_MAG_BaseClass__40&#45;&gt;ExecuteUbergraph_MAG_BaseClass__83 -->
<g id="edge6" class="edge">
<title>ExecuteUbergraph_MAG_BaseClass__40&#45;&gt;ExecuteUbergraph_MAG_BaseClass__83</title>
<path fill="none" stroke="black" d="M2640,-496.6C2640,-462.9 2640,-421.3 2640,-394.35"/>
<polygon fill="black" stroke="black" points="2643.5,-394.6 2640,-384.6 2636.5,-394.6 2643.5,-394.6"/>
</g>
<!-- ExecuteUbergraph_MAG_BaseClass__84 -->
<g id="node10" class="node">
<title>ExecuteUbergraph_MAG_BaseClass__84</title>
<polygon fill="#eeeeee" stroke="black" points="2003,-511.5 2003,-594.5 2333,-594.5 2333,-511.5 2003,-511.5"/>
<text text-anchor="start" x="2011" y="-579.3" font-family="monospace" font-size="14.00">EX_PopExecutionFlowIfNot</text>
<text text-anchor="start" x="2011" y="-564.3" font-family="monospace" font-size="14.00">  EX_Context</text>
<text text-anchor="start" x="2011" y="-549.3" font-family="monospace" font-size="14.00">    EX_InstanceVariable [Mesh]</text>
<text text-anchor="start" x="2011" y="-534.3" font-family="monospace" font-size="14.00">    EX_InstanceVariable [EnabledFPFOV]</text>
<text text-anchor="start" x="2011" y="-519.3" font-family="monospace" font-size="14.00">    RValue = [EnabledFPFOV]</text>
</g>
<!-- ExecuteUbergraph_MAG_BaseClass__116 -->
<g id="node11" class="node">
<title>ExecuteUbergraph_MAG_BaseClass__116</title>
<polygon fill="#eeeeee" stroke="black" points="2003,-316.5 2003,-414.5 2333,-414.5 2333,-316.5 2003,-316.5"/>
<text text-anchor="start" x="2011" y="-399.3" font-family="monospace" font-size="14.00">EX_LetBool</text>
<text text-anchor="start" x="2011" y="-384.3" font-family="monospace" font-size="14.00">  EX_Context</text>
<text text-anchor="start" x="2011" y="-369.3" font-family="monospace" font-size="14.00">    EX_InstanceVariable [Mesh]</text>
<text text-anchor="start" x="2011" y="-354.3" font-family="monospace" font-size="14.00">    EX_InstanceVariable [EnabledFPFOV]</text>
<text text-anchor="start" x="2011" y="-339.3" font-family="monospace" font-size="14.00">    RValue = [EnabledFPFOV]</text>
<text text-anchor="start" x="2011" y="-324.3" font-family="monospace" font-size="14.00">  EX_False</text>
</g>
<!-- ExecuteUbergraph_MAG_BaseClass__84&#45;&gt;ExecuteUbergraph_MAG_BaseClass__116 -->
<g id="edge7" class="edge">
<title>ExecuteUbergraph_MAG_BaseClass__84&#45;&gt;ExecuteUbergraph_MAG_BaseClass__116</title>
<path fill="none" stroke="black" d="M2168,-511.75C2168,-486.56 2168,-453.66 2168,-425.54"/>
<polygon fill="black" stroke="black" points="2171.5,-425.74 2168,-415.74 2164.5,-425.74 2171.5,-425.74"/>
</g>
<!-- ExecuteUbergraph_MAG_BaseClass__149 -->
<g id="node12" class="node">
<title>ExecuteUbergraph_MAG_BaseClass__149</title>
<polygon fill="#eeeeee" stroke="black" points="1858.5,-195.5 1858.5,-278.5 2477.5,-278.5 2477.5,-195.5 1858.5,-195.5"/>
<text text-anchor="start" x="1866.5" y="-263.3" font-family="monospace" font-size="14.00">EX_Context</text>
<text text-anchor="start" x="1866.5" y="-248.3" font-family="monospace" font-size="14.00">  EX_InstanceVariable [Mesh]</text>
<text text-anchor="start" x="1866.5" y="-233.3" font-family="monospace" font-size="14.00">  EX_FinalFunction import /Script/Engine&#45;&gt;SceneComponent&#45;&gt;SetWorldScale3D</text>
<text text-anchor="start" x="1866.5" y="-218.3" font-family="monospace" font-size="14.00">    EX_VectorConst 1,1,1</text>
<text text-anchor="start" x="1866.5" y="-203.3" font-family="monospace" font-size="14.00">  RValue = []</text>
</g>
<!-- ExecuteUbergraph_MAG_BaseClass__116&#45;&gt;ExecuteUbergraph_MAG_BaseClass__149 -->
<g id="edge8" class="edge">
<title>ExecuteUbergraph_MAG_BaseClass__116&#45;&gt;ExecuteUbergraph_MAG_BaseClass__149</title>
<path fill="none" stroke="black" d="M2168,-316.68C2168,-307.92 2168,-298.74 2168,-289.87"/>
<polygon fill="black" stroke="black" points="2171.5,-289.97 2168,-279.97 2164.5,-289.97 2171.5,-289.97"/>
</g>
<!-- ExecuteUbergraph_MAG_BaseClass__194 -->
<g id="node13" class="node">
<title>ExecuteUbergraph_MAG_BaseClass__194</title>
<polygon fill="#eeeeee" stroke="black" points="1858.5,-74.5 1858.5,-157.5 2477.5,-157.5 2477.5,-74.5 1858.5,-74.5"/>
<text text-anchor="start" x="1866.5" y="-142.3" font-family="monospace" font-size="14.00">EX_Context</text>
<text text-anchor="start" x="1866.5" y="-127.3" font-family="monospace" font-size="14.00">  EX_InstanceVariable [Box]</text>
<text text-anchor="start" x="1866.5" y="-112.3" font-family="monospace" font-size="14.00">  EX_FinalFunction import /Script/Engine&#45;&gt;SceneComponent&#45;&gt;SetWorldScale3D</text>
<text text-anchor="start" x="1866.5" y="-97.3" font-family="monospace" font-size="14.00">    EX_VectorConst 1,1,1</text>
<text text-anchor="start" x="1866.5" y="-82.3" font-family="monospace" font-size="14.00">  RValue = []</text>
</g>
<!-- ExecuteUbergraph_MAG_BaseClass__149&#45;&gt;ExecuteUbergraph_MAG_BaseClass__194 -->
<g id="edge9" class="edge">
<title>ExecuteUbergraph_MAG_BaseClass__149&#45;&gt;ExecuteUbergraph_MAG_BaseClass__194</title>
<path fill="none" stroke="black" d="M2168,-195.71C2168,-186.99 2168,-177.65 2168,-168.56"/>
<polygon fill="black" stroke="black" points="2171.5,-168.76 2168,-158.76 2164.5,-168.76 2171.5,-168.76"/>
</g>
<!-- ExecuteUbergraph_MAG_BaseClass__239 -->
<g id="node14" class="node">
<title>ExecuteUbergraph_MAG_BaseClass__239</title>
<polygon fill="#eeeeee" stroke="black" points="2081.5,-0.5 2081.5,-36.5 2254.5,-36.5 2254.5,-0.5 2081.5,-0.5"/>
<text text-anchor="start" x="2089.5" y="-14.8" font-family="monospace" font-size="14.00">EX_PopExecutionFlow</text>
</g>
<!-- ExecuteUbergraph_MAG_BaseClass__194&#45;&gt;ExecuteUbergraph_MAG_BaseClass__239 -->
<g id="edge10" class="edge">
<title>ExecuteUbergraph_MAG_BaseClass__194&#45;&gt;ExecuteUbergraph_MAG_BaseClass__239</title>
<path fill="none" stroke="black" d="M2168,-74.78C2168,-65.73 2168,-56.32 2168,-47.88"/>
<polygon fill="black" stroke="black" points="2171.5,-47.88 2168,-37.88 2164.5,-47.88 2171.5,-47.88"/>
</g>
<!-- ExecuteUbergraph_MAG_BaseClass__240 -->
<g id="node15" class="node">
<title>ExecuteUbergraph_MAG_BaseClass__240</title>
<polygon fill="#eeeeee" stroke="black" points="1448,-1057.5 1448,-1140.5 1786,-1140.5 1786,-1057.5 1448,-1057.5"/>
<text text-anchor="start" x="1456" y="-1125.3" font-family="monospace" font-size="14.00">EX_Context</text>
<text text-anchor="start" x="1456" y="-1110.3" font-family="monospace" font-size="14.00">  EX_InstanceVariable [Box]</text>
<text text-anchor="start" x="1456" y="-1095.3" font-family="monospace" font-size="14.00">  EX_VirtualFunction SetSimulatePhysics</text>
<text text-anchor="start" x="1456" y="-1080.3" font-family="monospace" font-size="14.00">    EX_True</text>
<text text-anchor="start" x="1456" y="-1065.3" font-family="monospace" font-size="14.00">  RValue = []</text>
</g>
<!-- ExecuteUbergraph_MAG_BaseClass__277 -->
<g id="node16" class="node">
<title>ExecuteUbergraph_MAG_BaseClass__277</title>
<polygon fill="#eeeeee" stroke="black" points="1509.5,-931.5 1509.5,-967.5 1724.5,-967.5 1724.5,-931.5 1509.5,-931.5"/>
<text text-anchor="start" x="1517.5" y="-945.8" font-family="monospace" font-size="14.00">EX_PushExecutionFlow 398</text>
</g>
<!-- ExecuteUbergraph_MAG_BaseClass__240&#45;&gt;ExecuteUbergraph_MAG_BaseClass__277 -->
<g id="edge11" class="edge">
<title>ExecuteUbergraph_MAG_BaseClass__240&#45;&gt;ExecuteUbergraph_MAG_BaseClass__277</title>
<path fill="none" stroke="black" d="M1617,-1057.69C1617,-1032.65 1617,-1001.08 1617,-978.7"/>
<polygon fill="black" stroke="black" points="1620.5,-978.83 1617,-968.83 1613.5,-978.83 1620.5,-978.83"/>
</g>
<!-- ExecuteUbergraph_MAG_BaseClass__282 -->
<g id="node17" class="node">
<title>ExecuteUbergraph_MAG_BaseClass__282</title>
<polygon fill="#eeeeee" stroke="black" points="1405.5,-759.5 1405.5,-795.5 1620.5,-795.5 1620.5,-759.5 1405.5,-759.5"/>
<text text-anchor="start" x="1413.5" y="-773.8" font-family="monospace" font-size="14.00">EX_PushExecutionFlow 342</text>
</g>
<!-- ExecuteUbergraph_MAG_BaseClass__277&#45;&gt;ExecuteUbergraph_MAG_BaseClass__282 -->
<g id="edge13" class="edge">
<title>ExecuteUbergraph_MAG_BaseClass__277&#45;&gt;ExecuteUbergraph_MAG_BaseClass__282</title>
<path fill="none" stroke="black" d="M1606.65,-931.58C1588.5,-901.92 1550.84,-840.35 1529.21,-805"/>
<polygon fill="black" stroke="black" points="1532.3,-803.35 1524.1,-796.64 1526.33,-807 1532.3,-803.35"/>
</g>
<!-- ExecuteUbergraph_MAG_BaseClass__398 -->
<g id="node23" class="node">
<title>ExecuteUbergraph_MAG_BaseClass__398</title>
<polygon fill="#eeeeee" stroke="black" points="1639,-713.5 1639,-841.5 2159,-841.5 2159,-713.5 1639,-713.5"/>
<text text-anchor="start" x="1647" y="-826.3" font-family="monospace" font-size="14.00">EX_CallMath import /Script/Engine&#45;&gt;KismetSystemLibrary&#45;&gt;Delay</text>
<text text-anchor="start" x="1647" y="-811.3" font-family="monospace" font-size="14.00">  EX_Self</text>
<text text-anchor="start" x="1647" y="-796.3" font-family="monospace" font-size="14.00">  EX_InstanceVariable [ChangeFovDelay]</text>
<text text-anchor="start" x="1647" y="-781.3" font-family="monospace" font-size="14.00">  EX_StructConst import /Script/Engine&#45;&gt;LatentActionInfo</text>
<text text-anchor="start" x="1647" y="-766.3" font-family="monospace" font-size="14.00">    EX_SkipOffsetConst 84</text>
<text text-anchor="start" x="1647" y="-751.3" font-family="monospace" font-size="14.00">    EX_IntConst &#45;1128915508</text>
<text text-anchor="start" x="1647" y="-736.3" font-family="monospace" font-size="14.00">    EX_NameConst ExecuteUbergraph_MAG_BaseClass</text>
<text text-anchor="start" x="1647" y="-721.3" font-family="monospace" font-size="14.00">    EX_Self</text>
</g>
<!-- ExecuteUbergraph_MAG_BaseClass__277&#45;&gt;ExecuteUbergraph_MAG_BaseClass__398 -->
<g id="edge12" class="edge">
<title>ExecuteUbergraph_MAG_BaseClass__277:e&#45;&gt;ExecuteUbergraph_MAG_BaseClass__398</title>
<path fill="none" stroke="red" d="M1726,-949.5C1785.66,-949.5 1832.16,-897.43 1861.85,-850.75"/>
<polygon fill="none" stroke="red" points="1864.68,-852.84 1866.95,-842.49 1858.72,-849.16 1864.68,-852.84"/>
<text text-anchor="middle" x="1895.5" y="-874.8" font-family="monospace" font-size="14.00">PUSH STACK</text>
</g>
<!-- ExecuteUbergraph_MAG_BaseClass__287 -->
<g id="node18" class="node">
<title>ExecuteUbergraph_MAG_BaseClass__287</title>
<polygon fill="#eeeeee" stroke="black" points="728,-489 728,-617 1248,-617 1248,-489 728,-489"/>
<text text-anchor="start" x="736" y="-601.8" font-family="monospace" font-size="14.00">EX_CallMath import /Script/Engine&#45;&gt;KismetSystemLibrary&#45;&gt;Delay</text>
<text text-anchor="start" x="736" y="-586.8" font-family="monospace" font-size="14.00">  EX_Self</text>
<text text-anchor="start" x="736" y="-571.8" font-family="monospace" font-size="14.00">  EX_FloatConst 5</text>
<text text-anchor="start" x="736" y="-556.8" font-family="monospace" font-size="14.00">  EX_StructConst import /Script/Engine&#45;&gt;LatentActionInfo</text>
<text text-anchor="start" x="736" y="-541.8" font-family="monospace" font-size="14.00">    EX_SkipOffsetConst 15</text>
<text text-anchor="start" x="736" y="-526.8" font-family="monospace" font-size="14.00">    EX_IntConst &#45;165176261</text>
<text text-anchor="start" x="736" y="-511.8" font-family="monospace" font-size="14.00">    EX_NameConst ExecuteUbergraph_MAG_BaseClass</text>
<text text-anchor="start" x="736" y="-496.8" font-family="monospace" font-size="14.00">    EX_Self</text>
</g>
<!-- ExecuteUbergraph_MAG_BaseClass__282&#45;&gt;ExecuteUbergraph_MAG_BaseClass__287 -->
<g id="edge15" class="edge">
<title>ExecuteUbergraph_MAG_BaseClass__282&#45;&gt;ExecuteUbergraph_MAG_BaseClass__287</title>
<path fill="none" stroke="black" d="M1473.11,-759.59C1404.48,-730.51 1260.53,-669.5 1147.17,-621.46"/>
<polygon fill="black" stroke="black" points="1148.61,-618.27 1138.03,-617.59 1145.88,-624.71 1148.61,-618.27"/>
</g>
<!-- ExecuteUbergraph_MAG_BaseClass__342 -->
<g id="node20" class="node">
<title>ExecuteUbergraph_MAG_BaseClass__342</title>
<polygon fill="#eeeeee" stroke="black" points="1459,-511.5 1459,-594.5 1789,-594.5 1789,-511.5 1459,-511.5"/>
<text text-anchor="start" x="1467" y="-579.3" font-family="monospace" font-size="14.00">EX_PopExecutionFlowIfNot</text>
<text text-anchor="start" x="1467" y="-564.3" font-family="monospace" font-size="14.00">  EX_Context</text>
<text text-anchor="start" x="1467" y="-549.3" font-family="monospace" font-size="14.00">    EX_InstanceVariable [Mesh]</text>
<text text-anchor="start" x="1467" y="-534.3" font-family="monospace" font-size="14.00">    EX_InstanceVariable [EnabledFPFOV]</text>
<text text-anchor="start" x="1467" y="-519.3" font-family="monospace" font-size="14.00">    RValue = [EnabledFPFOV]</text>
</g>
<!-- ExecuteUbergraph_MAG_BaseClass__282&#45;&gt;ExecuteUbergraph_MAG_BaseClass__342 -->
<g id="edge14" class="edge">
<title>ExecuteUbergraph_MAG_BaseClass__282:e&#45;&gt;ExecuteUbergraph_MAG_BaseClass__342</title>
<path fill="none" stroke="red" d="M1622,-777.5C1630.53,-777.5 1628.28,-671.94 1626.04,-605.91"/>
<polygon fill="none" stroke="red" points="1629.54,-605.86 1625.69,-595.99 1622.54,-606.1 1629.54,-605.86"/>
<text text-anchor="middle" x="1670.5" y="-672.8" font-family="monospace" font-size="14.00">PUSH STACK</text>
</g>
<!-- ExecuteUbergraph_MAG_BaseClass__287&#45;&gt;ExecuteUbergraph_MAG_BaseClass__15 -->
<g id="edge16" class="edge">
<title>ExecuteUbergraph_MAG_BaseClass__287:e&#45;&gt;ExecuteUbergraph_MAG_BaseClass__15</title>
<path fill="none" stroke="red" d="M1249,-553C1311.92,-553 1276.48,-445.62 1255.72,-393.82"/>
<polygon fill="none" stroke="red" points="1259.04,-392.7 1252,-384.78 1252.56,-395.36 1259.04,-392.7"/>
</g>
<!-- ExecuteUbergraph_MAG_BaseClass__341 -->
<g id="node19" class="node">
<title>ExecuteUbergraph_MAG_BaseClass__341</title>
<polygon fill="#eeeeee" stroke="black" points="901.5,-347.5 901.5,-383.5 1074.5,-383.5 1074.5,-347.5 901.5,-347.5"/>
<text text-anchor="start" x="909.5" y="-361.8" font-family="monospace" font-size="14.00">EX_PopExecutionFlow</text>
</g>
<!-- ExecuteUbergraph_MAG_BaseClass__287&#45;&gt;ExecuteUbergraph_MAG_BaseClass__341 -->
<g id="edge17" class="edge">
<title>ExecuteUbergraph_MAG_BaseClass__287&#45;&gt;ExecuteUbergraph_MAG_BaseClass__341</title>
<path fill="none" stroke="black" d="M988,-489.2C988,-457.04 988,-419.51 988,-394.5"/>
<polygon fill="black" stroke="black" points="991.5,-394.82 988,-384.82 984.5,-394.82 991.5,-394.82"/>
</g>
<!-- ExecuteUbergraph_MAG_BaseClass__374 -->
<g id="node21" class="node">
<title>ExecuteUbergraph_MAG_BaseClass__374</title>
<polygon fill="#eeeeee" stroke="black" points="1411,-346.5 1411,-384.5 1939,-384.5 1939,-346.5 1411,-346.5"/>
<text text-anchor="start" x="1419" y="-369.3" font-family="monospace" font-size="14.00">EX_FinalFunction import /Script/Engine&#45;&gt;Actor&#45;&gt;SetActorScale3D</text>
<text text-anchor="start" x="1419" y="-354.3" font-family="monospace" font-size="14.00">  EX_VectorConst 1,1,1</text>
</g>
<!-- ExecuteUbergraph_MAG_BaseClass__342&#45;&gt;ExecuteUbergraph_MAG_BaseClass__374 -->
<g id="edge18" class="edge">
<title>ExecuteUbergraph_MAG_BaseClass__342&#45;&gt;ExecuteUbergraph_MAG_BaseClass__374</title>
<path fill="none" stroke="black" d="M1635.07,-511.75C1644.73,-476.6 1658.52,-426.45 1667.1,-395.22"/>
<polygon fill="black" stroke="black" points="1670.44,-396.28 1669.72,-385.71 1663.69,-394.42 1670.44,-396.28"/>
</g>
<!-- ExecuteUbergraph_MAG_BaseClass__397 -->
<g id="node22" class="node">
<title>ExecuteUbergraph_MAG_BaseClass__397</title>
<polygon fill="#eeeeee" stroke="black" points="1588.5,-219 1588.5,-255 1761.5,-255 1761.5,-219 1588.5,-219"/>
<text text-anchor="start" x="1596.5" y="-233.3" font-family="monospace" font-size="14.00">EX_PopExecutionFlow</text>
</g>
<!-- ExecuteUbergraph_MAG_BaseClass__374&#45;&gt;ExecuteUbergraph_MAG_BaseClass__397 -->
<g id="edge19" class="edge">
<title>ExecuteUbergraph_MAG_BaseClass__374&#45;&gt;ExecuteUbergraph_MAG_BaseClass__397</title>
<path fill="none" stroke="black" d="M1675,-346.64C1675,-325.79 1675,-291.01 1675,-266.43"/>
<polygon fill="black" stroke="black" points="1678.5,-266.47 1675,-256.47 1671.5,-266.47 1678.5,-266.47"/>
</g>
<!-- ExecuteUbergraph_MAG_BaseClass__398&#45;&gt;ExecuteUbergraph_MAG_BaseClass__84 -->
<g id="edge20" class="edge">
<title>ExecuteUbergraph_MAG_BaseClass__398:e&#45;&gt;ExecuteUbergraph_MAG_BaseClass__84</title>
<path fill="none" stroke="red" d="M2160,-777.5C2228.59,-777.5 2206.32,-671.06 2185.93,-605.09"/>
<polygon fill="none" stroke="red" points="2189.38,-604.39 2183.02,-595.92 2182.71,-606.51 2189.38,-604.39"/>
</g>
<!-- ExecuteUbergraph_MAG_BaseClass__456 -->
<g id="node24" class="node">
<title>ExecuteUbergraph_MAG_BaseClass__456</title>
<polygon fill="#eeeeee" stroke="black" points="1811.5,-535 1811.5,-571 1984.5,-571 1984.5,-535 1811.5,-535"/>
<text text-anchor="start" x="1819.5" y="-549.3" font-family="monospace" font-size="14.00">EX_PopExecutionFlow</text>
</g>
<!-- ExecuteUbergraph_MAG_BaseClass__398&#45;&gt;ExecuteUbergraph_MAG_BaseClass__456 -->
<g id="edge21" class="edge">
<title>ExecuteUbergraph_MAG_BaseClass__398&#45;&gt;ExecuteUbergraph_MAG_BaseClass__456</title>
<path fill="none" stroke="black" d="M1898.72,-713.63C1898.52,-670.33 1898.27,-614.89 1898.13,-582.03"/>
<polygon fill="black" stroke="black" points="1901.63,-582.12 1898.08,-572.14 1894.63,-582.15 1901.63,-582.12"/>
</g>
<!-- ExecuteUbergraph_MAG_BaseClass__457 -->
<g id="node25" class="node">
<title>ExecuteUbergraph_MAG_BaseClass__457</title>
<polygon fill="#eeeeee" stroke="black" points="2590.5,-931.5 2590.5,-967.5 2689.5,-967.5 2689.5,-931.5 2590.5,-931.5"/>
<text text-anchor="start" x="2598.5" y="-945.8" font-family="monospace" font-size="14.00">EX_Jump 30</text>
</g>
<!-- ExecuteUbergraph_MAG_BaseClass__457&#45;&gt;ExecuteUbergraph_MAG_BaseClass__30 -->
<g id="edge22" class="edge">
<title>ExecuteUbergraph_MAG_BaseClass__457&#45;&gt;ExecuteUbergraph_MAG_BaseClass__30</title>
<path fill="none" stroke="black" d="M2640,-931.58C2640,-902.6 2640,-843.17 2640,-807.49"/>
<polygon fill="black" stroke="black" points="2643.5,-807.89 2640,-797.89 2636.5,-807.89 2643.5,-807.89"/>
</g>
<!-- ExecuteUbergraph_MAG_BaseClass__464 -->
<g id="node27" class="node">
<title>ExecuteUbergraph_MAG_BaseClass__464</title>
<polygon fill="#eeeeee" stroke="black" points="2540,-1271.5 2540,-1307.5 2672,-1307.5 2672,-1271.5 2540,-1271.5"/>
<text text-anchor="start" x="2548" y="-1285.8" font-family="monospace" font-size="14.00">EX_EndOfScript</text>
</g>
<!-- OnItemSkinned -->
<g id="node28" class="node">
<title>OnItemSkinned</title>
<polygon fill="#ff8888" stroke="black" points="2083,-1416.5 2083,-1469.5 2553,-1469.5 2553,-1416.5 2083,-1416.5"/>
<text text-anchor="start" x="2091" y="-1454.3" font-family="monospace" font-size="14.00">Function OnItemSkinned</text>
<text text-anchor="start" x="2091" y="-1439.3" font-family="monospace" font-size="14.00">  ObjectProperty skin</text>
<text text-anchor="start" x="2091" y="-1424.3" font-family="monospace" font-size="14.00">    CPF_BlueprintVisible|CPF_BlueprintReadOnly|CPF_Parm</text>
</g>
<!-- OnItemSkinned__0 -->
<g id="node29" class="node">
<title>OnItemSkinned__0</title>
<polygon fill="#eeeeee" stroke="black" points="2111.5,-1214.5 2111.5,-1252.5 2524.5,-1252.5 2524.5,-1214.5 2111.5,-1214.5"/>
<text text-anchor="start" x="2119.5" y="-1237.3" font-family="monospace" font-size="14.00">EX_LetValueOnPersistentFrame [K2Node_Event_skin]</text>
<text text-anchor="start" x="2119.5" y="-1222.3" font-family="monospace" font-size="14.00">  EX_LocalVariable [skin]</text>
</g>
<!-- OnItemSkinned&#45;&gt;OnItemSkinned__0 -->
<g id="edge23" class="edge">
<title>OnItemSkinned&#45;&gt;OnItemSkinned__0</title>
<path fill="none" stroke="black" d="M2318,-1416.56C2318,-1377.83 2318,-1304.31 2318,-1263.55"/>
<polygon fill="black" stroke="black" points="2321.5,-1263.77 2318,-1253.77 2314.5,-1263.77 2321.5,-1263.77"/>
</g>
<!-- OnItemSkinned__18 -->
<g id="node30" class="node">
<title>OnItemSkinned__18</title>
<polygon fill="#eeeeee" stroke="black" points="1996,-1080 1996,-1118 2640,-1118 2640,-1080 1996,-1080"/>
<text text-anchor="start" x="2004" y="-1102.8" font-family="monospace" font-size="14.00">EX_LocalFinalFunction export MAG_BaseClass_C&#45;&gt;ExecuteUbergraph_MAG_BaseClass</text>
<text text-anchor="start" x="2004" y="-1087.8" font-family="monospace" font-size="14.00">  EX_IntConst 457</text>
</g>
<!-- OnItemSkinned__0&#45;&gt;OnItemSkinned__18 -->
<g id="edge24" class="edge">
<title>OnItemSkinned__0&#45;&gt;OnItemSkinned__18</title>
<path fill="none" stroke="black" d="M2318,-1214.63C2318,-1192.68 2318,-1155.14 2318,-1129.03"/>
<polygon fill="black" stroke="black" points="2321.5,-1129.1 2318,-1119.1 2314.5,-1129.1 2321.5,-1129.1"/>
</g>
<!-- OnItemSkinned__18&#45;&gt;ExecuteUbergraph_MAG_BaseClass__457 -->
<g id="edge25" class="edge">
<title>OnItemSkinned__18:e&#45;&gt;ExecuteUbergraph_MAG_BaseClass__457</title>
<path fill="none" stroke="red" d="M2641,-1099C2688.93,-1099 2666.72,-1020.7 2650.97,-977.81"/>
<polygon fill="none" stroke="red" points="2654.31,-976.77 2647.49,-968.66 2647.77,-979.25 2654.31,-976.77"/>
</g>
<!-- OnItemSkinned__33 -->
<g id="node31" class="node">
<title>OnItemSkinned__33</title>
<polygon fill="#eeeeee" stroke="black" points="2260,-930.5 2260,-968.5 2376,-968.5 2376,-930.5 2260,-930.5"/>
<text text-anchor="start" x="2268" y="-953.3" font-family="monospace" font-size="14.00">EX_Return</text>
<text text-anchor="start" x="2268" y="-938.3" font-family="monospace" font-size="14.00">  EX_Nothing</text>
</g>
<!-- OnItemSkinned__18&#45;&gt;OnItemSkinned__33 -->
<g id="edge26" class="edge">
<title>OnItemSkinned__18&#45;&gt;OnItemSkinned__33</title>
<path fill="none" stroke="black" d="M2318,-1080.21C2318,-1055.29 2318,-1009.7 2318,-979.75"/>
<polygon fill="black" stroke="black" points="2321.5,-979.87 2318,-969.87 2314.5,-979.87 2321.5,-979.87"/>
</g>
<!-- OnItemSkinned__35 -->
<g id="node32" class="node">
<title>OnItemSkinned__35</title>
<polygon fill="#eeeeee" stroke="black" points="2525,-1159.5 2525,-1195.5 2657,-1195.5 2657,-1159.5 2525,-1159.5"/>
<text text-anchor="start" x="2533" y="-1173.8" font-family="monospace" font-size="14.00">EX_EndOfScript</text>
</g>
<!-- DoRelease -->
<g id="node33" class="node">
<title>DoRelease</title>
<polygon fill="#ff8888" stroke="black" points="1212.5,-1425 1212.5,-1461 1377.5,-1461 1377.5,-1425 1212.5,-1425"/>
<text text-anchor="start" x="1220.5" y="-1439.3" font-family="monospace" font-size="14.00">Function DoRelease</text>
</g>
<!-- DoRelease__0 -->
<g id="node34" class="node">
<title>DoRelease__0</title>
<polygon fill="#eeeeee" stroke="black" points="973,-1214.5 973,-1252.5 1617,-1252.5 1617,-1214.5 973,-1214.5"/>
<text text-anchor="start" x="981" y="-1237.3" font-family="monospace" font-size="14.00">EX_LocalFinalFunction export MAG_BaseClass_C&#45;&gt;ExecuteUbergraph_MAG_BaseClass</text>
<text text-anchor="start" x="981" y="-1222.3" font-family="monospace" font-size="14.00">  EX_IntConst 240</text>
</g>
<!-- DoRelease&#45;&gt;DoRelease__0 -->
<g id="edge27" class="edge">
<title>DoRelease&#45;&gt;DoRelease__0</title>
<path fill="none" stroke="black" d="M1295,-1425.02C1295,-1389.63 1295,-1307.63 1295,-1263.63"/>
<polygon fill="black" stroke="black" points="1298.5,-1263.82 1295,-1253.82 1291.5,-1263.82 1298.5,-1263.82"/>
</g>
<!-- DoRelease__0&#45;&gt;ExecuteUbergraph_MAG_BaseClass__240 -->
<g id="edge28" class="edge">
<title>DoRelease__0:e&#45;&gt;ExecuteUbergraph_MAG_BaseClass__240</title>
<path fill="none" stroke="red" d="M1618,-1233.5C1652.28,-1233.5 1646.62,-1188.94 1635.72,-1151.31"/>
<polygon fill="none" stroke="red" points="1639.1,-1150.39 1632.82,-1141.86 1632.41,-1152.45 1639.1,-1150.39"/>
</g>
<!-- DoRelease__15 -->
<g id="node35" class="node">
<title>DoRelease__15</title>
<polygon fill="#eeeeee" stroke="black" points="1237,-1080 1237,-1118 1353,-1118 1353,-1080 1237,-1080"/>
<text text-anchor="start" x="1245" y="-1102.8" font-family="monospace" font-size="14.00">EX_Return</text>
<text text-anchor="start" x="1245" y="-1087.8" font-family="monospace" font-size="14.00">  EX_Nothing</text>
</g>
<!-- DoRelease__0&#45;&gt;DoRelease__15 -->
<g id="edge29" class="edge">
<title>DoRelease__0&#45;&gt;DoRelease__15</title>
<path fill="none" stroke="black" d="M1295,-1214.63C1295,-1192.68 1295,-1155.14 1295,-1129.03"/>
<polygon fill="black" stroke="black" points="1298.5,-1129.1 1295,-1119.1 1291.5,-1129.1 1298.5,-1129.1"/>
</g>
<!-- DoRelease__17 -->
<g id="node36" class="node">
<title>DoRelease__17</title>
<polygon fill="#eeeeee" stroke="black" points="2686,-1002.5 2686,-1038.5 2818,-1038.5 2818,-1002.5 2686,-1002.5"/>
<text text-anchor="start" x="2694" y="-1016.8" font-family="monospace" font-size="14.00">EX_EndOfScript</text>
</g>
<!-- OnSpawnRelease_Released -->
<g id="node37" class="node">
<title>OnSpawnRelease_Released</title>
<polygon fill="#ff8888" stroke="black" points="2725,-1416.5 2725,-1469.5 3063,-1469.5 3063,-1416.5 2725,-1416.5"/>
<text text-anchor="start" x="2733" y="-1454.3" font-family="monospace" font-size="14.00">Function OnSpawnRelease_Released</text>
<text text-anchor="start" x="2733" y="-1439.3" font-family="monospace" font-size="14.00">  BoolProperty ReturnValue</text>
<text text-anchor="start" x="2733" y="-1424.3" font-family="monospace" font-size="14.00">    CPF_Parm|CPF_OutParm|CPF_ReturnParm</text>
</g>
<!-- OnSpawnRelease_Released__0 -->
<g id="node38" class="node">
<title>OnSpawnRelease_Released__0</title>
<polygon fill="#eeeeee" stroke="black" points="2749.5,-1215.5 2749.5,-1251.5 3038.5,-1251.5 3038.5,-1215.5 2749.5,-1215.5"/>
<text text-anchor="start" x="2757.5" y="-1229.8" font-family="monospace" font-size="14.00">EX_LocalVirtualFunction DoRelease</text>
</g>
<!-- OnSpawnRelease_Released&#45;&gt;OnSpawnRelease_Released__0 -->
<g id="edge30" class="edge">
<title>OnSpawnRelease_Released&#45;&gt;OnSpawnRelease_Released__0</title>
<path fill="none" stroke="black" d="M2894,-1416.56C2894,-1377.62 2894,-1303.51 2894,-1262.88"/>
<polygon fill="black" stroke="black" points="2897.5,-1262.94 2894,-1252.94 2890.5,-1262.94 2897.5,-1262.94"/>
</g>
<!-- OnSpawnRelease_Released__14 -->
<g id="node39" class="node">
<title>OnSpawnRelease_Released__14</title>
<polygon fill="#eeeeee" stroke="black" points="2799,-1065 2799,-1133 2989,-1133 2989,-1065 2799,-1065"/>
<text text-anchor="start" x="2807" y="-1117.8" font-family="monospace" font-size="14.00">EX_LetBool</text>
<text text-anchor="start" x="2807" y="-1102.8" font-family="monospace" font-size="14.00">  EX_LocalOutVariable</text>
<text text-anchor="start" x="2807" y="-1087.8" font-family="monospace" font-size="14.00">    [ReturnValue]</text>
<text text-anchor="start" x="2807" y="-1072.8" font-family="monospace" font-size="14.00">  EX_False</text>
</g>
<!-- OnSpawnRelease_Released__0&#45;&gt;OnSpawnRelease_Released__14 -->
<g id="edge31" class="edge">
<title>OnSpawnRelease_Released__0&#45;&gt;OnSpawnRelease_Released__14</title>
<path fill="none" stroke="black" d="M2894,-1215.72C2894,-1197.8 2894,-1168.68 2894,-1144.13"/>
<polygon fill="black" stroke="black" points="2897.5,-1144.39 2894,-1134.39 2890.5,-1144.39 2897.5,-1144.39"/>
</g>
<!-- OnSpawnRelease_Released__25 -->
<g id="node40" class="node">
<title>OnSpawnRelease_Released__25</title>
<polygon fill="#eeeeee" stroke="black" points="2799,-923 2799,-976 2989,-976 2989,-923 2799,-923"/>
<text text-anchor="start" x="2807" y="-960.8" font-family="monospace" font-size="14.00">EX_Return</text>
<text text-anchor="start" x="2807" y="-945.8" font-family="monospace" font-size="14.00">  EX_LocalOutVariable</text>
<text text-anchor="start" x="2807" y="-930.8" font-family="monospace" font-size="14.00">    [ReturnValue]</text>
</g>
<!-- OnSpawnRelease_Released__14&#45;&gt;OnSpawnRelease_Released__25 -->
<g id="edge32" class="edge">
<title>OnSpawnRelease_Released__14&#45;&gt;OnSpawnRelease_Released__25</title>
<path fill="none" stroke="black" d="M2894,-1065.26C2894,-1042.18 2894,-1011.22 2894,-987.28"/>
<polygon fill="black" stroke="black" points="2897.5,-987.33 2894,-977.33 2890.5,-987.33 2897.5,-987.33"/>
</g>
<!-- OnSpawnRelease_Released__35 -->
<g id="node41" class="node">
<title>OnSpawnRelease_Released__35</title>
<polygon fill="#eeeeee" stroke="black" points="2905,-860.5 2905,-896.5 3037,-896.5 3037,-860.5 2905,-860.5"/>
<text text-anchor="start" x="2913" y="-874.8" font-family="monospace" font-size="14.00">EX_EndOfScript</text>
</g>
<!-- OnSpawnRelease_Attached -->
<g id="node42" class="node">
<title>OnSpawnRelease_Attached</title>
<polygon fill="#ff8888" stroke="black" points="3173.5,-1386.5 3173.5,-1499.5 3652.5,-1499.5 3652.5,-1386.5 3173.5,-1386.5"/>
<text text-anchor="start" x="3181.5" y="-1484.3" font-family="monospace" font-size="14.00">Function OnSpawnRelease_Attached</text>
<text text-anchor="start" x="3181.5" y="-1469.3" font-family="monospace" font-size="14.00">  ObjectProperty parent</text>
<text text-anchor="start" x="3181.5" y="-1454.3" font-family="monospace" font-size="14.00">    CPF_BlueprintVisible|CPF_BlueprintReadOnly|CPF_Parm</text>
<text text-anchor="start" x="3181.5" y="-1439.3" font-family="monospace" font-size="14.00">  BoolProperty ReturnValue</text>
<text text-anchor="start" x="3181.5" y="-1424.3" font-family="monospace" font-size="14.00">    CPF_Parm|CPF_OutParm|CPF_ReturnParm</text>
<text text-anchor="start" x="3181.5" y="-1409.3" font-family="monospace" font-size="14.00">  ObjectProperty K2Node_DynamicCast_AsAmmo_Driven_Weapon</text>
<text text-anchor="start" x="3181.5" y="-1394.3" font-family="monospace" font-size="14.00">  BoolProperty K2Node_DynamicCast_bSuccess</text>
</g>
<!-- OnSpawnRelease_Attached__0 -->
<g id="node43" class="node">
<title>OnSpawnRelease_Attached__0</title>
<polygon fill="#eeeeee" stroke="black" points="3268.5,-1214.5 3268.5,-1252.5 3557.5,-1252.5 3557.5,-1214.5 3268.5,-1214.5"/>
<text text-anchor="start" x="3276.5" y="-1237.3" font-family="monospace" font-size="14.00">EX_JumpIfNot 181</text>
<text text-anchor="start" x="3276.5" y="-1222.3" font-family="monospace" font-size="14.00">  EX_InstanceVariable [ApplySkin]</text>
</g>
<!-- OnSpawnRelease_Attached&#45;&gt;OnSpawnRelease_Attached__0 -->
<g id="edge33" class="edge">
<title>OnSpawnRelease_Attached&#45;&gt;OnSpawnRelease_Attached__0</title>
<path fill="none" stroke="black" d="M3413,-1386.67C3413,-1347.06 3413,-1295.33 3413,-1263.54"/>
<polygon fill="black" stroke="black" points="3416.5,-1263.91 3413,-1253.91 3409.5,-1263.91 3416.5,-1263.91"/>
</g>
<!-- OnSpawnRelease_Attached__14 -->
<g id="node44" class="node">
<title>OnSpawnRelease_Attached__14</title>
<polygon fill="#eeeeee" stroke="black" points="3052,-1065 3052,-1133 3564,-1133 3564,-1065 3052,-1065"/>
<text text-anchor="start" x="3060" y="-1117.8" font-family="monospace" font-size="14.00">EX_Let</text>
<text text-anchor="start" x="3060" y="-1102.8" font-family="monospace" font-size="14.00">  EX_LocalVariable [K2Node_DynamicCast_AsAmmo_Driven_Weapon]</text>
<text text-anchor="start" x="3060" y="-1087.8" font-family="monospace" font-size="14.00">  EX_DynamicCast import /Script/FSD&#45;&gt;AmmoDrivenWeapon</text>
<text text-anchor="start" x="3060" y="-1072.8" font-family="monospace" font-size="14.00">    EX_LocalVariable [parent]</text>
</g>
<!-- OnSpawnRelease_Attached__0&#45;&gt;OnSpawnRelease_Attached__14 -->
<g id="edge35" class="edge">
<title>OnSpawnRelease_Attached__0&#45;&gt;OnSpawnRelease_Attached__14</title>
<path fill="none" stroke="black" d="M3398.84,-1214.63C3384.08,-1196.01 3360.44,-1166.17 3340.97,-1141.61"/>
<polygon fill="black" stroke="black" points="3343.91,-1139.68 3334.95,-1134.01 3338.42,-1144.02 3343.91,-1139.68"/>
<text text-anchor="middle" x="3390.5" y="-1173.8" font-family="monospace" font-size="14.00">IF</text>
</g>
<!-- OnSpawnRelease_Attached__181 -->
<g id="node49" class="node">
<title>OnSpawnRelease_Attached__181</title>
<polygon fill="#eeeeee" stroke="black" points="3434,-210.5 3434,-263.5 3624,-263.5 3624,-210.5 3434,-210.5"/>
<text text-anchor="start" x="3442" y="-248.3" font-family="monospace" font-size="14.00">EX_Return</text>
<text text-anchor="start" x="3442" y="-233.3" font-family="monospace" font-size="14.00">  EX_LocalOutVariable</text>
<text text-anchor="start" x="3442" y="-218.3" font-family="monospace" font-size="14.00">    [ReturnValue]</text>
</g>
<!-- OnSpawnRelease_Attached__0&#45;&gt;OnSpawnRelease_Attached__181 -->
<g id="edge34" class="edge">
<title>OnSpawnRelease_Attached__0:e&#45;&gt;OnSpawnRelease_Attached__181</title>
<path fill="none" stroke="red" d="M3559,-1233.5C3620.34,-1233.5 3594,-1161.34 3594,-1100 3594,-1100 3594,-1100 3594,-364.5 3594,-330.5 3575.19,-296.47 3557.81,-272.28"/>
<polygon fill="none" stroke="red" points="3560.71,-270.32 3551.91,-264.41 3555.1,-274.51 3560.71,-270.32"/>
<text text-anchor="middle" x="3619" y="-773.8" font-family="monospace" font-size="14.00">IF NOT</text>
</g>
<!-- OnSpawnRelease_Attached__50 -->
<g id="node45" class="node">
<title>OnSpawnRelease_Attached__50</title>
<polygon fill="#eeeeee" stroke="black" points="3038,-915.5 3038,-983.5 3566,-983.5 3566,-915.5 3038,-915.5"/>
<text text-anchor="start" x="3046" y="-968.3" font-family="monospace" font-size="14.00">EX_Let</text>
<text text-anchor="start" x="3046" y="-953.3" font-family="monospace" font-size="14.00">  EX_LocalVariable [K2Node_DynamicCast_bSuccess]</text>
<text text-anchor="start" x="3046" y="-938.3" font-family="monospace" font-size="14.00">  EX_PrimitiveCast ObjectToBool</text>
<text text-anchor="start" x="3046" y="-923.3" font-family="monospace" font-size="14.00">    EX_LocalVariable [K2Node_DynamicCast_AsAmmo_Driven_Weapon]</text>
</g>
<!-- OnSpawnRelease_Attached__14&#45;&gt;OnSpawnRelease_Attached__50 -->
<g id="edge36" class="edge">
<title>OnSpawnRelease_Attached__14&#45;&gt;OnSpawnRelease_Attached__50</title>
<path fill="none" stroke="black" d="M3306.67,-1065.26C3305.82,-1044.52 3304.72,-1017.43 3303.8,-994.78"/>
<polygon fill="black" stroke="black" points="3307.3,-994.76 3303.4,-984.91 3300.31,-995.04 3307.3,-994.76"/>
</g>
<!-- OnSpawnRelease_Attached__79 -->
<g id="node46" class="node">
<title>OnSpawnRelease_Attached__79</title>
<polygon fill="#eeeeee" stroke="black" points="3095.5,-758.5 3095.5,-796.5 3508.5,-796.5 3508.5,-758.5 3095.5,-758.5"/>
<text text-anchor="start" x="3103.5" y="-781.3" font-family="monospace" font-size="14.00">EX_JumpIfNot 181</text>
<text text-anchor="start" x="3103.5" y="-766.3" font-family="monospace" font-size="14.00">  EX_LocalVariable [K2Node_DynamicCast_bSuccess]</text>
</g>
<!-- OnSpawnRelease_Attached__50&#45;&gt;OnSpawnRelease_Attached__79 -->
<g id="edge37" class="edge">
<title>OnSpawnRelease_Attached__50&#45;&gt;OnSpawnRelease_Attached__79</title>
<path fill="none" stroke="black" d="M3302,-915.72C3302,-884.35 3302,-837.47 3302,-807.44"/>
<polygon fill="black" stroke="black" points="3305.5,-807.59 3302,-797.59 3298.5,-807.59 3305.5,-807.59"/>
</g>
<!-- OnSpawnRelease_Attached__93 -->
<g id="node47" class="node">
<title>OnSpawnRelease_Attached__93</title>
<polygon fill="#eeeeee" stroke="black" points="2947.5,-466.5 2947.5,-639.5 3500.5,-639.5 3500.5,-466.5 2947.5,-466.5"/>
<text text-anchor="start" x="2955.5" y="-624.3" font-family="monospace" font-size="14.00">EX_Context</text>
<text text-anchor="start" x="2955.5" y="-609.3" font-family="monospace" font-size="14.00">  EX_Context</text>
<text text-anchor="start" x="2955.5" y="-594.3" font-family="monospace" font-size="14.00">    EX_Context</text>
<text text-anchor="start" x="2955.5" y="-579.3" font-family="monospace" font-size="14.00">      EX_LocalVariable [K2Node_DynamicCast_AsAmmo_Driven_Weapon]</text>
<text text-anchor="start" x="2955.5" y="-564.3" font-family="monospace" font-size="14.00">      EX_InstanceVariable [Skinnable]</text>
<text text-anchor="start" x="2955.5" y="-549.3" font-family="monospace" font-size="14.00">      RValue = [Skinnable]</text>
<text text-anchor="start" x="2955.5" y="-534.3" font-family="monospace" font-size="14.00">    EX_InstanceVariable [EquippedSkinColor]</text>
<text text-anchor="start" x="2955.5" y="-519.3" font-family="monospace" font-size="14.00">    RValue = [EquippedSkinColor]</text>
<text text-anchor="start" x="2955.5" y="-504.3" font-family="monospace" font-size="14.00">  EX_FinalFunction import /Script/FSD&#45;&gt;ItemSkin&#45;&gt;Receive_SkinItem</text>
<text text-anchor="start" x="2955.5" y="-489.3" font-family="monospace" font-size="14.00">    EX_Self</text>
<text text-anchor="start" x="2955.5" y="-474.3" font-family="monospace" font-size="14.00">  RValue = []</text>
</g>
<!-- OnSpawnRelease_Attached__79&#45;&gt;OnSpawnRelease_Attached__93 -->
<g id="edge39" class="edge">
<title>OnSpawnRelease_Attached__79&#45;&gt;OnSpawnRelease_Attached__93</title>
<path fill="none" stroke="black" d="M3295.75,-758.67C3287.42,-734.9 3272.05,-691.07 3257.67,-650.05"/>
<polygon fill="black" stroke="black" points="3261.06,-649.12 3254.44,-640.84 3254.45,-651.44 3261.06,-649.12"/>
<text text-anchor="middle" x="3281.5" y="-672.8" font-family="monospace" font-size="14.00">IF</text>
</g>
<!-- OnSpawnRelease_Attached__79&#45;&gt;OnSpawnRelease_Attached__181 -->
<g id="edge38" class="edge">
<title>OnSpawnRelease_Attached__79:e&#45;&gt;OnSpawnRelease_Attached__181</title>
<path fill="none" stroke="red" d="M3510,-777.5C3522.61,-777.5 3527.45,-395.8 3528.67,-274.52"/>
<polygon fill="none" stroke="red" points="3532.17,-274.84 3528.76,-264.81 3525.17,-274.78 3532.17,-274.84"/>
<text text-anchor="middle" x="3552" y="-436.8" font-family="monospace" font-size="14.00">IF NOT</text>
</g>
<!-- OnSpawnRelease_Attached__170 -->
<g id="node48" class="node">
<title>OnSpawnRelease_Attached__170</title>
<polygon fill="#eeeeee" stroke="black" points="3266,-331.5 3266,-399.5 3456,-399.5 3456,-331.5 3266,-331.5"/>
<text text-anchor="start" x="3274" y="-384.3" font-family="monospace" font-size="14.00">EX_LetBool</text>
<text text-anchor="start" x="3274" y="-369.3" font-family="monospace" font-size="14.00">  EX_LocalOutVariable</text>
<text text-anchor="start" x="3274" y="-354.3" font-family="monospace" font-size="14.00">    [ReturnValue]</text>
<text text-anchor="start" x="3274" y="-339.3" font-family="monospace" font-size="14.00">  EX_False</text>
</g>
<!-- OnSpawnRelease_Attached__93&#45;&gt;OnSpawnRelease_Attached__170 -->
<g id="edge40" class="edge">
<title>OnSpawnRelease_Attached__93&#45;&gt;OnSpawnRelease_Attached__170</title>
<path fill="none" stroke="black" d="M3287.09,-466.58C3302.02,-446.36 3317.3,-425.68 3330.06,-408.4"/>
<polygon fill="black" stroke="black" points="3332.84,-410.52 3335.97,-400.39 3327.21,-406.36 3332.84,-410.52"/>
</g>
<!-- OnSpawnRelease_Attached__170&#45;&gt;OnSpawnRelease_Attached__181 -->
<g id="edge41" class="edge">
<title>OnSpawnRelease_Attached__170&#45;&gt;OnSpawnRelease_Attached__181</title>
<path fill="none" stroke="black" d="M3404.7,-331.59C3429.9,-312.62 3461.44,-288.87 3486.44,-270.05"/>
<polygon fill="black" stroke="black" points="3488.24,-273.07 3494.12,-264.26 3484.03,-267.48 3488.24,-273.07"/>
</g>
<!-- OnSpawnRelease_Attached__191 -->
<g id="node50" class="node">
<title>OnSpawnRelease_Attached__191</title>
<polygon fill="#eeeeee" stroke="black" points="3609,-658.5 3609,-694.5 3741,-694.5 3741,-658.5 3609,-658.5"/>
<text text-anchor="start" x="3617" y="-672.8" font-family="monospace" font-size="14.00">EX_EndOfScript</text>
</g>
</g>
</svg>
