<?xml version="1.0" encoding="UTF-8" standalone="no"?>
<!DOCTYPE svg PUBLIC "-//W3C//DTD SVG 1.1//EN"
 "http://www.w3.org/Graphics/SVG/1.1/DTD/svg11.dtd">
<!-- Generated by graphviz version 7.0.1 (0)
 -->
<!-- Pages: 1 -->
<svg width="3631pt" height="782pt"
 viewBox="0.00 0.00 3630.50 782.00" xmlns="http://www.w3.org/2000/svg" xmlns:xlink="http://www.w3.org/1999/xlink">
<g id="graph0" class="graph" transform="scale(1 1) rotate(0) translate(4 778)">
<polygon fill="white" stroke="none" points="-4,4 -4,-778 3626.5,-778 3626.5,4 -4,4"/>
<!-- ABP_Generator_C -->
<g id="node1" class="node">
<title>ABP_Generator_C</title>
<polygon fill="#88ff88" stroke="black" points="0,-540.5 0,-773.5 503,-773.5 503,-540.5 0,-540.5"/>
<text text-anchor="start" x="8" y="-758.3" font-family="monospace" font-size="14.00">ClassExport: ABP_Generator_C</text>
<text text-anchor="start" x="8" y="-743.3" font-family="monospace" font-size="14.00">  SuperStruct: import /Script/FSD&#45;&gt;AnchorTurnerAnimInstance</text>
<text text-anchor="start" x="8" y="-728.3" font-family="monospace" font-size="14.00">  Properties:</text>
<text text-anchor="start" x="8" y="-713.3" font-family="monospace" font-size="14.00">    StructProperty UberGraphFrame</text>
<text text-anchor="start" x="8" y="-698.3" font-family="monospace" font-size="14.00">      CPF_Transient|CPF_DuplicateTransient</text>
<text text-anchor="start" x="8" y="-683.3" font-family="monospace" font-size="14.00">    StructProperty AnimGraphNode_Root</text>
<text text-anchor="start" x="8" y="-668.3" font-family="monospace" font-size="14.00">    StructProperty AnimGraphNode_ComponentToLocalSpace</text>
<text text-anchor="start" x="8" y="-653.3" font-family="monospace" font-size="14.00">    StructProperty AnimGraphNode_ModifyBone</text>
<text text-anchor="start" x="8" y="-638.3" font-family="monospace" font-size="14.00">    StructProperty AnimGraphNode_TransitionResult</text>
<text text-anchor="start" x="8" y="-623.3" font-family="monospace" font-size="14.00">    StructProperty AnimGraphNode_SequencePlayer</text>
<text text-anchor="start" x="8" y="-608.3" font-family="monospace" font-size="14.00">    StructProperty AnimGraphNode_StateResult_1</text>
<text text-anchor="start" x="8" y="-593.3" font-family="monospace" font-size="14.00">    StructProperty AnimGraphNode_SequenceEvaluator</text>
<text text-anchor="start" x="8" y="-578.3" font-family="monospace" font-size="14.00">    StructProperty AnimGraphNode_StateResult</text>
<text text-anchor="start" x="8" y="-563.3" font-family="monospace" font-size="14.00">    StructProperty AnimGraphNode_StateMachine</text>
<text text-anchor="start" x="8" y="-548.3" font-family="monospace" font-size="14.00">    StructProperty AnimGraphNode_LocalToComponentSpace</text>
</g>
<!-- ExecuteUbergraph_ABP_Generator -->
<g id="node2" class="node">
<title>ExecuteUbergraph_ABP_Generator</title>
<polygon fill="#ff8888" stroke="black" points="521,-615.5 521,-698.5 1000,-698.5 1000,-615.5 521,-615.5"/>
<text text-anchor="start" x="529" y="-683.3" font-family="monospace" font-size="14.00">Function ExecuteUbergraph_ABP_Generator</text>
<text text-anchor="start" x="529" y="-668.3" font-family="monospace" font-size="14.00">  IntProperty EntryPoint</text>
<text text-anchor="start" x="529" y="-653.3" font-family="monospace" font-size="14.00">    CPF_BlueprintVisible|CPF_BlueprintReadOnly|CPF_Parm</text>
<text text-anchor="start" x="529" y="-638.3" font-family="monospace" font-size="14.00">  FloatProperty CallFunc_Multiply_FloatFloat_ReturnValue</text>
<text text-anchor="start" x="529" y="-623.3" font-family="monospace" font-size="14.00">  StructProperty CallFunc_MakeRotator_ReturnValue</text>
</g>
<!-- ExecuteUbergraph_ABP_Generator__0 -->
<g id="node3" class="node">
<title>ExecuteUbergraph_ABP_Generator__0</title>
<polygon fill="#eeeeee" stroke="black" points="624.5,-443 624.5,-481 896.5,-481 896.5,-443 624.5,-443"/>
<text text-anchor="start" x="632.5" y="-465.8" font-family="monospace" font-size="14.00">EX_ComputedJump</text>
<text text-anchor="start" x="632.5" y="-450.8" font-family="monospace" font-size="14.00">  EX_LocalVariable [EntryPoint]</text>
</g>
<!-- ExecuteUbergraph_ABP_Generator&#45;&gt;ExecuteUbergraph_ABP_Generator__0 -->
<g id="edge1" class="edge">
<title>ExecuteUbergraph_ABP_Generator&#45;&gt;ExecuteUbergraph_ABP_Generator__0</title>
<path fill="none" stroke="black" d="M760.5,-615.54C760.5,-578.69 760.5,-525.15 760.5,-492.28"/>
<polygon fill="black" stroke="black" points="764,-492.29 760.5,-482.29 757,-492.29 764,-492.29"/>
</g>
<!-- ExecuteUbergraph_ABP_Generator__10 -->
<g id="node4" class="node">
<title>ExecuteUbergraph_ABP_Generator__10</title>
<polygon fill="#eeeeee" stroke="black" points="2580,-293 2580,-376 3215,-376 3215,-293 2580,-293"/>
<text text-anchor="start" x="2588" y="-360.8" font-family="monospace" font-size="14.00">EX_Let</text>
<text text-anchor="start" x="2588" y="-345.8" font-family="monospace" font-size="14.00">  EX_LocalVariable [CallFunc_Multiply_FloatFloat_ReturnValue]</text>
<text text-anchor="start" x="2588" y="-330.8" font-family="monospace" font-size="14.00">  EX_CallMath import /Script/Engine&#45;&gt;KismetMathLibrary&#45;&gt;Multiply_FloatFloat</text>
<text text-anchor="start" x="2588" y="-315.8" font-family="monospace" font-size="14.00">    EX_InstanceVariable [Percent]</text>
<text text-anchor="start" x="2588" y="-300.8" font-family="monospace" font-size="14.00">    EX_FloatConst 16.65</text>
</g>
<!-- ExecuteUbergraph_ABP_Generator__52 -->
<g id="node5" class="node">
<title>ExecuteUbergraph_ABP_Generator__52</title>
<polygon fill="#eeeeee" stroke="black" points="2600.5,-180.5 2600.5,-248.5 3120.5,-248.5 3120.5,-180.5 2600.5,-180.5"/>
<text text-anchor="start" x="2608.5" y="-233.3" font-family="monospace" font-size="14.00">EX_Let</text>
<text text-anchor="start" x="2608.5" y="-218.3" font-family="monospace" font-size="14.00">  EX_StructMemberContext [ExplicitTime]</text>
<text text-anchor="start" x="2608.5" y="-203.3" font-family="monospace" font-size="14.00">    EX_InstanceVariable [AnimGraphNode_SequenceEvaluator]</text>
<text text-anchor="start" x="2608.5" y="-188.3" font-family="monospace" font-size="14.00">  EX_LocalVariable [CallFunc_Multiply_FloatFloat_ReturnValue]</text>
</g>
<!-- ExecuteUbergraph_ABP_Generator__10&#45;&gt;ExecuteUbergraph_ABP_Generator__52 -->
<g id="edge2" class="edge">
<title>ExecuteUbergraph_ABP_Generator__10&#45;&gt;ExecuteUbergraph_ABP_Generator__52</title>
<path fill="none" stroke="black" d="M2884.87,-293.22C2881.42,-282.2 2877.66,-270.22 2874.15,-259.03"/>
<polygon fill="black" stroke="black" points="2877.53,-258.11 2871.2,-249.62 2870.85,-260.2 2877.53,-258.11"/>
</g>
<!-- ExecuteUbergraph_ABP_Generator__88 -->
<g id="node6" class="node">
<title>ExecuteUbergraph_ABP_Generator__88</title>
<polygon fill="#eeeeee" stroke="black" points="2770,-91.5 2770,-127.5 2877,-127.5 2877,-91.5 2770,-91.5"/>
<text text-anchor="start" x="2778" y="-105.8" font-family="monospace" font-size="14.00">EX_Jump 176</text>
</g>
<!-- ExecuteUbergraph_ABP_Generator__52&#45;&gt;ExecuteUbergraph_ABP_Generator__88 -->
<g id="edge3" class="edge">
<title>ExecuteUbergraph_ABP_Generator__52&#45;&gt;ExecuteUbergraph_ABP_Generator__88</title>
<path fill="none" stroke="black" d="M2848.69,-180.63C2843.75,-166.88 2838.08,-151.08 2833.36,-137.96"/>
<polygon fill="black" stroke="black" points="2836.7,-136.89 2830.03,-128.67 2830.11,-139.26 2836.7,-136.89"/>
</g>
<!-- ExecuteUbergraph_ABP_Generator__176 -->
<g id="node9" class="node">
<title>ExecuteUbergraph_ABP_Generator__176</title>
<polygon fill="#eeeeee" stroke="black" points="2542.5,-0.5 2542.5,-38.5 2658.5,-38.5 2658.5,-0.5 2542.5,-0.5"/>
<text text-anchor="start" x="2550.5" y="-23.3" font-family="monospace" font-size="14.00">EX_Return</text>
<text text-anchor="start" x="2550.5" y="-8.3" font-family="monospace" font-size="14.00">  EX_Nothing</text>
</g>
<!-- ExecuteUbergraph_ABP_Generator__88&#45;&gt;ExecuteUbergraph_ABP_Generator__176 -->
<g id="edge4" class="edge">
<title>ExecuteUbergraph_ABP_Generator__88&#45;&gt;ExecuteUbergraph_ABP_Generator__176</title>
<path fill="none" stroke="black" d="M2780.5,-91.53C2745.22,-77.61 2694.99,-57.79 2656.55,-42.62"/>
<polygon fill="black" stroke="black" points="2658.04,-39.44 2647.46,-39.03 2655.47,-45.96 2658.04,-39.44"/>
</g>
<!-- ExecuteUbergraph_ABP_Generator__93 -->
<g id="node7" class="node">
<title>ExecuteUbergraph_ABP_Generator__93</title>
<polygon fill="#eeeeee" stroke="black" points="1729,-285.5 1729,-383.5 2298,-383.5 2298,-285.5 1729,-285.5"/>
<text text-anchor="start" x="1737" y="-368.3" font-family="monospace" font-size="14.00">EX_Let</text>
<text text-anchor="start" x="1737" y="-353.3" font-family="monospace" font-size="14.00">  EX_LocalVariable [CallFunc_MakeRotator_ReturnValue]</text>
<text text-anchor="start" x="1737" y="-338.3" font-family="monospace" font-size="14.00">  EX_CallMath import /Script/Engine&#45;&gt;KismetMathLibrary&#45;&gt;MakeRotator</text>
<text text-anchor="start" x="1737" y="-323.3" font-family="monospace" font-size="14.00">    EX_InstanceVariable [ModuleRotation]</text>
<text text-anchor="start" x="1737" y="-308.3" font-family="monospace" font-size="14.00">    EX_FloatConst 90</text>
<text text-anchor="start" x="1737" y="-293.3" font-family="monospace" font-size="14.00">    EX_FloatConst 0</text>
</g>
<!-- ExecuteUbergraph_ABP_Generator__140 -->
<g id="node8" class="node">
<title>ExecuteUbergraph_ABP_Generator__140</title>
<polygon fill="#eeeeee" stroke="black" points="2224.5,-75.5 2224.5,-143.5 2678.5,-143.5 2678.5,-75.5 2224.5,-75.5"/>
<text text-anchor="start" x="2232.5" y="-128.3" font-family="monospace" font-size="14.00">EX_Let</text>
<text text-anchor="start" x="2232.5" y="-113.3" font-family="monospace" font-size="14.00">  EX_StructMemberContext [Rotation]</text>
<text text-anchor="start" x="2232.5" y="-98.3" font-family="monospace" font-size="14.00">    EX_InstanceVariable [AnimGraphNode_ModifyBone]</text>
<text text-anchor="start" x="2232.5" y="-83.3" font-family="monospace" font-size="14.00">  EX_LocalVariable [CallFunc_MakeRotator_ReturnValue]</text>
</g>
<!-- ExecuteUbergraph_ABP_Generator__93&#45;&gt;ExecuteUbergraph_ABP_Generator__140 -->
<g id="edge5" class="edge">
<title>ExecuteUbergraph_ABP_Generator__93&#45;&gt;ExecuteUbergraph_ABP_Generator__140</title>
<path fill="none" stroke="black" d="M2107.73,-285.52C2188.17,-244.57 2302.32,-186.45 2376.64,-148.61"/>
<polygon fill="black" stroke="black" points="2378.18,-151.76 2385.5,-144.1 2375,-145.52 2378.18,-151.76"/>
</g>
<!-- ExecuteUbergraph_ABP_Generator__140&#45;&gt;ExecuteUbergraph_ABP_Generator__176 -->
<g id="edge6" class="edge">
<title>ExecuteUbergraph_ABP_Generator__140&#45;&gt;ExecuteUbergraph_ABP_Generator__176</title>
<path fill="none" stroke="black" d="M2506.98,-75.73C2524.66,-65.29 2543.87,-53.95 2560.25,-44.27"/>
<polygon fill="black" stroke="black" points="2561.92,-47.35 2568.75,-39.25 2558.36,-41.33 2561.92,-47.35"/>
</g>
<!-- ExecuteUbergraph_ABP_Generator__178 -->
<g id="node10" class="node">
<title>ExecuteUbergraph_ABP_Generator__178</title>
<polygon fill="#eeeeee" stroke="black" points="2895.5,-91.5 2895.5,-127.5 3027.5,-127.5 3027.5,-91.5 2895.5,-91.5"/>
<text text-anchor="start" x="2903.5" y="-105.8" font-family="monospace" font-size="14.00">EX_EndOfScript</text>
</g>
<!-- EvaluateGraphExposedInputs_ExecuteUbergraph_ABP_Generator_AnimGraphNode_SequenceEvaluator_2DD504D04D3C106DCBE8F2AABB3EE19A -->
<g id="node11" class="node">
<title>EvaluateGraphExposedInputs_ExecuteUbergraph_ABP_Generator_AnimGraphNode_SequenceEvaluator_2DD504D04D3C106DCBE8F2AABB3EE19A</title>
<polygon fill="#ff8888" stroke="black" points="2077,-639 2077,-675 3174,-675 3174,-639 2077,-639"/>
<text text-anchor="start" x="2085" y="-653.3" font-family="monospace" font-size="14.00">Function EvaluateGraphExposedInputs_ExecuteUbergraph_ABP_Generator_AnimGraphNode_SequenceEvaluator_2DD504D04D3C106DCBE8F2AABB3EE19A</text>
</g>
<!-- EvaluateGraphExposedInputs_ExecuteUbergraph_ABP_Generator_AnimGraphNode_SequenceEvaluator_2DD504D04D3C106DCBE8F2AABB3EE19A__0 -->
<g id="node12" class="node">
<title>EvaluateGraphExposedInputs_ExecuteUbergraph_ABP_Generator_AnimGraphNode_SequenceEvaluator_2DD504D04D3C106DCBE8F2AABB3EE19A__0</title>
<polygon fill="#eeeeee" stroke="black" points="2253.5,-443 2253.5,-481 2897.5,-481 2897.5,-443 2253.5,-443"/>
<text text-anchor="start" x="2261.5" y="-465.8" font-family="monospace" font-size="14.00">EX_LocalFinalFunction export ABP_Generator_C&#45;&gt;ExecuteUbergraph_ABP_Generator</text>
<text text-anchor="start" x="2261.5" y="-450.8" font-family="monospace" font-size="14.00">  EX_IntConst 10</text>
</g>
<!-- EvaluateGraphExposedInputs_ExecuteUbergraph_ABP_Generator_AnimGraphNode_SequenceEvaluator_2DD504D04D3C106DCBE8F2AABB3EE19A&#45;&gt;EvaluateGraphExposedInputs_ExecuteUbergraph_ABP_Generator_AnimGraphNode_SequenceEvaluator_2DD504D04D3C106DCBE8F2AABB3EE19A__0 -->
<g id="edge7" class="edge">
<title>EvaluateGraphExposedInputs_ExecuteUbergraph_ABP_Generator_AnimGraphNode_SequenceEvaluator_2DD504D04D3C106DCBE8F2AABB3EE19A&#45;&gt;EvaluateGraphExposedInputs_ExecuteUbergraph_ABP_Generator_AnimGraphNode_SequenceEvaluator_2DD504D04D3C106DCBE8F2AABB3EE19A__0</title>
<path fill="none" stroke="black" d="M2621.15,-639.21C2612.61,-606.24 2593.55,-532.69 2582.96,-491.81"/>
<polygon fill="black" stroke="black" points="2586.37,-490.99 2580.47,-482.19 2579.59,-492.75 2586.37,-490.99"/>
</g>
<!-- EvaluateGraphExposedInputs_ExecuteUbergraph_ABP_Generator_AnimGraphNode_SequenceEvaluator_2DD504D04D3C106DCBE8F2AABB3EE19A__0&#45;&gt;ExecuteUbergraph_ABP_Generator__10 -->
<g id="edge8" class="edge">
<title>EvaluateGraphExposedInputs_ExecuteUbergraph_ABP_Generator_AnimGraphNode_SequenceEvaluator_2DD504D04D3C106DCBE8F2AABB3EE19A__0:e&#45;&gt;ExecuteUbergraph_ABP_Generator__10</title>
<path fill="none" stroke="red" d="M2898.5,-462C2930.25,-462 2925.82,-421.67 2915.96,-386.55"/>
<polygon fill="none" stroke="red" points="2919.41,-385.9 2913.19,-377.32 2912.71,-387.91 2919.41,-385.9"/>
</g>
<!-- EvaluateGraphExposedInputs_ExecuteUbergraph_ABP_Generator_AnimGraphNode_SequenceEvaluator_2DD504D04D3C106DCBE8F2AABB3EE19A__15 -->
<g id="node13" class="node">
<title>EvaluateGraphExposedInputs_ExecuteUbergraph_ABP_Generator_AnimGraphNode_SequenceEvaluator_2DD504D04D3C106DCBE8F2AABB3EE19A__15</title>
<polygon fill="#eeeeee" stroke="black" points="2445.5,-315.5 2445.5,-353.5 2561.5,-353.5 2561.5,-315.5 2445.5,-315.5"/>
<text text-anchor="start" x="2453.5" y="-338.3" font-family="monospace" font-size="14.00">EX_Return</text>
<text text-anchor="start" x="2453.5" y="-323.3" font-family="monospace" font-size="14.00">  EX_Nothing</text>
</g>
<!-- EvaluateGraphExposedInputs_ExecuteUbergraph_ABP_Generator_AnimGraphNode_SequenceEvaluator_2DD504D04D3C106DCBE8F2AABB3EE19A__0&#45;&gt;EvaluateGraphExposedInputs_ExecuteUbergraph_ABP_Generator_AnimGraphNode_SequenceEvaluator_2DD504D04D3C106DCBE8F2AABB3EE19A__15 -->
<g id="edge9" class="edge">
<title>EvaluateGraphExposedInputs_ExecuteUbergraph_ABP_Generator_AnimGraphNode_SequenceEvaluator_2DD504D04D3C106DCBE8F2AABB3EE19A__0&#45;&gt;EvaluateGraphExposedInputs_ExecuteUbergraph_ABP_Generator_AnimGraphNode_SequenceEvaluator_2DD504D04D3C106DCBE8F2AABB3EE19A__15</title>
<path fill="none" stroke="black" d="M2565.18,-443.02C2553.21,-422.14 2533.32,-387.48 2519.37,-363.16"/>
<polygon fill="black" stroke="black" points="2522.56,-361.69 2514.55,-354.76 2516.49,-365.18 2522.56,-361.69"/>
</g>
<!-- EvaluateGraphExposedInputs_ExecuteUbergraph_ABP_Generator_AnimGraphNode_SequenceEvaluator_2DD504D04D3C106DCBE8F2AABB3EE19A__17 -->
<g id="node14" class="node">
<title>EvaluateGraphExposedInputs_ExecuteUbergraph_ABP_Generator_AnimGraphNode_SequenceEvaluator_2DD504D04D3C106DCBE8F2AABB3EE19A__17</title>
<polygon fill="#eeeeee" stroke="black" points="2676.5,-1.5 2676.5,-37.5 2808.5,-37.5 2808.5,-1.5 2676.5,-1.5"/>
<text text-anchor="start" x="2684.5" y="-15.8" font-family="monospace" font-size="14.00">EX_EndOfScript</text>
</g>
<!-- EvaluateGraphExposedInputs_ExecuteUbergraph_ABP_Generator_AnimGraphNode_ModifyBone_2987C6BF4EF9F5B6D208E192A792E914 -->
<g id="node15" class="node">
<title>EvaluateGraphExposedInputs_ExecuteUbergraph_ABP_Generator_AnimGraphNode_ModifyBone_2987C6BF4EF9F5B6D208E192A792E914</title>
<polygon fill="#ff8888" stroke="black" points="1018.5,-639 1018.5,-675 2058.5,-675 2058.5,-639 1018.5,-639"/>
<text text-anchor="start" x="1026.5" y="-653.3" font-family="monospace" font-size="14.00">Function EvaluateGraphExposedInputs_ExecuteUbergraph_ABP_Generator_AnimGraphNode_ModifyBone_2987C6BF4EF9F5B6D208E192A792E914</text>
</g>
<!-- EvaluateGraphExposedInputs_ExecuteUbergraph_ABP_Generator_AnimGraphNode_ModifyBone_2987C6BF4EF9F5B6D208E192A792E914__0 -->
<g id="node16" class="node">
<title>EvaluateGraphExposedInputs_ExecuteUbergraph_ABP_Generator_AnimGraphNode_ModifyBone_2987C6BF4EF9F5B6D208E192A792E914__0</title>
<polygon fill="#eeeeee" stroke="black" points="1273.5,-443 1273.5,-481 1917.5,-481 1917.5,-443 1273.5,-443"/>
<text text-anchor="start" x="1281.5" y="-465.8" font-family="monospace" font-size="14.00">EX_LocalFinalFunction export ABP_Generator_C&#45;&gt;ExecuteUbergraph_ABP_Generator</text>
<text text-anchor="start" x="1281.5" y="-450.8" font-family="monospace" font-size="14.00">  EX_IntConst 93</text>
</g>
<!-- EvaluateGraphExposedInputs_ExecuteUbergraph_ABP_Generator_AnimGraphNode_ModifyBone_2987C6BF4EF9F5B6D208E192A792E914&#45;&gt;EvaluateGraphExposedInputs_ExecuteUbergraph_ABP_Generator_AnimGraphNode_ModifyBone_2987C6BF4EF9F5B6D208E192A792E914__0 -->
<g id="edge10" class="edge">
<title>EvaluateGraphExposedInputs_ExecuteUbergraph_ABP_Generator_AnimGraphNode_ModifyBone_2987C6BF4EF9F5B6D208E192A792E914&#45;&gt;EvaluateGraphExposedInputs_ExecuteUbergraph_ABP_Generator_AnimGraphNode_ModifyBone_2987C6BF4EF9F5B6D208E192A792E914__0</title>
<path fill="none" stroke="black" d="M1543.46,-639.21C1553.22,-606.17 1575.01,-532.38 1587.07,-491.54"/>
<polygon fill="black" stroke="black" points="1590.36,-492.76 1589.84,-482.18 1583.65,-490.77 1590.36,-492.76"/>
</g>
<!-- EvaluateGraphExposedInputs_ExecuteUbergraph_ABP_Generator_AnimGraphNode_ModifyBone_2987C6BF4EF9F5B6D208E192A792E914__0&#45;&gt;ExecuteUbergraph_ABP_Generator__93 -->
<g id="edge11" class="edge">
<title>EvaluateGraphExposedInputs_ExecuteUbergraph_ABP_Generator_AnimGraphNode_ModifyBone_2987C6BF4EF9F5B6D208E192A792E914__0:e&#45;&gt;ExecuteUbergraph_ABP_Generator__93</title>
<path fill="none" stroke="red" d="M1918.5,-462C1955.59,-462 1979.98,-426.81 1994.75,-393.54"/>
<polygon fill="none" stroke="red" points="1997.81,-395.3 1998.45,-384.72 1991.36,-392.59 1997.81,-395.3"/>
</g>
<!-- EvaluateGraphExposedInputs_ExecuteUbergraph_ABP_Generator_AnimGraphNode_ModifyBone_2987C6BF4EF9F5B6D208E192A792E914__15 -->
<g id="node17" class="node">
<title>EvaluateGraphExposedInputs_ExecuteUbergraph_ABP_Generator_AnimGraphNode_ModifyBone_2987C6BF4EF9F5B6D208E192A792E914__15</title>
<polygon fill="#eeeeee" stroke="black" points="1537.5,-315.5 1537.5,-353.5 1653.5,-353.5 1653.5,-315.5 1537.5,-315.5"/>
<text text-anchor="start" x="1545.5" y="-338.3" font-family="monospace" font-size="14.00">EX_Return</text>
<text text-anchor="start" x="1545.5" y="-323.3" font-family="monospace" font-size="14.00">  EX_Nothing</text>
</g>
<!-- EvaluateGraphExposedInputs_ExecuteUbergraph_ABP_Generator_AnimGraphNode_ModifyBone_2987C6BF4EF9F5B6D208E192A792E914__0&#45;&gt;EvaluateGraphExposedInputs_ExecuteUbergraph_ABP_Generator_AnimGraphNode_ModifyBone_2987C6BF4EF9F5B6D208E192A792E914__15 -->
<g id="edge12" class="edge">
<title>EvaluateGraphExposedInputs_ExecuteUbergraph_ABP_Generator_AnimGraphNode_ModifyBone_2987C6BF4EF9F5B6D208E192A792E914__0&#45;&gt;EvaluateGraphExposedInputs_ExecuteUbergraph_ABP_Generator_AnimGraphNode_ModifyBone_2987C6BF4EF9F5B6D208E192A792E914__15</title>
<path fill="none" stroke="black" d="M1595.5,-443.02C1595.5,-422.61 1595.5,-389.02 1595.5,-364.81"/>
<polygon fill="black" stroke="black" points="1599,-364.96 1595.5,-354.96 1592,-364.96 1599,-364.96"/>
</g>
<!-- EvaluateGraphExposedInputs_ExecuteUbergraph_ABP_Generator_AnimGraphNode_ModifyBone_2987C6BF4EF9F5B6D208E192A792E914__17 -->
<g id="node18" class="node">
<title>EvaluateGraphExposedInputs_ExecuteUbergraph_ABP_Generator_AnimGraphNode_ModifyBone_2987C6BF4EF9F5B6D208E192A792E914__17</title>
<polygon fill="#eeeeee" stroke="black" points="3138.5,-196.5 3138.5,-232.5 3270.5,-232.5 3270.5,-196.5 3138.5,-196.5"/>
<text text-anchor="start" x="3146.5" y="-210.8" font-family="monospace" font-size="14.00">EX_EndOfScript</text>
</g>
<!-- AnimGraph -->
<g id="node19" class="node">
<title>AnimGraph</title>
<polygon fill="#ff8888" stroke="black" points="3241,-630.5 3241,-683.5 3472,-683.5 3472,-630.5 3241,-630.5"/>
<text text-anchor="start" x="3249" y="-668.3" font-family="monospace" font-size="14.00">Function AnimGraph</text>
<text text-anchor="start" x="3249" y="-653.3" font-family="monospace" font-size="14.00">  StructProperty AnimGraph</text>
<text text-anchor="start" x="3249" y="-638.3" font-family="monospace" font-size="14.00">    CPF_Parm|CPF_OutParm</text>
</g>
<!-- AnimGraph__0 -->
<g id="node20" class="node">
<title>AnimGraph__0</title>
<polygon fill="#eeeeee" stroke="black" points="3150,-420.5 3150,-503.5 3563,-503.5 3563,-420.5 3150,-420.5"/>
<text text-anchor="start" x="3158" y="-488.3" font-family="monospace" font-size="14.00">EX_Let</text>
<text text-anchor="start" x="3158" y="-473.3" font-family="monospace" font-size="14.00">  EX_LocalOutVariable</text>
<text text-anchor="start" x="3158" y="-458.3" font-family="monospace" font-size="14.00">    [AnimGraph]</text>
<text text-anchor="start" x="3158" y="-443.3" font-family="monospace" font-size="14.00">  EX_StructConst import /Script/Engine&#45;&gt;PoseLink</text>
<text text-anchor="start" x="3158" y="-428.3" font-family="monospace" font-size="14.00">    EX_IntConst &#45;1</text>
</g>
<!-- AnimGraph&#45;&gt;AnimGraph__0 -->
<g id="edge13" class="edge">
<title>AnimGraph&#45;&gt;AnimGraph__0</title>
<path fill="none" stroke="black" d="M3356.5,-630.77C3356.5,-601.41 3356.5,-552.18 3356.5,-514.62"/>
<polygon fill="black" stroke="black" points="3360,-514.89 3356.5,-504.89 3353,-514.89 3360,-514.89"/>
</g>
<!-- AnimGraph__37 -->
<g id="node21" class="node">
<title>AnimGraph__37</title>
<polygon fill="#eeeeee" stroke="black" points="3298.5,-315.5 3298.5,-353.5 3414.5,-353.5 3414.5,-315.5 3298.5,-315.5"/>
<text text-anchor="start" x="3306.5" y="-338.3" font-family="monospace" font-size="14.00">EX_Return</text>
<text text-anchor="start" x="3306.5" y="-323.3" font-family="monospace" font-size="14.00">  EX_Nothing</text>
</g>
<!-- AnimGraph__0&#45;&gt;AnimGraph__37 -->
<g id="edge14" class="edge">
<title>AnimGraph__0&#45;&gt;AnimGraph__37</title>
<path fill="none" stroke="black" d="M3356.5,-420.6C3356.5,-402.38 3356.5,-381.27 3356.5,-364.63"/>
<polygon fill="black" stroke="black" points="3360,-364.92 3356.5,-354.92 3353,-364.92 3360,-364.92"/>
</g>
<!-- AnimGraph__39 -->
<g id="node22" class="node">
<title>AnimGraph__39</title>
<polygon fill="#eeeeee" stroke="black" points="3490.5,-639 3490.5,-675 3622.5,-675 3622.5,-639 3490.5,-639"/>
<text text-anchor="start" x="3498.5" y="-653.3" font-family="monospace" font-size="14.00">EX_EndOfScript</text>
</g>
</g>
</svg>
