<?xml version="1.0" encoding="UTF-8" standalone="no"?>
<!DOCTYPE svg PUBLIC "-//W3C//DTD SVG 1.1//EN"
 "http://www.w3.org/Graphics/SVG/1.1/DTD/svg11.dtd">
<!-- Generated by graphviz version 7.0.1 (0)
 -->
<!-- Pages: 1 -->
<svg width="2704pt" height="1597pt"
 viewBox="0.00 0.00 2704.00 1597.00" xmlns="http://www.w3.org/2000/svg" xmlns:xlink="http://www.w3.org/1999/xlink">
<g id="graph0" class="graph" transform="scale(1 1) rotate(0) translate(4 1593)">
<polygon fill="white" stroke="none" points="-4,4 -4,-1593 2700,-1593 2700,4 -4,4"/>
<!-- HUD_RadarPoint_Donkey_C -->
<g id="node1" class="node">
<title>HUD_RadarPoint_Donkey_C</title>
<polygon fill="#88ff88" stroke="black" points="0,-1393 0,-1566 850,-1566 850,-1393 0,-1393"/>
<text text-anchor="start" x="8" y="-1550.8" font-family="monospace" font-size="14.00">ClassExport: HUD_RadarPoint_Donkey_C</text>
<text text-anchor="start" x="8" y="-1535.8" font-family="monospace" font-size="14.00">  SuperStruct: import /Script/UMG&#45;&gt;UserWidget</text>
<text text-anchor="start" x="8" y="-1520.8" font-family="monospace" font-size="14.00">  Properties:</text>
<text text-anchor="start" x="8" y="-1505.8" font-family="monospace" font-size="14.00">    ObjectProperty MarkerImage</text>
<text text-anchor="start" x="8" y="-1490.8" font-family="monospace" font-size="14.00">      CPF_BlueprintVisible|CPF_ExportObject|CPF_InstancedReference|CPF_RepSkip|CPF_PersistentInstance</text>
<text text-anchor="start" x="8" y="-1475.8" font-family="monospace" font-size="14.00">    ObjectProperty Component</text>
<text text-anchor="start" x="8" y="-1460.8" font-family="monospace" font-size="14.00">      CPF_Edit|CPF_BlueprintVisible|CPF_DisableEditOnInstance|CPF_InstancedReference</text>
<text text-anchor="start" x="8" y="-1445.8" font-family="monospace" font-size="14.00">    FloatProperty TimeoutDelay</text>
<text text-anchor="start" x="8" y="-1430.8" font-family="monospace" font-size="14.00">      CPF_Edit|CPF_BlueprintVisible|CPF_ExposeOnSpawn</text>
<text text-anchor="start" x="8" y="-1415.8" font-family="monospace" font-size="14.00">    FloatProperty TimeOut</text>
<text text-anchor="start" x="8" y="-1400.8" font-family="monospace" font-size="14.00">      CPF_Edit|CPF_BlueprintVisible|CPF_DisableEditOnInstance</text>
</g>
<!-- UpdatePoint -->
<g id="node2" class="node">
<title>UpdatePoint</title>
<polygon fill="#ff8888" stroke="black" points="868.5,-1370.5 868.5,-1588.5 1355.5,-1588.5 1355.5,-1370.5 868.5,-1370.5"/>
<text text-anchor="start" x="876.5" y="-1573.3" font-family="monospace" font-size="14.00">Function UpdatePoint</text>
<text text-anchor="start" x="876.5" y="-1558.3" font-family="monospace" font-size="14.00">  FloatProperty alpha</text>
<text text-anchor="start" x="876.5" y="-1543.3" font-family="monospace" font-size="14.00">    CPF_BlueprintVisible|CPF_BlueprintReadOnly|CPF_Parm</text>
<text text-anchor="start" x="876.5" y="-1528.3" font-family="monospace" font-size="14.00">  FloatProperty verticalDist</text>
<text text-anchor="start" x="876.5" y="-1513.3" font-family="monospace" font-size="14.00">    CPF_BlueprintVisible|CPF_BlueprintReadOnly|CPF_Parm</text>
<text text-anchor="start" x="876.5" y="-1498.3" font-family="monospace" font-size="14.00">  BoolProperty destroy</text>
<text text-anchor="start" x="876.5" y="-1483.3" font-family="monospace" font-size="14.00">    CPF_Parm|CPF_OutParm</text>
<text text-anchor="start" x="876.5" y="-1468.3" font-family="monospace" font-size="14.00">  BoolProperty Temp_bool_Variable</text>
<text text-anchor="start" x="876.5" y="-1453.3" font-family="monospace" font-size="14.00">  BoolProperty CallFunc_EqualEqual_FloatFloat_ReturnValue</text>
<text text-anchor="start" x="876.5" y="-1438.3" font-family="monospace" font-size="14.00">  EnumProperty Temp_byte_Variable</text>
<text text-anchor="start" x="876.5" y="-1423.3" font-family="monospace" font-size="14.00">  EnumProperty Temp_byte_Variable_1</text>
<text text-anchor="start" x="876.5" y="-1408.3" font-family="monospace" font-size="14.00">  BoolProperty CallFunc_IsValid_ReturnValue</text>
<text text-anchor="start" x="876.5" y="-1393.3" font-family="monospace" font-size="14.00">  EnumProperty K2Node_Select_Default</text>
<text text-anchor="start" x="876.5" y="-1378.3" font-family="monospace" font-size="14.00">  BoolProperty CallFunc_Not_PreBool_ReturnValue</text>
</g>
<!-- UpdatePoint__0 -->
<g id="node3" class="node">
<title>UpdatePoint__0</title>
<polygon fill="#eeeeee" stroke="black" points="786,-1213.5 786,-1296.5 1438,-1296.5 1438,-1213.5 786,-1213.5"/>
<text text-anchor="start" x="794" y="-1281.3" font-family="monospace" font-size="14.00">EX_LetBool</text>
<text text-anchor="start" x="794" y="-1266.3" font-family="monospace" font-size="14.00">  EX_LocalVariable [CallFunc_EqualEqual_FloatFloat_ReturnValue]</text>
<text text-anchor="start" x="794" y="-1251.3" font-family="monospace" font-size="14.00">  EX_CallMath import /Script/Engine&#45;&gt;KismetMathLibrary&#45;&gt;EqualEqual_FloatFloat</text>
<text text-anchor="start" x="794" y="-1236.3" font-family="monospace" font-size="14.00">    EX_LocalVariable [alpha]</text>
<text text-anchor="start" x="794" y="-1221.3" font-family="monospace" font-size="14.00">    EX_FloatConst 0</text>
</g>
<!-- UpdatePoint&#45;&gt;UpdatePoint__0 -->
<g id="edge1" class="edge">
<title>UpdatePoint&#45;&gt;UpdatePoint__0</title>
<path fill="none" stroke="black" d="M1112,-1370.51C1112,-1348.59 1112,-1326.51 1112,-1307.66"/>
<polygon fill="black" stroke="black" points="1115.5,-1307.89 1112,-1297.89 1108.5,-1307.89 1115.5,-1307.89"/>
</g>
<!-- UpdatePoint__34 -->
<g id="node4" class="node">
<title>UpdatePoint__34</title>
<polygon fill="#eeeeee" stroke="black" points="844,-1079 844,-1132 1380,-1132 1380,-1079 844,-1079"/>
<text text-anchor="start" x="852" y="-1116.8" font-family="monospace" font-size="14.00">EX_LetBool</text>
<text text-anchor="start" x="852" y="-1101.8" font-family="monospace" font-size="14.00">  EX_LocalVariable [Temp_bool_Variable]</text>
<text text-anchor="start" x="852" y="-1086.8" font-family="monospace" font-size="14.00">  EX_LocalVariable [CallFunc_EqualEqual_FloatFloat_ReturnValue]</text>
</g>
<!-- UpdatePoint__0&#45;&gt;UpdatePoint__34 -->
<g id="edge2" class="edge">
<title>UpdatePoint__0&#45;&gt;UpdatePoint__34</title>
<path fill="none" stroke="black" d="M1112,-1213.69C1112,-1191.67 1112,-1164.6 1112,-1143.17"/>
<polygon fill="black" stroke="black" points="1115.5,-1143.43 1112,-1133.43 1108.5,-1143.43 1115.5,-1143.43"/>
</g>
<!-- UpdatePoint__53 -->
<g id="node5" class="node">
<title>UpdatePoint__53</title>
<polygon fill="#eeeeee" stroke="black" points="943,-922 943,-975 1281,-975 1281,-922 943,-922"/>
<text text-anchor="start" x="951" y="-959.8" font-family="monospace" font-size="14.00">EX_Let</text>
<text text-anchor="start" x="951" y="-944.8" font-family="monospace" font-size="14.00">  EX_LocalVariable [Temp_byte_Variable]</text>
<text text-anchor="start" x="951" y="-929.8" font-family="monospace" font-size="14.00">  EX_ByteConst 2</text>
</g>
<!-- UpdatePoint__34&#45;&gt;UpdatePoint__53 -->
<g id="edge3" class="edge">
<title>UpdatePoint__34&#45;&gt;UpdatePoint__53</title>
<path fill="none" stroke="black" d="M1112,-1079.25C1112,-1053.99 1112,-1014.88 1112,-986.19"/>
<polygon fill="black" stroke="black" points="1115.5,-986.51 1112,-976.51 1108.5,-986.51 1115.5,-986.51"/>
</g>
<!-- UpdatePoint__73 -->
<g id="node6" class="node">
<title>UpdatePoint__73</title>
<polygon fill="#eeeeee" stroke="black" points="934.5,-718 934.5,-771 1289.5,-771 1289.5,-718 934.5,-718"/>
<text text-anchor="start" x="942.5" y="-755.8" font-family="monospace" font-size="14.00">EX_Let</text>
<text text-anchor="start" x="942.5" y="-740.8" font-family="monospace" font-size="14.00">  EX_LocalVariable [Temp_byte_Variable_1]</text>
<text text-anchor="start" x="942.5" y="-725.8" font-family="monospace" font-size="14.00">  EX_ByteConst 4</text>
</g>
<!-- UpdatePoint__53&#45;&gt;UpdatePoint__73 -->
<g id="edge4" class="edge">
<title>UpdatePoint__53&#45;&gt;UpdatePoint__73</title>
<path fill="none" stroke="black" d="M1112,-922.32C1112,-887.09 1112,-822.86 1112,-782.27"/>
<polygon fill="black" stroke="black" points="1115.5,-782.51 1112,-772.51 1108.5,-782.51 1115.5,-782.51"/>
</g>
<!-- UpdatePoint__93 -->
<g id="node7" class="node">
<title>UpdatePoint__93</title>
<polygon fill="#eeeeee" stroke="black" points="905.5,-394.5 905.5,-657.5 1318.5,-657.5 1318.5,-394.5 905.5,-394.5"/>
<text text-anchor="start" x="913.5" y="-642.3" font-family="monospace" font-size="14.00">EX_Context</text>
<text text-anchor="start" x="913.5" y="-627.3" font-family="monospace" font-size="14.00">  EX_InstanceVariable [MarkerImage]</text>
<text text-anchor="start" x="913.5" y="-612.3" font-family="monospace" font-size="14.00">  EX_VirtualFunction SetVisibility</text>
<text text-anchor="start" x="913.5" y="-597.3" font-family="monospace" font-size="14.00">    EX_SwitchValue</text>
<text text-anchor="start" x="913.5" y="-582.3" font-family="monospace" font-size="14.00">      EX_LocalVariable [Temp_bool_Variable]</text>
<text text-anchor="start" x="913.5" y="-567.3" font-family="monospace" font-size="14.00">      OffsetToSwitchEnd = 181</text>
<text text-anchor="start" x="913.5" y="-552.3" font-family="monospace" font-size="14.00">      case 0:</text>
<text text-anchor="start" x="913.5" y="-537.3" font-family="monospace" font-size="14.00">        EX_False</text>
<text text-anchor="start" x="913.5" y="-522.3" font-family="monospace" font-size="14.00">        NextCaseOffset = 158</text>
<text text-anchor="start" x="913.5" y="-507.3" font-family="monospace" font-size="14.00">        EX_LocalVariable [Temp_byte_Variable_1]</text>
<text text-anchor="start" x="913.5" y="-492.3" font-family="monospace" font-size="14.00">      case 1:</text>
<text text-anchor="start" x="913.5" y="-477.3" font-family="monospace" font-size="14.00">        EX_True</text>
<text text-anchor="start" x="913.5" y="-462.3" font-family="monospace" font-size="14.00">        NextCaseOffset = 172</text>
<text text-anchor="start" x="913.5" y="-447.3" font-family="monospace" font-size="14.00">        EX_LocalVariable [Temp_byte_Variable]</text>
<text text-anchor="start" x="913.5" y="-432.3" font-family="monospace" font-size="14.00">      default:</text>
<text text-anchor="start" x="913.5" y="-417.3" font-family="monospace" font-size="14.00">        EX_LocalVariable [K2Node_Select_Default]</text>
<text text-anchor="start" x="913.5" y="-402.3" font-family="monospace" font-size="14.00">  RValue = []</text>
</g>
<!-- UpdatePoint__73&#45;&gt;UpdatePoint__93 -->
<g id="edge5" class="edge">
<title>UpdatePoint__73&#45;&gt;UpdatePoint__93</title>
<path fill="none" stroke="black" d="M1112,-718.24C1112,-705 1112,-687.62 1112,-668.73"/>
<polygon fill="black" stroke="black" points="1115.5,-668.97 1112,-658.97 1108.5,-668.97 1115.5,-668.97"/>
</g>
<!-- UpdatePoint__182 -->
<g id="node8" class="node">
<title>UpdatePoint__182</title>
<polygon fill="#eeeeee" stroke="black" points="835.5,-288.5 835.5,-356.5 1388.5,-356.5 1388.5,-288.5 835.5,-288.5"/>
<text text-anchor="start" x="843.5" y="-341.3" font-family="monospace" font-size="14.00">EX_LetBool</text>
<text text-anchor="start" x="843.5" y="-326.3" font-family="monospace" font-size="14.00">  EX_LocalVariable [CallFunc_IsValid_ReturnValue]</text>
<text text-anchor="start" x="843.5" y="-311.3" font-family="monospace" font-size="14.00">  EX_CallMath import /Script/Engine&#45;&gt;KismetSystemLibrary&#45;&gt;IsValid</text>
<text text-anchor="start" x="843.5" y="-296.3" font-family="monospace" font-size="14.00">    EX_InstanceVariable [Component]</text>
</g>
<!-- UpdatePoint__93&#45;&gt;UpdatePoint__182 -->
<g id="edge6" class="edge">
<title>UpdatePoint__93&#45;&gt;UpdatePoint__182</title>
<path fill="none" stroke="black" d="M1112,-394.54C1112,-385.19 1112,-376.21 1112,-367.97"/>
<polygon fill="black" stroke="black" points="1115.5,-367.98 1112,-357.98 1108.5,-367.98 1115.5,-367.98"/>
</g>
<!-- UpdatePoint__211 -->
<g id="node9" class="node">
<title>UpdatePoint__211</title>
<polygon fill="#eeeeee" stroke="black" points="827.5,-182.5 827.5,-250.5 1396.5,-250.5 1396.5,-182.5 827.5,-182.5"/>
<text text-anchor="start" x="835.5" y="-235.3" font-family="monospace" font-size="14.00">EX_LetBool</text>
<text text-anchor="start" x="835.5" y="-220.3" font-family="monospace" font-size="14.00">  EX_LocalVariable [CallFunc_Not_PreBool_ReturnValue]</text>
<text text-anchor="start" x="835.5" y="-205.3" font-family="monospace" font-size="14.00">  EX_CallMath import /Script/Engine&#45;&gt;KismetMathLibrary&#45;&gt;Not_PreBool</text>
<text text-anchor="start" x="835.5" y="-190.3" font-family="monospace" font-size="14.00">    EX_LocalVariable [CallFunc_IsValid_ReturnValue]</text>
</g>
<!-- UpdatePoint__182&#45;&gt;UpdatePoint__211 -->
<g id="edge7" class="edge">
<title>UpdatePoint__182&#45;&gt;UpdatePoint__211</title>
<path fill="none" stroke="black" d="M1112,-288.59C1112,-279.97 1112,-270.54 1112,-261.45"/>
<polygon fill="black" stroke="black" points="1115.5,-261.71 1112,-251.71 1108.5,-261.71 1115.5,-261.71"/>
</g>
<!-- UpdatePoint__240 -->
<g id="node10" class="node">
<title>UpdatePoint__240</title>
<polygon fill="#eeeeee" stroke="black" points="885,-76.5 885,-144.5 1339,-144.5 1339,-76.5 885,-76.5"/>
<text text-anchor="start" x="893" y="-129.3" font-family="monospace" font-size="14.00">EX_LetBool</text>
<text text-anchor="start" x="893" y="-114.3" font-family="monospace" font-size="14.00">  EX_LocalOutVariable</text>
<text text-anchor="start" x="893" y="-99.3" font-family="monospace" font-size="14.00">    [destroy]</text>
<text text-anchor="start" x="893" y="-84.3" font-family="monospace" font-size="14.00">  EX_LocalVariable [CallFunc_Not_PreBool_ReturnValue]</text>
</g>
<!-- UpdatePoint__211&#45;&gt;UpdatePoint__240 -->
<g id="edge8" class="edge">
<title>UpdatePoint__211&#45;&gt;UpdatePoint__240</title>
<path fill="none" stroke="black" d="M1112,-182.59C1112,-173.97 1112,-164.54 1112,-155.45"/>
<polygon fill="black" stroke="black" points="1115.5,-155.71 1112,-145.71 1108.5,-155.71 1115.5,-155.71"/>
</g>
<!-- UpdatePoint__259 -->
<g id="node11" class="node">
<title>UpdatePoint__259</title>
<polygon fill="#eeeeee" stroke="black" points="1054,-0.5 1054,-38.5 1170,-38.5 1170,-0.5 1054,-0.5"/>
<text text-anchor="start" x="1062" y="-23.3" font-family="monospace" font-size="14.00">EX_Return</text>
<text text-anchor="start" x="1062" y="-8.3" font-family="monospace" font-size="14.00">  EX_Nothing</text>
</g>
<!-- UpdatePoint__240&#45;&gt;UpdatePoint__259 -->
<g id="edge9" class="edge">
<title>UpdatePoint__240&#45;&gt;UpdatePoint__259</title>
<path fill="none" stroke="black" d="M1112,-76.61C1112,-67.79 1112,-58.32 1112,-49.72"/>
<polygon fill="black" stroke="black" points="1115.5,-49.8 1112,-39.8 1108.5,-49.8 1115.5,-49.8"/>
</g>
<!-- UpdatePoint__261 -->
<g id="node12" class="node">
<title>UpdatePoint__261</title>
<polygon fill="#eeeeee" stroke="black" points="1357,-1315.5 1357,-1351.5 1489,-1351.5 1489,-1315.5 1357,-1315.5"/>
<text text-anchor="start" x="1365" y="-1329.8" font-family="monospace" font-size="14.00">EX_EndOfScript</text>
</g>
<!-- Get3dPosition -->
<g id="node13" class="node">
<title>Get3dPosition</title>
<polygon fill="#ff8888" stroke="black" points="1489.5,-1430.5 1489.5,-1528.5 1976.5,-1528.5 1976.5,-1430.5 1489.5,-1430.5"/>
<text text-anchor="start" x="1497.5" y="-1513.3" font-family="monospace" font-size="14.00">Function Get3dPosition</text>
<text text-anchor="start" x="1497.5" y="-1498.3" font-family="monospace" font-size="14.00">  StructProperty pos</text>
<text text-anchor="start" x="1497.5" y="-1483.3" font-family="monospace" font-size="14.00">    CPF_Parm|CPF_OutParm</text>
<text text-anchor="start" x="1497.5" y="-1468.3" font-family="monospace" font-size="14.00">  ObjectProperty CallFunc_GetOwner_ReturnValue</text>
<text text-anchor="start" x="1497.5" y="-1453.3" font-family="monospace" font-size="14.00">  BoolProperty CallFunc_IsValid_ReturnValue</text>
<text text-anchor="start" x="1497.5" y="-1438.3" font-family="monospace" font-size="14.00">  StructProperty CallFunc_K2_GetActorLocation_ReturnValue</text>
</g>
<!-- Get3dPosition__0 -->
<g id="node14" class="node">
<title>Get3dPosition__0</title>
<polygon fill="#eeeeee" stroke="black" points="1456.5,-1221 1456.5,-1289 2009.5,-1289 2009.5,-1221 1456.5,-1221"/>
<text text-anchor="start" x="1464.5" y="-1273.8" font-family="monospace" font-size="14.00">EX_LetBool</text>
<text text-anchor="start" x="1464.5" y="-1258.8" font-family="monospace" font-size="14.00">  EX_LocalVariable [CallFunc_IsValid_ReturnValue]</text>
<text text-anchor="start" x="1464.5" y="-1243.8" font-family="monospace" font-size="14.00">  EX_CallMath import /Script/Engine&#45;&gt;KismetSystemLibrary&#45;&gt;IsValid</text>
<text text-anchor="start" x="1464.5" y="-1228.8" font-family="monospace" font-size="14.00">    EX_InstanceVariable [Component]</text>
</g>
<!-- Get3dPosition&#45;&gt;Get3dPosition__0 -->
<g id="edge10" class="edge">
<title>Get3dPosition&#45;&gt;Get3dPosition__0</title>
<path fill="none" stroke="black" d="M1733,-1430.77C1733,-1392 1733,-1337.76 1733,-1300.03"/>
<polygon fill="black" stroke="black" points="1736.5,-1300.4 1733,-1290.4 1729.5,-1300.4 1736.5,-1300.4"/>
</g>
<!-- Get3dPosition__29 -->
<g id="node15" class="node">
<title>Get3dPosition__29</title>
<polygon fill="#eeeeee" stroke="black" points="1522.5,-1086.5 1522.5,-1124.5 1943.5,-1124.5 1943.5,-1086.5 1522.5,-1086.5"/>
<text text-anchor="start" x="1530.5" y="-1109.3" font-family="monospace" font-size="14.00">EX_JumpIfNot 167</text>
<text text-anchor="start" x="1530.5" y="-1094.3" font-family="monospace" font-size="14.00">  EX_LocalVariable [CallFunc_IsValid_ReturnValue]</text>
</g>
<!-- Get3dPosition__0&#45;&gt;Get3dPosition__29 -->
<g id="edge11" class="edge">
<title>Get3dPosition__0&#45;&gt;Get3dPosition__29</title>
<path fill="none" stroke="black" d="M1733,-1221.26C1733,-1195.71 1733,-1160.52 1733,-1135.86"/>
<polygon fill="black" stroke="black" points="1736.5,-1135.88 1733,-1125.88 1729.5,-1135.88 1736.5,-1135.88"/>
</g>
<!-- Get3dPosition__43 -->
<g id="node16" class="node">
<title>Get3dPosition__43</title>
<polygon fill="#eeeeee" stroke="black" points="1403,-899.5 1403,-997.5 1981,-997.5 1981,-899.5 1403,-899.5"/>
<text text-anchor="start" x="1411" y="-982.3" font-family="monospace" font-size="14.00">EX_LetObj</text>
<text text-anchor="start" x="1411" y="-967.3" font-family="monospace" font-size="14.00">  EX_LocalVariable [CallFunc_GetOwner_ReturnValue]</text>
<text text-anchor="start" x="1411" y="-952.3" font-family="monospace" font-size="14.00">  EX_Context</text>
<text text-anchor="start" x="1411" y="-937.3" font-family="monospace" font-size="14.00">    EX_InstanceVariable [Component]</text>
<text text-anchor="start" x="1411" y="-922.3" font-family="monospace" font-size="14.00">    EX_FinalFunction import /Script/Engine&#45;&gt;ActorComponent&#45;&gt;GetOwner</text>
<text text-anchor="start" x="1411" y="-907.3" font-family="monospace" font-size="14.00">    RValue = [CallFunc_GetOwner_ReturnValue]</text>
</g>
<!-- Get3dPosition__29&#45;&gt;Get3dPosition__43 -->
<g id="edge13" class="edge">
<title>Get3dPosition__29&#45;&gt;Get3dPosition__43</title>
<path fill="none" stroke="black" d="M1728.3,-1086.72C1723.25,-1067.63 1714.95,-1036.26 1707.56,-1008.33"/>
<polygon fill="black" stroke="black" points="1711.01,-1007.66 1705.06,-998.89 1704.24,-1009.45 1711.01,-1007.66"/>
<text text-anchor="middle" x="1727.5" y="-1030.8" font-family="monospace" font-size="14.00">IF</text>
</g>
<!-- Get3dPosition__167 -->
<g id="node20" class="node">
<title>Get3dPosition__167</title>
<polygon fill="#eeeeee" stroke="black" points="1914,-812.5 1914,-880.5 2112,-880.5 2112,-812.5 1914,-812.5"/>
<text text-anchor="start" x="1922" y="-865.3" font-family="monospace" font-size="14.00">EX_Let</text>
<text text-anchor="start" x="1922" y="-850.3" font-family="monospace" font-size="14.00">  EX_LocalOutVariable</text>
<text text-anchor="start" x="1922" y="-835.3" font-family="monospace" font-size="14.00">    [pos]</text>
<text text-anchor="start" x="1922" y="-820.3" font-family="monospace" font-size="14.00">  EX_VectorConst 0,0,0</text>
</g>
<!-- Get3dPosition__29&#45;&gt;Get3dPosition__167 -->
<g id="edge12" class="edge">
<title>Get3dPosition__29:e&#45;&gt;Get3dPosition__167</title>
<path fill="none" stroke="red" d="M1945,-1105.5C2032.39,-1105.5 2027.91,-965.38 2019.5,-891.67"/>
<polygon fill="none" stroke="red" points="2023,-891.44 2018.31,-881.94 2016.05,-892.29 2023,-891.44"/>
<text text-anchor="middle" x="2045" y="-1030.8" font-family="monospace" font-size="14.00">IF NOT</text>
</g>
<!-- Get3dPosition__85 -->
<g id="node17" class="node">
<title>Get3dPosition__85</title>
<polygon fill="#eeeeee" stroke="black" points="1392,-695.5 1392,-793.5 1986,-793.5 1986,-695.5 1392,-695.5"/>
<text text-anchor="start" x="1400" y="-778.3" font-family="monospace" font-size="14.00">EX_Let</text>
<text text-anchor="start" x="1400" y="-763.3" font-family="monospace" font-size="14.00">  EX_LocalVariable [CallFunc_K2_GetActorLocation_ReturnValue]</text>
<text text-anchor="start" x="1400" y="-748.3" font-family="monospace" font-size="14.00">  EX_Context</text>
<text text-anchor="start" x="1400" y="-733.3" font-family="monospace" font-size="14.00">    EX_LocalVariable [CallFunc_GetOwner_ReturnValue]</text>
<text text-anchor="start" x="1400" y="-718.3" font-family="monospace" font-size="14.00">    EX_FinalFunction import /Script/Engine&#45;&gt;Actor&#45;&gt;K2_GetActorLocation</text>
<text text-anchor="start" x="1400" y="-703.3" font-family="monospace" font-size="14.00">    RValue = [CallFunc_K2_GetActorLocation_ReturnValue]</text>
</g>
<!-- Get3dPosition__43&#45;&gt;Get3dPosition__85 -->
<g id="edge14" class="edge">
<title>Get3dPosition__43&#45;&gt;Get3dPosition__85</title>
<path fill="none" stroke="black" d="M1691.29,-899.63C1690.87,-871.18 1690.33,-834.87 1689.88,-804.64"/>
<polygon fill="black" stroke="black" points="1693.38,-804.84 1689.73,-794.89 1686.38,-804.94 1693.38,-804.84"/>
</g>
<!-- Get3dPosition__135 -->
<g id="node18" class="node">
<title>Get3dPosition__135</title>
<polygon fill="#eeeeee" stroke="black" points="1448,-492 1448,-560 1968,-560 1968,-492 1448,-492"/>
<text text-anchor="start" x="1456" y="-544.8" font-family="monospace" font-size="14.00">EX_Let</text>
<text text-anchor="start" x="1456" y="-529.8" font-family="monospace" font-size="14.00">  EX_LocalOutVariable</text>
<text text-anchor="start" x="1456" y="-514.8" font-family="monospace" font-size="14.00">    [pos]</text>
<text text-anchor="start" x="1456" y="-499.8" font-family="monospace" font-size="14.00">  EX_LocalVariable [CallFunc_K2_GetActorLocation_ReturnValue]</text>
</g>
<!-- Get3dPosition__85&#45;&gt;Get3dPosition__135 -->
<g id="edge15" class="edge">
<title>Get3dPosition__85&#45;&gt;Get3dPosition__135</title>
<path fill="none" stroke="black" d="M1693.19,-695.72C1696.46,-658.53 1700.95,-607.31 1704.13,-571.09"/>
<polygon fill="black" stroke="black" points="1707.59,-571.67 1704.98,-561.4 1700.62,-571.06 1707.59,-571.67"/>
</g>
<!-- Get3dPosition__162 -->
<g id="node19" class="node">
<title>Get3dPosition__162</title>
<polygon fill="#eeeeee" stroke="black" points="1766.5,-304.5 1766.5,-340.5 1873.5,-340.5 1873.5,-304.5 1766.5,-304.5"/>
<text text-anchor="start" x="1774.5" y="-318.8" font-family="monospace" font-size="14.00">EX_Jump 198</text>
</g>
<!-- Get3dPosition__135&#45;&gt;Get3dPosition__162 -->
<g id="edge16" class="edge">
<title>Get3dPosition__135&#45;&gt;Get3dPosition__162</title>
<path fill="none" stroke="black" d="M1726.24,-492.18C1748.25,-452.59 1784.8,-386.82 1805.16,-350.2"/>
<polygon fill="black" stroke="black" points="1808.15,-352.02 1809.95,-341.58 1802.03,-348.62 1808.15,-352.02"/>
</g>
<!-- Get3dPosition__198 -->
<g id="node21" class="node">
<title>Get3dPosition__198</title>
<polygon fill="#eeeeee" stroke="black" points="1901,-197.5 1901,-235.5 2017,-235.5 2017,-197.5 1901,-197.5"/>
<text text-anchor="start" x="1909" y="-220.3" font-family="monospace" font-size="14.00">EX_Return</text>
<text text-anchor="start" x="1909" y="-205.3" font-family="monospace" font-size="14.00">  EX_Nothing</text>
</g>
<!-- Get3dPosition__162&#45;&gt;Get3dPosition__198 -->
<g id="edge17" class="edge">
<title>Get3dPosition__162&#45;&gt;Get3dPosition__198</title>
<path fill="none" stroke="black" d="M1842.64,-304.56C1865.25,-287.64 1900.25,-261.46 1925.96,-242.22"/>
<polygon fill="black" stroke="black" points="1927.85,-245.18 1933.76,-236.39 1923.65,-239.58 1927.85,-245.18"/>
</g>
<!-- Get3dPosition__167&#45;&gt;Get3dPosition__198 -->
<g id="edge18" class="edge">
<title>Get3dPosition__167&#45;&gt;Get3dPosition__198</title>
<path fill="none" stroke="black" d="M2013.31,-812.57C2013.6,-778.6 2014,-724.1 2014,-677 2014,-677 2014,-677 2014,-321.5 2014,-292.58 1997.18,-263.84 1982.14,-243.93"/>
<polygon fill="black" stroke="black" points="1985.09,-242.02 1976.14,-236.35 1979.61,-246.36 1985.09,-242.02"/>
</g>
<!-- Get3dPosition__200 -->
<g id="node22" class="node">
<title>Get3dPosition__200</title>
<polygon fill="#eeeeee" stroke="black" points="2004,-1158.5 2004,-1194.5 2136,-1194.5 2136,-1158.5 2004,-1158.5"/>
<text text-anchor="start" x="2012" y="-1172.8" font-family="monospace" font-size="14.00">EX_EndOfScript</text>
</g>
<!-- InitPoint -->
<g id="node23" class="node">
<title>InitPoint</title>
<polygon fill="#ff8888" stroke="black" points="2036,-1423 2036,-1536 2696,-1536 2696,-1423 2036,-1423"/>
<text text-anchor="start" x="2044" y="-1520.8" font-family="monospace" font-size="14.00">Function InitPoint</text>
<text text-anchor="start" x="2044" y="-1505.8" font-family="monospace" font-size="14.00">  ObjectProperty RadarComponent</text>
<text text-anchor="start" x="2044" y="-1490.8" font-family="monospace" font-size="14.00">    CPF_BlueprintVisible|CPF_BlueprintReadOnly|CPF_Parm|CPF_InstancedReference</text>
<text text-anchor="start" x="2044" y="-1475.8" font-family="monospace" font-size="14.00">  BoolProperty success</text>
<text text-anchor="start" x="2044" y="-1460.8" font-family="monospace" font-size="14.00">    CPF_Parm|CPF_OutParm</text>
<text text-anchor="start" x="2044" y="-1445.8" font-family="monospace" font-size="14.00">  FloatProperty CallFunc_GetGameTimeInSeconds_ReturnValue</text>
<text text-anchor="start" x="2044" y="-1430.8" font-family="monospace" font-size="14.00">  FloatProperty CallFunc_Add_FloatFloat_ReturnValue</text>
</g>
<!-- InitPoint__0 -->
<g id="node24" class="node">
<title>InitPoint__0</title>
<polygon fill="#eeeeee" stroke="black" points="2213.5,-1228.5 2213.5,-1281.5 2518.5,-1281.5 2518.5,-1228.5 2213.5,-1228.5"/>
<text text-anchor="start" x="2221.5" y="-1266.3" font-family="monospace" font-size="14.00">EX_LetObj</text>
<text text-anchor="start" x="2221.5" y="-1251.3" font-family="monospace" font-size="14.00">  EX_InstanceVariable [Component]</text>
<text text-anchor="start" x="2221.5" y="-1236.3" font-family="monospace" font-size="14.00">  EX_LocalVariable [RadarComponent]</text>
</g>
<!-- InitPoint&#45;&gt;InitPoint__0 -->
<g id="edge19" class="edge">
<title>InitPoint&#45;&gt;InitPoint__0</title>
<path fill="none" stroke="black" d="M2366,-1423.21C2366,-1382.4 2366,-1327.99 2366,-1292.49"/>
<polygon fill="black" stroke="black" points="2369.5,-1292.73 2366,-1282.73 2362.5,-1292.73 2369.5,-1292.73"/>
</g>
<!-- InitPoint__19 -->
<g id="node25" class="node">
<title>InitPoint__19</title>
<polygon fill="#eeeeee" stroke="black" points="2036,-1071.5 2036,-1139.5 2696,-1139.5 2696,-1071.5 2036,-1071.5"/>
<text text-anchor="start" x="2044" y="-1124.3" font-family="monospace" font-size="14.00">EX_Let</text>
<text text-anchor="start" x="2044" y="-1109.3" font-family="monospace" font-size="14.00">  EX_LocalVariable [CallFunc_GetGameTimeInSeconds_ReturnValue]</text>
<text text-anchor="start" x="2044" y="-1094.3" font-family="monospace" font-size="14.00">  EX_CallMath import /Script/Engine&#45;&gt;KismetSystemLibrary&#45;&gt;GetGameTimeInSeconds</text>
<text text-anchor="start" x="2044" y="-1079.3" font-family="monospace" font-size="14.00">    EX_Self</text>
</g>
<!-- InitPoint__0&#45;&gt;InitPoint__19 -->
<g id="edge20" class="edge">
<title>InitPoint__0&#45;&gt;InitPoint__19</title>
<path fill="none" stroke="black" d="M2366,-1228.64C2366,-1207.22 2366,-1176.03 2366,-1150.53"/>
<polygon fill="black" stroke="black" points="2369.5,-1150.79 2366,-1140.79 2362.5,-1150.79 2369.5,-1150.79"/>
</g>
<!-- InitPoint__48 -->
<g id="node26" class="node">
<title>InitPoint__48</title>
<polygon fill="#eeeeee" stroke="black" points="2069,-907 2069,-990 2663,-990 2663,-907 2069,-907"/>
<text text-anchor="start" x="2077" y="-974.8" font-family="monospace" font-size="14.00">EX_Let</text>
<text text-anchor="start" x="2077" y="-959.8" font-family="monospace" font-size="14.00">  EX_LocalVariable [CallFunc_Add_FloatFloat_ReturnValue]</text>
<text text-anchor="start" x="2077" y="-944.8" font-family="monospace" font-size="14.00">  EX_CallMath import /Script/Engine&#45;&gt;KismetMathLibrary&#45;&gt;Add_FloatFloat</text>
<text text-anchor="start" x="2077" y="-929.8" font-family="monospace" font-size="14.00">    EX_LocalVariable [CallFunc_GetGameTimeInSeconds_ReturnValue]</text>
<text text-anchor="start" x="2077" y="-914.8" font-family="monospace" font-size="14.00">    EX_InstanceVariable [TimeoutDelay]</text>
</g>
<!-- InitPoint__19&#45;&gt;InitPoint__48 -->
<g id="edge21" class="edge">
<title>InitPoint__19&#45;&gt;InitPoint__48</title>
<path fill="none" stroke="black" d="M2366,-1071.63C2366,-1051.18 2366,-1024.44 2366,-1001.2"/>
<polygon fill="black" stroke="black" points="2369.5,-1001.28 2366,-991.28 2362.5,-1001.28 2369.5,-1001.28"/>
</g>
<!-- InitPoint__94 -->
<g id="node27" class="node">
<title>InitPoint__94</title>
<polygon fill="#eeeeee" stroke="black" points="2126.5,-718 2126.5,-771 2605.5,-771 2605.5,-718 2126.5,-718"/>
<text text-anchor="start" x="2134.5" y="-755.8" font-family="monospace" font-size="14.00">EX_Let</text>
<text text-anchor="start" x="2134.5" y="-740.8" font-family="monospace" font-size="14.00">  EX_InstanceVariable [TimeOut]</text>
<text text-anchor="start" x="2134.5" y="-725.8" font-family="monospace" font-size="14.00">  EX_LocalVariable [CallFunc_Add_FloatFloat_ReturnValue]</text>
</g>
<!-- InitPoint__48&#45;&gt;InitPoint__94 -->
<g id="edge22" class="edge">
<title>InitPoint__48&#45;&gt;InitPoint__94</title>
<path fill="none" stroke="black" d="M2366,-907.11C2366,-870.59 2366,-817.31 2366,-782.04"/>
<polygon fill="black" stroke="black" points="2369.5,-782.33 2366,-772.33 2362.5,-782.33 2369.5,-782.33"/>
</g>
<!-- InitPoint__121 -->
<g id="node28" class="node">
<title>InitPoint__121</title>
<polygon fill="#eeeeee" stroke="black" points="2271,-492 2271,-560 2461,-560 2461,-492 2271,-492"/>
<text text-anchor="start" x="2279" y="-544.8" font-family="monospace" font-size="14.00">EX_LetBool</text>
<text text-anchor="start" x="2279" y="-529.8" font-family="monospace" font-size="14.00">  EX_LocalOutVariable</text>
<text text-anchor="start" x="2279" y="-514.8" font-family="monospace" font-size="14.00">    [success]</text>
<text text-anchor="start" x="2279" y="-499.8" font-family="monospace" font-size="14.00">  EX_True</text>
</g>
<!-- InitPoint__94&#45;&gt;InitPoint__121 -->
<g id="edge23" class="edge">
<title>InitPoint__94&#45;&gt;InitPoint__121</title>
<path fill="none" stroke="black" d="M2366,-718.24C2366,-682.2 2366,-615.48 2366,-571.16"/>
<polygon fill="black" stroke="black" points="2369.5,-571.37 2366,-561.37 2362.5,-571.37 2369.5,-571.37"/>
</g>
<!-- InitPoint__132 -->
<g id="node29" class="node">
<title>InitPoint__132</title>
<polygon fill="#eeeeee" stroke="black" points="2308,-303.5 2308,-341.5 2424,-341.5 2424,-303.5 2308,-303.5"/>
<text text-anchor="start" x="2316" y="-326.3" font-family="monospace" font-size="14.00">EX_Return</text>
<text text-anchor="start" x="2316" y="-311.3" font-family="monospace" font-size="14.00">  EX_Nothing</text>
</g>
<!-- InitPoint__121&#45;&gt;InitPoint__132 -->
<g id="edge24" class="edge">
<title>InitPoint__121&#45;&gt;InitPoint__132</title>
<path fill="none" stroke="black" d="M2366,-492.18C2366,-453.5 2366,-389.83 2366,-352.77"/>
<polygon fill="black" stroke="black" points="2369.5,-352.81 2366,-342.81 2362.5,-352.81 2369.5,-352.81"/>
</g>
<!-- InitPoint__134 -->
<g id="node30" class="node">
<title>InitPoint__134</title>
<polygon fill="#eeeeee" stroke="black" points="2381,-1016.5 2381,-1052.5 2513,-1052.5 2513,-1016.5 2381,-1016.5"/>
<text text-anchor="start" x="2389" y="-1030.8" font-family="monospace" font-size="14.00">EX_EndOfScript</text>
</g>
</g>
</svg>
