<?xml version="1.0" encoding="UTF-8" standalone="no"?>
<!DOCTYPE svg PUBLIC "-//W3C//DTD SVG 1.1//EN"
 "http://www.w3.org/Graphics/SVG/1.1/DTD/svg11.dtd">
<!-- Generated by graphviz version 7.0.1 (0)
 -->
<!-- Pages: 1 -->
<svg width="2696pt" height="1115pt"
 viewBox="0.00 0.00 2696.00 1115.00" xmlns="http://www.w3.org/2000/svg" xmlns:xlink="http://www.w3.org/1999/xlink">
<g id="graph0" class="graph" transform="scale(1 1) rotate(0) translate(4 1111)">
<polygon fill="white" stroke="none" points="-4,4 -4,-1111 2692,-1111 2692,4 -4,4"/>
<!-- HUD_RadarPoint_Resupply_C -->
<g id="node1" class="node">
<title>HUD_RadarPoint_Resupply_C</title>
<polygon fill="#88ff88" stroke="black" points="0,-933.5 0,-1106.5 850,-1106.5 850,-933.5 0,-933.5"/>
<text text-anchor="start" x="8" y="-1091.3" font-family="monospace" font-size="14.00">ClassExport: HUD_RadarPoint_Resupply_C</text>
<text text-anchor="start" x="8" y="-1076.3" font-family="monospace" font-size="14.00">  SuperStruct: import /Script/UMG&#45;&gt;UserWidget</text>
<text text-anchor="start" x="8" y="-1061.3" font-family="monospace" font-size="14.00">  Properties:</text>
<text text-anchor="start" x="8" y="-1046.3" font-family="monospace" font-size="14.00">    ObjectProperty Image_0</text>
<text text-anchor="start" x="8" y="-1031.3" font-family="monospace" font-size="14.00">      CPF_BlueprintVisible|CPF_ExportObject|CPF_InstancedReference|CPF_RepSkip|CPF_PersistentInstance</text>
<text text-anchor="start" x="8" y="-1016.3" font-family="monospace" font-size="14.00">    ObjectProperty Component</text>
<text text-anchor="start" x="8" y="-1001.3" font-family="monospace" font-size="14.00">      CPF_Edit|CPF_BlueprintVisible|CPF_DisableEditOnInstance|CPF_InstancedReference</text>
<text text-anchor="start" x="8" y="-986.3" font-family="monospace" font-size="14.00">    FloatProperty TimeoutDelay</text>
<text text-anchor="start" x="8" y="-971.3" font-family="monospace" font-size="14.00">      CPF_Edit|CPF_BlueprintVisible|CPF_ExposeOnSpawn</text>
<text text-anchor="start" x="8" y="-956.3" font-family="monospace" font-size="14.00">    FloatProperty TimeOut</text>
<text text-anchor="start" x="8" y="-941.3" font-family="monospace" font-size="14.00">      CPF_Edit|CPF_BlueprintVisible|CPF_DisableEditOnInstance</text>
</g>
<!-- UpdatePoint -->
<g id="node2" class="node">
<title>UpdatePoint</title>
<polygon fill="#ff8888" stroke="black" points="868.5,-948.5 868.5,-1091.5 1355.5,-1091.5 1355.5,-948.5 868.5,-948.5"/>
<text text-anchor="start" x="876.5" y="-1076.3" font-family="monospace" font-size="14.00">Function UpdatePoint</text>
<text text-anchor="start" x="876.5" y="-1061.3" font-family="monospace" font-size="14.00">  FloatProperty alpha</text>
<text text-anchor="start" x="876.5" y="-1046.3" font-family="monospace" font-size="14.00">    CPF_BlueprintVisible|CPF_BlueprintReadOnly|CPF_Parm</text>
<text text-anchor="start" x="876.5" y="-1031.3" font-family="monospace" font-size="14.00">  FloatProperty verticalDist</text>
<text text-anchor="start" x="876.5" y="-1016.3" font-family="monospace" font-size="14.00">    CPF_BlueprintVisible|CPF_BlueprintReadOnly|CPF_Parm</text>
<text text-anchor="start" x="876.5" y="-1001.3" font-family="monospace" font-size="14.00">  BoolProperty destroy</text>
<text text-anchor="start" x="876.5" y="-986.3" font-family="monospace" font-size="14.00">    CPF_Parm|CPF_OutParm</text>
<text text-anchor="start" x="876.5" y="-971.3" font-family="monospace" font-size="14.00">  FloatProperty CallFunc_GetGameTimeInSeconds_ReturnValue</text>
<text text-anchor="start" x="876.5" y="-956.3" font-family="monospace" font-size="14.00">  BoolProperty CallFunc_Greater_FloatFloat_ReturnValue</text>
</g>
<!-- UpdatePoint__0 -->
<g id="node3" class="node">
<title>UpdatePoint__0</title>
<polygon fill="#eeeeee" stroke="black" points="782,-791.5 782,-859.5 1442,-859.5 1442,-791.5 782,-791.5"/>
<text text-anchor="start" x="790" y="-844.3" font-family="monospace" font-size="14.00">EX_Let</text>
<text text-anchor="start" x="790" y="-829.3" font-family="monospace" font-size="14.00">  EX_LocalVariable [CallFunc_GetGameTimeInSeconds_ReturnValue]</text>
<text text-anchor="start" x="790" y="-814.3" font-family="monospace" font-size="14.00">  EX_CallMath import /Script/Engine&#45;&gt;KismetSystemLibrary&#45;&gt;GetGameTimeInSeconds</text>
<text text-anchor="start" x="790" y="-799.3" font-family="monospace" font-size="14.00">    EX_Self</text>
</g>
<!-- UpdatePoint&#45;&gt;UpdatePoint__0 -->
<g id="edge1" class="edge">
<title>UpdatePoint&#45;&gt;UpdatePoint__0</title>
<path fill="none" stroke="black" d="M1112,-948.69C1112,-922.71 1112,-894.01 1112,-870.96"/>
<polygon fill="black" stroke="black" points="1115.5,-870.98 1112,-860.98 1108.5,-870.98 1115.5,-870.98"/>
</g>
<!-- UpdatePoint__29 -->
<g id="node4" class="node">
<title>UpdatePoint__29</title>
<polygon fill="#eeeeee" stroke="black" points="798.5,-634.5 798.5,-717.5 1425.5,-717.5 1425.5,-634.5 798.5,-634.5"/>
<text text-anchor="start" x="806.5" y="-702.3" font-family="monospace" font-size="14.00">EX_LetBool</text>
<text text-anchor="start" x="806.5" y="-687.3" font-family="monospace" font-size="14.00">  EX_LocalVariable [CallFunc_Greater_FloatFloat_ReturnValue]</text>
<text text-anchor="start" x="806.5" y="-672.3" font-family="monospace" font-size="14.00">  EX_CallMath import /Script/Engine&#45;&gt;KismetMathLibrary&#45;&gt;Greater_FloatFloat</text>
<text text-anchor="start" x="806.5" y="-657.3" font-family="monospace" font-size="14.00">    EX_LocalVariable [CallFunc_GetGameTimeInSeconds_ReturnValue]</text>
<text text-anchor="start" x="806.5" y="-642.3" font-family="monospace" font-size="14.00">    EX_InstanceVariable [TimeOut]</text>
</g>
<!-- UpdatePoint__0&#45;&gt;UpdatePoint__29 -->
<g id="edge2" class="edge">
<title>UpdatePoint__0&#45;&gt;UpdatePoint__29</title>
<path fill="none" stroke="black" d="M1112,-791.76C1112,-773.22 1112,-749.6 1112,-728.61"/>
<polygon fill="black" stroke="black" points="1115.5,-728.79 1112,-718.79 1108.5,-728.79 1115.5,-728.79"/>
</g>
<!-- UpdatePoint__67 -->
<g id="node5" class="node">
<title>UpdatePoint__67</title>
<polygon fill="#eeeeee" stroke="black" points="856,-477.5 856,-545.5 1368,-545.5 1368,-477.5 856,-477.5"/>
<text text-anchor="start" x="864" y="-530.3" font-family="monospace" font-size="14.00">EX_LetBool</text>
<text text-anchor="start" x="864" y="-515.3" font-family="monospace" font-size="14.00">  EX_LocalOutVariable</text>
<text text-anchor="start" x="864" y="-500.3" font-family="monospace" font-size="14.00">    [destroy]</text>
<text text-anchor="start" x="864" y="-485.3" font-family="monospace" font-size="14.00">  EX_LocalVariable [CallFunc_Greater_FloatFloat_ReturnValue]</text>
</g>
<!-- UpdatePoint__29&#45;&gt;UpdatePoint__67 -->
<g id="edge3" class="edge">
<title>UpdatePoint__29&#45;&gt;UpdatePoint__67</title>
<path fill="none" stroke="black" d="M1112,-634.83C1112,-611.17 1112,-581.19 1112,-556.84"/>
<polygon fill="black" stroke="black" points="1115.5,-556.9 1112,-546.9 1108.5,-556.9 1115.5,-556.9"/>
</g>
<!-- UpdatePoint__86 -->
<g id="node6" class="node">
<title>UpdatePoint__86</title>
<polygon fill="#eeeeee" stroke="black" points="1054,-288.5 1054,-326.5 1170,-326.5 1170,-288.5 1054,-288.5"/>
<text text-anchor="start" x="1062" y="-311.3" font-family="monospace" font-size="14.00">EX_Return</text>
<text text-anchor="start" x="1062" y="-296.3" font-family="monospace" font-size="14.00">  EX_Nothing</text>
</g>
<!-- UpdatePoint__67&#45;&gt;UpdatePoint__86 -->
<g id="edge4" class="edge">
<title>UpdatePoint__67&#45;&gt;UpdatePoint__86</title>
<path fill="none" stroke="black" d="M1112,-477.6C1112,-438.83 1112,-375 1112,-337.84"/>
<polygon fill="black" stroke="black" points="1115.5,-337.86 1112,-327.86 1108.5,-337.86 1115.5,-337.86"/>
</g>
<!-- UpdatePoint__88 -->
<g id="node7" class="node">
<title>UpdatePoint__88</title>
<polygon fill="#eeeeee" stroke="black" points="1359,-878.5 1359,-914.5 1491,-914.5 1491,-878.5 1359,-878.5"/>
<text text-anchor="start" x="1367" y="-892.8" font-family="monospace" font-size="14.00">EX_EndOfScript</text>
</g>
<!-- Get3dPosition -->
<g id="node8" class="node">
<title>Get3dPosition</title>
<polygon fill="#ff8888" stroke="black" points="1493.5,-971 1493.5,-1069 1980.5,-1069 1980.5,-971 1493.5,-971"/>
<text text-anchor="start" x="1501.5" y="-1053.8" font-family="monospace" font-size="14.00">Function Get3dPosition</text>
<text text-anchor="start" x="1501.5" y="-1038.8" font-family="monospace" font-size="14.00">  StructProperty pos</text>
<text text-anchor="start" x="1501.5" y="-1023.8" font-family="monospace" font-size="14.00">    CPF_Parm|CPF_OutParm</text>
<text text-anchor="start" x="1501.5" y="-1008.8" font-family="monospace" font-size="14.00">  BoolProperty CallFunc_IsValid_ReturnValue</text>
<text text-anchor="start" x="1501.5" y="-993.8" font-family="monospace" font-size="14.00">  ObjectProperty CallFunc_GetOwner_ReturnValue</text>
<text text-anchor="start" x="1501.5" y="-978.8" font-family="monospace" font-size="14.00">  StructProperty CallFunc_K2_GetActorLocation_ReturnValue</text>
</g>
<!-- Get3dPosition__0 -->
<g id="node9" class="node">
<title>Get3dPosition__0</title>
<polygon fill="#eeeeee" stroke="black" points="1460.5,-791.5 1460.5,-859.5 2013.5,-859.5 2013.5,-791.5 1460.5,-791.5"/>
<text text-anchor="start" x="1468.5" y="-844.3" font-family="monospace" font-size="14.00">EX_LetBool</text>
<text text-anchor="start" x="1468.5" y="-829.3" font-family="monospace" font-size="14.00">  EX_LocalVariable [CallFunc_IsValid_ReturnValue]</text>
<text text-anchor="start" x="1468.5" y="-814.3" font-family="monospace" font-size="14.00">  EX_CallMath import /Script/Engine&#45;&gt;KismetSystemLibrary&#45;&gt;IsValid</text>
<text text-anchor="start" x="1468.5" y="-799.3" font-family="monospace" font-size="14.00">    EX_InstanceVariable [Component]</text>
</g>
<!-- Get3dPosition&#45;&gt;Get3dPosition__0 -->
<g id="edge5" class="edge">
<title>Get3dPosition&#45;&gt;Get3dPosition__0</title>
<path fill="none" stroke="black" d="M1737,-971.42C1737,-940.65 1737,-900.88 1737,-870.79"/>
<polygon fill="black" stroke="black" points="1740.5,-870.88 1737,-860.88 1733.5,-870.88 1740.5,-870.88"/>
</g>
<!-- Get3dPosition__29 -->
<g id="node10" class="node">
<title>Get3dPosition__29</title>
<polygon fill="#eeeeee" stroke="black" points="1526.5,-657 1526.5,-695 1947.5,-695 1947.5,-657 1526.5,-657"/>
<text text-anchor="start" x="1534.5" y="-679.8" font-family="monospace" font-size="14.00">EX_JumpIfNot 167</text>
<text text-anchor="start" x="1534.5" y="-664.8" font-family="monospace" font-size="14.00">  EX_LocalVariable [CallFunc_IsValid_ReturnValue]</text>
</g>
<!-- Get3dPosition__0&#45;&gt;Get3dPosition__29 -->
<g id="edge6" class="edge">
<title>Get3dPosition__0&#45;&gt;Get3dPosition__29</title>
<path fill="none" stroke="black" d="M1737,-791.76C1737,-766.21 1737,-731.02 1737,-706.36"/>
<polygon fill="black" stroke="black" points="1740.5,-706.38 1737,-696.38 1733.5,-706.38 1740.5,-706.38"/>
</g>
<!-- Get3dPosition__43 -->
<g id="node11" class="node">
<title>Get3dPosition__43</title>
<polygon fill="#eeeeee" stroke="black" points="1419,-462.5 1419,-560.5 1997,-560.5 1997,-462.5 1419,-462.5"/>
<text text-anchor="start" x="1427" y="-545.3" font-family="monospace" font-size="14.00">EX_LetObj</text>
<text text-anchor="start" x="1427" y="-530.3" font-family="monospace" font-size="14.00">  EX_LocalVariable [CallFunc_GetOwner_ReturnValue]</text>
<text text-anchor="start" x="1427" y="-515.3" font-family="monospace" font-size="14.00">  EX_Context</text>
<text text-anchor="start" x="1427" y="-500.3" font-family="monospace" font-size="14.00">    EX_InstanceVariable [Component]</text>
<text text-anchor="start" x="1427" y="-485.3" font-family="monospace" font-size="14.00">    EX_FinalFunction import /Script/Engine&#45;&gt;ActorComponent&#45;&gt;GetOwner</text>
<text text-anchor="start" x="1427" y="-470.3" font-family="monospace" font-size="14.00">    RValue = [CallFunc_GetOwner_ReturnValue]</text>
</g>
<!-- Get3dPosition__29&#45;&gt;Get3dPosition__43 -->
<g id="edge8" class="edge">
<title>Get3dPosition__29&#45;&gt;Get3dPosition__43</title>
<path fill="none" stroke="black" d="M1733.84,-657.3C1730.17,-636.71 1723.91,-601.66 1718.47,-571.19"/>
<polygon fill="black" stroke="black" points="1721.98,-570.93 1716.78,-561.7 1715.09,-572.16 1721.98,-570.93"/>
<text text-anchor="middle" x="1734.5" y="-593.8" font-family="monospace" font-size="14.00">IF</text>
</g>
<!-- Get3dPosition__167 -->
<g id="node15" class="node">
<title>Get3dPosition__167</title>
<polygon fill="#eeeeee" stroke="black" points="1930,-375.5 1930,-443.5 2128,-443.5 2128,-375.5 1930,-375.5"/>
<text text-anchor="start" x="1938" y="-428.3" font-family="monospace" font-size="14.00">EX_Let</text>
<text text-anchor="start" x="1938" y="-413.3" font-family="monospace" font-size="14.00">  EX_LocalOutVariable</text>
<text text-anchor="start" x="1938" y="-398.3" font-family="monospace" font-size="14.00">    [pos]</text>
<text text-anchor="start" x="1938" y="-383.3" font-family="monospace" font-size="14.00">  EX_VectorConst 0,0,0</text>
</g>
<!-- Get3dPosition__29&#45;&gt;Get3dPosition__167 -->
<g id="edge7" class="edge">
<title>Get3dPosition__29:e&#45;&gt;Get3dPosition__167</title>
<path fill="none" stroke="red" d="M1949,-676C2040.47,-676 2040.23,-529.76 2034.03,-454.35"/>
<polygon fill="none" stroke="red" points="2037.55,-454.48 2033.17,-444.83 2030.58,-455.1 2037.55,-454.48"/>
<text text-anchor="middle" x="2056" y="-593.8" font-family="monospace" font-size="14.00">IF NOT</text>
</g>
<!-- Get3dPosition__85 -->
<g id="node12" class="node">
<title>Get3dPosition__85</title>
<polygon fill="#eeeeee" stroke="black" points="1408,-258.5 1408,-356.5 2002,-356.5 2002,-258.5 1408,-258.5"/>
<text text-anchor="start" x="1416" y="-341.3" font-family="monospace" font-size="14.00">EX_Let</text>
<text text-anchor="start" x="1416" y="-326.3" font-family="monospace" font-size="14.00">  EX_LocalVariable [CallFunc_K2_GetActorLocation_ReturnValue]</text>
<text text-anchor="start" x="1416" y="-311.3" font-family="monospace" font-size="14.00">  EX_Context</text>
<text text-anchor="start" x="1416" y="-296.3" font-family="monospace" font-size="14.00">    EX_LocalVariable [CallFunc_GetOwner_ReturnValue]</text>
<text text-anchor="start" x="1416" y="-281.3" font-family="monospace" font-size="14.00">    EX_FinalFunction import /Script/Engine&#45;&gt;Actor&#45;&gt;K2_GetActorLocation</text>
<text text-anchor="start" x="1416" y="-266.3" font-family="monospace" font-size="14.00">    RValue = [CallFunc_K2_GetActorLocation_ReturnValue]</text>
</g>
<!-- Get3dPosition__43&#45;&gt;Get3dPosition__85 -->
<g id="edge9" class="edge">
<title>Get3dPosition__43&#45;&gt;Get3dPosition__85</title>
<path fill="none" stroke="black" d="M1707.29,-462.63C1706.87,-434.18 1706.33,-397.87 1705.88,-367.64"/>
<polygon fill="black" stroke="black" points="1709.38,-367.84 1705.73,-357.89 1702.38,-367.94 1709.38,-367.84"/>
</g>
<!-- Get3dPosition__135 -->
<g id="node13" class="node">
<title>Get3dPosition__135</title>
<polygon fill="#eeeeee" stroke="black" points="1473,-152.5 1473,-220.5 1993,-220.5 1993,-152.5 1473,-152.5"/>
<text text-anchor="start" x="1481" y="-205.3" font-family="monospace" font-size="14.00">EX_Let</text>
<text text-anchor="start" x="1481" y="-190.3" font-family="monospace" font-size="14.00">  EX_LocalOutVariable</text>
<text text-anchor="start" x="1481" y="-175.3" font-family="monospace" font-size="14.00">    [pos]</text>
<text text-anchor="start" x="1481" y="-160.3" font-family="monospace" font-size="14.00">  EX_LocalVariable [CallFunc_K2_GetActorLocation_ReturnValue]</text>
</g>
<!-- Get3dPosition__85&#45;&gt;Get3dPosition__135 -->
<g id="edge10" class="edge">
<title>Get3dPosition__85&#45;&gt;Get3dPosition__135</title>
<path fill="none" stroke="black" d="M1716.23,-258.78C1718.37,-249.69 1720.6,-240.22 1722.71,-231.25"/>
<polygon fill="black" stroke="black" points="1726.07,-232.25 1724.95,-221.72 1719.25,-230.65 1726.07,-232.25"/>
</g>
<!-- Get3dPosition__162 -->
<g id="node14" class="node">
<title>Get3dPosition__162</title>
<polygon fill="#eeeeee" stroke="black" points="1838.5,-77.5 1838.5,-113.5 1945.5,-113.5 1945.5,-77.5 1838.5,-77.5"/>
<text text-anchor="start" x="1846.5" y="-91.8" font-family="monospace" font-size="14.00">EX_Jump 198</text>
</g>
<!-- Get3dPosition__135&#45;&gt;Get3dPosition__162 -->
<g id="edge11" class="edge">
<title>Get3dPosition__135&#45;&gt;Get3dPosition__162</title>
<path fill="none" stroke="black" d="M1791.75,-152.61C1811.81,-141.38 1833.77,-129.1 1852,-118.89"/>
<polygon fill="black" stroke="black" points="1853.66,-121.97 1860.67,-114.04 1850.24,-115.87 1853.66,-121.97"/>
</g>
<!-- Get3dPosition__198 -->
<g id="node16" class="node">
<title>Get3dPosition__198</title>
<polygon fill="#eeeeee" stroke="black" points="1903,-0.5 1903,-38.5 2019,-38.5 2019,-0.5 1903,-0.5"/>
<text text-anchor="start" x="1911" y="-23.3" font-family="monospace" font-size="14.00">EX_Return</text>
<text text-anchor="start" x="1911" y="-8.3" font-family="monospace" font-size="14.00">  EX_Nothing</text>
</g>
<!-- Get3dPosition__162&#45;&gt;Get3dPosition__198 -->
<g id="edge12" class="edge">
<title>Get3dPosition__162&#45;&gt;Get3dPosition__198</title>
<path fill="none" stroke="black" d="M1907.66,-77.71C1916.23,-68.51 1927.04,-56.92 1936.69,-46.57"/>
<polygon fill="black" stroke="black" points="1939.15,-49.06 1943.41,-39.36 1934.03,-44.29 1939.15,-49.06"/>
</g>
<!-- Get3dPosition__167&#45;&gt;Get3dPosition__198 -->
<g id="edge13" class="edge">
<title>Get3dPosition__167&#45;&gt;Get3dPosition__198</title>
<path fill="none" stroke="black" d="M2029.31,-375.57C2029.6,-341.6 2030,-287.1 2030,-240 2030,-240 2030,-240 2030,-94.5 2030,-74.53 2016.39,-57.7 2001.26,-45.17"/>
<polygon fill="black" stroke="black" points="2003.54,-42.5 1993.47,-39.21 1999.29,-48.06 2003.54,-42.5"/>
</g>
<!-- Get3dPosition__200 -->
<g id="node17" class="node">
<title>Get3dPosition__200</title>
<polygon fill="#eeeeee" stroke="black" points="1996,-736.5 1996,-772.5 2128,-772.5 2128,-736.5 1996,-736.5"/>
<text text-anchor="start" x="2004" y="-750.8" font-family="monospace" font-size="14.00">EX_EndOfScript</text>
</g>
<!-- InitPoint -->
<g id="node18" class="node">
<title>InitPoint</title>
<polygon fill="#ff8888" stroke="black" points="2028,-963.5 2028,-1076.5 2688,-1076.5 2688,-963.5 2028,-963.5"/>
<text text-anchor="start" x="2036" y="-1061.3" font-family="monospace" font-size="14.00">Function InitPoint</text>
<text text-anchor="start" x="2036" y="-1046.3" font-family="monospace" font-size="14.00">  ObjectProperty RadarComponent</text>
<text text-anchor="start" x="2036" y="-1031.3" font-family="monospace" font-size="14.00">    CPF_BlueprintVisible|CPF_BlueprintReadOnly|CPF_Parm|CPF_InstancedReference</text>
<text text-anchor="start" x="2036" y="-1016.3" font-family="monospace" font-size="14.00">  BoolProperty success</text>
<text text-anchor="start" x="2036" y="-1001.3" font-family="monospace" font-size="14.00">    CPF_Parm|CPF_OutParm</text>
<text text-anchor="start" x="2036" y="-986.3" font-family="monospace" font-size="14.00">  FloatProperty CallFunc_GetGameTimeInSeconds_ReturnValue</text>
<text text-anchor="start" x="2036" y="-971.3" font-family="monospace" font-size="14.00">  FloatProperty CallFunc_Add_FloatFloat_ReturnValue</text>
</g>
<!-- InitPoint__0 -->
<g id="node19" class="node">
<title>InitPoint__0</title>
<polygon fill="#eeeeee" stroke="black" points="2205.5,-799 2205.5,-852 2510.5,-852 2510.5,-799 2205.5,-799"/>
<text text-anchor="start" x="2213.5" y="-836.8" font-family="monospace" font-size="14.00">EX_LetObj</text>
<text text-anchor="start" x="2213.5" y="-821.8" font-family="monospace" font-size="14.00">  EX_InstanceVariable [Component]</text>
<text text-anchor="start" x="2213.5" y="-806.8" font-family="monospace" font-size="14.00">  EX_LocalVariable [RadarComponent]</text>
</g>
<!-- InitPoint&#45;&gt;InitPoint__0 -->
<g id="edge14" class="edge">
<title>InitPoint&#45;&gt;InitPoint__0</title>
<path fill="none" stroke="black" d="M2358,-963.58C2358,-931.41 2358,-891.77 2358,-863.41"/>
<polygon fill="black" stroke="black" points="2361.5,-863.51 2358,-853.51 2354.5,-863.51 2361.5,-863.51"/>
</g>
<!-- InitPoint__19 -->
<g id="node20" class="node">
<title>InitPoint__19</title>
<polygon fill="#eeeeee" stroke="black" points="2028,-642 2028,-710 2688,-710 2688,-642 2028,-642"/>
<text text-anchor="start" x="2036" y="-694.8" font-family="monospace" font-size="14.00">EX_Let</text>
<text text-anchor="start" x="2036" y="-679.8" font-family="monospace" font-size="14.00">  EX_LocalVariable [CallFunc_GetGameTimeInSeconds_ReturnValue]</text>
<text text-anchor="start" x="2036" y="-664.8" font-family="monospace" font-size="14.00">  EX_CallMath import /Script/Engine&#45;&gt;KismetSystemLibrary&#45;&gt;GetGameTimeInSeconds</text>
<text text-anchor="start" x="2036" y="-649.8" font-family="monospace" font-size="14.00">    EX_Self</text>
</g>
<!-- InitPoint__0&#45;&gt;InitPoint__19 -->
<g id="edge15" class="edge">
<title>InitPoint__0&#45;&gt;InitPoint__19</title>
<path fill="none" stroke="black" d="M2358,-799.14C2358,-777.72 2358,-746.53 2358,-721.03"/>
<polygon fill="black" stroke="black" points="2361.5,-721.29 2358,-711.29 2354.5,-721.29 2361.5,-721.29"/>
</g>
<!-- InitPoint__48 -->
<g id="node21" class="node">
<title>InitPoint__48</title>
<polygon fill="#eeeeee" stroke="black" points="2061,-470 2061,-553 2655,-553 2655,-470 2061,-470"/>
<text text-anchor="start" x="2069" y="-537.8" font-family="monospace" font-size="14.00">EX_Let</text>
<text text-anchor="start" x="2069" y="-522.8" font-family="monospace" font-size="14.00">  EX_LocalVariable [CallFunc_Add_FloatFloat_ReturnValue]</text>
<text text-anchor="start" x="2069" y="-507.8" font-family="monospace" font-size="14.00">  EX_CallMath import /Script/Engine&#45;&gt;KismetMathLibrary&#45;&gt;Add_FloatFloat</text>
<text text-anchor="start" x="2069" y="-492.8" font-family="monospace" font-size="14.00">    EX_LocalVariable [CallFunc_GetGameTimeInSeconds_ReturnValue]</text>
<text text-anchor="start" x="2069" y="-477.8" font-family="monospace" font-size="14.00">    EX_InstanceVariable [TimeoutDelay]</text>
</g>
<!-- InitPoint__19&#45;&gt;InitPoint__48 -->
<g id="edge16" class="edge">
<title>InitPoint__19&#45;&gt;InitPoint__48</title>
<path fill="none" stroke="black" d="M2358,-642.12C2358,-619.76 2358,-589.72 2358,-564.19"/>
<polygon fill="black" stroke="black" points="2361.5,-564.33 2358,-554.33 2354.5,-564.33 2361.5,-564.33"/>
</g>
<!-- InitPoint__94 -->
<g id="node22" class="node">
<title>InitPoint__94</title>
<polygon fill="#eeeeee" stroke="black" points="2118.5,-281 2118.5,-334 2597.5,-334 2597.5,-281 2118.5,-281"/>
<text text-anchor="start" x="2126.5" y="-318.8" font-family="monospace" font-size="14.00">EX_Let</text>
<text text-anchor="start" x="2126.5" y="-303.8" font-family="monospace" font-size="14.00">  EX_InstanceVariable [TimeOut]</text>
<text text-anchor="start" x="2126.5" y="-288.8" font-family="monospace" font-size="14.00">  EX_LocalVariable [CallFunc_Add_FloatFloat_ReturnValue]</text>
</g>
<!-- InitPoint__48&#45;&gt;InitPoint__94 -->
<g id="edge17" class="edge">
<title>InitPoint__48&#45;&gt;InitPoint__94</title>
<path fill="none" stroke="black" d="M2358,-470.11C2358,-433.59 2358,-380.31 2358,-345.04"/>
<polygon fill="black" stroke="black" points="2361.5,-345.33 2358,-335.33 2354.5,-345.33 2361.5,-345.33"/>
</g>
<!-- InitPoint__121 -->
<g id="node23" class="node">
<title>InitPoint__121</title>
<polygon fill="#eeeeee" stroke="black" points="2263,-152.5 2263,-220.5 2453,-220.5 2453,-152.5 2263,-152.5"/>
<text text-anchor="start" x="2271" y="-205.3" font-family="monospace" font-size="14.00">EX_LetBool</text>
<text text-anchor="start" x="2271" y="-190.3" font-family="monospace" font-size="14.00">  EX_LocalOutVariable</text>
<text text-anchor="start" x="2271" y="-175.3" font-family="monospace" font-size="14.00">    [success]</text>
<text text-anchor="start" x="2271" y="-160.3" font-family="monospace" font-size="14.00">  EX_True</text>
</g>
<!-- InitPoint__94&#45;&gt;InitPoint__121 -->
<g id="edge18" class="edge">
<title>InitPoint__94&#45;&gt;InitPoint__121</title>
<path fill="none" stroke="black" d="M2358,-281.26C2358,-266.85 2358,-248.37 2358,-231.63"/>
<polygon fill="black" stroke="black" points="2361.5,-231.9 2358,-221.9 2354.5,-231.91 2361.5,-231.9"/>
</g>
<!-- InitPoint__132 -->
<g id="node24" class="node">
<title>InitPoint__132</title>
<polygon fill="#eeeeee" stroke="black" points="2300,-76.5 2300,-114.5 2416,-114.5 2416,-76.5 2300,-76.5"/>
<text text-anchor="start" x="2308" y="-99.3" font-family="monospace" font-size="14.00">EX_Return</text>
<text text-anchor="start" x="2308" y="-84.3" font-family="monospace" font-size="14.00">  EX_Nothing</text>
</g>
<!-- InitPoint__121&#45;&gt;InitPoint__132 -->
<g id="edge19" class="edge">
<title>InitPoint__121&#45;&gt;InitPoint__132</title>
<path fill="none" stroke="black" d="M2358,-152.61C2358,-143.79 2358,-134.32 2358,-125.72"/>
<polygon fill="black" stroke="black" points="2361.5,-125.8 2358,-115.8 2354.5,-125.8 2361.5,-125.8"/>
</g>
<!-- InitPoint__134 -->
<g id="node25" class="node">
<title>InitPoint__134</title>
<polygon fill="#eeeeee" stroke="black" points="2373,-579.5 2373,-615.5 2505,-615.5 2505,-579.5 2373,-579.5"/>
<text text-anchor="start" x="2381" y="-593.8" font-family="monospace" font-size="14.00">EX_EndOfScript</text>
</g>
</g>
</svg>
