<?xml version="1.0" encoding="UTF-8" standalone="no"?>
<!DOCTYPE svg PUBLIC "-//W3C//DTD SVG 1.1//EN"
 "http://www.w3.org/Graphics/SVG/1.1/DTD/svg11.dtd">
<!-- Generated by graphviz version 7.0.1 (0)
 -->
<!-- Pages: 1 -->
<svg width="3348pt" height="1735pt"
 viewBox="0.00 0.00 3347.50 1735.00" xmlns="http://www.w3.org/2000/svg" xmlns:xlink="http://www.w3.org/1999/xlink">
<g id="graph0" class="graph" transform="scale(1 1) rotate(0) translate(4 1731)">
<polygon fill="white" stroke="none" points="-4,4 -4,-1731 3343.5,-1731 3343.5,4 -4,4"/>
<!-- ABP_Refinery_Depositor_C -->
<g id="node1" class="node">
<title>ABP_Refinery_Depositor_C</title>
<polygon fill="#88ff88" stroke="black" points="0,-1403.5 0,-1726.5 734,-1726.5 734,-1403.5 0,-1403.5"/>
<text text-anchor="start" x="8" y="-1711.3" font-family="monospace" font-size="14.00">ClassExport: ABP_Refinery_Depositor_C</text>
<text text-anchor="start" x="8" y="-1696.3" font-family="monospace" font-size="14.00">  SuperStruct: import /Script/Engine&#45;&gt;AnimInstance</text>
<text text-anchor="start" x="8" y="-1681.3" font-family="monospace" font-size="14.00">  Properties:</text>
<text text-anchor="start" x="8" y="-1666.3" font-family="monospace" font-size="14.00">    StructProperty UberGraphFrame</text>
<text text-anchor="start" x="8" y="-1651.3" font-family="monospace" font-size="14.00">      CPF_Transient|CPF_DuplicateTransient</text>
<text text-anchor="start" x="8" y="-1636.3" font-family="monospace" font-size="14.00">    StructProperty AnimGraphNode_Root</text>
<text text-anchor="start" x="8" y="-1621.3" font-family="monospace" font-size="14.00">    StructProperty AnimGraphNode_TransitionResult_3</text>
<text text-anchor="start" x="8" y="-1606.3" font-family="monospace" font-size="14.00">    StructProperty AnimGraphNode_TransitionResult_2</text>
<text text-anchor="start" x="8" y="-1591.3" font-family="monospace" font-size="14.00">    StructProperty AnimGraphNode_TransitionResult_1</text>
<text text-anchor="start" x="8" y="-1576.3" font-family="monospace" font-size="14.00">    StructProperty AnimGraphNode_TransitionResult</text>
<text text-anchor="start" x="8" y="-1561.3" font-family="monospace" font-size="14.00">    StructProperty AnimGraphNode_SequencePlayer_2</text>
<text text-anchor="start" x="8" y="-1546.3" font-family="monospace" font-size="14.00">    StructProperty AnimGraphNode_StateResult_2</text>
<text text-anchor="start" x="8" y="-1531.3" font-family="monospace" font-size="14.00">    StructProperty AnimGraphNode_SequencePlayer_1</text>
<text text-anchor="start" x="8" y="-1516.3" font-family="monospace" font-size="14.00">    StructProperty AnimGraphNode_StateResult_1</text>
<text text-anchor="start" x="8" y="-1501.3" font-family="monospace" font-size="14.00">    StructProperty AnimGraphNode_SequencePlayer</text>
<text text-anchor="start" x="8" y="-1486.3" font-family="monospace" font-size="14.00">    StructProperty AnimGraphNode_StateResult</text>
<text text-anchor="start" x="8" y="-1471.3" font-family="monospace" font-size="14.00">    StructProperty AnimGraphNode_StateMachine</text>
<text text-anchor="start" x="8" y="-1456.3" font-family="monospace" font-size="14.00">    ObjectProperty Depositor</text>
<text text-anchor="start" x="8" y="-1441.3" font-family="monospace" font-size="14.00">      CPF_Edit|CPF_BlueprintVisible|CPF_DisableEditOnTemplate|CPF_DisableEditOnInstance</text>
<text text-anchor="start" x="8" y="-1426.3" font-family="monospace" font-size="14.00">    BoolProperty DepositorOpen</text>
<text text-anchor="start" x="8" y="-1411.3" font-family="monospace" font-size="14.00">      CPF_Edit|CPF_BlueprintVisible|CPF_DisableEditOnInstance</text>
</g>
<!-- ExecuteUbergraph_ABP_Refinery_Depositor -->
<g id="node2" class="node">
<title>ExecuteUbergraph_ABP_Refinery_Depositor</title>
<polygon fill="#ff8888" stroke="black" points="752.5,-1501 752.5,-1629 1255.5,-1629 1255.5,-1501 752.5,-1501"/>
<text text-anchor="start" x="760.5" y="-1613.8" font-family="monospace" font-size="14.00">Function ExecuteUbergraph_ABP_Refinery_Depositor</text>
<text text-anchor="start" x="760.5" y="-1598.8" font-family="monospace" font-size="14.00">  IntProperty EntryPoint</text>
<text text-anchor="start" x="760.5" y="-1583.8" font-family="monospace" font-size="14.00">    CPF_BlueprintVisible|CPF_BlueprintReadOnly|CPF_Parm</text>
<text text-anchor="start" x="760.5" y="-1568.8" font-family="monospace" font-size="14.00">  DelegateProperty K2Node_CreateDelegate_OutputDelegate</text>
<text text-anchor="start" x="760.5" y="-1553.8" font-family="monospace" font-size="14.00">  ObjectProperty CallFunc_GetOwningActor_ReturnValue</text>
<text text-anchor="start" x="760.5" y="-1538.8" font-family="monospace" font-size="14.00">  ObjectProperty K2Node_DynamicCast_AsBP_Refinery_Depositor</text>
<text text-anchor="start" x="760.5" y="-1523.8" font-family="monospace" font-size="14.00">  BoolProperty K2Node_DynamicCast_bSuccess</text>
<text text-anchor="start" x="760.5" y="-1508.8" font-family="monospace" font-size="14.00">  BoolProperty K2Node_CustomEvent_InOpen</text>
</g>
<!-- ExecuteUbergraph_ABP_Refinery_Depositor__0 -->
<g id="node3" class="node">
<title>ExecuteUbergraph_ABP_Refinery_Depositor__0</title>
<polygon fill="#eeeeee" stroke="black" points="868,-1269 868,-1307 1140,-1307 1140,-1269 868,-1269"/>
<text text-anchor="start" x="876" y="-1291.8" font-family="monospace" font-size="14.00">EX_ComputedJump</text>
<text text-anchor="start" x="876" y="-1276.8" font-family="monospace" font-size="14.00">  EX_LocalVariable [EntryPoint]</text>
</g>
<!-- ExecuteUbergraph_ABP_Refinery_Depositor&#45;&gt;ExecuteUbergraph_ABP_Refinery_Depositor__0 -->
<g id="edge1" class="edge">
<title>ExecuteUbergraph_ABP_Refinery_Depositor&#45;&gt;ExecuteUbergraph_ABP_Refinery_Depositor__0</title>
<path fill="none" stroke="black" d="M1004,-1501.25C1004,-1443.85 1004,-1361.48 1004,-1318.16"/>
<polygon fill="black" stroke="black" points="1007.5,-1318.3 1004,-1308.3 1000.5,-1318.3 1007.5,-1318.3"/>
</g>
<!-- ExecuteUbergraph_ABP_Refinery_Depositor__10 -->
<g id="node4" class="node">
<title>ExecuteUbergraph_ABP_Refinery_Depositor__10</title>
<polygon fill="#eeeeee" stroke="black" points="2187,-150.5 2187,-248.5 2525,-248.5 2525,-150.5 2187,-150.5"/>
<text text-anchor="start" x="2195" y="-233.3" font-family="monospace" font-size="14.00">EX_LetBool</text>
<text text-anchor="start" x="2195" y="-218.3" font-family="monospace" font-size="14.00">  EX_InstanceVariable [DepositorOpen]</text>
<text text-anchor="start" x="2195" y="-203.3" font-family="monospace" font-size="14.00">  EX_Context</text>
<text text-anchor="start" x="2195" y="-188.3" font-family="monospace" font-size="14.00">    EX_InstanceVariable [Depositor]</text>
<text text-anchor="start" x="2195" y="-173.3" font-family="monospace" font-size="14.00">    EX_InstanceVariable [DepositorOpen]</text>
<text text-anchor="start" x="2195" y="-158.3" font-family="monospace" font-size="14.00">    RValue = [DepositorOpen]</text>
</g>
<!-- ExecuteUbergraph_ABP_Refinery_Depositor__51 -->
<g id="node5" class="node">
<title>ExecuteUbergraph_ABP_Refinery_Depositor__51</title>
<polygon fill="#eeeeee" stroke="black" points="2411.5,-76.5 2411.5,-112.5 2518.5,-112.5 2518.5,-76.5 2411.5,-76.5"/>
<text text-anchor="start" x="2419.5" y="-90.8" font-family="monospace" font-size="14.00">EX_Jump 262</text>
</g>
<!-- ExecuteUbergraph_ABP_Refinery_Depositor__10&#45;&gt;ExecuteUbergraph_ABP_Refinery_Depositor__51 -->
<g id="edge2" class="edge">
<title>ExecuteUbergraph_ABP_Refinery_Depositor__10&#45;&gt;ExecuteUbergraph_ABP_Refinery_Depositor__51</title>
<path fill="none" stroke="black" d="M2406.67,-150.62C2417.74,-140.16 2429.02,-129.5 2438.67,-120.38"/>
<polygon fill="black" stroke="black" points="2441.06,-122.94 2445.92,-113.53 2436.25,-117.85 2441.06,-122.94"/>
</g>
<!-- ExecuteUbergraph_ABP_Refinery_Depositor__262 -->
<g id="node15" class="node">
<title>ExecuteUbergraph_ABP_Refinery_Depositor__262</title>
<polygon fill="#eeeeee" stroke="black" points="2503,-0.5 2503,-38.5 2619,-38.5 2619,-0.5 2503,-0.5"/>
<text text-anchor="start" x="2511" y="-23.3" font-family="monospace" font-size="14.00">EX_Return</text>
<text text-anchor="start" x="2511" y="-8.3" font-family="monospace" font-size="14.00">  EX_Nothing</text>
</g>
<!-- ExecuteUbergraph_ABP_Refinery_Depositor__51&#45;&gt;ExecuteUbergraph_ABP_Refinery_Depositor__262 -->
<g id="edge3" class="edge">
<title>ExecuteUbergraph_ABP_Refinery_Depositor__51&#45;&gt;ExecuteUbergraph_ABP_Refinery_Depositor__262</title>
<path fill="none" stroke="black" d="M2487.27,-76.57C2499.51,-67.26 2514.92,-55.54 2528.48,-45.23"/>
<polygon fill="black" stroke="black" points="2530.47,-48.11 2536.31,-39.27 2526.23,-42.54 2530.47,-48.11"/>
</g>
<!-- ExecuteUbergraph_ABP_Refinery_Depositor__56 -->
<g id="node6" class="node">
<title>ExecuteUbergraph_ABP_Refinery_Depositor__56</title>
<polygon fill="#eeeeee" stroke="black" points="1653,-1119.5 1653,-1172.5 2247,-1172.5 2247,-1119.5 1653,-1119.5"/>
<text text-anchor="start" x="1661" y="-1157.3" font-family="monospace" font-size="14.00">EX_LetObj</text>
<text text-anchor="start" x="1661" y="-1142.3" font-family="monospace" font-size="14.00">  EX_LocalVariable [CallFunc_GetOwningActor_ReturnValue]</text>
<text text-anchor="start" x="1661" y="-1127.3" font-family="monospace" font-size="14.00">  EX_FinalFunction import /Script/Engine&#45;&gt;AnimInstance&#45;&gt;GetOwningActor</text>
</g>
<!-- ExecuteUbergraph_ABP_Refinery_Depositor__76 -->
<g id="node7" class="node">
<title>ExecuteUbergraph_ABP_Refinery_Depositor__76</title>
<polygon fill="#eeeeee" stroke="black" points="1697.5,-977.5 1697.5,-1045.5 2530.5,-1045.5 2530.5,-977.5 1697.5,-977.5"/>
<text text-anchor="start" x="1705.5" y="-1030.3" font-family="monospace" font-size="14.00">EX_Let</text>
<text text-anchor="start" x="1705.5" y="-1015.3" font-family="monospace" font-size="14.00">  EX_LocalVariable [K2Node_DynamicCast_AsBP_Refinery_Depositor]</text>
<text text-anchor="start" x="1705.5" y="-1000.3" font-family="monospace" font-size="14.00">  EX_DynamicCast import /Game/LevelElements/Refinery/BP_Refinery_Depositor&#45;&gt;BP_Refinery_Depositor_C</text>
<text text-anchor="start" x="1705.5" y="-985.3" font-family="monospace" font-size="14.00">    EX_LocalVariable [CallFunc_GetOwningActor_ReturnValue]</text>
</g>
<!-- ExecuteUbergraph_ABP_Refinery_Depositor__56&#45;&gt;ExecuteUbergraph_ABP_Refinery_Depositor__76 -->
<g id="edge4" class="edge">
<title>ExecuteUbergraph_ABP_Refinery_Depositor__56&#45;&gt;ExecuteUbergraph_ABP_Refinery_Depositor__76</title>
<path fill="none" stroke="black" d="M1981.23,-1119.77C2004.7,-1100.81 2037.3,-1074.47 2064.33,-1052.63"/>
<polygon fill="black" stroke="black" points="2066.5,-1055.38 2072.08,-1046.37 2062.1,-1049.93 2066.5,-1055.38"/>
</g>
<!-- ExecuteUbergraph_ABP_Refinery_Depositor__112 -->
<g id="node8" class="node">
<title>ExecuteUbergraph_ABP_Refinery_Depositor__112</title>
<polygon fill="#eeeeee" stroke="black" points="1907.5,-835.5 1907.5,-903.5 2460.5,-903.5 2460.5,-835.5 1907.5,-835.5"/>
<text text-anchor="start" x="1915.5" y="-888.3" font-family="monospace" font-size="14.00">EX_Let</text>
<text text-anchor="start" x="1915.5" y="-873.3" font-family="monospace" font-size="14.00">  EX_LocalVariable [K2Node_DynamicCast_bSuccess]</text>
<text text-anchor="start" x="1915.5" y="-858.3" font-family="monospace" font-size="14.00">  EX_PrimitiveCast ObjectToBool</text>
<text text-anchor="start" x="1915.5" y="-843.3" font-family="monospace" font-size="14.00">    EX_LocalVariable [K2Node_DynamicCast_AsBP_Refinery_Depositor]</text>
</g>
<!-- ExecuteUbergraph_ABP_Refinery_Depositor__76&#45;&gt;ExecuteUbergraph_ABP_Refinery_Depositor__112 -->
<g id="edge5" class="edge">
<title>ExecuteUbergraph_ABP_Refinery_Depositor__76&#45;&gt;ExecuteUbergraph_ABP_Refinery_Depositor__112</title>
<path fill="none" stroke="black" d="M2130.41,-977.68C2140.02,-958.46 2152.27,-933.97 2162.62,-913.25"/>
<polygon fill="black" stroke="black" points="2165.67,-914.98 2167.01,-904.47 2159.41,-911.85 2165.67,-914.98"/>
</g>
<!-- ExecuteUbergraph_ABP_Refinery_Depositor__141 -->
<g id="node9" class="node">
<title>ExecuteUbergraph_ABP_Refinery_Depositor__141</title>
<polygon fill="#eeeeee" stroke="black" points="2058.5,-706.5 2058.5,-744.5 2471.5,-744.5 2471.5,-706.5 2058.5,-706.5"/>
<text text-anchor="start" x="2066.5" y="-729.3" font-family="monospace" font-size="14.00">EX_JumpIfNot 262</text>
<text text-anchor="start" x="2066.5" y="-714.3" font-family="monospace" font-size="14.00">  EX_LocalVariable [K2Node_DynamicCast_bSuccess]</text>
</g>
<!-- ExecuteUbergraph_ABP_Refinery_Depositor__112&#45;&gt;ExecuteUbergraph_ABP_Refinery_Depositor__141 -->
<g id="edge6" class="edge">
<title>ExecuteUbergraph_ABP_Refinery_Depositor__112&#45;&gt;ExecuteUbergraph_ABP_Refinery_Depositor__141</title>
<path fill="none" stroke="black" d="M2202.79,-835.57C2216.89,-810.84 2235.98,-777.37 2249.28,-754.06"/>
<polygon fill="black" stroke="black" points="2252.28,-755.86 2254.2,-745.44 2246.2,-752.39 2252.28,-755.86"/>
</g>
<!-- ExecuteUbergraph_ABP_Refinery_Depositor__155 -->
<g id="node10" class="node">
<title>ExecuteUbergraph_ABP_Refinery_Depositor__155</title>
<polygon fill="#eeeeee" stroke="black" points="1997,-601.5 1997,-654.5 2533,-654.5 2533,-601.5 1997,-601.5"/>
<text text-anchor="start" x="2005" y="-639.3" font-family="monospace" font-size="14.00">EX_LetObj</text>
<text text-anchor="start" x="2005" y="-624.3" font-family="monospace" font-size="14.00">  EX_InstanceVariable [Depositor]</text>
<text text-anchor="start" x="2005" y="-609.3" font-family="monospace" font-size="14.00">  EX_LocalVariable [K2Node_DynamicCast_AsBP_Refinery_Depositor]</text>
</g>
<!-- ExecuteUbergraph_ABP_Refinery_Depositor__141&#45;&gt;ExecuteUbergraph_ABP_Refinery_Depositor__155 -->
<g id="edge8" class="edge">
<title>ExecuteUbergraph_ABP_Refinery_Depositor__141&#45;&gt;ExecuteUbergraph_ABP_Refinery_Depositor__155</title>
<path fill="none" stroke="black" d="M2265,-706.54C2265,-695.06 2265,-679.75 2265,-665.77"/>
<polygon fill="black" stroke="black" points="2268.5,-665.96 2265,-655.96 2261.5,-665.96 2268.5,-665.96"/>
<text text-anchor="middle" x="2273.5" y="-676.8" font-family="monospace" font-size="14.00">IF</text>
</g>
<!-- ExecuteUbergraph_ABP_Refinery_Depositor__141&#45;&gt;ExecuteUbergraph_ABP_Refinery_Depositor__262 -->
<g id="edge7" class="edge">
<title>ExecuteUbergraph_ABP_Refinery_Depositor__141:e&#45;&gt;ExecuteUbergraph_ABP_Refinery_Depositor__262</title>
<path fill="none" stroke="red" d="M2473,-725.5C2531.04,-725.5 2561,-687.04 2561,-629 2561,-629 2561,-629 2561,-93.5 2561,-79.14 2561,-63.19 2561,-49.87"/>
<polygon fill="none" stroke="red" points="2564.5,-50.01 2561,-40.01 2557.5,-50.01 2564.5,-50.01"/>
<text text-anchor="middle" x="2586" y="-344.8" font-family="monospace" font-size="14.00">IF NOT</text>
</g>
<!-- ExecuteUbergraph_ABP_Refinery_Depositor__174 -->
<g id="node11" class="node">
<title>ExecuteUbergraph_ABP_Refinery_Depositor__174</title>
<polygon fill="#eeeeee" stroke="black" points="2039.5,-510.5 2039.5,-563.5 2526.5,-563.5 2526.5,-510.5 2039.5,-510.5"/>
<text text-anchor="start" x="2047.5" y="-548.3" font-family="monospace" font-size="14.00">EX_BindDelegate OnDepositorOpenChanged</text>
<text text-anchor="start" x="2047.5" y="-533.3" font-family="monospace" font-size="14.00">  EX_LocalVariable [K2Node_CreateDelegate_OutputDelegate]</text>
<text text-anchor="start" x="2047.5" y="-518.3" font-family="monospace" font-size="14.00">  EX_Self</text>
</g>
<!-- ExecuteUbergraph_ABP_Refinery_Depositor__155&#45;&gt;ExecuteUbergraph_ABP_Refinery_Depositor__174 -->
<g id="edge9" class="edge">
<title>ExecuteUbergraph_ABP_Refinery_Depositor__155&#45;&gt;ExecuteUbergraph_ABP_Refinery_Depositor__174</title>
<path fill="none" stroke="black" d="M2270.11,-601.73C2271.82,-593.28 2273.76,-583.68 2275.61,-574.54"/>
<polygon fill="black" stroke="black" points="2279.03,-575.31 2277.58,-564.81 2272.16,-573.92 2279.03,-575.31"/>
</g>
<!-- ExecuteUbergraph_ABP_Refinery_Depositor__197 -->
<g id="node12" class="node">
<title>ExecuteUbergraph_ABP_Refinery_Depositor__197</title>
<polygon fill="#eeeeee" stroke="black" points="2042.5,-374.5 2042.5,-472.5 2529.5,-472.5 2529.5,-374.5 2042.5,-374.5"/>
<text text-anchor="start" x="2050.5" y="-457.3" font-family="monospace" font-size="14.00">EX_AddMulticastDelegate</text>
<text text-anchor="start" x="2050.5" y="-442.3" font-family="monospace" font-size="14.00">  EX_Context</text>
<text text-anchor="start" x="2050.5" y="-427.3" font-family="monospace" font-size="14.00">    EX_InstanceVariable [Depositor]</text>
<text text-anchor="start" x="2050.5" y="-412.3" font-family="monospace" font-size="14.00">    EX_InstanceVariable [OnDepositorOpenChanged]</text>
<text text-anchor="start" x="2050.5" y="-397.3" font-family="monospace" font-size="14.00">    RValue = [OnDepositorOpenChanged]</text>
<text text-anchor="start" x="2050.5" y="-382.3" font-family="monospace" font-size="14.00">  EX_LocalVariable [K2Node_CreateDelegate_OutputDelegate]</text>
</g>
<!-- ExecuteUbergraph_ABP_Refinery_Depositor__174&#45;&gt;ExecuteUbergraph_ABP_Refinery_Depositor__197 -->
<g id="edge10" class="edge">
<title>ExecuteUbergraph_ABP_Refinery_Depositor__174&#45;&gt;ExecuteUbergraph_ABP_Refinery_Depositor__197</title>
<path fill="none" stroke="black" d="M2283.68,-510.7C2283.9,-502.48 2284.16,-492.98 2284.42,-483.37"/>
<polygon fill="black" stroke="black" points="2287.91,-483.69 2284.68,-473.6 2280.91,-483.5 2287.91,-483.69"/>
</g>
<!-- ExecuteUbergraph_ABP_Refinery_Depositor__238 -->
<g id="node13" class="node">
<title>ExecuteUbergraph_ABP_Refinery_Depositor__238</title>
<polygon fill="#eeeeee" stroke="black" points="2250.5,-286.5 2250.5,-322.5 2349.5,-322.5 2349.5,-286.5 2250.5,-286.5"/>
<text text-anchor="start" x="2258.5" y="-300.8" font-family="monospace" font-size="14.00">EX_Jump 10</text>
</g>
<!-- ExecuteUbergraph_ABP_Refinery_Depositor__197&#45;&gt;ExecuteUbergraph_ABP_Refinery_Depositor__238 -->
<g id="edge11" class="edge">
<title>ExecuteUbergraph_ABP_Refinery_Depositor__197&#45;&gt;ExecuteUbergraph_ABP_Refinery_Depositor__238</title>
<path fill="none" stroke="black" d="M2291.73,-374.57C2293.4,-360.66 2295.16,-345.92 2296.63,-333.64"/>
<polygon fill="black" stroke="black" points="2300.1,-334.16 2297.81,-323.82 2293.14,-333.33 2300.1,-334.16"/>
</g>
<!-- ExecuteUbergraph_ABP_Refinery_Depositor__238&#45;&gt;ExecuteUbergraph_ABP_Refinery_Depositor__10 -->
<g id="edge12" class="edge">
<title>ExecuteUbergraph_ABP_Refinery_Depositor__238&#45;&gt;ExecuteUbergraph_ABP_Refinery_Depositor__10</title>
<path fill="none" stroke="black" d="M2309,-286.95C2313.4,-278.85 2318.99,-268.57 2324.77,-257.95"/>
<polygon fill="black" stroke="black" points="2327.67,-259.94 2329.37,-249.48 2321.52,-256.59 2327.67,-259.94"/>
</g>
<!-- ExecuteUbergraph_ABP_Refinery_Depositor__243 -->
<g id="node14" class="node">
<title>ExecuteUbergraph_ABP_Refinery_Depositor__243</title>
<polygon fill="#eeeeee" stroke="black" points="2595,-763.5 2595,-816.5 2991,-816.5 2991,-763.5 2595,-763.5"/>
<text text-anchor="start" x="2603" y="-801.3" font-family="monospace" font-size="14.00">EX_LetBool</text>
<text text-anchor="start" x="2603" y="-786.3" font-family="monospace" font-size="14.00">  EX_InstanceVariable [DepositorOpen]</text>
<text text-anchor="start" x="2603" y="-771.3" font-family="monospace" font-size="14.00">  EX_LocalVariable [K2Node_CustomEvent_InOpen]</text>
</g>
<!-- ExecuteUbergraph_ABP_Refinery_Depositor__243&#45;&gt;ExecuteUbergraph_ABP_Refinery_Depositor__262 -->
<g id="edge13" class="edge">
<title>ExecuteUbergraph_ABP_Refinery_Depositor__243&#45;&gt;ExecuteUbergraph_ABP_Refinery_Depositor__262</title>
<path fill="none" stroke="black" d="M2770.87,-763.53C2755.21,-742.87 2737,-712.22 2737,-681.5 2737,-681.5 2737,-681.5 2737,-93.5 2737,-45.01 2679.3,-28.12 2629.97,-22.53"/>
<polygon fill="black" stroke="black" points="2630.43,-19.06 2620.14,-21.57 2629.75,-26.03 2630.43,-19.06"/>
</g>
<!-- ExecuteUbergraph_ABP_Refinery_Depositor__264 -->
<g id="node16" class="node">
<title>ExecuteUbergraph_ABP_Refinery_Depositor__264</title>
<polygon fill="#eeeeee" stroke="black" points="2831,-1348.5 2831,-1384.5 2963,-1384.5 2963,-1348.5 2831,-1348.5"/>
<text text-anchor="start" x="2839" y="-1362.8" font-family="monospace" font-size="14.00">EX_EndOfScript</text>
</g>
<!-- OnDepositorOpenChanged -->
<g id="node17" class="node">
<title>OnDepositorOpenChanged</title>
<polygon fill="#ff8888" stroke="black" points="2426,-1538.5 2426,-1591.5 2896,-1591.5 2896,-1538.5 2426,-1538.5"/>
<text text-anchor="start" x="2434" y="-1576.3" font-family="monospace" font-size="14.00">Function OnDepositorOpenChanged</text>
<text text-anchor="start" x="2434" y="-1561.3" font-family="monospace" font-size="14.00">  BoolProperty InOpen</text>
<text text-anchor="start" x="2434" y="-1546.3" font-family="monospace" font-size="14.00">    CPF_BlueprintVisible|CPF_BlueprintReadOnly|CPF_Parm</text>
</g>
<!-- OnDepositorOpenChanged__0 -->
<g id="node18" class="node">
<title>OnDepositorOpenChanged__0</title>
<polygon fill="#eeeeee" stroke="black" points="2421.5,-1269 2421.5,-1307 2900.5,-1307 2900.5,-1269 2421.5,-1269"/>
<text text-anchor="start" x="2429.5" y="-1291.8" font-family="monospace" font-size="14.00">EX_LetValueOnPersistentFrame [K2Node_CustomEvent_InOpen]</text>
<text text-anchor="start" x="2429.5" y="-1276.8" font-family="monospace" font-size="14.00">  EX_LocalVariable [InOpen]</text>
</g>
<!-- OnDepositorOpenChanged&#45;&gt;OnDepositorOpenChanged__0 -->
<g id="edge14" class="edge">
<title>OnDepositorOpenChanged&#45;&gt;OnDepositorOpenChanged__0</title>
<path fill="none" stroke="black" d="M2661,-1538.62C2661,-1487.55 2661,-1372.63 2661,-1318.4"/>
<polygon fill="black" stroke="black" points="2664.5,-1318.4 2661,-1308.4 2657.5,-1318.4 2664.5,-1318.4"/>
</g>
<!-- OnDepositorOpenChanged__18 -->
<g id="node19" class="node">
<title>OnDepositorOpenChanged__18</title>
<polygon fill="#eeeeee" stroke="black" points="2265,-1127 2265,-1165 3057,-1165 3057,-1127 2265,-1127"/>
<text text-anchor="start" x="2273" y="-1149.8" font-family="monospace" font-size="14.00">EX_LocalFinalFunction export ABP_Refinery_Depositor_C&#45;&gt;ExecuteUbergraph_ABP_Refinery_Depositor</text>
<text text-anchor="start" x="2273" y="-1134.8" font-family="monospace" font-size="14.00">  EX_IntConst 243</text>
</g>
<!-- OnDepositorOpenChanged__0&#45;&gt;OnDepositorOpenChanged__18 -->
<g id="edge15" class="edge">
<title>OnDepositorOpenChanged__0&#45;&gt;OnDepositorOpenChanged__18</title>
<path fill="none" stroke="black" d="M2661,-1269.27C2661,-1245.81 2661,-1204.16 2661,-1176.06"/>
<polygon fill="black" stroke="black" points="2664.5,-1176.1 2661,-1166.1 2657.5,-1176.1 2664.5,-1176.1"/>
</g>
<!-- OnDepositorOpenChanged__18&#45;&gt;ExecuteUbergraph_ABP_Refinery_Depositor__243 -->
<g id="edge16" class="edge">
<title>OnDepositorOpenChanged__18:e&#45;&gt;ExecuteUbergraph_ABP_Refinery_Depositor__243</title>
<path fill="none" stroke="red" d="M3058,-1146C3066.68,-1146 3062.73,-1133.02 3057,-1126.5 3014.93,-1078.69 2965.28,-1141.34 2916,-1101 2830.59,-1031.08 2804.18,-893.39 2796.26,-827.64"/>
<polygon fill="none" stroke="red" points="2799.74,-827.28 2795.15,-817.73 2792.78,-828.06 2799.74,-827.28"/>
</g>
<!-- OnDepositorOpenChanged__33 -->
<g id="node20" class="node">
<title>OnDepositorOpenChanged__33</title>
<polygon fill="#eeeeee" stroke="black" points="2603,-992.5 2603,-1030.5 2719,-1030.5 2719,-992.5 2603,-992.5"/>
<text text-anchor="start" x="2611" y="-1015.3" font-family="monospace" font-size="14.00">EX_Return</text>
<text text-anchor="start" x="2611" y="-1000.3" font-family="monospace" font-size="14.00">  EX_Nothing</text>
</g>
<!-- OnDepositorOpenChanged__18&#45;&gt;OnDepositorOpenChanged__33 -->
<g id="edge17" class="edge">
<title>OnDepositorOpenChanged__18&#45;&gt;OnDepositorOpenChanged__33</title>
<path fill="none" stroke="black" d="M2661,-1127.13C2661,-1105.18 2661,-1067.64 2661,-1041.53"/>
<polygon fill="black" stroke="black" points="2664.5,-1041.6 2661,-1031.6 2657.5,-1041.6 2664.5,-1041.6"/>
</g>
<!-- OnDepositorOpenChanged__35 -->
<g id="node21" class="node">
<title>OnDepositorOpenChanged__35</title>
<polygon fill="#eeeeee" stroke="black" points="2831,-1191.5 2831,-1227.5 2963,-1227.5 2963,-1191.5 2831,-1191.5"/>
<text text-anchor="start" x="2839" y="-1205.8" font-family="monospace" font-size="14.00">EX_EndOfScript</text>
</g>
<!-- BlueprintBeginPlay -->
<g id="node22" class="node">
<title>BlueprintBeginPlay</title>
<polygon fill="#ff8888" stroke="black" points="1434.5,-1547 1434.5,-1583 1673.5,-1583 1673.5,-1547 1434.5,-1547"/>
<text text-anchor="start" x="1442.5" y="-1561.3" font-family="monospace" font-size="14.00">Function BlueprintBeginPlay</text>
</g>
<!-- BlueprintBeginPlay__0 -->
<g id="node23" class="node">
<title>BlueprintBeginPlay__0</title>
<polygon fill="#eeeeee" stroke="black" points="1158,-1269 1158,-1307 1950,-1307 1950,-1269 1158,-1269"/>
<text text-anchor="start" x="1166" y="-1291.8" font-family="monospace" font-size="14.00">EX_LocalFinalFunction export ABP_Refinery_Depositor_C&#45;&gt;ExecuteUbergraph_ABP_Refinery_Depositor</text>
<text text-anchor="start" x="1166" y="-1276.8" font-family="monospace" font-size="14.00">  EX_IntConst 56</text>
</g>
<!-- BlueprintBeginPlay&#45;&gt;BlueprintBeginPlay__0 -->
<g id="edge18" class="edge">
<title>BlueprintBeginPlay&#45;&gt;BlueprintBeginPlay__0</title>
<path fill="none" stroke="black" d="M1554,-1547.21C1554,-1501.7 1554,-1375.56 1554,-1318.14"/>
<polygon fill="black" stroke="black" points="1557.5,-1318.5 1554,-1308.5 1550.5,-1318.5 1557.5,-1318.5"/>
</g>
<!-- BlueprintBeginPlay__0&#45;&gt;ExecuteUbergraph_ABP_Refinery_Depositor__56 -->
<g id="edge19" class="edge">
<title>BlueprintBeginPlay__0:e&#45;&gt;ExecuteUbergraph_ABP_Refinery_Depositor__56</title>
<path fill="none" stroke="red" d="M1951,-1288C1993.02,-1288 1978.24,-1224.6 1963.94,-1182.83"/>
<polygon fill="none" stroke="red" points="1967.32,-1181.88 1960.66,-1173.63 1960.72,-1184.23 1967.32,-1181.88"/>
</g>
<!-- BlueprintBeginPlay__15 -->
<g id="node24" class="node">
<title>BlueprintBeginPlay__15</title>
<polygon fill="#eeeeee" stroke="black" points="1496,-1127 1496,-1165 1612,-1165 1612,-1127 1496,-1127"/>
<text text-anchor="start" x="1504" y="-1149.8" font-family="monospace" font-size="14.00">EX_Return</text>
<text text-anchor="start" x="1504" y="-1134.8" font-family="monospace" font-size="14.00">  EX_Nothing</text>
</g>
<!-- BlueprintBeginPlay__0&#45;&gt;BlueprintBeginPlay__15 -->
<g id="edge20" class="edge">
<title>BlueprintBeginPlay__0&#45;&gt;BlueprintBeginPlay__15</title>
<path fill="none" stroke="black" d="M1554,-1269.27C1554,-1245.81 1554,-1204.16 1554,-1176.06"/>
<polygon fill="black" stroke="black" points="1557.5,-1176.1 1554,-1166.1 1550.5,-1176.1 1557.5,-1176.1"/>
</g>
<!-- BlueprintBeginPlay__17 -->
<g id="node25" class="node">
<title>BlueprintBeginPlay__17</title>
<polygon fill="#eeeeee" stroke="black" points="2917,-1064.5 2917,-1100.5 3049,-1100.5 3049,-1064.5 2917,-1064.5"/>
<text text-anchor="start" x="2925" y="-1078.8" font-family="monospace" font-size="14.00">EX_EndOfScript</text>
</g>
<!-- AnimGraph -->
<g id="node26" class="node">
<title>AnimGraph</title>
<polygon fill="#ff8888" stroke="black" points="3017.5,-1538.5 3017.5,-1591.5 3248.5,-1591.5 3248.5,-1538.5 3017.5,-1538.5"/>
<text text-anchor="start" x="3025.5" y="-1576.3" font-family="monospace" font-size="14.00">Function AnimGraph</text>
<text text-anchor="start" x="3025.5" y="-1561.3" font-family="monospace" font-size="14.00">  StructProperty AnimGraph</text>
<text text-anchor="start" x="3025.5" y="-1546.3" font-family="monospace" font-size="14.00">    CPF_Parm|CPF_OutParm</text>
</g>
<!-- AnimGraph__0 -->
<g id="node27" class="node">
<title>AnimGraph__0</title>
<polygon fill="#eeeeee" stroke="black" points="2926.5,-1246.5 2926.5,-1329.5 3339.5,-1329.5 3339.5,-1246.5 2926.5,-1246.5"/>
<text text-anchor="start" x="2934.5" y="-1314.3" font-family="monospace" font-size="14.00">EX_Let</text>
<text text-anchor="start" x="2934.5" y="-1299.3" font-family="monospace" font-size="14.00">  EX_LocalOutVariable</text>
<text text-anchor="start" x="2934.5" y="-1284.3" font-family="monospace" font-size="14.00">    [AnimGraph]</text>
<text text-anchor="start" x="2934.5" y="-1269.3" font-family="monospace" font-size="14.00">  EX_StructConst import /Script/Engine&#45;&gt;PoseLink</text>
<text text-anchor="start" x="2934.5" y="-1254.3" font-family="monospace" font-size="14.00">    EX_IntConst &#45;1</text>
</g>
<!-- AnimGraph&#45;&gt;AnimGraph__0 -->
<g id="edge21" class="edge">
<title>AnimGraph&#45;&gt;AnimGraph__0</title>
<path fill="none" stroke="black" d="M3133,-1538.62C3133,-1493.75 3133,-1399.57 3133,-1340.58"/>
<polygon fill="black" stroke="black" points="3136.5,-1340.8 3133,-1330.8 3129.5,-1340.8 3136.5,-1340.8"/>
</g>
<!-- AnimGraph__37 -->
<g id="node28" class="node">
<title>AnimGraph__37</title>
<polygon fill="#eeeeee" stroke="black" points="3075,-1127 3075,-1165 3191,-1165 3191,-1127 3075,-1127"/>
<text text-anchor="start" x="3083" y="-1149.8" font-family="monospace" font-size="14.00">EX_Return</text>
<text text-anchor="start" x="3083" y="-1134.8" font-family="monospace" font-size="14.00">  EX_Nothing</text>
</g>
<!-- AnimGraph__0&#45;&gt;AnimGraph__37 -->
<g id="edge22" class="edge">
<title>AnimGraph__0&#45;&gt;AnimGraph__37</title>
<path fill="none" stroke="black" d="M3133,-1246.51C3133,-1224.06 3133,-1196.67 3133,-1176.31"/>
<polygon fill="black" stroke="black" points="3136.5,-1176.45 3133,-1166.45 3129.5,-1176.45 3136.5,-1176.45"/>
</g>
<!-- AnimGraph__39 -->
<g id="node29" class="node">
<title>AnimGraph__39</title>
<polygon fill="#eeeeee" stroke="black" points="2917,-922.5 2917,-958.5 3049,-958.5 3049,-922.5 2917,-922.5"/>
<text text-anchor="start" x="2925" y="-936.8" font-family="monospace" font-size="14.00">EX_EndOfScript</text>
</g>
</g>
</svg>
