<?xml version="1.0" encoding="UTF-8" standalone="no"?>
<!DOCTYPE svg PUBLIC "-//W3C//DTD SVG 1.1//EN"
 "http://www.w3.org/Graphics/SVG/1.1/DTD/svg11.dtd">
<!-- Generated by graphviz version 7.0.1 (0)
 -->
<!-- Pages: 1 -->
<svg width="3053pt" height="2974pt"
 viewBox="0.00 0.00 3053.00 2974.00" xmlns="http://www.w3.org/2000/svg" xmlns:xlink="http://www.w3.org/1999/xlink">
<g id="graph0" class="graph" transform="scale(1 1) rotate(0) translate(4 2970)">
<polygon fill="white" stroke="none" points="-4,4 -4,-2970 3049,-2970 3049,4 -4,4"/>
<!-- ITM_Craft_ResourceBig_C -->
<g id="node1" class="node">
<title>ITM_Craft_ResourceBig_C</title>
<polygon fill="#88ff88" stroke="black" points="0,-2732.5 0,-2965.5 850,-2965.5 850,-2732.5 0,-2732.5"/>
<text text-anchor="start" x="8" y="-2950.3" font-family="monospace" font-size="14.00">ClassExport: ITM_Craft_ResourceBig_C</text>
<text text-anchor="start" x="8" y="-2935.3" font-family="monospace" font-size="14.00">  SuperStruct: import /Script/UMG&#45;&gt;UserWidget</text>
<text text-anchor="start" x="8" y="-2920.3" font-family="monospace" font-size="14.00">  Properties:</text>
<text text-anchor="start" x="8" y="-2905.3" font-family="monospace" font-size="14.00">    StructProperty UberGraphFrame</text>
<text text-anchor="start" x="8" y="-2890.3" font-family="monospace" font-size="14.00">      CPF_Transient|CPF_DuplicateTransient</text>
<text text-anchor="start" x="8" y="-2875.3" font-family="monospace" font-size="14.00">    ObjectProperty Basic_ResourceIcon</text>
<text text-anchor="start" x="8" y="-2860.3" font-family="monospace" font-size="14.00">      CPF_BlueprintVisible|CPF_ExportObject|CPF_InstancedReference|CPF_RepSkip|CPF_PersistentInstance</text>
<text text-anchor="start" x="8" y="-2845.3" font-family="monospace" font-size="14.00">    ObjectProperty DATAAmount</text>
<text text-anchor="start" x="8" y="-2830.3" font-family="monospace" font-size="14.00">      CPF_BlueprintVisible|CPF_ExportObject|CPF_InstancedReference|CPF_RepSkip|CPF_PersistentInstance</text>
<text text-anchor="start" x="8" y="-2815.3" font-family="monospace" font-size="14.00">    ObjectProperty DATAName</text>
<text text-anchor="start" x="8" y="-2800.3" font-family="monospace" font-size="14.00">      CPF_BlueprintVisible|CPF_ExportObject|CPF_InstancedReference|CPF_RepSkip|CPF_PersistentInstance</text>
<text text-anchor="start" x="8" y="-2785.3" font-family="monospace" font-size="14.00">    ObjectProperty Resource</text>
<text text-anchor="start" x="8" y="-2770.3" font-family="monospace" font-size="14.00">      CPF_Edit|CPF_BlueprintVisible|CPF_ExposeOnSpawn</text>
<text text-anchor="start" x="8" y="-2755.3" font-family="monospace" font-size="14.00">    FloatProperty Amount</text>
<text text-anchor="start" x="8" y="-2740.3" font-family="monospace" font-size="14.00">      CPF_Edit|CPF_BlueprintVisible|CPF_ExposeOnSpawn</text>
</g>
<!-- ExecuteUbergraph_ITM_Craft_ResourceBig -->
<g id="node2" class="node">
<title>ExecuteUbergraph_ITM_Craft_ResourceBig</title>
<polygon fill="#ff8888" stroke="black" points="868.5,-2740 868.5,-2958 1371.5,-2958 1371.5,-2740 868.5,-2740"/>
<text text-anchor="start" x="876.5" y="-2942.8" font-family="monospace" font-size="14.00">Function ExecuteUbergraph_ITM_Craft_ResourceBig</text>
<text text-anchor="start" x="876.5" y="-2927.8" font-family="monospace" font-size="14.00">  IntProperty EntryPoint</text>
<text text-anchor="start" x="876.5" y="-2912.8" font-family="monospace" font-size="14.00">    CPF_BlueprintVisible|CPF_BlueprintReadOnly|CPF_Parm</text>
<text text-anchor="start" x="876.5" y="-2897.8" font-family="monospace" font-size="14.00">  BoolProperty K2Node_Event_IsDesignTime</text>
<text text-anchor="start" x="876.5" y="-2882.8" font-family="monospace" font-size="14.00">  BoolProperty Temp_bool_Variable</text>
<text text-anchor="start" x="876.5" y="-2867.8" font-family="monospace" font-size="14.00">  BoolProperty CallFunc_IsValid_ReturnValue</text>
<text text-anchor="start" x="876.5" y="-2852.8" font-family="monospace" font-size="14.00">  FloatProperty CallFunc_GetOwnedAmount_ReturnValue</text>
<text text-anchor="start" x="876.5" y="-2837.8" font-family="monospace" font-size="14.00">  TextProperty CallFunc_TextToUpper_ReturnValue</text>
<text text-anchor="start" x="876.5" y="-2822.8" font-family="monospace" font-size="14.00">  StructProperty CallFunc_MenuColors_OutputColor</text>
<text text-anchor="start" x="876.5" y="-2807.8" font-family="monospace" font-size="14.00">  BoolProperty CallFunc_GreaterEqual_FloatFloat_ReturnValue</text>
<text text-anchor="start" x="876.5" y="-2792.8" font-family="monospace" font-size="14.00">  TextProperty CallFunc_Conv_FloatToText_ReturnValue</text>
<text text-anchor="start" x="876.5" y="-2777.8" font-family="monospace" font-size="14.00">  StructProperty CallFunc_MenuColors_OutputColor_1</text>
<text text-anchor="start" x="876.5" y="-2762.8" font-family="monospace" font-size="14.00">  StructProperty K2Node_Select_Default</text>
<text text-anchor="start" x="876.5" y="-2747.8" font-family="monospace" font-size="14.00">  StructProperty K2Node_MakeStruct_SlateColor</text>
</g>
<!-- ExecuteUbergraph_ITM_Craft_ResourceBig__0 -->
<g id="node3" class="node">
<title>ExecuteUbergraph_ITM_Craft_ResourceBig__0</title>
<polygon fill="#eeeeee" stroke="black" points="984,-2620.5 984,-2658.5 1256,-2658.5 1256,-2620.5 984,-2620.5"/>
<text text-anchor="start" x="992" y="-2643.3" font-family="monospace" font-size="14.00">EX_ComputedJump</text>
<text text-anchor="start" x="992" y="-2628.3" font-family="monospace" font-size="14.00">  EX_LocalVariable [EntryPoint]</text>
</g>
<!-- ExecuteUbergraph_ITM_Craft_ResourceBig&#45;&gt;ExecuteUbergraph_ITM_Craft_ResourceBig__0 -->
<g id="edge1" class="edge">
<title>ExecuteUbergraph_ITM_Craft_ResourceBig&#45;&gt;ExecuteUbergraph_ITM_Craft_ResourceBig__0</title>
<path fill="none" stroke="black" d="M1120,-2740.3C1120,-2714.23 1120,-2688.5 1120,-2669.69"/>
<polygon fill="black" stroke="black" points="1123.5,-2669.92 1120,-2659.92 1116.5,-2669.92 1123.5,-2669.92"/>
</g>
<!-- ExecuteUbergraph_ITM_Craft_ResourceBig__10 -->
<g id="node4" class="node">
<title>ExecuteUbergraph_ITM_Craft_ResourceBig__10</title>
<polygon fill="#eeeeee" stroke="black" points="2599,-2396.5 2599,-2434.5 2995,-2434.5 2995,-2396.5 2599,-2396.5"/>
<text text-anchor="start" x="2607" y="-2419.3" font-family="monospace" font-size="14.00">EX_JumpIfNot 735</text>
<text text-anchor="start" x="2607" y="-2404.3" font-family="monospace" font-size="14.00">  EX_LocalVariable [K2Node_Event_IsDesignTime]</text>
</g>
<!-- ExecuteUbergraph_ITM_Craft_ResourceBig__24 -->
<g id="node5" class="node">
<title>ExecuteUbergraph_ITM_Craft_ResourceBig__24</title>
<polygon fill="#eeeeee" stroke="black" points="2407.5,-2276.5 2407.5,-2344.5 2960.5,-2344.5 2960.5,-2276.5 2407.5,-2276.5"/>
<text text-anchor="start" x="2415.5" y="-2329.3" font-family="monospace" font-size="14.00">EX_LetBool</text>
<text text-anchor="start" x="2415.5" y="-2314.3" font-family="monospace" font-size="14.00">  EX_LocalVariable [CallFunc_IsValid_ReturnValue]</text>
<text text-anchor="start" x="2415.5" y="-2299.3" font-family="monospace" font-size="14.00">  EX_CallMath import /Script/Engine&#45;&gt;KismetSystemLibrary&#45;&gt;IsValid</text>
<text text-anchor="start" x="2415.5" y="-2284.3" font-family="monospace" font-size="14.00">    EX_InstanceVariable [Resource]</text>
</g>
<!-- ExecuteUbergraph_ITM_Craft_ResourceBig__10&#45;&gt;ExecuteUbergraph_ITM_Craft_ResourceBig__24 -->
<g id="edge3" class="edge">
<title>ExecuteUbergraph_ITM_Craft_ResourceBig__10&#45;&gt;ExecuteUbergraph_ITM_Craft_ResourceBig__24</title>
<path fill="none" stroke="black" d="M2777.32,-2396.56C2763.73,-2384.18 2745.12,-2367.21 2728.08,-2351.68"/>
<polygon fill="black" stroke="black" points="2730.75,-2349.37 2721,-2345.22 2726.03,-2354.55 2730.75,-2349.37"/>
<text text-anchor="middle" x="2762.5" y="-2366.8" font-family="monospace" font-size="14.00">IF</text>
</g>
<!-- ExecuteUbergraph_ITM_Craft_ResourceBig__735 -->
<g id="node22" class="node">
<title>ExecuteUbergraph_ITM_Craft_ResourceBig__735</title>
<polygon fill="#eeeeee" stroke="black" points="2872,-0.5 2872,-38.5 2988,-38.5 2988,-0.5 2872,-0.5"/>
<text text-anchor="start" x="2880" y="-23.3" font-family="monospace" font-size="14.00">EX_Return</text>
<text text-anchor="start" x="2880" y="-8.3" font-family="monospace" font-size="14.00">  EX_Nothing</text>
</g>
<!-- ExecuteUbergraph_ITM_Craft_ResourceBig__10&#45;&gt;ExecuteUbergraph_ITM_Craft_ResourceBig__735 -->
<g id="edge2" class="edge">
<title>ExecuteUbergraph_ITM_Craft_ResourceBig__10:e&#45;&gt;ExecuteUbergraph_ITM_Craft_ResourceBig__735</title>
<path fill="none" stroke="red" d="M2996,-2415.5C3042.22,-2415.5 2995,-2357.72 2995,-2311.5 2995,-2311.5 2995,-2311.5 2995,-93.5 2995,-74.39 2982.42,-57.96 2968.33,-45.56"/>
<polygon fill="none" stroke="red" points="2970.61,-42.9 2960.63,-39.32 2966.2,-48.34 2970.61,-42.9"/>
<text text-anchor="middle" x="3020" y="-1310.8" font-family="monospace" font-size="14.00">IF NOT</text>
</g>
<!-- ExecuteUbergraph_ITM_Craft_ResourceBig__53 -->
<g id="node6" class="node">
<title>ExecuteUbergraph_ITM_Craft_ResourceBig__53</title>
<polygon fill="#eeeeee" stroke="black" points="2473.5,-2200.5 2473.5,-2238.5 2894.5,-2238.5 2894.5,-2200.5 2473.5,-2200.5"/>
<text text-anchor="start" x="2481.5" y="-2223.3" font-family="monospace" font-size="14.00">EX_JumpIfNot 735</text>
<text text-anchor="start" x="2481.5" y="-2208.3" font-family="monospace" font-size="14.00">  EX_LocalVariable [CallFunc_IsValid_ReturnValue]</text>
</g>
<!-- ExecuteUbergraph_ITM_Craft_ResourceBig__24&#45;&gt;ExecuteUbergraph_ITM_Craft_ResourceBig__53 -->
<g id="edge4" class="edge">
<title>ExecuteUbergraph_ITM_Craft_ResourceBig__24&#45;&gt;ExecuteUbergraph_ITM_Craft_ResourceBig__53</title>
<path fill="none" stroke="black" d="M2684,-2276.61C2684,-2267.79 2684,-2258.32 2684,-2249.72"/>
<polygon fill="black" stroke="black" points="2687.5,-2249.8 2684,-2239.8 2680.5,-2249.8 2687.5,-2249.8"/>
</g>
<!-- ExecuteUbergraph_ITM_Craft_ResourceBig__67 -->
<g id="node7" class="node">
<title>ExecuteUbergraph_ITM_Craft_ResourceBig__67</title>
<polygon fill="#eeeeee" stroke="black" points="2288.5,-1975.5 2288.5,-2148.5 2899.5,-2148.5 2899.5,-1975.5 2288.5,-1975.5"/>
<text text-anchor="start" x="2296.5" y="-2133.3" font-family="monospace" font-size="14.00">EX_Let</text>
<text text-anchor="start" x="2296.5" y="-2118.3" font-family="monospace" font-size="14.00">  EX_LocalVariable [CallFunc_Conv_FloatToText_ReturnValue]</text>
<text text-anchor="start" x="2296.5" y="-2103.3" font-family="monospace" font-size="14.00">  EX_CallMath import /Script/Engine&#45;&gt;KismetTextLibrary&#45;&gt;Conv_FloatToText</text>
<text text-anchor="start" x="2296.5" y="-2088.3" font-family="monospace" font-size="14.00">    EX_InstanceVariable [Amount]</text>
<text text-anchor="start" x="2296.5" y="-2073.3" font-family="monospace" font-size="14.00">    EX_ByteConst 5</text>
<text text-anchor="start" x="2296.5" y="-2058.3" font-family="monospace" font-size="14.00">    EX_False</text>
<text text-anchor="start" x="2296.5" y="-2043.3" font-family="monospace" font-size="14.00">    EX_False</text>
<text text-anchor="start" x="2296.5" y="-2028.3" font-family="monospace" font-size="14.00">    EX_IntConst 1</text>
<text text-anchor="start" x="2296.5" y="-2013.3" font-family="monospace" font-size="14.00">    EX_IntConst 324</text>
<text text-anchor="start" x="2296.5" y="-1998.3" font-family="monospace" font-size="14.00">    EX_IntConst 0</text>
<text text-anchor="start" x="2296.5" y="-1983.3" font-family="monospace" font-size="14.00">    EX_IntConst 3</text>
</g>
<!-- ExecuteUbergraph_ITM_Craft_ResourceBig__53&#45;&gt;ExecuteUbergraph_ITM_Craft_ResourceBig__67 -->
<g id="edge6" class="edge">
<title>ExecuteUbergraph_ITM_Craft_ResourceBig__53&#45;&gt;ExecuteUbergraph_ITM_Craft_ResourceBig__67</title>
<path fill="none" stroke="black" d="M2673.68,-2200.66C2667.27,-2189.59 2658.48,-2174.41 2649.08,-2158.16"/>
<polygon fill="black" stroke="black" points="2652.28,-2156.7 2644.24,-2149.8 2646.22,-2160.21 2652.28,-2156.7"/>
<text text-anchor="middle" x="2671.5" y="-2170.8" font-family="monospace" font-size="14.00">IF</text>
</g>
<!-- ExecuteUbergraph_ITM_Craft_ResourceBig__53&#45;&gt;ExecuteUbergraph_ITM_Craft_ResourceBig__735 -->
<g id="edge5" class="edge">
<title>ExecuteUbergraph_ITM_Craft_ResourceBig__53:e&#45;&gt;ExecuteUbergraph_ITM_Craft_ResourceBig__735</title>
<path fill="none" stroke="red" d="M2896,-2219.5C2967.18,-2219.5 2930,-2134.18 2930,-2063 2930,-2063 2930,-2063 2930,-93.5 2930,-79.14 2930,-63.19 2930,-49.87"/>
<polygon fill="none" stroke="red" points="2933.5,-50.01 2930,-40.01 2926.5,-50.01 2933.5,-50.01"/>
<text text-anchor="middle" x="2955" y="-1145.8" font-family="monospace" font-size="14.00">IF NOT</text>
</g>
<!-- ExecuteUbergraph_ITM_Craft_ResourceBig__128 -->
<g id="node8" class="node">
<title>ExecuteUbergraph_ITM_Craft_ResourceBig__128</title>
<polygon fill="#eeeeee" stroke="black" points="2299,-1854.5 2299,-1937.5 2811,-1937.5 2811,-1854.5 2299,-1854.5"/>
<text text-anchor="start" x="2307" y="-1922.3" font-family="monospace" font-size="14.00">EX_Context</text>
<text text-anchor="start" x="2307" y="-1907.3" font-family="monospace" font-size="14.00">  EX_InstanceVariable [DATAAmount]</text>
<text text-anchor="start" x="2307" y="-1892.3" font-family="monospace" font-size="14.00">  EX_VirtualFunction SetText</text>
<text text-anchor="start" x="2307" y="-1877.3" font-family="monospace" font-size="14.00">    EX_LocalVariable [CallFunc_Conv_FloatToText_ReturnValue]</text>
<text text-anchor="start" x="2307" y="-1862.3" font-family="monospace" font-size="14.00">  RValue = []</text>
</g>
<!-- ExecuteUbergraph_ITM_Craft_ResourceBig__67&#45;&gt;ExecuteUbergraph_ITM_Craft_ResourceBig__128 -->
<g id="edge7" class="edge">
<title>ExecuteUbergraph_ITM_Craft_ResourceBig__67&#45;&gt;ExecuteUbergraph_ITM_Craft_ResourceBig__128</title>
<path fill="none" stroke="black" d="M2573.7,-1975.64C2571.49,-1966.33 2569.29,-1957.08 2567.22,-1948.37"/>
<polygon fill="black" stroke="black" points="2570.64,-1947.66 2564.93,-1938.74 2563.83,-1949.28 2570.64,-1947.66"/>
</g>
<!-- ExecuteUbergraph_ITM_Craft_ResourceBig__173 -->
<g id="node9" class="node">
<title>ExecuteUbergraph_ITM_Craft_ResourceBig__173</title>
<polygon fill="#eeeeee" stroke="black" points="2296.5,-1703.5 2296.5,-1816.5 2775.5,-1816.5 2775.5,-1703.5 2296.5,-1703.5"/>
<text text-anchor="start" x="2304.5" y="-1801.3" font-family="monospace" font-size="14.00">EX_Let</text>
<text text-anchor="start" x="2304.5" y="-1786.3" font-family="monospace" font-size="14.00">  EX_LocalVariable [CallFunc_GetOwnedAmount_ReturnValue]</text>
<text text-anchor="start" x="2304.5" y="-1771.3" font-family="monospace" font-size="14.00">  EX_Context</text>
<text text-anchor="start" x="2304.5" y="-1756.3" font-family="monospace" font-size="14.00">    EX_InstanceVariable [Resource]</text>
<text text-anchor="start" x="2304.5" y="-1741.3" font-family="monospace" font-size="14.00">    EX_VirtualFunction GetOwnedAmount</text>
<text text-anchor="start" x="2304.5" y="-1726.3" font-family="monospace" font-size="14.00">      EX_Self</text>
<text text-anchor="start" x="2304.5" y="-1711.3" font-family="monospace" font-size="14.00">    RValue = [CallFunc_GetOwnedAmount_ReturnValue]</text>
</g>
<!-- ExecuteUbergraph_ITM_Craft_ResourceBig__128&#45;&gt;ExecuteUbergraph_ITM_Craft_ResourceBig__173 -->
<g id="edge8" class="edge">
<title>ExecuteUbergraph_ITM_Craft_ResourceBig__128&#45;&gt;ExecuteUbergraph_ITM_Craft_ResourceBig__173</title>
<path fill="none" stroke="black" d="M2549.3,-1854.8C2548.07,-1846.14 2546.74,-1836.76 2545.42,-1827.4"/>
<polygon fill="black" stroke="black" points="2548.89,-1826.95 2544.02,-1817.54 2541.96,-1827.93 2548.89,-1826.95"/>
</g>
<!-- ExecuteUbergraph_ITM_Craft_ResourceBig__228 -->
<g id="node10" class="node">
<title>ExecuteUbergraph_ITM_Craft_ResourceBig__228</title>
<polygon fill="#eeeeee" stroke="black" points="2142.5,-1552.5 2142.5,-1665.5 2901.5,-1665.5 2901.5,-1552.5 2142.5,-1552.5"/>
<text text-anchor="start" x="2150.5" y="-1650.3" font-family="monospace" font-size="14.00">EX_Context</text>
<text text-anchor="start" x="2150.5" y="-1635.3" font-family="monospace" font-size="14.00">  EX_ObjectConst import /Game/UI/Art/WidgetParts/LIB_MenuColors&#45;&gt;Default__LIB_MenuColors_C</text>
<text text-anchor="start" x="2150.5" y="-1620.3" font-family="monospace" font-size="14.00">  EX_LocalVirtualFunction MenuColors</text>
<text text-anchor="start" x="2150.5" y="-1605.3" font-family="monospace" font-size="14.00">    EX_ByteConst 12</text>
<text text-anchor="start" x="2150.5" y="-1590.3" font-family="monospace" font-size="14.00">    EX_Self</text>
<text text-anchor="start" x="2150.5" y="-1575.3" font-family="monospace" font-size="14.00">    EX_LocalVariable [CallFunc_MenuColors_OutputColor]</text>
<text text-anchor="start" x="2150.5" y="-1560.3" font-family="monospace" font-size="14.00">  RValue = []</text>
</g>
<!-- ExecuteUbergraph_ITM_Craft_ResourceBig__173&#45;&gt;ExecuteUbergraph_ITM_Craft_ResourceBig__228 -->
<g id="edge9" class="edge">
<title>ExecuteUbergraph_ITM_Craft_ResourceBig__173&#45;&gt;ExecuteUbergraph_ITM_Craft_ResourceBig__228</title>
<path fill="none" stroke="black" d="M2530.79,-1703.52C2529.96,-1694.68 2529.09,-1685.45 2528.24,-1676.39"/>
<polygon fill="black" stroke="black" points="2531.73,-1676.17 2527.31,-1666.54 2524.76,-1676.82 2531.73,-1676.17"/>
</g>
<!-- ExecuteUbergraph_ITM_Craft_ResourceBig__276 -->
<g id="node11" class="node">
<title>ExecuteUbergraph_ITM_Craft_ResourceBig__276</title>
<polygon fill="#eeeeee" stroke="black" points="2188,-1431.5 2188,-1514.5 2856,-1514.5 2856,-1431.5 2188,-1431.5"/>
<text text-anchor="start" x="2196" y="-1499.3" font-family="monospace" font-size="14.00">EX_LetBool</text>
<text text-anchor="start" x="2196" y="-1484.3" font-family="monospace" font-size="14.00">  EX_LocalVariable [CallFunc_GreaterEqual_FloatFloat_ReturnValue]</text>
<text text-anchor="start" x="2196" y="-1469.3" font-family="monospace" font-size="14.00">  EX_CallMath import /Script/Engine&#45;&gt;KismetMathLibrary&#45;&gt;GreaterEqual_FloatFloat</text>
<text text-anchor="start" x="2196" y="-1454.3" font-family="monospace" font-size="14.00">    EX_LocalVariable [CallFunc_GetOwnedAmount_ReturnValue]</text>
<text text-anchor="start" x="2196" y="-1439.3" font-family="monospace" font-size="14.00">    EX_InstanceVariable [Amount]</text>
</g>
<!-- ExecuteUbergraph_ITM_Craft_ResourceBig__228&#45;&gt;ExecuteUbergraph_ITM_Craft_ResourceBig__276 -->
<g id="edge10" class="edge">
<title>ExecuteUbergraph_ITM_Craft_ResourceBig__228&#45;&gt;ExecuteUbergraph_ITM_Craft_ResourceBig__276</title>
<path fill="none" stroke="black" d="M2522,-1552.72C2522,-1543.8 2522,-1534.59 2522,-1525.76"/>
<polygon fill="black" stroke="black" points="2525.5,-1525.93 2522,-1515.93 2518.5,-1525.93 2525.5,-1525.93"/>
</g>
<!-- ExecuteUbergraph_ITM_Craft_ResourceBig__314 -->
<g id="node12" class="node">
<title>ExecuteUbergraph_ITM_Craft_ResourceBig__314</title>
<polygon fill="#eeeeee" stroke="black" points="2245.5,-1340.5 2245.5,-1393.5 2798.5,-1393.5 2798.5,-1340.5 2245.5,-1340.5"/>
<text text-anchor="start" x="2253.5" y="-1378.3" font-family="monospace" font-size="14.00">EX_LetBool</text>
<text text-anchor="start" x="2253.5" y="-1363.3" font-family="monospace" font-size="14.00">  EX_LocalVariable [Temp_bool_Variable]</text>
<text text-anchor="start" x="2253.5" y="-1348.3" font-family="monospace" font-size="14.00">  EX_LocalVariable [CallFunc_GreaterEqual_FloatFloat_ReturnValue]</text>
</g>
<!-- ExecuteUbergraph_ITM_Craft_ResourceBig__276&#45;&gt;ExecuteUbergraph_ITM_Craft_ResourceBig__314 -->
<g id="edge11" class="edge">
<title>ExecuteUbergraph_ITM_Craft_ResourceBig__276&#45;&gt;ExecuteUbergraph_ITM_Craft_ResourceBig__314</title>
<path fill="none" stroke="black" d="M2522,-1431.79C2522,-1422.91 2522,-1413.54 2522,-1404.81"/>
<polygon fill="black" stroke="black" points="2525.5,-1404.9 2522,-1394.9 2518.5,-1404.9 2525.5,-1404.9"/>
</g>
<!-- ExecuteUbergraph_ITM_Craft_ResourceBig__333 -->
<g id="node13" class="node">
<title>ExecuteUbergraph_ITM_Craft_ResourceBig__333</title>
<polygon fill="#eeeeee" stroke="black" points="2142.5,-1175.5 2142.5,-1288.5 2901.5,-1288.5 2901.5,-1175.5 2142.5,-1175.5"/>
<text text-anchor="start" x="2150.5" y="-1273.3" font-family="monospace" font-size="14.00">EX_Context</text>
<text text-anchor="start" x="2150.5" y="-1258.3" font-family="monospace" font-size="14.00">  EX_ObjectConst import /Game/UI/Art/WidgetParts/LIB_MenuColors&#45;&gt;Default__LIB_MenuColors_C</text>
<text text-anchor="start" x="2150.5" y="-1243.3" font-family="monospace" font-size="14.00">  EX_LocalVirtualFunction MenuColors</text>
<text text-anchor="start" x="2150.5" y="-1228.3" font-family="monospace" font-size="14.00">    EX_ByteConst 8</text>
<text text-anchor="start" x="2150.5" y="-1213.3" font-family="monospace" font-size="14.00">    EX_Self</text>
<text text-anchor="start" x="2150.5" y="-1198.3" font-family="monospace" font-size="14.00">    EX_LocalVariable [CallFunc_MenuColors_OutputColor_1]</text>
<text text-anchor="start" x="2150.5" y="-1183.3" font-family="monospace" font-size="14.00">  RValue = []</text>
</g>
<!-- ExecuteUbergraph_ITM_Craft_ResourceBig__314&#45;&gt;ExecuteUbergraph_ITM_Craft_ResourceBig__333 -->
<g id="edge12" class="edge">
<title>ExecuteUbergraph_ITM_Craft_ResourceBig__314&#45;&gt;ExecuteUbergraph_ITM_Craft_ResourceBig__333</title>
<path fill="none" stroke="black" d="M2522,-1340.67C2522,-1328.84 2522,-1314.14 2522,-1299.45"/>
<polygon fill="black" stroke="black" points="2525.5,-1299.77 2522,-1289.77 2518.5,-1299.77 2525.5,-1299.77"/>
</g>
<!-- ExecuteUbergraph_ITM_Craft_ResourceBig__381 -->
<g id="node14" class="node">
<title>ExecuteUbergraph_ITM_Craft_ResourceBig__381</title>
<polygon fill="#eeeeee" stroke="black" points="2321.5,-875.5 2321.5,-1123.5 2816.5,-1123.5 2816.5,-875.5 2321.5,-875.5"/>
<text text-anchor="start" x="2329.5" y="-1108.3" font-family="monospace" font-size="14.00">EX_Let</text>
<text text-anchor="start" x="2329.5" y="-1093.3" font-family="monospace" font-size="14.00">  EX_StructMemberContext [SpecifiedColor]</text>
<text text-anchor="start" x="2329.5" y="-1078.3" font-family="monospace" font-size="14.00">    EX_LocalVariable [K2Node_MakeStruct_SlateColor]</text>
<text text-anchor="start" x="2329.5" y="-1063.3" font-family="monospace" font-size="14.00">  EX_SwitchValue</text>
<text text-anchor="start" x="2329.5" y="-1048.3" font-family="monospace" font-size="14.00">    EX_LocalVariable [Temp_bool_Variable]</text>
<text text-anchor="start" x="2329.5" y="-1033.3" font-family="monospace" font-size="14.00">    OffsetToSwitchEnd = 461</text>
<text text-anchor="start" x="2329.5" y="-1018.3" font-family="monospace" font-size="14.00">    case 0:</text>
<text text-anchor="start" x="2329.5" y="-1003.3" font-family="monospace" font-size="14.00">      EX_False</text>
<text text-anchor="start" x="2329.5" y="-988.3" font-family="monospace" font-size="14.00">      NextCaseOffset = 438</text>
<text text-anchor="start" x="2329.5" y="-973.3" font-family="monospace" font-size="14.00">      EX_LocalVariable [CallFunc_MenuColors_OutputColor]</text>
<text text-anchor="start" x="2329.5" y="-958.3" font-family="monospace" font-size="14.00">    case 1:</text>
<text text-anchor="start" x="2329.5" y="-943.3" font-family="monospace" font-size="14.00">      EX_True</text>
<text text-anchor="start" x="2329.5" y="-928.3" font-family="monospace" font-size="14.00">      NextCaseOffset = 452</text>
<text text-anchor="start" x="2329.5" y="-913.3" font-family="monospace" font-size="14.00">      EX_LocalVariable [CallFunc_MenuColors_OutputColor_1]</text>
<text text-anchor="start" x="2329.5" y="-898.3" font-family="monospace" font-size="14.00">    default:</text>
<text text-anchor="start" x="2329.5" y="-883.3" font-family="monospace" font-size="14.00">      EX_LocalVariable [K2Node_Select_Default]</text>
</g>
<!-- ExecuteUbergraph_ITM_Craft_ResourceBig__333&#45;&gt;ExecuteUbergraph_ITM_Craft_ResourceBig__381 -->
<g id="edge13" class="edge">
<title>ExecuteUbergraph_ITM_Craft_ResourceBig__333&#45;&gt;ExecuteUbergraph_ITM_Craft_ResourceBig__381</title>
<path fill="none" stroke="black" d="M2533.26,-1175.79C2535.85,-1163.05 2538.73,-1148.96 2541.68,-1134.46"/>
<polygon fill="black" stroke="black" points="2545.09,-1135.29 2543.66,-1124.79 2538.23,-1133.89 2545.09,-1135.29"/>
</g>
<!-- ExecuteUbergraph_ITM_Craft_ResourceBig__461 -->
<g id="node15" class="node">
<title>ExecuteUbergraph_ITM_Craft_ResourceBig__461</title>
<polygon fill="#eeeeee" stroke="black" points="2384.5,-769.5 2384.5,-837.5 2821.5,-837.5 2821.5,-769.5 2384.5,-769.5"/>
<text text-anchor="start" x="2392.5" y="-822.3" font-family="monospace" font-size="14.00">EX_Let</text>
<text text-anchor="start" x="2392.5" y="-807.3" font-family="monospace" font-size="14.00">  EX_StructMemberContext [ColorUseRule]</text>
<text text-anchor="start" x="2392.5" y="-792.3" font-family="monospace" font-size="14.00">    EX_LocalVariable [K2Node_MakeStruct_SlateColor]</text>
<text text-anchor="start" x="2392.5" y="-777.3" font-family="monospace" font-size="14.00">  EX_ByteConst 0</text>
</g>
<!-- ExecuteUbergraph_ITM_Craft_ResourceBig__381&#45;&gt;ExecuteUbergraph_ITM_Craft_ResourceBig__461 -->
<g id="edge14" class="edge">
<title>ExecuteUbergraph_ITM_Craft_ResourceBig__381&#45;&gt;ExecuteUbergraph_ITM_Craft_ResourceBig__461</title>
<path fill="none" stroke="black" d="M2590.53,-875.64C2592.2,-866.13 2593.8,-856.98 2595.27,-848.59"/>
<polygon fill="black" stroke="black" points="2598.71,-849.23 2596.99,-838.77 2591.82,-848.02 2598.71,-849.23"/>
</g>
<!-- ExecuteUbergraph_ITM_Craft_ResourceBig__490 -->
<g id="node16" class="node">
<title>ExecuteUbergraph_ITM_Craft_ResourceBig__490</title>
<polygon fill="#eeeeee" stroke="black" points="2323,-648.5 2323,-731.5 2901,-731.5 2901,-648.5 2323,-648.5"/>
<text text-anchor="start" x="2331" y="-716.3" font-family="monospace" font-size="14.00">EX_Context</text>
<text text-anchor="start" x="2331" y="-701.3" font-family="monospace" font-size="14.00">  EX_InstanceVariable [DATAAmount]</text>
<text text-anchor="start" x="2331" y="-686.3" font-family="monospace" font-size="14.00">  EX_FinalFunction import /Script/UMG&#45;&gt;TextBlock&#45;&gt;SetColorAndOpacity</text>
<text text-anchor="start" x="2331" y="-671.3" font-family="monospace" font-size="14.00">    EX_LocalVariable [K2Node_MakeStruct_SlateColor]</text>
<text text-anchor="start" x="2331" y="-656.3" font-family="monospace" font-size="14.00">  RValue = []</text>
</g>
<!-- ExecuteUbergraph_ITM_Craft_ResourceBig__461&#45;&gt;ExecuteUbergraph_ITM_Craft_ResourceBig__490 -->
<g id="edge15" class="edge">
<title>ExecuteUbergraph_ITM_Craft_ResourceBig__461&#45;&gt;ExecuteUbergraph_ITM_Craft_ResourceBig__490</title>
<path fill="none" stroke="black" d="M2605.65,-769.65C2606.34,-761.06 2607.11,-751.6 2607.86,-742.3"/>
<polygon fill="black" stroke="black" points="2611.32,-742.87 2608.64,-732.62 2604.35,-742.31 2611.32,-742.87"/>
</g>
<!-- ExecuteUbergraph_ITM_Craft_ResourceBig__531 -->
<g id="node17" class="node">
<title>ExecuteUbergraph_ITM_Craft_ResourceBig__531</title>
<polygon fill="#eeeeee" stroke="black" points="2426,-422.5 2426,-610.5 2806,-610.5 2806,-422.5 2426,-422.5"/>
<text text-anchor="start" x="2434" y="-595.3" font-family="monospace" font-size="14.00">EX_Context</text>
<text text-anchor="start" x="2434" y="-580.3" font-family="monospace" font-size="14.00">  EX_Context</text>
<text text-anchor="start" x="2434" y="-565.3" font-family="monospace" font-size="14.00">    EX_InstanceVariable [Basic_ResourceIcon]</text>
<text text-anchor="start" x="2434" y="-550.3" font-family="monospace" font-size="14.00">    EX_InstanceVariable [ResourceIcon]</text>
<text text-anchor="start" x="2434" y="-535.3" font-family="monospace" font-size="14.00">    RValue = [ResourceIcon]</text>
<text text-anchor="start" x="2434" y="-520.3" font-family="monospace" font-size="14.00">  EX_VirtualFunction SetBrushFromTexture</text>
<text text-anchor="start" x="2434" y="-505.3" font-family="monospace" font-size="14.00">    EX_Context</text>
<text text-anchor="start" x="2434" y="-490.3" font-family="monospace" font-size="14.00">      EX_InstanceVariable [Resource]</text>
<text text-anchor="start" x="2434" y="-475.3" font-family="monospace" font-size="14.00">      EX_InstanceVariable [Icon]</text>
<text text-anchor="start" x="2434" y="-460.3" font-family="monospace" font-size="14.00">      RValue = [Icon]</text>
<text text-anchor="start" x="2434" y="-445.3" font-family="monospace" font-size="14.00">    EX_False</text>
<text text-anchor="start" x="2434" y="-430.3" font-family="monospace" font-size="14.00">  RValue = []</text>
</g>
<!-- ExecuteUbergraph_ITM_Craft_ResourceBig__490&#45;&gt;ExecuteUbergraph_ITM_Craft_ResourceBig__531 -->
<g id="edge16" class="edge">
<title>ExecuteUbergraph_ITM_Craft_ResourceBig__490&#45;&gt;ExecuteUbergraph_ITM_Craft_ResourceBig__531</title>
<path fill="none" stroke="black" d="M2612.94,-648.79C2613.13,-640.39 2613.35,-631.18 2613.57,-621.64"/>
<polygon fill="black" stroke="black" points="2617.07,-621.92 2613.8,-611.84 2610.07,-621.76 2617.07,-621.92"/>
</g>
<!-- ExecuteUbergraph_ITM_Craft_ResourceBig__621 -->
<g id="node18" class="node">
<title>ExecuteUbergraph_ITM_Craft_ResourceBig__621</title>
<polygon fill="#eeeeee" stroke="black" points="2332.5,-271.5 2332.5,-384.5 2901.5,-384.5 2901.5,-271.5 2332.5,-271.5"/>
<text text-anchor="start" x="2340.5" y="-369.3" font-family="monospace" font-size="14.00">EX_Let</text>
<text text-anchor="start" x="2340.5" y="-354.3" font-family="monospace" font-size="14.00">  EX_LocalVariable [CallFunc_TextToUpper_ReturnValue]</text>
<text text-anchor="start" x="2340.5" y="-339.3" font-family="monospace" font-size="14.00">  EX_CallMath import /Script/Engine&#45;&gt;KismetTextLibrary&#45;&gt;TextToUpper</text>
<text text-anchor="start" x="2340.5" y="-324.3" font-family="monospace" font-size="14.00">    EX_Context</text>
<text text-anchor="start" x="2340.5" y="-309.3" font-family="monospace" font-size="14.00">      EX_InstanceVariable [Resource]</text>
<text text-anchor="start" x="2340.5" y="-294.3" font-family="monospace" font-size="14.00">      EX_InstanceVariable [Title]</text>
<text text-anchor="start" x="2340.5" y="-279.3" font-family="monospace" font-size="14.00">      RValue = [Title]</text>
</g>
<!-- ExecuteUbergraph_ITM_Craft_ResourceBig__531&#45;&gt;ExecuteUbergraph_ITM_Craft_ResourceBig__621 -->
<g id="edge17" class="edge">
<title>ExecuteUbergraph_ITM_Craft_ResourceBig__531&#45;&gt;ExecuteUbergraph_ITM_Craft_ResourceBig__621</title>
<path fill="none" stroke="black" d="M2616.5,-422.52C2616.55,-413.45 2616.6,-404.38 2616.64,-395.64"/>
<polygon fill="black" stroke="black" points="2620.14,-395.91 2616.69,-385.89 2613.14,-395.88 2620.14,-395.91"/>
</g>
<!-- ExecuteUbergraph_ITM_Craft_ResourceBig__680 -->
<g id="node19" class="node">
<title>ExecuteUbergraph_ITM_Craft_ResourceBig__680</title>
<polygon fill="#eeeeee" stroke="black" points="2420,-150.5 2420,-233.5 2890,-233.5 2890,-150.5 2420,-150.5"/>
<text text-anchor="start" x="2428" y="-218.3" font-family="monospace" font-size="14.00">EX_Context</text>
<text text-anchor="start" x="2428" y="-203.3" font-family="monospace" font-size="14.00">  EX_InstanceVariable [DATAName]</text>
<text text-anchor="start" x="2428" y="-188.3" font-family="monospace" font-size="14.00">  EX_VirtualFunction SetText</text>
<text text-anchor="start" x="2428" y="-173.3" font-family="monospace" font-size="14.00">    EX_LocalVariable [CallFunc_TextToUpper_ReturnValue]</text>
<text text-anchor="start" x="2428" y="-158.3" font-family="monospace" font-size="14.00">  RValue = []</text>
</g>
<!-- ExecuteUbergraph_ITM_Craft_ResourceBig__621&#45;&gt;ExecuteUbergraph_ITM_Craft_ResourceBig__680 -->
<g id="edge18" class="edge">
<title>ExecuteUbergraph_ITM_Craft_ResourceBig__621&#45;&gt;ExecuteUbergraph_ITM_Craft_ResourceBig__680</title>
<path fill="none" stroke="black" d="M2632.68,-271.72C2635.23,-262.7 2637.88,-253.38 2640.41,-244.46"/>
<polygon fill="black" stroke="black" points="2643.77,-245.44 2643.13,-234.87 2637.03,-243.53 2643.77,-245.44"/>
</g>
<!-- ExecuteUbergraph_ITM_Craft_ResourceBig__725 -->
<g id="node20" class="node">
<title>ExecuteUbergraph_ITM_Craft_ResourceBig__725</title>
<polygon fill="#eeeeee" stroke="black" points="2749.5,-76.5 2749.5,-112.5 2856.5,-112.5 2856.5,-76.5 2749.5,-76.5"/>
<text text-anchor="start" x="2757.5" y="-90.8" font-family="monospace" font-size="14.00">EX_Jump 735</text>
</g>
<!-- ExecuteUbergraph_ITM_Craft_ResourceBig__680&#45;&gt;ExecuteUbergraph_ITM_Craft_ResourceBig__725 -->
<g id="edge19" class="edge">
<title>ExecuteUbergraph_ITM_Craft_ResourceBig__680&#45;&gt;ExecuteUbergraph_ITM_Craft_ResourceBig__725</title>
<path fill="none" stroke="black" d="M2717.34,-150.78C2734.44,-139.74 2752.41,-128.15 2767.44,-118.45"/>
<polygon fill="black" stroke="black" points="2769.08,-121.55 2775.58,-113.19 2765.28,-115.67 2769.08,-121.55"/>
</g>
<!-- ExecuteUbergraph_ITM_Craft_ResourceBig__725&#45;&gt;ExecuteUbergraph_ITM_Craft_ResourceBig__735 -->
<g id="edge20" class="edge">
<title>ExecuteUbergraph_ITM_Craft_ResourceBig__725&#45;&gt;ExecuteUbergraph_ITM_Craft_ResourceBig__735</title>
<path fill="none" stroke="black" d="M2832.46,-76.57C2849.27,-66.9 2870.61,-54.64 2889.04,-44.04"/>
<polygon fill="black" stroke="black" points="2890.69,-47.13 2897.62,-39.11 2887.21,-41.06 2890.69,-47.13"/>
</g>
<!-- ExecuteUbergraph_ITM_Craft_ResourceBig__730 -->
<g id="node21" class="node">
<title>ExecuteUbergraph_ITM_Craft_ResourceBig__730</title>
<polygon fill="#eeeeee" stroke="black" points="2083.5,-2453.5 2083.5,-2489.5 2182.5,-2489.5 2182.5,-2453.5 2083.5,-2453.5"/>
<text text-anchor="start" x="2091.5" y="-2467.8" font-family="monospace" font-size="14.00">EX_Jump 24</text>
</g>
<!-- ExecuteUbergraph_ITM_Craft_ResourceBig__730&#45;&gt;ExecuteUbergraph_ITM_Craft_ResourceBig__24 -->
<g id="edge21" class="edge">
<title>ExecuteUbergraph_ITM_Craft_ResourceBig__730&#45;&gt;ExecuteUbergraph_ITM_Craft_ResourceBig__24</title>
<path fill="none" stroke="black" d="M2182.38,-2456.25C2266.4,-2432.01 2439.62,-2382.02 2558.78,-2347.63"/>
<polygon fill="black" stroke="black" points="2559.69,-2351.02 2568.33,-2344.88 2557.75,-2344.29 2559.69,-2351.02"/>
</g>
<!-- ExecuteUbergraph_ITM_Craft_ResourceBig__737 -->
<g id="node23" class="node">
<title>ExecuteUbergraph_ITM_Craft_ResourceBig__737</title>
<polygon fill="#eeeeee" stroke="black" points="2481,-2677.5 2481,-2713.5 2613,-2713.5 2613,-2677.5 2481,-2677.5"/>
<text text-anchor="start" x="2489" y="-2691.8" font-family="monospace" font-size="14.00">EX_EndOfScript</text>
</g>
<!-- PreConstruct -->
<g id="node24" class="node">
<title>PreConstruct</title>
<polygon fill="#ff8888" stroke="black" points="2231,-2822.5 2231,-2875.5 2701,-2875.5 2701,-2822.5 2231,-2822.5"/>
<text text-anchor="start" x="2239" y="-2860.3" font-family="monospace" font-size="14.00">Function PreConstruct</text>
<text text-anchor="start" x="2239" y="-2845.3" font-family="monospace" font-size="14.00">  BoolProperty IsDesignTime</text>
<text text-anchor="start" x="2239" y="-2830.3" font-family="monospace" font-size="14.00">    CPF_BlueprintVisible|CPF_BlueprintReadOnly|CPF_Parm</text>
</g>
<!-- PreConstruct__0 -->
<g id="node25" class="node">
<title>PreConstruct__0</title>
<polygon fill="#eeeeee" stroke="black" points="2226.5,-2620.5 2226.5,-2658.5 2705.5,-2658.5 2705.5,-2620.5 2226.5,-2620.5"/>
<text text-anchor="start" x="2234.5" y="-2643.3" font-family="monospace" font-size="14.00">EX_LetValueOnPersistentFrame [K2Node_Event_IsDesignTime]</text>
<text text-anchor="start" x="2234.5" y="-2628.3" font-family="monospace" font-size="14.00">  EX_LocalVariable [IsDesignTime]</text>
</g>
<!-- PreConstruct&#45;&gt;PreConstruct__0 -->
<g id="edge22" class="edge">
<title>PreConstruct&#45;&gt;PreConstruct__0</title>
<path fill="none" stroke="black" d="M2466,-2822.56C2466,-2783.83 2466,-2710.31 2466,-2669.55"/>
<polygon fill="black" stroke="black" points="2469.5,-2669.77 2466,-2659.77 2462.5,-2669.77 2469.5,-2669.77"/>
</g>
<!-- PreConstruct__18 -->
<g id="node26" class="node">
<title>PreConstruct__18</title>
<polygon fill="#eeeeee" stroke="black" points="2078,-2508.5 2078,-2546.5 2854,-2546.5 2854,-2508.5 2078,-2508.5"/>
<text text-anchor="start" x="2086" y="-2531.3" font-family="monospace" font-size="14.00">EX_LocalFinalFunction export ITM_Craft_ResourceBig_C&#45;&gt;ExecuteUbergraph_ITM_Craft_ResourceBig</text>
<text text-anchor="start" x="2086" y="-2516.3" font-family="monospace" font-size="14.00">  EX_IntConst 10</text>
</g>
<!-- PreConstruct__0&#45;&gt;PreConstruct__18 -->
<g id="edge23" class="edge">
<title>PreConstruct__0&#45;&gt;PreConstruct__18</title>
<path fill="none" stroke="black" d="M2466,-2620.83C2466,-2603.85 2466,-2577.88 2466,-2557.81"/>
<polygon fill="black" stroke="black" points="2469.5,-2558.01 2466,-2548.01 2462.5,-2558.01 2469.5,-2558.01"/>
</g>
<!-- PreConstruct__18&#45;&gt;ExecuteUbergraph_ITM_Craft_ResourceBig__10 -->
<g id="edge24" class="edge">
<title>PreConstruct__18:e&#45;&gt;ExecuteUbergraph_ITM_Craft_ResourceBig__10</title>
<path fill="none" stroke="red" d="M2855,-2527.5C2863.68,-2527.5 2857.16,-2516.08 2854,-2508 2850.21,-2498.3 2844.94,-2498.55 2839,-2490 2828.91,-2475.47 2819.03,-2458.37 2811.39,-2444.31"/>
<polygon fill="none" stroke="red" points="2814.53,-2442.76 2806.73,-2435.59 2808.35,-2446.06 2814.53,-2442.76"/>
</g>
<!-- PreConstruct__33 -->
<g id="node27" class="node">
<title>PreConstruct__33</title>
<polygon fill="#eeeeee" stroke="black" points="2408,-2396.5 2408,-2434.5 2524,-2434.5 2524,-2396.5 2408,-2396.5"/>
<text text-anchor="start" x="2416" y="-2419.3" font-family="monospace" font-size="14.00">EX_Return</text>
<text text-anchor="start" x="2416" y="-2404.3" font-family="monospace" font-size="14.00">  EX_Nothing</text>
</g>
<!-- PreConstruct__18&#45;&gt;PreConstruct__33 -->
<g id="edge25" class="edge">
<title>PreConstruct__18&#45;&gt;PreConstruct__33</title>
<path fill="none" stroke="black" d="M2466,-2508.83C2466,-2491.85 2466,-2465.88 2466,-2445.81"/>
<polygon fill="black" stroke="black" points="2469.5,-2446.01 2466,-2436.01 2462.5,-2446.01 2469.5,-2446.01"/>
</g>
<!-- PreConstruct__35 -->
<g id="node28" class="node">
<title>PreConstruct__35</title>
<polygon fill="#eeeeee" stroke="black" points="2481,-2565.5 2481,-2601.5 2613,-2601.5 2613,-2565.5 2481,-2565.5"/>
<text text-anchor="start" x="2489" y="-2579.8" font-family="monospace" font-size="14.00">EX_EndOfScript</text>
</g>
<!-- Construct -->
<g id="node29" class="node">
<title>Construct</title>
<polygon fill="#ff8888" stroke="black" points="1579.5,-2831 1579.5,-2867 1744.5,-2867 1744.5,-2831 1579.5,-2831"/>
<text text-anchor="start" x="1587.5" y="-2845.3" font-family="monospace" font-size="14.00">Function Construct</text>
</g>
<!-- Construct__0 -->
<g id="node30" class="node">
<title>Construct__0</title>
<polygon fill="#eeeeee" stroke="black" points="1274,-2620.5 1274,-2658.5 2050,-2658.5 2050,-2620.5 1274,-2620.5"/>
<text text-anchor="start" x="1282" y="-2643.3" font-family="monospace" font-size="14.00">EX_LocalFinalFunction export ITM_Craft_ResourceBig_C&#45;&gt;ExecuteUbergraph_ITM_Craft_ResourceBig</text>
<text text-anchor="start" x="1282" y="-2628.3" font-family="monospace" font-size="14.00">  EX_IntConst 730</text>
</g>
<!-- Construct&#45;&gt;Construct__0 -->
<g id="edge26" class="edge">
<title>Construct&#45;&gt;Construct__0</title>
<path fill="none" stroke="black" d="M1662,-2831.02C1662,-2795.63 1662,-2713.63 1662,-2669.63"/>
<polygon fill="black" stroke="black" points="1665.5,-2669.82 1662,-2659.82 1658.5,-2669.82 1665.5,-2669.82"/>
</g>
<!-- Construct__0&#45;&gt;ExecuteUbergraph_ITM_Craft_ResourceBig__730 -->
<g id="edge27" class="edge">
<title>Construct__0:e&#45;&gt;ExecuteUbergraph_ITM_Craft_ResourceBig__730</title>
<path fill="none" stroke="red" d="M2051,-2639.5C2109.99,-2639.5 2035.68,-2556.68 2069,-2508 2072.07,-2503.52 2075.9,-2499.54 2080.14,-2496.03"/>
<polygon fill="none" stroke="red" points="2082.01,-2499 2088.12,-2490.33 2077.94,-2493.3 2082.01,-2499"/>
</g>
<!-- Construct__15 -->
<g id="node31" class="node">
<title>Construct__15</title>
<polygon fill="#eeeeee" stroke="black" points="1604,-2508.5 1604,-2546.5 1720,-2546.5 1720,-2508.5 1604,-2508.5"/>
<text text-anchor="start" x="1612" y="-2531.3" font-family="monospace" font-size="14.00">EX_Return</text>
<text text-anchor="start" x="1612" y="-2516.3" font-family="monospace" font-size="14.00">  EX_Nothing</text>
</g>
<!-- Construct__0&#45;&gt;Construct__15 -->
<g id="edge28" class="edge">
<title>Construct__0&#45;&gt;Construct__15</title>
<path fill="none" stroke="black" d="M1662,-2620.83C1662,-2603.85 1662,-2577.88 1662,-2557.81"/>
<polygon fill="black" stroke="black" points="1665.5,-2558.01 1662,-2548.01 1658.5,-2558.01 1665.5,-2558.01"/>
</g>
<!-- Construct__17 -->
<g id="node32" class="node">
<title>Construct__17</title>
<polygon fill="#eeeeee" stroke="black" points="2840,-2453.5 2840,-2489.5 2972,-2489.5 2972,-2453.5 2840,-2453.5"/>
<text text-anchor="start" x="2848" y="-2467.8" font-family="monospace" font-size="14.00">EX_EndOfScript</text>
</g>
</g>
</svg>
