<?xml version="1.0" encoding="UTF-8" standalone="no"?>
<!DOCTYPE svg PUBLIC "-//W3C//DTD SVG 1.1//EN"
 "http://www.w3.org/Graphics/SVG/1.1/DTD/svg11.dtd">
<!-- Generated by graphviz version 7.0.1 (0)
 -->
<!-- Pages: 1 -->
<svg width="4304pt" height="2008pt"
 viewBox="0.00 0.00 4304.00 2008.00" xmlns="http://www.w3.org/2000/svg" xmlns:xlink="http://www.w3.org/1999/xlink">
<g id="graph0" class="graph" transform="scale(1 1) rotate(0) translate(4 2004)">
<polygon fill="white" stroke="none" points="-4,4 -4,-2004 4300,-2004 4300,4 -4,4"/>
<!-- WeaponDisplay_Drill_AmmoCount_C -->
<g id="node1" class="node">
<title>WeaponDisplay_Drill_AmmoCount_C</title>
<polygon fill="#88ff88" stroke="black" points="0,-1736.5 0,-1999.5 891,-1999.5 891,-1736.5 0,-1736.5"/>
<text text-anchor="start" x="8" y="-1984.3" font-family="monospace" font-size="14.00">ClassExport: WeaponDisplay_Drill_AmmoCount_C</text>
<text text-anchor="start" x="8" y="-1969.3" font-family="monospace" font-size="14.00">  SuperStruct: import /Game/UI/WeaponDisplays/WeaponDisplay_Base_AmmoCount&#45;&gt;WeaponDisplay_Base_AmmoCount_C</text>
<text text-anchor="start" x="8" y="-1954.3" font-family="monospace" font-size="14.00">  Properties:</text>
<text text-anchor="start" x="8" y="-1939.3" font-family="monospace" font-size="14.00">    StructProperty UberGraphFrame</text>
<text text-anchor="start" x="8" y="-1924.3" font-family="monospace" font-size="14.00">      CPF_Transient|CPF_DuplicateTransient</text>
<text text-anchor="start" x="8" y="-1909.3" font-family="monospace" font-size="14.00">    ObjectProperty AmmoCount</text>
<text text-anchor="start" x="8" y="-1894.3" font-family="monospace" font-size="14.00">      CPF_BlueprintVisible|CPF_ExportObject|CPF_InstancedReference|CPF_RepSkip|CPF_PersistentInstance</text>
<text text-anchor="start" x="8" y="-1879.3" font-family="monospace" font-size="14.00">    ObjectProperty AmmoProgressBar</text>
<text text-anchor="start" x="8" y="-1864.3" font-family="monospace" font-size="14.00">      CPF_BlueprintVisible|CPF_ExportObject|CPF_InstancedReference|CPF_RepSkip|CPF_PersistentInstance</text>
<text text-anchor="start" x="8" y="-1849.3" font-family="monospace" font-size="14.00">    ObjectProperty Image_87</text>
<text text-anchor="start" x="8" y="-1834.3" font-family="monospace" font-size="14.00">      CPF_BlueprintVisible|CPF_ExportObject|CPF_InstancedReference|CPF_RepSkip|CPF_PersistentInstance</text>
<text text-anchor="start" x="8" y="-1819.3" font-family="monospace" font-size="14.00">    ObjectProperty Image_246</text>
<text text-anchor="start" x="8" y="-1804.3" font-family="monospace" font-size="14.00">      CPF_BlueprintVisible|CPF_ExportObject|CPF_InstancedReference|CPF_RepSkip|CPF_PersistentInstance</text>
<text text-anchor="start" x="8" y="-1789.3" font-family="monospace" font-size="14.00">    IntProperty CurrentClipCount</text>
<text text-anchor="start" x="8" y="-1774.3" font-family="monospace" font-size="14.00">      CPF_Edit|CPF_BlueprintVisible|CPF_DisableEditOnInstance</text>
<text text-anchor="start" x="8" y="-1759.3" font-family="monospace" font-size="14.00">    IntProperty TotalClipCount</text>
<text text-anchor="start" x="8" y="-1744.3" font-family="monospace" font-size="14.00">      CPF_Edit|CPF_BlueprintVisible|CPF_DisableEditOnInstance</text>
</g>
<!-- ExecuteUbergraph_WeaponDisplay_Drill_AmmoCount -->
<g id="node2" class="node">
<title>ExecuteUbergraph_WeaponDisplay_Drill_AmmoCount</title>
<polygon fill="#ff8888" stroke="black" points="909.5,-1789 909.5,-1947 1379.5,-1947 1379.5,-1789 909.5,-1789"/>
<text text-anchor="start" x="917.5" y="-1931.8" font-family="monospace" font-size="14.00">Function ExecuteUbergraph_WeaponDisplay_Drill_AmmoCount</text>
<text text-anchor="start" x="917.5" y="-1916.8" font-family="monospace" font-size="14.00">  IntProperty EntryPoint</text>
<text text-anchor="start" x="917.5" y="-1901.8" font-family="monospace" font-size="14.00">    CPF_BlueprintVisible|CPF_BlueprintReadOnly|CPF_Parm</text>
<text text-anchor="start" x="917.5" y="-1886.8" font-family="monospace" font-size="14.00">  IntProperty K2Node_Event_Value_1</text>
<text text-anchor="start" x="917.5" y="-1871.8" font-family="monospace" font-size="14.00">  TextProperty CallFunc_Conv_IntToText_ReturnValue</text>
<text text-anchor="start" x="917.5" y="-1856.8" font-family="monospace" font-size="14.00">  StructProperty K2Node_MakeStruct_FormatArgumentData</text>
<text text-anchor="start" x="917.5" y="-1841.8" font-family="monospace" font-size="14.00">  IntProperty K2Node_Event_Value</text>
<text text-anchor="start" x="917.5" y="-1826.8" font-family="monospace" font-size="14.00">  ArrayProperty K2Node_MakeArray_Array</text>
<text text-anchor="start" x="917.5" y="-1811.8" font-family="monospace" font-size="14.00">    CPF_ReferenceParm</text>
<text text-anchor="start" x="917.5" y="-1796.8" font-family="monospace" font-size="14.00">  TextProperty CallFunc_Format_ReturnValue</text>
</g>
<!-- ExecuteUbergraph_WeaponDisplay_Drill_AmmoCount__0 -->
<g id="node3" class="node">
<title>ExecuteUbergraph_WeaponDisplay_Drill_AmmoCount__0</title>
<polygon fill="#eeeeee" stroke="black" points="1008.5,-1639 1008.5,-1677 1280.5,-1677 1280.5,-1639 1008.5,-1639"/>
<text text-anchor="start" x="1016.5" y="-1661.8" font-family="monospace" font-size="14.00">EX_ComputedJump</text>
<text text-anchor="start" x="1016.5" y="-1646.8" font-family="monospace" font-size="14.00">  EX_LocalVariable [EntryPoint]</text>
</g>
<!-- ExecuteUbergraph_WeaponDisplay_Drill_AmmoCount&#45;&gt;ExecuteUbergraph_WeaponDisplay_Drill_AmmoCount__0 -->
<g id="edge1" class="edge">
<title>ExecuteUbergraph_WeaponDisplay_Drill_AmmoCount&#45;&gt;ExecuteUbergraph_WeaponDisplay_Drill_AmmoCount__0</title>
<path fill="none" stroke="black" d="M1144.5,-1789.25C1144.5,-1753.99 1144.5,-1714.42 1144.5,-1688.24"/>
<polygon fill="black" stroke="black" points="1148,-1688.4 1144.5,-1678.4 1141,-1688.4 1148,-1688.4"/>
</g>
<!-- ExecuteUbergraph_WeaponDisplay_Drill_AmmoCount__10 -->
<g id="node4" class="node">
<title>ExecuteUbergraph_WeaponDisplay_Drill_AmmoCount__10</title>
<polygon fill="#eeeeee" stroke="black" points="3392,-387.5 3392,-423.5 3499,-423.5 3499,-387.5 3392,-387.5"/>
<text text-anchor="start" x="3400" y="-401.8" font-family="monospace" font-size="14.00">EX_Jump 495</text>
</g>
<!-- ExecuteUbergraph_WeaponDisplay_Drill_AmmoCount__495 -->
<g id="node20" class="node">
<title>ExecuteUbergraph_WeaponDisplay_Drill_AmmoCount__495</title>
<polygon fill="#eeeeee" stroke="black" points="2954.5,-0.5 2954.5,-38.5 3070.5,-38.5 3070.5,-0.5 2954.5,-0.5"/>
<text text-anchor="start" x="2962.5" y="-23.3" font-family="monospace" font-size="14.00">EX_Return</text>
<text text-anchor="start" x="2962.5" y="-8.3" font-family="monospace" font-size="14.00">  EX_Nothing</text>
</g>
<!-- ExecuteUbergraph_WeaponDisplay_Drill_AmmoCount__10&#45;&gt;ExecuteUbergraph_WeaponDisplay_Drill_AmmoCount__495 -->
<g id="edge2" class="edge">
<title>ExecuteUbergraph_WeaponDisplay_Drill_AmmoCount__10&#45;&gt;ExecuteUbergraph_WeaponDisplay_Drill_AmmoCount__495</title>
<path fill="none" stroke="black" d="M3426.34,-387.5C3357.56,-326.52 3122.95,-118.45 3041.01,-45.79"/>
<polygon fill="black" stroke="black" points="3043.62,-43.42 3033.81,-39.4 3038.97,-48.66 3043.62,-43.42"/>
</g>
<!-- ExecuteUbergraph_WeaponDisplay_Drill_AmmoCount__15 -->
<g id="node5" class="node">
<title>ExecuteUbergraph_WeaponDisplay_Drill_AmmoCount__15</title>
<polygon fill="#eeeeee" stroke="black" points="2018,-1414 2018,-1467 2373,-1467 2373,-1414 2018,-1414"/>
<text text-anchor="start" x="2026" y="-1451.8" font-family="monospace" font-size="14.00">EX_Let</text>
<text text-anchor="start" x="2026" y="-1436.8" font-family="monospace" font-size="14.00">  EX_InstanceVariable [CurrentClipCount]</text>
<text text-anchor="start" x="2026" y="-1421.8" font-family="monospace" font-size="14.00">  EX_LocalVariable [K2Node_Event_Value_1]</text>
</g>
<!-- ExecuteUbergraph_WeaponDisplay_Drill_AmmoCount__42 -->
<g id="node6" class="node">
<title>ExecuteUbergraph_WeaponDisplay_Drill_AmmoCount__42</title>
<polygon fill="#eeeeee" stroke="black" points="2008.5,-1241.5 2008.5,-1369.5 2602.5,-1369.5 2602.5,-1241.5 2008.5,-1241.5"/>
<text text-anchor="start" x="2016.5" y="-1354.3" font-family="monospace" font-size="14.00">EX_Let</text>
<text text-anchor="start" x="2016.5" y="-1339.3" font-family="monospace" font-size="14.00">  EX_LocalVariable [CallFunc_Conv_IntToText_ReturnValue]</text>
<text text-anchor="start" x="2016.5" y="-1324.3" font-family="monospace" font-size="14.00">  EX_CallMath import /Script/Engine&#45;&gt;KismetTextLibrary&#45;&gt;Conv_IntToText</text>
<text text-anchor="start" x="2016.5" y="-1309.3" font-family="monospace" font-size="14.00">    EX_LocalVariable [K2Node_Event_Value_1]</text>
<text text-anchor="start" x="2016.5" y="-1294.3" font-family="monospace" font-size="14.00">    EX_False</text>
<text text-anchor="start" x="2016.5" y="-1279.3" font-family="monospace" font-size="14.00">    EX_False</text>
<text text-anchor="start" x="2016.5" y="-1264.3" font-family="monospace" font-size="14.00">    EX_IntConst 2</text>
<text text-anchor="start" x="2016.5" y="-1249.3" font-family="monospace" font-size="14.00">    EX_IntConst 324</text>
</g>
<!-- ExecuteUbergraph_WeaponDisplay_Drill_AmmoCount__15&#45;&gt;ExecuteUbergraph_WeaponDisplay_Drill_AmmoCount__42 -->
<g id="edge3" class="edge">
<title>ExecuteUbergraph_WeaponDisplay_Drill_AmmoCount__15&#45;&gt;ExecuteUbergraph_WeaponDisplay_Drill_AmmoCount__42</title>
<path fill="none" stroke="black" d="M2216.45,-1414.17C2225.14,-1403.66 2235.71,-1390.89 2246.48,-1377.87"/>
<polygon fill="black" stroke="black" points="2248.93,-1380.4 2252.6,-1370.46 2243.53,-1375.93 2248.93,-1380.4"/>
</g>
<!-- ExecuteUbergraph_WeaponDisplay_Drill_AmmoCount__91 -->
<g id="node7" class="node">
<title>ExecuteUbergraph_WeaponDisplay_Drill_AmmoCount__91</title>
<polygon fill="#eeeeee" stroke="black" points="2055,-1129 2055,-1197 2558,-1197 2558,-1129 2055,-1129"/>
<text text-anchor="start" x="2063" y="-1181.8" font-family="monospace" font-size="14.00">EX_Let</text>
<text text-anchor="start" x="2063" y="-1166.8" font-family="monospace" font-size="14.00">  EX_StructMemberContext [ArgumentName]</text>
<text text-anchor="start" x="2063" y="-1151.8" font-family="monospace" font-size="14.00">    EX_LocalVariable [K2Node_MakeStruct_FormatArgumentData]</text>
<text text-anchor="start" x="2063" y="-1136.8" font-family="monospace" font-size="14.00">  EX_StringConst amount</text>
</g>
<!-- ExecuteUbergraph_WeaponDisplay_Drill_AmmoCount__42&#45;&gt;ExecuteUbergraph_WeaponDisplay_Drill_AmmoCount__91 -->
<g id="edge4" class="edge">
<title>ExecuteUbergraph_WeaponDisplay_Drill_AmmoCount__42&#45;&gt;ExecuteUbergraph_WeaponDisplay_Drill_AmmoCount__91</title>
<path fill="none" stroke="black" d="M2305.95,-1241.65C2306.03,-1230.39 2306.11,-1218.88 2306.18,-1208.29"/>
<polygon fill="black" stroke="black" points="2309.68,-1208.32 2306.26,-1198.29 2302.68,-1208.27 2309.68,-1208.32"/>
</g>
<!-- ExecuteUbergraph_WeaponDisplay_Drill_AmmoCount__126 -->
<g id="node8" class="node">
<title>ExecuteUbergraph_WeaponDisplay_Drill_AmmoCount__126</title>
<polygon fill="#eeeeee" stroke="black" points="2056,-1016.5 2056,-1084.5 2559,-1084.5 2559,-1016.5 2056,-1016.5"/>
<text text-anchor="start" x="2064" y="-1069.3" font-family="monospace" font-size="14.00">EX_Let</text>
<text text-anchor="start" x="2064" y="-1054.3" font-family="monospace" font-size="14.00">  EX_StructMemberContext [ArgumentValueType]</text>
<text text-anchor="start" x="2064" y="-1039.3" font-family="monospace" font-size="14.00">    EX_LocalVariable [K2Node_MakeStruct_FormatArgumentData]</text>
<text text-anchor="start" x="2064" y="-1024.3" font-family="monospace" font-size="14.00">  EX_ByteConst 4</text>
</g>
<!-- ExecuteUbergraph_WeaponDisplay_Drill_AmmoCount__91&#45;&gt;ExecuteUbergraph_WeaponDisplay_Drill_AmmoCount__126 -->
<g id="edge5" class="edge">
<title>ExecuteUbergraph_WeaponDisplay_Drill_AmmoCount__91&#45;&gt;ExecuteUbergraph_WeaponDisplay_Drill_AmmoCount__126</title>
<path fill="none" stroke="black" d="M2306.8,-1129.15C2306.89,-1118.66 2307,-1106.89 2307.1,-1095.73"/>
<polygon fill="black" stroke="black" points="2310.6,-1095.96 2307.19,-1085.93 2303.6,-1095.9 2310.6,-1095.96"/>
</g>
<!-- ExecuteUbergraph_WeaponDisplay_Drill_AmmoCount__155 -->
<g id="node9" class="node">
<title>ExecuteUbergraph_WeaponDisplay_Drill_AmmoCount__155</title>
<polygon fill="#eeeeee" stroke="black" points="2058,-911.5 2058,-979.5 2561,-979.5 2561,-911.5 2058,-911.5"/>
<text text-anchor="start" x="2066" y="-964.3" font-family="monospace" font-size="14.00">EX_Let</text>
<text text-anchor="start" x="2066" y="-949.3" font-family="monospace" font-size="14.00">  EX_StructMemberContext [ArgumentValue]</text>
<text text-anchor="start" x="2066" y="-934.3" font-family="monospace" font-size="14.00">    EX_LocalVariable [K2Node_MakeStruct_FormatArgumentData]</text>
<text text-anchor="start" x="2066" y="-919.3" font-family="monospace" font-size="14.00">  EX_LocalVariable [CallFunc_Conv_IntToText_ReturnValue]</text>
</g>
<!-- ExecuteUbergraph_WeaponDisplay_Drill_AmmoCount__126&#45;&gt;ExecuteUbergraph_WeaponDisplay_Drill_AmmoCount__155 -->
<g id="edge6" class="edge">
<title>ExecuteUbergraph_WeaponDisplay_Drill_AmmoCount__126&#45;&gt;ExecuteUbergraph_WeaponDisplay_Drill_AmmoCount__155</title>
<path fill="none" stroke="black" d="M2308.14,-1016.63C2308.3,-1008.45 2308.47,-999.55 2308.64,-990.92"/>
<polygon fill="black" stroke="black" points="2312.14,-990.99 2308.83,-980.93 2305.14,-990.86 2312.14,-990.99"/>
</g>
<!-- ExecuteUbergraph_WeaponDisplay_Drill_AmmoCount__191 -->
<g id="node10" class="node">
<title>ExecuteUbergraph_WeaponDisplay_Drill_AmmoCount__191</title>
<polygon fill="#eeeeee" stroke="black" points="2063,-806.5 2063,-874.5 2566,-874.5 2566,-806.5 2063,-806.5"/>
<text text-anchor="start" x="2071" y="-859.3" font-family="monospace" font-size="14.00">EX_Let</text>
<text text-anchor="start" x="2071" y="-844.3" font-family="monospace" font-size="14.00">  EX_StructMemberContext [ArgumentValueInt]</text>
<text text-anchor="start" x="2071" y="-829.3" font-family="monospace" font-size="14.00">    EX_LocalVariable [K2Node_MakeStruct_FormatArgumentData]</text>
<text text-anchor="start" x="2071" y="-814.3" font-family="monospace" font-size="14.00">  EX_IntConst 0</text>
</g>
<!-- ExecuteUbergraph_WeaponDisplay_Drill_AmmoCount__155&#45;&gt;ExecuteUbergraph_WeaponDisplay_Drill_AmmoCount__191 -->
<g id="edge7" class="edge">
<title>ExecuteUbergraph_WeaponDisplay_Drill_AmmoCount__155&#45;&gt;ExecuteUbergraph_WeaponDisplay_Drill_AmmoCount__191</title>
<path fill="none" stroke="black" d="M2311.1,-911.63C2311.5,-903.36 2311.93,-894.35 2312.36,-885.63"/>
<polygon fill="black" stroke="black" points="2315.84,-886.08 2312.83,-875.93 2308.85,-885.74 2315.84,-886.08"/>
</g>
<!-- ExecuteUbergraph_WeaponDisplay_Drill_AmmoCount__223 -->
<g id="node11" class="node">
<title>ExecuteUbergraph_WeaponDisplay_Drill_AmmoCount__223</title>
<polygon fill="#eeeeee" stroke="black" points="2072,-701.5 2072,-769.5 2575,-769.5 2575,-701.5 2072,-701.5"/>
<text text-anchor="start" x="2080" y="-754.3" font-family="monospace" font-size="14.00">EX_Let</text>
<text text-anchor="start" x="2080" y="-739.3" font-family="monospace" font-size="14.00">  EX_StructMemberContext [ArgumentValueFloat]</text>
<text text-anchor="start" x="2080" y="-724.3" font-family="monospace" font-size="14.00">    EX_LocalVariable [K2Node_MakeStruct_FormatArgumentData]</text>
<text text-anchor="start" x="2080" y="-709.3" font-family="monospace" font-size="14.00">  EX_FloatConst 0</text>
</g>
<!-- ExecuteUbergraph_WeaponDisplay_Drill_AmmoCount__191&#45;&gt;ExecuteUbergraph_WeaponDisplay_Drill_AmmoCount__223 -->
<g id="edge8" class="edge">
<title>ExecuteUbergraph_WeaponDisplay_Drill_AmmoCount__191&#45;&gt;ExecuteUbergraph_WeaponDisplay_Drill_AmmoCount__223</title>
<path fill="none" stroke="black" d="M2317.37,-806.63C2318.09,-798.36 2318.88,-789.35 2319.64,-780.63"/>
<polygon fill="black" stroke="black" points="2323.11,-781.19 2320.49,-770.92 2316.13,-780.58 2323.11,-781.19"/>
</g>
<!-- ExecuteUbergraph_WeaponDisplay_Drill_AmmoCount__255 -->
<g id="node12" class="node">
<title>ExecuteUbergraph_WeaponDisplay_Drill_AmmoCount__255</title>
<polygon fill="#eeeeee" stroke="black" points="2091,-596.5 2091,-664.5 2594,-664.5 2594,-596.5 2091,-596.5"/>
<text text-anchor="start" x="2099" y="-649.3" font-family="monospace" font-size="14.00">EX_Let</text>
<text text-anchor="start" x="2099" y="-634.3" font-family="monospace" font-size="14.00">  EX_StructMemberContext [ArgumentValueGender]</text>
<text text-anchor="start" x="2099" y="-619.3" font-family="monospace" font-size="14.00">    EX_LocalVariable [K2Node_MakeStruct_FormatArgumentData]</text>
<text text-anchor="start" x="2099" y="-604.3" font-family="monospace" font-size="14.00">  EX_ByteConst 0</text>
</g>
<!-- ExecuteUbergraph_WeaponDisplay_Drill_AmmoCount__223&#45;&gt;ExecuteUbergraph_WeaponDisplay_Drill_AmmoCount__255 -->
<g id="edge9" class="edge">
<title>ExecuteUbergraph_WeaponDisplay_Drill_AmmoCount__223&#45;&gt;ExecuteUbergraph_WeaponDisplay_Drill_AmmoCount__255</title>
<path fill="none" stroke="black" d="M2329.56,-701.63C2331.09,-693.36 2332.75,-684.35 2334.36,-675.63"/>
<polygon fill="black" stroke="black" points="2337.78,-676.37 2336.15,-665.9 2330.9,-675.1 2337.78,-676.37"/>
</g>
<!-- ExecuteUbergraph_WeaponDisplay_Drill_AmmoCount__284 -->
<g id="node13" class="node">
<title>ExecuteUbergraph_WeaponDisplay_Drill_AmmoCount__284</title>
<polygon fill="#eeeeee" stroke="black" points="2136,-506.5 2136,-559.5 2623,-559.5 2623,-506.5 2136,-506.5"/>
<text text-anchor="start" x="2144" y="-544.3" font-family="monospace" font-size="14.00">EX_SetArray</text>
<text text-anchor="start" x="2144" y="-529.3" font-family="monospace" font-size="14.00">  EX_LocalVariable [K2Node_MakeArray_Array]</text>
<text text-anchor="start" x="2144" y="-514.3" font-family="monospace" font-size="14.00">  EX_LocalVariable [K2Node_MakeStruct_FormatArgumentData]</text>
</g>
<!-- ExecuteUbergraph_WeaponDisplay_Drill_AmmoCount__255&#45;&gt;ExecuteUbergraph_WeaponDisplay_Drill_AmmoCount__284 -->
<g id="edge10" class="edge">
<title>ExecuteUbergraph_WeaponDisplay_Drill_AmmoCount__255&#45;&gt;ExecuteUbergraph_WeaponDisplay_Drill_AmmoCount__284</title>
<path fill="none" stroke="black" d="M2355.23,-596.63C2358.56,-588.06 2362.15,-578.78 2365.53,-570.05"/>
<polygon fill="black" stroke="black" points="2368.77,-571.38 2369.12,-560.79 2362.24,-568.85 2368.77,-571.38"/>
</g>
<!-- ExecuteUbergraph_WeaponDisplay_Drill_AmmoCount__304 -->
<g id="node14" class="node">
<title>ExecuteUbergraph_WeaponDisplay_Drill_AmmoCount__304</title>
<polygon fill="#eeeeee" stroke="black" points="2189.5,-341.5 2189.5,-469.5 2717.5,-469.5 2717.5,-341.5 2189.5,-341.5"/>
<text text-anchor="start" x="2197.5" y="-454.3" font-family="monospace" font-size="14.00">EX_Let</text>
<text text-anchor="start" x="2197.5" y="-439.3" font-family="monospace" font-size="14.00">  EX_LocalVariable [CallFunc_Format_ReturnValue]</text>
<text text-anchor="start" x="2197.5" y="-424.3" font-family="monospace" font-size="14.00">  EX_CallMath import /Script/Engine&#45;&gt;KismetTextLibrary&#45;&gt;Format</text>
<text text-anchor="start" x="2197.5" y="-409.3" font-family="monospace" font-size="14.00">    EX_TextConst</text>
<text text-anchor="start" x="2197.5" y="-394.3" font-family="monospace" font-size="14.00">      SourceString = {amount}L</text>
<text text-anchor="start" x="2197.5" y="-379.3" font-family="monospace" font-size="14.00">      LocalizedKey = B1D041FF4298D846C315CF84E3AF4758</text>
<text text-anchor="start" x="2197.5" y="-364.3" font-family="monospace" font-size="14.00">      LocalizedNamespace = </text>
<text text-anchor="start" x="2197.5" y="-349.3" font-family="monospace" font-size="14.00">    EX_LocalVariable [K2Node_MakeArray_Array]</text>
</g>
<!-- ExecuteUbergraph_WeaponDisplay_Drill_AmmoCount__284&#45;&gt;ExecuteUbergraph_WeaponDisplay_Drill_AmmoCount__304 -->
<g id="edge11" class="edge">
<title>ExecuteUbergraph_WeaponDisplay_Drill_AmmoCount__284&#45;&gt;ExecuteUbergraph_WeaponDisplay_Drill_AmmoCount__304</title>
<path fill="none" stroke="black" d="M2394.48,-506.6C2399.26,-498.49 2404.81,-489.07 2410.56,-479.32"/>
<polygon fill="black" stroke="black" points="2413.53,-481.18 2415.59,-470.79 2407.5,-477.63 2413.53,-481.18"/>
</g>
<!-- ExecuteUbergraph_WeaponDisplay_Drill_AmmoCount__390 -->
<g id="node15" class="node">
<title>ExecuteUbergraph_WeaponDisplay_Drill_AmmoCount__390</title>
<polygon fill="#eeeeee" stroke="black" points="2388,-221.5 2388,-304.5 2817,-304.5 2817,-221.5 2388,-221.5"/>
<text text-anchor="start" x="2396" y="-289.3" font-family="monospace" font-size="14.00">EX_Context</text>
<text text-anchor="start" x="2396" y="-274.3" font-family="monospace" font-size="14.00">  EX_InstanceVariable [AmmoCount]</text>
<text text-anchor="start" x="2396" y="-259.3" font-family="monospace" font-size="14.00">  EX_VirtualFunction SetText</text>
<text text-anchor="start" x="2396" y="-244.3" font-family="monospace" font-size="14.00">    EX_LocalVariable [CallFunc_Format_ReturnValue]</text>
<text text-anchor="start" x="2396" y="-229.3" font-family="monospace" font-size="14.00">  RValue = []</text>
</g>
<!-- ExecuteUbergraph_WeaponDisplay_Drill_AmmoCount__304&#45;&gt;ExecuteUbergraph_WeaponDisplay_Drill_AmmoCount__390 -->
<g id="edge12" class="edge">
<title>ExecuteUbergraph_WeaponDisplay_Drill_AmmoCount__304&#45;&gt;ExecuteUbergraph_WeaponDisplay_Drill_AmmoCount__390</title>
<path fill="none" stroke="black" d="M2520.16,-341.65C2530.69,-331.71 2541.43,-321.58 2551.53,-312.06"/>
<polygon fill="black" stroke="black" points="2553.87,-314.66 2558.75,-305.26 2549.07,-309.57 2553.87,-314.66"/>
</g>
<!-- ExecuteUbergraph_WeaponDisplay_Drill_AmmoCount__435 -->
<g id="node16" class="node">
<title>ExecuteUbergraph_WeaponDisplay_Drill_AmmoCount__435</title>
<polygon fill="#eeeeee" stroke="black" points="2527,-148.5 2527,-184.5 2882,-184.5 2882,-148.5 2527,-148.5"/>
<text text-anchor="start" x="2535" y="-162.8" font-family="monospace" font-size="14.00">EX_LocalVirtualFunction AdjustProgressBar</text>
</g>
<!-- ExecuteUbergraph_WeaponDisplay_Drill_AmmoCount__390&#45;&gt;ExecuteUbergraph_WeaponDisplay_Drill_AmmoCount__435 -->
<g id="edge13" class="edge">
<title>ExecuteUbergraph_WeaponDisplay_Drill_AmmoCount__390&#45;&gt;ExecuteUbergraph_WeaponDisplay_Drill_AmmoCount__435</title>
<path fill="none" stroke="black" d="M2646.05,-221.65C2656.83,-211.66 2668.06,-201.26 2677.77,-192.27"/>
<polygon fill="black" stroke="black" points="2680.13,-194.85 2685.08,-185.49 2675.37,-189.72 2680.13,-194.85"/>
</g>
<!-- ExecuteUbergraph_WeaponDisplay_Drill_AmmoCount__449 -->
<g id="node17" class="node">
<title>ExecuteUbergraph_WeaponDisplay_Drill_AmmoCount__449</title>
<polygon fill="#eeeeee" stroke="black" points="2764,-75.5 2764,-111.5 2871,-111.5 2871,-75.5 2764,-75.5"/>
<text text-anchor="start" x="2772" y="-89.8" font-family="monospace" font-size="14.00">EX_Jump 495</text>
</g>
<!-- ExecuteUbergraph_WeaponDisplay_Drill_AmmoCount__435&#45;&gt;ExecuteUbergraph_WeaponDisplay_Drill_AmmoCount__449 -->
<g id="edge14" class="edge">
<title>ExecuteUbergraph_WeaponDisplay_Drill_AmmoCount__435&#45;&gt;ExecuteUbergraph_WeaponDisplay_Drill_AmmoCount__449</title>
<path fill="none" stroke="black" d="M2731.28,-148.67C2746.09,-139.37 2764.71,-127.67 2780.85,-117.53"/>
<polygon fill="black" stroke="black" points="2782.63,-120.54 2789.24,-112.26 2778.91,-114.61 2782.63,-120.54"/>
</g>
<!-- ExecuteUbergraph_WeaponDisplay_Drill_AmmoCount__449&#45;&gt;ExecuteUbergraph_WeaponDisplay_Drill_AmmoCount__495 -->
<g id="edge15" class="edge">
<title>ExecuteUbergraph_WeaponDisplay_Drill_AmmoCount__449&#45;&gt;ExecuteUbergraph_WeaponDisplay_Drill_AmmoCount__495</title>
<path fill="none" stroke="black" d="M2863.22,-75.62C2890.07,-65.7 2924.3,-53.07 2953.21,-42.39"/>
<polygon fill="black" stroke="black" points="2954.41,-45.68 2962.58,-38.93 2951.99,-39.11 2954.41,-45.68"/>
</g>
<!-- ExecuteUbergraph_WeaponDisplay_Drill_AmmoCount__454 -->
<g id="node18" class="node">
<title>ExecuteUbergraph_WeaponDisplay_Drill_AmmoCount__454</title>
<polygon fill="#eeeeee" stroke="black" points="2843.5,-1414 2843.5,-1467 3181.5,-1467 3181.5,-1414 2843.5,-1414"/>
<text text-anchor="start" x="2851.5" y="-1451.8" font-family="monospace" font-size="14.00">EX_Let</text>
<text text-anchor="start" x="2851.5" y="-1436.8" font-family="monospace" font-size="14.00">  EX_InstanceVariable [TotalClipCount]</text>
<text text-anchor="start" x="2851.5" y="-1421.8" font-family="monospace" font-size="14.00">  EX_LocalVariable [K2Node_Event_Value]</text>
</g>
<!-- ExecuteUbergraph_WeaponDisplay_Drill_AmmoCount__481 -->
<g id="node19" class="node">
<title>ExecuteUbergraph_WeaponDisplay_Drill_AmmoCount__481</title>
<polygon fill="#eeeeee" stroke="black" points="2835,-245 2835,-281 3190,-281 3190,-245 2835,-245"/>
<text text-anchor="start" x="2843" y="-259.3" font-family="monospace" font-size="14.00">EX_LocalVirtualFunction AdjustProgressBar</text>
</g>
<!-- ExecuteUbergraph_WeaponDisplay_Drill_AmmoCount__454&#45;&gt;ExecuteUbergraph_WeaponDisplay_Drill_AmmoCount__481 -->
<g id="edge16" class="edge">
<title>ExecuteUbergraph_WeaponDisplay_Drill_AmmoCount__454&#45;&gt;ExecuteUbergraph_WeaponDisplay_Drill_AmmoCount__481</title>
<path fill="none" stroke="black" d="M3012.5,-1414.05C3012.5,-1365.45 3012.5,-1256.07 3012.5,-1164 3012.5,-1164 3012.5,-1164 3012.5,-532 3012.5,-444.68 3012.5,-341.37 3012.5,-292.43"/>
<polygon fill="black" stroke="black" points="3016,-292.45 3012.5,-282.45 3009,-292.45 3016,-292.45"/>
</g>
<!-- ExecuteUbergraph_WeaponDisplay_Drill_AmmoCount__481&#45;&gt;ExecuteUbergraph_WeaponDisplay_Drill_AmmoCount__495 -->
<g id="edge17" class="edge">
<title>ExecuteUbergraph_WeaponDisplay_Drill_AmmoCount__481&#45;&gt;ExecuteUbergraph_WeaponDisplay_Drill_AmmoCount__495</title>
<path fill="none" stroke="black" d="M3012.5,-245.02C3012.5,-204.35 3012.5,-100.98 3012.5,-49.94"/>
<polygon fill="black" stroke="black" points="3016,-49.95 3012.5,-39.95 3009,-49.95 3016,-49.95"/>
</g>
<!-- ExecuteUbergraph_WeaponDisplay_Drill_AmmoCount__497 -->
<g id="node21" class="node">
<title>ExecuteUbergraph_WeaponDisplay_Drill_AmmoCount__497</title>
<polygon fill="#eeeeee" stroke="black" points="3548.5,-927.5 3548.5,-963.5 3680.5,-963.5 3680.5,-927.5 3548.5,-927.5"/>
<text text-anchor="start" x="3556.5" y="-941.8" font-family="monospace" font-size="14.00">EX_EndOfScript</text>
</g>
<!-- Construct -->
<g id="node22" class="node">
<title>Construct</title>
<polygon fill="#ff8888" stroke="black" points="3082,-1850 3082,-1886 3247,-1886 3247,-1850 3082,-1850"/>
<text text-anchor="start" x="3090" y="-1864.3" font-family="monospace" font-size="14.00">Function Construct</text>
</g>
<!-- Construct__0 -->
<g id="node23" class="node">
<title>Construct__0</title>
<polygon fill="#eeeeee" stroke="black" points="2710.5,-1639 2710.5,-1677 3618.5,-1677 3618.5,-1639 2710.5,-1639"/>
<text text-anchor="start" x="2718.5" y="-1661.8" font-family="monospace" font-size="14.00">EX_LocalFinalFunction export WeaponDisplay_Drill_AmmoCount_C&#45;&gt;ExecuteUbergraph_WeaponDisplay_Drill_AmmoCount</text>
<text text-anchor="start" x="2718.5" y="-1646.8" font-family="monospace" font-size="14.00">  EX_IntConst 10</text>
</g>
<!-- Construct&#45;&gt;Construct__0 -->
<g id="edge18" class="edge">
<title>Construct&#45;&gt;Construct__0</title>
<path fill="none" stroke="black" d="M3164.5,-1850.33C3164.5,-1815.08 3164.5,-1732.61 3164.5,-1688.33"/>
<polygon fill="black" stroke="black" points="3168,-1688.44 3164.5,-1678.44 3161,-1688.44 3168,-1688.44"/>
</g>
<!-- Construct__0&#45;&gt;ExecuteUbergraph_WeaponDisplay_Drill_AmmoCount__10 -->
<g id="edge19" class="edge">
<title>Construct__0:e&#45;&gt;ExecuteUbergraph_WeaponDisplay_Drill_AmmoCount__10</title>
<path fill="none" stroke="red" d="M3619.5,-1658C3628.18,-1658 3620.7,-1646.89 3618.5,-1638.5 3593.7,-1543.91 3520.5,-1539.29 3520.5,-1441.5 3520.5,-1441.5 3520.5,-1441.5 3520.5,-629.5 3520.5,-555.45 3482.88,-474.44 3460.93,-433.47"/>
<polygon fill="none" stroke="red" points="3464.06,-431.89 3456.19,-424.8 3457.92,-435.25 3464.06,-431.89"/>
</g>
<!-- Construct__15 -->
<g id="node24" class="node">
<title>Construct__15</title>
<polygon fill="#eeeeee" stroke="black" points="3106.5,-1526.5 3106.5,-1564.5 3222.5,-1564.5 3222.5,-1526.5 3106.5,-1526.5"/>
<text text-anchor="start" x="3114.5" y="-1549.3" font-family="monospace" font-size="14.00">EX_Return</text>
<text text-anchor="start" x="3114.5" y="-1534.3" font-family="monospace" font-size="14.00">  EX_Nothing</text>
</g>
<!-- Construct__0&#45;&gt;Construct__15 -->
<g id="edge20" class="edge">
<title>Construct__0&#45;&gt;Construct__15</title>
<path fill="none" stroke="black" d="M3164.5,-1639.25C3164.5,-1622.09 3164.5,-1595.8 3164.5,-1575.58"/>
<polygon fill="black" stroke="black" points="3168,-1575.72 3164.5,-1565.72 3161,-1575.72 3168,-1575.72"/>
</g>
<!-- Construct__17 -->
<g id="node25" class="node">
<title>Construct__17</title>
<polygon fill="#eeeeee" stroke="black" points="3548.5,-822.5 3548.5,-858.5 3680.5,-858.5 3680.5,-822.5 3548.5,-822.5"/>
<text text-anchor="start" x="3556.5" y="-836.8" font-family="monospace" font-size="14.00">EX_EndOfScript</text>
</g>
<!-- SetTotalCount -->
<g id="node26" class="node">
<title>SetTotalCount</title>
<polygon fill="#ff8888" stroke="black" points="2246.5,-1841.5 2246.5,-1894.5 2716.5,-1894.5 2716.5,-1841.5 2246.5,-1841.5"/>
<text text-anchor="start" x="2254.5" y="-1879.3" font-family="monospace" font-size="14.00">Function SetTotalCount</text>
<text text-anchor="start" x="2254.5" y="-1864.3" font-family="monospace" font-size="14.00">  IntProperty Value</text>
<text text-anchor="start" x="2254.5" y="-1849.3" font-family="monospace" font-size="14.00">    CPF_BlueprintVisible|CPF_BlueprintReadOnly|CPF_Parm</text>
</g>
<!-- SetTotalCount__0 -->
<g id="node27" class="node">
<title>SetTotalCount__0</title>
<polygon fill="#eeeeee" stroke="black" points="2271,-1639 2271,-1677 2692,-1677 2692,-1639 2271,-1639"/>
<text text-anchor="start" x="2279" y="-1661.8" font-family="monospace" font-size="14.00">EX_LetValueOnPersistentFrame [K2Node_Event_Value]</text>
<text text-anchor="start" x="2279" y="-1646.8" font-family="monospace" font-size="14.00">  EX_LocalVariable [Value]</text>
</g>
<!-- SetTotalCount&#45;&gt;SetTotalCount__0 -->
<g id="edge21" class="edge">
<title>SetTotalCount&#45;&gt;SetTotalCount__0</title>
<path fill="none" stroke="black" d="M2481.5,-1841.91C2481.5,-1803.25 2481.5,-1729.28 2481.5,-1688.25"/>
<polygon fill="black" stroke="black" points="2485,-1688.4 2481.5,-1678.4 2478,-1688.4 2485,-1688.4"/>
</g>
<!-- SetTotalCount__18 -->
<g id="node28" class="node">
<title>SetTotalCount__18</title>
<polygon fill="#eeeeee" stroke="black" points="2104.5,-1526.5 2104.5,-1564.5 3012.5,-1564.5 3012.5,-1526.5 2104.5,-1526.5"/>
<text text-anchor="start" x="2112.5" y="-1549.3" font-family="monospace" font-size="14.00">EX_LocalFinalFunction export WeaponDisplay_Drill_AmmoCount_C&#45;&gt;ExecuteUbergraph_WeaponDisplay_Drill_AmmoCount</text>
<text text-anchor="start" x="2112.5" y="-1534.3" font-family="monospace" font-size="14.00">  EX_IntConst 454</text>
</g>
<!-- SetTotalCount__0&#45;&gt;SetTotalCount__18 -->
<g id="edge22" class="edge">
<title>SetTotalCount__0&#45;&gt;SetTotalCount__18</title>
<path fill="none" stroke="black" d="M2493.87,-1639.25C2506.22,-1621.53 2525.36,-1594.06 2539.61,-1573.61"/>
<polygon fill="black" stroke="black" points="2542.45,-1575.66 2545.29,-1565.45 2536.71,-1571.65 2542.45,-1575.66"/>
</g>
<!-- SetTotalCount__18&#45;&gt;ExecuteUbergraph_WeaponDisplay_Drill_AmmoCount__454 -->
<g id="edge23" class="edge">
<title>SetTotalCount__18:e&#45;&gt;ExecuteUbergraph_WeaponDisplay_Drill_AmmoCount__454</title>
<path fill="none" stroke="red" d="M3013.5,-1545.5C3041.4,-1545.5 3035.26,-1507.61 3026,-1477.57"/>
<polygon fill="none" stroke="red" points="3029.43,-1476.79 3022.98,-1468.38 3022.78,-1478.97 3029.43,-1476.79"/>
</g>
<!-- SetTotalCount__33 -->
<g id="node29" class="node">
<title>SetTotalCount__33</title>
<polygon fill="#eeeeee" stroke="black" points="2500.5,-1421.5 2500.5,-1459.5 2616.5,-1459.5 2616.5,-1421.5 2500.5,-1421.5"/>
<text text-anchor="start" x="2508.5" y="-1444.3" font-family="monospace" font-size="14.00">EX_Return</text>
<text text-anchor="start" x="2508.5" y="-1429.3" font-family="monospace" font-size="14.00">  EX_Nothing</text>
</g>
<!-- SetTotalCount__18&#45;&gt;SetTotalCount__33 -->
<g id="edge24" class="edge">
<title>SetTotalCount__18&#45;&gt;SetTotalCount__33</title>
<path fill="none" stroke="black" d="M2558.5,-1526.56C2558.5,-1511.12 2558.5,-1488.57 2558.5,-1470.56"/>
<polygon fill="black" stroke="black" points="2562,-1470.75 2558.5,-1460.75 2555,-1470.75 2562,-1470.75"/>
</g>
<!-- SetTotalCount__35 -->
<g id="node30" class="node">
<title>SetTotalCount__35</title>
<polygon fill="#eeeeee" stroke="black" points="3548.5,-717.5 3548.5,-753.5 3680.5,-753.5 3680.5,-717.5 3548.5,-717.5"/>
<text text-anchor="start" x="3556.5" y="-731.8" font-family="monospace" font-size="14.00">EX_EndOfScript</text>
</g>
<!-- SetClipCount -->
<g id="node31" class="node">
<title>SetClipCount</title>
<polygon fill="#ff8888" stroke="black" points="1397.5,-1841.5 1397.5,-1894.5 1867.5,-1894.5 1867.5,-1841.5 1397.5,-1841.5"/>
<text text-anchor="start" x="1405.5" y="-1879.3" font-family="monospace" font-size="14.00">Function SetClipCount</text>
<text text-anchor="start" x="1405.5" y="-1864.3" font-family="monospace" font-size="14.00">  IntProperty Value</text>
<text text-anchor="start" x="1405.5" y="-1849.3" font-family="monospace" font-size="14.00">    CPF_BlueprintVisible|CPF_BlueprintReadOnly|CPF_Parm</text>
</g>
<!-- SetClipCount__0 -->
<g id="node32" class="node">
<title>SetClipCount__0</title>
<polygon fill="#eeeeee" stroke="black" points="1414,-1639 1414,-1677 1851,-1677 1851,-1639 1414,-1639"/>
<text text-anchor="start" x="1422" y="-1661.8" font-family="monospace" font-size="14.00">EX_LetValueOnPersistentFrame [K2Node_Event_Value_1]</text>
<text text-anchor="start" x="1422" y="-1646.8" font-family="monospace" font-size="14.00">  EX_LocalVariable [Value]</text>
</g>
<!-- SetClipCount&#45;&gt;SetClipCount__0 -->
<g id="edge25" class="edge">
<title>SetClipCount&#45;&gt;SetClipCount__0</title>
<path fill="none" stroke="black" d="M1632.5,-1841.91C1632.5,-1803.25 1632.5,-1729.28 1632.5,-1688.25"/>
<polygon fill="black" stroke="black" points="1636,-1688.4 1632.5,-1678.4 1629,-1688.4 1636,-1688.4"/>
</g>
<!-- SetClipCount__18 -->
<g id="node33" class="node">
<title>SetClipCount__18</title>
<polygon fill="#eeeeee" stroke="black" points="1178.5,-1526.5 1178.5,-1564.5 2086.5,-1564.5 2086.5,-1526.5 1178.5,-1526.5"/>
<text text-anchor="start" x="1186.5" y="-1549.3" font-family="monospace" font-size="14.00">EX_LocalFinalFunction export WeaponDisplay_Drill_AmmoCount_C&#45;&gt;ExecuteUbergraph_WeaponDisplay_Drill_AmmoCount</text>
<text text-anchor="start" x="1186.5" y="-1534.3" font-family="monospace" font-size="14.00">  EX_IntConst 15</text>
</g>
<!-- SetClipCount__0&#45;&gt;SetClipCount__18 -->
<g id="edge26" class="edge">
<title>SetClipCount__0&#45;&gt;SetClipCount__18</title>
<path fill="none" stroke="black" d="M1632.5,-1639.25C1632.5,-1622.09 1632.5,-1595.8 1632.5,-1575.58"/>
<polygon fill="black" stroke="black" points="1636,-1575.72 1632.5,-1565.72 1629,-1575.72 1636,-1575.72"/>
</g>
<!-- SetClipCount__18&#45;&gt;ExecuteUbergraph_WeaponDisplay_Drill_AmmoCount__15 -->
<g id="edge27" class="edge">
<title>SetClipCount__18:e&#45;&gt;ExecuteUbergraph_WeaponDisplay_Drill_AmmoCount__15</title>
<path fill="none" stroke="red" d="M2087.5,-1545.5C2103.24,-1545.5 2086.67,-1524.03 2095.5,-1511 2105.62,-1496.07 2120.09,-1483.38 2134.9,-1473.08"/>
<polygon fill="none" stroke="red" points="2136.45,-1476.25 2142.87,-1467.82 2132.59,-1470.41 2136.45,-1476.25"/>
</g>
<!-- SetClipCount__33 -->
<g id="node34" class="node">
<title>SetClipCount__33</title>
<polygon fill="#eeeeee" stroke="black" points="1574.5,-1421.5 1574.5,-1459.5 1690.5,-1459.5 1690.5,-1421.5 1574.5,-1421.5"/>
<text text-anchor="start" x="1582.5" y="-1444.3" font-family="monospace" font-size="14.00">EX_Return</text>
<text text-anchor="start" x="1582.5" y="-1429.3" font-family="monospace" font-size="14.00">  EX_Nothing</text>
</g>
<!-- SetClipCount__18&#45;&gt;SetClipCount__33 -->
<g id="edge28" class="edge">
<title>SetClipCount__18&#45;&gt;SetClipCount__33</title>
<path fill="none" stroke="black" d="M1632.5,-1526.56C1632.5,-1511.12 1632.5,-1488.57 1632.5,-1470.56"/>
<polygon fill="black" stroke="black" points="1636,-1470.75 1632.5,-1460.75 1629,-1470.75 1636,-1470.75"/>
</g>
<!-- SetClipCount__35 -->
<g id="node35" class="node">
<title>SetClipCount__35</title>
<polygon fill="#eeeeee" stroke="black" points="3548.5,-612.5 3548.5,-648.5 3680.5,-648.5 3680.5,-612.5 3548.5,-612.5"/>
<text text-anchor="start" x="3556.5" y="-626.8" font-family="monospace" font-size="14.00">EX_EndOfScript</text>
</g>
<!-- AdjustProgressBar -->
<g id="node36" class="node">
<title>AdjustProgressBar</title>
<polygon fill="#ff8888" stroke="black" points="3755.5,-1826.5 3755.5,-1909.5 4217.5,-1909.5 4217.5,-1826.5 3755.5,-1826.5"/>
<text text-anchor="start" x="3763.5" y="-1894.3" font-family="monospace" font-size="14.00">Function AdjustProgressBar</text>
<text text-anchor="start" x="3763.5" y="-1879.3" font-family="monospace" font-size="14.00">  IntProperty CallFunc_Max_ReturnValue</text>
<text text-anchor="start" x="3763.5" y="-1864.3" font-family="monospace" font-size="14.00">  FloatProperty CallFunc_Conv_IntToFloat_ReturnValue</text>
<text text-anchor="start" x="3763.5" y="-1849.3" font-family="monospace" font-size="14.00">  FloatProperty CallFunc_Conv_IntToFloat_ReturnValue_1</text>
<text text-anchor="start" x="3763.5" y="-1834.3" font-family="monospace" font-size="14.00">  FloatProperty CallFunc_Divide_FloatFloat_ReturnValue</text>
</g>
<!-- AdjustProgressBar__0 -->
<g id="node37" class="node">
<title>AdjustProgressBar__0</title>
<polygon fill="#eeeeee" stroke="black" points="3735,-1616.5 3735,-1699.5 4238,-1699.5 4238,-1616.5 3735,-1616.5"/>
<text text-anchor="start" x="3743" y="-1684.3" font-family="monospace" font-size="14.00">EX_Let</text>
<text text-anchor="start" x="3743" y="-1669.3" font-family="monospace" font-size="14.00">  EX_LocalVariable [CallFunc_Max_ReturnValue]</text>
<text text-anchor="start" x="3743" y="-1654.3" font-family="monospace" font-size="14.00">  EX_CallMath import /Script/Engine&#45;&gt;KismetMathLibrary&#45;&gt;Max</text>
<text text-anchor="start" x="3743" y="-1639.3" font-family="monospace" font-size="14.00">    EX_InstanceVariable [TotalClipCount]</text>
<text text-anchor="start" x="3743" y="-1624.3" font-family="monospace" font-size="14.00">    EX_IntConst 1</text>
</g>
<!-- AdjustProgressBar&#45;&gt;AdjustProgressBar__0 -->
<g id="edge29" class="edge">
<title>AdjustProgressBar&#45;&gt;AdjustProgressBar__0</title>
<path fill="none" stroke="black" d="M3986.5,-1826.9C3986.5,-1793.77 3986.5,-1746.52 3986.5,-1710.57"/>
<polygon fill="black" stroke="black" points="3990,-1710.85 3986.5,-1700.85 3983,-1710.85 3990,-1710.85"/>
</g>
<!-- AdjustProgressBar__42 -->
<g id="node38" class="node">
<title>AdjustProgressBar__42</title>
<polygon fill="#eeeeee" stroke="black" points="3685.5,-1511.5 3685.5,-1579.5 4287.5,-1579.5 4287.5,-1511.5 3685.5,-1511.5"/>
<text text-anchor="start" x="3693.5" y="-1564.3" font-family="monospace" font-size="14.00">EX_Let</text>
<text text-anchor="start" x="3693.5" y="-1549.3" font-family="monospace" font-size="14.00">  EX_LocalVariable [CallFunc_Conv_IntToFloat_ReturnValue]</text>
<text text-anchor="start" x="3693.5" y="-1534.3" font-family="monospace" font-size="14.00">  EX_CallMath import /Script/Engine&#45;&gt;KismetMathLibrary&#45;&gt;Conv_IntToFloat</text>
<text text-anchor="start" x="3693.5" y="-1519.3" font-family="monospace" font-size="14.00">    EX_InstanceVariable [CurrentClipCount]</text>
</g>
<!-- AdjustProgressBar__0&#45;&gt;AdjustProgressBar__42 -->
<g id="edge30" class="edge">
<title>AdjustProgressBar__0&#45;&gt;AdjustProgressBar__42</title>
<path fill="none" stroke="black" d="M3986.5,-1616.79C3986.5,-1608.31 3986.5,-1599.31 3986.5,-1590.69"/>
<polygon fill="black" stroke="black" points="3990,-1590.76 3986.5,-1580.76 3983,-1590.76 3990,-1590.76"/>
</g>
<!-- AdjustProgressBar__79 -->
<g id="node39" class="node">
<title>AdjustProgressBar__79</title>
<polygon fill="#eeeeee" stroke="black" points="3685.5,-1406.5 3685.5,-1474.5 4287.5,-1474.5 4287.5,-1406.5 3685.5,-1406.5"/>
<text text-anchor="start" x="3693.5" y="-1459.3" font-family="monospace" font-size="14.00">EX_Let</text>
<text text-anchor="start" x="3693.5" y="-1444.3" font-family="monospace" font-size="14.00">  EX_LocalVariable [CallFunc_Conv_IntToFloat_ReturnValue_1]</text>
<text text-anchor="start" x="3693.5" y="-1429.3" font-family="monospace" font-size="14.00">  EX_CallMath import /Script/Engine&#45;&gt;KismetMathLibrary&#45;&gt;Conv_IntToFloat</text>
<text text-anchor="start" x="3693.5" y="-1414.3" font-family="monospace" font-size="14.00">    EX_LocalVariable [CallFunc_Max_ReturnValue]</text>
</g>
<!-- AdjustProgressBar__42&#45;&gt;AdjustProgressBar__79 -->
<g id="edge31" class="edge">
<title>AdjustProgressBar__42&#45;&gt;AdjustProgressBar__79</title>
<path fill="none" stroke="black" d="M3986.5,-1511.63C3986.5,-1503.45 3986.5,-1494.55 3986.5,-1485.92"/>
<polygon fill="black" stroke="black" points="3990,-1485.93 3986.5,-1475.93 3983,-1485.93 3990,-1485.93"/>
</g>
<!-- AdjustProgressBar__116 -->
<g id="node40" class="node">
<title>AdjustProgressBar__116</title>
<polygon fill="#eeeeee" stroke="black" points="3677,-1264 3677,-1347 4296,-1347 4296,-1264 3677,-1264"/>
<text text-anchor="start" x="3685" y="-1331.8" font-family="monospace" font-size="14.00">EX_Let</text>
<text text-anchor="start" x="3685" y="-1316.8" font-family="monospace" font-size="14.00">  EX_LocalVariable [CallFunc_Divide_FloatFloat_ReturnValue]</text>
<text text-anchor="start" x="3685" y="-1301.8" font-family="monospace" font-size="14.00">  EX_CallMath import /Script/Engine&#45;&gt;KismetMathLibrary&#45;&gt;Divide_FloatFloat</text>
<text text-anchor="start" x="3685" y="-1286.8" font-family="monospace" font-size="14.00">    EX_LocalVariable [CallFunc_Conv_IntToFloat_ReturnValue]</text>
<text text-anchor="start" x="3685" y="-1271.8" font-family="monospace" font-size="14.00">    EX_LocalVariable [CallFunc_Conv_IntToFloat_ReturnValue_1]</text>
</g>
<!-- AdjustProgressBar__79&#45;&gt;AdjustProgressBar__116 -->
<g id="edge32" class="edge">
<title>AdjustProgressBar__79&#45;&gt;AdjustProgressBar__116</title>
<path fill="none" stroke="black" d="M3986.5,-1406.62C3986.5,-1391.87 3986.5,-1374.13 3986.5,-1357.7"/>
<polygon fill="black" stroke="black" points="3990,-1358.1 3986.5,-1348.1 3983,-1358.1 3990,-1358.1"/>
</g>
<!-- AdjustProgressBar__162 -->
<g id="node41" class="node">
<title>AdjustProgressBar__162</title>
<polygon fill="#eeeeee" stroke="black" points="3722.5,-1121.5 3722.5,-1204.5 4250.5,-1204.5 4250.5,-1121.5 3722.5,-1121.5"/>
<text text-anchor="start" x="3730.5" y="-1189.3" font-family="monospace" font-size="14.00">EX_Context</text>
<text text-anchor="start" x="3730.5" y="-1174.3" font-family="monospace" font-size="14.00">  EX_InstanceVariable [AmmoProgressBar]</text>
<text text-anchor="start" x="3730.5" y="-1159.3" font-family="monospace" font-size="14.00">  EX_FinalFunction import /Script/UMG&#45;&gt;ProgressBar&#45;&gt;SetPercent</text>
<text text-anchor="start" x="3730.5" y="-1144.3" font-family="monospace" font-size="14.00">    EX_LocalVariable [CallFunc_Divide_FloatFloat_ReturnValue]</text>
<text text-anchor="start" x="3730.5" y="-1129.3" font-family="monospace" font-size="14.00">  RValue = []</text>
</g>
<!-- AdjustProgressBar__116&#45;&gt;AdjustProgressBar__162 -->
<g id="edge33" class="edge">
<title>AdjustProgressBar__116&#45;&gt;AdjustProgressBar__162</title>
<path fill="none" stroke="black" d="M3986.5,-1264.24C3986.5,-1249.1 3986.5,-1231.67 3986.5,-1215.64"/>
<polygon fill="black" stroke="black" points="3990,-1215.78 3986.5,-1205.78 3983,-1215.78 3990,-1215.78"/>
</g>
<!-- AdjustProgressBar__203 -->
<g id="node42" class="node">
<title>AdjustProgressBar__203</title>
<polygon fill="#eeeeee" stroke="black" points="3928.5,-1031.5 3928.5,-1069.5 4044.5,-1069.5 4044.5,-1031.5 3928.5,-1031.5"/>
<text text-anchor="start" x="3936.5" y="-1054.3" font-family="monospace" font-size="14.00">EX_Return</text>
<text text-anchor="start" x="3936.5" y="-1039.3" font-family="monospace" font-size="14.00">  EX_Nothing</text>
</g>
<!-- AdjustProgressBar__162&#45;&gt;AdjustProgressBar__203 -->
<g id="edge34" class="edge">
<title>AdjustProgressBar__162&#45;&gt;AdjustProgressBar__203</title>
<path fill="none" stroke="black" d="M3986.5,-1121.79C3986.5,-1108.14 3986.5,-1093.16 3986.5,-1080.55"/>
<polygon fill="black" stroke="black" points="3990,-1080.82 3986.5,-1070.82 3983,-1080.82 3990,-1080.82"/>
</g>
<!-- AdjustProgressBar__205 -->
<g id="node43" class="node">
<title>AdjustProgressBar__205</title>
<polygon fill="#eeeeee" stroke="black" points="3548.5,-515 3548.5,-551 3680.5,-551 3680.5,-515 3548.5,-515"/>
<text text-anchor="start" x="3556.5" y="-529.3" font-family="monospace" font-size="14.00">EX_EndOfScript</text>
</g>
</g>
</svg>
