<?xml version="1.0" encoding="UTF-8" standalone="no"?>
<!DOCTYPE svg PUBLIC "-//W3C//DTD SVG 1.1//EN"
 "http://www.w3.org/Graphics/SVG/1.1/DTD/svg11.dtd">
<!-- Generated by graphviz version 7.0.1 (0)
 -->
<!-- Pages: 1 -->
<svg width="2884pt" height="1581pt"
 viewBox="0.00 0.00 2883.50 1581.00" xmlns="http://www.w3.org/2000/svg" xmlns:xlink="http://www.w3.org/1999/xlink">
<g id="graph0" class="graph" transform="scale(1 1) rotate(0) translate(4 1577)">
<polygon fill="white" stroke="none" points="-4,4 -4,-1577 2879.5,-1577 2879.5,4 -4,4"/>
<!-- BP_Collectible_Simple_C -->
<g id="node1" class="node">
<title>BP_Collectible_Simple_C</title>
<polygon fill="#88ff88" stroke="black" points="0,-1399.5 0,-1572.5 891,-1572.5 891,-1399.5 0,-1399.5"/>
<text text-anchor="start" x="8" y="-1557.3" font-family="monospace" font-size="14.00">ClassExport: BP_Collectible_Simple_C</text>
<text text-anchor="start" x="8" y="-1542.3" font-family="monospace" font-size="14.00">  SuperStruct: import /Game/GameElements/Resources/Collectibles/BP_Collectible_Base&#45;&gt;BP_Collectible_Base_C</text>
<text text-anchor="start" x="8" y="-1527.3" font-family="monospace" font-size="14.00">  Properties:</text>
<text text-anchor="start" x="8" y="-1512.3" font-family="monospace" font-size="14.00">    StructProperty UberGraphFrame</text>
<text text-anchor="start" x="8" y="-1497.3" font-family="monospace" font-size="14.00">      CPF_Transient|CPF_DuplicateTransient</text>
<text text-anchor="start" x="8" y="-1482.3" font-family="monospace" font-size="14.00">    ObjectProperty TerrainPlacement</text>
<text text-anchor="start" x="8" y="-1467.3" font-family="monospace" font-size="14.00">      CPF_BlueprintVisible|CPF_InstancedReference|CPF_NonTransactional</text>
<text text-anchor="start" x="8" y="-1452.3" font-family="monospace" font-size="14.00">    ObjectProperty PointLight</text>
<text text-anchor="start" x="8" y="-1437.3" font-family="monospace" font-size="14.00">      CPF_BlueprintVisible|CPF_InstancedReference|CPF_NonTransactional</text>
<text text-anchor="start" x="8" y="-1422.3" font-family="monospace" font-size="14.00">    ObjectProperty Mesh</text>
<text text-anchor="start" x="8" y="-1407.3" font-family="monospace" font-size="14.00">      CPF_BlueprintVisible|CPF_InstancedReference|CPF_NonTransactional</text>
</g>
<!-- ExecuteUbergraph_BP_Collectible_Simple -->
<g id="node2" class="node">
<title>ExecuteUbergraph_BP_Collectible_Simple</title>
<polygon fill="#ff8888" stroke="black" points="909.5,-1414.5 909.5,-1557.5 1421.5,-1557.5 1421.5,-1414.5 909.5,-1414.5"/>
<text text-anchor="start" x="917.5" y="-1542.3" font-family="monospace" font-size="14.00">Function ExecuteUbergraph_BP_Collectible_Simple</text>
<text text-anchor="start" x="917.5" y="-1527.3" font-family="monospace" font-size="14.00">  IntProperty EntryPoint</text>
<text text-anchor="start" x="917.5" y="-1512.3" font-family="monospace" font-size="14.00">    CPF_BlueprintVisible|CPF_BlueprintReadOnly|CPF_Parm</text>
<text text-anchor="start" x="917.5" y="-1497.3" font-family="monospace" font-size="14.00">  StructProperty CallFunc_K2_GetActorLocation_ReturnValue</text>
<text text-anchor="start" x="917.5" y="-1482.3" font-family="monospace" font-size="14.00">  StructProperty CallFunc_K2_GetActorRotation_ReturnValue</text>
<text text-anchor="start" x="917.5" y="-1467.3" font-family="monospace" font-size="14.00">  ObjectProperty CallFunc_SpawnSoundAtLocation_ReturnValue</text>
<text text-anchor="start" x="917.5" y="-1452.3" font-family="monospace" font-size="14.00">    CPF_InstancedReference</text>
<text text-anchor="start" x="917.5" y="-1437.3" font-family="monospace" font-size="14.00">  ObjectProperty CallFunc_SpawnEmitterAtLocation_ReturnValue</text>
<text text-anchor="start" x="917.5" y="-1422.3" font-family="monospace" font-size="14.00">    CPF_InstancedReference</text>
</g>
<!-- ExecuteUbergraph_BP_Collectible_Simple__0 -->
<g id="node3" class="node">
<title>ExecuteUbergraph_BP_Collectible_Simple__0</title>
<polygon fill="#eeeeee" stroke="black" points="1058,-1288.5 1058,-1324.5 1273,-1324.5 1273,-1288.5 1058,-1288.5"/>
<text text-anchor="start" x="1066" y="-1302.8" font-family="monospace" font-size="14.00">EX_PushExecutionFlow 339</text>
</g>
<!-- ExecuteUbergraph_BP_Collectible_Simple&#45;&gt;ExecuteUbergraph_BP_Collectible_Simple__0 -->
<g id="edge1" class="edge">
<title>ExecuteUbergraph_BP_Collectible_Simple&#45;&gt;ExecuteUbergraph_BP_Collectible_Simple__0</title>
<path fill="none" stroke="black" d="M1165.5,-1414.59C1165.5,-1387.08 1165.5,-1357.11 1165.5,-1335.89"/>
<polygon fill="black" stroke="black" points="1169,-1336.01 1165.5,-1326.01 1162,-1336.01 1169,-1336.01"/>
</g>
<!-- ExecuteUbergraph_BP_Collectible_Simple__5 -->
<g id="node4" class="node">
<title>ExecuteUbergraph_BP_Collectible_Simple__5</title>
<polygon fill="#eeeeee" stroke="black" points="977.5,-1175.5 977.5,-1213.5 1249.5,-1213.5 1249.5,-1175.5 977.5,-1175.5"/>
<text text-anchor="start" x="985.5" y="-1198.3" font-family="monospace" font-size="14.00">EX_ComputedJump</text>
<text text-anchor="start" x="985.5" y="-1183.3" font-family="monospace" font-size="14.00">  EX_LocalVariable [EntryPoint]</text>
</g>
<!-- ExecuteUbergraph_BP_Collectible_Simple__0&#45;&gt;ExecuteUbergraph_BP_Collectible_Simple__5 -->
<g id="edge3" class="edge">
<title>ExecuteUbergraph_BP_Collectible_Simple__0&#45;&gt;ExecuteUbergraph_BP_Collectible_Simple__5</title>
<path fill="none" stroke="black" d="M1157.6,-1288.79C1149.46,-1271.57 1136.62,-1244.41 1126.89,-1223.83"/>
<polygon fill="black" stroke="black" points="1130.08,-1222.38 1122.64,-1214.83 1123.75,-1225.37 1130.08,-1222.38"/>
</g>
<!-- ExecuteUbergraph_BP_Collectible_Simple__339 -->
<g id="node16" class="node">
<title>ExecuteUbergraph_BP_Collectible_Simple__339</title>
<polygon fill="#eeeeee" stroke="black" points="1267.5,-1175.5 1267.5,-1213.5 1383.5,-1213.5 1383.5,-1175.5 1267.5,-1175.5"/>
<text text-anchor="start" x="1275.5" y="-1198.3" font-family="monospace" font-size="14.00">EX_Return</text>
<text text-anchor="start" x="1275.5" y="-1183.3" font-family="monospace" font-size="14.00">  EX_Nothing</text>
</g>
<!-- ExecuteUbergraph_BP_Collectible_Simple__0&#45;&gt;ExecuteUbergraph_BP_Collectible_Simple__339 -->
<g id="edge2" class="edge">
<title>ExecuteUbergraph_BP_Collectible_Simple__0:e&#45;&gt;ExecuteUbergraph_BP_Collectible_Simple__339</title>
<path fill="none" stroke="red" d="M1274.5,-1306.5C1283.87,-1306.5 1278.73,-1295.58 1282.5,-1287 1291.97,-1265.48 1303.3,-1241.42 1311.95,-1223.38"/>
<polygon fill="none" stroke="red" points="1314.99,-1225.15 1316.17,-1214.63 1308.68,-1222.12 1314.99,-1225.15"/>
<text text-anchor="middle" x="1349" y="-1246.8" font-family="monospace" font-size="14.00">PUSH STACK</text>
</g>
<!-- ExecuteUbergraph_BP_Collectible_Simple__15 -->
<g id="node5" class="node">
<title>ExecuteUbergraph_BP_Collectible_Simple__15</title>
<polygon fill="#eeeeee" stroke="black" points="1960.5,-935.5 1960.5,-1063.5 2480.5,-1063.5 2480.5,-935.5 1960.5,-935.5"/>
<text text-anchor="start" x="1968.5" y="-1048.3" font-family="monospace" font-size="14.00">EX_CallMath import /Script/Engine&#45;&gt;KismetSystemLibrary&#45;&gt;Delay</text>
<text text-anchor="start" x="1968.5" y="-1033.3" font-family="monospace" font-size="14.00">  EX_Self</text>
<text text-anchor="start" x="1968.5" y="-1018.3" font-family="monospace" font-size="14.00">  EX_FloatConst 0.16</text>
<text text-anchor="start" x="1968.5" y="-1003.3" font-family="monospace" font-size="14.00">  EX_StructConst import /Script/Engine&#45;&gt;LatentActionInfo</text>
<text text-anchor="start" x="1968.5" y="-988.3" font-family="monospace" font-size="14.00">    EX_SkipOffsetConst 70</text>
<text text-anchor="start" x="1968.5" y="-973.3" font-family="monospace" font-size="14.00">    EX_IntConst &#45;57403876</text>
<text text-anchor="start" x="1968.5" y="-958.3" font-family="monospace" font-size="14.00">    EX_NameConst ExecuteUbergraph_BP_Collectible_Simple</text>
<text text-anchor="start" x="1968.5" y="-943.3" font-family="monospace" font-size="14.00">    EX_Self</text>
</g>
<!-- ExecuteUbergraph_BP_Collectible_Simple__69 -->
<g id="node6" class="node">
<title>ExecuteUbergraph_BP_Collectible_Simple__69</title>
<polygon fill="#eeeeee" stroke="black" points="2061,-830.5 2061,-866.5 2234,-866.5 2234,-830.5 2061,-830.5"/>
<text text-anchor="start" x="2069" y="-844.8" font-family="monospace" font-size="14.00">EX_PopExecutionFlow</text>
</g>
<!-- ExecuteUbergraph_BP_Collectible_Simple__15&#45;&gt;ExecuteUbergraph_BP_Collectible_Simple__69 -->
<g id="edge5" class="edge">
<title>ExecuteUbergraph_BP_Collectible_Simple__15&#45;&gt;ExecuteUbergraph_BP_Collectible_Simple__69</title>
<path fill="none" stroke="black" d="M2189.75,-935.74C2179.59,-915 2168.81,-893 2160.69,-876.42"/>
<polygon fill="black" stroke="black" points="2163.97,-875.17 2156.43,-867.73 2157.69,-878.25 2163.97,-875.17"/>
</g>
<!-- ExecuteUbergraph_BP_Collectible_Simple__70 -->
<g id="node7" class="node">
<title>ExecuteUbergraph_BP_Collectible_Simple__70</title>
<polygon fill="#eeeeee" stroke="black" points="2252.5,-799.5 2252.5,-897.5 2854.5,-897.5 2854.5,-799.5 2252.5,-799.5"/>
<text text-anchor="start" x="2260.5" y="-882.3" font-family="monospace" font-size="14.00">EX_Context</text>
<text text-anchor="start" x="2260.5" y="-867.3" font-family="monospace" font-size="14.00">  EX_InstanceVariable [Mesh]</text>
<text text-anchor="start" x="2260.5" y="-852.3" font-family="monospace" font-size="14.00">  EX_FinalFunction import /Script/Engine&#45;&gt;SceneComponent&#45;&gt;SetVisibility</text>
<text text-anchor="start" x="2260.5" y="-837.3" font-family="monospace" font-size="14.00">    EX_False</text>
<text text-anchor="start" x="2260.5" y="-822.3" font-family="monospace" font-size="14.00">    EX_True</text>
<text text-anchor="start" x="2260.5" y="-807.3" font-family="monospace" font-size="14.00">  RValue = []</text>
</g>
<!-- ExecuteUbergraph_BP_Collectible_Simple__15&#45;&gt;ExecuteUbergraph_BP_Collectible_Simple__70 -->
<g id="edge4" class="edge">
<title>ExecuteUbergraph_BP_Collectible_Simple__15:e&#45;&gt;ExecuteUbergraph_BP_Collectible_Simple__70</title>
<path fill="none" stroke="red" d="M2481.5,-999.5C2523.7,-999.5 2541.19,-950.64 2548.42,-908.69"/>
<polygon fill="none" stroke="red" points="2551.87,-909.29 2549.93,-898.87 2544.95,-908.22 2551.87,-909.29"/>
</g>
<!-- ExecuteUbergraph_BP_Collectible_Simple__104 -->
<g id="node8" class="node">
<title>ExecuteUbergraph_BP_Collectible_Simple__104</title>
<polygon fill="#eeeeee" stroke="black" points="2264.5,-708.5 2264.5,-761.5 2842.5,-761.5 2842.5,-708.5 2264.5,-708.5"/>
<text text-anchor="start" x="2272.5" y="-746.3" font-family="monospace" font-size="14.00">EX_Let</text>
<text text-anchor="start" x="2272.5" y="-731.3" font-family="monospace" font-size="14.00">  EX_LocalVariable [CallFunc_K2_GetActorLocation_ReturnValue]</text>
<text text-anchor="start" x="2272.5" y="-716.3" font-family="monospace" font-size="14.00">  EX_FinalFunction import /Script/Engine&#45;&gt;Actor&#45;&gt;K2_GetActorLocation</text>
</g>
<!-- ExecuteUbergraph_BP_Collectible_Simple__70&#45;&gt;ExecuteUbergraph_BP_Collectible_Simple__104 -->
<g id="edge6" class="edge">
<title>ExecuteUbergraph_BP_Collectible_Simple__70&#45;&gt;ExecuteUbergraph_BP_Collectible_Simple__104</title>
<path fill="none" stroke="black" d="M2553.5,-799.57C2553.5,-790.66 2553.5,-781.48 2553.5,-772.97"/>
<polygon fill="black" stroke="black" points="2557,-772.98 2553.5,-762.98 2550,-772.98 2557,-772.98"/>
</g>
<!-- ExecuteUbergraph_BP_Collectible_Simple__132 -->
<g id="node9" class="node">
<title>ExecuteUbergraph_BP_Collectible_Simple__132</title>
<polygon fill="#eeeeee" stroke="black" points="2240,-467.5 2240,-670.5 2867,-670.5 2867,-467.5 2240,-467.5"/>
<text text-anchor="start" x="2248" y="-655.3" font-family="monospace" font-size="14.00">EX_LetObj</text>
<text text-anchor="start" x="2248" y="-640.3" font-family="monospace" font-size="14.00">  EX_LocalVariable [CallFunc_SpawnSoundAtLocation_ReturnValue]</text>
<text text-anchor="start" x="2248" y="-625.3" font-family="monospace" font-size="14.00">  EX_CallMath import /Script/Engine&#45;&gt;GameplayStatics&#45;&gt;SpawnSoundAtLocation</text>
<text text-anchor="start" x="2248" y="-610.3" font-family="monospace" font-size="14.00">    EX_Self</text>
<text text-anchor="start" x="2248" y="-595.3" font-family="monospace" font-size="14.00">    EX_InstanceVariable [PickupSound]</text>
<text text-anchor="start" x="2248" y="-580.3" font-family="monospace" font-size="14.00">    EX_LocalVariable [CallFunc_K2_GetActorLocation_ReturnValue]</text>
<text text-anchor="start" x="2248" y="-565.3" font-family="monospace" font-size="14.00">    EX_RotationConst 0,0,0</text>
<text text-anchor="start" x="2248" y="-550.3" font-family="monospace" font-size="14.00">    EX_FloatConst 1</text>
<text text-anchor="start" x="2248" y="-535.3" font-family="monospace" font-size="14.00">    EX_FloatConst 1</text>
<text text-anchor="start" x="2248" y="-520.3" font-family="monospace" font-size="14.00">    EX_FloatConst 0</text>
<text text-anchor="start" x="2248" y="-505.3" font-family="monospace" font-size="14.00">    EX_NoObject</text>
<text text-anchor="start" x="2248" y="-490.3" font-family="monospace" font-size="14.00">    EX_NoObject</text>
<text text-anchor="start" x="2248" y="-475.3" font-family="monospace" font-size="14.00">    EX_True</text>
</g>
<!-- ExecuteUbergraph_BP_Collectible_Simple__104&#45;&gt;ExecuteUbergraph_BP_Collectible_Simple__132 -->
<g id="edge7" class="edge">
<title>ExecuteUbergraph_BP_Collectible_Simple__104&#45;&gt;ExecuteUbergraph_BP_Collectible_Simple__132</title>
<path fill="none" stroke="black" d="M2553.5,-708.73C2553.5,-700.9 2553.5,-691.71 2553.5,-681.86"/>
<polygon fill="black" stroke="black" points="2557,-682 2553.5,-672 2550,-682 2557,-682"/>
</g>
<!-- ExecuteUbergraph_BP_Collectible_Simple__202 -->
<g id="node10" class="node">
<title>ExecuteUbergraph_BP_Collectible_Simple__202</title>
<polygon fill="#eeeeee" stroke="black" points="2264.5,-376.5 2264.5,-429.5 2842.5,-429.5 2842.5,-376.5 2264.5,-376.5"/>
<text text-anchor="start" x="2272.5" y="-414.3" font-family="monospace" font-size="14.00">EX_Let</text>
<text text-anchor="start" x="2272.5" y="-399.3" font-family="monospace" font-size="14.00">  EX_LocalVariable [CallFunc_K2_GetActorLocation_ReturnValue]</text>
<text text-anchor="start" x="2272.5" y="-384.3" font-family="monospace" font-size="14.00">  EX_FinalFunction import /Script/Engine&#45;&gt;Actor&#45;&gt;K2_GetActorLocation</text>
</g>
<!-- ExecuteUbergraph_BP_Collectible_Simple__132&#45;&gt;ExecuteUbergraph_BP_Collectible_Simple__202 -->
<g id="edge8" class="edge">
<title>ExecuteUbergraph_BP_Collectible_Simple__132&#45;&gt;ExecuteUbergraph_BP_Collectible_Simple__202</title>
<path fill="none" stroke="black" d="M2553.5,-467.88C2553.5,-458.29 2553.5,-449.05 2553.5,-440.72"/>
<polygon fill="black" stroke="black" points="2557,-440.74 2553.5,-430.74 2550,-440.74 2557,-440.74"/>
</g>
<!-- ExecuteUbergraph_BP_Collectible_Simple__230 -->
<g id="node11" class="node">
<title>ExecuteUbergraph_BP_Collectible_Simple__230</title>
<polygon fill="#eeeeee" stroke="black" points="2264.5,-285.5 2264.5,-338.5 2842.5,-338.5 2842.5,-285.5 2264.5,-285.5"/>
<text text-anchor="start" x="2272.5" y="-323.3" font-family="monospace" font-size="14.00">EX_Let</text>
<text text-anchor="start" x="2272.5" y="-308.3" font-family="monospace" font-size="14.00">  EX_LocalVariable [CallFunc_K2_GetActorRotation_ReturnValue]</text>
<text text-anchor="start" x="2272.5" y="-293.3" font-family="monospace" font-size="14.00">  EX_FinalFunction import /Script/Engine&#45;&gt;Actor&#45;&gt;K2_GetActorRotation</text>
</g>
<!-- ExecuteUbergraph_BP_Collectible_Simple__202&#45;&gt;ExecuteUbergraph_BP_Collectible_Simple__230 -->
<g id="edge9" class="edge">
<title>ExecuteUbergraph_BP_Collectible_Simple__202&#45;&gt;ExecuteUbergraph_BP_Collectible_Simple__230</title>
<path fill="none" stroke="black" d="M2553.5,-376.73C2553.5,-368.37 2553.5,-358.89 2553.5,-349.84"/>
<polygon fill="black" stroke="black" points="2557,-349.84 2553.5,-339.84 2550,-349.84 2557,-349.84"/>
</g>
<!-- ExecuteUbergraph_BP_Collectible_Simple__258 -->
<g id="node12" class="node">
<title>ExecuteUbergraph_BP_Collectible_Simple__258</title>
<polygon fill="#eeeeee" stroke="black" points="2231.5,-74.5 2231.5,-247.5 2875.5,-247.5 2875.5,-74.5 2231.5,-74.5"/>
<text text-anchor="start" x="2239.5" y="-232.3" font-family="monospace" font-size="14.00">EX_LetObj</text>
<text text-anchor="start" x="2239.5" y="-217.3" font-family="monospace" font-size="14.00">  EX_LocalVariable [CallFunc_SpawnEmitterAtLocation_ReturnValue]</text>
<text text-anchor="start" x="2239.5" y="-202.3" font-family="monospace" font-size="14.00">  EX_CallMath import /Script/Engine&#45;&gt;GameplayStatics&#45;&gt;SpawnEmitterAtLocation</text>
<text text-anchor="start" x="2239.5" y="-187.3" font-family="monospace" font-size="14.00">    EX_Self</text>
<text text-anchor="start" x="2239.5" y="-172.3" font-family="monospace" font-size="14.00">    EX_InstanceVariable [PickupParticles]</text>
<text text-anchor="start" x="2239.5" y="-157.3" font-family="monospace" font-size="14.00">    EX_LocalVariable [CallFunc_K2_GetActorLocation_ReturnValue]</text>
<text text-anchor="start" x="2239.5" y="-142.3" font-family="monospace" font-size="14.00">    EX_LocalVariable [CallFunc_K2_GetActorRotation_ReturnValue]</text>
<text text-anchor="start" x="2239.5" y="-127.3" font-family="monospace" font-size="14.00">    EX_VectorConst 1,1,1</text>
<text text-anchor="start" x="2239.5" y="-112.3" font-family="monospace" font-size="14.00">    EX_True</text>
<text text-anchor="start" x="2239.5" y="-97.3" font-family="monospace" font-size="14.00">    EX_ByteConst 0</text>
<text text-anchor="start" x="2239.5" y="-82.3" font-family="monospace" font-size="14.00">    EX_True</text>
</g>
<!-- ExecuteUbergraph_BP_Collectible_Simple__230&#45;&gt;ExecuteUbergraph_BP_Collectible_Simple__258 -->
<g id="edge10" class="edge">
<title>ExecuteUbergraph_BP_Collectible_Simple__230&#45;&gt;ExecuteUbergraph_BP_Collectible_Simple__258</title>
<path fill="none" stroke="black" d="M2553.5,-285.72C2553.5,-277.76 2553.5,-268.44 2553.5,-258.55"/>
<polygon fill="black" stroke="black" points="2557,-258.7 2553.5,-248.7 2550,-258.7 2557,-258.7"/>
</g>
<!-- ExecuteUbergraph_BP_Collectible_Simple__323 -->
<g id="node13" class="node">
<title>ExecuteUbergraph_BP_Collectible_Simple__323</title>
<polygon fill="#eeeeee" stroke="black" points="2467,-0.5 2467,-36.5 2640,-36.5 2640,-0.5 2467,-0.5"/>
<text text-anchor="start" x="2475" y="-14.8" font-family="monospace" font-size="14.00">EX_PopExecutionFlow</text>
</g>
<!-- ExecuteUbergraph_BP_Collectible_Simple__258&#45;&gt;ExecuteUbergraph_BP_Collectible_Simple__323 -->
<g id="edge11" class="edge">
<title>ExecuteUbergraph_BP_Collectible_Simple__258&#45;&gt;ExecuteUbergraph_BP_Collectible_Simple__323</title>
<path fill="none" stroke="black" d="M2553.5,-74.63C2553.5,-64.86 2553.5,-55.5 2553.5,-47.35"/>
<polygon fill="black" stroke="black" points="2557,-47.54 2553.5,-37.54 2550,-47.54 2557,-47.54"/>
</g>
<!-- ExecuteUbergraph_BP_Collectible_Simple__324 -->
<g id="node14" class="node">
<title>ExecuteUbergraph_BP_Collectible_Simple__324</title>
<polygon fill="#eeeeee" stroke="black" points="1705,-1176.5 1705,-1212.5 2736,-1212.5 2736,-1176.5 1705,-1176.5"/>
<text text-anchor="start" x="1713" y="-1190.8" font-family="monospace" font-size="14.00">EX_LocalFinalFunction import /Game/GameElements/Resources/Collectibles/BP_Collectible_Base&#45;&gt;BP_Collectible_Base_C&#45;&gt;PickedUp</text>
</g>
<!-- ExecuteUbergraph_BP_Collectible_Simple__334 -->
<g id="node15" class="node">
<title>ExecuteUbergraph_BP_Collectible_Simple__334</title>
<polygon fill="#eeeeee" stroke="black" points="2171,-1101.5 2171,-1137.5 2270,-1137.5 2270,-1101.5 2171,-1101.5"/>
<text text-anchor="start" x="2179" y="-1115.8" font-family="monospace" font-size="14.00">EX_Jump 15</text>
</g>
<!-- ExecuteUbergraph_BP_Collectible_Simple__324&#45;&gt;ExecuteUbergraph_BP_Collectible_Simple__334 -->
<g id="edge12" class="edge">
<title>ExecuteUbergraph_BP_Collectible_Simple__324&#45;&gt;ExecuteUbergraph_BP_Collectible_Simple__334</title>
<path fill="none" stroke="black" d="M2220.5,-1176.57C2220.5,-1168.28 2220.5,-1158.07 2220.5,-1148.65"/>
<polygon fill="black" stroke="black" points="2224,-1148.85 2220.5,-1138.85 2217,-1148.85 2224,-1148.85"/>
</g>
<!-- ExecuteUbergraph_BP_Collectible_Simple__334&#45;&gt;ExecuteUbergraph_BP_Collectible_Simple__15 -->
<g id="edge13" class="edge">
<title>ExecuteUbergraph_BP_Collectible_Simple__334&#45;&gt;ExecuteUbergraph_BP_Collectible_Simple__15</title>
<path fill="none" stroke="black" d="M2220.5,-1101.59C2220.5,-1094.14 2220.5,-1084.81 2220.5,-1074.86"/>
<polygon fill="black" stroke="black" points="2224,-1074.94 2220.5,-1064.94 2217,-1074.94 2224,-1074.94"/>
</g>
<!-- ExecuteUbergraph_BP_Collectible_Simple__341 -->
<g id="node17" class="node">
<title>ExecuteUbergraph_BP_Collectible_Simple__341</title>
<polygon fill="#eeeeee" stroke="black" points="1694.5,-1344.5 1694.5,-1380.5 1826.5,-1380.5 1826.5,-1344.5 1694.5,-1344.5"/>
<text text-anchor="start" x="1702.5" y="-1358.8" font-family="monospace" font-size="14.00">EX_EndOfScript</text>
</g>
<!-- PickedUp -->
<g id="node18" class="node">
<title>PickedUp</title>
<polygon fill="#ff8888" stroke="black" points="1601,-1468 1601,-1504 1758,-1504 1758,-1468 1601,-1468"/>
<text text-anchor="start" x="1609" y="-1482.3" font-family="monospace" font-size="14.00">Function PickedUp</text>
</g>
<!-- PickedUp__0 -->
<g id="node19" class="node">
<title>PickedUp__0</title>
<polygon fill="#eeeeee" stroke="black" points="1291.5,-1287.5 1291.5,-1325.5 2067.5,-1325.5 2067.5,-1287.5 1291.5,-1287.5"/>
<text text-anchor="start" x="1299.5" y="-1310.3" font-family="monospace" font-size="14.00">EX_LocalFinalFunction export BP_Collectible_Simple_C&#45;&gt;ExecuteUbergraph_BP_Collectible_Simple</text>
<text text-anchor="start" x="1299.5" y="-1295.3" font-family="monospace" font-size="14.00">  EX_IntConst 324</text>
</g>
<!-- PickedUp&#45;&gt;PickedUp__0 -->
<g id="edge14" class="edge">
<title>PickedUp&#45;&gt;PickedUp__0</title>
<path fill="none" stroke="black" d="M1679.5,-1468.3C1679.5,-1438.09 1679.5,-1374 1679.5,-1336.5"/>
<polygon fill="black" stroke="black" points="1683,-1336.85 1679.5,-1326.85 1676,-1336.85 1683,-1336.85"/>
</g>
<!-- PickedUp__0&#45;&gt;ExecuteUbergraph_BP_Collectible_Simple__324 -->
<g id="edge15" class="edge">
<title>PickedUp__0:e&#45;&gt;ExecuteUbergraph_BP_Collectible_Simple__324</title>
<path fill="none" stroke="red" d="M2068.5,-1306.5C2097.57,-1306.5 2159.65,-1252.88 2194.82,-1220.18"/>
<polygon fill="none" stroke="red" points="2197.15,-1222.79 2202.04,-1213.39 2192.36,-1217.69 2197.15,-1222.79"/>
</g>
<!-- PickedUp__15 -->
<g id="node20" class="node">
<title>PickedUp__15</title>
<polygon fill="#eeeeee" stroke="black" points="1570.5,-1175.5 1570.5,-1213.5 1686.5,-1213.5 1686.5,-1175.5 1570.5,-1175.5"/>
<text text-anchor="start" x="1578.5" y="-1198.3" font-family="monospace" font-size="14.00">EX_Return</text>
<text text-anchor="start" x="1578.5" y="-1183.3" font-family="monospace" font-size="14.00">  EX_Nothing</text>
</g>
<!-- PickedUp__0&#45;&gt;PickedUp__15 -->
<g id="edge16" class="edge">
<title>PickedUp__0&#45;&gt;PickedUp__15</title>
<path fill="none" stroke="black" d="M1671.31,-1287.83C1663.29,-1270.53 1650.94,-1243.91 1641.57,-1223.69"/>
<polygon fill="black" stroke="black" points="1644.86,-1222.47 1637.48,-1214.87 1638.51,-1225.41 1644.86,-1222.47"/>
</g>
<!-- PickedUp__17 -->
<g id="node21" class="node">
<title>PickedUp__17</title>
<polygon fill="#eeeeee" stroke="black" points="2184.5,-1232.5 2184.5,-1268.5 2316.5,-1268.5 2316.5,-1232.5 2184.5,-1232.5"/>
<text text-anchor="start" x="2192.5" y="-1246.8" font-family="monospace" font-size="14.00">EX_EndOfScript</text>
</g>
</g>
</svg>
