<?xml version="1.0" encoding="UTF-8" standalone="no"?>
<!DOCTYPE svg PUBLIC "-//W3C//DTD SVG 1.1//EN"
 "http://www.w3.org/Graphics/SVG/1.1/DTD/svg11.dtd">
<!-- Generated by graphviz version 7.0.1 (0)
 -->
<!-- Pages: 1 -->
<svg width="1886pt" height="302pt"
 viewBox="0.00 0.00 1886.00 302.00" xmlns="http://www.w3.org/2000/svg" xmlns:xlink="http://www.w3.org/1999/xlink">
<g id="graph0" class="graph" transform="scale(1 1) rotate(0) translate(4 298)">
<polygon fill="white" stroke="none" points="-4,4 -4,-298 1882,-298 1882,4 -4,4"/>
<!-- UI_KPI_Tab_C -->
<g id="node1" class="node">
<title>UI_KPI_Tab_C</title>
<polygon fill="#88ff88" stroke="black" points="0,-210.5 0,-263.5 388,-263.5 388,-210.5 0,-210.5"/>
<text text-anchor="start" x="8" y="-248.3" font-family="monospace" font-size="14.00">ClassExport: UI_KPI_Tab_C</text>
<text text-anchor="start" x="8" y="-233.3" font-family="monospace" font-size="14.00">  SuperStruct: import /Script/UMG&#45;&gt;UserWidget</text>
<text text-anchor="start" x="8" y="-218.3" font-family="monospace" font-size="14.00">  Properties:</text>
</g>
<!-- HandleKeyEvent -->
<g id="node2" class="node">
<title>HandleKeyEvent</title>
<polygon fill="#ff8888" stroke="black" points="406,-180.5 406,-293.5 876,-293.5 876,-180.5 406,-180.5"/>
<text text-anchor="start" x="414" y="-278.3" font-family="monospace" font-size="14.00">Function HandleKeyEvent</text>
<text text-anchor="start" x="414" y="-263.3" font-family="monospace" font-size="14.00">  StructProperty InKeyEvent</text>
<text text-anchor="start" x="414" y="-248.3" font-family="monospace" font-size="14.00">    CPF_BlueprintVisible|CPF_BlueprintReadOnly|CPF_Parm</text>
<text text-anchor="start" x="414" y="-233.3" font-family="monospace" font-size="14.00">  BoolProperty InUp</text>
<text text-anchor="start" x="414" y="-218.3" font-family="monospace" font-size="14.00">    CPF_BlueprintVisible|CPF_BlueprintReadOnly|CPF_Parm</text>
<text text-anchor="start" x="414" y="-203.3" font-family="monospace" font-size="14.00">  BoolProperty OutHandled</text>
<text text-anchor="start" x="414" y="-188.3" font-family="monospace" font-size="14.00">    CPF_Parm|CPF_OutParm</text>
</g>
<!-- HandleKeyEvent__0 -->
<g id="node3" class="node">
<title>HandleKeyEvent__0</title>
<polygon fill="#eeeeee" stroke="black" points="546,-75.5 546,-143.5 736,-143.5 736,-75.5 546,-75.5"/>
<text text-anchor="start" x="554" y="-128.3" font-family="monospace" font-size="14.00">EX_LetBool</text>
<text text-anchor="start" x="554" y="-113.3" font-family="monospace" font-size="14.00">  EX_LocalOutVariable</text>
<text text-anchor="start" x="554" y="-98.3" font-family="monospace" font-size="14.00">    [OutHandled]</text>
<text text-anchor="start" x="554" y="-83.3" font-family="monospace" font-size="14.00">  EX_False</text>
</g>
<!-- HandleKeyEvent&#45;&gt;HandleKeyEvent__0 -->
<g id="edge1" class="edge">
<title>HandleKeyEvent&#45;&gt;HandleKeyEvent__0</title>
<path fill="none" stroke="black" d="M641,-180.59C641,-171.93 641,-163.08 641,-154.72"/>
<polygon fill="black" stroke="black" points="644.5,-154.8 641,-144.8 637.5,-154.8 644.5,-154.8"/>
</g>
<!-- HandleKeyEvent__11 -->
<g id="node4" class="node">
<title>HandleKeyEvent__11</title>
<polygon fill="#eeeeee" stroke="black" points="583,-0.5 583,-38.5 699,-38.5 699,-0.5 583,-0.5"/>
<text text-anchor="start" x="591" y="-23.3" font-family="monospace" font-size="14.00">EX_Return</text>
<text text-anchor="start" x="591" y="-8.3" font-family="monospace" font-size="14.00">  EX_Nothing</text>
</g>
<!-- HandleKeyEvent__0&#45;&gt;HandleKeyEvent__11 -->
<g id="edge2" class="edge">
<title>HandleKeyEvent__0&#45;&gt;HandleKeyEvent__11</title>
<path fill="none" stroke="black" d="M641,-75.73C641,-67.2 641,-58.05 641,-49.72"/>
<polygon fill="black" stroke="black" points="644.5,-49.75 641,-39.75 637.5,-49.75 644.5,-49.75"/>
</g>
<!-- HandleKeyEvent__13 -->
<g id="node5" class="node">
<title>HandleKeyEvent__13</title>
<polygon fill="#eeeeee" stroke="black" points="910,-91.5 910,-127.5 1042,-127.5 1042,-91.5 910,-91.5"/>
<text text-anchor="start" x="918" y="-105.8" font-family="monospace" font-size="14.00">EX_EndOfScript</text>
</g>
<!-- HandleMouseEvent -->
<g id="node6" class="node">
<title>HandleMouseEvent</title>
<polygon fill="#ff8888" stroke="black" points="894.5,-180.5 894.5,-293.5 1727.5,-293.5 1727.5,-180.5 894.5,-180.5"/>
<text text-anchor="start" x="902.5" y="-278.3" font-family="monospace" font-size="14.00">Function HandleMouseEvent</text>
<text text-anchor="start" x="902.5" y="-263.3" font-family="monospace" font-size="14.00">  StructProperty InMouseEvent</text>
<text text-anchor="start" x="902.5" y="-248.3" font-family="monospace" font-size="14.00">    CPF_ConstParm|CPF_BlueprintVisible|CPF_BlueprintReadOnly|CPF_Parm|CPF_OutParm|CPF_ReferenceParm</text>
<text text-anchor="start" x="902.5" y="-233.3" font-family="monospace" font-size="14.00">  BoolProperty InUp</text>
<text text-anchor="start" x="902.5" y="-218.3" font-family="monospace" font-size="14.00">    CPF_BlueprintVisible|CPF_BlueprintReadOnly|CPF_Parm</text>
<text text-anchor="start" x="902.5" y="-203.3" font-family="monospace" font-size="14.00">  BoolProperty OutHandled</text>
<text text-anchor="start" x="902.5" y="-188.3" font-family="monospace" font-size="14.00">    CPF_Parm|CPF_OutParm</text>
</g>
<!-- HandleMouseEvent__0 -->
<g id="node7" class="node">
<title>HandleMouseEvent__0</title>
<polygon fill="#eeeeee" stroke="black" points="1216,-75.5 1216,-143.5 1406,-143.5 1406,-75.5 1216,-75.5"/>
<text text-anchor="start" x="1224" y="-128.3" font-family="monospace" font-size="14.00">EX_LetBool</text>
<text text-anchor="start" x="1224" y="-113.3" font-family="monospace" font-size="14.00">  EX_LocalOutVariable</text>
<text text-anchor="start" x="1224" y="-98.3" font-family="monospace" font-size="14.00">    [OutHandled]</text>
<text text-anchor="start" x="1224" y="-83.3" font-family="monospace" font-size="14.00">  EX_False</text>
</g>
<!-- HandleMouseEvent&#45;&gt;HandleMouseEvent__0 -->
<g id="edge3" class="edge">
<title>HandleMouseEvent&#45;&gt;HandleMouseEvent__0</title>
<path fill="none" stroke="black" d="M1311,-180.59C1311,-171.93 1311,-163.08 1311,-154.72"/>
<polygon fill="black" stroke="black" points="1314.5,-154.8 1311,-144.8 1307.5,-154.8 1314.5,-154.8"/>
</g>
<!-- HandleMouseEvent__11 -->
<g id="node8" class="node">
<title>HandleMouseEvent__11</title>
<polygon fill="#eeeeee" stroke="black" points="1253,-0.5 1253,-38.5 1369,-38.5 1369,-0.5 1253,-0.5"/>
<text text-anchor="start" x="1261" y="-23.3" font-family="monospace" font-size="14.00">EX_Return</text>
<text text-anchor="start" x="1261" y="-8.3" font-family="monospace" font-size="14.00">  EX_Nothing</text>
</g>
<!-- HandleMouseEvent__0&#45;&gt;HandleMouseEvent__11 -->
<g id="edge4" class="edge">
<title>HandleMouseEvent__0&#45;&gt;HandleMouseEvent__11</title>
<path fill="none" stroke="black" d="M1311,-75.73C1311,-67.2 1311,-58.05 1311,-49.72"/>
<polygon fill="black" stroke="black" points="1314.5,-49.75 1311,-39.75 1307.5,-49.75 1314.5,-49.75"/>
</g>
<!-- HandleMouseEvent__13 -->
<g id="node9" class="node">
<title>HandleMouseEvent__13</title>
<polygon fill="#eeeeee" stroke="black" points="1746,-219 1746,-255 1878,-255 1878,-219 1746,-219"/>
<text text-anchor="start" x="1754" y="-233.3" font-family="monospace" font-size="14.00">EX_EndOfScript</text>
</g>
</g>
</svg>
