<?xml version="1.0" encoding="UTF-8" standalone="no"?>
<!DOCTYPE svg PUBLIC "-//W3C//DTD SVG 1.1//EN"
 "http://www.w3.org/Graphics/SVG/1.1/DTD/svg11.dtd">
<!-- Generated by graphviz version 7.0.1 (0)
 -->
<!-- Pages: 1 -->
<svg width="3742pt" height="2095pt"
 viewBox="0.00 0.00 3742.00 2095.00" xmlns="http://www.w3.org/2000/svg" xmlns:xlink="http://www.w3.org/1999/xlink">
<g id="graph0" class="graph" transform="scale(1 1) rotate(0) translate(4 2091)">
<polygon fill="white" stroke="none" points="-4,4 -4,-2091 3738,-2091 3738,4 -4,4"/>
<!-- ABP_HydraWeed_Hearth_C -->
<g id="node1" class="node">
<title>ABP_HydraWeed_Hearth_C</title>
<polygon fill="#88ff88" stroke="black" points="0,-1688.5 0,-2086.5 520,-2086.5 520,-1688.5 0,-1688.5"/>
<text text-anchor="start" x="8" y="-2071.3" font-family="monospace" font-size="14.00">ClassExport: ABP_HydraWeed_Hearth_C</text>
<text text-anchor="start" x="8" y="-2056.3" font-family="monospace" font-size="14.00">  SuperStruct: import /Script/Engine&#45;&gt;AnimInstance</text>
<text text-anchor="start" x="8" y="-2041.3" font-family="monospace" font-size="14.00">  Properties:</text>
<text text-anchor="start" x="8" y="-2026.3" font-family="monospace" font-size="14.00">    StructProperty UberGraphFrame</text>
<text text-anchor="start" x="8" y="-2011.3" font-family="monospace" font-size="14.00">      CPF_Transient|CPF_DuplicateTransient</text>
<text text-anchor="start" x="8" y="-1996.3" font-family="monospace" font-size="14.00">    StructProperty AnimGraphNode_Root</text>
<text text-anchor="start" x="8" y="-1981.3" font-family="monospace" font-size="14.00">    StructProperty AnimGraphNode_TransitionResult_3</text>
<text text-anchor="start" x="8" y="-1966.3" font-family="monospace" font-size="14.00">    StructProperty AnimGraphNode_TransitionResult_2</text>
<text text-anchor="start" x="8" y="-1951.3" font-family="monospace" font-size="14.00">    StructProperty AnimGraphNode_TransitionResult_1</text>
<text text-anchor="start" x="8" y="-1936.3" font-family="monospace" font-size="14.00">    StructProperty AnimGraphNode_TransitionResult</text>
<text text-anchor="start" x="8" y="-1921.3" font-family="monospace" font-size="14.00">    StructProperty AnimGraphNode_SequencePlayer_4</text>
<text text-anchor="start" x="8" y="-1906.3" font-family="monospace" font-size="14.00">    StructProperty AnimGraphNode_StateResult_3</text>
<text text-anchor="start" x="8" y="-1891.3" font-family="monospace" font-size="14.00">    StructProperty AnimGraphNode_SequencePlayer_3</text>
<text text-anchor="start" x="8" y="-1876.3" font-family="monospace" font-size="14.00">    StructProperty AnimGraphNode_StateResult_2</text>
<text text-anchor="start" x="8" y="-1861.3" font-family="monospace" font-size="14.00">    StructProperty AnimGraphNode_SequencePlayer_2</text>
<text text-anchor="start" x="8" y="-1846.3" font-family="monospace" font-size="14.00">    StructProperty AnimGraphNode_StateResult_1</text>
<text text-anchor="start" x="8" y="-1831.3" font-family="monospace" font-size="14.00">    StructProperty AnimGraphNode_SequencePlayer_1</text>
<text text-anchor="start" x="8" y="-1816.3" font-family="monospace" font-size="14.00">    StructProperty AnimGraphNode_StateResult</text>
<text text-anchor="start" x="8" y="-1801.3" font-family="monospace" font-size="14.00">    StructProperty AnimGraphNode_StateMachine</text>
<text text-anchor="start" x="8" y="-1786.3" font-family="monospace" font-size="14.00">    StructProperty AnimGraphNode_Slot</text>
<text text-anchor="start" x="8" y="-1771.3" font-family="monospace" font-size="14.00">    StructProperty AnimGraphNode_ApplyAdditive</text>
<text text-anchor="start" x="8" y="-1756.3" font-family="monospace" font-size="14.00">    StructProperty AnimGraphNode_SequencePlayer</text>
<text text-anchor="start" x="8" y="-1741.3" font-family="monospace" font-size="14.00">    BoolProperty IsOpen</text>
<text text-anchor="start" x="8" y="-1726.3" font-family="monospace" font-size="14.00">      CPF_Edit|CPF_BlueprintVisible|CPF_DisableEditOnInstance</text>
<text text-anchor="start" x="8" y="-1711.3" font-family="monospace" font-size="14.00">    BoolProperty IsDormant</text>
<text text-anchor="start" x="8" y="-1696.3" font-family="monospace" font-size="14.00">      CPF_Edit|CPF_BlueprintVisible|CPF_DisableEditOnInstance</text>
</g>
<!-- ExecuteUbergraph_ABP_HydraWeed_Hearth -->
<g id="node2" class="node">
<title>ExecuteUbergraph_ABP_HydraWeed_Hearth</title>
<polygon fill="#ff8888" stroke="black" points="538.5,-1801 538.5,-1974 1025.5,-1974 1025.5,-1801 538.5,-1801"/>
<text text-anchor="start" x="546.5" y="-1958.8" font-family="monospace" font-size="14.00">Function ExecuteUbergraph_ABP_HydraWeed_Hearth</text>
<text text-anchor="start" x="546.5" y="-1943.8" font-family="monospace" font-size="14.00">  IntProperty EntryPoint</text>
<text text-anchor="start" x="546.5" y="-1928.8" font-family="monospace" font-size="14.00">    CPF_BlueprintVisible|CPF_BlueprintReadOnly|CPF_Parm</text>
<text text-anchor="start" x="546.5" y="-1913.8" font-family="monospace" font-size="14.00">  FloatProperty CallFunc_Montage_Play_ReturnValue</text>
<text text-anchor="start" x="546.5" y="-1898.8" font-family="monospace" font-size="14.00">  DelegateProperty K2Node_CreateDelegate_OutputDelegate</text>
<text text-anchor="start" x="546.5" y="-1883.8" font-family="monospace" font-size="14.00">  ObjectProperty CallFunc_GetOwningActor_ReturnValue</text>
<text text-anchor="start" x="546.5" y="-1868.8" font-family="monospace" font-size="14.00">  BoolProperty K2Node_CustomEvent_IsOpen</text>
<text text-anchor="start" x="546.5" y="-1853.8" font-family="monospace" font-size="14.00">  ObjectProperty K2Node_DynamicCast_AsENE_Hydra_Weed_Core</text>
<text text-anchor="start" x="546.5" y="-1838.8" font-family="monospace" font-size="14.00">  BoolProperty K2Node_DynamicCast_bSuccess</text>
<text text-anchor="start" x="546.5" y="-1823.8" font-family="monospace" font-size="14.00">  BoolProperty K2Node_CustomEvent_IsDormant</text>
<text text-anchor="start" x="546.5" y="-1808.8" font-family="monospace" font-size="14.00">  DelegateProperty K2Node_CreateDelegate_OutputDelegate_1</text>
</g>
<!-- ExecuteUbergraph_ABP_HydraWeed_Hearth__0 -->
<g id="node3" class="node">
<title>ExecuteUbergraph_ABP_HydraWeed_Hearth__0</title>
<polygon fill="#eeeeee" stroke="black" points="646,-1554 646,-1592 918,-1592 918,-1554 646,-1554"/>
<text text-anchor="start" x="654" y="-1576.8" font-family="monospace" font-size="14.00">EX_ComputedJump</text>
<text text-anchor="start" x="654" y="-1561.8" font-family="monospace" font-size="14.00">  EX_LocalVariable [EntryPoint]</text>
</g>
<!-- ExecuteUbergraph_ABP_HydraWeed_Hearth&#45;&gt;ExecuteUbergraph_ABP_HydraWeed_Hearth__0 -->
<g id="edge1" class="edge">
<title>ExecuteUbergraph_ABP_HydraWeed_Hearth&#45;&gt;ExecuteUbergraph_ABP_HydraWeed_Hearth__0</title>
<path fill="none" stroke="black" d="M782,-1801.11C782,-1735.2 782,-1647.95 782,-1603.21"/>
<polygon fill="black" stroke="black" points="785.5,-1603.28 782,-1593.28 778.5,-1603.28 785.5,-1603.28"/>
</g>
<!-- ExecuteUbergraph_ABP_HydraWeed_Hearth__10 -->
<g id="node4" class="node">
<title>ExecuteUbergraph_ABP_HydraWeed_Hearth__10</title>
<polygon fill="#eeeeee" stroke="black" points="2620,-164.5 2620,-292.5 3734,-292.5 3734,-164.5 2620,-164.5"/>
<text text-anchor="start" x="2628" y="-277.3" font-family="monospace" font-size="14.00">EX_Let</text>
<text text-anchor="start" x="2628" y="-262.3" font-family="monospace" font-size="14.00">  EX_LocalVariable [CallFunc_Montage_Play_ReturnValue]</text>
<text text-anchor="start" x="2628" y="-247.3" font-family="monospace" font-size="14.00">  EX_FinalFunction import /Script/Engine&#45;&gt;AnimInstance&#45;&gt;Montage_Play</text>
<text text-anchor="start" x="2628" y="-232.3" font-family="monospace" font-size="14.00">    EX_ObjectConst import /Game/Enemies/HydraWeed/Assets/ANIM_HydraWeed_Heart_Activate_Montage&#45;&gt;ANIM_HydraWeed_Heart_Activate_Montage</text>
<text text-anchor="start" x="2628" y="-217.3" font-family="monospace" font-size="14.00">    EX_FloatConst 1</text>
<text text-anchor="start" x="2628" y="-202.3" font-family="monospace" font-size="14.00">    EX_ByteConst 0</text>
<text text-anchor="start" x="2628" y="-187.3" font-family="monospace" font-size="14.00">    EX_FloatConst 0</text>
<text text-anchor="start" x="2628" y="-172.3" font-family="monospace" font-size="14.00">    EX_True</text>
</g>
<!-- ExecuteUbergraph_ABP_HydraWeed_Hearth__60 -->
<g id="node5" class="node">
<title>ExecuteUbergraph_ABP_HydraWeed_Hearth__60</title>
<polygon fill="#eeeeee" stroke="black" points="2871.5,-76.5 2871.5,-112.5 2978.5,-112.5 2978.5,-76.5 2871.5,-76.5"/>
<text text-anchor="start" x="2879.5" y="-90.8" font-family="monospace" font-size="14.00">EX_Jump 436</text>
</g>
<!-- ExecuteUbergraph_ABP_HydraWeed_Hearth__10&#45;&gt;ExecuteUbergraph_ABP_HydraWeed_Hearth__60 -->
<g id="edge2" class="edge">
<title>ExecuteUbergraph_ABP_HydraWeed_Hearth__10&#45;&gt;ExecuteUbergraph_ABP_HydraWeed_Hearth__60</title>
<path fill="none" stroke="black" d="M3056.9,-164.59C3024.85,-147.8 2992.28,-130.74 2967.53,-117.78"/>
<polygon fill="black" stroke="black" points="2969.24,-114.72 2958.76,-113.18 2966,-120.93 2969.24,-114.72"/>
</g>
<!-- ExecuteUbergraph_ABP_HydraWeed_Hearth__436 -->
<g id="node21" class="node">
<title>ExecuteUbergraph_ABP_HydraWeed_Hearth__436</title>
<polygon fill="#eeeeee" stroke="black" points="2496,-0.5 2496,-38.5 2612,-38.5 2612,-0.5 2496,-0.5"/>
<text text-anchor="start" x="2504" y="-23.3" font-family="monospace" font-size="14.00">EX_Return</text>
<text text-anchor="start" x="2504" y="-8.3" font-family="monospace" font-size="14.00">  EX_Nothing</text>
</g>
<!-- ExecuteUbergraph_ABP_HydraWeed_Hearth__60&#45;&gt;ExecuteUbergraph_ABP_HydraWeed_Hearth__436 -->
<g id="edge3" class="edge">
<title>ExecuteUbergraph_ABP_HydraWeed_Hearth__60&#45;&gt;ExecuteUbergraph_ABP_HydraWeed_Hearth__436</title>
<path fill="none" stroke="black" d="M2871.84,-83.04C2806.42,-70.17 2695.17,-48.28 2623.15,-34.11"/>
<polygon fill="black" stroke="black" points="2623.92,-30.69 2613.43,-32.19 2622.56,-37.56 2623.92,-30.69"/>
</g>
<!-- ExecuteUbergraph_ABP_HydraWeed_Hearth__65 -->
<g id="node6" class="node">
<title>ExecuteUbergraph_ABP_HydraWeed_Hearth__65</title>
<polygon fill="#eeeeee" stroke="black" points="1399,-1404.5 1399,-1457.5 1993,-1457.5 1993,-1404.5 1399,-1404.5"/>
<text text-anchor="start" x="1407" y="-1442.3" font-family="monospace" font-size="14.00">EX_LetObj</text>
<text text-anchor="start" x="1407" y="-1427.3" font-family="monospace" font-size="14.00">  EX_LocalVariable [CallFunc_GetOwningActor_ReturnValue]</text>
<text text-anchor="start" x="1407" y="-1412.3" font-family="monospace" font-size="14.00">  EX_FinalFunction import /Script/Engine&#45;&gt;AnimInstance&#45;&gt;GetOwningActor</text>
</g>
<!-- ExecuteUbergraph_ABP_HydraWeed_Hearth__85 -->
<g id="node7" class="node">
<title>ExecuteUbergraph_ABP_HydraWeed_Hearth__85</title>
<polygon fill="#eeeeee" stroke="black" points="1509.5,-1262.5 1509.5,-1330.5 2252.5,-1330.5 2252.5,-1262.5 1509.5,-1262.5"/>
<text text-anchor="start" x="1517.5" y="-1315.3" font-family="monospace" font-size="14.00">EX_Let</text>
<text text-anchor="start" x="1517.5" y="-1300.3" font-family="monospace" font-size="14.00">  EX_LocalVariable [K2Node_DynamicCast_AsENE_Hydra_Weed_Core]</text>
<text text-anchor="start" x="1517.5" y="-1285.3" font-family="monospace" font-size="14.00">  EX_DynamicCast import /Game/Enemies/HydraWeed/ENE_HydraWeed_Core&#45;&gt;ENE_HydraWeed_Core_C</text>
<text text-anchor="start" x="1517.5" y="-1270.3" font-family="monospace" font-size="14.00">    EX_LocalVariable [CallFunc_GetOwningActor_ReturnValue]</text>
</g>
<!-- ExecuteUbergraph_ABP_HydraWeed_Hearth__65&#45;&gt;ExecuteUbergraph_ABP_HydraWeed_Hearth__85 -->
<g id="edge4" class="edge">
<title>ExecuteUbergraph_ABP_HydraWeed_Hearth__65&#45;&gt;ExecuteUbergraph_ABP_HydraWeed_Hearth__85</title>
<path fill="none" stroke="black" d="M1731.23,-1404.77C1757.93,-1385.64 1795.12,-1359.01 1825.76,-1337.06"/>
<polygon fill="black" stroke="black" points="1827.72,-1339.97 1833.81,-1331.3 1823.64,-1334.28 1827.72,-1339.97"/>
</g>
<!-- ExecuteUbergraph_ABP_HydraWeed_Hearth__121 -->
<g id="node8" class="node">
<title>ExecuteUbergraph_ABP_HydraWeed_Hearth__121</title>
<polygon fill="#eeeeee" stroke="black" points="1788,-1120.5 1788,-1188.5 2324,-1188.5 2324,-1120.5 1788,-1120.5"/>
<text text-anchor="start" x="1796" y="-1173.3" font-family="monospace" font-size="14.00">EX_Let</text>
<text text-anchor="start" x="1796" y="-1158.3" font-family="monospace" font-size="14.00">  EX_LocalVariable [K2Node_DynamicCast_bSuccess]</text>
<text text-anchor="start" x="1796" y="-1143.3" font-family="monospace" font-size="14.00">  EX_PrimitiveCast ObjectToBool</text>
<text text-anchor="start" x="1796" y="-1128.3" font-family="monospace" font-size="14.00">    EX_LocalVariable [K2Node_DynamicCast_AsENE_Hydra_Weed_Core]</text>
</g>
<!-- ExecuteUbergraph_ABP_HydraWeed_Hearth__85&#45;&gt;ExecuteUbergraph_ABP_HydraWeed_Hearth__121 -->
<g id="edge5" class="edge">
<title>ExecuteUbergraph_ABP_HydraWeed_Hearth__85&#45;&gt;ExecuteUbergraph_ABP_HydraWeed_Hearth__121</title>
<path fill="none" stroke="black" d="M1922.03,-1262.68C1947.17,-1242.56 1979.52,-1216.68 2006.14,-1195.39"/>
<polygon fill="black" stroke="black" points="2008.12,-1198.29 2013.74,-1189.31 2003.75,-1192.82 2008.12,-1198.29"/>
</g>
<!-- ExecuteUbergraph_ABP_HydraWeed_Hearth__150 -->
<g id="node9" class="node">
<title>ExecuteUbergraph_ABP_HydraWeed_Hearth__150</title>
<polygon fill="#eeeeee" stroke="black" points="1973.5,-1008.5 1973.5,-1046.5 2386.5,-1046.5 2386.5,-1008.5 1973.5,-1008.5"/>
<text text-anchor="start" x="1981.5" y="-1031.3" font-family="monospace" font-size="14.00">EX_JumpIfNot 436</text>
<text text-anchor="start" x="1981.5" y="-1016.3" font-family="monospace" font-size="14.00">  EX_LocalVariable [K2Node_DynamicCast_bSuccess]</text>
</g>
<!-- ExecuteUbergraph_ABP_HydraWeed_Hearth__121&#45;&gt;ExecuteUbergraph_ABP_HydraWeed_Hearth__150 -->
<g id="edge6" class="edge">
<title>ExecuteUbergraph_ABP_HydraWeed_Hearth__121&#45;&gt;ExecuteUbergraph_ABP_HydraWeed_Hearth__150</title>
<path fill="none" stroke="black" d="M2088.58,-1120.66C2109.08,-1099.99 2135.17,-1073.69 2154.23,-1054.48"/>
<polygon fill="black" stroke="black" points="2156.56,-1057.1 2161.12,-1047.53 2151.59,-1052.17 2156.56,-1057.1"/>
</g>
<!-- ExecuteUbergraph_ABP_HydraWeed_Hearth__164 -->
<g id="node10" class="node">
<title>ExecuteUbergraph_ABP_HydraWeed_Hearth__164</title>
<polygon fill="#eeeeee" stroke="black" points="1936.5,-881.5 1936.5,-934.5 2423.5,-934.5 2423.5,-881.5 1936.5,-881.5"/>
<text text-anchor="start" x="1944.5" y="-919.3" font-family="monospace" font-size="14.00">EX_BindDelegate OnOpenChanged_Event_0</text>
<text text-anchor="start" x="1944.5" y="-904.3" font-family="monospace" font-size="14.00">  EX_LocalVariable [K2Node_CreateDelegate_OutputDelegate]</text>
<text text-anchor="start" x="1944.5" y="-889.3" font-family="monospace" font-size="14.00">  EX_Self</text>
</g>
<!-- ExecuteUbergraph_ABP_HydraWeed_Hearth__150&#45;&gt;ExecuteUbergraph_ABP_HydraWeed_Hearth__164 -->
<g id="edge8" class="edge">
<title>ExecuteUbergraph_ABP_HydraWeed_Hearth__150&#45;&gt;ExecuteUbergraph_ABP_HydraWeed_Hearth__164</title>
<path fill="none" stroke="black" d="M2180,-1008.65C2180,-992.05 2180,-966.78 2180,-945.85"/>
<polygon fill="black" stroke="black" points="2183.5,-945.95 2180,-935.95 2176.5,-945.95 2183.5,-945.95"/>
<text text-anchor="middle" x="2188.5" y="-967.8" font-family="monospace" font-size="14.00">IF</text>
</g>
<!-- ExecuteUbergraph_ABP_HydraWeed_Hearth__150&#45;&gt;ExecuteUbergraph_ABP_HydraWeed_Hearth__436 -->
<g id="edge7" class="edge">
<title>ExecuteUbergraph_ABP_HydraWeed_Hearth__150:e&#45;&gt;ExecuteUbergraph_ABP_HydraWeed_Hearth__436</title>
<path fill="none" stroke="red" d="M2388,-1027.5C2453.6,-1027.5 2476,-974.6 2476,-909 2476,-909 2476,-909 2476,-93.5 2476,-73 2490.54,-56.59 2507.07,-44.57"/>
<polygon fill="none" stroke="red" points="2508.75,-47.65 2515.11,-39.18 2504.86,-41.83 2508.75,-47.65"/>
<text text-anchor="middle" x="2501" y="-503.3" font-family="monospace" font-size="14.00">IF NOT</text>
</g>
<!-- ExecuteUbergraph_ABP_HydraWeed_Hearth__187 -->
<g id="node11" class="node">
<title>ExecuteUbergraph_ABP_HydraWeed_Hearth__187</title>
<polygon fill="#eeeeee" stroke="black" points="1912,-707.5 1912,-805.5 2448,-805.5 2448,-707.5 1912,-707.5"/>
<text text-anchor="start" x="1920" y="-790.3" font-family="monospace" font-size="14.00">EX_AddMulticastDelegate</text>
<text text-anchor="start" x="1920" y="-775.3" font-family="monospace" font-size="14.00">  EX_Context</text>
<text text-anchor="start" x="1920" y="-760.3" font-family="monospace" font-size="14.00">    EX_LocalVariable [K2Node_DynamicCast_AsENE_Hydra_Weed_Core]</text>
<text text-anchor="start" x="1920" y="-745.3" font-family="monospace" font-size="14.00">    EX_InstanceVariable [OnOpenChanged]</text>
<text text-anchor="start" x="1920" y="-730.3" font-family="monospace" font-size="14.00">    RValue = [OnOpenChanged]</text>
<text text-anchor="start" x="1920" y="-715.3" font-family="monospace" font-size="14.00">  EX_LocalVariable [K2Node_CreateDelegate_OutputDelegate]</text>
</g>
<!-- ExecuteUbergraph_ABP_HydraWeed_Hearth__164&#45;&gt;ExecuteUbergraph_ABP_HydraWeed_Hearth__187 -->
<g id="edge9" class="edge">
<title>ExecuteUbergraph_ABP_HydraWeed_Hearth__164&#45;&gt;ExecuteUbergraph_ABP_HydraWeed_Hearth__187</title>
<path fill="none" stroke="black" d="M2180,-881.64C2180,-863.82 2180,-839.23 2180,-816.63"/>
<polygon fill="black" stroke="black" points="2183.5,-816.9 2180,-806.9 2176.5,-816.9 2183.5,-816.9"/>
</g>
<!-- ExecuteUbergraph_ABP_HydraWeed_Hearth__228 -->
<g id="node12" class="node">
<title>ExecuteUbergraph_ABP_HydraWeed_Hearth__228</title>
<polygon fill="#eeeeee" stroke="black" points="1912,-571.5 1912,-669.5 2448,-669.5 2448,-571.5 1912,-571.5"/>
<text text-anchor="start" x="1920" y="-654.3" font-family="monospace" font-size="14.00">EX_LetBool</text>
<text text-anchor="start" x="1920" y="-639.3" font-family="monospace" font-size="14.00">  EX_InstanceVariable [IsOpen]</text>
<text text-anchor="start" x="1920" y="-624.3" font-family="monospace" font-size="14.00">  EX_Context</text>
<text text-anchor="start" x="1920" y="-609.3" font-family="monospace" font-size="14.00">    EX_LocalVariable [K2Node_DynamicCast_AsENE_Hydra_Weed_Core]</text>
<text text-anchor="start" x="1920" y="-594.3" font-family="monospace" font-size="14.00">    EX_InstanceVariable [IsOpen]</text>
<text text-anchor="start" x="1920" y="-579.3" font-family="monospace" font-size="14.00">    RValue = [IsOpen]</text>
</g>
<!-- ExecuteUbergraph_ABP_HydraWeed_Hearth__187&#45;&gt;ExecuteUbergraph_ABP_HydraWeed_Hearth__228 -->
<g id="edge10" class="edge">
<title>ExecuteUbergraph_ABP_HydraWeed_Hearth__187&#45;&gt;ExecuteUbergraph_ABP_HydraWeed_Hearth__228</title>
<path fill="none" stroke="black" d="M2180,-707.5C2180,-698.74 2180,-689.5 2180,-680.46"/>
<polygon fill="black" stroke="black" points="2183.5,-680.68 2180,-670.68 2176.5,-680.68 2183.5,-680.68"/>
</g>
<!-- ExecuteUbergraph_ABP_HydraWeed_Hearth__269 -->
<g id="node13" class="node">
<title>ExecuteUbergraph_ABP_HydraWeed_Hearth__269</title>
<polygon fill="#eeeeee" stroke="black" points="1928.5,-480.5 1928.5,-533.5 2431.5,-533.5 2431.5,-480.5 1928.5,-480.5"/>
<text text-anchor="start" x="1936.5" y="-518.3" font-family="monospace" font-size="14.00">EX_BindDelegate OnDormantChanged_Event_0</text>
<text text-anchor="start" x="1936.5" y="-503.3" font-family="monospace" font-size="14.00">  EX_LocalVariable [K2Node_CreateDelegate_OutputDelegate_1]</text>
<text text-anchor="start" x="1936.5" y="-488.3" font-family="monospace" font-size="14.00">  EX_Self</text>
</g>
<!-- ExecuteUbergraph_ABP_HydraWeed_Hearth__228&#45;&gt;ExecuteUbergraph_ABP_HydraWeed_Hearth__269 -->
<g id="edge11" class="edge">
<title>ExecuteUbergraph_ABP_HydraWeed_Hearth__228&#45;&gt;ExecuteUbergraph_ABP_HydraWeed_Hearth__269</title>
<path fill="none" stroke="black" d="M2180,-571.57C2180,-562.66 2180,-553.48 2180,-544.97"/>
<polygon fill="black" stroke="black" points="2183.5,-544.98 2180,-534.98 2176.5,-544.98 2183.5,-544.98"/>
</g>
<!-- ExecuteUbergraph_ABP_HydraWeed_Hearth__292 -->
<g id="node14" class="node">
<title>ExecuteUbergraph_ABP_HydraWeed_Hearth__292</title>
<polygon fill="#eeeeee" stroke="black" points="1912,-344.5 1912,-442.5 2448,-442.5 2448,-344.5 1912,-344.5"/>
<text text-anchor="start" x="1920" y="-427.3" font-family="monospace" font-size="14.00">EX_AddMulticastDelegate</text>
<text text-anchor="start" x="1920" y="-412.3" font-family="monospace" font-size="14.00">  EX_Context</text>
<text text-anchor="start" x="1920" y="-397.3" font-family="monospace" font-size="14.00">    EX_LocalVariable [K2Node_DynamicCast_AsENE_Hydra_Weed_Core]</text>
<text text-anchor="start" x="1920" y="-382.3" font-family="monospace" font-size="14.00">    EX_InstanceVariable [OnDormantChanged]</text>
<text text-anchor="start" x="1920" y="-367.3" font-family="monospace" font-size="14.00">    RValue = [OnDormantChanged]</text>
<text text-anchor="start" x="1920" y="-352.3" font-family="monospace" font-size="14.00">  EX_LocalVariable [K2Node_CreateDelegate_OutputDelegate_1]</text>
</g>
<!-- ExecuteUbergraph_ABP_HydraWeed_Hearth__269&#45;&gt;ExecuteUbergraph_ABP_HydraWeed_Hearth__292 -->
<g id="edge12" class="edge">
<title>ExecuteUbergraph_ABP_HydraWeed_Hearth__269&#45;&gt;ExecuteUbergraph_ABP_HydraWeed_Hearth__292</title>
<path fill="none" stroke="black" d="M2180,-480.7C2180,-472.48 2180,-462.98 2180,-453.37"/>
<polygon fill="black" stroke="black" points="2183.5,-453.6 2180,-443.6 2176.5,-453.6 2183.5,-453.6"/>
</g>
<!-- ExecuteUbergraph_ABP_HydraWeed_Hearth__333 -->
<g id="node15" class="node">
<title>ExecuteUbergraph_ABP_HydraWeed_Hearth__333</title>
<polygon fill="#eeeeee" stroke="black" points="1912,-179.5 1912,-277.5 2448,-277.5 2448,-179.5 1912,-179.5"/>
<text text-anchor="start" x="1920" y="-262.3" font-family="monospace" font-size="14.00">EX_LetBool</text>
<text text-anchor="start" x="1920" y="-247.3" font-family="monospace" font-size="14.00">  EX_InstanceVariable [IsDormant]</text>
<text text-anchor="start" x="1920" y="-232.3" font-family="monospace" font-size="14.00">  EX_Context</text>
<text text-anchor="start" x="1920" y="-217.3" font-family="monospace" font-size="14.00">    EX_LocalVariable [K2Node_DynamicCast_AsENE_Hydra_Weed_Core]</text>
<text text-anchor="start" x="1920" y="-202.3" font-family="monospace" font-size="14.00">    EX_InstanceVariable [IsDormant]</text>
<text text-anchor="start" x="1920" y="-187.3" font-family="monospace" font-size="14.00">    RValue = [IsDormant]</text>
</g>
<!-- ExecuteUbergraph_ABP_HydraWeed_Hearth__292&#45;&gt;ExecuteUbergraph_ABP_HydraWeed_Hearth__333 -->
<g id="edge13" class="edge">
<title>ExecuteUbergraph_ABP_HydraWeed_Hearth__292&#45;&gt;ExecuteUbergraph_ABP_HydraWeed_Hearth__333</title>
<path fill="none" stroke="black" d="M2180,-344.92C2180,-327.33 2180,-307.18 2180,-288.69"/>
<polygon fill="black" stroke="black" points="2183.5,-288.94 2180,-278.94 2176.5,-288.94 2183.5,-288.94"/>
</g>
<!-- ExecuteUbergraph_ABP_HydraWeed_Hearth__374 -->
<g id="node16" class="node">
<title>ExecuteUbergraph_ABP_HydraWeed_Hearth__374</title>
<polygon fill="#eeeeee" stroke="black" points="2286.5,-76.5 2286.5,-112.5 2393.5,-112.5 2393.5,-76.5 2286.5,-76.5"/>
<text text-anchor="start" x="2294.5" y="-90.8" font-family="monospace" font-size="14.00">EX_Jump 436</text>
</g>
<!-- ExecuteUbergraph_ABP_HydraWeed_Hearth__333&#45;&gt;ExecuteUbergraph_ABP_HydraWeed_Hearth__374 -->
<g id="edge14" class="edge">
<title>ExecuteUbergraph_ABP_HydraWeed_Hearth__333&#45;&gt;ExecuteUbergraph_ABP_HydraWeed_Hearth__374</title>
<path fill="none" stroke="black" d="M2237.76,-179.84C2262.6,-159.35 2290.55,-136.3 2310.94,-119.48"/>
<polygon fill="black" stroke="black" points="2313.08,-122.24 2318.57,-113.18 2308.63,-116.85 2313.08,-122.24"/>
</g>
<!-- ExecuteUbergraph_ABP_HydraWeed_Hearth__374&#45;&gt;ExecuteUbergraph_ABP_HydraWeed_Hearth__436 -->
<g id="edge15" class="edge">
<title>ExecuteUbergraph_ABP_HydraWeed_Hearth__374&#45;&gt;ExecuteUbergraph_ABP_HydraWeed_Hearth__436</title>
<path fill="none" stroke="black" d="M2389.63,-76.57C2419.7,-66.31 2458.34,-53.13 2490.6,-42.13"/>
<polygon fill="black" stroke="black" points="2491.51,-45.52 2499.84,-38.98 2489.25,-38.89 2491.51,-45.52"/>
</g>
<!-- ExecuteUbergraph_ABP_HydraWeed_Hearth__379 -->
<g id="node17" class="node">
<title>ExecuteUbergraph_ABP_HydraWeed_Hearth__379</title>
<polygon fill="#eeeeee" stroke="black" points="2493,-1270 2493,-1323 2889,-1323 2889,-1270 2493,-1270"/>
<text text-anchor="start" x="2501" y="-1307.8" font-family="monospace" font-size="14.00">EX_LetBool</text>
<text text-anchor="start" x="2501" y="-1292.8" font-family="monospace" font-size="14.00">  EX_InstanceVariable [IsOpen]</text>
<text text-anchor="start" x="2501" y="-1277.8" font-family="monospace" font-size="14.00">  EX_LocalVariable [K2Node_CustomEvent_IsOpen]</text>
</g>
<!-- ExecuteUbergraph_ABP_HydraWeed_Hearth__398 -->
<g id="node18" class="node">
<title>ExecuteUbergraph_ABP_HydraWeed_Hearth__398</title>
<polygon fill="#eeeeee" stroke="black" points="2523.5,-953.5 2523.5,-989.5 2630.5,-989.5 2630.5,-953.5 2523.5,-953.5"/>
<text text-anchor="start" x="2531.5" y="-967.8" font-family="monospace" font-size="14.00">EX_Jump 436</text>
</g>
<!-- ExecuteUbergraph_ABP_HydraWeed_Hearth__379&#45;&gt;ExecuteUbergraph_ABP_HydraWeed_Hearth__398 -->
<g id="edge16" class="edge">
<title>ExecuteUbergraph_ABP_HydraWeed_Hearth__379&#45;&gt;ExecuteUbergraph_ABP_HydraWeed_Hearth__398</title>
<path fill="none" stroke="black" d="M2682.05,-1270.15C2661,-1210.5 2608.45,-1061.6 2586.68,-999.93"/>
<polygon fill="black" stroke="black" points="2590,-998.83 2583.38,-990.56 2583.4,-1001.16 2590,-998.83"/>
</g>
<!-- ExecuteUbergraph_ABP_HydraWeed_Hearth__398&#45;&gt;ExecuteUbergraph_ABP_HydraWeed_Hearth__436 -->
<g id="edge17" class="edge">
<title>ExecuteUbergraph_ABP_HydraWeed_Hearth__398&#45;&gt;ExecuteUbergraph_ABP_HydraWeed_Hearth__436</title>
<path fill="none" stroke="black" d="M2571.9,-953.56C2565.12,-929.54 2554,-884.08 2554,-844.5 2554,-844.5 2554,-844.5 2554,-93.5 2554,-79.14 2554,-63.19 2554,-49.87"/>
<polygon fill="black" stroke="black" points="2557.5,-50.01 2554,-40.01 2550.5,-50.01 2557.5,-50.01"/>
</g>
<!-- ExecuteUbergraph_ABP_HydraWeed_Hearth__403 -->
<g id="node19" class="node">
<title>ExecuteUbergraph_ABP_HydraWeed_Hearth__403</title>
<polygon fill="#eeeeee" stroke="black" points="3084.5,-480.5 3084.5,-533.5 3505.5,-533.5 3505.5,-480.5 3084.5,-480.5"/>
<text text-anchor="start" x="3092.5" y="-518.3" font-family="monospace" font-size="14.00">EX_LetBool</text>
<text text-anchor="start" x="3092.5" y="-503.3" font-family="monospace" font-size="14.00">  EX_InstanceVariable [IsDormant]</text>
<text text-anchor="start" x="3092.5" y="-488.3" font-family="monospace" font-size="14.00">  EX_LocalVariable [K2Node_CustomEvent_IsDormant]</text>
</g>
<!-- ExecuteUbergraph_ABP_HydraWeed_Hearth__422 -->
<g id="node20" class="node">
<title>ExecuteUbergraph_ABP_HydraWeed_Hearth__422</title>
<polygon fill="#eeeeee" stroke="black" points="2887.5,-374.5 2887.5,-412.5 3176.5,-412.5 3176.5,-374.5 2887.5,-374.5"/>
<text text-anchor="start" x="2895.5" y="-397.3" font-family="monospace" font-size="14.00">EX_JumpIfNot 10</text>
<text text-anchor="start" x="2895.5" y="-382.3" font-family="monospace" font-size="14.00">  EX_InstanceVariable [IsDormant]</text>
</g>
<!-- ExecuteUbergraph_ABP_HydraWeed_Hearth__403&#45;&gt;ExecuteUbergraph_ABP_HydraWeed_Hearth__422 -->
<g id="edge18" class="edge">
<title>ExecuteUbergraph_ABP_HydraWeed_Hearth__403&#45;&gt;ExecuteUbergraph_ABP_HydraWeed_Hearth__422</title>
<path fill="none" stroke="black" d="M3234.99,-480.56C3189.61,-461.32 3127.92,-435.16 3084.49,-416.75"/>
<polygon fill="black" stroke="black" points="3086.11,-413.64 3075.53,-412.96 3083.37,-420.08 3086.11,-413.64"/>
</g>
<!-- ExecuteUbergraph_ABP_HydraWeed_Hearth__422&#45;&gt;ExecuteUbergraph_ABP_HydraWeed_Hearth__10 -->
<g id="edge19" class="edge">
<title>ExecuteUbergraph_ABP_HydraWeed_Hearth__422:e&#45;&gt;ExecuteUbergraph_ABP_HydraWeed_Hearth__10</title>
<path fill="none" stroke="red" d="M3178,-393.5C3216.85,-393.5 3214,-346.92 3202.87,-303.4"/>
<polygon fill="none" stroke="red" points="3206.29,-302.63 3200.28,-293.9 3199.53,-304.47 3206.29,-302.63"/>
<text text-anchor="middle" x="3233" y="-314.8" font-family="monospace" font-size="14.00">IF NOT</text>
</g>
<!-- ExecuteUbergraph_ABP_HydraWeed_Hearth__422&#45;&gt;ExecuteUbergraph_ABP_HydraWeed_Hearth__436 -->
<g id="edge20" class="edge">
<title>ExecuteUbergraph_ABP_HydraWeed_Hearth__422&#45;&gt;ExecuteUbergraph_ABP_HydraWeed_Hearth__436</title>
<path fill="none" stroke="black" d="M2887.61,-375.36C2781.28,-359.71 2648.88,-332.9 2611,-293 2537.59,-215.68 2596.77,-159.66 2568,-57 2567.27,-54.41 2566.44,-51.74 2565.54,-49.09"/>
<polygon fill="black" stroke="black" points="2568.9,-48.08 2562.18,-39.89 2562.32,-50.49 2568.9,-48.08"/>
<text text-anchor="middle" x="2585.5" y="-134.8" font-family="monospace" font-size="14.00">IF</text>
</g>
<!-- ExecuteUbergraph_ABP_HydraWeed_Hearth__438 -->
<g id="node22" class="node">
<title>ExecuteUbergraph_ABP_HydraWeed_Hearth__438</title>
<polygon fill="#eeeeee" stroke="black" points="3081,-1633.5 3081,-1669.5 3213,-1669.5 3213,-1633.5 3081,-1633.5"/>
<text text-anchor="start" x="3089" y="-1647.8" font-family="monospace" font-size="14.00">EX_EndOfScript</text>
</g>
<!-- OnDormantChanged_Event_0 -->
<g id="node23" class="node">
<title>OnDormantChanged_Event_0</title>
<polygon fill="#ff8888" stroke="black" points="2727,-1861 2727,-1914 3197,-1914 3197,-1861 2727,-1861"/>
<text text-anchor="start" x="2735" y="-1898.8" font-family="monospace" font-size="14.00">Function OnDormantChanged_Event_0</text>
<text text-anchor="start" x="2735" y="-1883.8" font-family="monospace" font-size="14.00">  BoolProperty IsDormant</text>
<text text-anchor="start" x="2735" y="-1868.8" font-family="monospace" font-size="14.00">    CPF_BlueprintVisible|CPF_BlueprintReadOnly|CPF_Parm</text>
</g>
<!-- OnDormantChanged_Event_0__0 -->
<g id="node24" class="node">
<title>OnDormantChanged_Event_0__0</title>
<polygon fill="#eeeeee" stroke="black" points="2710.5,-824.5 2710.5,-862.5 3213.5,-862.5 3213.5,-824.5 2710.5,-824.5"/>
<text text-anchor="start" x="2718.5" y="-847.3" font-family="monospace" font-size="14.00">EX_LetValueOnPersistentFrame [K2Node_CustomEvent_IsDormant]</text>
<text text-anchor="start" x="2718.5" y="-832.3" font-family="monospace" font-size="14.00">  EX_LocalVariable [IsDormant]</text>
</g>
<!-- OnDormantChanged_Event_0&#45;&gt;OnDormantChanged_Event_0__0 -->
<g id="edge21" class="edge">
<title>OnDormantChanged_Event_0&#45;&gt;OnDormantChanged_Event_0__0</title>
<path fill="none" stroke="black" d="M2962,-1861.39C2962,-1808.32 2962,-1680.88 2962,-1574 2962,-1574 2962,-1574 2962,-970.5 2962,-937.41 2962,-899.44 2962,-873.91"/>
<polygon fill="black" stroke="black" points="2965.5,-873.96 2962,-863.96 2958.5,-873.96 2965.5,-873.96"/>
</g>
<!-- OnDormantChanged_Event_0__18 -->
<g id="node25" class="node">
<title>OnDormantChanged_Event_0__18</title>
<polygon fill="#eeeeee" stroke="black" points="2582.5,-601.5 2582.5,-639.5 3341.5,-639.5 3341.5,-601.5 2582.5,-601.5"/>
<text text-anchor="start" x="2590.5" y="-624.3" font-family="monospace" font-size="14.00">EX_LocalFinalFunction export ABP_HydraWeed_Hearth_C&#45;&gt;ExecuteUbergraph_ABP_HydraWeed_Hearth</text>
<text text-anchor="start" x="2590.5" y="-609.3" font-family="monospace" font-size="14.00">  EX_IntConst 403</text>
</g>
<!-- OnDormantChanged_Event_0__0&#45;&gt;OnDormantChanged_Event_0__18 -->
<g id="edge22" class="edge">
<title>OnDormantChanged_Event_0__0&#45;&gt;OnDormantChanged_Event_0__18</title>
<path fill="none" stroke="black" d="M2962,-824.79C2962,-786.8 2962,-697.19 2962,-650.67"/>
<polygon fill="black" stroke="black" points="2965.5,-650.81 2962,-640.81 2958.5,-650.81 2965.5,-650.81"/>
</g>
<!-- OnDormantChanged_Event_0__18&#45;&gt;ExecuteUbergraph_ABP_HydraWeed_Hearth__403 -->
<g id="edge23" class="edge">
<title>OnDormantChanged_Event_0__18:e&#45;&gt;ExecuteUbergraph_ABP_HydraWeed_Hearth__403</title>
<path fill="none" stroke="red" d="M3343,-620.5C3377.45,-620.5 3348.95,-575.31 3323.46,-542.21"/>
<polygon fill="none" stroke="red" points="3326.27,-540.13 3317.34,-534.44 3320.77,-544.46 3326.27,-540.13"/>
</g>
<!-- OnDormantChanged_Event_0__33 -->
<g id="node26" class="node">
<title>OnDormantChanged_Event_0__33</title>
<polygon fill="#eeeeee" stroke="black" points="2904,-488 2904,-526 3020,-526 3020,-488 2904,-488"/>
<text text-anchor="start" x="2912" y="-510.8" font-family="monospace" font-size="14.00">EX_Return</text>
<text text-anchor="start" x="2912" y="-495.8" font-family="monospace" font-size="14.00">  EX_Nothing</text>
</g>
<!-- OnDormantChanged_Event_0__18&#45;&gt;OnDormantChanged_Event_0__33 -->
<g id="edge24" class="edge">
<title>OnDormantChanged_Event_0__18&#45;&gt;OnDormantChanged_Event_0__33</title>
<path fill="none" stroke="black" d="M2962,-601.59C2962,-584.27 2962,-557.74 2962,-537.35"/>
<polygon fill="black" stroke="black" points="2965.5,-537.38 2962,-527.38 2958.5,-537.38 2965.5,-537.38"/>
</g>
<!-- OnDormantChanged_Event_0__35 -->
<g id="node27" class="node">
<title>OnDormantChanged_Event_0__35</title>
<polygon fill="#eeeeee" stroke="black" points="3081,-1476.5 3081,-1512.5 3213,-1512.5 3213,-1476.5 3081,-1476.5"/>
<text text-anchor="start" x="3089" y="-1490.8" font-family="monospace" font-size="14.00">EX_EndOfScript</text>
</g>
<!-- OnOpenChanged_Event_0 -->
<g id="node28" class="node">
<title>OnOpenChanged_Event_0</title>
<polygon fill="#ff8888" stroke="black" points="2156,-1861 2156,-1914 2626,-1914 2626,-1861 2156,-1861"/>
<text text-anchor="start" x="2164" y="-1898.8" font-family="monospace" font-size="14.00">Function OnOpenChanged_Event_0</text>
<text text-anchor="start" x="2164" y="-1883.8" font-family="monospace" font-size="14.00">  BoolProperty IsOpen</text>
<text text-anchor="start" x="2164" y="-1868.8" font-family="monospace" font-size="14.00">    CPF_BlueprintVisible|CPF_BlueprintReadOnly|CPF_Parm</text>
</g>
<!-- OnOpenChanged_Event_0__0 -->
<g id="node29" class="node">
<title>OnOpenChanged_Event_0__0</title>
<polygon fill="#eeeeee" stroke="black" points="2151.5,-1554 2151.5,-1592 2630.5,-1592 2630.5,-1554 2151.5,-1554"/>
<text text-anchor="start" x="2159.5" y="-1576.8" font-family="monospace" font-size="14.00">EX_LetValueOnPersistentFrame [K2Node_CustomEvent_IsOpen]</text>
<text text-anchor="start" x="2159.5" y="-1561.8" font-family="monospace" font-size="14.00">  EX_LocalVariable [IsOpen]</text>
</g>
<!-- OnOpenChanged_Event_0&#45;&gt;OnOpenChanged_Event_0__0 -->
<g id="edge25" class="edge">
<title>OnOpenChanged_Event_0&#45;&gt;OnOpenChanged_Event_0__0</title>
<path fill="none" stroke="black" d="M2391,-1861.19C2391,-1803.83 2391,-1664.17 2391,-1603.24"/>
<polygon fill="black" stroke="black" points="2394.5,-1603.33 2391,-1593.33 2387.5,-1603.33 2394.5,-1603.33"/>
</g>
<!-- OnOpenChanged_Event_0__18 -->
<g id="node30" class="node">
<title>OnOpenChanged_Event_0__18</title>
<polygon fill="#eeeeee" stroke="black" points="2011.5,-1412 2011.5,-1450 2770.5,-1450 2770.5,-1412 2011.5,-1412"/>
<text text-anchor="start" x="2019.5" y="-1434.8" font-family="monospace" font-size="14.00">EX_LocalFinalFunction export ABP_HydraWeed_Hearth_C&#45;&gt;ExecuteUbergraph_ABP_HydraWeed_Hearth</text>
<text text-anchor="start" x="2019.5" y="-1419.8" font-family="monospace" font-size="14.00">  EX_IntConst 379</text>
</g>
<!-- OnOpenChanged_Event_0__0&#45;&gt;OnOpenChanged_Event_0__18 -->
<g id="edge26" class="edge">
<title>OnOpenChanged_Event_0__0&#45;&gt;OnOpenChanged_Event_0__18</title>
<path fill="none" stroke="black" d="M2391,-1554.27C2391,-1530.81 2391,-1489.16 2391,-1461.06"/>
<polygon fill="black" stroke="black" points="2394.5,-1461.1 2391,-1451.1 2387.5,-1461.1 2394.5,-1461.1"/>
</g>
<!-- OnOpenChanged_Event_0__18&#45;&gt;ExecuteUbergraph_ABP_HydraWeed_Hearth__379 -->
<g id="edge27" class="edge">
<title>OnOpenChanged_Event_0__18:e&#45;&gt;ExecuteUbergraph_ABP_HydraWeed_Hearth__379</title>
<path fill="none" stroke="red" d="M2772,-1431C2818.89,-1431 2765.44,-1370.06 2725.83,-1330.52"/>
<polygon fill="none" stroke="red" points="2728.79,-1328.52 2719.21,-1323.99 2723.87,-1333.5 2728.79,-1328.52"/>
</g>
<!-- OnOpenChanged_Event_0__33 -->
<g id="node31" class="node">
<title>OnOpenChanged_Event_0__33</title>
<polygon fill="#eeeeee" stroke="black" points="2333,-1277.5 2333,-1315.5 2449,-1315.5 2449,-1277.5 2333,-1277.5"/>
<text text-anchor="start" x="2341" y="-1300.3" font-family="monospace" font-size="14.00">EX_Return</text>
<text text-anchor="start" x="2341" y="-1285.3" font-family="monospace" font-size="14.00">  EX_Nothing</text>
</g>
<!-- OnOpenChanged_Event_0__18&#45;&gt;OnOpenChanged_Event_0__33 -->
<g id="edge28" class="edge">
<title>OnOpenChanged_Event_0__18&#45;&gt;OnOpenChanged_Event_0__33</title>
<path fill="none" stroke="black" d="M2391,-1412.13C2391,-1390.18 2391,-1352.64 2391,-1326.53"/>
<polygon fill="black" stroke="black" points="2394.5,-1326.6 2391,-1316.6 2387.5,-1326.6 2394.5,-1326.6"/>
</g>
<!-- OnOpenChanged_Event_0__35 -->
<g id="node32" class="node">
<title>OnOpenChanged_Event_0__35</title>
<polygon fill="#eeeeee" stroke="black" points="2977,-1349.5 2977,-1385.5 3109,-1385.5 3109,-1349.5 2977,-1349.5"/>
<text text-anchor="start" x="2985" y="-1363.8" font-family="monospace" font-size="14.00">EX_EndOfScript</text>
</g>
<!-- BlueprintBeginPlay -->
<g id="node33" class="node">
<title>BlueprintBeginPlay</title>
<polygon fill="#ff8888" stroke="black" points="1196.5,-1869.5 1196.5,-1905.5 1435.5,-1905.5 1435.5,-1869.5 1196.5,-1869.5"/>
<text text-anchor="start" x="1204.5" y="-1883.8" font-family="monospace" font-size="14.00">Function BlueprintBeginPlay</text>
</g>
<!-- BlueprintBeginPlay__0 -->
<g id="node34" class="node">
<title>BlueprintBeginPlay__0</title>
<polygon fill="#eeeeee" stroke="black" points="936.5,-1554 936.5,-1592 1695.5,-1592 1695.5,-1554 936.5,-1554"/>
<text text-anchor="start" x="944.5" y="-1576.8" font-family="monospace" font-size="14.00">EX_LocalFinalFunction export ABP_HydraWeed_Hearth_C&#45;&gt;ExecuteUbergraph_ABP_HydraWeed_Hearth</text>
<text text-anchor="start" x="944.5" y="-1561.8" font-family="monospace" font-size="14.00">  EX_IntConst 65</text>
</g>
<!-- BlueprintBeginPlay&#45;&gt;BlueprintBeginPlay__0 -->
<g id="edge29" class="edge">
<title>BlueprintBeginPlay&#45;&gt;BlueprintBeginPlay__0</title>
<path fill="none" stroke="black" d="M1316,-1869.7C1316,-1818.96 1316,-1666.88 1316,-1602.88"/>
<polygon fill="black" stroke="black" points="1319.5,-1603.17 1316,-1593.17 1312.5,-1603.17 1319.5,-1603.17"/>
</g>
<!-- BlueprintBeginPlay__0&#45;&gt;ExecuteUbergraph_ABP_HydraWeed_Hearth__65 -->
<g id="edge30" class="edge">
<title>BlueprintBeginPlay__0:e&#45;&gt;ExecuteUbergraph_ABP_HydraWeed_Hearth__65</title>
<path fill="none" stroke="red" d="M1697,-1573C1739.02,-1573 1724.24,-1509.6 1709.94,-1467.83"/>
<polygon fill="none" stroke="red" points="1713.32,-1466.88 1706.66,-1458.63 1706.72,-1469.23 1713.32,-1466.88"/>
</g>
<!-- BlueprintBeginPlay__15 -->
<g id="node35" class="node">
<title>BlueprintBeginPlay__15</title>
<polygon fill="#eeeeee" stroke="black" points="1258,-1412 1258,-1450 1374,-1450 1374,-1412 1258,-1412"/>
<text text-anchor="start" x="1266" y="-1434.8" font-family="monospace" font-size="14.00">EX_Return</text>
<text text-anchor="start" x="1266" y="-1419.8" font-family="monospace" font-size="14.00">  EX_Nothing</text>
</g>
<!-- BlueprintBeginPlay__0&#45;&gt;BlueprintBeginPlay__15 -->
<g id="edge31" class="edge">
<title>BlueprintBeginPlay__0&#45;&gt;BlueprintBeginPlay__15</title>
<path fill="none" stroke="black" d="M1316,-1554.27C1316,-1530.81 1316,-1489.16 1316,-1461.06"/>
<polygon fill="black" stroke="black" points="1319.5,-1461.1 1316,-1451.1 1312.5,-1461.1 1319.5,-1461.1"/>
</g>
<!-- BlueprintBeginPlay__17 -->
<g id="node36" class="node">
<title>BlueprintBeginPlay__17</title>
<polygon fill="#eeeeee" stroke="black" points="2977,-1207.5 2977,-1243.5 3109,-1243.5 3109,-1207.5 2977,-1207.5"/>
<text text-anchor="start" x="2985" y="-1221.8" font-family="monospace" font-size="14.00">EX_EndOfScript</text>
</g>
<!-- AnimGraph -->
<g id="node37" class="node">
<title>AnimGraph</title>
<polygon fill="#ff8888" stroke="black" points="3215.5,-1861 3215.5,-1914 3446.5,-1914 3446.5,-1861 3215.5,-1861"/>
<text text-anchor="start" x="3223.5" y="-1898.8" font-family="monospace" font-size="14.00">Function AnimGraph</text>
<text text-anchor="start" x="3223.5" y="-1883.8" font-family="monospace" font-size="14.00">  StructProperty AnimGraph</text>
<text text-anchor="start" x="3223.5" y="-1868.8" font-family="monospace" font-size="14.00">    CPF_Parm|CPF_OutParm</text>
</g>
<!-- AnimGraph__0 -->
<g id="node38" class="node">
<title>AnimGraph__0</title>
<polygon fill="#eeeeee" stroke="black" points="3124.5,-1531.5 3124.5,-1614.5 3537.5,-1614.5 3537.5,-1531.5 3124.5,-1531.5"/>
<text text-anchor="start" x="3132.5" y="-1599.3" font-family="monospace" font-size="14.00">EX_Let</text>
<text text-anchor="start" x="3132.5" y="-1584.3" font-family="monospace" font-size="14.00">  EX_LocalOutVariable</text>
<text text-anchor="start" x="3132.5" y="-1569.3" font-family="monospace" font-size="14.00">    [AnimGraph]</text>
<text text-anchor="start" x="3132.5" y="-1554.3" font-family="monospace" font-size="14.00">  EX_StructConst import /Script/Engine&#45;&gt;PoseLink</text>
<text text-anchor="start" x="3132.5" y="-1539.3" font-family="monospace" font-size="14.00">    EX_IntConst &#45;1</text>
</g>
<!-- AnimGraph&#45;&gt;AnimGraph__0 -->
<g id="edge32" class="edge">
<title>AnimGraph&#45;&gt;AnimGraph__0</title>
<path fill="none" stroke="black" d="M3331,-1861.19C3331,-1810.03 3331,-1693.4 3331,-1625.55"/>
<polygon fill="black" stroke="black" points="3334.5,-1625.8 3331,-1615.8 3327.5,-1625.8 3334.5,-1625.8"/>
</g>
<!-- AnimGraph__37 -->
<g id="node39" class="node">
<title>AnimGraph__37</title>
<polygon fill="#eeeeee" stroke="black" points="3273,-1412 3273,-1450 3389,-1450 3389,-1412 3273,-1412"/>
<text text-anchor="start" x="3281" y="-1434.8" font-family="monospace" font-size="14.00">EX_Return</text>
<text text-anchor="start" x="3281" y="-1419.8" font-family="monospace" font-size="14.00">  EX_Nothing</text>
</g>
<!-- AnimGraph__0&#45;&gt;AnimGraph__37 -->
<g id="edge33" class="edge">
<title>AnimGraph__0&#45;&gt;AnimGraph__37</title>
<path fill="none" stroke="black" d="M3331,-1531.51C3331,-1509.06 3331,-1481.67 3331,-1461.31"/>
<polygon fill="black" stroke="black" points="3334.5,-1461.45 3331,-1451.45 3327.5,-1461.45 3334.5,-1461.45"/>
</g>
<!-- AnimGraph__39 -->
<g id="node40" class="node">
<title>AnimGraph__39</title>
<polygon fill="#eeeeee" stroke="black" points="2977,-1065.5 2977,-1101.5 3109,-1101.5 3109,-1065.5 2977,-1065.5"/>
<text text-anchor="start" x="2985" y="-1079.8" font-family="monospace" font-size="14.00">EX_EndOfScript</text>
</g>
</g>
</svg>
