<?xml version="1.0" encoding="UTF-8" standalone="no"?>
<!DOCTYPE svg PUBLIC "-//W3C//DTD SVG 1.1//EN"
 "http://www.w3.org/Graphics/SVG/1.1/DTD/svg11.dtd">
<!-- Generated by graphviz version 7.0.1 (0)
 -->
<!-- Pages: 1 -->
<svg width="1534pt" height="332pt"
 viewBox="0.00 0.00 1533.50 332.00" xmlns="http://www.w3.org/2000/svg" xmlns:xlink="http://www.w3.org/1999/xlink">
<g id="graph0" class="graph" transform="scale(1 1) rotate(0) translate(4 328)">
<polygon fill="white" stroke="none" points="-4,4 -4,-328 1529.5,-328 1529.5,4 -4,4"/>
<!-- ABP_HeavyWeapon_PlatformGun_C -->
<g id="node1" class="node">
<title>ABP_HeavyWeapon_PlatformGun_C</title>
<polygon fill="#88ff88" stroke="black" points="0,-195.5 0,-323.5 495,-323.5 495,-195.5 0,-195.5"/>
<text text-anchor="start" x="8" y="-308.3" font-family="monospace" font-size="14.00">ClassExport: ABP_HeavyWeapon_PlatformGun_C</text>
<text text-anchor="start" x="8" y="-293.3" font-family="monospace" font-size="14.00">  SuperStruct: import /Script/FSD&#45;&gt;PlatformGunAnimInstance</text>
<text text-anchor="start" x="8" y="-278.3" font-family="monospace" font-size="14.00">  Properties:</text>
<text text-anchor="start" x="8" y="-263.3" font-family="monospace" font-size="14.00">    StructProperty UberGraphFrame</text>
<text text-anchor="start" x="8" y="-248.3" font-family="monospace" font-size="14.00">      CPF_Transient|CPF_DuplicateTransient</text>
<text text-anchor="start" x="8" y="-233.3" font-family="monospace" font-size="14.00">    StructProperty AnimGraphNode_Root</text>
<text text-anchor="start" x="8" y="-218.3" font-family="monospace" font-size="14.00">    StructProperty AnimGraphNode_SequencePlayer</text>
<text text-anchor="start" x="8" y="-203.3" font-family="monospace" font-size="14.00">    StructProperty AnimGraphNode_Slot</text>
</g>
<!-- ExecuteUbergraph_ABP_HeavyWeapon_PlatformGun -->
<g id="node2" class="node">
<title>ExecuteUbergraph_ABP_HeavyWeapon_PlatformGun</title>
<polygon fill="#ff8888" stroke="black" points="513.5,-233 513.5,-286 983.5,-286 983.5,-233 513.5,-233"/>
<text text-anchor="start" x="521.5" y="-270.8" font-family="monospace" font-size="14.00">Function ExecuteUbergraph_ABP_HeavyWeapon_PlatformGun</text>
<text text-anchor="start" x="521.5" y="-255.8" font-family="monospace" font-size="14.00">  IntProperty EntryPoint</text>
<text text-anchor="start" x="521.5" y="-240.8" font-family="monospace" font-size="14.00">    CPF_BlueprintVisible|CPF_BlueprintReadOnly|CPF_Parm</text>
</g>
<!-- ExecuteUbergraph_ABP_HeavyWeapon_PlatformGun__0 -->
<g id="node3" class="node">
<title>ExecuteUbergraph_ABP_HeavyWeapon_PlatformGun__0</title>
<polygon fill="#eeeeee" stroke="black" points="612.5,-98 612.5,-136 884.5,-136 884.5,-98 612.5,-98"/>
<text text-anchor="start" x="620.5" y="-120.8" font-family="monospace" font-size="14.00">EX_ComputedJump</text>
<text text-anchor="start" x="620.5" y="-105.8" font-family="monospace" font-size="14.00">  EX_LocalVariable [EntryPoint]</text>
</g>
<!-- ExecuteUbergraph_ABP_HeavyWeapon_PlatformGun&#45;&gt;ExecuteUbergraph_ABP_HeavyWeapon_PlatformGun__0 -->
<g id="edge1" class="edge">
<title>ExecuteUbergraph_ABP_HeavyWeapon_PlatformGun&#45;&gt;ExecuteUbergraph_ABP_HeavyWeapon_PlatformGun__0</title>
<path fill="none" stroke="black" d="M748.5,-233.06C748.5,-208.86 748.5,-172.5 748.5,-147.15"/>
<polygon fill="black" stroke="black" points="752,-147.21 748.5,-137.21 745,-147.21 752,-147.21"/>
</g>
<!-- ExecuteUbergraph_ABP_HeavyWeapon_PlatformGun__10 -->
<g id="node4" class="node">
<title>ExecuteUbergraph_ABP_HeavyWeapon_PlatformGun__10</title>
<polygon fill="#eeeeee" stroke="black" points="1067.5,-0.5 1067.5,-38.5 1183.5,-38.5 1183.5,-0.5 1067.5,-0.5"/>
<text text-anchor="start" x="1075.5" y="-23.3" font-family="monospace" font-size="14.00">EX_Return</text>
<text text-anchor="start" x="1075.5" y="-8.3" font-family="monospace" font-size="14.00">  EX_Nothing</text>
</g>
<!-- ExecuteUbergraph_ABP_HeavyWeapon_PlatformGun__12 -->
<g id="node5" class="node">
<title>ExecuteUbergraph_ABP_HeavyWeapon_PlatformGun__12</title>
<polygon fill="#eeeeee" stroke="black" points="902.5,-99 902.5,-135 1034.5,-135 1034.5,-99 902.5,-99"/>
<text text-anchor="start" x="910.5" y="-113.3" font-family="monospace" font-size="14.00">EX_EndOfScript</text>
</g>
<!-- AnimGraph -->
<g id="node6" class="node">
<title>AnimGraph</title>
<polygon fill="#ff8888" stroke="black" points="1144,-233 1144,-286 1375,-286 1375,-233 1144,-233"/>
<text text-anchor="start" x="1152" y="-270.8" font-family="monospace" font-size="14.00">Function AnimGraph</text>
<text text-anchor="start" x="1152" y="-255.8" font-family="monospace" font-size="14.00">  StructProperty AnimGraph</text>
<text text-anchor="start" x="1152" y="-240.8" font-family="monospace" font-size="14.00">    CPF_Parm|CPF_OutParm</text>
</g>
<!-- AnimGraph__0 -->
<g id="node7" class="node">
<title>AnimGraph__0</title>
<polygon fill="#eeeeee" stroke="black" points="1053,-75.5 1053,-158.5 1466,-158.5 1466,-75.5 1053,-75.5"/>
<text text-anchor="start" x="1061" y="-143.3" font-family="monospace" font-size="14.00">EX_Let</text>
<text text-anchor="start" x="1061" y="-128.3" font-family="monospace" font-size="14.00">  EX_LocalOutVariable</text>
<text text-anchor="start" x="1061" y="-113.3" font-family="monospace" font-size="14.00">    [AnimGraph]</text>
<text text-anchor="start" x="1061" y="-98.3" font-family="monospace" font-size="14.00">  EX_StructConst import /Script/Engine&#45;&gt;PoseLink</text>
<text text-anchor="start" x="1061" y="-83.3" font-family="monospace" font-size="14.00">    EX_IntConst &#45;1</text>
</g>
<!-- AnimGraph&#45;&gt;AnimGraph__0 -->
<g id="edge2" class="edge">
<title>AnimGraph&#45;&gt;AnimGraph__0</title>
<path fill="none" stroke="black" d="M1259.5,-233.06C1259.5,-215.43 1259.5,-191.34 1259.5,-169.75"/>
<polygon fill="black" stroke="black" points="1263,-169.93 1259.5,-159.93 1256,-169.93 1263,-169.93"/>
</g>
<!-- AnimGraph__37 -->
<g id="node8" class="node">
<title>AnimGraph__37</title>
<polygon fill="#eeeeee" stroke="black" points="1201.5,-0.5 1201.5,-38.5 1317.5,-38.5 1317.5,-0.5 1201.5,-0.5"/>
<text text-anchor="start" x="1209.5" y="-23.3" font-family="monospace" font-size="14.00">EX_Return</text>
<text text-anchor="start" x="1209.5" y="-8.3" font-family="monospace" font-size="14.00">  EX_Nothing</text>
</g>
<!-- AnimGraph__0&#45;&gt;AnimGraph__37 -->
<g id="edge3" class="edge">
<title>AnimGraph__0&#45;&gt;AnimGraph__37</title>
<path fill="none" stroke="black" d="M1259.5,-75.78C1259.5,-67.01 1259.5,-57.89 1259.5,-49.65"/>
<polygon fill="black" stroke="black" points="1263,-49.86 1259.5,-39.86 1256,-49.86 1263,-49.86"/>
</g>
<!-- AnimGraph__39 -->
<g id="node9" class="node">
<title>AnimGraph__39</title>
<polygon fill="#eeeeee" stroke="black" points="1393.5,-241.5 1393.5,-277.5 1525.5,-277.5 1525.5,-241.5 1393.5,-241.5"/>
<text text-anchor="start" x="1401.5" y="-255.8" font-family="monospace" font-size="14.00">EX_EndOfScript</text>
</g>
</g>
</svg>
