<?xml version="1.0" encoding="UTF-8" standalone="no"?>
<!DOCTYPE svg PUBLIC "-//W3C//DTD SVG 1.1//EN"
 "http://www.w3.org/Graphics/SVG/1.1/DTD/svg11.dtd">
<!-- Generated by graphviz version 7.0.1 (0)
 -->
<!-- Pages: 1 -->
<svg width="2292pt" height="981pt"
 viewBox="0.00 0.00 2292.00 981.00" xmlns="http://www.w3.org/2000/svg" xmlns:xlink="http://www.w3.org/1999/xlink">
<g id="graph0" class="graph" transform="scale(1 1) rotate(0) translate(4 977)">
<polygon fill="white" stroke="none" points="-4,4 -4,-977 2288,-977 2288,4 -4,4"/>
<!-- HUD_Health_Player_C -->
<g id="node1" class="node">
<title>HUD_Health_Player_C</title>
<polygon fill="#88ff88" stroke="black" points="0,-859.5 0,-972.5 850,-972.5 850,-859.5 0,-859.5"/>
<text text-anchor="start" x="8" y="-957.3" font-family="monospace" font-size="14.00">ClassExport: HUD_Health_Player_C</text>
<text text-anchor="start" x="8" y="-942.3" font-family="monospace" font-size="14.00">  SuperStruct: import /Script/FSD&#45;&gt;FSDUserWidget</text>
<text text-anchor="start" x="8" y="-927.3" font-family="monospace" font-size="14.00">  Properties:</text>
<text text-anchor="start" x="8" y="-912.3" font-family="monospace" font-size="14.00">    StructProperty UberGraphFrame</text>
<text text-anchor="start" x="8" y="-897.3" font-family="monospace" font-size="14.00">      CPF_Transient|CPF_DuplicateTransient</text>
<text text-anchor="start" x="8" y="-882.3" font-family="monospace" font-size="14.00">    ObjectProperty HUD_Health</text>
<text text-anchor="start" x="8" y="-867.3" font-family="monospace" font-size="14.00">      CPF_BlueprintVisible|CPF_ExportObject|CPF_InstancedReference|CPF_RepSkip|CPF_PersistentInstance</text>
</g>
<!-- ExecuteUbergraph_HUD_Health_Player -->
<g id="node2" class="node">
<title>ExecuteUbergraph_HUD_Health_Player</title>
<polygon fill="#ff8888" stroke="black" points="868.5,-867 868.5,-965 1355.5,-965 1355.5,-867 868.5,-867"/>
<text text-anchor="start" x="876.5" y="-949.8" font-family="monospace" font-size="14.00">Function ExecuteUbergraph_HUD_Health_Player</text>
<text text-anchor="start" x="876.5" y="-934.8" font-family="monospace" font-size="14.00">  IntProperty EntryPoint</text>
<text text-anchor="start" x="876.5" y="-919.8" font-family="monospace" font-size="14.00">    CPF_BlueprintVisible|CPF_BlueprintReadOnly|CPF_Parm</text>
<text text-anchor="start" x="876.5" y="-904.8" font-family="monospace" font-size="14.00">  ObjectProperty CallFunc_GetOwningPlayerPawn_ReturnValue</text>
<text text-anchor="start" x="876.5" y="-889.8" font-family="monospace" font-size="14.00">  ObjectProperty K2Node_DynamicCast_AsPlayer_Character</text>
<text text-anchor="start" x="876.5" y="-874.8" font-family="monospace" font-size="14.00">  BoolProperty K2Node_DynamicCast_bSuccess</text>
</g>
<!-- ExecuteUbergraph_HUD_Health_Player__0 -->
<g id="node3" class="node">
<title>ExecuteUbergraph_HUD_Health_Player__0</title>
<polygon fill="#eeeeee" stroke="black" points="976,-747.5 976,-785.5 1248,-785.5 1248,-747.5 976,-747.5"/>
<text text-anchor="start" x="984" y="-770.3" font-family="monospace" font-size="14.00">EX_ComputedJump</text>
<text text-anchor="start" x="984" y="-755.3" font-family="monospace" font-size="14.00">  EX_LocalVariable [EntryPoint]</text>
</g>
<!-- ExecuteUbergraph_HUD_Health_Player&#45;&gt;ExecuteUbergraph_HUD_Health_Player__0 -->
<g id="edge1" class="edge">
<title>ExecuteUbergraph_HUD_Health_Player&#45;&gt;ExecuteUbergraph_HUD_Health_Player__0</title>
<path fill="none" stroke="black" d="M1112,-867.11C1112,-843.98 1112,-816.97 1112,-796.91"/>
<polygon fill="black" stroke="black" points="1115.5,-796.94 1112,-786.94 1108.5,-796.94 1115.5,-796.94"/>
</g>
<!-- ExecuteUbergraph_HUD_Health_Player__10 -->
<g id="node4" class="node">
<title>ExecuteUbergraph_HUD_Health_Player__10</title>
<polygon fill="#eeeeee" stroke="black" points="1728.5,-636.5 1728.5,-672.5 2223.5,-672.5 2223.5,-636.5 1728.5,-636.5"/>
<text text-anchor="start" x="1736.5" y="-650.8" font-family="monospace" font-size="14.00">EX_FinalFunction import /Script/UMG&#45;&gt;UserWidget&#45;&gt;Construct</text>
</g>
<!-- ExecuteUbergraph_HUD_Health_Player__20 -->
<g id="node5" class="node">
<title>ExecuteUbergraph_HUD_Health_Player__20</title>
<polygon fill="#eeeeee" stroke="black" points="1679,-544.5 1679,-597.5 2273,-597.5 2273,-544.5 1679,-544.5"/>
<text text-anchor="start" x="1687" y="-582.3" font-family="monospace" font-size="14.00">EX_LetObj</text>
<text text-anchor="start" x="1687" y="-567.3" font-family="monospace" font-size="14.00">  EX_LocalVariable [CallFunc_GetOwningPlayerPawn_ReturnValue]</text>
<text text-anchor="start" x="1687" y="-552.3" font-family="monospace" font-size="14.00">  EX_FinalFunction import /Script/UMG&#45;&gt;UserWidget&#45;&gt;GetOwningPlayerPawn</text>
</g>
<!-- ExecuteUbergraph_HUD_Health_Player__10&#45;&gt;ExecuteUbergraph_HUD_Health_Player__20 -->
<g id="edge2" class="edge">
<title>ExecuteUbergraph_HUD_Health_Player__10&#45;&gt;ExecuteUbergraph_HUD_Health_Player__20</title>
<path fill="none" stroke="black" d="M1976,-636.61C1976,-628.44 1976,-618.28 1976,-608.46"/>
<polygon fill="black" stroke="black" points="1979.5,-608.74 1976,-598.74 1972.5,-608.74 1979.5,-608.74"/>
</g>
<!-- ExecuteUbergraph_HUD_Health_Player__40 -->
<g id="node6" class="node">
<title>ExecuteUbergraph_HUD_Health_Player__40</title>
<polygon fill="#eeeeee" stroke="black" points="1708,-438.5 1708,-506.5 2244,-506.5 2244,-438.5 1708,-438.5"/>
<text text-anchor="start" x="1716" y="-491.3" font-family="monospace" font-size="14.00">EX_Let</text>
<text text-anchor="start" x="1716" y="-476.3" font-family="monospace" font-size="14.00">  EX_LocalVariable [K2Node_DynamicCast_AsPlayer_Character]</text>
<text text-anchor="start" x="1716" y="-461.3" font-family="monospace" font-size="14.00">  EX_DynamicCast import /Script/FSD&#45;&gt;PlayerCharacter</text>
<text text-anchor="start" x="1716" y="-446.3" font-family="monospace" font-size="14.00">    EX_LocalVariable [CallFunc_GetOwningPlayerPawn_ReturnValue]</text>
</g>
<!-- ExecuteUbergraph_HUD_Health_Player__20&#45;&gt;ExecuteUbergraph_HUD_Health_Player__40 -->
<g id="edge3" class="edge">
<title>ExecuteUbergraph_HUD_Health_Player__20&#45;&gt;ExecuteUbergraph_HUD_Health_Player__40</title>
<path fill="none" stroke="black" d="M1976,-544.65C1976,-536.4 1976,-526.99 1976,-517.78"/>
<polygon fill="black" stroke="black" points="1979.5,-517.83 1976,-507.83 1972.5,-517.83 1979.5,-517.83"/>
</g>
<!-- ExecuteUbergraph_HUD_Health_Player__76 -->
<g id="node7" class="node">
<title>ExecuteUbergraph_HUD_Health_Player__76</title>
<polygon fill="#eeeeee" stroke="black" points="1720,-332.5 1720,-400.5 2232,-400.5 2232,-332.5 1720,-332.5"/>
<text text-anchor="start" x="1728" y="-385.3" font-family="monospace" font-size="14.00">EX_Let</text>
<text text-anchor="start" x="1728" y="-370.3" font-family="monospace" font-size="14.00">  EX_LocalVariable [K2Node_DynamicCast_bSuccess]</text>
<text text-anchor="start" x="1728" y="-355.3" font-family="monospace" font-size="14.00">  EX_PrimitiveCast ObjectToBool</text>
<text text-anchor="start" x="1728" y="-340.3" font-family="monospace" font-size="14.00">    EX_LocalVariable [K2Node_DynamicCast_AsPlayer_Character]</text>
</g>
<!-- ExecuteUbergraph_HUD_Health_Player__40&#45;&gt;ExecuteUbergraph_HUD_Health_Player__76 -->
<g id="edge4" class="edge">
<title>ExecuteUbergraph_HUD_Health_Player__40&#45;&gt;ExecuteUbergraph_HUD_Health_Player__76</title>
<path fill="none" stroke="black" d="M1976,-438.59C1976,-429.97 1976,-420.54 1976,-411.45"/>
<polygon fill="black" stroke="black" points="1979.5,-411.71 1976,-401.71 1972.5,-411.71 1979.5,-411.71"/>
</g>
<!-- ExecuteUbergraph_HUD_Health_Player__105 -->
<g id="node8" class="node">
<title>ExecuteUbergraph_HUD_Health_Player__105</title>
<polygon fill="#eeeeee" stroke="black" points="1769.5,-256.5 1769.5,-294.5 2182.5,-294.5 2182.5,-256.5 1769.5,-256.5"/>
<text text-anchor="start" x="1777.5" y="-279.3" font-family="monospace" font-size="14.00">EX_JumpIfNot 186</text>
<text text-anchor="start" x="1777.5" y="-264.3" font-family="monospace" font-size="14.00">  EX_LocalVariable [K2Node_DynamicCast_bSuccess]</text>
</g>
<!-- ExecuteUbergraph_HUD_Health_Player__76&#45;&gt;ExecuteUbergraph_HUD_Health_Player__105 -->
<g id="edge5" class="edge">
<title>ExecuteUbergraph_HUD_Health_Player__76&#45;&gt;ExecuteUbergraph_HUD_Health_Player__105</title>
<path fill="none" stroke="black" d="M1976,-332.61C1976,-323.79 1976,-314.32 1976,-305.72"/>
<polygon fill="black" stroke="black" points="1979.5,-305.8 1976,-295.8 1972.5,-305.8 1979.5,-305.8"/>
</g>
<!-- ExecuteUbergraph_HUD_Health_Player__119 -->
<g id="node9" class="node">
<title>ExecuteUbergraph_HUD_Health_Player__119</title>
<polygon fill="#eeeeee" stroke="black" points="1642,-76.5 1642,-204.5 2170,-204.5 2170,-76.5 1642,-76.5"/>
<text text-anchor="start" x="1650" y="-189.3" font-family="monospace" font-size="14.00">EX_Context</text>
<text text-anchor="start" x="1650" y="-174.3" font-family="monospace" font-size="14.00">  EX_InstanceVariable [HUD_Health]</text>
<text text-anchor="start" x="1650" y="-159.3" font-family="monospace" font-size="14.00">  EX_LocalVirtualFunction Bind Health Component</text>
<text text-anchor="start" x="1650" y="-144.3" font-family="monospace" font-size="14.00">    EX_Context</text>
<text text-anchor="start" x="1650" y="-129.3" font-family="monospace" font-size="14.00">      EX_LocalVariable [K2Node_DynamicCast_AsPlayer_Character]</text>
<text text-anchor="start" x="1650" y="-114.3" font-family="monospace" font-size="14.00">      EX_InstanceVariable [HealthComponent]</text>
<text text-anchor="start" x="1650" y="-99.3" font-family="monospace" font-size="14.00">      RValue = [HealthComponent]</text>
<text text-anchor="start" x="1650" y="-84.3" font-family="monospace" font-size="14.00">  RValue = []</text>
</g>
<!-- ExecuteUbergraph_HUD_Health_Player__105&#45;&gt;ExecuteUbergraph_HUD_Health_Player__119 -->
<g id="edge7" class="edge">
<title>ExecuteUbergraph_HUD_Health_Player__105&#45;&gt;ExecuteUbergraph_HUD_Health_Player__119</title>
<path fill="none" stroke="black" d="M1966.56,-256.56C1960.63,-245.29 1952.54,-229.92 1944.2,-214.09"/>
<polygon fill="black" stroke="black" points="1947.46,-212.76 1939.71,-205.54 1941.27,-216.02 1947.46,-212.76"/>
<text text-anchor="middle" x="1964.5" y="-226.8" font-family="monospace" font-size="14.00">IF</text>
</g>
<!-- ExecuteUbergraph_HUD_Health_Player__186 -->
<g id="node10" class="node">
<title>ExecuteUbergraph_HUD_Health_Player__186</title>
<polygon fill="#eeeeee" stroke="black" points="1998,-0.5 1998,-38.5 2114,-38.5 2114,-0.5 1998,-0.5"/>
<text text-anchor="start" x="2006" y="-23.3" font-family="monospace" font-size="14.00">EX_Return</text>
<text text-anchor="start" x="2006" y="-8.3" font-family="monospace" font-size="14.00">  EX_Nothing</text>
</g>
<!-- ExecuteUbergraph_HUD_Health_Player__105&#45;&gt;ExecuteUbergraph_HUD_Health_Player__186 -->
<g id="edge6" class="edge">
<title>ExecuteUbergraph_HUD_Health_Player__105:e&#45;&gt;ExecuteUbergraph_HUD_Health_Player__186</title>
<path fill="none" stroke="red" d="M2184,-275.5C2272.69,-275.5 2228.05,-149.9 2179,-76 2166.36,-56.96 2145.51,-44.38 2124.52,-36.09"/>
<polygon fill="none" stroke="red" points="2125.93,-32.88 2115.34,-32.76 2123.55,-39.46 2125.93,-32.88"/>
<text text-anchor="middle" x="2259" y="-136.8" font-family="monospace" font-size="14.00">IF NOT</text>
</g>
<!-- ExecuteUbergraph_HUD_Health_Player__119&#45;&gt;ExecuteUbergraph_HUD_Health_Player__186 -->
<g id="edge8" class="edge">
<title>ExecuteUbergraph_HUD_Health_Player__119&#45;&gt;ExecuteUbergraph_HUD_Health_Player__186</title>
<path fill="none" stroke="black" d="M1985.39,-76.52C1999.37,-65.43 2013.14,-54.51 2024.75,-45.29"/>
<polygon fill="black" stroke="black" points="2026.72,-48.19 2032.38,-39.24 2022.37,-42.71 2026.72,-48.19"/>
</g>
<!-- ExecuteUbergraph_HUD_Health_Player__188 -->
<g id="node11" class="node">
<title>ExecuteUbergraph_HUD_Health_Player__188</title>
<polygon fill="#eeeeee" stroke="black" points="1636,-804.5 1636,-840.5 1768,-840.5 1768,-804.5 1636,-804.5"/>
<text text-anchor="start" x="1644" y="-818.8" font-family="monospace" font-size="14.00">EX_EndOfScript</text>
</g>
<!-- Construct -->
<g id="node12" class="node">
<title>Construct</title>
<polygon fill="#ff8888" stroke="black" points="1538.5,-898 1538.5,-934 1703.5,-934 1703.5,-898 1538.5,-898"/>
<text text-anchor="start" x="1546.5" y="-912.3" font-family="monospace" font-size="14.00">Function Construct</text>
</g>
<!-- Construct__0 -->
<g id="node13" class="node">
<title>Construct__0</title>
<polygon fill="#eeeeee" stroke="black" points="1266,-747.5 1266,-785.5 1976,-785.5 1976,-747.5 1266,-747.5"/>
<text text-anchor="start" x="1274" y="-770.3" font-family="monospace" font-size="14.00">EX_LocalFinalFunction export HUD_Health_Player_C&#45;&gt;ExecuteUbergraph_HUD_Health_Player</text>
<text text-anchor="start" x="1274" y="-755.3" font-family="monospace" font-size="14.00">  EX_IntConst 10</text>
</g>
<!-- Construct&#45;&gt;Construct__0 -->
<g id="edge9" class="edge">
<title>Construct&#45;&gt;Construct__0</title>
<path fill="none" stroke="black" d="M1621,-898.08C1621,-873.34 1621,-826.95 1621,-796.65"/>
<polygon fill="black" stroke="black" points="1624.5,-796.65 1621,-786.65 1617.5,-796.65 1624.5,-796.65"/>
</g>
<!-- Construct__0&#45;&gt;ExecuteUbergraph_HUD_Health_Player__10 -->
<g id="edge10" class="edge">
<title>Construct__0:e&#45;&gt;ExecuteUbergraph_HUD_Health_Player__10</title>
<path fill="none" stroke="red" d="M1977,-766.5C1993.56,-766.5 1987.43,-716.46 1981.62,-683.57"/>
<polygon fill="none" stroke="red" points="1985.08,-683.04 1979.81,-673.85 1978.2,-684.32 1985.08,-683.04"/>
</g>
<!-- Construct__15 -->
<g id="node14" class="node">
<title>Construct__15</title>
<polygon fill="#eeeeee" stroke="black" points="1563,-635.5 1563,-673.5 1679,-673.5 1679,-635.5 1563,-635.5"/>
<text text-anchor="start" x="1571" y="-658.3" font-family="monospace" font-size="14.00">EX_Return</text>
<text text-anchor="start" x="1571" y="-643.3" font-family="monospace" font-size="14.00">  EX_Nothing</text>
</g>
<!-- Construct__0&#45;&gt;Construct__15 -->
<g id="edge11" class="edge">
<title>Construct__0&#45;&gt;Construct__15</title>
<path fill="none" stroke="black" d="M1621,-747.83C1621,-730.85 1621,-704.88 1621,-684.81"/>
<polygon fill="black" stroke="black" points="1624.5,-685.01 1621,-675.01 1617.5,-685.01 1624.5,-685.01"/>
</g>
<!-- Construct__17 -->
<g id="node15" class="node">
<title>Construct__17</title>
<polygon fill="#eeeeee" stroke="black" points="1991,-692.5 1991,-728.5 2123,-728.5 2123,-692.5 1991,-692.5"/>
<text text-anchor="start" x="1999" y="-706.8" font-family="monospace" font-size="14.00">EX_EndOfScript</text>
</g>
</g>
</svg>
