<?xml version="1.0" encoding="UTF-8" standalone="no"?>
<!DOCTYPE svg PUBLIC "-//W3C//DTD SVG 1.1//EN"
 "http://www.w3.org/Graphics/SVG/1.1/DTD/svg11.dtd">
<!-- Generated by graphviz version 7.0.1 (0)
 -->
<!-- Pages: 1 -->
<svg width="2819pt" height="1754pt"
 viewBox="0.00 0.00 2818.50 1754.00" xmlns="http://www.w3.org/2000/svg" xmlns:xlink="http://www.w3.org/1999/xlink">
<g id="graph0" class="graph" transform="scale(1 1) rotate(0) translate(4 1750)">
<polygon fill="white" stroke="none" points="-4,4 -4,-1750 2814.5,-1750 2814.5,4 -4,4"/>
<!-- ITM_SaveSlot_Entry_ClassIcon_C -->
<g id="node1" class="node">
<title>ITM_SaveSlot_Entry_ClassIcon_C</title>
<polygon fill="#88ff88" stroke="black" points="0,-1482.5 0,-1745.5 850,-1745.5 850,-1482.5 0,-1482.5"/>
<text text-anchor="start" x="8" y="-1730.3" font-family="monospace" font-size="14.00">ClassExport: ITM_SaveSlot_Entry_ClassIcon_C</text>
<text text-anchor="start" x="8" y="-1715.3" font-family="monospace" font-size="14.00">  SuperStruct: import /Script/UMG&#45;&gt;UserWidget</text>
<text text-anchor="start" x="8" y="-1700.3" font-family="monospace" font-size="14.00">  Properties:</text>
<text text-anchor="start" x="8" y="-1685.3" font-family="monospace" font-size="14.00">    StructProperty UberGraphFrame</text>
<text text-anchor="start" x="8" y="-1670.3" font-family="monospace" font-size="14.00">      CPF_Transient|CPF_DuplicateTransient</text>
<text text-anchor="start" x="8" y="-1655.3" font-family="monospace" font-size="14.00">    ObjectProperty PlayerIcon</text>
<text text-anchor="start" x="8" y="-1640.3" font-family="monospace" font-size="14.00">      CPF_BlueprintVisible|CPF_ExportObject|CPF_InstancedReference|CPF_RepSkip|CPF_PersistentInstance</text>
<text text-anchor="start" x="8" y="-1625.3" font-family="monospace" font-size="14.00">    ObjectProperty Text_Star</text>
<text text-anchor="start" x="8" y="-1610.3" font-family="monospace" font-size="14.00">      CPF_BlueprintVisible|CPF_ExportObject|CPF_InstancedReference|CPF_RepSkip|CPF_PersistentInstance</text>
<text text-anchor="start" x="8" y="-1595.3" font-family="monospace" font-size="14.00">    StructProperty ResourceFont</text>
<text text-anchor="start" x="8" y="-1580.3" font-family="monospace" font-size="14.00">      CPF_Edit|CPF_BlueprintVisible|CPF_DisableEditOnInstance</text>
<text text-anchor="start" x="8" y="-1565.3" font-family="monospace" font-size="14.00">    ObjectProperty Icon</text>
<text text-anchor="start" x="8" y="-1550.3" font-family="monospace" font-size="14.00">      CPF_Edit|CPF_BlueprintVisible|CPF_DisableEditOnInstance</text>
<text text-anchor="start" x="8" y="-1535.3" font-family="monospace" font-size="14.00">    StructProperty IconTint</text>
<text text-anchor="start" x="8" y="-1520.3" font-family="monospace" font-size="14.00">      CPF_Edit|CPF_BlueprintVisible|CPF_DisableEditOnInstance</text>
<text text-anchor="start" x="8" y="-1505.3" font-family="monospace" font-size="14.00">    ObjectProperty PlayerCharacter</text>
<text text-anchor="start" x="8" y="-1490.3" font-family="monospace" font-size="14.00">      CPF_Edit|CPF_BlueprintVisible|CPF_ExposeOnSpawn</text>
</g>
<!-- ExecuteUbergraph_ITM_SaveSlot_Entry_ClassIcon -->
<g id="node2" class="node">
<title>ExecuteUbergraph_ITM_SaveSlot_Entry_ClassIcon</title>
<polygon fill="#ff8888" stroke="black" points="868,-1542.5 868,-1685.5 1338,-1685.5 1338,-1542.5 868,-1542.5"/>
<text text-anchor="start" x="876" y="-1670.3" font-family="monospace" font-size="14.00">Function ExecuteUbergraph_ITM_SaveSlot_Entry_ClassIcon</text>
<text text-anchor="start" x="876" y="-1655.3" font-family="monospace" font-size="14.00">  IntProperty EntryPoint</text>
<text text-anchor="start" x="876" y="-1640.3" font-family="monospace" font-size="14.00">    CPF_BlueprintVisible|CPF_BlueprintReadOnly|CPF_Parm</text>
<text text-anchor="start" x="876" y="-1625.3" font-family="monospace" font-size="14.00">  BoolProperty K2Node_Event_IsDesignTime</text>
<text text-anchor="start" x="876" y="-1610.3" font-family="monospace" font-size="14.00">  ObjectProperty CallFunc_GetCharacterData_ReturnValue</text>
<text text-anchor="start" x="876" y="-1595.3" font-family="monospace" font-size="14.00">  BoolProperty CallFunc_IsValid_ReturnValue</text>
<text text-anchor="start" x="876" y="-1580.3" font-family="monospace" font-size="14.00">  BoolProperty CallFunc_IsValid_ReturnValue_1</text>
<text text-anchor="start" x="876" y="-1565.3" font-family="monospace" font-size="14.00">  StructProperty CallFunc_GetColor_ReturnValue</text>
<text text-anchor="start" x="876" y="-1550.3" font-family="monospace" font-size="14.00">  ObjectProperty CallFunc_GetSmallIcon_ReturnValue</text>
</g>
<!-- ExecuteUbergraph_ITM_SaveSlot_Entry_ClassIcon__0 -->
<g id="node3" class="node">
<title>ExecuteUbergraph_ITM_SaveSlot_Entry_ClassIcon__0</title>
<polygon fill="#eeeeee" stroke="black" points="967,-1363 967,-1401 1239,-1401 1239,-1363 967,-1363"/>
<text text-anchor="start" x="975" y="-1385.8" font-family="monospace" font-size="14.00">EX_ComputedJump</text>
<text text-anchor="start" x="975" y="-1370.8" font-family="monospace" font-size="14.00">  EX_LocalVariable [EntryPoint]</text>
</g>
<!-- ExecuteUbergraph_ITM_SaveSlot_Entry_ClassIcon&#45;&gt;ExecuteUbergraph_ITM_SaveSlot_Entry_ClassIcon__0 -->
<g id="edge1" class="edge">
<title>ExecuteUbergraph_ITM_SaveSlot_Entry_ClassIcon&#45;&gt;ExecuteUbergraph_ITM_SaveSlot_Entry_ClassIcon__0</title>
<path fill="none" stroke="black" d="M1103,-1542.74C1103,-1498.93 1103,-1444.86 1103,-1412.19"/>
<polygon fill="black" stroke="black" points="1106.5,-1412.3 1103,-1402.3 1099.5,-1412.3 1106.5,-1412.3"/>
</g>
<!-- ExecuteUbergraph_ITM_SaveSlot_Entry_ClassIcon__10 -->
<g id="node4" class="node">
<title>ExecuteUbergraph_ITM_SaveSlot_Entry_ClassIcon__10</title>
<polygon fill="#eeeeee" stroke="black" points="1760.5,-1071.5 1760.5,-1139.5 2313.5,-1139.5 2313.5,-1071.5 1760.5,-1071.5"/>
<text text-anchor="start" x="1768.5" y="-1124.3" font-family="monospace" font-size="14.00">EX_LetBool</text>
<text text-anchor="start" x="1768.5" y="-1109.3" font-family="monospace" font-size="14.00">  EX_LocalVariable [CallFunc_IsValid_ReturnValue]</text>
<text text-anchor="start" x="1768.5" y="-1094.3" font-family="monospace" font-size="14.00">  EX_CallMath import /Script/Engine&#45;&gt;KismetSystemLibrary&#45;&gt;IsValid</text>
<text text-anchor="start" x="1768.5" y="-1079.3" font-family="monospace" font-size="14.00">    EX_InstanceVariable [PlayerCharacter]</text>
</g>
<!-- ExecuteUbergraph_ITM_SaveSlot_Entry_ClassIcon__39 -->
<g id="node5" class="node">
<title>ExecuteUbergraph_ITM_SaveSlot_Entry_ClassIcon__39</title>
<polygon fill="#eeeeee" stroke="black" points="1826.5,-958 1826.5,-996 2247.5,-996 2247.5,-958 1826.5,-958"/>
<text text-anchor="start" x="1834.5" y="-980.8" font-family="monospace" font-size="14.00">EX_JumpIfNot 304</text>
<text text-anchor="start" x="1834.5" y="-965.8" font-family="monospace" font-size="14.00">  EX_LocalVariable [CallFunc_IsValid_ReturnValue]</text>
</g>
<!-- ExecuteUbergraph_ITM_SaveSlot_Entry_ClassIcon__10&#45;&gt;ExecuteUbergraph_ITM_SaveSlot_Entry_ClassIcon__39 -->
<g id="edge2" class="edge">
<title>ExecuteUbergraph_ITM_SaveSlot_Entry_ClassIcon__10&#45;&gt;ExecuteUbergraph_ITM_SaveSlot_Entry_ClassIcon__39</title>
<path fill="none" stroke="black" d="M2037,-1071.59C2037,-1051.68 2037,-1026.51 2037,-1007.29"/>
<polygon fill="black" stroke="black" points="2040.5,-1007.43 2037,-997.43 2033.5,-1007.43 2040.5,-1007.43"/>
</g>
<!-- ExecuteUbergraph_ITM_SaveSlot_Entry_ClassIcon__53 -->
<g id="node6" class="node">
<title>ExecuteUbergraph_ITM_SaveSlot_Entry_ClassIcon__53</title>
<polygon fill="#eeeeee" stroke="black" points="1611,-785.5 1611,-883.5 2255,-883.5 2255,-785.5 1611,-785.5"/>
<text text-anchor="start" x="1619" y="-868.3" font-family="monospace" font-size="14.00">EX_LetObj</text>
<text text-anchor="start" x="1619" y="-853.3" font-family="monospace" font-size="14.00">  EX_LocalVariable [CallFunc_GetCharacterData_ReturnValue]</text>
<text text-anchor="start" x="1619" y="-838.3" font-family="monospace" font-size="14.00">  EX_Context</text>
<text text-anchor="start" x="1619" y="-823.3" font-family="monospace" font-size="14.00">    EX_InstanceVariable [PlayerCharacter]</text>
<text text-anchor="start" x="1619" y="-808.3" font-family="monospace" font-size="14.00">    EX_FinalFunction import /Script/FSD&#45;&gt;PlayerCharacterID&#45;&gt;GetCharacterData</text>
<text text-anchor="start" x="1619" y="-793.3" font-family="monospace" font-size="14.00">    RValue = [CallFunc_GetCharacterData_ReturnValue]</text>
</g>
<!-- ExecuteUbergraph_ITM_SaveSlot_Entry_ClassIcon__39&#45;&gt;ExecuteUbergraph_ITM_SaveSlot_Entry_ClassIcon__53 -->
<g id="edge4" class="edge">
<title>ExecuteUbergraph_ITM_SaveSlot_Entry_ClassIcon__39&#45;&gt;ExecuteUbergraph_ITM_SaveSlot_Entry_ClassIcon__53</title>
<path fill="none" stroke="black" d="M2023.83,-958.21C2011.57,-941.65 1992.63,-916.06 1975.21,-892.52"/>
<polygon fill="black" stroke="black" points="1978.03,-890.46 1969.27,-884.5 1972.41,-894.62 1978.03,-890.46"/>
<text text-anchor="middle" x="2000.5" y="-905.8" font-family="monospace" font-size="14.00">IF</text>
</g>
<!-- ExecuteUbergraph_ITM_SaveSlot_Entry_ClassIcon__304 -->
<g id="node13" class="node">
<title>ExecuteUbergraph_ITM_SaveSlot_Entry_ClassIcon__304</title>
<polygon fill="#eeeeee" stroke="black" points="2160,-0.5 2160,-38.5 2276,-38.5 2276,-0.5 2160,-0.5"/>
<text text-anchor="start" x="2168" y="-23.3" font-family="monospace" font-size="14.00">EX_Return</text>
<text text-anchor="start" x="2168" y="-8.3" font-family="monospace" font-size="14.00">  EX_Nothing</text>
</g>
<!-- ExecuteUbergraph_ITM_SaveSlot_Entry_ClassIcon__39&#45;&gt;ExecuteUbergraph_ITM_SaveSlot_Entry_ClassIcon__304 -->
<g id="edge3" class="edge">
<title>ExecuteUbergraph_ITM_SaveSlot_Entry_ClassIcon__39:e&#45;&gt;ExecuteUbergraph_ITM_SaveSlot_Entry_ClassIcon__304</title>
<path fill="none" stroke="red" d="M2249,-977C2258.46,-977 2253.98,-944.24 2256,-935 2265.78,-890.23 2283,-881.32 2283,-835.5 2283,-835.5 2283,-835.5 2283,-102 2283,-79.86 2268.15,-60.27 2252.65,-45.84"/>
<polygon fill="none" stroke="red" points="2255.05,-43.29 2245.21,-39.37 2250.46,-48.57 2255.05,-43.29"/>
<text text-anchor="middle" x="2308" y="-498.8" font-family="monospace" font-size="14.00">IF NOT</text>
</g>
<!-- ExecuteUbergraph_ITM_SaveSlot_Entry_ClassIcon__95 -->
<g id="node7" class="node">
<title>ExecuteUbergraph_ITM_SaveSlot_Entry_ClassIcon__95</title>
<polygon fill="#eeeeee" stroke="black" points="1656.5,-679.5 1656.5,-747.5 2209.5,-747.5 2209.5,-679.5 1656.5,-679.5"/>
<text text-anchor="start" x="1664.5" y="-732.3" font-family="monospace" font-size="14.00">EX_LetBool</text>
<text text-anchor="start" x="1664.5" y="-717.3" font-family="monospace" font-size="14.00">  EX_LocalVariable [CallFunc_IsValid_ReturnValue_1]</text>
<text text-anchor="start" x="1664.5" y="-702.3" font-family="monospace" font-size="14.00">  EX_CallMath import /Script/Engine&#45;&gt;KismetSystemLibrary&#45;&gt;IsValid</text>
<text text-anchor="start" x="1664.5" y="-687.3" font-family="monospace" font-size="14.00">    EX_LocalVariable [CallFunc_GetCharacterData_ReturnValue]</text>
</g>
<!-- ExecuteUbergraph_ITM_SaveSlot_Entry_ClassIcon__53&#45;&gt;ExecuteUbergraph_ITM_SaveSlot_Entry_ClassIcon__95 -->
<g id="edge5" class="edge">
<title>ExecuteUbergraph_ITM_SaveSlot_Entry_ClassIcon__53&#45;&gt;ExecuteUbergraph_ITM_SaveSlot_Entry_ClassIcon__95</title>
<path fill="none" stroke="black" d="M1933,-785.78C1933,-776.79 1933,-767.43 1933,-758.55"/>
<polygon fill="black" stroke="black" points="1936.5,-758.76 1933,-748.76 1929.5,-758.76 1936.5,-758.76"/>
</g>
<!-- ExecuteUbergraph_ITM_SaveSlot_Entry_ClassIcon__124 -->
<g id="node8" class="node">
<title>ExecuteUbergraph_ITM_SaveSlot_Entry_ClassIcon__124</title>
<polygon fill="#eeeeee" stroke="black" points="1714.5,-603.5 1714.5,-641.5 2151.5,-641.5 2151.5,-603.5 1714.5,-603.5"/>
<text text-anchor="start" x="1722.5" y="-626.3" font-family="monospace" font-size="14.00">EX_JumpIfNot 304</text>
<text text-anchor="start" x="1722.5" y="-611.3" font-family="monospace" font-size="14.00">  EX_LocalVariable [CallFunc_IsValid_ReturnValue_1]</text>
</g>
<!-- ExecuteUbergraph_ITM_SaveSlot_Entry_ClassIcon__95&#45;&gt;ExecuteUbergraph_ITM_SaveSlot_Entry_ClassIcon__124 -->
<g id="edge6" class="edge">
<title>ExecuteUbergraph_ITM_SaveSlot_Entry_ClassIcon__95&#45;&gt;ExecuteUbergraph_ITM_SaveSlot_Entry_ClassIcon__124</title>
<path fill="none" stroke="black" d="M1933,-679.61C1933,-670.79 1933,-661.32 1933,-652.72"/>
<polygon fill="black" stroke="black" points="1936.5,-652.8 1933,-642.8 1929.5,-652.8 1936.5,-652.8"/>
</g>
<!-- ExecuteUbergraph_ITM_SaveSlot_Entry_ClassIcon__138 -->
<g id="node9" class="node">
<title>ExecuteUbergraph_ITM_SaveSlot_Entry_ClassIcon__138</title>
<polygon fill="#eeeeee" stroke="black" points="1546,-453.5 1546,-551.5 2190,-551.5 2190,-453.5 1546,-453.5"/>
<text text-anchor="start" x="1554" y="-536.3" font-family="monospace" font-size="14.00">EX_LetObj</text>
<text text-anchor="start" x="1554" y="-521.3" font-family="monospace" font-size="14.00">  EX_LocalVariable [CallFunc_GetCharacterData_ReturnValue]</text>
<text text-anchor="start" x="1554" y="-506.3" font-family="monospace" font-size="14.00">  EX_Context</text>
<text text-anchor="start" x="1554" y="-491.3" font-family="monospace" font-size="14.00">    EX_InstanceVariable [PlayerCharacter]</text>
<text text-anchor="start" x="1554" y="-476.3" font-family="monospace" font-size="14.00">    EX_FinalFunction import /Script/FSD&#45;&gt;PlayerCharacterID&#45;&gt;GetCharacterData</text>
<text text-anchor="start" x="1554" y="-461.3" font-family="monospace" font-size="14.00">    RValue = [CallFunc_GetCharacterData_ReturnValue]</text>
</g>
<!-- ExecuteUbergraph_ITM_SaveSlot_Entry_ClassIcon__124&#45;&gt;ExecuteUbergraph_ITM_SaveSlot_Entry_ClassIcon__138 -->
<g id="edge8" class="edge">
<title>ExecuteUbergraph_ITM_SaveSlot_Entry_ClassIcon__124&#45;&gt;ExecuteUbergraph_ITM_SaveSlot_Entry_ClassIcon__138</title>
<path fill="none" stroke="black" d="M1923.13,-603.58C1916.86,-592.21 1908.37,-576.8 1899.94,-561.48"/>
<polygon fill="black" stroke="black" points="1903.04,-559.86 1895.15,-552.79 1896.91,-563.24 1903.04,-559.86"/>
<text text-anchor="middle" x="1920.5" y="-573.8" font-family="monospace" font-size="14.00">IF</text>
</g>
<!-- ExecuteUbergraph_ITM_SaveSlot_Entry_ClassIcon__124&#45;&gt;ExecuteUbergraph_ITM_SaveSlot_Entry_ClassIcon__304 -->
<g id="edge7" class="edge">
<title>ExecuteUbergraph_ITM_SaveSlot_Entry_ClassIcon__124:e&#45;&gt;ExecuteUbergraph_ITM_SaveSlot_Entry_ClassIcon__304</title>
<path fill="none" stroke="red" d="M2153,-622.5C2213.26,-622.5 2218,-563.76 2218,-503.5 2218,-503.5 2218,-503.5 2218,-102 2218,-84.69 2218,-65.32 2218,-49.81"/>
<polygon fill="none" stroke="red" points="2221.5,-49.82 2218,-39.82 2214.5,-49.82 2221.5,-49.82"/>
<text text-anchor="middle" x="2243" y="-287.8" font-family="monospace" font-size="14.00">IF NOT</text>
</g>
<!-- ExecuteUbergraph_ITM_SaveSlot_Entry_ClassIcon__180 -->
<g id="node10" class="node">
<title>ExecuteUbergraph_ITM_SaveSlot_Entry_ClassIcon__180</title>
<polygon fill="#eeeeee" stroke="black" points="1574,-317.5 1574,-415.5 2168,-415.5 2168,-317.5 1574,-317.5"/>
<text text-anchor="start" x="1582" y="-400.3" font-family="monospace" font-size="14.00">EX_Let</text>
<text text-anchor="start" x="1582" y="-385.3" font-family="monospace" font-size="14.00">  EX_LocalVariable [CallFunc_GetColor_ReturnValue]</text>
<text text-anchor="start" x="1582" y="-370.3" font-family="monospace" font-size="14.00">  EX_Context</text>
<text text-anchor="start" x="1582" y="-355.3" font-family="monospace" font-size="14.00">    EX_LocalVariable [CallFunc_GetCharacterData_ReturnValue]</text>
<text text-anchor="start" x="1582" y="-340.3" font-family="monospace" font-size="14.00">    EX_FinalFunction import /Script/FSD&#45;&gt;PlayerCharacterData&#45;&gt;GetColor</text>
<text text-anchor="start" x="1582" y="-325.3" font-family="monospace" font-size="14.00">    RValue = [CallFunc_GetColor_ReturnValue]</text>
</g>
<!-- ExecuteUbergraph_ITM_SaveSlot_Entry_ClassIcon__138&#45;&gt;ExecuteUbergraph_ITM_SaveSlot_Entry_ClassIcon__180 -->
<g id="edge9" class="edge">
<title>ExecuteUbergraph_ITM_SaveSlot_Entry_ClassIcon__138&#45;&gt;ExecuteUbergraph_ITM_SaveSlot_Entry_ClassIcon__180</title>
<path fill="none" stroke="black" d="M1869.07,-453.5C1869.27,-444.74 1869.48,-435.5 1869.68,-426.46"/>
<polygon fill="black" stroke="black" points="1873.17,-426.75 1869.9,-416.68 1866.18,-426.6 1873.17,-426.75"/>
</g>
<!-- ExecuteUbergraph_ITM_SaveSlot_Entry_ClassIcon__230 -->
<g id="node11" class="node">
<title>ExecuteUbergraph_ITM_SaveSlot_Entry_ClassIcon__230</title>
<polygon fill="#eeeeee" stroke="black" points="1562.5,-167.5 1562.5,-265.5 2189.5,-265.5 2189.5,-167.5 1562.5,-167.5"/>
<text text-anchor="start" x="1570.5" y="-250.3" font-family="monospace" font-size="14.00">EX_LetObj</text>
<text text-anchor="start" x="1570.5" y="-235.3" font-family="monospace" font-size="14.00">  EX_LocalVariable [CallFunc_GetSmallIcon_ReturnValue]</text>
<text text-anchor="start" x="1570.5" y="-220.3" font-family="monospace" font-size="14.00">  EX_Context</text>
<text text-anchor="start" x="1570.5" y="-205.3" font-family="monospace" font-size="14.00">    EX_LocalVariable [CallFunc_GetCharacterData_ReturnValue]</text>
<text text-anchor="start" x="1570.5" y="-190.3" font-family="monospace" font-size="14.00">    EX_FinalFunction import /Script/FSD&#45;&gt;PlayerCharacterData&#45;&gt;GetSmallIcon</text>
<text text-anchor="start" x="1570.5" y="-175.3" font-family="monospace" font-size="14.00">    RValue = [CallFunc_GetSmallIcon_ReturnValue]</text>
</g>
<!-- ExecuteUbergraph_ITM_SaveSlot_Entry_ClassIcon__180&#45;&gt;ExecuteUbergraph_ITM_SaveSlot_Entry_ClassIcon__230 -->
<g id="edge10" class="edge">
<title>ExecuteUbergraph_ITM_SaveSlot_Entry_ClassIcon__180&#45;&gt;ExecuteUbergraph_ITM_SaveSlot_Entry_ClassIcon__230</title>
<path fill="none" stroke="black" d="M1872.61,-317.86C1873.05,-304.72 1873.54,-290.31 1874,-276.61"/>
<polygon fill="black" stroke="black" points="1877.49,-276.93 1874.33,-266.82 1870.5,-276.7 1877.49,-276.93"/>
</g>
<!-- ExecuteUbergraph_ITM_SaveSlot_Entry_ClassIcon__272 -->
<g id="node12" class="node">
<title>ExecuteUbergraph_ITM_SaveSlot_Entry_ClassIcon__272</title>
<polygon fill="#eeeeee" stroke="black" points="1707,-76.5 1707,-129.5 2169,-129.5 2169,-76.5 1707,-76.5"/>
<text text-anchor="start" x="1715" y="-114.3" font-family="monospace" font-size="14.00">EX_LocalVirtualFunction SetPlayerData</text>
<text text-anchor="start" x="1715" y="-99.3" font-family="monospace" font-size="14.00">  EX_LocalVariable [CallFunc_GetSmallIcon_ReturnValue]</text>
<text text-anchor="start" x="1715" y="-84.3" font-family="monospace" font-size="14.00">  EX_LocalVariable [CallFunc_GetColor_ReturnValue]</text>
</g>
<!-- ExecuteUbergraph_ITM_SaveSlot_Entry_ClassIcon__230&#45;&gt;ExecuteUbergraph_ITM_SaveSlot_Entry_ClassIcon__272 -->
<g id="edge11" class="edge">
<title>ExecuteUbergraph_ITM_SaveSlot_Entry_ClassIcon__230&#45;&gt;ExecuteUbergraph_ITM_SaveSlot_Entry_ClassIcon__272</title>
<path fill="none" stroke="black" d="M1902.65,-167.57C1907.89,-158.15 1913.3,-148.43 1918.26,-139.51"/>
<polygon fill="black" stroke="black" points="1921.3,-141.23 1923.1,-130.79 1915.18,-137.83 1921.3,-141.23"/>
</g>
<!-- ExecuteUbergraph_ITM_SaveSlot_Entry_ClassIcon__272&#45;&gt;ExecuteUbergraph_ITM_SaveSlot_Entry_ClassIcon__304 -->
<g id="edge12" class="edge">
<title>ExecuteUbergraph_ITM_SaveSlot_Entry_ClassIcon__272&#45;&gt;ExecuteUbergraph_ITM_SaveSlot_Entry_ClassIcon__304</title>
<path fill="none" stroke="black" d="M2025.44,-76.55C2065.46,-64.9 2112.18,-51.3 2149.57,-40.42"/>
<polygon fill="black" stroke="black" points="2150.28,-43.86 2158.91,-37.7 2148.33,-37.13 2150.28,-43.86"/>
</g>
<!-- ExecuteUbergraph_ITM_SaveSlot_Entry_ClassIcon__306 -->
<g id="node14" class="node">
<title>ExecuteUbergraph_ITM_SaveSlot_Entry_ClassIcon__306</title>
<polygon fill="#eeeeee" stroke="black" points="1999,-1427.5 1999,-1463.5 2131,-1463.5 2131,-1427.5 1999,-1427.5"/>
<text text-anchor="start" x="2007" y="-1441.8" font-family="monospace" font-size="14.00">EX_EndOfScript</text>
</g>
<!-- PreConstruct -->
<g id="node15" class="node">
<title>PreConstruct</title>
<polygon fill="#ff8888" stroke="black" points="1356,-1587.5 1356,-1640.5 1826,-1640.5 1826,-1587.5 1356,-1587.5"/>
<text text-anchor="start" x="1364" y="-1625.3" font-family="monospace" font-size="14.00">Function PreConstruct</text>
<text text-anchor="start" x="1364" y="-1610.3" font-family="monospace" font-size="14.00">  BoolProperty IsDesignTime</text>
<text text-anchor="start" x="1364" y="-1595.3" font-family="monospace" font-size="14.00">    CPF_BlueprintVisible|CPF_BlueprintReadOnly|CPF_Parm</text>
</g>
<!-- PreConstruct__0 -->
<g id="node16" class="node">
<title>PreConstruct__0</title>
<polygon fill="#eeeeee" stroke="black" points="1351.5,-1363 1351.5,-1401 1830.5,-1401 1830.5,-1363 1351.5,-1363"/>
<text text-anchor="start" x="1359.5" y="-1385.8" font-family="monospace" font-size="14.00">EX_LetValueOnPersistentFrame [K2Node_Event_IsDesignTime]</text>
<text text-anchor="start" x="1359.5" y="-1370.8" font-family="monospace" font-size="14.00">  EX_LocalVariable [IsDesignTime]</text>
</g>
<!-- PreConstruct&#45;&gt;PreConstruct__0 -->
<g id="edge13" class="edge">
<title>PreConstruct&#45;&gt;PreConstruct__0</title>
<path fill="none" stroke="black" d="M1591,-1587.51C1591,-1544.44 1591,-1457.54 1591,-1412.13"/>
<polygon fill="black" stroke="black" points="1594.5,-1412.27 1591,-1402.27 1587.5,-1412.27 1594.5,-1412.27"/>
</g>
<!-- PreConstruct__18 -->
<g id="node17" class="node">
<title>PreConstruct__18</title>
<polygon fill="#eeeeee" stroke="black" points="1145.5,-1236 1145.5,-1274 2036.5,-1274 2036.5,-1236 1145.5,-1236"/>
<text text-anchor="start" x="1153.5" y="-1258.8" font-family="monospace" font-size="14.00">EX_LocalFinalFunction export ITM_SaveSlot_Entry_ClassIcon_C&#45;&gt;ExecuteUbergraph_ITM_SaveSlot_Entry_ClassIcon</text>
<text text-anchor="start" x="1153.5" y="-1243.8" font-family="monospace" font-size="14.00">  EX_IntConst 10</text>
</g>
<!-- PreConstruct__0&#45;&gt;PreConstruct__18 -->
<g id="edge14" class="edge">
<title>PreConstruct__0&#45;&gt;PreConstruct__18</title>
<path fill="none" stroke="black" d="M1591,-1363.09C1591,-1342.76 1591,-1309.3 1591,-1285.19"/>
<polygon fill="black" stroke="black" points="1594.5,-1285.39 1591,-1275.39 1587.5,-1285.39 1594.5,-1285.39"/>
</g>
<!-- PreConstruct__18&#45;&gt;ExecuteUbergraph_ITM_SaveSlot_Entry_ClassIcon__10 -->
<g id="edge15" class="edge">
<title>PreConstruct__18:e&#45;&gt;ExecuteUbergraph_ITM_SaveSlot_Entry_ClassIcon__10</title>
<path fill="none" stroke="red" d="M2038,-1255C2080.31,-1255 2067.97,-1193.99 2053.65,-1150.18"/>
<polygon fill="none" stroke="red" points="2057.03,-1149.23 2050.49,-1140.89 2050.4,-1151.48 2057.03,-1149.23"/>
</g>
<!-- PreConstruct__33 -->
<g id="node18" class="node">
<title>PreConstruct__33</title>
<polygon fill="#eeeeee" stroke="black" points="1533,-1086.5 1533,-1124.5 1649,-1124.5 1649,-1086.5 1533,-1086.5"/>
<text text-anchor="start" x="1541" y="-1109.3" font-family="monospace" font-size="14.00">EX_Return</text>
<text text-anchor="start" x="1541" y="-1094.3" font-family="monospace" font-size="14.00">  EX_Nothing</text>
</g>
<!-- PreConstruct__18&#45;&gt;PreConstruct__33 -->
<g id="edge16" class="edge">
<title>PreConstruct__18&#45;&gt;PreConstruct__33</title>
<path fill="none" stroke="black" d="M1591,-1236.21C1591,-1211.29 1591,-1165.7 1591,-1135.75"/>
<polygon fill="black" stroke="black" points="1594.5,-1135.87 1591,-1125.87 1587.5,-1135.87 1594.5,-1135.87"/>
</g>
<!-- PreConstruct__35 -->
<g id="node19" class="node">
<title>PreConstruct__35</title>
<polygon fill="#eeeeee" stroke="black" points="1999,-1300.5 1999,-1336.5 2131,-1336.5 2131,-1300.5 1999,-1300.5"/>
<text text-anchor="start" x="2007" y="-1314.8" font-family="monospace" font-size="14.00">EX_EndOfScript</text>
</g>
<!-- SetPlayerData -->
<g id="node20" class="node">
<title>SetPlayerData</title>
<polygon fill="#ff8888" stroke="black" points="2303,-1572.5 2303,-1655.5 2773,-1655.5 2773,-1572.5 2303,-1572.5"/>
<text text-anchor="start" x="2311" y="-1640.3" font-family="monospace" font-size="14.00">Function SetPlayerData</text>
<text text-anchor="start" x="2311" y="-1625.3" font-family="monospace" font-size="14.00">  ObjectProperty InIcon</text>
<text text-anchor="start" x="2311" y="-1610.3" font-family="monospace" font-size="14.00">    CPF_BlueprintVisible|CPF_BlueprintReadOnly|CPF_Parm</text>
<text text-anchor="start" x="2311" y="-1595.3" font-family="monospace" font-size="14.00">  StructProperty InIconTint</text>
<text text-anchor="start" x="2311" y="-1580.3" font-family="monospace" font-size="14.00">    CPF_BlueprintVisible|CPF_BlueprintReadOnly|CPF_Parm</text>
</g>
<!-- SetPlayerData__0 -->
<g id="node21" class="node">
<title>SetPlayerData__0</title>
<polygon fill="#eeeeee" stroke="black" points="2414,-1355.5 2414,-1408.5 2662,-1408.5 2662,-1355.5 2414,-1355.5"/>
<text text-anchor="start" x="2422" y="-1393.3" font-family="monospace" font-size="14.00">EX_LetObj</text>
<text text-anchor="start" x="2422" y="-1378.3" font-family="monospace" font-size="14.00">  EX_InstanceVariable [Icon]</text>
<text text-anchor="start" x="2422" y="-1363.3" font-family="monospace" font-size="14.00">  EX_LocalVariable [InIcon]</text>
</g>
<!-- SetPlayerData&#45;&gt;SetPlayerData__0 -->
<g id="edge17" class="edge">
<title>SetPlayerData&#45;&gt;SetPlayerData__0</title>
<path fill="none" stroke="black" d="M2538,-1572.67C2538,-1529.43 2538,-1461.37 2538,-1419.61"/>
<polygon fill="black" stroke="black" points="2541.5,-1419.83 2538,-1409.83 2534.5,-1419.83 2541.5,-1419.83"/>
</g>
<!-- SetPlayerData__19 -->
<g id="node22" class="node">
<title>SetPlayerData__19</title>
<polygon fill="#eeeeee" stroke="black" points="2397.5,-1228.5 2397.5,-1281.5 2678.5,-1281.5 2678.5,-1228.5 2397.5,-1228.5"/>
<text text-anchor="start" x="2405.5" y="-1266.3" font-family="monospace" font-size="14.00">EX_Let</text>
<text text-anchor="start" x="2405.5" y="-1251.3" font-family="monospace" font-size="14.00">  EX_InstanceVariable [IconTint]</text>
<text text-anchor="start" x="2405.5" y="-1236.3" font-family="monospace" font-size="14.00">  EX_LocalVariable [InIconTint]</text>
</g>
<!-- SetPlayerData__0&#45;&gt;SetPlayerData__19 -->
<g id="edge18" class="edge">
<title>SetPlayerData__0&#45;&gt;SetPlayerData__19</title>
<path fill="none" stroke="black" d="M2538,-1355.7C2538,-1337.58 2538,-1312.88 2538,-1292.6"/>
<polygon fill="black" stroke="black" points="2541.5,-1292.77 2538,-1282.77 2534.5,-1292.77 2541.5,-1292.77"/>
</g>
<!-- SetPlayerData__46 -->
<g id="node23" class="node">
<title>SetPlayerData__46</title>
<polygon fill="#eeeeee" stroke="black" points="2364.5,-1056.5 2364.5,-1154.5 2711.5,-1154.5 2711.5,-1056.5 2364.5,-1056.5"/>
<text text-anchor="start" x="2372.5" y="-1139.3" font-family="monospace" font-size="14.00">EX_Context</text>
<text text-anchor="start" x="2372.5" y="-1124.3" font-family="monospace" font-size="14.00">  EX_InstanceVariable [PlayerIcon]</text>
<text text-anchor="start" x="2372.5" y="-1109.3" font-family="monospace" font-size="14.00">  EX_VirtualFunction SetBrushFromTexture</text>
<text text-anchor="start" x="2372.5" y="-1094.3" font-family="monospace" font-size="14.00">    EX_InstanceVariable [Icon]</text>
<text text-anchor="start" x="2372.5" y="-1079.3" font-family="monospace" font-size="14.00">    EX_False</text>
<text text-anchor="start" x="2372.5" y="-1064.3" font-family="monospace" font-size="14.00">  RValue = []</text>
</g>
<!-- SetPlayerData__19&#45;&gt;SetPlayerData__46 -->
<g id="edge19" class="edge">
<title>SetPlayerData__19&#45;&gt;SetPlayerData__46</title>
<path fill="none" stroke="black" d="M2538,-1228.64C2538,-1211.32 2538,-1187.61 2538,-1165.7"/>
<polygon fill="black" stroke="black" points="2541.5,-1165.95 2538,-1155.95 2534.5,-1165.95 2541.5,-1165.95"/>
</g>
<!-- SetPlayerData__92 -->
<g id="node24" class="node">
<title>SetPlayerData__92</title>
<polygon fill="#eeeeee" stroke="black" points="2265.5,-935.5 2265.5,-1018.5 2810.5,-1018.5 2810.5,-935.5 2265.5,-935.5"/>
<text text-anchor="start" x="2273.5" y="-1003.3" font-family="monospace" font-size="14.00">EX_Context</text>
<text text-anchor="start" x="2273.5" y="-988.3" font-family="monospace" font-size="14.00">  EX_InstanceVariable [PlayerIcon]</text>
<text text-anchor="start" x="2273.5" y="-973.3" font-family="monospace" font-size="14.00">  EX_FinalFunction import /Script/UMG&#45;&gt;Image&#45;&gt;SetColorAndOpacity</text>
<text text-anchor="start" x="2273.5" y="-958.3" font-family="monospace" font-size="14.00">    EX_InstanceVariable [IconTint]</text>
<text text-anchor="start" x="2273.5" y="-943.3" font-family="monospace" font-size="14.00">  RValue = []</text>
</g>
<!-- SetPlayerData__46&#45;&gt;SetPlayerData__92 -->
<g id="edge20" class="edge">
<title>SetPlayerData__46&#45;&gt;SetPlayerData__92</title>
<path fill="none" stroke="black" d="M2538,-1056.68C2538,-1047.92 2538,-1038.74 2538,-1029.87"/>
<polygon fill="black" stroke="black" points="2541.5,-1029.97 2538,-1019.97 2534.5,-1029.97 2541.5,-1029.97"/>
</g>
<!-- SetPlayerData__133 -->
<g id="node25" class="node">
<title>SetPlayerData__133</title>
<polygon fill="#eeeeee" stroke="black" points="2480,-815.5 2480,-853.5 2596,-853.5 2596,-815.5 2480,-815.5"/>
<text text-anchor="start" x="2488" y="-838.3" font-family="monospace" font-size="14.00">EX_Return</text>
<text text-anchor="start" x="2488" y="-823.3" font-family="monospace" font-size="14.00">  EX_Nothing</text>
</g>
<!-- SetPlayerData__92&#45;&gt;SetPlayerData__133 -->
<g id="edge21" class="edge">
<title>SetPlayerData__92&#45;&gt;SetPlayerData__133</title>
<path fill="none" stroke="black" d="M2538,-935.74C2538,-913.07 2538,-885.27 2538,-864.7"/>
<polygon fill="black" stroke="black" points="2541.5,-864.75 2538,-854.75 2534.5,-864.75 2541.5,-864.75"/>
</g>
<!-- SetPlayerData__135 -->
<g id="node26" class="node">
<title>SetPlayerData__135</title>
<polygon fill="#eeeeee" stroke="black" points="2553,-1173.5 2553,-1209.5 2685,-1209.5 2685,-1173.5 2553,-1173.5"/>
<text text-anchor="start" x="2561" y="-1187.8" font-family="monospace" font-size="14.00">EX_EndOfScript</text>
</g>
</g>
</svg>
