<?xml version="1.0" encoding="UTF-8" standalone="no"?>
<!DOCTYPE svg PUBLIC "-//W3C//DTD SVG 1.1//EN"
 "http://www.w3.org/Graphics/SVG/1.1/DTD/svg11.dtd">
<!-- Generated by graphviz version 7.0.1 (0)
 -->
<!-- Pages: 1 -->
<svg width="2221pt" height="557pt"
 viewBox="0.00 0.00 2220.50 557.00" xmlns="http://www.w3.org/2000/svg" xmlns:xlink="http://www.w3.org/1999/xlink">
<g id="graph0" class="graph" transform="scale(1 1) rotate(0) translate(4 553)">
<polygon fill="white" stroke="none" points="-4,4 -4,-553 2216.5,-553 2216.5,4 -4,4"/>
<!-- AIC_Spider_Spawn_C -->
<g id="node1" class="node">
<title>AIC_Spider_Spawn_C</title>
<polygon fill="#88ff88" stroke="black" points="0,-465.5 0,-548.5 569,-548.5 569,-465.5 0,-465.5"/>
<text text-anchor="start" x="8" y="-533.3" font-family="monospace" font-size="14.00">ClassExport: AIC_Spider_Spawn_C</text>
<text text-anchor="start" x="8" y="-518.3" font-family="monospace" font-size="14.00">  SuperStruct: import /Game/Enemies/Spider/AIC_Spider&#45;&gt;AIC_Spider_C</text>
<text text-anchor="start" x="8" y="-503.3" font-family="monospace" font-size="14.00">  Properties:</text>
<text text-anchor="start" x="8" y="-488.3" font-family="monospace" font-size="14.00">    StructProperty UberGraphFrame</text>
<text text-anchor="start" x="8" y="-473.3" font-family="monospace" font-size="14.00">      CPF_Transient|CPF_DuplicateTransient</text>
</g>
<!-- ExecuteUbergraph_AIC_Spider_Spawn -->
<g id="node2" class="node">
<title>ExecuteUbergraph_AIC_Spider_Spawn</title>
<polygon fill="#ff8888" stroke="black" points="587.5,-473 587.5,-541 1057.5,-541 1057.5,-473 587.5,-473"/>
<text text-anchor="start" x="595.5" y="-525.8" font-family="monospace" font-size="14.00">Function ExecuteUbergraph_AIC_Spider_Spawn</text>
<text text-anchor="start" x="595.5" y="-510.8" font-family="monospace" font-size="14.00">  IntProperty EntryPoint</text>
<text text-anchor="start" x="595.5" y="-495.8" font-family="monospace" font-size="14.00">    CPF_BlueprintVisible|CPF_BlueprintReadOnly|CPF_Parm</text>
<text text-anchor="start" x="595.5" y="-480.8" font-family="monospace" font-size="14.00">  NameProperty CallFunc_MakeLiteralName_ReturnValue</text>
</g>
<!-- ExecuteUbergraph_AIC_Spider_Spawn__0 -->
<g id="node3" class="node">
<title>ExecuteUbergraph_AIC_Spider_Spawn__0</title>
<polygon fill="#eeeeee" stroke="black" points="686.5,-390.5 686.5,-428.5 958.5,-428.5 958.5,-390.5 686.5,-390.5"/>
<text text-anchor="start" x="694.5" y="-413.3" font-family="monospace" font-size="14.00">EX_ComputedJump</text>
<text text-anchor="start" x="694.5" y="-398.3" font-family="monospace" font-size="14.00">  EX_LocalVariable [EntryPoint]</text>
</g>
<!-- ExecuteUbergraph_AIC_Spider_Spawn&#45;&gt;ExecuteUbergraph_AIC_Spider_Spawn__0 -->
<g id="edge1" class="edge">
<title>ExecuteUbergraph_AIC_Spider_Spawn&#45;&gt;ExecuteUbergraph_AIC_Spider_Spawn__0</title>
<path fill="none" stroke="black" d="M822.5,-473.13C822.5,-462.24 822.5,-450.19 822.5,-439.6"/>
<polygon fill="black" stroke="black" points="826,-439.9 822.5,-429.9 819,-439.9 826,-439.9"/>
</g>
<!-- ExecuteUbergraph_AIC_Spider_Spawn__10 -->
<g id="node4" class="node">
<title>ExecuteUbergraph_AIC_Spider_Spawn__10</title>
<polygon fill="#eeeeee" stroke="black" points="1340.5,-316.5 1340.5,-352.5 2116.5,-352.5 2116.5,-316.5 1340.5,-316.5"/>
<text text-anchor="start" x="1348.5" y="-330.8" font-family="monospace" font-size="14.00">EX_LocalFinalFunction import /Game/Enemies/Spider/AIC_Spider&#45;&gt;AIC_Spider_C&#45;&gt;ReceiveBeginPlay</text>
</g>
<!-- ExecuteUbergraph_AIC_Spider_Spawn__20 -->
<g id="node5" class="node">
<title>ExecuteUbergraph_AIC_Spider_Spawn__20</title>
<polygon fill="#eeeeee" stroke="black" points="1419,-210.5 1419,-278.5 2038,-278.5 2038,-210.5 1419,-210.5"/>
<text text-anchor="start" x="1427" y="-263.3" font-family="monospace" font-size="14.00">EX_Let</text>
<text text-anchor="start" x="1427" y="-248.3" font-family="monospace" font-size="14.00">  EX_LocalVariable [CallFunc_MakeLiteralName_ReturnValue]</text>
<text text-anchor="start" x="1427" y="-233.3" font-family="monospace" font-size="14.00">  EX_CallMath import /Script/Engine&#45;&gt;KismetSystemLibrary&#45;&gt;MakeLiteralName</text>
<text text-anchor="start" x="1427" y="-218.3" font-family="monospace" font-size="14.00">    EX_NameConst SpawnJump</text>
</g>
<!-- ExecuteUbergraph_AIC_Spider_Spawn__10&#45;&gt;ExecuteUbergraph_AIC_Spider_Spawn__20 -->
<g id="edge2" class="edge">
<title>ExecuteUbergraph_AIC_Spider_Spawn__10&#45;&gt;ExecuteUbergraph_AIC_Spider_Spawn__20</title>
<path fill="none" stroke="black" d="M1728.5,-316.53C1728.5,-308.86 1728.5,-299.4 1728.5,-289.92"/>
<polygon fill="black" stroke="black" points="1732,-289.97 1728.5,-279.97 1725,-289.97 1732,-289.97"/>
</g>
<!-- ExecuteUbergraph_AIC_Spider_Spawn__61 -->
<g id="node6" class="node">
<title>ExecuteUbergraph_AIC_Spider_Spawn__61</title>
<polygon fill="#eeeeee" stroke="black" points="1394.5,-75.5 1394.5,-173.5 2062.5,-173.5 2062.5,-75.5 1394.5,-75.5"/>
<text text-anchor="start" x="1402.5" y="-158.3" font-family="monospace" font-size="14.00">EX_Context</text>
<text text-anchor="start" x="1402.5" y="-143.3" font-family="monospace" font-size="14.00">  EX_InstanceVariable [Blackboard]</text>
<text text-anchor="start" x="1402.5" y="-128.3" font-family="monospace" font-size="14.00">  EX_FinalFunction import /Script/AIModule&#45;&gt;BlackboardComponent&#45;&gt;SetValueAsBool</text>
<text text-anchor="start" x="1402.5" y="-113.3" font-family="monospace" font-size="14.00">    EX_LocalVariable [CallFunc_MakeLiteralName_ReturnValue]</text>
<text text-anchor="start" x="1402.5" y="-98.3" font-family="monospace" font-size="14.00">    EX_True</text>
<text text-anchor="start" x="1402.5" y="-83.3" font-family="monospace" font-size="14.00">  RValue = []</text>
</g>
<!-- ExecuteUbergraph_AIC_Spider_Spawn__20&#45;&gt;ExecuteUbergraph_AIC_Spider_Spawn__61 -->
<g id="edge3" class="edge">
<title>ExecuteUbergraph_AIC_Spider_Spawn__20&#45;&gt;ExecuteUbergraph_AIC_Spider_Spawn__61</title>
<path fill="none" stroke="black" d="M1728.5,-210.63C1728.5,-202.48 1728.5,-193.49 1728.5,-184.51"/>
<polygon fill="black" stroke="black" points="1732,-184.7 1728.5,-174.7 1725,-184.7 1732,-184.7"/>
</g>
<!-- ExecuteUbergraph_AIC_Spider_Spawn__103 -->
<g id="node7" class="node">
<title>ExecuteUbergraph_AIC_Spider_Spawn__103</title>
<polygon fill="#eeeeee" stroke="black" points="1670.5,-0.5 1670.5,-38.5 1786.5,-38.5 1786.5,-0.5 1670.5,-0.5"/>
<text text-anchor="start" x="1678.5" y="-23.3" font-family="monospace" font-size="14.00">EX_Return</text>
<text text-anchor="start" x="1678.5" y="-8.3" font-family="monospace" font-size="14.00">  EX_Nothing</text>
</g>
<!-- ExecuteUbergraph_AIC_Spider_Spawn__61&#45;&gt;ExecuteUbergraph_AIC_Spider_Spawn__103 -->
<g id="edge4" class="edge">
<title>ExecuteUbergraph_AIC_Spider_Spawn__61&#45;&gt;ExecuteUbergraph_AIC_Spider_Spawn__103</title>
<path fill="none" stroke="black" d="M1728.5,-75.62C1728.5,-66.83 1728.5,-57.89 1728.5,-49.85"/>
<polygon fill="black" stroke="black" points="1732,-49.98 1728.5,-39.98 1725,-49.98 1732,-49.98"/>
</g>
<!-- ExecuteUbergraph_AIC_Spider_Spawn__105 -->
<g id="node8" class="node">
<title>ExecuteUbergraph_AIC_Spider_Spawn__105</title>
<polygon fill="#eeeeee" stroke="black" points="2056.5,-226.5 2056.5,-262.5 2188.5,-262.5 2188.5,-226.5 2056.5,-226.5"/>
<text text-anchor="start" x="2064.5" y="-240.8" font-family="monospace" font-size="14.00">EX_EndOfScript</text>
</g>
<!-- ReceiveBeginPlay -->
<g id="node9" class="node">
<title>ReceiveBeginPlay</title>
<polygon fill="#ff8888" stroke="black" points="1212,-489 1212,-525 1435,-525 1435,-489 1212,-489"/>
<text text-anchor="start" x="1220" y="-503.3" font-family="monospace" font-size="14.00">Function ReceiveBeginPlay</text>
</g>
<!-- ReceiveBeginPlay__0 -->
<g id="node10" class="node">
<title>ReceiveBeginPlay__0</title>
<polygon fill="#eeeeee" stroke="black" points="977,-390.5 977,-428.5 1670,-428.5 1670,-390.5 977,-390.5"/>
<text text-anchor="start" x="985" y="-413.3" font-family="monospace" font-size="14.00">EX_LocalFinalFunction export AIC_Spider_Spawn_C&#45;&gt;ExecuteUbergraph_AIC_Spider_Spawn</text>
<text text-anchor="start" x="985" y="-398.3" font-family="monospace" font-size="14.00">  EX_IntConst 10</text>
</g>
<!-- ReceiveBeginPlay&#45;&gt;ReceiveBeginPlay__0 -->
<g id="edge5" class="edge">
<title>ReceiveBeginPlay&#45;&gt;ReceiveBeginPlay__0</title>
<path fill="none" stroke="black" d="M1323.5,-489.37C1323.5,-475.6 1323.5,-455.74 1323.5,-439.39"/>
<polygon fill="black" stroke="black" points="1327,-439.75 1323.5,-429.75 1320,-439.75 1327,-439.75"/>
</g>
<!-- ReceiveBeginPlay__0&#45;&gt;ExecuteUbergraph_AIC_Spider_Spawn__10 -->
<g id="edge6" class="edge">
<title>ReceiveBeginPlay__0:e&#45;&gt;ExecuteUbergraph_AIC_Spider_Spawn__10</title>
<path fill="none" stroke="red" d="M1671.5,-409.5C1695.83,-409.5 1711.22,-384.08 1719.79,-363.04"/>
<polygon fill="none" stroke="red" points="1723.06,-364.3 1723.24,-353.71 1716.49,-361.88 1723.06,-364.3"/>
</g>
<!-- ReceiveBeginPlay__15 -->
<g id="node11" class="node">
<title>ReceiveBeginPlay__15</title>
<polygon fill="#eeeeee" stroke="black" points="1206.5,-315.5 1206.5,-353.5 1322.5,-353.5 1322.5,-315.5 1206.5,-315.5"/>
<text text-anchor="start" x="1214.5" y="-338.3" font-family="monospace" font-size="14.00">EX_Return</text>
<text text-anchor="start" x="1214.5" y="-323.3" font-family="monospace" font-size="14.00">  EX_Nothing</text>
</g>
<!-- ReceiveBeginPlay__0&#45;&gt;ReceiveBeginPlay__15 -->
<g id="edge7" class="edge">
<title>ReceiveBeginPlay__0&#45;&gt;ReceiveBeginPlay__15</title>
<path fill="none" stroke="black" d="M1309.22,-390.83C1302.24,-382.19 1293.7,-371.63 1285.96,-362.05"/>
<polygon fill="black" stroke="black" points="1288.81,-360.02 1279.81,-354.44 1283.37,-364.42 1288.81,-360.02"/>
</g>
<!-- ReceiveBeginPlay__17 -->
<g id="node12" class="node">
<title>ReceiveBeginPlay__17</title>
<polygon fill="#eeeeee" stroke="black" points="2080.5,-106.5 2080.5,-142.5 2212.5,-142.5 2212.5,-106.5 2080.5,-106.5"/>
<text text-anchor="start" x="2088.5" y="-120.8" font-family="monospace" font-size="14.00">EX_EndOfScript</text>
</g>
</g>
</svg>
