<?xml version="1.0" encoding="UTF-8" standalone="no"?>
<!DOCTYPE svg PUBLIC "-//W3C//DTD SVG 1.1//EN"
 "http://www.w3.org/Graphics/SVG/1.1/DTD/svg11.dtd">
<!-- Generated by graphviz version 7.0.1 (0)
 -->
<!-- Pages: 1 -->
<svg width="3150pt" height="1934pt"
 viewBox="0.00 0.00 3150.00 1934.00" xmlns="http://www.w3.org/2000/svg" xmlns:xlink="http://www.w3.org/1999/xlink">
<g id="graph0" class="graph" transform="scale(1 1) rotate(0) translate(4 1930)">
<polygon fill="white" stroke="none" points="-4,4 -4,-1930 3146,-1930 3146,4 -4,4"/>
<!-- BP_Hologram_C -->
<g id="node1" class="node">
<title>BP_Hologram_C</title>
<polygon fill="#88ff88" stroke="black" points="0,-1632.5 0,-1925.5 594,-1925.5 594,-1632.5 0,-1632.5"/>
<text text-anchor="start" x="8" y="-1910.3" font-family="monospace" font-size="14.00">ClassExport: BP_Hologram_C</text>
<text text-anchor="start" x="8" y="-1895.3" font-family="monospace" font-size="14.00">  SuperStruct: import /Script/Engine&#45;&gt;Actor</text>
<text text-anchor="start" x="8" y="-1880.3" font-family="monospace" font-size="14.00">  Properties:</text>
<text text-anchor="start" x="8" y="-1865.3" font-family="monospace" font-size="14.00">    StructProperty UberGraphFrame</text>
<text text-anchor="start" x="8" y="-1850.3" font-family="monospace" font-size="14.00">      CPF_Transient|CPF_DuplicateTransient</text>
<text text-anchor="start" x="8" y="-1835.3" font-family="monospace" font-size="14.00">    ObjectProperty Usable_Collider</text>
<text text-anchor="start" x="8" y="-1820.3" font-family="monospace" font-size="14.00">      CPF_BlueprintVisible|CPF_InstancedReference|CPF_NonTransactional</text>
<text text-anchor="start" x="8" y="-1805.3" font-family="monospace" font-size="14.00">    ObjectProperty RotatingMovement</text>
<text text-anchor="start" x="8" y="-1790.3" font-family="monospace" font-size="14.00">      CPF_BlueprintVisible|CPF_InstancedReference|CPF_NonTransactional</text>
<text text-anchor="start" x="8" y="-1775.3" font-family="monospace" font-size="14.00">    ObjectProperty TextRender</text>
<text text-anchor="start" x="8" y="-1760.3" font-family="monospace" font-size="14.00">      CPF_BlueprintVisible|CPF_InstancedReference|CPF_NonTransactional</text>
<text text-anchor="start" x="8" y="-1745.3" font-family="monospace" font-size="14.00">    ObjectProperty InstantUsable</text>
<text text-anchor="start" x="8" y="-1730.3" font-family="monospace" font-size="14.00">      CPF_BlueprintVisible|CPF_InstancedReference|CPF_NonTransactional</text>
<text text-anchor="start" x="8" y="-1715.3" font-family="monospace" font-size="14.00">    ObjectProperty DefaultSceneRoot</text>
<text text-anchor="start" x="8" y="-1700.3" font-family="monospace" font-size="14.00">      CPF_BlueprintVisible|CPF_InstancedReference|CPF_NonTransactional</text>
<text text-anchor="start" x="8" y="-1685.3" font-family="monospace" font-size="14.00">    FloatProperty RotationSpeed</text>
<text text-anchor="start" x="8" y="-1670.3" font-family="monospace" font-size="14.00">      CPF_Edit|CPF_BlueprintVisible</text>
<text text-anchor="start" x="8" y="-1655.3" font-family="monospace" font-size="14.00">    IntProperty NumberOfMarkers</text>
<text text-anchor="start" x="8" y="-1640.3" font-family="monospace" font-size="14.00">      CPF_Edit|CPF_BlueprintVisible|CPF_DisableEditOnInstance</text>
</g>
<!-- ExecuteUbergraph_BP_Hologram -->
<g id="node2" class="node">
<title>ExecuteUbergraph_BP_Hologram</title>
<polygon fill="#ff8888" stroke="black" points="612,-1692.5 612,-1865.5 1190,-1865.5 1190,-1692.5 612,-1692.5"/>
<text text-anchor="start" x="620" y="-1850.3" font-family="monospace" font-size="14.00">Function ExecuteUbergraph_BP_Hologram</text>
<text text-anchor="start" x="620" y="-1835.3" font-family="monospace" font-size="14.00">  IntProperty EntryPoint</text>
<text text-anchor="start" x="620" y="-1820.3" font-family="monospace" font-size="14.00">    CPF_BlueprintVisible|CPF_BlueprintReadOnly|CPF_Parm</text>
<text text-anchor="start" x="620" y="-1805.3" font-family="monospace" font-size="14.00">  ObjectProperty K2Node_ComponentBoundEvent_user</text>
<text text-anchor="start" x="620" y="-1790.3" font-family="monospace" font-size="14.00">  EnumProperty K2Node_ComponentBoundEvent_key</text>
<text text-anchor="start" x="620" y="-1775.3" font-family="monospace" font-size="14.00">  BoolProperty CallFunc_IsLocallyControlled_ReturnValue</text>
<text text-anchor="start" x="620" y="-1760.3" font-family="monospace" font-size="14.00">  ObjectProperty CallFunc_GetController_ReturnValue</text>
<text text-anchor="start" x="620" y="-1745.3" font-family="monospace" font-size="14.00">  ObjectProperty K2Node_DynamicCast_AsBP_Player_Controller_Space_Rig</text>
<text text-anchor="start" x="620" y="-1730.3" font-family="monospace" font-size="14.00">  BoolProperty K2Node_DynamicCast_bSuccess</text>
<text text-anchor="start" x="620" y="-1715.3" font-family="monospace" font-size="14.00">  StructProperty CallFunc_K2_GetActorLocation_ReturnValue</text>
<text text-anchor="start" x="620" y="-1700.3" font-family="monospace" font-size="14.00">  StructProperty CallFunc_K2_GetActorLocation_ReturnValue_1</text>
</g>
<!-- ExecuteUbergraph_BP_Hologram__0 -->
<g id="node3" class="node">
<title>ExecuteUbergraph_BP_Hologram__0</title>
<polygon fill="#eeeeee" stroke="black" points="793.5,-1521.5 793.5,-1557.5 1008.5,-1557.5 1008.5,-1521.5 793.5,-1521.5"/>
<text text-anchor="start" x="801.5" y="-1535.8" font-family="monospace" font-size="14.00">EX_PushExecutionFlow 530</text>
</g>
<!-- ExecuteUbergraph_BP_Hologram&#45;&gt;ExecuteUbergraph_BP_Hologram__0 -->
<g id="edge1" class="edge">
<title>ExecuteUbergraph_BP_Hologram&#45;&gt;ExecuteUbergraph_BP_Hologram__0</title>
<path fill="none" stroke="black" d="M901,-1692.59C901,-1649.11 901,-1599.14 901,-1568.7"/>
<polygon fill="black" stroke="black" points="904.5,-1568.81 901,-1558.81 897.5,-1568.81 904.5,-1568.81"/>
</g>
<!-- ExecuteUbergraph_BP_Hologram__5 -->
<g id="node4" class="node">
<title>ExecuteUbergraph_BP_Hologram__5</title>
<polygon fill="#eeeeee" stroke="black" points="713,-1401 713,-1439 985,-1439 985,-1401 713,-1401"/>
<text text-anchor="start" x="721" y="-1423.8" font-family="monospace" font-size="14.00">EX_ComputedJump</text>
<text text-anchor="start" x="721" y="-1408.8" font-family="monospace" font-size="14.00">  EX_LocalVariable [EntryPoint]</text>
</g>
<!-- ExecuteUbergraph_BP_Hologram__0&#45;&gt;ExecuteUbergraph_BP_Hologram__5 -->
<g id="edge3" class="edge">
<title>ExecuteUbergraph_BP_Hologram__0&#45;&gt;ExecuteUbergraph_BP_Hologram__5</title>
<path fill="none" stroke="black" d="M893.55,-1521.67C885.2,-1502.8 871.52,-1471.89 861.52,-1449.3"/>
<polygon fill="black" stroke="black" points="864.81,-1448.07 857.56,-1440.34 858.41,-1450.9 864.81,-1448.07"/>
</g>
<!-- ExecuteUbergraph_BP_Hologram__530 -->
<g id="node24" class="node">
<title>ExecuteUbergraph_BP_Hologram__530</title>
<polygon fill="#eeeeee" stroke="black" points="1003,-1401 1003,-1439 1119,-1439 1119,-1401 1003,-1401"/>
<text text-anchor="start" x="1011" y="-1423.8" font-family="monospace" font-size="14.00">EX_Return</text>
<text text-anchor="start" x="1011" y="-1408.8" font-family="monospace" font-size="14.00">  EX_Nothing</text>
</g>
<!-- ExecuteUbergraph_BP_Hologram__0&#45;&gt;ExecuteUbergraph_BP_Hologram__530 -->
<g id="edge2" class="edge">
<title>ExecuteUbergraph_BP_Hologram__0:e&#45;&gt;ExecuteUbergraph_BP_Hologram__530</title>
<path fill="none" stroke="red" d="M1010,-1539.5C1048.84,-1539.5 1058.46,-1485.13 1060.63,-1450.05"/>
<polygon fill="none" stroke="red" points="1064.1,-1450.65 1061.04,-1440.51 1057.11,-1450.35 1064.1,-1450.65"/>
<text text-anchor="middle" x="1101.5" y="-1479.8" font-family="monospace" font-size="14.00">PUSH STACK</text>
</g>
<!-- ExecuteUbergraph_BP_Hologram__15 -->
<g id="node5" class="node">
<title>ExecuteUbergraph_BP_Hologram__15</title>
<polygon fill="#eeeeee" stroke="black" points="1802.5,-913 1802.5,-949 2017.5,-949 2017.5,-913 1802.5,-913"/>
<text text-anchor="start" x="1810.5" y="-927.3" font-family="monospace" font-size="14.00">EX_PushExecutionFlow 137</text>
</g>
<!-- ExecuteUbergraph_BP_Hologram__20 -->
<g id="node6" class="node">
<title>ExecuteUbergraph_BP_Hologram__20</title>
<polygon fill="#eeeeee" stroke="black" points="1369,-694.5 1369,-792.5 1889,-792.5 1889,-694.5 1369,-694.5"/>
<text text-anchor="start" x="1377" y="-777.3" font-family="monospace" font-size="14.00">EX_LetBool</text>
<text text-anchor="start" x="1377" y="-762.3" font-family="monospace" font-size="14.00">  EX_LocalVariable [CallFunc_IsLocallyControlled_ReturnValue]</text>
<text text-anchor="start" x="1377" y="-747.3" font-family="monospace" font-size="14.00">  EX_Context</text>
<text text-anchor="start" x="1377" y="-732.3" font-family="monospace" font-size="14.00">    EX_LocalVariable [K2Node_ComponentBoundEvent_user]</text>
<text text-anchor="start" x="1377" y="-717.3" font-family="monospace" font-size="14.00">    EX_VirtualFunction IsLocallyControlled</text>
<text text-anchor="start" x="1377" y="-702.3" font-family="monospace" font-size="14.00">    RValue = [CallFunc_IsLocallyControlled_ReturnValue]</text>
</g>
<!-- ExecuteUbergraph_BP_Hologram__15&#45;&gt;ExecuteUbergraph_BP_Hologram__20 -->
<g id="edge5" class="edge">
<title>ExecuteUbergraph_BP_Hologram__15&#45;&gt;ExecuteUbergraph_BP_Hologram__20</title>
<path fill="none" stroke="black" d="M1884.57,-913.21C1845.71,-887.56 1769.86,-837.49 1710.85,-798.53"/>
<polygon fill="black" stroke="black" points="1713.06,-795.8 1702.79,-793.21 1709.21,-801.64 1713.06,-795.8"/>
</g>
<!-- ExecuteUbergraph_BP_Hologram__137 -->
<g id="node10" class="node">
<title>ExecuteUbergraph_BP_Hologram__137</title>
<polygon fill="#eeeeee" stroke="black" points="1933,-694.5 1933,-792.5 2469,-792.5 2469,-694.5 1933,-694.5"/>
<text text-anchor="start" x="1941" y="-777.3" font-family="monospace" font-size="14.00">EX_LetObj</text>
<text text-anchor="start" x="1941" y="-762.3" font-family="monospace" font-size="14.00">  EX_LocalVariable [CallFunc_GetController_ReturnValue]</text>
<text text-anchor="start" x="1941" y="-747.3" font-family="monospace" font-size="14.00">  EX_Context</text>
<text text-anchor="start" x="1941" y="-732.3" font-family="monospace" font-size="14.00">    EX_LocalVariable [K2Node_ComponentBoundEvent_user]</text>
<text text-anchor="start" x="1941" y="-717.3" font-family="monospace" font-size="14.00">    EX_FinalFunction import /Script/Engine&#45;&gt;Pawn&#45;&gt;GetController</text>
<text text-anchor="start" x="1941" y="-702.3" font-family="monospace" font-size="14.00">    RValue = [CallFunc_GetController_ReturnValue]</text>
</g>
<!-- ExecuteUbergraph_BP_Hologram__15&#45;&gt;ExecuteUbergraph_BP_Hologram__137 -->
<g id="edge4" class="edge">
<title>ExecuteUbergraph_BP_Hologram__15:e&#45;&gt;ExecuteUbergraph_BP_Hologram__137</title>
<path fill="none" stroke="red" d="M2019,-931C2092.04,-931 2145.34,-856.82 2174.75,-802.03"/>
<polygon fill="none" stroke="red" points="2177.74,-803.87 2179.26,-793.39 2171.53,-800.63 2177.74,-803.87"/>
<text text-anchor="middle" x="2209.5" y="-814.8" font-family="monospace" font-size="14.00">PUSH STACK</text>
</g>
<!-- ExecuteUbergraph_BP_Hologram__66 -->
<g id="node7" class="node">
<title>ExecuteUbergraph_BP_Hologram__66</title>
<polygon fill="#eeeeee" stroke="black" points="1314,-603.5 1314,-641.5 1834,-641.5 1834,-603.5 1314,-603.5"/>
<text text-anchor="start" x="1322" y="-626.3" font-family="monospace" font-size="14.00">EX_PopExecutionFlowIfNot</text>
<text text-anchor="start" x="1322" y="-611.3" font-family="monospace" font-size="14.00">  EX_LocalVariable [CallFunc_IsLocallyControlled_ReturnValue]</text>
</g>
<!-- ExecuteUbergraph_BP_Hologram__20&#45;&gt;ExecuteUbergraph_BP_Hologram__66 -->
<g id="edge6" class="edge">
<title>ExecuteUbergraph_BP_Hologram__20&#45;&gt;ExecuteUbergraph_BP_Hologram__66</title>
<path fill="none" stroke="black" d="M1606.95,-694.78C1600.13,-680.03 1592.85,-664.28 1586.87,-651.34"/>
<polygon fill="black" stroke="black" points="1590.2,-650.2 1582.82,-642.59 1583.84,-653.13 1590.2,-650.2"/>
</g>
<!-- ExecuteUbergraph_BP_Hologram__76 -->
<g id="node8" class="node">
<title>ExecuteUbergraph_BP_Hologram__76</title>
<polygon fill="#eeeeee" stroke="black" points="1068,-362.5 1068,-550.5 1976,-550.5 1976,-362.5 1068,-362.5"/>
<text text-anchor="start" x="1076" y="-535.3" font-family="monospace" font-size="14.00">EX_Context</text>
<text text-anchor="start" x="1076" y="-520.3" font-family="monospace" font-size="14.00">  EX_ObjectConst import /Script/Engine&#45;&gt;Default__GameplayStatics</text>
<text text-anchor="start" x="1076" y="-505.3" font-family="monospace" font-size="14.00">  EX_FinalFunction import /Script/Engine&#45;&gt;GameplayStatics&#45;&gt;PlaySound2D</text>
<text text-anchor="start" x="1076" y="-490.3" font-family="monospace" font-size="14.00">    EX_Self</text>
<text text-anchor="start" x="1076" y="-475.3" font-family="monospace" font-size="14.00">    EX_ObjectConst import /Game/Audio/SFX/UI/Menu/Button_Click_keyboard_01_Cue&#45;&gt;Button_Click_keyboard_01_Cue</text>
<text text-anchor="start" x="1076" y="-460.3" font-family="monospace" font-size="14.00">    EX_FloatConst 1</text>
<text text-anchor="start" x="1076" y="-445.3" font-family="monospace" font-size="14.00">    EX_FloatConst 1</text>
<text text-anchor="start" x="1076" y="-430.3" font-family="monospace" font-size="14.00">    EX_FloatConst 0</text>
<text text-anchor="start" x="1076" y="-415.3" font-family="monospace" font-size="14.00">    EX_NoObject</text>
<text text-anchor="start" x="1076" y="-400.3" font-family="monospace" font-size="14.00">    EX_NoObject</text>
<text text-anchor="start" x="1076" y="-385.3" font-family="monospace" font-size="14.00">    EX_True</text>
<text text-anchor="start" x="1076" y="-370.3" font-family="monospace" font-size="14.00">  RValue = []</text>
</g>
<!-- ExecuteUbergraph_BP_Hologram__66&#45;&gt;ExecuteUbergraph_BP_Hologram__76 -->
<g id="edge7" class="edge">
<title>ExecuteUbergraph_BP_Hologram__66&#45;&gt;ExecuteUbergraph_BP_Hologram__76</title>
<path fill="none" stroke="black" d="M1568.34,-603.64C1564.84,-592.6 1560.03,-577.45 1554.84,-561.07"/>
<polygon fill="black" stroke="black" points="1558.19,-560.07 1551.83,-551.59 1551.52,-562.18 1558.19,-560.07"/>
</g>
<!-- ExecuteUbergraph_BP_Hologram__136 -->
<g id="node9" class="node">
<title>ExecuteUbergraph_BP_Hologram__136</title>
<polygon fill="#eeeeee" stroke="black" points="1435.5,-287.5 1435.5,-323.5 1608.5,-323.5 1608.5,-287.5 1435.5,-287.5"/>
<text text-anchor="start" x="1443.5" y="-301.8" font-family="monospace" font-size="14.00">EX_PopExecutionFlow</text>
</g>
<!-- ExecuteUbergraph_BP_Hologram__76&#45;&gt;ExecuteUbergraph_BP_Hologram__136 -->
<g id="edge8" class="edge">
<title>ExecuteUbergraph_BP_Hologram__76&#45;&gt;ExecuteUbergraph_BP_Hologram__136</title>
<path fill="none" stroke="black" d="M1522,-362.83C1522,-352.65 1522,-342.95 1522,-334.56"/>
<polygon fill="black" stroke="black" points="1525.5,-334.82 1522,-324.82 1518.5,-334.82 1525.5,-334.82"/>
</g>
<!-- ExecuteUbergraph_BP_Hologram__179 -->
<g id="node11" class="node">
<title>ExecuteUbergraph_BP_Hologram__179</title>
<polygon fill="#eeeeee" stroke="black" points="1861.5,-588.5 1861.5,-656.5 2736.5,-656.5 2736.5,-588.5 1861.5,-588.5"/>
<text text-anchor="start" x="1869.5" y="-641.3" font-family="monospace" font-size="14.00">EX_Let</text>
<text text-anchor="start" x="1869.5" y="-626.3" font-family="monospace" font-size="14.00">  EX_LocalVariable [K2Node_DynamicCast_AsBP_Player_Controller_Space_Rig]</text>
<text text-anchor="start" x="1869.5" y="-611.3" font-family="monospace" font-size="14.00">  EX_DynamicCast import /Game/Game/SpaceRig/BP_PlayerController_SpaceRig&#45;&gt;BP_PlayerController_SpaceRig_C</text>
<text text-anchor="start" x="1869.5" y="-596.3" font-family="monospace" font-size="14.00">    EX_LocalVariable [CallFunc_GetController_ReturnValue]</text>
</g>
<!-- ExecuteUbergraph_BP_Hologram__137&#45;&gt;ExecuteUbergraph_BP_Hologram__179 -->
<g id="edge9" class="edge">
<title>ExecuteUbergraph_BP_Hologram__137&#45;&gt;ExecuteUbergraph_BP_Hologram__179</title>
<path fill="none" stroke="black" d="M2240.3,-694.78C2248.45,-684.88 2256.98,-674.53 2264.93,-664.88"/>
<polygon fill="black" stroke="black" points="2267.42,-667.36 2271.07,-657.41 2262.01,-662.91 2267.42,-667.36"/>
</g>
<!-- ExecuteUbergraph_BP_Hologram__215 -->
<g id="node12" class="node">
<title>ExecuteUbergraph_BP_Hologram__215</title>
<polygon fill="#eeeeee" stroke="black" points="1994.5,-422.5 1994.5,-490.5 2621.5,-490.5 2621.5,-422.5 1994.5,-422.5"/>
<text text-anchor="start" x="2002.5" y="-475.3" font-family="monospace" font-size="14.00">EX_Let</text>
<text text-anchor="start" x="2002.5" y="-460.3" font-family="monospace" font-size="14.00">  EX_LocalVariable [K2Node_DynamicCast_bSuccess]</text>
<text text-anchor="start" x="2002.5" y="-445.3" font-family="monospace" font-size="14.00">  EX_PrimitiveCast ObjectToBool</text>
<text text-anchor="start" x="2002.5" y="-430.3" font-family="monospace" font-size="14.00">    EX_LocalVariable [K2Node_DynamicCast_AsBP_Player_Controller_Space_Rig]</text>
</g>
<!-- ExecuteUbergraph_BP_Hologram__179&#45;&gt;ExecuteUbergraph_BP_Hologram__215 -->
<g id="edge10" class="edge">
<title>ExecuteUbergraph_BP_Hologram__179&#45;&gt;ExecuteUbergraph_BP_Hologram__215</title>
<path fill="none" stroke="black" d="M2300.8,-588.71C2302.17,-563.68 2304.08,-528.95 2305.59,-501.5"/>
<polygon fill="black" stroke="black" points="2309.07,-501.92 2306.12,-491.75 2302.08,-501.54 2309.07,-501.92"/>
</g>
<!-- ExecuteUbergraph_BP_Hologram__244 -->
<g id="node13" class="node">
<title>ExecuteUbergraph_BP_Hologram__244</title>
<polygon fill="#eeeeee" stroke="black" points="2101.5,-286.5 2101.5,-324.5 2514.5,-324.5 2514.5,-286.5 2101.5,-286.5"/>
<text text-anchor="start" x="2109.5" y="-309.3" font-family="monospace" font-size="14.00">EX_PopExecutionFlowIfNot</text>
<text text-anchor="start" x="2109.5" y="-294.3" font-family="monospace" font-size="14.00">  EX_LocalVariable [K2Node_DynamicCast_bSuccess]</text>
</g>
<!-- ExecuteUbergraph_BP_Hologram__215&#45;&gt;ExecuteUbergraph_BP_Hologram__244 -->
<g id="edge11" class="edge">
<title>ExecuteUbergraph_BP_Hologram__215&#45;&gt;ExecuteUbergraph_BP_Hologram__244</title>
<path fill="none" stroke="black" d="M2308,-422.8C2308,-396.74 2308,-360.59 2308,-335.54"/>
<polygon fill="black" stroke="black" points="2311.5,-335.74 2308,-325.74 2304.5,-335.74 2311.5,-335.74"/>
</g>
<!-- ExecuteUbergraph_BP_Hologram__254 -->
<g id="node14" class="node">
<title>ExecuteUbergraph_BP_Hologram__254</title>
<polygon fill="#eeeeee" stroke="black" points="2002.5,-180.5 2002.5,-248.5 2613.5,-248.5 2613.5,-180.5 2002.5,-180.5"/>
<text text-anchor="start" x="2010.5" y="-233.3" font-family="monospace" font-size="14.00">EX_Context</text>
<text text-anchor="start" x="2010.5" y="-218.3" font-family="monospace" font-size="14.00">  EX_LocalVariable [K2Node_DynamicCast_AsBP_Player_Controller_Space_Rig]</text>
<text text-anchor="start" x="2010.5" y="-203.3" font-family="monospace" font-size="14.00">  EX_VirtualFunction Client_OpenMap</text>
<text text-anchor="start" x="2010.5" y="-188.3" font-family="monospace" font-size="14.00">  RValue = []</text>
</g>
<!-- ExecuteUbergraph_BP_Hologram__244&#45;&gt;ExecuteUbergraph_BP_Hologram__254 -->
<g id="edge12" class="edge">
<title>ExecuteUbergraph_BP_Hologram__244&#45;&gt;ExecuteUbergraph_BP_Hologram__254</title>
<path fill="none" stroke="black" d="M2308,-286.92C2308,-278.98 2308,-269.21 2308,-259.48"/>
<polygon fill="black" stroke="black" points="2311.5,-259.69 2308,-249.69 2304.5,-259.69 2311.5,-259.69"/>
</g>
<!-- ExecuteUbergraph_BP_Hologram__290 -->
<g id="node15" class="node">
<title>ExecuteUbergraph_BP_Hologram__290</title>
<polygon fill="#eeeeee" stroke="black" points="2002.5,-74.5 2002.5,-142.5 2613.5,-142.5 2613.5,-74.5 2002.5,-74.5"/>
<text text-anchor="start" x="2010.5" y="-127.3" font-family="monospace" font-size="14.00">EX_Context</text>
<text text-anchor="start" x="2010.5" y="-112.3" font-family="monospace" font-size="14.00">  EX_LocalVariable [K2Node_DynamicCast_AsBP_Player_Controller_Space_Rig]</text>
<text text-anchor="start" x="2010.5" y="-97.3" font-family="monospace" font-size="14.00">  EX_LocalVirtualFunction ShowLookAtConsole</text>
<text text-anchor="start" x="2010.5" y="-82.3" font-family="monospace" font-size="14.00">  RValue = []</text>
</g>
<!-- ExecuteUbergraph_BP_Hologram__254&#45;&gt;ExecuteUbergraph_BP_Hologram__290 -->
<g id="edge13" class="edge">
<title>ExecuteUbergraph_BP_Hologram__254&#45;&gt;ExecuteUbergraph_BP_Hologram__290</title>
<path fill="none" stroke="black" d="M2308,-180.59C2308,-171.97 2308,-162.54 2308,-153.45"/>
<polygon fill="black" stroke="black" points="2311.5,-153.71 2308,-143.71 2304.5,-153.71 2311.5,-153.71"/>
</g>
<!-- ExecuteUbergraph_BP_Hologram__326 -->
<g id="node16" class="node">
<title>ExecuteUbergraph_BP_Hologram__326</title>
<polygon fill="#eeeeee" stroke="black" points="2221.5,-0.5 2221.5,-36.5 2394.5,-36.5 2394.5,-0.5 2221.5,-0.5"/>
<text text-anchor="start" x="2229.5" y="-14.8" font-family="monospace" font-size="14.00">EX_PopExecutionFlow</text>
</g>
<!-- ExecuteUbergraph_BP_Hologram__290&#45;&gt;ExecuteUbergraph_BP_Hologram__326 -->
<g id="edge14" class="edge">
<title>ExecuteUbergraph_BP_Hologram__290&#45;&gt;ExecuteUbergraph_BP_Hologram__326</title>
<path fill="none" stroke="black" d="M2308,-74.73C2308,-65.83 2308,-56.27 2308,-47.65"/>
<polygon fill="black" stroke="black" points="2311.5,-47.77 2308,-37.77 2304.5,-47.77 2311.5,-47.77"/>
</g>
<!-- ExecuteUbergraph_BP_Hologram__327 -->
<g id="node17" class="node">
<title>ExecuteUbergraph_BP_Hologram__327</title>
<polygon fill="#eeeeee" stroke="black" points="1860.5,-1064 1860.5,-1100 1959.5,-1100 1959.5,-1064 1860.5,-1064"/>
<text text-anchor="start" x="1868.5" y="-1078.3" font-family="monospace" font-size="14.00">EX_Jump 15</text>
</g>
<!-- ExecuteUbergraph_BP_Hologram__327&#45;&gt;ExecuteUbergraph_BP_Hologram__15 -->
<g id="edge15" class="edge">
<title>ExecuteUbergraph_BP_Hologram__327&#45;&gt;ExecuteUbergraph_BP_Hologram__15</title>
<path fill="none" stroke="black" d="M1910,-1064.2C1910,-1038.93 1910,-990.86 1910,-960.18"/>
<polygon fill="black" stroke="black" points="1913.5,-960.48 1910,-950.48 1906.5,-960.48 1913.5,-960.48"/>
</g>
<!-- ExecuteUbergraph_BP_Hologram__332 -->
<g id="node18" class="node">
<title>ExecuteUbergraph_BP_Hologram__332</title>
<polygon fill="#eeeeee" stroke="black" points="2552,-1393.5 2552,-1446.5 3130,-1446.5 3130,-1393.5 2552,-1393.5"/>
<text text-anchor="start" x="2560" y="-1431.3" font-family="monospace" font-size="14.00">EX_Let</text>
<text text-anchor="start" x="2560" y="-1416.3" font-family="monospace" font-size="14.00">  EX_LocalVariable [CallFunc_K2_GetActorLocation_ReturnValue]</text>
<text text-anchor="start" x="2560" y="-1401.3" font-family="monospace" font-size="14.00">  EX_FinalFunction import /Script/Engine&#45;&gt;Actor&#45;&gt;K2_GetActorLocation</text>
</g>
<!-- ExecuteUbergraph_BP_Hologram__360 -->
<g id="node19" class="node">
<title>ExecuteUbergraph_BP_Hologram__360</title>
<polygon fill="#eeeeee" stroke="black" points="2540,-1146.5 2540,-1319.5 3142,-1319.5 3142,-1146.5 2540,-1146.5"/>
<text text-anchor="start" x="2548" y="-1304.3" font-family="monospace" font-size="14.00">EX_CallMath import /Script/Engine&#45;&gt;GameplayStatics&#45;&gt;PlaySoundAtLocation</text>
<text text-anchor="start" x="2548" y="-1289.3" font-family="monospace" font-size="14.00">  EX_Self</text>
<text text-anchor="start" x="2548" y="-1274.3" font-family="monospace" font-size="14.00">  EX_NoObject</text>
<text text-anchor="start" x="2548" y="-1259.3" font-family="monospace" font-size="14.00">  EX_LocalVariable [CallFunc_K2_GetActorLocation_ReturnValue]</text>
<text text-anchor="start" x="2548" y="-1244.3" font-family="monospace" font-size="14.00">  EX_RotationConst 0,0,0</text>
<text text-anchor="start" x="2548" y="-1229.3" font-family="monospace" font-size="14.00">  EX_FloatConst 1</text>
<text text-anchor="start" x="2548" y="-1214.3" font-family="monospace" font-size="14.00">  EX_FloatConst 1</text>
<text text-anchor="start" x="2548" y="-1199.3" font-family="monospace" font-size="14.00">  EX_FloatConst 0</text>
<text text-anchor="start" x="2548" y="-1184.3" font-family="monospace" font-size="14.00">  EX_NoObject</text>
<text text-anchor="start" x="2548" y="-1169.3" font-family="monospace" font-size="14.00">  EX_NoObject</text>
<text text-anchor="start" x="2548" y="-1154.3" font-family="monospace" font-size="14.00">  EX_NoObject</text>
</g>
<!-- ExecuteUbergraph_BP_Hologram__332&#45;&gt;ExecuteUbergraph_BP_Hologram__360 -->
<g id="edge16" class="edge">
<title>ExecuteUbergraph_BP_Hologram__332&#45;&gt;ExecuteUbergraph_BP_Hologram__360</title>
<path fill="none" stroke="black" d="M2841,-1393.66C2841,-1377 2841,-1354.01 2841,-1330.68"/>
<polygon fill="black" stroke="black" points="2844.5,-1330.73 2841,-1320.73 2837.5,-1330.73 2844.5,-1330.73"/>
</g>
<!-- ExecuteUbergraph_BP_Hologram__412 -->
<g id="node20" class="node">
<title>ExecuteUbergraph_BP_Hologram__412</title>
<polygon fill="#eeeeee" stroke="black" points="2552,-1055.5 2552,-1108.5 3130,-1108.5 3130,-1055.5 2552,-1055.5"/>
<text text-anchor="start" x="2560" y="-1093.3" font-family="monospace" font-size="14.00">EX_Let</text>
<text text-anchor="start" x="2560" y="-1078.3" font-family="monospace" font-size="14.00">  EX_LocalVariable [CallFunc_K2_GetActorLocation_ReturnValue_1]</text>
<text text-anchor="start" x="2560" y="-1063.3" font-family="monospace" font-size="14.00">  EX_FinalFunction import /Script/Engine&#45;&gt;Actor&#45;&gt;K2_GetActorLocation</text>
</g>
<!-- ExecuteUbergraph_BP_Hologram__360&#45;&gt;ExecuteUbergraph_BP_Hologram__412 -->
<g id="edge17" class="edge">
<title>ExecuteUbergraph_BP_Hologram__360&#45;&gt;ExecuteUbergraph_BP_Hologram__412</title>
<path fill="none" stroke="black" d="M2841,-1146.62C2841,-1137.27 2841,-1128.16 2841,-1119.88"/>
<polygon fill="black" stroke="black" points="2844.5,-1119.94 2841,-1109.94 2837.5,-1119.94 2844.5,-1119.94"/>
</g>
<!-- ExecuteUbergraph_BP_Hologram__440 -->
<g id="node21" class="node">
<title>ExecuteUbergraph_BP_Hologram__440</title>
<polygon fill="#eeeeee" stroke="black" points="2540,-844.5 2540,-1017.5 3142,-1017.5 3142,-844.5 2540,-844.5"/>
<text text-anchor="start" x="2548" y="-1002.3" font-family="monospace" font-size="14.00">EX_CallMath import /Script/Engine&#45;&gt;GameplayStatics&#45;&gt;PlaySoundAtLocation</text>
<text text-anchor="start" x="2548" y="-987.3" font-family="monospace" font-size="14.00">  EX_Self</text>
<text text-anchor="start" x="2548" y="-972.3" font-family="monospace" font-size="14.00">  EX_NoObject</text>
<text text-anchor="start" x="2548" y="-957.3" font-family="monospace" font-size="14.00">  EX_LocalVariable [CallFunc_K2_GetActorLocation_ReturnValue_1]</text>
<text text-anchor="start" x="2548" y="-942.3" font-family="monospace" font-size="14.00">  EX_RotationConst 0,0,0</text>
<text text-anchor="start" x="2548" y="-927.3" font-family="monospace" font-size="14.00">  EX_FloatConst 1</text>
<text text-anchor="start" x="2548" y="-912.3" font-family="monospace" font-size="14.00">  EX_FloatConst 1</text>
<text text-anchor="start" x="2548" y="-897.3" font-family="monospace" font-size="14.00">  EX_FloatConst 0</text>
<text text-anchor="start" x="2548" y="-882.3" font-family="monospace" font-size="14.00">  EX_NoObject</text>
<text text-anchor="start" x="2548" y="-867.3" font-family="monospace" font-size="14.00">  EX_NoObject</text>
<text text-anchor="start" x="2548" y="-852.3" font-family="monospace" font-size="14.00">  EX_NoObject</text>
</g>
<!-- ExecuteUbergraph_BP_Hologram__412&#45;&gt;ExecuteUbergraph_BP_Hologram__440 -->
<g id="edge18" class="edge">
<title>ExecuteUbergraph_BP_Hologram__412&#45;&gt;ExecuteUbergraph_BP_Hologram__440</title>
<path fill="none" stroke="black" d="M2841,-1055.72C2841,-1047.76 2841,-1038.44 2841,-1028.55"/>
<polygon fill="black" stroke="black" points="2844.5,-1028.7 2841,-1018.7 2837.5,-1028.7 2844.5,-1028.7"/>
</g>
<!-- ExecuteUbergraph_BP_Hologram__492 -->
<g id="node22" class="node">
<title>ExecuteUbergraph_BP_Hologram__492</title>
<polygon fill="#eeeeee" stroke="black" points="2667.5,-702 2667.5,-785 3014.5,-785 3014.5,-702 2667.5,-702"/>
<text text-anchor="start" x="2675.5" y="-769.8" font-family="monospace" font-size="14.00">EX_Context</text>
<text text-anchor="start" x="2675.5" y="-754.8" font-family="monospace" font-size="14.00">  EX_InstanceVariable [RotatingMovement]</text>
<text text-anchor="start" x="2675.5" y="-739.8" font-family="monospace" font-size="14.00">  EX_VirtualFunction SetUpdatedComponent</text>
<text text-anchor="start" x="2675.5" y="-724.8" font-family="monospace" font-size="14.00">    EX_NoObject</text>
<text text-anchor="start" x="2675.5" y="-709.8" font-family="monospace" font-size="14.00">  RValue = []</text>
</g>
<!-- ExecuteUbergraph_BP_Hologram__440&#45;&gt;ExecuteUbergraph_BP_Hologram__492 -->
<g id="edge19" class="edge">
<title>ExecuteUbergraph_BP_Hologram__440&#45;&gt;ExecuteUbergraph_BP_Hologram__492</title>
<path fill="none" stroke="black" d="M2841,-844.58C2841,-827.91 2841,-810.92 2841,-795.79"/>
<polygon fill="black" stroke="black" points="2844.5,-796.13 2841,-786.13 2837.5,-796.13 2844.5,-796.13"/>
</g>
<!-- ExecuteUbergraph_BP_Hologram__529 -->
<g id="node23" class="node">
<title>ExecuteUbergraph_BP_Hologram__529</title>
<polygon fill="#eeeeee" stroke="black" points="2754.5,-604.5 2754.5,-640.5 2927.5,-640.5 2927.5,-604.5 2754.5,-604.5"/>
<text text-anchor="start" x="2762.5" y="-618.8" font-family="monospace" font-size="14.00">EX_PopExecutionFlow</text>
</g>
<!-- ExecuteUbergraph_BP_Hologram__492&#45;&gt;ExecuteUbergraph_BP_Hologram__529 -->
<g id="edge20" class="edge">
<title>ExecuteUbergraph_BP_Hologram__492&#45;&gt;ExecuteUbergraph_BP_Hologram__529</title>
<path fill="none" stroke="black" d="M2841,-702.21C2841,-685.51 2841,-666.54 2841,-651.41"/>
<polygon fill="black" stroke="black" points="2844.5,-651.72 2841,-641.72 2837.5,-651.72 2844.5,-651.72"/>
</g>
<!-- ExecuteUbergraph_BP_Hologram__532 -->
<g id="node25" class="node">
<title>ExecuteUbergraph_BP_Hologram__532</title>
<polygon fill="#eeeeee" stroke="black" points="2506,-1577.5 2506,-1613.5 2638,-1613.5 2638,-1577.5 2506,-1577.5"/>
<text text-anchor="start" x="2514" y="-1591.8" font-family="monospace" font-size="14.00">EX_EndOfScript</text>
</g>
<!-- ReceiveBeginPlay -->
<g id="node26" class="node">
<title>ReceiveBeginPlay</title>
<polygon fill="#ff8888" stroke="black" points="2379.5,-1761 2379.5,-1797 2602.5,-1797 2602.5,-1761 2379.5,-1761"/>
<text text-anchor="start" x="2387.5" y="-1775.3" font-family="monospace" font-size="14.00">Function ReceiveBeginPlay</text>
</g>
<!-- ReceiveBeginPlay__0 -->
<g id="node27" class="node">
<title>ReceiveBeginPlay__0</title>
<polygon fill="#eeeeee" stroke="black" points="2185.5,-1520.5 2185.5,-1558.5 2796.5,-1558.5 2796.5,-1520.5 2185.5,-1520.5"/>
<text text-anchor="start" x="2193.5" y="-1543.3" font-family="monospace" font-size="14.00">EX_LocalFinalFunction export BP_Hologram_C&#45;&gt;ExecuteUbergraph_BP_Hologram</text>
<text text-anchor="start" x="2193.5" y="-1528.3" font-family="monospace" font-size="14.00">  EX_IntConst 332</text>
</g>
<!-- ReceiveBeginPlay&#45;&gt;ReceiveBeginPlay__0 -->
<g id="edge21" class="edge">
<title>ReceiveBeginPlay&#45;&gt;ReceiveBeginPlay__0</title>
<path fill="none" stroke="black" d="M2491,-1761.3C2491,-1721.4 2491,-1620.14 2491,-1569.82"/>
<polygon fill="black" stroke="black" points="2494.5,-1569.98 2491,-1559.98 2487.5,-1569.98 2494.5,-1569.98"/>
</g>
<!-- ReceiveBeginPlay__0&#45;&gt;ExecuteUbergraph_BP_Hologram__332 -->
<g id="edge22" class="edge">
<title>ReceiveBeginPlay__0:e&#45;&gt;ExecuteUbergraph_BP_Hologram__332</title>
<path fill="none" stroke="red" d="M2798,-1539.5C2815.65,-1539.5 2828.12,-1492.47 2834.94,-1457.67"/>
<polygon fill="none" stroke="red" points="2838.37,-1458.38 2836.76,-1447.91 2831.49,-1457.1 2838.37,-1458.38"/>
</g>
<!-- ReceiveBeginPlay__15 -->
<g id="node28" class="node">
<title>ReceiveBeginPlay__15</title>
<polygon fill="#eeeeee" stroke="black" points="2418,-1401 2418,-1439 2534,-1439 2534,-1401 2418,-1401"/>
<text text-anchor="start" x="2426" y="-1423.8" font-family="monospace" font-size="14.00">EX_Return</text>
<text text-anchor="start" x="2426" y="-1408.8" font-family="monospace" font-size="14.00">  EX_Nothing</text>
</g>
<!-- ReceiveBeginPlay__0&#45;&gt;ReceiveBeginPlay__15 -->
<g id="edge23" class="edge">
<title>ReceiveBeginPlay__0&#45;&gt;ReceiveBeginPlay__15</title>
<path fill="none" stroke="black" d="M2488.72,-1520.65C2486.33,-1501.91 2482.53,-1472.14 2479.7,-1450.02"/>
<polygon fill="black" stroke="black" points="2483.18,-1449.61 2478.44,-1440.13 2476.24,-1450.49 2483.18,-1449.61"/>
</g>
<!-- ReceiveBeginPlay__17 -->
<g id="node29" class="node">
<title>ReceiveBeginPlay__17</title>
<polygon fill="#eeeeee" stroke="black" points="2841,-1465.5 2841,-1501.5 2973,-1501.5 2973,-1465.5 2841,-1465.5"/>
<text text-anchor="start" x="2849" y="-1479.8" font-family="monospace" font-size="14.00">EX_EndOfScript</text>
</g>
<!-- BndEvt__InstantUsable_K2Node_ComponentBoundEvent_0_UsedBySignature__DelegateSignature -->
<g id="node30" class="node">
<title>BndEvt__InstantUsable_K2Node_ComponentBoundEvent_0_UsedBySignature__DelegateSignature</title>
<polygon fill="#ff8888" stroke="black" points="1208,-1737.5 1208,-1820.5 2000,-1820.5 2000,-1737.5 1208,-1737.5"/>
<text text-anchor="start" x="1216" y="-1805.3" font-family="monospace" font-size="14.00">Function BndEvt__InstantUsable_K2Node_ComponentBoundEvent_0_UsedBySignature__DelegateSignature</text>
<text text-anchor="start" x="1216" y="-1790.3" font-family="monospace" font-size="14.00">  ObjectProperty user</text>
<text text-anchor="start" x="1216" y="-1775.3" font-family="monospace" font-size="14.00">    CPF_BlueprintVisible|CPF_BlueprintReadOnly|CPF_Parm</text>
<text text-anchor="start" x="1216" y="-1760.3" font-family="monospace" font-size="14.00">  EnumProperty key</text>
<text text-anchor="start" x="1216" y="-1745.3" font-family="monospace" font-size="14.00">    CPF_BlueprintVisible|CPF_BlueprintReadOnly|CPF_Parm</text>
</g>
<!-- BndEvt__InstantUsable_K2Node_ComponentBoundEvent_0_UsedBySignature__DelegateSignature__0 -->
<g id="node31" class="node">
<title>BndEvt__InstantUsable_K2Node_ComponentBoundEvent_0_UsedBySignature__DelegateSignature__0</title>
<polygon fill="#eeeeee" stroke="black" points="1340,-1520.5 1340,-1558.5 1868,-1558.5 1868,-1520.5 1340,-1520.5"/>
<text text-anchor="start" x="1348" y="-1543.3" font-family="monospace" font-size="14.00">EX_LetValueOnPersistentFrame [K2Node_ComponentBoundEvent_user]</text>
<text text-anchor="start" x="1348" y="-1528.3" font-family="monospace" font-size="14.00">  EX_LocalVariable [user]</text>
</g>
<!-- BndEvt__InstantUsable_K2Node_ComponentBoundEvent_0_UsedBySignature__DelegateSignature&#45;&gt;BndEvt__InstantUsable_K2Node_ComponentBoundEvent_0_UsedBySignature__DelegateSignature__0 -->
<g id="edge24" class="edge">
<title>BndEvt__InstantUsable_K2Node_ComponentBoundEvent_0_UsedBySignature__DelegateSignature&#45;&gt;BndEvt__InstantUsable_K2Node_ComponentBoundEvent_0_UsedBySignature__DelegateSignature__0</title>
<path fill="none" stroke="black" d="M1604,-1737.71C1604,-1690.13 1604,-1612.14 1604,-1569.9"/>
<polygon fill="black" stroke="black" points="1607.5,-1570.01 1604,-1560.01 1600.5,-1570.01 1607.5,-1570.01"/>
</g>
<!-- BndEvt__InstantUsable_K2Node_ComponentBoundEvent_0_UsedBySignature__DelegateSignature__18 -->
<g id="node32" class="node">
<title>BndEvt__InstantUsable_K2Node_ComponentBoundEvent_0_UsedBySignature__DelegateSignature__18</title>
<polygon fill="#eeeeee" stroke="black" points="1344,-1401 1344,-1439 1864,-1439 1864,-1401 1344,-1401"/>
<text text-anchor="start" x="1352" y="-1423.8" font-family="monospace" font-size="14.00">EX_LetValueOnPersistentFrame [K2Node_ComponentBoundEvent_key]</text>
<text text-anchor="start" x="1352" y="-1408.8" font-family="monospace" font-size="14.00">  EX_LocalVariable [key]</text>
</g>
<!-- BndEvt__InstantUsable_K2Node_ComponentBoundEvent_0_UsedBySignature__DelegateSignature__0&#45;&gt;BndEvt__InstantUsable_K2Node_ComponentBoundEvent_0_UsedBySignature__DelegateSignature__18 -->
<g id="edge25" class="edge">
<title>BndEvt__InstantUsable_K2Node_ComponentBoundEvent_0_UsedBySignature__DelegateSignature__0&#45;&gt;BndEvt__InstantUsable_K2Node_ComponentBoundEvent_0_UsedBySignature__DelegateSignature__18</title>
<path fill="none" stroke="black" d="M1604,-1520.65C1604,-1501.91 1604,-1472.14 1604,-1450.02"/>
<polygon fill="black" stroke="black" points="1607.5,-1450.14 1604,-1440.14 1600.5,-1450.14 1607.5,-1450.14"/>
</g>
<!-- BndEvt__InstantUsable_K2Node_ComponentBoundEvent_0_UsedBySignature__DelegateSignature__36 -->
<g id="node33" class="node">
<title>BndEvt__InstantUsable_K2Node_ComponentBoundEvent_0_UsedBySignature__DelegateSignature__36</title>
<polygon fill="#eeeeee" stroke="black" points="1298.5,-1214 1298.5,-1252 1909.5,-1252 1909.5,-1214 1298.5,-1214"/>
<text text-anchor="start" x="1306.5" y="-1236.8" font-family="monospace" font-size="14.00">EX_LocalFinalFunction export BP_Hologram_C&#45;&gt;ExecuteUbergraph_BP_Hologram</text>
<text text-anchor="start" x="1306.5" y="-1221.8" font-family="monospace" font-size="14.00">  EX_IntConst 327</text>
</g>
<!-- BndEvt__InstantUsable_K2Node_ComponentBoundEvent_0_UsedBySignature__DelegateSignature__18&#45;&gt;BndEvt__InstantUsable_K2Node_ComponentBoundEvent_0_UsedBySignature__DelegateSignature__36 -->
<g id="edge26" class="edge">
<title>BndEvt__InstantUsable_K2Node_ComponentBoundEvent_0_UsedBySignature__DelegateSignature__18&#45;&gt;BndEvt__InstantUsable_K2Node_ComponentBoundEvent_0_UsedBySignature__DelegateSignature__36</title>
<path fill="none" stroke="black" d="M1604,-1401.26C1604,-1369.37 1604,-1302.05 1604,-1263.24"/>
<polygon fill="black" stroke="black" points="1607.5,-1263.47 1604,-1253.47 1600.5,-1263.47 1607.5,-1263.47"/>
</g>
<!-- BndEvt__InstantUsable_K2Node_ComponentBoundEvent_0_UsedBySignature__DelegateSignature__36&#45;&gt;ExecuteUbergraph_BP_Hologram__327 -->
<g id="edge27" class="edge">
<title>BndEvt__InstantUsable_K2Node_ComponentBoundEvent_0_UsedBySignature__DelegateSignature__36:e&#45;&gt;ExecuteUbergraph_BP_Hologram__327</title>
<path fill="none" stroke="red" d="M1911,-1233C1959.41,-1233 1936.99,-1153.91 1921.08,-1110.59"/>
<polygon fill="none" stroke="red" points="1924.38,-1109.44 1917.56,-1101.33 1917.84,-1111.92 1924.38,-1109.44"/>
</g>
<!-- BndEvt__InstantUsable_K2Node_ComponentBoundEvent_0_UsedBySignature__DelegateSignature__51 -->
<g id="node34" class="node">
<title>BndEvt__InstantUsable_K2Node_ComponentBoundEvent_0_UsedBySignature__DelegateSignature__51</title>
<polygon fill="#eeeeee" stroke="black" points="1546,-1063 1546,-1101 1662,-1101 1662,-1063 1546,-1063"/>
<text text-anchor="start" x="1554" y="-1085.8" font-family="monospace" font-size="14.00">EX_Return</text>
<text text-anchor="start" x="1554" y="-1070.8" font-family="monospace" font-size="14.00">  EX_Nothing</text>
</g>
<!-- BndEvt__InstantUsable_K2Node_ComponentBoundEvent_0_UsedBySignature__DelegateSignature__36&#45;&gt;BndEvt__InstantUsable_K2Node_ComponentBoundEvent_0_UsedBySignature__DelegateSignature__51 -->
<g id="edge28" class="edge">
<title>BndEvt__InstantUsable_K2Node_ComponentBoundEvent_0_UsedBySignature__DelegateSignature__36&#45;&gt;BndEvt__InstantUsable_K2Node_ComponentBoundEvent_0_UsedBySignature__DelegateSignature__51</title>
<path fill="none" stroke="black" d="M1604,-1214.03C1604,-1188.72 1604,-1142.3 1604,-1112.06"/>
<polygon fill="black" stroke="black" points="1607.5,-1112.09 1604,-1102.09 1600.5,-1112.09 1607.5,-1112.09"/>
</g>
<!-- BndEvt__InstantUsable_K2Node_ComponentBoundEvent_0_UsedBySignature__DelegateSignature__53 -->
<g id="node35" class="node">
<title>BndEvt__InstantUsable_K2Node_ComponentBoundEvent_0_UsedBySignature__DelegateSignature__53</title>
<polygon fill="#eeeeee" stroke="black" points="2856,-1338.5 2856,-1374.5 2988,-1374.5 2988,-1338.5 2856,-1338.5"/>
<text text-anchor="start" x="2864" y="-1352.8" font-family="monospace" font-size="14.00">EX_EndOfScript</text>
</g>
</g>
</svg>
