<?xml version="1.0" encoding="UTF-8" standalone="no"?>
<!DOCTYPE svg PUBLIC "-//W3C//DTD SVG 1.1//EN"
 "http://www.w3.org/Graphics/SVG/1.1/DTD/svg11.dtd">
<!-- Generated by graphviz version 7.0.1 (0)
 -->
<!-- Pages: 1 -->
<svg width="2382pt" height="660pt"
 viewBox="0.00 0.00 2382.00 660.00" xmlns="http://www.w3.org/2000/svg" xmlns:xlink="http://www.w3.org/1999/xlink">
<g id="graph0" class="graph" transform="scale(1 1) rotate(0) translate(4 656)">
<polygon fill="white" stroke="none" points="-4,4 -4,-656 2378,-656 2378,4 -4,4"/>
<!-- GFX_Background03_C -->
<g id="node1" class="node">
<title>GFX_Background03_C</title>
<polygon fill="#88ff88" stroke="black" points="0,-478.5 0,-651.5 850,-651.5 850,-478.5 0,-478.5"/>
<text text-anchor="start" x="8" y="-636.3" font-family="monospace" font-size="14.00">ClassExport: GFX_Background03_C</text>
<text text-anchor="start" x="8" y="-621.3" font-family="monospace" font-size="14.00">  SuperStruct: import /Script/UMG&#45;&gt;UserWidget</text>
<text text-anchor="start" x="8" y="-606.3" font-family="monospace" font-size="14.00">  Properties:</text>
<text text-anchor="start" x="8" y="-591.3" font-family="monospace" font-size="14.00">    StructProperty UberGraphFrame</text>
<text text-anchor="start" x="8" y="-576.3" font-family="monospace" font-size="14.00">      CPF_Transient|CPF_DuplicateTransient</text>
<text text-anchor="start" x="8" y="-561.3" font-family="monospace" font-size="14.00">    ObjectProperty BackgroundWiggle</text>
<text text-anchor="start" x="8" y="-546.3" font-family="monospace" font-size="14.00">      CPF_BlueprintVisible|CPF_BlueprintReadOnly|CPF_Transient|CPF_RepSkip</text>
<text text-anchor="start" x="8" y="-531.3" font-family="monospace" font-size="14.00">    ObjectProperty BackgroundOverlay</text>
<text text-anchor="start" x="8" y="-516.3" font-family="monospace" font-size="14.00">      CPF_BlueprintVisible|CPF_ExportObject|CPF_InstancedReference|CPF_RepSkip|CPF_PersistentInstance</text>
<text text-anchor="start" x="8" y="-501.3" font-family="monospace" font-size="14.00">    ObjectProperty Image_0</text>
<text text-anchor="start" x="8" y="-486.3" font-family="monospace" font-size="14.00">      CPF_BlueprintVisible|CPF_ExportObject|CPF_InstancedReference|CPF_RepSkip|CPF_PersistentInstance</text>
</g>
<!-- ExecuteUbergraph_GFX_Background03 -->
<g id="node2" class="node">
<title>ExecuteUbergraph_GFX_Background03</title>
<polygon fill="#ff8888" stroke="black" points="868,-531 868,-599 1338,-599 1338,-531 868,-531"/>
<text text-anchor="start" x="876" y="-583.8" font-family="monospace" font-size="14.00">Function ExecuteUbergraph_GFX_Background03</text>
<text text-anchor="start" x="876" y="-568.8" font-family="monospace" font-size="14.00">  IntProperty EntryPoint</text>
<text text-anchor="start" x="876" y="-553.8" font-family="monospace" font-size="14.00">    CPF_BlueprintVisible|CPF_BlueprintReadOnly|CPF_Parm</text>
<text text-anchor="start" x="876" y="-538.8" font-family="monospace" font-size="14.00">  ObjectProperty CallFunc_PlayAnimation_ReturnValue</text>
</g>
<!-- ExecuteUbergraph_GFX_Background03__0 -->
<g id="node3" class="node">
<title>ExecuteUbergraph_GFX_Background03__0</title>
<polygon fill="#eeeeee" stroke="black" points="967,-403.5 967,-441.5 1239,-441.5 1239,-403.5 967,-403.5"/>
<text text-anchor="start" x="975" y="-426.3" font-family="monospace" font-size="14.00">EX_ComputedJump</text>
<text text-anchor="start" x="975" y="-411.3" font-family="monospace" font-size="14.00">  EX_LocalVariable [EntryPoint]</text>
</g>
<!-- ExecuteUbergraph_GFX_Background03&#45;&gt;ExecuteUbergraph_GFX_Background03__0 -->
<g id="edge1" class="edge">
<title>ExecuteUbergraph_GFX_Background03&#45;&gt;ExecuteUbergraph_GFX_Background03__0</title>
<path fill="none" stroke="black" d="M1103,-531.06C1103,-507.27 1103,-475.44 1103,-452.59"/>
<polygon fill="black" stroke="black" points="1106.5,-452.75 1103,-442.75 1099.5,-452.75 1106.5,-452.75"/>
</g>
<!-- ExecuteUbergraph_GFX_Background03__10 -->
<g id="node4" class="node">
<title>ExecuteUbergraph_GFX_Background03__10</title>
<polygon fill="#eeeeee" stroke="black" points="1678.5,-148.5 1678.5,-291.5 2223.5,-291.5 2223.5,-148.5 1678.5,-148.5"/>
<text text-anchor="start" x="1686.5" y="-276.3" font-family="monospace" font-size="14.00">EX_LetObj</text>
<text text-anchor="start" x="1686.5" y="-261.3" font-family="monospace" font-size="14.00">  EX_LocalVariable [CallFunc_PlayAnimation_ReturnValue]</text>
<text text-anchor="start" x="1686.5" y="-246.3" font-family="monospace" font-size="14.00">  EX_FinalFunction import /Script/UMG&#45;&gt;UserWidget&#45;&gt;PlayAnimation</text>
<text text-anchor="start" x="1686.5" y="-231.3" font-family="monospace" font-size="14.00">    EX_InstanceVariable [BackgroundWiggle]</text>
<text text-anchor="start" x="1686.5" y="-216.3" font-family="monospace" font-size="14.00">    EX_FloatConst 0</text>
<text text-anchor="start" x="1686.5" y="-201.3" font-family="monospace" font-size="14.00">    EX_IntConst 0</text>
<text text-anchor="start" x="1686.5" y="-186.3" font-family="monospace" font-size="14.00">    EX_ByteConst 0</text>
<text text-anchor="start" x="1686.5" y="-171.3" font-family="monospace" font-size="14.00">    EX_FloatConst 1</text>
<text text-anchor="start" x="1686.5" y="-156.3" font-family="monospace" font-size="14.00">    EX_False</text>
</g>
<!-- ExecuteUbergraph_GFX_Background03__57 -->
<g id="node5" class="node">
<title>ExecuteUbergraph_GFX_Background03__57</title>
<polygon fill="#eeeeee" stroke="black" points="1901.5,-75.5 1901.5,-111.5 2000.5,-111.5 2000.5,-75.5 1901.5,-75.5"/>
<text text-anchor="start" x="1909.5" y="-89.8" font-family="monospace" font-size="14.00">EX_Jump 67</text>
</g>
<!-- ExecuteUbergraph_GFX_Background03__10&#45;&gt;ExecuteUbergraph_GFX_Background03__57 -->
<g id="edge2" class="edge">
<title>ExecuteUbergraph_GFX_Background03__10&#45;&gt;ExecuteUbergraph_GFX_Background03__57</title>
<path fill="none" stroke="black" d="M1951,-148.75C1951,-139.48 1951,-130.45 1951,-122.51"/>
<polygon fill="black" stroke="black" points="1954.5,-122.55 1951,-112.55 1947.5,-122.55 1954.5,-122.55"/>
</g>
<!-- ExecuteUbergraph_GFX_Background03__67 -->
<g id="node7" class="node">
<title>ExecuteUbergraph_GFX_Background03__67</title>
<polygon fill="#eeeeee" stroke="black" points="1893,-0.5 1893,-38.5 2009,-38.5 2009,-0.5 1893,-0.5"/>
<text text-anchor="start" x="1901" y="-23.3" font-family="monospace" font-size="14.00">EX_Return</text>
<text text-anchor="start" x="1901" y="-8.3" font-family="monospace" font-size="14.00">  EX_Nothing</text>
</g>
<!-- ExecuteUbergraph_GFX_Background03__57&#45;&gt;ExecuteUbergraph_GFX_Background03__67 -->
<g id="edge3" class="edge">
<title>ExecuteUbergraph_GFX_Background03__57&#45;&gt;ExecuteUbergraph_GFX_Background03__67</title>
<path fill="none" stroke="black" d="M1951,-75.8C1951,-68.09 1951,-58.7 1951,-49.86"/>
<polygon fill="black" stroke="black" points="1954.5,-49.88 1951,-39.88 1947.5,-49.88 1954.5,-49.88"/>
</g>
<!-- ExecuteUbergraph_GFX_Background03__62 -->
<g id="node6" class="node">
<title>ExecuteUbergraph_GFX_Background03__62</title>
<polygon fill="#eeeeee" stroke="black" points="1901.5,-329.5 1901.5,-365.5 2000.5,-365.5 2000.5,-329.5 1901.5,-329.5"/>
<text text-anchor="start" x="1909.5" y="-343.8" font-family="monospace" font-size="14.00">EX_Jump 10</text>
</g>
<!-- ExecuteUbergraph_GFX_Background03__62&#45;&gt;ExecuteUbergraph_GFX_Background03__10 -->
<g id="edge4" class="edge">
<title>ExecuteUbergraph_GFX_Background03__62&#45;&gt;ExecuteUbergraph_GFX_Background03__10</title>
<path fill="none" stroke="black" d="M1951,-329.57C1951,-322.19 1951,-312.93 1951,-302.96"/>
<polygon fill="black" stroke="black" points="1954.5,-302.98 1951,-292.98 1947.5,-302.98 1954.5,-302.98"/>
</g>
<!-- ExecuteUbergraph_GFX_Background03__69 -->
<g id="node8" class="node">
<title>ExecuteUbergraph_GFX_Background03__69</title>
<polygon fill="#eeeeee" stroke="black" points="2242,-202 2242,-238 2374,-238 2374,-202 2242,-202"/>
<text text-anchor="start" x="2250" y="-216.3" font-family="monospace" font-size="14.00">EX_EndOfScript</text>
</g>
<!-- Construct -->
<g id="node9" class="node">
<title>Construct</title>
<polygon fill="#ff8888" stroke="black" points="1521.5,-547 1521.5,-583 1686.5,-583 1686.5,-547 1521.5,-547"/>
<text text-anchor="start" x="1529.5" y="-561.3" font-family="monospace" font-size="14.00">Function Construct</text>
</g>
<!-- Construct__0 -->
<g id="node10" class="node">
<title>Construct__0</title>
<polygon fill="#eeeeee" stroke="black" points="1257.5,-403.5 1257.5,-441.5 1950.5,-441.5 1950.5,-403.5 1257.5,-403.5"/>
<text text-anchor="start" x="1265.5" y="-426.3" font-family="monospace" font-size="14.00">EX_LocalFinalFunction export GFX_Background03_C&#45;&gt;ExecuteUbergraph_GFX_Background03</text>
<text text-anchor="start" x="1265.5" y="-411.3" font-family="monospace" font-size="14.00">  EX_IntConst 62</text>
</g>
<!-- Construct&#45;&gt;Construct__0 -->
<g id="edge5" class="edge">
<title>Construct&#45;&gt;Construct__0</title>
<path fill="none" stroke="black" d="M1604,-547.05C1604,-523.68 1604,-481.21 1604,-452.67"/>
<polygon fill="black" stroke="black" points="1607.5,-452.91 1604,-442.91 1600.5,-452.91 1607.5,-452.91"/>
</g>
<!-- Construct__0&#45;&gt;ExecuteUbergraph_GFX_Background03__62 -->
<g id="edge6" class="edge">
<title>Construct__0:e&#45;&gt;ExecuteUbergraph_GFX_Background03__62</title>
<path fill="none" stroke="red" d="M1952,-422.5C1971.28,-422.5 1967.62,-397.08 1961.28,-376.04"/>
<polygon fill="none" stroke="red" points="1964.66,-375.12 1958.2,-366.73 1958.02,-377.32 1964.66,-375.12"/>
</g>
<!-- Construct__15 -->
<g id="node11" class="node">
<title>Construct__15</title>
<polygon fill="#eeeeee" stroke="black" points="1546,-328.5 1546,-366.5 1662,-366.5 1662,-328.5 1546,-328.5"/>
<text text-anchor="start" x="1554" y="-351.3" font-family="monospace" font-size="14.00">EX_Return</text>
<text text-anchor="start" x="1554" y="-336.3" font-family="monospace" font-size="14.00">  EX_Nothing</text>
</g>
<!-- Construct__0&#45;&gt;Construct__15 -->
<g id="edge7" class="edge">
<title>Construct__0&#45;&gt;Construct__15</title>
<path fill="none" stroke="black" d="M1604,-403.83C1604,-396 1604,-386.57 1604,-377.74"/>
<polygon fill="black" stroke="black" points="1607.5,-377.78 1604,-367.78 1600.5,-377.78 1607.5,-377.78"/>
</g>
<!-- Construct__17 -->
<g id="node12" class="node">
<title>Construct__17</title>
<polygon fill="#eeeeee" stroke="black" points="2019,-75.5 2019,-111.5 2151,-111.5 2151,-75.5 2019,-75.5"/>
<text text-anchor="start" x="2027" y="-89.8" font-family="monospace" font-size="14.00">EX_EndOfScript</text>
</g>
</g>
</svg>
