<?xml version="1.0" encoding="UTF-8" standalone="no"?>
<!DOCTYPE svg PUBLIC "-//W3C//DTD SVG 1.1//EN"
 "http://www.w3.org/Graphics/SVG/1.1/DTD/svg11.dtd">
<!-- Generated by graphviz version 7.0.1 (0)
 -->
<!-- Pages: 1 -->
<svg width="2510pt" height="887pt"
 viewBox="0.00 0.00 2509.50 887.00" xmlns="http://www.w3.org/2000/svg" xmlns:xlink="http://www.w3.org/1999/xlink">
<g id="graph0" class="graph" transform="scale(1 1) rotate(0) translate(4 883)">
<polygon fill="white" stroke="none" points="-4,4 -4,-883 2505.5,-883 2505.5,4 -4,4"/>
<!-- ITM_HostIcon_C -->
<g id="node1" class="node">
<title>ITM_HostIcon_C</title>
<polygon fill="#88ff88" stroke="black" points="0,-675.5 0,-878.5 850,-878.5 850,-675.5 0,-675.5"/>
<text text-anchor="start" x="8" y="-863.3" font-family="monospace" font-size="14.00">ClassExport: ITM_HostIcon_C</text>
<text text-anchor="start" x="8" y="-848.3" font-family="monospace" font-size="14.00">  SuperStruct: import /Script/UMG&#45;&gt;UserWidget</text>
<text text-anchor="start" x="8" y="-833.3" font-family="monospace" font-size="14.00">  Properties:</text>
<text text-anchor="start" x="8" y="-818.3" font-family="monospace" font-size="14.00">    StructProperty UberGraphFrame</text>
<text text-anchor="start" x="8" y="-803.3" font-family="monospace" font-size="14.00">      CPF_Transient|CPF_DuplicateTransient</text>
<text text-anchor="start" x="8" y="-788.3" font-family="monospace" font-size="14.00">    ObjectProperty BG_Host</text>
<text text-anchor="start" x="8" y="-773.3" font-family="monospace" font-size="14.00">      CPF_BlueprintVisible|CPF_ExportObject|CPF_InstancedReference|CPF_RepSkip|CPF_PersistentInstance</text>
<text text-anchor="start" x="8" y="-758.3" font-family="monospace" font-size="14.00">    ObjectProperty Icon_Host</text>
<text text-anchor="start" x="8" y="-743.3" font-family="monospace" font-size="14.00">      CPF_BlueprintVisible|CPF_ExportObject|CPF_InstancedReference|CPF_RepSkip|CPF_PersistentInstance</text>
<text text-anchor="start" x="8" y="-728.3" font-family="monospace" font-size="14.00">    ObjectProperty SizeBox_0</text>
<text text-anchor="start" x="8" y="-713.3" font-family="monospace" font-size="14.00">      CPF_BlueprintVisible|CPF_ExportObject|CPF_InstancedReference|CPF_RepSkip|CPF_PersistentInstance</text>
<text text-anchor="start" x="8" y="-698.3" font-family="monospace" font-size="14.00">    FloatProperty Size</text>
<text text-anchor="start" x="8" y="-683.3" font-family="monospace" font-size="14.00">      CPF_Edit|CPF_BlueprintVisible</text>
</g>
<!-- ExecuteUbergraph_ITM_HostIcon -->
<g id="node2" class="node">
<title>ExecuteUbergraph_ITM_HostIcon</title>
<polygon fill="#ff8888" stroke="black" points="868.5,-735.5 868.5,-818.5 1363.5,-818.5 1363.5,-735.5 868.5,-735.5"/>
<text text-anchor="start" x="876.5" y="-803.3" font-family="monospace" font-size="14.00">Function ExecuteUbergraph_ITM_HostIcon</text>
<text text-anchor="start" x="876.5" y="-788.3" font-family="monospace" font-size="14.00">  IntProperty EntryPoint</text>
<text text-anchor="start" x="876.5" y="-773.3" font-family="monospace" font-size="14.00">    CPF_BlueprintVisible|CPF_BlueprintReadOnly|CPF_Parm</text>
<text text-anchor="start" x="876.5" y="-758.3" font-family="monospace" font-size="14.00">  StructProperty CallFunc_MenuColorsAndOpacity_OutputColor</text>
<text text-anchor="start" x="876.5" y="-743.3" font-family="monospace" font-size="14.00">  BoolProperty K2Node_Event_IsDesignTime</text>
</g>
<!-- ExecuteUbergraph_ITM_HostIcon__0 -->
<g id="node3" class="node">
<title>ExecuteUbergraph_ITM_HostIcon__0</title>
<polygon fill="#eeeeee" stroke="black" points="980,-578 980,-616 1252,-616 1252,-578 980,-578"/>
<text text-anchor="start" x="988" y="-600.8" font-family="monospace" font-size="14.00">EX_ComputedJump</text>
<text text-anchor="start" x="988" y="-585.8" font-family="monospace" font-size="14.00">  EX_LocalVariable [EntryPoint]</text>
</g>
<!-- ExecuteUbergraph_ITM_HostIcon&#45;&gt;ExecuteUbergraph_ITM_HostIcon__0 -->
<g id="edge1" class="edge">
<title>ExecuteUbergraph_ITM_HostIcon&#45;&gt;ExecuteUbergraph_ITM_HostIcon__0</title>
<path fill="none" stroke="black" d="M1116,-735.61C1116,-702.43 1116,-656.26 1116,-626.75"/>
<polygon fill="black" stroke="black" points="1119.5,-627.09 1116,-617.09 1112.5,-627.09 1119.5,-627.09"/>
</g>
<!-- ExecuteUbergraph_ITM_HostIcon__10 -->
<g id="node4" class="node">
<title>ExecuteUbergraph_ITM_HostIcon__10</title>
<polygon fill="#eeeeee" stroke="black" points="1795,-360.5 1795,-398.5 2067,-398.5 2067,-360.5 1795,-360.5"/>
<text text-anchor="start" x="1803" y="-383.3" font-family="monospace" font-size="14.00">EX_LocalVirtualFunction SetSize</text>
<text text-anchor="start" x="1803" y="-368.3" font-family="monospace" font-size="14.00">  EX_InstanceVariable [Size]</text>
</g>
<!-- ExecuteUbergraph_ITM_HostIcon__33 -->
<g id="node5" class="node">
<title>ExecuteUbergraph_ITM_HostIcon__33</title>
<polygon fill="#eeeeee" stroke="black" points="1551.5,-195.5 1551.5,-323.5 2310.5,-323.5 2310.5,-195.5 1551.5,-195.5"/>
<text text-anchor="start" x="1559.5" y="-308.3" font-family="monospace" font-size="14.00">EX_Context</text>
<text text-anchor="start" x="1559.5" y="-293.3" font-family="monospace" font-size="14.00">  EX_ObjectConst import /Game/UI/Art/WidgetParts/LIB_MenuColors&#45;&gt;Default__LIB_MenuColors_C</text>
<text text-anchor="start" x="1559.5" y="-278.3" font-family="monospace" font-size="14.00">  EX_LocalVirtualFunction MenuColorsAndOpacity</text>
<text text-anchor="start" x="1559.5" y="-263.3" font-family="monospace" font-size="14.00">    EX_ByteConst 0</text>
<text text-anchor="start" x="1559.5" y="-248.3" font-family="monospace" font-size="14.00">    EX_FloatConst 1</text>
<text text-anchor="start" x="1559.5" y="-233.3" font-family="monospace" font-size="14.00">    EX_Self</text>
<text text-anchor="start" x="1559.5" y="-218.3" font-family="monospace" font-size="14.00">    EX_LocalVariable [CallFunc_MenuColorsAndOpacity_OutputColor]</text>
<text text-anchor="start" x="1559.5" y="-203.3" font-family="monospace" font-size="14.00">  RValue = []</text>
</g>
<!-- ExecuteUbergraph_ITM_HostIcon__10&#45;&gt;ExecuteUbergraph_ITM_HostIcon__33 -->
<g id="edge2" class="edge">
<title>ExecuteUbergraph_ITM_HostIcon__10&#45;&gt;ExecuteUbergraph_ITM_HostIcon__33</title>
<path fill="none" stroke="black" d="M1931,-360.58C1931,-353.26 1931,-344.26 1931,-334.69"/>
<polygon fill="black" stroke="black" points="1934.5,-334.77 1931,-324.77 1927.5,-334.77 1934.5,-334.77"/>
</g>
<!-- ExecuteUbergraph_ITM_HostIcon__86 -->
<g id="node6" class="node">
<title>ExecuteUbergraph_ITM_HostIcon__86</title>
<polygon fill="#eeeeee" stroke="black" points="1658.5,-75.5 1658.5,-158.5 2203.5,-158.5 2203.5,-75.5 1658.5,-75.5"/>
<text text-anchor="start" x="1666.5" y="-143.3" font-family="monospace" font-size="14.00">EX_Context</text>
<text text-anchor="start" x="1666.5" y="-128.3" font-family="monospace" font-size="14.00">  EX_InstanceVariable [Icon_Host]</text>
<text text-anchor="start" x="1666.5" y="-113.3" font-family="monospace" font-size="14.00">  EX_FinalFunction import /Script/UMG&#45;&gt;Image&#45;&gt;SetColorAndOpacity</text>
<text text-anchor="start" x="1666.5" y="-98.3" font-family="monospace" font-size="14.00">    EX_LocalVariable [CallFunc_MenuColorsAndOpacity_OutputColor]</text>
<text text-anchor="start" x="1666.5" y="-83.3" font-family="monospace" font-size="14.00">  RValue = []</text>
</g>
<!-- ExecuteUbergraph_ITM_HostIcon__33&#45;&gt;ExecuteUbergraph_ITM_HostIcon__86 -->
<g id="edge3" class="edge">
<title>ExecuteUbergraph_ITM_HostIcon__33&#45;&gt;ExecuteUbergraph_ITM_HostIcon__86</title>
<path fill="none" stroke="black" d="M1931,-195.65C1931,-186.91 1931,-178.01 1931,-169.51"/>
<polygon fill="black" stroke="black" points="1934.5,-169.73 1931,-159.73 1927.5,-169.73 1934.5,-169.73"/>
</g>
<!-- ExecuteUbergraph_ITM_HostIcon__127 -->
<g id="node7" class="node">
<title>ExecuteUbergraph_ITM_HostIcon__127</title>
<polygon fill="#eeeeee" stroke="black" points="1873,-0.5 1873,-38.5 1989,-38.5 1989,-0.5 1873,-0.5"/>
<text text-anchor="start" x="1881" y="-23.3" font-family="monospace" font-size="14.00">EX_Return</text>
<text text-anchor="start" x="1881" y="-8.3" font-family="monospace" font-size="14.00">  EX_Nothing</text>
</g>
<!-- ExecuteUbergraph_ITM_HostIcon__86&#45;&gt;ExecuteUbergraph_ITM_HostIcon__127 -->
<g id="edge4" class="edge">
<title>ExecuteUbergraph_ITM_HostIcon__86&#45;&gt;ExecuteUbergraph_ITM_HostIcon__127</title>
<path fill="none" stroke="black" d="M1931,-75.78C1931,-67.01 1931,-57.89 1931,-49.65"/>
<polygon fill="black" stroke="black" points="1934.5,-49.86 1931,-39.86 1927.5,-49.86 1934.5,-49.86"/>
</g>
<!-- ExecuteUbergraph_ITM_HostIcon__129 -->
<g id="node8" class="node">
<title>ExecuteUbergraph_ITM_HostIcon__129</title>
<polygon fill="#eeeeee" stroke="black" points="2329,-241.5 2329,-277.5 2461,-277.5 2461,-241.5 2329,-241.5"/>
<text text-anchor="start" x="2337" y="-255.8" font-family="monospace" font-size="14.00">EX_EndOfScript</text>
</g>
<!-- PreConstruct -->
<g id="node9" class="node">
<title>PreConstruct</title>
<polygon fill="#ff8888" stroke="black" points="1382,-750.5 1382,-803.5 1852,-803.5 1852,-750.5 1382,-750.5"/>
<text text-anchor="start" x="1390" y="-788.3" font-family="monospace" font-size="14.00">Function PreConstruct</text>
<text text-anchor="start" x="1390" y="-773.3" font-family="monospace" font-size="14.00">  BoolProperty IsDesignTime</text>
<text text-anchor="start" x="1390" y="-758.3" font-family="monospace" font-size="14.00">    CPF_BlueprintVisible|CPF_BlueprintReadOnly|CPF_Parm</text>
</g>
<!-- PreConstruct__0 -->
<g id="node10" class="node">
<title>PreConstruct__0</title>
<polygon fill="#eeeeee" stroke="black" points="1377.5,-578 1377.5,-616 1856.5,-616 1856.5,-578 1377.5,-578"/>
<text text-anchor="start" x="1385.5" y="-600.8" font-family="monospace" font-size="14.00">EX_LetValueOnPersistentFrame [K2Node_Event_IsDesignTime]</text>
<text text-anchor="start" x="1385.5" y="-585.8" font-family="monospace" font-size="14.00">  EX_LocalVariable [IsDesignTime]</text>
</g>
<!-- PreConstruct&#45;&gt;PreConstruct__0 -->
<g id="edge5" class="edge">
<title>PreConstruct&#45;&gt;PreConstruct__0</title>
<path fill="none" stroke="black" d="M1617,-750.87C1617,-718.3 1617,-661.59 1617,-627.16"/>
<polygon fill="black" stroke="black" points="1620.5,-627.5 1617,-617.5 1613.5,-627.5 1620.5,-627.5"/>
</g>
<!-- PreConstruct__18 -->
<g id="node11" class="node">
<title>PreConstruct__18</title>
<polygon fill="#eeeeee" stroke="black" points="1303.5,-458 1303.5,-496 1930.5,-496 1930.5,-458 1303.5,-458"/>
<text text-anchor="start" x="1311.5" y="-480.8" font-family="monospace" font-size="14.00">EX_LocalFinalFunction export ITM_HostIcon_C&#45;&gt;ExecuteUbergraph_ITM_HostIcon</text>
<text text-anchor="start" x="1311.5" y="-465.8" font-family="monospace" font-size="14.00">  EX_IntConst 10</text>
</g>
<!-- PreConstruct__0&#45;&gt;PreConstruct__18 -->
<g id="edge6" class="edge">
<title>PreConstruct__0&#45;&gt;PreConstruct__18</title>
<path fill="none" stroke="black" d="M1617,-578.08C1617,-559.26 1617,-529.36 1617,-507.14"/>
<polygon fill="black" stroke="black" points="1620.5,-507.22 1617,-497.22 1613.5,-507.22 1620.5,-507.22"/>
</g>
<!-- PreConstruct__18&#45;&gt;ExecuteUbergraph_ITM_HostIcon__10 -->
<g id="edge7" class="edge">
<title>PreConstruct__18:e&#45;&gt;ExecuteUbergraph_ITM_HostIcon__10</title>
<path fill="none" stroke="red" d="M1932,-477C1938.82,-477 1936.56,-438 1934.01,-409.58"/>
<polygon fill="none" stroke="red" points="1937.51,-409.33 1933.07,-399.71 1930.54,-409.99 1937.51,-409.33"/>
</g>
<!-- PreConstruct__33 -->
<g id="node12" class="node">
<title>PreConstruct__33</title>
<polygon fill="#eeeeee" stroke="black" points="1559,-360.5 1559,-398.5 1675,-398.5 1675,-360.5 1559,-360.5"/>
<text text-anchor="start" x="1567" y="-383.3" font-family="monospace" font-size="14.00">EX_Return</text>
<text text-anchor="start" x="1567" y="-368.3" font-family="monospace" font-size="14.00">  EX_Nothing</text>
</g>
<!-- PreConstruct__18&#45;&gt;PreConstruct__33 -->
<g id="edge8" class="edge">
<title>PreConstruct__18&#45;&gt;PreConstruct__33</title>
<path fill="none" stroke="black" d="M1617,-458.04C1617,-444.43 1617,-425.45 1617,-409.68"/>
<polygon fill="black" stroke="black" points="1620.5,-409.9 1617,-399.9 1613.5,-409.9 1620.5,-409.9"/>
</g>
<!-- PreConstruct__35 -->
<g id="node13" class="node">
<title>PreConstruct__35</title>
<polygon fill="#eeeeee" stroke="black" points="2222,-99 2222,-135 2354,-135 2354,-99 2222,-99"/>
<text text-anchor="start" x="2230" y="-113.3" font-family="monospace" font-size="14.00">EX_EndOfScript</text>
</g>
<!-- SetSize -->
<g id="node14" class="node">
<title>SetSize</title>
<polygon fill="#ff8888" stroke="black" points="1990,-750.5 1990,-803.5 2460,-803.5 2460,-750.5 1990,-750.5"/>
<text text-anchor="start" x="1998" y="-788.3" font-family="monospace" font-size="14.00">Function SetSize</text>
<text text-anchor="start" x="1998" y="-773.3" font-family="monospace" font-size="14.00">  FloatProperty Size</text>
<text text-anchor="start" x="1998" y="-758.3" font-family="monospace" font-size="14.00">    CPF_BlueprintVisible|CPF_BlueprintReadOnly|CPF_Parm</text>
</g>
<!-- SetSize__0 -->
<g id="node15" class="node">
<title>SetSize__0</title>
<polygon fill="#eeeeee" stroke="black" points="1952.5,-555.5 1952.5,-638.5 2497.5,-638.5 2497.5,-555.5 1952.5,-555.5"/>
<text text-anchor="start" x="1960.5" y="-623.3" font-family="monospace" font-size="14.00">EX_Context</text>
<text text-anchor="start" x="1960.5" y="-608.3" font-family="monospace" font-size="14.00">  EX_InstanceVariable [SizeBox_0]</text>
<text text-anchor="start" x="1960.5" y="-593.3" font-family="monospace" font-size="14.00">  EX_FinalFunction import /Script/UMG&#45;&gt;SizeBox&#45;&gt;SetWidthOverride</text>
<text text-anchor="start" x="1960.5" y="-578.3" font-family="monospace" font-size="14.00">    EX_LocalVariable [Size]</text>
<text text-anchor="start" x="1960.5" y="-563.3" font-family="monospace" font-size="14.00">  RValue = []</text>
</g>
<!-- SetSize&#45;&gt;SetSize__0 -->
<g id="edge9" class="edge">
<title>SetSize&#45;&gt;SetSize__0</title>
<path fill="none" stroke="black" d="M2225,-750.87C2225,-724.73 2225,-683.04 2225,-649.79"/>
<polygon fill="black" stroke="black" points="2228.5,-649.94 2225,-639.94 2221.5,-649.94 2228.5,-649.94"/>
</g>
<!-- SetSize__41 -->
<g id="node16" class="node">
<title>SetSize__41</title>
<polygon fill="#eeeeee" stroke="black" points="1948.5,-435.5 1948.5,-518.5 2501.5,-518.5 2501.5,-435.5 1948.5,-435.5"/>
<text text-anchor="start" x="1956.5" y="-503.3" font-family="monospace" font-size="14.00">EX_Context</text>
<text text-anchor="start" x="1956.5" y="-488.3" font-family="monospace" font-size="14.00">  EX_InstanceVariable [SizeBox_0]</text>
<text text-anchor="start" x="1956.5" y="-473.3" font-family="monospace" font-size="14.00">  EX_FinalFunction import /Script/UMG&#45;&gt;SizeBox&#45;&gt;SetHeightOverride</text>
<text text-anchor="start" x="1956.5" y="-458.3" font-family="monospace" font-size="14.00">    EX_LocalVariable [Size]</text>
<text text-anchor="start" x="1956.5" y="-443.3" font-family="monospace" font-size="14.00">  RValue = []</text>
</g>
<!-- SetSize__0&#45;&gt;SetSize__41 -->
<g id="edge10" class="edge">
<title>SetSize__0&#45;&gt;SetSize__41</title>
<path fill="none" stroke="black" d="M2225,-555.72C2225,-547.37 2225,-538.45 2225,-529.75"/>
<polygon fill="black" stroke="black" points="2228.5,-530.01 2225,-520.01 2221.5,-530.01 2228.5,-530.01"/>
</g>
<!-- SetSize__82 -->
<g id="node17" class="node">
<title>SetSize__82</title>
<polygon fill="#eeeeee" stroke="black" points="2167,-360.5 2167,-398.5 2283,-398.5 2283,-360.5 2167,-360.5"/>
<text text-anchor="start" x="2175" y="-383.3" font-family="monospace" font-size="14.00">EX_Return</text>
<text text-anchor="start" x="2175" y="-368.3" font-family="monospace" font-size="14.00">  EX_Nothing</text>
</g>
<!-- SetSize__41&#45;&gt;SetSize__82 -->
<g id="edge11" class="edge">
<title>SetSize__41&#45;&gt;SetSize__82</title>
<path fill="none" stroke="black" d="M2225,-435.78C2225,-427.01 2225,-417.89 2225,-409.65"/>
<polygon fill="black" stroke="black" points="2228.5,-409.86 2225,-399.86 2221.5,-409.86 2228.5,-409.86"/>
</g>
<!-- SetSize__84 -->
<g id="node18" class="node">
<title>SetSize__84</title>
<polygon fill="#eeeeee" stroke="black" points="2007,-1.5 2007,-37.5 2139,-37.5 2139,-1.5 2007,-1.5"/>
<text text-anchor="start" x="2015" y="-15.8" font-family="monospace" font-size="14.00">EX_EndOfScript</text>
</g>
</g>
</svg>
