<?xml version="1.0" encoding="UTF-8" standalone="no"?>
<!DOCTYPE svg PUBLIC "-//W3C//DTD SVG 1.1//EN"
 "http://www.w3.org/Graphics/SVG/1.1/DTD/svg11.dtd">
<!-- Generated by graphviz version 7.0.1 (0)
 -->
<!-- Pages: 1 -->
<svg width="7224pt" height="735pt"
 viewBox="0.00 0.00 7223.50 735.00" xmlns="http://www.w3.org/2000/svg" xmlns:xlink="http://www.w3.org/1999/xlink">
<g id="graph0" class="graph" transform="scale(1 1) rotate(0) translate(4 731)">
<polygon fill="white" stroke="none" points="-4,4 -4,-731 7219.5,-731 7219.5,4 -4,4"/>
<!-- UI_FocusableCanvas_C -->
<g id="node1" class="node">
<title>UI_FocusableCanvas_C</title>
<polygon fill="#88ff88" stroke="black" points="0,-553.5 0,-726.5 899,-726.5 899,-553.5 0,-553.5"/>
<text text-anchor="start" x="8" y="-711.3" font-family="monospace" font-size="14.00">ClassExport: UI_FocusableCanvas_C</text>
<text text-anchor="start" x="8" y="-696.3" font-family="monospace" font-size="14.00">  SuperStruct: import /Script/UMG&#45;&gt;UserWidget</text>
<text text-anchor="start" x="8" y="-681.3" font-family="monospace" font-size="14.00">  Properties:</text>
<text text-anchor="start" x="8" y="-666.3" font-family="monospace" font-size="14.00">    StructProperty UberGraphFrame</text>
<text text-anchor="start" x="8" y="-651.3" font-family="monospace" font-size="14.00">      CPF_Transient|CPF_DuplicateTransient</text>
<text text-anchor="start" x="8" y="-636.3" font-family="monospace" font-size="14.00">    ObjectProperty Content</text>
<text text-anchor="start" x="8" y="-621.3" font-family="monospace" font-size="14.00">      CPF_BlueprintVisible|CPF_ExportObject|CPF_InstancedReference|CPF_RepSkip|CPF_PersistentInstance</text>
<text text-anchor="start" x="8" y="-606.3" font-family="monospace" font-size="14.00">    MulticastInlineDelegateProperty OnFocusChanged</text>
<text text-anchor="start" x="8" y="-591.3" font-family="monospace" font-size="14.00">      CPF_Edit|CPF_BlueprintVisible|CPF_DisableEditOnInstance|CPF_BlueprintAssignable|CPF_BlueprintCallable</text>
<text text-anchor="start" x="8" y="-576.3" font-family="monospace" font-size="14.00">    MulticastInlineDelegateProperty OnHoverChanged</text>
<text text-anchor="start" x="8" y="-561.3" font-family="monospace" font-size="14.00">      CPF_Edit|CPF_BlueprintVisible|CPF_DisableEditOnInstance|CPF_BlueprintAssignable|CPF_BlueprintCallable</text>
</g>
<!-- OnFocusChanged__DelegateSignature -->
<g id="node2" class="node">
<title>OnFocusChanged__DelegateSignature</title>
<polygon fill="#ff8888" stroke="black" points="917.5,-598.5 917.5,-681.5 1577.5,-681.5 1577.5,-598.5 917.5,-598.5"/>
<text text-anchor="start" x="925.5" y="-666.3" font-family="monospace" font-size="14.00">Function OnFocusChanged__DelegateSignature</text>
<text text-anchor="start" x="925.5" y="-651.3" font-family="monospace" font-size="14.00">  ObjectProperty Widget</text>
<text text-anchor="start" x="925.5" y="-636.3" font-family="monospace" font-size="14.00">    CPF_BlueprintVisible|CPF_BlueprintReadOnly|CPF_Parm|CPF_InstancedReference</text>
<text text-anchor="start" x="925.5" y="-621.3" font-family="monospace" font-size="14.00">  BoolProperty IsFocused</text>
<text text-anchor="start" x="925.5" y="-606.3" font-family="monospace" font-size="14.00">    CPF_BlueprintVisible|CPF_BlueprintReadOnly|CPF_Parm</text>
</g>
<!-- OnFocusChanged__DelegateSignature__0 -->
<g id="node3" class="node">
<title>OnFocusChanged__DelegateSignature__0</title>
<polygon fill="#eeeeee" stroke="black" points="1189.5,-463.5 1189.5,-501.5 1305.5,-501.5 1305.5,-463.5 1189.5,-463.5"/>
<text text-anchor="start" x="1197.5" y="-486.3" font-family="monospace" font-size="14.00">EX_Return</text>
<text text-anchor="start" x="1197.5" y="-471.3" font-family="monospace" font-size="14.00">  EX_Nothing</text>
</g>
<!-- OnFocusChanged__DelegateSignature&#45;&gt;OnFocusChanged__DelegateSignature__0 -->
<g id="edge1" class="edge">
<title>OnFocusChanged__DelegateSignature&#45;&gt;OnFocusChanged__DelegateSignature__0</title>
<path fill="none" stroke="black" d="M1247.5,-598.55C1247.5,-571.61 1247.5,-536.83 1247.5,-512.6"/>
<polygon fill="black" stroke="black" points="1251,-512.82 1247.5,-502.82 1244,-512.82 1251,-512.82"/>
</g>
<!-- OnFocusChanged__DelegateSignature__2 -->
<g id="node4" class="node">
<title>OnFocusChanged__DelegateSignature__2</title>
<polygon fill="#eeeeee" stroke="black" points="4893.5,-1.5 4893.5,-37.5 5025.5,-37.5 5025.5,-1.5 4893.5,-1.5"/>
<text text-anchor="start" x="4901.5" y="-15.8" font-family="monospace" font-size="14.00">EX_EndOfScript</text>
</g>
<!-- OnHoverChanged__DelegateSignature -->
<g id="node5" class="node">
<title>OnHoverChanged__DelegateSignature</title>
<polygon fill="#ff8888" stroke="black" points="1595.5,-598.5 1595.5,-681.5 2255.5,-681.5 2255.5,-598.5 1595.5,-598.5"/>
<text text-anchor="start" x="1603.5" y="-666.3" font-family="monospace" font-size="14.00">Function OnHoverChanged__DelegateSignature</text>
<text text-anchor="start" x="1603.5" y="-651.3" font-family="monospace" font-size="14.00">  ObjectProperty Widget</text>
<text text-anchor="start" x="1603.5" y="-636.3" font-family="monospace" font-size="14.00">    CPF_BlueprintVisible|CPF_BlueprintReadOnly|CPF_Parm|CPF_InstancedReference</text>
<text text-anchor="start" x="1603.5" y="-621.3" font-family="monospace" font-size="14.00">  BoolProperty IsHovered</text>
<text text-anchor="start" x="1603.5" y="-606.3" font-family="monospace" font-size="14.00">    CPF_BlueprintVisible|CPF_BlueprintReadOnly|CPF_Parm</text>
</g>
<!-- OnHoverChanged__DelegateSignature__0 -->
<g id="node6" class="node">
<title>OnHoverChanged__DelegateSignature__0</title>
<polygon fill="#eeeeee" stroke="black" points="1867.5,-463.5 1867.5,-501.5 1983.5,-501.5 1983.5,-463.5 1867.5,-463.5"/>
<text text-anchor="start" x="1875.5" y="-486.3" font-family="monospace" font-size="14.00">EX_Return</text>
<text text-anchor="start" x="1875.5" y="-471.3" font-family="monospace" font-size="14.00">  EX_Nothing</text>
</g>
<!-- OnHoverChanged__DelegateSignature&#45;&gt;OnHoverChanged__DelegateSignature__0 -->
<g id="edge2" class="edge">
<title>OnHoverChanged__DelegateSignature&#45;&gt;OnHoverChanged__DelegateSignature__0</title>
<path fill="none" stroke="black" d="M1925.5,-598.55C1925.5,-571.61 1925.5,-536.83 1925.5,-512.6"/>
<polygon fill="black" stroke="black" points="1929,-512.82 1925.5,-502.82 1922,-512.82 1929,-512.82"/>
</g>
<!-- OnHoverChanged__DelegateSignature__2 -->
<g id="node7" class="node">
<title>OnHoverChanged__DelegateSignature__2</title>
<polygon fill="#eeeeee" stroke="black" points="4073.5,-75.5 4073.5,-111.5 4205.5,-111.5 4205.5,-75.5 4073.5,-75.5"/>
<text text-anchor="start" x="4081.5" y="-89.8" font-family="monospace" font-size="14.00">EX_EndOfScript</text>
</g>
<!-- ExecuteUbergraph_UI_FocusableCanvas -->
<g id="node8" class="node">
<title>ExecuteUbergraph_UI_FocusableCanvas</title>
<polygon fill="#ff8888" stroke="black" points="2273.5,-568.5 2273.5,-711.5 2743.5,-711.5 2743.5,-568.5 2273.5,-568.5"/>
<text text-anchor="start" x="2281.5" y="-696.3" font-family="monospace" font-size="14.00">Function ExecuteUbergraph_UI_FocusableCanvas</text>
<text text-anchor="start" x="2281.5" y="-681.3" font-family="monospace" font-size="14.00">  IntProperty EntryPoint</text>
<text text-anchor="start" x="2281.5" y="-666.3" font-family="monospace" font-size="14.00">    CPF_BlueprintVisible|CPF_BlueprintReadOnly|CPF_Parm</text>
<text text-anchor="start" x="2281.5" y="-651.3" font-family="monospace" font-size="14.00">  StructProperty K2Node_Event_InFocusEvent</text>
<text text-anchor="start" x="2281.5" y="-636.3" font-family="monospace" font-size="14.00">  StructProperty K2Node_Event_MyGeometry</text>
<text text-anchor="start" x="2281.5" y="-621.3" font-family="monospace" font-size="14.00">  StructProperty K2Node_Event_MouseEvent_1</text>
<text text-anchor="start" x="2281.5" y="-606.3" font-family="monospace" font-size="14.00">    CPF_ConstParm</text>
<text text-anchor="start" x="2281.5" y="-591.3" font-family="monospace" font-size="14.00">  StructProperty K2Node_Event_MouseEvent</text>
<text text-anchor="start" x="2281.5" y="-576.3" font-family="monospace" font-size="14.00">    CPF_ConstParm</text>
</g>
<!-- ExecuteUbergraph_UI_FocusableCanvas__0 -->
<g id="node9" class="node">
<title>ExecuteUbergraph_UI_FocusableCanvas__0</title>
<polygon fill="#eeeeee" stroke="black" points="2372.5,-463.5 2372.5,-501.5 2644.5,-501.5 2644.5,-463.5 2372.5,-463.5"/>
<text text-anchor="start" x="2380.5" y="-486.3" font-family="monospace" font-size="14.00">EX_ComputedJump</text>
<text text-anchor="start" x="2380.5" y="-471.3" font-family="monospace" font-size="14.00">  EX_LocalVariable [EntryPoint]</text>
</g>
<!-- ExecuteUbergraph_UI_FocusableCanvas&#45;&gt;ExecuteUbergraph_UI_FocusableCanvas__0 -->
<g id="edge3" class="edge">
<title>ExecuteUbergraph_UI_FocusableCanvas&#45;&gt;ExecuteUbergraph_UI_FocusableCanvas__0</title>
<path fill="none" stroke="black" d="M2508.5,-568.53C2508.5,-548.81 2508.5,-528.45 2508.5,-512.61"/>
<polygon fill="black" stroke="black" points="2512,-512.97 2508.5,-502.97 2505,-512.97 2512,-512.97"/>
</g>
<!-- ExecuteUbergraph_UI_FocusableCanvas__10 -->
<g id="node10" class="node">
<title>ExecuteUbergraph_UI_FocusableCanvas__10</title>
<polygon fill="#eeeeee" stroke="black" points="5791.5,-148.5 5791.5,-216.5 6525.5,-216.5 6525.5,-148.5 5791.5,-148.5"/>
<text text-anchor="start" x="5799.5" y="-201.3" font-family="monospace" font-size="14.00">EX_CallMulticastDelegate export UI_FocusableCanvas_C&#45;&gt;OnHoverChanged__DelegateSignature</text>
<text text-anchor="start" x="5799.5" y="-186.3" font-family="monospace" font-size="14.00">  EX_InstanceVariable [OnHoverChanged]</text>
<text text-anchor="start" x="5799.5" y="-171.3" font-family="monospace" font-size="14.00">  EX_Self</text>
<text text-anchor="start" x="5799.5" y="-156.3" font-family="monospace" font-size="14.00">  EX_False</text>
</g>
<!-- ExecuteUbergraph_UI_FocusableCanvas__31 -->
<g id="node11" class="node">
<title>ExecuteUbergraph_UI_FocusableCanvas__31</title>
<polygon fill="#eeeeee" stroke="black" points="5788,-75.5 5788,-111.5 5895,-111.5 5895,-75.5 5788,-75.5"/>
<text text-anchor="start" x="5796" y="-89.8" font-family="monospace" font-size="14.00">EX_Jump 109</text>
</g>
<!-- ExecuteUbergraph_UI_FocusableCanvas__10&#45;&gt;ExecuteUbergraph_UI_FocusableCanvas__31 -->
<g id="edge4" class="edge">
<title>ExecuteUbergraph_UI_FocusableCanvas__10&#45;&gt;ExecuteUbergraph_UI_FocusableCanvas__31</title>
<path fill="none" stroke="black" d="M6037.67,-148.54C5998.4,-137.8 5954.4,-125.75 5905.59,-112.3"/>
<polygon fill="black" stroke="black" points="5906.8,-109 5896.23,-109.72 5904.94,-115.75 5906.8,-109"/>
</g>
<!-- ExecuteUbergraph_UI_FocusableCanvas__109 -->
<g id="node19" class="node">
<title>ExecuteUbergraph_UI_FocusableCanvas__109</title>
<polygon fill="#eeeeee" stroke="black" points="5043.5,-0.5 5043.5,-38.5 5159.5,-38.5 5159.5,-0.5 5043.5,-0.5"/>
<text text-anchor="start" x="5051.5" y="-23.3" font-family="monospace" font-size="14.00">EX_Return</text>
<text text-anchor="start" x="5051.5" y="-8.3" font-family="monospace" font-size="14.00">  EX_Nothing</text>
</g>
<!-- ExecuteUbergraph_UI_FocusableCanvas__31&#45;&gt;ExecuteUbergraph_UI_FocusableCanvas__109 -->
<g id="edge5" class="edge">
<title>ExecuteUbergraph_UI_FocusableCanvas__31&#45;&gt;ExecuteUbergraph_UI_FocusableCanvas__109</title>
<path fill="none" stroke="black" d="M5788.28,-91.7C5675.74,-89.26 5405.39,-79.52 5170.6,-39.17"/>
<polygon fill="black" stroke="black" points="5171.39,-35.76 5160.94,-37.49 5170.19,-42.65 5171.39,-35.76"/>
</g>
<!-- ExecuteUbergraph_UI_FocusableCanvas__36 -->
<g id="node12" class="node">
<title>ExecuteUbergraph_UI_FocusableCanvas__36</title>
<polygon fill="#eeeeee" stroke="black" points="3231.5,-358.5 3231.5,-411.5 3545.5,-411.5 3545.5,-358.5 3231.5,-358.5"/>
<text text-anchor="start" x="3239.5" y="-396.3" font-family="monospace" font-size="14.00">EX_LetBool</text>
<text text-anchor="start" x="3239.5" y="-381.3" font-family="monospace" font-size="14.00">  EX_InstanceVariable [bIsFocusable]</text>
<text text-anchor="start" x="3239.5" y="-366.3" font-family="monospace" font-size="14.00">  EX_True</text>
</g>
<!-- ExecuteUbergraph_UI_FocusableCanvas__47 -->
<g id="node13" class="node">
<title>ExecuteUbergraph_UI_FocusableCanvas__47</title>
<polygon fill="#eeeeee" stroke="black" points="4224,-75.5 4224,-111.5 4331,-111.5 4331,-75.5 4224,-75.5"/>
<text text-anchor="start" x="4232" y="-89.8" font-family="monospace" font-size="14.00">EX_Jump 109</text>
</g>
<!-- ExecuteUbergraph_UI_FocusableCanvas__36&#45;&gt;ExecuteUbergraph_UI_FocusableCanvas__47 -->
<g id="edge6" class="edge">
<title>ExecuteUbergraph_UI_FocusableCanvas__36&#45;&gt;ExecuteUbergraph_UI_FocusableCanvas__47</title>
<path fill="none" stroke="black" d="M3463.35,-358.55C3541.96,-331.9 3669.26,-289.01 3779.5,-253 3935.05,-202.19 4118.61,-144.3 4213.5,-114.53"/>
<polygon fill="black" stroke="black" points="4214.41,-117.91 4222.9,-111.58 4212.32,-111.23 4214.41,-117.91"/>
</g>
<!-- ExecuteUbergraph_UI_FocusableCanvas__47&#45;&gt;ExecuteUbergraph_UI_FocusableCanvas__109 -->
<g id="edge7" class="edge">
<title>ExecuteUbergraph_UI_FocusableCanvas__47&#45;&gt;ExecuteUbergraph_UI_FocusableCanvas__109</title>
<path fill="none" stroke="black" d="M4330.7,-92.36C4453.19,-91.26 4764.5,-84.05 5032.44,-39.15"/>
<polygon fill="black" stroke="black" points="5032.79,-42.64 5042.06,-37.51 5031.62,-35.74 5032.79,-42.64"/>
</g>
<!-- ExecuteUbergraph_UI_FocusableCanvas__52 -->
<g id="node14" class="node">
<title>ExecuteUbergraph_UI_FocusableCanvas__52</title>
<polygon fill="#eeeeee" stroke="black" points="3922.5,-253.5 3922.5,-321.5 4656.5,-321.5 4656.5,-253.5 3922.5,-253.5"/>
<text text-anchor="start" x="3930.5" y="-306.3" font-family="monospace" font-size="14.00">EX_CallMulticastDelegate export UI_FocusableCanvas_C&#45;&gt;OnFocusChanged__DelegateSignature</text>
<text text-anchor="start" x="3930.5" y="-291.3" font-family="monospace" font-size="14.00">  EX_InstanceVariable [OnFocusChanged]</text>
<text text-anchor="start" x="3930.5" y="-276.3" font-family="monospace" font-size="14.00">  EX_Self</text>
<text text-anchor="start" x="3930.5" y="-261.3" font-family="monospace" font-size="14.00">  EX_False</text>
</g>
<!-- ExecuteUbergraph_UI_FocusableCanvas__73 -->
<g id="node15" class="node">
<title>ExecuteUbergraph_UI_FocusableCanvas__73</title>
<polygon fill="#eeeeee" stroke="black" points="4365,-164.5 4365,-200.5 4472,-200.5 4472,-164.5 4365,-164.5"/>
<text text-anchor="start" x="4373" y="-178.8" font-family="monospace" font-size="14.00">EX_Jump 109</text>
</g>
<!-- ExecuteUbergraph_UI_FocusableCanvas__52&#45;&gt;ExecuteUbergraph_UI_FocusableCanvas__73 -->
<g id="edge8" class="edge">
<title>ExecuteUbergraph_UI_FocusableCanvas__52&#45;&gt;ExecuteUbergraph_UI_FocusableCanvas__73</title>
<path fill="none" stroke="black" d="M4330.67,-253.63C4349.63,-238.49 4371.71,-220.86 4388.98,-207.07"/>
<polygon fill="black" stroke="black" points="4390.72,-210.16 4396.35,-201.19 4386.35,-204.69 4390.72,-210.16"/>
</g>
<!-- ExecuteUbergraph_UI_FocusableCanvas__73&#45;&gt;ExecuteUbergraph_UI_FocusableCanvas__109 -->
<g id="edge9" class="edge">
<title>ExecuteUbergraph_UI_FocusableCanvas__73&#45;&gt;ExecuteUbergraph_UI_FocusableCanvas__109</title>
<path fill="none" stroke="black" d="M4471.83,-169.96C4577.02,-147.01 4818.84,-93.42 5032.67,-39.42"/>
<polygon fill="black" stroke="black" points="5033.5,-42.82 5042.33,-36.97 5031.78,-36.03 5033.5,-42.82"/>
</g>
<!-- ExecuteUbergraph_UI_FocusableCanvas__78 -->
<g id="node16" class="node">
<title>ExecuteUbergraph_UI_FocusableCanvas__78</title>
<polygon fill="#eeeeee" stroke="black" points="5033.5,-148.5 5033.5,-216.5 5767.5,-216.5 5767.5,-148.5 5033.5,-148.5"/>
<text text-anchor="start" x="5041.5" y="-201.3" font-family="monospace" font-size="14.00">EX_CallMulticastDelegate export UI_FocusableCanvas_C&#45;&gt;OnHoverChanged__DelegateSignature</text>
<text text-anchor="start" x="5041.5" y="-186.3" font-family="monospace" font-size="14.00">  EX_InstanceVariable [OnHoverChanged]</text>
<text text-anchor="start" x="5041.5" y="-171.3" font-family="monospace" font-size="14.00">  EX_Self</text>
<text text-anchor="start" x="5041.5" y="-156.3" font-family="monospace" font-size="14.00">  EX_True</text>
</g>
<!-- ExecuteUbergraph_UI_FocusableCanvas__99 -->
<g id="node17" class="node">
<title>ExecuteUbergraph_UI_FocusableCanvas__99</title>
<polygon fill="#eeeeee" stroke="black" points="5218,-75.5 5218,-111.5 5325,-111.5 5325,-75.5 5218,-75.5"/>
<text text-anchor="start" x="5226" y="-89.8" font-family="monospace" font-size="14.00">EX_Jump 109</text>
</g>
<!-- ExecuteUbergraph_UI_FocusableCanvas__78&#45;&gt;ExecuteUbergraph_UI_FocusableCanvas__99 -->
<g id="edge10" class="edge">
<title>ExecuteUbergraph_UI_FocusableCanvas__78&#45;&gt;ExecuteUbergraph_UI_FocusableCanvas__99</title>
<path fill="none" stroke="black" d="M5351.73,-148.61C5336.43,-138.29 5319.86,-127.12 5305.78,-117.62"/>
<polygon fill="black" stroke="black" points="5307.98,-114.88 5297.73,-112.19 5304.07,-120.68 5307.98,-114.88"/>
</g>
<!-- ExecuteUbergraph_UI_FocusableCanvas__99&#45;&gt;ExecuteUbergraph_UI_FocusableCanvas__109 -->
<g id="edge11" class="edge">
<title>ExecuteUbergraph_UI_FocusableCanvas__99&#45;&gt;ExecuteUbergraph_UI_FocusableCanvas__109</title>
<path fill="none" stroke="black" d="M5231.64,-75.62C5208.54,-65.84 5179.18,-53.4 5154.19,-42.82"/>
<polygon fill="black" stroke="black" points="5155.75,-39.67 5145.17,-39 5153.02,-46.12 5155.75,-39.67"/>
</g>
<!-- ExecuteUbergraph_UI_FocusableCanvas__104 -->
<g id="node18" class="node">
<title>ExecuteUbergraph_UI_FocusableCanvas__104</title>
<polygon fill="#eeeeee" stroke="black" points="6158,-269.5 6158,-305.5 6257,-305.5 6257,-269.5 6158,-269.5"/>
<text text-anchor="start" x="6166" y="-283.8" font-family="monospace" font-size="14.00">EX_Jump 10</text>
</g>
<!-- ExecuteUbergraph_UI_FocusableCanvas__104&#45;&gt;ExecuteUbergraph_UI_FocusableCanvas__10 -->
<g id="edge12" class="edge">
<title>ExecuteUbergraph_UI_FocusableCanvas__104&#45;&gt;ExecuteUbergraph_UI_FocusableCanvas__10</title>
<path fill="none" stroke="black" d="M6199.63,-269.95C6194.04,-258.22 6186.28,-241.89 6179,-226.59"/>
<polygon fill="black" stroke="black" points="6182.18,-225.12 6174.72,-217.6 6175.86,-228.13 6182.18,-225.12"/>
</g>
<!-- ExecuteUbergraph_UI_FocusableCanvas__111 -->
<g id="node20" class="node">
<title>ExecuteUbergraph_UI_FocusableCanvas__111</title>
<polygon fill="#eeeeee" stroke="black" points="5177.5,-1.5 5177.5,-37.5 5309.5,-37.5 5309.5,-1.5 5177.5,-1.5"/>
<text text-anchor="start" x="5185.5" y="-15.8" font-family="monospace" font-size="14.00">EX_EndOfScript</text>
</g>
<!-- OnMouseLeave -->
<g id="node21" class="node">
<title>OnMouseLeave</title>
<polygon fill="#ff8888" stroke="black" points="5444,-613.5 5444,-666.5 6277,-666.5 6277,-613.5 5444,-613.5"/>
<text text-anchor="start" x="5452" y="-651.3" font-family="monospace" font-size="14.00">Function OnMouseLeave</text>
<text text-anchor="start" x="5452" y="-636.3" font-family="monospace" font-size="14.00">  StructProperty MouseEvent</text>
<text text-anchor="start" x="5452" y="-621.3" font-family="monospace" font-size="14.00">    CPF_ConstParm|CPF_BlueprintVisible|CPF_BlueprintReadOnly|CPF_Parm|CPF_OutParm|CPF_ReferenceParm</text>
</g>
<!-- OnMouseLeave__0 -->
<g id="node22" class="node">
<title>OnMouseLeave__0</title>
<polygon fill="#eeeeee" stroke="black" points="5626.5,-456 5626.5,-509 6088.5,-509 6088.5,-456 5626.5,-456"/>
<text text-anchor="start" x="5634.5" y="-493.8" font-family="monospace" font-size="14.00">EX_LetValueOnPersistentFrame [K2Node_Event_MouseEvent]</text>
<text text-anchor="start" x="5634.5" y="-478.8" font-family="monospace" font-size="14.00">  EX_LocalOutVariable</text>
<text text-anchor="start" x="5634.5" y="-463.8" font-family="monospace" font-size="14.00">    [MouseEvent]</text>
</g>
<!-- OnMouseLeave&#45;&gt;OnMouseLeave__0 -->
<g id="edge13" class="edge">
<title>OnMouseLeave&#45;&gt;OnMouseLeave__0</title>
<path fill="none" stroke="black" d="M5860.01,-613.67C5859.52,-588.26 5858.76,-548.85 5858.21,-520.05"/>
<polygon fill="black" stroke="black" points="5861.71,-520.26 5858.02,-510.33 5854.71,-520.4 5861.71,-520.26"/>
</g>
<!-- OnMouseLeave__18 -->
<g id="node23" class="node">
<title>OnMouseLeave__18</title>
<polygon fill="#eeeeee" stroke="black" points="5493.5,-366 5493.5,-404 6219.5,-404 6219.5,-366 5493.5,-366"/>
<text text-anchor="start" x="5501.5" y="-388.8" font-family="monospace" font-size="14.00">EX_LocalFinalFunction export UI_FocusableCanvas_C&#45;&gt;ExecuteUbergraph_UI_FocusableCanvas</text>
<text text-anchor="start" x="5501.5" y="-373.8" font-family="monospace" font-size="14.00">  EX_IntConst 104</text>
</g>
<!-- OnMouseLeave__0&#45;&gt;OnMouseLeave__18 -->
<g id="edge14" class="edge">
<title>OnMouseLeave__0&#45;&gt;OnMouseLeave__18</title>
<path fill="none" stroke="black" d="M5857.23,-456.16C5857.1,-443.55 5856.94,-428.25 5856.81,-415.16"/>
<polygon fill="black" stroke="black" points="5860.31,-415.37 5856.7,-405.41 5853.31,-415.44 5860.31,-415.37"/>
</g>
<!-- OnMouseLeave__18&#45;&gt;ExecuteUbergraph_UI_FocusableCanvas__104 -->
<g id="edge15" class="edge">
<title>OnMouseLeave__18:e&#45;&gt;ExecuteUbergraph_UI_FocusableCanvas__104</title>
<path fill="none" stroke="red" d="M6220.5,-385C6248.68,-385 6234.65,-344.08 6221.43,-315.53"/>
<polygon fill="none" stroke="red" points="6224.65,-314.16 6217.15,-306.67 6218.35,-317.2 6224.65,-314.16"/>
</g>
<!-- OnMouseLeave__33 -->
<g id="node24" class="node">
<title>OnMouseLeave__33</title>
<polygon fill="#eeeeee" stroke="black" points="5798.5,-268.5 5798.5,-306.5 5914.5,-306.5 5914.5,-268.5 5798.5,-268.5"/>
<text text-anchor="start" x="5806.5" y="-291.3" font-family="monospace" font-size="14.00">EX_Return</text>
<text text-anchor="start" x="5806.5" y="-276.3" font-family="monospace" font-size="14.00">  EX_Nothing</text>
</g>
<!-- OnMouseLeave__18&#45;&gt;OnMouseLeave__33 -->
<g id="edge16" class="edge">
<title>OnMouseLeave__18&#45;&gt;OnMouseLeave__33</title>
<path fill="none" stroke="black" d="M5856.5,-366.04C5856.5,-352.43 5856.5,-333.45 5856.5,-317.68"/>
<polygon fill="black" stroke="black" points="5860,-317.9 5856.5,-307.9 5853,-317.9 5860,-317.9"/>
</g>
<!-- OnMouseLeave__35 -->
<g id="node25" class="node">
<title>OnMouseLeave__35</title>
<polygon fill="#eeeeee" stroke="black" points="5913.5,-75.5 5913.5,-111.5 6045.5,-111.5 6045.5,-75.5 5913.5,-75.5"/>
<text text-anchor="start" x="5921.5" y="-89.8" font-family="monospace" font-size="14.00">EX_EndOfScript</text>
</g>
<!-- OnMouseEnter -->
<g id="node26" class="node">
<title>OnMouseEnter</title>
<polygon fill="#ff8888" stroke="black" points="4593,-598.5 4593,-681.5 5426,-681.5 5426,-598.5 4593,-598.5"/>
<text text-anchor="start" x="4601" y="-666.3" font-family="monospace" font-size="14.00">Function OnMouseEnter</text>
<text text-anchor="start" x="4601" y="-651.3" font-family="monospace" font-size="14.00">  StructProperty MyGeometry</text>
<text text-anchor="start" x="4601" y="-636.3" font-family="monospace" font-size="14.00">    CPF_BlueprintVisible|CPF_BlueprintReadOnly|CPF_Parm</text>
<text text-anchor="start" x="4601" y="-621.3" font-family="monospace" font-size="14.00">  StructProperty MouseEvent</text>
<text text-anchor="start" x="4601" y="-606.3" font-family="monospace" font-size="14.00">    CPF_ConstParm|CPF_BlueprintVisible|CPF_BlueprintReadOnly|CPF_Parm|CPF_OutParm|CPF_ReferenceParm</text>
</g>
<!-- OnMouseEnter__0 -->
<g id="node27" class="node">
<title>OnMouseEnter__0</title>
<polygon fill="#eeeeee" stroke="black" points="4780.5,-463.5 4780.5,-501.5 5242.5,-501.5 5242.5,-463.5 4780.5,-463.5"/>
<text text-anchor="start" x="4788.5" y="-486.3" font-family="monospace" font-size="14.00">EX_LetValueOnPersistentFrame [K2Node_Event_MyGeometry]</text>
<text text-anchor="start" x="4788.5" y="-471.3" font-family="monospace" font-size="14.00">  EX_LocalVariable [MyGeometry]</text>
</g>
<!-- OnMouseEnter&#45;&gt;OnMouseEnter__0 -->
<g id="edge17" class="edge">
<title>OnMouseEnter&#45;&gt;OnMouseEnter__0</title>
<path fill="none" stroke="black" d="M5010.02,-598.55C5010.37,-571.61 5010.81,-536.83 5011.13,-512.6"/>
<polygon fill="black" stroke="black" points="5014.62,-512.86 5011.25,-502.82 5007.62,-512.77 5014.62,-512.86"/>
</g>
<!-- OnMouseEnter__18 -->
<g id="node28" class="node">
<title>OnMouseEnter__18</title>
<polygon fill="#eeeeee" stroke="black" points="4773,-358.5 4773,-411.5 5252,-411.5 5252,-358.5 4773,-358.5"/>
<text text-anchor="start" x="4781" y="-396.3" font-family="monospace" font-size="14.00">EX_LetValueOnPersistentFrame [K2Node_Event_MouseEvent_1]</text>
<text text-anchor="start" x="4781" y="-381.3" font-family="monospace" font-size="14.00">  EX_LocalOutVariable</text>
<text text-anchor="start" x="4781" y="-366.3" font-family="monospace" font-size="14.00">    [MouseEvent]</text>
</g>
<!-- OnMouseEnter__0&#45;&gt;OnMouseEnter__18 -->
<g id="edge18" class="edge">
<title>OnMouseEnter__0&#45;&gt;OnMouseEnter__18</title>
<path fill="none" stroke="black" d="M5011.69,-463.54C5011.81,-452.06 5011.97,-436.75 5012.11,-422.77"/>
<polygon fill="black" stroke="black" points="5015.61,-423 5012.22,-412.96 5008.61,-422.93 5015.61,-423"/>
</g>
<!-- OnMouseEnter__36 -->
<g id="node29" class="node">
<title>OnMouseEnter__36</title>
<polygon fill="#eeeeee" stroke="black" points="4674.5,-268.5 4674.5,-306.5 5400.5,-306.5 5400.5,-268.5 4674.5,-268.5"/>
<text text-anchor="start" x="4682.5" y="-291.3" font-family="monospace" font-size="14.00">EX_LocalFinalFunction export UI_FocusableCanvas_C&#45;&gt;ExecuteUbergraph_UI_FocusableCanvas</text>
<text text-anchor="start" x="4682.5" y="-276.3" font-family="monospace" font-size="14.00">  EX_IntConst 78</text>
</g>
<!-- OnMouseEnter__18&#45;&gt;OnMouseEnter__36 -->
<g id="edge19" class="edge">
<title>OnMouseEnter__18&#45;&gt;OnMouseEnter__36</title>
<path fill="none" stroke="black" d="M5019.13,-358.66C5022.47,-345.92 5026.52,-330.44 5029.97,-317.26"/>
<polygon fill="black" stroke="black" points="5033.29,-318.42 5032.43,-307.86 5026.51,-316.65 5033.29,-318.42"/>
</g>
<!-- OnMouseEnter__36&#45;&gt;ExecuteUbergraph_UI_FocusableCanvas__78 -->
<g id="edge20" class="edge">
<title>OnMouseEnter__36:e&#45;&gt;ExecuteUbergraph_UI_FocusableCanvas__78</title>
<path fill="none" stroke="red" d="M5401.5,-287.5C5427.12,-287.5 5424.03,-255.56 5416.19,-227.08"/>
<polygon fill="none" stroke="red" points="5419.65,-226.44 5413.44,-217.86 5412.95,-228.44 5419.65,-226.44"/>
</g>
<!-- OnMouseEnter__51 -->
<g id="node30" class="node">
<title>OnMouseEnter__51</title>
<polygon fill="#eeeeee" stroke="black" points="4899.5,-163.5 4899.5,-201.5 5015.5,-201.5 5015.5,-163.5 4899.5,-163.5"/>
<text text-anchor="start" x="4907.5" y="-186.3" font-family="monospace" font-size="14.00">EX_Return</text>
<text text-anchor="start" x="4907.5" y="-171.3" font-family="monospace" font-size="14.00">  EX_Nothing</text>
</g>
<!-- OnMouseEnter__36&#45;&gt;OnMouseEnter__51 -->
<g id="edge21" class="edge">
<title>OnMouseEnter__36&#45;&gt;OnMouseEnter__51</title>
<path fill="none" stroke="black" d="M5023.57,-268.56C5011.06,-252.46 4992.54,-228.61 4978.29,-210.26"/>
<polygon fill="black" stroke="black" points="4981.1,-208.18 4972.2,-202.43 4975.57,-212.48 4981.1,-208.18"/>
</g>
<!-- OnMouseEnter__53 -->
<g id="node31" class="node">
<title>OnMouseEnter__53</title>
<polygon fill="#eeeeee" stroke="black" points="5327.5,-1.5 5327.5,-37.5 5459.5,-37.5 5459.5,-1.5 5327.5,-1.5"/>
<text text-anchor="start" x="5335.5" y="-15.8" font-family="monospace" font-size="14.00">EX_EndOfScript</text>
</g>
<!-- OnFocusLost -->
<g id="node32" class="node">
<title>OnFocusLost</title>
<polygon fill="#ff8888" stroke="black" points="3691.5,-613.5 3691.5,-666.5 4161.5,-666.5 4161.5,-613.5 3691.5,-613.5"/>
<text text-anchor="start" x="3699.5" y="-651.3" font-family="monospace" font-size="14.00">Function OnFocusLost</text>
<text text-anchor="start" x="3699.5" y="-636.3" font-family="monospace" font-size="14.00">  StructProperty InFocusEvent</text>
<text text-anchor="start" x="3699.5" y="-621.3" font-family="monospace" font-size="14.00">    CPF_BlueprintVisible|CPF_BlueprintReadOnly|CPF_Parm</text>
</g>
<!-- OnFocusLost__0 -->
<g id="node33" class="node">
<title>OnFocusLost__0</title>
<polygon fill="#eeeeee" stroke="black" points="3687,-463.5 3687,-501.5 4166,-501.5 4166,-463.5 3687,-463.5"/>
<text text-anchor="start" x="3695" y="-486.3" font-family="monospace" font-size="14.00">EX_LetValueOnPersistentFrame [K2Node_Event_InFocusEvent]</text>
<text text-anchor="start" x="3695" y="-471.3" font-family="monospace" font-size="14.00">  EX_LocalVariable [InFocusEvent]</text>
</g>
<!-- OnFocusLost&#45;&gt;OnFocusLost__0 -->
<g id="edge22" class="edge">
<title>OnFocusLost&#45;&gt;OnFocusLost__0</title>
<path fill="none" stroke="black" d="M3926.5,-613.67C3926.5,-585.96 3926.5,-541.62 3926.5,-512.52"/>
<polygon fill="black" stroke="black" points="3930,-512.6 3926.5,-502.6 3923,-512.6 3930,-512.6"/>
</g>
<!-- OnFocusLost__18 -->
<g id="node34" class="node">
<title>OnFocusLost__18</title>
<polygon fill="#eeeeee" stroke="black" points="3563.5,-366 3563.5,-404 4289.5,-404 4289.5,-366 3563.5,-366"/>
<text text-anchor="start" x="3571.5" y="-388.8" font-family="monospace" font-size="14.00">EX_LocalFinalFunction export UI_FocusableCanvas_C&#45;&gt;ExecuteUbergraph_UI_FocusableCanvas</text>
<text text-anchor="start" x="3571.5" y="-373.8" font-family="monospace" font-size="14.00">  EX_IntConst 52</text>
</g>
<!-- OnFocusLost__0&#45;&gt;OnFocusLost__18 -->
<g id="edge23" class="edge">
<title>OnFocusLost__0&#45;&gt;OnFocusLost__18</title>
<path fill="none" stroke="black" d="M3926.5,-463.54C3926.5,-449.93 3926.5,-430.95 3926.5,-415.18"/>
<polygon fill="black" stroke="black" points="3930,-415.4 3926.5,-405.4 3923,-415.4 3930,-415.4"/>
</g>
<!-- OnFocusLost__18&#45;&gt;ExecuteUbergraph_UI_FocusableCanvas__52 -->
<g id="edge24" class="edge">
<title>OnFocusLost__18:e&#45;&gt;ExecuteUbergraph_UI_FocusableCanvas__52</title>
<path fill="none" stroke="red" d="M4290.5,-385C4313.3,-385 4311.58,-357.74 4304.96,-332.2"/>
<polygon fill="none" stroke="red" points="4308.42,-331.55 4302.3,-322.9 4301.69,-333.47 4308.42,-331.55"/>
</g>
<!-- OnFocusLost__33 -->
<g id="node35" class="node">
<title>OnFocusLost__33</title>
<polygon fill="#eeeeee" stroke="black" points="3788.5,-268.5 3788.5,-306.5 3904.5,-306.5 3904.5,-268.5 3788.5,-268.5"/>
<text text-anchor="start" x="3796.5" y="-291.3" font-family="monospace" font-size="14.00">EX_Return</text>
<text text-anchor="start" x="3796.5" y="-276.3" font-family="monospace" font-size="14.00">  EX_Nothing</text>
</g>
<!-- OnFocusLost__18&#45;&gt;OnFocusLost__33 -->
<g id="edge25" class="edge">
<title>OnFocusLost__18&#45;&gt;OnFocusLost__33</title>
<path fill="none" stroke="black" d="M3911.45,-366.04C3899.38,-351.63 3882.27,-331.2 3868.64,-314.93"/>
<polygon fill="black" stroke="black" points="3871.56,-312.96 3862.45,-307.54 3866.19,-317.46 3871.56,-312.96"/>
</g>
<!-- OnFocusLost__35 -->
<g id="node36" class="node">
<title>OnFocusLost__35</title>
<polygon fill="#eeeeee" stroke="black" points="6295.5,-622 6295.5,-658 6427.5,-658 6427.5,-622 6295.5,-622"/>
<text text-anchor="start" x="6303.5" y="-636.3" font-family="monospace" font-size="14.00">EX_EndOfScript</text>
</g>
<!-- Construct -->
<g id="node37" class="node">
<title>Construct</title>
<polygon fill="#ff8888" stroke="black" points="2943,-622 2943,-658 3108,-658 3108,-622 2943,-622"/>
<text text-anchor="start" x="2951" y="-636.3" font-family="monospace" font-size="14.00">Function Construct</text>
</g>
<!-- Construct__0 -->
<g id="node38" class="node">
<title>Construct__0</title>
<polygon fill="#eeeeee" stroke="black" points="2662.5,-463.5 2662.5,-501.5 3388.5,-501.5 3388.5,-463.5 2662.5,-463.5"/>
<text text-anchor="start" x="2670.5" y="-486.3" font-family="monospace" font-size="14.00">EX_LocalFinalFunction export UI_FocusableCanvas_C&#45;&gt;ExecuteUbergraph_UI_FocusableCanvas</text>
<text text-anchor="start" x="2670.5" y="-471.3" font-family="monospace" font-size="14.00">  EX_IntConst 36</text>
</g>
<!-- Construct&#45;&gt;Construct__0 -->
<g id="edge26" class="edge">
<title>Construct&#45;&gt;Construct__0</title>
<path fill="none" stroke="black" d="M3025.5,-622.06C3025.5,-595.82 3025.5,-545 3025.5,-512.74"/>
<polygon fill="black" stroke="black" points="3029,-512.88 3025.5,-502.88 3022,-512.88 3029,-512.88"/>
</g>
<!-- Construct__0&#45;&gt;ExecuteUbergraph_UI_FocusableCanvas__36 -->
<g id="edge27" class="edge">
<title>Construct__0:e&#45;&gt;ExecuteUbergraph_UI_FocusableCanvas__36</title>
<path fill="none" stroke="red" d="M3389.5,-482.5C3414.53,-482.5 3410,-449.63 3401.89,-422.25"/>
<polygon fill="none" stroke="red" points="3405.25,-421.25 3398.87,-412.8 3398.58,-423.39 3405.25,-421.25"/>
</g>
<!-- Construct__15 -->
<g id="node39" class="node">
<title>Construct__15</title>
<polygon fill="#eeeeee" stroke="black" points="2967.5,-366 2967.5,-404 3083.5,-404 3083.5,-366 2967.5,-366"/>
<text text-anchor="start" x="2975.5" y="-388.8" font-family="monospace" font-size="14.00">EX_Return</text>
<text text-anchor="start" x="2975.5" y="-373.8" font-family="monospace" font-size="14.00">  EX_Nothing</text>
</g>
<!-- Construct__0&#45;&gt;Construct__15 -->
<g id="edge28" class="edge">
<title>Construct__0&#45;&gt;Construct__15</title>
<path fill="none" stroke="black" d="M3025.5,-463.54C3025.5,-449.93 3025.5,-430.95 3025.5,-415.18"/>
<polygon fill="black" stroke="black" points="3029,-415.4 3025.5,-405.4 3022,-415.4 3029,-415.4"/>
</g>
<!-- Construct__17 -->
<g id="node40" class="node">
<title>Construct__17</title>
<polygon fill="#eeeeee" stroke="black" points="6445.5,-622 6445.5,-658 6577.5,-658 6577.5,-622 6445.5,-622"/>
<text text-anchor="start" x="6453.5" y="-636.3" font-family="monospace" font-size="14.00">EX_EndOfScript</text>
</g>
<!-- OnFocusReceived -->
<g id="node41" class="node">
<title>OnFocusReceived</title>
<polygon fill="#ff8888" stroke="black" points="6595.5,-576 6595.5,-704 7065.5,-704 7065.5,-576 6595.5,-576"/>
<text text-anchor="start" x="6603.5" y="-688.8" font-family="monospace" font-size="14.00">Function OnFocusReceived</text>
<text text-anchor="start" x="6603.5" y="-673.8" font-family="monospace" font-size="14.00">  StructProperty MyGeometry</text>
<text text-anchor="start" x="6603.5" y="-658.8" font-family="monospace" font-size="14.00">    CPF_BlueprintVisible|CPF_BlueprintReadOnly|CPF_Parm</text>
<text text-anchor="start" x="6603.5" y="-643.8" font-family="monospace" font-size="14.00">  StructProperty InFocusEvent</text>
<text text-anchor="start" x="6603.5" y="-628.8" font-family="monospace" font-size="14.00">    CPF_BlueprintVisible|CPF_BlueprintReadOnly|CPF_Parm</text>
<text text-anchor="start" x="6603.5" y="-613.8" font-family="monospace" font-size="14.00">  StructProperty ReturnValue</text>
<text text-anchor="start" x="6603.5" y="-598.8" font-family="monospace" font-size="14.00">    CPF_Parm|CPF_OutParm|CPF_ReturnParm</text>
<text text-anchor="start" x="6603.5" y="-583.8" font-family="monospace" font-size="14.00">  StructProperty CallFunc_Unhandled_ReturnValue</text>
</g>
<!-- OnFocusReceived__0 -->
<g id="node42" class="node">
<title>OnFocusReceived__0</title>
<polygon fill="#eeeeee" stroke="black" points="6463.5,-448.5 6463.5,-516.5 7197.5,-516.5 7197.5,-448.5 6463.5,-448.5"/>
<text text-anchor="start" x="6471.5" y="-501.3" font-family="monospace" font-size="14.00">EX_CallMulticastDelegate export UI_FocusableCanvas_C&#45;&gt;OnFocusChanged__DelegateSignature</text>
<text text-anchor="start" x="6471.5" y="-486.3" font-family="monospace" font-size="14.00">  EX_InstanceVariable [OnFocusChanged]</text>
<text text-anchor="start" x="6471.5" y="-471.3" font-family="monospace" font-size="14.00">  EX_Self</text>
<text text-anchor="start" x="6471.5" y="-456.3" font-family="monospace" font-size="14.00">  EX_True</text>
</g>
<!-- OnFocusReceived&#45;&gt;OnFocusReceived__0 -->
<g id="edge29" class="edge">
<title>OnFocusReceived&#45;&gt;OnFocusReceived__0</title>
<path fill="none" stroke="black" d="M6830.5,-576.2C6830.5,-559.81 6830.5,-542.5 6830.5,-527.33"/>
<polygon fill="black" stroke="black" points="6834,-527.72 6830.5,-517.72 6827,-527.72 6834,-527.72"/>
</g>
<!-- OnFocusReceived__21 -->
<g id="node43" class="node">
<title>OnFocusReceived__21</title>
<polygon fill="#eeeeee" stroke="black" points="6546,-358.5 6546,-411.5 7115,-411.5 7115,-358.5 6546,-358.5"/>
<text text-anchor="start" x="6554" y="-396.3" font-family="monospace" font-size="14.00">EX_Let</text>
<text text-anchor="start" x="6554" y="-381.3" font-family="monospace" font-size="14.00">  EX_LocalVariable [CallFunc_Unhandled_ReturnValue]</text>
<text text-anchor="start" x="6554" y="-366.3" font-family="monospace" font-size="14.00">  EX_CallMath import /Script/UMG&#45;&gt;WidgetBlueprintLibrary&#45;&gt;Unhandled</text>
</g>
<!-- OnFocusReceived__0&#45;&gt;OnFocusReceived__21 -->
<g id="edge30" class="edge">
<title>OnFocusReceived__0&#45;&gt;OnFocusReceived__21</title>
<path fill="none" stroke="black" d="M6830.5,-448.63C6830.5,-440.25 6830.5,-431.19 6830.5,-422.63"/>
<polygon fill="black" stroke="black" points="6834,-422.9 6830.5,-412.9 6827,-422.9 6834,-422.9"/>
</g>
<!-- OnFocusReceived__49 -->
<g id="node44" class="node">
<title>OnFocusReceived__49</title>
<polygon fill="#eeeeee" stroke="black" points="6612,-253.5 6612,-321.5 7049,-321.5 7049,-253.5 6612,-253.5"/>
<text text-anchor="start" x="6620" y="-306.3" font-family="monospace" font-size="14.00">EX_Let</text>
<text text-anchor="start" x="6620" y="-291.3" font-family="monospace" font-size="14.00">  EX_LocalOutVariable</text>
<text text-anchor="start" x="6620" y="-276.3" font-family="monospace" font-size="14.00">    [ReturnValue]</text>
<text text-anchor="start" x="6620" y="-261.3" font-family="monospace" font-size="14.00">  EX_LocalVariable [CallFunc_Unhandled_ReturnValue]</text>
</g>
<!-- OnFocusReceived__21&#45;&gt;OnFocusReceived__49 -->
<g id="edge31" class="edge">
<title>OnFocusReceived__21&#45;&gt;OnFocusReceived__49</title>
<path fill="none" stroke="black" d="M6830.5,-358.66C6830.5,-350.67 6830.5,-341.59 6830.5,-332.68"/>
<polygon fill="black" stroke="black" points="6834,-332.69 6830.5,-322.69 6827,-332.69 6834,-332.69"/>
</g>
<!-- OnFocusReceived__76 -->
<g id="node45" class="node">
<title>OnFocusReceived__76</title>
<polygon fill="#eeeeee" stroke="black" points="6735.5,-156 6735.5,-209 6925.5,-209 6925.5,-156 6735.5,-156"/>
<text text-anchor="start" x="6743.5" y="-193.8" font-family="monospace" font-size="14.00">EX_Return</text>
<text text-anchor="start" x="6743.5" y="-178.8" font-family="monospace" font-size="14.00">  EX_LocalOutVariable</text>
<text text-anchor="start" x="6743.5" y="-163.8" font-family="monospace" font-size="14.00">    [ReturnValue]</text>
</g>
<!-- OnFocusReceived__49&#45;&gt;OnFocusReceived__76 -->
<g id="edge32" class="edge">
<title>OnFocusReceived__49&#45;&gt;OnFocusReceived__76</title>
<path fill="none" stroke="black" d="M6830.5,-253.63C6830.5,-242.99 6830.5,-231.13 6830.5,-220.23"/>
<polygon fill="black" stroke="black" points="6834,-220.4 6830.5,-210.4 6827,-220.4 6834,-220.4"/>
</g>
<!-- OnFocusReceived__86 -->
<g id="node46" class="node">
<title>OnFocusReceived__86</title>
<polygon fill="#eeeeee" stroke="black" points="7083.5,-622 7083.5,-658 7215.5,-658 7215.5,-622 7083.5,-622"/>
<text text-anchor="start" x="7091.5" y="-636.3" font-family="monospace" font-size="14.00">EX_EndOfScript</text>
</g>
</g>
</svg>
