<?xml version="1.0" encoding="UTF-8" standalone="no"?>
<!DOCTYPE svg PUBLIC "-//W3C//DTD SVG 1.1//EN"
 "http://www.w3.org/Graphics/SVG/1.1/DTD/svg11.dtd">
<!-- Generated by graphviz version 7.0.1 (0)
 -->
<!-- Pages: 1 -->
<svg width="4122pt" height="2394pt"
 viewBox="0.00 0.00 4121.50 2394.00" xmlns="http://www.w3.org/2000/svg" xmlns:xlink="http://www.w3.org/1999/xlink">
<g id="graph0" class="graph" transform="scale(1 1) rotate(0) translate(4 2390)">
<polygon fill="white" stroke="none" points="-4,4 -4,-2390 4117.5,-2390 4117.5,4 -4,4"/>
<!-- Announcement_Label_C -->
<g id="node1" class="node">
<title>Announcement_Label_C</title>
<polygon fill="#88ff88" stroke="black" points="0,-2032.5 0,-2385.5 850,-2385.5 850,-2032.5 0,-2032.5"/>
<text text-anchor="start" x="8" y="-2370.3" font-family="monospace" font-size="14.00">ClassExport: Announcement_Label_C</text>
<text text-anchor="start" x="8" y="-2355.3" font-family="monospace" font-size="14.00">  SuperStruct: import /Script/UMG&#45;&gt;UserWidget</text>
<text text-anchor="start" x="8" y="-2340.3" font-family="monospace" font-size="14.00">  Properties:</text>
<text text-anchor="start" x="8" y="-2325.3" font-family="monospace" font-size="14.00">    StructProperty UberGraphFrame</text>
<text text-anchor="start" x="8" y="-2310.3" font-family="monospace" font-size="14.00">      CPF_Transient|CPF_DuplicateTransient</text>
<text text-anchor="start" x="8" y="-2295.3" font-family="monospace" font-size="14.00">    ObjectProperty AnnounceAnim</text>
<text text-anchor="start" x="8" y="-2280.3" font-family="monospace" font-size="14.00">      CPF_BlueprintVisible|CPF_BlueprintReadOnly|CPF_Transient|CPF_RepSkip</text>
<text text-anchor="start" x="8" y="-2265.3" font-family="monospace" font-size="14.00">    ObjectProperty Icon</text>
<text text-anchor="start" x="8" y="-2250.3" font-family="monospace" font-size="14.00">      CPF_BlueprintVisible|CPF_ExportObject|CPF_InstancedReference|CPF_RepSkip|CPF_PersistentInstance</text>
<text text-anchor="start" x="8" y="-2235.3" font-family="monospace" font-size="14.00">    ObjectProperty Label</text>
<text text-anchor="start" x="8" y="-2220.3" font-family="monospace" font-size="14.00">      CPF_BlueprintVisible|CPF_ExportObject|CPF_InstancedReference|CPF_RepSkip|CPF_PersistentInstance</text>
<text text-anchor="start" x="8" y="-2205.3" font-family="monospace" font-size="14.00">    ObjectProperty Root</text>
<text text-anchor="start" x="8" y="-2190.3" font-family="monospace" font-size="14.00">      CPF_BlueprintVisible|CPF_ExportObject|CPF_InstancedReference|CPF_RepSkip|CPF_PersistentInstance</text>
<text text-anchor="start" x="8" y="-2175.3" font-family="monospace" font-size="14.00">    TextProperty Text</text>
<text text-anchor="start" x="8" y="-2160.3" font-family="monospace" font-size="14.00">      CPF_Edit|CPF_BlueprintVisible|CPF_ExposeOnSpawn</text>
<text text-anchor="start" x="8" y="-2145.3" font-family="monospace" font-size="14.00">    StructProperty TextColor</text>
<text text-anchor="start" x="8" y="-2130.3" font-family="monospace" font-size="14.00">      CPF_Edit|CPF_BlueprintVisible|CPF_ExposeOnSpawn</text>
<text text-anchor="start" x="8" y="-2115.3" font-family="monospace" font-size="14.00">    ObjectProperty IconTexture</text>
<text text-anchor="start" x="8" y="-2100.3" font-family="monospace" font-size="14.00">      CPF_Edit|CPF_BlueprintVisible|CPF_ExposeOnSpawn</text>
<text text-anchor="start" x="8" y="-2085.3" font-family="monospace" font-size="14.00">    StructProperty Icon Tint</text>
<text text-anchor="start" x="8" y="-2070.3" font-family="monospace" font-size="14.00">      CPF_Edit|CPF_BlueprintVisible|CPF_ExposeOnSpawn</text>
<text text-anchor="start" x="8" y="-2055.3" font-family="monospace" font-size="14.00">    FloatProperty StartDelay</text>
<text text-anchor="start" x="8" y="-2040.3" font-family="monospace" font-size="14.00">      CPF_Edit|CPF_BlueprintVisible|CPF_ExposeOnSpawn</text>
</g>
<!-- ExecuteUbergraph_Announcement_Label -->
<g id="node2" class="node">
<title>ExecuteUbergraph_Announcement_Label</title>
<polygon fill="#ff8888" stroke="black" points="868,-2107.5 868,-2310.5 1338,-2310.5 1338,-2107.5 868,-2107.5"/>
<text text-anchor="start" x="876" y="-2295.3" font-family="monospace" font-size="14.00">Function ExecuteUbergraph_Announcement_Label</text>
<text text-anchor="start" x="876" y="-2280.3" font-family="monospace" font-size="14.00">  IntProperty EntryPoint</text>
<text text-anchor="start" x="876" y="-2265.3" font-family="monospace" font-size="14.00">    CPF_BlueprintVisible|CPF_BlueprintReadOnly|CPF_Parm</text>
<text text-anchor="start" x="876" y="-2250.3" font-family="monospace" font-size="14.00">  BoolProperty Temp_bool_Variable</text>
<text text-anchor="start" x="876" y="-2235.3" font-family="monospace" font-size="14.00">  EnumProperty Temp_byte_Variable</text>
<text text-anchor="start" x="876" y="-2220.3" font-family="monospace" font-size="14.00">  EnumProperty Temp_byte_Variable_1</text>
<text text-anchor="start" x="876" y="-2205.3" font-family="monospace" font-size="14.00">  BoolProperty K2Node_Event_IsDesignTime</text>
<text text-anchor="start" x="876" y="-2190.3" font-family="monospace" font-size="14.00">  DelegateProperty K2Node_CreateDelegate_OutputDelegate</text>
<text text-anchor="start" x="876" y="-2175.3" font-family="monospace" font-size="14.00">  ObjectProperty CallFunc_PlayAnimation_ReturnValue</text>
<text text-anchor="start" x="876" y="-2160.3" font-family="monospace" font-size="14.00">  BoolProperty CallFunc_IsValid_ReturnValue</text>
<text text-anchor="start" x="876" y="-2145.3" font-family="monospace" font-size="14.00">  EnumProperty K2Node_Select_Default</text>
<text text-anchor="start" x="876" y="-2130.3" font-family="monospace" font-size="14.00">  StructProperty CallFunc_MenuColors_OutputColor</text>
<text text-anchor="start" x="876" y="-2115.3" font-family="monospace" font-size="14.00">  StructProperty K2Node_MakeStruct_SlateColor</text>
</g>
<!-- ExecuteUbergraph_Announcement_Label__0 -->
<g id="node3" class="node">
<title>ExecuteUbergraph_Announcement_Label__0</title>
<polygon fill="#eeeeee" stroke="black" points="995.5,-1921.5 995.5,-1957.5 1210.5,-1957.5 1210.5,-1921.5 995.5,-1921.5"/>
<text text-anchor="start" x="1003.5" y="-1935.8" font-family="monospace" font-size="14.00">EX_PushExecutionFlow 682</text>
</g>
<!-- ExecuteUbergraph_Announcement_Label&#45;&gt;ExecuteUbergraph_Announcement_Label__0 -->
<g id="edge1" class="edge">
<title>ExecuteUbergraph_Announcement_Label&#45;&gt;ExecuteUbergraph_Announcement_Label__0</title>
<path fill="none" stroke="black" d="M1103,-2107.63C1103,-2057.94 1103,-2001.68 1103,-1968.75"/>
<polygon fill="black" stroke="black" points="1106.5,-1968.85 1103,-1958.85 1099.5,-1968.85 1106.5,-1968.85"/>
</g>
<!-- ExecuteUbergraph_Announcement_Label__5 -->
<g id="node4" class="node">
<title>ExecuteUbergraph_Announcement_Label__5</title>
<polygon fill="#eeeeee" stroke="black" points="915,-1808.5 915,-1846.5 1187,-1846.5 1187,-1808.5 915,-1808.5"/>
<text text-anchor="start" x="923" y="-1831.3" font-family="monospace" font-size="14.00">EX_ComputedJump</text>
<text text-anchor="start" x="923" y="-1816.3" font-family="monospace" font-size="14.00">  EX_LocalVariable [EntryPoint]</text>
</g>
<!-- ExecuteUbergraph_Announcement_Label__0&#45;&gt;ExecuteUbergraph_Announcement_Label__5 -->
<g id="edge3" class="edge">
<title>ExecuteUbergraph_Announcement_Label__0&#45;&gt;ExecuteUbergraph_Announcement_Label__5</title>
<path fill="none" stroke="black" d="M1095.1,-1921.79C1086.96,-1904.57 1074.12,-1877.41 1064.39,-1856.83"/>
<polygon fill="black" stroke="black" points="1067.58,-1855.38 1060.14,-1847.83 1061.25,-1858.37 1067.58,-1855.38"/>
</g>
<!-- ExecuteUbergraph_Announcement_Label__682 -->
<g id="node28" class="node">
<title>ExecuteUbergraph_Announcement_Label__682</title>
<polygon fill="#eeeeee" stroke="black" points="1205,-1808.5 1205,-1846.5 1321,-1846.5 1321,-1808.5 1205,-1808.5"/>
<text text-anchor="start" x="1213" y="-1831.3" font-family="monospace" font-size="14.00">EX_Return</text>
<text text-anchor="start" x="1213" y="-1816.3" font-family="monospace" font-size="14.00">  EX_Nothing</text>
</g>
<!-- ExecuteUbergraph_Announcement_Label__0&#45;&gt;ExecuteUbergraph_Announcement_Label__682 -->
<g id="edge2" class="edge">
<title>ExecuteUbergraph_Announcement_Label__0:e&#45;&gt;ExecuteUbergraph_Announcement_Label__682</title>
<path fill="none" stroke="red" d="M1212,-1939.5C1221.37,-1939.5 1216.23,-1928.58 1220,-1920 1229.47,-1898.48 1240.8,-1874.42 1249.45,-1856.38"/>
<polygon fill="none" stroke="red" points="1252.49,-1858.15 1253.67,-1847.63 1246.18,-1855.12 1252.49,-1858.15"/>
<text text-anchor="middle" x="1286.5" y="-1879.8" font-family="monospace" font-size="14.00">PUSH STACK</text>
</g>
<!-- ExecuteUbergraph_Announcement_Label__15 -->
<g id="node5" class="node">
<title>ExecuteUbergraph_Announcement_Label__15</title>
<polygon fill="#eeeeee" stroke="black" points="1802.5,-1809.5 1802.5,-1845.5 2107.5,-1845.5 2107.5,-1809.5 1802.5,-1809.5"/>
<text text-anchor="start" x="1810.5" y="-1823.8" font-family="monospace" font-size="14.00">EX_VirtualFunction RemoveFromParent</text>
</g>
<!-- ExecuteUbergraph_Announcement_Label__29 -->
<g id="node6" class="node">
<title>ExecuteUbergraph_Announcement_Label__29</title>
<polygon fill="#eeeeee" stroke="black" points="1868.5,-1652.5 1868.5,-1688.5 2041.5,-1688.5 2041.5,-1652.5 1868.5,-1652.5"/>
<text text-anchor="start" x="1876.5" y="-1666.8" font-family="monospace" font-size="14.00">EX_PopExecutionFlow</text>
</g>
<!-- ExecuteUbergraph_Announcement_Label__15&#45;&gt;ExecuteUbergraph_Announcement_Label__29 -->
<g id="edge4" class="edge">
<title>ExecuteUbergraph_Announcement_Label__15&#45;&gt;ExecuteUbergraph_Announcement_Label__29</title>
<path fill="none" stroke="black" d="M1955,-1809.62C1955,-1783.18 1955,-1731.72 1955,-1699.62"/>
<polygon fill="black" stroke="black" points="1958.5,-1699.88 1955,-1689.88 1951.5,-1699.88 1958.5,-1699.88"/>
</g>
<!-- ExecuteUbergraph_Announcement_Label__30 -->
<g id="node7" class="node">
<title>ExecuteUbergraph_Announcement_Label__30</title>
<polygon fill="#eeeeee" stroke="black" points="2773,-1457 2773,-1495 3293,-1495 3293,-1457 2773,-1457"/>
<text text-anchor="start" x="2781" y="-1479.8" font-family="monospace" font-size="14.00">EX_FinalFunction import /Script/UMG&#45;&gt;Widget&#45;&gt;SetRenderOpacity</text>
<text text-anchor="start" x="2781" y="-1464.8" font-family="monospace" font-size="14.00">  EX_FloatConst 1</text>
</g>
<!-- ExecuteUbergraph_Announcement_Label__45 -->
<g id="node8" class="node">
<title>ExecuteUbergraph_Announcement_Label__45</title>
<polygon fill="#eeeeee" stroke="black" points="2760.5,-1238.5 2760.5,-1381.5 3305.5,-1381.5 3305.5,-1238.5 2760.5,-1238.5"/>
<text text-anchor="start" x="2768.5" y="-1366.3" font-family="monospace" font-size="14.00">EX_LetObj</text>
<text text-anchor="start" x="2768.5" y="-1351.3" font-family="monospace" font-size="14.00">  EX_LocalVariable [CallFunc_PlayAnimation_ReturnValue]</text>
<text text-anchor="start" x="2768.5" y="-1336.3" font-family="monospace" font-size="14.00">  EX_FinalFunction import /Script/UMG&#45;&gt;UserWidget&#45;&gt;PlayAnimation</text>
<text text-anchor="start" x="2768.5" y="-1321.3" font-family="monospace" font-size="14.00">    EX_InstanceVariable [AnnounceAnim]</text>
<text text-anchor="start" x="2768.5" y="-1306.3" font-family="monospace" font-size="14.00">    EX_FloatConst 0</text>
<text text-anchor="start" x="2768.5" y="-1291.3" font-family="monospace" font-size="14.00">    EX_IntConst 1</text>
<text text-anchor="start" x="2768.5" y="-1276.3" font-family="monospace" font-size="14.00">    EX_ByteConst 0</text>
<text text-anchor="start" x="2768.5" y="-1261.3" font-family="monospace" font-size="14.00">    EX_FloatConst 0.5</text>
<text text-anchor="start" x="2768.5" y="-1246.3" font-family="monospace" font-size="14.00">    EX_False</text>
</g>
<!-- ExecuteUbergraph_Announcement_Label__30&#45;&gt;ExecuteUbergraph_Announcement_Label__45 -->
<g id="edge5" class="edge">
<title>ExecuteUbergraph_Announcement_Label__30&#45;&gt;ExecuteUbergraph_Announcement_Label__45</title>
<path fill="none" stroke="black" d="M3033,-1457.14C3033,-1441.3 3033,-1416.97 3033,-1392.68"/>
<polygon fill="black" stroke="black" points="3036.5,-1392.69 3033,-1382.69 3029.5,-1392.69 3036.5,-1392.69"/>
</g>
<!-- ExecuteUbergraph_Announcement_Label__92 -->
<g id="node9" class="node">
<title>ExecuteUbergraph_Announcement_Label__92</title>
<polygon fill="#eeeeee" stroke="black" points="2789.5,-1140 2789.5,-1193 3276.5,-1193 3276.5,-1140 2789.5,-1140"/>
<text text-anchor="start" x="2797.5" y="-1177.8" font-family="monospace" font-size="14.00">EX_BindDelegate OnAnnounceAnimFinished</text>
<text text-anchor="start" x="2797.5" y="-1162.8" font-family="monospace" font-size="14.00">  EX_LocalVariable [K2Node_CreateDelegate_OutputDelegate]</text>
<text text-anchor="start" x="2797.5" y="-1147.8" font-family="monospace" font-size="14.00">  EX_Self</text>
</g>
<!-- ExecuteUbergraph_Announcement_Label__45&#45;&gt;ExecuteUbergraph_Announcement_Label__92 -->
<g id="edge6" class="edge">
<title>ExecuteUbergraph_Announcement_Label__45&#45;&gt;ExecuteUbergraph_Announcement_Label__92</title>
<path fill="none" stroke="black" d="M3033,-1238.66C3033,-1226.77 3033,-1214.86 3033,-1204.28"/>
<polygon fill="black" stroke="black" points="3036.5,-1204.49 3033,-1194.49 3029.5,-1204.49 3036.5,-1204.49"/>
</g>
<!-- ExecuteUbergraph_Announcement_Label__115 -->
<g id="node10" class="node">
<title>ExecuteUbergraph_Announcement_Label__115</title>
<polygon fill="#eeeeee" stroke="black" points="2727.5,-1026.5 2727.5,-1079.5 3338.5,-1079.5 3338.5,-1026.5 2727.5,-1026.5"/>
<text text-anchor="start" x="2735.5" y="-1064.3" font-family="monospace" font-size="14.00">EX_FinalFunction import /Script/UMG&#45;&gt;UserWidget&#45;&gt;BindToAnimationFinished</text>
<text text-anchor="start" x="2735.5" y="-1049.3" font-family="monospace" font-size="14.00">  EX_InstanceVariable [AnnounceAnim]</text>
<text text-anchor="start" x="2735.5" y="-1034.3" font-family="monospace" font-size="14.00">  EX_LocalVariable [K2Node_CreateDelegate_OutputDelegate]</text>
</g>
<!-- ExecuteUbergraph_Announcement_Label__92&#45;&gt;ExecuteUbergraph_Announcement_Label__115 -->
<g id="edge7" class="edge">
<title>ExecuteUbergraph_Announcement_Label__92&#45;&gt;ExecuteUbergraph_Announcement_Label__115</title>
<path fill="none" stroke="black" d="M3033,-1140.2C3033,-1125.52 3033,-1106.77 3033,-1090.51"/>
<polygon fill="black" stroke="black" points="3036.5,-1090.71 3033,-1080.71 3029.5,-1090.71 3036.5,-1090.71"/>
</g>
<!-- ExecuteUbergraph_Announcement_Label__143 -->
<g id="node11" class="node">
<title>ExecuteUbergraph_Announcement_Label__143</title>
<polygon fill="#eeeeee" stroke="black" points="2946.5,-906.5 2946.5,-942.5 3119.5,-942.5 3119.5,-906.5 2946.5,-906.5"/>
<text text-anchor="start" x="2954.5" y="-920.8" font-family="monospace" font-size="14.00">EX_PopExecutionFlow</text>
</g>
<!-- ExecuteUbergraph_Announcement_Label__115&#45;&gt;ExecuteUbergraph_Announcement_Label__143 -->
<g id="edge8" class="edge">
<title>ExecuteUbergraph_Announcement_Label__115&#45;&gt;ExecuteUbergraph_Announcement_Label__143</title>
<path fill="none" stroke="black" d="M3033,-1026.7C3033,-1005.63 3033,-975.64 3033,-953.78"/>
<polygon fill="black" stroke="black" points="3036.5,-953.79 3033,-943.79 3029.5,-953.79 3036.5,-953.79"/>
</g>
<!-- ExecuteUbergraph_Announcement_Label__144 -->
<g id="node12" class="node">
<title>ExecuteUbergraph_Announcement_Label__144</title>
<polygon fill="#eeeeee" stroke="black" points="3602,-1629 3602,-1712 3866,-1712 3866,-1629 3602,-1629"/>
<text text-anchor="start" x="3610" y="-1696.8" font-family="monospace" font-size="14.00">EX_Context</text>
<text text-anchor="start" x="3610" y="-1681.8" font-family="monospace" font-size="14.00">  EX_InstanceVariable [Label]</text>
<text text-anchor="start" x="3610" y="-1666.8" font-family="monospace" font-size="14.00">  EX_VirtualFunction SetText</text>
<text text-anchor="start" x="3610" y="-1651.8" font-family="monospace" font-size="14.00">    EX_InstanceVariable [Text]</text>
<text text-anchor="start" x="3610" y="-1636.8" font-family="monospace" font-size="14.00">  RValue = []</text>
</g>
<!-- ExecuteUbergraph_Announcement_Label__189 -->
<g id="node13" class="node">
<title>ExecuteUbergraph_Announcement_Label__189</title>
<polygon fill="#eeeeee" stroke="black" points="3354.5,-1419.5 3354.5,-1532.5 4113.5,-1532.5 4113.5,-1419.5 3354.5,-1419.5"/>
<text text-anchor="start" x="3362.5" y="-1517.3" font-family="monospace" font-size="14.00">EX_Context</text>
<text text-anchor="start" x="3362.5" y="-1502.3" font-family="monospace" font-size="14.00">  EX_ObjectConst import /Game/UI/Art/WidgetParts/LIB_MenuColors&#45;&gt;Default__LIB_MenuColors_C</text>
<text text-anchor="start" x="3362.5" y="-1487.3" font-family="monospace" font-size="14.00">  EX_LocalVirtualFunction MenuColors</text>
<text text-anchor="start" x="3362.5" y="-1472.3" font-family="monospace" font-size="14.00">    EX_ByteConst 4</text>
<text text-anchor="start" x="3362.5" y="-1457.3" font-family="monospace" font-size="14.00">    EX_Self</text>
<text text-anchor="start" x="3362.5" y="-1442.3" font-family="monospace" font-size="14.00">    EX_LocalVariable [CallFunc_MenuColors_OutputColor]</text>
<text text-anchor="start" x="3362.5" y="-1427.3" font-family="monospace" font-size="14.00">  RValue = []</text>
</g>
<!-- ExecuteUbergraph_Announcement_Label__144&#45;&gt;ExecuteUbergraph_Announcement_Label__189 -->
<g id="edge9" class="edge">
<title>ExecuteUbergraph_Announcement_Label__144&#45;&gt;ExecuteUbergraph_Announcement_Label__189</title>
<path fill="none" stroke="black" d="M3734,-1629.15C3734,-1604.44 3734,-1572.21 3734,-1543.77"/>
<polygon fill="black" stroke="black" points="3737.5,-1543.78 3734,-1533.78 3730.5,-1543.78 3737.5,-1543.78"/>
</g>
<!-- ExecuteUbergraph_Announcement_Label__237 -->
<g id="node14" class="node">
<title>ExecuteUbergraph_Announcement_Label__237</title>
<polygon fill="#eeeeee" stroke="black" points="3511,-1276 3511,-1344 3957,-1344 3957,-1276 3511,-1276"/>
<text text-anchor="start" x="3519" y="-1328.8" font-family="monospace" font-size="14.00">EX_Let</text>
<text text-anchor="start" x="3519" y="-1313.8" font-family="monospace" font-size="14.00">  EX_StructMemberContext [SpecifiedColor]</text>
<text text-anchor="start" x="3519" y="-1298.8" font-family="monospace" font-size="14.00">    EX_LocalVariable [K2Node_MakeStruct_SlateColor]</text>
<text text-anchor="start" x="3519" y="-1283.8" font-family="monospace" font-size="14.00">  EX_LocalVariable [CallFunc_MenuColors_OutputColor]</text>
</g>
<!-- ExecuteUbergraph_Announcement_Label__189&#45;&gt;ExecuteUbergraph_Announcement_Label__237 -->
<g id="edge10" class="edge">
<title>ExecuteUbergraph_Announcement_Label__189&#45;&gt;ExecuteUbergraph_Announcement_Label__237</title>
<path fill="none" stroke="black" d="M3734,-1419.93C3734,-1398.78 3734,-1374.93 3734,-1354.95"/>
<polygon fill="black" stroke="black" points="3737.5,-1355.2 3734,-1345.2 3730.5,-1355.2 3737.5,-1355.2"/>
</g>
<!-- ExecuteUbergraph_Announcement_Label__273 -->
<g id="node15" class="node">
<title>ExecuteUbergraph_Announcement_Label__273</title>
<polygon fill="#eeeeee" stroke="black" points="3515.5,-1132.5 3515.5,-1200.5 3952.5,-1200.5 3952.5,-1132.5 3515.5,-1132.5"/>
<text text-anchor="start" x="3523.5" y="-1185.3" font-family="monospace" font-size="14.00">EX_Let</text>
<text text-anchor="start" x="3523.5" y="-1170.3" font-family="monospace" font-size="14.00">  EX_StructMemberContext [ColorUseRule]</text>
<text text-anchor="start" x="3523.5" y="-1155.3" font-family="monospace" font-size="14.00">    EX_LocalVariable [K2Node_MakeStruct_SlateColor]</text>
<text text-anchor="start" x="3523.5" y="-1140.3" font-family="monospace" font-size="14.00">  EX_ByteConst 0</text>
</g>
<!-- ExecuteUbergraph_Announcement_Label__237&#45;&gt;ExecuteUbergraph_Announcement_Label__273 -->
<g id="edge11" class="edge">
<title>ExecuteUbergraph_Announcement_Label__237&#45;&gt;ExecuteUbergraph_Announcement_Label__273</title>
<path fill="none" stroke="black" d="M3734,-1276.18C3734,-1256.98 3734,-1232.49 3734,-1211.62"/>
<polygon fill="black" stroke="black" points="3737.5,-1211.65 3734,-1201.65 3730.5,-1211.65 3737.5,-1211.65"/>
</g>
<!-- ExecuteUbergraph_Announcement_Label__302 -->
<g id="node16" class="node">
<title>ExecuteUbergraph_Announcement_Label__302</title>
<polygon fill="#eeeeee" stroke="black" points="3445,-1011.5 3445,-1094.5 4023,-1094.5 4023,-1011.5 3445,-1011.5"/>
<text text-anchor="start" x="3453" y="-1079.3" font-family="monospace" font-size="14.00">EX_Context</text>
<text text-anchor="start" x="3453" y="-1064.3" font-family="monospace" font-size="14.00">  EX_InstanceVariable [Label]</text>
<text text-anchor="start" x="3453" y="-1049.3" font-family="monospace" font-size="14.00">  EX_FinalFunction import /Script/UMG&#45;&gt;TextBlock&#45;&gt;SetColorAndOpacity</text>
<text text-anchor="start" x="3453" y="-1034.3" font-family="monospace" font-size="14.00">    EX_LocalVariable [K2Node_MakeStruct_SlateColor]</text>
<text text-anchor="start" x="3453" y="-1019.3" font-family="monospace" font-size="14.00">  RValue = []</text>
</g>
<!-- ExecuteUbergraph_Announcement_Label__273&#45;&gt;ExecuteUbergraph_Announcement_Label__302 -->
<g id="edge12" class="edge">
<title>ExecuteUbergraph_Announcement_Label__273&#45;&gt;ExecuteUbergraph_Announcement_Label__302</title>
<path fill="none" stroke="black" d="M3734,-1132.65C3734,-1124.16 3734,-1114.81 3734,-1105.61"/>
<polygon fill="black" stroke="black" points="3737.5,-1105.63 3734,-1095.63 3730.5,-1105.63 3737.5,-1105.63"/>
</g>
<!-- ExecuteUbergraph_Announcement_Label__343 -->
<g id="node17" class="node">
<title>ExecuteUbergraph_Announcement_Label__343</title>
<polygon fill="#eeeeee" stroke="black" points="3560.5,-875.5 3560.5,-973.5 3907.5,-973.5 3907.5,-875.5 3560.5,-875.5"/>
<text text-anchor="start" x="3568.5" y="-958.3" font-family="monospace" font-size="14.00">EX_Context</text>
<text text-anchor="start" x="3568.5" y="-943.3" font-family="monospace" font-size="14.00">  EX_InstanceVariable [Icon]</text>
<text text-anchor="start" x="3568.5" y="-928.3" font-family="monospace" font-size="14.00">  EX_VirtualFunction SetBrushFromTexture</text>
<text text-anchor="start" x="3568.5" y="-913.3" font-family="monospace" font-size="14.00">    EX_InstanceVariable [IconTexture]</text>
<text text-anchor="start" x="3568.5" y="-898.3" font-family="monospace" font-size="14.00">    EX_False</text>
<text text-anchor="start" x="3568.5" y="-883.3" font-family="monospace" font-size="14.00">  RValue = []</text>
</g>
<!-- ExecuteUbergraph_Announcement_Label__302&#45;&gt;ExecuteUbergraph_Announcement_Label__343 -->
<g id="edge13" class="edge">
<title>ExecuteUbergraph_Announcement_Label__302&#45;&gt;ExecuteUbergraph_Announcement_Label__343</title>
<path fill="none" stroke="black" d="M3734,-1011.63C3734,-1003.09 3734,-993.9 3734,-984.82"/>
<polygon fill="black" stroke="black" points="3737.5,-984.96 3734,-974.96 3730.5,-984.96 3737.5,-984.96"/>
</g>
<!-- ExecuteUbergraph_Announcement_Label__389 -->
<g id="node18" class="node">
<title>ExecuteUbergraph_Announcement_Label__389</title>
<polygon fill="#eeeeee" stroke="black" points="3461.5,-754.5 3461.5,-837.5 4006.5,-837.5 4006.5,-754.5 3461.5,-754.5"/>
<text text-anchor="start" x="3469.5" y="-822.3" font-family="monospace" font-size="14.00">EX_Context</text>
<text text-anchor="start" x="3469.5" y="-807.3" font-family="monospace" font-size="14.00">  EX_InstanceVariable [Icon]</text>
<text text-anchor="start" x="3469.5" y="-792.3" font-family="monospace" font-size="14.00">  EX_FinalFunction import /Script/UMG&#45;&gt;Image&#45;&gt;SetColorAndOpacity</text>
<text text-anchor="start" x="3469.5" y="-777.3" font-family="monospace" font-size="14.00">    EX_InstanceVariable [Icon Tint]</text>
<text text-anchor="start" x="3469.5" y="-762.3" font-family="monospace" font-size="14.00">  RValue = []</text>
</g>
<!-- ExecuteUbergraph_Announcement_Label__343&#45;&gt;ExecuteUbergraph_Announcement_Label__389 -->
<g id="edge14" class="edge">
<title>ExecuteUbergraph_Announcement_Label__343&#45;&gt;ExecuteUbergraph_Announcement_Label__389</title>
<path fill="none" stroke="black" d="M3734,-875.68C3734,-866.92 3734,-857.74 3734,-848.87"/>
<polygon fill="black" stroke="black" points="3737.5,-848.97 3734,-838.97 3730.5,-848.97 3737.5,-848.97"/>
</g>
<!-- ExecuteUbergraph_Announcement_Label__430 -->
<g id="node19" class="node">
<title>ExecuteUbergraph_Announcement_Label__430</title>
<polygon fill="#eeeeee" stroke="black" points="3565,-663.5 3565,-716.5 3903,-716.5 3903,-663.5 3565,-663.5"/>
<text text-anchor="start" x="3573" y="-701.3" font-family="monospace" font-size="14.00">EX_Let</text>
<text text-anchor="start" x="3573" y="-686.3" font-family="monospace" font-size="14.00">  EX_LocalVariable [Temp_byte_Variable]</text>
<text text-anchor="start" x="3573" y="-671.3" font-family="monospace" font-size="14.00">  EX_ByteConst 4</text>
</g>
<!-- ExecuteUbergraph_Announcement_Label__389&#45;&gt;ExecuteUbergraph_Announcement_Label__430 -->
<g id="edge15" class="edge">
<title>ExecuteUbergraph_Announcement_Label__389&#45;&gt;ExecuteUbergraph_Announcement_Label__430</title>
<path fill="none" stroke="black" d="M3734,-754.79C3734,-745.91 3734,-736.54 3734,-727.81"/>
<polygon fill="black" stroke="black" points="3737.5,-727.9 3734,-717.9 3730.5,-727.9 3737.5,-727.9"/>
</g>
<!-- ExecuteUbergraph_Announcement_Label__450 -->
<g id="node20" class="node">
<title>ExecuteUbergraph_Announcement_Label__450</title>
<polygon fill="#eeeeee" stroke="black" points="3556.5,-572.5 3556.5,-625.5 3911.5,-625.5 3911.5,-572.5 3556.5,-572.5"/>
<text text-anchor="start" x="3564.5" y="-610.3" font-family="monospace" font-size="14.00">EX_Let</text>
<text text-anchor="start" x="3564.5" y="-595.3" font-family="monospace" font-size="14.00">  EX_LocalVariable [Temp_byte_Variable_1]</text>
<text text-anchor="start" x="3564.5" y="-580.3" font-family="monospace" font-size="14.00">  EX_ByteConst 1</text>
</g>
<!-- ExecuteUbergraph_Announcement_Label__430&#45;&gt;ExecuteUbergraph_Announcement_Label__450 -->
<g id="edge16" class="edge">
<title>ExecuteUbergraph_Announcement_Label__430&#45;&gt;ExecuteUbergraph_Announcement_Label__450</title>
<path fill="none" stroke="black" d="M3734,-663.73C3734,-655.37 3734,-645.89 3734,-636.84"/>
<polygon fill="black" stroke="black" points="3737.5,-636.84 3734,-626.84 3730.5,-636.84 3737.5,-636.84"/>
</g>
<!-- ExecuteUbergraph_Announcement_Label__470 -->
<g id="node21" class="node">
<title>ExecuteUbergraph_Announcement_Label__470</title>
<polygon fill="#eeeeee" stroke="black" points="3457.5,-466.5 3457.5,-534.5 4010.5,-534.5 4010.5,-466.5 3457.5,-466.5"/>
<text text-anchor="start" x="3465.5" y="-519.3" font-family="monospace" font-size="14.00">EX_LetBool</text>
<text text-anchor="start" x="3465.5" y="-504.3" font-family="monospace" font-size="14.00">  EX_LocalVariable [CallFunc_IsValid_ReturnValue]</text>
<text text-anchor="start" x="3465.5" y="-489.3" font-family="monospace" font-size="14.00">  EX_CallMath import /Script/Engine&#45;&gt;KismetSystemLibrary&#45;&gt;IsValid</text>
<text text-anchor="start" x="3465.5" y="-474.3" font-family="monospace" font-size="14.00">    EX_InstanceVariable [IconTexture]</text>
</g>
<!-- ExecuteUbergraph_Announcement_Label__450&#45;&gt;ExecuteUbergraph_Announcement_Label__470 -->
<g id="edge17" class="edge">
<title>ExecuteUbergraph_Announcement_Label__450&#45;&gt;ExecuteUbergraph_Announcement_Label__470</title>
<path fill="none" stroke="black" d="M3734,-572.65C3734,-564.4 3734,-554.99 3734,-545.78"/>
<polygon fill="black" stroke="black" points="3737.5,-545.83 3734,-535.83 3730.5,-545.83 3737.5,-545.83"/>
</g>
<!-- ExecuteUbergraph_Announcement_Label__499 -->
<g id="node22" class="node">
<title>ExecuteUbergraph_Announcement_Label__499</title>
<polygon fill="#eeeeee" stroke="black" points="3523.5,-375.5 3523.5,-428.5 3944.5,-428.5 3944.5,-375.5 3523.5,-375.5"/>
<text text-anchor="start" x="3531.5" y="-413.3" font-family="monospace" font-size="14.00">EX_LetBool</text>
<text text-anchor="start" x="3531.5" y="-398.3" font-family="monospace" font-size="14.00">  EX_LocalVariable [Temp_bool_Variable]</text>
<text text-anchor="start" x="3531.5" y="-383.3" font-family="monospace" font-size="14.00">  EX_LocalVariable [CallFunc_IsValid_ReturnValue]</text>
</g>
<!-- ExecuteUbergraph_Announcement_Label__470&#45;&gt;ExecuteUbergraph_Announcement_Label__499 -->
<g id="edge18" class="edge">
<title>ExecuteUbergraph_Announcement_Label__470&#45;&gt;ExecuteUbergraph_Announcement_Label__499</title>
<path fill="none" stroke="black" d="M3734,-466.56C3734,-458 3734,-448.73 3734,-439.97"/>
<polygon fill="black" stroke="black" points="3737.5,-440 3734,-430 3730.5,-440 3737.5,-440"/>
</g>
<!-- ExecuteUbergraph_Announcement_Label__518 -->
<g id="node23" class="node">
<title>ExecuteUbergraph_Announcement_Label__518</title>
<polygon fill="#eeeeee" stroke="black" points="3527.5,-74.5 3527.5,-337.5 3940.5,-337.5 3940.5,-74.5 3527.5,-74.5"/>
<text text-anchor="start" x="3535.5" y="-322.3" font-family="monospace" font-size="14.00">EX_Context</text>
<text text-anchor="start" x="3535.5" y="-307.3" font-family="monospace" font-size="14.00">  EX_InstanceVariable [Icon]</text>
<text text-anchor="start" x="3535.5" y="-292.3" font-family="monospace" font-size="14.00">  EX_VirtualFunction SetVisibility</text>
<text text-anchor="start" x="3535.5" y="-277.3" font-family="monospace" font-size="14.00">    EX_SwitchValue</text>
<text text-anchor="start" x="3535.5" y="-262.3" font-family="monospace" font-size="14.00">      EX_LocalVariable [Temp_bool_Variable]</text>
<text text-anchor="start" x="3535.5" y="-247.3" font-family="monospace" font-size="14.00">      OffsetToSwitchEnd = 606</text>
<text text-anchor="start" x="3535.5" y="-232.3" font-family="monospace" font-size="14.00">      case 0:</text>
<text text-anchor="start" x="3535.5" y="-217.3" font-family="monospace" font-size="14.00">        EX_False</text>
<text text-anchor="start" x="3535.5" y="-202.3" font-family="monospace" font-size="14.00">        NextCaseOffset = 583</text>
<text text-anchor="start" x="3535.5" y="-187.3" font-family="monospace" font-size="14.00">        EX_LocalVariable [Temp_byte_Variable_1]</text>
<text text-anchor="start" x="3535.5" y="-172.3" font-family="monospace" font-size="14.00">      case 1:</text>
<text text-anchor="start" x="3535.5" y="-157.3" font-family="monospace" font-size="14.00">        EX_True</text>
<text text-anchor="start" x="3535.5" y="-142.3" font-family="monospace" font-size="14.00">        NextCaseOffset = 597</text>
<text text-anchor="start" x="3535.5" y="-127.3" font-family="monospace" font-size="14.00">        EX_LocalVariable [Temp_byte_Variable]</text>
<text text-anchor="start" x="3535.5" y="-112.3" font-family="monospace" font-size="14.00">      default:</text>
<text text-anchor="start" x="3535.5" y="-97.3" font-family="monospace" font-size="14.00">        EX_LocalVariable [K2Node_Select_Default]</text>
<text text-anchor="start" x="3535.5" y="-82.3" font-family="monospace" font-size="14.00">  RValue = []</text>
</g>
<!-- ExecuteUbergraph_Announcement_Label__499&#45;&gt;ExecuteUbergraph_Announcement_Label__518 -->
<g id="edge19" class="edge">
<title>ExecuteUbergraph_Announcement_Label__499&#45;&gt;ExecuteUbergraph_Announcement_Label__518</title>
<path fill="none" stroke="black" d="M3734,-375.64C3734,-367.79 3734,-358.54 3734,-348.46"/>
<polygon fill="black" stroke="black" points="3737.5,-348.76 3734,-338.76 3730.5,-348.76 3737.5,-348.76"/>
</g>
<!-- ExecuteUbergraph_Announcement_Label__607 -->
<g id="node24" class="node">
<title>ExecuteUbergraph_Announcement_Label__607</title>
<polygon fill="#eeeeee" stroke="black" points="3647.5,-0.5 3647.5,-36.5 3820.5,-36.5 3820.5,-0.5 3647.5,-0.5"/>
<text text-anchor="start" x="3655.5" y="-14.8" font-family="monospace" font-size="14.00">EX_PopExecutionFlow</text>
</g>
<!-- ExecuteUbergraph_Announcement_Label__518&#45;&gt;ExecuteUbergraph_Announcement_Label__607 -->
<g id="edge20" class="edge">
<title>ExecuteUbergraph_Announcement_Label__518&#45;&gt;ExecuteUbergraph_Announcement_Label__607</title>
<path fill="none" stroke="black" d="M3734,-74.65C3734,-64.82 3734,-55.67 3734,-47.75"/>
<polygon fill="black" stroke="black" points="3737.5,-47.93 3734,-37.93 3730.5,-47.93 3737.5,-47.93"/>
</g>
<!-- ExecuteUbergraph_Announcement_Label__608 -->
<g id="node25" class="node">
<title>ExecuteUbergraph_Announcement_Label__608</title>
<polygon fill="#eeeeee" stroke="black" points="2439,-1808.5 2439,-1846.5 2959,-1846.5 2959,-1808.5 2439,-1808.5"/>
<text text-anchor="start" x="2447" y="-1831.3" font-family="monospace" font-size="14.00">EX_FinalFunction import /Script/UMG&#45;&gt;Widget&#45;&gt;SetRenderOpacity</text>
<text text-anchor="start" x="2447" y="-1816.3" font-family="monospace" font-size="14.00">  EX_FloatConst 0</text>
</g>
<!-- ExecuteUbergraph_Announcement_Label__623 -->
<g id="node26" class="node">
<title>ExecuteUbergraph_Announcement_Label__623</title>
<polygon fill="#eeeeee" stroke="black" points="2439,-1606.5 2439,-1734.5 2959,-1734.5 2959,-1606.5 2439,-1606.5"/>
<text text-anchor="start" x="2447" y="-1719.3" font-family="monospace" font-size="14.00">EX_CallMath import /Script/Engine&#45;&gt;KismetSystemLibrary&#45;&gt;Delay</text>
<text text-anchor="start" x="2447" y="-1704.3" font-family="monospace" font-size="14.00">  EX_Self</text>
<text text-anchor="start" x="2447" y="-1689.3" font-family="monospace" font-size="14.00">  EX_InstanceVariable [StartDelay]</text>
<text text-anchor="start" x="2447" y="-1674.3" font-family="monospace" font-size="14.00">  EX_StructConst import /Script/Engine&#45;&gt;LatentActionInfo</text>
<text text-anchor="start" x="2447" y="-1659.3" font-family="monospace" font-size="14.00">    EX_SkipOffsetConst 30</text>
<text text-anchor="start" x="2447" y="-1644.3" font-family="monospace" font-size="14.00">    EX_IntConst &#45;267817169</text>
<text text-anchor="start" x="2447" y="-1629.3" font-family="monospace" font-size="14.00">    EX_NameConst ExecuteUbergraph_Announcement_Label</text>
<text text-anchor="start" x="2447" y="-1614.3" font-family="monospace" font-size="14.00">    EX_Self</text>
</g>
<!-- ExecuteUbergraph_Announcement_Label__608&#45;&gt;ExecuteUbergraph_Announcement_Label__623 -->
<g id="edge21" class="edge">
<title>ExecuteUbergraph_Announcement_Label__608&#45;&gt;ExecuteUbergraph_Announcement_Label__623</title>
<path fill="none" stroke="black" d="M2699,-1808.72C2699,-1793.07 2699,-1769.18 2699,-1745.69"/>
<polygon fill="black" stroke="black" points="2702.5,-1745.75 2699,-1735.75 2695.5,-1745.75 2702.5,-1745.75"/>
</g>
<!-- ExecuteUbergraph_Announcement_Label__623&#45;&gt;ExecuteUbergraph_Announcement_Label__30 -->
<g id="edge22" class="edge">
<title>ExecuteUbergraph_Announcement_Label__623:e&#45;&gt;ExecuteUbergraph_Announcement_Label__30</title>
<path fill="none" stroke="red" d="M2960,-1670.5C3029.43,-1670.5 3035.62,-1560.09 3034.5,-1506.07"/>
<polygon fill="none" stroke="red" points="3038,-1506.25 3034.19,-1496.37 3031.01,-1506.48 3038,-1506.25"/>
</g>
<!-- ExecuteUbergraph_Announcement_Label__681 -->
<g id="node27" class="node">
<title>ExecuteUbergraph_Announcement_Label__681</title>
<polygon fill="#eeeeee" stroke="black" points="2581.5,-1458 2581.5,-1494 2754.5,-1494 2754.5,-1458 2581.5,-1458"/>
<text text-anchor="start" x="2589.5" y="-1472.3" font-family="monospace" font-size="14.00">EX_PopExecutionFlow</text>
</g>
<!-- ExecuteUbergraph_Announcement_Label__623&#45;&gt;ExecuteUbergraph_Announcement_Label__681 -->
<g id="edge23" class="edge">
<title>ExecuteUbergraph_Announcement_Label__623&#45;&gt;ExecuteUbergraph_Announcement_Label__681</title>
<path fill="none" stroke="black" d="M2688.89,-1606.73C2683.35,-1572.29 2676.75,-1531.31 2672.47,-1504.76"/>
<polygon fill="black" stroke="black" points="2675.97,-1504.46 2670.92,-1495.15 2669.06,-1505.58 2675.97,-1504.46"/>
</g>
<!-- ExecuteUbergraph_Announcement_Label__684 -->
<g id="node29" class="node">
<title>ExecuteUbergraph_Announcement_Label__684</title>
<polygon fill="#eeeeee" stroke="black" points="3386,-1977.5 3386,-2013.5 3518,-2013.5 3518,-1977.5 3386,-1977.5"/>
<text text-anchor="start" x="3394" y="-1991.8" font-family="monospace" font-size="14.00">EX_EndOfScript</text>
</g>
<!-- OnAnnounceAnimFinished -->
<g id="node30" class="node">
<title>OnAnnounceAnimFinished</title>
<polygon fill="#ff8888" stroke="black" points="1456,-2191 1456,-2227 1728,-2227 1728,-2191 1456,-2191"/>
<text text-anchor="start" x="1464" y="-2205.3" font-family="monospace" font-size="14.00">Function OnAnnounceAnimFinished</text>
</g>
<!-- OnAnnounceAnimFinished__0 -->
<g id="node31" class="node">
<title>OnAnnounceAnimFinished__0</title>
<polygon fill="#eeeeee" stroke="black" points="1229,-1920.5 1229,-1958.5 1955,-1958.5 1955,-1920.5 1229,-1920.5"/>
<text text-anchor="start" x="1237" y="-1943.3" font-family="monospace" font-size="14.00">EX_LocalFinalFunction export Announcement_Label_C&#45;&gt;ExecuteUbergraph_Announcement_Label</text>
<text text-anchor="start" x="1237" y="-1928.3" font-family="monospace" font-size="14.00">  EX_IntConst 15</text>
</g>
<!-- OnAnnounceAnimFinished&#45;&gt;OnAnnounceAnimFinished__0 -->
<g id="edge24" class="edge">
<title>OnAnnounceAnimFinished&#45;&gt;OnAnnounceAnimFinished__0</title>
<path fill="none" stroke="black" d="M1592,-2191.27C1592,-2146.83 1592,-2025.45 1592,-1969.48"/>
<polygon fill="black" stroke="black" points="1595.5,-1969.78 1592,-1959.78 1588.5,-1969.78 1595.5,-1969.78"/>
</g>
<!-- OnAnnounceAnimFinished__0&#45;&gt;ExecuteUbergraph_Announcement_Label__15 -->
<g id="edge25" class="edge">
<title>OnAnnounceAnimFinished__0:e&#45;&gt;ExecuteUbergraph_Announcement_Label__15</title>
<path fill="none" stroke="red" d="M1956,-1939.5C1964.28,-1939.5 1960.99,-1889.46 1957.93,-1856.57"/>
<polygon fill="none" stroke="red" points="1961.44,-1856.48 1956.99,-1846.86 1954.48,-1857.16 1961.44,-1856.48"/>
</g>
<!-- OnAnnounceAnimFinished__15 -->
<g id="node32" class="node">
<title>OnAnnounceAnimFinished__15</title>
<polygon fill="#eeeeee" stroke="black" points="1534,-1808.5 1534,-1846.5 1650,-1846.5 1650,-1808.5 1534,-1808.5"/>
<text text-anchor="start" x="1542" y="-1831.3" font-family="monospace" font-size="14.00">EX_Return</text>
<text text-anchor="start" x="1542" y="-1816.3" font-family="monospace" font-size="14.00">  EX_Nothing</text>
</g>
<!-- OnAnnounceAnimFinished__0&#45;&gt;OnAnnounceAnimFinished__15 -->
<g id="edge26" class="edge">
<title>OnAnnounceAnimFinished__0&#45;&gt;OnAnnounceAnimFinished__15</title>
<path fill="none" stroke="black" d="M1592,-1920.83C1592,-1903.85 1592,-1877.88 1592,-1857.81"/>
<polygon fill="black" stroke="black" points="1595.5,-1858.01 1592,-1848.01 1588.5,-1858.01 1595.5,-1858.01"/>
</g>
<!-- OnAnnounceAnimFinished__17 -->
<g id="node33" class="node">
<title>OnAnnounceAnimFinished__17</title>
<polygon fill="#eeeeee" stroke="black" points="3386,-1865.5 3386,-1901.5 3518,-1901.5 3518,-1865.5 3386,-1865.5"/>
<text text-anchor="start" x="3394" y="-1879.8" font-family="monospace" font-size="14.00">EX_EndOfScript</text>
</g>
<!-- Construct -->
<g id="node34" class="node">
<title>Construct</title>
<polygon fill="#ff8888" stroke="black" points="2253.5,-2191 2253.5,-2227 2418.5,-2227 2418.5,-2191 2253.5,-2191"/>
<text text-anchor="start" x="2261.5" y="-2205.3" font-family="monospace" font-size="14.00">Function Construct</text>
</g>
<!-- Construct__0 -->
<g id="node35" class="node">
<title>Construct__0</title>
<polygon fill="#eeeeee" stroke="black" points="1973,-1920.5 1973,-1958.5 2699,-1958.5 2699,-1920.5 1973,-1920.5"/>
<text text-anchor="start" x="1981" y="-1943.3" font-family="monospace" font-size="14.00">EX_LocalFinalFunction export Announcement_Label_C&#45;&gt;ExecuteUbergraph_Announcement_Label</text>
<text text-anchor="start" x="1981" y="-1928.3" font-family="monospace" font-size="14.00">  EX_IntConst 608</text>
</g>
<!-- Construct&#45;&gt;Construct__0 -->
<g id="edge27" class="edge">
<title>Construct&#45;&gt;Construct__0</title>
<path fill="none" stroke="black" d="M2336,-2191.27C2336,-2146.83 2336,-2025.45 2336,-1969.48"/>
<polygon fill="black" stroke="black" points="2339.5,-1969.78 2336,-1959.78 2332.5,-1969.78 2339.5,-1969.78"/>
</g>
<!-- Construct__0&#45;&gt;ExecuteUbergraph_Announcement_Label__608 -->
<g id="edge28" class="edge">
<title>Construct__0:e&#45;&gt;ExecuteUbergraph_Announcement_Label__608</title>
<path fill="none" stroke="red" d="M2700,-1939.5C2733.07,-1939.5 2721.36,-1889.62 2710.04,-1856.74"/>
<polygon fill="none" stroke="red" points="2713.48,-1855.97 2706.79,-1847.76 2706.9,-1858.35 2713.48,-1855.97"/>
</g>
<!-- Construct__15 -->
<g id="node36" class="node">
<title>Construct__15</title>
<polygon fill="#eeeeee" stroke="black" points="2278,-1808.5 2278,-1846.5 2394,-1846.5 2394,-1808.5 2278,-1808.5"/>
<text text-anchor="start" x="2286" y="-1831.3" font-family="monospace" font-size="14.00">EX_Return</text>
<text text-anchor="start" x="2286" y="-1816.3" font-family="monospace" font-size="14.00">  EX_Nothing</text>
</g>
<!-- Construct__0&#45;&gt;Construct__15 -->
<g id="edge29" class="edge">
<title>Construct__0&#45;&gt;Construct__15</title>
<path fill="none" stroke="black" d="M2336,-1920.83C2336,-1903.85 2336,-1877.88 2336,-1857.81"/>
<polygon fill="black" stroke="black" points="2339.5,-1858.01 2336,-1848.01 2332.5,-1858.01 2339.5,-1858.01"/>
</g>
<!-- Construct__17 -->
<g id="node37" class="node">
<title>Construct__17</title>
<polygon fill="#eeeeee" stroke="black" points="3749,-1753.5 3749,-1789.5 3881,-1789.5 3881,-1753.5 3749,-1753.5"/>
<text text-anchor="start" x="3757" y="-1767.8" font-family="monospace" font-size="14.00">EX_EndOfScript</text>
</g>
<!-- PreConstruct -->
<g id="node38" class="node">
<title>PreConstruct</title>
<polygon fill="#ff8888" stroke="black" points="3136,-2182.5 3136,-2235.5 3606,-2235.5 3606,-2182.5 3136,-2182.5"/>
<text text-anchor="start" x="3144" y="-2220.3" font-family="monospace" font-size="14.00">Function PreConstruct</text>
<text text-anchor="start" x="3144" y="-2205.3" font-family="monospace" font-size="14.00">  BoolProperty IsDesignTime</text>
<text text-anchor="start" x="3144" y="-2190.3" font-family="monospace" font-size="14.00">    CPF_BlueprintVisible|CPF_BlueprintReadOnly|CPF_Parm</text>
</g>
<!-- PreConstruct__0 -->
<g id="node39" class="node">
<title>PreConstruct__0</title>
<polygon fill="#eeeeee" stroke="black" points="3131.5,-1920.5 3131.5,-1958.5 3610.5,-1958.5 3610.5,-1920.5 3131.5,-1920.5"/>
<text text-anchor="start" x="3139.5" y="-1943.3" font-family="monospace" font-size="14.00">EX_LetValueOnPersistentFrame [K2Node_Event_IsDesignTime]</text>
<text text-anchor="start" x="3139.5" y="-1928.3" font-family="monospace" font-size="14.00">  EX_LocalVariable [IsDesignTime]</text>
</g>
<!-- PreConstruct&#45;&gt;PreConstruct__0 -->
<g id="edge30" class="edge">
<title>PreConstruct&#45;&gt;PreConstruct__0</title>
<path fill="none" stroke="black" d="M3371,-2182.83C3371,-2133.12 3371,-2022.58 3371,-1969.73"/>
<polygon fill="black" stroke="black" points="3374.5,-1970 3371,-1960 3367.5,-1970 3374.5,-1970"/>
</g>
<!-- PreConstruct__18 -->
<g id="node40" class="node">
<title>PreConstruct__18</title>
<polygon fill="#eeeeee" stroke="black" points="3008,-1808.5 3008,-1846.5 3734,-1846.5 3734,-1808.5 3008,-1808.5"/>
<text text-anchor="start" x="3016" y="-1831.3" font-family="monospace" font-size="14.00">EX_LocalFinalFunction export Announcement_Label_C&#45;&gt;ExecuteUbergraph_Announcement_Label</text>
<text text-anchor="start" x="3016" y="-1816.3" font-family="monospace" font-size="14.00">  EX_IntConst 144</text>
</g>
<!-- PreConstruct__0&#45;&gt;PreConstruct__18 -->
<g id="edge31" class="edge">
<title>PreConstruct__0&#45;&gt;PreConstruct__18</title>
<path fill="none" stroke="black" d="M3371,-1920.83C3371,-1903.85 3371,-1877.88 3371,-1857.81"/>
<polygon fill="black" stroke="black" points="3374.5,-1858.01 3371,-1848.01 3367.5,-1858.01 3374.5,-1858.01"/>
</g>
<!-- PreConstruct__18&#45;&gt;ExecuteUbergraph_Announcement_Label__144 -->
<g id="edge32" class="edge">
<title>PreConstruct__18:e&#45;&gt;ExecuteUbergraph_Announcement_Label__144</title>
<path fill="none" stroke="red" d="M3735,-1827.5C3745.67,-1827.5 3742.82,-1768.35 3739.06,-1722.89"/>
<polygon fill="none" stroke="red" points="3742.57,-1722.84 3738.22,-1713.18 3735.59,-1723.45 3742.57,-1722.84"/>
</g>
<!-- PreConstruct__33 -->
<g id="node41" class="node">
<title>PreConstruct__33</title>
<polygon fill="#eeeeee" stroke="black" points="3313,-1651.5 3313,-1689.5 3429,-1689.5 3429,-1651.5 3313,-1651.5"/>
<text text-anchor="start" x="3321" y="-1674.3" font-family="monospace" font-size="14.00">EX_Return</text>
<text text-anchor="start" x="3321" y="-1659.3" font-family="monospace" font-size="14.00">  EX_Nothing</text>
</g>
<!-- PreConstruct__18&#45;&gt;PreConstruct__33 -->
<g id="edge33" class="edge">
<title>PreConstruct__18&#45;&gt;PreConstruct__33</title>
<path fill="none" stroke="black" d="M3371,-1808.72C3371,-1782.21 3371,-1732.04 3371,-1700.26"/>
<polygon fill="black" stroke="black" points="3374.5,-1700.59 3371,-1690.59 3367.5,-1700.59 3374.5,-1700.59"/>
</g>
<!-- PreConstruct__35 -->
<g id="node42" class="node">
<title>PreConstruct__35</title>
<polygon fill="#eeeeee" stroke="black" points="3749,-1551.5 3749,-1587.5 3881,-1587.5 3881,-1551.5 3749,-1551.5"/>
<text text-anchor="start" x="3757" y="-1565.8" font-family="monospace" font-size="14.00">EX_EndOfScript</text>
</g>
</g>
</svg>
