<?xml version="1.0" encoding="UTF-8" standalone="no"?>
<!DOCTYPE svg PUBLIC "-//W3C//DTD SVG 1.1//EN"
 "http://www.w3.org/Graphics/SVG/1.1/DTD/svg11.dtd">
<!-- Generated by graphviz version 7.0.1 (0)
 -->
<!-- Pages: 1 -->
<svg width="3442pt" height="2569pt"
 viewBox="0.00 0.00 3441.50 2569.00" xmlns="http://www.w3.org/2000/svg" xmlns:xlink="http://www.w3.org/1999/xlink">
<g id="graph0" class="graph" transform="scale(1 1) rotate(0) translate(4 2565)">
<polygon fill="white" stroke="none" points="-4,4 -4,-2565 3437.5,-2565 3437.5,4 -4,4"/>
<!-- ABP_Vanity_Headwear_Halloween_MissionControl_C -->
<g id="node1" class="node">
<title>ABP_Vanity_Headwear_Halloween_MissionControl_C</title>
<polygon fill="#88ff88" stroke="black" points="0,-2357.5 0,-2560.5 734,-2560.5 734,-2357.5 0,-2357.5"/>
<text text-anchor="start" x="8" y="-2545.3" font-family="monospace" font-size="14.00">ClassExport: ABP_Vanity_Headwear_Halloween_MissionControl_C</text>
<text text-anchor="start" x="8" y="-2530.3" font-family="monospace" font-size="14.00">  SuperStruct: import /Script/FSD&#45;&gt;VanityAnimInstance</text>
<text text-anchor="start" x="8" y="-2515.3" font-family="monospace" font-size="14.00">  Properties:</text>
<text text-anchor="start" x="8" y="-2500.3" font-family="monospace" font-size="14.00">    StructProperty UberGraphFrame</text>
<text text-anchor="start" x="8" y="-2485.3" font-family="monospace" font-size="14.00">      CPF_Transient|CPF_DuplicateTransient</text>
<text text-anchor="start" x="8" y="-2470.3" font-family="monospace" font-size="14.00">    StructProperty AnimGraphNode_Root</text>
<text text-anchor="start" x="8" y="-2455.3" font-family="monospace" font-size="14.00">    StructProperty AnimGraphNode_CopyPoseFromMesh</text>
<text text-anchor="start" x="8" y="-2440.3" font-family="monospace" font-size="14.00">      CPF_ContainsInstancedReference</text>
<text text-anchor="start" x="8" y="-2425.3" font-family="monospace" font-size="14.00">    StructProperty AnimGraphNode_LocalToComponentSpace</text>
<text text-anchor="start" x="8" y="-2410.3" font-family="monospace" font-size="14.00">    StructProperty AnimGraphNode_ComponentToLocalSpace</text>
<text text-anchor="start" x="8" y="-2395.3" font-family="monospace" font-size="14.00">    StructProperty AnimGraphNode_RigidBody</text>
<text text-anchor="start" x="8" y="-2380.3" font-family="monospace" font-size="14.00">    ObjectProperty Point Light</text>
<text text-anchor="start" x="8" y="-2365.3" font-family="monospace" font-size="14.00">      CPF_Edit|CPF_BlueprintVisible|CPF_DisableEditOnTemplate|CPF_DisableEditOnInstance</text>
</g>
<!-- ExecuteUbergraph_ABP_Vanity_Headwear_Halloween_MissionControl -->
<g id="node2" class="node">
<title>ExecuteUbergraph_ABP_Vanity_Headwear_Halloween_MissionControl</title>
<polygon fill="#ff8888" stroke="black" points="752,-2365 752,-2553 1346,-2553 1346,-2365 752,-2365"/>
<text text-anchor="start" x="760" y="-2537.8" font-family="monospace" font-size="14.00">Function ExecuteUbergraph_ABP_Vanity_Headwear_Halloween_MissionControl</text>
<text text-anchor="start" x="760" y="-2522.8" font-family="monospace" font-size="14.00">  IntProperty EntryPoint</text>
<text text-anchor="start" x="760" y="-2507.8" font-family="monospace" font-size="14.00">    CPF_BlueprintVisible|CPF_BlueprintReadOnly|CPF_Parm</text>
<text text-anchor="start" x="760" y="-2492.8" font-family="monospace" font-size="14.00">  ObjectProperty CallFunc_GetOuterObject_ReturnValue</text>
<text text-anchor="start" x="760" y="-2477.8" font-family="monospace" font-size="14.00">  StructProperty CallFunc_MakeTransform_ReturnValue</text>
<text text-anchor="start" x="760" y="-2462.8" font-family="monospace" font-size="14.00">  ObjectProperty K2Node_DynamicCast_AsSkeletal_Mesh_Component</text>
<text text-anchor="start" x="760" y="-2447.8" font-family="monospace" font-size="14.00">    CPF_InstancedReference</text>
<text text-anchor="start" x="760" y="-2432.8" font-family="monospace" font-size="14.00">  BoolProperty K2Node_DynamicCast_bSuccess</text>
<text text-anchor="start" x="760" y="-2417.8" font-family="monospace" font-size="14.00">  ObjectProperty CallFunc_BeginDeferredActorSpawnFromClass_ReturnValue</text>
<text text-anchor="start" x="760" y="-2402.8" font-family="monospace" font-size="14.00">  ObjectProperty CallFunc_FinishSpawningActor_ReturnValue</text>
<text text-anchor="start" x="760" y="-2387.8" font-family="monospace" font-size="14.00">  BoolProperty CallFunc_IsValid_ReturnValue</text>
<text text-anchor="start" x="760" y="-2372.8" font-family="monospace" font-size="14.00">  ObjectProperty CallFunc_GetOuterObject_ReturnValue_1</text>
</g>
<!-- ExecuteUbergraph_ABP_Vanity_Headwear_Halloween_MissionControl__0 -->
<g id="node3" class="node">
<title>ExecuteUbergraph_ABP_Vanity_Headwear_Halloween_MissionControl__0</title>
<polygon fill="#eeeeee" stroke="black" points="913,-2223 913,-2261 1185,-2261 1185,-2223 913,-2223"/>
<text text-anchor="start" x="921" y="-2245.8" font-family="monospace" font-size="14.00">EX_ComputedJump</text>
<text text-anchor="start" x="921" y="-2230.8" font-family="monospace" font-size="14.00">  EX_LocalVariable [EntryPoint]</text>
</g>
<!-- ExecuteUbergraph_ABP_Vanity_Headwear_Halloween_MissionControl&#45;&gt;ExecuteUbergraph_ABP_Vanity_Headwear_Halloween_MissionControl__0 -->
<g id="edge1" class="edge">
<title>ExecuteUbergraph_ABP_Vanity_Headwear_Halloween_MissionControl&#45;&gt;ExecuteUbergraph_ABP_Vanity_Headwear_Halloween_MissionControl__0</title>
<path fill="none" stroke="black" d="M1049,-2365.26C1049,-2331.77 1049,-2296.34 1049,-2272.29"/>
<polygon fill="black" stroke="black" points="1052.5,-2272.33 1049,-2262.33 1045.5,-2272.33 1052.5,-2272.33"/>
</g>
<!-- ExecuteUbergraph_ABP_Vanity_Headwear_Halloween_MissionControl__10 -->
<g id="node4" class="node">
<title>ExecuteUbergraph_ABP_Vanity_Headwear_Halloween_MissionControl__10</title>
<polygon fill="#eeeeee" stroke="black" points="2589.5,-799.5 2589.5,-867.5 3200.5,-867.5 3200.5,-799.5 2589.5,-799.5"/>
<text text-anchor="start" x="2597.5" y="-852.3" font-family="monospace" font-size="14.00">EX_LetObj</text>
<text text-anchor="start" x="2597.5" y="-837.3" font-family="monospace" font-size="14.00">  EX_LocalVariable [CallFunc_GetOuterObject_ReturnValue]</text>
<text text-anchor="start" x="2597.5" y="-822.3" font-family="monospace" font-size="14.00">  EX_CallMath import /Script/Engine&#45;&gt;KismetSystemLibrary&#45;&gt;GetOuterObject</text>
<text text-anchor="start" x="2597.5" y="-807.3" font-family="monospace" font-size="14.00">    EX_Self</text>
</g>
<!-- ExecuteUbergraph_ABP_Vanity_Headwear_Halloween_MissionControl__31 -->
<g id="node5" class="node">
<title>ExecuteUbergraph_ABP_Vanity_Headwear_Halloween_MissionControl__31</title>
<polygon fill="#eeeeee" stroke="black" points="2615.5,-693.5 2615.5,-761.5 3168.5,-761.5 3168.5,-693.5 2615.5,-693.5"/>
<text text-anchor="start" x="2623.5" y="-746.3" font-family="monospace" font-size="14.00">EX_Let</text>
<text text-anchor="start" x="2623.5" y="-731.3" font-family="monospace" font-size="14.00">  EX_LocalVariable [K2Node_DynamicCast_AsSkeletal_Mesh_Component]</text>
<text text-anchor="start" x="2623.5" y="-716.3" font-family="monospace" font-size="14.00">  EX_DynamicCast import /Script/Engine&#45;&gt;SkeletalMeshComponent</text>
<text text-anchor="start" x="2623.5" y="-701.3" font-family="monospace" font-size="14.00">    EX_LocalVariable [CallFunc_GetOuterObject_ReturnValue]</text>
</g>
<!-- ExecuteUbergraph_ABP_Vanity_Headwear_Halloween_MissionControl__10&#45;&gt;ExecuteUbergraph_ABP_Vanity_Headwear_Halloween_MissionControl__31 -->
<g id="edge2" class="edge">
<title>ExecuteUbergraph_ABP_Vanity_Headwear_Halloween_MissionControl__10&#45;&gt;ExecuteUbergraph_ABP_Vanity_Headwear_Halloween_MissionControl__31</title>
<path fill="none" stroke="black" d="M2894.05,-799.59C2893.8,-790.97 2893.53,-781.54 2893.27,-772.45"/>
<polygon fill="black" stroke="black" points="2896.77,-772.6 2892.99,-762.71 2889.78,-772.8 2896.77,-772.6"/>
</g>
<!-- ExecuteUbergraph_ABP_Vanity_Headwear_Halloween_MissionControl__67 -->
<g id="node6" class="node">
<title>ExecuteUbergraph_ABP_Vanity_Headwear_Halloween_MissionControl__67</title>
<polygon fill="#eeeeee" stroke="black" points="2606.5,-587.5 2606.5,-655.5 3175.5,-655.5 3175.5,-587.5 2606.5,-587.5"/>
<text text-anchor="start" x="2614.5" y="-640.3" font-family="monospace" font-size="14.00">EX_Let</text>
<text text-anchor="start" x="2614.5" y="-625.3" font-family="monospace" font-size="14.00">  EX_LocalVariable [K2Node_DynamicCast_bSuccess]</text>
<text text-anchor="start" x="2614.5" y="-610.3" font-family="monospace" font-size="14.00">  EX_PrimitiveCast ObjectToBool</text>
<text text-anchor="start" x="2614.5" y="-595.3" font-family="monospace" font-size="14.00">    EX_LocalVariable [K2Node_DynamicCast_AsSkeletal_Mesh_Component]</text>
</g>
<!-- ExecuteUbergraph_ABP_Vanity_Headwear_Halloween_MissionControl__31&#45;&gt;ExecuteUbergraph_ABP_Vanity_Headwear_Halloween_MissionControl__67 -->
<g id="edge3" class="edge">
<title>ExecuteUbergraph_ABP_Vanity_Headwear_Halloween_MissionControl__31&#45;&gt;ExecuteUbergraph_ABP_Vanity_Headwear_Halloween_MissionControl__67</title>
<path fill="none" stroke="black" d="M2891.68,-693.59C2891.6,-684.97 2891.51,-675.54 2891.42,-666.45"/>
<polygon fill="black" stroke="black" points="2894.92,-666.67 2891.33,-656.71 2887.93,-666.74 2894.92,-666.67"/>
</g>
<!-- ExecuteUbergraph_ABP_Vanity_Headwear_Halloween_MissionControl__96 -->
<g id="node7" class="node">
<title>ExecuteUbergraph_ABP_Vanity_Headwear_Halloween_MissionControl__96</title>
<polygon fill="#eeeeee" stroke="black" points="2679.5,-511.5 2679.5,-549.5 3092.5,-549.5 3092.5,-511.5 2679.5,-511.5"/>
<text text-anchor="start" x="2687.5" y="-534.3" font-family="monospace" font-size="14.00">EX_JumpIfNot 568</text>
<text text-anchor="start" x="2687.5" y="-519.3" font-family="monospace" font-size="14.00">  EX_LocalVariable [K2Node_DynamicCast_bSuccess]</text>
</g>
<!-- ExecuteUbergraph_ABP_Vanity_Headwear_Halloween_MissionControl__67&#45;&gt;ExecuteUbergraph_ABP_Vanity_Headwear_Halloween_MissionControl__96 -->
<g id="edge4" class="edge">
<title>ExecuteUbergraph_ABP_Vanity_Headwear_Halloween_MissionControl__67&#45;&gt;ExecuteUbergraph_ABP_Vanity_Headwear_Halloween_MissionControl__96</title>
<path fill="none" stroke="black" d="M2889.15,-587.61C2888.66,-578.79 2888.12,-569.32 2887.64,-560.72"/>
<polygon fill="black" stroke="black" points="2891.14,-560.59 2887.08,-550.8 2884.15,-560.98 2891.14,-560.59"/>
</g>
<!-- ExecuteUbergraph_ABP_Vanity_Headwear_Halloween_MissionControl__110 -->
<g id="node8" class="node">
<title>ExecuteUbergraph_ABP_Vanity_Headwear_Halloween_MissionControl__110</title>
<polygon fill="#eeeeee" stroke="black" points="2464,-301.5 2464,-459.5 3050,-459.5 3050,-301.5 2464,-301.5"/>
<text text-anchor="start" x="2472" y="-444.3" font-family="monospace" font-size="14.00">EX_Context</text>
<text text-anchor="start" x="2472" y="-429.3" font-family="monospace" font-size="14.00">  EX_InstanceVariable [Point Light]</text>
<text text-anchor="start" x="2472" y="-414.3" font-family="monospace" font-size="14.00">  EX_FinalFunction import /Script/Engine&#45;&gt;Actor&#45;&gt;K2_AttachToComponent</text>
<text text-anchor="start" x="2472" y="-399.3" font-family="monospace" font-size="14.00">    EX_LocalVariable [K2Node_DynamicCast_AsSkeletal_Mesh_Component]</text>
<text text-anchor="start" x="2472" y="-384.3" font-family="monospace" font-size="14.00">    EX_NameConst Head_LightSocket</text>
<text text-anchor="start" x="2472" y="-369.3" font-family="monospace" font-size="14.00">    EX_ByteConst 0</text>
<text text-anchor="start" x="2472" y="-354.3" font-family="monospace" font-size="14.00">    EX_ByteConst 0</text>
<text text-anchor="start" x="2472" y="-339.3" font-family="monospace" font-size="14.00">    EX_ByteConst 0</text>
<text text-anchor="start" x="2472" y="-324.3" font-family="monospace" font-size="14.00">    EX_True</text>
<text text-anchor="start" x="2472" y="-309.3" font-family="monospace" font-size="14.00">  RValue = []</text>
</g>
<!-- ExecuteUbergraph_ABP_Vanity_Headwear_Halloween_MissionControl__96&#45;&gt;ExecuteUbergraph_ABP_Vanity_Headwear_Halloween_MissionControl__110 -->
<g id="edge6" class="edge">
<title>ExecuteUbergraph_ABP_Vanity_Headwear_Halloween_MissionControl__96&#45;&gt;ExecuteUbergraph_ABP_Vanity_Headwear_Halloween_MissionControl__110</title>
<path fill="none" stroke="black" d="M2870.44,-511.65C2860.42,-500.15 2846.58,-484.27 2832,-467.54"/>
<polygon fill="black" stroke="black" points="2835,-465.66 2825.79,-460.42 2829.72,-470.26 2835,-465.66"/>
<text text-anchor="middle" x="2859.5" y="-481.8" font-family="monospace" font-size="14.00">IF</text>
</g>
<!-- ExecuteUbergraph_ABP_Vanity_Headwear_Halloween_MissionControl__568 -->
<g id="node22" class="node">
<title>ExecuteUbergraph_ABP_Vanity_Headwear_Halloween_MissionControl__568</title>
<polygon fill="#eeeeee" stroke="black" points="2656,-0.5 2656,-38.5 2772,-38.5 2772,-0.5 2656,-0.5"/>
<text text-anchor="start" x="2664" y="-23.3" font-family="monospace" font-size="14.00">EX_Return</text>
<text text-anchor="start" x="2664" y="-8.3" font-family="monospace" font-size="14.00">  EX_Nothing</text>
</g>
<!-- ExecuteUbergraph_ABP_Vanity_Headwear_Halloween_MissionControl__96&#45;&gt;ExecuteUbergraph_ABP_Vanity_Headwear_Halloween_MissionControl__568 -->
<g id="edge5" class="edge">
<title>ExecuteUbergraph_ABP_Vanity_Headwear_Halloween_MissionControl__96:e&#45;&gt;ExecuteUbergraph_ABP_Vanity_Headwear_Halloween_MissionControl__568</title>
<path fill="none" stroke="red" d="M3094,-530.5C3160.22,-530.5 3093,-447.72 3093,-381.5 3093,-381.5 3093,-381.5 3093,-93.5 3093,-31.13 2892.58,-20.87 2783.23,-19.91"/>
<polygon fill="none" stroke="red" points="2783.51,-16.41 2773.49,-19.85 2783.47,-23.41 2783.51,-16.41"/>
<text text-anchor="middle" x="3118" y="-203.3" font-family="monospace" font-size="14.00">IF NOT</text>
</g>
<!-- ExecuteUbergraph_ABP_Vanity_Headwear_Halloween_MissionControl__171 -->
<g id="node9" class="node">
<title>ExecuteUbergraph_ABP_Vanity_Headwear_Halloween_MissionControl__171</title>
<polygon fill="#eeeeee" stroke="black" points="2371.5,-150.5 2371.5,-263.5 3056.5,-263.5 3056.5,-150.5 2371.5,-150.5"/>
<text text-anchor="start" x="2379.5" y="-248.3" font-family="monospace" font-size="14.00">EX_Context</text>
<text text-anchor="start" x="2379.5" y="-233.3" font-family="monospace" font-size="14.00">  EX_LocalVariable [K2Node_DynamicCast_AsSkeletal_Mesh_Component]</text>
<text text-anchor="start" x="2379.5" y="-218.3" font-family="monospace" font-size="14.00">  EX_FinalFunction import /Script/Engine&#45;&gt;PrimitiveComponent&#45;&gt;SetLightingChannels</text>
<text text-anchor="start" x="2379.5" y="-203.3" font-family="monospace" font-size="14.00">    EX_True</text>
<text text-anchor="start" x="2379.5" y="-188.3" font-family="monospace" font-size="14.00">    EX_True</text>
<text text-anchor="start" x="2379.5" y="-173.3" font-family="monospace" font-size="14.00">    EX_False</text>
<text text-anchor="start" x="2379.5" y="-158.3" font-family="monospace" font-size="14.00">  RValue = []</text>
</g>
<!-- ExecuteUbergraph_ABP_Vanity_Headwear_Halloween_MissionControl__110&#45;&gt;ExecuteUbergraph_ABP_Vanity_Headwear_Halloween_MissionControl__171 -->
<g id="edge7" class="edge">
<title>ExecuteUbergraph_ABP_Vanity_Headwear_Halloween_MissionControl__110&#45;&gt;ExecuteUbergraph_ABP_Vanity_Headwear_Halloween_MissionControl__171</title>
<path fill="none" stroke="black" d="M2737.45,-301.53C2735.19,-292.51 2732.9,-283.37 2730.68,-274.52"/>
<polygon fill="black" stroke="black" points="2734.11,-273.81 2728.28,-264.96 2727.32,-275.52 2734.11,-273.81"/>
</g>
<!-- ExecuteUbergraph_ABP_Vanity_Headwear_Halloween_MissionControl__206 -->
<g id="node10" class="node">
<title>ExecuteUbergraph_ABP_Vanity_Headwear_Halloween_MissionControl__206</title>
<polygon fill="#eeeeee" stroke="black" points="2660.5,-76.5 2660.5,-112.5 2767.5,-112.5 2767.5,-76.5 2660.5,-76.5"/>
<text text-anchor="start" x="2668.5" y="-90.8" font-family="monospace" font-size="14.00">EX_Jump 568</text>
</g>
<!-- ExecuteUbergraph_ABP_Vanity_Headwear_Halloween_MissionControl__171&#45;&gt;ExecuteUbergraph_ABP_Vanity_Headwear_Halloween_MissionControl__206 -->
<g id="edge8" class="edge">
<title>ExecuteUbergraph_ABP_Vanity_Headwear_Halloween_MissionControl__171&#45;&gt;ExecuteUbergraph_ABP_Vanity_Headwear_Halloween_MissionControl__206</title>
<path fill="none" stroke="black" d="M2714,-150.75C2714,-141.32 2714,-131.9 2714,-123.57"/>
<polygon fill="black" stroke="black" points="2717.5,-123.8 2714,-113.8 2710.5,-123.8 2717.5,-123.8"/>
</g>
<!-- ExecuteUbergraph_ABP_Vanity_Headwear_Halloween_MissionControl__206&#45;&gt;ExecuteUbergraph_ABP_Vanity_Headwear_Halloween_MissionControl__568 -->
<g id="edge9" class="edge">
<title>ExecuteUbergraph_ABP_Vanity_Headwear_Halloween_MissionControl__206&#45;&gt;ExecuteUbergraph_ABP_Vanity_Headwear_Halloween_MissionControl__568</title>
<path fill="none" stroke="black" d="M2714,-76.57C2714,-68.6 2714,-58.87 2714,-49.77"/>
<polygon fill="black" stroke="black" points="2717.5,-49.87 2714,-39.87 2710.5,-49.87 2717.5,-49.87"/>
</g>
<!-- ExecuteUbergraph_ABP_Vanity_Headwear_Halloween_MissionControl__211 -->
<g id="node11" class="node">
<title>ExecuteUbergraph_ABP_Vanity_Headwear_Halloween_MissionControl__211</title>
<polygon fill="#eeeeee" stroke="black" points="2482,-1720.5 2482,-1818.5 3068,-1818.5 3068,-1720.5 2482,-1720.5"/>
<text text-anchor="start" x="2490" y="-1803.3" font-family="monospace" font-size="14.00">EX_Let</text>
<text text-anchor="start" x="2490" y="-1788.3" font-family="monospace" font-size="14.00">  EX_LocalVariable [CallFunc_MakeTransform_ReturnValue]</text>
<text text-anchor="start" x="2490" y="-1773.3" font-family="monospace" font-size="14.00">  EX_CallMath import /Script/Engine&#45;&gt;KismetMathLibrary&#45;&gt;MakeTransform</text>
<text text-anchor="start" x="2490" y="-1758.3" font-family="monospace" font-size="14.00">    EX_VectorConst 0,0,0</text>
<text text-anchor="start" x="2490" y="-1743.3" font-family="monospace" font-size="14.00">    EX_RotationConst 0,0,0</text>
<text text-anchor="start" x="2490" y="-1728.3" font-family="monospace" font-size="14.00">    EX_VectorConst 1,1,1</text>
</g>
<!-- ExecuteUbergraph_ABP_Vanity_Headwear_Halloween_MissionControl__278 -->
<g id="node12" class="node">
<title>ExecuteUbergraph_ABP_Vanity_Headwear_Halloween_MissionControl__278</title>
<polygon fill="#eeeeee" stroke="black" points="2360.5,-1554.5 2360.5,-1682.5 3433.5,-1682.5 3433.5,-1554.5 2360.5,-1554.5"/>
<text text-anchor="start" x="2368.5" y="-1667.3" font-family="monospace" font-size="14.00">EX_LetObj</text>
<text text-anchor="start" x="2368.5" y="-1652.3" font-family="monospace" font-size="14.00">  EX_LocalVariable [CallFunc_BeginDeferredActorSpawnFromClass_ReturnValue]</text>
<text text-anchor="start" x="2368.5" y="-1637.3" font-family="monospace" font-size="14.00">  EX_CallMath import /Script/Engine&#45;&gt;GameplayStatics&#45;&gt;BeginDeferredActorSpawnFromClass</text>
<text text-anchor="start" x="2368.5" y="-1622.3" font-family="monospace" font-size="14.00">    EX_Self</text>
<text text-anchor="start" x="2368.5" y="-1607.3" font-family="monospace" font-size="14.00">    EX_ObjectConst import /Game/Character/Vanity2/Headwear/Blueprints/BP_MissionControlPointlight&#45;&gt;BP_MissionControlPointlight_C</text>
<text text-anchor="start" x="2368.5" y="-1592.3" font-family="monospace" font-size="14.00">    EX_LocalVariable [CallFunc_MakeTransform_ReturnValue]</text>
<text text-anchor="start" x="2368.5" y="-1577.3" font-family="monospace" font-size="14.00">    EX_ByteConst 0</text>
<text text-anchor="start" x="2368.5" y="-1562.3" font-family="monospace" font-size="14.00">    EX_NoObject</text>
</g>
<!-- ExecuteUbergraph_ABP_Vanity_Headwear_Halloween_MissionControl__211&#45;&gt;ExecuteUbergraph_ABP_Vanity_Headwear_Halloween_MissionControl__278 -->
<g id="edge10" class="edge">
<title>ExecuteUbergraph_ABP_Vanity_Headwear_Halloween_MissionControl__211&#45;&gt;ExecuteUbergraph_ABP_Vanity_Headwear_Halloween_MissionControl__278</title>
<path fill="none" stroke="black" d="M2814.27,-1720.54C2821.98,-1711.13 2830.21,-1701.07 2838.39,-1691.08"/>
<polygon fill="black" stroke="black" points="2840.96,-1693.46 2844.59,-1683.51 2835.55,-1689.03 2840.96,-1693.46"/>
</g>
<!-- ExecuteUbergraph_ABP_Vanity_Headwear_Halloween_MissionControl__320 -->
<g id="node13" class="node">
<title>ExecuteUbergraph_ABP_Vanity_Headwear_Halloween_MissionControl__320</title>
<polygon fill="#eeeeee" stroke="black" points="2603,-1418.5 2603,-1516.5 3189,-1516.5 3189,-1418.5 2603,-1418.5"/>
<text text-anchor="start" x="2611" y="-1501.3" font-family="monospace" font-size="14.00">EX_Let</text>
<text text-anchor="start" x="2611" y="-1486.3" font-family="monospace" font-size="14.00">  EX_LocalVariable [CallFunc_MakeTransform_ReturnValue]</text>
<text text-anchor="start" x="2611" y="-1471.3" font-family="monospace" font-size="14.00">  EX_CallMath import /Script/Engine&#45;&gt;KismetMathLibrary&#45;&gt;MakeTransform</text>
<text text-anchor="start" x="2611" y="-1456.3" font-family="monospace" font-size="14.00">    EX_VectorConst 0,0,0</text>
<text text-anchor="start" x="2611" y="-1441.3" font-family="monospace" font-size="14.00">    EX_RotationConst 0,0,0</text>
<text text-anchor="start" x="2611" y="-1426.3" font-family="monospace" font-size="14.00">    EX_VectorConst 1,1,1</text>
</g>
<!-- ExecuteUbergraph_ABP_Vanity_Headwear_Halloween_MissionControl__278&#45;&gt;ExecuteUbergraph_ABP_Vanity_Headwear_Halloween_MissionControl__320 -->
<g id="edge11" class="edge">
<title>ExecuteUbergraph_ABP_Vanity_Headwear_Halloween_MissionControl__278&#45;&gt;ExecuteUbergraph_ABP_Vanity_Headwear_Halloween_MissionControl__320</title>
<path fill="none" stroke="black" d="M2896.58,-1554.74C2896.52,-1545.78 2896.46,-1536.59 2896.4,-1527.71"/>
<polygon fill="black" stroke="black" points="2899.9,-1527.73 2896.33,-1517.76 2892.9,-1527.78 2899.9,-1527.73"/>
</g>
<!-- ExecuteUbergraph_ABP_Vanity_Headwear_Halloween_MissionControl__387 -->
<g id="node14" class="node">
<title>ExecuteUbergraph_ABP_Vanity_Headwear_Halloween_MissionControl__387</title>
<polygon fill="#eeeeee" stroke="black" points="2574,-1297.5 2574,-1380.5 3218,-1380.5 3218,-1297.5 2574,-1297.5"/>
<text text-anchor="start" x="2582" y="-1365.3" font-family="monospace" font-size="14.00">EX_LetObj</text>
<text text-anchor="start" x="2582" y="-1350.3" font-family="monospace" font-size="14.00">  EX_LocalVariable [CallFunc_FinishSpawningActor_ReturnValue]</text>
<text text-anchor="start" x="2582" y="-1335.3" font-family="monospace" font-size="14.00">  EX_CallMath import /Script/Engine&#45;&gt;GameplayStatics&#45;&gt;FinishSpawningActor</text>
<text text-anchor="start" x="2582" y="-1320.3" font-family="monospace" font-size="14.00">    EX_LocalVariable [CallFunc_BeginDeferredActorSpawnFromClass_ReturnValue]</text>
<text text-anchor="start" x="2582" y="-1305.3" font-family="monospace" font-size="14.00">    EX_LocalVariable [CallFunc_MakeTransform_ReturnValue]</text>
</g>
<!-- ExecuteUbergraph_ABP_Vanity_Headwear_Halloween_MissionControl__320&#45;&gt;ExecuteUbergraph_ABP_Vanity_Headwear_Halloween_MissionControl__387 -->
<g id="edge12" class="edge">
<title>ExecuteUbergraph_ABP_Vanity_Headwear_Halloween_MissionControl__320&#45;&gt;ExecuteUbergraph_ABP_Vanity_Headwear_Halloween_MissionControl__387</title>
<path fill="none" stroke="black" d="M2896,-1418.68C2896,-1409.92 2896,-1400.74 2896,-1391.87"/>
<polygon fill="black" stroke="black" points="2899.5,-1391.97 2896,-1381.97 2892.5,-1391.97 2899.5,-1391.97"/>
</g>
<!-- ExecuteUbergraph_ABP_Vanity_Headwear_Halloween_MissionControl__425 -->
<g id="node15" class="node">
<title>ExecuteUbergraph_ABP_Vanity_Headwear_Halloween_MissionControl__425</title>
<polygon fill="#eeeeee" stroke="black" points="2636,-1206.5 2636,-1259.5 3156,-1259.5 3156,-1206.5 2636,-1206.5"/>
<text text-anchor="start" x="2644" y="-1244.3" font-family="monospace" font-size="14.00">EX_LetObj</text>
<text text-anchor="start" x="2644" y="-1229.3" font-family="monospace" font-size="14.00">  EX_InstanceVariable [Point Light]</text>
<text text-anchor="start" x="2644" y="-1214.3" font-family="monospace" font-size="14.00">  EX_LocalVariable [CallFunc_FinishSpawningActor_ReturnValue]</text>
</g>
<!-- ExecuteUbergraph_ABP_Vanity_Headwear_Halloween_MissionControl__387&#45;&gt;ExecuteUbergraph_ABP_Vanity_Headwear_Halloween_MissionControl__425 -->
<g id="edge13" class="edge">
<title>ExecuteUbergraph_ABP_Vanity_Headwear_Halloween_MissionControl__387&#45;&gt;ExecuteUbergraph_ABP_Vanity_Headwear_Halloween_MissionControl__425</title>
<path fill="none" stroke="black" d="M2896,-1297.79C2896,-1288.91 2896,-1279.54 2896,-1270.81"/>
<polygon fill="black" stroke="black" points="2899.5,-1270.9 2896,-1260.9 2892.5,-1270.9 2899.5,-1270.9"/>
</g>
<!-- ExecuteUbergraph_ABP_Vanity_Headwear_Halloween_MissionControl__444 -->
<g id="node16" class="node">
<title>ExecuteUbergraph_ABP_Vanity_Headwear_Halloween_MissionControl__444</title>
<polygon fill="#eeeeee" stroke="black" points="2590.5,-1100.5 2590.5,-1168.5 3201.5,-1168.5 3201.5,-1100.5 2590.5,-1100.5"/>
<text text-anchor="start" x="2598.5" y="-1153.3" font-family="monospace" font-size="14.00">EX_LetObj</text>
<text text-anchor="start" x="2598.5" y="-1138.3" font-family="monospace" font-size="14.00">  EX_LocalVariable [CallFunc_GetOuterObject_ReturnValue_1]</text>
<text text-anchor="start" x="2598.5" y="-1123.3" font-family="monospace" font-size="14.00">  EX_CallMath import /Script/Engine&#45;&gt;KismetSystemLibrary&#45;&gt;GetOuterObject</text>
<text text-anchor="start" x="2598.5" y="-1108.3" font-family="monospace" font-size="14.00">    EX_Self</text>
</g>
<!-- ExecuteUbergraph_ABP_Vanity_Headwear_Halloween_MissionControl__425&#45;&gt;ExecuteUbergraph_ABP_Vanity_Headwear_Halloween_MissionControl__444 -->
<g id="edge14" class="edge">
<title>ExecuteUbergraph_ABP_Vanity_Headwear_Halloween_MissionControl__425&#45;&gt;ExecuteUbergraph_ABP_Vanity_Headwear_Halloween_MissionControl__444</title>
<path fill="none" stroke="black" d="M2896,-1206.65C2896,-1198.4 2896,-1188.99 2896,-1179.78"/>
<polygon fill="black" stroke="black" points="2899.5,-1179.83 2896,-1169.83 2892.5,-1179.83 2899.5,-1179.83"/>
</g>
<!-- ExecuteUbergraph_ABP_Vanity_Headwear_Halloween_MissionControl__465 -->
<g id="node17" class="node">
<title>ExecuteUbergraph_ABP_Vanity_Headwear_Halloween_MissionControl__465</title>
<polygon fill="#eeeeee" stroke="black" points="2639,-979.5 2639,-1062.5 3151,-1062.5 3151,-979.5 2639,-979.5"/>
<text text-anchor="start" x="2647" y="-1047.3" font-family="monospace" font-size="14.00">EX_Context</text>
<text text-anchor="start" x="2647" y="-1032.3" font-family="monospace" font-size="14.00">  EX_InstanceVariable [Point Light]</text>
<text text-anchor="start" x="2647" y="-1017.3" font-family="monospace" font-size="14.00">  EX_LocalVirtualFunction Set_ABP_Reference</text>
<text text-anchor="start" x="2647" y="-1002.3" font-family="monospace" font-size="14.00">    EX_LocalVariable [CallFunc_GetOuterObject_ReturnValue_1]</text>
<text text-anchor="start" x="2647" y="-987.3" font-family="monospace" font-size="14.00">  RValue = []</text>
</g>
<!-- ExecuteUbergraph_ABP_Vanity_Headwear_Halloween_MissionControl__444&#45;&gt;ExecuteUbergraph_ABP_Vanity_Headwear_Halloween_MissionControl__465 -->
<g id="edge15" class="edge">
<title>ExecuteUbergraph_ABP_Vanity_Headwear_Halloween_MissionControl__444&#45;&gt;ExecuteUbergraph_ABP_Vanity_Headwear_Halloween_MissionControl__465</title>
<path fill="none" stroke="black" d="M2895.71,-1100.65C2895.63,-1092.16 2895.55,-1082.81 2895.46,-1073.61"/>
<polygon fill="black" stroke="black" points="2898.96,-1073.6 2895.37,-1063.63 2891.96,-1073.66 2898.96,-1073.6"/>
</g>
<!-- ExecuteUbergraph_ABP_Vanity_Headwear_Halloween_MissionControl__510 -->
<g id="node18" class="node">
<title>ExecuteUbergraph_ABP_Vanity_Headwear_Halloween_MissionControl__510</title>
<polygon fill="#eeeeee" stroke="black" points="2845.5,-905.5 2845.5,-941.5 2944.5,-941.5 2944.5,-905.5 2845.5,-905.5"/>
<text text-anchor="start" x="2853.5" y="-919.8" font-family="monospace" font-size="14.00">EX_Jump 10</text>
</g>
<!-- ExecuteUbergraph_ABP_Vanity_Headwear_Halloween_MissionControl__465&#45;&gt;ExecuteUbergraph_ABP_Vanity_Headwear_Halloween_MissionControl__510 -->
<g id="edge16" class="edge">
<title>ExecuteUbergraph_ABP_Vanity_Headwear_Halloween_MissionControl__465&#45;&gt;ExecuteUbergraph_ABP_Vanity_Headwear_Halloween_MissionControl__510</title>
<path fill="none" stroke="black" d="M2895,-979.78C2895,-970.73 2895,-961.32 2895,-952.88"/>
<polygon fill="black" stroke="black" points="2898.5,-952.88 2895,-942.88 2891.5,-952.88 2898.5,-952.88"/>
</g>
<!-- ExecuteUbergraph_ABP_Vanity_Headwear_Halloween_MissionControl__510&#45;&gt;ExecuteUbergraph_ABP_Vanity_Headwear_Halloween_MissionControl__10 -->
<g id="edge17" class="edge">
<title>ExecuteUbergraph_ABP_Vanity_Headwear_Halloween_MissionControl__510&#45;&gt;ExecuteUbergraph_ABP_Vanity_Headwear_Halloween_MissionControl__10</title>
<path fill="none" stroke="black" d="M2895,-905.53C2895,-897.86 2895,-888.4 2895,-878.92"/>
<polygon fill="black" stroke="black" points="2898.5,-878.97 2895,-868.97 2891.5,-878.97 2898.5,-878.97"/>
</g>
<!-- ExecuteUbergraph_ABP_Vanity_Headwear_Halloween_MissionControl__515 -->
<g id="node19" class="node">
<title>ExecuteUbergraph_ABP_Vanity_Headwear_Halloween_MissionControl__515</title>
<polygon fill="#eeeeee" stroke="black" points="1992,-2089.5 1992,-2125.5 2726,-2125.5 2726,-2089.5 1992,-2089.5"/>
<text text-anchor="start" x="2000" y="-2103.8" font-family="monospace" font-size="14.00">EX_LocalFinalFunction import /Script/Engine&#45;&gt;AnimInstance&#45;&gt;BlueprintInitializeAnimation</text>
</g>
<!-- ExecuteUbergraph_ABP_Vanity_Headwear_Halloween_MissionControl__525 -->
<g id="node20" class="node">
<title>ExecuteUbergraph_ABP_Vanity_Headwear_Halloween_MissionControl__525</title>
<polygon fill="#eeeeee" stroke="black" points="2082.5,-1946.5 2082.5,-2014.5 2635.5,-2014.5 2635.5,-1946.5 2082.5,-1946.5"/>
<text text-anchor="start" x="2090.5" y="-1999.3" font-family="monospace" font-size="14.00">EX_LetBool</text>
<text text-anchor="start" x="2090.5" y="-1984.3" font-family="monospace" font-size="14.00">  EX_LocalVariable [CallFunc_IsValid_ReturnValue]</text>
<text text-anchor="start" x="2090.5" y="-1969.3" font-family="monospace" font-size="14.00">  EX_CallMath import /Script/Engine&#45;&gt;KismetSystemLibrary&#45;&gt;IsValid</text>
<text text-anchor="start" x="2090.5" y="-1954.3" font-family="monospace" font-size="14.00">    EX_InstanceVariable [Point Light]</text>
</g>
<!-- ExecuteUbergraph_ABP_Vanity_Headwear_Halloween_MissionControl__515&#45;&gt;ExecuteUbergraph_ABP_Vanity_Headwear_Halloween_MissionControl__525 -->
<g id="edge18" class="edge">
<title>ExecuteUbergraph_ABP_Vanity_Headwear_Halloween_MissionControl__515&#45;&gt;ExecuteUbergraph_ABP_Vanity_Headwear_Halloween_MissionControl__525</title>
<path fill="none" stroke="black" d="M2359,-2089.64C2359,-2073.37 2359,-2048.03 2359,-2025.97"/>
<polygon fill="black" stroke="black" points="2362.5,-2025.98 2359,-2015.98 2355.5,-2025.98 2362.5,-2025.98"/>
</g>
<!-- ExecuteUbergraph_ABP_Vanity_Headwear_Halloween_MissionControl__554 -->
<g id="node21" class="node">
<title>ExecuteUbergraph_ABP_Vanity_Headwear_Halloween_MissionControl__554</title>
<polygon fill="#eeeeee" stroke="black" points="2148.5,-1870.5 2148.5,-1908.5 2569.5,-1908.5 2569.5,-1870.5 2148.5,-1870.5"/>
<text text-anchor="start" x="2156.5" y="-1893.3" font-family="monospace" font-size="14.00">EX_JumpIfNot 211</text>
<text text-anchor="start" x="2156.5" y="-1878.3" font-family="monospace" font-size="14.00">  EX_LocalVariable [CallFunc_IsValid_ReturnValue]</text>
</g>
<!-- ExecuteUbergraph_ABP_Vanity_Headwear_Halloween_MissionControl__525&#45;&gt;ExecuteUbergraph_ABP_Vanity_Headwear_Halloween_MissionControl__554 -->
<g id="edge19" class="edge">
<title>ExecuteUbergraph_ABP_Vanity_Headwear_Halloween_MissionControl__525&#45;&gt;ExecuteUbergraph_ABP_Vanity_Headwear_Halloween_MissionControl__554</title>
<path fill="none" stroke="black" d="M2359,-1946.61C2359,-1937.79 2359,-1928.32 2359,-1919.72"/>
<polygon fill="black" stroke="black" points="2362.5,-1919.8 2359,-1909.8 2355.5,-1919.8 2362.5,-1919.8"/>
</g>
<!-- ExecuteUbergraph_ABP_Vanity_Headwear_Halloween_MissionControl__554&#45;&gt;ExecuteUbergraph_ABP_Vanity_Headwear_Halloween_MissionControl__211 -->
<g id="edge20" class="edge">
<title>ExecuteUbergraph_ABP_Vanity_Headwear_Halloween_MissionControl__554:e&#45;&gt;ExecuteUbergraph_ABP_Vanity_Headwear_Halloween_MissionControl__211</title>
<path fill="none" stroke="red" d="M2571,-1889.5C2626.27,-1889.5 2679.9,-1856.5 2718.29,-1825.26"/>
<polygon fill="none" stroke="red" points="2720.13,-1828.28 2725.57,-1819.19 2715.65,-1822.9 2720.13,-1828.28"/>
<text text-anchor="middle" x="2729" y="-1840.8" font-family="monospace" font-size="14.00">IF NOT</text>
</g>
<!-- ExecuteUbergraph_ABP_Vanity_Headwear_Halloween_MissionControl__554&#45;&gt;ExecuteUbergraph_ABP_Vanity_Headwear_Halloween_MissionControl__568 -->
<g id="edge21" class="edge">
<title>ExecuteUbergraph_ABP_Vanity_Headwear_Halloween_MissionControl__554&#45;&gt;ExecuteUbergraph_ABP_Vanity_Headwear_Halloween_MissionControl__568</title>
<path fill="none" stroke="black" d="M2352.33,-1870.8C2344.33,-1847.96 2332,-1806.86 2332,-1770.5 2332,-1770.5 2332,-1770.5 2332,-93.5 2332,-30.49 2535.06,-20.55 2645.08,-19.8"/>
<polygon fill="black" stroke="black" points="2644.9,-23.3 2654.88,-19.75 2644.87,-16.3 2644.9,-23.3"/>
<text text-anchor="middle" x="2340.5" y="-919.8" font-family="monospace" font-size="14.00">IF</text>
</g>
<!-- ExecuteUbergraph_ABP_Vanity_Headwear_Halloween_MissionControl__570 -->
<g id="node23" class="node">
<title>ExecuteUbergraph_ABP_Vanity_Headwear_Halloween_MissionControl__570</title>
<polygon fill="#eeeeee" stroke="black" points="2226,-2302.5 2226,-2338.5 2358,-2338.5 2358,-2302.5 2226,-2302.5"/>
<text text-anchor="start" x="2234" y="-2316.8" font-family="monospace" font-size="14.00">EX_EndOfScript</text>
</g>
<!-- BlueprintInitializeAnimation -->
<g id="node24" class="node">
<title>BlueprintInitializeAnimation</title>
<polygon fill="#ff8888" stroke="black" points="1620,-2441 1620,-2477 1942,-2477 1942,-2441 1620,-2441"/>
<text text-anchor="start" x="1628" y="-2455.3" font-family="monospace" font-size="14.00">Function BlueprintInitializeAnimation</text>
</g>
<!-- BlueprintInitializeAnimation__0 -->
<g id="node25" class="node">
<title>BlueprintInitializeAnimation__0</title>
<polygon fill="#eeeeee" stroke="black" points="1203.5,-2223 1203.5,-2261 2358.5,-2261 2358.5,-2223 1203.5,-2223"/>
<text text-anchor="start" x="1211.5" y="-2245.8" font-family="monospace" font-size="14.00">EX_LocalFinalFunction export ABP_Vanity_Headwear_Halloween_MissionControl_C&#45;&gt;ExecuteUbergraph_ABP_Vanity_Headwear_Halloween_MissionControl</text>
<text text-anchor="start" x="1211.5" y="-2230.8" font-family="monospace" font-size="14.00">  EX_IntConst 515</text>
</g>
<!-- BlueprintInitializeAnimation&#45;&gt;BlueprintInitializeAnimation__0 -->
<g id="edge22" class="edge">
<title>BlueprintInitializeAnimation&#45;&gt;BlueprintInitializeAnimation__0</title>
<path fill="none" stroke="black" d="M1781,-2441.13C1781,-2404.68 1781,-2318.17 1781,-2272.47"/>
<polygon fill="black" stroke="black" points="1784.5,-2272.51 1781,-2262.51 1777.5,-2272.51 1784.5,-2272.51"/>
</g>
<!-- BlueprintInitializeAnimation__0&#45;&gt;ExecuteUbergraph_ABP_Vanity_Headwear_Halloween_MissionControl__515 -->
<g id="edge23" class="edge">
<title>BlueprintInitializeAnimation__0:e&#45;&gt;ExecuteUbergraph_ABP_Vanity_Headwear_Halloween_MissionControl__515</title>
<path fill="none" stroke="red" d="M2360,-2242C2401.98,-2242 2384.06,-2175.17 2369.98,-2136.08"/>
<polygon fill="none" stroke="red" points="2373.3,-2134.96 2366.52,-2126.83 2366.74,-2137.42 2373.3,-2134.96"/>
</g>
<!-- BlueprintInitializeAnimation__15 -->
<g id="node26" class="node">
<title>BlueprintInitializeAnimation__15</title>
<polygon fill="#eeeeee" stroke="black" points="1723,-2088.5 1723,-2126.5 1839,-2126.5 1839,-2088.5 1723,-2088.5"/>
<text text-anchor="start" x="1731" y="-2111.3" font-family="monospace" font-size="14.00">EX_Return</text>
<text text-anchor="start" x="1731" y="-2096.3" font-family="monospace" font-size="14.00">  EX_Nothing</text>
</g>
<!-- BlueprintInitializeAnimation__0&#45;&gt;BlueprintInitializeAnimation__15 -->
<g id="edge24" class="edge">
<title>BlueprintInitializeAnimation__0&#45;&gt;BlueprintInitializeAnimation__15</title>
<path fill="none" stroke="black" d="M1781,-2223.13C1781,-2201.18 1781,-2163.64 1781,-2137.53"/>
<polygon fill="black" stroke="black" points="1784.5,-2137.6 1781,-2127.6 1777.5,-2137.6 1784.5,-2137.6"/>
</g>
<!-- BlueprintInitializeAnimation__17 -->
<g id="node27" class="node">
<title>BlueprintInitializeAnimation__17</title>
<polygon fill="#eeeeee" stroke="black" points="2515,-2145.5 2515,-2181.5 2647,-2181.5 2647,-2145.5 2515,-2145.5"/>
<text text-anchor="start" x="2523" y="-2159.8" font-family="monospace" font-size="14.00">EX_EndOfScript</text>
</g>
<!-- AnimGraph -->
<g id="node28" class="node">
<title>AnimGraph</title>
<polygon fill="#ff8888" stroke="black" points="2686.5,-2432.5 2686.5,-2485.5 2917.5,-2485.5 2917.5,-2432.5 2686.5,-2432.5"/>
<text text-anchor="start" x="2694.5" y="-2470.3" font-family="monospace" font-size="14.00">Function AnimGraph</text>
<text text-anchor="start" x="2694.5" y="-2455.3" font-family="monospace" font-size="14.00">  StructProperty AnimGraph</text>
<text text-anchor="start" x="2694.5" y="-2440.3" font-family="monospace" font-size="14.00">    CPF_Parm|CPF_OutParm</text>
</g>
<!-- AnimGraph__0 -->
<g id="node29" class="node">
<title>AnimGraph__0</title>
<polygon fill="#eeeeee" stroke="black" points="2595.5,-2200.5 2595.5,-2283.5 3008.5,-2283.5 3008.5,-2200.5 2595.5,-2200.5"/>
<text text-anchor="start" x="2603.5" y="-2268.3" font-family="monospace" font-size="14.00">EX_Let</text>
<text text-anchor="start" x="2603.5" y="-2253.3" font-family="monospace" font-size="14.00">  EX_LocalOutVariable</text>
<text text-anchor="start" x="2603.5" y="-2238.3" font-family="monospace" font-size="14.00">    [AnimGraph]</text>
<text text-anchor="start" x="2603.5" y="-2223.3" font-family="monospace" font-size="14.00">  EX_StructConst import /Script/Engine&#45;&gt;PoseLink</text>
<text text-anchor="start" x="2603.5" y="-2208.3" font-family="monospace" font-size="14.00">    EX_IntConst &#45;1</text>
</g>
<!-- AnimGraph&#45;&gt;AnimGraph__0 -->
<g id="edge25" class="edge">
<title>AnimGraph&#45;&gt;AnimGraph__0</title>
<path fill="none" stroke="black" d="M2802,-2432.92C2802,-2399.16 2802,-2338.3 2802,-2294.56"/>
<polygon fill="black" stroke="black" points="2805.5,-2294.79 2802,-2284.79 2798.5,-2294.79 2805.5,-2294.79"/>
</g>
<!-- AnimGraph__37 -->
<g id="node30" class="node">
<title>AnimGraph__37</title>
<polygon fill="#eeeeee" stroke="black" points="2744,-2088.5 2744,-2126.5 2860,-2126.5 2860,-2088.5 2744,-2088.5"/>
<text text-anchor="start" x="2752" y="-2111.3" font-family="monospace" font-size="14.00">EX_Return</text>
<text text-anchor="start" x="2752" y="-2096.3" font-family="monospace" font-size="14.00">  EX_Nothing</text>
</g>
<!-- AnimGraph__0&#45;&gt;AnimGraph__37 -->
<g id="edge26" class="edge">
<title>AnimGraph__0&#45;&gt;AnimGraph__37</title>
<path fill="none" stroke="black" d="M2802,-2200.53C2802,-2180.27 2802,-2156.21 2802,-2137.77"/>
<polygon fill="black" stroke="black" points="2805.5,-2137.8 2802,-2127.8 2798.5,-2137.8 2805.5,-2137.8"/>
</g>
<!-- AnimGraph__39 -->
<g id="node31" class="node">
<title>AnimGraph__39</title>
<polygon fill="#eeeeee" stroke="black" points="2374,-2033.5 2374,-2069.5 2506,-2069.5 2506,-2033.5 2374,-2033.5"/>
<text text-anchor="start" x="2382" y="-2047.8" font-family="monospace" font-size="14.00">EX_EndOfScript</text>
</g>
</g>
</svg>
