<?xml version="1.0" encoding="UTF-8" standalone="no"?>
<!DOCTYPE svg PUBLIC "-//W3C//DTD SVG 1.1//EN"
 "http://www.w3.org/Graphics/SVG/1.1/DTD/svg11.dtd">
<!-- Generated by graphviz version 7.0.1 (0)
 -->
<!-- Pages: 1 -->
<svg width="1580pt" height="377pt"
 viewBox="0.00 0.00 1579.50 377.00" xmlns="http://www.w3.org/2000/svg" xmlns:xlink="http://www.w3.org/1999/xlink">
<g id="graph0" class="graph" transform="scale(1 1) rotate(0) translate(4 373)">
<polygon fill="white" stroke="none" points="-4,4 -4,-373 1575.5,-373 1575.5,4 -4,4"/>
<!-- ABP_Vanity_Headwear_Oktoberfest_BeerBarrel_C -->
<g id="node1" class="node">
<title>ABP_Vanity_Headwear_Oktoberfest_BeerBarrel_C</title>
<polygon fill="#88ff88" stroke="black" points="0,-195.5 0,-368.5 487,-368.5 487,-195.5 0,-195.5"/>
<text text-anchor="start" x="8" y="-353.3" font-family="monospace" font-size="14.00">ClassExport: ABP_Vanity_Headwear_Oktoberfest_BeerBarrel_C</text>
<text text-anchor="start" x="8" y="-338.3" font-family="monospace" font-size="14.00">  SuperStruct: import /Script/FSD&#45;&gt;VanityAnimInstance</text>
<text text-anchor="start" x="8" y="-323.3" font-family="monospace" font-size="14.00">  Properties:</text>
<text text-anchor="start" x="8" y="-308.3" font-family="monospace" font-size="14.00">    StructProperty UberGraphFrame</text>
<text text-anchor="start" x="8" y="-293.3" font-family="monospace" font-size="14.00">      CPF_Transient|CPF_DuplicateTransient</text>
<text text-anchor="start" x="8" y="-278.3" font-family="monospace" font-size="14.00">    StructProperty AnimGraphNode_Root</text>
<text text-anchor="start" x="8" y="-263.3" font-family="monospace" font-size="14.00">    StructProperty AnimGraphNode_CopyPoseFromMesh</text>
<text text-anchor="start" x="8" y="-248.3" font-family="monospace" font-size="14.00">      CPF_ContainsInstancedReference</text>
<text text-anchor="start" x="8" y="-233.3" font-family="monospace" font-size="14.00">    StructProperty AnimGraphNode_RigidBody</text>
<text text-anchor="start" x="8" y="-218.3" font-family="monospace" font-size="14.00">    StructProperty AnimGraphNode_LocalToComponentSpace</text>
<text text-anchor="start" x="8" y="-203.3" font-family="monospace" font-size="14.00">    StructProperty AnimGraphNode_ComponentToLocalSpace</text>
</g>
<!-- ExecuteUbergraph_ABP_Vanity_Headwear_Oktoberfest_BeerBarrel -->
<g id="node2" class="node">
<title>ExecuteUbergraph_ABP_Vanity_Headwear_Oktoberfest_BeerBarrel</title>
<polygon fill="#ff8888" stroke="black" points="505.5,-255.5 505.5,-308.5 1083.5,-308.5 1083.5,-255.5 505.5,-255.5"/>
<text text-anchor="start" x="513.5" y="-293.3" font-family="monospace" font-size="14.00">Function ExecuteUbergraph_ABP_Vanity_Headwear_Oktoberfest_BeerBarrel</text>
<text text-anchor="start" x="513.5" y="-278.3" font-family="monospace" font-size="14.00">  IntProperty EntryPoint</text>
<text text-anchor="start" x="513.5" y="-263.3" font-family="monospace" font-size="14.00">    CPF_BlueprintVisible|CPF_BlueprintReadOnly|CPF_Parm</text>
</g>
<!-- ExecuteUbergraph_ABP_Vanity_Headwear_Oktoberfest_BeerBarrel__0 -->
<g id="node3" class="node">
<title>ExecuteUbergraph_ABP_Vanity_Headwear_Oktoberfest_BeerBarrel__0</title>
<polygon fill="#eeeeee" stroke="black" points="658.5,-98 658.5,-136 930.5,-136 930.5,-98 658.5,-98"/>
<text text-anchor="start" x="666.5" y="-120.8" font-family="monospace" font-size="14.00">EX_ComputedJump</text>
<text text-anchor="start" x="666.5" y="-105.8" font-family="monospace" font-size="14.00">  EX_LocalVariable [EntryPoint]</text>
</g>
<!-- ExecuteUbergraph_ABP_Vanity_Headwear_Oktoberfest_BeerBarrel&#45;&gt;ExecuteUbergraph_ABP_Vanity_Headwear_Oktoberfest_BeerBarrel__0 -->
<g id="edge1" class="edge">
<title>ExecuteUbergraph_ABP_Vanity_Headwear_Oktoberfest_BeerBarrel&#45;&gt;ExecuteUbergraph_ABP_Vanity_Headwear_Oktoberfest_BeerBarrel__0</title>
<path fill="none" stroke="black" d="M794.5,-255.53C794.5,-226.13 794.5,-177.86 794.5,-147.03"/>
<polygon fill="black" stroke="black" points="798,-147.27 794.5,-137.27 791,-147.27 798,-147.27"/>
</g>
<!-- ExecuteUbergraph_ABP_Vanity_Headwear_Oktoberfest_BeerBarrel__10 -->
<g id="node4" class="node">
<title>ExecuteUbergraph_ABP_Vanity_Headwear_Oktoberfest_BeerBarrel__10</title>
<polygon fill="#eeeeee" stroke="black" points="1113.5,-0.5 1113.5,-38.5 1229.5,-38.5 1229.5,-0.5 1113.5,-0.5"/>
<text text-anchor="start" x="1121.5" y="-23.3" font-family="monospace" font-size="14.00">EX_Return</text>
<text text-anchor="start" x="1121.5" y="-8.3" font-family="monospace" font-size="14.00">  EX_Nothing</text>
</g>
<!-- ExecuteUbergraph_ABP_Vanity_Headwear_Oktoberfest_BeerBarrel__12 -->
<g id="node5" class="node">
<title>ExecuteUbergraph_ABP_Vanity_Headwear_Oktoberfest_BeerBarrel__12</title>
<polygon fill="#eeeeee" stroke="black" points="948.5,-99 948.5,-135 1080.5,-135 1080.5,-99 948.5,-99"/>
<text text-anchor="start" x="956.5" y="-113.3" font-family="monospace" font-size="14.00">EX_EndOfScript</text>
</g>
<!-- AnimGraph -->
<g id="node6" class="node">
<title>AnimGraph</title>
<polygon fill="#ff8888" stroke="black" points="1190,-255.5 1190,-308.5 1421,-308.5 1421,-255.5 1190,-255.5"/>
<text text-anchor="start" x="1198" y="-293.3" font-family="monospace" font-size="14.00">Function AnimGraph</text>
<text text-anchor="start" x="1198" y="-278.3" font-family="monospace" font-size="14.00">  StructProperty AnimGraph</text>
<text text-anchor="start" x="1198" y="-263.3" font-family="monospace" font-size="14.00">    CPF_Parm|CPF_OutParm</text>
</g>
<!-- AnimGraph__0 -->
<g id="node7" class="node">
<title>AnimGraph__0</title>
<polygon fill="#eeeeee" stroke="black" points="1099,-75.5 1099,-158.5 1512,-158.5 1512,-75.5 1099,-75.5"/>
<text text-anchor="start" x="1107" y="-143.3" font-family="monospace" font-size="14.00">EX_Let</text>
<text text-anchor="start" x="1107" y="-128.3" font-family="monospace" font-size="14.00">  EX_LocalOutVariable</text>
<text text-anchor="start" x="1107" y="-113.3" font-family="monospace" font-size="14.00">    [AnimGraph]</text>
<text text-anchor="start" x="1107" y="-98.3" font-family="monospace" font-size="14.00">  EX_StructConst import /Script/Engine&#45;&gt;PoseLink</text>
<text text-anchor="start" x="1107" y="-83.3" font-family="monospace" font-size="14.00">    EX_IntConst &#45;1</text>
</g>
<!-- AnimGraph&#45;&gt;AnimGraph__0 -->
<g id="edge2" class="edge">
<title>AnimGraph&#45;&gt;AnimGraph__0</title>
<path fill="none" stroke="black" d="M1305.5,-255.53C1305.5,-232.63 1305.5,-198.29 1305.5,-169.65"/>
<polygon fill="black" stroke="black" points="1309,-169.7 1305.5,-159.7 1302,-169.7 1309,-169.7"/>
</g>
<!-- AnimGraph__37 -->
<g id="node8" class="node">
<title>AnimGraph__37</title>
<polygon fill="#eeeeee" stroke="black" points="1247.5,-0.5 1247.5,-38.5 1363.5,-38.5 1363.5,-0.5 1247.5,-0.5"/>
<text text-anchor="start" x="1255.5" y="-23.3" font-family="monospace" font-size="14.00">EX_Return</text>
<text text-anchor="start" x="1255.5" y="-8.3" font-family="monospace" font-size="14.00">  EX_Nothing</text>
</g>
<!-- AnimGraph__0&#45;&gt;AnimGraph__37 -->
<g id="edge3" class="edge">
<title>AnimGraph__0&#45;&gt;AnimGraph__37</title>
<path fill="none" stroke="black" d="M1305.5,-75.78C1305.5,-67.01 1305.5,-57.89 1305.5,-49.65"/>
<polygon fill="black" stroke="black" points="1309,-49.86 1305.5,-39.86 1302,-49.86 1309,-49.86"/>
</g>
<!-- AnimGraph__39 -->
<g id="node9" class="node">
<title>AnimGraph__39</title>
<polygon fill="#eeeeee" stroke="black" points="1439.5,-264 1439.5,-300 1571.5,-300 1571.5,-264 1439.5,-264"/>
<text text-anchor="start" x="1447.5" y="-278.3" font-family="monospace" font-size="14.00">EX_EndOfScript</text>
</g>
</g>
</svg>
