<?xml version="1.0" encoding="UTF-8" standalone="no"?>
<!DOCTYPE svg PUBLIC "-//W3C//DTD SVG 1.1//EN"
 "http://www.w3.org/Graphics/SVG/1.1/DTD/svg11.dtd">
<!-- Generated by graphviz version 7.0.1 (0)
 -->
<!-- Pages: 1 -->
<svg width="1521pt" height="377pt"
 viewBox="0.00 0.00 1521.00 377.00" xmlns="http://www.w3.org/2000/svg" xmlns:xlink="http://www.w3.org/1999/xlink">
<g id="graph0" class="graph" transform="scale(1 1) rotate(0) translate(4 373)">
<polygon fill="white" stroke="none" points="-4,4 -4,-373 1517,-373 1517,4 -4,4"/>
<!-- ABP_Vanity_Headwear_XmasHat_Rigged_C -->
<g id="node1" class="node">
<title>ABP_Vanity_Headwear_XmasHat_Rigged_C</title>
<polygon fill="#88ff88" stroke="black" points="0,-195.5 0,-368.5 462,-368.5 462,-195.5 0,-195.5"/>
<text text-anchor="start" x="8" y="-353.3" font-family="monospace" font-size="14.00">ClassExport: ABP_Vanity_Headwear_XmasHat_Rigged_C</text>
<text text-anchor="start" x="8" y="-338.3" font-family="monospace" font-size="14.00">  SuperStruct: import /Script/FSD&#45;&gt;VanityAnimInstance</text>
<text text-anchor="start" x="8" y="-323.3" font-family="monospace" font-size="14.00">  Properties:</text>
<text text-anchor="start" x="8" y="-308.3" font-family="monospace" font-size="14.00">    StructProperty UberGraphFrame</text>
<text text-anchor="start" x="8" y="-293.3" font-family="monospace" font-size="14.00">      CPF_Transient|CPF_DuplicateTransient</text>
<text text-anchor="start" x="8" y="-278.3" font-family="monospace" font-size="14.00">    StructProperty AnimGraphNode_Root</text>
<text text-anchor="start" x="8" y="-263.3" font-family="monospace" font-size="14.00">    StructProperty AnimGraphNode_CopyPoseFromMesh</text>
<text text-anchor="start" x="8" y="-248.3" font-family="monospace" font-size="14.00">      CPF_ContainsInstancedReference</text>
<text text-anchor="start" x="8" y="-233.3" font-family="monospace" font-size="14.00">    StructProperty AnimGraphNode_RigidBody</text>
<text text-anchor="start" x="8" y="-218.3" font-family="monospace" font-size="14.00">    StructProperty AnimGraphNode_LocalToComponentSpace</text>
<text text-anchor="start" x="8" y="-203.3" font-family="monospace" font-size="14.00">    StructProperty AnimGraphNode_ComponentToLocalSpace</text>
</g>
<!-- ExecuteUbergraph_ABP_Vanity_Headwear_XmasHat_Rigged -->
<g id="node2" class="node">
<title>ExecuteUbergraph_ABP_Vanity_Headwear_XmasHat_Rigged</title>
<polygon fill="#ff8888" stroke="black" points="480,-255.5 480,-308.5 992,-308.5 992,-255.5 480,-255.5"/>
<text text-anchor="start" x="488" y="-293.3" font-family="monospace" font-size="14.00">Function ExecuteUbergraph_ABP_Vanity_Headwear_XmasHat_Rigged</text>
<text text-anchor="start" x="488" y="-278.3" font-family="monospace" font-size="14.00">  IntProperty EntryPoint</text>
<text text-anchor="start" x="488" y="-263.3" font-family="monospace" font-size="14.00">    CPF_BlueprintVisible|CPF_BlueprintReadOnly|CPF_Parm</text>
</g>
<!-- ExecuteUbergraph_ABP_Vanity_Headwear_XmasHat_Rigged__0 -->
<g id="node3" class="node">
<title>ExecuteUbergraph_ABP_Vanity_Headwear_XmasHat_Rigged__0</title>
<polygon fill="#eeeeee" stroke="black" points="600,-98 600,-136 872,-136 872,-98 600,-98"/>
<text text-anchor="start" x="608" y="-120.8" font-family="monospace" font-size="14.00">EX_ComputedJump</text>
<text text-anchor="start" x="608" y="-105.8" font-family="monospace" font-size="14.00">  EX_LocalVariable [EntryPoint]</text>
</g>
<!-- ExecuteUbergraph_ABP_Vanity_Headwear_XmasHat_Rigged&#45;&gt;ExecuteUbergraph_ABP_Vanity_Headwear_XmasHat_Rigged__0 -->
<g id="edge1" class="edge">
<title>ExecuteUbergraph_ABP_Vanity_Headwear_XmasHat_Rigged&#45;&gt;ExecuteUbergraph_ABP_Vanity_Headwear_XmasHat_Rigged__0</title>
<path fill="none" stroke="black" d="M736,-255.53C736,-226.13 736,-177.86 736,-147.03"/>
<polygon fill="black" stroke="black" points="739.5,-147.27 736,-137.27 732.5,-147.27 739.5,-147.27"/>
</g>
<!-- ExecuteUbergraph_ABP_Vanity_Headwear_XmasHat_Rigged__10 -->
<g id="node4" class="node">
<title>ExecuteUbergraph_ABP_Vanity_Headwear_XmasHat_Rigged__10</title>
<polygon fill="#eeeeee" stroke="black" points="1055,-0.5 1055,-38.5 1171,-38.5 1171,-0.5 1055,-0.5"/>
<text text-anchor="start" x="1063" y="-23.3" font-family="monospace" font-size="14.00">EX_Return</text>
<text text-anchor="start" x="1063" y="-8.3" font-family="monospace" font-size="14.00">  EX_Nothing</text>
</g>
<!-- ExecuteUbergraph_ABP_Vanity_Headwear_XmasHat_Rigged__12 -->
<g id="node5" class="node">
<title>ExecuteUbergraph_ABP_Vanity_Headwear_XmasHat_Rigged__12</title>
<polygon fill="#eeeeee" stroke="black" points="890,-99 890,-135 1022,-135 1022,-99 890,-99"/>
<text text-anchor="start" x="898" y="-113.3" font-family="monospace" font-size="14.00">EX_EndOfScript</text>
</g>
<!-- AnimGraph -->
<g id="node6" class="node">
<title>AnimGraph</title>
<polygon fill="#ff8888" stroke="black" points="1131.5,-255.5 1131.5,-308.5 1362.5,-308.5 1362.5,-255.5 1131.5,-255.5"/>
<text text-anchor="start" x="1139.5" y="-293.3" font-family="monospace" font-size="14.00">Function AnimGraph</text>
<text text-anchor="start" x="1139.5" y="-278.3" font-family="monospace" font-size="14.00">  StructProperty AnimGraph</text>
<text text-anchor="start" x="1139.5" y="-263.3" font-family="monospace" font-size="14.00">    CPF_Parm|CPF_OutParm</text>
</g>
<!-- AnimGraph__0 -->
<g id="node7" class="node">
<title>AnimGraph__0</title>
<polygon fill="#eeeeee" stroke="black" points="1040.5,-75.5 1040.5,-158.5 1453.5,-158.5 1453.5,-75.5 1040.5,-75.5"/>
<text text-anchor="start" x="1048.5" y="-143.3" font-family="monospace" font-size="14.00">EX_Let</text>
<text text-anchor="start" x="1048.5" y="-128.3" font-family="monospace" font-size="14.00">  EX_LocalOutVariable</text>
<text text-anchor="start" x="1048.5" y="-113.3" font-family="monospace" font-size="14.00">    [AnimGraph]</text>
<text text-anchor="start" x="1048.5" y="-98.3" font-family="monospace" font-size="14.00">  EX_StructConst import /Script/Engine&#45;&gt;PoseLink</text>
<text text-anchor="start" x="1048.5" y="-83.3" font-family="monospace" font-size="14.00">    EX_IntConst &#45;1</text>
</g>
<!-- AnimGraph&#45;&gt;AnimGraph__0 -->
<g id="edge2" class="edge">
<title>AnimGraph&#45;&gt;AnimGraph__0</title>
<path fill="none" stroke="black" d="M1247,-255.53C1247,-232.63 1247,-198.29 1247,-169.65"/>
<polygon fill="black" stroke="black" points="1250.5,-169.7 1247,-159.7 1243.5,-169.7 1250.5,-169.7"/>
</g>
<!-- AnimGraph__37 -->
<g id="node8" class="node">
<title>AnimGraph__37</title>
<polygon fill="#eeeeee" stroke="black" points="1189,-0.5 1189,-38.5 1305,-38.5 1305,-0.5 1189,-0.5"/>
<text text-anchor="start" x="1197" y="-23.3" font-family="monospace" font-size="14.00">EX_Return</text>
<text text-anchor="start" x="1197" y="-8.3" font-family="monospace" font-size="14.00">  EX_Nothing</text>
</g>
<!-- AnimGraph__0&#45;&gt;AnimGraph__37 -->
<g id="edge3" class="edge">
<title>AnimGraph__0&#45;&gt;AnimGraph__37</title>
<path fill="none" stroke="black" d="M1247,-75.78C1247,-67.01 1247,-57.89 1247,-49.65"/>
<polygon fill="black" stroke="black" points="1250.5,-49.86 1247,-39.86 1243.5,-49.86 1250.5,-49.86"/>
</g>
<!-- AnimGraph__39 -->
<g id="node9" class="node">
<title>AnimGraph__39</title>
<polygon fill="#eeeeee" stroke="black" points="1381,-264 1381,-300 1513,-300 1513,-264 1381,-264"/>
<text text-anchor="start" x="1389" y="-278.3" font-family="monospace" font-size="14.00">EX_EndOfScript</text>
</g>
</g>
</svg>
