<?xml version="1.0" encoding="UTF-8" standalone="no"?>
<!DOCTYPE svg PUBLIC "-//W3C//DTD SVG 1.1//EN"
 "http://www.w3.org/Graphics/SVG/1.1/DTD/svg11.dtd">
<!-- Generated by graphviz version 7.0.1 (0)
 -->
<!-- Pages: 1 -->
<svg width="1877pt" height="210pt"
 viewBox="0.00 0.00 1876.50 210.00" xmlns="http://www.w3.org/2000/svg" xmlns:xlink="http://www.w3.org/1999/xlink">
<g id="graph0" class="graph" transform="scale(1 1) rotate(0) translate(4 206)">
<polygon fill="white" stroke="none" points="-4,4 -4,-206 1872.5,-206 1872.5,4 -4,4"/>
<!-- BP_BrokenDNA_4_AutoRot_C -->
<g id="node1" class="node">
<title>BP_BrokenDNA_4_AutoRot_C</title>
<polygon fill="#88ff88" stroke="black" points="0,-148.5 0,-201.5 957,-201.5 957,-148.5 0,-148.5"/>
<text text-anchor="start" x="8" y="-186.3" font-family="monospace" font-size="14.00">ClassExport: BP_BrokenDNA_4_AutoRot_C</text>
<text text-anchor="start" x="8" y="-171.3" font-family="monospace" font-size="14.00">  SuperStruct: import /Game/LevelElements/RoomObjects/HugeCarvers/BrokenDNA/BP_BrokenDNA_Base&#45;&gt;BP_BrokenDNA_Base_C</text>
<text text-anchor="start" x="8" y="-156.3" font-family="monospace" font-size="14.00">  Properties:</text>
</g>
<!-- UserConstructionScript -->
<g id="node2" class="node">
<title>UserConstructionScript</title>
<polygon fill="#ff8888" stroke="black" points="975.5,-157 975.5,-193 1247.5,-193 1247.5,-157 975.5,-157"/>
<text text-anchor="start" x="983.5" y="-171.3" font-family="monospace" font-size="14.00">Function UserConstructionScript</text>
</g>
<!-- UserConstructionScript__0 -->
<g id="node3" class="node">
<title>UserConstructionScript__0</title>
<polygon fill="#eeeeee" stroke="black" points="505,-75.5 505,-111.5 1718,-111.5 1718,-75.5 505,-75.5"/>
<text text-anchor="start" x="513" y="-89.8" font-family="monospace" font-size="14.00">EX_LocalFinalFunction import /Game/LevelElements/RoomObjects/HugeCarvers/BrokenDNA/BP_BrokenDNA_Base&#45;&gt;BP_BrokenDNA_Base_C&#45;&gt;UserConstructionScript</text>
</g>
<!-- UserConstructionScript&#45;&gt;UserConstructionScript__0 -->
<g id="edge1" class="edge">
<title>UserConstructionScript&#45;&gt;UserConstructionScript__0</title>
<path fill="none" stroke="black" d="M1111.5,-157.14C1111.5,-147.13 1111.5,-134.17 1111.5,-122.65"/>
<polygon fill="black" stroke="black" points="1115,-122.85 1111.5,-112.85 1108,-122.85 1115,-122.85"/>
</g>
<!-- UserConstructionScript__10 -->
<g id="node4" class="node">
<title>UserConstructionScript__10</title>
<polygon fill="#eeeeee" stroke="black" points="1053.5,-0.5 1053.5,-38.5 1169.5,-38.5 1169.5,-0.5 1053.5,-0.5"/>
<text text-anchor="start" x="1061.5" y="-23.3" font-family="monospace" font-size="14.00">EX_Return</text>
<text text-anchor="start" x="1061.5" y="-8.3" font-family="monospace" font-size="14.00">  EX_Nothing</text>
</g>
<!-- UserConstructionScript__0&#45;&gt;UserConstructionScript__10 -->
<g id="edge2" class="edge">
<title>UserConstructionScript__0&#45;&gt;UserConstructionScript__10</title>
<path fill="none" stroke="black" d="M1111.5,-75.8C1111.5,-68.09 1111.5,-58.7 1111.5,-49.86"/>
<polygon fill="black" stroke="black" points="1115,-49.88 1111.5,-39.88 1108,-49.88 1115,-49.88"/>
</g>
<!-- UserConstructionScript__12 -->
<g id="node5" class="node">
<title>UserConstructionScript__12</title>
<polygon fill="#eeeeee" stroke="black" points="1736.5,-75.5 1736.5,-111.5 1868.5,-111.5 1868.5,-75.5 1736.5,-75.5"/>
<text text-anchor="start" x="1744.5" y="-89.8" font-family="monospace" font-size="14.00">EX_EndOfScript</text>
</g>
</g>
</svg>
