<?xml version="1.0" encoding="UTF-8" standalone="no"?>
<!DOCTYPE svg PUBLIC "-//W3C//DTD SVG 1.1//EN"
 "http://www.w3.org/Graphics/SVG/1.1/DTD/svg11.dtd">
<!-- Generated by graphviz version 7.0.1 (0)
 -->
<!-- Pages: 1 -->
<svg width="3235pt" height="827pt"
 viewBox="0.00 0.00 3234.50 827.00" xmlns="http://www.w3.org/2000/svg" xmlns:xlink="http://www.w3.org/1999/xlink">
<g id="graph0" class="graph" transform="scale(1 1) rotate(0) translate(4 823)">
<polygon fill="white" stroke="none" points="-4,4 -4,-823 3230.5,-823 3230.5,4 -4,4"/>
<!-- AIC_LootBug_C -->
<g id="node1" class="node">
<title>AIC_LootBug_C</title>
<polygon fill="#88ff88" stroke="black" points="0,-698 0,-781 429,-781 429,-698 0,-698"/>
<text text-anchor="start" x="8" y="-765.8" font-family="monospace" font-size="14.00">ClassExport: AIC_LootBug_C</text>
<text text-anchor="start" x="8" y="-750.8" font-family="monospace" font-size="14.00">  SuperStruct: import /Script/FSD&#45;&gt;FSDAIController</text>
<text text-anchor="start" x="8" y="-735.8" font-family="monospace" font-size="14.00">  Properties:</text>
<text text-anchor="start" x="8" y="-720.8" font-family="monospace" font-size="14.00">    StructProperty UberGraphFrame</text>
<text text-anchor="start" x="8" y="-705.8" font-family="monospace" font-size="14.00">      CPF_Transient|CPF_DuplicateTransient</text>
</g>
<!-- ExecuteUbergraph_AIC_LootBug -->
<g id="node2" class="node">
<title>ExecuteUbergraph_AIC_LootBug</title>
<polygon fill="#ff8888" stroke="black" points="447,-660.5 447,-818.5 934,-818.5 934,-660.5 447,-660.5"/>
<text text-anchor="start" x="455" y="-803.3" font-family="monospace" font-size="14.00">Function ExecuteUbergraph_AIC_LootBug</text>
<text text-anchor="start" x="455" y="-788.3" font-family="monospace" font-size="14.00">  IntProperty EntryPoint</text>
<text text-anchor="start" x="455" y="-773.3" font-family="monospace" font-size="14.00">    CPF_BlueprintVisible|CPF_BlueprintReadOnly|CPF_Parm</text>
<text text-anchor="start" x="455" y="-758.3" font-family="monospace" font-size="14.00">  ObjectProperty K2Node_CustomEvent_HealthComponent</text>
<text text-anchor="start" x="455" y="-743.3" font-family="monospace" font-size="14.00">    CPF_InstancedReference</text>
<text text-anchor="start" x="455" y="-728.3" font-family="monospace" font-size="14.00">  DelegateProperty K2Node_CreateDelegate_OutputDelegate</text>
<text text-anchor="start" x="455" y="-713.3" font-family="monospace" font-size="14.00">  BoolProperty CallFunc_RunBehaviorTree_ReturnValue</text>
<text text-anchor="start" x="455" y="-698.3" font-family="monospace" font-size="14.00">  ObjectProperty K2Node_Event_PossessedPawn</text>
<text text-anchor="start" x="455" y="-683.3" font-family="monospace" font-size="14.00">  ObjectProperty CallFunc_GetComponentByClass_ReturnValue</text>
<text text-anchor="start" x="455" y="-668.3" font-family="monospace" font-size="14.00">    CPF_InstancedReference</text>
</g>
<!-- ExecuteUbergraph_AIC_LootBug__0 -->
<g id="node3" class="node">
<title>ExecuteUbergraph_AIC_LootBug__0</title>
<polygon fill="#eeeeee" stroke="black" points="554.5,-585.5 554.5,-623.5 826.5,-623.5 826.5,-585.5 554.5,-585.5"/>
<text text-anchor="start" x="562.5" y="-608.3" font-family="monospace" font-size="14.00">EX_ComputedJump</text>
<text text-anchor="start" x="562.5" y="-593.3" font-family="monospace" font-size="14.00">  EX_LocalVariable [EntryPoint]</text>
</g>
<!-- ExecuteUbergraph_AIC_LootBug&#45;&gt;ExecuteUbergraph_AIC_LootBug__0 -->
<g id="edge1" class="edge">
<title>ExecuteUbergraph_AIC_LootBug&#45;&gt;ExecuteUbergraph_AIC_LootBug__0</title>
<path fill="none" stroke="black" d="M690.5,-660.75C690.5,-651.5 690.5,-642.54 690.5,-634.64"/>
<polygon fill="black" stroke="black" points="694,-634.69 690.5,-624.69 687,-634.69 694,-634.69"/>
</g>
<!-- ExecuteUbergraph_AIC_LootBug__10 -->
<g id="node4" class="node">
<title>ExecuteUbergraph_AIC_LootBug__10</title>
<polygon fill="#eeeeee" stroke="black" points="2854.5,-360.5 2854.5,-443.5 3184.5,-443.5 3184.5,-360.5 2854.5,-360.5"/>
<text text-anchor="start" x="2862.5" y="-428.3" font-family="monospace" font-size="14.00">EX_Context</text>
<text text-anchor="start" x="2862.5" y="-413.3" font-family="monospace" font-size="14.00">  EX_InstanceVariable [BrainComponent]</text>
<text text-anchor="start" x="2862.5" y="-398.3" font-family="monospace" font-size="14.00">  EX_VirtualFunction StopLogic</text>
<text text-anchor="start" x="2862.5" y="-383.3" font-family="monospace" font-size="14.00">    EX_StringConst Death</text>
<text text-anchor="start" x="2862.5" y="-368.3" font-family="monospace" font-size="14.00">  RValue = []</text>
</g>
<!-- ExecuteUbergraph_AIC_LootBug__53 -->
<g id="node5" class="node">
<title>ExecuteUbergraph_AIC_LootBug__53</title>
<polygon fill="#eeeeee" stroke="black" points="2853,-249 2853,-285 2960,-285 2960,-249 2853,-249"/>
<text text-anchor="start" x="2861" y="-263.3" font-family="monospace" font-size="14.00">EX_Jump 211</text>
</g>
<!-- ExecuteUbergraph_AIC_LootBug__10&#45;&gt;ExecuteUbergraph_AIC_LootBug__53 -->
<g id="edge2" class="edge">
<title>ExecuteUbergraph_AIC_LootBug__10&#45;&gt;ExecuteUbergraph_AIC_LootBug__53</title>
<path fill="none" stroke="black" d="M2985.29,-360.73C2966.76,-338.92 2944.41,-312.62 2928.26,-293.61"/>
<polygon fill="black" stroke="black" points="2930.99,-291.42 2921.85,-286.07 2925.66,-295.95 2930.99,-291.42"/>
</g>
<!-- ExecuteUbergraph_AIC_LootBug__211 -->
<g id="node11" class="node">
<title>ExecuteUbergraph_AIC_LootBug__211</title>
<polygon fill="#eeeeee" stroke="black" points="2366.5,-0.5 2366.5,-38.5 2482.5,-38.5 2482.5,-0.5 2366.5,-0.5"/>
<text text-anchor="start" x="2374.5" y="-23.3" font-family="monospace" font-size="14.00">EX_Return</text>
<text text-anchor="start" x="2374.5" y="-8.3" font-family="monospace" font-size="14.00">  EX_Nothing</text>
</g>
<!-- ExecuteUbergraph_AIC_LootBug__53&#45;&gt;ExecuteUbergraph_AIC_LootBug__211 -->
<g id="edge3" class="edge">
<title>ExecuteUbergraph_AIC_LootBug__53&#45;&gt;ExecuteUbergraph_AIC_LootBug__211</title>
<path fill="none" stroke="black" d="M2894.1,-249.07C2865.14,-210.93 2788.9,-118.29 2701.5,-75 2619.79,-34.53 2586.42,-57.74 2493.2,-39.15"/>
<polygon fill="black" stroke="black" points="2494.14,-35.77 2483.63,-37.13 2492.69,-42.62 2494.14,-35.77"/>
</g>
<!-- ExecuteUbergraph_AIC_LootBug__58 -->
<g id="node6" class="node">
<title>ExecuteUbergraph_AIC_LootBug__58</title>
<polygon fill="#eeeeee" stroke="black" points="1191.5,-480.5 1191.5,-548.5 1793.5,-548.5 1793.5,-480.5 1191.5,-480.5"/>
<text text-anchor="start" x="1199.5" y="-533.3" font-family="monospace" font-size="14.00">EX_LetBool</text>
<text text-anchor="start" x="1199.5" y="-518.3" font-family="monospace" font-size="14.00">  EX_LocalVariable [CallFunc_RunBehaviorTree_ReturnValue]</text>
<text text-anchor="start" x="1199.5" y="-503.3" font-family="monospace" font-size="14.00">  EX_VirtualFunction RunBehaviorTree</text>
<text text-anchor="start" x="1199.5" y="-488.3" font-family="monospace" font-size="14.00">    EX_ObjectConst import /Game/Critters/LootBug/BT_LootBug&#45;&gt;BT_LootBug</text>
</g>
<!-- ExecuteUbergraph_AIC_LootBug__91 -->
<g id="node7" class="node">
<title>ExecuteUbergraph_AIC_LootBug__91</title>
<polygon fill="#eeeeee" stroke="black" points="1867,-106.5 1867,-142.5 1974,-142.5 1974,-106.5 1867,-106.5"/>
<text text-anchor="start" x="1875" y="-120.8" font-family="monospace" font-size="14.00">EX_Jump 211</text>
</g>
<!-- ExecuteUbergraph_AIC_LootBug__58&#45;&gt;ExecuteUbergraph_AIC_LootBug__91 -->
<g id="edge4" class="edge">
<title>ExecuteUbergraph_AIC_LootBug__58&#45;&gt;ExecuteUbergraph_AIC_LootBug__91</title>
<path fill="none" stroke="black" d="M1528.62,-480.75C1612.67,-404.56 1819.8,-216.79 1893.74,-149.76"/>
<polygon fill="black" stroke="black" points="1895.9,-152.53 1900.95,-143.22 1891.2,-147.34 1895.9,-152.53"/>
</g>
<!-- ExecuteUbergraph_AIC_LootBug__91&#45;&gt;ExecuteUbergraph_AIC_LootBug__211 -->
<g id="edge5" class="edge">
<title>ExecuteUbergraph_AIC_LootBug__91&#45;&gt;ExecuteUbergraph_AIC_LootBug__211</title>
<path fill="none" stroke="black" d="M1973.65,-111.89C2019.62,-101.91 2087.89,-87.23 2147.5,-75 2218.24,-60.48 2299.32,-44.62 2355.39,-33.77"/>
<polygon fill="black" stroke="black" points="2355.98,-37.23 2365.13,-31.89 2354.65,-30.35 2355.98,-37.23"/>
</g>
<!-- ExecuteUbergraph_AIC_LootBug__96 -->
<g id="node8" class="node">
<title>ExecuteUbergraph_AIC_LootBug__96</title>
<polygon fill="#eeeeee" stroke="black" points="2181,-375.5 2181,-428.5 2668,-428.5 2668,-375.5 2181,-375.5"/>
<text text-anchor="start" x="2189" y="-413.3" font-family="monospace" font-size="14.00">EX_BindDelegate OnDeath</text>
<text text-anchor="start" x="2189" y="-398.3" font-family="monospace" font-size="14.00">  EX_LocalVariable [K2Node_CreateDelegate_OutputDelegate]</text>
<text text-anchor="start" x="2189" y="-383.3" font-family="monospace" font-size="14.00">  EX_Self</text>
</g>
<!-- ExecuteUbergraph_AIC_LootBug__119 -->
<g id="node9" class="node">
<title>ExecuteUbergraph_AIC_LootBug__119</title>
<polygon fill="#eeeeee" stroke="black" points="2127.5,-210.5 2127.5,-323.5 2721.5,-323.5 2721.5,-210.5 2127.5,-210.5"/>
<text text-anchor="start" x="2135.5" y="-308.3" font-family="monospace" font-size="14.00">EX_LetObj</text>
<text text-anchor="start" x="2135.5" y="-293.3" font-family="monospace" font-size="14.00">  EX_LocalVariable [CallFunc_GetComponentByClass_ReturnValue]</text>
<text text-anchor="start" x="2135.5" y="-278.3" font-family="monospace" font-size="14.00">  EX_Context</text>
<text text-anchor="start" x="2135.5" y="-263.3" font-family="monospace" font-size="14.00">    EX_LocalVariable [K2Node_Event_PossessedPawn]</text>
<text text-anchor="start" x="2135.5" y="-248.3" font-family="monospace" font-size="14.00">    EX_FinalFunction import /Script/Engine&#45;&gt;Actor&#45;&gt;GetComponentByClass</text>
<text text-anchor="start" x="2135.5" y="-233.3" font-family="monospace" font-size="14.00">      EX_ObjectConst import /Script/FSD&#45;&gt;HealthComponentBase</text>
<text text-anchor="start" x="2135.5" y="-218.3" font-family="monospace" font-size="14.00">    RValue = [CallFunc_GetComponentByClass_ReturnValue]</text>
</g>
<!-- ExecuteUbergraph_AIC_LootBug__96&#45;&gt;ExecuteUbergraph_AIC_LootBug__119 -->
<g id="edge6" class="edge">
<title>ExecuteUbergraph_AIC_LootBug__96&#45;&gt;ExecuteUbergraph_AIC_LootBug__119</title>
<path fill="none" stroke="black" d="M2424.5,-375.67C2424.5,-363.84 2424.5,-349.14 2424.5,-334.45"/>
<polygon fill="black" stroke="black" points="2428,-334.77 2424.5,-324.77 2421,-334.77 2428,-334.77"/>
</g>
<!-- ExecuteUbergraph_AIC_LootBug__170 -->
<g id="node10" class="node">
<title>ExecuteUbergraph_AIC_LootBug__170</title>
<polygon fill="#eeeeee" stroke="black" points="2156.5,-75.5 2156.5,-173.5 2692.5,-173.5 2692.5,-75.5 2156.5,-75.5"/>
<text text-anchor="start" x="2164.5" y="-158.3" font-family="monospace" font-size="14.00">EX_AddMulticastDelegate</text>
<text text-anchor="start" x="2164.5" y="-143.3" font-family="monospace" font-size="14.00">  EX_Context</text>
<text text-anchor="start" x="2164.5" y="-128.3" font-family="monospace" font-size="14.00">    EX_LocalVariable [CallFunc_GetComponentByClass_ReturnValue]</text>
<text text-anchor="start" x="2164.5" y="-113.3" font-family="monospace" font-size="14.00">    EX_InstanceVariable [OnDeath]</text>
<text text-anchor="start" x="2164.5" y="-98.3" font-family="monospace" font-size="14.00">    RValue = [OnDeath]</text>
<text text-anchor="start" x="2164.5" y="-83.3" font-family="monospace" font-size="14.00">  EX_LocalVariable [K2Node_CreateDelegate_OutputDelegate]</text>
</g>
<!-- ExecuteUbergraph_AIC_LootBug__119&#45;&gt;ExecuteUbergraph_AIC_LootBug__170 -->
<g id="edge7" class="edge">
<title>ExecuteUbergraph_AIC_LootBug__119&#45;&gt;ExecuteUbergraph_AIC_LootBug__170</title>
<path fill="none" stroke="black" d="M2424.5,-210.87C2424.5,-202.21 2424.5,-193.23 2424.5,-184.49"/>
<polygon fill="black" stroke="black" points="2428,-184.7 2424.5,-174.7 2421,-184.7 2428,-184.7"/>
</g>
<!-- ExecuteUbergraph_AIC_LootBug__170&#45;&gt;ExecuteUbergraph_AIC_LootBug__211 -->
<g id="edge8" class="edge">
<title>ExecuteUbergraph_AIC_LootBug__170&#45;&gt;ExecuteUbergraph_AIC_LootBug__211</title>
<path fill="none" stroke="black" d="M2424.5,-75.62C2424.5,-66.83 2424.5,-57.89 2424.5,-49.85"/>
<polygon fill="black" stroke="black" points="2428,-49.98 2424.5,-39.98 2421,-49.98 2428,-49.98"/>
</g>
<!-- ExecuteUbergraph_AIC_LootBug__213 -->
<g id="node12" class="node">
<title>ExecuteUbergraph_AIC_LootBug__213</title>
<polygon fill="#eeeeee" stroke="black" points="2841.5,-106.5 2841.5,-142.5 2973.5,-142.5 2973.5,-106.5 2841.5,-106.5"/>
<text text-anchor="start" x="2849.5" y="-120.8" font-family="monospace" font-size="14.00">EX_EndOfScript</text>
</g>
<!-- OnDeath -->
<g id="node13" class="node">
<title>OnDeath</title>
<polygon fill="#ff8888" stroke="black" points="2416.5,-713 2416.5,-766 3076.5,-766 3076.5,-713 2416.5,-713"/>
<text text-anchor="start" x="2424.5" y="-750.8" font-family="monospace" font-size="14.00">Function OnDeath</text>
<text text-anchor="start" x="2424.5" y="-735.8" font-family="monospace" font-size="14.00">  ObjectProperty HealthComponent</text>
<text text-anchor="start" x="2424.5" y="-720.8" font-family="monospace" font-size="14.00">    CPF_BlueprintVisible|CPF_BlueprintReadOnly|CPF_Parm|CPF_InstancedReference</text>
</g>
<!-- OnDeath__0 -->
<g id="node14" class="node">
<title>OnDeath__0</title>
<polygon fill="#eeeeee" stroke="black" points="2470,-585.5 2470,-623.5 3023,-623.5 3023,-585.5 2470,-585.5"/>
<text text-anchor="start" x="2478" y="-608.3" font-family="monospace" font-size="14.00">EX_LetValueOnPersistentFrame [K2Node_CustomEvent_HealthComponent]</text>
<text text-anchor="start" x="2478" y="-593.3" font-family="monospace" font-size="14.00">  EX_LocalVariable [HealthComponent]</text>
</g>
<!-- OnDeath&#45;&gt;OnDeath__0 -->
<g id="edge9" class="edge">
<title>OnDeath&#45;&gt;OnDeath__0</title>
<path fill="none" stroke="black" d="M2746.5,-713.17C2746.5,-690.84 2746.5,-658.29 2746.5,-634.83"/>
<polygon fill="black" stroke="black" points="2750,-635 2746.5,-625 2743,-635 2750,-635"/>
</g>
<!-- OnDeath__18 -->
<g id="node15" class="node">
<title>OnDeath__18</title>
<polygon fill="#eeeeee" stroke="black" points="2441,-495.5 2441,-533.5 3052,-533.5 3052,-495.5 2441,-495.5"/>
<text text-anchor="start" x="2449" y="-518.3" font-family="monospace" font-size="14.00">EX_LocalFinalFunction export AIC_LootBug_C&#45;&gt;ExecuteUbergraph_AIC_LootBug</text>
<text text-anchor="start" x="2449" y="-503.3" font-family="monospace" font-size="14.00">  EX_IntConst 10</text>
</g>
<!-- OnDeath__0&#45;&gt;OnDeath__18 -->
<g id="edge10" class="edge">
<title>OnDeath__0&#45;&gt;OnDeath__18</title>
<path fill="none" stroke="black" d="M2746.5,-585.69C2746.5,-573.88 2746.5,-558.12 2746.5,-544.52"/>
<polygon fill="black" stroke="black" points="2750,-544.8 2746.5,-534.8 2743,-544.8 2750,-544.8"/>
</g>
<!-- OnDeath__18&#45;&gt;ExecuteUbergraph_AIC_LootBug__10 -->
<g id="edge11" class="edge">
<title>OnDeath__18:e&#45;&gt;ExecuteUbergraph_AIC_LootBug__10</title>
<path fill="none" stroke="red" d="M3053.5,-514.5C3081.14,-514.5 3069.61,-482.77 3052.84,-453.16"/>
<polygon fill="none" stroke="red" points="3055.87,-451.4 3047.77,-444.56 3049.83,-454.95 3055.87,-451.4"/>
</g>
<!-- OnDeath__33 -->
<g id="node16" class="node">
<title>OnDeath__33</title>
<polygon fill="#eeeeee" stroke="black" points="2688.5,-383 2688.5,-421 2804.5,-421 2804.5,-383 2688.5,-383"/>
<text text-anchor="start" x="2696.5" y="-405.8" font-family="monospace" font-size="14.00">EX_Return</text>
<text text-anchor="start" x="2696.5" y="-390.8" font-family="monospace" font-size="14.00">  EX_Nothing</text>
</g>
<!-- OnDeath__18&#45;&gt;OnDeath__33 -->
<g id="edge12" class="edge">
<title>OnDeath__18&#45;&gt;OnDeath__33</title>
<path fill="none" stroke="black" d="M2746.5,-495.75C2746.5,-478.59 2746.5,-452.3 2746.5,-432.08"/>
<polygon fill="black" stroke="black" points="2750,-432.22 2746.5,-422.22 2743,-432.22 2750,-432.22"/>
</g>
<!-- OnDeath__35 -->
<g id="node17" class="node">
<title>OnDeath__35</title>
<polygon fill="#eeeeee" stroke="black" points="2500.5,-1.5 2500.5,-37.5 2632.5,-37.5 2632.5,-1.5 2500.5,-1.5"/>
<text text-anchor="start" x="2508.5" y="-15.8" font-family="monospace" font-size="14.00">EX_EndOfScript</text>
</g>
<!-- ReceivePossess -->
<g id="node18" class="node">
<title>ReceivePossess</title>
<polygon fill="#ff8888" stroke="black" points="1882.5,-713 1882.5,-766 2352.5,-766 2352.5,-713 1882.5,-713"/>
<text text-anchor="start" x="1890.5" y="-750.8" font-family="monospace" font-size="14.00">Function ReceivePossess</text>
<text text-anchor="start" x="1890.5" y="-735.8" font-family="monospace" font-size="14.00">  ObjectProperty PossessedPawn</text>
<text text-anchor="start" x="1890.5" y="-720.8" font-family="monospace" font-size="14.00">    CPF_BlueprintVisible|CPF_BlueprintReadOnly|CPF_Parm</text>
</g>
<!-- ReceivePossess__0 -->
<g id="node19" class="node">
<title>ReceivePossess__0</title>
<polygon fill="#eeeeee" stroke="black" points="1874,-585.5 1874,-623.5 2361,-623.5 2361,-585.5 1874,-585.5"/>
<text text-anchor="start" x="1882" y="-608.3" font-family="monospace" font-size="14.00">EX_LetValueOnPersistentFrame [K2Node_Event_PossessedPawn]</text>
<text text-anchor="start" x="1882" y="-593.3" font-family="monospace" font-size="14.00">  EX_LocalVariable [PossessedPawn]</text>
</g>
<!-- ReceivePossess&#45;&gt;ReceivePossess__0 -->
<g id="edge13" class="edge">
<title>ReceivePossess&#45;&gt;ReceivePossess__0</title>
<path fill="none" stroke="black" d="M2117.5,-713.17C2117.5,-690.84 2117.5,-658.29 2117.5,-634.83"/>
<polygon fill="black" stroke="black" points="2121,-635 2117.5,-625 2114,-635 2121,-635"/>
</g>
<!-- ReceivePossess__18 -->
<g id="node20" class="node">
<title>ReceivePossess__18</title>
<polygon fill="#eeeeee" stroke="black" points="1812,-495.5 1812,-533.5 2423,-533.5 2423,-495.5 1812,-495.5"/>
<text text-anchor="start" x="1820" y="-518.3" font-family="monospace" font-size="14.00">EX_LocalFinalFunction export AIC_LootBug_C&#45;&gt;ExecuteUbergraph_AIC_LootBug</text>
<text text-anchor="start" x="1820" y="-503.3" font-family="monospace" font-size="14.00">  EX_IntConst 96</text>
</g>
<!-- ReceivePossess__0&#45;&gt;ReceivePossess__18 -->
<g id="edge14" class="edge">
<title>ReceivePossess__0&#45;&gt;ReceivePossess__18</title>
<path fill="none" stroke="black" d="M2117.5,-585.69C2117.5,-573.88 2117.5,-558.12 2117.5,-544.52"/>
<polygon fill="black" stroke="black" points="2121,-544.8 2117.5,-534.8 2114,-544.8 2121,-544.8"/>
</g>
<!-- ReceivePossess__18&#45;&gt;ExecuteUbergraph_AIC_LootBug__96 -->
<g id="edge15" class="edge">
<title>ReceivePossess__18:e&#45;&gt;ExecuteUbergraph_AIC_LootBug__96</title>
<path fill="none" stroke="red" d="M2424.5,-514.5C2432.13,-514.5 2430.36,-472.22 2427.88,-439.73"/>
<polygon fill="none" stroke="red" points="2431.37,-439.49 2427.07,-429.81 2424.39,-440.06 2431.37,-439.49"/>
</g>
<!-- ReceivePossess__33 -->
<g id="node21" class="node">
<title>ReceivePossess__33</title>
<polygon fill="#eeeeee" stroke="black" points="2046.5,-383 2046.5,-421 2162.5,-421 2162.5,-383 2046.5,-383"/>
<text text-anchor="start" x="2054.5" y="-405.8" font-family="monospace" font-size="14.00">EX_Return</text>
<text text-anchor="start" x="2054.5" y="-390.8" font-family="monospace" font-size="14.00">  EX_Nothing</text>
</g>
<!-- ReceivePossess__18&#45;&gt;ReceivePossess__33 -->
<g id="edge16" class="edge">
<title>ReceivePossess__18&#45;&gt;ReceivePossess__33</title>
<path fill="none" stroke="black" d="M2115.41,-495.75C2113.39,-478.59 2110.3,-452.3 2107.92,-432.08"/>
<polygon fill="black" stroke="black" points="2111.4,-431.74 2106.76,-422.21 2104.45,-432.55 2111.4,-431.74"/>
</g>
<!-- ReceivePossess__35 -->
<g id="node22" class="node">
<title>ReceivePossess__35</title>
<polygon fill="#eeeeee" stroke="black" points="2978.5,-249 2978.5,-285 3110.5,-285 3110.5,-249 2978.5,-249"/>
<text text-anchor="start" x="2986.5" y="-263.3" font-family="monospace" font-size="14.00">EX_EndOfScript</text>
</g>
<!-- ReceiveBeginPlay -->
<g id="node23" class="node">
<title>ReceiveBeginPlay</title>
<polygon fill="#ff8888" stroke="black" points="1039,-721.5 1039,-757.5 1262,-757.5 1262,-721.5 1039,-721.5"/>
<text text-anchor="start" x="1047" y="-735.8" font-family="monospace" font-size="14.00">Function ReceiveBeginPlay</text>
</g>
<!-- ReceiveBeginPlay__0 -->
<g id="node24" class="node">
<title>ReceiveBeginPlay__0</title>
<polygon fill="#eeeeee" stroke="black" points="845,-585.5 845,-623.5 1456,-623.5 1456,-585.5 845,-585.5"/>
<text text-anchor="start" x="853" y="-608.3" font-family="monospace" font-size="14.00">EX_LocalFinalFunction export AIC_LootBug_C&#45;&gt;ExecuteUbergraph_AIC_LootBug</text>
<text text-anchor="start" x="853" y="-593.3" font-family="monospace" font-size="14.00">  EX_IntConst 58</text>
</g>
<!-- ReceiveBeginPlay&#45;&gt;ReceiveBeginPlay__0 -->
<g id="edge17" class="edge">
<title>ReceiveBeginPlay&#45;&gt;ReceiveBeginPlay__0</title>
<path fill="none" stroke="black" d="M1150.5,-721.66C1150.5,-699.83 1150.5,-661.44 1150.5,-634.79"/>
<polygon fill="black" stroke="black" points="1154,-634.99 1150.5,-624.99 1147,-634.99 1154,-634.99"/>
</g>
<!-- ReceiveBeginPlay__0&#45;&gt;ExecuteUbergraph_AIC_LootBug__58 -->
<g id="edge18" class="edge">
<title>ReceiveBeginPlay__0:e&#45;&gt;ExecuteUbergraph_AIC_LootBug__58</title>
<path fill="none" stroke="red" d="M1457.5,-604.5C1478.88,-604.5 1487.6,-581.99 1491,-559.61"/>
<polygon fill="none" stroke="red" points="1494.45,-560.23 1492.12,-549.89 1487.5,-559.42 1494.45,-560.23"/>
</g>
<!-- ReceiveBeginPlay__15 -->
<g id="node25" class="node">
<title>ReceiveBeginPlay__15</title>
<polygon fill="#eeeeee" stroke="black" points="1057.5,-495.5 1057.5,-533.5 1173.5,-533.5 1173.5,-495.5 1057.5,-495.5"/>
<text text-anchor="start" x="1065.5" y="-518.3" font-family="monospace" font-size="14.00">EX_Return</text>
<text text-anchor="start" x="1065.5" y="-503.3" font-family="monospace" font-size="14.00">  EX_Nothing</text>
</g>
<!-- ReceiveBeginPlay__0&#45;&gt;ReceiveBeginPlay__15 -->
<g id="edge19" class="edge">
<title>ReceiveBeginPlay__0&#45;&gt;ReceiveBeginPlay__15</title>
<path fill="none" stroke="black" d="M1143.42,-585.69C1138.63,-573.64 1132.2,-557.48 1126.72,-543.7"/>
<polygon fill="black" stroke="black" points="1130.08,-542.69 1123.13,-534.69 1123.58,-545.27 1130.08,-542.69"/>
</g>
<!-- ReceiveBeginPlay__17 -->
<g id="node26" class="node">
<title>ReceiveBeginPlay__17</title>
<polygon fill="#eeeeee" stroke="black" points="3094.5,-721.5 3094.5,-757.5 3226.5,-757.5 3226.5,-721.5 3094.5,-721.5"/>
<text text-anchor="start" x="3102.5" y="-735.8" font-family="monospace" font-size="14.00">EX_EndOfScript</text>
</g>
</g>
</svg>
