<?xml version="1.0" encoding="UTF-8" standalone="no"?>
<!DOCTYPE svg PUBLIC "-//W3C//DTD SVG 1.1//EN"
 "http://www.w3.org/Graphics/SVG/1.1/DTD/svg11.dtd">
<!-- Generated by graphviz version 7.0.1 (0)
 -->
<!-- Pages: 1 -->
<svg width="3673pt" height="1397pt"
 viewBox="0.00 0.00 3673.00 1397.00" xmlns="http://www.w3.org/2000/svg" xmlns:xlink="http://www.w3.org/1999/xlink">
<g id="graph0" class="graph" transform="scale(1 1) rotate(0) translate(4 1393)">
<polygon fill="white" stroke="none" points="-4,4 -4,-1393 3669,-1393 3669,4 -4,4"/>
<!-- BP_MissionControl_MemorialHallWelcome_C -->
<g id="node1" class="node">
<title>BP_MissionControl_MemorialHallWelcome_C</title>
<polygon fill="#88ff88" stroke="black" points="0,-1245.5 0,-1388.5 594,-1388.5 594,-1245.5 0,-1245.5"/>
<text text-anchor="start" x="8" y="-1373.3" font-family="monospace" font-size="14.00">ClassExport: BP_MissionControl_MemorialHallWelcome_C</text>
<text text-anchor="start" x="8" y="-1358.3" font-family="monospace" font-size="14.00">  SuperStruct: import /Script/Engine&#45;&gt;Actor</text>
<text text-anchor="start" x="8" y="-1343.3" font-family="monospace" font-size="14.00">  Properties:</text>
<text text-anchor="start" x="8" y="-1328.3" font-family="monospace" font-size="14.00">    StructProperty UberGraphFrame</text>
<text text-anchor="start" x="8" y="-1313.3" font-family="monospace" font-size="14.00">      CPF_Transient|CPF_DuplicateTransient</text>
<text text-anchor="start" x="8" y="-1298.3" font-family="monospace" font-size="14.00">    ObjectProperty TriggerBox</text>
<text text-anchor="start" x="8" y="-1283.3" font-family="monospace" font-size="14.00">      CPF_BlueprintVisible|CPF_InstancedReference|CPF_NonTransactional</text>
<text text-anchor="start" x="8" y="-1268.3" font-family="monospace" font-size="14.00">    ObjectProperty DefaultSceneRoot</text>
<text text-anchor="start" x="8" y="-1253.3" font-family="monospace" font-size="14.00">      CPF_BlueprintVisible|CPF_InstancedReference|CPF_NonTransactional</text>
</g>
<!-- ExecuteUbergraph_BP_MissionControl_MemorialHallWelcome -->
<g id="node2" class="node">
<title>ExecuteUbergraph_BP_MissionControl_MemorialHallWelcome</title>
<polygon fill="#ff8888" stroke="black" points="612,-1260.5 612,-1373.5 1148,-1373.5 1148,-1260.5 612,-1260.5"/>
<text text-anchor="start" x="620" y="-1358.3" font-family="monospace" font-size="14.00">Function ExecuteUbergraph_BP_MissionControl_MemorialHallWelcome</text>
<text text-anchor="start" x="620" y="-1343.3" font-family="monospace" font-size="14.00">  IntProperty EntryPoint</text>
<text text-anchor="start" x="620" y="-1328.3" font-family="monospace" font-size="14.00">    CPF_BlueprintVisible|CPF_BlueprintReadOnly|CPF_Parm</text>
<text text-anchor="start" x="620" y="-1313.3" font-family="monospace" font-size="14.00">  BoolProperty Temp_bool_Has_Been_Initd_Variable</text>
<text text-anchor="start" x="620" y="-1298.3" font-family="monospace" font-size="14.00">  BoolProperty CallFunc_HasAuthority_ReturnValue</text>
<text text-anchor="start" x="620" y="-1283.3" font-family="monospace" font-size="14.00">  ObjectProperty K2Node_Event_OtherActor</text>
<text text-anchor="start" x="620" y="-1268.3" font-family="monospace" font-size="14.00">  BoolProperty Temp_bool_IsClosed_Variable</text>
</g>
<!-- ExecuteUbergraph_BP_MissionControl_MemorialHallWelcome__0 -->
<g id="node3" class="node">
<title>ExecuteUbergraph_BP_MissionControl_MemorialHallWelcome__0</title>
<polygon fill="#eeeeee" stroke="black" points="772.5,-1134.5 772.5,-1170.5 987.5,-1170.5 987.5,-1134.5 772.5,-1134.5"/>
<text text-anchor="start" x="780.5" y="-1148.8" font-family="monospace" font-size="14.00">EX_PushExecutionFlow 158</text>
</g>
<!-- ExecuteUbergraph_BP_MissionControl_MemorialHallWelcome&#45;&gt;ExecuteUbergraph_BP_MissionControl_MemorialHallWelcome__0 -->
<g id="edge1" class="edge">
<title>ExecuteUbergraph_BP_MissionControl_MemorialHallWelcome&#45;&gt;ExecuteUbergraph_BP_MissionControl_MemorialHallWelcome__0</title>
<path fill="none" stroke="black" d="M880,-1260.53C880,-1233.97 880,-1203.3 880,-1181.62"/>
<polygon fill="black" stroke="black" points="883.5,-1181.81 880,-1171.81 876.5,-1181.81 883.5,-1181.81"/>
</g>
<!-- ExecuteUbergraph_BP_MissionControl_MemorialHallWelcome__5 -->
<g id="node4" class="node">
<title>ExecuteUbergraph_BP_MissionControl_MemorialHallWelcome__5</title>
<polygon fill="#eeeeee" stroke="black" points="692,-1021.5 692,-1059.5 964,-1059.5 964,-1021.5 692,-1021.5"/>
<text text-anchor="start" x="700" y="-1044.3" font-family="monospace" font-size="14.00">EX_ComputedJump</text>
<text text-anchor="start" x="700" y="-1029.3" font-family="monospace" font-size="14.00">  EX_LocalVariable [EntryPoint]</text>
</g>
<!-- ExecuteUbergraph_BP_MissionControl_MemorialHallWelcome__0&#45;&gt;ExecuteUbergraph_BP_MissionControl_MemorialHallWelcome__5 -->
<g id="edge3" class="edge">
<title>ExecuteUbergraph_BP_MissionControl_MemorialHallWelcome__0&#45;&gt;ExecuteUbergraph_BP_MissionControl_MemorialHallWelcome__5</title>
<path fill="none" stroke="black" d="M872.1,-1134.79C863.96,-1117.57 851.12,-1090.41 841.39,-1069.83"/>
<polygon fill="black" stroke="black" points="844.58,-1068.38 837.14,-1060.83 838.25,-1071.37 844.58,-1068.38"/>
</g>
<!-- ExecuteUbergraph_BP_MissionControl_MemorialHallWelcome__158 -->
<g id="node23" class="node">
<title>ExecuteUbergraph_BP_MissionControl_MemorialHallWelcome__158</title>
<polygon fill="#eeeeee" stroke="black" points="982,-1021.5 982,-1059.5 1098,-1059.5 1098,-1021.5 982,-1021.5"/>
<text text-anchor="start" x="990" y="-1044.3" font-family="monospace" font-size="14.00">EX_Return</text>
<text text-anchor="start" x="990" y="-1029.3" font-family="monospace" font-size="14.00">  EX_Nothing</text>
</g>
<!-- ExecuteUbergraph_BP_MissionControl_MemorialHallWelcome__0&#45;&gt;ExecuteUbergraph_BP_MissionControl_MemorialHallWelcome__158 -->
<g id="edge2" class="edge">
<title>ExecuteUbergraph_BP_MissionControl_MemorialHallWelcome__0:e&#45;&gt;ExecuteUbergraph_BP_MissionControl_MemorialHallWelcome__158</title>
<path fill="none" stroke="red" d="M989,-1152.5C1025.08,-1152.5 1035.73,-1103.49 1038.81,-1070.6"/>
<polygon fill="none" stroke="red" points="1042.29,-1071.07 1039.53,-1060.84 1035.31,-1070.56 1042.29,-1071.07"/>
<text text-anchor="middle" x="1079.5" y="-1092.8" font-family="monospace" font-size="14.00">PUSH STACK</text>
</g>
<!-- ExecuteUbergraph_BP_MissionControl_MemorialHallWelcome__15 -->
<g id="node5" class="node">
<title>ExecuteUbergraph_BP_MissionControl_MemorialHallWelcome__15</title>
<polygon fill="#eeeeee" stroke="black" points="1980.5,-165.5 1980.5,-203.5 2195.5,-203.5 2195.5,-165.5 1980.5,-165.5"/>
<text text-anchor="start" x="1988.5" y="-188.3" font-family="monospace" font-size="14.00">EX_PopExecutionFlowIfNot</text>
<text text-anchor="start" x="1988.5" y="-173.3" font-family="monospace" font-size="14.00">  EX_False</text>
</g>
<!-- ExecuteUbergraph_BP_MissionControl_MemorialHallWelcome__17 -->
<g id="node6" class="node">
<title>ExecuteUbergraph_BP_MissionControl_MemorialHallWelcome__17</title>
<polygon fill="#eeeeee" stroke="black" points="1881.5,-74.5 1881.5,-127.5 2294.5,-127.5 2294.5,-74.5 1881.5,-74.5"/>
<text text-anchor="start" x="1889.5" y="-112.3" font-family="monospace" font-size="14.00">EX_LetBool</text>
<text text-anchor="start" x="1889.5" y="-97.3" font-family="monospace" font-size="14.00">  EX_LocalVariable [Temp_bool_IsClosed_Variable]</text>
<text text-anchor="start" x="1889.5" y="-82.3" font-family="monospace" font-size="14.00">  EX_True</text>
</g>
<!-- ExecuteUbergraph_BP_MissionControl_MemorialHallWelcome__15&#45;&gt;ExecuteUbergraph_BP_MissionControl_MemorialHallWelcome__17 -->
<g id="edge4" class="edge">
<title>ExecuteUbergraph_BP_MissionControl_MemorialHallWelcome__15&#45;&gt;ExecuteUbergraph_BP_MissionControl_MemorialHallWelcome__17</title>
<path fill="none" stroke="black" d="M2088,-165.82C2088,-157.83 2088,-148.08 2088,-138.62"/>
<polygon fill="black" stroke="black" points="2091.5,-138.9 2088,-128.9 2084.5,-138.9 2091.5,-138.9"/>
</g>
<!-- ExecuteUbergraph_BP_MissionControl_MemorialHallWelcome__28 -->
<g id="node7" class="node">
<title>ExecuteUbergraph_BP_MissionControl_MemorialHallWelcome__28</title>
<polygon fill="#eeeeee" stroke="black" points="2001.5,-0.5 2001.5,-36.5 2174.5,-36.5 2174.5,-0.5 2001.5,-0.5"/>
<text text-anchor="start" x="2009.5" y="-14.8" font-family="monospace" font-size="14.00">EX_PopExecutionFlow</text>
</g>
<!-- ExecuteUbergraph_BP_MissionControl_MemorialHallWelcome__17&#45;&gt;ExecuteUbergraph_BP_MissionControl_MemorialHallWelcome__28 -->
<g id="edge5" class="edge">
<title>ExecuteUbergraph_BP_MissionControl_MemorialHallWelcome__17&#45;&gt;ExecuteUbergraph_BP_MissionControl_MemorialHallWelcome__28</title>
<path fill="none" stroke="black" d="M2088,-74.53C2088,-65.92 2088,-56.25 2088,-47.46"/>
<polygon fill="black" stroke="black" points="2091.5,-47.69 2088,-37.69 2084.5,-47.69 2091.5,-47.69"/>
</g>
<!-- ExecuteUbergraph_BP_MissionControl_MemorialHallWelcome__29 -->
<g id="node8" class="node">
<title>ExecuteUbergraph_BP_MissionControl_MemorialHallWelcome__29</title>
<polygon fill="#eeeeee" stroke="black" points="1857,-323 1857,-376 2319,-376 2319,-323 1857,-323"/>
<text text-anchor="start" x="1865" y="-360.8" font-family="monospace" font-size="14.00">EX_LetBool</text>
<text text-anchor="start" x="1865" y="-345.8" font-family="monospace" font-size="14.00">  EX_LocalVariable [Temp_bool_Has_Been_Initd_Variable]</text>
<text text-anchor="start" x="1865" y="-330.8" font-family="monospace" font-size="14.00">  EX_True</text>
</g>
<!-- ExecuteUbergraph_BP_MissionControl_MemorialHallWelcome__40 -->
<g id="node9" class="node">
<title>ExecuteUbergraph_BP_MissionControl_MemorialHallWelcome__40</title>
<polygon fill="#eeeeee" stroke="black" points="2038.5,-241.5 2038.5,-277.5 2137.5,-277.5 2137.5,-241.5 2038.5,-241.5"/>
<text text-anchor="start" x="2046.5" y="-255.8" font-family="monospace" font-size="14.00">EX_Jump 15</text>
</g>
<!-- ExecuteUbergraph_BP_MissionControl_MemorialHallWelcome__29&#45;&gt;ExecuteUbergraph_BP_MissionControl_MemorialHallWelcome__40 -->
<g id="edge6" class="edge">
<title>ExecuteUbergraph_BP_MissionControl_MemorialHallWelcome__29&#45;&gt;ExecuteUbergraph_BP_MissionControl_MemorialHallWelcome__40</title>
<path fill="none" stroke="black" d="M2088,-323.05C2088,-312.24 2088,-299.6 2088,-288.52"/>
<polygon fill="black" stroke="black" points="2091.5,-288.79 2088,-278.79 2084.5,-288.79 2091.5,-288.79"/>
</g>
<!-- ExecuteUbergraph_BP_MissionControl_MemorialHallWelcome__40&#45;&gt;ExecuteUbergraph_BP_MissionControl_MemorialHallWelcome__15 -->
<g id="edge7" class="edge">
<title>ExecuteUbergraph_BP_MissionControl_MemorialHallWelcome__40&#45;&gt;ExecuteUbergraph_BP_MissionControl_MemorialHallWelcome__15</title>
<path fill="none" stroke="black" d="M2088,-241.57C2088,-233.6 2088,-223.87 2088,-214.77"/>
<polygon fill="black" stroke="black" points="2091.5,-214.87 2088,-204.87 2084.5,-214.87 2091.5,-214.87"/>
</g>
<!-- ExecuteUbergraph_BP_MissionControl_MemorialHallWelcome__45 -->
<g id="node10" class="node">
<title>ExecuteUbergraph_BP_MissionControl_MemorialHallWelcome__45</title>
<polygon fill="#eeeeee" stroke="black" points="1626,-443 1626,-481 2088,-481 2088,-443 1626,-443"/>
<text text-anchor="start" x="1634" y="-465.8" font-family="monospace" font-size="14.00">EX_JumpIfNot 29</text>
<text text-anchor="start" x="1634" y="-450.8" font-family="monospace" font-size="14.00">  EX_LocalVariable [Temp_bool_Has_Been_Initd_Variable]</text>
</g>
<!-- ExecuteUbergraph_BP_MissionControl_MemorialHallWelcome__45&#45;&gt;ExecuteUbergraph_BP_MissionControl_MemorialHallWelcome__29 -->
<g id="edge8" class="edge">
<title>ExecuteUbergraph_BP_MissionControl_MemorialHallWelcome__45:e&#45;&gt;ExecuteUbergraph_BP_MissionControl_MemorialHallWelcome__29</title>
<path fill="none" stroke="red" d="M2089,-462C2119.78,-462 2111.94,-418.98 2101.57,-386.38"/>
<polygon fill="none" stroke="red" points="2105,-385.6 2098.5,-377.24 2098.37,-387.83 2105,-385.6"/>
<text text-anchor="middle" x="2133" y="-405.8" font-family="monospace" font-size="14.00">IF NOT</text>
</g>
<!-- ExecuteUbergraph_BP_MissionControl_MemorialHallWelcome__59 -->
<g id="node11" class="node">
<title>ExecuteUbergraph_BP_MissionControl_MemorialHallWelcome__59</title>
<polygon fill="#eeeeee" stroke="black" points="1665.5,-331.5 1665.5,-367.5 1838.5,-367.5 1838.5,-331.5 1665.5,-331.5"/>
<text text-anchor="start" x="1673.5" y="-345.8" font-family="monospace" font-size="14.00">EX_PopExecutionFlow</text>
</g>
<!-- ExecuteUbergraph_BP_MissionControl_MemorialHallWelcome__45&#45;&gt;ExecuteUbergraph_BP_MissionControl_MemorialHallWelcome__59 -->
<g id="edge9" class="edge">
<title>ExecuteUbergraph_BP_MissionControl_MemorialHallWelcome__45&#45;&gt;ExecuteUbergraph_BP_MissionControl_MemorialHallWelcome__59</title>
<path fill="none" stroke="black" d="M1840.13,-443.25C1822.78,-424.99 1795.61,-396.39 1776.02,-375.78"/>
<polygon fill="black" stroke="black" points="1778.61,-373.42 1769.18,-368.58 1773.53,-378.24 1778.61,-373.42"/>
<text text-anchor="middle" x="1821.5" y="-405.8" font-family="monospace" font-size="14.00">IF</text>
</g>
<!-- ExecuteUbergraph_BP_MissionControl_MemorialHallWelcome__60 -->
<g id="node12" class="node">
<title>ExecuteUbergraph_BP_MissionControl_MemorialHallWelcome__60</title>
<polygon fill="#eeeeee" stroke="black" points="2053,-630.5 2053,-666.5 2259,-666.5 2259,-630.5 2053,-630.5"/>
<text text-anchor="start" x="2061" y="-644.8" font-family="monospace" font-size="14.00">EX_PushExecutionFlow 70</text>
</g>
<!-- ExecuteUbergraph_BP_MissionControl_MemorialHallWelcome__65 -->
<g id="node13" class="node">
<title>ExecuteUbergraph_BP_MissionControl_MemorialHallWelcome__65</title>
<polygon fill="#eeeeee" stroke="black" points="1978.5,-541.5 1978.5,-577.5 2077.5,-577.5 2077.5,-541.5 1978.5,-541.5"/>
<text text-anchor="start" x="1986.5" y="-555.8" font-family="monospace" font-size="14.00">EX_Jump 45</text>
</g>
<!-- ExecuteUbergraph_BP_MissionControl_MemorialHallWelcome__60&#45;&gt;ExecuteUbergraph_BP_MissionControl_MemorialHallWelcome__65 -->
<g id="edge11" class="edge">
<title>ExecuteUbergraph_BP_MissionControl_MemorialHallWelcome__60&#45;&gt;ExecuteUbergraph_BP_MissionControl_MemorialHallWelcome__65</title>
<path fill="none" stroke="black" d="M2131.02,-630.52C2111.46,-617.23 2084.04,-598.59 2062.4,-583.88"/>
<polygon fill="black" stroke="black" points="2064.41,-581.02 2054.17,-578.29 2060.48,-586.81 2064.41,-581.02"/>
</g>
<!-- ExecuteUbergraph_BP_MissionControl_MemorialHallWelcome__70 -->
<g id="node14" class="node">
<title>ExecuteUbergraph_BP_MissionControl_MemorialHallWelcome__70</title>
<polygon fill="#eeeeee" stroke="black" points="2234.5,-540.5 2234.5,-578.5 2647.5,-578.5 2647.5,-540.5 2234.5,-540.5"/>
<text text-anchor="start" x="2242.5" y="-563.3" font-family="monospace" font-size="14.00">EX_JumpIfNot 85</text>
<text text-anchor="start" x="2242.5" y="-548.3" font-family="monospace" font-size="14.00">  EX_LocalVariable [Temp_bool_IsClosed_Variable]</text>
</g>
<!-- ExecuteUbergraph_BP_MissionControl_MemorialHallWelcome__60&#45;&gt;ExecuteUbergraph_BP_MissionControl_MemorialHallWelcome__70 -->
<g id="edge10" class="edge">
<title>ExecuteUbergraph_BP_MissionControl_MemorialHallWelcome__60:e&#45;&gt;ExecuteUbergraph_BP_MissionControl_MemorialHallWelcome__70</title>
<path fill="none" stroke="red" d="M2260,-648.5C2318.13,-648.5 2377.14,-611.34 2411.35,-585.31"/>
<polygon fill="none" stroke="red" points="2413.39,-588.15 2419.12,-579.24 2409.08,-582.64 2413.39,-588.15"/>
<text text-anchor="middle" x="2432.5" y="-600.8" font-family="monospace" font-size="14.00">PUSH STACK</text>
</g>
<!-- ExecuteUbergraph_BP_MissionControl_MemorialHallWelcome__65&#45;&gt;ExecuteUbergraph_BP_MissionControl_MemorialHallWelcome__45 -->
<g id="edge12" class="edge">
<title>ExecuteUbergraph_BP_MissionControl_MemorialHallWelcome__65&#45;&gt;ExecuteUbergraph_BP_MissionControl_MemorialHallWelcome__45</title>
<path fill="none" stroke="black" d="M1997.82,-541.65C1970.43,-526.35 1929.76,-503.63 1899.16,-486.54"/>
<polygon fill="black" stroke="black" points="1900.96,-483.54 1890.52,-481.72 1897.55,-489.65 1900.96,-483.54"/>
</g>
<!-- ExecuteUbergraph_BP_MissionControl_MemorialHallWelcome__84 -->
<g id="node15" class="node">
<title>ExecuteUbergraph_BP_MissionControl_MemorialHallWelcome__84</title>
<polygon fill="#eeeeee" stroke="black" points="2354.5,-444 2354.5,-480 2527.5,-480 2527.5,-444 2354.5,-444"/>
<text text-anchor="start" x="2362.5" y="-458.3" font-family="monospace" font-size="14.00">EX_PopExecutionFlow</text>
</g>
<!-- ExecuteUbergraph_BP_MissionControl_MemorialHallWelcome__70&#45;&gt;ExecuteUbergraph_BP_MissionControl_MemorialHallWelcome__84 -->
<g id="edge14" class="edge">
<title>ExecuteUbergraph_BP_MissionControl_MemorialHallWelcome__70&#45;&gt;ExecuteUbergraph_BP_MissionControl_MemorialHallWelcome__84</title>
<path fill="none" stroke="black" d="M2441,-540.54C2441,-526.67 2441,-507.23 2441,-491.28"/>
<polygon fill="black" stroke="black" points="2444.5,-491.43 2441,-481.43 2437.5,-491.43 2444.5,-491.43"/>
<text text-anchor="middle" x="2449.5" y="-510.8" font-family="monospace" font-size="14.00">IF</text>
</g>
<!-- ExecuteUbergraph_BP_MissionControl_MemorialHallWelcome__85 -->
<g id="node16" class="node">
<title>ExecuteUbergraph_BP_MissionControl_MemorialHallWelcome__85</title>
<polygon fill="#eeeeee" stroke="black" points="2669.5,-435.5 2669.5,-488.5 3082.5,-488.5 3082.5,-435.5 2669.5,-435.5"/>
<text text-anchor="start" x="2677.5" y="-473.3" font-family="monospace" font-size="14.00">EX_LetBool</text>
<text text-anchor="start" x="2677.5" y="-458.3" font-family="monospace" font-size="14.00">  EX_LocalVariable [Temp_bool_IsClosed_Variable]</text>
<text text-anchor="start" x="2677.5" y="-443.3" font-family="monospace" font-size="14.00">  EX_True</text>
</g>
<!-- ExecuteUbergraph_BP_MissionControl_MemorialHallWelcome__70&#45;&gt;ExecuteUbergraph_BP_MissionControl_MemorialHallWelcome__85 -->
<g id="edge13" class="edge">
<title>ExecuteUbergraph_BP_MissionControl_MemorialHallWelcome__70:e&#45;&gt;ExecuteUbergraph_BP_MissionControl_MemorialHallWelcome__85</title>
<path fill="none" stroke="red" d="M2649,-559.5C2716.68,-559.5 2787.31,-522.72 2831.46,-494.57"/>
<polygon fill="none" stroke="red" points="2833.27,-497.57 2839.74,-489.18 2829.45,-491.7 2833.27,-497.57"/>
<text text-anchor="middle" x="2833" y="-510.8" font-family="monospace" font-size="14.00">IF NOT</text>
</g>
<!-- ExecuteUbergraph_BP_MissionControl_MemorialHallWelcome__96 -->
<g id="node17" class="node">
<title>ExecuteUbergraph_BP_MissionControl_MemorialHallWelcome__96</title>
<polygon fill="#eeeeee" stroke="black" points="2337,-315.5 2337,-383.5 3665,-383.5 3665,-315.5 2337,-315.5"/>
<text text-anchor="start" x="2345" y="-368.3" font-family="monospace" font-size="14.00">EX_CallMath import /Script/FSD&#45;&gt;CommunicationComponent&#45;&gt;MissionShout</text>
<text text-anchor="start" x="2345" y="-353.3" font-family="monospace" font-size="14.00">  EX_Self</text>
<text text-anchor="start" x="2345" y="-338.3" font-family="monospace" font-size="14.00">  EX_ObjectConst import /Game/Character/Shouts/MissionControl/SpaceRig/Shout_Mission_SpaceRig_MemorialHall_Welcome&#45;&gt;Shout_Mission_SpaceRig_MemorialHall_Welcome</text>
<text text-anchor="start" x="2345" y="-323.3" font-family="monospace" font-size="14.00">  EX_False</text>
</g>
<!-- ExecuteUbergraph_BP_MissionControl_MemorialHallWelcome__85&#45;&gt;ExecuteUbergraph_BP_MissionControl_MemorialHallWelcome__96 -->
<g id="edge15" class="edge">
<title>ExecuteUbergraph_BP_MissionControl_MemorialHallWelcome__85&#45;&gt;ExecuteUbergraph_BP_MissionControl_MemorialHallWelcome__96</title>
<path fill="none" stroke="black" d="M2904.68,-435.65C2919.79,-422.29 2938.68,-405.59 2955.72,-390.53"/>
<polygon fill="black" stroke="black" points="2957.6,-393.53 2962.78,-384.29 2952.97,-388.29 2957.6,-393.53"/>
</g>
<!-- ExecuteUbergraph_BP_MissionControl_MemorialHallWelcome__117 -->
<g id="node18" class="node">
<title>ExecuteUbergraph_BP_MissionControl_MemorialHallWelcome__117</title>
<polygon fill="#eeeeee" stroke="black" points="2914.5,-241.5 2914.5,-277.5 3087.5,-277.5 3087.5,-241.5 2914.5,-241.5"/>
<text text-anchor="start" x="2922.5" y="-255.8" font-family="monospace" font-size="14.00">EX_PopExecutionFlow</text>
</g>
<!-- ExecuteUbergraph_BP_MissionControl_MemorialHallWelcome__96&#45;&gt;ExecuteUbergraph_BP_MissionControl_MemorialHallWelcome__117 -->
<g id="edge16" class="edge">
<title>ExecuteUbergraph_BP_MissionControl_MemorialHallWelcome__96&#45;&gt;ExecuteUbergraph_BP_MissionControl_MemorialHallWelcome__117</title>
<path fill="none" stroke="black" d="M3001,-315.73C3001,-306.83 3001,-297.27 3001,-288.65"/>
<polygon fill="black" stroke="black" points="3004.5,-288.77 3001,-278.77 2997.5,-288.77 3004.5,-288.77"/>
</g>
<!-- ExecuteUbergraph_BP_MissionControl_MemorialHallWelcome__118 -->
<g id="node19" class="node">
<title>ExecuteUbergraph_BP_MissionControl_MemorialHallWelcome__118</title>
<polygon fill="#eeeeee" stroke="black" points="1896,-854.5 1896,-907.5 2416,-907.5 2416,-854.5 1896,-854.5"/>
<text text-anchor="start" x="1904" y="-892.3" font-family="monospace" font-size="14.00">EX_LetBool</text>
<text text-anchor="start" x="1904" y="-877.3" font-family="monospace" font-size="14.00">  EX_LocalVariable [CallFunc_HasAuthority_ReturnValue]</text>
<text text-anchor="start" x="1904" y="-862.3" font-family="monospace" font-size="14.00">  EX_FinalFunction import /Script/Engine&#45;&gt;Actor&#45;&gt;HasAuthority</text>
</g>
<!-- ExecuteUbergraph_BP_MissionControl_MemorialHallWelcome__138 -->
<g id="node20" class="node">
<title>ExecuteUbergraph_BP_MissionControl_MemorialHallWelcome__138</title>
<polygon fill="#eeeeee" stroke="black" points="1925,-778.5 1925,-816.5 2387,-816.5 2387,-778.5 1925,-778.5"/>
<text text-anchor="start" x="1933" y="-801.3" font-family="monospace" font-size="14.00">EX_PopExecutionFlowIfNot</text>
<text text-anchor="start" x="1933" y="-786.3" font-family="monospace" font-size="14.00">  EX_LocalVariable [CallFunc_HasAuthority_ReturnValue]</text>
</g>
<!-- ExecuteUbergraph_BP_MissionControl_MemorialHallWelcome__118&#45;&gt;ExecuteUbergraph_BP_MissionControl_MemorialHallWelcome__138 -->
<g id="edge17" class="edge">
<title>ExecuteUbergraph_BP_MissionControl_MemorialHallWelcome__118&#45;&gt;ExecuteUbergraph_BP_MissionControl_MemorialHallWelcome__138</title>
<path fill="none" stroke="black" d="M2156,-854.66C2156,-846.11 2156,-836.51 2156,-827.69"/>
<polygon fill="black" stroke="black" points="2159.5,-827.84 2156,-817.84 2152.5,-827.84 2159.5,-827.84"/>
</g>
<!-- ExecuteUbergraph_BP_MissionControl_MemorialHallWelcome__148 -->
<g id="node21" class="node">
<title>ExecuteUbergraph_BP_MissionControl_MemorialHallWelcome__148</title>
<polygon fill="#eeeeee" stroke="black" points="2106.5,-704.5 2106.5,-740.5 2205.5,-740.5 2205.5,-704.5 2106.5,-704.5"/>
<text text-anchor="start" x="2114.5" y="-718.8" font-family="monospace" font-size="14.00">EX_Jump 60</text>
</g>
<!-- ExecuteUbergraph_BP_MissionControl_MemorialHallWelcome__138&#45;&gt;ExecuteUbergraph_BP_MissionControl_MemorialHallWelcome__148 -->
<g id="edge18" class="edge">
<title>ExecuteUbergraph_BP_MissionControl_MemorialHallWelcome__138&#45;&gt;ExecuteUbergraph_BP_MissionControl_MemorialHallWelcome__148</title>
<path fill="none" stroke="black" d="M2156,-778.83C2156,-770.61 2156,-760.65 2156,-751.45"/>
<polygon fill="black" stroke="black" points="2159.5,-751.52 2156,-741.52 2152.5,-751.52 2159.5,-751.52"/>
</g>
<!-- ExecuteUbergraph_BP_MissionControl_MemorialHallWelcome__148&#45;&gt;ExecuteUbergraph_BP_MissionControl_MemorialHallWelcome__60 -->
<g id="edge19" class="edge">
<title>ExecuteUbergraph_BP_MissionControl_MemorialHallWelcome__148&#45;&gt;ExecuteUbergraph_BP_MissionControl_MemorialHallWelcome__60</title>
<path fill="none" stroke="black" d="M2156,-704.8C2156,-696.71 2156,-686.78 2156,-677.57"/>
<polygon fill="black" stroke="black" points="2159.5,-677.62 2156,-667.62 2152.5,-677.62 2159.5,-677.62"/>
</g>
<!-- ExecuteUbergraph_BP_MissionControl_MemorialHallWelcome__153 -->
<g id="node22" class="node">
<title>ExecuteUbergraph_BP_MissionControl_MemorialHallWelcome__153</title>
<polygon fill="#eeeeee" stroke="black" points="2102.5,-946.5 2102.5,-982.5 2209.5,-982.5 2209.5,-946.5 2102.5,-946.5"/>
<text text-anchor="start" x="2110.5" y="-960.8" font-family="monospace" font-size="14.00">EX_Jump 118</text>
</g>
<!-- ExecuteUbergraph_BP_MissionControl_MemorialHallWelcome__153&#45;&gt;ExecuteUbergraph_BP_MissionControl_MemorialHallWelcome__118 -->
<g id="edge20" class="edge">
<title>ExecuteUbergraph_BP_MissionControl_MemorialHallWelcome__153&#45;&gt;ExecuteUbergraph_BP_MissionControl_MemorialHallWelcome__118</title>
<path fill="none" stroke="black" d="M2156,-946.61C2156,-938.44 2156,-928.28 2156,-918.46"/>
<polygon fill="black" stroke="black" points="2159.5,-918.74 2156,-908.74 2152.5,-918.74 2159.5,-918.74"/>
</g>
<!-- ExecuteUbergraph_BP_MissionControl_MemorialHallWelcome__160 -->
<g id="node24" class="node">
<title>ExecuteUbergraph_BP_MissionControl_MemorialHallWelcome__160</title>
<polygon fill="#eeeeee" stroke="black" points="1651,-1190.5 1651,-1226.5 1783,-1226.5 1783,-1190.5 1651,-1190.5"/>
<text text-anchor="start" x="1659" y="-1204.8" font-family="monospace" font-size="14.00">EX_EndOfScript</text>
</g>
<!-- ReceiveActorBeginOverlap -->
<g id="node25" class="node">
<title>ReceiveActorBeginOverlap</title>
<polygon fill="#ff8888" stroke="black" points="1401,-1290.5 1401,-1343.5 1871,-1343.5 1871,-1290.5 1401,-1290.5"/>
<text text-anchor="start" x="1409" y="-1328.3" font-family="monospace" font-size="14.00">Function ReceiveActorBeginOverlap</text>
<text text-anchor="start" x="1409" y="-1313.3" font-family="monospace" font-size="14.00">  ObjectProperty OtherActor</text>
<text text-anchor="start" x="1409" y="-1298.3" font-family="monospace" font-size="14.00">    CPF_BlueprintVisible|CPF_BlueprintReadOnly|CPF_Parm</text>
</g>
<!-- ReceiveActorBeginOverlap__0 -->
<g id="node26" class="node">
<title>ReceiveActorBeginOverlap__0</title>
<polygon fill="#eeeeee" stroke="black" points="1405,-1133.5 1405,-1171.5 1867,-1171.5 1867,-1133.5 1405,-1133.5"/>
<text text-anchor="start" x="1413" y="-1156.3" font-family="monospace" font-size="14.00">EX_LetValueOnPersistentFrame [K2Node_Event_OtherActor]</text>
<text text-anchor="start" x="1413" y="-1141.3" font-family="monospace" font-size="14.00">  EX_LocalVariable [OtherActor]</text>
</g>
<!-- ReceiveActorBeginOverlap&#45;&gt;ReceiveActorBeginOverlap__0 -->
<g id="edge21" class="edge">
<title>ReceiveActorBeginOverlap&#45;&gt;ReceiveActorBeginOverlap__0</title>
<path fill="none" stroke="black" d="M1636,-1290.61C1636,-1261.29 1636,-1213.18 1636,-1182.44"/>
<polygon fill="black" stroke="black" points="1639.5,-1182.71 1636,-1172.71 1632.5,-1182.71 1639.5,-1182.71"/>
</g>
<!-- ReceiveActorBeginOverlap__18 -->
<g id="node27" class="node">
<title>ReceiveActorBeginOverlap__18</title>
<polygon fill="#eeeeee" stroke="black" points="1116,-1021.5 1116,-1059.5 2156,-1059.5 2156,-1021.5 1116,-1021.5"/>
<text text-anchor="start" x="1124" y="-1044.3" font-family="monospace" font-size="14.00">EX_LocalFinalFunction export BP_MissionControl_MemorialHallWelcome_C&#45;&gt;ExecuteUbergraph_BP_MissionControl_MemorialHallWelcome</text>
<text text-anchor="start" x="1124" y="-1029.3" font-family="monospace" font-size="14.00">  EX_IntConst 153</text>
</g>
<!-- ReceiveActorBeginOverlap__0&#45;&gt;ReceiveActorBeginOverlap__18 -->
<g id="edge22" class="edge">
<title>ReceiveActorBeginOverlap__0&#45;&gt;ReceiveActorBeginOverlap__18</title>
<path fill="none" stroke="black" d="M1636,-1133.83C1636,-1116.85 1636,-1090.88 1636,-1070.81"/>
<polygon fill="black" stroke="black" points="1639.5,-1071.01 1636,-1061.01 1632.5,-1071.01 1639.5,-1071.01"/>
</g>
<!-- ReceiveActorBeginOverlap__18&#45;&gt;ExecuteUbergraph_BP_MissionControl_MemorialHallWelcome__153 -->
<g id="edge23" class="edge">
<title>ReceiveActorBeginOverlap__18:e&#45;&gt;ExecuteUbergraph_BP_MissionControl_MemorialHallWelcome__153</title>
<path fill="none" stroke="red" d="M2157,-1040.5C2176.65,-1040.5 2172.79,-1014.45 2166.31,-993.05"/>
<polygon fill="none" stroke="red" points="2169.63,-991.97 2163.16,-983.58 2162.99,-994.17 2169.63,-991.97"/>
</g>
<!-- ReceiveActorBeginOverlap__33 -->
<g id="node28" class="node">
<title>ReceiveActorBeginOverlap__33</title>
<polygon fill="#eeeeee" stroke="black" points="1578,-945.5 1578,-983.5 1694,-983.5 1694,-945.5 1578,-945.5"/>
<text text-anchor="start" x="1586" y="-968.3" font-family="monospace" font-size="14.00">EX_Return</text>
<text text-anchor="start" x="1586" y="-953.3" font-family="monospace" font-size="14.00">  EX_Nothing</text>
</g>
<!-- ReceiveActorBeginOverlap__18&#45;&gt;ReceiveActorBeginOverlap__33 -->
<g id="edge24" class="edge">
<title>ReceiveActorBeginOverlap__18&#45;&gt;ReceiveActorBeginOverlap__33</title>
<path fill="none" stroke="black" d="M1636,-1021.59C1636,-1013.5 1636,-1003.73 1636,-994.63"/>
<polygon fill="black" stroke="black" points="1639.5,-994.76 1636,-984.76 1632.5,-994.76 1639.5,-994.76"/>
</g>
<!-- ReceiveActorBeginOverlap__35 -->
<g id="node29" class="node">
<title>ReceiveActorBeginOverlap__35</title>
<polygon fill="#eeeeee" stroke="black" points="1651,-1078.5 1651,-1114.5 1783,-1114.5 1783,-1078.5 1651,-1078.5"/>
<text text-anchor="start" x="1659" y="-1092.8" font-family="monospace" font-size="14.00">EX_EndOfScript</text>
</g>
</g>
</svg>
