<?xml version="1.0" encoding="UTF-8" standalone="no"?>
<!DOCTYPE svg PUBLIC "-//W3C//DTD SVG 1.1//EN"
 "http://www.w3.org/Graphics/SVG/1.1/DTD/svg11.dtd">
<!-- Generated by graphviz version 7.0.1 (0)
 -->
<!-- Pages: 1 -->
<svg width="2625pt" height="977pt"
 viewBox="0.00 0.00 2625.00 977.00" xmlns="http://www.w3.org/2000/svg" xmlns:xlink="http://www.w3.org/1999/xlink">
<g id="graph0" class="graph" transform="scale(1 1) rotate(0) translate(4 973)">
<polygon fill="white" stroke="none" points="-4,4 -4,-973 2621,-973 2621,4 -4,4"/>
<!-- BP_MinersManual_Hologram_C -->
<g id="node1" class="node">
<title>BP_MinersManual_Hologram_C</title>
<polygon fill="#88ff88" stroke="black" points="0,-525.5 0,-968.5 594,-968.5 594,-525.5 0,-525.5"/>
<text text-anchor="start" x="8" y="-953.3" font-family="monospace" font-size="14.00">ClassExport: BP_MinersManual_Hologram_C</text>
<text text-anchor="start" x="8" y="-938.3" font-family="monospace" font-size="14.00">  SuperStruct: import /Script/Engine&#45;&gt;Actor</text>
<text text-anchor="start" x="8" y="-923.3" font-family="monospace" font-size="14.00">  Properties:</text>
<text text-anchor="start" x="8" y="-908.3" font-family="monospace" font-size="14.00">    StructProperty UberGraphFrame</text>
<text text-anchor="start" x="8" y="-893.3" font-family="monospace" font-size="14.00">      CPF_Transient|CPF_DuplicateTransient</text>
<text text-anchor="start" x="8" y="-878.3" font-family="monospace" font-size="14.00">    ObjectProperty SM_Spider_Grunt_GuardA</text>
<text text-anchor="start" x="8" y="-863.3" font-family="monospace" font-size="14.00">      CPF_BlueprintVisible|CPF_InstancedReference|CPF_NonTransactional</text>
<text text-anchor="start" x="8" y="-848.3" font-family="monospace" font-size="14.00">    ObjectProperty SM_Spider_Grunt_A</text>
<text text-anchor="start" x="8" y="-833.3" font-family="monospace" font-size="14.00">      CPF_BlueprintVisible|CPF_InstancedReference|CPF_NonTransactional</text>
<text text-anchor="start" x="8" y="-818.3" font-family="monospace" font-size="14.00">    ObjectProperty SK_Flier_Grabber_A</text>
<text text-anchor="start" x="8" y="-803.3" font-family="monospace" font-size="14.00">      CPF_BlueprintVisible|CPF_InstancedReference|CPF_NonTransactional</text>
<text text-anchor="start" x="8" y="-788.3" font-family="monospace" font-size="14.00">    ObjectProperty SK_Flier_Heavy</text>
<text text-anchor="start" x="8" y="-773.3" font-family="monospace" font-size="14.00">      CPF_BlueprintVisible|CPF_InstancedReference|CPF_NonTransactional</text>
<text text-anchor="start" x="8" y="-758.3" font-family="monospace" font-size="14.00">    ObjectProperty SK_Flier_Triple_Shooter</text>
<text text-anchor="start" x="8" y="-743.3" font-family="monospace" font-size="14.00">      CPF_BlueprintVisible|CPF_InstancedReference|CPF_NonTransactional</text>
<text text-anchor="start" x="8" y="-728.3" font-family="monospace" font-size="14.00">    ObjectProperty SK_Flier_Shooter</text>
<text text-anchor="start" x="8" y="-713.3" font-family="monospace" font-size="14.00">      CPF_BlueprintVisible|CPF_InstancedReference|CPF_NonTransactional</text>
<text text-anchor="start" x="8" y="-698.3" font-family="monospace" font-size="14.00">    ObjectProperty SK_Spider_Tank_A</text>
<text text-anchor="start" x="8" y="-683.3" font-family="monospace" font-size="14.00">      CPF_BlueprintVisible|CPF_InstancedReference|CPF_NonTransactional</text>
<text text-anchor="start" x="8" y="-668.3" font-family="monospace" font-size="14.00">    ObjectProperty Scene</text>
<text text-anchor="start" x="8" y="-653.3" font-family="monospace" font-size="14.00">      CPF_BlueprintVisible|CPF_InstancedReference|CPF_NonTransactional</text>
<text text-anchor="start" x="8" y="-638.3" font-family="monospace" font-size="14.00">    ObjectProperty coneLight</text>
<text text-anchor="start" x="8" y="-623.3" font-family="monospace" font-size="14.00">      CPF_BlueprintVisible|CPF_InstancedReference|CPF_NonTransactional</text>
<text text-anchor="start" x="8" y="-608.3" font-family="monospace" font-size="14.00">    ObjectProperty MinersManual</text>
<text text-anchor="start" x="8" y="-593.3" font-family="monospace" font-size="14.00">      CPF_BlueprintVisible|CPF_InstancedReference|CPF_NonTransactional</text>
<text text-anchor="start" x="8" y="-578.3" font-family="monospace" font-size="14.00">    ObjectProperty DefaultSceneRoot</text>
<text text-anchor="start" x="8" y="-563.3" font-family="monospace" font-size="14.00">      CPF_BlueprintVisible|CPF_InstancedReference|CPF_NonTransactional</text>
<text text-anchor="start" x="8" y="-548.3" font-family="monospace" font-size="14.00">    FloatProperty Rot speed</text>
<text text-anchor="start" x="8" y="-533.3" font-family="monospace" font-size="14.00">      CPF_Edit|CPF_BlueprintVisible|CPF_DisableEditOnInstance</text>
</g>
<!-- ExecuteUbergraph_BP_MinersManual_Hologram -->
<g id="node2" class="node">
<title>ExecuteUbergraph_BP_MinersManual_Hologram</title>
<polygon fill="#ff8888" stroke="black" points="612,-690.5 612,-803.5 1148,-803.5 1148,-690.5 612,-690.5"/>
<text text-anchor="start" x="620" y="-788.3" font-family="monospace" font-size="14.00">Function ExecuteUbergraph_BP_MinersManual_Hologram</text>
<text text-anchor="start" x="620" y="-773.3" font-family="monospace" font-size="14.00">  IntProperty EntryPoint</text>
<text text-anchor="start" x="620" y="-758.3" font-family="monospace" font-size="14.00">    CPF_BlueprintVisible|CPF_BlueprintReadOnly|CPF_Parm</text>
<text text-anchor="start" x="620" y="-743.3" font-family="monospace" font-size="14.00">  FloatProperty K2Node_Event_DeltaSeconds</text>
<text text-anchor="start" x="620" y="-728.3" font-family="monospace" font-size="14.00">  StructProperty CallFunc_MakeRotator_ReturnValue</text>
<text text-anchor="start" x="620" y="-713.3" font-family="monospace" font-size="14.00">  StructProperty CallFunc_K2_AddRelativeRotation_SweepHitResult</text>
<text text-anchor="start" x="620" y="-698.3" font-family="monospace" font-size="14.00">    CPF_ContainsInstancedReference</text>
</g>
<!-- ExecuteUbergraph_BP_MinersManual_Hologram__0 -->
<g id="node3" class="node">
<title>ExecuteUbergraph_BP_MinersManual_Hologram__0</title>
<polygon fill="#eeeeee" stroke="black" points="744,-450.5 744,-488.5 1016,-488.5 1016,-450.5 744,-450.5"/>
<text text-anchor="start" x="752" y="-473.3" font-family="monospace" font-size="14.00">EX_ComputedJump</text>
<text text-anchor="start" x="752" y="-458.3" font-family="monospace" font-size="14.00">  EX_LocalVariable [EntryPoint]</text>
</g>
<!-- ExecuteUbergraph_BP_MinersManual_Hologram&#45;&gt;ExecuteUbergraph_BP_MinersManual_Hologram__0 -->
<g id="edge1" class="edge">
<title>ExecuteUbergraph_BP_MinersManual_Hologram&#45;&gt;ExecuteUbergraph_BP_MinersManual_Hologram__0</title>
<path fill="none" stroke="black" d="M880,-690.58C880,-633.01 880,-545.13 880,-499.8"/>
<polygon fill="black" stroke="black" points="883.5,-499.98 880,-489.98 876.5,-499.98 883.5,-499.98"/>
</g>
<!-- ExecuteUbergraph_BP_MinersManual_Hologram__10 -->
<g id="node4" class="node">
<title>ExecuteUbergraph_BP_MinersManual_Hologram__10</title>
<polygon fill="#eeeeee" stroke="black" points="2416.5,-271.5 2416.5,-307.5 2523.5,-307.5 2523.5,-271.5 2416.5,-271.5"/>
<text text-anchor="start" x="2424.5" y="-285.8" font-family="monospace" font-size="14.00">EX_Jump 114</text>
</g>
<!-- ExecuteUbergraph_BP_MinersManual_Hologram__114 -->
<g id="node7" class="node">
<title>ExecuteUbergraph_BP_MinersManual_Hologram__114</title>
<polygon fill="#eeeeee" stroke="black" points="2188,-0.5 2188,-38.5 2304,-38.5 2304,-0.5 2188,-0.5"/>
<text text-anchor="start" x="2196" y="-23.3" font-family="monospace" font-size="14.00">EX_Return</text>
<text text-anchor="start" x="2196" y="-8.3" font-family="monospace" font-size="14.00">  EX_Nothing</text>
</g>
<!-- ExecuteUbergraph_BP_MinersManual_Hologram__10&#45;&gt;ExecuteUbergraph_BP_MinersManual_Hologram__114 -->
<g id="edge2" class="edge">
<title>ExecuteUbergraph_BP_MinersManual_Hologram__10&#45;&gt;ExecuteUbergraph_BP_MinersManual_Hologram__114</title>
<path fill="none" stroke="black" d="M2470.38,-271.52C2470.33,-231.67 2464.55,-131.27 2411,-75 2403.85,-67.49 2356.76,-52.32 2314.71,-39.89"/>
<polygon fill="black" stroke="black" points="2315.91,-36.59 2305.33,-37.13 2313.94,-43.31 2315.91,-36.59"/>
</g>
<!-- ExecuteUbergraph_BP_MinersManual_Hologram__15 -->
<g id="node5" class="node">
<title>ExecuteUbergraph_BP_MinersManual_Hologram__15</title>
<polygon fill="#eeeeee" stroke="black" points="1725.5,-240.5 1725.5,-338.5 2294.5,-338.5 2294.5,-240.5 1725.5,-240.5"/>
<text text-anchor="start" x="1733.5" y="-323.3" font-family="monospace" font-size="14.00">EX_Let</text>
<text text-anchor="start" x="1733.5" y="-308.3" font-family="monospace" font-size="14.00">  EX_LocalVariable [CallFunc_MakeRotator_ReturnValue]</text>
<text text-anchor="start" x="1733.5" y="-293.3" font-family="monospace" font-size="14.00">  EX_CallMath import /Script/Engine&#45;&gt;KismetMathLibrary&#45;&gt;MakeRotator</text>
<text text-anchor="start" x="1733.5" y="-278.3" font-family="monospace" font-size="14.00">    EX_FloatConst 0</text>
<text text-anchor="start" x="1733.5" y="-263.3" font-family="monospace" font-size="14.00">    EX_FloatConst 0</text>
<text text-anchor="start" x="1733.5" y="-248.3" font-family="monospace" font-size="14.00">    EX_InstanceVariable [Rot speed]</text>
</g>
<!-- ExecuteUbergraph_BP_MinersManual_Hologram__62 -->
<g id="node6" class="node">
<title>ExecuteUbergraph_BP_MinersManual_Hologram__62</title>
<polygon fill="#eeeeee" stroke="black" points="1724.5,-75.5 1724.5,-203.5 2401.5,-203.5 2401.5,-75.5 1724.5,-75.5"/>
<text text-anchor="start" x="1732.5" y="-188.3" font-family="monospace" font-size="14.00">EX_Context</text>
<text text-anchor="start" x="1732.5" y="-173.3" font-family="monospace" font-size="14.00">  EX_InstanceVariable [Scene]</text>
<text text-anchor="start" x="1732.5" y="-158.3" font-family="monospace" font-size="14.00">  EX_FinalFunction import /Script/Engine&#45;&gt;SceneComponent&#45;&gt;K2_AddRelativeRotation</text>
<text text-anchor="start" x="1732.5" y="-143.3" font-family="monospace" font-size="14.00">    EX_LocalVariable [CallFunc_MakeRotator_ReturnValue]</text>
<text text-anchor="start" x="1732.5" y="-128.3" font-family="monospace" font-size="14.00">    EX_False</text>
<text text-anchor="start" x="1732.5" y="-113.3" font-family="monospace" font-size="14.00">    EX_LocalVariable [CallFunc_K2_AddRelativeRotation_SweepHitResult]</text>
<text text-anchor="start" x="1732.5" y="-98.3" font-family="monospace" font-size="14.00">    EX_False</text>
<text text-anchor="start" x="1732.5" y="-83.3" font-family="monospace" font-size="14.00">  RValue = []</text>
</g>
<!-- ExecuteUbergraph_BP_MinersManual_Hologram__15&#45;&gt;ExecuteUbergraph_BP_MinersManual_Hologram__62 -->
<g id="edge3" class="edge">
<title>ExecuteUbergraph_BP_MinersManual_Hologram__15&#45;&gt;ExecuteUbergraph_BP_MinersManual_Hologram__62</title>
<path fill="none" stroke="black" d="M2027.06,-240.86C2030.13,-232.29 2033.39,-223.19 2036.65,-214.09"/>
<polygon fill="black" stroke="black" points="2039.87,-215.47 2039.95,-204.87 2033.28,-213.11 2039.87,-215.47"/>
</g>
<!-- ExecuteUbergraph_BP_MinersManual_Hologram__62&#45;&gt;ExecuteUbergraph_BP_MinersManual_Hologram__114 -->
<g id="edge4" class="edge">
<title>ExecuteUbergraph_BP_MinersManual_Hologram__62&#45;&gt;ExecuteUbergraph_BP_MinersManual_Hologram__114</title>
<path fill="none" stroke="black" d="M2160.66,-75.53C2177.82,-64.46 2194.69,-53.58 2208.85,-44.46"/>
<polygon fill="black" stroke="black" points="2210.4,-47.62 2216.91,-39.26 2206.61,-41.74 2210.4,-47.62"/>
</g>
<!-- ExecuteUbergraph_BP_MinersManual_Hologram__116 -->
<g id="node8" class="node">
<title>ExecuteUbergraph_BP_MinersManual_Hologram__116</title>
<polygon fill="#eeeeee" stroke="black" points="2485,-121.5 2485,-157.5 2617,-157.5 2617,-121.5 2485,-121.5"/>
<text text-anchor="start" x="2493" y="-135.8" font-family="monospace" font-size="14.00">EX_EndOfScript</text>
</g>
<!-- ReceiveTick -->
<g id="node9" class="node">
<title>ReceiveTick</title>
<polygon fill="#ff8888" stroke="black" points="1166,-720.5 1166,-773.5 1636,-773.5 1636,-720.5 1166,-720.5"/>
<text text-anchor="start" x="1174" y="-758.3" font-family="monospace" font-size="14.00">Function ReceiveTick</text>
<text text-anchor="start" x="1174" y="-743.3" font-family="monospace" font-size="14.00">  FloatProperty DeltaSeconds</text>
<text text-anchor="start" x="1174" y="-728.3" font-family="monospace" font-size="14.00">    CPF_BlueprintVisible|CPF_BlueprintReadOnly|CPF_Parm</text>
</g>
<!-- ReceiveTick__0 -->
<g id="node10" class="node">
<title>ReceiveTick__0</title>
<polygon fill="#eeeeee" stroke="black" points="1161.5,-450.5 1161.5,-488.5 1640.5,-488.5 1640.5,-450.5 1161.5,-450.5"/>
<text text-anchor="start" x="1169.5" y="-473.3" font-family="monospace" font-size="14.00">EX_LetValueOnPersistentFrame [K2Node_Event_DeltaSeconds]</text>
<text text-anchor="start" x="1169.5" y="-458.3" font-family="monospace" font-size="14.00">  EX_LocalVariable [DeltaSeconds]</text>
</g>
<!-- ReceiveTick&#45;&gt;ReceiveTick__0 -->
<g id="edge5" class="edge">
<title>ReceiveTick&#45;&gt;ReceiveTick__0</title>
<path fill="none" stroke="black" d="M1401,-720.58C1401,-669.31 1401,-553.8 1401,-499.61"/>
<polygon fill="black" stroke="black" points="1404.5,-499.93 1401,-489.93 1397.5,-499.93 1404.5,-499.93"/>
</g>
<!-- ReceiveTick__18 -->
<g id="node11" class="node">
<title>ReceiveTick__18</title>
<polygon fill="#eeeeee" stroke="black" points="1078.5,-375.5 1078.5,-413.5 1903.5,-413.5 1903.5,-375.5 1078.5,-375.5"/>
<text text-anchor="start" x="1086.5" y="-398.3" font-family="monospace" font-size="14.00">EX_LocalFinalFunction export BP_MinersManual_Hologram_C&#45;&gt;ExecuteUbergraph_BP_MinersManual_Hologram</text>
<text text-anchor="start" x="1086.5" y="-383.3" font-family="monospace" font-size="14.00">  EX_IntConst 15</text>
</g>
<!-- ReceiveTick__0&#45;&gt;ReceiveTick__18 -->
<g id="edge6" class="edge">
<title>ReceiveTick__0&#45;&gt;ReceiveTick__18</title>
<path fill="none" stroke="black" d="M1422.79,-450.83C1434.09,-441.66 1448.08,-430.31 1460.45,-420.28"/>
<polygon fill="black" stroke="black" points="1462.37,-423.23 1467.93,-414.21 1457.96,-417.8 1462.37,-423.23"/>
</g>
<!-- ReceiveTick__18&#45;&gt;ExecuteUbergraph_BP_MinersManual_Hologram__15 -->
<g id="edge7" class="edge">
<title>ReceiveTick__18:e&#45;&gt;ExecuteUbergraph_BP_MinersManual_Hologram__15</title>
<path fill="none" stroke="red" d="M1905,-394.5C1935.71,-394.5 1960.66,-371.76 1978.52,-347.55"/>
<polygon fill="none" stroke="red" points="1981.3,-349.68 1984.15,-339.48 1975.56,-345.68 1981.3,-349.68"/>
</g>
<!-- ReceiveTick__33 -->
<g id="node12" class="node">
<title>ReceiveTick__33</title>
<polygon fill="#eeeeee" stroke="black" points="1433,-270.5 1433,-308.5 1549,-308.5 1549,-270.5 1433,-270.5"/>
<text text-anchor="start" x="1441" y="-293.3" font-family="monospace" font-size="14.00">EX_Return</text>
<text text-anchor="start" x="1441" y="-278.3" font-family="monospace" font-size="14.00">  EX_Nothing</text>
</g>
<!-- ReceiveTick__18&#45;&gt;ReceiveTick__33 -->
<g id="edge8" class="edge">
<title>ReceiveTick__18&#45;&gt;ReceiveTick__33</title>
<path fill="none" stroke="black" d="M1491,-375.56C1491,-360.12 1491,-337.57 1491,-319.56"/>
<polygon fill="black" stroke="black" points="1494.5,-319.75 1491,-309.75 1487.5,-319.75 1494.5,-319.75"/>
</g>
<!-- ReceiveTick__35 -->
<g id="node13" class="node">
<title>ReceiveTick__35</title>
<polygon fill="#eeeeee" stroke="black" points="2322,-1.5 2322,-37.5 2454,-37.5 2454,-1.5 2322,-1.5"/>
<text text-anchor="start" x="2330" y="-15.8" font-family="monospace" font-size="14.00">EX_EndOfScript</text>
</g>
<!-- ReceiveBeginPlay -->
<g id="node14" class="node">
<title>ReceiveBeginPlay</title>
<polygon fill="#ff8888" stroke="black" points="1959.5,-729 1959.5,-765 2182.5,-765 2182.5,-729 1959.5,-729"/>
<text text-anchor="start" x="1967.5" y="-743.3" font-family="monospace" font-size="14.00">Function ReceiveBeginPlay</text>
</g>
<!-- ReceiveBeginPlay__0 -->
<g id="node15" class="node">
<title>ReceiveBeginPlay__0</title>
<polygon fill="#eeeeee" stroke="black" points="1658.5,-450.5 1658.5,-488.5 2483.5,-488.5 2483.5,-450.5 1658.5,-450.5"/>
<text text-anchor="start" x="1666.5" y="-473.3" font-family="monospace" font-size="14.00">EX_LocalFinalFunction export BP_MinersManual_Hologram_C&#45;&gt;ExecuteUbergraph_BP_MinersManual_Hologram</text>
<text text-anchor="start" x="1666.5" y="-458.3" font-family="monospace" font-size="14.00">  EX_IntConst 10</text>
</g>
<!-- ReceiveBeginPlay&#45;&gt;ReceiveBeginPlay__0 -->
<g id="edge9" class="edge">
<title>ReceiveBeginPlay&#45;&gt;ReceiveBeginPlay__0</title>
<path fill="none" stroke="black" d="M2071,-729.18C2071,-683.58 2071,-557.15 2071,-499.64"/>
<polygon fill="black" stroke="black" points="2074.5,-499.67 2071,-489.67 2067.5,-499.67 2074.5,-499.67"/>
</g>
<!-- ReceiveBeginPlay__0&#45;&gt;ExecuteUbergraph_BP_MinersManual_Hologram__10 -->
<g id="edge10" class="edge">
<title>ReceiveBeginPlay__0:e&#45;&gt;ExecuteUbergraph_BP_MinersManual_Hologram__10</title>
<path fill="none" stroke="red" d="M2485,-469.5C2545.16,-469.5 2506.13,-367.86 2483.25,-317.76"/>
<polygon fill="none" stroke="red" points="2486.42,-316.29 2479.02,-308.71 2480.08,-319.25 2486.42,-316.29"/>
</g>
<!-- ReceiveBeginPlay__15 -->
<g id="node16" class="node">
<title>ReceiveBeginPlay__15</title>
<polygon fill="#eeeeee" stroke="black" points="2013,-375.5 2013,-413.5 2129,-413.5 2129,-375.5 2013,-375.5"/>
<text text-anchor="start" x="2021" y="-398.3" font-family="monospace" font-size="14.00">EX_Return</text>
<text text-anchor="start" x="2021" y="-383.3" font-family="monospace" font-size="14.00">  EX_Nothing</text>
</g>
<!-- ReceiveBeginPlay__0&#45;&gt;ReceiveBeginPlay__15 -->
<g id="edge11" class="edge">
<title>ReceiveBeginPlay__0&#45;&gt;ReceiveBeginPlay__15</title>
<path fill="none" stroke="black" d="M2071,-450.83C2071,-443 2071,-433.57 2071,-424.74"/>
<polygon fill="black" stroke="black" points="2074.5,-424.78 2071,-414.78 2067.5,-424.78 2074.5,-424.78"/>
</g>
<!-- ReceiveBeginPlay__17 -->
<g id="node17" class="node">
<title>ReceiveBeginPlay__17</title>
<polygon fill="#eeeeee" stroke="black" points="2201,-729 2201,-765 2333,-765 2333,-729 2201,-729"/>
<text text-anchor="start" x="2209" y="-743.3" font-family="monospace" font-size="14.00">EX_EndOfScript</text>
</g>
</g>
</svg>
