<?xml version="1.0" encoding="UTF-8" standalone="no"?>
<!DOCTYPE svg PUBLIC "-//W3C//DTD SVG 1.1//EN"
 "http://www.w3.org/Graphics/SVG/1.1/DTD/svg11.dtd">
<!-- Generated by graphviz version 7.0.1 (0)
 -->
<!-- Pages: 1 -->
<svg width="2842pt" height="735pt"
 viewBox="0.00 0.00 2842.00 735.00" xmlns="http://www.w3.org/2000/svg" xmlns:xlink="http://www.w3.org/1999/xlink">
<g id="graph0" class="graph" transform="scale(1 1) rotate(0) translate(4 731)">
<polygon fill="white" stroke="none" points="-4,4 -4,-731 2838,-731 2838,4 -4,4"/>
<!-- BP_InfectedState_C -->
<g id="node1" class="node">
<title>BP_InfectedState_C</title>
<polygon fill="#88ff88" stroke="black" points="0,-643.5 0,-726.5 487,-726.5 487,-643.5 0,-643.5"/>
<text text-anchor="start" x="8" y="-711.3" font-family="monospace" font-size="14.00">ClassExport: BP_InfectedState_C</text>
<text text-anchor="start" x="8" y="-696.3" font-family="monospace" font-size="14.00">  SuperStruct: import /Script/FSD&#45;&gt;InfectedStateComponent</text>
<text text-anchor="start" x="8" y="-681.3" font-family="monospace" font-size="14.00">  Properties:</text>
<text text-anchor="start" x="8" y="-666.3" font-family="monospace" font-size="14.00">    StructProperty UberGraphFrame</text>
<text text-anchor="start" x="8" y="-651.3" font-family="monospace" font-size="14.00">      CPF_Transient|CPF_DuplicateTransient</text>
</g>
<!-- ExecuteUbergraph_BP_InfectedState -->
<g id="node2" class="node">
<title>ExecuteUbergraph_BP_InfectedState</title>
<polygon fill="#ff8888" stroke="black" points="505,-643.5 505,-726.5 1000,-726.5 1000,-643.5 505,-643.5"/>
<text text-anchor="start" x="513" y="-711.3" font-family="monospace" font-size="14.00">Function ExecuteUbergraph_BP_InfectedState</text>
<text text-anchor="start" x="513" y="-696.3" font-family="monospace" font-size="14.00">  IntProperty EntryPoint</text>
<text text-anchor="start" x="513" y="-681.3" font-family="monospace" font-size="14.00">    CPF_BlueprintVisible|CPF_BlueprintReadOnly|CPF_Parm</text>
<text text-anchor="start" x="513" y="-666.3" font-family="monospace" font-size="14.00">  BoolProperty CallFunc_PopActiveStatusEffect_ReturnValue</text>
<text text-anchor="start" x="513" y="-651.3" font-family="monospace" font-size="14.00">  BoolProperty CallFunc_PushActiveStatusEffect_ReturnValue</text>
</g>
<!-- ExecuteUbergraph_BP_InfectedState__0 -->
<g id="node3" class="node">
<title>ExecuteUbergraph_BP_InfectedState__0</title>
<polygon fill="#eeeeee" stroke="black" points="616.5,-568.5 616.5,-606.5 888.5,-606.5 888.5,-568.5 616.5,-568.5"/>
<text text-anchor="start" x="624.5" y="-591.3" font-family="monospace" font-size="14.00">EX_ComputedJump</text>
<text text-anchor="start" x="624.5" y="-576.3" font-family="monospace" font-size="14.00">  EX_LocalVariable [EntryPoint]</text>
</g>
<!-- ExecuteUbergraph_BP_InfectedState&#45;&gt;ExecuteUbergraph_BP_InfectedState__0 -->
<g id="edge1" class="edge">
<title>ExecuteUbergraph_BP_InfectedState&#45;&gt;ExecuteUbergraph_BP_InfectedState__0</title>
<path fill="none" stroke="black" d="M752.5,-643.78C752.5,-635.01 752.5,-625.89 752.5,-617.65"/>
<polygon fill="black" stroke="black" points="756,-617.86 752.5,-607.86 749,-617.86 756,-617.86"/>
</g>
<!-- ExecuteUbergraph_BP_InfectedState__10 -->
<g id="node4" class="node">
<title>ExecuteUbergraph_BP_InfectedState__10</title>
<polygon fill="#eeeeee" stroke="black" points="1803,-358.5 1803,-531.5 2834,-531.5 2834,-358.5 1803,-358.5"/>
<text text-anchor="start" x="1811" y="-516.3" font-family="monospace" font-size="14.00">EX_LetBool</text>
<text text-anchor="start" x="1811" y="-501.3" font-family="monospace" font-size="14.00">  EX_LocalVariable [CallFunc_PushActiveStatusEffect_ReturnValue]</text>
<text text-anchor="start" x="1811" y="-486.3" font-family="monospace" font-size="14.00">  EX_Context</text>
<text text-anchor="start" x="1811" y="-471.3" font-family="monospace" font-size="14.00">    EX_Context</text>
<text text-anchor="start" x="1811" y="-456.3" font-family="monospace" font-size="14.00">      EX_InstanceVariable [Character]</text>
<text text-anchor="start" x="1811" y="-441.3" font-family="monospace" font-size="14.00">      EX_InstanceVariable [StatusEffectsComponent]</text>
<text text-anchor="start" x="1811" y="-426.3" font-family="monospace" font-size="14.00">      RValue = [StatusEffectsComponent]</text>
<text text-anchor="start" x="1811" y="-411.3" font-family="monospace" font-size="14.00">    EX_FinalFunction import /Script/FSD&#45;&gt;StatusEffectsComponent&#45;&gt;PushActiveStatusEffect</text>
<text text-anchor="start" x="1811" y="-396.3" font-family="monospace" font-size="14.00">      EX_ObjectConst import /Game/Character/Affliction/STE_Plague_PlayerHeldByInfection&#45;&gt;STE_Plague_PlayerHeldByInfection_C</text>
<text text-anchor="start" x="1811" y="-381.3" font-family="monospace" font-size="14.00">      EX_NoObject</text>
<text text-anchor="start" x="1811" y="-366.3" font-family="monospace" font-size="14.00">    RValue = [CallFunc_PushActiveStatusEffect_ReturnValue]</text>
</g>
<!-- ExecuteUbergraph_BP_InfectedState__84 -->
<g id="node5" class="node">
<title>ExecuteUbergraph_BP_InfectedState__84</title>
<polygon fill="#eeeeee" stroke="black" points="2232,-217 2232,-253 2339,-253 2339,-217 2232,-217"/>
<text text-anchor="start" x="2240" y="-231.3" font-family="monospace" font-size="14.00">EX_Jump 173</text>
</g>
<!-- ExecuteUbergraph_BP_InfectedState__10&#45;&gt;ExecuteUbergraph_BP_InfectedState__84 -->
<g id="edge2" class="edge">
<title>ExecuteUbergraph_BP_InfectedState__10&#45;&gt;ExecuteUbergraph_BP_InfectedState__84</title>
<path fill="none" stroke="black" d="M2304.98,-358.8C2299.62,-325.01 2293.83,-288.49 2289.96,-264.14"/>
<polygon fill="black" stroke="black" points="2293.44,-263.73 2288.42,-254.41 2286.53,-264.83 2293.44,-263.73"/>
</g>
<!-- ExecuteUbergraph_BP_InfectedState__173 -->
<g id="node9" class="node">
<title>ExecuteUbergraph_BP_InfectedState__173</title>
<polygon fill="#eeeeee" stroke="black" points="1900.5,-0.5 1900.5,-38.5 2016.5,-38.5 2016.5,-0.5 1900.5,-0.5"/>
<text text-anchor="start" x="1908.5" y="-23.3" font-family="monospace" font-size="14.00">EX_Return</text>
<text text-anchor="start" x="1908.5" y="-8.3" font-family="monospace" font-size="14.00">  EX_Nothing</text>
</g>
<!-- ExecuteUbergraph_BP_InfectedState__84&#45;&gt;ExecuteUbergraph_BP_InfectedState__173 -->
<g id="edge3" class="edge">
<title>ExecuteUbergraph_BP_InfectedState__84&#45;&gt;ExecuteUbergraph_BP_InfectedState__173</title>
<path fill="none" stroke="black" d="M2269.35,-217.2C2251.22,-198.87 2220.39,-169.3 2190.5,-148 2131.05,-105.63 2056.05,-66.76 2007.69,-43.35"/>
<polygon fill="black" stroke="black" points="2009.39,-40.28 1998.86,-39.1 2006.36,-46.59 2009.39,-40.28"/>
</g>
<!-- ExecuteUbergraph_BP_InfectedState__89 -->
<g id="node6" class="node">
<title>ExecuteUbergraph_BP_InfectedState__89</title>
<polygon fill="#eeeeee" stroke="black" points="1150,-148.5 1150,-321.5 2181,-321.5 2181,-148.5 1150,-148.5"/>
<text text-anchor="start" x="1158" y="-306.3" font-family="monospace" font-size="14.00">EX_LetBool</text>
<text text-anchor="start" x="1158" y="-291.3" font-family="monospace" font-size="14.00">  EX_LocalVariable [CallFunc_PopActiveStatusEffect_ReturnValue]</text>
<text text-anchor="start" x="1158" y="-276.3" font-family="monospace" font-size="14.00">  EX_Context</text>
<text text-anchor="start" x="1158" y="-261.3" font-family="monospace" font-size="14.00">    EX_Context</text>
<text text-anchor="start" x="1158" y="-246.3" font-family="monospace" font-size="14.00">      EX_InstanceVariable [Character]</text>
<text text-anchor="start" x="1158" y="-231.3" font-family="monospace" font-size="14.00">      EX_InstanceVariable [StatusEffectsComponent]</text>
<text text-anchor="start" x="1158" y="-216.3" font-family="monospace" font-size="14.00">      RValue = [StatusEffectsComponent]</text>
<text text-anchor="start" x="1158" y="-201.3" font-family="monospace" font-size="14.00">    EX_FinalFunction import /Script/FSD&#45;&gt;StatusEffectsComponent&#45;&gt;PopActiveStatusEffect</text>
<text text-anchor="start" x="1158" y="-186.3" font-family="monospace" font-size="14.00">      EX_ObjectConst import /Game/Character/Affliction/STE_Plague_PlayerHeldByInfection&#45;&gt;STE_Plague_PlayerHeldByInfection_C</text>
<text text-anchor="start" x="1158" y="-171.3" font-family="monospace" font-size="14.00">      EX_NoObject</text>
<text text-anchor="start" x="1158" y="-156.3" font-family="monospace" font-size="14.00">    RValue = [CallFunc_PopActiveStatusEffect_ReturnValue]</text>
</g>
<!-- ExecuteUbergraph_BP_InfectedState__163 -->
<g id="node7" class="node">
<title>ExecuteUbergraph_BP_InfectedState__163</title>
<polygon fill="#eeeeee" stroke="black" points="1864,-75.5 1864,-111.5 1971,-111.5 1971,-75.5 1864,-75.5"/>
<text text-anchor="start" x="1872" y="-89.8" font-family="monospace" font-size="14.00">EX_Jump 173</text>
</g>
<!-- ExecuteUbergraph_BP_InfectedState__89&#45;&gt;ExecuteUbergraph_BP_InfectedState__163 -->
<g id="edge4" class="edge">
<title>ExecuteUbergraph_BP_InfectedState__89&#45;&gt;ExecuteUbergraph_BP_InfectedState__163</title>
<path fill="none" stroke="black" d="M1819.71,-148.63C1840.86,-136.92 1860.9,-125.83 1877.26,-116.77"/>
<polygon fill="black" stroke="black" points="1878.57,-120.05 1885.63,-112.14 1875.18,-113.92 1878.57,-120.05"/>
</g>
<!-- ExecuteUbergraph_BP_InfectedState__163&#45;&gt;ExecuteUbergraph_BP_InfectedState__173 -->
<g id="edge5" class="edge">
<title>ExecuteUbergraph_BP_InfectedState__163&#45;&gt;ExecuteUbergraph_BP_InfectedState__173</title>
<path fill="none" stroke="black" d="M1927.01,-75.8C1931.65,-67.65 1937.36,-57.63 1942.63,-48.36"/>
<polygon fill="black" stroke="black" points="1945.67,-50.1 1947.58,-39.68 1939.59,-46.64 1945.67,-50.1"/>
</g>
<!-- ExecuteUbergraph_BP_InfectedState__168 -->
<g id="node8" class="node">
<title>ExecuteUbergraph_BP_InfectedState__168</title>
<polygon fill="#eeeeee" stroke="black" points="1551,-427 1551,-463 1650,-463 1650,-427 1551,-427"/>
<text text-anchor="start" x="1559" y="-441.3" font-family="monospace" font-size="14.00">EX_Jump 89</text>
</g>
<!-- ExecuteUbergraph_BP_InfectedState__168&#45;&gt;ExecuteUbergraph_BP_InfectedState__89 -->
<g id="edge6" class="edge">
<title>ExecuteUbergraph_BP_InfectedState__168&#45;&gt;ExecuteUbergraph_BP_InfectedState__89</title>
<path fill="none" stroke="black" d="M1605.71,-427.33C1612.29,-406.27 1624.14,-368.36 1635.56,-331.8"/>
<polygon fill="black" stroke="black" points="1638.83,-333.07 1638.48,-322.48 1632.15,-330.98 1638.83,-333.07"/>
</g>
<!-- ExecuteUbergraph_BP_InfectedState__175 -->
<g id="node10" class="node">
<title>ExecuteUbergraph_BP_InfectedState__175</title>
<polygon fill="#eeeeee" stroke="black" points="2153.5,-75.5 2153.5,-111.5 2285.5,-111.5 2285.5,-75.5 2153.5,-75.5"/>
<text text-anchor="start" x="2161.5" y="-89.8" font-family="monospace" font-size="14.00">EX_EndOfScript</text>
</g>
<!-- ReceiveStateExit -->
<g id="node11" class="node">
<title>ReceiveStateExit</title>
<polygon fill="#ff8888" stroke="black" points="1142,-667 1142,-703 1365,-703 1365,-667 1142,-667"/>
<text text-anchor="start" x="1150" y="-681.3" font-family="monospace" font-size="14.00">Function ReceiveStateExit</text>
</g>
<!-- ReceiveStateExit__0 -->
<g id="node12" class="node">
<title>ReceiveStateExit__0</title>
<polygon fill="#eeeeee" stroke="black" points="907,-568.5 907,-606.5 1600,-606.5 1600,-568.5 907,-568.5"/>
<text text-anchor="start" x="915" y="-591.3" font-family="monospace" font-size="14.00">EX_LocalFinalFunction export BP_InfectedState_C&#45;&gt;ExecuteUbergraph_BP_InfectedState</text>
<text text-anchor="start" x="915" y="-576.3" font-family="monospace" font-size="14.00">  EX_IntConst 168</text>
</g>
<!-- ReceiveStateExit&#45;&gt;ReceiveStateExit__0 -->
<g id="edge7" class="edge">
<title>ReceiveStateExit&#45;&gt;ReceiveStateExit__0</title>
<path fill="none" stroke="black" d="M1253.5,-667.37C1253.5,-653.6 1253.5,-633.74 1253.5,-617.39"/>
<polygon fill="black" stroke="black" points="1257,-617.75 1253.5,-607.75 1250,-617.75 1257,-617.75"/>
</g>
<!-- ReceiveStateExit__0&#45;&gt;ExecuteUbergraph_BP_InfectedState__168 -->
<g id="edge8" class="edge">
<title>ReceiveStateExit__0:e&#45;&gt;ExecuteUbergraph_BP_InfectedState__168</title>
<path fill="none" stroke="red" d="M1601.5,-587.5C1612.74,-587.5 1607.4,-515.24 1603.44,-474"/>
<polygon fill="none" stroke="red" points="1606.95,-473.9 1602.48,-464.29 1599.99,-474.59 1606.95,-473.9"/>
</g>
<!-- ReceiveStateExit__15 -->
<g id="node13" class="node">
<title>ReceiveStateExit__15</title>
<polygon fill="#eeeeee" stroke="black" points="1195.5,-426 1195.5,-464 1311.5,-464 1311.5,-426 1195.5,-426"/>
<text text-anchor="start" x="1203.5" y="-448.8" font-family="monospace" font-size="14.00">EX_Return</text>
<text text-anchor="start" x="1203.5" y="-433.8" font-family="monospace" font-size="14.00">  EX_Nothing</text>
</g>
<!-- ReceiveStateExit__0&#45;&gt;ReceiveStateExit__15 -->
<g id="edge9" class="edge">
<title>ReceiveStateExit__0&#45;&gt;ReceiveStateExit__15</title>
<path fill="none" stroke="black" d="M1253.5,-568.71C1253.5,-545.06 1253.5,-502.99 1253.5,-474.79"/>
<polygon fill="black" stroke="black" points="1257,-475.16 1253.5,-465.16 1250,-475.16 1257,-475.16"/>
</g>
<!-- ReceiveStateExit__17 -->
<g id="node14" class="node">
<title>ReceiveStateExit__17</title>
<polygon fill="#eeeeee" stroke="black" points="2034.5,-1.5 2034.5,-37.5 2166.5,-37.5 2166.5,-1.5 2034.5,-1.5"/>
<text text-anchor="start" x="2042.5" y="-15.8" font-family="monospace" font-size="14.00">EX_EndOfScript</text>
</g>
<!-- ReceiveStateEnter -->
<g id="node15" class="node">
<title>ReceiveStateEnter</title>
<polygon fill="#ff8888" stroke="black" points="1852,-667 1852,-703 2083,-703 2083,-667 1852,-667"/>
<text text-anchor="start" x="1860" y="-681.3" font-family="monospace" font-size="14.00">Function ReceiveStateEnter</text>
</g>
<!-- ReceiveStateEnter__0 -->
<g id="node16" class="node">
<title>ReceiveStateEnter__0</title>
<polygon fill="#eeeeee" stroke="black" points="1621,-568.5 1621,-606.5 2314,-606.5 2314,-568.5 1621,-568.5"/>
<text text-anchor="start" x="1629" y="-591.3" font-family="monospace" font-size="14.00">EX_LocalFinalFunction export BP_InfectedState_C&#45;&gt;ExecuteUbergraph_BP_InfectedState</text>
<text text-anchor="start" x="1629" y="-576.3" font-family="monospace" font-size="14.00">  EX_IntConst 10</text>
</g>
<!-- ReceiveStateEnter&#45;&gt;ReceiveStateEnter__0 -->
<g id="edge10" class="edge">
<title>ReceiveStateEnter&#45;&gt;ReceiveStateEnter__0</title>
<path fill="none" stroke="black" d="M1967.5,-667.37C1967.5,-653.6 1967.5,-633.74 1967.5,-617.39"/>
<polygon fill="black" stroke="black" points="1971,-617.75 1967.5,-607.75 1964,-617.75 1971,-617.75"/>
</g>
<!-- ReceiveStateEnter__0&#45;&gt;ExecuteUbergraph_BP_InfectedState__10 -->
<g id="edge11" class="edge">
<title>ReceiveStateEnter__0:e&#45;&gt;ExecuteUbergraph_BP_InfectedState__10</title>
<path fill="none" stroke="red" d="M2315.5,-587.5C2339.15,-587.5 2345.44,-567.5 2344.08,-542.53"/>
<polygon fill="none" stroke="red" points="2347.58,-542.3 2343.15,-532.68 2340.61,-542.96 2347.58,-542.3"/>
</g>
<!-- ReceiveStateEnter__15 -->
<g id="node17" class="node">
<title>ReceiveStateEnter__15</title>
<polygon fill="#eeeeee" stroke="black" points="1668.5,-426 1668.5,-464 1784.5,-464 1784.5,-426 1668.5,-426"/>
<text text-anchor="start" x="1676.5" y="-448.8" font-family="monospace" font-size="14.00">EX_Return</text>
<text text-anchor="start" x="1676.5" y="-433.8" font-family="monospace" font-size="14.00">  EX_Nothing</text>
</g>
<!-- ReceiveStateEnter__0&#45;&gt;ReceiveStateEnter__15 -->
<g id="edge12" class="edge">
<title>ReceiveStateEnter__0&#45;&gt;ReceiveStateEnter__15</title>
<path fill="none" stroke="black" d="M1875.73,-568.57C1848.04,-560.36 1818.61,-548.62 1794.5,-532 1772.45,-516.8 1754.09,-492.33 1742.03,-473.37"/>
<polygon fill="black" stroke="black" points="1745.15,-471.76 1736.95,-465.06 1739.18,-475.41 1745.15,-471.76"/>
</g>
<!-- ReceiveStateEnter__17 -->
<g id="node18" class="node">
<title>ReceiveStateEnter__17</title>
<polygon fill="#eeeeee" stroke="black" points="2101.5,-667 2101.5,-703 2233.5,-703 2233.5,-667 2101.5,-667"/>
<text text-anchor="start" x="2109.5" y="-681.3" font-family="monospace" font-size="14.00">EX_EndOfScript</text>
</g>
</g>
</svg>
