<?xml version="1.0" encoding="UTF-8" standalone="no"?>
<!DOCTYPE svg PUBLIC "-//W3C//DTD SVG 1.1//EN"
 "http://www.w3.org/Graphics/SVG/1.1/DTD/svg11.dtd">
<!-- Generated by graphviz version 7.0.1 (0)
 -->
<!-- Pages: 1 -->
<svg width="2634pt" height="2411pt"
 viewBox="0.00 0.00 2633.50 2411.00" xmlns="http://www.w3.org/2000/svg" xmlns:xlink="http://www.w3.org/1999/xlink">
<g id="graph0" class="graph" transform="scale(1 1) rotate(0) translate(4 2407)">
<polygon fill="white" stroke="none" points="-4,4 -4,-2407 2629.5,-2407 2629.5,4 -4,4"/>
<!-- PRJ_Spider_Spitter_C -->
<g id="node1" class="node">
<title>PRJ_Spider_Spitter_C</title>
<polygon fill="#88ff88" stroke="black" points="0,-2094.5 0,-2267.5 594,-2267.5 594,-2094.5 0,-2094.5"/>
<text text-anchor="start" x="8" y="-2252.3" font-family="monospace" font-size="14.00">ClassExport: PRJ_Spider_Spitter_C</text>
<text text-anchor="start" x="8" y="-2237.3" font-family="monospace" font-size="14.00">  SuperStruct: import /Script/FSD&#45;&gt;Projectile</text>
<text text-anchor="start" x="8" y="-2222.3" font-family="monospace" font-size="14.00">  Properties:</text>
<text text-anchor="start" x="8" y="-2207.3" font-family="monospace" font-size="14.00">    StructProperty UberGraphFrame</text>
<text text-anchor="start" x="8" y="-2192.3" font-family="monospace" font-size="14.00">      CPF_Transient|CPF_DuplicateTransient</text>
<text text-anchor="start" x="8" y="-2177.3" font-family="monospace" font-size="14.00">    ObjectProperty Damage</text>
<text text-anchor="start" x="8" y="-2162.3" font-family="monospace" font-size="14.00">      CPF_BlueprintVisible|CPF_InstancedReference|CPF_NonTransactional</text>
<text text-anchor="start" x="8" y="-2147.3" font-family="monospace" font-size="14.00">    ObjectProperty ParticleComponent</text>
<text text-anchor="start" x="8" y="-2132.3" font-family="monospace" font-size="14.00">      CPF_BlueprintVisible|CPF_InstancedReference|CPF_NonTransactional</text>
<text text-anchor="start" x="8" y="-2117.3" font-family="monospace" font-size="14.00">    ObjectProperty Audio</text>
<text text-anchor="start" x="8" y="-2102.3" font-family="monospace" font-size="14.00">      CPF_BlueprintVisible|CPF_InstancedReference|CPF_NonTransactional</text>
</g>
<!-- ExecuteUbergraph_PRJ_Spider_Spitter -->
<g id="node2" class="node">
<title>ExecuteUbergraph_PRJ_Spider_Spitter</title>
<polygon fill="#ff8888" stroke="black" points="612,-1959.5 612,-2402.5 1124,-2402.5 1124,-1959.5 612,-1959.5"/>
<text text-anchor="start" x="620" y="-2387.3" font-family="monospace" font-size="14.00">Function ExecuteUbergraph_PRJ_Spider_Spitter</text>
<text text-anchor="start" x="620" y="-2372.3" font-family="monospace" font-size="14.00">  IntProperty EntryPoint</text>
<text text-anchor="start" x="620" y="-2357.3" font-family="monospace" font-size="14.00">    CPF_BlueprintVisible|CPF_BlueprintReadOnly|CPF_Parm</text>
<text text-anchor="start" x="620" y="-2342.3" font-family="monospace" font-size="14.00">  BoolProperty CallFunc_HasAuthority_ReturnValue</text>
<text text-anchor="start" x="620" y="-2327.3" font-family="monospace" font-size="14.00">  BoolProperty K2Node_Event_PredictedImpact</text>
<text text-anchor="start" x="620" y="-2312.3" font-family="monospace" font-size="14.00">  StructProperty K2Node_Event_HitResult</text>
<text text-anchor="start" x="620" y="-2297.3" font-family="monospace" font-size="14.00">    CPF_ConstParm|CPF_ContainsInstancedReference</text>
<text text-anchor="start" x="620" y="-2282.3" font-family="monospace" font-size="14.00">  BoolProperty CallFunc_BreakHitResult_bBlockingHit</text>
<text text-anchor="start" x="620" y="-2267.3" font-family="monospace" font-size="14.00">  BoolProperty CallFunc_BreakHitResult_bInitialOverlap</text>
<text text-anchor="start" x="620" y="-2252.3" font-family="monospace" font-size="14.00">  FloatProperty CallFunc_BreakHitResult_Time</text>
<text text-anchor="start" x="620" y="-2237.3" font-family="monospace" font-size="14.00">  FloatProperty CallFunc_BreakHitResult_Distance</text>
<text text-anchor="start" x="620" y="-2222.3" font-family="monospace" font-size="14.00">  StructProperty CallFunc_BreakHitResult_Location</text>
<text text-anchor="start" x="620" y="-2207.3" font-family="monospace" font-size="14.00">  StructProperty CallFunc_BreakHitResult_ImpactPoint</text>
<text text-anchor="start" x="620" y="-2192.3" font-family="monospace" font-size="14.00">  StructProperty CallFunc_BreakHitResult_Normal</text>
<text text-anchor="start" x="620" y="-2177.3" font-family="monospace" font-size="14.00">  StructProperty CallFunc_BreakHitResult_ImpactNormal</text>
<text text-anchor="start" x="620" y="-2162.3" font-family="monospace" font-size="14.00">  ObjectProperty CallFunc_BreakHitResult_PhysMat</text>
<text text-anchor="start" x="620" y="-2147.3" font-family="monospace" font-size="14.00">  ObjectProperty CallFunc_BreakHitResult_HitActor</text>
<text text-anchor="start" x="620" y="-2132.3" font-family="monospace" font-size="14.00">  ObjectProperty CallFunc_BreakHitResult_HitComponent</text>
<text text-anchor="start" x="620" y="-2117.3" font-family="monospace" font-size="14.00">    CPF_InstancedReference</text>
<text text-anchor="start" x="620" y="-2102.3" font-family="monospace" font-size="14.00">  NameProperty CallFunc_BreakHitResult_HitBoneName</text>
<text text-anchor="start" x="620" y="-2087.3" font-family="monospace" font-size="14.00">  IntProperty CallFunc_BreakHitResult_HitItem</text>
<text text-anchor="start" x="620" y="-2072.3" font-family="monospace" font-size="14.00">  IntProperty CallFunc_BreakHitResult_ElementIndex</text>
<text text-anchor="start" x="620" y="-2057.3" font-family="monospace" font-size="14.00">  IntProperty CallFunc_BreakHitResult_FaceIndex</text>
<text text-anchor="start" x="620" y="-2042.3" font-family="monospace" font-size="14.00">  StructProperty CallFunc_BreakHitResult_TraceStart</text>
<text text-anchor="start" x="620" y="-2027.3" font-family="monospace" font-size="14.00">  StructProperty CallFunc_BreakHitResult_TraceEnd</text>
<text text-anchor="start" x="620" y="-2012.3" font-family="monospace" font-size="14.00">  StructProperty CallFunc_K2_GetActorLocation_ReturnValue</text>
<text text-anchor="start" x="620" y="-1997.3" font-family="monospace" font-size="14.00">  StructProperty CallFunc_Conv_VectorToRotator_ReturnValue</text>
<text text-anchor="start" x="620" y="-1982.3" font-family="monospace" font-size="14.00">  ObjectProperty CallFunc_SpawnEmitterAtLocation_ReturnValue</text>
<text text-anchor="start" x="620" y="-1967.3" font-family="monospace" font-size="14.00">    CPF_InstancedReference</text>
</g>
<!-- ExecuteUbergraph_PRJ_Spider_Spitter__0 -->
<g id="node3" class="node">
<title>ExecuteUbergraph_PRJ_Spider_Spitter__0</title>
<polygon fill="#eeeeee" stroke="black" points="760.5,-1848.5 760.5,-1884.5 975.5,-1884.5 975.5,-1848.5 760.5,-1848.5"/>
<text text-anchor="start" x="768.5" y="-1862.8" font-family="monospace" font-size="14.00">EX_PushExecutionFlow 577</text>
</g>
<!-- ExecuteUbergraph_PRJ_Spider_Spitter&#45;&gt;ExecuteUbergraph_PRJ_Spider_Spitter__0 -->
<g id="edge1" class="edge">
<title>ExecuteUbergraph_PRJ_Spider_Spitter&#45;&gt;ExecuteUbergraph_PRJ_Spider_Spitter__0</title>
<path fill="none" stroke="black" d="M868,-1959.57C868,-1934.46 868,-1912.03 868,-1895.59"/>
<polygon fill="black" stroke="black" points="871.5,-1895.76 868,-1885.76 864.5,-1895.76 871.5,-1895.76"/>
</g>
<!-- ExecuteUbergraph_PRJ_Spider_Spitter__5 -->
<g id="node4" class="node">
<title>ExecuteUbergraph_PRJ_Spider_Spitter__5</title>
<polygon fill="#eeeeee" stroke="black" points="680,-1728 680,-1766 952,-1766 952,-1728 680,-1728"/>
<text text-anchor="start" x="688" y="-1750.8" font-family="monospace" font-size="14.00">EX_ComputedJump</text>
<text text-anchor="start" x="688" y="-1735.8" font-family="monospace" font-size="14.00">  EX_LocalVariable [EntryPoint]</text>
</g>
<!-- ExecuteUbergraph_PRJ_Spider_Spitter__0&#45;&gt;ExecuteUbergraph_PRJ_Spider_Spitter__5 -->
<g id="edge3" class="edge">
<title>ExecuteUbergraph_PRJ_Spider_Spitter__0&#45;&gt;ExecuteUbergraph_PRJ_Spider_Spitter__5</title>
<path fill="none" stroke="black" d="M860.55,-1848.67C852.2,-1829.8 838.52,-1798.89 828.52,-1776.3"/>
<polygon fill="black" stroke="black" points="831.81,-1775.07 824.56,-1767.34 825.41,-1777.9 831.81,-1775.07"/>
</g>
<!-- ExecuteUbergraph_PRJ_Spider_Spitter__577 -->
<g id="node21" class="node">
<title>ExecuteUbergraph_PRJ_Spider_Spitter__577</title>
<polygon fill="#eeeeee" stroke="black" points="970,-1728 970,-1766 1086,-1766 1086,-1728 970,-1728"/>
<text text-anchor="start" x="978" y="-1750.8" font-family="monospace" font-size="14.00">EX_Return</text>
<text text-anchor="start" x="978" y="-1735.8" font-family="monospace" font-size="14.00">  EX_Nothing</text>
</g>
<!-- ExecuteUbergraph_PRJ_Spider_Spitter__0&#45;&gt;ExecuteUbergraph_PRJ_Spider_Spitter__577 -->
<g id="edge2" class="edge">
<title>ExecuteUbergraph_PRJ_Spider_Spitter__0:e&#45;&gt;ExecuteUbergraph_PRJ_Spider_Spitter__577</title>
<path fill="none" stroke="red" d="M977,-1866.5C1015.84,-1866.5 1025.46,-1812.13 1027.63,-1777.05"/>
<polygon fill="none" stroke="red" points="1031.1,-1777.65 1028.04,-1767.51 1024.11,-1777.35 1031.1,-1777.65"/>
<text text-anchor="middle" x="1068.5" y="-1806.8" font-family="monospace" font-size="14.00">PUSH STACK</text>
</g>
<!-- ExecuteUbergraph_PRJ_Spider_Spitter__15 -->
<g id="node5" class="node">
<title>ExecuteUbergraph_PRJ_Spider_Spitter__15</title>
<polygon fill="#eeeeee" stroke="black" points="1985,-1463.5 1985,-1516.5 2505,-1516.5 2505,-1463.5 1985,-1463.5"/>
<text text-anchor="start" x="1993" y="-1501.3" font-family="monospace" font-size="14.00">EX_LetBool</text>
<text text-anchor="start" x="1993" y="-1486.3" font-family="monospace" font-size="14.00">  EX_LocalVariable [CallFunc_HasAuthority_ReturnValue]</text>
<text text-anchor="start" x="1993" y="-1471.3" font-family="monospace" font-size="14.00">  EX_FinalFunction import /Script/Engine&#45;&gt;Actor&#45;&gt;HasAuthority</text>
</g>
<!-- ExecuteUbergraph_PRJ_Spider_Spitter__35 -->
<g id="node6" class="node">
<title>ExecuteUbergraph_PRJ_Spider_Spitter__35</title>
<polygon fill="#eeeeee" stroke="black" points="2050,-1387.5 2050,-1425.5 2512,-1425.5 2512,-1387.5 2050,-1387.5"/>
<text text-anchor="start" x="2058" y="-1410.3" font-family="monospace" font-size="14.00">EX_PopExecutionFlowIfNot</text>
<text text-anchor="start" x="2058" y="-1395.3" font-family="monospace" font-size="14.00">  EX_LocalVariable [CallFunc_HasAuthority_ReturnValue]</text>
</g>
<!-- ExecuteUbergraph_PRJ_Spider_Spitter__15&#45;&gt;ExecuteUbergraph_PRJ_Spider_Spitter__35 -->
<g id="edge4" class="edge">
<title>ExecuteUbergraph_PRJ_Spider_Spitter__15&#45;&gt;ExecuteUbergraph_PRJ_Spider_Spitter__35</title>
<path fill="none" stroke="black" d="M2256.19,-1463.66C2260.1,-1454.82 2264.5,-1444.85 2268.5,-1435.79"/>
<polygon fill="black" stroke="black" points="2271.67,-1437.27 2272.51,-1426.71 2265.27,-1434.44 2271.67,-1437.27"/>
</g>
<!-- ExecuteUbergraph_PRJ_Spider_Spitter__45 -->
<g id="node7" class="node">
<title>ExecuteUbergraph_PRJ_Spider_Spitter__45</title>
<polygon fill="#eeeeee" stroke="black" points="1990.5,-1161.5 1990.5,-1244.5 2625.5,-1244.5 2625.5,-1161.5 1990.5,-1161.5"/>
<text text-anchor="start" x="1998.5" y="-1229.3" font-family="monospace" font-size="14.00">EX_Context</text>
<text text-anchor="start" x="1998.5" y="-1214.3" font-family="monospace" font-size="14.00">  EX_InstanceVariable [Damage]</text>
<text text-anchor="start" x="1998.5" y="-1199.3" font-family="monospace" font-size="14.00">  EX_FinalFunction import /Script/FSD&#45;&gt;DamageComponent&#45;&gt;DamageTargetFromHit</text>
<text text-anchor="start" x="1998.5" y="-1184.3" font-family="monospace" font-size="14.00">    EX_LocalVariable [K2Node_Event_HitResult]</text>
<text text-anchor="start" x="1998.5" y="-1169.3" font-family="monospace" font-size="14.00">  RValue = []</text>
</g>
<!-- ExecuteUbergraph_PRJ_Spider_Spitter__35&#45;&gt;ExecuteUbergraph_PRJ_Spider_Spitter__45 -->
<g id="edge5" class="edge">
<title>ExecuteUbergraph_PRJ_Spider_Spitter__35&#45;&gt;ExecuteUbergraph_PRJ_Spider_Spitter__45</title>
<path fill="none" stroke="black" d="M2283.4,-1387.62C2287.33,-1358.26 2295.3,-1298.8 2301.1,-1255.47"/>
<polygon fill="black" stroke="black" points="2304.54,-1256.15 2302.4,-1245.77 2297.61,-1255.22 2304.54,-1256.15"/>
</g>
<!-- ExecuteUbergraph_PRJ_Spider_Spitter__86 -->
<g id="node8" class="node">
<title>ExecuteUbergraph_PRJ_Spider_Spitter__86</title>
<polygon fill="#eeeeee" stroke="black" points="2221.5,-974 2221.5,-1010 2394.5,-1010 2394.5,-974 2221.5,-974"/>
<text text-anchor="start" x="2229.5" y="-988.3" font-family="monospace" font-size="14.00">EX_PopExecutionFlow</text>
</g>
<!-- ExecuteUbergraph_PRJ_Spider_Spitter__45&#45;&gt;ExecuteUbergraph_PRJ_Spider_Spitter__86 -->
<g id="edge6" class="edge">
<title>ExecuteUbergraph_PRJ_Spider_Spitter__45&#45;&gt;ExecuteUbergraph_PRJ_Spider_Spitter__86</title>
<path fill="none" stroke="black" d="M2308,-1161.7C2308,-1120.35 2308,-1057.11 2308,-1020.95"/>
<polygon fill="black" stroke="black" points="2311.5,-1021.31 2308,-1011.31 2304.5,-1021.31 2311.5,-1021.31"/>
</g>
<!-- ExecuteUbergraph_PRJ_Spider_Spitter__87 -->
<g id="node9" class="node">
<title>ExecuteUbergraph_PRJ_Spider_Spitter__87</title>
<polygon fill="#eeeeee" stroke="black" points="1692,-1388.5 1692,-1424.5 2006,-1424.5 2006,-1388.5 1692,-1388.5"/>
<text text-anchor="start" x="1700" y="-1402.8" font-family="monospace" font-size="14.00">EX_VirtualFunction DisableAndDestroy</text>
</g>
<!-- ExecuteUbergraph_PRJ_Spider_Spitter__101 -->
<g id="node10" class="node">
<title>ExecuteUbergraph_PRJ_Spider_Spitter__101</title>
<polygon fill="#eeeeee" stroke="black" points="1411.5,-1056.5 1411.5,-1349.5 1972.5,-1349.5 1972.5,-1056.5 1411.5,-1056.5"/>
<text text-anchor="start" x="1419.5" y="-1334.3" font-family="monospace" font-size="14.00">EX_CallMath import /Script/Engine&#45;&gt;GameplayStatics&#45;&gt;BreakHitResult</text>
<text text-anchor="start" x="1419.5" y="-1319.3" font-family="monospace" font-size="14.00">  EX_LocalVariable [K2Node_Event_HitResult]</text>
<text text-anchor="start" x="1419.5" y="-1304.3" font-family="monospace" font-size="14.00">  EX_LocalVariable [CallFunc_BreakHitResult_bBlockingHit]</text>
<text text-anchor="start" x="1419.5" y="-1289.3" font-family="monospace" font-size="14.00">  EX_LocalVariable [CallFunc_BreakHitResult_bInitialOverlap]</text>
<text text-anchor="start" x="1419.5" y="-1274.3" font-family="monospace" font-size="14.00">  EX_LocalVariable [CallFunc_BreakHitResult_Time]</text>
<text text-anchor="start" x="1419.5" y="-1259.3" font-family="monospace" font-size="14.00">  EX_LocalVariable [CallFunc_BreakHitResult_Distance]</text>
<text text-anchor="start" x="1419.5" y="-1244.3" font-family="monospace" font-size="14.00">  EX_LocalVariable [CallFunc_BreakHitResult_Location]</text>
<text text-anchor="start" x="1419.5" y="-1229.3" font-family="monospace" font-size="14.00">  EX_LocalVariable [CallFunc_BreakHitResult_ImpactPoint]</text>
<text text-anchor="start" x="1419.5" y="-1214.3" font-family="monospace" font-size="14.00">  EX_LocalVariable [CallFunc_BreakHitResult_Normal]</text>
<text text-anchor="start" x="1419.5" y="-1199.3" font-family="monospace" font-size="14.00">  EX_LocalVariable [CallFunc_BreakHitResult_ImpactNormal]</text>
<text text-anchor="start" x="1419.5" y="-1184.3" font-family="monospace" font-size="14.00">  EX_LocalVariable [CallFunc_BreakHitResult_PhysMat]</text>
<text text-anchor="start" x="1419.5" y="-1169.3" font-family="monospace" font-size="14.00">  EX_LocalVariable [CallFunc_BreakHitResult_HitActor]</text>
<text text-anchor="start" x="1419.5" y="-1154.3" font-family="monospace" font-size="14.00">  EX_LocalVariable [CallFunc_BreakHitResult_HitComponent]</text>
<text text-anchor="start" x="1419.5" y="-1139.3" font-family="monospace" font-size="14.00">  EX_LocalVariable [CallFunc_BreakHitResult_HitBoneName]</text>
<text text-anchor="start" x="1419.5" y="-1124.3" font-family="monospace" font-size="14.00">  EX_LocalVariable [CallFunc_BreakHitResult_HitItem]</text>
<text text-anchor="start" x="1419.5" y="-1109.3" font-family="monospace" font-size="14.00">  EX_LocalVariable [CallFunc_BreakHitResult_ElementIndex]</text>
<text text-anchor="start" x="1419.5" y="-1094.3" font-family="monospace" font-size="14.00">  EX_LocalVariable [CallFunc_BreakHitResult_FaceIndex]</text>
<text text-anchor="start" x="1419.5" y="-1079.3" font-family="monospace" font-size="14.00">  EX_LocalVariable [CallFunc_BreakHitResult_TraceStart]</text>
<text text-anchor="start" x="1419.5" y="-1064.3" font-family="monospace" font-size="14.00">  EX_LocalVariable [CallFunc_BreakHitResult_TraceEnd]</text>
</g>
<!-- ExecuteUbergraph_PRJ_Spider_Spitter__87&#45;&gt;ExecuteUbergraph_PRJ_Spider_Spitter__101 -->
<g id="edge7" class="edge">
<title>ExecuteUbergraph_PRJ_Spider_Spitter__87&#45;&gt;ExecuteUbergraph_PRJ_Spider_Spitter__101</title>
<path fill="none" stroke="black" d="M1835.88,-1388.67C1829.6,-1380.6 1821.41,-1370.09 1812.14,-1358.19"/>
<polygon fill="black" stroke="black" points="1815.04,-1356.22 1806.13,-1350.48 1809.52,-1360.52 1815.04,-1356.22"/>
</g>
<!-- ExecuteUbergraph_PRJ_Spider_Spitter__273 -->
<g id="node11" class="node">
<title>ExecuteUbergraph_PRJ_Spider_Spitter__273</title>
<polygon fill="#eeeeee" stroke="black" points="1403,-965.5 1403,-1018.5 1981,-1018.5 1981,-965.5 1403,-965.5"/>
<text text-anchor="start" x="1411" y="-1003.3" font-family="monospace" font-size="14.00">EX_Let</text>
<text text-anchor="start" x="1411" y="-988.3" font-family="monospace" font-size="14.00">  EX_LocalVariable [CallFunc_K2_GetActorLocation_ReturnValue]</text>
<text text-anchor="start" x="1411" y="-973.3" font-family="monospace" font-size="14.00">  EX_FinalFunction import /Script/Engine&#45;&gt;Actor&#45;&gt;K2_GetActorLocation</text>
</g>
<!-- ExecuteUbergraph_PRJ_Spider_Spitter__101&#45;&gt;ExecuteUbergraph_PRJ_Spider_Spitter__273 -->
<g id="edge8" class="edge">
<title>ExecuteUbergraph_PRJ_Spider_Spitter__101&#45;&gt;ExecuteUbergraph_PRJ_Spider_Spitter__273</title>
<path fill="none" stroke="black" d="M1692,-1056.56C1692,-1046.97 1692,-1037.93 1692,-1029.84"/>
<polygon fill="black" stroke="black" points="1695.5,-1029.86 1692,-1019.86 1688.5,-1029.86 1695.5,-1029.86"/>
</g>
<!-- ExecuteUbergraph_PRJ_Spider_Spitter__301 -->
<g id="node12" class="node">
<title>ExecuteUbergraph_PRJ_Spider_Spitter__301</title>
<polygon fill="#eeeeee" stroke="black" points="1370,-859.5 1370,-927.5 2014,-927.5 2014,-859.5 1370,-859.5"/>
<text text-anchor="start" x="1378" y="-912.3" font-family="monospace" font-size="14.00">EX_Let</text>
<text text-anchor="start" x="1378" y="-897.3" font-family="monospace" font-size="14.00">  EX_LocalVariable [CallFunc_Conv_VectorToRotator_ReturnValue]</text>
<text text-anchor="start" x="1378" y="-882.3" font-family="monospace" font-size="14.00">  EX_CallMath import /Script/Engine&#45;&gt;KismetMathLibrary&#45;&gt;Conv_VectorToRotator</text>
<text text-anchor="start" x="1378" y="-867.3" font-family="monospace" font-size="14.00">    EX_LocalVariable [CallFunc_BreakHitResult_ImpactNormal]</text>
</g>
<!-- ExecuteUbergraph_PRJ_Spider_Spitter__273&#45;&gt;ExecuteUbergraph_PRJ_Spider_Spitter__301 -->
<g id="edge9" class="edge">
<title>ExecuteUbergraph_PRJ_Spider_Spitter__273&#45;&gt;ExecuteUbergraph_PRJ_Spider_Spitter__301</title>
<path fill="none" stroke="black" d="M1692,-965.65C1692,-957.4 1692,-947.99 1692,-938.78"/>
<polygon fill="black" stroke="black" points="1695.5,-938.83 1692,-928.83 1688.5,-938.83 1695.5,-938.83"/>
</g>
<!-- ExecuteUbergraph_PRJ_Spider_Spitter__338 -->
<g id="node13" class="node">
<title>ExecuteUbergraph_PRJ_Spider_Spitter__338</title>
<polygon fill="#eeeeee" stroke="black" points="1135,-648.5 1135,-821.5 2249,-821.5 2249,-648.5 1135,-648.5"/>
<text text-anchor="start" x="1143" y="-806.3" font-family="monospace" font-size="14.00">EX_LetObj</text>
<text text-anchor="start" x="1143" y="-791.3" font-family="monospace" font-size="14.00">  EX_LocalVariable [CallFunc_SpawnEmitterAtLocation_ReturnValue]</text>
<text text-anchor="start" x="1143" y="-776.3" font-family="monospace" font-size="14.00">  EX_CallMath import /Script/Engine&#45;&gt;GameplayStatics&#45;&gt;SpawnEmitterAtLocation</text>
<text text-anchor="start" x="1143" y="-761.3" font-family="monospace" font-size="14.00">    EX_Self</text>
<text text-anchor="start" x="1143" y="-746.3" font-family="monospace" font-size="14.00">    EX_ObjectConst import /Game/Enemies/Spider/Spitter/P_SpittingSpiderProjectile_Explosion_A&#45;&gt;P_SpittingSpiderProjectile_Explosion_A</text>
<text text-anchor="start" x="1143" y="-731.3" font-family="monospace" font-size="14.00">    EX_LocalVariable [CallFunc_K2_GetActorLocation_ReturnValue]</text>
<text text-anchor="start" x="1143" y="-716.3" font-family="monospace" font-size="14.00">    EX_LocalVariable [CallFunc_Conv_VectorToRotator_ReturnValue]</text>
<text text-anchor="start" x="1143" y="-701.3" font-family="monospace" font-size="14.00">    EX_VectorConst 1,1,1</text>
<text text-anchor="start" x="1143" y="-686.3" font-family="monospace" font-size="14.00">    EX_True</text>
<text text-anchor="start" x="1143" y="-671.3" font-family="monospace" font-size="14.00">    EX_ByteConst 1</text>
<text text-anchor="start" x="1143" y="-656.3" font-family="monospace" font-size="14.00">    EX_True</text>
</g>
<!-- ExecuteUbergraph_PRJ_Spider_Spitter__301&#45;&gt;ExecuteUbergraph_PRJ_Spider_Spitter__338 -->
<g id="edge10" class="edge">
<title>ExecuteUbergraph_PRJ_Spider_Spitter__301&#45;&gt;ExecuteUbergraph_PRJ_Spider_Spitter__338</title>
<path fill="none" stroke="black" d="M1692,-859.69C1692,-851.51 1692,-842.32 1692,-832.73"/>
<polygon fill="black" stroke="black" points="1695.5,-832.84 1692,-822.84 1688.5,-832.84 1695.5,-832.84"/>
</g>
<!-- ExecuteUbergraph_PRJ_Spider_Spitter__403 -->
<g id="node14" class="node">
<title>ExecuteUbergraph_PRJ_Spider_Spitter__403</title>
<polygon fill="#eeeeee" stroke="black" points="1403,-557.5 1403,-610.5 1981,-610.5 1981,-557.5 1403,-557.5"/>
<text text-anchor="start" x="1411" y="-595.3" font-family="monospace" font-size="14.00">EX_Let</text>
<text text-anchor="start" x="1411" y="-580.3" font-family="monospace" font-size="14.00">  EX_LocalVariable [CallFunc_K2_GetActorLocation_ReturnValue]</text>
<text text-anchor="start" x="1411" y="-565.3" font-family="monospace" font-size="14.00">  EX_FinalFunction import /Script/Engine&#45;&gt;Actor&#45;&gt;K2_GetActorLocation</text>
</g>
<!-- ExecuteUbergraph_PRJ_Spider_Spitter__338&#45;&gt;ExecuteUbergraph_PRJ_Spider_Spitter__403 -->
<g id="edge11" class="edge">
<title>ExecuteUbergraph_PRJ_Spider_Spitter__338&#45;&gt;ExecuteUbergraph_PRJ_Spider_Spitter__403</title>
<path fill="none" stroke="black" d="M1692,-648.62C1692,-639.27 1692,-630.16 1692,-621.88"/>
<polygon fill="black" stroke="black" points="1695.5,-621.94 1692,-611.94 1688.5,-621.94 1695.5,-621.94"/>
</g>
<!-- ExecuteUbergraph_PRJ_Spider_Spitter__431 -->
<g id="node15" class="node">
<title>ExecuteUbergraph_PRJ_Spider_Spitter__431</title>
<polygon fill="#eeeeee" stroke="black" points="1201,-346.5 1201,-519.5 2183,-519.5 2183,-346.5 1201,-346.5"/>
<text text-anchor="start" x="1209" y="-504.3" font-family="monospace" font-size="14.00">EX_CallMath import /Script/Engine&#45;&gt;GameplayStatics&#45;&gt;PlaySoundAtLocation</text>
<text text-anchor="start" x="1209" y="-489.3" font-family="monospace" font-size="14.00">  EX_Self</text>
<text text-anchor="start" x="1209" y="-474.3" font-family="monospace" font-size="14.00">  EX_ObjectConst import /Game/Audio/SFX/Enemies/SpiderShooting/Spider_Shooting_Impact_Cue&#45;&gt;Spider_Shooting_Impact_Cue</text>
<text text-anchor="start" x="1209" y="-459.3" font-family="monospace" font-size="14.00">  EX_LocalVariable [CallFunc_K2_GetActorLocation_ReturnValue]</text>
<text text-anchor="start" x="1209" y="-444.3" font-family="monospace" font-size="14.00">  EX_RotationConst 0,0,0</text>
<text text-anchor="start" x="1209" y="-429.3" font-family="monospace" font-size="14.00">  EX_FloatConst 1</text>
<text text-anchor="start" x="1209" y="-414.3" font-family="monospace" font-size="14.00">  EX_FloatConst 1</text>
<text text-anchor="start" x="1209" y="-399.3" font-family="monospace" font-size="14.00">  EX_FloatConst 0</text>
<text text-anchor="start" x="1209" y="-384.3" font-family="monospace" font-size="14.00">  EX_NoObject</text>
<text text-anchor="start" x="1209" y="-369.3" font-family="monospace" font-size="14.00">  EX_NoObject</text>
<text text-anchor="start" x="1209" y="-354.3" font-family="monospace" font-size="14.00">  EX_NoObject</text>
</g>
<!-- ExecuteUbergraph_PRJ_Spider_Spitter__403&#45;&gt;ExecuteUbergraph_PRJ_Spider_Spitter__431 -->
<g id="edge12" class="edge">
<title>ExecuteUbergraph_PRJ_Spider_Spitter__403&#45;&gt;ExecuteUbergraph_PRJ_Spider_Spitter__431</title>
<path fill="none" stroke="black" d="M1692,-557.72C1692,-549.76 1692,-540.44 1692,-530.55"/>
<polygon fill="black" stroke="black" points="1695.5,-530.7 1692,-520.7 1688.5,-530.7 1695.5,-530.7"/>
</g>
<!-- ExecuteUbergraph_PRJ_Spider_Spitter__491 -->
<g id="node16" class="node">
<title>ExecuteUbergraph_PRJ_Spider_Spitter__491</title>
<polygon fill="#eeeeee" stroke="black" points="1353.5,-180.5 1353.5,-308.5 2030.5,-308.5 2030.5,-180.5 1353.5,-180.5"/>
<text text-anchor="start" x="1361.5" y="-293.3" font-family="monospace" font-size="14.00">EX_Context</text>
<text text-anchor="start" x="1361.5" y="-278.3" font-family="monospace" font-size="14.00">  EX_InstanceVariable [ParticleComponent]</text>
<text text-anchor="start" x="1361.5" y="-263.3" font-family="monospace" font-size="14.00">  EX_FinalFunction import /Script/Engine&#45;&gt;SceneComponent&#45;&gt;K2_DetachFromComponent</text>
<text text-anchor="start" x="1361.5" y="-248.3" font-family="monospace" font-size="14.00">    EX_ByteConst 1</text>
<text text-anchor="start" x="1361.5" y="-233.3" font-family="monospace" font-size="14.00">    EX_ByteConst 1</text>
<text text-anchor="start" x="1361.5" y="-218.3" font-family="monospace" font-size="14.00">    EX_ByteConst 1</text>
<text text-anchor="start" x="1361.5" y="-203.3" font-family="monospace" font-size="14.00">    EX_True</text>
<text text-anchor="start" x="1361.5" y="-188.3" font-family="monospace" font-size="14.00">  RValue = []</text>
</g>
<!-- ExecuteUbergraph_PRJ_Spider_Spitter__431&#45;&gt;ExecuteUbergraph_PRJ_Spider_Spitter__491 -->
<g id="edge13" class="edge">
<title>ExecuteUbergraph_PRJ_Spider_Spitter__431&#45;&gt;ExecuteUbergraph_PRJ_Spider_Spitter__491</title>
<path fill="none" stroke="black" d="M1692,-346.66C1692,-337.73 1692,-328.69 1692,-319.89"/>
<polygon fill="black" stroke="black" points="1695.5,-320 1692,-310 1688.5,-320 1695.5,-320"/>
</g>
<!-- ExecuteUbergraph_PRJ_Spider_Spitter__530 -->
<g id="node17" class="node">
<title>ExecuteUbergraph_PRJ_Spider_Spitter__530</title>
<polygon fill="#eeeeee" stroke="black" points="1514.5,-74.5 1514.5,-142.5 1869.5,-142.5 1869.5,-74.5 1514.5,-74.5"/>
<text text-anchor="start" x="1522.5" y="-127.3" font-family="monospace" font-size="14.00">EX_Context</text>
<text text-anchor="start" x="1522.5" y="-112.3" font-family="monospace" font-size="14.00">  EX_InstanceVariable [ParticleComponent]</text>
<text text-anchor="start" x="1522.5" y="-97.3" font-family="monospace" font-size="14.00">  EX_VirtualFunction Deactivate</text>
<text text-anchor="start" x="1522.5" y="-82.3" font-family="monospace" font-size="14.00">  RValue = []</text>
</g>
<!-- ExecuteUbergraph_PRJ_Spider_Spitter__491&#45;&gt;ExecuteUbergraph_PRJ_Spider_Spitter__530 -->
<g id="edge14" class="edge">
<title>ExecuteUbergraph_PRJ_Spider_Spitter__491&#45;&gt;ExecuteUbergraph_PRJ_Spider_Spitter__530</title>
<path fill="none" stroke="black" d="M1692,-180.82C1692,-171.64 1692,-162.35 1692,-153.65"/>
<polygon fill="black" stroke="black" points="1695.5,-153.72 1692,-143.72 1688.5,-153.72 1695.5,-153.72"/>
</g>
<!-- ExecuteUbergraph_PRJ_Spider_Spitter__566 -->
<g id="node18" class="node">
<title>ExecuteUbergraph_PRJ_Spider_Spitter__566</title>
<polygon fill="#eeeeee" stroke="black" points="1605.5,-0.5 1605.5,-36.5 1778.5,-36.5 1778.5,-0.5 1605.5,-0.5"/>
<text text-anchor="start" x="1613.5" y="-14.8" font-family="monospace" font-size="14.00">EX_PopExecutionFlow</text>
</g>
<!-- ExecuteUbergraph_PRJ_Spider_Spitter__530&#45;&gt;ExecuteUbergraph_PRJ_Spider_Spitter__566 -->
<g id="edge15" class="edge">
<title>ExecuteUbergraph_PRJ_Spider_Spitter__530&#45;&gt;ExecuteUbergraph_PRJ_Spider_Spitter__566</title>
<path fill="none" stroke="black" d="M1692,-74.73C1692,-65.83 1692,-56.27 1692,-47.65"/>
<polygon fill="black" stroke="black" points="1695.5,-47.77 1692,-37.77 1688.5,-47.77 1695.5,-47.77"/>
</g>
<!-- ExecuteUbergraph_PRJ_Spider_Spitter__567 -->
<g id="node19" class="node">
<title>ExecuteUbergraph_PRJ_Spider_Spitter__567</title>
<polygon fill="#eeeeee" stroke="black" points="1947,-1569.5 1947,-1605.5 2153,-1605.5 2153,-1569.5 1947,-1569.5"/>
<text text-anchor="start" x="1955" y="-1583.8" font-family="monospace" font-size="14.00">EX_PushExecutionFlow 15</text>
</g>
<!-- ExecuteUbergraph_PRJ_Spider_Spitter__567&#45;&gt;ExecuteUbergraph_PRJ_Spider_Spitter__15 -->
<g id="edge16" class="edge">
<title>ExecuteUbergraph_PRJ_Spider_Spitter__567:e&#45;&gt;ExecuteUbergraph_PRJ_Spider_Spitter__15</title>
<path fill="none" stroke="red" d="M2154,-1587.5C2188.71,-1587.5 2214.1,-1554.04 2229.1,-1526.53"/>
<polygon fill="none" stroke="red" points="2232.18,-1528.19 2233.65,-1517.7 2225.96,-1524.99 2232.18,-1528.19"/>
<text text-anchor="middle" x="2264.5" y="-1538.8" font-family="monospace" font-size="14.00">PUSH STACK</text>
</g>
<!-- ExecuteUbergraph_PRJ_Spider_Spitter__572 -->
<g id="node20" class="node">
<title>ExecuteUbergraph_PRJ_Spider_Spitter__572</title>
<polygon fill="#eeeeee" stroke="black" points="1857.5,-1472 1857.5,-1508 1956.5,-1508 1956.5,-1472 1857.5,-1472"/>
<text text-anchor="start" x="1865.5" y="-1486.3" font-family="monospace" font-size="14.00">EX_Jump 87</text>
</g>
<!-- ExecuteUbergraph_PRJ_Spider_Spitter__567&#45;&gt;ExecuteUbergraph_PRJ_Spider_Spitter__572 -->
<g id="edge17" class="edge">
<title>ExecuteUbergraph_PRJ_Spider_Spitter__567&#45;&gt;ExecuteUbergraph_PRJ_Spider_Spitter__572</title>
<path fill="none" stroke="black" d="M2024.76,-1569.65C2001.59,-1554.17 1967.04,-1531.1 1941.35,-1513.94"/>
<polygon fill="black" stroke="black" points="1943.5,-1511.17 1933.24,-1508.53 1939.61,-1516.99 1943.5,-1511.17"/>
</g>
<!-- ExecuteUbergraph_PRJ_Spider_Spitter__572&#45;&gt;ExecuteUbergraph_PRJ_Spider_Spitter__87 -->
<g id="edge18" class="edge">
<title>ExecuteUbergraph_PRJ_Spider_Spitter__572&#45;&gt;ExecuteUbergraph_PRJ_Spider_Spitter__87</title>
<path fill="none" stroke="black" d="M1894.98,-1472.11C1887.05,-1460.97 1876.5,-1446.14 1867.51,-1433.51"/>
<polygon fill="black" stroke="black" points="1870.53,-1431.72 1861.88,-1425.6 1864.83,-1435.78 1870.53,-1431.72"/>
</g>
<!-- ExecuteUbergraph_PRJ_Spider_Spitter__579 -->
<g id="node22" class="node">
<title>ExecuteUbergraph_PRJ_Spider_Spitter__579</title>
<polygon fill="#eeeeee" stroke="black" points="1702,-1904.5 1702,-1940.5 1834,-1940.5 1834,-1904.5 1702,-1904.5"/>
<text text-anchor="start" x="1710" y="-1918.8" font-family="monospace" font-size="14.00">EX_EndOfScript</text>
</g>
<!-- OnImpacted -->
<g id="node23" class="node">
<title>OnImpacted</title>
<polygon fill="#ff8888" stroke="black" points="1142.5,-2139.5 1142.5,-2222.5 2231.5,-2222.5 2231.5,-2139.5 1142.5,-2139.5"/>
<text text-anchor="start" x="1150.5" y="-2207.3" font-family="monospace" font-size="14.00">Function OnImpacted</text>
<text text-anchor="start" x="1150.5" y="-2192.3" font-family="monospace" font-size="14.00">  BoolProperty PredictedImpact</text>
<text text-anchor="start" x="1150.5" y="-2177.3" font-family="monospace" font-size="14.00">    CPF_BlueprintVisible|CPF_BlueprintReadOnly|CPF_Parm</text>
<text text-anchor="start" x="1150.5" y="-2162.3" font-family="monospace" font-size="14.00">  StructProperty HitResult</text>
<text text-anchor="start" x="1150.5" y="-2147.3" font-family="monospace" font-size="14.00">    CPF_ConstParm|CPF_BlueprintVisible|CPF_BlueprintReadOnly|CPF_Parm|CPF_OutParm|CPF_ReferenceParm|CPF_ContainsInstancedReference</text>
</g>
<!-- OnImpacted__0 -->
<g id="node24" class="node">
<title>OnImpacted__0</title>
<polygon fill="#eeeeee" stroke="black" points="1435.5,-1847.5 1435.5,-1885.5 1938.5,-1885.5 1938.5,-1847.5 1435.5,-1847.5"/>
<text text-anchor="start" x="1443.5" y="-1870.3" font-family="monospace" font-size="14.00">EX_LetValueOnPersistentFrame [K2Node_Event_PredictedImpact]</text>
<text text-anchor="start" x="1443.5" y="-1855.3" font-family="monospace" font-size="14.00">  EX_LocalVariable [PredictedImpact]</text>
</g>
<!-- OnImpacted&#45;&gt;OnImpacted__0 -->
<g id="edge19" class="edge">
<title>OnImpacted&#45;&gt;OnImpacted__0</title>
<path fill="none" stroke="black" d="M1687,-2139.79C1687,-2075.9 1687,-1952.71 1687,-1896.61"/>
<polygon fill="black" stroke="black" points="1690.5,-1896.91 1687,-1886.91 1683.5,-1896.91 1690.5,-1896.91"/>
</g>
<!-- OnImpacted__18 -->
<g id="node25" class="node">
<title>OnImpacted__18</title>
<polygon fill="#eeeeee" stroke="black" points="1460,-1720.5 1460,-1773.5 1914,-1773.5 1914,-1720.5 1460,-1720.5"/>
<text text-anchor="start" x="1468" y="-1758.3" font-family="monospace" font-size="14.00">EX_LetValueOnPersistentFrame [K2Node_Event_HitResult]</text>
<text text-anchor="start" x="1468" y="-1743.3" font-family="monospace" font-size="14.00">  EX_LocalOutVariable</text>
<text text-anchor="start" x="1468" y="-1728.3" font-family="monospace" font-size="14.00">    [HitResult]</text>
</g>
<!-- OnImpacted__0&#45;&gt;OnImpacted__18 -->
<g id="edge20" class="edge">
<title>OnImpacted__0&#45;&gt;OnImpacted__18</title>
<path fill="none" stroke="black" d="M1687,-1847.65C1687,-1831.05 1687,-1805.78 1687,-1784.85"/>
<polygon fill="black" stroke="black" points="1690.5,-1784.95 1687,-1774.95 1683.5,-1784.95 1690.5,-1784.95"/>
</g>
<!-- OnImpacted__36 -->
<g id="node26" class="node">
<title>OnImpacted__36</title>
<polygon fill="#eeeeee" stroke="black" points="1324,-1644.5 1324,-1682.5 2050,-1682.5 2050,-1644.5 1324,-1644.5"/>
<text text-anchor="start" x="1332" y="-1667.3" font-family="monospace" font-size="14.00">EX_LocalFinalFunction export PRJ_Spider_Spitter_C&#45;&gt;ExecuteUbergraph_PRJ_Spider_Spitter</text>
<text text-anchor="start" x="1332" y="-1652.3" font-family="monospace" font-size="14.00">  EX_IntConst 567</text>
</g>
<!-- OnImpacted__18&#45;&gt;OnImpacted__36 -->
<g id="edge21" class="edge">
<title>OnImpacted__18&#45;&gt;OnImpacted__36</title>
<path fill="none" stroke="black" d="M1687,-1720.66C1687,-1712.11 1687,-1702.51 1687,-1693.69"/>
<polygon fill="black" stroke="black" points="1690.5,-1693.84 1687,-1683.84 1683.5,-1693.84 1690.5,-1693.84"/>
</g>
<!-- OnImpacted__36&#45;&gt;ExecuteUbergraph_PRJ_Spider_Spitter__567 -->
<g id="edge22" class="edge">
<title>OnImpacted__36:e&#45;&gt;ExecuteUbergraph_PRJ_Spider_Spitter__567</title>
<path fill="none" stroke="red" d="M2051,-1663.5C2070.65,-1663.5 2066.79,-1637.45 2060.31,-1616.05"/>
<polygon fill="none" stroke="red" points="2063.63,-1614.97 2057.16,-1606.58 2056.99,-1617.17 2063.63,-1614.97"/>
</g>
<!-- OnImpacted__51 -->
<g id="node27" class="node">
<title>OnImpacted__51</title>
<polygon fill="#eeeeee" stroke="black" points="1629,-1568.5 1629,-1606.5 1745,-1606.5 1745,-1568.5 1629,-1568.5"/>
<text text-anchor="start" x="1637" y="-1591.3" font-family="monospace" font-size="14.00">EX_Return</text>
<text text-anchor="start" x="1637" y="-1576.3" font-family="monospace" font-size="14.00">  EX_Nothing</text>
</g>
<!-- OnImpacted__36&#45;&gt;OnImpacted__51 -->
<g id="edge23" class="edge">
<title>OnImpacted__36&#45;&gt;OnImpacted__51</title>
<path fill="none" stroke="black" d="M1687,-1644.59C1687,-1636.5 1687,-1626.73 1687,-1617.63"/>
<polygon fill="black" stroke="black" points="1690.5,-1617.76 1687,-1607.76 1683.5,-1617.76 1690.5,-1617.76"/>
</g>
<!-- OnImpacted__53 -->
<g id="node28" class="node">
<title>OnImpacted__53</title>
<polygon fill="#eeeeee" stroke="black" points="1702,-1792.5 1702,-1828.5 1834,-1828.5 1834,-1792.5 1702,-1792.5"/>
<text text-anchor="start" x="1710" y="-1806.8" font-family="monospace" font-size="14.00">EX_EndOfScript</text>
</g>
</g>
</svg>
