<?xml version="1.0" encoding="UTF-8" standalone="no"?>
<!DOCTYPE svg PUBLIC "-//W3C//DTD SVG 1.1//EN"
 "http://www.w3.org/Graphics/SVG/1.1/DTD/svg11.dtd">
<!-- Generated by graphviz version 7.0.1 (0)
 -->
<!-- Pages: 1 -->
<svg width="3146pt" height="2520pt"
 viewBox="0.00 0.00 3146.00 2520.00" xmlns="http://www.w3.org/2000/svg" xmlns:xlink="http://www.w3.org/1999/xlink">
<g id="graph0" class="graph" transform="scale(1 1) rotate(0) translate(4 2516)">
<polygon fill="white" stroke="none" points="-4,4 -4,-2516 3142,-2516 3142,4 -4,4"/>
<!-- ITM_Season_LevelUp_C -->
<g id="node1" class="node">
<title>ITM_Season_LevelUp_C</title>
<polygon fill="#88ff88" stroke="black" points="0,-2158.5 0,-2511.5 850,-2511.5 850,-2158.5 0,-2158.5"/>
<text text-anchor="start" x="8" y="-2496.3" font-family="monospace" font-size="14.00">ClassExport: ITM_Season_LevelUp_C</text>
<text text-anchor="start" x="8" y="-2481.3" font-family="monospace" font-size="14.00">  SuperStruct: import /Script/UMG&#45;&gt;UserWidget</text>
<text text-anchor="start" x="8" y="-2466.3" font-family="monospace" font-size="14.00">  Properties:</text>
<text text-anchor="start" x="8" y="-2451.3" font-family="monospace" font-size="14.00">    StructProperty UberGraphFrame</text>
<text text-anchor="start" x="8" y="-2436.3" font-family="monospace" font-size="14.00">      CPF_Transient|CPF_DuplicateTransient</text>
<text text-anchor="start" x="8" y="-2421.3" font-family="monospace" font-size="14.00">    ObjectProperty Intro</text>
<text text-anchor="start" x="8" y="-2406.3" font-family="monospace" font-size="14.00">      CPF_BlueprintVisible|CPF_BlueprintReadOnly|CPF_Transient|CPF_RepSkip</text>
<text text-anchor="start" x="8" y="-2391.3" font-family="monospace" font-size="14.00">    ObjectProperty Basic_Menu_ColorBar</text>
<text text-anchor="start" x="8" y="-2376.3" font-family="monospace" font-size="14.00">      CPF_BlueprintVisible|CPF_ExportObject|CPF_InstancedReference|CPF_RepSkip|CPF_PersistentInstance</text>
<text text-anchor="start" x="8" y="-2361.3" font-family="monospace" font-size="14.00">    ObjectProperty Basic_Menu_ColorBar_1</text>
<text text-anchor="start" x="8" y="-2346.3" font-family="monospace" font-size="14.00">      CPF_BlueprintVisible|CPF_ExportObject|CPF_InstancedReference|CPF_RepSkip|CPF_PersistentInstance</text>
<text text-anchor="start" x="8" y="-2331.3" font-family="monospace" font-size="14.00">    ObjectProperty Basic_Menu_ColorBar_2</text>
<text text-anchor="start" x="8" y="-2316.3" font-family="monospace" font-size="14.00">      CPF_BlueprintVisible|CPF_ExportObject|CPF_InstancedReference|CPF_RepSkip|CPF_PersistentInstance</text>
<text text-anchor="start" x="8" y="-2301.3" font-family="monospace" font-size="14.00">    ObjectProperty Basic_Menu_ColorBar_3</text>
<text text-anchor="start" x="8" y="-2286.3" font-family="monospace" font-size="14.00">      CPF_BlueprintVisible|CPF_ExportObject|CPF_InstancedReference|CPF_RepSkip|CPF_PersistentInstance</text>
<text text-anchor="start" x="8" y="-2271.3" font-family="monospace" font-size="14.00">    ObjectProperty Image_Background_Black</text>
<text text-anchor="start" x="8" y="-2256.3" font-family="monospace" font-size="14.00">      CPF_BlueprintVisible|CPF_ExportObject|CPF_InstancedReference|CPF_RepSkip|CPF_PersistentInstance</text>
<text text-anchor="start" x="8" y="-2241.3" font-family="monospace" font-size="14.00">    ObjectProperty Image_Background_Smoke</text>
<text text-anchor="start" x="8" y="-2226.3" font-family="monospace" font-size="14.00">      CPF_BlueprintVisible|CPF_ExportObject|CPF_InstancedReference|CPF_RepSkip|CPF_PersistentInstance</text>
<text text-anchor="start" x="8" y="-2211.3" font-family="monospace" font-size="14.00">    ObjectProperty TextBlock_60</text>
<text text-anchor="start" x="8" y="-2196.3" font-family="monospace" font-size="14.00">      CPF_BlueprintVisible|CPF_ExportObject|CPF_InstancedReference|CPF_RepSkip|CPF_PersistentInstance</text>
<text text-anchor="start" x="8" y="-2181.3" font-family="monospace" font-size="14.00">    IntProperty Level</text>
<text text-anchor="start" x="8" y="-2166.3" font-family="monospace" font-size="14.00">      CPF_Edit|CPF_BlueprintVisible|CPF_ExposeOnSpawn</text>
</g>
<!-- ExecuteUbergraph_ITM_Season_LevelUp -->
<g id="node2" class="node">
<title>ExecuteUbergraph_ITM_Season_LevelUp</title>
<polygon fill="#ff8888" stroke="black" points="868,-2248.5 868,-2421.5 1338,-2421.5 1338,-2248.5 868,-2248.5"/>
<text text-anchor="start" x="876" y="-2406.3" font-family="monospace" font-size="14.00">Function ExecuteUbergraph_ITM_Season_LevelUp</text>
<text text-anchor="start" x="876" y="-2391.3" font-family="monospace" font-size="14.00">  IntProperty EntryPoint</text>
<text text-anchor="start" x="876" y="-2376.3" font-family="monospace" font-size="14.00">    CPF_BlueprintVisible|CPF_BlueprintReadOnly|CPF_Parm</text>
<text text-anchor="start" x="876" y="-2361.3" font-family="monospace" font-size="14.00">  BoolProperty K2Node_Event_IsDesignTime</text>
<text text-anchor="start" x="876" y="-2346.3" font-family="monospace" font-size="14.00">  StructProperty CallFunc_MenuColors_OutputColor</text>
<text text-anchor="start" x="876" y="-2331.3" font-family="monospace" font-size="14.00">  ObjectProperty CallFunc_PlayAnimation_ReturnValue</text>
<text text-anchor="start" x="876" y="-2316.3" font-family="monospace" font-size="14.00">  TextProperty CallFunc_Conv_IntToText_ReturnValue</text>
<text text-anchor="start" x="876" y="-2301.3" font-family="monospace" font-size="14.00">  StructProperty K2Node_MakeStruct_FormatArgumentData</text>
<text text-anchor="start" x="876" y="-2286.3" font-family="monospace" font-size="14.00">  ArrayProperty K2Node_MakeArray_Array</text>
<text text-anchor="start" x="876" y="-2271.3" font-family="monospace" font-size="14.00">    CPF_ReferenceParm</text>
<text text-anchor="start" x="876" y="-2256.3" font-family="monospace" font-size="14.00">  TextProperty CallFunc_Format_ReturnValue</text>
</g>
<!-- ExecuteUbergraph_ITM_Season_LevelUp__0 -->
<g id="node3" class="node">
<title>ExecuteUbergraph_ITM_Season_LevelUp__0</title>
<polygon fill="#eeeeee" stroke="black" points="967,-2083.5 967,-2121.5 1239,-2121.5 1239,-2083.5 967,-2083.5"/>
<text text-anchor="start" x="975" y="-2106.3" font-family="monospace" font-size="14.00">EX_ComputedJump</text>
<text text-anchor="start" x="975" y="-2091.3" font-family="monospace" font-size="14.00">  EX_LocalVariable [EntryPoint]</text>
</g>
<!-- ExecuteUbergraph_ITM_Season_LevelUp&#45;&gt;ExecuteUbergraph_ITM_Season_LevelUp__0 -->
<g id="edge1" class="edge">
<title>ExecuteUbergraph_ITM_Season_LevelUp&#45;&gt;ExecuteUbergraph_ITM_Season_LevelUp__0</title>
<path fill="none" stroke="black" d="M1103,-2248.83C1103,-2207.98 1103,-2161.71 1103,-2132.58"/>
<polygon fill="black" stroke="black" points="1106.5,-2132.72 1103,-2122.72 1099.5,-2132.72 1106.5,-2132.72"/>
</g>
<!-- ExecuteUbergraph_ITM_Season_LevelUp__10 -->
<g id="node4" class="node">
<title>ExecuteUbergraph_ITM_Season_LevelUp__10</title>
<polygon fill="#eeeeee" stroke="black" points="2357.5,-1858.5 2357.5,-1971.5 3116.5,-1971.5 3116.5,-1858.5 2357.5,-1858.5"/>
<text text-anchor="start" x="2365.5" y="-1956.3" font-family="monospace" font-size="14.00">EX_Context</text>
<text text-anchor="start" x="2365.5" y="-1941.3" font-family="monospace" font-size="14.00">  EX_ObjectConst import /Game/UI/Art/WidgetParts/LIB_MenuColors&#45;&gt;Default__LIB_MenuColors_C</text>
<text text-anchor="start" x="2365.5" y="-1926.3" font-family="monospace" font-size="14.00">  EX_LocalVirtualFunction MenuColors</text>
<text text-anchor="start" x="2365.5" y="-1911.3" font-family="monospace" font-size="14.00">    EX_ByteConst 32</text>
<text text-anchor="start" x="2365.5" y="-1896.3" font-family="monospace" font-size="14.00">    EX_Self</text>
<text text-anchor="start" x="2365.5" y="-1881.3" font-family="monospace" font-size="14.00">    EX_LocalVariable [CallFunc_MenuColors_OutputColor]</text>
<text text-anchor="start" x="2365.5" y="-1866.3" font-family="monospace" font-size="14.00">  RValue = []</text>
</g>
<!-- ExecuteUbergraph_ITM_Season_LevelUp__58 -->
<g id="node5" class="node">
<title>ExecuteUbergraph_ITM_Season_LevelUp__58</title>
<polygon fill="#eeeeee" stroke="black" points="2402,-1738.5 2402,-1821.5 2988,-1821.5 2988,-1738.5 2402,-1738.5"/>
<text text-anchor="start" x="2410" y="-1806.3" font-family="monospace" font-size="14.00">EX_Context</text>
<text text-anchor="start" x="2410" y="-1791.3" font-family="monospace" font-size="14.00">  EX_InstanceVariable [Basic_Menu_ColorBar]</text>
<text text-anchor="start" x="2410" y="-1776.3" font-family="monospace" font-size="14.00">  EX_FinalFunction import /Script/UMG&#45;&gt;UserWidget&#45;&gt;SetColorAndOpacity</text>
<text text-anchor="start" x="2410" y="-1761.3" font-family="monospace" font-size="14.00">    EX_LocalVariable [CallFunc_MenuColors_OutputColor]</text>
<text text-anchor="start" x="2410" y="-1746.3" font-family="monospace" font-size="14.00">  RValue = []</text>
</g>
<!-- ExecuteUbergraph_ITM_Season_LevelUp__10&#45;&gt;ExecuteUbergraph_ITM_Season_LevelUp__58 -->
<g id="edge2" class="edge">
<title>ExecuteUbergraph_ITM_Season_LevelUp__10&#45;&gt;ExecuteUbergraph_ITM_Season_LevelUp__58</title>
<path fill="none" stroke="black" d="M2719.55,-1858.75C2716.76,-1849.92 2713.89,-1840.81 2711.13,-1832.08"/>
<polygon fill="black" stroke="black" points="2714.52,-1831.2 2708.17,-1822.72 2707.85,-1833.31 2714.52,-1831.2"/>
</g>
<!-- ExecuteUbergraph_ITM_Season_LevelUp__99 -->
<g id="node6" class="node">
<title>ExecuteUbergraph_ITM_Season_LevelUp__99</title>
<polygon fill="#eeeeee" stroke="black" points="2381,-1618.5 2381,-1701.5 2967,-1701.5 2967,-1618.5 2381,-1618.5"/>
<text text-anchor="start" x="2389" y="-1686.3" font-family="monospace" font-size="14.00">EX_Context</text>
<text text-anchor="start" x="2389" y="-1671.3" font-family="monospace" font-size="14.00">  EX_InstanceVariable [Basic_Menu_ColorBar_1]</text>
<text text-anchor="start" x="2389" y="-1656.3" font-family="monospace" font-size="14.00">  EX_FinalFunction import /Script/UMG&#45;&gt;UserWidget&#45;&gt;SetColorAndOpacity</text>
<text text-anchor="start" x="2389" y="-1641.3" font-family="monospace" font-size="14.00">    EX_LocalVariable [CallFunc_MenuColors_OutputColor]</text>
<text text-anchor="start" x="2389" y="-1626.3" font-family="monospace" font-size="14.00">  RValue = []</text>
</g>
<!-- ExecuteUbergraph_ITM_Season_LevelUp__58&#45;&gt;ExecuteUbergraph_ITM_Season_LevelUp__99 -->
<g id="edge3" class="edge">
<title>ExecuteUbergraph_ITM_Season_LevelUp__58&#45;&gt;ExecuteUbergraph_ITM_Season_LevelUp__99</title>
<path fill="none" stroke="black" d="M2687.83,-1738.72C2686.34,-1730.37 2684.76,-1721.45 2683.21,-1712.75"/>
<polygon fill="black" stroke="black" points="2686.67,-1712.22 2681.47,-1702.99 2679.78,-1713.45 2686.67,-1712.22"/>
</g>
<!-- ExecuteUbergraph_ITM_Season_LevelUp__140 -->
<g id="node7" class="node">
<title>ExecuteUbergraph_ITM_Season_LevelUp__140</title>
<polygon fill="#eeeeee" stroke="black" points="2370,-1498.5 2370,-1581.5 2956,-1581.5 2956,-1498.5 2370,-1498.5"/>
<text text-anchor="start" x="2378" y="-1566.3" font-family="monospace" font-size="14.00">EX_Context</text>
<text text-anchor="start" x="2378" y="-1551.3" font-family="monospace" font-size="14.00">  EX_InstanceVariable [Basic_Menu_ColorBar_2]</text>
<text text-anchor="start" x="2378" y="-1536.3" font-family="monospace" font-size="14.00">  EX_FinalFunction import /Script/UMG&#45;&gt;UserWidget&#45;&gt;SetColorAndOpacity</text>
<text text-anchor="start" x="2378" y="-1521.3" font-family="monospace" font-size="14.00">    EX_LocalVariable [CallFunc_MenuColors_OutputColor]</text>
<text text-anchor="start" x="2378" y="-1506.3" font-family="monospace" font-size="14.00">  RValue = []</text>
</g>
<!-- ExecuteUbergraph_ITM_Season_LevelUp__99&#45;&gt;ExecuteUbergraph_ITM_Season_LevelUp__140 -->
<g id="edge4" class="edge">
<title>ExecuteUbergraph_ITM_Season_LevelUp__99&#45;&gt;ExecuteUbergraph_ITM_Season_LevelUp__140</title>
<path fill="none" stroke="black" d="M2670.25,-1618.72C2669.47,-1610.37 2668.64,-1601.45 2667.82,-1592.75"/>
<polygon fill="black" stroke="black" points="2671.33,-1592.64 2666.92,-1583 2664.36,-1593.29 2671.33,-1592.64"/>
</g>
<!-- ExecuteUbergraph_ITM_Season_LevelUp__181 -->
<g id="node8" class="node">
<title>ExecuteUbergraph_ITM_Season_LevelUp__181</title>
<polygon fill="#eeeeee" stroke="black" points="2365,-1348.5 2365,-1431.5 2951,-1431.5 2951,-1348.5 2365,-1348.5"/>
<text text-anchor="start" x="2373" y="-1416.3" font-family="monospace" font-size="14.00">EX_Context</text>
<text text-anchor="start" x="2373" y="-1401.3" font-family="monospace" font-size="14.00">  EX_InstanceVariable [Basic_Menu_ColorBar_3]</text>
<text text-anchor="start" x="2373" y="-1386.3" font-family="monospace" font-size="14.00">  EX_FinalFunction import /Script/UMG&#45;&gt;UserWidget&#45;&gt;SetColorAndOpacity</text>
<text text-anchor="start" x="2373" y="-1371.3" font-family="monospace" font-size="14.00">    EX_LocalVariable [CallFunc_MenuColors_OutputColor]</text>
<text text-anchor="start" x="2373" y="-1356.3" font-family="monospace" font-size="14.00">  RValue = []</text>
</g>
<!-- ExecuteUbergraph_ITM_Season_LevelUp__140&#45;&gt;ExecuteUbergraph_ITM_Season_LevelUp__181 -->
<g id="edge5" class="edge">
<title>ExecuteUbergraph_ITM_Season_LevelUp__140&#45;&gt;ExecuteUbergraph_ITM_Season_LevelUp__181</title>
<path fill="none" stroke="black" d="M2661.63,-1498.56C2661.05,-1481.35 2660.37,-1461.06 2659.75,-1442.77"/>
<polygon fill="black" stroke="black" points="2663.25,-1442.78 2659.42,-1432.91 2656.26,-1443.02 2663.25,-1442.78"/>
</g>
<!-- ExecuteUbergraph_ITM_Season_LevelUp__222 -->
<g id="node9" class="node">
<title>ExecuteUbergraph_ITM_Season_LevelUp__222</title>
<polygon fill="#eeeeee" stroke="black" points="2211,-1153.5 2211,-1281.5 2805,-1281.5 2805,-1153.5 2211,-1153.5"/>
<text text-anchor="start" x="2219" y="-1266.3" font-family="monospace" font-size="14.00">EX_Let</text>
<text text-anchor="start" x="2219" y="-1251.3" font-family="monospace" font-size="14.00">  EX_LocalVariable [CallFunc_Conv_IntToText_ReturnValue]</text>
<text text-anchor="start" x="2219" y="-1236.3" font-family="monospace" font-size="14.00">  EX_CallMath import /Script/Engine&#45;&gt;KismetTextLibrary&#45;&gt;Conv_IntToText</text>
<text text-anchor="start" x="2219" y="-1221.3" font-family="monospace" font-size="14.00">    EX_InstanceVariable [Level]</text>
<text text-anchor="start" x="2219" y="-1206.3" font-family="monospace" font-size="14.00">    EX_False</text>
<text text-anchor="start" x="2219" y="-1191.3" font-family="monospace" font-size="14.00">    EX_False</text>
<text text-anchor="start" x="2219" y="-1176.3" font-family="monospace" font-size="14.00">    EX_IntConst 1</text>
<text text-anchor="start" x="2219" y="-1161.3" font-family="monospace" font-size="14.00">    EX_IntConst 324</text>
</g>
<!-- ExecuteUbergraph_ITM_Season_LevelUp__181&#45;&gt;ExecuteUbergraph_ITM_Season_LevelUp__222 -->
<g id="edge6" class="edge">
<title>ExecuteUbergraph_ITM_Season_LevelUp__181&#45;&gt;ExecuteUbergraph_ITM_Season_LevelUp__222</title>
<path fill="none" stroke="black" d="M2622.45,-1348.59C2606.99,-1331.02 2588.4,-1309.88 2570.74,-1289.81"/>
<polygon fill="black" stroke="black" points="2573.47,-1287.62 2564.24,-1282.42 2568.21,-1292.24 2573.47,-1287.62"/>
</g>
<!-- ExecuteUbergraph_ITM_Season_LevelUp__271 -->
<g id="node10" class="node">
<title>ExecuteUbergraph_ITM_Season_LevelUp__271</title>
<polygon fill="#eeeeee" stroke="black" points="2254.5,-1048.5 2254.5,-1116.5 2757.5,-1116.5 2757.5,-1048.5 2254.5,-1048.5"/>
<text text-anchor="start" x="2262.5" y="-1101.3" font-family="monospace" font-size="14.00">EX_Let</text>
<text text-anchor="start" x="2262.5" y="-1086.3" font-family="monospace" font-size="14.00">  EX_StructMemberContext [ArgumentName]</text>
<text text-anchor="start" x="2262.5" y="-1071.3" font-family="monospace" font-size="14.00">    EX_LocalVariable [K2Node_MakeStruct_FormatArgumentData]</text>
<text text-anchor="start" x="2262.5" y="-1056.3" font-family="monospace" font-size="14.00">  EX_StringConst number</text>
</g>
<!-- ExecuteUbergraph_ITM_Season_LevelUp__222&#45;&gt;ExecuteUbergraph_ITM_Season_LevelUp__271 -->
<g id="edge7" class="edge">
<title>ExecuteUbergraph_ITM_Season_LevelUp__222&#45;&gt;ExecuteUbergraph_ITM_Season_LevelUp__271</title>
<path fill="none" stroke="black" d="M2507.05,-1153.51C2506.92,-1144.74 2506.79,-1135.9 2506.66,-1127.59"/>
<polygon fill="black" stroke="black" points="2510.17,-1127.71 2506.52,-1117.76 2503.17,-1127.81 2510.17,-1127.71"/>
</g>
<!-- ExecuteUbergraph_ITM_Season_LevelUp__306 -->
<g id="node11" class="node">
<title>ExecuteUbergraph_ITM_Season_LevelUp__306</title>
<polygon fill="#eeeeee" stroke="black" points="2217.5,-943.5 2217.5,-1011.5 2720.5,-1011.5 2720.5,-943.5 2217.5,-943.5"/>
<text text-anchor="start" x="2225.5" y="-996.3" font-family="monospace" font-size="14.00">EX_Let</text>
<text text-anchor="start" x="2225.5" y="-981.3" font-family="monospace" font-size="14.00">  EX_StructMemberContext [ArgumentValueType]</text>
<text text-anchor="start" x="2225.5" y="-966.3" font-family="monospace" font-size="14.00">    EX_LocalVariable [K2Node_MakeStruct_FormatArgumentData]</text>
<text text-anchor="start" x="2225.5" y="-951.3" font-family="monospace" font-size="14.00">  EX_ByteConst 4</text>
</g>
<!-- ExecuteUbergraph_ITM_Season_LevelUp__271&#45;&gt;ExecuteUbergraph_ITM_Season_LevelUp__306 -->
<g id="edge8" class="edge">
<title>ExecuteUbergraph_ITM_Season_LevelUp__271&#45;&gt;ExecuteUbergraph_ITM_Season_LevelUp__306</title>
<path fill="none" stroke="black" d="M2494.19,-1048.63C2491.15,-1040.17 2487.84,-1030.94 2484.64,-1022.04"/>
<polygon fill="black" stroke="black" points="2488.01,-1021.07 2481.34,-1012.84 2481.42,-1023.43 2488.01,-1021.07"/>
</g>
<!-- ExecuteUbergraph_ITM_Season_LevelUp__335 -->
<g id="node12" class="node">
<title>ExecuteUbergraph_ITM_Season_LevelUp__335</title>
<polygon fill="#eeeeee" stroke="black" points="2199.5,-838.5 2199.5,-906.5 2702.5,-906.5 2702.5,-838.5 2199.5,-838.5"/>
<text text-anchor="start" x="2207.5" y="-891.3" font-family="monospace" font-size="14.00">EX_Let</text>
<text text-anchor="start" x="2207.5" y="-876.3" font-family="monospace" font-size="14.00">  EX_StructMemberContext [ArgumentValue]</text>
<text text-anchor="start" x="2207.5" y="-861.3" font-family="monospace" font-size="14.00">    EX_LocalVariable [K2Node_MakeStruct_FormatArgumentData]</text>
<text text-anchor="start" x="2207.5" y="-846.3" font-family="monospace" font-size="14.00">  EX_LocalVariable [CallFunc_Conv_IntToText_ReturnValue]</text>
</g>
<!-- ExecuteUbergraph_ITM_Season_LevelUp__306&#45;&gt;ExecuteUbergraph_ITM_Season_LevelUp__335 -->
<g id="edge9" class="edge">
<title>ExecuteUbergraph_ITM_Season_LevelUp__306&#45;&gt;ExecuteUbergraph_ITM_Season_LevelUp__335</title>
<path fill="none" stroke="black" d="M2463.26,-943.63C2461.81,-935.36 2460.24,-926.35 2458.71,-917.63"/>
<polygon fill="black" stroke="black" points="2462.18,-917.15 2457.01,-907.9 2455.29,-918.36 2462.18,-917.15"/>
</g>
<!-- ExecuteUbergraph_ITM_Season_LevelUp__371 -->
<g id="node13" class="node">
<title>ExecuteUbergraph_ITM_Season_LevelUp__371</title>
<polygon fill="#eeeeee" stroke="black" points="2190.5,-733.5 2190.5,-801.5 2693.5,-801.5 2693.5,-733.5 2190.5,-733.5"/>
<text text-anchor="start" x="2198.5" y="-786.3" font-family="monospace" font-size="14.00">EX_Let</text>
<text text-anchor="start" x="2198.5" y="-771.3" font-family="monospace" font-size="14.00">  EX_StructMemberContext [ArgumentValueInt]</text>
<text text-anchor="start" x="2198.5" y="-756.3" font-family="monospace" font-size="14.00">    EX_LocalVariable [K2Node_MakeStruct_FormatArgumentData]</text>
<text text-anchor="start" x="2198.5" y="-741.3" font-family="monospace" font-size="14.00">  EX_IntConst 0</text>
</g>
<!-- ExecuteUbergraph_ITM_Season_LevelUp__335&#45;&gt;ExecuteUbergraph_ITM_Season_LevelUp__371 -->
<g id="edge10" class="edge">
<title>ExecuteUbergraph_ITM_Season_LevelUp__335&#45;&gt;ExecuteUbergraph_ITM_Season_LevelUp__371</title>
<path fill="none" stroke="black" d="M2448.13,-838.63C2447.41,-830.36 2446.62,-821.35 2445.86,-812.63"/>
<polygon fill="black" stroke="black" points="2449.37,-812.58 2445.01,-802.92 2442.39,-813.19 2449.37,-812.58"/>
</g>
<!-- ExecuteUbergraph_ITM_Season_LevelUp__403 -->
<g id="node14" class="node">
<title>ExecuteUbergraph_ITM_Season_LevelUp__403</title>
<polygon fill="#eeeeee" stroke="black" points="2185.5,-628.5 2185.5,-696.5 2688.5,-696.5 2688.5,-628.5 2185.5,-628.5"/>
<text text-anchor="start" x="2193.5" y="-681.3" font-family="monospace" font-size="14.00">EX_Let</text>
<text text-anchor="start" x="2193.5" y="-666.3" font-family="monospace" font-size="14.00">  EX_StructMemberContext [ArgumentValueFloat]</text>
<text text-anchor="start" x="2193.5" y="-651.3" font-family="monospace" font-size="14.00">    EX_LocalVariable [K2Node_MakeStruct_FormatArgumentData]</text>
<text text-anchor="start" x="2193.5" y="-636.3" font-family="monospace" font-size="14.00">  EX_FloatConst 0</text>
</g>
<!-- ExecuteUbergraph_ITM_Season_LevelUp__371&#45;&gt;ExecuteUbergraph_ITM_Season_LevelUp__403 -->
<g id="edge11" class="edge">
<title>ExecuteUbergraph_ITM_Season_LevelUp__371&#45;&gt;ExecuteUbergraph_ITM_Season_LevelUp__403</title>
<path fill="none" stroke="black" d="M2440.4,-733.63C2440,-725.36 2439.57,-716.35 2439.14,-707.63"/>
<polygon fill="black" stroke="black" points="2442.65,-707.74 2438.67,-697.93 2435.66,-708.08 2442.65,-707.74"/>
</g>
<!-- ExecuteUbergraph_ITM_Season_LevelUp__435 -->
<g id="node15" class="node">
<title>ExecuteUbergraph_ITM_Season_LevelUp__435</title>
<polygon fill="#eeeeee" stroke="black" points="2183.5,-523.5 2183.5,-591.5 2686.5,-591.5 2686.5,-523.5 2183.5,-523.5"/>
<text text-anchor="start" x="2191.5" y="-576.3" font-family="monospace" font-size="14.00">EX_Let</text>
<text text-anchor="start" x="2191.5" y="-561.3" font-family="monospace" font-size="14.00">  EX_StructMemberContext [ArgumentValueGender]</text>
<text text-anchor="start" x="2191.5" y="-546.3" font-family="monospace" font-size="14.00">    EX_LocalVariable [K2Node_MakeStruct_FormatArgumentData]</text>
<text text-anchor="start" x="2191.5" y="-531.3" font-family="monospace" font-size="14.00">  EX_ByteConst 0</text>
</g>
<!-- ExecuteUbergraph_ITM_Season_LevelUp__403&#45;&gt;ExecuteUbergraph_ITM_Season_LevelUp__435 -->
<g id="edge12" class="edge">
<title>ExecuteUbergraph_ITM_Season_LevelUp__403&#45;&gt;ExecuteUbergraph_ITM_Season_LevelUp__435</title>
<path fill="none" stroke="black" d="M2436.36,-628.63C2436.2,-620.45 2436.03,-611.55 2435.86,-602.92"/>
<polygon fill="black" stroke="black" points="2439.36,-602.86 2435.67,-592.93 2432.36,-602.99 2439.36,-602.86"/>
</g>
<!-- ExecuteUbergraph_ITM_Season_LevelUp__464 -->
<g id="node16" class="node">
<title>ExecuteUbergraph_ITM_Season_LevelUp__464</title>
<polygon fill="#eeeeee" stroke="black" points="2183.5,-433.5 2183.5,-486.5 2670.5,-486.5 2670.5,-433.5 2183.5,-433.5"/>
<text text-anchor="start" x="2191.5" y="-471.3" font-family="monospace" font-size="14.00">EX_SetArray</text>
<text text-anchor="start" x="2191.5" y="-456.3" font-family="monospace" font-size="14.00">  EX_LocalVariable [K2Node_MakeArray_Array]</text>
<text text-anchor="start" x="2191.5" y="-441.3" font-family="monospace" font-size="14.00">  EX_LocalVariable [K2Node_MakeStruct_FormatArgumentData]</text>
</g>
<!-- ExecuteUbergraph_ITM_Season_LevelUp__435&#45;&gt;ExecuteUbergraph_ITM_Season_LevelUp__464 -->
<g id="edge13" class="edge">
<title>ExecuteUbergraph_ITM_Season_LevelUp__435&#45;&gt;ExecuteUbergraph_ITM_Season_LevelUp__464</title>
<path fill="none" stroke="black" d="M2432.25,-523.63C2431.54,-515.25 2430.79,-506.19 2430.07,-497.63"/>
<polygon fill="black" stroke="black" points="2433.58,-497.56 2429.25,-487.89 2426.6,-498.15 2433.58,-497.56"/>
</g>
<!-- ExecuteUbergraph_ITM_Season_LevelUp__484 -->
<g id="node17" class="node">
<title>ExecuteUbergraph_ITM_Season_LevelUp__484</title>
<polygon fill="#eeeeee" stroke="black" points="2162,-268.5 2162,-396.5 2690,-396.5 2690,-268.5 2162,-268.5"/>
<text text-anchor="start" x="2170" y="-381.3" font-family="monospace" font-size="14.00">EX_Let</text>
<text text-anchor="start" x="2170" y="-366.3" font-family="monospace" font-size="14.00">  EX_LocalVariable [CallFunc_Format_ReturnValue]</text>
<text text-anchor="start" x="2170" y="-351.3" font-family="monospace" font-size="14.00">  EX_CallMath import /Script/Engine&#45;&gt;KismetTextLibrary&#45;&gt;Format</text>
<text text-anchor="start" x="2170" y="-336.3" font-family="monospace" font-size="14.00">    EX_TextConst</text>
<text text-anchor="start" x="2170" y="-321.3" font-family="monospace" font-size="14.00">      SourceString = LEVEL {number} REACHED</text>
<text text-anchor="start" x="2170" y="-306.3" font-family="monospace" font-size="14.00">      LocalizedKey = 9DE807104B95CA8E20B1D3BAFC42059D</text>
<text text-anchor="start" x="2170" y="-291.3" font-family="monospace" font-size="14.00">      LocalizedNamespace = </text>
<text text-anchor="start" x="2170" y="-276.3" font-family="monospace" font-size="14.00">    EX_LocalVariable [K2Node_MakeArray_Array]</text>
</g>
<!-- ExecuteUbergraph_ITM_Season_LevelUp__464&#45;&gt;ExecuteUbergraph_ITM_Season_LevelUp__484 -->
<g id="edge14" class="edge">
<title>ExecuteUbergraph_ITM_Season_LevelUp__464&#45;&gt;ExecuteUbergraph_ITM_Season_LevelUp__484</title>
<path fill="none" stroke="black" d="M2426.8,-433.6C2426.74,-425.91 2426.67,-417.05 2426.59,-407.84"/>
<polygon fill="black" stroke="black" points="2430.09,-407.97 2426.51,-398 2423.09,-408.03 2430.09,-407.97"/>
</g>
<!-- ExecuteUbergraph_ITM_Season_LevelUp__583 -->
<g id="node18" class="node">
<title>ExecuteUbergraph_ITM_Season_LevelUp__583</title>
<polygon fill="#eeeeee" stroke="black" points="2170.5,-148.5 2170.5,-231.5 2599.5,-231.5 2599.5,-148.5 2170.5,-148.5"/>
<text text-anchor="start" x="2178.5" y="-216.3" font-family="monospace" font-size="14.00">EX_Context</text>
<text text-anchor="start" x="2178.5" y="-201.3" font-family="monospace" font-size="14.00">  EX_InstanceVariable [TextBlock_60]</text>
<text text-anchor="start" x="2178.5" y="-186.3" font-family="monospace" font-size="14.00">  EX_VirtualFunction SetText</text>
<text text-anchor="start" x="2178.5" y="-171.3" font-family="monospace" font-size="14.00">    EX_LocalVariable [CallFunc_Format_ReturnValue]</text>
<text text-anchor="start" x="2178.5" y="-156.3" font-family="monospace" font-size="14.00">  RValue = []</text>
</g>
<!-- ExecuteUbergraph_ITM_Season_LevelUp__484&#45;&gt;ExecuteUbergraph_ITM_Season_LevelUp__583 -->
<g id="edge15" class="edge">
<title>ExecuteUbergraph_ITM_Season_LevelUp__484&#45;&gt;ExecuteUbergraph_ITM_Season_LevelUp__583</title>
<path fill="none" stroke="black" d="M2407.66,-268.65C2405.08,-259.81 2402.45,-250.81 2399.95,-242.22"/>
<polygon fill="black" stroke="black" points="2403.32,-241.29 2397.16,-232.67 2396.6,-243.25 2403.32,-241.29"/>
</g>
<!-- ExecuteUbergraph_ITM_Season_LevelUp__628 -->
<g id="node19" class="node">
<title>ExecuteUbergraph_ITM_Season_LevelUp__628</title>
<polygon fill="#eeeeee" stroke="black" points="2226.5,-75.5 2226.5,-111.5 2333.5,-111.5 2333.5,-75.5 2226.5,-75.5"/>
<text text-anchor="start" x="2234.5" y="-89.8" font-family="monospace" font-size="14.00">EX_Jump 680</text>
</g>
<!-- ExecuteUbergraph_ITM_Season_LevelUp__583&#45;&gt;ExecuteUbergraph_ITM_Season_LevelUp__628 -->
<g id="edge16" class="edge">
<title>ExecuteUbergraph_ITM_Season_LevelUp__583&#45;&gt;ExecuteUbergraph_ITM_Season_LevelUp__628</title>
<path fill="none" stroke="black" d="M2340.17,-148.65C2328.96,-138.56 2317.27,-128.04 2307.21,-118.99"/>
<polygon fill="black" stroke="black" points="2309.75,-116.56 2299.97,-112.47 2305.06,-121.76 2309.75,-116.56"/>
</g>
<!-- ExecuteUbergraph_ITM_Season_LevelUp__680 -->
<g id="node21" class="node">
<title>ExecuteUbergraph_ITM_Season_LevelUp__680</title>
<polygon fill="#eeeeee" stroke="black" points="2101,-0.5 2101,-38.5 2217,-38.5 2217,-0.5 2101,-0.5"/>
<text text-anchor="start" x="2109" y="-23.3" font-family="monospace" font-size="14.00">EX_Return</text>
<text text-anchor="start" x="2109" y="-8.3" font-family="monospace" font-size="14.00">  EX_Nothing</text>
</g>
<!-- ExecuteUbergraph_ITM_Season_LevelUp__628&#45;&gt;ExecuteUbergraph_ITM_Season_LevelUp__680 -->
<g id="edge17" class="edge">
<title>ExecuteUbergraph_ITM_Season_LevelUp__628&#45;&gt;ExecuteUbergraph_ITM_Season_LevelUp__680</title>
<path fill="none" stroke="black" d="M2251.63,-75.62C2235.87,-66.24 2216,-54.42 2198.71,-44.13"/>
<polygon fill="black" stroke="black" points="2200.56,-41.16 2190.18,-39.05 2196.98,-47.18 2200.56,-41.16"/>
</g>
<!-- ExecuteUbergraph_ITM_Season_LevelUp__633 -->
<g id="node20" class="node">
<title>ExecuteUbergraph_ITM_Season_LevelUp__633</title>
<polygon fill="#eeeeee" stroke="black" points="1716.5,-1318.5 1716.5,-1461.5 2261.5,-1461.5 2261.5,-1318.5 1716.5,-1318.5"/>
<text text-anchor="start" x="1724.5" y="-1446.3" font-family="monospace" font-size="14.00">EX_LetObj</text>
<text text-anchor="start" x="1724.5" y="-1431.3" font-family="monospace" font-size="14.00">  EX_LocalVariable [CallFunc_PlayAnimation_ReturnValue]</text>
<text text-anchor="start" x="1724.5" y="-1416.3" font-family="monospace" font-size="14.00">  EX_FinalFunction import /Script/UMG&#45;&gt;UserWidget&#45;&gt;PlayAnimation</text>
<text text-anchor="start" x="1724.5" y="-1401.3" font-family="monospace" font-size="14.00">    EX_InstanceVariable [Intro]</text>
<text text-anchor="start" x="1724.5" y="-1386.3" font-family="monospace" font-size="14.00">    EX_FloatConst 0</text>
<text text-anchor="start" x="1724.5" y="-1371.3" font-family="monospace" font-size="14.00">    EX_IntConst 1</text>
<text text-anchor="start" x="1724.5" y="-1356.3" font-family="monospace" font-size="14.00">    EX_ByteConst 0</text>
<text text-anchor="start" x="1724.5" y="-1341.3" font-family="monospace" font-size="14.00">    EX_FloatConst 1</text>
<text text-anchor="start" x="1724.5" y="-1326.3" font-family="monospace" font-size="14.00">    EX_False</text>
</g>
<!-- ExecuteUbergraph_ITM_Season_LevelUp__633&#45;&gt;ExecuteUbergraph_ITM_Season_LevelUp__680 -->
<g id="edge18" class="edge">
<title>ExecuteUbergraph_ITM_Season_LevelUp__633&#45;&gt;ExecuteUbergraph_ITM_Season_LevelUp__680</title>
<path fill="none" stroke="black" d="M2037.59,-1318.76C2074.15,-1259 2118,-1169.43 2118,-1083.5 2118,-1083.5 2118,-1083.5 2118,-189 2118,-138.64 2135.51,-82.15 2147.64,-49.04"/>
<polygon fill="black" stroke="black" points="2150.88,-50.36 2151.14,-39.77 2144.33,-47.89 2150.88,-50.36"/>
</g>
<!-- ExecuteUbergraph_ITM_Season_LevelUp__682 -->
<g id="node22" class="node">
<title>ExecuteUbergraph_ITM_Season_LevelUp__682</title>
<polygon fill="#eeeeee" stroke="black" points="3006,-1762 3006,-1798 3138,-1798 3138,-1762 3006,-1762"/>
<text text-anchor="start" x="3014" y="-1776.3" font-family="monospace" font-size="14.00">EX_EndOfScript</text>
</g>
<!-- PlayIntro -->
<g id="node23" class="node">
<title>PlayIntro</title>
<polygon fill="#ff8888" stroke="black" points="1537.5,-2317 1537.5,-2353 1702.5,-2353 1702.5,-2317 1537.5,-2317"/>
<text text-anchor="start" x="1545.5" y="-2331.3" font-family="monospace" font-size="14.00">Function PlayIntro</text>
</g>
<!-- PlayIntro__0 -->
<g id="node24" class="node">
<title>PlayIntro__0</title>
<polygon fill="#eeeeee" stroke="black" points="1257,-2083.5 1257,-2121.5 1983,-2121.5 1983,-2083.5 1257,-2083.5"/>
<text text-anchor="start" x="1265" y="-2106.3" font-family="monospace" font-size="14.00">EX_LocalFinalFunction export ITM_Season_LevelUp_C&#45;&gt;ExecuteUbergraph_ITM_Season_LevelUp</text>
<text text-anchor="start" x="1265" y="-2091.3" font-family="monospace" font-size="14.00">  EX_IntConst 633</text>
</g>
<!-- PlayIntro&#45;&gt;PlayIntro__0 -->
<g id="edge19" class="edge">
<title>PlayIntro&#45;&gt;PlayIntro__0</title>
<path fill="none" stroke="black" d="M1620,-2317.05C1620,-2278.04 1620,-2181.52 1620,-2132.73"/>
<polygon fill="black" stroke="black" points="1623.5,-2132.93 1620,-2122.93 1616.5,-2132.93 1623.5,-2132.93"/>
</g>
<!-- PlayIntro__0&#45;&gt;ExecuteUbergraph_ITM_Season_LevelUp__633 -->
<g id="edge20" class="edge">
<title>PlayIntro__0:e&#45;&gt;ExecuteUbergraph_ITM_Season_LevelUp__633</title>
<path fill="none" stroke="red" d="M1984,-2102.5C2025.45,-2102.5 1983,-1957.45 1983,-1916 1983,-1916 1983,-1916 1983,-1659 1983,-1596.46 1984.65,-1525.72 1986.22,-1472.63"/>
<polygon fill="none" stroke="red" points="1989.72,-1472.86 1986.52,-1462.76 1982.72,-1472.64 1989.72,-1472.86"/>
</g>
<!-- PlayIntro__15 -->
<g id="node25" class="node">
<title>PlayIntro__15</title>
<polygon fill="#eeeeee" stroke="black" points="1562,-2008.5 1562,-2046.5 1678,-2046.5 1678,-2008.5 1562,-2008.5"/>
<text text-anchor="start" x="1570" y="-2031.3" font-family="monospace" font-size="14.00">EX_Return</text>
<text text-anchor="start" x="1570" y="-2016.3" font-family="monospace" font-size="14.00">  EX_Nothing</text>
</g>
<!-- PlayIntro__0&#45;&gt;PlayIntro__15 -->
<g id="edge21" class="edge">
<title>PlayIntro__0&#45;&gt;PlayIntro__15</title>
<path fill="none" stroke="black" d="M1620,-2083.83C1620,-2076 1620,-2066.57 1620,-2057.74"/>
<polygon fill="black" stroke="black" points="1623.5,-2057.78 1620,-2047.78 1616.5,-2057.78 1623.5,-2057.78"/>
</g>
<!-- PlayIntro__17 -->
<g id="node26" class="node">
<title>PlayIntro__17</title>
<polygon fill="#eeeeee" stroke="black" points="2985,-1642 2985,-1678 3117,-1678 3117,-1642 2985,-1642"/>
<text text-anchor="start" x="2993" y="-1656.3" font-family="monospace" font-size="14.00">EX_EndOfScript</text>
</g>
<!-- PreConstruct -->
<g id="node27" class="node">
<title>PreConstruct</title>
<polygon fill="#ff8888" stroke="black" points="2139,-2308.5 2139,-2361.5 2609,-2361.5 2609,-2308.5 2139,-2308.5"/>
<text text-anchor="start" x="2147" y="-2346.3" font-family="monospace" font-size="14.00">Function PreConstruct</text>
<text text-anchor="start" x="2147" y="-2331.3" font-family="monospace" font-size="14.00">  BoolProperty IsDesignTime</text>
<text text-anchor="start" x="2147" y="-2316.3" font-family="monospace" font-size="14.00">    CPF_BlueprintVisible|CPF_BlueprintReadOnly|CPF_Parm</text>
</g>
<!-- PreConstruct__0 -->
<g id="node28" class="node">
<title>PreConstruct__0</title>
<polygon fill="#eeeeee" stroke="black" points="2134.5,-2083.5 2134.5,-2121.5 2613.5,-2121.5 2613.5,-2083.5 2134.5,-2083.5"/>
<text text-anchor="start" x="2142.5" y="-2106.3" font-family="monospace" font-size="14.00">EX_LetValueOnPersistentFrame [K2Node_Event_IsDesignTime]</text>
<text text-anchor="start" x="2142.5" y="-2091.3" font-family="monospace" font-size="14.00">  EX_LocalVariable [IsDesignTime]</text>
</g>
<!-- PreConstruct&#45;&gt;PreConstruct__0 -->
<g id="edge22" class="edge">
<title>PreConstruct&#45;&gt;PreConstruct__0</title>
<path fill="none" stroke="black" d="M2374,-2308.89C2374,-2265.93 2374,-2178.52 2374,-2132.82"/>
<polygon fill="black" stroke="black" points="2377.5,-2132.89 2374,-2122.89 2370.5,-2132.89 2377.5,-2132.89"/>
</g>
<!-- PreConstruct__18 -->
<g id="node29" class="node">
<title>PreConstruct__18</title>
<polygon fill="#eeeeee" stroke="black" points="2011,-2008.5 2011,-2046.5 2737,-2046.5 2737,-2008.5 2011,-2008.5"/>
<text text-anchor="start" x="2019" y="-2031.3" font-family="monospace" font-size="14.00">EX_LocalFinalFunction export ITM_Season_LevelUp_C&#45;&gt;ExecuteUbergraph_ITM_Season_LevelUp</text>
<text text-anchor="start" x="2019" y="-2016.3" font-family="monospace" font-size="14.00">  EX_IntConst 10</text>
</g>
<!-- PreConstruct__0&#45;&gt;PreConstruct__18 -->
<g id="edge23" class="edge">
<title>PreConstruct__0&#45;&gt;PreConstruct__18</title>
<path fill="none" stroke="black" d="M2374,-2083.83C2374,-2076 2374,-2066.57 2374,-2057.74"/>
<polygon fill="black" stroke="black" points="2377.5,-2057.78 2374,-2047.78 2370.5,-2057.78 2377.5,-2057.78"/>
</g>
<!-- PreConstruct__18&#45;&gt;ExecuteUbergraph_ITM_Season_LevelUp__10 -->
<g id="edge24" class="edge">
<title>PreConstruct__18:e&#45;&gt;ExecuteUbergraph_ITM_Season_LevelUp__10</title>
<path fill="none" stroke="red" d="M2738,-2027.5C2759.57,-2027.5 2762.17,-2006.37 2758.23,-1982.51"/>
<polygon fill="none" stroke="red" points="2761.71,-1982.02 2756.31,-1972.91 2754.84,-1983.4 2761.71,-1982.02"/>
</g>
<!-- PreConstruct__33 -->
<g id="node30" class="node">
<title>PreConstruct__33</title>
<polygon fill="#eeeeee" stroke="black" points="2223,-1896 2223,-1934 2339,-1934 2339,-1896 2223,-1896"/>
<text text-anchor="start" x="2231" y="-1918.8" font-family="monospace" font-size="14.00">EX_Return</text>
<text text-anchor="start" x="2231" y="-1903.8" font-family="monospace" font-size="14.00">  EX_Nothing</text>
</g>
<!-- PreConstruct__18&#45;&gt;PreConstruct__33 -->
<g id="edge25" class="edge">
<title>PreConstruct__18&#45;&gt;PreConstruct__33</title>
<path fill="none" stroke="black" d="M2359.06,-2008.75C2343.94,-1990.78 2320.4,-1962.81 2303.12,-1942.28"/>
<polygon fill="black" stroke="black" points="2306,-1940.26 2296.88,-1934.87 2300.64,-1944.77 2306,-1940.26"/>
</g>
<!-- PreConstruct__35 -->
<g id="node31" class="node">
<title>PreConstruct__35</title>
<polygon fill="#eeeeee" stroke="black" points="2974,-1522 2974,-1558 3106,-1558 3106,-1522 2974,-1522"/>
<text text-anchor="start" x="2982" y="-1536.3" font-family="monospace" font-size="14.00">EX_EndOfScript</text>
</g>
</g>
</svg>
