<?xml version="1.0" encoding="UTF-8" standalone="no"?>
<!DOCTYPE svg PUBLIC "-//W3C//DTD SVG 1.1//EN"
 "http://www.w3.org/Graphics/SVG/1.1/DTD/svg11.dtd">
<!-- Generated by graphviz version 7.0.1 (0)
 -->
<!-- Pages: 1 -->
<svg width="2514pt" height="780pt"
 viewBox="0.00 0.00 2514.00 780.00" xmlns="http://www.w3.org/2000/svg" xmlns:xlink="http://www.w3.org/1999/xlink">
<g id="graph0" class="graph" transform="scale(1 1) rotate(0) translate(4 776)">
<polygon fill="white" stroke="none" points="-4,4 -4,-776 2510,-776 2510,4 -4,4"/>
<!-- TOOLTIP_Season_BlankNode_C -->
<g id="node1" class="node">
<title>TOOLTIP_Season_BlankNode_C</title>
<polygon fill="#88ff88" stroke="black" points="0,-478.5 0,-771.5 850,-771.5 850,-478.5 0,-478.5"/>
<text text-anchor="start" x="8" y="-756.3" font-family="monospace" font-size="14.00">ClassExport: TOOLTIP_Season_BlankNode_C</text>
<text text-anchor="start" x="8" y="-741.3" font-family="monospace" font-size="14.00">  SuperStruct: import /Script/UMG&#45;&gt;UserWidget</text>
<text text-anchor="start" x="8" y="-726.3" font-family="monospace" font-size="14.00">  Properties:</text>
<text text-anchor="start" x="8" y="-711.3" font-family="monospace" font-size="14.00">    StructProperty UberGraphFrame</text>
<text text-anchor="start" x="8" y="-696.3" font-family="monospace" font-size="14.00">      CPF_Transient|CPF_DuplicateTransient</text>
<text text-anchor="start" x="8" y="-681.3" font-family="monospace" font-size="14.00">    ObjectProperty Intro</text>
<text text-anchor="start" x="8" y="-666.3" font-family="monospace" font-size="14.00">      CPF_BlueprintVisible|CPF_BlueprintReadOnly|CPF_Transient|CPF_RepSkip</text>
<text text-anchor="start" x="8" y="-651.3" font-family="monospace" font-size="14.00">    ObjectProperty HorizontalBox_Cost</text>
<text text-anchor="start" x="8" y="-636.3" font-family="monospace" font-size="14.00">      CPF_BlueprintVisible|CPF_ExportObject|CPF_InstancedReference|CPF_RepSkip|CPF_PersistentInstance</text>
<text text-anchor="start" x="8" y="-621.3" font-family="monospace" font-size="14.00">    ObjectProperty Image_213</text>
<text text-anchor="start" x="8" y="-606.3" font-family="monospace" font-size="14.00">      CPF_BlueprintVisible|CPF_ExportObject|CPF_InstancedReference|CPF_RepSkip|CPF_PersistentInstance</text>
<text text-anchor="start" x="8" y="-591.3" font-family="monospace" font-size="14.00">    ObjectProperty Image_Background</text>
<text text-anchor="start" x="8" y="-576.3" font-family="monospace" font-size="14.00">      CPF_BlueprintVisible|CPF_ExportObject|CPF_InstancedReference|CPF_RepSkip|CPF_PersistentInstance</text>
<text text-anchor="start" x="8" y="-561.3" font-family="monospace" font-size="14.00">    ObjectProperty Text_Cost</text>
<text text-anchor="start" x="8" y="-546.3" font-family="monospace" font-size="14.00">      CPF_BlueprintVisible|CPF_ExportObject|CPF_InstancedReference|CPF_RepSkip|CPF_PersistentInstance</text>
<text text-anchor="start" x="8" y="-531.3" font-family="monospace" font-size="14.00">    ObjectProperty TextBlock_Category</text>
<text text-anchor="start" x="8" y="-516.3" font-family="monospace" font-size="14.00">      CPF_BlueprintVisible|CPF_ExportObject|CPF_InstancedReference|CPF_RepSkip|CPF_PersistentInstance</text>
<text text-anchor="start" x="8" y="-501.3" font-family="monospace" font-size="14.00">    ObjectProperty TextBlock_Title</text>
<text text-anchor="start" x="8" y="-486.3" font-family="monospace" font-size="14.00">      CPF_BlueprintVisible|CPF_ExportObject|CPF_InstancedReference|CPF_RepSkip|CPF_PersistentInstance</text>
</g>
<!-- ExecuteUbergraph_TOOLTIP_Season_BlankNode -->
<g id="node2" class="node">
<title>ExecuteUbergraph_TOOLTIP_Season_BlankNode</title>
<polygon fill="#ff8888" stroke="black" points="868,-591 868,-659 1338,-659 1338,-591 868,-591"/>
<text text-anchor="start" x="876" y="-643.8" font-family="monospace" font-size="14.00">Function ExecuteUbergraph_TOOLTIP_Season_BlankNode</text>
<text text-anchor="start" x="876" y="-628.8" font-family="monospace" font-size="14.00">  IntProperty EntryPoint</text>
<text text-anchor="start" x="876" y="-613.8" font-family="monospace" font-size="14.00">    CPF_BlueprintVisible|CPF_BlueprintReadOnly|CPF_Parm</text>
<text text-anchor="start" x="876" y="-598.8" font-family="monospace" font-size="14.00">  ObjectProperty CallFunc_PlayAnimation_ReturnValue</text>
</g>
<!-- ExecuteUbergraph_TOOLTIP_Season_BlankNode__0 -->
<g id="node3" class="node">
<title>ExecuteUbergraph_TOOLTIP_Season_BlankNode__0</title>
<polygon fill="#eeeeee" stroke="black" points="967,-403.5 967,-441.5 1239,-441.5 1239,-403.5 967,-403.5"/>
<text text-anchor="start" x="975" y="-426.3" font-family="monospace" font-size="14.00">EX_ComputedJump</text>
<text text-anchor="start" x="975" y="-411.3" font-family="monospace" font-size="14.00">  EX_LocalVariable [EntryPoint]</text>
</g>
<!-- ExecuteUbergraph_TOOLTIP_Season_BlankNode&#45;&gt;ExecuteUbergraph_TOOLTIP_Season_BlankNode__0 -->
<g id="edge1" class="edge">
<title>ExecuteUbergraph_TOOLTIP_Season_BlankNode&#45;&gt;ExecuteUbergraph_TOOLTIP_Season_BlankNode__0</title>
<path fill="none" stroke="black" d="M1103,-591.34C1103,-552.96 1103,-489.83 1103,-452.91"/>
<polygon fill="black" stroke="black" points="1106.5,-452.99 1103,-442.99 1099.5,-452.99 1106.5,-452.99"/>
</g>
<!-- ExecuteUbergraph_TOOLTIP_Season_BlankNode__10 -->
<g id="node4" class="node">
<title>ExecuteUbergraph_TOOLTIP_Season_BlankNode__10</title>
<polygon fill="#eeeeee" stroke="black" points="1810.5,-148.5 1810.5,-291.5 2355.5,-291.5 2355.5,-148.5 1810.5,-148.5"/>
<text text-anchor="start" x="1818.5" y="-276.3" font-family="monospace" font-size="14.00">EX_LetObj</text>
<text text-anchor="start" x="1818.5" y="-261.3" font-family="monospace" font-size="14.00">  EX_LocalVariable [CallFunc_PlayAnimation_ReturnValue]</text>
<text text-anchor="start" x="1818.5" y="-246.3" font-family="monospace" font-size="14.00">  EX_FinalFunction import /Script/UMG&#45;&gt;UserWidget&#45;&gt;PlayAnimation</text>
<text text-anchor="start" x="1818.5" y="-231.3" font-family="monospace" font-size="14.00">    EX_InstanceVariable [Intro]</text>
<text text-anchor="start" x="1818.5" y="-216.3" font-family="monospace" font-size="14.00">    EX_FloatConst 0</text>
<text text-anchor="start" x="1818.5" y="-201.3" font-family="monospace" font-size="14.00">    EX_IntConst 1</text>
<text text-anchor="start" x="1818.5" y="-186.3" font-family="monospace" font-size="14.00">    EX_ByteConst 0</text>
<text text-anchor="start" x="1818.5" y="-171.3" font-family="monospace" font-size="14.00">    EX_FloatConst 1</text>
<text text-anchor="start" x="1818.5" y="-156.3" font-family="monospace" font-size="14.00">    EX_False</text>
</g>
<!-- ExecuteUbergraph_TOOLTIP_Season_BlankNode__57 -->
<g id="node5" class="node">
<title>ExecuteUbergraph_TOOLTIP_Season_BlankNode__57</title>
<polygon fill="#eeeeee" stroke="black" points="2033.5,-75.5 2033.5,-111.5 2132.5,-111.5 2132.5,-75.5 2033.5,-75.5"/>
<text text-anchor="start" x="2041.5" y="-89.8" font-family="monospace" font-size="14.00">EX_Jump 67</text>
</g>
<!-- ExecuteUbergraph_TOOLTIP_Season_BlankNode__10&#45;&gt;ExecuteUbergraph_TOOLTIP_Season_BlankNode__57 -->
<g id="edge2" class="edge">
<title>ExecuteUbergraph_TOOLTIP_Season_BlankNode__10&#45;&gt;ExecuteUbergraph_TOOLTIP_Season_BlankNode__57</title>
<path fill="none" stroke="black" d="M2083,-148.75C2083,-139.48 2083,-130.45 2083,-122.51"/>
<polygon fill="black" stroke="black" points="2086.5,-122.55 2083,-112.55 2079.5,-122.55 2086.5,-122.55"/>
</g>
<!-- ExecuteUbergraph_TOOLTIP_Season_BlankNode__67 -->
<g id="node7" class="node">
<title>ExecuteUbergraph_TOOLTIP_Season_BlankNode__67</title>
<polygon fill="#eeeeee" stroke="black" points="2025,-0.5 2025,-38.5 2141,-38.5 2141,-0.5 2025,-0.5"/>
<text text-anchor="start" x="2033" y="-23.3" font-family="monospace" font-size="14.00">EX_Return</text>
<text text-anchor="start" x="2033" y="-8.3" font-family="monospace" font-size="14.00">  EX_Nothing</text>
</g>
<!-- ExecuteUbergraph_TOOLTIP_Season_BlankNode__57&#45;&gt;ExecuteUbergraph_TOOLTIP_Season_BlankNode__67 -->
<g id="edge3" class="edge">
<title>ExecuteUbergraph_TOOLTIP_Season_BlankNode__57&#45;&gt;ExecuteUbergraph_TOOLTIP_Season_BlankNode__67</title>
<path fill="none" stroke="black" d="M2083,-75.8C2083,-68.09 2083,-58.7 2083,-49.86"/>
<polygon fill="black" stroke="black" points="2086.5,-49.88 2083,-39.88 2079.5,-49.88 2086.5,-49.88"/>
</g>
<!-- ExecuteUbergraph_TOOLTIP_Season_BlankNode__62 -->
<g id="node6" class="node">
<title>ExecuteUbergraph_TOOLTIP_Season_BlankNode__62</title>
<polygon fill="#eeeeee" stroke="black" points="2033.5,-329.5 2033.5,-365.5 2132.5,-365.5 2132.5,-329.5 2033.5,-329.5"/>
<text text-anchor="start" x="2041.5" y="-343.8" font-family="monospace" font-size="14.00">EX_Jump 10</text>
</g>
<!-- ExecuteUbergraph_TOOLTIP_Season_BlankNode__62&#45;&gt;ExecuteUbergraph_TOOLTIP_Season_BlankNode__10 -->
<g id="edge4" class="edge">
<title>ExecuteUbergraph_TOOLTIP_Season_BlankNode__62&#45;&gt;ExecuteUbergraph_TOOLTIP_Season_BlankNode__10</title>
<path fill="none" stroke="black" d="M2083,-329.57C2083,-322.19 2083,-312.93 2083,-302.96"/>
<polygon fill="black" stroke="black" points="2086.5,-302.98 2083,-292.98 2079.5,-302.98 2086.5,-302.98"/>
</g>
<!-- ExecuteUbergraph_TOOLTIP_Season_BlankNode__69 -->
<g id="node8" class="node">
<title>ExecuteUbergraph_TOOLTIP_Season_BlankNode__69</title>
<polygon fill="#eeeeee" stroke="black" points="2374,-202 2374,-238 2506,-238 2506,-202 2374,-202"/>
<text text-anchor="start" x="2382" y="-216.3" font-family="monospace" font-size="14.00">EX_EndOfScript</text>
</g>
<!-- PlayIntro -->
<g id="node9" class="node">
<title>PlayIntro</title>
<polygon fill="#ff8888" stroke="black" points="1587.5,-607 1587.5,-643 1752.5,-643 1752.5,-607 1587.5,-607"/>
<text text-anchor="start" x="1595.5" y="-621.3" font-family="monospace" font-size="14.00">Function PlayIntro</text>
</g>
<!-- PlayIntro__0 -->
<g id="node10" class="node">
<title>PlayIntro__0</title>
<polygon fill="#eeeeee" stroke="black" points="1257.5,-403.5 1257.5,-441.5 2082.5,-441.5 2082.5,-403.5 1257.5,-403.5"/>
<text text-anchor="start" x="1265.5" y="-426.3" font-family="monospace" font-size="14.00">EX_LocalFinalFunction export TOOLTIP_Season_BlankNode_C&#45;&gt;ExecuteUbergraph_TOOLTIP_Season_BlankNode</text>
<text text-anchor="start" x="1265.5" y="-411.3" font-family="monospace" font-size="14.00">  EX_IntConst 62</text>
</g>
<!-- PlayIntro&#45;&gt;PlayIntro__0 -->
<g id="edge5" class="edge">
<title>PlayIntro&#45;&gt;PlayIntro__0</title>
<path fill="none" stroke="black" d="M1670,-607.25C1670,-573.17 1670,-495.39 1670,-452.76"/>
<polygon fill="black" stroke="black" points="1673.5,-453 1670,-443 1666.5,-453 1673.5,-453"/>
</g>
<!-- PlayIntro__0&#45;&gt;ExecuteUbergraph_TOOLTIP_Season_BlankNode__62 -->
<g id="edge6" class="edge">
<title>PlayIntro__0:e&#45;&gt;ExecuteUbergraph_TOOLTIP_Season_BlankNode__62</title>
<path fill="none" stroke="red" d="M2084,-422.5C2103.28,-422.5 2099.62,-397.08 2093.28,-376.04"/>
<polygon fill="none" stroke="red" points="2096.66,-375.12 2090.2,-366.73 2090.02,-377.32 2096.66,-375.12"/>
</g>
<!-- PlayIntro__15 -->
<g id="node11" class="node">
<title>PlayIntro__15</title>
<polygon fill="#eeeeee" stroke="black" points="1612,-328.5 1612,-366.5 1728,-366.5 1728,-328.5 1612,-328.5"/>
<text text-anchor="start" x="1620" y="-351.3" font-family="monospace" font-size="14.00">EX_Return</text>
<text text-anchor="start" x="1620" y="-336.3" font-family="monospace" font-size="14.00">  EX_Nothing</text>
</g>
<!-- PlayIntro__0&#45;&gt;PlayIntro__15 -->
<g id="edge7" class="edge">
<title>PlayIntro__0&#45;&gt;PlayIntro__15</title>
<path fill="none" stroke="black" d="M1670,-403.83C1670,-396 1670,-386.57 1670,-377.74"/>
<polygon fill="black" stroke="black" points="1673.5,-377.78 1670,-367.78 1666.5,-377.78 1673.5,-377.78"/>
</g>
<!-- PlayIntro__17 -->
<g id="node12" class="node">
<title>PlayIntro__17</title>
<polygon fill="#eeeeee" stroke="black" points="2151,-75.5 2151,-111.5 2283,-111.5 2283,-75.5 2151,-75.5"/>
<text text-anchor="start" x="2159" y="-89.8" font-family="monospace" font-size="14.00">EX_EndOfScript</text>
</g>
</g>
</svg>
