<?xml version="1.0" encoding="UTF-8" standalone="no"?>
<!DOCTYPE svg PUBLIC "-//W3C//DTD SVG 1.1//EN"
 "http://www.w3.org/Graphics/SVG/1.1/DTD/svg11.dtd">
<!-- Generated by graphviz version 7.0.1 (0)
 -->
<!-- Pages: 1 -->
<svg width="3758pt" height="690pt"
 viewBox="0.00 0.00 3758.00 690.00" xmlns="http://www.w3.org/2000/svg" xmlns:xlink="http://www.w3.org/1999/xlink">
<g id="graph0" class="graph" transform="scale(1 1) rotate(0) translate(4 686)">
<polygon fill="white" stroke="none" points="-4,4 -4,-686 3754,-686 3754,4 -4,4"/>
<!-- BP_Mactera_Heavy_ProjectileAttack_C -->
<g id="node1" class="node">
<title>BP_Mactera_Heavy_ProjectileAttack_C</title>
<polygon fill="#88ff88" stroke="black" points="0,-538.5 0,-681.5 520,-681.5 520,-538.5 0,-538.5"/>
<text text-anchor="start" x="8" y="-666.3" font-family="monospace" font-size="14.00">ClassExport: BP_Mactera_Heavy_ProjectileAttack_C</text>
<text text-anchor="start" x="8" y="-651.3" font-family="monospace" font-size="14.00">  SuperStruct: import /Script/FSD&#45;&gt;ProjectileAttackComponent</text>
<text text-anchor="start" x="8" y="-636.3" font-family="monospace" font-size="14.00">  Properties:</text>
<text text-anchor="start" x="8" y="-621.3" font-family="monospace" font-size="14.00">    StructProperty UberGraphFrame</text>
<text text-anchor="start" x="8" y="-606.3" font-family="monospace" font-size="14.00">      CPF_Transient|CPF_DuplicateTransient</text>
<text text-anchor="start" x="8" y="-591.3" font-family="monospace" font-size="14.00">    ObjectProperty BrokenAmorMontage</text>
<text text-anchor="start" x="8" y="-576.3" font-family="monospace" font-size="14.00">      CPF_Edit|CPF_BlueprintVisible|CPF_DisableEditOnInstance</text>
<text text-anchor="start" x="8" y="-561.3" font-family="monospace" font-size="14.00">    BoolProperty ArmorBroken</text>
<text text-anchor="start" x="8" y="-546.3" font-family="monospace" font-size="14.00">      CPF_Edit|CPF_BlueprintVisible|CPF_DisableEditOnInstance</text>
</g>
<!-- ExecuteUbergraph_BP_Mactera_Heavy_ProjectileAttack -->
<g id="node2" class="node">
<title>ExecuteUbergraph_BP_Mactera_Heavy_ProjectileAttack</title>
<polygon fill="#ff8888" stroke="black" points="538.5,-583.5 538.5,-636.5 1041.5,-636.5 1041.5,-583.5 538.5,-583.5"/>
<text text-anchor="start" x="546.5" y="-621.3" font-family="monospace" font-size="14.00">Function ExecuteUbergraph_BP_Mactera_Heavy_ProjectileAttack</text>
<text text-anchor="start" x="546.5" y="-606.3" font-family="monospace" font-size="14.00">  IntProperty EntryPoint</text>
<text text-anchor="start" x="546.5" y="-591.3" font-family="monospace" font-size="14.00">    CPF_BlueprintVisible|CPF_BlueprintReadOnly|CPF_Parm</text>
</g>
<!-- ExecuteUbergraph_BP_Mactera_Heavy_ProjectileAttack__0 -->
<g id="node3" class="node">
<title>ExecuteUbergraph_BP_Mactera_Heavy_ProjectileAttack__0</title>
<polygon fill="#eeeeee" stroke="black" points="654,-419 654,-457 926,-457 926,-419 654,-419"/>
<text text-anchor="start" x="662" y="-441.8" font-family="monospace" font-size="14.00">EX_ComputedJump</text>
<text text-anchor="start" x="662" y="-426.8" font-family="monospace" font-size="14.00">  EX_LocalVariable [EntryPoint]</text>
</g>
<!-- ExecuteUbergraph_BP_Mactera_Heavy_ProjectileAttack&#45;&gt;ExecuteUbergraph_BP_Mactera_Heavy_ProjectileAttack__0 -->
<g id="edge1" class="edge">
<title>ExecuteUbergraph_BP_Mactera_Heavy_ProjectileAttack&#45;&gt;ExecuteUbergraph_BP_Mactera_Heavy_ProjectileAttack__0</title>
<path fill="none" stroke="black" d="M790,-583.55C790,-552.67 790,-500.71 790,-468.22"/>
<polygon fill="black" stroke="black" points="793.5,-468.32 790,-458.32 786.5,-468.32 793.5,-468.32"/>
</g>
<!-- ExecuteUbergraph_BP_Mactera_Heavy_ProjectileAttack__10 -->
<g id="node4" class="node">
<title>ExecuteUbergraph_BP_Mactera_Heavy_ProjectileAttack__10</title>
<polygon fill="#eeeeee" stroke="black" points="1860,-284.5 1860,-322.5 1976,-322.5 1976,-284.5 1860,-284.5"/>
<text text-anchor="start" x="1868" y="-307.3" font-family="monospace" font-size="14.00">EX_Return</text>
<text text-anchor="start" x="1868" y="-292.3" font-family="monospace" font-size="14.00">  EX_Nothing</text>
</g>
<!-- ExecuteUbergraph_BP_Mactera_Heavy_ProjectileAttack__12 -->
<g id="node5" class="node">
<title>ExecuteUbergraph_BP_Mactera_Heavy_ProjectileAttack__12</title>
<polygon fill="#eeeeee" stroke="black" points="1736,-483.5 1736,-519.5 1868,-519.5 1868,-483.5 1736,-483.5"/>
<text text-anchor="start" x="1744" y="-497.8" font-family="monospace" font-size="14.00">EX_EndOfScript</text>
</g>
<!-- ReceiveBeginPlay -->
<g id="node6" class="node">
<title>ReceiveBeginPlay</title>
<polygon fill="#ff8888" stroke="black" points="1319.5,-592 1319.5,-628 1542.5,-628 1542.5,-592 1319.5,-592"/>
<text text-anchor="start" x="1327.5" y="-606.3" font-family="monospace" font-size="14.00">Function ReceiveBeginPlay</text>
</g>
<!-- ReceiveBeginPlay__0 -->
<g id="node7" class="node">
<title>ReceiveBeginPlay__0</title>
<polygon fill="#eeeeee" stroke="black" points="944,-419 944,-457 1918,-457 1918,-419 944,-419"/>
<text text-anchor="start" x="952" y="-441.8" font-family="monospace" font-size="14.00">EX_LocalFinalFunction export BP_Mactera_Heavy_ProjectileAttack_C&#45;&gt;ExecuteUbergraph_BP_Mactera_Heavy_ProjectileAttack</text>
<text text-anchor="start" x="952" y="-426.8" font-family="monospace" font-size="14.00">  EX_IntConst 10</text>
</g>
<!-- ReceiveBeginPlay&#45;&gt;ReceiveBeginPlay__0 -->
<g id="edge2" class="edge">
<title>ReceiveBeginPlay&#45;&gt;ReceiveBeginPlay__0</title>
<path fill="none" stroke="black" d="M1431,-592.08C1431,-563.1 1431,-503.67 1431,-467.99"/>
<polygon fill="black" stroke="black" points="1434.5,-468.39 1431,-458.39 1427.5,-468.39 1434.5,-468.39"/>
</g>
<!-- ReceiveBeginPlay__0&#45;&gt;ExecuteUbergraph_BP_Mactera_Heavy_ProjectileAttack__10 -->
<g id="edge3" class="edge">
<title>ReceiveBeginPlay__0:e&#45;&gt;ExecuteUbergraph_BP_Mactera_Heavy_ProjectileAttack__10</title>
<path fill="none" stroke="red" d="M1919,-438C1960.66,-438 1943.32,-372.18 1929.3,-332.97"/>
<polygon fill="none" stroke="red" points="1932.6,-331.8 1925.83,-323.65 1926.04,-334.24 1932.6,-331.8"/>
</g>
<!-- ReceiveBeginPlay__15 -->
<g id="node8" class="node">
<title>ReceiveBeginPlay__15</title>
<polygon fill="#eeeeee" stroke="black" points="1373,-284.5 1373,-322.5 1489,-322.5 1489,-284.5 1373,-284.5"/>
<text text-anchor="start" x="1381" y="-307.3" font-family="monospace" font-size="14.00">EX_Return</text>
<text text-anchor="start" x="1381" y="-292.3" font-family="monospace" font-size="14.00">  EX_Nothing</text>
</g>
<!-- ReceiveBeginPlay__0&#45;&gt;ReceiveBeginPlay__15 -->
<g id="edge4" class="edge">
<title>ReceiveBeginPlay__0&#45;&gt;ReceiveBeginPlay__15</title>
<path fill="none" stroke="black" d="M1431,-419.13C1431,-397.18 1431,-359.64 1431,-333.53"/>
<polygon fill="black" stroke="black" points="1434.5,-333.6 1431,-323.6 1427.5,-333.6 1434.5,-333.6"/>
</g>
<!-- ReceiveBeginPlay__17 -->
<g id="node9" class="node">
<title>ReceiveBeginPlay__17</title>
<polygon fill="#eeeeee" stroke="black" points="2024,-356.5 2024,-392.5 2156,-392.5 2156,-356.5 2024,-356.5"/>
<text text-anchor="start" x="2032" y="-370.8" font-family="monospace" font-size="14.00">EX_EndOfScript</text>
</g>
<!-- SelectMontage -->
<g id="node10" class="node">
<title>SelectMontage</title>
<polygon fill="#ff8888" stroke="black" points="2052.5,-576 2052.5,-644 2489.5,-644 2489.5,-576 2052.5,-576"/>
<text text-anchor="start" x="2060.5" y="-628.8" font-family="monospace" font-size="14.00">Function SelectMontage</text>
<text text-anchor="start" x="2060.5" y="-613.8" font-family="monospace" font-size="14.00">  ObjectProperty ReturnValue</text>
<text text-anchor="start" x="2060.5" y="-598.8" font-family="monospace" font-size="14.00">    CPF_Parm|CPF_OutParm|CPF_ReturnParm</text>
<text text-anchor="start" x="2060.5" y="-583.8" font-family="monospace" font-size="14.00">  ObjectProperty CallFunc_SelectMontage_ReturnValue</text>
</g>
<!-- SelectMontage__0 -->
<g id="node11" class="node">
<title>SelectMontage__0</title>
<polygon fill="#eeeeee" stroke="black" points="2118.5,-419 2118.5,-457 2423.5,-457 2423.5,-419 2118.5,-419"/>
<text text-anchor="start" x="2126.5" y="-441.8" font-family="monospace" font-size="14.00">EX_JumpIfNot 38</text>
<text text-anchor="start" x="2126.5" y="-426.8" font-family="monospace" font-size="14.00">  EX_InstanceVariable [ArmorBroken]</text>
</g>
<!-- SelectMontage&#45;&gt;SelectMontage__0 -->
<g id="edge5" class="edge">
<title>SelectMontage&#45;&gt;SelectMontage__0</title>
<path fill="none" stroke="black" d="M2271,-576.22C2271,-544.85 2271,-497.97 2271,-467.94"/>
<polygon fill="black" stroke="black" points="2274.5,-468.09 2271,-458.09 2267.5,-468.09 2274.5,-468.09"/>
</g>
<!-- SelectMontage__14 -->
<g id="node12" class="node">
<title>SelectMontage__14</title>
<polygon fill="#eeeeee" stroke="black" points="1994.5,-269.5 1994.5,-337.5 2349.5,-337.5 2349.5,-269.5 1994.5,-269.5"/>
<text text-anchor="start" x="2002.5" y="-322.3" font-family="monospace" font-size="14.00">EX_LetObj</text>
<text text-anchor="start" x="2002.5" y="-307.3" font-family="monospace" font-size="14.00">  EX_LocalOutVariable</text>
<text text-anchor="start" x="2002.5" y="-292.3" font-family="monospace" font-size="14.00">    [ReturnValue]</text>
<text text-anchor="start" x="2002.5" y="-277.3" font-family="monospace" font-size="14.00">  EX_InstanceVariable [BrokenAmorMontage]</text>
</g>
<!-- SelectMontage__0&#45;&gt;SelectMontage__14 -->
<g id="edge7" class="edge">
<title>SelectMontage__0&#45;&gt;SelectMontage__14</title>
<path fill="none" stroke="black" d="M2257.65,-419.13C2243.8,-400.59 2221.64,-370.93 2203.33,-346.43"/>
<polygon fill="black" stroke="black" points="2206.22,-344.46 2197.43,-338.54 2200.62,-348.65 2206.22,-344.46"/>
<text text-anchor="middle" x="2245.5" y="-370.8" font-family="monospace" font-size="14.00">IF</text>
</g>
<!-- SelectMontage__38 -->
<g id="node14" class="node">
<title>SelectMontage__38</title>
<polygon fill="#eeeeee" stroke="black" points="2367.5,-277 2367.5,-330 3068.5,-330 3068.5,-277 2367.5,-277"/>
<text text-anchor="start" x="2375.5" y="-314.8" font-family="monospace" font-size="14.00">EX_LetObj</text>
<text text-anchor="start" x="2375.5" y="-299.8" font-family="monospace" font-size="14.00">  EX_LocalVariable [CallFunc_SelectMontage_ReturnValue]</text>
<text text-anchor="start" x="2375.5" y="-284.8" font-family="monospace" font-size="14.00">  EX_FinalFunction import /Script/FSD&#45;&gt;ProjectileAttackBaseComponent&#45;&gt;SelectMontage</text>
</g>
<!-- SelectMontage__0&#45;&gt;SelectMontage__38 -->
<g id="edge6" class="edge">
<title>SelectMontage__0:e&#45;&gt;SelectMontage__38</title>
<path fill="none" stroke="red" d="M2425,-438C2522.49,-438 2623.14,-376.04 2677.39,-336.54"/>
<polygon fill="none" stroke="red" points="2679.16,-339.59 2685.12,-330.82 2675,-333.96 2679.16,-339.59"/>
<text text-anchor="middle" x="2672" y="-370.8" font-family="monospace" font-size="14.00">IF NOT</text>
</g>
<!-- SelectMontage__33 -->
<g id="node13" class="node">
<title>SelectMontage__33</title>
<polygon fill="#eeeeee" stroke="black" points="2251.5,-143.5 2251.5,-179.5 2350.5,-179.5 2350.5,-143.5 2251.5,-143.5"/>
<text text-anchor="start" x="2259.5" y="-157.8" font-family="monospace" font-size="14.00">EX_Jump 77</text>
</g>
<!-- SelectMontage__14&#45;&gt;SelectMontage__33 -->
<g id="edge8" class="edge">
<title>SelectMontage__14&#45;&gt;SelectMontage__33</title>
<path fill="none" stroke="black" d="M2202.24,-269.68C2225.36,-244.59 2256.73,-210.54 2277.87,-187.61"/>
<polygon fill="black" stroke="black" points="2280.2,-190.24 2284.4,-180.52 2275.05,-185.5 2280.2,-190.24"/>
</g>
<!-- SelectMontage__77 -->
<g id="node16" class="node">
<title>SelectMontage__77</title>
<polygon fill="#eeeeee" stroke="black" points="2333,-0.5 2333,-53.5 2523,-53.5 2523,-0.5 2333,-0.5"/>
<text text-anchor="start" x="2341" y="-38.3" font-family="monospace" font-size="14.00">EX_Return</text>
<text text-anchor="start" x="2341" y="-23.3" font-family="monospace" font-size="14.00">  EX_LocalOutVariable</text>
<text text-anchor="start" x="2341" y="-8.3" font-family="monospace" font-size="14.00">    [ReturnValue]</text>
</g>
<!-- SelectMontage__33&#45;&gt;SelectMontage__77 -->
<g id="edge9" class="edge">
<title>SelectMontage__33&#45;&gt;SelectMontage__77</title>
<path fill="none" stroke="black" d="M2317.08,-143.72C2336.84,-123.11 2370.82,-87.66 2395.98,-61.41"/>
<polygon fill="black" stroke="black" points="2398.36,-63.98 2402.76,-54.34 2393.31,-59.13 2398.36,-63.98"/>
</g>
<!-- SelectMontage__58 -->
<g id="node15" class="node">
<title>SelectMontage__58</title>
<polygon fill="#eeeeee" stroke="black" points="2390,-127.5 2390,-195.5 2860,-195.5 2860,-127.5 2390,-127.5"/>
<text text-anchor="start" x="2398" y="-180.3" font-family="monospace" font-size="14.00">EX_LetObj</text>
<text text-anchor="start" x="2398" y="-165.3" font-family="monospace" font-size="14.00">  EX_LocalOutVariable</text>
<text text-anchor="start" x="2398" y="-150.3" font-family="monospace" font-size="14.00">    [ReturnValue]</text>
<text text-anchor="start" x="2398" y="-135.3" font-family="monospace" font-size="14.00">  EX_LocalVariable [CallFunc_SelectMontage_ReturnValue]</text>
</g>
<!-- SelectMontage__38&#45;&gt;SelectMontage__58 -->
<g id="edge10" class="edge">
<title>SelectMontage__38&#45;&gt;SelectMontage__58</title>
<path fill="none" stroke="black" d="M2701.16,-277.15C2687.77,-256.99 2668.75,-228.37 2653.07,-204.76"/>
<polygon fill="black" stroke="black" points="2656.09,-202.98 2647.64,-196.59 2650.26,-206.85 2656.09,-202.98"/>
</g>
<!-- SelectMontage__58&#45;&gt;SelectMontage__77 -->
<g id="edge11" class="edge">
<title>SelectMontage__58&#45;&gt;SelectMontage__77</title>
<path fill="none" stroke="black" d="M2576.05,-127.58C2545.31,-106.9 2505.85,-80.36 2475.41,-59.88"/>
<polygon fill="black" stroke="black" points="2477.37,-56.99 2467.12,-54.31 2473.46,-62.79 2477.37,-56.99"/>
</g>
<!-- SelectMontage__87 -->
<g id="node17" class="node">
<title>SelectMontage__87</title>
<polygon fill="#eeeeee" stroke="black" points="2920,-214.5 2920,-250.5 3052,-250.5 3052,-214.5 2920,-214.5"/>
<text text-anchor="start" x="2928" y="-228.8" font-family="monospace" font-size="14.00">EX_EndOfScript</text>
</g>
<!-- SetArmorBroken -->
<g id="node18" class="node">
<title>SetArmorBroken</title>
<polygon fill="#ff8888" stroke="black" points="3109,-583.5 3109,-636.5 3579,-636.5 3579,-583.5 3109,-583.5"/>
<text text-anchor="start" x="3117" y="-621.3" font-family="monospace" font-size="14.00">Function SetArmorBroken</text>
<text text-anchor="start" x="3117" y="-606.3" font-family="monospace" font-size="14.00">  BoolProperty Broken</text>
<text text-anchor="start" x="3117" y="-591.3" font-family="monospace" font-size="14.00">    CPF_BlueprintVisible|CPF_BlueprintReadOnly|CPF_Parm</text>
</g>
<!-- SetArmorBroken__0 -->
<g id="node19" class="node">
<title>SetArmorBroken__0</title>
<polygon fill="#eeeeee" stroke="black" points="3191.5,-411.5 3191.5,-464.5 3496.5,-464.5 3496.5,-411.5 3191.5,-411.5"/>
<text text-anchor="start" x="3199.5" y="-449.3" font-family="monospace" font-size="14.00">EX_LetBool</text>
<text text-anchor="start" x="3199.5" y="-434.3" font-family="monospace" font-size="14.00">  EX_InstanceVariable [ArmorBroken]</text>
<text text-anchor="start" x="3199.5" y="-419.3" font-family="monospace" font-size="14.00">  EX_LocalVariable [Broken]</text>
</g>
<!-- SetArmorBroken&#45;&gt;SetArmorBroken__0 -->
<g id="edge12" class="edge">
<title>SetArmorBroken&#45;&gt;SetArmorBroken__0</title>
<path fill="none" stroke="black" d="M3344,-583.55C3344,-554.92 3344,-508.19 3344,-475.64"/>
<polygon fill="black" stroke="black" points="3347.5,-475.86 3344,-465.86 3340.5,-475.86 3347.5,-475.86"/>
</g>
<!-- SetArmorBroken__19 -->
<g id="node20" class="node">
<title>SetArmorBroken__19</title>
<polygon fill="#eeeeee" stroke="black" points="3191.5,-284.5 3191.5,-322.5 3496.5,-322.5 3496.5,-284.5 3191.5,-284.5"/>
<text text-anchor="start" x="3199.5" y="-307.3" font-family="monospace" font-size="14.00">EX_JumpIfNot 52</text>
<text text-anchor="start" x="3199.5" y="-292.3" font-family="monospace" font-size="14.00">  EX_InstanceVariable [ArmorBroken]</text>
</g>
<!-- SetArmorBroken__0&#45;&gt;SetArmorBroken__19 -->
<g id="edge13" class="edge">
<title>SetArmorBroken__0&#45;&gt;SetArmorBroken__19</title>
<path fill="none" stroke="black" d="M3344,-411.77C3344,-389.51 3344,-357.09 3344,-333.72"/>
<polygon fill="black" stroke="black" points="3347.5,-333.94 3344,-323.94 3340.5,-333.94 3347.5,-333.94"/>
</g>
<!-- SetArmorBroken__33 -->
<g id="node21" class="node">
<title>SetArmorBroken__33</title>
<polygon fill="#eeeeee" stroke="black" points="2889.5,-142.5 2889.5,-180.5 3566.5,-180.5 3566.5,-142.5 2889.5,-142.5"/>
<text text-anchor="start" x="2897.5" y="-165.3" font-family="monospace" font-size="14.00">EX_FinalFunction import /Script/FSD&#45;&gt;ProjectileAttackComponent&#45;&gt;AddAttackMontage</text>
<text text-anchor="start" x="2897.5" y="-150.3" font-family="monospace" font-size="14.00">  EX_InstanceVariable [BrokenAmorMontage]</text>
</g>
<!-- SetArmorBroken__19&#45;&gt;SetArmorBroken__33 -->
<g id="edge15" class="edge">
<title>SetArmorBroken__19&#45;&gt;SetArmorBroken__33</title>
<path fill="none" stroke="black" d="M3329.31,-284.77C3309.17,-260.47 3272.86,-216.65 3249.62,-188.6"/>
<polygon fill="black" stroke="black" points="3252.61,-186.72 3243.54,-181.25 3247.22,-191.19 3252.61,-186.72"/>
<text text-anchor="middle" x="3308.5" y="-228.8" font-family="monospace" font-size="14.00">IF</text>
</g>
<!-- SetArmorBroken__52 -->
<g id="node22" class="node">
<title>SetArmorBroken__52</title>
<polygon fill="#eeeeee" stroke="black" points="3445,-8 3445,-46 3561,-46 3561,-8 3445,-8"/>
<text text-anchor="start" x="3453" y="-30.8" font-family="monospace" font-size="14.00">EX_Return</text>
<text text-anchor="start" x="3453" y="-15.8" font-family="monospace" font-size="14.00">  EX_Nothing</text>
</g>
<!-- SetArmorBroken__19&#45;&gt;SetArmorBroken__52 -->
<g id="edge14" class="edge">
<title>SetArmorBroken__19:e&#45;&gt;SetArmorBroken__52</title>
<path fill="none" stroke="red" d="M3498,-303.5C3583.76,-303.5 3602.79,-208.47 3576,-127 3566.84,-99.15 3546.52,-72.71 3529.64,-54.17"/>
<polygon fill="none" stroke="red" points="3532.37,-51.96 3522.97,-47.08 3527.27,-56.76 3532.37,-51.96"/>
<text text-anchor="middle" x="3612" y="-157.8" font-family="monospace" font-size="14.00">IF NOT</text>
</g>
<!-- SetArmorBroken__33&#45;&gt;SetArmorBroken__52 -->
<g id="edge16" class="edge">
<title>SetArmorBroken__33&#45;&gt;SetArmorBroken__52</title>
<path fill="none" stroke="black" d="M3265.09,-142.63C3314.43,-118.86 3401.71,-76.81 3455.72,-50.78"/>
<polygon fill="black" stroke="black" points="3457.21,-53.95 3464.7,-46.45 3454.17,-47.64 3457.21,-53.95"/>
</g>
<!-- SetArmorBroken__54 -->
<g id="node23" class="node">
<title>SetArmorBroken__54</title>
<polygon fill="#eeeeee" stroke="black" points="3618,-72.5 3618,-108.5 3750,-108.5 3750,-72.5 3618,-72.5"/>
<text text-anchor="start" x="3626" y="-86.8" font-family="monospace" font-size="14.00">EX_EndOfScript</text>
</g>
</g>
</svg>
