<?xml version="1.0" encoding="UTF-8" standalone="no"?>
<!DOCTYPE svg PUBLIC "-//W3C//DTD SVG 1.1//EN"
 "http://www.w3.org/Graphics/SVG/1.1/DTD/svg11.dtd">
<!-- Generated by graphviz version 7.0.1 (0)
 -->
<!-- Pages: 1 -->
<svg width="2831pt" height="1177pt"
 viewBox="0.00 0.00 2830.50 1177.00" xmlns="http://www.w3.org/2000/svg" xmlns:xlink="http://www.w3.org/1999/xlink">
<g id="graph0" class="graph" transform="scale(1 1) rotate(0) translate(4 1173)">
<polygon fill="white" stroke="none" points="-4,4 -4,-1173 2826.5,-1173 2826.5,4 -4,4"/>
<!-- ENE_Mactera_Shooter_Normal_C -->
<g id="node1" class="node">
<title>ENE_Mactera_Shooter_Normal_C</title>
<polygon fill="#88ff88" stroke="black" points="0,-1055.5 0,-1168.5 891,-1168.5 891,-1055.5 0,-1055.5"/>
<text text-anchor="start" x="8" y="-1153.3" font-family="monospace" font-size="14.00">ClassExport: ENE_Mactera_Shooter_Normal_C</text>
<text text-anchor="start" x="8" y="-1138.3" font-family="monospace" font-size="14.00">  SuperStruct: import /Game/Enemies/FlyingBug/Shooter/ENE_Mactera_Shooter_Base&#45;&gt;ENE_Mactera_Shooter_Base_C</text>
<text text-anchor="start" x="8" y="-1123.3" font-family="monospace" font-size="14.00">  Properties:</text>
<text text-anchor="start" x="8" y="-1108.3" font-family="monospace" font-size="14.00">    StructProperty UberGraphFrame</text>
<text text-anchor="start" x="8" y="-1093.3" font-family="monospace" font-size="14.00">      CPF_Transient|CPF_DuplicateTransient</text>
<text text-anchor="start" x="8" y="-1078.3" font-family="monospace" font-size="14.00">    ObjectProperty ProjectileAttack</text>
<text text-anchor="start" x="8" y="-1063.3" font-family="monospace" font-size="14.00">      CPF_BlueprintVisible|CPF_InstancedReference|CPF_NonTransactional</text>
</g>
<!-- ExecuteUbergraph_ENE_Mactera_Shooter_Normal -->
<g id="node2" class="node">
<title>ExecuteUbergraph_ENE_Mactera_Shooter_Normal</title>
<polygon fill="#ff8888" stroke="black" points="909.5,-1063 909.5,-1161 1421.5,-1161 1421.5,-1063 909.5,-1063"/>
<text text-anchor="start" x="917.5" y="-1145.8" font-family="monospace" font-size="14.00">Function ExecuteUbergraph_ENE_Mactera_Shooter_Normal</text>
<text text-anchor="start" x="917.5" y="-1130.8" font-family="monospace" font-size="14.00">  IntProperty EntryPoint</text>
<text text-anchor="start" x="917.5" y="-1115.8" font-family="monospace" font-size="14.00">    CPF_BlueprintVisible|CPF_BlueprintReadOnly|CPF_Parm</text>
<text text-anchor="start" x="917.5" y="-1100.8" font-family="monospace" font-size="14.00">  BoolProperty CallFunc_HasAuthority_ReturnValue</text>
<text text-anchor="start" x="917.5" y="-1085.8" font-family="monospace" font-size="14.00">  ObjectProperty CallFunc_ReplaceAttackComponent_ReturnValue</text>
<text text-anchor="start" x="917.5" y="-1070.8" font-family="monospace" font-size="14.00">    CPF_InstancedReference</text>
</g>
<!-- ExecuteUbergraph_ENE_Mactera_Shooter_Normal__0 -->
<g id="node3" class="node">
<title>ExecuteUbergraph_ENE_Mactera_Shooter_Normal__0</title>
<polygon fill="#eeeeee" stroke="black" points="1029.5,-943.5 1029.5,-981.5 1301.5,-981.5 1301.5,-943.5 1029.5,-943.5"/>
<text text-anchor="start" x="1037.5" y="-966.3" font-family="monospace" font-size="14.00">EX_ComputedJump</text>
<text text-anchor="start" x="1037.5" y="-951.3" font-family="monospace" font-size="14.00">  EX_LocalVariable [EntryPoint]</text>
</g>
<!-- ExecuteUbergraph_ENE_Mactera_Shooter_Normal&#45;&gt;ExecuteUbergraph_ENE_Mactera_Shooter_Normal__0 -->
<g id="edge1" class="edge">
<title>ExecuteUbergraph_ENE_Mactera_Shooter_Normal&#45;&gt;ExecuteUbergraph_ENE_Mactera_Shooter_Normal__0</title>
<path fill="none" stroke="black" d="M1165.5,-1063.11C1165.5,-1039.98 1165.5,-1012.97 1165.5,-992.91"/>
<polygon fill="black" stroke="black" points="1169,-992.94 1165.5,-982.94 1162,-992.94 1169,-992.94"/>
</g>
<!-- ExecuteUbergraph_ENE_Mactera_Shooter_Normal__10 -->
<g id="node4" class="node">
<title>ExecuteUbergraph_ENE_Mactera_Shooter_Normal__10</title>
<polygon fill="#eeeeee" stroke="black" points="1782.5,-832.5 1782.5,-868.5 2822.5,-868.5 2822.5,-832.5 1782.5,-832.5"/>
<text text-anchor="start" x="1790.5" y="-846.8" font-family="monospace" font-size="14.00">EX_LocalFinalFunction import /Game/Enemies/FlyingBug/Shooter/ENE_Mactera_Shooter_Base&#45;&gt;ENE_Mactera_Shooter_Base_C&#45;&gt;MakeElite</text>
</g>
<!-- ExecuteUbergraph_ENE_Mactera_Shooter_Normal__20 -->
<g id="node5" class="node">
<title>ExecuteUbergraph_ENE_Mactera_Shooter_Normal__20</title>
<polygon fill="#eeeeee" stroke="black" points="2112.5,-695.5 2112.5,-793.5 2492.5,-793.5 2492.5,-695.5 2112.5,-695.5"/>
<text text-anchor="start" x="2120.5" y="-778.3" font-family="monospace" font-size="14.00">EX_Let</text>
<text text-anchor="start" x="2120.5" y="-763.3" font-family="monospace" font-size="14.00">  EX_Context</text>
<text text-anchor="start" x="2120.5" y="-748.3" font-family="monospace" font-size="14.00">    EX_InstanceVariable [DashPoints]</text>
<text text-anchor="start" x="2120.5" y="-733.3" font-family="monospace" font-size="14.00">    EX_InstanceVariable [MinRangeFromPlayer]</text>
<text text-anchor="start" x="2120.5" y="-718.3" font-family="monospace" font-size="14.00">    RValue = [MinRangeFromPlayer]</text>
<text text-anchor="start" x="2120.5" y="-703.3" font-family="monospace" font-size="14.00">  EX_FloatConst 2000</text>
</g>
<!-- ExecuteUbergraph_ENE_Mactera_Shooter_Normal__10&#45;&gt;ExecuteUbergraph_ENE_Mactera_Shooter_Normal__20 -->
<g id="edge2" class="edge">
<title>ExecuteUbergraph_ENE_Mactera_Shooter_Normal__10&#45;&gt;ExecuteUbergraph_ENE_Mactera_Shooter_Normal__20</title>
<path fill="none" stroke="black" d="M2302.5,-832.79C2302.5,-824.86 2302.5,-814.86 2302.5,-804.49"/>
<polygon fill="black" stroke="black" points="2306,-804.67 2302.5,-794.67 2299,-804.67 2306,-804.67"/>
</g>
<!-- ExecuteUbergraph_ENE_Mactera_Shooter_Normal__65 -->
<g id="node6" class="node">
<title>ExecuteUbergraph_ENE_Mactera_Shooter_Normal__65</title>
<polygon fill="#eeeeee" stroke="black" points="2112.5,-559.5 2112.5,-657.5 2492.5,-657.5 2492.5,-559.5 2112.5,-559.5"/>
<text text-anchor="start" x="2120.5" y="-642.3" font-family="monospace" font-size="14.00">EX_Let</text>
<text text-anchor="start" x="2120.5" y="-627.3" font-family="monospace" font-size="14.00">  EX_Context</text>
<text text-anchor="start" x="2120.5" y="-612.3" font-family="monospace" font-size="14.00">    EX_InstanceVariable [DashPoints]</text>
<text text-anchor="start" x="2120.5" y="-597.3" font-family="monospace" font-size="14.00">    EX_InstanceVariable [MinRangeFromPlayer]</text>
<text text-anchor="start" x="2120.5" y="-582.3" font-family="monospace" font-size="14.00">    RValue = [MinRangeFromPlayer]</text>
<text text-anchor="start" x="2120.5" y="-567.3" font-family="monospace" font-size="14.00">  EX_FloatConst 5000</text>
</g>
<!-- ExecuteUbergraph_ENE_Mactera_Shooter_Normal__20&#45;&gt;ExecuteUbergraph_ENE_Mactera_Shooter_Normal__65 -->
<g id="edge3" class="edge">
<title>ExecuteUbergraph_ENE_Mactera_Shooter_Normal__20&#45;&gt;ExecuteUbergraph_ENE_Mactera_Shooter_Normal__65</title>
<path fill="none" stroke="black" d="M2302.5,-695.5C2302.5,-686.74 2302.5,-677.5 2302.5,-668.46"/>
<polygon fill="black" stroke="black" points="2306,-668.68 2302.5,-658.68 2299,-668.68 2306,-668.68"/>
</g>
<!-- ExecuteUbergraph_ENE_Mactera_Shooter_Normal__110 -->
<g id="node7" class="node">
<title>ExecuteUbergraph_ENE_Mactera_Shooter_Normal__110</title>
<polygon fill="#eeeeee" stroke="black" points="2145.5,-423.5 2145.5,-521.5 2459.5,-521.5 2459.5,-423.5 2145.5,-423.5"/>
<text text-anchor="start" x="2153.5" y="-506.3" font-family="monospace" font-size="14.00">EX_Let</text>
<text text-anchor="start" x="2153.5" y="-491.3" font-family="monospace" font-size="14.00">  EX_Context</text>
<text text-anchor="start" x="2153.5" y="-476.3" font-family="monospace" font-size="14.00">    EX_InstanceVariable [DashPoints]</text>
<text text-anchor="start" x="2153.5" y="-461.3" font-family="monospace" font-size="14.00">    EX_InstanceVariable [DashSpeed]</text>
<text text-anchor="start" x="2153.5" y="-446.3" font-family="monospace" font-size="14.00">    RValue = [DashSpeed]</text>
<text text-anchor="start" x="2153.5" y="-431.3" font-family="monospace" font-size="14.00">  EX_FloatConst 1600</text>
</g>
<!-- ExecuteUbergraph_ENE_Mactera_Shooter_Normal__65&#45;&gt;ExecuteUbergraph_ENE_Mactera_Shooter_Normal__110 -->
<g id="edge4" class="edge">
<title>ExecuteUbergraph_ENE_Mactera_Shooter_Normal__65&#45;&gt;ExecuteUbergraph_ENE_Mactera_Shooter_Normal__110</title>
<path fill="none" stroke="black" d="M2302.5,-559.5C2302.5,-550.74 2302.5,-541.5 2302.5,-532.46"/>
<polygon fill="black" stroke="black" points="2306,-532.68 2302.5,-522.68 2299,-532.68 2306,-532.68"/>
</g>
<!-- ExecuteUbergraph_ENE_Mactera_Shooter_Normal__155 -->
<g id="node8" class="node">
<title>ExecuteUbergraph_ENE_Mactera_Shooter_Normal__155</title>
<polygon fill="#eeeeee" stroke="black" points="2042.5,-332.5 2042.5,-385.5 2562.5,-385.5 2562.5,-332.5 2042.5,-332.5"/>
<text text-anchor="start" x="2050.5" y="-370.3" font-family="monospace" font-size="14.00">EX_LetBool</text>
<text text-anchor="start" x="2050.5" y="-355.3" font-family="monospace" font-size="14.00">  EX_LocalVariable [CallFunc_HasAuthority_ReturnValue]</text>
<text text-anchor="start" x="2050.5" y="-340.3" font-family="monospace" font-size="14.00">  EX_FinalFunction import /Script/Engine&#45;&gt;Actor&#45;&gt;HasAuthority</text>
</g>
<!-- ExecuteUbergraph_ENE_Mactera_Shooter_Normal__110&#45;&gt;ExecuteUbergraph_ENE_Mactera_Shooter_Normal__155 -->
<g id="edge5" class="edge">
<title>ExecuteUbergraph_ENE_Mactera_Shooter_Normal__110&#45;&gt;ExecuteUbergraph_ENE_Mactera_Shooter_Normal__155</title>
<path fill="none" stroke="black" d="M2302.5,-423.57C2302.5,-414.66 2302.5,-405.48 2302.5,-396.97"/>
<polygon fill="black" stroke="black" points="2306,-396.98 2302.5,-386.98 2299,-396.98 2306,-396.98"/>
</g>
<!-- ExecuteUbergraph_ENE_Mactera_Shooter_Normal__175 -->
<g id="node9" class="node">
<title>ExecuteUbergraph_ENE_Mactera_Shooter_Normal__175</title>
<polygon fill="#eeeeee" stroke="black" points="2071.5,-256.5 2071.5,-294.5 2533.5,-294.5 2533.5,-256.5 2071.5,-256.5"/>
<text text-anchor="start" x="2079.5" y="-279.3" font-family="monospace" font-size="14.00">EX_JumpIfNot 249</text>
<text text-anchor="start" x="2079.5" y="-264.3" font-family="monospace" font-size="14.00">  EX_LocalVariable [CallFunc_HasAuthority_ReturnValue]</text>
</g>
<!-- ExecuteUbergraph_ENE_Mactera_Shooter_Normal__155&#45;&gt;ExecuteUbergraph_ENE_Mactera_Shooter_Normal__175 -->
<g id="edge6" class="edge">
<title>ExecuteUbergraph_ENE_Mactera_Shooter_Normal__155&#45;&gt;ExecuteUbergraph_ENE_Mactera_Shooter_Normal__175</title>
<path fill="none" stroke="black" d="M2302.5,-332.66C2302.5,-324.11 2302.5,-314.51 2302.5,-305.69"/>
<polygon fill="black" stroke="black" points="2306,-305.84 2302.5,-295.84 2299,-305.84 2306,-305.84"/>
</g>
<!-- ExecuteUbergraph_ENE_Mactera_Shooter_Normal__189 -->
<g id="node10" class="node">
<title>ExecuteUbergraph_ENE_Mactera_Shooter_Normal__189</title>
<polygon fill="#eeeeee" stroke="black" points="1524.5,-76.5 1524.5,-204.5 2580.5,-204.5 2580.5,-76.5 1524.5,-76.5"/>
<text text-anchor="start" x="1532.5" y="-189.3" font-family="monospace" font-size="14.00">EX_LetObj</text>
<text text-anchor="start" x="1532.5" y="-174.3" font-family="monospace" font-size="14.00">  EX_LocalVariable [CallFunc_ReplaceAttackComponent_ReturnValue]</text>
<text text-anchor="start" x="1532.5" y="-159.3" font-family="monospace" font-size="14.00">  EX_Context</text>
<text text-anchor="start" x="1532.5" y="-144.3" font-family="monospace" font-size="14.00">    EX_InstanceVariable [ProjectileAttack]</text>
<text text-anchor="start" x="1532.5" y="-129.3" font-family="monospace" font-size="14.00">    EX_FinalFunction import /Script/FSD&#45;&gt;AttackBaseComponent&#45;&gt;ReplaceAttackComponent</text>
<text text-anchor="start" x="1532.5" y="-114.3" font-family="monospace" font-size="14.00">      EX_InstanceVariable [ProjectileAttack]</text>
<text text-anchor="start" x="1532.5" y="-99.3" font-family="monospace" font-size="14.00">      EX_ObjectConst import /Game/Enemies/FlyingBug/Shooter/BP_Mactera_Shooter_Attack_Elite&#45;&gt;BP_Mactera_Shooter_Attack_Elite_C</text>
<text text-anchor="start" x="1532.5" y="-84.3" font-family="monospace" font-size="14.00">    RValue = [CallFunc_ReplaceAttackComponent_ReturnValue]</text>
</g>
<!-- ExecuteUbergraph_ENE_Mactera_Shooter_Normal__175&#45;&gt;ExecuteUbergraph_ENE_Mactera_Shooter_Normal__189 -->
<g id="edge8" class="edge">
<title>ExecuteUbergraph_ENE_Mactera_Shooter_Normal__175&#45;&gt;ExecuteUbergraph_ENE_Mactera_Shooter_Normal__189</title>
<path fill="none" stroke="black" d="M2268.78,-256.56C2245.65,-244.26 2213.35,-227.07 2180.76,-209.73"/>
<polygon fill="black" stroke="black" points="2182.45,-206.67 2171.98,-205.06 2179.16,-212.85 2182.45,-206.67"/>
<text text-anchor="middle" x="2238" y="-226.8" font-family="monospace" font-size="14.00">IF</text>
</g>
<!-- ExecuteUbergraph_ENE_Mactera_Shooter_Normal__249 -->
<g id="node11" class="node">
<title>ExecuteUbergraph_ENE_Mactera_Shooter_Normal__249</title>
<polygon fill="#eeeeee" stroke="black" points="2276.5,-0.5 2276.5,-38.5 2392.5,-38.5 2392.5,-0.5 2276.5,-0.5"/>
<text text-anchor="start" x="2284.5" y="-23.3" font-family="monospace" font-size="14.00">EX_Return</text>
<text text-anchor="start" x="2284.5" y="-8.3" font-family="monospace" font-size="14.00">  EX_Nothing</text>
</g>
<!-- ExecuteUbergraph_ENE_Mactera_Shooter_Normal__175&#45;&gt;ExecuteUbergraph_ENE_Mactera_Shooter_Normal__249 -->
<g id="edge7" class="edge">
<title>ExecuteUbergraph_ENE_Mactera_Shooter_Normal__175:e&#45;&gt;ExecuteUbergraph_ENE_Mactera_Shooter_Normal__249</title>
<path fill="none" stroke="red" d="M2534.5,-275.5C2626.47,-275.5 2647.21,-147.62 2589.5,-76 2566.56,-47.53 2471.17,-32.9 2403.82,-25.97"/>
<polygon fill="none" stroke="red" points="2404.23,-22.49 2393.93,-24.99 2403.54,-29.46 2404.23,-22.49"/>
<text text-anchor="middle" x="2647.5" y="-136.8" font-family="monospace" font-size="14.00">IF NOT</text>
</g>
<!-- ExecuteUbergraph_ENE_Mactera_Shooter_Normal__189&#45;&gt;ExecuteUbergraph_ENE_Mactera_Shooter_Normal__249 -->
<g id="edge9" class="edge">
<title>ExecuteUbergraph_ENE_Mactera_Shooter_Normal__189&#45;&gt;ExecuteUbergraph_ENE_Mactera_Shooter_Normal__249</title>
<path fill="none" stroke="black" d="M2201.76,-76.52C2230.38,-64.44 2258.56,-52.55 2281.53,-42.85"/>
<polygon fill="black" stroke="black" points="2282.79,-46.12 2290.64,-39.01 2280.07,-39.67 2282.79,-46.12"/>
</g>
<!-- ExecuteUbergraph_ENE_Mactera_Shooter_Normal__251 -->
<g id="node12" class="node">
<title>ExecuteUbergraph_ENE_Mactera_Shooter_Normal__251</title>
<polygon fill="#eeeeee" stroke="black" points="1763.5,-1000.5 1763.5,-1036.5 1895.5,-1036.5 1895.5,-1000.5 1763.5,-1000.5"/>
<text text-anchor="start" x="1771.5" y="-1014.8" font-family="monospace" font-size="14.00">EX_EndOfScript</text>
</g>
<!-- MakeElite -->
<g id="node13" class="node">
<title>MakeElite</title>
<polygon fill="#ff8888" stroke="black" points="1666,-1094 1666,-1130 1831,-1130 1831,-1094 1666,-1094"/>
<text text-anchor="start" x="1674" y="-1108.3" font-family="monospace" font-size="14.00">Function MakeElite</text>
</g>
<!-- MakeElite__0 -->
<g id="node14" class="node">
<title>MakeElite__0</title>
<polygon fill="#eeeeee" stroke="black" points="1319.5,-943.5 1319.5,-981.5 2177.5,-981.5 2177.5,-943.5 1319.5,-943.5"/>
<text text-anchor="start" x="1327.5" y="-966.3" font-family="monospace" font-size="14.00">EX_LocalFinalFunction export ENE_Mactera_Shooter_Normal_C&#45;&gt;ExecuteUbergraph_ENE_Mactera_Shooter_Normal</text>
<text text-anchor="start" x="1327.5" y="-951.3" font-family="monospace" font-size="14.00">  EX_IntConst 10</text>
</g>
<!-- MakeElite&#45;&gt;MakeElite__0 -->
<g id="edge10" class="edge">
<title>MakeElite&#45;&gt;MakeElite__0</title>
<path fill="none" stroke="black" d="M1748.5,-1094.08C1748.5,-1069.34 1748.5,-1022.95 1748.5,-992.65"/>
<polygon fill="black" stroke="black" points="1752,-992.65 1748.5,-982.65 1745,-992.65 1752,-992.65"/>
</g>
<!-- MakeElite__0&#45;&gt;ExecuteUbergraph_ENE_Mactera_Shooter_Normal__10 -->
<g id="edge11" class="edge">
<title>MakeElite__0:e&#45;&gt;ExecuteUbergraph_ENE_Mactera_Shooter_Normal__10</title>
<path fill="none" stroke="red" d="M2178.5,-962.5C2203.99,-962.5 2253.23,-909.79 2281.39,-877.01"/>
<polygon fill="none" stroke="red" points="2283.95,-879.4 2287.75,-869.51 2278.61,-874.87 2283.95,-879.4"/>
</g>
<!-- MakeElite__15 -->
<g id="node15" class="node">
<title>MakeElite__15</title>
<polygon fill="#eeeeee" stroke="black" points="1648.5,-831.5 1648.5,-869.5 1764.5,-869.5 1764.5,-831.5 1648.5,-831.5"/>
<text text-anchor="start" x="1656.5" y="-854.3" font-family="monospace" font-size="14.00">EX_Return</text>
<text text-anchor="start" x="1656.5" y="-839.3" font-family="monospace" font-size="14.00">  EX_Nothing</text>
</g>
<!-- MakeElite__0&#45;&gt;MakeElite__15 -->
<g id="edge12" class="edge">
<title>MakeElite__0&#45;&gt;MakeElite__15</title>
<path fill="none" stroke="black" d="M1741.75,-943.83C1735.21,-926.69 1725.17,-900.4 1717.48,-880.25"/>
<polygon fill="black" stroke="black" points="1720.75,-879 1713.91,-870.91 1714.21,-881.5 1720.75,-879"/>
</g>
<!-- MakeElite__17 -->
<g id="node16" class="node">
<title>MakeElite__17</title>
<polygon fill="#eeeeee" stroke="black" points="2275.5,-888.5 2275.5,-924.5 2407.5,-924.5 2407.5,-888.5 2275.5,-888.5"/>
<text text-anchor="start" x="2283.5" y="-902.8" font-family="monospace" font-size="14.00">EX_EndOfScript</text>
</g>
</g>
</svg>
