<?xml version="1.0" encoding="UTF-8" standalone="no"?>
<!DOCTYPE svg PUBLIC "-//W3C//DTD SVG 1.1//EN"
 "http://www.w3.org/Graphics/SVG/1.1/DTD/svg11.dtd">
<!-- Generated by graphviz version 7.0.1 (0)
 -->
<!-- Pages: 1 -->
<svg width="5824pt" height="1392pt"
 viewBox="0.00 0.00 5824.00 1392.00" xmlns="http://www.w3.org/2000/svg" xmlns:xlink="http://www.w3.org/1999/xlink">
<g id="graph0" class="graph" transform="scale(1 1) rotate(0) translate(4 1388)">
<polygon fill="white" stroke="none" points="-4,4 -4,-1388 5820,-1388 5820,4 -4,4"/>
<!-- BP_SpecialTutorialCrystal_C -->
<g id="node1" class="node">
<title>BP_SpecialTutorialCrystal_C</title>
<polygon fill="#88ff88" stroke="black" points="0,-1090.5 0,-1383.5 644,-1383.5 644,-1090.5 0,-1090.5"/>
<text text-anchor="start" x="8" y="-1368.3" font-family="monospace" font-size="14.00">ClassExport: BP_SpecialTutorialCrystal_C</text>
<text text-anchor="start" x="8" y="-1353.3" font-family="monospace" font-size="14.00">  SuperStruct: import /Script/Engine&#45;&gt;Actor</text>
<text text-anchor="start" x="8" y="-1338.3" font-family="monospace" font-size="14.00">  Properties:</text>
<text text-anchor="start" x="8" y="-1323.3" font-family="monospace" font-size="14.00">    StructProperty UberGraphFrame</text>
<text text-anchor="start" x="8" y="-1308.3" font-family="monospace" font-size="14.00">      CPF_Transient|CPF_DuplicateTransient</text>
<text text-anchor="start" x="8" y="-1293.3" font-family="monospace" font-size="14.00">    ObjectProperty TerrainDetect</text>
<text text-anchor="start" x="8" y="-1278.3" font-family="monospace" font-size="14.00">      CPF_BlueprintVisible|CPF_InstancedReference|CPF_NonTransactional</text>
<text text-anchor="start" x="8" y="-1263.3" font-family="monospace" font-size="14.00">    ObjectProperty MeshCarver</text>
<text text-anchor="start" x="8" y="-1248.3" font-family="monospace" font-size="14.00">      CPF_BlueprintVisible|CPF_InstancedReference|CPF_NonTransactional</text>
<text text-anchor="start" x="8" y="-1233.3" font-family="monospace" font-size="14.00">    ObjectProperty PointLight</text>
<text text-anchor="start" x="8" y="-1218.3" font-family="monospace" font-size="14.00">      CPF_BlueprintVisible|CPF_InstancedReference|CPF_NonTransactional</text>
<text text-anchor="start" x="8" y="-1203.3" font-family="monospace" font-size="14.00">    ObjectProperty DefaultSceneRoot</text>
<text text-anchor="start" x="8" y="-1188.3" font-family="monospace" font-size="14.00">      CPF_BlueprintVisible|CPF_InstancedReference|CPF_NonTransactional</text>
<text text-anchor="start" x="8" y="-1173.3" font-family="monospace" font-size="14.00">    FloatProperty Timeline_0_LightIntensity_CD888BD245F644A958710A8BA8A62D72</text>
<text text-anchor="start" x="8" y="-1158.3" font-family="monospace" font-size="14.00">    ByteProperty Timeline_0__Direction_CD888BD245F644A958710A8BA8A62D72</text>
<text text-anchor="start" x="8" y="-1143.3" font-family="monospace" font-size="14.00">    ObjectProperty Timeline_0</text>
<text text-anchor="start" x="8" y="-1128.3" font-family="monospace" font-size="14.00">      CPF_BlueprintVisible|CPF_InstancedReference</text>
<text text-anchor="start" x="8" y="-1113.3" font-family="monospace" font-size="14.00">    FloatProperty InitialIntensity</text>
<text text-anchor="start" x="8" y="-1098.3" font-family="monospace" font-size="14.00">      CPF_Edit|CPF_BlueprintVisible|CPF_DisableEditOnInstance</text>
</g>
<!-- ExecuteUbergraph_BP_SpecialTutorialCrystal -->
<g id="node2" class="node">
<title>ExecuteUbergraph_BP_SpecialTutorialCrystal</title>
<polygon fill="#ff8888" stroke="black" points="662.5,-1173 662.5,-1301 1141.5,-1301 1141.5,-1173 662.5,-1173"/>
<text text-anchor="start" x="670.5" y="-1285.8" font-family="monospace" font-size="14.00">Function ExecuteUbergraph_BP_SpecialTutorialCrystal</text>
<text text-anchor="start" x="670.5" y="-1270.8" font-family="monospace" font-size="14.00">  IntProperty EntryPoint</text>
<text text-anchor="start" x="670.5" y="-1255.8" font-family="monospace" font-size="14.00">    CPF_BlueprintVisible|CPF_BlueprintReadOnly|CPF_Parm</text>
<text text-anchor="start" x="670.5" y="-1240.8" font-family="monospace" font-size="14.00">  DelegateProperty K2Node_CreateDelegate_OutputDelegate</text>
<text text-anchor="start" x="670.5" y="-1225.8" font-family="monospace" font-size="14.00">  ObjectProperty CallFunc_GetFSDGameState_ReturnValue</text>
<text text-anchor="start" x="670.5" y="-1210.8" font-family="monospace" font-size="14.00">  ObjectProperty K2Node_ComponentBoundEvent_point</text>
<text text-anchor="start" x="670.5" y="-1195.8" font-family="monospace" font-size="14.00">    CPF_InstancedReference</text>
<text text-anchor="start" x="670.5" y="-1180.8" font-family="monospace" font-size="14.00">  FloatProperty CallFunc_Multiply_FloatFloat_ReturnValue</text>
</g>
<!-- ExecuteUbergraph_BP_SpecialTutorialCrystal__0 -->
<g id="node3" class="node">
<title>ExecuteUbergraph_BP_SpecialTutorialCrystal__0</title>
<polygon fill="#eeeeee" stroke="black" points="794.5,-979.5 794.5,-1015.5 1009.5,-1015.5 1009.5,-979.5 794.5,-979.5"/>
<text text-anchor="start" x="802.5" y="-993.8" font-family="monospace" font-size="14.00">EX_PushExecutionFlow 421</text>
</g>
<!-- ExecuteUbergraph_BP_SpecialTutorialCrystal&#45;&gt;ExecuteUbergraph_BP_SpecialTutorialCrystal__0 -->
<g id="edge1" class="edge">
<title>ExecuteUbergraph_BP_SpecialTutorialCrystal&#45;&gt;ExecuteUbergraph_BP_SpecialTutorialCrystal__0</title>
<path fill="none" stroke="black" d="M902,-1173.29C902,-1125.63 902,-1062.34 902,-1026.46"/>
<polygon fill="black" stroke="black" points="905.5,-1026.92 902,-1016.92 898.5,-1026.92 905.5,-1026.92"/>
</g>
<!-- ExecuteUbergraph_BP_SpecialTutorialCrystal__5 -->
<g id="node4" class="node">
<title>ExecuteUbergraph_BP_SpecialTutorialCrystal__5</title>
<polygon fill="#eeeeee" stroke="black" points="714,-844 714,-882 986,-882 986,-844 714,-844"/>
<text text-anchor="start" x="722" y="-866.8" font-family="monospace" font-size="14.00">EX_ComputedJump</text>
<text text-anchor="start" x="722" y="-851.8" font-family="monospace" font-size="14.00">  EX_LocalVariable [EntryPoint]</text>
</g>
<!-- ExecuteUbergraph_BP_SpecialTutorialCrystal__0&#45;&gt;ExecuteUbergraph_BP_SpecialTutorialCrystal__5 -->
<g id="edge3" class="edge">
<title>ExecuteUbergraph_BP_SpecialTutorialCrystal__0&#45;&gt;ExecuteUbergraph_BP_SpecialTutorialCrystal__5</title>
<path fill="none" stroke="black" d="M895.41,-979.72C886.81,-957.78 871.6,-919.04 861.17,-892.47"/>
<polygon fill="black" stroke="black" points="864.49,-891.35 857.58,-883.32 857.98,-893.91 864.49,-891.35"/>
</g>
<!-- ExecuteUbergraph_BP_SpecialTutorialCrystal__421 -->
<g id="node25" class="node">
<title>ExecuteUbergraph_BP_SpecialTutorialCrystal__421</title>
<polygon fill="#eeeeee" stroke="black" points="1004,-844 1004,-882 1120,-882 1120,-844 1004,-844"/>
<text text-anchor="start" x="1012" y="-866.8" font-family="monospace" font-size="14.00">EX_Return</text>
<text text-anchor="start" x="1012" y="-851.8" font-family="monospace" font-size="14.00">  EX_Nothing</text>
</g>
<!-- ExecuteUbergraph_BP_SpecialTutorialCrystal__0&#45;&gt;ExecuteUbergraph_BP_SpecialTutorialCrystal__421 -->
<g id="edge2" class="edge">
<title>ExecuteUbergraph_BP_SpecialTutorialCrystal__0:e&#45;&gt;ExecuteUbergraph_BP_SpecialTutorialCrystal__421</title>
<path fill="none" stroke="red" d="M1011,-997.5C1011.7,-997.5 1036.56,-931.68 1051.31,-892.47"/>
<polygon fill="none" stroke="red" points="1054.57,-893.74 1054.81,-883.14 1048.02,-891.27 1054.57,-893.74"/>
<text text-anchor="middle" x="1081.5" y="-937.8" font-family="monospace" font-size="14.00">PUSH STACK</text>
</g>
<!-- ExecuteUbergraph_BP_SpecialTutorialCrystal__15 -->
<g id="node5" class="node">
<title>ExecuteUbergraph_BP_SpecialTutorialCrystal__15</title>
<polygon fill="#eeeeee" stroke="black" points="1610,-180.5 1610,-308.5 2130,-308.5 2130,-180.5 1610,-180.5"/>
<text text-anchor="start" x="1618" y="-293.3" font-family="monospace" font-size="14.00">EX_CallMath import /Script/Engine&#45;&gt;KismetSystemLibrary&#45;&gt;Delay</text>
<text text-anchor="start" x="1618" y="-278.3" font-family="monospace" font-size="14.00">  EX_Self</text>
<text text-anchor="start" x="1618" y="-263.3" font-family="monospace" font-size="14.00">  EX_FloatConst 5</text>
<text text-anchor="start" x="1618" y="-248.3" font-family="monospace" font-size="14.00">  EX_StructConst import /Script/Engine&#45;&gt;LatentActionInfo</text>
<text text-anchor="start" x="1618" y="-233.3" font-family="monospace" font-size="14.00">    EX_SkipOffsetConst 70</text>
<text text-anchor="start" x="1618" y="-218.3" font-family="monospace" font-size="14.00">    EX_IntConst 751873488</text>
<text text-anchor="start" x="1618" y="-203.3" font-family="monospace" font-size="14.00">    EX_NameConst ExecuteUbergraph_BP_SpecialTutorialCrystal</text>
<text text-anchor="start" x="1618" y="-188.3" font-family="monospace" font-size="14.00">    EX_Self</text>
</g>
<!-- ExecuteUbergraph_BP_SpecialTutorialCrystal__69 -->
<g id="node6" class="node">
<title>ExecuteUbergraph_BP_SpecialTutorialCrystal__69</title>
<polygon fill="#eeeeee" stroke="black" points="1704.5,-90.5 1704.5,-126.5 1877.5,-126.5 1877.5,-90.5 1704.5,-90.5"/>
<text text-anchor="start" x="1712.5" y="-104.8" font-family="monospace" font-size="14.00">EX_PopExecutionFlow</text>
</g>
<!-- ExecuteUbergraph_BP_SpecialTutorialCrystal__15&#45;&gt;ExecuteUbergraph_BP_SpecialTutorialCrystal__69 -->
<g id="edge5" class="edge">
<title>ExecuteUbergraph_BP_SpecialTutorialCrystal__15&#45;&gt;ExecuteUbergraph_BP_SpecialTutorialCrystal__69</title>
<path fill="none" stroke="black" d="M1833.04,-180.82C1823.73,-165.01 1814.22,-148.89 1806.61,-135.98"/>
<polygon fill="black" stroke="black" points="1809.82,-134.53 1801.72,-127.69 1803.79,-138.08 1809.82,-134.53"/>
</g>
<!-- ExecuteUbergraph_BP_SpecialTutorialCrystal__70 -->
<g id="node7" class="node">
<title>ExecuteUbergraph_BP_SpecialTutorialCrystal__70</title>
<polygon fill="#eeeeee" stroke="black" points="1895.5,-74.5 1895.5,-142.5 2522.5,-142.5 2522.5,-74.5 1895.5,-74.5"/>
<text text-anchor="start" x="1903.5" y="-127.3" font-family="monospace" font-size="14.00">EX_Context</text>
<text text-anchor="start" x="1903.5" y="-112.3" font-family="monospace" font-size="14.00">  EX_InstanceVariable [TerrainDetect]</text>
<text text-anchor="start" x="1903.5" y="-97.3" font-family="monospace" font-size="14.00">  EX_FinalFunction import /Script/FSD&#45;&gt;TerrainDetectComponent&#45;&gt;StartDetect</text>
<text text-anchor="start" x="1903.5" y="-82.3" font-family="monospace" font-size="14.00">  RValue = []</text>
</g>
<!-- ExecuteUbergraph_BP_SpecialTutorialCrystal__15&#45;&gt;ExecuteUbergraph_BP_SpecialTutorialCrystal__70 -->
<g id="edge4" class="edge">
<title>ExecuteUbergraph_BP_SpecialTutorialCrystal__15:e&#45;&gt;ExecuteUbergraph_BP_SpecialTutorialCrystal__70</title>
<path fill="none" stroke="red" d="M2131,-244.5C2173.87,-244.5 2193.55,-192.84 2202.32,-153.43"/>
<polygon fill="none" stroke="red" points="2205.75,-154.16 2204.31,-143.66 2198.89,-152.76 2205.75,-154.16"/>
</g>
<!-- ExecuteUbergraph_BP_SpecialTutorialCrystal__102 -->
<g id="node8" class="node">
<title>ExecuteUbergraph_BP_SpecialTutorialCrystal__102</title>
<polygon fill="#eeeeee" stroke="black" points="2122.5,-0.5 2122.5,-36.5 2295.5,-36.5 2295.5,-0.5 2122.5,-0.5"/>
<text text-anchor="start" x="2130.5" y="-14.8" font-family="monospace" font-size="14.00">EX_PopExecutionFlow</text>
</g>
<!-- ExecuteUbergraph_BP_SpecialTutorialCrystal__70&#45;&gt;ExecuteUbergraph_BP_SpecialTutorialCrystal__102 -->
<g id="edge6" class="edge">
<title>ExecuteUbergraph_BP_SpecialTutorialCrystal__70&#45;&gt;ExecuteUbergraph_BP_SpecialTutorialCrystal__102</title>
<path fill="none" stroke="black" d="M2209,-74.73C2209,-65.83 2209,-56.27 2209,-47.65"/>
<polygon fill="black" stroke="black" points="2212.5,-47.77 2209,-37.77 2205.5,-47.77 2212.5,-47.77"/>
</g>
<!-- ExecuteUbergraph_BP_SpecialTutorialCrystal__103 -->
<g id="node9" class="node">
<title>ExecuteUbergraph_BP_SpecialTutorialCrystal__103</title>
<polygon fill="#eeeeee" stroke="black" points="2581.5,-845 2581.5,-881 2878.5,-881 2878.5,-845 2581.5,-845"/>
<text text-anchor="start" x="2589.5" y="-859.3" font-family="monospace" font-size="14.00">EX_VirtualFunction K2_DestroyActor</text>
</g>
<!-- ExecuteUbergraph_BP_SpecialTutorialCrystal__117 -->
<g id="node10" class="node">
<title>ExecuteUbergraph_BP_SpecialTutorialCrystal__117</title>
<polygon fill="#eeeeee" stroke="black" points="2643.5,-688 2643.5,-724 2816.5,-724 2816.5,-688 2643.5,-688"/>
<text text-anchor="start" x="2651.5" y="-702.3" font-family="monospace" font-size="14.00">EX_PopExecutionFlow</text>
</g>
<!-- ExecuteUbergraph_BP_SpecialTutorialCrystal__103&#45;&gt;ExecuteUbergraph_BP_SpecialTutorialCrystal__117 -->
<g id="edge7" class="edge">
<title>ExecuteUbergraph_BP_SpecialTutorialCrystal__103&#45;&gt;ExecuteUbergraph_BP_SpecialTutorialCrystal__117</title>
<path fill="none" stroke="black" d="M2730,-845.12C2730,-818.68 2730,-767.22 2730,-735.12"/>
<polygon fill="black" stroke="black" points="2733.5,-735.38 2730,-725.38 2726.5,-735.38 2733.5,-735.38"/>
</g>
<!-- ExecuteUbergraph_BP_SpecialTutorialCrystal__118 -->
<g id="node11" class="node">
<title>ExecuteUbergraph_BP_SpecialTutorialCrystal__118</title>
<polygon fill="#eeeeee" stroke="black" points="3242,-821.5 3242,-904.5 3952,-904.5 3952,-821.5 3242,-821.5"/>
<text text-anchor="start" x="3250" y="-889.3" font-family="monospace" font-size="14.00">EX_Let</text>
<text text-anchor="start" x="3250" y="-874.3" font-family="monospace" font-size="14.00">  EX_LocalVariable [CallFunc_Multiply_FloatFloat_ReturnValue]</text>
<text text-anchor="start" x="3250" y="-859.3" font-family="monospace" font-size="14.00">  EX_CallMath import /Script/Engine&#45;&gt;KismetMathLibrary&#45;&gt;Multiply_FloatFloat</text>
<text text-anchor="start" x="3250" y="-844.3" font-family="monospace" font-size="14.00">    EX_InstanceVariable [Timeline_0_LightIntensity_CD888BD245F644A958710A8BA8A62D72]</text>
<text text-anchor="start" x="3250" y="-829.3" font-family="monospace" font-size="14.00">    EX_InstanceVariable [InitialIntensity]</text>
</g>
<!-- ExecuteUbergraph_BP_SpecialTutorialCrystal__164 -->
<g id="node12" class="node">
<title>ExecuteUbergraph_BP_SpecialTutorialCrystal__164</title>
<polygon fill="#eeeeee" stroke="black" points="3300,-664.5 3300,-747.5 3894,-747.5 3894,-664.5 3300,-664.5"/>
<text text-anchor="start" x="3308" y="-732.3" font-family="monospace" font-size="14.00">EX_Context</text>
<text text-anchor="start" x="3308" y="-717.3" font-family="monospace" font-size="14.00">  EX_InstanceVariable [PointLight]</text>
<text text-anchor="start" x="3308" y="-702.3" font-family="monospace" font-size="14.00">  EX_FinalFunction import /Script/Engine&#45;&gt;LightComponent&#45;&gt;SetIntensity</text>
<text text-anchor="start" x="3308" y="-687.3" font-family="monospace" font-size="14.00">    EX_LocalVariable [CallFunc_Multiply_FloatFloat_ReturnValue]</text>
<text text-anchor="start" x="3308" y="-672.3" font-family="monospace" font-size="14.00">  RValue = []</text>
</g>
<!-- ExecuteUbergraph_BP_SpecialTutorialCrystal__118&#45;&gt;ExecuteUbergraph_BP_SpecialTutorialCrystal__164 -->
<g id="edge8" class="edge">
<title>ExecuteUbergraph_BP_SpecialTutorialCrystal__118&#45;&gt;ExecuteUbergraph_BP_SpecialTutorialCrystal__164</title>
<path fill="none" stroke="black" d="M3597,-821.68C3597,-802.47 3597,-779.27 3597,-758.77"/>
<polygon fill="black" stroke="black" points="3600.5,-758.9 3597,-748.9 3593.5,-758.9 3600.5,-758.9"/>
</g>
<!-- ExecuteUbergraph_BP_SpecialTutorialCrystal__205 -->
<g id="node13" class="node">
<title>ExecuteUbergraph_BP_SpecialTutorialCrystal__205</title>
<polygon fill="#eeeeee" stroke="black" points="3510.5,-523.5 3510.5,-559.5 3683.5,-559.5 3683.5,-523.5 3510.5,-523.5"/>
<text text-anchor="start" x="3518.5" y="-537.8" font-family="monospace" font-size="14.00">EX_PopExecutionFlow</text>
</g>
<!-- ExecuteUbergraph_BP_SpecialTutorialCrystal__164&#45;&gt;ExecuteUbergraph_BP_SpecialTutorialCrystal__205 -->
<g id="edge9" class="edge">
<title>ExecuteUbergraph_BP_SpecialTutorialCrystal__164&#45;&gt;ExecuteUbergraph_BP_SpecialTutorialCrystal__205</title>
<path fill="none" stroke="black" d="M3597,-664.83C3597,-635.62 3597,-596.8 3597,-570.8"/>
<polygon fill="black" stroke="black" points="3600.5,-571.01 3597,-561.01 3593.5,-571.01 3600.5,-571.01"/>
</g>
<!-- ExecuteUbergraph_BP_SpecialTutorialCrystal__206 -->
<g id="node14" class="node">
<title>ExecuteUbergraph_BP_SpecialTutorialCrystal__206</title>
<polygon fill="#eeeeee" stroke="black" points="4535.5,-507.5 4535.5,-575.5 5088.5,-575.5 5088.5,-507.5 4535.5,-507.5"/>
<text text-anchor="start" x="4543.5" y="-560.3" font-family="monospace" font-size="14.00">EX_Context</text>
<text text-anchor="start" x="4543.5" y="-545.3" font-family="monospace" font-size="14.00">  EX_InstanceVariable [Timeline_0]</text>
<text text-anchor="start" x="4543.5" y="-530.3" font-family="monospace" font-size="14.00">  EX_FinalFunction import /Script/Engine&#45;&gt;TimelineComponent&#45;&gt;Play</text>
<text text-anchor="start" x="4543.5" y="-515.3" font-family="monospace" font-size="14.00">  RValue = []</text>
</g>
<!-- ExecuteUbergraph_BP_SpecialTutorialCrystal__238 -->
<g id="node15" class="node">
<title>ExecuteUbergraph_BP_SpecialTutorialCrystal__238</title>
<polygon fill="#eeeeee" stroke="black" points="4725.5,-382.5 4725.5,-418.5 4898.5,-418.5 4898.5,-382.5 4725.5,-382.5"/>
<text text-anchor="start" x="4733.5" y="-396.8" font-family="monospace" font-size="14.00">EX_PopExecutionFlow</text>
</g>
<!-- ExecuteUbergraph_BP_SpecialTutorialCrystal__206&#45;&gt;ExecuteUbergraph_BP_SpecialTutorialCrystal__238 -->
<g id="edge10" class="edge">
<title>ExecuteUbergraph_BP_SpecialTutorialCrystal__206&#45;&gt;ExecuteUbergraph_BP_SpecialTutorialCrystal__238</title>
<path fill="none" stroke="black" d="M4812,-507.56C4812,-483.85 4812,-452.21 4812,-429.67"/>
<polygon fill="black" stroke="black" points="4815.5,-429.71 4812,-419.71 4808.5,-429.71 4815.5,-429.71"/>
</g>
<!-- ExecuteUbergraph_BP_SpecialTutorialCrystal__239 -->
<g id="node16" class="node">
<title>ExecuteUbergraph_BP_SpecialTutorialCrystal__239</title>
<polygon fill="#eeeeee" stroke="black" points="5275.5,-836.5 5275.5,-889.5 5762.5,-889.5 5762.5,-836.5 5275.5,-836.5"/>
<text text-anchor="start" x="5283.5" y="-874.3" font-family="monospace" font-size="14.00">EX_BindDelegate OnMatchStarted_Event_0</text>
<text text-anchor="start" x="5283.5" y="-859.3" font-family="monospace" font-size="14.00">  EX_LocalVariable [K2Node_CreateDelegate_OutputDelegate]</text>
<text text-anchor="start" x="5283.5" y="-844.3" font-family="monospace" font-size="14.00">  EX_Self</text>
</g>
<!-- ExecuteUbergraph_BP_SpecialTutorialCrystal__262 -->
<g id="node17" class="node">
<title>ExecuteUbergraph_BP_SpecialTutorialCrystal__262</title>
<polygon fill="#eeeeee" stroke="black" points="5222,-672 5222,-740 5816,-740 5816,-672 5222,-672"/>
<text text-anchor="start" x="5230" y="-724.8" font-family="monospace" font-size="14.00">EX_LetObj</text>
<text text-anchor="start" x="5230" y="-709.8" font-family="monospace" font-size="14.00">  EX_LocalVariable [CallFunc_GetFSDGameState_ReturnValue]</text>
<text text-anchor="start" x="5230" y="-694.8" font-family="monospace" font-size="14.00">  EX_CallMath import /Script/FSD&#45;&gt;GameFunctionLibrary&#45;&gt;GetFSDGameState</text>
<text text-anchor="start" x="5230" y="-679.8" font-family="monospace" font-size="14.00">    EX_Self</text>
</g>
<!-- ExecuteUbergraph_BP_SpecialTutorialCrystal__239&#45;&gt;ExecuteUbergraph_BP_SpecialTutorialCrystal__262 -->
<g id="edge11" class="edge">
<title>ExecuteUbergraph_BP_SpecialTutorialCrystal__239&#45;&gt;ExecuteUbergraph_BP_SpecialTutorialCrystal__262</title>
<path fill="none" stroke="black" d="M5519,-836.75C5519,-813.63 5519,-778.9 5519,-751.19"/>
<polygon fill="black" stroke="black" points="5522.5,-751.31 5519,-741.31 5515.5,-751.31 5522.5,-751.31"/>
</g>
<!-- ExecuteUbergraph_BP_SpecialTutorialCrystal__283 -->
<g id="node18" class="node">
<title>ExecuteUbergraph_BP_SpecialTutorialCrystal__283</title>
<polygon fill="#eeeeee" stroke="black" points="5267.5,-492.5 5267.5,-590.5 5770.5,-590.5 5770.5,-492.5 5267.5,-492.5"/>
<text text-anchor="start" x="5275.5" y="-575.3" font-family="monospace" font-size="14.00">EX_AddMulticastDelegate</text>
<text text-anchor="start" x="5275.5" y="-560.3" font-family="monospace" font-size="14.00">  EX_Context</text>
<text text-anchor="start" x="5275.5" y="-545.3" font-family="monospace" font-size="14.00">    EX_LocalVariable [CallFunc_GetFSDGameState_ReturnValue]</text>
<text text-anchor="start" x="5275.5" y="-530.3" font-family="monospace" font-size="14.00">    EX_InstanceVariable [OnMatchStarted]</text>
<text text-anchor="start" x="5275.5" y="-515.3" font-family="monospace" font-size="14.00">    RValue = [OnMatchStarted]</text>
<text text-anchor="start" x="5275.5" y="-500.3" font-family="monospace" font-size="14.00">  EX_LocalVariable [K2Node_CreateDelegate_OutputDelegate]</text>
</g>
<!-- ExecuteUbergraph_BP_SpecialTutorialCrystal__262&#45;&gt;ExecuteUbergraph_BP_SpecialTutorialCrystal__283 -->
<g id="edge12" class="edge">
<title>ExecuteUbergraph_BP_SpecialTutorialCrystal__262&#45;&gt;ExecuteUbergraph_BP_SpecialTutorialCrystal__283</title>
<path fill="none" stroke="black" d="M5519,-672.12C5519,-651.95 5519,-625.54 5519,-601.82"/>
<polygon fill="black" stroke="black" points="5522.5,-601.95 5519,-591.95 5515.5,-601.95 5522.5,-601.95"/>
</g>
<!-- ExecuteUbergraph_BP_SpecialTutorialCrystal__324 -->
<g id="node19" class="node">
<title>ExecuteUbergraph_BP_SpecialTutorialCrystal__324</title>
<polygon fill="#eeeeee" stroke="black" points="5432.5,-382.5 5432.5,-418.5 5605.5,-418.5 5605.5,-382.5 5432.5,-382.5"/>
<text text-anchor="start" x="5440.5" y="-396.8" font-family="monospace" font-size="14.00">EX_PopExecutionFlow</text>
</g>
<!-- ExecuteUbergraph_BP_SpecialTutorialCrystal__283&#45;&gt;ExecuteUbergraph_BP_SpecialTutorialCrystal__324 -->
<g id="edge13" class="edge">
<title>ExecuteUbergraph_BP_SpecialTutorialCrystal__283&#45;&gt;ExecuteUbergraph_BP_SpecialTutorialCrystal__324</title>
<path fill="none" stroke="black" d="M5519,-492.66C5519,-471.74 5519,-447.9 5519,-429.84"/>
<polygon fill="black" stroke="black" points="5522.5,-429.89 5519,-419.89 5515.5,-429.89 5522.5,-429.89"/>
</g>
<!-- ExecuteUbergraph_BP_SpecialTutorialCrystal__325 -->
<g id="node20" class="node">
<title>ExecuteUbergraph_BP_SpecialTutorialCrystal__325</title>
<polygon fill="#eeeeee" stroke="black" points="1593.5,-672 1593.5,-740 2146.5,-740 2146.5,-672 1593.5,-672"/>
<text text-anchor="start" x="1601.5" y="-724.8" font-family="monospace" font-size="14.00">EX_Context</text>
<text text-anchor="start" x="1601.5" y="-709.8" font-family="monospace" font-size="14.00">  EX_InstanceVariable [MeshCarver]</text>
<text text-anchor="start" x="1601.5" y="-694.8" font-family="monospace" font-size="14.00">  EX_FinalFunction import /Script/FSD&#45;&gt;MeshCarverComponent&#45;&gt;Carve</text>
<text text-anchor="start" x="1601.5" y="-679.8" font-family="monospace" font-size="14.00">  RValue = []</text>
</g>
<!-- ExecuteUbergraph_BP_SpecialTutorialCrystal__357 -->
<g id="node21" class="node">
<title>ExecuteUbergraph_BP_SpecialTutorialCrystal__357</title>
<polygon fill="#eeeeee" stroke="black" points="1696.5,-492.5 1696.5,-590.5 2043.5,-590.5 2043.5,-492.5 1696.5,-492.5"/>
<text text-anchor="start" x="1704.5" y="-575.3" font-family="monospace" font-size="14.00">EX_Let</text>
<text text-anchor="start" x="1704.5" y="-560.3" font-family="monospace" font-size="14.00">  EX_InstanceVariable [InitialIntensity]</text>
<text text-anchor="start" x="1704.5" y="-545.3" font-family="monospace" font-size="14.00">  EX_Context</text>
<text text-anchor="start" x="1704.5" y="-530.3" font-family="monospace" font-size="14.00">    EX_InstanceVariable [PointLight]</text>
<text text-anchor="start" x="1704.5" y="-515.3" font-family="monospace" font-size="14.00">    EX_InstanceVariable [Intensity]</text>
<text text-anchor="start" x="1704.5" y="-500.3" font-family="monospace" font-size="14.00">    RValue = [Intensity]</text>
</g>
<!-- ExecuteUbergraph_BP_SpecialTutorialCrystal__325&#45;&gt;ExecuteUbergraph_BP_SpecialTutorialCrystal__357 -->
<g id="edge14" class="edge">
<title>ExecuteUbergraph_BP_SpecialTutorialCrystal__325&#45;&gt;ExecuteUbergraph_BP_SpecialTutorialCrystal__357</title>
<path fill="none" stroke="black" d="M1870,-672.12C1870,-651.95 1870,-625.54 1870,-601.82"/>
<polygon fill="black" stroke="black" points="1873.5,-601.95 1870,-591.95 1866.5,-601.95 1873.5,-601.95"/>
</g>
<!-- ExecuteUbergraph_BP_SpecialTutorialCrystal__406 -->
<g id="node22" class="node">
<title>ExecuteUbergraph_BP_SpecialTutorialCrystal__406</title>
<polygon fill="#eeeeee" stroke="black" points="1820.5,-382.5 1820.5,-418.5 1919.5,-418.5 1919.5,-382.5 1820.5,-382.5"/>
<text text-anchor="start" x="1828.5" y="-396.8" font-family="monospace" font-size="14.00">EX_Jump 15</text>
</g>
<!-- ExecuteUbergraph_BP_SpecialTutorialCrystal__357&#45;&gt;ExecuteUbergraph_BP_SpecialTutorialCrystal__406 -->
<g id="edge15" class="edge">
<title>ExecuteUbergraph_BP_SpecialTutorialCrystal__357&#45;&gt;ExecuteUbergraph_BP_SpecialTutorialCrystal__406</title>
<path fill="none" stroke="black" d="M1870,-492.66C1870,-471.74 1870,-447.9 1870,-429.84"/>
<polygon fill="black" stroke="black" points="1873.5,-429.89 1870,-419.89 1866.5,-429.89 1873.5,-429.89"/>
</g>
<!-- ExecuteUbergraph_BP_SpecialTutorialCrystal__406&#45;&gt;ExecuteUbergraph_BP_SpecialTutorialCrystal__15 -->
<g id="edge16" class="edge">
<title>ExecuteUbergraph_BP_SpecialTutorialCrystal__406&#45;&gt;ExecuteUbergraph_BP_SpecialTutorialCrystal__15</title>
<path fill="none" stroke="black" d="M1870,-382.73C1870,-367.25 1870,-343.14 1870,-319.42"/>
<polygon fill="black" stroke="black" points="1873.5,-319.73 1870,-309.73 1866.5,-319.73 1873.5,-319.73"/>
</g>
<!-- ExecuteUbergraph_BP_SpecialTutorialCrystal__411 -->
<g id="node23" class="node">
<title>ExecuteUbergraph_BP_SpecialTutorialCrystal__411</title>
<polygon fill="#eeeeee" stroke="black" points="1816.5,-845 1816.5,-881 1923.5,-881 1923.5,-845 1816.5,-845"/>
<text text-anchor="start" x="1824.5" y="-859.3" font-family="monospace" font-size="14.00">EX_Jump 325</text>
</g>
<!-- ExecuteUbergraph_BP_SpecialTutorialCrystal__411&#45;&gt;ExecuteUbergraph_BP_SpecialTutorialCrystal__325 -->
<g id="edge17" class="edge">
<title>ExecuteUbergraph_BP_SpecialTutorialCrystal__411&#45;&gt;ExecuteUbergraph_BP_SpecialTutorialCrystal__325</title>
<path fill="none" stroke="black" d="M1870,-845.12C1870,-822.78 1870,-782.6 1870,-751.31"/>
<polygon fill="black" stroke="black" points="1873.5,-751.32 1870,-741.32 1866.5,-751.32 1873.5,-751.32"/>
</g>
<!-- ExecuteUbergraph_BP_SpecialTutorialCrystal__416 -->
<g id="node24" class="node">
<title>ExecuteUbergraph_BP_SpecialTutorialCrystal__416</title>
<polygon fill="#eeeeee" stroke="black" points="4758.5,-688 4758.5,-724 4865.5,-724 4865.5,-688 4758.5,-688"/>
<text text-anchor="start" x="4766.5" y="-702.3" font-family="monospace" font-size="14.00">EX_Jump 206</text>
</g>
<!-- ExecuteUbergraph_BP_SpecialTutorialCrystal__416&#45;&gt;ExecuteUbergraph_BP_SpecialTutorialCrystal__206 -->
<g id="edge18" class="edge">
<title>ExecuteUbergraph_BP_SpecialTutorialCrystal__416&#45;&gt;ExecuteUbergraph_BP_SpecialTutorialCrystal__206</title>
<path fill="none" stroke="black" d="M4812,-688.22C4812,-664.5 4812,-620.32 4812,-586.8"/>
<polygon fill="black" stroke="black" points="4815.5,-586.95 4812,-576.95 4808.5,-586.95 4815.5,-586.95"/>
</g>
<!-- ExecuteUbergraph_BP_SpecialTutorialCrystal__423 -->
<g id="node26" class="node">
<title>ExecuteUbergraph_BP_SpecialTutorialCrystal__423</title>
<polygon fill="#eeeeee" stroke="black" points="5113,-1035.5 5113,-1071.5 5245,-1071.5 5245,-1035.5 5113,-1035.5"/>
<text text-anchor="start" x="5121" y="-1049.8" font-family="monospace" font-size="14.00">EX_EndOfScript</text>
</g>
<!-- BndEvt__TerrainDetect_K2Node_ComponentBoundEvent_0_PointRemovedEvent__DelegateSignature -->
<g id="node27" class="node">
<title>BndEvt__TerrainDetect_K2Node_ComponentBoundEvent_0_PointRemovedEvent__DelegateSignature</title>
<polygon fill="#ff8888" stroke="black" points="3986.5,-1210.5 3986.5,-1263.5 4795.5,-1263.5 4795.5,-1210.5 3986.5,-1210.5"/>
<text text-anchor="start" x="3994.5" y="-1248.3" font-family="monospace" font-size="14.00">Function BndEvt__TerrainDetect_K2Node_ComponentBoundEvent_0_PointRemovedEvent__DelegateSignature</text>
<text text-anchor="start" x="3994.5" y="-1233.3" font-family="monospace" font-size="14.00">  ObjectProperty point</text>
<text text-anchor="start" x="3994.5" y="-1218.3" font-family="monospace" font-size="14.00">    CPF_BlueprintVisible|CPF_BlueprintReadOnly|CPF_Parm|CPF_InstancedReference</text>
</g>
<!-- BndEvt__TerrainDetect_K2Node_ComponentBoundEvent_0_PointRemovedEvent__DelegateSignature__0 -->
<g id="node28" class="node">
<title>BndEvt__TerrainDetect_K2Node_ComponentBoundEvent_0_PointRemovedEvent__DelegateSignature__0</title>
<polygon fill="#eeeeee" stroke="black" points="4123,-978.5 4123,-1016.5 4659,-1016.5 4659,-978.5 4123,-978.5"/>
<text text-anchor="start" x="4131" y="-1001.3" font-family="monospace" font-size="14.00">EX_LetValueOnPersistentFrame [K2Node_ComponentBoundEvent_point]</text>
<text text-anchor="start" x="4131" y="-986.3" font-family="monospace" font-size="14.00">  EX_LocalVariable [point]</text>
</g>
<!-- BndEvt__TerrainDetect_K2Node_ComponentBoundEvent_0_PointRemovedEvent__DelegateSignature&#45;&gt;BndEvt__TerrainDetect_K2Node_ComponentBoundEvent_0_PointRemovedEvent__DelegateSignature__0 -->
<g id="edge19" class="edge">
<title>BndEvt__TerrainDetect_K2Node_ComponentBoundEvent_0_PointRemovedEvent__DelegateSignature&#45;&gt;BndEvt__TerrainDetect_K2Node_ComponentBoundEvent_0_PointRemovedEvent__DelegateSignature__0</title>
<path fill="none" stroke="black" d="M4391,-1210.58C4391,-1166.2 4391,-1074.84 4391,-1027.85"/>
<polygon fill="black" stroke="black" points="4394.5,-1027.89 4391,-1017.89 4387.5,-1027.89 4394.5,-1027.89"/>
</g>
<!-- BndEvt__TerrainDetect_K2Node_ComponentBoundEvent_0_PointRemovedEvent__DelegateSignature__18 -->
<g id="node29" class="node">
<title>BndEvt__TerrainDetect_K2Node_ComponentBoundEvent_0_PointRemovedEvent__DelegateSignature__18</title>
<polygon fill="#eeeeee" stroke="black" points="3970,-844 3970,-882 4812,-882 4812,-844 3970,-844"/>
<text text-anchor="start" x="3978" y="-866.8" font-family="monospace" font-size="14.00">EX_LocalFinalFunction export BP_SpecialTutorialCrystal_C&#45;&gt;ExecuteUbergraph_BP_SpecialTutorialCrystal</text>
<text text-anchor="start" x="3978" y="-851.8" font-family="monospace" font-size="14.00">  EX_IntConst 416</text>
</g>
<!-- BndEvt__TerrainDetect_K2Node_ComponentBoundEvent_0_PointRemovedEvent__DelegateSignature__0&#45;&gt;BndEvt__TerrainDetect_K2Node_ComponentBoundEvent_0_PointRemovedEvent__DelegateSignature__18 -->
<g id="edge20" class="edge">
<title>BndEvt__TerrainDetect_K2Node_ComponentBoundEvent_0_PointRemovedEvent__DelegateSignature__0&#45;&gt;BndEvt__TerrainDetect_K2Node_ComponentBoundEvent_0_PointRemovedEvent__DelegateSignature__18</title>
<path fill="none" stroke="black" d="M4391,-978.63C4391,-956.68 4391,-919.14 4391,-893.03"/>
<polygon fill="black" stroke="black" points="4394.5,-893.1 4391,-883.1 4387.5,-893.1 4394.5,-893.1"/>
</g>
<!-- BndEvt__TerrainDetect_K2Node_ComponentBoundEvent_0_PointRemovedEvent__DelegateSignature__18&#45;&gt;ExecuteUbergraph_BP_SpecialTutorialCrystal__416 -->
<g id="edge21" class="edge">
<title>BndEvt__TerrainDetect_K2Node_ComponentBoundEvent_0_PointRemovedEvent__DelegateSignature__18:e&#45;&gt;ExecuteUbergraph_BP_SpecialTutorialCrystal__416</title>
<path fill="none" stroke="red" d="M4813,-863C4863.7,-863 4839.72,-779.58 4823.16,-734.74"/>
<polygon fill="none" stroke="red" points="4826.44,-733.5 4819.6,-725.41 4819.89,-736 4826.44,-733.5"/>
</g>
<!-- BndEvt__TerrainDetect_K2Node_ComponentBoundEvent_0_PointRemovedEvent__DelegateSignature__33 -->
<g id="node30" class="node">
<title>BndEvt__TerrainDetect_K2Node_ComponentBoundEvent_0_PointRemovedEvent__DelegateSignature__33</title>
<polygon fill="#eeeeee" stroke="black" points="4333,-687 4333,-725 4449,-725 4449,-687 4333,-687"/>
<text text-anchor="start" x="4341" y="-709.8" font-family="monospace" font-size="14.00">EX_Return</text>
<text text-anchor="start" x="4341" y="-694.8" font-family="monospace" font-size="14.00">  EX_Nothing</text>
</g>
<!-- BndEvt__TerrainDetect_K2Node_ComponentBoundEvent_0_PointRemovedEvent__DelegateSignature__18&#45;&gt;BndEvt__TerrainDetect_K2Node_ComponentBoundEvent_0_PointRemovedEvent__DelegateSignature__33 -->
<g id="edge22" class="edge">
<title>BndEvt__TerrainDetect_K2Node_ComponentBoundEvent_0_PointRemovedEvent__DelegateSignature__18&#45;&gt;BndEvt__TerrainDetect_K2Node_ComponentBoundEvent_0_PointRemovedEvent__DelegateSignature__33</title>
<path fill="none" stroke="black" d="M4391,-844.22C4391,-817.71 4391,-767.54 4391,-735.76"/>
<polygon fill="black" stroke="black" points="4394.5,-736.09 4391,-726.09 4387.5,-736.09 4394.5,-736.09"/>
</g>
<!-- BndEvt__TerrainDetect_K2Node_ComponentBoundEvent_0_PointRemovedEvent__DelegateSignature__35 -->
<g id="node31" class="node">
<title>BndEvt__TerrainDetect_K2Node_ComponentBoundEvent_0_PointRemovedEvent__DelegateSignature__35</title>
<polygon fill="#eeeeee" stroke="black" points="5534,-923.5 5534,-959.5 5666,-959.5 5666,-923.5 5534,-923.5"/>
<text text-anchor="start" x="5542" y="-937.8" font-family="monospace" font-size="14.00">EX_EndOfScript</text>
</g>
<!-- OnMatchStarted_Event_0 -->
<g id="node32" class="node">
<title>OnMatchStarted_Event_0</title>
<polygon fill="#ff8888" stroke="black" points="1313,-1219 1313,-1255 1585,-1255 1585,-1219 1313,-1219"/>
<text text-anchor="start" x="1321" y="-1233.3" font-family="monospace" font-size="14.00">Function OnMatchStarted_Event_0</text>
</g>
<!-- OnMatchStarted_Event_0__0 -->
<g id="node33" class="node">
<title>OnMatchStarted_Event_0__0</title>
<polygon fill="#eeeeee" stroke="black" points="1028,-978.5 1028,-1016.5 1870,-1016.5 1870,-978.5 1028,-978.5"/>
<text text-anchor="start" x="1036" y="-1001.3" font-family="monospace" font-size="14.00">EX_LocalFinalFunction export BP_SpecialTutorialCrystal_C&#45;&gt;ExecuteUbergraph_BP_SpecialTutorialCrystal</text>
<text text-anchor="start" x="1036" y="-986.3" font-family="monospace" font-size="14.00">  EX_IntConst 411</text>
</g>
<!-- OnMatchStarted_Event_0&#45;&gt;OnMatchStarted_Event_0__0 -->
<g id="edge23" class="edge">
<title>OnMatchStarted_Event_0&#45;&gt;OnMatchStarted_Event_0__0</title>
<path fill="none" stroke="black" d="M1449,-1219.3C1449,-1179.4 1449,-1078.14 1449,-1027.82"/>
<polygon fill="black" stroke="black" points="1452.5,-1027.98 1449,-1017.98 1445.5,-1027.98 1452.5,-1027.98"/>
</g>
<!-- OnMatchStarted_Event_0__0&#45;&gt;ExecuteUbergraph_BP_SpecialTutorialCrystal__411 -->
<g id="edge24" class="edge">
<title>OnMatchStarted_Event_0__0:e&#45;&gt;ExecuteUbergraph_BP_SpecialTutorialCrystal__411</title>
<path fill="none" stroke="red" d="M1871,-997.5C1881.43,-997.5 1876.7,-931.53 1872.97,-892.34"/>
<polygon fill="none" stroke="red" points="1876.46,-892.02 1871.99,-882.41 1869.49,-892.71 1876.46,-892.02"/>
</g>
<!-- OnMatchStarted_Event_0__15 -->
<g id="node34" class="node">
<title>OnMatchStarted_Event_0__15</title>
<polygon fill="#eeeeee" stroke="black" points="1391,-844 1391,-882 1507,-882 1507,-844 1391,-844"/>
<text text-anchor="start" x="1399" y="-866.8" font-family="monospace" font-size="14.00">EX_Return</text>
<text text-anchor="start" x="1399" y="-851.8" font-family="monospace" font-size="14.00">  EX_Nothing</text>
</g>
<!-- OnMatchStarted_Event_0__0&#45;&gt;OnMatchStarted_Event_0__15 -->
<g id="edge25" class="edge">
<title>OnMatchStarted_Event_0__0&#45;&gt;OnMatchStarted_Event_0__15</title>
<path fill="none" stroke="black" d="M1449,-978.63C1449,-956.68 1449,-919.14 1449,-893.03"/>
<polygon fill="black" stroke="black" points="1452.5,-893.1 1449,-883.1 1445.5,-893.1 1452.5,-893.1"/>
</g>
<!-- OnMatchStarted_Event_0__17 -->
<g id="node35" class="node">
<title>OnMatchStarted_Event_0__17</title>
<polygon fill="#eeeeee" stroke="black" points="5534,-766.5 5534,-802.5 5666,-802.5 5666,-766.5 5534,-766.5"/>
<text text-anchor="start" x="5542" y="-780.8" font-family="monospace" font-size="14.00">EX_EndOfScript</text>
</g>
<!-- ReceiveBeginPlay -->
<g id="node36" class="node">
<title>ReceiveBeginPlay</title>
<polygon fill="#ff8888" stroke="black" points="4986.5,-1219 4986.5,-1255 5209.5,-1255 5209.5,-1219 4986.5,-1219"/>
<text text-anchor="start" x="4994.5" y="-1233.3" font-family="monospace" font-size="14.00">Function ReceiveBeginPlay</text>
</g>
<!-- ReceiveBeginPlay__0 -->
<g id="node37" class="node">
<title>ReceiveBeginPlay__0</title>
<polygon fill="#eeeeee" stroke="black" points="4677,-978.5 4677,-1016.5 5519,-1016.5 5519,-978.5 4677,-978.5"/>
<text text-anchor="start" x="4685" y="-1001.3" font-family="monospace" font-size="14.00">EX_LocalFinalFunction export BP_SpecialTutorialCrystal_C&#45;&gt;ExecuteUbergraph_BP_SpecialTutorialCrystal</text>
<text text-anchor="start" x="4685" y="-986.3" font-family="monospace" font-size="14.00">  EX_IntConst 239</text>
</g>
<!-- ReceiveBeginPlay&#45;&gt;ReceiveBeginPlay__0 -->
<g id="edge26" class="edge">
<title>ReceiveBeginPlay&#45;&gt;ReceiveBeginPlay__0</title>
<path fill="none" stroke="black" d="M5098,-1219.3C5098,-1179.4 5098,-1078.14 5098,-1027.82"/>
<polygon fill="black" stroke="black" points="5101.5,-1027.98 5098,-1017.98 5094.5,-1027.98 5101.5,-1027.98"/>
</g>
<!-- ReceiveBeginPlay__0&#45;&gt;ExecuteUbergraph_BP_SpecialTutorialCrystal__239 -->
<g id="edge27" class="edge">
<title>ReceiveBeginPlay__0:e&#45;&gt;ExecuteUbergraph_BP_SpecialTutorialCrystal__239</title>
<path fill="none" stroke="red" d="M5520,-997.5C5539.46,-997.5 5532.96,-940.06 5526.18,-900.53"/>
<polygon fill="none" stroke="red" points="5529.67,-900.14 5524.46,-890.91 5522.78,-901.37 5529.67,-900.14"/>
</g>
<!-- ReceiveBeginPlay__15 -->
<g id="node38" class="node">
<title>ReceiveBeginPlay__15</title>
<polygon fill="#eeeeee" stroke="black" points="5040,-844 5040,-882 5156,-882 5156,-844 5040,-844"/>
<text text-anchor="start" x="5048" y="-866.8" font-family="monospace" font-size="14.00">EX_Return</text>
<text text-anchor="start" x="5048" y="-851.8" font-family="monospace" font-size="14.00">  EX_Nothing</text>
</g>
<!-- ReceiveBeginPlay__0&#45;&gt;ReceiveBeginPlay__15 -->
<g id="edge28" class="edge">
<title>ReceiveBeginPlay__0&#45;&gt;ReceiveBeginPlay__15</title>
<path fill="none" stroke="black" d="M5098,-978.63C5098,-956.68 5098,-919.14 5098,-893.03"/>
<polygon fill="black" stroke="black" points="5101.5,-893.1 5098,-883.1 5094.5,-893.1 5101.5,-893.1"/>
</g>
<!-- ReceiveBeginPlay__17 -->
<g id="node39" class="node">
<title>ReceiveBeginPlay__17</title>
<polygon fill="#eeeeee" stroke="black" points="5534,-609.5 5534,-645.5 5666,-645.5 5666,-609.5 5534,-609.5"/>
<text text-anchor="start" x="5542" y="-623.8" font-family="monospace" font-size="14.00">EX_EndOfScript</text>
</g>
<!-- Timeline_0__UpdateFunc -->
<g id="node40" class="node">
<title>Timeline_0__UpdateFunc</title>
<polygon fill="#ff8888" stroke="black" points="3033,-1219 3033,-1255 3305,-1255 3305,-1219 3033,-1219"/>
<text text-anchor="start" x="3041" y="-1233.3" font-family="monospace" font-size="14.00">Function Timeline_0__UpdateFunc</text>
</g>
<!-- Timeline_0__UpdateFunc__0 -->
<g id="node41" class="node">
<title>Timeline_0__UpdateFunc__0</title>
<polygon fill="#eeeeee" stroke="black" points="2748,-978.5 2748,-1016.5 3590,-1016.5 3590,-978.5 2748,-978.5"/>
<text text-anchor="start" x="2756" y="-1001.3" font-family="monospace" font-size="14.00">EX_LocalFinalFunction export BP_SpecialTutorialCrystal_C&#45;&gt;ExecuteUbergraph_BP_SpecialTutorialCrystal</text>
<text text-anchor="start" x="2756" y="-986.3" font-family="monospace" font-size="14.00">  EX_IntConst 118</text>
</g>
<!-- Timeline_0__UpdateFunc&#45;&gt;Timeline_0__UpdateFunc__0 -->
<g id="edge29" class="edge">
<title>Timeline_0__UpdateFunc&#45;&gt;Timeline_0__UpdateFunc__0</title>
<path fill="none" stroke="black" d="M3169,-1219.3C3169,-1179.4 3169,-1078.14 3169,-1027.82"/>
<polygon fill="black" stroke="black" points="3172.5,-1027.98 3169,-1017.98 3165.5,-1027.98 3172.5,-1027.98"/>
</g>
<!-- Timeline_0__UpdateFunc__0&#45;&gt;ExecuteUbergraph_BP_SpecialTutorialCrystal__118 -->
<g id="edge30" class="edge">
<title>Timeline_0__UpdateFunc__0:e&#45;&gt;ExecuteUbergraph_BP_SpecialTutorialCrystal__118</title>
<path fill="none" stroke="red" d="M3591,-997.5C3625.31,-997.5 3621.98,-952.94 3613.05,-915.31"/>
<polygon fill="none" stroke="red" points="3616.51,-914.71 3610.65,-905.88 3609.73,-916.44 3616.51,-914.71"/>
</g>
<!-- Timeline_0__UpdateFunc__15 -->
<g id="node42" class="node">
<title>Timeline_0__UpdateFunc__15</title>
<polygon fill="#eeeeee" stroke="black" points="3108,-844 3108,-882 3224,-882 3224,-844 3108,-844"/>
<text text-anchor="start" x="3116" y="-866.8" font-family="monospace" font-size="14.00">EX_Return</text>
<text text-anchor="start" x="3116" y="-851.8" font-family="monospace" font-size="14.00">  EX_Nothing</text>
</g>
<!-- Timeline_0__UpdateFunc__0&#45;&gt;Timeline_0__UpdateFunc__15 -->
<g id="edge31" class="edge">
<title>Timeline_0__UpdateFunc__0&#45;&gt;Timeline_0__UpdateFunc__15</title>
<path fill="none" stroke="black" d="M3168.6,-978.63C3168.1,-956.68 3167.25,-919.14 3166.66,-893.03"/>
<polygon fill="black" stroke="black" points="3170.16,-893.02 3166.43,-883.1 3163.16,-893.18 3170.16,-893.02"/>
</g>
<!-- Timeline_0__UpdateFunc__17 -->
<g id="node43" class="node">
<title>Timeline_0__UpdateFunc__17</title>
<polygon fill="#eeeeee" stroke="black" points="5534,-437.5 5534,-473.5 5666,-473.5 5666,-437.5 5534,-437.5"/>
<text text-anchor="start" x="5542" y="-451.8" font-family="monospace" font-size="14.00">EX_EndOfScript</text>
</g>
<!-- Timeline_0__FinishedFunc -->
<g id="node44" class="node">
<title>Timeline_0__FinishedFunc</title>
<polygon fill="#ff8888" stroke="black" points="2164.5,-1219 2164.5,-1255 2453.5,-1255 2453.5,-1219 2164.5,-1219"/>
<text text-anchor="start" x="2172.5" y="-1233.3" font-family="monospace" font-size="14.00">Function Timeline_0__FinishedFunc</text>
</g>
<!-- Timeline_0__FinishedFunc__0 -->
<g id="node45" class="node">
<title>Timeline_0__FinishedFunc__0</title>
<polygon fill="#eeeeee" stroke="black" points="1888,-978.5 1888,-1016.5 2730,-1016.5 2730,-978.5 1888,-978.5"/>
<text text-anchor="start" x="1896" y="-1001.3" font-family="monospace" font-size="14.00">EX_LocalFinalFunction export BP_SpecialTutorialCrystal_C&#45;&gt;ExecuteUbergraph_BP_SpecialTutorialCrystal</text>
<text text-anchor="start" x="1896" y="-986.3" font-family="monospace" font-size="14.00">  EX_IntConst 103</text>
</g>
<!-- Timeline_0__FinishedFunc&#45;&gt;Timeline_0__FinishedFunc__0 -->
<g id="edge32" class="edge">
<title>Timeline_0__FinishedFunc&#45;&gt;Timeline_0__FinishedFunc__0</title>
<path fill="none" stroke="black" d="M2309,-1219.3C2309,-1179.4 2309,-1078.14 2309,-1027.82"/>
<polygon fill="black" stroke="black" points="2312.5,-1027.98 2309,-1017.98 2305.5,-1027.98 2312.5,-1027.98"/>
</g>
<!-- Timeline_0__FinishedFunc__0&#45;&gt;ExecuteUbergraph_BP_SpecialTutorialCrystal__103 -->
<g id="edge33" class="edge">
<title>Timeline_0__FinishedFunc__0:e&#45;&gt;ExecuteUbergraph_BP_SpecialTutorialCrystal__103</title>
<path fill="none" stroke="red" d="M2731,-997.5C2741.43,-997.5 2736.7,-931.53 2732.97,-892.34"/>
<polygon fill="none" stroke="red" points="2736.46,-892.02 2731.99,-882.41 2729.49,-892.71 2736.46,-892.02"/>
</g>
<!-- Timeline_0__FinishedFunc__15 -->
<g id="node46" class="node">
<title>Timeline_0__FinishedFunc__15</title>
<polygon fill="#eeeeee" stroke="black" points="2251,-844 2251,-882 2367,-882 2367,-844 2251,-844"/>
<text text-anchor="start" x="2259" y="-866.8" font-family="monospace" font-size="14.00">EX_Return</text>
<text text-anchor="start" x="2259" y="-851.8" font-family="monospace" font-size="14.00">  EX_Nothing</text>
</g>
<!-- Timeline_0__FinishedFunc__0&#45;&gt;Timeline_0__FinishedFunc__15 -->
<g id="edge34" class="edge">
<title>Timeline_0__FinishedFunc__0&#45;&gt;Timeline_0__FinishedFunc__15</title>
<path fill="none" stroke="black" d="M2309,-978.63C2309,-956.68 2309,-919.14 2309,-893.03"/>
<polygon fill="black" stroke="black" points="2312.5,-893.1 2309,-883.1 2305.5,-893.1 2312.5,-893.1"/>
</g>
<!-- Timeline_0__FinishedFunc__17 -->
<g id="node47" class="node">
<title>Timeline_0__FinishedFunc__17</title>
<polygon fill="#eeeeee" stroke="black" points="1885,-327.5 1885,-363.5 2017,-363.5 2017,-327.5 1885,-327.5"/>
<text text-anchor="start" x="1893" y="-341.8" font-family="monospace" font-size="14.00">EX_EndOfScript</text>
</g>
</g>
</svg>
