<?xml version="1.0" encoding="UTF-8" standalone="no"?>
<!DOCTYPE svg PUBLIC "-//W3C//DTD SVG 1.1//EN"
 "http://www.w3.org/Graphics/SVG/1.1/DTD/svg11.dtd">
<!-- Generated by graphviz version 7.0.1 (0)
 -->
<!-- Pages: 1 -->
<svg width="2662pt" height="925pt"
 viewBox="0.00 0.00 2661.50 925.00" xmlns="http://www.w3.org/2000/svg" xmlns:xlink="http://www.w3.org/1999/xlink">
<g id="graph0" class="graph" transform="scale(1 1) rotate(0) translate(4 921)">
<polygon fill="white" stroke="none" points="-4,4 -4,-921 2657.5,-921 2657.5,4 -4,4"/>
<!-- SER_FindPlayer_C -->
<g id="node1" class="node">
<title>SER_FindPlayer_C</title>
<polygon fill="#88ff88" stroke="black" points="0,-743.5 0,-916.5 536,-916.5 536,-743.5 0,-743.5"/>
<text text-anchor="start" x="8" y="-901.3" font-family="monospace" font-size="14.00">ClassExport: SER_FindPlayer_C</text>
<text text-anchor="start" x="8" y="-886.3" font-family="monospace" font-size="14.00">  SuperStruct: import /Script/AIModule&#45;&gt;BTService_BlueprintBase</text>
<text text-anchor="start" x="8" y="-871.3" font-family="monospace" font-size="14.00">  Properties:</text>
<text text-anchor="start" x="8" y="-856.3" font-family="monospace" font-size="14.00">    StructProperty UberGraphFrame</text>
<text text-anchor="start" x="8" y="-841.3" font-family="monospace" font-size="14.00">      CPF_Transient|CPF_DuplicateTransient</text>
<text text-anchor="start" x="8" y="-826.3" font-family="monospace" font-size="14.00">    FloatProperty MaxDistance</text>
<text text-anchor="start" x="8" y="-811.3" font-family="monospace" font-size="14.00">      CPF_Edit|CPF_BlueprintVisible</text>
<text text-anchor="start" x="8" y="-796.3" font-family="monospace" font-size="14.00">    BoolProperty MustBeAlive</text>
<text text-anchor="start" x="8" y="-781.3" font-family="monospace" font-size="14.00">      CPF_Edit|CPF_BlueprintVisible</text>
<text text-anchor="start" x="8" y="-766.3" font-family="monospace" font-size="14.00">    StructProperty PlayerKey</text>
<text text-anchor="start" x="8" y="-751.3" font-family="monospace" font-size="14.00">      CPF_Edit|CPF_BlueprintVisible</text>
</g>
<!-- ExecuteUbergraph_SER_FindPlayer -->
<g id="node2" class="node">
<title>ExecuteUbergraph_SER_FindPlayer</title>
<polygon fill="#ff8888" stroke="black" points="554,-781 554,-879 1024,-879 1024,-781 554,-781"/>
<text text-anchor="start" x="562" y="-863.8" font-family="monospace" font-size="14.00">Function ExecuteUbergraph_SER_FindPlayer</text>
<text text-anchor="start" x="562" y="-848.8" font-family="monospace" font-size="14.00">  IntProperty EntryPoint</text>
<text text-anchor="start" x="562" y="-833.8" font-family="monospace" font-size="14.00">    CPF_BlueprintVisible|CPF_BlueprintReadOnly|CPF_Parm</text>
<text text-anchor="start" x="562" y="-818.8" font-family="monospace" font-size="14.00">  ObjectProperty K2Node_Event_OwnerController</text>
<text text-anchor="start" x="562" y="-803.8" font-family="monospace" font-size="14.00">  ObjectProperty K2Node_Event_ControlledPawn</text>
<text text-anchor="start" x="562" y="-788.8" font-family="monospace" font-size="14.00">  FloatProperty K2Node_Event_DeltaSeconds</text>
</g>
<!-- ExecuteUbergraph_SER_FindPlayer__0 -->
<g id="node3" class="node">
<title>ExecuteUbergraph_SER_FindPlayer__0</title>
<polygon fill="#eeeeee" stroke="black" points="653,-586.5 653,-624.5 925,-624.5 925,-586.5 653,-586.5"/>
<text text-anchor="start" x="661" y="-609.3" font-family="monospace" font-size="14.00">EX_ComputedJump</text>
<text text-anchor="start" x="661" y="-594.3" font-family="monospace" font-size="14.00">  EX_LocalVariable [EntryPoint]</text>
</g>
<!-- ExecuteUbergraph_SER_FindPlayer&#45;&gt;ExecuteUbergraph_SER_FindPlayer__0 -->
<g id="edge1" class="edge">
<title>ExecuteUbergraph_SER_FindPlayer&#45;&gt;ExecuteUbergraph_SER_FindPlayer__0</title>
<path fill="none" stroke="black" d="M789,-781.27C789,-737.1 789,-672.84 789,-635.8"/>
<polygon fill="black" stroke="black" points="792.5,-635.86 789,-625.86 785.5,-635.86 792.5,-635.86"/>
</g>
<!-- ExecuteUbergraph_SER_FindPlayer__10 -->
<g id="node4" class="node">
<title>ExecuteUbergraph_SER_FindPlayer__10</title>
<polygon fill="#eeeeee" stroke="black" points="1400.5,-91.5 1400.5,-129.5 1813.5,-129.5 1813.5,-91.5 1400.5,-91.5"/>
<text text-anchor="start" x="1408.5" y="-114.3" font-family="monospace" font-size="14.00">EX_LocalVirtualFunction FindNearestPlayer</text>
<text text-anchor="start" x="1408.5" y="-99.3" font-family="monospace" font-size="14.00">  EX_LocalVariable [K2Node_Event_ControlledPawn]</text>
</g>
<!-- ExecuteUbergraph_SER_FindPlayer__33 -->
<g id="node5" class="node">
<title>ExecuteUbergraph_SER_FindPlayer__33</title>
<polygon fill="#eeeeee" stroke="black" points="1549,-0.5 1549,-38.5 1665,-38.5 1665,-0.5 1549,-0.5"/>
<text text-anchor="start" x="1557" y="-23.3" font-family="monospace" font-size="14.00">EX_Return</text>
<text text-anchor="start" x="1557" y="-8.3" font-family="monospace" font-size="14.00">  EX_Nothing</text>
</g>
<!-- ExecuteUbergraph_SER_FindPlayer__10&#45;&gt;ExecuteUbergraph_SER_FindPlayer__33 -->
<g id="edge2" class="edge">
<title>ExecuteUbergraph_SER_FindPlayer__10&#45;&gt;ExecuteUbergraph_SER_FindPlayer__33</title>
<path fill="none" stroke="black" d="M1607,-91.92C1607,-79.93 1607,-63.76 1607,-49.84"/>
<polygon fill="black" stroke="black" points="1610.5,-49.87 1607,-39.87 1603.5,-49.87 1610.5,-49.87"/>
</g>
<!-- ExecuteUbergraph_SER_FindPlayer__35 -->
<g id="node6" class="node">
<title>ExecuteUbergraph_SER_FindPlayer__35</title>
<polygon fill="#eeeeee" stroke="black" points="1748,-688.5 1748,-724.5 1880,-724.5 1880,-688.5 1748,-688.5"/>
<text text-anchor="start" x="1756" y="-702.8" font-family="monospace" font-size="14.00">EX_EndOfScript</text>
</g>
<!-- ReceiveTickAI -->
<g id="node7" class="node">
<title>ReceiveTickAI</title>
<polygon fill="#ff8888" stroke="black" points="1042,-773.5 1042,-886.5 1512,-886.5 1512,-773.5 1042,-773.5"/>
<text text-anchor="start" x="1050" y="-871.3" font-family="monospace" font-size="14.00">Function ReceiveTickAI</text>
<text text-anchor="start" x="1050" y="-856.3" font-family="monospace" font-size="14.00">  ObjectProperty OwnerController</text>
<text text-anchor="start" x="1050" y="-841.3" font-family="monospace" font-size="14.00">    CPF_BlueprintVisible|CPF_BlueprintReadOnly|CPF_Parm</text>
<text text-anchor="start" x="1050" y="-826.3" font-family="monospace" font-size="14.00">  ObjectProperty ControlledPawn</text>
<text text-anchor="start" x="1050" y="-811.3" font-family="monospace" font-size="14.00">    CPF_BlueprintVisible|CPF_BlueprintReadOnly|CPF_Parm</text>
<text text-anchor="start" x="1050" y="-796.3" font-family="monospace" font-size="14.00">  FloatProperty DeltaSeconds</text>
<text text-anchor="start" x="1050" y="-781.3" font-family="monospace" font-size="14.00">    CPF_BlueprintVisible|CPF_BlueprintReadOnly|CPF_Parm</text>
</g>
<!-- ReceiveTickAI__0 -->
<g id="node8" class="node">
<title>ReceiveTickAI__0</title>
<polygon fill="#eeeeee" stroke="black" points="1025.5,-586.5 1025.5,-624.5 1528.5,-624.5 1528.5,-586.5 1025.5,-586.5"/>
<text text-anchor="start" x="1033.5" y="-609.3" font-family="monospace" font-size="14.00">EX_LetValueOnPersistentFrame [K2Node_Event_OwnerController]</text>
<text text-anchor="start" x="1033.5" y="-594.3" font-family="monospace" font-size="14.00">  EX_LocalVariable [OwnerController]</text>
</g>
<!-- ReceiveTickAI&#45;&gt;ReceiveTickAI__0 -->
<g id="edge3" class="edge">
<title>ReceiveTickAI&#45;&gt;ReceiveTickAI__0</title>
<path fill="none" stroke="black" d="M1277,-773.71C1277,-729.96 1277,-670.6 1277,-635.64"/>
<polygon fill="black" stroke="black" points="1280.5,-635.87 1277,-625.87 1273.5,-635.87 1280.5,-635.87"/>
</g>
<!-- ReceiveTickAI__18 -->
<g id="node9" class="node">
<title>ReceiveTickAI__18</title>
<polygon fill="#eeeeee" stroke="black" points="1029.5,-422 1029.5,-460 1524.5,-460 1524.5,-422 1029.5,-422"/>
<text text-anchor="start" x="1037.5" y="-444.8" font-family="monospace" font-size="14.00">EX_LetValueOnPersistentFrame [K2Node_Event_ControlledPawn]</text>
<text text-anchor="start" x="1037.5" y="-429.8" font-family="monospace" font-size="14.00">  EX_LocalVariable [ControlledPawn]</text>
</g>
<!-- ReceiveTickAI__0&#45;&gt;ReceiveTickAI__18 -->
<g id="edge4" class="edge">
<title>ReceiveTickAI__0&#45;&gt;ReceiveTickAI__18</title>
<path fill="none" stroke="black" d="M1277,-586.8C1277,-558.96 1277,-504.66 1277,-471.04"/>
<polygon fill="black" stroke="black" points="1280.5,-471.19 1277,-461.19 1273.5,-471.19 1280.5,-471.19"/>
</g>
<!-- ReceiveTickAI__36 -->
<g id="node10" class="node">
<title>ReceiveTickAI__36</title>
<polygon fill="#eeeeee" stroke="black" points="1037.5,-287.5 1037.5,-325.5 1516.5,-325.5 1516.5,-287.5 1037.5,-287.5"/>
<text text-anchor="start" x="1045.5" y="-310.3" font-family="monospace" font-size="14.00">EX_LetValueOnPersistentFrame [K2Node_Event_DeltaSeconds]</text>
<text text-anchor="start" x="1045.5" y="-295.3" font-family="monospace" font-size="14.00">  EX_LocalVariable [DeltaSeconds]</text>
</g>
<!-- ReceiveTickAI__18&#45;&gt;ReceiveTickAI__36 -->
<g id="edge5" class="edge">
<title>ReceiveTickAI__18&#45;&gt;ReceiveTickAI__36</title>
<path fill="none" stroke="black" d="M1277,-422.13C1277,-400.18 1277,-362.64 1277,-336.53"/>
<polygon fill="black" stroke="black" points="1280.5,-336.6 1277,-326.6 1273.5,-336.6 1280.5,-336.6"/>
</g>
<!-- ReceiveTickAI__54 -->
<g id="node11" class="node">
<title>ReceiveTickAI__54</title>
<polygon fill="#eeeeee" stroke="black" points="947,-196.5 947,-234.5 1607,-234.5 1607,-196.5 947,-196.5"/>
<text text-anchor="start" x="955" y="-219.3" font-family="monospace" font-size="14.00">EX_LocalFinalFunction export SER_FindPlayer_C&#45;&gt;ExecuteUbergraph_SER_FindPlayer</text>
<text text-anchor="start" x="955" y="-204.3" font-family="monospace" font-size="14.00">  EX_IntConst 10</text>
</g>
<!-- ReceiveTickAI__36&#45;&gt;ReceiveTickAI__54 -->
<g id="edge6" class="edge">
<title>ReceiveTickAI__36&#45;&gt;ReceiveTickAI__54</title>
<path fill="none" stroke="black" d="M1277,-287.92C1277,-275.93 1277,-259.76 1277,-245.84"/>
<polygon fill="black" stroke="black" points="1280.5,-245.87 1277,-235.87 1273.5,-245.87 1280.5,-245.87"/>
</g>
<!-- ReceiveTickAI__54&#45;&gt;ExecuteUbergraph_SER_FindPlayer__10 -->
<g id="edge7" class="edge">
<title>ReceiveTickAI__54:e&#45;&gt;ExecuteUbergraph_SER_FindPlayer__10</title>
<path fill="none" stroke="red" d="M1608,-215.5C1638.39,-215.5 1628.39,-170.54 1617.97,-139.74"/>
<polygon fill="none" stroke="red" points="1621.35,-138.81 1614.69,-130.57 1614.76,-141.16 1621.35,-138.81"/>
</g>
<!-- ReceiveTickAI__69 -->
<g id="node12" class="node">
<title>ReceiveTickAI__69</title>
<polygon fill="#eeeeee" stroke="black" points="1219,-91.5 1219,-129.5 1335,-129.5 1335,-91.5 1219,-91.5"/>
<text text-anchor="start" x="1227" y="-114.3" font-family="monospace" font-size="14.00">EX_Return</text>
<text text-anchor="start" x="1227" y="-99.3" font-family="monospace" font-size="14.00">  EX_Nothing</text>
</g>
<!-- ReceiveTickAI__54&#45;&gt;ReceiveTickAI__69 -->
<g id="edge8" class="edge">
<title>ReceiveTickAI__54&#45;&gt;ReceiveTickAI__69</title>
<path fill="none" stroke="black" d="M1277,-196.56C1277,-181.12 1277,-158.57 1277,-140.56"/>
<polygon fill="black" stroke="black" points="1280.5,-140.75 1277,-130.75 1273.5,-140.75 1280.5,-140.75"/>
</g>
<!-- ReceiveTickAI__71 -->
<g id="node13" class="node">
<title>ReceiveTickAI__71</title>
<polygon fill="#eeeeee" stroke="black" points="1748,-486.5 1748,-522.5 1880,-522.5 1880,-486.5 1748,-486.5"/>
<text text-anchor="start" x="1756" y="-500.8" font-family="monospace" font-size="14.00">EX_EndOfScript</text>
</g>
<!-- FindNearestPlayer -->
<g id="node14" class="node">
<title>FindNearestPlayer</title>
<polygon fill="#ff8888" stroke="black" points="2055.5,-773.5 2055.5,-886.5 2558.5,-886.5 2558.5,-773.5 2055.5,-773.5"/>
<text text-anchor="start" x="2063.5" y="-871.3" font-family="monospace" font-size="14.00">Function FindNearestPlayer</text>
<text text-anchor="start" x="2063.5" y="-856.3" font-family="monospace" font-size="14.00">  ObjectProperty From</text>
<text text-anchor="start" x="2063.5" y="-841.3" font-family="monospace" font-size="14.00">    CPF_BlueprintVisible|CPF_BlueprintReadOnly|CPF_Parm</text>
<text text-anchor="start" x="2063.5" y="-826.3" font-family="monospace" font-size="14.00">  ObjectProperty NewPlayer</text>
<text text-anchor="start" x="2063.5" y="-811.3" font-family="monospace" font-size="14.00">    CPF_Edit|CPF_BlueprintVisible|CPF_DisableEditOnTemplate</text>
<text text-anchor="start" x="2063.5" y="-796.3" font-family="monospace" font-size="14.00">  BoolProperty CallFunc_IsValid_ReturnValue</text>
<text text-anchor="start" x="2063.5" y="-781.3" font-family="monospace" font-size="14.00">  ObjectProperty CallFunc_GetNearestPlayer_ReturnValue</text>
</g>
<!-- FindNearestPlayer__0 -->
<g id="node15" class="node">
<title>FindNearestPlayer__0</title>
<polygon fill="#eeeeee" stroke="black" points="1960.5,-541.5 1960.5,-669.5 2653.5,-669.5 2653.5,-541.5 1960.5,-541.5"/>
<text text-anchor="start" x="1968.5" y="-654.3" font-family="monospace" font-size="14.00">EX_LetObj</text>
<text text-anchor="start" x="1968.5" y="-639.3" font-family="monospace" font-size="14.00">  EX_LocalVariable [CallFunc_GetNearestPlayer_ReturnValue]</text>
<text text-anchor="start" x="1968.5" y="-624.3" font-family="monospace" font-size="14.00">  EX_CallMath import /Script/FSD&#45;&gt;PlayerCharacterFunctionLibrary&#45;&gt;GetNearestPlayer</text>
<text text-anchor="start" x="1968.5" y="-609.3" font-family="monospace" font-size="14.00">    EX_LocalVariable [From]</text>
<text text-anchor="start" x="1968.5" y="-594.3" font-family="monospace" font-size="14.00">    EX_InstanceVariable [MaxDistance]</text>
<text text-anchor="start" x="1968.5" y="-579.3" font-family="monospace" font-size="14.00">    EX_InstanceVariable [MustBeAlive]</text>
<text text-anchor="start" x="1968.5" y="-564.3" font-family="monospace" font-size="14.00">    EX_False</text>
<text text-anchor="start" x="1968.5" y="-549.3" font-family="monospace" font-size="14.00">    EX_False</text>
</g>
<!-- FindNearestPlayer&#45;&gt;FindNearestPlayer__0 -->
<g id="edge9" class="edge">
<title>FindNearestPlayer&#45;&gt;FindNearestPlayer__0</title>
<path fill="none" stroke="black" d="M2307,-773.71C2307,-745.64 2307,-711.14 2307,-680.78"/>
<polygon fill="black" stroke="black" points="2310.5,-680.88 2307,-670.88 2303.5,-680.88 2310.5,-680.88"/>
</g>
<!-- FindNearestPlayer__49 -->
<g id="node16" class="node">
<title>FindNearestPlayer__49</title>
<polygon fill="#eeeeee" stroke="black" points="2059.5,-414.5 2059.5,-467.5 2554.5,-467.5 2554.5,-414.5 2059.5,-414.5"/>
<text text-anchor="start" x="2067.5" y="-452.3" font-family="monospace" font-size="14.00">EX_LetObj</text>
<text text-anchor="start" x="2067.5" y="-437.3" font-family="monospace" font-size="14.00">  EX_LocalVariable [NewPlayer]</text>
<text text-anchor="start" x="2067.5" y="-422.3" font-family="monospace" font-size="14.00">  EX_LocalVariable [CallFunc_GetNearestPlayer_ReturnValue]</text>
</g>
<!-- FindNearestPlayer__0&#45;&gt;FindNearestPlayer__49 -->
<g id="edge10" class="edge">
<title>FindNearestPlayer__0&#45;&gt;FindNearestPlayer__49</title>
<path fill="none" stroke="black" d="M2307,-541.67C2307,-520.43 2307,-497.41 2307,-478.85"/>
<polygon fill="black" stroke="black" points="2310.5,-478.87 2307,-468.87 2303.5,-478.87 2310.5,-478.87"/>
</g>
<!-- FindNearestPlayer__68 -->
<g id="node17" class="node">
<title>FindNearestPlayer__68</title>
<polygon fill="#eeeeee" stroke="black" points="2030.5,-272.5 2030.5,-340.5 2583.5,-340.5 2583.5,-272.5 2030.5,-272.5"/>
<text text-anchor="start" x="2038.5" y="-325.3" font-family="monospace" font-size="14.00">EX_LetBool</text>
<text text-anchor="start" x="2038.5" y="-310.3" font-family="monospace" font-size="14.00">  EX_LocalVariable [CallFunc_IsValid_ReturnValue]</text>
<text text-anchor="start" x="2038.5" y="-295.3" font-family="monospace" font-size="14.00">  EX_CallMath import /Script/Engine&#45;&gt;KismetSystemLibrary&#45;&gt;IsValid</text>
<text text-anchor="start" x="2038.5" y="-280.3" font-family="monospace" font-size="14.00">    EX_LocalVariable [NewPlayer]</text>
</g>
<!-- FindNearestPlayer__49&#45;&gt;FindNearestPlayer__68 -->
<g id="edge11" class="edge">
<title>FindNearestPlayer__49&#45;&gt;FindNearestPlayer__68</title>
<path fill="none" stroke="black" d="M2307,-414.77C2307,-396.9 2307,-372.47 2307,-351.44"/>
<polygon fill="black" stroke="black" points="2310.5,-351.69 2307,-341.69 2303.5,-351.69 2310.5,-351.69"/>
</g>
<!-- FindNearestPlayer__97 -->
<g id="node18" class="node">
<title>FindNearestPlayer__97</title>
<polygon fill="#eeeeee" stroke="black" points="2096.5,-196.5 2096.5,-234.5 2517.5,-234.5 2517.5,-196.5 2096.5,-196.5"/>
<text text-anchor="start" x="2104.5" y="-219.3" font-family="monospace" font-size="14.00">EX_JumpIfNot 140</text>
<text text-anchor="start" x="2104.5" y="-204.3" font-family="monospace" font-size="14.00">  EX_LocalVariable [CallFunc_IsValid_ReturnValue]</text>
</g>
<!-- FindNearestPlayer__68&#45;&gt;FindNearestPlayer__97 -->
<g id="edge12" class="edge">
<title>FindNearestPlayer__68&#45;&gt;FindNearestPlayer__97</title>
<path fill="none" stroke="black" d="M2307,-272.61C2307,-263.79 2307,-254.32 2307,-245.72"/>
<polygon fill="black" stroke="black" points="2310.5,-245.8 2307,-235.8 2303.5,-245.8 2310.5,-245.8"/>
</g>
<!-- FindNearestPlayer__111 -->
<g id="node19" class="node">
<title>FindNearestPlayer__111</title>
<polygon fill="#eeeeee" stroke="black" points="1831.5,-76.5 1831.5,-144.5 2524.5,-144.5 2524.5,-76.5 1831.5,-76.5"/>
<text text-anchor="start" x="1839.5" y="-129.3" font-family="monospace" font-size="14.00">EX_CallMath import /Script/AIModule&#45;&gt;BTFunctionLibrary&#45;&gt;SetBlackboardValueAsObject</text>
<text text-anchor="start" x="1839.5" y="-114.3" font-family="monospace" font-size="14.00">  EX_Self</text>
<text text-anchor="start" x="1839.5" y="-99.3" font-family="monospace" font-size="14.00">  EX_InstanceVariable [PlayerKey]</text>
<text text-anchor="start" x="1839.5" y="-84.3" font-family="monospace" font-size="14.00">  EX_LocalVariable [NewPlayer]</text>
</g>
<!-- FindNearestPlayer__97&#45;&gt;FindNearestPlayer__111 -->
<g id="edge14" class="edge">
<title>FindNearestPlayer__97&#45;&gt;FindNearestPlayer__111</title>
<path fill="none" stroke="black" d="M2284.53,-196.56C2268.94,-184.11 2247.56,-167.04 2228.03,-151.45"/>
<polygon fill="black" stroke="black" points="2230.4,-148.86 2220.4,-145.36 2226.03,-154.33 2230.4,-148.86"/>
<text text-anchor="middle" x="2266.5" y="-166.8" font-family="monospace" font-size="14.00">IF</text>
</g>
<!-- FindNearestPlayer__140 -->
<g id="node20" class="node">
<title>FindNearestPlayer__140</title>
<polygon fill="#eeeeee" stroke="black" points="2401,-0.5 2401,-38.5 2517,-38.5 2517,-0.5 2401,-0.5"/>
<text text-anchor="start" x="2409" y="-23.3" font-family="monospace" font-size="14.00">EX_Return</text>
<text text-anchor="start" x="2409" y="-8.3" font-family="monospace" font-size="14.00">  EX_Nothing</text>
</g>
<!-- FindNearestPlayer__97&#45;&gt;FindNearestPlayer__140 -->
<g id="edge13" class="edge">
<title>FindNearestPlayer__97:e&#45;&gt;FindNearestPlayer__140</title>
<path fill="none" stroke="red" d="M2519,-215.5C2581.36,-215.5 2562.07,-131.68 2534,-76 2527.61,-63.33 2516.82,-52.83 2505.38,-44.51"/>
<polygon fill="none" stroke="red" points="2507.65,-41.81 2497.39,-39.14 2503.74,-47.62 2507.65,-41.81"/>
<text text-anchor="middle" x="2582" y="-106.8" font-family="monospace" font-size="14.00">IF NOT</text>
</g>
<!-- FindNearestPlayer__111&#45;&gt;FindNearestPlayer__140 -->
<g id="edge15" class="edge">
<title>FindNearestPlayer__111&#45;&gt;FindNearestPlayer__140</title>
<path fill="none" stroke="black" d="M2281.84,-76.61C2318.5,-65 2358.74,-52.26 2391.59,-41.85"/>
<polygon fill="black" stroke="black" points="2392.51,-45.23 2400.99,-38.87 2390.4,-38.56 2392.51,-45.23"/>
</g>
<!-- FindNearestPlayer__142 -->
<g id="node21" class="node">
<title>FindNearestPlayer__142</title>
<polygon fill="#eeeeee" stroke="black" points="2322,-359.5 2322,-395.5 2454,-395.5 2454,-359.5 2322,-359.5"/>
<text text-anchor="start" x="2330" y="-373.8" font-family="monospace" font-size="14.00">EX_EndOfScript</text>
</g>
</g>
</svg>
