<?xml version="1.0" encoding="UTF-8" standalone="no"?>
<!DOCTYPE svg PUBLIC "-//W3C//DTD SVG 1.1//EN"
 "http://www.w3.org/Graphics/SVG/1.1/DTD/svg11.dtd">
<!-- Generated by graphviz version 7.0.1 (0)
 -->
<!-- Pages: 1 -->
<svg width="2966pt" height="1480pt"
 viewBox="0.00 0.00 2966.00 1480.00" xmlns="http://www.w3.org/2000/svg" xmlns:xlink="http://www.w3.org/1999/xlink">
<g id="graph0" class="graph" transform="scale(1 1) rotate(0) translate(4 1476)">
<polygon fill="white" stroke="none" points="-4,4 -4,-1476 2962,-1476 2962,4 -4,4"/>
<!-- BP_OxygenTank_C -->
<g id="node1" class="node">
<title>BP_OxygenTank_C</title>
<polygon fill="#88ff88" stroke="black" points="0,-1238.5 0,-1471.5 594,-1471.5 594,-1238.5 0,-1238.5"/>
<text text-anchor="start" x="8" y="-1456.3" font-family="monospace" font-size="14.00">ClassExport: BP_OxygenTank_C</text>
<text text-anchor="start" x="8" y="-1441.3" font-family="monospace" font-size="14.00">  SuperStruct: import /Script/Engine&#45;&gt;Actor</text>
<text text-anchor="start" x="8" y="-1426.3" font-family="monospace" font-size="14.00">  Properties:</text>
<text text-anchor="start" x="8" y="-1411.3" font-family="monospace" font-size="14.00">    StructProperty UberGraphFrame</text>
<text text-anchor="start" x="8" y="-1396.3" font-family="monospace" font-size="14.00">      CPF_Transient|CPF_DuplicateTransient</text>
<text text-anchor="start" x="8" y="-1381.3" font-family="monospace" font-size="14.00">    ObjectProperty FrontPlane</text>
<text text-anchor="start" x="8" y="-1366.3" font-family="monospace" font-size="14.00">      CPF_BlueprintVisible|CPF_InstancedReference|CPF_NonTransactional</text>
<text text-anchor="start" x="8" y="-1351.3" font-family="monospace" font-size="14.00">    ObjectProperty SM_Screen_005</text>
<text text-anchor="start" x="8" y="-1336.3" font-family="monospace" font-size="14.00">      CPF_BlueprintVisible|CPF_InstancedReference|CPF_NonTransactional</text>
<text text-anchor="start" x="8" y="-1321.3" font-family="monospace" font-size="14.00">    ObjectProperty P_GasCanister_air_Mule1</text>
<text text-anchor="start" x="8" y="-1306.3" font-family="monospace" font-size="14.00">      CPF_BlueprintVisible|CPF_InstancedReference|CPF_NonTransactional</text>
<text text-anchor="start" x="8" y="-1291.3" font-family="monospace" font-size="14.00">    ObjectProperty SM_GasCanister</text>
<text text-anchor="start" x="8" y="-1276.3" font-family="monospace" font-size="14.00">      CPF_BlueprintVisible|CPF_InstancedReference|CPF_NonTransactional</text>
<text text-anchor="start" x="8" y="-1261.3" font-family="monospace" font-size="14.00">    ObjectProperty DefaultSceneRoot</text>
<text text-anchor="start" x="8" y="-1246.3" font-family="monospace" font-size="14.00">      CPF_BlueprintVisible|CPF_InstancedReference|CPF_NonTransactional</text>
</g>
<!-- ExecuteUbergraph_BP_OxygenTank -->
<g id="node2" class="node">
<title>ExecuteUbergraph_BP_OxygenTank</title>
<polygon fill="#ff8888" stroke="black" points="612.5,-1276 612.5,-1434 1099.5,-1434 1099.5,-1276 612.5,-1276"/>
<text text-anchor="start" x="620.5" y="-1418.8" font-family="monospace" font-size="14.00">Function ExecuteUbergraph_BP_OxygenTank</text>
<text text-anchor="start" x="620.5" y="-1403.8" font-family="monospace" font-size="14.00">  IntProperty EntryPoint</text>
<text text-anchor="start" x="620.5" y="-1388.8" font-family="monospace" font-size="14.00">    CPF_BlueprintVisible|CPF_BlueprintReadOnly|CPF_Parm</text>
<text text-anchor="start" x="620.5" y="-1373.8" font-family="monospace" font-size="14.00">  BoolProperty K2Node_CustomEvent_isActive</text>
<text text-anchor="start" x="620.5" y="-1358.8" font-family="monospace" font-size="14.00">  DelegateProperty K2Node_CreateDelegate_OutputDelegate</text>
<text text-anchor="start" x="620.5" y="-1343.8" font-family="monospace" font-size="14.00">  ObjectProperty CallFunc_GetFSDGameInstance_ReturnValue</text>
<text text-anchor="start" x="620.5" y="-1328.8" font-family="monospace" font-size="14.00">  BoolProperty CallFunc_IsMutatorActive_ReturnValue</text>
<text text-anchor="start" x="620.5" y="-1313.8" font-family="monospace" font-size="14.00">  ObjectProperty CallFunc_GetParentActor_ReturnValue</text>
<text text-anchor="start" x="620.5" y="-1298.8" font-family="monospace" font-size="14.00">  ObjectProperty CallFunc_GetComponentByClass_ReturnValue</text>
<text text-anchor="start" x="620.5" y="-1283.8" font-family="monospace" font-size="14.00">    CPF_InstancedReference</text>
</g>
<!-- ExecuteUbergraph_BP_OxygenTank__0 -->
<g id="node3" class="node">
<title>ExecuteUbergraph_BP_OxygenTank__0</title>
<polygon fill="#eeeeee" stroke="black" points="720,-1126.5 720,-1164.5 992,-1164.5 992,-1126.5 720,-1126.5"/>
<text text-anchor="start" x="728" y="-1149.3" font-family="monospace" font-size="14.00">EX_ComputedJump</text>
<text text-anchor="start" x="728" y="-1134.3" font-family="monospace" font-size="14.00">  EX_LocalVariable [EntryPoint]</text>
</g>
<!-- ExecuteUbergraph_BP_OxygenTank&#45;&gt;ExecuteUbergraph_BP_OxygenTank__0 -->
<g id="edge1" class="edge">
<title>ExecuteUbergraph_BP_OxygenTank&#45;&gt;ExecuteUbergraph_BP_OxygenTank__0</title>
<path fill="none" stroke="black" d="M856,-1276.14C856,-1241 856,-1201.62 856,-1175.59"/>
<polygon fill="black" stroke="black" points="859.5,-1175.8 856,-1165.8 852.5,-1175.8 859.5,-1175.8"/>
</g>
<!-- ExecuteUbergraph_BP_OxygenTank__10 -->
<g id="node4" class="node">
<title>ExecuteUbergraph_BP_OxygenTank__10</title>
<polygon fill="#eeeeee" stroke="black" points="2377.5,-338 2377.5,-376 2790.5,-376 2790.5,-338 2377.5,-338"/>
<text text-anchor="start" x="2385.5" y="-360.8" font-family="monospace" font-size="14.00">EX_JumpIfNot 66</text>
<text text-anchor="start" x="2385.5" y="-345.8" font-family="monospace" font-size="14.00">  EX_LocalVariable [K2Node_CustomEvent_isActive]</text>
</g>
<!-- ExecuteUbergraph_BP_OxygenTank__24 -->
<g id="node5" class="node">
<title>ExecuteUbergraph_BP_OxygenTank__24</title>
<polygon fill="#eeeeee" stroke="black" points="2085,-158 2085,-241 2489,-241 2489,-158 2085,-158"/>
<text text-anchor="start" x="2093" y="-225.8" font-family="monospace" font-size="14.00">EX_Context</text>
<text text-anchor="start" x="2093" y="-210.8" font-family="monospace" font-size="14.00">  EX_InstanceVariable [P_GasCanister_air_Mule1]</text>
<text text-anchor="start" x="2093" y="-195.8" font-family="monospace" font-size="14.00">  EX_VirtualFunction Activate</text>
<text text-anchor="start" x="2093" y="-180.8" font-family="monospace" font-size="14.00">    EX_True</text>
<text text-anchor="start" x="2093" y="-165.8" font-family="monospace" font-size="14.00">  RValue = []</text>
</g>
<!-- ExecuteUbergraph_BP_OxygenTank__10&#45;&gt;ExecuteUbergraph_BP_OxygenTank__24 -->
<g id="edge3" class="edge">
<title>ExecuteUbergraph_BP_OxygenTank__10&#45;&gt;ExecuteUbergraph_BP_OxygenTank__24</title>
<path fill="none" stroke="black" d="M2549.64,-338.01C2507.06,-315.72 2432.95,-276.91 2374.29,-246.2"/>
<polygon fill="black" stroke="black" points="2376.09,-243.2 2365.61,-241.66 2372.85,-249.4 2376.09,-243.2"/>
<text text-anchor="middle" x="2443.5" y="-270.8" font-family="monospace" font-size="14.00">IF</text>
</g>
<!-- ExecuteUbergraph_BP_OxygenTank__66 -->
<g id="node7" class="node">
<title>ExecuteUbergraph_BP_OxygenTank__66</title>
<polygon fill="#eeeeee" stroke="black" points="2554,-165.5 2554,-233.5 2958,-233.5 2958,-165.5 2554,-165.5"/>
<text text-anchor="start" x="2562" y="-218.3" font-family="monospace" font-size="14.00">EX_Context</text>
<text text-anchor="start" x="2562" y="-203.3" font-family="monospace" font-size="14.00">  EX_InstanceVariable [P_GasCanister_air_Mule1]</text>
<text text-anchor="start" x="2562" y="-188.3" font-family="monospace" font-size="14.00">  EX_VirtualFunction Deactivate</text>
<text text-anchor="start" x="2562" y="-173.3" font-family="monospace" font-size="14.00">  RValue = []</text>
</g>
<!-- ExecuteUbergraph_BP_OxygenTank__10&#45;&gt;ExecuteUbergraph_BP_OxygenTank__66 -->
<g id="edge2" class="edge">
<title>ExecuteUbergraph_BP_OxygenTank__10:e&#45;&gt;ExecuteUbergraph_BP_OxygenTank__66</title>
<path fill="none" stroke="red" d="M2792,-357C2838.88,-357 2808.64,-289.47 2782.37,-243.13"/>
<polygon fill="none" stroke="red" points="2785.48,-241.52 2777.44,-234.62 2779.42,-245.03 2785.48,-241.52"/>
<text text-anchor="middle" x="2825" y="-270.8" font-family="monospace" font-size="14.00">IF NOT</text>
</g>
<!-- ExecuteUbergraph_BP_OxygenTank__61 -->
<g id="node6" class="node">
<title>ExecuteUbergraph_BP_OxygenTank__61</title>
<polygon fill="#eeeeee" stroke="black" points="2015.5,-76.5 2015.5,-112.5 2122.5,-112.5 2122.5,-76.5 2015.5,-76.5"/>
<text text-anchor="start" x="2023.5" y="-90.8" font-family="monospace" font-size="14.00">EX_Jump 347</text>
</g>
<!-- ExecuteUbergraph_BP_OxygenTank__24&#45;&gt;ExecuteUbergraph_BP_OxygenTank__61 -->
<g id="edge4" class="edge">
<title>ExecuteUbergraph_BP_OxygenTank__24&#45;&gt;ExecuteUbergraph_BP_OxygenTank__61</title>
<path fill="none" stroke="black" d="M2201.47,-158.09C2172.03,-144.18 2140.2,-129.14 2115.12,-117.29"/>
<polygon fill="black" stroke="black" points="2116.72,-114.17 2106.18,-113.07 2113.73,-120.5 2116.72,-114.17"/>
</g>
<!-- ExecuteUbergraph_BP_OxygenTank__347 -->
<g id="node18" class="node">
<title>ExecuteUbergraph_BP_OxygenTank__347</title>
<polygon fill="#eeeeee" stroke="black" points="1917,-0.5 1917,-38.5 2033,-38.5 2033,-0.5 1917,-0.5"/>
<text text-anchor="start" x="1925" y="-23.3" font-family="monospace" font-size="14.00">EX_Return</text>
<text text-anchor="start" x="1925" y="-8.3" font-family="monospace" font-size="14.00">  EX_Nothing</text>
</g>
<!-- ExecuteUbergraph_BP_OxygenTank__61&#45;&gt;ExecuteUbergraph_BP_OxygenTank__347 -->
<g id="edge5" class="edge">
<title>ExecuteUbergraph_BP_OxygenTank__61&#45;&gt;ExecuteUbergraph_BP_OxygenTank__347</title>
<path fill="none" stroke="black" d="M2047.2,-76.57C2035.21,-67.26 2020.12,-55.54 2006.84,-45.23"/>
<polygon fill="black" stroke="black" points="2009.24,-42.66 1999.19,-39.29 2004.94,-48.18 2009.24,-42.66"/>
</g>
<!-- ExecuteUbergraph_BP_OxygenTank__102 -->
<g id="node8" class="node">
<title>ExecuteUbergraph_BP_OxygenTank__102</title>
<polygon fill="#eeeeee" stroke="black" points="2152.5,-76.5 2152.5,-112.5 2259.5,-112.5 2259.5,-76.5 2152.5,-76.5"/>
<text text-anchor="start" x="2160.5" y="-90.8" font-family="monospace" font-size="14.00">EX_Jump 347</text>
</g>
<!-- ExecuteUbergraph_BP_OxygenTank__66&#45;&gt;ExecuteUbergraph_BP_OxygenTank__102 -->
<g id="edge6" class="edge">
<title>ExecuteUbergraph_BP_OxygenTank__66&#45;&gt;ExecuteUbergraph_BP_OxygenTank__102</title>
<path fill="none" stroke="black" d="M2580.79,-165.53C2553.09,-160.33 2524.77,-155.01 2498,-150 2419.67,-135.33 2329.5,-118.51 2270.33,-107.48"/>
<polygon fill="black" stroke="black" points="2271.25,-104.09 2260.78,-105.7 2269.96,-110.97 2271.25,-104.09"/>
</g>
<!-- ExecuteUbergraph_BP_OxygenTank__102&#45;&gt;ExecuteUbergraph_BP_OxygenTank__347 -->
<g id="edge7" class="edge">
<title>ExecuteUbergraph_BP_OxygenTank__102&#45;&gt;ExecuteUbergraph_BP_OxygenTank__347</title>
<path fill="none" stroke="black" d="M2152.71,-76.66C2119.87,-66.28 2077.46,-52.88 2042.31,-41.77"/>
<polygon fill="black" stroke="black" points="2043.68,-38.53 2033.09,-38.86 2041.57,-45.21 2043.68,-38.53"/>
</g>
<!-- ExecuteUbergraph_BP_OxygenTank__107 -->
<g id="node9" class="node">
<title>ExecuteUbergraph_BP_OxygenTank__107</title>
<polygon fill="#eeeeee" stroke="black" points="1392.5,-984.5 1392.5,-1052.5 2011.5,-1052.5 2011.5,-984.5 1392.5,-984.5"/>
<text text-anchor="start" x="1400.5" y="-1037.3" font-family="monospace" font-size="14.00">EX_LetObj</text>
<text text-anchor="start" x="1400.5" y="-1022.3" font-family="monospace" font-size="14.00">  EX_LocalVariable [CallFunc_GetFSDGameInstance_ReturnValue]</text>
<text text-anchor="start" x="1400.5" y="-1007.3" font-family="monospace" font-size="14.00">  EX_CallMath import /Script/FSD&#45;&gt;GameFunctionLibrary&#45;&gt;GetFSDGameInstance</text>
<text text-anchor="start" x="1400.5" y="-992.3" font-family="monospace" font-size="14.00">    EX_Self</text>
</g>
<!-- ExecuteUbergraph_BP_OxygenTank__128 -->
<g id="node10" class="node">
<title>ExecuteUbergraph_BP_OxygenTank__128</title>
<polygon fill="#eeeeee" stroke="black" points="1392.5,-797.5 1392.5,-910.5 2011.5,-910.5 2011.5,-797.5 1392.5,-797.5"/>
<text text-anchor="start" x="1400.5" y="-895.3" font-family="monospace" font-size="14.00">EX_LetBool</text>
<text text-anchor="start" x="1400.5" y="-880.3" font-family="monospace" font-size="14.00">  EX_LocalVariable [CallFunc_IsMutatorActive_ReturnValue]</text>
<text text-anchor="start" x="1400.5" y="-865.3" font-family="monospace" font-size="14.00">  EX_Context</text>
<text text-anchor="start" x="1400.5" y="-850.3" font-family="monospace" font-size="14.00">    EX_LocalVariable [CallFunc_GetFSDGameInstance_ReturnValue]</text>
<text text-anchor="start" x="1400.5" y="-835.3" font-family="monospace" font-size="14.00">    EX_FinalFunction import /Script/FSD&#45;&gt;FSDGameInstance&#45;&gt;IsMutatorActive</text>
<text text-anchor="start" x="1400.5" y="-820.3" font-family="monospace" font-size="14.00">      EX_ObjectConst import /Script/FSD&#45;&gt;NoOxygenMutator</text>
<text text-anchor="start" x="1400.5" y="-805.3" font-family="monospace" font-size="14.00">    RValue = [CallFunc_IsMutatorActive_ReturnValue]</text>
</g>
<!-- ExecuteUbergraph_BP_OxygenTank__107&#45;&gt;ExecuteUbergraph_BP_OxygenTank__128 -->
<g id="edge8" class="edge">
<title>ExecuteUbergraph_BP_OxygenTank__107&#45;&gt;ExecuteUbergraph_BP_OxygenTank__128</title>
<path fill="none" stroke="black" d="M1702,-984.62C1702,-966.45 1702,-943.22 1702,-921.45"/>
<polygon fill="black" stroke="black" points="1705.5,-921.75 1702,-911.75 1698.5,-921.75 1705.5,-921.75"/>
</g>
<!-- ExecuteUbergraph_BP_OxygenTank__179 -->
<g id="node11" class="node">
<title>ExecuteUbergraph_BP_OxygenTank__179</title>
<polygon fill="#eeeeee" stroke="black" points="1458.5,-683.5 1458.5,-721.5 1945.5,-721.5 1945.5,-683.5 1458.5,-683.5"/>
<text text-anchor="start" x="1466.5" y="-706.3" font-family="monospace" font-size="14.00">EX_JumpIfNot 333</text>
<text text-anchor="start" x="1466.5" y="-691.3" font-family="monospace" font-size="14.00">  EX_LocalVariable [CallFunc_IsMutatorActive_ReturnValue]</text>
</g>
<!-- ExecuteUbergraph_BP_OxygenTank__128&#45;&gt;ExecuteUbergraph_BP_OxygenTank__179 -->
<g id="edge9" class="edge">
<title>ExecuteUbergraph_BP_OxygenTank__128&#45;&gt;ExecuteUbergraph_BP_OxygenTank__179</title>
<path fill="none" stroke="black" d="M1702,-797.76C1702,-775.75 1702,-751.33 1702,-732.86"/>
<polygon fill="black" stroke="black" points="1705.5,-732.91 1702,-722.91 1698.5,-732.91 1705.5,-732.91"/>
</g>
<!-- ExecuteUbergraph_BP_OxygenTank__193 -->
<g id="node12" class="node">
<title>ExecuteUbergraph_BP_OxygenTank__193</title>
<polygon fill="#eeeeee" stroke="black" points="1434.5,-578.5 1434.5,-631.5 1921.5,-631.5 1921.5,-578.5 1434.5,-578.5"/>
<text text-anchor="start" x="1442.5" y="-616.3" font-family="monospace" font-size="14.00">EX_BindDelegate OnOxygenActivationChanged_Event_0</text>
<text text-anchor="start" x="1442.5" y="-601.3" font-family="monospace" font-size="14.00">  EX_LocalVariable [K2Node_CreateDelegate_OutputDelegate]</text>
<text text-anchor="start" x="1442.5" y="-586.3" font-family="monospace" font-size="14.00">  EX_Self</text>
</g>
<!-- ExecuteUbergraph_BP_OxygenTank__179&#45;&gt;ExecuteUbergraph_BP_OxygenTank__193 -->
<g id="edge11" class="edge">
<title>ExecuteUbergraph_BP_OxygenTank__179&#45;&gt;ExecuteUbergraph_BP_OxygenTank__193</title>
<path fill="none" stroke="black" d="M1697.49,-683.54C1694.57,-671.94 1690.68,-656.44 1687.13,-642.35"/>
<polygon fill="black" stroke="black" points="1690.6,-641.76 1684.77,-632.92 1683.81,-643.47 1690.6,-641.76"/>
<text text-anchor="middle" x="1701.5" y="-653.8" font-family="monospace" font-size="14.00">IF</text>
</g>
<!-- ExecuteUbergraph_BP_OxygenTank__333 -->
<g id="node17" class="node">
<title>ExecuteUbergraph_BP_OxygenTank__333</title>
<polygon fill="#eeeeee" stroke="black" points="1811.5,-523.5 1811.5,-559.5 2108.5,-559.5 2108.5,-523.5 1811.5,-523.5"/>
<text text-anchor="start" x="1819.5" y="-537.8" font-family="monospace" font-size="14.00">EX_VirtualFunction K2_DestroyActor</text>
</g>
<!-- ExecuteUbergraph_BP_OxygenTank__179&#45;&gt;ExecuteUbergraph_BP_OxygenTank__333 -->
<g id="edge10" class="edge">
<title>ExecuteUbergraph_BP_OxygenTank__179:e&#45;&gt;ExecuteUbergraph_BP_OxygenTank__333</title>
<path fill="none" stroke="red" d="M1947,-702.5C1999.43,-702.5 1981.82,-616.1 1968.8,-570.28"/>
<polygon fill="none" stroke="red" points="1972.18,-569.37 1965.98,-560.77 1965.47,-571.35 1972.18,-569.37"/>
<text text-anchor="middle" x="2008" y="-653.8" font-family="monospace" font-size="14.00">IF NOT</text>
</g>
<!-- ExecuteUbergraph_BP_OxygenTank__216 -->
<g id="node13" class="node">
<title>ExecuteUbergraph_BP_OxygenTank__216</title>
<polygon fill="#eeeeee" stroke="black" points="1392,-451.5 1392,-504.5 1928,-504.5 1928,-451.5 1392,-451.5"/>
<text text-anchor="start" x="1400" y="-489.3" font-family="monospace" font-size="14.00">EX_LetObj</text>
<text text-anchor="start" x="1400" y="-474.3" font-family="monospace" font-size="14.00">  EX_LocalVariable [CallFunc_GetParentActor_ReturnValue]</text>
<text text-anchor="start" x="1400" y="-459.3" font-family="monospace" font-size="14.00">  EX_FinalFunction import /Script/Engine&#45;&gt;Actor&#45;&gt;GetParentActor</text>
</g>
<!-- ExecuteUbergraph_BP_OxygenTank__193&#45;&gt;ExecuteUbergraph_BP_OxygenTank__216 -->
<g id="edge12" class="edge">
<title>ExecuteUbergraph_BP_OxygenTank__193&#45;&gt;ExecuteUbergraph_BP_OxygenTank__216</title>
<path fill="none" stroke="black" d="M1674.36,-578.7C1671.75,-560.58 1668.19,-535.88 1665.27,-515.6"/>
<polygon fill="black" stroke="black" points="1668.74,-515.16 1663.85,-505.76 1661.81,-516.15 1668.74,-515.16"/>
</g>
<!-- ExecuteUbergraph_BP_OxygenTank__236 -->
<g id="node14" class="node">
<title>ExecuteUbergraph_BP_OxygenTank__236</title>
<polygon fill="#eeeeee" stroke="black" points="1341,-300.5 1341,-413.5 1935,-413.5 1935,-300.5 1341,-300.5"/>
<text text-anchor="start" x="1349" y="-398.3" font-family="monospace" font-size="14.00">EX_LetObj</text>
<text text-anchor="start" x="1349" y="-383.3" font-family="monospace" font-size="14.00">  EX_LocalVariable [CallFunc_GetComponentByClass_ReturnValue]</text>
<text text-anchor="start" x="1349" y="-368.3" font-family="monospace" font-size="14.00">  EX_Context</text>
<text text-anchor="start" x="1349" y="-353.3" font-family="monospace" font-size="14.00">    EX_LocalVariable [CallFunc_GetParentActor_ReturnValue]</text>
<text text-anchor="start" x="1349" y="-338.3" font-family="monospace" font-size="14.00">    EX_FinalFunction import /Script/Engine&#45;&gt;Actor&#45;&gt;GetComponentByClass</text>
<text text-anchor="start" x="1349" y="-323.3" font-family="monospace" font-size="14.00">      EX_ObjectConst import /Script/FSD&#45;&gt;OxygenSourceComponent</text>
<text text-anchor="start" x="1349" y="-308.3" font-family="monospace" font-size="14.00">    RValue = [CallFunc_GetComponentByClass_ReturnValue]</text>
</g>
<!-- ExecuteUbergraph_BP_OxygenTank__216&#45;&gt;ExecuteUbergraph_BP_OxygenTank__236 -->
<g id="edge13" class="edge">
<title>ExecuteUbergraph_BP_OxygenTank__216&#45;&gt;ExecuteUbergraph_BP_OxygenTank__236</title>
<path fill="none" stroke="black" d="M1655.33,-451.76C1653.81,-443.53 1652.05,-433.98 1650.23,-424.18"/>
<polygon fill="black" stroke="black" points="1653.72,-423.75 1648.46,-414.56 1646.83,-425.03 1653.72,-423.75"/>
</g>
<!-- ExecuteUbergraph_BP_OxygenTank__287 -->
<g id="node15" class="node">
<title>ExecuteUbergraph_BP_OxygenTank__287</title>
<polygon fill="#eeeeee" stroke="black" points="1392,-150.5 1392,-248.5 1928,-248.5 1928,-150.5 1392,-150.5"/>
<text text-anchor="start" x="1400" y="-233.3" font-family="monospace" font-size="14.00">EX_AddMulticastDelegate</text>
<text text-anchor="start" x="1400" y="-218.3" font-family="monospace" font-size="14.00">  EX_Context</text>
<text text-anchor="start" x="1400" y="-203.3" font-family="monospace" font-size="14.00">    EX_LocalVariable [CallFunc_GetComponentByClass_ReturnValue]</text>
<text text-anchor="start" x="1400" y="-188.3" font-family="monospace" font-size="14.00">    EX_InstanceVariable [OnOxygenActivationChanged]</text>
<text text-anchor="start" x="1400" y="-173.3" font-family="monospace" font-size="14.00">    RValue = [OnOxygenActivationChanged]</text>
<text text-anchor="start" x="1400" y="-158.3" font-family="monospace" font-size="14.00">  EX_LocalVariable [K2Node_CreateDelegate_OutputDelegate]</text>
</g>
<!-- ExecuteUbergraph_BP_OxygenTank__236&#45;&gt;ExecuteUbergraph_BP_OxygenTank__287 -->
<g id="edge14" class="edge">
<title>ExecuteUbergraph_BP_OxygenTank__236&#45;&gt;ExecuteUbergraph_BP_OxygenTank__287</title>
<path fill="none" stroke="black" d="M1645.82,-300.74C1647.71,-287.37 1649.74,-273.03 1651.65,-259.5"/>
<polygon fill="black" stroke="black" points="1655.08,-260.25 1653.02,-249.86 1648.15,-259.27 1655.08,-260.25"/>
</g>
<!-- ExecuteUbergraph_BP_OxygenTank__328 -->
<g id="node16" class="node">
<title>ExecuteUbergraph_BP_OxygenTank__328</title>
<polygon fill="#eeeeee" stroke="black" points="1774.5,-76.5 1774.5,-112.5 1881.5,-112.5 1881.5,-76.5 1774.5,-76.5"/>
<text text-anchor="start" x="1782.5" y="-90.8" font-family="monospace" font-size="14.00">EX_Jump 347</text>
</g>
<!-- ExecuteUbergraph_BP_OxygenTank__287&#45;&gt;ExecuteUbergraph_BP_OxygenTank__328 -->
<g id="edge15" class="edge">
<title>ExecuteUbergraph_BP_OxygenTank__287&#45;&gt;ExecuteUbergraph_BP_OxygenTank__328</title>
<path fill="none" stroke="black" d="M1738.1,-150.62C1756.37,-139.41 1775.02,-127.98 1790.56,-118.45"/>
<polygon fill="black" stroke="black" points="1792.31,-121.49 1799,-113.28 1788.65,-115.52 1792.31,-121.49"/>
</g>
<!-- ExecuteUbergraph_BP_OxygenTank__328&#45;&gt;ExecuteUbergraph_BP_OxygenTank__347 -->
<g id="edge16" class="edge">
<title>ExecuteUbergraph_BP_OxygenTank__328&#45;&gt;ExecuteUbergraph_BP_OxygenTank__347</title>
<path fill="none" stroke="black" d="M1862.09,-76.57C1881.85,-66.76 1906.99,-54.27 1928.53,-43.58"/>
<polygon fill="black" stroke="black" points="1930.03,-46.74 1937.43,-39.16 1926.91,-40.47 1930.03,-46.74"/>
</g>
<!-- ExecuteUbergraph_BP_OxygenTank__333&#45;&gt;ExecuteUbergraph_BP_OxygenTank__347 -->
<g id="edge17" class="edge">
<title>ExecuteUbergraph_BP_OxygenTank__333&#45;&gt;ExecuteUbergraph_BP_OxygenTank__347</title>
<path fill="none" stroke="black" d="M1960.76,-523.75C1961.65,-502.6 1963,-465.11 1963,-433 1963,-433 1963,-433 1963,-93.5 1963,-78.8 1965.4,-62.65 1968.05,-49.29"/>
<polygon fill="black" stroke="black" points="1971.4,-50.36 1970.08,-39.85 1964.56,-48.89 1971.4,-50.36"/>
</g>
<!-- ExecuteUbergraph_BP_OxygenTank__349 -->
<g id="node19" class="node">
<title>ExecuteUbergraph_BP_OxygenTank__349</title>
<polygon fill="#eeeeee" stroke="black" points="2328,-1183.5 2328,-1219.5 2460,-1219.5 2460,-1183.5 2328,-1183.5"/>
<text text-anchor="start" x="2336" y="-1197.8" font-family="monospace" font-size="14.00">EX_EndOfScript</text>
</g>
<!-- OnOxygenActivationChanged_Event_0 -->
<g id="node20" class="node">
<title>OnOxygenActivationChanged_Event_0</title>
<polygon fill="#ff8888" stroke="black" points="2078,-1328.5 2078,-1381.5 2548,-1381.5 2548,-1328.5 2078,-1328.5"/>
<text text-anchor="start" x="2086" y="-1366.3" font-family="monospace" font-size="14.00">Function OnOxygenActivationChanged_Event_0</text>
<text text-anchor="start" x="2086" y="-1351.3" font-family="monospace" font-size="14.00">  BoolProperty isActive</text>
<text text-anchor="start" x="2086" y="-1336.3" font-family="monospace" font-size="14.00">    CPF_BlueprintVisible|CPF_BlueprintReadOnly|CPF_Parm</text>
</g>
<!-- OnOxygenActivationChanged_Event_0__0 -->
<g id="node21" class="node">
<title>OnOxygenActivationChanged_Event_0__0</title>
<polygon fill="#eeeeee" stroke="black" points="2065.5,-740.5 2065.5,-778.5 2560.5,-778.5 2560.5,-740.5 2065.5,-740.5"/>
<text text-anchor="start" x="2073.5" y="-763.3" font-family="monospace" font-size="14.00">EX_LetValueOnPersistentFrame [K2Node_CustomEvent_isActive]</text>
<text text-anchor="start" x="2073.5" y="-748.3" font-family="monospace" font-size="14.00">  EX_LocalVariable [isActive]</text>
</g>
<!-- OnOxygenActivationChanged_Event_0&#45;&gt;OnOxygenActivationChanged_Event_0__0 -->
<g id="edge18" class="edge">
<title>OnOxygenActivationChanged_Event_0&#45;&gt;OnOxygenActivationChanged_Event_0__0</title>
<path fill="none" stroke="black" d="M2313,-1328.77C2313,-1289.71 2313,-1212.24 2313,-1146.5 2313,-1146.5 2313,-1146.5 2313,-946.5 2313,-891.09 2313,-826.39 2313,-789.75"/>
<polygon fill="black" stroke="black" points="2316.5,-789.97 2313,-779.97 2309.5,-789.97 2316.5,-789.97"/>
</g>
<!-- OnOxygenActivationChanged_Event_0__18 -->
<g id="node22" class="node">
<title>OnOxygenActivationChanged_Event_0__18</title>
<polygon fill="#eeeeee" stroke="black" points="1991,-459 1991,-497 2635,-497 2635,-459 1991,-459"/>
<text text-anchor="start" x="1999" y="-481.8" font-family="monospace" font-size="14.00">EX_LocalFinalFunction export BP_OxygenTank_C&#45;&gt;ExecuteUbergraph_BP_OxygenTank</text>
<text text-anchor="start" x="1999" y="-466.8" font-family="monospace" font-size="14.00">  EX_IntConst 10</text>
</g>
<!-- OnOxygenActivationChanged_Event_0__0&#45;&gt;OnOxygenActivationChanged_Event_0__18 -->
<g id="edge19" class="edge">
<title>OnOxygenActivationChanged_Event_0__0&#45;&gt;OnOxygenActivationChanged_Event_0__18</title>
<path fill="none" stroke="black" d="M2313,-740.59C2313,-693.46 2313,-565.65 2313,-507.95"/>
<polygon fill="black" stroke="black" points="2316.5,-508.27 2313,-498.27 2309.5,-508.27 2316.5,-508.27"/>
</g>
<!-- OnOxygenActivationChanged_Event_0__18&#45;&gt;ExecuteUbergraph_BP_OxygenTank__10 -->
<g id="edge20" class="edge">
<title>OnOxygenActivationChanged_Event_0__18:e&#45;&gt;ExecuteUbergraph_BP_OxygenTank__10</title>
<path fill="none" stroke="red" d="M2636,-478C2676.5,-478 2635.31,-419.74 2606.61,-384.4"/>
<polygon fill="none" stroke="red" points="2609.67,-382.61 2600.6,-377.13 2604.27,-387.07 2609.67,-382.61"/>
</g>
<!-- OnOxygenActivationChanged_Event_0__33 -->
<g id="node23" class="node">
<title>OnOxygenActivationChanged_Event_0__33</title>
<polygon fill="#eeeeee" stroke="black" points="2243,-338 2243,-376 2359,-376 2359,-338 2243,-338"/>
<text text-anchor="start" x="2251" y="-360.8" font-family="monospace" font-size="14.00">EX_Return</text>
<text text-anchor="start" x="2251" y="-345.8" font-family="monospace" font-size="14.00">  EX_Nothing</text>
</g>
<!-- OnOxygenActivationChanged_Event_0__18&#45;&gt;OnOxygenActivationChanged_Event_0__33 -->
<g id="edge21" class="edge">
<title>OnOxygenActivationChanged_Event_0__18&#45;&gt;OnOxygenActivationChanged_Event_0__33</title>
<path fill="none" stroke="black" d="M2311.2,-459.18C2309.29,-440.17 2306.22,-409.74 2303.95,-387.21"/>
<polygon fill="black" stroke="black" points="2307.45,-387.04 2302.96,-377.44 2300.48,-387.74 2307.45,-387.04"/>
</g>
<!-- OnOxygenActivationChanged_Event_0__35 -->
<g id="node24" class="node">
<title>OnOxygenActivationChanged_Event_0__35</title>
<polygon fill="#eeeeee" stroke="black" points="2328,-1071.5 2328,-1107.5 2460,-1107.5 2460,-1071.5 2328,-1071.5"/>
<text text-anchor="start" x="2336" y="-1085.8" font-family="monospace" font-size="14.00">EX_EndOfScript</text>
</g>
<!-- ReceiveBeginPlay -->
<g id="node25" class="node">
<title>ReceiveBeginPlay</title>
<polygon fill="#ff8888" stroke="black" points="1220.5,-1337 1220.5,-1373 1443.5,-1373 1443.5,-1337 1220.5,-1337"/>
<text text-anchor="start" x="1228.5" y="-1351.3" font-family="monospace" font-size="14.00">Function ReceiveBeginPlay</text>
</g>
<!-- ReceiveBeginPlay__0 -->
<g id="node26" class="node">
<title>ReceiveBeginPlay__0</title>
<polygon fill="#eeeeee" stroke="black" points="1010,-1126.5 1010,-1164.5 1654,-1164.5 1654,-1126.5 1010,-1126.5"/>
<text text-anchor="start" x="1018" y="-1149.3" font-family="monospace" font-size="14.00">EX_LocalFinalFunction export BP_OxygenTank_C&#45;&gt;ExecuteUbergraph_BP_OxygenTank</text>
<text text-anchor="start" x="1018" y="-1134.3" font-family="monospace" font-size="14.00">  EX_IntConst 107</text>
</g>
<!-- ReceiveBeginPlay&#45;&gt;ReceiveBeginPlay__0 -->
<g id="edge22" class="edge">
<title>ReceiveBeginPlay&#45;&gt;ReceiveBeginPlay__0</title>
<path fill="none" stroke="black" d="M1332,-1337.02C1332,-1301.63 1332,-1219.63 1332,-1175.63"/>
<polygon fill="black" stroke="black" points="1335.5,-1175.82 1332,-1165.82 1328.5,-1175.82 1335.5,-1175.82"/>
</g>
<!-- ReceiveBeginPlay__0&#45;&gt;ExecuteUbergraph_BP_OxygenTank__107 -->
<g id="edge23" class="edge">
<title>ReceiveBeginPlay__0:e&#45;&gt;ExecuteUbergraph_BP_OxygenTank__107</title>
<path fill="none" stroke="red" d="M1655,-1145.5C1690.92,-1145.5 1700.64,-1099.99 1702.68,-1063.68"/>
<polygon fill="none" stroke="red" points="1706.17,-1063.91 1703.04,-1053.79 1699.18,-1063.65 1706.17,-1063.91"/>
</g>
<!-- ReceiveBeginPlay__15 -->
<g id="node27" class="node">
<title>ReceiveBeginPlay__15</title>
<polygon fill="#eeeeee" stroke="black" points="1258,-999.5 1258,-1037.5 1374,-1037.5 1374,-999.5 1258,-999.5"/>
<text text-anchor="start" x="1266" y="-1022.3" font-family="monospace" font-size="14.00">EX_Return</text>
<text text-anchor="start" x="1266" y="-1007.3" font-family="monospace" font-size="14.00">  EX_Nothing</text>
</g>
<!-- ReceiveBeginPlay__0&#45;&gt;ReceiveBeginPlay__15 -->
<g id="edge24" class="edge">
<title>ReceiveBeginPlay__0&#45;&gt;ReceiveBeginPlay__15</title>
<path fill="none" stroke="black" d="M1329.71,-1126.59C1327.11,-1106.26 1322.82,-1072.8 1319.74,-1048.69"/>
<polygon fill="black" stroke="black" points="1323.22,-1048.35 1318.48,-1038.88 1316.28,-1049.24 1323.22,-1048.35"/>
</g>
<!-- ReceiveBeginPlay__17 -->
<g id="node28" class="node">
<title>ReceiveBeginPlay__17</title>
<polygon fill="#eeeeee" stroke="black" points="2328,-929.5 2328,-965.5 2460,-965.5 2460,-929.5 2328,-929.5"/>
<text text-anchor="start" x="2336" y="-943.8" font-family="monospace" font-size="14.00">EX_EndOfScript</text>
</g>
</g>
</svg>
