<?xml version="1.0" encoding="UTF-8" standalone="no"?>
<!DOCTYPE svg PUBLIC "-//W3C//DTD SVG 1.1//EN"
 "http://www.w3.org/Graphics/SVG/1.1/DTD/svg11.dtd">
<!-- Generated by graphviz version 7.0.1 (0)
 -->
<!-- Pages: 1 -->
<svg width="1946pt" height="1159pt"
 viewBox="0.00 0.00 1946.00 1159.00" xmlns="http://www.w3.org/2000/svg" xmlns:xlink="http://www.w3.org/1999/xlink">
<g id="graph0" class="graph" transform="scale(1 1) rotate(0) translate(4 1155)">
<polygon fill="white" stroke="none" points="-4,4 -4,-1155 1942,-1155 1942,4 -4,4"/>
<!-- BP_IronChunk_C -->
<g id="node1" class="node">
<title>BP_IronChunk_C</title>
<polygon fill="#88ff88" stroke="black" points="0,-977.5 0,-1150.5 594,-1150.5 594,-977.5 0,-977.5"/>
<text text-anchor="start" x="8" y="-1135.3" font-family="monospace" font-size="14.00">ClassExport: BP_IronChunk_C</text>
<text text-anchor="start" x="8" y="-1120.3" font-family="monospace" font-size="14.00">  SuperStruct: import /Script/FSD&#45;&gt;ResourceChunk</text>
<text text-anchor="start" x="8" y="-1105.3" font-family="monospace" font-size="14.00">  Properties:</text>
<text text-anchor="start" x="8" y="-1090.3" font-family="monospace" font-size="14.00">    StructProperty UberGraphFrame</text>
<text text-anchor="start" x="8" y="-1075.3" font-family="monospace" font-size="14.00">      CPF_Transient|CPF_DuplicateTransient</text>
<text text-anchor="start" x="8" y="-1060.3" font-family="monospace" font-size="14.00">    ObjectProperty Sphere</text>
<text text-anchor="start" x="8" y="-1045.3" font-family="monospace" font-size="14.00">      CPF_BlueprintVisible|CPF_InstancedReference|CPF_NonTransactional</text>
<text text-anchor="start" x="8" y="-1030.3" font-family="monospace" font-size="14.00">    ObjectProperty PointLight</text>
<text text-anchor="start" x="8" y="-1015.3" font-family="monospace" font-size="14.00">      CPF_BlueprintVisible|CPF_InstancedReference|CPF_NonTransactional</text>
<text text-anchor="start" x="8" y="-1000.3" font-family="monospace" font-size="14.00">    ObjectProperty Cube</text>
<text text-anchor="start" x="8" y="-985.3" font-family="monospace" font-size="14.00">      CPF_BlueprintVisible|CPF_InstancedReference|CPF_NonTransactional</text>
</g>
<!-- ExecuteUbergraph_BP_IronChunk -->
<g id="node2" class="node">
<title>ExecuteUbergraph_BP_IronChunk</title>
<polygon fill="#ff8888" stroke="black" points="612,-1015 612,-1113 1082,-1113 1082,-1015 612,-1015"/>
<text text-anchor="start" x="620" y="-1097.8" font-family="monospace" font-size="14.00">Function ExecuteUbergraph_BP_IronChunk</text>
<text text-anchor="start" x="620" y="-1082.8" font-family="monospace" font-size="14.00">  IntProperty EntryPoint</text>
<text text-anchor="start" x="620" y="-1067.8" font-family="monospace" font-size="14.00">    CPF_BlueprintVisible|CPF_BlueprintReadOnly|CPF_Parm</text>
<text text-anchor="start" x="620" y="-1052.8" font-family="monospace" font-size="14.00">  FloatProperty CallFunc_RandomFloatInRange_ReturnValue</text>
<text text-anchor="start" x="620" y="-1037.8" font-family="monospace" font-size="14.00">  BoolProperty CallFunc_HasAuthority_ReturnValue</text>
<text text-anchor="start" x="620" y="-1022.8" font-family="monospace" font-size="14.00">  StructProperty CallFunc_MakeVector_ReturnValue</text>
</g>
<!-- ExecuteUbergraph_BP_IronChunk__0 -->
<g id="node3" class="node">
<title>ExecuteUbergraph_BP_IronChunk__0</title>
<polygon fill="#eeeeee" stroke="black" points="711,-865.5 711,-903.5 983,-903.5 983,-865.5 711,-865.5"/>
<text text-anchor="start" x="719" y="-888.3" font-family="monospace" font-size="14.00">EX_ComputedJump</text>
<text text-anchor="start" x="719" y="-873.3" font-family="monospace" font-size="14.00">  EX_LocalVariable [EntryPoint]</text>
</g>
<!-- ExecuteUbergraph_BP_IronChunk&#45;&gt;ExecuteUbergraph_BP_IronChunk__0 -->
<g id="edge1" class="edge">
<title>ExecuteUbergraph_BP_IronChunk&#45;&gt;ExecuteUbergraph_BP_IronChunk__0</title>
<path fill="none" stroke="black" d="M847,-1015.43C847,-983.37 847,-942.1 847,-914.77"/>
<polygon fill="black" stroke="black" points="850.5,-914.79 847,-904.79 843.5,-914.79 850.5,-914.79"/>
</g>
<!-- ExecuteUbergraph_BP_IronChunk__10 -->
<g id="node4" class="node">
<title>ExecuteUbergraph_BP_IronChunk__10</title>
<polygon fill="#eeeeee" stroke="black" points="1369,-662.5 1369,-715.5 1889,-715.5 1889,-662.5 1369,-662.5"/>
<text text-anchor="start" x="1377" y="-700.3" font-family="monospace" font-size="14.00">EX_LetBool</text>
<text text-anchor="start" x="1377" y="-685.3" font-family="monospace" font-size="14.00">  EX_LocalVariable [CallFunc_HasAuthority_ReturnValue]</text>
<text text-anchor="start" x="1377" y="-670.3" font-family="monospace" font-size="14.00">  EX_FinalFunction import /Script/Engine&#45;&gt;Actor&#45;&gt;HasAuthority</text>
</g>
<!-- ExecuteUbergraph_BP_IronChunk__30 -->
<g id="node5" class="node">
<title>ExecuteUbergraph_BP_IronChunk__30</title>
<polygon fill="#eeeeee" stroke="black" points="1398,-586.5 1398,-624.5 1860,-624.5 1860,-586.5 1398,-586.5"/>
<text text-anchor="start" x="1406" y="-609.3" font-family="monospace" font-size="14.00">EX_JumpIfNot 202</text>
<text text-anchor="start" x="1406" y="-594.3" font-family="monospace" font-size="14.00">  EX_LocalVariable [CallFunc_HasAuthority_ReturnValue]</text>
</g>
<!-- ExecuteUbergraph_BP_IronChunk__10&#45;&gt;ExecuteUbergraph_BP_IronChunk__30 -->
<g id="edge2" class="edge">
<title>ExecuteUbergraph_BP_IronChunk__10&#45;&gt;ExecuteUbergraph_BP_IronChunk__30</title>
<path fill="none" stroke="black" d="M1629,-662.66C1629,-654.11 1629,-644.51 1629,-635.69"/>
<polygon fill="black" stroke="black" points="1632.5,-635.84 1629,-625.84 1625.5,-635.84 1632.5,-635.84"/>
</g>
<!-- ExecuteUbergraph_BP_IronChunk__44 -->
<g id="node6" class="node">
<title>ExecuteUbergraph_BP_IronChunk__44</title>
<polygon fill="#eeeeee" stroke="black" points="1232.5,-451.5 1232.5,-534.5 1859.5,-534.5 1859.5,-451.5 1232.5,-451.5"/>
<text text-anchor="start" x="1240.5" y="-519.3" font-family="monospace" font-size="14.00">EX_Let</text>
<text text-anchor="start" x="1240.5" y="-504.3" font-family="monospace" font-size="14.00">  EX_LocalVariable [CallFunc_RandomFloatInRange_ReturnValue]</text>
<text text-anchor="start" x="1240.5" y="-489.3" font-family="monospace" font-size="14.00">  EX_CallMath import /Script/Engine&#45;&gt;KismetMathLibrary&#45;&gt;RandomFloatInRange</text>
<text text-anchor="start" x="1240.5" y="-474.3" font-family="monospace" font-size="14.00">    EX_FloatConst &#45;50</text>
<text text-anchor="start" x="1240.5" y="-459.3" font-family="monospace" font-size="14.00">    EX_FloatConst 50</text>
</g>
<!-- ExecuteUbergraph_BP_IronChunk__30&#45;&gt;ExecuteUbergraph_BP_IronChunk__44 -->
<g id="edge4" class="edge">
<title>ExecuteUbergraph_BP_IronChunk__30&#45;&gt;ExecuteUbergraph_BP_IronChunk__44</title>
<path fill="none" stroke="black" d="M1615.66,-586.75C1606.78,-574.91 1594.63,-558.74 1582.96,-543.21"/>
<polygon fill="black" stroke="black" points="1585.89,-541.28 1577.09,-535.39 1580.29,-545.48 1585.89,-541.28"/>
<text text-anchor="middle" x="1608.5" y="-556.8" font-family="monospace" font-size="14.00">IF</text>
</g>
<!-- ExecuteUbergraph_BP_IronChunk__202 -->
<g id="node11" class="node">
<title>ExecuteUbergraph_BP_IronChunk__202</title>
<polygon fill="#eeeeee" stroke="black" points="1789,-0.5 1789,-38.5 1905,-38.5 1905,-0.5 1789,-0.5"/>
<text text-anchor="start" x="1797" y="-23.3" font-family="monospace" font-size="14.00">EX_Return</text>
<text text-anchor="start" x="1797" y="-8.3" font-family="monospace" font-size="14.00">  EX_Nothing</text>
</g>
<!-- ExecuteUbergraph_BP_IronChunk__30&#45;&gt;ExecuteUbergraph_BP_IronChunk__202 -->
<g id="edge3" class="edge">
<title>ExecuteUbergraph_BP_IronChunk__30:e&#45;&gt;ExecuteUbergraph_BP_IronChunk__202</title>
<path fill="none" stroke="red" d="M1861,-605.5C1911.99,-605.5 1888,-544.99 1888,-494 1888,-494 1888,-494 1888,-93.5 1888,-76.77 1879.72,-60.33 1870.6,-47.3"/>
<polygon fill="none" stroke="red" points="1873.65,-45.54 1864.83,-39.67 1868.06,-49.76 1873.65,-45.54"/>
<text text-anchor="middle" x="1913" y="-285.8" font-family="monospace" font-size="14.00">IF NOT</text>
</g>
<!-- ExecuteUbergraph_BP_IronChunk__82 -->
<g id="node7" class="node">
<title>ExecuteUbergraph_BP_IronChunk__82</title>
<polygon fill="#eeeeee" stroke="black" points="1290.5,-315.5 1290.5,-413.5 1851.5,-413.5 1851.5,-315.5 1290.5,-315.5"/>
<text text-anchor="start" x="1298.5" y="-398.3" font-family="monospace" font-size="14.00">EX_Let</text>
<text text-anchor="start" x="1298.5" y="-383.3" font-family="monospace" font-size="14.00">  EX_LocalVariable [CallFunc_MakeVector_ReturnValue]</text>
<text text-anchor="start" x="1298.5" y="-368.3" font-family="monospace" font-size="14.00">  EX_CallMath import /Script/Engine&#45;&gt;KismetMathLibrary&#45;&gt;MakeVector</text>
<text text-anchor="start" x="1298.5" y="-353.3" font-family="monospace" font-size="14.00">    EX_LocalVariable [CallFunc_RandomFloatInRange_ReturnValue]</text>
<text text-anchor="start" x="1298.5" y="-338.3" font-family="monospace" font-size="14.00">    EX_LocalVariable [CallFunc_RandomFloatInRange_ReturnValue]</text>
<text text-anchor="start" x="1298.5" y="-323.3" font-family="monospace" font-size="14.00">    EX_FloatConst 100</text>
</g>
<!-- ExecuteUbergraph_BP_IronChunk__44&#45;&gt;ExecuteUbergraph_BP_IronChunk__82 -->
<g id="edge5" class="edge">
<title>ExecuteUbergraph_BP_IronChunk__44&#45;&gt;ExecuteUbergraph_BP_IronChunk__82</title>
<path fill="none" stroke="black" d="M1553.98,-451.63C1555.69,-442.99 1557.52,-433.7 1559.34,-424.52"/>
<polygon fill="black" stroke="black" points="1562.73,-425.42 1561.23,-414.93 1555.86,-424.06 1562.73,-425.42"/>
</g>
<!-- ExecuteUbergraph_BP_IronChunk__133 -->
<g id="node8" class="node">
<title>ExecuteUbergraph_BP_IronChunk__133</title>
<polygon fill="#eeeeee" stroke="black" points="1386,-150.5 1386,-263.5 1848,-263.5 1848,-150.5 1386,-150.5"/>
<text text-anchor="start" x="1394" y="-248.3" font-family="monospace" font-size="14.00">EX_Context</text>
<text text-anchor="start" x="1394" y="-233.3" font-family="monospace" font-size="14.00">  EX_InstanceVariable [Cube]</text>
<text text-anchor="start" x="1394" y="-218.3" font-family="monospace" font-size="14.00">  EX_VirtualFunction AddImpulse</text>
<text text-anchor="start" x="1394" y="-203.3" font-family="monospace" font-size="14.00">    EX_LocalVariable [CallFunc_MakeVector_ReturnValue]</text>
<text text-anchor="start" x="1394" y="-188.3" font-family="monospace" font-size="14.00">    EX_NameConst None</text>
<text text-anchor="start" x="1394" y="-173.3" font-family="monospace" font-size="14.00">    EX_False</text>
<text text-anchor="start" x="1394" y="-158.3" font-family="monospace" font-size="14.00">  RValue = []</text>
</g>
<!-- ExecuteUbergraph_BP_IronChunk__82&#45;&gt;ExecuteUbergraph_BP_IronChunk__133 -->
<g id="edge6" class="edge">
<title>ExecuteUbergraph_BP_IronChunk__82&#45;&gt;ExecuteUbergraph_BP_IronChunk__133</title>
<path fill="none" stroke="black" d="M1585.18,-315.58C1589.03,-302.55 1593.27,-288.21 1597.37,-274.36"/>
<polygon fill="black" stroke="black" points="1600.7,-275.42 1600.19,-264.84 1593.99,-273.44 1600.7,-275.42"/>
</g>
<!-- ExecuteUbergraph_BP_IronChunk__192 -->
<g id="node9" class="node">
<title>ExecuteUbergraph_BP_IronChunk__192</title>
<polygon fill="#eeeeee" stroke="black" points="1708.5,-76.5 1708.5,-112.5 1815.5,-112.5 1815.5,-76.5 1708.5,-76.5"/>
<text text-anchor="start" x="1716.5" y="-90.8" font-family="monospace" font-size="14.00">EX_Jump 202</text>
</g>
<!-- ExecuteUbergraph_BP_IronChunk__133&#45;&gt;ExecuteUbergraph_BP_IronChunk__192 -->
<g id="edge7" class="edge">
<title>ExecuteUbergraph_BP_IronChunk__133&#45;&gt;ExecuteUbergraph_BP_IronChunk__192</title>
<path fill="none" stroke="black" d="M1689.5,-150.75C1704.17,-139.57 1718.84,-128.39 1731.11,-119.04"/>
<polygon fill="black" stroke="black" points="1732.94,-122.05 1738.77,-113.2 1728.7,-116.48 1732.94,-122.05"/>
</g>
<!-- ExecuteUbergraph_BP_IronChunk__192&#45;&gt;ExecuteUbergraph_BP_IronChunk__202 -->
<g id="edge8" class="edge">
<title>ExecuteUbergraph_BP_IronChunk__192&#45;&gt;ExecuteUbergraph_BP_IronChunk__202</title>
<path fill="none" stroke="black" d="M1781.71,-76.57C1792.34,-67.44 1805.67,-55.99 1817.51,-45.82"/>
<polygon fill="black" stroke="black" points="1819.75,-48.51 1825.06,-39.34 1815.19,-43.2 1819.75,-48.51"/>
</g>
<!-- ExecuteUbergraph_BP_IronChunk__197 -->
<g id="node10" class="node">
<title>ExecuteUbergraph_BP_IronChunk__197</title>
<polygon fill="#eeeeee" stroke="black" points="1579.5,-754.5 1579.5,-790.5 1678.5,-790.5 1678.5,-754.5 1579.5,-754.5"/>
<text text-anchor="start" x="1587.5" y="-768.8" font-family="monospace" font-size="14.00">EX_Jump 10</text>
</g>
<!-- ExecuteUbergraph_BP_IronChunk__197&#45;&gt;ExecuteUbergraph_BP_IronChunk__10 -->
<g id="edge9" class="edge">
<title>ExecuteUbergraph_BP_IronChunk__197&#45;&gt;ExecuteUbergraph_BP_IronChunk__10</title>
<path fill="none" stroke="black" d="M1629,-754.61C1629,-746.44 1629,-736.28 1629,-726.46"/>
<polygon fill="black" stroke="black" points="1632.5,-726.74 1629,-716.74 1625.5,-726.74 1632.5,-726.74"/>
</g>
<!-- ExecuteUbergraph_BP_IronChunk__204 -->
<g id="node12" class="node">
<title>ExecuteUbergraph_BP_IronChunk__204</title>
<polygon fill="#eeeeee" stroke="black" points="1330,-922.5 1330,-958.5 1462,-958.5 1462,-922.5 1330,-922.5"/>
<text text-anchor="start" x="1338" y="-936.8" font-family="monospace" font-size="14.00">EX_EndOfScript</text>
</g>
<!-- ReceiveBeginPlay -->
<g id="node13" class="node">
<title>ReceiveBeginPlay</title>
<polygon fill="#ff8888" stroke="black" points="1203.5,-1046 1203.5,-1082 1426.5,-1082 1426.5,-1046 1203.5,-1046"/>
<text text-anchor="start" x="1211.5" y="-1060.3" font-family="monospace" font-size="14.00">Function ReceiveBeginPlay</text>
</g>
<!-- ReceiveBeginPlay__0 -->
<g id="node14" class="node">
<title>ReceiveBeginPlay__0</title>
<polygon fill="#eeeeee" stroke="black" points="1001.5,-865.5 1001.5,-903.5 1628.5,-903.5 1628.5,-865.5 1001.5,-865.5"/>
<text text-anchor="start" x="1009.5" y="-888.3" font-family="monospace" font-size="14.00">EX_LocalFinalFunction export BP_IronChunk_C&#45;&gt;ExecuteUbergraph_BP_IronChunk</text>
<text text-anchor="start" x="1009.5" y="-873.3" font-family="monospace" font-size="14.00">  EX_IntConst 197</text>
</g>
<!-- ReceiveBeginPlay&#45;&gt;ReceiveBeginPlay__0 -->
<g id="edge10" class="edge">
<title>ReceiveBeginPlay&#45;&gt;ReceiveBeginPlay__0</title>
<path fill="none" stroke="black" d="M1315,-1046.3C1315,-1016.09 1315,-952 1315,-914.5"/>
<polygon fill="black" stroke="black" points="1318.5,-914.85 1315,-904.85 1311.5,-914.85 1318.5,-914.85"/>
</g>
<!-- ReceiveBeginPlay__0&#45;&gt;ExecuteUbergraph_BP_IronChunk__197 -->
<g id="edge11" class="edge">
<title>ReceiveBeginPlay__0:e&#45;&gt;ExecuteUbergraph_BP_IronChunk__197</title>
<path fill="none" stroke="red" d="M1630,-884.5C1646.56,-884.5 1640.43,-834.46 1634.62,-801.57"/>
<polygon fill="none" stroke="red" points="1638.08,-801.04 1632.81,-791.85 1631.2,-802.32 1638.08,-801.04"/>
</g>
<!-- ReceiveBeginPlay__15 -->
<g id="node15" class="node">
<title>ReceiveBeginPlay__15</title>
<polygon fill="#eeeeee" stroke="black" points="1257,-753.5 1257,-791.5 1373,-791.5 1373,-753.5 1257,-753.5"/>
<text text-anchor="start" x="1265" y="-776.3" font-family="monospace" font-size="14.00">EX_Return</text>
<text text-anchor="start" x="1265" y="-761.3" font-family="monospace" font-size="14.00">  EX_Nothing</text>
</g>
<!-- ReceiveBeginPlay__0&#45;&gt;ReceiveBeginPlay__15 -->
<g id="edge12" class="edge">
<title>ReceiveBeginPlay__0&#45;&gt;ReceiveBeginPlay__15</title>
<path fill="none" stroke="black" d="M1315,-865.83C1315,-848.85 1315,-822.88 1315,-802.81"/>
<polygon fill="black" stroke="black" points="1318.5,-803.01 1315,-793.01 1311.5,-803.01 1318.5,-803.01"/>
</g>
<!-- ReceiveBeginPlay__17 -->
<g id="node16" class="node">
<title>ReceiveBeginPlay__17</title>
<polygon fill="#eeeeee" stroke="black" points="1644,-810.5 1644,-846.5 1776,-846.5 1776,-810.5 1644,-810.5"/>
<text text-anchor="start" x="1652" y="-824.8" font-family="monospace" font-size="14.00">EX_EndOfScript</text>
</g>
</g>
</svg>
