<?xml version="1.0" encoding="UTF-8" standalone="no"?>
<!DOCTYPE svg PUBLIC "-//W3C//DTD SVG 1.1//EN"
 "http://www.w3.org/Graphics/SVG/1.1/DTD/svg11.dtd">
<!-- Generated by graphviz version 7.0.1 (0)
 -->
<!-- Pages: 1 -->
<svg width="1962pt" height="1159pt"
 viewBox="0.00 0.00 1962.00 1159.00" xmlns="http://www.w3.org/2000/svg" xmlns:xlink="http://www.w3.org/1999/xlink">
<g id="graph0" class="graph" transform="scale(1 1) rotate(0) translate(4 1155)">
<polygon fill="white" stroke="none" points="-4,4 -4,-1155 1958,-1155 1958,4 -4,4"/>
<!-- BP_NitraChunk_C -->
<g id="node1" class="node">
<title>BP_NitraChunk_C</title>
<polygon fill="#88ff88" stroke="black" points="0,-977.5 0,-1150.5 594,-1150.5 594,-977.5 0,-977.5"/>
<text text-anchor="start" x="8" y="-1135.3" font-family="monospace" font-size="14.00">ClassExport: BP_NitraChunk_C</text>
<text text-anchor="start" x="8" y="-1120.3" font-family="monospace" font-size="14.00">  SuperStruct: import /Script/FSD&#45;&gt;ResourceChunk</text>
<text text-anchor="start" x="8" y="-1105.3" font-family="monospace" font-size="14.00">  Properties:</text>
<text text-anchor="start" x="8" y="-1090.3" font-family="monospace" font-size="14.00">    StructProperty UberGraphFrame</text>
<text text-anchor="start" x="8" y="-1075.3" font-family="monospace" font-size="14.00">      CPF_Transient|CPF_DuplicateTransient</text>
<text text-anchor="start" x="8" y="-1060.3" font-family="monospace" font-size="14.00">    ObjectProperty Sphere</text>
<text text-anchor="start" x="8" y="-1045.3" font-family="monospace" font-size="14.00">      CPF_BlueprintVisible|CPF_InstancedReference|CPF_NonTransactional</text>
<text text-anchor="start" x="8" y="-1030.3" font-family="monospace" font-size="14.00">    ObjectProperty PointLight</text>
<text text-anchor="start" x="8" y="-1015.3" font-family="monospace" font-size="14.00">      CPF_BlueprintVisible|CPF_InstancedReference|CPF_NonTransactional</text>
<text text-anchor="start" x="8" y="-1000.3" font-family="monospace" font-size="14.00">    ObjectProperty Cube</text>
<text text-anchor="start" x="8" y="-985.3" font-family="monospace" font-size="14.00">      CPF_BlueprintVisible|CPF_InstancedReference|CPF_NonTransactional</text>
</g>
<!-- ExecuteUbergraph_BP_NitraChunk -->
<g id="node2" class="node">
<title>ExecuteUbergraph_BP_NitraChunk</title>
<polygon fill="#ff8888" stroke="black" points="612,-1015 612,-1113 1082,-1113 1082,-1015 612,-1015"/>
<text text-anchor="start" x="620" y="-1097.8" font-family="monospace" font-size="14.00">Function ExecuteUbergraph_BP_NitraChunk</text>
<text text-anchor="start" x="620" y="-1082.8" font-family="monospace" font-size="14.00">  IntProperty EntryPoint</text>
<text text-anchor="start" x="620" y="-1067.8" font-family="monospace" font-size="14.00">    CPF_BlueprintVisible|CPF_BlueprintReadOnly|CPF_Parm</text>
<text text-anchor="start" x="620" y="-1052.8" font-family="monospace" font-size="14.00">  FloatProperty CallFunc_RandomFloatInRange_ReturnValue</text>
<text text-anchor="start" x="620" y="-1037.8" font-family="monospace" font-size="14.00">  BoolProperty CallFunc_HasAuthority_ReturnValue</text>
<text text-anchor="start" x="620" y="-1022.8" font-family="monospace" font-size="14.00">  StructProperty CallFunc_MakeVector_ReturnValue</text>
</g>
<!-- ExecuteUbergraph_BP_NitraChunk__0 -->
<g id="node3" class="node">
<title>ExecuteUbergraph_BP_NitraChunk__0</title>
<polygon fill="#eeeeee" stroke="black" points="711,-865.5 711,-903.5 983,-903.5 983,-865.5 711,-865.5"/>
<text text-anchor="start" x="719" y="-888.3" font-family="monospace" font-size="14.00">EX_ComputedJump</text>
<text text-anchor="start" x="719" y="-873.3" font-family="monospace" font-size="14.00">  EX_LocalVariable [EntryPoint]</text>
</g>
<!-- ExecuteUbergraph_BP_NitraChunk&#45;&gt;ExecuteUbergraph_BP_NitraChunk__0 -->
<g id="edge1" class="edge">
<title>ExecuteUbergraph_BP_NitraChunk&#45;&gt;ExecuteUbergraph_BP_NitraChunk__0</title>
<path fill="none" stroke="black" d="M847,-1015.43C847,-983.37 847,-942.1 847,-914.77"/>
<polygon fill="black" stroke="black" points="850.5,-914.79 847,-904.79 843.5,-914.79 850.5,-914.79"/>
</g>
<!-- ExecuteUbergraph_BP_NitraChunk__10 -->
<g id="node4" class="node">
<title>ExecuteUbergraph_BP_NitraChunk__10</title>
<polygon fill="#eeeeee" stroke="black" points="1385,-662.5 1385,-715.5 1905,-715.5 1905,-662.5 1385,-662.5"/>
<text text-anchor="start" x="1393" y="-700.3" font-family="monospace" font-size="14.00">EX_LetBool</text>
<text text-anchor="start" x="1393" y="-685.3" font-family="monospace" font-size="14.00">  EX_LocalVariable [CallFunc_HasAuthority_ReturnValue]</text>
<text text-anchor="start" x="1393" y="-670.3" font-family="monospace" font-size="14.00">  EX_FinalFunction import /Script/Engine&#45;&gt;Actor&#45;&gt;HasAuthority</text>
</g>
<!-- ExecuteUbergraph_BP_NitraChunk__30 -->
<g id="node5" class="node">
<title>ExecuteUbergraph_BP_NitraChunk__30</title>
<polygon fill="#eeeeee" stroke="black" points="1414,-586.5 1414,-624.5 1876,-624.5 1876,-586.5 1414,-586.5"/>
<text text-anchor="start" x="1422" y="-609.3" font-family="monospace" font-size="14.00">EX_JumpIfNot 202</text>
<text text-anchor="start" x="1422" y="-594.3" font-family="monospace" font-size="14.00">  EX_LocalVariable [CallFunc_HasAuthority_ReturnValue]</text>
</g>
<!-- ExecuteUbergraph_BP_NitraChunk__10&#45;&gt;ExecuteUbergraph_BP_NitraChunk__30 -->
<g id="edge2" class="edge">
<title>ExecuteUbergraph_BP_NitraChunk__10&#45;&gt;ExecuteUbergraph_BP_NitraChunk__30</title>
<path fill="none" stroke="black" d="M1645,-662.66C1645,-654.11 1645,-644.51 1645,-635.69"/>
<polygon fill="black" stroke="black" points="1648.5,-635.84 1645,-625.84 1641.5,-635.84 1648.5,-635.84"/>
</g>
<!-- ExecuteUbergraph_BP_NitraChunk__44 -->
<g id="node6" class="node">
<title>ExecuteUbergraph_BP_NitraChunk__44</title>
<polygon fill="#eeeeee" stroke="black" points="1248.5,-451.5 1248.5,-534.5 1875.5,-534.5 1875.5,-451.5 1248.5,-451.5"/>
<text text-anchor="start" x="1256.5" y="-519.3" font-family="monospace" font-size="14.00">EX_Let</text>
<text text-anchor="start" x="1256.5" y="-504.3" font-family="monospace" font-size="14.00">  EX_LocalVariable [CallFunc_RandomFloatInRange_ReturnValue]</text>
<text text-anchor="start" x="1256.5" y="-489.3" font-family="monospace" font-size="14.00">  EX_CallMath import /Script/Engine&#45;&gt;KismetMathLibrary&#45;&gt;RandomFloatInRange</text>
<text text-anchor="start" x="1256.5" y="-474.3" font-family="monospace" font-size="14.00">    EX_FloatConst &#45;50</text>
<text text-anchor="start" x="1256.5" y="-459.3" font-family="monospace" font-size="14.00">    EX_FloatConst 50</text>
</g>
<!-- ExecuteUbergraph_BP_NitraChunk__30&#45;&gt;ExecuteUbergraph_BP_NitraChunk__44 -->
<g id="edge4" class="edge">
<title>ExecuteUbergraph_BP_NitraChunk__30&#45;&gt;ExecuteUbergraph_BP_NitraChunk__44</title>
<path fill="none" stroke="black" d="M1631.66,-586.75C1622.78,-574.91 1610.63,-558.74 1598.96,-543.21"/>
<polygon fill="black" stroke="black" points="1601.89,-541.28 1593.09,-535.39 1596.29,-545.48 1601.89,-541.28"/>
<text text-anchor="middle" x="1624.5" y="-556.8" font-family="monospace" font-size="14.00">IF</text>
</g>
<!-- ExecuteUbergraph_BP_NitraChunk__202 -->
<g id="node11" class="node">
<title>ExecuteUbergraph_BP_NitraChunk__202</title>
<polygon fill="#eeeeee" stroke="black" points="1805,-0.5 1805,-38.5 1921,-38.5 1921,-0.5 1805,-0.5"/>
<text text-anchor="start" x="1813" y="-23.3" font-family="monospace" font-size="14.00">EX_Return</text>
<text text-anchor="start" x="1813" y="-8.3" font-family="monospace" font-size="14.00">  EX_Nothing</text>
</g>
<!-- ExecuteUbergraph_BP_NitraChunk__30&#45;&gt;ExecuteUbergraph_BP_NitraChunk__202 -->
<g id="edge3" class="edge">
<title>ExecuteUbergraph_BP_NitraChunk__30:e&#45;&gt;ExecuteUbergraph_BP_NitraChunk__202</title>
<path fill="none" stroke="red" d="M1877,-605.5C1927.99,-605.5 1904,-544.99 1904,-494 1904,-494 1904,-494 1904,-93.5 1904,-76.77 1895.72,-60.33 1886.6,-47.3"/>
<polygon fill="none" stroke="red" points="1889.65,-45.54 1880.83,-39.67 1884.06,-49.76 1889.65,-45.54"/>
<text text-anchor="middle" x="1929" y="-285.8" font-family="monospace" font-size="14.00">IF NOT</text>
</g>
<!-- ExecuteUbergraph_BP_NitraChunk__82 -->
<g id="node7" class="node">
<title>ExecuteUbergraph_BP_NitraChunk__82</title>
<polygon fill="#eeeeee" stroke="black" points="1306.5,-315.5 1306.5,-413.5 1867.5,-413.5 1867.5,-315.5 1306.5,-315.5"/>
<text text-anchor="start" x="1314.5" y="-398.3" font-family="monospace" font-size="14.00">EX_Let</text>
<text text-anchor="start" x="1314.5" y="-383.3" font-family="monospace" font-size="14.00">  EX_LocalVariable [CallFunc_MakeVector_ReturnValue]</text>
<text text-anchor="start" x="1314.5" y="-368.3" font-family="monospace" font-size="14.00">  EX_CallMath import /Script/Engine&#45;&gt;KismetMathLibrary&#45;&gt;MakeVector</text>
<text text-anchor="start" x="1314.5" y="-353.3" font-family="monospace" font-size="14.00">    EX_LocalVariable [CallFunc_RandomFloatInRange_ReturnValue]</text>
<text text-anchor="start" x="1314.5" y="-338.3" font-family="monospace" font-size="14.00">    EX_LocalVariable [CallFunc_RandomFloatInRange_ReturnValue]</text>
<text text-anchor="start" x="1314.5" y="-323.3" font-family="monospace" font-size="14.00">    EX_FloatConst 100</text>
</g>
<!-- ExecuteUbergraph_BP_NitraChunk__44&#45;&gt;ExecuteUbergraph_BP_NitraChunk__82 -->
<g id="edge5" class="edge">
<title>ExecuteUbergraph_BP_NitraChunk__44&#45;&gt;ExecuteUbergraph_BP_NitraChunk__82</title>
<path fill="none" stroke="black" d="M1569.98,-451.63C1571.69,-442.99 1573.52,-433.7 1575.34,-424.52"/>
<polygon fill="black" stroke="black" points="1578.73,-425.42 1577.23,-414.93 1571.86,-424.06 1578.73,-425.42"/>
</g>
<!-- ExecuteUbergraph_BP_NitraChunk__133 -->
<g id="node8" class="node">
<title>ExecuteUbergraph_BP_NitraChunk__133</title>
<polygon fill="#eeeeee" stroke="black" points="1402,-150.5 1402,-263.5 1864,-263.5 1864,-150.5 1402,-150.5"/>
<text text-anchor="start" x="1410" y="-248.3" font-family="monospace" font-size="14.00">EX_Context</text>
<text text-anchor="start" x="1410" y="-233.3" font-family="monospace" font-size="14.00">  EX_InstanceVariable [Cube]</text>
<text text-anchor="start" x="1410" y="-218.3" font-family="monospace" font-size="14.00">  EX_VirtualFunction AddImpulse</text>
<text text-anchor="start" x="1410" y="-203.3" font-family="monospace" font-size="14.00">    EX_LocalVariable [CallFunc_MakeVector_ReturnValue]</text>
<text text-anchor="start" x="1410" y="-188.3" font-family="monospace" font-size="14.00">    EX_NameConst None</text>
<text text-anchor="start" x="1410" y="-173.3" font-family="monospace" font-size="14.00">    EX_False</text>
<text text-anchor="start" x="1410" y="-158.3" font-family="monospace" font-size="14.00">  RValue = []</text>
</g>
<!-- ExecuteUbergraph_BP_NitraChunk__82&#45;&gt;ExecuteUbergraph_BP_NitraChunk__133 -->
<g id="edge6" class="edge">
<title>ExecuteUbergraph_BP_NitraChunk__82&#45;&gt;ExecuteUbergraph_BP_NitraChunk__133</title>
<path fill="none" stroke="black" d="M1601.18,-315.58C1605.03,-302.55 1609.27,-288.21 1613.37,-274.36"/>
<polygon fill="black" stroke="black" points="1616.7,-275.42 1616.19,-264.84 1609.99,-273.44 1616.7,-275.42"/>
</g>
<!-- ExecuteUbergraph_BP_NitraChunk__192 -->
<g id="node9" class="node">
<title>ExecuteUbergraph_BP_NitraChunk__192</title>
<polygon fill="#eeeeee" stroke="black" points="1724.5,-76.5 1724.5,-112.5 1831.5,-112.5 1831.5,-76.5 1724.5,-76.5"/>
<text text-anchor="start" x="1732.5" y="-90.8" font-family="monospace" font-size="14.00">EX_Jump 202</text>
</g>
<!-- ExecuteUbergraph_BP_NitraChunk__133&#45;&gt;ExecuteUbergraph_BP_NitraChunk__192 -->
<g id="edge7" class="edge">
<title>ExecuteUbergraph_BP_NitraChunk__133&#45;&gt;ExecuteUbergraph_BP_NitraChunk__192</title>
<path fill="none" stroke="black" d="M1705.5,-150.75C1720.17,-139.57 1734.84,-128.39 1747.11,-119.04"/>
<polygon fill="black" stroke="black" points="1748.94,-122.05 1754.77,-113.2 1744.7,-116.48 1748.94,-122.05"/>
</g>
<!-- ExecuteUbergraph_BP_NitraChunk__192&#45;&gt;ExecuteUbergraph_BP_NitraChunk__202 -->
<g id="edge8" class="edge">
<title>ExecuteUbergraph_BP_NitraChunk__192&#45;&gt;ExecuteUbergraph_BP_NitraChunk__202</title>
<path fill="none" stroke="black" d="M1797.71,-76.57C1808.34,-67.44 1821.67,-55.99 1833.51,-45.82"/>
<polygon fill="black" stroke="black" points="1835.75,-48.51 1841.06,-39.34 1831.19,-43.2 1835.75,-48.51"/>
</g>
<!-- ExecuteUbergraph_BP_NitraChunk__197 -->
<g id="node10" class="node">
<title>ExecuteUbergraph_BP_NitraChunk__197</title>
<polygon fill="#eeeeee" stroke="black" points="1595.5,-754.5 1595.5,-790.5 1694.5,-790.5 1694.5,-754.5 1595.5,-754.5"/>
<text text-anchor="start" x="1603.5" y="-768.8" font-family="monospace" font-size="14.00">EX_Jump 10</text>
</g>
<!-- ExecuteUbergraph_BP_NitraChunk__197&#45;&gt;ExecuteUbergraph_BP_NitraChunk__10 -->
<g id="edge9" class="edge">
<title>ExecuteUbergraph_BP_NitraChunk__197&#45;&gt;ExecuteUbergraph_BP_NitraChunk__10</title>
<path fill="none" stroke="black" d="M1645,-754.61C1645,-746.44 1645,-736.28 1645,-726.46"/>
<polygon fill="black" stroke="black" points="1648.5,-726.74 1645,-716.74 1641.5,-726.74 1648.5,-726.74"/>
</g>
<!-- ExecuteUbergraph_BP_NitraChunk__204 -->
<g id="node12" class="node">
<title>ExecuteUbergraph_BP_NitraChunk__204</title>
<polygon fill="#eeeeee" stroke="black" points="1338,-922.5 1338,-958.5 1470,-958.5 1470,-922.5 1338,-922.5"/>
<text text-anchor="start" x="1346" y="-936.8" font-family="monospace" font-size="14.00">EX_EndOfScript</text>
</g>
<!-- ReceiveBeginPlay -->
<g id="node13" class="node">
<title>ReceiveBeginPlay</title>
<polygon fill="#ff8888" stroke="black" points="1211.5,-1046 1211.5,-1082 1434.5,-1082 1434.5,-1046 1211.5,-1046"/>
<text text-anchor="start" x="1219.5" y="-1060.3" font-family="monospace" font-size="14.00">Function ReceiveBeginPlay</text>
</g>
<!-- ReceiveBeginPlay__0 -->
<g id="node14" class="node">
<title>ReceiveBeginPlay__0</title>
<polygon fill="#eeeeee" stroke="black" points="1001,-865.5 1001,-903.5 1645,-903.5 1645,-865.5 1001,-865.5"/>
<text text-anchor="start" x="1009" y="-888.3" font-family="monospace" font-size="14.00">EX_LocalFinalFunction export BP_NitraChunk_C&#45;&gt;ExecuteUbergraph_BP_NitraChunk</text>
<text text-anchor="start" x="1009" y="-873.3" font-family="monospace" font-size="14.00">  EX_IntConst 197</text>
</g>
<!-- ReceiveBeginPlay&#45;&gt;ReceiveBeginPlay__0 -->
<g id="edge10" class="edge">
<title>ReceiveBeginPlay&#45;&gt;ReceiveBeginPlay__0</title>
<path fill="none" stroke="black" d="M1323,-1046.3C1323,-1016.09 1323,-952 1323,-914.5"/>
<polygon fill="black" stroke="black" points="1326.5,-914.85 1323,-904.85 1319.5,-914.85 1326.5,-914.85"/>
</g>
<!-- ReceiveBeginPlay__0&#45;&gt;ExecuteUbergraph_BP_NitraChunk__197 -->
<g id="edge11" class="edge">
<title>ReceiveBeginPlay__0:e&#45;&gt;ExecuteUbergraph_BP_NitraChunk__197</title>
<path fill="none" stroke="red" d="M1646,-884.5C1662.56,-884.5 1656.43,-834.46 1650.62,-801.57"/>
<polygon fill="none" stroke="red" points="1654.08,-801.04 1648.81,-791.85 1647.2,-802.32 1654.08,-801.04"/>
</g>
<!-- ReceiveBeginPlay__15 -->
<g id="node15" class="node">
<title>ReceiveBeginPlay__15</title>
<polygon fill="#eeeeee" stroke="black" points="1265,-753.5 1265,-791.5 1381,-791.5 1381,-753.5 1265,-753.5"/>
<text text-anchor="start" x="1273" y="-776.3" font-family="monospace" font-size="14.00">EX_Return</text>
<text text-anchor="start" x="1273" y="-761.3" font-family="monospace" font-size="14.00">  EX_Nothing</text>
</g>
<!-- ReceiveBeginPlay__0&#45;&gt;ReceiveBeginPlay__15 -->
<g id="edge12" class="edge">
<title>ReceiveBeginPlay__0&#45;&gt;ReceiveBeginPlay__15</title>
<path fill="none" stroke="black" d="M1323,-865.83C1323,-848.85 1323,-822.88 1323,-802.81"/>
<polygon fill="black" stroke="black" points="1326.5,-803.01 1323,-793.01 1319.5,-803.01 1326.5,-803.01"/>
</g>
<!-- ReceiveBeginPlay__17 -->
<g id="node16" class="node">
<title>ReceiveBeginPlay__17</title>
<polygon fill="#eeeeee" stroke="black" points="1660,-810.5 1660,-846.5 1792,-846.5 1792,-810.5 1660,-810.5"/>
<text text-anchor="start" x="1668" y="-824.8" font-family="monospace" font-size="14.00">EX_EndOfScript</text>
</g>
</g>
</svg>
