<?xml version="1.0" encoding="UTF-8" standalone="no"?>
<!DOCTYPE svg PUBLIC "-//W3C//DTD SVG 1.1//EN"
 "http://www.w3.org/Graphics/SVG/1.1/DTD/svg11.dtd">
<!-- Generated by graphviz version 7.0.1 (0)
 -->
<!-- Pages: 1 -->
<svg width="2485pt" height="463pt"
 viewBox="0.00 0.00 2484.50 463.00" xmlns="http://www.w3.org/2000/svg" xmlns:xlink="http://www.w3.org/1999/xlink">
<g id="graph0" class="graph" transform="scale(1 1) rotate(0) translate(4 459)">
<polygon fill="white" stroke="none" points="-4,4 -4,-459 2480.5,-459 2480.5,4 -4,4"/>
<!-- GM_Mining_C -->
<g id="node1" class="node">
<title>GM_Mining_C</title>
<polygon fill="#88ff88" stroke="black" points="0,-371.5 0,-454.5 685,-454.5 685,-371.5 0,-371.5"/>
<text text-anchor="start" x="8" y="-439.3" font-family="monospace" font-size="14.00">ClassExport: GM_Mining_C</text>
<text text-anchor="start" x="8" y="-424.3" font-family="monospace" font-size="14.00">  SuperStruct: import /Game/Game/BP_NetworkPlayGameMode&#45;&gt;BP_NetworkPlayGameMode_C</text>
<text text-anchor="start" x="8" y="-409.3" font-family="monospace" font-size="14.00">  Properties:</text>
<text text-anchor="start" x="8" y="-394.3" font-family="monospace" font-size="14.00">    StructProperty UberGraphFrame</text>
<text text-anchor="start" x="8" y="-379.3" font-family="monospace" font-size="14.00">      CPF_Transient|CPF_DuplicateTransient</text>
</g>
<!-- ExecuteUbergraph_GM_Mining -->
<g id="node2" class="node">
<title>ExecuteUbergraph_GM_Mining</title>
<polygon fill="#ff8888" stroke="black" points="703.5,-386.5 703.5,-439.5 1173.5,-439.5 1173.5,-386.5 703.5,-386.5"/>
<text text-anchor="start" x="711.5" y="-424.3" font-family="monospace" font-size="14.00">Function ExecuteUbergraph_GM_Mining</text>
<text text-anchor="start" x="711.5" y="-409.3" font-family="monospace" font-size="14.00">  IntProperty EntryPoint</text>
<text text-anchor="start" x="711.5" y="-394.3" font-family="monospace" font-size="14.00">    CPF_BlueprintVisible|CPF_BlueprintReadOnly|CPF_Parm</text>
</g>
<!-- ExecuteUbergraph_GM_Mining__0 -->
<g id="node3" class="node">
<title>ExecuteUbergraph_GM_Mining__0</title>
<polygon fill="#eeeeee" stroke="black" points="802.5,-296.5 802.5,-334.5 1074.5,-334.5 1074.5,-296.5 802.5,-296.5"/>
<text text-anchor="start" x="810.5" y="-319.3" font-family="monospace" font-size="14.00">EX_ComputedJump</text>
<text text-anchor="start" x="810.5" y="-304.3" font-family="monospace" font-size="14.00">  EX_LocalVariable [EntryPoint]</text>
</g>
<!-- ExecuteUbergraph_GM_Mining&#45;&gt;ExecuteUbergraph_GM_Mining__0 -->
<g id="edge1" class="edge">
<title>ExecuteUbergraph_GM_Mining&#45;&gt;ExecuteUbergraph_GM_Mining__0</title>
<path fill="none" stroke="black" d="M938.5,-386.66C938.5,-374.05 938.5,-358.75 938.5,-345.66"/>
<polygon fill="black" stroke="black" points="942,-345.91 938.5,-335.91 935,-345.91 942,-345.91"/>
</g>
<!-- ExecuteUbergraph_GM_Mining__10 -->
<g id="node4" class="node">
<title>ExecuteUbergraph_GM_Mining__10</title>
<polygon fill="#eeeeee" stroke="black" points="1979,-148.5 1979,-184.5 2326,-184.5 2326,-148.5 1979,-148.5"/>
<text text-anchor="start" x="1987" y="-162.8" font-family="monospace" font-size="14.00">EX_LocalVirtualFunction EnableMuleButton</text>
</g>
<!-- ExecuteUbergraph_GM_Mining__24 -->
<g id="node5" class="node">
<title>ExecuteUbergraph_GM_Mining__24</title>
<polygon fill="#eeeeee" stroke="black" points="1997,-75.5 1997,-111.5 2096,-111.5 2096,-75.5 1997,-75.5"/>
<text text-anchor="start" x="2005" y="-89.8" font-family="monospace" font-size="14.00">EX_Jump 48</text>
</g>
<!-- ExecuteUbergraph_GM_Mining__10&#45;&gt;ExecuteUbergraph_GM_Mining__24 -->
<g id="edge2" class="edge">
<title>ExecuteUbergraph_GM_Mining__10&#45;&gt;ExecuteUbergraph_GM_Mining__24</title>
<path fill="none" stroke="black" d="M2127.38,-148.67C2113.62,-139.46 2096.35,-127.89 2081.31,-117.82"/>
<polygon fill="black" stroke="black" points="2083.32,-114.95 2073.07,-112.29 2079.43,-120.77 2083.32,-114.95"/>
</g>
<!-- ExecuteUbergraph_GM_Mining__48 -->
<g id="node8" class="node">
<title>ExecuteUbergraph_GM_Mining__48</title>
<polygon fill="#eeeeee" stroke="black" points="1881.5,-0.5 1881.5,-38.5 1997.5,-38.5 1997.5,-0.5 1881.5,-0.5"/>
<text text-anchor="start" x="1889.5" y="-23.3" font-family="monospace" font-size="14.00">EX_Return</text>
<text text-anchor="start" x="1889.5" y="-8.3" font-family="monospace" font-size="14.00">  EX_Nothing</text>
</g>
<!-- ExecuteUbergraph_GM_Mining__24&#45;&gt;ExecuteUbergraph_GM_Mining__48 -->
<g id="edge3" class="edge">
<title>ExecuteUbergraph_GM_Mining__24&#45;&gt;ExecuteUbergraph_GM_Mining__48</title>
<path fill="none" stroke="black" d="M2021.41,-75.62C2007.6,-66.33 1990.23,-54.64 1975.05,-44.42"/>
<polygon fill="black" stroke="black" points="1977.43,-41.8 1967.18,-39.12 1973.52,-47.61 1977.43,-41.8"/>
</g>
<!-- ExecuteUbergraph_GM_Mining__29 -->
<g id="node6" class="node">
<title>ExecuteUbergraph_GM_Mining__29</title>
<polygon fill="#eeeeee" stroke="black" points="2122,-222.5 2122,-258.5 2221,-258.5 2221,-222.5 2122,-222.5"/>
<text text-anchor="start" x="2130" y="-236.8" font-family="monospace" font-size="14.00">EX_Jump 10</text>
</g>
<!-- ExecuteUbergraph_GM_Mining__29&#45;&gt;ExecuteUbergraph_GM_Mining__10 -->
<g id="edge4" class="edge">
<title>ExecuteUbergraph_GM_Mining__29&#45;&gt;ExecuteUbergraph_GM_Mining__10</title>
<path fill="none" stroke="black" d="M2167.09,-222.8C2164.91,-214.53 2162.22,-204.33 2159.75,-194.96"/>
<polygon fill="black" stroke="black" points="2163.2,-194.35 2157.27,-185.57 2156.44,-196.13 2163.2,-194.35"/>
</g>
<!-- ExecuteUbergraph_GM_Mining__34 -->
<g id="node7" class="node">
<title>ExecuteUbergraph_GM_Mining__34</title>
<polygon fill="#eeeeee" stroke="black" points="1608.5,-148.5 1608.5,-184.5 1922.5,-184.5 1922.5,-148.5 1608.5,-148.5"/>
<text text-anchor="start" x="1616.5" y="-162.8" font-family="monospace" font-size="14.00">EX_LocalVirtualFunction Call DropPod</text>
</g>
<!-- ExecuteUbergraph_GM_Mining__34&#45;&gt;ExecuteUbergraph_GM_Mining__48 -->
<g id="edge5" class="edge">
<title>ExecuteUbergraph_GM_Mining__34&#45;&gt;ExecuteUbergraph_GM_Mining__48</title>
<path fill="none" stroke="black" d="M1785.8,-148.58C1816.3,-123.17 1874.12,-74.99 1909.49,-45.51"/>
<polygon fill="black" stroke="black" points="1911.37,-48.5 1916.81,-39.41 1906.88,-43.12 1911.37,-48.5"/>
</g>
<!-- ExecuteUbergraph_GM_Mining__50 -->
<g id="node9" class="node">
<title>ExecuteUbergraph_GM_Mining__50</title>
<polygon fill="#eeeeee" stroke="black" points="2344.5,-148.5 2344.5,-184.5 2476.5,-184.5 2476.5,-148.5 2344.5,-148.5"/>
<text text-anchor="start" x="2352.5" y="-162.8" font-family="monospace" font-size="14.00">EX_EndOfScript</text>
</g>
<!-- DonkeyButtonPressed -->
<g id="node10" class="node">
<title>DonkeyButtonPressed</title>
<polygon fill="#ff8888" stroke="black" points="1257.5,-395 1257.5,-431 1505.5,-431 1505.5,-395 1257.5,-395"/>
<text text-anchor="start" x="1265.5" y="-409.3" font-family="monospace" font-size="14.00">Function DonkeyButtonPressed</text>
</g>
<!-- DonkeyButtonPressed__0 -->
<g id="node11" class="node">
<title>DonkeyButtonPressed__0</title>
<polygon fill="#eeeeee" stroke="black" points="1092.5,-296.5 1092.5,-334.5 1670.5,-334.5 1670.5,-296.5 1092.5,-296.5"/>
<text text-anchor="start" x="1100.5" y="-319.3" font-family="monospace" font-size="14.00">EX_LocalFinalFunction export GM_Mining_C&#45;&gt;ExecuteUbergraph_GM_Mining</text>
<text text-anchor="start" x="1100.5" y="-304.3" font-family="monospace" font-size="14.00">  EX_IntConst 34</text>
</g>
<!-- DonkeyButtonPressed&#45;&gt;DonkeyButtonPressed__0 -->
<g id="edge6" class="edge">
<title>DonkeyButtonPressed&#45;&gt;DonkeyButtonPressed__0</title>
<path fill="none" stroke="black" d="M1381.5,-395.37C1381.5,-381.6 1381.5,-361.74 1381.5,-345.39"/>
<polygon fill="black" stroke="black" points="1385,-345.75 1381.5,-335.75 1378,-345.75 1385,-345.75"/>
</g>
<!-- DonkeyButtonPressed__0&#45;&gt;ExecuteUbergraph_GM_Mining__34 -->
<g id="edge7" class="edge">
<title>DonkeyButtonPressed__0:e&#45;&gt;ExecuteUbergraph_GM_Mining__34</title>
<path fill="none" stroke="red" d="M1671.5,-315.5C1680.87,-315.5 1675.1,-304.27 1679.5,-296 1699.42,-258.61 1727.47,-218.48 1746.05,-193.2"/>
<polygon fill="none" stroke="red" points="1748.62,-195.61 1751.77,-185.49 1743,-191.44 1748.62,-195.61"/>
</g>
<!-- DonkeyButtonPressed__15 -->
<g id="node12" class="node">
<title>DonkeyButtonPressed__15</title>
<polygon fill="#eeeeee" stroke="black" points="1323.5,-221.5 1323.5,-259.5 1439.5,-259.5 1439.5,-221.5 1323.5,-221.5"/>
<text text-anchor="start" x="1331.5" y="-244.3" font-family="monospace" font-size="14.00">EX_Return</text>
<text text-anchor="start" x="1331.5" y="-229.3" font-family="monospace" font-size="14.00">  EX_Nothing</text>
</g>
<!-- DonkeyButtonPressed__0&#45;&gt;DonkeyButtonPressed__15 -->
<g id="edge8" class="edge">
<title>DonkeyButtonPressed__0&#45;&gt;DonkeyButtonPressed__15</title>
<path fill="none" stroke="black" d="M1381.5,-296.83C1381.5,-289 1381.5,-279.57 1381.5,-270.74"/>
<polygon fill="black" stroke="black" points="1385,-270.78 1381.5,-260.78 1378,-270.78 1385,-270.78"/>
</g>
<!-- DonkeyButtonPressed__17 -->
<g id="node13" class="node">
<title>DonkeyButtonPressed__17</title>
<polygon fill="#eeeeee" stroke="black" points="2114.5,-75.5 2114.5,-111.5 2246.5,-111.5 2246.5,-75.5 2114.5,-75.5"/>
<text text-anchor="start" x="2122.5" y="-89.8" font-family="monospace" font-size="14.00">EX_EndOfScript</text>
</g>
<!-- BndEvt__ObjectivesManager_K2Node_ComponentBoundEvent_0_DelegateEvent__DelegateSignature -->
<g id="node14" class="node">
<title>BndEvt__ObjectivesManager_K2Node_ComponentBoundEvent_0_DelegateEvent__DelegateSignature</title>
<polygon fill="#ff8888" stroke="black" points="1573,-395 1573,-431 2382,-431 2382,-395 1573,-395"/>
<text text-anchor="start" x="1581" y="-409.3" font-family="monospace" font-size="14.00">Function BndEvt__ObjectivesManager_K2Node_ComponentBoundEvent_0_DelegateEvent__DelegateSignature</text>
</g>
<!-- BndEvt__ObjectivesManager_K2Node_ComponentBoundEvent_0_DelegateEvent__DelegateSignature__0 -->
<g id="node15" class="node">
<title>BndEvt__ObjectivesManager_K2Node_ComponentBoundEvent_0_DelegateEvent__DelegateSignature__0</title>
<polygon fill="#eeeeee" stroke="black" points="1688.5,-296.5 1688.5,-334.5 2266.5,-334.5 2266.5,-296.5 1688.5,-296.5"/>
<text text-anchor="start" x="1696.5" y="-319.3" font-family="monospace" font-size="14.00">EX_LocalFinalFunction export GM_Mining_C&#45;&gt;ExecuteUbergraph_GM_Mining</text>
<text text-anchor="start" x="1696.5" y="-304.3" font-family="monospace" font-size="14.00">  EX_IntConst 29</text>
</g>
<!-- BndEvt__ObjectivesManager_K2Node_ComponentBoundEvent_0_DelegateEvent__DelegateSignature&#45;&gt;BndEvt__ObjectivesManager_K2Node_ComponentBoundEvent_0_DelegateEvent__DelegateSignature__0 -->
<g id="edge9" class="edge">
<title>BndEvt__ObjectivesManager_K2Node_ComponentBoundEvent_0_DelegateEvent__DelegateSignature&#45;&gt;BndEvt__ObjectivesManager_K2Node_ComponentBoundEvent_0_DelegateEvent__DelegateSignature__0</title>
<path fill="none" stroke="black" d="M1977.5,-395.37C1977.5,-381.6 1977.5,-361.74 1977.5,-345.39"/>
<polygon fill="black" stroke="black" points="1981,-345.75 1977.5,-335.75 1974,-345.75 1981,-345.75"/>
</g>
<!-- BndEvt__ObjectivesManager_K2Node_ComponentBoundEvent_0_DelegateEvent__DelegateSignature__0&#45;&gt;ExecuteUbergraph_GM_Mining__29 -->
<g id="edge10" class="edge">
<title>BndEvt__ObjectivesManager_K2Node_ComponentBoundEvent_0_DelegateEvent__DelegateSignature__0:e&#45;&gt;ExecuteUbergraph_GM_Mining__29</title>
<path fill="none" stroke="red" d="M2267.5,-315.5C2276.18,-315.5 2271.04,-303.4 2266.5,-296 2258.01,-282.18 2244.63,-271.51 2230.56,-263.44"/>
<polygon fill="none" stroke="red" points="2232.58,-260.55 2222.1,-258.96 2229.3,-266.73 2232.58,-260.55"/>
</g>
<!-- BndEvt__ObjectivesManager_K2Node_ComponentBoundEvent_0_DelegateEvent__DelegateSignature__15 -->
<g id="node16" class="node">
<title>BndEvt__ObjectivesManager_K2Node_ComponentBoundEvent_0_DelegateEvent__DelegateSignature__15</title>
<polygon fill="#eeeeee" stroke="black" points="1919.5,-221.5 1919.5,-259.5 2035.5,-259.5 2035.5,-221.5 1919.5,-221.5"/>
<text text-anchor="start" x="1927.5" y="-244.3" font-family="monospace" font-size="14.00">EX_Return</text>
<text text-anchor="start" x="1927.5" y="-229.3" font-family="monospace" font-size="14.00">  EX_Nothing</text>
</g>
<!-- BndEvt__ObjectivesManager_K2Node_ComponentBoundEvent_0_DelegateEvent__DelegateSignature__0&#45;&gt;BndEvt__ObjectivesManager_K2Node_ComponentBoundEvent_0_DelegateEvent__DelegateSignature__15 -->
<g id="edge11" class="edge">
<title>BndEvt__ObjectivesManager_K2Node_ComponentBoundEvent_0_DelegateEvent__DelegateSignature__0&#45;&gt;BndEvt__ObjectivesManager_K2Node_ComponentBoundEvent_0_DelegateEvent__DelegateSignature__15</title>
<path fill="none" stroke="black" d="M1977.5,-296.83C1977.5,-289 1977.5,-279.57 1977.5,-270.74"/>
<polygon fill="black" stroke="black" points="1981,-270.78 1977.5,-260.78 1974,-270.78 1981,-270.78"/>
</g>
<!-- BndEvt__ObjectivesManager_K2Node_ComponentBoundEvent_0_DelegateEvent__DelegateSignature__17 -->
<g id="node17" class="node">
<title>BndEvt__ObjectivesManager_K2Node_ComponentBoundEvent_0_DelegateEvent__DelegateSignature__17</title>
<polygon fill="#eeeeee" stroke="black" points="2015.5,-1.5 2015.5,-37.5 2147.5,-37.5 2147.5,-1.5 2015.5,-1.5"/>
<text text-anchor="start" x="2023.5" y="-15.8" font-family="monospace" font-size="14.00">EX_EndOfScript</text>
</g>
</g>
</svg>
