<?xml version="1.0" encoding="UTF-8" standalone="no"?>
<!DOCTYPE svg PUBLIC "-//W3C//DTD SVG 1.1//EN"
 "http://www.w3.org/Graphics/SVG/1.1/DTD/svg11.dtd">
<!-- Generated by graphviz version 7.0.1 (0)
 -->
<!-- Pages: 1 -->
<svg width="3972pt" height="973pt"
 viewBox="0.00 0.00 3972.00 973.00" xmlns="http://www.w3.org/2000/svg" xmlns:xlink="http://www.w3.org/1999/xlink">
<g id="graph0" class="graph" transform="scale(1 1) rotate(0) translate(4 969)">
<polygon fill="white" stroke="none" points="-4,4 -4,-969 3968,-969 3968,4 -4,4"/>
<!-- DLCclaimPopup_DLC04_DawnOfTheDread_C -->
<g id="node1" class="node">
<title>DLCclaimPopup_DLC04_DawnOfTheDread_C</title>
<polygon fill="#88ff88" stroke="black" points="0,-641.5 0,-964.5 850,-964.5 850,-641.5 0,-641.5"/>
<text text-anchor="start" x="8" y="-949.3" font-family="monospace" font-size="14.00">ClassExport: DLCclaimPopup_DLC04_DawnOfTheDread_C</text>
<text text-anchor="start" x="8" y="-934.3" font-family="monospace" font-size="14.00">  SuperStruct: import /Script/FSD&#45;&gt;WindowWidget</text>
<text text-anchor="start" x="8" y="-919.3" font-family="monospace" font-size="14.00">  Properties:</text>
<text text-anchor="start" x="8" y="-904.3" font-family="monospace" font-size="14.00">    StructProperty UberGraphFrame</text>
<text text-anchor="start" x="8" y="-889.3" font-family="monospace" font-size="14.00">      CPF_Transient|CPF_DuplicateTransient</text>
<text text-anchor="start" x="8" y="-874.3" font-family="monospace" font-size="14.00">    ObjectProperty DLCclaimPopup_Base</text>
<text text-anchor="start" x="8" y="-859.3" font-family="monospace" font-size="14.00">      CPF_BlueprintVisible|CPF_ExportObject|CPF_InstancedReference|CPF_RepSkip|CPF_PersistentInstance</text>
<text text-anchor="start" x="8" y="-844.3" font-family="monospace" font-size="14.00">    ObjectProperty UI_ClaimableDLC_TextLine</text>
<text text-anchor="start" x="8" y="-829.3" font-family="monospace" font-size="14.00">      CPF_BlueprintVisible|CPF_ExportObject|CPF_InstancedReference|CPF_RepSkip|CPF_PersistentInstance</text>
<text text-anchor="start" x="8" y="-814.3" font-family="monospace" font-size="14.00">    ObjectProperty UI_ClaimableDLC_TextLine_C</text>
<text text-anchor="start" x="8" y="-799.3" font-family="monospace" font-size="14.00">      CPF_BlueprintVisible|CPF_ExportObject|CPF_InstancedReference|CPF_RepSkip|CPF_PersistentInstance</text>
<text text-anchor="start" x="8" y="-784.3" font-family="monospace" font-size="14.00">    ObjectProperty UI_ClaimableDLC_TextLine_C_47</text>
<text text-anchor="start" x="8" y="-769.3" font-family="monospace" font-size="14.00">      CPF_BlueprintVisible|CPF_ExportObject|CPF_InstancedReference|CPF_RepSkip|CPF_PersistentInstance</text>
<text text-anchor="start" x="8" y="-754.3" font-family="monospace" font-size="14.00">    ObjectProperty UI_ClaimableDLC_TextLine_C_48</text>
<text text-anchor="start" x="8" y="-739.3" font-family="monospace" font-size="14.00">      CPF_BlueprintVisible|CPF_ExportObject|CPF_InstancedReference|CPF_RepSkip|CPF_PersistentInstance</text>
<text text-anchor="start" x="8" y="-724.3" font-family="monospace" font-size="14.00">    ObjectProperty UI_ClaimableDLC_TextLine_C_49</text>
<text text-anchor="start" x="8" y="-709.3" font-family="monospace" font-size="14.00">      CPF_BlueprintVisible|CPF_ExportObject|CPF_InstancedReference|CPF_RepSkip|CPF_PersistentInstance</text>
<text text-anchor="start" x="8" y="-694.3" font-family="monospace" font-size="14.00">    ObjectProperty UI_ClaimableDLC_TextLine_C_50</text>
<text text-anchor="start" x="8" y="-679.3" font-family="monospace" font-size="14.00">      CPF_BlueprintVisible|CPF_ExportObject|CPF_InstancedReference|CPF_RepSkip|CPF_PersistentInstance</text>
<text text-anchor="start" x="8" y="-664.3" font-family="monospace" font-size="14.00">    ObjectProperty DLC</text>
<text text-anchor="start" x="8" y="-649.3" font-family="monospace" font-size="14.00">      CPF_Edit|CPF_BlueprintVisible|CPF_DisableEditOnInstance</text>
</g>
<!-- ExecuteUbergraph_DLCclaimPopup_DLC04_DawnOfTheDread -->
<g id="node2" class="node">
<title>ExecuteUbergraph_DLCclaimPopup_DLC04_DawnOfTheDread</title>
<polygon fill="#ff8888" stroke="black" points="868,-776.5 868,-829.5 1380,-829.5 1380,-776.5 868,-776.5"/>
<text text-anchor="start" x="876" y="-814.3" font-family="monospace" font-size="14.00">Function ExecuteUbergraph_DLCclaimPopup_DLC04_DawnOfTheDread</text>
<text text-anchor="start" x="876" y="-799.3" font-family="monospace" font-size="14.00">  IntProperty EntryPoint</text>
<text text-anchor="start" x="876" y="-784.3" font-family="monospace" font-size="14.00">    CPF_BlueprintVisible|CPF_BlueprintReadOnly|CPF_Parm</text>
</g>
<!-- ExecuteUbergraph_DLCclaimPopup_DLC04_DawnOfTheDread__0 -->
<g id="node3" class="node">
<title>ExecuteUbergraph_DLCclaimPopup_DLC04_DawnOfTheDread__0</title>
<polygon fill="#eeeeee" stroke="black" points="988,-566.5 988,-604.5 1260,-604.5 1260,-566.5 988,-566.5"/>
<text text-anchor="start" x="996" y="-589.3" font-family="monospace" font-size="14.00">EX_ComputedJump</text>
<text text-anchor="start" x="996" y="-574.3" font-family="monospace" font-size="14.00">  EX_LocalVariable [EntryPoint]</text>
</g>
<!-- ExecuteUbergraph_DLCclaimPopup_DLC04_DawnOfTheDread&#45;&gt;ExecuteUbergraph_DLCclaimPopup_DLC04_DawnOfTheDread__0 -->
<g id="edge1" class="edge">
<title>ExecuteUbergraph_DLCclaimPopup_DLC04_DawnOfTheDread&#45;&gt;ExecuteUbergraph_DLCclaimPopup_DLC04_DawnOfTheDread__0</title>
<path fill="none" stroke="black" d="M1124,-776.86C1124,-736.74 1124,-658.44 1124,-615.83"/>
<polygon fill="black" stroke="black" points="1127.5,-615.84 1124,-605.84 1120.5,-615.84 1127.5,-615.84"/>
</g>
<!-- ExecuteUbergraph_DLCclaimPopup_DLC04_DawnOfTheDread__10 -->
<g id="node4" class="node">
<title>ExecuteUbergraph_DLCclaimPopup_DLC04_DawnOfTheDread__10</title>
<polygon fill="#eeeeee" stroke="black" points="2600.5,-148.5 2600.5,-336.5 3813.5,-336.5 3813.5,-148.5 2600.5,-148.5"/>
<text text-anchor="start" x="2608.5" y="-321.3" font-family="monospace" font-size="14.00">EX_Context</text>
<text text-anchor="start" x="2608.5" y="-306.3" font-family="monospace" font-size="14.00">  EX_ObjectConst import /Script/Engine&#45;&gt;Default__GameplayStatics</text>
<text text-anchor="start" x="2608.5" y="-291.3" font-family="monospace" font-size="14.00">  EX_FinalFunction import /Script/Engine&#45;&gt;GameplayStatics&#45;&gt;PlaySound2D</text>
<text text-anchor="start" x="2608.5" y="-276.3" font-family="monospace" font-size="14.00">    EX_Self</text>
<text text-anchor="start" x="2608.5" y="-261.3" font-family="monospace" font-size="14.00">    EX_ObjectConst import /Game/Audio/SFX/UI/Menu/reward_Promotion/Promotion_Reward_ClaimButton_Doors_Cue&#45;&gt;Promotion_Reward_ClaimButton_Doors_Cue</text>
<text text-anchor="start" x="2608.5" y="-246.3" font-family="monospace" font-size="14.00">    EX_FloatConst 1</text>
<text text-anchor="start" x="2608.5" y="-231.3" font-family="monospace" font-size="14.00">    EX_FloatConst 1</text>
<text text-anchor="start" x="2608.5" y="-216.3" font-family="monospace" font-size="14.00">    EX_FloatConst 0</text>
<text text-anchor="start" x="2608.5" y="-201.3" font-family="monospace" font-size="14.00">    EX_NoObject</text>
<text text-anchor="start" x="2608.5" y="-186.3" font-family="monospace" font-size="14.00">    EX_NoObject</text>
<text text-anchor="start" x="2608.5" y="-171.3" font-family="monospace" font-size="14.00">    EX_True</text>
<text text-anchor="start" x="2608.5" y="-156.3" font-family="monospace" font-size="14.00">  RValue = []</text>
</g>
<!-- ExecuteUbergraph_DLCclaimPopup_DLC04_DawnOfTheDread__70 -->
<g id="node5" class="node">
<title>ExecuteUbergraph_DLCclaimPopup_DLC04_DawnOfTheDread__70</title>
<polygon fill="#eeeeee" stroke="black" points="2849.5,-75.5 2849.5,-111.5 2956.5,-111.5 2956.5,-75.5 2849.5,-75.5"/>
<text text-anchor="start" x="2857.5" y="-89.8" font-family="monospace" font-size="14.00">EX_Jump 128</text>
</g>
<!-- ExecuteUbergraph_DLCclaimPopup_DLC04_DawnOfTheDread__10&#45;&gt;ExecuteUbergraph_DLCclaimPopup_DLC04_DawnOfTheDread__70 -->
<g id="edge2" class="edge">
<title>ExecuteUbergraph_DLCclaimPopup_DLC04_DawnOfTheDread__10&#45;&gt;ExecuteUbergraph_DLCclaimPopup_DLC04_DawnOfTheDread__70</title>
<path fill="none" stroke="black" d="M3014.9,-148.61C2990.09,-136.61 2966.8,-125.35 2947.97,-116.25"/>
<polygon fill="black" stroke="black" points="2949.59,-113.14 2939.07,-111.94 2946.55,-119.44 2949.59,-113.14"/>
</g>
<!-- ExecuteUbergraph_DLCclaimPopup_DLC04_DawnOfTheDread__128 -->
<g id="node10" class="node">
<title>ExecuteUbergraph_DLCclaimPopup_DLC04_DawnOfTheDread__128</title>
<polygon fill="#eeeeee" stroke="black" points="2528,-0.5 2528,-38.5 2644,-38.5 2644,-0.5 2528,-0.5"/>
<text text-anchor="start" x="2536" y="-23.3" font-family="monospace" font-size="14.00">EX_Return</text>
<text text-anchor="start" x="2536" y="-8.3" font-family="monospace" font-size="14.00">  EX_Nothing</text>
</g>
<!-- ExecuteUbergraph_DLCclaimPopup_DLC04_DawnOfTheDread__70&#45;&gt;ExecuteUbergraph_DLCclaimPopup_DLC04_DawnOfTheDread__128 -->
<g id="edge3" class="edge">
<title>ExecuteUbergraph_DLCclaimPopup_DLC04_DawnOfTheDread__70&#45;&gt;ExecuteUbergraph_DLCclaimPopup_DLC04_DawnOfTheDread__128</title>
<path fill="none" stroke="black" d="M2849.64,-82.02C2801.26,-72.31 2727.76,-57.04 2654.49,-39.29"/>
<polygon fill="black" stroke="black" points="2655.7,-35.99 2645.16,-37.02 2654.04,-42.79 2655.7,-35.99"/>
</g>
<!-- ExecuteUbergraph_DLCclaimPopup_DLC04_DawnOfTheDread__75 -->
<g id="node6" class="node">
<title>ExecuteUbergraph_DLCclaimPopup_DLC04_DawnOfTheDread__75</title>
<polygon fill="#eeeeee" stroke="black" points="2103.5,-470 2103.5,-506 2664.5,-506 2664.5,-470 2103.5,-470"/>
<text text-anchor="start" x="2111.5" y="-484.3" font-family="monospace" font-size="14.00">EX_FinalFunction import /Script/FSD&#45;&gt;WindowWidget&#45;&gt;CloseThisWindow</text>
</g>
<!-- ExecuteUbergraph_DLCclaimPopup_DLC04_DawnOfTheDread__85 -->
<g id="node7" class="node">
<title>ExecuteUbergraph_DLCclaimPopup_DLC04_DawnOfTheDread__85</title>
<polygon fill="#eeeeee" stroke="black" points="2437.5,-373.5 2437.5,-409.5 2544.5,-409.5 2544.5,-373.5 2437.5,-373.5"/>
<text text-anchor="start" x="2445.5" y="-387.8" font-family="monospace" font-size="14.00">EX_Jump 128</text>
</g>
<!-- ExecuteUbergraph_DLCclaimPopup_DLC04_DawnOfTheDread__75&#45;&gt;ExecuteUbergraph_DLCclaimPopup_DLC04_DawnOfTheDread__85 -->
<g id="edge4" class="edge">
<title>ExecuteUbergraph_DLCclaimPopup_DLC04_DawnOfTheDread__75&#45;&gt;ExecuteUbergraph_DLCclaimPopup_DLC04_DawnOfTheDread__85</title>
<path fill="none" stroke="black" d="M2403.13,-470.11C2419.94,-455.26 2444.61,-433.47 2463.53,-416.76"/>
<polygon fill="black" stroke="black" points="2465.72,-419.49 2470.9,-410.25 2461.09,-414.25 2465.72,-419.49"/>
</g>
<!-- ExecuteUbergraph_DLCclaimPopup_DLC04_DawnOfTheDread__85&#45;&gt;ExecuteUbergraph_DLCclaimPopup_DLC04_DawnOfTheDread__128 -->
<g id="edge5" class="edge">
<title>ExecuteUbergraph_DLCclaimPopup_DLC04_DawnOfTheDread__85&#45;&gt;ExecuteUbergraph_DLCclaimPopup_DLC04_DawnOfTheDread__128</title>
<path fill="none" stroke="black" d="M2495.33,-373.64C2510.25,-315.52 2559.67,-123.05 2578.56,-49.46"/>
<polygon fill="black" stroke="black" points="2581.95,-50.34 2581.05,-39.78 2575.17,-48.6 2581.95,-50.34"/>
</g>
<!-- ExecuteUbergraph_DLCclaimPopup_DLC04_DawnOfTheDread__90 -->
<g id="node8" class="node">
<title>ExecuteUbergraph_DLCclaimPopup_DLC04_DawnOfTheDread__90</title>
<polygon fill="#eeeeee" stroke="black" points="2974,-446.5 2974,-529.5 3494,-529.5 3494,-446.5 2974,-446.5"/>
<text text-anchor="start" x="2982" y="-514.3" font-family="monospace" font-size="14.00">EX_Context</text>
<text text-anchor="start" x="2982" y="-499.3" font-family="monospace" font-size="14.00">  EX_InstanceVariable [DLC]</text>
<text text-anchor="start" x="2982" y="-484.3" font-family="monospace" font-size="14.00">  EX_FinalFunction import /Script/FSD&#45;&gt;GameDLC&#45;&gt;MarkAnnounced</text>
<text text-anchor="start" x="2982" y="-469.3" font-family="monospace" font-size="14.00">    EX_Self</text>
<text text-anchor="start" x="2982" y="-454.3" font-family="monospace" font-size="14.00">  RValue = []</text>
</g>
<!-- ExecuteUbergraph_DLCclaimPopup_DLC04_DawnOfTheDread__123 -->
<g id="node9" class="node">
<title>ExecuteUbergraph_DLCclaimPopup_DLC04_DawnOfTheDread__123</title>
<polygon fill="#eeeeee" stroke="black" points="3170.5,-373.5 3170.5,-409.5 3269.5,-409.5 3269.5,-373.5 3170.5,-373.5"/>
<text text-anchor="start" x="3178.5" y="-387.8" font-family="monospace" font-size="14.00">EX_Jump 10</text>
</g>
<!-- ExecuteUbergraph_DLCclaimPopup_DLC04_DawnOfTheDread__90&#45;&gt;ExecuteUbergraph_DLCclaimPopup_DLC04_DawnOfTheDread__123 -->
<g id="edge6" class="edge">
<title>ExecuteUbergraph_DLCclaimPopup_DLC04_DawnOfTheDread__90&#45;&gt;ExecuteUbergraph_DLCclaimPopup_DLC04_DawnOfTheDread__123</title>
<path fill="none" stroke="black" d="M3228.02,-446.65C3226.72,-437.89 3225.38,-428.8 3224.17,-420.63"/>
<polygon fill="black" stroke="black" points="3227.66,-420.34 3222.73,-410.96 3220.74,-421.36 3227.66,-420.34"/>
</g>
<!-- ExecuteUbergraph_DLCclaimPopup_DLC04_DawnOfTheDread__123&#45;&gt;ExecuteUbergraph_DLCclaimPopup_DLC04_DawnOfTheDread__10 -->
<g id="edge7" class="edge">
<title>ExecuteUbergraph_DLCclaimPopup_DLC04_DawnOfTheDread__123&#45;&gt;ExecuteUbergraph_DLCclaimPopup_DLC04_DawnOfTheDread__10</title>
<path fill="none" stroke="black" d="M3218.51,-373.64C3217.88,-366.51 3217.09,-357.59 3216.22,-347.77"/>
<polygon fill="black" stroke="black" points="3219.71,-347.52 3215.35,-337.86 3212.74,-348.13 3219.71,-347.52"/>
</g>
<!-- ExecuteUbergraph_DLCclaimPopup_DLC04_DawnOfTheDread__130 -->
<g id="node11" class="node">
<title>ExecuteUbergraph_DLCclaimPopup_DLC04_DawnOfTheDread__130</title>
<polygon fill="#eeeeee" stroke="black" points="3832,-224.5 3832,-260.5 3964,-260.5 3964,-224.5 3832,-224.5"/>
<text text-anchor="start" x="3840" y="-238.8" font-family="monospace" font-size="14.00">EX_EndOfScript</text>
</g>
<!-- OnClosed -->
<g id="node12" class="node">
<title>OnClosed</title>
<polygon fill="#ff8888" stroke="black" points="2740.5,-785 2740.5,-821 2897.5,-821 2897.5,-785 2740.5,-785"/>
<text text-anchor="start" x="2748.5" y="-799.3" font-family="monospace" font-size="14.00">Function OnClosed</text>
</g>
<!-- OnClosed__0 -->
<g id="node13" class="node">
<title>OnClosed__0</title>
<polygon fill="#eeeeee" stroke="black" points="2324,-566.5 2324,-604.5 3314,-604.5 3314,-566.5 2324,-566.5"/>
<text text-anchor="start" x="2332" y="-589.3" font-family="monospace" font-size="14.00">EX_LocalFinalFunction export DLCclaimPopup_DLC04_DawnOfTheDread_C&#45;&gt;ExecuteUbergraph_DLCclaimPopup_DLC04_DawnOfTheDread</text>
<text text-anchor="start" x="2332" y="-574.3" font-family="monospace" font-size="14.00">  EX_IntConst 90</text>
</g>
<!-- OnClosed&#45;&gt;OnClosed__0 -->
<g id="edge8" class="edge">
<title>OnClosed&#45;&gt;OnClosed__0</title>
<path fill="none" stroke="black" d="M2819,-785.09C2819,-748.46 2819,-661.42 2819,-615.7"/>
<polygon fill="black" stroke="black" points="2822.5,-615.75 2819,-605.75 2815.5,-615.75 2822.5,-615.75"/>
</g>
<!-- OnClosed__0&#45;&gt;ExecuteUbergraph_DLCclaimPopup_DLC04_DawnOfTheDread__90 -->
<g id="edge9" class="edge">
<title>OnClosed__0:e&#45;&gt;ExecuteUbergraph_DLCclaimPopup_DLC04_DawnOfTheDread__90</title>
<path fill="none" stroke="red" d="M3315,-585.5C3343.15,-585.5 3322.53,-561.12 3295.06,-536.86"/>
<polygon fill="none" stroke="red" points="3297.37,-534.23 3287.51,-530.35 3292.8,-539.53 3297.37,-534.23"/>
</g>
<!-- OnClosed__15 -->
<g id="node14" class="node">
<title>OnClosed__15</title>
<polygon fill="#eeeeee" stroke="black" points="2761,-469 2761,-507 2877,-507 2877,-469 2761,-469"/>
<text text-anchor="start" x="2769" y="-491.8" font-family="monospace" font-size="14.00">EX_Return</text>
<text text-anchor="start" x="2769" y="-476.8" font-family="monospace" font-size="14.00">  EX_Nothing</text>
</g>
<!-- OnClosed__0&#45;&gt;OnClosed__15 -->
<g id="edge10" class="edge">
<title>OnClosed__0&#45;&gt;OnClosed__15</title>
<path fill="none" stroke="black" d="M2819,-566.54C2819,-552.93 2819,-533.95 2819,-518.18"/>
<polygon fill="black" stroke="black" points="2822.5,-518.4 2819,-508.4 2815.5,-518.4 2822.5,-518.4"/>
</g>
<!-- OnClosed__17 -->
<g id="node15" class="node">
<title>OnClosed__17</title>
<polygon fill="#eeeeee" stroke="black" points="2975,-75.5 2975,-111.5 3107,-111.5 3107,-75.5 2975,-75.5"/>
<text text-anchor="start" x="2983" y="-89.8" font-family="monospace" font-size="14.00">EX_EndOfScript</text>
</g>
<!-- BndEvt__DLCclaimPopup_Base_K2Node_ComponentBoundEvent_0_OnCloseClicked__DelegateSignature -->
<g id="node16" class="node">
<title>BndEvt__DLCclaimPopup_Base_K2Node_ComponentBoundEvent_0_OnCloseClicked__DelegateSignature</title>
<polygon fill="#ff8888" stroke="black" points="1398.5,-785 1398.5,-821 2223.5,-821 2223.5,-785 1398.5,-785"/>
<text text-anchor="start" x="1406.5" y="-799.3" font-family="monospace" font-size="14.00">Function BndEvt__DLCclaimPopup_Base_K2Node_ComponentBoundEvent_0_OnCloseClicked__DelegateSignature</text>
</g>
<!-- BndEvt__DLCclaimPopup_Base_K2Node_ComponentBoundEvent_0_OnCloseClicked__DelegateSignature__0 -->
<g id="node17" class="node">
<title>BndEvt__DLCclaimPopup_Base_K2Node_ComponentBoundEvent_0_OnCloseClicked__DelegateSignature__0</title>
<polygon fill="#eeeeee" stroke="black" points="1316,-566.5 1316,-604.5 2306,-604.5 2306,-566.5 1316,-566.5"/>
<text text-anchor="start" x="1324" y="-589.3" font-family="monospace" font-size="14.00">EX_LocalFinalFunction export DLCclaimPopup_DLC04_DawnOfTheDread_C&#45;&gt;ExecuteUbergraph_DLCclaimPopup_DLC04_DawnOfTheDread</text>
<text text-anchor="start" x="1324" y="-574.3" font-family="monospace" font-size="14.00">  EX_IntConst 75</text>
</g>
<!-- BndEvt__DLCclaimPopup_Base_K2Node_ComponentBoundEvent_0_OnCloseClicked__DelegateSignature&#45;&gt;BndEvt__DLCclaimPopup_Base_K2Node_ComponentBoundEvent_0_OnCloseClicked__DelegateSignature__0 -->
<g id="edge11" class="edge">
<title>BndEvt__DLCclaimPopup_Base_K2Node_ComponentBoundEvent_0_OnCloseClicked__DelegateSignature&#45;&gt;BndEvt__DLCclaimPopup_Base_K2Node_ComponentBoundEvent_0_OnCloseClicked__DelegateSignature__0</title>
<path fill="none" stroke="black" d="M1811,-785.09C1811,-748.46 1811,-661.42 1811,-615.7"/>
<polygon fill="black" stroke="black" points="1814.5,-615.75 1811,-605.75 1807.5,-615.75 1814.5,-615.75"/>
</g>
<!-- BndEvt__DLCclaimPopup_Base_K2Node_ComponentBoundEvent_0_OnCloseClicked__DelegateSignature__0&#45;&gt;ExecuteUbergraph_DLCclaimPopup_DLC04_DawnOfTheDread__75 -->
<g id="edge12" class="edge">
<title>BndEvt__DLCclaimPopup_Base_K2Node_ComponentBoundEvent_0_OnCloseClicked__DelegateSignature__0:e&#45;&gt;ExecuteUbergraph_DLCclaimPopup_DLC04_DawnOfTheDread__75</title>
<path fill="none" stroke="red" d="M2307,-585.5C2316.37,-585.5 2310.02,-573.94 2315,-566 2326.96,-546.93 2343.75,-528.07 2357.78,-513.79"/>
<polygon fill="none" stroke="red" points="2359.97,-516.54 2364.59,-507.01 2355.03,-511.58 2359.97,-516.54"/>
</g>
<!-- BndEvt__DLCclaimPopup_Base_K2Node_ComponentBoundEvent_0_OnCloseClicked__DelegateSignature__15 -->
<g id="node18" class="node">
<title>BndEvt__DLCclaimPopup_Base_K2Node_ComponentBoundEvent_0_OnCloseClicked__DelegateSignature__15</title>
<polygon fill="#eeeeee" stroke="black" points="1753,-469 1753,-507 1869,-507 1869,-469 1753,-469"/>
<text text-anchor="start" x="1761" y="-491.8" font-family="monospace" font-size="14.00">EX_Return</text>
<text text-anchor="start" x="1761" y="-476.8" font-family="monospace" font-size="14.00">  EX_Nothing</text>
</g>
<!-- BndEvt__DLCclaimPopup_Base_K2Node_ComponentBoundEvent_0_OnCloseClicked__DelegateSignature__0&#45;&gt;BndEvt__DLCclaimPopup_Base_K2Node_ComponentBoundEvent_0_OnCloseClicked__DelegateSignature__15 -->
<g id="edge13" class="edge">
<title>BndEvt__DLCclaimPopup_Base_K2Node_ComponentBoundEvent_0_OnCloseClicked__DelegateSignature__0&#45;&gt;BndEvt__DLCclaimPopup_Base_K2Node_ComponentBoundEvent_0_OnCloseClicked__DelegateSignature__15</title>
<path fill="none" stroke="black" d="M1811,-566.54C1811,-552.93 1811,-533.95 1811,-518.18"/>
<polygon fill="black" stroke="black" points="1814.5,-518.4 1811,-508.4 1807.5,-518.4 1814.5,-518.4"/>
</g>
<!-- BndEvt__DLCclaimPopup_Base_K2Node_ComponentBoundEvent_0_OnCloseClicked__DelegateSignature__17 -->
<g id="node19" class="node">
<title>BndEvt__DLCclaimPopup_Base_K2Node_ComponentBoundEvent_0_OnCloseClicked__DelegateSignature__17</title>
<polygon fill="#eeeeee" stroke="black" points="2662,-1.5 2662,-37.5 2794,-37.5 2794,-1.5 2662,-1.5"/>
<text text-anchor="start" x="2670" y="-15.8" font-family="monospace" font-size="14.00">EX_EndOfScript</text>
</g>
</g>
</svg>
