<?xml version="1.0" encoding="UTF-8" standalone="no"?>
<!DOCTYPE svg PUBLIC "-//W3C//DTD SVG 1.1//EN"
 "http://www.w3.org/Graphics/SVG/1.1/DTD/svg11.dtd">
<!-- Generated by graphviz version 7.0.1 (0)
 -->
<!-- Pages: 1 -->
<svg width="4039pt" height="872pt"
 viewBox="0.00 0.00 4038.50 872.00" xmlns="http://www.w3.org/2000/svg" xmlns:xlink="http://www.w3.org/1999/xlink">
<g id="graph0" class="graph" transform="scale(1 1) rotate(0) translate(4 868)">
<polygon fill="white" stroke="none" points="-4,4 -4,-868 4034.5,-868 4034.5,4 -4,4"/>
<!-- BP_Coilgun_HellfireSegment_C -->
<g id="node1" class="node">
<title>BP_Coilgun_HellfireSegment_C</title>
<polygon fill="#88ff88" stroke="black" points="0,-600.5 0,-863.5 924,-863.5 924,-600.5 0,-600.5"/>
<text text-anchor="start" x="8" y="-848.3" font-family="monospace" font-size="14.00">ClassExport: BP_Coilgun_HellfireSegment_C</text>
<text text-anchor="start" x="8" y="-833.3" font-family="monospace" font-size="14.00">  SuperStruct: import /Game/WeaponsNTools/CoilGun/BP_Coilgun_Trailsegment_Base&#45;&gt;BP_Coilgun_Trailsegment_Base_C</text>
<text text-anchor="start" x="8" y="-818.3" font-family="monospace" font-size="14.00">  Properties:</text>
<text text-anchor="start" x="8" y="-803.3" font-family="monospace" font-size="14.00">    StructProperty UberGraphFrame</text>
<text text-anchor="start" x="8" y="-788.3" font-family="monospace" font-size="14.00">      CPF_Transient|CPF_DuplicateTransient</text>
<text text-anchor="start" x="8" y="-773.3" font-family="monospace" font-size="14.00">    ObjectProperty Sphere</text>
<text text-anchor="start" x="8" y="-758.3" font-family="monospace" font-size="14.00">      CPF_BlueprintVisible|CPF_InstancedReference|CPF_NonTransactional</text>
<text text-anchor="start" x="8" y="-743.3" font-family="monospace" font-size="14.00">    ObjectProperty StatusEffectTrigger</text>
<text text-anchor="start" x="8" y="-728.3" font-family="monospace" font-size="14.00">      CPF_BlueprintVisible|CPF_InstancedReference|CPF_NonTransactional</text>
<text text-anchor="start" x="8" y="-713.3" font-family="monospace" font-size="14.00">    ObjectProperty ObjectTemperature</text>
<text text-anchor="start" x="8" y="-698.3" font-family="monospace" font-size="14.00">      CPF_BlueprintVisible|CPF_InstancedReference|CPF_NonTransactional</text>
<text text-anchor="start" x="8" y="-683.3" font-family="monospace" font-size="14.00">    ObjectProperty PathfinderCollision</text>
<text text-anchor="start" x="8" y="-668.3" font-family="monospace" font-size="14.00">      CPF_BlueprintVisible|CPF_InstancedReference|CPF_NonTransactional</text>
<text text-anchor="start" x="8" y="-653.3" font-family="monospace" font-size="14.00">    ObjectProperty Audio</text>
<text text-anchor="start" x="8" y="-638.3" font-family="monospace" font-size="14.00">      CPF_BlueprintVisible|CPF_InstancedReference|CPF_NonTransactional</text>
<text text-anchor="start" x="8" y="-623.3" font-family="monospace" font-size="14.00">    ObjectProperty ParticleSystem</text>
<text text-anchor="start" x="8" y="-608.3" font-family="monospace" font-size="14.00">      CPF_BlueprintVisible|CPF_InstancedReference|CPF_NonTransactional</text>
</g>
<!-- ExecuteUbergraph_BP_Coilgun_HellfireSegment -->
<g id="node2" class="node">
<title>ExecuteUbergraph_BP_Coilgun_HellfireSegment</title>
<polygon fill="#ff8888" stroke="black" points="942,-705.5 942,-758.5 1412,-758.5 1412,-705.5 942,-705.5"/>
<text text-anchor="start" x="950" y="-743.3" font-family="monospace" font-size="14.00">Function ExecuteUbergraph_BP_Coilgun_HellfireSegment</text>
<text text-anchor="start" x="950" y="-728.3" font-family="monospace" font-size="14.00">  IntProperty EntryPoint</text>
<text text-anchor="start" x="950" y="-713.3" font-family="monospace" font-size="14.00">    CPF_BlueprintVisible|CPF_BlueprintReadOnly|CPF_Parm</text>
</g>
<!-- ExecuteUbergraph_BP_Coilgun_HellfireSegment__0 -->
<g id="node3" class="node">
<title>ExecuteUbergraph_BP_Coilgun_HellfireSegment__0</title>
<polygon fill="#eeeeee" stroke="black" points="1041,-525.5 1041,-563.5 1313,-563.5 1313,-525.5 1041,-525.5"/>
<text text-anchor="start" x="1049" y="-548.3" font-family="monospace" font-size="14.00">EX_ComputedJump</text>
<text text-anchor="start" x="1049" y="-533.3" font-family="monospace" font-size="14.00">  EX_LocalVariable [EntryPoint]</text>
</g>
<!-- ExecuteUbergraph_BP_Coilgun_HellfireSegment&#45;&gt;ExecuteUbergraph_BP_Coilgun_HellfireSegment__0 -->
<g id="edge1" class="edge">
<title>ExecuteUbergraph_BP_Coilgun_HellfireSegment&#45;&gt;ExecuteUbergraph_BP_Coilgun_HellfireSegment__0</title>
<path fill="none" stroke="black" d="M1177,-705.6C1177,-671.36 1177,-610.57 1177,-574.56"/>
<polygon fill="black" stroke="black" points="1180.5,-574.88 1177,-564.88 1173.5,-574.88 1180.5,-574.88"/>
</g>
<!-- ExecuteUbergraph_BP_Coilgun_HellfireSegment__10 -->
<g id="node4" class="node">
<title>ExecuteUbergraph_BP_Coilgun_HellfireSegment__10</title>
<polygon fill="#eeeeee" stroke="black" points="3675.5,-390.5 3675.5,-488.5 4030.5,-488.5 4030.5,-390.5 3675.5,-390.5"/>
<text text-anchor="start" x="3683.5" y="-473.3" font-family="monospace" font-size="14.00">EX_Context</text>
<text text-anchor="start" x="3683.5" y="-458.3" font-family="monospace" font-size="14.00">  EX_InstanceVariable [ObjectTemperature]</text>
<text text-anchor="start" x="3683.5" y="-443.3" font-family="monospace" font-size="14.00">  EX_VirtualFunction ChangeTemperature</text>
<text text-anchor="start" x="3683.5" y="-428.3" font-family="monospace" font-size="14.00">    EX_FloatConst 100</text>
<text text-anchor="start" x="3683.5" y="-413.3" font-family="monospace" font-size="14.00">    EX_Self</text>
<text text-anchor="start" x="3683.5" y="-398.3" font-family="monospace" font-size="14.00">  RValue = []</text>
</g>
<!-- ExecuteUbergraph_BP_Coilgun_HellfireSegment__52 -->
<g id="node5" class="node">
<title>ExecuteUbergraph_BP_Coilgun_HellfireSegment__52</title>
<polygon fill="#eeeeee" stroke="black" points="3619.5,-279 3619.5,-315 3726.5,-315 3726.5,-279 3619.5,-279"/>
<text text-anchor="start" x="3627.5" y="-293.3" font-family="monospace" font-size="14.00">EX_Jump 199</text>
</g>
<!-- ExecuteUbergraph_BP_Coilgun_HellfireSegment__10&#45;&gt;ExecuteUbergraph_BP_Coilgun_HellfireSegment__52 -->
<g id="edge2" class="edge">
<title>ExecuteUbergraph_BP_Coilgun_HellfireSegment__10&#45;&gt;ExecuteUbergraph_BP_Coilgun_HellfireSegment__52</title>
<path fill="none" stroke="black" d="M3784.38,-390.71C3768.28,-379.01 3751.34,-366.31 3736,-354 3723.66,-344.1 3710.51,-332.58 3699.43,-322.56"/>
<polygon fill="black" stroke="black" points="3701.91,-320.09 3692.16,-315.94 3697.2,-325.26 3701.91,-320.09"/>
</g>
<!-- ExecuteUbergraph_BP_Coilgun_HellfireSegment__199 -->
<g id="node10" class="node">
<title>ExecuteUbergraph_BP_Coilgun_HellfireSegment__199</title>
<polygon fill="#eeeeee" stroke="black" points="3007,-0.5 3007,-38.5 3123,-38.5 3123,-0.5 3007,-0.5"/>
<text text-anchor="start" x="3015" y="-23.3" font-family="monospace" font-size="14.00">EX_Return</text>
<text text-anchor="start" x="3015" y="-8.3" font-family="monospace" font-size="14.00">  EX_Nothing</text>
</g>
<!-- ExecuteUbergraph_BP_Coilgun_HellfireSegment__52&#45;&gt;ExecuteUbergraph_BP_Coilgun_HellfireSegment__199 -->
<g id="edge3" class="edge">
<title>ExecuteUbergraph_BP_Coilgun_HellfireSegment__52&#45;&gt;ExecuteUbergraph_BP_Coilgun_HellfireSegment__199</title>
<path fill="none" stroke="black" d="M3638.75,-279.06C3561.52,-241.06 3367.57,-146.7 3202,-75 3176.22,-63.84 3147.36,-52.23 3122.8,-42.61"/>
<polygon fill="black" stroke="black" points="3124.21,-39.4 3113.62,-39.02 3121.66,-45.92 3124.21,-39.4"/>
</g>
<!-- ExecuteUbergraph_BP_Coilgun_HellfireSegment__57 -->
<g id="node6" class="node">
<title>ExecuteUbergraph_BP_Coilgun_HellfireSegment__57</title>
<polygon fill="#eeeeee" stroke="black" points="2127,-405.5 2127,-473.5 2457,-473.5 2457,-405.5 2127,-405.5"/>
<text text-anchor="start" x="2135" y="-458.3" font-family="monospace" font-size="14.00">EX_Context</text>
<text text-anchor="start" x="2135" y="-443.3" font-family="monospace" font-size="14.00">  EX_InstanceVariable [ParticleSystem]</text>
<text text-anchor="start" x="2135" y="-428.3" font-family="monospace" font-size="14.00">  EX_VirtualFunction Deactivate</text>
<text text-anchor="start" x="2135" y="-413.3" font-family="monospace" font-size="14.00">  RValue = []</text>
</g>
<!-- ExecuteUbergraph_BP_Coilgun_HellfireSegment__93 -->
<g id="node7" class="node">
<title>ExecuteUbergraph_BP_Coilgun_HellfireSegment__93</title>
<polygon fill="#eeeeee" stroke="black" points="2399,-240.5 2399,-353.5 2655,-353.5 2655,-240.5 2399,-240.5"/>
<text text-anchor="start" x="2407" y="-338.3" font-family="monospace" font-size="14.00">EX_Context</text>
<text text-anchor="start" x="2407" y="-323.3" font-family="monospace" font-size="14.00">  EX_InstanceVariable [Audio]</text>
<text text-anchor="start" x="2407" y="-308.3" font-family="monospace" font-size="14.00">  EX_VirtualFunction FadeOut</text>
<text text-anchor="start" x="2407" y="-293.3" font-family="monospace" font-size="14.00">    EX_FloatConst 0</text>
<text text-anchor="start" x="2407" y="-278.3" font-family="monospace" font-size="14.00">    EX_FloatConst 0</text>
<text text-anchor="start" x="2407" y="-263.3" font-family="monospace" font-size="14.00">    EX_ByteConst 0</text>
<text text-anchor="start" x="2407" y="-248.3" font-family="monospace" font-size="14.00">  RValue = []</text>
</g>
<!-- ExecuteUbergraph_BP_Coilgun_HellfireSegment__57&#45;&gt;ExecuteUbergraph_BP_Coilgun_HellfireSegment__93 -->
<g id="edge4" class="edge">
<title>ExecuteUbergraph_BP_Coilgun_HellfireSegment__57&#45;&gt;ExecuteUbergraph_BP_Coilgun_HellfireSegment__93</title>
<path fill="none" stroke="black" d="M2347.1,-405.56C2370.3,-391.69 2398.07,-375.09 2424.77,-359.12"/>
<polygon fill="black" stroke="black" points="2426.46,-362.19 2433.24,-354.05 2422.87,-356.18 2426.46,-362.19"/>
</g>
<!-- ExecuteUbergraph_BP_Coilgun_HellfireSegment__141 -->
<g id="node8" class="node">
<title>ExecuteUbergraph_BP_Coilgun_HellfireSegment__141</title>
<polygon fill="#eeeeee" stroke="black" points="2694.5,-121.5 2694.5,-157.5 2801.5,-157.5 2801.5,-121.5 2694.5,-121.5"/>
<text text-anchor="start" x="2702.5" y="-135.8" font-family="monospace" font-size="14.00">EX_Jump 199</text>
</g>
<!-- ExecuteUbergraph_BP_Coilgun_HellfireSegment__93&#45;&gt;ExecuteUbergraph_BP_Coilgun_HellfireSegment__141 -->
<g id="edge5" class="edge">
<title>ExecuteUbergraph_BP_Coilgun_HellfireSegment__93&#45;&gt;ExecuteUbergraph_BP_Coilgun_HellfireSegment__141</title>
<path fill="none" stroke="black" d="M2605.85,-240.52C2643.27,-214.19 2685.98,-184.14 2714.73,-163.91"/>
<polygon fill="black" stroke="black" points="2716.52,-166.93 2722.68,-158.31 2712.49,-161.2 2716.52,-166.93"/>
</g>
<!-- ExecuteUbergraph_BP_Coilgun_HellfireSegment__141&#45;&gt;ExecuteUbergraph_BP_Coilgun_HellfireSegment__199 -->
<g id="edge6" class="edge">
<title>ExecuteUbergraph_BP_Coilgun_HellfireSegment__141&#45;&gt;ExecuteUbergraph_BP_Coilgun_HellfireSegment__199</title>
<path fill="none" stroke="black" d="M2793.42,-121.59C2849.38,-100.76 2944.58,-65.33 3006.11,-42.42"/>
<polygon fill="black" stroke="black" points="3007.24,-45.73 3015.39,-38.97 3004.8,-39.17 3007.24,-45.73"/>
</g>
<!-- ExecuteUbergraph_BP_Coilgun_HellfireSegment__146 -->
<g id="node9" class="node">
<title>ExecuteUbergraph_BP_Coilgun_HellfireSegment__146</title>
<polygon fill="#eeeeee" stroke="black" points="2937,-75.5 2937,-203.5 3193,-203.5 3193,-75.5 2937,-75.5"/>
<text text-anchor="start" x="2945" y="-188.3" font-family="monospace" font-size="14.00">EX_Context</text>
<text text-anchor="start" x="2945" y="-173.3" font-family="monospace" font-size="14.00">  EX_InstanceVariable [Audio]</text>
<text text-anchor="start" x="2945" y="-158.3" font-family="monospace" font-size="14.00">  EX_VirtualFunction FadeIn</text>
<text text-anchor="start" x="2945" y="-143.3" font-family="monospace" font-size="14.00">    EX_FloatConst 0.1</text>
<text text-anchor="start" x="2945" y="-128.3" font-family="monospace" font-size="14.00">    EX_FloatConst 1</text>
<text text-anchor="start" x="2945" y="-113.3" font-family="monospace" font-size="14.00">    EX_FloatConst 0</text>
<text text-anchor="start" x="2945" y="-98.3" font-family="monospace" font-size="14.00">    EX_ByteConst 0</text>
<text text-anchor="start" x="2945" y="-83.3" font-family="monospace" font-size="14.00">  RValue = []</text>
</g>
<!-- ExecuteUbergraph_BP_Coilgun_HellfireSegment__146&#45;&gt;ExecuteUbergraph_BP_Coilgun_HellfireSegment__199 -->
<g id="edge7" class="edge">
<title>ExecuteUbergraph_BP_Coilgun_HellfireSegment__146&#45;&gt;ExecuteUbergraph_BP_Coilgun_HellfireSegment__199</title>
<path fill="none" stroke="black" d="M3065,-75.7C3065,-66.49 3065,-57.4 3065,-49.34"/>
<polygon fill="black" stroke="black" points="3068.5,-49.53 3065,-39.53 3061.5,-49.53 3068.5,-49.53"/>
</g>
<!-- ExecuteUbergraph_BP_Coilgun_HellfireSegment__201 -->
<g id="node11" class="node">
<title>ExecuteUbergraph_BP_Coilgun_HellfireSegment__201</title>
<polygon fill="#eeeeee" stroke="black" points="3521,-121.5 3521,-157.5 3653,-157.5 3653,-121.5 3521,-121.5"/>
<text text-anchor="start" x="3529" y="-135.8" font-family="monospace" font-size="14.00">EX_EndOfScript</text>
</g>
<!-- OnStartEffects -->
<g id="node12" class="node">
<title>OnStartEffects</title>
<polygon fill="#ff8888" stroke="black" points="2533,-714 2533,-750 2739,-750 2739,-714 2533,-714"/>
<text text-anchor="start" x="2541" y="-728.3" font-family="monospace" font-size="14.00">Function OnStartEffects</text>
</g>
<!-- OnStartEffects__0 -->
<g id="node13" class="node">
<title>OnStartEffects__0</title>
<polygon fill="#eeeeee" stroke="black" points="2207,-525.5 2207,-563.5 3065,-563.5 3065,-525.5 2207,-525.5"/>
<text text-anchor="start" x="2215" y="-548.3" font-family="monospace" font-size="14.00">EX_LocalFinalFunction export BP_Coilgun_HellfireSegment_C&#45;&gt;ExecuteUbergraph_BP_Coilgun_HellfireSegment</text>
<text text-anchor="start" x="2215" y="-533.3" font-family="monospace" font-size="14.00">  EX_IntConst 146</text>
</g>
<!-- OnStartEffects&#45;&gt;OnStartEffects__0 -->
<g id="edge8" class="edge">
<title>OnStartEffects&#45;&gt;OnStartEffects__0</title>
<path fill="none" stroke="black" d="M2636,-714.21C2636,-682.68 2636,-614.24 2636,-574.9"/>
<polygon fill="black" stroke="black" points="2639.5,-574.99 2636,-564.99 2632.5,-574.99 2639.5,-574.99"/>
</g>
<!-- OnStartEffects__0&#45;&gt;ExecuteUbergraph_BP_Coilgun_HellfireSegment__146 -->
<g id="edge9" class="edge">
<title>OnStartEffects__0:e&#45;&gt;ExecuteUbergraph_BP_Coilgun_HellfireSegment__146</title>
<path fill="none" stroke="red" d="M3066,-544.5C3082.31,-544.5 3074.39,-331.11 3068.84,-214.5"/>
<polygon fill="none" stroke="red" points="3072.34,-214.51 3068.36,-204.69 3065.35,-214.85 3072.34,-214.51"/>
</g>
<!-- OnStartEffects__15 -->
<g id="node14" class="node">
<title>OnStartEffects__15</title>
<polygon fill="#eeeeee" stroke="black" points="2578,-420.5 2578,-458.5 2694,-458.5 2694,-420.5 2578,-420.5"/>
<text text-anchor="start" x="2586" y="-443.3" font-family="monospace" font-size="14.00">EX_Return</text>
<text text-anchor="start" x="2586" y="-428.3" font-family="monospace" font-size="14.00">  EX_Nothing</text>
</g>
<!-- OnStartEffects__0&#45;&gt;OnStartEffects__15 -->
<g id="edge10" class="edge">
<title>OnStartEffects__0&#45;&gt;OnStartEffects__15</title>
<path fill="none" stroke="black" d="M2636,-525.56C2636,-510.12 2636,-487.57 2636,-469.56"/>
<polygon fill="black" stroke="black" points="2639.5,-469.75 2636,-459.75 2632.5,-469.75 2639.5,-469.75"/>
</g>
<!-- OnStartEffects__17 -->
<g id="node15" class="node">
<title>OnStartEffects__17</title>
<polygon fill="#eeeeee" stroke="black" points="3141,-1.5 3141,-37.5 3273,-37.5 3273,-1.5 3141,-1.5"/>
<text text-anchor="start" x="3149" y="-15.8" font-family="monospace" font-size="14.00">EX_EndOfScript</text>
</g>
<!-- OnEndEffects -->
<g id="node16" class="node">
<title>OnEndEffects</title>
<polygon fill="#ff8888" stroke="black" points="1665,-714 1665,-750 1855,-750 1855,-714 1665,-714"/>
<text text-anchor="start" x="1673" y="-728.3" font-family="monospace" font-size="14.00">Function OnEndEffects</text>
</g>
<!-- OnEndEffects__0 -->
<g id="node17" class="node">
<title>OnEndEffects__0</title>
<polygon fill="#eeeeee" stroke="black" points="1331,-525.5 1331,-563.5 2189,-563.5 2189,-525.5 1331,-525.5"/>
<text text-anchor="start" x="1339" y="-548.3" font-family="monospace" font-size="14.00">EX_LocalFinalFunction export BP_Coilgun_HellfireSegment_C&#45;&gt;ExecuteUbergraph_BP_Coilgun_HellfireSegment</text>
<text text-anchor="start" x="1339" y="-533.3" font-family="monospace" font-size="14.00">  EX_IntConst 57</text>
</g>
<!-- OnEndEffects&#45;&gt;OnEndEffects__0 -->
<g id="edge11" class="edge">
<title>OnEndEffects&#45;&gt;OnEndEffects__0</title>
<path fill="none" stroke="black" d="M1760,-714.21C1760,-682.68 1760,-614.24 1760,-574.9"/>
<polygon fill="black" stroke="black" points="1763.5,-574.99 1760,-564.99 1756.5,-574.99 1763.5,-574.99"/>
</g>
<!-- OnEndEffects__0&#45;&gt;ExecuteUbergraph_BP_Coilgun_HellfireSegment__57 -->
<g id="edge12" class="edge">
<title>OnEndEffects__0:e&#45;&gt;ExecuteUbergraph_BP_Coilgun_HellfireSegment__57</title>
<path fill="none" stroke="red" d="M2190,-544.5C2199.37,-544.5 2192.6,-532.66 2198,-525 2209.41,-508.81 2224.47,-493.53 2239.17,-480.53"/>
<polygon fill="none" stroke="red" points="2241.31,-483.31 2246.62,-474.13 2236.75,-478 2241.31,-483.31"/>
</g>
<!-- OnEndEffects__15 -->
<g id="node18" class="node">
<title>OnEndEffects__15</title>
<polygon fill="#eeeeee" stroke="black" points="1702,-420.5 1702,-458.5 1818,-458.5 1818,-420.5 1702,-420.5"/>
<text text-anchor="start" x="1710" y="-443.3" font-family="monospace" font-size="14.00">EX_Return</text>
<text text-anchor="start" x="1710" y="-428.3" font-family="monospace" font-size="14.00">  EX_Nothing</text>
</g>
<!-- OnEndEffects__0&#45;&gt;OnEndEffects__15 -->
<g id="edge13" class="edge">
<title>OnEndEffects__0&#45;&gt;OnEndEffects__15</title>
<path fill="none" stroke="black" d="M1760,-525.56C1760,-510.12 1760,-487.57 1760,-469.56"/>
<polygon fill="black" stroke="black" points="1763.5,-469.75 1760,-459.75 1756.5,-469.75 1763.5,-469.75"/>
</g>
<!-- OnEndEffects__17 -->
<g id="node19" class="node">
<title>OnEndEffects__17</title>
<polygon fill="#eeeeee" stroke="black" points="3745,-279 3745,-315 3877,-315 3877,-279 3745,-279"/>
<text text-anchor="start" x="3753" y="-293.3" font-family="monospace" font-size="14.00">EX_EndOfScript</text>
</g>
<!-- ReceiveBeginPlay -->
<g id="node20" class="node">
<title>ReceiveBeginPlay</title>
<polygon fill="#ff8888" stroke="black" points="3400.5,-714 3400.5,-750 3623.5,-750 3623.5,-714 3400.5,-714"/>
<text text-anchor="start" x="3408.5" y="-728.3" font-family="monospace" font-size="14.00">Function ReceiveBeginPlay</text>
</g>
<!-- ReceiveBeginPlay__0 -->
<g id="node21" class="node">
<title>ReceiveBeginPlay__0</title>
<polygon fill="#eeeeee" stroke="black" points="3083,-525.5 3083,-563.5 3941,-563.5 3941,-525.5 3083,-525.5"/>
<text text-anchor="start" x="3091" y="-548.3" font-family="monospace" font-size="14.00">EX_LocalFinalFunction export BP_Coilgun_HellfireSegment_C&#45;&gt;ExecuteUbergraph_BP_Coilgun_HellfireSegment</text>
<text text-anchor="start" x="3091" y="-533.3" font-family="monospace" font-size="14.00">  EX_IntConst 10</text>
</g>
<!-- ReceiveBeginPlay&#45;&gt;ReceiveBeginPlay__0 -->
<g id="edge14" class="edge">
<title>ReceiveBeginPlay&#45;&gt;ReceiveBeginPlay__0</title>
<path fill="none" stroke="black" d="M3512,-714.21C3512,-682.68 3512,-614.24 3512,-574.9"/>
<polygon fill="black" stroke="black" points="3515.5,-574.99 3512,-564.99 3508.5,-574.99 3515.5,-574.99"/>
</g>
<!-- ReceiveBeginPlay__0&#45;&gt;ExecuteUbergraph_BP_Coilgun_HellfireSegment__10 -->
<g id="edge15" class="edge">
<title>ReceiveBeginPlay__0:e&#45;&gt;ExecuteUbergraph_BP_Coilgun_HellfireSegment__10</title>
<path fill="none" stroke="red" d="M3942,-544.5C3971.2,-544.5 3951.87,-520.54 3923.86,-495.62"/>
<polygon fill="none" stroke="red" points="3926.34,-493.14 3916.5,-489.23 3921.76,-498.43 3926.34,-493.14"/>
</g>
<!-- ReceiveBeginPlay__15 -->
<g id="node22" class="node">
<title>ReceiveBeginPlay__15</title>
<polygon fill="#eeeeee" stroke="black" points="3454,-420.5 3454,-458.5 3570,-458.5 3570,-420.5 3454,-420.5"/>
<text text-anchor="start" x="3462" y="-443.3" font-family="monospace" font-size="14.00">EX_Return</text>
<text text-anchor="start" x="3462" y="-428.3" font-family="monospace" font-size="14.00">  EX_Nothing</text>
</g>
<!-- ReceiveBeginPlay__0&#45;&gt;ReceiveBeginPlay__15 -->
<g id="edge16" class="edge">
<title>ReceiveBeginPlay__0&#45;&gt;ReceiveBeginPlay__15</title>
<path fill="none" stroke="black" d="M3512,-525.56C3512,-510.12 3512,-487.57 3512,-469.56"/>
<polygon fill="black" stroke="black" points="3515.5,-469.75 3512,-459.75 3508.5,-469.75 3515.5,-469.75"/>
</g>
<!-- ReceiveBeginPlay__17 -->
<g id="node23" class="node">
<title>ReceiveBeginPlay__17</title>
<polygon fill="#eeeeee" stroke="black" points="3642,-714 3642,-750 3774,-750 3774,-714 3642,-714"/>
<text text-anchor="start" x="3650" y="-728.3" font-family="monospace" font-size="14.00">EX_EndOfScript</text>
</g>
</g>
</svg>
