<?xml version="1.0" encoding="UTF-8" standalone="no"?>
<!DOCTYPE svg PUBLIC "-//W3C//DTD SVG 1.1//EN"
 "http://www.w3.org/Graphics/SVG/1.1/DTD/svg11.dtd">
<!-- Generated by graphviz version 7.0.1 (0)
 -->
<!-- Pages: 1 -->
<svg width="4513pt" height="1645pt"
 viewBox="0.00 0.00 4512.50 1645.00" xmlns="http://www.w3.org/2000/svg" xmlns:xlink="http://www.w3.org/1999/xlink">
<g id="graph0" class="graph" transform="scale(1 1) rotate(0) translate(4 1641)">
<polygon fill="white" stroke="none" points="-4,4 -4,-1641 4508.5,-1641 4508.5,4 -4,4"/>
<!-- UI_DLC_Indicator_C -->
<g id="node1" class="node">
<title>UI_DLC_Indicator_C</title>
<polygon fill="#88ff88" stroke="black" points="0,-1403.5 0,-1636.5 850,-1636.5 850,-1403.5 0,-1403.5"/>
<text text-anchor="start" x="8" y="-1621.3" font-family="monospace" font-size="14.00">ClassExport: UI_DLC_Indicator_C</text>
<text text-anchor="start" x="8" y="-1606.3" font-family="monospace" font-size="14.00">  SuperStruct: import /Script/UMG&#45;&gt;UserWidget</text>
<text text-anchor="start" x="8" y="-1591.3" font-family="monospace" font-size="14.00">  Properties:</text>
<text text-anchor="start" x="8" y="-1576.3" font-family="monospace" font-size="14.00">    StructProperty UberGraphFrame</text>
<text text-anchor="start" x="8" y="-1561.3" font-family="monospace" font-size="14.00">      CPF_Transient|CPF_DuplicateTransient</text>
<text text-anchor="start" x="8" y="-1546.3" font-family="monospace" font-size="14.00">    ObjectProperty DLC_SizeBox</text>
<text text-anchor="start" x="8" y="-1531.3" font-family="monospace" font-size="14.00">      CPF_BlueprintVisible|CPF_ExportObject|CPF_InstancedReference|CPF_RepSkip|CPF_PersistentInstance</text>
<text text-anchor="start" x="8" y="-1516.3" font-family="monospace" font-size="14.00">    ObjectProperty Root_Canvas</text>
<text text-anchor="start" x="8" y="-1501.3" font-family="monospace" font-size="14.00">      CPF_BlueprintVisible|CPF_ExportObject|CPF_InstancedReference|CPF_RepSkip|CPF_PersistentInstance</text>
<text text-anchor="start" x="8" y="-1486.3" font-family="monospace" font-size="14.00">    IntProperty Size</text>
<text text-anchor="start" x="8" y="-1471.3" font-family="monospace" font-size="14.00">      CPF_Edit|CPF_BlueprintVisible|CPF_ExposeOnSpawn</text>
<text text-anchor="start" x="8" y="-1456.3" font-family="monospace" font-size="14.00">    ByteProperty Tint</text>
<text text-anchor="start" x="8" y="-1441.3" font-family="monospace" font-size="14.00">      CPF_Edit|CPF_BlueprintVisible|CPF_ExposeOnSpawn</text>
<text text-anchor="start" x="8" y="-1426.3" font-family="monospace" font-size="14.00">    ObjectProperty DLC</text>
<text text-anchor="start" x="8" y="-1411.3" font-family="monospace" font-size="14.00">      CPF_Edit|CPF_BlueprintVisible|CPF_ExposeOnSpawn</text>
</g>
<!-- ExecuteUbergraph_UI_DLC_Indicator -->
<g id="node2" class="node">
<title>ExecuteUbergraph_UI_DLC_Indicator</title>
<polygon fill="#ff8888" stroke="black" points="868,-1478.5 868,-1561.5 1338,-1561.5 1338,-1478.5 868,-1478.5"/>
<text text-anchor="start" x="876" y="-1546.3" font-family="monospace" font-size="14.00">Function ExecuteUbergraph_UI_DLC_Indicator</text>
<text text-anchor="start" x="876" y="-1531.3" font-family="monospace" font-size="14.00">  IntProperty EntryPoint</text>
<text text-anchor="start" x="876" y="-1516.3" font-family="monospace" font-size="14.00">    CPF_BlueprintVisible|CPF_BlueprintReadOnly|CPF_Parm</text>
<text text-anchor="start" x="876" y="-1501.3" font-family="monospace" font-size="14.00">  FloatProperty CallFunc_Conv_IntToFloat_ReturnValue</text>
<text text-anchor="start" x="876" y="-1486.3" font-family="monospace" font-size="14.00">  BoolProperty K2Node_Event_IsDesignTime</text>
</g>
<!-- ExecuteUbergraph_UI_DLC_Indicator__0 -->
<g id="node3" class="node">
<title>ExecuteUbergraph_UI_DLC_Indicator__0</title>
<polygon fill="#eeeeee" stroke="black" points="967,-1276.5 967,-1314.5 1239,-1314.5 1239,-1276.5 967,-1276.5"/>
<text text-anchor="start" x="975" y="-1299.3" font-family="monospace" font-size="14.00">EX_ComputedJump</text>
<text text-anchor="start" x="975" y="-1284.3" font-family="monospace" font-size="14.00">  EX_LocalVariable [EntryPoint]</text>
</g>
<!-- ExecuteUbergraph_UI_DLC_Indicator&#45;&gt;ExecuteUbergraph_UI_DLC_Indicator__0 -->
<g id="edge1" class="edge">
<title>ExecuteUbergraph_UI_DLC_Indicator&#45;&gt;ExecuteUbergraph_UI_DLC_Indicator__0</title>
<path fill="none" stroke="black" d="M1103,-1478.71C1103,-1434.54 1103,-1364.77 1103,-1325.62"/>
<polygon fill="black" stroke="black" points="1106.5,-1325.8 1103,-1315.8 1099.5,-1325.8 1106.5,-1325.8"/>
</g>
<!-- ExecuteUbergraph_UI_DLC_Indicator__10 -->
<g id="node4" class="node">
<title>ExecuteUbergraph_UI_DLC_Indicator__10</title>
<polygon fill="#eeeeee" stroke="black" points="2372,-968 2372,-1036 2974,-1036 2974,-968 2372,-968"/>
<text text-anchor="start" x="2380" y="-1020.8" font-family="monospace" font-size="14.00">EX_Let</text>
<text text-anchor="start" x="2380" y="-1005.8" font-family="monospace" font-size="14.00">  EX_LocalVariable [CallFunc_Conv_IntToFloat_ReturnValue]</text>
<text text-anchor="start" x="2380" y="-990.8" font-family="monospace" font-size="14.00">  EX_CallMath import /Script/Engine&#45;&gt;KismetMathLibrary&#45;&gt;Conv_IntToFloat</text>
<text text-anchor="start" x="2380" y="-975.8" font-family="monospace" font-size="14.00">    EX_InstanceVariable [Size]</text>
</g>
<!-- ExecuteUbergraph_UI_DLC_Indicator__47 -->
<g id="node5" class="node">
<title>ExecuteUbergraph_UI_DLC_Indicator__47</title>
<polygon fill="#eeeeee" stroke="black" points="2325.5,-788.5 2325.5,-871.5 2878.5,-871.5 2878.5,-788.5 2325.5,-788.5"/>
<text text-anchor="start" x="2333.5" y="-856.3" font-family="monospace" font-size="14.00">EX_Context</text>
<text text-anchor="start" x="2333.5" y="-841.3" font-family="monospace" font-size="14.00">  EX_InstanceVariable [DLC_SizeBox]</text>
<text text-anchor="start" x="2333.5" y="-826.3" font-family="monospace" font-size="14.00">  EX_FinalFunction import /Script/UMG&#45;&gt;SizeBox&#45;&gt;SetHeightOverride</text>
<text text-anchor="start" x="2333.5" y="-811.3" font-family="monospace" font-size="14.00">    EX_LocalVariable [CallFunc_Conv_IntToFloat_ReturnValue]</text>
<text text-anchor="start" x="2333.5" y="-796.3" font-family="monospace" font-size="14.00">  RValue = []</text>
</g>
<!-- ExecuteUbergraph_UI_DLC_Indicator__10&#45;&gt;ExecuteUbergraph_UI_DLC_Indicator__47 -->
<g id="edge2" class="edge">
<title>ExecuteUbergraph_UI_DLC_Indicator__10&#45;&gt;ExecuteUbergraph_UI_DLC_Indicator__47</title>
<path fill="none" stroke="black" d="M2659.31,-968.22C2649.09,-943.75 2634.94,-909.86 2623.25,-881.88"/>
<polygon fill="black" stroke="black" points="2626.57,-880.75 2619.49,-872.87 2620.11,-883.45 2626.57,-880.75"/>
</g>
<!-- ExecuteUbergraph_UI_DLC_Indicator__88 -->
<g id="node6" class="node">
<title>ExecuteUbergraph_UI_DLC_Indicator__88</title>
<polygon fill="#eeeeee" stroke="black" points="2340.5,-662.5 2340.5,-698.5 2447.5,-698.5 2447.5,-662.5 2340.5,-662.5"/>
<text text-anchor="start" x="2348.5" y="-676.8" font-family="monospace" font-size="14.00">EX_Jump 116</text>
</g>
<!-- ExecuteUbergraph_UI_DLC_Indicator__47&#45;&gt;ExecuteUbergraph_UI_DLC_Indicator__88 -->
<g id="edge3" class="edge">
<title>ExecuteUbergraph_UI_DLC_Indicator__47&#45;&gt;ExecuteUbergraph_UI_DLC_Indicator__88</title>
<path fill="none" stroke="black" d="M2545.16,-788.69C2507.23,-761.79 2458.67,-727.36 2426.97,-704.88"/>
<polygon fill="black" stroke="black" points="2429.12,-702.12 2418.94,-699.19 2425.08,-707.83 2429.12,-702.12"/>
</g>
<!-- ExecuteUbergraph_UI_DLC_Indicator__116 -->
<g id="node8" class="node">
<title>ExecuteUbergraph_UI_DLC_Indicator__116</title>
<polygon fill="#eeeeee" stroke="black" points="2249,-534 2249,-572 2365,-572 2365,-534 2249,-534"/>
<text text-anchor="start" x="2257" y="-556.8" font-family="monospace" font-size="14.00">EX_Return</text>
<text text-anchor="start" x="2257" y="-541.8" font-family="monospace" font-size="14.00">  EX_Nothing</text>
</g>
<!-- ExecuteUbergraph_UI_DLC_Indicator__88&#45;&gt;ExecuteUbergraph_UI_DLC_Indicator__116 -->
<g id="edge4" class="edge">
<title>ExecuteUbergraph_UI_DLC_Indicator__88&#45;&gt;ExecuteUbergraph_UI_DLC_Indicator__116</title>
<path fill="none" stroke="black" d="M2382.27,-662.57C2367.77,-641.67 2342.93,-605.83 2325.77,-581.08"/>
<polygon fill="black" stroke="black" points="2328.82,-579.34 2320.25,-573.11 2323.07,-583.33 2328.82,-579.34"/>
</g>
<!-- ExecuteUbergraph_UI_DLC_Indicator__93 -->
<g id="node7" class="node">
<title>ExecuteUbergraph_UI_DLC_Indicator__93</title>
<polygon fill="#eeeeee" stroke="black" points="1893.5,-1077.5 1893.5,-1115.5 2190.5,-1115.5 2190.5,-1077.5 1893.5,-1077.5"/>
<text text-anchor="start" x="1901.5" y="-1100.3" font-family="monospace" font-size="14.00">EX_LocalVirtualFunction SetFromDLC</text>
<text text-anchor="start" x="1901.5" y="-1085.3" font-family="monospace" font-size="14.00">  EX_InstanceVariable [DLC]</text>
</g>
<!-- ExecuteUbergraph_UI_DLC_Indicator__93&#45;&gt;ExecuteUbergraph_UI_DLC_Indicator__116 -->
<g id="edge5" class="edge">
<title>ExecuteUbergraph_UI_DLC_Indicator__93&#45;&gt;ExecuteUbergraph_UI_DLC_Indicator__116</title>
<path fill="none" stroke="black" d="M2065.96,-1077.54C2103.27,-1047.31 2171,-982.4 2171,-909.5 2171,-909.5 2171,-909.5 2171,-679.5 2171,-632.16 2216.05,-597.75 2254.29,-577.05"/>
<polygon fill="black" stroke="black" points="2255.74,-580.25 2263,-572.53 2252.51,-574.03 2255.74,-580.25"/>
</g>
<!-- ExecuteUbergraph_UI_DLC_Indicator__118 -->
<g id="node9" class="node">
<title>ExecuteUbergraph_UI_DLC_Indicator__118</title>
<polygon fill="#eeeeee" stroke="black" points="2715,-1348.5 2715,-1384.5 2847,-1384.5 2847,-1348.5 2715,-1348.5"/>
<text text-anchor="start" x="2723" y="-1362.8" font-family="monospace" font-size="14.00">EX_EndOfScript</text>
</g>
<!-- Construct -->
<g id="node10" class="node">
<title>Construct</title>
<polygon fill="#ff8888" stroke="black" points="1521.5,-1502 1521.5,-1538 1686.5,-1538 1686.5,-1502 1521.5,-1502"/>
<text text-anchor="start" x="1529.5" y="-1516.3" font-family="monospace" font-size="14.00">Function Construct</text>
</g>
<!-- Construct__0 -->
<g id="node11" class="node">
<title>Construct__0</title>
<polygon fill="#eeeeee" stroke="black" points="1257.5,-1276.5 1257.5,-1314.5 1950.5,-1314.5 1950.5,-1276.5 1257.5,-1276.5"/>
<text text-anchor="start" x="1265.5" y="-1299.3" font-family="monospace" font-size="14.00">EX_LocalFinalFunction export UI_DLC_Indicator_C&#45;&gt;ExecuteUbergraph_UI_DLC_Indicator</text>
<text text-anchor="start" x="1265.5" y="-1284.3" font-family="monospace" font-size="14.00">  EX_IntConst 93</text>
</g>
<!-- Construct&#45;&gt;Construct__0 -->
<g id="edge6" class="edge">
<title>Construct&#45;&gt;Construct__0</title>
<path fill="none" stroke="black" d="M1604,-1502.28C1604,-1464.62 1604,-1372.81 1604,-1325.59"/>
<polygon fill="black" stroke="black" points="1607.5,-1325.86 1604,-1315.86 1600.5,-1325.86 1607.5,-1325.86"/>
</g>
<!-- Construct__0&#45;&gt;ExecuteUbergraph_UI_DLC_Indicator__93 -->
<g id="edge7" class="edge">
<title>Construct__0:e&#45;&gt;ExecuteUbergraph_UI_DLC_Indicator__93</title>
<path fill="none" stroke="red" d="M1952,-1295.5C2024.22,-1295.5 1928.85,-1193.35 1970,-1134 1973.13,-1129.49 1976.99,-1125.5 1981.28,-1121.98"/>
<polygon fill="none" stroke="red" points="1983.21,-1124.91 1989.36,-1116.28 1979.17,-1119.19 1983.21,-1124.91"/>
</g>
<!-- Construct__15 -->
<g id="node12" class="node">
<title>Construct__15</title>
<polygon fill="#eeeeee" stroke="black" points="1546,-1142 1546,-1180 1662,-1180 1662,-1142 1546,-1142"/>
<text text-anchor="start" x="1554" y="-1164.8" font-family="monospace" font-size="14.00">EX_Return</text>
<text text-anchor="start" x="1554" y="-1149.8" font-family="monospace" font-size="14.00">  EX_Nothing</text>
</g>
<!-- Construct__0&#45;&gt;Construct__15 -->
<g id="edge8" class="edge">
<title>Construct__0&#45;&gt;Construct__15</title>
<path fill="none" stroke="black" d="M1604,-1276.63C1604,-1254.68 1604,-1217.14 1604,-1191.03"/>
<polygon fill="black" stroke="black" points="1607.5,-1191.1 1604,-1181.1 1600.5,-1191.1 1607.5,-1191.1"/>
</g>
<!-- Construct__17 -->
<g id="node13" class="node">
<title>Construct__17</title>
<polygon fill="#eeeeee" stroke="black" points="2713,-1206.5 2713,-1242.5 2845,-1242.5 2845,-1206.5 2713,-1206.5"/>
<text text-anchor="start" x="2721" y="-1220.8" font-family="monospace" font-size="14.00">EX_EndOfScript</text>
</g>
<!-- PreConstruct -->
<g id="node14" class="node">
<title>PreConstruct</title>
<polygon fill="#ff8888" stroke="black" points="2091,-1493.5 2091,-1546.5 2561,-1546.5 2561,-1493.5 2091,-1493.5"/>
<text text-anchor="start" x="2099" y="-1531.3" font-family="monospace" font-size="14.00">Function PreConstruct</text>
<text text-anchor="start" x="2099" y="-1516.3" font-family="monospace" font-size="14.00">  BoolProperty IsDesignTime</text>
<text text-anchor="start" x="2099" y="-1501.3" font-family="monospace" font-size="14.00">    CPF_BlueprintVisible|CPF_BlueprintReadOnly|CPF_Parm</text>
</g>
<!-- PreConstruct__0 -->
<g id="node15" class="node">
<title>PreConstruct__0</title>
<polygon fill="#eeeeee" stroke="black" points="2086.5,-1276.5 2086.5,-1314.5 2565.5,-1314.5 2565.5,-1276.5 2086.5,-1276.5"/>
<text text-anchor="start" x="2094.5" y="-1299.3" font-family="monospace" font-size="14.00">EX_LetValueOnPersistentFrame [K2Node_Event_IsDesignTime]</text>
<text text-anchor="start" x="2094.5" y="-1284.3" font-family="monospace" font-size="14.00">  EX_LocalVariable [IsDesignTime]</text>
</g>
<!-- PreConstruct&#45;&gt;PreConstruct__0 -->
<g id="edge9" class="edge">
<title>PreConstruct&#45;&gt;PreConstruct__0</title>
<path fill="none" stroke="black" d="M2326,-1493.91C2326,-1452.46 2326,-1369.89 2326,-1325.82"/>
<polygon fill="black" stroke="black" points="2329.5,-1325.99 2326,-1315.99 2322.5,-1325.99 2329.5,-1325.99"/>
</g>
<!-- PreConstruct__18 -->
<g id="node16" class="node">
<title>PreConstruct__18</title>
<polygon fill="#eeeeee" stroke="black" points="1979.5,-1142 1979.5,-1180 2672.5,-1180 2672.5,-1142 1979.5,-1142"/>
<text text-anchor="start" x="1987.5" y="-1164.8" font-family="monospace" font-size="14.00">EX_LocalFinalFunction export UI_DLC_Indicator_C&#45;&gt;ExecuteUbergraph_UI_DLC_Indicator</text>
<text text-anchor="start" x="1987.5" y="-1149.8" font-family="monospace" font-size="14.00">  EX_IntConst 10</text>
</g>
<!-- PreConstruct__0&#45;&gt;PreConstruct__18 -->
<g id="edge10" class="edge">
<title>PreConstruct__0&#45;&gt;PreConstruct__18</title>
<path fill="none" stroke="black" d="M2326,-1276.63C2326,-1254.68 2326,-1217.14 2326,-1191.03"/>
<polygon fill="black" stroke="black" points="2329.5,-1191.1 2326,-1181.1 2322.5,-1191.1 2329.5,-1191.1"/>
</g>
<!-- PreConstruct__18&#45;&gt;ExecuteUbergraph_UI_DLC_Indicator__10 -->
<g id="edge11" class="edge">
<title>PreConstruct__18:e&#45;&gt;ExecuteUbergraph_UI_DLC_Indicator__10</title>
<path fill="none" stroke="red" d="M2674,-1161C2719.97,-1161 2705.33,-1093.31 2689.73,-1046.54"/>
<polygon fill="none" stroke="red" points="2693.07,-1045.47 2686.49,-1037.17 2686.45,-1047.76 2693.07,-1045.47"/>
</g>
<!-- PreConstruct__33 -->
<g id="node17" class="node">
<title>PreConstruct__33</title>
<polygon fill="#eeeeee" stroke="black" points="2238,-983 2238,-1021 2354,-1021 2354,-983 2238,-983"/>
<text text-anchor="start" x="2246" y="-1005.8" font-family="monospace" font-size="14.00">EX_Return</text>
<text text-anchor="start" x="2246" y="-990.8" font-family="monospace" font-size="14.00">  EX_Nothing</text>
</g>
<!-- PreConstruct__18&#45;&gt;PreConstruct__33 -->
<g id="edge12" class="edge">
<title>PreConstruct__18&#45;&gt;PreConstruct__33</title>
<path fill="none" stroke="black" d="M2322.62,-1142.3C2317.49,-1115.44 2307.68,-1064.13 2301.51,-1031.84"/>
<polygon fill="black" stroke="black" points="2305.02,-1031.53 2299.7,-1022.37 2298.14,-1032.85 2305.02,-1031.53"/>
</g>
<!-- PreConstruct__35 -->
<g id="node18" class="node">
<title>PreConstruct__35</title>
<polygon fill="#eeeeee" stroke="black" points="2874,-1078.5 2874,-1114.5 3006,-1114.5 3006,-1078.5 2874,-1078.5"/>
<text text-anchor="start" x="2882" y="-1092.8" font-family="monospace" font-size="14.00">EX_EndOfScript</text>
</g>
<!-- SetFromSkin -->
<g id="node19" class="node">
<title>SetFromSkin</title>
<polygon fill="#ff8888" stroke="black" points="3000,-1471 3000,-1569 3470,-1569 3470,-1471 3000,-1471"/>
<text text-anchor="start" x="3008" y="-1553.8" font-family="monospace" font-size="14.00">Function SetFromSkin</text>
<text text-anchor="start" x="3008" y="-1538.8" font-family="monospace" font-size="14.00">  ObjectProperty InItem</text>
<text text-anchor="start" x="3008" y="-1523.8" font-family="monospace" font-size="14.00">    CPF_BlueprintVisible|CPF_BlueprintReadOnly|CPF_Parm</text>
<text text-anchor="start" x="3008" y="-1508.8" font-family="monospace" font-size="14.00">  BoolProperty CallFunc_IsValid_ReturnValue</text>
<text text-anchor="start" x="3008" y="-1493.8" font-family="monospace" font-size="14.00">  ObjectProperty K2Node_DynamicCast_AsDLC</text>
<text text-anchor="start" x="3008" y="-1478.8" font-family="monospace" font-size="14.00">  BoolProperty K2Node_DynamicCast_bSuccess</text>
</g>
<!-- SetFromSkin__0 -->
<g id="node20" class="node">
<title>SetFromSkin__0</title>
<polygon fill="#eeeeee" stroke="black" points="2958.5,-1261.5 2958.5,-1329.5 3511.5,-1329.5 3511.5,-1261.5 2958.5,-1261.5"/>
<text text-anchor="start" x="2966.5" y="-1314.3" font-family="monospace" font-size="14.00">EX_LetBool</text>
<text text-anchor="start" x="2966.5" y="-1299.3" font-family="monospace" font-size="14.00">  EX_LocalVariable [CallFunc_IsValid_ReturnValue]</text>
<text text-anchor="start" x="2966.5" y="-1284.3" font-family="monospace" font-size="14.00">  EX_CallMath import /Script/Engine&#45;&gt;KismetSystemLibrary&#45;&gt;IsValid</text>
<text text-anchor="start" x="2966.5" y="-1269.3" font-family="monospace" font-size="14.00">    EX_LocalVariable [InItem]</text>
</g>
<!-- SetFromSkin&#45;&gt;SetFromSkin__0 -->
<g id="edge13" class="edge">
<title>SetFromSkin&#45;&gt;SetFromSkin__0</title>
<path fill="none" stroke="black" d="M3235,-1471.27C3235,-1432.5 3235,-1378.26 3235,-1340.53"/>
<polygon fill="black" stroke="black" points="3238.5,-1340.9 3235,-1330.9 3231.5,-1340.9 3238.5,-1340.9"/>
</g>
<!-- SetFromSkin__29 -->
<g id="node21" class="node">
<title>SetFromSkin__29</title>
<polygon fill="#eeeeee" stroke="black" points="3024.5,-1142 3024.5,-1180 3445.5,-1180 3445.5,-1142 3024.5,-1142"/>
<text text-anchor="start" x="3032.5" y="-1164.8" font-family="monospace" font-size="14.00">EX_JumpIfNot 194</text>
<text text-anchor="start" x="3032.5" y="-1149.8" font-family="monospace" font-size="14.00">  EX_LocalVariable [CallFunc_IsValid_ReturnValue]</text>
</g>
<!-- SetFromSkin__0&#45;&gt;SetFromSkin__29 -->
<g id="edge14" class="edge">
<title>SetFromSkin__0&#45;&gt;SetFromSkin__29</title>
<path fill="none" stroke="black" d="M3235,-1261.75C3235,-1240.09 3235,-1211.96 3235,-1191.1"/>
<polygon fill="black" stroke="black" points="3238.5,-1191.27 3235,-1181.27 3231.5,-1191.27 3238.5,-1191.27"/>
</g>
<!-- SetFromSkin__43 -->
<g id="node22" class="node">
<title>SetFromSkin__43</title>
<polygon fill="#eeeeee" stroke="black" points="2992.5,-945.5 2992.5,-1058.5 3421.5,-1058.5 3421.5,-945.5 2992.5,-945.5"/>
<text text-anchor="start" x="3000.5" y="-1043.3" font-family="monospace" font-size="14.00">EX_Let</text>
<text text-anchor="start" x="3000.5" y="-1028.3" font-family="monospace" font-size="14.00">  EX_LocalVariable [K2Node_DynamicCast_AsDLC]</text>
<text text-anchor="start" x="3000.5" y="-1013.3" font-family="monospace" font-size="14.00">  EX_DynamicCast import /Script/FSD&#45;&gt;DLCAquisition</text>
<text text-anchor="start" x="3000.5" y="-998.3" font-family="monospace" font-size="14.00">    EX_Context</text>
<text text-anchor="start" x="3000.5" y="-983.3" font-family="monospace" font-size="14.00">      EX_LocalVariable [InItem]</text>
<text text-anchor="start" x="3000.5" y="-968.3" font-family="monospace" font-size="14.00">      EX_InstanceVariable [Aquisition]</text>
<text text-anchor="start" x="3000.5" y="-953.3" font-family="monospace" font-size="14.00">      RValue = [Aquisition]</text>
</g>
<!-- SetFromSkin__29&#45;&gt;SetFromSkin__43 -->
<g id="edge16" class="edge">
<title>SetFromSkin__29&#45;&gt;SetFromSkin__43</title>
<path fill="none" stroke="black" d="M3231.84,-1142.3C3228.68,-1124.54 3223.6,-1096.1 3218.87,-1069.53"/>
<polygon fill="black" stroke="black" points="3222.33,-1069.02 3217.13,-1059.79 3215.44,-1070.25 3222.33,-1069.02"/>
<text text-anchor="middle" x="3235.5" y="-1092.8" font-family="monospace" font-size="14.00">IF</text>
</g>
<!-- SetFromSkin__194 -->
<g id="node27" class="node">
<title>SetFromSkin__194</title>
<polygon fill="#eeeeee" stroke="black" points="3308.5,-534 3308.5,-572 3605.5,-572 3605.5,-534 3308.5,-534"/>
<text text-anchor="start" x="3316.5" y="-556.8" font-family="monospace" font-size="14.00">EX_LocalVirtualFunction SetFromDLC</text>
<text text-anchor="start" x="3316.5" y="-541.8" font-family="monospace" font-size="14.00">  EX_NoObject</text>
</g>
<!-- SetFromSkin__29&#45;&gt;SetFromSkin__194 -->
<g id="edge15" class="edge">
<title>SetFromSkin__29:e&#45;&gt;SetFromSkin__194</title>
<path fill="none" stroke="red" d="M3447,-1161C3517.36,-1161 3457,-1073.36 3457,-1003 3457,-1003 3457,-1003 3457,-679.5 3457,-646.55 3457,-608.72 3457,-583.29"/>
<polygon fill="none" stroke="red" points="3460.5,-583.39 3457,-573.39 3453.5,-583.39 3460.5,-583.39"/>
<text text-anchor="middle" x="3482" y="-826.3" font-family="monospace" font-size="14.00">IF NOT</text>
</g>
<!-- SetFromSkin__101 -->
<g id="node23" class="node">
<title>SetFromSkin__101</title>
<polygon fill="#eeeeee" stroke="black" points="2993.5,-796 2993.5,-864 3406.5,-864 3406.5,-796 2993.5,-796"/>
<text text-anchor="start" x="3001.5" y="-848.8" font-family="monospace" font-size="14.00">EX_Let</text>
<text text-anchor="start" x="3001.5" y="-833.8" font-family="monospace" font-size="14.00">  EX_LocalVariable [K2Node_DynamicCast_bSuccess]</text>
<text text-anchor="start" x="3001.5" y="-818.8" font-family="monospace" font-size="14.00">  EX_PrimitiveCast ObjectToBool</text>
<text text-anchor="start" x="3001.5" y="-803.8" font-family="monospace" font-size="14.00">    EX_LocalVariable [K2Node_DynamicCast_AsDLC]</text>
</g>
<!-- SetFromSkin__43&#45;&gt;SetFromSkin__101 -->
<g id="edge17" class="edge">
<title>SetFromSkin__43&#45;&gt;SetFromSkin__101</title>
<path fill="none" stroke="black" d="M3204.73,-945.81C3203.79,-922.98 3202.71,-896.88 3201.83,-875.33"/>
<polygon fill="black" stroke="black" points="3205.32,-875.24 3201.42,-865.39 3198.33,-875.53 3205.32,-875.24"/>
</g>
<!-- SetFromSkin__130 -->
<g id="node24" class="node">
<title>SetFromSkin__130</title>
<polygon fill="#eeeeee" stroke="black" points="2978.5,-661.5 2978.5,-699.5 3391.5,-699.5 3391.5,-661.5 2978.5,-661.5"/>
<text text-anchor="start" x="2986.5" y="-684.3" font-family="monospace" font-size="14.00">EX_JumpIfNot 194</text>
<text text-anchor="start" x="2986.5" y="-669.3" font-family="monospace" font-size="14.00">  EX_LocalVariable [K2Node_DynamicCast_bSuccess]</text>
</g>
<!-- SetFromSkin__101&#45;&gt;SetFromSkin__130 -->
<g id="edge18" class="edge">
<title>SetFromSkin__101&#45;&gt;SetFromSkin__130</title>
<path fill="none" stroke="black" d="M3196.67,-796.26C3194.06,-770.59 3190.46,-735.19 3187.95,-710.52"/>
<polygon fill="black" stroke="black" points="3191.46,-710.47 3186.97,-700.87 3184.5,-711.17 3191.46,-710.47"/>
</g>
<!-- SetFromSkin__144 -->
<g id="node25" class="node">
<title>SetFromSkin__144</title>
<polygon fill="#eeeeee" stroke="black" points="2886,-511.5 2886,-594.5 3290,-594.5 3290,-511.5 2886,-511.5"/>
<text text-anchor="start" x="2894" y="-579.3" font-family="monospace" font-size="14.00">EX_LocalVirtualFunction SetFromDLC</text>
<text text-anchor="start" x="2894" y="-564.3" font-family="monospace" font-size="14.00">  EX_Context</text>
<text text-anchor="start" x="2894" y="-549.3" font-family="monospace" font-size="14.00">    EX_LocalVariable [K2Node_DynamicCast_AsDLC]</text>
<text text-anchor="start" x="2894" y="-534.3" font-family="monospace" font-size="14.00">    EX_InstanceVariable [RequiredDLC]</text>
<text text-anchor="start" x="2894" y="-519.3" font-family="monospace" font-size="14.00">    RValue = [RequiredDLC]</text>
</g>
<!-- SetFromSkin__130&#45;&gt;SetFromSkin__144 -->
<g id="edge20" class="edge">
<title>SetFromSkin__130&#45;&gt;SetFromSkin__144</title>
<path fill="none" stroke="black" d="M3171.1,-661.52C3159.37,-646.35 3142.01,-623.89 3126.19,-603.41"/>
<polygon fill="black" stroke="black" points="3129.1,-601.45 3120.21,-595.68 3123.56,-605.73 3129.1,-601.45"/>
<text text-anchor="middle" x="3154.5" y="-616.8" font-family="monospace" font-size="14.00">IF</text>
</g>
<!-- SetFromSkin__130&#45;&gt;SetFromSkin__194 -->
<g id="edge19" class="edge">
<title>SetFromSkin__130:e&#45;&gt;SetFromSkin__194</title>
<path fill="none" stroke="red" d="M3393,-680.5C3423,-680.5 3380.96,-640.48 3393,-613 3398.73,-599.92 3408.96,-588.45 3419.58,-579.19"/>
<polygon fill="none" stroke="red" points="3421.77,-581.92 3427.33,-572.9 3417.36,-576.49 3421.77,-581.92"/>
<text text-anchor="middle" x="3418" y="-616.8" font-family="monospace" font-size="14.00">IF NOT</text>
</g>
<!-- SetFromSkin__189 -->
<g id="node26" class="node">
<title>SetFromSkin__189</title>
<polygon fill="#eeeeee" stroke="black" points="3213.5,-406.5 3213.5,-442.5 3320.5,-442.5 3320.5,-406.5 3213.5,-406.5"/>
<text text-anchor="start" x="3221.5" y="-420.8" font-family="monospace" font-size="14.00">EX_Jump 209</text>
</g>
<!-- SetFromSkin__144&#45;&gt;SetFromSkin__189 -->
<g id="edge21" class="edge">
<title>SetFromSkin__144&#45;&gt;SetFromSkin__189</title>
<path fill="none" stroke="black" d="M3145.13,-511.63C3174.39,-490.94 3209,-466.49 3233.84,-448.93"/>
<polygon fill="black" stroke="black" points="3235.8,-451.84 3241.95,-443.21 3231.76,-446.12 3235.8,-451.84"/>
</g>
<!-- SetFromSkin__209 -->
<g id="node28" class="node">
<title>SetFromSkin__209</title>
<polygon fill="#eeeeee" stroke="black" points="3286,-187 3286,-225 3402,-225 3402,-187 3286,-187"/>
<text text-anchor="start" x="3294" y="-209.8" font-family="monospace" font-size="14.00">EX_Return</text>
<text text-anchor="start" x="3294" y="-194.8" font-family="monospace" font-size="14.00">  EX_Nothing</text>
</g>
<!-- SetFromSkin__189&#45;&gt;SetFromSkin__209 -->
<g id="edge22" class="edge">
<title>SetFromSkin__189&#45;&gt;SetFromSkin__209</title>
<path fill="none" stroke="black" d="M3273.04,-406.51C3286.21,-369.48 3317.63,-281.14 3333.88,-235.45"/>
<polygon fill="black" stroke="black" points="3337.1,-236.84 3337.16,-226.24 3330.51,-234.49 3337.1,-236.84"/>
</g>
<!-- SetFromSkin__194&#45;&gt;SetFromSkin__209 -->
<g id="edge23" class="edge">
<title>SetFromSkin__194&#45;&gt;SetFromSkin__209</title>
<path fill="none" stroke="black" d="M3451.24,-534.42C3432.96,-478.6 3376.11,-305.04 3353.46,-235.87"/>
<polygon fill="black" stroke="black" points="3356.79,-234.81 3350.35,-226.4 3350.14,-236.99 3356.79,-234.81"/>
</g>
<!-- SetFromSkin__211 -->
<g id="node29" class="node">
<title>SetFromSkin__211</title>
<polygon fill="#eeeeee" stroke="black" points="3713,-890.5 3713,-926.5 3845,-926.5 3845,-890.5 3713,-890.5"/>
<text text-anchor="start" x="3721" y="-904.8" font-family="monospace" font-size="14.00">EX_EndOfScript</text>
</g>
<!-- SetFromDLC -->
<g id="node30" class="node">
<title>SetFromDLC</title>
<polygon fill="#ff8888" stroke="black" points="3896,-1433.5 3896,-1606.5 4366,-1606.5 4366,-1433.5 3896,-1433.5"/>
<text text-anchor="start" x="3904" y="-1591.3" font-family="monospace" font-size="14.00">Function SetFromDLC</text>
<text text-anchor="start" x="3904" y="-1576.3" font-family="monospace" font-size="14.00">  ObjectProperty InFromDLC</text>
<text text-anchor="start" x="3904" y="-1561.3" font-family="monospace" font-size="14.00">    CPF_BlueprintVisible|CPF_BlueprintReadOnly|CPF_Parm</text>
<text text-anchor="start" x="3904" y="-1546.3" font-family="monospace" font-size="14.00">  BoolProperty IsUnlocked</text>
<text text-anchor="start" x="3904" y="-1531.3" font-family="monospace" font-size="14.00">    CPF_Edit|CPF_BlueprintVisible</text>
<text text-anchor="start" x="3904" y="-1516.3" font-family="monospace" font-size="14.00">  BoolProperty Temp_bool_Variable</text>
<text text-anchor="start" x="3904" y="-1501.3" font-family="monospace" font-size="14.00">  EnumProperty Temp_byte_Variable</text>
<text text-anchor="start" x="3904" y="-1486.3" font-family="monospace" font-size="14.00">  EnumProperty Temp_byte_Variable_1</text>
<text text-anchor="start" x="3904" y="-1471.3" font-family="monospace" font-size="14.00">  BoolProperty CallFunc_IsValid_ReturnValue</text>
<text text-anchor="start" x="3904" y="-1456.3" font-family="monospace" font-size="14.00">  BoolProperty CallFunc_IsUnLocked_ReturnValue</text>
<text text-anchor="start" x="3904" y="-1441.3" font-family="monospace" font-size="14.00">  EnumProperty K2Node_Select_Default</text>
</g>
<!-- SetFromDLC__0 -->
<g id="node31" class="node">
<title>SetFromDLC__0</title>
<polygon fill="#eeeeee" stroke="black" points="4023.5,-1277.5 4023.5,-1313.5 4238.5,-1313.5 4238.5,-1277.5 4023.5,-1277.5"/>
<text text-anchor="start" x="4031.5" y="-1291.8" font-family="monospace" font-size="14.00">EX_PushExecutionFlow 294</text>
</g>
<!-- SetFromDLC&#45;&gt;SetFromDLC__0 -->
<g id="edge24" class="edge">
<title>SetFromDLC&#45;&gt;SetFromDLC__0</title>
<path fill="none" stroke="black" d="M4131,-1433.61C4131,-1395.14 4131,-1352.3 4131,-1324.91"/>
<polygon fill="black" stroke="black" points="4134.5,-1325 4131,-1315 4127.5,-1325 4134.5,-1325"/>
</g>
<!-- SetFromDLC__5 -->
<g id="node32" class="node">
<title>SetFromDLC__5</title>
<polygon fill="#eeeeee" stroke="black" points="3924,-1134.5 3924,-1187.5 4188,-1187.5 4188,-1134.5 3924,-1134.5"/>
<text text-anchor="start" x="3932" y="-1172.3" font-family="monospace" font-size="14.00">EX_LetObj</text>
<text text-anchor="start" x="3932" y="-1157.3" font-family="monospace" font-size="14.00">  EX_InstanceVariable [DLC]</text>
<text text-anchor="start" x="3932" y="-1142.3" font-family="monospace" font-size="14.00">  EX_LocalVariable [InFromDLC]</text>
</g>
<!-- SetFromDLC__0&#45;&gt;SetFromDLC__5 -->
<g id="edge26" class="edge">
<title>SetFromDLC__0&#45;&gt;SetFromDLC__5</title>
<path fill="none" stroke="black" d="M4121.5,-1277.72C4110.09,-1257.55 4090.63,-1223.19 4075.88,-1197.13"/>
<polygon fill="black" stroke="black" points="4079.01,-1195.54 4071.03,-1188.56 4072.91,-1198.99 4079.01,-1195.54"/>
</g>
<!-- SetFromDLC__294 -->
<g id="node45" class="node">
<title>SetFromDLC__294</title>
<polygon fill="#eeeeee" stroke="black" points="4206,-1142 4206,-1180 4322,-1180 4322,-1142 4206,-1142"/>
<text text-anchor="start" x="4214" y="-1164.8" font-family="monospace" font-size="14.00">EX_Return</text>
<text text-anchor="start" x="4214" y="-1149.8" font-family="monospace" font-size="14.00">  EX_Nothing</text>
</g>
<!-- SetFromDLC__0&#45;&gt;SetFromDLC__294 -->
<g id="edge25" class="edge">
<title>SetFromDLC__0:e&#45;&gt;SetFromDLC__294</title>
<path fill="none" stroke="red" d="M4240,-1295.5C4282.15,-1295.5 4277.09,-1230.24 4270.23,-1190.98"/>
<polygon fill="none" stroke="red" points="4273.68,-1190.39 4268.38,-1181.21 4266.81,-1191.69 4273.68,-1190.39"/>
<text text-anchor="middle" x="4316.5" y="-1220.8" font-family="monospace" font-size="14.00">PUSH STACK</text>
</g>
<!-- SetFromDLC__24 -->
<g id="node33" class="node">
<title>SetFromDLC__24</title>
<polygon fill="#eeeeee" stroke="black" points="3920,-975.5 3920,-1028.5 4192,-1028.5 4192,-975.5 3920,-975.5"/>
<text text-anchor="start" x="3928" y="-1013.3" font-family="monospace" font-size="14.00">EX_LetBool</text>
<text text-anchor="start" x="3928" y="-998.3" font-family="monospace" font-size="14.00">  EX_LocalVariable [IsUnlocked]</text>
<text text-anchor="start" x="3928" y="-983.3" font-family="monospace" font-size="14.00">  EX_False</text>
</g>
<!-- SetFromDLC__5&#45;&gt;SetFromDLC__24 -->
<g id="edge27" class="edge">
<title>SetFromDLC__5&#45;&gt;SetFromDLC__24</title>
<path fill="none" stroke="black" d="M4056,-1134.78C4056,-1109.1 4056,-1069.03 4056,-1039.81"/>
<polygon fill="black" stroke="black" points="4059.5,-1039.94 4056,-1029.94 4052.5,-1039.94 4059.5,-1039.94"/>
</g>
<!-- SetFromDLC__35 -->
<g id="node34" class="node">
<title>SetFromDLC__35</title>
<polygon fill="#eeeeee" stroke="black" points="3948.5,-812 3948.5,-848 4163.5,-848 4163.5,-812 3948.5,-812"/>
<text text-anchor="start" x="3956.5" y="-826.3" font-family="monospace" font-size="14.00">EX_PushExecutionFlow 145</text>
</g>
<!-- SetFromDLC__24&#45;&gt;SetFromDLC__35 -->
<g id="edge28" class="edge">
<title>SetFromDLC__24&#45;&gt;SetFromDLC__35</title>
<path fill="none" stroke="black" d="M4056,-975.55C4056,-944.34 4056,-891.6 4056,-859.19"/>
<polygon fill="black" stroke="black" points="4059.5,-859.36 4056,-849.36 4052.5,-859.36 4059.5,-859.36"/>
</g>
<!-- SetFromDLC__40 -->
<g id="node35" class="node">
<title>SetFromDLC__40</title>
<polygon fill="#eeeeee" stroke="black" points="3557.5,-646.5 3557.5,-714.5 4110.5,-714.5 4110.5,-646.5 3557.5,-646.5"/>
<text text-anchor="start" x="3565.5" y="-699.3" font-family="monospace" font-size="14.00">EX_LetBool</text>
<text text-anchor="start" x="3565.5" y="-684.3" font-family="monospace" font-size="14.00">  EX_LocalVariable [CallFunc_IsValid_ReturnValue]</text>
<text text-anchor="start" x="3565.5" y="-669.3" font-family="monospace" font-size="14.00">  EX_CallMath import /Script/Engine&#45;&gt;KismetSystemLibrary&#45;&gt;IsValid</text>
<text text-anchor="start" x="3565.5" y="-654.3" font-family="monospace" font-size="14.00">    EX_LocalVariable [InFromDLC]</text>
</g>
<!-- SetFromDLC__35&#45;&gt;SetFromDLC__40 -->
<g id="edge30" class="edge">
<title>SetFromDLC__35&#45;&gt;SetFromDLC__40</title>
<path fill="none" stroke="black" d="M4030.53,-812.08C3997.15,-789.9 3937.56,-750.31 3892.73,-720.52"/>
<polygon fill="black" stroke="black" points="3894.92,-717.78 3884.66,-715.16 3891.05,-723.61 3894.92,-717.78"/>
</g>
<!-- SetFromDLC__145 -->
<g id="node40" class="node">
<title>SetFromDLC__145</title>
<polygon fill="#eeeeee" stroke="black" points="4129,-654 4129,-707 4467,-707 4467,-654 4129,-654"/>
<text text-anchor="start" x="4137" y="-691.8" font-family="monospace" font-size="14.00">EX_Let</text>
<text text-anchor="start" x="4137" y="-676.8" font-family="monospace" font-size="14.00">  EX_LocalVariable [Temp_byte_Variable]</text>
<text text-anchor="start" x="4137" y="-661.8" font-family="monospace" font-size="14.00">  EX_ByteConst 4</text>
</g>
<!-- SetFromDLC__35&#45;&gt;SetFromDLC__145 -->
<g id="edge29" class="edge">
<title>SetFromDLC__35:e&#45;&gt;SetFromDLC__145</title>
<path fill="none" stroke="red" d="M4165,-830C4222.03,-830 4210.67,-775.23 4249,-733 4254.36,-727.09 4260.14,-720.89 4265.78,-714.91"/>
<polygon fill="none" stroke="red" points="4267.95,-717.71 4272.29,-708.05 4262.87,-712.89 4267.95,-717.71"/>
<text text-anchor="middle" x="4290.5" y="-747.8" font-family="monospace" font-size="14.00">PUSH STACK</text>
</g>
<!-- SetFromDLC__69 -->
<g id="node36" class="node">
<title>SetFromDLC__69</title>
<polygon fill="#eeeeee" stroke="black" points="3623.5,-534 3623.5,-572 4044.5,-572 4044.5,-534 3623.5,-534"/>
<text text-anchor="start" x="3631.5" y="-556.8" font-family="monospace" font-size="14.00">EX_PopExecutionFlowIfNot</text>
<text text-anchor="start" x="3631.5" y="-541.8" font-family="monospace" font-size="14.00">  EX_LocalVariable [CallFunc_IsValid_ReturnValue]</text>
</g>
<!-- SetFromDLC__40&#45;&gt;SetFromDLC__69 -->
<g id="edge31" class="edge">
<title>SetFromDLC__40&#45;&gt;SetFromDLC__69</title>
<path fill="none" stroke="black" d="M3834,-646.53C3834,-626.87 3834,-602.13 3834,-583.18"/>
<polygon fill="black" stroke="black" points="3837.5,-583.19 3834,-573.19 3830.5,-583.19 3837.5,-583.19"/>
</g>
<!-- SetFromDLC__79 -->
<g id="node37" class="node">
<title>SetFromDLC__79</title>
<polygon fill="#eeeeee" stroke="black" points="3611,-375.5 3611,-473.5 4057,-473.5 4057,-375.5 3611,-375.5"/>
<text text-anchor="start" x="3619" y="-458.3" font-family="monospace" font-size="14.00">EX_LetBool</text>
<text text-anchor="start" x="3619" y="-443.3" font-family="monospace" font-size="14.00">  EX_LocalVariable [CallFunc_IsUnLocked_ReturnValue]</text>
<text text-anchor="start" x="3619" y="-428.3" font-family="monospace" font-size="14.00">  EX_Context</text>
<text text-anchor="start" x="3619" y="-413.3" font-family="monospace" font-size="14.00">    EX_LocalVariable [InFromDLC]</text>
<text text-anchor="start" x="3619" y="-398.3" font-family="monospace" font-size="14.00">    EX_VirtualFunction IsUnLocked</text>
<text text-anchor="start" x="3619" y="-383.3" font-family="monospace" font-size="14.00">    RValue = [CallFunc_IsUnLocked_ReturnValue]</text>
</g>
<!-- SetFromDLC__69&#45;&gt;SetFromDLC__79 -->
<g id="edge32" class="edge">
<title>SetFromDLC__69&#45;&gt;SetFromDLC__79</title>
<path fill="none" stroke="black" d="M3834,-534.14C3834,-521.12 3834,-502.67 3834,-484.67"/>
<polygon fill="black" stroke="black" points="3837.5,-484.78 3834,-474.78 3830.5,-484.78 3837.5,-484.78"/>
</g>
<!-- SetFromDLC__125 -->
<g id="node38" class="node">
<title>SetFromDLC__125</title>
<polygon fill="#eeeeee" stroke="black" points="3611,-179.5 3611,-232.5 4057,-232.5 4057,-179.5 3611,-179.5"/>
<text text-anchor="start" x="3619" y="-217.3" font-family="monospace" font-size="14.00">EX_LetBool</text>
<text text-anchor="start" x="3619" y="-202.3" font-family="monospace" font-size="14.00">  EX_LocalVariable [IsUnlocked]</text>
<text text-anchor="start" x="3619" y="-187.3" font-family="monospace" font-size="14.00">  EX_LocalVariable [CallFunc_IsUnLocked_ReturnValue]</text>
</g>
<!-- SetFromDLC__79&#45;&gt;SetFromDLC__125 -->
<g id="edge33" class="edge">
<title>SetFromDLC__79&#45;&gt;SetFromDLC__125</title>
<path fill="none" stroke="black" d="M3834,-375.72C3834,-335.83 3834,-279.81 3834,-243.46"/>
<polygon fill="black" stroke="black" points="3837.5,-243.91 3834,-233.91 3830.5,-243.91 3837.5,-243.91"/>
</g>
<!-- SetFromDLC__144 -->
<g id="node39" class="node">
<title>SetFromDLC__144</title>
<polygon fill="#eeeeee" stroke="black" points="3747.5,-0.5 3747.5,-36.5 3920.5,-36.5 3920.5,-0.5 3747.5,-0.5"/>
<text text-anchor="start" x="3755.5" y="-14.8" font-family="monospace" font-size="14.00">EX_PopExecutionFlow</text>
</g>
<!-- SetFromDLC__125&#45;&gt;SetFromDLC__144 -->
<g id="edge34" class="edge">
<title>SetFromDLC__125&#45;&gt;SetFromDLC__144</title>
<path fill="none" stroke="black" d="M3834,-179.6C3834,-145.01 3834,-83.3 3834,-47.44"/>
<polygon fill="black" stroke="black" points="3837.5,-47.86 3834,-37.86 3830.5,-47.86 3837.5,-47.86"/>
</g>
<!-- SetFromDLC__165 -->
<g id="node41" class="node">
<title>SetFromDLC__165</title>
<polygon fill="#eeeeee" stroke="black" points="4120.5,-526.5 4120.5,-579.5 4475.5,-579.5 4475.5,-526.5 4120.5,-526.5"/>
<text text-anchor="start" x="4128.5" y="-564.3" font-family="monospace" font-size="14.00">EX_Let</text>
<text text-anchor="start" x="4128.5" y="-549.3" font-family="monospace" font-size="14.00">  EX_LocalVariable [Temp_byte_Variable_1]</text>
<text text-anchor="start" x="4128.5" y="-534.3" font-family="monospace" font-size="14.00">  EX_ByteConst 1</text>
</g>
<!-- SetFromDLC__145&#45;&gt;SetFromDLC__165 -->
<g id="edge35" class="edge">
<title>SetFromDLC__145&#45;&gt;SetFromDLC__165</title>
<path fill="none" stroke="black" d="M4298,-654.1C4298,-635.9 4298,-611.11 4298,-590.75"/>
<polygon fill="black" stroke="black" points="4301.5,-590.87 4298,-580.87 4294.5,-590.87 4301.5,-590.87"/>
</g>
<!-- SetFromDLC__185 -->
<g id="node42" class="node">
<title>SetFromDLC__185</title>
<polygon fill="#eeeeee" stroke="black" points="4129,-398 4129,-451 4467,-451 4467,-398 4129,-398"/>
<text text-anchor="start" x="4137" y="-435.8" font-family="monospace" font-size="14.00">EX_LetBool</text>
<text text-anchor="start" x="4137" y="-420.8" font-family="monospace" font-size="14.00">  EX_LocalVariable [Temp_bool_Variable]</text>
<text text-anchor="start" x="4137" y="-405.8" font-family="monospace" font-size="14.00">  EX_LocalVariable [IsUnlocked]</text>
</g>
<!-- SetFromDLC__165&#45;&gt;SetFromDLC__185 -->
<g id="edge36" class="edge">
<title>SetFromDLC__165&#45;&gt;SetFromDLC__185</title>
<path fill="none" stroke="black" d="M4298,-526.7C4298,-508.18 4298,-482.75 4298,-462.02"/>
<polygon fill="black" stroke="black" points="4301.5,-462.26 4298,-452.26 4294.5,-462.26 4301.5,-462.26"/>
</g>
<!-- SetFromDLC__204 -->
<g id="node43" class="node">
<title>SetFromDLC__204</title>
<polygon fill="#eeeeee" stroke="black" points="4091.5,-74.5 4091.5,-337.5 4504.5,-337.5 4504.5,-74.5 4091.5,-74.5"/>
<text text-anchor="start" x="4099.5" y="-322.3" font-family="monospace" font-size="14.00">EX_Context</text>
<text text-anchor="start" x="4099.5" y="-307.3" font-family="monospace" font-size="14.00">  EX_InstanceVariable [Root_Canvas]</text>
<text text-anchor="start" x="4099.5" y="-292.3" font-family="monospace" font-size="14.00">  EX_VirtualFunction SetVisibility</text>
<text text-anchor="start" x="4099.5" y="-277.3" font-family="monospace" font-size="14.00">    EX_SwitchValue</text>
<text text-anchor="start" x="4099.5" y="-262.3" font-family="monospace" font-size="14.00">      EX_LocalVariable [Temp_bool_Variable]</text>
<text text-anchor="start" x="4099.5" y="-247.3" font-family="monospace" font-size="14.00">      OffsetToSwitchEnd = 292</text>
<text text-anchor="start" x="4099.5" y="-232.3" font-family="monospace" font-size="14.00">      case 0:</text>
<text text-anchor="start" x="4099.5" y="-217.3" font-family="monospace" font-size="14.00">        EX_False</text>
<text text-anchor="start" x="4099.5" y="-202.3" font-family="monospace" font-size="14.00">        NextCaseOffset = 269</text>
<text text-anchor="start" x="4099.5" y="-187.3" font-family="monospace" font-size="14.00">        EX_LocalVariable [Temp_byte_Variable_1]</text>
<text text-anchor="start" x="4099.5" y="-172.3" font-family="monospace" font-size="14.00">      case 1:</text>
<text text-anchor="start" x="4099.5" y="-157.3" font-family="monospace" font-size="14.00">        EX_True</text>
<text text-anchor="start" x="4099.5" y="-142.3" font-family="monospace" font-size="14.00">        NextCaseOffset = 283</text>
<text text-anchor="start" x="4099.5" y="-127.3" font-family="monospace" font-size="14.00">        EX_LocalVariable [Temp_byte_Variable]</text>
<text text-anchor="start" x="4099.5" y="-112.3" font-family="monospace" font-size="14.00">      default:</text>
<text text-anchor="start" x="4099.5" y="-97.3" font-family="monospace" font-size="14.00">        EX_LocalVariable [K2Node_Select_Default]</text>
<text text-anchor="start" x="4099.5" y="-82.3" font-family="monospace" font-size="14.00">  RValue = []</text>
</g>
<!-- SetFromDLC__185&#45;&gt;SetFromDLC__204 -->
<g id="edge37" class="edge">
<title>SetFromDLC__185&#45;&gt;SetFromDLC__204</title>
<path fill="none" stroke="black" d="M4298,-398.24C4298,-385 4298,-367.62 4298,-348.73"/>
<polygon fill="black" stroke="black" points="4301.5,-348.97 4298,-338.97 4294.5,-348.97 4301.5,-348.97"/>
</g>
<!-- SetFromDLC__293 -->
<g id="node44" class="node">
<title>SetFromDLC__293</title>
<polygon fill="#eeeeee" stroke="black" points="4211.5,-0.5 4211.5,-36.5 4384.5,-36.5 4384.5,-0.5 4211.5,-0.5"/>
<text text-anchor="start" x="4219.5" y="-14.8" font-family="monospace" font-size="14.00">EX_PopExecutionFlow</text>
</g>
<!-- SetFromDLC__204&#45;&gt;SetFromDLC__293 -->
<g id="edge38" class="edge">
<title>SetFromDLC__204&#45;&gt;SetFromDLC__293</title>
<path fill="none" stroke="black" d="M4298,-74.65C4298,-64.82 4298,-55.67 4298,-47.75"/>
<polygon fill="black" stroke="black" points="4301.5,-47.93 4298,-37.93 4294.5,-47.93 4301.5,-47.93"/>
</g>
<!-- SetFromDLC__296 -->
<g id="node46" class="node">
<title>SetFromDLC__296</title>
<polygon fill="#eeeeee" stroke="black" points="4341,-733.5 4341,-769.5 4473,-769.5 4473,-733.5 4341,-733.5"/>
<text text-anchor="start" x="4349" y="-747.8" font-family="monospace" font-size="14.00">EX_EndOfScript</text>
</g>
</g>
</svg>
