<?xml version="1.0" encoding="UTF-8" standalone="no"?>
<!DOCTYPE svg PUBLIC "-//W3C//DTD SVG 1.1//EN"
 "http://www.w3.org/Graphics/SVG/1.1/DTD/svg11.dtd">
<!-- Generated by graphviz version 7.0.1 (0)
 -->
<!-- Pages: 1 -->
<svg width="2110pt" height="302pt"
 viewBox="0.00 0.00 2110.00 302.00" xmlns="http://www.w3.org/2000/svg" xmlns:xlink="http://www.w3.org/1999/xlink">
<g id="graph0" class="graph" transform="scale(1 1) rotate(0) translate(4 298)">
<polygon fill="white" stroke="none" points="-4,4 -4,-298 2106,-298 2106,4 -4,4"/>
<!-- BP_Facility_Tentacle_SpawnPoint_C -->
<g id="node1" class="node">
<title>BP_Facility_Tentacle_SpawnPoint_C</title>
<polygon fill="#88ff88" stroke="black" points="0,-150.5 0,-293.5 594,-293.5 594,-150.5 0,-150.5"/>
<text text-anchor="start" x="8" y="-278.3" font-family="monospace" font-size="14.00">ClassExport: BP_Facility_Tentacle_SpawnPoint_C</text>
<text text-anchor="start" x="8" y="-263.3" font-family="monospace" font-size="14.00">  SuperStruct: import /Script/Engine&#45;&gt;Actor</text>
<text text-anchor="start" x="8" y="-248.3" font-family="monospace" font-size="14.00">  Properties:</text>
<text text-anchor="start" x="8" y="-233.3" font-family="monospace" font-size="14.00">    StructProperty UberGraphFrame</text>
<text text-anchor="start" x="8" y="-218.3" font-family="monospace" font-size="14.00">      CPF_Transient|CPF_DuplicateTransient</text>
<text text-anchor="start" x="8" y="-203.3" font-family="monospace" font-size="14.00">    ObjectProperty TerrainPlacement</text>
<text text-anchor="start" x="8" y="-188.3" font-family="monospace" font-size="14.00">      CPF_BlueprintVisible|CPF_InstancedReference|CPF_NonTransactional</text>
<text text-anchor="start" x="8" y="-173.3" font-family="monospace" font-size="14.00">    ObjectProperty DefaultSceneRoot</text>
<text text-anchor="start" x="8" y="-158.3" font-family="monospace" font-size="14.00">      CPF_BlueprintVisible|CPF_InstancedReference|CPF_NonTransactional</text>
</g>
<!-- ExecuteUbergraph_BP_Facility_Tentacle_SpawnPoint -->
<g id="node2" class="node">
<title>ExecuteUbergraph_BP_Facility_Tentacle_SpawnPoint</title>
<polygon fill="#ff8888" stroke="black" points="612.5,-195.5 612.5,-248.5 1099.5,-248.5 1099.5,-195.5 612.5,-195.5"/>
<text text-anchor="start" x="620.5" y="-233.3" font-family="monospace" font-size="14.00">Function ExecuteUbergraph_BP_Facility_Tentacle_SpawnPoint</text>
<text text-anchor="start" x="620.5" y="-218.3" font-family="monospace" font-size="14.00">  IntProperty EntryPoint</text>
<text text-anchor="start" x="620.5" y="-203.3" font-family="monospace" font-size="14.00">    CPF_BlueprintVisible|CPF_BlueprintReadOnly|CPF_Parm</text>
</g>
<!-- ExecuteUbergraph_BP_Facility_Tentacle_SpawnPoint__0 -->
<g id="node3" class="node">
<title>ExecuteUbergraph_BP_Facility_Tentacle_SpawnPoint__0</title>
<polygon fill="#eeeeee" stroke="black" points="720,-75.5 720,-113.5 992,-113.5 992,-75.5 720,-75.5"/>
<text text-anchor="start" x="728" y="-98.3" font-family="monospace" font-size="14.00">EX_ComputedJump</text>
<text text-anchor="start" x="728" y="-83.3" font-family="monospace" font-size="14.00">  EX_LocalVariable [EntryPoint]</text>
</g>
<!-- ExecuteUbergraph_BP_Facility_Tentacle_SpawnPoint&#45;&gt;ExecuteUbergraph_BP_Facility_Tentacle_SpawnPoint__0 -->
<g id="edge1" class="edge">
<title>ExecuteUbergraph_BP_Facility_Tentacle_SpawnPoint&#45;&gt;ExecuteUbergraph_BP_Facility_Tentacle_SpawnPoint__0</title>
<path fill="none" stroke="black" d="M856,-195.6C856,-175.03 856,-146.04 856,-124.54"/>
<polygon fill="black" stroke="black" points="859.5,-124.69 856,-114.69 852.5,-124.69 859.5,-124.69"/>
</g>
<!-- ExecuteUbergraph_BP_Facility_Tentacle_SpawnPoint__10 -->
<g id="node4" class="node">
<title>ExecuteUbergraph_BP_Facility_Tentacle_SpawnPoint__10</title>
<polygon fill="#eeeeee" stroke="black" points="1894,-0.5 1894,-38.5 2010,-38.5 2010,-0.5 1894,-0.5"/>
<text text-anchor="start" x="1902" y="-23.3" font-family="monospace" font-size="14.00">EX_Return</text>
<text text-anchor="start" x="1902" y="-8.3" font-family="monospace" font-size="14.00">  EX_Nothing</text>
</g>
<!-- ExecuteUbergraph_BP_Facility_Tentacle_SpawnPoint__12 -->
<g id="node5" class="node">
<title>ExecuteUbergraph_BP_Facility_Tentacle_SpawnPoint__12</title>
<polygon fill="#eeeeee" stroke="black" points="1970,-76.5 1970,-112.5 2102,-112.5 2102,-76.5 1970,-76.5"/>
<text text-anchor="start" x="1978" y="-90.8" font-family="monospace" font-size="14.00">EX_EndOfScript</text>
</g>
<!-- ReceiveBeginPlay -->
<g id="node6" class="node">
<title>ReceiveBeginPlay</title>
<polygon fill="#ff8888" stroke="black" points="1369.5,-204 1369.5,-240 1592.5,-240 1592.5,-204 1369.5,-204"/>
<text text-anchor="start" x="1377.5" y="-218.3" font-family="monospace" font-size="14.00">Function ReceiveBeginPlay</text>
</g>
<!-- ReceiveBeginPlay__0 -->
<g id="node7" class="node">
<title>ReceiveBeginPlay__0</title>
<polygon fill="#eeeeee" stroke="black" points="1010.5,-75.5 1010.5,-113.5 1951.5,-113.5 1951.5,-75.5 1010.5,-75.5"/>
<text text-anchor="start" x="1018.5" y="-98.3" font-family="monospace" font-size="14.00">EX_LocalFinalFunction export BP_Facility_Tentacle_SpawnPoint_C&#45;&gt;ExecuteUbergraph_BP_Facility_Tentacle_SpawnPoint</text>
<text text-anchor="start" x="1018.5" y="-83.3" font-family="monospace" font-size="14.00">  EX_IntConst 10</text>
</g>
<!-- ReceiveBeginPlay&#45;&gt;ReceiveBeginPlay__0 -->
<g id="edge2" class="edge">
<title>ReceiveBeginPlay&#45;&gt;ReceiveBeginPlay__0</title>
<path fill="none" stroke="black" d="M1481,-204.07C1481,-183.72 1481,-149.22 1481,-124.57"/>
<polygon fill="black" stroke="black" points="1484.5,-124.88 1481,-114.88 1477.5,-124.88 1484.5,-124.88"/>
</g>
<!-- ReceiveBeginPlay__0&#45;&gt;ExecuteUbergraph_BP_Facility_Tentacle_SpawnPoint__10 -->
<g id="edge3" class="edge">
<title>ReceiveBeginPlay__0:e&#45;&gt;ExecuteUbergraph_BP_Facility_Tentacle_SpawnPoint__10</title>
<path fill="none" stroke="red" d="M1953,-94.5C1962.39,-94.5 1960.73,-70.39 1957.58,-49.69"/>
<polygon fill="none" stroke="red" points="1961.05,-49.19 1955.93,-39.91 1954.14,-50.35 1961.05,-49.19"/>
</g>
<!-- ReceiveBeginPlay__15 -->
<g id="node8" class="node">
<title>ReceiveBeginPlay__15</title>
<polygon fill="#eeeeee" stroke="black" points="1423,-0.5 1423,-38.5 1539,-38.5 1539,-0.5 1423,-0.5"/>
<text text-anchor="start" x="1431" y="-23.3" font-family="monospace" font-size="14.00">EX_Return</text>
<text text-anchor="start" x="1431" y="-8.3" font-family="monospace" font-size="14.00">  EX_Nothing</text>
</g>
<!-- ReceiveBeginPlay__0&#45;&gt;ReceiveBeginPlay__15 -->
<g id="edge4" class="edge">
<title>ReceiveBeginPlay__0&#45;&gt;ReceiveBeginPlay__15</title>
<path fill="none" stroke="black" d="M1481,-75.83C1481,-68 1481,-58.57 1481,-49.74"/>
<polygon fill="black" stroke="black" points="1484.5,-49.78 1481,-39.78 1477.5,-49.78 1484.5,-49.78"/>
</g>
<!-- ReceiveBeginPlay__17 -->
<g id="node9" class="node">
<title>ReceiveBeginPlay__17</title>
<polygon fill="#eeeeee" stroke="black" points="1611,-204 1611,-240 1743,-240 1743,-204 1611,-204"/>
<text text-anchor="start" x="1619" y="-218.3" font-family="monospace" font-size="14.00">EX_EndOfScript</text>
</g>
</g>
</svg>
