<?xml version="1.0" encoding="UTF-8" standalone="no"?>
<!DOCTYPE svg PUBLIC "-//W3C//DTD SVG 1.1//EN"
 "http://www.w3.org/Graphics/SVG/1.1/DTD/svg11.dtd">
<!-- Generated by graphviz version 7.0.1 (0)
 -->
<!-- Pages: 1 -->
<svg width="3984pt" height="1080pt"
 viewBox="0.00 0.00 3983.50 1080.00" xmlns="http://www.w3.org/2000/svg" xmlns:xlink="http://www.w3.org/1999/xlink">
<g id="graph0" class="graph" transform="scale(1 1) rotate(0) translate(4 1076)">
<polygon fill="white" stroke="none" points="-4,4 -4,-1076 3979.5,-1076 3979.5,4 -4,4"/>
<!-- BP_GooCannon_Cannister_C -->
<g id="node1" class="node">
<title>BP_GooCannon_Cannister_C</title>
<polygon fill="#88ff88" stroke="black" points="0,-868.5 0,-1071.5 611,-1071.5 611,-868.5 0,-868.5"/>
<text text-anchor="start" x="8" y="-1056.3" font-family="monospace" font-size="14.00">ClassExport: BP_GooCannon_Cannister_C</text>
<text text-anchor="start" x="8" y="-1041.3" font-family="monospace" font-size="14.00">  SuperStruct: import /Game/WeaponsNTools/MAG_BaseClass&#45;&gt;MAG_BaseClass_C</text>
<text text-anchor="start" x="8" y="-1026.3" font-family="monospace" font-size="14.00">  Properties:</text>
<text text-anchor="start" x="8" y="-1011.3" font-family="monospace" font-size="14.00">    StructProperty UberGraphFrame</text>
<text text-anchor="start" x="8" y="-996.3" font-family="monospace" font-size="14.00">      CPF_Transient|CPF_DuplicateTransient</text>
<text text-anchor="start" x="8" y="-981.3" font-family="monospace" font-size="14.00">    ObjectProperty Bar</text>
<text text-anchor="start" x="8" y="-966.3" font-family="monospace" font-size="14.00">      CPF_BlueprintVisible|CPF_InstancedReference|CPF_NonTransactional</text>
<text text-anchor="start" x="8" y="-951.3" font-family="monospace" font-size="14.00">    FloatProperty Timeline_0_NewTrack_0_FBE0858B42174801F4BF1E8D85338A2E</text>
<text text-anchor="start" x="8" y="-936.3" font-family="monospace" font-size="14.00">    ByteProperty Timeline_0__Direction_FBE0858B42174801F4BF1E8D85338A2E</text>
<text text-anchor="start" x="8" y="-921.3" font-family="monospace" font-size="14.00">    ObjectProperty Timeline_0</text>
<text text-anchor="start" x="8" y="-906.3" font-family="monospace" font-size="14.00">      CPF_BlueprintVisible|CPF_InstancedReference</text>
<text text-anchor="start" x="8" y="-891.3" font-family="monospace" font-size="14.00">    FloatProperty StartZScale</text>
<text text-anchor="start" x="8" y="-876.3" font-family="monospace" font-size="14.00">      CPF_Edit|CPF_BlueprintVisible|CPF_DisableEditOnInstance</text>
</g>
<!-- ExecuteUbergraph_BP_GooCannon_Cannister -->
<g id="node2" class="node">
<title>ExecuteUbergraph_BP_GooCannon_Cannister</title>
<polygon fill="#ff8888" stroke="black" points="629,-906 629,-1034 1108,-1034 1108,-906 629,-906"/>
<text text-anchor="start" x="637" y="-1018.8" font-family="monospace" font-size="14.00">Function ExecuteUbergraph_BP_GooCannon_Cannister</text>
<text text-anchor="start" x="637" y="-1003.8" font-family="monospace" font-size="14.00">  IntProperty EntryPoint</text>
<text text-anchor="start" x="637" y="-988.8" font-family="monospace" font-size="14.00">    CPF_BlueprintVisible|CPF_BlueprintReadOnly|CPF_Parm</text>
<text text-anchor="start" x="637" y="-973.8" font-family="monospace" font-size="14.00">  FloatProperty CallFunc_Multiply_FloatFloat_ReturnValue</text>
<text text-anchor="start" x="637" y="-958.8" font-family="monospace" font-size="14.00">  FloatProperty CallFunc_BreakVector_X</text>
<text text-anchor="start" x="637" y="-943.8" font-family="monospace" font-size="14.00">  FloatProperty CallFunc_BreakVector_Y</text>
<text text-anchor="start" x="637" y="-928.8" font-family="monospace" font-size="14.00">  FloatProperty CallFunc_BreakVector_Z</text>
<text text-anchor="start" x="637" y="-913.8" font-family="monospace" font-size="14.00">  StructProperty CallFunc_MakeVector_ReturnValue</text>
</g>
<!-- ExecuteUbergraph_BP_GooCannon_Cannister__0 -->
<g id="node3" class="node">
<title>ExecuteUbergraph_BP_GooCannon_Cannister__0</title>
<polygon fill="#eeeeee" stroke="black" points="732.5,-778.5 732.5,-816.5 1004.5,-816.5 1004.5,-778.5 732.5,-778.5"/>
<text text-anchor="start" x="740.5" y="-801.3" font-family="monospace" font-size="14.00">EX_ComputedJump</text>
<text text-anchor="start" x="740.5" y="-786.3" font-family="monospace" font-size="14.00">  EX_LocalVariable [EntryPoint]</text>
</g>
<!-- ExecuteUbergraph_BP_GooCannon_Cannister&#45;&gt;ExecuteUbergraph_BP_GooCannon_Cannister__0 -->
<g id="edge1" class="edge">
<title>ExecuteUbergraph_BP_GooCannon_Cannister&#45;&gt;ExecuteUbergraph_BP_GooCannon_Cannister__0</title>
<path fill="none" stroke="black" d="M868.5,-906.48C868.5,-879.5 868.5,-849.25 868.5,-827.64"/>
<polygon fill="black" stroke="black" points="872,-827.82 868.5,-817.82 865,-827.82 872,-827.82"/>
</g>
<!-- ExecuteUbergraph_BP_GooCannon_Cannister__10 -->
<g id="node4" class="node">
<title>ExecuteUbergraph_BP_GooCannon_Cannister__10</title>
<polygon fill="#eeeeee" stroke="black" points="3062.5,-539.5 3062.5,-575.5 3640.5,-575.5 3640.5,-539.5 3062.5,-539.5"/>
<text text-anchor="start" x="3070.5" y="-553.8" font-family="monospace" font-size="14.00">EX_LocalFinalFunction import /Script/Engine&#45;&gt;Actor&#45;&gt;ReceiveBeginPlay</text>
</g>
<!-- ExecuteUbergraph_BP_GooCannon_Cannister__20 -->
<g id="node5" class="node">
<title>ExecuteUbergraph_BP_GooCannon_Cannister__20</title>
<polygon fill="#eeeeee" stroke="black" points="3036,-343.5 3036,-471.5 3589,-471.5 3589,-343.5 3036,-343.5"/>
<text text-anchor="start" x="3044" y="-456.3" font-family="monospace" font-size="14.00">EX_CallMath import /Script/Engine&#45;&gt;KismetMathLibrary&#45;&gt;BreakVector</text>
<text text-anchor="start" x="3044" y="-441.3" font-family="monospace" font-size="14.00">  EX_Context</text>
<text text-anchor="start" x="3044" y="-426.3" font-family="monospace" font-size="14.00">    EX_InstanceVariable [Bar]</text>
<text text-anchor="start" x="3044" y="-411.3" font-family="monospace" font-size="14.00">    EX_InstanceVariable [RelativeScale3D]</text>
<text text-anchor="start" x="3044" y="-396.3" font-family="monospace" font-size="14.00">    RValue = [RelativeScale3D]</text>
<text text-anchor="start" x="3044" y="-381.3" font-family="monospace" font-size="14.00">  EX_LocalVariable [CallFunc_BreakVector_X]</text>
<text text-anchor="start" x="3044" y="-366.3" font-family="monospace" font-size="14.00">  EX_LocalVariable [CallFunc_BreakVector_Y]</text>
<text text-anchor="start" x="3044" y="-351.3" font-family="monospace" font-size="14.00">  EX_LocalVariable [CallFunc_BreakVector_Z]</text>
</g>
<!-- ExecuteUbergraph_BP_GooCannon_Cannister__10&#45;&gt;ExecuteUbergraph_BP_GooCannon_Cannister__20 -->
<g id="edge2" class="edge">
<title>ExecuteUbergraph_BP_GooCannon_Cannister__10&#45;&gt;ExecuteUbergraph_BP_GooCannon_Cannister__20</title>
<path fill="none" stroke="black" d="M3347.03,-539.52C3343.26,-525.23 3337.6,-503.74 3331.94,-482.28"/>
<polygon fill="black" stroke="black" points="3335.4,-481.68 3329.47,-472.9 3328.63,-483.47 3335.4,-481.68"/>
</g>
<!-- ExecuteUbergraph_BP_GooCannon_Cannister__88 -->
<g id="node6" class="node">
<title>ExecuteUbergraph_BP_GooCannon_Cannister__88</title>
<polygon fill="#eeeeee" stroke="black" points="3031,-253.5 3031,-306.5 3402,-306.5 3402,-253.5 3031,-253.5"/>
<text text-anchor="start" x="3039" y="-291.3" font-family="monospace" font-size="14.00">EX_Let</text>
<text text-anchor="start" x="3039" y="-276.3" font-family="monospace" font-size="14.00">  EX_InstanceVariable [StartZScale]</text>
<text text-anchor="start" x="3039" y="-261.3" font-family="monospace" font-size="14.00">  EX_LocalVariable [CallFunc_BreakVector_Z]</text>
</g>
<!-- ExecuteUbergraph_BP_GooCannon_Cannister__20&#45;&gt;ExecuteUbergraph_BP_GooCannon_Cannister__88 -->
<g id="edge3" class="edge">
<title>ExecuteUbergraph_BP_GooCannon_Cannister__20&#45;&gt;ExecuteUbergraph_BP_GooCannon_Cannister__88</title>
<path fill="none" stroke="black" d="M3264.5,-343.75C3257.06,-334.03 3249.63,-324.31 3242.91,-315.52"/>
<polygon fill="black" stroke="black" points="3245.7,-313.42 3236.85,-307.6 3240.14,-317.67 3245.7,-313.42"/>
</g>
<!-- ExecuteUbergraph_BP_GooCannon_Cannister__115 -->
<g id="node7" class="node">
<title>ExecuteUbergraph_BP_GooCannon_Cannister__115</title>
<polygon fill="#eeeeee" stroke="black" points="2844,-148.5 2844,-216.5 3397,-216.5 3397,-148.5 2844,-148.5"/>
<text text-anchor="start" x="2852" y="-201.3" font-family="monospace" font-size="14.00">EX_Context</text>
<text text-anchor="start" x="2852" y="-186.3" font-family="monospace" font-size="14.00">  EX_InstanceVariable [Timeline_0]</text>
<text text-anchor="start" x="2852" y="-171.3" font-family="monospace" font-size="14.00">  EX_FinalFunction import /Script/Engine&#45;&gt;TimelineComponent&#45;&gt;Play</text>
<text text-anchor="start" x="2852" y="-156.3" font-family="monospace" font-size="14.00">  RValue = []</text>
</g>
<!-- ExecuteUbergraph_BP_GooCannon_Cannister__88&#45;&gt;ExecuteUbergraph_BP_GooCannon_Cannister__115 -->
<g id="edge4" class="edge">
<title>ExecuteUbergraph_BP_GooCannon_Cannister__88&#45;&gt;ExecuteUbergraph_BP_GooCannon_Cannister__115</title>
<path fill="none" stroke="black" d="M3191.03,-253.66C3181.91,-244.59 3171.39,-234.13 3161.3,-224.09"/>
<polygon fill="black" stroke="black" points="3163.98,-221.81 3154.42,-217.24 3159.04,-226.78 3163.98,-221.81"/>
</g>
<!-- ExecuteUbergraph_BP_GooCannon_Cannister__147 -->
<g id="node8" class="node">
<title>ExecuteUbergraph_BP_GooCannon_Cannister__147</title>
<polygon fill="#eeeeee" stroke="black" points="2860,-75.5 2860,-111.5 2967,-111.5 2967,-75.5 2860,-75.5"/>
<text text-anchor="start" x="2868" y="-89.8" font-family="monospace" font-size="14.00">EX_Jump 301</text>
</g>
<!-- ExecuteUbergraph_BP_GooCannon_Cannister__115&#45;&gt;ExecuteUbergraph_BP_GooCannon_Cannister__147 -->
<g id="edge5" class="edge">
<title>ExecuteUbergraph_BP_GooCannon_Cannister__115&#45;&gt;ExecuteUbergraph_BP_GooCannon_Cannister__147</title>
<path fill="none" stroke="black" d="M3042.24,-148.61C3016.13,-137.63 2987.74,-125.7 2964.27,-115.84"/>
<polygon fill="black" stroke="black" points="2965.84,-112.7 2955.26,-112.05 2963.12,-119.15 2965.84,-112.7"/>
</g>
<!-- ExecuteUbergraph_BP_GooCannon_Cannister__301 -->
<g id="node15" class="node">
<title>ExecuteUbergraph_BP_GooCannon_Cannister__301</title>
<polygon fill="#eeeeee" stroke="black" points="2566.5,-0.5 2566.5,-38.5 2682.5,-38.5 2682.5,-0.5 2566.5,-0.5"/>
<text text-anchor="start" x="2574.5" y="-23.3" font-family="monospace" font-size="14.00">EX_Return</text>
<text text-anchor="start" x="2574.5" y="-8.3" font-family="monospace" font-size="14.00">  EX_Nothing</text>
</g>
<!-- ExecuteUbergraph_BP_GooCannon_Cannister__147&#45;&gt;ExecuteUbergraph_BP_GooCannon_Cannister__301 -->
<g id="edge6" class="edge">
<title>ExecuteUbergraph_BP_GooCannon_Cannister__147&#45;&gt;ExecuteUbergraph_BP_GooCannon_Cannister__301</title>
<path fill="none" stroke="black" d="M2860.45,-80.23C2817.86,-70.27 2756.27,-55.6 2693.17,-39.39"/>
<polygon fill="black" stroke="black" points="2694.23,-36.05 2683.68,-36.94 2692.49,-42.83 2694.23,-36.05"/>
</g>
<!-- ExecuteUbergraph_BP_GooCannon_Cannister__152 -->
<g id="node9" class="node">
<title>ExecuteUbergraph_BP_GooCannon_Cannister__152</title>
<polygon fill="#eeeeee" stroke="black" points="2124,-389.5 2124,-425.5 2231,-425.5 2231,-389.5 2124,-389.5"/>
<text text-anchor="start" x="2132" y="-403.8" font-family="monospace" font-size="14.00">EX_Jump 301</text>
</g>
<!-- ExecuteUbergraph_BP_GooCannon_Cannister__152&#45;&gt;ExecuteUbergraph_BP_GooCannon_Cannister__301 -->
<g id="edge7" class="edge">
<title>ExecuteUbergraph_BP_GooCannon_Cannister__152&#45;&gt;ExecuteUbergraph_BP_GooCannon_Cannister__301</title>
<path fill="none" stroke="black" d="M2196.99,-389.67C2267.68,-328.62 2510.81,-118.68 2595.29,-45.72"/>
<polygon fill="black" stroke="black" points="2597.45,-48.48 2602.74,-39.29 2592.88,-43.18 2597.45,-48.48"/>
</g>
<!-- ExecuteUbergraph_BP_GooCannon_Cannister__157 -->
<g id="node10" class="node">
<title>ExecuteUbergraph_BP_GooCannon_Cannister__157</title>
<polygon fill="#eeeeee" stroke="black" points="2286,-643.5 2286,-726.5 2963,-726.5 2963,-643.5 2286,-643.5"/>
<text text-anchor="start" x="2294" y="-711.3" font-family="monospace" font-size="14.00">EX_Let</text>
<text text-anchor="start" x="2294" y="-696.3" font-family="monospace" font-size="14.00">  EX_LocalVariable [CallFunc_Multiply_FloatFloat_ReturnValue]</text>
<text text-anchor="start" x="2294" y="-681.3" font-family="monospace" font-size="14.00">  EX_CallMath import /Script/Engine&#45;&gt;KismetMathLibrary&#45;&gt;Multiply_FloatFloat</text>
<text text-anchor="start" x="2294" y="-666.3" font-family="monospace" font-size="14.00">    EX_InstanceVariable [Timeline_0_NewTrack_0_FBE0858B42174801F4BF1E8D85338A2E]</text>
<text text-anchor="start" x="2294" y="-651.3" font-family="monospace" font-size="14.00">    EX_InstanceVariable [StartZScale]</text>
</g>
<!-- ExecuteUbergraph_BP_GooCannon_Cannister__203 -->
<g id="node11" class="node">
<title>ExecuteUbergraph_BP_GooCannon_Cannister__203</title>
<polygon fill="#eeeeee" stroke="black" points="2344,-508.5 2344,-606.5 2905,-606.5 2905,-508.5 2344,-508.5"/>
<text text-anchor="start" x="2352" y="-591.3" font-family="monospace" font-size="14.00">EX_Let</text>
<text text-anchor="start" x="2352" y="-576.3" font-family="monospace" font-size="14.00">  EX_LocalVariable [CallFunc_MakeVector_ReturnValue]</text>
<text text-anchor="start" x="2352" y="-561.3" font-family="monospace" font-size="14.00">  EX_CallMath import /Script/Engine&#45;&gt;KismetMathLibrary&#45;&gt;MakeVector</text>
<text text-anchor="start" x="2352" y="-546.3" font-family="monospace" font-size="14.00">    EX_FloatConst 1</text>
<text text-anchor="start" x="2352" y="-531.3" font-family="monospace" font-size="14.00">    EX_FloatConst 1</text>
<text text-anchor="start" x="2352" y="-516.3" font-family="monospace" font-size="14.00">    EX_LocalVariable [CallFunc_Multiply_FloatFloat_ReturnValue]</text>
</g>
<!-- ExecuteUbergraph_BP_GooCannon_Cannister__157&#45;&gt;ExecuteUbergraph_BP_GooCannon_Cannister__203 -->
<g id="edge8" class="edge">
<title>ExecuteUbergraph_BP_GooCannon_Cannister__157&#45;&gt;ExecuteUbergraph_BP_GooCannon_Cannister__203</title>
<path fill="none" stroke="black" d="M2624.5,-643.6C2624.5,-635.33 2624.5,-626.46 2624.5,-617.69"/>
<polygon fill="black" stroke="black" points="2628,-617.78 2624.5,-607.78 2621,-617.78 2628,-617.78"/>
</g>
<!-- ExecuteUbergraph_BP_GooCannon_Cannister__250 -->
<g id="node12" class="node">
<title>ExecuteUbergraph_BP_GooCannon_Cannister__250</title>
<polygon fill="#eeeeee" stroke="black" points="2302.5,-366 2302.5,-449 2946.5,-449 2946.5,-366 2302.5,-366"/>
<text text-anchor="start" x="2310.5" y="-433.8" font-family="monospace" font-size="14.00">EX_Context</text>
<text text-anchor="start" x="2310.5" y="-418.8" font-family="monospace" font-size="14.00">  EX_InstanceVariable [Bar]</text>
<text text-anchor="start" x="2310.5" y="-403.8" font-family="monospace" font-size="14.00">  EX_FinalFunction import /Script/Engine&#45;&gt;SceneComponent&#45;&gt;SetRelativeScale3D</text>
<text text-anchor="start" x="2310.5" y="-388.8" font-family="monospace" font-size="14.00">    EX_LocalVariable [CallFunc_MakeVector_ReturnValue]</text>
<text text-anchor="start" x="2310.5" y="-373.8" font-family="monospace" font-size="14.00">  RValue = []</text>
</g>
<!-- ExecuteUbergraph_BP_GooCannon_Cannister__203&#45;&gt;ExecuteUbergraph_BP_GooCannon_Cannister__250 -->
<g id="edge9" class="edge">
<title>ExecuteUbergraph_BP_GooCannon_Cannister__203&#45;&gt;ExecuteUbergraph_BP_GooCannon_Cannister__250</title>
<path fill="none" stroke="black" d="M2624.5,-508.86C2624.5,-493.22 2624.5,-475.77 2624.5,-459.87"/>
<polygon fill="black" stroke="black" points="2628,-460.12 2624.5,-450.12 2621,-460.12 2628,-460.12"/>
</g>
<!-- ExecuteUbergraph_BP_GooCannon_Cannister__291 -->
<g id="node13" class="node">
<title>ExecuteUbergraph_BP_GooCannon_Cannister__291</title>
<polygon fill="#eeeeee" stroke="black" points="2571,-262 2571,-298 2678,-298 2678,-262 2571,-262"/>
<text text-anchor="start" x="2579" y="-276.3" font-family="monospace" font-size="14.00">EX_Jump 301</text>
</g>
<!-- ExecuteUbergraph_BP_GooCannon_Cannister__250&#45;&gt;ExecuteUbergraph_BP_GooCannon_Cannister__291 -->
<g id="edge10" class="edge">
<title>ExecuteUbergraph_BP_GooCannon_Cannister__250&#45;&gt;ExecuteUbergraph_BP_GooCannon_Cannister__291</title>
<path fill="none" stroke="black" d="M2624.5,-366.1C2624.5,-347.53 2624.5,-325.96 2624.5,-309.19"/>
<polygon fill="black" stroke="black" points="2628,-309.44 2624.5,-299.44 2621,-309.44 2628,-309.44"/>
</g>
<!-- ExecuteUbergraph_BP_GooCannon_Cannister__291&#45;&gt;ExecuteUbergraph_BP_GooCannon_Cannister__301 -->
<g id="edge11" class="edge">
<title>ExecuteUbergraph_BP_GooCannon_Cannister__291&#45;&gt;ExecuteUbergraph_BP_GooCannon_Cannister__301</title>
<path fill="none" stroke="black" d="M2624.5,-262.04C2624.5,-218.7 2624.5,-103.52 2624.5,-49.38"/>
<polygon fill="black" stroke="black" points="2628,-49.72 2624.5,-39.72 2621,-49.72 2628,-49.72"/>
</g>
<!-- ExecuteUbergraph_BP_GooCannon_Cannister__296 -->
<g id="node14" class="node">
<title>ExecuteUbergraph_BP_GooCannon_Cannister__296</title>
<polygon fill="#eeeeee" stroke="black" points="3342,-667 3342,-703 3441,-703 3441,-667 3342,-667"/>
<text text-anchor="start" x="3350" y="-681.3" font-family="monospace" font-size="14.00">EX_Jump 10</text>
</g>
<!-- ExecuteUbergraph_BP_GooCannon_Cannister__296&#45;&gt;ExecuteUbergraph_BP_GooCannon_Cannister__10 -->
<g id="edge12" class="edge">
<title>ExecuteUbergraph_BP_GooCannon_Cannister__296&#45;&gt;ExecuteUbergraph_BP_GooCannon_Cannister__10</title>
<path fill="none" stroke="black" d="M3386.11,-667.07C3379.48,-646.28 3368.15,-610.73 3360.26,-585.99"/>
<polygon fill="black" stroke="black" points="3363.64,-585.06 3357.27,-576.6 3356.97,-587.19 3363.64,-585.06"/>
</g>
<!-- ExecuteUbergraph_BP_GooCannon_Cannister__303 -->
<g id="node16" class="node">
<title>ExecuteUbergraph_BP_GooCannon_Cannister__303</title>
<polygon fill="#eeeeee" stroke="black" points="3415.5,-164.5 3415.5,-200.5 3547.5,-200.5 3547.5,-164.5 3415.5,-164.5"/>
<text text-anchor="start" x="3423.5" y="-178.8" font-family="monospace" font-size="14.00">EX_EndOfScript</text>
</g>
<!-- ReceiveBeginPlay -->
<g id="node17" class="node">
<title>ReceiveBeginPlay</title>
<polygon fill="#ff8888" stroke="black" points="2927,-952 2927,-988 3150,-988 3150,-952 2927,-952"/>
<text text-anchor="start" x="2935" y="-966.3" font-family="monospace" font-size="14.00">Function ReceiveBeginPlay</text>
</g>
<!-- ReceiveBeginPlay__0 -->
<g id="node18" class="node">
<title>ReceiveBeginPlay__0</title>
<polygon fill="#eeeeee" stroke="black" points="2642.5,-778.5 2642.5,-816.5 3434.5,-816.5 3434.5,-778.5 2642.5,-778.5"/>
<text text-anchor="start" x="2650.5" y="-801.3" font-family="monospace" font-size="14.00">EX_LocalFinalFunction export BP_GooCannon_Cannister_C&#45;&gt;ExecuteUbergraph_BP_GooCannon_Cannister</text>
<text text-anchor="start" x="2650.5" y="-786.3" font-family="monospace" font-size="14.00">  EX_IntConst 296</text>
</g>
<!-- ReceiveBeginPlay&#45;&gt;ReceiveBeginPlay__0 -->
<g id="edge13" class="edge">
<title>ReceiveBeginPlay&#45;&gt;ReceiveBeginPlay__0</title>
<path fill="none" stroke="black" d="M3038.5,-952.03C3038.5,-922.97 3038.5,-863.36 3038.5,-827.57"/>
<polygon fill="black" stroke="black" points="3042,-827.94 3038.5,-817.94 3035,-827.94 3042,-827.94"/>
</g>
<!-- ReceiveBeginPlay__0&#45;&gt;ExecuteUbergraph_BP_GooCannon_Cannister__296 -->
<g id="edge14" class="edge">
<title>ReceiveBeginPlay__0:e&#45;&gt;ExecuteUbergraph_BP_GooCannon_Cannister__296</title>
<path fill="none" stroke="red" d="M3435.5,-797.5C3472.21,-797.5 3437.43,-744.55 3412.26,-711.63"/>
<polygon fill="none" stroke="red" points="3415.32,-709.86 3406.41,-704.13 3409.8,-714.17 3415.32,-709.86"/>
</g>
<!-- ReceiveBeginPlay__15 -->
<g id="node19" class="node">
<title>ReceiveBeginPlay__15</title>
<polygon fill="#eeeeee" stroke="black" points="2981.5,-666 2981.5,-704 3097.5,-704 3097.5,-666 2981.5,-666"/>
<text text-anchor="start" x="2989.5" y="-688.8" font-family="monospace" font-size="14.00">EX_Return</text>
<text text-anchor="start" x="2989.5" y="-673.8" font-family="monospace" font-size="14.00">  EX_Nothing</text>
</g>
<!-- ReceiveBeginPlay__0&#45;&gt;ReceiveBeginPlay__15 -->
<g id="edge15" class="edge">
<title>ReceiveBeginPlay__0&#45;&gt;ReceiveBeginPlay__15</title>
<path fill="none" stroke="black" d="M3038.66,-778.75C3038.82,-761.59 3039.05,-735.3 3039.24,-715.08"/>
<polygon fill="black" stroke="black" points="3042.74,-715.25 3039.33,-705.22 3035.74,-715.19 3042.74,-715.25"/>
</g>
<!-- ReceiveBeginPlay__17 -->
<g id="node20" class="node">
<title>ReceiveBeginPlay__17</title>
<polygon fill="#eeeeee" stroke="black" points="2985.5,-75.5 2985.5,-111.5 3117.5,-111.5 3117.5,-75.5 2985.5,-75.5"/>
<text text-anchor="start" x="2993.5" y="-89.8" font-family="monospace" font-size="14.00">EX_EndOfScript</text>
</g>
<!-- Timeline_0__UpdateFunc -->
<g id="node21" class="node">
<title>Timeline_0__UpdateFunc</title>
<polygon fill="#ff8888" stroke="black" points="2092.5,-952 2092.5,-988 2364.5,-988 2364.5,-952 2092.5,-952"/>
<text text-anchor="start" x="2100.5" y="-966.3" font-family="monospace" font-size="14.00">Function Timeline_0__UpdateFunc</text>
</g>
<!-- Timeline_0__UpdateFunc__0 -->
<g id="node22" class="node">
<title>Timeline_0__UpdateFunc__0</title>
<polygon fill="#eeeeee" stroke="black" points="1832.5,-778.5 1832.5,-816.5 2624.5,-816.5 2624.5,-778.5 1832.5,-778.5"/>
<text text-anchor="start" x="1840.5" y="-801.3" font-family="monospace" font-size="14.00">EX_LocalFinalFunction export BP_GooCannon_Cannister_C&#45;&gt;ExecuteUbergraph_BP_GooCannon_Cannister</text>
<text text-anchor="start" x="1840.5" y="-786.3" font-family="monospace" font-size="14.00">  EX_IntConst 157</text>
</g>
<!-- Timeline_0__UpdateFunc&#45;&gt;Timeline_0__UpdateFunc__0 -->
<g id="edge16" class="edge">
<title>Timeline_0__UpdateFunc&#45;&gt;Timeline_0__UpdateFunc__0</title>
<path fill="none" stroke="black" d="M2228.5,-952.03C2228.5,-922.97 2228.5,-863.36 2228.5,-827.57"/>
<polygon fill="black" stroke="black" points="2232,-827.94 2228.5,-817.94 2225,-827.94 2232,-827.94"/>
</g>
<!-- Timeline_0__UpdateFunc__0&#45;&gt;ExecuteUbergraph_BP_GooCannon_Cannister__157 -->
<g id="edge17" class="edge">
<title>Timeline_0__UpdateFunc__0:e&#45;&gt;ExecuteUbergraph_BP_GooCannon_Cannister__157</title>
<path fill="none" stroke="red" d="M2625.5,-797.5C2631.99,-797.5 2631.41,-766.86 2629.37,-737.71"/>
<polygon fill="none" stroke="red" points="2632.87,-737.47 2628.62,-727.76 2625.89,-738 2632.87,-737.47"/>
</g>
<!-- Timeline_0__UpdateFunc__15 -->
<g id="node23" class="node">
<title>Timeline_0__UpdateFunc__15</title>
<polygon fill="#eeeeee" stroke="black" points="2151.5,-666 2151.5,-704 2267.5,-704 2267.5,-666 2151.5,-666"/>
<text text-anchor="start" x="2159.5" y="-688.8" font-family="monospace" font-size="14.00">EX_Return</text>
<text text-anchor="start" x="2159.5" y="-673.8" font-family="monospace" font-size="14.00">  EX_Nothing</text>
</g>
<!-- Timeline_0__UpdateFunc__0&#45;&gt;Timeline_0__UpdateFunc__15 -->
<g id="edge18" class="edge">
<title>Timeline_0__UpdateFunc__0&#45;&gt;Timeline_0__UpdateFunc__15</title>
<path fill="none" stroke="black" d="M2225.45,-778.75C2222.48,-761.51 2217.93,-735.05 2214.45,-714.8"/>
<polygon fill="black" stroke="black" points="2217.95,-714.46 2212.8,-705.2 2211.05,-715.65 2217.95,-714.46"/>
</g>
<!-- Timeline_0__UpdateFunc__17 -->
<g id="node24" class="node">
<title>Timeline_0__UpdateFunc__17</title>
<polygon fill="#eeeeee" stroke="black" points="2700.5,-1.5 2700.5,-37.5 2832.5,-37.5 2832.5,-1.5 2700.5,-1.5"/>
<text text-anchor="start" x="2708.5" y="-15.8" font-family="monospace" font-size="14.00">EX_EndOfScript</text>
</g>
<!-- Timeline_0__FinishedFunc -->
<g id="node25" class="node">
<title>Timeline_0__FinishedFunc</title>
<polygon fill="#ff8888" stroke="black" points="1274,-952 1274,-988 1563,-988 1563,-952 1274,-952"/>
<text text-anchor="start" x="1282" y="-966.3" font-family="monospace" font-size="14.00">Function Timeline_0__FinishedFunc</text>
</g>
<!-- Timeline_0__FinishedFunc__0 -->
<g id="node26" class="node">
<title>Timeline_0__FinishedFunc__0</title>
<polygon fill="#eeeeee" stroke="black" points="1022.5,-778.5 1022.5,-816.5 1814.5,-816.5 1814.5,-778.5 1022.5,-778.5"/>
<text text-anchor="start" x="1030.5" y="-801.3" font-family="monospace" font-size="14.00">EX_LocalFinalFunction export BP_GooCannon_Cannister_C&#45;&gt;ExecuteUbergraph_BP_GooCannon_Cannister</text>
<text text-anchor="start" x="1030.5" y="-786.3" font-family="monospace" font-size="14.00">  EX_IntConst 152</text>
</g>
<!-- Timeline_0__FinishedFunc&#45;&gt;Timeline_0__FinishedFunc__0 -->
<g id="edge19" class="edge">
<title>Timeline_0__FinishedFunc&#45;&gt;Timeline_0__FinishedFunc__0</title>
<path fill="none" stroke="black" d="M1418.5,-952.03C1418.5,-922.97 1418.5,-863.36 1418.5,-827.57"/>
<polygon fill="black" stroke="black" points="1422,-827.94 1418.5,-817.94 1415,-827.94 1422,-827.94"/>
</g>
<!-- Timeline_0__FinishedFunc__0&#45;&gt;ExecuteUbergraph_BP_GooCannon_Cannister__152 -->
<g id="edge20" class="edge">
<title>Timeline_0__FinishedFunc__0:e&#45;&gt;ExecuteUbergraph_BP_GooCannon_Cannister__152</title>
<path fill="none" stroke="red" d="M1815.5,-797.5C1831.24,-797.5 1815.87,-776.77 1823.5,-763 1907.05,-612.31 2073.28,-482.55 2144.19,-431.57"/>
<polygon fill="none" stroke="red" points="2145.81,-434.72 2151.92,-426.06 2141.75,-429.02 2145.81,-434.72"/>
</g>
<!-- Timeline_0__FinishedFunc__15 -->
<g id="node27" class="node">
<title>Timeline_0__FinishedFunc__15</title>
<polygon fill="#eeeeee" stroke="black" points="1360.5,-666 1360.5,-704 1476.5,-704 1476.5,-666 1360.5,-666"/>
<text text-anchor="start" x="1368.5" y="-688.8" font-family="monospace" font-size="14.00">EX_Return</text>
<text text-anchor="start" x="1368.5" y="-673.8" font-family="monospace" font-size="14.00">  EX_Nothing</text>
</g>
<!-- Timeline_0__FinishedFunc__0&#45;&gt;Timeline_0__FinishedFunc__15 -->
<g id="edge21" class="edge">
<title>Timeline_0__FinishedFunc__0&#45;&gt;Timeline_0__FinishedFunc__15</title>
<path fill="none" stroke="black" d="M1418.5,-778.75C1418.5,-761.59 1418.5,-735.3 1418.5,-715.08"/>
<polygon fill="black" stroke="black" points="1422,-715.22 1418.5,-705.22 1415,-715.22 1422,-715.22"/>
</g>
<!-- Timeline_0__FinishedFunc__17 -->
<g id="node28" class="node">
<title>Timeline_0__FinishedFunc__17</title>
<polygon fill="#eeeeee" stroke="black" points="3658.5,-539.5 3658.5,-575.5 3790.5,-575.5 3790.5,-539.5 3658.5,-539.5"/>
<text text-anchor="start" x="3666.5" y="-553.8" font-family="monospace" font-size="14.00">EX_EndOfScript</text>
</g>
<!-- OnSpawnRelease_Attached -->
<g id="node29" class="node">
<title>OnSpawnRelease_Attached</title>
<polygon fill="#ff8888" stroke="black" points="3355.5,-928.5 3355.5,-1011.5 3825.5,-1011.5 3825.5,-928.5 3355.5,-928.5"/>
<text text-anchor="start" x="3363.5" y="-996.3" font-family="monospace" font-size="14.00">Function OnSpawnRelease_Attached</text>
<text text-anchor="start" x="3363.5" y="-981.3" font-family="monospace" font-size="14.00">  ObjectProperty parent</text>
<text text-anchor="start" x="3363.5" y="-966.3" font-family="monospace" font-size="14.00">    CPF_BlueprintVisible|CPF_BlueprintReadOnly|CPF_Parm</text>
<text text-anchor="start" x="3363.5" y="-951.3" font-family="monospace" font-size="14.00">  BoolProperty ReturnValue</text>
<text text-anchor="start" x="3363.5" y="-936.3" font-family="monospace" font-size="14.00">    CPF_Parm|CPF_OutParm|CPF_ReturnParm</text>
</g>
<!-- OnSpawnRelease_Attached__0 -->
<g id="node30" class="node">
<title>OnSpawnRelease_Attached__0</title>
<polygon fill="#eeeeee" stroke="black" points="3495.5,-763.5 3495.5,-831.5 3685.5,-831.5 3685.5,-763.5 3495.5,-763.5"/>
<text text-anchor="start" x="3503.5" y="-816.3" font-family="monospace" font-size="14.00">EX_LetBool</text>
<text text-anchor="start" x="3503.5" y="-801.3" font-family="monospace" font-size="14.00">  EX_LocalOutVariable</text>
<text text-anchor="start" x="3503.5" y="-786.3" font-family="monospace" font-size="14.00">    [ReturnValue]</text>
<text text-anchor="start" x="3503.5" y="-771.3" font-family="monospace" font-size="14.00">  EX_False</text>
</g>
<!-- OnSpawnRelease_Attached&#45;&gt;OnSpawnRelease_Attached__0 -->
<g id="edge22" class="edge">
<title>OnSpawnRelease_Attached&#45;&gt;OnSpawnRelease_Attached__0</title>
<path fill="none" stroke="black" d="M3590.5,-928.59C3590.5,-902.77 3590.5,-869.28 3590.5,-842.75"/>
<polygon fill="black" stroke="black" points="3594,-842.98 3590.5,-832.98 3587,-842.98 3594,-842.98"/>
</g>
<!-- OnSpawnRelease_Attached__11 -->
<g id="node31" class="node">
<title>OnSpawnRelease_Attached__11</title>
<polygon fill="#eeeeee" stroke="black" points="3495.5,-658.5 3495.5,-711.5 3685.5,-711.5 3685.5,-658.5 3495.5,-658.5"/>
<text text-anchor="start" x="3503.5" y="-696.3" font-family="monospace" font-size="14.00">EX_Return</text>
<text text-anchor="start" x="3503.5" y="-681.3" font-family="monospace" font-size="14.00">  EX_LocalOutVariable</text>
<text text-anchor="start" x="3503.5" y="-666.3" font-family="monospace" font-size="14.00">    [ReturnValue]</text>
</g>
<!-- OnSpawnRelease_Attached__0&#45;&gt;OnSpawnRelease_Attached__11 -->
<g id="edge23" class="edge">
<title>OnSpawnRelease_Attached__0&#45;&gt;OnSpawnRelease_Attached__11</title>
<path fill="none" stroke="black" d="M3590.5,-763.65C3590.5,-750.66 3590.5,-735.68 3590.5,-722.36"/>
<polygon fill="black" stroke="black" points="3594,-722.7 3590.5,-712.7 3587,-722.7 3594,-722.7"/>
</g>
<!-- OnSpawnRelease_Attached__21 -->
<g id="node32" class="node">
<title>OnSpawnRelease_Attached__21</title>
<polygon fill="#eeeeee" stroke="black" points="3843.5,-952 3843.5,-988 3975.5,-988 3975.5,-952 3843.5,-952"/>
<text text-anchor="start" x="3851.5" y="-966.3" font-family="monospace" font-size="14.00">EX_EndOfScript</text>
</g>
</g>
</svg>
