<?xml version="1.0" encoding="UTF-8" standalone="no"?>
<!DOCTYPE svg PUBLIC "-//W3C//DTD SVG 1.1//EN"
 "http://www.w3.org/Graphics/SVG/1.1/DTD/svg11.dtd">
<!-- Generated by graphviz version 7.0.1 (0)
 -->
<!-- Pages: 1 -->
<svg width="4260pt" height="467pt"
 viewBox="0.00 0.00 4260.00 467.00" xmlns="http://www.w3.org/2000/svg" xmlns:xlink="http://www.w3.org/1999/xlink">
<g id="graph0" class="graph" transform="scale(1 1) rotate(0) translate(4 463)">
<polygon fill="white" stroke="none" points="-4,4 -4,-463 4256,-463 4256,4 -4,4"/>
<!-- BP_GooCannon_GooPuddle_ImprovedSlow_C -->
<g id="node1" class="node">
<title>BP_GooCannon_GooPuddle_ImprovedSlow_C</title>
<polygon fill="#88ff88" stroke="black" points="0,-375.5 0,-458.5 842,-458.5 842,-375.5 0,-375.5"/>
<text text-anchor="start" x="8" y="-443.3" font-family="monospace" font-size="14.00">ClassExport: BP_GooCannon_GooPuddle_ImprovedSlow_C</text>
<text text-anchor="start" x="8" y="-428.3" font-family="monospace" font-size="14.00">  SuperStruct: import /Game/WeaponsNTools/GooCannon/BP_GooCannon_GooPuddle&#45;&gt;BP_GooCannon_GooPuddle_C</text>
<text text-anchor="start" x="8" y="-413.3" font-family="monospace" font-size="14.00">  Properties:</text>
<text text-anchor="start" x="8" y="-398.3" font-family="monospace" font-size="14.00">    StructProperty UberGraphFrame</text>
<text text-anchor="start" x="8" y="-383.3" font-family="monospace" font-size="14.00">      CPF_Transient|CPF_DuplicateTransient</text>
</g>
<!-- ExecuteUbergraph_BP_GooCannon_GooPuddle_ImprovedSlow -->
<g id="node2" class="node">
<title>ExecuteUbergraph_BP_GooCannon_GooPuddle_ImprovedSlow</title>
<polygon fill="#ff8888" stroke="black" points="860,-375.5 860,-458.5 1380,-458.5 1380,-375.5 860,-375.5"/>
<text text-anchor="start" x="868" y="-443.3" font-family="monospace" font-size="14.00">Function ExecuteUbergraph_BP_GooCannon_GooPuddle_ImprovedSlow</text>
<text text-anchor="start" x="868" y="-428.3" font-family="monospace" font-size="14.00">  IntProperty EntryPoint</text>
<text text-anchor="start" x="868" y="-413.3" font-family="monospace" font-size="14.00">    CPF_BlueprintVisible|CPF_BlueprintReadOnly|CPF_Parm</text>
<text text-anchor="start" x="868" y="-398.3" font-family="monospace" font-size="14.00">  ObjectProperty K2Node_Event_OtherActor</text>
<text text-anchor="start" x="868" y="-383.3" font-family="monospace" font-size="14.00">  FloatProperty K2Node_Event_DeltaSeconds</text>
</g>
<!-- ExecuteUbergraph_BP_GooCannon_GooPuddle_ImprovedSlow__0 -->
<g id="node3" class="node">
<title>ExecuteUbergraph_BP_GooCannon_GooPuddle_ImprovedSlow__0</title>
<polygon fill="#eeeeee" stroke="black" points="984,-300.5 984,-338.5 1256,-338.5 1256,-300.5 984,-300.5"/>
<text text-anchor="start" x="992" y="-323.3" font-family="monospace" font-size="14.00">EX_ComputedJump</text>
<text text-anchor="start" x="992" y="-308.3" font-family="monospace" font-size="14.00">  EX_LocalVariable [EntryPoint]</text>
</g>
<!-- ExecuteUbergraph_BP_GooCannon_GooPuddle_ImprovedSlow&#45;&gt;ExecuteUbergraph_BP_GooCannon_GooPuddle_ImprovedSlow__0 -->
<g id="edge1" class="edge">
<title>ExecuteUbergraph_BP_GooCannon_GooPuddle_ImprovedSlow&#45;&gt;ExecuteUbergraph_BP_GooCannon_GooPuddle_ImprovedSlow__0</title>
<path fill="none" stroke="black" d="M1120,-375.78C1120,-367.01 1120,-357.89 1120,-349.65"/>
<polygon fill="black" stroke="black" points="1123.5,-349.86 1120,-339.86 1116.5,-349.86 1123.5,-349.86"/>
</g>
<!-- ExecuteUbergraph_BP_GooCannon_GooPuddle_ImprovedSlow__10 -->
<g id="node4" class="node">
<title>ExecuteUbergraph_BP_GooCannon_GooPuddle_ImprovedSlow__10</title>
<polygon fill="#eeeeee" stroke="black" points="3204,-151.5 3204,-187.5 4252,-187.5 4252,-151.5 3204,-151.5"/>
<text text-anchor="start" x="3212" y="-165.8" font-family="monospace" font-size="14.00">EX_LocalFinalFunction import /Game/WeaponsNTools/GooCannon/BP_GooCannon_GooPuddle&#45;&gt;BP_GooCannon_GooPuddle_C&#45;&gt;ReceiveBeginPlay</text>
</g>
<!-- ExecuteUbergraph_BP_GooCannon_GooPuddle_ImprovedSlow__20 -->
<g id="node5" class="node">
<title>ExecuteUbergraph_BP_GooCannon_GooPuddle_ImprovedSlow__20</title>
<polygon fill="#eeeeee" stroke="black" points="3556.5,-76.5 3556.5,-112.5 3655.5,-112.5 3655.5,-76.5 3556.5,-76.5"/>
<text text-anchor="start" x="3564.5" y="-90.8" font-family="monospace" font-size="14.00">EX_Jump 73</text>
</g>
<!-- ExecuteUbergraph_BP_GooCannon_GooPuddle_ImprovedSlow__10&#45;&gt;ExecuteUbergraph_BP_GooCannon_GooPuddle_ImprovedSlow__20 -->
<g id="edge2" class="edge">
<title>ExecuteUbergraph_BP_GooCannon_GooPuddle_ImprovedSlow__10&#45;&gt;ExecuteUbergraph_BP_GooCannon_GooPuddle_ImprovedSlow__20</title>
<path fill="none" stroke="black" d="M3699.7,-151.57C3683.07,-141.62 3661.84,-128.91 3643.79,-118.11"/>
<polygon fill="black" stroke="black" points="3645.82,-115.25 3635.44,-113.12 3642.23,-121.25 3645.82,-115.25"/>
</g>
<!-- ExecuteUbergraph_BP_GooCannon_GooPuddle_ImprovedSlow__73 -->
<g id="node10" class="node">
<title>ExecuteUbergraph_BP_GooCannon_GooPuddle_ImprovedSlow__73</title>
<polygon fill="#eeeeee" stroke="black" points="3104,-0.5 3104,-38.5 3220,-38.5 3220,-0.5 3104,-0.5"/>
<text text-anchor="start" x="3112" y="-23.3" font-family="monospace" font-size="14.00">EX_Return</text>
<text text-anchor="start" x="3112" y="-8.3" font-family="monospace" font-size="14.00">  EX_Nothing</text>
</g>
<!-- ExecuteUbergraph_BP_GooCannon_GooPuddle_ImprovedSlow__20&#45;&gt;ExecuteUbergraph_BP_GooCannon_GooPuddle_ImprovedSlow__73 -->
<g id="edge3" class="edge">
<title>ExecuteUbergraph_BP_GooCannon_GooPuddle_ImprovedSlow__20&#45;&gt;ExecuteUbergraph_BP_GooCannon_GooPuddle_ImprovedSlow__73</title>
<path fill="none" stroke="black" d="M3556.55,-88.36C3486.29,-80.62 3353.42,-64.36 3231.05,-39.29"/>
<polygon fill="black" stroke="black" points="3231.98,-35.91 3221.48,-37.3 3230.56,-42.76 3231.98,-35.91"/>
</g>
<!-- ExecuteUbergraph_BP_GooCannon_GooPuddle_ImprovedSlow__25 -->
<g id="node6" class="node">
<title>ExecuteUbergraph_BP_GooCannon_GooPuddle_ImprovedSlow__25</title>
<polygon fill="#eeeeee" stroke="black" points="3730.5,-226.5 3730.5,-262.5 3829.5,-262.5 3829.5,-226.5 3730.5,-226.5"/>
<text text-anchor="start" x="3738.5" y="-240.8" font-family="monospace" font-size="14.00">EX_Jump 10</text>
</g>
<!-- ExecuteUbergraph_BP_GooCannon_GooPuddle_ImprovedSlow__25&#45;&gt;ExecuteUbergraph_BP_GooCannon_GooPuddle_ImprovedSlow__10 -->
<g id="edge4" class="edge">
<title>ExecuteUbergraph_BP_GooCannon_GooPuddle_ImprovedSlow__25&#45;&gt;ExecuteUbergraph_BP_GooCannon_GooPuddle_ImprovedSlow__10</title>
<path fill="none" stroke="black" d="M3767.94,-226.57C3761.57,-217.63 3753.62,-206.47 3746.5,-196.47"/>
<polygon fill="black" stroke="black" points="3749.53,-194.69 3740.87,-188.57 3743.82,-198.75 3749.53,-194.69"/>
</g>
<!-- ExecuteUbergraph_BP_GooCannon_GooPuddle_ImprovedSlow__30 -->
<g id="node7" class="node">
<title>ExecuteUbergraph_BP_GooCannon_GooPuddle_ImprovedSlow__30</title>
<polygon fill="#eeeeee" stroke="black" points="1877,-150.5 1877,-188.5 2521,-188.5 2521,-150.5 1877,-150.5"/>
<text text-anchor="start" x="1885" y="-173.3" font-family="monospace" font-size="14.00">EX_LocalFinalFunction import /Script/Engine&#45;&gt;Actor&#45;&gt;ReceiveActorBeginOverlap</text>
<text text-anchor="start" x="1885" y="-158.3" font-family="monospace" font-size="14.00">  EX_LocalVariable [K2Node_Event_OtherActor]</text>
</g>
<!-- ExecuteUbergraph_BP_GooCannon_GooPuddle_ImprovedSlow__49 -->
<g id="node8" class="node">
<title>ExecuteUbergraph_BP_GooCannon_GooPuddle_ImprovedSlow__49</title>
<polygon fill="#eeeeee" stroke="black" points="2493.5,-76.5 2493.5,-112.5 2592.5,-112.5 2592.5,-76.5 2493.5,-76.5"/>
<text text-anchor="start" x="2501.5" y="-90.8" font-family="monospace" font-size="14.00">EX_Jump 73</text>
</g>
<!-- ExecuteUbergraph_BP_GooCannon_GooPuddle_ImprovedSlow__30&#45;&gt;ExecuteUbergraph_BP_GooCannon_GooPuddle_ImprovedSlow__49 -->
<g id="edge5" class="edge">
<title>ExecuteUbergraph_BP_GooCannon_GooPuddle_ImprovedSlow__30&#45;&gt;ExecuteUbergraph_BP_GooCannon_GooPuddle_ImprovedSlow__49</title>
<path fill="none" stroke="black" d="M2283.59,-150.55C2345.38,-137.44 2427.67,-119.97 2482.85,-108.27"/>
<polygon fill="black" stroke="black" points="2483.31,-111.74 2492.37,-106.24 2481.86,-104.9 2483.31,-111.74"/>
</g>
<!-- ExecuteUbergraph_BP_GooCannon_GooPuddle_ImprovedSlow__49&#45;&gt;ExecuteUbergraph_BP_GooCannon_GooPuddle_ImprovedSlow__73 -->
<g id="edge6" class="edge">
<title>ExecuteUbergraph_BP_GooCannon_GooPuddle_ImprovedSlow__49&#45;&gt;ExecuteUbergraph_BP_GooCannon_GooPuddle_ImprovedSlow__73</title>
<path fill="none" stroke="black" d="M2592.35,-87.68C2702.06,-74.74 2966.45,-43.56 3092.67,-28.68"/>
<polygon fill="black" stroke="black" points="3093.05,-32.16 3102.58,-27.51 3092.23,-25.2 3093.05,-32.16"/>
</g>
<!-- ExecuteUbergraph_BP_GooCannon_GooPuddle_ImprovedSlow__54 -->
<g id="node9" class="node">
<title>ExecuteUbergraph_BP_GooCannon_GooPuddle_ImprovedSlow__54</title>
<polygon fill="#eeeeee" stroke="black" points="2894,-75.5 2894,-113.5 3430,-113.5 3430,-75.5 2894,-75.5"/>
<text text-anchor="start" x="2902" y="-98.3" font-family="monospace" font-size="14.00">EX_LocalFinalFunction import /Script/Engine&#45;&gt;Actor&#45;&gt;ReceiveTick</text>
<text text-anchor="start" x="2902" y="-83.3" font-family="monospace" font-size="14.00">  EX_LocalVariable [K2Node_Event_DeltaSeconds]</text>
</g>
<!-- ExecuteUbergraph_BP_GooCannon_GooPuddle_ImprovedSlow__54&#45;&gt;ExecuteUbergraph_BP_GooCannon_GooPuddle_ImprovedSlow__73 -->
<g id="edge7" class="edge">
<title>ExecuteUbergraph_BP_GooCannon_GooPuddle_ImprovedSlow__54&#45;&gt;ExecuteUbergraph_BP_GooCannon_GooPuddle_ImprovedSlow__73</title>
<path fill="none" stroke="black" d="M3162,-75.83C3162,-68 3162,-58.57 3162,-49.74"/>
<polygon fill="black" stroke="black" points="3165.5,-49.78 3162,-39.78 3158.5,-49.78 3165.5,-49.78"/>
</g>
<!-- ExecuteUbergraph_BP_GooCannon_GooPuddle_ImprovedSlow__75 -->
<g id="node11" class="node">
<title>ExecuteUbergraph_BP_GooCannon_GooPuddle_ImprovedSlow__75</title>
<polygon fill="#eeeeee" stroke="black" points="3238,-1.5 3238,-37.5 3370,-37.5 3370,-1.5 3238,-1.5"/>
<text text-anchor="start" x="3246" y="-15.8" font-family="monospace" font-size="14.00">EX_EndOfScript</text>
</g>
<!-- ReceiveTick -->
<g id="node12" class="node">
<title>ReceiveTick</title>
<polygon fill="#ff8888" stroke="black" points="2332,-390.5 2332,-443.5 2802,-443.5 2802,-390.5 2332,-390.5"/>
<text text-anchor="start" x="2340" y="-428.3" font-family="monospace" font-size="14.00">Function ReceiveTick</text>
<text text-anchor="start" x="2340" y="-413.3" font-family="monospace" font-size="14.00">  FloatProperty DeltaSeconds</text>
<text text-anchor="start" x="2340" y="-398.3" font-family="monospace" font-size="14.00">    CPF_BlueprintVisible|CPF_BlueprintReadOnly|CPF_Parm</text>
</g>
<!-- ReceiveTick__0 -->
<g id="node13" class="node">
<title>ReceiveTick__0</title>
<polygon fill="#eeeeee" stroke="black" points="2327.5,-300.5 2327.5,-338.5 2806.5,-338.5 2806.5,-300.5 2327.5,-300.5"/>
<text text-anchor="start" x="2335.5" y="-323.3" font-family="monospace" font-size="14.00">EX_LetValueOnPersistentFrame [K2Node_Event_DeltaSeconds]</text>
<text text-anchor="start" x="2335.5" y="-308.3" font-family="monospace" font-size="14.00">  EX_LocalVariable [DeltaSeconds]</text>
</g>
<!-- ReceiveTick&#45;&gt;ReceiveTick__0 -->
<g id="edge8" class="edge">
<title>ReceiveTick&#45;&gt;ReceiveTick__0</title>
<path fill="none" stroke="black" d="M2567,-390.66C2567,-378.05 2567,-362.75 2567,-349.66"/>
<polygon fill="black" stroke="black" points="2570.5,-349.91 2567,-339.91 2563.5,-349.91 2570.5,-349.91"/>
</g>
<!-- ReceiveTick__18 -->
<g id="node14" class="node">
<title>ReceiveTick__18</title>
<polygon fill="#eeeeee" stroke="black" points="2154.5,-225.5 2154.5,-263.5 3161.5,-263.5 3161.5,-225.5 2154.5,-225.5"/>
<text text-anchor="start" x="2162.5" y="-248.3" font-family="monospace" font-size="14.00">EX_LocalFinalFunction export BP_GooCannon_GooPuddle_ImprovedSlow_C&#45;&gt;ExecuteUbergraph_BP_GooCannon_GooPuddle_ImprovedSlow</text>
<text text-anchor="start" x="2162.5" y="-233.3" font-family="monospace" font-size="14.00">  EX_IntConst 54</text>
</g>
<!-- ReceiveTick__0&#45;&gt;ReceiveTick__18 -->
<g id="edge9" class="edge">
<title>ReceiveTick__0&#45;&gt;ReceiveTick__18</title>
<path fill="none" stroke="black" d="M2589.03,-300.83C2600.46,-291.66 2614.61,-280.31 2627.11,-270.28"/>
<polygon fill="black" stroke="black" points="2629.07,-273.2 2634.68,-264.21 2624.69,-267.74 2629.07,-273.2"/>
</g>
<!-- ReceiveTick__18&#45;&gt;ExecuteUbergraph_BP_GooCannon_GooPuddle_ImprovedSlow__54 -->
<g id="edge10" class="edge">
<title>ReceiveTick__18:e&#45;&gt;ExecuteUbergraph_BP_GooCannon_GooPuddle_ImprovedSlow__54</title>
<path fill="none" stroke="red" d="M3163,-244.5C3210.61,-244.5 3189.25,-167.48 3173.47,-124.19"/>
<polygon fill="none" stroke="red" points="3176.77,-123.01 3169.97,-114.89 3170.22,-125.48 3176.77,-123.01"/>
</g>
<!-- ReceiveTick__33 -->
<g id="node15" class="node">
<title>ReceiveTick__33</title>
<polygon fill="#eeeeee" stroke="black" points="2600,-150.5 2600,-188.5 2716,-188.5 2716,-150.5 2600,-150.5"/>
<text text-anchor="start" x="2608" y="-173.3" font-family="monospace" font-size="14.00">EX_Return</text>
<text text-anchor="start" x="2608" y="-158.3" font-family="monospace" font-size="14.00">  EX_Nothing</text>
</g>
<!-- ReceiveTick__18&#45;&gt;ReceiveTick__33 -->
<g id="edge11" class="edge">
<title>ReceiveTick__18&#45;&gt;ReceiveTick__33</title>
<path fill="none" stroke="black" d="M2658,-225.83C2658,-218 2658,-208.57 2658,-199.74"/>
<polygon fill="black" stroke="black" points="2661.5,-199.78 2658,-189.78 2654.5,-199.78 2661.5,-199.78"/>
</g>
<!-- ReceiveTick__35 -->
<g id="node16" class="node">
<title>ReceiveTick__35</title>
<polygon fill="#eeeeee" stroke="black" points="3674,-76.5 3674,-112.5 3806,-112.5 3806,-76.5 3674,-76.5"/>
<text text-anchor="start" x="3682" y="-90.8" font-family="monospace" font-size="14.00">EX_EndOfScript</text>
</g>
<!-- ReceiveActorBeginOverlap -->
<g id="node17" class="node">
<title>ReceiveActorBeginOverlap</title>
<polygon fill="#ff8888" stroke="black" points="1398,-390.5 1398,-443.5 1868,-443.5 1868,-390.5 1398,-390.5"/>
<text text-anchor="start" x="1406" y="-428.3" font-family="monospace" font-size="14.00">Function ReceiveActorBeginOverlap</text>
<text text-anchor="start" x="1406" y="-413.3" font-family="monospace" font-size="14.00">  ObjectProperty OtherActor</text>
<text text-anchor="start" x="1406" y="-398.3" font-family="monospace" font-size="14.00">    CPF_BlueprintVisible|CPF_BlueprintReadOnly|CPF_Parm</text>
</g>
<!-- ReceiveActorBeginOverlap__0 -->
<g id="node18" class="node">
<title>ReceiveActorBeginOverlap__0</title>
<polygon fill="#eeeeee" stroke="black" points="1402,-300.5 1402,-338.5 1864,-338.5 1864,-300.5 1402,-300.5"/>
<text text-anchor="start" x="1410" y="-323.3" font-family="monospace" font-size="14.00">EX_LetValueOnPersistentFrame [K2Node_Event_OtherActor]</text>
<text text-anchor="start" x="1410" y="-308.3" font-family="monospace" font-size="14.00">  EX_LocalVariable [OtherActor]</text>
</g>
<!-- ReceiveActorBeginOverlap&#45;&gt;ReceiveActorBeginOverlap__0 -->
<g id="edge12" class="edge">
<title>ReceiveActorBeginOverlap&#45;&gt;ReceiveActorBeginOverlap__0</title>
<path fill="none" stroke="black" d="M1633,-390.66C1633,-378.05 1633,-362.75 1633,-349.66"/>
<polygon fill="black" stroke="black" points="1636.5,-349.91 1633,-339.91 1629.5,-349.91 1636.5,-349.91"/>
</g>
<!-- ReceiveActorBeginOverlap__18 -->
<g id="node19" class="node">
<title>ReceiveActorBeginOverlap__18</title>
<polygon fill="#eeeeee" stroke="black" points="1129.5,-225.5 1129.5,-263.5 2136.5,-263.5 2136.5,-225.5 1129.5,-225.5"/>
<text text-anchor="start" x="1137.5" y="-248.3" font-family="monospace" font-size="14.00">EX_LocalFinalFunction export BP_GooCannon_GooPuddle_ImprovedSlow_C&#45;&gt;ExecuteUbergraph_BP_GooCannon_GooPuddle_ImprovedSlow</text>
<text text-anchor="start" x="1137.5" y="-233.3" font-family="monospace" font-size="14.00">  EX_IntConst 30</text>
</g>
<!-- ReceiveActorBeginOverlap__0&#45;&gt;ReceiveActorBeginOverlap__18 -->
<g id="edge13" class="edge">
<title>ReceiveActorBeginOverlap__0&#45;&gt;ReceiveActorBeginOverlap__18</title>
<path fill="none" stroke="black" d="M1633,-300.83C1633,-293 1633,-283.57 1633,-274.74"/>
<polygon fill="black" stroke="black" points="1636.5,-274.78 1633,-264.78 1629.5,-274.78 1636.5,-274.78"/>
</g>
<!-- ReceiveActorBeginOverlap__18&#45;&gt;ExecuteUbergraph_BP_GooCannon_GooPuddle_ImprovedSlow__30 -->
<g id="edge14" class="edge">
<title>ReceiveActorBeginOverlap__18:e&#45;&gt;ExecuteUbergraph_BP_GooCannon_GooPuddle_ImprovedSlow__30</title>
<path fill="none" stroke="red" d="M2138,-244.5C2147.21,-244.5 2140.09,-232.79 2145,-225 2151.57,-214.58 2160.44,-204.58 2169.09,-196.06"/>
<polygon fill="none" stroke="red" points="2171.26,-198.82 2176.13,-189.41 2166.45,-193.73 2171.26,-198.82"/>
</g>
<!-- ReceiveActorBeginOverlap__33 -->
<g id="node20" class="node">
<title>ReceiveActorBeginOverlap__33</title>
<polygon fill="#eeeeee" stroke="black" points="1575,-150.5 1575,-188.5 1691,-188.5 1691,-150.5 1575,-150.5"/>
<text text-anchor="start" x="1583" y="-173.3" font-family="monospace" font-size="14.00">EX_Return</text>
<text text-anchor="start" x="1583" y="-158.3" font-family="monospace" font-size="14.00">  EX_Nothing</text>
</g>
<!-- ReceiveActorBeginOverlap__18&#45;&gt;ReceiveActorBeginOverlap__33 -->
<g id="edge15" class="edge">
<title>ReceiveActorBeginOverlap__18&#45;&gt;ReceiveActorBeginOverlap__33</title>
<path fill="none" stroke="black" d="M1633,-225.83C1633,-218 1633,-208.57 1633,-199.74"/>
<polygon fill="black" stroke="black" points="1636.5,-199.78 1633,-189.78 1629.5,-199.78 1636.5,-199.78"/>
</g>
<!-- ReceiveActorBeginOverlap__35 -->
<g id="node21" class="node">
<title>ReceiveActorBeginOverlap__35</title>
<polygon fill="#eeeeee" stroke="black" points="3388,-1.5 3388,-37.5 3520,-37.5 3520,-1.5 3388,-1.5"/>
<text text-anchor="start" x="3396" y="-15.8" font-family="monospace" font-size="14.00">EX_EndOfScript</text>
</g>
<!-- ReceiveBeginPlay -->
<g id="node22" class="node">
<title>ReceiveBeginPlay</title>
<polygon fill="#ff8888" stroke="black" points="3216.5,-399 3216.5,-435 3439.5,-435 3439.5,-399 3216.5,-399"/>
<text text-anchor="start" x="3224.5" y="-413.3" font-family="monospace" font-size="14.00">Function ReceiveBeginPlay</text>
</g>
<!-- ReceiveBeginPlay__0 -->
<g id="node23" class="node">
<title>ReceiveBeginPlay__0</title>
<polygon fill="#eeeeee" stroke="black" points="2824.5,-300.5 2824.5,-338.5 3831.5,-338.5 3831.5,-300.5 2824.5,-300.5"/>
<text text-anchor="start" x="2832.5" y="-323.3" font-family="monospace" font-size="14.00">EX_LocalFinalFunction export BP_GooCannon_GooPuddle_ImprovedSlow_C&#45;&gt;ExecuteUbergraph_BP_GooCannon_GooPuddle_ImprovedSlow</text>
<text text-anchor="start" x="2832.5" y="-308.3" font-family="monospace" font-size="14.00">  EX_IntConst 25</text>
</g>
<!-- ReceiveBeginPlay&#45;&gt;ReceiveBeginPlay__0 -->
<g id="edge16" class="edge">
<title>ReceiveBeginPlay&#45;&gt;ReceiveBeginPlay__0</title>
<path fill="none" stroke="black" d="M3328,-399.37C3328,-385.6 3328,-365.74 3328,-349.39"/>
<polygon fill="black" stroke="black" points="3331.5,-349.75 3328,-339.75 3324.5,-349.75 3331.5,-349.75"/>
</g>
<!-- ReceiveBeginPlay__0&#45;&gt;ExecuteUbergraph_BP_GooCannon_GooPuddle_ImprovedSlow__25 -->
<g id="edge17" class="edge">
<title>ReceiveBeginPlay__0:e&#45;&gt;ExecuteUbergraph_BP_GooCannon_GooPuddle_ImprovedSlow__25</title>
<path fill="none" stroke="red" d="M3833,-319.5C3857.91,-319.5 3832.05,-291.44 3808.49,-269.88"/>
<polygon fill="none" stroke="red" points="3810.93,-267.36 3801.15,-263.3 3806.26,-272.58 3810.93,-267.36"/>
</g>
<!-- ReceiveBeginPlay__15 -->
<g id="node24" class="node">
<title>ReceiveBeginPlay__15</title>
<polygon fill="#eeeeee" stroke="black" points="3270,-225.5 3270,-263.5 3386,-263.5 3386,-225.5 3270,-225.5"/>
<text text-anchor="start" x="3278" y="-248.3" font-family="monospace" font-size="14.00">EX_Return</text>
<text text-anchor="start" x="3278" y="-233.3" font-family="monospace" font-size="14.00">  EX_Nothing</text>
</g>
<!-- ReceiveBeginPlay__0&#45;&gt;ReceiveBeginPlay__15 -->
<g id="edge18" class="edge">
<title>ReceiveBeginPlay__0&#45;&gt;ReceiveBeginPlay__15</title>
<path fill="none" stroke="black" d="M3328,-300.83C3328,-293 3328,-283.57 3328,-274.74"/>
<polygon fill="black" stroke="black" points="3331.5,-274.78 3328,-264.78 3324.5,-274.78 3331.5,-274.78"/>
</g>
<!-- ReceiveBeginPlay__17 -->
<g id="node25" class="node">
<title>ReceiveBeginPlay__17</title>
<polygon fill="#eeeeee" stroke="black" points="3458,-399 3458,-435 3590,-435 3590,-399 3458,-399"/>
<text text-anchor="start" x="3466" y="-413.3" font-family="monospace" font-size="14.00">EX_EndOfScript</text>
</g>
</g>
</svg>
