<?xml version="1.0" encoding="UTF-8" standalone="no"?>
<!DOCTYPE svg PUBLIC "-//W3C//DTD SVG 1.1//EN"
 "http://www.w3.org/Graphics/SVG/1.1/DTD/svg11.dtd">
<!-- Generated by graphviz version 7.0.1 (0)
 -->
<!-- Pages: 1 -->
<svg width="3330pt" height="915pt"
 viewBox="0.00 0.00 3329.50 915.00" xmlns="http://www.w3.org/2000/svg" xmlns:xlink="http://www.w3.org/1999/xlink">
<g id="graph0" class="graph" transform="scale(1 1) rotate(0) translate(4 911)">
<polygon fill="white" stroke="none" points="-4,4 -4,-911 3325.5,-911 3325.5,4 -4,4"/>
<!-- WeaponDisplay_DualSMG_AmmoCount_C -->
<g id="node1" class="node">
<title>WeaponDisplay_DualSMG_AmmoCount_C</title>
<polygon fill="#88ff88" stroke="black" points="0,-703.5 0,-906.5 891,-906.5 891,-703.5 0,-703.5"/>
<text text-anchor="start" x="8" y="-891.3" font-family="monospace" font-size="14.00">ClassExport: WeaponDisplay_DualSMG_AmmoCount_C</text>
<text text-anchor="start" x="8" y="-876.3" font-family="monospace" font-size="14.00">  SuperStruct: import /Game/UI/WeaponDisplays/WeaponDisplay_Base_AmmoCount&#45;&gt;WeaponDisplay_Base_AmmoCount_C</text>
<text text-anchor="start" x="8" y="-861.3" font-family="monospace" font-size="14.00">  Properties:</text>
<text text-anchor="start" x="8" y="-846.3" font-family="monospace" font-size="14.00">    StructProperty UberGraphFrame</text>
<text text-anchor="start" x="8" y="-831.3" font-family="monospace" font-size="14.00">      CPF_Transient|CPF_DuplicateTransient</text>
<text text-anchor="start" x="8" y="-816.3" font-family="monospace" font-size="14.00">    ObjectProperty AnimatedStaticOverlay_WithScanlines_LightVersion</text>
<text text-anchor="start" x="8" y="-801.3" font-family="monospace" font-size="14.00">      CPF_BlueprintVisible|CPF_ExportObject|CPF_InstancedReference|CPF_RepSkip|CPF_PersistentInstance</text>
<text text-anchor="start" x="8" y="-786.3" font-family="monospace" font-size="14.00">    ObjectProperty DATA_AmmoClip</text>
<text text-anchor="start" x="8" y="-771.3" font-family="monospace" font-size="14.00">      CPF_BlueprintVisible|CPF_ExportObject|CPF_InstancedReference|CPF_RepSkip|CPF_PersistentInstance</text>
<text text-anchor="start" x="8" y="-756.3" font-family="monospace" font-size="14.00">    ObjectProperty DATA_AmmoTotal</text>
<text text-anchor="start" x="8" y="-741.3" font-family="monospace" font-size="14.00">      CPF_BlueprintVisible|CPF_ExportObject|CPF_InstancedReference|CPF_RepSkip|CPF_PersistentInstance</text>
<text text-anchor="start" x="8" y="-726.3" font-family="monospace" font-size="14.00">    ObjectProperty Image_88</text>
<text text-anchor="start" x="8" y="-711.3" font-family="monospace" font-size="14.00">      CPF_BlueprintVisible|CPF_ExportObject|CPF_InstancedReference|CPF_RepSkip|CPF_PersistentInstance</text>
</g>
<!-- ExecuteUbergraph_WeaponDisplay_DualSMG_AmmoCount -->
<g id="node2" class="node">
<title>ExecuteUbergraph_WeaponDisplay_DualSMG_AmmoCount</title>
<polygon fill="#ff8888" stroke="black" points="909,-733.5 909,-876.5 1396,-876.5 1396,-733.5 909,-733.5"/>
<text text-anchor="start" x="917" y="-861.3" font-family="monospace" font-size="14.00">Function ExecuteUbergraph_WeaponDisplay_DualSMG_AmmoCount</text>
<text text-anchor="start" x="917" y="-846.3" font-family="monospace" font-size="14.00">  IntProperty EntryPoint</text>
<text text-anchor="start" x="917" y="-831.3" font-family="monospace" font-size="14.00">    CPF_BlueprintVisible|CPF_BlueprintReadOnly|CPF_Parm</text>
<text text-anchor="start" x="917" y="-816.3" font-family="monospace" font-size="14.00">  IntProperty K2Node_Event_Value_1</text>
<text text-anchor="start" x="917" y="-801.3" font-family="monospace" font-size="14.00">  IntProperty CallFunc_Divide_IntInt_ReturnValue</text>
<text text-anchor="start" x="917" y="-786.3" font-family="monospace" font-size="14.00">  IntProperty K2Node_Event_Value</text>
<text text-anchor="start" x="917" y="-771.3" font-family="monospace" font-size="14.00">  TextProperty CallFunc_Conv_IntToText_ReturnValue</text>
<text text-anchor="start" x="917" y="-756.3" font-family="monospace" font-size="14.00">  IntProperty CallFunc_Divide_IntInt_ReturnValue_1</text>
<text text-anchor="start" x="917" y="-741.3" font-family="monospace" font-size="14.00">  TextProperty CallFunc_Conv_IntToText_ReturnValue_1</text>
</g>
<!-- ExecuteUbergraph_WeaponDisplay_DualSMG_AmmoCount__0 -->
<g id="node3" class="node">
<title>ExecuteUbergraph_WeaponDisplay_DualSMG_AmmoCount__0</title>
<polygon fill="#eeeeee" stroke="black" points="1016.5,-628.5 1016.5,-666.5 1288.5,-666.5 1288.5,-628.5 1016.5,-628.5"/>
<text text-anchor="start" x="1024.5" y="-651.3" font-family="monospace" font-size="14.00">EX_ComputedJump</text>
<text text-anchor="start" x="1024.5" y="-636.3" font-family="monospace" font-size="14.00">  EX_LocalVariable [EntryPoint]</text>
</g>
<!-- ExecuteUbergraph_WeaponDisplay_DualSMG_AmmoCount&#45;&gt;ExecuteUbergraph_WeaponDisplay_DualSMG_AmmoCount__0 -->
<g id="edge1" class="edge">
<title>ExecuteUbergraph_WeaponDisplay_DualSMG_AmmoCount&#45;&gt;ExecuteUbergraph_WeaponDisplay_DualSMG_AmmoCount__0</title>
<path fill="none" stroke="black" d="M1152.5,-733.53C1152.5,-713.81 1152.5,-693.45 1152.5,-677.61"/>
<polygon fill="black" stroke="black" points="1156,-677.97 1152.5,-667.97 1149,-677.97 1156,-677.97"/>
</g>
<!-- ExecuteUbergraph_WeaponDisplay_DualSMG_AmmoCount__10 -->
<g id="node4" class="node">
<title>ExecuteUbergraph_WeaponDisplay_DualSMG_AmmoCount__10</title>
<polygon fill="#eeeeee" stroke="black" points="2735.5,-433.5 2735.5,-516.5 3321.5,-516.5 3321.5,-433.5 2735.5,-433.5"/>
<text text-anchor="start" x="2743.5" y="-501.3" font-family="monospace" font-size="14.00">EX_Let</text>
<text text-anchor="start" x="2743.5" y="-486.3" font-family="monospace" font-size="14.00">  EX_LocalVariable [CallFunc_Divide_IntInt_ReturnValue]</text>
<text text-anchor="start" x="2743.5" y="-471.3" font-family="monospace" font-size="14.00">  EX_CallMath import /Script/Engine&#45;&gt;KismetMathLibrary&#45;&gt;Divide_IntInt</text>
<text text-anchor="start" x="2743.5" y="-456.3" font-family="monospace" font-size="14.00">    EX_LocalVariable [K2Node_Event_Value_1]</text>
<text text-anchor="start" x="2743.5" y="-441.3" font-family="monospace" font-size="14.00">    EX_IntConst 2</text>
</g>
<!-- ExecuteUbergraph_WeaponDisplay_DualSMG_AmmoCount__52 -->
<g id="node5" class="node">
<title>ExecuteUbergraph_WeaponDisplay_DualSMG_AmmoCount__52</title>
<polygon fill="#eeeeee" stroke="black" points="2672.5,-268.5 2672.5,-396.5 3266.5,-396.5 3266.5,-268.5 2672.5,-268.5"/>
<text text-anchor="start" x="2680.5" y="-381.3" font-family="monospace" font-size="14.00">EX_Let</text>
<text text-anchor="start" x="2680.5" y="-366.3" font-family="monospace" font-size="14.00">  EX_LocalVariable [CallFunc_Conv_IntToText_ReturnValue]</text>
<text text-anchor="start" x="2680.5" y="-351.3" font-family="monospace" font-size="14.00">  EX_CallMath import /Script/Engine&#45;&gt;KismetTextLibrary&#45;&gt;Conv_IntToText</text>
<text text-anchor="start" x="2680.5" y="-336.3" font-family="monospace" font-size="14.00">    EX_LocalVariable [CallFunc_Divide_IntInt_ReturnValue]</text>
<text text-anchor="start" x="2680.5" y="-321.3" font-family="monospace" font-size="14.00">    EX_False</text>
<text text-anchor="start" x="2680.5" y="-306.3" font-family="monospace" font-size="14.00">    EX_True</text>
<text text-anchor="start" x="2680.5" y="-291.3" font-family="monospace" font-size="14.00">    EX_IntConst 1</text>
<text text-anchor="start" x="2680.5" y="-276.3" font-family="monospace" font-size="14.00">    EX_IntConst 324</text>
</g>
<!-- ExecuteUbergraph_WeaponDisplay_DualSMG_AmmoCount__10&#45;&gt;ExecuteUbergraph_WeaponDisplay_DualSMG_AmmoCount__52 -->
<g id="edge2" class="edge">
<title>ExecuteUbergraph_WeaponDisplay_DualSMG_AmmoCount__10&#45;&gt;ExecuteUbergraph_WeaponDisplay_DualSMG_AmmoCount__52</title>
<path fill="none" stroke="black" d="M3011.59,-433.74C3008.03,-425.25 3004.17,-416.05 3000.27,-406.78"/>
<polygon fill="black" stroke="black" points="3003.56,-405.58 2996.46,-397.71 2997.11,-408.29 3003.56,-405.58"/>
</g>
<!-- ExecuteUbergraph_WeaponDisplay_DualSMG_AmmoCount__101 -->
<g id="node6" class="node">
<title>ExecuteUbergraph_WeaponDisplay_DualSMG_AmmoCount__101</title>
<polygon fill="#eeeeee" stroke="black" points="2640,-148.5 2640,-231.5 3135,-231.5 3135,-148.5 2640,-148.5"/>
<text text-anchor="start" x="2648" y="-216.3" font-family="monospace" font-size="14.00">EX_Context</text>
<text text-anchor="start" x="2648" y="-201.3" font-family="monospace" font-size="14.00">  EX_InstanceVariable [DATA_AmmoClip]</text>
<text text-anchor="start" x="2648" y="-186.3" font-family="monospace" font-size="14.00">  EX_VirtualFunction SetText</text>
<text text-anchor="start" x="2648" y="-171.3" font-family="monospace" font-size="14.00">    EX_LocalVariable [CallFunc_Conv_IntToText_ReturnValue]</text>
<text text-anchor="start" x="2648" y="-156.3" font-family="monospace" font-size="14.00">  RValue = []</text>
</g>
<!-- ExecuteUbergraph_WeaponDisplay_DualSMG_AmmoCount__52&#45;&gt;ExecuteUbergraph_WeaponDisplay_DualSMG_AmmoCount__101 -->
<g id="edge3" class="edge">
<title>ExecuteUbergraph_WeaponDisplay_DualSMG_AmmoCount__52&#45;&gt;ExecuteUbergraph_WeaponDisplay_DualSMG_AmmoCount__101</title>
<path fill="none" stroke="black" d="M2932.82,-268.65C2927.43,-259.41 2921.93,-250 2916.72,-241.07"/>
<polygon fill="black" stroke="black" points="2919.8,-239.4 2911.74,-232.52 2913.75,-242.93 2919.8,-239.4"/>
</g>
<!-- ExecuteUbergraph_WeaponDisplay_DualSMG_AmmoCount__146 -->
<g id="node7" class="node">
<title>ExecuteUbergraph_WeaponDisplay_DualSMG_AmmoCount__146</title>
<polygon fill="#eeeeee" stroke="black" points="2702,-75.5 2702,-111.5 2809,-111.5 2809,-75.5 2702,-75.5"/>
<text text-anchor="start" x="2710" y="-89.8" font-family="monospace" font-size="14.00">EX_Jump 287</text>
</g>
<!-- ExecuteUbergraph_WeaponDisplay_DualSMG_AmmoCount__101&#45;&gt;ExecuteUbergraph_WeaponDisplay_DualSMG_AmmoCount__146 -->
<g id="edge4" class="edge">
<title>ExecuteUbergraph_WeaponDisplay_DualSMG_AmmoCount__101&#45;&gt;ExecuteUbergraph_WeaponDisplay_DualSMG_AmmoCount__146</title>
<path fill="none" stroke="black" d="M2831.14,-148.65C2816.48,-138.15 2801.17,-127.19 2788.19,-117.9"/>
<polygon fill="black" stroke="black" points="2790.59,-115.32 2780.42,-112.34 2786.52,-121.01 2790.59,-115.32"/>
</g>
<!-- ExecuteUbergraph_WeaponDisplay_DualSMG_AmmoCount__287 -->
<g id="node11" class="node">
<title>ExecuteUbergraph_WeaponDisplay_DualSMG_AmmoCount__287</title>
<polygon fill="#eeeeee" stroke="black" points="2546.5,-0.5 2546.5,-38.5 2662.5,-38.5 2662.5,-0.5 2546.5,-0.5"/>
<text text-anchor="start" x="2554.5" y="-23.3" font-family="monospace" font-size="14.00">EX_Return</text>
<text text-anchor="start" x="2554.5" y="-8.3" font-family="monospace" font-size="14.00">  EX_Nothing</text>
</g>
<!-- ExecuteUbergraph_WeaponDisplay_DualSMG_AmmoCount__146&#45;&gt;ExecuteUbergraph_WeaponDisplay_DualSMG_AmmoCount__287 -->
<g id="edge5" class="edge">
<title>ExecuteUbergraph_WeaponDisplay_DualSMG_AmmoCount__146&#45;&gt;ExecuteUbergraph_WeaponDisplay_DualSMG_AmmoCount__287</title>
<path fill="none" stroke="black" d="M2720.1,-75.62C2699.85,-65.97 2674.19,-53.73 2652.19,-43.24"/>
<polygon fill="black" stroke="black" points="2653.95,-40.2 2643.42,-39.06 2650.94,-46.52 2653.95,-40.2"/>
</g>
<!-- ExecuteUbergraph_WeaponDisplay_DualSMG_AmmoCount__151 -->
<g id="node8" class="node">
<title>ExecuteUbergraph_WeaponDisplay_DualSMG_AmmoCount__151</title>
<polygon fill="#eeeeee" stroke="black" points="1887.5,-433.5 1887.5,-516.5 2473.5,-516.5 2473.5,-433.5 1887.5,-433.5"/>
<text text-anchor="start" x="1895.5" y="-501.3" font-family="monospace" font-size="14.00">EX_Let</text>
<text text-anchor="start" x="1895.5" y="-486.3" font-family="monospace" font-size="14.00">  EX_LocalVariable [CallFunc_Divide_IntInt_ReturnValue_1]</text>
<text text-anchor="start" x="1895.5" y="-471.3" font-family="monospace" font-size="14.00">  EX_CallMath import /Script/Engine&#45;&gt;KismetMathLibrary&#45;&gt;Divide_IntInt</text>
<text text-anchor="start" x="1895.5" y="-456.3" font-family="monospace" font-size="14.00">    EX_LocalVariable [K2Node_Event_Value]</text>
<text text-anchor="start" x="1895.5" y="-441.3" font-family="monospace" font-size="14.00">    EX_IntConst 2</text>
</g>
<!-- ExecuteUbergraph_WeaponDisplay_DualSMG_AmmoCount__193 -->
<g id="node9" class="node">
<title>ExecuteUbergraph_WeaponDisplay_DualSMG_AmmoCount__193</title>
<polygon fill="#eeeeee" stroke="black" points="2001.5,-268.5 2001.5,-396.5 2595.5,-396.5 2595.5,-268.5 2001.5,-268.5"/>
<text text-anchor="start" x="2009.5" y="-381.3" font-family="monospace" font-size="14.00">EX_Let</text>
<text text-anchor="start" x="2009.5" y="-366.3" font-family="monospace" font-size="14.00">  EX_LocalVariable [CallFunc_Conv_IntToText_ReturnValue_1]</text>
<text text-anchor="start" x="2009.5" y="-351.3" font-family="monospace" font-size="14.00">  EX_CallMath import /Script/Engine&#45;&gt;KismetTextLibrary&#45;&gt;Conv_IntToText</text>
<text text-anchor="start" x="2009.5" y="-336.3" font-family="monospace" font-size="14.00">    EX_LocalVariable [CallFunc_Divide_IntInt_ReturnValue_1]</text>
<text text-anchor="start" x="2009.5" y="-321.3" font-family="monospace" font-size="14.00">    EX_False</text>
<text text-anchor="start" x="2009.5" y="-306.3" font-family="monospace" font-size="14.00">    EX_True</text>
<text text-anchor="start" x="2009.5" y="-291.3" font-family="monospace" font-size="14.00">    EX_IntConst 1</text>
<text text-anchor="start" x="2009.5" y="-276.3" font-family="monospace" font-size="14.00">    EX_IntConst 324</text>
</g>
<!-- ExecuteUbergraph_WeaponDisplay_DualSMG_AmmoCount__151&#45;&gt;ExecuteUbergraph_WeaponDisplay_DualSMG_AmmoCount__193 -->
<g id="edge6" class="edge">
<title>ExecuteUbergraph_WeaponDisplay_DualSMG_AmmoCount__151&#45;&gt;ExecuteUbergraph_WeaponDisplay_DualSMG_AmmoCount__193</title>
<path fill="none" stroke="black" d="M2214.31,-433.74C2221.9,-424.71 2230.17,-414.86 2238.46,-404.98"/>
<polygon fill="black" stroke="black" points="2241.02,-407.38 2244.77,-397.47 2235.66,-402.88 2241.02,-407.38"/>
</g>
<!-- ExecuteUbergraph_WeaponDisplay_DualSMG_AmmoCount__242 -->
<g id="node10" class="node">
<title>ExecuteUbergraph_WeaponDisplay_DualSMG_AmmoCount__242</title>
<polygon fill="#eeeeee" stroke="black" points="2087.5,-148.5 2087.5,-231.5 2599.5,-231.5 2599.5,-148.5 2087.5,-148.5"/>
<text text-anchor="start" x="2095.5" y="-216.3" font-family="monospace" font-size="14.00">EX_Context</text>
<text text-anchor="start" x="2095.5" y="-201.3" font-family="monospace" font-size="14.00">  EX_InstanceVariable [DATA_AmmoTotal]</text>
<text text-anchor="start" x="2095.5" y="-186.3" font-family="monospace" font-size="14.00">  EX_VirtualFunction SetText</text>
<text text-anchor="start" x="2095.5" y="-171.3" font-family="monospace" font-size="14.00">    EX_LocalVariable [CallFunc_Conv_IntToText_ReturnValue_1]</text>
<text text-anchor="start" x="2095.5" y="-156.3" font-family="monospace" font-size="14.00">  RValue = []</text>
</g>
<!-- ExecuteUbergraph_WeaponDisplay_DualSMG_AmmoCount__193&#45;&gt;ExecuteUbergraph_WeaponDisplay_DualSMG_AmmoCount__242 -->
<g id="edge7" class="edge">
<title>ExecuteUbergraph_WeaponDisplay_DualSMG_AmmoCount__193&#45;&gt;ExecuteUbergraph_WeaponDisplay_DualSMG_AmmoCount__242</title>
<path fill="none" stroke="black" d="M2318.63,-268.65C2321.49,-259.71 2324.41,-250.61 2327.19,-241.93"/>
<polygon fill="black" stroke="black" points="2330.44,-243.25 2330.16,-232.66 2323.77,-241.11 2330.44,-243.25"/>
</g>
<!-- ExecuteUbergraph_WeaponDisplay_DualSMG_AmmoCount__242&#45;&gt;ExecuteUbergraph_WeaponDisplay_DualSMG_AmmoCount__287 -->
<g id="edge8" class="edge">
<title>ExecuteUbergraph_WeaponDisplay_DualSMG_AmmoCount__242&#45;&gt;ExecuteUbergraph_WeaponDisplay_DualSMG_AmmoCount__287</title>
<path fill="none" stroke="black" d="M2406.02,-148.64C2456.28,-116.19 2525.21,-71.69 2567.2,-44.58"/>
<polygon fill="black" stroke="black" points="2568.99,-47.59 2575.49,-39.23 2565.19,-41.71 2568.99,-47.59"/>
</g>
<!-- ExecuteUbergraph_WeaponDisplay_DualSMG_AmmoCount__289 -->
<g id="node12" class="node">
<title>ExecuteUbergraph_WeaponDisplay_DualSMG_AmmoCount__289</title>
<polygon fill="#eeeeee" stroke="black" points="2827.5,-75.5 2827.5,-111.5 2959.5,-111.5 2959.5,-75.5 2827.5,-75.5"/>
<text text-anchor="start" x="2835.5" y="-89.8" font-family="monospace" font-size="14.00">EX_EndOfScript</text>
</g>
<!-- SetTotalCount -->
<g id="node13" class="node">
<title>SetTotalCount</title>
<polygon fill="#ff8888" stroke="black" points="1414.5,-778.5 1414.5,-831.5 1884.5,-831.5 1884.5,-778.5 1414.5,-778.5"/>
<text text-anchor="start" x="1422.5" y="-816.3" font-family="monospace" font-size="14.00">Function SetTotalCount</text>
<text text-anchor="start" x="1422.5" y="-801.3" font-family="monospace" font-size="14.00">  IntProperty Value</text>
<text text-anchor="start" x="1422.5" y="-786.3" font-family="monospace" font-size="14.00">    CPF_BlueprintVisible|CPF_BlueprintReadOnly|CPF_Parm</text>
</g>
<!-- SetTotalCount__0 -->
<g id="node14" class="node">
<title>SetTotalCount__0</title>
<polygon fill="#eeeeee" stroke="black" points="1439,-628.5 1439,-666.5 1860,-666.5 1860,-628.5 1439,-628.5"/>
<text text-anchor="start" x="1447" y="-651.3" font-family="monospace" font-size="14.00">EX_LetValueOnPersistentFrame [K2Node_Event_Value]</text>
<text text-anchor="start" x="1447" y="-636.3" font-family="monospace" font-size="14.00">  EX_LocalVariable [Value]</text>
</g>
<!-- SetTotalCount&#45;&gt;SetTotalCount__0 -->
<g id="edge9" class="edge">
<title>SetTotalCount&#45;&gt;SetTotalCount__0</title>
<path fill="none" stroke="black" d="M1649.5,-778.67C1649.5,-750.96 1649.5,-706.62 1649.5,-677.52"/>
<polygon fill="black" stroke="black" points="1653,-677.6 1649.5,-667.6 1646,-677.6 1653,-677.6"/>
</g>
<!-- SetTotalCount__18 -->
<g id="node15" class="node">
<title>SetTotalCount__18</title>
<polygon fill="#eeeeee" stroke="black" points="1179,-553.5 1179,-591.5 2120,-591.5 2120,-553.5 1179,-553.5"/>
<text text-anchor="start" x="1187" y="-576.3" font-family="monospace" font-size="14.00">EX_LocalFinalFunction export WeaponDisplay_DualSMG_AmmoCount_C&#45;&gt;ExecuteUbergraph_WeaponDisplay_DualSMG_AmmoCount</text>
<text text-anchor="start" x="1187" y="-561.3" font-family="monospace" font-size="14.00">  EX_IntConst 151</text>
</g>
<!-- SetTotalCount__0&#45;&gt;SetTotalCount__18 -->
<g id="edge10" class="edge">
<title>SetTotalCount__0&#45;&gt;SetTotalCount__18</title>
<path fill="none" stroke="black" d="M1649.5,-628.83C1649.5,-621 1649.5,-611.57 1649.5,-602.74"/>
<polygon fill="black" stroke="black" points="1653,-602.78 1649.5,-592.78 1646,-602.78 1653,-602.78"/>
</g>
<!-- SetTotalCount__18&#45;&gt;ExecuteUbergraph_WeaponDisplay_DualSMG_AmmoCount__151 -->
<g id="edge11" class="edge">
<title>SetTotalCount__18:e&#45;&gt;ExecuteUbergraph_WeaponDisplay_DualSMG_AmmoCount__151</title>
<path fill="none" stroke="red" d="M2121.5,-572.5C2130.71,-572.5 2124.34,-561.21 2128.5,-553 2133.11,-543.91 2138.61,-534.62 2144.28,-525.79"/>
<polygon fill="none" stroke="red" points="2147.05,-527.94 2149.63,-517.66 2141.2,-524.09 2147.05,-527.94"/>
</g>
<!-- SetTotalCount__33 -->
<g id="node16" class="node">
<title>SetTotalCount__33</title>
<polygon fill="#eeeeee" stroke="black" points="1591.5,-456 1591.5,-494 1707.5,-494 1707.5,-456 1591.5,-456"/>
<text text-anchor="start" x="1599.5" y="-478.8" font-family="monospace" font-size="14.00">EX_Return</text>
<text text-anchor="start" x="1599.5" y="-463.8" font-family="monospace" font-size="14.00">  EX_Nothing</text>
</g>
<!-- SetTotalCount__18&#45;&gt;SetTotalCount__33 -->
<g id="edge12" class="edge">
<title>SetTotalCount__18&#45;&gt;SetTotalCount__33</title>
<path fill="none" stroke="black" d="M1649.5,-553.54C1649.5,-539.93 1649.5,-520.95 1649.5,-505.18"/>
<polygon fill="black" stroke="black" points="1653,-505.4 1649.5,-495.4 1646,-505.4 1653,-505.4"/>
</g>
<!-- SetTotalCount__35 -->
<g id="node17" class="node">
<title>SetTotalCount__35</title>
<polygon fill="#eeeeee" stroke="black" points="2680.5,-1.5 2680.5,-37.5 2812.5,-37.5 2812.5,-1.5 2680.5,-1.5"/>
<text text-anchor="start" x="2688.5" y="-15.8" font-family="monospace" font-size="14.00">EX_EndOfScript</text>
</g>
<!-- SetClipCount -->
<g id="node18" class="node">
<title>SetClipCount</title>
<polygon fill="#ff8888" stroke="black" points="2373.5,-778.5 2373.5,-831.5 2843.5,-831.5 2843.5,-778.5 2373.5,-778.5"/>
<text text-anchor="start" x="2381.5" y="-816.3" font-family="monospace" font-size="14.00">Function SetClipCount</text>
<text text-anchor="start" x="2381.5" y="-801.3" font-family="monospace" font-size="14.00">  IntProperty Value</text>
<text text-anchor="start" x="2381.5" y="-786.3" font-family="monospace" font-size="14.00">    CPF_BlueprintVisible|CPF_BlueprintReadOnly|CPF_Parm</text>
</g>
<!-- SetClipCount__0 -->
<g id="node19" class="node">
<title>SetClipCount__0</title>
<polygon fill="#eeeeee" stroke="black" points="2390,-628.5 2390,-666.5 2827,-666.5 2827,-628.5 2390,-628.5"/>
<text text-anchor="start" x="2398" y="-651.3" font-family="monospace" font-size="14.00">EX_LetValueOnPersistentFrame [K2Node_Event_Value_1]</text>
<text text-anchor="start" x="2398" y="-636.3" font-family="monospace" font-size="14.00">  EX_LocalVariable [Value]</text>
</g>
<!-- SetClipCount&#45;&gt;SetClipCount__0 -->
<g id="edge13" class="edge">
<title>SetClipCount&#45;&gt;SetClipCount__0</title>
<path fill="none" stroke="black" d="M2608.5,-778.67C2608.5,-750.96 2608.5,-706.62 2608.5,-677.52"/>
<polygon fill="black" stroke="black" points="2612,-677.6 2608.5,-667.6 2605,-677.6 2612,-677.6"/>
</g>
<!-- SetClipCount__18 -->
<g id="node20" class="node">
<title>SetClipCount__18</title>
<polygon fill="#eeeeee" stroke="black" points="2138,-553.5 2138,-591.5 3079,-591.5 3079,-553.5 2138,-553.5"/>
<text text-anchor="start" x="2146" y="-576.3" font-family="monospace" font-size="14.00">EX_LocalFinalFunction export WeaponDisplay_DualSMG_AmmoCount_C&#45;&gt;ExecuteUbergraph_WeaponDisplay_DualSMG_AmmoCount</text>
<text text-anchor="start" x="2146" y="-561.3" font-family="monospace" font-size="14.00">  EX_IntConst 10</text>
</g>
<!-- SetClipCount__0&#45;&gt;SetClipCount__18 -->
<g id="edge14" class="edge">
<title>SetClipCount__0&#45;&gt;SetClipCount__18</title>
<path fill="none" stroke="black" d="M2608.5,-628.83C2608.5,-621 2608.5,-611.57 2608.5,-602.74"/>
<polygon fill="black" stroke="black" points="2612,-602.78 2608.5,-592.78 2605,-602.78 2612,-602.78"/>
</g>
<!-- SetClipCount__18&#45;&gt;ExecuteUbergraph_WeaponDisplay_DualSMG_AmmoCount__10 -->
<g id="edge15" class="edge">
<title>SetClipCount__18:e&#45;&gt;ExecuteUbergraph_WeaponDisplay_DualSMG_AmmoCount__10</title>
<path fill="none" stroke="red" d="M3080.5,-572.5C3104.57,-572.5 3092.17,-548.95 3073.45,-525.12"/>
<polygon fill="none" stroke="red" points="3076.31,-523.08 3067.28,-517.54 3070.88,-527.5 3076.31,-523.08"/>
</g>
<!-- SetClipCount__33 -->
<g id="node21" class="node">
<title>SetClipCount__33</title>
<polygon fill="#eeeeee" stroke="black" points="2550.5,-456 2550.5,-494 2666.5,-494 2666.5,-456 2550.5,-456"/>
<text text-anchor="start" x="2558.5" y="-478.8" font-family="monospace" font-size="14.00">EX_Return</text>
<text text-anchor="start" x="2558.5" y="-463.8" font-family="monospace" font-size="14.00">  EX_Nothing</text>
</g>
<!-- SetClipCount__18&#45;&gt;SetClipCount__33 -->
<g id="edge16" class="edge">
<title>SetClipCount__18&#45;&gt;SetClipCount__33</title>
<path fill="none" stroke="black" d="M2608.5,-553.54C2608.5,-539.93 2608.5,-520.95 2608.5,-505.18"/>
<polygon fill="black" stroke="black" points="2612,-505.4 2608.5,-495.4 2605,-505.4 2612,-505.4"/>
</g>
<!-- SetClipCount__35 -->
<g id="node22" class="node">
<title>SetClipCount__35</title>
<polygon fill="#eeeeee" stroke="black" points="2861.5,-787 2861.5,-823 2993.5,-823 2993.5,-787 2861.5,-787"/>
<text text-anchor="start" x="2869.5" y="-801.3" font-family="monospace" font-size="14.00">EX_EndOfScript</text>
</g>
</g>
</svg>
