<?xml version="1.0" encoding="UTF-8" standalone="no"?>
<!DOCTYPE svg PUBLIC "-//W3C//DTD SVG 1.1//EN"
 "http://www.w3.org/Graphics/SVG/1.1/DTD/svg11.dtd">
<!-- Generated by graphviz version 7.0.1 (0)
 -->
<!-- Pages: 1 -->
<svg width="2701pt" height="3225pt"
 viewBox="0.00 0.00 2700.50 3225.00" xmlns="http://www.w3.org/2000/svg" xmlns:xlink="http://www.w3.org/1999/xlink">
<g id="graph0" class="graph" transform="scale(1 1) rotate(0) translate(4 3221)">
<polygon fill="white" stroke="none" points="-4,4 -4,-3221 2696.5,-3221 2696.5,4 -4,4"/>
<!-- PLS_EliminationStar_C -->
<g id="node1" class="node">
<title>PLS_EliminationStar_C</title>
<polygon fill="#88ff88" stroke="black" points="0,-2908.5 0,-3111.5 520,-3111.5 520,-2908.5 0,-2908.5"/>
<text text-anchor="start" x="8" y="-3096.3" font-family="monospace" font-size="14.00">ClassExport: PLS_EliminationStar_C</text>
<text text-anchor="start" x="8" y="-3081.3" font-family="monospace" font-size="14.00">  SuperStruct: import /Game/Landscape/PLS_Base&#45;&gt;PLS_Base_C</text>
<text text-anchor="start" x="8" y="-3066.3" font-family="monospace" font-size="14.00">  Properties:</text>
<text text-anchor="start" x="8" y="-3051.3" font-family="monospace" font-size="14.00">    StructProperty UberGraphFrame</text>
<text text-anchor="start" x="8" y="-3036.3" font-family="monospace" font-size="14.00">      CPF_Transient|CPF_DuplicateTransient</text>
<text text-anchor="start" x="8" y="-3021.3" font-family="monospace" font-size="14.00">    ArrayProperty RandomRooms</text>
<text text-anchor="start" x="8" y="-3006.3" font-family="monospace" font-size="14.00">      CPF_Edit|CPF_BlueprintVisible</text>
<text text-anchor="start" x="8" y="-2991.3" font-family="monospace" font-size="14.00">    BoolProperty RandomRoomsAreUnique</text>
<text text-anchor="start" x="8" y="-2976.3" font-family="monospace" font-size="14.00">      CPF_Edit|CPF_BlueprintVisible</text>
<text text-anchor="start" x="8" y="-2961.3" font-family="monospace" font-size="14.00">    StructProperty RoomGroupInstance</text>
<text text-anchor="start" x="8" y="-2946.3" font-family="monospace" font-size="14.00">      CPF_Edit|CPF_BlueprintVisible|CPF_DisableEditOnInstance</text>
<text text-anchor="start" x="8" y="-2931.3" font-family="monospace" font-size="14.00">    ObjectProperty RoomGenerators</text>
<text text-anchor="start" x="8" y="-2916.3" font-family="monospace" font-size="14.00">      CPF_Edit|CPF_BlueprintVisible|CPF_DisableEditOnInstance</text>
</g>
<!-- ExecuteUbergraph_PLS_EliminationStar -->
<g id="node2" class="node">
<title>ExecuteUbergraph_PLS_EliminationStar</title>
<polygon fill="#ff8888" stroke="black" points="538.5,-2803.5 538.5,-3216.5 1025.5,-3216.5 1025.5,-2803.5 538.5,-2803.5"/>
<text text-anchor="start" x="546.5" y="-3201.3" font-family="monospace" font-size="14.00">Function ExecuteUbergraph_PLS_EliminationStar</text>
<text text-anchor="start" x="546.5" y="-3186.3" font-family="monospace" font-size="14.00">  IntProperty EntryPoint</text>
<text text-anchor="start" x="546.5" y="-3171.3" font-family="monospace" font-size="14.00">    CPF_BlueprintVisible|CPF_BlueprintReadOnly|CPF_Parm</text>
<text text-anchor="start" x="546.5" y="-3156.3" font-family="monospace" font-size="14.00">  ObjectProperty CallFunc_SelectRoom_ReturnValue</text>
<text text-anchor="start" x="546.5" y="-3141.3" font-family="monospace" font-size="14.00">  StructProperty CallFunc_AddRoom_outCenter</text>
<text text-anchor="start" x="546.5" y="-3126.3" font-family="monospace" font-size="14.00">  StructProperty CallFunc_AddRoom_outRoom</text>
<text text-anchor="start" x="546.5" y="-3111.3" font-family="monospace" font-size="14.00">  IntProperty CallFunc_AddRoom_ReturnValue</text>
<text text-anchor="start" x="546.5" y="-3096.3" font-family="monospace" font-size="14.00">  StructProperty CallFunc_Add_VectorVector_ReturnValue</text>
<text text-anchor="start" x="546.5" y="-3081.3" font-family="monospace" font-size="14.00">  StructProperty CallFunc_Add_VectorVector_ReturnValue_1</text>
<text text-anchor="start" x="546.5" y="-3066.3" font-family="monospace" font-size="14.00">  StructProperty CallFunc_AddRoom_outCenter_1</text>
<text text-anchor="start" x="546.5" y="-3051.3" font-family="monospace" font-size="14.00">  StructProperty CallFunc_AddRoom_outRoom_1</text>
<text text-anchor="start" x="546.5" y="-3036.3" font-family="monospace" font-size="14.00">  IntProperty CallFunc_AddRoom_ReturnValue_1</text>
<text text-anchor="start" x="546.5" y="-3021.3" font-family="monospace" font-size="14.00">  StructProperty CallFunc_Add_VectorVector_ReturnValue_2</text>
<text text-anchor="start" x="546.5" y="-3006.3" font-family="monospace" font-size="14.00">  IntProperty CallFunc_ConnectRoomIds_ReturnValue</text>
<text text-anchor="start" x="546.5" y="-2991.3" font-family="monospace" font-size="14.00">  ObjectProperty CallFunc_SelectRoom_ReturnValue_1</text>
<text text-anchor="start" x="546.5" y="-2976.3" font-family="monospace" font-size="14.00">  StructProperty CallFunc_CreateGroupInstance_ReturnValue</text>
<text text-anchor="start" x="546.5" y="-2961.3" font-family="monospace" font-size="14.00">  StructProperty CallFunc_AddRoom_outCenter_2</text>
<text text-anchor="start" x="546.5" y="-2946.3" font-family="monospace" font-size="14.00">  StructProperty CallFunc_AddRoom_outRoom_2</text>
<text text-anchor="start" x="546.5" y="-2931.3" font-family="monospace" font-size="14.00">  IntProperty CallFunc_AddRoom_ReturnValue_2</text>
<text text-anchor="start" x="546.5" y="-2916.3" font-family="monospace" font-size="14.00">  IntProperty CallFunc_ConnectRoomIds_ReturnValue_1</text>
<text text-anchor="start" x="546.5" y="-2901.3" font-family="monospace" font-size="14.00">  IntProperty CallFunc_ConnectRoomIds_ReturnValue_2</text>
<text text-anchor="start" x="546.5" y="-2886.3" font-family="monospace" font-size="14.00">  ObjectProperty CallFunc_SelectRoom_ReturnValue_2</text>
<text text-anchor="start" x="546.5" y="-2871.3" font-family="monospace" font-size="14.00">  StructProperty CallFunc_AddRoom_outCenter_3</text>
<text text-anchor="start" x="546.5" y="-2856.3" font-family="monospace" font-size="14.00">  StructProperty CallFunc_AddRoom_outRoom_3</text>
<text text-anchor="start" x="546.5" y="-2841.3" font-family="monospace" font-size="14.00">  IntProperty CallFunc_AddRoom_ReturnValue_3</text>
<text text-anchor="start" x="546.5" y="-2826.3" font-family="monospace" font-size="14.00">  IntProperty CallFunc_ConnectRoomIds_ReturnValue_3</text>
<text text-anchor="start" x="546.5" y="-2811.3" font-family="monospace" font-size="14.00">  IntProperty CallFunc_ConnectRoomIds_ReturnValue_4</text>
</g>
<!-- ExecuteUbergraph_PLS_EliminationStar__0 -->
<g id="node3" class="node">
<title>ExecuteUbergraph_PLS_EliminationStar__0</title>
<polygon fill="#eeeeee" stroke="black" points="646,-2721 646,-2759 918,-2759 918,-2721 646,-2721"/>
<text text-anchor="start" x="654" y="-2743.8" font-family="monospace" font-size="14.00">EX_ComputedJump</text>
<text text-anchor="start" x="654" y="-2728.8" font-family="monospace" font-size="14.00">  EX_LocalVariable [EntryPoint]</text>
</g>
<!-- ExecuteUbergraph_PLS_EliminationStar&#45;&gt;ExecuteUbergraph_PLS_EliminationStar__0 -->
<g id="edge1" class="edge">
<title>ExecuteUbergraph_PLS_EliminationStar&#45;&gt;ExecuteUbergraph_PLS_EliminationStar__0</title>
<path fill="none" stroke="black" d="M782,-2803.83C782,-2791.2 782,-2779.76 782,-2770.2"/>
<polygon fill="black" stroke="black" points="785.5,-2770.31 782,-2760.31 778.5,-2770.31 785.5,-2770.31"/>
</g>
<!-- ExecuteUbergraph_PLS_EliminationStar__10 -->
<g id="node4" class="node">
<title>ExecuteUbergraph_PLS_EliminationStar__10</title>
<polygon fill="#eeeeee" stroke="black" points="1321.5,-2113.5 1321.5,-2271.5 2080.5,-2271.5 2080.5,-2113.5 1321.5,-2113.5"/>
<text text-anchor="start" x="1329.5" y="-2256.3" font-family="monospace" font-size="14.00">EX_Let</text>
<text text-anchor="start" x="1329.5" y="-2241.3" font-family="monospace" font-size="14.00">  EX_LocalVariable [CallFunc_AddRoom_ReturnValue]</text>
<text text-anchor="start" x="1329.5" y="-2226.3" font-family="monospace" font-size="14.00">  EX_FinalFunction import /Script/FSD&#45;&gt;ProceduralSetup&#45;&gt;AddRoom</text>
<text text-anchor="start" x="1329.5" y="-2211.3" font-family="monospace" font-size="14.00">    EX_VectorConst 0,0,0</text>
<text text-anchor="start" x="1329.5" y="-2196.3" font-family="monospace" font-size="14.00">    EX_False</text>
<text text-anchor="start" x="1329.5" y="-2181.3" font-family="monospace" font-size="14.00">    EX_ObjectConst import /Game/Maps/Rooms/RoomGenerators/RMA_Star0_Start&#45;&gt;RMA_Star0_Start</text>
<text text-anchor="start" x="1329.5" y="-2166.3" font-family="monospace" font-size="14.00">    EX_False</text>
<text text-anchor="start" x="1329.5" y="-2151.3" font-family="monospace" font-size="14.00">    EX_LocalVariable [CallFunc_AddRoom_outCenter]</text>
<text text-anchor="start" x="1329.5" y="-2136.3" font-family="monospace" font-size="14.00">    EX_LocalVariable [CallFunc_AddRoom_outRoom]</text>
<text text-anchor="start" x="1329.5" y="-2121.3" font-family="monospace" font-size="14.00">    EX_FloatConst 1</text>
</g>
<!-- ExecuteUbergraph_PLS_EliminationStar__85 -->
<g id="node5" class="node">
<title>ExecuteUbergraph_PLS_EliminationStar__85</title>
<polygon fill="#eeeeee" stroke="black" points="1395.5,-1993.5 1395.5,-2076.5 2006.5,-2076.5 2006.5,-1993.5 1395.5,-1993.5"/>
<text text-anchor="start" x="1403.5" y="-2061.3" font-family="monospace" font-size="14.00">EX_Let</text>
<text text-anchor="start" x="1403.5" y="-2046.3" font-family="monospace" font-size="14.00">  EX_LocalVariable [CallFunc_Add_VectorVector_ReturnValue_2]</text>
<text text-anchor="start" x="1403.5" y="-2031.3" font-family="monospace" font-size="14.00">  EX_CallMath import /Script/Engine&#45;&gt;KismetMathLibrary&#45;&gt;Add_VectorVector</text>
<text text-anchor="start" x="1403.5" y="-2016.3" font-family="monospace" font-size="14.00">    EX_LocalVariable [CallFunc_AddRoom_outCenter]</text>
<text text-anchor="start" x="1403.5" y="-2001.3" font-family="monospace" font-size="14.00">    EX_VectorConst 5000,0,&#45;1400</text>
</g>
<!-- ExecuteUbergraph_PLS_EliminationStar__10&#45;&gt;ExecuteUbergraph_PLS_EliminationStar__85 -->
<g id="edge2" class="edge">
<title>ExecuteUbergraph_PLS_EliminationStar__10&#45;&gt;ExecuteUbergraph_PLS_EliminationStar__85</title>
<path fill="none" stroke="black" d="M1701,-2113.75C1701,-2104.98 1701,-2096.2 1701,-2087.88"/>
<polygon fill="black" stroke="black" points="1704.5,-2087.96 1701,-2077.96 1697.5,-2087.96 1704.5,-2087.96"/>
</g>
<!-- ExecuteUbergraph_PLS_EliminationStar__135 -->
<g id="node6" class="node">
<title>ExecuteUbergraph_PLS_EliminationStar__135</title>
<polygon fill="#eeeeee" stroke="black" points="1470,-1903.5 1470,-1956.5 1932,-1956.5 1932,-1903.5 1470,-1903.5"/>
<text text-anchor="start" x="1478" y="-1941.3" font-family="monospace" font-size="14.00">EX_LetObj</text>
<text text-anchor="start" x="1478" y="-1926.3" font-family="monospace" font-size="14.00">  EX_LocalVariable [CallFunc_SelectRoom_ReturnValue_1]</text>
<text text-anchor="start" x="1478" y="-1911.3" font-family="monospace" font-size="14.00">  EX_LocalVirtualFunction SelectRoom</text>
</g>
<!-- ExecuteUbergraph_PLS_EliminationStar__85&#45;&gt;ExecuteUbergraph_PLS_EliminationStar__135 -->
<g id="edge3" class="edge">
<title>ExecuteUbergraph_PLS_EliminationStar__85&#45;&gt;ExecuteUbergraph_PLS_EliminationStar__135</title>
<path fill="none" stroke="black" d="M1701,-1993.59C1701,-1985.08 1701,-1976.16 1701,-1967.79"/>
<polygon fill="black" stroke="black" points="1704.5,-1967.96 1701,-1957.96 1697.5,-1967.96 1704.5,-1967.96"/>
</g>
<!-- ExecuteUbergraph_PLS_EliminationStar__159 -->
<g id="node7" class="node">
<title>ExecuteUbergraph_PLS_EliminationStar__159</title>
<polygon fill="#eeeeee" stroke="black" points="1433,-1708.5 1433,-1866.5 1969,-1866.5 1969,-1708.5 1433,-1708.5"/>
<text text-anchor="start" x="1441" y="-1851.3" font-family="monospace" font-size="14.00">EX_Let</text>
<text text-anchor="start" x="1441" y="-1836.3" font-family="monospace" font-size="14.00">  EX_LocalVariable [CallFunc_AddRoom_ReturnValue_2]</text>
<text text-anchor="start" x="1441" y="-1821.3" font-family="monospace" font-size="14.00">  EX_FinalFunction import /Script/FSD&#45;&gt;ProceduralSetup&#45;&gt;AddRoom</text>
<text text-anchor="start" x="1441" y="-1806.3" font-family="monospace" font-size="14.00">    EX_LocalVariable [CallFunc_Add_VectorVector_ReturnValue_2]</text>
<text text-anchor="start" x="1441" y="-1791.3" font-family="monospace" font-size="14.00">    EX_True</text>
<text text-anchor="start" x="1441" y="-1776.3" font-family="monospace" font-size="14.00">    EX_LocalVariable [CallFunc_SelectRoom_ReturnValue_1]</text>
<text text-anchor="start" x="1441" y="-1761.3" font-family="monospace" font-size="14.00">    EX_True</text>
<text text-anchor="start" x="1441" y="-1746.3" font-family="monospace" font-size="14.00">    EX_LocalVariable [CallFunc_AddRoom_outCenter_2]</text>
<text text-anchor="start" x="1441" y="-1731.3" font-family="monospace" font-size="14.00">    EX_LocalVariable [CallFunc_AddRoom_outRoom_2]</text>
<text text-anchor="start" x="1441" y="-1716.3" font-family="monospace" font-size="14.00">    EX_FloatConst 1</text>
</g>
<!-- ExecuteUbergraph_PLS_EliminationStar__135&#45;&gt;ExecuteUbergraph_PLS_EliminationStar__159 -->
<g id="edge4" class="edge">
<title>ExecuteUbergraph_PLS_EliminationStar__135&#45;&gt;ExecuteUbergraph_PLS_EliminationStar__159</title>
<path fill="none" stroke="black" d="M1701,-1903.56C1701,-1895.97 1701,-1887.18 1701,-1877.91"/>
<polygon fill="black" stroke="black" points="1704.5,-1877.93 1701,-1867.93 1697.5,-1877.93 1704.5,-1877.93"/>
</g>
<!-- ExecuteUbergraph_PLS_EliminationStar__230 -->
<g id="node8" class="node">
<title>ExecuteUbergraph_PLS_EliminationStar__230</title>
<polygon fill="#eeeeee" stroke="black" points="1404,-1558.5 1404,-1671.5 1998,-1671.5 1998,-1558.5 1404,-1558.5"/>
<text text-anchor="start" x="1412" y="-1656.3" font-family="monospace" font-size="14.00">EX_Let</text>
<text text-anchor="start" x="1412" y="-1641.3" font-family="monospace" font-size="14.00">  EX_LocalVariable [CallFunc_ConnectRoomIds_ReturnValue_2]</text>
<text text-anchor="start" x="1412" y="-1626.3" font-family="monospace" font-size="14.00">  EX_FinalFunction import /Script/FSD&#45;&gt;ProceduralSetup&#45;&gt;ConnectRoomIds</text>
<text text-anchor="start" x="1412" y="-1611.3" font-family="monospace" font-size="14.00">    EX_LocalVariable [CallFunc_AddRoom_ReturnValue]</text>
<text text-anchor="start" x="1412" y="-1596.3" font-family="monospace" font-size="14.00">    EX_LocalVariable [CallFunc_AddRoom_ReturnValue_2]</text>
<text text-anchor="start" x="1412" y="-1581.3" font-family="monospace" font-size="14.00">    EX_True</text>
<text text-anchor="start" x="1412" y="-1566.3" font-family="monospace" font-size="14.00">    EX_NoObject</text>
</g>
<!-- ExecuteUbergraph_PLS_EliminationStar__159&#45;&gt;ExecuteUbergraph_PLS_EliminationStar__230 -->
<g id="edge5" class="edge">
<title>ExecuteUbergraph_PLS_EliminationStar__159&#45;&gt;ExecuteUbergraph_PLS_EliminationStar__230</title>
<path fill="none" stroke="black" d="M1701,-1708.73C1701,-1700.04 1701,-1691.24 1701,-1682.7"/>
<polygon fill="black" stroke="black" points="1704.5,-1682.77 1701,-1672.77 1697.5,-1682.77 1704.5,-1682.77"/>
</g>
<!-- ExecuteUbergraph_PLS_EliminationStar__278 -->
<g id="node9" class="node">
<title>ExecuteUbergraph_PLS_EliminationStar__278</title>
<polygon fill="#eeeeee" stroke="black" points="1395.5,-1438.5 1395.5,-1521.5 2006.5,-1521.5 2006.5,-1438.5 1395.5,-1438.5"/>
<text text-anchor="start" x="1403.5" y="-1506.3" font-family="monospace" font-size="14.00">EX_Let</text>
<text text-anchor="start" x="1403.5" y="-1491.3" font-family="monospace" font-size="14.00">  EX_LocalVariable [CallFunc_Add_VectorVector_ReturnValue_1]</text>
<text text-anchor="start" x="1403.5" y="-1476.3" font-family="monospace" font-size="14.00">  EX_CallMath import /Script/Engine&#45;&gt;KismetMathLibrary&#45;&gt;Add_VectorVector</text>
<text text-anchor="start" x="1403.5" y="-1461.3" font-family="monospace" font-size="14.00">    EX_LocalVariable [CallFunc_AddRoom_outCenter]</text>
<text text-anchor="start" x="1403.5" y="-1446.3" font-family="monospace" font-size="14.00">    EX_VectorConst &#45;5000,0,&#45;1500</text>
</g>
<!-- ExecuteUbergraph_PLS_EliminationStar__230&#45;&gt;ExecuteUbergraph_PLS_EliminationStar__278 -->
<g id="edge6" class="edge">
<title>ExecuteUbergraph_PLS_EliminationStar__230&#45;&gt;ExecuteUbergraph_PLS_EliminationStar__278</title>
<path fill="none" stroke="black" d="M1701,-1558.75C1701,-1550.12 1701,-1541.22 1701,-1532.67"/>
<polygon fill="black" stroke="black" points="1704.5,-1532.79 1701,-1522.79 1697.5,-1532.79 1704.5,-1532.79"/>
</g>
<!-- ExecuteUbergraph_PLS_EliminationStar__328 -->
<g id="node10" class="node">
<title>ExecuteUbergraph_PLS_EliminationStar__328</title>
<polygon fill="#eeeeee" stroke="black" points="1470,-1348.5 1470,-1401.5 1932,-1401.5 1932,-1348.5 1470,-1348.5"/>
<text text-anchor="start" x="1478" y="-1386.3" font-family="monospace" font-size="14.00">EX_LetObj</text>
<text text-anchor="start" x="1478" y="-1371.3" font-family="monospace" font-size="14.00">  EX_LocalVariable [CallFunc_SelectRoom_ReturnValue_2]</text>
<text text-anchor="start" x="1478" y="-1356.3" font-family="monospace" font-size="14.00">  EX_LocalVirtualFunction SelectRoom</text>
</g>
<!-- ExecuteUbergraph_PLS_EliminationStar__278&#45;&gt;ExecuteUbergraph_PLS_EliminationStar__328 -->
<g id="edge7" class="edge">
<title>ExecuteUbergraph_PLS_EliminationStar__278&#45;&gt;ExecuteUbergraph_PLS_EliminationStar__328</title>
<path fill="none" stroke="black" d="M1701,-1438.59C1701,-1430.08 1701,-1421.16 1701,-1412.79"/>
<polygon fill="black" stroke="black" points="1704.5,-1412.96 1701,-1402.96 1697.5,-1412.96 1704.5,-1412.96"/>
</g>
<!-- ExecuteUbergraph_PLS_EliminationStar__352 -->
<g id="node11" class="node">
<title>ExecuteUbergraph_PLS_EliminationStar__352</title>
<polygon fill="#eeeeee" stroke="black" points="1433,-1153.5 1433,-1311.5 1969,-1311.5 1969,-1153.5 1433,-1153.5"/>
<text text-anchor="start" x="1441" y="-1296.3" font-family="monospace" font-size="14.00">EX_Let</text>
<text text-anchor="start" x="1441" y="-1281.3" font-family="monospace" font-size="14.00">  EX_LocalVariable [CallFunc_AddRoom_ReturnValue_3]</text>
<text text-anchor="start" x="1441" y="-1266.3" font-family="monospace" font-size="14.00">  EX_FinalFunction import /Script/FSD&#45;&gt;ProceduralSetup&#45;&gt;AddRoom</text>
<text text-anchor="start" x="1441" y="-1251.3" font-family="monospace" font-size="14.00">    EX_LocalVariable [CallFunc_Add_VectorVector_ReturnValue_1]</text>
<text text-anchor="start" x="1441" y="-1236.3" font-family="monospace" font-size="14.00">    EX_True</text>
<text text-anchor="start" x="1441" y="-1221.3" font-family="monospace" font-size="14.00">    EX_LocalVariable [CallFunc_SelectRoom_ReturnValue_2]</text>
<text text-anchor="start" x="1441" y="-1206.3" font-family="monospace" font-size="14.00">    EX_True</text>
<text text-anchor="start" x="1441" y="-1191.3" font-family="monospace" font-size="14.00">    EX_LocalVariable [CallFunc_AddRoom_outCenter_3]</text>
<text text-anchor="start" x="1441" y="-1176.3" font-family="monospace" font-size="14.00">    EX_LocalVariable [CallFunc_AddRoom_outRoom_3]</text>
<text text-anchor="start" x="1441" y="-1161.3" font-family="monospace" font-size="14.00">    EX_FloatConst 1</text>
</g>
<!-- ExecuteUbergraph_PLS_EliminationStar__328&#45;&gt;ExecuteUbergraph_PLS_EliminationStar__352 -->
<g id="edge8" class="edge">
<title>ExecuteUbergraph_PLS_EliminationStar__328&#45;&gt;ExecuteUbergraph_PLS_EliminationStar__352</title>
<path fill="none" stroke="black" d="M1701,-1348.56C1701,-1340.97 1701,-1332.18 1701,-1322.91"/>
<polygon fill="black" stroke="black" points="1704.5,-1322.93 1701,-1312.93 1697.5,-1322.93 1704.5,-1322.93"/>
</g>
<!-- ExecuteUbergraph_PLS_EliminationStar__423 -->
<g id="node12" class="node">
<title>ExecuteUbergraph_PLS_EliminationStar__423</title>
<polygon fill="#eeeeee" stroke="black" points="1404,-1003.5 1404,-1116.5 1998,-1116.5 1998,-1003.5 1404,-1003.5"/>
<text text-anchor="start" x="1412" y="-1101.3" font-family="monospace" font-size="14.00">EX_Let</text>
<text text-anchor="start" x="1412" y="-1086.3" font-family="monospace" font-size="14.00">  EX_LocalVariable [CallFunc_ConnectRoomIds_ReturnValue_3]</text>
<text text-anchor="start" x="1412" y="-1071.3" font-family="monospace" font-size="14.00">  EX_FinalFunction import /Script/FSD&#45;&gt;ProceduralSetup&#45;&gt;ConnectRoomIds</text>
<text text-anchor="start" x="1412" y="-1056.3" font-family="monospace" font-size="14.00">    EX_LocalVariable [CallFunc_AddRoom_ReturnValue]</text>
<text text-anchor="start" x="1412" y="-1041.3" font-family="monospace" font-size="14.00">    EX_LocalVariable [CallFunc_AddRoom_ReturnValue_3]</text>
<text text-anchor="start" x="1412" y="-1026.3" font-family="monospace" font-size="14.00">    EX_True</text>
<text text-anchor="start" x="1412" y="-1011.3" font-family="monospace" font-size="14.00">    EX_NoObject</text>
</g>
<!-- ExecuteUbergraph_PLS_EliminationStar__352&#45;&gt;ExecuteUbergraph_PLS_EliminationStar__423 -->
<g id="edge9" class="edge">
<title>ExecuteUbergraph_PLS_EliminationStar__352&#45;&gt;ExecuteUbergraph_PLS_EliminationStar__423</title>
<path fill="none" stroke="black" d="M1701,-1153.73C1701,-1145.04 1701,-1136.24 1701,-1127.7"/>
<polygon fill="black" stroke="black" points="1704.5,-1127.77 1701,-1117.77 1697.5,-1127.77 1704.5,-1127.77"/>
</g>
<!-- ExecuteUbergraph_PLS_EliminationStar__471 -->
<g id="node13" class="node">
<title>ExecuteUbergraph_PLS_EliminationStar__471</title>
<polygon fill="#eeeeee" stroke="black" points="1478,-913.5 1478,-966.5 1924,-966.5 1924,-913.5 1478,-913.5"/>
<text text-anchor="start" x="1486" y="-951.3" font-family="monospace" font-size="14.00">EX_LetObj</text>
<text text-anchor="start" x="1486" y="-936.3" font-family="monospace" font-size="14.00">  EX_LocalVariable [CallFunc_SelectRoom_ReturnValue]</text>
<text text-anchor="start" x="1486" y="-921.3" font-family="monospace" font-size="14.00">  EX_LocalVirtualFunction SelectRoom</text>
</g>
<!-- ExecuteUbergraph_PLS_EliminationStar__423&#45;&gt;ExecuteUbergraph_PLS_EliminationStar__471 -->
<g id="edge10" class="edge">
<title>ExecuteUbergraph_PLS_EliminationStar__423&#45;&gt;ExecuteUbergraph_PLS_EliminationStar__471</title>
<path fill="none" stroke="black" d="M1701,-1003.8C1701,-995.01 1701,-986.12 1701,-977.89"/>
<polygon fill="black" stroke="black" points="1704.5,-977.92 1701,-967.92 1697.5,-977.92 1704.5,-977.92"/>
</g>
<!-- ExecuteUbergraph_PLS_EliminationStar__495 -->
<g id="node14" class="node">
<title>ExecuteUbergraph_PLS_EliminationStar__495</title>
<polygon fill="#eeeeee" stroke="black" points="1395.5,-793.5 1395.5,-876.5 2006.5,-876.5 2006.5,-793.5 1395.5,-793.5"/>
<text text-anchor="start" x="1403.5" y="-861.3" font-family="monospace" font-size="14.00">EX_Let</text>
<text text-anchor="start" x="1403.5" y="-846.3" font-family="monospace" font-size="14.00">  EX_LocalVariable [CallFunc_Add_VectorVector_ReturnValue]</text>
<text text-anchor="start" x="1403.5" y="-831.3" font-family="monospace" font-size="14.00">  EX_CallMath import /Script/Engine&#45;&gt;KismetMathLibrary&#45;&gt;Add_VectorVector</text>
<text text-anchor="start" x="1403.5" y="-816.3" font-family="monospace" font-size="14.00">    EX_LocalVariable [CallFunc_AddRoom_outCenter]</text>
<text text-anchor="start" x="1403.5" y="-801.3" font-family="monospace" font-size="14.00">    EX_VectorConst 0,5000,&#45;1200</text>
</g>
<!-- ExecuteUbergraph_PLS_EliminationStar__471&#45;&gt;ExecuteUbergraph_PLS_EliminationStar__495 -->
<g id="edge11" class="edge">
<title>ExecuteUbergraph_PLS_EliminationStar__471&#45;&gt;ExecuteUbergraph_PLS_EliminationStar__495</title>
<path fill="none" stroke="black" d="M1701,-913.54C1701,-905.66 1701,-896.69 1701,-887.7"/>
<polygon fill="black" stroke="black" points="1704.5,-887.91 1701,-877.91 1697.5,-887.91 1704.5,-887.91"/>
</g>
<!-- ExecuteUbergraph_PLS_EliminationStar__545 -->
<g id="node15" class="node">
<title>ExecuteUbergraph_PLS_EliminationStar__545</title>
<polygon fill="#eeeeee" stroke="black" points="1433,-598.5 1433,-756.5 1969,-756.5 1969,-598.5 1433,-598.5"/>
<text text-anchor="start" x="1441" y="-741.3" font-family="monospace" font-size="14.00">EX_Let</text>
<text text-anchor="start" x="1441" y="-726.3" font-family="monospace" font-size="14.00">  EX_LocalVariable [CallFunc_AddRoom_ReturnValue_1]</text>
<text text-anchor="start" x="1441" y="-711.3" font-family="monospace" font-size="14.00">  EX_FinalFunction import /Script/FSD&#45;&gt;ProceduralSetup&#45;&gt;AddRoom</text>
<text text-anchor="start" x="1441" y="-696.3" font-family="monospace" font-size="14.00">    EX_LocalVariable [CallFunc_Add_VectorVector_ReturnValue]</text>
<text text-anchor="start" x="1441" y="-681.3" font-family="monospace" font-size="14.00">    EX_True</text>
<text text-anchor="start" x="1441" y="-666.3" font-family="monospace" font-size="14.00">    EX_LocalVariable [CallFunc_SelectRoom_ReturnValue]</text>
<text text-anchor="start" x="1441" y="-651.3" font-family="monospace" font-size="14.00">    EX_True</text>
<text text-anchor="start" x="1441" y="-636.3" font-family="monospace" font-size="14.00">    EX_LocalVariable [CallFunc_AddRoom_outCenter_1]</text>
<text text-anchor="start" x="1441" y="-621.3" font-family="monospace" font-size="14.00">    EX_LocalVariable [CallFunc_AddRoom_outRoom_1]</text>
<text text-anchor="start" x="1441" y="-606.3" font-family="monospace" font-size="14.00">    EX_FloatConst 1</text>
</g>
<!-- ExecuteUbergraph_PLS_EliminationStar__495&#45;&gt;ExecuteUbergraph_PLS_EliminationStar__545 -->
<g id="edge12" class="edge">
<title>ExecuteUbergraph_PLS_EliminationStar__495&#45;&gt;ExecuteUbergraph_PLS_EliminationStar__545</title>
<path fill="none" stroke="black" d="M1701,-793.55C1701,-785.51 1701,-776.78 1701,-767.84"/>
<polygon fill="black" stroke="black" points="1704.5,-767.95 1701,-757.95 1697.5,-767.95 1704.5,-767.95"/>
</g>
<!-- ExecuteUbergraph_PLS_EliminationStar__616 -->
<g id="node16" class="node">
<title>ExecuteUbergraph_PLS_EliminationStar__616</title>
<polygon fill="#eeeeee" stroke="black" points="1404,-448.5 1404,-561.5 1998,-561.5 1998,-448.5 1404,-448.5"/>
<text text-anchor="start" x="1412" y="-546.3" font-family="monospace" font-size="14.00">EX_Let</text>
<text text-anchor="start" x="1412" y="-531.3" font-family="monospace" font-size="14.00">  EX_LocalVariable [CallFunc_ConnectRoomIds_ReturnValue]</text>
<text text-anchor="start" x="1412" y="-516.3" font-family="monospace" font-size="14.00">  EX_FinalFunction import /Script/FSD&#45;&gt;ProceduralSetup&#45;&gt;ConnectRoomIds</text>
<text text-anchor="start" x="1412" y="-501.3" font-family="monospace" font-size="14.00">    EX_LocalVariable [CallFunc_AddRoom_ReturnValue]</text>
<text text-anchor="start" x="1412" y="-486.3" font-family="monospace" font-size="14.00">    EX_LocalVariable [CallFunc_AddRoom_ReturnValue_1]</text>
<text text-anchor="start" x="1412" y="-471.3" font-family="monospace" font-size="14.00">    EX_True</text>
<text text-anchor="start" x="1412" y="-456.3" font-family="monospace" font-size="14.00">    EX_NoObject</text>
</g>
<!-- ExecuteUbergraph_PLS_EliminationStar__545&#45;&gt;ExecuteUbergraph_PLS_EliminationStar__616 -->
<g id="edge13" class="edge">
<title>ExecuteUbergraph_PLS_EliminationStar__545&#45;&gt;ExecuteUbergraph_PLS_EliminationStar__616</title>
<path fill="none" stroke="black" d="M1701,-598.73C1701,-590.04 1701,-581.24 1701,-572.7"/>
<polygon fill="black" stroke="black" points="1704.5,-572.77 1701,-562.77 1697.5,-572.77 1704.5,-572.77"/>
</g>
<!-- ExecuteUbergraph_PLS_EliminationStar__664 -->
<g id="node17" class="node">
<title>ExecuteUbergraph_PLS_EliminationStar__664</title>
<polygon fill="#eeeeee" stroke="black" points="1404,-298.5 1404,-411.5 1998,-411.5 1998,-298.5 1404,-298.5"/>
<text text-anchor="start" x="1412" y="-396.3" font-family="monospace" font-size="14.00">EX_Let</text>
<text text-anchor="start" x="1412" y="-381.3" font-family="monospace" font-size="14.00">  EX_LocalVariable [CallFunc_ConnectRoomIds_ReturnValue_1]</text>
<text text-anchor="start" x="1412" y="-366.3" font-family="monospace" font-size="14.00">  EX_FinalFunction import /Script/FSD&#45;&gt;ProceduralSetup&#45;&gt;ConnectRoomIds</text>
<text text-anchor="start" x="1412" y="-351.3" font-family="monospace" font-size="14.00">    EX_LocalVariable [CallFunc_AddRoom_ReturnValue_2]</text>
<text text-anchor="start" x="1412" y="-336.3" font-family="monospace" font-size="14.00">    EX_LocalVariable [CallFunc_AddRoom_ReturnValue_1]</text>
<text text-anchor="start" x="1412" y="-321.3" font-family="monospace" font-size="14.00">    EX_True</text>
<text text-anchor="start" x="1412" y="-306.3" font-family="monospace" font-size="14.00">    EX_NoObject</text>
</g>
<!-- ExecuteUbergraph_PLS_EliminationStar__616&#45;&gt;ExecuteUbergraph_PLS_EliminationStar__664 -->
<g id="edge14" class="edge">
<title>ExecuteUbergraph_PLS_EliminationStar__616&#45;&gt;ExecuteUbergraph_PLS_EliminationStar__664</title>
<path fill="none" stroke="black" d="M1701,-448.89C1701,-440.32 1701,-431.38 1701,-422.59"/>
<polygon fill="black" stroke="black" points="1704.5,-422.67 1701,-412.67 1697.5,-422.67 1704.5,-422.67"/>
</g>
<!-- ExecuteUbergraph_PLS_EliminationStar__712 -->
<g id="node18" class="node">
<title>ExecuteUbergraph_PLS_EliminationStar__712</title>
<polygon fill="#eeeeee" stroke="black" points="1404,-148.5 1404,-261.5 1998,-261.5 1998,-148.5 1404,-148.5"/>
<text text-anchor="start" x="1412" y="-246.3" font-family="monospace" font-size="14.00">EX_Let</text>
<text text-anchor="start" x="1412" y="-231.3" font-family="monospace" font-size="14.00">  EX_LocalVariable [CallFunc_ConnectRoomIds_ReturnValue_4]</text>
<text text-anchor="start" x="1412" y="-216.3" font-family="monospace" font-size="14.00">  EX_FinalFunction import /Script/FSD&#45;&gt;ProceduralSetup&#45;&gt;ConnectRoomIds</text>
<text text-anchor="start" x="1412" y="-201.3" font-family="monospace" font-size="14.00">    EX_LocalVariable [CallFunc_AddRoom_ReturnValue_1]</text>
<text text-anchor="start" x="1412" y="-186.3" font-family="monospace" font-size="14.00">    EX_LocalVariable [CallFunc_AddRoom_ReturnValue_3]</text>
<text text-anchor="start" x="1412" y="-171.3" font-family="monospace" font-size="14.00">    EX_True</text>
<text text-anchor="start" x="1412" y="-156.3" font-family="monospace" font-size="14.00">    EX_NoObject</text>
</g>
<!-- ExecuteUbergraph_PLS_EliminationStar__664&#45;&gt;ExecuteUbergraph_PLS_EliminationStar__712 -->
<g id="edge15" class="edge">
<title>ExecuteUbergraph_PLS_EliminationStar__664&#45;&gt;ExecuteUbergraph_PLS_EliminationStar__712</title>
<path fill="none" stroke="black" d="M1701,-298.89C1701,-290.32 1701,-281.38 1701,-272.59"/>
<polygon fill="black" stroke="black" points="1704.5,-272.67 1701,-262.67 1697.5,-272.67 1704.5,-272.67"/>
</g>
<!-- ExecuteUbergraph_PLS_EliminationStar__760 -->
<g id="node19" class="node">
<title>ExecuteUbergraph_PLS_EliminationStar__760</title>
<polygon fill="#eeeeee" stroke="black" points="1647.5,-75.5 1647.5,-111.5 1754.5,-111.5 1754.5,-75.5 1647.5,-75.5"/>
<text text-anchor="start" x="1655.5" y="-89.8" font-family="monospace" font-size="14.00">EX_Jump 847</text>
</g>
<!-- ExecuteUbergraph_PLS_EliminationStar__712&#45;&gt;ExecuteUbergraph_PLS_EliminationStar__760 -->
<g id="edge16" class="edge">
<title>ExecuteUbergraph_PLS_EliminationStar__712&#45;&gt;ExecuteUbergraph_PLS_EliminationStar__760</title>
<path fill="none" stroke="black" d="M1701,-148.61C1701,-139.59 1701,-130.6 1701,-122.6"/>
<polygon fill="black" stroke="black" points="1704.5,-122.88 1701,-112.88 1697.5,-122.88 1704.5,-122.88"/>
</g>
<!-- ExecuteUbergraph_PLS_EliminationStar__847 -->
<g id="node23" class="node">
<title>ExecuteUbergraph_PLS_EliminationStar__847</title>
<polygon fill="#eeeeee" stroke="black" points="1643,-0.5 1643,-38.5 1759,-38.5 1759,-0.5 1643,-0.5"/>
<text text-anchor="start" x="1651" y="-23.3" font-family="monospace" font-size="14.00">EX_Return</text>
<text text-anchor="start" x="1651" y="-8.3" font-family="monospace" font-size="14.00">  EX_Nothing</text>
</g>
<!-- ExecuteUbergraph_PLS_EliminationStar__760&#45;&gt;ExecuteUbergraph_PLS_EliminationStar__847 -->
<g id="edge17" class="edge">
<title>ExecuteUbergraph_PLS_EliminationStar__760&#45;&gt;ExecuteUbergraph_PLS_EliminationStar__847</title>
<path fill="none" stroke="black" d="M1701,-75.8C1701,-68.09 1701,-58.7 1701,-49.86"/>
<polygon fill="black" stroke="black" points="1704.5,-49.88 1701,-39.88 1697.5,-49.88 1704.5,-49.88"/>
</g>
<!-- ExecuteUbergraph_PLS_EliminationStar__765 -->
<g id="node20" class="node">
<title>ExecuteUbergraph_PLS_EliminationStar__765</title>
<polygon fill="#eeeeee" stroke="black" points="1362.5,-2541 1362.5,-2639 2039.5,-2639 2039.5,-2541 1362.5,-2541"/>
<text text-anchor="start" x="1370.5" y="-2623.8" font-family="monospace" font-size="14.00">EX_Let</text>
<text text-anchor="start" x="1370.5" y="-2608.8" font-family="monospace" font-size="14.00">  EX_LocalVariable [CallFunc_CreateGroupInstance_ReturnValue]</text>
<text text-anchor="start" x="1370.5" y="-2593.8" font-family="monospace" font-size="14.00">  EX_Context</text>
<text text-anchor="start" x="1370.5" y="-2578.8" font-family="monospace" font-size="14.00">    EX_InstanceVariable [RoomGenerators]</text>
<text text-anchor="start" x="1370.5" y="-2563.8" font-family="monospace" font-size="14.00">    EX_FinalFunction import /Script/FSD&#45;&gt;RoomGeneratorGroup&#45;&gt;CreateGroupInstance</text>
<text text-anchor="start" x="1370.5" y="-2548.8" font-family="monospace" font-size="14.00">    RValue = [CallFunc_CreateGroupInstance_ReturnValue]</text>
</g>
<!-- ExecuteUbergraph_PLS_EliminationStar__815 -->
<g id="node21" class="node">
<title>ExecuteUbergraph_PLS_EliminationStar__815</title>
<polygon fill="#eeeeee" stroke="black" points="1441,-2406 1441,-2459 1961,-2459 1961,-2406 1441,-2406"/>
<text text-anchor="start" x="1449" y="-2443.8" font-family="monospace" font-size="14.00">EX_Let</text>
<text text-anchor="start" x="1449" y="-2428.8" font-family="monospace" font-size="14.00">  EX_InstanceVariable [RoomGroupInstance]</text>
<text text-anchor="start" x="1449" y="-2413.8" font-family="monospace" font-size="14.00">  EX_LocalVariable [CallFunc_CreateGroupInstance_ReturnValue]</text>
</g>
<!-- ExecuteUbergraph_PLS_EliminationStar__765&#45;&gt;ExecuteUbergraph_PLS_EliminationStar__815 -->
<g id="edge18" class="edge">
<title>ExecuteUbergraph_PLS_EliminationStar__765&#45;&gt;ExecuteUbergraph_PLS_EliminationStar__815</title>
<path fill="none" stroke="black" d="M1701,-2541.08C1701,-2518.29 1701,-2491.48 1701,-2470.33"/>
<polygon fill="black" stroke="black" points="1704.5,-2470.42 1701,-2460.42 1697.5,-2470.42 1704.5,-2470.42"/>
</g>
<!-- ExecuteUbergraph_PLS_EliminationStar__842 -->
<g id="node22" class="node">
<title>ExecuteUbergraph_PLS_EliminationStar__842</title>
<polygon fill="#eeeeee" stroke="black" points="1651.5,-2317 1651.5,-2353 1750.5,-2353 1750.5,-2317 1651.5,-2317"/>
<text text-anchor="start" x="1659.5" y="-2331.3" font-family="monospace" font-size="14.00">EX_Jump 10</text>
</g>
<!-- ExecuteUbergraph_PLS_EliminationStar__815&#45;&gt;ExecuteUbergraph_PLS_EliminationStar__842 -->
<g id="edge19" class="edge">
<title>ExecuteUbergraph_PLS_EliminationStar__815&#45;&gt;ExecuteUbergraph_PLS_EliminationStar__842</title>
<path fill="none" stroke="black" d="M1701,-2406.16C1701,-2393.21 1701,-2377.42 1701,-2364.11"/>
<polygon fill="black" stroke="black" points="1704.5,-2364.23 1701,-2354.23 1697.5,-2364.23 1704.5,-2364.23"/>
</g>
<!-- ExecuteUbergraph_PLS_EliminationStar__842&#45;&gt;ExecuteUbergraph_PLS_EliminationStar__10 -->
<g id="edge20" class="edge">
<title>ExecuteUbergraph_PLS_EliminationStar__842&#45;&gt;ExecuteUbergraph_PLS_EliminationStar__10</title>
<path fill="none" stroke="black" d="M1701,-2317.05C1701,-2307.82 1701,-2295.6 1701,-2282.43"/>
<polygon fill="black" stroke="black" points="1704.5,-2282.71 1701,-2272.71 1697.5,-2282.71 1704.5,-2282.71"/>
</g>
<!-- ExecuteUbergraph_PLS_EliminationStar__849 -->
<g id="node24" class="node">
<title>ExecuteUbergraph_PLS_EliminationStar__849</title>
<polygon fill="#eeeeee" stroke="black" points="2099,-2174.5 2099,-2210.5 2231,-2210.5 2231,-2174.5 2099,-2174.5"/>
<text text-anchor="start" x="2107" y="-2188.8" font-family="monospace" font-size="14.00">EX_EndOfScript</text>
</g>
<!-- CreateCaveGraph -->
<g id="node25" class="node">
<title>CreateCaveGraph</title>
<polygon fill="#ff8888" stroke="black" points="1200.5,-2992 1200.5,-3028 1415.5,-3028 1415.5,-2992 1200.5,-2992"/>
<text text-anchor="start" x="1208.5" y="-3006.3" font-family="monospace" font-size="14.00">Function CreateCaveGraph</text>
</g>
<!-- CreateCaveGraph__0 -->
<g id="node26" class="node">
<title>CreateCaveGraph__0</title>
<polygon fill="#eeeeee" stroke="black" points="936.5,-2721 936.5,-2759 1679.5,-2759 1679.5,-2721 936.5,-2721"/>
<text text-anchor="start" x="944.5" y="-2743.8" font-family="monospace" font-size="14.00">EX_LocalFinalFunction export PLS_EliminationStar_C&#45;&gt;ExecuteUbergraph_PLS_EliminationStar</text>
<text text-anchor="start" x="944.5" y="-2728.8" font-family="monospace" font-size="14.00">  EX_IntConst 765</text>
</g>
<!-- CreateCaveGraph&#45;&gt;CreateCaveGraph__0 -->
<g id="edge21" class="edge">
<title>CreateCaveGraph&#45;&gt;CreateCaveGraph__0</title>
<path fill="none" stroke="black" d="M1308,-2992.24C1308,-2947.72 1308,-2826.11 1308,-2770.03"/>
<polygon fill="black" stroke="black" points="1311.5,-2770.32 1308,-2760.32 1304.5,-2770.32 1311.5,-2770.32"/>
</g>
<!-- CreateCaveGraph__0&#45;&gt;ExecuteUbergraph_PLS_EliminationStar__765 -->
<g id="edge22" class="edge">
<title>CreateCaveGraph__0:e&#45;&gt;ExecuteUbergraph_PLS_EliminationStar__765</title>
<path fill="none" stroke="red" d="M1681,-2740C1719.01,-2740 1720.25,-2691.77 1714.25,-2650.19"/>
<polygon fill="none" stroke="red" points="1717.72,-2649.77 1712.68,-2640.46 1710.81,-2650.89 1717.72,-2649.77"/>
</g>
<!-- CreateCaveGraph__15 -->
<g id="node27" class="node">
<title>CreateCaveGraph__15</title>
<polygon fill="#eeeeee" stroke="black" points="1228,-2571 1228,-2609 1344,-2609 1344,-2571 1228,-2571"/>
<text text-anchor="start" x="1236" y="-2593.8" font-family="monospace" font-size="14.00">EX_Return</text>
<text text-anchor="start" x="1236" y="-2578.8" font-family="monospace" font-size="14.00">  EX_Nothing</text>
</g>
<!-- CreateCaveGraph__0&#45;&gt;CreateCaveGraph__15 -->
<g id="edge23" class="edge">
<title>CreateCaveGraph__0&#45;&gt;CreateCaveGraph__15</title>
<path fill="none" stroke="black" d="M1305.35,-2721.15C1301.61,-2696.04 1294.77,-2649.99 1290.3,-2619.95"/>
<polygon fill="black" stroke="black" points="1293.82,-2619.79 1288.89,-2610.41 1286.89,-2620.82 1293.82,-2619.79"/>
</g>
<!-- CreateCaveGraph__17 -->
<g id="node28" class="node">
<title>CreateCaveGraph__17</title>
<polygon fill="#eeeeee" stroke="black" points="2025,-2017 2025,-2053 2157,-2053 2157,-2017 2025,-2017"/>
<text text-anchor="start" x="2033" y="-2031.3" font-family="monospace" font-size="14.00">EX_EndOfScript</text>
</g>
<!-- SelectRoom -->
<g id="node29" class="node">
<title>SelectRoom</title>
<polygon fill="#ff8888" stroke="black" points="2123.5,-2968.5 2123.5,-3051.5 2626.5,-3051.5 2626.5,-2968.5 2123.5,-2968.5"/>
<text text-anchor="start" x="2131.5" y="-3036.3" font-family="monospace" font-size="14.00">Function SelectRoom</text>
<text text-anchor="start" x="2131.5" y="-3021.3" font-family="monospace" font-size="14.00">  ObjectProperty ReturnValue</text>
<text text-anchor="start" x="2131.5" y="-3006.3" font-family="monospace" font-size="14.00">    CPF_Parm|CPF_OutParm|CPF_ReturnParm</text>
<text text-anchor="start" x="2131.5" y="-2991.3" font-family="monospace" font-size="14.00">  ObjectProperty CallFunc_GetMissionDNA_ReturnValue</text>
<text text-anchor="start" x="2131.5" y="-2976.3" font-family="monospace" font-size="14.00">  ObjectProperty CallFunc_GetRandomRoomWithTags_ReturnValue</text>
</g>
<!-- SelectRoom__0 -->
<g id="node30" class="node">
<title>SelectRoom__0</title>
<polygon fill="#eeeeee" stroke="black" points="2082,-2713.5 2082,-2766.5 2668,-2766.5 2668,-2713.5 2082,-2713.5"/>
<text text-anchor="start" x="2090" y="-2751.3" font-family="monospace" font-size="14.00">EX_LetObj</text>
<text text-anchor="start" x="2090" y="-2736.3" font-family="monospace" font-size="14.00">  EX_LocalVariable [CallFunc_GetMissionDNA_ReturnValue]</text>
<text text-anchor="start" x="2090" y="-2721.3" font-family="monospace" font-size="14.00">  EX_FinalFunction import /Script/FSD&#45;&gt;ProceduralSetup&#45;&gt;GetMissionDNA</text>
</g>
<!-- SelectRoom&#45;&gt;SelectRoom__0 -->
<g id="edge24" class="edge">
<title>SelectRoom&#45;&gt;SelectRoom__0</title>
<path fill="none" stroke="black" d="M2375,-2968.59C2375,-2916.74 2375,-2827.55 2375,-2777.61"/>
<polygon fill="black" stroke="black" points="2378.5,-2777.91 2375,-2767.91 2371.5,-2777.91 2378.5,-2777.91"/>
</g>
<!-- SelectRoom__20 -->
<g id="node31" class="node">
<title>SelectRoom__20</title>
<polygon fill="#eeeeee" stroke="black" points="2057.5,-2503.5 2057.5,-2676.5 2692.5,-2676.5 2692.5,-2503.5 2057.5,-2503.5"/>
<text text-anchor="start" x="2065.5" y="-2661.3" font-family="monospace" font-size="14.00">EX_LetObj</text>
<text text-anchor="start" x="2065.5" y="-2646.3" font-family="monospace" font-size="14.00">  EX_LocalVariable [CallFunc_GetRandomRoomWithTags_ReturnValue]</text>
<text text-anchor="start" x="2065.5" y="-2631.3" font-family="monospace" font-size="14.00">  EX_CallMath import /Script/FSD&#45;&gt;RoomGeneratorGroup&#45;&gt;GetRandomRoomWithTags</text>
<text text-anchor="start" x="2065.5" y="-2616.3" font-family="monospace" font-size="14.00">    EX_InstanceVariable [RoomGroupInstance]</text>
<text text-anchor="start" x="2065.5" y="-2601.3" font-family="monospace" font-size="14.00">    EX_ArrayGetByRef</text>
<text text-anchor="start" x="2065.5" y="-2586.3" font-family="monospace" font-size="14.00">      EX_Context</text>
<text text-anchor="start" x="2065.5" y="-2571.3" font-family="monospace" font-size="14.00">        EX_LocalVariable [CallFunc_GetMissionDNA_ReturnValue]</text>
<text text-anchor="start" x="2065.5" y="-2556.3" font-family="monospace" font-size="14.00">        EX_InstanceVariable [RoomQueries]</text>
<text text-anchor="start" x="2065.5" y="-2541.3" font-family="monospace" font-size="14.00">        RValue = [RoomQueries]</text>
<text text-anchor="start" x="2065.5" y="-2526.3" font-family="monospace" font-size="14.00">      EX_IntConst 0</text>
<text text-anchor="start" x="2065.5" y="-2511.3" font-family="monospace" font-size="14.00">    EX_InstanceVariable [RandomStream]</text>
</g>
<!-- SelectRoom__0&#45;&gt;SelectRoom__20 -->
<g id="edge25" class="edge">
<title>SelectRoom__0&#45;&gt;SelectRoom__20</title>
<path fill="none" stroke="black" d="M2375,-2713.56C2375,-2705.89 2375,-2696.99 2375,-2687.54"/>
<polygon fill="black" stroke="black" points="2378.5,-2687.75 2375,-2677.75 2371.5,-2687.75 2378.5,-2687.75"/>
</g>
<!-- SelectRoom__95 -->
<g id="node32" class="node">
<title>SelectRoom__95</title>
<polygon fill="#eeeeee" stroke="black" points="2107,-2398.5 2107,-2466.5 2643,-2466.5 2643,-2398.5 2107,-2398.5"/>
<text text-anchor="start" x="2115" y="-2451.3" font-family="monospace" font-size="14.00">EX_LetObj</text>
<text text-anchor="start" x="2115" y="-2436.3" font-family="monospace" font-size="14.00">  EX_LocalOutVariable</text>
<text text-anchor="start" x="2115" y="-2421.3" font-family="monospace" font-size="14.00">    [ReturnValue]</text>
<text text-anchor="start" x="2115" y="-2406.3" font-family="monospace" font-size="14.00">  EX_LocalVariable [CallFunc_GetRandomRoomWithTags_ReturnValue]</text>
</g>
<!-- SelectRoom__20&#45;&gt;SelectRoom__95 -->
<g id="edge26" class="edge">
<title>SelectRoom__20&#45;&gt;SelectRoom__95</title>
<path fill="none" stroke="black" d="M2375,-2503.52C2375,-2494.6 2375,-2485.83 2375,-2477.66"/>
<polygon fill="black" stroke="black" points="2378.5,-2477.7 2375,-2467.7 2371.5,-2477.7 2378.5,-2477.7"/>
</g>
<!-- SelectRoom__114 -->
<g id="node33" class="node">
<title>SelectRoom__114</title>
<polygon fill="#eeeeee" stroke="black" points="2280,-2308.5 2280,-2361.5 2470,-2361.5 2470,-2308.5 2280,-2308.5"/>
<text text-anchor="start" x="2288" y="-2346.3" font-family="monospace" font-size="14.00">EX_Return</text>
<text text-anchor="start" x="2288" y="-2331.3" font-family="monospace" font-size="14.00">  EX_LocalOutVariable</text>
<text text-anchor="start" x="2288" y="-2316.3" font-family="monospace" font-size="14.00">    [ReturnValue]</text>
</g>
<!-- SelectRoom__95&#45;&gt;SelectRoom__114 -->
<g id="edge27" class="edge">
<title>SelectRoom__95&#45;&gt;SelectRoom__114</title>
<path fill="none" stroke="black" d="M2375,-2398.63C2375,-2390.25 2375,-2381.19 2375,-2372.63"/>
<polygon fill="black" stroke="black" points="2378.5,-2372.9 2375,-2362.9 2371.5,-2372.9 2378.5,-2372.9"/>
</g>
<!-- SelectRoom__124 -->
<g id="node34" class="node">
<title>SelectRoom__124</title>
<polygon fill="#eeeeee" stroke="black" points="1950,-1912 1950,-1948 2082,-1948 2082,-1912 1950,-1912"/>
<text text-anchor="start" x="1958" y="-1926.3" font-family="monospace" font-size="14.00">EX_EndOfScript</text>
</g>
</g>
</svg>
