<?xml version="1.0" encoding="UTF-8" standalone="no"?>
<!DOCTYPE svg PUBLIC "-//W3C//DTD SVG 1.1//EN"
 "http://www.w3.org/Graphics/SVG/1.1/DTD/svg11.dtd">
<!-- Generated by graphviz version 7.0.1 (0)
 -->
<!-- Pages: 1 -->
<svg width="1388pt" height="1610pt"
 viewBox="0.00 0.00 1388.00 1610.00" xmlns="http://www.w3.org/2000/svg" xmlns:xlink="http://www.w3.org/1999/xlink">
<g id="graph0" class="graph" transform="scale(1 1) rotate(0) translate(4 1606)">
<polygon fill="white" stroke="none" points="-4,4 -4,-1606 1384,-1606 1384,4 -4,4"/>
<!-- WND_RetirementRewards_C -->
<g id="node1" class="node">
<title>WND_RetirementRewards_C</title>
<polygon fill="#88ff88" stroke="black" points="0,-1503.5 0,-1556.5 776,-1556.5 776,-1503.5 0,-1503.5"/>
<text text-anchor="start" x="8" y="-1541.3" font-family="monospace" font-size="14.00">ClassExport: WND_RetirementRewards_C</text>
<text text-anchor="start" x="8" y="-1526.3" font-family="monospace" font-size="14.00">  SuperStruct: import /Game/UI/ClaimableRewards/WND_ClaimableRewards&#45;&gt;WND_ClaimableRewards_C</text>
<text text-anchor="start" x="8" y="-1511.3" font-family="monospace" font-size="14.00">  Properties:</text>
</g>
<!-- GetData -->
<g id="node2" class="node">
<title>GetData</title>
<polygon fill="#ff8888" stroke="black" points="794,-1458.5 794,-1601.5 1264,-1601.5 1264,-1458.5 794,-1458.5"/>
<text text-anchor="start" x="802" y="-1586.3" font-family="monospace" font-size="14.00">Function GetData</text>
<text text-anchor="start" x="802" y="-1571.3" font-family="monospace" font-size="14.00">  StructProperty OutData</text>
<text text-anchor="start" x="802" y="-1556.3" font-family="monospace" font-size="14.00">    CPF_Parm|CPF_OutParm|CPF_ContainsInstancedReference</text>
<text text-anchor="start" x="802" y="-1541.3" font-family="monospace" font-size="14.00">  ObjectProperty CallFunc_GetOwningPlayer_ReturnValue</text>
<text text-anchor="start" x="802" y="-1526.3" font-family="monospace" font-size="14.00">  ObjectProperty CallFunc_GetHUD_ReturnValue</text>
<text text-anchor="start" x="802" y="-1511.3" font-family="monospace" font-size="14.00">  ObjectProperty K2Node_DynamicCast_AsBP_HUD_Space_Rig</text>
<text text-anchor="start" x="802" y="-1496.3" font-family="monospace" font-size="14.00">  BoolProperty K2Node_DynamicCast_bSuccess</text>
<text text-anchor="start" x="802" y="-1481.3" font-family="monospace" font-size="14.00">  StructProperty K2Node_MakeStruct_ClaimableRewardView</text>
<text text-anchor="start" x="802" y="-1466.3" font-family="monospace" font-size="14.00">    CPF_ContainsInstancedReference</text>
</g>
<!-- GetData__0 -->
<g id="node3" class="node">
<title>GetData__0</title>
<polygon fill="#eeeeee" stroke="black" points="785.5,-1331.5 785.5,-1384.5 1272.5,-1384.5 1272.5,-1331.5 785.5,-1331.5"/>
<text text-anchor="start" x="793.5" y="-1369.3" font-family="monospace" font-size="14.00">EX_LetObj</text>
<text text-anchor="start" x="793.5" y="-1354.3" font-family="monospace" font-size="14.00">  EX_LocalVariable [CallFunc_GetOwningPlayer_ReturnValue]</text>
<text text-anchor="start" x="793.5" y="-1339.3" font-family="monospace" font-size="14.00">  EX_VirtualFunction GetOwningPlayer</text>
</g>
<!-- GetData&#45;&gt;GetData__0 -->
<g id="edge1" class="edge">
<title>GetData&#45;&gt;GetData__0</title>
<path fill="none" stroke="black" d="M1029,-1458.87C1029,-1437.27 1029,-1414.33 1029,-1395.9"/>
<polygon fill="black" stroke="black" points="1032.5,-1396.01 1029,-1386.01 1025.5,-1396.01 1032.5,-1396.01"/>
</g>
<!-- GetData__24 -->
<g id="node4" class="node">
<title>GetData__24</title>
<polygon fill="#eeeeee" stroke="black" points="740,-1195.5 740,-1293.5 1318,-1293.5 1318,-1195.5 740,-1195.5"/>
<text text-anchor="start" x="748" y="-1278.3" font-family="monospace" font-size="14.00">EX_LetObj</text>
<text text-anchor="start" x="748" y="-1263.3" font-family="monospace" font-size="14.00">  EX_LocalVariable [CallFunc_GetHUD_ReturnValue]</text>
<text text-anchor="start" x="748" y="-1248.3" font-family="monospace" font-size="14.00">  EX_Context</text>
<text text-anchor="start" x="748" y="-1233.3" font-family="monospace" font-size="14.00">    EX_LocalVariable [CallFunc_GetOwningPlayer_ReturnValue]</text>
<text text-anchor="start" x="748" y="-1218.3" font-family="monospace" font-size="14.00">    EX_FinalFunction import /Script/Engine&#45;&gt;PlayerController&#45;&gt;GetHUD</text>
<text text-anchor="start" x="748" y="-1203.3" font-family="monospace" font-size="14.00">    RValue = [CallFunc_GetHUD_ReturnValue]</text>
</g>
<!-- GetData__0&#45;&gt;GetData__24 -->
<g id="edge2" class="edge">
<title>GetData__0&#45;&gt;GetData__24</title>
<path fill="none" stroke="black" d="M1029,-1331.7C1029,-1323.48 1029,-1313.98 1029,-1304.37"/>
<polygon fill="black" stroke="black" points="1032.5,-1304.6 1029,-1294.6 1025.5,-1304.6 1032.5,-1304.6"/>
</g>
<!-- GetData__66 -->
<g id="node5" class="node">
<title>GetData__66</title>
<polygon fill="#eeeeee" stroke="black" points="690.5,-1089.5 690.5,-1157.5 1367.5,-1157.5 1367.5,-1089.5 690.5,-1089.5"/>
<text text-anchor="start" x="698.5" y="-1142.3" font-family="monospace" font-size="14.00">EX_Let</text>
<text text-anchor="start" x="698.5" y="-1127.3" font-family="monospace" font-size="14.00">  EX_LocalVariable [K2Node_DynamicCast_AsBP_HUD_Space_Rig]</text>
<text text-anchor="start" x="698.5" y="-1112.3" font-family="monospace" font-size="14.00">  EX_DynamicCast import /Game/UI/HUD_SpaceRig/BP_HUD_SpaceRig&#45;&gt;BP_HUD_SpaceRig_C</text>
<text text-anchor="start" x="698.5" y="-1097.3" font-family="monospace" font-size="14.00">    EX_LocalVariable [CallFunc_GetHUD_ReturnValue]</text>
</g>
<!-- GetData__24&#45;&gt;GetData__66 -->
<g id="edge3" class="edge">
<title>GetData__24&#45;&gt;GetData__66</title>
<path fill="none" stroke="black" d="M1029,-1195.78C1029,-1186.79 1029,-1177.43 1029,-1168.55"/>
<polygon fill="black" stroke="black" points="1032.5,-1168.76 1029,-1158.76 1025.5,-1168.76 1032.5,-1168.76"/>
</g>
<!-- GetData__102 -->
<g id="node6" class="node">
<title>GetData__102</title>
<polygon fill="#eeeeee" stroke="black" points="773,-983.5 773,-1051.5 1285,-1051.5 1285,-983.5 773,-983.5"/>
<text text-anchor="start" x="781" y="-1036.3" font-family="monospace" font-size="14.00">EX_Let</text>
<text text-anchor="start" x="781" y="-1021.3" font-family="monospace" font-size="14.00">  EX_LocalVariable [K2Node_DynamicCast_bSuccess]</text>
<text text-anchor="start" x="781" y="-1006.3" font-family="monospace" font-size="14.00">  EX_PrimitiveCast ObjectToBool</text>
<text text-anchor="start" x="781" y="-991.3" font-family="monospace" font-size="14.00">    EX_LocalVariable [K2Node_DynamicCast_AsBP_HUD_Space_Rig]</text>
</g>
<!-- GetData__66&#45;&gt;GetData__102 -->
<g id="edge4" class="edge">
<title>GetData__66&#45;&gt;GetData__102</title>
<path fill="none" stroke="black" d="M1029,-1089.59C1029,-1080.97 1029,-1071.54 1029,-1062.45"/>
<polygon fill="black" stroke="black" points="1032.5,-1062.71 1029,-1052.71 1025.5,-1062.71 1032.5,-1062.71"/>
</g>
<!-- GetData__131 -->
<g id="node7" class="node">
<title>GetData__131</title>
<polygon fill="#eeeeee" stroke="black" points="822.5,-907.5 822.5,-945.5 1235.5,-945.5 1235.5,-907.5 822.5,-907.5"/>
<text text-anchor="start" x="830.5" y="-930.3" font-family="monospace" font-size="14.00">EX_JumpIfNot 519</text>
<text text-anchor="start" x="830.5" y="-915.3" font-family="monospace" font-size="14.00">  EX_LocalVariable [K2Node_DynamicCast_bSuccess]</text>
</g>
<!-- GetData__102&#45;&gt;GetData__131 -->
<g id="edge5" class="edge">
<title>GetData__102&#45;&gt;GetData__131</title>
<path fill="none" stroke="black" d="M1029,-983.61C1029,-974.79 1029,-965.32 1029,-956.72"/>
<polygon fill="black" stroke="black" points="1032.5,-956.8 1029,-946.8 1025.5,-956.8 1032.5,-956.8"/>
</g>
<!-- GetData__145 -->
<g id="node8" class="node">
<title>GetData__145</title>
<polygon fill="#eeeeee" stroke="black" points="188,-787.5 188,-855.5 1302,-855.5 1302,-787.5 188,-787.5"/>
<text text-anchor="start" x="196" y="-840.3" font-family="monospace" font-size="14.00">EX_LetObj</text>
<text text-anchor="start" x="196" y="-825.3" font-family="monospace" font-size="14.00">  EX_StructMemberContext [MissionControlSpeak]</text>
<text text-anchor="start" x="196" y="-810.3" font-family="monospace" font-size="14.00">    EX_LocalVariable [K2Node_MakeStruct_ClaimableRewardView]</text>
<text text-anchor="start" x="196" y="-795.3" font-family="monospace" font-size="14.00">  EX_ObjectConst import /Game/Character/Shouts/MissionControl/SpaceRig/EndGAME/Shout_Mission_1stPromotion&#45;&gt;Shout_Mission_1stPromotion</text>
</g>
<!-- GetData__131&#45;&gt;GetData__145 -->
<g id="edge7" class="edge">
<title>GetData__131&#45;&gt;GetData__145</title>
<path fill="none" stroke="black" d="M979.53,-907.56C942.9,-894.27 891.71,-875.71 846.5,-859.31"/>
<polygon fill="black" stroke="black" points="847.77,-856.05 837.17,-855.93 845.38,-862.63 847.77,-856.05"/>
<text text-anchor="middle" x="929.5" y="-877.8" font-family="monospace" font-size="14.00">IF</text>
</g>
<!-- GetData__519 -->
<g id="node15" class="node">
<title>GetData__519</title>
<polygon fill="#eeeeee" stroke="black" points="1130,-0.5 1130,-38.5 1246,-38.5 1246,-0.5 1130,-0.5"/>
<text text-anchor="start" x="1138" y="-23.3" font-family="monospace" font-size="14.00">EX_Return</text>
<text text-anchor="start" x="1138" y="-8.3" font-family="monospace" font-size="14.00">  EX_Nothing</text>
</g>
<!-- GetData__131&#45;&gt;GetData__519 -->
<g id="edge6" class="edge">
<title>GetData__131:e&#45;&gt;GetData__519</title>
<path fill="none" stroke="red" d="M1237,-926.5C1299.01,-926.5 1330,-884.51 1330,-822.5 1330,-822.5 1330,-822.5 1330,-109.5 1330,-71.37 1292.78,-48.95 1256.45,-36.16"/>
<polygon fill="none" stroke="red" points="1257.79,-32.91 1247.19,-33.11 1255.6,-39.56 1257.79,-32.91"/>
<text text-anchor="middle" x="1355" y="-469.8" font-family="monospace" font-size="14.00">IF NOT</text>
</g>
<!-- GetData__173 -->
<g id="node9" class="node">
<title>GetData__173</title>
<polygon fill="#eeeeee" stroke="black" points="450,-666.5 450,-749.5 1160,-749.5 1160,-666.5 450,-666.5"/>
<text text-anchor="start" x="458" y="-734.3" font-family="monospace" font-size="14.00">EX_Let</text>
<text text-anchor="start" x="458" y="-719.3" font-family="monospace" font-size="14.00">  EX_StructMemberContext [BackgroundWidgetClass]</text>
<text text-anchor="start" x="458" y="-704.3" font-family="monospace" font-size="14.00">    EX_LocalVariable [K2Node_MakeStruct_ClaimableRewardView]</text>
<text text-anchor="start" x="458" y="-689.3" font-family="monospace" font-size="14.00">  EX_SoftObjectConst UAssetAPI.Kismet.Bytecode.Expressions.EX_StringConst</text>
<text text-anchor="start" x="458" y="-674.3" font-family="monospace" font-size="14.00">    EX_StringConst /Game/UI/Global_UI_Elements/UI_GlowBackground.UI_GlowBackground_C</text>
</g>
<!-- GetData__145&#45;&gt;GetData__173 -->
<g id="edge8" class="edge">
<title>GetData__145&#45;&gt;GetData__173</title>
<path fill="none" stroke="black" d="M762.68,-787.65C767.5,-778.69 772.84,-768.77 778.05,-759.08"/>
<polygon fill="black" stroke="black" points="781.04,-760.91 782.7,-750.45 774.87,-757.6 781.04,-760.91"/>
</g>
<!-- GetData__268 -->
<g id="node10" class="node">
<title>GetData__268</title>
<polygon fill="#eeeeee" stroke="black" points="500,-545.5 500,-628.5 1292,-628.5 1292,-545.5 500,-545.5"/>
<text text-anchor="start" x="508" y="-613.3" font-family="monospace" font-size="14.00">EX_Let</text>
<text text-anchor="start" x="508" y="-598.3" font-family="monospace" font-size="14.00">  EX_StructMemberContext [FanfareAudio]</text>
<text text-anchor="start" x="508" y="-583.3" font-family="monospace" font-size="14.00">    EX_LocalVariable [K2Node_MakeStruct_ClaimableRewardView]</text>
<text text-anchor="start" x="508" y="-568.3" font-family="monospace" font-size="14.00">  EX_SoftObjectConst UAssetAPI.Kismet.Bytecode.Expressions.EX_StringConst</text>
<text text-anchor="start" x="508" y="-553.3" font-family="monospace" font-size="14.00">    EX_StringConst /Game/Audio/Music/SpaceRigMusic/Fanfare_promotion_Cue.Fanfare_promotion_Cue</text>
</g>
<!-- GetData__173&#45;&gt;GetData__268 -->
<g id="edge9" class="edge">
<title>GetData__173&#45;&gt;GetData__268</title>
<path fill="none" stroke="black" d="M835.81,-666.71C843.07,-657.21 850.9,-646.98 858.42,-637.14"/>
<polygon fill="black" stroke="black" points="861.01,-639.52 864.3,-629.45 855.45,-635.27 861.01,-639.52"/>
</g>
<!-- GetData__373 -->
<g id="node11" class="node">
<title>GetData__373</title>
<polygon fill="#eeeeee" stroke="black" points="744,-439.5 744,-507.5 1256,-507.5 1256,-439.5 744,-439.5"/>
<text text-anchor="start" x="752" y="-492.3" font-family="monospace" font-size="14.00">EX_Let</text>
<text text-anchor="start" x="752" y="-477.3" font-family="monospace" font-size="14.00">  EX_StructMemberContext [MoveInRewardsDelay]</text>
<text text-anchor="start" x="752" y="-462.3" font-family="monospace" font-size="14.00">    EX_LocalVariable [K2Node_MakeStruct_ClaimableRewardView]</text>
<text text-anchor="start" x="752" y="-447.3" font-family="monospace" font-size="14.00">  EX_FloatConst 0</text>
</g>
<!-- GetData__268&#45;&gt;GetData__373 -->
<g id="edge10" class="edge">
<title>GetData__268&#45;&gt;GetData__373</title>
<path fill="none" stroke="black" d="M933.55,-545.75C942.64,-536 952.37,-525.57 961.5,-515.78"/>
<polygon fill="black" stroke="black" points="964.05,-518.18 968.31,-508.48 958.93,-513.4 964.05,-518.18"/>
</g>
<!-- GetData__405 -->
<g id="node12" class="node">
<title>GetData__405</title>
<polygon fill="#eeeeee" stroke="black" points="769,-288.5 769,-401.5 1281,-401.5 1281,-288.5 769,-288.5"/>
<text text-anchor="start" x="777" y="-386.3" font-family="monospace" font-size="14.00">EX_Let</text>
<text text-anchor="start" x="777" y="-371.3" font-family="monospace" font-size="14.00">  EX_StructMemberContext [RewardDisplays]</text>
<text text-anchor="start" x="777" y="-356.3" font-family="monospace" font-size="14.00">    EX_LocalVariable [K2Node_MakeStruct_ClaimableRewardView]</text>
<text text-anchor="start" x="777" y="-341.3" font-family="monospace" font-size="14.00">  EX_Context</text>
<text text-anchor="start" x="777" y="-326.3" font-family="monospace" font-size="14.00">    EX_LocalVariable [K2Node_DynamicCast_AsBP_HUD_Space_Rig]</text>
<text text-anchor="start" x="777" y="-311.3" font-family="monospace" font-size="14.00">    EX_InstanceVariable [PendingPromotionRewards]</text>
<text text-anchor="start" x="777" y="-296.3" font-family="monospace" font-size="14.00">    RValue = [PendingPromotionRewards]</text>
</g>
<!-- GetData__373&#45;&gt;GetData__405 -->
<g id="edge11" class="edge">
<title>GetData__373&#45;&gt;GetData__405</title>
<path fill="none" stroke="black" d="M1006.5,-439.59C1008.17,-431.18 1010.02,-421.82 1011.88,-412.37"/>
<polygon fill="black" stroke="black" points="1015.28,-413.25 1013.78,-402.76 1008.41,-411.89 1015.28,-413.25"/>
</g>
<!-- GetData__463 -->
<g id="node13" class="node">
<title>GetData__463</title>
<polygon fill="#eeeeee" stroke="black" points="780,-182.5 780,-250.5 1292,-250.5 1292,-182.5 780,-182.5"/>
<text text-anchor="start" x="788" y="-235.3" font-family="monospace" font-size="14.00">EX_Let</text>
<text text-anchor="start" x="788" y="-220.3" font-family="monospace" font-size="14.00">  EX_StructMemberContext [ClaimButtonText]</text>
<text text-anchor="start" x="788" y="-205.3" font-family="monospace" font-size="14.00">    EX_LocalVariable [K2Node_MakeStruct_ClaimableRewardView]</text>
<text text-anchor="start" x="788" y="-190.3" font-family="monospace" font-size="14.00">  EX_TextConst</text>
</g>
<!-- GetData__405&#45;&gt;GetData__463 -->
<g id="edge12" class="edge">
<title>GetData__405&#45;&gt;GetData__463</title>
<path fill="none" stroke="black" d="M1029.82,-288.52C1030.6,-279.57 1031.4,-270.41 1032.15,-261.78"/>
<polygon fill="black" stroke="black" points="1035.63,-262.17 1033.01,-251.9 1028.66,-261.56 1035.63,-262.17"/>
</g>
<!-- GetData__492 -->
<g id="node14" class="node">
<title>GetData__492</title>
<polygon fill="#eeeeee" stroke="black" points="799.5,-76.5 799.5,-144.5 1294.5,-144.5 1294.5,-76.5 799.5,-76.5"/>
<text text-anchor="start" x="807.5" y="-129.3" font-family="monospace" font-size="14.00">EX_Let</text>
<text text-anchor="start" x="807.5" y="-114.3" font-family="monospace" font-size="14.00">  EX_LocalOutVariable</text>
<text text-anchor="start" x="807.5" y="-99.3" font-family="monospace" font-size="14.00">    [OutData]</text>
<text text-anchor="start" x="807.5" y="-84.3" font-family="monospace" font-size="14.00">  EX_LocalVariable [K2Node_MakeStruct_ClaimableRewardView]</text>
</g>
<!-- GetData__463&#45;&gt;GetData__492 -->
<g id="edge13" class="edge">
<title>GetData__463&#45;&gt;GetData__492</title>
<path fill="none" stroke="black" d="M1039.48,-182.59C1040.39,-173.97 1041.39,-164.54 1042.35,-155.45"/>
<polygon fill="black" stroke="black" points="1045.81,-156.01 1043.38,-145.7 1038.85,-155.27 1045.81,-156.01"/>
</g>
<!-- GetData__492&#45;&gt;GetData__519 -->
<g id="edge14" class="edge">
<title>GetData__492&#45;&gt;GetData__519</title>
<path fill="none" stroke="black" d="M1099.1,-76.61C1116.12,-65.87 1134.68,-54.15 1150.42,-44.22"/>
<polygon fill="black" stroke="black" points="1151.95,-47.4 1158.53,-39.1 1148.21,-41.48 1151.95,-47.4"/>
</g>
<!-- GetData__521 -->
<g id="node16" class="node">
<title>GetData__521</title>
<polygon fill="#eeeeee" stroke="black" points="1044,-1403.5 1044,-1439.5 1176,-1439.5 1176,-1403.5 1044,-1403.5"/>
<text text-anchor="start" x="1052" y="-1417.8" font-family="monospace" font-size="14.00">EX_EndOfScript</text>
</g>
</g>
</svg>
