<?xml version="1.0" encoding="UTF-8" standalone="no"?>
<!DOCTYPE svg PUBLIC "-//W3C//DTD SVG 1.1//EN"
 "http://www.w3.org/Graphics/SVG/1.1/DTD/svg11.dtd">
<!-- Generated by graphviz version 7.0.1 (0)
 -->
<!-- Pages: 1 -->
<svg width="2696pt" height="1773pt"
 viewBox="0.00 0.00 2695.50 1773.00" xmlns="http://www.w3.org/2000/svg" xmlns:xlink="http://www.w3.org/1999/xlink">
<g id="graph0" class="graph" transform="scale(1 1) rotate(0) translate(4 1769)">
<polygon fill="white" stroke="none" points="-4,4 -4,-1769 2691.5,-1769 2691.5,4 -4,4"/>
<!-- PRJ_Crye_SnowBall_C -->
<g id="node1" class="node">
<title>PRJ_Crye_SnowBall_C</title>
<polygon fill="#88ff88" stroke="black" points="0,-1464 0,-1667 594,-1667 594,-1464 0,-1464"/>
<text text-anchor="start" x="8" y="-1651.8" font-family="monospace" font-size="14.00">ClassExport: PRJ_Crye_SnowBall_C</text>
<text text-anchor="start" x="8" y="-1636.8" font-family="monospace" font-size="14.00">  SuperStruct: import /Script/FSD&#45;&gt;Projectile</text>
<text text-anchor="start" x="8" y="-1621.8" font-family="monospace" font-size="14.00">  Properties:</text>
<text text-anchor="start" x="8" y="-1606.8" font-family="monospace" font-size="14.00">    StructProperty UberGraphFrame</text>
<text text-anchor="start" x="8" y="-1591.8" font-family="monospace" font-size="14.00">      CPF_Transient|CPF_DuplicateTransient</text>
<text text-anchor="start" x="8" y="-1576.8" font-family="monospace" font-size="14.00">    ObjectProperty Damage</text>
<text text-anchor="start" x="8" y="-1561.8" font-family="monospace" font-size="14.00">      CPF_BlueprintVisible|CPF_InstancedReference|CPF_NonTransactional</text>
<text text-anchor="start" x="8" y="-1546.8" font-family="monospace" font-size="14.00">    ObjectProperty ProjectileExplosion</text>
<text text-anchor="start" x="8" y="-1531.8" font-family="monospace" font-size="14.00">      CPF_BlueprintVisible|CPF_InstancedReference|CPF_NonTransactional</text>
<text text-anchor="start" x="8" y="-1516.8" font-family="monospace" font-size="14.00">    ObjectProperty StaticMesh</text>
<text text-anchor="start" x="8" y="-1501.8" font-family="monospace" font-size="14.00">      CPF_BlueprintVisible|CPF_InstancedReference|CPF_NonTransactional</text>
<text text-anchor="start" x="8" y="-1486.8" font-family="monospace" font-size="14.00">    ObjectProperty ParticleSystem</text>
<text text-anchor="start" x="8" y="-1471.8" font-family="monospace" font-size="14.00">      CPF_BlueprintVisible|CPF_InstancedReference|CPF_NonTransactional</text>
</g>
<!-- ExecuteUbergraph_PRJ_Crye_SnowBall -->
<g id="node2" class="node">
<title>ExecuteUbergraph_PRJ_Crye_SnowBall</title>
<polygon fill="#ff8888" stroke="black" points="612,-1366.5 612,-1764.5 1132,-1764.5 1132,-1366.5 612,-1366.5"/>
<text text-anchor="start" x="620" y="-1749.3" font-family="monospace" font-size="14.00">Function ExecuteUbergraph_PRJ_Crye_SnowBall</text>
<text text-anchor="start" x="620" y="-1734.3" font-family="monospace" font-size="14.00">  IntProperty EntryPoint</text>
<text text-anchor="start" x="620" y="-1719.3" font-family="monospace" font-size="14.00">    CPF_BlueprintVisible|CPF_BlueprintReadOnly|CPF_Parm</text>
<text text-anchor="start" x="620" y="-1704.3" font-family="monospace" font-size="14.00">  BoolProperty CallFunc_HasAuthority_ReturnValue</text>
<text text-anchor="start" x="620" y="-1689.3" font-family="monospace" font-size="14.00">  BoolProperty K2Node_Event_PredictedImpact</text>
<text text-anchor="start" x="620" y="-1674.3" font-family="monospace" font-size="14.00">  StructProperty K2Node_Event_HitResult</text>
<text text-anchor="start" x="620" y="-1659.3" font-family="monospace" font-size="14.00">    CPF_ConstParm|CPF_ContainsInstancedReference</text>
<text text-anchor="start" x="620" y="-1644.3" font-family="monospace" font-size="14.00">  BoolProperty CallFunc_BreakHitResult_bBlockingHit</text>
<text text-anchor="start" x="620" y="-1629.3" font-family="monospace" font-size="14.00">  BoolProperty CallFunc_BreakHitResult_bInitialOverlap</text>
<text text-anchor="start" x="620" y="-1614.3" font-family="monospace" font-size="14.00">  FloatProperty CallFunc_BreakHitResult_Time</text>
<text text-anchor="start" x="620" y="-1599.3" font-family="monospace" font-size="14.00">  FloatProperty CallFunc_BreakHitResult_Distance</text>
<text text-anchor="start" x="620" y="-1584.3" font-family="monospace" font-size="14.00">  StructProperty CallFunc_BreakHitResult_Location</text>
<text text-anchor="start" x="620" y="-1569.3" font-family="monospace" font-size="14.00">  StructProperty CallFunc_BreakHitResult_ImpactPoint</text>
<text text-anchor="start" x="620" y="-1554.3" font-family="monospace" font-size="14.00">  StructProperty CallFunc_BreakHitResult_Normal</text>
<text text-anchor="start" x="620" y="-1539.3" font-family="monospace" font-size="14.00">  StructProperty CallFunc_BreakHitResult_ImpactNormal</text>
<text text-anchor="start" x="620" y="-1524.3" font-family="monospace" font-size="14.00">  ObjectProperty CallFunc_BreakHitResult_PhysMat</text>
<text text-anchor="start" x="620" y="-1509.3" font-family="monospace" font-size="14.00">  ObjectProperty CallFunc_BreakHitResult_HitActor</text>
<text text-anchor="start" x="620" y="-1494.3" font-family="monospace" font-size="14.00">  ObjectProperty CallFunc_BreakHitResult_HitComponent</text>
<text text-anchor="start" x="620" y="-1479.3" font-family="monospace" font-size="14.00">    CPF_InstancedReference</text>
<text text-anchor="start" x="620" y="-1464.3" font-family="monospace" font-size="14.00">  NameProperty CallFunc_BreakHitResult_HitBoneName</text>
<text text-anchor="start" x="620" y="-1449.3" font-family="monospace" font-size="14.00">  IntProperty CallFunc_BreakHitResult_HitItem</text>
<text text-anchor="start" x="620" y="-1434.3" font-family="monospace" font-size="14.00">  IntProperty CallFunc_BreakHitResult_ElementIndex</text>
<text text-anchor="start" x="620" y="-1419.3" font-family="monospace" font-size="14.00">  IntProperty CallFunc_BreakHitResult_FaceIndex</text>
<text text-anchor="start" x="620" y="-1404.3" font-family="monospace" font-size="14.00">  StructProperty CallFunc_BreakHitResult_TraceStart</text>
<text text-anchor="start" x="620" y="-1389.3" font-family="monospace" font-size="14.00">  StructProperty CallFunc_BreakHitResult_TraceEnd</text>
<text text-anchor="start" x="620" y="-1374.3" font-family="monospace" font-size="14.00">  StructProperty CallFunc_K2_GetComponentLocation_ReturnValue</text>
</g>
<!-- ExecuteUbergraph_PRJ_Crye_SnowBall__0 -->
<g id="node3" class="node">
<title>ExecuteUbergraph_PRJ_Crye_SnowBall__0</title>
<polygon fill="#eeeeee" stroke="black" points="764.5,-1255.5 764.5,-1291.5 979.5,-1291.5 979.5,-1255.5 764.5,-1255.5"/>
<text text-anchor="start" x="772.5" y="-1269.8" font-family="monospace" font-size="14.00">EX_PushExecutionFlow 427</text>
</g>
<!-- ExecuteUbergraph_PRJ_Crye_SnowBall&#45;&gt;ExecuteUbergraph_PRJ_Crye_SnowBall__0 -->
<g id="edge1" class="edge">
<title>ExecuteUbergraph_PRJ_Crye_SnowBall&#45;&gt;ExecuteUbergraph_PRJ_Crye_SnowBall__0</title>
<path fill="none" stroke="black" d="M872,-1366.66C872,-1341.81 872,-1319.37 872,-1302.85"/>
<polygon fill="black" stroke="black" points="875.5,-1302.94 872,-1292.94 868.5,-1302.94 875.5,-1302.94"/>
</g>
<!-- ExecuteUbergraph_PRJ_Crye_SnowBall__5 -->
<g id="node4" class="node">
<title>ExecuteUbergraph_PRJ_Crye_SnowBall__5</title>
<polygon fill="#eeeeee" stroke="black" points="684,-1135 684,-1173 956,-1173 956,-1135 684,-1135"/>
<text text-anchor="start" x="692" y="-1157.8" font-family="monospace" font-size="14.00">EX_ComputedJump</text>
<text text-anchor="start" x="692" y="-1142.8" font-family="monospace" font-size="14.00">  EX_LocalVariable [EntryPoint]</text>
</g>
<!-- ExecuteUbergraph_PRJ_Crye_SnowBall__0&#45;&gt;ExecuteUbergraph_PRJ_Crye_SnowBall__5 -->
<g id="edge3" class="edge">
<title>ExecuteUbergraph_PRJ_Crye_SnowBall__0&#45;&gt;ExecuteUbergraph_PRJ_Crye_SnowBall__5</title>
<path fill="none" stroke="black" d="M864.55,-1255.67C856.2,-1236.8 842.52,-1205.89 832.52,-1183.3"/>
<polygon fill="black" stroke="black" points="835.81,-1182.07 828.56,-1174.34 829.41,-1184.9 835.81,-1182.07"/>
</g>
<!-- ExecuteUbergraph_PRJ_Crye_SnowBall__427 -->
<g id="node17" class="node">
<title>ExecuteUbergraph_PRJ_Crye_SnowBall__427</title>
<polygon fill="#eeeeee" stroke="black" points="974,-1135 974,-1173 1090,-1173 1090,-1135 974,-1135"/>
<text text-anchor="start" x="982" y="-1157.8" font-family="monospace" font-size="14.00">EX_Return</text>
<text text-anchor="start" x="982" y="-1142.8" font-family="monospace" font-size="14.00">  EX_Nothing</text>
</g>
<!-- ExecuteUbergraph_PRJ_Crye_SnowBall__0&#45;&gt;ExecuteUbergraph_PRJ_Crye_SnowBall__427 -->
<g id="edge2" class="edge">
<title>ExecuteUbergraph_PRJ_Crye_SnowBall__0:e&#45;&gt;ExecuteUbergraph_PRJ_Crye_SnowBall__427</title>
<path fill="none" stroke="red" d="M981,-1273.5C1019.84,-1273.5 1029.46,-1219.13 1031.63,-1184.05"/>
<polygon fill="none" stroke="red" points="1035.1,-1184.65 1032.04,-1174.51 1028.11,-1184.35 1035.1,-1184.65"/>
<text text-anchor="middle" x="1072.5" y="-1213.8" font-family="monospace" font-size="14.00">PUSH STACK</text>
</g>
<!-- ExecuteUbergraph_PRJ_Crye_SnowBall__15 -->
<g id="node5" class="node">
<title>ExecuteUbergraph_PRJ_Crye_SnowBall__15</title>
<polygon fill="#eeeeee" stroke="black" points="1386,-148.5 1386,-246.5 1988,-246.5 1988,-148.5 1386,-148.5"/>
<text text-anchor="start" x="1394" y="-231.3" font-family="monospace" font-size="14.00">EX_Context</text>
<text text-anchor="start" x="1394" y="-216.3" font-family="monospace" font-size="14.00">  EX_InstanceVariable [CollisionComponent]</text>
<text text-anchor="start" x="1394" y="-201.3" font-family="monospace" font-size="14.00">  EX_FinalFunction import /Script/Engine&#45;&gt;SceneComponent&#45;&gt;SetVisibility</text>
<text text-anchor="start" x="1394" y="-186.3" font-family="monospace" font-size="14.00">    EX_False</text>
<text text-anchor="start" x="1394" y="-171.3" font-family="monospace" font-size="14.00">    EX_True</text>
<text text-anchor="start" x="1394" y="-156.3" font-family="monospace" font-size="14.00">  RValue = []</text>
</g>
<!-- ExecuteUbergraph_PRJ_Crye_SnowBall__49 -->
<g id="node6" class="node">
<title>ExecuteUbergraph_PRJ_Crye_SnowBall__49</title>
<polygon fill="#eeeeee" stroke="black" points="1530,-74.5 1530,-110.5 1844,-110.5 1844,-74.5 1530,-74.5"/>
<text text-anchor="start" x="1538" y="-88.8" font-family="monospace" font-size="14.00">EX_VirtualFunction DisableAndDestroy</text>
</g>
<!-- ExecuteUbergraph_PRJ_Crye_SnowBall__15&#45;&gt;ExecuteUbergraph_PRJ_Crye_SnowBall__49 -->
<g id="edge4" class="edge">
<title>ExecuteUbergraph_PRJ_Crye_SnowBall__15&#45;&gt;ExecuteUbergraph_PRJ_Crye_SnowBall__49</title>
<path fill="none" stroke="black" d="M1687,-148.62C1687,-139.44 1687,-130.11 1687,-121.8"/>
<polygon fill="black" stroke="black" points="1690.5,-122 1687,-112 1683.5,-122 1690.5,-122"/>
</g>
<!-- ExecuteUbergraph_PRJ_Crye_SnowBall__63 -->
<g id="node7" class="node">
<title>ExecuteUbergraph_PRJ_Crye_SnowBall__63</title>
<polygon fill="#eeeeee" stroke="black" points="1600.5,-0.5 1600.5,-36.5 1773.5,-36.5 1773.5,-0.5 1600.5,-0.5"/>
<text text-anchor="start" x="1608.5" y="-14.8" font-family="monospace" font-size="14.00">EX_PopExecutionFlow</text>
</g>
<!-- ExecuteUbergraph_PRJ_Crye_SnowBall__49&#45;&gt;ExecuteUbergraph_PRJ_Crye_SnowBall__63 -->
<g id="edge5" class="edge">
<title>ExecuteUbergraph_PRJ_Crye_SnowBall__49&#45;&gt;ExecuteUbergraph_PRJ_Crye_SnowBall__63</title>
<path fill="none" stroke="black" d="M1687,-74.8C1687,-66.71 1687,-56.78 1687,-47.57"/>
<polygon fill="black" stroke="black" points="1690.5,-47.62 1687,-37.62 1683.5,-47.62 1690.5,-47.62"/>
</g>
<!-- ExecuteUbergraph_PRJ_Crye_SnowBall__64 -->
<g id="node8" class="node">
<title>ExecuteUbergraph_PRJ_Crye_SnowBall__64</title>
<polygon fill="#eeeeee" stroke="black" points="2071,-750.5 2071,-803.5 2591,-803.5 2591,-750.5 2071,-750.5"/>
<text text-anchor="start" x="2079" y="-788.3" font-family="monospace" font-size="14.00">EX_LetBool</text>
<text text-anchor="start" x="2079" y="-773.3" font-family="monospace" font-size="14.00">  EX_LocalVariable [CallFunc_HasAuthority_ReturnValue]</text>
<text text-anchor="start" x="2079" y="-758.3" font-family="monospace" font-size="14.00">  EX_FinalFunction import /Script/Engine&#45;&gt;Actor&#45;&gt;HasAuthority</text>
</g>
<!-- ExecuteUbergraph_PRJ_Crye_SnowBall__84 -->
<g id="node9" class="node">
<title>ExecuteUbergraph_PRJ_Crye_SnowBall__84</title>
<polygon fill="#eeeeee" stroke="black" points="2110,-524.5 2110,-562.5 2572,-562.5 2572,-524.5 2110,-524.5"/>
<text text-anchor="start" x="2118" y="-547.3" font-family="monospace" font-size="14.00">EX_PopExecutionFlowIfNot</text>
<text text-anchor="start" x="2118" y="-532.3" font-family="monospace" font-size="14.00">  EX_LocalVariable [CallFunc_HasAuthority_ReturnValue]</text>
</g>
<!-- ExecuteUbergraph_PRJ_Crye_SnowBall__64&#45;&gt;ExecuteUbergraph_PRJ_Crye_SnowBall__84 -->
<g id="edge6" class="edge">
<title>ExecuteUbergraph_PRJ_Crye_SnowBall__64&#45;&gt;ExecuteUbergraph_PRJ_Crye_SnowBall__84</title>
<path fill="none" stroke="black" d="M2332.09,-750.78C2333.95,-707.63 2337.75,-619.85 2339.73,-573.95"/>
<polygon fill="black" stroke="black" points="2343.22,-574.1 2340.16,-563.96 2336.23,-573.8 2343.22,-574.1"/>
</g>
<!-- ExecuteUbergraph_PRJ_Crye_SnowBall__94 -->
<g id="node10" class="node">
<title>ExecuteUbergraph_PRJ_Crye_SnowBall__94</title>
<polygon fill="#eeeeee" stroke="black" points="2010.5,-358.5 2010.5,-456.5 2687.5,-456.5 2687.5,-358.5 2010.5,-358.5"/>
<text text-anchor="start" x="2018.5" y="-441.3" font-family="monospace" font-size="14.00">EX_Context</text>
<text text-anchor="start" x="2018.5" y="-426.3" font-family="monospace" font-size="14.00">  EX_InstanceVariable [ProjectileExplosion]</text>
<text text-anchor="start" x="2018.5" y="-411.3" font-family="monospace" font-size="14.00">  EX_FinalFunction import /Script/FSD&#45;&gt;ExplosionBaseComponent&#45;&gt;DamageOnlyFromHit</text>
<text text-anchor="start" x="2018.5" y="-396.3" font-family="monospace" font-size="14.00">    EX_LocalVariable [K2Node_Event_HitResult]</text>
<text text-anchor="start" x="2018.5" y="-381.3" font-family="monospace" font-size="14.00">    EX_InstanceVariable [Damage]</text>
<text text-anchor="start" x="2018.5" y="-366.3" font-family="monospace" font-size="14.00">  RValue = []</text>
</g>
<!-- ExecuteUbergraph_PRJ_Crye_SnowBall__84&#45;&gt;ExecuteUbergraph_PRJ_Crye_SnowBall__94 -->
<g id="edge7" class="edge">
<title>ExecuteUbergraph_PRJ_Crye_SnowBall__84&#45;&gt;ExecuteUbergraph_PRJ_Crye_SnowBall__94</title>
<path fill="none" stroke="black" d="M2342.06,-524.71C2342.94,-510.05 2344.23,-488.39 2345.46,-467.73"/>
<polygon fill="black" stroke="black" points="2348.95,-468.11 2346.05,-457.92 2341.96,-467.69 2348.95,-468.11"/>
</g>
<!-- ExecuteUbergraph_PRJ_Crye_SnowBall__144 -->
<g id="node11" class="node">
<title>ExecuteUbergraph_PRJ_Crye_SnowBall__144</title>
<polygon fill="#eeeeee" stroke="black" points="2262.5,-284.5 2262.5,-320.5 2435.5,-320.5 2435.5,-284.5 2262.5,-284.5"/>
<text text-anchor="start" x="2270.5" y="-298.8" font-family="monospace" font-size="14.00">EX_PopExecutionFlow</text>
</g>
<!-- ExecuteUbergraph_PRJ_Crye_SnowBall__94&#45;&gt;ExecuteUbergraph_PRJ_Crye_SnowBall__144 -->
<g id="edge8" class="edge">
<title>ExecuteUbergraph_PRJ_Crye_SnowBall__94&#45;&gt;ExecuteUbergraph_PRJ_Crye_SnowBall__144</title>
<path fill="none" stroke="black" d="M2349,-358.62C2349,-349.44 2349,-340.11 2349,-331.8"/>
<polygon fill="black" stroke="black" points="2352.5,-332 2349,-322 2345.5,-332 2352.5,-332"/>
</g>
<!-- ExecuteUbergraph_PRJ_Crye_SnowBall__145 -->
<g id="node12" class="node">
<title>ExecuteUbergraph_PRJ_Crye_SnowBall__145</title>
<polygon fill="#eeeeee" stroke="black" points="1947,-976.5 1947,-1012.5 2153,-1012.5 2153,-976.5 1947,-976.5"/>
<text text-anchor="start" x="1955" y="-990.8" font-family="monospace" font-size="14.00">EX_PushExecutionFlow 64</text>
</g>
<!-- ExecuteUbergraph_PRJ_Crye_SnowBall__145&#45;&gt;ExecuteUbergraph_PRJ_Crye_SnowBall__64 -->
<g id="edge9" class="edge">
<title>ExecuteUbergraph_PRJ_Crye_SnowBall__145:e&#45;&gt;ExecuteUbergraph_PRJ_Crye_SnowBall__64</title>
<path fill="none" stroke="red" d="M2154,-994.5C2246.1,-994.5 2298.89,-875.63 2320.06,-814.05"/>
<polygon fill="none" stroke="red" points="2323.34,-815.29 2323.17,-804.7 2316.7,-813.08 2323.34,-815.29"/>
<text text-anchor="middle" x="2292.5" y="-945.8" font-family="monospace" font-size="14.00">PUSH STACK</text>
</g>
<!-- ExecuteUbergraph_PRJ_Crye_SnowBall__150 -->
<g id="node13" class="node">
<title>ExecuteUbergraph_PRJ_Crye_SnowBall__150</title>
<polygon fill="#eeeeee" stroke="black" points="1482.5,-630.5 1482.5,-923.5 2043.5,-923.5 2043.5,-630.5 1482.5,-630.5"/>
<text text-anchor="start" x="1490.5" y="-908.3" font-family="monospace" font-size="14.00">EX_CallMath import /Script/Engine&#45;&gt;GameplayStatics&#45;&gt;BreakHitResult</text>
<text text-anchor="start" x="1490.5" y="-893.3" font-family="monospace" font-size="14.00">  EX_LocalVariable [K2Node_Event_HitResult]</text>
<text text-anchor="start" x="1490.5" y="-878.3" font-family="monospace" font-size="14.00">  EX_LocalVariable [CallFunc_BreakHitResult_bBlockingHit]</text>
<text text-anchor="start" x="1490.5" y="-863.3" font-family="monospace" font-size="14.00">  EX_LocalVariable [CallFunc_BreakHitResult_bInitialOverlap]</text>
<text text-anchor="start" x="1490.5" y="-848.3" font-family="monospace" font-size="14.00">  EX_LocalVariable [CallFunc_BreakHitResult_Time]</text>
<text text-anchor="start" x="1490.5" y="-833.3" font-family="monospace" font-size="14.00">  EX_LocalVariable [CallFunc_BreakHitResult_Distance]</text>
<text text-anchor="start" x="1490.5" y="-818.3" font-family="monospace" font-size="14.00">  EX_LocalVariable [CallFunc_BreakHitResult_Location]</text>
<text text-anchor="start" x="1490.5" y="-803.3" font-family="monospace" font-size="14.00">  EX_LocalVariable [CallFunc_BreakHitResult_ImpactPoint]</text>
<text text-anchor="start" x="1490.5" y="-788.3" font-family="monospace" font-size="14.00">  EX_LocalVariable [CallFunc_BreakHitResult_Normal]</text>
<text text-anchor="start" x="1490.5" y="-773.3" font-family="monospace" font-size="14.00">  EX_LocalVariable [CallFunc_BreakHitResult_ImpactNormal]</text>
<text text-anchor="start" x="1490.5" y="-758.3" font-family="monospace" font-size="14.00">  EX_LocalVariable [CallFunc_BreakHitResult_PhysMat]</text>
<text text-anchor="start" x="1490.5" y="-743.3" font-family="monospace" font-size="14.00">  EX_LocalVariable [CallFunc_BreakHitResult_HitActor]</text>
<text text-anchor="start" x="1490.5" y="-728.3" font-family="monospace" font-size="14.00">  EX_LocalVariable [CallFunc_BreakHitResult_HitComponent]</text>
<text text-anchor="start" x="1490.5" y="-713.3" font-family="monospace" font-size="14.00">  EX_LocalVariable [CallFunc_BreakHitResult_HitBoneName]</text>
<text text-anchor="start" x="1490.5" y="-698.3" font-family="monospace" font-size="14.00">  EX_LocalVariable [CallFunc_BreakHitResult_HitItem]</text>
<text text-anchor="start" x="1490.5" y="-683.3" font-family="monospace" font-size="14.00">  EX_LocalVariable [CallFunc_BreakHitResult_ElementIndex]</text>
<text text-anchor="start" x="1490.5" y="-668.3" font-family="monospace" font-size="14.00">  EX_LocalVariable [CallFunc_BreakHitResult_FaceIndex]</text>
<text text-anchor="start" x="1490.5" y="-653.3" font-family="monospace" font-size="14.00">  EX_LocalVariable [CallFunc_BreakHitResult_TraceStart]</text>
<text text-anchor="start" x="1490.5" y="-638.3" font-family="monospace" font-size="14.00">  EX_LocalVariable [CallFunc_BreakHitResult_TraceEnd]</text>
</g>
<!-- ExecuteUbergraph_PRJ_Crye_SnowBall__145&#45;&gt;ExecuteUbergraph_PRJ_Crye_SnowBall__150 -->
<g id="edge10" class="edge">
<title>ExecuteUbergraph_PRJ_Crye_SnowBall__145&#45;&gt;ExecuteUbergraph_PRJ_Crye_SnowBall__150</title>
<path fill="none" stroke="black" d="M2027.48,-976.59C2012.24,-965.15 1990.44,-948.78 1965.82,-930.29"/>
<polygon fill="black" stroke="black" points="1967.94,-927.5 1957.84,-924.3 1963.73,-933.1 1967.94,-927.5"/>
</g>
<!-- ExecuteUbergraph_PRJ_Crye_SnowBall__322 -->
<g id="node14" class="node">
<title>ExecuteUbergraph_PRJ_Crye_SnowBall__322</title>
<polygon fill="#eeeeee" stroke="black" points="1382.5,-494.5 1382.5,-592.5 2083.5,-592.5 2083.5,-494.5 1382.5,-494.5"/>
<text text-anchor="start" x="1390.5" y="-577.3" font-family="monospace" font-size="14.00">EX_Let</text>
<text text-anchor="start" x="1390.5" y="-562.3" font-family="monospace" font-size="14.00">  EX_LocalVariable [CallFunc_K2_GetComponentLocation_ReturnValue]</text>
<text text-anchor="start" x="1390.5" y="-547.3" font-family="monospace" font-size="14.00">  EX_Context</text>
<text text-anchor="start" x="1390.5" y="-532.3" font-family="monospace" font-size="14.00">    EX_InstanceVariable [CollisionComponent]</text>
<text text-anchor="start" x="1390.5" y="-517.3" font-family="monospace" font-size="14.00">    EX_FinalFunction import /Script/Engine&#45;&gt;SceneComponent&#45;&gt;K2_GetComponentLocation</text>
<text text-anchor="start" x="1390.5" y="-502.3" font-family="monospace" font-size="14.00">    RValue = [CallFunc_K2_GetComponentLocation_ReturnValue]</text>
</g>
<!-- ExecuteUbergraph_PRJ_Crye_SnowBall__150&#45;&gt;ExecuteUbergraph_PRJ_Crye_SnowBall__322 -->
<g id="edge11" class="edge">
<title>ExecuteUbergraph_PRJ_Crye_SnowBall__150&#45;&gt;ExecuteUbergraph_PRJ_Crye_SnowBall__322</title>
<path fill="none" stroke="black" d="M1744.17,-630.7C1742.96,-621.33 1741.78,-612.24 1740.67,-603.7"/>
<polygon fill="black" stroke="black" points="1744.16,-603.37 1739.4,-593.91 1737.22,-604.27 1744.16,-603.37"/>
</g>
<!-- ExecuteUbergraph_PRJ_Crye_SnowBall__372 -->
<g id="node15" class="node">
<title>ExecuteUbergraph_PRJ_Crye_SnowBall__372</title>
<polygon fill="#eeeeee" stroke="black" points="1381.5,-358.5 1381.5,-456.5 1992.5,-456.5 1992.5,-358.5 1381.5,-358.5"/>
<text text-anchor="start" x="1389.5" y="-441.3" font-family="monospace" font-size="14.00">EX_Context</text>
<text text-anchor="start" x="1389.5" y="-426.3" font-family="monospace" font-size="14.00">  EX_InstanceVariable [ProjectileExplosion]</text>
<text text-anchor="start" x="1389.5" y="-411.3" font-family="monospace" font-size="14.00">  EX_FinalFunction import /Script/FSD&#45;&gt;ProjectileExplosion&#45;&gt;SpawnEffects</text>
<text text-anchor="start" x="1389.5" y="-396.3" font-family="monospace" font-size="14.00">    EX_LocalVariable [CallFunc_K2_GetComponentLocation_ReturnValue]</text>
<text text-anchor="start" x="1389.5" y="-381.3" font-family="monospace" font-size="14.00">    EX_LocalVariable [CallFunc_BreakHitResult_Normal]</text>
<text text-anchor="start" x="1389.5" y="-366.3" font-family="monospace" font-size="14.00">  RValue = []</text>
</g>
<!-- ExecuteUbergraph_PRJ_Crye_SnowBall__322&#45;&gt;ExecuteUbergraph_PRJ_Crye_SnowBall__372 -->
<g id="edge12" class="edge">
<title>ExecuteUbergraph_PRJ_Crye_SnowBall__322&#45;&gt;ExecuteUbergraph_PRJ_Crye_SnowBall__372</title>
<path fill="none" stroke="black" d="M1716.52,-494.5C1713.45,-485.54 1710.2,-476.09 1707.03,-466.86"/>
<polygon fill="black" stroke="black" points="1710.41,-465.92 1703.85,-457.6 1703.79,-468.19 1710.41,-465.92"/>
</g>
<!-- ExecuteUbergraph_PRJ_Crye_SnowBall__422 -->
<g id="node16" class="node">
<title>ExecuteUbergraph_PRJ_Crye_SnowBall__422</title>
<polygon fill="#eeeeee" stroke="black" points="1637.5,-284.5 1637.5,-320.5 1736.5,-320.5 1736.5,-284.5 1637.5,-284.5"/>
<text text-anchor="start" x="1645.5" y="-298.8" font-family="monospace" font-size="14.00">EX_Jump 15</text>
</g>
<!-- ExecuteUbergraph_PRJ_Crye_SnowBall__372&#45;&gt;ExecuteUbergraph_PRJ_Crye_SnowBall__422 -->
<g id="edge13" class="edge">
<title>ExecuteUbergraph_PRJ_Crye_SnowBall__372&#45;&gt;ExecuteUbergraph_PRJ_Crye_SnowBall__422</title>
<path fill="none" stroke="black" d="M1687,-358.62C1687,-349.44 1687,-340.11 1687,-331.8"/>
<polygon fill="black" stroke="black" points="1690.5,-332 1687,-322 1683.5,-332 1690.5,-332"/>
</g>
<!-- ExecuteUbergraph_PRJ_Crye_SnowBall__422&#45;&gt;ExecuteUbergraph_PRJ_Crye_SnowBall__15 -->
<g id="edge14" class="edge">
<title>ExecuteUbergraph_PRJ_Crye_SnowBall__422&#45;&gt;ExecuteUbergraph_PRJ_Crye_SnowBall__15</title>
<path fill="none" stroke="black" d="M1687,-284.95C1687,-277.27 1687,-267.62 1687,-257.57"/>
<polygon fill="black" stroke="black" points="1690.5,-257.66 1687,-247.66 1683.5,-257.66 1690.5,-257.66"/>
</g>
<!-- ExecuteUbergraph_PRJ_Crye_SnowBall__429 -->
<g id="node18" class="node">
<title>ExecuteUbergraph_PRJ_Crye_SnowBall__429</title>
<polygon fill="#eeeeee" stroke="black" points="1710,-1311.5 1710,-1347.5 1842,-1347.5 1842,-1311.5 1710,-1311.5"/>
<text text-anchor="start" x="1718" y="-1325.8" font-family="monospace" font-size="14.00">EX_EndOfScript</text>
</g>
<!-- OnImpacted -->
<g id="node19" class="node">
<title>OnImpacted</title>
<polygon fill="#ff8888" stroke="black" points="1150.5,-1524 1150.5,-1607 2239.5,-1607 2239.5,-1524 1150.5,-1524"/>
<text text-anchor="start" x="1158.5" y="-1591.8" font-family="monospace" font-size="14.00">Function OnImpacted</text>
<text text-anchor="start" x="1158.5" y="-1576.8" font-family="monospace" font-size="14.00">  BoolProperty PredictedImpact</text>
<text text-anchor="start" x="1158.5" y="-1561.8" font-family="monospace" font-size="14.00">    CPF_BlueprintVisible|CPF_BlueprintReadOnly|CPF_Parm</text>
<text text-anchor="start" x="1158.5" y="-1546.8" font-family="monospace" font-size="14.00">  StructProperty HitResult</text>
<text text-anchor="start" x="1158.5" y="-1531.8" font-family="monospace" font-size="14.00">    CPF_ConstParm|CPF_BlueprintVisible|CPF_BlueprintReadOnly|CPF_Parm|CPF_OutParm|CPF_ReferenceParm|CPF_ContainsInstancedReference</text>
</g>
<!-- OnImpacted__0 -->
<g id="node20" class="node">
<title>OnImpacted__0</title>
<polygon fill="#eeeeee" stroke="black" points="1443.5,-1254.5 1443.5,-1292.5 1946.5,-1292.5 1946.5,-1254.5 1443.5,-1254.5"/>
<text text-anchor="start" x="1451.5" y="-1277.3" font-family="monospace" font-size="14.00">EX_LetValueOnPersistentFrame [K2Node_Event_PredictedImpact]</text>
<text text-anchor="start" x="1451.5" y="-1262.3" font-family="monospace" font-size="14.00">  EX_LocalVariable [PredictedImpact]</text>
</g>
<!-- OnImpacted&#45;&gt;OnImpacted__0 -->
<g id="edge15" class="edge">
<title>OnImpacted&#45;&gt;OnImpacted__0</title>
<path fill="none" stroke="black" d="M1695,-1524.18C1695,-1464.96 1695,-1355.87 1695,-1303.73"/>
<polygon fill="black" stroke="black" points="1698.5,-1303.86 1695,-1293.86 1691.5,-1303.86 1698.5,-1303.86"/>
</g>
<!-- OnImpacted__18 -->
<g id="node21" class="node">
<title>OnImpacted__18</title>
<polygon fill="#eeeeee" stroke="black" points="1468,-1127.5 1468,-1180.5 1922,-1180.5 1922,-1127.5 1468,-1127.5"/>
<text text-anchor="start" x="1476" y="-1165.3" font-family="monospace" font-size="14.00">EX_LetValueOnPersistentFrame [K2Node_Event_HitResult]</text>
<text text-anchor="start" x="1476" y="-1150.3" font-family="monospace" font-size="14.00">  EX_LocalOutVariable</text>
<text text-anchor="start" x="1476" y="-1135.3" font-family="monospace" font-size="14.00">    [HitResult]</text>
</g>
<!-- OnImpacted__0&#45;&gt;OnImpacted__18 -->
<g id="edge16" class="edge">
<title>OnImpacted__0&#45;&gt;OnImpacted__18</title>
<path fill="none" stroke="black" d="M1695,-1254.65C1695,-1238.05 1695,-1212.78 1695,-1191.85"/>
<polygon fill="black" stroke="black" points="1698.5,-1191.95 1695,-1181.95 1691.5,-1191.95 1698.5,-1191.95"/>
</g>
<!-- OnImpacted__36 -->
<g id="node22" class="node">
<title>OnImpacted__36</title>
<polygon fill="#eeeeee" stroke="black" points="1340,-1051.5 1340,-1089.5 2050,-1089.5 2050,-1051.5 1340,-1051.5"/>
<text text-anchor="start" x="1348" y="-1074.3" font-family="monospace" font-size="14.00">EX_LocalFinalFunction export PRJ_Crye_SnowBall_C&#45;&gt;ExecuteUbergraph_PRJ_Crye_SnowBall</text>
<text text-anchor="start" x="1348" y="-1059.3" font-family="monospace" font-size="14.00">  EX_IntConst 145</text>
</g>
<!-- OnImpacted__18&#45;&gt;OnImpacted__36 -->
<g id="edge17" class="edge">
<title>OnImpacted__18&#45;&gt;OnImpacted__36</title>
<path fill="none" stroke="black" d="M1695,-1127.66C1695,-1119.11 1695,-1109.51 1695,-1100.69"/>
<polygon fill="black" stroke="black" points="1698.5,-1100.84 1695,-1090.84 1691.5,-1100.84 1698.5,-1100.84"/>
</g>
<!-- OnImpacted__36&#45;&gt;ExecuteUbergraph_PRJ_Crye_SnowBall__145 -->
<g id="edge18" class="edge">
<title>OnImpacted__36:e&#45;&gt;ExecuteUbergraph_PRJ_Crye_SnowBall__145</title>
<path fill="none" stroke="red" d="M2051,-1070.5C2070.65,-1070.5 2066.79,-1044.45 2060.31,-1023.05"/>
<polygon fill="none" stroke="red" points="2063.63,-1021.97 2057.16,-1013.58 2056.99,-1024.17 2063.63,-1021.97"/>
</g>
<!-- OnImpacted__51 -->
<g id="node23" class="node">
<title>OnImpacted__51</title>
<polygon fill="#eeeeee" stroke="black" points="1637,-975.5 1637,-1013.5 1753,-1013.5 1753,-975.5 1637,-975.5"/>
<text text-anchor="start" x="1645" y="-998.3" font-family="monospace" font-size="14.00">EX_Return</text>
<text text-anchor="start" x="1645" y="-983.3" font-family="monospace" font-size="14.00">  EX_Nothing</text>
</g>
<!-- OnImpacted__36&#45;&gt;OnImpacted__51 -->
<g id="edge19" class="edge">
<title>OnImpacted__36&#45;&gt;OnImpacted__51</title>
<path fill="none" stroke="black" d="M1695,-1051.59C1695,-1043.5 1695,-1033.73 1695,-1024.63"/>
<polygon fill="black" stroke="black" points="1698.5,-1024.76 1695,-1014.76 1691.5,-1024.76 1698.5,-1024.76"/>
</g>
<!-- OnImpacted__53 -->
<g id="node24" class="node">
<title>OnImpacted__53</title>
<polygon fill="#eeeeee" stroke="black" points="1710,-1199.5 1710,-1235.5 1842,-1235.5 1842,-1199.5 1710,-1199.5"/>
<text text-anchor="start" x="1718" y="-1213.8" font-family="monospace" font-size="14.00">EX_EndOfScript</text>
</g>
</g>
</svg>
