<?xml version="1.0" encoding="UTF-8" standalone="no"?>
<!DOCTYPE svg PUBLIC "-//W3C//DTD SVG 1.1//EN"
 "http://www.w3.org/Graphics/SVG/1.1/DTD/svg11.dtd">
<!-- Generated by graphviz version 7.0.1 (0)
 -->
<!-- Pages: 1 -->
<svg width="2808pt" height="810pt"
 viewBox="0.00 0.00 2807.50 810.00" xmlns="http://www.w3.org/2000/svg" xmlns:xlink="http://www.w3.org/1999/xlink">
<g id="graph0" class="graph" transform="scale(1 1) rotate(0) translate(4 806)">
<polygon fill="white" stroke="none" points="-4,4 -4,-806 2803.5,-806 2803.5,4 -4,4"/>
<!-- Loadout_GrenadeProxyBase_C -->
<g id="node1" class="node">
<title>Loadout_GrenadeProxyBase_C</title>
<polygon fill="#88ff88" stroke="black" points="0,-658.5 0,-801.5 594,-801.5 594,-658.5 0,-658.5"/>
<text text-anchor="start" x="8" y="-786.3" font-family="monospace" font-size="14.00">ClassExport: Loadout_GrenadeProxyBase_C</text>
<text text-anchor="start" x="8" y="-771.3" font-family="monospace" font-size="14.00">  SuperStruct: import /Script/FSD&#45;&gt;LoadoutItemProxy</text>
<text text-anchor="start" x="8" y="-756.3" font-family="monospace" font-size="14.00">  Properties:</text>
<text text-anchor="start" x="8" y="-741.3" font-family="monospace" font-size="14.00">    StructProperty UberGraphFrame</text>
<text text-anchor="start" x="8" y="-726.3" font-family="monospace" font-size="14.00">      CPF_Transient|CPF_DuplicateTransient</text>
<text text-anchor="start" x="8" y="-711.3" font-family="monospace" font-size="14.00">    ObjectProperty StaticMesh</text>
<text text-anchor="start" x="8" y="-696.3" font-family="monospace" font-size="14.00">      CPF_BlueprintVisible|CPF_InstancedReference|CPF_NonTransactional</text>
<text text-anchor="start" x="8" y="-681.3" font-family="monospace" font-size="14.00">    ObjectProperty DefaultSceneRoot</text>
<text text-anchor="start" x="8" y="-666.3" font-family="monospace" font-size="14.00">      CPF_BlueprintVisible|CPF_InstancedReference|CPF_NonTransactional</text>
</g>
<!-- ExecuteUbergraph_Loadout_GrenadeProxyBase -->
<g id="node2" class="node">
<title>ExecuteUbergraph_Loadout_GrenadeProxyBase</title>
<polygon fill="#ff8888" stroke="black" points="612.5,-696 612.5,-764 1091.5,-764 1091.5,-696 612.5,-696"/>
<text text-anchor="start" x="620.5" y="-748.8" font-family="monospace" font-size="14.00">Function ExecuteUbergraph_Loadout_GrenadeProxyBase</text>
<text text-anchor="start" x="620.5" y="-733.8" font-family="monospace" font-size="14.00">  IntProperty EntryPoint</text>
<text text-anchor="start" x="620.5" y="-718.8" font-family="monospace" font-size="14.00">    CPF_BlueprintVisible|CPF_BlueprintReadOnly|CPF_Parm</text>
<text text-anchor="start" x="620.5" y="-703.8" font-family="monospace" font-size="14.00">  BoolProperty CallFunc_K2_AttachToComponent_ReturnValue</text>
</g>
<!-- ExecuteUbergraph_Loadout_GrenadeProxyBase__0 -->
<g id="node3" class="node">
<title>ExecuteUbergraph_Loadout_GrenadeProxyBase__0</title>
<polygon fill="#eeeeee" stroke="black" points="716,-583.5 716,-621.5 988,-621.5 988,-583.5 716,-583.5"/>
<text text-anchor="start" x="724" y="-606.3" font-family="monospace" font-size="14.00">EX_ComputedJump</text>
<text text-anchor="start" x="724" y="-591.3" font-family="monospace" font-size="14.00">  EX_LocalVariable [EntryPoint]</text>
</g>
<!-- ExecuteUbergraph_Loadout_GrenadeProxyBase&#45;&gt;ExecuteUbergraph_Loadout_GrenadeProxyBase__0 -->
<g id="edge1" class="edge">
<title>ExecuteUbergraph_Loadout_GrenadeProxyBase&#45;&gt;ExecuteUbergraph_Loadout_GrenadeProxyBase__0</title>
<path fill="none" stroke="black" d="M852,-696.03C852,-676.37 852,-651.63 852,-632.68"/>
<polygon fill="black" stroke="black" points="855.5,-632.69 852,-622.69 848.5,-632.69 855.5,-632.69"/>
</g>
<!-- ExecuteUbergraph_Loadout_GrenadeProxyBase__10 -->
<g id="node4" class="node">
<title>ExecuteUbergraph_Loadout_GrenadeProxyBase__10</title>
<polygon fill="#eeeeee" stroke="black" points="2122.5,-148.5 2122.5,-276.5 2799.5,-276.5 2799.5,-148.5 2122.5,-148.5"/>
<text text-anchor="start" x="2130.5" y="-261.3" font-family="monospace" font-size="14.00">EX_Context</text>
<text text-anchor="start" x="2130.5" y="-246.3" font-family="monospace" font-size="14.00">  EX_InstanceVariable [StaticMesh]</text>
<text text-anchor="start" x="2130.5" y="-231.3" font-family="monospace" font-size="14.00">  EX_FinalFunction import /Script/Engine&#45;&gt;SceneComponent&#45;&gt;K2_DetachFromComponent</text>
<text text-anchor="start" x="2130.5" y="-216.3" font-family="monospace" font-size="14.00">    EX_ByteConst 0</text>
<text text-anchor="start" x="2130.5" y="-201.3" font-family="monospace" font-size="14.00">    EX_ByteConst 0</text>
<text text-anchor="start" x="2130.5" y="-186.3" font-family="monospace" font-size="14.00">    EX_ByteConst 0</text>
<text text-anchor="start" x="2130.5" y="-171.3" font-family="monospace" font-size="14.00">    EX_True</text>
<text text-anchor="start" x="2130.5" y="-156.3" font-family="monospace" font-size="14.00">  RValue = []</text>
</g>
<!-- ExecuteUbergraph_Loadout_GrenadeProxyBase__49 -->
<g id="node5" class="node">
<title>ExecuteUbergraph_Loadout_GrenadeProxyBase__49</title>
<polygon fill="#eeeeee" stroke="black" points="2255.5,-75.5 2255.5,-111.5 2362.5,-111.5 2362.5,-75.5 2255.5,-75.5"/>
<text text-anchor="start" x="2263.5" y="-89.8" font-family="monospace" font-size="14.00">EX_Jump 157</text>
</g>
<!-- ExecuteUbergraph_Loadout_GrenadeProxyBase__10&#45;&gt;ExecuteUbergraph_Loadout_GrenadeProxyBase__49 -->
<g id="edge2" class="edge">
<title>ExecuteUbergraph_Loadout_GrenadeProxyBase__10&#45;&gt;ExecuteUbergraph_Loadout_GrenadeProxyBase__49</title>
<path fill="none" stroke="black" d="M2379.22,-148.55C2365.13,-137.71 2351.32,-127.07 2339.71,-118.14"/>
<polygon fill="black" stroke="black" points="2342.18,-115.62 2332.12,-112.3 2337.91,-121.17 2342.18,-115.62"/>
</g>
<!-- ExecuteUbergraph_Loadout_GrenadeProxyBase__157 -->
<g id="node9" class="node">
<title>ExecuteUbergraph_Loadout_GrenadeProxyBase__157</title>
<polygon fill="#eeeeee" stroke="black" points="2128,-0.5 2128,-38.5 2244,-38.5 2244,-0.5 2128,-0.5"/>
<text text-anchor="start" x="2136" y="-23.3" font-family="monospace" font-size="14.00">EX_Return</text>
<text text-anchor="start" x="2136" y="-8.3" font-family="monospace" font-size="14.00">  EX_Nothing</text>
</g>
<!-- ExecuteUbergraph_Loadout_GrenadeProxyBase__49&#45;&gt;ExecuteUbergraph_Loadout_GrenadeProxyBase__157 -->
<g id="edge3" class="edge">
<title>ExecuteUbergraph_Loadout_GrenadeProxyBase__49&#45;&gt;ExecuteUbergraph_Loadout_GrenadeProxyBase__157</title>
<path fill="none" stroke="black" d="M2280.16,-75.62C2263.99,-66.15 2243.56,-54.2 2225.87,-43.84"/>
<polygon fill="black" stroke="black" points="2228.08,-41.08 2217.68,-39.04 2224.54,-47.12 2228.08,-41.08"/>
</g>
<!-- ExecuteUbergraph_Loadout_GrenadeProxyBase__54 -->
<g id="node6" class="node">
<title>ExecuteUbergraph_Loadout_GrenadeProxyBase__54</title>
<polygon fill="#eeeeee" stroke="black" points="1502.5,-313.5 1502.5,-546.5 2179.5,-546.5 2179.5,-313.5 1502.5,-313.5"/>
<text text-anchor="start" x="1510.5" y="-531.3" font-family="monospace" font-size="14.00">EX_LetBool</text>
<text text-anchor="start" x="1510.5" y="-516.3" font-family="monospace" font-size="14.00">  EX_LocalVariable [CallFunc_K2_AttachToComponent_ReturnValue]</text>
<text text-anchor="start" x="1510.5" y="-501.3" font-family="monospace" font-size="14.00">  EX_Context</text>
<text text-anchor="start" x="1510.5" y="-486.3" font-family="monospace" font-size="14.00">    EX_InstanceVariable [StaticMesh]</text>
<text text-anchor="start" x="1510.5" y="-471.3" font-family="monospace" font-size="14.00">    EX_FinalFunction import /Script/Engine&#45;&gt;SceneComponent&#45;&gt;K2_AttachToComponent</text>
<text text-anchor="start" x="1510.5" y="-456.3" font-family="monospace" font-size="14.00">      EX_Context</text>
<text text-anchor="start" x="1510.5" y="-441.3" font-family="monospace" font-size="14.00">        EX_InstanceVariable [Character]</text>
<text text-anchor="start" x="1510.5" y="-426.3" font-family="monospace" font-size="14.00">        EX_InstanceVariable [Mesh]</text>
<text text-anchor="start" x="1510.5" y="-411.3" font-family="monospace" font-size="14.00">        RValue = [Mesh]</text>
<text text-anchor="start" x="1510.5" y="-396.3" font-family="monospace" font-size="14.00">      EX_NameConst Dwarf_HandR_AttachSocket</text>
<text text-anchor="start" x="1510.5" y="-381.3" font-family="monospace" font-size="14.00">      EX_ByteConst 2</text>
<text text-anchor="start" x="1510.5" y="-366.3" font-family="monospace" font-size="14.00">      EX_ByteConst 2</text>
<text text-anchor="start" x="1510.5" y="-351.3" font-family="monospace" font-size="14.00">      EX_ByteConst 2</text>
<text text-anchor="start" x="1510.5" y="-336.3" font-family="monospace" font-size="14.00">      EX_True</text>
<text text-anchor="start" x="1510.5" y="-321.3" font-family="monospace" font-size="14.00">    RValue = [CallFunc_K2_AttachToComponent_ReturnValue]</text>
</g>
<!-- ExecuteUbergraph_Loadout_GrenadeProxyBase__147 -->
<g id="node7" class="node">
<title>ExecuteUbergraph_Loadout_GrenadeProxyBase__147</title>
<polygon fill="#eeeeee" stroke="black" points="1927.5,-194.5 1927.5,-230.5 2034.5,-230.5 2034.5,-194.5 1927.5,-194.5"/>
<text text-anchor="start" x="1935.5" y="-208.8" font-family="monospace" font-size="14.00">EX_Jump 157</text>
</g>
<!-- ExecuteUbergraph_Loadout_GrenadeProxyBase__54&#45;&gt;ExecuteUbergraph_Loadout_GrenadeProxyBase__147 -->
<g id="edge4" class="edge">
<title>ExecuteUbergraph_Loadout_GrenadeProxyBase__54&#45;&gt;ExecuteUbergraph_Loadout_GrenadeProxyBase__147</title>
<path fill="none" stroke="black" d="M1915.92,-313.68C1933.99,-285.86 1951.63,-258.71 1963.97,-239.71"/>
<polygon fill="black" stroke="black" points="1966.75,-241.86 1969.26,-231.57 1960.88,-238.05 1966.75,-241.86"/>
</g>
<!-- ExecuteUbergraph_Loadout_GrenadeProxyBase__147&#45;&gt;ExecuteUbergraph_Loadout_GrenadeProxyBase__157 -->
<g id="edge5" class="edge">
<title>ExecuteUbergraph_Loadout_GrenadeProxyBase__147&#45;&gt;ExecuteUbergraph_Loadout_GrenadeProxyBase__157</title>
<path fill="none" stroke="black" d="M1999.19,-194.55C2035.31,-160.9 2116.25,-85.49 2158.75,-45.89"/>
<polygon fill="black" stroke="black" points="2160.92,-48.65 2165.85,-39.27 2156.15,-43.53 2160.92,-48.65"/>
</g>
<!-- ExecuteUbergraph_Loadout_GrenadeProxyBase__152 -->
<g id="node8" class="node">
<title>ExecuteUbergraph_Loadout_GrenadeProxyBase__152</title>
<polygon fill="#eeeeee" stroke="black" points="2481.5,-412 2481.5,-448 2580.5,-448 2580.5,-412 2481.5,-412"/>
<text text-anchor="start" x="2489.5" y="-426.3" font-family="monospace" font-size="14.00">EX_Jump 10</text>
</g>
<!-- ExecuteUbergraph_Loadout_GrenadeProxyBase__152&#45;&gt;ExecuteUbergraph_Loadout_GrenadeProxyBase__10 -->
<g id="edge6" class="edge">
<title>ExecuteUbergraph_Loadout_GrenadeProxyBase__152&#45;&gt;ExecuteUbergraph_Loadout_GrenadeProxyBase__10</title>
<path fill="none" stroke="black" d="M2525.51,-412.09C2516.84,-385.42 2499.49,-332 2484.97,-287.28"/>
<polygon fill="black" stroke="black" points="2488.32,-286.29 2481.91,-277.86 2481.67,-288.45 2488.32,-286.29"/>
</g>
<!-- ExecuteUbergraph_Loadout_GrenadeProxyBase__159 -->
<g id="node10" class="node">
<title>ExecuteUbergraph_Loadout_GrenadeProxyBase__159</title>
<polygon fill="#eeeeee" stroke="black" points="2381,-75.5 2381,-111.5 2513,-111.5 2513,-75.5 2381,-75.5"/>
<text text-anchor="start" x="2389" y="-89.8" font-family="monospace" font-size="14.00">EX_EndOfScript</text>
</g>
<!-- RecieveUnequipped -->
<g id="node11" class="node">
<title>RecieveUnequipped</title>
<polygon fill="#ff8888" stroke="black" points="2146.5,-712 2146.5,-748 2377.5,-748 2377.5,-712 2146.5,-712"/>
<text text-anchor="start" x="2154.5" y="-726.3" font-family="monospace" font-size="14.00">Function RecieveUnequipped</text>
</g>
<!-- RecieveUnequipped__0 -->
<g id="node12" class="node">
<title>RecieveUnequipped__0</title>
<polygon fill="#eeeeee" stroke="black" points="1849.5,-583.5 1849.5,-621.5 2674.5,-621.5 2674.5,-583.5 1849.5,-583.5"/>
<text text-anchor="start" x="1857.5" y="-606.3" font-family="monospace" font-size="14.00">EX_LocalFinalFunction export Loadout_GrenadeProxyBase_C&#45;&gt;ExecuteUbergraph_Loadout_GrenadeProxyBase</text>
<text text-anchor="start" x="1857.5" y="-591.3" font-family="monospace" font-size="14.00">  EX_IntConst 152</text>
</g>
<!-- RecieveUnequipped&#45;&gt;RecieveUnequipped__0 -->
<g id="edge7" class="edge">
<title>RecieveUnequipped&#45;&gt;RecieveUnequipped__0</title>
<path fill="none" stroke="black" d="M2262,-712.07C2262,-691.72 2262,-657.22 2262,-632.57"/>
<polygon fill="black" stroke="black" points="2265.5,-632.88 2262,-622.88 2258.5,-632.88 2265.5,-632.88"/>
</g>
<!-- RecieveUnequipped__0&#45;&gt;ExecuteUbergraph_Loadout_GrenadeProxyBase__152 -->
<g id="edge8" class="edge">
<title>RecieveUnequipped__0:e&#45;&gt;ExecuteUbergraph_Loadout_GrenadeProxyBase__152</title>
<path fill="none" stroke="red" d="M2676,-602.5C2752.58,-602.5 2626.29,-501.54 2563.35,-454.55"/>
<polygon fill="none" stroke="red" points="2565.53,-451.8 2555.41,-448.66 2561.36,-457.43 2565.53,-451.8"/>
</g>
<!-- RecieveUnequipped__15 -->
<g id="node13" class="node">
<title>RecieveUnequipped__15</title>
<polygon fill="#eeeeee" stroke="black" points="2204,-411 2204,-449 2320,-449 2320,-411 2204,-411"/>
<text text-anchor="start" x="2212" y="-433.8" font-family="monospace" font-size="14.00">EX_Return</text>
<text text-anchor="start" x="2212" y="-418.8" font-family="monospace" font-size="14.00">  EX_Nothing</text>
</g>
<!-- RecieveUnequipped__0&#45;&gt;RecieveUnequipped__15 -->
<g id="edge9" class="edge">
<title>RecieveUnequipped__0&#45;&gt;RecieveUnequipped__15</title>
<path fill="none" stroke="black" d="M2262,-583.58C2262,-554.28 2262,-495.88 2262,-460.43"/>
<polygon fill="black" stroke="black" points="2265.5,-460.45 2262,-450.45 2258.5,-460.45 2265.5,-460.45"/>
</g>
<!-- RecieveUnequipped__17 -->
<g id="node14" class="node">
<title>RecieveUnequipped__17</title>
<polygon fill="#eeeeee" stroke="black" points="2262,-1.5 2262,-37.5 2394,-37.5 2394,-1.5 2262,-1.5"/>
<text text-anchor="start" x="2270" y="-15.8" font-family="monospace" font-size="14.00">EX_EndOfScript</text>
</g>
<!-- RecieveEquipped -->
<g id="node15" class="node">
<title>RecieveEquipped</title>
<polygon fill="#ff8888" stroke="black" points="1311.5,-712 1311.5,-748 1526.5,-748 1526.5,-712 1311.5,-712"/>
<text text-anchor="start" x="1319.5" y="-726.3" font-family="monospace" font-size="14.00">Function RecieveEquipped</text>
</g>
<!-- RecieveEquipped__0 -->
<g id="node16" class="node">
<title>RecieveEquipped__0</title>
<polygon fill="#eeeeee" stroke="black" points="1006.5,-583.5 1006.5,-621.5 1831.5,-621.5 1831.5,-583.5 1006.5,-583.5"/>
<text text-anchor="start" x="1014.5" y="-606.3" font-family="monospace" font-size="14.00">EX_LocalFinalFunction export Loadout_GrenadeProxyBase_C&#45;&gt;ExecuteUbergraph_Loadout_GrenadeProxyBase</text>
<text text-anchor="start" x="1014.5" y="-591.3" font-family="monospace" font-size="14.00">  EX_IntConst 54</text>
</g>
<!-- RecieveEquipped&#45;&gt;RecieveEquipped__0 -->
<g id="edge10" class="edge">
<title>RecieveEquipped&#45;&gt;RecieveEquipped__0</title>
<path fill="none" stroke="black" d="M1419,-712.07C1419,-691.72 1419,-657.22 1419,-632.57"/>
<polygon fill="black" stroke="black" points="1422.5,-632.88 1419,-622.88 1415.5,-632.88 1422.5,-632.88"/>
</g>
<!-- RecieveEquipped__0&#45;&gt;ExecuteUbergraph_Loadout_GrenadeProxyBase__54 -->
<g id="edge11" class="edge">
<title>RecieveEquipped__0:e&#45;&gt;ExecuteUbergraph_Loadout_GrenadeProxyBase__54</title>
<path fill="none" stroke="red" d="M1833,-602.5C1836.19,-602.5 1838.15,-583.26 1839.33,-557.66"/>
<polygon fill="none" stroke="red" points="1842.82,-557.99 1839.73,-547.86 1835.83,-557.71 1842.82,-557.99"/>
</g>
<!-- RecieveEquipped__15 -->
<g id="node17" class="node">
<title>RecieveEquipped__15</title>
<polygon fill="#eeeeee" stroke="black" points="1361,-411 1361,-449 1477,-449 1477,-411 1361,-411"/>
<text text-anchor="start" x="1369" y="-433.8" font-family="monospace" font-size="14.00">EX_Return</text>
<text text-anchor="start" x="1369" y="-418.8" font-family="monospace" font-size="14.00">  EX_Nothing</text>
</g>
<!-- RecieveEquipped__0&#45;&gt;RecieveEquipped__15 -->
<g id="edge12" class="edge">
<title>RecieveEquipped__0&#45;&gt;RecieveEquipped__15</title>
<path fill="none" stroke="black" d="M1419,-583.58C1419,-554.28 1419,-495.88 1419,-460.43"/>
<polygon fill="black" stroke="black" points="1422.5,-460.45 1419,-450.45 1415.5,-460.45 1422.5,-460.45"/>
</g>
<!-- RecieveEquipped__17 -->
<g id="node18" class="node">
<title>RecieveEquipped__17</title>
<polygon fill="#eeeeee" stroke="black" points="2396,-712 2396,-748 2528,-748 2528,-712 2396,-712"/>
<text text-anchor="start" x="2404" y="-726.3" font-family="monospace" font-size="14.00">EX_EndOfScript</text>
</g>
</g>
</svg>
