<?xml version="1.0" encoding="UTF-8" standalone="no"?>
<!DOCTYPE svg PUBLIC "-//W3C//DTD SVG 1.1//EN"
 "http://www.w3.org/Graphics/SVG/1.1/DTD/svg11.dtd">
<!-- Generated by graphviz version 7.0.1 (0)
 -->
<!-- Pages: 1 -->
<svg width="2489pt" height="632pt"
 viewBox="0.00 0.00 2489.00 632.00" xmlns="http://www.w3.org/2000/svg" xmlns:xlink="http://www.w3.org/1999/xlink">
<g id="graph0" class="graph" transform="scale(1 1) rotate(0) translate(4 628)">
<polygon fill="white" stroke="none" points="-4,4 -4,-628 2485,-628 2485,4 -4,4"/>
<!-- UI_Forge_SchematicList_Separator_C -->
<g id="node1" class="node">
<title>UI_Forge_SchematicList_Separator_C</title>
<polygon fill="#88ff88" stroke="black" points="0,-450.5 0,-623.5 850,-623.5 850,-450.5 0,-450.5"/>
<text text-anchor="start" x="8" y="-608.3" font-family="monospace" font-size="14.00">ClassExport: UI_Forge_SchematicList_Separator_C</text>
<text text-anchor="start" x="8" y="-593.3" font-family="monospace" font-size="14.00">  SuperStruct: import /Script/UMG&#45;&gt;UserWidget</text>
<text text-anchor="start" x="8" y="-578.3" font-family="monospace" font-size="14.00">  Properties:</text>
<text text-anchor="start" x="8" y="-563.3" font-family="monospace" font-size="14.00">    StructProperty UberGraphFrame</text>
<text text-anchor="start" x="8" y="-548.3" font-family="monospace" font-size="14.00">      CPF_Transient|CPF_DuplicateTransient</text>
<text text-anchor="start" x="8" y="-533.3" font-family="monospace" font-size="14.00">    ObjectProperty Basic_Menu_ColorBar</text>
<text text-anchor="start" x="8" y="-518.3" font-family="monospace" font-size="14.00">      CPF_BlueprintVisible|CPF_ExportObject|CPF_InstancedReference|CPF_RepSkip|CPF_PersistentInstance</text>
<text text-anchor="start" x="8" y="-503.3" font-family="monospace" font-size="14.00">    ObjectProperty CategoryHeader</text>
<text text-anchor="start" x="8" y="-488.3" font-family="monospace" font-size="14.00">      CPF_BlueprintVisible|CPF_ExportObject|CPF_InstancedReference|CPF_RepSkip|CPF_PersistentInstance</text>
<text text-anchor="start" x="8" y="-473.3" font-family="monospace" font-size="14.00">    TextProperty Category</text>
<text text-anchor="start" x="8" y="-458.3" font-family="monospace" font-size="14.00">      CPF_Edit|CPF_BlueprintVisible|CPF_BlueprintReadOnly|CPF_ExposeOnSpawn</text>
</g>
<!-- ExecuteUbergraph_UI_Forge_SchematicList_Separator -->
<g id="node2" class="node">
<title>ExecuteUbergraph_UI_Forge_SchematicList_Separator</title>
<polygon fill="#ff8888" stroke="black" points="868.5,-495.5 868.5,-578.5 1363.5,-578.5 1363.5,-495.5 868.5,-495.5"/>
<text text-anchor="start" x="876.5" y="-563.3" font-family="monospace" font-size="14.00">Function ExecuteUbergraph_UI_Forge_SchematicList_Separator</text>
<text text-anchor="start" x="876.5" y="-548.3" font-family="monospace" font-size="14.00">  IntProperty EntryPoint</text>
<text text-anchor="start" x="876.5" y="-533.3" font-family="monospace" font-size="14.00">    CPF_BlueprintVisible|CPF_BlueprintReadOnly|CPF_Parm</text>
<text text-anchor="start" x="876.5" y="-518.3" font-family="monospace" font-size="14.00">  TextProperty CallFunc_TextToUpper_ReturnValue</text>
<text text-anchor="start" x="876.5" y="-503.3" font-family="monospace" font-size="14.00">  BoolProperty K2Node_Event_IsDesignTime</text>
</g>
<!-- ExecuteUbergraph_UI_Forge_SchematicList_Separator__0 -->
<g id="node3" class="node">
<title>ExecuteUbergraph_UI_Forge_SchematicList_Separator__0</title>
<polygon fill="#eeeeee" stroke="black" points="980,-375.5 980,-413.5 1252,-413.5 1252,-375.5 980,-375.5"/>
<text text-anchor="start" x="988" y="-398.3" font-family="monospace" font-size="14.00">EX_ComputedJump</text>
<text text-anchor="start" x="988" y="-383.3" font-family="monospace" font-size="14.00">  EX_LocalVariable [EntryPoint]</text>
</g>
<!-- ExecuteUbergraph_UI_Forge_SchematicList_Separator&#45;&gt;ExecuteUbergraph_UI_Forge_SchematicList_Separator__0 -->
<g id="edge1" class="edge">
<title>ExecuteUbergraph_UI_Forge_SchematicList_Separator&#45;&gt;ExecuteUbergraph_UI_Forge_SchematicList_Separator__0</title>
<path fill="none" stroke="black" d="M1116,-495.74C1116,-473.07 1116,-445.27 1116,-424.7"/>
<polygon fill="black" stroke="black" points="1119.5,-424.75 1116,-414.75 1112.5,-424.75 1119.5,-424.75"/>
</g>
<!-- ExecuteUbergraph_UI_Forge_SchematicList_Separator__10 -->
<g id="node4" class="node">
<title>ExecuteUbergraph_UI_Forge_SchematicList_Separator__10</title>
<polygon fill="#eeeeee" stroke="black" points="1811.5,-195.5 1811.5,-263.5 2380.5,-263.5 2380.5,-195.5 1811.5,-195.5"/>
<text text-anchor="start" x="1819.5" y="-248.3" font-family="monospace" font-size="14.00">EX_Let</text>
<text text-anchor="start" x="1819.5" y="-233.3" font-family="monospace" font-size="14.00">  EX_LocalVariable [CallFunc_TextToUpper_ReturnValue]</text>
<text text-anchor="start" x="1819.5" y="-218.3" font-family="monospace" font-size="14.00">  EX_CallMath import /Script/Engine&#45;&gt;KismetTextLibrary&#45;&gt;TextToUpper</text>
<text text-anchor="start" x="1819.5" y="-203.3" font-family="monospace" font-size="14.00">    EX_InstanceVariable [Category]</text>
</g>
<!-- ExecuteUbergraph_UI_Forge_SchematicList_Separator__47 -->
<g id="node5" class="node">
<title>ExecuteUbergraph_UI_Forge_SchematicList_Separator__47</title>
<polygon fill="#eeeeee" stroke="black" points="1861,-75.5 1861,-158.5 2331,-158.5 2331,-75.5 1861,-75.5"/>
<text text-anchor="start" x="1869" y="-143.3" font-family="monospace" font-size="14.00">EX_Context</text>
<text text-anchor="start" x="1869" y="-128.3" font-family="monospace" font-size="14.00">  EX_InstanceVariable [CategoryHeader]</text>
<text text-anchor="start" x="1869" y="-113.3" font-family="monospace" font-size="14.00">  EX_VirtualFunction SetText</text>
<text text-anchor="start" x="1869" y="-98.3" font-family="monospace" font-size="14.00">    EX_LocalVariable [CallFunc_TextToUpper_ReturnValue]</text>
<text text-anchor="start" x="1869" y="-83.3" font-family="monospace" font-size="14.00">  RValue = []</text>
</g>
<!-- ExecuteUbergraph_UI_Forge_SchematicList_Separator__10&#45;&gt;ExecuteUbergraph_UI_Forge_SchematicList_Separator__47 -->
<g id="edge2" class="edge">
<title>ExecuteUbergraph_UI_Forge_SchematicList_Separator__10&#45;&gt;ExecuteUbergraph_UI_Forge_SchematicList_Separator__47</title>
<path fill="none" stroke="black" d="M2096,-195.65C2096,-187.51 2096,-178.59 2096,-169.78"/>
<polygon fill="black" stroke="black" points="2099.5,-169.87 2096,-159.87 2092.5,-169.87 2099.5,-169.87"/>
</g>
<!-- ExecuteUbergraph_UI_Forge_SchematicList_Separator__92 -->
<g id="node6" class="node">
<title>ExecuteUbergraph_UI_Forge_SchematicList_Separator__92</title>
<polygon fill="#eeeeee" stroke="black" points="2038,-0.5 2038,-38.5 2154,-38.5 2154,-0.5 2038,-0.5"/>
<text text-anchor="start" x="2046" y="-23.3" font-family="monospace" font-size="14.00">EX_Return</text>
<text text-anchor="start" x="2046" y="-8.3" font-family="monospace" font-size="14.00">  EX_Nothing</text>
</g>
<!-- ExecuteUbergraph_UI_Forge_SchematicList_Separator__47&#45;&gt;ExecuteUbergraph_UI_Forge_SchematicList_Separator__92 -->
<g id="edge3" class="edge">
<title>ExecuteUbergraph_UI_Forge_SchematicList_Separator__47&#45;&gt;ExecuteUbergraph_UI_Forge_SchematicList_Separator__92</title>
<path fill="none" stroke="black" d="M2096,-75.78C2096,-67.01 2096,-57.89 2096,-49.65"/>
<polygon fill="black" stroke="black" points="2099.5,-49.86 2096,-39.86 2092.5,-49.86 2099.5,-49.86"/>
</g>
<!-- ExecuteUbergraph_UI_Forge_SchematicList_Separator__94 -->
<g id="node7" class="node">
<title>ExecuteUbergraph_UI_Forge_SchematicList_Separator__94</title>
<polygon fill="#eeeeee" stroke="black" points="2114,-301.5 2114,-337.5 2246,-337.5 2246,-301.5 2114,-301.5"/>
<text text-anchor="start" x="2122" y="-315.8" font-family="monospace" font-size="14.00">EX_EndOfScript</text>
</g>
<!-- PreConstruct -->
<g id="node8" class="node">
<title>PreConstruct</title>
<polygon fill="#ff8888" stroke="black" points="1382,-510.5 1382,-563.5 1852,-563.5 1852,-510.5 1382,-510.5"/>
<text text-anchor="start" x="1390" y="-548.3" font-family="monospace" font-size="14.00">Function PreConstruct</text>
<text text-anchor="start" x="1390" y="-533.3" font-family="monospace" font-size="14.00">  BoolProperty IsDesignTime</text>
<text text-anchor="start" x="1390" y="-518.3" font-family="monospace" font-size="14.00">    CPF_BlueprintVisible|CPF_BlueprintReadOnly|CPF_Parm</text>
</g>
<!-- PreConstruct__0 -->
<g id="node9" class="node">
<title>PreConstruct__0</title>
<polygon fill="#eeeeee" stroke="black" points="1377.5,-375.5 1377.5,-413.5 1856.5,-413.5 1856.5,-375.5 1377.5,-375.5"/>
<text text-anchor="start" x="1385.5" y="-398.3" font-family="monospace" font-size="14.00">EX_LetValueOnPersistentFrame [K2Node_Event_IsDesignTime]</text>
<text text-anchor="start" x="1385.5" y="-383.3" font-family="monospace" font-size="14.00">  EX_LocalVariable [IsDesignTime]</text>
</g>
<!-- PreConstruct&#45;&gt;PreConstruct__0 -->
<g id="edge4" class="edge">
<title>PreConstruct&#45;&gt;PreConstruct__0</title>
<path fill="none" stroke="black" d="M1617,-510.56C1617,-486.36 1617,-450 1617,-424.65"/>
<polygon fill="black" stroke="black" points="1620.5,-424.71 1617,-414.71 1613.5,-424.71 1620.5,-424.71"/>
</g>
<!-- PreConstruct__18 -->
<g id="node10" class="node">
<title>PreConstruct__18</title>
<polygon fill="#eeeeee" stroke="black" points="1138.5,-300.5 1138.5,-338.5 2095.5,-338.5 2095.5,-300.5 1138.5,-300.5"/>
<text text-anchor="start" x="1146.5" y="-323.3" font-family="monospace" font-size="14.00">EX_LocalFinalFunction export UI_Forge_SchematicList_Separator_C&#45;&gt;ExecuteUbergraph_UI_Forge_SchematicList_Separator</text>
<text text-anchor="start" x="1146.5" y="-308.3" font-family="monospace" font-size="14.00">  EX_IntConst 10</text>
</g>
<!-- PreConstruct__0&#45;&gt;PreConstruct__18 -->
<g id="edge5" class="edge">
<title>PreConstruct__0&#45;&gt;PreConstruct__18</title>
<path fill="none" stroke="black" d="M1617,-375.83C1617,-368 1617,-358.57 1617,-349.74"/>
<polygon fill="black" stroke="black" points="1620.5,-349.78 1617,-339.78 1613.5,-349.78 1620.5,-349.78"/>
</g>
<!-- PreConstruct__18&#45;&gt;ExecuteUbergraph_UI_Forge_SchematicList_Separator__10 -->
<g id="edge6" class="edge">
<title>PreConstruct__18:e&#45;&gt;ExecuteUbergraph_UI_Forge_SchematicList_Separator__10</title>
<path fill="none" stroke="red" d="M2097,-319.5C2101.97,-319.5 2101.69,-296.99 2100.18,-274.61"/>
<polygon fill="none" stroke="red" points="2103.69,-274.6 2099.45,-264.9 2096.71,-275.13 2103.69,-274.6"/>
</g>
<!-- PreConstruct__33 -->
<g id="node11" class="node">
<title>PreConstruct__33</title>
<polygon fill="#eeeeee" stroke="black" points="1559,-210.5 1559,-248.5 1675,-248.5 1675,-210.5 1559,-210.5"/>
<text text-anchor="start" x="1567" y="-233.3" font-family="monospace" font-size="14.00">EX_Return</text>
<text text-anchor="start" x="1567" y="-218.3" font-family="monospace" font-size="14.00">  EX_Nothing</text>
</g>
<!-- PreConstruct__18&#45;&gt;PreConstruct__33 -->
<g id="edge7" class="edge">
<title>PreConstruct__18&#45;&gt;PreConstruct__33</title>
<path fill="none" stroke="black" d="M1617,-300.69C1617,-288.88 1617,-273.12 1617,-259.52"/>
<polygon fill="black" stroke="black" points="1620.5,-259.8 1617,-249.8 1613.5,-259.8 1620.5,-259.8"/>
</g>
<!-- PreConstruct__35 -->
<g id="node12" class="node">
<title>PreConstruct__35</title>
<polygon fill="#eeeeee" stroke="black" points="2349,-99 2349,-135 2481,-135 2481,-99 2349,-99"/>
<text text-anchor="start" x="2357" y="-113.3" font-family="monospace" font-size="14.00">EX_EndOfScript</text>
</g>
</g>
</svg>
