<?xml version="1.0" encoding="UTF-8" standalone="no"?>
<!DOCTYPE svg PUBLIC "-//W3C//DTD SVG 1.1//EN"
 "http://www.w3.org/Graphics/SVG/1.1/DTD/svg11.dtd">
<!-- Generated by graphviz version 7.0.1 (0)
 -->
<!-- Pages: 1 -->
<svg width="2440pt" height="707pt"
 viewBox="0.00 0.00 2440.00 707.00" xmlns="http://www.w3.org/2000/svg" xmlns:xlink="http://www.w3.org/1999/xlink">
<g id="graph0" class="graph" transform="scale(1 1) rotate(0) translate(4 703)">
<polygon fill="white" stroke="none" points="-4,4 -4,-703 2436,-703 2436,4 -4,4"/>
<!-- UI_Forge_SchematicIconBG_C -->
<g id="node1" class="node">
<title>UI_Forge_SchematicIconBG_C</title>
<polygon fill="#88ff88" stroke="black" points="0,-495.5 0,-698.5 850,-698.5 850,-495.5 0,-495.5"/>
<text text-anchor="start" x="8" y="-683.3" font-family="monospace" font-size="14.00">ClassExport: UI_Forge_SchematicIconBG_C</text>
<text text-anchor="start" x="8" y="-668.3" font-family="monospace" font-size="14.00">  SuperStruct: import /Script/UMG&#45;&gt;UserWidget</text>
<text text-anchor="start" x="8" y="-653.3" font-family="monospace" font-size="14.00">  Properties:</text>
<text text-anchor="start" x="8" y="-638.3" font-family="monospace" font-size="14.00">    StructProperty UberGraphFrame</text>
<text text-anchor="start" x="8" y="-623.3" font-family="monospace" font-size="14.00">      CPF_Transient|CPF_DuplicateTransient</text>
<text text-anchor="start" x="8" y="-608.3" font-family="monospace" font-size="14.00">    ObjectProperty Border_Outside</text>
<text text-anchor="start" x="8" y="-593.3" font-family="monospace" font-size="14.00">      CPF_BlueprintVisible|CPF_ExportObject|CPF_InstancedReference|CPF_RepSkip|CPF_PersistentInstance</text>
<text text-anchor="start" x="8" y="-578.3" font-family="monospace" font-size="14.00">    ObjectProperty BorderBG</text>
<text text-anchor="start" x="8" y="-563.3" font-family="monospace" font-size="14.00">      CPF_BlueprintVisible|CPF_ExportObject|CPF_InstancedReference|CPF_RepSkip|CPF_PersistentInstance</text>
<text text-anchor="start" x="8" y="-548.3" font-family="monospace" font-size="14.00">    ObjectProperty Shadow</text>
<text text-anchor="start" x="8" y="-533.3" font-family="monospace" font-size="14.00">      CPF_BlueprintVisible|CPF_ExportObject|CPF_InstancedReference|CPF_RepSkip|CPF_PersistentInstance</text>
<text text-anchor="start" x="8" y="-518.3" font-family="monospace" font-size="14.00">    ObjectProperty SizeBox_0</text>
<text text-anchor="start" x="8" y="-503.3" font-family="monospace" font-size="14.00">      CPF_BlueprintVisible|CPF_ExportObject|CPF_InstancedReference|CPF_RepSkip|CPF_PersistentInstance</text>
</g>
<!-- ExecuteUbergraph_UI_Forge_SchematicIconBG -->
<g id="node2" class="node">
<title>ExecuteUbergraph_UI_Forge_SchematicIconBG</title>
<polygon fill="#ff8888" stroke="black" points="868,-555.5 868,-638.5 1338,-638.5 1338,-555.5 868,-555.5"/>
<text text-anchor="start" x="876" y="-623.3" font-family="monospace" font-size="14.00">Function ExecuteUbergraph_UI_Forge_SchematicIconBG</text>
<text text-anchor="start" x="876" y="-608.3" font-family="monospace" font-size="14.00">  IntProperty EntryPoint</text>
<text text-anchor="start" x="876" y="-593.3" font-family="monospace" font-size="14.00">    CPF_BlueprintVisible|CPF_BlueprintReadOnly|CPF_Parm</text>
<text text-anchor="start" x="876" y="-578.3" font-family="monospace" font-size="14.00">  StructProperty CallFunc_MenuColors_OutputColor</text>
<text text-anchor="start" x="876" y="-563.3" font-family="monospace" font-size="14.00">  BoolProperty K2Node_Event_IsDesignTime</text>
</g>
<!-- ExecuteUbergraph_UI_Forge_SchematicIconBG__0 -->
<g id="node3" class="node">
<title>ExecuteUbergraph_UI_Forge_SchematicIconBG__0</title>
<polygon fill="#eeeeee" stroke="black" points="967,-420.5 967,-458.5 1239,-458.5 1239,-420.5 967,-420.5"/>
<text text-anchor="start" x="975" y="-443.3" font-family="monospace" font-size="14.00">EX_ComputedJump</text>
<text text-anchor="start" x="975" y="-428.3" font-family="monospace" font-size="14.00">  EX_LocalVariable [EntryPoint]</text>
</g>
<!-- ExecuteUbergraph_UI_Forge_SchematicIconBG&#45;&gt;ExecuteUbergraph_UI_Forge_SchematicIconBG__0 -->
<g id="edge1" class="edge">
<title>ExecuteUbergraph_UI_Forge_SchematicIconBG&#45;&gt;ExecuteUbergraph_UI_Forge_SchematicIconBG__0</title>
<path fill="none" stroke="black" d="M1103,-555.55C1103,-528.61 1103,-493.83 1103,-469.6"/>
<polygon fill="black" stroke="black" points="1106.5,-469.82 1103,-459.82 1099.5,-469.82 1106.5,-469.82"/>
</g>
<!-- ExecuteUbergraph_UI_Forge_SchematicIconBG__10 -->
<g id="node4" class="node">
<title>ExecuteUbergraph_UI_Forge_SchematicIconBG__10</title>
<polygon fill="#eeeeee" stroke="black" points="1646.5,-195.5 1646.5,-308.5 2405.5,-308.5 2405.5,-195.5 1646.5,-195.5"/>
<text text-anchor="start" x="1654.5" y="-293.3" font-family="monospace" font-size="14.00">EX_Context</text>
<text text-anchor="start" x="1654.5" y="-278.3" font-family="monospace" font-size="14.00">  EX_ObjectConst import /Game/UI/Art/WidgetParts/LIB_MenuColors&#45;&gt;Default__LIB_MenuColors_C</text>
<text text-anchor="start" x="1654.5" y="-263.3" font-family="monospace" font-size="14.00">  EX_LocalVirtualFunction MenuColors</text>
<text text-anchor="start" x="1654.5" y="-248.3" font-family="monospace" font-size="14.00">    EX_ByteConst 0</text>
<text text-anchor="start" x="1654.5" y="-233.3" font-family="monospace" font-size="14.00">    EX_Self</text>
<text text-anchor="start" x="1654.5" y="-218.3" font-family="monospace" font-size="14.00">    EX_LocalVariable [CallFunc_MenuColors_OutputColor]</text>
<text text-anchor="start" x="1654.5" y="-203.3" font-family="monospace" font-size="14.00">  RValue = []</text>
</g>
<!-- ExecuteUbergraph_UI_Forge_SchematicIconBG__58 -->
<g id="node5" class="node">
<title>ExecuteUbergraph_UI_Forge_SchematicIconBG__58</title>
<polygon fill="#eeeeee" stroke="black" points="1770,-75.5 1770,-158.5 2282,-158.5 2282,-75.5 1770,-75.5"/>
<text text-anchor="start" x="1778" y="-143.3" font-family="monospace" font-size="14.00">EX_Context</text>
<text text-anchor="start" x="1778" y="-128.3" font-family="monospace" font-size="14.00">  EX_InstanceVariable [Border_Outside]</text>
<text text-anchor="start" x="1778" y="-113.3" font-family="monospace" font-size="14.00">  EX_FinalFunction import /Script/UMG&#45;&gt;Border&#45;&gt;SetBrushColor</text>
<text text-anchor="start" x="1778" y="-98.3" font-family="monospace" font-size="14.00">    EX_LocalVariable [CallFunc_MenuColors_OutputColor]</text>
<text text-anchor="start" x="1778" y="-83.3" font-family="monospace" font-size="14.00">  RValue = []</text>
</g>
<!-- ExecuteUbergraph_UI_Forge_SchematicIconBG__10&#45;&gt;ExecuteUbergraph_UI_Forge_SchematicIconBG__58 -->
<g id="edge2" class="edge">
<title>ExecuteUbergraph_UI_Forge_SchematicIconBG__10&#45;&gt;ExecuteUbergraph_UI_Forge_SchematicIconBG__58</title>
<path fill="none" stroke="black" d="M2026,-195.75C2026,-187.12 2026,-178.22 2026,-169.67"/>
<polygon fill="black" stroke="black" points="2029.5,-169.79 2026,-159.79 2022.5,-169.79 2029.5,-169.79"/>
</g>
<!-- ExecuteUbergraph_UI_Forge_SchematicIconBG__99 -->
<g id="node6" class="node">
<title>ExecuteUbergraph_UI_Forge_SchematicIconBG__99</title>
<polygon fill="#eeeeee" stroke="black" points="1968,-0.5 1968,-38.5 2084,-38.5 2084,-0.5 1968,-0.5"/>
<text text-anchor="start" x="1976" y="-23.3" font-family="monospace" font-size="14.00">EX_Return</text>
<text text-anchor="start" x="1976" y="-8.3" font-family="monospace" font-size="14.00">  EX_Nothing</text>
</g>
<!-- ExecuteUbergraph_UI_Forge_SchematicIconBG__58&#45;&gt;ExecuteUbergraph_UI_Forge_SchematicIconBG__99 -->
<g id="edge3" class="edge">
<title>ExecuteUbergraph_UI_Forge_SchematicIconBG__58&#45;&gt;ExecuteUbergraph_UI_Forge_SchematicIconBG__99</title>
<path fill="none" stroke="black" d="M2026,-75.78C2026,-67.01 2026,-57.89 2026,-49.65"/>
<polygon fill="black" stroke="black" points="2029.5,-49.86 2026,-39.86 2022.5,-49.86 2029.5,-49.86"/>
</g>
<!-- ExecuteUbergraph_UI_Forge_SchematicIconBG__101 -->
<g id="node7" class="node">
<title>ExecuteUbergraph_UI_Forge_SchematicIconBG__101</title>
<polygon fill="#eeeeee" stroke="black" points="2022,-346.5 2022,-382.5 2154,-382.5 2154,-346.5 2022,-346.5"/>
<text text-anchor="start" x="2030" y="-360.8" font-family="monospace" font-size="14.00">EX_EndOfScript</text>
</g>
<!-- PreConstruct -->
<g id="node8" class="node">
<title>PreConstruct</title>
<polygon fill="#ff8888" stroke="black" points="1356,-570.5 1356,-623.5 1826,-623.5 1826,-570.5 1356,-570.5"/>
<text text-anchor="start" x="1364" y="-608.3" font-family="monospace" font-size="14.00">Function PreConstruct</text>
<text text-anchor="start" x="1364" y="-593.3" font-family="monospace" font-size="14.00">  BoolProperty IsDesignTime</text>
<text text-anchor="start" x="1364" y="-578.3" font-family="monospace" font-size="14.00">    CPF_BlueprintVisible|CPF_BlueprintReadOnly|CPF_Parm</text>
</g>
<!-- PreConstruct__0 -->
<g id="node9" class="node">
<title>PreConstruct__0</title>
<polygon fill="#eeeeee" stroke="black" points="1351.5,-420.5 1351.5,-458.5 1830.5,-458.5 1830.5,-420.5 1351.5,-420.5"/>
<text text-anchor="start" x="1359.5" y="-443.3" font-family="monospace" font-size="14.00">EX_LetValueOnPersistentFrame [K2Node_Event_IsDesignTime]</text>
<text text-anchor="start" x="1359.5" y="-428.3" font-family="monospace" font-size="14.00">  EX_LocalVariable [IsDesignTime]</text>
</g>
<!-- PreConstruct&#45;&gt;PreConstruct__0 -->
<g id="edge4" class="edge">
<title>PreConstruct&#45;&gt;PreConstruct__0</title>
<path fill="none" stroke="black" d="M1591,-570.67C1591,-542.96 1591,-498.62 1591,-469.52"/>
<polygon fill="black" stroke="black" points="1594.5,-469.6 1591,-459.6 1587.5,-469.6 1594.5,-469.6"/>
</g>
<!-- PreConstruct__18 -->
<g id="node10" class="node">
<title>PreConstruct__18</title>
<polygon fill="#eeeeee" stroke="black" points="1178.5,-345.5 1178.5,-383.5 2003.5,-383.5 2003.5,-345.5 1178.5,-345.5"/>
<text text-anchor="start" x="1186.5" y="-368.3" font-family="monospace" font-size="14.00">EX_LocalFinalFunction export UI_Forge_SchematicIconBG_C&#45;&gt;ExecuteUbergraph_UI_Forge_SchematicIconBG</text>
<text text-anchor="start" x="1186.5" y="-353.3" font-family="monospace" font-size="14.00">  EX_IntConst 10</text>
</g>
<!-- PreConstruct__0&#45;&gt;PreConstruct__18 -->
<g id="edge5" class="edge">
<title>PreConstruct__0&#45;&gt;PreConstruct__18</title>
<path fill="none" stroke="black" d="M1591,-420.83C1591,-413 1591,-403.57 1591,-394.74"/>
<polygon fill="black" stroke="black" points="1594.5,-394.78 1591,-384.78 1587.5,-394.78 1594.5,-394.78"/>
</g>
<!-- PreConstruct__18&#45;&gt;ExecuteUbergraph_UI_Forge_SchematicIconBG__10 -->
<g id="edge6" class="edge">
<title>PreConstruct__18:e&#45;&gt;ExecuteUbergraph_UI_Forge_SchematicIconBG__10</title>
<path fill="none" stroke="red" d="M2005,-364.5C2007.74,-364.5 2012.08,-343.37 2016.1,-319.51"/>
<polygon fill="none" stroke="red" points="2019.51,-320.35 2017.67,-309.92 2012.6,-319.22 2019.51,-320.35"/>
</g>
<!-- PreConstruct__33 -->
<g id="node11" class="node">
<title>PreConstruct__33</title>
<polygon fill="#eeeeee" stroke="black" points="1512,-233 1512,-271 1628,-271 1628,-233 1512,-233"/>
<text text-anchor="start" x="1520" y="-255.8" font-family="monospace" font-size="14.00">EX_Return</text>
<text text-anchor="start" x="1520" y="-240.8" font-family="monospace" font-size="14.00">  EX_Nothing</text>
</g>
<!-- PreConstruct__18&#45;&gt;PreConstruct__33 -->
<g id="edge7" class="edge">
<title>PreConstruct__18&#45;&gt;PreConstruct__33</title>
<path fill="none" stroke="black" d="M1587.63,-345.75C1584.35,-328.51 1579.32,-302.05 1575.47,-281.8"/>
<polygon fill="black" stroke="black" points="1578.95,-281.37 1573.65,-272.2 1572.08,-282.67 1578.95,-281.37"/>
</g>
<!-- PreConstruct__35 -->
<g id="node12" class="node">
<title>PreConstruct__35</title>
<polygon fill="#eeeeee" stroke="black" points="2300,-99 2300,-135 2432,-135 2432,-99 2300,-99"/>
<text text-anchor="start" x="2308" y="-113.3" font-family="monospace" font-size="14.00">EX_EndOfScript</text>
</g>
</g>
</svg>
