<?xml version="1.0" encoding="UTF-8" standalone="no"?>
<!DOCTYPE svg PUBLIC "-//W3C//DTD SVG 1.1//EN"
 "http://www.w3.org/Graphics/SVG/1.1/DTD/svg11.dtd">
<!-- Generated by graphviz version 7.0.1 (0)
 -->
<!-- Pages: 1 -->
<svg width="1861pt" height="242pt"
 viewBox="0.00 0.00 1861.00 242.00" xmlns="http://www.w3.org/2000/svg" xmlns:xlink="http://www.w3.org/1999/xlink">
<g id="graph0" class="graph" transform="scale(1 1) rotate(0) translate(4 238)">
<polygon fill="white" stroke="none" points="-4,4 -4,-238 1857,-238 1857,4 -4,4"/>
<!-- ESI_Tank_Rock_C -->
<g id="node1" class="node">
<title>ESI_Tank_Rock_C</title>
<polygon fill="#88ff88" stroke="black" points="0,-150.5 0,-233.5 652,-233.5 652,-150.5 0,-150.5"/>
<text text-anchor="start" x="8" y="-218.3" font-family="monospace" font-size="14.00">ClassExport: ESI_Tank_Rock_C</text>
<text text-anchor="start" x="8" y="-203.3" font-family="monospace" font-size="14.00">  SuperStruct: import /Game/Enemies/Spider/ESI_Spider_Base&#45;&gt;ESI_Spider_Base_C</text>
<text text-anchor="start" x="8" y="-188.3" font-family="monospace" font-size="14.00">  Properties:</text>
<text text-anchor="start" x="8" y="-173.3" font-family="monospace" font-size="14.00">    StructProperty UberGraphFrame</text>
<text text-anchor="start" x="8" y="-158.3" font-family="monospace" font-size="14.00">      CPF_Transient|CPF_DuplicateTransient</text>
</g>
<!-- ExecuteUbergraph_ESI_Tank_Rock -->
<g id="node2" class="node">
<title>ExecuteUbergraph_ESI_Tank_Rock</title>
<polygon fill="#ff8888" stroke="black" points="670,-165.5 670,-218.5 1140,-218.5 1140,-165.5 670,-165.5"/>
<text text-anchor="start" x="678" y="-203.3" font-family="monospace" font-size="14.00">Function ExecuteUbergraph_ESI_Tank_Rock</text>
<text text-anchor="start" x="678" y="-188.3" font-family="monospace" font-size="14.00">  IntProperty EntryPoint</text>
<text text-anchor="start" x="678" y="-173.3" font-family="monospace" font-size="14.00">    CPF_BlueprintVisible|CPF_BlueprintReadOnly|CPF_Parm</text>
</g>
<!-- ExecuteUbergraph_ESI_Tank_Rock__0 -->
<g id="node3" class="node">
<title>ExecuteUbergraph_ESI_Tank_Rock__0</title>
<polygon fill="#eeeeee" stroke="black" points="769,-75.5 769,-113.5 1041,-113.5 1041,-75.5 769,-75.5"/>
<text text-anchor="start" x="777" y="-98.3" font-family="monospace" font-size="14.00">EX_ComputedJump</text>
<text text-anchor="start" x="777" y="-83.3" font-family="monospace" font-size="14.00">  EX_LocalVariable [EntryPoint]</text>
</g>
<!-- ExecuteUbergraph_ESI_Tank_Rock&#45;&gt;ExecuteUbergraph_ESI_Tank_Rock__0 -->
<g id="edge1" class="edge">
<title>ExecuteUbergraph_ESI_Tank_Rock&#45;&gt;ExecuteUbergraph_ESI_Tank_Rock__0</title>
<path fill="none" stroke="black" d="M905,-165.66C905,-153.05 905,-137.75 905,-124.66"/>
<polygon fill="black" stroke="black" points="908.5,-124.91 905,-114.91 901.5,-124.91 908.5,-124.91"/>
</g>
<!-- ExecuteUbergraph_ESI_Tank_Rock__10 -->
<g id="node4" class="node">
<title>ExecuteUbergraph_ESI_Tank_Rock__10</title>
<polygon fill="#eeeeee" stroke="black" points="1645,-0.5 1645,-38.5 1761,-38.5 1761,-0.5 1645,-0.5"/>
<text text-anchor="start" x="1653" y="-23.3" font-family="monospace" font-size="14.00">EX_Return</text>
<text text-anchor="start" x="1653" y="-8.3" font-family="monospace" font-size="14.00">  EX_Nothing</text>
</g>
<!-- ExecuteUbergraph_ESI_Tank_Rock__12 -->
<g id="node5" class="node">
<title>ExecuteUbergraph_ESI_Tank_Rock__12</title>
<polygon fill="#eeeeee" stroke="black" points="1721,-76.5 1721,-112.5 1853,-112.5 1853,-76.5 1721,-76.5"/>
<text text-anchor="start" x="1729" y="-90.8" font-family="monospace" font-size="14.00">EX_EndOfScript</text>
</g>
<!-- ReceiveBeginPlay -->
<g id="node6" class="node">
<title>ReceiveBeginPlay</title>
<polygon fill="#ff8888" stroke="black" points="1269.5,-174 1269.5,-210 1492.5,-210 1492.5,-174 1269.5,-174"/>
<text text-anchor="start" x="1277.5" y="-188.3" font-family="monospace" font-size="14.00">Function ReceiveBeginPlay</text>
</g>
<!-- ReceiveBeginPlay__0 -->
<g id="node7" class="node">
<title>ReceiveBeginPlay__0</title>
<polygon fill="#eeeeee" stroke="black" points="1059,-75.5 1059,-113.5 1703,-113.5 1703,-75.5 1059,-75.5"/>
<text text-anchor="start" x="1067" y="-98.3" font-family="monospace" font-size="14.00">EX_LocalFinalFunction export ESI_Tank_Rock_C&#45;&gt;ExecuteUbergraph_ESI_Tank_Rock</text>
<text text-anchor="start" x="1067" y="-83.3" font-family="monospace" font-size="14.00">  EX_IntConst 10</text>
</g>
<!-- ReceiveBeginPlay&#45;&gt;ReceiveBeginPlay__0 -->
<g id="edge2" class="edge">
<title>ReceiveBeginPlay&#45;&gt;ReceiveBeginPlay__0</title>
<path fill="none" stroke="black" d="M1381,-174.37C1381,-160.6 1381,-140.74 1381,-124.39"/>
<polygon fill="black" stroke="black" points="1384.5,-124.75 1381,-114.75 1377.5,-124.75 1384.5,-124.75"/>
</g>
<!-- ReceiveBeginPlay__0&#45;&gt;ExecuteUbergraph_ESI_Tank_Rock__10 -->
<g id="edge3" class="edge">
<title>ReceiveBeginPlay__0:e&#45;&gt;ExecuteUbergraph_ESI_Tank_Rock__10</title>
<path fill="none" stroke="red" d="M1704,-94.5C1713.39,-94.5 1711.73,-70.39 1708.58,-49.69"/>
<polygon fill="none" stroke="red" points="1712.05,-49.19 1706.93,-39.91 1705.14,-50.35 1712.05,-49.19"/>
</g>
<!-- ReceiveBeginPlay__15 -->
<g id="node8" class="node">
<title>ReceiveBeginPlay__15</title>
<polygon fill="#eeeeee" stroke="black" points="1323,-0.5 1323,-38.5 1439,-38.5 1439,-0.5 1323,-0.5"/>
<text text-anchor="start" x="1331" y="-23.3" font-family="monospace" font-size="14.00">EX_Return</text>
<text text-anchor="start" x="1331" y="-8.3" font-family="monospace" font-size="14.00">  EX_Nothing</text>
</g>
<!-- ReceiveBeginPlay__0&#45;&gt;ReceiveBeginPlay__15 -->
<g id="edge4" class="edge">
<title>ReceiveBeginPlay__0&#45;&gt;ReceiveBeginPlay__15</title>
<path fill="none" stroke="black" d="M1381,-75.83C1381,-68 1381,-58.57 1381,-49.74"/>
<polygon fill="black" stroke="black" points="1384.5,-49.78 1381,-39.78 1377.5,-49.78 1384.5,-49.78"/>
</g>
<!-- ReceiveBeginPlay__17 -->
<g id="node9" class="node">
<title>ReceiveBeginPlay__17</title>
<polygon fill="#eeeeee" stroke="black" points="1511,-174 1511,-210 1643,-210 1643,-174 1511,-174"/>
<text text-anchor="start" x="1519" y="-188.3" font-family="monospace" font-size="14.00">EX_EndOfScript</text>
</g>
</g>
</svg>
