<?xml version="1.0" encoding="UTF-8" standalone="no"?>
<!DOCTYPE svg PUBLIC "-//W3C//DTD SVG 1.1//EN"
 "http://www.w3.org/Graphics/SVG/1.1/DTD/svg11.dtd">
<!-- Generated by graphviz version 7.0.1 (0)
 -->
<!-- Pages: 1 -->
<svg width="3725pt" height="2177pt"
 viewBox="0.00 0.00 3725.00 2177.00" xmlns="http://www.w3.org/2000/svg" xmlns:xlink="http://www.w3.org/1999/xlink">
<g id="graph0" class="graph" transform="scale(1 1) rotate(0) translate(4 2173)">
<polygon fill="white" stroke="none" points="-4,4 -4,-2173 3721,-2173 3721,4 -4,4"/>
<!-- ITM_Overclock_Details_Item_C -->
<g id="node1" class="node">
<title>ITM_Overclock_Details_Item_C</title>
<polygon fill="#88ff88" stroke="black" points="0,-1935.5 0,-2168.5 850,-2168.5 850,-1935.5 0,-1935.5"/>
<text text-anchor="start" x="8" y="-2153.3" font-family="monospace" font-size="14.00">ClassExport: ITM_Overclock_Details_Item_C</text>
<text text-anchor="start" x="8" y="-2138.3" font-family="monospace" font-size="14.00">  SuperStruct: import /Script/UMG&#45;&gt;UserWidget</text>
<text text-anchor="start" x="8" y="-2123.3" font-family="monospace" font-size="14.00">  Properties:</text>
<text text-anchor="start" x="8" y="-2108.3" font-family="monospace" font-size="14.00">    StructProperty UberGraphFrame</text>
<text text-anchor="start" x="8" y="-2093.3" font-family="monospace" font-size="14.00">      CPF_Transient|CPF_DuplicateTransient</text>
<text text-anchor="start" x="8" y="-2078.3" font-family="monospace" font-size="14.00">    ObjectProperty AdvantagousIcon</text>
<text text-anchor="start" x="8" y="-2063.3" font-family="monospace" font-size="14.00">      CPF_BlueprintVisible|CPF_ExportObject|CPF_InstancedReference|CPF_RepSkip|CPF_PersistentInstance</text>
<text text-anchor="start" x="8" y="-2048.3" font-family="monospace" font-size="14.00">    ObjectProperty DetailText</text>
<text text-anchor="start" x="8" y="-2033.3" font-family="monospace" font-size="14.00">      CPF_BlueprintVisible|CPF_ExportObject|CPF_InstancedReference|CPF_RepSkip|CPF_PersistentInstance</text>
<text text-anchor="start" x="8" y="-2018.3" font-family="monospace" font-size="14.00">    TextProperty Text</text>
<text text-anchor="start" x="8" y="-2003.3" font-family="monospace" font-size="14.00">      CPF_Edit|CPF_BlueprintVisible|CPF_ExposeOnSpawn</text>
<text text-anchor="start" x="8" y="-1988.3" font-family="monospace" font-size="14.00">    BoolProperty IsAdvantagous</text>
<text text-anchor="start" x="8" y="-1973.3" font-family="monospace" font-size="14.00">      CPF_Edit|CPF_BlueprintVisible|CPF_ExposeOnSpawn</text>
<text text-anchor="start" x="8" y="-1958.3" font-family="monospace" font-size="14.00">    IntProperty FontSize</text>
<text text-anchor="start" x="8" y="-1943.3" font-family="monospace" font-size="14.00">      CPF_Edit|CPF_BlueprintVisible|CPF_ExposeOnSpawn</text>
</g>
<!-- ExecuteUbergraph_ITM_Overclock_Details_Item -->
<g id="node2" class="node">
<title>ExecuteUbergraph_ITM_Overclock_Details_Item</title>
<polygon fill="#ff8888" stroke="black" points="868,-2018 868,-2086 1338,-2086 1338,-2018 868,-2018"/>
<text text-anchor="start" x="876" y="-2070.8" font-family="monospace" font-size="14.00">Function ExecuteUbergraph_ITM_Overclock_Details_Item</text>
<text text-anchor="start" x="876" y="-2055.8" font-family="monospace" font-size="14.00">  IntProperty EntryPoint</text>
<text text-anchor="start" x="876" y="-2040.8" font-family="monospace" font-size="14.00">    CPF_BlueprintVisible|CPF_BlueprintReadOnly|CPF_Parm</text>
<text text-anchor="start" x="876" y="-2025.8" font-family="monospace" font-size="14.00">  BoolProperty K2Node_Event_IsDesignTime</text>
</g>
<!-- ExecuteUbergraph_ITM_Overclock_Details_Item__0 -->
<g id="node3" class="node">
<title>ExecuteUbergraph_ITM_Overclock_Details_Item__0</title>
<polygon fill="#eeeeee" stroke="black" points="967,-1853 967,-1891 1239,-1891 1239,-1853 967,-1853"/>
<text text-anchor="start" x="975" y="-1875.8" font-family="monospace" font-size="14.00">EX_ComputedJump</text>
<text text-anchor="start" x="975" y="-1860.8" font-family="monospace" font-size="14.00">  EX_LocalVariable [EntryPoint]</text>
</g>
<!-- ExecuteUbergraph_ITM_Overclock_Details_Item&#45;&gt;ExecuteUbergraph_ITM_Overclock_Details_Item__0 -->
<g id="edge1" class="edge">
<title>ExecuteUbergraph_ITM_Overclock_Details_Item&#45;&gt;ExecuteUbergraph_ITM_Overclock_Details_Item__0</title>
<path fill="none" stroke="black" d="M1103,-2018.35C1103,-1985.07 1103,-1933.92 1103,-1902.01"/>
<polygon fill="black" stroke="black" points="1106.5,-1902.32 1103,-1892.32 1099.5,-1902.32 1106.5,-1902.32"/>
</g>
<!-- ExecuteUbergraph_ITM_Overclock_Details_Item__10 -->
<g id="node4" class="node">
<title>ExecuteUbergraph_ITM_Overclock_Details_Item__10</title>
<polygon fill="#eeeeee" stroke="black" points="1867.5,-1298 1867.5,-1336 2172.5,-1336 2172.5,-1298 1867.5,-1298"/>
<text text-anchor="start" x="1875.5" y="-1320.8" font-family="monospace" font-size="14.00">EX_LocalVirtualFunction SetFontSize</text>
<text text-anchor="start" x="1875.5" y="-1305.8" font-family="monospace" font-size="14.00">  EX_InstanceVariable [FontSize]</text>
</g>
<!-- ExecuteUbergraph_ITM_Overclock_Details_Item__33 -->
<g id="node5" class="node">
<title>ExecuteUbergraph_ITM_Overclock_Details_Item__33</title>
<polygon fill="#eeeeee" stroke="black" points="1970.5,-1179 1970.5,-1215 2069.5,-1215 2069.5,-1179 1970.5,-1179"/>
<text text-anchor="start" x="1978.5" y="-1193.3" font-family="monospace" font-size="14.00">EX_Jump 75</text>
</g>
<!-- ExecuteUbergraph_ITM_Overclock_Details_Item__10&#45;&gt;ExecuteUbergraph_ITM_Overclock_Details_Item__33 -->
<g id="edge2" class="edge">
<title>ExecuteUbergraph_ITM_Overclock_Details_Item__10&#45;&gt;ExecuteUbergraph_ITM_Overclock_Details_Item__33</title>
<path fill="none" stroke="black" d="M2020,-1298.08C2020,-1279.04 2020,-1248.67 2020,-1226.37"/>
<polygon fill="black" stroke="black" points="2023.5,-1226.45 2020,-1216.45 2016.5,-1226.45 2023.5,-1226.45"/>
</g>
<!-- ExecuteUbergraph_ITM_Overclock_Details_Item__75 -->
<g id="node8" class="node">
<title>ExecuteUbergraph_ITM_Overclock_Details_Item__75</title>
<polygon fill="#eeeeee" stroke="black" points="1962,-1058 1962,-1096 2078,-1096 2078,-1058 1962,-1058"/>
<text text-anchor="start" x="1970" y="-1080.8" font-family="monospace" font-size="14.00">EX_Return</text>
<text text-anchor="start" x="1970" y="-1065.8" font-family="monospace" font-size="14.00">  EX_Nothing</text>
</g>
<!-- ExecuteUbergraph_ITM_Overclock_Details_Item__33&#45;&gt;ExecuteUbergraph_ITM_Overclock_Details_Item__75 -->
<g id="edge3" class="edge">
<title>ExecuteUbergraph_ITM_Overclock_Details_Item__33&#45;&gt;ExecuteUbergraph_ITM_Overclock_Details_Item__75</title>
<path fill="none" stroke="black" d="M2020,-1179.09C2020,-1160.3 2020,-1129.6 2020,-1106.96"/>
<polygon fill="black" stroke="black" points="2023.5,-1107.16 2020,-1097.16 2016.5,-1107.16 2023.5,-1107.16"/>
</g>
<!-- ExecuteUbergraph_ITM_Overclock_Details_Item__38 -->
<g id="node6" class="node">
<title>ExecuteUbergraph_ITM_Overclock_Details_Item__38</title>
<polygon fill="#eeeeee" stroke="black" points="1859,-1560.5 1859,-1613.5 2181,-1613.5 2181,-1560.5 1859,-1560.5"/>
<text text-anchor="start" x="1867" y="-1598.3" font-family="monospace" font-size="14.00">EX_LocalVirtualFunction SetData</text>
<text text-anchor="start" x="1867" y="-1583.3" font-family="monospace" font-size="14.00">  EX_InstanceVariable [Text]</text>
<text text-anchor="start" x="1867" y="-1568.3" font-family="monospace" font-size="14.00">  EX_InstanceVariable [IsAdvantagous]</text>
</g>
<!-- ExecuteUbergraph_ITM_Overclock_Details_Item__70 -->
<g id="node7" class="node">
<title>ExecuteUbergraph_ITM_Overclock_Details_Item__70</title>
<polygon fill="#eeeeee" stroke="black" points="1970.5,-1419 1970.5,-1455 2069.5,-1455 2069.5,-1419 1970.5,-1419"/>
<text text-anchor="start" x="1978.5" y="-1433.3" font-family="monospace" font-size="14.00">EX_Jump 10</text>
</g>
<!-- ExecuteUbergraph_ITM_Overclock_Details_Item__38&#45;&gt;ExecuteUbergraph_ITM_Overclock_Details_Item__70 -->
<g id="edge4" class="edge">
<title>ExecuteUbergraph_ITM_Overclock_Details_Item__38&#45;&gt;ExecuteUbergraph_ITM_Overclock_Details_Item__70</title>
<path fill="none" stroke="black" d="M2020,-1560.56C2020,-1534.33 2020,-1493.52 2020,-1466.29"/>
<polygon fill="black" stroke="black" points="2023.5,-1466.35 2020,-1456.35 2016.5,-1466.35 2023.5,-1466.35"/>
</g>
<!-- ExecuteUbergraph_ITM_Overclock_Details_Item__70&#45;&gt;ExecuteUbergraph_ITM_Overclock_Details_Item__10 -->
<g id="edge5" class="edge">
<title>ExecuteUbergraph_ITM_Overclock_Details_Item__70&#45;&gt;ExecuteUbergraph_ITM_Overclock_Details_Item__10</title>
<path fill="none" stroke="black" d="M2020,-1419.09C2020,-1400.3 2020,-1369.6 2020,-1346.96"/>
<polygon fill="black" stroke="black" points="2023.5,-1347.16 2020,-1337.16 2016.5,-1347.16 2023.5,-1347.16"/>
</g>
<!-- ExecuteUbergraph_ITM_Overclock_Details_Item__77 -->
<g id="node9" class="node">
<title>ExecuteUbergraph_ITM_Overclock_Details_Item__77</title>
<polygon fill="#eeeeee" stroke="black" points="2926,-421.5 2926,-457.5 3058,-457.5 3058,-421.5 2926,-421.5"/>
<text text-anchor="start" x="2934" y="-435.8" font-family="monospace" font-size="14.00">EX_EndOfScript</text>
</g>
<!-- PreConstruct -->
<g id="node10" class="node">
<title>PreConstruct</title>
<polygon fill="#ff8888" stroke="black" points="1356,-2025.5 1356,-2078.5 1826,-2078.5 1826,-2025.5 1356,-2025.5"/>
<text text-anchor="start" x="1364" y="-2063.3" font-family="monospace" font-size="14.00">Function PreConstruct</text>
<text text-anchor="start" x="1364" y="-2048.3" font-family="monospace" font-size="14.00">  BoolProperty IsDesignTime</text>
<text text-anchor="start" x="1364" y="-2033.3" font-family="monospace" font-size="14.00">    CPF_BlueprintVisible|CPF_BlueprintReadOnly|CPF_Parm</text>
</g>
<!-- PreConstruct__0 -->
<g id="node11" class="node">
<title>PreConstruct__0</title>
<polygon fill="#eeeeee" stroke="black" points="1351.5,-1853 1351.5,-1891 1830.5,-1891 1830.5,-1853 1351.5,-1853"/>
<text text-anchor="start" x="1359.5" y="-1875.8" font-family="monospace" font-size="14.00">EX_LetValueOnPersistentFrame [K2Node_Event_IsDesignTime]</text>
<text text-anchor="start" x="1359.5" y="-1860.8" font-family="monospace" font-size="14.00">  EX_LocalVariable [IsDesignTime]</text>
</g>
<!-- PreConstruct&#45;&gt;PreConstruct__0 -->
<g id="edge6" class="edge">
<title>PreConstruct&#45;&gt;PreConstruct__0</title>
<path fill="none" stroke="black" d="M1591,-2025.87C1591,-1993.3 1591,-1936.59 1591,-1902.16"/>
<polygon fill="black" stroke="black" points="1594.5,-1902.5 1591,-1892.5 1587.5,-1902.5 1594.5,-1902.5"/>
</g>
<!-- PreConstruct__18 -->
<g id="node12" class="node">
<title>PreConstruct__18</title>
<polygon fill="#eeeeee" stroke="black" points="1162,-1733 1162,-1771 2020,-1771 2020,-1733 1162,-1733"/>
<text text-anchor="start" x="1170" y="-1755.8" font-family="monospace" font-size="14.00">EX_LocalFinalFunction export ITM_Overclock_Details_Item_C&#45;&gt;ExecuteUbergraph_ITM_Overclock_Details_Item</text>
<text text-anchor="start" x="1170" y="-1740.8" font-family="monospace" font-size="14.00">  EX_IntConst 38</text>
</g>
<!-- PreConstruct__0&#45;&gt;PreConstruct__18 -->
<g id="edge7" class="edge">
<title>PreConstruct__0&#45;&gt;PreConstruct__18</title>
<path fill="none" stroke="black" d="M1591,-1853.08C1591,-1834.26 1591,-1804.36 1591,-1782.14"/>
<polygon fill="black" stroke="black" points="1594.5,-1782.22 1591,-1772.22 1587.5,-1782.22 1594.5,-1782.22"/>
</g>
<!-- PreConstruct__18&#45;&gt;ExecuteUbergraph_ITM_Overclock_Details_Item__38 -->
<g id="edge8" class="edge">
<title>PreConstruct__18:e&#45;&gt;ExecuteUbergraph_ITM_Overclock_Details_Item__38</title>
<path fill="none" stroke="red" d="M2021,-1752C2071.85,-1752 2051.27,-1672.19 2034.17,-1623.92"/>
<polygon fill="none" stroke="red" points="2037.51,-1622.88 2030.79,-1614.69 2030.94,-1625.28 2037.51,-1622.88"/>
</g>
<!-- PreConstruct__33 -->
<g id="node13" class="node">
<title>PreConstruct__33</title>
<polygon fill="#eeeeee" stroke="black" points="1533,-1568 1533,-1606 1649,-1606 1649,-1568 1533,-1568"/>
<text text-anchor="start" x="1541" y="-1590.8" font-family="monospace" font-size="14.00">EX_Return</text>
<text text-anchor="start" x="1541" y="-1575.8" font-family="monospace" font-size="14.00">  EX_Nothing</text>
</g>
<!-- PreConstruct__18&#45;&gt;PreConstruct__33 -->
<g id="edge9" class="edge">
<title>PreConstruct__18&#45;&gt;PreConstruct__33</title>
<path fill="none" stroke="black" d="M1591,-1733.25C1591,-1705.32 1591,-1650.85 1591,-1617.13"/>
<polygon fill="black" stroke="black" points="1594.5,-1617.25 1591,-1607.25 1587.5,-1617.25 1594.5,-1617.25"/>
</g>
<!-- PreConstruct__35 -->
<g id="node14" class="node">
<title>PreConstruct__35</title>
<polygon fill="#eeeeee" stroke="black" points="2876,-316.5 2876,-352.5 3008,-352.5 3008,-316.5 2876,-316.5"/>
<text text-anchor="start" x="2884" y="-330.8" font-family="monospace" font-size="14.00">EX_EndOfScript</text>
</g>
<!-- SetData -->
<g id="node15" class="node">
<title>SetData</title>
<polygon fill="#ff8888" stroke="black" points="2344,-1973 2344,-2131 2814,-2131 2814,-1973 2344,-1973"/>
<text text-anchor="start" x="2352" y="-2115.8" font-family="monospace" font-size="14.00">Function SetData</text>
<text text-anchor="start" x="2352" y="-2100.8" font-family="monospace" font-size="14.00">  TextProperty InText</text>
<text text-anchor="start" x="2352" y="-2085.8" font-family="monospace" font-size="14.00">    CPF_BlueprintVisible|CPF_BlueprintReadOnly|CPF_Parm</text>
<text text-anchor="start" x="2352" y="-2070.8" font-family="monospace" font-size="14.00">  BoolProperty InIsAdvantagous</text>
<text text-anchor="start" x="2352" y="-2055.8" font-family="monospace" font-size="14.00">    CPF_BlueprintVisible|CPF_BlueprintReadOnly|CPF_Parm</text>
<text text-anchor="start" x="2352" y="-2040.8" font-family="monospace" font-size="14.00">  BoolProperty Temp_bool_Variable</text>
<text text-anchor="start" x="2352" y="-2025.8" font-family="monospace" font-size="14.00">  FloatProperty Temp_float_Variable</text>
<text text-anchor="start" x="2352" y="-2010.8" font-family="monospace" font-size="14.00">  FloatProperty Temp_float_Variable_1</text>
<text text-anchor="start" x="2352" y="-1995.8" font-family="monospace" font-size="14.00">  FloatProperty K2Node_Select_Default</text>
<text text-anchor="start" x="2352" y="-1980.8" font-family="monospace" font-size="14.00">  StructProperty CallFunc_SelectMenuColor_OutputColor</text>
</g>
<!-- SetData__0 -->
<g id="node16" class="node">
<title>SetData__0</title>
<polygon fill="#eeeeee" stroke="black" points="2455,-1845.5 2455,-1898.5 2703,-1898.5 2703,-1845.5 2455,-1845.5"/>
<text text-anchor="start" x="2463" y="-1883.3" font-family="monospace" font-size="14.00">EX_Let</text>
<text text-anchor="start" x="2463" y="-1868.3" font-family="monospace" font-size="14.00">  EX_InstanceVariable [Text]</text>
<text text-anchor="start" x="2463" y="-1853.3" font-family="monospace" font-size="14.00">  EX_LocalVariable [InText]</text>
</g>
<!-- SetData&#45;&gt;SetData__0 -->
<g id="edge10" class="edge">
<title>SetData&#45;&gt;SetData__0</title>
<path fill="none" stroke="black" d="M2579,-1973.19C2579,-1951.08 2579,-1928.05 2579,-1909.65"/>
<polygon fill="black" stroke="black" points="2582.5,-1909.79 2579,-1899.79 2575.5,-1909.79 2582.5,-1909.79"/>
</g>
<!-- SetData__27 -->
<g id="node17" class="node">
<title>SetData__27</title>
<polygon fill="#eeeeee" stroke="black" points="2418,-1725.5 2418,-1778.5 2740,-1778.5 2740,-1725.5 2418,-1725.5"/>
<text text-anchor="start" x="2426" y="-1763.3" font-family="monospace" font-size="14.00">EX_LetBool</text>
<text text-anchor="start" x="2426" y="-1748.3" font-family="monospace" font-size="14.00">  EX_InstanceVariable [IsAdvantagous]</text>
<text text-anchor="start" x="2426" y="-1733.3" font-family="monospace" font-size="14.00">  EX_LocalVariable [InIsAdvantagous]</text>
</g>
<!-- SetData__0&#45;&gt;SetData__27 -->
<g id="edge11" class="edge">
<title>SetData__0&#45;&gt;SetData__27</title>
<path fill="none" stroke="black" d="M2579,-1845.69C2579,-1829.35 2579,-1807.84 2579,-1789.66"/>
<polygon fill="black" stroke="black" points="2582.5,-1789.79 2579,-1779.79 2575.5,-1789.79 2582.5,-1789.79"/>
</g>
<!-- SetData__46 -->
<g id="node18" class="node">
<title>SetData__46</title>
<polygon fill="#eeeeee" stroke="black" points="2199.5,-1515.5 2199.5,-1658.5 2958.5,-1658.5 2958.5,-1515.5 2199.5,-1515.5"/>
<text text-anchor="start" x="2207.5" y="-1643.3" font-family="monospace" font-size="14.00">EX_Context</text>
<text text-anchor="start" x="2207.5" y="-1628.3" font-family="monospace" font-size="14.00">  EX_ObjectConst import /Game/UI/Art/WidgetParts/LIB_MenuColors&#45;&gt;Default__LIB_MenuColors_C</text>
<text text-anchor="start" x="2207.5" y="-1613.3" font-family="monospace" font-size="14.00">  EX_LocalVirtualFunction SelectMenuColor</text>
<text text-anchor="start" x="2207.5" y="-1598.3" font-family="monospace" font-size="14.00">    EX_ByteConst 12</text>
<text text-anchor="start" x="2207.5" y="-1583.3" font-family="monospace" font-size="14.00">    EX_ByteConst 15</text>
<text text-anchor="start" x="2207.5" y="-1568.3" font-family="monospace" font-size="14.00">    EX_LocalVariable [InIsAdvantagous]</text>
<text text-anchor="start" x="2207.5" y="-1553.3" font-family="monospace" font-size="14.00">    EX_Self</text>
<text text-anchor="start" x="2207.5" y="-1538.3" font-family="monospace" font-size="14.00">    EX_LocalVariable [CallFunc_SelectMenuColor_OutputColor]</text>
<text text-anchor="start" x="2207.5" y="-1523.3" font-family="monospace" font-size="14.00">  RValue = []</text>
</g>
<!-- SetData__27&#45;&gt;SetData__46 -->
<g id="edge12" class="edge">
<title>SetData__27&#45;&gt;SetData__46</title>
<path fill="none" stroke="black" d="M2579,-1725.53C2579,-1710.27 2579,-1689.93 2579,-1669.58"/>
<polygon fill="black" stroke="black" points="2582.5,-1669.82 2579,-1659.82 2575.5,-1669.82 2582.5,-1669.82"/>
</g>
<!-- SetData__105 -->
<g id="node19" class="node">
<title>SetData__105</title>
<polygon fill="#eeeeee" stroke="black" points="2306.5,-1395.5 2306.5,-1478.5 2851.5,-1478.5 2851.5,-1395.5 2306.5,-1395.5"/>
<text text-anchor="start" x="2314.5" y="-1463.3" font-family="monospace" font-size="14.00">EX_Context</text>
<text text-anchor="start" x="2314.5" y="-1448.3" font-family="monospace" font-size="14.00">  EX_InstanceVariable [AdvantagousIcon]</text>
<text text-anchor="start" x="2314.5" y="-1433.3" font-family="monospace" font-size="14.00">  EX_FinalFunction import /Script/UMG&#45;&gt;Image&#45;&gt;SetColorAndOpacity</text>
<text text-anchor="start" x="2314.5" y="-1418.3" font-family="monospace" font-size="14.00">    EX_LocalVariable [CallFunc_SelectMenuColor_OutputColor]</text>
<text text-anchor="start" x="2314.5" y="-1403.3" font-family="monospace" font-size="14.00">  RValue = []</text>
</g>
<!-- SetData__46&#45;&gt;SetData__105 -->
<g id="edge13" class="edge">
<title>SetData__46&#45;&gt;SetData__105</title>
<path fill="none" stroke="black" d="M2579,-1515.9C2579,-1507.07 2579,-1498.16 2579,-1489.68"/>
<polygon fill="black" stroke="black" points="2582.5,-1489.95 2579,-1479.95 2575.5,-1489.95 2582.5,-1489.95"/>
</g>
<!-- SetData__146 -->
<g id="node20" class="node">
<title>SetData__146</title>
<polygon fill="#eeeeee" stroke="black" points="2405.5,-1290.5 2405.5,-1343.5 2752.5,-1343.5 2752.5,-1290.5 2405.5,-1290.5"/>
<text text-anchor="start" x="2413.5" y="-1328.3" font-family="monospace" font-size="14.00">EX_Let</text>
<text text-anchor="start" x="2413.5" y="-1313.3" font-family="monospace" font-size="14.00">  EX_LocalVariable [Temp_float_Variable]</text>
<text text-anchor="start" x="2413.5" y="-1298.3" font-family="monospace" font-size="14.00">  EX_FloatConst 0</text>
</g>
<!-- SetData__105&#45;&gt;SetData__146 -->
<g id="edge14" class="edge">
<title>SetData__105&#45;&gt;SetData__146</title>
<path fill="none" stroke="black" d="M2579,-1395.72C2579,-1382.43 2579,-1367.73 2579,-1354.72"/>
<polygon fill="black" stroke="black" points="2582.5,-1354.85 2579,-1344.85 2575.5,-1354.85 2582.5,-1354.85"/>
</g>
<!-- SetData__169 -->
<g id="node21" class="node">
<title>SetData__169</title>
<polygon fill="#eeeeee" stroke="black" points="2397.5,-1170.5 2397.5,-1223.5 2760.5,-1223.5 2760.5,-1170.5 2397.5,-1170.5"/>
<text text-anchor="start" x="2405.5" y="-1208.3" font-family="monospace" font-size="14.00">EX_Let</text>
<text text-anchor="start" x="2405.5" y="-1193.3" font-family="monospace" font-size="14.00">  EX_LocalVariable [Temp_float_Variable_1]</text>
<text text-anchor="start" x="2405.5" y="-1178.3" font-family="monospace" font-size="14.00">  EX_FloatConst 180</text>
</g>
<!-- SetData__146&#45;&gt;SetData__169 -->
<g id="edge15" class="edge">
<title>SetData__146&#45;&gt;SetData__169</title>
<path fill="none" stroke="black" d="M2579,-1290.69C2579,-1274.35 2579,-1252.84 2579,-1234.66"/>
<polygon fill="black" stroke="black" points="2582.5,-1234.79 2579,-1224.79 2575.5,-1234.79 2582.5,-1234.79"/>
</g>
<!-- SetData__192 -->
<g id="node22" class="node">
<title>SetData__192</title>
<polygon fill="#eeeeee" stroke="black" points="2410,-1050.5 2410,-1103.5 2748,-1103.5 2748,-1050.5 2410,-1050.5"/>
<text text-anchor="start" x="2418" y="-1088.3" font-family="monospace" font-size="14.00">EX_LetBool</text>
<text text-anchor="start" x="2418" y="-1073.3" font-family="monospace" font-size="14.00">  EX_LocalVariable [Temp_bool_Variable]</text>
<text text-anchor="start" x="2418" y="-1058.3" font-family="monospace" font-size="14.00">  EX_InstanceVariable [IsAdvantagous]</text>
</g>
<!-- SetData__169&#45;&gt;SetData__192 -->
<g id="edge16" class="edge">
<title>SetData__169&#45;&gt;SetData__192</title>
<path fill="none" stroke="black" d="M2579,-1170.69C2579,-1154.35 2579,-1132.84 2579,-1114.66"/>
<polygon fill="black" stroke="black" points="2582.5,-1114.79 2579,-1104.79 2575.5,-1114.79 2582.5,-1114.79"/>
</g>
<!-- SetData__211 -->
<g id="node23" class="node">
<title>SetData__211</title>
<polygon fill="#eeeeee" stroke="black" points="2282,-735.5 2282,-998.5 2876,-998.5 2876,-735.5 2282,-735.5"/>
<text text-anchor="start" x="2290" y="-983.3" font-family="monospace" font-size="14.00">EX_Context</text>
<text text-anchor="start" x="2290" y="-968.3" font-family="monospace" font-size="14.00">  EX_InstanceVariable [AdvantagousIcon]</text>
<text text-anchor="start" x="2290" y="-953.3" font-family="monospace" font-size="14.00">  EX_FinalFunction import /Script/UMG&#45;&gt;Widget&#45;&gt;SetRenderTransformAngle</text>
<text text-anchor="start" x="2290" y="-938.3" font-family="monospace" font-size="14.00">    EX_SwitchValue</text>
<text text-anchor="start" x="2290" y="-923.3" font-family="monospace" font-size="14.00">      EX_LocalVariable [Temp_bool_Variable]</text>
<text text-anchor="start" x="2290" y="-908.3" font-family="monospace" font-size="14.00">      OffsetToSwitchEnd = 295</text>
<text text-anchor="start" x="2290" y="-893.3" font-family="monospace" font-size="14.00">      case 0:</text>
<text text-anchor="start" x="2290" y="-878.3" font-family="monospace" font-size="14.00">        EX_False</text>
<text text-anchor="start" x="2290" y="-863.3" font-family="monospace" font-size="14.00">        NextCaseOffset = 272</text>
<text text-anchor="start" x="2290" y="-848.3" font-family="monospace" font-size="14.00">        EX_LocalVariable [Temp_float_Variable_1]</text>
<text text-anchor="start" x="2290" y="-833.3" font-family="monospace" font-size="14.00">      case 1:</text>
<text text-anchor="start" x="2290" y="-818.3" font-family="monospace" font-size="14.00">        EX_True</text>
<text text-anchor="start" x="2290" y="-803.3" font-family="monospace" font-size="14.00">        NextCaseOffset = 286</text>
<text text-anchor="start" x="2290" y="-788.3" font-family="monospace" font-size="14.00">        EX_LocalVariable [Temp_float_Variable]</text>
<text text-anchor="start" x="2290" y="-773.3" font-family="monospace" font-size="14.00">      default:</text>
<text text-anchor="start" x="2290" y="-758.3" font-family="monospace" font-size="14.00">        EX_LocalVariable [K2Node_Select_Default]</text>
<text text-anchor="start" x="2290" y="-743.3" font-family="monospace" font-size="14.00">  RValue = []</text>
</g>
<!-- SetData__192&#45;&gt;SetData__211 -->
<g id="edge17" class="edge">
<title>SetData__192&#45;&gt;SetData__211</title>
<path fill="none" stroke="black" d="M2579,-1050.91C2579,-1039.5 2579,-1025.01 2579,-1009.2"/>
<polygon fill="black" stroke="black" points="2582.5,-1009.58 2579,-999.58 2575.5,-1009.58 2582.5,-1009.58"/>
</g>
<!-- SetData__296 -->
<g id="node24" class="node">
<title>SetData__296</title>
<polygon fill="#eeeeee" stroke="black" points="2430.5,-615.5 2430.5,-698.5 2727.5,-698.5 2727.5,-615.5 2430.5,-615.5"/>
<text text-anchor="start" x="2438.5" y="-683.3" font-family="monospace" font-size="14.00">EX_Context</text>
<text text-anchor="start" x="2438.5" y="-668.3" font-family="monospace" font-size="14.00">  EX_InstanceVariable [DetailText]</text>
<text text-anchor="start" x="2438.5" y="-653.3" font-family="monospace" font-size="14.00">  EX_VirtualFunction SetText</text>
<text text-anchor="start" x="2438.5" y="-638.3" font-family="monospace" font-size="14.00">    EX_InstanceVariable [Text]</text>
<text text-anchor="start" x="2438.5" y="-623.3" font-family="monospace" font-size="14.00">  RValue = []</text>
</g>
<!-- SetData__211&#45;&gt;SetData__296 -->
<g id="edge18" class="edge">
<title>SetData__211&#45;&gt;SetData__296</title>
<path fill="none" stroke="black" d="M2579,-735.75C2579,-726.73 2579,-717.99 2579,-709.83"/>
<polygon fill="black" stroke="black" points="2582.5,-709.83 2579,-699.83 2575.5,-709.83 2582.5,-709.83"/>
</g>
<!-- SetData__341 -->
<g id="node25" class="node">
<title>SetData__341</title>
<polygon fill="#eeeeee" stroke="black" points="2521,-525.5 2521,-563.5 2637,-563.5 2637,-525.5 2521,-525.5"/>
<text text-anchor="start" x="2529" y="-548.3" font-family="monospace" font-size="14.00">EX_Return</text>
<text text-anchor="start" x="2529" y="-533.3" font-family="monospace" font-size="14.00">  EX_Nothing</text>
</g>
<!-- SetData__296&#45;&gt;SetData__341 -->
<g id="edge19" class="edge">
<title>SetData__296&#45;&gt;SetData__341</title>
<path fill="none" stroke="black" d="M2579,-615.79C2579,-602.14 2579,-587.16 2579,-574.55"/>
<polygon fill="black" stroke="black" points="2582.5,-574.82 2579,-564.82 2575.5,-574.82 2582.5,-574.82"/>
</g>
<!-- SetData__343 -->
<g id="node26" class="node">
<title>SetData__343</title>
<polygon fill="#eeeeee" stroke="black" points="2926,-211.5 2926,-247.5 3058,-247.5 3058,-211.5 2926,-211.5"/>
<text text-anchor="start" x="2934" y="-225.8" font-family="monospace" font-size="14.00">EX_EndOfScript</text>
</g>
<!-- SetFontSize -->
<g id="node27" class="node">
<title>SetFontSize</title>
<polygon fill="#ff8888" stroke="black" points="3018,-1965.5 3018,-2138.5 3538,-2138.5 3538,-1965.5 3018,-1965.5"/>
<text text-anchor="start" x="3026" y="-2123.3" font-family="monospace" font-size="14.00">Function SetFontSize</text>
<text text-anchor="start" x="3026" y="-2108.3" font-family="monospace" font-size="14.00">  IntProperty NewSize</text>
<text text-anchor="start" x="3026" y="-2093.3" font-family="monospace" font-size="14.00">    CPF_BlueprintVisible|CPF_BlueprintReadOnly|CPF_Parm</text>
<text text-anchor="start" x="3026" y="-2078.3" font-family="monospace" font-size="14.00">  FloatProperty CallFunc_Divide_FloatFloat_ReturnValue</text>
<text text-anchor="start" x="3026" y="-2063.3" font-family="monospace" font-size="14.00">  FloatProperty CallFunc_Multiply_IntFloat_ReturnValue</text>
<text text-anchor="start" x="3026" y="-2048.3" font-family="monospace" font-size="14.00">  ObjectProperty CallFunc_SlotAsHorizontalBoxSlot_ReturnValue</text>
<text text-anchor="start" x="3026" y="-2033.3" font-family="monospace" font-size="14.00">    CPF_InstancedReference</text>
<text text-anchor="start" x="3026" y="-2018.3" font-family="monospace" font-size="14.00">  StructProperty K2Node_MakeStruct_Margin</text>
<text text-anchor="start" x="3026" y="-2003.3" font-family="monospace" font-size="14.00">  FloatProperty CallFunc_Conv_IntToFloat_ReturnValue</text>
<text text-anchor="start" x="3026" y="-1988.3" font-family="monospace" font-size="14.00">  FloatProperty CallFunc_Multiply_FloatFloat_ReturnValue</text>
<text text-anchor="start" x="3026" y="-1973.3" font-family="monospace" font-size="14.00">  StructProperty CallFunc_MakeVector2D_ReturnValue</text>
</g>
<!-- SetFontSize__0 -->
<g id="node28" class="node">
<title>SetFontSize__0</title>
<polygon fill="#eeeeee" stroke="black" points="3137.5,-1845.5 3137.5,-1898.5 3418.5,-1898.5 3418.5,-1845.5 3137.5,-1845.5"/>
<text text-anchor="start" x="3145.5" y="-1883.3" font-family="monospace" font-size="14.00">EX_Let</text>
<text text-anchor="start" x="3145.5" y="-1868.3" font-family="monospace" font-size="14.00">  EX_InstanceVariable [FontSize]</text>
<text text-anchor="start" x="3145.5" y="-1853.3" font-family="monospace" font-size="14.00">  EX_LocalVariable [NewSize]</text>
</g>
<!-- SetFontSize&#45;&gt;SetFontSize__0 -->
<g id="edge20" class="edge">
<title>SetFontSize&#45;&gt;SetFontSize__0</title>
<path fill="none" stroke="black" d="M3278,-1965.65C3278,-1945.83 3278,-1925.78 3278,-1909.41"/>
<polygon fill="black" stroke="black" points="3281.5,-1909.72 3278,-1899.72 3274.5,-1909.72 3281.5,-1909.72"/>
</g>
<!-- SetFontSize__27 -->
<g id="node29" class="node">
<title>SetFontSize__27</title>
<polygon fill="#eeeeee" stroke="black" points="2985,-1695.5 2985,-1808.5 3571,-1808.5 3571,-1695.5 2985,-1695.5"/>
<text text-anchor="start" x="2993" y="-1793.3" font-family="monospace" font-size="14.00">EX_Context</text>
<text text-anchor="start" x="2993" y="-1778.3" font-family="monospace" font-size="14.00">  EX_ObjectConst import /Game/Game/Text/LIB_Text&#45;&gt;Default__LIB_Text_C</text>
<text text-anchor="start" x="2993" y="-1763.3" font-family="monospace" font-size="14.00">  EX_LocalVirtualFunction SetFontSize</text>
<text text-anchor="start" x="2993" y="-1748.3" font-family="monospace" font-size="14.00">    EX_InstanceVariable [DetailText]</text>
<text text-anchor="start" x="2993" y="-1733.3" font-family="monospace" font-size="14.00">    EX_InstanceVariable [FontSize]</text>
<text text-anchor="start" x="2993" y="-1718.3" font-family="monospace" font-size="14.00">    EX_Self</text>
<text text-anchor="start" x="2993" y="-1703.3" font-family="monospace" font-size="14.00">  RValue = []</text>
</g>
<!-- SetFontSize__0&#45;&gt;SetFontSize__27 -->
<g id="edge21" class="edge">
<title>SetFontSize__0&#45;&gt;SetFontSize__27</title>
<path fill="none" stroke="black" d="M3278,-1845.69C3278,-1837.89 3278,-1828.91 3278,-1819.67"/>
<polygon fill="black" stroke="black" points="3281.5,-1819.85 3278,-1809.85 3274.5,-1819.85 3281.5,-1819.85"/>
</g>
<!-- SetFontSize__82 -->
<g id="node30" class="node">
<title>SetFontSize__82</title>
<polygon fill="#eeeeee" stroke="black" points="2977,-1553 2977,-1621 3579,-1621 3579,-1553 2977,-1553"/>
<text text-anchor="start" x="2985" y="-1605.8" font-family="monospace" font-size="14.00">EX_Let</text>
<text text-anchor="start" x="2985" y="-1590.8" font-family="monospace" font-size="14.00">  EX_LocalVariable [CallFunc_Conv_IntToFloat_ReturnValue]</text>
<text text-anchor="start" x="2985" y="-1575.8" font-family="monospace" font-size="14.00">  EX_CallMath import /Script/Engine&#45;&gt;KismetMathLibrary&#45;&gt;Conv_IntToFloat</text>
<text text-anchor="start" x="2985" y="-1560.8" font-family="monospace" font-size="14.00">    EX_InstanceVariable [FontSize]</text>
</g>
<!-- SetFontSize__27&#45;&gt;SetFontSize__82 -->
<g id="edge22" class="edge">
<title>SetFontSize__27&#45;&gt;SetFontSize__82</title>
<path fill="none" stroke="black" d="M3278,-1695.82C3278,-1675.07 3278,-1651.77 3278,-1632.16"/>
<polygon fill="black" stroke="black" points="3281.5,-1632.29 3278,-1622.29 3274.5,-1632.29 3281.5,-1632.29"/>
</g>
<!-- SetFontSize__119 -->
<g id="node31" class="node">
<title>SetFontSize__119</title>
<polygon fill="#eeeeee" stroke="black" points="2960.5,-1395.5 2960.5,-1478.5 3595.5,-1478.5 3595.5,-1395.5 2960.5,-1395.5"/>
<text text-anchor="start" x="2968.5" y="-1463.3" font-family="monospace" font-size="14.00">EX_Let</text>
<text text-anchor="start" x="2968.5" y="-1448.3" font-family="monospace" font-size="14.00">  EX_LocalVariable [CallFunc_Multiply_FloatFloat_ReturnValue]</text>
<text text-anchor="start" x="2968.5" y="-1433.3" font-family="monospace" font-size="14.00">  EX_CallMath import /Script/Engine&#45;&gt;KismetMathLibrary&#45;&gt;Multiply_FloatFloat</text>
<text text-anchor="start" x="2968.5" y="-1418.3" font-family="monospace" font-size="14.00">    EX_LocalVariable [CallFunc_Conv_IntToFloat_ReturnValue]</text>
<text text-anchor="start" x="2968.5" y="-1403.3" font-family="monospace" font-size="14.00">    EX_FloatConst 0.5</text>
</g>
<!-- SetFontSize__82&#45;&gt;SetFontSize__119 -->
<g id="edge23" class="edge">
<title>SetFontSize__82&#45;&gt;SetFontSize__119</title>
<path fill="none" stroke="black" d="M3278,-1553.15C3278,-1534.54 3278,-1510.84 3278,-1489.79"/>
<polygon fill="black" stroke="black" points="3281.5,-1489.92 3278,-1479.92 3274.5,-1489.92 3281.5,-1489.92"/>
</g>
<!-- SetFontSize__161 -->
<g id="node32" class="node">
<title>SetFontSize__161</title>
<polygon fill="#eeeeee" stroke="black" points="2989,-1275.5 2989,-1358.5 3567,-1358.5 3567,-1275.5 2989,-1275.5"/>
<text text-anchor="start" x="2997" y="-1343.3" font-family="monospace" font-size="14.00">EX_Let</text>
<text text-anchor="start" x="2997" y="-1328.3" font-family="monospace" font-size="14.00">  EX_LocalVariable [CallFunc_MakeVector2D_ReturnValue]</text>
<text text-anchor="start" x="2997" y="-1313.3" font-family="monospace" font-size="14.00">  EX_CallMath import /Script/Engine&#45;&gt;KismetMathLibrary&#45;&gt;MakeVector2D</text>
<text text-anchor="start" x="2997" y="-1298.3" font-family="monospace" font-size="14.00">    EX_LocalVariable [CallFunc_Conv_IntToFloat_ReturnValue]</text>
<text text-anchor="start" x="2997" y="-1283.3" font-family="monospace" font-size="14.00">    EX_LocalVariable [CallFunc_Multiply_FloatFloat_ReturnValue]</text>
</g>
<!-- SetFontSize__119&#45;&gt;SetFontSize__161 -->
<g id="edge24" class="edge">
<title>SetFontSize__119&#45;&gt;SetFontSize__161</title>
<path fill="none" stroke="black" d="M3278,-1395.72C3278,-1387.37 3278,-1378.45 3278,-1369.75"/>
<polygon fill="black" stroke="black" points="3281.5,-1370.01 3278,-1360.01 3274.5,-1370.01 3281.5,-1370.01"/>
</g>
<!-- SetFontSize__207 -->
<g id="node33" class="node">
<title>SetFontSize__207</title>
<polygon fill="#eeeeee" stroke="black" points="3030.5,-1155.5 3030.5,-1238.5 3525.5,-1238.5 3525.5,-1155.5 3030.5,-1155.5"/>
<text text-anchor="start" x="3038.5" y="-1223.3" font-family="monospace" font-size="14.00">EX_Context</text>
<text text-anchor="start" x="3038.5" y="-1208.3" font-family="monospace" font-size="14.00">  EX_InstanceVariable [AdvantagousIcon]</text>
<text text-anchor="start" x="3038.5" y="-1193.3" font-family="monospace" font-size="14.00">  EX_FinalFunction import /Script/UMG&#45;&gt;Image&#45;&gt;SetBrushSize</text>
<text text-anchor="start" x="3038.5" y="-1178.3" font-family="monospace" font-size="14.00">    EX_LocalVariable [CallFunc_MakeVector2D_ReturnValue]</text>
<text text-anchor="start" x="3038.5" y="-1163.3" font-family="monospace" font-size="14.00">  RValue = []</text>
</g>
<!-- SetFontSize__161&#45;&gt;SetFontSize__207 -->
<g id="edge25" class="edge">
<title>SetFontSize__161&#45;&gt;SetFontSize__207</title>
<path fill="none" stroke="black" d="M3278,-1275.72C3278,-1267.37 3278,-1258.45 3278,-1249.75"/>
<polygon fill="black" stroke="black" points="3281.5,-1250.01 3278,-1240.01 3274.5,-1250.01 3281.5,-1250.01"/>
</g>
<!-- SetFontSize__248 -->
<g id="node34" class="node">
<title>SetFontSize__248</title>
<polygon fill="#eeeeee" stroke="black" points="2968.5,-1035.5 2968.5,-1118.5 3587.5,-1118.5 3587.5,-1035.5 2968.5,-1035.5"/>
<text text-anchor="start" x="2976.5" y="-1103.3" font-family="monospace" font-size="14.00">EX_Let</text>
<text text-anchor="start" x="2976.5" y="-1088.3" font-family="monospace" font-size="14.00">  EX_LocalVariable [CallFunc_Divide_FloatFloat_ReturnValue]</text>
<text text-anchor="start" x="2976.5" y="-1073.3" font-family="monospace" font-size="14.00">  EX_CallMath import /Script/Engine&#45;&gt;KismetMathLibrary&#45;&gt;Divide_FloatFloat</text>
<text text-anchor="start" x="2976.5" y="-1058.3" font-family="monospace" font-size="14.00">    EX_FloatConst 5</text>
<text text-anchor="start" x="2976.5" y="-1043.3" font-family="monospace" font-size="14.00">    EX_FloatConst 8</text>
</g>
<!-- SetFontSize__207&#45;&gt;SetFontSize__248 -->
<g id="edge26" class="edge">
<title>SetFontSize__207&#45;&gt;SetFontSize__248</title>
<path fill="none" stroke="black" d="M3278,-1155.72C3278,-1147.37 3278,-1138.45 3278,-1129.75"/>
<polygon fill="black" stroke="black" points="3281.5,-1130.01 3278,-1120.01 3274.5,-1130.01 3281.5,-1130.01"/>
</g>
<!-- SetFontSize__286 -->
<g id="node35" class="node">
<title>SetFontSize__286</title>
<polygon fill="#eeeeee" stroke="black" points="2968.5,-825.5 2968.5,-908.5 3587.5,-908.5 3587.5,-825.5 2968.5,-825.5"/>
<text text-anchor="start" x="2976.5" y="-893.3" font-family="monospace" font-size="14.00">EX_Let</text>
<text text-anchor="start" x="2976.5" y="-878.3" font-family="monospace" font-size="14.00">  EX_LocalVariable [CallFunc_Multiply_IntFloat_ReturnValue]</text>
<text text-anchor="start" x="2976.5" y="-863.3" font-family="monospace" font-size="14.00">  EX_CallMath import /Script/Engine&#45;&gt;KismetMathLibrary&#45;&gt;Multiply_IntFloat</text>
<text text-anchor="start" x="2976.5" y="-848.3" font-family="monospace" font-size="14.00">    EX_InstanceVariable [FontSize]</text>
<text text-anchor="start" x="2976.5" y="-833.3" font-family="monospace" font-size="14.00">    EX_LocalVariable [CallFunc_Divide_FloatFloat_ReturnValue]</text>
</g>
<!-- SetFontSize__248&#45;&gt;SetFontSize__286 -->
<g id="edge27" class="edge">
<title>SetFontSize__248&#45;&gt;SetFontSize__286</title>
<path fill="none" stroke="black" d="M3278,-1035.9C3278,-1002.77 3278,-955.52 3278,-919.57"/>
<polygon fill="black" stroke="black" points="3281.5,-919.85 3278,-909.85 3274.5,-919.85 3281.5,-919.85"/>
</g>
<!-- SetFontSize__332 -->
<g id="node36" class="node">
<title>SetFontSize__332</title>
<polygon fill="#eeeeee" stroke="black" points="2948,-623 2948,-691 3608,-691 3608,-623 2948,-623"/>
<text text-anchor="start" x="2956" y="-675.8" font-family="monospace" font-size="14.00">EX_LetObj</text>
<text text-anchor="start" x="2956" y="-660.8" font-family="monospace" font-size="14.00">  EX_LocalVariable [CallFunc_SlotAsHorizontalBoxSlot_ReturnValue]</text>
<text text-anchor="start" x="2956" y="-645.8" font-family="monospace" font-size="14.00">  EX_CallMath import /Script/UMG&#45;&gt;WidgetLayoutLibrary&#45;&gt;SlotAsHorizontalBoxSlot</text>
<text text-anchor="start" x="2956" y="-630.8" font-family="monospace" font-size="14.00">    EX_InstanceVariable [AdvantagousIcon]</text>
</g>
<!-- SetFontSize__286&#45;&gt;SetFontSize__332 -->
<g id="edge28" class="edge">
<title>SetFontSize__286&#45;&gt;SetFontSize__332</title>
<path fill="none" stroke="black" d="M3278,-825.9C3278,-790.42 3278,-738.76 3278,-702.13"/>
<polygon fill="black" stroke="black" points="3281.5,-702.31 3278,-692.31 3274.5,-702.31 3281.5,-702.31"/>
</g>
<!-- SetFontSize__361 -->
<g id="node37" class="node">
<title>SetFontSize__361</title>
<polygon fill="#eeeeee" stroke="black" points="3026.5,-510.5 3026.5,-578.5 3529.5,-578.5 3529.5,-510.5 3026.5,-510.5"/>
<text text-anchor="start" x="3034.5" y="-563.3" font-family="monospace" font-size="14.00">EX_Let</text>
<text text-anchor="start" x="3034.5" y="-548.3" font-family="monospace" font-size="14.00">  EX_StructMemberContext [Left]</text>
<text text-anchor="start" x="3034.5" y="-533.3" font-family="monospace" font-size="14.00">    EX_LocalVariable [K2Node_MakeStruct_Margin]</text>
<text text-anchor="start" x="3034.5" y="-518.3" font-family="monospace" font-size="14.00">  EX_LocalVariable [CallFunc_Multiply_IntFloat_ReturnValue]</text>
</g>
<!-- SetFontSize__332&#45;&gt;SetFontSize__361 -->
<g id="edge29" class="edge">
<title>SetFontSize__332&#45;&gt;SetFontSize__361</title>
<path fill="none" stroke="black" d="M3278,-623.15C3278,-612.66 3278,-600.89 3278,-589.73"/>
<polygon fill="black" stroke="black" points="3281.5,-589.93 3278,-579.93 3274.5,-589.93 3281.5,-589.93"/>
</g>
<!-- SetFontSize__397 -->
<g id="node38" class="node">
<title>SetFontSize__397</title>
<polygon fill="#eeeeee" stroke="black" points="3076,-405.5 3076,-473.5 3480,-473.5 3480,-405.5 3076,-405.5"/>
<text text-anchor="start" x="3084" y="-458.3" font-family="monospace" font-size="14.00">EX_Let</text>
<text text-anchor="start" x="3084" y="-443.3" font-family="monospace" font-size="14.00">  EX_StructMemberContext [Top]</text>
<text text-anchor="start" x="3084" y="-428.3" font-family="monospace" font-size="14.00">    EX_LocalVariable [K2Node_MakeStruct_Margin]</text>
<text text-anchor="start" x="3084" y="-413.3" font-family="monospace" font-size="14.00">  EX_FloatConst 0</text>
</g>
<!-- SetFontSize__361&#45;&gt;SetFontSize__397 -->
<g id="edge30" class="edge">
<title>SetFontSize__361&#45;&gt;SetFontSize__397</title>
<path fill="none" stroke="black" d="M3278,-510.63C3278,-502.45 3278,-493.55 3278,-484.92"/>
<polygon fill="black" stroke="black" points="3281.5,-484.93 3278,-474.93 3274.5,-484.93 3281.5,-484.93"/>
</g>
<!-- SetFontSize__429 -->
<g id="node39" class="node">
<title>SetFontSize__429</title>
<polygon fill="#eeeeee" stroke="black" points="3026.5,-300.5 3026.5,-368.5 3529.5,-368.5 3529.5,-300.5 3026.5,-300.5"/>
<text text-anchor="start" x="3034.5" y="-353.3" font-family="monospace" font-size="14.00">EX_Let</text>
<text text-anchor="start" x="3034.5" y="-338.3" font-family="monospace" font-size="14.00">  EX_StructMemberContext [Right]</text>
<text text-anchor="start" x="3034.5" y="-323.3" font-family="monospace" font-size="14.00">    EX_LocalVariable [K2Node_MakeStruct_Margin]</text>
<text text-anchor="start" x="3034.5" y="-308.3" font-family="monospace" font-size="14.00">  EX_LocalVariable [CallFunc_Multiply_IntFloat_ReturnValue]</text>
</g>
<!-- SetFontSize__397&#45;&gt;SetFontSize__429 -->
<g id="edge31" class="edge">
<title>SetFontSize__397&#45;&gt;SetFontSize__429</title>
<path fill="none" stroke="black" d="M3278,-405.63C3278,-397.45 3278,-388.55 3278,-379.92"/>
<polygon fill="black" stroke="black" points="3281.5,-379.93 3278,-369.93 3274.5,-379.93 3281.5,-379.93"/>
</g>
<!-- SetFontSize__465 -->
<g id="node40" class="node">
<title>SetFontSize__465</title>
<polygon fill="#eeeeee" stroke="black" points="3076,-195.5 3076,-263.5 3480,-263.5 3480,-195.5 3076,-195.5"/>
<text text-anchor="start" x="3084" y="-248.3" font-family="monospace" font-size="14.00">EX_Let</text>
<text text-anchor="start" x="3084" y="-233.3" font-family="monospace" font-size="14.00">  EX_StructMemberContext [Bottom]</text>
<text text-anchor="start" x="3084" y="-218.3" font-family="monospace" font-size="14.00">    EX_LocalVariable [K2Node_MakeStruct_Margin]</text>
<text text-anchor="start" x="3084" y="-203.3" font-family="monospace" font-size="14.00">  EX_FloatConst 0</text>
</g>
<!-- SetFontSize__429&#45;&gt;SetFontSize__465 -->
<g id="edge32" class="edge">
<title>SetFontSize__429&#45;&gt;SetFontSize__465</title>
<path fill="none" stroke="black" d="M3278,-300.63C3278,-292.45 3278,-283.55 3278,-274.92"/>
<polygon fill="black" stroke="black" points="3281.5,-274.93 3278,-264.93 3274.5,-274.93 3281.5,-274.93"/>
</g>
<!-- SetFontSize__497 -->
<g id="node41" class="node">
<title>SetFontSize__497</title>
<polygon fill="#eeeeee" stroke="black" points="2989,-75.5 2989,-158.5 3567,-158.5 3567,-75.5 2989,-75.5"/>
<text text-anchor="start" x="2997" y="-143.3" font-family="monospace" font-size="14.00">EX_Context</text>
<text text-anchor="start" x="2997" y="-128.3" font-family="monospace" font-size="14.00">  EX_LocalVariable [CallFunc_SlotAsHorizontalBoxSlot_ReturnValue]</text>
<text text-anchor="start" x="2997" y="-113.3" font-family="monospace" font-size="14.00">  EX_FinalFunction import /Script/UMG&#45;&gt;HorizontalBoxSlot&#45;&gt;SetPadding</text>
<text text-anchor="start" x="2997" y="-98.3" font-family="monospace" font-size="14.00">    EX_LocalVariable [K2Node_MakeStruct_Margin]</text>
<text text-anchor="start" x="2997" y="-83.3" font-family="monospace" font-size="14.00">  RValue = []</text>
</g>
<!-- SetFontSize__465&#45;&gt;SetFontSize__497 -->
<g id="edge33" class="edge">
<title>SetFontSize__465&#45;&gt;SetFontSize__497</title>
<path fill="none" stroke="black" d="M3278,-195.65C3278,-187.51 3278,-178.59 3278,-169.78"/>
<polygon fill="black" stroke="black" points="3281.5,-169.87 3278,-159.87 3274.5,-169.87 3281.5,-169.87"/>
</g>
<!-- SetFontSize__538 -->
<g id="node42" class="node">
<title>SetFontSize__538</title>
<polygon fill="#eeeeee" stroke="black" points="3220,-0.5 3220,-38.5 3336,-38.5 3336,-0.5 3220,-0.5"/>
<text text-anchor="start" x="3228" y="-23.3" font-family="monospace" font-size="14.00">EX_Return</text>
<text text-anchor="start" x="3228" y="-8.3" font-family="monospace" font-size="14.00">  EX_Nothing</text>
</g>
<!-- SetFontSize__497&#45;&gt;SetFontSize__538 -->
<g id="edge34" class="edge">
<title>SetFontSize__497&#45;&gt;SetFontSize__538</title>
<path fill="none" stroke="black" d="M3278,-75.78C3278,-67.01 3278,-57.89 3278,-49.65"/>
<polygon fill="black" stroke="black" points="3281.5,-49.86 3278,-39.86 3274.5,-49.86 3281.5,-49.86"/>
</g>
<!-- SetFontSize__540 -->
<g id="node43" class="node">
<title>SetFontSize__540</title>
<polygon fill="#eeeeee" stroke="black" points="3585,-99 3585,-135 3717,-135 3717,-99 3585,-99"/>
<text text-anchor="start" x="3593" y="-113.3" font-family="monospace" font-size="14.00">EX_EndOfScript</text>
</g>
</g>
</svg>
