<?xml version="1.0" encoding="UTF-8" standalone="no"?>
<!DOCTYPE svg PUBLIC "-//W3C//DTD SVG 1.1//EN"
 "http://www.w3.org/Graphics/SVG/1.1/DTD/svg11.dtd">
<!-- Generated by graphviz version 7.0.1 (0)
 -->
<!-- Pages: 1 -->
<svg width="2465pt" height="1577pt"
 viewBox="0.00 0.00 2465.00 1577.00" xmlns="http://www.w3.org/2000/svg" xmlns:xlink="http://www.w3.org/1999/xlink">
<g id="graph0" class="graph" transform="scale(1 1) rotate(0) translate(4 1573)">
<polygon fill="white" stroke="none" points="-4,4 -4,-1573 2461,-1573 2461,4 -4,4"/>
<!-- UI_SaveGame_CharacterClass_C -->
<g id="node1" class="node">
<title>UI_SaveGame_CharacterClass_C</title>
<polygon fill="#88ff88" stroke="black" points="0,-1215.5 0,-1568.5 850,-1568.5 850,-1215.5 0,-1215.5"/>
<text text-anchor="start" x="8" y="-1553.3" font-family="monospace" font-size="14.00">ClassExport: UI_SaveGame_CharacterClass_C</text>
<text text-anchor="start" x="8" y="-1538.3" font-family="monospace" font-size="14.00">  SuperStruct: import /Script/UMG&#45;&gt;UserWidget</text>
<text text-anchor="start" x="8" y="-1523.3" font-family="monospace" font-size="14.00">  Properties:</text>
<text text-anchor="start" x="8" y="-1508.3" font-family="monospace" font-size="14.00">    StructProperty UberGraphFrame</text>
<text text-anchor="start" x="8" y="-1493.3" font-family="monospace" font-size="14.00">      CPF_Transient|CPF_DuplicateTransient</text>
<text text-anchor="start" x="8" y="-1478.3" font-family="monospace" font-size="14.00">    ObjectProperty ClassIcon</text>
<text text-anchor="start" x="8" y="-1463.3" font-family="monospace" font-size="14.00">      CPF_BlueprintVisible|CPF_ExportObject|CPF_InstancedReference|CPF_RepSkip|CPF_PersistentInstance</text>
<text text-anchor="start" x="8" y="-1448.3" font-family="monospace" font-size="14.00">    ObjectProperty IconSize</text>
<text text-anchor="start" x="8" y="-1433.3" font-family="monospace" font-size="14.00">      CPF_BlueprintVisible|CPF_ExportObject|CPF_InstancedReference|CPF_RepSkip|CPF_PersistentInstance</text>
<text text-anchor="start" x="8" y="-1418.3" font-family="monospace" font-size="14.00">    ObjectProperty ITEM_SpaceRig_ClassLevel</text>
<text text-anchor="start" x="8" y="-1403.3" font-family="monospace" font-size="14.00">      CPF_BlueprintVisible|CPF_ExportObject|CPF_InstancedReference|CPF_RepSkip|CPF_PersistentInstance</text>
<text text-anchor="start" x="8" y="-1388.3" font-family="monospace" font-size="14.00">    ObjectProperty OuterBorder</text>
<text text-anchor="start" x="8" y="-1373.3" font-family="monospace" font-size="14.00">      CPF_BlueprintVisible|CPF_ExportObject|CPF_InstancedReference|CPF_RepSkip|CPF_PersistentInstance</text>
<text text-anchor="start" x="8" y="-1358.3" font-family="monospace" font-size="14.00">    ObjectProperty RetirementBadge</text>
<text text-anchor="start" x="8" y="-1343.3" font-family="monospace" font-size="14.00">      CPF_BlueprintVisible|CPF_ExportObject|CPF_InstancedReference|CPF_RepSkip|CPF_PersistentInstance</text>
<text text-anchor="start" x="8" y="-1328.3" font-family="monospace" font-size="14.00">    ClassProperty CharacterClass</text>
<text text-anchor="start" x="8" y="-1313.3" font-family="monospace" font-size="14.00">      CPF_Edit|CPF_BlueprintVisible|CPF_BlueprintReadOnly|CPF_ExposeOnSpawn</text>
<text text-anchor="start" x="8" y="-1298.3" font-family="monospace" font-size="14.00">    IntProperty CharacterLevel</text>
<text text-anchor="start" x="8" y="-1283.3" font-family="monospace" font-size="14.00">      CPF_Edit|CPF_BlueprintVisible|CPF_BlueprintReadOnly|CPF_ExposeOnSpawn</text>
<text text-anchor="start" x="8" y="-1268.3" font-family="monospace" font-size="14.00">    IntProperty TimesRetired</text>
<text text-anchor="start" x="8" y="-1253.3" font-family="monospace" font-size="14.00">      CPF_Edit|CPF_BlueprintVisible|CPF_BlueprintReadOnly|CPF_ExposeOnSpawn</text>
<text text-anchor="start" x="8" y="-1238.3" font-family="monospace" font-size="14.00">    FloatProperty Size</text>
<text text-anchor="start" x="8" y="-1223.3" font-family="monospace" font-size="14.00">      CPF_Edit|CPF_BlueprintVisible|CPF_BlueprintReadOnly|CPF_ExposeOnSpawn</text>
</g>
<!-- ExecuteUbergraph_UI_SaveGame_CharacterClass -->
<g id="node2" class="node">
<title>ExecuteUbergraph_UI_SaveGame_CharacterClass</title>
<polygon fill="#ff8888" stroke="black" points="868,-1343 868,-1441 1338,-1441 1338,-1343 868,-1343"/>
<text text-anchor="start" x="876" y="-1425.8" font-family="monospace" font-size="14.00">Function ExecuteUbergraph_UI_SaveGame_CharacterClass</text>
<text text-anchor="start" x="876" y="-1410.8" font-family="monospace" font-size="14.00">  IntProperty EntryPoint</text>
<text text-anchor="start" x="876" y="-1395.8" font-family="monospace" font-size="14.00">    CPF_BlueprintVisible|CPF_BlueprintReadOnly|CPF_Parm</text>
<text text-anchor="start" x="876" y="-1380.8" font-family="monospace" font-size="14.00">  BoolProperty K2Node_Event_IsDesignTime</text>
<text text-anchor="start" x="876" y="-1365.8" font-family="monospace" font-size="14.00">  StructProperty CallFunc_MenuColors_OutputColor</text>
<text text-anchor="start" x="876" y="-1350.8" font-family="monospace" font-size="14.00">  ObjectProperty CallFunc_GetHeroImage_ReturnValue</text>
</g>
<!-- ExecuteUbergraph_UI_SaveGame_CharacterClass__0 -->
<g id="node3" class="node">
<title>ExecuteUbergraph_UI_SaveGame_CharacterClass__0</title>
<polygon fill="#eeeeee" stroke="black" points="967,-1140.5 967,-1178.5 1239,-1178.5 1239,-1140.5 967,-1140.5"/>
<text text-anchor="start" x="975" y="-1163.3" font-family="monospace" font-size="14.00">EX_ComputedJump</text>
<text text-anchor="start" x="975" y="-1148.3" font-family="monospace" font-size="14.00">  EX_LocalVariable [EntryPoint]</text>
</g>
<!-- ExecuteUbergraph_UI_SaveGame_CharacterClass&#45;&gt;ExecuteUbergraph_UI_SaveGame_CharacterClass__0 -->
<g id="edge1" class="edge">
<title>ExecuteUbergraph_UI_SaveGame_CharacterClass&#45;&gt;ExecuteUbergraph_UI_SaveGame_CharacterClass__0</title>
<path fill="none" stroke="black" d="M1103,-1343.24C1103,-1297.07 1103,-1228.6 1103,-1189.91"/>
<polygon fill="black" stroke="black" points="1106.5,-1189.97 1103,-1179.97 1099.5,-1189.97 1106.5,-1189.97"/>
</g>
<!-- ExecuteUbergraph_UI_SaveGame_CharacterClass__10 -->
<g id="node4" class="node">
<title>ExecuteUbergraph_UI_SaveGame_CharacterClass__10</title>
<polygon fill="#eeeeee" stroke="black" points="1654.5,-915.5 1654.5,-1028.5 2413.5,-1028.5 2413.5,-915.5 1654.5,-915.5"/>
<text text-anchor="start" x="1662.5" y="-1013.3" font-family="monospace" font-size="14.00">EX_Context</text>
<text text-anchor="start" x="1662.5" y="-998.3" font-family="monospace" font-size="14.00">  EX_ObjectConst import /Game/UI/Art/WidgetParts/LIB_MenuColors&#45;&gt;Default__LIB_MenuColors_C</text>
<text text-anchor="start" x="1662.5" y="-983.3" font-family="monospace" font-size="14.00">  EX_LocalVirtualFunction MenuColors</text>
<text text-anchor="start" x="1662.5" y="-968.3" font-family="monospace" font-size="14.00">    EX_ByteConst 0</text>
<text text-anchor="start" x="1662.5" y="-953.3" font-family="monospace" font-size="14.00">    EX_Self</text>
<text text-anchor="start" x="1662.5" y="-938.3" font-family="monospace" font-size="14.00">    EX_LocalVariable [CallFunc_MenuColors_OutputColor]</text>
<text text-anchor="start" x="1662.5" y="-923.3" font-family="monospace" font-size="14.00">  RValue = []</text>
</g>
<!-- ExecuteUbergraph_UI_SaveGame_CharacterClass__58 -->
<g id="node5" class="node">
<title>ExecuteUbergraph_UI_SaveGame_CharacterClass__58</title>
<polygon fill="#eeeeee" stroke="black" points="1761.5,-795.5 1761.5,-878.5 2306.5,-878.5 2306.5,-795.5 1761.5,-795.5"/>
<text text-anchor="start" x="1769.5" y="-863.3" font-family="monospace" font-size="14.00">EX_Context</text>
<text text-anchor="start" x="1769.5" y="-848.3" font-family="monospace" font-size="14.00">  EX_InstanceVariable [OuterBorder]</text>
<text text-anchor="start" x="1769.5" y="-833.3" font-family="monospace" font-size="14.00">  EX_FinalFunction import /Script/UMG&#45;&gt;Image&#45;&gt;SetColorAndOpacity</text>
<text text-anchor="start" x="1769.5" y="-818.3" font-family="monospace" font-size="14.00">    EX_LocalVariable [CallFunc_MenuColors_OutputColor]</text>
<text text-anchor="start" x="1769.5" y="-803.3" font-family="monospace" font-size="14.00">  RValue = []</text>
</g>
<!-- ExecuteUbergraph_UI_SaveGame_CharacterClass__10&#45;&gt;ExecuteUbergraph_UI_SaveGame_CharacterClass__58 -->
<g id="edge2" class="edge">
<title>ExecuteUbergraph_UI_SaveGame_CharacterClass__10&#45;&gt;ExecuteUbergraph_UI_SaveGame_CharacterClass__58</title>
<path fill="none" stroke="black" d="M2034,-915.75C2034,-907.12 2034,-898.22 2034,-889.67"/>
<polygon fill="black" stroke="black" points="2037.5,-889.79 2034,-879.79 2030.5,-889.79 2037.5,-889.79"/>
</g>
<!-- ExecuteUbergraph_UI_SaveGame_CharacterClass__99 -->
<g id="node6" class="node">
<title>ExecuteUbergraph_UI_SaveGame_CharacterClass__99</title>
<polygon fill="#eeeeee" stroke="black" points="1745,-690.5 1745,-758.5 2323,-758.5 2323,-690.5 1745,-690.5"/>
<text text-anchor="start" x="1753" y="-743.3" font-family="monospace" font-size="14.00">EX_LetObj</text>
<text text-anchor="start" x="1753" y="-728.3" font-family="monospace" font-size="14.00">  EX_LocalVariable [CallFunc_GetHeroImage_ReturnValue]</text>
<text text-anchor="start" x="1753" y="-713.3" font-family="monospace" font-size="14.00">  EX_CallMath import /Script/FSD&#45;&gt;ActorFunctionLibrary&#45;&gt;GetHeroImage</text>
<text text-anchor="start" x="1753" y="-698.3" font-family="monospace" font-size="14.00">    EX_InstanceVariable [CharacterClass]</text>
</g>
<!-- ExecuteUbergraph_UI_SaveGame_CharacterClass__58&#45;&gt;ExecuteUbergraph_UI_SaveGame_CharacterClass__99 -->
<g id="edge3" class="edge">
<title>ExecuteUbergraph_UI_SaveGame_CharacterClass__58&#45;&gt;ExecuteUbergraph_UI_SaveGame_CharacterClass__99</title>
<path fill="none" stroke="black" d="M2034,-795.79C2034,-787.31 2034,-778.31 2034,-769.69"/>
<polygon fill="black" stroke="black" points="2037.5,-769.76 2034,-759.76 2030.5,-769.76 2037.5,-769.76"/>
</g>
<!-- ExecuteUbergraph_UI_SaveGame_CharacterClass__128 -->
<g id="node7" class="node">
<title>ExecuteUbergraph_UI_SaveGame_CharacterClass__128</title>
<polygon fill="#eeeeee" stroke="black" points="1794.5,-555.5 1794.5,-653.5 2273.5,-653.5 2273.5,-555.5 1794.5,-555.5"/>
<text text-anchor="start" x="1802.5" y="-638.3" font-family="monospace" font-size="14.00">EX_Context</text>
<text text-anchor="start" x="1802.5" y="-623.3" font-family="monospace" font-size="14.00">  EX_InstanceVariable [ClassIcon]</text>
<text text-anchor="start" x="1802.5" y="-608.3" font-family="monospace" font-size="14.00">  EX_VirtualFunction SetBrushFromTexture</text>
<text text-anchor="start" x="1802.5" y="-593.3" font-family="monospace" font-size="14.00">    EX_LocalVariable [CallFunc_GetHeroImage_ReturnValue]</text>
<text text-anchor="start" x="1802.5" y="-578.3" font-family="monospace" font-size="14.00">    EX_False</text>
<text text-anchor="start" x="1802.5" y="-563.3" font-family="monospace" font-size="14.00">  RValue = []</text>
</g>
<!-- ExecuteUbergraph_UI_SaveGame_CharacterClass__99&#45;&gt;ExecuteUbergraph_UI_SaveGame_CharacterClass__128 -->
<g id="edge4" class="edge">
<title>ExecuteUbergraph_UI_SaveGame_CharacterClass__99&#45;&gt;ExecuteUbergraph_UI_SaveGame_CharacterClass__128</title>
<path fill="none" stroke="black" d="M2034,-690.63C2034,-682.48 2034,-673.49 2034,-664.51"/>
<polygon fill="black" stroke="black" points="2037.5,-664.7 2034,-654.7 2030.5,-664.7 2037.5,-664.7"/>
</g>
<!-- ExecuteUbergraph_UI_SaveGame_CharacterClass__174 -->
<g id="node8" class="node">
<title>ExecuteUbergraph_UI_SaveGame_CharacterClass__174</title>
<polygon fill="#eeeeee" stroke="black" points="1856.5,-435.5 1856.5,-518.5 2211.5,-518.5 2211.5,-435.5 1856.5,-435.5"/>
<text text-anchor="start" x="1864.5" y="-503.3" font-family="monospace" font-size="14.00">EX_Context</text>
<text text-anchor="start" x="1864.5" y="-488.3" font-family="monospace" font-size="14.00">  EX_InstanceVariable [RetirementBadge]</text>
<text text-anchor="start" x="1864.5" y="-473.3" font-family="monospace" font-size="14.00">  EX_LocalVirtualFunction SetTimesRetired</text>
<text text-anchor="start" x="1864.5" y="-458.3" font-family="monospace" font-size="14.00">    EX_InstanceVariable [TimesRetired]</text>
<text text-anchor="start" x="1864.5" y="-443.3" font-family="monospace" font-size="14.00">  RValue = []</text>
</g>
<!-- ExecuteUbergraph_UI_SaveGame_CharacterClass__128&#45;&gt;ExecuteUbergraph_UI_SaveGame_CharacterClass__174 -->
<g id="edge5" class="edge">
<title>ExecuteUbergraph_UI_SaveGame_CharacterClass__128&#45;&gt;ExecuteUbergraph_UI_SaveGame_CharacterClass__174</title>
<path fill="none" stroke="black" d="M2034,-555.7C2034,-547.22 2034,-538.36 2034,-529.77"/>
<polygon fill="black" stroke="black" points="2037.5,-529.83 2034,-519.83 2030.5,-529.83 2037.5,-529.83"/>
</g>
<!-- ExecuteUbergraph_UI_SaveGame_CharacterClass__219 -->
<g id="node9" class="node">
<title>ExecuteUbergraph_UI_SaveGame_CharacterClass__219</title>
<polygon fill="#eeeeee" stroke="black" points="1827.5,-315.5 1827.5,-398.5 2240.5,-398.5 2240.5,-315.5 1827.5,-315.5"/>
<text text-anchor="start" x="1835.5" y="-383.3" font-family="monospace" font-size="14.00">EX_Context</text>
<text text-anchor="start" x="1835.5" y="-368.3" font-family="monospace" font-size="14.00">  EX_InstanceVariable [ITEM_SpaceRig_ClassLevel]</text>
<text text-anchor="start" x="1835.5" y="-353.3" font-family="monospace" font-size="14.00">  EX_LocalVirtualFunction SetLevel</text>
<text text-anchor="start" x="1835.5" y="-338.3" font-family="monospace" font-size="14.00">    EX_InstanceVariable [CharacterLevel]</text>
<text text-anchor="start" x="1835.5" y="-323.3" font-family="monospace" font-size="14.00">  RValue = []</text>
</g>
<!-- ExecuteUbergraph_UI_SaveGame_CharacterClass__174&#45;&gt;ExecuteUbergraph_UI_SaveGame_CharacterClass__219 -->
<g id="edge6" class="edge">
<title>ExecuteUbergraph_UI_SaveGame_CharacterClass__174&#45;&gt;ExecuteUbergraph_UI_SaveGame_CharacterClass__219</title>
<path fill="none" stroke="black" d="M2034,-435.72C2034,-427.37 2034,-418.45 2034,-409.75"/>
<polygon fill="black" stroke="black" points="2037.5,-410.01 2034,-400.01 2030.5,-410.01 2037.5,-410.01"/>
</g>
<!-- ExecuteUbergraph_UI_SaveGame_CharacterClass__264 -->
<g id="node10" class="node">
<title>ExecuteUbergraph_UI_SaveGame_CharacterClass__264</title>
<polygon fill="#eeeeee" stroke="black" points="1757.5,-195.5 1757.5,-278.5 2310.5,-278.5 2310.5,-195.5 1757.5,-195.5"/>
<text text-anchor="start" x="1765.5" y="-263.3" font-family="monospace" font-size="14.00">EX_Context</text>
<text text-anchor="start" x="1765.5" y="-248.3" font-family="monospace" font-size="14.00">  EX_InstanceVariable [IconSize]</text>
<text text-anchor="start" x="1765.5" y="-233.3" font-family="monospace" font-size="14.00">  EX_FinalFunction import /Script/UMG&#45;&gt;SizeBox&#45;&gt;SetHeightOverride</text>
<text text-anchor="start" x="1765.5" y="-218.3" font-family="monospace" font-size="14.00">    EX_InstanceVariable [Size]</text>
<text text-anchor="start" x="1765.5" y="-203.3" font-family="monospace" font-size="14.00">  RValue = []</text>
</g>
<!-- ExecuteUbergraph_UI_SaveGame_CharacterClass__219&#45;&gt;ExecuteUbergraph_UI_SaveGame_CharacterClass__264 -->
<g id="edge7" class="edge">
<title>ExecuteUbergraph_UI_SaveGame_CharacterClass__219&#45;&gt;ExecuteUbergraph_UI_SaveGame_CharacterClass__264</title>
<path fill="none" stroke="black" d="M2034,-315.72C2034,-307.37 2034,-298.45 2034,-289.75"/>
<polygon fill="black" stroke="black" points="2037.5,-290.01 2034,-280.01 2030.5,-290.01 2037.5,-290.01"/>
</g>
<!-- ExecuteUbergraph_UI_SaveGame_CharacterClass__305 -->
<g id="node11" class="node">
<title>ExecuteUbergraph_UI_SaveGame_CharacterClass__305</title>
<polygon fill="#eeeeee" stroke="black" points="1761.5,-75.5 1761.5,-158.5 2306.5,-158.5 2306.5,-75.5 1761.5,-75.5"/>
<text text-anchor="start" x="1769.5" y="-143.3" font-family="monospace" font-size="14.00">EX_Context</text>
<text text-anchor="start" x="1769.5" y="-128.3" font-family="monospace" font-size="14.00">  EX_InstanceVariable [IconSize]</text>
<text text-anchor="start" x="1769.5" y="-113.3" font-family="monospace" font-size="14.00">  EX_FinalFunction import /Script/UMG&#45;&gt;SizeBox&#45;&gt;SetWidthOverride</text>
<text text-anchor="start" x="1769.5" y="-98.3" font-family="monospace" font-size="14.00">    EX_InstanceVariable [Size]</text>
<text text-anchor="start" x="1769.5" y="-83.3" font-family="monospace" font-size="14.00">  RValue = []</text>
</g>
<!-- ExecuteUbergraph_UI_SaveGame_CharacterClass__264&#45;&gt;ExecuteUbergraph_UI_SaveGame_CharacterClass__305 -->
<g id="edge8" class="edge">
<title>ExecuteUbergraph_UI_SaveGame_CharacterClass__264&#45;&gt;ExecuteUbergraph_UI_SaveGame_CharacterClass__305</title>
<path fill="none" stroke="black" d="M2034,-195.72C2034,-187.37 2034,-178.45 2034,-169.75"/>
<polygon fill="black" stroke="black" points="2037.5,-170.01 2034,-160.01 2030.5,-170.01 2037.5,-170.01"/>
</g>
<!-- ExecuteUbergraph_UI_SaveGame_CharacterClass__346 -->
<g id="node12" class="node">
<title>ExecuteUbergraph_UI_SaveGame_CharacterClass__346</title>
<polygon fill="#eeeeee" stroke="black" points="1976,-0.5 1976,-38.5 2092,-38.5 2092,-0.5 1976,-0.5"/>
<text text-anchor="start" x="1984" y="-23.3" font-family="monospace" font-size="14.00">EX_Return</text>
<text text-anchor="start" x="1984" y="-8.3" font-family="monospace" font-size="14.00">  EX_Nothing</text>
</g>
<!-- ExecuteUbergraph_UI_SaveGame_CharacterClass__305&#45;&gt;ExecuteUbergraph_UI_SaveGame_CharacterClass__346 -->
<g id="edge9" class="edge">
<title>ExecuteUbergraph_UI_SaveGame_CharacterClass__305&#45;&gt;ExecuteUbergraph_UI_SaveGame_CharacterClass__346</title>
<path fill="none" stroke="black" d="M2034,-75.78C2034,-67.01 2034,-57.89 2034,-49.65"/>
<polygon fill="black" stroke="black" points="2037.5,-49.86 2034,-39.86 2030.5,-49.86 2037.5,-49.86"/>
</g>
<!-- ExecuteUbergraph_UI_SaveGame_CharacterClass__348 -->
<g id="node13" class="node">
<title>ExecuteUbergraph_UI_SaveGame_CharacterClass__348</title>
<polygon fill="#eeeeee" stroke="black" points="2038,-1066.5 2038,-1102.5 2170,-1102.5 2170,-1066.5 2038,-1066.5"/>
<text text-anchor="start" x="2046" y="-1080.8" font-family="monospace" font-size="14.00">EX_EndOfScript</text>
</g>
<!-- PreConstruct -->
<g id="node14" class="node">
<title>PreConstruct</title>
<polygon fill="#ff8888" stroke="black" points="1356,-1365.5 1356,-1418.5 1826,-1418.5 1826,-1365.5 1356,-1365.5"/>
<text text-anchor="start" x="1364" y="-1403.3" font-family="monospace" font-size="14.00">Function PreConstruct</text>
<text text-anchor="start" x="1364" y="-1388.3" font-family="monospace" font-size="14.00">  BoolProperty IsDesignTime</text>
<text text-anchor="start" x="1364" y="-1373.3" font-family="monospace" font-size="14.00">    CPF_BlueprintVisible|CPF_BlueprintReadOnly|CPF_Parm</text>
</g>
<!-- PreConstruct__0 -->
<g id="node15" class="node">
<title>PreConstruct__0</title>
<polygon fill="#eeeeee" stroke="black" points="1351.5,-1140.5 1351.5,-1178.5 1830.5,-1178.5 1830.5,-1140.5 1351.5,-1140.5"/>
<text text-anchor="start" x="1359.5" y="-1163.3" font-family="monospace" font-size="14.00">EX_LetValueOnPersistentFrame [K2Node_Event_IsDesignTime]</text>
<text text-anchor="start" x="1359.5" y="-1148.3" font-family="monospace" font-size="14.00">  EX_LocalVariable [IsDesignTime]</text>
</g>
<!-- PreConstruct&#45;&gt;PreConstruct__0 -->
<g id="edge10" class="edge">
<title>PreConstruct&#45;&gt;PreConstruct__0</title>
<path fill="none" stroke="black" d="M1591,-1365.89C1591,-1322.93 1591,-1235.52 1591,-1189.82"/>
<polygon fill="black" stroke="black" points="1594.5,-1189.89 1591,-1179.89 1587.5,-1189.89 1594.5,-1189.89"/>
</g>
<!-- PreConstruct__18 -->
<g id="node16" class="node">
<title>PreConstruct__18</title>
<polygon fill="#eeeeee" stroke="black" points="1162,-1065.5 1162,-1103.5 2020,-1103.5 2020,-1065.5 1162,-1065.5"/>
<text text-anchor="start" x="1170" y="-1088.3" font-family="monospace" font-size="14.00">EX_LocalFinalFunction export UI_SaveGame_CharacterClass_C&#45;&gt;ExecuteUbergraph_UI_SaveGame_CharacterClass</text>
<text text-anchor="start" x="1170" y="-1073.3" font-family="monospace" font-size="14.00">  EX_IntConst 10</text>
</g>
<!-- PreConstruct__0&#45;&gt;PreConstruct__18 -->
<g id="edge11" class="edge">
<title>PreConstruct__0&#45;&gt;PreConstruct__18</title>
<path fill="none" stroke="black" d="M1591,-1140.83C1591,-1133 1591,-1123.57 1591,-1114.74"/>
<polygon fill="black" stroke="black" points="1594.5,-1114.78 1591,-1104.78 1587.5,-1114.78 1594.5,-1114.78"/>
</g>
<!-- PreConstruct__18&#45;&gt;ExecuteUbergraph_UI_SaveGame_CharacterClass__10 -->
<g id="edge12" class="edge">
<title>PreConstruct__18:e&#45;&gt;ExecuteUbergraph_UI_SaveGame_CharacterClass__10</title>
<path fill="none" stroke="red" d="M2021,-1084.5C2026.4,-1084.5 2029.57,-1063.56 2031.41,-1039.84"/>
<polygon fill="none" stroke="red" points="2034.9,-1040.15 2032.09,-1029.93 2027.92,-1039.67 2034.9,-1040.15"/>
</g>
<!-- PreConstruct__33 -->
<g id="node17" class="node">
<title>PreConstruct__33</title>
<polygon fill="#eeeeee" stroke="black" points="1520,-953 1520,-991 1636,-991 1636,-953 1520,-953"/>
<text text-anchor="start" x="1528" y="-975.8" font-family="monospace" font-size="14.00">EX_Return</text>
<text text-anchor="start" x="1528" y="-960.8" font-family="monospace" font-size="14.00">  EX_Nothing</text>
</g>
<!-- PreConstruct__18&#45;&gt;PreConstruct__33 -->
<g id="edge13" class="edge">
<title>PreConstruct__18&#45;&gt;PreConstruct__33</title>
<path fill="none" stroke="black" d="M1588.91,-1065.75C1586.89,-1048.59 1583.8,-1022.3 1581.42,-1002.08"/>
<polygon fill="black" stroke="black" points="1584.9,-1001.74 1580.26,-992.21 1577.95,-1002.55 1584.9,-1001.74"/>
</g>
<!-- PreConstruct__35 -->
<g id="node18" class="node">
<title>PreConstruct__35</title>
<polygon fill="#eeeeee" stroke="black" points="2325,-819 2325,-855 2457,-855 2457,-819 2325,-819"/>
<text text-anchor="start" x="2333" y="-833.3" font-family="monospace" font-size="14.00">EX_EndOfScript</text>
</g>
</g>
</svg>
