<?xml version="1.0" encoding="UTF-8" standalone="no"?>
<!DOCTYPE svg PUBLIC "-//W3C//DTD SVG 1.1//EN"
 "http://www.w3.org/Graphics/SVG/1.1/DTD/svg11.dtd">
<!-- Generated by graphviz version 7.0.1 (0)
 -->
<!-- Pages: 1 -->
<svg width="2723pt" height="812pt"
 viewBox="0.00 0.00 2722.50 812.00" xmlns="http://www.w3.org/2000/svg" xmlns:xlink="http://www.w3.org/1999/xlink">
<g id="graph0" class="graph" transform="scale(1 1) rotate(0) translate(4 808)">
<polygon fill="white" stroke="none" points="-4,4 -4,-808 2718.5,-808 2718.5,4 -4,4"/>
<!-- ABP_Slug_A_C -->
<g id="node1" class="node">
<title>ABP_Slug_A_C</title>
<polygon fill="#88ff88" stroke="black" points="0,-525.5 0,-803.5 520,-803.5 520,-525.5 0,-525.5"/>
<text text-anchor="start" x="8" y="-788.3" font-family="monospace" font-size="14.00">ClassExport: ABP_Slug_A_C</text>
<text text-anchor="start" x="8" y="-773.3" font-family="monospace" font-size="14.00">  SuperStruct: import /Script/FSD&#45;&gt;EnemyAnimInstance</text>
<text text-anchor="start" x="8" y="-758.3" font-family="monospace" font-size="14.00">  Properties:</text>
<text text-anchor="start" x="8" y="-743.3" font-family="monospace" font-size="14.00">    StructProperty UberGraphFrame</text>
<text text-anchor="start" x="8" y="-728.3" font-family="monospace" font-size="14.00">      CPF_Transient|CPF_DuplicateTransient</text>
<text text-anchor="start" x="8" y="-713.3" font-family="monospace" font-size="14.00">    StructProperty AnimGraphNode_Root</text>
<text text-anchor="start" x="8" y="-698.3" font-family="monospace" font-size="14.00">    StructProperty AnimGraphNode_TransitionResult</text>
<text text-anchor="start" x="8" y="-683.3" font-family="monospace" font-size="14.00">    StructProperty AnimGraphNode_RandomPlayer</text>
<text text-anchor="start" x="8" y="-668.3" font-family="monospace" font-size="14.00">    StructProperty AnimGraphNode_StateResult_1</text>
<text text-anchor="start" x="8" y="-653.3" font-family="monospace" font-size="14.00">    StructProperty AnimGraphNode_SequencePlayer</text>
<text text-anchor="start" x="8" y="-638.3" font-family="monospace" font-size="14.00">    StructProperty AnimGraphNode_StateResult</text>
<text text-anchor="start" x="8" y="-623.3" font-family="monospace" font-size="14.00">    StructProperty AnimGraphNode_StateMachine</text>
<text text-anchor="start" x="8" y="-608.3" font-family="monospace" font-size="14.00">    StructProperty AnimGraphNode_RigidBody</text>
<text text-anchor="start" x="8" y="-593.3" font-family="monospace" font-size="14.00">    StructProperty AnimGraphNode_LocalToComponentSpace</text>
<text text-anchor="start" x="8" y="-578.3" font-family="monospace" font-size="14.00">    StructProperty AnimGraphNode_ComponentToLocalSpace</text>
<text text-anchor="start" x="8" y="-563.3" font-family="monospace" font-size="14.00">    StructProperty AnimGraphNode_Slot</text>
<text text-anchor="start" x="8" y="-548.3" font-family="monospace" font-size="14.00">    IntProperty Picked</text>
<text text-anchor="start" x="8" y="-533.3" font-family="monospace" font-size="14.00">      CPF_Edit|CPF_BlueprintVisible|CPF_DisableEditOnInstance</text>
</g>
<!-- ExecuteUbergraph_ABP_Slug_A -->
<g id="node2" class="node">
<title>ExecuteUbergraph_ABP_Slug_A</title>
<polygon fill="#ff8888" stroke="black" points="538,-623 538,-706 1132,-706 1132,-623 538,-623"/>
<text text-anchor="start" x="546" y="-690.8" font-family="monospace" font-size="14.00">Function ExecuteUbergraph_ABP_Slug_A</text>
<text text-anchor="start" x="546" y="-675.8" font-family="monospace" font-size="14.00">  IntProperty EntryPoint</text>
<text text-anchor="start" x="546" y="-660.8" font-family="monospace" font-size="14.00">    CPF_BlueprintVisible|CPF_BlueprintReadOnly|CPF_Parm</text>
<text text-anchor="start" x="546" y="-645.8" font-family="monospace" font-size="14.00">  FloatProperty CallFunc_GetInstanceAssetPlayerTimeFromEnd_ReturnValue</text>
<text text-anchor="start" x="546" y="-630.8" font-family="monospace" font-size="14.00">  BoolProperty CallFunc_LessEqual_FloatFloat_ReturnValue</text>
</g>
<!-- ExecuteUbergraph_ABP_Slug_A__0 -->
<g id="node3" class="node">
<title>ExecuteUbergraph_ABP_Slug_A__0</title>
<polygon fill="#eeeeee" stroke="black" points="699,-428 699,-466 971,-466 971,-428 699,-428"/>
<text text-anchor="start" x="707" y="-450.8" font-family="monospace" font-size="14.00">EX_ComputedJump</text>
<text text-anchor="start" x="707" y="-435.8" font-family="monospace" font-size="14.00">  EX_LocalVariable [EntryPoint]</text>
</g>
<!-- ExecuteUbergraph_ABP_Slug_A&#45;&gt;ExecuteUbergraph_ABP_Slug_A__0 -->
<g id="edge1" class="edge">
<title>ExecuteUbergraph_ABP_Slug_A&#45;&gt;ExecuteUbergraph_ABP_Slug_A__0</title>
<path fill="none" stroke="black" d="M835,-623.22C835,-580.68 835,-514.66 835,-476.97"/>
<polygon fill="black" stroke="black" points="838.5,-477.32 835,-467.32 831.5,-477.32 838.5,-477.32"/>
</g>
<!-- ExecuteUbergraph_ABP_Slug_A__10 -->
<g id="node4" class="node">
<title>ExecuteUbergraph_ABP_Slug_A__10</title>
<polygon fill="#eeeeee" stroke="black" points="1680.5,-300.5 1680.5,-368.5 2431.5,-368.5 2431.5,-300.5 1680.5,-300.5"/>
<text text-anchor="start" x="1688.5" y="-353.3" font-family="monospace" font-size="14.00">EX_Let</text>
<text text-anchor="start" x="1688.5" y="-338.3" font-family="monospace" font-size="14.00">  EX_LocalVariable [CallFunc_GetInstanceAssetPlayerTimeFromEnd_ReturnValue]</text>
<text text-anchor="start" x="1688.5" y="-323.3" font-family="monospace" font-size="14.00">  EX_FinalFunction import /Script/Engine&#45;&gt;AnimInstance&#45;&gt;GetInstanceAssetPlayerTimeFromEnd</text>
<text text-anchor="start" x="1688.5" y="-308.3" font-family="monospace" font-size="14.00">    EX_IntConst 6</text>
</g>
<!-- ExecuteUbergraph_ABP_Slug_A__43 -->
<g id="node5" class="node">
<title>ExecuteUbergraph_ABP_Slug_A__43</title>
<polygon fill="#eeeeee" stroke="black" points="1730,-180.5 1730,-263.5 2382,-263.5 2382,-180.5 1730,-180.5"/>
<text text-anchor="start" x="1738" y="-248.3" font-family="monospace" font-size="14.00">EX_LetBool</text>
<text text-anchor="start" x="1738" y="-233.3" font-family="monospace" font-size="14.00">  EX_LocalVariable [CallFunc_LessEqual_FloatFloat_ReturnValue]</text>
<text text-anchor="start" x="1738" y="-218.3" font-family="monospace" font-size="14.00">  EX_CallMath import /Script/Engine&#45;&gt;KismetMathLibrary&#45;&gt;LessEqual_FloatFloat</text>
<text text-anchor="start" x="1738" y="-203.3" font-family="monospace" font-size="14.00">    EX_LocalVariable [CallFunc_GetInstanceAssetPlayerTimeFromEnd_ReturnValue]</text>
<text text-anchor="start" x="1738" y="-188.3" font-family="monospace" font-size="14.00">    EX_FloatConst 0.1</text>
</g>
<!-- ExecuteUbergraph_ABP_Slug_A__10&#45;&gt;ExecuteUbergraph_ABP_Slug_A__43 -->
<g id="edge2" class="edge">
<title>ExecuteUbergraph_ABP_Slug_A__10&#45;&gt;ExecuteUbergraph_ABP_Slug_A__43</title>
<path fill="none" stroke="black" d="M2056,-300.65C2056,-292.51 2056,-283.59 2056,-274.78"/>
<polygon fill="black" stroke="black" points="2059.5,-274.87 2056,-264.87 2052.5,-274.87 2059.5,-274.87"/>
</g>
<!-- ExecuteUbergraph_ABP_Slug_A__77 -->
<g id="node6" class="node">
<title>ExecuteUbergraph_ABP_Slug_A__77</title>
<polygon fill="#eeeeee" stroke="black" points="1792,-75.5 1792,-143.5 2320,-143.5 2320,-75.5 1792,-75.5"/>
<text text-anchor="start" x="1800" y="-128.3" font-family="monospace" font-size="14.00">EX_LetBool</text>
<text text-anchor="start" x="1800" y="-113.3" font-family="monospace" font-size="14.00">  EX_StructMemberContext [bCanEnterTransition]</text>
<text text-anchor="start" x="1800" y="-98.3" font-family="monospace" font-size="14.00">    EX_InstanceVariable [AnimGraphNode_TransitionResult]</text>
<text text-anchor="start" x="1800" y="-83.3" font-family="monospace" font-size="14.00">  EX_LocalVariable [CallFunc_LessEqual_FloatFloat_ReturnValue]</text>
</g>
<!-- ExecuteUbergraph_ABP_Slug_A__43&#45;&gt;ExecuteUbergraph_ABP_Slug_A__77 -->
<g id="edge3" class="edge">
<title>ExecuteUbergraph_ABP_Slug_A__43&#45;&gt;ExecuteUbergraph_ABP_Slug_A__77</title>
<path fill="none" stroke="black" d="M2056,-180.79C2056,-172.31 2056,-163.31 2056,-154.69"/>
<polygon fill="black" stroke="black" points="2059.5,-154.76 2056,-144.76 2052.5,-154.76 2059.5,-154.76"/>
</g>
<!-- ExecuteUbergraph_ABP_Slug_A__105 -->
<g id="node7" class="node">
<title>ExecuteUbergraph_ABP_Slug_A__105</title>
<polygon fill="#eeeeee" stroke="black" points="1998,-0.5 1998,-38.5 2114,-38.5 2114,-0.5 1998,-0.5"/>
<text text-anchor="start" x="2006" y="-23.3" font-family="monospace" font-size="14.00">EX_Return</text>
<text text-anchor="start" x="2006" y="-8.3" font-family="monospace" font-size="14.00">  EX_Nothing</text>
</g>
<!-- ExecuteUbergraph_ABP_Slug_A__77&#45;&gt;ExecuteUbergraph_ABP_Slug_A__105 -->
<g id="edge4" class="edge">
<title>ExecuteUbergraph_ABP_Slug_A__77&#45;&gt;ExecuteUbergraph_ABP_Slug_A__105</title>
<path fill="none" stroke="black" d="M2056,-75.73C2056,-67.2 2056,-58.05 2056,-49.72"/>
<polygon fill="black" stroke="black" points="2059.5,-49.75 2056,-39.75 2052.5,-49.75 2059.5,-49.75"/>
</g>
<!-- ExecuteUbergraph_ABP_Slug_A__107 -->
<g id="node8" class="node">
<title>ExecuteUbergraph_ABP_Slug_A__107</title>
<polygon fill="#eeeeee" stroke="black" points="2400,-204 2400,-240 2532,-240 2532,-204 2400,-204"/>
<text text-anchor="start" x="2408" y="-218.3" font-family="monospace" font-size="14.00">EX_EndOfScript</text>
</g>
<!-- EvaluateGraphExposedInputs_ExecuteUbergraph_ABP_Slug_A_AnimGraphNode_TransitionResult_294DDAB341123081E8C9C3A03F396AFC -->
<g id="node9" class="node">
<title>EvaluateGraphExposedInputs_ExecuteUbergraph_ABP_Slug_A_AnimGraphNode_TransitionResult_294DDAB341123081E8C9C3A03F396AFC</title>
<polygon fill="#ff8888" stroke="black" points="1150,-646.5 1150,-682.5 2214,-682.5 2214,-646.5 1150,-646.5"/>
<text text-anchor="start" x="1158" y="-660.8" font-family="monospace" font-size="14.00">Function EvaluateGraphExposedInputs_ExecuteUbergraph_ABP_Slug_A_AnimGraphNode_TransitionResult_294DDAB341123081E8C9C3A03F396AFC</text>
</g>
<!-- EvaluateGraphExposedInputs_ExecuteUbergraph_ABP_Slug_A_AnimGraphNode_TransitionResult_294DDAB341123081E8C9C3A03F396AFC__0 -->
<g id="node10" class="node">
<title>EvaluateGraphExposedInputs_ExecuteUbergraph_ABP_Slug_A_AnimGraphNode_TransitionResult_294DDAB341123081E8C9C3A03F396AFC__0</title>
<polygon fill="#eeeeee" stroke="black" points="1385,-428 1385,-466 1979,-466 1979,-428 1385,-428"/>
<text text-anchor="start" x="1393" y="-450.8" font-family="monospace" font-size="14.00">EX_LocalFinalFunction export ABP_Slug_A_C&#45;&gt;ExecuteUbergraph_ABP_Slug_A</text>
<text text-anchor="start" x="1393" y="-435.8" font-family="monospace" font-size="14.00">  EX_IntConst 10</text>
</g>
<!-- EvaluateGraphExposedInputs_ExecuteUbergraph_ABP_Slug_A_AnimGraphNode_TransitionResult_294DDAB341123081E8C9C3A03F396AFC&#45;&gt;EvaluateGraphExposedInputs_ExecuteUbergraph_ABP_Slug_A_AnimGraphNode_TransitionResult_294DDAB341123081E8C9C3A03F396AFC__0 -->
<g id="edge5" class="edge">
<title>EvaluateGraphExposedInputs_ExecuteUbergraph_ABP_Slug_A_AnimGraphNode_TransitionResult_294DDAB341123081E8C9C3A03F396AFC&#45;&gt;EvaluateGraphExposedInputs_ExecuteUbergraph_ABP_Slug_A_AnimGraphNode_TransitionResult_294DDAB341123081E8C9C3A03F396AFC__0</title>
<path fill="none" stroke="black" d="M1682,-646.59C1682,-609.96 1682,-522.92 1682,-477.2"/>
<polygon fill="black" stroke="black" points="1685.5,-477.25 1682,-467.25 1678.5,-477.25 1685.5,-477.25"/>
</g>
<!-- EvaluateGraphExposedInputs_ExecuteUbergraph_ABP_Slug_A_AnimGraphNode_TransitionResult_294DDAB341123081E8C9C3A03F396AFC__0&#45;&gt;ExecuteUbergraph_ABP_Slug_A__10 -->
<g id="edge6" class="edge">
<title>EvaluateGraphExposedInputs_ExecuteUbergraph_ABP_Slug_A_AnimGraphNode_TransitionResult_294DDAB341123081E8C9C3A03F396AFC__0:e&#45;&gt;ExecuteUbergraph_ABP_Slug_A__10</title>
<path fill="none" stroke="red" d="M1980,-447C2014.37,-447 2034.3,-410.38 2045.06,-379.12"/>
<polygon fill="none" stroke="red" points="2048.33,-380.38 2048.03,-369.79 2041.66,-378.26 2048.33,-380.38"/>
</g>
<!-- EvaluateGraphExposedInputs_ExecuteUbergraph_ABP_Slug_A_AnimGraphNode_TransitionResult_294DDAB341123081E8C9C3A03F396AFC__15 -->
<g id="node11" class="node">
<title>EvaluateGraphExposedInputs_ExecuteUbergraph_ABP_Slug_A_AnimGraphNode_TransitionResult_294DDAB341123081E8C9C3A03F396AFC__15</title>
<polygon fill="#eeeeee" stroke="black" points="1546,-315.5 1546,-353.5 1662,-353.5 1662,-315.5 1546,-315.5"/>
<text text-anchor="start" x="1554" y="-338.3" font-family="monospace" font-size="14.00">EX_Return</text>
<text text-anchor="start" x="1554" y="-323.3" font-family="monospace" font-size="14.00">  EX_Nothing</text>
</g>
<!-- EvaluateGraphExposedInputs_ExecuteUbergraph_ABP_Slug_A_AnimGraphNode_TransitionResult_294DDAB341123081E8C9C3A03F396AFC__0&#45;&gt;EvaluateGraphExposedInputs_ExecuteUbergraph_ABP_Slug_A_AnimGraphNode_TransitionResult_294DDAB341123081E8C9C3A03F396AFC__15 -->
<g id="edge7" class="edge">
<title>EvaluateGraphExposedInputs_ExecuteUbergraph_ABP_Slug_A_AnimGraphNode_TransitionResult_294DDAB341123081E8C9C3A03F396AFC__0&#45;&gt;EvaluateGraphExposedInputs_ExecuteUbergraph_ABP_Slug_A_AnimGraphNode_TransitionResult_294DDAB341123081E8C9C3A03F396AFC__15</title>
<path fill="none" stroke="black" d="M1669.47,-428.25C1656.96,-410.53 1637.57,-383.06 1623.14,-362.61"/>
<polygon fill="black" stroke="black" points="1626,-360.6 1617.37,-354.45 1620.28,-364.63 1626,-360.6"/>
</g>
<!-- EvaluateGraphExposedInputs_ExecuteUbergraph_ABP_Slug_A_AnimGraphNode_TransitionResult_294DDAB341123081E8C9C3A03F396AFC__17 -->
<g id="node12" class="node">
<title>EvaluateGraphExposedInputs_ExecuteUbergraph_ABP_Slug_A_AnimGraphNode_TransitionResult_294DDAB341123081E8C9C3A03F396AFC__17</title>
<polygon fill="#eeeeee" stroke="black" points="2338,-91.5 2338,-127.5 2470,-127.5 2470,-91.5 2338,-91.5"/>
<text text-anchor="start" x="2346" y="-105.8" font-family="monospace" font-size="14.00">EX_EndOfScript</text>
</g>
<!-- AnimGraph -->
<g id="node13" class="node">
<title>AnimGraph</title>
<polygon fill="#ff8888" stroke="black" points="2392.5,-638 2392.5,-691 2623.5,-691 2623.5,-638 2392.5,-638"/>
<text text-anchor="start" x="2400.5" y="-675.8" font-family="monospace" font-size="14.00">Function AnimGraph</text>
<text text-anchor="start" x="2400.5" y="-660.8" font-family="monospace" font-size="14.00">  StructProperty AnimGraph</text>
<text text-anchor="start" x="2400.5" y="-645.8" font-family="monospace" font-size="14.00">    CPF_Parm|CPF_OutParm</text>
</g>
<!-- AnimGraph__0 -->
<g id="node14" class="node">
<title>AnimGraph__0</title>
<polygon fill="#eeeeee" stroke="black" points="2301.5,-405.5 2301.5,-488.5 2714.5,-488.5 2714.5,-405.5 2301.5,-405.5"/>
<text text-anchor="start" x="2309.5" y="-473.3" font-family="monospace" font-size="14.00">EX_Let</text>
<text text-anchor="start" x="2309.5" y="-458.3" font-family="monospace" font-size="14.00">  EX_LocalOutVariable</text>
<text text-anchor="start" x="2309.5" y="-443.3" font-family="monospace" font-size="14.00">    [AnimGraph]</text>
<text text-anchor="start" x="2309.5" y="-428.3" font-family="monospace" font-size="14.00">  EX_StructConst import /Script/Engine&#45;&gt;PoseLink</text>
<text text-anchor="start" x="2309.5" y="-413.3" font-family="monospace" font-size="14.00">    EX_IntConst &#45;1</text>
</g>
<!-- AnimGraph&#45;&gt;AnimGraph__0 -->
<g id="edge8" class="edge">
<title>AnimGraph&#45;&gt;AnimGraph__0</title>
<path fill="none" stroke="black" d="M2508,-638.36C2508,-604.52 2508,-543.52 2508,-499.68"/>
<polygon fill="black" stroke="black" points="2511.5,-499.89 2508,-489.89 2504.5,-499.89 2511.5,-499.89"/>
</g>
<!-- AnimGraph__37 -->
<g id="node15" class="node">
<title>AnimGraph__37</title>
<polygon fill="#eeeeee" stroke="black" points="2450,-315.5 2450,-353.5 2566,-353.5 2566,-315.5 2450,-315.5"/>
<text text-anchor="start" x="2458" y="-338.3" font-family="monospace" font-size="14.00">EX_Return</text>
<text text-anchor="start" x="2458" y="-323.3" font-family="monospace" font-size="14.00">  EX_Nothing</text>
</g>
<!-- AnimGraph__0&#45;&gt;AnimGraph__37 -->
<g id="edge9" class="edge">
<title>AnimGraph__0&#45;&gt;AnimGraph__37</title>
<path fill="none" stroke="black" d="M2508,-405.79C2508,-392.14 2508,-377.16 2508,-364.55"/>
<polygon fill="black" stroke="black" points="2511.5,-364.82 2508,-354.82 2504.5,-364.82 2511.5,-364.82"/>
</g>
<!-- AnimGraph__39 -->
<g id="node16" class="node">
<title>AnimGraph__39</title>
<polygon fill="#eeeeee" stroke="black" points="2132,-1.5 2132,-37.5 2264,-37.5 2264,-1.5 2132,-1.5"/>
<text text-anchor="start" x="2140" y="-15.8" font-family="monospace" font-size="14.00">EX_EndOfScript</text>
</g>
</g>
</svg>
