<?xml version="1.0" encoding="UTF-8" standalone="no"?>
<!DOCTYPE svg PUBLIC "-//W3C//DTD SVG 1.1//EN"
 "http://www.w3.org/Graphics/SVG/1.1/DTD/svg11.dtd">
<!-- Generated by graphviz version 7.0.1 (0)
 -->
<!-- Pages: 1 -->
<svg width="3181pt" height="1821pt"
 viewBox="0.00 0.00 3180.50 1821.00" xmlns="http://www.w3.org/2000/svg" xmlns:xlink="http://www.w3.org/1999/xlink">
<g id="graph0" class="graph" transform="scale(1 1) rotate(0) translate(4 1817)">
<polygon fill="white" stroke="none" points="-4,4 -4,-1817 3176.5,-1817 3176.5,4 -4,4"/>
<!-- EWC_OktoberFest_BeerAmbush_C -->
<g id="node1" class="node">
<title>EWC_OktoberFest_BeerAmbush_C</title>
<polygon fill="#88ff88" stroke="black" points="0,-1699.5 0,-1812.5 660,-1812.5 660,-1699.5 0,-1699.5"/>
<text text-anchor="start" x="8" y="-1797.3" font-family="monospace" font-size="14.00">ClassExport: EWC_OktoberFest_BeerAmbush_C</text>
<text text-anchor="start" x="8" y="-1782.3" font-family="monospace" font-size="14.00">  SuperStruct: import /Game/Enemies/Waves/WaveControllers/EWC_Base&#45;&gt;EWC_Base_C</text>
<text text-anchor="start" x="8" y="-1767.3" font-family="monospace" font-size="14.00">  Properties:</text>
<text text-anchor="start" x="8" y="-1752.3" font-family="monospace" font-size="14.00">    StructProperty UberGraphFrame</text>
<text text-anchor="start" x="8" y="-1737.3" font-family="monospace" font-size="14.00">      CPF_Transient|CPF_DuplicateTransient</text>
<text text-anchor="start" x="8" y="-1722.3" font-family="monospace" font-size="14.00">    StructProperty MugLocation</text>
<text text-anchor="start" x="8" y="-1707.3" font-family="monospace" font-size="14.00">      CPF_Edit|CPF_BlueprintVisible</text>
</g>
<!-- ExecuteUbergraph_EWC_OktoberFest_BeerAmbush -->
<g id="node2" class="node">
<title>ExecuteUbergraph_EWC_OktoberFest_BeerAmbush</title>
<polygon fill="#ff8888" stroke="black" points="678.5,-1699.5 678.5,-1812.5 1231.5,-1812.5 1231.5,-1699.5 678.5,-1699.5"/>
<text text-anchor="start" x="686.5" y="-1797.3" font-family="monospace" font-size="14.00">Function ExecuteUbergraph_EWC_OktoberFest_BeerAmbush</text>
<text text-anchor="start" x="686.5" y="-1782.3" font-family="monospace" font-size="14.00">  IntProperty EntryPoint</text>
<text text-anchor="start" x="686.5" y="-1767.3" font-family="monospace" font-size="14.00">    CPF_BlueprintVisible|CPF_BlueprintReadOnly|CPF_Parm</text>
<text text-anchor="start" x="686.5" y="-1752.3" font-family="monospace" font-size="14.00">  ArrayProperty CallFunc_GetSpawnPointsFromLocation_ReturnValue</text>
<text text-anchor="start" x="686.5" y="-1737.3" font-family="monospace" font-size="14.00">    CPF_ReferenceParm</text>
<text text-anchor="start" x="686.5" y="-1722.3" font-family="monospace" font-size="14.00">  ArrayProperty CallFunc_GetSpawnPointsFromLocation_ReturnValue_1</text>
<text text-anchor="start" x="686.5" y="-1707.3" font-family="monospace" font-size="14.00">    CPF_ReferenceParm</text>
</g>
<!-- ExecuteUbergraph_EWC_OktoberFest_BeerAmbush__0 -->
<g id="node3" class="node">
<title>ExecuteUbergraph_EWC_OktoberFest_BeerAmbush__0</title>
<polygon fill="#eeeeee" stroke="black" points="847.5,-1588.5 847.5,-1624.5 1062.5,-1624.5 1062.5,-1588.5 847.5,-1588.5"/>
<text text-anchor="start" x="855.5" y="-1602.8" font-family="monospace" font-size="14.00">EX_PushExecutionFlow 459</text>
</g>
<!-- ExecuteUbergraph_EWC_OktoberFest_BeerAmbush&#45;&gt;ExecuteUbergraph_EWC_OktoberFest_BeerAmbush__0 -->
<g id="edge1" class="edge">
<title>ExecuteUbergraph_EWC_OktoberFest_BeerAmbush&#45;&gt;ExecuteUbergraph_EWC_OktoberFest_BeerAmbush__0</title>
<path fill="none" stroke="black" d="M955,-1699.66C955,-1677.87 955,-1653.8 955,-1635.72"/>
<polygon fill="black" stroke="black" points="958.5,-1635.78 955,-1625.78 951.5,-1635.78 958.5,-1635.78"/>
</g>
<!-- ExecuteUbergraph_EWC_OktoberFest_BeerAmbush__5 -->
<g id="node4" class="node">
<title>ExecuteUbergraph_EWC_OktoberFest_BeerAmbush__5</title>
<polygon fill="#eeeeee" stroke="black" points="767,-1430.5 767,-1468.5 1039,-1468.5 1039,-1430.5 767,-1430.5"/>
<text text-anchor="start" x="775" y="-1453.3" font-family="monospace" font-size="14.00">EX_ComputedJump</text>
<text text-anchor="start" x="775" y="-1438.3" font-family="monospace" font-size="14.00">  EX_LocalVariable [EntryPoint]</text>
</g>
<!-- ExecuteUbergraph_EWC_OktoberFest_BeerAmbush__0&#45;&gt;ExecuteUbergraph_EWC_OktoberFest_BeerAmbush__5 -->
<g id="edge3" class="edge">
<title>ExecuteUbergraph_EWC_OktoberFest_BeerAmbush__0&#45;&gt;ExecuteUbergraph_EWC_OktoberFest_BeerAmbush__5</title>
<path fill="none" stroke="black" d="M949.34,-1588.62C940.52,-1562.34 923.42,-1511.35 912.63,-1479.22"/>
<polygon fill="black" stroke="black" points="915.96,-1478.12 909.46,-1469.75 909.32,-1480.34 915.96,-1478.12"/>
</g>
<!-- ExecuteUbergraph_EWC_OktoberFest_BeerAmbush__459 -->
<g id="node18" class="node">
<title>ExecuteUbergraph_EWC_OktoberFest_BeerAmbush__459</title>
<polygon fill="#eeeeee" stroke="black" points="1057,-1430.5 1057,-1468.5 1173,-1468.5 1173,-1430.5 1057,-1430.5"/>
<text text-anchor="start" x="1065" y="-1453.3" font-family="monospace" font-size="14.00">EX_Return</text>
<text text-anchor="start" x="1065" y="-1438.3" font-family="monospace" font-size="14.00">  EX_Nothing</text>
</g>
<!-- ExecuteUbergraph_EWC_OktoberFest_BeerAmbush__0&#45;&gt;ExecuteUbergraph_EWC_OktoberFest_BeerAmbush__459 -->
<g id="edge2" class="edge">
<title>ExecuteUbergraph_EWC_OktoberFest_BeerAmbush__0:e&#45;&gt;ExecuteUbergraph_EWC_OktoberFest_BeerAmbush__459</title>
<path fill="none" stroke="red" d="M1064,-1606.5C1065.65,-1606.5 1091.78,-1524.3 1105.98,-1479.24"/>
<polygon fill="none" stroke="red" points="1109.27,-1480.43 1108.94,-1469.84 1102.6,-1478.33 1109.27,-1480.43"/>
<text text-anchor="middle" x="1131.5" y="-1546.8" font-family="monospace" font-size="14.00">PUSH STACK</text>
</g>
<!-- ExecuteUbergraph_EWC_OktoberFest_BeerAmbush__15 -->
<g id="node5" class="node">
<title>ExecuteUbergraph_EWC_OktoberFest_BeerAmbush__15</title>
<polygon fill="#eeeeee" stroke="black" points="2117,-738.5 2117,-866.5 2637,-866.5 2637,-738.5 2117,-738.5"/>
<text text-anchor="start" x="2125" y="-851.3" font-family="monospace" font-size="14.00">EX_CallMath import /Script/Engine&#45;&gt;KismetSystemLibrary&#45;&gt;Delay</text>
<text text-anchor="start" x="2125" y="-836.3" font-family="monospace" font-size="14.00">  EX_Self</text>
<text text-anchor="start" x="2125" y="-821.3" font-family="monospace" font-size="14.00">  EX_FloatConst 3</text>
<text text-anchor="start" x="2125" y="-806.3" font-family="monospace" font-size="14.00">  EX_StructConst import /Script/Engine&#45;&gt;LatentActionInfo</text>
<text text-anchor="start" x="2125" y="-791.3" font-family="monospace" font-size="14.00">    EX_SkipOffsetConst 70</text>
<text text-anchor="start" x="2125" y="-776.3" font-family="monospace" font-size="14.00">    EX_IntConst &#45;797588435</text>
<text text-anchor="start" x="2125" y="-761.3" font-family="monospace" font-size="14.00">    EX_NameConst ExecuteUbergraph_EWC_OktoberFest_BeerAmbush</text>
<text text-anchor="start" x="2125" y="-746.3" font-family="monospace" font-size="14.00">    EX_Self</text>
</g>
<!-- ExecuteUbergraph_EWC_OktoberFest_BeerAmbush__69 -->
<g id="node6" class="node">
<title>ExecuteUbergraph_EWC_OktoberFest_BeerAmbush__69</title>
<polygon fill="#eeeeee" stroke="black" points="2172.5,-596 2172.5,-632 2345.5,-632 2345.5,-596 2172.5,-596"/>
<text text-anchor="start" x="2180.5" y="-610.3" font-family="monospace" font-size="14.00">EX_PopExecutionFlow</text>
</g>
<!-- ExecuteUbergraph_EWC_OktoberFest_BeerAmbush__15&#45;&gt;ExecuteUbergraph_EWC_OktoberFest_BeerAmbush__69 -->
<g id="edge5" class="edge">
<title>ExecuteUbergraph_EWC_OktoberFest_BeerAmbush__15&#45;&gt;ExecuteUbergraph_EWC_OktoberFest_BeerAmbush__69</title>
<path fill="none" stroke="black" d="M2337.22,-738.62C2316.28,-705.53 2291.72,-666.72 2275.79,-641.53"/>
<polygon fill="black" stroke="black" points="2278.84,-639.81 2270.53,-633.23 2272.92,-643.55 2278.84,-639.81"/>
</g>
<!-- ExecuteUbergraph_EWC_OktoberFest_BeerAmbush__70 -->
<g id="node7" class="node">
<title>ExecuteUbergraph_EWC_OktoberFest_BeerAmbush__70</title>
<polygon fill="#eeeeee" stroke="black" points="2364,-527.5 2364,-700.5 3148,-700.5 3148,-527.5 2364,-527.5"/>
<text text-anchor="start" x="2372" y="-685.3" font-family="monospace" font-size="14.00">EX_Let</text>
<text text-anchor="start" x="2372" y="-670.3" font-family="monospace" font-size="14.00">  EX_LocalVariable [CallFunc_GetSpawnPointsFromLocation_ReturnValue_1]</text>
<text text-anchor="start" x="2372" y="-655.3" font-family="monospace" font-size="14.00">  EX_Context</text>
<text text-anchor="start" x="2372" y="-640.3" font-family="monospace" font-size="14.00">    EX_ObjectConst import /Script/FSD&#45;&gt;Default__SpawningBlueprintLibrary</text>
<text text-anchor="start" x="2372" y="-625.3" font-family="monospace" font-size="14.00">    EX_FinalFunction import /Script/FSD&#45;&gt;SpawningBlueprintLibrary&#45;&gt;GetSpawnPointsFromLocation</text>
<text text-anchor="start" x="2372" y="-610.3" font-family="monospace" font-size="14.00">      EX_Self</text>
<text text-anchor="start" x="2372" y="-595.3" font-family="monospace" font-size="14.00">      EX_InstanceVariable [MugLocation]</text>
<text text-anchor="start" x="2372" y="-580.3" font-family="monospace" font-size="14.00">      EX_FloatConst 1000</text>
<text text-anchor="start" x="2372" y="-565.3" font-family="monospace" font-size="14.00">      EX_IntConst 2</text>
<text text-anchor="start" x="2372" y="-550.3" font-family="monospace" font-size="14.00">      EX_ByteConst 2</text>
<text text-anchor="start" x="2372" y="-535.3" font-family="monospace" font-size="14.00">    RValue = [CallFunc_GetSpawnPointsFromLocation_ReturnValue_1]</text>
</g>
<!-- ExecuteUbergraph_EWC_OktoberFest_BeerAmbush__15&#45;&gt;ExecuteUbergraph_EWC_OktoberFest_BeerAmbush__70 -->
<g id="edge4" class="edge">
<title>ExecuteUbergraph_EWC_OktoberFest_BeerAmbush__15:e&#45;&gt;ExecuteUbergraph_EWC_OktoberFest_BeerAmbush__70</title>
<path fill="none" stroke="red" d="M2638,-802.5C2686.44,-802.5 2715.78,-757.12 2733.08,-711.01"/>
<polygon fill="none" stroke="red" points="2736.35,-712.27 2736.41,-701.67 2729.76,-709.92 2736.35,-712.27"/>
</g>
<!-- ExecuteUbergraph_EWC_OktoberFest_BeerAmbush__142 -->
<g id="node8" class="node">
<title>ExecuteUbergraph_EWC_OktoberFest_BeerAmbush__142</title>
<polygon fill="#eeeeee" stroke="black" points="2339.5,-331.5 2339.5,-489.5 3172.5,-489.5 3172.5,-331.5 2339.5,-331.5"/>
<text text-anchor="start" x="2347.5" y="-474.3" font-family="monospace" font-size="14.00">EX_Context</text>
<text text-anchor="start" x="2347.5" y="-459.3" font-family="monospace" font-size="14.00">  EX_ObjectConst import /Script/FSD&#45;&gt;Default__SpawningBlueprintLibrary</text>
<text text-anchor="start" x="2347.5" y="-444.3" font-family="monospace" font-size="14.00">  EX_FinalFunction import /Script/FSD&#45;&gt;SpawningBlueprintLibrary&#45;&gt;SpawnEnemyGroupDescriptorSpreadOut</text>
<text text-anchor="start" x="2347.5" y="-429.3" font-family="monospace" font-size="14.00">    EX_Self</text>
<text text-anchor="start" x="2347.5" y="-414.3" font-family="monospace" font-size="14.00">    EX_ObjectConst import /Game/Enemies/Spider/EG_SW_Grunts&#45;&gt;EG_SW_Grunts</text>
<text text-anchor="start" x="2347.5" y="-399.3" font-family="monospace" font-size="14.00">    EX_FloatConst 100</text>
<text text-anchor="start" x="2347.5" y="-384.3" font-family="monospace" font-size="14.00">    EX_LocalVariable [CallFunc_GetSpawnPointsFromLocation_ReturnValue_1]</text>
<text text-anchor="start" x="2347.5" y="-369.3" font-family="monospace" font-size="14.00">    EX_True</text>
<text text-anchor="start" x="2347.5" y="-354.3" font-family="monospace" font-size="14.00">    EX_ByteConst 2</text>
<text text-anchor="start" x="2347.5" y="-339.3" font-family="monospace" font-size="14.00">  RValue = []</text>
</g>
<!-- ExecuteUbergraph_EWC_OktoberFest_BeerAmbush__70&#45;&gt;ExecuteUbergraph_EWC_OktoberFest_BeerAmbush__142 -->
<g id="edge6" class="edge">
<title>ExecuteUbergraph_EWC_OktoberFest_BeerAmbush__70&#45;&gt;ExecuteUbergraph_EWC_OktoberFest_BeerAmbush__142</title>
<path fill="none" stroke="black" d="M2756,-527.55C2756,-518.65 2756,-509.58 2756,-500.64"/>
<polygon fill="black" stroke="black" points="2759.5,-500.92 2756,-490.92 2752.5,-500.92 2759.5,-500.92"/>
</g>
<!-- ExecuteUbergraph_EWC_OktoberFest_BeerAmbush__201 -->
<g id="node9" class="node">
<title>ExecuteUbergraph_EWC_OktoberFest_BeerAmbush__201</title>
<polygon fill="#eeeeee" stroke="black" points="2496,-165.5 2496,-293.5 3016,-293.5 3016,-165.5 2496,-165.5"/>
<text text-anchor="start" x="2504" y="-278.3" font-family="monospace" font-size="14.00">EX_CallMath import /Script/Engine&#45;&gt;KismetSystemLibrary&#45;&gt;Delay</text>
<text text-anchor="start" x="2504" y="-263.3" font-family="monospace" font-size="14.00">  EX_Self</text>
<text text-anchor="start" x="2504" y="-248.3" font-family="monospace" font-size="14.00">  EX_FloatConst 60</text>
<text text-anchor="start" x="2504" y="-233.3" font-family="monospace" font-size="14.00">  EX_StructConst import /Script/Engine&#45;&gt;LatentActionInfo</text>
<text text-anchor="start" x="2504" y="-218.3" font-family="monospace" font-size="14.00">    EX_SkipOffsetConst 256</text>
<text text-anchor="start" x="2504" y="-203.3" font-family="monospace" font-size="14.00">    EX_IntConst &#45;980727970</text>
<text text-anchor="start" x="2504" y="-188.3" font-family="monospace" font-size="14.00">    EX_NameConst ExecuteUbergraph_EWC_OktoberFest_BeerAmbush</text>
<text text-anchor="start" x="2504" y="-173.3" font-family="monospace" font-size="14.00">    EX_Self</text>
</g>
<!-- ExecuteUbergraph_EWC_OktoberFest_BeerAmbush__142&#45;&gt;ExecuteUbergraph_EWC_OktoberFest_BeerAmbush__201 -->
<g id="edge7" class="edge">
<title>ExecuteUbergraph_EWC_OktoberFest_BeerAmbush__142&#45;&gt;ExecuteUbergraph_EWC_OktoberFest_BeerAmbush__201</title>
<path fill="none" stroke="black" d="M2756,-331.51C2756,-322.67 2756,-313.67 2756,-304.87"/>
<polygon fill="black" stroke="black" points="2759.5,-304.97 2756,-294.97 2752.5,-304.97 2759.5,-304.97"/>
</g>
<!-- ExecuteUbergraph_EWC_OktoberFest_BeerAmbush__255 -->
<g id="node10" class="node">
<title>ExecuteUbergraph_EWC_OktoberFest_BeerAmbush__255</title>
<polygon fill="#eeeeee" stroke="black" points="2669.5,-83 2669.5,-119 2842.5,-119 2842.5,-83 2669.5,-83"/>
<text text-anchor="start" x="2677.5" y="-97.3" font-family="monospace" font-size="14.00">EX_PopExecutionFlow</text>
</g>
<!-- ExecuteUbergraph_EWC_OktoberFest_BeerAmbush__201&#45;&gt;ExecuteUbergraph_EWC_OktoberFest_BeerAmbush__255 -->
<g id="edge9" class="edge">
<title>ExecuteUbergraph_EWC_OktoberFest_BeerAmbush__201&#45;&gt;ExecuteUbergraph_EWC_OktoberFest_BeerAmbush__255</title>
<path fill="none" stroke="black" d="M2756,-165.62C2756,-153.23 2756,-140.82 2756,-130.3"/>
<polygon fill="black" stroke="black" points="2759.5,-130.43 2756,-120.43 2752.5,-130.43 2759.5,-130.43"/>
</g>
<!-- ExecuteUbergraph_EWC_OktoberFest_BeerAmbush__256 -->
<g id="node11" class="node">
<title>ExecuteUbergraph_EWC_OktoberFest_BeerAmbush__256</title>
<polygon fill="#eeeeee" stroke="black" points="2867.5,-74.5 2867.5,-127.5 3164.5,-127.5 3164.5,-74.5 2867.5,-74.5"/>
<text text-anchor="start" x="2875.5" y="-112.3" font-family="monospace" font-size="14.00">EX_LetBool</text>
<text text-anchor="start" x="2875.5" y="-97.3" font-family="monospace" font-size="14.00">  EX_InstanceVariable [IsComplete]</text>
<text text-anchor="start" x="2875.5" y="-82.3" font-family="monospace" font-size="14.00">  EX_True</text>
</g>
<!-- ExecuteUbergraph_EWC_OktoberFest_BeerAmbush__201&#45;&gt;ExecuteUbergraph_EWC_OktoberFest_BeerAmbush__256 -->
<g id="edge8" class="edge">
<title>ExecuteUbergraph_EWC_OktoberFest_BeerAmbush__201:e&#45;&gt;ExecuteUbergraph_EWC_OktoberFest_BeerAmbush__256</title>
<path fill="none" stroke="red" d="M3017,-229.5C3053.77,-229.5 3042.4,-175.82 3029.89,-138.12"/>
<polygon fill="none" stroke="red" points="3033.28,-137.22 3026.69,-128.92 3026.66,-139.52 3033.28,-137.22"/>
</g>
<!-- ExecuteUbergraph_EWC_OktoberFest_BeerAmbush__267 -->
<g id="node12" class="node">
<title>ExecuteUbergraph_EWC_OktoberFest_BeerAmbush__267</title>
<polygon fill="#eeeeee" stroke="black" points="2929.5,-0.5 2929.5,-36.5 3102.5,-36.5 3102.5,-0.5 2929.5,-0.5"/>
<text text-anchor="start" x="2937.5" y="-14.8" font-family="monospace" font-size="14.00">EX_PopExecutionFlow</text>
</g>
<!-- ExecuteUbergraph_EWC_OktoberFest_BeerAmbush__256&#45;&gt;ExecuteUbergraph_EWC_OktoberFest_BeerAmbush__267 -->
<g id="edge10" class="edge">
<title>ExecuteUbergraph_EWC_OktoberFest_BeerAmbush__256&#45;&gt;ExecuteUbergraph_EWC_OktoberFest_BeerAmbush__267</title>
<path fill="none" stroke="black" d="M3016,-74.53C3016,-65.92 3016,-56.25 3016,-47.46"/>
<polygon fill="black" stroke="black" points="3019.5,-47.69 3016,-37.69 3012.5,-47.69 3019.5,-47.69"/>
</g>
<!-- ExecuteUbergraph_EWC_OktoberFest_BeerAmbush__268 -->
<g id="node13" class="node">
<title>ExecuteUbergraph_EWC_OktoberFest_BeerAmbush__268</title>
<polygon fill="#eeeeee" stroke="black" points="1985,-1174.5 1985,-1347.5 2769,-1347.5 2769,-1174.5 1985,-1174.5"/>
<text text-anchor="start" x="1993" y="-1332.3" font-family="monospace" font-size="14.00">EX_Let</text>
<text text-anchor="start" x="1993" y="-1317.3" font-family="monospace" font-size="14.00">  EX_LocalVariable [CallFunc_GetSpawnPointsFromLocation_ReturnValue]</text>
<text text-anchor="start" x="1993" y="-1302.3" font-family="monospace" font-size="14.00">  EX_Context</text>
<text text-anchor="start" x="1993" y="-1287.3" font-family="monospace" font-size="14.00">    EX_ObjectConst import /Script/FSD&#45;&gt;Default__SpawningBlueprintLibrary</text>
<text text-anchor="start" x="1993" y="-1272.3" font-family="monospace" font-size="14.00">    EX_FinalFunction import /Script/FSD&#45;&gt;SpawningBlueprintLibrary&#45;&gt;GetSpawnPointsFromLocation</text>
<text text-anchor="start" x="1993" y="-1257.3" font-family="monospace" font-size="14.00">      EX_Self</text>
<text text-anchor="start" x="1993" y="-1242.3" font-family="monospace" font-size="14.00">      EX_InstanceVariable [MugLocation]</text>
<text text-anchor="start" x="1993" y="-1227.3" font-family="monospace" font-size="14.00">      EX_FloatConst 700</text>
<text text-anchor="start" x="1993" y="-1212.3" font-family="monospace" font-size="14.00">      EX_IntConst 3</text>
<text text-anchor="start" x="1993" y="-1197.3" font-family="monospace" font-size="14.00">      EX_ByteConst 2</text>
<text text-anchor="start" x="1993" y="-1182.3" font-family="monospace" font-size="14.00">    RValue = [CallFunc_GetSpawnPointsFromLocation_ReturnValue]</text>
</g>
<!-- ExecuteUbergraph_EWC_OktoberFest_BeerAmbush__340 -->
<g id="node14" class="node">
<title>ExecuteUbergraph_EWC_OktoberFest_BeerAmbush__340</title>
<polygon fill="#eeeeee" stroke="black" points="1960.5,-978.5 1960.5,-1136.5 2793.5,-1136.5 2793.5,-978.5 1960.5,-978.5"/>
<text text-anchor="start" x="1968.5" y="-1121.3" font-family="monospace" font-size="14.00">EX_Context</text>
<text text-anchor="start" x="1968.5" y="-1106.3" font-family="monospace" font-size="14.00">  EX_ObjectConst import /Script/FSD&#45;&gt;Default__SpawningBlueprintLibrary</text>
<text text-anchor="start" x="1968.5" y="-1091.3" font-family="monospace" font-size="14.00">  EX_FinalFunction import /Script/FSD&#45;&gt;SpawningBlueprintLibrary&#45;&gt;SpawnEnemyGroupDescriptorSpreadOut</text>
<text text-anchor="start" x="1968.5" y="-1076.3" font-family="monospace" font-size="14.00">    EX_Self</text>
<text text-anchor="start" x="1968.5" y="-1061.3" font-family="monospace" font-size="14.00">    EX_ObjectConst import /Game/Enemies/Spider/EG_GruntsSwarmersPraets&#45;&gt;EG_GruntsSwarmersPraets</text>
<text text-anchor="start" x="1968.5" y="-1046.3" font-family="monospace" font-size="14.00">    EX_FloatConst 200</text>
<text text-anchor="start" x="1968.5" y="-1031.3" font-family="monospace" font-size="14.00">    EX_LocalVariable [CallFunc_GetSpawnPointsFromLocation_ReturnValue]</text>
<text text-anchor="start" x="1968.5" y="-1016.3" font-family="monospace" font-size="14.00">    EX_True</text>
<text text-anchor="start" x="1968.5" y="-1001.3" font-family="monospace" font-size="14.00">    EX_ByteConst 2</text>
<text text-anchor="start" x="1968.5" y="-986.3" font-family="monospace" font-size="14.00">  RValue = []</text>
</g>
<!-- ExecuteUbergraph_EWC_OktoberFest_BeerAmbush__268&#45;&gt;ExecuteUbergraph_EWC_OktoberFest_BeerAmbush__340 -->
<g id="edge11" class="edge">
<title>ExecuteUbergraph_EWC_OktoberFest_BeerAmbush__268&#45;&gt;ExecuteUbergraph_EWC_OktoberFest_BeerAmbush__340</title>
<path fill="none" stroke="black" d="M2377,-1174.55C2377,-1165.65 2377,-1156.58 2377,-1147.64"/>
<polygon fill="black" stroke="black" points="2380.5,-1147.92 2377,-1137.92 2373.5,-1147.92 2380.5,-1147.92"/>
</g>
<!-- ExecuteUbergraph_EWC_OktoberFest_BeerAmbush__399 -->
<g id="node15" class="node">
<title>ExecuteUbergraph_EWC_OktoberFest_BeerAmbush__399</title>
<polygon fill="#eeeeee" stroke="black" points="2327.5,-904.5 2327.5,-940.5 2426.5,-940.5 2426.5,-904.5 2327.5,-904.5"/>
<text text-anchor="start" x="2335.5" y="-918.8" font-family="monospace" font-size="14.00">EX_Jump 15</text>
</g>
<!-- ExecuteUbergraph_EWC_OktoberFest_BeerAmbush__340&#45;&gt;ExecuteUbergraph_EWC_OktoberFest_BeerAmbush__399 -->
<g id="edge12" class="edge">
<title>ExecuteUbergraph_EWC_OktoberFest_BeerAmbush__340&#45;&gt;ExecuteUbergraph_EWC_OktoberFest_BeerAmbush__399</title>
<path fill="none" stroke="black" d="M2377,-978.75C2377,-969.08 2377,-959.75 2377,-951.59"/>
<polygon fill="black" stroke="black" points="2380.5,-951.72 2377,-941.72 2373.5,-951.72 2380.5,-951.72"/>
</g>
<!-- ExecuteUbergraph_EWC_OktoberFest_BeerAmbush__399&#45;&gt;ExecuteUbergraph_EWC_OktoberFest_BeerAmbush__15 -->
<g id="edge13" class="edge">
<title>ExecuteUbergraph_EWC_OktoberFest_BeerAmbush__399&#45;&gt;ExecuteUbergraph_EWC_OktoberFest_BeerAmbush__15</title>
<path fill="none" stroke="black" d="M2377,-904.59C2377,-897.14 2377,-887.81 2377,-877.86"/>
<polygon fill="black" stroke="black" points="2380.5,-877.94 2377,-867.94 2373.5,-877.94 2380.5,-877.94"/>
</g>
<!-- ExecuteUbergraph_EWC_OktoberFest_BeerAmbush__404 -->
<g id="node16" class="node">
<title>ExecuteUbergraph_EWC_OktoberFest_BeerAmbush__404</title>
<polygon fill="#eeeeee" stroke="black" points="1679,-1385.5 1679,-1513.5 2199,-1513.5 2199,-1385.5 1679,-1385.5"/>
<text text-anchor="start" x="1687" y="-1498.3" font-family="monospace" font-size="14.00">EX_CallMath import /Script/Engine&#45;&gt;KismetSystemLibrary&#45;&gt;Delay</text>
<text text-anchor="start" x="1687" y="-1483.3" font-family="monospace" font-size="14.00">  EX_Self</text>
<text text-anchor="start" x="1687" y="-1468.3" font-family="monospace" font-size="14.00">  EX_FloatConst 1</text>
<text text-anchor="start" x="1687" y="-1453.3" font-family="monospace" font-size="14.00">  EX_StructConst import /Script/Engine&#45;&gt;LatentActionInfo</text>
<text text-anchor="start" x="1687" y="-1438.3" font-family="monospace" font-size="14.00">    EX_SkipOffsetConst 268</text>
<text text-anchor="start" x="1687" y="-1423.3" font-family="monospace" font-size="14.00">    EX_IntConst 850957701</text>
<text text-anchor="start" x="1687" y="-1408.3" font-family="monospace" font-size="14.00">    EX_NameConst ExecuteUbergraph_EWC_OktoberFest_BeerAmbush</text>
<text text-anchor="start" x="1687" y="-1393.3" font-family="monospace" font-size="14.00">    EX_Self</text>
</g>
<!-- ExecuteUbergraph_EWC_OktoberFest_BeerAmbush__404&#45;&gt;ExecuteUbergraph_EWC_OktoberFest_BeerAmbush__268 -->
<g id="edge14" class="edge">
<title>ExecuteUbergraph_EWC_OktoberFest_BeerAmbush__404:e&#45;&gt;ExecuteUbergraph_EWC_OktoberFest_BeerAmbush__268</title>
<path fill="none" stroke="red" d="M2200,-1449.5C2256.85,-1449.5 2300.86,-1403.35 2330.77,-1356.85"/>
<polygon fill="none" stroke="red" points="2333.64,-1358.87 2335.95,-1348.53 2327.69,-1355.17 2333.64,-1358.87"/>
</g>
<!-- ExecuteUbergraph_EWC_OktoberFest_BeerAmbush__458 -->
<g id="node17" class="node">
<title>ExecuteUbergraph_EWC_OktoberFest_BeerAmbush__458</title>
<polygon fill="#eeeeee" stroke="black" points="1793.5,-1243 1793.5,-1279 1966.5,-1279 1966.5,-1243 1793.5,-1243"/>
<text text-anchor="start" x="1801.5" y="-1257.3" font-family="monospace" font-size="14.00">EX_PopExecutionFlow</text>
</g>
<!-- ExecuteUbergraph_EWC_OktoberFest_BeerAmbush__404&#45;&gt;ExecuteUbergraph_EWC_OktoberFest_BeerAmbush__458 -->
<g id="edge15" class="edge">
<title>ExecuteUbergraph_EWC_OktoberFest_BeerAmbush__404&#45;&gt;ExecuteUbergraph_EWC_OktoberFest_BeerAmbush__458</title>
<path fill="none" stroke="black" d="M1919.11,-1385.62C1908.83,-1353.12 1896.8,-1315.1 1888.82,-1289.89"/>
<polygon fill="black" stroke="black" points="1892.17,-1288.87 1885.82,-1280.39 1885.5,-1290.98 1892.17,-1288.87"/>
</g>
<!-- ExecuteUbergraph_EWC_OktoberFest_BeerAmbush__461 -->
<g id="node19" class="node">
<title>ExecuteUbergraph_EWC_OktoberFest_BeerAmbush__461</title>
<polygon fill="#eeeeee" stroke="black" points="1525,-1644.5 1525,-1680.5 1657,-1680.5 1657,-1644.5 1525,-1644.5"/>
<text text-anchor="start" x="1533" y="-1658.8" font-family="monospace" font-size="14.00">EX_EndOfScript</text>
</g>
<!-- StartWave -->
<g id="node20" class="node">
<title>StartWave</title>
<polygon fill="#ff8888" stroke="black" points="1427.5,-1738 1427.5,-1774 1592.5,-1774 1592.5,-1738 1427.5,-1738"/>
<text text-anchor="start" x="1435.5" y="-1752.3" font-family="monospace" font-size="14.00">Function StartWave</text>
</g>
<!-- StartWave__0 -->
<g id="node21" class="node">
<title>StartWave__0</title>
<polygon fill="#eeeeee" stroke="black" points="1081,-1587.5 1081,-1625.5 1939,-1625.5 1939,-1587.5 1081,-1587.5"/>
<text text-anchor="start" x="1089" y="-1610.3" font-family="monospace" font-size="14.00">EX_LocalFinalFunction export EWC_OktoberFest_BeerAmbush_C&#45;&gt;ExecuteUbergraph_EWC_OktoberFest_BeerAmbush</text>
<text text-anchor="start" x="1089" y="-1595.3" font-family="monospace" font-size="14.00">  EX_IntConst 404</text>
</g>
<!-- StartWave&#45;&gt;StartWave__0 -->
<g id="edge16" class="edge">
<title>StartWave&#45;&gt;StartWave__0</title>
<path fill="none" stroke="black" d="M1510,-1738.08C1510,-1713.34 1510,-1666.95 1510,-1636.65"/>
<polygon fill="black" stroke="black" points="1513.5,-1636.65 1510,-1626.65 1506.5,-1636.65 1513.5,-1636.65"/>
</g>
<!-- StartWave__0&#45;&gt;ExecuteUbergraph_EWC_OktoberFest_BeerAmbush__404 -->
<g id="edge17" class="edge">
<title>StartWave__0:e&#45;&gt;ExecuteUbergraph_EWC_OktoberFest_BeerAmbush__404</title>
<path fill="none" stroke="red" d="M1940,-1606.5C1948.97,-1606.5 1948.39,-1564.68 1945.74,-1524.35"/>
<polygon fill="none" stroke="red" points="1949.24,-1524.29 1945.04,-1514.56 1942.26,-1524.78 1949.24,-1524.29"/>
</g>
<!-- StartWave__15 -->
<g id="node22" class="node">
<title>StartWave__15</title>
<polygon fill="#eeeeee" stroke="black" points="1452,-1430.5 1452,-1468.5 1568,-1468.5 1568,-1430.5 1452,-1430.5"/>
<text text-anchor="start" x="1460" y="-1453.3" font-family="monospace" font-size="14.00">EX_Return</text>
<text text-anchor="start" x="1460" y="-1438.3" font-family="monospace" font-size="14.00">  EX_Nothing</text>
</g>
<!-- StartWave__0&#45;&gt;StartWave__15 -->
<g id="edge18" class="edge">
<title>StartWave__0&#45;&gt;StartWave__15</title>
<path fill="none" stroke="black" d="M1510,-1587.72C1510,-1561.21 1510,-1511.04 1510,-1479.26"/>
<polygon fill="black" stroke="black" points="1513.5,-1479.59 1510,-1469.59 1506.5,-1479.59 1513.5,-1479.59"/>
</g>
<!-- StartWave__17 -->
<g id="node23" class="node">
<title>StartWave__17</title>
<polygon fill="#eeeeee" stroke="black" points="1954,-1532.5 1954,-1568.5 2086,-1568.5 2086,-1532.5 1954,-1532.5"/>
<text text-anchor="start" x="1962" y="-1546.8" font-family="monospace" font-size="14.00">EX_EndOfScript</text>
</g>
</g>
</svg>
