<?xml version="1.0" encoding="UTF-8" standalone="no"?>
<!DOCTYPE svg PUBLIC "-//W3C//DTD SVG 1.1//EN"
 "http://www.w3.org/Graphics/SVG/1.1/DTD/svg11.dtd">
<!-- Generated by graphviz version 7.0.1 (0)
 -->
<!-- Pages: 1 -->
<svg width="1484pt" height="332pt"
 viewBox="0.00 0.00 1484.00 332.00" xmlns="http://www.w3.org/2000/svg" xmlns:xlink="http://www.w3.org/1999/xlink">
<g id="graph0" class="graph" transform="scale(1 1) rotate(0) translate(4 328)">
<polygon fill="white" stroke="none" points="-4,4 -4,-328 1480,-328 1480,4 -4,4"/>
<!-- ABP_PlagueProjectile_Thrower_C -->
<g id="node1" class="node">
<title>ABP_PlagueProjectile_Thrower_C</title>
<polygon fill="#88ff88" stroke="black" points="0,-195.5 0,-323.5 446,-323.5 446,-195.5 0,-195.5"/>
<text text-anchor="start" x="8" y="-308.3" font-family="monospace" font-size="14.00">ClassExport: ABP_PlagueProjectile_Thrower_C</text>
<text text-anchor="start" x="8" y="-293.3" font-family="monospace" font-size="14.00">  SuperStruct: import /Script/FSD&#45;&gt;EnemyAnimInstance</text>
<text text-anchor="start" x="8" y="-278.3" font-family="monospace" font-size="14.00">  Properties:</text>
<text text-anchor="start" x="8" y="-263.3" font-family="monospace" font-size="14.00">    StructProperty UberGraphFrame</text>
<text text-anchor="start" x="8" y="-248.3" font-family="monospace" font-size="14.00">      CPF_Transient|CPF_DuplicateTransient</text>
<text text-anchor="start" x="8" y="-233.3" font-family="monospace" font-size="14.00">    StructProperty AnimGraphNode_Root</text>
<text text-anchor="start" x="8" y="-218.3" font-family="monospace" font-size="14.00">    StructProperty AnimGraphNode_Slot</text>
<text text-anchor="start" x="8" y="-203.3" font-family="monospace" font-size="14.00">    StructProperty AnimGraphNode_LocalRefPose</text>
</g>
<!-- ExecuteUbergraph_ABP_PlagueProjectile_Thrower -->
<g id="node2" class="node">
<title>ExecuteUbergraph_ABP_PlagueProjectile_Thrower</title>
<polygon fill="#ff8888" stroke="black" points="464,-233 464,-286 934,-286 934,-233 464,-233"/>
<text text-anchor="start" x="472" y="-270.8" font-family="monospace" font-size="14.00">Function ExecuteUbergraph_ABP_PlagueProjectile_Thrower</text>
<text text-anchor="start" x="472" y="-255.8" font-family="monospace" font-size="14.00">  IntProperty EntryPoint</text>
<text text-anchor="start" x="472" y="-240.8" font-family="monospace" font-size="14.00">    CPF_BlueprintVisible|CPF_BlueprintReadOnly|CPF_Parm</text>
</g>
<!-- ExecuteUbergraph_ABP_PlagueProjectile_Thrower__0 -->
<g id="node3" class="node">
<title>ExecuteUbergraph_ABP_PlagueProjectile_Thrower__0</title>
<polygon fill="#eeeeee" stroke="black" points="563,-98 563,-136 835,-136 835,-98 563,-98"/>
<text text-anchor="start" x="571" y="-120.8" font-family="monospace" font-size="14.00">EX_ComputedJump</text>
<text text-anchor="start" x="571" y="-105.8" font-family="monospace" font-size="14.00">  EX_LocalVariable [EntryPoint]</text>
</g>
<!-- ExecuteUbergraph_ABP_PlagueProjectile_Thrower&#45;&gt;ExecuteUbergraph_ABP_PlagueProjectile_Thrower__0 -->
<g id="edge1" class="edge">
<title>ExecuteUbergraph_ABP_PlagueProjectile_Thrower&#45;&gt;ExecuteUbergraph_ABP_PlagueProjectile_Thrower__0</title>
<path fill="none" stroke="black" d="M699,-233.06C699,-208.86 699,-172.5 699,-147.15"/>
<polygon fill="black" stroke="black" points="702.5,-147.21 699,-137.21 695.5,-147.21 702.5,-147.21"/>
</g>
<!-- ExecuteUbergraph_ABP_PlagueProjectile_Thrower__10 -->
<g id="node4" class="node">
<title>ExecuteUbergraph_ABP_PlagueProjectile_Thrower__10</title>
<polygon fill="#eeeeee" stroke="black" points="1018,-0.5 1018,-38.5 1134,-38.5 1134,-0.5 1018,-0.5"/>
<text text-anchor="start" x="1026" y="-23.3" font-family="monospace" font-size="14.00">EX_Return</text>
<text text-anchor="start" x="1026" y="-8.3" font-family="monospace" font-size="14.00">  EX_Nothing</text>
</g>
<!-- ExecuteUbergraph_ABP_PlagueProjectile_Thrower__12 -->
<g id="node5" class="node">
<title>ExecuteUbergraph_ABP_PlagueProjectile_Thrower__12</title>
<polygon fill="#eeeeee" stroke="black" points="853,-99 853,-135 985,-135 985,-99 853,-99"/>
<text text-anchor="start" x="861" y="-113.3" font-family="monospace" font-size="14.00">EX_EndOfScript</text>
</g>
<!-- AnimGraph -->
<g id="node6" class="node">
<title>AnimGraph</title>
<polygon fill="#ff8888" stroke="black" points="1094.5,-233 1094.5,-286 1325.5,-286 1325.5,-233 1094.5,-233"/>
<text text-anchor="start" x="1102.5" y="-270.8" font-family="monospace" font-size="14.00">Function AnimGraph</text>
<text text-anchor="start" x="1102.5" y="-255.8" font-family="monospace" font-size="14.00">  StructProperty AnimGraph</text>
<text text-anchor="start" x="1102.5" y="-240.8" font-family="monospace" font-size="14.00">    CPF_Parm|CPF_OutParm</text>
</g>
<!-- AnimGraph__0 -->
<g id="node7" class="node">
<title>AnimGraph__0</title>
<polygon fill="#eeeeee" stroke="black" points="1003.5,-75.5 1003.5,-158.5 1416.5,-158.5 1416.5,-75.5 1003.5,-75.5"/>
<text text-anchor="start" x="1011.5" y="-143.3" font-family="monospace" font-size="14.00">EX_Let</text>
<text text-anchor="start" x="1011.5" y="-128.3" font-family="monospace" font-size="14.00">  EX_LocalOutVariable</text>
<text text-anchor="start" x="1011.5" y="-113.3" font-family="monospace" font-size="14.00">    [AnimGraph]</text>
<text text-anchor="start" x="1011.5" y="-98.3" font-family="monospace" font-size="14.00">  EX_StructConst import /Script/Engine&#45;&gt;PoseLink</text>
<text text-anchor="start" x="1011.5" y="-83.3" font-family="monospace" font-size="14.00">    EX_IntConst &#45;1</text>
</g>
<!-- AnimGraph&#45;&gt;AnimGraph__0 -->
<g id="edge2" class="edge">
<title>AnimGraph&#45;&gt;AnimGraph__0</title>
<path fill="none" stroke="black" d="M1210,-233.06C1210,-215.43 1210,-191.34 1210,-169.75"/>
<polygon fill="black" stroke="black" points="1213.5,-169.93 1210,-159.93 1206.5,-169.93 1213.5,-169.93"/>
</g>
<!-- AnimGraph__37 -->
<g id="node8" class="node">
<title>AnimGraph__37</title>
<polygon fill="#eeeeee" stroke="black" points="1152,-0.5 1152,-38.5 1268,-38.5 1268,-0.5 1152,-0.5"/>
<text text-anchor="start" x="1160" y="-23.3" font-family="monospace" font-size="14.00">EX_Return</text>
<text text-anchor="start" x="1160" y="-8.3" font-family="monospace" font-size="14.00">  EX_Nothing</text>
</g>
<!-- AnimGraph__0&#45;&gt;AnimGraph__37 -->
<g id="edge3" class="edge">
<title>AnimGraph__0&#45;&gt;AnimGraph__37</title>
<path fill="none" stroke="black" d="M1210,-75.78C1210,-67.01 1210,-57.89 1210,-49.65"/>
<polygon fill="black" stroke="black" points="1213.5,-49.86 1210,-39.86 1206.5,-49.86 1213.5,-49.86"/>
</g>
<!-- AnimGraph__39 -->
<g id="node9" class="node">
<title>AnimGraph__39</title>
<polygon fill="#eeeeee" stroke="black" points="1344,-241.5 1344,-277.5 1476,-277.5 1476,-241.5 1344,-241.5"/>
<text text-anchor="start" x="1352" y="-255.8" font-family="monospace" font-size="14.00">EX_EndOfScript</text>
</g>
</g>
</svg>
