<?xml version="1.0" encoding="UTF-8" standalone="no"?>
<!DOCTYPE svg PUBLIC "-//W3C//DTD SVG 1.1//EN"
 "http://www.w3.org/Graphics/SVG/1.1/DTD/svg11.dtd">
<!-- Generated by graphviz version 7.0.1 (0)
 -->
<!-- Pages: 1 -->
<svg width="3681pt" height="1594pt"
 viewBox="0.00 0.00 3680.50 1594.00" xmlns="http://www.w3.org/2000/svg" xmlns:xlink="http://www.w3.org/1999/xlink">
<g id="graph0" class="graph" transform="scale(1 1) rotate(0) translate(4 1590)">
<polygon fill="white" stroke="none" points="-4,4 -4,-1590 3676.5,-1590 3676.5,4 -4,4"/>
<!-- HUD_MinersManualNotification_C -->
<g id="node1" class="node">
<title>HUD_MinersManualNotification_C</title>
<polygon fill="#88ff88" stroke="black" points="0,-1352.5 0,-1585.5 850,-1585.5 850,-1352.5 0,-1352.5"/>
<text text-anchor="start" x="8" y="-1570.3" font-family="monospace" font-size="14.00">ClassExport: HUD_MinersManualNotification_C</text>
<text text-anchor="start" x="8" y="-1555.3" font-family="monospace" font-size="14.00">  SuperStruct: import /Script/UMG&#45;&gt;UserWidget</text>
<text text-anchor="start" x="8" y="-1540.3" font-family="monospace" font-size="14.00">  Properties:</text>
<text text-anchor="start" x="8" y="-1525.3" font-family="monospace" font-size="14.00">    StructProperty UberGraphFrame</text>
<text text-anchor="start" x="8" y="-1510.3" font-family="monospace" font-size="14.00">      CPF_Transient|CPF_DuplicateTransient</text>
<text text-anchor="start" x="8" y="-1495.3" font-family="monospace" font-size="14.00">    ObjectProperty Intro</text>
<text text-anchor="start" x="8" y="-1480.3" font-family="monospace" font-size="14.00">      CPF_BlueprintVisible|CPF_BlueprintReadOnly|CPF_Transient|CPF_RepSkip</text>
<text text-anchor="start" x="8" y="-1465.3" font-family="monospace" font-size="14.00">    ObjectProperty Image_Background</text>
<text text-anchor="start" x="8" y="-1450.3" font-family="monospace" font-size="14.00">      CPF_BlueprintVisible|CPF_ExportObject|CPF_InstancedReference|CPF_RepSkip|CPF_PersistentInstance</text>
<text text-anchor="start" x="8" y="-1435.3" font-family="monospace" font-size="14.00">    ObjectProperty PageText</text>
<text text-anchor="start" x="8" y="-1420.3" font-family="monospace" font-size="14.00">      CPF_BlueprintVisible|CPF_ExportObject|CPF_InstancedReference|CPF_RepSkip|CPF_PersistentInstance</text>
<text text-anchor="start" x="8" y="-1405.3" font-family="monospace" font-size="14.00">    ObjectProperty TextBlock_Headline</text>
<text text-anchor="start" x="8" y="-1390.3" font-family="monospace" font-size="14.00">      CPF_BlueprintVisible|CPF_ExportObject|CPF_InstancedReference|CPF_RepSkip|CPF_PersistentInstance</text>
<text text-anchor="start" x="8" y="-1375.3" font-family="monospace" font-size="14.00">    ObjectProperty UI_AdvancedLabel</text>
<text text-anchor="start" x="8" y="-1360.3" font-family="monospace" font-size="14.00">      CPF_BlueprintVisible|CPF_ExportObject|CPF_InstancedReference|CPF_RepSkip|CPF_PersistentInstance</text>
</g>
<!-- ExecuteUbergraph_HUD_MinersManualNotification -->
<g id="node2" class="node">
<title>ExecuteUbergraph_HUD_MinersManualNotification</title>
<polygon fill="#ff8888" stroke="black" points="868,-1382.5 868,-1555.5 1338,-1555.5 1338,-1382.5 868,-1382.5"/>
<text text-anchor="start" x="876" y="-1540.3" font-family="monospace" font-size="14.00">Function ExecuteUbergraph_HUD_MinersManualNotification</text>
<text text-anchor="start" x="876" y="-1525.3" font-family="monospace" font-size="14.00">  IntProperty EntryPoint</text>
<text text-anchor="start" x="876" y="-1510.3" font-family="monospace" font-size="14.00">    CPF_BlueprintVisible|CPF_BlueprintReadOnly|CPF_Parm</text>
<text text-anchor="start" x="876" y="-1495.3" font-family="monospace" font-size="14.00">  DelegateProperty K2Node_CreateDelegate_OutputDelegate</text>
<text text-anchor="start" x="876" y="-1480.3" font-family="monospace" font-size="14.00">  BoolProperty K2Node_Event_IsDesignTime</text>
<text text-anchor="start" x="876" y="-1465.3" font-family="monospace" font-size="14.00">  StructProperty CallFunc_MenuColors_OutputColor</text>
<text text-anchor="start" x="876" y="-1450.3" font-family="monospace" font-size="14.00">  TextProperty K2Node_CustomEvent_Text</text>
<text text-anchor="start" x="876" y="-1435.3" font-family="monospace" font-size="14.00">  FloatProperty K2Node_CustomEvent_TimeOnScreen</text>
<text text-anchor="start" x="876" y="-1420.3" font-family="monospace" font-size="14.00">  StructProperty K2Node_MakeStruct_SlateColor</text>
<text text-anchor="start" x="876" y="-1405.3" font-family="monospace" font-size="14.00">  ObjectProperty CallFunc_PlayAnimation_ReturnValue</text>
<text text-anchor="start" x="876" y="-1390.3" font-family="monospace" font-size="14.00">  ObjectProperty CallFunc_PlayAnimation_ReturnValue_1</text>
</g>
<!-- ExecuteUbergraph_HUD_MinersManualNotification__0 -->
<g id="node3" class="node">
<title>ExecuteUbergraph_HUD_MinersManualNotification__0</title>
<polygon fill="#eeeeee" stroke="black" points="995.5,-1241.5 995.5,-1277.5 1210.5,-1277.5 1210.5,-1241.5 995.5,-1241.5"/>
<text text-anchor="start" x="1003.5" y="-1255.8" font-family="monospace" font-size="14.00">EX_PushExecutionFlow 435</text>
</g>
<!-- ExecuteUbergraph_HUD_MinersManualNotification&#45;&gt;ExecuteUbergraph_HUD_MinersManualNotification__0 -->
<g id="edge1" class="edge">
<title>ExecuteUbergraph_HUD_MinersManualNotification&#45;&gt;ExecuteUbergraph_HUD_MinersManualNotification__0</title>
<path fill="none" stroke="black" d="M1103,-1382.7C1103,-1349.2 1103,-1313.04 1103,-1288.82"/>
<polygon fill="black" stroke="black" points="1106.5,-1288.83 1103,-1278.83 1099.5,-1288.83 1106.5,-1288.83"/>
</g>
<!-- ExecuteUbergraph_HUD_MinersManualNotification__5 -->
<g id="node4" class="node">
<title>ExecuteUbergraph_HUD_MinersManualNotification__5</title>
<polygon fill="#eeeeee" stroke="black" points="899,-1128.5 899,-1166.5 1171,-1166.5 1171,-1128.5 899,-1128.5"/>
<text text-anchor="start" x="907" y="-1151.3" font-family="monospace" font-size="14.00">EX_ComputedJump</text>
<text text-anchor="start" x="907" y="-1136.3" font-family="monospace" font-size="14.00">  EX_LocalVariable [EntryPoint]</text>
</g>
<!-- ExecuteUbergraph_HUD_MinersManualNotification__0&#45;&gt;ExecuteUbergraph_HUD_MinersManualNotification__5 -->
<g id="edge3" class="edge">
<title>ExecuteUbergraph_HUD_MinersManualNotification__0&#45;&gt;ExecuteUbergraph_HUD_MinersManualNotification__5</title>
<path fill="none" stroke="black" d="M1092.67,-1241.79C1081.88,-1224.34 1064.77,-1196.66 1051.99,-1175.98"/>
<polygon fill="black" stroke="black" points="1055.14,-1174.42 1046.9,-1167.75 1049.18,-1178.1 1055.14,-1174.42"/>
</g>
<!-- ExecuteUbergraph_HUD_MinersManualNotification__435 -->
<g id="node20" class="node">
<title>ExecuteUbergraph_HUD_MinersManualNotification__435</title>
<polygon fill="#eeeeee" stroke="black" points="1189,-1128.5 1189,-1166.5 1305,-1166.5 1305,-1128.5 1189,-1128.5"/>
<text text-anchor="start" x="1197" y="-1151.3" font-family="monospace" font-size="14.00">EX_Return</text>
<text text-anchor="start" x="1197" y="-1136.3" font-family="monospace" font-size="14.00">  EX_Nothing</text>
</g>
<!-- ExecuteUbergraph_HUD_MinersManualNotification__0&#45;&gt;ExecuteUbergraph_HUD_MinersManualNotification__435 -->
<g id="edge2" class="edge">
<title>ExecuteUbergraph_HUD_MinersManualNotification__0:e&#45;&gt;ExecuteUbergraph_HUD_MinersManualNotification__435</title>
<path fill="none" stroke="red" d="M1212,-1259.5C1246.37,-1259.5 1250.52,-1210.49 1249.43,-1177.6"/>
<polygon fill="none" stroke="red" points="1252.94,-1177.65 1248.92,-1167.85 1245.95,-1178.02 1252.94,-1177.65"/>
<text text-anchor="middle" x="1291.5" y="-1199.8" font-family="monospace" font-size="14.00">PUSH STACK</text>
</g>
<!-- ExecuteUbergraph_HUD_MinersManualNotification__15 -->
<g id="node5" class="node">
<title>ExecuteUbergraph_HUD_MinersManualNotification__15</title>
<polygon fill="#eeeeee" stroke="black" points="2148.5,-256.5 2148.5,-399.5 2693.5,-399.5 2693.5,-256.5 2148.5,-256.5"/>
<text text-anchor="start" x="2156.5" y="-384.3" font-family="monospace" font-size="14.00">EX_LetObj</text>
<text text-anchor="start" x="2156.5" y="-369.3" font-family="monospace" font-size="14.00">  EX_LocalVariable [CallFunc_PlayAnimation_ReturnValue_1]</text>
<text text-anchor="start" x="2156.5" y="-354.3" font-family="monospace" font-size="14.00">  EX_FinalFunction import /Script/UMG&#45;&gt;UserWidget&#45;&gt;PlayAnimation</text>
<text text-anchor="start" x="2156.5" y="-339.3" font-family="monospace" font-size="14.00">    EX_InstanceVariable [Intro]</text>
<text text-anchor="start" x="2156.5" y="-324.3" font-family="monospace" font-size="14.00">    EX_FloatConst 0</text>
<text text-anchor="start" x="2156.5" y="-309.3" font-family="monospace" font-size="14.00">    EX_IntConst 1</text>
<text text-anchor="start" x="2156.5" y="-294.3" font-family="monospace" font-size="14.00">    EX_ByteConst 1</text>
<text text-anchor="start" x="2156.5" y="-279.3" font-family="monospace" font-size="14.00">    EX_FloatConst 1</text>
<text text-anchor="start" x="2156.5" y="-264.3" font-family="monospace" font-size="14.00">    EX_False</text>
</g>
<!-- ExecuteUbergraph_HUD_MinersManualNotification__62 -->
<g id="node6" class="node">
<title>ExecuteUbergraph_HUD_MinersManualNotification__62</title>
<polygon fill="#eeeeee" stroke="black" points="2177.5,-165.5 2177.5,-218.5 2664.5,-218.5 2664.5,-165.5 2177.5,-165.5"/>
<text text-anchor="start" x="2185.5" y="-203.3" font-family="monospace" font-size="14.00">EX_BindDelegate OnFinished</text>
<text text-anchor="start" x="2185.5" y="-188.3" font-family="monospace" font-size="14.00">  EX_LocalVariable [K2Node_CreateDelegate_OutputDelegate]</text>
<text text-anchor="start" x="2185.5" y="-173.3" font-family="monospace" font-size="14.00">  EX_Self</text>
</g>
<!-- ExecuteUbergraph_HUD_MinersManualNotification__15&#45;&gt;ExecuteUbergraph_HUD_MinersManualNotification__62 -->
<g id="edge4" class="edge">
<title>ExecuteUbergraph_HUD_MinersManualNotification__15&#45;&gt;ExecuteUbergraph_HUD_MinersManualNotification__62</title>
<path fill="none" stroke="black" d="M2421,-256.86C2421,-247.48 2421,-238.18 2421,-229.7"/>
<polygon fill="black" stroke="black" points="2424.5,-229.85 2421,-219.85 2417.5,-229.85 2424.5,-229.85"/>
</g>
<!-- ExecuteUbergraph_HUD_MinersManualNotification__85 -->
<g id="node7" class="node">
<title>ExecuteUbergraph_HUD_MinersManualNotification__85</title>
<polygon fill="#eeeeee" stroke="black" points="2115.5,-74.5 2115.5,-127.5 2726.5,-127.5 2726.5,-74.5 2115.5,-74.5"/>
<text text-anchor="start" x="2123.5" y="-112.3" font-family="monospace" font-size="14.00">EX_FinalFunction import /Script/UMG&#45;&gt;UserWidget&#45;&gt;BindToAnimationFinished</text>
<text text-anchor="start" x="2123.5" y="-97.3" font-family="monospace" font-size="14.00">  EX_InstanceVariable [Intro]</text>
<text text-anchor="start" x="2123.5" y="-82.3" font-family="monospace" font-size="14.00">  EX_LocalVariable [K2Node_CreateDelegate_OutputDelegate]</text>
</g>
<!-- ExecuteUbergraph_HUD_MinersManualNotification__62&#45;&gt;ExecuteUbergraph_HUD_MinersManualNotification__85 -->
<g id="edge5" class="edge">
<title>ExecuteUbergraph_HUD_MinersManualNotification__62&#45;&gt;ExecuteUbergraph_HUD_MinersManualNotification__85</title>
<path fill="none" stroke="black" d="M2421,-165.73C2421,-157.37 2421,-147.89 2421,-138.84"/>
<polygon fill="black" stroke="black" points="2424.5,-138.84 2421,-128.84 2417.5,-138.84 2424.5,-138.84"/>
</g>
<!-- ExecuteUbergraph_HUD_MinersManualNotification__113 -->
<g id="node8" class="node">
<title>ExecuteUbergraph_HUD_MinersManualNotification__113</title>
<polygon fill="#eeeeee" stroke="black" points="2334.5,-0.5 2334.5,-36.5 2507.5,-36.5 2507.5,-0.5 2334.5,-0.5"/>
<text text-anchor="start" x="2342.5" y="-14.8" font-family="monospace" font-size="14.00">EX_PopExecutionFlow</text>
</g>
<!-- ExecuteUbergraph_HUD_MinersManualNotification__85&#45;&gt;ExecuteUbergraph_HUD_MinersManualNotification__113 -->
<g id="edge6" class="edge">
<title>ExecuteUbergraph_HUD_MinersManualNotification__85&#45;&gt;ExecuteUbergraph_HUD_MinersManualNotification__113</title>
<path fill="none" stroke="black" d="M2421,-74.53C2421,-65.92 2421,-56.25 2421,-47.46"/>
<polygon fill="black" stroke="black" points="2424.5,-47.69 2421,-37.69 2417.5,-47.69 2424.5,-47.69"/>
</g>
<!-- ExecuteUbergraph_HUD_MinersManualNotification__114 -->
<g id="node9" class="node">
<title>ExecuteUbergraph_HUD_MinersManualNotification__114</title>
<polygon fill="#eeeeee" stroke="black" points="2442.5,-941.5 2442.5,-1054.5 3201.5,-1054.5 3201.5,-941.5 2442.5,-941.5"/>
<text text-anchor="start" x="2450.5" y="-1039.3" font-family="monospace" font-size="14.00">EX_Context</text>
<text text-anchor="start" x="2450.5" y="-1024.3" font-family="monospace" font-size="14.00">  EX_ObjectConst import /Game/UI/Art/WidgetParts/LIB_MenuColors&#45;&gt;Default__LIB_MenuColors_C</text>
<text text-anchor="start" x="2450.5" y="-1009.3" font-family="monospace" font-size="14.00">  EX_LocalVirtualFunction MenuColors</text>
<text text-anchor="start" x="2450.5" y="-994.3" font-family="monospace" font-size="14.00">    EX_ByteConst 0</text>
<text text-anchor="start" x="2450.5" y="-979.3" font-family="monospace" font-size="14.00">    EX_Self</text>
<text text-anchor="start" x="2450.5" y="-964.3" font-family="monospace" font-size="14.00">    EX_LocalVariable [CallFunc_MenuColors_OutputColor]</text>
<text text-anchor="start" x="2450.5" y="-949.3" font-family="monospace" font-size="14.00">  RValue = []</text>
</g>
<!-- ExecuteUbergraph_HUD_MinersManualNotification__162 -->
<g id="node10" class="node">
<title>ExecuteUbergraph_HUD_MinersManualNotification__162</title>
<polygon fill="#eeeeee" stroke="black" points="2599,-792 2599,-860 3045,-860 3045,-792 2599,-792"/>
<text text-anchor="start" x="2607" y="-844.8" font-family="monospace" font-size="14.00">EX_Let</text>
<text text-anchor="start" x="2607" y="-829.8" font-family="monospace" font-size="14.00">  EX_StructMemberContext [SpecifiedColor]</text>
<text text-anchor="start" x="2607" y="-814.8" font-family="monospace" font-size="14.00">    EX_LocalVariable [K2Node_MakeStruct_SlateColor]</text>
<text text-anchor="start" x="2607" y="-799.8" font-family="monospace" font-size="14.00">  EX_LocalVariable [CallFunc_MenuColors_OutputColor]</text>
</g>
<!-- ExecuteUbergraph_HUD_MinersManualNotification__114&#45;&gt;ExecuteUbergraph_HUD_MinersManualNotification__162 -->
<g id="edge7" class="edge">
<title>ExecuteUbergraph_HUD_MinersManualNotification__114&#45;&gt;ExecuteUbergraph_HUD_MinersManualNotification__162</title>
<path fill="none" stroke="black" d="M2822,-941.81C2822,-918.98 2822,-892.88 2822,-871.33"/>
<polygon fill="black" stroke="black" points="2825.5,-871.4 2822,-861.4 2818.5,-871.4 2825.5,-871.4"/>
</g>
<!-- ExecuteUbergraph_HUD_MinersManualNotification__198 -->
<g id="node11" class="node">
<title>ExecuteUbergraph_HUD_MinersManualNotification__198</title>
<polygon fill="#eeeeee" stroke="black" points="2603.5,-641 2603.5,-709 3040.5,-709 3040.5,-641 2603.5,-641"/>
<text text-anchor="start" x="2611.5" y="-693.8" font-family="monospace" font-size="14.00">EX_Let</text>
<text text-anchor="start" x="2611.5" y="-678.8" font-family="monospace" font-size="14.00">  EX_StructMemberContext [ColorUseRule]</text>
<text text-anchor="start" x="2611.5" y="-663.8" font-family="monospace" font-size="14.00">    EX_LocalVariable [K2Node_MakeStruct_SlateColor]</text>
<text text-anchor="start" x="2611.5" y="-648.8" font-family="monospace" font-size="14.00">  EX_ByteConst 0</text>
</g>
<!-- ExecuteUbergraph_HUD_MinersManualNotification__162&#45;&gt;ExecuteUbergraph_HUD_MinersManualNotification__198 -->
<g id="edge8" class="edge">
<title>ExecuteUbergraph_HUD_MinersManualNotification__162&#45;&gt;ExecuteUbergraph_HUD_MinersManualNotification__198</title>
<path fill="none" stroke="black" d="M2822,-792.3C2822,-771.12 2822,-743.28 2822,-720.15"/>
<polygon fill="black" stroke="black" points="2825.5,-720.39 2822,-710.39 2818.5,-720.39 2825.5,-720.39"/>
</g>
<!-- ExecuteUbergraph_HUD_MinersManualNotification__227 -->
<g id="node12" class="node">
<title>ExecuteUbergraph_HUD_MinersManualNotification__227</title>
<polygon fill="#eeeeee" stroke="black" points="2533,-460 2533,-543 3111,-543 3111,-460 2533,-460"/>
<text text-anchor="start" x="2541" y="-527.8" font-family="monospace" font-size="14.00">EX_Context</text>
<text text-anchor="start" x="2541" y="-512.8" font-family="monospace" font-size="14.00">  EX_InstanceVariable [PageText]</text>
<text text-anchor="start" x="2541" y="-497.8" font-family="monospace" font-size="14.00">  EX_FinalFunction import /Script/UMG&#45;&gt;TextBlock&#45;&gt;SetColorAndOpacity</text>
<text text-anchor="start" x="2541" y="-482.8" font-family="monospace" font-size="14.00">    EX_LocalVariable [K2Node_MakeStruct_SlateColor]</text>
<text text-anchor="start" x="2541" y="-467.8" font-family="monospace" font-size="14.00">  RValue = []</text>
</g>
<!-- ExecuteUbergraph_HUD_MinersManualNotification__198&#45;&gt;ExecuteUbergraph_HUD_MinersManualNotification__227 -->
<g id="edge9" class="edge">
<title>ExecuteUbergraph_HUD_MinersManualNotification__198&#45;&gt;ExecuteUbergraph_HUD_MinersManualNotification__227</title>
<path fill="none" stroke="black" d="M2822,-641.34C2822,-616.74 2822,-582.53 2822,-554.22"/>
<polygon fill="black" stroke="black" points="2825.5,-554.41 2822,-544.41 2818.5,-554.41 2825.5,-554.41"/>
</g>
<!-- ExecuteUbergraph_HUD_MinersManualNotification__268 -->
<g id="node13" class="node">
<title>ExecuteUbergraph_HUD_MinersManualNotification__268</title>
<polygon fill="#eeeeee" stroke="black" points="2735.5,-310 2735.5,-346 2908.5,-346 2908.5,-310 2735.5,-310"/>
<text text-anchor="start" x="2743.5" y="-324.3" font-family="monospace" font-size="14.00">EX_PopExecutionFlow</text>
</g>
<!-- ExecuteUbergraph_HUD_MinersManualNotification__227&#45;&gt;ExecuteUbergraph_HUD_MinersManualNotification__268 -->
<g id="edge10" class="edge">
<title>ExecuteUbergraph_HUD_MinersManualNotification__227&#45;&gt;ExecuteUbergraph_HUD_MinersManualNotification__268</title>
<path fill="none" stroke="black" d="M2822,-460.29C2822,-428.55 2822,-385.09 2822,-357.03"/>
<polygon fill="black" stroke="black" points="2825.5,-357.18 2822,-347.18 2818.5,-357.18 2825.5,-357.18"/>
</g>
<!-- ExecuteUbergraph_HUD_MinersManualNotification__269 -->
<g id="node14" class="node">
<title>ExecuteUbergraph_HUD_MinersManualNotification__269</title>
<polygon fill="#eeeeee" stroke="black" points="1871,-784.5 1871,-867.5 2267,-867.5 2267,-784.5 1871,-784.5"/>
<text text-anchor="start" x="1879" y="-852.3" font-family="monospace" font-size="14.00">EX_Context</text>
<text text-anchor="start" x="1879" y="-837.3" font-family="monospace" font-size="14.00">  EX_InstanceVariable [PageText]</text>
<text text-anchor="start" x="1879" y="-822.3" font-family="monospace" font-size="14.00">  EX_VirtualFunction SetText</text>
<text text-anchor="start" x="1879" y="-807.3" font-family="monospace" font-size="14.00">    EX_LocalVariable [K2Node_CustomEvent_Text]</text>
<text text-anchor="start" x="1879" y="-792.3" font-family="monospace" font-size="14.00">  RValue = []</text>
</g>
<!-- ExecuteUbergraph_HUD_MinersManualNotification__314 -->
<g id="node15" class="node">
<title>ExecuteUbergraph_HUD_MinersManualNotification__314</title>
<polygon fill="#eeeeee" stroke="black" points="1796.5,-603.5 1796.5,-746.5 2341.5,-746.5 2341.5,-603.5 1796.5,-603.5"/>
<text text-anchor="start" x="1804.5" y="-731.3" font-family="monospace" font-size="14.00">EX_LetObj</text>
<text text-anchor="start" x="1804.5" y="-716.3" font-family="monospace" font-size="14.00">  EX_LocalVariable [CallFunc_PlayAnimation_ReturnValue]</text>
<text text-anchor="start" x="1804.5" y="-701.3" font-family="monospace" font-size="14.00">  EX_FinalFunction import /Script/UMG&#45;&gt;UserWidget&#45;&gt;PlayAnimation</text>
<text text-anchor="start" x="1804.5" y="-686.3" font-family="monospace" font-size="14.00">    EX_InstanceVariable [Intro]</text>
<text text-anchor="start" x="1804.5" y="-671.3" font-family="monospace" font-size="14.00">    EX_FloatConst 0</text>
<text text-anchor="start" x="1804.5" y="-656.3" font-family="monospace" font-size="14.00">    EX_IntConst 1</text>
<text text-anchor="start" x="1804.5" y="-641.3" font-family="monospace" font-size="14.00">    EX_ByteConst 0</text>
<text text-anchor="start" x="1804.5" y="-626.3" font-family="monospace" font-size="14.00">    EX_FloatConst 1</text>
<text text-anchor="start" x="1804.5" y="-611.3" font-family="monospace" font-size="14.00">    EX_False</text>
</g>
<!-- ExecuteUbergraph_HUD_MinersManualNotification__269&#45;&gt;ExecuteUbergraph_HUD_MinersManualNotification__314 -->
<g id="edge11" class="edge">
<title>ExecuteUbergraph_HUD_MinersManualNotification__269&#45;&gt;ExecuteUbergraph_HUD_MinersManualNotification__314</title>
<path fill="none" stroke="black" d="M2069,-784.68C2069,-776.28 2069,-767.15 2069,-757.86"/>
<polygon fill="black" stroke="black" points="2072.5,-758.01 2069,-748.01 2065.5,-758.01 2072.5,-758.01"/>
</g>
<!-- ExecuteUbergraph_HUD_MinersManualNotification__361 -->
<g id="node16" class="node">
<title>ExecuteUbergraph_HUD_MinersManualNotification__361</title>
<polygon fill="#eeeeee" stroke="black" points="1805,-437.5 1805,-565.5 2333,-565.5 2333,-437.5 1805,-437.5"/>
<text text-anchor="start" x="1813" y="-550.3" font-family="monospace" font-size="14.00">EX_CallMath import /Script/Engine&#45;&gt;KismetSystemLibrary&#45;&gt;Delay</text>
<text text-anchor="start" x="1813" y="-535.3" font-family="monospace" font-size="14.00">  EX_Self</text>
<text text-anchor="start" x="1813" y="-520.3" font-family="monospace" font-size="14.00">  EX_LocalVariable [K2Node_CustomEvent_TimeOnScreen]</text>
<text text-anchor="start" x="1813" y="-505.3" font-family="monospace" font-size="14.00">  EX_StructConst import /Script/Engine&#45;&gt;LatentActionInfo</text>
<text text-anchor="start" x="1813" y="-490.3" font-family="monospace" font-size="14.00">    EX_SkipOffsetConst 15</text>
<text text-anchor="start" x="1813" y="-475.3" font-family="monospace" font-size="14.00">    EX_IntConst 141704440</text>
<text text-anchor="start" x="1813" y="-460.3" font-family="monospace" font-size="14.00">    EX_NameConst ExecuteUbergraph_HUD_MinersManualNotification</text>
<text text-anchor="start" x="1813" y="-445.3" font-family="monospace" font-size="14.00">    EX_Self</text>
</g>
<!-- ExecuteUbergraph_HUD_MinersManualNotification__314&#45;&gt;ExecuteUbergraph_HUD_MinersManualNotification__361 -->
<g id="edge12" class="edge">
<title>ExecuteUbergraph_HUD_MinersManualNotification__314&#45;&gt;ExecuteUbergraph_HUD_MinersManualNotification__361</title>
<path fill="none" stroke="black" d="M2069,-603.75C2069,-594.84 2069,-585.7 2069,-576.73"/>
<polygon fill="black" stroke="black" points="2072.5,-577 2069,-567 2065.5,-577 2072.5,-577"/>
</g>
<!-- ExecuteUbergraph_HUD_MinersManualNotification__361&#45;&gt;ExecuteUbergraph_HUD_MinersManualNotification__15 -->
<g id="edge13" class="edge">
<title>ExecuteUbergraph_HUD_MinersManualNotification__361:e&#45;&gt;ExecuteUbergraph_HUD_MinersManualNotification__15</title>
<path fill="none" stroke="red" d="M2334,-501.5C2378.62,-501.5 2400.36,-454.92 2410.95,-410.17"/>
<polygon fill="none" stroke="red" points="2414.32,-411.16 2413.03,-400.64 2407.48,-409.67 2414.32,-411.16"/>
</g>
<!-- ExecuteUbergraph_HUD_MinersManualNotification__419 -->
<g id="node17" class="node">
<title>ExecuteUbergraph_HUD_MinersManualNotification__419</title>
<polygon fill="#eeeeee" stroke="black" points="1957.5,-310 1957.5,-346 2130.5,-346 2130.5,-310 1957.5,-310"/>
<text text-anchor="start" x="1965.5" y="-324.3" font-family="monospace" font-size="14.00">EX_PopExecutionFlow</text>
</g>
<!-- ExecuteUbergraph_HUD_MinersManualNotification__361&#45;&gt;ExecuteUbergraph_HUD_MinersManualNotification__419 -->
<g id="edge14" class="edge">
<title>ExecuteUbergraph_HUD_MinersManualNotification__361&#45;&gt;ExecuteUbergraph_HUD_MinersManualNotification__419</title>
<path fill="none" stroke="black" d="M2059.83,-437.61C2055.81,-409.99 2051.28,-378.96 2048.11,-357.16"/>
<polygon fill="black" stroke="black" points="2051.57,-356.67 2046.67,-347.28 2044.64,-357.68 2051.57,-356.67"/>
</g>
<!-- ExecuteUbergraph_HUD_MinersManualNotification__420 -->
<g id="node18" class="node">
<title>ExecuteUbergraph_HUD_MinersManualNotification__420</title>
<polygon fill="#eeeeee" stroke="black" points="3367.5,-1129.5 3367.5,-1165.5 3672.5,-1165.5 3672.5,-1129.5 3367.5,-1129.5"/>
<text text-anchor="start" x="3375.5" y="-1143.8" font-family="monospace" font-size="14.00">EX_VirtualFunction RemoveFromParent</text>
</g>
<!-- ExecuteUbergraph_HUD_MinersManualNotification__434 -->
<g id="node19" class="node">
<title>ExecuteUbergraph_HUD_MinersManualNotification__434</title>
<polygon fill="#eeeeee" stroke="black" points="3433.5,-980 3433.5,-1016 3606.5,-1016 3606.5,-980 3433.5,-980"/>
<text text-anchor="start" x="3441.5" y="-994.3" font-family="monospace" font-size="14.00">EX_PopExecutionFlow</text>
</g>
<!-- ExecuteUbergraph_HUD_MinersManualNotification__420&#45;&gt;ExecuteUbergraph_HUD_MinersManualNotification__434 -->
<g id="edge15" class="edge">
<title>ExecuteUbergraph_HUD_MinersManualNotification__420&#45;&gt;ExecuteUbergraph_HUD_MinersManualNotification__434</title>
<path fill="none" stroke="black" d="M3520,-1129.58C3520,-1104.57 3520,-1057.45 3520,-1027.17"/>
<polygon fill="black" stroke="black" points="3523.5,-1027.24 3520,-1017.24 3516.5,-1027.24 3523.5,-1027.24"/>
</g>
<!-- ExecuteUbergraph_HUD_MinersManualNotification__437 -->
<g id="node21" class="node">
<title>ExecuteUbergraph_HUD_MinersManualNotification__437</title>
<polygon fill="#eeeeee" stroke="black" points="3089,-1297.5 3089,-1333.5 3221,-1333.5 3221,-1297.5 3089,-1297.5"/>
<text text-anchor="start" x="3097" y="-1311.8" font-family="monospace" font-size="14.00">EX_EndOfScript</text>
</g>
<!-- OnFinished -->
<g id="node22" class="node">
<title>OnFinished</title>
<polygon fill="#ff8888" stroke="black" points="2987.5,-1451 2987.5,-1487 3160.5,-1487 3160.5,-1451 2987.5,-1451"/>
<text text-anchor="start" x="2995.5" y="-1465.3" font-family="monospace" font-size="14.00">Function OnFinished</text>
</g>
<!-- OnFinished__0 -->
<g id="node23" class="node">
<title>OnFinished__0</title>
<polygon fill="#eeeeee" stroke="black" points="2628.5,-1240.5 2628.5,-1278.5 3519.5,-1278.5 3519.5,-1240.5 2628.5,-1240.5"/>
<text text-anchor="start" x="2636.5" y="-1263.3" font-family="monospace" font-size="14.00">EX_LocalFinalFunction export HUD_MinersManualNotification_C&#45;&gt;ExecuteUbergraph_HUD_MinersManualNotification</text>
<text text-anchor="start" x="2636.5" y="-1248.3" font-family="monospace" font-size="14.00">  EX_IntConst 420</text>
</g>
<!-- OnFinished&#45;&gt;OnFinished__0 -->
<g id="edge16" class="edge">
<title>OnFinished&#45;&gt;OnFinished__0</title>
<path fill="none" stroke="black" d="M3074,-1451.02C3074,-1415.63 3074,-1333.63 3074,-1289.63"/>
<polygon fill="black" stroke="black" points="3077.5,-1289.82 3074,-1279.82 3070.5,-1289.82 3077.5,-1289.82"/>
</g>
<!-- OnFinished__0&#45;&gt;ExecuteUbergraph_HUD_MinersManualNotification__420 -->
<g id="edge17" class="edge">
<title>OnFinished__0:e&#45;&gt;ExecuteUbergraph_HUD_MinersManualNotification__420</title>
<path fill="none" stroke="red" d="M3521,-1259.5C3537.56,-1259.5 3531.43,-1209.46 3525.62,-1176.57"/>
<polygon fill="none" stroke="red" points="3529.08,-1176.04 3523.81,-1166.85 3522.2,-1177.32 3529.08,-1176.04"/>
</g>
<!-- OnFinished__15 -->
<g id="node24" class="node">
<title>OnFinished__15</title>
<polygon fill="#eeeeee" stroke="black" points="3016,-1128.5 3016,-1166.5 3132,-1166.5 3132,-1128.5 3016,-1128.5"/>
<text text-anchor="start" x="3024" y="-1151.3" font-family="monospace" font-size="14.00">EX_Return</text>
<text text-anchor="start" x="3024" y="-1136.3" font-family="monospace" font-size="14.00">  EX_Nothing</text>
</g>
<!-- OnFinished__0&#45;&gt;OnFinished__15 -->
<g id="edge18" class="edge">
<title>OnFinished__0&#45;&gt;OnFinished__15</title>
<path fill="none" stroke="black" d="M3074,-1240.83C3074,-1223.85 3074,-1197.88 3074,-1177.81"/>
<polygon fill="black" stroke="black" points="3077.5,-1178.01 3074,-1168.01 3070.5,-1178.01 3077.5,-1178.01"/>
</g>
<!-- OnFinished__17 -->
<g id="node25" class="node">
<title>OnFinished__17</title>
<polygon fill="#eeeeee" stroke="black" points="3535,-1185.5 3535,-1221.5 3667,-1221.5 3667,-1185.5 3535,-1185.5"/>
<text text-anchor="start" x="3543" y="-1199.8" font-family="monospace" font-size="14.00">EX_EndOfScript</text>
</g>
<!-- Show -->
<g id="node26" class="node">
<title>Show</title>
<polygon fill="#ff8888" stroke="black" points="1388,-1427.5 1388,-1510.5 1858,-1510.5 1858,-1427.5 1388,-1427.5"/>
<text text-anchor="start" x="1396" y="-1495.3" font-family="monospace" font-size="14.00">Function Show</text>
<text text-anchor="start" x="1396" y="-1480.3" font-family="monospace" font-size="14.00">  TextProperty Text</text>
<text text-anchor="start" x="1396" y="-1465.3" font-family="monospace" font-size="14.00">    CPF_BlueprintVisible|CPF_BlueprintReadOnly|CPF_Parm</text>
<text text-anchor="start" x="1396" y="-1450.3" font-family="monospace" font-size="14.00">  FloatProperty TimeOnScreen</text>
<text text-anchor="start" x="1396" y="-1435.3" font-family="monospace" font-size="14.00">    CPF_BlueprintVisible|CPF_BlueprintReadOnly|CPF_Parm</text>
</g>
<!-- Show__0 -->
<g id="node27" class="node">
<title>Show__0</title>
<polygon fill="#eeeeee" stroke="black" points="1392,-1240.5 1392,-1278.5 1854,-1278.5 1854,-1240.5 1392,-1240.5"/>
<text text-anchor="start" x="1400" y="-1263.3" font-family="monospace" font-size="14.00">EX_LetValueOnPersistentFrame [K2Node_CustomEvent_Text]</text>
<text text-anchor="start" x="1400" y="-1248.3" font-family="monospace" font-size="14.00">  EX_LocalVariable [Text]</text>
</g>
<!-- Show&#45;&gt;Show__0 -->
<g id="edge19" class="edge">
<title>Show&#45;&gt;Show__0</title>
<path fill="none" stroke="black" d="M1623,-1427.99C1623,-1387.47 1623,-1325.76 1623,-1289.65"/>
<polygon fill="black" stroke="black" points="1626.5,-1289.96 1623,-1279.96 1619.5,-1289.96 1626.5,-1289.96"/>
</g>
<!-- Show__18 -->
<g id="node28" class="node">
<title>Show__18</title>
<polygon fill="#eeeeee" stroke="black" points="1359,-1128.5 1359,-1166.5 1887,-1166.5 1887,-1128.5 1359,-1128.5"/>
<text text-anchor="start" x="1367" y="-1151.3" font-family="monospace" font-size="14.00">EX_LetValueOnPersistentFrame [K2Node_CustomEvent_TimeOnScreen]</text>
<text text-anchor="start" x="1367" y="-1136.3" font-family="monospace" font-size="14.00">  EX_LocalVariable [TimeOnScreen]</text>
</g>
<!-- Show__0&#45;&gt;Show__18 -->
<g id="edge20" class="edge">
<title>Show__0&#45;&gt;Show__18</title>
<path fill="none" stroke="black" d="M1623,-1240.83C1623,-1223.85 1623,-1197.88 1623,-1177.81"/>
<polygon fill="black" stroke="black" points="1626.5,-1178.01 1623,-1168.01 1619.5,-1178.01 1626.5,-1178.01"/>
</g>
<!-- Show__36 -->
<g id="node29" class="node">
<title>Show__36</title>
<polygon fill="#eeeeee" stroke="black" points="1177.5,-979 1177.5,-1017 2068.5,-1017 2068.5,-979 1177.5,-979"/>
<text text-anchor="start" x="1185.5" y="-1001.8" font-family="monospace" font-size="14.00">EX_LocalFinalFunction export HUD_MinersManualNotification_C&#45;&gt;ExecuteUbergraph_HUD_MinersManualNotification</text>
<text text-anchor="start" x="1185.5" y="-986.8" font-family="monospace" font-size="14.00">  EX_IntConst 269</text>
</g>
<!-- Show__18&#45;&gt;Show__36 -->
<g id="edge21" class="edge">
<title>Show__18&#45;&gt;Show__36</title>
<path fill="none" stroke="black" d="M1623,-1128.71C1623,-1103.79 1623,-1058.2 1623,-1028.25"/>
<polygon fill="black" stroke="black" points="1626.5,-1028.37 1623,-1018.37 1619.5,-1028.37 1626.5,-1028.37"/>
</g>
<!-- Show__36&#45;&gt;ExecuteUbergraph_HUD_MinersManualNotification__269 -->
<g id="edge22" class="edge">
<title>Show__36:e&#45;&gt;ExecuteUbergraph_HUD_MinersManualNotification__269</title>
<path fill="none" stroke="red" d="M2070,-998C2118.54,-998 2104.67,-928.25 2088.31,-877.84"/>
<polygon fill="none" stroke="red" points="2091.68,-876.89 2085.17,-868.53 2085.05,-879.12 2091.68,-876.89"/>
</g>
<!-- Show__51 -->
<g id="node30" class="node">
<title>Show__51</title>
<polygon fill="#eeeeee" stroke="black" points="1565,-807 1565,-845 1681,-845 1681,-807 1565,-807"/>
<text text-anchor="start" x="1573" y="-829.8" font-family="monospace" font-size="14.00">EX_Return</text>
<text text-anchor="start" x="1573" y="-814.8" font-family="monospace" font-size="14.00">  EX_Nothing</text>
</g>
<!-- Show__36&#45;&gt;Show__51 -->
<g id="edge23" class="edge">
<title>Show__36&#45;&gt;Show__51</title>
<path fill="none" stroke="black" d="M1623,-979.13C1623,-949.92 1623,-891.69 1623,-856.35"/>
<polygon fill="black" stroke="black" points="1626.5,-856.4 1623,-846.4 1619.5,-856.4 1626.5,-856.4"/>
</g>
<!-- Show__53 -->
<g id="node31" class="node">
<title>Show__53</title>
<polygon fill="#eeeeee" stroke="black" points="3535,-1073.5 3535,-1109.5 3667,-1109.5 3667,-1073.5 3535,-1073.5"/>
<text text-anchor="start" x="3543" y="-1087.8" font-family="monospace" font-size="14.00">EX_EndOfScript</text>
</g>
<!-- PreConstruct -->
<g id="node32" class="node">
<title>PreConstruct</title>
<polygon fill="#ff8888" stroke="black" points="2136,-1442.5 2136,-1495.5 2606,-1495.5 2606,-1442.5 2136,-1442.5"/>
<text text-anchor="start" x="2144" y="-1480.3" font-family="monospace" font-size="14.00">Function PreConstruct</text>
<text text-anchor="start" x="2144" y="-1465.3" font-family="monospace" font-size="14.00">  BoolProperty IsDesignTime</text>
<text text-anchor="start" x="2144" y="-1450.3" font-family="monospace" font-size="14.00">    CPF_BlueprintVisible|CPF_BlueprintReadOnly|CPF_Parm</text>
</g>
<!-- PreConstruct__0 -->
<g id="node33" class="node">
<title>PreConstruct__0</title>
<polygon fill="#eeeeee" stroke="black" points="2131.5,-1240.5 2131.5,-1278.5 2610.5,-1278.5 2610.5,-1240.5 2131.5,-1240.5"/>
<text text-anchor="start" x="2139.5" y="-1263.3" font-family="monospace" font-size="14.00">EX_LetValueOnPersistentFrame [K2Node_Event_IsDesignTime]</text>
<text text-anchor="start" x="2139.5" y="-1248.3" font-family="monospace" font-size="14.00">  EX_LocalVariable [IsDesignTime]</text>
</g>
<!-- PreConstruct&#45;&gt;PreConstruct__0 -->
<g id="edge24" class="edge">
<title>PreConstruct&#45;&gt;PreConstruct__0</title>
<path fill="none" stroke="black" d="M2371,-1442.56C2371,-1403.83 2371,-1330.31 2371,-1289.55"/>
<polygon fill="black" stroke="black" points="2374.5,-1289.77 2371,-1279.77 2367.5,-1289.77 2374.5,-1289.77"/>
</g>
<!-- PreConstruct__18 -->
<g id="node34" class="node">
<title>PreConstruct__18</title>
<polygon fill="#eeeeee" stroke="black" points="1925.5,-1128.5 1925.5,-1166.5 2816.5,-1166.5 2816.5,-1128.5 1925.5,-1128.5"/>
<text text-anchor="start" x="1933.5" y="-1151.3" font-family="monospace" font-size="14.00">EX_LocalFinalFunction export HUD_MinersManualNotification_C&#45;&gt;ExecuteUbergraph_HUD_MinersManualNotification</text>
<text text-anchor="start" x="1933.5" y="-1136.3" font-family="monospace" font-size="14.00">  EX_IntConst 114</text>
</g>
<!-- PreConstruct__0&#45;&gt;PreConstruct__18 -->
<g id="edge25" class="edge">
<title>PreConstruct__0&#45;&gt;PreConstruct__18</title>
<path fill="none" stroke="black" d="M2371,-1240.83C2371,-1223.85 2371,-1197.88 2371,-1177.81"/>
<polygon fill="black" stroke="black" points="2374.5,-1178.01 2371,-1168.01 2367.5,-1178.01 2374.5,-1178.01"/>
</g>
<!-- PreConstruct__18&#45;&gt;ExecuteUbergraph_HUD_MinersManualNotification__114 -->
<g id="edge26" class="edge">
<title>PreConstruct__18:e&#45;&gt;ExecuteUbergraph_HUD_MinersManualNotification__114</title>
<path fill="none" stroke="red" d="M2818,-1147.5C2853.36,-1147.5 2851.99,-1104.9 2843.09,-1065.34"/>
<polygon fill="none" stroke="red" points="2846.53,-1064.66 2840.77,-1055.77 2839.73,-1066.31 2846.53,-1064.66"/>
</g>
<!-- PreConstruct__33 -->
<g id="node35" class="node">
<title>PreConstruct__33</title>
<polygon fill="#eeeeee" stroke="black" points="2308,-979 2308,-1017 2424,-1017 2424,-979 2308,-979"/>
<text text-anchor="start" x="2316" y="-1001.8" font-family="monospace" font-size="14.00">EX_Return</text>
<text text-anchor="start" x="2316" y="-986.8" font-family="monospace" font-size="14.00">  EX_Nothing</text>
</g>
<!-- PreConstruct__18&#45;&gt;PreConstruct__33 -->
<g id="edge27" class="edge">
<title>PreConstruct__18&#45;&gt;PreConstruct__33</title>
<path fill="none" stroke="black" d="M2370.4,-1128.71C2369.55,-1103.79 2368.01,-1058.2 2366.99,-1028.25"/>
<polygon fill="black" stroke="black" points="2370.49,-1028.24 2366.66,-1018.37 2363.5,-1028.48 2370.49,-1028.24"/>
</g>
<!-- PreConstruct__35 -->
<g id="node36" class="node">
<title>PreConstruct__35</title>
<polygon fill="#eeeeee" stroke="black" points="2837,-886.5 2837,-922.5 2969,-922.5 2969,-886.5 2837,-886.5"/>
<text text-anchor="start" x="2845" y="-900.8" font-family="monospace" font-size="14.00">EX_EndOfScript</text>
</g>
</g>
</svg>
