<?xml version="1.0" encoding="UTF-8" standalone="no"?>
<!DOCTYPE svg PUBLIC "-//W3C//DTD SVG 1.1//EN"
 "http://www.w3.org/Graphics/SVG/1.1/DTD/svg11.dtd">
<!-- Generated by graphviz version 7.0.1 (0)
 -->
<!-- Pages: 1 -->
<svg width="3145pt" height="2003pt"
 viewBox="0.00 0.00 3144.50 2003.00" xmlns="http://www.w3.org/2000/svg" xmlns:xlink="http://www.w3.org/1999/xlink">
<g id="graph0" class="graph" transform="scale(1 1) rotate(0) translate(4 1999)">
<polygon fill="white" stroke="none" points="-4,4 -4,-1999 3140.5,-1999 3140.5,4 -4,4"/>
<!-- AIC_Spider_Shooter_Ground_C -->
<g id="node1" class="node">
<title>AIC_Spider_Shooter_Ground_C</title>
<polygon fill="#88ff88" stroke="black" points="0,-1836.5 0,-1919.5 569,-1919.5 569,-1836.5 0,-1836.5"/>
<text text-anchor="start" x="8" y="-1904.3" font-family="monospace" font-size="14.00">ClassExport: AIC_Spider_Shooter_Ground_C</text>
<text text-anchor="start" x="8" y="-1889.3" font-family="monospace" font-size="14.00">  SuperStruct: import /Game/Enemies/Spider/AIC_Spider&#45;&gt;AIC_Spider_C</text>
<text text-anchor="start" x="8" y="-1874.3" font-family="monospace" font-size="14.00">  Properties:</text>
<text text-anchor="start" x="8" y="-1859.3" font-family="monospace" font-size="14.00">    StructProperty UberGraphFrame</text>
<text text-anchor="start" x="8" y="-1844.3" font-family="monospace" font-size="14.00">      CPF_Transient|CPF_DuplicateTransient</text>
</g>
<!-- ExecuteUbergraph_AIC_Spider_Shooter_Ground -->
<g id="node2" class="node">
<title>ExecuteUbergraph_AIC_Spider_Shooter_Ground</title>
<polygon fill="#ff8888" stroke="black" points="587.5,-1761.5 587.5,-1994.5 1057.5,-1994.5 1057.5,-1761.5 587.5,-1761.5"/>
<text text-anchor="start" x="595.5" y="-1979.3" font-family="monospace" font-size="14.00">Function ExecuteUbergraph_AIC_Spider_Shooter_Ground</text>
<text text-anchor="start" x="595.5" y="-1964.3" font-family="monospace" font-size="14.00">  IntProperty EntryPoint</text>
<text text-anchor="start" x="595.5" y="-1949.3" font-family="monospace" font-size="14.00">    CPF_BlueprintVisible|CPF_BlueprintReadOnly|CPF_Parm</text>
<text text-anchor="start" x="595.5" y="-1934.3" font-family="monospace" font-size="14.00">  ObjectProperty CallFunc_K2_GetPawn_ReturnValue</text>
<text text-anchor="start" x="595.5" y="-1919.3" font-family="monospace" font-size="14.00">  ObjectProperty K2Node_DynamicCast_AsSpider_Enemy</text>
<text text-anchor="start" x="595.5" y="-1904.3" font-family="monospace" font-size="14.00">  BoolProperty K2Node_DynamicCast_bSuccess</text>
<text text-anchor="start" x="595.5" y="-1889.3" font-family="monospace" font-size="14.00">  NameProperty CallFunc_MakeLiteralName_ReturnValue</text>
<text text-anchor="start" x="595.5" y="-1874.3" font-family="monospace" font-size="14.00">  NameProperty K2Node_Event_keyName</text>
<text text-anchor="start" x="595.5" y="-1859.3" font-family="monospace" font-size="14.00">    CPF_ConstParm</text>
<text text-anchor="start" x="595.5" y="-1844.3" font-family="monospace" font-size="14.00">  BoolProperty K2Node_SwitchName_CmpSuccess</text>
<text text-anchor="start" x="595.5" y="-1829.3" font-family="monospace" font-size="14.00">  ObjectProperty CallFunc_GetBlackboard_ReturnValue</text>
<text text-anchor="start" x="595.5" y="-1814.3" font-family="monospace" font-size="14.00">    CPF_InstancedReference</text>
<text text-anchor="start" x="595.5" y="-1799.3" font-family="monospace" font-size="14.00">  ObjectProperty CallFunc_GetValueAsObject_ReturnValue</text>
<text text-anchor="start" x="595.5" y="-1784.3" font-family="monospace" font-size="14.00">  ObjectProperty K2Node_DynamicCast_AsActor</text>
<text text-anchor="start" x="595.5" y="-1769.3" font-family="monospace" font-size="14.00">  BoolProperty K2Node_DynamicCast_bSuccess_1</text>
</g>
<!-- ExecuteUbergraph_AIC_Spider_Shooter_Ground__0 -->
<g id="node3" class="node">
<title>ExecuteUbergraph_AIC_Spider_Shooter_Ground__0</title>
<polygon fill="#eeeeee" stroke="black" points="686.5,-1642 686.5,-1680 958.5,-1680 958.5,-1642 686.5,-1642"/>
<text text-anchor="start" x="694.5" y="-1664.8" font-family="monospace" font-size="14.00">EX_ComputedJump</text>
<text text-anchor="start" x="694.5" y="-1649.8" font-family="monospace" font-size="14.00">  EX_LocalVariable [EntryPoint]</text>
</g>
<!-- ExecuteUbergraph_AIC_Spider_Shooter_Ground&#45;&gt;ExecuteUbergraph_AIC_Spider_Shooter_Ground__0 -->
<g id="edge1" class="edge">
<title>ExecuteUbergraph_AIC_Spider_Shooter_Ground&#45;&gt;ExecuteUbergraph_AIC_Spider_Shooter_Ground__0</title>
<path fill="none" stroke="black" d="M822.5,-1761.63C822.5,-1735.45 822.5,-1709.88 822.5,-1691.21"/>
<polygon fill="black" stroke="black" points="826,-1691.24 822.5,-1681.24 819,-1691.24 826,-1691.24"/>
</g>
<!-- ExecuteUbergraph_AIC_Spider_Shooter_Ground__10 -->
<g id="node4" class="node">
<title>ExecuteUbergraph_AIC_Spider_Shooter_Ground__10</title>
<polygon fill="#eeeeee" stroke="black" points="2360.5,-1523.5 2360.5,-1559.5 3136.5,-1559.5 3136.5,-1523.5 2360.5,-1523.5"/>
<text text-anchor="start" x="2368.5" y="-1537.8" font-family="monospace" font-size="14.00">EX_LocalFinalFunction import /Game/Enemies/Spider/AIC_Spider&#45;&gt;AIC_Spider_C&#45;&gt;ReceiveBeginPlay</text>
</g>
<!-- ExecuteUbergraph_AIC_Spider_Shooter_Ground__20 -->
<g id="node5" class="node">
<title>ExecuteUbergraph_AIC_Spider_Shooter_Ground__20</title>
<polygon fill="#eeeeee" stroke="black" points="2695,-1310.5 2695,-1346.5 2802,-1346.5 2802,-1310.5 2695,-1310.5"/>
<text text-anchor="start" x="2703" y="-1324.8" font-family="monospace" font-size="14.00">EX_Jump 404</text>
</g>
<!-- ExecuteUbergraph_AIC_Spider_Shooter_Ground__10&#45;&gt;ExecuteUbergraph_AIC_Spider_Shooter_Ground__20 -->
<g id="edge2" class="edge">
<title>ExecuteUbergraph_AIC_Spider_Shooter_Ground__10&#45;&gt;ExecuteUbergraph_AIC_Spider_Shooter_Ground__20</title>
<path fill="none" stroke="black" d="M2748.5,-1523.59C2748.5,-1487.48 2748.5,-1402.49 2748.5,-1357.92"/>
<polygon fill="black" stroke="black" points="2752,-1358 2748.5,-1348 2745,-1358 2752,-1358"/>
</g>
<!-- ExecuteUbergraph_AIC_Spider_Shooter_Ground__404 -->
<g id="node19" class="node">
<title>ExecuteUbergraph_AIC_Spider_Shooter_Ground__404</title>
<polygon fill="#eeeeee" stroke="black" points="2604.5,-0.5 2604.5,-38.5 2720.5,-38.5 2720.5,-0.5 2604.5,-0.5"/>
<text text-anchor="start" x="2612.5" y="-23.3" font-family="monospace" font-size="14.00">EX_Return</text>
<text text-anchor="start" x="2612.5" y="-8.3" font-family="monospace" font-size="14.00">  EX_Nothing</text>
</g>
<!-- ExecuteUbergraph_AIC_Spider_Shooter_Ground__20&#45;&gt;ExecuteUbergraph_AIC_Spider_Shooter_Ground__404 -->
<g id="edge3" class="edge">
<title>ExecuteUbergraph_AIC_Spider_Shooter_Ground__20&#45;&gt;ExecuteUbergraph_AIC_Spider_Shooter_Ground__404</title>
<path fill="none" stroke="black" d="M2748.5,-1310.68C2748.5,-1290.99 2748.5,-1257.38 2748.5,-1228.5 2748.5,-1228.5 2748.5,-1228.5 2748.5,-93.5 2748.5,-72.32 2733.15,-56.01 2715.42,-44.23"/>
<polygon fill="black" stroke="black" points="2717.66,-41.49 2707.3,-39.27 2714.01,-47.47 2717.66,-41.49"/>
</g>
<!-- ExecuteUbergraph_AIC_Spider_Shooter_Ground__25 -->
<g id="node6" class="node">
<title>ExecuteUbergraph_AIC_Spider_Shooter_Ground__25</title>
<polygon fill="#eeeeee" stroke="black" points="1978,-1148.5 1978,-1201.5 2523,-1201.5 2523,-1148.5 1978,-1148.5"/>
<text text-anchor="start" x="1986" y="-1186.3" font-family="monospace" font-size="14.00">EX_LetObj</text>
<text text-anchor="start" x="1986" y="-1171.3" font-family="monospace" font-size="14.00">  EX_LocalVariable [CallFunc_K2_GetPawn_ReturnValue]</text>
<text text-anchor="start" x="1986" y="-1156.3" font-family="monospace" font-size="14.00">  EX_FinalFunction import /Script/Engine&#45;&gt;Controller&#45;&gt;K2_GetPawn</text>
</g>
<!-- ExecuteUbergraph_AIC_Spider_Shooter_Ground__45 -->
<g id="node7" class="node">
<title>ExecuteUbergraph_AIC_Spider_Shooter_Ground__45</title>
<polygon fill="#eeeeee" stroke="black" points="2025.5,-1042.5 2025.5,-1110.5 2487.5,-1110.5 2487.5,-1042.5 2025.5,-1042.5"/>
<text text-anchor="start" x="2033.5" y="-1095.3" font-family="monospace" font-size="14.00">EX_Let</text>
<text text-anchor="start" x="2033.5" y="-1080.3" font-family="monospace" font-size="14.00">  EX_LocalVariable [K2Node_DynamicCast_AsSpider_Enemy]</text>
<text text-anchor="start" x="2033.5" y="-1065.3" font-family="monospace" font-size="14.00">  EX_DynamicCast import /Script/FSD&#45;&gt;SpiderEnemy</text>
<text text-anchor="start" x="2033.5" y="-1050.3" font-family="monospace" font-size="14.00">    EX_LocalVariable [CallFunc_K2_GetPawn_ReturnValue]</text>
</g>
<!-- ExecuteUbergraph_AIC_Spider_Shooter_Ground__25&#45;&gt;ExecuteUbergraph_AIC_Spider_Shooter_Ground__45 -->
<g id="edge4" class="edge">
<title>ExecuteUbergraph_AIC_Spider_Shooter_Ground__25&#45;&gt;ExecuteUbergraph_AIC_Spider_Shooter_Ground__45</title>
<path fill="none" stroke="black" d="M2252.08,-1148.65C2252.59,-1140.4 2253.17,-1130.99 2253.75,-1121.78"/>
<polygon fill="black" stroke="black" points="2257.24,-1122.03 2254.37,-1111.83 2250.25,-1121.59 2257.24,-1122.03"/>
</g>
<!-- ExecuteUbergraph_AIC_Spider_Shooter_Ground__81 -->
<g id="node8" class="node">
<title>ExecuteUbergraph_AIC_Spider_Shooter_Ground__81</title>
<polygon fill="#eeeeee" stroke="black" points="2028,-936.5 2028,-1004.5 2507,-1004.5 2507,-936.5 2028,-936.5"/>
<text text-anchor="start" x="2036" y="-989.3" font-family="monospace" font-size="14.00">EX_Let</text>
<text text-anchor="start" x="2036" y="-974.3" font-family="monospace" font-size="14.00">  EX_LocalVariable [K2Node_DynamicCast_bSuccess]</text>
<text text-anchor="start" x="2036" y="-959.3" font-family="monospace" font-size="14.00">  EX_PrimitiveCast ObjectToBool</text>
<text text-anchor="start" x="2036" y="-944.3" font-family="monospace" font-size="14.00">    EX_LocalVariable [K2Node_DynamicCast_AsSpider_Enemy]</text>
</g>
<!-- ExecuteUbergraph_AIC_Spider_Shooter_Ground__45&#45;&gt;ExecuteUbergraph_AIC_Spider_Shooter_Ground__81 -->
<g id="edge5" class="edge">
<title>ExecuteUbergraph_AIC_Spider_Shooter_Ground__45&#45;&gt;ExecuteUbergraph_AIC_Spider_Shooter_Ground__81</title>
<path fill="none" stroke="black" d="M2259.98,-1042.59C2260.89,-1033.97 2261.89,-1024.54 2262.85,-1015.45"/>
<polygon fill="black" stroke="black" points="2266.31,-1016.01 2263.88,-1005.7 2259.35,-1015.27 2266.31,-1016.01"/>
</g>
<!-- ExecuteUbergraph_AIC_Spider_Shooter_Ground__110 -->
<g id="node9" class="node">
<title>ExecuteUbergraph_AIC_Spider_Shooter_Ground__110</title>
<polygon fill="#eeeeee" stroke="black" points="2085,-860.5 2085,-898.5 2498,-898.5 2498,-860.5 2085,-860.5"/>
<text text-anchor="start" x="2093" y="-883.3" font-family="monospace" font-size="14.00">EX_JumpIfNot 404</text>
<text text-anchor="start" x="2093" y="-868.3" font-family="monospace" font-size="14.00">  EX_LocalVariable [K2Node_DynamicCast_bSuccess]</text>
</g>
<!-- ExecuteUbergraph_AIC_Spider_Shooter_Ground__81&#45;&gt;ExecuteUbergraph_AIC_Spider_Shooter_Ground__110 -->
<g id="edge6" class="edge">
<title>ExecuteUbergraph_AIC_Spider_Shooter_Ground__81&#45;&gt;ExecuteUbergraph_AIC_Spider_Shooter_Ground__110</title>
<path fill="none" stroke="black" d="M2276.37,-936.61C2278.8,-927.59 2281.42,-917.89 2283.78,-909.13"/>
<polygon fill="black" stroke="black" points="2287.08,-910.32 2286.31,-899.75 2280.33,-908.5 2287.08,-910.32"/>
</g>
<!-- ExecuteUbergraph_AIC_Spider_Shooter_Ground__124 -->
<g id="node10" class="node">
<title>ExecuteUbergraph_AIC_Spider_Shooter_Ground__124</title>
<polygon fill="#eeeeee" stroke="black" points="1982,-740.5 1982,-808.5 2601,-808.5 2601,-740.5 1982,-740.5"/>
<text text-anchor="start" x="1990" y="-793.3" font-family="monospace" font-size="14.00">EX_Let</text>
<text text-anchor="start" x="1990" y="-778.3" font-family="monospace" font-size="14.00">  EX_LocalVariable [CallFunc_MakeLiteralName_ReturnValue]</text>
<text text-anchor="start" x="1990" y="-763.3" font-family="monospace" font-size="14.00">  EX_CallMath import /Script/Engine&#45;&gt;KismetSystemLibrary&#45;&gt;MakeLiteralName</text>
<text text-anchor="start" x="1990" y="-748.3" font-family="monospace" font-size="14.00">    EX_NameConst Target</text>
</g>
<!-- ExecuteUbergraph_AIC_Spider_Shooter_Ground__110&#45;&gt;ExecuteUbergraph_AIC_Spider_Shooter_Ground__124 -->
<g id="edge8" class="edge">
<title>ExecuteUbergraph_AIC_Spider_Shooter_Ground__110&#45;&gt;ExecuteUbergraph_AIC_Spider_Shooter_Ground__124</title>
<path fill="none" stroke="black" d="M2291.5,-860.56C2291.5,-849.19 2291.5,-833.95 2291.5,-819.52"/>
<polygon fill="black" stroke="black" points="2295,-819.72 2291.5,-809.72 2288,-819.72 2295,-819.72"/>
<text text-anchor="middle" x="2300" y="-830.8" font-family="monospace" font-size="14.00">IF</text>
</g>
<!-- ExecuteUbergraph_AIC_Spider_Shooter_Ground__110&#45;&gt;ExecuteUbergraph_AIC_Spider_Shooter_Ground__404 -->
<g id="edge7" class="edge">
<title>ExecuteUbergraph_AIC_Spider_Shooter_Ground__110:e&#45;&gt;ExecuteUbergraph_AIC_Spider_Shooter_Ground__404</title>
<path fill="none" stroke="red" d="M2499.5,-879.5C2588.45,-879.5 2670.5,-864.45 2670.5,-775.5 2670.5,-775.5 2670.5,-775.5 2670.5,-93.5 2670.5,-79.05 2668.93,-63.09 2667.19,-49.79"/>
<polygon fill="none" stroke="red" points="2670.66,-49.35 2665.78,-39.94 2663.73,-50.33 2670.66,-49.35"/>
<text text-anchor="middle" x="2695.5" y="-407.8" font-family="monospace" font-size="14.00">IF NOT</text>
</g>
<!-- ExecuteUbergraph_AIC_Spider_Shooter_Ground__165 -->
<g id="node11" class="node">
<title>ExecuteUbergraph_AIC_Spider_Shooter_Ground__165</title>
<polygon fill="#eeeeee" stroke="black" points="1961.5,-634.5 1961.5,-702.5 2621.5,-702.5 2621.5,-634.5 1961.5,-634.5"/>
<text text-anchor="start" x="1969.5" y="-687.3" font-family="monospace" font-size="14.00">EX_LetObj</text>
<text text-anchor="start" x="1969.5" y="-672.3" font-family="monospace" font-size="14.00">  EX_LocalVariable [CallFunc_GetBlackboard_ReturnValue]</text>
<text text-anchor="start" x="1969.5" y="-657.3" font-family="monospace" font-size="14.00">  EX_CallMath import /Script/AIModule&#45;&gt;AIBlueprintHelperLibrary&#45;&gt;GetBlackboard</text>
<text text-anchor="start" x="1969.5" y="-642.3" font-family="monospace" font-size="14.00">    EX_Self</text>
</g>
<!-- ExecuteUbergraph_AIC_Spider_Shooter_Ground__124&#45;&gt;ExecuteUbergraph_AIC_Spider_Shooter_Ground__165 -->
<g id="edge9" class="edge">
<title>ExecuteUbergraph_AIC_Spider_Shooter_Ground__124&#45;&gt;ExecuteUbergraph_AIC_Spider_Shooter_Ground__165</title>
<path fill="none" stroke="black" d="M2291.5,-740.59C2291.5,-731.97 2291.5,-722.54 2291.5,-713.45"/>
<polygon fill="black" stroke="black" points="2295,-713.71 2291.5,-703.71 2288,-713.71 2295,-713.71"/>
</g>
<!-- ExecuteUbergraph_AIC_Spider_Shooter_Ground__186 -->
<g id="node12" class="node">
<title>ExecuteUbergraph_AIC_Spider_Shooter_Ground__186</title>
<polygon fill="#eeeeee" stroke="black" points="1941,-483.5 1941,-596.5 2642,-596.5 2642,-483.5 1941,-483.5"/>
<text text-anchor="start" x="1949" y="-581.3" font-family="monospace" font-size="14.00">EX_LetObj</text>
<text text-anchor="start" x="1949" y="-566.3" font-family="monospace" font-size="14.00">  EX_LocalVariable [CallFunc_GetValueAsObject_ReturnValue]</text>
<text text-anchor="start" x="1949" y="-551.3" font-family="monospace" font-size="14.00">  EX_Context</text>
<text text-anchor="start" x="1949" y="-536.3" font-family="monospace" font-size="14.00">    EX_LocalVariable [CallFunc_GetBlackboard_ReturnValue]</text>
<text text-anchor="start" x="1949" y="-521.3" font-family="monospace" font-size="14.00">    EX_FinalFunction import /Script/AIModule&#45;&gt;BlackboardComponent&#45;&gt;GetValueAsObject</text>
<text text-anchor="start" x="1949" y="-506.3" font-family="monospace" font-size="14.00">      EX_LocalVariable [CallFunc_MakeLiteralName_ReturnValue]</text>
<text text-anchor="start" x="1949" y="-491.3" font-family="monospace" font-size="14.00">    RValue = [CallFunc_GetValueAsObject_ReturnValue]</text>
</g>
<!-- ExecuteUbergraph_AIC_Spider_Shooter_Ground__165&#45;&gt;ExecuteUbergraph_AIC_Spider_Shooter_Ground__186 -->
<g id="edge10" class="edge">
<title>ExecuteUbergraph_AIC_Spider_Shooter_Ground__165&#45;&gt;ExecuteUbergraph_AIC_Spider_Shooter_Ground__186</title>
<path fill="none" stroke="black" d="M2291.5,-634.59C2291.5,-626.27 2291.5,-617.02 2291.5,-607.67"/>
<polygon fill="black" stroke="black" points="2295,-607.79 2291.5,-597.79 2288,-607.79 2295,-607.79"/>
</g>
<!-- ExecuteUbergraph_AIC_Spider_Shooter_Ground__237 -->
<g id="node13" class="node">
<title>ExecuteUbergraph_AIC_Spider_Shooter_Ground__237</title>
<polygon fill="#eeeeee" stroke="black" points="2047.5,-377.5 2047.5,-445.5 2559.5,-445.5 2559.5,-377.5 2047.5,-377.5"/>
<text text-anchor="start" x="2055.5" y="-430.3" font-family="monospace" font-size="14.00">EX_Let</text>
<text text-anchor="start" x="2055.5" y="-415.3" font-family="monospace" font-size="14.00">  EX_LocalVariable [K2Node_DynamicCast_AsActor]</text>
<text text-anchor="start" x="2055.5" y="-400.3" font-family="monospace" font-size="14.00">  EX_DynamicCast import /Script/Engine&#45;&gt;Actor</text>
<text text-anchor="start" x="2055.5" y="-385.3" font-family="monospace" font-size="14.00">    EX_LocalVariable [CallFunc_GetValueAsObject_ReturnValue]</text>
</g>
<!-- ExecuteUbergraph_AIC_Spider_Shooter_Ground__186&#45;&gt;ExecuteUbergraph_AIC_Spider_Shooter_Ground__237 -->
<g id="edge11" class="edge">
<title>ExecuteUbergraph_AIC_Spider_Shooter_Ground__186&#45;&gt;ExecuteUbergraph_AIC_Spider_Shooter_Ground__237</title>
<path fill="none" stroke="black" d="M2296.76,-483.52C2297.61,-474.57 2298.48,-465.41 2299.3,-456.78"/>
<polygon fill="black" stroke="black" points="2302.78,-457.19 2300.24,-446.9 2295.81,-456.52 2302.78,-457.19"/>
</g>
<!-- ExecuteUbergraph_AIC_Spider_Shooter_Ground__273 -->
<g id="node14" class="node">
<title>ExecuteUbergraph_AIC_Spider_Shooter_Ground__273</title>
<polygon fill="#eeeeee" stroke="black" points="2124,-271.5 2124,-339.5 2553,-339.5 2553,-271.5 2124,-271.5"/>
<text text-anchor="start" x="2132" y="-324.3" font-family="monospace" font-size="14.00">EX_Let</text>
<text text-anchor="start" x="2132" y="-309.3" font-family="monospace" font-size="14.00">  EX_LocalVariable [K2Node_DynamicCast_bSuccess_1]</text>
<text text-anchor="start" x="2132" y="-294.3" font-family="monospace" font-size="14.00">  EX_PrimitiveCast ObjectToBool</text>
<text text-anchor="start" x="2132" y="-279.3" font-family="monospace" font-size="14.00">    EX_LocalVariable [K2Node_DynamicCast_AsActor]</text>
</g>
<!-- ExecuteUbergraph_AIC_Spider_Shooter_Ground__237&#45;&gt;ExecuteUbergraph_AIC_Spider_Shooter_Ground__273 -->
<g id="edge12" class="edge">
<title>ExecuteUbergraph_AIC_Spider_Shooter_Ground__237&#45;&gt;ExecuteUbergraph_AIC_Spider_Shooter_Ground__273</title>
<path fill="none" stroke="black" d="M2314.57,-377.59C2317.54,-368.78 2320.79,-359.12 2323.91,-349.84"/>
<polygon fill="black" stroke="black" points="2327.14,-351.22 2327.02,-340.63 2320.51,-348.99 2327.14,-351.22"/>
</g>
<!-- ExecuteUbergraph_AIC_Spider_Shooter_Ground__302 -->
<g id="node15" class="node">
<title>ExecuteUbergraph_AIC_Spider_Shooter_Ground__302</title>
<polygon fill="#eeeeee" stroke="black" points="2071,-150.5 2071,-233.5 2640,-233.5 2640,-150.5 2071,-150.5"/>
<text text-anchor="start" x="2079" y="-218.3" font-family="monospace" font-size="14.00">EX_Context</text>
<text text-anchor="start" x="2079" y="-203.3" font-family="monospace" font-size="14.00">  EX_LocalVariable [K2Node_DynamicCast_AsSpider_Enemy]</text>
<text text-anchor="start" x="2079" y="-188.3" font-family="monospace" font-size="14.00">  EX_FinalFunction import /Script/FSD&#45;&gt;SpiderEnemy&#45;&gt;SetLookAtTarget</text>
<text text-anchor="start" x="2079" y="-173.3" font-family="monospace" font-size="14.00">    EX_LocalVariable [K2Node_DynamicCast_AsActor]</text>
<text text-anchor="start" x="2079" y="-158.3" font-family="monospace" font-size="14.00">  RValue = []</text>
</g>
<!-- ExecuteUbergraph_AIC_Spider_Shooter_Ground__273&#45;&gt;ExecuteUbergraph_AIC_Spider_Shooter_Ground__302 -->
<g id="edge13" class="edge">
<title>ExecuteUbergraph_AIC_Spider_Shooter_Ground__273&#45;&gt;ExecuteUbergraph_AIC_Spider_Shooter_Ground__302</title>
<path fill="none" stroke="black" d="M2343.51,-271.65C2344.82,-263.06 2346.26,-253.6 2347.68,-244.3"/>
<polygon fill="black" stroke="black" points="2351.11,-245.03 2349.16,-234.61 2344.19,-243.97 2351.11,-245.03"/>
</g>
<!-- ExecuteUbergraph_AIC_Spider_Shooter_Ground__343 -->
<g id="node16" class="node">
<title>ExecuteUbergraph_AIC_Spider_Shooter_Ground__343</title>
<polygon fill="#eeeeee" stroke="black" points="2412,-76.5 2412,-112.5 2519,-112.5 2519,-76.5 2412,-76.5"/>
<text text-anchor="start" x="2420" y="-90.8" font-family="monospace" font-size="14.00">EX_Jump 404</text>
</g>
<!-- ExecuteUbergraph_AIC_Spider_Shooter_Ground__302&#45;&gt;ExecuteUbergraph_AIC_Spider_Shooter_Ground__343 -->
<g id="edge14" class="edge">
<title>ExecuteUbergraph_AIC_Spider_Shooter_Ground__302&#45;&gt;ExecuteUbergraph_AIC_Spider_Shooter_Ground__343</title>
<path fill="none" stroke="black" d="M2401.83,-150.78C2413.94,-140.26 2426.63,-129.25 2437.46,-119.85"/>
<polygon fill="black" stroke="black" points="2439.67,-122.56 2444.92,-113.36 2435.08,-117.28 2439.67,-122.56"/>
</g>
<!-- ExecuteUbergraph_AIC_Spider_Shooter_Ground__343&#45;&gt;ExecuteUbergraph_AIC_Spider_Shooter_Ground__404 -->
<g id="edge15" class="edge">
<title>ExecuteUbergraph_AIC_Spider_Shooter_Ground__343&#45;&gt;ExecuteUbergraph_AIC_Spider_Shooter_Ground__404</title>
<path fill="none" stroke="black" d="M2511.19,-76.57C2538.62,-66.4 2573.82,-53.36 2603.36,-42.42"/>
<polygon fill="black" stroke="black" points="2604.38,-45.77 2612.54,-39.01 2601.95,-39.21 2604.38,-45.77"/>
</g>
<!-- ExecuteUbergraph_AIC_Spider_Shooter_Ground__348 -->
<g id="node17" class="node">
<title>ExecuteUbergraph_AIC_Spider_Shooter_Ground__348</title>
<polygon fill="#eeeeee" stroke="black" points="1604,-1365.5 1604,-1448.5 2223,-1448.5 2223,-1365.5 1604,-1365.5"/>
<text text-anchor="start" x="1612" y="-1433.3" font-family="monospace" font-size="14.00">EX_LetBool</text>
<text text-anchor="start" x="1612" y="-1418.3" font-family="monospace" font-size="14.00">  EX_LocalVariable [K2Node_SwitchName_CmpSuccess]</text>
<text text-anchor="start" x="1612" y="-1403.3" font-family="monospace" font-size="14.00">  EX_CallMath import /Script/Engine&#45;&gt;KismetMathLibrary&#45;&gt;NotEqual_NameName</text>
<text text-anchor="start" x="1612" y="-1388.3" font-family="monospace" font-size="14.00">    EX_LocalVariable [K2Node_Event_keyName]</text>
<text text-anchor="start" x="1612" y="-1373.3" font-family="monospace" font-size="14.00">    EX_NameConst Target</text>
</g>
<!-- ExecuteUbergraph_AIC_Spider_Shooter_Ground__390 -->
<g id="node18" class="node">
<title>ExecuteUbergraph_AIC_Spider_Shooter_Ground__390</title>
<polygon fill="#eeeeee" stroke="black" points="1703,-1253.5 1703,-1291.5 2124,-1291.5 2124,-1253.5 1703,-1253.5"/>
<text text-anchor="start" x="1711" y="-1276.3" font-family="monospace" font-size="14.00">EX_JumpIfNot 25</text>
<text text-anchor="start" x="1711" y="-1261.3" font-family="monospace" font-size="14.00">  EX_LocalVariable [K2Node_SwitchName_CmpSuccess]</text>
</g>
<!-- ExecuteUbergraph_AIC_Spider_Shooter_Ground__348&#45;&gt;ExecuteUbergraph_AIC_Spider_Shooter_Ground__390 -->
<g id="edge16" class="edge">
<title>ExecuteUbergraph_AIC_Spider_Shooter_Ground__348&#45;&gt;ExecuteUbergraph_AIC_Spider_Shooter_Ground__390</title>
<path fill="none" stroke="black" d="M1913.5,-1365.53C1913.5,-1345.27 1913.5,-1321.21 1913.5,-1302.77"/>
<polygon fill="black" stroke="black" points="1917,-1302.8 1913.5,-1292.8 1910,-1302.8 1917,-1302.8"/>
</g>
<!-- ExecuteUbergraph_AIC_Spider_Shooter_Ground__390&#45;&gt;ExecuteUbergraph_AIC_Spider_Shooter_Ground__25 -->
<g id="edge17" class="edge">
<title>ExecuteUbergraph_AIC_Spider_Shooter_Ground__390:e&#45;&gt;ExecuteUbergraph_AIC_Spider_Shooter_Ground__25</title>
<path fill="none" stroke="red" d="M2125.5,-1272.5C2167.56,-1272.5 2204.09,-1237.85 2226.62,-1210.08"/>
<polygon fill="none" stroke="red" points="2229.11,-1212.58 2232.51,-1202.55 2223.59,-1208.27 2229.11,-1212.58"/>
<text text-anchor="middle" x="2242.5" y="-1223.8" font-family="monospace" font-size="14.00">IF NOT</text>
</g>
<!-- ExecuteUbergraph_AIC_Spider_Shooter_Ground__390&#45;&gt;ExecuteUbergraph_AIC_Spider_Shooter_Ground__404 -->
<g id="edge18" class="edge">
<title>ExecuteUbergraph_AIC_Spider_Shooter_Ground__390&#45;&gt;ExecuteUbergraph_AIC_Spider_Shooter_Ground__404</title>
<path fill="none" stroke="black" d="M1913.2,-1253.55C1912.91,-1234.35 1912.5,-1203.03 1912.5,-1176 1912.5,-1176 1912.5,-1176 1912.5,-93.5 1912.5,-25.47 2407.71,-19.8 2593.34,-20.06"/>
<polygon fill="black" stroke="black" points="2593.06,-23.56 2603.07,-20.08 2593.08,-16.56 2593.06,-23.56"/>
<text text-anchor="middle" x="1921" y="-664.8" font-family="monospace" font-size="14.00">IF</text>
</g>
<!-- ExecuteUbergraph_AIC_Spider_Shooter_Ground__406 -->
<g id="node20" class="node">
<title>ExecuteUbergraph_AIC_Spider_Shooter_Ground__406</title>
<polygon fill="#eeeeee" stroke="black" points="2318.5,-1706.5 2318.5,-1742.5 2450.5,-1742.5 2450.5,-1706.5 2318.5,-1706.5"/>
<text text-anchor="start" x="2326.5" y="-1720.8" font-family="monospace" font-size="14.00">EX_EndOfScript</text>
</g>
<!-- Recieve_BlackboardValueChanged -->
<g id="node21" class="node">
<title>Recieve_BlackboardValueChanged</title>
<polygon fill="#ff8888" stroke="black" points="1076,-1851.5 1076,-1904.5 1909,-1904.5 1909,-1851.5 1076,-1851.5"/>
<text text-anchor="start" x="1084" y="-1889.3" font-family="monospace" font-size="14.00">Function Recieve_BlackboardValueChanged</text>
<text text-anchor="start" x="1084" y="-1874.3" font-family="monospace" font-size="14.00">  NameProperty keyName</text>
<text text-anchor="start" x="1084" y="-1859.3" font-family="monospace" font-size="14.00">    CPF_ConstParm|CPF_BlueprintVisible|CPF_BlueprintReadOnly|CPF_Parm|CPF_OutParm|CPF_ReferenceParm</text>
</g>
<!-- Recieve_BlackboardValueChanged__0 -->
<g id="node22" class="node">
<title>Recieve_BlackboardValueChanged__0</title>
<polygon fill="#eeeeee" stroke="black" points="1274,-1634.5 1274,-1687.5 1711,-1687.5 1711,-1634.5 1274,-1634.5"/>
<text text-anchor="start" x="1282" y="-1672.3" font-family="monospace" font-size="14.00">EX_LetValueOnPersistentFrame [K2Node_Event_keyName]</text>
<text text-anchor="start" x="1282" y="-1657.3" font-family="monospace" font-size="14.00">  EX_LocalOutVariable</text>
<text text-anchor="start" x="1282" y="-1642.3" font-family="monospace" font-size="14.00">    [keyName]</text>
</g>
<!-- Recieve_BlackboardValueChanged&#45;&gt;Recieve_BlackboardValueChanged__0 -->
<g id="edge19" class="edge">
<title>Recieve_BlackboardValueChanged&#45;&gt;Recieve_BlackboardValueChanged__0</title>
<path fill="none" stroke="black" d="M1492.5,-1851.92C1492.5,-1814.07 1492.5,-1742.16 1492.5,-1698.5"/>
<polygon fill="black" stroke="black" points="1496,-1698.77 1492.5,-1688.77 1489,-1698.77 1496,-1698.77"/>
</g>
<!-- Recieve_BlackboardValueChanged__18 -->
<g id="node23" class="node">
<title>Recieve_BlackboardValueChanged__18</title>
<polygon fill="#eeeeee" stroke="black" points="1071.5,-1522.5 1071.5,-1560.5 1913.5,-1560.5 1913.5,-1522.5 1071.5,-1522.5"/>
<text text-anchor="start" x="1079.5" y="-1545.3" font-family="monospace" font-size="14.00">EX_LocalFinalFunction export AIC_Spider_Shooter_Ground_C&#45;&gt;ExecuteUbergraph_AIC_Spider_Shooter_Ground</text>
<text text-anchor="start" x="1079.5" y="-1530.3" font-family="monospace" font-size="14.00">  EX_IntConst 348</text>
</g>
<!-- Recieve_BlackboardValueChanged__0&#45;&gt;Recieve_BlackboardValueChanged__18 -->
<g id="edge20" class="edge">
<title>Recieve_BlackboardValueChanged__0&#45;&gt;Recieve_BlackboardValueChanged__18</title>
<path fill="none" stroke="black" d="M1492.5,-1634.5C1492.5,-1616.03 1492.5,-1591.03 1492.5,-1571.75"/>
<polygon fill="black" stroke="black" points="1496,-1571.82 1492.5,-1561.82 1489,-1571.82 1496,-1571.82"/>
</g>
<!-- Recieve_BlackboardValueChanged__18&#45;&gt;ExecuteUbergraph_AIC_Spider_Shooter_Ground__348 -->
<g id="edge21" class="edge">
<title>Recieve_BlackboardValueChanged__18:e&#45;&gt;ExecuteUbergraph_AIC_Spider_Shooter_Ground__348</title>
<path fill="none" stroke="red" d="M1914.5,-1541.5C1948.78,-1541.5 1943.12,-1496.94 1932.22,-1459.31"/>
<polygon fill="none" stroke="red" points="1935.6,-1458.39 1929.32,-1449.86 1928.91,-1460.45 1935.6,-1458.39"/>
</g>
<!-- Recieve_BlackboardValueChanged__33 -->
<g id="node24" class="node">
<title>Recieve_BlackboardValueChanged__33</title>
<polygon fill="#eeeeee" stroke="black" points="1434.5,-1388 1434.5,-1426 1550.5,-1426 1550.5,-1388 1434.5,-1388"/>
<text text-anchor="start" x="1442.5" y="-1410.8" font-family="monospace" font-size="14.00">EX_Return</text>
<text text-anchor="start" x="1442.5" y="-1395.8" font-family="monospace" font-size="14.00">  EX_Nothing</text>
</g>
<!-- Recieve_BlackboardValueChanged__18&#45;&gt;Recieve_BlackboardValueChanged__33 -->
<g id="edge22" class="edge">
<title>Recieve_BlackboardValueChanged__18&#45;&gt;Recieve_BlackboardValueChanged__33</title>
<path fill="none" stroke="black" d="M1492.5,-1522.63C1492.5,-1500.68 1492.5,-1463.14 1492.5,-1437.03"/>
<polygon fill="black" stroke="black" points="1496,-1437.1 1492.5,-1427.1 1489,-1437.1 1496,-1437.1"/>
</g>
<!-- Recieve_BlackboardValueChanged__35 -->
<g id="node25" class="node">
<title>Recieve_BlackboardValueChanged__35</title>
<polygon fill="#eeeeee" stroke="black" points="2744.5,-1579.5 2744.5,-1615.5 2876.5,-1615.5 2876.5,-1579.5 2744.5,-1579.5"/>
<text text-anchor="start" x="2752.5" y="-1593.8" font-family="monospace" font-size="14.00">EX_EndOfScript</text>
</g>
<!-- ReceiveBeginPlay -->
<g id="node26" class="node">
<title>ReceiveBeginPlay</title>
<polygon fill="#ff8888" stroke="black" points="2192,-1860 2192,-1896 2415,-1896 2415,-1860 2192,-1860"/>
<text text-anchor="start" x="2200" y="-1874.3" font-family="monospace" font-size="14.00">Function ReceiveBeginPlay</text>
</g>
<!-- ReceiveBeginPlay__0 -->
<g id="node27" class="node">
<title>ReceiveBeginPlay__0</title>
<polygon fill="#eeeeee" stroke="black" points="1882.5,-1642 1882.5,-1680 2724.5,-1680 2724.5,-1642 1882.5,-1642"/>
<text text-anchor="start" x="1890.5" y="-1664.8" font-family="monospace" font-size="14.00">EX_LocalFinalFunction export AIC_Spider_Shooter_Ground_C&#45;&gt;ExecuteUbergraph_AIC_Spider_Shooter_Ground</text>
<text text-anchor="start" x="1890.5" y="-1649.8" font-family="monospace" font-size="14.00">  EX_IntConst 10</text>
</g>
<!-- ReceiveBeginPlay&#45;&gt;ReceiveBeginPlay__0 -->
<g id="edge23" class="edge">
<title>ReceiveBeginPlay&#45;&gt;ReceiveBeginPlay__0</title>
<path fill="none" stroke="black" d="M2303.5,-1860.13C2303.5,-1823.68 2303.5,-1737.17 2303.5,-1691.47"/>
<polygon fill="black" stroke="black" points="2307,-1691.51 2303.5,-1681.51 2300,-1691.51 2307,-1691.51"/>
</g>
<!-- ReceiveBeginPlay__0&#45;&gt;ExecuteUbergraph_AIC_Spider_Shooter_Ground__10 -->
<g id="edge24" class="edge">
<title>ReceiveBeginPlay__0:e&#45;&gt;ExecuteUbergraph_AIC_Spider_Shooter_Ground__10</title>
<path fill="none" stroke="red" d="M2725.5,-1661C2730.09,-1661 2739.17,-1605.5 2744.44,-1570.47"/>
<polygon fill="none" stroke="red" points="2747.85,-1571.38 2745.85,-1560.98 2740.92,-1570.35 2747.85,-1571.38"/>
</g>
<!-- ReceiveBeginPlay__15 -->
<g id="node28" class="node">
<title>ReceiveBeginPlay__15</title>
<polygon fill="#eeeeee" stroke="black" points="2226.5,-1522.5 2226.5,-1560.5 2342.5,-1560.5 2342.5,-1522.5 2226.5,-1522.5"/>
<text text-anchor="start" x="2234.5" y="-1545.3" font-family="monospace" font-size="14.00">EX_Return</text>
<text text-anchor="start" x="2234.5" y="-1530.3" font-family="monospace" font-size="14.00">  EX_Nothing</text>
</g>
<!-- ReceiveBeginPlay__0&#45;&gt;ReceiveBeginPlay__15 -->
<g id="edge25" class="edge">
<title>ReceiveBeginPlay__0&#45;&gt;ReceiveBeginPlay__15</title>
<path fill="none" stroke="black" d="M2300.61,-1642.15C2297.57,-1623.33 2292.73,-1593.37 2289.14,-1571.21"/>
<polygon fill="black" stroke="black" points="2292.64,-1570.94 2287.59,-1561.62 2285.73,-1572.05 2292.64,-1570.94"/>
</g>
<!-- ReceiveBeginPlay__17 -->
<g id="node29" class="node">
<title>ReceiveBeginPlay__17</title>
<polygon fill="#eeeeee" stroke="black" points="2763.5,-1467.5 2763.5,-1503.5 2895.5,-1503.5 2895.5,-1467.5 2763.5,-1467.5"/>
<text text-anchor="start" x="2771.5" y="-1481.8" font-family="monospace" font-size="14.00">EX_EndOfScript</text>
</g>
</g>
</svg>
