<?xml version="1.0" encoding="UTF-8" standalone="no"?>
<!DOCTYPE svg PUBLIC "-//W3C//DTD SVG 1.1//EN"
 "http://www.w3.org/Graphics/SVG/1.1/DTD/svg11.dtd">
<!-- Generated by graphviz version 7.0.1 (0)
 -->
<!-- Pages: 1 -->
<svg width="1600pt" height="482pt"
 viewBox="0.00 0.00 1599.50 482.00" xmlns="http://www.w3.org/2000/svg" xmlns:xlink="http://www.w3.org/1999/xlink">
<g id="graph0" class="graph" transform="scale(1 1) rotate(0) translate(4 478)">
<polygon fill="white" stroke="none" points="-4,4 -4,-478 1595.5,-478 1595.5,4 -4,4"/>
<!-- ABP_EventRewardFrame_C -->
<g id="node1" class="node">
<title>ABP_EventRewardFrame_C</title>
<polygon fill="#88ff88" stroke="black" points="0,-195.5 0,-473.5 561,-473.5 561,-195.5 0,-195.5"/>
<text text-anchor="start" x="8" y="-458.3" font-family="monospace" font-size="14.00">ClassExport: ABP_EventRewardFrame_C</text>
<text text-anchor="start" x="8" y="-443.3" font-family="monospace" font-size="14.00">  SuperStruct: import /Script/FSD&#45;&gt;CoreInfuserPlatformAnimInstance</text>
<text text-anchor="start" x="8" y="-428.3" font-family="monospace" font-size="14.00">  Properties:</text>
<text text-anchor="start" x="8" y="-413.3" font-family="monospace" font-size="14.00">    StructProperty UberGraphFrame</text>
<text text-anchor="start" x="8" y="-398.3" font-family="monospace" font-size="14.00">      CPF_Transient|CPF_DuplicateTransient</text>
<text text-anchor="start" x="8" y="-383.3" font-family="monospace" font-size="14.00">    StructProperty AnimGraphNode_Root</text>
<text text-anchor="start" x="8" y="-368.3" font-family="monospace" font-size="14.00">    StructProperty AnimGraphNode_TransitionResult_2</text>
<text text-anchor="start" x="8" y="-353.3" font-family="monospace" font-size="14.00">    StructProperty AnimGraphNode_TransitionResult_1</text>
<text text-anchor="start" x="8" y="-338.3" font-family="monospace" font-size="14.00">    StructProperty AnimGraphNode_TransitionResult</text>
<text text-anchor="start" x="8" y="-323.3" font-family="monospace" font-size="14.00">    StructProperty AnimGraphNode_SequencePlayer_3</text>
<text text-anchor="start" x="8" y="-308.3" font-family="monospace" font-size="14.00">    StructProperty AnimGraphNode_StateResult_3</text>
<text text-anchor="start" x="8" y="-293.3" font-family="monospace" font-size="14.00">    StructProperty AnimGraphNode_SequencePlayer_2</text>
<text text-anchor="start" x="8" y="-278.3" font-family="monospace" font-size="14.00">    StructProperty AnimGraphNode_StateResult_2</text>
<text text-anchor="start" x="8" y="-263.3" font-family="monospace" font-size="14.00">    StructProperty AnimGraphNode_SequencePlayer_1</text>
<text text-anchor="start" x="8" y="-248.3" font-family="monospace" font-size="14.00">    StructProperty AnimGraphNode_StateResult_1</text>
<text text-anchor="start" x="8" y="-233.3" font-family="monospace" font-size="14.00">    StructProperty AnimGraphNode_SequencePlayer</text>
<text text-anchor="start" x="8" y="-218.3" font-family="monospace" font-size="14.00">    StructProperty AnimGraphNode_StateResult</text>
<text text-anchor="start" x="8" y="-203.3" font-family="monospace" font-size="14.00">    StructProperty AnimGraphNode_StateMachine</text>
</g>
<!-- ExecuteUbergraph_ABP_EventRewardFrame -->
<g id="node2" class="node">
<title>ExecuteUbergraph_ABP_EventRewardFrame</title>
<polygon fill="#ff8888" stroke="black" points="579.5,-308 579.5,-361 1049.5,-361 1049.5,-308 579.5,-308"/>
<text text-anchor="start" x="587.5" y="-345.8" font-family="monospace" font-size="14.00">Function ExecuteUbergraph_ABP_EventRewardFrame</text>
<text text-anchor="start" x="587.5" y="-330.8" font-family="monospace" font-size="14.00">  IntProperty EntryPoint</text>
<text text-anchor="start" x="587.5" y="-315.8" font-family="monospace" font-size="14.00">    CPF_BlueprintVisible|CPF_BlueprintReadOnly|CPF_Parm</text>
</g>
<!-- ExecuteUbergraph_ABP_EventRewardFrame__0 -->
<g id="node3" class="node">
<title>ExecuteUbergraph_ABP_EventRewardFrame__0</title>
<polygon fill="#eeeeee" stroke="black" points="678.5,-98 678.5,-136 950.5,-136 950.5,-98 678.5,-98"/>
<text text-anchor="start" x="686.5" y="-120.8" font-family="monospace" font-size="14.00">EX_ComputedJump</text>
<text text-anchor="start" x="686.5" y="-105.8" font-family="monospace" font-size="14.00">  EX_LocalVariable [EntryPoint]</text>
</g>
<!-- ExecuteUbergraph_ABP_EventRewardFrame&#45;&gt;ExecuteUbergraph_ABP_EventRewardFrame__0 -->
<g id="edge1" class="edge">
<title>ExecuteUbergraph_ABP_EventRewardFrame&#45;&gt;ExecuteUbergraph_ABP_EventRewardFrame__0</title>
<path fill="none" stroke="black" d="M814.5,-308.36C814.5,-268.24 814.5,-189.94 814.5,-147.33"/>
<polygon fill="black" stroke="black" points="818,-147.34 814.5,-137.34 811,-147.34 818,-147.34"/>
</g>
<!-- ExecuteUbergraph_ABP_EventRewardFrame__10 -->
<g id="node4" class="node">
<title>ExecuteUbergraph_ABP_EventRewardFrame__10</title>
<polygon fill="#eeeeee" stroke="black" points="1133.5,-0.5 1133.5,-38.5 1249.5,-38.5 1249.5,-0.5 1133.5,-0.5"/>
<text text-anchor="start" x="1141.5" y="-23.3" font-family="monospace" font-size="14.00">EX_Return</text>
<text text-anchor="start" x="1141.5" y="-8.3" font-family="monospace" font-size="14.00">  EX_Nothing</text>
</g>
<!-- ExecuteUbergraph_ABP_EventRewardFrame__12 -->
<g id="node5" class="node">
<title>ExecuteUbergraph_ABP_EventRewardFrame__12</title>
<polygon fill="#eeeeee" stroke="black" points="968.5,-99 968.5,-135 1100.5,-135 1100.5,-99 968.5,-99"/>
<text text-anchor="start" x="976.5" y="-113.3" font-family="monospace" font-size="14.00">EX_EndOfScript</text>
</g>
<!-- AnimGraph -->
<g id="node6" class="node">
<title>AnimGraph</title>
<polygon fill="#ff8888" stroke="black" points="1210,-308 1210,-361 1441,-361 1441,-308 1210,-308"/>
<text text-anchor="start" x="1218" y="-345.8" font-family="monospace" font-size="14.00">Function AnimGraph</text>
<text text-anchor="start" x="1218" y="-330.8" font-family="monospace" font-size="14.00">  StructProperty AnimGraph</text>
<text text-anchor="start" x="1218" y="-315.8" font-family="monospace" font-size="14.00">    CPF_Parm|CPF_OutParm</text>
</g>
<!-- AnimGraph__0 -->
<g id="node7" class="node">
<title>AnimGraph__0</title>
<polygon fill="#eeeeee" stroke="black" points="1119,-75.5 1119,-158.5 1532,-158.5 1532,-75.5 1119,-75.5"/>
<text text-anchor="start" x="1127" y="-143.3" font-family="monospace" font-size="14.00">EX_Let</text>
<text text-anchor="start" x="1127" y="-128.3" font-family="monospace" font-size="14.00">  EX_LocalOutVariable</text>
<text text-anchor="start" x="1127" y="-113.3" font-family="monospace" font-size="14.00">    [AnimGraph]</text>
<text text-anchor="start" x="1127" y="-98.3" font-family="monospace" font-size="14.00">  EX_StructConst import /Script/Engine&#45;&gt;PoseLink</text>
<text text-anchor="start" x="1127" y="-83.3" font-family="monospace" font-size="14.00">    EX_IntConst &#45;1</text>
</g>
<!-- AnimGraph&#45;&gt;AnimGraph__0 -->
<g id="edge2" class="edge">
<title>AnimGraph&#45;&gt;AnimGraph__0</title>
<path fill="none" stroke="black" d="M1325.5,-308.36C1325.5,-274.52 1325.5,-213.52 1325.5,-169.68"/>
<polygon fill="black" stroke="black" points="1329,-169.89 1325.5,-159.89 1322,-169.89 1329,-169.89"/>
</g>
<!-- AnimGraph__37 -->
<g id="node8" class="node">
<title>AnimGraph__37</title>
<polygon fill="#eeeeee" stroke="black" points="1267.5,-0.5 1267.5,-38.5 1383.5,-38.5 1383.5,-0.5 1267.5,-0.5"/>
<text text-anchor="start" x="1275.5" y="-23.3" font-family="monospace" font-size="14.00">EX_Return</text>
<text text-anchor="start" x="1275.5" y="-8.3" font-family="monospace" font-size="14.00">  EX_Nothing</text>
</g>
<!-- AnimGraph__0&#45;&gt;AnimGraph__37 -->
<g id="edge3" class="edge">
<title>AnimGraph__0&#45;&gt;AnimGraph__37</title>
<path fill="none" stroke="black" d="M1325.5,-75.78C1325.5,-67.01 1325.5,-57.89 1325.5,-49.65"/>
<polygon fill="black" stroke="black" points="1329,-49.86 1325.5,-39.86 1322,-49.86 1329,-49.86"/>
</g>
<!-- AnimGraph__39 -->
<g id="node9" class="node">
<title>AnimGraph__39</title>
<polygon fill="#eeeeee" stroke="black" points="1459.5,-316.5 1459.5,-352.5 1591.5,-352.5 1591.5,-316.5 1459.5,-316.5"/>
<text text-anchor="start" x="1467.5" y="-330.8" font-family="monospace" font-size="14.00">EX_EndOfScript</text>
</g>
</g>
</svg>
