<?xml version="1.0" encoding="UTF-8" standalone="no"?>
<!DOCTYPE svg PUBLIC "-//W3C//DTD SVG 1.1//EN"
 "http://www.w3.org/Graphics/SVG/1.1/DTD/svg11.dtd">
<!-- Generated by graphviz version 7.0.1 (0)
 -->
<!-- Pages: 1 -->
<svg width="4893pt" height="1342pt"
 viewBox="0.00 0.00 4893.00 1342.00" xmlns="http://www.w3.org/2000/svg" xmlns:xlink="http://www.w3.org/1999/xlink">
<g id="graph0" class="graph" transform="scale(1 1) rotate(0) translate(4 1338)">
<polygon fill="white" stroke="none" points="-4,4 -4,-1338 4889,-1338 4889,4 -4,4"/>
<!-- ABP_RewardDispenser_C -->
<g id="node1" class="node">
<title>ABP_RewardDispenser_C</title>
<polygon fill="#88ff88" stroke="black" points="0,-1055.5 0,-1333.5 495,-1333.5 495,-1055.5 0,-1055.5"/>
<text text-anchor="start" x="8" y="-1318.3" font-family="monospace" font-size="14.00">ClassExport: ABP_RewardDispenser_C</text>
<text text-anchor="start" x="8" y="-1303.3" font-family="monospace" font-size="14.00">  SuperStruct: import /Script/FSD&#45;&gt;CoreInfuserAnimInstance</text>
<text text-anchor="start" x="8" y="-1288.3" font-family="monospace" font-size="14.00">  Properties:</text>
<text text-anchor="start" x="8" y="-1273.3" font-family="monospace" font-size="14.00">    StructProperty UberGraphFrame</text>
<text text-anchor="start" x="8" y="-1258.3" font-family="monospace" font-size="14.00">      CPF_Transient|CPF_DuplicateTransient</text>
<text text-anchor="start" x="8" y="-1243.3" font-family="monospace" font-size="14.00">    StructProperty AnimGraphNode_Root</text>
<text text-anchor="start" x="8" y="-1228.3" font-family="monospace" font-size="14.00">    StructProperty AnimGraphNode_TransitionResult_2</text>
<text text-anchor="start" x="8" y="-1213.3" font-family="monospace" font-size="14.00">    StructProperty AnimGraphNode_TransitionResult_1</text>
<text text-anchor="start" x="8" y="-1198.3" font-family="monospace" font-size="14.00">    StructProperty AnimGraphNode_TransitionResult</text>
<text text-anchor="start" x="8" y="-1183.3" font-family="monospace" font-size="14.00">    StructProperty AnimGraphNode_SequencePlayer_3</text>
<text text-anchor="start" x="8" y="-1168.3" font-family="monospace" font-size="14.00">    StructProperty AnimGraphNode_StateResult_3</text>
<text text-anchor="start" x="8" y="-1153.3" font-family="monospace" font-size="14.00">    StructProperty AnimGraphNode_SequencePlayer_2</text>
<text text-anchor="start" x="8" y="-1138.3" font-family="monospace" font-size="14.00">    StructProperty AnimGraphNode_StateResult_2</text>
<text text-anchor="start" x="8" y="-1123.3" font-family="monospace" font-size="14.00">    StructProperty AnimGraphNode_SequencePlayer_1</text>
<text text-anchor="start" x="8" y="-1108.3" font-family="monospace" font-size="14.00">    StructProperty AnimGraphNode_StateResult_1</text>
<text text-anchor="start" x="8" y="-1093.3" font-family="monospace" font-size="14.00">    StructProperty AnimGraphNode_SequencePlayer</text>
<text text-anchor="start" x="8" y="-1078.3" font-family="monospace" font-size="14.00">    StructProperty AnimGraphNode_StateResult</text>
<text text-anchor="start" x="8" y="-1063.3" font-family="monospace" font-size="14.00">    StructProperty AnimGraphNode_StateMachine</text>
</g>
<!-- ExecuteUbergraph_ABP_RewardDispenser -->
<g id="node2" class="node">
<title>ExecuteUbergraph_ABP_RewardDispenser</title>
<polygon fill="#ff8888" stroke="black" points="513,-1138 513,-1251 992,-1251 992,-1138 513,-1138"/>
<text text-anchor="start" x="521" y="-1235.8" font-family="monospace" font-size="14.00">Function ExecuteUbergraph_ABP_RewardDispenser</text>
<text text-anchor="start" x="521" y="-1220.8" font-family="monospace" font-size="14.00">  IntProperty EntryPoint</text>
<text text-anchor="start" x="521" y="-1205.8" font-family="monospace" font-size="14.00">    CPF_BlueprintVisible|CPF_BlueprintReadOnly|CPF_Parm</text>
<text text-anchor="start" x="521" y="-1190.8" font-family="monospace" font-size="14.00">  BoolProperty K2Node_CustomEvent_IsVisible</text>
<text text-anchor="start" x="521" y="-1175.8" font-family="monospace" font-size="14.00">  ObjectProperty CallFunc_GetOwningComponent_ReturnValue</text>
<text text-anchor="start" x="521" y="-1160.8" font-family="monospace" font-size="14.00">    CPF_InstancedReference</text>
<text text-anchor="start" x="521" y="-1145.8" font-family="monospace" font-size="14.00">  NameProperty CallFunc_MakeLiteralName_ReturnValue</text>
</g>
<!-- ExecuteUbergraph_ABP_RewardDispenser__0 -->
<g id="node3" class="node">
<title>ExecuteUbergraph_ABP_RewardDispenser__0</title>
<polygon fill="#eeeeee" stroke="black" points="616.5,-921 616.5,-959 888.5,-959 888.5,-921 616.5,-921"/>
<text text-anchor="start" x="624.5" y="-943.8" font-family="monospace" font-size="14.00">EX_ComputedJump</text>
<text text-anchor="start" x="624.5" y="-928.8" font-family="monospace" font-size="14.00">  EX_LocalVariable [EntryPoint]</text>
</g>
<!-- ExecuteUbergraph_ABP_RewardDispenser&#45;&gt;ExecuteUbergraph_ABP_RewardDispenser__0 -->
<g id="edge1" class="edge">
<title>ExecuteUbergraph_ABP_RewardDispenser&#45;&gt;ExecuteUbergraph_ABP_RewardDispenser__0</title>
<path fill="none" stroke="black" d="M752.5,-1138.09C752.5,-1086.27 752.5,-1010.92 752.5,-970.03"/>
<polygon fill="black" stroke="black" points="756,-970.26 752.5,-960.26 749,-970.26 756,-970.26"/>
</g>
<!-- ExecuteUbergraph_ABP_RewardDispenser__10 -->
<g id="node4" class="node">
<title>ExecuteUbergraph_ABP_RewardDispenser__10</title>
<polygon fill="#eeeeee" stroke="black" points="4210.5,-674.5 4210.5,-712.5 4590.5,-712.5 4590.5,-674.5 4210.5,-674.5"/>
<text text-anchor="start" x="4218.5" y="-697.3" font-family="monospace" font-size="14.00">EX_LocalVirtualFunction SetMatrixCoreVisible</text>
<text text-anchor="start" x="4218.5" y="-682.3" font-family="monospace" font-size="14.00">  EX_True</text>
</g>
<!-- ExecuteUbergraph_ABP_RewardDispenser__25 -->
<g id="node5" class="node">
<title>ExecuteUbergraph_ABP_RewardDispenser__25</title>
<polygon fill="#eeeeee" stroke="black" points="4338,-492.5 4338,-528.5 4445,-528.5 4445,-492.5 4338,-492.5"/>
<text text-anchor="start" x="4346" y="-506.8" font-family="monospace" font-size="14.00">EX_Jump 290</text>
</g>
<!-- ExecuteUbergraph_ABP_RewardDispenser__10&#45;&gt;ExecuteUbergraph_ABP_RewardDispenser__25 -->
<g id="edge2" class="edge">
<title>ExecuteUbergraph_ABP_RewardDispenser__10&#45;&gt;ExecuteUbergraph_ABP_RewardDispenser__25</title>
<path fill="none" stroke="black" d="M4399.62,-674.82C4398.06,-643.35 4394.78,-577.41 4392.9,-539.65"/>
<polygon fill="black" stroke="black" points="4396.41,-539.79 4392.42,-529.97 4389.42,-540.14 4396.41,-539.79"/>
</g>
<!-- ExecuteUbergraph_ABP_RewardDispenser__290 -->
<g id="node19" class="node">
<title>ExecuteUbergraph_ABP_RewardDispenser__290</title>
<polygon fill="#eeeeee" stroke="black" points="3865.5,-0.5 3865.5,-38.5 3981.5,-38.5 3981.5,-0.5 3865.5,-0.5"/>
<text text-anchor="start" x="3873.5" y="-23.3" font-family="monospace" font-size="14.00">EX_Return</text>
<text text-anchor="start" x="3873.5" y="-8.3" font-family="monospace" font-size="14.00">  EX_Nothing</text>
</g>
<!-- ExecuteUbergraph_ABP_RewardDispenser__25&#45;&gt;ExecuteUbergraph_ABP_RewardDispenser__290 -->
<g id="edge3" class="edge">
<title>ExecuteUbergraph_ABP_RewardDispenser__25&#45;&gt;ExecuteUbergraph_ABP_RewardDispenser__290</title>
<path fill="none" stroke="black" d="M4390.31,-492.7C4388.57,-466.43 4385.5,-414.02 4385.5,-369.5 4385.5,-369.5 4385.5,-369.5 4385.5,-93.5 4385.5,-54.19 4121.12,-32.58 3992.36,-24.38"/>
<polygon fill="black" stroke="black" points="3992.79,-20.91 3982.59,-23.77 3992.35,-27.89 3992.79,-20.91"/>
</g>
<!-- ExecuteUbergraph_ABP_RewardDispenser__30 -->
<g id="node6" class="node">
<title>ExecuteUbergraph_ABP_RewardDispenser__30</title>
<polygon fill="#eeeeee" stroke="black" points="2832.5,-674.5 2832.5,-712.5 3212.5,-712.5 3212.5,-674.5 2832.5,-674.5"/>
<text text-anchor="start" x="2840.5" y="-697.3" font-family="monospace" font-size="14.00">EX_LocalVirtualFunction SetMatrixCoreVisible</text>
<text text-anchor="start" x="2840.5" y="-682.3" font-family="monospace" font-size="14.00">  EX_False</text>
</g>
<!-- ExecuteUbergraph_ABP_RewardDispenser__45 -->
<g id="node7" class="node">
<title>ExecuteUbergraph_ABP_RewardDispenser__45</title>
<polygon fill="#eeeeee" stroke="black" points="3111,-350.5 3111,-386.5 3218,-386.5 3218,-350.5 3111,-350.5"/>
<text text-anchor="start" x="3119" y="-364.8" font-family="monospace" font-size="14.00">EX_Jump 290</text>
</g>
<!-- ExecuteUbergraph_ABP_RewardDispenser__30&#45;&gt;ExecuteUbergraph_ABP_RewardDispenser__45 -->
<g id="edge4" class="edge">
<title>ExecuteUbergraph_ABP_RewardDispenser__30&#45;&gt;ExecuteUbergraph_ABP_RewardDispenser__45</title>
<path fill="none" stroke="black" d="M3021.43,-674.69C3019.47,-625.82 3020.52,-487.73 3087.5,-405 3091.44,-400.14 3096.19,-395.91 3101.38,-392.24"/>
<polygon fill="black" stroke="black" points="3103.15,-395.26 3109.82,-387.03 3099.47,-389.31 3103.15,-395.26"/>
</g>
<!-- ExecuteUbergraph_ABP_RewardDispenser__45&#45;&gt;ExecuteUbergraph_ABP_RewardDispenser__290 -->
<g id="edge5" class="edge">
<title>ExecuteUbergraph_ABP_RewardDispenser__45&#45;&gt;ExecuteUbergraph_ABP_RewardDispenser__290</title>
<path fill="none" stroke="black" d="M3178.48,-350.62C3200.27,-325.24 3244.73,-277.13 3291.5,-248 3478.67,-131.41 3734.16,-62.93 3854.92,-35.1"/>
<polygon fill="black" stroke="black" points="3855.38,-38.59 3864.35,-32.95 3853.82,-31.76 3855.38,-38.59"/>
</g>
<!-- ExecuteUbergraph_ABP_RewardDispenser__50 -->
<g id="node8" class="node">
<title>ExecuteUbergraph_ABP_RewardDispenser__50</title>
<polygon fill="#eeeeee" stroke="black" points="4396,-787.5 4396,-823.5 4495,-823.5 4495,-787.5 4396,-787.5"/>
<text text-anchor="start" x="4404" y="-801.8" font-family="monospace" font-size="14.00">EX_Jump 10</text>
</g>
<!-- ExecuteUbergraph_ABP_RewardDispenser__50&#45;&gt;ExecuteUbergraph_ABP_RewardDispenser__10 -->
<g id="edge6" class="edge">
<title>ExecuteUbergraph_ABP_RewardDispenser__50&#45;&gt;ExecuteUbergraph_ABP_RewardDispenser__10</title>
<path fill="none" stroke="black" d="M4430.19,-787.67C4425.53,-781.8 4420.77,-774.93 4417.5,-768 4410.91,-754.03 4406.78,-737.32 4404.25,-723.37"/>
<polygon fill="black" stroke="black" points="4407.77,-723.23 4402.72,-713.92 4400.86,-724.35 4407.77,-723.23"/>
</g>
<!-- ExecuteUbergraph_ABP_RewardDispenser__55 -->
<g id="node9" class="node">
<title>ExecuteUbergraph_ABP_RewardDispenser__55</title>
<polygon fill="#eeeeee" stroke="black" points="1733,-787.5 1733,-823.5 1832,-823.5 1832,-787.5 1733,-787.5"/>
<text text-anchor="start" x="1741" y="-801.8" font-family="monospace" font-size="14.00">EX_Jump 30</text>
</g>
<!-- ExecuteUbergraph_ABP_RewardDispenser__55&#45;&gt;ExecuteUbergraph_ABP_RewardDispenser__30 -->
<g id="edge7" class="edge">
<title>ExecuteUbergraph_ABP_RewardDispenser__55&#45;&gt;ExecuteUbergraph_ABP_RewardDispenser__30</title>
<path fill="none" stroke="black" d="M1831.7,-799.57C1870.05,-795.76 1924.65,-790.41 1972.5,-786 2267.86,-758.75 2610.17,-729.32 2821.54,-711.4"/>
<polygon fill="black" stroke="black" points="2821.59,-714.91 2831.25,-710.58 2821,-707.94 2821.59,-714.91"/>
</g>
<!-- ExecuteUbergraph_ABP_RewardDispenser__60 -->
<g id="node10" class="node">
<title>ExecuteUbergraph_ABP_RewardDispenser__60</title>
<polygon fill="#eeeeee" stroke="black" points="2559,-787.5 2559,-823.5 2658,-823.5 2658,-787.5 2559,-787.5"/>
<text text-anchor="start" x="2567" y="-801.8" font-family="monospace" font-size="14.00">EX_Jump 30</text>
</g>
<!-- ExecuteUbergraph_ABP_RewardDispenser__60&#45;&gt;ExecuteUbergraph_ABP_RewardDispenser__30 -->
<g id="edge8" class="edge">
<title>ExecuteUbergraph_ABP_RewardDispenser__60&#45;&gt;ExecuteUbergraph_ABP_RewardDispenser__30</title>
<path fill="none" stroke="black" d="M2657.62,-791.45C2728.34,-772.66 2859.59,-737.79 2943.89,-715.39"/>
<polygon fill="black" stroke="black" points="2944.72,-718.79 2953.49,-712.84 2942.92,-712.02 2944.72,-718.79"/>
</g>
<!-- ExecuteUbergraph_ABP_RewardDispenser__65 -->
<g id="node11" class="node">
<title>ExecuteUbergraph_ABP_RewardDispenser__65</title>
<polygon fill="#eeeeee" stroke="black" points="3603,-674.5 3603,-712.5 4024,-712.5 4024,-674.5 3603,-674.5"/>
<text text-anchor="start" x="3611" y="-697.3" font-family="monospace" font-size="14.00">EX_JumpIfNot 186</text>
<text text-anchor="start" x="3611" y="-682.3" font-family="monospace" font-size="14.00">  EX_LocalVariable [K2Node_CustomEvent_IsVisible]</text>
</g>
<!-- ExecuteUbergraph_ABP_RewardDispenser__79 -->
<g id="node12" class="node">
<title>ExecuteUbergraph_ABP_RewardDispenser__79</title>
<polygon fill="#eeeeee" stroke="black" points="3088,-547.5 3088,-600.5 3715,-600.5 3715,-547.5 3088,-547.5"/>
<text text-anchor="start" x="3096" y="-585.3" font-family="monospace" font-size="14.00">EX_LetObj</text>
<text text-anchor="start" x="3096" y="-570.3" font-family="monospace" font-size="14.00">  EX_LocalVariable [CallFunc_GetOwningComponent_ReturnValue]</text>
<text text-anchor="start" x="3096" y="-555.3" font-family="monospace" font-size="14.00">  EX_FinalFunction import /Script/Engine&#45;&gt;AnimInstance&#45;&gt;GetOwningComponent</text>
</g>
<!-- ExecuteUbergraph_ABP_RewardDispenser__65&#45;&gt;ExecuteUbergraph_ABP_RewardDispenser__79 -->
<g id="edge10" class="edge">
<title>ExecuteUbergraph_ABP_RewardDispenser__65&#45;&gt;ExecuteUbergraph_ABP_RewardDispenser__79</title>
<path fill="none" stroke="black" d="M3750.48,-674.53C3684.28,-655.65 3579.2,-625.68 3501.63,-603.56"/>
<polygon fill="black" stroke="black" points="3502.9,-600.28 3492.33,-600.9 3500.98,-607.01 3502.9,-600.28"/>
<text text-anchor="middle" x="3689" y="-633.8" font-family="monospace" font-size="14.00">IF</text>
</g>
<!-- ExecuteUbergraph_ABP_RewardDispenser__186 -->
<g id="node16" class="node">
<title>ExecuteUbergraph_ABP_RewardDispenser__186</title>
<polygon fill="#eeeeee" stroke="black" points="3733,-547.5 3733,-600.5 4360,-600.5 4360,-547.5 3733,-547.5"/>
<text text-anchor="start" x="3741" y="-585.3" font-family="monospace" font-size="14.00">EX_LetObj</text>
<text text-anchor="start" x="3741" y="-570.3" font-family="monospace" font-size="14.00">  EX_LocalVariable [CallFunc_GetOwningComponent_ReturnValue]</text>
<text text-anchor="start" x="3741" y="-555.3" font-family="monospace" font-size="14.00">  EX_FinalFunction import /Script/Engine&#45;&gt;AnimInstance&#45;&gt;GetOwningComponent</text>
</g>
<!-- ExecuteUbergraph_ABP_RewardDispenser__65&#45;&gt;ExecuteUbergraph_ABP_RewardDispenser__186 -->
<g id="edge9" class="edge">
<title>ExecuteUbergraph_ABP_RewardDispenser__65:e&#45;&gt;ExecuteUbergraph_ABP_RewardDispenser__186</title>
<path fill="none" stroke="red" d="M4025.5,-693.5C4059.19,-693.5 4058.77,-646.47 4053.84,-611.67"/>
<polygon fill="none" stroke="red" points="4057.32,-611.24 4052.28,-601.92 4050.41,-612.34 4057.32,-611.24"/>
<text text-anchor="middle" x="4081.5" y="-633.8" font-family="monospace" font-size="14.00">IF NOT</text>
</g>
<!-- ExecuteUbergraph_ABP_RewardDispenser__99 -->
<g id="node13" class="node">
<title>ExecuteUbergraph_ABP_RewardDispenser__99</title>
<polygon fill="#eeeeee" stroke="black" points="3097,-405.5 3097,-473.5 3716,-473.5 3716,-405.5 3097,-405.5"/>
<text text-anchor="start" x="3105" y="-458.3" font-family="monospace" font-size="14.00">EX_Let</text>
<text text-anchor="start" x="3105" y="-443.3" font-family="monospace" font-size="14.00">  EX_LocalVariable [CallFunc_MakeLiteralName_ReturnValue]</text>
<text text-anchor="start" x="3105" y="-428.3" font-family="monospace" font-size="14.00">  EX_CallMath import /Script/Engine&#45;&gt;KismetSystemLibrary&#45;&gt;MakeLiteralName</text>
<text text-anchor="start" x="3105" y="-413.3" font-family="monospace" font-size="14.00">    EX_NameConst CoreSocket_MatrixCore</text>
</g>
<!-- ExecuteUbergraph_ABP_RewardDispenser__79&#45;&gt;ExecuteUbergraph_ABP_RewardDispenser__99 -->
<g id="edge11" class="edge">
<title>ExecuteUbergraph_ABP_RewardDispenser__79&#45;&gt;ExecuteUbergraph_ABP_RewardDispenser__99</title>
<path fill="none" stroke="black" d="M3402.45,-547.77C3403.13,-529.9 3404.05,-505.47 3404.84,-484.44"/>
<polygon fill="black" stroke="black" points="3408.33,-484.81 3405.21,-474.68 3401.34,-484.55 3408.33,-484.81"/>
</g>
<!-- ExecuteUbergraph_ABP_RewardDispenser__140 -->
<g id="node14" class="node">
<title>ExecuteUbergraph_ABP_RewardDispenser__140</title>
<polygon fill="#eeeeee" stroke="black" points="3301,-248.5 3301,-331.5 3978,-331.5 3978,-248.5 3301,-248.5"/>
<text text-anchor="start" x="3309" y="-316.3" font-family="monospace" font-size="14.00">EX_Context</text>
<text text-anchor="start" x="3309" y="-301.3" font-family="monospace" font-size="14.00">  EX_LocalVariable [CallFunc_GetOwningComponent_ReturnValue]</text>
<text text-anchor="start" x="3309" y="-286.3" font-family="monospace" font-size="14.00">  EX_FinalFunction import /Script/Engine&#45;&gt;SkinnedMeshComponent&#45;&gt;UnHideBoneByName</text>
<text text-anchor="start" x="3309" y="-271.3" font-family="monospace" font-size="14.00">    EX_LocalVariable [CallFunc_MakeLiteralName_ReturnValue]</text>
<text text-anchor="start" x="3309" y="-256.3" font-family="monospace" font-size="14.00">  RValue = []</text>
</g>
<!-- ExecuteUbergraph_ABP_RewardDispenser__99&#45;&gt;ExecuteUbergraph_ABP_RewardDispenser__140 -->
<g id="edge12" class="edge">
<title>ExecuteUbergraph_ABP_RewardDispenser__99&#45;&gt;ExecuteUbergraph_ABP_RewardDispenser__140</title>
<path fill="none" stroke="black" d="M3458.5,-405.58C3490.13,-385.56 3531.02,-359.67 3565.93,-337.57"/>
<polygon fill="black" stroke="black" points="3567.75,-340.56 3574.33,-332.26 3564.01,-334.65 3567.75,-340.56"/>
</g>
<!-- ExecuteUbergraph_ABP_RewardDispenser__181 -->
<g id="node15" class="node">
<title>ExecuteUbergraph_ABP_RewardDispenser__181</title>
<polygon fill="#eeeeee" stroke="black" points="3759,-76.5 3759,-112.5 3866,-112.5 3866,-76.5 3759,-76.5"/>
<text text-anchor="start" x="3767" y="-90.8" font-family="monospace" font-size="14.00">EX_Jump 290</text>
</g>
<!-- ExecuteUbergraph_ABP_RewardDispenser__140&#45;&gt;ExecuteUbergraph_ABP_RewardDispenser__181 -->
<g id="edge13" class="edge">
<title>ExecuteUbergraph_ABP_RewardDispenser__140&#45;&gt;ExecuteUbergraph_ABP_RewardDispenser__181</title>
<path fill="none" stroke="black" d="M3637.12,-248.57C3637.32,-212.98 3643.53,-162.13 3673.5,-131 3684.15,-119.93 3716.81,-111.29 3747.8,-105.3"/>
<polygon fill="black" stroke="black" points="3748.41,-108.75 3757.6,-103.49 3747.13,-101.87 3748.41,-108.75"/>
</g>
<!-- ExecuteUbergraph_ABP_RewardDispenser__181&#45;&gt;ExecuteUbergraph_ABP_RewardDispenser__290 -->
<g id="edge14" class="edge">
<title>ExecuteUbergraph_ABP_RewardDispenser__181&#45;&gt;ExecuteUbergraph_ABP_RewardDispenser__290</title>
<path fill="none" stroke="black" d="M3838.24,-76.57C3852.67,-67.08 3870.9,-55.09 3886.8,-44.63"/>
<polygon fill="black" stroke="black" points="3888.65,-47.61 3895.08,-39.19 3884.8,-41.76 3888.65,-47.61"/>
</g>
<!-- ExecuteUbergraph_ABP_RewardDispenser__206 -->
<g id="node17" class="node">
<title>ExecuteUbergraph_ABP_RewardDispenser__206</title>
<polygon fill="#eeeeee" stroke="black" points="3736,-405.5 3736,-473.5 4355,-473.5 4355,-405.5 3736,-405.5"/>
<text text-anchor="start" x="3744" y="-458.3" font-family="monospace" font-size="14.00">EX_Let</text>
<text text-anchor="start" x="3744" y="-443.3" font-family="monospace" font-size="14.00">  EX_LocalVariable [CallFunc_MakeLiteralName_ReturnValue]</text>
<text text-anchor="start" x="3744" y="-428.3" font-family="monospace" font-size="14.00">  EX_CallMath import /Script/Engine&#45;&gt;KismetSystemLibrary&#45;&gt;MakeLiteralName</text>
<text text-anchor="start" x="3744" y="-413.3" font-family="monospace" font-size="14.00">    EX_NameConst CoreSocket_MatrixCore</text>
</g>
<!-- ExecuteUbergraph_ABP_RewardDispenser__186&#45;&gt;ExecuteUbergraph_ABP_RewardDispenser__206 -->
<g id="edge15" class="edge">
<title>ExecuteUbergraph_ABP_RewardDispenser__186&#45;&gt;ExecuteUbergraph_ABP_RewardDispenser__206</title>
<path fill="none" stroke="black" d="M4046.31,-547.77C4046.17,-529.9 4045.99,-505.47 4045.83,-484.44"/>
<polygon fill="black" stroke="black" points="4049.33,-484.66 4045.76,-474.69 4042.33,-484.71 4049.33,-484.66"/>
</g>
<!-- ExecuteUbergraph_ABP_RewardDispenser__247 -->
<g id="node18" class="node">
<title>ExecuteUbergraph_ABP_RewardDispenser__247</title>
<polygon fill="#eeeeee" stroke="black" points="3682.5,-131.5 3682.5,-229.5 4342.5,-229.5 4342.5,-131.5 3682.5,-131.5"/>
<text text-anchor="start" x="3690.5" y="-214.3" font-family="monospace" font-size="14.00">EX_Context</text>
<text text-anchor="start" x="3690.5" y="-199.3" font-family="monospace" font-size="14.00">  EX_LocalVariable [CallFunc_GetOwningComponent_ReturnValue]</text>
<text text-anchor="start" x="3690.5" y="-184.3" font-family="monospace" font-size="14.00">  EX_FinalFunction import /Script/Engine&#45;&gt;SkinnedMeshComponent&#45;&gt;HideBoneByName</text>
<text text-anchor="start" x="3690.5" y="-169.3" font-family="monospace" font-size="14.00">    EX_LocalVariable [CallFunc_MakeLiteralName_ReturnValue]</text>
<text text-anchor="start" x="3690.5" y="-154.3" font-family="monospace" font-size="14.00">    EX_ByteConst 0</text>
<text text-anchor="start" x="3690.5" y="-139.3" font-family="monospace" font-size="14.00">  RValue = []</text>
</g>
<!-- ExecuteUbergraph_ABP_RewardDispenser__206&#45;&gt;ExecuteUbergraph_ABP_RewardDispenser__247 -->
<g id="edge16" class="edge">
<title>ExecuteUbergraph_ABP_RewardDispenser__206&#45;&gt;ExecuteUbergraph_ABP_RewardDispenser__247</title>
<path fill="none" stroke="black" d="M4041.29,-405.69C4035.96,-364.17 4026.68,-291.92 4020.1,-240.66"/>
<polygon fill="black" stroke="black" points="4023.59,-240.39 4018.85,-230.92 4016.65,-241.28 4023.59,-240.39"/>
</g>
<!-- ExecuteUbergraph_ABP_RewardDispenser__247&#45;&gt;ExecuteUbergraph_ABP_RewardDispenser__290 -->
<g id="edge17" class="edge">
<title>ExecuteUbergraph_ABP_RewardDispenser__247&#45;&gt;ExecuteUbergraph_ABP_RewardDispenser__290</title>
<path fill="none" stroke="black" d="M3985.8,-131.79C3970.52,-104.51 3951.9,-71.24 3939.01,-48.22"/>
<polygon fill="black" stroke="black" points="3942.21,-46.76 3934.27,-39.74 3936.1,-50.18 3942.21,-46.76"/>
</g>
<!-- ExecuteUbergraph_ABP_RewardDispenser__292 -->
<g id="node20" class="node">
<title>ExecuteUbergraph_ABP_RewardDispenser__292</title>
<polygon fill="#eeeeee" stroke="black" points="4314.5,-1000.5 4314.5,-1036.5 4446.5,-1036.5 4446.5,-1000.5 4314.5,-1000.5"/>
<text text-anchor="start" x="4322.5" y="-1014.8" font-family="monospace" font-size="14.00">EX_EndOfScript</text>
</g>
<!-- SetMatrixCoreVisible -->
<g id="node21" class="node">
<title>SetMatrixCoreVisible</title>
<polygon fill="#ff8888" stroke="black" points="3206.5,-1168 3206.5,-1221 3676.5,-1221 3676.5,-1168 3206.5,-1168"/>
<text text-anchor="start" x="3214.5" y="-1205.8" font-family="monospace" font-size="14.00">Function SetMatrixCoreVisible</text>
<text text-anchor="start" x="3214.5" y="-1190.8" font-family="monospace" font-size="14.00">  BoolProperty IsVisible</text>
<text text-anchor="start" x="3214.5" y="-1175.8" font-family="monospace" font-size="14.00">    CPF_BlueprintVisible|CPF_BlueprintReadOnly|CPF_Parm</text>
</g>
<!-- SetMatrixCoreVisible__0 -->
<g id="node22" class="node">
<title>SetMatrixCoreVisible__0</title>
<polygon fill="#eeeeee" stroke="black" points="3190,-921 3190,-959 3693,-959 3693,-921 3190,-921"/>
<text text-anchor="start" x="3198" y="-943.8" font-family="monospace" font-size="14.00">EX_LetValueOnPersistentFrame [K2Node_CustomEvent_IsVisible]</text>
<text text-anchor="start" x="3198" y="-928.8" font-family="monospace" font-size="14.00">  EX_LocalVariable [IsVisible]</text>
</g>
<!-- SetMatrixCoreVisible&#45;&gt;SetMatrixCoreVisible__0 -->
<g id="edge18" class="edge">
<title>SetMatrixCoreVisible&#45;&gt;SetMatrixCoreVisible__0</title>
<path fill="none" stroke="black" d="M3441.5,-1168.37C3441.5,-1121.23 3441.5,-1019.84 3441.5,-969.94"/>
<polygon fill="black" stroke="black" points="3445,-970.22 3441.5,-960.22 3438,-970.22 3445,-970.22"/>
</g>
<!-- SetMatrixCoreVisible__18 -->
<g id="node23" class="node">
<title>SetMatrixCoreVisible__18</title>
<polygon fill="#eeeeee" stroke="black" points="3070,-786.5 3070,-824.5 3813,-824.5 3813,-786.5 3070,-786.5"/>
<text text-anchor="start" x="3078" y="-809.3" font-family="monospace" font-size="14.00">EX_LocalFinalFunction export ABP_RewardDispenser_C&#45;&gt;ExecuteUbergraph_ABP_RewardDispenser</text>
<text text-anchor="start" x="3078" y="-794.3" font-family="monospace" font-size="14.00">  EX_IntConst 65</text>
</g>
<!-- SetMatrixCoreVisible__0&#45;&gt;SetMatrixCoreVisible__18 -->
<g id="edge19" class="edge">
<title>SetMatrixCoreVisible__0&#45;&gt;SetMatrixCoreVisible__18</title>
<path fill="none" stroke="black" d="M3441.5,-921.13C3441.5,-899.18 3441.5,-861.64 3441.5,-835.53"/>
<polygon fill="black" stroke="black" points="3445,-835.6 3441.5,-825.6 3438,-835.6 3445,-835.6"/>
</g>
<!-- SetMatrixCoreVisible__18&#45;&gt;ExecuteUbergraph_ABP_RewardDispenser__65 -->
<g id="edge20" class="edge">
<title>SetMatrixCoreVisible__18:e&#45;&gt;ExecuteUbergraph_ABP_RewardDispenser__65</title>
<path fill="none" stroke="red" d="M3814.5,-805.5C3847.57,-805.5 3835.86,-755.62 3824.54,-722.74"/>
<polygon fill="none" stroke="red" points="3827.98,-721.97 3821.29,-713.76 3821.4,-724.35 3827.98,-721.97"/>
</g>
<!-- SetMatrixCoreVisible__33 -->
<g id="node24" class="node">
<title>SetMatrixCoreVisible__33</title>
<polygon fill="#eeeeee" stroke="black" points="3383.5,-674.5 3383.5,-712.5 3499.5,-712.5 3499.5,-674.5 3383.5,-674.5"/>
<text text-anchor="start" x="3391.5" y="-697.3" font-family="monospace" font-size="14.00">EX_Return</text>
<text text-anchor="start" x="3391.5" y="-682.3" font-family="monospace" font-size="14.00">  EX_Nothing</text>
</g>
<!-- SetMatrixCoreVisible__18&#45;&gt;SetMatrixCoreVisible__33 -->
<g id="edge21" class="edge">
<title>SetMatrixCoreVisible__18&#45;&gt;SetMatrixCoreVisible__33</title>
<path fill="none" stroke="black" d="M3441.5,-786.83C3441.5,-769.85 3441.5,-743.88 3441.5,-723.81"/>
<polygon fill="black" stroke="black" points="3445,-724.01 3441.5,-714.01 3438,-724.01 3445,-724.01"/>
</g>
<!-- SetMatrixCoreVisible__35 -->
<g id="node25" class="node">
<title>SetMatrixCoreVisible__35</title>
<polygon fill="#eeeeee" stroke="black" points="4500.5,-843.5 4500.5,-879.5 4632.5,-879.5 4632.5,-843.5 4500.5,-843.5"/>
<text text-anchor="start" x="4508.5" y="-857.8" font-family="monospace" font-size="14.00">EX_EndOfScript</text>
</g>
<!-- OnRewardSelected -->
<g id="node26" class="node">
<title>OnRewardSelected</title>
<polygon fill="#ff8888" stroke="black" points="1928,-1176.5 1928,-1212.5 2151,-1212.5 2151,-1176.5 1928,-1176.5"/>
<text text-anchor="start" x="1936" y="-1190.8" font-family="monospace" font-size="14.00">Function OnRewardSelected</text>
</g>
<!-- OnRewardSelected__0 -->
<g id="node27" class="node">
<title>OnRewardSelected__0</title>
<polygon fill="#eeeeee" stroke="black" points="1668,-921 1668,-959 2411,-959 2411,-921 1668,-921"/>
<text text-anchor="start" x="1676" y="-943.8" font-family="monospace" font-size="14.00">EX_LocalFinalFunction export ABP_RewardDispenser_C&#45;&gt;ExecuteUbergraph_ABP_RewardDispenser</text>
<text text-anchor="start" x="1676" y="-928.8" font-family="monospace" font-size="14.00">  EX_IntConst 60</text>
</g>
<!-- OnRewardSelected&#45;&gt;OnRewardSelected__0 -->
<g id="edge22" class="edge">
<title>OnRewardSelected&#45;&gt;OnRewardSelected__0</title>
<path fill="none" stroke="black" d="M2039.5,-1176.54C2039.5,-1134.17 2039.5,-1023.31 2039.5,-970.19"/>
<polygon fill="black" stroke="black" points="2043,-970.4 2039.5,-960.4 2036,-970.4 2043,-970.4"/>
</g>
<!-- OnRewardSelected__0&#45;&gt;ExecuteUbergraph_ABP_RewardDispenser__60 -->
<g id="edge23" class="edge">
<title>OnRewardSelected__0:e&#45;&gt;ExecuteUbergraph_ABP_RewardDispenser__60</title>
<path fill="none" stroke="red" d="M2412.5,-940C2421.96,-940 2413.83,-905.58 2419.5,-898 2450.65,-856.39 2505.73,-832.74 2548.43,-819.96"/>
<polygon fill="none" stroke="red" points="2549.16,-823.39 2557.81,-817.28 2547.24,-816.66 2549.16,-823.39"/>
</g>
<!-- OnRewardSelected__15 -->
<g id="node28" class="node">
<title>OnRewardSelected__15</title>
<polygon fill="#eeeeee" stroke="black" points="1981.5,-786.5 1981.5,-824.5 2097.5,-824.5 2097.5,-786.5 1981.5,-786.5"/>
<text text-anchor="start" x="1989.5" y="-809.3" font-family="monospace" font-size="14.00">EX_Return</text>
<text text-anchor="start" x="1989.5" y="-794.3" font-family="monospace" font-size="14.00">  EX_Nothing</text>
</g>
<!-- OnRewardSelected__0&#45;&gt;OnRewardSelected__15 -->
<g id="edge24" class="edge">
<title>OnRewardSelected__0&#45;&gt;OnRewardSelected__15</title>
<path fill="none" stroke="black" d="M2039.5,-921.13C2039.5,-899.18 2039.5,-861.64 2039.5,-835.53"/>
<polygon fill="black" stroke="black" points="2043,-835.6 2039.5,-825.6 2036,-835.6 2043,-835.6"/>
</g>
<!-- OnRewardSelected__17 -->
<g id="node29" class="node">
<title>OnRewardSelected__17</title>
<polygon fill="#eeeeee" stroke="black" points="4418.5,-731.5 4418.5,-767.5 4550.5,-767.5 4550.5,-731.5 4418.5,-731.5"/>
<text text-anchor="start" x="4426.5" y="-745.8" font-family="monospace" font-size="14.00">EX_EndOfScript</text>
</g>
<!-- BlueprintInitializeAnimation -->
<g id="node30" class="node">
<title>BlueprintInitializeAnimation</title>
<polygon fill="#ff8888" stroke="black" points="1117.5,-1176.5 1117.5,-1212.5 1439.5,-1212.5 1439.5,-1176.5 1117.5,-1176.5"/>
<text text-anchor="start" x="1125.5" y="-1190.8" font-family="monospace" font-size="14.00">Function BlueprintInitializeAnimation</text>
</g>
<!-- BlueprintInitializeAnimation__0 -->
<g id="node31" class="node">
<title>BlueprintInitializeAnimation__0</title>
<polygon fill="#eeeeee" stroke="black" points="907,-921 907,-959 1650,-959 1650,-921 907,-921"/>
<text text-anchor="start" x="915" y="-943.8" font-family="monospace" font-size="14.00">EX_LocalFinalFunction export ABP_RewardDispenser_C&#45;&gt;ExecuteUbergraph_ABP_RewardDispenser</text>
<text text-anchor="start" x="915" y="-928.8" font-family="monospace" font-size="14.00">  EX_IntConst 55</text>
</g>
<!-- BlueprintInitializeAnimation&#45;&gt;BlueprintInitializeAnimation__0 -->
<g id="edge25" class="edge">
<title>BlueprintInitializeAnimation&#45;&gt;BlueprintInitializeAnimation__0</title>
<path fill="none" stroke="black" d="M1278.5,-1176.54C1278.5,-1134.17 1278.5,-1023.31 1278.5,-970.19"/>
<polygon fill="black" stroke="black" points="1282,-970.4 1278.5,-960.4 1275,-970.4 1282,-970.4"/>
</g>
<!-- BlueprintInitializeAnimation__0&#45;&gt;ExecuteUbergraph_ABP_RewardDispenser__55 -->
<g id="edge26" class="edge">
<title>BlueprintInitializeAnimation__0:e&#45;&gt;ExecuteUbergraph_ABP_RewardDispenser__55</title>
<path fill="none" stroke="red" d="M1651.5,-940C1660.96,-940 1653.55,-906.07 1658.5,-898 1676.92,-867.97 1709.2,-844.62 1736.2,-829.03"/>
<polygon fill="none" stroke="red" points="1737.9,-832.09 1744.93,-824.17 1734.49,-825.98 1737.9,-832.09"/>
</g>
<!-- BlueprintInitializeAnimation__15 -->
<g id="node32" class="node">
<title>BlueprintInitializeAnimation__15</title>
<polygon fill="#eeeeee" stroke="black" points="1220.5,-786.5 1220.5,-824.5 1336.5,-824.5 1336.5,-786.5 1220.5,-786.5"/>
<text text-anchor="start" x="1228.5" y="-809.3" font-family="monospace" font-size="14.00">EX_Return</text>
<text text-anchor="start" x="1228.5" y="-794.3" font-family="monospace" font-size="14.00">  EX_Nothing</text>
</g>
<!-- BlueprintInitializeAnimation__0&#45;&gt;BlueprintInitializeAnimation__15 -->
<g id="edge27" class="edge">
<title>BlueprintInitializeAnimation__0&#45;&gt;BlueprintInitializeAnimation__15</title>
<path fill="none" stroke="black" d="M1278.5,-921.13C1278.5,-899.18 1278.5,-861.64 1278.5,-835.53"/>
<polygon fill="black" stroke="black" points="1282,-835.6 1278.5,-825.6 1275,-835.6 1282,-835.6"/>
</g>
<!-- BlueprintInitializeAnimation__17 -->
<g id="node33" class="node">
<title>BlueprintInitializeAnimation__17</title>
<polygon fill="#eeeeee" stroke="black" points="4411.5,-619.5 4411.5,-655.5 4543.5,-655.5 4543.5,-619.5 4411.5,-619.5"/>
<text text-anchor="start" x="4419.5" y="-633.8" font-family="monospace" font-size="14.00">EX_EndOfScript</text>
</g>
<!-- AnimNotify_InsertingCore -->
<g id="node34" class="node">
<title>AnimNotify_InsertingCore</title>
<polygon fill="#ff8888" stroke="black" points="3938,-1176.5 3938,-1212.5 4227,-1212.5 4227,-1176.5 3938,-1176.5"/>
<text text-anchor="start" x="3946" y="-1190.8" font-family="monospace" font-size="14.00">Function AnimNotify_InsertingCore</text>
</g>
<!-- AnimNotify_InsertingCore__0 -->
<g id="node35" class="node">
<title>AnimNotify_InsertingCore__0</title>
<polygon fill="#eeeeee" stroke="black" points="3711,-921 3711,-959 4454,-959 4454,-921 3711,-921"/>
<text text-anchor="start" x="3719" y="-943.8" font-family="monospace" font-size="14.00">EX_LocalFinalFunction export ABP_RewardDispenser_C&#45;&gt;ExecuteUbergraph_ABP_RewardDispenser</text>
<text text-anchor="start" x="3719" y="-928.8" font-family="monospace" font-size="14.00">  EX_IntConst 50</text>
</g>
<!-- AnimNotify_InsertingCore&#45;&gt;AnimNotify_InsertingCore__0 -->
<g id="edge28" class="edge">
<title>AnimNotify_InsertingCore&#45;&gt;AnimNotify_InsertingCore__0</title>
<path fill="none" stroke="black" d="M4082.5,-1176.54C4082.5,-1134.17 4082.5,-1023.31 4082.5,-970.19"/>
<polygon fill="black" stroke="black" points="4086,-970.4 4082.5,-960.4 4079,-970.4 4086,-970.4"/>
</g>
<!-- AnimNotify_InsertingCore__0&#45;&gt;ExecuteUbergraph_ABP_RewardDispenser__50 -->
<g id="edge29" class="edge">
<title>AnimNotify_InsertingCore__0:e&#45;&gt;ExecuteUbergraph_ABP_RewardDispenser__50</title>
<path fill="none" stroke="red" d="M4455.5,-940C4465.98,-940 4456.73,-873.75 4450.35,-834.59"/>
<polygon fill="none" stroke="red" points="4453.83,-834.19 4448.74,-824.9 4446.93,-835.34 4453.83,-834.19"/>
</g>
<!-- AnimNotify_InsertingCore__15 -->
<g id="node36" class="node">
<title>AnimNotify_InsertingCore__15</title>
<polygon fill="#eeeeee" stroke="black" points="4024.5,-786.5 4024.5,-824.5 4140.5,-824.5 4140.5,-786.5 4024.5,-786.5"/>
<text text-anchor="start" x="4032.5" y="-809.3" font-family="monospace" font-size="14.00">EX_Return</text>
<text text-anchor="start" x="4032.5" y="-794.3" font-family="monospace" font-size="14.00">  EX_Nothing</text>
</g>
<!-- AnimNotify_InsertingCore__0&#45;&gt;AnimNotify_InsertingCore__15 -->
<g id="edge30" class="edge">
<title>AnimNotify_InsertingCore__0&#45;&gt;AnimNotify_InsertingCore__15</title>
<path fill="none" stroke="black" d="M4082.5,-921.13C4082.5,-899.18 4082.5,-861.64 4082.5,-835.53"/>
<polygon fill="black" stroke="black" points="4086,-835.6 4082.5,-825.6 4079,-835.6 4086,-835.6"/>
</g>
<!-- AnimNotify_InsertingCore__17 -->
<g id="node37" class="node">
<title>AnimNotify_InsertingCore__17</title>
<polygon fill="#eeeeee" stroke="black" points="4450.5,-492.5 4450.5,-528.5 4582.5,-528.5 4582.5,-492.5 4450.5,-492.5"/>
<text text-anchor="start" x="4458.5" y="-506.8" font-family="monospace" font-size="14.00">EX_EndOfScript</text>
</g>
<!-- BlueprintBeginPlay -->
<g id="node38" class="node">
<title>BlueprintBeginPlay</title>
<polygon fill="#ff8888" stroke="black" points="2681,-1176.5 2681,-1212.5 2920,-1212.5 2920,-1176.5 2681,-1176.5"/>
<text text-anchor="start" x="2689" y="-1190.8" font-family="monospace" font-size="14.00">Function BlueprintBeginPlay</text>
</g>
<!-- BlueprintBeginPlay__0 -->
<g id="node39" class="node">
<title>BlueprintBeginPlay__0</title>
<polygon fill="#eeeeee" stroke="black" points="2429,-921 2429,-959 3172,-959 3172,-921 2429,-921"/>
<text text-anchor="start" x="2437" y="-943.8" font-family="monospace" font-size="14.00">EX_LocalFinalFunction export ABP_RewardDispenser_C&#45;&gt;ExecuteUbergraph_ABP_RewardDispenser</text>
<text text-anchor="start" x="2437" y="-928.8" font-family="monospace" font-size="14.00">  EX_IntConst 30</text>
</g>
<!-- BlueprintBeginPlay&#45;&gt;BlueprintBeginPlay__0 -->
<g id="edge31" class="edge">
<title>BlueprintBeginPlay&#45;&gt;BlueprintBeginPlay__0</title>
<path fill="none" stroke="black" d="M2800.5,-1176.54C2800.5,-1134.17 2800.5,-1023.31 2800.5,-970.19"/>
<polygon fill="black" stroke="black" points="2804,-970.4 2800.5,-960.4 2797,-970.4 2804,-970.4"/>
</g>
<!-- BlueprintBeginPlay__0&#45;&gt;ExecuteUbergraph_ABP_RewardDispenser__30 -->
<g id="edge32" class="edge">
<title>BlueprintBeginPlay__0:e&#45;&gt;ExecuteUbergraph_ABP_RewardDispenser__30</title>
<path fill="none" stroke="red" d="M3173.5,-940C3182.18,-940 3176.34,-928.28 3172.5,-920.5 3143.58,-861.82 3096.02,-879.93 3060.5,-825 3040.3,-793.76 3030.56,-751.5 3026.07,-723.64"/>
<polygon fill="none" stroke="red" points="3029.54,-723.19 3024.62,-713.8 3022.62,-724.21 3029.54,-723.19"/>
</g>
<!-- BlueprintBeginPlay__15 -->
<g id="node40" class="node">
<title>BlueprintBeginPlay__15</title>
<polygon fill="#eeeeee" stroke="black" points="2742.5,-786.5 2742.5,-824.5 2858.5,-824.5 2858.5,-786.5 2742.5,-786.5"/>
<text text-anchor="start" x="2750.5" y="-809.3" font-family="monospace" font-size="14.00">EX_Return</text>
<text text-anchor="start" x="2750.5" y="-794.3" font-family="monospace" font-size="14.00">  EX_Nothing</text>
</g>
<!-- BlueprintBeginPlay__0&#45;&gt;BlueprintBeginPlay__15 -->
<g id="edge33" class="edge">
<title>BlueprintBeginPlay__0&#45;&gt;BlueprintBeginPlay__15</title>
<path fill="none" stroke="black" d="M2800.5,-921.13C2800.5,-899.18 2800.5,-861.64 2800.5,-835.53"/>
<polygon fill="black" stroke="black" points="2804,-835.6 2800.5,-825.6 2797,-835.6 2804,-835.6"/>
</g>
<!-- BlueprintBeginPlay__17 -->
<g id="node41" class="node">
<title>BlueprintBeginPlay__17</title>
<polygon fill="#eeeeee" stroke="black" points="4400.5,-350.5 4400.5,-386.5 4532.5,-386.5 4532.5,-350.5 4400.5,-350.5"/>
<text text-anchor="start" x="4408.5" y="-364.8" font-family="monospace" font-size="14.00">EX_EndOfScript</text>
</g>
<!-- AnimGraph -->
<g id="node42" class="node">
<title>AnimGraph</title>
<polygon fill="#ff8888" stroke="black" points="4563,-1168 4563,-1221 4794,-1221 4794,-1168 4563,-1168"/>
<text text-anchor="start" x="4571" y="-1205.8" font-family="monospace" font-size="14.00">Function AnimGraph</text>
<text text-anchor="start" x="4571" y="-1190.8" font-family="monospace" font-size="14.00">  StructProperty AnimGraph</text>
<text text-anchor="start" x="4571" y="-1175.8" font-family="monospace" font-size="14.00">    CPF_Parm|CPF_OutParm</text>
</g>
<!-- AnimGraph__0 -->
<g id="node43" class="node">
<title>AnimGraph__0</title>
<polygon fill="#eeeeee" stroke="black" points="4472,-898.5 4472,-981.5 4885,-981.5 4885,-898.5 4472,-898.5"/>
<text text-anchor="start" x="4480" y="-966.3" font-family="monospace" font-size="14.00">EX_Let</text>
<text text-anchor="start" x="4480" y="-951.3" font-family="monospace" font-size="14.00">  EX_LocalOutVariable</text>
<text text-anchor="start" x="4480" y="-936.3" font-family="monospace" font-size="14.00">    [AnimGraph]</text>
<text text-anchor="start" x="4480" y="-921.3" font-family="monospace" font-size="14.00">  EX_StructConst import /Script/Engine&#45;&gt;PoseLink</text>
<text text-anchor="start" x="4480" y="-906.3" font-family="monospace" font-size="14.00">    EX_IntConst &#45;1</text>
</g>
<!-- AnimGraph&#45;&gt;AnimGraph__0 -->
<g id="edge34" class="edge">
<title>AnimGraph&#45;&gt;AnimGraph__0</title>
<path fill="none" stroke="black" d="M4678.5,-1168.37C4678.5,-1127.58 4678.5,-1046.14 4678.5,-992.62"/>
<polygon fill="black" stroke="black" points="4682,-992.83 4678.5,-982.83 4675,-992.83 4682,-992.83"/>
</g>
<!-- AnimGraph__37 -->
<g id="node44" class="node">
<title>AnimGraph__37</title>
<polygon fill="#eeeeee" stroke="black" points="4620.5,-786.5 4620.5,-824.5 4736.5,-824.5 4736.5,-786.5 4620.5,-786.5"/>
<text text-anchor="start" x="4628.5" y="-809.3" font-family="monospace" font-size="14.00">EX_Return</text>
<text text-anchor="start" x="4628.5" y="-794.3" font-family="monospace" font-size="14.00">  EX_Nothing</text>
</g>
<!-- AnimGraph__0&#45;&gt;AnimGraph__37 -->
<g id="edge35" class="edge">
<title>AnimGraph__0&#45;&gt;AnimGraph__37</title>
<path fill="none" stroke="black" d="M4678.5,-898.53C4678.5,-878.27 4678.5,-854.21 4678.5,-835.77"/>
<polygon fill="black" stroke="black" points="4682,-835.8 4678.5,-825.8 4675,-835.8 4682,-835.8"/>
</g>
<!-- AnimGraph__39 -->
<g id="node45" class="node">
<title>AnimGraph__39</title>
<polygon fill="#eeeeee" stroke="black" points="4400.5,-162.5 4400.5,-198.5 4532.5,-198.5 4532.5,-162.5 4400.5,-162.5"/>
<text text-anchor="start" x="4408.5" y="-176.8" font-family="monospace" font-size="14.00">EX_EndOfScript</text>
</g>
</g>
</svg>
