<?xml version="1.0" encoding="UTF-8" standalone="no"?>
<!DOCTYPE svg PUBLIC "-//W3C//DTD SVG 1.1//EN"
 "http://www.w3.org/Graphics/SVG/1.1/DTD/svg11.dtd">
<!-- Generated by graphviz version 7.0.1 (0)
 -->
<!-- Pages: 1 -->
<svg width="4802pt" height="870pt"
 viewBox="0.00 0.00 4802.00 870.00" xmlns="http://www.w3.org/2000/svg" xmlns:xlink="http://www.w3.org/1999/xlink">
<g id="graph0" class="graph" transform="scale(1 1) rotate(0) translate(4 866)">
<polygon fill="white" stroke="none" points="-4,4 -4,-866 4798,-866 4798,4 -4,4"/>
<!-- BP_InflatablePretzel_C -->
<g id="node1" class="node">
<title>BP_InflatablePretzel_C</title>
<polygon fill="#88ff88" stroke="black" points="0,-658.5 0,-861.5 759,-861.5 759,-658.5 0,-658.5"/>
<text text-anchor="start" x="8" y="-846.3" font-family="monospace" font-size="14.00">ClassExport: BP_InflatablePretzel_C</text>
<text text-anchor="start" x="8" y="-831.3" font-family="monospace" font-size="14.00">  SuperStruct: import /Game/Art/Environments/SpaceRig/BP_Kickable_Base&#45;&gt;BP_Kickable_Base_C</text>
<text text-anchor="start" x="8" y="-816.3" font-family="monospace" font-size="14.00">  Properties:</text>
<text text-anchor="start" x="8" y="-801.3" font-family="monospace" font-size="14.00">    StructProperty UberGraphFrame</text>
<text text-anchor="start" x="8" y="-786.3" font-family="monospace" font-size="14.00">      CPF_Transient|CPF_DuplicateTransient</text>
<text text-anchor="start" x="8" y="-771.3" font-family="monospace" font-size="14.00">    ObjectProperty UsableCollision</text>
<text text-anchor="start" x="8" y="-756.3" font-family="monospace" font-size="14.00">      CPF_BlueprintVisible|CPF_InstancedReference|CPF_NonTransactional</text>
<text text-anchor="start" x="8" y="-741.3" font-family="monospace" font-size="14.00">    StructProperty Timeline_0_Scale_8D1DAE2E44C68148BBBEA09A6109BAED</text>
<text text-anchor="start" x="8" y="-726.3" font-family="monospace" font-size="14.00">    ByteProperty Timeline_0__Direction_8D1DAE2E44C68148BBBEA09A6109BAED</text>
<text text-anchor="start" x="8" y="-711.3" font-family="monospace" font-size="14.00">    ObjectProperty Timeline_0</text>
<text text-anchor="start" x="8" y="-696.3" font-family="monospace" font-size="14.00">      CPF_BlueprintVisible|CPF_InstancedReference</text>
<text text-anchor="start" x="8" y="-681.3" font-family="monospace" font-size="14.00">    StructProperty OriginalScale</text>
<text text-anchor="start" x="8" y="-666.3" font-family="monospace" font-size="14.00">      CPF_Edit|CPF_BlueprintVisible|CPF_DisableEditOnInstance</text>
</g>
<!-- ExecuteUbergraph_BP_InflatablePretzel -->
<g id="node2" class="node">
<title>ExecuteUbergraph_BP_InflatablePretzel</title>
<polygon fill="#ff8888" stroke="black" points="777,-703.5 777,-816.5 1280,-816.5 1280,-703.5 777,-703.5"/>
<text text-anchor="start" x="785" y="-801.3" font-family="monospace" font-size="14.00">Function ExecuteUbergraph_BP_InflatablePretzel</text>
<text text-anchor="start" x="785" y="-786.3" font-family="monospace" font-size="14.00">  IntProperty EntryPoint</text>
<text text-anchor="start" x="785" y="-771.3" font-family="monospace" font-size="14.00">    CPF_BlueprintVisible|CPF_BlueprintReadOnly|CPF_Parm</text>
<text text-anchor="start" x="785" y="-756.3" font-family="monospace" font-size="14.00">  ObjectProperty K2Node_ComponentBoundEvent_user</text>
<text text-anchor="start" x="785" y="-741.3" font-family="monospace" font-size="14.00">  EnumProperty K2Node_ComponentBoundEvent_key</text>
<text text-anchor="start" x="785" y="-726.3" font-family="monospace" font-size="14.00">  StructProperty CallFunc_GetActorScale3D_ReturnValue</text>
<text text-anchor="start" x="785" y="-711.3" font-family="monospace" font-size="14.00">  StructProperty CallFunc_Multiply_VectorVector_ReturnValue</text>
</g>
<!-- ExecuteUbergraph_BP_InflatablePretzel__0 -->
<g id="node3" class="node">
<title>ExecuteUbergraph_BP_InflatablePretzel__0</title>
<polygon fill="#eeeeee" stroke="black" points="892.5,-583.5 892.5,-621.5 1164.5,-621.5 1164.5,-583.5 892.5,-583.5"/>
<text text-anchor="start" x="900.5" y="-606.3" font-family="monospace" font-size="14.00">EX_ComputedJump</text>
<text text-anchor="start" x="900.5" y="-591.3" font-family="monospace" font-size="14.00">  EX_LocalVariable [EntryPoint]</text>
</g>
<!-- ExecuteUbergraph_BP_InflatablePretzel&#45;&gt;ExecuteUbergraph_BP_InflatablePretzel__0 -->
<g id="edge1" class="edge">
<title>ExecuteUbergraph_BP_InflatablePretzel&#45;&gt;ExecuteUbergraph_BP_InflatablePretzel__0</title>
<path fill="none" stroke="black" d="M1028.5,-703.74C1028.5,-679.74 1028.5,-652.61 1028.5,-632.63"/>
<polygon fill="black" stroke="black" points="1032,-632.72 1028.5,-622.72 1025,-632.72 1032,-632.72"/>
</g>
<!-- ExecuteUbergraph_BP_InflatablePretzel__10 -->
<g id="node4" class="node">
<title>ExecuteUbergraph_BP_InflatablePretzel__10</title>
<polygon fill="#eeeeee" stroke="black" points="3829,-367 3829,-403 4794,-403 4794,-367 3829,-367"/>
<text text-anchor="start" x="3837" y="-381.3" font-family="monospace" font-size="14.00">EX_LocalFinalFunction import /Game/Art/Environments/SpaceRig/BP_Kickable_Base&#45;&gt;BP_Kickable_Base_C&#45;&gt;ReceiveBeginPlay</text>
</g>
<!-- ExecuteUbergraph_BP_InflatablePretzel__20 -->
<g id="node5" class="node">
<title>ExecuteUbergraph_BP_InflatablePretzel__20</title>
<polygon fill="#eeeeee" stroke="black" points="3941,-253.5 3941,-306.5 4486,-306.5 4486,-253.5 3941,-253.5"/>
<text text-anchor="start" x="3949" y="-291.3" font-family="monospace" font-size="14.00">EX_Let</text>
<text text-anchor="start" x="3949" y="-276.3" font-family="monospace" font-size="14.00">  EX_LocalVariable [CallFunc_GetActorScale3D_ReturnValue]</text>
<text text-anchor="start" x="3949" y="-261.3" font-family="monospace" font-size="14.00">  EX_FinalFunction import /Script/Engine&#45;&gt;Actor&#45;&gt;GetActorScale3D</text>
</g>
<!-- ExecuteUbergraph_BP_InflatablePretzel__10&#45;&gt;ExecuteUbergraph_BP_InflatablePretzel__20 -->
<g id="edge2" class="edge">
<title>ExecuteUbergraph_BP_InflatablePretzel__10&#45;&gt;ExecuteUbergraph_BP_InflatablePretzel__20</title>
<path fill="none" stroke="black" d="M4295.75,-367.45C4282.15,-353.15 4262.06,-332.04 4245.15,-314.26"/>
<polygon fill="black" stroke="black" points="4248.1,-312.29 4238.68,-307.46 4243.03,-317.12 4248.1,-312.29"/>
</g>
<!-- ExecuteUbergraph_BP_InflatablePretzel__48 -->
<g id="node6" class="node">
<title>ExecuteUbergraph_BP_InflatablePretzel__48</title>
<polygon fill="#eeeeee" stroke="black" points="3943,-156 3943,-209 4430,-209 4430,-156 3943,-156"/>
<text text-anchor="start" x="3951" y="-193.8" font-family="monospace" font-size="14.00">EX_Let</text>
<text text-anchor="start" x="3951" y="-178.8" font-family="monospace" font-size="14.00">  EX_InstanceVariable [OriginalScale]</text>
<text text-anchor="start" x="3951" y="-163.8" font-family="monospace" font-size="14.00">  EX_LocalVariable [CallFunc_GetActorScale3D_ReturnValue]</text>
</g>
<!-- ExecuteUbergraph_BP_InflatablePretzel__20&#45;&gt;ExecuteUbergraph_BP_InflatablePretzel__48 -->
<g id="edge3" class="edge">
<title>ExecuteUbergraph_BP_InflatablePretzel__20&#45;&gt;ExecuteUbergraph_BP_InflatablePretzel__48</title>
<path fill="none" stroke="black" d="M4206.34,-253.66C4203.41,-243.3 4199.96,-231.12 4196.77,-219.84"/>
<polygon fill="black" stroke="black" points="4200.2,-219.09 4194.11,-210.42 4193.46,-220.99 4200.2,-219.09"/>
</g>
<!-- ExecuteUbergraph_BP_InflatablePretzel__75 -->
<g id="node7" class="node">
<title>ExecuteUbergraph_BP_InflatablePretzel__75</title>
<polygon fill="#eeeeee" stroke="black" points="3880,-75.5 3880,-111.5 3987,-111.5 3987,-75.5 3880,-75.5"/>
<text text-anchor="start" x="3888" y="-89.8" font-family="monospace" font-size="14.00">EX_Jump 224</text>
</g>
<!-- ExecuteUbergraph_BP_InflatablePretzel__48&#45;&gt;ExecuteUbergraph_BP_InflatablePretzel__75 -->
<g id="edge4" class="edge">
<title>ExecuteUbergraph_BP_InflatablePretzel__48&#45;&gt;ExecuteUbergraph_BP_InflatablePretzel__75</title>
<path fill="none" stroke="black" d="M4112.64,-156.1C4074.71,-143.06 4029.08,-127.37 3993.37,-115.09"/>
<polygon fill="black" stroke="black" points="3994.65,-111.83 3984.06,-111.89 3992.38,-118.45 3994.65,-111.83"/>
</g>
<!-- ExecuteUbergraph_BP_InflatablePretzel__224 -->
<g id="node16" class="node">
<title>ExecuteUbergraph_BP_InflatablePretzel__224</title>
<polygon fill="#eeeeee" stroke="black" points="3163.5,-0.5 3163.5,-38.5 3279.5,-38.5 3279.5,-0.5 3163.5,-0.5"/>
<text text-anchor="start" x="3171.5" y="-23.3" font-family="monospace" font-size="14.00">EX_Return</text>
<text text-anchor="start" x="3171.5" y="-8.3" font-family="monospace" font-size="14.00">  EX_Nothing</text>
</g>
<!-- ExecuteUbergraph_BP_InflatablePretzel__75&#45;&gt;ExecuteUbergraph_BP_InflatablePretzel__224 -->
<g id="edge5" class="edge">
<title>ExecuteUbergraph_BP_InflatablePretzel__75&#45;&gt;ExecuteUbergraph_BP_InflatablePretzel__224</title>
<path fill="none" stroke="black" d="M3880.4,-91.44C3771.41,-88.55 3514.59,-78.03 3290.76,-39.21"/>
<polygon fill="black" stroke="black" points="3291.4,-35.76 3280.94,-37.48 3290.18,-42.66 3291.4,-35.76"/>
</g>
<!-- ExecuteUbergraph_BP_InflatablePretzel__80 -->
<g id="node8" class="node">
<title>ExecuteUbergraph_BP_InflatablePretzel__80</title>
<polygon fill="#eeeeee" stroke="black" points="2091,-367 2091,-403 2198,-403 2198,-367 2091,-367"/>
<text text-anchor="start" x="2099" y="-381.3" font-family="monospace" font-size="14.00">EX_Jump 224</text>
</g>
<!-- ExecuteUbergraph_BP_InflatablePretzel__80&#45;&gt;ExecuteUbergraph_BP_InflatablePretzel__224 -->
<g id="edge6" class="edge">
<title>ExecuteUbergraph_BP_InflatablePretzel__80&#45;&gt;ExecuteUbergraph_BP_InflatablePretzel__224</title>
<path fill="none" stroke="black" d="M2189.84,-367.15C2319.86,-319.04 2705.53,-177.94 3030.5,-75 3070.72,-62.26 3116.12,-49.25 3152.56,-39.14"/>
<polygon fill="black" stroke="black" points="3153.4,-42.54 3162.11,-36.5 3151.54,-35.79 3153.4,-42.54"/>
</g>
<!-- ExecuteUbergraph_BP_InflatablePretzel__85 -->
<g id="node9" class="node">
<title>ExecuteUbergraph_BP_InflatablePretzel__85</title>
<polygon fill="#eeeeee" stroke="black" points="2393.5,-463.5 2393.5,-546.5 3045.5,-546.5 3045.5,-463.5 2393.5,-463.5"/>
<text text-anchor="start" x="2401.5" y="-531.3" font-family="monospace" font-size="14.00">EX_Let</text>
<text text-anchor="start" x="2401.5" y="-516.3" font-family="monospace" font-size="14.00">  EX_LocalVariable [CallFunc_Multiply_VectorVector_ReturnValue]</text>
<text text-anchor="start" x="2401.5" y="-501.3" font-family="monospace" font-size="14.00">  EX_CallMath import /Script/Engine&#45;&gt;KismetMathLibrary&#45;&gt;Multiply_VectorVector</text>
<text text-anchor="start" x="2401.5" y="-486.3" font-family="monospace" font-size="14.00">    EX_InstanceVariable [OriginalScale]</text>
<text text-anchor="start" x="2401.5" y="-471.3" font-family="monospace" font-size="14.00">    EX_InstanceVariable [Timeline_0_Scale_8D1DAE2E44C68148BBBEA09A6109BAED]</text>
</g>
<!-- ExecuteUbergraph_BP_InflatablePretzel__131 -->
<g id="node10" class="node">
<title>ExecuteUbergraph_BP_InflatablePretzel__131</title>
<polygon fill="#eeeeee" stroke="black" points="2349.5,-343.5 2349.5,-426.5 2993.5,-426.5 2993.5,-343.5 2349.5,-343.5"/>
<text text-anchor="start" x="2357.5" y="-411.3" font-family="monospace" font-size="14.00">EX_Context</text>
<text text-anchor="start" x="2357.5" y="-396.3" font-family="monospace" font-size="14.00">  EX_InstanceVariable [Kickable Mesh]</text>
<text text-anchor="start" x="2357.5" y="-381.3" font-family="monospace" font-size="14.00">  EX_FinalFunction import /Script/Engine&#45;&gt;SceneComponent&#45;&gt;SetRelativeScale3D</text>
<text text-anchor="start" x="2357.5" y="-366.3" font-family="monospace" font-size="14.00">    EX_LocalVariable [CallFunc_Multiply_VectorVector_ReturnValue]</text>
<text text-anchor="start" x="2357.5" y="-351.3" font-family="monospace" font-size="14.00">  RValue = []</text>
</g>
<!-- ExecuteUbergraph_BP_InflatablePretzel__85&#45;&gt;ExecuteUbergraph_BP_InflatablePretzel__131 -->
<g id="edge7" class="edge">
<title>ExecuteUbergraph_BP_InflatablePretzel__85&#45;&gt;ExecuteUbergraph_BP_InflatablePretzel__131</title>
<path fill="none" stroke="black" d="M2703.12,-463.72C2699.64,-455.18 2695.93,-446.05 2692.31,-437.16"/>
<polygon fill="black" stroke="black" points="2695.55,-435.84 2688.54,-427.9 2689.07,-438.48 2695.55,-435.84"/>
</g>
<!-- ExecuteUbergraph_BP_InflatablePretzel__172 -->
<g id="node11" class="node">
<title>ExecuteUbergraph_BP_InflatablePretzel__172</title>
<polygon fill="#eeeeee" stroke="black" points="2833,-164.5 2833,-200.5 2940,-200.5 2940,-164.5 2833,-164.5"/>
<text text-anchor="start" x="2841" y="-178.8" font-family="monospace" font-size="14.00">EX_Jump 224</text>
</g>
<!-- ExecuteUbergraph_BP_InflatablePretzel__131&#45;&gt;ExecuteUbergraph_BP_InflatablePretzel__172 -->
<g id="edge8" class="edge">
<title>ExecuteUbergraph_BP_InflatablePretzel__131&#45;&gt;ExecuteUbergraph_BP_InflatablePretzel__172</title>
<path fill="none" stroke="black" d="M2714.75,-343.67C2758.34,-303.01 2824.2,-241.6 2860.39,-207.85"/>
<polygon fill="black" stroke="black" points="2862.46,-210.7 2867.39,-201.32 2857.69,-205.59 2862.46,-210.7"/>
</g>
<!-- ExecuteUbergraph_BP_InflatablePretzel__172&#45;&gt;ExecuteUbergraph_BP_InflatablePretzel__224 -->
<g id="edge9" class="edge">
<title>ExecuteUbergraph_BP_InflatablePretzel__172&#45;&gt;ExecuteUbergraph_BP_InflatablePretzel__224</title>
<path fill="none" stroke="black" d="M2921.72,-164.57C2982.28,-135.47 3106.17,-75.93 3174.19,-43.24"/>
<polygon fill="black" stroke="black" points="3175.35,-46.56 3182.85,-39.08 3172.32,-40.25 3175.35,-46.56"/>
</g>
<!-- ExecuteUbergraph_BP_InflatablePretzel__177 -->
<g id="node12" class="node">
<title>ExecuteUbergraph_BP_InflatablePretzel__177</title>
<polygon fill="#eeeeee" stroke="black" points="3244,-148.5 3244,-216.5 3871,-216.5 3871,-148.5 3244,-148.5"/>
<text text-anchor="start" x="3252" y="-201.3" font-family="monospace" font-size="14.00">EX_Context</text>
<text text-anchor="start" x="3252" y="-186.3" font-family="monospace" font-size="14.00">  EX_InstanceVariable [Timeline_0]</text>
<text text-anchor="start" x="3252" y="-171.3" font-family="monospace" font-size="14.00">  EX_FinalFunction import /Script/Engine&#45;&gt;TimelineComponent&#45;&gt;PlayFromStart</text>
<text text-anchor="start" x="3252" y="-156.3" font-family="monospace" font-size="14.00">  RValue = []</text>
</g>
<!-- ExecuteUbergraph_BP_InflatablePretzel__209 -->
<g id="node13" class="node">
<title>ExecuteUbergraph_BP_InflatablePretzel__209</title>
<polygon fill="#eeeeee" stroke="black" points="3356,-75.5 3356,-111.5 3463,-111.5 3463,-75.5 3356,-75.5"/>
<text text-anchor="start" x="3364" y="-89.8" font-family="monospace" font-size="14.00">EX_Jump 224</text>
</g>
<!-- ExecuteUbergraph_BP_InflatablePretzel__177&#45;&gt;ExecuteUbergraph_BP_InflatablePretzel__209 -->
<g id="edge10" class="edge">
<title>ExecuteUbergraph_BP_InflatablePretzel__177&#45;&gt;ExecuteUbergraph_BP_InflatablePretzel__209</title>
<path fill="none" stroke="black" d="M3501.55,-148.61C3483.65,-138.09 3464.26,-126.69 3447.9,-117.08"/>
<polygon fill="black" stroke="black" points="3449.86,-114.16 3439.46,-112.11 3446.31,-120.2 3449.86,-114.16"/>
</g>
<!-- ExecuteUbergraph_BP_InflatablePretzel__209&#45;&gt;ExecuteUbergraph_BP_InflatablePretzel__224 -->
<g id="edge11" class="edge">
<title>ExecuteUbergraph_BP_InflatablePretzel__209&#45;&gt;ExecuteUbergraph_BP_InflatablePretzel__224</title>
<path fill="none" stroke="black" d="M3365.42,-75.62C3339.54,-65.7 3306.53,-53.07 3278.66,-42.39"/>
<polygon fill="black" stroke="black" points="3280.26,-39.26 3269.67,-38.95 3277.76,-45.79 3280.26,-39.26"/>
</g>
<!-- ExecuteUbergraph_BP_InflatablePretzel__214 -->
<g id="node14" class="node">
<title>ExecuteUbergraph_BP_InflatablePretzel__214</title>
<polygon fill="#eeeeee" stroke="black" points="3575,-262 3575,-298 3682,-298 3682,-262 3575,-262"/>
<text text-anchor="start" x="3583" y="-276.3" font-family="monospace" font-size="14.00">EX_Jump 177</text>
</g>
<!-- ExecuteUbergraph_BP_InflatablePretzel__214&#45;&gt;ExecuteUbergraph_BP_InflatablePretzel__177 -->
<g id="edge12" class="edge">
<title>ExecuteUbergraph_BP_InflatablePretzel__214&#45;&gt;ExecuteUbergraph_BP_InflatablePretzel__177</title>
<path fill="none" stroke="black" d="M3616.13,-262.37C3608.45,-252.03 3598.21,-238.25 3588.43,-225.11"/>
<polygon fill="black" stroke="black" points="3591.46,-223.31 3582.68,-217.37 3585.84,-227.48 3591.46,-223.31"/>
</g>
<!-- ExecuteUbergraph_BP_InflatablePretzel__219 -->
<g id="node15" class="node">
<title>ExecuteUbergraph_BP_InflatablePretzel__219</title>
<polygon fill="#eeeeee" stroke="black" points="4272,-487 4272,-523 4371,-523 4371,-487 4272,-487"/>
<text text-anchor="start" x="4280" y="-501.3" font-family="monospace" font-size="14.00">EX_Jump 10</text>
</g>
<!-- ExecuteUbergraph_BP_InflatablePretzel__219&#45;&gt;ExecuteUbergraph_BP_InflatablePretzel__10 -->
<g id="edge13" class="edge">
<title>ExecuteUbergraph_BP_InflatablePretzel__219&#45;&gt;ExecuteUbergraph_BP_InflatablePretzel__10</title>
<path fill="none" stroke="black" d="M4320.07,-487.09C4318.46,-468.08 4315.81,-436.89 4313.89,-414.18"/>
<polygon fill="black" stroke="black" points="4317.39,-414.05 4313.06,-404.38 4310.41,-414.64 4317.39,-414.05"/>
</g>
<!-- ExecuteUbergraph_BP_InflatablePretzel__226 -->
<g id="node17" class="node">
<title>ExecuteUbergraph_BP_InflatablePretzel__226</title>
<polygon fill="#eeeeee" stroke="black" points="3297.5,-1.5 3297.5,-37.5 3429.5,-37.5 3429.5,-1.5 3297.5,-1.5"/>
<text text-anchor="start" x="3305.5" y="-15.8" font-family="monospace" font-size="14.00">EX_EndOfScript</text>
</g>
<!-- ReceiveBeginPlay -->
<g id="node18" class="node">
<title>ReceiveBeginPlay</title>
<polygon fill="#ff8888" stroke="black" points="3911,-742 3911,-778 4134,-778 4134,-742 3911,-742"/>
<text text-anchor="start" x="3919" y="-756.3" font-family="monospace" font-size="14.00">Function ReceiveBeginPlay</text>
</g>
<!-- ReceiveBeginPlay__0 -->
<g id="node19" class="node">
<title>ReceiveBeginPlay__0</title>
<polygon fill="#eeeeee" stroke="black" points="3643,-583.5 3643,-621.5 4402,-621.5 4402,-583.5 3643,-583.5"/>
<text text-anchor="start" x="3651" y="-606.3" font-family="monospace" font-size="14.00">EX_LocalFinalFunction export BP_InflatablePretzel_C&#45;&gt;ExecuteUbergraph_BP_InflatablePretzel</text>
<text text-anchor="start" x="3651" y="-591.3" font-family="monospace" font-size="14.00">  EX_IntConst 219</text>
</g>
<!-- ReceiveBeginPlay&#45;&gt;ReceiveBeginPlay__0 -->
<g id="edge14" class="edge">
<title>ReceiveBeginPlay&#45;&gt;ReceiveBeginPlay__0</title>
<path fill="none" stroke="black" d="M4022.5,-742.06C4022.5,-715.82 4022.5,-665 4022.5,-632.74"/>
<polygon fill="black" stroke="black" points="4026,-632.88 4022.5,-622.88 4019,-632.88 4026,-632.88"/>
</g>
<!-- ReceiveBeginPlay__0&#45;&gt;ExecuteUbergraph_BP_InflatablePretzel__219 -->
<g id="edge15" class="edge">
<title>ReceiveBeginPlay__0:e&#45;&gt;ExecuteUbergraph_BP_InflatablePretzel__219</title>
<path fill="none" stroke="red" d="M4403.5,-602.5C4441.6,-602.5 4390.53,-558.27 4353.56,-529.7"/>
<polygon fill="none" stroke="red" points="4355.81,-527.01 4345.74,-523.73 4351.56,-532.58 4355.81,-527.01"/>
</g>
<!-- ReceiveBeginPlay__15 -->
<g id="node20" class="node">
<title>ReceiveBeginPlay__15</title>
<polygon fill="#eeeeee" stroke="black" points="3964.5,-486 3964.5,-524 4080.5,-524 4080.5,-486 3964.5,-486"/>
<text text-anchor="start" x="3972.5" y="-508.8" font-family="monospace" font-size="14.00">EX_Return</text>
<text text-anchor="start" x="3972.5" y="-493.8" font-family="monospace" font-size="14.00">  EX_Nothing</text>
</g>
<!-- ReceiveBeginPlay__0&#45;&gt;ReceiveBeginPlay__15 -->
<g id="edge16" class="edge">
<title>ReceiveBeginPlay__0&#45;&gt;ReceiveBeginPlay__15</title>
<path fill="none" stroke="black" d="M4022.5,-583.54C4022.5,-569.93 4022.5,-550.95 4022.5,-535.18"/>
<polygon fill="black" stroke="black" points="4026,-535.4 4022.5,-525.4 4019,-535.4 4026,-535.4"/>
</g>
<!-- ReceiveBeginPlay__17 -->
<g id="node21" class="node">
<title>ReceiveBeginPlay__17</title>
<polygon fill="#eeeeee" stroke="black" points="4448.5,-164.5 4448.5,-200.5 4580.5,-200.5 4580.5,-164.5 4448.5,-164.5"/>
<text text-anchor="start" x="4456.5" y="-178.8" font-family="monospace" font-size="14.00">EX_EndOfScript</text>
</g>
<!-- BndEvt__BP_InflatablePretzel_InstantUsable_K2Node_ComponentBoundEvent_0_UsedBySignature__DelegateSignature -->
<g id="node22" class="node">
<title>BndEvt__BP_InflatablePretzel_InstantUsable_K2Node_ComponentBoundEvent_0_UsedBySignature__DelegateSignature</title>
<polygon fill="#ff8888" stroke="black" points="2878,-718.5 2878,-801.5 3843,-801.5 3843,-718.5 2878,-718.5"/>
<text text-anchor="start" x="2886" y="-786.3" font-family="monospace" font-size="14.00">Function BndEvt__BP_InflatablePretzel_InstantUsable_K2Node_ComponentBoundEvent_0_UsedBySignature__DelegateSignature</text>
<text text-anchor="start" x="2886" y="-771.3" font-family="monospace" font-size="14.00">  ObjectProperty user</text>
<text text-anchor="start" x="2886" y="-756.3" font-family="monospace" font-size="14.00">    CPF_BlueprintVisible|CPF_BlueprintReadOnly|CPF_Parm</text>
<text text-anchor="start" x="2886" y="-741.3" font-family="monospace" font-size="14.00">  EnumProperty key</text>
<text text-anchor="start" x="2886" y="-726.3" font-family="monospace" font-size="14.00">    CPF_BlueprintVisible|CPF_BlueprintReadOnly|CPF_Parm</text>
</g>
<!-- BndEvt__BP_InflatablePretzel_InstantUsable_K2Node_ComponentBoundEvent_0_UsedBySignature__DelegateSignature__0 -->
<g id="node23" class="node">
<title>BndEvt__BP_InflatablePretzel_InstantUsable_K2Node_ComponentBoundEvent_0_UsedBySignature__DelegateSignature__0</title>
<polygon fill="#eeeeee" stroke="black" points="3096.5,-583.5 3096.5,-621.5 3624.5,-621.5 3624.5,-583.5 3096.5,-583.5"/>
<text text-anchor="start" x="3104.5" y="-606.3" font-family="monospace" font-size="14.00">EX_LetValueOnPersistentFrame [K2Node_ComponentBoundEvent_user]</text>
<text text-anchor="start" x="3104.5" y="-591.3" font-family="monospace" font-size="14.00">  EX_LocalVariable [user]</text>
</g>
<!-- BndEvt__BP_InflatablePretzel_InstantUsable_K2Node_ComponentBoundEvent_0_UsedBySignature__DelegateSignature&#45;&gt;BndEvt__BP_InflatablePretzel_InstantUsable_K2Node_ComponentBoundEvent_0_UsedBySignature__DelegateSignature__0 -->
<g id="edge17" class="edge">
<title>BndEvt__BP_InflatablePretzel_InstantUsable_K2Node_ComponentBoundEvent_0_UsedBySignature__DelegateSignature&#45;&gt;BndEvt__BP_InflatablePretzel_InstantUsable_K2Node_ComponentBoundEvent_0_UsedBySignature__DelegateSignature__0</title>
<path fill="none" stroke="black" d="M3360.5,-718.55C3360.5,-691.61 3360.5,-656.83 3360.5,-632.6"/>
<polygon fill="black" stroke="black" points="3364,-632.82 3360.5,-622.82 3357,-632.82 3364,-632.82"/>
</g>
<!-- BndEvt__BP_InflatablePretzel_InstantUsable_K2Node_ComponentBoundEvent_0_UsedBySignature__DelegateSignature__18 -->
<g id="node24" class="node">
<title>BndEvt__BP_InflatablePretzel_InstantUsable_K2Node_ComponentBoundEvent_0_UsedBySignature__DelegateSignature__18</title>
<polygon fill="#eeeeee" stroke="black" points="3111.5,-486 3111.5,-524 3631.5,-524 3631.5,-486 3111.5,-486"/>
<text text-anchor="start" x="3119.5" y="-508.8" font-family="monospace" font-size="14.00">EX_LetValueOnPersistentFrame [K2Node_ComponentBoundEvent_key]</text>
<text text-anchor="start" x="3119.5" y="-493.8" font-family="monospace" font-size="14.00">  EX_LocalVariable [key]</text>
</g>
<!-- BndEvt__BP_InflatablePretzel_InstantUsable_K2Node_ComponentBoundEvent_0_UsedBySignature__DelegateSignature__0&#45;&gt;BndEvt__BP_InflatablePretzel_InstantUsable_K2Node_ComponentBoundEvent_0_UsedBySignature__DelegateSignature__18 -->
<g id="edge18" class="edge">
<title>BndEvt__BP_InflatablePretzel_InstantUsable_K2Node_ComponentBoundEvent_0_UsedBySignature__DelegateSignature__0&#45;&gt;BndEvt__BP_InflatablePretzel_InstantUsable_K2Node_ComponentBoundEvent_0_UsedBySignature__DelegateSignature__18</title>
<path fill="none" stroke="black" d="M3362.57,-583.54C3364.14,-569.93 3366.32,-550.95 3368.14,-535.18"/>
<polygon fill="black" stroke="black" points="3371.6,-535.72 3369.27,-525.39 3364.65,-534.92 3371.6,-535.72"/>
</g>
<!-- BndEvt__BP_InflatablePretzel_InstantUsable_K2Node_ComponentBoundEvent_0_UsedBySignature__DelegateSignature__36 -->
<g id="node25" class="node">
<title>BndEvt__BP_InflatablePretzel_InstantUsable_K2Node_ComponentBoundEvent_0_UsedBySignature__DelegateSignature__36</title>
<polygon fill="#eeeeee" stroke="black" points="3012,-366 3012,-404 3771,-404 3771,-366 3012,-366"/>
<text text-anchor="start" x="3020" y="-388.8" font-family="monospace" font-size="14.00">EX_LocalFinalFunction export BP_InflatablePretzel_C&#45;&gt;ExecuteUbergraph_BP_InflatablePretzel</text>
<text text-anchor="start" x="3020" y="-373.8" font-family="monospace" font-size="14.00">  EX_IntConst 214</text>
</g>
<!-- BndEvt__BP_InflatablePretzel_InstantUsable_K2Node_ComponentBoundEvent_0_UsedBySignature__DelegateSignature__18&#45;&gt;BndEvt__BP_InflatablePretzel_InstantUsable_K2Node_ComponentBoundEvent_0_UsedBySignature__DelegateSignature__36 -->
<g id="edge19" class="edge">
<title>BndEvt__BP_InflatablePretzel_InstantUsable_K2Node_ComponentBoundEvent_0_UsedBySignature__DelegateSignature__18&#45;&gt;BndEvt__BP_InflatablePretzel_InstantUsable_K2Node_ComponentBoundEvent_0_UsedBySignature__DelegateSignature__36</title>
<path fill="none" stroke="black" d="M3374.54,-486.08C3377.74,-467.17 3382.84,-437.08 3386.61,-414.83"/>
<polygon fill="black" stroke="black" points="3390.03,-415.64 3388.25,-405.2 3383.12,-414.47 3390.03,-415.64"/>
</g>
<!-- BndEvt__BP_InflatablePretzel_InstantUsable_K2Node_ComponentBoundEvent_0_UsedBySignature__DelegateSignature__36&#45;&gt;ExecuteUbergraph_BP_InflatablePretzel__214 -->
<g id="edge20" class="edge">
<title>BndEvt__BP_InflatablePretzel_InstantUsable_K2Node_ComponentBoundEvent_0_UsedBySignature__DelegateSignature__36:e&#45;&gt;ExecuteUbergraph_BP_InflatablePretzel__214</title>
<path fill="none" stroke="red" d="M3772.5,-385C3828.03,-385 3734.18,-333.54 3673.63,-303.01"/>
<polygon fill="none" stroke="red" points="3675.36,-299.96 3664.85,-298.62 3672.22,-306.22 3675.36,-299.96"/>
</g>
<!-- BndEvt__BP_InflatablePretzel_InstantUsable_K2Node_ComponentBoundEvent_0_UsedBySignature__DelegateSignature__51 -->
<g id="node26" class="node">
<title>BndEvt__BP_InflatablePretzel_InstantUsable_K2Node_ComponentBoundEvent_0_UsedBySignature__DelegateSignature__51</title>
<polygon fill="#eeeeee" stroke="black" points="3333.5,-261 3333.5,-299 3449.5,-299 3449.5,-261 3333.5,-261"/>
<text text-anchor="start" x="3341.5" y="-283.8" font-family="monospace" font-size="14.00">EX_Return</text>
<text text-anchor="start" x="3341.5" y="-268.8" font-family="monospace" font-size="14.00">  EX_Nothing</text>
</g>
<!-- BndEvt__BP_InflatablePretzel_InstantUsable_K2Node_ComponentBoundEvent_0_UsedBySignature__DelegateSignature__36&#45;&gt;BndEvt__BP_InflatablePretzel_InstantUsable_K2Node_ComponentBoundEvent_0_UsedBySignature__DelegateSignature__51 -->
<g id="edge21" class="edge">
<title>BndEvt__BP_InflatablePretzel_InstantUsable_K2Node_ComponentBoundEvent_0_UsedBySignature__DelegateSignature__36&#45;&gt;BndEvt__BP_InflatablePretzel_InstantUsable_K2Node_ComponentBoundEvent_0_UsedBySignature__DelegateSignature__51</title>
<path fill="none" stroke="black" d="M3391.5,-366.06C3391.5,-350.62 3391.5,-328.07 3391.5,-310.06"/>
<polygon fill="black" stroke="black" points="3395,-310.25 3391.5,-300.25 3388,-310.25 3395,-310.25"/>
</g>
<!-- BndEvt__BP_InflatablePretzel_InstantUsable_K2Node_ComponentBoundEvent_0_UsedBySignature__DelegateSignature__53 -->
<g id="node27" class="node">
<title>BndEvt__BP_InflatablePretzel_InstantUsable_K2Node_ComponentBoundEvent_0_UsedBySignature__DelegateSignature__53</title>
<polygon fill="#eeeeee" stroke="black" points="4005.5,-75.5 4005.5,-111.5 4137.5,-111.5 4137.5,-75.5 4005.5,-75.5"/>
<text text-anchor="start" x="4013.5" y="-89.8" font-family="monospace" font-size="14.00">EX_EndOfScript</text>
</g>
<!-- Timeline_0__UpdateFunc -->
<g id="node28" class="node">
<title>Timeline_0__UpdateFunc</title>
<polygon fill="#ff8888" stroke="black" points="2203.5,-742 2203.5,-778 2475.5,-778 2475.5,-742 2203.5,-742"/>
<text text-anchor="start" x="2211.5" y="-756.3" font-family="monospace" font-size="14.00">Function Timeline_0__UpdateFunc</text>
</g>
<!-- Timeline_0__UpdateFunc__0 -->
<g id="node29" class="node">
<title>Timeline_0__UpdateFunc__0</title>
<polygon fill="#eeeeee" stroke="black" points="1960,-583.5 1960,-621.5 2719,-621.5 2719,-583.5 1960,-583.5"/>
<text text-anchor="start" x="1968" y="-606.3" font-family="monospace" font-size="14.00">EX_LocalFinalFunction export BP_InflatablePretzel_C&#45;&gt;ExecuteUbergraph_BP_InflatablePretzel</text>
<text text-anchor="start" x="1968" y="-591.3" font-family="monospace" font-size="14.00">  EX_IntConst 85</text>
</g>
<!-- Timeline_0__UpdateFunc&#45;&gt;Timeline_0__UpdateFunc__0 -->
<g id="edge22" class="edge">
<title>Timeline_0__UpdateFunc&#45;&gt;Timeline_0__UpdateFunc__0</title>
<path fill="none" stroke="black" d="M2339.5,-742.06C2339.5,-715.82 2339.5,-665 2339.5,-632.74"/>
<polygon fill="black" stroke="black" points="2343,-632.88 2339.5,-622.88 2336,-632.88 2343,-632.88"/>
</g>
<!-- Timeline_0__UpdateFunc__0&#45;&gt;ExecuteUbergraph_BP_InflatablePretzel__85 -->
<g id="edge23" class="edge">
<title>Timeline_0__UpdateFunc__0:e&#45;&gt;ExecuteUbergraph_BP_InflatablePretzel__85</title>
<path fill="none" stroke="red" d="M2720.5,-602.5C2741.04,-602.5 2741.68,-580.37 2736.77,-557.31"/>
<polygon fill="none" stroke="red" points="2740.22,-556.71 2734.43,-547.84 2733.43,-558.38 2740.22,-556.71"/>
</g>
<!-- Timeline_0__UpdateFunc__15 -->
<g id="node30" class="node">
<title>Timeline_0__UpdateFunc__15</title>
<polygon fill="#eeeeee" stroke="black" points="2259.5,-486 2259.5,-524 2375.5,-524 2375.5,-486 2259.5,-486"/>
<text text-anchor="start" x="2267.5" y="-508.8" font-family="monospace" font-size="14.00">EX_Return</text>
<text text-anchor="start" x="2267.5" y="-493.8" font-family="monospace" font-size="14.00">  EX_Nothing</text>
</g>
<!-- Timeline_0__UpdateFunc__0&#45;&gt;Timeline_0__UpdateFunc__15 -->
<g id="edge24" class="edge">
<title>Timeline_0__UpdateFunc__0&#45;&gt;Timeline_0__UpdateFunc__15</title>
<path fill="none" stroke="black" d="M2335.36,-583.54C2332.2,-569.8 2327.77,-550.58 2324.12,-534.72"/>
<polygon fill="black" stroke="black" points="2327.61,-534.32 2321.96,-525.36 2320.79,-535.89 2327.61,-534.32"/>
</g>
<!-- Timeline_0__UpdateFunc__17 -->
<g id="node31" class="node">
<title>Timeline_0__UpdateFunc__17</title>
<polygon fill="#eeeeee" stroke="black" points="3447.5,-1.5 3447.5,-37.5 3579.5,-37.5 3579.5,-1.5 3447.5,-1.5"/>
<text text-anchor="start" x="3455.5" y="-15.8" font-family="monospace" font-size="14.00">EX_EndOfScript</text>
</g>
<!-- Timeline_0__FinishedFunc -->
<g id="node32" class="node">
<title>Timeline_0__FinishedFunc</title>
<polygon fill="#ff8888" stroke="black" points="1418,-742 1418,-778 1707,-778 1707,-742 1418,-742"/>
<text text-anchor="start" x="1426" y="-756.3" font-family="monospace" font-size="14.00">Function Timeline_0__FinishedFunc</text>
</g>
<!-- Timeline_0__FinishedFunc__0 -->
<g id="node33" class="node">
<title>Timeline_0__FinishedFunc__0</title>
<polygon fill="#eeeeee" stroke="black" points="1183,-583.5 1183,-621.5 1942,-621.5 1942,-583.5 1183,-583.5"/>
<text text-anchor="start" x="1191" y="-606.3" font-family="monospace" font-size="14.00">EX_LocalFinalFunction export BP_InflatablePretzel_C&#45;&gt;ExecuteUbergraph_BP_InflatablePretzel</text>
<text text-anchor="start" x="1191" y="-591.3" font-family="monospace" font-size="14.00">  EX_IntConst 80</text>
</g>
<!-- Timeline_0__FinishedFunc&#45;&gt;Timeline_0__FinishedFunc__0 -->
<g id="edge25" class="edge">
<title>Timeline_0__FinishedFunc&#45;&gt;Timeline_0__FinishedFunc__0</title>
<path fill="none" stroke="black" d="M1562.5,-742.06C1562.5,-715.82 1562.5,-665 1562.5,-632.74"/>
<polygon fill="black" stroke="black" points="1566,-632.88 1562.5,-622.88 1559,-632.88 1566,-632.88"/>
</g>
<!-- Timeline_0__FinishedFunc__0&#45;&gt;ExecuteUbergraph_BP_InflatablePretzel__80 -->
<g id="edge26" class="edge">
<title>Timeline_0__FinishedFunc__0:e&#45;&gt;ExecuteUbergraph_BP_InflatablePretzel__80</title>
<path fill="none" stroke="red" d="M1943.5,-602.5C1952.71,-602.5 1945.6,-590.8 1950.5,-583 1995.84,-510.87 2071.55,-444.07 2113.74,-409.88"/>
<polygon fill="none" stroke="red" points="2115.66,-412.82 2121.28,-403.83 2111.28,-407.36 2115.66,-412.82"/>
</g>
<!-- Timeline_0__FinishedFunc__15 -->
<g id="node34" class="node">
<title>Timeline_0__FinishedFunc__15</title>
<polygon fill="#eeeeee" stroke="black" points="1504.5,-486 1504.5,-524 1620.5,-524 1620.5,-486 1504.5,-486"/>
<text text-anchor="start" x="1512.5" y="-508.8" font-family="monospace" font-size="14.00">EX_Return</text>
<text text-anchor="start" x="1512.5" y="-493.8" font-family="monospace" font-size="14.00">  EX_Nothing</text>
</g>
<!-- Timeline_0__FinishedFunc__0&#45;&gt;Timeline_0__FinishedFunc__15 -->
<g id="edge27" class="edge">
<title>Timeline_0__FinishedFunc__0&#45;&gt;Timeline_0__FinishedFunc__15</title>
<path fill="none" stroke="black" d="M1562.5,-583.54C1562.5,-569.93 1562.5,-550.95 1562.5,-535.18"/>
<polygon fill="black" stroke="black" points="1566,-535.4 1562.5,-525.4 1559,-535.4 1566,-535.4"/>
</g>
<!-- Timeline_0__FinishedFunc__17 -->
<g id="node35" class="node">
<title>Timeline_0__FinishedFunc__17</title>
<polygon fill="#eeeeee" stroke="black" points="4152.5,-742 4152.5,-778 4284.5,-778 4284.5,-742 4152.5,-742"/>
<text text-anchor="start" x="4160.5" y="-756.3" font-family="monospace" font-size="14.00">EX_EndOfScript</text>
</g>
</g>
</svg>
