<?xml version="1.0" encoding="UTF-8" standalone="no"?>
<!DOCTYPE svg PUBLIC "-//W3C//DTD SVG 1.1//EN"
 "http://www.w3.org/Graphics/SVG/1.1/DTD/svg11.dtd">
<!-- Generated by graphviz version 7.0.1 (0)
 -->
<!-- Pages: 1 -->
<svg width="6729pt" height="900pt"
 viewBox="0.00 0.00 6728.50 900.00" xmlns="http://www.w3.org/2000/svg" xmlns:xlink="http://www.w3.org/1999/xlink">
<g id="graph0" class="graph" transform="scale(1 1) rotate(0) translate(4 896)">
<polygon fill="white" stroke="none" points="-4,4 -4,-896 6724.5,-896 6724.5,4 -4,4"/>
<!-- Basic_ArrowButton02_C -->
<g id="node1" class="node">
<title>Basic_ArrowButton02_C</title>
<polygon fill="#88ff88" stroke="black" points="0,-688.5 0,-891.5 899,-891.5 899,-688.5 0,-688.5"/>
<text text-anchor="start" x="8" y="-876.3" font-family="monospace" font-size="14.00">ClassExport: Basic_ArrowButton02_C</text>
<text text-anchor="start" x="8" y="-861.3" font-family="monospace" font-size="14.00">  SuperStruct: import /Script/UMG&#45;&gt;UserWidget</text>
<text text-anchor="start" x="8" y="-846.3" font-family="monospace" font-size="14.00">  Properties:</text>
<text text-anchor="start" x="8" y="-831.3" font-family="monospace" font-size="14.00">    StructProperty UberGraphFrame</text>
<text text-anchor="start" x="8" y="-816.3" font-family="monospace" font-size="14.00">      CPF_Transient|CPF_DuplicateTransient</text>
<text text-anchor="start" x="8" y="-801.3" font-family="monospace" font-size="14.00">    ObjectProperty arrow_bracket</text>
<text text-anchor="start" x="8" y="-786.3" font-family="monospace" font-size="14.00">      CPF_BlueprintVisible|CPF_ExportObject|CPF_InstancedReference|CPF_RepSkip|CPF_PersistentInstance</text>
<text text-anchor="start" x="8" y="-771.3" font-family="monospace" font-size="14.00">    ObjectProperty button_arrow</text>
<text text-anchor="start" x="8" y="-756.3" font-family="monospace" font-size="14.00">      CPF_BlueprintVisible|CPF_ExportObject|CPF_InstancedReference|CPF_RepSkip|CPF_PersistentInstance</text>
<text text-anchor="start" x="8" y="-741.3" font-family="monospace" font-size="14.00">    MulticastInlineDelegateProperty OnClicked</text>
<text text-anchor="start" x="8" y="-726.3" font-family="monospace" font-size="14.00">      CPF_Edit|CPF_BlueprintVisible|CPF_DisableEditOnInstance|CPF_BlueprintAssignable|CPF_BlueprintCallable</text>
<text text-anchor="start" x="8" y="-711.3" font-family="monospace" font-size="14.00">    FloatProperty ButtonAngle</text>
<text text-anchor="start" x="8" y="-696.3" font-family="monospace" font-size="14.00">      CPF_Edit|CPF_BlueprintVisible</text>
</g>
<!-- OnClicked__DelegateSignature -->
<g id="node2" class="node">
<title>OnClicked__DelegateSignature</title>
<polygon fill="#ff8888" stroke="black" points="917.5,-772 917.5,-808 1239.5,-808 1239.5,-772 917.5,-772"/>
<text text-anchor="start" x="925.5" y="-786.3" font-family="monospace" font-size="14.00">Function OnClicked__DelegateSignature</text>
</g>
<!-- OnClicked__DelegateSignature__0 -->
<g id="node3" class="node">
<title>OnClicked__DelegateSignature__0</title>
<polygon fill="#eeeeee" stroke="black" points="1020.5,-613.5 1020.5,-651.5 1136.5,-651.5 1136.5,-613.5 1020.5,-613.5"/>
<text text-anchor="start" x="1028.5" y="-636.3" font-family="monospace" font-size="14.00">EX_Return</text>
<text text-anchor="start" x="1028.5" y="-621.3" font-family="monospace" font-size="14.00">  EX_Nothing</text>
</g>
<!-- OnClicked__DelegateSignature&#45;&gt;OnClicked__DelegateSignature__0 -->
<g id="edge1" class="edge">
<title>OnClicked__DelegateSignature&#45;&gt;OnClicked__DelegateSignature__0</title>
<path fill="none" stroke="black" d="M1078.5,-772.06C1078.5,-745.82 1078.5,-695 1078.5,-662.74"/>
<polygon fill="black" stroke="black" points="1082,-662.88 1078.5,-652.88 1075,-662.88 1082,-662.88"/>
</g>
<!-- OnClicked__DelegateSignature__2 -->
<g id="node4" class="node">
<title>OnClicked__DelegateSignature__2</title>
<polygon fill="#eeeeee" stroke="black" points="3656.5,-172 3656.5,-208 3788.5,-208 3788.5,-172 3656.5,-172"/>
<text text-anchor="start" x="3664.5" y="-186.3" font-family="monospace" font-size="14.00">EX_EndOfScript</text>
</g>
<!-- ExecuteUbergraph_Basic_ArrowButton02 -->
<g id="node5" class="node">
<title>ExecuteUbergraph_Basic_ArrowButton02</title>
<polygon fill="#ff8888" stroke="black" points="1257.5,-748.5 1257.5,-831.5 1727.5,-831.5 1727.5,-748.5 1257.5,-748.5"/>
<text text-anchor="start" x="1265.5" y="-816.3" font-family="monospace" font-size="14.00">Function ExecuteUbergraph_Basic_ArrowButton02</text>
<text text-anchor="start" x="1265.5" y="-801.3" font-family="monospace" font-size="14.00">  IntProperty EntryPoint</text>
<text text-anchor="start" x="1265.5" y="-786.3" font-family="monospace" font-size="14.00">    CPF_BlueprintVisible|CPF_BlueprintReadOnly|CPF_Parm</text>
<text text-anchor="start" x="1265.5" y="-771.3" font-family="monospace" font-size="14.00">  BoolProperty K2Node_Event_IsDesignTime</text>
<text text-anchor="start" x="1265.5" y="-756.3" font-family="monospace" font-size="14.00">  StructProperty CallFunc_MenuColors_OutputColor</text>
</g>
<!-- ExecuteUbergraph_Basic_ArrowButton02__0 -->
<g id="node6" class="node">
<title>ExecuteUbergraph_Basic_ArrowButton02__0</title>
<polygon fill="#eeeeee" stroke="black" points="1356.5,-613.5 1356.5,-651.5 1628.5,-651.5 1628.5,-613.5 1356.5,-613.5"/>
<text text-anchor="start" x="1364.5" y="-636.3" font-family="monospace" font-size="14.00">EX_ComputedJump</text>
<text text-anchor="start" x="1364.5" y="-621.3" font-family="monospace" font-size="14.00">  EX_LocalVariable [EntryPoint]</text>
</g>
<!-- ExecuteUbergraph_Basic_ArrowButton02&#45;&gt;ExecuteUbergraph_Basic_ArrowButton02__0 -->
<g id="edge2" class="edge">
<title>ExecuteUbergraph_Basic_ArrowButton02&#45;&gt;ExecuteUbergraph_Basic_ArrowButton02__0</title>
<path fill="none" stroke="black" d="M1492.5,-748.55C1492.5,-721.61 1492.5,-686.83 1492.5,-662.6"/>
<polygon fill="black" stroke="black" points="1496,-662.82 1492.5,-652.82 1489,-662.82 1496,-662.82"/>
</g>
<!-- ExecuteUbergraph_Basic_ArrowButton02__10 -->
<g id="node7" class="node">
<title>ExecuteUbergraph_Basic_ArrowButton02__10</title>
<polygon fill="#eeeeee" stroke="black" points="6093.5,-418.5 6093.5,-501.5 6687.5,-501.5 6687.5,-418.5 6093.5,-418.5"/>
<text text-anchor="start" x="6101.5" y="-486.3" font-family="monospace" font-size="14.00">EX_Context</text>
<text text-anchor="start" x="6101.5" y="-471.3" font-family="monospace" font-size="14.00">  EX_InstanceVariable [button_arrow]</text>
<text text-anchor="start" x="6101.5" y="-456.3" font-family="monospace" font-size="14.00">  EX_FinalFunction import /Script/UMG&#45;&gt;Widget&#45;&gt;SetRenderTransformAngle</text>
<text text-anchor="start" x="6101.5" y="-441.3" font-family="monospace" font-size="14.00">    EX_InstanceVariable [ButtonAngle]</text>
<text text-anchor="start" x="6101.5" y="-426.3" font-family="monospace" font-size="14.00">  RValue = []</text>
</g>
<!-- ExecuteUbergraph_Basic_ArrowButton02__51 -->
<g id="node8" class="node">
<title>ExecuteUbergraph_Basic_ArrowButton02__51</title>
<polygon fill="#eeeeee" stroke="black" points="5811,-268.5 5811,-381.5 6570,-381.5 6570,-268.5 5811,-268.5"/>
<text text-anchor="start" x="5819" y="-366.3" font-family="monospace" font-size="14.00">EX_Context</text>
<text text-anchor="start" x="5819" y="-351.3" font-family="monospace" font-size="14.00">  EX_ObjectConst import /Game/UI/Art/WidgetParts/LIB_MenuColors&#45;&gt;Default__LIB_MenuColors_C</text>
<text text-anchor="start" x="5819" y="-336.3" font-family="monospace" font-size="14.00">  EX_LocalVirtualFunction MenuColors</text>
<text text-anchor="start" x="5819" y="-321.3" font-family="monospace" font-size="14.00">    EX_ByteConst 0</text>
<text text-anchor="start" x="5819" y="-306.3" font-family="monospace" font-size="14.00">    EX_Self</text>
<text text-anchor="start" x="5819" y="-291.3" font-family="monospace" font-size="14.00">    EX_LocalVariable [CallFunc_MenuColors_OutputColor]</text>
<text text-anchor="start" x="5819" y="-276.3" font-family="monospace" font-size="14.00">  RValue = []</text>
</g>
<!-- ExecuteUbergraph_Basic_ArrowButton02__10&#45;&gt;ExecuteUbergraph_Basic_ArrowButton02__51 -->
<g id="edge3" class="edge">
<title>ExecuteUbergraph_Basic_ArrowButton02__10&#45;&gt;ExecuteUbergraph_Basic_ArrowButton02__51</title>
<path fill="none" stroke="black" d="M6329.68,-418.55C6314.98,-408.78 6298.94,-398.11 6283.15,-387.61"/>
<polygon fill="black" stroke="black" points="6285.41,-384.91 6275.15,-382.29 6281.54,-390.74 6285.41,-384.91"/>
</g>
<!-- ExecuteUbergraph_Basic_ArrowButton02__99 -->
<g id="node9" class="node">
<title>ExecuteUbergraph_Basic_ArrowButton02__99</title>
<polygon fill="#eeeeee" stroke="black" points="5764,-148.5 5764,-231.5 6309,-231.5 6309,-148.5 5764,-148.5"/>
<text text-anchor="start" x="5772" y="-216.3" font-family="monospace" font-size="14.00">EX_Context</text>
<text text-anchor="start" x="5772" y="-201.3" font-family="monospace" font-size="14.00">  EX_InstanceVariable [arrow_bracket]</text>
<text text-anchor="start" x="5772" y="-186.3" font-family="monospace" font-size="14.00">  EX_FinalFunction import /Script/UMG&#45;&gt;Image&#45;&gt;SetColorAndOpacity</text>
<text text-anchor="start" x="5772" y="-171.3" font-family="monospace" font-size="14.00">    EX_LocalVariable [CallFunc_MenuColors_OutputColor]</text>
<text text-anchor="start" x="5772" y="-156.3" font-family="monospace" font-size="14.00">  RValue = []</text>
</g>
<!-- ExecuteUbergraph_Basic_ArrowButton02__51&#45;&gt;ExecuteUbergraph_Basic_ArrowButton02__99 -->
<g id="edge4" class="edge">
<title>ExecuteUbergraph_Basic_ArrowButton02__51&#45;&gt;ExecuteUbergraph_Basic_ArrowButton02__99</title>
<path fill="none" stroke="black" d="M6126.53,-268.75C6114.94,-258.74 6102.94,-248.38 6091.63,-238.61"/>
<polygon fill="black" stroke="black" points="6094.14,-236.15 6084.28,-232.27 6089.56,-241.45 6094.14,-236.15"/>
</g>
<!-- ExecuteUbergraph_Basic_ArrowButton02__140 -->
<g id="node10" class="node">
<title>ExecuteUbergraph_Basic_ArrowButton02__140</title>
<polygon fill="#eeeeee" stroke="black" points="5720,-75.5 5720,-111.5 5827,-111.5 5827,-75.5 5720,-75.5"/>
<text text-anchor="start" x="5728" y="-89.8" font-family="monospace" font-size="14.00">EX_Jump 189</text>
</g>
<!-- ExecuteUbergraph_Basic_ArrowButton02__99&#45;&gt;ExecuteUbergraph_Basic_ArrowButton02__140 -->
<g id="edge5" class="edge">
<title>ExecuteUbergraph_Basic_ArrowButton02__99&#45;&gt;ExecuteUbergraph_Basic_ArrowButton02__140</title>
<path fill="none" stroke="black" d="M5923.82,-148.51C5891.82,-137.01 5858.3,-124.97 5831.05,-115.18"/>
<polygon fill="black" stroke="black" points="5832.57,-112.01 5821.98,-111.92 5830.21,-118.59 5832.57,-112.01"/>
</g>
<!-- ExecuteUbergraph_Basic_ArrowButton02__189 -->
<g id="node17" class="node">
<title>ExecuteUbergraph_Basic_ArrowButton02__189</title>
<polygon fill="#eeeeee" stroke="black" points="4635.5,-0.5 4635.5,-38.5 4751.5,-38.5 4751.5,-0.5 4635.5,-0.5"/>
<text text-anchor="start" x="4643.5" y="-23.3" font-family="monospace" font-size="14.00">EX_Return</text>
<text text-anchor="start" x="4643.5" y="-8.3" font-family="monospace" font-size="14.00">  EX_Nothing</text>
</g>
<!-- ExecuteUbergraph_Basic_ArrowButton02__140&#45;&gt;ExecuteUbergraph_Basic_ArrowButton02__189 -->
<g id="edge6" class="edge">
<title>ExecuteUbergraph_Basic_ArrowButton02__140&#45;&gt;ExecuteUbergraph_Basic_ArrowButton02__189</title>
<path fill="none" stroke="black" d="M5720.12,-86.44C5685.03,-82.65 5638.08,-77.95 5596.5,-75 5229.24,-48.96 5129.85,-95.91 4762.65,-39.11"/>
<polygon fill="black" stroke="black" points="4763.34,-35.68 4752.92,-37.59 4762.26,-42.6 4763.34,-35.68"/>
</g>
<!-- ExecuteUbergraph_Basic_ArrowButton02__145 -->
<g id="node11" class="node">
<title>ExecuteUbergraph_Basic_ArrowButton02__145</title>
<polygon fill="#eeeeee" stroke="black" points="2605,-441 2605,-479 3306,-479 3306,-441 2605,-441"/>
<text text-anchor="start" x="2613" y="-463.8" font-family="monospace" font-size="14.00">EX_CallMulticastDelegate export Basic_ArrowButton02_C&#45;&gt;OnClicked__DelegateSignature</text>
<text text-anchor="start" x="2613" y="-448.8" font-family="monospace" font-size="14.00">  EX_InstanceVariable [OnClicked]</text>
</g>
<!-- ExecuteUbergraph_Basic_ArrowButton02__164 -->
<g id="node12" class="node">
<title>ExecuteUbergraph_Basic_ArrowButton02__164</title>
<polygon fill="#eeeeee" stroke="black" points="3933,-75.5 3933,-111.5 4040,-111.5 4040,-75.5 3933,-75.5"/>
<text text-anchor="start" x="3941" y="-89.8" font-family="monospace" font-size="14.00">EX_Jump 189</text>
</g>
<!-- ExecuteUbergraph_Basic_ArrowButton02__145&#45;&gt;ExecuteUbergraph_Basic_ArrowButton02__164 -->
<g id="edge7" class="edge">
<title>ExecuteUbergraph_Basic_ArrowButton02__145&#45;&gt;ExecuteUbergraph_Basic_ArrowButton02__164</title>
<path fill="none" stroke="black" d="M3074.66,-441.01C3242.28,-412.61 3554.39,-348.28 3797.5,-232 3860.94,-201.66 3925.11,-149.38 3959.94,-118.77"/>
<polygon fill="black" stroke="black" points="3961.86,-121.75 3967.01,-112.49 3957.21,-116.51 3961.86,-121.75"/>
</g>
<!-- ExecuteUbergraph_Basic_ArrowButton02__164&#45;&gt;ExecuteUbergraph_Basic_ArrowButton02__189 -->
<g id="edge8" class="edge">
<title>ExecuteUbergraph_Basic_ArrowButton02__164&#45;&gt;ExecuteUbergraph_Basic_ArrowButton02__189</title>
<path fill="none" stroke="black" d="M4039.94,-86.18C4069.31,-82.76 4106.4,-78.52 4139.5,-75 4313.88,-56.45 4519.38,-36.82 4624.28,-26.95"/>
<polygon fill="black" stroke="black" points="4624.51,-30.45 4634.14,-26.03 4623.86,-23.48 4624.51,-30.45"/>
</g>
<!-- ExecuteUbergraph_Basic_ArrowButton02__169 -->
<g id="node13" class="node">
<title>ExecuteUbergraph_Basic_ArrowButton02__169</title>
<polygon fill="#eeeeee" stroke="black" points="2652,-539.5 2652,-575.5 2759,-575.5 2759,-539.5 2652,-539.5"/>
<text text-anchor="start" x="2660" y="-553.8" font-family="monospace" font-size="14.00">EX_Jump 145</text>
</g>
<!-- ExecuteUbergraph_Basic_ArrowButton02__169&#45;&gt;ExecuteUbergraph_Basic_ArrowButton02__145 -->
<g id="edge9" class="edge">
<title>ExecuteUbergraph_Basic_ArrowButton02__169&#45;&gt;ExecuteUbergraph_Basic_ArrowButton02__145</title>
<path fill="none" stroke="black" d="M2749.91,-539.54C2791.21,-523.76 2852.99,-500.16 2898.04,-482.95"/>
<polygon fill="black" stroke="black" points="2899.03,-486.32 2907.12,-479.48 2896.53,-479.78 2899.03,-486.32"/>
</g>
<!-- ExecuteUbergraph_Basic_ArrowButton02__174 -->
<g id="node14" class="node">
<title>ExecuteUbergraph_Basic_ArrowButton02__174</title>
<polygon fill="#eeeeee" stroke="black" points="3815,-442 3815,-478 3922,-478 3922,-442 3815,-442"/>
<text text-anchor="start" x="3823" y="-456.3" font-family="monospace" font-size="14.00">EX_Jump 189</text>
</g>
<!-- ExecuteUbergraph_Basic_ArrowButton02__174&#45;&gt;ExecuteUbergraph_Basic_ArrowButton02__189 -->
<g id="edge10" class="edge">
<title>ExecuteUbergraph_Basic_ArrowButton02__174&#45;&gt;ExecuteUbergraph_Basic_ArrowButton02__189</title>
<path fill="none" stroke="black" d="M3894.91,-442.22C3947.66,-408.77 4069.9,-331.51 4173.5,-268 4261.88,-213.82 4280.66,-194.11 4373.5,-148 4451.56,-109.24 4474.52,-107.23 4555.5,-75 4582.41,-64.29 4612.3,-52.47 4637.37,-42.59"/>
<polygon fill="black" stroke="black" points="4638.36,-45.96 4646.38,-39.04 4635.79,-39.45 4638.36,-45.96"/>
</g>
<!-- ExecuteUbergraph_Basic_ArrowButton02__179 -->
<g id="node15" class="node">
<title>ExecuteUbergraph_Basic_ArrowButton02__179</title>
<polygon fill="#eeeeee" stroke="black" points="4182,-307 4182,-343 4289,-343 4289,-307 4182,-307"/>
<text text-anchor="start" x="4190" y="-321.3" font-family="monospace" font-size="14.00">EX_Jump 189</text>
</g>
<!-- ExecuteUbergraph_Basic_ArrowButton02__179&#45;&gt;ExecuteUbergraph_Basic_ArrowButton02__189 -->
<g id="edge11" class="edge">
<title>ExecuteUbergraph_Basic_ArrowButton02__179&#45;&gt;ExecuteUbergraph_Basic_ArrowButton02__189</title>
<path fill="none" stroke="black" d="M4261.11,-307.03C4338,-256.07 4567.13,-104.24 4656.87,-44.77"/>
<polygon fill="black" stroke="black" points="4658.7,-47.76 4665.1,-39.32 4654.83,-41.93 4658.7,-47.76"/>
</g>
<!-- ExecuteUbergraph_Basic_ArrowButton02__184 -->
<g id="node16" class="node">
<title>ExecuteUbergraph_Basic_ArrowButton02__184</title>
<polygon fill="#eeeeee" stroke="black" points="4660,-172 4660,-208 4767,-208 4767,-172 4660,-172"/>
<text text-anchor="start" x="4668" y="-186.3" font-family="monospace" font-size="14.00">EX_Jump 189</text>
</g>
<!-- ExecuteUbergraph_Basic_ArrowButton02__184&#45;&gt;ExecuteUbergraph_Basic_ArrowButton02__189 -->
<g id="edge12" class="edge">
<title>ExecuteUbergraph_Basic_ArrowButton02__184&#45;&gt;ExecuteUbergraph_Basic_ArrowButton02__189</title>
<path fill="none" stroke="black" d="M4711.51,-172.23C4708.11,-143.58 4701.14,-84.91 4696.94,-49.51"/>
<polygon fill="black" stroke="black" points="4700.47,-49.49 4695.81,-39.97 4693.51,-50.32 4700.47,-49.49"/>
</g>
<!-- ExecuteUbergraph_Basic_ArrowButton02__191 -->
<g id="node18" class="node">
<title>ExecuteUbergraph_Basic_ArrowButton02__191</title>
<polygon fill="#eeeeee" stroke="black" points="5845.5,-75.5 5845.5,-111.5 5977.5,-111.5 5977.5,-75.5 5845.5,-75.5"/>
<text text-anchor="start" x="5853.5" y="-89.8" font-family="monospace" font-size="14.00">EX_EndOfScript</text>
</g>
<!-- BndEvt__button_arrow_K2Node_ComponentBoundEvent_4_OnButtonReleasedEvent__DelegateSignature -->
<g id="node19" class="node">
<title>BndEvt__button_arrow_K2Node_ComponentBoundEvent_4_OnButtonReleasedEvent__DelegateSignature</title>
<polygon fill="#ff8888" stroke="black" points="5053,-772 5053,-808 5886,-808 5886,-772 5053,-772"/>
<text text-anchor="start" x="5061" y="-786.3" font-family="monospace" font-size="14.00">Function BndEvt__button_arrow_K2Node_ComponentBoundEvent_4_OnButtonReleasedEvent__DelegateSignature</text>
</g>
<!-- BndEvt__button_arrow_K2Node_ComponentBoundEvent_4_OnButtonReleasedEvent__DelegateSignature__0 -->
<g id="node20" class="node">
<title>BndEvt__button_arrow_K2Node_ComponentBoundEvent_4_OnButtonReleasedEvent__DelegateSignature__0</title>
<polygon fill="#eeeeee" stroke="black" points="5054,-613.5 5054,-651.5 5797,-651.5 5797,-613.5 5054,-613.5"/>
<text text-anchor="start" x="5062" y="-636.3" font-family="monospace" font-size="14.00">EX_LocalFinalFunction export Basic_ArrowButton02_C&#45;&gt;ExecuteUbergraph_Basic_ArrowButton02</text>
<text text-anchor="start" x="5062" y="-621.3" font-family="monospace" font-size="14.00">  EX_IntConst 189</text>
</g>
<!-- BndEvt__button_arrow_K2Node_ComponentBoundEvent_4_OnButtonReleasedEvent__DelegateSignature&#45;&gt;BndEvt__button_arrow_K2Node_ComponentBoundEvent_4_OnButtonReleasedEvent__DelegateSignature__0 -->
<g id="edge13" class="edge">
<title>BndEvt__button_arrow_K2Node_ComponentBoundEvent_4_OnButtonReleasedEvent__DelegateSignature&#45;&gt;BndEvt__button_arrow_K2Node_ComponentBoundEvent_4_OnButtonReleasedEvent__DelegateSignature__0</title>
<path fill="none" stroke="black" d="M5464.71,-772.06C5457.25,-745.7 5442.77,-694.55 5433.65,-662.31"/>
<polygon fill="black" stroke="black" points="5437.06,-661.5 5430.97,-652.83 5430.32,-663.4 5437.06,-661.5"/>
</g>
<!-- BndEvt__button_arrow_K2Node_ComponentBoundEvent_4_OnButtonReleasedEvent__DelegateSignature__0&#45;&gt;ExecuteUbergraph_Basic_ArrowButton02__189 -->
<g id="edge14" class="edge">
<title>BndEvt__button_arrow_K2Node_ComponentBoundEvent_4_OnButtonReleasedEvent__DelegateSignature__0:e&#45;&gt;ExecuteUbergraph_Basic_ArrowButton02__189</title>
<path fill="none" stroke="red" d="M5798.5,-632.5C5807.18,-632.5 5803.09,-619.64 5797.5,-613 5750.84,-557.57 5695.21,-622.1 5638.5,-577 5593.69,-541.37 5582.5,-518.25 5582.5,-461 5582.5,-461 5582.5,-461 5582.5,-189 5582.5,-6.76 4965.07,-77.65 4762.21,-39.08"/>
<polygon fill="none" stroke="red" points="4763.15,-35.7 4752.64,-37.08 4761.72,-42.55 4763.15,-35.7"/>
</g>
<!-- BndEvt__button_arrow_K2Node_ComponentBoundEvent_4_OnButtonReleasedEvent__DelegateSignature__15 -->
<g id="node21" class="node">
<title>BndEvt__button_arrow_K2Node_ComponentBoundEvent_4_OnButtonReleasedEvent__DelegateSignature__15</title>
<polygon fill="#eeeeee" stroke="black" points="5367.5,-538.5 5367.5,-576.5 5483.5,-576.5 5483.5,-538.5 5367.5,-538.5"/>
<text text-anchor="start" x="5375.5" y="-561.3" font-family="monospace" font-size="14.00">EX_Return</text>
<text text-anchor="start" x="5375.5" y="-546.3" font-family="monospace" font-size="14.00">  EX_Nothing</text>
</g>
<!-- BndEvt__button_arrow_K2Node_ComponentBoundEvent_4_OnButtonReleasedEvent__DelegateSignature__0&#45;&gt;BndEvt__button_arrow_K2Node_ComponentBoundEvent_4_OnButtonReleasedEvent__DelegateSignature__15 -->
<g id="edge15" class="edge">
<title>BndEvt__button_arrow_K2Node_ComponentBoundEvent_4_OnButtonReleasedEvent__DelegateSignature__0&#45;&gt;BndEvt__button_arrow_K2Node_ComponentBoundEvent_4_OnButtonReleasedEvent__DelegateSignature__15</title>
<path fill="none" stroke="black" d="M5425.5,-613.83C5425.5,-606 5425.5,-596.57 5425.5,-587.74"/>
<polygon fill="black" stroke="black" points="5429,-587.78 5425.5,-577.78 5422,-587.78 5429,-587.78"/>
</g>
<!-- BndEvt__button_arrow_K2Node_ComponentBoundEvent_4_OnButtonReleasedEvent__DelegateSignature__17 -->
<g id="node22" class="node">
<title>BndEvt__button_arrow_K2Node_ComponentBoundEvent_4_OnButtonReleasedEvent__DelegateSignature__17</title>
<polygon fill="#eeeeee" stroke="black" points="4769.5,-1.5 4769.5,-37.5 4901.5,-37.5 4901.5,-1.5 4769.5,-1.5"/>
<text text-anchor="start" x="4777.5" y="-15.8" font-family="monospace" font-size="14.00">EX_EndOfScript</text>
</g>
<!-- BndEvt__button_arrow_K2Node_ComponentBoundEvent_3_OnButtonPressedEvent__DelegateSignature -->
<g id="node23" class="node">
<title>BndEvt__button_arrow_K2Node_ComponentBoundEvent_3_OnButtonPressedEvent__DelegateSignature</title>
<polygon fill="#ff8888" stroke="black" points="4210,-772 4210,-808 5035,-808 5035,-772 4210,-772"/>
<text text-anchor="start" x="4218" y="-786.3" font-family="monospace" font-size="14.00">Function BndEvt__button_arrow_K2Node_ComponentBoundEvent_3_OnButtonPressedEvent__DelegateSignature</text>
</g>
<!-- BndEvt__button_arrow_K2Node_ComponentBoundEvent_3_OnButtonPressedEvent__DelegateSignature__0 -->
<g id="node24" class="node">
<title>BndEvt__button_arrow_K2Node_ComponentBoundEvent_3_OnButtonPressedEvent__DelegateSignature__0</title>
<polygon fill="#eeeeee" stroke="black" points="4232,-613.5 4232,-651.5 4975,-651.5 4975,-613.5 4232,-613.5"/>
<text text-anchor="start" x="4240" y="-636.3" font-family="monospace" font-size="14.00">EX_LocalFinalFunction export Basic_ArrowButton02_C&#45;&gt;ExecuteUbergraph_Basic_ArrowButton02</text>
<text text-anchor="start" x="4240" y="-621.3" font-family="monospace" font-size="14.00">  EX_IntConst 184</text>
</g>
<!-- BndEvt__button_arrow_K2Node_ComponentBoundEvent_3_OnButtonPressedEvent__DelegateSignature&#45;&gt;BndEvt__button_arrow_K2Node_ComponentBoundEvent_3_OnButtonPressedEvent__DelegateSignature__0 -->
<g id="edge16" class="edge">
<title>BndEvt__button_arrow_K2Node_ComponentBoundEvent_3_OnButtonPressedEvent__DelegateSignature&#45;&gt;BndEvt__button_arrow_K2Node_ComponentBoundEvent_3_OnButtonPressedEvent__DelegateSignature__0</title>
<path fill="none" stroke="black" d="M4620.43,-772.06C4617.22,-745.82 4611.01,-695 4607.07,-662.74"/>
<polygon fill="black" stroke="black" points="4610.55,-662.38 4605.87,-652.87 4603.61,-663.22 4610.55,-662.38"/>
</g>
<!-- BndEvt__button_arrow_K2Node_ComponentBoundEvent_3_OnButtonPressedEvent__DelegateSignature__0&#45;&gt;ExecuteUbergraph_Basic_ArrowButton02__184 -->
<g id="edge17" class="edge">
<title>BndEvt__button_arrow_K2Node_ComponentBoundEvent_3_OnButtonPressedEvent__DelegateSignature__0:e&#45;&gt;ExecuteUbergraph_Basic_ArrowButton02__184</title>
<path fill="none" stroke="red" d="M4976.5,-632.5C5172.23,-632.5 4839.36,-308.28 4740.12,-215.52"/>
<polygon fill="none" stroke="red" points="4742.61,-213.05 4732.9,-208.8 4737.84,-218.18 4742.61,-213.05"/>
</g>
<!-- BndEvt__button_arrow_K2Node_ComponentBoundEvent_3_OnButtonPressedEvent__DelegateSignature__15 -->
<g id="node25" class="node">
<title>BndEvt__button_arrow_K2Node_ComponentBoundEvent_3_OnButtonPressedEvent__DelegateSignature__15</title>
<polygon fill="#eeeeee" stroke="black" points="4545.5,-538.5 4545.5,-576.5 4661.5,-576.5 4661.5,-538.5 4545.5,-538.5"/>
<text text-anchor="start" x="4553.5" y="-561.3" font-family="monospace" font-size="14.00">EX_Return</text>
<text text-anchor="start" x="4553.5" y="-546.3" font-family="monospace" font-size="14.00">  EX_Nothing</text>
</g>
<!-- BndEvt__button_arrow_K2Node_ComponentBoundEvent_3_OnButtonPressedEvent__DelegateSignature__0&#45;&gt;BndEvt__button_arrow_K2Node_ComponentBoundEvent_3_OnButtonPressedEvent__DelegateSignature__15 -->
<g id="edge18" class="edge">
<title>BndEvt__button_arrow_K2Node_ComponentBoundEvent_3_OnButtonPressedEvent__DelegateSignature__0&#45;&gt;BndEvt__button_arrow_K2Node_ComponentBoundEvent_3_OnButtonPressedEvent__DelegateSignature__15</title>
<path fill="none" stroke="black" d="M4603.5,-613.83C4603.5,-606 4603.5,-596.57 4603.5,-587.74"/>
<polygon fill="black" stroke="black" points="4607,-587.78 4603.5,-577.78 4600,-587.78 4607,-587.78"/>
</g>
<!-- BndEvt__button_arrow_K2Node_ComponentBoundEvent_3_OnButtonPressedEvent__DelegateSignature__17 -->
<g id="node26" class="node">
<title>BndEvt__button_arrow_K2Node_ComponentBoundEvent_3_OnButtonPressedEvent__DelegateSignature__17</title>
<polygon fill="#eeeeee" stroke="black" points="6588.5,-307 6588.5,-343 6720.5,-343 6720.5,-307 6588.5,-307"/>
<text text-anchor="start" x="6596.5" y="-321.3" font-family="monospace" font-size="14.00">EX_EndOfScript</text>
</g>
<!-- BndEvt__button_arrow_K2Node_ComponentBoundEvent_2_OnButtonHoverEvent__DelegateSignature -->
<g id="node27" class="node">
<title>BndEvt__button_arrow_K2Node_ComponentBoundEvent_2_OnButtonHoverEvent__DelegateSignature</title>
<polygon fill="#ff8888" stroke="black" points="3383,-772 3383,-808 4192,-808 4192,-772 3383,-772"/>
<text text-anchor="start" x="3391" y="-786.3" font-family="monospace" font-size="14.00">Function BndEvt__button_arrow_K2Node_ComponentBoundEvent_2_OnButtonHoverEvent__DelegateSignature</text>
</g>
<!-- BndEvt__button_arrow_K2Node_ComponentBoundEvent_2_OnButtonHoverEvent__DelegateSignature__0 -->
<g id="node28" class="node">
<title>BndEvt__button_arrow_K2Node_ComponentBoundEvent_2_OnButtonHoverEvent__DelegateSignature__0</title>
<polygon fill="#eeeeee" stroke="black" points="3434,-613.5 3434,-651.5 4177,-651.5 4177,-613.5 3434,-613.5"/>
<text text-anchor="start" x="3442" y="-636.3" font-family="monospace" font-size="14.00">EX_LocalFinalFunction export Basic_ArrowButton02_C&#45;&gt;ExecuteUbergraph_Basic_ArrowButton02</text>
<text text-anchor="start" x="3442" y="-621.3" font-family="monospace" font-size="14.00">  EX_IntConst 179</text>
</g>
<!-- BndEvt__button_arrow_K2Node_ComponentBoundEvent_2_OnButtonHoverEvent__DelegateSignature&#45;&gt;BndEvt__button_arrow_K2Node_ComponentBoundEvent_2_OnButtonHoverEvent__DelegateSignature__0 -->
<g id="edge19" class="edge">
<title>BndEvt__button_arrow_K2Node_ComponentBoundEvent_2_OnButtonHoverEvent__DelegateSignature&#45;&gt;BndEvt__button_arrow_K2Node_ComponentBoundEvent_2_OnButtonHoverEvent__DelegateSignature__0</title>
<path fill="none" stroke="black" d="M3789.46,-772.06C3792.5,-745.82 3798.38,-695 3802.12,-662.74"/>
<polygon fill="black" stroke="black" points="3805.58,-663.21 3803.26,-652.87 3798.63,-662.41 3805.58,-663.21"/>
</g>
<!-- BndEvt__button_arrow_K2Node_ComponentBoundEvent_2_OnButtonHoverEvent__DelegateSignature__0&#45;&gt;ExecuteUbergraph_Basic_ArrowButton02__179 -->
<g id="edge20" class="edge">
<title>BndEvt__button_arrow_K2Node_ComponentBoundEvent_2_OnButtonHoverEvent__DelegateSignature__0:e&#45;&gt;ExecuteUbergraph_Basic_ArrowButton02__179</title>
<path fill="none" stroke="red" d="M4178.5,-632.5C4234.77,-632.5 4237.24,-430.31 4236.18,-354.37"/>
<polygon fill="none" stroke="red" points="4239.68,-354.37 4236,-344.43 4232.68,-354.49 4239.68,-354.37"/>
</g>
<!-- BndEvt__button_arrow_K2Node_ComponentBoundEvent_2_OnButtonHoverEvent__DelegateSignature__15 -->
<g id="node29" class="node">
<title>BndEvt__button_arrow_K2Node_ComponentBoundEvent_2_OnButtonHoverEvent__DelegateSignature__15</title>
<polygon fill="#eeeeee" stroke="black" points="3747.5,-538.5 3747.5,-576.5 3863.5,-576.5 3863.5,-538.5 3747.5,-538.5"/>
<text text-anchor="start" x="3755.5" y="-561.3" font-family="monospace" font-size="14.00">EX_Return</text>
<text text-anchor="start" x="3755.5" y="-546.3" font-family="monospace" font-size="14.00">  EX_Nothing</text>
</g>
<!-- BndEvt__button_arrow_K2Node_ComponentBoundEvent_2_OnButtonHoverEvent__DelegateSignature__0&#45;&gt;BndEvt__button_arrow_K2Node_ComponentBoundEvent_2_OnButtonHoverEvent__DelegateSignature__15 -->
<g id="edge21" class="edge">
<title>BndEvt__button_arrow_K2Node_ComponentBoundEvent_2_OnButtonHoverEvent__DelegateSignature__0&#45;&gt;BndEvt__button_arrow_K2Node_ComponentBoundEvent_2_OnButtonHoverEvent__DelegateSignature__15</title>
<path fill="none" stroke="black" d="M3805.5,-613.83C3805.5,-606 3805.5,-596.57 3805.5,-587.74"/>
<polygon fill="black" stroke="black" points="3809,-587.78 3805.5,-577.78 3802,-587.78 3809,-587.78"/>
</g>
<!-- BndEvt__button_arrow_K2Node_ComponentBoundEvent_2_OnButtonHoverEvent__DelegateSignature__17 -->
<g id="node30" class="node">
<title>BndEvt__button_arrow_K2Node_ComponentBoundEvent_2_OnButtonHoverEvent__DelegateSignature__17</title>
<polygon fill="#eeeeee" stroke="black" points="6327.5,-172 6327.5,-208 6459.5,-208 6459.5,-172 6327.5,-172"/>
<text text-anchor="start" x="6335.5" y="-186.3" font-family="monospace" font-size="14.00">EX_EndOfScript</text>
</g>
<!-- BndEvt__button_arrow_K2Node_ComponentBoundEvent_1_OnButtonHoverEvent__DelegateSignature -->
<g id="node31" class="node">
<title>BndEvt__button_arrow_K2Node_ComponentBoundEvent_1_OnButtonHoverEvent__DelegateSignature</title>
<polygon fill="#ff8888" stroke="black" points="2556,-772 2556,-808 3365,-808 3365,-772 2556,-772"/>
<text text-anchor="start" x="2564" y="-786.3" font-family="monospace" font-size="14.00">Function BndEvt__button_arrow_K2Node_ComponentBoundEvent_1_OnButtonHoverEvent__DelegateSignature</text>
</g>
<!-- BndEvt__button_arrow_K2Node_ComponentBoundEvent_1_OnButtonHoverEvent__DelegateSignature__0 -->
<g id="node32" class="node">
<title>BndEvt__button_arrow_K2Node_ComponentBoundEvent_1_OnButtonHoverEvent__DelegateSignature__0</title>
<polygon fill="#eeeeee" stroke="black" points="2622,-613.5 2622,-651.5 3365,-651.5 3365,-613.5 2622,-613.5"/>
<text text-anchor="start" x="2630" y="-636.3" font-family="monospace" font-size="14.00">EX_LocalFinalFunction export Basic_ArrowButton02_C&#45;&gt;ExecuteUbergraph_Basic_ArrowButton02</text>
<text text-anchor="start" x="2630" y="-621.3" font-family="monospace" font-size="14.00">  EX_IntConst 174</text>
</g>
<!-- BndEvt__button_arrow_K2Node_ComponentBoundEvent_1_OnButtonHoverEvent__DelegateSignature&#45;&gt;BndEvt__button_arrow_K2Node_ComponentBoundEvent_1_OnButtonHoverEvent__DelegateSignature__0 -->
<g id="edge22" class="edge">
<title>BndEvt__button_arrow_K2Node_ComponentBoundEvent_1_OnButtonHoverEvent__DelegateSignature&#45;&gt;BndEvt__button_arrow_K2Node_ComponentBoundEvent_1_OnButtonHoverEvent__DelegateSignature__0</title>
<path fill="none" stroke="black" d="M2964.09,-772.06C2969.69,-745.7 2980.54,-694.55 2987.39,-662.31"/>
<polygon fill="black" stroke="black" points="2990.74,-663.36 2989.39,-652.85 2983.89,-661.91 2990.74,-663.36"/>
</g>
<!-- BndEvt__button_arrow_K2Node_ComponentBoundEvent_1_OnButtonHoverEvent__DelegateSignature__0&#45;&gt;ExecuteUbergraph_Basic_ArrowButton02__174 -->
<g id="edge23" class="edge">
<title>BndEvt__button_arrow_K2Node_ComponentBoundEvent_1_OnButtonHoverEvent__DelegateSignature__0:e&#45;&gt;ExecuteUbergraph_Basic_ArrowButton02__174</title>
<path fill="none" stroke="red" d="M3366.5,-632.5C3367.94,-632.5 3675.39,-527.18 3808.37,-481.61"/>
<polygon fill="none" stroke="red" points="3809.4,-484.96 3817.73,-478.4 3807.13,-478.34 3809.4,-484.96"/>
</g>
<!-- BndEvt__button_arrow_K2Node_ComponentBoundEvent_1_OnButtonHoverEvent__DelegateSignature__15 -->
<g id="node33" class="node">
<title>BndEvt__button_arrow_K2Node_ComponentBoundEvent_1_OnButtonHoverEvent__DelegateSignature__15</title>
<polygon fill="#eeeeee" stroke="black" points="2935.5,-538.5 2935.5,-576.5 3051.5,-576.5 3051.5,-538.5 2935.5,-538.5"/>
<text text-anchor="start" x="2943.5" y="-561.3" font-family="monospace" font-size="14.00">EX_Return</text>
<text text-anchor="start" x="2943.5" y="-546.3" font-family="monospace" font-size="14.00">  EX_Nothing</text>
</g>
<!-- BndEvt__button_arrow_K2Node_ComponentBoundEvent_1_OnButtonHoverEvent__DelegateSignature__0&#45;&gt;BndEvt__button_arrow_K2Node_ComponentBoundEvent_1_OnButtonHoverEvent__DelegateSignature__15 -->
<g id="edge24" class="edge">
<title>BndEvt__button_arrow_K2Node_ComponentBoundEvent_1_OnButtonHoverEvent__DelegateSignature__0&#45;&gt;BndEvt__button_arrow_K2Node_ComponentBoundEvent_1_OnButtonHoverEvent__DelegateSignature__15</title>
<path fill="none" stroke="black" d="M2993.5,-613.83C2993.5,-606 2993.5,-596.57 2993.5,-587.74"/>
<polygon fill="black" stroke="black" points="2997,-587.78 2993.5,-577.78 2990,-587.78 2997,-587.78"/>
</g>
<!-- BndEvt__button_arrow_K2Node_ComponentBoundEvent_1_OnButtonHoverEvent__DelegateSignature__17 -->
<g id="node34" class="node">
<title>BndEvt__button_arrow_K2Node_ComponentBoundEvent_1_OnButtonHoverEvent__DelegateSignature__17</title>
<polygon fill="#eeeeee" stroke="black" points="5995.5,-75.5 5995.5,-111.5 6127.5,-111.5 6127.5,-75.5 5995.5,-75.5"/>
<text text-anchor="start" x="6003.5" y="-89.8" font-family="monospace" font-size="14.00">EX_EndOfScript</text>
</g>
<!-- BndEvt__Button_1_K2Node_ComponentBoundEvent_0_OnButtonClickedEvent__DelegateSignature -->
<g id="node35" class="node">
<title>BndEvt__Button_1_K2Node_ComponentBoundEvent_0_OnButtonClickedEvent__DelegateSignature</title>
<polygon fill="#ff8888" stroke="black" points="1745.5,-772 1745.5,-808 2537.5,-808 2537.5,-772 1745.5,-772"/>
<text text-anchor="start" x="1753.5" y="-786.3" font-family="monospace" font-size="14.00">Function BndEvt__Button_1_K2Node_ComponentBoundEvent_0_OnButtonClickedEvent__DelegateSignature</text>
</g>
<!-- BndEvt__Button_1_K2Node_ComponentBoundEvent_0_OnButtonClickedEvent__DelegateSignature__0 -->
<g id="node36" class="node">
<title>BndEvt__Button_1_K2Node_ComponentBoundEvent_0_OnButtonClickedEvent__DelegateSignature__0</title>
<polygon fill="#eeeeee" stroke="black" points="1799,-613.5 1799,-651.5 2542,-651.5 2542,-613.5 1799,-613.5"/>
<text text-anchor="start" x="1807" y="-636.3" font-family="monospace" font-size="14.00">EX_LocalFinalFunction export Basic_ArrowButton02_C&#45;&gt;ExecuteUbergraph_Basic_ArrowButton02</text>
<text text-anchor="start" x="1807" y="-621.3" font-family="monospace" font-size="14.00">  EX_IntConst 169</text>
</g>
<!-- BndEvt__Button_1_K2Node_ComponentBoundEvent_0_OnButtonClickedEvent__DelegateSignature&#45;&gt;BndEvt__Button_1_K2Node_ComponentBoundEvent_0_OnButtonClickedEvent__DelegateSignature__0 -->
<g id="edge25" class="edge">
<title>BndEvt__Button_1_K2Node_ComponentBoundEvent_0_OnButtonClickedEvent__DelegateSignature&#45;&gt;BndEvt__Button_1_K2Node_ComponentBoundEvent_0_OnButtonClickedEvent__DelegateSignature__0</title>
<path fill="none" stroke="black" d="M2144.66,-772.06C2149.57,-745.7 2159.11,-694.55 2165.13,-662.31"/>
<polygon fill="black" stroke="black" points="2168.5,-663.33 2166.89,-652.86 2161.62,-662.05 2168.5,-663.33"/>
</g>
<!-- BndEvt__Button_1_K2Node_ComponentBoundEvent_0_OnButtonClickedEvent__DelegateSignature__0&#45;&gt;ExecuteUbergraph_Basic_ArrowButton02__169 -->
<g id="edge26" class="edge">
<title>BndEvt__Button_1_K2Node_ComponentBoundEvent_0_OnButtonClickedEvent__DelegateSignature__0:e&#45;&gt;ExecuteUbergraph_Basic_ArrowButton02__169</title>
<path fill="none" stroke="red" d="M2543.5,-632.5C2568.6,-632.5 2627.03,-602.73 2666.41,-580.96"/>
<polygon fill="none" stroke="red" points="2667.88,-584.15 2674.91,-576.21 2664.47,-578.03 2667.88,-584.15"/>
</g>
<!-- BndEvt__Button_1_K2Node_ComponentBoundEvent_0_OnButtonClickedEvent__DelegateSignature__15 -->
<g id="node37" class="node">
<title>BndEvt__Button_1_K2Node_ComponentBoundEvent_0_OnButtonClickedEvent__DelegateSignature__15</title>
<polygon fill="#eeeeee" stroke="black" points="2112.5,-538.5 2112.5,-576.5 2228.5,-576.5 2228.5,-538.5 2112.5,-538.5"/>
<text text-anchor="start" x="2120.5" y="-561.3" font-family="monospace" font-size="14.00">EX_Return</text>
<text text-anchor="start" x="2120.5" y="-546.3" font-family="monospace" font-size="14.00">  EX_Nothing</text>
</g>
<!-- BndEvt__Button_1_K2Node_ComponentBoundEvent_0_OnButtonClickedEvent__DelegateSignature__0&#45;&gt;BndEvt__Button_1_K2Node_ComponentBoundEvent_0_OnButtonClickedEvent__DelegateSignature__15 -->
<g id="edge27" class="edge">
<title>BndEvt__Button_1_K2Node_ComponentBoundEvent_0_OnButtonClickedEvent__DelegateSignature__0&#45;&gt;BndEvt__Button_1_K2Node_ComponentBoundEvent_0_OnButtonClickedEvent__DelegateSignature__15</title>
<path fill="none" stroke="black" d="M2170.5,-613.83C2170.5,-606 2170.5,-596.57 2170.5,-587.74"/>
<polygon fill="black" stroke="black" points="2174,-587.78 2170.5,-577.78 2167,-587.78 2174,-587.78"/>
</g>
<!-- BndEvt__Button_1_K2Node_ComponentBoundEvent_0_OnButtonClickedEvent__DelegateSignature__17 -->
<g id="node38" class="node">
<title>BndEvt__Button_1_K2Node_ComponentBoundEvent_0_OnButtonClickedEvent__DelegateSignature__17</title>
<polygon fill="#eeeeee" stroke="black" points="4919.5,-1.5 4919.5,-37.5 5051.5,-37.5 5051.5,-1.5 4919.5,-1.5"/>
<text text-anchor="start" x="4927.5" y="-15.8" font-family="monospace" font-size="14.00">EX_EndOfScript</text>
</g>
<!-- PreConstruct -->
<g id="node39" class="node">
<title>PreConstruct</title>
<polygon fill="#ff8888" stroke="black" points="5904.5,-763.5 5904.5,-816.5 6374.5,-816.5 6374.5,-763.5 5904.5,-763.5"/>
<text text-anchor="start" x="5912.5" y="-801.3" font-family="monospace" font-size="14.00">Function PreConstruct</text>
<text text-anchor="start" x="5912.5" y="-786.3" font-family="monospace" font-size="14.00">  BoolProperty IsDesignTime</text>
<text text-anchor="start" x="5912.5" y="-771.3" font-family="monospace" font-size="14.00">    CPF_BlueprintVisible|CPF_BlueprintReadOnly|CPF_Parm</text>
</g>
<!-- PreConstruct__0 -->
<g id="node40" class="node">
<title>PreConstruct__0</title>
<polygon fill="#eeeeee" stroke="black" points="5866,-613.5 5866,-651.5 6345,-651.5 6345,-613.5 5866,-613.5"/>
<text text-anchor="start" x="5874" y="-636.3" font-family="monospace" font-size="14.00">EX_LetValueOnPersistentFrame [K2Node_Event_IsDesignTime]</text>
<text text-anchor="start" x="5874" y="-621.3" font-family="monospace" font-size="14.00">  EX_LocalVariable [IsDesignTime]</text>
</g>
<!-- PreConstruct&#45;&gt;PreConstruct__0 -->
<g id="edge28" class="edge">
<title>PreConstruct&#45;&gt;PreConstruct__0</title>
<path fill="none" stroke="black" d="M6133.96,-763.67C6127.88,-735.84 6118.12,-691.22 6111.76,-662.14"/>
<polygon fill="black" stroke="black" points="6115.22,-661.58 6109.67,-652.56 6108.38,-663.08 6115.22,-661.58"/>
</g>
<!-- PreConstruct__18 -->
<g id="node41" class="node">
<title>PreConstruct__18</title>
<polygon fill="#eeeeee" stroke="black" points="5647,-538.5 5647,-576.5 6390,-576.5 6390,-538.5 5647,-538.5"/>
<text text-anchor="start" x="5655" y="-561.3" font-family="monospace" font-size="14.00">EX_LocalFinalFunction export Basic_ArrowButton02_C&#45;&gt;ExecuteUbergraph_Basic_ArrowButton02</text>
<text text-anchor="start" x="5655" y="-546.3" font-family="monospace" font-size="14.00">  EX_IntConst 10</text>
</g>
<!-- PreConstruct__0&#45;&gt;PreConstruct__18 -->
<g id="edge29" class="edge">
<title>PreConstruct__0&#45;&gt;PreConstruct__18</title>
<path fill="none" stroke="black" d="M6084.44,-613.83C6073.62,-604.75 6060.25,-593.53 6048.38,-583.57"/>
<polygon fill="black" stroke="black" points="6050.74,-580.98 6040.83,-577.23 6046.24,-586.34 6050.74,-580.98"/>
</g>
<!-- PreConstruct__18&#45;&gt;ExecuteUbergraph_Basic_ArrowButton02__10 -->
<g id="edge30" class="edge">
<title>PreConstruct__18:e&#45;&gt;ExecuteUbergraph_Basic_ArrowButton02__10</title>
<path fill="none" stroke="red" d="M6391.5,-557.5C6412.04,-557.5 6412.68,-535.37 6407.77,-512.31"/>
<polygon fill="none" stroke="red" points="6411.22,-511.71 6405.43,-502.84 6404.43,-513.38 6411.22,-511.71"/>
</g>
<!-- PreConstruct__33 -->
<g id="node42" class="node">
<title>PreConstruct__33</title>
<polygon fill="#eeeeee" stroke="black" points="5959.5,-441 5959.5,-479 6075.5,-479 6075.5,-441 5959.5,-441"/>
<text text-anchor="start" x="5967.5" y="-463.8" font-family="monospace" font-size="14.00">EX_Return</text>
<text text-anchor="start" x="5967.5" y="-448.8" font-family="monospace" font-size="14.00">  EX_Nothing</text>
</g>
<!-- PreConstruct__18&#45;&gt;PreConstruct__33 -->
<g id="edge31" class="edge">
<title>PreConstruct__18&#45;&gt;PreConstruct__33</title>
<path fill="none" stroke="black" d="M6018.31,-538.54C6018.17,-524.93 6017.97,-505.95 6017.81,-490.18"/>
<polygon fill="black" stroke="black" points="6021.31,-490.36 6017.7,-480.4 6014.31,-490.43 6021.31,-490.36"/>
</g>
<!-- PreConstruct__35 -->
<g id="node43" class="node">
<title>PreConstruct__35</title>
<polygon fill="#eeeeee" stroke="black" points="6392.5,-772 6392.5,-808 6524.5,-808 6524.5,-772 6392.5,-772"/>
<text text-anchor="start" x="6400.5" y="-786.3" font-family="monospace" font-size="14.00">EX_EndOfScript</text>
</g>
</g>
</svg>
