<?xml version="1.0" encoding="UTF-8" standalone="no"?>
<!DOCTYPE svg PUBLIC "-//W3C//DTD SVG 1.1//EN"
 "http://www.w3.org/Graphics/SVG/1.1/DTD/svg11.dtd">
<!-- Generated by graphviz version 7.0.1 (0)
 -->
<!-- Pages: 1 -->
<svg width="3350pt" height="2400pt"
 viewBox="0.00 0.00 3350.00 2400.00" xmlns="http://www.w3.org/2000/svg" xmlns:xlink="http://www.w3.org/1999/xlink">
<g id="graph0" class="graph" transform="scale(1 1) rotate(0) translate(4 2396)">
<polygon fill="white" stroke="none" points="-4,4 -4,-2396 3346,-2396 3346,4 -4,4"/>
<!-- Basic_ResourceIcon_C -->
<g id="node1" class="node">
<title>Basic_ResourceIcon_C</title>
<polygon fill="#88ff88" stroke="black" points="0,-2188.5 0,-2391.5 850,-2391.5 850,-2188.5 0,-2188.5"/>
<text text-anchor="start" x="8" y="-2376.3" font-family="monospace" font-size="14.00">ClassExport: Basic_ResourceIcon_C</text>
<text text-anchor="start" x="8" y="-2361.3" font-family="monospace" font-size="14.00">  SuperStruct: import /Script/UMG&#45;&gt;UserWidget</text>
<text text-anchor="start" x="8" y="-2346.3" font-family="monospace" font-size="14.00">  Properties:</text>
<text text-anchor="start" x="8" y="-2331.3" font-family="monospace" font-size="14.00">    StructProperty UberGraphFrame</text>
<text text-anchor="start" x="8" y="-2316.3" font-family="monospace" font-size="14.00">      CPF_Transient|CPF_DuplicateTransient</text>
<text text-anchor="start" x="8" y="-2301.3" font-family="monospace" font-size="14.00">    ObjectProperty ResourceIcon</text>
<text text-anchor="start" x="8" y="-2286.3" font-family="monospace" font-size="14.00">      CPF_BlueprintVisible|CPF_ExportObject|CPF_InstancedReference|CPF_RepSkip|CPF_PersistentInstance</text>
<text text-anchor="start" x="8" y="-2271.3" font-family="monospace" font-size="14.00">    FloatProperty IconSize</text>
<text text-anchor="start" x="8" y="-2256.3" font-family="monospace" font-size="14.00">      CPF_Edit|CPF_BlueprintVisible</text>
<text text-anchor="start" x="8" y="-2241.3" font-family="monospace" font-size="14.00">    ObjectProperty ToolTip</text>
<text text-anchor="start" x="8" y="-2226.3" font-family="monospace" font-size="14.00">      CPF_Edit|CPF_BlueprintVisible|CPF_DisableEditOnInstance|CPF_InstancedReference</text>
<text text-anchor="start" x="8" y="-2211.3" font-family="monospace" font-size="14.00">    BoolProperty ShowToolTip</text>
<text text-anchor="start" x="8" y="-2196.3" font-family="monospace" font-size="14.00">      CPF_Edit|CPF_BlueprintVisible|CPF_ExposeOnSpawn</text>
</g>
<!-- ExecuteUbergraph_Basic_ResourceIcon -->
<g id="node2" class="node">
<title>ExecuteUbergraph_Basic_ResourceIcon</title>
<polygon fill="#ff8888" stroke="black" points="868,-2256 868,-2324 1338,-2324 1338,-2256 868,-2256"/>
<text text-anchor="start" x="876" y="-2308.8" font-family="monospace" font-size="14.00">Function ExecuteUbergraph_Basic_ResourceIcon</text>
<text text-anchor="start" x="876" y="-2293.8" font-family="monospace" font-size="14.00">  IntProperty EntryPoint</text>
<text text-anchor="start" x="876" y="-2278.8" font-family="monospace" font-size="14.00">    CPF_BlueprintVisible|CPF_BlueprintReadOnly|CPF_Parm</text>
<text text-anchor="start" x="876" y="-2263.8" font-family="monospace" font-size="14.00">  BoolProperty K2Node_Event_IsDesignTime</text>
</g>
<!-- ExecuteUbergraph_Basic_ResourceIcon__0 -->
<g id="node3" class="node">
<title>ExecuteUbergraph_Basic_ResourceIcon__0</title>
<polygon fill="#eeeeee" stroke="black" points="967,-2061.5 967,-2099.5 1239,-2099.5 1239,-2061.5 967,-2061.5"/>
<text text-anchor="start" x="975" y="-2084.3" font-family="monospace" font-size="14.00">EX_ComputedJump</text>
<text text-anchor="start" x="975" y="-2069.3" font-family="monospace" font-size="14.00">  EX_LocalVariable [EntryPoint]</text>
</g>
<!-- ExecuteUbergraph_Basic_ResourceIcon&#45;&gt;ExecuteUbergraph_Basic_ResourceIcon__0 -->
<g id="edge1" class="edge">
<title>ExecuteUbergraph_Basic_ResourceIcon&#45;&gt;ExecuteUbergraph_Basic_ResourceIcon__0</title>
<path fill="none" stroke="black" d="M1103,-2256.12C1103,-2216.11 1103,-2149.17 1103,-2110.83"/>
<polygon fill="black" stroke="black" points="1106.5,-2110.98 1103,-2100.98 1099.5,-2110.98 1106.5,-2110.98"/>
</g>
<!-- ExecuteUbergraph_Basic_ResourceIcon__10 -->
<g id="node4" class="node">
<title>ExecuteUbergraph_Basic_ResourceIcon__10</title>
<polygon fill="#eeeeee" stroke="black" points="1801.5,-1568 1801.5,-1606 2106.5,-1606 2106.5,-1568 1801.5,-1568"/>
<text text-anchor="start" x="1809.5" y="-1590.8" font-family="monospace" font-size="14.00">EX_LocalVirtualFunction SetIconSize</text>
<text text-anchor="start" x="1809.5" y="-1575.8" font-family="monospace" font-size="14.00">  EX_InstanceVariable [IconSize]</text>
</g>
<!-- ExecuteUbergraph_Basic_ResourceIcon__33 -->
<g id="node5" class="node">
<title>ExecuteUbergraph_Basic_ResourceIcon__33</title>
<polygon fill="#eeeeee" stroke="black" points="1904.5,-1397 1904.5,-1433 2003.5,-1433 2003.5,-1397 1904.5,-1397"/>
<text text-anchor="start" x="1912.5" y="-1411.3" font-family="monospace" font-size="14.00">EX_Jump 43</text>
</g>
<!-- ExecuteUbergraph_Basic_ResourceIcon__10&#45;&gt;ExecuteUbergraph_Basic_ResourceIcon__33 -->
<g id="edge2" class="edge">
<title>ExecuteUbergraph_Basic_ResourceIcon__10&#45;&gt;ExecuteUbergraph_Basic_ResourceIcon__33</title>
<path fill="none" stroke="black" d="M1954,-1568.13C1954,-1538.54 1954,-1479.16 1954,-1443.97"/>
<polygon fill="black" stroke="black" points="1957.5,-1444.14 1954,-1434.14 1950.5,-1444.14 1957.5,-1444.14"/>
</g>
<!-- ExecuteUbergraph_Basic_ResourceIcon__43 -->
<g id="node7" class="node">
<title>ExecuteUbergraph_Basic_ResourceIcon__43</title>
<polygon fill="#eeeeee" stroke="black" points="1896,-1305 1896,-1343 2012,-1343 2012,-1305 1896,-1305"/>
<text text-anchor="start" x="1904" y="-1327.8" font-family="monospace" font-size="14.00">EX_Return</text>
<text text-anchor="start" x="1904" y="-1312.8" font-family="monospace" font-size="14.00">  EX_Nothing</text>
</g>
<!-- ExecuteUbergraph_Basic_ResourceIcon__33&#45;&gt;ExecuteUbergraph_Basic_ResourceIcon__43 -->
<g id="edge3" class="edge">
<title>ExecuteUbergraph_Basic_ResourceIcon__33&#45;&gt;ExecuteUbergraph_Basic_ResourceIcon__43</title>
<path fill="none" stroke="black" d="M1954,-1397.26C1954,-1385.14 1954,-1368.46 1954,-1354.17"/>
<polygon fill="black" stroke="black" points="1957.5,-1354.4 1954,-1344.4 1950.5,-1354.4 1957.5,-1354.4"/>
</g>
<!-- ExecuteUbergraph_Basic_ResourceIcon__38 -->
<g id="node6" class="node">
<title>ExecuteUbergraph_Basic_ResourceIcon__38</title>
<polygon fill="#eeeeee" stroke="black" points="1904.5,-1756 1904.5,-1792 2003.5,-1792 2003.5,-1756 1904.5,-1756"/>
<text text-anchor="start" x="1912.5" y="-1770.3" font-family="monospace" font-size="14.00">EX_Jump 10</text>
</g>
<!-- ExecuteUbergraph_Basic_ResourceIcon__38&#45;&gt;ExecuteUbergraph_Basic_ResourceIcon__10 -->
<g id="edge4" class="edge">
<title>ExecuteUbergraph_Basic_ResourceIcon__38&#45;&gt;ExecuteUbergraph_Basic_ResourceIcon__10</title>
<path fill="none" stroke="black" d="M1954,-1756.26C1954,-1724.81 1954,-1656.55 1954,-1617.32"/>
<polygon fill="black" stroke="black" points="1957.5,-1617.44 1954,-1607.44 1950.5,-1617.44 1957.5,-1617.44"/>
</g>
<!-- ExecuteUbergraph_Basic_ResourceIcon__45 -->
<g id="node8" class="node">
<title>ExecuteUbergraph_Basic_ResourceIcon__45</title>
<polygon fill="#eeeeee" stroke="black" points="1917,-2133.5 1917,-2169.5 2049,-2169.5 2049,-2133.5 1917,-2133.5"/>
<text text-anchor="start" x="1925" y="-2147.8" font-family="monospace" font-size="14.00">EX_EndOfScript</text>
</g>
<!-- PreConstruct -->
<g id="node9" class="node">
<title>PreConstruct</title>
<polygon fill="#ff8888" stroke="black" points="1356,-2263.5 1356,-2316.5 1826,-2316.5 1826,-2263.5 1356,-2263.5"/>
<text text-anchor="start" x="1364" y="-2301.3" font-family="monospace" font-size="14.00">Function PreConstruct</text>
<text text-anchor="start" x="1364" y="-2286.3" font-family="monospace" font-size="14.00">  BoolProperty IsDesignTime</text>
<text text-anchor="start" x="1364" y="-2271.3" font-family="monospace" font-size="14.00">    CPF_BlueprintVisible|CPF_BlueprintReadOnly|CPF_Parm</text>
</g>
<!-- PreConstruct__0 -->
<g id="node10" class="node">
<title>PreConstruct__0</title>
<polygon fill="#eeeeee" stroke="black" points="1351.5,-2061.5 1351.5,-2099.5 1830.5,-2099.5 1830.5,-2061.5 1351.5,-2061.5"/>
<text text-anchor="start" x="1359.5" y="-2084.3" font-family="monospace" font-size="14.00">EX_LetValueOnPersistentFrame [K2Node_Event_IsDesignTime]</text>
<text text-anchor="start" x="1359.5" y="-2069.3" font-family="monospace" font-size="14.00">  EX_LocalVariable [IsDesignTime]</text>
</g>
<!-- PreConstruct&#45;&gt;PreConstruct__0 -->
<g id="edge5" class="edge">
<title>PreConstruct&#45;&gt;PreConstruct__0</title>
<path fill="none" stroke="black" d="M1591,-2263.56C1591,-2224.83 1591,-2151.31 1591,-2110.55"/>
<polygon fill="black" stroke="black" points="1594.5,-2110.77 1591,-2100.77 1587.5,-2110.77 1594.5,-2110.77"/>
</g>
<!-- PreConstruct__18 -->
<g id="node11" class="node">
<title>PreConstruct__18</title>
<polygon fill="#eeeeee" stroke="black" points="1228,-1912 1228,-1950 1954,-1950 1954,-1912 1228,-1912"/>
<text text-anchor="start" x="1236" y="-1934.8" font-family="monospace" font-size="14.00">EX_LocalFinalFunction export Basic_ResourceIcon_C&#45;&gt;ExecuteUbergraph_Basic_ResourceIcon</text>
<text text-anchor="start" x="1236" y="-1919.8" font-family="monospace" font-size="14.00">  EX_IntConst 38</text>
</g>
<!-- PreConstruct__0&#45;&gt;PreConstruct__18 -->
<g id="edge6" class="edge">
<title>PreConstruct__0&#45;&gt;PreConstruct__18</title>
<path fill="none" stroke="black" d="M1591,-2061.71C1591,-2036.79 1591,-1991.2 1591,-1961.25"/>
<polygon fill="black" stroke="black" points="1594.5,-1961.37 1591,-1951.37 1587.5,-1961.37 1594.5,-1961.37"/>
</g>
<!-- PreConstruct__18&#45;&gt;ExecuteUbergraph_Basic_ResourceIcon__38 -->
<g id="edge7" class="edge">
<title>PreConstruct__18:e&#45;&gt;ExecuteUbergraph_Basic_ResourceIcon__38</title>
<path fill="none" stroke="red" d="M1955,-1931C2005.7,-1931 1981.72,-1847.58 1965.16,-1802.74"/>
<polygon fill="none" stroke="red" points="1968.44,-1801.5 1961.6,-1793.41 1961.89,-1804 1968.44,-1801.5"/>
</g>
<!-- PreConstruct__33 -->
<g id="node12" class="node">
<title>PreConstruct__33</title>
<polygon fill="#eeeeee" stroke="black" points="1533,-1755 1533,-1793 1649,-1793 1649,-1755 1533,-1755"/>
<text text-anchor="start" x="1541" y="-1777.8" font-family="monospace" font-size="14.00">EX_Return</text>
<text text-anchor="start" x="1541" y="-1762.8" font-family="monospace" font-size="14.00">  EX_Nothing</text>
</g>
<!-- PreConstruct__18&#45;&gt;PreConstruct__33 -->
<g id="edge8" class="edge">
<title>PreConstruct__18&#45;&gt;PreConstruct__33</title>
<path fill="none" stroke="black" d="M1591,-1912.22C1591,-1885.71 1591,-1835.54 1591,-1803.76"/>
<polygon fill="black" stroke="black" points="1594.5,-1804.09 1591,-1794.09 1587.5,-1804.09 1594.5,-1804.09"/>
</g>
<!-- PreConstruct__35 -->
<g id="node13" class="node">
<title>PreConstruct__35</title>
<polygon fill="#eeeeee" stroke="black" points="1917,-1991.5 1917,-2027.5 2049,-2027.5 2049,-1991.5 1917,-1991.5"/>
<text text-anchor="start" x="1925" y="-2005.8" font-family="monospace" font-size="14.00">EX_EndOfScript</text>
</g>
<!-- SetResource -->
<g id="node14" class="node">
<title>SetResource</title>
<polygon fill="#ff8888" stroke="black" points="2126.5,-2196 2126.5,-2384 2621.5,-2384 2621.5,-2196 2126.5,-2196"/>
<text text-anchor="start" x="2134.5" y="-2368.8" font-family="monospace" font-size="14.00">Function SetResource</text>
<text text-anchor="start" x="2134.5" y="-2353.8" font-family="monospace" font-size="14.00">  ObjectProperty Resource</text>
<text text-anchor="start" x="2134.5" y="-2338.8" font-family="monospace" font-size="14.00">    CPF_BlueprintVisible|CPF_BlueprintReadOnly|CPF_Parm</text>
<text text-anchor="start" x="2134.5" y="-2323.8" font-family="monospace" font-size="14.00">  EnumProperty Temp_byte_Variable</text>
<text text-anchor="start" x="2134.5" y="-2308.8" font-family="monospace" font-size="14.00">  BoolProperty CallFunc_IsValid_ReturnValue</text>
<text text-anchor="start" x="2134.5" y="-2293.8" font-family="monospace" font-size="14.00">  EnumProperty Temp_byte_Variable_1</text>
<text text-anchor="start" x="2134.5" y="-2278.8" font-family="monospace" font-size="14.00">  BoolProperty Temp_bool_Variable</text>
<text text-anchor="start" x="2134.5" y="-2263.8" font-family="monospace" font-size="14.00">  BoolProperty CallFunc_IsValid_ReturnValue_1</text>
<text text-anchor="start" x="2134.5" y="-2248.8" font-family="monospace" font-size="14.00">  EnumProperty K2Node_Select_Default</text>
<text text-anchor="start" x="2134.5" y="-2233.8" font-family="monospace" font-size="14.00">  BoolProperty CallFunc_IsValid_ReturnValue_2</text>
<text text-anchor="start" x="2134.5" y="-2218.8" font-family="monospace" font-size="14.00">  ObjectProperty CallFunc_CreateBasicToolTip_ToolTipWidget</text>
<text text-anchor="start" x="2134.5" y="-2203.8" font-family="monospace" font-size="14.00">    CPF_InstancedReference</text>
</g>
<!-- SetResource__0 -->
<g id="node15" class="node">
<title>SetResource__0</title>
<polygon fill="#eeeeee" stroke="black" points="2097.5,-2046.5 2097.5,-2114.5 2650.5,-2114.5 2650.5,-2046.5 2097.5,-2046.5"/>
<text text-anchor="start" x="2105.5" y="-2099.3" font-family="monospace" font-size="14.00">EX_LetBool</text>
<text text-anchor="start" x="2105.5" y="-2084.3" font-family="monospace" font-size="14.00">  EX_LocalVariable [CallFunc_IsValid_ReturnValue]</text>
<text text-anchor="start" x="2105.5" y="-2069.3" font-family="monospace" font-size="14.00">  EX_CallMath import /Script/Engine&#45;&gt;KismetSystemLibrary&#45;&gt;IsValid</text>
<text text-anchor="start" x="2105.5" y="-2054.3" font-family="monospace" font-size="14.00">    EX_LocalVariable [Resource]</text>
</g>
<!-- SetResource&#45;&gt;SetResource__0 -->
<g id="edge9" class="edge">
<title>SetResource&#45;&gt;SetResource__0</title>
<path fill="none" stroke="black" d="M2374,-2196.17C2374,-2171.52 2374,-2146.04 2374,-2125.38"/>
<polygon fill="black" stroke="black" points="2377.5,-2125.64 2374,-2115.64 2370.5,-2125.64 2377.5,-2125.64"/>
</g>
<!-- SetResource__29 -->
<g id="node16" class="node">
<title>SetResource__29</title>
<polygon fill="#eeeeee" stroke="black" points="2163.5,-1912 2163.5,-1950 2584.5,-1950 2584.5,-1912 2163.5,-1912"/>
<text text-anchor="start" x="2171.5" y="-1934.8" font-family="monospace" font-size="14.00">EX_JumpIfNot 477</text>
<text text-anchor="start" x="2171.5" y="-1919.8" font-family="monospace" font-size="14.00">  EX_LocalVariable [CallFunc_IsValid_ReturnValue]</text>
</g>
<!-- SetResource__0&#45;&gt;SetResource__29 -->
<g id="edge10" class="edge">
<title>SetResource__0&#45;&gt;SetResource__29</title>
<path fill="none" stroke="black" d="M2374,-2046.76C2374,-2021.21 2374,-1986.02 2374,-1961.36"/>
<polygon fill="black" stroke="black" points="2377.5,-1961.38 2374,-1951.38 2370.5,-1961.38 2377.5,-1961.38"/>
</g>
<!-- SetResource__43 -->
<g id="node17" class="node">
<title>SetResource__43</title>
<polygon fill="#eeeeee" stroke="black" points="2141,-1732.5 2141,-1815.5 2455,-1815.5 2455,-1732.5 2141,-1732.5"/>
<text text-anchor="start" x="2149" y="-1800.3" font-family="monospace" font-size="14.00">EX_Context</text>
<text text-anchor="start" x="2149" y="-1785.3" font-family="monospace" font-size="14.00">  EX_InstanceVariable [ResourceIcon]</text>
<text text-anchor="start" x="2149" y="-1770.3" font-family="monospace" font-size="14.00">  EX_VirtualFunction SetVisibility</text>
<text text-anchor="start" x="2149" y="-1755.3" font-family="monospace" font-size="14.00">    EX_ByteConst 4</text>
<text text-anchor="start" x="2149" y="-1740.3" font-family="monospace" font-size="14.00">  RValue = []</text>
</g>
<!-- SetResource__29&#45;&gt;SetResource__43 -->
<g id="edge12" class="edge">
<title>SetResource__29&#45;&gt;SetResource__43</title>
<path fill="none" stroke="black" d="M2365.28,-1912.22C2354.99,-1891.24 2337.44,-1855.43 2322.84,-1825.66"/>
<polygon fill="black" stroke="black" points="2326.03,-1824.21 2318.48,-1816.77 2319.74,-1827.29 2326.03,-1824.21"/>
<text text-anchor="middle" x="2354.5" y="-1848.8" font-family="monospace" font-size="14.00">IF</text>
</g>
<!-- SetResource__477 -->
<g id="node29" class="node">
<title>SetResource__477</title>
<polygon fill="#eeeeee" stroke="black" points="2473,-1732.5 2473,-1815.5 2787,-1815.5 2787,-1732.5 2473,-1732.5"/>
<text text-anchor="start" x="2481" y="-1800.3" font-family="monospace" font-size="14.00">EX_Context</text>
<text text-anchor="start" x="2481" y="-1785.3" font-family="monospace" font-size="14.00">  EX_InstanceVariable [ResourceIcon]</text>
<text text-anchor="start" x="2481" y="-1770.3" font-family="monospace" font-size="14.00">  EX_VirtualFunction SetVisibility</text>
<text text-anchor="start" x="2481" y="-1755.3" font-family="monospace" font-size="14.00">    EX_ByteConst 2</text>
<text text-anchor="start" x="2481" y="-1740.3" font-family="monospace" font-size="14.00">  RValue = []</text>
</g>
<!-- SetResource__29&#45;&gt;SetResource__477 -->
<g id="edge11" class="edge">
<title>SetResource__29:e&#45;&gt;SetResource__477</title>
<path fill="none" stroke="red" d="M2586,-1931C2630.36,-1931 2636.77,-1871.85 2635.15,-1826.39"/>
<polygon fill="none" stroke="red" points="2638.66,-1826.5 2634.66,-1816.69 2631.67,-1826.85 2638.66,-1826.5"/>
<text text-anchor="middle" x="2661" y="-1848.8" font-family="monospace" font-size="14.00">IF NOT</text>
</g>
<!-- SetResource__81 -->
<g id="node18" class="node">
<title>SetResource__81</title>
<polygon fill="#eeeeee" stroke="black" points="2124.5,-1515.5 2124.5,-1658.5 2471.5,-1658.5 2471.5,-1515.5 2124.5,-1515.5"/>
<text text-anchor="start" x="2132.5" y="-1643.3" font-family="monospace" font-size="14.00">EX_Context</text>
<text text-anchor="start" x="2132.5" y="-1628.3" font-family="monospace" font-size="14.00">  EX_InstanceVariable [ResourceIcon]</text>
<text text-anchor="start" x="2132.5" y="-1613.3" font-family="monospace" font-size="14.00">  EX_VirtualFunction SetBrushFromTexture</text>
<text text-anchor="start" x="2132.5" y="-1598.3" font-family="monospace" font-size="14.00">    EX_Context</text>
<text text-anchor="start" x="2132.5" y="-1583.3" font-family="monospace" font-size="14.00">      EX_LocalVariable [Resource]</text>
<text text-anchor="start" x="2132.5" y="-1568.3" font-family="monospace" font-size="14.00">      EX_InstanceVariable [Icon]</text>
<text text-anchor="start" x="2132.5" y="-1553.3" font-family="monospace" font-size="14.00">      RValue = [Icon]</text>
<text text-anchor="start" x="2132.5" y="-1538.3" font-family="monospace" font-size="14.00">    EX_False</text>
<text text-anchor="start" x="2132.5" y="-1523.3" font-family="monospace" font-size="14.00">  RValue = []</text>
</g>
<!-- SetResource__43&#45;&gt;SetResource__81 -->
<g id="edge13" class="edge">
<title>SetResource__43&#45;&gt;SetResource__81</title>
<path fill="none" stroke="black" d="M2298,-1732.86C2298,-1714.31 2298,-1691.57 2298,-1669.65"/>
<polygon fill="black" stroke="black" points="2301.5,-1669.8 2298,-1659.8 2294.5,-1669.8 2301.5,-1669.8"/>
</g>
<!-- SetResource__149 -->
<g id="node19" class="node">
<title>SetResource__149</title>
<polygon fill="#eeeeee" stroke="black" points="2129,-1388.5 2129,-1441.5 2467,-1441.5 2467,-1388.5 2129,-1388.5"/>
<text text-anchor="start" x="2137" y="-1426.3" font-family="monospace" font-size="14.00">EX_Let</text>
<text text-anchor="start" x="2137" y="-1411.3" font-family="monospace" font-size="14.00">  EX_LocalVariable [Temp_byte_Variable]</text>
<text text-anchor="start" x="2137" y="-1396.3" font-family="monospace" font-size="14.00">  EX_ByteConst 3</text>
</g>
<!-- SetResource__81&#45;&gt;SetResource__149 -->
<g id="edge14" class="edge">
<title>SetResource__81&#45;&gt;SetResource__149</title>
<path fill="none" stroke="black" d="M2298,-1515.87C2298,-1494.27 2298,-1471.33 2298,-1452.9"/>
<polygon fill="black" stroke="black" points="2301.5,-1453.01 2298,-1443.01 2294.5,-1453.01 2301.5,-1453.01"/>
</g>
<!-- SetResource__169 -->
<g id="node20" class="node">
<title>SetResource__169</title>
<polygon fill="#eeeeee" stroke="black" points="2120.5,-1297.5 2120.5,-1350.5 2475.5,-1350.5 2475.5,-1297.5 2120.5,-1297.5"/>
<text text-anchor="start" x="2128.5" y="-1335.3" font-family="monospace" font-size="14.00">EX_Let</text>
<text text-anchor="start" x="2128.5" y="-1320.3" font-family="monospace" font-size="14.00">  EX_LocalVariable [Temp_byte_Variable_1]</text>
<text text-anchor="start" x="2128.5" y="-1305.3" font-family="monospace" font-size="14.00">  EX_ByteConst 2</text>
</g>
<!-- SetResource__149&#45;&gt;SetResource__169 -->
<g id="edge15" class="edge">
<title>SetResource__149&#45;&gt;SetResource__169</title>
<path fill="none" stroke="black" d="M2298,-1388.73C2298,-1380.37 2298,-1370.89 2298,-1361.84"/>
<polygon fill="black" stroke="black" points="2301.5,-1361.84 2298,-1351.84 2294.5,-1361.84 2301.5,-1361.84"/>
</g>
<!-- SetResource__189 -->
<g id="node21" class="node">
<title>SetResource__189</title>
<polygon fill="#eeeeee" stroke="black" points="2021.5,-1146.5 2021.5,-1259.5 2574.5,-1259.5 2574.5,-1146.5 2021.5,-1146.5"/>
<text text-anchor="start" x="2029.5" y="-1244.3" font-family="monospace" font-size="14.00">EX_LetBool</text>
<text text-anchor="start" x="2029.5" y="-1229.3" font-family="monospace" font-size="14.00">  EX_LocalVariable [CallFunc_IsValid_ReturnValue_1]</text>
<text text-anchor="start" x="2029.5" y="-1214.3" font-family="monospace" font-size="14.00">  EX_CallMath import /Script/Engine&#45;&gt;KismetSystemLibrary&#45;&gt;IsValid</text>
<text text-anchor="start" x="2029.5" y="-1199.3" font-family="monospace" font-size="14.00">    EX_Context</text>
<text text-anchor="start" x="2029.5" y="-1184.3" font-family="monospace" font-size="14.00">      EX_LocalVariable [Resource]</text>
<text text-anchor="start" x="2029.5" y="-1169.3" font-family="monospace" font-size="14.00">      EX_InstanceVariable [Icon]</text>
<text text-anchor="start" x="2029.5" y="-1154.3" font-family="monospace" font-size="14.00">      RValue = [Icon]</text>
</g>
<!-- SetResource__169&#45;&gt;SetResource__189 -->
<g id="edge16" class="edge">
<title>SetResource__169&#45;&gt;SetResource__189</title>
<path fill="none" stroke="black" d="M2298,-1297.76C2298,-1289.62 2298,-1280.19 2298,-1270.5"/>
<polygon fill="black" stroke="black" points="2301.5,-1270.58 2298,-1260.58 2294.5,-1270.58 2301.5,-1270.58"/>
</g>
<!-- SetResource__240 -->
<g id="node22" class="node">
<title>SetResource__240</title>
<polygon fill="#eeeeee" stroke="black" points="2079.5,-1055.5 2079.5,-1108.5 2516.5,-1108.5 2516.5,-1055.5 2079.5,-1055.5"/>
<text text-anchor="start" x="2087.5" y="-1093.3" font-family="monospace" font-size="14.00">EX_LetBool</text>
<text text-anchor="start" x="2087.5" y="-1078.3" font-family="monospace" font-size="14.00">  EX_LocalVariable [Temp_bool_Variable]</text>
<text text-anchor="start" x="2087.5" y="-1063.3" font-family="monospace" font-size="14.00">  EX_LocalVariable [CallFunc_IsValid_ReturnValue_1]</text>
</g>
<!-- SetResource__189&#45;&gt;SetResource__240 -->
<g id="edge17" class="edge">
<title>SetResource__189&#45;&gt;SetResource__240</title>
<path fill="none" stroke="black" d="M2298,-1146.68C2298,-1137.6 2298,-1128.4 2298,-1119.91"/>
<polygon fill="black" stroke="black" points="2301.5,-1120 2298,-1110 2294.5,-1120 2301.5,-1120"/>
</g>
<!-- SetResource__259 -->
<g id="node23" class="node">
<title>SetResource__259</title>
<polygon fill="#eeeeee" stroke="black" points="2091.5,-754.5 2091.5,-1017.5 2504.5,-1017.5 2504.5,-754.5 2091.5,-754.5"/>
<text text-anchor="start" x="2099.5" y="-1002.3" font-family="monospace" font-size="14.00">EX_Context</text>
<text text-anchor="start" x="2099.5" y="-987.3" font-family="monospace" font-size="14.00">  EX_InstanceVariable [ResourceIcon]</text>
<text text-anchor="start" x="2099.5" y="-972.3" font-family="monospace" font-size="14.00">  EX_VirtualFunction SetVisibility</text>
<text text-anchor="start" x="2099.5" y="-957.3" font-family="monospace" font-size="14.00">    EX_SwitchValue</text>
<text text-anchor="start" x="2099.5" y="-942.3" font-family="monospace" font-size="14.00">      EX_LocalVariable [Temp_bool_Variable]</text>
<text text-anchor="start" x="2099.5" y="-927.3" font-family="monospace" font-size="14.00">      OffsetToSwitchEnd = 347</text>
<text text-anchor="start" x="2099.5" y="-912.3" font-family="monospace" font-size="14.00">      case 0:</text>
<text text-anchor="start" x="2099.5" y="-897.3" font-family="monospace" font-size="14.00">        EX_False</text>
<text text-anchor="start" x="2099.5" y="-882.3" font-family="monospace" font-size="14.00">        NextCaseOffset = 324</text>
<text text-anchor="start" x="2099.5" y="-867.3" font-family="monospace" font-size="14.00">        EX_LocalVariable [Temp_byte_Variable_1]</text>
<text text-anchor="start" x="2099.5" y="-852.3" font-family="monospace" font-size="14.00">      case 1:</text>
<text text-anchor="start" x="2099.5" y="-837.3" font-family="monospace" font-size="14.00">        EX_True</text>
<text text-anchor="start" x="2099.5" y="-822.3" font-family="monospace" font-size="14.00">        NextCaseOffset = 338</text>
<text text-anchor="start" x="2099.5" y="-807.3" font-family="monospace" font-size="14.00">        EX_LocalVariable [Temp_byte_Variable]</text>
<text text-anchor="start" x="2099.5" y="-792.3" font-family="monospace" font-size="14.00">      default:</text>
<text text-anchor="start" x="2099.5" y="-777.3" font-family="monospace" font-size="14.00">        EX_LocalVariable [K2Node_Select_Default]</text>
<text text-anchor="start" x="2099.5" y="-762.3" font-family="monospace" font-size="14.00">  RValue = []</text>
</g>
<!-- SetResource__240&#45;&gt;SetResource__259 -->
<g id="edge18" class="edge">
<title>SetResource__240&#45;&gt;SetResource__259</title>
<path fill="none" stroke="black" d="M2298,-1055.64C2298,-1047.79 2298,-1038.54 2298,-1028.46"/>
<polygon fill="black" stroke="black" points="2301.5,-1028.76 2298,-1018.76 2294.5,-1028.76 2301.5,-1028.76"/>
</g>
<!-- SetResource__348 -->
<g id="node24" class="node">
<title>SetResource__348</title>
<polygon fill="#eeeeee" stroke="black" points="2145.5,-678.5 2145.5,-716.5 2450.5,-716.5 2450.5,-678.5 2145.5,-678.5"/>
<text text-anchor="start" x="2153.5" y="-701.3" font-family="monospace" font-size="14.00">EX_JumpIfNot 673</text>
<text text-anchor="start" x="2153.5" y="-686.3" font-family="monospace" font-size="14.00">  EX_InstanceVariable [ShowToolTip]</text>
</g>
<!-- SetResource__259&#45;&gt;SetResource__348 -->
<g id="edge19" class="edge">
<title>SetResource__259&#45;&gt;SetResource__348</title>
<path fill="none" stroke="black" d="M2298,-754.71C2298,-744.87 2298,-735.69 2298,-727.71"/>
<polygon fill="black" stroke="black" points="2301.5,-727.77 2298,-717.77 2294.5,-727.77 2301.5,-727.77"/>
</g>
<!-- SetResource__362 -->
<g id="node25" class="node">
<title>SetResource__362</title>
<polygon fill="#eeeeee" stroke="black" points="1914.5,-558.5 1914.5,-626.5 2467.5,-626.5 2467.5,-558.5 1914.5,-558.5"/>
<text text-anchor="start" x="1922.5" y="-611.3" font-family="monospace" font-size="14.00">EX_LetBool</text>
<text text-anchor="start" x="1922.5" y="-596.3" font-family="monospace" font-size="14.00">  EX_LocalVariable [CallFunc_IsValid_ReturnValue_2]</text>
<text text-anchor="start" x="1922.5" y="-581.3" font-family="monospace" font-size="14.00">  EX_CallMath import /Script/Engine&#45;&gt;KismetSystemLibrary&#45;&gt;IsValid</text>
<text text-anchor="start" x="1922.5" y="-566.3" font-family="monospace" font-size="14.00">    EX_InstanceVariable [ToolTip]</text>
</g>
<!-- SetResource__348&#45;&gt;SetResource__362 -->
<g id="edge21" class="edge">
<title>SetResource__348&#45;&gt;SetResource__362</title>
<path fill="none" stroke="black" d="M2279.36,-678.56C2266.62,-666.29 2249.19,-649.52 2233.18,-634.11"/>
<polygon fill="black" stroke="black" points="2235.7,-631.67 2226.07,-627.25 2230.84,-636.71 2235.7,-631.67"/>
<text text-anchor="middle" x="2266.5" y="-648.8" font-family="monospace" font-size="14.00">IF</text>
</g>
<!-- SetResource__673 -->
<g id="node33" class="node">
<title>SetResource__673</title>
<polygon fill="#eeeeee" stroke="black" points="2425,-0.5 2425,-38.5 2541,-38.5 2541,-0.5 2425,-0.5"/>
<text text-anchor="start" x="2433" y="-23.3" font-family="monospace" font-size="14.00">EX_Return</text>
<text text-anchor="start" x="2433" y="-8.3" font-family="monospace" font-size="14.00">  EX_Nothing</text>
</g>
<!-- SetResource__348&#45;&gt;SetResource__673 -->
<g id="edge20" class="edge">
<title>SetResource__348:e&#45;&gt;SetResource__673</title>
<path fill="none" stroke="red" d="M2452,-697.5C2520.26,-697.5 2565,-661.76 2565,-593.5 2565,-593.5 2565,-593.5 2565,-102 2565,-77.85 2546.89,-58.4 2527.69,-44.56"/>
<polygon fill="none" stroke="red" points="2529.76,-41.74 2519.51,-39.07 2525.86,-47.55 2529.76,-41.74"/>
<text text-anchor="middle" x="2590" y="-452.8" font-family="monospace" font-size="14.00">IF NOT</text>
</g>
<!-- SetResource__391 -->
<g id="node26" class="node">
<title>SetResource__391</title>
<polygon fill="#eeeeee" stroke="black" points="1765.5,-482.5 1765.5,-520.5 2202.5,-520.5 2202.5,-482.5 1765.5,-482.5"/>
<text text-anchor="start" x="1773.5" y="-505.3" font-family="monospace" font-size="14.00">EX_JumpIfNot 520</text>
<text text-anchor="start" x="1773.5" y="-490.3" font-family="monospace" font-size="14.00">  EX_LocalVariable [CallFunc_IsValid_ReturnValue_2]</text>
</g>
<!-- SetResource__362&#45;&gt;SetResource__391 -->
<g id="edge22" class="edge">
<title>SetResource__362&#45;&gt;SetResource__391</title>
<path fill="none" stroke="black" d="M2114.51,-558.61C2088.44,-547.41 2059.92,-535.14 2036.2,-524.94"/>
<polygon fill="black" stroke="black" points="2037.63,-521.75 2027.06,-521.01 2034.87,-528.18 2037.63,-521.75"/>
</g>
<!-- SetResource__405 -->
<g id="node27" class="node">
<title>SetResource__405</title>
<polygon fill="#eeeeee" stroke="black" points="1561.5,-235 1561.5,-363 1850.5,-363 1850.5,-235 1561.5,-235"/>
<text text-anchor="start" x="1569.5" y="-347.8" font-family="monospace" font-size="14.00">EX_Context</text>
<text text-anchor="start" x="1569.5" y="-332.8" font-family="monospace" font-size="14.00">  EX_InstanceVariable [ToolTip]</text>
<text text-anchor="start" x="1569.5" y="-317.8" font-family="monospace" font-size="14.00">  EX_LocalVirtualFunction SetText</text>
<text text-anchor="start" x="1569.5" y="-302.8" font-family="monospace" font-size="14.00">    EX_Context</text>
<text text-anchor="start" x="1569.5" y="-287.8" font-family="monospace" font-size="14.00">      EX_LocalVariable [Resource]</text>
<text text-anchor="start" x="1569.5" y="-272.8" font-family="monospace" font-size="14.00">      EX_InstanceVariable [Title]</text>
<text text-anchor="start" x="1569.5" y="-257.8" font-family="monospace" font-size="14.00">      RValue = [Title]</text>
<text text-anchor="start" x="1569.5" y="-242.8" font-family="monospace" font-size="14.00">  RValue = []</text>
</g>
<!-- SetResource__391&#45;&gt;SetResource__405 -->
<g id="edge24" class="edge">
<title>SetResource__391&#45;&gt;SetResource__405</title>
<path fill="none" stroke="black" d="M1947.89,-482.64C1922.54,-469.53 1888.26,-450.66 1860,-431 1833.83,-412.79 1806.83,-391.01 1782.9,-370.48"/>
<polygon fill="black" stroke="black" points="1785.23,-367.87 1775.38,-363.97 1780.65,-373.16 1785.23,-367.87"/>
<text text-anchor="middle" x="1921.5" y="-452.8" font-family="monospace" font-size="14.00">IF</text>
</g>
<!-- SetResource__520 -->
<g id="node31" class="node">
<title>SetResource__520</title>
<polygon fill="#eeeeee" stroke="black" points="1869,-167.5 1869,-430.5 2537,-430.5 2537,-167.5 1869,-167.5"/>
<text text-anchor="start" x="1877" y="-415.3" font-family="monospace" font-size="14.00">EX_Context</text>
<text text-anchor="start" x="1877" y="-400.3" font-family="monospace" font-size="14.00">  EX_ObjectConst import /Game/UI/ToolTips/LIB_ToolTips&#45;&gt;Default__LIB_ToolTips_C</text>
<text text-anchor="start" x="1877" y="-385.3" font-family="monospace" font-size="14.00">  EX_LocalVirtualFunction CreateBasicToolTip</text>
<text text-anchor="start" x="1877" y="-370.3" font-family="monospace" font-size="14.00">    EX_InstanceVariable [ResourceIcon]</text>
<text text-anchor="start" x="1877" y="-355.3" font-family="monospace" font-size="14.00">    EX_Context</text>
<text text-anchor="start" x="1877" y="-340.3" font-family="monospace" font-size="14.00">      EX_LocalVariable [Resource]</text>
<text text-anchor="start" x="1877" y="-325.3" font-family="monospace" font-size="14.00">      EX_InstanceVariable [Title]</text>
<text text-anchor="start" x="1877" y="-310.3" font-family="monospace" font-size="14.00">      RValue = [Title]</text>
<text text-anchor="start" x="1877" y="-295.3" font-family="monospace" font-size="14.00">    EX_StructConst import /Script/CoreUObject&#45;&gt;Vector2D</text>
<text text-anchor="start" x="1877" y="-280.3" font-family="monospace" font-size="14.00">      EX_FloatConst 0</text>
<text text-anchor="start" x="1877" y="-265.3" font-family="monospace" font-size="14.00">      EX_FloatConst 50</text>
<text text-anchor="start" x="1877" y="-250.3" font-family="monospace" font-size="14.00">    EX_StructConst import /Script/CoreUObject&#45;&gt;Vector2D</text>
<text text-anchor="start" x="1877" y="-235.3" font-family="monospace" font-size="14.00">      EX_FloatConst 0.5</text>
<text text-anchor="start" x="1877" y="-220.3" font-family="monospace" font-size="14.00">      EX_FloatConst 0</text>
<text text-anchor="start" x="1877" y="-205.3" font-family="monospace" font-size="14.00">    EX_Self</text>
<text text-anchor="start" x="1877" y="-190.3" font-family="monospace" font-size="14.00">    EX_LocalVariable [CallFunc_CreateBasicToolTip_ToolTipWidget]</text>
<text text-anchor="start" x="1877" y="-175.3" font-family="monospace" font-size="14.00">  RValue = []</text>
</g>
<!-- SetResource__391&#45;&gt;SetResource__520 -->
<g id="edge23" class="edge">
<title>SetResource__391:e&#45;&gt;SetResource__520</title>
<path fill="none" stroke="red" d="M2204,-501.5C2236.36,-501.5 2245.2,-475.2 2243.3,-441.6"/>
<polygon fill="none" stroke="red" points="2246.82,-441.62 2242.46,-431.97 2239.84,-442.23 2246.82,-441.62"/>
<text text-anchor="middle" x="2269" y="-452.8" font-family="monospace" font-size="14.00">IF NOT</text>
</g>
<!-- SetResource__472 -->
<g id="node28" class="node">
<title>SetResource__472</title>
<polygon fill="#eeeeee" stroke="black" points="1808.5,-85 1808.5,-121 1915.5,-121 1915.5,-85 1808.5,-85"/>
<text text-anchor="start" x="1816.5" y="-99.3" font-family="monospace" font-size="14.00">EX_Jump 673</text>
</g>
<!-- SetResource__405&#45;&gt;SetResource__472 -->
<g id="edge25" class="edge">
<title>SetResource__405&#45;&gt;SetResource__472</title>
<path fill="none" stroke="black" d="M1756.65,-235.01C1785.46,-199.19 1819.97,-156.27 1841.44,-129.57"/>
<polygon fill="black" stroke="black" points="1843.98,-132 1847.52,-122.01 1838.52,-127.61 1843.98,-132"/>
</g>
<!-- SetResource__472&#45;&gt;SetResource__673 -->
<g id="edge26" class="edge">
<title>SetResource__472&#45;&gt;SetResource__673</title>
<path fill="none" stroke="black" d="M1915.39,-89.31C1936.37,-84.64 1960.73,-79.62 1983,-76 2136.05,-51.13 2317.28,-34.06 2414.01,-25.94"/>
<polygon fill="black" stroke="black" points="2414.19,-29.43 2423.87,-25.12 2413.61,-22.46 2414.19,-29.43"/>
</g>
<!-- SetResource__515 -->
<g id="node30" class="node">
<title>SetResource__515</title>
<polygon fill="#eeeeee" stroke="black" points="2576.5,-1460.5 2576.5,-1496.5 2683.5,-1496.5 2683.5,-1460.5 2576.5,-1460.5"/>
<text text-anchor="start" x="2584.5" y="-1474.8" font-family="monospace" font-size="14.00">EX_Jump 673</text>
</g>
<!-- SetResource__477&#45;&gt;SetResource__515 -->
<g id="edge27" class="edge">
<title>SetResource__477&#45;&gt;SetResource__515</title>
<path fill="none" stroke="black" d="M2630,-1732.81C2630,-1672.49 2630,-1560.06 2630,-1507.69"/>
<polygon fill="black" stroke="black" points="2633.5,-1507.83 2630,-1497.83 2626.5,-1507.83 2633.5,-1507.83"/>
</g>
<!-- SetResource__515&#45;&gt;SetResource__673 -->
<g id="edge28" class="edge">
<title>SetResource__515&#45;&gt;SetResource__673</title>
<path fill="none" stroke="black" d="M2630,-1460.74C2630,-1439.59 2630,-1402.1 2630,-1370 2630,-1370 2630,-1370 2630,-102 2630,-62.92 2589.78,-42.43 2551.41,-31.77"/>
<polygon fill="black" stroke="black" points="2552.7,-28.48 2542.14,-29.39 2550.96,-35.26 2552.7,-28.48"/>
</g>
<!-- SetResource__654 -->
<g id="node32" class="node">
<title>SetResource__654</title>
<polygon fill="#eeeeee" stroke="black" points="1992,-76.5 1992,-129.5 2520,-129.5 2520,-76.5 1992,-76.5"/>
<text text-anchor="start" x="2000" y="-114.3" font-family="monospace" font-size="14.00">EX_LetObj</text>
<text text-anchor="start" x="2000" y="-99.3" font-family="monospace" font-size="14.00">  EX_InstanceVariable [ToolTip]</text>
<text text-anchor="start" x="2000" y="-84.3" font-family="monospace" font-size="14.00">  EX_LocalVariable [CallFunc_CreateBasicToolTip_ToolTipWidget]</text>
</g>
<!-- SetResource__520&#45;&gt;SetResource__654 -->
<g id="edge29" class="edge">
<title>SetResource__520&#45;&gt;SetResource__654</title>
<path fill="none" stroke="black" d="M2238.65,-167.52C2241.32,-157.74 2243.85,-148.47 2246.11,-140.2"/>
<polygon fill="black" stroke="black" points="2249.46,-141.24 2248.71,-130.67 2242.7,-139.39 2249.46,-141.24"/>
</g>
<!-- SetResource__654&#45;&gt;SetResource__673 -->
<g id="edge30" class="edge">
<title>SetResource__654&#45;&gt;SetResource__673</title>
<path fill="none" stroke="black" d="M2326.89,-76.55C2357.59,-65.52 2393.16,-52.75 2422.59,-42.19"/>
<polygon fill="black" stroke="black" points="2423.47,-45.59 2431.7,-38.92 2421.11,-39 2423.47,-45.59"/>
</g>
<!-- SetResource__675 -->
<g id="node34" class="node">
<title>SetResource__675</title>
<polygon fill="#eeeeee" stroke="black" points="2781,-1834.5 2781,-1870.5 2913,-1870.5 2913,-1834.5 2781,-1834.5"/>
<text text-anchor="start" x="2789" y="-1848.8" font-family="monospace" font-size="14.00">EX_EndOfScript</text>
</g>
<!-- SetIconSize -->
<g id="node35" class="node">
<title>SetIconSize</title>
<polygon fill="#ff8888" stroke="black" points="2818,-2256 2818,-2324 3288,-2324 3288,-2256 2818,-2256"/>
<text text-anchor="start" x="2826" y="-2308.8" font-family="monospace" font-size="14.00">Function SetIconSize</text>
<text text-anchor="start" x="2826" y="-2293.8" font-family="monospace" font-size="14.00">  FloatProperty InSize</text>
<text text-anchor="start" x="2826" y="-2278.8" font-family="monospace" font-size="14.00">    CPF_BlueprintVisible|CPF_BlueprintReadOnly|CPF_Parm</text>
<text text-anchor="start" x="2826" y="-2263.8" font-family="monospace" font-size="14.00">  StructProperty CallFunc_MakeVector2D_ReturnValue</text>
</g>
<!-- SetIconSize__0 -->
<g id="node36" class="node">
<title>SetIconSize__0</title>
<polygon fill="#eeeeee" stroke="black" points="2912.5,-2054 2912.5,-2107 3193.5,-2107 3193.5,-2054 2912.5,-2054"/>
<text text-anchor="start" x="2920.5" y="-2091.8" font-family="monospace" font-size="14.00">EX_Let</text>
<text text-anchor="start" x="2920.5" y="-2076.8" font-family="monospace" font-size="14.00">  EX_InstanceVariable [IconSize]</text>
<text text-anchor="start" x="2920.5" y="-2061.8" font-family="monospace" font-size="14.00">  EX_LocalVariable [InSize]</text>
</g>
<!-- SetIconSize&#45;&gt;SetIconSize__0 -->
<g id="edge31" class="edge">
<title>SetIconSize&#45;&gt;SetIconSize__0</title>
<path fill="none" stroke="black" d="M3053,-2256.12C3053,-2218.53 3053,-2157.15 3053,-2118.08"/>
<polygon fill="black" stroke="black" points="3056.5,-2118.23 3053,-2108.23 3049.5,-2118.23 3056.5,-2118.23"/>
</g>
<!-- SetIconSize__27 -->
<g id="node37" class="node">
<title>SetIconSize__27</title>
<polygon fill="#eeeeee" stroke="black" points="2764,-1889.5 2764,-1972.5 3342,-1972.5 3342,-1889.5 2764,-1889.5"/>
<text text-anchor="start" x="2772" y="-1957.3" font-family="monospace" font-size="14.00">EX_Let</text>
<text text-anchor="start" x="2772" y="-1942.3" font-family="monospace" font-size="14.00">  EX_LocalVariable [CallFunc_MakeVector2D_ReturnValue]</text>
<text text-anchor="start" x="2772" y="-1927.3" font-family="monospace" font-size="14.00">  EX_CallMath import /Script/Engine&#45;&gt;KismetMathLibrary&#45;&gt;MakeVector2D</text>
<text text-anchor="start" x="2772" y="-1912.3" font-family="monospace" font-size="14.00">    EX_InstanceVariable [IconSize]</text>
<text text-anchor="start" x="2772" y="-1897.3" font-family="monospace" font-size="14.00">    EX_InstanceVariable [IconSize]</text>
</g>
<!-- SetIconSize__0&#45;&gt;SetIconSize__27 -->
<g id="edge32" class="edge">
<title>SetIconSize__0&#45;&gt;SetIconSize__27</title>
<path fill="none" stroke="black" d="M3053,-2054.14C3053,-2034.82 3053,-2007.56 3053,-1983.69"/>
<polygon fill="black" stroke="black" points="3056.5,-1983.81 3053,-1973.81 3049.5,-1983.81 3056.5,-1983.81"/>
</g>
<!-- SetIconSize__73 -->
<g id="node38" class="node">
<title>SetIconSize__73</title>
<polygon fill="#eeeeee" stroke="black" points="2805.5,-1732.5 2805.5,-1815.5 3300.5,-1815.5 3300.5,-1732.5 2805.5,-1732.5"/>
<text text-anchor="start" x="2813.5" y="-1800.3" font-family="monospace" font-size="14.00">EX_Context</text>
<text text-anchor="start" x="2813.5" y="-1785.3" font-family="monospace" font-size="14.00">  EX_InstanceVariable [ResourceIcon]</text>
<text text-anchor="start" x="2813.5" y="-1770.3" font-family="monospace" font-size="14.00">  EX_FinalFunction import /Script/UMG&#45;&gt;Image&#45;&gt;SetBrushSize</text>
<text text-anchor="start" x="2813.5" y="-1755.3" font-family="monospace" font-size="14.00">    EX_LocalVariable [CallFunc_MakeVector2D_ReturnValue]</text>
<text text-anchor="start" x="2813.5" y="-1740.3" font-family="monospace" font-size="14.00">  RValue = []</text>
</g>
<!-- SetIconSize__27&#45;&gt;SetIconSize__73 -->
<g id="edge33" class="edge">
<title>SetIconSize__27&#45;&gt;SetIconSize__73</title>
<path fill="none" stroke="black" d="M3053,-1889.68C3053,-1870.47 3053,-1847.27 3053,-1826.77"/>
<polygon fill="black" stroke="black" points="3056.5,-1826.9 3053,-1816.9 3049.5,-1826.9 3056.5,-1826.9"/>
</g>
<!-- SetIconSize__114 -->
<g id="node39" class="node">
<title>SetIconSize__114</title>
<polygon fill="#eeeeee" stroke="black" points="2995,-1568 2995,-1606 3111,-1606 3111,-1568 2995,-1568"/>
<text text-anchor="start" x="3003" y="-1590.8" font-family="monospace" font-size="14.00">EX_Return</text>
<text text-anchor="start" x="3003" y="-1575.8" font-family="monospace" font-size="14.00">  EX_Nothing</text>
</g>
<!-- SetIconSize__73&#45;&gt;SetIconSize__114 -->
<g id="edge34" class="edge">
<title>SetIconSize__73&#45;&gt;SetIconSize__114</title>
<path fill="none" stroke="black" d="M3053,-1732.86C3053,-1697.96 3053,-1648.23 3053,-1617.06"/>
<polygon fill="black" stroke="black" points="3056.5,-1617.22 3053,-1607.22 3049.5,-1617.22 3056.5,-1617.22"/>
</g>
<!-- SetIconSize__116 -->
<g id="node40" class="node">
<title>SetIconSize__116</title>
<polygon fill="#eeeeee" stroke="black" points="3068,-1677.5 3068,-1713.5 3200,-1713.5 3200,-1677.5 3068,-1677.5"/>
<text text-anchor="start" x="3076" y="-1691.8" font-family="monospace" font-size="14.00">EX_EndOfScript</text>
</g>
</g>
</svg>
