<?xml version="1.0" encoding="UTF-8" standalone="no"?>
<!DOCTYPE svg PUBLIC "-//W3C//DTD SVG 1.1//EN"
 "http://www.w3.org/Graphics/SVG/1.1/DTD/svg11.dtd">
<!-- Generated by graphviz version 7.0.1 (0)
 -->
<!-- Pages: 1 -->
<svg width="1573pt" height="2333pt"
 viewBox="0.00 0.00 1573.00 2333.00" xmlns="http://www.w3.org/2000/svg" xmlns:xlink="http://www.w3.org/1999/xlink">
<g id="graph0" class="graph" transform="scale(1 1) rotate(0) translate(4 2329)">
<polygon fill="white" stroke="none" points="-4,4 -4,-2329 1569,-2329 1569,4 -4,4"/>
<!-- LIB_PerkColors_C -->
<g id="node1" class="node">
<title>LIB_PerkColors_C</title>
<polygon fill="#88ff88" stroke="black" points="43.5,-2129 43.5,-2182 571.5,-2182 571.5,-2129 43.5,-2129"/>
<text text-anchor="start" x="51.5" y="-2166.8" font-family="monospace" font-size="14.00">ClassExport: LIB_PerkColors_C</text>
<text text-anchor="start" x="51.5" y="-2151.8" font-family="monospace" font-size="14.00">  SuperStruct: import /Script/Engine&#45;&gt;BlueprintFunctionLibrary</text>
<text text-anchor="start" x="51.5" y="-2136.8" font-family="monospace" font-size="14.00">  Properties:</text>
</g>
<!-- PerkColorByState -->
<g id="node2" class="node">
<title>PerkColorByState</title>
<polygon fill="#ff8888" stroke="black" points="589.5,-1986.5 589.5,-2324.5 1059.5,-2324.5 1059.5,-1986.5 589.5,-1986.5"/>
<text text-anchor="start" x="597.5" y="-2309.3" font-family="monospace" font-size="14.00">Function PerkColorByState</text>
<text text-anchor="start" x="597.5" y="-2294.3" font-family="monospace" font-size="14.00">  EnumProperty InPerkType</text>
<text text-anchor="start" x="597.5" y="-2279.3" font-family="monospace" font-size="14.00">    CPF_BlueprintVisible|CPF_BlueprintReadOnly|CPF_Parm</text>
<text text-anchor="start" x="597.5" y="-2264.3" font-family="monospace" font-size="14.00">  EnumProperty InPerkState</text>
<text text-anchor="start" x="597.5" y="-2249.3" font-family="monospace" font-size="14.00">    CPF_BlueprintVisible|CPF_BlueprintReadOnly|CPF_Parm</text>
<text text-anchor="start" x="597.5" y="-2234.3" font-family="monospace" font-size="14.00">  ObjectProperty __WorldContext</text>
<text text-anchor="start" x="597.5" y="-2219.3" font-family="monospace" font-size="14.00">    CPF_BlueprintVisible|CPF_BlueprintReadOnly|CPF_Parm</text>
<text text-anchor="start" x="597.5" y="-2204.3" font-family="monospace" font-size="14.00">  StructProperty OutBackground</text>
<text text-anchor="start" x="597.5" y="-2189.3" font-family="monospace" font-size="14.00">    CPF_Parm|CPF_OutParm</text>
<text text-anchor="start" x="597.5" y="-2174.3" font-family="monospace" font-size="14.00">  StructProperty OutBorder</text>
<text text-anchor="start" x="597.5" y="-2159.3" font-family="monospace" font-size="14.00">    CPF_Parm|CPF_OutParm</text>
<text text-anchor="start" x="597.5" y="-2144.3" font-family="monospace" font-size="14.00">  StructProperty OutIcon</text>
<text text-anchor="start" x="597.5" y="-2129.3" font-family="monospace" font-size="14.00">    CPF_Parm|CPF_OutParm</text>
<text text-anchor="start" x="597.5" y="-2114.3" font-family="monospace" font-size="14.00">  StructProperty Black</text>
<text text-anchor="start" x="597.5" y="-2099.3" font-family="monospace" font-size="14.00">    CPF_Edit|CPF_BlueprintVisible</text>
<text text-anchor="start" x="597.5" y="-2084.3" font-family="monospace" font-size="14.00">  StructProperty Unavailable</text>
<text text-anchor="start" x="597.5" y="-2069.3" font-family="monospace" font-size="14.00">    CPF_Edit|CPF_BlueprintVisible</text>
<text text-anchor="start" x="597.5" y="-2054.3" font-family="monospace" font-size="14.00">  StructProperty Main</text>
<text text-anchor="start" x="597.5" y="-2039.3" font-family="monospace" font-size="14.00">    CPF_Edit|CPF_BlueprintVisible</text>
<text text-anchor="start" x="597.5" y="-2024.3" font-family="monospace" font-size="14.00">  StructProperty CallFunc_MenuColors_OutputColor</text>
<text text-anchor="start" x="597.5" y="-2009.3" font-family="monospace" font-size="14.00">  StructProperty CallFunc_PerkColorFromType_OutColor</text>
<text text-anchor="start" x="597.5" y="-1994.3" font-family="monospace" font-size="14.00">  BoolProperty K2Node_SwitchEnum_CmpSuccess</text>
</g>
<!-- PerkColorByState__0 -->
<g id="node3" class="node">
<title>PerkColorByState__0</title>
<polygon fill="#eeeeee" stroke="black" points="717,-1868 717,-1904 932,-1904 932,-1868 717,-1868"/>
<text text-anchor="start" x="725" y="-1882.3" font-family="monospace" font-size="14.00">EX_PushExecutionFlow 557</text>
</g>
<!-- PerkColorByState&#45;&gt;PerkColorByState__0 -->
<g id="edge1" class="edge">
<title>PerkColorByState&#45;&gt;PerkColorByState__0</title>
<path fill="none" stroke="black" d="M824.5,-1986.61C824.5,-1958.97 824.5,-1933.42 824.5,-1915.12"/>
<polygon fill="black" stroke="black" points="828,-1915.18 824.5,-1905.18 821,-1915.18 828,-1915.18"/>
</g>
<!-- PerkColorByState__5 -->
<g id="node4" class="node">
<title>PerkColorByState__5</title>
<polygon fill="#eeeeee" stroke="black" points="549,-1672.5 549,-1785.5 1028,-1785.5 1028,-1672.5 549,-1672.5"/>
<text text-anchor="start" x="557" y="-1770.3" font-family="monospace" font-size="14.00">EX_Let</text>
<text text-anchor="start" x="557" y="-1755.3" font-family="monospace" font-size="14.00">  EX_LocalVariable [Black]</text>
<text text-anchor="start" x="557" y="-1740.3" font-family="monospace" font-size="14.00">  EX_StructConst import /Script/CoreUObject&#45;&gt;LinearColor</text>
<text text-anchor="start" x="557" y="-1725.3" font-family="monospace" font-size="14.00">    EX_FloatConst 0</text>
<text text-anchor="start" x="557" y="-1710.3" font-family="monospace" font-size="14.00">    EX_FloatConst 0</text>
<text text-anchor="start" x="557" y="-1695.3" font-family="monospace" font-size="14.00">    EX_FloatConst 0</text>
<text text-anchor="start" x="557" y="-1680.3" font-family="monospace" font-size="14.00">    EX_FloatConst 1</text>
</g>
<!-- PerkColorByState__0&#45;&gt;PerkColorByState__5 -->
<g id="edge3" class="edge">
<title>PerkColorByState__0&#45;&gt;PerkColorByState__5</title>
<path fill="none" stroke="black" d="M820.58,-1868.12C816.56,-1850.82 810.05,-1822.8 803.95,-1796.51"/>
<polygon fill="black" stroke="black" points="807.38,-1795.8 801.71,-1786.85 800.56,-1797.39 807.38,-1795.8"/>
</g>
<!-- PerkColorByState__557 -->
<g id="node26" class="node">
<title>PerkColorByState__557</title>
<polygon fill="#eeeeee" stroke="black" points="878.5,-0.5 878.5,-38.5 994.5,-38.5 994.5,-0.5 878.5,-0.5"/>
<text text-anchor="start" x="886.5" y="-23.3" font-family="monospace" font-size="14.00">EX_Return</text>
<text text-anchor="start" x="886.5" y="-8.3" font-family="monospace" font-size="14.00">  EX_Nothing</text>
</g>
<!-- PerkColorByState__0&#45;&gt;PerkColorByState__557 -->
<g id="edge2" class="edge">
<title>PerkColorByState__0:e&#45;&gt;PerkColorByState__557</title>
<path fill="none" stroke="red" d="M933.5,-1886C1022.07,-1886 1057.5,-1818.57 1057.5,-1730 1057.5,-1730 1057.5,-1730 1057.5,-109.5 1057.5,-78.61 1031.59,-57.25 1003.76,-43.22"/>
<polygon fill="none" stroke="red" points="1005.37,-40.11 994.83,-39.02 1002.39,-46.44 1005.37,-40.11"/>
<text text-anchor="middle" x="1099" y="-799.3" font-family="monospace" font-size="14.00">PUSH STACK</text>
</g>
<!-- PerkColorByState__57 -->
<g id="node5" class="node">
<title>PerkColorByState__57</title>
<polygon fill="#eeeeee" stroke="black" points="677,-1560 677,-1596 892,-1596 892,-1560 677,-1560"/>
<text text-anchor="start" x="685" y="-1574.3" font-family="monospace" font-size="14.00">EX_PushExecutionFlow 304</text>
</g>
<!-- PerkColorByState__5&#45;&gt;PerkColorByState__57 -->
<g id="edge4" class="edge">
<title>PerkColorByState__5&#45;&gt;PerkColorByState__57</title>
<path fill="none" stroke="black" d="M787.01,-1672.52C786.41,-1650.23 785.75,-1625.5 785.25,-1607.07"/>
<polygon fill="black" stroke="black" points="788.76,-1607.11 784.99,-1597.21 781.76,-1607.3 788.76,-1607.11"/>
</g>
<!-- PerkColorByState__62 -->
<g id="node6" class="node">
<title>PerkColorByState__62</title>
<polygon fill="#eeeeee" stroke="black" points="0,-1289 0,-1402 759,-1402 759,-1289 0,-1289"/>
<text text-anchor="start" x="8" y="-1386.8" font-family="monospace" font-size="14.00">EX_Context</text>
<text text-anchor="start" x="8" y="-1371.8" font-family="monospace" font-size="14.00">  EX_ObjectConst import /Game/UI/Art/WidgetParts/LIB_MenuColors&#45;&gt;Default__LIB_MenuColors_C</text>
<text text-anchor="start" x="8" y="-1356.8" font-family="monospace" font-size="14.00">  EX_LocalVirtualFunction MenuColors</text>
<text text-anchor="start" x="8" y="-1341.8" font-family="monospace" font-size="14.00">    EX_ByteConst 2</text>
<text text-anchor="start" x="8" y="-1326.8" font-family="monospace" font-size="14.00">    EX_LocalVariable [__WorldContext]</text>
<text text-anchor="start" x="8" y="-1311.8" font-family="monospace" font-size="14.00">    EX_LocalVariable [CallFunc_MenuColors_OutputColor]</text>
<text text-anchor="start" x="8" y="-1296.8" font-family="monospace" font-size="14.00">  RValue = []</text>
</g>
<!-- PerkColorByState__57&#45;&gt;PerkColorByState__62 -->
<g id="edge6" class="edge">
<title>PerkColorByState__57&#45;&gt;PerkColorByState__62</title>
<path fill="none" stroke="black" d="M754.72,-1560.05C699.08,-1528.38 576.85,-1458.82 486.95,-1407.65"/>
<polygon fill="black" stroke="black" points="488.72,-1404.63 478.3,-1402.73 485.26,-1410.72 488.72,-1404.63"/>
</g>
<!-- PerkColorByState__304 -->
<g id="node15" class="node">
<title>PerkColorByState__304</title>
<polygon fill="#eeeeee" stroke="black" points="777,-1311.5 777,-1379.5 1008,-1379.5 1008,-1311.5 777,-1311.5"/>
<text text-anchor="start" x="785" y="-1364.3" font-family="monospace" font-size="14.00">EX_Let</text>
<text text-anchor="start" x="785" y="-1349.3" font-family="monospace" font-size="14.00">  EX_LocalOutVariable</text>
<text text-anchor="start" x="785" y="-1334.3" font-family="monospace" font-size="14.00">    [OutBackground]</text>
<text text-anchor="start" x="785" y="-1319.3" font-family="monospace" font-size="14.00">  EX_LocalVariable [Black]</text>
</g>
<!-- PerkColorByState__57&#45;&gt;PerkColorByState__304 -->
<g id="edge5" class="edge">
<title>PerkColorByState__57:e&#45;&gt;PerkColorByState__304</title>
<path fill="none" stroke="red" d="M893.5,-1578C967.93,-1578 934.15,-1456.85 909.77,-1389.84"/>
<polygon fill="none" stroke="red" points="913.1,-1388.75 906.33,-1380.6 906.54,-1391.19 913.1,-1388.75"/>
<text text-anchor="middle" x="980" y="-1491.8" font-family="monospace" font-size="14.00">PUSH STACK</text>
</g>
<!-- PerkColorByState__118 -->
<g id="node7" class="node">
<title>PerkColorByState__118</title>
<polygon fill="#eeeeee" stroke="black" points="156.5,-1123 156.5,-1176 602.5,-1176 602.5,-1123 156.5,-1123"/>
<text text-anchor="start" x="164.5" y="-1160.8" font-family="monospace" font-size="14.00">EX_Let</text>
<text text-anchor="start" x="164.5" y="-1145.8" font-family="monospace" font-size="14.00">  EX_LocalVariable [Unavailable]</text>
<text text-anchor="start" x="164.5" y="-1130.8" font-family="monospace" font-size="14.00">  EX_LocalVariable [CallFunc_MenuColors_OutputColor]</text>
</g>
<!-- PerkColorByState__62&#45;&gt;PerkColorByState__118 -->
<g id="edge7" class="edge">
<title>PerkColorByState__62&#45;&gt;PerkColorByState__118</title>
<path fill="none" stroke="black" d="M379.5,-1289.17C379.5,-1256.39 379.5,-1215.77 379.5,-1186.99"/>
<polygon fill="black" stroke="black" points="383,-1187.33 379.5,-1177.33 376,-1187.33 383,-1187.33"/>
</g>
<!-- PerkColorByState__145 -->
<g id="node8" class="node">
<title>PerkColorByState__145</title>
<polygon fill="#eeeeee" stroke="black" points="140,-1009.5 140,-1077.5 619,-1077.5 619,-1009.5 140,-1009.5"/>
<text text-anchor="start" x="148" y="-1062.3" font-family="monospace" font-size="14.00">EX_LocalVirtualFunction PerkColorFromType</text>
<text text-anchor="start" x="148" y="-1047.3" font-family="monospace" font-size="14.00">  EX_LocalVariable [InPerkType]</text>
<text text-anchor="start" x="148" y="-1032.3" font-family="monospace" font-size="14.00">  EX_LocalVariable [__WorldContext]</text>
<text text-anchor="start" x="148" y="-1017.3" font-family="monospace" font-size="14.00">  EX_LocalVariable [CallFunc_PerkColorFromType_OutColor]</text>
</g>
<!-- PerkColorByState__118&#45;&gt;PerkColorByState__145 -->
<g id="edge8" class="edge">
<title>PerkColorByState__118&#45;&gt;PerkColorByState__145</title>
<path fill="none" stroke="black" d="M379.5,-1123.06C379.5,-1112.69 379.5,-1100.38 379.5,-1088.63"/>
<polygon fill="black" stroke="black" points="383,-1088.67 379.5,-1078.67 376,-1088.67 383,-1088.67"/>
</g>
<!-- PerkColorByState__186 -->
<g id="node9" class="node">
<title>PerkColorByState__186</title>
<polygon fill="#eeeeee" stroke="black" points="140,-918.5 140,-971.5 619,-971.5 619,-918.5 140,-918.5"/>
<text text-anchor="start" x="148" y="-956.3" font-family="monospace" font-size="14.00">EX_Let</text>
<text text-anchor="start" x="148" y="-941.3" font-family="monospace" font-size="14.00">  EX_LocalVariable [Main]</text>
<text text-anchor="start" x="148" y="-926.3" font-family="monospace" font-size="14.00">  EX_LocalVariable [CallFunc_PerkColorFromType_OutColor]</text>
</g>
<!-- PerkColorByState__145&#45;&gt;PerkColorByState__186 -->
<g id="edge9" class="edge">
<title>PerkColorByState__145&#45;&gt;PerkColorByState__186</title>
<path fill="none" stroke="black" d="M379.5,-1009.56C379.5,-1001 379.5,-991.73 379.5,-982.97"/>
<polygon fill="black" stroke="black" points="383,-983 379.5,-973 376,-983 383,-983"/>
</g>
<!-- PerkColorByState__213 -->
<g id="node10" class="node">
<title>PerkColorByState__213</title>
<polygon fill="#eeeeee" stroke="black" points="70,-761.5 70,-844.5 689,-844.5 689,-761.5 70,-761.5"/>
<text text-anchor="start" x="78" y="-829.3" font-family="monospace" font-size="14.00">EX_LetBool</text>
<text text-anchor="start" x="78" y="-814.3" font-family="monospace" font-size="14.00">  EX_LocalVariable [K2Node_SwitchEnum_CmpSuccess]</text>
<text text-anchor="start" x="78" y="-799.3" font-family="monospace" font-size="14.00">  EX_CallMath import /Script/Engine&#45;&gt;KismetMathLibrary&#45;&gt;NotEqual_ByteByte</text>
<text text-anchor="start" x="78" y="-784.3" font-family="monospace" font-size="14.00">    EX_LocalVariable [InPerkState]</text>
<text text-anchor="start" x="78" y="-769.3" font-family="monospace" font-size="14.00">    EX_ByteConst 0</text>
</g>
<!-- PerkColorByState__186&#45;&gt;PerkColorByState__213 -->
<g id="edge10" class="edge">
<title>PerkColorByState__186&#45;&gt;PerkColorByState__213</title>
<path fill="none" stroke="black" d="M379.5,-918.65C379.5,-901.08 379.5,-877.08 379.5,-855.57"/>
<polygon fill="black" stroke="black" points="383,-855.78 379.5,-845.78 376,-855.78 383,-855.78"/>
</g>
<!-- PerkColorByState__244 -->
<g id="node11" class="node">
<title>PerkColorByState__244</title>
<polygon fill="#eeeeee" stroke="black" points="169,-685.5 169,-723.5 590,-723.5 590,-685.5 169,-685.5"/>
<text text-anchor="start" x="177" y="-708.3" font-family="monospace" font-size="14.00">EX_JumpIfNot 390</text>
<text text-anchor="start" x="177" y="-693.3" font-family="monospace" font-size="14.00">  EX_LocalVariable [K2Node_SwitchEnum_CmpSuccess]</text>
</g>
<!-- PerkColorByState__213&#45;&gt;PerkColorByState__244 -->
<g id="edge11" class="edge">
<title>PerkColorByState__213&#45;&gt;PerkColorByState__244</title>
<path fill="none" stroke="black" d="M379.5,-761.63C379.5,-752.51 379.5,-742.99 379.5,-734.45"/>
<polygon fill="black" stroke="black" points="383,-734.66 379.5,-724.66 376,-734.66 383,-734.66"/>
</g>
<!-- PerkColorByState__258 -->
<g id="node12" class="node">
<title>PerkColorByState__258</title>
<polygon fill="#eeeeee" stroke="black" points="27,-550.5 27,-633.5 646,-633.5 646,-550.5 27,-550.5"/>
<text text-anchor="start" x="35" y="-618.3" font-family="monospace" font-size="14.00">EX_LetBool</text>
<text text-anchor="start" x="35" y="-603.3" font-family="monospace" font-size="14.00">  EX_LocalVariable [K2Node_SwitchEnum_CmpSuccess]</text>
<text text-anchor="start" x="35" y="-588.3" font-family="monospace" font-size="14.00">  EX_CallMath import /Script/Engine&#45;&gt;KismetMathLibrary&#45;&gt;NotEqual_ByteByte</text>
<text text-anchor="start" x="35" y="-573.3" font-family="monospace" font-size="14.00">    EX_LocalVariable [InPerkState]</text>
<text text-anchor="start" x="35" y="-558.3" font-family="monospace" font-size="14.00">    EX_ByteConst 1</text>
</g>
<!-- PerkColorByState__244&#45;&gt;PerkColorByState__258 -->
<g id="edge13" class="edge">
<title>PerkColorByState__244&#45;&gt;PerkColorByState__258</title>
<path fill="none" stroke="black" d="M372.59,-685.75C368.12,-674.25 362.04,-658.64 356.16,-643.52"/>
<polygon fill="black" stroke="black" points="359.57,-642.64 352.68,-634.59 353.05,-645.18 359.57,-642.64"/>
<text text-anchor="middle" x="373" y="-655.8" font-family="monospace" font-size="14.00">IF</text>
</g>
<!-- PerkColorByState__390 -->
<g id="node19" class="node">
<title>PerkColorByState__390</title>
<polygon fill="#eeeeee" stroke="black" points="677,-558 677,-626 908,-626 908,-558 677,-558"/>
<text text-anchor="start" x="685" y="-610.8" font-family="monospace" font-size="14.00">EX_Let</text>
<text text-anchor="start" x="685" y="-595.8" font-family="monospace" font-size="14.00">  EX_LocalOutVariable</text>
<text text-anchor="start" x="685" y="-580.8" font-family="monospace" font-size="14.00">    [OutBackground]</text>
<text text-anchor="start" x="685" y="-565.8" font-family="monospace" font-size="14.00">  EX_LocalVariable [Black]</text>
</g>
<!-- PerkColorByState__244&#45;&gt;PerkColorByState__390 -->
<g id="edge12" class="edge">
<title>PerkColorByState__244:e&#45;&gt;PerkColorByState__390</title>
<path fill="none" stroke="red" d="M591.5,-704.5C652.34,-704.5 712.01,-664.95 750.32,-632.96"/>
<polygon fill="none" stroke="red" points="752.16,-635.99 757.49,-626.83 747.61,-630.67 752.16,-635.99"/>
<text text-anchor="middle" x="751.5" y="-655.8" font-family="monospace" font-size="14.00">IF NOT</text>
</g>
<!-- PerkColorByState__289 -->
<g id="node13" class="node">
<title>PerkColorByState__289</title>
<polygon fill="#eeeeee" stroke="black" points="115,-459.5 115,-497.5 536,-497.5 536,-459.5 115,-459.5"/>
<text text-anchor="start" x="123" y="-482.3" font-family="monospace" font-size="14.00">EX_JumpIfNot 476</text>
<text text-anchor="start" x="123" y="-467.3" font-family="monospace" font-size="14.00">  EX_LocalVariable [K2Node_SwitchEnum_CmpSuccess]</text>
</g>
<!-- PerkColorByState__258&#45;&gt;PerkColorByState__289 -->
<g id="edge14" class="edge">
<title>PerkColorByState__258&#45;&gt;PerkColorByState__289</title>
<path fill="none" stroke="black" d="M332.53,-550.75C331.16,-536.85 329.65,-521.55 328.38,-508.71"/>
<polygon fill="black" stroke="black" points="331.87,-508.39 327.4,-498.78 324.9,-509.08 331.87,-508.39"/>
</g>
<!-- PerkColorByState__303 -->
<g id="node14" class="node">
<title>PerkColorByState__303</title>
<polygon fill="#eeeeee" stroke="black" points="234,-340.5 234,-376.5 407,-376.5 407,-340.5 234,-340.5"/>
<text text-anchor="start" x="242" y="-354.8" font-family="monospace" font-size="14.00">EX_PopExecutionFlow</text>
</g>
<!-- PerkColorByState__289&#45;&gt;PerkColorByState__303 -->
<g id="edge16" class="edge">
<title>PerkColorByState__289&#45;&gt;PerkColorByState__303</title>
<path fill="none" stroke="black" d="M324.74,-459.58C323.93,-440.54 322.65,-410.17 321.7,-387.87"/>
<polygon fill="black" stroke="black" points="325.2,-387.79 321.28,-377.95 318.21,-388.09 325.2,-387.79"/>
<text text-anchor="middle" x="332" y="-414.8" font-family="monospace" font-size="14.00">IF</text>
</g>
<!-- PerkColorByState__476 -->
<g id="node23" class="node">
<title>PerkColorByState__476</title>
<polygon fill="#eeeeee" stroke="black" points="425,-324.5 425,-392.5 648,-392.5 648,-324.5 425,-324.5"/>
<text text-anchor="start" x="433" y="-377.3" font-family="monospace" font-size="14.00">EX_Let</text>
<text text-anchor="start" x="433" y="-362.3" font-family="monospace" font-size="14.00">  EX_LocalOutVariable</text>
<text text-anchor="start" x="433" y="-347.3" font-family="monospace" font-size="14.00">    [OutBackground]</text>
<text text-anchor="start" x="433" y="-332.3" font-family="monospace" font-size="14.00">  EX_LocalVariable [Main]</text>
</g>
<!-- PerkColorByState__289&#45;&gt;PerkColorByState__476 -->
<g id="edge15" class="edge">
<title>PerkColorByState__289:e&#45;&gt;PerkColorByState__476</title>
<path fill="none" stroke="red" d="M537.5,-478.5C568.73,-478.5 562.73,-437.02 552.58,-403.04"/>
<polygon fill="none" stroke="red" points="556,-402.25 549.64,-393.77 549.33,-404.37 556,-402.25"/>
<text text-anchor="middle" x="583.5" y="-414.8" font-family="monospace" font-size="14.00">IF NOT</text>
</g>
<!-- PerkColorByState__331 -->
<g id="node16" class="node">
<title>PerkColorByState__331</title>
<polygon fill="#eeeeee" stroke="black" points="748,-1115.5 748,-1183.5 1029,-1183.5 1029,-1115.5 748,-1115.5"/>
<text text-anchor="start" x="756" y="-1168.3" font-family="monospace" font-size="14.00">EX_Let</text>
<text text-anchor="start" x="756" y="-1153.3" font-family="monospace" font-size="14.00">  EX_LocalOutVariable</text>
<text text-anchor="start" x="756" y="-1138.3" font-family="monospace" font-size="14.00">    [OutBorder]</text>
<text text-anchor="start" x="756" y="-1123.3" font-family="monospace" font-size="14.00">  EX_LocalVariable [Unavailable]</text>
</g>
<!-- PerkColorByState__304&#45;&gt;PerkColorByState__331 -->
<g id="edge17" class="edge">
<title>PerkColorByState__304&#45;&gt;PerkColorByState__331</title>
<path fill="none" stroke="black" d="M891.82,-1311.59C891.16,-1279.44 890.15,-1230.29 889.41,-1194.74"/>
<polygon fill="black" stroke="black" points="892.91,-1194.69 889.21,-1184.76 885.91,-1194.83 892.91,-1194.69"/>
</g>
<!-- PerkColorByState__358 -->
<g id="node17" class="node">
<title>PerkColorByState__358</title>
<polygon fill="#eeeeee" stroke="black" points="748,-1009.5 748,-1077.5 1029,-1077.5 1029,-1009.5 748,-1009.5"/>
<text text-anchor="start" x="756" y="-1062.3" font-family="monospace" font-size="14.00">EX_Let</text>
<text text-anchor="start" x="756" y="-1047.3" font-family="monospace" font-size="14.00">  EX_LocalOutVariable</text>
<text text-anchor="start" x="756" y="-1032.3" font-family="monospace" font-size="14.00">    [OutIcon]</text>
<text text-anchor="start" x="756" y="-1017.3" font-family="monospace" font-size="14.00">  EX_LocalVariable [Unavailable]</text>
</g>
<!-- PerkColorByState__331&#45;&gt;PerkColorByState__358 -->
<g id="edge18" class="edge">
<title>PerkColorByState__331&#45;&gt;PerkColorByState__358</title>
<path fill="none" stroke="black" d="M888.5,-1115.59C888.5,-1106.97 888.5,-1097.54 888.5,-1088.45"/>
<polygon fill="black" stroke="black" points="892,-1088.71 888.5,-1078.71 885,-1088.71 892,-1088.71"/>
</g>
<!-- PerkColorByState__385 -->
<g id="node18" class="node">
<title>PerkColorByState__385</title>
<polygon fill="#eeeeee" stroke="black" points="885,-863.5 885,-899.5 992,-899.5 992,-863.5 885,-863.5"/>
<text text-anchor="start" x="893" y="-877.8" font-family="monospace" font-size="14.00">EX_Jump 557</text>
</g>
<!-- PerkColorByState__358&#45;&gt;PerkColorByState__385 -->
<g id="edge19" class="edge">
<title>PerkColorByState__358&#45;&gt;PerkColorByState__385</title>
<path fill="none" stroke="black" d="M898.74,-1009.74C907.89,-980.46 921.15,-938.03 929.8,-910.35"/>
<polygon fill="black" stroke="black" points="933.1,-911.51 932.74,-900.92 926.42,-909.42 933.1,-911.51"/>
</g>
<!-- PerkColorByState__385&#45;&gt;PerkColorByState__557 -->
<g id="edge20" class="edge">
<title>PerkColorByState__385&#45;&gt;PerkColorByState__557</title>
<path fill="none" stroke="black" d="M946.17,-863.53C957,-837.95 975.5,-787.74 975.5,-743 975.5,-743 975.5,-743 975.5,-109.5 975.5,-87.57 965.44,-64.96 955.54,-48.01"/>
<polygon fill="black" stroke="black" points="958.53,-46.19 950.28,-39.54 952.58,-49.88 958.53,-46.19"/>
</g>
<!-- PerkColorByState__417 -->
<g id="node20" class="node">
<title>PerkColorByState__417</title>
<polygon fill="#eeeeee" stroke="black" points="690,-444.5 690,-512.5 913,-512.5 913,-444.5 690,-444.5"/>
<text text-anchor="start" x="698" y="-497.3" font-family="monospace" font-size="14.00">EX_Let</text>
<text text-anchor="start" x="698" y="-482.3" font-family="monospace" font-size="14.00">  EX_LocalOutVariable</text>
<text text-anchor="start" x="698" y="-467.3" font-family="monospace" font-size="14.00">    [OutBorder]</text>
<text text-anchor="start" x="698" y="-452.3" font-family="monospace" font-size="14.00">  EX_LocalVariable [Main]</text>
</g>
<!-- PerkColorByState__390&#45;&gt;PerkColorByState__417 -->
<g id="edge21" class="edge">
<title>PerkColorByState__390&#45;&gt;PerkColorByState__417</title>
<path fill="none" stroke="black" d="M795.15,-558.15C796.03,-547.26 797.02,-534.96 797.96,-523.38"/>
<polygon fill="black" stroke="black" points="801.43,-523.87 798.75,-513.62 794.45,-523.31 801.43,-523.87"/>
</g>
<!-- PerkColorByState__444 -->
<g id="node21" class="node">
<title>PerkColorByState__444</title>
<polygon fill="#eeeeee" stroke="black" points="666,-324.5 666,-392.5 947,-392.5 947,-324.5 666,-324.5"/>
<text text-anchor="start" x="674" y="-377.3" font-family="monospace" font-size="14.00">EX_Let</text>
<text text-anchor="start" x="674" y="-362.3" font-family="monospace" font-size="14.00">  EX_LocalOutVariable</text>
<text text-anchor="start" x="674" y="-347.3" font-family="monospace" font-size="14.00">    [OutIcon]</text>
<text text-anchor="start" x="674" y="-332.3" font-family="monospace" font-size="14.00">  EX_LocalVariable [Unavailable]</text>
</g>
<!-- PerkColorByState__417&#45;&gt;PerkColorByState__444 -->
<g id="edge22" class="edge">
<title>PerkColorByState__417&#45;&gt;PerkColorByState__444</title>
<path fill="none" stroke="black" d="M802.89,-444.63C803.43,-431.84 804.06,-417.01 804.64,-403.33"/>
<polygon fill="black" stroke="black" points="808.12,-403.84 805.05,-393.71 801.13,-403.55 808.12,-403.84"/>
</g>
<!-- PerkColorByState__471 -->
<g id="node22" class="node">
<title>PerkColorByState__471</title>
<polygon fill="#eeeeee" stroke="black" points="828,-163.5 828,-199.5 935,-199.5 935,-163.5 828,-163.5"/>
<text text-anchor="start" x="836" y="-177.8" font-family="monospace" font-size="14.00">EX_Jump 557</text>
</g>
<!-- PerkColorByState__444&#45;&gt;PerkColorByState__471 -->
<g id="edge23" class="edge">
<title>PerkColorByState__444&#45;&gt;PerkColorByState__471</title>
<path fill="none" stroke="black" d="M820.61,-324.58C834.82,-291.43 856.49,-240.86 869.78,-209.84"/>
<polygon fill="black" stroke="black" points="872.95,-211.33 873.67,-200.76 866.52,-208.57 872.95,-211.33"/>
</g>
<!-- PerkColorByState__471&#45;&gt;PerkColorByState__557 -->
<g id="edge24" class="edge">
<title>PerkColorByState__471&#45;&gt;PerkColorByState__557</title>
<path fill="none" stroke="black" d="M887.28,-163.68C896.66,-136.41 915.28,-82.24 926.74,-48.91"/>
<polygon fill="black" stroke="black" points="930.03,-50.09 929.97,-39.5 923.41,-47.81 930.03,-50.09"/>
</g>
<!-- PerkColorByState__503 -->
<g id="node24" class="node">
<title>PerkColorByState__503</title>
<polygon fill="#eeeeee" stroke="black" points="500,-218.5 500,-286.5 723,-286.5 723,-218.5 500,-218.5"/>
<text text-anchor="start" x="508" y="-271.3" font-family="monospace" font-size="14.00">EX_Let</text>
<text text-anchor="start" x="508" y="-256.3" font-family="monospace" font-size="14.00">  EX_LocalOutVariable</text>
<text text-anchor="start" x="508" y="-241.3" font-family="monospace" font-size="14.00">    [OutBorder]</text>
<text text-anchor="start" x="508" y="-226.3" font-family="monospace" font-size="14.00">  EX_LocalVariable [Main]</text>
</g>
<!-- PerkColorByState__476&#45;&gt;PerkColorByState__503 -->
<g id="edge25" class="edge">
<title>PerkColorByState__476&#45;&gt;PerkColorByState__503</title>
<path fill="none" stroke="black" d="M560.23,-324.59C566.93,-315.3 574.31,-305.07 581.33,-295.33"/>
<polygon fill="black" stroke="black" points="584.03,-297.58 587.04,-287.42 578.35,-293.48 584.03,-297.58"/>
</g>
<!-- PerkColorByState__530 -->
<g id="node25" class="node">
<title>PerkColorByState__530</title>
<polygon fill="#eeeeee" stroke="black" points="617,-76.5 617,-144.5 848,-144.5 848,-76.5 617,-76.5"/>
<text text-anchor="start" x="625" y="-129.3" font-family="monospace" font-size="14.00">EX_Let</text>
<text text-anchor="start" x="625" y="-114.3" font-family="monospace" font-size="14.00">  EX_LocalOutVariable</text>
<text text-anchor="start" x="625" y="-99.3" font-family="monospace" font-size="14.00">    [OutIcon]</text>
<text text-anchor="start" x="625" y="-84.3" font-family="monospace" font-size="14.00">  EX_LocalVariable [Black]</text>
</g>
<!-- PerkColorByState__503&#45;&gt;PerkColorByState__530 -->
<g id="edge26" class="edge">
<title>PerkColorByState__503&#45;&gt;PerkColorByState__530</title>
<path fill="none" stroke="black" d="M639.87,-218.68C656.94,-198.93 678.81,-173.62 697.01,-152.56"/>
<polygon fill="black" stroke="black" points="699.43,-155.12 703.32,-145.26 694.13,-150.54 699.43,-155.12"/>
</g>
<!-- PerkColorByState__530&#45;&gt;PerkColorByState__557 -->
<g id="edge27" class="edge">
<title>PerkColorByState__530&#45;&gt;PerkColorByState__557</title>
<path fill="none" stroke="black" d="M807.88,-76.61C833.57,-65.41 861.68,-53.14 885.05,-42.94"/>
<polygon fill="black" stroke="black" points="886.28,-46.23 894.05,-39.02 883.48,-39.81 886.28,-46.23"/>
</g>
<!-- PerkColorByState__559 -->
<g id="node27" class="node">
<title>PerkColorByState__559</title>
<polygon fill="#eeeeee" stroke="black" points="1009.5,-1931.5 1009.5,-1967.5 1141.5,-1967.5 1141.5,-1931.5 1009.5,-1931.5"/>
<text text-anchor="start" x="1017.5" y="-1945.8" font-family="monospace" font-size="14.00">EX_EndOfScript</text>
</g>
<!-- PerkColorFromType -->
<g id="node28" class="node">
<title>PerkColorFromType</title>
<polygon fill="#ff8888" stroke="black" points="1090.5,-2069 1090.5,-2242 1560.5,-2242 1560.5,-2069 1090.5,-2069"/>
<text text-anchor="start" x="1098.5" y="-2226.8" font-family="monospace" font-size="14.00">Function PerkColorFromType</text>
<text text-anchor="start" x="1098.5" y="-2211.8" font-family="monospace" font-size="14.00">  EnumProperty InType</text>
<text text-anchor="start" x="1098.5" y="-2196.8" font-family="monospace" font-size="14.00">    CPF_BlueprintVisible|CPF_BlueprintReadOnly|CPF_Parm</text>
<text text-anchor="start" x="1098.5" y="-2181.8" font-family="monospace" font-size="14.00">  ObjectProperty __WorldContext</text>
<text text-anchor="start" x="1098.5" y="-2166.8" font-family="monospace" font-size="14.00">    CPF_BlueprintVisible|CPF_BlueprintReadOnly|CPF_Parm</text>
<text text-anchor="start" x="1098.5" y="-2151.8" font-family="monospace" font-size="14.00">  StructProperty OutColor</text>
<text text-anchor="start" x="1098.5" y="-2136.8" font-family="monospace" font-size="14.00">    CPF_Parm|CPF_OutParm</text>
<text text-anchor="start" x="1098.5" y="-2121.8" font-family="monospace" font-size="14.00">  EnumProperty Temp_byte_Variable</text>
<text text-anchor="start" x="1098.5" y="-2106.8" font-family="monospace" font-size="14.00">  StructProperty Temp_struct_Variable</text>
<text text-anchor="start" x="1098.5" y="-2091.8" font-family="monospace" font-size="14.00">  StructProperty Temp_struct_Variable_1</text>
<text text-anchor="start" x="1098.5" y="-2076.8" font-family="monospace" font-size="14.00">  StructProperty K2Node_Select_Default</text>
</g>
<!-- PerkColorFromType__0 -->
<g id="node29" class="node">
<title>PerkColorFromType__0</title>
<polygon fill="#eeeeee" stroke="black" points="1156.5,-1859.5 1156.5,-1912.5 1494.5,-1912.5 1494.5,-1859.5 1156.5,-1859.5"/>
<text text-anchor="start" x="1164.5" y="-1897.3" font-family="monospace" font-size="14.00">EX_Let</text>
<text text-anchor="start" x="1164.5" y="-1882.3" font-family="monospace" font-size="14.00">  EX_LocalVariable [Temp_byte_Variable]</text>
<text text-anchor="start" x="1164.5" y="-1867.3" font-family="monospace" font-size="14.00">  EX_LocalVariable [InType]</text>
</g>
<!-- PerkColorFromType&#45;&gt;PerkColorFromType__0 -->
<g id="edge28" class="edge">
<title>PerkColorFromType&#45;&gt;PerkColorFromType__0</title>
<path fill="none" stroke="black" d="M1325.5,-2069.13C1325.5,-2020.01 1325.5,-1960.83 1325.5,-1923.55"/>
<polygon fill="black" stroke="black" points="1329,-1923.77 1325.5,-1913.77 1322,-1923.77 1329,-1923.77"/>
</g>
<!-- PerkColorFromType__27 -->
<g id="node30" class="node">
<title>PerkColorFromType__27</title>
<polygon fill="#eeeeee" stroke="black" points="1086,-1672.5 1086,-1785.5 1565,-1785.5 1565,-1672.5 1086,-1672.5"/>
<text text-anchor="start" x="1094" y="-1770.3" font-family="monospace" font-size="14.00">EX_Let</text>
<text text-anchor="start" x="1094" y="-1755.3" font-family="monospace" font-size="14.00">  EX_LocalVariable [Temp_struct_Variable]</text>
<text text-anchor="start" x="1094" y="-1740.3" font-family="monospace" font-size="14.00">  EX_StructConst import /Script/CoreUObject&#45;&gt;LinearColor</text>
<text text-anchor="start" x="1094" y="-1725.3" font-family="monospace" font-size="14.00">    EX_FloatConst 0.07053</text>
<text text-anchor="start" x="1094" y="-1710.3" font-family="monospace" font-size="14.00">    EX_FloatConst 0.520833</text>
<text text-anchor="start" x="1094" y="-1695.3" font-family="monospace" font-size="14.00">    EX_FloatConst 0.375543</text>
<text text-anchor="start" x="1094" y="-1680.3" font-family="monospace" font-size="14.00">    EX_FloatConst 1</text>
</g>
<!-- PerkColorFromType__0&#45;&gt;PerkColorFromType__27 -->
<g id="edge29" class="edge">
<title>PerkColorFromType__0&#45;&gt;PerkColorFromType__27</title>
<path fill="none" stroke="black" d="M1325.5,-1859.75C1325.5,-1842.66 1325.5,-1819.22 1325.5,-1796.96"/>
<polygon fill="black" stroke="black" points="1329,-1796.98 1325.5,-1786.98 1322,-1796.98 1329,-1796.98"/>
</g>
<!-- PerkColorFromType__79 -->
<g id="node31" class="node">
<title>PerkColorFromType__79</title>
<polygon fill="#eeeeee" stroke="black" points="1086,-1521.5 1086,-1634.5 1565,-1634.5 1565,-1521.5 1086,-1521.5"/>
<text text-anchor="start" x="1094" y="-1619.3" font-family="monospace" font-size="14.00">EX_Let</text>
<text text-anchor="start" x="1094" y="-1604.3" font-family="monospace" font-size="14.00">  EX_LocalVariable [Temp_struct_Variable_1]</text>
<text text-anchor="start" x="1094" y="-1589.3" font-family="monospace" font-size="14.00">  EX_StructConst import /Script/CoreUObject&#45;&gt;LinearColor</text>
<text text-anchor="start" x="1094" y="-1574.3" font-family="monospace" font-size="14.00">    EX_FloatConst 0.484375</text>
<text text-anchor="start" x="1094" y="-1559.3" font-family="monospace" font-size="14.00">    EX_FloatConst 0.027751</text>
<text text-anchor="start" x="1094" y="-1544.3" font-family="monospace" font-size="14.00">    EX_FloatConst 0.07654</text>
<text text-anchor="start" x="1094" y="-1529.3" font-family="monospace" font-size="14.00">    EX_FloatConst 1</text>
</g>
<!-- PerkColorFromType__27&#45;&gt;PerkColorFromType__79 -->
<g id="edge30" class="edge">
<title>PerkColorFromType__27&#45;&gt;PerkColorFromType__79</title>
<path fill="none" stroke="black" d="M1325.5,-1672.52C1325.5,-1663.68 1325.5,-1654.45 1325.5,-1645.39"/>
<polygon fill="black" stroke="black" points="1329,-1645.55 1325.5,-1635.55 1322,-1645.55 1329,-1645.55"/>
</g>
<!-- PerkColorFromType__131 -->
<g id="node32" class="node">
<title>PerkColorFromType__131</title>
<polygon fill="#eeeeee" stroke="black" points="1123.5,-1221.5 1123.5,-1469.5 1527.5,-1469.5 1527.5,-1221.5 1123.5,-1221.5"/>
<text text-anchor="start" x="1131.5" y="-1454.3" font-family="monospace" font-size="14.00">EX_Let</text>
<text text-anchor="start" x="1131.5" y="-1439.3" font-family="monospace" font-size="14.00">  EX_LocalOutVariable</text>
<text text-anchor="start" x="1131.5" y="-1424.3" font-family="monospace" font-size="14.00">    [OutColor]</text>
<text text-anchor="start" x="1131.5" y="-1409.3" font-family="monospace" font-size="14.00">  EX_SwitchValue</text>
<text text-anchor="start" x="1131.5" y="-1394.3" font-family="monospace" font-size="14.00">    EX_LocalVariable [Temp_byte_Variable]</text>
<text text-anchor="start" x="1131.5" y="-1379.3" font-family="monospace" font-size="14.00">    OffsetToSwitchEnd = 204</text>
<text text-anchor="start" x="1131.5" y="-1364.3" font-family="monospace" font-size="14.00">    case 0:</text>
<text text-anchor="start" x="1131.5" y="-1349.3" font-family="monospace" font-size="14.00">      EX_ByteConst 0</text>
<text text-anchor="start" x="1131.5" y="-1334.3" font-family="monospace" font-size="14.00">      NextCaseOffset = 180</text>
<text text-anchor="start" x="1131.5" y="-1319.3" font-family="monospace" font-size="14.00">      EX_LocalVariable [Temp_struct_Variable_1]</text>
<text text-anchor="start" x="1131.5" y="-1304.3" font-family="monospace" font-size="14.00">    case 1:</text>
<text text-anchor="start" x="1131.5" y="-1289.3" font-family="monospace" font-size="14.00">      EX_ByteConst 1</text>
<text text-anchor="start" x="1131.5" y="-1274.3" font-family="monospace" font-size="14.00">      NextCaseOffset = 195</text>
<text text-anchor="start" x="1131.5" y="-1259.3" font-family="monospace" font-size="14.00">      EX_LocalVariable [Temp_struct_Variable]</text>
<text text-anchor="start" x="1131.5" y="-1244.3" font-family="monospace" font-size="14.00">    default:</text>
<text text-anchor="start" x="1131.5" y="-1229.3" font-family="monospace" font-size="14.00">      EX_LocalVariable [K2Node_Select_Default]</text>
</g>
<!-- PerkColorFromType__79&#45;&gt;PerkColorFromType__131 -->
<g id="edge31" class="edge">
<title>PerkColorFromType__79&#45;&gt;PerkColorFromType__131</title>
<path fill="none" stroke="black" d="M1325.5,-1521.79C1325.5,-1509.05 1325.5,-1494.96 1325.5,-1480.46"/>
<polygon fill="black" stroke="black" points="1329,-1480.82 1325.5,-1470.82 1322,-1480.82 1329,-1480.82"/>
</g>
<!-- PerkColorFromType__204 -->
<g id="node33" class="node">
<title>PerkColorFromType__204</title>
<polygon fill="#eeeeee" stroke="black" points="1267.5,-1130.5 1267.5,-1168.5 1383.5,-1168.5 1383.5,-1130.5 1267.5,-1130.5"/>
<text text-anchor="start" x="1275.5" y="-1153.3" font-family="monospace" font-size="14.00">EX_Return</text>
<text text-anchor="start" x="1275.5" y="-1138.3" font-family="monospace" font-size="14.00">  EX_Nothing</text>
</g>
<!-- PerkColorFromType__131&#45;&gt;PerkColorFromType__204 -->
<g id="edge32" class="edge">
<title>PerkColorFromType__131&#45;&gt;PerkColorFromType__204</title>
<path fill="none" stroke="black" d="M1325.5,-1221.64C1325.5,-1206.12 1325.5,-1191.56 1325.5,-1179.7"/>
<polygon fill="black" stroke="black" points="1329,-1179.91 1325.5,-1169.91 1322,-1179.91 1329,-1179.91"/>
</g>
<!-- PerkColorFromType__206 -->
<g id="node34" class="node">
<title>PerkColorFromType__206</title>
<polygon fill="#eeeeee" stroke="black" points="1340.5,-1804.5 1340.5,-1840.5 1472.5,-1840.5 1472.5,-1804.5 1340.5,-1804.5"/>
<text text-anchor="start" x="1348.5" y="-1818.8" font-family="monospace" font-size="14.00">EX_EndOfScript</text>
</g>
</g>
</svg>
