<?xml version="1.0" encoding="UTF-8" standalone="no"?>
<!DOCTYPE svg PUBLIC "-//W3C//DTD SVG 1.1//EN"
 "http://www.w3.org/Graphics/SVG/1.1/DTD/svg11.dtd">
<!-- Generated by graphviz version 7.0.1 (0)
 -->
<!-- Pages: 1 -->
<svg width="2307pt" height="302pt"
 viewBox="0.00 0.00 2307.00 302.00" xmlns="http://www.w3.org/2000/svg" xmlns:xlink="http://www.w3.org/1999/xlink">
<g id="graph0" class="graph" transform="scale(1 1) rotate(0) translate(4 298)">
<polygon fill="white" stroke="none" points="-4,4 -4,-298 2303,-298 2303,4 -4,4"/>
<!-- LCD_MissionReadout_Garbage01_C -->
<g id="node1" class="node">
<title>LCD_MissionReadout_Garbage01_C</title>
<polygon fill="#88ff88" stroke="black" points="0,-150.5 0,-293.5 850,-293.5 850,-150.5 0,-150.5"/>
<text text-anchor="start" x="8" y="-278.3" font-family="monospace" font-size="14.00">ClassExport: LCD_MissionReadout_Garbage01_C</text>
<text text-anchor="start" x="8" y="-263.3" font-family="monospace" font-size="14.00">  SuperStruct: import /Script/UMG&#45;&gt;UserWidget</text>
<text text-anchor="start" x="8" y="-248.3" font-family="monospace" font-size="14.00">  Properties:</text>
<text text-anchor="start" x="8" y="-233.3" font-family="monospace" font-size="14.00">    StructProperty UberGraphFrame</text>
<text text-anchor="start" x="8" y="-218.3" font-family="monospace" font-size="14.00">      CPF_Transient|CPF_DuplicateTransient</text>
<text text-anchor="start" x="8" y="-203.3" font-family="monospace" font-size="14.00">    ObjectProperty Image_41</text>
<text text-anchor="start" x="8" y="-188.3" font-family="monospace" font-size="14.00">      CPF_BlueprintVisible|CPF_ExportObject|CPF_InstancedReference|CPF_RepSkip|CPF_PersistentInstance</text>
<text text-anchor="start" x="8" y="-173.3" font-family="monospace" font-size="14.00">    ObjectProperty Biome</text>
<text text-anchor="start" x="8" y="-158.3" font-family="monospace" font-size="14.00">      CPF_Edit|CPF_BlueprintVisible|CPF_DisableEditOnInstance</text>
</g>
<!-- ExecuteUbergraph_LCD_MissionReadout_Garbage01 -->
<g id="node2" class="node">
<title>ExecuteUbergraph_LCD_MissionReadout_Garbage01</title>
<polygon fill="#ff8888" stroke="black" points="868,-195.5 868,-248.5 1338,-248.5 1338,-195.5 868,-195.5"/>
<text text-anchor="start" x="876" y="-233.3" font-family="monospace" font-size="14.00">Function ExecuteUbergraph_LCD_MissionReadout_Garbage01</text>
<text text-anchor="start" x="876" y="-218.3" font-family="monospace" font-size="14.00">  IntProperty EntryPoint</text>
<text text-anchor="start" x="876" y="-203.3" font-family="monospace" font-size="14.00">    CPF_BlueprintVisible|CPF_BlueprintReadOnly|CPF_Parm</text>
</g>
<!-- ExecuteUbergraph_LCD_MissionReadout_Garbage01__0 -->
<g id="node3" class="node">
<title>ExecuteUbergraph_LCD_MissionReadout_Garbage01__0</title>
<polygon fill="#eeeeee" stroke="black" points="967,-75.5 967,-113.5 1239,-113.5 1239,-75.5 967,-75.5"/>
<text text-anchor="start" x="975" y="-98.3" font-family="monospace" font-size="14.00">EX_ComputedJump</text>
<text text-anchor="start" x="975" y="-83.3" font-family="monospace" font-size="14.00">  EX_LocalVariable [EntryPoint]</text>
</g>
<!-- ExecuteUbergraph_LCD_MissionReadout_Garbage01&#45;&gt;ExecuteUbergraph_LCD_MissionReadout_Garbage01__0 -->
<g id="edge1" class="edge">
<title>ExecuteUbergraph_LCD_MissionReadout_Garbage01&#45;&gt;ExecuteUbergraph_LCD_MissionReadout_Garbage01__0</title>
<path fill="none" stroke="black" d="M1103,-195.6C1103,-175.03 1103,-146.04 1103,-124.54"/>
<polygon fill="black" stroke="black" points="1106.5,-124.69 1103,-114.69 1099.5,-124.69 1106.5,-124.69"/>
</g>
<!-- ExecuteUbergraph_LCD_MissionReadout_Garbage01__10 -->
<g id="node4" class="node">
<title>ExecuteUbergraph_LCD_MissionReadout_Garbage01__10</title>
<polygon fill="#eeeeee" stroke="black" points="2091,-0.5 2091,-38.5 2207,-38.5 2207,-0.5 2091,-0.5"/>
<text text-anchor="start" x="2099" y="-23.3" font-family="monospace" font-size="14.00">EX_Return</text>
<text text-anchor="start" x="2099" y="-8.3" font-family="monospace" font-size="14.00">  EX_Nothing</text>
</g>
<!-- ExecuteUbergraph_LCD_MissionReadout_Garbage01__12 -->
<g id="node5" class="node">
<title>ExecuteUbergraph_LCD_MissionReadout_Garbage01__12</title>
<polygon fill="#eeeeee" stroke="black" points="2167,-76.5 2167,-112.5 2299,-112.5 2299,-76.5 2167,-76.5"/>
<text text-anchor="start" x="2175" y="-90.8" font-family="monospace" font-size="14.00">EX_EndOfScript</text>
</g>
<!-- Construct -->
<g id="node6" class="node">
<title>Construct</title>
<polygon fill="#ff8888" stroke="black" points="1620.5,-204 1620.5,-240 1785.5,-240 1785.5,-204 1620.5,-204"/>
<text text-anchor="start" x="1628.5" y="-218.3" font-family="monospace" font-size="14.00">Function Construct</text>
</g>
<!-- Construct__0 -->
<g id="node7" class="node">
<title>Construct__0</title>
<polygon fill="#eeeeee" stroke="black" points="1257.5,-75.5 1257.5,-113.5 2148.5,-113.5 2148.5,-75.5 1257.5,-75.5"/>
<text text-anchor="start" x="1265.5" y="-98.3" font-family="monospace" font-size="14.00">EX_LocalFinalFunction export LCD_MissionReadout_Garbage01_C&#45;&gt;ExecuteUbergraph_LCD_MissionReadout_Garbage01</text>
<text text-anchor="start" x="1265.5" y="-83.3" font-family="monospace" font-size="14.00">  EX_IntConst 10</text>
</g>
<!-- Construct&#45;&gt;Construct__0 -->
<g id="edge2" class="edge">
<title>Construct&#45;&gt;Construct__0</title>
<path fill="none" stroke="black" d="M1703,-204.07C1703,-183.72 1703,-149.22 1703,-124.57"/>
<polygon fill="black" stroke="black" points="1706.5,-124.88 1703,-114.88 1699.5,-124.88 1706.5,-124.88"/>
</g>
<!-- Construct__0&#45;&gt;ExecuteUbergraph_LCD_MissionReadout_Garbage01__10 -->
<g id="edge3" class="edge">
<title>Construct__0:e&#45;&gt;ExecuteUbergraph_LCD_MissionReadout_Garbage01__10</title>
<path fill="none" stroke="red" d="M2150,-94.5C2159.39,-94.5 2157.73,-70.39 2154.58,-49.69"/>
<polygon fill="none" stroke="red" points="2158.05,-49.19 2152.93,-39.91 2151.14,-50.35 2158.05,-49.19"/>
</g>
<!-- Construct__15 -->
<g id="node8" class="node">
<title>Construct__15</title>
<polygon fill="#eeeeee" stroke="black" points="1645,-0.5 1645,-38.5 1761,-38.5 1761,-0.5 1645,-0.5"/>
<text text-anchor="start" x="1653" y="-23.3" font-family="monospace" font-size="14.00">EX_Return</text>
<text text-anchor="start" x="1653" y="-8.3" font-family="monospace" font-size="14.00">  EX_Nothing</text>
</g>
<!-- Construct__0&#45;&gt;Construct__15 -->
<g id="edge4" class="edge">
<title>Construct__0&#45;&gt;Construct__15</title>
<path fill="none" stroke="black" d="M1703,-75.83C1703,-68 1703,-58.57 1703,-49.74"/>
<polygon fill="black" stroke="black" points="1706.5,-49.78 1703,-39.78 1699.5,-49.78 1706.5,-49.78"/>
</g>
<!-- Construct__17 -->
<g id="node9" class="node">
<title>Construct__17</title>
<polygon fill="#eeeeee" stroke="black" points="1804,-204 1804,-240 1936,-240 1936,-204 1804,-204"/>
<text text-anchor="start" x="1812" y="-218.3" font-family="monospace" font-size="14.00">EX_EndOfScript</text>
</g>
</g>
</svg>
