<?xml version="1.0" encoding="UTF-8" standalone="no"?>
<!DOCTYPE svg PUBLIC "-//W3C//DTD SVG 1.1//EN"
 "http://www.w3.org/Graphics/SVG/1.1/DTD/svg11.dtd">
<!-- Generated by graphviz version 7.0.1 (0)
 -->
<!-- Pages: 1 -->
<svg width="2378pt" height="602pt"
 viewBox="0.00 0.00 2378.00 602.00" xmlns="http://www.w3.org/2000/svg" xmlns:xlink="http://www.w3.org/1999/xlink">
<g id="graph0" class="graph" transform="scale(1 1) rotate(0) translate(4 598)">
<polygon fill="white" stroke="none" points="-4,4 -4,-598 2374,-598 2374,4 -4,4"/>
<!-- BP_InfectedMulePreplacement_C -->
<g id="node1" class="node">
<title>BP_InfectedMulePreplacement_C</title>
<polygon fill="#88ff88" stroke="black" points="0,-480.5 0,-593.5 594,-593.5 594,-480.5 0,-480.5"/>
<text text-anchor="start" x="8" y="-578.3" font-family="monospace" font-size="14.00">ClassExport: BP_InfectedMulePreplacement_C</text>
<text text-anchor="start" x="8" y="-563.3" font-family="monospace" font-size="14.00">  SuperStruct: import /Script/Engine&#45;&gt;Actor</text>
<text text-anchor="start" x="8" y="-548.3" font-family="monospace" font-size="14.00">  Properties:</text>
<text text-anchor="start" x="8" y="-533.3" font-family="monospace" font-size="14.00">    StructProperty UberGraphFrame</text>
<text text-anchor="start" x="8" y="-518.3" font-family="monospace" font-size="14.00">      CPF_Transient|CPF_DuplicateTransient</text>
<text text-anchor="start" x="8" y="-503.3" font-family="monospace" font-size="14.00">    ObjectProperty DefaultSceneRoot</text>
<text text-anchor="start" x="8" y="-488.3" font-family="monospace" font-size="14.00">      CPF_BlueprintVisible|CPF_InstancedReference|CPF_NonTransactional</text>
</g>
<!-- ExecuteUbergraph_BP_InfectedMulePreplacement -->
<g id="node2" class="node">
<title>ExecuteUbergraph_BP_InfectedMulePreplacement</title>
<polygon fill="#ff8888" stroke="black" points="612.5,-495.5 612.5,-578.5 1099.5,-578.5 1099.5,-495.5 612.5,-495.5"/>
<text text-anchor="start" x="620.5" y="-563.3" font-family="monospace" font-size="14.00">Function ExecuteUbergraph_BP_InfectedMulePreplacement</text>
<text text-anchor="start" x="620.5" y="-548.3" font-family="monospace" font-size="14.00">  IntProperty EntryPoint</text>
<text text-anchor="start" x="620.5" y="-533.3" font-family="monospace" font-size="14.00">    CPF_BlueprintVisible|CPF_BlueprintReadOnly|CPF_Parm</text>
<text text-anchor="start" x="620.5" y="-518.3" font-family="monospace" font-size="14.00">  StructProperty CallFunc_K2_GetActorLocation_ReturnValue</text>
<text text-anchor="start" x="620.5" y="-503.3" font-family="monospace" font-size="14.00">  ObjectProperty CallFunc_GetProceduralSetup_ReturnValue</text>
</g>
<!-- ExecuteUbergraph_BP_InfectedMulePreplacement__0 -->
<g id="node3" class="node">
<title>ExecuteUbergraph_BP_InfectedMulePreplacement__0</title>
<polygon fill="#eeeeee" stroke="black" points="720,-405.5 720,-443.5 992,-443.5 992,-405.5 720,-405.5"/>
<text text-anchor="start" x="728" y="-428.3" font-family="monospace" font-size="14.00">EX_ComputedJump</text>
<text text-anchor="start" x="728" y="-413.3" font-family="monospace" font-size="14.00">  EX_LocalVariable [EntryPoint]</text>
</g>
<!-- ExecuteUbergraph_BP_InfectedMulePreplacement&#45;&gt;ExecuteUbergraph_BP_InfectedMulePreplacement__0 -->
<g id="edge1" class="edge">
<title>ExecuteUbergraph_BP_InfectedMulePreplacement&#45;&gt;ExecuteUbergraph_BP_InfectedMulePreplacement__0</title>
<path fill="none" stroke="black" d="M856,-495.79C856,-482.14 856,-467.16 856,-454.55"/>
<polygon fill="black" stroke="black" points="859.5,-454.82 856,-444.82 852.5,-454.82 859.5,-454.82"/>
</g>
<!-- ExecuteUbergraph_BP_InfectedMulePreplacement__10 -->
<g id="node4" class="node">
<title>ExecuteUbergraph_BP_InfectedMulePreplacement__10</title>
<polygon fill="#eeeeee" stroke="black" points="1597,-315.5 1597,-368.5 2175,-368.5 2175,-315.5 1597,-315.5"/>
<text text-anchor="start" x="1605" y="-353.3" font-family="monospace" font-size="14.00">EX_Let</text>
<text text-anchor="start" x="1605" y="-338.3" font-family="monospace" font-size="14.00">  EX_LocalVariable [CallFunc_K2_GetActorLocation_ReturnValue]</text>
<text text-anchor="start" x="1605" y="-323.3" font-family="monospace" font-size="14.00">  EX_FinalFunction import /Script/Engine&#45;&gt;Actor&#45;&gt;K2_GetActorLocation</text>
</g>
<!-- ExecuteUbergraph_BP_InfectedMulePreplacement__38 -->
<g id="node5" class="node">
<title>ExecuteUbergraph_BP_InfectedMulePreplacement__38</title>
<polygon fill="#eeeeee" stroke="black" points="1552,-210.5 1552,-278.5 2220,-278.5 2220,-210.5 1552,-210.5"/>
<text text-anchor="start" x="1560" y="-263.3" font-family="monospace" font-size="14.00">EX_LetObj</text>
<text text-anchor="start" x="1560" y="-248.3" font-family="monospace" font-size="14.00">  EX_LocalVariable [CallFunc_GetProceduralSetup_ReturnValue]</text>
<text text-anchor="start" x="1560" y="-233.3" font-family="monospace" font-size="14.00">  EX_CallMath import /Script/FSD&#45;&gt;ProceduralFunctionLibrary&#45;&gt;GetProceduralSetup</text>
<text text-anchor="start" x="1560" y="-218.3" font-family="monospace" font-size="14.00">    EX_Self</text>
</g>
<!-- ExecuteUbergraph_BP_InfectedMulePreplacement__10&#45;&gt;ExecuteUbergraph_BP_InfectedMulePreplacement__38 -->
<g id="edge2" class="edge">
<title>ExecuteUbergraph_BP_InfectedMulePreplacement__10&#45;&gt;ExecuteUbergraph_BP_InfectedMulePreplacement__38</title>
<path fill="none" stroke="black" d="M1886,-315.66C1886,-307.67 1886,-298.59 1886,-289.68"/>
<polygon fill="black" stroke="black" points="1889.5,-289.69 1886,-279.69 1882.5,-289.69 1889.5,-289.69"/>
</g>
<!-- ExecuteUbergraph_BP_InfectedMulePreplacement__59 -->
<g id="node6" class="node">
<title>ExecuteUbergraph_BP_InfectedMulePreplacement__59</title>
<polygon fill="#eeeeee" stroke="black" points="1564,-75.5 1564,-173.5 2208,-173.5 2208,-75.5 1564,-75.5"/>
<text text-anchor="start" x="1572" y="-158.3" font-family="monospace" font-size="14.00">EX_Context</text>
<text text-anchor="start" x="1572" y="-143.3" font-family="monospace" font-size="14.00">  EX_LocalVariable [CallFunc_GetProceduralSetup_ReturnValue]</text>
<text text-anchor="start" x="1572" y="-128.3" font-family="monospace" font-size="14.00">  EX_FinalFunction import /Script/FSD&#45;&gt;ProceduralSetup&#45;&gt;AddImportantLocation</text>
<text text-anchor="start" x="1572" y="-113.3" font-family="monospace" font-size="14.00">    EX_LocalVariable [CallFunc_K2_GetActorLocation_ReturnValue]</text>
<text text-anchor="start" x="1572" y="-98.3" font-family="monospace" font-size="14.00">    EX_FloatConst 750</text>
<text text-anchor="start" x="1572" y="-83.3" font-family="monospace" font-size="14.00">  RValue = []</text>
</g>
<!-- ExecuteUbergraph_BP_InfectedMulePreplacement__38&#45;&gt;ExecuteUbergraph_BP_InfectedMulePreplacement__59 -->
<g id="edge3" class="edge">
<title>ExecuteUbergraph_BP_InfectedMulePreplacement__38&#45;&gt;ExecuteUbergraph_BP_InfectedMulePreplacement__59</title>
<path fill="none" stroke="black" d="M1886,-210.63C1886,-202.48 1886,-193.49 1886,-184.51"/>
<polygon fill="black" stroke="black" points="1889.5,-184.7 1886,-174.7 1882.5,-184.7 1889.5,-184.7"/>
</g>
<!-- ExecuteUbergraph_BP_InfectedMulePreplacement__105 -->
<g id="node7" class="node">
<title>ExecuteUbergraph_BP_InfectedMulePreplacement__105</title>
<polygon fill="#eeeeee" stroke="black" points="1828,-0.5 1828,-38.5 1944,-38.5 1944,-0.5 1828,-0.5"/>
<text text-anchor="start" x="1836" y="-23.3" font-family="monospace" font-size="14.00">EX_Return</text>
<text text-anchor="start" x="1836" y="-8.3" font-family="monospace" font-size="14.00">  EX_Nothing</text>
</g>
<!-- ExecuteUbergraph_BP_InfectedMulePreplacement__59&#45;&gt;ExecuteUbergraph_BP_InfectedMulePreplacement__105 -->
<g id="edge4" class="edge">
<title>ExecuteUbergraph_BP_InfectedMulePreplacement__59&#45;&gt;ExecuteUbergraph_BP_InfectedMulePreplacement__105</title>
<path fill="none" stroke="black" d="M1886,-75.62C1886,-66.83 1886,-57.89 1886,-49.85"/>
<polygon fill="black" stroke="black" points="1889.5,-49.98 1886,-39.98 1882.5,-49.98 1889.5,-49.98"/>
</g>
<!-- ExecuteUbergraph_BP_InfectedMulePreplacement__107 -->
<g id="node8" class="node">
<title>ExecuteUbergraph_BP_InfectedMulePreplacement__107</title>
<polygon fill="#eeeeee" stroke="black" points="2238,-226.5 2238,-262.5 2370,-262.5 2370,-226.5 2238,-226.5"/>
<text text-anchor="start" x="2246" y="-240.8" font-family="monospace" font-size="14.00">EX_EndOfScript</text>
</g>
<!-- ReceiveBeginPlay -->
<g id="node9" class="node">
<title>ReceiveBeginPlay</title>
<polygon fill="#ff8888" stroke="black" points="1336.5,-519 1336.5,-555 1559.5,-555 1559.5,-519 1336.5,-519"/>
<text text-anchor="start" x="1344.5" y="-533.3" font-family="monospace" font-size="14.00">Function ReceiveBeginPlay</text>
</g>
<!-- ReceiveBeginPlay__0 -->
<g id="node10" class="node">
<title>ReceiveBeginPlay__0</title>
<polygon fill="#eeeeee" stroke="black" points="1010.5,-405.5 1010.5,-443.5 1885.5,-443.5 1885.5,-405.5 1010.5,-405.5"/>
<text text-anchor="start" x="1018.5" y="-428.3" font-family="monospace" font-size="14.00">EX_LocalFinalFunction export BP_InfectedMulePreplacement_C&#45;&gt;ExecuteUbergraph_BP_InfectedMulePreplacement</text>
<text text-anchor="start" x="1018.5" y="-413.3" font-family="monospace" font-size="14.00">  EX_IntConst 10</text>
</g>
<!-- ReceiveBeginPlay&#45;&gt;ReceiveBeginPlay__0 -->
<g id="edge5" class="edge">
<title>ReceiveBeginPlay&#45;&gt;ReceiveBeginPlay__0</title>
<path fill="none" stroke="black" d="M1448,-519.22C1448,-502.06 1448,-475.07 1448,-454.45"/>
<polygon fill="black" stroke="black" points="1451.5,-454.69 1448,-444.69 1444.5,-454.69 1451.5,-454.69"/>
</g>
<!-- ReceiveBeginPlay__0&#45;&gt;ExecuteUbergraph_BP_InfectedMulePreplacement__10 -->
<g id="edge6" class="edge">
<title>ReceiveBeginPlay__0:e&#45;&gt;ExecuteUbergraph_BP_InfectedMulePreplacement__10</title>
<path fill="none" stroke="red" d="M1887,-424.5C1906.49,-424.5 1904.72,-400.91 1898.92,-379.11"/>
<polygon fill="none" stroke="red" points="1902.36,-378.38 1896.15,-369.79 1895.65,-380.37 1902.36,-378.38"/>
</g>
<!-- ReceiveBeginPlay__15 -->
<g id="node11" class="node">
<title>ReceiveBeginPlay__15</title>
<polygon fill="#eeeeee" stroke="black" points="1390,-323 1390,-361 1506,-361 1506,-323 1390,-323"/>
<text text-anchor="start" x="1398" y="-345.8" font-family="monospace" font-size="14.00">EX_Return</text>
<text text-anchor="start" x="1398" y="-330.8" font-family="monospace" font-size="14.00">  EX_Nothing</text>
</g>
<!-- ReceiveBeginPlay__0&#45;&gt;ReceiveBeginPlay__15 -->
<g id="edge7" class="edge">
<title>ReceiveBeginPlay__0&#45;&gt;ReceiveBeginPlay__15</title>
<path fill="none" stroke="black" d="M1448,-405.63C1448,-395.84 1448,-383.45 1448,-372.28"/>
<polygon fill="black" stroke="black" points="1451.5,-372.33 1448,-362.33 1444.5,-372.33 1451.5,-372.33"/>
</g>
<!-- ReceiveBeginPlay__17 -->
<g id="node12" class="node">
<title>ReceiveBeginPlay__17</title>
<polygon fill="#eeeeee" stroke="black" points="2226,-106.5 2226,-142.5 2358,-142.5 2358,-106.5 2226,-106.5"/>
<text text-anchor="start" x="2234" y="-120.8" font-family="monospace" font-size="14.00">EX_EndOfScript</text>
</g>
</g>
</svg>
