<?xml version="1.0" encoding="UTF-8" standalone="no"?>
<!DOCTYPE svg PUBLIC "-//W3C//DTD SVG 1.1//EN"
 "http://www.w3.org/Graphics/SVG/1.1/DTD/svg11.dtd">
<!-- Generated by graphviz version 7.0.1 (0)
 -->
<!-- Pages: 1 -->
<svg width="3412pt" height="1201pt"
 viewBox="0.00 0.00 3412.00 1201.00" xmlns="http://www.w3.org/2000/svg" xmlns:xlink="http://www.w3.org/1999/xlink">
<g id="graph0" class="graph" transform="scale(1 1) rotate(0) translate(4 1197)">
<polygon fill="white" stroke="none" points="-4,4 -4,-1197 3408,-1197 3408,4 -4,4"/>
<!-- ITM_DeepDive_MisCompBG_C -->
<g id="node1" class="node">
<title>ITM_DeepDive_MisCompBG_C</title>
<polygon fill="#88ff88" stroke="black" points="0,-1019.5 0,-1192.5 850,-1192.5 850,-1019.5 0,-1019.5"/>
<text text-anchor="start" x="8" y="-1177.3" font-family="monospace" font-size="14.00">ClassExport: ITM_DeepDive_MisCompBG_C</text>
<text text-anchor="start" x="8" y="-1162.3" font-family="monospace" font-size="14.00">  SuperStruct: import /Script/UMG&#45;&gt;UserWidget</text>
<text text-anchor="start" x="8" y="-1147.3" font-family="monospace" font-size="14.00">  Properties:</text>
<text text-anchor="start" x="8" y="-1132.3" font-family="monospace" font-size="14.00">    StructProperty UberGraphFrame</text>
<text text-anchor="start" x="8" y="-1117.3" font-family="monospace" font-size="14.00">      CPF_Transient|CPF_DuplicateTransient</text>
<text text-anchor="start" x="8" y="-1102.3" font-family="monospace" font-size="14.00">    ObjectProperty AnimBackgroundFloat</text>
<text text-anchor="start" x="8" y="-1087.3" font-family="monospace" font-size="14.00">      CPF_BlueprintVisible|CPF_BlueprintReadOnly|CPF_Transient|CPF_RepSkip</text>
<text text-anchor="start" x="8" y="-1072.3" font-family="monospace" font-size="14.00">    ObjectProperty BlurBackground</text>
<text text-anchor="start" x="8" y="-1057.3" font-family="monospace" font-size="14.00">      CPF_BlueprintVisible|CPF_ExportObject|CPF_InstancedReference|CPF_RepSkip|CPF_PersistentInstance</text>
<text text-anchor="start" x="8" y="-1042.3" font-family="monospace" font-size="14.00">    ObjectProperty ImageBackground</text>
<text text-anchor="start" x="8" y="-1027.3" font-family="monospace" font-size="14.00">      CPF_BlueprintVisible|CPF_ExportObject|CPF_InstancedReference|CPF_RepSkip|CPF_PersistentInstance</text>
</g>
<!-- ExecuteUbergraph_ITM_DeepDive_MisCompBG -->
<g id="node2" class="node">
<title>ExecuteUbergraph_ITM_DeepDive_MisCompBG</title>
<polygon fill="#ff8888" stroke="black" points="868,-1064.5 868,-1147.5 1338,-1147.5 1338,-1064.5 868,-1064.5"/>
<text text-anchor="start" x="876" y="-1132.3" font-family="monospace" font-size="14.00">Function ExecuteUbergraph_ITM_DeepDive_MisCompBG</text>
<text text-anchor="start" x="876" y="-1117.3" font-family="monospace" font-size="14.00">  IntProperty EntryPoint</text>
<text text-anchor="start" x="876" y="-1102.3" font-family="monospace" font-size="14.00">    CPF_BlueprintVisible|CPF_BlueprintReadOnly|CPF_Parm</text>
<text text-anchor="start" x="876" y="-1087.3" font-family="monospace" font-size="14.00">  ObjectProperty CallFunc_PlayAnimation_ReturnValue</text>
<text text-anchor="start" x="876" y="-1072.3" font-family="monospace" font-size="14.00">  BoolProperty K2Node_Event_IsDesignTime</text>
</g>
<!-- ExecuteUbergraph_ITM_DeepDive_MisCompBG__0 -->
<g id="node3" class="node">
<title>ExecuteUbergraph_ITM_DeepDive_MisCompBG__0</title>
<polygon fill="#eeeeee" stroke="black" points="967,-892.5 967,-930.5 1239,-930.5 1239,-892.5 967,-892.5"/>
<text text-anchor="start" x="975" y="-915.3" font-family="monospace" font-size="14.00">EX_ComputedJump</text>
<text text-anchor="start" x="975" y="-900.3" font-family="monospace" font-size="14.00">  EX_LocalVariable [EntryPoint]</text>
</g>
<!-- ExecuteUbergraph_ITM_DeepDive_MisCompBG&#45;&gt;ExecuteUbergraph_ITM_DeepDive_MisCompBG__0 -->
<g id="edge1" class="edge">
<title>ExecuteUbergraph_ITM_DeepDive_MisCompBG&#45;&gt;ExecuteUbergraph_ITM_DeepDive_MisCompBG__0</title>
<path fill="none" stroke="black" d="M1103,-1064.65C1103,-1027.89 1103,-974.49 1103,-941.7"/>
<polygon fill="black" stroke="black" points="1106.5,-941.74 1103,-931.74 1099.5,-941.74 1106.5,-941.74"/>
</g>
<!-- ExecuteUbergraph_ITM_DeepDive_MisCompBG__10 -->
<g id="node4" class="node">
<title>ExecuteUbergraph_ITM_DeepDive_MisCompBG__10</title>
<polygon fill="#eeeeee" stroke="black" points="2171.5,-398.5 2171.5,-541.5 2716.5,-541.5 2716.5,-398.5 2171.5,-398.5"/>
<text text-anchor="start" x="2179.5" y="-526.3" font-family="monospace" font-size="14.00">EX_LetObj</text>
<text text-anchor="start" x="2179.5" y="-511.3" font-family="monospace" font-size="14.00">  EX_LocalVariable [CallFunc_PlayAnimation_ReturnValue]</text>
<text text-anchor="start" x="2179.5" y="-496.3" font-family="monospace" font-size="14.00">  EX_FinalFunction import /Script/UMG&#45;&gt;UserWidget&#45;&gt;PlayAnimation</text>
<text text-anchor="start" x="2179.5" y="-481.3" font-family="monospace" font-size="14.00">    EX_InstanceVariable [AnimBackgroundFloat]</text>
<text text-anchor="start" x="2179.5" y="-466.3" font-family="monospace" font-size="14.00">    EX_FloatConst 0</text>
<text text-anchor="start" x="2179.5" y="-451.3" font-family="monospace" font-size="14.00">    EX_IntConst 0</text>
<text text-anchor="start" x="2179.5" y="-436.3" font-family="monospace" font-size="14.00">    EX_ByteConst 2</text>
<text text-anchor="start" x="2179.5" y="-421.3" font-family="monospace" font-size="14.00">    EX_FloatConst 1</text>
<text text-anchor="start" x="2179.5" y="-406.3" font-family="monospace" font-size="14.00">    EX_False</text>
</g>
<!-- ExecuteUbergraph_ITM_DeepDive_MisCompBG__57 -->
<g id="node5" class="node">
<title>ExecuteUbergraph_ITM_DeepDive_MisCompBG__57</title>
<polygon fill="#eeeeee" stroke="black" points="2259.5,-257.5 2259.5,-293.5 2358.5,-293.5 2358.5,-257.5 2259.5,-257.5"/>
<text text-anchor="start" x="2267.5" y="-271.8" font-family="monospace" font-size="14.00">EX_Jump 72</text>
</g>
<!-- ExecuteUbergraph_ITM_DeepDive_MisCompBG__10&#45;&gt;ExecuteUbergraph_ITM_DeepDive_MisCompBG__57 -->
<g id="edge2" class="edge">
<title>ExecuteUbergraph_ITM_DeepDive_MisCompBG__10&#45;&gt;ExecuteUbergraph_ITM_DeepDive_MisCompBG__57</title>
<path fill="none" stroke="black" d="M2394.69,-398.69C2371.25,-365.27 2344.66,-327.35 2327.4,-302.73"/>
<polygon fill="black" stroke="black" points="2330.3,-300.78 2321.7,-294.6 2324.57,-304.8 2330.3,-300.78"/>
</g>
<!-- ExecuteUbergraph_ITM_DeepDive_MisCompBG__72 -->
<g id="node8" class="node">
<title>ExecuteUbergraph_ITM_DeepDive_MisCompBG__72</title>
<polygon fill="#eeeeee" stroke="black" points="2193,-106.5 2193,-144.5 2309,-144.5 2309,-106.5 2193,-106.5"/>
<text text-anchor="start" x="2201" y="-129.3" font-family="monospace" font-size="14.00">EX_Return</text>
<text text-anchor="start" x="2201" y="-114.3" font-family="monospace" font-size="14.00">  EX_Nothing</text>
</g>
<!-- ExecuteUbergraph_ITM_DeepDive_MisCompBG__57&#45;&gt;ExecuteUbergraph_ITM_DeepDive_MisCompBG__72 -->
<g id="edge3" class="edge">
<title>ExecuteUbergraph_ITM_DeepDive_MisCompBG__57&#45;&gt;ExecuteUbergraph_ITM_DeepDive_MisCompBG__72</title>
<path fill="none" stroke="black" d="M2302.35,-257.52C2292.49,-232.37 2273.89,-184.9 2261.99,-154.54"/>
<polygon fill="black" stroke="black" points="2265.39,-153.64 2258.49,-145.61 2258.88,-156.19 2265.39,-153.64"/>
</g>
<!-- ExecuteUbergraph_ITM_DeepDive_MisCompBG__62 -->
<g id="node6" class="node">
<title>ExecuteUbergraph_ITM_DeepDive_MisCompBG__62</title>
<polygon fill="#eeeeee" stroke="black" points="2091.5,-343.5 2091.5,-379.5 2190.5,-379.5 2190.5,-343.5 2091.5,-343.5"/>
<text text-anchor="start" x="2099.5" y="-357.8" font-family="monospace" font-size="14.00">EX_Jump 72</text>
</g>
<!-- ExecuteUbergraph_ITM_DeepDive_MisCompBG__62&#45;&gt;ExecuteUbergraph_ITM_DeepDive_MisCompBG__72 -->
<g id="edge4" class="edge">
<title>ExecuteUbergraph_ITM_DeepDive_MisCompBG__62&#45;&gt;ExecuteUbergraph_ITM_DeepDive_MisCompBG__72</title>
<path fill="none" stroke="black" d="M2148.91,-343.67C2167.6,-303.92 2214.63,-203.87 2237.75,-154.69"/>
<polygon fill="black" stroke="black" points="2240.83,-156.36 2241.92,-145.82 2234.5,-153.38 2240.83,-156.36"/>
</g>
<!-- ExecuteUbergraph_ITM_DeepDive_MisCompBG__67 -->
<g id="node7" class="node">
<title>ExecuteUbergraph_ITM_DeepDive_MisCompBG__67</title>
<polygon fill="#eeeeee" stroke="black" points="2535.5,-691.5 2535.5,-727.5 2634.5,-727.5 2634.5,-691.5 2535.5,-691.5"/>
<text text-anchor="start" x="2543.5" y="-705.8" font-family="monospace" font-size="14.00">EX_Jump 10</text>
</g>
<!-- ExecuteUbergraph_ITM_DeepDive_MisCompBG__67&#45;&gt;ExecuteUbergraph_ITM_DeepDive_MisCompBG__10 -->
<g id="edge5" class="edge">
<title>ExecuteUbergraph_ITM_DeepDive_MisCompBG__67&#45;&gt;ExecuteUbergraph_ITM_DeepDive_MisCompBG__10</title>
<path fill="none" stroke="black" d="M2575.09,-691.8C2557.92,-662.88 2521.62,-601.73 2491.56,-551.1"/>
<polygon fill="black" stroke="black" points="2494.72,-549.57 2486.6,-542.76 2488.7,-553.14 2494.72,-549.57"/>
</g>
<!-- ExecuteUbergraph_ITM_DeepDive_MisCompBG__74 -->
<g id="node9" class="node">
<title>ExecuteUbergraph_ITM_DeepDive_MisCompBG__74</title>
<polygon fill="#eeeeee" stroke="black" points="2533,-964.5 2533,-1000.5 2665,-1000.5 2665,-964.5 2533,-964.5"/>
<text text-anchor="start" x="2541" y="-978.8" font-family="monospace" font-size="14.00">EX_EndOfScript</text>
</g>
<!-- Construct -->
<g id="node10" class="node">
<title>Construct</title>
<polygon fill="#ff8888" stroke="black" points="2162.5,-1088 2162.5,-1124 2327.5,-1124 2327.5,-1088 2162.5,-1088"/>
<text text-anchor="start" x="2170.5" y="-1102.3" font-family="monospace" font-size="14.00">Function Construct</text>
</g>
<!-- Construct__0 -->
<g id="node11" class="node">
<title>Construct__0</title>
<polygon fill="#eeeeee" stroke="black" points="1849,-892.5 1849,-930.5 2641,-930.5 2641,-892.5 1849,-892.5"/>
<text text-anchor="start" x="1857" y="-915.3" font-family="monospace" font-size="14.00">EX_LocalFinalFunction export ITM_DeepDive_MisCompBG_C&#45;&gt;ExecuteUbergraph_ITM_DeepDive_MisCompBG</text>
<text text-anchor="start" x="1857" y="-900.3" font-family="monospace" font-size="14.00">  EX_IntConst 67</text>
</g>
<!-- Construct&#45;&gt;Construct__0 -->
<g id="edge6" class="edge">
<title>Construct&#45;&gt;Construct__0</title>
<path fill="none" stroke="black" d="M2245,-1088.25C2245,-1055.52 2245,-982.7 2245,-941.81"/>
<polygon fill="black" stroke="black" points="2248.5,-941.97 2245,-931.97 2241.5,-941.97 2248.5,-941.97"/>
</g>
<!-- Construct__0&#45;&gt;ExecuteUbergraph_ITM_DeepDive_MisCompBG__67 -->
<g id="edge7" class="edge">
<title>Construct__0:e&#45;&gt;ExecuteUbergraph_ITM_DeepDive_MisCompBG__67</title>
<path fill="none" stroke="red" d="M2642,-911.5C2713.88,-911.5 2640.32,-791.06 2603.42,-736.64"/>
<polygon fill="none" stroke="red" points="2606.4,-734.8 2597.85,-728.54 2600.63,-738.76 2606.4,-734.8"/>
</g>
<!-- Construct__15 -->
<g id="node12" class="node">
<title>Construct__15</title>
<polygon fill="#eeeeee" stroke="black" points="2187,-690.5 2187,-728.5 2303,-728.5 2303,-690.5 2187,-690.5"/>
<text text-anchor="start" x="2195" y="-713.3" font-family="monospace" font-size="14.00">EX_Return</text>
<text text-anchor="start" x="2195" y="-698.3" font-family="monospace" font-size="14.00">  EX_Nothing</text>
</g>
<!-- Construct__0&#45;&gt;Construct__15 -->
<g id="edge8" class="edge">
<title>Construct__0&#45;&gt;Construct__15</title>
<path fill="none" stroke="black" d="M2245,-892.75C2245,-858.29 2245,-782.04 2245,-739.9"/>
<polygon fill="black" stroke="black" points="2248.5,-740.01 2245,-730.01 2241.5,-740.01 2248.5,-740.01"/>
</g>
<!-- Construct__17 -->
<g id="node13" class="node">
<title>Construct__17</title>
<polygon fill="#eeeeee" stroke="black" points="2743,-822.5 2743,-858.5 2875,-858.5 2875,-822.5 2743,-822.5"/>
<text text-anchor="start" x="2751" y="-836.8" font-family="monospace" font-size="14.00">EX_EndOfScript</text>
</g>
<!-- PreConstruct -->
<g id="node14" class="node">
<title>PreConstruct</title>
<polygon fill="#ff8888" stroke="black" points="1356,-1079.5 1356,-1132.5 1826,-1132.5 1826,-1079.5 1356,-1079.5"/>
<text text-anchor="start" x="1364" y="-1117.3" font-family="monospace" font-size="14.00">Function PreConstruct</text>
<text text-anchor="start" x="1364" y="-1102.3" font-family="monospace" font-size="14.00">  BoolProperty IsDesignTime</text>
<text text-anchor="start" x="1364" y="-1087.3" font-family="monospace" font-size="14.00">    CPF_BlueprintVisible|CPF_BlueprintReadOnly|CPF_Parm</text>
</g>
<!-- PreConstruct__0 -->
<g id="node15" class="node">
<title>PreConstruct__0</title>
<polygon fill="#eeeeee" stroke="black" points="1351.5,-892.5 1351.5,-930.5 1830.5,-930.5 1830.5,-892.5 1351.5,-892.5"/>
<text text-anchor="start" x="1359.5" y="-915.3" font-family="monospace" font-size="14.00">EX_LetValueOnPersistentFrame [K2Node_Event_IsDesignTime]</text>
<text text-anchor="start" x="1359.5" y="-900.3" font-family="monospace" font-size="14.00">  EX_LocalVariable [IsDesignTime]</text>
</g>
<!-- PreConstruct&#45;&gt;PreConstruct__0 -->
<g id="edge9" class="edge">
<title>PreConstruct&#45;&gt;PreConstruct__0</title>
<path fill="none" stroke="black" d="M1591,-1079.83C1591,-1044.25 1591,-979.36 1591,-941.7"/>
<polygon fill="black" stroke="black" points="1594.5,-942.01 1591,-932.01 1587.5,-942.01 1594.5,-942.01"/>
</g>
<!-- PreConstruct__18 -->
<g id="node16" class="node">
<title>PreConstruct__18</title>
<polygon fill="#eeeeee" stroke="black" points="1297,-690.5 1297,-728.5 2089,-728.5 2089,-690.5 1297,-690.5"/>
<text text-anchor="start" x="1305" y="-713.3" font-family="monospace" font-size="14.00">EX_LocalFinalFunction export ITM_DeepDive_MisCompBG_C&#45;&gt;ExecuteUbergraph_ITM_DeepDive_MisCompBG</text>
<text text-anchor="start" x="1305" y="-698.3" font-family="monospace" font-size="14.00">  EX_IntConst 62</text>
</g>
<!-- PreConstruct__0&#45;&gt;PreConstruct__18 -->
<g id="edge10" class="edge">
<title>PreConstruct__0&#45;&gt;PreConstruct__18</title>
<path fill="none" stroke="black" d="M1600.05,-892.75C1617.81,-857.93 1657.35,-780.39 1678.69,-738.56"/>
<polygon fill="black" stroke="black" points="1681.71,-740.34 1683.13,-729.84 1675.47,-737.16 1681.71,-740.34"/>
</g>
<!-- PreConstruct__18&#45;&gt;ExecuteUbergraph_ITM_DeepDive_MisCompBG__62 -->
<g id="edge11" class="edge">
<title>PreConstruct__18:e&#45;&gt;ExecuteUbergraph_ITM_DeepDive_MisCompBG__62</title>
<path fill="none" stroke="red" d="M2090,-709.5C2154.29,-709.5 2147.22,-473.41 2142.77,-390.71"/>
<polygon fill="none" stroke="red" points="2146.27,-390.53 2142.2,-380.75 2139.28,-390.93 2146.27,-390.53"/>
</g>
<!-- PreConstruct__33 -->
<g id="node17" class="node">
<title>PreConstruct__33</title>
<polygon fill="#eeeeee" stroke="black" points="1635,-451 1635,-489 1751,-489 1751,-451 1635,-451"/>
<text text-anchor="start" x="1643" y="-473.8" font-family="monospace" font-size="14.00">EX_Return</text>
<text text-anchor="start" x="1643" y="-458.8" font-family="monospace" font-size="14.00">  EX_Nothing</text>
</g>
<!-- PreConstruct__18&#45;&gt;PreConstruct__33 -->
<g id="edge12" class="edge">
<title>PreConstruct__18&#45;&gt;PreConstruct__33</title>
<path fill="none" stroke="black" d="M1693,-690.65C1693,-649.89 1693,-549.66 1693,-499.94"/>
<polygon fill="black" stroke="black" points="1696.5,-500.25 1693,-490.25 1689.5,-500.25 1696.5,-500.25"/>
</g>
<!-- PreConstruct__35 -->
<g id="node18" class="node">
<title>PreConstruct__35</title>
<polygon fill="#eeeeee" stroke="black" points="2652,-560.5 2652,-596.5 2784,-596.5 2784,-560.5 2652,-560.5"/>
<text text-anchor="start" x="2660" y="-574.8" font-family="monospace" font-size="14.00">EX_EndOfScript</text>
</g>
<!-- SetBackgroundFromBiome -->
<g id="node19" class="node">
<title>SetBackgroundFromBiome</title>
<polygon fill="#ff8888" stroke="black" points="2735.5,-1042 2735.5,-1170 3230.5,-1170 3230.5,-1042 2735.5,-1042"/>
<text text-anchor="start" x="2743.5" y="-1154.8" font-family="monospace" font-size="14.00">Function SetBackgroundFromBiome</text>
<text text-anchor="start" x="2743.5" y="-1139.8" font-family="monospace" font-size="14.00">  ObjectProperty Biome</text>
<text text-anchor="start" x="2743.5" y="-1124.8" font-family="monospace" font-size="14.00">    CPF_BlueprintVisible|CPF_BlueprintReadOnly|CPF_Parm</text>
<text text-anchor="start" x="2743.5" y="-1109.8" font-family="monospace" font-size="14.00">  BoolProperty CallFunc_IsValid_ReturnValue</text>
<text text-anchor="start" x="2743.5" y="-1094.8" font-family="monospace" font-size="14.00">  ObjectProperty CallFunc_GetBiomeLargeImage_ReturnValue</text>
<text text-anchor="start" x="2743.5" y="-1079.8" font-family="monospace" font-size="14.00">  BoolProperty CallFunc_SelectVisibility_IsVisible</text>
<text text-anchor="start" x="2743.5" y="-1064.8" font-family="monospace" font-size="14.00">  BoolProperty CallFunc_SelectVisibility_VisibilityChanged</text>
<text text-anchor="start" x="2743.5" y="-1049.8" font-family="monospace" font-size="14.00">  EnumProperty CallFunc_SelectVisibility_New_Visibility</text>
</g>
<!-- SetBackgroundFromBiome__0 -->
<g id="node20" class="node">
<title>SetBackgroundFromBiome__0</title>
<polygon fill="#eeeeee" stroke="black" points="2706.5,-877.5 2706.5,-945.5 3259.5,-945.5 3259.5,-877.5 2706.5,-877.5"/>
<text text-anchor="start" x="2714.5" y="-930.3" font-family="monospace" font-size="14.00">EX_LetBool</text>
<text text-anchor="start" x="2714.5" y="-915.3" font-family="monospace" font-size="14.00">  EX_LocalVariable [CallFunc_IsValid_ReturnValue]</text>
<text text-anchor="start" x="2714.5" y="-900.3" font-family="monospace" font-size="14.00">  EX_CallMath import /Script/Engine&#45;&gt;KismetSystemLibrary&#45;&gt;IsValid</text>
<text text-anchor="start" x="2714.5" y="-885.3" font-family="monospace" font-size="14.00">    EX_LocalVariable [Biome]</text>
</g>
<!-- SetBackgroundFromBiome&#45;&gt;SetBackgroundFromBiome__0 -->
<g id="edge13" class="edge">
<title>SetBackgroundFromBiome&#45;&gt;SetBackgroundFromBiome__0</title>
<path fill="none" stroke="black" d="M2983,-1042.23C2983,-1014.39 2983,-982.27 2983,-956.96"/>
<polygon fill="black" stroke="black" points="2986.5,-957 2983,-947 2979.5,-957 2986.5,-957"/>
</g>
<!-- SetBackgroundFromBiome__29 -->
<g id="node21" class="node">
<title>SetBackgroundFromBiome__29</title>
<polygon fill="#eeeeee" stroke="black" points="2702.5,-615.5 2702.5,-803.5 3263.5,-803.5 3263.5,-615.5 2702.5,-615.5"/>
<text text-anchor="start" x="2710.5" y="-788.3" font-family="monospace" font-size="14.00">EX_Context</text>
<text text-anchor="start" x="2710.5" y="-773.3" font-family="monospace" font-size="14.00">  EX_ObjectConst import /Game/Game/LIB_Game&#45;&gt;Default__LIB_Game_C</text>
<text text-anchor="start" x="2710.5" y="-758.3" font-family="monospace" font-size="14.00">  EX_LocalVirtualFunction SelectVisibility</text>
<text text-anchor="start" x="2710.5" y="-743.3" font-family="monospace" font-size="14.00">    EX_InstanceVariable [ImageBackground]</text>
<text text-anchor="start" x="2710.5" y="-728.3" font-family="monospace" font-size="14.00">    EX_ByteConst 1</text>
<text text-anchor="start" x="2710.5" y="-713.3" font-family="monospace" font-size="14.00">    EX_ByteConst 4</text>
<text text-anchor="start" x="2710.5" y="-698.3" font-family="monospace" font-size="14.00">    EX_LocalVariable [CallFunc_IsValid_ReturnValue]</text>
<text text-anchor="start" x="2710.5" y="-683.3" font-family="monospace" font-size="14.00">    EX_Self</text>
<text text-anchor="start" x="2710.5" y="-668.3" font-family="monospace" font-size="14.00">    EX_LocalVariable [CallFunc_SelectVisibility_IsVisible]</text>
<text text-anchor="start" x="2710.5" y="-653.3" font-family="monospace" font-size="14.00">    EX_LocalVariable [CallFunc_SelectVisibility_VisibilityChanged]</text>
<text text-anchor="start" x="2710.5" y="-638.3" font-family="monospace" font-size="14.00">    EX_LocalVariable [CallFunc_SelectVisibility_New_Visibility]</text>
<text text-anchor="start" x="2710.5" y="-623.3" font-family="monospace" font-size="14.00">  RValue = []</text>
</g>
<!-- SetBackgroundFromBiome__0&#45;&gt;SetBackgroundFromBiome__29 -->
<g id="edge14" class="edge">
<title>SetBackgroundFromBiome__0&#45;&gt;SetBackgroundFromBiome__29</title>
<path fill="none" stroke="black" d="M2983,-877.92C2983,-860.32 2983,-837.51 2983,-814.42"/>
<polygon fill="black" stroke="black" points="2986.5,-814.6 2983,-804.6 2979.5,-814.6 2986.5,-814.6"/>
</g>
<!-- SetBackgroundFromBiome__115 -->
<g id="node22" class="node">
<title>SetBackgroundFromBiome__115</title>
<polygon fill="#eeeeee" stroke="black" points="2743.5,-451 2743.5,-489 3222.5,-489 3222.5,-451 2743.5,-451"/>
<text text-anchor="start" x="2751.5" y="-473.8" font-family="monospace" font-size="14.00">EX_JumpIfNot 217</text>
<text text-anchor="start" x="2751.5" y="-458.8" font-family="monospace" font-size="14.00">  EX_LocalVariable [CallFunc_SelectVisibility_IsVisible]</text>
</g>
<!-- SetBackgroundFromBiome__29&#45;&gt;SetBackgroundFromBiome__115 -->
<g id="edge15" class="edge">
<title>SetBackgroundFromBiome__29&#45;&gt;SetBackgroundFromBiome__115</title>
<path fill="none" stroke="black" d="M2983,-615.66C2983,-574.45 2983,-528.86 2983,-500.09"/>
<polygon fill="black" stroke="black" points="2986.5,-500.36 2983,-490.36 2979.5,-500.36 2986.5,-500.36"/>
</g>
<!-- SetBackgroundFromBiome__129 -->
<g id="node23" class="node">
<title>SetBackgroundFromBiome__129</title>
<polygon fill="#eeeeee" stroke="black" points="2667.5,-226.5 2667.5,-324.5 3228.5,-324.5 3228.5,-226.5 2667.5,-226.5"/>
<text text-anchor="start" x="2675.5" y="-309.3" font-family="monospace" font-size="14.00">EX_LetObj</text>
<text text-anchor="start" x="2675.5" y="-294.3" font-family="monospace" font-size="14.00">  EX_LocalVariable [CallFunc_GetBiomeLargeImage_ReturnValue]</text>
<text text-anchor="start" x="2675.5" y="-279.3" font-family="monospace" font-size="14.00">  EX_Context</text>
<text text-anchor="start" x="2675.5" y="-264.3" font-family="monospace" font-size="14.00">    EX_LocalVariable [Biome]</text>
<text text-anchor="start" x="2675.5" y="-249.3" font-family="monospace" font-size="14.00">    EX_FinalFunction import /Script/FSD&#45;&gt;Biome&#45;&gt;GetBiomeLargeImage</text>
<text text-anchor="start" x="2675.5" y="-234.3" font-family="monospace" font-size="14.00">    RValue = [CallFunc_GetBiomeLargeImage_ReturnValue]</text>
</g>
<!-- SetBackgroundFromBiome__115&#45;&gt;SetBackgroundFromBiome__129 -->
<g id="edge17" class="edge">
<title>SetBackgroundFromBiome__115&#45;&gt;SetBackgroundFromBiome__129</title>
<path fill="none" stroke="black" d="M2979.77,-451.24C2975.03,-425.17 2965.97,-375.35 2958.74,-335.56"/>
<polygon fill="black" stroke="black" points="2962.21,-335.06 2956.97,-325.85 2955.32,-336.32 2962.21,-335.06"/>
<text text-anchor="middle" x="2975.5" y="-357.8" font-family="monospace" font-size="14.00">IF</text>
</g>
<!-- SetBackgroundFromBiome__217 -->
<g id="node25" class="node">
<title>SetBackgroundFromBiome__217</title>
<polygon fill="#eeeeee" stroke="black" points="3053,-0.5 3053,-38.5 3169,-38.5 3169,-0.5 3053,-0.5"/>
<text text-anchor="start" x="3061" y="-23.3" font-family="monospace" font-size="14.00">EX_Return</text>
<text text-anchor="start" x="3061" y="-8.3" font-family="monospace" font-size="14.00">  EX_Nothing</text>
</g>
<!-- SetBackgroundFromBiome__115&#45;&gt;SetBackgroundFromBiome__217 -->
<g id="edge16" class="edge">
<title>SetBackgroundFromBiome__115:e&#45;&gt;SetBackgroundFromBiome__217</title>
<path fill="none" stroke="red" d="M3224,-470C3267.78,-470 3254.5,-112.29 3230,-76 3218.05,-58.3 3198.92,-46.13 3179.45,-37.8"/>
<polygon fill="none" stroke="red" points="3180.96,-34.63 3170.38,-34.23 3178.4,-41.15 3180.96,-34.63"/>
<text text-anchor="middle" x="3274" y="-196.8" font-family="monospace" font-size="14.00">IF NOT</text>
</g>
<!-- SetBackgroundFromBiome__171 -->
<g id="node24" class="node">
<title>SetBackgroundFromBiome__171</title>
<polygon fill="#eeeeee" stroke="black" points="2693,-76.5 2693,-174.5 3221,-174.5 3221,-76.5 2693,-76.5"/>
<text text-anchor="start" x="2701" y="-159.3" font-family="monospace" font-size="14.00">EX_Context</text>
<text text-anchor="start" x="2701" y="-144.3" font-family="monospace" font-size="14.00">  EX_InstanceVariable [ImageBackground]</text>
<text text-anchor="start" x="2701" y="-129.3" font-family="monospace" font-size="14.00">  EX_VirtualFunction SetBrushFromTexture</text>
<text text-anchor="start" x="2701" y="-114.3" font-family="monospace" font-size="14.00">    EX_LocalVariable [CallFunc_GetBiomeLargeImage_ReturnValue]</text>
<text text-anchor="start" x="2701" y="-99.3" font-family="monospace" font-size="14.00">    EX_False</text>
<text text-anchor="start" x="2701" y="-84.3" font-family="monospace" font-size="14.00">  RValue = []</text>
</g>
<!-- SetBackgroundFromBiome__129&#45;&gt;SetBackgroundFromBiome__171 -->
<g id="edge18" class="edge">
<title>SetBackgroundFromBiome__129&#45;&gt;SetBackgroundFromBiome__171</title>
<path fill="none" stroke="black" d="M2950.9,-226.86C2951.7,-213.72 2952.57,-199.31 2953.41,-185.61"/>
<polygon fill="black" stroke="black" points="2956.89,-186.01 2954,-175.82 2949.9,-185.59 2956.89,-186.01"/>
</g>
<!-- SetBackgroundFromBiome__171&#45;&gt;SetBackgroundFromBiome__217 -->
<g id="edge19" class="edge">
<title>SetBackgroundFromBiome__171&#45;&gt;SetBackgroundFromBiome__217</title>
<path fill="none" stroke="black" d="M3027.69,-76.76C3044.14,-65.65 3060.97,-54.29 3075.16,-44.7"/>
<polygon fill="black" stroke="black" points="3076.94,-47.72 3083.27,-39.23 3073.03,-41.92 3076.94,-47.72"/>
</g>
<!-- SetBackgroundFromBiome__219 -->
<g id="node26" class="node">
<title>SetBackgroundFromBiome__219</title>
<polygon fill="#eeeeee" stroke="black" points="3272,-343.5 3272,-379.5 3404,-379.5 3404,-343.5 3272,-343.5"/>
<text text-anchor="start" x="3280" y="-357.8" font-family="monospace" font-size="14.00">EX_EndOfScript</text>
</g>
</g>
</svg>
