<?xml version="1.0" encoding="UTF-8" standalone="no"?>
<!DOCTYPE svg PUBLIC "-//W3C//DTD SVG 1.1//EN"
 "http://www.w3.org/Graphics/SVG/1.1/DTD/svg11.dtd">
<!-- Generated by graphviz version 7.0.1 (0)
 -->
<!-- Pages: 1 -->
<svg width="2452pt" height="842pt"
 viewBox="0.00 0.00 2452.00 842.00" xmlns="http://www.w3.org/2000/svg" xmlns:xlink="http://www.w3.org/1999/xlink">
<g id="graph0" class="graph" transform="scale(1 1) rotate(0) translate(4 838)">
<polygon fill="white" stroke="none" points="-4,4 -4,-838 2448,-838 2448,4 -4,4"/>
<!-- UI_FuelLine_Builder_CleanupPod_C -->
<g id="node1" class="node">
<title>UI_FuelLine_Builder_CleanupPod_C</title>
<polygon fill="#88ff88" stroke="black" points="0,-660.5 0,-833.5 850,-833.5 850,-660.5 0,-660.5"/>
<text text-anchor="start" x="8" y="-818.3" font-family="monospace" font-size="14.00">ClassExport: UI_FuelLine_Builder_CleanupPod_C</text>
<text text-anchor="start" x="8" y="-803.3" font-family="monospace" font-size="14.00">  SuperStruct: import /Script/UMG&#45;&gt;UserWidget</text>
<text text-anchor="start" x="8" y="-788.3" font-family="monospace" font-size="14.00">  Properties:</text>
<text text-anchor="start" x="8" y="-773.3" font-family="monospace" font-size="14.00">    StructProperty UberGraphFrame</text>
<text text-anchor="start" x="8" y="-758.3" font-family="monospace" font-size="14.00">      CPF_Transient|CPF_DuplicateTransient</text>
<text text-anchor="start" x="8" y="-743.3" font-family="monospace" font-size="14.00">    ObjectProperty CancelLabel</text>
<text text-anchor="start" x="8" y="-728.3" font-family="monospace" font-size="14.00">      CPF_BlueprintVisible|CPF_ExportObject|CPF_InstancedReference|CPF_RepSkip|CPF_PersistentInstance</text>
<text text-anchor="start" x="8" y="-713.3" font-family="monospace" font-size="14.00">    ObjectProperty DistanceProgress</text>
<text text-anchor="start" x="8" y="-698.3" font-family="monospace" font-size="14.00">      CPF_BlueprintVisible|CPF_ExportObject|CPF_InstancedReference|CPF_RepSkip|CPF_PersistentInstance</text>
<text text-anchor="start" x="8" y="-683.3" font-family="monospace" font-size="14.00">    ObjectProperty FireLabel</text>
<text text-anchor="start" x="8" y="-668.3" font-family="monospace" font-size="14.00">      CPF_BlueprintVisible|CPF_ExportObject|CPF_InstancedReference|CPF_RepSkip|CPF_PersistentInstance</text>
</g>
<!-- ExecuteUbergraph_UI_FuelLine_Builder_CleanupPod -->
<g id="node2" class="node">
<title>ExecuteUbergraph_UI_FuelLine_Builder_CleanupPod</title>
<polygon fill="#ff8888" stroke="black" points="868.5,-705.5 868.5,-788.5 1347.5,-788.5 1347.5,-705.5 868.5,-705.5"/>
<text text-anchor="start" x="876.5" y="-773.3" font-family="monospace" font-size="14.00">Function ExecuteUbergraph_UI_FuelLine_Builder_CleanupPod</text>
<text text-anchor="start" x="876.5" y="-758.3" font-family="monospace" font-size="14.00">  IntProperty EntryPoint</text>
<text text-anchor="start" x="876.5" y="-743.3" font-family="monospace" font-size="14.00">    CPF_BlueprintVisible|CPF_BlueprintReadOnly|CPF_Parm</text>
<text text-anchor="start" x="876.5" y="-728.3" font-family="monospace" font-size="14.00">  StructProperty CallFunc_MenuColors_OutputColor</text>
<text text-anchor="start" x="876.5" y="-713.3" font-family="monospace" font-size="14.00">  BoolProperty K2Node_Event_IsDesignTime</text>
</g>
<!-- ExecuteUbergraph_UI_FuelLine_Builder_CleanupPod__0 -->
<g id="node3" class="node">
<title>ExecuteUbergraph_UI_FuelLine_Builder_CleanupPod__0</title>
<polygon fill="#eeeeee" stroke="black" points="972,-563 972,-601 1244,-601 1244,-563 972,-563"/>
<text text-anchor="start" x="980" y="-585.8" font-family="monospace" font-size="14.00">EX_ComputedJump</text>
<text text-anchor="start" x="980" y="-570.8" font-family="monospace" font-size="14.00">  EX_LocalVariable [EntryPoint]</text>
</g>
<!-- ExecuteUbergraph_UI_FuelLine_Builder_CleanupPod&#45;&gt;ExecuteUbergraph_UI_FuelLine_Builder_CleanupPod__0 -->
<g id="edge1" class="edge">
<title>ExecuteUbergraph_UI_FuelLine_Builder_CleanupPod&#45;&gt;ExecuteUbergraph_UI_FuelLine_Builder_CleanupPod__0</title>
<path fill="none" stroke="black" d="M1108,-705.71C1108,-676.73 1108,-638.33 1108,-612.26"/>
<polygon fill="black" stroke="black" points="1111.5,-612.4 1108,-602.4 1104.5,-612.4 1111.5,-612.4"/>
</g>
<!-- ExecuteUbergraph_UI_FuelLine_Builder_CleanupPod__10 -->
<g id="node4" class="node">
<title>ExecuteUbergraph_UI_FuelLine_Builder_CleanupPod__10</title>
<polygon fill="#eeeeee" stroke="black" points="1683.5,-315.5 1683.5,-428.5 2442.5,-428.5 2442.5,-315.5 1683.5,-315.5"/>
<text text-anchor="start" x="1691.5" y="-413.3" font-family="monospace" font-size="14.00">EX_Context</text>
<text text-anchor="start" x="1691.5" y="-398.3" font-family="monospace" font-size="14.00">  EX_ObjectConst import /Game/UI/Art/WidgetParts/LIB_MenuColors&#45;&gt;Default__LIB_MenuColors_C</text>
<text text-anchor="start" x="1691.5" y="-383.3" font-family="monospace" font-size="14.00">  EX_LocalVirtualFunction MenuColors</text>
<text text-anchor="start" x="1691.5" y="-368.3" font-family="monospace" font-size="14.00">    EX_ByteConst 5</text>
<text text-anchor="start" x="1691.5" y="-353.3" font-family="monospace" font-size="14.00">    EX_Self</text>
<text text-anchor="start" x="1691.5" y="-338.3" font-family="monospace" font-size="14.00">    EX_LocalVariable [CallFunc_MenuColors_OutputColor]</text>
<text text-anchor="start" x="1691.5" y="-323.3" font-family="monospace" font-size="14.00">  RValue = []</text>
</g>
<!-- ExecuteUbergraph_UI_FuelLine_Builder_CleanupPod__58 -->
<g id="node5" class="node">
<title>ExecuteUbergraph_UI_FuelLine_Builder_CleanupPod__58</title>
<polygon fill="#eeeeee" stroke="black" points="1832,-195.5 1832,-278.5 2294,-278.5 2294,-195.5 1832,-195.5"/>
<text text-anchor="start" x="1840" y="-263.3" font-family="monospace" font-size="14.00">EX_Context</text>
<text text-anchor="start" x="1840" y="-248.3" font-family="monospace" font-size="14.00">  EX_InstanceVariable [CancelLabel]</text>
<text text-anchor="start" x="1840" y="-233.3" font-family="monospace" font-size="14.00">  EX_LocalVirtualFunction SetTextTint</text>
<text text-anchor="start" x="1840" y="-218.3" font-family="monospace" font-size="14.00">    EX_LocalVariable [CallFunc_MenuColors_OutputColor]</text>
<text text-anchor="start" x="1840" y="-203.3" font-family="monospace" font-size="14.00">  RValue = []</text>
</g>
<!-- ExecuteUbergraph_UI_FuelLine_Builder_CleanupPod__10&#45;&gt;ExecuteUbergraph_UI_FuelLine_Builder_CleanupPod__58 -->
<g id="edge2" class="edge">
<title>ExecuteUbergraph_UI_FuelLine_Builder_CleanupPod__10&#45;&gt;ExecuteUbergraph_UI_FuelLine_Builder_CleanupPod__58</title>
<path fill="none" stroke="black" d="M2063,-315.75C2063,-307.12 2063,-298.22 2063,-289.67"/>
<polygon fill="black" stroke="black" points="2066.5,-289.79 2063,-279.79 2059.5,-289.79 2066.5,-289.79"/>
</g>
<!-- ExecuteUbergraph_UI_FuelLine_Builder_CleanupPod__103 -->
<g id="node6" class="node">
<title>ExecuteUbergraph_UI_FuelLine_Builder_CleanupPod__103</title>
<polygon fill="#eeeeee" stroke="black" points="1832,-75.5 1832,-158.5 2294,-158.5 2294,-75.5 1832,-75.5"/>
<text text-anchor="start" x="1840" y="-143.3" font-family="monospace" font-size="14.00">EX_Context</text>
<text text-anchor="start" x="1840" y="-128.3" font-family="monospace" font-size="14.00">  EX_InstanceVariable [FireLabel]</text>
<text text-anchor="start" x="1840" y="-113.3" font-family="monospace" font-size="14.00">  EX_LocalVirtualFunction SetTextTint</text>
<text text-anchor="start" x="1840" y="-98.3" font-family="monospace" font-size="14.00">    EX_LocalVariable [CallFunc_MenuColors_OutputColor]</text>
<text text-anchor="start" x="1840" y="-83.3" font-family="monospace" font-size="14.00">  RValue = []</text>
</g>
<!-- ExecuteUbergraph_UI_FuelLine_Builder_CleanupPod__58&#45;&gt;ExecuteUbergraph_UI_FuelLine_Builder_CleanupPod__103 -->
<g id="edge3" class="edge">
<title>ExecuteUbergraph_UI_FuelLine_Builder_CleanupPod__58&#45;&gt;ExecuteUbergraph_UI_FuelLine_Builder_CleanupPod__103</title>
<path fill="none" stroke="black" d="M2063,-195.72C2063,-187.37 2063,-178.45 2063,-169.75"/>
<polygon fill="black" stroke="black" points="2066.5,-170.01 2063,-160.01 2059.5,-170.01 2066.5,-170.01"/>
</g>
<!-- ExecuteUbergraph_UI_FuelLine_Builder_CleanupPod__148 -->
<g id="node7" class="node">
<title>ExecuteUbergraph_UI_FuelLine_Builder_CleanupPod__148</title>
<polygon fill="#eeeeee" stroke="black" points="2005,-0.5 2005,-38.5 2121,-38.5 2121,-0.5 2005,-0.5"/>
<text text-anchor="start" x="2013" y="-23.3" font-family="monospace" font-size="14.00">EX_Return</text>
<text text-anchor="start" x="2013" y="-8.3" font-family="monospace" font-size="14.00">  EX_Nothing</text>
</g>
<!-- ExecuteUbergraph_UI_FuelLine_Builder_CleanupPod__103&#45;&gt;ExecuteUbergraph_UI_FuelLine_Builder_CleanupPod__148 -->
<g id="edge4" class="edge">
<title>ExecuteUbergraph_UI_FuelLine_Builder_CleanupPod__103&#45;&gt;ExecuteUbergraph_UI_FuelLine_Builder_CleanupPod__148</title>
<path fill="none" stroke="black" d="M2063,-75.78C2063,-67.01 2063,-57.89 2063,-49.65"/>
<polygon fill="black" stroke="black" points="2066.5,-49.86 2063,-39.86 2059.5,-49.86 2066.5,-49.86"/>
</g>
<!-- ExecuteUbergraph_UI_FuelLine_Builder_CleanupPod__150 -->
<g id="node8" class="node">
<title>ExecuteUbergraph_UI_FuelLine_Builder_CleanupPod__150</title>
<polygon fill="#eeeeee" stroke="black" points="2312,-219 2312,-255 2444,-255 2444,-219 2312,-219"/>
<text text-anchor="start" x="2320" y="-233.3" font-family="monospace" font-size="14.00">EX_EndOfScript</text>
</g>
<!-- PreConstruct -->
<g id="node9" class="node">
<title>PreConstruct</title>
<polygon fill="#ff8888" stroke="black" points="1366,-720.5 1366,-773.5 1836,-773.5 1836,-720.5 1366,-720.5"/>
<text text-anchor="start" x="1374" y="-758.3" font-family="monospace" font-size="14.00">Function PreConstruct</text>
<text text-anchor="start" x="1374" y="-743.3" font-family="monospace" font-size="14.00">  BoolProperty IsDesignTime</text>
<text text-anchor="start" x="1374" y="-728.3" font-family="monospace" font-size="14.00">    CPF_BlueprintVisible|CPF_BlueprintReadOnly|CPF_Parm</text>
</g>
<!-- PreConstruct__0 -->
<g id="node10" class="node">
<title>PreConstruct__0</title>
<polygon fill="#eeeeee" stroke="black" points="1361.5,-563 1361.5,-601 1840.5,-601 1840.5,-563 1361.5,-563"/>
<text text-anchor="start" x="1369.5" y="-585.8" font-family="monospace" font-size="14.00">EX_LetValueOnPersistentFrame [K2Node_Event_IsDesignTime]</text>
<text text-anchor="start" x="1369.5" y="-570.8" font-family="monospace" font-size="14.00">  EX_LocalVariable [IsDesignTime]</text>
</g>
<!-- PreConstruct&#45;&gt;PreConstruct__0 -->
<g id="edge5" class="edge">
<title>PreConstruct&#45;&gt;PreConstruct__0</title>
<path fill="none" stroke="black" d="M1601,-720.53C1601,-691.13 1601,-642.86 1601,-612.03"/>
<polygon fill="black" stroke="black" points="1604.5,-612.27 1601,-602.27 1597.5,-612.27 1604.5,-612.27"/>
</g>
<!-- PreConstruct__18 -->
<g id="node11" class="node">
<title>PreConstruct__18</title>
<polygon fill="#eeeeee" stroke="black" points="1139,-465.5 1139,-503.5 2063,-503.5 2063,-465.5 1139,-465.5"/>
<text text-anchor="start" x="1147" y="-488.3" font-family="monospace" font-size="14.00">EX_LocalFinalFunction export UI_FuelLine_Builder_CleanupPod_C&#45;&gt;ExecuteUbergraph_UI_FuelLine_Builder_CleanupPod</text>
<text text-anchor="start" x="1147" y="-473.3" font-family="monospace" font-size="14.00">  EX_IntConst 10</text>
</g>
<!-- PreConstruct__0&#45;&gt;PreConstruct__18 -->
<g id="edge6" class="edge">
<title>PreConstruct__0&#45;&gt;PreConstruct__18</title>
<path fill="none" stroke="black" d="M1601,-563.04C1601,-549.43 1601,-530.45 1601,-514.68"/>
<polygon fill="black" stroke="black" points="1604.5,-514.9 1601,-504.9 1597.5,-514.9 1604.5,-514.9"/>
</g>
<!-- PreConstruct__18&#45;&gt;ExecuteUbergraph_UI_FuelLine_Builder_CleanupPod__10 -->
<g id="edge7" class="edge">
<title>PreConstruct__18:e&#45;&gt;ExecuteUbergraph_UI_FuelLine_Builder_CleanupPod__10</title>
<path fill="none" stroke="red" d="M2064,-484.5C2069.37,-484.5 2069.9,-463.56 2068.77,-439.84"/>
<polygon fill="none" stroke="red" points="2072.27,-439.72 2068.21,-429.93 2065.28,-440.12 2072.27,-439.72"/>
</g>
<!-- PreConstruct__33 -->
<g id="node12" class="node">
<title>PreConstruct__33</title>
<polygon fill="#eeeeee" stroke="black" points="1543,-353 1543,-391 1659,-391 1659,-353 1543,-353"/>
<text text-anchor="start" x="1551" y="-375.8" font-family="monospace" font-size="14.00">EX_Return</text>
<text text-anchor="start" x="1551" y="-360.8" font-family="monospace" font-size="14.00">  EX_Nothing</text>
</g>
<!-- PreConstruct__18&#45;&gt;PreConstruct__33 -->
<g id="edge8" class="edge">
<title>PreConstruct__18&#45;&gt;PreConstruct__33</title>
<path fill="none" stroke="black" d="M1601,-465.75C1601,-448.59 1601,-422.3 1601,-402.08"/>
<polygon fill="black" stroke="black" points="1604.5,-402.22 1601,-392.22 1597.5,-402.22 1604.5,-402.22"/>
</g>
<!-- PreConstruct__35 -->
<g id="node13" class="node">
<title>PreConstruct__35</title>
<polygon fill="#eeeeee" stroke="black" points="2312,-99 2312,-135 2444,-135 2444,-99 2312,-99"/>
<text text-anchor="start" x="2320" y="-113.3" font-family="monospace" font-size="14.00">EX_EndOfScript</text>
</g>
<!-- SetProgress -->
<g id="node14" class="node">
<title>SetProgress</title>
<polygon fill="#ff8888" stroke="black" points="1904,-720.5 1904,-773.5 2374,-773.5 2374,-720.5 1904,-720.5"/>
<text text-anchor="start" x="1912" y="-758.3" font-family="monospace" font-size="14.00">Function SetProgress</text>
<text text-anchor="start" x="1912" y="-743.3" font-family="monospace" font-size="14.00">  FloatProperty InPercent</text>
<text text-anchor="start" x="1912" y="-728.3" font-family="monospace" font-size="14.00">    CPF_BlueprintVisible|CPF_BlueprintReadOnly|CPF_Parm</text>
</g>
<!-- SetProgress__0 -->
<g id="node15" class="node">
<title>SetProgress__0</title>
<polygon fill="#eeeeee" stroke="black" points="1875,-540.5 1875,-623.5 2403,-623.5 2403,-540.5 1875,-540.5"/>
<text text-anchor="start" x="1883" y="-608.3" font-family="monospace" font-size="14.00">EX_Context</text>
<text text-anchor="start" x="1883" y="-593.3" font-family="monospace" font-size="14.00">  EX_InstanceVariable [DistanceProgress]</text>
<text text-anchor="start" x="1883" y="-578.3" font-family="monospace" font-size="14.00">  EX_FinalFunction import /Script/UMG&#45;&gt;ProgressBar&#45;&gt;SetPercent</text>
<text text-anchor="start" x="1883" y="-563.3" font-family="monospace" font-size="14.00">    EX_LocalVariable [InPercent]</text>
<text text-anchor="start" x="1883" y="-548.3" font-family="monospace" font-size="14.00">  RValue = []</text>
</g>
<!-- SetProgress&#45;&gt;SetProgress__0 -->
<g id="edge9" class="edge">
<title>SetProgress&#45;&gt;SetProgress__0</title>
<path fill="none" stroke="black" d="M2139,-720.53C2139,-697.63 2139,-663.29 2139,-634.65"/>
<polygon fill="black" stroke="black" points="2142.5,-634.7 2139,-624.7 2135.5,-634.7 2142.5,-634.7"/>
</g>
<!-- SetProgress__41 -->
<g id="node16" class="node">
<title>SetProgress__41</title>
<polygon fill="#eeeeee" stroke="black" points="2081,-465.5 2081,-503.5 2197,-503.5 2197,-465.5 2081,-465.5"/>
<text text-anchor="start" x="2089" y="-488.3" font-family="monospace" font-size="14.00">EX_Return</text>
<text text-anchor="start" x="2089" y="-473.3" font-family="monospace" font-size="14.00">  EX_Nothing</text>
</g>
<!-- SetProgress__0&#45;&gt;SetProgress__41 -->
<g id="edge10" class="edge">
<title>SetProgress__0&#45;&gt;SetProgress__41</title>
<path fill="none" stroke="black" d="M2139,-540.78C2139,-532.01 2139,-522.89 2139,-514.65"/>
<polygon fill="black" stroke="black" points="2142.5,-514.86 2139,-504.86 2135.5,-514.86 2142.5,-514.86"/>
</g>
<!-- SetProgress__43 -->
<g id="node17" class="node">
<title>SetProgress__43</title>
<polygon fill="#eeeeee" stroke="black" points="2139,-1.5 2139,-37.5 2271,-37.5 2271,-1.5 2139,-1.5"/>
<text text-anchor="start" x="2147" y="-15.8" font-family="monospace" font-size="14.00">EX_EndOfScript</text>
</g>
</g>
</svg>
